<svg width="712" height="104" viewBox="0 0 712 104" fill="none" xmlns="http://www.w3.org/2000/svg">
<rect x="0.5" y="0.5" width="711" height="103" rx="7.5" fill="white"/>
<rect x="0.5" y="0.5" width="711" height="103" rx="7.5" stroke="#CDCCCB"/>
<mask id="path-2-inside-1_968_10343" fill="white">
<path d="M195 40C195 35.5817 198.582 32 203 32H308C312.418 32 316 35.5817 316 40V64C316 68.4183 312.418 72 308 72H203C198.582 72 195 68.4183 195 64V40Z"/>
</mask>
<path d="M195 40C195 35.5817 198.582 32 203 32H308C312.418 32 316 35.5817 316 40V64C316 68.4183 312.418 72 308 72H203C198.582 72 195 68.4183 195 64V40Z" fill="white"/>
<path d="M203 32V33H308V32V31H203V32ZM316 40H315V64H316H317V40H316ZM308 72V71H203V72V73H308V72ZM195 64H196V40H195H194V64H195ZM203 72V71C199.134 71 196 67.866 196 64H195H194C194 68.9706 198.029 73 203 73V72ZM316 64H315C315 67.866 311.866 71 308 71V72V73C312.971 73 317 68.9706 317 64H316ZM308 32V33C311.866 33 315 36.134 315 40H316H317C317 35.0294 312.971 31 308 31V32ZM203 32V31C198.029 31 194 35.0294 194 40H195H196C196 36.134 199.134 33 203 33V32Z" fill="#2964A0" mask="url(#path-2-inside-1_968_10343)"/>
<path d="M222 53H217C216.717 53 216.479 52.9042 216.287 52.7125C216.096 52.5208 216 52.2833 216 52C216 51.7167 216.096 51.4792 216.287 51.2875C216.479 51.0958 216.717 51 217 51H222V46C222 45.7167 222.096 45.4792 222.287 45.2875C222.479 45.0958 222.717 45 223 45C223.283 45 223.521 45.0958 223.713 45.2875C223.904 45.4792 224 45.7167 224 46V51H229C229.283 51 229.521 51.0958 229.713 51.2875C229.904 51.4792 230 51.7167 230 52C230 52.2833 229.904 52.5208 229.713 52.7125C229.521 52.9042 229.283 53 229 53H224V58C224 58.2833 223.904 58.5208 223.713 58.7125C223.521 58.9042 223.283 59 223 59C222.717 59 222.479 58.9042 222.287 58.7125C222.096 58.5208 222 58.2833 222 58V53Z" fill="#2964A0"/>
<path d="M245.7 59C245.367 59 245.107 58.9067 244.92 58.72C244.733 58.5333 244.64 58.2733 244.64 57.94V45.88C244.64 45.5333 244.727 45.2733 244.9 45.1C245.087 44.9133 245.347 44.82 245.68 44.82C246.013 44.82 246.267 44.9133 246.44 45.1C246.627 45.2733 246.72 45.5333 246.72 45.88V57.22H252.92C253.213 57.22 253.44 57.3 253.6 57.46C253.76 57.6067 253.84 57.82 253.84 58.1C253.84 58.38 253.76 58.6 253.6 58.76C253.44 58.92 253.213 59 252.92 59H245.7ZM258.075 59.18C257.395 59.18 256.782 59.0467 256.235 58.78C255.702 58.5133 255.282 58.1533 254.975 57.7C254.668 57.2467 254.515 56.7333 254.515 56.16C254.515 55.44 254.695 54.8733 255.055 54.46C255.428 54.0333 256.035 53.7333 256.875 53.56C257.728 53.3733 258.875 53.28 260.315 53.28H261.255V54.52H260.335C259.375 54.52 258.615 54.5667 258.055 54.66C257.495 54.7533 257.095 54.9133 256.855 55.14C256.628 55.3533 256.515 55.6533 256.515 56.04C256.515 56.5467 256.688 56.96 257.035 57.28C257.382 57.5867 257.862 57.74 258.475 57.74C258.968 57.74 259.402 57.6267 259.775 57.4C260.148 57.16 260.442 56.84 260.655 56.44C260.882 56.04 260.995 55.58 260.995 55.06V52.76C260.995 52 260.835 51.4533 260.515 51.12C260.195 50.7867 259.668 50.62 258.935 50.62C258.508 50.62 258.062 50.6733 257.595 50.78C257.142 50.8867 256.668 51.0667 256.175 51.32C255.948 51.4267 255.755 51.46 255.595 51.42C255.435 51.38 255.308 51.2933 255.215 51.16C255.122 51.0133 255.068 50.86 255.055 50.7C255.055 50.5267 255.095 50.36 255.175 50.2C255.268 50.04 255.422 49.92 255.635 49.84C256.222 49.56 256.802 49.36 257.375 49.24C257.948 49.12 258.488 49.06 258.995 49.06C259.888 49.06 260.622 49.2 261.195 49.48C261.782 49.76 262.215 50.1867 262.495 50.76C262.775 51.3333 262.915 52.0733 262.915 52.98V58.12C262.915 58.44 262.835 58.6933 262.675 58.88C262.515 59.0533 262.282 59.14 261.975 59.14C261.682 59.14 261.448 59.0533 261.275 58.88C261.102 58.6933 261.015 58.44 261.015 58.12V56.82H261.195C261.088 57.3133 260.888 57.74 260.595 58.1C260.315 58.4467 259.962 58.7133 259.535 58.9C259.108 59.0867 258.622 59.18 258.075 59.18ZM270.437 59.18C269.584 59.18 268.844 58.9667 268.217 58.54C267.591 58.1 267.171 57.52 266.957 56.8L267.177 56.44V58.12C267.177 58.44 267.091 58.6933 266.917 58.88C266.744 59.0533 266.504 59.14 266.197 59.14C265.877 59.14 265.631 59.0533 265.457 58.88C265.284 58.6933 265.197 58.44 265.197 58.12V45.78C265.197 45.4467 265.284 45.1933 265.457 45.02C265.631 44.8467 265.877 44.76 266.197 44.76C266.517 44.76 266.764 44.8467 266.937 45.02C267.124 45.1933 267.217 45.4467 267.217 45.78V51.38H266.977C267.191 50.6733 267.611 50.1133 268.237 49.7C268.864 49.2733 269.597 49.06 270.437 49.06C271.317 49.06 272.077 49.2667 272.717 49.68C273.357 50.0933 273.851 50.6733 274.197 51.42C274.557 52.1667 274.737 53.0667 274.737 54.12C274.737 55.1467 274.557 56.0467 274.197 56.82C273.851 57.58 273.351 58.1667 272.697 58.58C272.057 58.98 271.304 59.18 270.437 59.18ZM269.937 57.62C270.497 57.62 270.984 57.4867 271.397 57.22C271.811 56.9533 272.131 56.56 272.357 56.04C272.584 55.52 272.697 54.88 272.697 54.12C272.697 52.9733 272.444 52.1067 271.937 51.52C271.444 50.9333 270.777 50.64 269.937 50.64C269.391 50.64 268.904 50.7733 268.477 51.04C268.064 51.2933 267.744 51.68 267.517 52.2C267.291 52.72 267.177 53.36 267.177 54.12C267.177 55.2533 267.431 56.12 267.937 56.72C268.444 57.32 269.111 57.62 269.937 57.62ZM281.094 59.18C280.027 59.18 279.107 58.98 278.334 58.58C277.574 58.1667 276.98 57.5867 276.554 56.84C276.14 56.08 275.934 55.18 275.934 54.14C275.934 53.1267 276.14 52.24 276.554 51.48C276.967 50.72 277.534 50.1267 278.254 49.7C278.974 49.2733 279.794 49.06 280.714 49.06C281.394 49.06 282 49.1733 282.534 49.4C283.067 49.6133 283.52 49.9333 283.894 50.36C284.28 50.7733 284.567 51.28 284.754 51.88C284.954 52.48 285.054 53.1533 285.054 53.9C285.054 54.1267 284.987 54.3 284.854 54.42C284.72 54.5267 284.52 54.58 284.254 54.58H277.534V53.34H283.694L283.354 53.62C283.354 52.9533 283.254 52.3867 283.054 51.92C282.867 51.4533 282.58 51.1 282.194 50.86C281.82 50.6067 281.354 50.48 280.794 50.48C280.167 50.48 279.634 50.6267 279.194 50.92C278.767 51.2133 278.44 51.62 278.214 52.14C277.987 52.66 277.874 53.2667 277.874 53.96V54.08C277.874 55.2533 278.147 56.14 278.694 56.74C279.254 57.3267 280.06 57.62 281.114 57.62C281.514 57.62 281.934 57.5667 282.374 57.46C282.827 57.3533 283.254 57.1733 283.654 56.92C283.88 56.7867 284.08 56.7267 284.254 56.74C284.44 56.7533 284.587 56.8133 284.694 56.92C284.814 57.0267 284.887 57.16 284.914 57.32C284.94 57.48 284.914 57.6467 284.834 57.82C284.754 57.98 284.614 58.1267 284.414 58.26C283.96 58.5667 283.434 58.8 282.834 58.96C282.234 59.1067 281.654 59.18 281.094 59.18ZM289.896 59.18C288.856 59.18 288.069 58.88 287.536 58.28C287.016 57.6667 286.756 56.7867 286.756 55.64V45.78C286.756 45.4467 286.843 45.1933 287.016 45.02C287.189 44.8467 287.436 44.76 287.756 44.76C288.076 44.76 288.323 44.8467 288.496 45.02C288.683 45.1933 288.776 45.4467 288.776 45.78V55.52C288.776 56.1867 288.909 56.6867 289.176 57.02C289.456 57.34 289.856 57.5 290.376 57.5C290.496 57.5 290.603 57.5 290.696 57.5C290.789 57.4867 290.883 57.4733 290.976 57.46C291.136 57.4467 291.249 57.4933 291.316 57.6C291.383 57.6933 291.416 57.8933 291.416 58.2C291.416 58.48 291.356 58.7 291.236 58.86C291.116 59.0067 290.923 59.1 290.656 59.14C290.536 59.1533 290.409 59.16 290.276 59.16C290.143 59.1733 290.016 59.18 289.896 59.18Z" fill="#2964A0"/>
<mask id="path-6-inside-2_968_10343" fill="white">
<path d="M396 40C396 35.5817 399.582 32 404 32H509C513.418 32 517 35.5817 517 40V64C517 68.4183 513.418 72 509 72H404C399.582 72 396 68.4183 396 64V40Z"/>
</mask>
<path d="M396 40C396 35.5817 399.582 32 404 32H509C513.418 32 517 35.5817 517 40V64C517 68.4183 513.418 72 509 72H404C399.582 72 396 68.4183 396 64V40Z" fill="white"/>
<path d="M404 32V33H509V32V31H404V32ZM517 40H516V64H517H518V40H517ZM509 72V71H404V72V73H509V72ZM396 64H397V40H396H395V64H396ZM404 72V71C400.134 71 397 67.866 397 64H396H395C395 68.9706 399.029 73 404 73V72ZM517 64H516C516 67.866 512.866 71 509 71V72V73C513.971 73 518 68.9706 518 64H517ZM509 32V33C512.866 33 516 36.134 516 40H517H518C518 35.0294 513.971 31 509 31V32ZM404 32V31C399.029 31 395 35.0294 395 40H396H397C397 36.134 400.134 33 404 33V32Z" fill="#2964A0" mask="url(#path-6-inside-2_968_10343)"/>
<path d="M423 53H418C417.717 53 417.479 52.9042 417.287 52.7125C417.096 52.5208 417 52.2833 417 52C417 51.7167 417.096 51.4792 417.287 51.2875C417.479 51.0958 417.717 51 418 51H423V46C423 45.7167 423.096 45.4792 423.287 45.2875C423.479 45.0958 423.717 45 424 45C424.283 45 424.521 45.0958 424.713 45.2875C424.904 45.4792 425 45.7167 425 46V51H430C430.283 51 430.521 51.0958 430.713 51.2875C430.904 51.4792 431 51.7167 431 52C431 52.2833 430.904 52.5208 430.713 52.7125C430.521 52.9042 430.283 53 430 53H425V58C425 58.2833 424.904 58.5208 424.713 58.7125C424.521 58.9042 424.283 59 424 59C423.717 59 423.479 58.9042 423.287 58.7125C423.096 58.5208 423 58.2833 423 58V53Z" fill="#2964A0"/>
<path d="M446.7 59C446.367 59 446.107 58.9067 445.92 58.72C445.733 58.5333 445.64 58.2733 445.64 57.94V45.88C445.64 45.5333 445.727 45.2733 445.9 45.1C446.087 44.9133 446.347 44.82 446.68 44.82C447.013 44.82 447.267 44.9133 447.44 45.1C447.627 45.2733 447.72 45.5333 447.72 45.88V57.22H453.92C454.213 57.22 454.44 57.3 454.6 57.46C454.76 57.6067 454.84 57.82 454.84 58.1C454.84 58.38 454.76 58.6 454.6 58.76C454.44 58.92 454.213 59 453.92 59H446.7ZM459.075 59.18C458.395 59.18 457.782 59.0467 457.235 58.78C456.702 58.5133 456.282 58.1533 455.975 57.7C455.668 57.2467 455.515 56.7333 455.515 56.16C455.515 55.44 455.695 54.8733 456.055 54.46C456.428 54.0333 457.035 53.7333 457.875 53.56C458.728 53.3733 459.875 53.28 461.315 53.28H462.255V54.52H461.335C460.375 54.52 459.615 54.5667 459.055 54.66C458.495 54.7533 458.095 54.9133 457.855 55.14C457.628 55.3533 457.515 55.6533 457.515 56.04C457.515 56.5467 457.688 56.96 458.035 57.28C458.382 57.5867 458.862 57.74 459.475 57.74C459.968 57.74 460.402 57.6267 460.775 57.4C461.148 57.16 461.442 56.84 461.655 56.44C461.882 56.04 461.995 55.58 461.995 55.06V52.76C461.995 52 461.835 51.4533 461.515 51.12C461.195 50.7867 460.668 50.62 459.935 50.62C459.508 50.62 459.062 50.6733 458.595 50.78C458.142 50.8867 457.668 51.0667 457.175 51.32C456.948 51.4267 456.755 51.46 456.595 51.42C456.435 51.38 456.308 51.2933 456.215 51.16C456.122 51.0133 456.068 50.86 456.055 50.7C456.055 50.5267 456.095 50.36 456.175 50.2C456.268 50.04 456.422 49.92 456.635 49.84C457.222 49.56 457.802 49.36 458.375 49.24C458.948 49.12 459.488 49.06 459.995 49.06C460.888 49.06 461.622 49.2 462.195 49.48C462.782 49.76 463.215 50.1867 463.495 50.76C463.775 51.3333 463.915 52.0733 463.915 52.98V58.12C463.915 58.44 463.835 58.6933 463.675 58.88C463.515 59.0533 463.282 59.14 462.975 59.14C462.682 59.14 462.448 59.0533 462.275 58.88C462.102 58.6933 462.015 58.44 462.015 58.12V56.82H462.195C462.088 57.3133 461.888 57.74 461.595 58.1C461.315 58.4467 460.962 58.7133 460.535 58.9C460.108 59.0867 459.622 59.18 459.075 59.18ZM471.437 59.18C470.584 59.18 469.844 58.9667 469.217 58.54C468.591 58.1 468.171 57.52 467.957 56.8L468.177 56.44V58.12C468.177 58.44 468.091 58.6933 467.917 58.88C467.744 59.0533 467.504 59.14 467.197 59.14C466.877 59.14 466.631 59.0533 466.457 58.88C466.284 58.6933 466.197 58.44 466.197 58.12V45.78C466.197 45.4467 466.284 45.1933 466.457 45.02C466.631 44.8467 466.877 44.76 467.197 44.76C467.517 44.76 467.764 44.8467 467.937 45.02C468.124 45.1933 468.217 45.4467 468.217 45.78V51.38H467.977C468.191 50.6733 468.611 50.1133 469.237 49.7C469.864 49.2733 470.597 49.06 471.437 49.06C472.317 49.06 473.077 49.2667 473.717 49.68C474.357 50.0933 474.851 50.6733 475.197 51.42C475.557 52.1667 475.737 53.0667 475.737 54.12C475.737 55.1467 475.557 56.0467 475.197 56.82C474.851 57.58 474.351 58.1667 473.697 58.58C473.057 58.98 472.304 59.18 471.437 59.18ZM470.937 57.62C471.497 57.62 471.984 57.4867 472.397 57.22C472.811 56.9533 473.131 56.56 473.357 56.04C473.584 55.52 473.697 54.88 473.697 54.12C473.697 52.9733 473.444 52.1067 472.937 51.52C472.444 50.9333 471.777 50.64 470.937 50.64C470.391 50.64 469.904 50.7733 469.477 51.04C469.064 51.2933 468.744 51.68 468.517 52.2C468.291 52.72 468.177 53.36 468.177 54.12C468.177 55.2533 468.431 56.12 468.937 56.72C469.444 57.32 470.111 57.62 470.937 57.62ZM482.094 59.18C481.027 59.18 480.107 58.98 479.334 58.58C478.574 58.1667 477.98 57.5867 477.554 56.84C477.14 56.08 476.934 55.18 476.934 54.14C476.934 53.1267 477.14 52.24 477.554 51.48C477.967 50.72 478.534 50.1267 479.254 49.7C479.974 49.2733 480.794 49.06 481.714 49.06C482.394 49.06 483 49.1733 483.534 49.4C484.067 49.6133 484.52 49.9333 484.894 50.36C485.28 50.7733 485.567 51.28 485.754 51.88C485.954 52.48 486.054 53.1533 486.054 53.9C486.054 54.1267 485.987 54.3 485.854 54.42C485.72 54.5267 485.52 54.58 485.254 54.58H478.534V53.34H484.694L484.354 53.62C484.354 52.9533 484.254 52.3867 484.054 51.92C483.867 51.4533 483.58 51.1 483.194 50.86C482.82 50.6067 482.354 50.48 481.794 50.48C481.167 50.48 480.634 50.6267 480.194 50.92C479.767 51.2133 479.44 51.62 479.214 52.14C478.987 52.66 478.874 53.2667 478.874 53.96V54.08C478.874 55.2533 479.147 56.14 479.694 56.74C480.254 57.3267 481.06 57.62 482.114 57.62C482.514 57.62 482.934 57.5667 483.374 57.46C483.827 57.3533 484.254 57.1733 484.654 56.92C484.88 56.7867 485.08 56.7267 485.254 56.74C485.44 56.7533 485.587 56.8133 485.694 56.92C485.814 57.0267 485.887 57.16 485.914 57.32C485.94 57.48 485.914 57.6467 485.834 57.82C485.754 57.98 485.614 58.1267 485.414 58.26C484.96 58.5667 484.434 58.8 483.834 58.96C483.234 59.1067 482.654 59.18 482.094 59.18ZM490.896 59.18C489.856 59.18 489.069 58.88 488.536 58.28C488.016 57.6667 487.756 56.7867 487.756 55.64V45.78C487.756 45.4467 487.843 45.1933 488.016 45.02C488.189 44.8467 488.436 44.76 488.756 44.76C489.076 44.76 489.323 44.8467 489.496 45.02C489.683 45.1933 489.776 45.4467 489.776 45.78V55.52C489.776 56.1867 489.909 56.6867 490.176 57.02C490.456 57.34 490.856 57.5 491.376 57.5C491.496 57.5 491.603 57.5 491.696 57.5C491.789 57.4867 491.883 57.4733 491.976 57.46C492.136 57.4467 492.249 57.4933 492.316 57.6C492.383 57.6933 492.416 57.8933 492.416 58.2C492.416 58.48 492.356 58.7 492.236 58.86C492.116 59.0067 491.923 59.1 491.656 59.14C491.536 59.1533 491.409 59.16 491.276 59.16C491.143 59.1733 491.016 59.18 490.896 59.18Z" fill="#2964A0"/>
<rect x="396.5" y="32.5" width="15" height="39" stroke="#1465FC"/>
<path opacity="0.2" d="M396 32H412V72H396V32Z" fill="#53AAFF"/>
<path d="M401.865 48.7273V56H400.985V49.6506H400.942L399.166 50.8295V49.9347L400.985 48.7273H401.865ZM406.372 56.0994C406.073 56.0947 405.775 56.0379 405.477 55.929C405.179 55.8201 404.906 55.6366 404.66 55.3786C404.414 55.1181 404.216 54.7666 404.067 54.3239C403.918 53.8788 403.843 53.3201 403.843 52.6477C403.843 52.0038 403.904 51.4332 404.024 50.9361C404.145 50.4366 404.32 50.0163 404.55 49.6754C404.78 49.3321 405.057 49.0717 405.381 48.8942C405.708 48.7166 406.076 48.6278 406.485 48.6278C406.893 48.6278 407.255 48.7095 407.572 48.8729C407.892 49.0339 408.152 49.2588 408.353 49.5476C408.554 49.8364 408.685 50.169 408.744 50.5455H407.877C407.797 50.2187 407.641 49.9477 407.409 49.7322C407.177 49.5168 406.869 49.4091 406.485 49.4091C405.922 49.4091 405.478 49.6541 405.154 50.1442C404.832 50.6342 404.67 51.322 404.667 52.2074H404.724C404.857 52.0062 405.014 51.8345 405.196 51.6925C405.381 51.5481 405.585 51.4368 405.807 51.3587C406.03 51.2805 406.265 51.2415 406.514 51.2415C406.93 51.2415 407.312 51.3456 407.657 51.554C408.003 51.7599 408.28 52.0452 408.488 52.4098C408.697 52.772 408.801 53.1875 408.801 53.6562C408.801 54.1061 408.7 54.518 408.499 54.892C408.298 55.2637 408.015 55.5597 407.65 55.7798C407.288 55.9976 406.862 56.1042 406.372 56.0994ZM406.372 55.3182C406.67 55.3182 406.938 55.2436 407.174 55.0945C407.413 54.9453 407.602 54.7453 407.739 54.4943C407.879 54.2434 407.948 53.964 407.948 53.6562C407.948 53.3556 407.881 53.0821 407.746 52.8359C407.613 52.5874 407.43 52.3897 407.196 52.2429C406.964 52.0961 406.698 52.0227 406.4 52.0227C406.175 52.0227 405.966 52.0677 405.772 52.1577C405.577 52.2453 405.407 52.366 405.26 52.5199C405.116 52.6738 405.002 52.8501 404.919 53.049C404.836 53.2455 404.795 53.4527 404.795 53.6705C404.795 53.9593 404.862 54.2292 404.997 54.4801C405.135 54.7311 405.322 54.9335 405.559 55.0874C405.798 55.2412 406.069 55.3182 406.372 55.3182Z" fill="#1465FC"/>
<g clip-path="url(#clip0_968_10343)">
<rect opacity="0.2" x="396" y="32" width="181.5" height="9" fill="#53AAFF"/>
<path d="M456.524 37.0497C456.375 37.0473 456.225 37.0189 456.076 36.9645C455.927 36.91 455.791 36.8183 455.668 36.6893C455.545 36.5591 455.446 36.3833 455.371 36.1619C455.297 35.9394 455.26 35.66 455.26 35.3239C455.26 35.0019 455.29 34.7166 455.35 34.468C455.41 34.2183 455.498 34.0082 455.613 33.8377C455.728 33.6661 455.866 33.5359 456.028 33.4471C456.192 33.3583 456.376 33.3139 456.581 33.3139C456.784 33.3139 456.965 33.3548 457.124 33.4364C457.284 33.5169 457.414 33.6294 457.515 33.7738C457.615 33.9182 457.68 34.0845 457.71 34.2727H457.277C457.236 34.1094 457.158 33.9738 457.042 33.8661C456.926 33.7584 456.772 33.7045 456.581 33.7045C456.299 33.7045 456.077 33.8271 455.915 34.0721C455.754 34.3171 455.673 34.661 455.671 35.1037H455.7C455.766 35.0031 455.845 34.9173 455.936 34.8462C456.028 34.774 456.13 34.7184 456.241 34.6793C456.353 34.6403 456.47 34.6207 456.595 34.6207C456.803 34.6207 456.994 34.6728 457.167 34.777C457.339 34.88 457.478 35.0226 457.582 35.2049C457.686 35.386 457.738 35.5938 457.738 35.8281C457.738 36.053 457.688 36.259 457.587 36.446C457.487 36.6319 457.345 36.7798 457.163 36.8899C456.982 36.9988 456.769 37.0521 456.524 37.0497ZM456.524 36.6591C456.673 36.6591 456.807 36.6218 456.925 36.5472C457.045 36.4727 457.139 36.3726 457.207 36.2472C457.277 36.1217 457.312 35.982 457.312 35.8281C457.312 35.6778 457.278 35.5411 457.211 35.418C457.145 35.2937 457.053 35.1948 456.936 35.1214C456.82 35.0481 456.687 35.0114 456.538 35.0114C456.426 35.0114 456.321 35.0339 456.224 35.0788C456.127 35.1226 456.041 35.183 455.968 35.2599C455.896 35.3369 455.839 35.4251 455.798 35.5245C455.756 35.6228 455.735 35.7263 455.735 35.8352C455.735 35.9796 455.769 36.1146 455.837 36.2401C455.905 36.3655 455.999 36.4667 456.117 36.5437C456.237 36.6206 456.372 36.6591 456.524 36.6591Z" fill="#1465FC"/>
</g>
<rect x="396.5" y="32.5" width="120" height="5" stroke="#1465FC"/>
<g clip-path="url(#clip1_968_10343)">
<rect opacity="0.2" x="396" y="66" width="181.5" height="9" fill="#53AAFF"/>
<path d="M456.524 71.0497C456.375 71.0473 456.225 71.0189 456.076 70.9645C455.927 70.91 455.791 70.8183 455.668 70.6893C455.545 70.5591 455.446 70.3833 455.371 70.1619C455.297 69.9394 455.26 69.66 455.26 69.3239C455.26 69.0019 455.29 68.7166 455.35 68.468C455.41 68.2183 455.498 68.0082 455.613 67.8377C455.728 67.6661 455.866 67.5359 456.028 67.4471C456.192 67.3583 456.376 67.3139 456.581 67.3139C456.784 67.3139 456.965 67.3548 457.124 67.4364C457.284 67.5169 457.414 67.6294 457.515 67.7738C457.615 67.9182 457.68 68.0845 457.71 68.2727H457.277C457.236 68.1094 457.158 67.9738 457.042 67.8661C456.926 67.7584 456.772 67.7045 456.581 67.7045C456.299 67.7045 456.077 67.8271 455.915 68.0721C455.754 68.3171 455.673 68.661 455.671 69.1037H455.7C455.766 69.0031 455.845 68.9173 455.936 68.8462C456.028 68.774 456.13 68.7184 456.241 68.6793C456.353 68.6403 456.47 68.6207 456.595 68.6207C456.803 68.6207 456.994 68.6728 457.167 68.777C457.339 68.88 457.478 69.0226 457.582 69.2049C457.686 69.386 457.738 69.5938 457.738 69.8281C457.738 70.053 457.688 70.259 457.587 70.446C457.487 70.6319 457.345 70.7798 457.163 70.8899C456.982 70.9988 456.769 71.0521 456.524 71.0497ZM456.524 70.6591C456.673 70.6591 456.807 70.6218 456.925 70.5472C457.045 70.4727 457.139 70.3726 457.207 70.2472C457.277 70.1217 457.312 69.982 457.312 69.8281C457.312 69.6778 457.278 69.5411 457.211 69.418C457.145 69.2937 457.053 69.1948 456.936 69.1214C456.82 69.0481 456.687 69.0114 456.538 69.0114C456.426 69.0114 456.321 69.0339 456.224 69.0788C456.127 69.1226 456.041 69.183 455.968 69.2599C455.896 69.3369 455.839 69.4251 455.798 69.5245C455.756 69.6228 455.735 69.7263 455.735 69.8352C455.735 69.9796 455.769 70.1146 455.837 70.2401C455.905 70.3655 455.999 70.4667 456.117 70.5437C456.237 70.6206 456.372 70.6591 456.524 70.6591Z" fill="#1465FC"/>
</g>
<rect x="396.5" y="66.5" width="120" height="5" stroke="#1465FC"/>
<rect x="501.5" y="32.5" width="15" height="39" stroke="#1465FC"/>
<path opacity="0.2" d="M501 32H517V72H501V32Z" fill="#53AAFF"/>
<path d="M506.865 48.7273V56H505.985V49.6506H505.942L504.166 50.8295V49.9347L505.985 48.7273H506.865ZM511.372 56.0994C511.073 56.0947 510.775 56.0379 510.477 55.929C510.179 55.8201 509.906 55.6366 509.66 55.3786C509.414 55.1181 509.216 54.7666 509.067 54.3239C508.918 53.8788 508.843 53.3201 508.843 52.6477C508.843 52.0038 508.904 51.4332 509.024 50.9361C509.145 50.4366 509.32 50.0163 509.55 49.6754C509.78 49.3321 510.057 49.0717 510.381 48.8942C510.708 48.7166 511.076 48.6278 511.485 48.6278C511.893 48.6278 512.255 48.7095 512.572 48.8729C512.892 49.0339 513.152 49.2588 513.353 49.5476C513.554 49.8364 513.685 50.169 513.744 50.5455H512.877C512.797 50.2187 512.641 49.9477 512.409 49.7322C512.177 49.5168 511.869 49.4091 511.485 49.4091C510.922 49.4091 510.478 49.6541 510.154 50.1442C509.832 50.6342 509.67 51.322 509.667 52.2074H509.724C509.857 52.0062 510.014 51.8345 510.196 51.6925C510.381 51.5481 510.585 51.4368 510.807 51.3587C511.03 51.2805 511.265 51.2415 511.514 51.2415C511.93 51.2415 512.312 51.3456 512.657 51.554C513.003 51.7599 513.28 52.0452 513.488 52.4098C513.697 52.772 513.801 53.1875 513.801 53.6562C513.801 54.1061 513.7 54.518 513.499 54.892C513.298 55.2637 513.015 55.5597 512.65 55.7798C512.288 55.9976 511.862 56.1042 511.372 56.0994ZM511.372 55.3182C511.67 55.3182 511.938 55.2436 512.174 55.0945C512.413 54.9453 512.602 54.7453 512.739 54.4943C512.879 54.2434 512.948 53.964 512.948 53.6562C512.948 53.3556 512.881 53.0821 512.746 52.8359C512.613 52.5874 512.43 52.3897 512.196 52.2429C511.964 52.0961 511.698 52.0227 511.4 52.0227C511.175 52.0227 510.966 52.0677 510.772 52.1577C510.577 52.2453 510.407 52.366 510.26 52.5199C510.116 52.6738 510.002 52.8501 509.919 53.049C509.836 53.2455 509.795 53.4527 509.795 53.6705C509.795 53.9593 509.862 54.2292 509.997 54.4801C510.135 54.7311 510.322 54.9335 510.559 55.0874C510.798 55.2412 511.069 55.3182 511.372 55.3182Z" fill="#1465FC"/>
<rect x="494.5" y="37.5" width="7" height="29" stroke="#1465FC"/>
<rect opacity="0.2" x="494" y="37" width="8" height="30" fill="#53AAFF"/>
<path d="M498.001 54.0597C497.708 54.0597 497.45 54.0078 497.225 53.9041C497.002 53.799 496.828 53.6548 496.703 53.4716C496.578 53.2869 496.516 53.0767 496.518 52.8409C496.516 52.6562 496.553 52.4858 496.627 52.3295C496.7 52.1719 496.801 52.0405 496.929 51.9354C497.058 51.8288 497.203 51.7614 497.362 51.733V51.7074C497.153 51.6534 496.987 51.5362 496.863 51.3558C496.739 51.174 496.678 50.9673 496.68 50.7358C496.678 50.5142 496.734 50.3161 496.848 50.1413C496.962 49.9666 497.118 49.8288 497.317 49.728C497.517 49.6271 497.745 49.5767 498.001 49.5767C498.254 49.5767 498.479 49.6271 498.678 49.728C498.877 49.8288 499.033 49.9666 499.147 50.1413C499.262 50.3161 499.32 50.5142 499.322 50.7358C499.32 50.9673 499.257 51.174 499.132 51.3558C499.009 51.5362 498.845 51.6534 498.64 51.7074V51.733C498.798 51.7614 498.94 51.8288 499.066 51.9354C499.193 52.0405 499.293 52.1719 499.369 52.3295C499.444 52.4858 499.482 52.6562 499.484 52.8409C499.482 53.0767 499.418 53.2869 499.292 53.4716C499.167 53.6548 498.993 53.799 498.77 53.9041C498.548 54.0078 498.292 54.0597 498.001 54.0597ZM498.001 53.5909C498.198 53.5909 498.369 53.5589 498.512 53.495C498.656 53.4311 498.766 53.3409 498.845 53.2244C498.923 53.108 498.962 52.9716 498.964 52.8153C498.962 52.6506 498.92 52.505 498.836 52.3786C498.752 52.2521 498.638 52.1527 498.493 52.0803C498.35 52.0078 498.185 51.9716 498.001 51.9716C497.815 51.9716 497.649 52.0078 497.502 52.0803C497.357 52.1527 497.243 52.2521 497.159 52.3786C497.077 52.505 497.036 52.6506 497.038 52.8153C497.036 52.9716 497.074 53.108 497.151 53.2244C497.229 53.3409 497.34 53.4311 497.485 53.495C497.63 53.5589 497.802 53.5909 498.001 53.5909ZM498.001 51.5199C498.157 51.5199 498.296 51.4886 498.416 51.4261C498.538 51.3636 498.634 51.2763 498.704 51.1641C498.774 51.0518 498.809 50.9205 498.81 50.7699C498.809 50.6222 498.774 50.4936 498.706 50.3842C498.638 50.2734 498.543 50.1882 498.423 50.1286C498.302 50.0675 498.161 50.0369 498.001 50.0369C497.837 50.0369 497.695 50.0675 497.573 50.1286C497.45 50.1882 497.356 50.2734 497.289 50.3842C497.222 50.4936 497.19 50.6222 497.191 50.7699C497.19 50.9205 497.223 51.0518 497.291 51.1641C497.361 51.2763 497.457 51.3636 497.579 51.4261C497.701 51.4886 497.842 51.5199 498.001 51.5199Z" fill="#1465FC"/>
<rect x="436.5" y="37.5" width="7" height="29" stroke="#1465FC"/>
<rect opacity="0.2" x="436" y="37" width="8" height="30" fill="#53AAFF"/>
<path d="M440.001 54.0597C439.708 54.0597 439.45 54.0078 439.225 53.9041C439.002 53.799 438.828 53.6548 438.703 53.4716C438.578 53.2869 438.516 53.0767 438.518 52.8409C438.516 52.6562 438.553 52.4858 438.627 52.3295C438.7 52.1719 438.801 52.0405 438.929 51.9354C439.058 51.8288 439.203 51.7614 439.362 51.733V51.7074C439.153 51.6534 438.987 51.5362 438.863 51.3558C438.739 51.174 438.678 50.9673 438.68 50.7358C438.678 50.5142 438.734 50.3161 438.848 50.1413C438.962 49.9666 439.118 49.8288 439.317 49.728C439.517 49.6271 439.745 49.5767 440.001 49.5767C440.254 49.5767 440.479 49.6271 440.678 49.728C440.877 49.8288 441.033 49.9666 441.147 50.1413C441.262 50.3161 441.32 50.5142 441.322 50.7358C441.32 50.9673 441.257 51.174 441.132 51.3558C441.009 51.5362 440.845 51.6534 440.64 51.7074V51.733C440.798 51.7614 440.94 51.8288 441.066 51.9354C441.193 52.0405 441.293 52.1719 441.369 52.3295C441.444 52.4858 441.482 52.6562 441.484 52.8409C441.482 53.0767 441.418 53.2869 441.292 53.4716C441.167 53.6548 440.993 53.799 440.77 53.9041C440.548 54.0078 440.292 54.0597 440.001 54.0597ZM440.001 53.5909C440.198 53.5909 440.369 53.5589 440.512 53.495C440.656 53.4311 440.766 53.3409 440.845 53.2244C440.923 53.108 440.962 52.9716 440.964 52.8153C440.962 52.6506 440.92 52.505 440.836 52.3786C440.752 52.2521 440.638 52.1527 440.493 52.0803C440.35 52.0078 440.185 51.9716 440.001 51.9716C439.815 51.9716 439.649 52.0078 439.502 52.0803C439.357 52.1527 439.243 52.2521 439.159 52.3786C439.077 52.505 439.036 52.6506 439.038 52.8153C439.036 52.9716 439.074 53.108 439.151 53.2244C439.229 53.3409 439.34 53.4311 439.485 53.495C439.63 53.5589 439.802 53.5909 440.001 53.5909ZM440.001 51.5199C440.157 51.5199 440.296 51.4886 440.416 51.4261C440.538 51.3636 440.634 51.2763 440.704 51.1641C440.774 51.0518 440.809 50.9205 440.81 50.7699C440.809 50.6222 440.774 50.4936 440.706 50.3842C440.638 50.2734 440.543 50.1882 440.423 50.1286C440.302 50.0675 440.161 50.0369 440.001 50.0369C439.837 50.0369 439.695 50.0675 439.573 50.1286C439.45 50.1882 439.356 50.2734 439.289 50.3842C439.222 50.4936 439.19 50.6222 439.191 50.7699C439.19 50.9205 439.223 51.0518 439.291 51.1641C439.361 51.2763 439.457 51.3636 439.579 51.4261C439.701 51.4886 439.842 51.5199 440.001 51.5199Z" fill="#1465FC"/>
<defs>
<clipPath id="clip0_968_10343">
<rect x="396" y="32" width="121" height="6" fill="white"/>
</clipPath>
<clipPath id="clip1_968_10343">
<rect x="396" y="66" width="121" height="6" fill="white"/>
</clipPath>
</defs>
</svg>
