<svg viewBox="0 0 20 20" fill="none" xmlns="http://www.w3.org/2000/svg">
<path d="M9.16683 10.7084L8.41683 11.4375C8.26405 11.5903 8.07308 11.6667 7.84391 11.6667C7.61475 11.6667 7.41683 11.5834 7.25016 11.4167C7.09738 11.2639 7.021 11.0695 7.021 10.8334C7.021 10.5973 7.09738 10.4028 7.25016 10.25L9.41683 8.08337C9.5835 7.91671 9.77794 7.83337 10.0002 7.83337C10.2224 7.83337 10.4168 7.91671 10.5835 8.08337L12.7502 10.25C12.9029 10.4028 12.9828 10.5938 12.9897 10.823C12.9967 11.0521 12.9168 11.25 12.7502 11.4167C12.5974 11.5695 12.4064 11.6493 12.1772 11.6563C11.9481 11.6632 11.7502 11.5903 11.5835 11.4375L10.8335 10.7084V15H15.4168C16.0002 15 16.4932 14.7987 16.896 14.3959C17.2988 13.9931 17.5002 13.5 17.5002 12.9167C17.5002 12.3334 17.2988 11.8403 16.896 11.4375C16.4932 11.0348 16.0002 10.8334 15.4168 10.8334H14.1668V9.16671C14.1668 8.01393 13.7606 7.03129 12.9481 6.21879C12.1356 5.40629 11.1529 5.00004 10.0002 5.00004C8.84739 5.00004 7.86475 5.40629 7.05225 6.21879C6.23975 7.03129 5.8335 8.01393 5.8335 9.16671H5.41683C4.61127 9.16671 3.92377 9.45143 3.35433 10.0209C2.78489 10.5903 2.50016 11.2778 2.50016 12.0834C2.50016 12.8889 2.78489 13.5764 3.35433 14.1459C3.92377 14.7153 4.61127 15 5.41683 15H6.66683C6.90294 15 7.10086 15.0799 7.26058 15.2396C7.4203 15.3993 7.50016 15.5973 7.50016 15.8334C7.50016 16.0695 7.4203 16.2674 7.26058 16.4271C7.10086 16.5868 6.90294 16.6667 6.66683 16.6667H5.41683C4.15294 16.6667 3.07308 16.2292 2.17725 15.3542C1.28141 14.4792 0.833496 13.4098 0.833496 12.1459C0.833496 11.0625 1.15988 10.0973 1.81266 9.25004C2.46544 8.40282 3.31961 7.86115 4.37516 7.62504C4.72239 6.34726 5.41683 5.31254 6.4585 4.52087C7.50016 3.72921 8.68072 3.33337 10.0002 3.33337C11.6252 3.33337 13.0036 3.89935 14.1356 5.03129C15.2675 6.16324 15.8335 7.54171 15.8335 9.16671C16.7918 9.27782 17.587 9.69101 18.2189 10.4063C18.8509 11.1216 19.1668 11.9584 19.1668 12.9167C19.1668 13.9584 18.8022 14.8438 18.0731 15.573C17.3439 16.3021 16.4585 16.6667 15.4168 16.6667H10.8335C10.3752 16.6667 9.9828 16.5035 9.65641 16.1771C9.33002 15.8507 9.16683 15.4584 9.16683 15V10.7084Z" fill="currentColor"/>
</svg>