<svg width="1159" height="104" viewBox="0 0 1159 104" fill="none" xmlns="http://www.w3.org/2000/svg">
<rect x="0.5" y="0.5" width="1158" height="103" rx="7.5" fill="white"/>
<rect x="0.5" y="0.5" width="1158" height="103" rx="7.5" stroke="#CDCCCB"/>
<mask id="path-2-inside-1_164_13709" fill="white">
<path d="M418.5 40C418.5 35.5817 422.082 32 426.5 32H531.5C535.918 32 539.5 35.5817 539.5 40V64C539.5 68.4183 535.918 72 531.5 72H426.5C422.082 72 418.5 68.4183 418.5 64V40Z"/>
</mask>
<path d="M418.5 40C418.5 35.5817 422.082 32 426.5 32H531.5C535.918 32 539.5 35.5817 539.5 40V64C539.5 68.4183 535.918 72 531.5 72H426.5C422.082 72 418.5 68.4183 418.5 64V40Z" fill="white"/>
<path d="M426.5 32V33H531.5V32V31H426.5V32ZM539.5 40H538.5V64H539.5H540.5V40H539.5ZM531.5 72V71H426.5V72V73H531.5V72ZM418.5 64H419.5V40H418.5H417.5V64H418.5ZM426.5 72V71C422.634 71 419.5 67.866 419.5 64H418.5H417.5C417.5 68.9706 421.529 73 426.5 73V72ZM539.5 64H538.5C538.5 67.866 535.366 71 531.5 71V72V73C536.471 73 540.5 68.9706 540.5 64H539.5ZM531.5 32V33C535.366 33 538.5 36.134 538.5 40H539.5H540.5C540.5 35.0294 536.471 31 531.5 31V32ZM426.5 32V31C421.529 31 417.5 35.0294 417.5 40H418.5H419.5C419.5 36.134 422.634 33 426.5 33V32Z" fill="#2964A0" mask="url(#path-2-inside-1_164_13709)"/>
<path d="M445.5 53H439.5V51H445.5V45H447.5V51H453.5V53H447.5V59H445.5V53Z" fill="#2964A0"/>
<path d="M469.2 59C468.867 59 468.607 58.9067 468.42 58.72C468.233 58.5333 468.14 58.2733 468.14 57.94V45.88C468.14 45.5333 468.227 45.2733 468.4 45.1C468.587 44.9133 468.847 44.82 469.18 44.82C469.513 44.82 469.767 44.9133 469.94 45.1C470.127 45.2733 470.22 45.5333 470.22 45.88V57.22H476.42C476.713 57.22 476.94 57.3 477.1 57.46C477.26 57.6067 477.34 57.82 477.34 58.1C477.34 58.38 477.26 58.6 477.1 58.76C476.94 58.92 476.713 59 476.42 59H469.2ZM481.575 59.18C480.895 59.18 480.282 59.0467 479.735 58.78C479.202 58.5133 478.782 58.1533 478.475 57.7C478.168 57.2467 478.015 56.7333 478.015 56.16C478.015 55.44 478.195 54.8733 478.555 54.46C478.928 54.0333 479.535 53.7333 480.375 53.56C481.228 53.3733 482.375 53.28 483.815 53.28H484.755V54.52H483.835C482.875 54.52 482.115 54.5667 481.555 54.66C480.995 54.7533 480.595 54.9133 480.355 55.14C480.128 55.3533 480.015 55.6533 480.015 56.04C480.015 56.5467 480.188 56.96 480.535 57.28C480.882 57.5867 481.362 57.74 481.975 57.74C482.468 57.74 482.902 57.6267 483.275 57.4C483.648 57.16 483.942 56.84 484.155 56.44C484.382 56.04 484.495 55.58 484.495 55.06V52.76C484.495 52 484.335 51.4533 484.015 51.12C483.695 50.7867 483.168 50.62 482.435 50.62C482.008 50.62 481.562 50.6733 481.095 50.78C480.642 50.8867 480.168 51.0667 479.675 51.32C479.448 51.4267 479.255 51.46 479.095 51.42C478.935 51.38 478.808 51.2933 478.715 51.16C478.622 51.0133 478.568 50.86 478.555 50.7C478.555 50.5267 478.595 50.36 478.675 50.2C478.768 50.04 478.922 49.92 479.135 49.84C479.722 49.56 480.302 49.36 480.875 49.24C481.448 49.12 481.988 49.06 482.495 49.06C483.388 49.06 484.122 49.2 484.695 49.48C485.282 49.76 485.715 50.1867 485.995 50.76C486.275 51.3333 486.415 52.0733 486.415 52.98V58.12C486.415 58.44 486.335 58.6933 486.175 58.88C486.015 59.0533 485.782 59.14 485.475 59.14C485.182 59.14 484.948 59.0533 484.775 58.88C484.602 58.6933 484.515 58.44 484.515 58.12V56.82H484.695C484.588 57.3133 484.388 57.74 484.095 58.1C483.815 58.4467 483.462 58.7133 483.035 58.9C482.608 59.0867 482.122 59.18 481.575 59.18ZM493.937 59.18C493.084 59.18 492.344 58.9667 491.717 58.54C491.091 58.1 490.671 57.52 490.457 56.8L490.677 56.44V58.12C490.677 58.44 490.591 58.6933 490.417 58.88C490.244 59.0533 490.004 59.14 489.697 59.14C489.377 59.14 489.131 59.0533 488.957 58.88C488.784 58.6933 488.697 58.44 488.697 58.12V45.78C488.697 45.4467 488.784 45.1933 488.957 45.02C489.131 44.8467 489.377 44.76 489.697 44.76C490.017 44.76 490.264 44.8467 490.437 45.02C490.624 45.1933 490.717 45.4467 490.717 45.78V51.38H490.477C490.691 50.6733 491.111 50.1133 491.737 49.7C492.364 49.2733 493.097 49.06 493.937 49.06C494.817 49.06 495.577 49.2667 496.217 49.68C496.857 50.0933 497.351 50.6733 497.697 51.42C498.057 52.1667 498.237 53.0667 498.237 54.12C498.237 55.1467 498.057 56.0467 497.697 56.82C497.351 57.58 496.851 58.1667 496.197 58.58C495.557 58.98 494.804 59.18 493.937 59.18ZM493.437 57.62C493.997 57.62 494.484 57.4867 494.897 57.22C495.311 56.9533 495.631 56.56 495.857 56.04C496.084 55.52 496.197 54.88 496.197 54.12C496.197 52.9733 495.944 52.1067 495.437 51.52C494.944 50.9333 494.277 50.64 493.437 50.64C492.891 50.64 492.404 50.7733 491.977 51.04C491.564 51.2933 491.244 51.68 491.017 52.2C490.791 52.72 490.677 53.36 490.677 54.12C490.677 55.2533 490.931 56.12 491.437 56.72C491.944 57.32 492.611 57.62 493.437 57.62ZM504.594 59.18C503.527 59.18 502.607 58.98 501.834 58.58C501.074 58.1667 500.48 57.5867 500.054 56.84C499.64 56.08 499.434 55.18 499.434 54.14C499.434 53.1267 499.64 52.24 500.054 51.48C500.467 50.72 501.034 50.1267 501.754 49.7C502.474 49.2733 503.294 49.06 504.214 49.06C504.894 49.06 505.5 49.1733 506.034 49.4C506.567 49.6133 507.02 49.9333 507.394 50.36C507.78 50.7733 508.067 51.28 508.254 51.88C508.454 52.48 508.554 53.1533 508.554 53.9C508.554 54.1267 508.487 54.3 508.354 54.42C508.22 54.5267 508.02 54.58 507.754 54.58H501.034V53.34H507.194L506.854 53.62C506.854 52.9533 506.754 52.3867 506.554 51.92C506.367 51.4533 506.08 51.1 505.694 50.86C505.32 50.6067 504.854 50.48 504.294 50.48C503.667 50.48 503.134 50.6267 502.694 50.92C502.267 51.2133 501.94 51.62 501.714 52.14C501.487 52.66 501.374 53.2667 501.374 53.96V54.08C501.374 55.2533 501.647 56.14 502.194 56.74C502.754 57.3267 503.56 57.62 504.614 57.62C505.014 57.62 505.434 57.5667 505.874 57.46C506.327 57.3533 506.754 57.1733 507.154 56.92C507.38 56.7867 507.58 56.7267 507.754 56.74C507.94 56.7533 508.087 56.8133 508.194 56.92C508.314 57.0267 508.387 57.16 508.414 57.32C508.44 57.48 508.414 57.6467 508.334 57.82C508.254 57.98 508.114 58.1267 507.914 58.26C507.46 58.5667 506.934 58.8 506.334 58.96C505.734 59.1067 505.154 59.18 504.594 59.18ZM513.396 59.18C512.356 59.18 511.569 58.88 511.036 58.28C510.516 57.6667 510.256 56.7867 510.256 55.64V45.78C510.256 45.4467 510.343 45.1933 510.516 45.02C510.689 44.8467 510.936 44.76 511.256 44.76C511.576 44.76 511.823 44.8467 511.996 45.02C512.183 45.1933 512.276 45.4467 512.276 45.78V55.52C512.276 56.1867 512.409 56.6867 512.676 57.02C512.956 57.34 513.356 57.5 513.876 57.5C513.996 57.5 514.103 57.5 514.196 57.5C514.289 57.4867 514.383 57.4733 514.476 57.46C514.636 57.4467 514.749 57.4933 514.816 57.6C514.883 57.6933 514.916 57.8933 514.916 58.2C514.916 58.48 514.856 58.7 514.736 58.86C514.616 59.0067 514.423 59.1 514.156 59.14C514.036 59.1533 513.909 59.16 513.776 59.16C513.643 59.1733 513.516 59.18 513.396 59.18Z" fill="#2964A0"/>
<mask id="path-6-inside-2_164_13709" fill="white">
<path d="M619.5 40C619.5 35.5817 623.082 32 627.5 32H732.5C736.918 32 740.5 35.5817 740.5 40V64C740.5 68.4183 736.918 72 732.5 72H627.5C623.082 72 619.5 68.4183 619.5 64V40Z"/>
</mask>
<path d="M619.5 40C619.5 35.5817 623.082 32 627.5 32H732.5C736.918 32 740.5 35.5817 740.5 40V64C740.5 68.4183 736.918 72 732.5 72H627.5C623.082 72 619.5 68.4183 619.5 64V40Z" fill="white"/>
<path d="M627.5 32V33H732.5V32V31H627.5V32ZM740.5 40H739.5V64H740.5H741.5V40H740.5ZM732.5 72V71H627.5V72V73H732.5V72ZM619.5 64H620.5V40H619.5H618.5V64H619.5ZM627.5 72V71C623.634 71 620.5 67.866 620.5 64H619.5H618.5C618.5 68.9706 622.529 73 627.5 73V72ZM740.5 64H739.5C739.5 67.866 736.366 71 732.5 71V72V73C737.471 73 741.5 68.9706 741.5 64H740.5ZM732.5 32V33C736.366 33 739.5 36.134 739.5 40H740.5H741.5C741.5 35.0294 737.471 31 732.5 31V32ZM627.5 32V31C622.529 31 618.5 35.0294 618.5 40H619.5H620.5C620.5 36.134 623.634 33 627.5 33V32Z" fill="#2964A0" mask="url(#path-6-inside-2_164_13709)"/>
<path d="M646.5 53H640.5V51H646.5V45H648.5V51H654.5V53H648.5V59H646.5V53Z" fill="#2964A0"/>
<path d="M670.2 59C669.867 59 669.607 58.9067 669.42 58.72C669.233 58.5333 669.14 58.2733 669.14 57.94V45.88C669.14 45.5333 669.227 45.2733 669.4 45.1C669.587 44.9133 669.847 44.82 670.18 44.82C670.513 44.82 670.767 44.9133 670.94 45.1C671.127 45.2733 671.22 45.5333 671.22 45.88V57.22H677.42C677.713 57.22 677.94 57.3 678.1 57.46C678.26 57.6067 678.34 57.82 678.34 58.1C678.34 58.38 678.26 58.6 678.1 58.76C677.94 58.92 677.713 59 677.42 59H670.2ZM682.575 59.18C681.895 59.18 681.282 59.0467 680.735 58.78C680.202 58.5133 679.782 58.1533 679.475 57.7C679.168 57.2467 679.015 56.7333 679.015 56.16C679.015 55.44 679.195 54.8733 679.555 54.46C679.928 54.0333 680.535 53.7333 681.375 53.56C682.228 53.3733 683.375 53.28 684.815 53.28H685.755V54.52H684.835C683.875 54.52 683.115 54.5667 682.555 54.66C681.995 54.7533 681.595 54.9133 681.355 55.14C681.128 55.3533 681.015 55.6533 681.015 56.04C681.015 56.5467 681.188 56.96 681.535 57.28C681.882 57.5867 682.362 57.74 682.975 57.74C683.468 57.74 683.902 57.6267 684.275 57.4C684.648 57.16 684.942 56.84 685.155 56.44C685.382 56.04 685.495 55.58 685.495 55.06V52.76C685.495 52 685.335 51.4533 685.015 51.12C684.695 50.7867 684.168 50.62 683.435 50.62C683.008 50.62 682.562 50.6733 682.095 50.78C681.642 50.8867 681.168 51.0667 680.675 51.32C680.448 51.4267 680.255 51.46 680.095 51.42C679.935 51.38 679.808 51.2933 679.715 51.16C679.622 51.0133 679.568 50.86 679.555 50.7C679.555 50.5267 679.595 50.36 679.675 50.2C679.768 50.04 679.922 49.92 680.135 49.84C680.722 49.56 681.302 49.36 681.875 49.24C682.448 49.12 682.988 49.06 683.495 49.06C684.388 49.06 685.122 49.2 685.695 49.48C686.282 49.76 686.715 50.1867 686.995 50.76C687.275 51.3333 687.415 52.0733 687.415 52.98V58.12C687.415 58.44 687.335 58.6933 687.175 58.88C687.015 59.0533 686.782 59.14 686.475 59.14C686.182 59.14 685.948 59.0533 685.775 58.88C685.602 58.6933 685.515 58.44 685.515 58.12V56.82H685.695C685.588 57.3133 685.388 57.74 685.095 58.1C684.815 58.4467 684.462 58.7133 684.035 58.9C683.608 59.0867 683.122 59.18 682.575 59.18ZM694.937 59.18C694.084 59.18 693.344 58.9667 692.717 58.54C692.091 58.1 691.671 57.52 691.457 56.8L691.677 56.44V58.12C691.677 58.44 691.591 58.6933 691.417 58.88C691.244 59.0533 691.004 59.14 690.697 59.14C690.377 59.14 690.131 59.0533 689.957 58.88C689.784 58.6933 689.697 58.44 689.697 58.12V45.78C689.697 45.4467 689.784 45.1933 689.957 45.02C690.131 44.8467 690.377 44.76 690.697 44.76C691.017 44.76 691.264 44.8467 691.437 45.02C691.624 45.1933 691.717 45.4467 691.717 45.78V51.38H691.477C691.691 50.6733 692.111 50.1133 692.737 49.7C693.364 49.2733 694.097 49.06 694.937 49.06C695.817 49.06 696.577 49.2667 697.217 49.68C697.857 50.0933 698.351 50.6733 698.697 51.42C699.057 52.1667 699.237 53.0667 699.237 54.12C699.237 55.1467 699.057 56.0467 698.697 56.82C698.351 57.58 697.851 58.1667 697.197 58.58C696.557 58.98 695.804 59.18 694.937 59.18ZM694.437 57.62C694.997 57.62 695.484 57.4867 695.897 57.22C696.311 56.9533 696.631 56.56 696.857 56.04C697.084 55.52 697.197 54.88 697.197 54.12C697.197 52.9733 696.944 52.1067 696.437 51.52C695.944 50.9333 695.277 50.64 694.437 50.64C693.891 50.64 693.404 50.7733 692.977 51.04C692.564 51.2933 692.244 51.68 692.017 52.2C691.791 52.72 691.677 53.36 691.677 54.12C691.677 55.2533 691.931 56.12 692.437 56.72C692.944 57.32 693.611 57.62 694.437 57.62ZM705.594 59.18C704.527 59.18 703.607 58.98 702.834 58.58C702.074 58.1667 701.48 57.5867 701.054 56.84C700.64 56.08 700.434 55.18 700.434 54.14C700.434 53.1267 700.64 52.24 701.054 51.48C701.467 50.72 702.034 50.1267 702.754 49.7C703.474 49.2733 704.294 49.06 705.214 49.06C705.894 49.06 706.5 49.1733 707.034 49.4C707.567 49.6133 708.02 49.9333 708.394 50.36C708.78 50.7733 709.067 51.28 709.254 51.88C709.454 52.48 709.554 53.1533 709.554 53.9C709.554 54.1267 709.487 54.3 709.354 54.42C709.22 54.5267 709.02 54.58 708.754 54.58H702.034V53.34H708.194L707.854 53.62C707.854 52.9533 707.754 52.3867 707.554 51.92C707.367 51.4533 707.08 51.1 706.694 50.86C706.32 50.6067 705.854 50.48 705.294 50.48C704.667 50.48 704.134 50.6267 703.694 50.92C703.267 51.2133 702.94 51.62 702.714 52.14C702.487 52.66 702.374 53.2667 702.374 53.96V54.08C702.374 55.2533 702.647 56.14 703.194 56.74C703.754 57.3267 704.56 57.62 705.614 57.62C706.014 57.62 706.434 57.5667 706.874 57.46C707.327 57.3533 707.754 57.1733 708.154 56.92C708.38 56.7867 708.58 56.7267 708.754 56.74C708.94 56.7533 709.087 56.8133 709.194 56.92C709.314 57.0267 709.387 57.16 709.414 57.32C709.44 57.48 709.414 57.6467 709.334 57.82C709.254 57.98 709.114 58.1267 708.914 58.26C708.46 58.5667 707.934 58.8 707.334 58.96C706.734 59.1067 706.154 59.18 705.594 59.18ZM714.396 59.18C713.356 59.18 712.569 58.88 712.036 58.28C711.516 57.6667 711.256 56.7867 711.256 55.64V45.78C711.256 45.4467 711.343 45.1933 711.516 45.02C711.689 44.8467 711.936 44.76 712.256 44.76C712.576 44.76 712.823 44.8467 712.996 45.02C713.183 45.1933 713.276 45.4467 713.276 45.78V55.52C713.276 56.1867 713.409 56.6867 713.676 57.02C713.956 57.34 714.356 57.5 714.876 57.5C714.996 57.5 715.103 57.5 715.196 57.5C715.289 57.4867 715.383 57.4733 715.476 57.46C715.636 57.4467 715.749 57.4933 715.816 57.6C715.883 57.6933 715.916 57.8933 715.916 58.2C715.916 58.48 715.856 58.7 715.736 58.86C715.616 59.0067 715.423 59.1 715.156 59.14C715.036 59.1533 714.909 59.16 714.776 59.16C714.643 59.1733 714.516 59.18 714.396 59.18Z" fill="#2964A0"/>
<rect x="620" y="32.5" width="15" height="39" stroke="#2B86FF"/>
<path opacity="0.2" d="M619.5 32H635.5V72H619.5V32Z" fill="#53AAFF"/>
<path d="M625.365 48.7273V56H624.485V49.6506H624.442L622.666 50.8295V49.9347L624.485 48.7273H625.365ZM629.872 56.0994C629.573 56.0947 629.275 56.0379 628.977 55.929C628.679 55.8201 628.406 55.6366 628.16 55.3786C627.914 55.1181 627.716 54.7666 627.567 54.3239C627.418 53.8788 627.343 53.3201 627.343 52.6477C627.343 52.0038 627.404 51.4332 627.524 50.9361C627.645 50.4366 627.82 50.0163 628.05 49.6754C628.28 49.3321 628.557 49.0717 628.881 48.8942C629.208 48.7166 629.576 48.6278 629.985 48.6278C630.393 48.6278 630.755 48.7095 631.072 48.8729C631.392 49.0339 631.652 49.2588 631.853 49.5476C632.054 49.8364 632.185 50.169 632.244 50.5455H631.377C631.297 50.2187 631.141 49.9477 630.909 49.7322C630.677 49.5168 630.369 49.4091 629.985 49.4091C629.422 49.4091 628.978 49.6541 628.654 50.1442C628.332 50.6342 628.17 51.322 628.167 52.2074H628.224C628.357 52.0062 628.514 51.8345 628.696 51.6925C628.881 51.5481 629.085 51.4368 629.307 51.3587C629.53 51.2805 629.765 51.2415 630.014 51.2415C630.43 51.2415 630.812 51.3456 631.157 51.554C631.503 51.7599 631.78 52.0452 631.988 52.4098C632.197 52.772 632.301 53.1875 632.301 53.6562C632.301 54.1061 632.2 54.518 631.999 54.892C631.798 55.2637 631.515 55.5597 631.15 55.7798C630.788 55.9976 630.362 56.1042 629.872 56.0994ZM629.872 55.3182C630.17 55.3182 630.438 55.2436 630.674 55.0945C630.913 54.9453 631.102 54.7453 631.239 54.4943C631.379 54.2434 631.448 53.964 631.448 53.6562C631.448 53.3556 631.381 53.0821 631.246 52.8359C631.113 52.5874 630.93 52.3897 630.696 52.2429C630.464 52.0961 630.198 52.0227 629.9 52.0227C629.675 52.0227 629.466 52.0677 629.272 52.1577C629.077 52.2453 628.907 52.366 628.76 52.5199C628.616 52.6738 628.502 52.8501 628.419 53.049C628.336 53.2455 628.295 53.4527 628.295 53.6705C628.295 53.9593 628.362 54.2292 628.497 54.4801C628.635 54.7311 628.822 54.9335 629.059 55.0874C629.298 55.2412 629.569 55.3182 629.872 55.3182Z" fill="#1465FC"/>
<g clip-path="url(#clip0_164_13709)">
<rect opacity="0.2" x="619.5" y="32" width="181.5" height="9" fill="#53AAFF"/>
<path d="M680.024 37.0497C679.875 37.0473 679.725 37.0189 679.576 36.9645C679.427 36.91 679.291 36.8183 679.168 36.6893C679.045 36.5591 678.946 36.3833 678.871 36.1619C678.797 35.9394 678.76 35.66 678.76 35.3239C678.76 35.0019 678.79 34.7166 678.85 34.468C678.91 34.2183 678.998 34.0082 679.113 33.8377C679.228 33.6661 679.366 33.5359 679.528 33.4471C679.692 33.3583 679.876 33.3139 680.081 33.3139C680.284 33.3139 680.465 33.3548 680.624 33.4364C680.784 33.5169 680.914 33.6294 681.015 33.7738C681.115 33.9182 681.18 34.0845 681.21 34.2727H680.777C680.736 34.1094 680.658 33.9738 680.542 33.8661C680.426 33.7584 680.272 33.7045 680.081 33.7045C679.799 33.7045 679.577 33.8271 679.415 34.0721C679.254 34.3171 679.173 34.661 679.171 35.1037H679.2C679.266 35.0031 679.345 34.9173 679.436 34.8462C679.528 34.774 679.63 34.7184 679.741 34.6793C679.853 34.6403 679.97 34.6207 680.095 34.6207C680.303 34.6207 680.494 34.6728 680.667 34.777C680.839 34.88 680.978 35.0226 681.082 35.2049C681.186 35.386 681.238 35.5938 681.238 35.8281C681.238 36.053 681.188 36.259 681.087 36.446C680.987 36.6319 680.845 36.7798 680.663 36.8899C680.482 36.9988 680.269 37.0521 680.024 37.0497ZM680.024 36.6591C680.173 36.6591 680.307 36.6218 680.425 36.5472C680.545 36.4727 680.639 36.3726 680.707 36.2472C680.777 36.1217 680.812 35.982 680.812 35.8281C680.812 35.6778 680.778 35.5411 680.711 35.418C680.645 35.2937 680.553 35.1948 680.436 35.1214C680.32 35.0481 680.187 35.0114 680.038 35.0114C679.926 35.0114 679.821 35.0339 679.724 35.0788C679.627 35.1226 679.541 35.183 679.468 35.2599C679.396 35.3369 679.339 35.4251 679.298 35.5245C679.256 35.6228 679.235 35.7263 679.235 35.8352C679.235 35.9796 679.269 36.1146 679.337 36.2401C679.405 36.3655 679.499 36.4667 679.617 36.5437C679.737 36.6206 679.872 36.6591 680.024 36.6591Z" fill="#1465FC"/>
</g>
<rect x="620" y="32.5" width="120" height="5" stroke="#2B86FF"/>
<g clip-path="url(#clip1_164_13709)">
<rect opacity="0.2" x="619.5" y="66" width="181.5" height="9" fill="#53AAFF"/>
<path d="M680.024 71.0497C679.875 71.0473 679.725 71.0189 679.576 70.9645C679.427 70.91 679.291 70.8183 679.168 70.6893C679.045 70.5591 678.946 70.3833 678.871 70.1619C678.797 69.9394 678.76 69.66 678.76 69.3239C678.76 69.0019 678.79 68.7166 678.85 68.468C678.91 68.2183 678.998 68.0082 679.113 67.8377C679.228 67.6661 679.366 67.5359 679.528 67.4471C679.692 67.3583 679.876 67.3139 680.081 67.3139C680.284 67.3139 680.465 67.3548 680.624 67.4364C680.784 67.5169 680.914 67.6294 681.015 67.7738C681.115 67.9182 681.18 68.0845 681.21 68.2727H680.777C680.736 68.1094 680.658 67.9738 680.542 67.8661C680.426 67.7584 680.272 67.7045 680.081 67.7045C679.799 67.7045 679.577 67.8271 679.415 68.0721C679.254 68.3171 679.173 68.661 679.171 69.1037H679.2C679.266 69.0031 679.345 68.9173 679.436 68.8462C679.528 68.774 679.63 68.7184 679.741 68.6793C679.853 68.6403 679.97 68.6207 680.095 68.6207C680.303 68.6207 680.494 68.6728 680.667 68.777C680.839 68.88 680.978 69.0226 681.082 69.2049C681.186 69.386 681.238 69.5938 681.238 69.8281C681.238 70.053 681.188 70.259 681.087 70.446C680.987 70.6319 680.845 70.7798 680.663 70.8899C680.482 70.9988 680.269 71.0521 680.024 71.0497ZM680.024 70.6591C680.173 70.6591 680.307 70.6218 680.425 70.5472C680.545 70.4727 680.639 70.3726 680.707 70.2472C680.777 70.1217 680.812 69.982 680.812 69.8281C680.812 69.6778 680.778 69.5411 680.711 69.418C680.645 69.2937 680.553 69.1948 680.436 69.1214C680.32 69.0481 680.187 69.0114 680.038 69.0114C679.926 69.0114 679.821 69.0339 679.724 69.0788C679.627 69.1226 679.541 69.183 679.468 69.2599C679.396 69.3369 679.339 69.4251 679.298 69.5245C679.256 69.6228 679.235 69.7263 679.235 69.8352C679.235 69.9796 679.269 70.1146 679.337 70.2401C679.405 70.3655 679.499 70.4667 679.617 70.5437C679.737 70.6206 679.872 70.6591 680.024 70.6591Z" fill="#1465FC"/>
</g>
<rect x="620" y="66.5" width="120" height="5" stroke="#2B86FF"/>
<rect x="725" y="32.5" width="15" height="39" stroke="#2B86FF"/>
<path opacity="0.2" d="M724.5 32H740.5V72H724.5V32Z" fill="#53AAFF"/>
<path d="M730.365 48.7273V56H729.485V49.6506H729.442L727.666 50.8295V49.9347L729.485 48.7273H730.365ZM734.872 56.0994C734.573 56.0947 734.275 56.0379 733.977 55.929C733.679 55.8201 733.406 55.6366 733.16 55.3786C732.914 55.1181 732.716 54.7666 732.567 54.3239C732.418 53.8788 732.343 53.3201 732.343 52.6477C732.343 52.0038 732.404 51.4332 732.524 50.9361C732.645 50.4366 732.82 50.0163 733.05 49.6754C733.28 49.3321 733.557 49.0717 733.881 48.8942C734.208 48.7166 734.576 48.6278 734.985 48.6278C735.393 48.6278 735.755 48.7095 736.072 48.8729C736.392 49.0339 736.652 49.2588 736.853 49.5476C737.054 49.8364 737.185 50.169 737.244 50.5455H736.377C736.297 50.2187 736.141 49.9477 735.909 49.7322C735.677 49.5168 735.369 49.4091 734.985 49.4091C734.422 49.4091 733.978 49.6541 733.654 50.1442C733.332 50.6342 733.17 51.322 733.167 52.2074H733.224C733.357 52.0062 733.514 51.8345 733.696 51.6925C733.881 51.5481 734.085 51.4368 734.307 51.3587C734.53 51.2805 734.765 51.2415 735.014 51.2415C735.43 51.2415 735.812 51.3456 736.157 51.554C736.503 51.7599 736.78 52.0452 736.988 52.4098C737.197 52.772 737.301 53.1875 737.301 53.6562C737.301 54.1061 737.2 54.518 736.999 54.892C736.798 55.2637 736.515 55.5597 736.15 55.7798C735.788 55.9976 735.362 56.1042 734.872 56.0994ZM734.872 55.3182C735.17 55.3182 735.438 55.2436 735.674 55.0945C735.913 54.9453 736.102 54.7453 736.239 54.4943C736.379 54.2434 736.448 53.964 736.448 53.6562C736.448 53.3556 736.381 53.0821 736.246 52.8359C736.113 52.5874 735.93 52.3897 735.696 52.2429C735.464 52.0961 735.198 52.0227 734.9 52.0227C734.675 52.0227 734.466 52.0677 734.272 52.1577C734.077 52.2453 733.907 52.366 733.76 52.5199C733.616 52.6738 733.502 52.8501 733.419 53.049C733.336 53.2455 733.295 53.4527 733.295 53.6705C733.295 53.9593 733.362 54.2292 733.497 54.4801C733.635 54.7311 733.822 54.9335 734.059 55.0874C734.298 55.2412 734.569 55.3182 734.872 55.3182Z" fill="#1465FC"/>
<rect x="718" y="37.5" width="7" height="29" stroke="#2B86FF"/>
<rect opacity="0.2" x="717.5" y="37" width="8" height="30" fill="#53AAFF"/>
<path d="M721.501 54.0597C721.208 54.0597 720.95 54.0078 720.725 53.9041C720.502 53.799 720.328 53.6548 720.203 53.4716C720.078 53.2869 720.016 53.0767 720.018 52.8409C720.016 52.6562 720.053 52.4858 720.127 52.3295C720.2 52.1719 720.301 52.0405 720.429 51.9354C720.558 51.8288 720.703 51.7614 720.862 51.733V51.7074C720.653 51.6534 720.487 51.5362 720.363 51.3558C720.239 51.174 720.178 50.9673 720.18 50.7358C720.178 50.5142 720.234 50.3161 720.348 50.1413C720.462 49.9666 720.618 49.8288 720.817 49.728C721.017 49.6271 721.245 49.5767 721.501 49.5767C721.754 49.5767 721.979 49.6271 722.178 49.728C722.377 49.8288 722.533 49.9666 722.647 50.1413C722.762 50.3161 722.82 50.5142 722.822 50.7358C722.82 50.9673 722.757 51.174 722.632 51.3558C722.509 51.5362 722.345 51.6534 722.14 51.7074V51.733C722.298 51.7614 722.44 51.8288 722.566 51.9354C722.693 52.0405 722.793 52.1719 722.869 52.3295C722.944 52.4858 722.982 52.6562 722.984 52.8409C722.982 53.0767 722.918 53.2869 722.792 53.4716C722.667 53.6548 722.493 53.799 722.27 53.9041C722.048 54.0078 721.792 54.0597 721.501 54.0597ZM721.501 53.5909C721.698 53.5909 721.869 53.5589 722.012 53.495C722.156 53.4311 722.266 53.3409 722.345 53.2244C722.423 53.108 722.462 52.9716 722.464 52.8153C722.462 52.6506 722.42 52.505 722.336 52.3786C722.252 52.2521 722.138 52.1527 721.993 52.0803C721.85 52.0078 721.685 51.9716 721.501 51.9716C721.315 51.9716 721.149 52.0078 721.002 52.0803C720.857 52.1527 720.743 52.2521 720.659 52.3786C720.577 52.505 720.536 52.6506 720.538 52.8153C720.536 52.9716 720.574 53.108 720.651 53.2244C720.729 53.3409 720.84 53.4311 720.985 53.495C721.13 53.5589 721.302 53.5909 721.501 53.5909ZM721.501 51.5199C721.657 51.5199 721.796 51.4886 721.916 51.4261C722.038 51.3636 722.134 51.2763 722.204 51.1641C722.274 51.0518 722.309 50.9205 722.31 50.7699C722.309 50.6222 722.274 50.4936 722.206 50.3842C722.138 50.2734 722.043 50.1882 721.923 50.1286C721.802 50.0675 721.661 50.0369 721.501 50.0369C721.337 50.0369 721.195 50.0675 721.073 50.1286C720.95 50.1882 720.856 50.2734 720.789 50.3842C720.722 50.4936 720.69 50.6222 720.691 50.7699C720.69 50.9205 720.723 51.0518 720.791 51.1641C720.861 51.2763 720.957 51.3636 721.079 51.4261C721.201 51.4886 721.342 51.5199 721.501 51.5199Z" fill="#1465FC"/>
<rect x="660" y="37.5" width="7" height="29" stroke="#2B86FF"/>
<rect opacity="0.2" x="659.5" y="37" width="8" height="30" fill="#53AAFF"/>
<path d="M663.501 54.0597C663.208 54.0597 662.95 54.0078 662.725 53.9041C662.502 53.799 662.328 53.6548 662.203 53.4716C662.078 53.2869 662.016 53.0767 662.018 52.8409C662.016 52.6562 662.053 52.4858 662.127 52.3295C662.2 52.1719 662.301 52.0405 662.429 51.9354C662.558 51.8288 662.703 51.7614 662.862 51.733V51.7074C662.653 51.6534 662.487 51.5362 662.363 51.3558C662.239 51.174 662.178 50.9673 662.18 50.7358C662.178 50.5142 662.234 50.3161 662.348 50.1413C662.462 49.9666 662.618 49.8288 662.817 49.728C663.017 49.6271 663.245 49.5767 663.501 49.5767C663.754 49.5767 663.979 49.6271 664.178 49.728C664.377 49.8288 664.533 49.9666 664.647 50.1413C664.762 50.3161 664.82 50.5142 664.822 50.7358C664.82 50.9673 664.757 51.174 664.632 51.3558C664.509 51.5362 664.345 51.6534 664.14 51.7074V51.733C664.298 51.7614 664.44 51.8288 664.566 51.9354C664.693 52.0405 664.793 52.1719 664.869 52.3295C664.944 52.4858 664.982 52.6562 664.984 52.8409C664.982 53.0767 664.918 53.2869 664.792 53.4716C664.667 53.6548 664.493 53.799 664.27 53.9041C664.048 54.0078 663.792 54.0597 663.501 54.0597ZM663.501 53.5909C663.698 53.5909 663.869 53.5589 664.012 53.495C664.156 53.4311 664.266 53.3409 664.345 53.2244C664.423 53.108 664.462 52.9716 664.464 52.8153C664.462 52.6506 664.42 52.505 664.336 52.3786C664.252 52.2521 664.138 52.1527 663.993 52.0803C663.85 52.0078 663.685 51.9716 663.501 51.9716C663.315 51.9716 663.149 52.0078 663.002 52.0803C662.857 52.1527 662.743 52.2521 662.659 52.3786C662.577 52.505 662.536 52.6506 662.538 52.8153C662.536 52.9716 662.574 53.108 662.651 53.2244C662.729 53.3409 662.84 53.4311 662.985 53.495C663.13 53.5589 663.302 53.5909 663.501 53.5909ZM663.501 51.5199C663.657 51.5199 663.796 51.4886 663.916 51.4261C664.038 51.3636 664.134 51.2763 664.204 51.1641C664.274 51.0518 664.309 50.9205 664.31 50.7699C664.309 50.6222 664.274 50.4936 664.206 50.3842C664.138 50.2734 664.043 50.1882 663.923 50.1286C663.802 50.0675 663.661 50.0369 663.501 50.0369C663.337 50.0369 663.195 50.0675 663.073 50.1286C662.95 50.1882 662.856 50.2734 662.789 50.3842C662.722 50.4936 662.69 50.6222 662.691 50.7699C662.69 50.9205 662.723 51.0518 662.791 51.1641C662.861 51.2763 662.957 51.3636 663.079 51.4261C663.201 51.4886 663.342 51.5199 663.501 51.5199Z" fill="#1465FC"/>
<defs>
<clipPath id="clip0_164_13709">
<rect x="619.5" y="32" width="121" height="6" fill="white"/>
</clipPath>
<clipPath id="clip1_164_13709">
<rect x="619.5" y="66" width="121" height="6" fill="white"/>
</clipPath>
</defs>
</svg>
