<svg viewBox="0 0 20 20" fill="none" xmlns="http://www.w3.org/2000/svg">
<path d="M3.33334 3.33335C3.09723 3.33335 2.89932 3.25349 2.73959 3.09377C2.57987 2.93405 2.50001 2.73613 2.50001 2.50002C2.50001 2.26391 2.57987 2.06599 2.73959 1.90627C2.89932 1.74655 3.09723 1.66669 3.33334 1.66669H4.16668C4.40279 1.66669 4.6007 1.74655 4.76043 1.90627C4.92015 2.06599 5.00001 2.26391 5.00001 2.50002C5.00001 2.73613 4.92015 2.93405 4.76043 3.09377C4.6007 3.25349 4.40279 3.33335 4.16668 3.33335H3.33334ZM2.33334 15L2.06251 16.3334C1.9514 16.8611 2.06598 17.3264 2.40626 17.7292C2.74654 18.132 3.18057 18.3334 3.70834 18.3334H9.16668V15H2.33334ZM4.52084 6.00002L5.10418 5.41669C5.25695 5.26391 5.44793 5.18752 5.67709 5.18752C5.90626 5.18752 6.10418 5.26391 6.27084 5.41669C6.43751 5.58335 6.52084 5.78127 6.52084 6.01044C6.52084 6.2396 6.43751 6.43752 6.27084 6.60419L5.68751 7.18752C5.53473 7.3403 5.34376 7.41669 5.11459 7.41669C4.88543 7.41669 4.68751 7.3403 4.52084 7.18752C4.35418 7.02085 4.27084 6.82294 4.27084 6.59377C4.27084 6.3646 4.35418 6.16669 4.52084 6.00002ZM2.66668 13.3334H9.16668V10H4.70834C4.30557 10 3.94793 10.125 3.63543 10.375C3.32293 10.625 3.13195 10.9445 3.06251 11.3334L2.66668 13.3334ZM9.16668 8.33335V7.50002C9.16668 7.26391 9.24654 7.06599 9.40626 6.90627C9.56598 6.74655 9.7639 6.66669 10 6.66669C10.2361 6.66669 10.434 6.74655 10.5938 6.90627C10.7535 7.06599 10.8333 7.26391 10.8333 7.50002V8.33335C10.8333 8.56946 10.7535 8.76738 10.5938 8.9271C10.434 9.08683 10.2361 9.16669 10 9.16669C9.7639 9.16669 9.56598 9.08683 9.40626 8.9271C9.24654 8.76738 9.16668 8.56946 9.16668 8.33335ZM10.8333 18.3334H16.2917C16.8195 18.3334 17.2535 18.132 17.5938 17.7292C17.934 17.3264 18.0486 16.8611 17.9375 16.3334L17.6667 15H10.8333V18.3334ZM10.8333 13.3334H17.3333L16.9375 11.3334C16.8681 10.9445 16.6771 10.625 16.3646 10.375C16.0521 10.125 15.6945 10 15.2917 10H10.8333V13.3334ZM14.3125 7.16669L13.7292 6.58335C13.5764 6.43058 13.4965 6.2396 13.4896 6.01044C13.4826 5.78127 13.5625 5.58335 13.7292 5.41669C13.882 5.26391 14.0764 5.18752 14.3125 5.18752C14.5486 5.18752 14.7431 5.26391 14.8958 5.41669L15.5 6.00002C15.6667 6.1528 15.75 6.34377 15.75 6.57294C15.75 6.8021 15.6667 7.00002 15.5 7.16669C15.3333 7.33335 15.1354 7.41669 14.9063 7.41669C14.6771 7.41669 14.4792 7.33335 14.3125 7.16669ZM16.6667 3.33335H15.8333C15.5972 3.33335 15.3993 3.25349 15.2396 3.09377C15.0799 2.93405 15 2.73613 15 2.50002C15 2.26391 15.0799 2.06599 15.2396 1.90627C15.3993 1.74655 15.5972 1.66669 15.8333 1.66669H16.6667C16.9028 1.66669 17.1007 1.74655 17.2604 1.90627C17.4201 2.06599 17.5 2.26391 17.5 2.50002C17.5 2.73613 17.4201 2.93405 17.2604 3.09377C17.1007 3.25349 16.9028 3.33335 16.6667 3.33335ZM10 5.83335C9.02779 5.83335 8.17015 5.53821 7.42709 4.94794C6.68404 4.35766 6.19445 3.60419 5.95834 2.68752C5.8889 2.42363 5.94793 2.18752 6.13543 1.97919C6.32293 1.77085 6.55557 1.66669 6.83334 1.66669H13.1667C13.4445 1.66669 13.6736 1.77085 13.8542 1.97919C14.0347 2.18752 14.0972 2.42363 14.0417 2.68752C13.8056 3.60419 13.316 4.35766 12.5729 4.94794C11.8299 5.53821 10.9722 5.83335 10 5.83335Z" fill="currentColor"/>
</svg>