<svg viewBox="0 0 20 20" fill="none" xmlns="http://www.w3.org/2000/svg">
<path d="M7.375 14.0209L10 12.4375L12.625 14.0417L11.9375 11.0417L14.25 9.04169L11.2083 8.77085L10 5.93752L8.79167 8.75002L5.75 9.02085L8.0625 11.0417L7.375 14.0209ZM10 14.3959L6.54167 16.4792C6.38889 16.5764 6.22917 16.6181 6.0625 16.6042C5.89584 16.5903 5.75 16.5347 5.625 16.4375C5.5 16.3403 5.40278 16.2188 5.33334 16.0729C5.26389 15.9271 5.25 15.7639 5.29167 15.5834L6.20834 11.6459L3.14584 9.00002C3.00695 8.87502 2.92014 8.73266 2.88542 8.57294C2.8507 8.41321 2.86111 8.25696 2.91667 8.10419C2.97222 7.95141 3.05556 7.82641 3.16667 7.72919C3.27778 7.63196 3.43056 7.56946 3.625 7.54169L7.66667 7.18752L9.22917 3.47919C9.29861 3.31252 9.40625 3.18752 9.55209 3.10419C9.69792 3.02085 9.84722 2.97919 10 2.97919C10.1528 2.97919 10.3021 3.02085 10.4479 3.10419C10.5938 3.18752 10.7014 3.31252 10.7708 3.47919L12.3333 7.18752L16.375 7.54169C16.5694 7.56946 16.7222 7.63196 16.8333 7.72919C16.9444 7.82641 17.0278 7.95141 17.0833 8.10419C17.1389 8.25696 17.1493 8.41321 17.1146 8.57294C17.0799 8.73266 16.9931 8.87502 16.8542 9.00002L13.7917 11.6459L14.7083 15.5834C14.75 15.7639 14.7361 15.9271 14.6667 16.0729C14.5972 16.2188 14.5 16.3403 14.375 16.4375C14.25 16.5347 14.1042 16.5903 13.9375 16.6042C13.7708 16.6181 13.6111 16.5764 13.4583 16.4792L10 14.3959Z" fill="currentColor"/>
</svg>