<svg width="273" height="300" viewBox="0 0 273 300" fill="none" xmlns="http://www.w3.org/2000/svg">
<path d="M8 0.5H265C269.142 0.5 272.5 3.85786 272.5 8V292C272.5 296.142 269.142 299.5 265 299.5H8C3.85786 299.5 0.5 296.142 0.5 292V8C0.5 3.85787 3.85786 0.5 8 0.5Z" fill="white"/>
<path d="M8 0.5H265C269.142 0.5 272.5 3.85786 272.5 8V292C272.5 296.142 269.142 299.5 265 299.5H8C3.85786 299.5 0.5 296.142 0.5 292V8C0.5 3.85787 3.85786 0.5 8 0.5Z" stroke="#A1A1A0"/>
<g clip-path="url(#clip0_841_14463)">
<mask id="path-2-inside-1_841_14463" fill="white">
<path d="M40 36C40 24.9543 48.9543 16 60 16H125C136.046 16 145 24.9543 145 36C145 47.0457 136.046 56 125 56H60C48.9543 56 40 47.0457 40 36Z"/>
</mask>
<path d="M40 36C40 24.9543 48.9543 16 60 16H125C136.046 16 145 24.9543 145 36C145 47.0457 136.046 56 125 56H60C48.9543 56 40 47.0457 40 36Z" fill="white"/>
<path d="M60 16V17H125V16V15H60V16ZM125 56V55H60V56V57H125V56ZM60 56V55C49.5066 55 41 46.4934 41 36H40H39C39 47.598 48.402 57 60 57V56ZM145 36H144C144 46.4934 135.493 55 125 55V56V57C136.598 57 146 47.598 146 36H145ZM125 16V17C135.493 17 144 25.5066 144 36H145H146C146 24.402 136.598 15 125 15V16ZM60 16V15C48.402 15 39 24.402 39 36H40H41C41 25.5066 49.5066 17 60 17V16Z" fill="#A1A1A0" mask="url(#path-2-inside-1_841_14463)"/>
<circle cx="64" cy="36" r="12" fill="#2964A0"/>
<path d="M84.6035 40.1465L85.1133 37.6504H84.123V36.7773H85.2891L85.7227 34.6504H84.123V33.7773H85.8984L86.4082 31.2637H87.2871L86.7773 33.7773H88.623L89.1328 31.2637H90.0176L89.5078 33.7773H90.5215V34.6504H89.332L88.8926 36.7773H90.5215V37.6504H88.7168L88.207 40.1465H87.3281L87.832 37.6504H85.9922L85.4824 40.1465H84.6035ZM86.168 36.7773H88.0078L88.4473 34.6504H86.6016L86.168 36.7773ZM96.7207 38.9863V40H91.043C91.0352 39.7461 91.0762 39.502 91.166 39.2676C91.3105 38.8809 91.541 38.5 91.8574 38.125C92.1777 37.75 92.6387 37.3164 93.2402 36.8242C94.1738 36.0586 94.8047 35.4531 95.1328 35.0078C95.4609 34.5586 95.625 34.1348 95.625 33.7363C95.625 33.3184 95.4746 32.9668 95.1738 32.6816C94.877 32.3926 94.4883 32.248 94.0078 32.248C93.5 32.248 93.0938 32.4004 92.7891 32.7051C92.4844 33.0098 92.3301 33.4316 92.3262 33.9707L91.2422 33.8594C91.3164 33.0508 91.5957 32.4355 92.0801 32.0137C92.5645 31.5879 93.2148 31.375 94.0312 31.375C94.8555 31.375 95.5078 31.6035 95.9883 32.0605C96.4688 32.5176 96.709 33.084 96.709 33.7598C96.709 34.1035 96.6387 34.4414 96.498 34.7734C96.3574 35.1055 96.123 35.4551 95.7949 35.8223C95.4707 36.1895 94.9297 36.6934 94.1719 37.334C93.5391 37.8652 93.1328 38.2266 92.9531 38.418C92.7734 38.6055 92.625 38.7949 92.5078 38.9863H96.7207ZM98.0156 38.0137L99.0293 37.9199C99.1152 38.3965 99.2793 38.7422 99.5215 38.957C99.7637 39.1719 100.074 39.2793 100.453 39.2793C100.777 39.2793 101.061 39.2051 101.303 39.0566C101.549 38.9082 101.75 38.7109 101.906 38.4648C102.062 38.2148 102.193 37.8789 102.299 37.457C102.404 37.0352 102.457 36.6055 102.457 36.168C102.457 36.1211 102.455 36.0508 102.451 35.957C102.24 36.293 101.951 36.5664 101.584 36.7773C101.221 36.9844 100.826 37.0879 100.4 37.0879C99.6895 37.0879 99.0879 36.8301 98.5957 36.3145C98.1035 35.7988 97.8574 35.1191 97.8574 34.2754C97.8574 33.4043 98.1133 32.7031 98.625 32.1719C99.1406 31.6406 99.7852 31.375 100.559 31.375C101.117 31.375 101.627 31.5254 102.088 31.8262C102.553 32.127 102.904 32.5566 103.143 33.1152C103.385 33.6699 103.506 34.4746 103.506 35.5293C103.506 36.627 103.387 37.502 103.148 38.1543C102.91 38.8027 102.555 39.2969 102.082 39.6367C101.613 39.9766 101.062 40.1465 100.43 40.1465C99.7578 40.1465 99.209 39.9609 98.7832 39.5898C98.3574 39.2148 98.1016 38.6895 98.0156 38.0137ZM102.334 34.2227C102.334 33.6172 102.172 33.1367 101.848 32.7812C101.527 32.4258 101.141 32.248 100.688 32.248C100.219 32.248 99.8105 32.4395 99.4629 32.8223C99.1152 33.2051 98.9414 33.7012 98.9414 34.3105C98.9414 34.8574 99.1055 35.3027 99.4336 35.6465C99.7656 35.9863 100.174 36.1562 100.658 36.1562C101.146 36.1562 101.547 35.9863 101.859 35.6465C102.176 35.3027 102.334 34.8281 102.334 34.2227ZM110.01 33.5137L108.961 33.5957C108.867 33.1816 108.734 32.8809 108.562 32.6934C108.277 32.3926 107.926 32.2422 107.508 32.2422C107.172 32.2422 106.877 32.3359 106.623 32.5234C106.291 32.7656 106.029 33.1191 105.838 33.584C105.646 34.0488 105.547 34.7109 105.539 35.5703C105.793 35.1836 106.104 34.8965 106.471 34.709C106.838 34.5215 107.223 34.4277 107.625 34.4277C108.328 34.4277 108.926 34.6875 109.418 35.207C109.914 35.7227 110.162 36.3906 110.162 37.2109C110.162 37.75 110.045 38.252 109.811 38.7168C109.58 39.1777 109.262 39.5312 108.855 39.7773C108.449 40.0234 107.988 40.1465 107.473 40.1465C106.594 40.1465 105.877 39.8242 105.322 39.1797C104.768 38.5312 104.49 37.4648 104.49 35.9805C104.49 34.3203 104.797 33.1133 105.41 32.3594C105.945 31.7031 106.666 31.375 107.572 31.375C108.248 31.375 108.801 31.5645 109.23 31.9434C109.664 32.3223 109.924 32.8457 110.01 33.5137ZM105.703 37.2168C105.703 37.5801 105.779 37.9277 105.932 38.2598C106.088 38.5918 106.305 38.8457 106.582 39.0215C106.859 39.1934 107.15 39.2793 107.455 39.2793C107.9 39.2793 108.283 39.0996 108.604 38.7402C108.924 38.3809 109.084 37.8926 109.084 37.2754C109.084 36.6816 108.926 36.2148 108.609 35.875C108.293 35.5312 107.895 35.3594 107.414 35.3594C106.938 35.3594 106.533 35.5312 106.201 35.875C105.869 36.2148 105.703 36.6621 105.703 37.2168ZM114.598 40V37.9434H110.871V36.9766L114.791 31.4102H115.652V36.9766H116.812V37.9434H115.652V40H114.598ZM114.598 36.9766V33.1035L111.908 36.9766H114.598ZM117.381 40L120.68 31.4102H121.904L125.42 40H124.125L123.123 37.3984H119.531L118.588 40H117.381ZM119.859 36.4727H122.771L121.875 34.0938C121.602 33.3711 121.398 32.7773 121.266 32.3125C121.156 32.8633 121.002 33.4102 120.803 33.9531L119.859 36.4727ZM125.9 35.7637C125.9 34.748 126.004 33.9316 126.211 33.3145C126.422 32.6934 126.732 32.2148 127.143 31.8789C127.557 31.543 128.076 31.375 128.701 31.375C129.162 31.375 129.566 31.4688 129.914 31.6562C130.262 31.8398 130.549 32.1074 130.775 32.459C131.002 32.8066 131.18 33.2324 131.309 33.7363C131.438 34.2363 131.502 34.9121 131.502 35.7637C131.502 36.7715 131.398 37.5859 131.191 38.207C130.984 38.8242 130.674 39.3027 130.26 39.6426C129.85 39.9785 129.33 40.1465 128.701 40.1465C127.873 40.1465 127.223 39.8496 126.75 39.2559C126.184 38.541 125.9 37.377 125.9 35.7637ZM126.984 35.7637C126.984 37.1738 127.148 38.1133 127.477 38.582C127.809 39.0469 128.217 39.2793 128.701 39.2793C129.186 39.2793 129.592 39.0449 129.92 38.5762C130.252 38.1074 130.418 37.1699 130.418 35.7637C130.418 34.3496 130.252 33.4102 129.92 32.9453C129.592 32.4805 129.182 32.248 128.689 32.248C128.205 32.248 127.818 32.4531 127.529 32.8633C127.166 33.3867 126.984 34.3535 126.984 35.7637Z" fill="#3E3E3D"/>
</g>
<path d="M88.6464 92.3536C88.8417 92.5488 89.1583 92.5488 89.3536 92.3536L92.5355 89.1716C92.7308 88.9763 92.7308 88.6597 92.5355 88.4645C92.3403 88.2692 92.0237 88.2692 91.8284 88.4645L89 91.2929L86.1716 88.4645C85.9763 88.2692 85.6597 88.2692 85.4645 88.4645C85.2692 88.6597 85.2692 88.9763 85.4645 89.1716L88.6464 92.3536ZM89 56H88.5V92H89H89.5V56H89Z" fill="#A1A1A0"/>
<g clip-path="url(#clip1_841_14463)">
<mask id="path-7-inside-2_841_14463" fill="white">
<path d="M40 112C40 100.954 48.9543 92 60 92H166C177.046 92 186 100.954 186 112C186 123.046 177.046 132 166 132H60C48.9543 132 40 123.046 40 112Z"/>
</mask>
<path d="M40 112C40 100.954 48.9543 92 60 92H166C177.046 92 186 100.954 186 112C186 123.046 177.046 132 166 132H60C48.9543 132 40 123.046 40 112Z" fill="white"/>
<path d="M60 92V93H166V92V91H60V92ZM166 132V131H60V132V133H166V132ZM60 132V131C49.5066 131 41 122.493 41 112H40H39C39 123.598 48.402 133 60 133V132ZM186 112H185C185 122.493 176.493 131 166 131V132V133C177.598 133 187 123.598 187 112H186ZM166 92V93C176.493 93 185 101.507 185 112H186H187C187 100.402 177.598 91 166 91V92ZM60 92V91C48.402 91 39 100.402 39 112H40H41C41 101.507 49.5066 93 60 93V92Z" fill="#A1A1A0" mask="url(#path-7-inside-2_841_14463)"/>
<circle cx="64" cy="112" r="12" fill="#2964A0"/>
<path d="M85.7637 116H84.7852V107.41H85.8398V110.475C86.2852 109.916 86.8535 109.637 87.5449 109.637C87.9277 109.637 88.2891 109.715 88.6289 109.871C88.9727 110.023 89.2539 110.24 89.4727 110.521C89.6953 110.799 89.8691 111.135 89.9941 111.529C90.1191 111.924 90.1816 112.346 90.1816 112.795C90.1816 113.861 89.918 114.686 89.3906 115.268C88.8633 115.85 88.2305 116.141 87.4922 116.141C86.7578 116.141 86.1816 115.834 85.7637 115.221V116ZM85.752 112.842C85.752 113.588 85.8535 114.127 86.0566 114.459C86.3887 115.002 86.8379 115.273 87.4043 115.273C87.8652 115.273 88.2637 115.074 88.5996 114.676C88.9355 114.273 89.1035 113.676 89.1035 112.883C89.1035 112.07 88.9414 111.471 88.6172 111.084C88.2969 110.697 87.9082 110.504 87.4512 110.504C86.9902 110.504 86.5918 110.705 86.2559 111.107C85.9199 111.506 85.752 112.084 85.752 112.842ZM91.4473 116V107.41H92.502V116H91.4473ZM98.4023 113.996L99.4922 114.131C99.3203 114.768 99.002 115.262 98.5371 115.613C98.0723 115.965 97.4785 116.141 96.7559 116.141C95.8457 116.141 95.123 115.861 94.5879 115.303C94.0566 114.74 93.791 113.953 93.791 112.941C93.791 111.895 94.0605 111.082 94.5996 110.504C95.1387 109.926 95.8379 109.637 96.6973 109.637C97.5293 109.637 98.209 109.92 98.7363 110.486C99.2637 111.053 99.5273 111.85 99.5273 112.877C99.5273 112.939 99.5254 113.033 99.5215 113.158H94.8809C94.9199 113.842 95.1133 114.365 95.4609 114.729C95.8086 115.092 96.2422 115.273 96.7617 115.273C97.1484 115.273 97.4785 115.172 97.752 114.969C98.0254 114.766 98.2422 114.441 98.4023 113.996ZM94.9395 112.291H98.4141C98.3672 111.768 98.2344 111.375 98.0156 111.113C97.6797 110.707 97.2441 110.504 96.709 110.504C96.2246 110.504 95.8164 110.666 95.4844 110.99C95.1562 111.314 94.9746 111.748 94.9395 112.291ZM104.9 116V115.086C104.416 115.789 103.758 116.141 102.926 116.141C102.559 116.141 102.215 116.07 101.895 115.93C101.578 115.789 101.342 115.613 101.186 115.402C101.033 115.188 100.926 114.926 100.863 114.617C100.82 114.41 100.799 114.082 100.799 113.633V109.777H101.854V113.229C101.854 113.779 101.875 114.15 101.918 114.342C101.984 114.619 102.125 114.838 102.34 114.998C102.555 115.154 102.82 115.232 103.137 115.232C103.453 115.232 103.75 115.152 104.027 114.992C104.305 114.828 104.5 114.607 104.613 114.33C104.73 114.049 104.789 113.643 104.789 113.111V109.777H105.844V116H104.9ZM107.092 113.422V112.361H110.332V113.422H107.092ZM111.504 108.623V107.41H112.559V108.623H111.504ZM111.504 116V109.777H112.559V116H111.504ZM118.23 113.721L119.268 113.855C119.154 114.57 118.863 115.131 118.395 115.537C117.93 115.939 117.357 116.141 116.678 116.141C115.826 116.141 115.141 115.863 114.621 115.309C114.105 114.75 113.848 113.951 113.848 112.912C113.848 112.24 113.959 111.652 114.182 111.148C114.404 110.645 114.742 110.268 115.195 110.018C115.652 109.764 116.148 109.637 116.684 109.637C117.359 109.637 117.912 109.809 118.342 110.152C118.771 110.492 119.047 110.977 119.168 111.605L118.143 111.764C118.045 111.346 117.871 111.031 117.621 110.82C117.375 110.609 117.076 110.504 116.725 110.504C116.193 110.504 115.762 110.695 115.43 111.078C115.098 111.457 114.932 112.059 114.932 112.883C114.932 113.719 115.092 114.326 115.412 114.705C115.732 115.084 116.15 115.273 116.666 115.273C117.08 115.273 117.426 115.146 117.703 114.893C117.98 114.639 118.156 114.248 118.23 113.721ZM124.43 113.996L125.52 114.131C125.348 114.768 125.029 115.262 124.564 115.613C124.1 115.965 123.506 116.141 122.783 116.141C121.873 116.141 121.15 115.861 120.615 115.303C120.084 114.74 119.818 113.953 119.818 112.941C119.818 111.895 120.088 111.082 120.627 110.504C121.166 109.926 121.865 109.637 122.725 109.637C123.557 109.637 124.236 109.92 124.764 110.486C125.291 111.053 125.555 111.85 125.555 112.877C125.555 112.939 125.553 113.033 125.549 113.158H120.908C120.947 113.842 121.141 114.365 121.488 114.729C121.836 115.092 122.27 115.273 122.789 115.273C123.176 115.273 123.506 115.172 123.779 114.969C124.053 114.766 124.27 114.441 124.43 113.996ZM120.967 112.291H124.441C124.395 111.768 124.262 111.375 124.043 111.113C123.707 110.707 123.271 110.504 122.736 110.504C122.252 110.504 121.844 110.666 121.512 110.99C121.184 111.314 121.002 111.748 120.967 112.291ZM127.822 116H126.844V107.41H127.898V110.475C128.344 109.916 128.912 109.637 129.604 109.637C129.986 109.637 130.348 109.715 130.688 109.871C131.031 110.023 131.312 110.24 131.531 110.521C131.754 110.799 131.928 111.135 132.053 111.529C132.178 111.924 132.24 112.346 132.24 112.795C132.24 113.861 131.977 114.686 131.449 115.268C130.922 115.85 130.289 116.141 129.551 116.141C128.816 116.141 128.24 115.834 127.822 115.221V116ZM127.811 112.842C127.811 113.588 127.912 114.127 128.115 114.459C128.447 115.002 128.896 115.273 129.463 115.273C129.924 115.273 130.322 115.074 130.658 114.676C130.994 114.273 131.162 113.676 131.162 112.883C131.162 112.07 131 111.471 130.676 111.084C130.355 110.697 129.967 110.504 129.51 110.504C129.049 110.504 128.65 110.705 128.314 111.107C127.979 111.506 127.811 112.084 127.811 112.842ZM137.789 113.996L138.879 114.131C138.707 114.768 138.389 115.262 137.924 115.613C137.459 115.965 136.865 116.141 136.143 116.141C135.232 116.141 134.51 115.861 133.975 115.303C133.443 114.74 133.178 113.953 133.178 112.941C133.178 111.895 133.447 111.082 133.986 110.504C134.525 109.926 135.225 109.637 136.084 109.637C136.916 109.637 137.596 109.92 138.123 110.486C138.65 111.053 138.914 111.85 138.914 112.877C138.914 112.939 138.912 113.033 138.908 113.158H134.268C134.307 113.842 134.5 114.365 134.848 114.729C135.195 115.092 135.629 115.273 136.148 115.273C136.535 115.273 136.865 115.172 137.139 114.969C137.412 114.766 137.629 114.441 137.789 113.996ZM134.326 112.291H137.801C137.754 111.768 137.621 111.375 137.402 111.113C137.066 110.707 136.631 110.504 136.096 110.504C135.611 110.504 135.203 110.666 134.871 110.99C134.543 111.314 134.361 111.748 134.326 112.291ZM140.197 116V109.777H141.146V110.721C141.389 110.279 141.611 109.988 141.814 109.848C142.021 109.707 142.248 109.637 142.494 109.637C142.85 109.637 143.211 109.75 143.578 109.977L143.215 110.955C142.957 110.803 142.699 110.727 142.441 110.727C142.211 110.727 142.004 110.797 141.82 110.938C141.637 111.074 141.506 111.266 141.428 111.512C141.311 111.887 141.252 112.297 141.252 112.742V116H140.197ZM144.012 116.516L145.037 116.668C145.08 116.984 145.199 117.215 145.395 117.359C145.656 117.555 146.014 117.652 146.467 117.652C146.955 117.652 147.332 117.555 147.598 117.359C147.863 117.164 148.043 116.891 148.137 116.539C148.191 116.324 148.217 115.873 148.213 115.186C147.752 115.729 147.178 116 146.49 116C145.635 116 144.973 115.691 144.504 115.074C144.035 114.457 143.801 113.717 143.801 112.854C143.801 112.26 143.908 111.713 144.123 111.213C144.338 110.709 144.648 110.32 145.055 110.047C145.465 109.773 145.945 109.637 146.496 109.637C147.23 109.637 147.836 109.934 148.312 110.527V109.777H149.285V115.156C149.285 116.125 149.186 116.811 148.986 117.213C148.791 117.619 148.479 117.939 148.049 118.174C147.623 118.408 147.098 118.525 146.473 118.525C145.73 118.525 145.131 118.357 144.674 118.021C144.217 117.689 143.996 117.188 144.012 116.516ZM144.885 112.777C144.885 113.594 145.047 114.189 145.371 114.564C145.695 114.939 146.102 115.127 146.59 115.127C147.074 115.127 147.48 114.941 147.809 114.57C148.137 114.195 148.301 113.609 148.301 112.812C148.301 112.051 148.131 111.477 147.791 111.09C147.455 110.703 147.049 110.51 146.572 110.51C146.104 110.51 145.705 110.701 145.377 111.084C145.049 111.463 144.885 112.027 144.885 112.777ZM150.094 116.146L152.584 107.264H153.428L150.943 116.146H150.094ZM159.404 109.514L158.355 109.596C158.262 109.182 158.129 108.881 157.957 108.693C157.672 108.393 157.32 108.242 156.902 108.242C156.566 108.242 156.271 108.336 156.018 108.523C155.686 108.766 155.424 109.119 155.232 109.584C155.041 110.049 154.941 110.711 154.934 111.57C155.188 111.184 155.498 110.896 155.865 110.709C156.232 110.521 156.617 110.428 157.02 110.428C157.723 110.428 158.32 110.688 158.812 111.207C159.309 111.723 159.557 112.391 159.557 113.211C159.557 113.75 159.439 114.252 159.205 114.717C158.975 115.178 158.656 115.531 158.25 115.777C157.844 116.023 157.383 116.146 156.867 116.146C155.988 116.146 155.271 115.824 154.717 115.18C154.162 114.531 153.885 113.465 153.885 111.98C153.885 110.32 154.191 109.113 154.805 108.359C155.34 107.703 156.061 107.375 156.967 107.375C157.643 107.375 158.195 107.564 158.625 107.943C159.059 108.322 159.318 108.846 159.404 109.514ZM155.098 113.217C155.098 113.58 155.174 113.928 155.326 114.26C155.482 114.592 155.699 114.846 155.977 115.021C156.254 115.193 156.545 115.279 156.85 115.279C157.295 115.279 157.678 115.1 157.998 114.74C158.318 114.381 158.479 113.893 158.479 113.275C158.479 112.682 158.32 112.215 158.004 111.875C157.688 111.531 157.289 111.359 156.809 111.359C156.332 111.359 155.928 111.531 155.596 111.875C155.264 112.215 155.098 112.662 155.098 113.217ZM160.611 111.764C160.611 110.748 160.715 109.932 160.922 109.314C161.133 108.693 161.443 108.215 161.854 107.879C162.268 107.543 162.787 107.375 163.412 107.375C163.873 107.375 164.277 107.469 164.625 107.656C164.973 107.84 165.26 108.107 165.486 108.459C165.713 108.807 165.891 109.232 166.02 109.736C166.148 110.236 166.213 110.912 166.213 111.764C166.213 112.771 166.109 113.586 165.902 114.207C165.695 114.824 165.385 115.303 164.971 115.643C164.561 115.979 164.041 116.146 163.412 116.146C162.584 116.146 161.934 115.85 161.461 115.256C160.895 114.541 160.611 113.377 160.611 111.764ZM161.695 111.764C161.695 113.174 161.859 114.113 162.188 114.582C162.52 115.047 162.928 115.279 163.412 115.279C163.896 115.279 164.303 115.045 164.631 114.576C164.963 114.107 165.129 113.17 165.129 111.764C165.129 110.35 164.963 109.41 164.631 108.945C164.303 108.48 163.893 108.248 163.4 108.248C162.916 108.248 162.529 108.453 162.24 108.863C161.877 109.387 161.695 110.354 161.695 111.764ZM167.291 111.764C167.291 110.748 167.395 109.932 167.602 109.314C167.812 108.693 168.123 108.215 168.533 107.879C168.947 107.543 169.467 107.375 170.092 107.375C170.553 107.375 170.957 107.469 171.305 107.656C171.652 107.84 171.939 108.107 172.166 108.459C172.393 108.807 172.57 109.232 172.699 109.736C172.828 110.236 172.893 110.912 172.893 111.764C172.893 112.771 172.789 113.586 172.582 114.207C172.375 114.824 172.064 115.303 171.65 115.643C171.24 115.979 170.721 116.146 170.092 116.146C169.264 116.146 168.613 115.85 168.141 115.256C167.574 114.541 167.291 113.377 167.291 111.764ZM168.375 111.764C168.375 113.174 168.539 114.113 168.867 114.582C169.199 115.047 169.607 115.279 170.092 115.279C170.576 115.279 170.982 115.045 171.311 114.576C171.643 114.107 171.809 113.17 171.809 111.764C171.809 110.35 171.643 109.41 171.311 108.945C170.982 108.48 170.572 108.248 170.08 108.248C169.596 108.248 169.209 108.453 168.92 108.863C168.557 109.387 168.375 110.354 168.375 111.764Z" fill="#3E3E3D"/>
</g>
<path d="M88.6464 168.354C88.8417 168.549 89.1583 168.549 89.3536 168.354L92.5355 165.172C92.7308 164.976 92.7308 164.66 92.5355 164.464C92.3403 164.269 92.0237 164.269 91.8284 164.464L89 167.293L86.1716 164.464C85.9763 164.269 85.6597 164.269 85.4645 164.464C85.2692 164.66 85.2692 164.976 85.4645 165.172L88.6464 168.354ZM89 132H88.5V168H89H89.5V132H89Z" fill="#A1A1A0"/>
<mask id="path-12-inside-3_841_14463" fill="white">
<path d="M40 188C40 176.954 48.9543 168 60 168H213C224.046 168 233 176.954 233 188C233 199.046 224.046 208 213 208H60C48.9543 208 40 199.046 40 188Z"/>
</mask>
<path d="M40 188C40 176.954 48.9543 168 60 168H213C224.046 168 233 176.954 233 188C233 199.046 224.046 208 213 208H60C48.9543 208 40 199.046 40 188Z" fill="white"/>
<path d="M60 168V169H213V168V167H60V168ZM213 208V207H60V208V209H213V208ZM60 208V207C49.5066 207 41 198.493 41 188H40H39C39 199.598 48.402 209 60 209V208ZM233 188H232C232 198.493 223.493 207 213 207V208V209C224.598 209 234 199.598 234 188H233ZM213 168V169C223.493 169 232 177.507 232 188H233H234C234 176.402 224.598 167 213 167V168ZM60 168V167C48.402 167 39 176.402 39 188H40H41C41 177.507 49.5066 169 60 169V168Z" fill="#A1A1A0" mask="url(#path-12-inside-3_841_14463)"/>
<circle cx="64" cy="188" r="12" fill="#2964A0"/>
<path d="M85.7637 192H84.7852V183.41H85.8398V186.475C86.2852 185.916 86.8535 185.637 87.5449 185.637C87.9277 185.637 88.2891 185.715 88.6289 185.871C88.9727 186.023 89.2539 186.24 89.4727 186.521C89.6953 186.799 89.8691 187.135 89.9941 187.529C90.1191 187.924 90.1816 188.346 90.1816 188.795C90.1816 189.861 89.918 190.686 89.3906 191.268C88.8633 191.85 88.2305 192.141 87.4922 192.141C86.7578 192.141 86.1816 191.834 85.7637 191.221V192ZM85.752 188.842C85.752 189.588 85.8535 190.127 86.0566 190.459C86.3887 191.002 86.8379 191.273 87.4043 191.273C87.8652 191.273 88.2637 191.074 88.5996 190.676C88.9355 190.273 89.1035 189.676 89.1035 188.883C89.1035 188.07 88.9414 187.471 88.6172 187.084C88.2969 186.697 87.9082 186.504 87.4512 186.504C86.9902 186.504 86.5918 186.705 86.2559 187.107C85.9199 187.506 85.752 188.084 85.752 188.842ZM95.5312 191.232C95.1406 191.564 94.7637 191.799 94.4004 191.936C94.041 192.072 93.6543 192.141 93.2402 192.141C92.5566 192.141 92.0312 191.975 91.6641 191.643C91.2969 191.307 91.1133 190.879 91.1133 190.359C91.1133 190.055 91.1816 189.777 91.3184 189.527C91.459 189.273 91.6406 189.07 91.8633 188.918C92.0898 188.766 92.3438 188.65 92.625 188.572C92.832 188.518 93.1445 188.465 93.5625 188.414C94.4141 188.312 95.041 188.191 95.4434 188.051C95.4473 187.906 95.4492 187.814 95.4492 187.775C95.4492 187.346 95.3496 187.043 95.1504 186.867C94.8809 186.629 94.4805 186.51 93.9492 186.51C93.4531 186.51 93.0859 186.598 92.8477 186.773C92.6133 186.945 92.4395 187.252 92.3262 187.693L91.2949 187.553C91.3887 187.111 91.543 186.756 91.7578 186.486C91.9727 186.213 92.2832 186.004 92.6895 185.859C93.0957 185.711 93.5664 185.637 94.1016 185.637C94.6328 185.637 95.0645 185.699 95.3965 185.824C95.7285 185.949 95.9727 186.107 96.1289 186.299C96.2852 186.486 96.3945 186.725 96.457 187.014C96.4922 187.193 96.5098 187.518 96.5098 187.986V189.393C96.5098 190.373 96.5312 190.994 96.5742 191.256C96.6211 191.514 96.7109 191.762 96.8438 192H95.7422C95.6328 191.781 95.5625 191.525 95.5312 191.232ZM95.4434 188.877C95.0605 189.033 94.4863 189.166 93.7207 189.275C93.2871 189.338 92.9805 189.408 92.8008 189.486C92.6211 189.564 92.4824 189.68 92.3848 189.832C92.2871 189.98 92.2383 190.146 92.2383 190.33C92.2383 190.611 92.3438 190.846 92.5547 191.033C92.7695 191.221 93.082 191.314 93.4922 191.314C93.8984 191.314 94.2598 191.227 94.5762 191.051C94.8926 190.871 95.125 190.627 95.2734 190.318C95.3867 190.08 95.4434 189.729 95.4434 189.264V188.877ZM102.211 189.721L103.248 189.855C103.135 190.57 102.844 191.131 102.375 191.537C101.91 191.939 101.338 192.141 100.658 192.141C99.8066 192.141 99.1211 191.863 98.6016 191.309C98.0859 190.75 97.8281 189.951 97.8281 188.912C97.8281 188.24 97.9395 187.652 98.1621 187.148C98.3848 186.645 98.7227 186.268 99.1758 186.018C99.6328 185.764 100.129 185.637 100.664 185.637C101.34 185.637 101.893 185.809 102.322 186.152C102.752 186.492 103.027 186.977 103.148 187.605L102.123 187.764C102.025 187.346 101.852 187.031 101.602 186.82C101.355 186.609 101.057 186.504 100.705 186.504C100.174 186.504 99.7422 186.695 99.4102 187.078C99.0781 187.457 98.9121 188.059 98.9121 188.883C98.9121 189.719 99.0723 190.326 99.3926 190.705C99.7129 191.084 100.131 191.273 100.646 191.273C101.061 191.273 101.406 191.146 101.684 190.893C101.961 190.639 102.137 190.248 102.211 189.721ZM104.156 192V183.41H105.211V188.309L107.707 185.777H109.072L106.693 188.086L109.312 192H108.012L105.955 188.818L105.211 189.533V192H104.156ZM109.957 192.516L110.982 192.668C111.025 192.984 111.145 193.215 111.34 193.359C111.602 193.555 111.959 193.652 112.412 193.652C112.9 193.652 113.277 193.555 113.543 193.359C113.809 193.164 113.988 192.891 114.082 192.539C114.137 192.324 114.162 191.873 114.158 191.186C113.697 191.729 113.123 192 112.436 192C111.58 192 110.918 191.691 110.449 191.074C109.98 190.457 109.746 189.717 109.746 188.854C109.746 188.26 109.854 187.713 110.068 187.213C110.283 186.709 110.594 186.32 111 186.047C111.41 185.773 111.891 185.637 112.441 185.637C113.176 185.637 113.781 185.934 114.258 186.527V185.777H115.23V191.156C115.23 192.125 115.131 192.811 114.932 193.213C114.736 193.619 114.424 193.939 113.994 194.174C113.568 194.408 113.043 194.525 112.418 194.525C111.676 194.525 111.076 194.357 110.619 194.021C110.162 193.689 109.941 193.188 109.957 192.516ZM110.83 188.777C110.83 189.594 110.992 190.189 111.316 190.564C111.641 190.939 112.047 191.127 112.535 191.127C113.02 191.127 113.426 190.941 113.754 190.57C114.082 190.195 114.246 189.609 114.246 188.812C114.246 188.051 114.076 187.477 113.736 187.09C113.4 186.703 112.994 186.51 112.518 186.51C112.049 186.51 111.65 186.701 111.322 187.084C110.994 187.463 110.83 188.027 110.83 188.777ZM116.818 192V185.777H117.768V186.721C118.01 186.279 118.232 185.988 118.436 185.848C118.643 185.707 118.869 185.637 119.115 185.637C119.471 185.637 119.832 185.75 120.199 185.977L119.836 186.955C119.578 186.803 119.32 186.727 119.062 186.727C118.832 186.727 118.625 186.797 118.441 186.938C118.258 187.074 118.127 187.266 118.049 187.512C117.932 187.887 117.873 188.297 117.873 188.742V192H116.818ZM120.434 188.889C120.434 187.736 120.754 186.883 121.395 186.328C121.93 185.867 122.582 185.637 123.352 185.637C124.207 185.637 124.906 185.918 125.449 186.48C125.992 187.039 126.264 187.812 126.264 188.801C126.264 189.602 126.143 190.232 125.9 190.693C125.662 191.15 125.312 191.506 124.852 191.76C124.395 192.014 123.895 192.141 123.352 192.141C122.48 192.141 121.775 191.861 121.236 191.303C120.701 190.744 120.434 189.939 120.434 188.889ZM121.518 188.889C121.518 189.686 121.691 190.283 122.039 190.682C122.387 191.076 122.824 191.273 123.352 191.273C123.875 191.273 124.311 191.074 124.658 190.676C125.006 190.277 125.18 189.67 125.18 188.854C125.18 188.084 125.004 187.502 124.652 187.107C124.305 186.709 123.871 186.51 123.352 186.51C122.824 186.51 122.387 186.707 122.039 187.102C121.691 187.496 121.518 188.092 121.518 188.889ZM131.584 192V191.086C131.1 191.789 130.441 192.141 129.609 192.141C129.242 192.141 128.898 192.07 128.578 191.93C128.262 191.789 128.025 191.613 127.869 191.402C127.717 191.188 127.609 190.926 127.547 190.617C127.504 190.41 127.482 190.082 127.482 189.633V185.777H128.537V189.229C128.537 189.779 128.559 190.15 128.602 190.342C128.668 190.619 128.809 190.838 129.023 190.998C129.238 191.154 129.504 191.232 129.82 191.232C130.137 191.232 130.434 191.152 130.711 190.992C130.988 190.828 131.184 190.607 131.297 190.33C131.414 190.049 131.473 189.643 131.473 189.111V185.777H132.527V192H131.584ZM134.186 192V185.777H135.135V186.662C135.592 185.979 136.252 185.637 137.115 185.637C137.49 185.637 137.834 185.705 138.146 185.842C138.463 185.975 138.699 186.15 138.855 186.369C139.012 186.588 139.121 186.848 139.184 187.148C139.223 187.344 139.242 187.686 139.242 188.174V192H138.188V188.215C138.188 187.785 138.146 187.465 138.064 187.254C137.982 187.039 137.836 186.869 137.625 186.744C137.418 186.615 137.174 186.551 136.893 186.551C136.443 186.551 136.055 186.693 135.727 186.979C135.402 187.264 135.24 187.805 135.24 188.602V192H134.186ZM144.902 192V191.215C144.508 191.832 143.928 192.141 143.162 192.141C142.666 192.141 142.209 192.004 141.791 191.73C141.377 191.457 141.055 191.076 140.824 190.588C140.598 190.096 140.484 189.531 140.484 188.895C140.484 188.273 140.588 187.711 140.795 187.207C141.002 186.699 141.312 186.311 141.727 186.041C142.141 185.771 142.604 185.637 143.115 185.637C143.49 185.637 143.824 185.717 144.117 185.877C144.41 186.033 144.648 186.238 144.832 186.492V183.41H145.881V192H144.902ZM141.568 188.895C141.568 189.691 141.736 190.287 142.072 190.682C142.408 191.076 142.805 191.273 143.262 191.273C143.723 191.273 144.113 191.086 144.434 190.711C144.758 190.332 144.92 189.756 144.92 188.982C144.92 188.131 144.756 187.506 144.428 187.107C144.1 186.709 143.695 186.51 143.215 186.51C142.746 186.51 142.354 186.701 142.037 187.084C141.725 187.467 141.568 188.07 141.568 188.895ZM146.754 192.146L149.244 183.264H150.088L147.604 192.146H146.754ZM151.857 192H150.879V183.41H151.934V186.475C152.379 185.916 152.947 185.637 153.639 185.637C154.021 185.637 154.383 185.715 154.723 185.871C155.066 186.023 155.348 186.24 155.566 186.521C155.789 186.799 155.963 187.135 156.088 187.529C156.213 187.924 156.275 188.346 156.275 188.795C156.275 189.861 156.012 190.686 155.484 191.268C154.957 191.85 154.324 192.141 153.586 192.141C152.852 192.141 152.275 191.834 151.857 191.221V192ZM151.846 188.842C151.846 189.588 151.947 190.127 152.15 190.459C152.482 191.002 152.932 191.273 153.498 191.273C153.959 191.273 154.357 191.074 154.693 190.676C155.029 190.273 155.197 189.676 155.197 188.883C155.197 188.07 155.035 187.471 154.711 187.084C154.391 186.697 154.002 186.504 153.545 186.504C153.084 186.504 152.686 186.705 152.35 187.107C152.014 187.506 151.846 188.084 151.846 188.842ZM157.553 192V185.777H158.502V186.721C158.744 186.279 158.967 185.988 159.17 185.848C159.377 185.707 159.604 185.637 159.85 185.637C160.205 185.637 160.566 185.75 160.934 185.977L160.57 186.955C160.312 186.803 160.055 186.727 159.797 186.727C159.566 186.727 159.359 186.797 159.176 186.938C158.992 187.074 158.861 187.266 158.783 187.512C158.666 187.887 158.607 188.297 158.607 188.742V192H157.553ZM165.621 191.232C165.23 191.564 164.854 191.799 164.49 191.936C164.131 192.072 163.744 192.141 163.33 192.141C162.646 192.141 162.121 191.975 161.754 191.643C161.387 191.307 161.203 190.879 161.203 190.359C161.203 190.055 161.271 189.777 161.408 189.527C161.549 189.273 161.73 189.07 161.953 188.918C162.18 188.766 162.434 188.65 162.715 188.572C162.922 188.518 163.234 188.465 163.652 188.414C164.504 188.312 165.131 188.191 165.533 188.051C165.537 187.906 165.539 187.814 165.539 187.775C165.539 187.346 165.439 187.043 165.24 186.867C164.971 186.629 164.57 186.51 164.039 186.51C163.543 186.51 163.176 186.598 162.938 186.773C162.703 186.945 162.529 187.252 162.416 187.693L161.385 187.553C161.479 187.111 161.633 186.756 161.848 186.486C162.062 186.213 162.373 186.004 162.779 185.859C163.186 185.711 163.656 185.637 164.191 185.637C164.723 185.637 165.154 185.699 165.486 185.824C165.818 185.949 166.062 186.107 166.219 186.299C166.375 186.486 166.484 186.725 166.547 187.014C166.582 187.193 166.6 187.518 166.6 187.986V189.393C166.6 190.373 166.621 190.994 166.664 191.256C166.711 191.514 166.801 191.762 166.934 192H165.832C165.723 191.781 165.652 191.525 165.621 191.232ZM165.533 188.877C165.15 189.033 164.576 189.166 163.811 189.275C163.377 189.338 163.07 189.408 162.891 189.486C162.711 189.564 162.572 189.68 162.475 189.832C162.377 189.98 162.328 190.146 162.328 190.33C162.328 190.611 162.434 190.846 162.645 191.033C162.859 191.221 163.172 191.314 163.582 191.314C163.988 191.314 164.35 191.227 164.666 191.051C164.982 190.871 165.215 190.627 165.363 190.318C165.477 190.08 165.533 189.729 165.533 189.264V188.877ZM168.24 192V185.777H169.189V186.662C169.646 185.979 170.307 185.637 171.17 185.637C171.545 185.637 171.889 185.705 172.201 185.842C172.518 185.975 172.754 186.15 172.91 186.369C173.066 186.588 173.176 186.848 173.238 187.148C173.277 187.344 173.297 187.686 173.297 188.174V192H172.242V188.215C172.242 187.785 172.201 187.465 172.119 187.254C172.037 187.039 171.891 186.869 171.68 186.744C171.473 186.615 171.229 186.551 170.947 186.551C170.498 186.551 170.109 186.693 169.781 186.979C169.457 187.264 169.295 187.805 169.295 188.602V192H168.24ZM178.957 192V191.215C178.562 191.832 177.982 192.141 177.217 192.141C176.721 192.141 176.264 192.004 175.846 191.73C175.432 191.457 175.109 191.076 174.879 190.588C174.652 190.096 174.539 189.531 174.539 188.895C174.539 188.273 174.643 187.711 174.85 187.207C175.057 186.699 175.367 186.311 175.781 186.041C176.195 185.771 176.658 185.637 177.17 185.637C177.545 185.637 177.879 185.717 178.172 185.877C178.465 186.033 178.703 186.238 178.887 186.492V183.41H179.936V192H178.957ZM175.623 188.895C175.623 189.691 175.791 190.287 176.127 190.682C176.463 191.076 176.859 191.273 177.316 191.273C177.777 191.273 178.168 191.086 178.488 190.711C178.812 190.332 178.975 189.756 178.975 188.982C178.975 188.131 178.811 187.506 178.482 187.107C178.154 186.709 177.75 186.51 177.27 186.51C176.801 186.51 176.408 186.701 176.092 187.084C175.779 187.467 175.623 188.07 175.623 188.895ZM181.189 189.422V188.361H184.43V189.422H181.189ZM189.633 192V191.215C189.238 191.832 188.658 192.141 187.893 192.141C187.396 192.141 186.939 192.004 186.521 191.73C186.107 191.457 185.785 191.076 185.555 190.588C185.328 190.096 185.215 189.531 185.215 188.895C185.215 188.273 185.318 187.711 185.525 187.207C185.732 186.699 186.043 186.311 186.457 186.041C186.871 185.771 187.334 185.637 187.846 185.637C188.221 185.637 188.555 185.717 188.848 185.877C189.141 186.033 189.379 186.238 189.562 186.492V183.41H190.611V192H189.633ZM186.299 188.895C186.299 189.691 186.467 190.287 186.803 190.682C187.139 191.076 187.535 191.273 187.992 191.273C188.453 191.273 188.844 191.086 189.164 190.711C189.488 190.332 189.65 189.756 189.65 188.982C189.65 188.131 189.486 187.506 189.158 187.107C188.83 186.709 188.426 186.51 187.945 186.51C187.477 186.51 187.084 186.701 186.768 187.084C186.455 187.467 186.299 188.07 186.299 188.895ZM196.535 189.996L197.625 190.131C197.453 190.768 197.135 191.262 196.67 191.613C196.205 191.965 195.611 192.141 194.889 192.141C193.979 192.141 193.256 191.861 192.721 191.303C192.189 190.74 191.924 189.953 191.924 188.941C191.924 187.895 192.193 187.082 192.732 186.504C193.271 185.926 193.971 185.637 194.83 185.637C195.662 185.637 196.342 185.92 196.869 186.486C197.396 187.053 197.66 187.85 197.66 188.877C197.66 188.939 197.658 189.033 197.654 189.158H193.014C193.053 189.842 193.246 190.365 193.594 190.729C193.941 191.092 194.375 191.273 194.895 191.273C195.281 191.273 195.611 191.172 195.885 190.969C196.158 190.766 196.375 190.441 196.535 189.996ZM193.072 188.291H196.547C196.5 187.768 196.367 187.375 196.148 187.113C195.812 186.707 195.377 186.504 194.842 186.504C194.357 186.504 193.949 186.666 193.617 186.99C193.289 187.314 193.107 187.748 193.072 188.291ZM199.207 192V186.598H198.275V185.777H199.207V185.115C199.207 184.697 199.244 184.387 199.318 184.184C199.42 183.91 199.598 183.689 199.852 183.521C200.109 183.35 200.469 183.264 200.93 183.264C201.227 183.264 201.555 183.299 201.914 183.369L201.756 184.289C201.537 184.25 201.33 184.23 201.135 184.23C200.814 184.23 200.588 184.299 200.455 184.436C200.322 184.572 200.256 184.828 200.256 185.203V185.777H201.469V186.598H200.256V192H199.207ZM206.355 191.232C205.965 191.564 205.588 191.799 205.225 191.936C204.865 192.072 204.479 192.141 204.064 192.141C203.381 192.141 202.855 191.975 202.488 191.643C202.121 191.307 201.938 190.879 201.938 190.359C201.938 190.055 202.006 189.777 202.143 189.527C202.283 189.273 202.465 189.07 202.688 188.918C202.914 188.766 203.168 188.65 203.449 188.572C203.656 188.518 203.969 188.465 204.387 188.414C205.238 188.312 205.865 188.191 206.268 188.051C206.271 187.906 206.273 187.814 206.273 187.775C206.273 187.346 206.174 187.043 205.975 186.867C205.705 186.629 205.305 186.51 204.773 186.51C204.277 186.51 203.91 186.598 203.672 186.773C203.438 186.945 203.264 187.252 203.15 187.693L202.119 187.553C202.213 187.111 202.367 186.756 202.582 186.486C202.797 186.213 203.107 186.004 203.514 185.859C203.92 185.711 204.391 185.637 204.926 185.637C205.457 185.637 205.889 185.699 206.221 185.824C206.553 185.949 206.797 186.107 206.953 186.299C207.109 186.486 207.219 186.725 207.281 187.014C207.316 187.193 207.334 187.518 207.334 187.986V189.393C207.334 190.373 207.355 190.994 207.398 191.256C207.445 191.514 207.535 191.762 207.668 192H206.566C206.457 191.781 206.387 191.525 206.355 191.232ZM206.268 188.877C205.885 189.033 205.311 189.166 204.545 189.275C204.111 189.338 203.805 189.408 203.625 189.486C203.445 189.564 203.307 189.68 203.209 189.832C203.111 189.98 203.062 190.146 203.062 190.33C203.062 190.611 203.168 190.846 203.379 191.033C203.594 191.221 203.906 191.314 204.316 191.314C204.723 191.314 205.084 191.227 205.4 191.051C205.717 190.871 205.949 190.627 206.098 190.318C206.211 190.08 206.268 189.729 206.268 189.264V188.877ZM213.053 192V191.086C212.568 191.789 211.91 192.141 211.078 192.141C210.711 192.141 210.367 192.07 210.047 191.93C209.73 191.789 209.494 191.613 209.338 191.402C209.186 191.188 209.078 190.926 209.016 190.617C208.973 190.41 208.951 190.082 208.951 189.633V185.777H210.006V189.229C210.006 189.779 210.027 190.15 210.07 190.342C210.137 190.619 210.277 190.838 210.492 190.998C210.707 191.154 210.973 191.232 211.289 191.232C211.605 191.232 211.902 191.152 212.18 190.992C212.457 190.828 212.652 190.607 212.766 190.33C212.883 190.049 212.941 189.643 212.941 189.111V185.777H213.996V192H213.053ZM215.631 192V183.41H216.686V192H215.631ZM220.629 191.057L220.781 191.988C220.484 192.051 220.219 192.082 219.984 192.082C219.602 192.082 219.305 192.021 219.094 191.9C218.883 191.779 218.734 191.621 218.648 191.426C218.562 191.227 218.52 190.811 218.52 190.178V186.598H217.746V185.777H218.52V184.236L219.568 183.604V185.777H220.629V186.598H219.568V190.236C219.568 190.537 219.586 190.73 219.621 190.816C219.66 190.902 219.721 190.971 219.803 191.021C219.889 191.072 220.01 191.098 220.166 191.098C220.283 191.098 220.438 191.084 220.629 191.057Z" fill="#3E3E3D"/>
<path d="M88.6464 244.354C88.8417 244.549 89.1583 244.549 89.3536 244.354L92.5355 241.172C92.7308 240.976 92.7308 240.66 92.5355 240.464C92.3403 240.269 92.0237 240.269 91.8284 240.464L89 243.293L86.1716 240.464C85.9763 240.269 85.6597 240.269 85.4645 240.464C85.2692 240.66 85.2692 240.976 85.4645 241.172L88.6464 244.354ZM89 208H88.5V244H89H89.5V208H89Z" fill="#A1A1A0"/>
<path d="M201.646 244.354C201.842 244.549 202.158 244.549 202.354 244.354L205.536 241.172C205.731 240.976 205.731 240.66 205.536 240.464C205.34 240.269 205.024 240.269 204.828 240.464L202 243.293L199.172 240.464C198.976 240.269 198.66 240.269 198.464 240.464C198.269 240.66 198.269 240.976 198.464 241.172L201.646 244.354ZM202 208H201.5V244H202H202.5V208H202Z" fill="#A1A1A0"/>
<path d="M40 252C40 247.582 43.5817 244 48 244H129C133.418 244 137 247.582 137 252V276C137 280.418 133.418 284 129 284H48C43.5817 284 40 280.418 40 276V252Z" fill="#2964A0"/>
<path d="M66.7 271C66.3667 271 66.1067 270.907 65.92 270.72C65.7333 270.533 65.64 270.273 65.64 269.94V257.88C65.64 257.533 65.7267 257.273 65.9 257.1C66.0867 256.913 66.3467 256.82 66.68 256.82C67.0133 256.82 67.2667 256.913 67.44 257.1C67.6267 257.273 67.72 257.533 67.72 257.88V269.22H73.92C74.2133 269.22 74.44 269.3 74.6 269.46C74.76 269.607 74.84 269.82 74.84 270.1C74.84 270.38 74.76 270.6 74.6 270.76C74.44 270.92 74.2133 271 73.92 271H66.7ZM79.0752 271.18C78.3952 271.18 77.7818 271.047 77.2352 270.78C76.7018 270.513 76.2818 270.153 75.9752 269.7C75.6685 269.247 75.5152 268.733 75.5152 268.16C75.5152 267.44 75.6952 266.873 76.0552 266.46C76.4285 266.033 77.0352 265.733 77.8752 265.56C78.7285 265.373 79.8752 265.28 81.3152 265.28H82.2552V266.52H81.3352C80.3752 266.52 79.6152 266.567 79.0552 266.66C78.4952 266.753 78.0952 266.913 77.8552 267.14C77.6285 267.353 77.5152 267.653 77.5152 268.04C77.5152 268.547 77.6885 268.96 78.0352 269.28C78.3818 269.587 78.8618 269.74 79.4752 269.74C79.9685 269.74 80.4018 269.627 80.7752 269.4C81.1485 269.16 81.4418 268.84 81.6552 268.44C81.8818 268.04 81.9952 267.58 81.9952 267.06V264.76C81.9952 264 81.8352 263.453 81.5152 263.12C81.1952 262.787 80.6685 262.62 79.9352 262.62C79.5085 262.62 79.0618 262.673 78.5952 262.78C78.1418 262.887 77.6685 263.067 77.1752 263.32C76.9485 263.427 76.7552 263.46 76.5952 263.42C76.4352 263.38 76.3085 263.293 76.2152 263.16C76.1218 263.013 76.0685 262.86 76.0552 262.7C76.0552 262.527 76.0952 262.36 76.1752 262.2C76.2685 262.04 76.4218 261.92 76.6352 261.84C77.2218 261.56 77.8018 261.36 78.3752 261.24C78.9485 261.12 79.4885 261.06 79.9952 261.06C80.8885 261.06 81.6218 261.2 82.1952 261.48C82.7818 261.76 83.2152 262.187 83.4952 262.76C83.7752 263.333 83.9152 264.073 83.9152 264.98V270.12C83.9152 270.44 83.8352 270.693 83.6752 270.88C83.5152 271.053 83.2818 271.14 82.9752 271.14C82.6818 271.14 82.4485 271.053 82.2752 270.88C82.1018 270.693 82.0152 270.44 82.0152 270.12V268.82H82.1952C82.0885 269.313 81.8885 269.74 81.5952 270.1C81.3152 270.447 80.9618 270.713 80.5352 270.9C80.1085 271.087 79.6218 271.18 79.0752 271.18ZM91.4373 271.18C90.584 271.18 89.844 270.967 89.2173 270.54C88.5907 270.1 88.1707 269.52 87.9573 268.8L88.1773 268.44V270.12C88.1773 270.44 88.0907 270.693 87.9173 270.88C87.744 271.053 87.504 271.14 87.1973 271.14C86.8773 271.14 86.6307 271.053 86.4573 270.88C86.284 270.693 86.1973 270.44 86.1973 270.12V257.78C86.1973 257.447 86.284 257.193 86.4573 257.02C86.6307 256.847 86.8773 256.76 87.1973 256.76C87.5173 256.76 87.764 256.847 87.9373 257.02C88.124 257.193 88.2173 257.447 88.2173 257.78V263.38H87.9773C88.1907 262.673 88.6107 262.113 89.2373 261.7C89.864 261.273 90.5973 261.06 91.4373 261.06C92.3173 261.06 93.0773 261.267 93.7173 261.68C94.3573 262.093 94.8507 262.673 95.1973 263.42C95.5573 264.167 95.7373 265.067 95.7373 266.12C95.7373 267.147 95.5573 268.047 95.1973 268.82C94.8507 269.58 94.3507 270.167 93.6973 270.58C93.0573 270.98 92.304 271.18 91.4373 271.18ZM90.9373 269.62C91.4973 269.62 91.984 269.487 92.3973 269.22C92.8107 268.953 93.1307 268.56 93.3573 268.04C93.584 267.52 93.6973 266.88 93.6973 266.12C93.6973 264.973 93.444 264.107 92.9373 263.52C92.444 262.933 91.7773 262.64 90.9373 262.64C90.3907 262.64 89.904 262.773 89.4773 263.04C89.064 263.293 88.744 263.68 88.5173 264.2C88.2907 264.72 88.1773 265.36 88.1773 266.12C88.1773 267.253 88.4307 268.12 88.9373 268.72C89.444 269.32 90.1107 269.62 90.9373 269.62ZM102.094 271.18C101.027 271.18 100.107 270.98 99.3338 270.58C98.5738 270.167 97.9804 269.587 97.5538 268.84C97.1404 268.08 96.9338 267.18 96.9338 266.14C96.9338 265.127 97.1404 264.24 97.5538 263.48C97.9671 262.72 98.5338 262.127 99.2538 261.7C99.9738 261.273 100.794 261.06 101.714 261.06C102.394 261.06 103 261.173 103.534 261.4C104.067 261.613 104.52 261.933 104.894 262.36C105.28 262.773 105.567 263.28 105.754 263.88C105.954 264.48 106.054 265.153 106.054 265.9C106.054 266.127 105.987 266.3 105.854 266.42C105.72 266.527 105.52 266.58 105.254 266.58H98.5338V265.34H104.694L104.354 265.62C104.354 264.953 104.254 264.387 104.054 263.92C103.867 263.453 103.58 263.1 103.194 262.86C102.82 262.607 102.354 262.48 101.794 262.48C101.167 262.48 100.634 262.627 100.194 262.92C99.7671 263.213 99.4404 263.62 99.2138 264.14C98.9871 264.66 98.8738 265.267 98.8738 265.96V266.08C98.8738 267.253 99.1471 268.14 99.6938 268.74C100.254 269.327 101.06 269.62 102.114 269.62C102.514 269.62 102.934 269.567 103.374 269.46C103.827 269.353 104.254 269.173 104.654 268.92C104.88 268.787 105.08 268.727 105.254 268.74C105.44 268.753 105.587 268.813 105.694 268.92C105.814 269.027 105.887 269.16 105.914 269.32C105.94 269.48 105.914 269.647 105.834 269.82C105.754 269.98 105.614 270.127 105.414 270.26C104.96 270.567 104.434 270.8 103.834 270.96C103.234 271.107 102.654 271.18 102.094 271.18ZM110.896 271.18C109.856 271.18 109.069 270.88 108.536 270.28C108.016 269.667 107.756 268.787 107.756 267.64V257.78C107.756 257.447 107.843 257.193 108.016 257.02C108.189 256.847 108.436 256.76 108.756 256.76C109.076 256.76 109.323 256.847 109.496 257.02C109.683 257.193 109.776 257.447 109.776 257.78V267.52C109.776 268.187 109.909 268.687 110.176 269.02C110.456 269.34 110.856 269.5 111.376 269.5C111.496 269.5 111.603 269.5 111.696 269.5C111.789 269.487 111.883 269.473 111.976 269.46C112.136 269.447 112.249 269.493 112.316 269.6C112.383 269.693 112.416 269.893 112.416 270.2C112.416 270.48 112.356 270.7 112.236 270.86C112.116 271.007 111.923 271.1 111.656 271.14C111.536 271.153 111.409 271.16 111.276 271.16C111.143 271.173 111.016 271.18 110.896 271.18Z" fill="white"/>
<path d="M182 252C182 247.582 185.582 244 190 244H214C218.418 244 222 247.582 222 252V276C222 280.418 218.418 284 214 284H190C185.582 284 182 280.418 182 276V252Z" fill="#2964A0"/>
<path d="M200.825 274C200.375 274 199.987 273.85 199.662 273.55C199.337 273.25 199.142 272.883 199.075 272.45L198.85 270.8C198.633 270.717 198.429 270.617 198.237 270.5C198.046 270.383 197.858 270.258 197.675 270.125L196.125 270.775C195.708 270.958 195.292 270.975 194.875 270.825C194.458 270.675 194.133 270.408 193.9 270.025L192.725 267.975C192.492 267.592 192.425 267.183 192.525 266.75C192.625 266.317 192.85 265.958 193.2 265.675L194.525 264.675C194.508 264.558 194.5 264.446 194.5 264.338V263.663C194.5 263.554 194.508 263.442 194.525 263.325L193.2 262.325C192.85 262.042 192.625 261.683 192.525 261.25C192.425 260.817 192.492 260.408 192.725 260.025L193.9 257.975C194.133 257.592 194.458 257.325 194.875 257.175C195.292 257.025 195.708 257.042 196.125 257.225L197.675 257.875C197.858 257.742 198.05 257.617 198.25 257.5C198.45 257.383 198.65 257.283 198.85 257.2L199.075 255.55C199.142 255.117 199.337 254.75 199.662 254.45C199.987 254.15 200.375 254 200.825 254H203.175C203.625 254 204.012 254.15 204.337 254.45C204.662 254.75 204.858 255.117 204.925 255.55L205.15 257.2C205.367 257.283 205.571 257.383 205.762 257.5C205.954 257.617 206.142 257.742 206.325 257.875L207.875 257.225C208.292 257.042 208.708 257.025 209.125 257.175C209.542 257.325 209.867 257.592 210.1 257.975L211.275 260.025C211.508 260.408 211.575 260.817 211.475 261.25C211.375 261.683 211.15 262.042 210.8 262.325L209.475 263.325C209.492 263.442 209.5 263.554 209.5 263.663V264.338C209.5 264.446 209.483 264.558 209.45 264.675L210.775 265.675C211.125 265.958 211.35 266.317 211.45 266.75C211.55 267.183 211.483 267.592 211.25 267.975L210.05 270.025C209.817 270.408 209.492 270.675 209.075 270.825C208.658 270.975 208.242 270.958 207.825 270.775L206.325 270.125C206.142 270.258 205.95 270.383 205.75 270.5C205.55 270.617 205.35 270.717 205.15 270.8L204.925 272.45C204.858 272.883 204.662 273.25 204.337 273.55C204.012 273.85 203.625 274 203.175 274H200.825ZM201 272H202.975L203.325 269.35C203.842 269.217 204.321 269.021 204.762 268.762C205.204 268.504 205.608 268.192 205.975 267.825L208.45 268.85L209.425 267.15L207.275 265.525C207.358 265.292 207.417 265.046 207.45 264.788C207.483 264.529 207.5 264.267 207.5 264C207.5 263.733 207.483 263.471 207.45 263.213C207.417 262.954 207.358 262.708 207.275 262.475L209.425 260.85L208.45 259.15L205.975 260.2C205.608 259.817 205.204 259.496 204.762 259.238C204.321 258.979 203.842 258.783 203.325 258.65L203 256H201.025L200.675 258.65C200.158 258.783 199.679 258.979 199.237 259.238C198.796 259.496 198.392 259.808 198.025 260.175L195.55 259.15L194.575 260.85L196.725 262.45C196.642 262.7 196.583 262.95 196.55 263.2C196.517 263.45 196.5 263.717 196.5 264C196.5 264.267 196.517 264.525 196.55 264.775C196.583 265.025 196.642 265.275 196.725 265.525L194.575 267.15L195.55 268.85L198.025 267.8C198.392 268.183 198.796 268.504 199.237 268.762C199.679 269.021 200.158 269.217 200.675 269.35L201 272ZM202.05 267.5C203.017 267.5 203.842 267.158 204.525 266.475C205.208 265.792 205.55 264.967 205.55 264C205.55 263.033 205.208 262.208 204.525 261.525C203.842 260.842 203.017 260.5 202.05 260.5C201.067 260.5 200.237 260.842 199.562 261.525C198.887 262.208 198.55 263.033 198.55 264C198.55 264.967 198.887 265.792 199.562 266.475C200.237 267.158 201.067 267.5 202.05 267.5Z" fill="white"/>
<defs>
<clipPath id="clip0_841_14463">
<rect width="105" height="40" fill="white" transform="translate(40 16)"/>
</clipPath>
<clipPath id="clip1_841_14463">
<rect width="146" height="40" fill="white" transform="translate(40 92)"/>
</clipPath>
</defs>
</svg>
