<svg width="712" height="710" viewBox="0 0 712 710" fill="none" xmlns="http://www.w3.org/2000/svg">
<g clip-path="url(#clip0_968_10611)">
<path d="M0 8C0 3.58172 3.58172 0 8 0H704C708.418 0 712 3.58172 712 8V702C712 706.418 708.418 710 704 710H8C3.58172 710 0 706.418 0 702V8Z" fill="white"/>
<path d="M19.2744 21V12.6738H16.3008V10.9785H24.2646V12.6738H21.2979V21H19.2744ZM25.96 15.9551L24.2168 15.6406C24.4128 14.9388 24.75 14.4193 25.2285 14.082C25.707 13.7448 26.418 13.5762 27.3613 13.5762C28.2181 13.5762 28.8561 13.6787 29.2754 13.8838C29.6947 14.0843 29.9886 14.3418 30.1572 14.6562C30.3304 14.9661 30.417 15.5381 30.417 16.3721L30.3965 18.6143C30.3965 19.2523 30.4261 19.724 30.4854 20.0293C30.5492 20.3301 30.6654 20.6536 30.834 21H28.9336C28.8835 20.8724 28.8219 20.6833 28.749 20.4326C28.7171 20.3187 28.6943 20.2435 28.6807 20.207C28.3525 20.526 28.0016 20.7653 27.6279 20.9248C27.2542 21.0843 26.8555 21.1641 26.4316 21.1641C25.6842 21.1641 25.0941 20.9613 24.6611 20.5557C24.2327 20.1501 24.0186 19.6374 24.0186 19.0176C24.0186 18.6074 24.1165 18.2428 24.3125 17.9238C24.5085 17.6003 24.7819 17.3542 25.1328 17.1855C25.4883 17.0124 25.9987 16.862 26.6641 16.7344C27.5618 16.5658 28.1839 16.4085 28.5303 16.2627V16.0713C28.5303 15.7021 28.4391 15.4401 28.2568 15.2852C28.0745 15.1257 27.7305 15.0459 27.2246 15.0459C26.8828 15.0459 26.6162 15.1143 26.4248 15.251C26.2334 15.3831 26.0785 15.6178 25.96 15.9551ZM28.5303 17.5137C28.2842 17.5957 27.8945 17.6937 27.3613 17.8076C26.8281 17.9215 26.4795 18.0332 26.3154 18.1426C26.0648 18.3203 25.9395 18.5459 25.9395 18.8193C25.9395 19.0882 26.0397 19.3206 26.2402 19.5166C26.4408 19.7126 26.696 19.8105 27.0059 19.8105C27.3522 19.8105 27.6826 19.6966 27.9971 19.4688C28.2295 19.2956 28.3822 19.0837 28.4551 18.833C28.5052 18.6689 28.5303 18.3568 28.5303 17.8965V17.5137ZM32.3174 12.7559V10.9785H34.2383V12.7559H32.3174ZM32.3174 21V13.7402H34.2383V21H32.3174ZM36.2139 21V10.9785H38.1348V21H36.2139ZM40.1104 21V10.9785H42.0312V21H40.1104ZM48.2109 18.6895L50.125 19.0107C49.8789 19.7126 49.4893 20.248 48.9561 20.6172C48.4274 20.9818 47.7643 21.1641 46.9668 21.1641C45.7044 21.1641 44.7702 20.7516 44.1641 19.9268C43.6855 19.266 43.4463 18.432 43.4463 17.4248C43.4463 16.2217 43.7607 15.2806 44.3896 14.6016C45.0186 13.918 45.8138 13.5762 46.7754 13.5762C47.8555 13.5762 48.7077 13.9339 49.332 14.6494C49.9564 15.3604 50.2549 16.4518 50.2275 17.9238H45.415C45.4287 18.4935 45.5837 18.9378 45.8799 19.2568C46.1761 19.5713 46.5452 19.7285 46.9873 19.7285C47.2881 19.7285 47.541 19.6465 47.7461 19.4824C47.9512 19.3184 48.1061 19.054 48.2109 18.6895ZM48.3203 16.748C48.3066 16.1921 48.1631 15.7705 47.8896 15.4834C47.6162 15.1917 47.2835 15.0459 46.8916 15.0459C46.4723 15.0459 46.126 15.1986 45.8525 15.5039C45.5791 15.8092 45.4447 16.224 45.4492 16.748H48.3203ZM62.3545 21H60.5703V19.9336C60.2741 20.3483 59.9232 20.6582 59.5176 20.8633C59.1165 21.0638 58.7109 21.1641 58.3008 21.1641C57.4668 21.1641 56.7513 20.8291 56.1543 20.1592C55.5618 19.4847 55.2656 18.5459 55.2656 17.3428C55.2656 16.1123 55.555 15.1781 56.1338 14.54C56.7126 13.8975 57.444 13.5762 58.3281 13.5762C59.1393 13.5762 59.8411 13.9134 60.4336 14.5879V10.9785H62.3545V21ZM57.2275 17.2129C57.2275 17.9876 57.3346 18.5482 57.5488 18.8945C57.8587 19.3958 58.2917 19.6465 58.8477 19.6465C59.2897 19.6465 59.6657 19.4596 59.9756 19.0859C60.2855 18.7077 60.4404 18.1449 60.4404 17.3975C60.4404 16.5635 60.29 15.9642 59.9893 15.5996C59.6885 15.2305 59.3034 15.0459 58.834 15.0459C58.3783 15.0459 57.9954 15.2282 57.6855 15.5928C57.3802 15.9528 57.2275 16.4928 57.2275 17.2129ZM68.459 18.6895L70.373 19.0107C70.127 19.7126 69.7373 20.248 69.2041 20.6172C68.6755 20.9818 68.0124 21.1641 67.2148 21.1641C65.9525 21.1641 65.0182 20.7516 64.4121 19.9268C63.9336 19.266 63.6943 18.432 63.6943 17.4248C63.6943 16.2217 64.0088 15.2806 64.6377 14.6016C65.2666 13.918 66.0618 13.5762 67.0234 13.5762C68.1035 13.5762 68.9557 13.9339 69.5801 14.6494C70.2044 15.3604 70.5029 16.4518 70.4756 17.9238H65.6631C65.6768 18.4935 65.8317 18.9378 66.1279 19.2568C66.4242 19.5713 66.7933 19.7285 67.2354 19.7285C67.5361 19.7285 67.7891 19.6465 67.9941 19.4824C68.1992 19.3184 68.3542 19.054 68.459 18.6895ZM68.5684 16.748C68.5547 16.1921 68.4111 15.7705 68.1377 15.4834C67.8643 15.1917 67.5316 15.0459 67.1396 15.0459C66.7204 15.0459 66.374 15.1986 66.1006 15.5039C65.8271 15.8092 65.6927 16.224 65.6973 16.748H68.5684ZM75.8896 13.7402H77.6807V14.8066C77.9131 14.4421 78.2275 14.1458 78.624 13.918C79.0205 13.6901 79.4603 13.5762 79.9434 13.5762C80.7865 13.5762 81.502 13.9066 82.0898 14.5674C82.6777 15.2282 82.9717 16.1488 82.9717 17.3291C82.9717 18.5413 82.6755 19.4847 82.083 20.1592C81.4906 20.8291 80.7728 21.1641 79.9297 21.1641C79.5286 21.1641 79.1641 21.0843 78.8359 20.9248C78.5124 20.7653 78.1706 20.4919 77.8105 20.1045V23.7617H75.8896V13.7402ZM77.79 17.2471C77.79 18.0628 77.9518 18.6667 78.2754 19.0586C78.599 19.446 78.9932 19.6396 79.458 19.6396C79.9046 19.6396 80.276 19.4619 80.5723 19.1064C80.8685 18.7464 81.0166 18.1585 81.0166 17.3428C81.0166 16.5817 80.8639 16.0166 80.5586 15.6475C80.2533 15.2783 79.875 15.0938 79.4238 15.0938C78.9544 15.0938 78.5648 15.276 78.2549 15.6406C77.945 16.0007 77.79 16.5361 77.79 17.2471ZM84.0586 17.2676C84.0586 16.6296 84.2158 16.012 84.5303 15.415C84.8447 14.818 85.2891 14.3623 85.8633 14.0479C86.4421 13.7334 87.0869 13.5762 87.7979 13.5762C88.8962 13.5762 89.7962 13.9339 90.498 14.6494C91.1999 15.3604 91.5508 16.2604 91.5508 17.3496C91.5508 18.4479 91.1953 19.3594 90.4844 20.084C89.778 20.804 88.887 21.1641 87.8115 21.1641C87.1462 21.1641 86.5104 21.0137 85.9043 20.7129C85.3027 20.4121 84.8447 19.9723 84.5303 19.3936C84.2158 18.8102 84.0586 18.1016 84.0586 17.2676ZM86.0273 17.3701C86.0273 18.0902 86.1982 18.6416 86.54 19.0244C86.8818 19.4072 87.3034 19.5986 87.8047 19.5986C88.306 19.5986 88.7253 19.4072 89.0625 19.0244C89.4043 18.6416 89.5752 18.0856 89.5752 17.3564C89.5752 16.6455 89.4043 16.0986 89.0625 15.7158C88.7253 15.333 88.306 15.1416 87.8047 15.1416C87.3034 15.1416 86.8818 15.333 86.54 15.7158C86.1982 16.0986 86.0273 16.6501 86.0273 17.3701ZM93.0615 21V10.9785H94.9824V21H93.0615ZM96.958 12.7559V10.9785H98.8789V12.7559H96.958ZM96.958 21V13.7402H98.8789V21H96.958ZM107.185 15.8867L105.291 16.2285C105.227 15.8503 105.081 15.5654 104.854 15.374C104.63 15.1826 104.339 15.0869 103.979 15.0869C103.5 15.0869 103.117 15.2533 102.83 15.5859C102.548 15.9141 102.406 16.4655 102.406 17.2402C102.406 18.1016 102.55 18.71 102.837 19.0654C103.129 19.4209 103.518 19.5986 104.006 19.5986C104.37 19.5986 104.669 19.4961 104.901 19.291C105.134 19.0814 105.298 18.7236 105.394 18.2178L107.28 18.5391C107.084 19.4049 106.708 20.0589 106.152 20.501C105.596 20.943 104.851 21.1641 103.917 21.1641C102.855 21.1641 102.007 20.8291 101.374 20.1592C100.745 19.4893 100.431 18.5618 100.431 17.377C100.431 16.1784 100.747 15.2464 101.381 14.5811C102.014 13.9111 102.871 13.5762 103.951 13.5762C104.835 13.5762 105.537 13.7676 106.057 14.1504C106.581 14.5286 106.957 15.1074 107.185 15.8867ZM112.852 18.6895L114.766 19.0107C114.52 19.7126 114.13 20.248 113.597 20.6172C113.068 20.9818 112.405 21.1641 111.607 21.1641C110.345 21.1641 109.411 20.7516 108.805 19.9268C108.326 19.266 108.087 18.432 108.087 17.4248C108.087 16.2217 108.401 15.2806 109.03 14.6016C109.659 13.918 110.454 13.5762 111.416 13.5762C112.496 13.5762 113.348 13.9339 113.973 14.6494C114.597 15.3604 114.896 16.4518 114.868 17.9238H110.056C110.069 18.4935 110.224 18.9378 110.521 19.2568C110.817 19.5713 111.186 19.7285 111.628 19.7285C111.929 19.7285 112.182 19.6465 112.387 19.4824C112.592 19.3184 112.747 19.054 112.852 18.6895ZM112.961 16.748C112.947 16.1921 112.804 15.7705 112.53 15.4834C112.257 15.1917 111.924 15.0459 111.532 15.0459C111.113 15.0459 110.767 15.1986 110.493 15.5039C110.22 15.8092 110.085 16.224 110.09 16.748H112.961Z" fill="#201F1F"/>
<path d="M0 33H356V34H0V33Z" fill="#CDCCCB"/>
<path d="M375.575 21L371.993 10.9785H374.188L376.724 18.3955L379.178 10.9785H381.324L377.735 21H375.575ZM382.999 15.9551L381.256 15.6406C381.452 14.9388 381.789 14.4193 382.268 14.082C382.746 13.7448 383.457 13.5762 384.4 13.5762C385.257 13.5762 385.895 13.6787 386.314 13.8838C386.734 14.0843 387.028 14.3418 387.196 14.6562C387.369 14.9661 387.456 15.5381 387.456 16.3721L387.436 18.6143C387.436 19.2523 387.465 19.724 387.524 20.0293C387.588 20.3301 387.704 20.6536 387.873 21H385.973C385.923 20.8724 385.861 20.6833 385.788 20.4326C385.756 20.3187 385.733 20.2435 385.72 20.207C385.392 20.526 385.041 20.7653 384.667 20.9248C384.293 21.0843 383.895 21.1641 383.471 21.1641C382.723 21.1641 382.133 20.9613 381.7 20.5557C381.272 20.1501 381.058 19.6374 381.058 19.0176C381.058 18.6074 381.156 18.2428 381.352 17.9238C381.548 17.6003 381.821 17.3542 382.172 17.1855C382.527 17.0124 383.038 16.862 383.703 16.7344C384.601 16.5658 385.223 16.4085 385.569 16.2627V16.0713C385.569 15.7021 385.478 15.4401 385.296 15.2852C385.114 15.1257 384.77 15.0459 384.264 15.0459C383.922 15.0459 383.655 15.1143 383.464 15.251C383.272 15.3831 383.118 15.6178 382.999 15.9551ZM385.569 17.5137C385.323 17.5957 384.934 17.6937 384.4 17.8076C383.867 17.9215 383.519 18.0332 383.354 18.1426C383.104 18.3203 382.979 18.5459 382.979 18.8193C382.979 19.0882 383.079 19.3206 383.279 19.5166C383.48 19.7126 383.735 19.8105 384.045 19.8105C384.391 19.8105 384.722 19.6966 385.036 19.4688C385.269 19.2956 385.421 19.0837 385.494 18.833C385.544 18.6689 385.569 18.3568 385.569 17.8965V17.5137ZM389.356 21V10.9785H391.277V21H389.356ZM397.457 18.6895L399.371 19.0107C399.125 19.7126 398.735 20.248 398.202 20.6172C397.674 20.9818 397.01 21.1641 396.213 21.1641C394.951 21.1641 394.016 20.7516 393.41 19.9268C392.932 19.266 392.692 18.432 392.692 17.4248C392.692 16.2217 393.007 15.2806 393.636 14.6016C394.265 13.918 395.06 13.5762 396.021 13.5762C397.102 13.5762 397.954 13.9339 398.578 14.6494C399.202 15.3604 399.501 16.4518 399.474 17.9238H394.661C394.675 18.4935 394.83 18.9378 395.126 19.2568C395.422 19.5713 395.791 19.7285 396.233 19.7285C396.534 19.7285 396.787 19.6465 396.992 19.4824C397.197 19.3184 397.352 19.054 397.457 18.6895ZM397.566 16.748C397.553 16.1921 397.409 15.7705 397.136 15.4834C396.862 15.1917 396.53 15.0459 396.138 15.0459C395.718 15.0459 395.372 15.1986 395.099 15.5039C394.825 15.8092 394.691 16.224 394.695 16.748H397.566ZM405.824 21V19.9131C405.56 20.3005 405.211 20.6058 404.778 20.8291C404.35 21.0524 403.896 21.1641 403.418 21.1641C402.93 21.1641 402.493 21.057 402.105 20.8428C401.718 20.6286 401.438 20.3278 401.265 19.9404C401.091 19.5531 401.005 19.0176 401.005 18.334V13.7402H402.926V17.0762C402.926 18.097 402.96 18.7236 403.028 18.9561C403.101 19.1839 403.231 19.3662 403.418 19.5029C403.605 19.6351 403.842 19.7012 404.129 19.7012C404.457 19.7012 404.751 19.6123 405.011 19.4346C405.271 19.2523 405.448 19.029 405.544 18.7646C405.64 18.4958 405.688 17.8418 405.688 16.8027V13.7402H407.608V21H405.824ZM411.443 21H409.522V13.7402H411.307V14.7725C411.612 14.2848 411.885 13.9635 412.127 13.8086C412.373 13.6536 412.651 13.5762 412.961 13.5762C413.398 13.5762 413.82 13.6969 414.226 13.9385L413.631 15.6133C413.307 15.4036 413.007 15.2988 412.729 15.2988C412.46 15.2988 412.232 15.374 412.045 15.5244C411.858 15.6702 411.71 15.9368 411.601 16.3242C411.496 16.7116 411.443 17.5228 411.443 18.7578V21Z" fill="#201F1F"/>
<path d="M356 33H712V34H356V33Z" fill="#CDCCCB"/>
<path d="M16.6289 61.7803L17.8799 61.6709C17.9391 62.1722 18.0758 62.5846 18.29 62.9082C18.5088 63.2272 18.846 63.487 19.3018 63.6875C19.7575 63.8835 20.2702 63.9814 20.8398 63.9814C21.3457 63.9814 21.7923 63.9062 22.1797 63.7559C22.5671 63.6055 22.8542 63.4004 23.041 63.1406C23.2324 62.8763 23.3281 62.5892 23.3281 62.2793C23.3281 61.9648 23.237 61.6914 23.0547 61.459C22.8724 61.222 22.5716 61.0238 22.1523 60.8643C21.8835 60.7594 21.2887 60.5977 20.3682 60.3789C19.4476 60.1556 18.8027 59.946 18.4336 59.75C17.9551 59.4993 17.5973 59.1895 17.3604 58.8203C17.1279 58.4466 17.0117 58.0296 17.0117 57.5693C17.0117 57.0635 17.1553 56.5918 17.4424 56.1543C17.7295 55.7122 18.1488 55.3773 18.7002 55.1494C19.2516 54.9215 19.8646 54.8076 20.5391 54.8076C21.2819 54.8076 21.9359 54.9284 22.501 55.1699C23.0706 55.4069 23.5081 55.7578 23.8135 56.2227C24.1188 56.6875 24.2829 57.2139 24.3057 57.8018L23.0342 57.8975C22.9658 57.264 22.7334 56.7855 22.3369 56.4619C21.945 56.1383 21.3639 55.9766 20.5938 55.9766C19.7917 55.9766 19.2061 56.1247 18.8369 56.4209C18.4723 56.7126 18.29 57.0658 18.29 57.4805C18.29 57.8405 18.4199 58.1367 18.6797 58.3691C18.9349 58.6016 19.6003 58.8408 20.6758 59.0869C21.7559 59.3285 22.4964 59.5404 22.8975 59.7227C23.4808 59.9915 23.9115 60.3333 24.1895 60.748C24.4674 61.1582 24.6064 61.6322 24.6064 62.1699C24.6064 62.7031 24.4538 63.2067 24.1484 63.6807C23.8431 64.1501 23.4033 64.5169 22.8291 64.7812C22.2594 65.041 21.6169 65.1709 20.9014 65.1709C19.9945 65.1709 19.2334 65.0387 18.6182 64.7744C18.0075 64.5101 17.5267 64.1136 17.1758 63.585C16.8294 63.0518 16.6471 62.4502 16.6289 61.7803Z" fill="#3E3E3D"/>
<path d="M0 85H356V86H0V85Z" fill="#CDCCCB"/>
<path d="M377.216 65H375.985V57.1592C375.689 57.4417 375.299 57.7243 374.816 58.0068C374.338 58.2894 373.907 58.5013 373.524 58.6426V57.4531C374.213 57.1296 374.814 56.7376 375.329 56.2773C375.844 55.8171 376.209 55.3704 376.423 54.9375H377.216V65ZM380.374 60.0576C380.374 58.8727 380.495 57.9202 380.736 57.2002C380.982 56.4756 381.345 55.9173 381.823 55.5254C382.306 55.1335 382.912 54.9375 383.642 54.9375C384.179 54.9375 384.651 55.0469 385.057 55.2656C385.462 55.4798 385.797 55.792 386.062 56.2021C386.326 56.6077 386.533 57.1045 386.684 57.6924C386.834 58.2757 386.909 59.0641 386.909 60.0576C386.909 61.2334 386.788 62.1836 386.547 62.9082C386.305 63.6283 385.943 64.1865 385.46 64.583C384.981 64.9749 384.375 65.1709 383.642 65.1709C382.675 65.1709 381.917 64.8245 381.365 64.1318C380.704 63.2979 380.374 61.9398 380.374 60.0576ZM381.639 60.0576C381.639 61.7028 381.83 62.7988 382.213 63.3457C382.6 63.888 383.076 64.1592 383.642 64.1592C384.207 64.1592 384.681 63.8857 385.063 63.3389C385.451 62.792 385.645 61.6982 385.645 60.0576C385.645 58.4079 385.451 57.3118 385.063 56.7695C384.681 56.2272 384.202 55.9561 383.628 55.9561C383.063 55.9561 382.612 56.1953 382.274 56.6738C381.851 57.2845 381.639 58.4124 381.639 60.0576Z" fill="#3E3E3D"/>
<path d="M356 85H712V86H356V85Z" fill="#CDCCCB"/>
<path d="M17.0391 117V106.979H19.0352L21.4072 114.074C21.626 114.735 21.7855 115.229 21.8857 115.558C21.9997 115.193 22.1774 114.658 22.4189 113.951L24.8184 106.979H26.6025V117H25.3242V108.612L22.4121 117H21.2158L18.3174 108.469V117H17.0391Z" fill="#3E3E3D"/>
<path d="M0 137H356V138H0V137Z" fill="#CDCCCB"/>
<path d="M377.216 117H375.985V109.159C375.689 109.442 375.299 109.724 374.816 110.007C374.338 110.289 373.907 110.501 373.524 110.643V109.453C374.213 109.13 374.814 108.738 375.329 108.277C375.844 107.817 376.209 107.37 376.423 106.938H377.216V117ZM386.841 115.817V117H380.217C380.208 116.704 380.256 116.419 380.36 116.146C380.529 115.694 380.798 115.25 381.167 114.812C381.541 114.375 382.078 113.869 382.78 113.295C383.869 112.402 384.605 111.695 384.988 111.176C385.371 110.652 385.562 110.157 385.562 109.692C385.562 109.205 385.387 108.795 385.036 108.462C384.69 108.125 384.236 107.956 383.676 107.956C383.083 107.956 382.609 108.134 382.254 108.489C381.898 108.845 381.718 109.337 381.714 109.966L380.449 109.836C380.536 108.893 380.862 108.175 381.427 107.683C381.992 107.186 382.751 106.938 383.703 106.938C384.665 106.938 385.426 107.204 385.986 107.737C386.547 108.271 386.827 108.931 386.827 109.72C386.827 110.121 386.745 110.515 386.581 110.902C386.417 111.29 386.144 111.698 385.761 112.126C385.382 112.554 384.751 113.142 383.867 113.89C383.129 114.509 382.655 114.931 382.445 115.154C382.236 115.373 382.062 115.594 381.926 115.817H386.841Z" fill="#3E3E3D"/>
<path d="M356 137H712V138H356V137Z" fill="#CDCCCB"/>
<path d="M17.0254 169V158.979H18.3516V167.817H23.2871V169H17.0254Z" fill="#3E3E3D"/>
<path d="M0 189H356V190H0V189Z" fill="#CDCCCB"/>
<path d="M377.216 169H375.985V161.159C375.689 161.442 375.299 161.724 374.816 162.007C374.338 162.289 373.907 162.501 373.524 162.643V161.453C374.213 161.13 374.814 160.738 375.329 160.277C375.844 159.817 376.209 159.37 376.423 158.938H377.216V169ZM384.318 169V166.601H379.971V165.473L384.544 158.979H385.549V165.473H386.902V166.601H385.549V169H384.318ZM384.318 165.473V160.954L381.181 165.473H384.318Z" fill="#3E3E3D"/>
<path d="M356 189H712V190H356V189Z" fill="#CDCCCB"/>
<path d="M16.0615 221L19.9375 215.777L16.5195 210.979H18.0986L19.917 213.549C20.2952 214.082 20.5641 214.492 20.7236 214.779C20.9469 214.415 21.2113 214.034 21.5166 213.638L23.5332 210.979H24.9756L21.4551 215.702L25.249 221H23.6084L21.0859 217.425C20.9447 217.22 20.7988 216.996 20.6484 216.755C20.4251 217.119 20.2656 217.37 20.1699 217.507L17.6543 221H16.0615ZM26.3633 221V210.979H27.6895V219.817H32.625V221H26.3633Z" fill="#3E3E3D"/>
<path d="M0 241H356V242H0V241Z" fill="#CDCCCB"/>
<path d="M377.216 221H375.985V213.159C375.689 213.442 375.299 213.724 374.816 214.007C374.338 214.289 373.907 214.501 373.524 214.643V213.453C374.213 213.13 374.814 212.738 375.329 212.277C375.844 211.817 376.209 211.37 376.423 210.938H377.216V221ZM386.759 213.433L385.535 213.528C385.426 213.045 385.271 212.694 385.07 212.476C384.738 212.125 384.327 211.949 383.84 211.949C383.448 211.949 383.104 212.059 382.808 212.277C382.42 212.56 382.115 212.972 381.892 213.515C381.668 214.057 381.552 214.829 381.543 215.832C381.839 215.381 382.201 215.046 382.63 214.827C383.058 214.608 383.507 214.499 383.977 214.499C384.797 214.499 385.494 214.802 386.068 215.408C386.647 216.01 386.937 216.789 386.937 217.746C386.937 218.375 386.8 218.961 386.526 219.503C386.257 220.041 385.886 220.453 385.412 220.74C384.938 221.027 384.4 221.171 383.799 221.171C382.773 221.171 381.937 220.795 381.29 220.043C380.643 219.286 380.319 218.042 380.319 216.311C380.319 214.374 380.677 212.965 381.393 212.086C382.017 211.32 382.858 210.938 383.915 210.938C384.703 210.938 385.348 211.159 385.85 211.601C386.355 212.043 386.659 212.653 386.759 213.433ZM381.734 217.753C381.734 218.177 381.823 218.582 382.001 218.97C382.183 219.357 382.436 219.653 382.76 219.858C383.083 220.059 383.423 220.159 383.778 220.159C384.298 220.159 384.744 219.95 385.118 219.53C385.492 219.111 385.679 218.541 385.679 217.821C385.679 217.129 385.494 216.584 385.125 216.188C384.756 215.786 384.291 215.586 383.73 215.586C383.174 215.586 382.703 215.786 382.315 216.188C381.928 216.584 381.734 217.106 381.734 217.753Z" fill="#3E3E3D"/>
<path d="M356 241H712V242H356V241Z" fill="#CDCCCB"/>
<path d="M23.0479 271.817V273H16.4238C16.4147 272.704 16.4626 272.419 16.5674 272.146C16.736 271.694 17.0049 271.25 17.374 270.812C17.7477 270.375 18.2855 269.869 18.9873 269.295C20.0765 268.402 20.8125 267.695 21.1953 267.176C21.5781 266.652 21.7695 266.157 21.7695 265.692C21.7695 265.205 21.5941 264.795 21.2432 264.462C20.8968 264.125 20.4434 263.956 19.8828 263.956C19.2904 263.956 18.8164 264.134 18.4609 264.489C18.1055 264.845 17.9255 265.337 17.9209 265.966L16.6562 265.836C16.7428 264.893 17.0687 264.175 17.6338 263.683C18.1989 263.186 18.9577 262.938 19.9102 262.938C20.8717 262.938 21.6328 263.204 22.1934 263.737C22.7539 264.271 23.0342 264.931 23.0342 265.72C23.0342 266.121 22.9521 266.515 22.7881 266.902C22.624 267.29 22.3506 267.698 21.9678 268.126C21.5895 268.554 20.9583 269.142 20.0742 269.89C19.3359 270.509 18.862 270.931 18.6523 271.154C18.4427 271.373 18.2695 271.594 18.1328 271.817H23.0479ZM23.8545 273L27.7305 267.777L24.3125 262.979H25.8916L27.71 265.549C28.0882 266.082 28.3571 266.492 28.5166 266.779C28.7399 266.415 29.0042 266.034 29.3096 265.638L31.3262 262.979H32.7686L29.248 267.702L33.042 273H31.4014L28.8789 269.425C28.7376 269.22 28.5918 268.996 28.4414 268.755C28.2181 269.119 28.0586 269.37 27.9629 269.507L25.4473 273H23.8545ZM34.1562 273V262.979H35.4824V271.817H40.418V273H34.1562Z" fill="#3E3E3D"/>
<path d="M0 293H356V294H0V293Z" fill="#CDCCCB"/>
<path d="M379.048 271.817V273H372.424C372.415 272.704 372.463 272.419 372.567 272.146C372.736 271.694 373.005 271.25 373.374 270.812C373.748 270.375 374.285 269.869 374.987 269.295C376.076 268.402 376.812 267.695 377.195 267.176C377.578 266.652 377.77 266.157 377.77 265.692C377.77 265.205 377.594 264.795 377.243 264.462C376.897 264.125 376.443 263.956 375.883 263.956C375.29 263.956 374.816 264.134 374.461 264.489C374.105 264.845 373.925 265.337 373.921 265.966L372.656 265.836C372.743 264.893 373.069 264.175 373.634 263.683C374.199 263.186 374.958 262.938 375.91 262.938C376.872 262.938 377.633 263.204 378.193 263.737C378.754 264.271 379.034 264.931 379.034 265.72C379.034 266.121 378.952 266.515 378.788 266.902C378.624 267.29 378.351 267.698 377.968 268.126C377.59 268.554 376.958 269.142 376.074 269.89C375.336 270.509 374.862 270.931 374.652 271.154C374.443 271.373 374.27 271.594 374.133 271.817H379.048ZM380.374 268.058C380.374 266.873 380.495 265.92 380.736 265.2C380.982 264.476 381.345 263.917 381.823 263.525C382.306 263.133 382.912 262.938 383.642 262.938C384.179 262.938 384.651 263.047 385.057 263.266C385.462 263.48 385.797 263.792 386.062 264.202C386.326 264.608 386.533 265.104 386.684 265.692C386.834 266.276 386.909 267.064 386.909 268.058C386.909 269.233 386.788 270.184 386.547 270.908C386.305 271.628 385.943 272.187 385.46 272.583C384.981 272.975 384.375 273.171 383.642 273.171C382.675 273.171 381.917 272.825 381.365 272.132C380.704 271.298 380.374 269.94 380.374 268.058ZM381.639 268.058C381.639 269.703 381.83 270.799 382.213 271.346C382.6 271.888 383.076 272.159 383.642 272.159C384.207 272.159 384.681 271.886 385.063 271.339C385.451 270.792 385.645 269.698 385.645 268.058C385.645 266.408 385.451 265.312 385.063 264.77C384.681 264.227 384.202 263.956 383.628 263.956C383.063 263.956 382.612 264.195 382.274 264.674C381.851 265.285 381.639 266.412 381.639 268.058Z" fill="#3E3E3D"/>
<path d="M356 293H712V294H356V293Z" fill="#CDCCCB"/>
<path d="M16.5879 322.354L17.8184 322.19C17.9596 322.888 18.1989 323.391 18.5361 323.701C18.8779 324.007 19.2926 324.159 19.7803 324.159C20.359 324.159 20.8467 323.959 21.2432 323.558C21.6442 323.157 21.8447 322.66 21.8447 322.067C21.8447 321.502 21.6602 321.037 21.291 320.673C20.9219 320.304 20.4525 320.119 19.8828 320.119C19.6504 320.119 19.361 320.165 19.0146 320.256L19.1514 319.176C19.2334 319.185 19.2995 319.189 19.3496 319.189C19.8737 319.189 20.3454 319.053 20.7646 318.779C21.1839 318.506 21.3936 318.084 21.3936 317.515C21.3936 317.063 21.2409 316.69 20.9355 316.394C20.6302 316.097 20.236 315.949 19.7529 315.949C19.2744 315.949 18.8757 316.1 18.5566 316.4C18.2376 316.701 18.0326 317.152 17.9414 317.754L16.7109 317.535C16.8613 316.71 17.2031 316.072 17.7363 315.621C18.2695 315.165 18.9326 314.938 19.7256 314.938C20.2725 314.938 20.776 315.056 21.2363 315.293C21.6966 315.525 22.0475 315.844 22.2891 316.25C22.5352 316.656 22.6582 317.086 22.6582 317.542C22.6582 317.975 22.542 318.369 22.3096 318.725C22.0771 319.08 21.7331 319.363 21.2773 319.572C21.8698 319.709 22.3301 319.994 22.6582 320.427C22.9863 320.855 23.1504 321.393 23.1504 322.04C23.1504 322.915 22.8314 323.658 22.1934 324.269C21.5553 324.875 20.7487 325.178 19.7734 325.178C18.8939 325.178 18.1624 324.916 17.5791 324.392C17.0003 323.868 16.6699 323.188 16.5879 322.354ZM23.8545 325L27.7305 319.777L24.3125 314.979H25.8916L27.71 317.549C28.0882 318.082 28.3571 318.492 28.5166 318.779C28.7399 318.415 29.0042 318.034 29.3096 317.638L31.3262 314.979H32.7686L29.248 319.702L33.042 325H31.4014L28.8789 321.425C28.7376 321.22 28.5918 320.996 28.4414 320.755C28.2181 321.119 28.0586 321.37 27.9629 321.507L25.4473 325H23.8545ZM34.1562 325V314.979H35.4824V323.817H40.418V325H34.1562Z" fill="#3E3E3D"/>
<path d="M0 345H356V346H0V345Z" fill="#CDCCCB"/>
<path d="M379.048 323.817V325H372.424C372.415 324.704 372.463 324.419 372.567 324.146C372.736 323.694 373.005 323.25 373.374 322.812C373.748 322.375 374.285 321.869 374.987 321.295C376.076 320.402 376.812 319.695 377.195 319.176C377.578 318.652 377.77 318.157 377.77 317.692C377.77 317.205 377.594 316.795 377.243 316.462C376.897 316.125 376.443 315.956 375.883 315.956C375.29 315.956 374.816 316.134 374.461 316.489C374.105 316.845 373.925 317.337 373.921 317.966L372.656 317.836C372.743 316.893 373.069 316.175 373.634 315.683C374.199 315.186 374.958 314.938 375.91 314.938C376.872 314.938 377.633 315.204 378.193 315.737C378.754 316.271 379.034 316.931 379.034 317.72C379.034 318.121 378.952 318.515 378.788 318.902C378.624 319.29 378.351 319.698 377.968 320.126C377.59 320.554 376.958 321.142 376.074 321.89C375.336 322.509 374.862 322.931 374.652 323.154C374.443 323.373 374.27 323.594 374.133 323.817H379.048ZM384.318 325V322.601H379.971V321.473L384.544 314.979H385.549V321.473H386.902V322.601H385.549V325H384.318ZM384.318 321.473V316.954L381.181 321.473H384.318Z" fill="#3E3E3D"/>
<path d="M356 345H712V346H356V345Z" fill="#CDCCCB"/>
<path d="M20.5254 377V374.601H16.1777V373.473L20.751 366.979H21.7559V373.473H23.1094V374.601H21.7559V377H20.5254ZM20.5254 373.473V368.954L17.3877 373.473H20.5254ZM23.8545 377L27.7305 371.777L24.3125 366.979H25.8916L27.71 369.549C28.0882 370.082 28.3571 370.492 28.5166 370.779C28.7399 370.415 29.0042 370.034 29.3096 369.638L31.3262 366.979H32.7686L29.248 371.702L33.042 377H31.4014L28.8789 373.425C28.7376 373.22 28.5918 372.996 28.4414 372.755C28.2181 373.119 28.0586 373.37 27.9629 373.507L25.4473 377H23.8545ZM34.1562 377V366.979H35.4824V375.817H40.418V377H34.1562Z" fill="#3E3E3D"/>
<path d="M0 397H356V398H0V397Z" fill="#CDCCCB"/>
<path d="M379.048 375.817V377H372.424C372.415 376.704 372.463 376.419 372.567 376.146C372.736 375.694 373.005 375.25 373.374 374.812C373.748 374.375 374.285 373.869 374.987 373.295C376.076 372.402 376.812 371.695 377.195 371.176C377.578 370.652 377.77 370.157 377.77 369.692C377.77 369.205 377.594 368.795 377.243 368.462C376.897 368.125 376.443 367.956 375.883 367.956C375.29 367.956 374.816 368.134 374.461 368.489C374.105 368.845 373.925 369.337 373.921 369.966L372.656 369.836C372.743 368.893 373.069 368.175 373.634 367.683C374.199 367.186 374.958 366.938 375.91 366.938C376.872 366.938 377.633 367.204 378.193 367.737C378.754 368.271 379.034 368.931 379.034 369.72C379.034 370.121 378.952 370.515 378.788 370.902C378.624 371.29 378.351 371.698 377.968 372.126C377.59 372.554 376.958 373.142 376.074 373.89C375.336 374.509 374.862 374.931 374.652 375.154C374.443 375.373 374.27 375.594 374.133 375.817H379.048ZM382.268 371.565C381.757 371.379 381.379 371.112 381.133 370.766C380.887 370.419 380.764 370.005 380.764 369.521C380.764 368.792 381.026 368.179 381.55 367.683C382.074 367.186 382.771 366.938 383.642 366.938C384.517 366.938 385.221 367.193 385.754 367.703C386.287 368.209 386.554 368.826 386.554 369.556C386.554 370.021 386.431 370.426 386.185 370.772C385.943 371.114 385.574 371.379 385.077 371.565C385.692 371.766 386.16 372.09 386.479 372.536C386.802 372.983 386.964 373.516 386.964 374.136C386.964 374.993 386.661 375.713 386.055 376.296C385.449 376.879 384.651 377.171 383.662 377.171C382.673 377.171 381.876 376.879 381.27 376.296C380.663 375.708 380.36 374.977 380.36 374.102C380.36 373.45 380.524 372.905 380.853 372.468C381.185 372.026 381.657 371.725 382.268 371.565ZM382.021 369.48C382.021 369.954 382.174 370.342 382.479 370.643C382.785 370.943 383.181 371.094 383.669 371.094C384.143 371.094 384.53 370.946 384.831 370.649C385.136 370.349 385.289 369.982 385.289 369.549C385.289 369.098 385.132 368.719 384.817 368.414C384.507 368.104 384.12 367.949 383.655 367.949C383.186 367.949 382.796 368.1 382.486 368.4C382.176 368.701 382.021 369.061 382.021 369.48ZM381.625 374.108C381.625 374.459 381.707 374.799 381.871 375.127C382.04 375.455 382.288 375.71 382.616 375.893C382.944 376.07 383.298 376.159 383.676 376.159C384.264 376.159 384.749 375.97 385.132 375.592C385.515 375.214 385.706 374.733 385.706 374.149C385.706 373.557 385.508 373.067 385.111 372.68C384.719 372.292 384.227 372.099 383.635 372.099C383.056 372.099 382.575 372.29 382.192 372.673C381.814 373.056 381.625 373.534 381.625 374.108Z" fill="#3E3E3D"/>
<path d="M356 397H712V398H356V397Z" fill="#CDCCCB"/>
<path d="M16.5811 426.375L17.873 426.266C17.9688 426.895 18.1898 427.368 18.5361 427.688C18.887 428.002 19.3086 428.159 19.8008 428.159C20.3932 428.159 20.8945 427.936 21.3047 427.489C21.7148 427.043 21.9199 426.45 21.9199 425.712C21.9199 425.01 21.7217 424.456 21.3252 424.051C20.9333 423.645 20.4183 423.442 19.7803 423.442C19.3838 423.442 19.026 423.534 18.707 423.716C18.388 423.894 18.1374 424.126 17.9551 424.413L16.7998 424.263L17.7705 419.115H22.7539V420.291H18.7549L18.2148 422.984C18.8164 422.565 19.4476 422.355 20.1084 422.355C20.9834 422.355 21.7217 422.659 22.3232 423.265C22.9248 423.871 23.2256 424.65 23.2256 425.603C23.2256 426.509 22.9613 427.293 22.4326 427.954C21.79 428.765 20.9128 429.171 19.8008 429.171C18.8893 429.171 18.1442 428.916 17.5654 428.405C16.9912 427.895 16.6631 427.218 16.5811 426.375ZM23.8545 429L27.7305 423.777L24.3125 418.979H25.8916L27.71 421.549C28.0882 422.082 28.3571 422.492 28.5166 422.779C28.7399 422.415 29.0042 422.034 29.3096 421.638L31.3262 418.979H32.7686L29.248 423.702L33.042 429H31.4014L28.8789 425.425C28.7376 425.22 28.5918 424.996 28.4414 424.755C28.2181 425.119 28.0586 425.37 27.9629 425.507L25.4473 429H23.8545ZM34.1562 429V418.979H35.4824V427.817H40.418V429H34.1562Z" fill="#3E3E3D"/>
<path d="M0 449H356V450H0V449Z" fill="#CDCCCB"/>
<path d="M372.588 426.354L373.818 426.19C373.96 426.888 374.199 427.391 374.536 427.701C374.878 428.007 375.293 428.159 375.78 428.159C376.359 428.159 376.847 427.959 377.243 427.558C377.644 427.157 377.845 426.66 377.845 426.067C377.845 425.502 377.66 425.037 377.291 424.673C376.922 424.304 376.452 424.119 375.883 424.119C375.65 424.119 375.361 424.165 375.015 424.256L375.151 423.176C375.233 423.185 375.299 423.189 375.35 423.189C375.874 423.189 376.345 423.053 376.765 422.779C377.184 422.506 377.394 422.084 377.394 421.515C377.394 421.063 377.241 420.69 376.936 420.394C376.63 420.097 376.236 419.949 375.753 419.949C375.274 419.949 374.876 420.1 374.557 420.4C374.238 420.701 374.033 421.152 373.941 421.754L372.711 421.535C372.861 420.71 373.203 420.072 373.736 419.621C374.27 419.165 374.933 418.938 375.726 418.938C376.272 418.938 376.776 419.056 377.236 419.293C377.697 419.525 378.048 419.844 378.289 420.25C378.535 420.656 378.658 421.086 378.658 421.542C378.658 421.975 378.542 422.369 378.31 422.725C378.077 423.08 377.733 423.363 377.277 423.572C377.87 423.709 378.33 423.994 378.658 424.427C378.986 424.855 379.15 425.393 379.15 426.04C379.15 426.915 378.831 427.658 378.193 428.269C377.555 428.875 376.749 429.178 375.773 429.178C374.894 429.178 374.162 428.916 373.579 428.392C373 427.868 372.67 427.188 372.588 426.354ZM386.841 427.817V429H380.217C380.208 428.704 380.256 428.419 380.36 428.146C380.529 427.694 380.798 427.25 381.167 426.812C381.541 426.375 382.078 425.869 382.78 425.295C383.869 424.402 384.605 423.695 384.988 423.176C385.371 422.652 385.562 422.157 385.562 421.692C385.562 421.205 385.387 420.795 385.036 420.462C384.69 420.125 384.236 419.956 383.676 419.956C383.083 419.956 382.609 420.134 382.254 420.489C381.898 420.845 381.718 421.337 381.714 421.966L380.449 421.836C380.536 420.893 380.862 420.175 381.427 419.683C381.992 419.186 382.751 418.938 383.703 418.938C384.665 418.938 385.426 419.204 385.986 419.737C386.547 420.271 386.827 420.931 386.827 421.72C386.827 422.121 386.745 422.515 386.581 422.902C386.417 423.29 386.144 423.698 385.761 424.126C385.382 424.554 384.751 425.142 383.867 425.89C383.129 426.509 382.655 426.931 382.445 427.154C382.236 427.373 382.062 427.594 381.926 427.817H386.841Z" fill="#3E3E3D"/>
<path d="M356 449H712V450H356V449Z" fill="#CDCCCB"/>
<path d="M22.9658 473.433L21.7422 473.528C21.6328 473.045 21.4779 472.694 21.2773 472.476C20.9447 472.125 20.5345 471.949 20.0469 471.949C19.6549 471.949 19.3109 472.059 19.0146 472.277C18.6273 472.56 18.3219 472.972 18.0986 473.515C17.8753 474.057 17.7591 474.829 17.75 475.832C18.0462 475.381 18.4085 475.046 18.8369 474.827C19.2653 474.608 19.7142 474.499 20.1836 474.499C21.0039 474.499 21.7012 474.802 22.2754 475.408C22.8542 476.01 23.1436 476.789 23.1436 477.746C23.1436 478.375 23.0068 478.961 22.7334 479.503C22.4645 480.041 22.0931 480.453 21.6191 480.74C21.1452 481.027 20.6074 481.171 20.0059 481.171C18.9805 481.171 18.1442 480.795 17.4971 480.043C16.8499 479.286 16.5264 478.042 16.5264 476.311C16.5264 474.374 16.8841 472.965 17.5996 472.086C18.224 471.32 19.0648 470.938 20.1221 470.938C20.9105 470.938 21.5553 471.159 22.0566 471.601C22.5625 472.043 22.8656 472.653 22.9658 473.433ZM17.9414 477.753C17.9414 478.177 18.0303 478.582 18.208 478.97C18.3903 479.357 18.6432 479.653 18.9668 479.858C19.2904 480.059 19.6299 480.159 19.9854 480.159C20.5049 480.159 20.9515 479.95 21.3252 479.53C21.6989 479.111 21.8857 478.541 21.8857 477.821C21.8857 477.129 21.7012 476.584 21.332 476.188C20.9629 475.786 20.498 475.586 19.9375 475.586C19.3815 475.586 18.9098 475.786 18.5225 476.188C18.1351 476.584 17.9414 477.106 17.9414 477.753ZM23.8545 481L27.7305 475.777L24.3125 470.979H25.8916L27.71 473.549C28.0882 474.082 28.3571 474.492 28.5166 474.779C28.7399 474.415 29.0042 474.034 29.3096 473.638L31.3262 470.979H32.7686L29.248 475.702L33.042 481H31.4014L28.8789 477.425C28.7376 477.22 28.5918 476.996 28.4414 476.755C28.2181 477.119 28.0586 477.37 27.9629 477.507L25.4473 481H23.8545ZM34.1562 481V470.979H35.4824V479.817H40.418V481H34.1562Z" fill="#3E3E3D"/>
<path d="M0 501H356V502H0V501Z" fill="#CDCCCB"/>
<path d="M376.525 481V478.601H372.178V477.473L376.751 470.979H377.756V477.473H379.109V478.601H377.756V481H376.525ZM376.525 477.473V472.954L373.388 477.473H376.525ZM380.374 476.058C380.374 474.873 380.495 473.92 380.736 473.2C380.982 472.476 381.345 471.917 381.823 471.525C382.306 471.133 382.912 470.938 383.642 470.938C384.179 470.938 384.651 471.047 385.057 471.266C385.462 471.48 385.797 471.792 386.062 472.202C386.326 472.608 386.533 473.104 386.684 473.692C386.834 474.276 386.909 475.064 386.909 476.058C386.909 477.233 386.788 478.184 386.547 478.908C386.305 479.628 385.943 480.187 385.46 480.583C384.981 480.975 384.375 481.171 383.642 481.171C382.675 481.171 381.917 480.825 381.365 480.132C380.704 479.298 380.374 477.94 380.374 476.058ZM381.639 476.058C381.639 477.703 381.83 478.799 382.213 479.346C382.6 479.888 383.076 480.159 383.642 480.159C384.207 480.159 384.681 479.886 385.063 479.339C385.451 478.792 385.645 477.698 385.645 476.058C385.645 474.408 385.451 473.312 385.063 472.77C384.681 472.227 384.202 471.956 383.628 471.956C383.063 471.956 382.612 472.195 382.274 472.674C381.851 473.285 381.639 474.412 381.639 476.058Z" fill="#3E3E3D"/>
<path d="M356 501H712V502H356V501Z" fill="#CDCCCB"/>
<path d="M16.6631 524.291V523.108H23.1504V524.065C22.5124 524.744 21.8789 525.647 21.25 526.772C20.6257 527.898 20.1426 529.056 19.8008 530.245C19.5547 531.084 19.3975 532.002 19.3291 533H18.0645C18.0781 532.212 18.2331 531.259 18.5293 530.143C18.8255 529.026 19.2493 527.951 19.8008 526.916C20.3568 525.877 20.9469 525.002 21.5713 524.291H16.6631ZM23.8545 533L27.7305 527.777L24.3125 522.979H25.8916L27.71 525.549C28.0882 526.082 28.3571 526.492 28.5166 526.779C28.7399 526.415 29.0042 526.034 29.3096 525.638L31.3262 522.979H32.7686L29.248 527.702L33.042 533H31.4014L28.8789 529.425C28.7376 529.22 28.5918 528.996 28.4414 528.755C28.2181 529.119 28.0586 529.37 27.9629 529.507L25.4473 533H23.8545ZM34.1562 533V522.979H35.4824V531.817H40.418V533H34.1562Z" fill="#3E3E3D"/>
<path d="M0 553H356V554H0V553Z" fill="#CDCCCB"/>
<path d="M376.525 533V530.601H372.178V529.473L376.751 522.979H377.756V529.473H379.109V530.601H377.756V533H376.525ZM376.525 529.473V524.954L373.388 529.473H376.525ZM382.268 527.565C381.757 527.379 381.379 527.112 381.133 526.766C380.887 526.419 380.764 526.005 380.764 525.521C380.764 524.792 381.026 524.179 381.55 523.683C382.074 523.186 382.771 522.938 383.642 522.938C384.517 522.938 385.221 523.193 385.754 523.703C386.287 524.209 386.554 524.826 386.554 525.556C386.554 526.021 386.431 526.426 386.185 526.772C385.943 527.114 385.574 527.379 385.077 527.565C385.692 527.766 386.16 528.09 386.479 528.536C386.802 528.983 386.964 529.516 386.964 530.136C386.964 530.993 386.661 531.713 386.055 532.296C385.449 532.879 384.651 533.171 383.662 533.171C382.673 533.171 381.876 532.879 381.27 532.296C380.663 531.708 380.36 530.977 380.36 530.102C380.36 529.45 380.524 528.905 380.853 528.468C381.185 528.026 381.657 527.725 382.268 527.565ZM382.021 525.48C382.021 525.954 382.174 526.342 382.479 526.643C382.785 526.943 383.181 527.094 383.669 527.094C384.143 527.094 384.53 526.946 384.831 526.649C385.136 526.349 385.289 525.982 385.289 525.549C385.289 525.098 385.132 524.719 384.817 524.414C384.507 524.104 384.12 523.949 383.655 523.949C383.186 523.949 382.796 524.1 382.486 524.4C382.176 524.701 382.021 525.061 382.021 525.48ZM381.625 530.108C381.625 530.459 381.707 530.799 381.871 531.127C382.04 531.455 382.288 531.71 382.616 531.893C382.944 532.07 383.298 532.159 383.676 532.159C384.264 532.159 384.749 531.97 385.132 531.592C385.515 531.214 385.706 530.733 385.706 530.149C385.706 529.557 385.508 529.067 385.111 528.68C384.719 528.292 384.227 528.099 383.635 528.099C383.056 528.099 382.575 528.29 382.192 528.673C381.814 529.056 381.625 529.534 381.625 530.108Z" fill="#3E3E3D"/>
<path d="M356 553H712V554H356V553Z" fill="#CDCCCB"/>
<path d="M18.4746 579.565C17.9642 579.379 17.5859 579.112 17.3398 578.766C17.0938 578.419 16.9707 578.005 16.9707 577.521C16.9707 576.792 17.2327 576.179 17.7568 575.683C18.2809 575.186 18.9782 574.938 19.8486 574.938C20.7236 574.938 21.4277 575.193 21.9609 575.703C22.4941 576.209 22.7607 576.826 22.7607 577.556C22.7607 578.021 22.6377 578.426 22.3916 578.772C22.1501 579.114 21.7809 579.379 21.2842 579.565C21.8994 579.766 22.3665 580.09 22.6855 580.536C23.0091 580.983 23.1709 581.516 23.1709 582.136C23.1709 582.993 22.8678 583.713 22.2617 584.296C21.6556 584.879 20.8581 585.171 19.8691 585.171C18.8802 585.171 18.0827 584.879 17.4766 584.296C16.8704 583.708 16.5674 582.977 16.5674 582.102C16.5674 581.45 16.7314 580.905 17.0596 580.468C17.3923 580.026 17.8639 579.725 18.4746 579.565ZM18.2285 577.48C18.2285 577.954 18.3812 578.342 18.6865 578.643C18.9919 578.943 19.3883 579.094 19.876 579.094C20.3499 579.094 20.7373 578.946 21.0381 578.649C21.3434 578.349 21.4961 577.982 21.4961 577.549C21.4961 577.098 21.3389 576.719 21.0244 576.414C20.7145 576.104 20.3271 575.949 19.8623 575.949C19.3929 575.949 19.0033 576.1 18.6934 576.4C18.3835 576.701 18.2285 577.061 18.2285 577.48ZM17.832 582.108C17.832 582.459 17.9141 582.799 18.0781 583.127C18.2467 583.455 18.4951 583.71 18.8232 583.893C19.1514 584.07 19.5046 584.159 19.8828 584.159C20.4707 584.159 20.9561 583.97 21.3389 583.592C21.7217 583.214 21.9131 582.733 21.9131 582.149C21.9131 581.557 21.7148 581.067 21.3184 580.68C20.9264 580.292 20.4342 580.099 19.8418 580.099C19.263 580.099 18.7822 580.29 18.3994 580.673C18.0212 581.056 17.832 581.534 17.832 582.108ZM23.8545 585L27.7305 579.777L24.3125 574.979H25.8916L27.71 577.549C28.0882 578.082 28.3571 578.492 28.5166 578.779C28.7399 578.415 29.0042 578.034 29.3096 577.638L31.3262 574.979H32.7686L29.248 579.702L33.042 585H31.4014L28.8789 581.425C28.7376 581.22 28.5918 580.996 28.4414 580.755C28.2181 581.119 28.0586 581.37 27.9629 581.507L25.4473 585H23.8545ZM34.1562 585V574.979H35.4824V583.817H40.418V585H34.1562Z" fill="#3E3E3D"/>
<path d="M0 605H356V606H0V605Z" fill="#CDCCCB"/>
<path d="M372.581 582.375L373.873 582.266C373.969 582.895 374.19 583.368 374.536 583.688C374.887 584.002 375.309 584.159 375.801 584.159C376.393 584.159 376.895 583.936 377.305 583.489C377.715 583.043 377.92 582.45 377.92 581.712C377.92 581.01 377.722 580.456 377.325 580.051C376.933 579.645 376.418 579.442 375.78 579.442C375.384 579.442 375.026 579.534 374.707 579.716C374.388 579.894 374.137 580.126 373.955 580.413L372.8 580.263L373.771 575.115H378.754V576.291H374.755L374.215 578.984C374.816 578.565 375.448 578.355 376.108 578.355C376.983 578.355 377.722 578.659 378.323 579.265C378.925 579.871 379.226 580.65 379.226 581.603C379.226 582.509 378.961 583.293 378.433 583.954C377.79 584.765 376.913 585.171 375.801 585.171C374.889 585.171 374.144 584.916 373.565 584.405C372.991 583.895 372.663 583.218 372.581 582.375ZM386.759 577.433L385.535 577.528C385.426 577.045 385.271 576.694 385.07 576.476C384.738 576.125 384.327 575.949 383.84 575.949C383.448 575.949 383.104 576.059 382.808 576.277C382.42 576.56 382.115 576.972 381.892 577.515C381.668 578.057 381.552 578.829 381.543 579.832C381.839 579.381 382.201 579.046 382.63 578.827C383.058 578.608 383.507 578.499 383.977 578.499C384.797 578.499 385.494 578.802 386.068 579.408C386.647 580.01 386.937 580.789 386.937 581.746C386.937 582.375 386.8 582.961 386.526 583.503C386.257 584.041 385.886 584.453 385.412 584.74C384.938 585.027 384.4 585.171 383.799 585.171C382.773 585.171 381.937 584.795 381.29 584.043C380.643 583.286 380.319 582.042 380.319 580.311C380.319 578.374 380.677 576.965 381.393 576.086C382.017 575.32 382.858 574.938 383.915 574.938C384.703 574.938 385.348 575.159 385.85 575.601C386.355 576.043 386.659 576.653 386.759 577.433ZM381.734 581.753C381.734 582.177 381.823 582.582 382.001 582.97C382.183 583.357 382.436 583.653 382.76 583.858C383.083 584.059 383.423 584.159 383.778 584.159C384.298 584.159 384.744 583.95 385.118 583.53C385.492 583.111 385.679 582.541 385.679 581.821C385.679 581.129 385.494 580.584 385.125 580.188C384.756 579.786 384.291 579.586 383.73 579.586C383.174 579.586 382.703 579.786 382.315 580.188C381.928 580.584 381.734 581.106 381.734 581.753Z" fill="#3E3E3D"/>
<path d="M356 605H712V606H356V605Z" fill="#CDCCCB"/>
<path d="M16.7656 634.683L17.9482 634.573C18.0485 635.129 18.2399 635.533 18.5225 635.783C18.805 636.034 19.1673 636.159 19.6094 636.159C19.9876 636.159 20.318 636.073 20.6006 635.899C20.8877 635.726 21.1224 635.496 21.3047 635.209C21.487 634.917 21.6396 634.525 21.7627 634.033C21.8857 633.541 21.9473 633.04 21.9473 632.529C21.9473 632.475 21.945 632.393 21.9404 632.283C21.6943 632.675 21.3571 632.994 20.9287 633.24C20.5049 633.482 20.0446 633.603 19.5479 633.603C18.7184 633.603 18.0166 633.302 17.4424 632.7C16.8682 632.099 16.5811 631.306 16.5811 630.321C16.5811 629.305 16.8796 628.487 17.4766 627.867C18.0781 627.247 18.8301 626.938 19.7324 626.938C20.3841 626.938 20.9788 627.113 21.5166 627.464C22.0589 627.815 22.4691 628.316 22.7471 628.968C23.0296 629.615 23.1709 630.554 23.1709 631.784C23.1709 633.065 23.0319 634.086 22.7539 634.847C22.4759 635.603 22.0612 636.18 21.5098 636.576C20.9629 636.973 20.3203 637.171 19.582 637.171C18.7982 637.171 18.1579 636.954 17.6611 636.521C17.1644 636.084 16.8659 635.471 16.7656 634.683ZM21.8037 630.26C21.8037 629.553 21.6146 628.993 21.2363 628.578C20.8626 628.163 20.4115 627.956 19.8828 627.956C19.3359 627.956 18.8597 628.179 18.4541 628.626C18.0485 629.073 17.8457 629.651 17.8457 630.362C17.8457 631 18.0371 631.52 18.4199 631.921C18.8073 632.317 19.2835 632.516 19.8486 632.516C20.4183 632.516 20.8854 632.317 21.25 631.921C21.6191 631.52 21.8037 630.966 21.8037 630.26ZM23.8545 637L27.7305 631.777L24.3125 626.979H25.8916L27.71 629.549C28.0882 630.082 28.3571 630.492 28.5166 630.779C28.7399 630.415 29.0042 630.034 29.3096 629.638L31.3262 626.979H32.7686L29.248 631.702L33.042 637H31.4014L28.8789 633.425C28.7376 633.22 28.5918 632.996 28.4414 632.755C28.2181 633.119 28.0586 633.37 27.9629 633.507L25.4473 637H23.8545ZM34.1562 637V626.979H35.4824V635.817H40.418V637H34.1562Z" fill="#3E3E3D"/>
<path d="M0 657H356V658H0V657Z" fill="#CDCCCB"/>
<path d="M378.966 629.433L377.742 629.528C377.633 629.045 377.478 628.694 377.277 628.476C376.945 628.125 376.535 627.949 376.047 627.949C375.655 627.949 375.311 628.059 375.015 628.277C374.627 628.56 374.322 628.972 374.099 629.515C373.875 630.057 373.759 630.829 373.75 631.832C374.046 631.381 374.409 631.046 374.837 630.827C375.265 630.608 375.714 630.499 376.184 630.499C377.004 630.499 377.701 630.802 378.275 631.408C378.854 632.01 379.144 632.789 379.144 633.746C379.144 634.375 379.007 634.961 378.733 635.503C378.465 636.041 378.093 636.453 377.619 636.74C377.145 637.027 376.607 637.171 376.006 637.171C374.98 637.171 374.144 636.795 373.497 636.043C372.85 635.286 372.526 634.042 372.526 632.311C372.526 630.374 372.884 628.965 373.6 628.086C374.224 627.32 375.065 626.938 376.122 626.938C376.91 626.938 377.555 627.159 378.057 627.601C378.562 628.043 378.866 628.653 378.966 629.433ZM373.941 633.753C373.941 634.177 374.03 634.582 374.208 634.97C374.39 635.357 374.643 635.653 374.967 635.858C375.29 636.059 375.63 636.159 375.985 636.159C376.505 636.159 376.951 635.95 377.325 635.53C377.699 635.111 377.886 634.541 377.886 633.821C377.886 633.129 377.701 632.584 377.332 632.188C376.963 631.786 376.498 631.586 375.938 631.586C375.382 631.586 374.91 631.786 374.522 632.188C374.135 632.584 373.941 633.106 373.941 633.753ZM382.268 631.565C381.757 631.379 381.379 631.112 381.133 630.766C380.887 630.419 380.764 630.005 380.764 629.521C380.764 628.792 381.026 628.179 381.55 627.683C382.074 627.186 382.771 626.938 383.642 626.938C384.517 626.938 385.221 627.193 385.754 627.703C386.287 628.209 386.554 628.826 386.554 629.556C386.554 630.021 386.431 630.426 386.185 630.772C385.943 631.114 385.574 631.379 385.077 631.565C385.692 631.766 386.16 632.09 386.479 632.536C386.802 632.983 386.964 633.516 386.964 634.136C386.964 634.993 386.661 635.713 386.055 636.296C385.449 636.879 384.651 637.171 383.662 637.171C382.673 637.171 381.876 636.879 381.27 636.296C380.663 635.708 380.36 634.977 380.36 634.102C380.36 633.45 380.524 632.905 380.853 632.468C381.185 632.026 381.657 631.725 382.268 631.565ZM382.021 629.48C382.021 629.954 382.174 630.342 382.479 630.643C382.785 630.943 383.181 631.094 383.669 631.094C384.143 631.094 384.53 630.946 384.831 630.649C385.136 630.349 385.289 629.982 385.289 629.549C385.289 629.098 385.132 628.719 384.817 628.414C384.507 628.104 384.12 627.949 383.655 627.949C383.186 627.949 382.796 628.1 382.486 628.4C382.176 628.701 382.021 629.061 382.021 629.48ZM381.625 634.108C381.625 634.459 381.707 634.799 381.871 635.127C382.04 635.455 382.288 635.71 382.616 635.893C382.944 636.07 383.298 636.159 383.676 636.159C384.264 636.159 384.749 635.97 385.132 635.592C385.515 635.214 385.706 634.733 385.706 634.149C385.706 633.557 385.508 633.067 385.111 632.68C384.719 632.292 384.227 632.099 383.635 632.099C383.056 632.099 382.575 632.29 382.192 632.673C381.814 633.056 381.625 633.534 381.625 634.108Z" fill="#3E3E3D"/>
<path d="M356 657H712V658H356V657Z" fill="#CDCCCB"/>
<path d="M21.2158 689H19.9854V681.159C19.6891 681.442 19.2995 681.724 18.8164 682.007C18.3379 682.289 17.9072 682.501 17.5244 682.643V681.453C18.2126 681.13 18.8141 680.738 19.3291 680.277C19.8441 679.817 20.2087 679.37 20.4229 678.938H21.2158V689ZM24.374 684.058C24.374 682.873 24.4948 681.92 24.7363 681.2C24.9824 680.476 25.3447 679.917 25.8232 679.525C26.3063 679.133 26.9124 678.938 27.6416 678.938C28.1794 678.938 28.651 679.047 29.0566 679.266C29.4622 679.48 29.7972 679.792 30.0615 680.202C30.3258 680.608 30.5332 681.104 30.6836 681.692C30.834 682.276 30.9092 683.064 30.9092 684.058C30.9092 685.233 30.7884 686.184 30.5469 686.908C30.3053 687.628 29.943 688.187 29.46 688.583C28.9814 688.975 28.3753 689.171 27.6416 689.171C26.6755 689.171 25.9167 688.825 25.3652 688.132C24.7044 687.298 24.374 685.94 24.374 684.058ZM25.6387 684.058C25.6387 685.703 25.8301 686.799 26.2129 687.346C26.6003 687.888 27.0765 688.159 27.6416 688.159C28.2067 688.159 28.6807 687.886 29.0635 687.339C29.4508 686.792 29.6445 685.698 29.6445 684.058C29.6445 682.408 29.4508 681.312 29.0635 680.77C28.6807 680.227 28.2021 679.956 27.6279 679.956C27.0628 679.956 26.6117 680.195 26.2744 680.674C25.8506 681.285 25.6387 682.412 25.6387 684.058ZM31.6475 689L35.5234 683.777L32.1055 678.979H33.6846L35.5029 681.549C35.8812 682.082 36.1501 682.492 36.3096 682.779C36.5329 682.415 36.7972 682.034 37.1025 681.638L39.1191 678.979H40.5615L37.041 683.702L40.835 689H39.1943L36.6719 685.425C36.5306 685.22 36.3848 684.996 36.2344 684.755C36.0111 685.119 35.8516 685.37 35.7559 685.507L33.2402 689H31.6475ZM41.9492 689V678.979H43.2754V687.817H48.2109V689H41.9492Z" fill="#3E3E3D"/>
<path d="M0 709H356V710H0V709Z" fill="#CDCCCB"/>
<path d="M374.475 683.565C373.964 683.379 373.586 683.112 373.34 682.766C373.094 682.419 372.971 682.005 372.971 681.521C372.971 680.792 373.233 680.179 373.757 679.683C374.281 679.186 374.978 678.938 375.849 678.938C376.724 678.938 377.428 679.193 377.961 679.703C378.494 680.209 378.761 680.826 378.761 681.556C378.761 682.021 378.638 682.426 378.392 682.772C378.15 683.114 377.781 683.379 377.284 683.565C377.899 683.766 378.367 684.09 378.686 684.536C379.009 684.983 379.171 685.516 379.171 686.136C379.171 686.993 378.868 687.713 378.262 688.296C377.656 688.879 376.858 689.171 375.869 689.171C374.88 689.171 374.083 688.879 373.477 688.296C372.87 687.708 372.567 686.977 372.567 686.102C372.567 685.45 372.731 684.905 373.06 684.468C373.392 684.026 373.864 683.725 374.475 683.565ZM374.229 681.48C374.229 681.954 374.381 682.342 374.687 682.643C374.992 682.943 375.388 683.094 375.876 683.094C376.35 683.094 376.737 682.946 377.038 682.649C377.343 682.349 377.496 681.982 377.496 681.549C377.496 681.098 377.339 680.719 377.024 680.414C376.715 680.104 376.327 679.949 375.862 679.949C375.393 679.949 375.003 680.1 374.693 680.4C374.383 680.701 374.229 681.061 374.229 681.48ZM373.832 686.108C373.832 686.459 373.914 686.799 374.078 687.127C374.247 687.455 374.495 687.71 374.823 687.893C375.151 688.07 375.505 688.159 375.883 688.159C376.471 688.159 376.956 687.97 377.339 687.592C377.722 687.214 377.913 686.733 377.913 686.149C377.913 685.557 377.715 685.067 377.318 684.68C376.926 684.292 376.434 684.099 375.842 684.099C375.263 684.099 374.782 684.29 374.399 684.673C374.021 685.056 373.832 685.534 373.832 686.108ZM380.374 684.058C380.374 682.873 380.495 681.92 380.736 681.2C380.982 680.476 381.345 679.917 381.823 679.525C382.306 679.133 382.912 678.938 383.642 678.938C384.179 678.938 384.651 679.047 385.057 679.266C385.462 679.48 385.797 679.792 386.062 680.202C386.326 680.608 386.533 681.104 386.684 681.692C386.834 682.276 386.909 683.064 386.909 684.058C386.909 685.233 386.788 686.184 386.547 686.908C386.305 687.628 385.943 688.187 385.46 688.583C384.981 688.975 384.375 689.171 383.642 689.171C382.675 689.171 381.917 688.825 381.365 688.132C380.704 687.298 380.374 685.94 380.374 684.058ZM381.639 684.058C381.639 685.703 381.83 686.799 382.213 687.346C382.6 687.888 383.076 688.159 383.642 688.159C384.207 688.159 384.681 687.886 385.063 687.339C385.451 686.792 385.645 685.698 385.645 684.058C385.645 682.408 385.451 681.312 385.063 680.77C384.681 680.227 384.202 679.956 383.628 679.956C383.063 679.956 382.612 680.195 382.274 680.674C381.851 681.285 381.639 682.412 381.639 684.058Z" fill="#3E3E3D"/>
<path d="M356 709H712V710H356V709Z" fill="#CDCCCB"/>
</g>
<path d="M8 0.5H704C708.142 0.5 711.5 3.85786 711.5 8V702C711.5 706.142 708.142 709.5 704 709.5H8C3.85786 709.5 0.5 706.142 0.5 702V8C0.5 3.85786 3.85786 0.5 8 0.5Z" stroke="#CDCCCB"/>
<defs>
<clipPath id="clip0_968_10611">
<path d="M0 8C0 3.58172 3.58172 0 8 0H704C708.418 0 712 3.58172 712 8V702C712 706.418 708.418 710 704 710H8C3.58172 710 0 706.418 0 702V8Z" fill="white"/>
</clipPath>
</defs>
</svg>
