<svg width="712" height="190" viewBox="0 0 712 190" fill="none" xmlns="http://www.w3.org/2000/svg">
<g clip-path="url(#clip0_846_4607)">
<path d="M17.0186 21V10.9785H24.4492V12.6738H19.042V14.8955H24.0732V16.584H19.042V19.3115H24.6406V21H17.0186ZM25.666 18.9287L27.5938 18.6348C27.6758 19.0085 27.8421 19.2933 28.0928 19.4893C28.3434 19.6807 28.6943 19.7764 29.1455 19.7764C29.6423 19.7764 30.016 19.6852 30.2666 19.5029C30.4352 19.3753 30.5195 19.2044 30.5195 18.9902C30.5195 18.8444 30.474 18.7236 30.3828 18.6279C30.2871 18.5368 30.0729 18.4525 29.7402 18.375C28.1908 18.0332 27.2087 17.721 26.7939 17.4385C26.2197 17.0465 25.9326 16.502 25.9326 15.8047C25.9326 15.1758 26.181 14.6471 26.6777 14.2188C27.1745 13.7904 27.9447 13.5762 28.9883 13.5762C29.9818 13.5762 30.7201 13.738 31.2031 14.0615C31.6862 14.3851 32.0189 14.8636 32.2012 15.4971L30.3896 15.832C30.3122 15.5495 30.1641 15.333 29.9453 15.1826C29.7311 15.0322 29.4235 14.957 29.0225 14.957C28.5166 14.957 28.1543 15.0277 27.9355 15.1689C27.7897 15.2692 27.7168 15.3991 27.7168 15.5586C27.7168 15.6953 27.7806 15.8115 27.9082 15.9072C28.0814 16.0348 28.6784 16.2148 29.6992 16.4473C30.7246 16.6797 31.4401 16.9645 31.8457 17.3018C32.2467 17.6436 32.4473 18.1198 32.4473 18.7305C32.4473 19.3958 32.1693 19.9678 31.6133 20.4463C31.0573 20.9248 30.2347 21.1641 29.1455 21.1641C28.1566 21.1641 27.3727 20.9635 26.7939 20.5625C26.2197 20.1615 25.8438 19.6169 25.666 18.9287ZM34.0811 13.7402H35.8721V14.8066C36.1045 14.4421 36.4189 14.1458 36.8154 13.918C37.2119 13.6901 37.6517 13.5762 38.1348 13.5762C38.9779 13.5762 39.6934 13.9066 40.2812 14.5674C40.8691 15.2282 41.1631 16.1488 41.1631 17.3291C41.1631 18.5413 40.8669 19.4847 40.2744 20.1592C39.682 20.8291 38.9642 21.1641 38.1211 21.1641C37.7201 21.1641 37.3555 21.0843 37.0273 20.9248C36.7038 20.7653 36.362 20.4919 36.002 20.1045V23.7617H34.0811V13.7402ZM35.9814 17.2471C35.9814 18.0628 36.1432 18.6667 36.4668 19.0586C36.7904 19.446 37.1846 19.6396 37.6494 19.6396C38.096 19.6396 38.4674 19.4619 38.7637 19.1064C39.0599 18.7464 39.208 18.1585 39.208 17.3428C39.208 16.5817 39.0553 16.0166 38.75 15.6475C38.4447 15.2783 38.0664 15.0938 37.6152 15.0938C37.1458 15.0938 36.7562 15.276 36.4463 15.6406C36.1364 16.0007 35.9814 16.5361 35.9814 17.2471ZM44.1299 15.9551L42.3867 15.6406C42.5827 14.9388 42.9199 14.4193 43.3984 14.082C43.877 13.7448 44.5879 13.5762 45.5312 13.5762C46.388 13.5762 47.026 13.6787 47.4453 13.8838C47.8646 14.0843 48.1585 14.3418 48.3271 14.6562C48.5003 14.9661 48.5869 15.5381 48.5869 16.3721L48.5664 18.6143C48.5664 19.2523 48.596 19.724 48.6553 20.0293C48.7191 20.3301 48.8353 20.6536 49.0039 21H47.1035C47.0534 20.8724 46.9919 20.6833 46.9189 20.4326C46.887 20.3187 46.8643 20.2435 46.8506 20.207C46.5225 20.526 46.1715 20.7653 45.7979 20.9248C45.4242 21.0843 45.0254 21.1641 44.6016 21.1641C43.8542 21.1641 43.264 20.9613 42.8311 20.5557C42.4027 20.1501 42.1885 19.6374 42.1885 19.0176C42.1885 18.6074 42.2865 18.2428 42.4824 17.9238C42.6784 17.6003 42.9518 17.3542 43.3027 17.1855C43.6582 17.0124 44.1686 16.862 44.834 16.7344C45.7318 16.5658 46.3538 16.4085 46.7002 16.2627V16.0713C46.7002 15.7021 46.609 15.4401 46.4268 15.2852C46.2445 15.1257 45.9004 15.0459 45.3945 15.0459C45.0527 15.0459 44.7861 15.1143 44.5947 15.251C44.4033 15.3831 44.2484 15.6178 44.1299 15.9551ZM46.7002 17.5137C46.4541 17.5957 46.0645 17.6937 45.5312 17.8076C44.998 17.9215 44.6494 18.0332 44.4854 18.1426C44.2347 18.3203 44.1094 18.5459 44.1094 18.8193C44.1094 19.0882 44.2096 19.3206 44.4102 19.5166C44.6107 19.7126 44.8659 19.8105 45.1758 19.8105C45.5221 19.8105 45.8525 19.6966 46.167 19.4688C46.3994 19.2956 46.5521 19.0837 46.625 18.833C46.6751 18.6689 46.7002 18.3568 46.7002 17.8965V17.5137ZM56.8174 15.8867L54.9238 16.2285C54.86 15.8503 54.7142 15.5654 54.4863 15.374C54.263 15.1826 53.9714 15.0869 53.6113 15.0869C53.1328 15.0869 52.75 15.2533 52.4629 15.5859C52.1803 15.9141 52.0391 16.4655 52.0391 17.2402C52.0391 18.1016 52.1826 18.71 52.4697 19.0654C52.7614 19.4209 53.151 19.5986 53.6387 19.5986C54.0033 19.5986 54.3018 19.4961 54.5342 19.291C54.7666 19.0814 54.9307 18.7236 55.0264 18.2178L56.9131 18.5391C56.7171 19.4049 56.3411 20.0589 55.7852 20.501C55.2292 20.943 54.484 21.1641 53.5498 21.1641C52.488 21.1641 51.6403 20.8291 51.0068 20.1592C50.3779 19.4893 50.0635 18.5618 50.0635 17.377C50.0635 16.1784 50.3802 15.2464 51.0137 14.5811C51.6471 13.9111 52.5039 13.5762 53.584 13.5762C54.4681 13.5762 55.1699 13.7676 55.6895 14.1504C56.2135 14.5286 56.5895 15.1074 56.8174 15.8867ZM62.4844 18.6895L64.3984 19.0107C64.1523 19.7126 63.7627 20.248 63.2295 20.6172C62.7008 20.9818 62.0378 21.1641 61.2402 21.1641C59.9779 21.1641 59.0436 20.7516 58.4375 19.9268C57.959 19.266 57.7197 18.432 57.7197 17.4248C57.7197 16.2217 58.0342 15.2806 58.6631 14.6016C59.292 13.918 60.0872 13.5762 61.0488 13.5762C62.1289 13.5762 62.9811 13.9339 63.6055 14.6494C64.2298 15.3604 64.5283 16.4518 64.501 17.9238H59.6885C59.7021 18.4935 59.8571 18.9378 60.1533 19.2568C60.4495 19.5713 60.8187 19.7285 61.2607 19.7285C61.5615 19.7285 61.8145 19.6465 62.0195 19.4824C62.2246 19.3184 62.3796 19.054 62.4844 18.6895ZM62.5938 16.748C62.5801 16.1921 62.4365 15.7705 62.1631 15.4834C61.8896 15.1917 61.557 15.0459 61.165 15.0459C60.7458 15.0459 60.3994 15.1986 60.126 15.5039C59.8525 15.8092 59.7181 16.224 59.7227 16.748H62.5938ZM65.9297 13.7402H67.7002V14.7314C68.3337 13.9613 69.0879 13.5762 69.9629 13.5762C70.4277 13.5762 70.8311 13.6719 71.1729 13.8633C71.5146 14.0547 71.7949 14.3441 72.0137 14.7314C72.3327 14.3441 72.6768 14.0547 73.0459 13.8633C73.415 13.6719 73.8092 13.5762 74.2285 13.5762C74.7617 13.5762 75.2129 13.6855 75.582 13.9043C75.9512 14.1185 76.2269 14.4352 76.4092 14.8545C76.5413 15.1644 76.6074 15.6657 76.6074 16.3584V21H74.6865V16.8506C74.6865 16.1305 74.6204 15.6657 74.4883 15.4561C74.3105 15.1826 74.0371 15.0459 73.668 15.0459C73.3991 15.0459 73.1462 15.1279 72.9092 15.292C72.6722 15.4561 72.5013 15.6976 72.3965 16.0166C72.2917 16.3311 72.2393 16.8301 72.2393 17.5137V21H70.3184V17.0215C70.3184 16.3151 70.2842 15.8594 70.2158 15.6543C70.1475 15.4492 70.0404 15.2965 69.8945 15.1963C69.7533 15.096 69.5596 15.0459 69.3135 15.0459C69.0173 15.0459 68.7507 15.1257 68.5137 15.2852C68.2767 15.4447 68.1058 15.6748 68.001 15.9756C67.9007 16.2764 67.8506 16.7754 67.8506 17.4727V21H65.9297V13.7402ZM82.7324 18.6895L84.6465 19.0107C84.4004 19.7126 84.0107 20.248 83.4775 20.6172C82.9489 20.9818 82.2858 21.1641 81.4883 21.1641C80.2259 21.1641 79.2917 20.7516 78.6855 19.9268C78.207 19.266 77.9678 18.432 77.9678 17.4248C77.9678 16.2217 78.2822 15.2806 78.9111 14.6016C79.54 13.918 80.3353 13.5762 81.2969 13.5762C82.377 13.5762 83.2292 13.9339 83.8535 14.6494C84.4779 15.3604 84.7764 16.4518 84.749 17.9238H79.9365C79.9502 18.4935 80.1051 18.9378 80.4014 19.2568C80.6976 19.5713 81.0667 19.7285 81.5088 19.7285C81.8096 19.7285 82.0625 19.6465 82.2676 19.4824C82.4727 19.3184 82.6276 19.054 82.7324 18.6895ZM82.8418 16.748C82.8281 16.1921 82.6846 15.7705 82.4111 15.4834C82.1377 15.1917 81.805 15.0459 81.4131 15.0459C80.9938 15.0459 80.6475 15.1986 80.374 15.5039C80.1006 15.8092 79.9661 16.224 79.9707 16.748H82.8418ZM92.9248 21H91.0039V17.2949C91.0039 16.5111 90.9629 16.0052 90.8809 15.7773C90.7988 15.5449 90.6644 15.3649 90.4775 15.2373C90.2952 15.1097 90.0742 15.0459 89.8145 15.0459C89.4818 15.0459 89.1833 15.137 88.9189 15.3193C88.6546 15.5016 88.4723 15.7432 88.3721 16.0439C88.2764 16.3447 88.2285 16.9007 88.2285 17.7119V21H86.3076V13.7402H88.0918V14.8066C88.7253 13.9863 89.5228 13.5762 90.4844 13.5762C90.9082 13.5762 91.2956 13.6536 91.6465 13.8086C91.9974 13.959 92.2617 14.1527 92.4395 14.3896C92.6217 14.6266 92.7471 14.8955 92.8154 15.1963C92.8883 15.4971 92.9248 15.9277 92.9248 16.4883V21ZM98.209 13.7402V15.2715H96.8965V18.1973C96.8965 18.7897 96.9079 19.1361 96.9307 19.2363C96.958 19.332 97.015 19.4118 97.1016 19.4756C97.1927 19.5394 97.3021 19.5713 97.4297 19.5713C97.6074 19.5713 97.8649 19.5098 98.2021 19.3867L98.3662 20.877C97.9196 21.0684 97.4137 21.1641 96.8486 21.1641C96.5023 21.1641 96.1901 21.1071 95.9121 20.9932C95.6341 20.8747 95.429 20.7243 95.2969 20.542C95.1693 20.3551 95.0804 20.1045 95.0303 19.79C94.9893 19.5667 94.9688 19.1156 94.9688 18.4365V15.2715H94.0869V13.7402H94.9688V12.2979L96.8965 11.1768V13.7402H98.209Z" fill="#201F1F"/>
<path d="M0 33H356V34H0V33Z" fill="#CDCCCB"/>
<path d="M375.575 21L371.993 10.9785H374.188L376.724 18.3955L379.178 10.9785H381.324L377.735 21H375.575ZM382.999 15.9551L381.256 15.6406C381.452 14.9388 381.789 14.4193 382.268 14.082C382.746 13.7448 383.457 13.5762 384.4 13.5762C385.257 13.5762 385.895 13.6787 386.314 13.8838C386.734 14.0843 387.028 14.3418 387.196 14.6562C387.369 14.9661 387.456 15.5381 387.456 16.3721L387.436 18.6143C387.436 19.2523 387.465 19.724 387.524 20.0293C387.588 20.3301 387.704 20.6536 387.873 21H385.973C385.923 20.8724 385.861 20.6833 385.788 20.4326C385.756 20.3187 385.733 20.2435 385.72 20.207C385.392 20.526 385.041 20.7653 384.667 20.9248C384.293 21.0843 383.895 21.1641 383.471 21.1641C382.723 21.1641 382.133 20.9613 381.7 20.5557C381.272 20.1501 381.058 19.6374 381.058 19.0176C381.058 18.6074 381.156 18.2428 381.352 17.9238C381.548 17.6003 381.821 17.3542 382.172 17.1855C382.527 17.0124 383.038 16.862 383.703 16.7344C384.601 16.5658 385.223 16.4085 385.569 16.2627V16.0713C385.569 15.7021 385.478 15.4401 385.296 15.2852C385.114 15.1257 384.77 15.0459 384.264 15.0459C383.922 15.0459 383.655 15.1143 383.464 15.251C383.272 15.3831 383.118 15.6178 382.999 15.9551ZM385.569 17.5137C385.323 17.5957 384.934 17.6937 384.4 17.8076C383.867 17.9215 383.519 18.0332 383.354 18.1426C383.104 18.3203 382.979 18.5459 382.979 18.8193C382.979 19.0882 383.079 19.3206 383.279 19.5166C383.48 19.7126 383.735 19.8105 384.045 19.8105C384.391 19.8105 384.722 19.6966 385.036 19.4688C385.269 19.2956 385.421 19.0837 385.494 18.833C385.544 18.6689 385.569 18.3568 385.569 17.8965V17.5137ZM389.356 21V10.9785H391.277V21H389.356ZM397.457 18.6895L399.371 19.0107C399.125 19.7126 398.735 20.248 398.202 20.6172C397.674 20.9818 397.01 21.1641 396.213 21.1641C394.951 21.1641 394.016 20.7516 393.41 19.9268C392.932 19.266 392.692 18.432 392.692 17.4248C392.692 16.2217 393.007 15.2806 393.636 14.6016C394.265 13.918 395.06 13.5762 396.021 13.5762C397.102 13.5762 397.954 13.9339 398.578 14.6494C399.202 15.3604 399.501 16.4518 399.474 17.9238H394.661C394.675 18.4935 394.83 18.9378 395.126 19.2568C395.422 19.5713 395.791 19.7285 396.233 19.7285C396.534 19.7285 396.787 19.6465 396.992 19.4824C397.197 19.3184 397.352 19.054 397.457 18.6895ZM397.566 16.748C397.553 16.1921 397.409 15.7705 397.136 15.4834C396.862 15.1917 396.53 15.0459 396.138 15.0459C395.718 15.0459 395.372 15.1986 395.099 15.5039C394.825 15.8092 394.691 16.224 394.695 16.748H397.566ZM405.824 21V19.9131C405.56 20.3005 405.211 20.6058 404.778 20.8291C404.35 21.0524 403.896 21.1641 403.418 21.1641C402.93 21.1641 402.493 21.057 402.105 20.8428C401.718 20.6286 401.438 20.3278 401.265 19.9404C401.091 19.5531 401.005 19.0176 401.005 18.334V13.7402H402.926V17.0762C402.926 18.097 402.96 18.7236 403.028 18.9561C403.101 19.1839 403.231 19.3662 403.418 19.5029C403.605 19.6351 403.842 19.7012 404.129 19.7012C404.457 19.7012 404.751 19.6123 405.011 19.4346C405.271 19.2523 405.448 19.029 405.544 18.7646C405.64 18.4958 405.688 17.8418 405.688 16.8027V13.7402H407.608V21H405.824ZM411.443 21H409.522V13.7402H411.307V14.7725C411.612 14.2848 411.885 13.9635 412.127 13.8086C412.373 13.6536 412.651 13.5762 412.961 13.5762C413.398 13.5762 413.82 13.6969 414.226 13.9385L413.631 15.6133C413.307 15.4036 413.007 15.2988 412.729 15.2988C412.46 15.2988 412.232 15.374 412.045 15.5244C411.858 15.6702 411.71 15.9368 411.601 16.3242C411.496 16.7116 411.443 17.5228 411.443 18.7578V21Z" fill="#201F1F"/>
<path d="M356 33H712V34H356V33Z" fill="#CDCCCB"/>
<path d="M16.9229 65V57.7402H18.0303V58.7725C18.5635 57.9749 19.3337 57.5762 20.3408 57.5762C20.7783 57.5762 21.1794 57.6559 21.5439 57.8154C21.9131 57.9704 22.1888 58.1755 22.3711 58.4307C22.5534 58.6859 22.681 58.9889 22.7539 59.3398C22.7995 59.5677 22.8223 59.9665 22.8223 60.5361V65H21.5918V60.584C21.5918 60.0827 21.5439 59.709 21.4482 59.4629C21.3525 59.2122 21.1816 59.014 20.9355 58.8682C20.694 58.7178 20.4092 58.6426 20.0811 58.6426C19.557 58.6426 19.1035 58.8089 18.7207 59.1416C18.3424 59.4743 18.1533 60.1055 18.1533 61.0352V65H16.9229ZM24.2578 61.3701C24.2578 60.0257 24.6315 59.0299 25.3789 58.3828C26.0033 57.8451 26.7643 57.5762 27.6621 57.5762C28.6602 57.5762 29.4759 57.9043 30.1094 58.5605C30.7428 59.2122 31.0596 60.1146 31.0596 61.2676C31.0596 62.2018 30.9183 62.9378 30.6357 63.4756C30.3577 64.0088 29.9499 64.4235 29.4121 64.7197C28.8789 65.016 28.2956 65.1641 27.6621 65.1641C26.6458 65.1641 25.8232 64.8382 25.1943 64.1865C24.57 63.5348 24.2578 62.596 24.2578 61.3701ZM25.5225 61.3701C25.5225 62.2998 25.7253 62.9971 26.1309 63.4619C26.5365 63.9222 27.0469 64.1523 27.6621 64.1523C28.2728 64.1523 28.7809 63.9199 29.1865 63.4551C29.5921 62.9902 29.7949 62.2816 29.7949 61.3291C29.7949 60.4313 29.5898 59.7523 29.1797 59.292C28.7741 58.8271 28.2682 58.5947 27.6621 58.5947C27.0469 58.5947 26.5365 58.8249 26.1309 59.2852C25.7253 59.7454 25.5225 60.4404 25.5225 61.3701ZM32.5088 65V57.7402H33.6162V58.7725C34.1494 57.9749 34.9196 57.5762 35.9268 57.5762C36.3643 57.5762 36.7653 57.6559 37.1299 57.8154C37.499 57.9704 37.7747 58.1755 37.957 58.4307C38.1393 58.6859 38.2669 58.9889 38.3398 59.3398C38.3854 59.5677 38.4082 59.9665 38.4082 60.5361V65H37.1777V60.584C37.1777 60.0827 37.1299 59.709 37.0342 59.4629C36.9385 59.2122 36.7676 59.014 36.5215 58.8682C36.2799 58.7178 35.9951 58.6426 35.667 58.6426C35.1429 58.6426 34.6895 58.8089 34.3066 59.1416C33.9284 59.4743 33.7393 60.1055 33.7393 61.0352V65H32.5088ZM45.2715 62.6621L46.543 62.8193C46.3424 63.5622 45.971 64.1387 45.4287 64.5488C44.8864 64.959 44.1937 65.1641 43.3506 65.1641C42.2887 65.1641 41.4456 64.8382 40.8213 64.1865C40.2015 63.5303 39.8916 62.612 39.8916 61.4316C39.8916 60.2103 40.2061 59.2624 40.835 58.5879C41.4639 57.9134 42.2796 57.5762 43.2822 57.5762C44.2529 57.5762 45.0459 57.9066 45.6611 58.5674C46.2764 59.2282 46.584 60.1579 46.584 61.3564C46.584 61.4294 46.5817 61.5387 46.5771 61.6846H41.1631C41.2087 62.4821 41.4342 63.0928 41.8398 63.5166C42.2454 63.9404 42.7513 64.1523 43.3574 64.1523C43.8086 64.1523 44.1937 64.0339 44.5127 63.7969C44.8317 63.5599 45.0846 63.1816 45.2715 62.6621ZM41.2314 60.6729H45.2852C45.2305 60.0622 45.0755 59.6042 44.8203 59.2988C44.4284 58.8249 43.9202 58.5879 43.2959 58.5879C42.7308 58.5879 42.2546 58.777 41.8672 59.1553C41.4844 59.5335 41.2725 60.0394 41.2314 60.6729Z" fill="#3E3E3D"/>
<path d="M0 85H356V86H0V85Z" fill="#CDCCCB"/>
<path d="M372.581 60.0576C372.581 58.8727 372.702 57.9202 372.943 57.2002C373.189 56.4756 373.552 55.9173 374.03 55.5254C374.513 55.1335 375.119 54.9375 375.849 54.9375C376.386 54.9375 376.858 55.0469 377.264 55.2656C377.669 55.4798 378.004 55.792 378.269 56.2021C378.533 56.6077 378.74 57.1045 378.891 57.6924C379.041 58.2757 379.116 59.0641 379.116 60.0576C379.116 61.2334 378.995 62.1836 378.754 62.9082C378.512 63.6283 378.15 64.1865 377.667 64.583C377.188 64.9749 376.582 65.1709 375.849 65.1709C374.882 65.1709 374.124 64.8245 373.572 64.1318C372.911 63.2979 372.581 61.9398 372.581 60.0576ZM373.846 60.0576C373.846 61.7028 374.037 62.7988 374.42 63.3457C374.807 63.888 375.284 64.1592 375.849 64.1592C376.414 64.1592 376.888 63.8857 377.271 63.3389C377.658 62.792 377.852 61.6982 377.852 60.0576C377.852 58.4079 377.658 57.3118 377.271 56.7695C376.888 56.2272 376.409 55.9561 375.835 55.9561C375.27 55.9561 374.819 56.1953 374.481 56.6738C374.058 57.2845 373.846 58.4124 373.846 60.0576Z" fill="#3E3E3D"/>
<path d="M356 85H712V86H356V85Z" fill="#CDCCCB"/>
<path d="M16.6289 113.78L17.8799 113.671C17.9391 114.172 18.0758 114.585 18.29 114.908C18.5088 115.227 18.846 115.487 19.3018 115.688C19.7575 115.883 20.2702 115.981 20.8398 115.981C21.3457 115.981 21.7923 115.906 22.1797 115.756C22.5671 115.605 22.8542 115.4 23.041 115.141C23.2324 114.876 23.3281 114.589 23.3281 114.279C23.3281 113.965 23.237 113.691 23.0547 113.459C22.8724 113.222 22.5716 113.024 22.1523 112.864C21.8835 112.759 21.2887 112.598 20.3682 112.379C19.4476 112.156 18.8027 111.946 18.4336 111.75C17.9551 111.499 17.5973 111.189 17.3604 110.82C17.1279 110.447 17.0117 110.03 17.0117 109.569C17.0117 109.063 17.1553 108.592 17.4424 108.154C17.7295 107.712 18.1488 107.377 18.7002 107.149C19.2516 106.922 19.8646 106.808 20.5391 106.808C21.2819 106.808 21.9359 106.928 22.501 107.17C23.0706 107.407 23.5081 107.758 23.8135 108.223C24.1188 108.688 24.2829 109.214 24.3057 109.802L23.0342 109.897C22.9658 109.264 22.7334 108.785 22.3369 108.462C21.945 108.138 21.3639 107.977 20.5938 107.977C19.7917 107.977 19.2061 108.125 18.8369 108.421C18.4723 108.713 18.29 109.066 18.29 109.48C18.29 109.84 18.4199 110.137 18.6797 110.369C18.9349 110.602 19.6003 110.841 20.6758 111.087C21.7559 111.328 22.4964 111.54 22.8975 111.723C23.4808 111.992 23.9115 112.333 24.1895 112.748C24.4674 113.158 24.6064 113.632 24.6064 114.17C24.6064 114.703 24.4538 115.207 24.1484 115.681C23.8431 116.15 23.4033 116.517 22.8291 116.781C22.2594 117.041 21.6169 117.171 20.9014 117.171C19.9945 117.171 19.2334 117.039 18.6182 116.774C18.0075 116.51 17.5267 116.114 17.1758 115.585C16.8294 115.052 16.6471 114.45 16.6289 113.78Z" fill="#3E3E3D"/>
<path d="M0 137H356V138H0V137Z" fill="#CDCCCB"/>
<path d="M372.444 113.992V112.755H376.225V113.992H372.444ZM377.243 112.058C377.243 110.873 377.364 109.92 377.605 109.2C377.852 108.476 378.214 107.917 378.692 107.525C379.175 107.133 379.782 106.938 380.511 106.938C381.049 106.938 381.52 107.047 381.926 107.266C382.331 107.48 382.666 107.792 382.931 108.202C383.195 108.608 383.402 109.104 383.553 109.692C383.703 110.276 383.778 111.064 383.778 112.058C383.778 113.233 383.658 114.184 383.416 114.908C383.174 115.628 382.812 116.187 382.329 116.583C381.851 116.975 381.244 117.171 380.511 117.171C379.545 117.171 378.786 116.825 378.234 116.132C377.574 115.298 377.243 113.94 377.243 112.058ZM378.508 112.058C378.508 113.703 378.699 114.799 379.082 115.346C379.469 115.888 379.946 116.159 380.511 116.159C381.076 116.159 381.55 115.886 381.933 115.339C382.32 114.792 382.514 113.698 382.514 112.058C382.514 110.408 382.32 109.312 381.933 108.77C381.55 108.227 381.071 107.956 380.497 107.956C379.932 107.956 379.481 108.195 379.144 108.674C378.72 109.285 378.508 110.412 378.508 112.058ZM385.699 117V115.599H387.101V117C387.101 117.515 387.009 117.93 386.827 118.244C386.645 118.563 386.355 118.809 385.959 118.982L385.617 118.456C385.877 118.342 386.068 118.174 386.191 117.95C386.314 117.731 386.383 117.415 386.396 117H385.699ZM388.933 114.375L390.225 114.266C390.32 114.895 390.541 115.368 390.888 115.688C391.239 116.002 391.66 116.159 392.152 116.159C392.745 116.159 393.246 115.936 393.656 115.489C394.066 115.043 394.271 114.45 394.271 113.712C394.271 113.01 394.073 112.456 393.677 112.051C393.285 111.645 392.77 111.442 392.132 111.442C391.735 111.442 391.378 111.534 391.059 111.716C390.74 111.894 390.489 112.126 390.307 112.413L389.151 112.263L390.122 107.115H395.105V108.291H391.106L390.566 110.984C391.168 110.565 391.799 110.355 392.46 110.355C393.335 110.355 394.073 110.659 394.675 111.265C395.276 111.871 395.577 112.65 395.577 113.603C395.577 114.509 395.313 115.293 394.784 115.954C394.142 116.765 393.264 117.171 392.152 117.171C391.241 117.171 390.496 116.916 389.917 116.405C389.343 115.895 389.015 115.218 388.933 114.375Z" fill="#3E3E3D"/>
<path d="M356 137H712V138H356V137Z" fill="#CDCCCB"/>
<path d="M16.0615 169L19.9375 163.777L16.5195 158.979H18.0986L19.917 161.549C20.2952 162.082 20.5641 162.492 20.7236 162.779C20.9469 162.415 21.2113 162.034 21.5166 161.638L23.5332 158.979H24.9756L21.4551 163.702L25.249 169H23.6084L21.0859 165.425C20.9447 165.22 20.7988 164.996 20.6484 164.755C20.4251 165.119 20.2656 165.37 20.1699 165.507L17.6543 169H16.0615ZM25.9668 165.78L27.2178 165.671C27.277 166.172 27.4137 166.585 27.6279 166.908C27.8467 167.227 28.1839 167.487 28.6396 167.688C29.0954 167.883 29.6081 167.981 30.1777 167.981C30.6836 167.981 31.1302 167.906 31.5176 167.756C31.9049 167.605 32.1921 167.4 32.3789 167.141C32.5703 166.876 32.666 166.589 32.666 166.279C32.666 165.965 32.5749 165.691 32.3926 165.459C32.2103 165.222 31.9095 165.024 31.4902 164.864C31.2214 164.759 30.6266 164.598 29.7061 164.379C28.7855 164.156 28.1406 163.946 27.7715 163.75C27.293 163.499 26.9352 163.189 26.6982 162.82C26.4658 162.447 26.3496 162.03 26.3496 161.569C26.3496 161.063 26.4932 160.592 26.7803 160.154C27.0674 159.712 27.4867 159.377 28.0381 159.149C28.5895 158.922 29.2025 158.808 29.877 158.808C30.6198 158.808 31.2738 158.928 31.8389 159.17C32.4085 159.407 32.846 159.758 33.1514 160.223C33.4567 160.688 33.6208 161.214 33.6436 161.802L32.3721 161.897C32.3037 161.264 32.0713 160.785 31.6748 160.462C31.2829 160.138 30.7018 159.977 29.9316 159.977C29.1296 159.977 28.5439 160.125 28.1748 160.421C27.8102 160.713 27.6279 161.066 27.6279 161.48C27.6279 161.84 27.7578 162.137 28.0176 162.369C28.2728 162.602 28.9382 162.841 30.0137 163.087C31.0938 163.328 31.8343 163.54 32.2354 163.723C32.8187 163.992 33.2493 164.333 33.5273 164.748C33.8053 165.158 33.9443 165.632 33.9443 166.17C33.9443 166.703 33.7917 167.207 33.4863 167.681C33.181 168.15 32.7412 168.517 32.167 168.781C31.5973 169.041 30.9548 169.171 30.2393 169.171C29.3324 169.171 28.5713 169.039 27.9561 168.774C27.3454 168.51 26.8646 168.114 26.5137 167.585C26.1673 167.052 25.985 166.45 25.9668 165.78ZM35.7012 169V158.979H37.0273V167.817H41.9629V169H35.7012Z" fill="#3E3E3D"/>
<path d="M0 189H356V190H0V189Z" fill="#CDCCCB"/>
<path d="M372.444 165.992V164.755H376.225V165.992H372.444ZM381.878 169H380.647V161.159C380.351 161.442 379.962 161.724 379.479 162.007C379 162.289 378.569 162.501 378.187 162.643V161.453C378.875 161.13 379.476 160.738 379.991 160.277C380.506 159.817 380.871 159.37 381.085 158.938H381.878V169Z" fill="#3E3E3D"/>
<path d="M356 189H712V190H356V189Z" fill="#CDCCCB"/>
</g>
<path d="M8 0.5H704C708.142 0.5 711.5 3.85787 711.5 8V182C711.5 186.142 708.142 189.5 704 189.5H8C3.85786 189.5 0.5 186.142 0.5 182V8L0.509766 7.61426C0.710536 3.65139 3.98724 0.5 8 0.5Z" stroke="#CDCCCB"/>
<defs>
<clipPath id="clip0_846_4607">
<path d="M0 8C0 3.58172 3.58172 0 8 0H704C708.418 0 712 3.58172 712 8V182C712 186.418 708.418 190 704 190H8C3.58172 190 0 186.418 0 182V8Z" fill="white"/>
</clipPath>
</defs>
</svg>
