<svg viewBox="0 0 20 20" fill="none" xmlns="http://www.w3.org/2000/svg">
<path d="M10.0002 18.3333C8.09738 18.3333 6.51058 17.6805 5.23975 16.375C3.96891 15.0694 3.3335 13.4444 3.3335 11.5C3.3335 10.6389 3.52794 9.77776 3.91683 8.91665C4.30572 8.05554 4.79183 7.22915 5.37516 6.43748C5.9585 5.64581 6.59044 4.90276 7.271 4.20831C7.95155 3.51387 8.5835 2.9097 9.16683 2.39581C9.27794 2.2847 9.40641 2.20484 9.55225 2.15623C9.69808 2.10762 9.84739 2.08331 10.0002 2.08331C10.1529 2.08331 10.3022 2.10762 10.4481 2.15623C10.5939 2.20484 10.7224 2.2847 10.8335 2.39581C11.4168 2.9097 12.0488 3.51387 12.7293 4.20831C13.4099 4.90276 14.0418 5.64581 14.6252 6.43748C15.2085 7.22915 15.6946 8.05554 16.0835 8.91665C16.4724 9.77776 16.6668 10.6389 16.6668 11.5C16.6668 13.4444 16.0314 15.0694 14.7606 16.375C13.4897 17.6805 11.9029 18.3333 10.0002 18.3333ZM10.2293 15.8333C10.396 15.8194 10.5384 15.7535 10.6564 15.6354C10.7745 15.5173 10.8335 15.375 10.8335 15.2083C10.8335 15.0139 10.771 14.8576 10.646 14.7396C10.521 14.6215 10.3613 14.5694 10.1668 14.5833C9.59738 14.625 8.99322 14.4687 8.35433 14.1146C7.71544 13.7604 7.31266 13.118 7.146 12.1875C7.11822 12.0347 7.0453 11.9097 6.92725 11.8125C6.80919 11.7153 6.67377 11.6666 6.521 11.6666C6.32655 11.6666 6.16683 11.7396 6.04183 11.8854C5.91683 12.0312 5.87516 12.2014 5.91683 12.3958C6.15294 13.6597 6.7085 14.5625 7.5835 15.1041C8.4585 15.6458 9.34044 15.8889 10.2293 15.8333Z" fill="currentColor"/>
</svg>