<svg viewBox="0 0 20 20" fill="none" xmlns="http://www.w3.org/2000/svg">
<path d="M13.7502 15.8334H12.4585C12.2918 15.8334 12.1703 15.7604 12.0939 15.6146C12.0175 15.4688 12.0279 15.3264 12.1252 15.1875L14.2085 12.2084C14.2779 12.125 14.3578 12.0972 14.4481 12.125C14.5384 12.1528 14.5835 12.2222 14.5835 12.3334V14.1667H15.8752C16.0418 14.1667 16.1634 14.2396 16.2397 14.3854C16.3161 14.5313 16.3057 14.6736 16.2085 14.8125L14.1252 17.7917C14.0557 17.875 13.9759 17.9028 13.8856 17.875C13.7953 17.8472 13.7502 17.7778 13.7502 17.6667V15.8334ZM6.66683 18.3334C6.43072 18.3334 6.2328 18.2535 6.07308 18.0938C5.91336 17.934 5.8335 17.7361 5.8335 17.5V4.16669C5.8335 3.93058 5.91336 3.73266 6.07308 3.57294C6.2328 3.41321 6.43072 3.33335 6.66683 3.33335H8.3335V2.50002C8.3335 2.26391 8.41336 2.06599 8.57308 1.90627C8.7328 1.74655 8.93072 1.66669 9.16683 1.66669H10.8335C11.0696 1.66669 11.2675 1.74655 11.4272 1.90627C11.587 2.06599 11.6668 2.26391 11.6668 2.50002V3.33335H13.3335C13.5696 3.33335 13.7675 3.41321 13.9272 3.57294C14.087 3.73266 14.1668 3.93058 14.1668 4.16669V9.16669C14.1668 9.4028 14.087 9.60071 13.9272 9.76044C13.7675 9.92016 13.5696 10 13.3335 10C13.0974 10 12.8995 9.92016 12.7397 9.76044C12.58 9.60071 12.5002 9.4028 12.5002 9.16669V5.00002H7.50016V16.6667H9.60433C9.84044 16.6667 10.0384 16.7465 10.1981 16.9063C10.3578 17.066 10.4377 17.2639 10.4377 17.5C10.4377 17.7361 10.3578 17.934 10.1981 18.0938C10.0384 18.2535 9.84044 18.3334 9.60433 18.3334H6.66683Z" fill="currentColor"/>
</svg>