<svg viewBox="0 0 20 20" fill="none" xmlns="http://www.w3.org/2000/svg">
<path d="M9.99992 1.79169C10.111 1.79169 10.2117 1.79863 10.302 1.81252C10.3923 1.82641 10.486 1.85419 10.5833 1.89585L15.5833 3.77085C15.9027 3.89585 16.1631 4.09724 16.3645 4.37502C16.5659 4.6528 16.6666 4.9653 16.6666 5.31252V7.91669C16.6666 8.1528 16.5867 8.35072 16.427 8.51044C16.2673 8.67016 16.0694 8.75002 15.8333 8.75002C15.5971 8.75002 15.3992 8.67016 15.2395 8.51044C15.0798 8.35072 14.9999 8.1528 14.9999 7.91669V5.33335L9.99992 3.45835L4.99992 5.33335V9.25002C4.99992 9.94447 5.10061 10.6389 5.302 11.3334C5.50339 12.0278 5.78117 12.6875 6.13534 13.3125C6.4895 13.9375 6.92006 14.5 7.427 15C7.93395 15.5 8.48603 15.9097 9.08325 16.2292C9.29159 16.3403 9.44089 16.5 9.53117 16.7084C9.62145 16.9167 9.62492 17.125 9.54159 17.3334C9.44436 17.5556 9.28811 17.7084 9.07284 17.7917C8.85756 17.875 8.64575 17.8611 8.43742 17.75C6.86797 16.9722 5.62492 15.7986 4.70825 14.2292C3.79159 12.6597 3.33325 11 3.33325 9.25002V5.31252C3.33325 4.9653 3.43395 4.6528 3.63534 4.37502C3.83672 4.09724 4.09714 3.89585 4.41659 3.77085L9.41659 1.89585C9.51381 1.85419 9.61103 1.82641 9.70825 1.81252C9.80547 1.79863 9.9027 1.79169 9.99992 1.79169ZM14.1666 18.3334C13.0138 18.3334 12.0312 17.9271 11.2187 17.1146C10.4062 16.3021 9.99992 15.3195 9.99992 14.1667C9.99992 13.0139 10.4062 12.0313 11.2187 11.2188C12.0312 10.4063 13.0138 10 14.1666 10C15.3194 10 16.302 10.4063 17.1145 11.2188C17.927 12.0313 18.3333 13.0139 18.3333 14.1667C18.3333 15.3195 17.927 16.3021 17.1145 17.1146C16.302 17.9271 15.3194 18.3334 14.1666 18.3334ZM14.1666 14.1667C14.5138 14.1667 14.8089 14.0452 15.052 13.8021C15.2951 13.559 15.4166 13.2639 15.4166 12.9167C15.4166 12.5695 15.2951 12.2743 15.052 12.0313C14.8089 11.7882 14.5138 11.6667 14.1666 11.6667C13.8194 11.6667 13.5242 11.7882 13.2812 12.0313C13.0381 12.2743 12.9166 12.5695 12.9166 12.9167C12.9166 13.2639 13.0381 13.559 13.2812 13.8021C13.5242 14.0452 13.8194 14.1667 14.1666 14.1667ZM14.1666 16.6667C14.5138 16.6667 14.8402 16.6007 15.1458 16.4688C15.4513 16.3368 15.7221 16.1459 15.9583 15.8959C16.0277 15.8125 16.0555 15.7188 16.0416 15.6146C16.0277 15.5104 15.9652 15.4306 15.8541 15.375C15.5902 15.25 15.3159 15.1563 15.0312 15.0938C14.7464 15.0313 14.4583 15 14.1666 15C13.8749 15 13.5867 15.0313 13.302 15.0938C13.0173 15.1563 12.743 15.25 12.4791 15.375C12.368 15.4306 12.3055 15.5104 12.2916 15.6146C12.2777 15.7188 12.3055 15.8125 12.3749 15.8959C12.611 16.1459 12.8819 16.3368 13.1874 16.4688C13.493 16.6007 13.8194 16.6667 14.1666 16.6667Z" fill="currentColor"/>
</svg>