<svg width="483" height="237" viewBox="0 0 483 237" fill="none" xmlns="http://www.w3.org/2000/svg">
<rect width="483" height="237" fill="white"/>
<g clip-path="url(#clip0_406_57227)">
<path d="M83.2305 71.4863L84.5566 71.8213C84.2786 72.9105 83.7773 73.7422 83.0527 74.3164C82.3327 74.8861 81.4508 75.1709 80.4072 75.1709C79.3271 75.1709 78.4476 74.9521 77.7686 74.5146C77.0941 74.0726 76.5791 73.4346 76.2236 72.6006C75.8727 71.7666 75.6973 70.8711 75.6973 69.9141C75.6973 68.8704 75.8955 67.9613 76.292 67.1865C76.693 66.4072 77.2604 65.8171 77.9941 65.416C78.7324 65.0104 79.5436 64.8076 80.4277 64.8076C81.4303 64.8076 82.2734 65.0628 82.957 65.5732C83.6406 66.0837 84.1169 66.8014 84.3857 67.7266L83.0801 68.0342C82.8477 67.305 82.5104 66.7741 82.0684 66.4414C81.6263 66.1087 81.0703 65.9424 80.4004 65.9424C79.6302 65.9424 78.9854 66.127 78.4658 66.4961C77.9508 66.8652 77.5885 67.362 77.3789 67.9863C77.1693 68.6061 77.0645 69.2464 77.0645 69.9072C77.0645 70.7594 77.1875 71.5046 77.4336 72.1426C77.6842 72.776 78.0716 73.25 78.5957 73.5645C79.1198 73.8789 79.6872 74.0361 80.2979 74.0361C81.0407 74.0361 81.6696 73.8219 82.1846 73.3936C82.6995 72.9652 83.0482 72.3294 83.2305 71.4863ZM85.582 71.3701C85.582 70.0257 85.9557 69.0299 86.7031 68.3828C87.3275 67.8451 88.0885 67.5762 88.9863 67.5762C89.9844 67.5762 90.8001 67.9043 91.4336 68.5605C92.0671 69.2122 92.3838 70.1146 92.3838 71.2676C92.3838 72.2018 92.2425 72.9378 91.96 73.4756C91.682 74.0088 91.2741 74.4235 90.7363 74.7197C90.2031 75.016 89.6198 75.1641 88.9863 75.1641C87.9701 75.1641 87.1475 74.8382 86.5186 74.1865C85.8942 73.5348 85.582 72.596 85.582 71.3701ZM86.8467 71.3701C86.8467 72.2998 87.0495 72.9971 87.4551 73.4619C87.8607 73.9222 88.3711 74.1523 88.9863 74.1523C89.597 74.1523 90.1051 73.9199 90.5107 73.4551C90.9163 72.9902 91.1191 72.2816 91.1191 71.3291C91.1191 70.4313 90.9141 69.7523 90.5039 69.292C90.0983 68.8271 89.5924 68.5947 88.9863 68.5947C88.3711 68.5947 87.8607 68.8249 87.4551 69.2852C87.0495 69.7454 86.8467 70.4404 86.8467 71.3701ZM93.833 75V67.7402H94.9336V68.7588C95.1615 68.4033 95.4645 68.1185 95.8428 67.9043C96.221 67.6855 96.6517 67.5762 97.1348 67.5762C97.6725 67.5762 98.1123 67.6878 98.4541 67.9111C98.8005 68.1344 99.0443 68.4466 99.1855 68.8477C99.7598 68 100.507 67.5762 101.428 67.5762C102.148 67.5762 102.701 67.7767 103.089 68.1777C103.476 68.5742 103.67 69.1872 103.67 70.0166V75H102.446V70.4268C102.446 69.9346 102.405 69.5814 102.323 69.3672C102.246 69.1484 102.102 68.973 101.893 68.8408C101.683 68.7087 101.437 68.6426 101.154 68.6426C100.644 68.6426 100.22 68.8135 99.8828 69.1553C99.5456 69.4925 99.377 70.0348 99.377 70.7822V75H98.1465V70.2832C98.1465 69.7363 98.0462 69.3262 97.8457 69.0527C97.6452 68.7793 97.3171 68.6426 96.8613 68.6426C96.515 68.6426 96.1937 68.7337 95.8975 68.916C95.6058 69.0983 95.3939 69.3649 95.2617 69.7158C95.1296 70.0667 95.0635 70.5726 95.0635 71.2334V75H93.833ZM105.495 75V67.7402H106.596V68.7588C106.824 68.4033 107.127 68.1185 107.505 67.9043C107.883 67.6855 108.314 67.5762 108.797 67.5762C109.335 67.5762 109.774 67.6878 110.116 67.9111C110.463 68.1344 110.706 68.4466 110.848 68.8477C111.422 68 112.169 67.5762 113.09 67.5762C113.81 67.5762 114.364 67.7767 114.751 68.1777C115.138 68.5742 115.332 69.1872 115.332 70.0166V75H114.108V70.4268C114.108 69.9346 114.067 69.5814 113.985 69.3672C113.908 69.1484 113.764 68.973 113.555 68.8408C113.345 68.7087 113.099 68.6426 112.816 68.6426C112.306 68.6426 111.882 68.8135 111.545 69.1553C111.208 69.4925 111.039 70.0348 111.039 70.7822V75H109.809V70.2832C109.809 69.7363 109.708 69.3262 109.508 69.0527C109.307 68.7793 108.979 68.6426 108.523 68.6426C108.177 68.6426 107.856 68.7337 107.56 68.916C107.268 69.0983 107.056 69.3649 106.924 69.7158C106.792 70.0667 106.726 70.5726 106.726 71.2334V75H105.495ZM122.127 72.6621L123.398 72.8193C123.198 73.5622 122.826 74.1387 122.284 74.5488C121.742 74.959 121.049 75.1641 120.206 75.1641C119.144 75.1641 118.301 74.8382 117.677 74.1865C117.057 73.5303 116.747 72.612 116.747 71.4316C116.747 70.2103 117.062 69.2624 117.69 68.5879C118.319 67.9134 119.135 67.5762 120.138 67.5762C121.108 67.5762 121.901 67.9066 122.517 68.5674C123.132 69.2282 123.439 70.1579 123.439 71.3564C123.439 71.4294 123.437 71.5387 123.433 71.6846H118.019C118.064 72.4821 118.29 73.0928 118.695 73.5166C119.101 73.9404 119.607 74.1523 120.213 74.1523C120.664 74.1523 121.049 74.0339 121.368 73.7969C121.687 73.5599 121.94 73.1816 122.127 72.6621ZM118.087 70.6729H122.141C122.086 70.0622 121.931 69.6042 121.676 69.2988C121.284 68.8249 120.776 68.5879 120.151 68.5879C119.586 68.5879 119.11 68.777 118.723 69.1553C118.34 69.5335 118.128 70.0394 118.087 70.6729ZM124.95 75V67.7402H126.058V68.7725C126.591 67.9749 127.361 67.5762 128.368 67.5762C128.806 67.5762 129.207 67.6559 129.571 67.8154C129.94 67.9704 130.216 68.1755 130.398 68.4307C130.581 68.6859 130.708 68.9889 130.781 69.3398C130.827 69.5677 130.85 69.9665 130.85 70.5361V75H129.619V70.584C129.619 70.0827 129.571 69.709 129.476 69.4629C129.38 69.2122 129.209 69.014 128.963 68.8682C128.721 68.7178 128.437 68.6426 128.108 68.6426C127.584 68.6426 127.131 68.8089 126.748 69.1416C126.37 69.4743 126.181 70.1055 126.181 71.0352V75H124.95ZM135.43 73.8994L135.607 74.9863C135.261 75.0592 134.951 75.0957 134.678 75.0957C134.231 75.0957 133.885 75.0251 133.639 74.8838C133.393 74.7425 133.219 74.5579 133.119 74.3301C133.019 74.0977 132.969 73.6123 132.969 72.874V68.6973H132.066V67.7402H132.969V65.9424L134.192 65.2041V67.7402H135.43V68.6973H134.192V72.9424C134.192 73.2933 134.213 73.5189 134.254 73.6191C134.299 73.7194 134.37 73.7992 134.466 73.8584C134.566 73.9176 134.707 73.9473 134.89 73.9473C135.026 73.9473 135.206 73.9313 135.43 73.8994ZM141.377 74.1045C140.921 74.4919 140.481 74.7653 140.058 74.9248C139.638 75.0843 139.187 75.1641 138.704 75.1641C137.907 75.1641 137.294 74.9704 136.865 74.583C136.437 74.1911 136.223 73.6921 136.223 73.0859C136.223 72.7305 136.302 72.4069 136.462 72.1152C136.626 71.819 136.838 71.582 137.098 71.4043C137.362 71.2266 137.658 71.0921 137.986 71.001C138.228 70.9372 138.592 70.8757 139.08 70.8164C140.074 70.6979 140.805 70.5566 141.274 70.3926C141.279 70.224 141.281 70.1169 141.281 70.0713C141.281 69.57 141.165 69.2168 140.933 69.0117C140.618 68.7337 140.151 68.5947 139.531 68.5947C138.952 68.5947 138.524 68.6973 138.246 68.9023C137.973 69.1029 137.77 69.4606 137.638 69.9756L136.435 69.8115C136.544 69.2965 136.724 68.8818 136.975 68.5674C137.225 68.2484 137.588 68.0046 138.062 67.8359C138.535 67.6628 139.085 67.5762 139.709 67.5762C140.329 67.5762 140.832 67.6491 141.22 67.7949C141.607 67.9408 141.892 68.1253 142.074 68.3486C142.257 68.5674 142.384 68.8454 142.457 69.1826C142.498 69.3923 142.519 69.7705 142.519 70.3174V71.958C142.519 73.1019 142.544 73.8265 142.594 74.1318C142.648 74.4326 142.753 74.722 142.908 75H141.623C141.495 74.7448 141.413 74.4463 141.377 74.1045ZM141.274 71.3564C140.828 71.5387 140.158 71.6937 139.265 71.8213C138.759 71.8942 138.401 71.9762 138.191 72.0674C137.982 72.1585 137.82 72.293 137.706 72.4707C137.592 72.6439 137.535 72.8376 137.535 73.0518C137.535 73.3799 137.658 73.6533 137.904 73.8721C138.155 74.0908 138.52 74.2002 138.998 74.2002C139.472 74.2002 139.894 74.0977 140.263 73.8926C140.632 73.6829 140.903 73.3981 141.076 73.0381C141.208 72.7601 141.274 72.3499 141.274 71.8076V71.3564ZM144.439 66.3936V64.9785H145.67V66.3936H144.439ZM144.439 75V67.7402H145.67V75H144.439ZM147.536 75V67.7402H148.644V68.8408C148.926 68.3258 149.186 67.9863 149.423 67.8223C149.664 67.6582 149.929 67.5762 150.216 67.5762C150.631 67.5762 151.052 67.7083 151.48 67.9727L151.057 69.1143C150.756 68.9365 150.455 68.8477 150.154 68.8477C149.885 68.8477 149.644 68.9297 149.43 69.0938C149.215 69.2533 149.063 69.4766 148.972 69.7637C148.835 70.2012 148.767 70.6797 148.767 71.1992V75H147.536ZM157.182 72.6621L158.453 72.8193C158.253 73.5622 157.881 74.1387 157.339 74.5488C156.797 74.959 156.104 75.1641 155.261 75.1641C154.199 75.1641 153.356 74.8382 152.731 74.1865C152.112 73.5303 151.802 72.612 151.802 71.4316C151.802 70.2103 152.116 69.2624 152.745 68.5879C153.374 67.9134 154.19 67.5762 155.192 67.5762C156.163 67.5762 156.956 67.9066 157.571 68.5674C158.187 69.2282 158.494 70.1579 158.494 71.3564C158.494 71.4294 158.492 71.5387 158.487 71.6846H153.073C153.119 72.4821 153.344 73.0928 153.75 73.5166C154.156 73.9404 154.661 74.1523 155.268 74.1523C155.719 74.1523 156.104 74.0339 156.423 73.7969C156.742 73.5599 156.995 73.1816 157.182 72.6621ZM153.142 70.6729H157.195C157.141 70.0622 156.986 69.6042 156.73 69.2988C156.339 68.8249 155.83 68.5879 155.206 68.5879C154.641 68.5879 154.165 68.777 153.777 69.1553C153.395 69.5335 153.183 70.0394 153.142 70.6729ZM159.513 72.833L160.729 72.6416C160.798 73.1292 160.987 73.5029 161.297 73.7627C161.611 74.0225 162.049 74.1523 162.609 74.1523C163.174 74.1523 163.594 74.0384 163.867 73.8105C164.141 73.5781 164.277 73.307 164.277 72.9971C164.277 72.7191 164.157 72.5003 163.915 72.3408C163.746 72.2314 163.327 72.0924 162.657 71.9238C161.755 71.696 161.128 71.5 160.777 71.3359C160.431 71.1673 160.167 70.9372 159.984 70.6455C159.807 70.3493 159.718 70.0234 159.718 69.668C159.718 69.3444 159.791 69.0459 159.937 68.7725C160.087 68.4945 160.29 68.2643 160.545 68.082C160.736 67.9408 160.996 67.8223 161.324 67.7266C161.657 67.6263 162.012 67.5762 162.391 67.5762C162.96 67.5762 163.459 67.6582 163.888 67.8223C164.321 67.9863 164.64 68.2096 164.845 68.4922C165.05 68.7702 165.191 69.1439 165.269 69.6133L164.065 69.7773C164.011 69.4036 163.851 69.112 163.587 68.9023C163.327 68.6927 162.958 68.5879 162.479 68.5879C161.914 68.5879 161.511 68.6813 161.27 68.8682C161.028 69.055 160.907 69.2738 160.907 69.5244C160.907 69.6839 160.957 69.8275 161.058 69.9551C161.158 70.0872 161.315 70.1966 161.529 70.2832C161.652 70.3288 162.015 70.4336 162.616 70.5977C163.487 70.8301 164.093 71.0215 164.435 71.1719C164.781 71.3177 165.052 71.5319 165.248 71.8145C165.444 72.097 165.542 72.4479 165.542 72.8672C165.542 73.2773 165.421 73.6647 165.18 74.0293C164.943 74.3893 164.599 74.6696 164.147 74.8701C163.696 75.0661 163.186 75.1641 162.616 75.1641C161.673 75.1641 160.953 74.9681 160.456 74.5762C159.964 74.1842 159.649 73.6032 159.513 72.833Z" fill="#3E3E3D"/>
</g>
<path d="M379.439 71.7637C379.439 70.748 379.543 69.9316 379.75 69.3145C379.961 68.6934 380.271 68.2148 380.682 67.8789C381.096 67.543 381.615 67.375 382.24 67.375C382.701 67.375 383.105 67.4688 383.453 67.6562C383.801 67.8398 384.088 68.1074 384.314 68.459C384.541 68.8066 384.719 69.2324 384.848 69.7363C384.977 70.2363 385.041 70.9121 385.041 71.7637C385.041 72.7715 384.938 73.5859 384.73 74.207C384.523 74.8242 384.213 75.3027 383.799 75.6426C383.389 75.9785 382.869 76.1465 382.24 76.1465C381.412 76.1465 380.762 75.8496 380.289 75.2559C379.723 74.541 379.439 73.377 379.439 71.7637ZM380.523 71.7637C380.523 73.1738 380.688 74.1133 381.016 74.582C381.348 75.0469 381.756 75.2793 382.24 75.2793C382.725 75.2793 383.131 75.0449 383.459 74.5762C383.791 74.1074 383.957 73.1699 383.957 71.7637C383.957 70.3496 383.791 69.4102 383.459 68.9453C383.131 68.4805 382.721 68.248 382.229 68.248C381.744 68.248 381.357 68.4531 381.068 68.8633C380.705 69.3867 380.523 70.3535 380.523 71.7637ZM385.621 76.1465L388.111 67.2637H388.955L386.471 76.1465H385.621ZM389.465 73.7324L390.52 73.5918C390.641 74.1895 390.846 74.6211 391.135 74.8867C391.428 75.1484 391.783 75.2793 392.201 75.2793C392.697 75.2793 393.115 75.1074 393.455 74.7637C393.799 74.4199 393.971 73.9941 393.971 73.4863C393.971 73.002 393.812 72.6035 393.496 72.291C393.18 71.9746 392.777 71.8164 392.289 71.8164C392.09 71.8164 391.842 71.8555 391.545 71.9336L391.662 71.0078C391.732 71.0156 391.789 71.0195 391.832 71.0195C392.281 71.0195 392.686 70.9023 393.045 70.668C393.404 70.4336 393.584 70.0723 393.584 69.584C393.584 69.1973 393.453 68.877 393.191 68.623C392.93 68.3691 392.592 68.2422 392.178 68.2422C391.768 68.2422 391.426 68.3711 391.152 68.6289C390.879 68.8867 390.703 69.2734 390.625 69.7891L389.57 69.6016C389.699 68.8945 389.992 68.3477 390.449 67.9609C390.906 67.5703 391.475 67.375 392.154 67.375C392.623 67.375 393.055 67.4766 393.449 67.6797C393.844 67.8789 394.145 68.1523 394.352 68.5C394.562 68.8477 394.668 69.2168 394.668 69.6074C394.668 69.9785 394.568 70.3164 394.369 70.6211C394.17 70.9258 393.875 71.168 393.484 71.3477C393.992 71.4648 394.387 71.709 394.668 72.0801C394.949 72.4473 395.09 72.9082 395.09 73.4629C395.09 74.2129 394.816 74.8496 394.27 75.373C393.723 75.8926 393.031 76.1523 392.195 76.1523C391.441 76.1523 390.814 75.9277 390.314 75.4785C389.818 75.0293 389.535 74.4473 389.465 73.7324ZM396.139 73.75L397.246 73.6562C397.328 74.1953 397.518 74.6016 397.814 74.875C398.115 75.1445 398.477 75.2793 398.898 75.2793C399.406 75.2793 399.836 75.0879 400.188 74.7051C400.539 74.3223 400.715 73.8145 400.715 73.1816C400.715 72.5801 400.545 72.1055 400.205 71.7578C399.869 71.4102 399.428 71.2363 398.881 71.2363C398.541 71.2363 398.234 71.3145 397.961 71.4707C397.688 71.623 397.473 71.8223 397.316 72.0684L396.326 71.9395L397.158 67.5273H401.43V68.5352H398.002L397.539 70.8438C398.055 70.4844 398.596 70.3047 399.162 70.3047C399.912 70.3047 400.545 70.5645 401.061 71.084C401.576 71.6035 401.834 72.2715 401.834 73.0879C401.834 73.8652 401.607 74.5371 401.154 75.1035C400.604 75.7988 399.852 76.1465 398.898 76.1465C398.117 76.1465 397.479 75.9277 396.982 75.4902C396.49 75.0527 396.209 74.4727 396.139 73.75ZM402.818 71.7637C402.818 70.748 402.922 69.9316 403.129 69.3145C403.34 68.6934 403.65 68.2148 404.061 67.8789C404.475 67.543 404.994 67.375 405.619 67.375C406.08 67.375 406.484 67.4688 406.832 67.6562C407.18 67.8398 407.467 68.1074 407.693 68.459C407.92 68.8066 408.098 69.2324 408.227 69.7363C408.355 70.2363 408.42 70.9121 408.42 71.7637C408.42 72.7715 408.316 73.5859 408.109 74.207C407.902 74.8242 407.592 75.3027 407.178 75.6426C406.768 75.9785 406.248 76.1465 405.619 76.1465C404.791 76.1465 404.141 75.8496 403.668 75.2559C403.102 74.541 402.818 73.377 402.818 71.7637ZM403.902 71.7637C403.902 73.1738 404.066 74.1133 404.395 74.582C404.727 75.0469 405.135 75.2793 405.619 75.2793C406.104 75.2793 406.51 75.0449 406.838 74.5762C407.17 74.1074 407.336 73.1699 407.336 71.7637C407.336 70.3496 407.17 69.4102 406.838 68.9453C406.51 68.4805 406.1 68.248 405.607 68.248C405.123 68.248 404.736 68.4531 404.447 68.8633C404.084 69.3867 403.902 70.3535 403.902 71.7637Z" fill="#737272"/>
<g filter="url(#filter0_i_406_57227)">
<path d="M67 90C67 85.5817 70.5817 82 75 82H409C413.418 82 417 85.5817 417 90V170C417 174.418 413.418 178 409 178H75C70.5817 178 67 174.418 67 170V90Z" fill="white"/>
<path d="M75 82.5H409C413.142 82.5 416.5 85.8579 416.5 90V170C416.5 174.142 413.142 177.5 409 177.5H75C70.8579 177.5 67.5 174.142 67.5 170V90C67.5 85.8579 70.8579 82.5 75 82.5Z" stroke="#A1A1A0"/>
<path d="M406 89C406 87.3431 407.343 86 409 86C410.657 86 412 87.3431 412 89V107C412 108.657 410.657 110 409 110C407.343 110 406 108.657 406 107V89Z" fill="#737272"/>
<path d="M404.35 174.091C404.149 173.89 404.149 173.563 404.35 173.361L412.362 165.351C412.564 165.15 412.891 165.15 413.093 165.351C413.294 165.553 413.294 165.88 413.093 166.081L405.08 174.091C404.879 174.293 404.552 174.293 404.35 174.091Z" fill="#737272"/>
<path d="M407.967 174.636C407.765 174.434 407.765 174.107 407.967 173.906L412.918 168.956C413.12 168.754 413.446 168.754 413.648 168.956C413.85 169.158 413.85 169.484 413.648 169.686L408.697 174.636C408.495 174.837 408.168 174.837 407.967 174.636Z" fill="#737272"/>
</g>
<path d="M31.1 112C30.82 112 30.6 111.92 30.44 111.76C30.28 111.6 30.2 111.387 30.2 111.12C30.2 110.84 30.28 110.627 30.44 110.48C30.6 110.333 30.82 110.26 31.1 110.26H33.54V99.62H34.58L31.66 101.48C31.4467 101.6 31.2467 101.647 31.06 101.62C30.8867 101.593 30.7333 101.52 30.6 101.4C30.48 101.28 30.3933 101.133 30.34 100.96C30.3 100.787 30.3133 100.607 30.38 100.42C30.46 100.233 30.6 100.08 30.8 99.96L33.56 98.22C33.7867 98.0867 34 97.98 34.2 97.9C34.4133 97.8067 34.6133 97.76 34.8 97.76C35.0267 97.76 35.2133 97.8267 35.36 97.96C35.52 98.08 35.6 98.2867 35.6 98.58V110.26H37.84C38.1333 110.26 38.36 110.333 38.52 110.48C38.68 110.627 38.76 110.84 38.76 111.12C38.76 111.4 38.68 111.62 38.52 111.78C38.36 111.927 38.1333 112 37.84 112H31.1ZM41.8922 112.08C41.5055 112.08 41.1922 111.96 40.9522 111.72C40.7122 111.48 40.5922 111.173 40.5922 110.8C40.5922 110.427 40.7122 110.127 40.9522 109.9C41.1922 109.66 41.5055 109.54 41.8922 109.54C42.2789 109.54 42.5855 109.66 42.8122 109.9C43.0389 110.127 43.1522 110.427 43.1522 110.8C43.1522 111.173 43.0389 111.48 42.8122 111.72C42.5855 111.96 42.2789 112.08 41.8922 112.08Z" fill="#737272"/>
<path d="M64.6667 104.5C64.6667 103.027 63.4728 101.833 62 101.833C60.5272 101.833 59.3333 103.027 59.3333 104.5C59.3333 105.973 60.5272 107.167 62 107.167C63.4728 107.167 64.6667 105.973 64.6667 104.5ZM62 104.5L62 104L45 104L45 104.5L45 105L62 105L62 104.5Z" fill="#737272"/>
<path d="M99.62 45C99.26 45 99 44.92 98.84 44.76C98.68 44.5867 98.6 44.3533 98.6 44.06C98.6 43.8733 98.6467 43.6933 98.74 43.52C98.8333 43.3467 98.9667 43.1667 99.14 42.98L103.4 38.42C104.053 37.7267 104.52 37.0933 104.8 36.52C105.093 35.9333 105.24 35.3467 105.24 34.76C105.24 34.0133 105.013 33.4467 104.56 33.06C104.107 32.6733 103.44 32.48 102.56 32.48C102.027 32.48 101.513 32.56 101.02 32.72C100.527 32.88 100.033 33.14 99.54 33.5C99.34 33.6333 99.1533 33.6933 98.98 33.68C98.8067 33.6667 98.6533 33.6 98.52 33.48C98.4 33.36 98.32 33.2133 98.28 33.04C98.24 32.8667 98.2467 32.6867 98.3 32.5C98.3533 32.3133 98.48 32.1533 98.68 32.02C99.2267 31.6067 99.86 31.2867 100.58 31.06C101.3 30.8333 102.033 30.72 102.78 30.72C103.753 30.72 104.573 30.8733 105.24 31.18C105.92 31.4733 106.433 31.9067 106.78 32.48C107.127 33.0533 107.3 33.7533 107.3 34.58C107.3 35.14 107.207 35.6867 107.02 36.22C106.847 36.7533 106.573 37.3 106.2 37.86C105.84 38.4067 105.367 38.9867 104.78 39.6L100.74 43.84V43.26H107.1C107.393 43.26 107.62 43.3333 107.78 43.48C107.94 43.6267 108.02 43.84 108.02 44.12C108.02 44.4 107.94 44.62 107.78 44.78C107.62 44.9267 107.393 45 107.1 45H99.62ZM110.892 45.08C110.506 45.08 110.192 44.96 109.952 44.72C109.712 44.48 109.592 44.1733 109.592 43.8C109.592 43.4267 109.712 43.1267 109.952 42.9C110.192 42.66 110.506 42.54 110.892 42.54C111.279 42.54 111.586 42.66 111.812 42.9C112.039 43.1267 112.152 43.4267 112.152 43.8C112.152 44.1733 112.039 44.48 111.812 44.72C111.586 44.96 111.279 45.08 110.892 45.08Z" fill="#737272"/>
<path d="M111 63.6667C112.473 63.6667 113.667 62.4728 113.667 61C113.667 59.5272 112.473 58.3333 111 58.3333C109.527 58.3333 108.333 59.5272 108.333 61C108.333 62.4728 109.527 63.6667 111 63.6667ZM111 61H111.5V45H111H110.5V61H111Z" fill="#737272"/>
<path d="M383.78 45.18C383.033 45.18 382.273 45.08 381.5 44.88C380.727 44.6667 380.053 44.3533 379.48 43.94C379.267 43.8067 379.12 43.6467 379.04 43.46C378.973 43.26 378.96 43.08 379 42.92C379.04 42.7467 379.12 42.6 379.24 42.48C379.373 42.36 379.533 42.2933 379.72 42.28C379.907 42.2533 380.113 42.3067 380.34 42.44C380.913 42.7867 381.473 43.04 382.02 43.2C382.567 43.3467 383.133 43.42 383.72 43.42C384.36 43.42 384.9 43.3267 385.34 43.14C385.78 42.9533 386.107 42.68 386.32 42.32C386.547 41.96 386.66 41.5267 386.66 41.02C386.66 40.26 386.407 39.6933 385.9 39.32C385.407 38.9333 384.687 38.74 383.74 38.74H382.38C382.073 38.74 381.84 38.6667 381.68 38.52C381.52 38.36 381.44 38.14 381.44 37.86C381.44 37.5933 381.52 37.3867 381.68 37.24C381.84 37.08 382.073 37 382.38 37H383.54C384.113 37 384.6 36.9067 385 36.72C385.4 36.52 385.707 36.2467 385.92 35.9C386.147 35.54 386.26 35.1067 386.26 34.6C386.26 33.92 386.033 33.4 385.58 33.04C385.14 32.6667 384.493 32.48 383.64 32.48C383.093 32.48 382.573 32.5533 382.08 32.7C381.6 32.8467 381.1 33.1067 380.58 33.48C380.38 33.6133 380.187 33.6733 380 33.66C379.827 33.6333 379.673 33.5667 379.54 33.46C379.42 33.34 379.333 33.1933 379.28 33.02C379.24 32.8467 379.253 32.6667 379.32 32.48C379.387 32.2933 379.52 32.1333 379.72 32C380.28 31.5867 380.913 31.2733 381.62 31.06C382.327 30.8333 383.053 30.72 383.8 30.72C384.733 30.72 385.533 30.8667 386.2 31.16C386.88 31.4533 387.393 31.8733 387.74 32.42C388.1 32.9667 388.28 33.62 388.28 34.38C388.28 34.9533 388.173 35.4733 387.96 35.94C387.747 36.4067 387.44 36.8067 387.04 37.14C386.653 37.46 386.18 37.6867 385.62 37.82V37.6C386.593 37.76 387.347 38.16 387.88 38.8C388.413 39.4267 388.68 40.2133 388.68 41.16C388.68 41.9867 388.48 42.7067 388.08 43.32C387.693 43.92 387.133 44.38 386.4 44.7C385.667 45.02 384.793 45.18 383.78 45.18ZM391.892 45.08C391.506 45.08 391.192 44.96 390.952 44.72C390.712 44.48 390.592 44.1733 390.592 43.8C390.592 43.4267 390.712 43.1267 390.952 42.9C391.192 42.66 391.506 42.54 391.892 42.54C392.279 42.54 392.586 42.66 392.812 42.9C393.039 43.1267 393.152 43.4267 393.152 43.8C393.152 44.1733 393.039 44.48 392.812 44.72C392.586 44.96 392.279 45.08 391.892 45.08Z" fill="#737272"/>
<path d="M392 63.6667C393.473 63.6667 394.667 62.4728 394.667 61C394.667 59.5272 393.473 58.3333 392 58.3333C390.527 58.3333 389.333 59.5272 389.333 61C389.333 62.4728 390.527 63.6667 392 63.6667ZM392 61H392.5V45H392H391.5V61H392Z" fill="#737272"/>
<path d="M440.32 106.14C440 106.14 439.747 106.053 439.56 105.88C439.373 105.693 439.28 105.44 439.28 105.12V103.14H433.92C433.587 103.14 433.32 103.067 433.12 102.92C432.92 102.773 432.82 102.547 432.82 102.24C432.82 102.067 432.86 101.88 432.94 101.68C433.033 101.48 433.193 101.22 433.42 100.9L439.24 92.44C439.387 92.2133 439.553 92.0467 439.74 91.94C439.927 91.82 440.14 91.76 440.38 91.76C440.66 91.76 440.887 91.8467 441.06 92.02C441.247 92.18 441.34 92.4333 441.34 92.78V101.4H442.6C442.92 101.4 443.153 101.473 443.3 101.62C443.46 101.767 443.54 101.98 443.54 102.26C443.54 102.553 443.46 102.773 443.3 102.92C443.153 103.067 442.92 103.14 442.6 103.14H441.34V105.12C441.34 105.44 441.247 105.693 441.06 105.88C440.887 106.053 440.64 106.14 440.32 106.14ZM439.28 101.4V94.34H439.82L434.6 101.96V101.4H439.28ZM445.892 106.08C445.506 106.08 445.192 105.96 444.952 105.72C444.712 105.48 444.592 105.173 444.592 104.8C444.592 104.427 444.712 104.127 444.952 103.9C445.192 103.66 445.506 103.54 445.892 103.54C446.279 103.54 446.586 103.66 446.812 103.9C447.039 104.127 447.152 104.427 447.152 104.8C447.152 105.173 447.039 105.48 446.812 105.72C446.586 105.96 446.279 106.08 445.892 106.08Z" fill="#737272"/>
<path d="M412.333 98.5C412.333 99.9728 413.527 101.167 415 101.167C416.473 101.167 417.667 99.9728 417.667 98.5C417.667 97.0272 416.473 95.8333 415 95.8333C413.527 95.8333 412.333 97.0272 412.333 98.5ZM415 98.5L415 99L432 99L432 98.5L432 98L415 98L415 98.5Z" fill="#737272"/>
<path d="M440.22 178.18C439.487 178.18 438.747 178.08 438 177.88C437.253 177.667 436.573 177.34 435.96 176.9C435.76 176.78 435.627 176.627 435.56 176.44C435.493 176.253 435.48 176.073 435.52 175.9C435.56 175.713 435.64 175.56 435.76 175.44C435.893 175.32 436.053 175.253 436.24 175.24C436.427 175.213 436.627 175.267 436.84 175.4C437.36 175.733 437.893 175.987 438.44 176.16C439 176.333 439.58 176.42 440.18 176.42C440.793 176.42 441.32 176.307 441.76 176.08C442.2 175.853 442.533 175.54 442.76 175.14C443 174.727 443.12 174.247 443.12 173.7C443.12 172.86 442.873 172.173 442.38 171.64C441.887 171.107 441.2 170.84 440.32 170.84C439.813 170.84 439.34 170.933 438.9 171.12C438.46 171.293 438.04 171.587 437.64 172C437.547 172.107 437.42 172.207 437.26 172.3C437.113 172.38 436.947 172.42 436.76 172.42C436.48 172.42 436.267 172.347 436.12 172.2C435.973 172.053 435.9 171.853 435.9 171.6V164.82C435.9 164.527 435.98 164.3 436.14 164.14C436.3 163.98 436.527 163.9 436.82 163.9H443.52C443.813 163.9 444.04 163.973 444.2 164.12C444.36 164.267 444.44 164.48 444.44 164.76C444.44 165.04 444.36 165.26 444.2 165.42C444.04 165.567 443.813 165.64 443.52 165.64H437.92V170.72H437.36C437.72 170.213 438.193 169.82 438.78 169.54C439.38 169.26 440.04 169.12 440.76 169.12C441.653 169.12 442.427 169.307 443.08 169.68C443.733 170.053 444.24 170.58 444.6 171.26C444.96 171.927 445.14 172.707 445.14 173.6C445.14 174.507 444.94 175.307 444.54 176C444.14 176.68 443.573 177.213 442.84 177.6C442.107 177.987 441.233 178.18 440.22 178.18ZM447.892 178.08C447.506 178.08 447.192 177.96 446.952 177.72C446.712 177.48 446.592 177.173 446.592 176.8C446.592 176.427 446.712 176.127 446.952 175.9C447.192 175.66 447.506 175.54 447.892 175.54C448.279 175.54 448.586 175.66 448.812 175.9C449.039 176.127 449.152 176.427 449.152 176.8C449.152 177.173 449.039 177.48 448.812 177.72C448.586 177.96 448.279 178.08 447.892 178.08Z" fill="#737272"/>
<path d="M414.333 170.5C414.333 171.973 415.527 173.167 417 173.167C418.473 173.167 419.667 171.973 419.667 170.5C419.667 169.027 418.473 167.833 417 167.833C415.527 167.833 414.333 169.027 414.333 170.5ZM417 170.5L417 171L434 171L434 170.5L434 170L417 170L417 170.5Z" fill="#737272"/>
<defs>
<filter id="filter0_i_406_57227" x="67" y="82" width="350" height="97" filterUnits="userSpaceOnUse" color-interpolation-filters="sRGB">
<feFlood flood-opacity="0" result="BackgroundImageFix"/>
<feBlend mode="normal" in="SourceGraphic" in2="BackgroundImageFix" result="shape"/>
<feColorMatrix in="SourceAlpha" type="matrix" values="0 0 0 0 0 0 0 0 0 0 0 0 0 0 0 0 0 0 127 0" result="hardAlpha"/>
<feOffset dy="1"/>
<feGaussianBlur stdDeviation="2"/>
<feComposite in2="hardAlpha" operator="arithmetic" k2="-1" k3="1"/>
<feColorMatrix type="matrix" values="0 0 0 0 0 0 0 0 0 0 0 0 0 0 0 0 0 0 0.14 0"/>
<feBlend mode="normal" in2="shape" result="effect1_innerShadow_406_57227"/>
</filter>
<clipPath id="clip0_406_57227">
<rect width="299" height="20" fill="white" transform="translate(75 60)"/>
</clipPath>
</defs>
</svg>
