<svg viewBox="0 0 20 20" fill="none" xmlns="http://www.w3.org/2000/svg">
<path d="M9.99563 18C9.58188 18 9.22917 17.8531 8.9375 17.5594C8.64583 17.2656 8.5 16.9125 8.5 16.5H11.5C11.5 16.9167 11.3527 17.2708 11.0581 17.5625C10.7635 17.8542 10.4094 18 9.99563 18ZM4.75604 15.5C4.54368 15.5 4.36458 15.4285 4.21875 15.2856C4.07292 15.1427 4 14.9656 4 14.7544C4 14.5431 4.07188 14.3646 4.21563 14.2188C4.35938 14.0729 4.5375 14 4.75 14H5V9C5 7.80917 5.37153 6.75104 6.11458 5.82563C6.85764 4.90021 7.81944 4.32639 9 4.10417V3C9 2.72222 9.09722 2.48611 9.29167 2.29167C9.48611 2.09722 9.72222 2 10 2C10.2778 2 10.5139 2.09722 10.7083 2.29167C10.9028 2.48611 11 2.72222 11 3V4.10417C11.125 4.13194 11.2548 4.15972 11.3894 4.1875C11.524 4.21528 11.6511 4.25694 11.7708 4.3125C11.9653 4.38194 12.1042 4.51042 12.1875 4.69792C12.2708 4.88542 12.2778 5.07639 12.2083 5.27083C12.1389 5.46528 12.0104 5.60764 11.8229 5.69792C11.6354 5.78819 11.4444 5.79861 11.25 5.72917C11.0278 5.65972 10.8021 5.60417 10.5729 5.5625C10.3438 5.52083 10.1528 5.5 10 5.5C9.02778 5.5 8.20139 5.84028 7.52083 6.52083C6.84028 7.20139 6.5 8.02778 6.5 9V14H13.5V12.75C13.5 12.5 13.5781 12.3125 13.7344 12.1875C13.8906 12.0625 14.0625 12 14.25 12C14.4375 12 14.6094 12.0625 14.7656 12.1875C14.9219 12.3125 15 12.5 15 12.75V14H15.25C15.4625 14 15.6406 14.0715 15.7844 14.2144C15.9281 14.3573 16 14.5344 16 14.7456C16 14.9569 15.9282 15.1354 15.7846 15.2812C15.6408 15.4271 15.4628 15.5 15.2504 15.5H4.75604ZM15.25 8.6875H13.6875C13.4926 8.6875 13.3294 8.62167 13.1977 8.49C13.0659 8.35833 13 8.19514 13 8.00042C13 7.8057 13.0659 7.64236 13.1977 7.51042C13.3294 7.37847 13.4926 7.3125 13.6875 7.3125H15.25V5.75C15.25 5.5375 15.3215 5.35937 15.4644 5.21562C15.6073 5.07187 15.7844 5 15.9956 5C16.2069 5 16.3854 5.07187 16.5312 5.21562C16.6771 5.35937 16.75 5.5375 16.75 5.75V7.3125H18.3125C18.5074 7.3125 18.6706 7.37833 18.8023 7.51C18.9341 7.64167 19 7.80486 19 7.99958C19 8.19431 18.9341 8.35764 18.8023 8.48958C18.6706 8.62153 18.5074 8.6875 18.3125 8.6875H16.75V10.25C16.75 10.4625 16.6785 10.6406 16.5356 10.7844C16.3927 10.9281 16.2156 11 16.0044 11C15.7931 11 15.6146 10.9281 15.4688 10.7844C15.3229 10.6406 15.25 10.4625 15.25 10.25V8.6875Z" fill="currentColor"/>
</svg>
