<svg viewBox="0 0 20 20" fill="none" xmlns="http://www.w3.org/2000/svg">
<path d="M3.33341 16.6667C2.87508 16.6667 2.48272 16.5035 2.15633 16.1771C1.82994 15.8507 1.66675 15.4584 1.66675 15V5.00002C1.66675 4.54169 1.82994 4.14933 2.15633 3.82294C2.48272 3.49655 2.87508 3.33335 3.33341 3.33335H10.8334C11.0695 3.33335 11.2674 3.41321 11.4272 3.57294C11.5869 3.73266 11.6667 3.93058 11.6667 4.16669C11.6667 4.4028 11.5869 4.60071 11.4272 4.76044C11.2674 4.92016 11.0695 5.00002 10.8334 5.00002H3.33341V15H16.6667V9.16669C16.6667 8.93058 16.7466 8.73266 16.9063 8.57294C17.0661 8.41322 17.264 8.33335 17.5001 8.33335C17.7362 8.33335 17.9341 8.41322 18.0938 8.57294C18.2536 8.73266 18.3334 8.93058 18.3334 9.16669V15C18.3334 15.4584 18.1702 15.8507 17.8438 16.1771C17.5174 16.5035 17.1251 16.6667 16.6667 16.6667H3.33341ZM10.0001 9.16669L12.6876 7.50002C12.882 7.37502 13.0661 7.34377 13.2397 7.40627C13.4133 7.46877 13.5487 7.57641 13.6459 7.72919C13.7431 7.88197 13.7779 8.04863 13.7501 8.22919C13.7223 8.40974 13.6112 8.56252 13.4167 8.68752L10.4376 10.5625C10.2987 10.6459 10.1529 10.6875 10.0001 10.6875C9.8473 10.6875 9.70147 10.6459 9.56258 10.5625L3.33341 6.66669V5.00002L10.0001 9.16669ZM15.8334 6.66669C15.139 6.66669 14.5487 6.42363 14.0626 5.93752C13.5765 5.45141 13.3334 4.86113 13.3334 4.16669C13.3334 3.47224 13.5765 2.88196 14.0626 2.39585C14.5487 1.90974 15.139 1.66669 15.8334 1.66669C16.5279 1.66669 17.1181 1.90974 17.6042 2.39585C18.0904 2.88196 18.3334 3.47224 18.3334 4.16669C18.3334 4.86113 18.0904 5.45141 17.6042 5.93752C17.1181 6.42363 16.5279 6.66669 15.8334 6.66669Z" fill="currentColor"/>
</svg>