<svg width="1159" height="160" viewBox="0 0 1159 160" fill="none" xmlns="http://www.w3.org/2000/svg">
<g clip-path="url(#clip0_304_42047)">
<rect width="579.5" height="61" fill="white"/>
<path d="M22.34 37.18C21.7267 37.18 21.1267 37.1333 20.54 37.04C19.9533 36.9467 19.4 36.8067 18.88 36.62C18.36 36.42 17.8933 36.18 17.48 35.9C17.28 35.7533 17.14 35.5867 17.06 35.4C16.9933 35.2133 16.9733 35.0333 17 34.86C17.04 34.6733 17.12 34.5133 17.24 34.38C17.36 34.2467 17.5067 34.1667 17.68 34.14C17.8533 34.1 18.0467 34.1533 18.26 34.3C18.86 34.6867 19.4933 34.9733 20.16 35.16C20.8267 35.3333 21.5533 35.42 22.34 35.42C23.4733 35.42 24.3067 35.22 24.84 34.82C25.3867 34.4067 25.66 33.8733 25.66 33.22C25.66 32.6867 25.4667 32.2667 25.08 31.96C24.6933 31.64 24.0467 31.3867 23.14 31.2L21 30.76C19.7333 30.4933 18.7867 30.0533 18.16 29.44C17.5467 28.8267 17.24 28 17.24 26.96C17.24 26.3333 17.3667 25.76 17.62 25.24C17.8867 24.72 18.2533 24.2733 18.72 23.9C19.1867 23.5133 19.7467 23.22 20.4 23.02C21.0533 22.82 21.7667 22.72 22.54 22.72C23.3667 22.72 24.14 22.8267 24.86 23.04C25.5933 23.2533 26.2467 23.58 26.82 24.02C26.9933 24.14 27.1067 24.2933 27.16 24.48C27.2267 24.6533 27.24 24.8267 27.2 25C27.1733 25.1733 27.1 25.32 26.98 25.44C26.86 25.56 26.7067 25.6333 26.52 25.66C26.3333 25.6733 26.1267 25.6067 25.9 25.46C25.38 25.1133 24.8467 24.8667 24.3 24.72C23.7667 24.56 23.1733 24.48 22.52 24.48C21.8667 24.48 21.2933 24.58 20.8 24.78C20.32 24.98 19.9467 25.26 19.68 25.62C19.4267 25.98 19.3 26.4067 19.3 26.9C19.3 27.46 19.48 27.9067 19.84 28.24C20.2 28.5733 20.8 28.8267 21.64 29L23.76 29.44C25.0933 29.72 26.0867 30.1533 26.74 30.74C27.3933 31.3267 27.72 32.1067 27.72 33.08C27.72 33.7067 27.5933 34.2733 27.34 34.78C27.0867 35.2733 26.7267 35.7 26.26 36.06C25.7933 36.42 25.2267 36.7 24.56 36.9C23.9067 37.0867 23.1667 37.18 22.34 37.18ZM33.4628 37.18C32.6628 37.18 31.9895 37.04 31.4428 36.76C30.8961 36.48 30.4895 36.0667 30.2228 35.52C29.9561 34.9733 29.8228 34.3067 29.8228 33.52V28.8H28.6228C28.3561 28.8 28.1495 28.7333 28.0028 28.6C27.8561 28.4533 27.7828 28.26 27.7828 28.02C27.7828 27.7667 27.8561 27.5733 28.0028 27.44C28.1495 27.3067 28.3561 27.24 28.6228 27.24H29.8228V25.18C29.8228 24.8467 29.9095 24.5933 30.0828 24.42C30.2695 24.2467 30.5228 24.16 30.8428 24.16C31.1628 24.16 31.4095 24.2467 31.5828 24.42C31.7561 24.5933 31.8428 24.8467 31.8428 25.18V27.24H34.1828C34.4495 27.24 34.6561 27.3067 34.8028 27.44C34.9495 27.5733 35.0228 27.7667 35.0228 28.02C35.0228 28.26 34.9495 28.4533 34.8028 28.6C34.6561 28.7333 34.4495 28.8 34.1828 28.8H31.8428V33.36C31.8428 34.0667 31.9895 34.6 32.2828 34.96C32.5895 35.32 33.0828 35.5 33.7628 35.5C34.0028 35.5 34.2095 35.48 34.3828 35.44C34.5695 35.3867 34.7228 35.3533 34.8428 35.34C34.9895 35.34 35.1095 35.3933 35.2028 35.5C35.2961 35.5933 35.3428 35.78 35.3428 36.06C35.3428 36.26 35.3028 36.4467 35.2228 36.62C35.1561 36.7933 35.0295 36.9067 34.8428 36.96C34.6828 37.0133 34.4628 37.06 34.1828 37.1C33.9161 37.1533 33.6761 37.18 33.4628 37.18ZM39.2275 37.18C38.5475 37.18 37.9342 37.0467 37.3875 36.78C36.8542 36.5133 36.4342 36.1533 36.1275 35.7C35.8208 35.2467 35.6675 34.7333 35.6675 34.16C35.6675 33.44 35.8475 32.8733 36.2075 32.46C36.5808 32.0333 37.1875 31.7333 38.0275 31.56C38.8808 31.3733 40.0275 31.28 41.4675 31.28H42.4075V32.52H41.4875C40.5275 32.52 39.7675 32.5667 39.2075 32.66C38.6475 32.7533 38.2475 32.9133 38.0075 33.14C37.7808 33.3533 37.6675 33.6533 37.6675 34.04C37.6675 34.5467 37.8408 34.96 38.1875 35.28C38.5342 35.5867 39.0142 35.74 39.6275 35.74C40.1208 35.74 40.5542 35.6267 40.9275 35.4C41.3008 35.16 41.5942 34.84 41.8075 34.44C42.0342 34.04 42.1475 33.58 42.1475 33.06V30.76C42.1475 30 41.9875 29.4533 41.6675 29.12C41.3475 28.7867 40.8208 28.62 40.0875 28.62C39.6608 28.62 39.2142 28.6733 38.7475 28.78C38.2942 28.8867 37.8208 29.0667 37.3275 29.32C37.1008 29.4267 36.9075 29.46 36.7475 29.42C36.5875 29.38 36.4608 29.2933 36.3675 29.16C36.2742 29.0133 36.2208 28.86 36.2075 28.7C36.2075 28.5267 36.2475 28.36 36.3275 28.2C36.4208 28.04 36.5742 27.92 36.7875 27.84C37.3742 27.56 37.9542 27.36 38.5275 27.24C39.1008 27.12 39.6408 27.06 40.1475 27.06C41.0408 27.06 41.7742 27.2 42.3475 27.48C42.9342 27.76 43.3675 28.1867 43.6475 28.76C43.9275 29.3333 44.0675 30.0733 44.0675 30.98V36.12C44.0675 36.44 43.9875 36.6933 43.8275 36.88C43.6675 37.0533 43.4342 37.14 43.1275 37.14C42.8342 37.14 42.6008 37.0533 42.4275 36.88C42.2542 36.6933 42.1675 36.44 42.1675 36.12V34.82H42.3475C42.2408 35.3133 42.0408 35.74 41.7475 36.1C41.4675 36.4467 41.1142 36.7133 40.6875 36.9C40.2608 37.0867 39.7742 37.18 39.2275 37.18ZM50.5097 37.18C49.7097 37.18 49.0364 37.04 48.4897 36.76C47.943 36.48 47.5364 36.0667 47.2697 35.52C47.003 34.9733 46.8697 34.3067 46.8697 33.52V28.8H45.6697C45.403 28.8 45.1964 28.7333 45.0497 28.6C44.903 28.4533 44.8297 28.26 44.8297 28.02C44.8297 27.7667 44.903 27.5733 45.0497 27.44C45.1964 27.3067 45.403 27.24 45.6697 27.24H46.8697V25.18C46.8697 24.8467 46.9564 24.5933 47.1297 24.42C47.3164 24.2467 47.5697 24.16 47.8897 24.16C48.2097 24.16 48.4564 24.2467 48.6297 24.42C48.803 24.5933 48.8897 24.8467 48.8897 25.18V27.24H51.2297C51.4964 27.24 51.703 27.3067 51.8497 27.44C51.9964 27.5733 52.0697 27.7667 52.0697 28.02C52.0697 28.26 51.9964 28.4533 51.8497 28.6C51.703 28.7333 51.4964 28.8 51.2297 28.8H48.8897V33.36C48.8897 34.0667 49.0364 34.6 49.3297 34.96C49.6364 35.32 50.1297 35.5 50.8097 35.5C51.0497 35.5 51.2564 35.48 51.4297 35.44C51.6164 35.3867 51.7697 35.3533 51.8897 35.34C52.0364 35.34 52.1564 35.3933 52.2497 35.5C52.343 35.5933 52.3897 35.78 52.3897 36.06C52.3897 36.26 52.3497 36.4467 52.2697 36.62C52.203 36.7933 52.0764 36.9067 51.8897 36.96C51.7297 37.0133 51.5097 37.06 51.2297 37.1C50.963 37.1533 50.723 37.18 50.5097 37.18ZM57.6367 37.18C56.5701 37.18 55.6501 36.98 54.8767 36.58C54.1167 36.1667 53.5234 35.5867 53.0967 34.84C52.6834 34.08 52.4767 33.18 52.4767 32.14C52.4767 31.1267 52.6834 30.24 53.0967 29.48C53.5101 28.72 54.0767 28.1267 54.7967 27.7C55.5167 27.2733 56.3367 27.06 57.2567 27.06C57.9367 27.06 58.5434 27.1733 59.0767 27.4C59.6101 27.6133 60.0634 27.9333 60.4367 28.36C60.8234 28.7733 61.1101 29.28 61.2967 29.88C61.4967 30.48 61.5967 31.1533 61.5967 31.9C61.5967 32.1267 61.5301 32.3 61.3967 32.42C61.2634 32.5267 61.0634 32.58 60.7967 32.58H54.0767V31.34H60.2367L59.8967 31.62C59.8967 30.9533 59.7967 30.3867 59.5967 29.92C59.4101 29.4533 59.1234 29.1 58.7367 28.86C58.3634 28.6067 57.8967 28.48 57.3367 28.48C56.7101 28.48 56.1767 28.6267 55.7367 28.92C55.3101 29.2133 54.9834 29.62 54.7567 30.14C54.5301 30.66 54.4167 31.2667 54.4167 31.96V32.08C54.4167 33.2533 54.6901 34.14 55.2367 34.74C55.7967 35.3267 56.6034 35.62 57.6567 35.62C58.0567 35.62 58.4767 35.5667 58.9167 35.46C59.3701 35.3533 59.7967 35.1733 60.1967 34.92C60.4234 34.7867 60.6234 34.7267 60.7967 34.74C60.9834 34.7533 61.1301 34.8133 61.2367 34.92C61.3567 35.0267 61.4301 35.16 61.4567 35.32C61.4834 35.48 61.4567 35.6467 61.3767 35.82C61.2967 35.98 61.1567 36.1267 60.9567 36.26C60.5034 36.5667 59.9767 36.8 59.3767 36.96C58.7767 37.1067 58.1967 37.18 57.6367 37.18Z" fill="#201F1F"/>
<path d="M0 60.5H579.5" stroke="#CDCCCB"/>
<rect width="579.5" height="49" transform="translate(0 61)" fill="white"/>
<path d="M17.1641 91V79.5469H25.6562V81.4844H19.4766V84.0234H25.2266V85.9531H19.4766V89.0703H25.875V91H17.1641ZM35.3672 91H33.1719V86.7656C33.1719 85.8698 33.125 85.2917 33.0312 85.0312C32.9375 84.7656 32.7839 84.5599 32.5703 84.4141C32.362 84.2682 32.1094 84.1953 31.8125 84.1953C31.4323 84.1953 31.0911 84.2995 30.7891 84.5078C30.487 84.7161 30.2786 84.9922 30.1641 85.3359C30.0547 85.6797 30 86.3151 30 87.2422V91H27.8047V82.7031H29.8438V83.9219C30.5677 82.9844 31.4792 82.5156 32.5781 82.5156C33.0625 82.5156 33.5052 82.6042 33.9062 82.7812C34.3073 82.9531 34.6094 83.1745 34.8125 83.4453C35.0208 83.7161 35.1641 84.0234 35.2422 84.3672C35.3255 84.7109 35.3672 85.2031 35.3672 85.8438V91ZM39.2422 85.2344L37.25 84.875C37.474 84.0729 37.8594 83.4792 38.4062 83.0938C38.9531 82.7083 39.7656 82.5156 40.8438 82.5156C41.8229 82.5156 42.5521 82.6328 43.0312 82.8672C43.5104 83.0964 43.8464 83.3906 44.0391 83.75C44.237 84.1042 44.3359 84.7578 44.3359 85.7109L44.3125 88.2734C44.3125 89.0026 44.3464 89.5417 44.4141 89.8906C44.487 90.2344 44.6198 90.6042 44.8125 91H42.6406C42.5833 90.8542 42.513 90.638 42.4297 90.3516C42.3932 90.2214 42.3672 90.1354 42.3516 90.0938C41.9766 90.4583 41.5755 90.7318 41.1484 90.9141C40.7214 91.0964 40.2656 91.1875 39.7812 91.1875C38.9271 91.1875 38.2526 90.9557 37.7578 90.4922C37.2682 90.0286 37.0234 89.4427 37.0234 88.7344C37.0234 88.2656 37.1354 87.849 37.3594 87.4844C37.5833 87.1146 37.8958 86.8333 38.2969 86.6406C38.7031 86.4427 39.2865 86.2708 40.0469 86.125C41.0729 85.9323 41.7839 85.7526 42.1797 85.5859V85.3672C42.1797 84.9453 42.0755 84.6458 41.8672 84.4688C41.6589 84.2865 41.2656 84.1953 40.6875 84.1953C40.2969 84.1953 39.9922 84.2734 39.7734 84.4297C39.5547 84.5807 39.3776 84.849 39.2422 85.2344ZM42.1797 87.0156C41.8984 87.1094 41.4531 87.2214 40.8438 87.3516C40.2344 87.4818 39.8359 87.6094 39.6484 87.7344C39.362 87.9375 39.2188 88.1953 39.2188 88.5078C39.2188 88.8151 39.3333 89.0807 39.5625 89.3047C39.7917 89.5286 40.0833 89.6406 40.4375 89.6406C40.8333 89.6406 41.2109 89.5104 41.5703 89.25C41.8359 89.0521 42.0104 88.8099 42.0938 88.5234C42.151 88.3359 42.1797 87.9792 42.1797 87.4531V87.0156ZM46.4141 91V79.5469H48.6094V83.6719C49.2865 82.901 50.0885 82.5156 51.0156 82.5156C52.026 82.5156 52.862 82.8828 53.5234 83.6172C54.1849 84.3464 54.5156 85.3958 54.5156 86.7656C54.5156 88.1823 54.1771 89.2734 53.5 90.0391C52.8281 90.8047 52.0104 91.1875 51.0469 91.1875C50.5729 91.1875 50.1042 91.0703 49.6406 90.8359C49.1823 90.5964 48.7865 90.2448 48.4531 89.7812V91H46.4141ZM48.5938 86.6719C48.5938 87.5312 48.7292 88.1667 49 88.5781C49.3802 89.1615 49.8854 89.4531 50.5156 89.4531C51 89.4531 51.4115 89.2474 51.75 88.8359C52.0938 88.4193 52.2656 87.7656 52.2656 86.875C52.2656 85.9271 52.0938 85.2448 51.75 84.8281C51.4062 84.4062 50.9661 84.1953 50.4297 84.1953C49.9036 84.1953 49.4661 84.401 49.1172 84.8125C48.7682 85.2188 48.5938 85.8385 48.5938 86.6719ZM56.2891 91V79.5469H58.4844V91H56.2891ZM65.5469 88.3594L67.7344 88.7266C67.4531 89.5286 67.0078 90.1406 66.3984 90.5625C65.7943 90.9792 65.0365 91.1875 64.125 91.1875C62.6823 91.1875 61.6146 90.7161 60.9219 89.7734C60.375 89.0182 60.1016 88.0651 60.1016 86.9141C60.1016 85.5391 60.4609 84.4635 61.1797 83.6875C61.8984 82.9062 62.8073 82.5156 63.9062 82.5156C65.1406 82.5156 66.1146 82.9245 66.8281 83.7422C67.5417 84.5547 67.8828 85.8021 67.8516 87.4844H62.3516C62.3672 88.1354 62.5443 88.6432 62.8828 89.0078C63.2214 89.3672 63.6432 89.5469 64.1484 89.5469C64.4922 89.5469 64.7812 89.4531 65.0156 89.2656C65.25 89.0781 65.4271 88.776 65.5469 88.3594ZM65.6719 86.1406C65.6562 85.5052 65.4922 85.0234 65.1797 84.6953C64.8672 84.362 64.487 84.1953 64.0391 84.1953C63.5599 84.1953 63.1641 84.3698 62.8516 84.7188C62.5391 85.0677 62.3854 85.5417 62.3906 86.1406H65.6719ZM77.2578 91H75.2188V89.7812C74.8802 90.2552 74.4792 90.6094 74.0156 90.8438C73.5573 91.0729 73.0938 91.1875 72.625 91.1875C71.6719 91.1875 70.8542 90.8047 70.1719 90.0391C69.4948 89.2682 69.1562 88.1953 69.1562 86.8203C69.1562 85.4141 69.487 84.3464 70.1484 83.6172C70.8099 82.8828 71.6458 82.5156 72.6562 82.5156C73.5833 82.5156 74.3854 82.901 75.0625 83.6719V79.5469H77.2578V91ZM71.3984 86.6719C71.3984 87.5573 71.5208 88.1979 71.7656 88.5938C72.1198 89.1667 72.6146 89.4531 73.25 89.4531C73.7552 89.4531 74.1849 89.2396 74.5391 88.8125C74.8932 88.3802 75.0703 87.737 75.0703 86.8828C75.0703 85.9297 74.8984 85.2448 74.5547 84.8281C74.2109 84.4062 73.7708 84.1953 73.2344 84.1953C72.7135 84.1953 72.276 84.4036 71.9219 84.8203C71.5729 85.2318 71.3984 85.849 71.3984 86.6719Z" fill="#3E3E3D"/>
<g opacity="0.5">
<path d="M0 109.5H579.5" stroke="#CDCCCB"/>
</g>
<rect width="579.5" height="49" transform="translate(0 110)" fill="white"/>
<path d="M17.1719 140V128.547H19.4844V133.055H24.0156V128.547H26.3281V140H24.0156V134.992H19.4844V140H17.1719ZM28.2031 135.734C28.2031 135.005 28.3828 134.299 28.7422 133.617C29.1016 132.935 29.6094 132.414 30.2656 132.055C30.9271 131.695 31.6641 131.516 32.4766 131.516C33.7318 131.516 34.7604 131.924 35.5625 132.742C36.3646 133.555 36.7656 134.583 36.7656 135.828C36.7656 137.083 36.3594 138.125 35.5469 138.953C34.7396 139.776 33.7214 140.188 32.4922 140.188C31.7318 140.188 31.0052 140.016 30.3125 139.672C29.625 139.328 29.1016 138.826 28.7422 138.164C28.3828 137.497 28.2031 136.688 28.2031 135.734ZM30.4531 135.852C30.4531 136.674 30.6484 137.305 31.0391 137.742C31.4297 138.18 31.9115 138.398 32.4844 138.398C33.0573 138.398 33.5365 138.18 33.9219 137.742C34.3125 137.305 34.5078 136.669 34.5078 135.836C34.5078 135.023 34.3125 134.398 33.9219 133.961C33.5365 133.523 33.0573 133.305 32.4844 133.305C31.9115 133.305 31.4297 133.523 31.0391 133.961C30.6484 134.398 30.4531 135.029 30.4531 135.852ZM40.7734 140L37.4297 131.703H39.7344L41.2969 135.938L41.75 137.352C41.8698 136.992 41.9453 136.755 41.9766 136.641C42.0495 136.406 42.1276 136.172 42.2109 135.938L43.7891 131.703H46.0469L42.75 140H40.7734ZM52.2031 137.359L54.3906 137.727C54.1094 138.529 53.6641 139.141 53.0547 139.562C52.4505 139.979 51.6927 140.188 50.7812 140.188C49.3385 140.188 48.2708 139.716 47.5781 138.773C47.0312 138.018 46.7578 137.065 46.7578 135.914C46.7578 134.539 47.1172 133.464 47.8359 132.688C48.5547 131.906 49.4635 131.516 50.5625 131.516C51.7969 131.516 52.7708 131.924 53.4844 132.742C54.1979 133.555 54.5391 134.802 54.5078 136.484H49.0078C49.0234 137.135 49.2005 137.643 49.5391 138.008C49.8776 138.367 50.2995 138.547 50.8047 138.547C51.1484 138.547 51.4375 138.453 51.6719 138.266C51.9062 138.078 52.0833 137.776 52.2031 137.359ZM52.3281 135.141C52.3125 134.505 52.1484 134.023 51.8359 133.695C51.5234 133.362 51.1432 133.195 50.6953 133.195C50.2161 133.195 49.8203 133.37 49.5078 133.719C49.1953 134.068 49.0417 134.542 49.0469 135.141H52.3281ZM58.4062 140H56.2109V131.703H58.25V132.883C58.599 132.326 58.9115 131.958 59.1875 131.781C59.4688 131.604 59.7865 131.516 60.1406 131.516C60.6406 131.516 61.1224 131.654 61.5859 131.93L60.9062 133.844C60.5365 133.604 60.1927 133.484 59.875 133.484C59.5677 133.484 59.3073 133.57 59.0938 133.742C58.8802 133.909 58.7109 134.214 58.5859 134.656C58.4661 135.099 58.4062 136.026 58.4062 137.438V140Z" fill="#3E3E3D"/>
<g opacity="0.5">
<path d="M0 158.5H579.5" stroke="#CDCCCB"/>
</g>
<rect width="579.5" height="61" transform="translate(579.5)" fill="white"/>
<path d="M598.18 37.14C597.847 37.14 597.587 37.0467 597.4 36.86C597.227 36.6733 597.14 36.4133 597.14 36.08V23.96C597.14 23.6133 597.233 23.3533 597.42 23.18C597.607 22.9933 597.867 22.9 598.2 22.9H602.98C604.5 22.9 605.673 23.28 606.5 24.04C607.327 24.7867 607.74 25.84 607.74 27.2C607.74 28.5733 607.327 29.64 606.5 30.4C605.673 31.1467 604.5 31.52 602.98 31.52H599.22V36.08C599.22 36.4133 599.133 36.6733 598.96 36.86C598.787 37.0467 598.527 37.14 598.18 37.14ZM599.22 29.86H602.68C603.68 29.86 604.433 29.64 604.94 29.2C605.46 28.7467 605.72 28.08 605.72 27.2C605.72 26.3333 605.46 25.68 604.94 25.24C604.433 24.7867 603.68 24.56 602.68 24.56H599.22V29.86ZM612.595 37.18C611.809 37.18 611.149 37.0333 610.615 36.74C610.095 36.4467 609.702 36.0133 609.435 35.44C609.182 34.8533 609.055 34.12 609.055 33.24V28.12C609.055 27.7733 609.142 27.52 609.315 27.36C609.489 27.1867 609.735 27.1 610.055 27.1C610.375 27.1 610.622 27.1867 610.795 27.36C610.982 27.52 611.075 27.7733 611.075 28.12V33.26C611.075 34.0467 611.235 34.6267 611.555 35C611.875 35.3733 612.382 35.56 613.075 35.56C613.835 35.56 614.449 35.3067 614.915 34.8C615.395 34.28 615.635 33.6 615.635 32.76V28.12C615.635 27.7733 615.722 27.52 615.895 27.36C616.069 27.1867 616.322 27.1 616.655 27.1C616.975 27.1 617.222 27.1867 617.395 27.36C617.569 27.52 617.655 27.7733 617.655 28.12V36.12C617.655 36.8 617.329 37.14 616.675 37.14C616.369 37.14 616.129 37.0533 615.955 36.88C615.782 36.6933 615.695 36.44 615.695 36.12V34.42L615.955 34.86C615.689 35.6067 615.262 36.18 614.675 36.58C614.089 36.98 613.395 37.18 612.595 37.18ZM621.022 37.14C620.689 37.14 620.435 37.0533 620.262 36.88C620.089 36.6933 620.002 36.44 620.002 36.12V28.12C620.002 27.7867 620.089 27.5333 620.262 27.36C620.435 27.1867 620.675 27.1 620.982 27.1C621.302 27.1 621.542 27.1867 621.702 27.36C621.875 27.5333 621.962 27.7867 621.962 28.12V29.58H621.762C621.975 28.78 622.369 28.1733 622.942 27.76C623.515 27.3467 624.249 27.1067 625.142 27.04C625.382 27.0267 625.569 27.0867 625.702 27.22C625.849 27.3533 625.929 27.56 625.942 27.84C625.969 28.12 625.909 28.3467 625.762 28.52C625.615 28.68 625.389 28.7733 625.082 28.8L624.702 28.84C623.835 28.92 623.175 29.1933 622.722 29.66C622.269 30.1267 622.042 30.7667 622.042 31.58V36.12C622.042 36.44 621.955 36.6933 621.782 36.88C621.622 37.0533 621.369 37.14 621.022 37.14ZM627.963 40.74C627.643 40.74 627.396 40.6533 627.223 40.48C627.05 40.3067 626.963 40.0533 626.963 39.72V28.12C626.963 27.7867 627.05 27.5333 627.223 27.36C627.396 27.1867 627.636 27.1 627.943 27.1C628.263 27.1 628.51 27.1867 628.683 27.36C628.856 27.5333 628.943 27.7867 628.943 28.12V29.86L628.723 29.44C628.936 28.72 629.356 28.1467 629.983 27.72C630.61 27.28 631.35 27.06 632.203 27.06C633.07 27.06 633.823 27.2667 634.463 27.68C635.116 28.0933 635.616 28.6733 635.963 29.42C636.323 30.1667 636.503 31.0667 636.503 32.12C636.503 33.1467 636.323 34.0467 635.963 34.82C635.616 35.58 635.123 36.1667 634.483 36.58C633.843 36.98 633.083 37.18 632.203 37.18C631.363 37.18 630.63 36.9667 630.003 36.54C629.376 36.1133 628.956 35.5467 628.743 34.84H628.983V39.72C628.983 40.0533 628.89 40.3067 628.703 40.48C628.53 40.6533 628.283 40.74 627.963 40.74ZM631.703 35.62C632.263 35.62 632.75 35.4867 633.163 35.22C633.576 34.9533 633.896 34.56 634.123 34.04C634.35 33.52 634.463 32.88 634.463 32.12C634.463 30.9733 634.21 30.1067 633.703 29.52C633.21 28.9333 632.543 28.64 631.703 28.64C631.156 28.64 630.67 28.7733 630.243 29.04C629.83 29.2933 629.51 29.68 629.283 30.2C629.056 30.72 628.943 31.36 628.943 32.12C628.943 33.2533 629.196 34.12 629.703 34.72C630.21 35.32 630.876 35.62 631.703 35.62ZM642.519 37.18C641.533 37.18 640.679 36.9733 639.959 36.56C639.253 36.1467 638.699 35.56 638.299 34.8C637.899 34.04 637.699 33.1467 637.699 32.12C637.699 31.3333 637.813 30.6333 638.039 30.02C638.266 29.4067 638.586 28.88 638.999 28.44C639.426 27.9867 639.933 27.6467 640.519 27.42C641.119 27.18 641.786 27.06 642.519 27.06C643.493 27.06 644.333 27.2667 645.039 27.68C645.759 28.0933 646.319 28.68 646.719 29.44C647.119 30.1867 647.319 31.08 647.319 32.12C647.319 32.8933 647.206 33.5933 646.979 34.22C646.753 34.8467 646.426 35.38 645.999 35.82C645.586 36.26 645.079 36.6 644.479 36.84C643.893 37.0667 643.239 37.18 642.519 37.18ZM642.519 35.62C643.066 35.62 643.546 35.4867 643.959 35.22C644.373 34.9533 644.693 34.56 644.919 34.04C645.159 33.52 645.279 32.88 645.279 32.12C645.279 30.9733 645.026 30.1067 644.519 29.52C644.013 28.9333 643.346 28.64 642.519 28.64C641.959 28.64 641.473 28.7733 641.059 29.04C640.646 29.2933 640.319 29.68 640.079 30.2C639.853 30.72 639.739 31.36 639.739 32.12C639.739 33.2533 639.993 34.12 640.499 34.72C641.006 35.32 641.679 35.62 642.519 35.62ZM652.508 37.18C651.921 37.18 651.315 37.1133 650.688 36.98C650.075 36.8467 649.508 36.62 648.988 36.3C648.815 36.18 648.695 36.0467 648.628 35.9C648.561 35.7533 648.535 35.6067 648.548 35.46C648.575 35.3 648.635 35.1667 648.728 35.06C648.835 34.94 648.961 34.8667 649.108 34.84C649.268 34.8133 649.435 34.8467 649.608 34.94C650.128 35.2333 650.628 35.44 651.108 35.56C651.588 35.6667 652.061 35.72 652.528 35.72C653.235 35.72 653.768 35.5933 654.128 35.34C654.488 35.0867 654.668 34.7467 654.668 34.32C654.668 33.9733 654.548 33.7067 654.308 33.52C654.068 33.32 653.708 33.1667 653.228 33.06L651.328 32.68C650.501 32.5067 649.875 32.2 649.448 31.76C649.021 31.32 648.808 30.76 648.808 30.08C648.808 29.4667 648.975 28.9333 649.308 28.48C649.641 28.0267 650.108 27.68 650.708 27.44C651.308 27.1867 652.001 27.06 652.788 27.06C653.375 27.06 653.928 27.1333 654.448 27.28C654.968 27.4267 655.448 27.6467 655.888 27.94C656.061 28.0333 656.175 28.16 656.228 28.32C656.281 28.4667 656.288 28.6133 656.248 28.76C656.221 28.9067 656.155 29.04 656.048 29.16C655.941 29.2667 655.808 29.3333 655.648 29.36C655.501 29.3733 655.335 29.3333 655.148 29.24C654.748 28.9867 654.348 28.8067 653.948 28.7C653.561 28.5933 653.175 28.54 652.788 28.54C652.081 28.54 651.548 28.6733 651.188 28.94C650.841 29.1933 650.668 29.54 650.668 29.98C650.668 30.3133 650.775 30.5867 650.988 30.8C651.201 31.0133 651.535 31.1667 651.988 31.26L653.888 31.64C654.755 31.8133 655.408 32.1067 655.848 32.52C656.301 32.9333 656.528 33.4933 656.528 34.2C656.528 35.12 656.161 35.8467 655.428 36.38C654.695 36.9133 653.721 37.18 652.508 37.18ZM662.855 37.18C661.789 37.18 660.869 36.98 660.095 36.58C659.335 36.1667 658.742 35.5867 658.315 34.84C657.902 34.08 657.695 33.18 657.695 32.14C657.695 31.1267 657.902 30.24 658.315 29.48C658.729 28.72 659.295 28.1267 660.015 27.7C660.735 27.2733 661.555 27.06 662.475 27.06C663.155 27.06 663.762 27.1733 664.295 27.4C664.829 27.6133 665.282 27.9333 665.655 28.36C666.042 28.7733 666.329 29.28 666.515 29.88C666.715 30.48 666.815 31.1533 666.815 31.9C666.815 32.1267 666.749 32.3 666.615 32.42C666.482 32.5267 666.282 32.58 666.015 32.58H659.295V31.34H665.455L665.115 31.62C665.115 30.9533 665.015 30.3867 664.815 29.92C664.629 29.4533 664.342 29.1 663.955 28.86C663.582 28.6067 663.115 28.48 662.555 28.48C661.929 28.48 661.395 28.6267 660.955 28.92C660.529 29.2133 660.202 29.62 659.975 30.14C659.749 30.66 659.635 31.2667 659.635 31.96V32.08C659.635 33.2533 659.909 34.14 660.455 34.74C661.015 35.3267 661.822 35.62 662.875 35.62C663.275 35.62 663.695 35.5667 664.135 35.46C664.589 35.3533 665.015 35.1733 665.415 34.92C665.642 34.7867 665.842 34.7267 666.015 34.74C666.202 34.7533 666.349 34.8133 666.455 34.92C666.575 35.0267 666.649 35.16 666.675 35.32C666.702 35.48 666.675 35.6467 666.595 35.82C666.515 35.98 666.375 36.1267 666.175 36.26C665.722 36.5667 665.195 36.8 664.595 36.96C663.995 37.1067 663.415 37.18 662.855 37.18Z" fill="#201F1F"/>
<path d="M579.5 60.5H1159" stroke="#CDCCCB"/>
<rect width="579.5" height="49" transform="translate(579.5 61)" fill="white"/>
<path d="M602.234 88.3281L603.688 88.5078C603.458 89.3568 603.034 90.0156 602.414 90.4844C601.794 90.9531 601.003 91.1875 600.039 91.1875C598.826 91.1875 597.862 90.8151 597.148 90.0703C596.44 89.3203 596.086 88.2708 596.086 86.9219C596.086 85.526 596.445 84.4427 597.164 83.6719C597.883 82.901 598.815 82.5156 599.961 82.5156C601.07 82.5156 601.977 82.8932 602.68 83.6484C603.383 84.4036 603.734 85.4661 603.734 86.8359C603.734 86.9193 603.732 87.0443 603.727 87.2109H597.539C597.591 88.1224 597.849 88.8203 598.312 89.3047C598.776 89.7891 599.354 90.0312 600.047 90.0312C600.562 90.0312 601.003 89.8958 601.367 89.625C601.732 89.3542 602.021 88.9219 602.234 88.3281ZM597.617 86.0547H602.25C602.188 85.3568 602.01 84.8333 601.719 84.4844C601.271 83.9427 600.69 83.6719 599.977 83.6719C599.331 83.6719 598.786 83.888 598.344 84.3203C597.906 84.7526 597.664 85.3307 597.617 86.0547ZM599.133 81.6719L600.172 79.4844H602.016L600.297 81.6719H599.133ZM608.531 89.7422L608.734 90.9844C608.339 91.0677 607.984 91.1094 607.672 91.1094C607.161 91.1094 606.766 91.0286 606.484 90.8672C606.203 90.7057 606.005 90.4948 605.891 90.2344C605.776 89.9688 605.719 89.4141 605.719 88.5703V83.7969H604.688V82.7031H605.719V80.6484L607.117 79.8047V82.7031H608.531V83.7969H607.117V88.6484C607.117 89.0495 607.141 89.3073 607.188 89.4219C607.24 89.5365 607.32 89.6276 607.43 89.6953C607.544 89.763 607.706 89.7969 607.914 89.7969C608.07 89.7969 608.276 89.7786 608.531 89.7422ZM615.328 89.9766C614.807 90.4193 614.305 90.7318 613.82 90.9141C613.341 91.0964 612.826 91.1875 612.273 91.1875C611.362 91.1875 610.661 90.9661 610.172 90.5234C609.682 90.0755 609.438 89.5052 609.438 88.8125C609.438 88.4062 609.529 88.0365 609.711 87.7031C609.898 87.3646 610.141 87.0938 610.438 86.8906C610.74 86.6875 611.078 86.5339 611.453 86.4297C611.729 86.3568 612.146 86.2865 612.703 86.2188C613.839 86.0833 614.674 85.9219 615.211 85.7344C615.216 85.5417 615.219 85.4193 615.219 85.3672C615.219 84.7943 615.086 84.3906 614.82 84.1562C614.461 83.8385 613.927 83.6797 613.219 83.6797C612.557 83.6797 612.068 83.7969 611.75 84.0312C611.438 84.2604 611.206 84.6693 611.055 85.2578L609.68 85.0703C609.805 84.4818 610.01 84.0078 610.297 83.6484C610.583 83.2839 610.997 83.0052 611.539 82.8125C612.081 82.6146 612.708 82.5156 613.422 82.5156C614.13 82.5156 614.706 82.599 615.148 82.7656C615.591 82.9323 615.917 83.1432 616.125 83.3984C616.333 83.6484 616.479 83.9661 616.562 84.3516C616.609 84.5911 616.633 85.0234 616.633 85.6484V87.5234C616.633 88.8307 616.661 89.6589 616.719 90.0078C616.781 90.3516 616.901 90.6823 617.078 91H615.609C615.464 90.7083 615.37 90.3672 615.328 89.9766ZM615.211 86.8359C614.701 87.0443 613.935 87.2214 612.914 87.3672C612.336 87.4505 611.927 87.5443 611.688 87.6484C611.448 87.7526 611.263 87.9062 611.133 88.1094C611.003 88.3073 610.938 88.5286 610.938 88.7734C610.938 89.1484 611.078 89.4609 611.359 89.7109C611.646 89.9609 612.062 90.0859 612.609 90.0859C613.151 90.0859 613.633 89.9688 614.055 89.7344C614.477 89.4948 614.786 89.1693 614.984 88.7578C615.135 88.4401 615.211 87.9714 615.211 87.3516V86.8359ZM621.891 89.7422L622.094 90.9844C621.698 91.0677 621.344 91.1094 621.031 91.1094C620.521 91.1094 620.125 91.0286 619.844 90.8672C619.562 90.7057 619.365 90.4948 619.25 90.2344C619.135 89.9688 619.078 89.4141 619.078 88.5703V83.7969H618.047V82.7031H619.078V80.6484L620.477 79.8047V82.7031H621.891V83.7969H620.477V88.6484C620.477 89.0495 620.5 89.3073 620.547 89.4219C620.599 89.5365 620.68 89.6276 620.789 89.6953C620.904 89.763 621.065 89.7969 621.273 89.7969C621.43 89.7969 621.635 89.7786 621.891 89.7422ZM627.727 94.1797V82.7031H629.008V83.7812C629.31 83.3594 629.651 83.0443 630.031 82.8359C630.411 82.6224 630.872 82.5156 631.414 82.5156C632.122 82.5156 632.747 82.6979 633.289 83.0625C633.831 83.4271 634.24 83.9427 634.516 84.6094C634.792 85.2708 634.93 85.9974 634.93 86.7891C634.93 87.638 634.776 88.4036 634.469 89.0859C634.167 89.763 633.724 90.2839 633.141 90.6484C632.562 91.0078 631.953 91.1875 631.312 91.1875C630.844 91.1875 630.422 91.0885 630.047 90.8906C629.677 90.6927 629.372 90.4427 629.133 90.1406V94.1797H627.727ZM629 86.8984C629 87.9661 629.216 88.7552 629.648 89.2656C630.081 89.776 630.604 90.0312 631.219 90.0312C631.844 90.0312 632.378 89.7682 632.82 89.2422C633.268 88.7109 633.492 87.8906 633.492 86.7812C633.492 85.724 633.273 84.9323 632.836 84.4062C632.404 83.8802 631.885 83.6172 631.281 83.6172C630.682 83.6172 630.151 83.8984 629.688 84.4609C629.229 85.0182 629 85.8307 629 86.8984ZM642.047 89.9766C641.526 90.4193 641.023 90.7318 640.539 90.9141C640.06 91.0964 639.544 91.1875 638.992 91.1875C638.081 91.1875 637.38 90.9661 636.891 90.5234C636.401 90.0755 636.156 89.5052 636.156 88.8125C636.156 88.4062 636.247 88.0365 636.43 87.7031C636.617 87.3646 636.859 87.0938 637.156 86.8906C637.458 86.6875 637.797 86.5339 638.172 86.4297C638.448 86.3568 638.865 86.2865 639.422 86.2188C640.557 86.0833 641.393 85.9219 641.93 85.7344C641.935 85.5417 641.938 85.4193 641.938 85.3672C641.938 84.7943 641.805 84.3906 641.539 84.1562C641.18 83.8385 640.646 83.6797 639.938 83.6797C639.276 83.6797 638.786 83.7969 638.469 84.0312C638.156 84.2604 637.924 84.6693 637.773 85.2578L636.398 85.0703C636.523 84.4818 636.729 84.0078 637.016 83.6484C637.302 83.2839 637.716 83.0052 638.258 82.8125C638.799 82.6146 639.427 82.5156 640.141 82.5156C640.849 82.5156 641.424 82.599 641.867 82.7656C642.31 82.9323 642.635 83.1432 642.844 83.3984C643.052 83.6484 643.198 83.9661 643.281 84.3516C643.328 84.5911 643.352 85.0234 643.352 85.6484V87.5234C643.352 88.8307 643.38 89.6589 643.438 90.0078C643.5 90.3516 643.62 90.6823 643.797 91H642.328C642.182 90.7083 642.089 90.3672 642.047 89.9766ZM641.93 86.8359C641.419 87.0443 640.654 87.2214 639.633 87.3672C639.055 87.4505 638.646 87.5443 638.406 87.6484C638.167 87.7526 637.982 87.9062 637.852 88.1094C637.721 88.3073 637.656 88.5286 637.656 88.7734C637.656 89.1484 637.797 89.4609 638.078 89.7109C638.365 89.9609 638.781 90.0859 639.328 90.0859C639.87 90.0859 640.352 89.9688 640.773 89.7344C641.195 89.4948 641.505 89.1693 641.703 88.7578C641.854 88.4401 641.93 87.9714 641.93 87.3516V86.8359ZM645.523 91V82.7031H646.789V83.9609C647.112 83.3724 647.409 82.9844 647.68 82.7969C647.956 82.6094 648.258 82.5156 648.586 82.5156C649.06 82.5156 649.542 82.6667 650.031 82.9688L649.547 84.2734C649.203 84.0703 648.859 83.9688 648.516 83.9688C648.208 83.9688 647.932 84.0625 647.688 84.25C647.443 84.4323 647.268 84.6875 647.164 85.0156C647.008 85.5156 646.93 86.0625 646.93 86.6562V91H645.523ZM660.703 91V89.9531C660.177 90.776 659.404 91.1875 658.383 91.1875C657.721 91.1875 657.112 91.0052 656.555 90.6406C656.003 90.276 655.573 89.7682 655.266 89.1172C654.964 88.4609 654.812 87.7083 654.812 86.8594C654.812 86.0312 654.951 85.2812 655.227 84.6094C655.503 83.9323 655.917 83.4141 656.469 83.0547C657.021 82.6953 657.638 82.5156 658.32 82.5156C658.82 82.5156 659.266 82.6224 659.656 82.8359C660.047 83.0443 660.365 83.3177 660.609 83.6562V79.5469H662.008V91H660.703ZM656.258 86.8594C656.258 87.9219 656.482 88.7161 656.93 89.2422C657.378 89.7682 657.906 90.0312 658.516 90.0312C659.13 90.0312 659.651 89.7812 660.078 89.2812C660.51 88.776 660.727 88.0078 660.727 86.9766C660.727 85.8411 660.508 85.0078 660.07 84.4766C659.633 83.9453 659.094 83.6797 658.453 83.6797C657.828 83.6797 657.305 83.9349 656.883 84.4453C656.466 84.9557 656.258 85.7604 656.258 86.8594ZM669.906 88.3281L671.359 88.5078C671.13 89.3568 670.706 90.0156 670.086 90.4844C669.466 90.9531 668.674 91.1875 667.711 91.1875C666.497 91.1875 665.534 90.8151 664.82 90.0703C664.112 89.3203 663.758 88.2708 663.758 86.9219C663.758 85.526 664.117 84.4427 664.836 83.6719C665.555 82.901 666.487 82.5156 667.633 82.5156C668.742 82.5156 669.648 82.8932 670.352 83.6484C671.055 84.4036 671.406 85.4661 671.406 86.8359C671.406 86.9193 671.404 87.0443 671.398 87.2109H665.211C665.263 88.1224 665.521 88.8203 665.984 89.3047C666.448 89.7891 667.026 90.0312 667.719 90.0312C668.234 90.0312 668.674 89.8958 669.039 89.625C669.404 89.3542 669.693 88.9219 669.906 88.3281ZM665.289 86.0547H669.922C669.859 85.3568 669.682 84.8333 669.391 84.4844C668.943 83.9427 668.362 83.6719 667.648 83.6719C667.003 83.6719 666.458 83.888 666.016 84.3203C665.578 84.7526 665.336 85.3307 665.289 86.0547ZM666.805 81.6719L667.844 79.4844H669.688L667.969 81.6719H666.805ZM673.469 91V83.7969H672.227V82.7031H673.469V81.8203C673.469 81.263 673.518 80.849 673.617 80.5781C673.753 80.2135 673.99 79.9193 674.328 79.6953C674.672 79.4661 675.151 79.3516 675.766 79.3516C676.161 79.3516 676.599 79.3984 677.078 79.4922L676.867 80.7188C676.576 80.6667 676.299 80.6406 676.039 80.6406C675.612 80.6406 675.31 80.7318 675.133 80.9141C674.956 81.0964 674.867 81.4375 674.867 81.9375V82.7031H676.484V83.7969H674.867V91H673.469ZM683 89.9766C682.479 90.4193 681.977 90.7318 681.492 90.9141C681.013 91.0964 680.497 91.1875 679.945 91.1875C679.034 91.1875 678.333 90.9661 677.844 90.5234C677.354 90.0755 677.109 89.5052 677.109 88.8125C677.109 88.4062 677.201 88.0365 677.383 87.7031C677.57 87.3646 677.812 87.0938 678.109 86.8906C678.411 86.6875 678.75 86.5339 679.125 86.4297C679.401 86.3568 679.818 86.2865 680.375 86.2188C681.51 86.0833 682.346 85.9219 682.883 85.7344C682.888 85.5417 682.891 85.4193 682.891 85.3672C682.891 84.7943 682.758 84.3906 682.492 84.1562C682.133 83.8385 681.599 83.6797 680.891 83.6797C680.229 83.6797 679.74 83.7969 679.422 84.0312C679.109 84.2604 678.878 84.6693 678.727 85.2578L677.352 85.0703C677.477 84.4818 677.682 84.0078 677.969 83.6484C678.255 83.2839 678.669 83.0052 679.211 82.8125C679.753 82.6146 680.38 82.5156 681.094 82.5156C681.802 82.5156 682.378 82.599 682.82 82.7656C683.263 82.9323 683.589 83.1432 683.797 83.3984C684.005 83.6484 684.151 83.9661 684.234 84.3516C684.281 84.5911 684.305 85.0234 684.305 85.6484V87.5234C684.305 88.8307 684.333 89.6589 684.391 90.0078C684.453 90.3516 684.573 90.6823 684.75 91H683.281C683.135 90.7083 683.042 90.3672 683 89.9766ZM682.883 86.8359C682.372 87.0443 681.607 87.2214 680.586 87.3672C680.008 87.4505 679.599 87.5443 679.359 87.6484C679.12 87.7526 678.935 87.9062 678.805 88.1094C678.674 88.3073 678.609 88.5286 678.609 88.7734C678.609 89.1484 678.75 89.4609 679.031 89.7109C679.318 89.9609 679.734 90.0859 680.281 90.0859C680.823 90.0859 681.305 89.9688 681.727 89.7344C682.148 89.4948 682.458 89.1693 682.656 88.7578C682.807 88.4401 682.883 87.9714 682.883 87.3516V86.8359ZM691.93 91V89.7812C691.284 90.7188 690.406 91.1875 689.297 91.1875C688.807 91.1875 688.349 91.0938 687.922 90.9062C687.5 90.7188 687.185 90.4844 686.977 90.2031C686.773 89.9167 686.63 89.5677 686.547 89.1562C686.49 88.8802 686.461 88.4427 686.461 87.8438V82.7031H687.867V87.3047C687.867 88.0391 687.896 88.5339 687.953 88.7891C688.042 89.1589 688.229 89.4505 688.516 89.6641C688.802 89.8724 689.156 89.9766 689.578 89.9766C690 89.9766 690.396 89.8698 690.766 89.6562C691.135 89.4375 691.396 89.1432 691.547 88.7734C691.703 88.3984 691.781 87.8568 691.781 87.1484V82.7031H693.188V91H691.93ZM698.469 89.7422L698.672 90.9844C698.276 91.0677 697.922 91.1094 697.609 91.1094C697.099 91.1094 696.703 91.0286 696.422 90.8672C696.141 90.7057 695.943 90.4948 695.828 90.2344C695.714 89.9688 695.656 89.4141 695.656 88.5703V83.7969H694.625V82.7031H695.656V80.6484L697.055 79.8047V82.7031H698.469V83.7969H697.055V88.6484C697.055 89.0495 697.078 89.3073 697.125 89.4219C697.177 89.5365 697.258 89.6276 697.367 89.6953C697.482 89.763 697.643 89.7969 697.852 89.7969C698.008 89.7969 698.214 89.7786 698.469 89.7422ZM709.688 91V89.9531C709.161 90.776 708.388 91.1875 707.367 91.1875C706.706 91.1875 706.096 91.0052 705.539 90.6406C704.987 90.276 704.557 89.7682 704.25 89.1172C703.948 88.4609 703.797 87.7083 703.797 86.8594C703.797 86.0312 703.935 85.2812 704.211 84.6094C704.487 83.9323 704.901 83.4141 705.453 83.0547C706.005 82.6953 706.622 82.5156 707.305 82.5156C707.805 82.5156 708.25 82.6224 708.641 82.8359C709.031 83.0443 709.349 83.3177 709.594 83.6562V79.5469H710.992V91H709.688ZM705.242 86.8594C705.242 87.9219 705.466 88.7161 705.914 89.2422C706.362 89.7682 706.891 90.0312 707.5 90.0312C708.115 90.0312 708.635 89.7812 709.062 89.2812C709.495 88.776 709.711 88.0078 709.711 86.9766C709.711 85.8411 709.492 85.0078 709.055 84.4766C708.617 83.9453 708.078 83.6797 707.438 83.6797C706.812 83.6797 706.289 83.9349 705.867 84.4453C705.451 84.9557 705.242 85.7604 705.242 86.8594ZM718.648 91V89.7812C718.003 90.7188 717.125 91.1875 716.016 91.1875C715.526 91.1875 715.068 91.0938 714.641 90.9062C714.219 90.7188 713.904 90.4844 713.695 90.2031C713.492 89.9167 713.349 89.5677 713.266 89.1562C713.208 88.8802 713.18 88.4427 713.18 87.8438V82.7031H714.586V87.3047C714.586 88.0391 714.615 88.5339 714.672 88.7891C714.76 89.1589 714.948 89.4505 715.234 89.6641C715.521 89.8724 715.875 89.9766 716.297 89.9766C716.719 89.9766 717.115 89.8698 717.484 89.6562C717.854 89.4375 718.115 89.1432 718.266 88.7734C718.422 88.3984 718.5 87.8568 718.5 87.1484V82.7031H719.906V91H718.648ZM726.008 88.5234L727.398 88.3047C727.477 88.862 727.693 89.2891 728.047 89.5859C728.406 89.8828 728.906 90.0312 729.547 90.0312C730.193 90.0312 730.672 89.901 730.984 89.6406C731.297 89.375 731.453 89.0651 731.453 88.7109C731.453 88.3932 731.315 88.1432 731.039 87.9609C730.846 87.8359 730.367 87.6771 729.602 87.4844C728.57 87.224 727.854 87 727.453 86.8125C727.057 86.6198 726.755 86.3568 726.547 86.0234C726.344 85.6849 726.242 85.3125 726.242 84.9062C726.242 84.5365 726.326 84.1953 726.492 83.8828C726.664 83.5651 726.896 83.3021 727.188 83.0938C727.406 82.9323 727.703 82.7969 728.078 82.6875C728.458 82.5729 728.865 82.5156 729.297 82.5156C729.948 82.5156 730.518 82.6094 731.008 82.7969C731.503 82.9844 731.867 83.2396 732.102 83.5625C732.336 83.8802 732.497 84.3073 732.586 84.8438L731.211 85.0312C731.148 84.6042 730.966 84.2708 730.664 84.0312C730.367 83.7917 729.945 83.6719 729.398 83.6719C728.753 83.6719 728.292 83.7786 728.016 83.9922C727.74 84.2057 727.602 84.4557 727.602 84.7422C727.602 84.9245 727.659 85.0885 727.773 85.2344C727.888 85.3854 728.068 85.5104 728.312 85.6094C728.453 85.6615 728.867 85.7812 729.555 85.9688C730.549 86.2344 731.242 86.4531 731.633 86.625C732.029 86.7917 732.339 87.0365 732.562 87.3594C732.786 87.6823 732.898 88.0833 732.898 88.5625C732.898 89.0312 732.76 89.474 732.484 89.8906C732.214 90.3021 731.82 90.6224 731.305 90.8516C730.789 91.0755 730.206 91.1875 729.555 91.1875C728.477 91.1875 727.654 90.9635 727.086 90.5156C726.523 90.0677 726.164 89.4036 726.008 88.5234ZM740.25 88.3281L741.703 88.5078C741.474 89.3568 741.049 90.0156 740.43 90.4844C739.81 90.9531 739.018 91.1875 738.055 91.1875C736.841 91.1875 735.878 90.8151 735.164 90.0703C734.456 89.3203 734.102 88.2708 734.102 86.9219C734.102 85.526 734.461 84.4427 735.18 83.6719C735.898 82.901 736.831 82.5156 737.977 82.5156C739.086 82.5156 739.992 82.8932 740.695 83.6484C741.398 84.4036 741.75 85.4661 741.75 86.8359C741.75 86.9193 741.747 87.0443 741.742 87.2109H735.555C735.607 88.1224 735.865 88.8203 736.328 89.3047C736.792 89.7891 737.37 90.0312 738.062 90.0312C738.578 90.0312 739.018 89.8958 739.383 89.625C739.747 89.3542 740.036 88.9219 740.25 88.3281ZM735.633 86.0547H740.266C740.203 85.3568 740.026 84.8333 739.734 84.4844C739.286 83.9427 738.706 83.6719 737.992 83.6719C737.346 83.6719 736.802 83.888 736.359 84.3203C735.922 84.7526 735.68 85.3307 735.633 86.0547ZM743.219 91.6875L744.586 91.8906C744.643 92.3125 744.802 92.6198 745.062 92.8125C745.411 93.0729 745.888 93.2031 746.492 93.2031C747.143 93.2031 747.646 93.0729 748 92.8125C748.354 92.5521 748.594 92.1875 748.719 91.7188C748.792 91.4323 748.826 90.8307 748.82 89.9141C748.206 90.638 747.44 91 746.523 91C745.383 91 744.5 90.5885 743.875 89.7656C743.25 88.9427 742.938 87.9557 742.938 86.8047C742.938 86.013 743.081 85.2839 743.367 84.6172C743.654 83.9453 744.068 83.4271 744.609 83.0625C745.156 82.6979 745.797 82.5156 746.531 82.5156C747.51 82.5156 748.318 82.9115 748.953 83.7031V82.7031H750.25V89.875C750.25 91.1667 750.117 92.0807 749.852 92.6172C749.591 93.1589 749.174 93.5859 748.602 93.8984C748.034 94.2109 747.333 94.3672 746.5 94.3672C745.51 94.3672 744.711 94.1432 744.102 93.6953C743.492 93.2526 743.198 92.5833 743.219 91.6875ZM744.383 86.7031C744.383 87.7917 744.599 88.5859 745.031 89.0859C745.464 89.5859 746.005 89.8359 746.656 89.8359C747.302 89.8359 747.844 89.5885 748.281 89.0938C748.719 88.5938 748.938 87.8125 748.938 86.75C748.938 85.7344 748.711 84.9688 748.258 84.4531C747.81 83.9375 747.268 83.6797 746.633 83.6797C746.008 83.6797 745.477 83.9349 745.039 84.4453C744.602 84.9505 744.383 85.7031 744.383 86.7031ZM752.383 91V82.7031H753.641V83.8672C753.901 83.4609 754.247 83.1354 754.68 82.8906C755.112 82.6406 755.604 82.5156 756.156 82.5156C756.771 82.5156 757.273 82.6432 757.664 82.8984C758.06 83.1536 758.339 83.5104 758.5 83.9688C759.156 83 760.01 82.5156 761.062 82.5156C761.885 82.5156 762.518 82.7448 762.961 83.2031C763.404 83.6562 763.625 84.3568 763.625 85.3047V91H762.227V85.7734C762.227 85.2109 762.18 84.8073 762.086 84.5625C761.997 84.3125 761.833 84.112 761.594 83.9609C761.354 83.8099 761.073 83.7344 760.75 83.7344C760.167 83.7344 759.682 83.9297 759.297 84.3203C758.911 84.7057 758.719 85.3255 758.719 86.1797V91H757.312V85.6094C757.312 84.9844 757.198 84.5156 756.969 84.2031C756.74 83.8906 756.365 83.7344 755.844 83.7344C755.448 83.7344 755.081 83.8385 754.742 84.0469C754.409 84.2552 754.167 84.5599 754.016 84.9609C753.865 85.362 753.789 85.9401 753.789 86.6953V91H752.383ZM771.391 88.3281L772.844 88.5078C772.615 89.3568 772.19 90.0156 771.57 90.4844C770.951 90.9531 770.159 91.1875 769.195 91.1875C767.982 91.1875 767.018 90.8151 766.305 90.0703C765.596 89.3203 765.242 88.2708 765.242 86.9219C765.242 85.526 765.602 84.4427 766.32 83.6719C767.039 82.901 767.971 82.5156 769.117 82.5156C770.227 82.5156 771.133 82.8932 771.836 83.6484C772.539 84.4036 772.891 85.4661 772.891 86.8359C772.891 86.9193 772.888 87.0443 772.883 87.2109H766.695C766.747 88.1224 767.005 88.8203 767.469 89.3047C767.932 89.7891 768.51 90.0312 769.203 90.0312C769.719 90.0312 770.159 89.8958 770.523 89.625C770.888 89.3542 771.177 88.9219 771.391 88.3281ZM766.773 86.0547H771.406C771.344 85.3568 771.167 84.8333 770.875 84.4844C770.427 83.9427 769.846 83.6719 769.133 83.6719C768.487 83.6719 767.943 83.888 767.5 84.3203C767.062 84.7526 766.82 85.3307 766.773 86.0547ZM774.617 91V82.7031H775.883V83.8828C776.492 82.9714 777.372 82.5156 778.523 82.5156C779.023 82.5156 779.482 82.6068 779.898 82.7891C780.32 82.9661 780.635 83.2005 780.844 83.4922C781.052 83.7839 781.198 84.1302 781.281 84.5312C781.333 84.7917 781.359 85.2474 781.359 85.8984V91H779.953V85.9531C779.953 85.3802 779.898 84.9531 779.789 84.6719C779.68 84.3854 779.484 84.1589 779.203 83.9922C778.927 83.8203 778.602 83.7344 778.227 83.7344C777.628 83.7344 777.109 83.9245 776.672 84.3047C776.24 84.6849 776.023 85.4062 776.023 86.4688V91H774.617ZM786.594 89.7422L786.797 90.9844C786.401 91.0677 786.047 91.1094 785.734 91.1094C785.224 91.1094 784.828 91.0286 784.547 90.8672C784.266 90.7057 784.068 90.4948 783.953 90.2344C783.839 89.9688 783.781 89.4141 783.781 88.5703V83.7969H782.75V82.7031H783.781V80.6484L785.18 79.8047V82.7031H786.594V83.7969H785.18V88.6484C785.18 89.0495 785.203 89.3073 785.25 89.4219C785.302 89.5365 785.383 89.6276 785.492 89.6953C785.607 89.763 785.768 89.7969 785.977 89.7969C786.133 89.7969 786.339 89.7786 786.594 89.7422Z" fill="#3E3E3D"/>
<g opacity="0.5">
<path d="M579.5 109.5H1159" stroke="#CDCCCB"/>
</g>
<rect width="579.5" height="49" transform="translate(579.5 110)" fill="white"/>
<path d="M602.234 137.328L603.688 137.508C603.458 138.357 603.034 139.016 602.414 139.484C601.794 139.953 601.003 140.188 600.039 140.188C598.826 140.188 597.862 139.815 597.148 139.07C596.44 138.32 596.086 137.271 596.086 135.922C596.086 134.526 596.445 133.443 597.164 132.672C597.883 131.901 598.815 131.516 599.961 131.516C601.07 131.516 601.977 131.893 602.68 132.648C603.383 133.404 603.734 134.466 603.734 135.836C603.734 135.919 603.732 136.044 603.727 136.211H597.539C597.591 137.122 597.849 137.82 598.312 138.305C598.776 138.789 599.354 139.031 600.047 139.031C600.562 139.031 601.003 138.896 601.367 138.625C601.732 138.354 602.021 137.922 602.234 137.328ZM597.617 135.055H602.25C602.188 134.357 602.01 133.833 601.719 133.484C601.271 132.943 600.69 132.672 599.977 132.672C599.331 132.672 598.786 132.888 598.344 133.32C597.906 133.753 597.664 134.331 597.617 135.055ZM599.133 130.672L600.172 128.484H602.016L600.297 130.672H599.133ZM608.531 138.742L608.734 139.984C608.339 140.068 607.984 140.109 607.672 140.109C607.161 140.109 606.766 140.029 606.484 139.867C606.203 139.706 606.005 139.495 605.891 139.234C605.776 138.969 605.719 138.414 605.719 137.57V132.797H604.688V131.703H605.719V129.648L607.117 128.805V131.703H608.531V132.797H607.117V137.648C607.117 138.049 607.141 138.307 607.188 138.422C607.24 138.536 607.32 138.628 607.43 138.695C607.544 138.763 607.706 138.797 607.914 138.797C608.07 138.797 608.276 138.779 608.531 138.742ZM615.328 138.977C614.807 139.419 614.305 139.732 613.82 139.914C613.341 140.096 612.826 140.188 612.273 140.188C611.362 140.188 610.661 139.966 610.172 139.523C609.682 139.076 609.438 138.505 609.438 137.812C609.438 137.406 609.529 137.036 609.711 136.703C609.898 136.365 610.141 136.094 610.438 135.891C610.74 135.688 611.078 135.534 611.453 135.43C611.729 135.357 612.146 135.286 612.703 135.219C613.839 135.083 614.674 134.922 615.211 134.734C615.216 134.542 615.219 134.419 615.219 134.367C615.219 133.794 615.086 133.391 614.82 133.156C614.461 132.839 613.927 132.68 613.219 132.68C612.557 132.68 612.068 132.797 611.75 133.031C611.438 133.26 611.206 133.669 611.055 134.258L609.68 134.07C609.805 133.482 610.01 133.008 610.297 132.648C610.583 132.284 610.997 132.005 611.539 131.812C612.081 131.615 612.708 131.516 613.422 131.516C614.13 131.516 614.706 131.599 615.148 131.766C615.591 131.932 615.917 132.143 616.125 132.398C616.333 132.648 616.479 132.966 616.562 133.352C616.609 133.591 616.633 134.023 616.633 134.648V136.523C616.633 137.831 616.661 138.659 616.719 139.008C616.781 139.352 616.901 139.682 617.078 140H615.609C615.464 139.708 615.37 139.367 615.328 138.977ZM615.211 135.836C614.701 136.044 613.935 136.221 612.914 136.367C612.336 136.451 611.927 136.544 611.688 136.648C611.448 136.753 611.263 136.906 611.133 137.109C611.003 137.307 610.938 137.529 610.938 137.773C610.938 138.148 611.078 138.461 611.359 138.711C611.646 138.961 612.062 139.086 612.609 139.086C613.151 139.086 613.633 138.969 614.055 138.734C614.477 138.495 614.786 138.169 614.984 137.758C615.135 137.44 615.211 136.971 615.211 136.352V135.836ZM621.891 138.742L622.094 139.984C621.698 140.068 621.344 140.109 621.031 140.109C620.521 140.109 620.125 140.029 619.844 139.867C619.562 139.706 619.365 139.495 619.25 139.234C619.135 138.969 619.078 138.414 619.078 137.57V132.797H618.047V131.703H619.078V129.648L620.477 128.805V131.703H621.891V132.797H620.477V137.648C620.477 138.049 620.5 138.307 620.547 138.422C620.599 138.536 620.68 138.628 620.789 138.695C620.904 138.763 621.065 138.797 621.273 138.797C621.43 138.797 621.635 138.779 621.891 138.742ZM633.141 138.977C632.62 139.419 632.117 139.732 631.633 139.914C631.154 140.096 630.638 140.188 630.086 140.188C629.174 140.188 628.474 139.966 627.984 139.523C627.495 139.076 627.25 138.505 627.25 137.812C627.25 137.406 627.341 137.036 627.523 136.703C627.711 136.365 627.953 136.094 628.25 135.891C628.552 135.688 628.891 135.534 629.266 135.43C629.542 135.357 629.958 135.286 630.516 135.219C631.651 135.083 632.487 134.922 633.023 134.734C633.029 134.542 633.031 134.419 633.031 134.367C633.031 133.794 632.898 133.391 632.633 133.156C632.273 132.839 631.74 132.68 631.031 132.68C630.37 132.68 629.88 132.797 629.562 133.031C629.25 133.26 629.018 133.669 628.867 134.258L627.492 134.07C627.617 133.482 627.823 133.008 628.109 132.648C628.396 132.284 628.81 132.005 629.352 131.812C629.893 131.615 630.521 131.516 631.234 131.516C631.943 131.516 632.518 131.599 632.961 131.766C633.404 131.932 633.729 132.143 633.938 132.398C634.146 132.648 634.292 132.966 634.375 133.352C634.422 133.591 634.445 134.023 634.445 134.648V136.523C634.445 137.831 634.474 138.659 634.531 139.008C634.594 139.352 634.714 139.682 634.891 140H633.422C633.276 139.708 633.182 139.367 633.141 138.977ZM633.023 135.836C632.513 136.044 631.747 136.221 630.727 136.367C630.148 136.451 629.74 136.544 629.5 136.648C629.26 136.753 629.076 136.906 628.945 137.109C628.815 137.307 628.75 137.529 628.75 137.773C628.75 138.148 628.891 138.461 629.172 138.711C629.458 138.961 629.875 139.086 630.422 139.086C630.964 139.086 631.445 138.969 631.867 138.734C632.289 138.495 632.599 138.169 632.797 137.758C632.948 137.44 633.023 136.971 633.023 136.352V135.836ZM642.07 140V138.781C641.424 139.719 640.547 140.188 639.438 140.188C638.948 140.188 638.49 140.094 638.062 139.906C637.641 139.719 637.326 139.484 637.117 139.203C636.914 138.917 636.771 138.568 636.688 138.156C636.63 137.88 636.602 137.443 636.602 136.844V131.703H638.008V136.305C638.008 137.039 638.036 137.534 638.094 137.789C638.182 138.159 638.37 138.451 638.656 138.664C638.943 138.872 639.297 138.977 639.719 138.977C640.141 138.977 640.536 138.87 640.906 138.656C641.276 138.438 641.536 138.143 641.688 137.773C641.844 137.398 641.922 136.857 641.922 136.148V131.703H643.328V140H642.07ZM649.43 137.523L650.82 137.305C650.898 137.862 651.115 138.289 651.469 138.586C651.828 138.883 652.328 139.031 652.969 139.031C653.615 139.031 654.094 138.901 654.406 138.641C654.719 138.375 654.875 138.065 654.875 137.711C654.875 137.393 654.737 137.143 654.461 136.961C654.268 136.836 653.789 136.677 653.023 136.484C651.992 136.224 651.276 136 650.875 135.812C650.479 135.62 650.177 135.357 649.969 135.023C649.766 134.685 649.664 134.312 649.664 133.906C649.664 133.536 649.747 133.195 649.914 132.883C650.086 132.565 650.318 132.302 650.609 132.094C650.828 131.932 651.125 131.797 651.5 131.688C651.88 131.573 652.286 131.516 652.719 131.516C653.37 131.516 653.94 131.609 654.43 131.797C654.924 131.984 655.289 132.24 655.523 132.562C655.758 132.88 655.919 133.307 656.008 133.844L654.633 134.031C654.57 133.604 654.388 133.271 654.086 133.031C653.789 132.792 653.367 132.672 652.82 132.672C652.174 132.672 651.714 132.779 651.438 132.992C651.161 133.206 651.023 133.456 651.023 133.742C651.023 133.924 651.081 134.089 651.195 134.234C651.31 134.385 651.49 134.51 651.734 134.609C651.875 134.661 652.289 134.781 652.977 134.969C653.971 135.234 654.664 135.453 655.055 135.625C655.451 135.792 655.76 136.036 655.984 136.359C656.208 136.682 656.32 137.083 656.32 137.562C656.32 138.031 656.182 138.474 655.906 138.891C655.635 139.302 655.242 139.622 654.727 139.852C654.211 140.076 653.628 140.188 652.977 140.188C651.898 140.188 651.076 139.964 650.508 139.516C649.945 139.068 649.586 138.404 649.43 137.523ZM663.43 140V138.781C662.784 139.719 661.906 140.188 660.797 140.188C660.307 140.188 659.849 140.094 659.422 139.906C659 139.719 658.685 139.484 658.477 139.203C658.273 138.917 658.13 138.568 658.047 138.156C657.99 137.88 657.961 137.443 657.961 136.844V131.703H659.367V136.305C659.367 137.039 659.396 137.534 659.453 137.789C659.542 138.159 659.729 138.451 660.016 138.664C660.302 138.872 660.656 138.977 661.078 138.977C661.5 138.977 661.896 138.87 662.266 138.656C662.635 138.438 662.896 138.143 663.047 137.773C663.203 137.398 663.281 136.857 663.281 136.148V131.703H664.688V140H663.43ZM666.883 140V131.703H668.148V132.961C668.471 132.372 668.768 131.984 669.039 131.797C669.315 131.609 669.617 131.516 669.945 131.516C670.419 131.516 670.901 131.667 671.391 131.969L670.906 133.273C670.562 133.07 670.219 132.969 669.875 132.969C669.568 132.969 669.292 133.062 669.047 133.25C668.802 133.432 668.628 133.688 668.523 134.016C668.367 134.516 668.289 135.062 668.289 135.656V140H666.883ZM674.531 140L671.375 131.703H672.859L674.641 136.672C674.833 137.208 675.01 137.766 675.172 138.344C675.297 137.906 675.471 137.38 675.695 136.766L677.539 131.703H678.984L675.844 140H674.531ZM679.703 135.852C679.703 134.315 680.13 133.177 680.984 132.438C681.698 131.823 682.568 131.516 683.594 131.516C684.734 131.516 685.667 131.891 686.391 132.641C687.115 133.385 687.477 134.417 687.477 135.734C687.477 136.802 687.315 137.643 686.992 138.258C686.674 138.867 686.208 139.341 685.594 139.68C684.984 140.018 684.318 140.188 683.594 140.188C682.432 140.188 681.492 139.815 680.773 139.07C680.06 138.326 679.703 137.253 679.703 135.852ZM681.148 135.852C681.148 136.914 681.38 137.711 681.844 138.242C682.307 138.768 682.891 139.031 683.594 139.031C684.292 139.031 684.872 138.766 685.336 138.234C685.799 137.703 686.031 136.893 686.031 135.805C686.031 134.779 685.797 134.003 685.328 133.477C684.865 132.945 684.286 132.68 683.594 132.68C682.891 132.68 682.307 132.943 681.844 133.469C681.38 133.995 681.148 134.789 681.148 135.852ZM689.102 140V128.547H690.508V140H689.102ZM696.586 137.523L697.977 137.305C698.055 137.862 698.271 138.289 698.625 138.586C698.984 138.883 699.484 139.031 700.125 139.031C700.771 139.031 701.25 138.901 701.562 138.641C701.875 138.375 702.031 138.065 702.031 137.711C702.031 137.393 701.893 137.143 701.617 136.961C701.424 136.836 700.945 136.677 700.18 136.484C699.148 136.224 698.432 136 698.031 135.812C697.635 135.62 697.333 135.357 697.125 135.023C696.922 134.685 696.82 134.312 696.82 133.906C696.82 133.536 696.904 133.195 697.07 132.883C697.242 132.565 697.474 132.302 697.766 132.094C697.984 131.932 698.281 131.797 698.656 131.688C699.036 131.573 699.443 131.516 699.875 131.516C700.526 131.516 701.096 131.609 701.586 131.797C702.081 131.984 702.445 132.24 702.68 132.562C702.914 132.88 703.076 133.307 703.164 133.844L701.789 134.031C701.727 133.604 701.544 133.271 701.242 133.031C700.945 132.792 700.523 132.672 699.977 132.672C699.331 132.672 698.87 132.779 698.594 132.992C698.318 133.206 698.18 133.456 698.18 133.742C698.18 133.924 698.237 134.089 698.352 134.234C698.466 134.385 698.646 134.51 698.891 134.609C699.031 134.661 699.445 134.781 700.133 134.969C701.128 135.234 701.82 135.453 702.211 135.625C702.607 135.792 702.917 136.036 703.141 136.359C703.365 136.682 703.477 137.083 703.477 137.562C703.477 138.031 703.339 138.474 703.062 138.891C702.792 139.302 702.398 139.622 701.883 139.852C701.367 140.076 700.784 140.188 700.133 140.188C699.055 140.188 698.232 139.964 697.664 139.516C697.102 139.068 696.742 138.404 696.586 137.523ZM704.625 135.852C704.625 134.315 705.052 133.177 705.906 132.438C706.62 131.823 707.49 131.516 708.516 131.516C709.656 131.516 710.589 131.891 711.312 132.641C712.036 133.385 712.398 134.417 712.398 135.734C712.398 136.802 712.237 137.643 711.914 138.258C711.596 138.867 711.13 139.341 710.516 139.68C709.906 140.018 709.24 140.188 708.516 140.188C707.354 140.188 706.414 139.815 705.695 139.07C704.982 138.326 704.625 137.253 704.625 135.852ZM706.07 135.852C706.07 136.914 706.302 137.711 706.766 138.242C707.229 138.768 707.812 139.031 708.516 139.031C709.214 139.031 709.794 138.766 710.258 138.234C710.721 137.703 710.953 136.893 710.953 135.805C710.953 134.779 710.719 134.003 710.25 133.477C709.786 132.945 709.208 132.68 708.516 132.68C707.812 132.68 707.229 132.943 706.766 133.469C706.302 133.995 706.07 134.789 706.07 135.852ZM719.492 140V138.781C718.846 139.719 717.969 140.188 716.859 140.188C716.37 140.188 715.911 140.094 715.484 139.906C715.062 139.719 714.747 139.484 714.539 139.203C714.336 138.917 714.193 138.568 714.109 138.156C714.052 137.88 714.023 137.443 714.023 136.844V131.703H715.43V136.305C715.43 137.039 715.458 137.534 715.516 137.789C715.604 138.159 715.792 138.451 716.078 138.664C716.365 138.872 716.719 138.977 717.141 138.977C717.562 138.977 717.958 138.87 718.328 138.656C718.698 138.438 718.958 138.143 719.109 137.773C719.266 137.398 719.344 136.857 719.344 136.148V131.703H720.75V140H719.492ZM722.945 140V131.703H724.211V132.961C724.534 132.372 724.831 131.984 725.102 131.797C725.378 131.609 725.68 131.516 726.008 131.516C726.482 131.516 726.964 131.667 727.453 131.969L726.969 133.273C726.625 133.07 726.281 132.969 725.938 132.969C725.63 132.969 725.354 133.062 725.109 133.25C724.865 133.432 724.69 133.688 724.586 134.016C724.43 134.516 724.352 135.062 724.352 135.656V140H722.945ZM728.297 130.164V128.547H729.703V130.164H728.297ZM728.297 140V131.703H729.703V140H728.297ZM731.289 137.523L732.68 137.305C732.758 137.862 732.974 138.289 733.328 138.586C733.688 138.883 734.188 139.031 734.828 139.031C735.474 139.031 735.953 138.901 736.266 138.641C736.578 138.375 736.734 138.065 736.734 137.711C736.734 137.393 736.596 137.143 736.32 136.961C736.128 136.836 735.648 136.677 734.883 136.484C733.852 136.224 733.135 136 732.734 135.812C732.339 135.62 732.036 135.357 731.828 135.023C731.625 134.685 731.523 134.312 731.523 133.906C731.523 133.536 731.607 133.195 731.773 132.883C731.945 132.565 732.177 132.302 732.469 132.094C732.688 131.932 732.984 131.797 733.359 131.688C733.74 131.573 734.146 131.516 734.578 131.516C735.229 131.516 735.799 131.609 736.289 131.797C736.784 131.984 737.148 132.24 737.383 132.562C737.617 132.88 737.779 133.307 737.867 133.844L736.492 134.031C736.43 133.604 736.247 133.271 735.945 133.031C735.648 132.792 735.227 132.672 734.68 132.672C734.034 132.672 733.573 132.779 733.297 132.992C733.021 133.206 732.883 133.456 732.883 133.742C732.883 133.924 732.94 134.089 733.055 134.234C733.169 134.385 733.349 134.51 733.594 134.609C733.734 134.661 734.148 134.781 734.836 134.969C735.831 135.234 736.523 135.453 736.914 135.625C737.31 135.792 737.62 136.036 737.844 136.359C738.068 136.682 738.18 137.083 738.18 137.562C738.18 138.031 738.042 138.474 737.766 138.891C737.495 139.302 737.102 139.622 736.586 139.852C736.07 140.076 735.487 140.188 734.836 140.188C733.758 140.188 732.935 139.964 732.367 139.516C731.805 139.068 731.445 138.404 731.289 137.523ZM749.688 140V138.953C749.161 139.776 748.388 140.188 747.367 140.188C746.706 140.188 746.096 140.005 745.539 139.641C744.987 139.276 744.557 138.768 744.25 138.117C743.948 137.461 743.797 136.708 743.797 135.859C743.797 135.031 743.935 134.281 744.211 133.609C744.487 132.932 744.901 132.414 745.453 132.055C746.005 131.695 746.622 131.516 747.305 131.516C747.805 131.516 748.25 131.622 748.641 131.836C749.031 132.044 749.349 132.318 749.594 132.656V128.547H750.992V140H749.688ZM745.242 135.859C745.242 136.922 745.466 137.716 745.914 138.242C746.362 138.768 746.891 139.031 747.5 139.031C748.115 139.031 748.635 138.781 749.062 138.281C749.495 137.776 749.711 137.008 749.711 135.977C749.711 134.841 749.492 134.008 749.055 133.477C748.617 132.945 748.078 132.68 747.438 132.68C746.812 132.68 746.289 132.935 745.867 133.445C745.451 133.956 745.242 134.76 745.242 135.859ZM758.648 140V138.781C758.003 139.719 757.125 140.188 756.016 140.188C755.526 140.188 755.068 140.094 754.641 139.906C754.219 139.719 753.904 139.484 753.695 139.203C753.492 138.917 753.349 138.568 753.266 138.156C753.208 137.88 753.18 137.443 753.18 136.844V131.703H754.586V136.305C754.586 137.039 754.615 137.534 754.672 137.789C754.76 138.159 754.948 138.451 755.234 138.664C755.521 138.872 755.875 138.977 756.297 138.977C756.719 138.977 757.115 138.87 757.484 138.656C757.854 138.438 758.115 138.143 758.266 137.773C758.422 137.398 758.5 136.857 758.5 136.148V131.703H759.906V140H758.648ZM766.008 137.523L767.398 137.305C767.477 137.862 767.693 138.289 768.047 138.586C768.406 138.883 768.906 139.031 769.547 139.031C770.193 139.031 770.672 138.901 770.984 138.641C771.297 138.375 771.453 138.065 771.453 137.711C771.453 137.393 771.315 137.143 771.039 136.961C770.846 136.836 770.367 136.677 769.602 136.484C768.57 136.224 767.854 136 767.453 135.812C767.057 135.62 766.755 135.357 766.547 135.023C766.344 134.685 766.242 134.312 766.242 133.906C766.242 133.536 766.326 133.195 766.492 132.883C766.664 132.565 766.896 132.302 767.188 132.094C767.406 131.932 767.703 131.797 768.078 131.688C768.458 131.573 768.865 131.516 769.297 131.516C769.948 131.516 770.518 131.609 771.008 131.797C771.503 131.984 771.867 132.24 772.102 132.562C772.336 132.88 772.497 133.307 772.586 133.844L771.211 134.031C771.148 133.604 770.966 133.271 770.664 133.031C770.367 132.792 769.945 132.672 769.398 132.672C768.753 132.672 768.292 132.779 768.016 132.992C767.74 133.206 767.602 133.456 767.602 133.742C767.602 133.924 767.659 134.089 767.773 134.234C767.888 134.385 768.068 134.51 768.312 134.609C768.453 134.661 768.867 134.781 769.555 134.969C770.549 135.234 771.242 135.453 771.633 135.625C772.029 135.792 772.339 136.036 772.562 136.359C772.786 136.682 772.898 137.083 772.898 137.562C772.898 138.031 772.76 138.474 772.484 138.891C772.214 139.302 771.82 139.622 771.305 139.852C770.789 140.076 770.206 140.188 769.555 140.188C768.477 140.188 767.654 139.964 767.086 139.516C766.523 139.068 766.164 138.404 766.008 137.523ZM780.25 137.328L781.703 137.508C781.474 138.357 781.049 139.016 780.43 139.484C779.81 139.953 779.018 140.188 778.055 140.188C776.841 140.188 775.878 139.815 775.164 139.07C774.456 138.32 774.102 137.271 774.102 135.922C774.102 134.526 774.461 133.443 775.18 132.672C775.898 131.901 776.831 131.516 777.977 131.516C779.086 131.516 779.992 131.893 780.695 132.648C781.398 133.404 781.75 134.466 781.75 135.836C781.75 135.919 781.747 136.044 781.742 136.211H775.555C775.607 137.122 775.865 137.82 776.328 138.305C776.792 138.789 777.37 139.031 778.062 139.031C778.578 139.031 779.018 138.896 779.383 138.625C779.747 138.354 780.036 137.922 780.25 137.328ZM775.633 135.055H780.266C780.203 134.357 780.026 133.833 779.734 133.484C779.286 132.943 778.706 132.672 777.992 132.672C777.346 132.672 776.802 132.888 776.359 133.32C775.922 133.753 775.68 134.331 775.633 135.055ZM783.219 140.688L784.586 140.891C784.643 141.312 784.802 141.62 785.062 141.812C785.411 142.073 785.888 142.203 786.492 142.203C787.143 142.203 787.646 142.073 788 141.812C788.354 141.552 788.594 141.188 788.719 140.719C788.792 140.432 788.826 139.831 788.82 138.914C788.206 139.638 787.44 140 786.523 140C785.383 140 784.5 139.589 783.875 138.766C783.25 137.943 782.938 136.956 782.938 135.805C782.938 135.013 783.081 134.284 783.367 133.617C783.654 132.945 784.068 132.427 784.609 132.062C785.156 131.698 785.797 131.516 786.531 131.516C787.51 131.516 788.318 131.911 788.953 132.703V131.703H790.25V138.875C790.25 140.167 790.117 141.081 789.852 141.617C789.591 142.159 789.174 142.586 788.602 142.898C788.034 143.211 787.333 143.367 786.5 143.367C785.51 143.367 784.711 143.143 784.102 142.695C783.492 142.253 783.198 141.583 783.219 140.688ZM784.383 135.703C784.383 136.792 784.599 137.586 785.031 138.086C785.464 138.586 786.005 138.836 786.656 138.836C787.302 138.836 787.844 138.589 788.281 138.094C788.719 137.594 788.938 136.812 788.938 135.75C788.938 134.734 788.711 133.969 788.258 133.453C787.81 132.938 787.268 132.68 786.633 132.68C786.008 132.68 785.477 132.935 785.039 133.445C784.602 133.951 784.383 134.703 784.383 135.703ZM792.383 140V131.703H793.641V132.867C793.901 132.461 794.247 132.135 794.68 131.891C795.112 131.641 795.604 131.516 796.156 131.516C796.771 131.516 797.273 131.643 797.664 131.898C798.06 132.154 798.339 132.51 798.5 132.969C799.156 132 800.01 131.516 801.062 131.516C801.885 131.516 802.518 131.745 802.961 132.203C803.404 132.656 803.625 133.357 803.625 134.305V140H802.227V134.773C802.227 134.211 802.18 133.807 802.086 133.562C801.997 133.312 801.833 133.112 801.594 132.961C801.354 132.81 801.073 132.734 800.75 132.734C800.167 132.734 799.682 132.93 799.297 133.32C798.911 133.706 798.719 134.326 798.719 135.18V140H797.312V134.609C797.312 133.984 797.198 133.516 796.969 133.203C796.74 132.891 796.365 132.734 795.844 132.734C795.448 132.734 795.081 132.839 794.742 133.047C794.409 133.255 794.167 133.56 794.016 133.961C793.865 134.362 793.789 134.94 793.789 135.695V140H792.383ZM811.391 137.328L812.844 137.508C812.615 138.357 812.19 139.016 811.57 139.484C810.951 139.953 810.159 140.188 809.195 140.188C807.982 140.188 807.018 139.815 806.305 139.07C805.596 138.32 805.242 137.271 805.242 135.922C805.242 134.526 805.602 133.443 806.32 132.672C807.039 131.901 807.971 131.516 809.117 131.516C810.227 131.516 811.133 131.893 811.836 132.648C812.539 133.404 812.891 134.466 812.891 135.836C812.891 135.919 812.888 136.044 812.883 136.211H806.695C806.747 137.122 807.005 137.82 807.469 138.305C807.932 138.789 808.51 139.031 809.203 139.031C809.719 139.031 810.159 138.896 810.523 138.625C810.888 138.354 811.177 137.922 811.391 137.328ZM806.773 135.055H811.406C811.344 134.357 811.167 133.833 810.875 133.484C810.427 132.943 809.846 132.672 809.133 132.672C808.487 132.672 807.943 132.888 807.5 133.32C807.062 133.753 806.82 134.331 806.773 135.055ZM814.617 140V131.703H815.883V132.883C816.492 131.971 817.372 131.516 818.523 131.516C819.023 131.516 819.482 131.607 819.898 131.789C820.32 131.966 820.635 132.201 820.844 132.492C821.052 132.784 821.198 133.13 821.281 133.531C821.333 133.792 821.359 134.247 821.359 134.898V140H819.953V134.953C819.953 134.38 819.898 133.953 819.789 133.672C819.68 133.385 819.484 133.159 819.203 132.992C818.927 132.82 818.602 132.734 818.227 132.734C817.628 132.734 817.109 132.924 816.672 133.305C816.24 133.685 816.023 134.406 816.023 135.469V140H814.617ZM826.594 138.742L826.797 139.984C826.401 140.068 826.047 140.109 825.734 140.109C825.224 140.109 824.828 140.029 824.547 139.867C824.266 139.706 824.068 139.495 823.953 139.234C823.839 138.969 823.781 138.414 823.781 137.57V132.797H822.75V131.703H823.781V129.648L825.18 128.805V131.703H826.594V132.797H825.18V137.648C825.18 138.049 825.203 138.307 825.25 138.422C825.302 138.536 825.383 138.628 825.492 138.695C825.607 138.763 825.768 138.797 825.977 138.797C826.133 138.797 826.339 138.779 826.594 138.742Z" fill="#3E3E3D"/>
<g opacity="0.5">
<path d="M579.5 158.5H1159" stroke="#CDCCCB"/>
</g>
<rect width="579.5" height="1" transform="translate(579.5 159)" fill="white"/>
<g opacity="0.5">
<path d="M579.5 159.5H1159" stroke="#CDCCCB"/>
</g>
</g>
<rect x="0.5" y="0.5" width="1158" height="159" rx="7.5" stroke="#CDCCCB"/>
<defs>
<clipPath id="clip0_304_42047">
<rect width="1159" height="160" rx="8" fill="white"/>
</clipPath>
</defs>
</svg>
