<svg viewBox="0 0 20 20" fill="none" xmlns="http://www.w3.org/2000/svg">
<path d="M13.6873 3.33335L12.4998 7.50002H13.4373C13.9373 7.50002 14.3089 7.72224 14.5519 8.16669C14.795 8.61113 14.7707 9.04169 14.479 9.45835L13.9582 10.2084C13.8054 10.4167 13.604 10.5347 13.354 10.5625C13.104 10.5903 12.8818 10.507 12.6873 10.3125C12.5484 10.1736 12.4686 10.007 12.4478 9.81252C12.4269 9.61808 12.4721 9.43752 12.5832 9.27085L12.6665 9.16669H11.3957C11.1179 9.16669 10.8957 9.05905 10.729 8.84377C10.5623 8.62849 10.5137 8.38197 10.5832 8.10419L11.9582 3.33335H6.6665C6.43039 3.33335 6.23248 3.25349 6.07275 3.09377C5.91303 2.93405 5.83317 2.73613 5.83317 2.50002C5.83317 2.26391 5.91303 2.06599 6.07275 1.90627C6.23248 1.74655 6.43039 1.66669 6.6665 1.66669H12.3748C12.8193 1.66669 13.1769 1.8403 13.4478 2.18752C13.7186 2.53474 13.7984 2.91669 13.6873 3.33335ZM15.8957 18.25L11.4582 13.8334L9.479 16.6875C9.39567 16.8125 9.28803 16.8959 9.15609 16.9375C9.02414 16.9792 8.89567 16.9792 8.77067 16.9375C8.64567 16.8959 8.5415 16.8229 8.45817 16.7188C8.37484 16.6146 8.33317 16.4861 8.33317 16.3334V11.6667H7.49984C7.0415 11.6667 6.64914 11.5035 6.32275 11.1771C5.99637 10.8507 5.83317 10.4584 5.83317 10V8.20835L1.729 4.10419C1.56234 3.93752 1.479 3.7396 1.479 3.51044C1.479 3.28127 1.56234 3.08335 1.729 2.91669C1.89567 2.75002 2.09359 2.66669 2.32275 2.66669C2.55192 2.66669 2.74984 2.75002 2.9165 2.91669L17.0832 17.0834C17.2498 17.25 17.3332 17.4445 17.3332 17.6667C17.3332 17.8889 17.2498 18.0834 17.0832 18.25C16.9165 18.4167 16.7186 18.5 16.4894 18.5C16.2603 18.5 16.0623 18.4167 15.8957 18.25Z" fill="currentColor"/>
</svg>