<svg width="712" height="145" viewBox="0 0 712 145" fill="none" xmlns="http://www.w3.org/2000/svg">
<rect x="0.5" y="0.5" width="711" height="144" rx="7.5" stroke="#CDCCCB"/>
<mask id="path-2-inside-1_846_4048" fill="white">
<path d="M203.5 26H224.5V61H203.5V26Z"/>
</mask>
<path d="M203.5 26H224.5V61H203.5V26Z" fill="#201F1F" fill-opacity="0.09"/>
<path d="M203.5 26V27H224.5V26V25H203.5V26ZM224.5 61V60H203.5V61V62H224.5V61Z" fill="#A1A1A0" mask="url(#path-2-inside-1_846_4048)"/>
<mask id="path-4-inside-2_846_4048" fill="white">
<path d="M203.5 72H224.5V129H203.5V72Z"/>
</mask>
<path d="M203.5 72H224.5V129H203.5V72Z" fill="#C81640" fill-opacity="0.25"/>
<path d="M203.5 72V73H224.5V72V71H203.5V72ZM224.5 129V128H203.5V129V130H224.5V129Z" fill="#DE2048" mask="url(#path-4-inside-2_846_4048)"/>
<path d="M239.932 60.336C239.132 60.336 238.508 60.112 238.06 59.664C237.644 59.216 237.436 58.592 237.436 57.792V28.368C237.436 27.536 237.644 26.912 238.06 26.496C238.508 26.048 239.132 25.824 239.932 25.824C240.732 25.824 241.34 26.048 241.756 26.496C242.204 26.912 242.428 27.536 242.428 28.368V40.752H261.388V28.368C261.388 27.536 261.596 26.912 262.012 26.496C262.46 26.048 263.084 25.824 263.884 25.824C264.684 25.824 265.292 26.048 265.708 26.496C266.124 26.912 266.332 27.536 266.332 28.368V57.792C266.332 58.592 266.124 59.216 265.708 59.664C265.292 60.112 264.684 60.336 263.884 60.336C263.084 60.336 262.46 60.112 262.012 59.664C261.596 59.216 261.388 58.592 261.388 57.792V44.928H242.428V57.792C242.428 58.592 242.22 59.216 241.804 59.664C241.388 60.112 240.764 60.336 239.932 60.336ZM283.697 60.432C281.137 60.432 278.929 59.952 277.073 58.992C275.249 58 273.825 56.608 272.801 54.816C271.809 52.992 271.313 50.832 271.313 48.336C271.313 45.904 271.809 43.776 272.801 41.952C273.793 40.128 275.153 38.704 276.881 37.68C278.609 36.656 280.577 36.144 282.785 36.144C284.417 36.144 285.873 36.416 287.153 36.96C288.433 37.472 289.521 38.24 290.417 39.264C291.345 40.256 292.033 41.472 292.481 42.912C292.961 44.352 293.201 45.968 293.201 47.76C293.201 48.304 293.041 48.72 292.721 49.008C292.401 49.264 291.921 49.392 291.281 49.392H275.153V46.416H289.937L289.121 47.088C289.121 45.488 288.881 44.128 288.401 43.008C287.953 41.888 287.265 41.04 286.337 40.464C285.441 39.856 284.321 39.552 282.977 39.552C281.473 39.552 280.193 39.904 279.137 40.608C278.113 41.312 277.329 42.288 276.785 43.536C276.241 44.784 275.969 46.24 275.969 47.904V48.192C275.969 51.008 276.625 53.136 277.937 54.576C279.281 55.984 281.217 56.688 283.745 56.688C284.705 56.688 285.713 56.56 286.769 56.304C287.857 56.048 288.881 55.616 289.841 55.008C290.385 54.688 290.865 54.544 291.281 54.576C291.729 54.608 292.081 54.752 292.337 55.008C292.625 55.264 292.801 55.584 292.865 55.968C292.929 56.352 292.865 56.752 292.673 57.168C292.481 57.552 292.145 57.904 291.665 58.224C290.577 58.96 289.313 59.52 287.873 59.904C286.433 60.256 285.041 60.432 283.697 60.432ZM304.974 60.432C303.342 60.432 301.87 60.112 300.558 59.472C299.278 58.832 298.27 57.968 297.534 56.88C296.798 55.792 296.43 54.56 296.43 53.184C296.43 51.456 296.862 50.096 297.726 49.104C298.622 48.08 300.078 47.36 302.094 46.944C304.142 46.496 306.894 46.272 310.35 46.272H312.606V49.248H310.398C308.094 49.248 306.27 49.36 304.926 49.584C303.582 49.808 302.622 50.192 302.046 50.736C301.502 51.248 301.23 51.968 301.23 52.896C301.23 54.112 301.646 55.104 302.478 55.872C303.31 56.608 304.462 56.976 305.934 56.976C307.118 56.976 308.158 56.704 309.054 56.16C309.95 55.584 310.654 54.816 311.166 53.856C311.71 52.896 311.982 51.792 311.982 50.544V45.024C311.982 43.2 311.598 41.888 310.83 41.088C310.062 40.288 308.798 39.888 307.038 39.888C306.014 39.888 304.942 40.016 303.822 40.272C302.734 40.528 301.598 40.96 300.414 41.568C299.87 41.824 299.406 41.904 299.022 41.808C298.638 41.712 298.334 41.504 298.11 41.184C297.886 40.832 297.758 40.464 297.726 40.08C297.726 39.664 297.822 39.264 298.014 38.88C298.238 38.496 298.606 38.208 299.118 38.016C300.526 37.344 301.918 36.864 303.294 36.576C304.67 36.288 305.966 36.144 307.182 36.144C309.326 36.144 311.086 36.48 312.462 37.152C313.87 37.824 314.91 38.848 315.582 40.224C316.254 41.6 316.59 43.376 316.59 45.552V57.888C316.59 58.656 316.398 59.264 316.014 59.712C315.63 60.128 315.07 60.336 314.334 60.336C313.63 60.336 313.07 60.128 312.654 59.712C312.238 59.264 312.03 58.656 312.03 57.888V54.768H312.462C312.206 55.952 311.726 56.976 311.022 57.84C310.35 58.672 309.502 59.312 308.478 59.76C307.454 60.208 306.286 60.432 304.974 60.432ZM331.195 60.432C329.147 60.432 327.339 59.952 325.771 58.992C324.235 58 323.035 56.592 322.171 54.768C321.307 52.912 320.875 50.752 320.875 48.288C320.875 45.76 321.307 43.6 322.171 41.808C323.035 40.016 324.235 38.624 325.771 37.632C327.339 36.64 329.147 36.144 331.195 36.144C333.243 36.144 335.003 36.656 336.475 37.68C337.979 38.672 338.987 40.016 339.499 41.712H338.971V28.272C338.971 27.472 339.179 26.864 339.595 26.448C340.011 26.032 340.603 25.824 341.371 25.824C342.139 25.824 342.731 26.032 343.147 26.448C343.595 26.864 343.819 27.472 343.819 28.272V57.888C343.819 58.656 343.611 59.264 343.195 59.712C342.779 60.128 342.187 60.336 341.419 60.336C340.651 60.336 340.059 60.128 339.643 59.712C339.227 59.264 339.019 58.656 339.019 57.888V53.664L339.547 54.72C339.035 56.448 338.027 57.84 336.523 58.896C335.051 59.92 333.275 60.432 331.195 60.432ZM332.443 56.688C333.755 56.688 334.907 56.368 335.899 55.728C336.891 55.088 337.659 54.144 338.203 52.896C338.779 51.648 339.067 50.112 339.067 48.288C339.067 45.536 338.459 43.456 337.243 42.048C336.027 40.64 334.427 39.936 332.443 39.936C331.099 39.936 329.931 40.256 328.939 40.896C327.947 41.504 327.163 42.432 326.587 43.68C326.043 44.928 325.771 46.464 325.771 48.288C325.771 51.008 326.379 53.088 327.595 54.528C328.811 55.968 330.427 56.688 332.443 56.688ZM352.027 60.288C351.259 60.288 350.667 60.064 350.251 59.616C349.835 59.136 349.627 58.48 349.627 57.648V38.928C349.627 38.096 349.835 37.456 350.251 37.008C350.667 36.56 351.259 36.336 352.027 36.336C352.795 36.336 353.387 36.56 353.803 37.008C354.251 37.456 354.475 38.096 354.475 38.928V57.648C354.475 58.48 354.267 59.136 353.851 59.616C353.435 60.064 352.827 60.288 352.027 60.288ZM352.027 31.344C351.067 31.344 350.315 31.104 349.771 30.624C349.259 30.144 349.003 29.472 349.003 28.608C349.003 27.712 349.259 27.04 349.771 26.592C350.315 26.112 351.067 25.872 352.027 25.872C352.987 25.872 353.723 26.112 354.235 26.592C354.779 27.04 355.051 27.712 355.051 28.608C355.051 29.472 354.779 30.144 354.235 30.624C353.723 31.104 352.987 31.344 352.027 31.344ZM362.699 60.336C361.931 60.336 361.339 60.128 360.923 59.712C360.507 59.264 360.299 58.656 360.299 57.888V38.688C360.299 37.888 360.507 37.28 360.923 36.864C361.339 36.448 361.915 36.24 362.651 36.24C363.419 36.24 363.995 36.448 364.379 36.864C364.795 37.28 365.003 37.888 365.003 38.688V42.432L364.475 41.568C365.179 39.776 366.283 38.432 367.787 37.536C369.291 36.608 371.019 36.144 372.971 36.144C374.827 36.144 376.363 36.496 377.579 37.2C378.827 37.872 379.755 38.912 380.363 40.32C380.971 41.696 381.275 43.44 381.275 45.552V57.888C381.275 58.656 381.067 59.264 380.651 59.712C380.235 60.128 379.643 60.336 378.875 60.336C378.075 60.336 377.467 60.128 377.051 59.712C376.635 59.264 376.427 58.656 376.427 57.888V45.84C376.427 43.824 376.027 42.352 375.227 41.424C374.459 40.496 373.243 40.032 371.579 40.032C369.627 40.032 368.059 40.64 366.875 41.856C365.723 43.072 365.147 44.704 365.147 46.752V57.888C365.147 59.52 364.331 60.336 362.699 60.336ZM397.563 69.072C395.835 69.072 394.155 68.896 392.523 68.544C390.923 68.192 389.467 67.616 388.155 66.816C387.675 66.56 387.355 66.24 387.195 65.856C387.035 65.504 386.987 65.136 387.051 64.752C387.147 64.368 387.323 64.032 387.579 63.744C387.835 63.456 388.139 63.264 388.491 63.168C388.875 63.072 389.275 63.136 389.691 63.36C391.099 64.128 392.427 64.64 393.675 64.896C394.955 65.184 396.139 65.328 397.227 65.328C399.467 65.328 401.147 64.752 402.267 63.6C403.387 62.48 403.947 60.816 403.947 58.608V53.712H404.379C403.899 55.472 402.891 56.864 401.355 57.888C399.819 58.912 398.043 59.424 396.027 59.424C393.915 59.424 392.075 58.944 390.507 57.984C388.939 56.992 387.723 55.632 386.859 53.904C385.995 52.144 385.563 50.096 385.563 47.76C385.563 46 385.803 44.416 386.283 43.008C386.795 41.6 387.499 40.384 388.395 39.36C389.323 38.336 390.427 37.552 391.707 37.008C393.019 36.432 394.459 36.144 396.027 36.144C398.075 36.144 399.851 36.656 401.355 37.68C402.891 38.704 403.883 40.096 404.331 41.856L403.851 42.672V38.688C403.851 37.888 404.059 37.28 404.475 36.864C404.923 36.448 405.515 36.24 406.251 36.24C407.019 36.24 407.611 36.448 408.027 36.864C408.443 37.28 408.651 37.888 408.651 38.688V58.032C408.651 61.68 407.707 64.432 405.819 66.288C403.931 68.144 401.179 69.072 397.563 69.072ZM397.179 55.632C398.587 55.632 399.787 55.312 400.779 54.672C401.771 54.032 402.539 53.12 403.083 51.936C403.627 50.752 403.899 49.36 403.899 47.76C403.899 45.36 403.291 43.456 402.075 42.048C400.891 40.64 399.259 39.936 397.179 39.936C395.803 39.936 394.619 40.256 393.627 40.896C392.635 41.536 391.851 42.448 391.275 43.632C390.731 44.784 390.459 46.16 390.459 47.76C390.459 50.192 391.067 52.112 392.283 53.52C393.499 54.928 395.131 55.632 397.179 55.632ZM429.951 60.336C429.183 60.336 428.575 60.128 428.127 59.712C427.711 59.264 427.503 58.656 427.503 57.888V40.32H424.815C424.207 40.32 423.727 40.16 423.375 39.84C423.023 39.488 422.847 39.024 422.847 38.448C422.847 37.84 423.023 37.376 423.375 37.056C423.727 36.736 424.207 36.576 424.815 36.576H428.895L427.503 37.872V36.144C427.503 32.976 428.287 30.592 429.855 28.992C431.423 27.36 433.711 26.4 436.719 26.112L438.207 26.016C438.751 25.952 439.183 26.032 439.503 26.256C439.823 26.48 440.031 26.768 440.127 27.12C440.223 27.472 440.223 27.84 440.127 28.224C440.063 28.576 439.903 28.896 439.647 29.184C439.391 29.472 439.071 29.632 438.687 29.664L437.775 29.712C435.887 29.872 434.511 30.416 433.647 31.344C432.783 32.24 432.351 33.616 432.351 35.472V37.344L431.679 36.576H437.007C437.679 36.576 438.175 36.736 438.495 37.056C438.847 37.376 439.023 37.84 439.023 38.448C439.023 39.024 438.847 39.488 438.495 39.84C438.175 40.16 437.679 40.32 437.007 40.32H432.351V57.888C432.351 59.52 431.551 60.336 429.951 60.336ZM451.272 60.432C448.904 60.432 446.856 59.936 445.128 58.944C443.432 57.952 442.104 56.544 441.144 54.72C440.184 52.896 439.704 50.752 439.704 48.288C439.704 46.4 439.976 44.72 440.52 43.248C441.064 41.776 441.832 40.512 442.824 39.456C443.848 38.368 445.064 37.552 446.472 37.008C447.912 36.432 449.512 36.144 451.272 36.144C453.608 36.144 455.624 36.64 457.32 37.632C459.048 38.624 460.392 40.032 461.352 41.856C462.312 43.648 462.792 45.792 462.792 48.288C462.792 50.144 462.52 51.824 461.976 53.328C461.432 54.832 460.648 56.112 459.624 57.168C458.632 58.224 457.416 59.04 455.976 59.616C454.568 60.16 453 60.432 451.272 60.432ZM451.272 56.688C452.584 56.688 453.736 56.368 454.728 55.728C455.72 55.088 456.488 54.144 457.032 52.896C457.608 51.648 457.896 50.112 457.896 48.288C457.896 45.536 457.288 43.456 456.072 42.048C454.856 40.64 453.256 39.936 451.272 39.936C449.928 39.936 448.76 40.256 447.768 40.896C446.776 41.504 445.992 42.432 445.416 43.68C444.872 44.928 444.6 46.464 444.6 48.288C444.6 51.008 445.208 53.088 446.424 54.528C447.64 55.968 449.256 56.688 451.272 56.688ZM469.636 60.336C468.868 60.336 468.276 60.128 467.86 59.712C467.444 59.264 467.236 58.656 467.236 57.888V38.688C467.236 37.888 467.444 37.28 467.86 36.864C468.276 36.448 468.852 36.24 469.588 36.24C470.356 36.24 470.932 36.448 471.316 36.864C471.732 37.28 471.94 37.888 471.94 38.688V42.432L471.412 41.568C472.116 39.776 473.22 38.432 474.724 37.536C476.228 36.608 477.956 36.144 479.908 36.144C481.764 36.144 483.3 36.496 484.516 37.2C485.764 37.872 486.692 38.912 487.3 40.32C487.908 41.696 488.212 43.44 488.212 45.552V57.888C488.212 58.656 488.004 59.264 487.588 59.712C487.172 60.128 486.58 60.336 485.812 60.336C485.012 60.336 484.404 60.128 483.988 59.712C483.572 59.264 483.364 58.656 483.364 57.888V45.84C483.364 43.824 482.964 42.352 482.164 41.424C481.396 40.496 480.18 40.032 478.516 40.032C476.564 40.032 474.996 40.64 473.812 41.856C472.66 43.072 472.084 44.704 472.084 46.752V57.888C472.084 59.52 471.268 60.336 469.636 60.336ZM503.876 60.432C501.956 60.432 500.34 60.096 499.028 59.424C497.716 58.752 496.74 57.76 496.1 56.448C495.46 55.136 495.14 53.536 495.14 51.648V40.32H492.26C491.62 40.32 491.124 40.16 490.772 39.84C490.42 39.488 490.244 39.024 490.244 38.448C490.244 37.84 490.42 37.376 490.772 37.056C491.124 36.736 491.62 36.576 492.26 36.576H495.14V31.632C495.14 30.832 495.348 30.224 495.764 29.808C496.212 29.392 496.82 29.184 497.588 29.184C498.356 29.184 498.948 29.392 499.364 29.808C499.78 30.224 499.988 30.832 499.988 31.632V36.576H505.604C506.244 36.576 506.74 36.736 507.092 37.056C507.444 37.376 507.62 37.84 507.62 38.448C507.62 39.024 507.444 39.488 507.092 39.84C506.74 40.16 506.244 40.32 505.604 40.32H499.988V51.264C499.988 52.96 500.34 54.24 501.044 55.104C501.78 55.968 502.964 56.4 504.596 56.4C505.172 56.4 505.668 56.352 506.084 56.256C506.532 56.128 506.9 56.048 507.188 56.016C507.54 56.016 507.828 56.144 508.052 56.4C508.276 56.624 508.388 57.072 508.388 57.744C508.388 58.224 508.292 58.672 508.1 59.088C507.94 59.504 507.636 59.776 507.188 59.904C506.804 60.032 506.276 60.144 505.604 60.24C504.964 60.368 504.388 60.432 503.876 60.432ZM530.288 60.432C528.88 60.432 527.424 60.272 525.92 59.952C524.448 59.632 523.088 59.088 521.84 58.32C521.424 58.032 521.136 57.712 520.976 57.36C520.816 57.008 520.752 56.656 520.784 56.304C520.848 55.92 520.992 55.6 521.216 55.344C521.472 55.056 521.776 54.88 522.128 54.816C522.512 54.752 522.912 54.832 523.328 55.056C524.576 55.76 525.776 56.256 526.928 56.544C528.08 56.8 529.216 56.928 530.336 56.928C532.032 56.928 533.312 56.624 534.176 56.016C535.04 55.408 535.472 54.592 535.472 53.568C535.472 52.736 535.184 52.096 534.608 51.648C534.032 51.168 533.168 50.8 532.016 50.544L527.456 49.632C525.472 49.216 523.968 48.48 522.944 47.424C521.92 46.368 521.408 45.024 521.408 43.392C521.408 41.92 521.808 40.64 522.608 39.552C523.408 38.464 524.528 37.632 525.968 37.056C527.408 36.448 529.072 36.144 530.96 36.144C532.368 36.144 533.696 36.32 534.944 36.672C536.192 37.024 537.344 37.552 538.4 38.256C538.816 38.48 539.088 38.784 539.216 39.168C539.344 39.52 539.36 39.872 539.264 40.224C539.2 40.576 539.04 40.896 538.784 41.184C538.528 41.44 538.208 41.6 537.824 41.664C537.472 41.696 537.072 41.6 536.624 41.376C535.664 40.768 534.704 40.336 533.744 40.08C532.816 39.824 531.888 39.696 530.96 39.696C529.264 39.696 527.984 40.016 527.12 40.656C526.288 41.264 525.872 42.096 525.872 43.152C525.872 43.952 526.128 44.608 526.64 45.12C527.152 45.632 527.952 46 529.04 46.224L533.6 47.136C535.68 47.552 537.248 48.256 538.304 49.248C539.392 50.24 539.936 51.584 539.936 53.28C539.936 55.488 539.056 57.232 537.296 58.512C535.536 59.792 533.2 60.432 530.288 60.432ZM546.73 60.288C545.962 60.288 545.37 60.064 544.954 59.616C544.538 59.136 544.33 58.48 544.33 57.648V38.928C544.33 38.096 544.538 37.456 544.954 37.008C545.37 36.56 545.962 36.336 546.73 36.336C547.498 36.336 548.09 36.56 548.506 37.008C548.954 37.456 549.178 38.096 549.178 38.928V57.648C549.178 58.48 548.97 59.136 548.554 59.616C548.138 60.064 547.53 60.288 546.73 60.288ZM546.73 31.344C545.77 31.344 545.018 31.104 544.474 30.624C543.962 30.144 543.706 29.472 543.706 28.608C543.706 27.712 543.962 27.04 544.474 26.592C545.018 26.112 545.77 25.872 546.73 25.872C547.69 25.872 548.426 26.112 548.938 26.592C549.482 27.04 549.754 27.712 549.754 28.608C549.754 29.472 549.482 30.144 548.938 30.624C548.426 31.104 547.69 31.344 546.73 31.344ZM555.914 60C555.402 60 554.986 59.888 554.666 59.664C554.346 59.408 554.122 59.088 553.994 58.704C553.898 58.288 553.898 57.856 553.994 57.408C554.122 56.928 554.378 56.48 554.762 56.064L567.818 39.12V40.32H555.626C555.018 40.32 554.554 40.16 554.234 39.84C553.914 39.488 553.754 39.024 553.754 38.448C553.754 37.84 553.914 37.376 554.234 37.056C554.554 36.736 555.018 36.576 555.626 36.576H570.122C570.73 36.576 571.21 36.704 571.562 36.96C571.946 37.216 572.186 37.536 572.282 37.92C572.41 38.304 572.426 38.72 572.33 39.168C572.234 39.616 571.994 40.048 571.61 40.464L558.362 57.6V56.304H571.178C572.458 56.304 573.098 56.912 573.098 58.128C573.098 58.704 572.922 59.168 572.57 59.52C572.25 59.84 571.786 60 571.178 60H555.914ZM586.978 60.432C584.418 60.432 582.21 59.952 580.354 58.992C578.53 58 577.106 56.608 576.082 54.816C575.09 52.992 574.594 50.832 574.594 48.336C574.594 45.904 575.09 43.776 576.082 41.952C577.074 40.128 578.434 38.704 580.162 37.68C581.89 36.656 583.858 36.144 586.066 36.144C587.698 36.144 589.154 36.416 590.434 36.96C591.714 37.472 592.802 38.24 593.698 39.264C594.626 40.256 595.314 41.472 595.762 42.912C596.242 44.352 596.482 45.968 596.482 47.76C596.482 48.304 596.322 48.72 596.002 49.008C595.682 49.264 595.202 49.392 594.562 49.392H578.434V46.416H593.218L592.402 47.088C592.402 45.488 592.162 44.128 591.682 43.008C591.234 41.888 590.546 41.04 589.618 40.464C588.722 39.856 587.602 39.552 586.258 39.552C584.754 39.552 583.474 39.904 582.418 40.608C581.394 41.312 580.61 42.288 580.066 43.536C579.522 44.784 579.25 46.24 579.25 47.904V48.192C579.25 51.008 579.906 53.136 581.218 54.576C582.562 55.984 584.498 56.688 587.026 56.688C587.986 56.688 588.994 56.56 590.05 56.304C591.138 56.048 592.162 55.616 593.122 55.008C593.666 54.688 594.146 54.544 594.562 54.576C595.01 54.608 595.362 54.752 595.618 55.008C595.906 55.264 596.082 55.584 596.146 55.968C596.21 56.352 596.146 56.752 595.954 57.168C595.762 57.552 595.426 57.904 594.946 58.224C593.858 58.96 592.594 59.52 591.154 59.904C589.714 60.256 588.322 60.432 586.978 60.432Z" fill="black"/>
<path d="M239.98 117C239.18 117 238.556 116.776 238.108 116.328C237.66 115.88 237.436 115.256 237.436 114.456V85.512C237.436 84.68 237.644 84.056 238.06 83.64C238.508 83.192 239.132 82.968 239.932 82.968C240.732 82.968 241.34 83.192 241.756 83.64C242.204 84.056 242.428 84.68 242.428 85.512V112.728H257.308C258.012 112.728 258.556 112.92 258.94 113.304C259.324 113.656 259.516 114.168 259.516 114.84C259.516 115.512 259.324 116.04 258.94 116.424C258.556 116.808 258.012 117 257.308 117H239.98ZM264.792 117.288C264.024 117.288 263.432 117.064 263.016 116.616C262.6 116.136 262.392 115.48 262.392 114.648V95.928C262.392 95.096 262.6 94.456 263.016 94.008C263.432 93.56 264.024 93.336 264.792 93.336C265.56 93.336 266.152 93.56 266.568 94.008C267.016 94.456 267.24 95.096 267.24 95.928V114.648C267.24 115.48 267.032 116.136 266.616 116.616C266.2 117.064 265.592 117.288 264.792 117.288ZM264.792 88.344C263.832 88.344 263.08 88.104 262.536 87.624C262.024 87.144 261.768 86.472 261.768 85.608C261.768 84.712 262.024 84.04 262.536 83.592C263.08 83.112 263.832 82.872 264.792 82.872C265.752 82.872 266.488 83.112 267 83.592C267.544 84.04 267.816 84.712 267.816 85.608C267.816 86.472 267.544 87.144 267 87.624C266.488 88.104 265.752 88.344 264.792 88.344ZM275.464 117.336C274.696 117.336 274.104 117.128 273.688 116.712C273.272 116.264 273.064 115.656 273.064 114.888V95.688C273.064 94.888 273.272 94.28 273.688 93.864C274.104 93.448 274.68 93.24 275.416 93.24C276.184 93.24 276.76 93.448 277.144 93.864C277.56 94.28 277.768 94.888 277.768 95.688V99.432L277.24 98.568C277.944 96.776 279.048 95.432 280.552 94.536C282.056 93.608 283.784 93.144 285.736 93.144C287.592 93.144 289.128 93.496 290.344 94.2C291.592 94.872 292.52 95.912 293.128 97.32C293.736 98.696 294.04 100.44 294.04 102.552V114.888C294.04 115.656 293.832 116.264 293.416 116.712C293 117.128 292.408 117.336 291.64 117.336C290.84 117.336 290.232 117.128 289.816 116.712C289.4 116.264 289.192 115.656 289.192 114.888V102.84C289.192 100.824 288.792 99.352 287.992 98.424C287.224 97.496 286.008 97.032 284.344 97.032C282.392 97.032 280.824 97.64 279.64 98.856C278.488 100.072 277.912 101.704 277.912 103.752V114.888C277.912 116.52 277.096 117.336 275.464 117.336ZM310.713 117.432C308.153 117.432 305.945 116.952 304.089 115.992C302.265 115 300.841 113.608 299.817 111.816C298.825 109.992 298.329 107.832 298.329 105.336C298.329 102.904 298.825 100.776 299.817 98.952C300.809 97.128 302.169 95.704 303.897 94.68C305.625 93.656 307.593 93.144 309.801 93.144C311.433 93.144 312.889 93.416 314.169 93.96C315.449 94.472 316.537 95.24 317.433 96.264C318.361 97.256 319.049 98.472 319.497 99.912C319.977 101.352 320.217 102.968 320.217 104.76C320.217 105.304 320.057 105.72 319.737 106.008C319.417 106.264 318.937 106.392 318.297 106.392H302.169V103.416H316.953L316.137 104.088C316.137 102.488 315.897 101.128 315.417 100.008C314.969 98.888 314.281 98.04 313.353 97.464C312.457 96.856 311.337 96.552 309.993 96.552C308.489 96.552 307.209 96.904 306.153 97.608C305.129 98.312 304.345 99.288 303.801 100.536C303.257 101.784 302.985 103.24 302.985 104.904V105.192C302.985 108.008 303.641 110.136 304.953 111.576C306.297 112.984 308.233 113.688 310.761 113.688C311.721 113.688 312.729 113.56 313.785 113.304C314.873 113.048 315.897 112.616 316.857 112.008C317.401 111.688 317.881 111.544 318.297 111.576C318.745 111.608 319.097 111.752 319.353 112.008C319.641 112.264 319.817 112.584 319.881 112.968C319.945 113.352 319.881 113.752 319.689 114.168C319.497 114.552 319.161 114.904 318.681 115.224C317.593 115.96 316.329 116.52 314.889 116.904C313.449 117.256 312.057 117.432 310.713 117.432ZM338.558 117.336C337.79 117.336 337.198 117.128 336.782 116.712C336.366 116.264 336.158 115.656 336.158 114.888V85.272C336.158 84.472 336.366 83.864 336.782 83.448C337.198 83.032 337.79 82.824 338.558 82.824C339.326 82.824 339.918 83.032 340.334 83.448C340.782 83.864 341.006 84.472 341.006 85.272V98.568H340.334C341.038 96.776 342.142 95.432 343.646 94.536C345.15 93.608 346.878 93.144 348.83 93.144C350.686 93.144 352.222 93.496 353.438 94.2C354.686 94.872 355.614 95.912 356.222 97.32C356.83 98.696 357.134 100.44 357.134 102.552V114.888C357.134 115.656 356.926 116.264 356.51 116.712C356.094 117.128 355.502 117.336 354.734 117.336C353.934 117.336 353.326 117.128 352.91 116.712C352.494 116.264 352.286 115.656 352.286 114.888V102.84C352.286 100.824 351.886 99.352 351.086 98.424C350.318 97.496 349.102 97.032 347.438 97.032C345.486 97.032 343.918 97.64 342.734 98.856C341.582 100.072 341.006 101.704 341.006 103.752V114.888C341.006 116.52 340.19 117.336 338.558 117.336ZM373.806 117.432C371.246 117.432 369.038 116.952 367.182 115.992C365.358 115 363.934 113.608 362.91 111.816C361.918 109.992 361.422 107.832 361.422 105.336C361.422 102.904 361.918 100.776 362.91 98.952C363.902 97.128 365.262 95.704 366.99 94.68C368.718 93.656 370.686 93.144 372.894 93.144C374.526 93.144 375.982 93.416 377.262 93.96C378.542 94.472 379.63 95.24 380.526 96.264C381.454 97.256 382.142 98.472 382.59 99.912C383.07 101.352 383.31 102.968 383.31 104.76C383.31 105.304 383.15 105.72 382.83 106.008C382.51 106.264 382.03 106.392 381.39 106.392H365.262V103.416H380.046L379.23 104.088C379.23 102.488 378.99 101.128 378.51 100.008C378.062 98.888 377.374 98.04 376.446 97.464C375.55 96.856 374.43 96.552 373.086 96.552C371.582 96.552 370.302 96.904 369.246 97.608C368.222 98.312 367.438 99.288 366.894 100.536C366.35 101.784 366.078 103.24 366.078 104.904V105.192C366.078 108.008 366.734 110.136 368.046 111.576C369.39 112.984 371.326 113.688 373.854 113.688C374.814 113.688 375.822 113.56 376.878 113.304C377.966 113.048 378.99 112.616 379.95 112.008C380.494 111.688 380.974 111.544 381.39 111.576C381.838 111.608 382.19 111.752 382.446 112.008C382.734 112.264 382.91 112.584 382.974 112.968C383.038 113.352 382.974 113.752 382.782 114.168C382.59 114.552 382.254 114.904 381.774 115.224C380.686 115.96 379.422 116.52 377.982 116.904C376.542 117.256 375.15 117.432 373.806 117.432ZM389.996 117.288C389.228 117.288 388.636 117.064 388.22 116.616C387.804 116.136 387.596 115.48 387.596 114.648V95.928C387.596 95.096 387.804 94.456 388.22 94.008C388.636 93.56 389.228 93.336 389.996 93.336C390.764 93.336 391.356 93.56 391.772 94.008C392.22 94.456 392.444 95.096 392.444 95.928V114.648C392.444 115.48 392.236 116.136 391.82 116.616C391.404 117.064 390.796 117.288 389.996 117.288ZM389.996 88.344C389.036 88.344 388.284 88.104 387.74 87.624C387.228 87.144 386.972 86.472 386.972 85.608C386.972 84.712 387.228 84.04 387.74 83.592C388.284 83.112 389.036 82.872 389.996 82.872C390.956 82.872 391.692 83.112 392.204 83.592C392.748 84.04 393.02 84.712 393.02 85.608C393.02 86.472 392.748 87.144 392.204 87.624C391.692 88.104 390.956 88.344 389.996 88.344ZM408.875 126.072C407.147 126.072 405.467 125.896 403.835 125.544C402.235 125.192 400.779 124.616 399.467 123.816C398.987 123.56 398.667 123.24 398.507 122.856C398.347 122.504 398.299 122.136 398.363 121.752C398.459 121.368 398.635 121.032 398.891 120.744C399.147 120.456 399.451 120.264 399.803 120.168C400.187 120.072 400.587 120.136 401.003 120.36C402.411 121.128 403.739 121.64 404.987 121.896C406.267 122.184 407.451 122.328 408.539 122.328C410.779 122.328 412.459 121.752 413.579 120.6C414.699 119.48 415.259 117.816 415.259 115.608V110.712H415.691C415.211 112.472 414.203 113.864 412.667 114.888C411.131 115.912 409.355 116.424 407.339 116.424C405.227 116.424 403.387 115.944 401.819 114.984C400.251 113.992 399.035 112.632 398.171 110.904C397.307 109.144 396.875 107.096 396.875 104.76C396.875 103 397.115 101.416 397.595 100.008C398.107 98.6 398.811 97.384 399.707 96.36C400.635 95.336 401.739 94.552 403.019 94.008C404.331 93.432 405.771 93.144 407.339 93.144C409.387 93.144 411.163 93.656 412.667 94.68C414.203 95.704 415.195 97.096 415.643 98.856L415.163 99.672V95.688C415.163 94.888 415.371 94.28 415.787 93.864C416.235 93.448 416.827 93.24 417.563 93.24C418.331 93.24 418.923 93.448 419.339 93.864C419.755 94.28 419.963 94.888 419.963 95.688V115.032C419.963 118.68 419.019 121.432 417.131 123.288C415.243 125.144 412.491 126.072 408.875 126.072ZM408.491 112.632C409.899 112.632 411.099 112.312 412.091 111.672C413.083 111.032 413.851 110.12 414.395 108.936C414.939 107.752 415.211 106.36 415.211 104.76C415.211 102.36 414.603 100.456 413.387 99.048C412.203 97.64 410.571 96.936 408.491 96.936C407.115 96.936 405.931 97.256 404.939 97.896C403.947 98.536 403.163 99.448 402.587 100.632C402.043 101.784 401.771 103.16 401.771 104.76C401.771 107.192 402.379 109.112 403.595 110.52C404.811 111.928 406.443 112.632 408.491 112.632ZM428.167 117.336C427.399 117.336 426.807 117.128 426.391 116.712C425.975 116.264 425.767 115.656 425.767 114.888V85.272C425.767 84.472 425.975 83.864 426.391 83.448C426.807 83.032 427.399 82.824 428.167 82.824C428.935 82.824 429.527 83.032 429.943 83.448C430.391 83.864 430.615 84.472 430.615 85.272V98.568H429.943C430.647 96.776 431.751 95.432 433.255 94.536C434.759 93.608 436.487 93.144 438.439 93.144C440.295 93.144 441.831 93.496 443.047 94.2C444.295 94.872 445.223 95.912 445.831 97.32C446.439 98.696 446.743 100.44 446.743 102.552V114.888C446.743 115.656 446.535 116.264 446.119 116.712C445.703 117.128 445.111 117.336 444.343 117.336C443.543 117.336 442.935 117.128 442.519 116.712C442.103 116.264 441.895 115.656 441.895 114.888V102.84C441.895 100.824 441.495 99.352 440.695 98.424C439.927 97.496 438.711 97.032 437.047 97.032C435.095 97.032 433.527 97.64 432.343 98.856C431.191 100.072 430.615 101.704 430.615 103.752V114.888C430.615 116.52 429.799 117.336 428.167 117.336ZM462.408 117.432C460.488 117.432 458.872 117.096 457.56 116.424C456.248 115.752 455.272 114.76 454.632 113.448C453.992 112.136 453.672 110.536 453.672 108.648V97.32H450.792C450.152 97.32 449.656 97.16 449.304 96.84C448.952 96.488 448.776 96.024 448.776 95.448C448.776 94.84 448.952 94.376 449.304 94.056C449.656 93.736 450.152 93.576 450.792 93.576H453.672V88.632C453.672 87.832 453.88 87.224 454.296 86.808C454.744 86.392 455.352 86.184 456.12 86.184C456.888 86.184 457.48 86.392 457.896 86.808C458.312 87.224 458.52 87.832 458.52 88.632V93.576H464.136C464.776 93.576 465.272 93.736 465.624 94.056C465.976 94.376 466.152 94.84 466.152 95.448C466.152 96.024 465.976 96.488 465.624 96.84C465.272 97.16 464.776 97.32 464.136 97.32H458.52V108.264C458.52 109.96 458.872 111.24 459.576 112.104C460.312 112.968 461.496 113.4 463.128 113.4C463.704 113.4 464.2 113.352 464.616 113.256C465.064 113.128 465.432 113.048 465.72 113.016C466.072 113.016 466.36 113.144 466.584 113.4C466.808 113.624 466.92 114.072 466.92 114.744C466.92 115.224 466.824 115.672 466.632 116.088C466.472 116.504 466.168 116.776 465.72 116.904C465.336 117.032 464.808 117.144 464.136 117.24C463.496 117.368 462.92 117.432 462.408 117.432Z" fill="black"/>
<path d="M163.453 47L165.323 44.3291L163.531 41.8145H165.206L166.124 43.2402L167.091 41.8145H168.702L166.944 44.2705L168.863 47H167.179L166.124 45.3936L165.06 47H163.453ZM172.159 43.0156V41.7559H177.164V43.0156H172.159ZM172.159 45.1836V43.9189H177.164V45.1836H172.159ZM183.482 47V45.5596H180.553V44.3584L183.658 39.8125H184.811V44.3535H185.699V45.5596H184.811V47H183.482ZM183.482 44.3535V41.9072L181.837 44.3535H183.482ZM187.535 43.1377C187.18 42.988 186.922 42.7829 186.759 42.5225C186.599 42.2588 186.52 41.9707 186.52 41.6582C186.52 41.1243 186.705 40.6833 187.076 40.335C187.451 39.9867 187.981 39.8125 188.668 39.8125C189.348 39.8125 189.876 39.9867 190.25 40.335C190.628 40.6833 190.816 41.1243 190.816 41.6582C190.816 41.9902 190.73 42.2865 190.558 42.5469C190.385 42.804 190.143 43.001 189.83 43.1377C190.227 43.2972 190.528 43.5299 190.733 43.8359C190.942 44.1419 191.046 44.4951 191.046 44.8955C191.046 45.5563 190.834 46.0934 190.411 46.5068C189.991 46.9202 189.431 47.127 188.731 47.127C188.08 47.127 187.538 46.9561 187.105 46.6143C186.594 46.2106 186.339 45.6572 186.339 44.9541C186.339 44.5667 186.435 44.2119 186.627 43.8896C186.819 43.5641 187.122 43.3135 187.535 43.1377ZM187.818 41.7559C187.818 42.0293 187.895 42.2425 188.048 42.3955C188.204 42.5485 188.411 42.625 188.668 42.625C188.928 42.625 189.137 42.5485 189.293 42.3955C189.449 42.2393 189.527 42.0244 189.527 41.751C189.527 41.4938 189.449 41.2887 189.293 41.1357C189.14 40.9795 188.937 40.9014 188.683 40.9014C188.419 40.9014 188.209 40.9795 188.053 41.1357C187.896 41.292 187.818 41.4987 187.818 41.7559ZM187.691 44.8223C187.691 45.1999 187.787 45.4945 187.979 45.7061C188.175 45.9176 188.417 46.0234 188.707 46.0234C188.99 46.0234 189.225 45.9225 189.41 45.7207C189.596 45.5156 189.688 45.221 189.688 44.8369C189.688 44.5016 189.594 44.2331 189.405 44.0312C189.216 43.8262 188.977 43.7236 188.688 43.7236C188.352 43.7236 188.102 43.8392 187.936 44.0703C187.773 44.3014 187.691 44.5521 187.691 44.8223Z" fill="#3E3E3D"/>
<path d="M118.365 104H116.993V98.8291C116.492 99.2979 115.901 99.6445 115.221 99.8691V98.624C115.579 98.5068 115.968 98.2855 116.388 97.96C116.808 97.6312 117.096 97.2487 117.252 96.8125H118.365V104ZM120.68 102.628H122.052V103.609C122.052 104.007 122.018 104.319 121.949 104.547C121.881 104.778 121.751 104.985 121.559 105.167C121.37 105.349 121.129 105.493 120.836 105.597L120.567 105.03C120.844 104.939 121.041 104.814 121.158 104.654C121.275 104.495 121.337 104.277 121.344 104H120.68V102.628ZM127.838 102.726V104H123.028C123.08 103.518 123.237 103.062 123.497 102.633C123.757 102.2 124.272 101.627 125.04 100.914C125.659 100.338 126.038 99.9473 126.178 99.7422C126.367 99.459 126.461 99.179 126.461 98.9023C126.461 98.5964 126.378 98.362 126.212 98.1992C126.049 98.0332 125.823 97.9502 125.533 97.9502C125.247 97.9502 125.019 98.0365 124.85 98.209C124.68 98.3815 124.583 98.668 124.557 99.0684L123.189 98.9316C123.271 98.1764 123.526 97.6344 123.956 97.3057C124.386 96.9769 124.923 96.8125 125.567 96.8125C126.274 96.8125 126.829 97.0029 127.232 97.3838C127.636 97.7646 127.838 98.2383 127.838 98.8047C127.838 99.127 127.779 99.4346 127.662 99.7275C127.548 100.017 127.366 100.322 127.115 100.641C126.949 100.852 126.65 101.157 126.217 101.554C125.784 101.951 125.509 102.215 125.392 102.345C125.278 102.475 125.185 102.602 125.113 102.726H127.838ZM128.404 104L130.274 101.329L128.482 98.8145H130.157L131.075 100.24L132.042 98.8145H133.653L131.896 101.271L133.814 104H132.13L131.075 102.394L130.011 104H128.404ZM137.11 100.016V98.7559H142.115V100.016H137.11ZM137.11 102.184V100.919H142.115V102.184H137.11ZM145.763 102.159L147.13 102.018C147.169 102.327 147.285 102.573 147.477 102.755C147.669 102.934 147.89 103.023 148.141 103.023C148.427 103.023 148.67 102.908 148.868 102.677C149.067 102.442 149.166 102.091 149.166 101.622C149.166 101.183 149.067 100.854 148.868 100.636C148.673 100.414 148.417 100.304 148.102 100.304C147.708 100.304 147.354 100.478 147.042 100.826L145.929 100.665L146.632 96.9395H150.26V98.2236H147.672L147.457 99.4395C147.763 99.2865 148.076 99.21 148.395 99.21C149.003 99.21 149.519 99.4313 149.942 99.874C150.366 100.317 150.577 100.891 150.577 101.598C150.577 102.187 150.406 102.713 150.064 103.175C149.599 103.806 148.953 104.122 148.126 104.122C147.465 104.122 146.926 103.945 146.51 103.59C146.093 103.235 145.844 102.758 145.763 102.159ZM151.31 98.2139V96.9395H156.002V97.9355C155.615 98.3164 155.221 98.8633 154.82 99.5762C154.42 100.289 154.114 101.048 153.902 101.852C153.694 102.652 153.591 103.368 153.595 104H152.271C152.294 103.01 152.498 102.001 152.882 100.973C153.269 99.944 153.785 99.0244 154.43 98.2139H151.31ZM157.135 102.628H158.507V103.609C158.507 104.007 158.473 104.319 158.404 104.547C158.336 104.778 158.206 104.985 158.014 105.167C157.825 105.349 157.584 105.493 157.291 105.597L157.022 105.03C157.299 104.939 157.496 104.814 157.613 104.654C157.73 104.495 157.792 104.277 157.799 104H157.135V102.628ZM164.308 98.5947L162.979 98.7412C162.947 98.4678 162.862 98.266 162.726 98.1357C162.589 98.0055 162.411 97.9404 162.193 97.9404C161.904 97.9404 161.658 98.0706 161.456 98.3311C161.257 98.5915 161.132 99.1335 161.08 99.957C161.422 99.5534 161.847 99.3516 162.354 99.3516C162.927 99.3516 163.417 99.5697 163.824 100.006C164.234 100.442 164.439 101.005 164.439 101.695C164.439 102.428 164.225 103.015 163.795 103.458C163.365 103.901 162.813 104.122 162.14 104.122C161.417 104.122 160.823 103.842 160.357 103.282C159.892 102.719 159.659 101.798 159.659 100.519C159.659 99.2067 159.902 98.2611 160.387 97.6816C160.872 97.1022 161.502 96.8125 162.276 96.8125C162.82 96.8125 163.269 96.9655 163.624 97.2715C163.982 97.5742 164.21 98.0153 164.308 98.5947ZM161.197 101.588C161.197 102.034 161.3 102.379 161.505 102.623C161.71 102.864 161.944 102.984 162.208 102.984C162.462 102.984 162.674 102.885 162.843 102.687C163.012 102.488 163.097 102.162 163.097 101.71C163.097 101.244 163.006 100.904 162.823 100.689C162.641 100.471 162.413 100.362 162.14 100.362C161.876 100.362 161.653 100.466 161.471 100.675C161.288 100.88 161.197 101.184 161.197 101.588ZM175.177 99.7227C175.61 100.195 175.984 100.554 176.3 100.802C176.616 101.046 176.913 101.228 177.193 101.349V101.568C176.871 101.725 176.559 101.925 176.256 102.169C175.953 102.41 175.592 102.765 175.172 103.233H174.796C175.102 102.579 175.423 102.076 175.758 101.725H167.97V101.231H175.758C175.51 100.919 175.338 100.686 175.24 100.533C175.143 100.377 174.998 100.107 174.806 99.7227H175.177ZM180.812 102.159L182.179 102.018C182.218 102.327 182.333 102.573 182.525 102.755C182.717 102.934 182.939 103.023 183.189 103.023C183.476 103.023 183.718 102.908 183.917 102.677C184.116 102.442 184.215 102.091 184.215 101.622C184.215 101.183 184.116 100.854 183.917 100.636C183.722 100.414 183.466 100.304 183.15 100.304C182.757 100.304 182.403 100.478 182.091 100.826L180.978 100.665L181.681 96.9395H185.309V98.2236H182.721L182.506 99.4395C182.812 99.2865 183.124 99.21 183.443 99.21C184.052 99.21 184.568 99.4313 184.991 99.874C185.414 100.317 185.626 100.891 185.626 101.598C185.626 102.187 185.455 102.713 185.113 103.175C184.648 103.806 184.002 104.122 183.175 104.122C182.514 104.122 181.975 103.945 181.559 103.59C181.142 103.235 180.893 102.758 180.812 102.159ZM191.007 98.5947L189.679 98.7412C189.646 98.4678 189.562 98.266 189.425 98.1357C189.288 98.0055 189.111 97.9404 188.893 97.9404C188.603 97.9404 188.357 98.0706 188.155 98.3311C187.957 98.5915 187.831 99.1335 187.779 99.957C188.121 99.5534 188.546 99.3516 189.054 99.3516C189.627 99.3516 190.117 99.5697 190.523 100.006C190.934 100.442 191.139 101.005 191.139 101.695C191.139 102.428 190.924 103.015 190.494 103.458C190.064 103.901 189.513 104.122 188.839 104.122C188.116 104.122 187.522 103.842 187.057 103.282C186.591 102.719 186.358 101.798 186.358 100.519C186.358 99.2067 186.601 98.2611 187.086 97.6816C187.571 97.1022 188.201 96.8125 188.976 96.8125C189.519 96.8125 189.968 96.9655 190.323 97.2715C190.681 97.5742 190.909 98.0153 191.007 98.5947ZM187.896 101.588C187.896 102.034 187.999 102.379 188.204 102.623C188.409 102.864 188.644 102.984 188.907 102.984C189.161 102.984 189.373 102.885 189.542 102.687C189.711 102.488 189.796 102.162 189.796 101.71C189.796 101.244 189.705 100.904 189.522 100.689C189.34 100.471 189.112 100.362 188.839 100.362C188.575 100.362 188.352 100.466 188.17 100.675C187.988 100.88 187.896 101.184 187.896 101.588Z" fill="#3E3E3D"/>
</svg>
