<svg width="712" height="140" viewBox="0 0 712 140" fill="none" xmlns="http://www.w3.org/2000/svg">
<rect x="0.5" y="0.5" width="711" height="139" rx="7.5" stroke="#CDCCCB"/>
<path d="M84.1815 72.336C83.5415 72.336 83.0295 72.192 82.6455 71.904C82.2615 71.616 82.0375 71.232 81.9735 70.752C81.9095 70.272 82.0055 69.728 82.2615 69.12L95.2695 39.936C95.5895 39.168 95.9895 38.624 96.4695 38.304C96.9815 37.984 97.5415 37.824 98.1495 37.824C98.7255 37.824 99.2535 37.984 99.7335 38.304C100.246 38.624 100.662 39.168 100.982 39.936L113.99 69.12C114.278 69.728 114.39 70.288 114.326 70.8C114.262 71.28 114.054 71.664 113.702 71.952C113.35 72.208 112.854 72.336 112.214 72.336C111.51 72.336 110.95 72.16 110.534 71.808C110.118 71.456 109.75 70.912 109.43 70.176L106.07 62.4L108.326 63.744H87.8775L90.0855 62.4L86.7735 70.176C86.4535 70.944 86.1015 71.504 85.7175 71.856C85.3335 72.176 84.8215 72.336 84.1815 72.336ZM98.0535 43.68L90.8055 60.864L89.6055 59.712H106.55L105.446 60.864L98.1495 43.68H98.0535ZM126.677 72.432C125.045 72.432 123.573 72.112 122.261 71.472C120.981 70.832 119.973 69.968 119.237 68.88C118.501 67.792 118.133 66.56 118.133 65.184C118.133 63.456 118.565 62.096 119.429 61.104C120.325 60.08 121.781 59.36 123.797 58.944C125.845 58.496 128.597 58.272 132.053 58.272H134.309V61.248H132.101C129.797 61.248 127.973 61.36 126.629 61.584C125.285 61.808 124.325 62.192 123.749 62.736C123.205 63.248 122.933 63.968 122.933 64.896C122.933 66.112 123.349 67.104 124.181 67.872C125.013 68.608 126.165 68.976 127.637 68.976C128.821 68.976 129.861 68.704 130.757 68.16C131.653 67.584 132.357 66.816 132.869 65.856C133.413 64.896 133.685 63.792 133.685 62.544V57.024C133.685 55.2 133.301 53.888 132.533 53.088C131.765 52.288 130.501 51.888 128.741 51.888C127.717 51.888 126.645 52.016 125.525 52.272C124.437 52.528 123.301 52.96 122.117 53.568C121.573 53.824 121.109 53.904 120.725 53.808C120.341 53.712 120.037 53.504 119.813 53.184C119.589 52.832 119.461 52.464 119.429 52.08C119.429 51.664 119.525 51.264 119.717 50.88C119.941 50.496 120.309 50.208 120.821 50.016C122.229 49.344 123.621 48.864 124.997 48.576C126.373 48.288 127.669 48.144 128.885 48.144C131.029 48.144 132.789 48.48 134.165 49.152C135.573 49.824 136.613 50.848 137.285 52.224C137.957 53.6 138.293 55.376 138.293 57.552V69.888C138.293 70.656 138.101 71.264 137.717 71.712C137.333 72.128 136.773 72.336 136.037 72.336C135.333 72.336 134.773 72.128 134.357 71.712C133.941 71.264 133.733 70.656 133.733 69.888V66.768H134.165C133.909 67.952 133.429 68.976 132.725 69.84C132.053 70.672 131.205 71.312 130.181 71.76C129.157 72.208 127.989 72.432 126.677 72.432Z" fill="#201F1F"/>
<line x1="80.5" y1="84" x2="80.5" y2="90" stroke="#2964A0"/>
<line x1="142.5" y1="84" x2="142.5" y2="90" stroke="#2964A0"/>
<line x1="80" y1="89.5" x2="142" y2="89.5" stroke="#2964A0"/>
<path d="M103.383 106V104.286H100.277V103.48L103.544 98.8418H104.262V103.48H105.229V104.286H104.262V106H103.383ZM103.383 103.48V100.253L101.142 103.48H103.383ZM107.484 102.118C107.12 101.985 106.85 101.794 106.674 101.547C106.498 101.299 106.41 101.003 106.41 100.658C106.41 100.137 106.597 99.6995 106.972 99.3447C107.346 98.9899 107.844 98.8125 108.466 98.8125C109.091 98.8125 109.594 98.9948 109.975 99.3594C110.355 99.7207 110.546 100.162 110.546 100.683C110.546 101.015 110.458 101.304 110.282 101.552C110.11 101.796 109.846 101.985 109.491 102.118C109.931 102.261 110.264 102.493 110.492 102.812C110.723 103.131 110.839 103.511 110.839 103.954C110.839 104.566 110.622 105.08 110.189 105.497C109.757 105.914 109.187 106.122 108.48 106.122C107.774 106.122 107.204 105.914 106.771 105.497C106.339 105.077 106.122 104.555 106.122 103.93C106.122 103.464 106.239 103.075 106.474 102.763C106.711 102.447 107.048 102.232 107.484 102.118ZM107.309 100.629C107.309 100.967 107.418 101.244 107.636 101.459C107.854 101.674 108.137 101.781 108.485 101.781C108.824 101.781 109.101 101.675 109.315 101.464C109.534 101.249 109.643 100.987 109.643 100.678C109.643 100.355 109.53 100.085 109.306 99.8672C109.084 99.6458 108.808 99.5352 108.476 99.5352C108.14 99.5352 107.862 99.6426 107.641 99.8574C107.419 100.072 107.309 100.329 107.309 100.629ZM107.025 103.935C107.025 104.185 107.084 104.428 107.201 104.662C107.322 104.896 107.499 105.079 107.733 105.209C107.968 105.336 108.22 105.399 108.49 105.399C108.91 105.399 109.257 105.264 109.53 104.994C109.804 104.724 109.94 104.381 109.94 103.964C109.94 103.541 109.799 103.191 109.516 102.914C109.236 102.637 108.884 102.499 108.461 102.499C108.048 102.499 107.704 102.636 107.431 102.909C107.16 103.183 107.025 103.524 107.025 103.935ZM111.942 107.987V100.814H112.743V101.488C112.932 101.225 113.145 101.028 113.383 100.897C113.62 100.764 113.909 100.697 114.247 100.697C114.69 100.697 115.08 100.811 115.419 101.039C115.757 101.267 116.013 101.589 116.186 102.006C116.358 102.419 116.444 102.873 116.444 103.368C116.444 103.899 116.348 104.377 116.156 104.804C115.967 105.227 115.691 105.552 115.326 105.78C114.965 106.005 114.584 106.117 114.184 106.117C113.891 106.117 113.627 106.055 113.393 105.932C113.161 105.808 112.971 105.652 112.821 105.463V107.987H111.942ZM112.738 103.437C112.738 104.104 112.873 104.597 113.144 104.916C113.414 105.235 113.741 105.395 114.125 105.395C114.516 105.395 114.849 105.23 115.126 104.901C115.406 104.569 115.546 104.057 115.546 103.363C115.546 102.702 115.409 102.208 115.136 101.879C114.866 101.55 114.542 101.386 114.164 101.386C113.79 101.386 113.458 101.562 113.168 101.913C112.882 102.261 112.738 102.769 112.738 103.437ZM116.923 106L118.817 103.305L117.064 100.814H118.163L118.959 102.03C119.109 102.261 119.229 102.455 119.32 102.611C119.464 102.396 119.595 102.206 119.716 102.04L120.59 100.814H121.64L119.848 103.256L121.776 106H120.697L119.633 104.389L119.35 103.954L117.987 106H116.923Z" fill="#3E3E3D"/>
<path d="M169.262 73.28C168.729 73.28 168.302 73.16 167.982 72.92C167.662 72.68 167.476 72.36 167.422 71.96C167.369 71.56 167.449 71.1067 167.662 70.6L178.502 46.28C178.769 45.64 179.102 45.1867 179.502 44.92C179.929 44.6533 180.396 44.52 180.902 44.52C181.382 44.52 181.822 44.6533 182.222 44.92C182.649 45.1867 182.996 45.64 183.262 46.28L194.102 70.6C194.342 71.1067 194.436 71.5733 194.382 72C194.329 72.4 194.156 72.72 193.862 72.96C193.569 73.1733 193.156 73.28 192.622 73.28C192.036 73.28 191.569 73.1333 191.222 72.84C190.876 72.5467 190.569 72.0933 190.302 71.48L187.502 65L189.382 66.12H172.342L174.182 65L171.422 71.48C171.156 72.12 170.862 72.5867 170.542 72.88C170.222 73.1467 169.796 73.28 169.262 73.28ZM180.822 49.4L174.782 63.72L173.782 62.76H187.902L186.982 63.72L180.902 49.4H180.822ZM204.675 73.36C203.315 73.36 202.089 73.0933 200.995 72.56C199.929 72.0267 199.089 71.3067 198.475 70.4C197.862 69.4933 197.555 68.4667 197.555 67.32C197.555 65.88 197.915 64.7467 198.635 63.92C199.382 63.0667 200.595 62.4667 202.275 62.12C203.982 61.7467 206.275 61.56 209.155 61.56H211.035V64.04H209.195C207.275 64.04 205.755 64.1333 204.635 64.32C203.515 64.5067 202.715 64.8267 202.235 65.28C201.782 65.7067 201.555 66.3067 201.555 67.08C201.555 68.0933 201.902 68.92 202.595 69.56C203.289 70.1733 204.249 70.48 205.475 70.48C206.462 70.48 207.329 70.2533 208.075 69.8C208.822 69.32 209.409 68.68 209.835 67.88C210.289 67.08 210.515 66.16 210.515 65.12V60.52C210.515 59 210.195 57.9067 209.555 57.24C208.915 56.5733 207.862 56.24 206.395 56.24C205.542 56.24 204.649 56.3467 203.715 56.56C202.809 56.7733 201.862 57.1333 200.875 57.64C200.422 57.8533 200.035 57.92 199.715 57.84C199.395 57.76 199.142 57.5867 198.955 57.32C198.769 57.0267 198.662 56.72 198.635 56.4C198.635 56.0533 198.715 55.72 198.875 55.4C199.062 55.08 199.369 54.84 199.795 54.68C200.969 54.12 202.129 53.72 203.275 53.48C204.422 53.24 205.502 53.12 206.515 53.12C208.302 53.12 209.769 53.4 210.915 53.96C212.089 54.52 212.955 55.3733 213.515 56.52C214.075 57.6667 214.355 59.1467 214.355 60.96V71.24C214.355 71.88 214.195 72.3867 213.875 72.76C213.555 73.1067 213.089 73.28 212.475 73.28C211.889 73.28 211.422 73.1067 211.075 72.76C210.729 72.3867 210.555 71.88 210.555 71.24V68.64H210.915C210.702 69.6267 210.302 70.48 209.715 71.2C209.155 71.8933 208.449 72.4267 207.595 72.8C206.742 73.1733 205.769 73.36 204.675 73.36Z" fill="#201F1F"/>
<line x1="166.611" y1="84" x2="166.611" y2="90" stroke="#2964A0"/>
<line x1="217.611" y1="84" x2="217.611" y2="90" stroke="#2964A0"/>
<line x1="166.111" y1="89.5" x2="217.111" y2="89.5" stroke="#2964A0"/>
<path d="M183.994 106V104.286H180.888V103.48L184.155 98.8418H184.873V103.48H185.84V104.286H184.873V106H183.994ZM183.994 103.48V100.253L181.753 103.48H183.994ZM186.743 102.47C186.743 101.623 186.829 100.943 187.002 100.429C187.177 99.9111 187.436 99.5124 187.778 99.2324C188.123 98.9525 188.556 98.8125 189.077 98.8125C189.461 98.8125 189.798 98.8906 190.088 99.0469C190.377 99.1999 190.617 99.4229 190.805 99.7158C190.994 100.006 191.142 100.36 191.25 100.78C191.357 101.197 191.411 101.76 191.411 102.47C191.411 103.31 191.325 103.988 191.152 104.506C190.98 105.02 190.721 105.419 190.376 105.702C190.034 105.982 189.601 106.122 189.077 106.122C188.387 106.122 187.845 105.875 187.451 105.38C186.979 104.784 186.743 103.814 186.743 102.47ZM187.646 102.47C187.646 103.645 187.783 104.428 188.056 104.818C188.333 105.206 188.673 105.399 189.077 105.399C189.481 105.399 189.819 105.204 190.093 104.813C190.369 104.423 190.508 103.642 190.508 102.47C190.508 101.291 190.369 100.508 190.093 100.121C189.819 99.7337 189.477 99.54 189.067 99.54C188.663 99.54 188.341 99.7109 188.1 100.053C187.798 100.489 187.646 101.295 187.646 102.47ZM192.553 107.987V100.814H193.354V101.488C193.543 101.225 193.756 101.028 193.994 100.897C194.232 100.764 194.52 100.697 194.858 100.697C195.301 100.697 195.691 100.811 196.03 101.039C196.369 101.267 196.624 101.589 196.797 102.006C196.969 102.419 197.055 102.873 197.055 103.368C197.055 103.899 196.959 104.377 196.767 104.804C196.579 105.227 196.302 105.552 195.937 105.78C195.576 106.005 195.195 106.117 194.795 106.117C194.502 106.117 194.238 106.055 194.004 105.932C193.773 105.808 193.582 105.652 193.432 105.463V107.987H192.553ZM193.349 103.437C193.349 104.104 193.484 104.597 193.755 104.916C194.025 105.235 194.352 105.395 194.736 105.395C195.127 105.395 195.46 105.23 195.737 104.901C196.017 104.569 196.157 104.057 196.157 103.363C196.157 102.702 196.02 102.208 195.747 101.879C195.477 101.55 195.153 101.386 194.775 101.386C194.401 101.386 194.069 101.562 193.779 101.913C193.493 102.261 193.349 102.769 193.349 103.437ZM197.534 106L199.428 103.305L197.676 100.814H198.774L199.57 102.03C199.72 102.261 199.84 102.455 199.931 102.611C200.075 102.396 200.206 102.206 200.327 102.04L201.201 100.814H202.251L200.459 103.256L202.387 106H201.308L200.244 104.389L199.961 103.954L198.598 106H197.534Z" fill="#3E3E3D"/>
<path d="M243.843 75.224C243.417 75.224 243.075 75.128 242.819 74.936C242.563 74.744 242.414 74.488 242.371 74.168C242.329 73.848 242.393 73.4853 242.563 73.08L251.235 53.624C251.449 53.112 251.715 52.7493 252.035 52.536C252.377 52.3227 252.75 52.216 253.155 52.216C253.539 52.216 253.891 52.3227 254.211 52.536C254.553 52.7493 254.83 53.112 255.043 53.624L263.715 73.08C263.907 73.4853 263.982 73.8587 263.939 74.2C263.897 74.52 263.758 74.776 263.523 74.968C263.289 75.1387 262.958 75.224 262.531 75.224C262.062 75.224 261.689 75.1067 261.411 74.872C261.134 74.6373 260.889 74.2747 260.675 73.784L258.435 68.6L259.939 69.496H246.307L247.779 68.6L245.571 73.784C245.358 74.296 245.123 74.6693 244.867 74.904C244.611 75.1173 244.27 75.224 243.843 75.224ZM253.091 56.12L248.259 67.576L247.459 66.808H258.755L258.019 67.576L253.155 56.12H253.091ZM272.174 75.288C271.086 75.288 270.104 75.0747 269.23 74.648C268.376 74.2213 267.704 73.6453 267.214 72.92C266.723 72.1947 266.478 71.3733 266.478 70.456C266.478 69.304 266.766 68.3973 267.342 67.736C267.939 67.0533 268.91 66.5733 270.254 66.296C271.619 65.9973 273.454 65.848 275.758 65.848H277.262V67.832H275.79C274.254 67.832 273.038 67.9067 272.142 68.056C271.246 68.2053 270.606 68.4613 270.222 68.824C269.859 69.1653 269.678 69.6453 269.678 70.264C269.678 71.0747 269.955 71.736 270.51 72.248C271.064 72.7387 271.832 72.984 272.814 72.984C273.603 72.984 274.296 72.8027 274.894 72.44C275.491 72.056 275.96 71.544 276.302 70.904C276.664 70.264 276.846 69.528 276.846 68.696V65.016C276.846 63.8 276.59 62.9253 276.078 62.392C275.566 61.8587 274.723 61.592 273.55 61.592C272.867 61.592 272.152 61.6773 271.406 61.848C270.68 62.0187 269.923 62.3067 269.134 62.712C268.771 62.8827 268.462 62.936 268.206 62.872C267.95 62.808 267.747 62.6693 267.598 62.456C267.448 62.2213 267.363 61.976 267.342 61.72C267.342 61.4427 267.406 61.176 267.534 60.92C267.683 60.664 267.928 60.472 268.27 60.344C269.208 59.896 270.136 59.576 271.054 59.384C271.971 59.192 272.835 59.096 273.646 59.096C275.075 59.096 276.248 59.32 277.166 59.768C278.104 60.216 278.798 60.8987 279.246 61.816C279.694 62.7333 279.918 63.9173 279.918 65.368V73.592C279.918 74.104 279.79 74.5093 279.534 74.808C279.278 75.0853 278.904 75.224 278.414 75.224C277.944 75.224 277.571 75.0853 277.294 74.808C277.016 74.5093 276.878 74.104 276.878 73.592V71.512H277.166C276.995 72.3013 276.675 72.984 276.206 73.56C275.758 74.1147 275.192 74.5413 274.51 74.84C273.827 75.1387 273.048 75.288 272.174 75.288Z" fill="#201F1F"/>
<line x1="241.722" y1="84" x2="241.722" y2="90" stroke="#2964A0"/>
<line x1="282.722" y1="84" x2="282.722" y2="90" stroke="#2964A0"/>
<line x1="241.222" y1="89.5" x2="282.222" y2="89.5" stroke="#2964A0"/>
<path d="M251.292 104.11L252.171 103.993C252.272 104.491 252.443 104.851 252.684 105.072C252.928 105.29 253.224 105.399 253.573 105.399C253.986 105.399 254.334 105.256 254.618 104.97C254.904 104.683 255.047 104.328 255.047 103.905C255.047 103.502 254.916 103.17 254.652 102.909C254.388 102.646 254.053 102.514 253.646 102.514C253.48 102.514 253.273 102.546 253.026 102.611L253.124 101.84C253.182 101.846 253.229 101.85 253.265 101.85C253.639 101.85 253.976 101.752 254.276 101.557C254.575 101.361 254.725 101.06 254.725 100.653C254.725 100.331 254.616 100.064 254.398 99.8525C254.18 99.641 253.898 99.5352 253.553 99.5352C253.211 99.5352 252.927 99.6426 252.699 99.8574C252.471 100.072 252.324 100.395 252.259 100.824L251.38 100.668C251.488 100.079 251.732 99.623 252.113 99.3008C252.494 98.9753 252.967 98.8125 253.534 98.8125C253.924 98.8125 254.284 98.8971 254.613 99.0664C254.942 99.2324 255.192 99.4603 255.365 99.75C255.541 100.04 255.628 100.347 255.628 100.673C255.628 100.982 255.545 101.264 255.379 101.518C255.213 101.771 254.968 101.973 254.642 102.123C255.065 102.221 255.394 102.424 255.628 102.733C255.863 103.039 255.98 103.424 255.98 103.886C255.98 104.511 255.752 105.041 255.296 105.478C254.841 105.91 254.264 106.127 253.568 106.127C252.94 106.127 252.417 105.94 252 105.565C251.587 105.191 251.351 104.706 251.292 104.11ZM261.473 105.155V106H256.742C256.735 105.788 256.769 105.585 256.844 105.39C256.965 105.067 257.157 104.75 257.42 104.438C257.687 104.125 258.071 103.764 258.573 103.354C259.351 102.715 259.876 102.211 260.15 101.84C260.423 101.465 260.56 101.112 260.56 100.78C260.56 100.432 260.435 100.139 260.184 99.9014C259.937 99.6605 259.613 99.54 259.212 99.54C258.789 99.54 258.451 99.667 258.197 99.9209C257.943 100.175 257.814 100.526 257.811 100.976L256.908 100.883C256.97 100.209 257.202 99.6963 257.606 99.3447C258.01 98.9899 258.552 98.8125 259.232 98.8125C259.919 98.8125 260.462 99.0029 260.863 99.3838C261.263 99.7646 261.463 100.237 261.463 100.8C261.463 101.086 261.405 101.368 261.288 101.645C261.17 101.921 260.975 102.213 260.702 102.519C260.431 102.825 259.981 103.244 259.349 103.778C258.822 104.221 258.483 104.522 258.333 104.682C258.184 104.838 258.06 104.996 257.962 105.155H261.473ZM262.665 107.987V100.814H263.465V101.488C263.654 101.225 263.867 101.028 264.105 100.897C264.343 100.764 264.631 100.697 264.969 100.697C265.412 100.697 265.803 100.811 266.141 101.039C266.48 101.267 266.735 101.589 266.908 102.006C267.08 102.419 267.167 102.873 267.167 103.368C267.167 103.899 267.07 104.377 266.878 104.804C266.69 105.227 266.413 105.552 266.048 105.78C265.687 106.005 265.306 106.117 264.906 106.117C264.613 106.117 264.349 106.055 264.115 105.932C263.884 105.808 263.693 105.652 263.543 105.463V107.987H262.665ZM263.46 103.437C263.46 104.104 263.596 104.597 263.866 104.916C264.136 105.235 264.463 105.395 264.847 105.395C265.238 105.395 265.571 105.23 265.848 104.901C266.128 104.569 266.268 104.057 266.268 103.363C266.268 102.702 266.131 102.208 265.858 101.879C265.588 101.55 265.264 101.386 264.886 101.386C264.512 101.386 264.18 101.562 263.89 101.913C263.604 102.261 263.46 102.769 263.46 103.437ZM267.645 106L269.54 103.305L267.787 100.814H268.885L269.681 102.03C269.831 102.261 269.951 102.455 270.042 102.611C270.186 102.396 270.318 102.206 270.438 102.04L271.312 100.814H272.362L270.57 103.256L272.499 106H271.419L270.355 104.389L270.072 103.954L268.709 106H267.645Z" fill="#3E3E3D"/>
<path d="M308.689 75.196C308.316 75.196 308.017 75.112 307.793 74.944C307.569 74.776 307.438 74.552 307.401 74.272C307.364 73.992 307.42 73.6747 307.569 73.32L315.157 56.296C315.344 55.848 315.577 55.5307 315.857 55.344C316.156 55.1573 316.482 55.064 316.837 55.064C317.173 55.064 317.481 55.1573 317.761 55.344C318.06 55.5307 318.302 55.848 318.489 56.296L326.077 73.32C326.245 73.6747 326.31 74.0013 326.273 74.3C326.236 74.58 326.114 74.804 325.909 74.972C325.704 75.1213 325.414 75.196 325.041 75.196C324.63 75.196 324.304 75.0933 324.061 74.888C323.818 74.6827 323.604 74.3653 323.417 73.936L321.457 69.4L322.773 70.184H310.845L312.133 69.4L310.201 73.936C310.014 74.384 309.809 74.7107 309.585 74.916C309.361 75.1027 309.062 75.196 308.689 75.196ZM316.781 58.48L312.553 68.504L311.853 67.832H321.737L321.093 68.504L316.837 58.48H316.781ZM333.478 75.252C332.526 75.252 331.668 75.0653 330.902 74.692C330.156 74.3187 329.568 73.8147 329.138 73.18C328.709 72.5453 328.494 71.8267 328.494 71.024C328.494 70.016 328.746 69.2227 329.25 68.644C329.773 68.0467 330.622 67.6267 331.798 67.384C332.993 67.1227 334.598 66.992 336.614 66.992H337.93V68.728H336.642C335.298 68.728 334.234 68.7933 333.45 68.924C332.666 69.0547 332.106 69.2787 331.77 69.596C331.453 69.8947 331.294 70.3147 331.294 70.856C331.294 71.5653 331.537 72.144 332.022 72.592C332.508 73.0213 333.18 73.236 334.038 73.236C334.729 73.236 335.336 73.0773 335.858 72.76C336.381 72.424 336.792 71.976 337.09 71.416C337.408 70.856 337.566 70.212 337.566 69.484V66.264C337.566 65.2 337.342 64.4347 336.894 63.968C336.446 63.5013 335.709 63.268 334.682 63.268C334.085 63.268 333.46 63.3427 332.806 63.492C332.172 63.6413 331.509 63.8933 330.818 64.248C330.501 64.3973 330.23 64.444 330.006 64.388C329.782 64.332 329.605 64.2107 329.474 64.024C329.344 63.8187 329.269 63.604 329.25 63.38C329.25 63.1373 329.306 62.904 329.418 62.68C329.549 62.456 329.764 62.288 330.062 62.176C330.884 61.784 331.696 61.504 332.498 61.336C333.301 61.168 334.057 61.084 334.766 61.084C336.017 61.084 337.044 61.28 337.846 61.672C338.668 62.064 339.274 62.6613 339.666 63.464C340.058 64.2667 340.254 65.3027 340.254 66.572V73.768C340.254 74.216 340.142 74.5707 339.918 74.832C339.694 75.0747 339.368 75.196 338.938 75.196C338.528 75.196 338.201 75.0747 337.958 74.832C337.716 74.5707 337.594 74.216 337.594 73.768V71.948H337.846C337.697 72.6387 337.417 73.236 337.006 73.74C336.614 74.2253 336.12 74.5987 335.522 74.86C334.925 75.1213 334.244 75.252 333.478 75.252Z" fill="#201F1F"/>
<line x1="306.833" y1="84" x2="306.833" y2="90" stroke="#2964A0"/>
<line x1="342.833" y1="84" x2="342.833" y2="90" stroke="#2964A0"/>
<line x1="306.333" y1="89.5" x2="342.333" y2="89.5" stroke="#2964A0"/>
<path d="M318.518 105.155V106H313.786C313.78 105.788 313.814 105.585 313.889 105.39C314.009 105.067 314.201 104.75 314.465 104.438C314.732 104.125 315.116 103.764 315.617 103.354C316.395 102.715 316.921 102.211 317.195 101.84C317.468 101.465 317.605 101.112 317.605 100.78C317.605 100.432 317.479 100.139 317.229 99.9014C316.981 99.6605 316.657 99.54 316.257 99.54C315.834 99.54 315.495 99.667 315.241 99.9209C314.988 100.175 314.859 100.526 314.856 100.976L313.952 100.883C314.014 100.209 314.247 99.6963 314.651 99.3447C315.054 98.9899 315.596 98.8125 316.277 98.8125C316.963 98.8125 317.507 99.0029 317.907 99.3838C318.308 99.7646 318.508 100.237 318.508 100.8C318.508 101.086 318.449 101.368 318.332 101.645C318.215 101.921 318.02 102.213 317.746 102.519C317.476 102.825 317.025 103.244 316.394 103.778C315.866 104.221 315.528 104.522 315.378 104.682C315.228 104.838 315.105 104.996 315.007 105.155H318.518ZM320.818 102.118C320.453 101.985 320.183 101.794 320.007 101.547C319.831 101.299 319.743 101.003 319.743 100.658C319.743 100.137 319.931 99.6995 320.305 99.3447C320.679 98.9899 321.177 98.8125 321.799 98.8125C322.424 98.8125 322.927 98.9948 323.308 99.3594C323.689 99.7207 323.879 100.162 323.879 100.683C323.879 101.015 323.791 101.304 323.615 101.552C323.443 101.796 323.179 101.985 322.824 102.118C323.264 102.261 323.598 102.493 323.825 102.812C324.057 103.131 324.172 103.511 324.172 103.954C324.172 104.566 323.956 105.08 323.523 105.497C323.09 105.914 322.52 106.122 321.814 106.122C321.107 106.122 320.538 105.914 320.105 105.497C319.672 105.077 319.455 104.555 319.455 103.93C319.455 103.464 319.573 103.075 319.807 102.763C320.045 102.447 320.381 102.232 320.818 102.118ZM320.642 100.629C320.642 100.967 320.751 101.244 320.969 101.459C321.187 101.674 321.47 101.781 321.819 101.781C322.157 101.781 322.434 101.675 322.649 101.464C322.867 101.249 322.976 100.987 322.976 100.678C322.976 100.355 322.864 100.085 322.639 99.8672C322.418 99.6458 322.141 99.5352 321.809 99.5352C321.474 99.5352 321.195 99.6426 320.974 99.8574C320.753 100.072 320.642 100.329 320.642 100.629ZM320.359 103.935C320.359 104.185 320.417 104.428 320.534 104.662C320.655 104.896 320.832 105.079 321.067 105.209C321.301 105.336 321.553 105.399 321.823 105.399C322.243 105.399 322.59 105.264 322.864 104.994C323.137 104.724 323.274 104.381 323.274 103.964C323.274 103.541 323.132 103.191 322.849 102.914C322.569 102.637 322.217 102.499 321.794 102.499C321.381 102.499 321.037 102.636 320.764 102.909C320.494 103.183 320.359 103.524 320.359 103.935ZM325.276 107.987V100.814H326.076V101.488C326.265 101.225 326.478 101.028 326.716 100.897C326.954 100.764 327.242 100.697 327.58 100.697C328.023 100.697 328.414 100.811 328.752 101.039C329.091 101.267 329.346 101.589 329.519 102.006C329.691 102.419 329.778 102.873 329.778 103.368C329.778 103.899 329.682 104.377 329.49 104.804C329.301 105.227 329.024 105.552 328.659 105.78C328.298 106.005 327.917 106.117 327.517 106.117C327.224 106.117 326.96 106.055 326.726 105.932C326.495 105.808 326.304 105.652 326.155 105.463V107.987H325.276ZM326.072 103.437C326.072 104.104 326.207 104.597 326.477 104.916C326.747 105.235 327.074 105.395 327.458 105.395C327.849 105.395 328.183 105.23 328.459 104.901C328.739 104.569 328.879 104.057 328.879 103.363C328.879 102.702 328.742 102.208 328.469 101.879C328.199 101.55 327.875 101.386 327.497 101.386C327.123 101.386 326.791 101.562 326.501 101.913C326.215 102.261 326.072 102.769 326.072 103.437ZM330.256 106L332.151 103.305L330.398 100.814H331.496L332.292 102.03C332.442 102.261 332.562 102.455 332.654 102.611C332.797 102.396 332.929 102.206 333.049 102.04L333.923 100.814H334.973L333.181 103.256L335.11 106H334.031L332.966 104.389L332.683 103.954L331.321 106H330.256Z" fill="#3E3E3D"/>
<path d="M368.535 76.168C368.215 76.168 367.959 76.096 367.767 75.952C367.575 75.808 367.463 75.616 367.431 75.376C367.399 75.136 367.447 74.864 367.575 74.56L374.079 59.968C374.239 59.584 374.439 59.312 374.679 59.152C374.935 58.992 375.215 58.912 375.519 58.912C375.807 58.912 376.071 58.992 376.311 59.152C376.567 59.312 376.775 59.584 376.935 59.968L383.439 74.56C383.583 74.864 383.639 75.144 383.607 75.4C383.575 75.64 383.471 75.832 383.295 75.976C383.119 76.104 382.871 76.168 382.551 76.168C382.199 76.168 381.919 76.08 381.711 75.904C381.503 75.728 381.319 75.456 381.159 75.088L379.479 71.2L380.607 71.872H370.383L371.487 71.2L369.831 75.088C369.671 75.472 369.495 75.752 369.303 75.928C369.111 76.088 368.855 76.168 368.535 76.168ZM375.471 61.84L371.847 70.432L371.247 69.856H379.719L379.167 70.432L375.519 61.84H375.471ZM389.783 76.216C388.967 76.216 388.231 76.056 387.575 75.736C386.935 75.416 386.431 74.984 386.063 74.44C385.695 73.896 385.511 73.28 385.511 72.592C385.511 71.728 385.727 71.048 386.159 70.552C386.607 70.04 387.335 69.68 388.343 69.472C389.367 69.248 390.743 69.136 392.471 69.136H393.599V70.624H392.495C391.343 70.624 390.431 70.68 389.759 70.792C389.087 70.904 388.607 71.096 388.319 71.368C388.047 71.624 387.911 71.984 387.911 72.448C387.911 73.056 388.119 73.552 388.535 73.936C388.951 74.304 389.527 74.488 390.263 74.488C390.855 74.488 391.375 74.352 391.823 74.08C392.271 73.792 392.623 73.408 392.879 72.928C393.151 72.448 393.287 71.896 393.287 71.272V68.512C393.287 67.6 393.095 66.944 392.711 66.544C392.327 66.144 391.695 65.944 390.815 65.944C390.303 65.944 389.767 66.008 389.207 66.136C388.663 66.264 388.095 66.48 387.503 66.784C387.231 66.912 386.999 66.952 386.807 66.904C386.615 66.856 386.463 66.752 386.351 66.592C386.239 66.416 386.175 66.232 386.159 66.04C386.159 65.832 386.207 65.632 386.303 65.44C386.415 65.248 386.599 65.104 386.855 65.008C387.559 64.672 388.255 64.432 388.943 64.288C389.631 64.144 390.279 64.072 390.887 64.072C391.959 64.072 392.839 64.24 393.527 64.576C394.231 64.912 394.751 65.424 395.087 66.112C395.423 66.8 395.591 67.688 395.591 68.776V74.944C395.591 75.328 395.495 75.632 395.303 75.856C395.111 76.064 394.831 76.168 394.463 76.168C394.111 76.168 393.831 76.064 393.623 75.856C393.415 75.632 393.311 75.328 393.311 74.944V73.384H393.527C393.399 73.976 393.159 74.488 392.807 74.92C392.471 75.336 392.047 75.656 391.535 75.88C391.023 76.104 390.439 76.216 389.783 76.216Z" fill="#201F1F"/>
<line x1="366.944" y1="84" x2="366.944" y2="90" stroke="#2964A0"/>
<line x1="397.944" y1="84" x2="397.944" y2="90" stroke="#2964A0"/>
<line x1="366.444" y1="89.5" x2="397.444" y2="89.5" stroke="#2964A0"/>
<path d="M376.129 105.155V106H371.397C371.391 105.788 371.425 105.585 371.5 105.39C371.62 105.067 371.812 104.75 372.076 104.438C372.343 104.125 372.727 103.764 373.229 103.354C374.007 102.715 374.532 102.211 374.806 101.84C375.079 101.465 375.216 101.112 375.216 100.78C375.216 100.432 375.09 100.139 374.84 99.9014C374.592 99.6605 374.269 99.54 373.868 99.54C373.445 99.54 373.106 99.667 372.853 99.9209C372.599 100.175 372.47 100.526 372.467 100.976L371.563 100.883C371.625 100.209 371.858 99.6963 372.262 99.3447C372.665 98.9899 373.207 98.8125 373.888 98.8125C374.575 98.8125 375.118 99.0029 375.519 99.3838C375.919 99.7646 376.119 100.237 376.119 100.8C376.119 101.086 376.061 101.368 375.943 101.645C375.826 101.921 375.631 102.213 375.357 102.519C375.087 102.825 374.636 103.244 374.005 103.778C373.478 104.221 373.139 104.522 372.989 104.682C372.84 104.838 372.716 104.996 372.618 105.155H376.129ZM379.894 106V104.286H376.788V103.48L380.055 98.8418H380.772V103.48H381.739V104.286H380.772V106H379.894ZM379.894 103.48V100.253L377.652 103.48H379.894ZM382.887 107.987V100.814H383.688V101.488C383.876 101.225 384.09 101.028 384.327 100.897C384.565 100.764 384.853 100.697 385.191 100.697C385.634 100.697 386.025 100.811 386.363 101.039C386.702 101.267 386.957 101.589 387.13 102.006C387.302 102.419 387.389 102.873 387.389 103.368C387.389 103.899 387.293 104.377 387.101 104.804C386.912 105.227 386.635 105.552 386.271 105.78C385.909 106.005 385.528 106.117 385.128 106.117C384.835 106.117 384.571 106.055 384.337 105.932C384.106 105.808 383.915 105.652 383.766 105.463V107.987H382.887ZM383.683 103.437C383.683 104.104 383.818 104.597 384.088 104.916C384.358 105.235 384.685 105.395 385.069 105.395C385.46 105.395 385.794 105.23 386.07 104.901C386.35 104.569 386.49 104.057 386.49 103.363C386.49 102.702 386.354 102.208 386.08 101.879C385.81 101.55 385.486 101.386 385.108 101.386C384.734 101.386 384.402 101.562 384.112 101.913C383.826 102.261 383.683 102.769 383.683 103.437ZM387.867 106L389.762 103.305L388.009 100.814H389.107L389.903 102.03C390.053 102.261 390.174 102.455 390.265 102.611C390.408 102.396 390.54 102.206 390.66 102.04L391.534 100.814H392.584L390.792 103.256L392.721 106H391.642L390.577 104.389L390.294 103.954L388.932 106H387.867Z" fill="#3E3E3D"/>
<path d="M423.381 77.14C423.115 77.14 422.901 77.08 422.741 76.96C422.581 76.84 422.488 76.68 422.461 76.48C422.435 76.28 422.475 76.0533 422.581 75.8L428.001 63.64C428.135 63.32 428.301 63.0933 428.501 62.96C428.715 62.8267 428.948 62.76 429.201 62.76C429.441 62.76 429.661 62.8267 429.861 62.96C430.075 63.0933 430.248 63.32 430.381 63.64L435.801 75.8C435.921 76.0533 435.968 76.2867 435.941 76.5C435.915 76.7 435.828 76.86 435.681 76.98C435.535 77.0867 435.328 77.14 435.061 77.14C434.768 77.14 434.535 77.0667 434.361 76.92C434.188 76.7733 434.035 76.5467 433.901 76.24L432.501 73L433.441 73.56H424.921L425.841 73L424.461 76.24C424.328 76.56 424.181 76.7933 424.021 76.94C423.861 77.0733 423.648 77.14 423.381 77.14ZM429.161 65.2L426.141 72.36L425.641 71.88H432.701L432.241 72.36L429.201 65.2H429.161ZM441.088 77.18C440.408 77.18 439.795 77.0467 439.248 76.78C438.715 76.5133 438.295 76.1533 437.988 75.7C437.681 75.2467 437.528 74.7333 437.528 74.16C437.528 73.44 437.708 72.8733 438.068 72.46C438.441 72.0333 439.048 71.7333 439.888 71.56C440.741 71.3733 441.888 71.28 443.328 71.28H444.268V72.52H443.348C442.388 72.52 441.628 72.5667 441.068 72.66C440.508 72.7533 440.108 72.9133 439.868 73.14C439.641 73.3533 439.528 73.6533 439.528 74.04C439.528 74.5467 439.701 74.96 440.048 75.28C440.395 75.5867 440.875 75.74 441.488 75.74C441.981 75.74 442.415 75.6267 442.788 75.4C443.161 75.16 443.455 74.84 443.668 74.44C443.895 74.04 444.008 73.58 444.008 73.06V70.76C444.008 70 443.848 69.4533 443.528 69.12C443.208 68.7867 442.681 68.62 441.948 68.62C441.521 68.62 441.075 68.6733 440.608 68.78C440.155 68.8867 439.681 69.0667 439.188 69.32C438.961 69.4267 438.768 69.46 438.608 69.42C438.448 69.38 438.321 69.2933 438.228 69.16C438.135 69.0133 438.081 68.86 438.068 68.7C438.068 68.5267 438.108 68.36 438.188 68.2C438.281 68.04 438.435 67.92 438.648 67.84C439.235 67.56 439.815 67.36 440.388 67.24C440.961 67.12 441.501 67.06 442.008 67.06C442.901 67.06 443.635 67.2 444.208 67.48C444.795 67.76 445.228 68.1867 445.508 68.76C445.788 69.3333 445.928 70.0733 445.928 70.98V76.12C445.928 76.44 445.848 76.6933 445.688 76.88C445.528 77.0533 445.295 77.14 444.988 77.14C444.695 77.14 444.461 77.0533 444.288 76.88C444.115 76.6933 444.028 76.44 444.028 76.12V74.82H444.208C444.101 75.3133 443.901 75.74 443.608 76.1C443.328 76.4467 442.975 76.7133 442.548 76.9C442.121 77.0867 441.635 77.18 441.088 77.18Z" fill="#201F1F"/>
<line x1="422.056" y1="84" x2="422.056" y2="90" stroke="#2964A0"/>
<line x1="448.056" y1="84" x2="448.056" y2="90" stroke="#2964A0"/>
<line x1="421.556" y1="89.5" x2="447.556" y2="89.5" stroke="#2964A0"/>
<path d="M428.74 105.155V106H424.009C424.002 105.788 424.036 105.585 424.111 105.39C424.232 105.067 424.424 104.75 424.688 104.438C424.954 104.125 425.339 103.764 425.84 103.354C426.618 102.715 427.144 102.211 427.417 101.84C427.69 101.465 427.827 101.112 427.827 100.78C427.827 100.432 427.702 100.139 427.451 99.9014C427.204 99.6605 426.88 99.54 426.479 99.54C426.056 99.54 425.718 99.667 425.464 99.9209C425.21 100.175 425.081 100.526 425.078 100.976L424.175 100.883C424.237 100.209 424.469 99.6963 424.873 99.3447C425.277 98.9899 425.819 98.8125 426.499 98.8125C427.186 98.8125 427.729 99.0029 428.13 99.3838C428.53 99.7646 428.73 100.237 428.73 100.8C428.73 101.086 428.672 101.368 428.555 101.645C428.438 101.921 428.242 102.213 427.969 102.519C427.699 102.825 427.248 103.244 426.616 103.778C426.089 104.221 425.75 104.522 425.601 104.682C425.451 104.838 425.327 104.996 425.229 105.155H428.74ZM429.688 102.47C429.688 101.623 429.774 100.943 429.946 100.429C430.122 99.9111 430.381 99.5124 430.723 99.2324C431.068 98.9525 431.501 98.8125 432.021 98.8125C432.406 98.8125 432.743 98.8906 433.032 99.0469C433.322 99.1999 433.561 99.4229 433.75 99.7158C433.939 100.006 434.087 100.36 434.194 100.78C434.302 101.197 434.355 101.76 434.355 102.47C434.355 103.31 434.269 103.988 434.097 104.506C433.924 105.02 433.665 105.419 433.32 105.702C432.979 105.982 432.546 106.122 432.021 106.122C431.331 106.122 430.789 105.875 430.396 105.38C429.924 104.784 429.688 103.814 429.688 102.47ZM430.591 102.47C430.591 103.645 430.728 104.428 431.001 104.818C431.278 105.206 431.618 105.399 432.021 105.399C432.425 105.399 432.764 105.204 433.037 104.813C433.314 104.423 433.452 103.642 433.452 102.47C433.452 101.291 433.314 100.508 433.037 100.121C432.764 99.7337 432.422 99.54 432.012 99.54C431.608 99.54 431.286 99.7109 431.045 100.053C430.742 100.489 430.591 101.295 430.591 102.47ZM435.498 107.987V100.814H436.299V101.488C436.488 101.225 436.701 101.028 436.938 100.897C437.176 100.764 437.464 100.697 437.803 100.697C438.245 100.697 438.636 100.811 438.975 101.039C439.313 101.267 439.569 101.589 439.741 102.006C439.914 102.419 440 102.873 440 103.368C440 103.899 439.904 104.377 439.712 104.804C439.523 105.227 439.246 105.552 438.882 105.78C438.521 106.005 438.14 106.117 437.739 106.117C437.446 106.117 437.183 106.055 436.948 105.932C436.717 105.808 436.527 105.652 436.377 105.463V107.987H435.498ZM436.294 103.437C436.294 104.104 436.429 104.597 436.699 104.916C436.969 105.235 437.297 105.395 437.681 105.395C438.071 105.395 438.405 105.23 438.682 104.901C438.962 104.569 439.102 104.057 439.102 103.363C439.102 102.702 438.965 102.208 438.691 101.879C438.421 101.55 438.097 101.386 437.72 101.386C437.345 101.386 437.013 101.562 436.724 101.913C436.437 102.261 436.294 102.769 436.294 103.437ZM440.479 106L442.373 103.305L440.62 100.814H441.719L442.515 102.03C442.664 102.261 442.785 102.455 442.876 102.611C443.019 102.396 443.151 102.206 443.271 102.04L444.146 100.814H445.195L443.403 103.256L445.332 106H444.253L443.188 104.389L442.905 103.954L441.543 106H440.479Z" fill="#3E3E3D"/>
<path d="M473.727 77.112C473.514 77.112 473.343 77.064 473.215 76.968C473.087 76.872 473.013 76.744 472.991 76.584C472.97 76.424 473.002 76.2427 473.087 76.04L477.423 66.312C477.53 66.056 477.663 65.8747 477.823 65.768C477.994 65.6613 478.181 65.608 478.383 65.608C478.575 65.608 478.751 65.6613 478.911 65.768C479.082 65.8747 479.221 66.056 479.327 66.312L483.663 76.04C483.759 76.2427 483.797 76.4293 483.775 76.6C483.754 76.76 483.685 76.888 483.567 76.984C483.45 77.0693 483.285 77.112 483.071 77.112C482.837 77.112 482.65 77.0533 482.511 76.936C482.373 76.8187 482.25 76.6373 482.143 76.392L481.023 73.8L481.775 74.248H474.959L475.695 73.8L474.591 76.392C474.485 76.648 474.367 76.8347 474.239 76.952C474.111 77.0587 473.941 77.112 473.727 77.112ZM478.351 67.56L475.935 73.288L475.535 72.904H481.183L480.815 73.288L478.383 67.56H478.351ZM487.892 77.144C487.348 77.144 486.858 77.0373 486.42 76.824C485.994 76.6107 485.658 76.3227 485.412 75.96C485.167 75.5973 485.044 75.1867 485.044 74.728C485.044 74.152 485.188 73.6987 485.476 73.368C485.775 73.0267 486.26 72.7867 486.932 72.648C487.615 72.4987 488.532 72.424 489.684 72.424H490.436V73.416H489.7C488.932 73.416 488.324 73.4533 487.876 73.528C487.428 73.6027 487.108 73.7307 486.916 73.912C486.735 74.0827 486.644 74.3227 486.644 74.632C486.644 75.0373 486.783 75.368 487.06 75.624C487.338 75.8693 487.722 75.992 488.212 75.992C488.607 75.992 488.954 75.9013 489.252 75.72C489.551 75.528 489.786 75.272 489.956 74.952C490.138 74.632 490.228 74.264 490.228 73.848V72.008C490.228 71.4 490.1 70.9627 489.844 70.696C489.588 70.4293 489.167 70.296 488.58 70.296C488.239 70.296 487.882 70.3387 487.508 70.424C487.146 70.5093 486.767 70.6533 486.372 70.856C486.191 70.9413 486.036 70.968 485.908 70.936C485.78 70.904 485.679 70.8347 485.604 70.728C485.53 70.6107 485.487 70.488 485.476 70.36C485.476 70.2213 485.508 70.088 485.572 69.96C485.647 69.832 485.77 69.736 485.94 69.672C486.41 69.448 486.874 69.288 487.332 69.192C487.791 69.096 488.223 69.048 488.628 69.048C489.343 69.048 489.93 69.16 490.388 69.384C490.858 69.608 491.204 69.9493 491.428 70.408C491.652 70.8667 491.764 71.4587 491.764 72.184V76.296C491.764 76.552 491.7 76.7547 491.572 76.904C491.444 77.0427 491.258 77.112 491.012 77.112C490.778 77.112 490.591 77.0427 490.452 76.904C490.314 76.7547 490.244 76.552 490.244 76.296V75.256H490.388C490.303 75.6507 490.143 75.992 489.908 76.28C489.684 76.5573 489.402 76.7707 489.06 76.92C488.719 77.0693 488.33 77.144 487.892 77.144Z" fill="#201F1F"/>
<line x1="472.167" y1="84" x2="472.167" y2="90" stroke="#2964A0"/>
<line x1="494.167" y1="84" x2="494.167" y2="90" stroke="#2964A0"/>
<line x1="471.667" y1="89.5" x2="493.667" y2="89.5" stroke="#2964A0"/>
<path d="M475.543 106H474.664V100.399C474.452 100.601 474.174 100.803 473.829 101.005C473.487 101.207 473.179 101.358 472.906 101.459V100.609C473.398 100.378 473.827 100.098 474.195 99.7695C474.563 99.4408 474.823 99.1217 474.976 98.8125H475.543V106ZM482.359 100.595L481.485 100.663C481.407 100.318 481.296 100.067 481.153 99.9111C480.915 99.6605 480.622 99.5352 480.274 99.5352C479.994 99.5352 479.748 99.6133 479.537 99.7695C479.26 99.9714 479.042 100.266 478.883 100.653C478.723 101.041 478.64 101.592 478.634 102.309C478.845 101.986 479.104 101.747 479.41 101.591C479.716 101.435 480.037 101.356 480.372 101.356C480.958 101.356 481.456 101.573 481.866 102.006C482.279 102.436 482.486 102.992 482.486 103.676C482.486 104.125 482.388 104.543 482.193 104.931C482.001 105.315 481.736 105.609 481.397 105.814C481.059 106.02 480.675 106.122 480.245 106.122C479.512 106.122 478.915 105.854 478.453 105.316C477.991 104.776 477.76 103.887 477.76 102.65C477.76 101.267 478.015 100.261 478.526 99.6328C478.972 99.0859 479.573 98.8125 480.328 98.8125C480.891 98.8125 481.352 98.9704 481.71 99.2861C482.071 99.6019 482.288 100.038 482.359 100.595ZM478.77 103.681C478.77 103.983 478.834 104.273 478.961 104.55C479.091 104.826 479.272 105.038 479.503 105.185C479.734 105.328 479.976 105.399 480.23 105.399C480.601 105.399 480.92 105.25 481.187 104.95C481.454 104.651 481.588 104.244 481.588 103.729C481.588 103.235 481.456 102.846 481.192 102.562C480.928 102.276 480.596 102.133 480.196 102.133C479.799 102.133 479.462 102.276 479.185 102.562C478.909 102.846 478.77 103.218 478.77 103.681ZM483.609 107.987V100.814H484.41V101.488C484.599 101.225 484.812 101.028 485.05 100.897C485.287 100.764 485.575 100.697 485.914 100.697C486.357 100.697 486.747 100.811 487.086 101.039C487.424 101.267 487.68 101.589 487.852 102.006C488.025 102.419 488.111 102.873 488.111 103.368C488.111 103.899 488.015 104.377 487.823 104.804C487.634 105.227 487.358 105.552 486.993 105.78C486.632 106.005 486.251 106.117 485.85 106.117C485.557 106.117 485.294 106.055 485.059 105.932C484.828 105.808 484.638 105.652 484.488 105.463V107.987H483.609ZM484.405 103.437C484.405 104.104 484.54 104.597 484.81 104.916C485.08 105.235 485.408 105.395 485.792 105.395C486.182 105.395 486.516 105.23 486.793 104.901C487.073 104.569 487.213 104.057 487.213 103.363C487.213 102.702 487.076 102.208 486.802 101.879C486.532 101.55 486.208 101.386 485.831 101.386C485.456 101.386 485.124 101.562 484.835 101.913C484.548 102.261 484.405 102.769 484.405 103.437ZM488.59 106L490.484 103.305L488.731 100.814H489.83L490.626 102.03C490.775 102.261 490.896 102.455 490.987 102.611C491.13 102.396 491.262 102.206 491.383 102.04L492.257 100.814H493.306L491.514 103.256L493.443 106H492.364L491.3 104.389L491.016 103.954L489.654 106H488.59Z" fill="#3E3E3D"/>
<path d="M520.956 78.098C520.769 78.098 520.62 78.056 520.508 77.972C520.396 77.888 520.33 77.776 520.312 77.636C520.293 77.496 520.321 77.3373 520.396 77.16L524.19 68.648C524.283 68.424 524.4 68.2653 524.54 68.172C524.689 68.0787 524.852 68.032 525.03 68.032C525.198 68.032 525.352 68.0787 525.492 68.172C525.641 68.2653 525.762 68.424 525.856 68.648L529.65 77.16C529.734 77.3373 529.766 77.5007 529.748 77.65C529.729 77.79 529.668 77.902 529.566 77.986C529.463 78.0607 529.318 78.098 529.132 78.098C528.926 78.098 528.763 78.0467 528.642 77.944C528.52 77.8413 528.413 77.6827 528.32 77.468L527.34 75.2L527.998 75.592H522.034L522.678 75.2L521.712 77.468C521.618 77.692 521.516 77.8553 521.404 77.958C521.292 78.0513 521.142 78.098 520.956 78.098ZM525.002 69.74L522.888 74.752L522.538 74.416H527.48L527.158 74.752L525.03 69.74H525.002ZM533.35 78.126C532.874 78.126 532.445 78.0327 532.062 77.846C531.689 77.6593 531.395 77.4073 531.18 77.09C530.966 76.7727 530.858 76.4133 530.858 76.012C530.858 75.508 530.984 75.1113 531.236 74.822C531.498 74.5233 531.922 74.3133 532.51 74.192C533.108 74.0613 533.91 73.996 534.918 73.996H535.576V74.864H534.932C534.26 74.864 533.728 74.8967 533.336 74.962C532.944 75.0273 532.664 75.1393 532.496 75.298C532.338 75.4473 532.258 75.6573 532.258 75.928C532.258 76.2827 532.38 76.572 532.622 76.796C532.865 77.0107 533.201 77.118 533.63 77.118C533.976 77.118 534.279 77.0387 534.54 76.88C534.802 76.712 535.007 76.488 535.156 76.208C535.315 75.928 535.394 75.606 535.394 75.242V73.632C535.394 73.1 535.282 72.7173 535.058 72.484C534.834 72.2507 534.466 72.134 533.952 72.134C533.654 72.134 533.341 72.1713 533.014 72.246C532.697 72.3207 532.366 72.4467 532.02 72.624C531.862 72.6987 531.726 72.722 531.614 72.694C531.502 72.666 531.414 72.6053 531.348 72.512C531.283 72.4093 531.246 72.302 531.236 72.19C531.236 72.0687 531.264 71.952 531.32 71.84C531.386 71.728 531.493 71.644 531.642 71.588C532.053 71.392 532.459 71.252 532.86 71.168C533.262 71.084 533.64 71.042 533.994 71.042C534.62 71.042 535.133 71.14 535.534 71.336C535.945 71.532 536.248 71.8307 536.444 72.232C536.64 72.6333 536.738 73.1513 536.738 73.786V77.384C536.738 77.608 536.682 77.7853 536.57 77.916C536.458 78.0373 536.295 78.098 536.08 78.098C535.875 78.098 535.712 78.0373 535.59 77.916C535.469 77.7853 535.408 77.608 535.408 77.384V76.474H535.534C535.46 76.8193 535.32 77.118 535.114 77.37C534.918 77.6127 534.671 77.7993 534.372 77.93C534.074 78.0607 533.733 78.126 533.35 78.126Z" fill="#201F1F"/>
<line x1="518.278" y1="84" x2="518.278" y2="90" stroke="#2964A0"/>
<line x1="540.278" y1="84" x2="540.278" y2="90" stroke="#2964A0"/>
<line x1="517.778" y1="89.5" x2="539.778" y2="89.5" stroke="#2964A0"/>
<path d="M521.654 106H520.775V100.399C520.563 100.601 520.285 100.803 519.94 101.005C519.598 101.207 519.291 101.358 519.017 101.459V100.609C519.509 100.378 519.938 100.098 520.306 99.7695C520.674 99.4408 520.934 99.1217 521.087 98.8125H521.654V106ZM526.727 106V104.286H523.622V103.48L526.888 98.8418H527.606V103.48H528.573V104.286H527.606V106H526.727ZM526.727 103.48V100.253L524.486 103.48H526.727ZM529.72 107.987V100.814H530.521V101.488C530.71 101.225 530.923 101.028 531.161 100.897C531.398 100.764 531.686 100.697 532.025 100.697C532.468 100.697 532.858 100.811 533.197 101.039C533.535 101.267 533.791 101.589 533.963 102.006C534.136 102.419 534.222 102.873 534.222 103.368C534.222 103.899 534.126 104.377 533.934 104.804C533.745 105.227 533.469 105.552 533.104 105.78C532.743 106.005 532.362 106.117 531.961 106.117C531.668 106.117 531.405 106.055 531.17 105.932C530.939 105.808 530.749 105.652 530.599 105.463V107.987H529.72ZM530.516 103.437C530.516 104.104 530.651 104.597 530.921 104.916C531.192 105.235 531.519 105.395 531.903 105.395C532.293 105.395 532.627 105.23 532.904 104.901C533.184 104.569 533.324 104.057 533.324 103.363C533.324 102.702 533.187 102.208 532.914 101.879C532.643 101.55 532.319 101.386 531.942 101.386C531.568 101.386 531.236 101.562 530.946 101.913C530.659 102.261 530.516 102.769 530.516 103.437ZM534.701 106L536.595 103.305L534.842 100.814H535.941L536.737 102.03C536.887 102.261 537.007 102.455 537.098 102.611C537.241 102.396 537.373 102.206 537.494 102.04L538.368 100.814H539.417L537.625 103.256L539.554 106H538.475L537.411 104.389L537.127 103.954L535.765 106H534.701Z" fill="#3E3E3D"/>
<path d="M568.184 78.084C568.024 78.084 567.896 78.048 567.8 77.976C567.704 77.904 567.648 77.808 567.632 77.688C567.616 77.568 567.64 77.432 567.704 77.28L570.956 69.984C571.036 69.792 571.136 69.656 571.256 69.576C571.384 69.496 571.524 69.456 571.676 69.456C571.82 69.456 571.952 69.496 572.072 69.576C572.2 69.656 572.304 69.792 572.384 69.984L575.636 77.28C575.708 77.432 575.736 77.572 575.72 77.7C575.704 77.82 575.652 77.916 575.564 77.988C575.476 78.052 575.352 78.084 575.192 78.084C575.016 78.084 574.876 78.04 574.772 77.952C574.668 77.864 574.576 77.728 574.496 77.544L573.656 75.6L574.22 75.936H569.108L569.66 75.6L568.832 77.544C568.752 77.736 568.664 77.876 568.568 77.964C568.472 78.044 568.344 78.084 568.184 78.084ZM571.652 70.92L569.84 75.216L569.54 74.928H573.776L573.5 75.216L571.676 70.92H571.652ZM578.808 78.108C578.4 78.108 578.032 78.028 577.704 77.868C577.384 77.708 577.132 77.492 576.948 77.22C576.764 76.948 576.672 76.64 576.672 76.296C576.672 75.864 576.78 75.524 576.996 75.276C577.22 75.02 577.584 74.84 578.088 74.736C578.6 74.624 579.288 74.568 580.152 74.568H580.716V75.312H580.164C579.588 75.312 579.132 75.34 578.796 75.396C578.46 75.452 578.22 75.548 578.076 75.684C577.94 75.812 577.872 75.992 577.872 76.224C577.872 76.528 577.976 76.776 578.184 76.968C578.392 77.152 578.68 77.244 579.048 77.244C579.344 77.244 579.604 77.176 579.828 77.04C580.052 76.896 580.228 76.704 580.356 76.464C580.492 76.224 580.56 75.948 580.56 75.636V74.256C580.56 73.8 580.464 73.472 580.272 73.272C580.08 73.072 579.764 72.972 579.324 72.972C579.068 72.972 578.8 73.004 578.52 73.068C578.248 73.132 577.964 73.24 577.668 73.392C577.532 73.456 577.416 73.476 577.32 73.452C577.224 73.428 577.148 73.376 577.092 73.296C577.036 73.208 577.004 73.116 576.996 73.02C576.996 72.916 577.02 72.816 577.068 72.72C577.124 72.624 577.216 72.552 577.344 72.504C577.696 72.336 578.044 72.216 578.388 72.144C578.732 72.072 579.056 72.036 579.36 72.036C579.896 72.036 580.336 72.12 580.68 72.288C581.032 72.456 581.292 72.712 581.46 73.056C581.628 73.4 581.712 73.844 581.712 74.388V77.472C581.712 77.664 581.664 77.816 581.568 77.928C581.472 78.032 581.332 78.084 581.148 78.084C580.972 78.084 580.832 78.032 580.728 77.928C580.624 77.816 580.572 77.664 580.572 77.472V76.692H580.68C580.616 76.988 580.496 77.244 580.32 77.46C580.152 77.668 579.94 77.828 579.684 77.94C579.428 78.052 579.136 78.108 578.808 78.108Z" fill="#201F1F"/>
<line x1="564.389" y1="84" x2="564.389" y2="90" stroke="#2964A0"/>
<line x1="586.389" y1="84" x2="586.389" y2="90" stroke="#2964A0"/>
<line x1="563.889" y1="89.5" x2="585.889" y2="89.5" stroke="#2964A0"/>
<path d="M567.765 106H566.886V100.399C566.674 100.601 566.396 100.803 566.051 101.005C565.709 101.207 565.402 101.358 565.128 101.459V100.609C565.62 100.378 566.049 100.098 566.417 99.7695C566.785 99.4408 567.045 99.1217 567.198 98.8125H567.765V106ZM574.64 105.155V106H569.908C569.902 105.788 569.936 105.585 570.011 105.39C570.131 105.067 570.323 104.75 570.587 104.438C570.854 104.125 571.238 103.764 571.74 103.354C572.517 102.715 573.043 102.211 573.317 101.84C573.59 101.465 573.727 101.112 573.727 100.78C573.727 100.432 573.601 100.139 573.351 99.9014C573.103 99.6605 572.78 99.54 572.379 99.54C571.956 99.54 571.617 99.667 571.364 99.9209C571.11 100.175 570.981 100.526 570.978 100.976L570.074 100.883C570.136 100.209 570.369 99.6963 570.773 99.3447C571.176 98.9899 571.718 98.8125 572.399 98.8125C573.086 98.8125 573.629 99.0029 574.03 99.3838C574.43 99.7646 574.63 100.237 574.63 100.8C574.63 101.086 574.572 101.368 574.454 101.645C574.337 101.921 574.142 102.213 573.868 102.519C573.598 102.825 573.147 103.244 572.516 103.778C571.989 104.221 571.65 104.522 571.5 104.682C571.351 104.838 571.227 104.996 571.129 105.155H574.64ZM575.831 107.987V100.814H576.632V101.488C576.821 101.225 577.034 101.028 577.272 100.897C577.509 100.764 577.797 100.697 578.136 100.697C578.579 100.697 578.969 100.811 579.308 101.039C579.646 101.267 579.902 101.589 580.074 102.006C580.247 102.419 580.333 102.873 580.333 103.368C580.333 103.899 580.237 104.377 580.045 104.804C579.856 105.227 579.58 105.552 579.215 105.78C578.854 106.005 578.473 106.117 578.073 106.117C577.78 106.117 577.516 106.055 577.281 105.932C577.05 105.808 576.86 105.652 576.71 105.463V107.987H575.831ZM576.627 103.437C576.627 104.104 576.762 104.597 577.032 104.916C577.303 105.235 577.63 105.395 578.014 105.395C578.405 105.395 578.738 105.23 579.015 104.901C579.295 104.569 579.435 104.057 579.435 103.363C579.435 102.702 579.298 102.208 579.025 101.879C578.754 101.55 578.431 101.386 578.053 101.386C577.679 101.386 577.347 101.562 577.057 101.913C576.77 102.261 576.627 102.769 576.627 103.437ZM580.812 106L582.706 103.305L580.953 100.814H582.052L582.848 102.03C582.998 102.261 583.118 102.455 583.209 102.611C583.352 102.396 583.484 102.206 583.605 102.04L584.479 100.814H585.529L583.737 103.256L585.665 106H584.586L583.522 104.389L583.239 103.954L581.876 106H580.812Z" fill="#3E3E3D"/>
<path d="M615.413 78.07C615.279 78.07 615.173 78.04 615.093 77.98C615.013 77.92 614.966 77.84 614.953 77.74C614.939 77.64 614.959 77.5267 615.013 77.4L617.723 71.32C617.789 71.16 617.873 71.0467 617.973 70.98C618.079 70.9133 618.196 70.88 618.323 70.88C618.443 70.88 618.553 70.9133 618.653 70.98C618.759 71.0467 618.846 71.16 618.913 71.32L621.623 77.4C621.683 77.5267 621.706 77.6433 621.693 77.75C621.679 77.85 621.636 77.93 621.563 77.99C621.489 78.0433 621.386 78.07 621.253 78.07C621.106 78.07 620.989 78.0333 620.903 77.96C620.816 77.8867 620.739 77.7733 620.673 77.62L619.973 76L620.443 76.28H616.183L616.643 76L615.953 77.62C615.886 77.78 615.813 77.8967 615.733 77.97C615.653 78.0367 615.546 78.07 615.413 78.07ZM618.303 72.1L616.793 75.68L616.543 75.44H620.073L619.843 75.68L618.323 72.1H618.303ZM624.266 78.09C623.926 78.09 623.619 78.0233 623.346 77.89C623.079 77.7567 622.869 77.5767 622.716 77.35C622.563 77.1233 622.486 76.8667 622.486 76.58C622.486 76.22 622.576 75.9367 622.756 75.73C622.943 75.5167 623.246 75.3667 623.666 75.28C624.093 75.1867 624.666 75.14 625.386 75.14H625.856V75.76H625.396C624.916 75.76 624.536 75.7833 624.256 75.83C623.976 75.8767 623.776 75.9567 623.656 76.07C623.543 76.1767 623.486 76.3267 623.486 76.52C623.486 76.7733 623.573 76.98 623.746 77.14C623.919 77.2933 624.159 77.37 624.466 77.37C624.713 77.37 624.929 77.3133 625.116 77.2C625.303 77.08 625.449 76.92 625.556 76.72C625.669 76.52 625.726 76.29 625.726 76.03V74.88C625.726 74.5 625.646 74.2267 625.486 74.06C625.326 73.8933 625.063 73.81 624.696 73.81C624.483 73.81 624.259 73.8367 624.026 73.89C623.799 73.9433 623.563 74.0333 623.316 74.16C623.203 74.2133 623.106 74.23 623.026 74.21C622.946 74.19 622.883 74.1467 622.836 74.08C622.789 74.0067 622.763 73.93 622.756 73.85C622.756 73.7633 622.776 73.68 622.816 73.6C622.863 73.52 622.939 73.46 623.046 73.42C623.339 73.28 623.629 73.18 623.916 73.12C624.203 73.06 624.473 73.03 624.726 73.03C625.173 73.03 625.539 73.1 625.826 73.24C626.119 73.38 626.336 73.5933 626.476 73.88C626.616 74.1667 626.686 74.5367 626.686 74.99V77.56C626.686 77.72 626.646 77.8467 626.566 77.94C626.486 78.0267 626.369 78.07 626.216 78.07C626.069 78.07 625.953 78.0267 625.866 77.94C625.779 77.8467 625.736 77.72 625.736 77.56V76.91H625.826C625.773 77.1567 625.673 77.37 625.526 77.55C625.386 77.7233 625.209 77.8567 624.996 77.95C624.783 78.0433 624.539 78.09 624.266 78.09Z" fill="#201F1F"/>
<line x1="610.5" y1="84" x2="610.5" y2="90" stroke="#2964A0"/>
<line x1="632.5" y1="84" x2="632.5" y2="90" stroke="#2964A0"/>
<line x1="610" y1="89.5" x2="632" y2="89.5" stroke="#2964A0"/>
<path d="M613.876 106H612.997V100.399C612.785 100.601 612.507 100.803 612.162 101.005C611.82 101.207 611.513 101.358 611.239 101.459V100.609C611.731 100.378 612.16 100.098 612.528 99.7695C612.896 99.4408 613.157 99.1217 613.31 98.8125H613.876V106ZM616.132 102.47C616.132 101.623 616.218 100.943 616.391 100.429C616.566 99.9111 616.825 99.5124 617.167 99.2324C617.512 98.9525 617.945 98.8125 618.466 98.8125C618.85 98.8125 619.187 98.8906 619.477 99.0469C619.766 99.1999 620.006 99.4229 620.194 99.7158C620.383 100.006 620.531 100.36 620.639 100.78C620.746 101.197 620.8 101.76 620.8 102.47C620.8 103.31 620.714 103.988 620.541 104.506C620.368 105.02 620.11 105.419 619.765 105.702C619.423 105.982 618.99 106.122 618.466 106.122C617.776 106.122 617.234 105.875 616.84 105.38C616.368 104.784 616.132 103.814 616.132 102.47ZM617.035 102.47C617.035 103.645 617.172 104.428 617.445 104.818C617.722 105.206 618.062 105.399 618.466 105.399C618.869 105.399 619.208 105.204 619.481 104.813C619.758 104.423 619.896 103.642 619.896 102.47C619.896 101.291 619.758 100.508 619.481 100.121C619.208 99.7337 618.866 99.54 618.456 99.54C618.052 99.54 617.73 99.7109 617.489 100.053C617.187 100.489 617.035 101.295 617.035 102.47ZM621.942 107.987V100.814H622.743V101.488C622.932 101.225 623.145 101.028 623.383 100.897C623.62 100.764 623.909 100.697 624.247 100.697C624.69 100.697 625.08 100.811 625.419 101.039C625.757 101.267 626.013 101.589 626.186 102.006C626.358 102.419 626.444 102.873 626.444 103.368C626.444 103.899 626.348 104.377 626.156 104.804C625.967 105.227 625.691 105.552 625.326 105.78C624.965 106.005 624.584 106.117 624.184 106.117C623.891 106.117 623.627 106.055 623.393 105.932C623.161 105.808 622.971 105.652 622.821 105.463V107.987H621.942ZM622.738 103.437C622.738 104.104 622.873 104.597 623.144 104.916C623.414 105.235 623.741 105.395 624.125 105.395C624.516 105.395 624.849 105.23 625.126 104.901C625.406 104.569 625.546 104.057 625.546 103.363C625.546 102.702 625.409 102.208 625.136 101.879C624.866 101.55 624.542 101.386 624.164 101.386C623.79 101.386 623.458 101.562 623.168 101.913C622.882 102.261 622.738 102.769 622.738 103.437ZM626.923 106L628.817 103.305L627.064 100.814H628.163L628.959 102.03C629.109 102.261 629.229 102.455 629.32 102.611C629.464 102.396 629.595 102.206 629.716 102.04L630.59 100.814H631.64L629.848 103.256L631.776 106H630.697L629.633 104.389L629.35 103.954L627.987 106H626.923Z" fill="#3E3E3D"/>
</svg>
