<svg viewBox="0 0 20 20" fill="none" xmlns="http://www.w3.org/2000/svg">
<path d="M4.99998 18.3333C4.54165 18.3333 4.14929 18.1701 3.8229 17.8437C3.49651 17.5173 3.33331 17.125 3.33331 16.6666V8.33331C3.33331 7.87498 3.49651 7.48262 3.8229 7.15623C4.14929 6.82984 4.54165 6.66665 4.99998 6.66665H5.83331V4.99998C5.83331 3.8472 6.23956 2.86456 7.05206 2.05206C7.86456 1.23956 8.8472 0.833313 9.99998 0.833313C11.1528 0.833313 12.1354 1.23956 12.9479 2.05206C13.7604 2.86456 14.1666 3.8472 14.1666 4.99998V6.66665H15C15.4583 6.66665 15.8507 6.82984 16.1771 7.15623C16.5035 7.48262 16.6666 7.87498 16.6666 8.33331V16.6666C16.6666 17.125 16.5035 17.5173 16.1771 17.8437C15.8507 18.1701 15.4583 18.3333 15 18.3333H4.99998ZM4.99998 16.6666H15V8.33331H4.99998V16.6666ZM9.99998 14.1666C10.4583 14.1666 10.8507 14.0035 11.1771 13.6771C11.5035 13.3507 11.6666 12.9583 11.6666 12.5C11.6666 12.0416 11.5035 11.6493 11.1771 11.3229C10.8507 10.9965 10.4583 10.8333 9.99998 10.8333C9.54165 10.8333 9.14928 10.9965 8.8229 11.3229C8.49651 11.6493 8.33331 12.0416 8.33331 12.5C8.33331 12.9583 8.49651 13.3507 8.8229 13.6771C9.14928 14.0035 9.54165 14.1666 9.99998 14.1666ZM7.49998 6.66665H12.5V4.99998C12.5 4.30554 12.2569 3.71526 11.7708 3.22915C11.2847 2.74304 10.6944 2.49998 9.99998 2.49998C9.30553 2.49998 8.71526 2.74304 8.22915 3.22915C7.74303 3.71526 7.49998 4.30554 7.49998 4.99998V6.66665Z" fill="currentColor"/>
</svg>