<svg width="712" height="294" viewBox="0 0 712 294" fill="none" xmlns="http://www.w3.org/2000/svg">
<g clip-path="url(#clip0_968_8591)">
<path d="M0 8C0 3.58172 3.58172 0 8 0H704C708.418 0 712 3.58172 712 8V286C712 290.418 708.418 294 704 294H8C3.58172 294 0 290.418 0 286V8Z" fill="white"/>
<path d="M17.0391 21V10.9785H19.0078L23.1094 17.6709V10.9785H24.9893V21H22.959L18.9189 14.4648V21H17.0391ZM26.6777 17.2676C26.6777 16.6296 26.835 16.012 27.1494 15.415C27.4639 14.818 27.9082 14.3623 28.4824 14.0479C29.0612 13.7334 29.7061 13.5762 30.417 13.5762C31.5153 13.5762 32.4154 13.9339 33.1172 14.6494C33.819 15.3604 34.1699 16.2604 34.1699 17.3496C34.1699 18.4479 33.8145 19.3594 33.1035 20.084C32.3971 20.804 31.5062 21.1641 30.4307 21.1641C29.7653 21.1641 29.1296 21.0137 28.5234 20.7129C27.9219 20.4121 27.4639 19.9723 27.1494 19.3936C26.835 18.8102 26.6777 18.1016 26.6777 17.2676ZM28.6465 17.3701C28.6465 18.0902 28.8174 18.6416 29.1592 19.0244C29.501 19.4072 29.9225 19.5986 30.4238 19.5986C30.9251 19.5986 31.3444 19.4072 31.6816 19.0244C32.0234 18.6416 32.1943 18.0856 32.1943 17.3564C32.1943 16.6455 32.0234 16.0986 31.6816 15.7158C31.3444 15.333 30.9251 15.1416 30.4238 15.1416C29.9225 15.1416 29.501 15.333 29.1592 15.7158C28.8174 16.0986 28.6465 16.6501 28.6465 17.3701ZM35.5371 13.7402H37.3076V14.7314C37.9411 13.9613 38.6953 13.5762 39.5703 13.5762C40.0352 13.5762 40.4385 13.6719 40.7803 13.8633C41.1221 14.0547 41.4023 14.3441 41.6211 14.7314C41.9401 14.3441 42.2842 14.0547 42.6533 13.8633C43.0225 13.6719 43.4167 13.5762 43.8359 13.5762C44.3691 13.5762 44.8203 13.6855 45.1895 13.9043C45.5586 14.1185 45.8343 14.4352 46.0166 14.8545C46.1488 15.1644 46.2148 15.6657 46.2148 16.3584V21H44.2939V16.8506C44.2939 16.1305 44.2279 15.6657 44.0957 15.4561C43.918 15.1826 43.6445 15.0459 43.2754 15.0459C43.0065 15.0459 42.7536 15.1279 42.5166 15.292C42.2796 15.4561 42.1087 15.6976 42.0039 16.0166C41.8991 16.3311 41.8467 16.8301 41.8467 17.5137V21H39.9258V17.0215C39.9258 16.3151 39.8916 15.8594 39.8232 15.6543C39.7549 15.4492 39.6478 15.2965 39.502 15.1963C39.3607 15.096 39.167 15.0459 38.9209 15.0459C38.6247 15.0459 38.3581 15.1257 38.1211 15.2852C37.8841 15.4447 37.7132 15.6748 37.6084 15.9756C37.5081 16.2764 37.458 16.7754 37.458 17.4727V21H35.5371V13.7402ZM58.6904 21H56.9062V19.9336C56.61 20.3483 56.2591 20.6582 55.8535 20.8633C55.4525 21.0638 55.0469 21.1641 54.6367 21.1641C53.8027 21.1641 53.0872 20.8291 52.4902 20.1592C51.8978 19.4847 51.6016 18.5459 51.6016 17.3428C51.6016 16.1123 51.891 15.1781 52.4697 14.54C53.0485 13.8975 53.7799 13.5762 54.6641 13.5762C55.4753 13.5762 56.1771 13.9134 56.7695 14.5879V10.9785H58.6904V21ZM53.5635 17.2129C53.5635 17.9876 53.6706 18.5482 53.8848 18.8945C54.1947 19.3958 54.6276 19.6465 55.1836 19.6465C55.6257 19.6465 56.0016 19.4596 56.3115 19.0859C56.6214 18.7077 56.7764 18.1449 56.7764 17.3975C56.7764 16.5635 56.626 15.9642 56.3252 15.5996C56.0244 15.2305 55.6393 15.0459 55.1699 15.0459C54.7142 15.0459 54.3314 15.2282 54.0215 15.5928C53.7161 15.9528 53.5635 16.4928 53.5635 17.2129ZM65.3691 21V19.9131C65.1048 20.3005 64.7562 20.6058 64.3232 20.8291C63.8949 21.0524 63.4414 21.1641 62.9629 21.1641C62.4753 21.1641 62.0378 21.057 61.6504 20.8428C61.263 20.6286 60.9827 20.3278 60.8096 19.9404C60.6364 19.5531 60.5498 19.0176 60.5498 18.334V13.7402H62.4707V17.0762C62.4707 18.097 62.5049 18.7236 62.5732 18.9561C62.6462 19.1839 62.776 19.3662 62.9629 19.5029C63.1497 19.6351 63.3867 19.7012 63.6738 19.7012C64.002 19.7012 64.2959 19.6123 64.5557 19.4346C64.8154 19.2523 64.9932 19.029 65.0889 18.7646C65.1846 18.4958 65.2324 17.8418 65.2324 16.8027V13.7402H67.1533V21H65.3691ZM76.375 13.7402V15.2715H75.0625V18.1973C75.0625 18.7897 75.0739 19.1361 75.0967 19.2363C75.124 19.332 75.181 19.4118 75.2676 19.4756C75.3587 19.5394 75.4681 19.5713 75.5957 19.5713C75.7734 19.5713 76.0309 19.5098 76.3682 19.3867L76.5322 20.877C76.0856 21.0684 75.5798 21.1641 75.0146 21.1641C74.6683 21.1641 74.3561 21.1071 74.0781 20.9932C73.8001 20.8747 73.5951 20.7243 73.4629 20.542C73.3353 20.3551 73.2464 20.1045 73.1963 19.79C73.1553 19.5667 73.1348 19.1156 73.1348 18.4365V15.2715H72.2529V13.7402H73.1348V12.2979L75.0625 11.1768V13.7402H76.375ZM77.2637 17.2676C77.2637 16.6296 77.4209 16.012 77.7354 15.415C78.0498 14.818 78.4941 14.3623 79.0684 14.0479C79.6471 13.7334 80.292 13.5762 81.0029 13.5762C82.1012 13.5762 83.0013 13.9339 83.7031 14.6494C84.4049 15.3604 84.7559 16.2604 84.7559 17.3496C84.7559 18.4479 84.4004 19.3594 83.6895 20.084C82.9831 20.804 82.0921 21.1641 81.0166 21.1641C80.3512 21.1641 79.7155 21.0137 79.1094 20.7129C78.5078 20.4121 78.0498 19.9723 77.7354 19.3936C77.4209 18.8102 77.2637 18.1016 77.2637 17.2676ZM79.2324 17.3701C79.2324 18.0902 79.4033 18.6416 79.7451 19.0244C80.0869 19.4072 80.5085 19.5986 81.0098 19.5986C81.5111 19.5986 81.9303 19.4072 82.2676 19.0244C82.6094 18.6416 82.7803 18.0856 82.7803 17.3564C82.7803 16.6455 82.6094 16.0986 82.2676 15.7158C81.9303 15.333 81.5111 15.1416 81.0098 15.1416C80.5085 15.1416 80.0869 15.333 79.7451 15.7158C79.4033 16.0986 79.2324 16.6501 79.2324 17.3701ZM86.1982 21V10.9785H88.1191V16.2969L90.3682 13.7402H92.7334L90.252 16.3926L92.9111 21H90.8398L89.0146 17.7393L88.1191 18.6758V21H86.1982ZM98.2637 18.6895L100.178 19.0107C99.9316 19.7126 99.542 20.248 99.0088 20.6172C98.4801 20.9818 97.8171 21.1641 97.0195 21.1641C95.7572 21.1641 94.8229 20.7516 94.2168 19.9268C93.7383 19.266 93.499 18.432 93.499 17.4248C93.499 16.2217 93.8135 15.2806 94.4424 14.6016C95.0713 13.918 95.8665 13.5762 96.8281 13.5762C97.9082 13.5762 98.7604 13.9339 99.3848 14.6494C100.009 15.3604 100.308 16.4518 100.28 17.9238H95.4678C95.4814 18.4935 95.6364 18.9378 95.9326 19.2568C96.2288 19.5713 96.598 19.7285 97.04 19.7285C97.3408 19.7285 97.5938 19.6465 97.7988 19.4824C98.0039 19.3184 98.1589 19.054 98.2637 18.6895ZM98.373 16.748C98.3594 16.1921 98.2158 15.7705 97.9424 15.4834C97.6689 15.1917 97.3363 15.0459 96.9443 15.0459C96.5251 15.0459 96.1787 15.1986 95.9053 15.5039C95.6318 15.8092 95.4974 16.224 95.502 16.748H98.373ZM108.456 21H106.535V17.2949C106.535 16.5111 106.494 16.0052 106.412 15.7773C106.33 15.5449 106.196 15.3649 106.009 15.2373C105.826 15.1097 105.605 15.0459 105.346 15.0459C105.013 15.0459 104.715 15.137 104.45 15.3193C104.186 15.5016 104.004 15.7432 103.903 16.0439C103.808 16.3447 103.76 16.9007 103.76 17.7119V21H101.839V13.7402H103.623V14.8066C104.257 13.9863 105.054 13.5762 106.016 13.5762C106.439 13.5762 106.827 13.6536 107.178 13.8086C107.529 13.959 107.793 14.1527 107.971 14.3896C108.153 14.6266 108.278 14.8955 108.347 15.1963C108.42 15.4971 108.456 15.9277 108.456 16.4883V21Z" fill="#201F1F"/>
<path d="M0 33H356V34H0V33Z" fill="#CDCCCB"/>
<path d="M375.575 21L371.993 10.9785H374.188L376.724 18.3955L379.178 10.9785H381.324L377.735 21H375.575ZM382.999 15.9551L381.256 15.6406C381.452 14.9388 381.789 14.4193 382.268 14.082C382.746 13.7448 383.457 13.5762 384.4 13.5762C385.257 13.5762 385.895 13.6787 386.314 13.8838C386.734 14.0843 387.028 14.3418 387.196 14.6562C387.369 14.9661 387.456 15.5381 387.456 16.3721L387.436 18.6143C387.436 19.2523 387.465 19.724 387.524 20.0293C387.588 20.3301 387.704 20.6536 387.873 21H385.973C385.923 20.8724 385.861 20.6833 385.788 20.4326C385.756 20.3187 385.733 20.2435 385.72 20.207C385.392 20.526 385.041 20.7653 384.667 20.9248C384.293 21.0843 383.895 21.1641 383.471 21.1641C382.723 21.1641 382.133 20.9613 381.7 20.5557C381.272 20.1501 381.058 19.6374 381.058 19.0176C381.058 18.6074 381.156 18.2428 381.352 17.9238C381.548 17.6003 381.821 17.3542 382.172 17.1855C382.527 17.0124 383.038 16.862 383.703 16.7344C384.601 16.5658 385.223 16.4085 385.569 16.2627V16.0713C385.569 15.7021 385.478 15.4401 385.296 15.2852C385.114 15.1257 384.77 15.0459 384.264 15.0459C383.922 15.0459 383.655 15.1143 383.464 15.251C383.272 15.3831 383.118 15.6178 382.999 15.9551ZM385.569 17.5137C385.323 17.5957 384.934 17.6937 384.4 17.8076C383.867 17.9215 383.519 18.0332 383.354 18.1426C383.104 18.3203 382.979 18.5459 382.979 18.8193C382.979 19.0882 383.079 19.3206 383.279 19.5166C383.48 19.7126 383.735 19.8105 384.045 19.8105C384.391 19.8105 384.722 19.6966 385.036 19.4688C385.269 19.2956 385.421 19.0837 385.494 18.833C385.544 18.6689 385.569 18.3568 385.569 17.8965V17.5137ZM389.356 21V10.9785H391.277V21H389.356ZM397.457 18.6895L399.371 19.0107C399.125 19.7126 398.735 20.248 398.202 20.6172C397.674 20.9818 397.01 21.1641 396.213 21.1641C394.951 21.1641 394.016 20.7516 393.41 19.9268C392.932 19.266 392.692 18.432 392.692 17.4248C392.692 16.2217 393.007 15.2806 393.636 14.6016C394.265 13.918 395.06 13.5762 396.021 13.5762C397.102 13.5762 397.954 13.9339 398.578 14.6494C399.202 15.3604 399.501 16.4518 399.474 17.9238H394.661C394.675 18.4935 394.83 18.9378 395.126 19.2568C395.422 19.5713 395.791 19.7285 396.233 19.7285C396.534 19.7285 396.787 19.6465 396.992 19.4824C397.197 19.3184 397.352 19.054 397.457 18.6895ZM397.566 16.748C397.553 16.1921 397.409 15.7705 397.136 15.4834C396.862 15.1917 396.53 15.0459 396.138 15.0459C395.718 15.0459 395.372 15.1986 395.099 15.5039C394.825 15.8092 394.691 16.224 394.695 16.748H397.566ZM405.824 21V19.9131C405.56 20.3005 405.211 20.6058 404.778 20.8291C404.35 21.0524 403.896 21.1641 403.418 21.1641C402.93 21.1641 402.493 21.057 402.105 20.8428C401.718 20.6286 401.438 20.3278 401.265 19.9404C401.091 19.5531 401.005 19.0176 401.005 18.334V13.7402H402.926V17.0762C402.926 18.097 402.96 18.7236 403.028 18.9561C403.101 19.1839 403.231 19.3662 403.418 19.5029C403.605 19.6351 403.842 19.7012 404.129 19.7012C404.457 19.7012 404.751 19.6123 405.011 19.4346C405.271 19.2523 405.448 19.029 405.544 18.7646C405.64 18.4958 405.688 17.8418 405.688 16.8027V13.7402H407.608V21H405.824ZM411.443 21H409.522V13.7402H411.307V14.7725C411.612 14.2848 411.885 13.9635 412.127 13.8086C412.373 13.6536 412.651 13.5762 412.961 13.5762C413.398 13.5762 413.82 13.6969 414.226 13.9385L413.631 15.6133C413.307 15.4036 413.007 15.2988 412.729 15.2988C412.46 15.2988 412.232 15.374 412.045 15.5244C411.858 15.6702 411.71 15.9368 411.601 16.3242C411.496 16.7116 411.443 17.5228 411.443 18.7578V21Z" fill="#201F1F"/>
<path d="M356 33H712V34H356V33Z" fill="#CDCCCB"/>
<path d="M16.9229 65V57.7402H18.0303V58.7725C18.5635 57.9749 19.3337 57.5762 20.3408 57.5762C20.7783 57.5762 21.1794 57.6559 21.5439 57.8154C21.9131 57.9704 22.1888 58.1755 22.3711 58.4307C22.5534 58.6859 22.681 58.9889 22.7539 59.3398C22.7995 59.5677 22.8223 59.9665 22.8223 60.5361V65H21.5918V60.584C21.5918 60.0827 21.5439 59.709 21.4482 59.4629C21.3525 59.2122 21.1816 59.014 20.9355 58.8682C20.694 58.7178 20.4092 58.6426 20.0811 58.6426C19.557 58.6426 19.1035 58.8089 18.7207 59.1416C18.3424 59.4743 18.1533 60.1055 18.1533 61.0352V65H16.9229ZM24.2578 61.3701C24.2578 60.0257 24.6315 59.0299 25.3789 58.3828C26.0033 57.8451 26.7643 57.5762 27.6621 57.5762C28.6602 57.5762 29.4759 57.9043 30.1094 58.5605C30.7428 59.2122 31.0596 60.1146 31.0596 61.2676C31.0596 62.2018 30.9183 62.9378 30.6357 63.4756C30.3577 64.0088 29.9499 64.4235 29.4121 64.7197C28.8789 65.016 28.2956 65.1641 27.6621 65.1641C26.6458 65.1641 25.8232 64.8382 25.1943 64.1865C24.57 63.5348 24.2578 62.596 24.2578 61.3701ZM25.5225 61.3701C25.5225 62.2998 25.7253 62.9971 26.1309 63.4619C26.5365 63.9222 27.0469 64.1523 27.6621 64.1523C28.2728 64.1523 28.7809 63.9199 29.1865 63.4551C29.5921 62.9902 29.7949 62.2816 29.7949 61.3291C29.7949 60.4313 29.5898 59.7523 29.1797 59.292C28.7741 58.8271 28.2682 58.5947 27.6621 58.5947C27.0469 58.5947 26.5365 58.8249 26.1309 59.2852C25.7253 59.7454 25.5225 60.4404 25.5225 61.3701ZM32.5088 65V57.7402H33.6162V58.7725C34.1494 57.9749 34.9196 57.5762 35.9268 57.5762C36.3643 57.5762 36.7653 57.6559 37.1299 57.8154C37.499 57.9704 37.7747 58.1755 37.957 58.4307C38.1393 58.6859 38.2669 58.9889 38.3398 59.3398C38.3854 59.5677 38.4082 59.9665 38.4082 60.5361V65H37.1777V60.584C37.1777 60.0827 37.1299 59.709 37.0342 59.4629C36.9385 59.2122 36.7676 59.014 36.5215 58.8682C36.2799 58.7178 35.9951 58.6426 35.667 58.6426C35.1429 58.6426 34.6895 58.8089 34.3066 59.1416C33.9284 59.4743 33.7393 60.1055 33.7393 61.0352V65H32.5088ZM45.2715 62.6621L46.543 62.8193C46.3424 63.5622 45.971 64.1387 45.4287 64.5488C44.8864 64.959 44.1937 65.1641 43.3506 65.1641C42.2887 65.1641 41.4456 64.8382 40.8213 64.1865C40.2015 63.5303 39.8916 62.612 39.8916 61.4316C39.8916 60.2103 40.2061 59.2624 40.835 58.5879C41.4639 57.9134 42.2796 57.5762 43.2822 57.5762C44.2529 57.5762 45.0459 57.9066 45.6611 58.5674C46.2764 59.2282 46.584 60.1579 46.584 61.3564C46.584 61.4294 46.5817 61.5387 46.5771 61.6846H41.1631C41.2087 62.4821 41.4342 63.0928 41.8398 63.5166C42.2454 63.9404 42.7513 64.1523 43.3574 64.1523C43.8086 64.1523 44.1937 64.0339 44.5127 63.7969C44.8317 63.5599 45.0846 63.1816 45.2715 62.6621ZM41.2314 60.6729H45.2852C45.2305 60.0622 45.0755 59.6042 44.8203 59.2988C44.4284 58.8249 43.9202 58.5879 43.2959 58.5879C42.7308 58.5879 42.2546 58.777 41.8672 59.1553C41.4844 59.5335 41.2725 60.0394 41.2314 60.6729Z" fill="#3E3E3D"/>
<path d="M0 85H356V86H0V85Z" fill="#CDCCCB"/>
<path d="M372.581 60.0576C372.581 58.8727 372.702 57.9202 372.943 57.2002C373.189 56.4756 373.552 55.9173 374.03 55.5254C374.513 55.1335 375.119 54.9375 375.849 54.9375C376.386 54.9375 376.858 55.0469 377.264 55.2656C377.669 55.4798 378.004 55.792 378.269 56.2021C378.533 56.6077 378.74 57.1045 378.891 57.6924C379.041 58.2757 379.116 59.0641 379.116 60.0576C379.116 61.2334 378.995 62.1836 378.754 62.9082C378.512 63.6283 378.15 64.1865 377.667 64.583C377.188 64.9749 376.582 65.1709 375.849 65.1709C374.882 65.1709 374.124 64.8245 373.572 64.1318C372.911 63.2979 372.581 61.9398 372.581 60.0576ZM373.846 60.0576C373.846 61.7028 374.037 62.7988 374.42 63.3457C374.807 63.888 375.284 64.1592 375.849 64.1592C376.414 64.1592 376.888 63.8857 377.271 63.3389C377.658 62.792 377.852 61.6982 377.852 60.0576C377.852 58.4079 377.658 57.3118 377.271 56.7695C376.888 56.2272 376.409 55.9561 375.835 55.9561C375.27 55.9561 374.819 56.1953 374.481 56.6738C374.058 57.2845 373.846 58.4124 373.846 60.0576Z" fill="#3E3E3D"/>
<path d="M356 85H712V86H356V85Z" fill="#CDCCCB"/>
<path d="M16.0615 117L19.9375 111.777L16.5195 106.979H18.0986L19.917 109.549C20.2952 110.082 20.5641 110.492 20.7236 110.779C20.9469 110.415 21.2113 110.034 21.5166 109.638L23.5332 106.979H24.9756L21.4551 111.702L25.249 117H23.6084L21.0859 113.425C20.9447 113.22 20.7988 112.996 20.6484 112.755C20.4251 113.119 20.2656 113.37 20.1699 113.507L17.6543 117H16.0615ZM25.9668 113.78L27.2178 113.671C27.277 114.172 27.4137 114.585 27.6279 114.908C27.8467 115.227 28.1839 115.487 28.6396 115.688C29.0954 115.883 29.6081 115.981 30.1777 115.981C30.6836 115.981 31.1302 115.906 31.5176 115.756C31.9049 115.605 32.1921 115.4 32.3789 115.141C32.5703 114.876 32.666 114.589 32.666 114.279C32.666 113.965 32.5749 113.691 32.3926 113.459C32.2103 113.222 31.9095 113.024 31.4902 112.864C31.2214 112.759 30.6266 112.598 29.7061 112.379C28.7855 112.156 28.1406 111.946 27.7715 111.75C27.293 111.499 26.9352 111.189 26.6982 110.82C26.4658 110.447 26.3496 110.03 26.3496 109.569C26.3496 109.063 26.4932 108.592 26.7803 108.154C27.0674 107.712 27.4867 107.377 28.0381 107.149C28.5895 106.922 29.2025 106.808 29.877 106.808C30.6198 106.808 31.2738 106.928 31.8389 107.17C32.4085 107.407 32.846 107.758 33.1514 108.223C33.4567 108.688 33.6208 109.214 33.6436 109.802L32.3721 109.897C32.3037 109.264 32.0713 108.785 31.6748 108.462C31.2829 108.138 30.7018 107.977 29.9316 107.977C29.1296 107.977 28.5439 108.125 28.1748 108.421C27.8102 108.713 27.6279 109.066 27.6279 109.48C27.6279 109.84 27.7578 110.137 28.0176 110.369C28.2728 110.602 28.9382 110.841 30.0137 111.087C31.0938 111.328 31.8343 111.54 32.2354 111.723C32.8187 111.992 33.2493 112.333 33.5273 112.748C33.8053 113.158 33.9443 113.632 33.9443 114.17C33.9443 114.703 33.7917 115.207 33.4863 115.681C33.181 116.15 32.7412 116.517 32.167 116.781C31.5973 117.041 30.9548 117.171 30.2393 117.171C29.3324 117.171 28.5713 117.039 27.9561 116.774C27.3454 116.51 26.8646 116.114 26.5137 115.585C26.1673 115.052 25.985 114.45 25.9668 113.78Z" fill="#3E3E3D"/>
<path d="M0 137H356V138H0V137Z" fill="#CDCCCB"/>
<path d="M377.216 117H375.985V109.159C375.689 109.442 375.299 109.724 374.816 110.007C374.338 110.289 373.907 110.501 373.524 110.643V109.453C374.213 109.13 374.814 108.738 375.329 108.277C375.844 107.817 376.209 107.37 376.423 106.938H377.216V117Z" fill="#3E3E3D"/>
<path d="M356 137H712V138H356V137Z" fill="#CDCCCB"/>
<path d="M16.6289 165.78L17.8799 165.671C17.9391 166.172 18.0758 166.585 18.29 166.908C18.5088 167.227 18.846 167.487 19.3018 167.688C19.7575 167.883 20.2702 167.981 20.8398 167.981C21.3457 167.981 21.7923 167.906 22.1797 167.756C22.5671 167.605 22.8542 167.4 23.041 167.141C23.2324 166.876 23.3281 166.589 23.3281 166.279C23.3281 165.965 23.237 165.691 23.0547 165.459C22.8724 165.222 22.5716 165.024 22.1523 164.864C21.8835 164.759 21.2887 164.598 20.3682 164.379C19.4476 164.156 18.8027 163.946 18.4336 163.75C17.9551 163.499 17.5973 163.189 17.3604 162.82C17.1279 162.447 17.0117 162.03 17.0117 161.569C17.0117 161.063 17.1553 160.592 17.4424 160.154C17.7295 159.712 18.1488 159.377 18.7002 159.149C19.2516 158.922 19.8646 158.808 20.5391 158.808C21.2819 158.808 21.9359 158.928 22.501 159.17C23.0706 159.407 23.5081 159.758 23.8135 160.223C24.1188 160.688 24.2829 161.214 24.3057 161.802L23.0342 161.897C22.9658 161.264 22.7334 160.785 22.3369 160.462C21.945 160.138 21.3639 159.977 20.5938 159.977C19.7917 159.977 19.2061 160.125 18.8369 160.421C18.4723 160.713 18.29 161.066 18.29 161.48C18.29 161.84 18.4199 162.137 18.6797 162.369C18.9349 162.602 19.6003 162.841 20.6758 163.087C21.7559 163.328 22.4964 163.54 22.8975 163.723C23.4808 163.992 23.9115 164.333 24.1895 164.748C24.4674 165.158 24.6064 165.632 24.6064 166.17C24.6064 166.703 24.4538 167.207 24.1484 167.681C23.8431 168.15 23.4033 168.517 22.8291 168.781C22.2594 169.041 21.6169 169.171 20.9014 169.171C19.9945 169.171 19.2334 169.039 18.6182 168.774C18.0075 168.51 17.5267 168.114 17.1758 167.585C16.8294 167.052 16.6471 166.45 16.6289 165.78Z" fill="#3E3E3D"/>
<path d="M0 189H356V190H0V189Z" fill="#CDCCCB"/>
<path d="M379.048 167.817V169H372.424C372.415 168.704 372.463 168.419 372.567 168.146C372.736 167.694 373.005 167.25 373.374 166.812C373.748 166.375 374.285 165.869 374.987 165.295C376.076 164.402 376.812 163.695 377.195 163.176C377.578 162.652 377.77 162.157 377.77 161.692C377.77 161.205 377.594 160.795 377.243 160.462C376.897 160.125 376.443 159.956 375.883 159.956C375.29 159.956 374.816 160.134 374.461 160.489C374.105 160.845 373.925 161.337 373.921 161.966L372.656 161.836C372.743 160.893 373.069 160.175 373.634 159.683C374.199 159.186 374.958 158.938 375.91 158.938C376.872 158.938 377.633 159.204 378.193 159.737C378.754 160.271 379.034 160.931 379.034 161.72C379.034 162.121 378.952 162.515 378.788 162.902C378.624 163.29 378.351 163.698 377.968 164.126C377.59 164.554 376.958 165.142 376.074 165.89C375.336 166.509 374.862 166.931 374.652 167.154C374.443 167.373 374.27 167.594 374.133 167.817H379.048Z" fill="#3E3E3D"/>
<path d="M356 189H712V190H356V189Z" fill="#CDCCCB"/>
<path d="M17.0391 221V210.979H19.0352L21.4072 218.074C21.626 218.735 21.7855 219.229 21.8857 219.558C21.9997 219.193 22.1774 218.658 22.4189 217.951L24.8184 210.979H26.6025V221H25.3242V212.612L22.4121 221H21.2158L18.3174 212.469V221H17.0391Z" fill="#3E3E3D"/>
<path d="M0 241H356V242H0V241Z" fill="#CDCCCB"/>
<path d="M376.525 221V218.601H372.178V217.473L376.751 210.979H377.756V217.473H379.109V218.601H377.756V221H376.525ZM376.525 217.473V212.954L373.388 217.473H376.525Z" fill="#3E3E3D"/>
<path d="M356 241H712V242H356V241Z" fill="#CDCCCB"/>
<path d="M17.0254 273V262.979H18.3516V271.817H23.2871V273H17.0254Z" fill="#3E3E3D"/>
<path d="M0 293H356V294H0V293Z" fill="#CDCCCB"/>
<path d="M374.475 267.565C373.964 267.379 373.586 267.112 373.34 266.766C373.094 266.419 372.971 266.005 372.971 265.521C372.971 264.792 373.233 264.179 373.757 263.683C374.281 263.186 374.978 262.938 375.849 262.938C376.724 262.938 377.428 263.193 377.961 263.703C378.494 264.209 378.761 264.826 378.761 265.556C378.761 266.021 378.638 266.426 378.392 266.772C378.15 267.114 377.781 267.379 377.284 267.565C377.899 267.766 378.367 268.09 378.686 268.536C379.009 268.983 379.171 269.516 379.171 270.136C379.171 270.993 378.868 271.713 378.262 272.296C377.656 272.879 376.858 273.171 375.869 273.171C374.88 273.171 374.083 272.879 373.477 272.296C372.87 271.708 372.567 270.977 372.567 270.102C372.567 269.45 372.731 268.905 373.06 268.468C373.392 268.026 373.864 267.725 374.475 267.565ZM374.229 265.48C374.229 265.954 374.381 266.342 374.687 266.643C374.992 266.943 375.388 267.094 375.876 267.094C376.35 267.094 376.737 266.946 377.038 266.649C377.343 266.349 377.496 265.982 377.496 265.549C377.496 265.098 377.339 264.719 377.024 264.414C376.715 264.104 376.327 263.949 375.862 263.949C375.393 263.949 375.003 264.1 374.693 264.4C374.383 264.701 374.229 265.061 374.229 265.48ZM373.832 270.108C373.832 270.459 373.914 270.799 374.078 271.127C374.247 271.455 374.495 271.71 374.823 271.893C375.151 272.07 375.505 272.159 375.883 272.159C376.471 272.159 376.956 271.97 377.339 271.592C377.722 271.214 377.913 270.733 377.913 270.149C377.913 269.557 377.715 269.067 377.318 268.68C376.926 268.292 376.434 268.099 375.842 268.099C375.263 268.099 374.782 268.29 374.399 268.673C374.021 269.056 373.832 269.534 373.832 270.108Z" fill="#3E3E3D"/>
<path d="M356 293H712V294H356V293Z" fill="#CDCCCB"/>
</g>
<path d="M8 0.5H704C708.142 0.5 711.5 3.85786 711.5 8V286C711.5 290.142 708.142 293.5 704 293.5H8C3.85786 293.5 0.5 290.142 0.5 286V8C0.500001 3.85787 3.85787 0.5 8 0.5Z" stroke="#CDCCCB"/>
<defs>
<clipPath id="clip0_968_8591">
<path d="M0 8C0 3.58172 3.58172 0 8 0H704C708.418 0 712 3.58172 712 8V286C712 290.418 708.418 294 704 294H8C3.58172 294 0 290.418 0 286V8Z" fill="white"/>
</clipPath>
</defs>
</svg>
