<svg viewBox="0 0 20 20" fill="none" xmlns="http://www.w3.org/2000/svg">
<path d="M4.5 18C4.09722 18 3.74653 17.8507 3.44792 17.5521C3.14931 17.2535 3 16.9028 3 16.5V5.5C3 5.0875 3.14931 4.73438 3.44792 4.44063C3.74653 4.14688 4.09722 4 4.5 4H6V2H7.5V4H12.5V2H14V4H15.5C15.9028 4 16.2535 4.14688 16.5521 4.44063C16.8507 4.73438 17 5.0875 17 5.5V10.5H15.5V9H4.5V16.5H10.5V18H4.5ZM16 20C14.9861 20 14.1007 19.6667 13.3438 19C12.5868 18.3333 12.1458 17.5 12.0208 16.5H13.0417C13.2222 17.2917 13.5799 17.9062 14.1146 18.3438C14.6493 18.7812 15.2778 19 16 19C16.8286 19 17.5358 18.7067 18.1215 18.12C18.7072 17.5333 19 16.825 19 15.995C19 15.165 18.7072 14.4583 18.1215 13.875C17.5358 13.2917 16.8286 13 16 13C15.5694 13 15.1632 13.0903 14.7812 13.2708C14.3993 13.4514 14.0556 13.6944 13.75 14H15V15H12V12H13V13.3542C13.3889 12.9236 13.84 12.5903 14.3533 12.3542C14.8665 12.1181 15.4154 12 16 12C17.1067 12 18.05 12.3905 18.83 13.1715C19.61 13.9523 20 14.8967 20 16.0048C20 17.1127 19.61 18.0556 18.83 18.8333C18.05 19.6111 17.1067 20 16 20ZM4.5 7.5H15.5V5.5H4.5V7.5Z" fill="currentColor"/>
</svg>
