<svg width="712" height="104" viewBox="0 0 712 104" fill="none" xmlns="http://www.w3.org/2000/svg">
<rect x="0.5" y="0.5" width="711" height="103" rx="7.5" fill="white"/>
<rect x="0.5" y="0.5" width="711" height="103" rx="7.5" stroke="#CDCCCB"/>
<path d="M18.4837 58.108C18.3157 58.108 18.1837 58.06 18.0877 57.964C18.0037 57.868 17.9617 57.73 17.9617 57.55V45.778C17.9617 45.586 18.0037 45.442 18.0877 45.346C18.1717 45.25 18.2857 45.202 18.4297 45.202C18.5857 45.202 18.6997 45.226 18.7717 45.274C18.8437 45.322 18.9217 45.412 19.0057 45.544L27.2857 56.686H26.8717V45.742C26.8717 45.562 26.9137 45.43 26.9977 45.346C27.0937 45.25 27.2257 45.202 27.3937 45.202C27.5497 45.202 27.6697 45.25 27.7537 45.346C27.8497 45.43 27.8977 45.562 27.8977 45.742V57.55C27.8977 57.73 27.8557 57.868 27.7717 57.964C27.6997 58.06 27.5917 58.108 27.4477 58.108C27.3157 58.108 27.2077 58.078 27.1237 58.018C27.0397 57.97 26.9497 57.886 26.8537 57.766L18.5917 46.624H18.9877V57.55C18.9877 57.73 18.9397 57.868 18.8437 57.964C18.7597 58.06 18.6397 58.108 18.4837 58.108ZM33.0776 58.144C32.3816 58.144 31.7996 58.018 31.3316 57.766C30.8756 57.514 30.5336 57.136 30.3056 56.632C30.0776 56.128 29.9636 55.504 29.9636 54.76V49.72C29.9636 49.528 30.0116 49.384 30.1076 49.288C30.2036 49.192 30.3416 49.144 30.5216 49.144C30.6896 49.144 30.8216 49.192 30.9176 49.288C31.0136 49.384 31.0616 49.528 31.0616 49.72V54.706C31.0616 55.546 31.2356 56.176 31.5836 56.596C31.9316 57.004 32.4776 57.208 33.2216 57.208C34.0376 57.208 34.6976 56.938 35.2016 56.398C35.7056 55.846 35.9576 55.126 35.9576 54.238V49.72C35.9576 49.528 36.0056 49.384 36.1016 49.288C36.1976 49.192 36.3356 49.144 36.5156 49.144C36.6836 49.144 36.8156 49.192 36.9116 49.288C37.0076 49.384 37.0556 49.528 37.0556 49.72V57.55C37.0556 57.922 36.8816 58.108 36.5336 58.108C36.3656 58.108 36.2336 58.06 36.1376 57.964C36.0416 57.868 35.9936 57.73 35.9936 57.55V55.768L36.2096 55.894C35.9816 56.626 35.5856 57.184 35.0216 57.568C34.4576 57.952 33.8096 58.144 33.0776 58.144ZM39.5068 58.108C39.3268 58.108 39.1888 58.06 39.0928 57.964C38.9968 57.868 38.9488 57.73 38.9488 57.55V49.72C38.9488 49.528 38.9968 49.384 39.0928 49.288C39.1888 49.192 39.3268 49.144 39.5068 49.144C39.6748 49.144 39.8008 49.192 39.8848 49.288C39.9808 49.384 40.0288 49.528 40.0288 49.72V51.412L39.8308 51.304C40.0708 50.584 40.4788 50.038 41.0548 49.666C41.6428 49.294 42.3148 49.108 43.0708 49.108C43.7668 49.108 44.3428 49.234 44.7988 49.486C45.2668 49.726 45.6148 50.098 45.8428 50.602C46.0708 51.106 46.1848 51.736 46.1848 52.492V57.55C46.1848 57.73 46.1368 57.868 46.0408 57.964C45.9448 58.06 45.8128 58.108 45.6448 58.108C45.4648 58.108 45.3268 58.06 45.2308 57.964C45.1348 57.868 45.0868 57.73 45.0868 57.55V52.582C45.0868 51.706 44.9128 51.07 44.5648 50.674C44.2168 50.266 43.6648 50.062 42.9088 50.062C42.0448 50.062 41.3488 50.332 40.8208 50.872C40.3048 51.4 40.0468 52.114 40.0468 53.014V57.55C40.0468 57.922 39.8668 58.108 39.5068 58.108ZM48.5791 58.072C48.3991 58.072 48.2611 58.018 48.1651 57.91C48.0691 57.802 48.0211 57.658 48.0211 57.478V49.774C48.0211 49.582 48.0691 49.438 48.1651 49.342C48.2611 49.246 48.3991 49.198 48.5791 49.198C48.7471 49.198 48.8791 49.246 48.9751 49.342C49.0711 49.438 49.1191 49.582 49.1191 49.774V57.478C49.1191 57.658 49.0711 57.802 48.9751 57.91C48.8911 58.018 48.7591 58.072 48.5791 58.072ZM48.5791 47.02C48.3271 47.02 48.1291 46.954 47.9851 46.822C47.8531 46.69 47.7871 46.504 47.7871 46.264C47.7871 46.024 47.8531 45.844 47.9851 45.724C48.1291 45.592 48.3271 45.526 48.5791 45.526C48.8311 45.526 49.0231 45.592 49.1551 45.724C49.2991 45.844 49.3711 46.024 49.3711 46.264C49.3711 46.504 49.2991 46.69 49.1551 46.822C49.0231 46.954 48.8311 47.02 48.5791 47.02ZM54.3053 58.144C53.6573 58.144 53.1173 58.024 52.6853 57.784C52.2533 57.544 51.9293 57.202 51.7133 56.758C51.4973 56.302 51.3893 55.744 51.3893 55.084V50.152H50.0573C49.9013 50.152 49.7753 50.116 49.6793 50.044C49.5833 49.96 49.5353 49.846 49.5353 49.702C49.5353 49.57 49.5833 49.468 49.6793 49.396C49.7753 49.312 49.9013 49.27 50.0573 49.27H51.3893V47.02C51.3893 46.828 51.4373 46.69 51.5333 46.606C51.6293 46.51 51.7673 46.462 51.9473 46.462C52.1153 46.462 52.2473 46.51 52.3433 46.606C52.4393 46.69 52.4873 46.828 52.4873 47.02V49.27H54.9173C55.0853 49.27 55.2113 49.312 55.2953 49.396C55.3793 49.468 55.4213 49.57 55.4213 49.702C55.4213 49.846 55.3793 49.96 55.2953 50.044C55.2113 50.116 55.0853 50.152 54.9173 50.152H52.4873V54.94C52.4873 55.672 52.6373 56.23 52.9373 56.614C53.2373 56.998 53.7353 57.19 54.4313 57.19C54.6713 57.19 54.8693 57.166 55.0253 57.118C55.1933 57.058 55.3313 57.028 55.4393 57.028C55.5233 57.028 55.5953 57.064 55.6553 57.136C55.7273 57.208 55.7633 57.322 55.7633 57.478C55.7633 57.574 55.7393 57.67 55.6913 57.766C55.6553 57.862 55.5833 57.922 55.4753 57.946C55.3433 57.994 55.1633 58.036 54.9353 58.072C54.7073 58.12 54.4973 58.144 54.3053 58.144ZM59.4267 58.144C58.6107 58.144 57.9027 57.958 57.3027 57.586C56.7027 57.214 56.2347 56.692 55.8987 56.02C55.5747 55.348 55.4127 54.55 55.4127 53.626C55.4127 52.942 55.5027 52.324 55.6827 51.772C55.8747 51.22 56.1447 50.746 56.4927 50.35C56.8527 49.942 57.2787 49.636 57.7707 49.432C58.2747 49.216 58.8267 49.108 59.4267 49.108C60.2547 49.108 60.9687 49.294 61.5687 49.666C62.1687 50.038 62.6307 50.566 62.9547 51.25C63.2907 51.922 63.4587 52.714 63.4587 53.626C63.4587 54.322 63.3627 54.946 63.1707 55.498C62.9907 56.05 62.7207 56.524 62.3607 56.92C62.0127 57.316 61.5927 57.622 61.1007 57.838C60.6087 58.042 60.0507 58.144 59.4267 58.144ZM59.4267 57.226C60.0267 57.226 60.5427 57.088 60.9747 56.812C61.4187 56.524 61.7547 56.11 61.9827 55.57C62.2227 55.03 62.3427 54.382 62.3427 53.626C62.3427 52.486 62.0787 51.604 61.5507 50.98C61.0347 50.356 60.3267 50.044 59.4267 50.044C58.8387 50.044 58.3227 50.188 57.8787 50.476C57.4467 50.752 57.1107 51.16 56.8707 51.7C56.6427 52.228 56.5287 52.87 56.5287 53.626C56.5287 54.778 56.7927 55.666 57.3207 56.29C57.8487 56.914 58.5507 57.226 59.4267 57.226ZM69.1056 58C68.9376 58 68.7996 57.952 68.6916 57.856C68.5956 57.748 68.5476 57.604 68.5476 57.424V45.796C68.5476 45.604 68.5956 45.46 68.6916 45.364C68.7876 45.268 68.9196 45.22 69.0876 45.22C69.2676 45.22 69.4056 45.268 69.5016 45.364C69.5976 45.46 69.6456 45.604 69.6456 45.796V57.01H75.8376C76.0176 57.01 76.1496 57.052 76.2336 57.136C76.3296 57.22 76.3776 57.34 76.3776 57.496C76.3776 57.664 76.3296 57.79 76.2336 57.874C76.1496 57.958 76.0176 58 75.8376 58H69.1056ZM77.5224 58.072C77.3424 58.072 77.2044 58.018 77.1084 57.91C77.0124 57.802 76.9644 57.658 76.9644 57.478V49.774C76.9644 49.582 77.0124 49.438 77.1084 49.342C77.2044 49.246 77.3424 49.198 77.5224 49.198C77.6904 49.198 77.8224 49.246 77.9184 49.342C78.0144 49.438 78.0624 49.582 78.0624 49.774V57.478C78.0624 57.658 78.0144 57.802 77.9184 57.91C77.8344 58.018 77.7024 58.072 77.5224 58.072ZM77.5224 47.02C77.2704 47.02 77.0724 46.954 76.9284 46.822C76.7964 46.69 76.7304 46.504 76.7304 46.264C76.7304 46.024 76.7964 45.844 76.9284 45.724C77.0724 45.592 77.2704 45.526 77.5224 45.526C77.7744 45.526 77.9664 45.592 78.0984 45.724C78.2424 45.844 78.3144 46.024 78.3144 46.264C78.3144 46.504 78.2424 46.69 78.0984 46.822C77.9664 46.954 77.7744 47.02 77.5224 47.02ZM83.7526 61.384C83.1046 61.384 82.4746 61.3 81.8626 61.132C81.2626 60.976 80.7166 60.718 80.2246 60.358C80.1286 60.298 80.0626 60.22 80.0266 60.124C80.0026 60.028 80.0026 59.932 80.0266 59.836C80.0506 59.752 80.0926 59.674 80.1526 59.602C80.2246 59.53 80.3026 59.488 80.3866 59.476C80.4826 59.464 80.5786 59.482 80.6746 59.53C81.2026 59.878 81.7066 60.118 82.1866 60.25C82.6786 60.394 83.1886 60.466 83.7166 60.466C84.5926 60.466 85.2586 60.22 85.7146 59.728C86.1706 59.248 86.3986 58.558 86.3986 57.658V55.426H86.5786C86.3986 56.17 86.0146 56.752 85.4266 57.172C84.8386 57.592 84.1426 57.802 83.3386 57.802C82.5346 57.802 81.8386 57.622 81.2506 57.262C80.6626 56.89 80.2066 56.38 79.8826 55.732C79.5706 55.072 79.4146 54.31 79.4146 53.446C79.4146 52.798 79.5046 52.21 79.6846 51.682C79.8646 51.154 80.1226 50.698 80.4586 50.314C80.8066 49.93 81.2206 49.636 81.7006 49.432C82.1806 49.216 82.7266 49.108 83.3386 49.108C84.1426 49.108 84.8386 49.324 85.4266 49.756C86.0146 50.176 86.3926 50.746 86.5606 51.466L86.3806 51.574V49.72C86.3806 49.528 86.4286 49.384 86.5246 49.288C86.6206 49.192 86.7526 49.144 86.9206 49.144C87.1006 49.144 87.2326 49.192 87.3166 49.288C87.4126 49.384 87.4606 49.528 87.4606 49.72V57.496C87.4606 58.78 87.1486 59.746 86.5246 60.394C85.9006 61.054 84.9766 61.384 83.7526 61.384ZM83.4646 56.866C84.0646 56.866 84.5806 56.728 85.0126 56.452C85.4566 56.164 85.7986 55.768 86.0386 55.264C86.2786 54.748 86.3986 54.142 86.3986 53.446C86.3986 52.402 86.1346 51.574 85.6066 50.962C85.0786 50.35 84.3646 50.044 83.4646 50.044C82.8646 50.044 82.3426 50.182 81.8986 50.458C81.4546 50.734 81.1126 51.13 80.8726 51.646C80.6446 52.15 80.5306 52.75 80.5306 53.446C80.5306 54.49 80.7946 55.324 81.3226 55.948C81.8506 56.56 82.5646 56.866 83.4646 56.866ZM89.9189 58.108C89.7389 58.108 89.6009 58.06 89.5049 57.964C89.4089 57.868 89.3609 57.73 89.3609 57.55V45.76C89.3609 45.568 89.4089 45.43 89.5049 45.346C89.6009 45.25 89.7389 45.202 89.9189 45.202C90.0869 45.202 90.2189 45.25 90.3149 45.346C90.4109 45.43 90.4589 45.568 90.4589 45.76V51.304H90.2429C90.4829 50.584 90.8909 50.038 91.4669 49.666C92.0549 49.294 92.7269 49.108 93.4829 49.108C94.1789 49.108 94.7549 49.234 95.2109 49.486C95.6789 49.738 96.0269 50.116 96.2549 50.62C96.4829 51.124 96.5969 51.748 96.5969 52.492V57.55C96.5969 57.73 96.5489 57.868 96.4529 57.964C96.3569 58.06 96.2249 58.108 96.0569 58.108C95.8769 58.108 95.7389 58.06 95.6429 57.964C95.5469 57.868 95.4989 57.73 95.4989 57.55V52.582C95.4989 51.706 95.3249 51.07 94.9769 50.674C94.6289 50.266 94.0769 50.062 93.3209 50.062C92.4569 50.062 91.7609 50.332 91.2329 50.872C90.7169 51.4 90.4589 52.114 90.4589 53.014V57.55C90.4589 57.922 90.2789 58.108 89.9189 58.108ZM101.727 58.144C101.079 58.144 100.539 58.024 100.107 57.784C99.6752 57.544 99.3512 57.202 99.1352 56.758C98.9192 56.302 98.8112 55.744 98.8112 55.084V50.152H97.4792C97.3232 50.152 97.1972 50.116 97.1012 50.044C97.0052 49.96 96.9572 49.846 96.9572 49.702C96.9572 49.57 97.0052 49.468 97.1012 49.396C97.1972 49.312 97.3232 49.27 97.4792 49.27H98.8112V47.02C98.8112 46.828 98.8592 46.69 98.9552 46.606C99.0512 46.51 99.1892 46.462 99.3692 46.462C99.5372 46.462 99.6692 46.51 99.7652 46.606C99.8612 46.69 99.9092 46.828 99.9092 47.02V49.27H102.339C102.507 49.27 102.633 49.312 102.717 49.396C102.801 49.468 102.843 49.57 102.843 49.702C102.843 49.846 102.801 49.96 102.717 50.044C102.633 50.116 102.507 50.152 102.339 50.152H99.9092V54.94C99.9092 55.672 100.059 56.23 100.359 56.614C100.659 56.998 101.157 57.19 101.853 57.19C102.093 57.19 102.291 57.166 102.447 57.118C102.615 57.058 102.753 57.028 102.861 57.028C102.945 57.028 103.017 57.064 103.077 57.136C103.149 57.208 103.185 57.322 103.185 57.478C103.185 57.574 103.161 57.67 103.113 57.766C103.077 57.862 103.005 57.922 102.897 57.946C102.765 57.994 102.585 58.036 102.357 58.072C102.129 58.12 101.919 58.144 101.727 58.144ZM109.266 61.078C108.642 59.818 108.174 58.54 107.862 57.244C107.562 55.936 107.412 54.61 107.412 53.266C107.412 52.366 107.478 51.478 107.61 50.602C107.754 49.726 107.958 48.862 108.222 48.01C108.498 47.146 108.846 46.294 109.266 45.454C109.338 45.31 109.434 45.226 109.554 45.202C109.674 45.166 109.782 45.172 109.878 45.22C109.986 45.268 110.064 45.352 110.112 45.472C110.172 45.58 110.166 45.724 110.094 45.904C109.758 46.708 109.476 47.518 109.248 48.334C109.032 49.15 108.864 49.966 108.744 50.782C108.636 51.598 108.582 52.426 108.582 53.266C108.582 54.094 108.636 54.922 108.744 55.75C108.864 56.566 109.038 57.376 109.266 58.18C109.494 58.996 109.77 59.812 110.094 60.628C110.166 60.808 110.172 60.952 110.112 61.06C110.064 61.18 109.986 61.258 109.878 61.294C109.782 61.342 109.674 61.348 109.554 61.312C109.434 61.288 109.338 61.21 109.266 61.078ZM115.229 58.144C114.509 58.144 113.801 58.036 113.105 57.82C112.409 57.604 111.803 57.28 111.287 56.848C111.167 56.764 111.089 56.668 111.053 56.56C111.029 56.452 111.029 56.35 111.053 56.254C111.077 56.158 111.125 56.074 111.197 56.002C111.269 55.93 111.359 55.894 111.467 55.894C111.575 55.882 111.695 55.924 111.827 56.02C112.367 56.404 112.913 56.686 113.465 56.866C114.029 57.046 114.617 57.136 115.229 57.136C115.877 57.136 116.423 57.04 116.867 56.848C117.311 56.644 117.647 56.35 117.875 55.966C118.115 55.582 118.235 55.108 118.235 54.544C118.235 53.728 117.965 53.11 117.425 52.69C116.897 52.258 116.129 52.042 115.121 52.042H113.771C113.603 52.042 113.471 52 113.375 51.916C113.279 51.82 113.231 51.7 113.231 51.556C113.231 51.4 113.279 51.28 113.375 51.196C113.471 51.112 113.603 51.07 113.771 51.07H115.031C115.619 51.07 116.123 50.962 116.543 50.746C116.963 50.53 117.287 50.23 117.515 49.846C117.755 49.45 117.875 48.976 117.875 48.424C117.875 47.704 117.641 47.152 117.173 46.768C116.717 46.372 116.051 46.174 115.175 46.174C114.587 46.174 114.035 46.27 113.519 46.462C113.003 46.642 112.511 46.936 112.043 47.344C111.935 47.44 111.827 47.494 111.719 47.506C111.611 47.506 111.515 47.476 111.431 47.416C111.359 47.356 111.305 47.278 111.269 47.182C111.233 47.074 111.233 46.966 111.269 46.858C111.305 46.738 111.383 46.63 111.503 46.534C111.971 46.09 112.529 45.754 113.177 45.526C113.837 45.286 114.515 45.166 115.211 45.166C116.003 45.166 116.681 45.292 117.245 45.544C117.809 45.796 118.241 46.162 118.541 46.642C118.853 47.122 119.009 47.698 119.009 48.37C119.009 48.898 118.907 49.378 118.703 49.81C118.511 50.242 118.235 50.608 117.875 50.908C117.515 51.208 117.083 51.424 116.579 51.556V51.358C117.455 51.514 118.133 51.88 118.613 52.456C119.105 53.02 119.351 53.734 119.351 54.598C119.351 55.318 119.183 55.948 118.847 56.488C118.523 57.016 118.055 57.424 117.443 57.712C116.831 58 116.093 58.144 115.229 58.144ZM125.129 58.144C123.701 58.144 122.615 57.592 121.871 56.488C121.139 55.372 120.773 53.764 120.773 51.664C120.773 50.236 120.935 49.042 121.259 48.082C121.595 47.122 122.087 46.396 122.735 45.904C123.383 45.412 124.181 45.166 125.129 45.166C126.569 45.166 127.655 45.712 128.387 46.804C129.119 47.896 129.485 49.51 129.485 51.646C129.485 53.05 129.317 54.238 128.981 55.21C128.657 56.182 128.171 56.914 127.523 57.406C126.875 57.898 126.077 58.144 125.129 58.144ZM125.129 57.154C126.221 57.154 127.031 56.704 127.559 55.804C128.087 54.904 128.351 53.518 128.351 51.646C128.351 49.75 128.087 48.364 127.559 47.488C127.043 46.6 126.233 46.156 125.129 46.156C124.037 46.156 123.227 46.6 122.699 47.488C122.171 48.376 121.907 49.762 121.907 51.646C121.907 53.518 122.171 54.904 122.699 55.804C123.227 56.704 124.037 57.154 125.129 57.154ZM134.922 58.144C133.494 58.144 132.408 57.592 131.664 56.488C130.932 55.372 130.566 53.764 130.566 51.664C130.566 50.236 130.728 49.042 131.052 48.082C131.388 47.122 131.88 46.396 132.528 45.904C133.176 45.412 133.974 45.166 134.922 45.166C136.362 45.166 137.448 45.712 138.18 46.804C138.912 47.896 139.278 49.51 139.278 51.646C139.278 53.05 139.11 54.238 138.774 55.21C138.45 56.182 137.964 56.914 137.316 57.406C136.668 57.898 135.87 58.144 134.922 58.144ZM134.922 57.154C136.014 57.154 136.824 56.704 137.352 55.804C137.88 54.904 138.144 53.518 138.144 51.646C138.144 49.75 137.88 48.364 137.352 47.488C136.836 46.6 136.026 46.156 134.922 46.156C133.83 46.156 133.02 46.6 132.492 47.488C131.964 48.376 131.7 49.762 131.7 51.646C131.7 53.518 131.964 54.904 132.492 55.804C133.02 56.704 133.83 57.154 134.922 57.154ZM140.971 61.078C140.911 61.21 140.821 61.288 140.701 61.312C140.593 61.348 140.479 61.342 140.359 61.294C140.251 61.258 140.173 61.18 140.125 61.06C140.077 60.952 140.083 60.808 140.143 60.628C140.491 59.812 140.773 58.996 140.989 58.18C141.217 57.376 141.385 56.566 141.493 55.75C141.613 54.922 141.673 54.094 141.673 53.266C141.673 52.426 141.613 51.598 141.493 50.782C141.373 49.966 141.199 49.156 140.971 48.352C140.755 47.536 140.479 46.72 140.143 45.904C140.083 45.724 140.077 45.58 140.125 45.472C140.173 45.352 140.251 45.268 140.359 45.22C140.467 45.172 140.581 45.166 140.701 45.202C140.821 45.226 140.911 45.31 140.971 45.454C141.619 46.702 142.093 47.98 142.393 49.288C142.693 50.584 142.843 51.91 142.843 53.266C142.843 54.166 142.771 55.06 142.627 55.948C142.495 56.824 142.291 57.694 142.015 58.558C141.751 59.422 141.403 60.262 140.971 61.078Z" fill="#201F1F"/>
<path d="M179.847 58.126C179.619 58.126 179.445 58.066 179.325 57.946C179.205 57.814 179.145 57.628 179.145 57.388V45.94C179.145 45.7 179.205 45.514 179.325 45.382C179.445 45.25 179.601 45.184 179.793 45.184C179.985 45.184 180.123 45.22 180.207 45.292C180.303 45.352 180.411 45.466 180.531 45.634L188.379 56.092H187.947V45.904C187.947 45.676 188.007 45.502 188.127 45.382C188.247 45.25 188.421 45.184 188.649 45.184C188.865 45.184 189.027 45.25 189.135 45.382C189.255 45.502 189.315 45.676 189.315 45.904V57.406C189.315 57.634 189.261 57.814 189.153 57.946C189.057 58.066 188.913 58.126 188.721 58.126C188.541 58.126 188.397 58.09 188.289 58.018C188.181 57.946 188.067 57.832 187.947 57.676L180.117 47.218H180.531V57.388C180.531 57.628 180.471 57.814 180.351 57.946C180.231 58.066 180.063 58.126 179.847 58.126ZM194.368 58.162C193.66 58.162 193.072 58.036 192.604 57.784C192.148 57.52 191.8 57.13 191.56 56.614C191.332 56.098 191.218 55.456 191.218 54.688V49.864C191.218 49.612 191.278 49.426 191.398 49.306C191.53 49.186 191.71 49.126 191.938 49.126C192.178 49.126 192.358 49.186 192.478 49.306C192.61 49.426 192.676 49.612 192.676 49.864V54.67C192.676 55.438 192.832 56.014 193.144 56.398C193.468 56.77 193.972 56.956 194.656 56.956C195.4 56.956 196.006 56.704 196.474 56.2C196.942 55.696 197.176 55.036 197.176 54.22V49.864C197.176 49.612 197.236 49.426 197.356 49.306C197.488 49.186 197.674 49.126 197.914 49.126C198.142 49.126 198.316 49.186 198.436 49.306C198.568 49.426 198.634 49.612 198.634 49.864V57.37C198.634 57.874 198.4 58.126 197.932 58.126C197.704 58.126 197.524 58.06 197.392 57.928C197.272 57.796 197.212 57.61 197.212 57.37V55.732L197.446 55.984C197.206 56.692 196.81 57.232 196.258 57.604C195.718 57.976 195.088 58.162 194.368 58.162ZM201.081 58.126C200.841 58.126 200.661 58.06 200.541 57.928C200.421 57.796 200.361 57.61 200.361 57.37V49.864C200.361 49.624 200.421 49.444 200.541 49.324C200.661 49.192 200.835 49.126 201.063 49.126C201.291 49.126 201.465 49.192 201.585 49.324C201.717 49.444 201.783 49.624 201.783 49.864V51.412L201.585 51.196C201.837 50.5 202.245 49.978 202.809 49.63C203.385 49.27 204.045 49.09 204.789 49.09C205.485 49.09 206.061 49.216 206.517 49.468C206.985 49.72 207.333 50.104 207.561 50.62C207.789 51.124 207.903 51.766 207.903 52.546V57.37C207.903 57.61 207.837 57.796 207.705 57.928C207.585 58.06 207.411 58.126 207.183 58.126C206.943 58.126 206.757 58.06 206.625 57.928C206.505 57.796 206.445 57.61 206.445 57.37V52.636C206.445 51.82 206.283 51.226 205.959 50.854C205.647 50.47 205.143 50.278 204.447 50.278C203.643 50.278 203.001 50.53 202.521 51.034C202.053 51.526 201.819 52.186 201.819 53.014V57.37C201.819 57.874 201.573 58.126 201.081 58.126ZM210.312 58.09C210.072 58.09 209.892 58.024 209.772 57.892C209.652 57.748 209.592 57.55 209.592 57.298V49.936C209.592 49.684 209.652 49.492 209.772 49.36C209.892 49.228 210.072 49.162 210.312 49.162C210.54 49.162 210.72 49.228 210.852 49.36C210.984 49.492 211.05 49.684 211.05 49.936V57.298C211.05 57.55 210.984 57.748 210.852 57.892C210.732 58.024 210.552 58.09 210.312 58.09ZM210.312 47.146C210.012 47.146 209.778 47.068 209.61 46.912C209.442 46.744 209.358 46.522 209.358 46.246C209.358 45.958 209.442 45.742 209.61 45.598C209.778 45.442 210.012 45.364 210.312 45.364C210.624 45.364 210.858 45.442 211.014 45.598C211.182 45.742 211.266 45.958 211.266 46.246C211.266 46.522 211.182 46.744 211.014 46.912C210.858 47.068 210.624 47.146 210.312 47.146ZM216.285 58.162C215.601 58.162 215.025 58.042 214.557 57.802C214.101 57.55 213.759 57.19 213.531 56.722C213.303 56.242 213.189 55.66 213.189 54.976V50.386H211.983C211.779 50.386 211.623 50.338 211.515 50.242C211.407 50.134 211.353 49.99 211.353 49.81C211.353 49.63 211.407 49.492 211.515 49.396C211.623 49.3 211.779 49.252 211.983 49.252H213.189V47.182C213.189 46.942 213.255 46.762 213.387 46.642C213.519 46.51 213.699 46.444 213.927 46.444C214.155 46.444 214.329 46.51 214.449 46.642C214.581 46.762 214.647 46.942 214.647 47.182V49.252H216.915C217.119 49.252 217.275 49.3 217.383 49.396C217.491 49.492 217.545 49.63 217.545 49.81C217.545 49.99 217.491 50.134 217.383 50.242C217.275 50.338 217.119 50.386 216.915 50.386H214.647V54.832C214.647 55.516 214.791 56.038 215.079 56.398C215.367 56.746 215.835 56.92 216.483 56.92C216.711 56.92 216.903 56.896 217.059 56.848C217.227 56.8 217.365 56.776 217.473 56.776C217.581 56.764 217.671 56.8 217.743 56.884C217.815 56.968 217.851 57.112 217.851 57.316C217.851 57.46 217.821 57.592 217.761 57.712C217.713 57.832 217.623 57.916 217.491 57.964C217.347 58.012 217.155 58.054 216.915 58.09C216.687 58.138 216.477 58.162 216.285 58.162ZM221.617 58.162C220.765 58.162 220.027 57.976 219.403 57.604C218.779 57.232 218.293 56.71 217.945 56.038C217.609 55.354 217.441 54.55 217.441 53.626C217.441 52.93 217.537 52.306 217.729 51.754C217.921 51.19 218.203 50.71 218.575 50.314C218.947 49.918 219.385 49.618 219.889 49.414C220.405 49.198 220.981 49.09 221.617 49.09C222.469 49.09 223.207 49.276 223.831 49.648C224.455 50.02 224.935 50.548 225.271 51.232C225.619 51.904 225.793 52.702 225.793 53.626C225.793 54.322 225.697 54.946 225.505 55.498C225.313 56.05 225.031 56.53 224.659 56.938C224.287 57.334 223.843 57.64 223.327 57.856C222.823 58.06 222.253 58.162 221.617 58.162ZM221.617 56.992C222.157 56.992 222.631 56.86 223.039 56.596C223.447 56.332 223.759 55.948 223.975 55.444C224.203 54.94 224.317 54.334 224.317 53.626C224.317 52.534 224.071 51.7 223.579 51.124C223.099 50.548 222.445 50.26 221.617 50.26C221.065 50.26 220.585 50.392 220.177 50.656C219.781 50.908 219.469 51.286 219.241 51.79C219.025 52.282 218.917 52.894 218.917 53.626C218.917 54.706 219.163 55.54 219.655 56.128C220.147 56.704 220.801 56.992 221.617 56.992ZM231.559 58.126C231.319 58.126 231.133 58.06 231.001 57.928C230.881 57.784 230.821 57.592 230.821 57.352V46.066C230.821 45.814 230.887 45.628 231.019 45.508C231.151 45.376 231.337 45.31 231.577 45.31H235.843C237.199 45.31 238.243 45.628 238.975 46.264C239.707 46.9 240.073 47.806 240.073 48.982C240.073 49.726 239.905 50.374 239.569 50.926C239.245 51.466 238.765 51.88 238.129 52.168C237.493 52.444 236.731 52.582 235.843 52.582L236.023 52.348H236.383C236.851 52.348 237.259 52.468 237.607 52.708C237.955 52.948 238.273 53.332 238.561 53.86L240.289 57.082C240.385 57.25 240.427 57.418 240.415 57.586C240.415 57.742 240.361 57.874 240.253 57.982C240.145 58.078 239.989 58.126 239.785 58.126C239.581 58.126 239.413 58.078 239.281 57.982C239.149 57.886 239.035 57.748 238.939 57.568L236.977 53.932C236.701 53.416 236.383 53.074 236.023 52.906C235.663 52.726 235.189 52.636 234.601 52.636H232.297V57.352C232.297 57.592 232.237 57.784 232.117 57.928C231.997 58.06 231.811 58.126 231.559 58.126ZM232.297 51.466H235.627C236.611 51.466 237.355 51.262 237.859 50.854C238.363 50.434 238.615 49.81 238.615 48.982C238.615 48.178 238.363 47.572 237.859 47.164C237.355 46.744 236.611 46.534 235.627 46.534H232.297V51.466ZM245.413 58.162C244.489 58.162 243.691 57.982 243.019 57.622C242.359 57.25 241.843 56.728 241.471 56.056C241.111 55.384 240.931 54.58 240.931 53.644C240.931 52.732 241.111 51.94 241.471 51.268C241.831 50.584 242.323 50.05 242.947 49.666C243.583 49.282 244.315 49.09 245.143 49.09C245.731 49.09 246.259 49.192 246.727 49.396C247.195 49.588 247.591 49.87 247.915 50.242C248.251 50.614 248.503 51.064 248.671 51.592C248.851 52.12 248.941 52.714 248.941 53.374C248.941 53.566 248.887 53.71 248.779 53.806C248.671 53.89 248.515 53.932 248.311 53.932H242.047V52.978H247.969L247.681 53.212C247.681 52.564 247.585 52.018 247.393 51.574C247.201 51.118 246.919 50.77 246.547 50.53C246.187 50.29 245.731 50.17 245.179 50.17C244.567 50.17 244.045 50.314 243.613 50.602C243.193 50.878 242.875 51.268 242.659 51.772C242.443 52.264 242.335 52.84 242.335 53.5V53.608C242.335 54.712 242.599 55.552 243.127 56.128C243.667 56.704 244.429 56.992 245.413 56.992C245.821 56.992 246.223 56.938 246.619 56.83C247.027 56.722 247.423 56.542 247.807 56.29C247.975 56.182 248.125 56.134 248.257 56.146C248.401 56.146 248.515 56.188 248.599 56.272C248.683 56.344 248.737 56.44 248.761 56.56C248.797 56.668 248.785 56.788 248.725 56.92C248.677 57.052 248.575 57.166 248.419 57.262C248.023 57.55 247.555 57.772 247.015 57.928C246.475 58.084 245.941 58.162 245.413 58.162ZM253.921 61.402C253.285 61.402 252.661 61.324 252.049 61.168C251.449 61.024 250.903 60.79 250.411 60.466C250.267 60.382 250.171 60.28 250.123 60.16C250.087 60.04 250.081 59.92 250.105 59.8C250.129 59.692 250.183 59.59 250.267 59.494C250.351 59.41 250.447 59.356 250.555 59.332C250.675 59.308 250.795 59.326 250.915 59.386C251.443 59.71 251.947 59.932 252.427 60.052C252.907 60.172 253.381 60.232 253.849 60.232C254.701 60.232 255.343 60.004 255.775 59.548C256.219 59.092 256.441 58.432 256.441 57.568V55.534H256.621C256.441 56.23 256.057 56.782 255.469 57.19C254.893 57.598 254.215 57.802 253.435 57.802C252.631 57.802 251.935 57.622 251.347 57.262C250.759 56.89 250.303 56.374 249.979 55.714C249.667 55.054 249.511 54.292 249.511 53.428C249.511 52.78 249.601 52.192 249.781 51.664C249.961 51.124 250.219 50.668 250.555 50.296C250.903 49.912 251.317 49.618 251.797 49.414C252.289 49.198 252.835 49.09 253.435 49.09C254.227 49.09 254.911 49.294 255.487 49.702C256.063 50.098 256.435 50.638 256.603 51.322L256.423 51.538V49.864C256.423 49.624 256.483 49.444 256.603 49.324C256.735 49.192 256.915 49.126 257.143 49.126C257.383 49.126 257.563 49.192 257.683 49.324C257.803 49.444 257.863 49.624 257.863 49.864V57.37C257.863 58.702 257.527 59.704 256.855 60.376C256.195 61.06 255.217 61.402 253.921 61.402ZM253.705 56.614C254.269 56.614 254.755 56.488 255.163 56.236C255.571 55.972 255.883 55.6 256.099 55.12C256.327 54.64 256.441 54.076 256.441 53.428C256.441 52.456 256.195 51.688 255.703 51.124C255.211 50.548 254.545 50.26 253.705 50.26C253.153 50.26 252.673 50.392 252.265 50.656C251.857 50.908 251.539 51.274 251.311 51.754C251.095 52.222 250.987 52.78 250.987 53.428C250.987 54.4 251.233 55.174 251.725 55.75C252.217 56.326 252.877 56.614 253.705 56.614ZM262.694 58.162C261.986 58.162 261.398 58.036 260.93 57.784C260.474 57.52 260.126 57.13 259.886 56.614C259.658 56.098 259.544 55.456 259.544 54.688V49.864C259.544 49.612 259.604 49.426 259.724 49.306C259.856 49.186 260.036 49.126 260.264 49.126C260.504 49.126 260.684 49.186 260.804 49.306C260.936 49.426 261.002 49.612 261.002 49.864V54.67C261.002 55.438 261.158 56.014 261.47 56.398C261.794 56.77 262.298 56.956 262.982 56.956C263.726 56.956 264.332 56.704 264.8 56.2C265.268 55.696 265.502 55.036 265.502 54.22V49.864C265.502 49.612 265.562 49.426 265.682 49.306C265.814 49.186 266 49.126 266.24 49.126C266.468 49.126 266.642 49.186 266.762 49.306C266.894 49.426 266.96 49.612 266.96 49.864V57.37C266.96 57.874 266.726 58.126 266.258 58.126C266.03 58.126 265.85 58.06 265.718 57.928C265.598 57.796 265.538 57.61 265.538 57.37V55.732L265.772 55.984C265.532 56.692 265.136 57.232 264.584 57.604C264.044 57.976 263.414 58.162 262.694 58.162ZM271.352 58.162C270.488 58.162 269.828 57.898 269.372 57.37C268.916 56.842 268.688 56.086 268.688 55.102V45.922C268.688 45.682 268.748 45.502 268.868 45.382C268.988 45.25 269.168 45.184 269.408 45.184C269.636 45.184 269.816 45.25 269.948 45.382C270.08 45.502 270.146 45.682 270.146 45.922V54.994C270.146 55.642 270.272 56.128 270.524 56.452C270.788 56.764 271.172 56.92 271.676 56.92C271.784 56.92 271.88 56.914 271.964 56.902C272.048 56.89 272.132 56.884 272.216 56.884C272.348 56.872 272.438 56.902 272.486 56.974C272.546 57.046 272.576 57.19 272.576 57.406C272.576 57.622 272.528 57.784 272.432 57.892C272.336 58 272.18 58.072 271.964 58.108C271.868 58.12 271.766 58.132 271.658 58.144C271.55 58.156 271.448 58.162 271.352 58.162ZM275.768 58.162C275.168 58.162 274.628 58.048 274.148 57.82C273.68 57.58 273.308 57.256 273.032 56.848C272.756 56.44 272.618 55.984 272.618 55.48C272.618 54.832 272.78 54.322 273.104 53.95C273.44 53.578 273.986 53.314 274.742 53.158C275.51 53.002 276.554 52.924 277.874 52.924H278.684V53.878H277.892C276.92 53.878 276.152 53.926 275.588 54.022C275.036 54.106 274.646 54.256 274.418 54.472C274.202 54.688 274.094 54.994 274.094 55.39C274.094 55.882 274.262 56.284 274.598 56.596C274.946 56.908 275.414 57.064 276.002 57.064C276.482 57.064 276.902 56.95 277.262 56.722C277.634 56.494 277.922 56.182 278.126 55.786C278.342 55.39 278.45 54.934 278.45 54.418V52.366C278.45 51.622 278.3 51.088 278 50.764C277.7 50.428 277.208 50.26 276.524 50.26C276.104 50.26 275.684 50.314 275.264 50.422C274.844 50.53 274.4 50.704 273.932 50.944C273.764 51.028 273.62 51.058 273.5 51.034C273.38 50.998 273.284 50.932 273.212 50.836C273.14 50.74 273.098 50.632 273.086 50.512C273.074 50.38 273.098 50.254 273.158 50.134C273.23 50.014 273.338 49.918 273.482 49.846C274.01 49.582 274.532 49.39 275.048 49.27C275.564 49.15 276.056 49.09 276.524 49.09C277.28 49.09 277.904 49.216 278.396 49.468C278.888 49.708 279.254 50.08 279.494 50.584C279.734 51.076 279.854 51.712 279.854 52.492V57.37C279.854 57.61 279.794 57.796 279.674 57.928C279.566 58.06 279.404 58.126 279.188 58.126C278.96 58.126 278.786 58.06 278.666 57.928C278.546 57.796 278.486 57.61 278.486 57.37V55.966H278.648C278.552 56.422 278.366 56.812 278.09 57.136C277.826 57.46 277.496 57.712 277.1 57.892C276.704 58.072 276.26 58.162 275.768 58.162ZM282.297 58.126C282.057 58.126 281.871 58.06 281.739 57.928C281.619 57.796 281.559 57.61 281.559 57.37V49.864C281.559 49.624 281.619 49.444 281.739 49.324C281.859 49.192 282.033 49.126 282.261 49.126C282.489 49.126 282.663 49.192 282.783 49.324C282.915 49.444 282.981 49.624 282.981 49.864V51.322H282.801C282.993 50.614 283.359 50.068 283.899 49.684C284.439 49.3 285.105 49.096 285.897 49.072C286.077 49.06 286.221 49.102 286.329 49.198C286.437 49.282 286.497 49.432 286.509 49.648C286.521 49.852 286.473 50.014 286.365 50.134C286.257 50.254 286.089 50.326 285.861 50.35L285.573 50.386C284.757 50.458 284.127 50.722 283.683 51.178C283.251 51.622 283.035 52.234 283.035 53.014V57.37C283.035 57.61 282.969 57.796 282.837 57.928C282.717 58.06 282.537 58.126 282.297 58.126ZM293.062 61.042C292.39 59.806 291.898 58.54 291.586 57.244C291.274 55.936 291.118 54.61 291.118 53.266C291.118 52.366 291.184 51.478 291.316 50.602C291.46 49.726 291.676 48.862 291.964 48.01C292.252 47.158 292.618 46.318 293.062 45.49C293.146 45.334 293.26 45.238 293.404 45.202C293.56 45.166 293.704 45.178 293.836 45.238C293.98 45.286 294.082 45.388 294.142 45.544C294.202 45.688 294.19 45.874 294.106 46.102C293.794 46.894 293.53 47.686 293.314 48.478C293.098 49.27 292.936 50.062 292.828 50.854C292.72 51.646 292.666 52.45 292.666 53.266C292.666 54.082 292.72 54.886 292.828 55.678C292.948 56.47 293.116 57.256 293.332 58.036C293.548 58.828 293.806 59.626 294.106 60.43C294.202 60.658 294.214 60.844 294.142 60.988C294.082 61.144 293.98 61.246 293.836 61.294C293.704 61.354 293.56 61.366 293.404 61.33C293.26 61.294 293.146 61.198 293.062 61.042ZM301.519 58.126C301.291 58.126 301.111 58.06 300.979 57.928C300.847 57.796 300.781 57.61 300.781 57.37V55.282H295.615C295.375 55.282 295.183 55.228 295.039 55.12C294.907 55 294.841 54.832 294.841 54.616C294.841 54.484 294.871 54.352 294.931 54.22C294.991 54.076 295.099 53.896 295.255 53.68L300.745 45.688C300.853 45.52 300.973 45.394 301.105 45.31C301.237 45.226 301.393 45.184 301.573 45.184C301.765 45.184 301.927 45.244 302.059 45.364C302.203 45.484 302.275 45.676 302.275 45.94V54.022H303.589C303.817 54.022 303.991 54.076 304.111 54.184C304.231 54.292 304.291 54.448 304.291 54.652C304.291 54.856 304.231 55.012 304.111 55.12C303.991 55.228 303.817 55.282 303.589 55.282H302.275V57.37C302.275 57.61 302.209 57.796 302.077 57.928C301.945 58.06 301.759 58.126 301.519 58.126ZM300.781 54.022V47.038H301.213L296.173 54.418V54.022H300.781ZM309.188 58.162C307.736 58.162 306.632 57.604 305.876 56.488C305.12 55.372 304.742 53.758 304.742 51.646C304.742 50.23 304.91 49.042 305.246 48.082C305.582 47.11 306.08 46.378 306.74 45.886C307.412 45.394 308.228 45.148 309.188 45.148C310.652 45.148 311.756 45.7 312.5 46.804C313.256 47.896 313.634 49.504 313.634 51.628C313.634 53.044 313.466 54.238 313.13 55.21C312.794 56.182 312.296 56.92 311.636 57.424C310.976 57.916 310.16 58.162 309.188 58.162ZM309.188 56.884C310.196 56.884 310.94 56.458 311.42 55.606C311.912 54.742 312.158 53.416 312.158 51.628C312.158 49.828 311.912 48.514 311.42 47.686C310.94 46.846 310.196 46.426 309.188 46.426C308.192 46.426 307.448 46.846 306.956 47.686C306.464 48.526 306.218 49.84 306.218 51.628C306.218 53.416 306.464 54.742 306.956 55.606C307.448 56.458 308.192 56.884 309.188 56.884ZM318.981 58.162C317.529 58.162 316.425 57.604 315.669 56.488C314.913 55.372 314.535 53.758 314.535 51.646C314.535 50.23 314.703 49.042 315.039 48.082C315.375 47.11 315.873 46.378 316.533 45.886C317.205 45.394 318.021 45.148 318.981 45.148C320.445 45.148 321.549 45.7 322.293 46.804C323.049 47.896 323.427 49.504 323.427 51.628C323.427 53.044 323.259 54.238 322.923 55.21C322.587 56.182 322.089 56.92 321.429 57.424C320.769 57.916 319.953 58.162 318.981 58.162ZM318.981 56.884C319.989 56.884 320.733 56.458 321.213 55.606C321.705 54.742 321.951 53.416 321.951 51.628C321.951 49.828 321.705 48.514 321.213 47.686C320.733 46.846 319.989 46.426 318.981 46.426C317.985 46.426 317.241 46.846 316.749 47.686C316.257 48.526 316.011 49.84 316.011 51.628C316.011 53.416 316.257 54.742 316.749 55.606C317.241 56.458 317.985 56.884 318.981 56.884ZM325.318 61.042C325.222 61.198 325.102 61.294 324.958 61.33C324.814 61.366 324.67 61.354 324.526 61.294C324.382 61.234 324.28 61.132 324.22 60.988C324.16 60.844 324.172 60.658 324.256 60.43C324.58 59.626 324.844 58.828 325.048 58.036C325.264 57.256 325.426 56.47 325.534 55.678C325.642 54.886 325.696 54.082 325.696 53.266C325.696 52.45 325.636 51.646 325.516 50.854C325.408 50.062 325.246 49.276 325.03 48.496C324.826 47.704 324.568 46.906 324.256 46.102C324.172 45.874 324.16 45.688 324.22 45.544C324.292 45.388 324.394 45.286 324.526 45.238C324.658 45.178 324.796 45.166 324.94 45.202C325.096 45.238 325.222 45.334 325.318 45.49C325.978 46.714 326.464 47.98 326.776 49.288C327.088 50.596 327.244 51.922 327.244 53.266C327.244 54.166 327.172 55.06 327.028 55.948C326.896 56.824 326.686 57.688 326.398 58.54C326.122 59.392 325.762 60.226 325.318 61.042Z" fill="#201F1F"/>
<path d="M364.176 58.126C363.9 58.126 363.684 58.048 363.528 57.892C363.372 57.736 363.294 57.514 363.294 57.226V46.12C363.294 45.82 363.366 45.592 363.51 45.436C363.666 45.268 363.87 45.184 364.122 45.184C364.338 45.184 364.5 45.226 364.608 45.31C364.728 45.382 364.866 45.52 365.022 45.724L372.438 55.498H371.988V46.066C371.988 45.79 372.06 45.574 372.204 45.418C372.36 45.262 372.576 45.184 372.852 45.184C373.14 45.184 373.356 45.262 373.5 45.418C373.644 45.574 373.716 45.79 373.716 46.066V57.244C373.716 57.52 373.644 57.736 373.5 57.892C373.368 58.048 373.188 58.126 372.96 58.126C372.744 58.126 372.564 58.084 372.42 58C372.288 57.916 372.144 57.772 371.988 57.568L364.608 47.812H365.022V57.226C365.022 57.514 364.95 57.736 364.806 57.892C364.662 58.048 364.452 58.126 364.176 58.126ZM378.605 58.162C377.897 58.162 377.303 58.03 376.823 57.766C376.355 57.502 376.001 57.112 375.761 56.596C375.533 56.068 375.419 55.408 375.419 54.616V50.008C375.419 49.696 375.497 49.468 375.653 49.324C375.809 49.168 376.031 49.09 376.319 49.09C376.607 49.09 376.829 49.168 376.985 49.324C377.153 49.468 377.237 49.696 377.237 50.008V54.634C377.237 55.342 377.381 55.864 377.669 56.2C377.957 56.536 378.413 56.704 379.037 56.704C379.721 56.704 380.273 56.476 380.693 56.02C381.125 55.552 381.341 54.94 381.341 54.184V50.008C381.341 49.696 381.419 49.468 381.575 49.324C381.731 49.168 381.959 49.09 382.259 49.09C382.547 49.09 382.769 49.168 382.925 49.324C383.081 49.468 383.159 49.696 383.159 50.008V57.208C383.159 57.82 382.865 58.126 382.277 58.126C382.001 58.126 381.785 58.048 381.629 57.892C381.473 57.724 381.395 57.496 381.395 57.208V55.678L381.629 56.074C381.389 56.746 381.005 57.262 380.477 57.622C379.949 57.982 379.325 58.162 378.605 58.162ZM385.621 58.126C385.333 58.126 385.111 58.048 384.955 57.892C384.799 57.724 384.721 57.496 384.721 57.208V50.008C384.721 49.708 384.799 49.48 384.955 49.324C385.111 49.168 385.327 49.09 385.603 49.09C385.891 49.09 386.107 49.168 386.251 49.324C386.407 49.48 386.485 49.708 386.485 50.008V51.412L386.287 51.088C386.551 50.416 386.965 49.912 387.529 49.576C388.093 49.228 388.741 49.054 389.473 49.054C390.169 49.054 390.745 49.186 391.201 49.45C391.669 49.702 392.017 50.092 392.245 50.62C392.473 51.136 392.587 51.79 392.587 52.582V57.208C392.587 57.496 392.509 57.724 392.353 57.892C392.197 58.048 391.975 58.126 391.687 58.126C391.387 58.126 391.159 58.048 391.003 57.892C390.847 57.724 390.769 57.496 390.769 57.208V52.69C390.769 51.934 390.619 51.382 390.319 51.034C390.031 50.686 389.575 50.512 388.951 50.512C388.219 50.512 387.631 50.74 387.187 51.196C386.755 51.652 386.539 52.264 386.539 53.032V57.208C386.539 57.82 386.233 58.126 385.621 58.126ZM394.992 58.108C394.704 58.108 394.482 58.024 394.326 57.856C394.17 57.676 394.092 57.43 394.092 57.118V50.098C394.092 49.786 394.17 49.546 394.326 49.378C394.482 49.21 394.704 49.126 394.992 49.126C395.28 49.126 395.502 49.21 395.658 49.378C395.826 49.546 395.91 49.786 395.91 50.098V57.118C395.91 57.43 395.832 57.676 395.676 57.856C395.52 58.024 395.292 58.108 394.992 58.108ZM394.992 47.254C394.632 47.254 394.35 47.164 394.146 46.984C393.954 46.804 393.858 46.552 393.858 46.228C393.858 45.892 393.954 45.64 394.146 45.472C394.35 45.292 394.632 45.202 394.992 45.202C395.352 45.202 395.628 45.292 395.82 45.472C396.024 45.64 396.126 45.892 396.126 46.228C396.126 46.552 396.024 46.804 395.82 46.984C395.628 47.164 395.352 47.254 394.992 47.254ZM401.213 58.162C400.493 58.162 399.887 58.036 399.395 57.784C398.903 57.532 398.537 57.16 398.297 56.668C398.057 56.176 397.937 55.576 397.937 54.868V50.62H396.857C396.617 50.62 396.431 50.56 396.299 50.44C396.167 50.308 396.101 50.134 396.101 49.918C396.101 49.69 396.167 49.516 396.299 49.396C396.431 49.276 396.617 49.216 396.857 49.216H397.937V47.362C397.937 47.062 398.015 46.834 398.171 46.678C398.339 46.522 398.567 46.444 398.855 46.444C399.143 46.444 399.365 46.522 399.521 46.678C399.677 46.834 399.755 47.062 399.755 47.362V49.216H401.861C402.101 49.216 402.287 49.276 402.419 49.396C402.551 49.516 402.617 49.69 402.617 49.918C402.617 50.134 402.551 50.308 402.419 50.44C402.287 50.56 402.101 50.62 401.861 50.62H399.755V54.724C399.755 55.36 399.887 55.84 400.151 56.164C400.427 56.488 400.871 56.65 401.483 56.65C401.699 56.65 401.885 56.632 402.041 56.596C402.209 56.548 402.347 56.518 402.455 56.506C402.587 56.506 402.695 56.554 402.779 56.65C402.863 56.734 402.905 56.902 402.905 57.154C402.905 57.334 402.869 57.502 402.797 57.658C402.737 57.814 402.623 57.916 402.455 57.964C402.311 58.012 402.113 58.054 401.861 58.09C401.621 58.138 401.405 58.162 401.213 58.162ZM406.771 58.162C405.883 58.162 405.115 57.976 404.467 57.604C403.831 57.232 403.333 56.704 402.973 56.02C402.613 55.336 402.433 54.532 402.433 53.608C402.433 52.9 402.535 52.27 402.739 51.718C402.943 51.166 403.231 50.692 403.603 50.296C403.987 49.888 404.443 49.582 404.971 49.378C405.511 49.162 406.111 49.054 406.771 49.054C407.647 49.054 408.403 49.24 409.039 49.612C409.687 49.984 410.191 50.512 410.551 51.196C410.911 51.868 411.091 52.672 411.091 53.608C411.091 54.304 410.989 54.934 410.785 55.498C410.581 56.062 410.287 56.542 409.903 56.938C409.531 57.334 409.075 57.64 408.535 57.856C408.007 58.06 407.419 58.162 406.771 58.162ZM406.771 56.758C407.263 56.758 407.695 56.638 408.067 56.398C408.439 56.158 408.727 55.804 408.931 55.336C409.147 54.868 409.255 54.292 409.255 53.608C409.255 52.576 409.027 51.796 408.571 51.268C408.115 50.74 407.515 50.476 406.771 50.476C406.267 50.476 405.829 50.596 405.457 50.836C405.085 51.064 404.791 51.412 404.575 51.88C404.371 52.348 404.269 52.924 404.269 53.608C404.269 54.628 404.497 55.408 404.953 55.948C405.409 56.488 406.015 56.758 406.771 56.758ZM420.307 58.162C419.755 58.162 419.215 58.12 418.687 58.036C418.159 57.952 417.661 57.826 417.193 57.658C416.725 57.478 416.305 57.262 415.933 57.01C415.753 56.878 415.627 56.728 415.555 56.56C415.495 56.392 415.477 56.23 415.501 56.074C415.537 55.906 415.609 55.762 415.717 55.642C415.825 55.522 415.957 55.45 416.113 55.426C416.269 55.39 416.443 55.438 416.635 55.57C417.175 55.918 417.745 56.176 418.345 56.344C418.945 56.5 419.599 56.578 420.307 56.578C421.327 56.578 422.077 56.398 422.557 56.038C423.049 55.666 423.295 55.186 423.295 54.598C423.295 54.118 423.121 53.74 422.773 53.464C422.425 53.176 421.843 52.948 421.027 52.78L419.101 52.384C417.961 52.144 417.109 51.748 416.545 51.196C415.993 50.644 415.717 49.9 415.717 48.964C415.717 48.4 415.831 47.884 416.059 47.416C416.299 46.948 416.629 46.546 417.049 46.21C417.469 45.862 417.973 45.598 418.561 45.418C419.149 45.238 419.791 45.148 420.487 45.148C421.231 45.148 421.927 45.244 422.575 45.436C423.235 45.628 423.823 45.922 424.339 46.318C424.495 46.426 424.597 46.564 424.645 46.732C424.705 46.888 424.717 47.044 424.681 47.2C424.657 47.356 424.591 47.488 424.483 47.596C424.375 47.704 424.237 47.77 424.069 47.794C423.901 47.806 423.715 47.746 423.511 47.614C423.043 47.302 422.563 47.08 422.071 46.948C421.591 46.804 421.057 46.732 420.469 46.732C419.881 46.732 419.365 46.822 418.921 47.002C418.489 47.182 418.153 47.434 417.913 47.758C417.685 48.082 417.571 48.466 417.571 48.91C417.571 49.414 417.733 49.816 418.057 50.116C418.381 50.416 418.921 50.644 419.677 50.8L421.585 51.196C422.785 51.448 423.679 51.838 424.267 52.366C424.855 52.894 425.149 53.596 425.149 54.472C425.149 55.036 425.035 55.546 424.807 56.002C424.579 56.446 424.255 56.83 423.835 57.154C423.415 57.478 422.905 57.73 422.305 57.91C421.717 58.078 421.051 58.162 420.307 58.162ZM430.199 58.162C429.239 58.162 428.411 57.982 427.715 57.622C427.031 57.25 426.497 56.728 426.113 56.056C425.741 55.372 425.555 54.562 425.555 53.626C425.555 52.714 425.741 51.916 426.113 51.232C426.485 50.548 426.995 50.014 427.643 49.63C428.291 49.246 429.029 49.054 429.857 49.054C430.469 49.054 431.015 49.156 431.495 49.36C431.975 49.552 432.383 49.84 432.719 50.224C433.067 50.596 433.325 51.052 433.493 51.592C433.673 52.132 433.763 52.738 433.763 53.41C433.763 53.614 433.703 53.77 433.583 53.878C433.463 53.974 433.283 54.022 433.043 54.022H426.995V52.906H432.539L432.233 53.158C432.233 52.558 432.143 52.048 431.963 51.628C431.795 51.208 431.537 50.89 431.189 50.674C430.853 50.446 430.433 50.332 429.929 50.332C429.365 50.332 428.885 50.464 428.489 50.728C428.105 50.992 427.811 51.358 427.607 51.826C427.403 52.294 427.301 52.84 427.301 53.464V53.572C427.301 54.628 427.547 55.426 428.039 55.966C428.543 56.494 429.269 56.758 430.217 56.758C430.577 56.758 430.955 56.71 431.351 56.614C431.759 56.518 432.143 56.356 432.503 56.128C432.707 56.008 432.887 55.954 433.043 55.966C433.211 55.978 433.343 56.032 433.439 56.128C433.547 56.224 433.613 56.344 433.637 56.488C433.661 56.632 433.637 56.782 433.565 56.938C433.493 57.082 433.367 57.214 433.187 57.334C432.779 57.61 432.305 57.82 431.765 57.964C431.225 58.096 430.703 58.162 430.199 58.162ZM435.681 58.126C435.393 58.126 435.171 58.048 435.015 57.892C434.859 57.724 434.781 57.496 434.781 57.208V50.008C434.781 49.708 434.859 49.48 435.015 49.324C435.171 49.168 435.387 49.09 435.663 49.09C435.951 49.09 436.167 49.168 436.311 49.324C436.467 49.48 436.545 49.708 436.545 50.008V51.484L436.347 51.088C436.587 50.452 436.959 49.954 437.463 49.594C437.967 49.234 438.573 49.054 439.281 49.054C440.013 49.054 440.607 49.228 441.063 49.576C441.519 49.924 441.831 50.458 441.999 51.178H441.747C441.975 50.518 442.365 50.002 442.917 49.63C443.469 49.246 444.111 49.054 444.843 49.054C445.515 49.054 446.067 49.186 446.499 49.45C446.931 49.702 447.255 50.092 447.471 50.62C447.687 51.136 447.795 51.79 447.795 52.582V57.208C447.795 57.496 447.711 57.724 447.543 57.892C447.387 58.048 447.165 58.126 446.877 58.126C446.589 58.126 446.367 58.048 446.211 57.892C446.055 57.724 445.977 57.496 445.977 57.208V52.672C445.977 51.928 445.845 51.382 445.581 51.034C445.329 50.686 444.909 50.512 444.321 50.512C443.661 50.512 443.139 50.74 442.755 51.196C442.371 51.652 442.179 52.282 442.179 53.086V57.208C442.179 57.496 442.101 57.724 441.945 57.892C441.789 58.048 441.567 58.126 441.279 58.126C440.991 58.126 440.763 58.048 440.595 57.892C440.439 57.724 440.361 57.496 440.361 57.208V52.672C440.361 51.928 440.235 51.382 439.983 51.034C439.731 50.686 439.311 50.512 438.723 50.512C438.063 50.512 437.541 50.74 437.157 51.196C436.785 51.652 436.599 52.282 436.599 53.086V57.208C436.599 57.82 436.293 58.126 435.681 58.126ZM450.236 58.108C449.948 58.108 449.726 58.024 449.57 57.856C449.414 57.676 449.336 57.43 449.336 57.118V50.098C449.336 49.786 449.414 49.546 449.57 49.378C449.726 49.21 449.948 49.126 450.236 49.126C450.524 49.126 450.746 49.21 450.902 49.378C451.07 49.546 451.154 49.786 451.154 50.098V57.118C451.154 57.43 451.076 57.676 450.92 57.856C450.764 58.024 450.536 58.108 450.236 58.108ZM450.236 47.254C449.876 47.254 449.594 47.164 449.39 46.984C449.198 46.804 449.102 46.552 449.102 46.228C449.102 45.892 449.198 45.64 449.39 45.472C449.594 45.292 449.876 45.202 450.236 45.202C450.596 45.202 450.872 45.292 451.064 45.472C451.268 45.64 451.37 45.892 451.37 46.228C451.37 46.552 451.268 46.804 451.064 46.984C450.872 47.164 450.596 47.254 450.236 47.254ZM457.429 58.162C456.661 58.162 455.995 57.97 455.431 57.586C454.867 57.19 454.489 56.668 454.297 56.02L454.495 55.696V57.208C454.495 57.496 454.417 57.724 454.261 57.892C454.105 58.048 453.889 58.126 453.613 58.126C453.325 58.126 453.103 58.048 452.947 57.892C452.791 57.724 452.713 57.496 452.713 57.208V46.102C452.713 45.802 452.791 45.574 452.947 45.418C453.103 45.262 453.325 45.184 453.613 45.184C453.901 45.184 454.123 45.262 454.279 45.418C454.447 45.574 454.531 45.802 454.531 46.102V51.142H454.315C454.507 50.506 454.885 50.002 455.449 49.63C456.013 49.246 456.673 49.054 457.429 49.054C458.221 49.054 458.905 49.24 459.481 49.612C460.057 49.984 460.501 50.506 460.813 51.178C461.137 51.85 461.299 52.66 461.299 53.608C461.299 54.532 461.137 55.342 460.813 56.038C460.501 56.722 460.051 57.25 459.463 57.622C458.887 57.982 458.209 58.162 457.429 58.162ZM456.979 56.758C457.483 56.758 457.921 56.638 458.293 56.398C458.665 56.158 458.953 55.804 459.157 55.336C459.361 54.868 459.463 54.292 459.463 53.608C459.463 52.576 459.235 51.796 458.779 51.268C458.335 50.74 457.735 50.476 456.979 50.476C456.487 50.476 456.049 50.596 455.665 50.836C455.293 51.064 455.005 51.412 454.801 51.88C454.597 52.348 454.495 52.924 454.495 53.608C454.495 54.628 454.723 55.408 455.179 55.948C455.635 56.488 456.235 56.758 456.979 56.758ZM466.164 58.162C465.276 58.162 464.508 57.976 463.86 57.604C463.224 57.232 462.726 56.704 462.366 56.02C462.006 55.336 461.826 54.532 461.826 53.608C461.826 52.9 461.928 52.27 462.132 51.718C462.336 51.166 462.624 50.692 462.996 50.296C463.38 49.888 463.836 49.582 464.364 49.378C464.904 49.162 465.504 49.054 466.164 49.054C467.04 49.054 467.796 49.24 468.432 49.612C469.08 49.984 469.584 50.512 469.944 51.196C470.304 51.868 470.484 52.672 470.484 53.608C470.484 54.304 470.382 54.934 470.178 55.498C469.974 56.062 469.68 56.542 469.296 56.938C468.924 57.334 468.468 57.64 467.928 57.856C467.4 58.06 466.812 58.162 466.164 58.162ZM466.164 56.758C466.656 56.758 467.088 56.638 467.46 56.398C467.832 56.158 468.12 55.804 468.324 55.336C468.54 54.868 468.648 54.292 468.648 53.608C468.648 52.576 468.42 51.796 467.964 51.268C467.508 50.74 466.908 50.476 466.164 50.476C465.66 50.476 465.222 50.596 464.85 50.836C464.478 51.064 464.184 51.412 463.968 51.88C463.764 52.348 463.662 52.924 463.662 53.608C463.662 54.628 463.89 55.408 464.346 55.948C464.802 56.488 465.408 56.758 466.164 56.758ZM474.352 58.162C473.416 58.162 472.708 57.892 472.228 57.352C471.76 56.8 471.526 56.008 471.526 54.976V46.102C471.526 45.802 471.604 45.574 471.76 45.418C471.916 45.262 472.138 45.184 472.426 45.184C472.714 45.184 472.936 45.262 473.092 45.418C473.26 45.574 473.344 45.802 473.344 46.102V54.868C473.344 55.468 473.464 55.918 473.704 56.218C473.956 56.506 474.316 56.65 474.784 56.65C474.892 56.65 474.988 56.65 475.072 56.65C475.156 56.638 475.24 56.626 475.324 56.614C475.468 56.602 475.57 56.644 475.63 56.74C475.69 56.824 475.72 57.004 475.72 57.28C475.72 57.532 475.666 57.73 475.558 57.874C475.45 58.006 475.276 58.09 475.036 58.126C474.928 58.138 474.814 58.144 474.694 58.144C474.574 58.156 474.46 58.162 474.352 58.162ZM479.288 58.162C478.52 58.162 477.842 57.982 477.254 57.622C476.678 57.25 476.228 56.722 475.904 56.038C475.58 55.342 475.418 54.532 475.418 53.608C475.418 52.66 475.58 51.85 475.904 51.178C476.228 50.506 476.678 49.984 477.254 49.612C477.842 49.24 478.52 49.054 479.288 49.054C480.056 49.054 480.716 49.246 481.268 49.63C481.832 50.002 482.21 50.506 482.402 51.142H482.204V46.102C482.204 45.802 482.282 45.574 482.438 45.418C482.594 45.262 482.816 45.184 483.104 45.184C483.392 45.184 483.614 45.262 483.77 45.418C483.938 45.574 484.022 45.802 484.022 46.102V57.208C484.022 57.496 483.944 57.724 483.788 57.892C483.632 58.048 483.41 58.126 483.122 58.126C482.834 58.126 482.612 58.048 482.456 57.892C482.3 57.724 482.222 57.496 482.222 57.208V55.624L482.42 56.02C482.228 56.668 481.85 57.19 481.286 57.586C480.734 57.97 480.068 58.162 479.288 58.162ZM479.756 56.758C480.248 56.758 480.68 56.638 481.052 56.398C481.424 56.158 481.712 55.804 481.916 55.336C482.132 54.868 482.24 54.292 482.24 53.608C482.24 52.576 482.012 51.796 481.556 51.268C481.1 50.74 480.5 50.476 479.756 50.476C479.252 50.476 478.814 50.596 478.442 50.836C478.07 51.064 477.776 51.412 477.56 51.88C477.356 52.348 477.254 52.924 477.254 53.608C477.254 54.628 477.482 55.408 477.938 55.948C478.394 56.488 479 56.758 479.756 56.758ZM491.877 60.988C491.181 59.776 490.671 58.522 490.347 57.226C490.023 55.918 489.861 54.598 489.861 53.266C489.861 52.378 489.933 51.496 490.077 50.62C490.221 49.744 490.437 48.88 490.725 48.028C491.025 47.176 491.409 46.348 491.877 45.544C491.985 45.352 492.129 45.238 492.309 45.202C492.501 45.154 492.675 45.166 492.831 45.238C492.999 45.31 493.119 45.436 493.191 45.616C493.275 45.796 493.269 46.024 493.173 46.3C492.861 47.08 492.603 47.854 492.399 48.622C492.207 49.39 492.057 50.158 491.949 50.926C491.853 51.682 491.805 52.462 491.805 53.266C491.805 54.058 491.853 54.838 491.949 55.606C492.057 56.374 492.213 57.142 492.417 57.91C492.633 58.666 492.885 59.44 493.173 60.232C493.269 60.508 493.275 60.736 493.191 60.916C493.119 61.096 492.999 61.222 492.831 61.294C492.675 61.366 492.501 61.378 492.309 61.33C492.129 61.282 491.985 61.168 491.877 60.988ZM498.94 58.162C497.92 58.162 497.05 57.916 496.33 57.424C495.622 56.932 495.076 56.224 494.692 55.3C494.32 54.364 494.134 53.242 494.134 51.934C494.134 50.842 494.254 49.876 494.494 49.036C494.734 48.196 495.082 47.488 495.538 46.912C495.994 46.336 496.546 45.898 497.194 45.598C497.854 45.298 498.598 45.148 499.426 45.148C499.966 45.148 500.518 45.244 501.082 45.436C501.646 45.616 502.162 45.892 502.63 46.264C502.786 46.372 502.882 46.51 502.918 46.678C502.966 46.834 502.972 46.99 502.936 47.146C502.9 47.29 502.828 47.416 502.72 47.524C502.612 47.632 502.474 47.698 502.306 47.722C502.15 47.734 501.982 47.68 501.802 47.56C501.394 47.26 500.986 47.05 500.578 46.93C500.182 46.798 499.786 46.732 499.39 46.732C498.646 46.732 498.016 46.912 497.5 47.272C496.984 47.632 496.594 48.172 496.33 48.892C496.066 49.612 495.934 50.506 495.934 51.574V53.104H495.736C495.82 52.456 496.018 51.898 496.33 51.43C496.654 50.95 497.068 50.584 497.572 50.332C498.076 50.08 498.634 49.954 499.246 49.954C499.99 49.954 500.644 50.128 501.208 50.476C501.784 50.824 502.234 51.304 502.558 51.916C502.882 52.516 503.044 53.206 503.044 53.986C503.044 54.79 502.87 55.51 502.522 56.146C502.174 56.782 501.688 57.28 501.064 57.64C500.452 57.988 499.744 58.162 498.94 58.162ZM498.832 56.65C499.324 56.65 499.756 56.542 500.128 56.326C500.5 56.11 500.788 55.81 500.992 55.426C501.196 55.03 501.298 54.574 501.298 54.058C501.298 53.542 501.196 53.092 500.992 52.708C500.788 52.324 500.5 52.024 500.128 51.808C499.756 51.58 499.324 51.466 498.832 51.466C498.34 51.466 497.908 51.58 497.536 51.808C497.176 52.024 496.888 52.324 496.672 52.708C496.468 53.092 496.366 53.542 496.366 54.058C496.366 54.574 496.468 55.03 496.672 55.426C496.888 55.81 497.176 56.11 497.536 56.326C497.908 56.542 498.34 56.65 498.832 56.65ZM508.283 58.162C506.807 58.162 505.679 57.604 504.899 56.488C504.131 55.36 503.747 53.746 503.747 51.646C503.747 50.218 503.921 49.024 504.269 48.064C504.617 47.104 505.127 46.378 505.799 45.886C506.471 45.394 507.299 45.148 508.283 45.148C509.771 45.148 510.899 45.7 511.667 46.804C512.435 47.896 512.819 49.504 512.819 51.628C512.819 53.032 512.645 54.22 512.297 55.192C511.949 56.164 511.439 56.902 510.767 57.406C510.095 57.91 509.267 58.162 508.283 58.162ZM508.283 56.614C509.207 56.614 509.885 56.212 510.317 55.408C510.761 54.592 510.983 53.332 510.983 51.628C510.983 49.912 510.761 48.664 510.317 47.884C509.885 47.092 509.207 46.696 508.283 46.696C507.371 46.696 506.693 47.092 506.249 47.884C505.805 48.664 505.583 49.912 505.583 51.628C505.583 53.332 505.805 54.592 506.249 55.408C506.693 56.212 507.371 56.614 508.283 56.614ZM518.076 58.162C516.6 58.162 515.472 57.604 514.692 56.488C513.924 55.36 513.54 53.746 513.54 51.646C513.54 50.218 513.714 49.024 514.062 48.064C514.41 47.104 514.92 46.378 515.592 45.886C516.264 45.394 517.092 45.148 518.076 45.148C519.564 45.148 520.692 45.7 521.46 46.804C522.228 47.896 522.612 49.504 522.612 51.628C522.612 53.032 522.438 54.22 522.09 55.192C521.742 56.164 521.232 56.902 520.56 57.406C519.888 57.91 519.06 58.162 518.076 58.162ZM518.076 56.614C519 56.614 519.678 56.212 520.11 55.408C520.554 54.592 520.776 53.332 520.776 51.628C520.776 49.912 520.554 48.664 520.11 47.884C519.678 47.092 519 46.696 518.076 46.696C517.164 46.696 516.486 47.092 516.042 47.884C515.598 48.664 515.376 49.912 515.376 51.628C515.376 53.332 515.598 54.592 516.042 55.408C516.486 56.212 517.164 56.614 518.076 56.614ZM524.683 60.988C524.575 61.168 524.425 61.282 524.233 61.33C524.053 61.378 523.879 61.366 523.711 61.294C523.543 61.222 523.423 61.096 523.351 60.916C523.279 60.736 523.291 60.508 523.387 60.232C523.711 59.44 523.969 58.666 524.161 57.91C524.353 57.142 524.497 56.374 524.593 55.606C524.701 54.838 524.755 54.058 524.755 53.266C524.755 52.462 524.701 51.682 524.593 50.926C524.485 50.158 524.329 49.396 524.125 48.64C523.933 47.872 523.687 47.092 523.387 46.3C523.291 46.024 523.279 45.796 523.351 45.616C523.435 45.436 523.561 45.31 523.729 45.238C523.897 45.166 524.071 45.154 524.251 45.202C524.431 45.238 524.575 45.352 524.683 45.544C525.379 46.744 525.889 47.998 526.213 49.306C526.537 50.602 526.699 51.922 526.699 53.266C526.699 54.154 526.621 55.042 526.465 55.93C526.321 56.806 526.105 57.67 525.817 58.522C525.529 59.374 525.151 60.196 524.683 60.988Z" fill="#201F1F"/>
<path d="M563.732 58.144C563.384 58.144 563.114 58.048 562.922 57.856C562.742 57.664 562.652 57.388 562.652 57.028V46.318C562.652 45.946 562.742 45.664 562.922 45.472C563.114 45.268 563.36 45.166 563.66 45.166C563.936 45.166 564.14 45.22 564.272 45.328C564.416 45.424 564.584 45.592 564.776 45.832L571.67 54.778H571.202V46.264C571.202 45.916 571.292 45.646 571.472 45.454C571.664 45.262 571.934 45.166 572.282 45.166C572.63 45.166 572.894 45.262 573.074 45.454C573.254 45.646 573.344 45.916 573.344 46.264V57.064C573.344 57.4 573.26 57.664 573.092 57.856C572.924 58.048 572.696 58.144 572.408 58.144C572.132 58.144 571.91 58.09 571.742 57.982C571.586 57.874 571.412 57.7 571.22 57.46L564.344 48.514H564.794V57.028C564.794 57.388 564.704 57.664 564.524 57.856C564.344 58.048 564.08 58.144 563.732 58.144ZM578.086 58.18C577.354 58.18 576.748 58.048 576.268 57.784C575.788 57.508 575.428 57.1 575.188 56.56C574.96 56.02 574.846 55.348 574.846 54.544V50.188C574.846 49.804 574.942 49.522 575.134 49.342C575.326 49.15 575.602 49.054 575.962 49.054C576.322 49.054 576.598 49.15 576.79 49.342C576.994 49.522 577.096 49.804 577.096 50.188V54.58C577.096 55.204 577.222 55.666 577.474 55.966C577.726 56.266 578.128 56.416 578.68 56.416C579.28 56.416 579.772 56.212 580.156 55.804C580.54 55.384 580.732 54.832 580.732 54.148V50.188C580.732 49.804 580.828 49.522 581.02 49.342C581.212 49.15 581.488 49.054 581.848 49.054C582.208 49.054 582.484 49.15 582.676 49.342C582.88 49.522 582.982 49.804 582.982 50.188V56.992C582.982 57.76 582.616 58.144 581.884 58.144C581.536 58.144 581.266 58.048 581.074 57.856C580.882 57.652 580.786 57.364 580.786 56.992V55.624L581.038 56.164C580.786 56.812 580.402 57.31 579.886 57.658C579.382 58.006 578.782 58.18 578.086 58.18ZM585.44 58.144C585.08 58.144 584.804 58.048 584.612 57.856C584.42 57.652 584.324 57.364 584.324 56.992V50.188C584.324 49.816 584.42 49.534 584.612 49.342C584.804 49.15 585.074 49.054 585.422 49.054C585.77 49.054 586.04 49.15 586.232 49.342C586.424 49.534 586.52 49.816 586.52 50.188V51.412L586.322 50.962C586.586 50.326 586.994 49.846 587.546 49.522C588.11 49.186 588.746 49.018 589.454 49.018C590.162 49.018 590.744 49.15 591.2 49.414C591.656 49.678 591.998 50.08 592.226 50.62C592.454 51.148 592.568 51.82 592.568 52.636V56.992C592.568 57.364 592.472 57.652 592.28 57.856C592.088 58.048 591.812 58.144 591.452 58.144C591.092 58.144 590.81 58.048 590.606 57.856C590.414 57.652 590.318 57.364 590.318 56.992V52.744C590.318 52.06 590.186 51.562 589.922 51.25C589.67 50.938 589.274 50.782 588.734 50.782C588.074 50.782 587.546 50.992 587.15 51.412C586.766 51.82 586.574 52.366 586.574 53.05V56.992C586.574 57.76 586.196 58.144 585.44 58.144ZM594.97 58.126C594.61 58.126 594.334 58.018 594.142 57.802C593.95 57.586 593.854 57.286 593.854 56.902V50.296C593.854 49.9 593.95 49.6 594.142 49.396C594.334 49.18 594.61 49.072 594.97 49.072C595.33 49.072 595.606 49.18 595.798 49.396C596.002 49.6 596.104 49.9 596.104 50.296V56.902C596.104 57.286 596.008 57.586 595.816 57.802C595.624 58.018 595.342 58.126 594.97 58.126ZM594.97 47.398C594.55 47.398 594.22 47.296 593.98 47.092C593.752 46.876 593.638 46.582 593.638 46.21C593.638 45.826 593.752 45.532 593.98 45.328C594.22 45.124 594.55 45.022 594.97 45.022C595.402 45.022 595.732 45.124 595.96 45.328C596.188 45.532 596.302 45.826 596.302 46.21C596.302 46.582 596.188 46.876 595.96 47.092C595.732 47.296 595.402 47.398 594.97 47.398ZM601.473 58.18C600.693 58.18 600.039 58.048 599.511 57.784C598.995 57.52 598.611 57.136 598.359 56.632C598.107 56.116 597.981 55.48 597.981 54.724V50.89H597.045C596.757 50.89 596.535 50.818 596.379 50.674C596.223 50.518 596.145 50.308 596.145 50.044C596.145 49.768 596.223 49.558 596.379 49.414C596.535 49.27 596.757 49.198 597.045 49.198H597.981V47.56C597.981 47.188 598.077 46.906 598.269 46.714C598.473 46.522 598.755 46.426 599.115 46.426C599.475 46.426 599.751 46.522 599.943 46.714C600.135 46.906 600.231 47.188 600.231 47.56V49.198H602.139C602.427 49.198 602.649 49.27 602.805 49.414C602.961 49.558 603.039 49.768 603.039 50.044C603.039 50.308 602.961 50.518 602.805 50.674C602.649 50.818 602.427 50.89 602.139 50.89H600.231V54.598C600.231 55.174 600.357 55.606 600.609 55.894C600.861 56.182 601.269 56.326 601.833 56.326C602.037 56.326 602.217 56.308 602.373 56.272C602.529 56.236 602.667 56.212 602.787 56.2C602.931 56.188 603.051 56.236 603.147 56.344C603.243 56.44 603.291 56.644 603.291 56.956C603.291 57.196 603.249 57.412 603.165 57.604C603.093 57.784 602.955 57.91 602.751 57.982C602.595 58.03 602.391 58.072 602.139 58.108C601.887 58.156 601.665 58.18 601.473 58.18ZM607.276 58.18C606.364 58.18 605.572 57.994 604.9 57.622C604.228 57.25 603.706 56.722 603.334 56.038C602.962 55.342 602.776 54.526 602.776 53.59C602.776 52.882 602.878 52.252 603.082 51.7C603.298 51.136 603.604 50.656 604 50.26C604.396 49.852 604.87 49.546 605.422 49.342C605.974 49.126 606.592 49.018 607.276 49.018C608.188 49.018 608.98 49.204 609.652 49.576C610.324 49.948 610.846 50.476 611.218 51.16C611.59 51.844 611.776 52.654 611.776 53.59C611.776 54.298 611.668 54.934 611.452 55.498C611.248 56.062 610.948 56.548 610.552 56.956C610.156 57.352 609.682 57.658 609.13 57.874C608.578 58.078 607.96 58.18 607.276 58.18ZM607.276 56.47C607.72 56.47 608.11 56.362 608.446 56.146C608.782 55.93 609.04 55.612 609.22 55.192C609.412 54.76 609.508 54.226 609.508 53.59C609.508 52.63 609.304 51.916 608.896 51.448C608.488 50.968 607.948 50.728 607.276 50.728C606.832 50.728 606.442 50.836 606.106 51.052C605.77 51.256 605.506 51.574 605.314 52.006C605.134 52.426 605.044 52.954 605.044 53.59C605.044 54.538 605.248 55.258 605.656 55.75C606.064 56.23 606.604 56.47 607.276 56.47ZM617.96 58C617.564 58 617.258 57.898 617.042 57.694C616.838 57.478 616.736 57.172 616.736 56.776V46.534C616.736 46.138 616.838 45.838 617.042 45.634C617.258 45.418 617.564 45.31 617.96 45.31H622.28C623.168 45.31 623.924 45.442 624.548 45.706C625.172 45.97 625.646 46.348 625.97 46.84C626.306 47.332 626.474 47.92 626.474 48.604C626.474 49.372 626.252 50.02 625.808 50.548C625.364 51.076 624.758 51.43 623.99 51.61V51.34C624.878 51.472 625.568 51.808 626.06 52.348C626.552 52.888 626.798 53.59 626.798 54.454C626.798 55.582 626.414 56.458 625.646 57.082C624.89 57.694 623.834 58 622.478 58H617.96ZM618.95 56.254H622.19C623.006 56.254 623.606 56.098 623.99 55.786C624.374 55.462 624.566 54.982 624.566 54.346C624.566 53.698 624.374 53.218 623.99 52.906C623.606 52.594 623.006 52.438 622.19 52.438H618.95V56.254ZM618.95 50.692H621.884C622.676 50.692 623.264 50.542 623.648 50.242C624.044 49.93 624.242 49.474 624.242 48.874C624.242 48.274 624.044 47.824 623.648 47.524C623.264 47.212 622.676 47.056 621.884 47.056H618.95V50.692ZM631.926 58.18C631.014 58.18 630.222 57.994 629.55 57.622C628.878 57.25 628.356 56.722 627.984 56.038C627.612 55.342 627.426 54.526 627.426 53.59C627.426 52.882 627.528 52.252 627.732 51.7C627.948 51.136 628.254 50.656 628.65 50.26C629.046 49.852 629.52 49.546 630.072 49.342C630.624 49.126 631.242 49.018 631.926 49.018C632.838 49.018 633.63 49.204 634.302 49.576C634.974 49.948 635.496 50.476 635.868 51.16C636.24 51.844 636.426 52.654 636.426 53.59C636.426 54.298 636.318 54.934 636.102 55.498C635.898 56.062 635.598 56.548 635.202 56.956C634.806 57.352 634.332 57.658 633.78 57.874C633.228 58.078 632.61 58.18 631.926 58.18ZM631.926 56.47C632.37 56.47 632.76 56.362 633.096 56.146C633.432 55.93 633.69 55.612 633.87 55.192C634.062 54.76 634.158 54.226 634.158 53.59C634.158 52.63 633.954 51.916 633.546 51.448C633.138 50.968 632.598 50.728 631.926 50.728C631.482 50.728 631.092 50.836 630.756 51.052C630.42 51.256 630.156 51.574 629.964 52.006C629.784 52.426 629.694 52.954 629.694 53.59C629.694 54.538 629.898 55.258 630.306 55.75C630.714 56.23 631.254 56.47 631.926 56.47ZM640.289 58.18C639.293 58.18 638.543 57.898 638.039 57.334C637.535 56.758 637.283 55.918 637.283 54.814V46.3C637.283 45.928 637.379 45.646 637.571 45.454C637.763 45.262 638.039 45.166 638.399 45.166C638.759 45.166 639.035 45.262 639.227 45.454C639.431 45.646 639.533 45.928 639.533 46.3V54.706C639.533 55.258 639.647 55.666 639.875 55.93C640.115 56.194 640.451 56.326 640.883 56.326C640.979 56.326 641.069 56.326 641.153 56.326C641.237 56.314 641.321 56.302 641.405 56.29C641.573 56.266 641.687 56.314 641.747 56.434C641.807 56.542 641.837 56.77 641.837 57.118C641.837 57.418 641.777 57.652 641.657 57.82C641.537 57.988 641.339 58.09 641.063 58.126C640.943 58.138 640.817 58.15 640.685 58.162C640.553 58.174 640.421 58.18 640.289 58.18ZM645.327 58.18C644.559 58.18 643.881 57.994 643.293 57.622C642.717 57.25 642.267 56.722 641.943 56.038C641.619 55.342 641.457 54.526 641.457 53.59C641.457 52.642 641.619 51.832 641.943 51.16C642.267 50.476 642.717 49.948 643.293 49.576C643.881 49.204 644.559 49.018 645.327 49.018C646.059 49.018 646.695 49.198 647.235 49.558C647.787 49.918 648.159 50.392 648.351 50.98H648.153V46.3C648.153 45.928 648.249 45.646 648.441 45.454C648.633 45.262 648.909 45.166 649.269 45.166C649.629 45.166 649.905 45.262 650.097 45.454C650.301 45.646 650.403 45.928 650.403 46.3V56.992C650.403 57.364 650.307 57.652 650.115 57.856C649.923 58.048 649.647 58.144 649.287 58.144C648.927 58.144 648.651 58.048 648.459 57.856C648.267 57.652 648.171 57.364 648.171 56.992V55.588L648.369 56.128C648.189 56.752 647.823 57.25 647.271 57.622C646.719 57.994 646.071 58.18 645.327 58.18ZM645.957 56.47C646.401 56.47 646.791 56.362 647.127 56.146C647.463 55.93 647.721 55.612 647.901 55.192C648.093 54.76 648.189 54.226 648.189 53.59C648.189 52.63 647.985 51.916 647.577 51.448C647.169 50.968 646.629 50.728 645.957 50.728C645.513 50.728 645.123 50.836 644.787 51.052C644.451 51.256 644.187 51.574 643.995 52.006C643.815 52.426 643.725 52.954 643.725 53.59C643.725 54.538 643.929 55.258 644.337 55.75C644.745 56.23 645.285 56.47 645.957 56.47ZM658.359 60.934C657.615 59.758 657.075 58.522 656.739 57.226C656.415 55.918 656.253 54.598 656.253 53.266C656.253 52.378 656.325 51.496 656.469 50.62C656.613 49.744 656.841 48.886 657.153 48.046C657.465 47.194 657.867 46.378 658.359 45.598C658.491 45.382 658.665 45.25 658.881 45.202C659.109 45.142 659.319 45.154 659.511 45.238C659.715 45.322 659.865 45.478 659.961 45.706C660.057 45.922 660.045 46.198 659.925 46.534C659.637 47.302 659.397 48.058 659.205 48.802C659.025 49.534 658.887 50.266 658.791 50.998C658.707 51.73 658.665 52.486 658.665 53.266C658.665 54.046 658.713 54.802 658.809 55.534C658.905 56.266 659.049 56.998 659.241 57.73C659.433 58.462 659.661 59.218 659.925 59.998C660.045 60.334 660.057 60.61 659.961 60.826C659.865 61.054 659.715 61.21 659.511 61.294C659.319 61.378 659.109 61.39 658.881 61.33C658.665 61.282 658.491 61.15 658.359 60.934ZM663 58.144C662.724 58.144 662.496 58.078 662.316 57.946C662.136 57.814 662.028 57.64 661.992 57.424C661.956 57.196 662.01 56.944 662.154 56.668L667.59 46.444V47.236H661.758C661.434 47.236 661.182 47.152 661.002 46.984C660.834 46.816 660.75 46.582 660.75 46.282C660.75 45.97 660.834 45.73 661.002 45.562C661.182 45.394 661.434 45.31 661.758 45.31H668.724C669.048 45.31 669.312 45.394 669.516 45.562C669.72 45.73 669.822 45.97 669.822 46.282C669.822 46.546 669.786 46.78 669.714 46.984C669.642 47.176 669.546 47.386 669.426 47.614L664.314 57.388C664.182 57.652 664.008 57.844 663.792 57.964C663.588 58.084 663.324 58.144 663 58.144ZM675.097 58.18C673.597 58.18 672.451 57.616 671.659 56.488C670.867 55.348 670.471 53.728 670.471 51.628C670.471 50.212 670.645 49.024 670.993 48.064C671.353 47.092 671.875 46.36 672.559 45.868C673.255 45.376 674.101 45.13 675.097 45.13C676.609 45.13 677.755 45.682 678.535 46.786C679.327 47.89 679.723 49.498 679.723 51.61C679.723 53.014 679.543 54.208 679.183 55.192C678.835 56.164 678.319 56.908 677.635 57.424C676.951 57.928 676.105 58.18 675.097 58.18ZM675.097 56.29C675.913 56.29 676.513 55.912 676.897 55.156C677.293 54.4 677.491 53.218 677.491 51.61C677.491 50.002 677.293 48.838 676.897 48.118C676.513 47.386 675.913 47.02 675.097 47.02C674.293 47.02 673.693 47.386 673.297 48.118C672.901 48.838 672.703 50.002 672.703 51.61C672.703 53.218 672.901 54.4 673.297 55.156C673.693 55.912 674.293 56.29 675.097 56.29ZM684.89 58.18C683.39 58.18 682.244 57.616 681.452 56.488C680.66 55.348 680.264 53.728 680.264 51.628C680.264 50.212 680.438 49.024 680.786 48.064C681.146 47.092 681.668 46.36 682.352 45.868C683.048 45.376 683.894 45.13 684.89 45.13C686.402 45.13 687.548 45.682 688.328 46.786C689.12 47.89 689.516 49.498 689.516 51.61C689.516 53.014 689.336 54.208 688.976 55.192C688.628 56.164 688.112 56.908 687.428 57.424C686.744 57.928 685.898 58.18 684.89 58.18ZM684.89 56.29C685.706 56.29 686.306 55.912 686.69 55.156C687.086 54.4 687.284 53.218 687.284 51.61C687.284 50.002 687.086 48.838 686.69 48.118C686.306 47.386 685.706 47.02 684.89 47.02C684.086 47.02 683.486 47.386 683.09 48.118C682.694 48.838 682.496 50.002 682.496 51.61C682.496 53.218 682.694 54.4 683.09 55.156C683.486 55.912 684.086 56.29 684.89 56.29ZM691.821 60.934C691.689 61.15 691.509 61.282 691.281 61.33C691.065 61.39 690.855 61.372 690.651 61.276C690.447 61.192 690.297 61.042 690.201 60.826C690.117 60.61 690.135 60.334 690.255 59.998C690.555 59.218 690.795 58.462 690.975 57.73C691.155 56.998 691.287 56.266 691.371 55.534C691.467 54.802 691.515 54.046 691.515 53.266C691.515 52.486 691.467 51.73 691.371 50.998C691.275 50.266 691.131 49.534 690.939 48.802C690.759 48.07 690.531 47.314 690.255 46.534C690.135 46.198 690.123 45.922 690.219 45.706C690.315 45.478 690.465 45.322 690.669 45.238C690.873 45.154 691.083 45.142 691.299 45.202C691.515 45.25 691.689 45.382 691.821 45.598C692.553 46.762 693.087 47.998 693.423 49.306C693.759 50.614 693.927 51.934 693.927 53.266C693.927 54.154 693.849 55.036 693.693 55.912C693.549 56.788 693.321 57.646 693.009 58.486C692.709 59.338 692.313 60.154 691.821 60.934Z" fill="#201F1F"/>
</svg>
