<svg viewBox="0 0 20 20" fill="none" xmlns="http://www.w3.org/2000/svg">
<path d="M4.61078 12.2323C4.31763 11.5246 4.16675 10.766 4.16675 9.99999C4.16675 9.23395 4.31763 8.4754 4.61078 7.76767C4.90394 7.05994 5.33362 6.41688 5.87529 5.8752C6.41697 5.33353 7.06003 4.90384 7.76776 4.61069C8.47549 4.31754 9.23404 4.16666 10.0001 4.16666C10.7661 4.16666 11.5247 4.31754 12.2324 4.61069C12.9401 4.90384 13.5832 5.33353 14.1249 5.8752C14.6665 6.41688 15.0962 7.05994 15.3894 7.76767C15.6825 8.4754 15.8334 9.23395 15.8334 9.99999C15.8334 10.766 15.6825 11.5246 15.3894 12.2323C15.0962 12.94 14.6665 13.5831 14.1249 14.1248C13.5832 14.6665 12.9401 15.0961 12.2324 15.3893C11.5247 15.6824 10.7661 15.8333 10.0001 15.8333C9.23404 15.8333 8.47549 15.6824 7.76776 15.3893C7.06003 15.0961 6.41697 14.6665 5.87529 14.1248C5.33362 13.5831 4.90394 12.94 4.61078 12.2323Z" stroke="currentColor" stroke-width="1.5" stroke-linecap="round" stroke-linejoin="round"/>
<path d="M4.16675 10H1.66675" stroke="currentColor" stroke-width="1.5" stroke-linecap="round" stroke-linejoin="round"/>
<path d="M15.8333 10H18.3333" stroke="currentColor" stroke-width="1.5" stroke-linecap="round" stroke-linejoin="round"/>
<path d="M7.5 12.0834V8.02827C7.5 7.88442 7.55208 7.76042 7.65625 7.65625C7.76042 7.55208 7.88442 7.5 8.02827 7.5H8.26815C8.38105 7.5 8.4809 7.531 8.56771 7.59301C8.65451 7.65501 8.71776 7.7381 8.75744 7.84226L10 11.1235L11.2277 7.86458C11.2674 7.7505 11.3355 7.66121 11.432 7.59673C11.5285 7.53224 11.6365 7.5 11.756 7.5H11.9325C12.0926 7.5 12.2272 7.55516 12.3363 7.66548C12.4454 7.77584 12.5 7.90918 12.5 8.06548V12.083C12.5 12.1988 12.4597 12.2972 12.379 12.3783C12.2983 12.4594 12.2003 12.5 12.0851 12.5C11.9698 12.5 11.8713 12.4595 11.7894 12.3786C11.7076 12.2976 11.6667 12.1993 11.6667 12.0836V9.0997L10.4365 12.2839C10.4134 12.3486 10.3736 12.4008 10.3171 12.4405C10.2606 12.4802 10.1971 12.5 10.1265 12.5H9.87039C9.80303 12.5 9.7406 12.4803 9.68311 12.4408C9.62567 12.4014 9.58497 12.3492 9.56101 12.2842L8.33333 9.11458V12.0829C8.33333 12.1988 8.29301 12.2972 8.21235 12.3783C8.13165 12.4594 8.03368 12.5 7.91845 12.5C7.80317 12.5 7.70461 12.4595 7.62277 12.3785C7.54092 12.2975 7.5 12.1991 7.5 12.0834Z" fill="currentColor"/>
</svg>
