<svg viewBox="0 0 20 20" fill="none" xmlns="http://www.w3.org/2000/svg">
<path d="M6.66666 17.5C6.20832 17.5 5.81596 17.3368 5.48957 17.0104C5.16318 16.684 4.99999 16.2917 4.99999 15.8333V14.1667H3.33332C2.87499 14.1667 2.48263 14.0035 2.15624 13.6771C1.82985 13.3507 1.66666 12.9583 1.66666 12.5V9.16667C1.66666 8.45833 1.90971 7.86458 2.39582 7.38542C2.88193 6.90625 3.47221 6.66667 4.16666 6.66667H15.8333C16.5417 6.66667 17.1354 6.90625 17.6146 7.38542C18.0937 7.86458 18.3333 8.45833 18.3333 9.16667V12.5C18.3333 12.9583 18.1701 13.3507 17.8437 13.6771C17.5174 14.0035 17.125 14.1667 16.6667 14.1667H15V15.8333C15 16.2917 14.8368 16.684 14.5104 17.0104C14.184 17.3368 13.7917 17.5 13.3333 17.5H6.66666ZM3.33332 12.5H4.99999C4.99999 12.0417 5.16318 11.6493 5.48957 11.3229C5.81596 10.9965 6.20832 10.8333 6.66666 10.8333H13.3333C13.7917 10.8333 14.184 10.9965 14.5104 11.3229C14.8368 11.6493 15 12.0417 15 12.5H16.6667V9.16667C16.6667 8.93056 16.5868 8.73264 16.4271 8.57292C16.2674 8.41319 16.0694 8.33333 15.8333 8.33333H4.16666C3.93055 8.33333 3.73263 8.41319 3.57291 8.57292C3.41318 8.73264 3.33332 8.93056 3.33332 9.16667V12.5ZM13.3333 6.66667V4.16667H6.66666V6.66667H4.99999V4.16667C4.99999 3.70833 5.16318 3.31597 5.48957 2.98958C5.81596 2.66319 6.20832 2.5 6.66666 2.5H13.3333C13.7917 2.5 14.184 2.66319 14.5104 2.98958C14.8368 3.31597 15 3.70833 15 4.16667V6.66667H13.3333ZM15 10.4167C15.2361 10.4167 15.434 10.3368 15.5937 10.1771C15.7535 10.0174 15.8333 9.81944 15.8333 9.58333C15.8333 9.34722 15.7535 9.14931 15.5937 8.98958C15.434 8.82986 15.2361 8.75 15 8.75C14.7639 8.75 14.566 8.82986 14.4062 8.98958C14.2465 9.14931 14.1667 9.34722 14.1667 9.58333C14.1667 9.81944 14.2465 10.0174 14.4062 10.1771C14.566 10.3368 14.7639 10.4167 15 10.4167ZM13.3333 15.8333V12.5H6.66666V15.8333H13.3333Z" fill="currentColor"/>
</svg>