<svg width="712" height="190" viewBox="0 0 712 190" fill="none" xmlns="http://www.w3.org/2000/svg">
<g clip-path="url(#clip0_968_7796)">
<path d="M0 8C0 3.58172 3.58172 0 8 0H704C708.418 0 712 3.58172 712 8V182C712 186.418 708.418 190 704 190H8C3.58172 190 0 186.418 0 182V8Z" fill="white"/>
<path d="M17.0391 21V10.9785H19.0078L23.1094 17.6709V10.9785H24.9893V21H22.959L18.9189 14.4648V21H17.0391ZM26.6777 17.2676C26.6777 16.6296 26.835 16.012 27.1494 15.415C27.4639 14.818 27.9082 14.3623 28.4824 14.0479C29.0612 13.7334 29.7061 13.5762 30.417 13.5762C31.5153 13.5762 32.4154 13.9339 33.1172 14.6494C33.819 15.3604 34.1699 16.2604 34.1699 17.3496C34.1699 18.4479 33.8145 19.3594 33.1035 20.084C32.3971 20.804 31.5062 21.1641 30.4307 21.1641C29.7653 21.1641 29.1296 21.0137 28.5234 20.7129C27.9219 20.4121 27.4639 19.9723 27.1494 19.3936C26.835 18.8102 26.6777 18.1016 26.6777 17.2676ZM28.6465 17.3701C28.6465 18.0902 28.8174 18.6416 29.1592 19.0244C29.501 19.4072 29.9225 19.5986 30.4238 19.5986C30.9251 19.5986 31.3444 19.4072 31.6816 19.0244C32.0234 18.6416 32.1943 18.0856 32.1943 17.3564C32.1943 16.6455 32.0234 16.0986 31.6816 15.7158C31.3444 15.333 30.9251 15.1416 30.4238 15.1416C29.9225 15.1416 29.501 15.333 29.1592 15.7158C28.8174 16.0986 28.6465 16.6501 28.6465 17.3701ZM35.5371 13.7402H37.3076V14.7314C37.9411 13.9613 38.6953 13.5762 39.5703 13.5762C40.0352 13.5762 40.4385 13.6719 40.7803 13.8633C41.1221 14.0547 41.4023 14.3441 41.6211 14.7314C41.9401 14.3441 42.2842 14.0547 42.6533 13.8633C43.0225 13.6719 43.4167 13.5762 43.8359 13.5762C44.3691 13.5762 44.8203 13.6855 45.1895 13.9043C45.5586 14.1185 45.8343 14.4352 46.0166 14.8545C46.1488 15.1644 46.2148 15.6657 46.2148 16.3584V21H44.2939V16.8506C44.2939 16.1305 44.2279 15.6657 44.0957 15.4561C43.918 15.1826 43.6445 15.0459 43.2754 15.0459C43.0065 15.0459 42.7536 15.1279 42.5166 15.292C42.2796 15.4561 42.1087 15.6976 42.0039 16.0166C41.8991 16.3311 41.8467 16.8301 41.8467 17.5137V21H39.9258V17.0215C39.9258 16.3151 39.8916 15.8594 39.8232 15.6543C39.7549 15.4492 39.6478 15.2965 39.502 15.1963C39.3607 15.096 39.167 15.0459 38.9209 15.0459C38.6247 15.0459 38.3581 15.1257 38.1211 15.2852C37.8841 15.4447 37.7132 15.6748 37.6084 15.9756C37.5081 16.2764 37.458 16.7754 37.458 17.4727V21H35.5371V13.7402ZM58.6904 21H56.9062V19.9336C56.61 20.3483 56.2591 20.6582 55.8535 20.8633C55.4525 21.0638 55.0469 21.1641 54.6367 21.1641C53.8027 21.1641 53.0872 20.8291 52.4902 20.1592C51.8978 19.4847 51.6016 18.5459 51.6016 17.3428C51.6016 16.1123 51.891 15.1781 52.4697 14.54C53.0485 13.8975 53.7799 13.5762 54.6641 13.5762C55.4753 13.5762 56.1771 13.9134 56.7695 14.5879V10.9785H58.6904V21ZM53.5635 17.2129C53.5635 17.9876 53.6706 18.5482 53.8848 18.8945C54.1947 19.3958 54.6276 19.6465 55.1836 19.6465C55.6257 19.6465 56.0016 19.4596 56.3115 19.0859C56.6214 18.7077 56.7764 18.1449 56.7764 17.3975C56.7764 16.5635 56.626 15.9642 56.3252 15.5996C56.0244 15.2305 55.6393 15.0459 55.1699 15.0459C54.7142 15.0459 54.3314 15.2282 54.0215 15.5928C53.7161 15.9528 53.5635 16.4928 53.5635 17.2129ZM65.3691 21V19.9131C65.1048 20.3005 64.7562 20.6058 64.3232 20.8291C63.8949 21.0524 63.4414 21.1641 62.9629 21.1641C62.4753 21.1641 62.0378 21.057 61.6504 20.8428C61.263 20.6286 60.9827 20.3278 60.8096 19.9404C60.6364 19.5531 60.5498 19.0176 60.5498 18.334V13.7402H62.4707V17.0762C62.4707 18.097 62.5049 18.7236 62.5732 18.9561C62.6462 19.1839 62.776 19.3662 62.9629 19.5029C63.1497 19.6351 63.3867 19.7012 63.6738 19.7012C64.002 19.7012 64.2959 19.6123 64.5557 19.4346C64.8154 19.2523 64.9932 19.029 65.0889 18.7646C65.1846 18.4958 65.2324 17.8418 65.2324 16.8027V13.7402H67.1533V21H65.3691ZM76.375 13.7402V15.2715H75.0625V18.1973C75.0625 18.7897 75.0739 19.1361 75.0967 19.2363C75.124 19.332 75.181 19.4118 75.2676 19.4756C75.3587 19.5394 75.4681 19.5713 75.5957 19.5713C75.7734 19.5713 76.0309 19.5098 76.3682 19.3867L76.5322 20.877C76.0856 21.0684 75.5798 21.1641 75.0146 21.1641C74.6683 21.1641 74.3561 21.1071 74.0781 20.9932C73.8001 20.8747 73.5951 20.7243 73.4629 20.542C73.3353 20.3551 73.2464 20.1045 73.1963 19.79C73.1553 19.5667 73.1348 19.1156 73.1348 18.4365V15.2715H72.2529V13.7402H73.1348V12.2979L75.0625 11.1768V13.7402H76.375ZM77.2637 17.2676C77.2637 16.6296 77.4209 16.012 77.7354 15.415C78.0498 14.818 78.4941 14.3623 79.0684 14.0479C79.6471 13.7334 80.292 13.5762 81.0029 13.5762C82.1012 13.5762 83.0013 13.9339 83.7031 14.6494C84.4049 15.3604 84.7559 16.2604 84.7559 17.3496C84.7559 18.4479 84.4004 19.3594 83.6895 20.084C82.9831 20.804 82.0921 21.1641 81.0166 21.1641C80.3512 21.1641 79.7155 21.0137 79.1094 20.7129C78.5078 20.4121 78.0498 19.9723 77.7354 19.3936C77.4209 18.8102 77.2637 18.1016 77.2637 17.2676ZM79.2324 17.3701C79.2324 18.0902 79.4033 18.6416 79.7451 19.0244C80.0869 19.4072 80.5085 19.5986 81.0098 19.5986C81.5111 19.5986 81.9303 19.4072 82.2676 19.0244C82.6094 18.6416 82.7803 18.0856 82.7803 17.3564C82.7803 16.6455 82.6094 16.0986 82.2676 15.7158C81.9303 15.333 81.5111 15.1416 81.0098 15.1416C80.5085 15.1416 80.0869 15.333 79.7451 15.7158C79.4033 16.0986 79.2324 16.6501 79.2324 17.3701ZM86.1982 21V10.9785H88.1191V16.2969L90.3682 13.7402H92.7334L90.252 16.3926L92.9111 21H90.8398L89.0146 17.7393L88.1191 18.6758V21H86.1982ZM98.2637 18.6895L100.178 19.0107C99.9316 19.7126 99.542 20.248 99.0088 20.6172C98.4801 20.9818 97.8171 21.1641 97.0195 21.1641C95.7572 21.1641 94.8229 20.7516 94.2168 19.9268C93.7383 19.266 93.499 18.432 93.499 17.4248C93.499 16.2217 93.8135 15.2806 94.4424 14.6016C95.0713 13.918 95.8665 13.5762 96.8281 13.5762C97.9082 13.5762 98.7604 13.9339 99.3848 14.6494C100.009 15.3604 100.308 16.4518 100.28 17.9238H95.4678C95.4814 18.4935 95.6364 18.9378 95.9326 19.2568C96.2288 19.5713 96.598 19.7285 97.04 19.7285C97.3408 19.7285 97.5938 19.6465 97.7988 19.4824C98.0039 19.3184 98.1589 19.054 98.2637 18.6895ZM98.373 16.748C98.3594 16.1921 98.2158 15.7705 97.9424 15.4834C97.6689 15.1917 97.3363 15.0459 96.9443 15.0459C96.5251 15.0459 96.1787 15.1986 95.9053 15.5039C95.6318 15.8092 95.4974 16.224 95.502 16.748H98.373ZM108.456 21H106.535V17.2949C106.535 16.5111 106.494 16.0052 106.412 15.7773C106.33 15.5449 106.196 15.3649 106.009 15.2373C105.826 15.1097 105.605 15.0459 105.346 15.0459C105.013 15.0459 104.715 15.137 104.45 15.3193C104.186 15.5016 104.004 15.7432 103.903 16.0439C103.808 16.3447 103.76 16.9007 103.76 17.7119V21H101.839V13.7402H103.623V14.8066C104.257 13.9863 105.054 13.5762 106.016 13.5762C106.439 13.5762 106.827 13.6536 107.178 13.8086C107.529 13.959 107.793 14.1527 107.971 14.3896C108.153 14.6266 108.278 14.8955 108.347 15.1963C108.42 15.4971 108.456 15.9277 108.456 16.4883V21Z" fill="#201F1F"/>
<path d="M0 33H356V34H0V33Z" fill="#CDCCCB"/>
<path d="M375.575 21L371.993 10.9785H374.188L376.724 18.3955L379.178 10.9785H381.324L377.735 21H375.575ZM382.999 15.9551L381.256 15.6406C381.452 14.9388 381.789 14.4193 382.268 14.082C382.746 13.7448 383.457 13.5762 384.4 13.5762C385.257 13.5762 385.895 13.6787 386.314 13.8838C386.734 14.0843 387.028 14.3418 387.196 14.6562C387.369 14.9661 387.456 15.5381 387.456 16.3721L387.436 18.6143C387.436 19.2523 387.465 19.724 387.524 20.0293C387.588 20.3301 387.704 20.6536 387.873 21H385.973C385.923 20.8724 385.861 20.6833 385.788 20.4326C385.756 20.3187 385.733 20.2435 385.72 20.207C385.392 20.526 385.041 20.7653 384.667 20.9248C384.293 21.0843 383.895 21.1641 383.471 21.1641C382.723 21.1641 382.133 20.9613 381.7 20.5557C381.272 20.1501 381.058 19.6374 381.058 19.0176C381.058 18.6074 381.156 18.2428 381.352 17.9238C381.548 17.6003 381.821 17.3542 382.172 17.1855C382.527 17.0124 383.038 16.862 383.703 16.7344C384.601 16.5658 385.223 16.4085 385.569 16.2627V16.0713C385.569 15.7021 385.478 15.4401 385.296 15.2852C385.114 15.1257 384.77 15.0459 384.264 15.0459C383.922 15.0459 383.655 15.1143 383.464 15.251C383.272 15.3831 383.118 15.6178 382.999 15.9551ZM385.569 17.5137C385.323 17.5957 384.934 17.6937 384.4 17.8076C383.867 17.9215 383.519 18.0332 383.354 18.1426C383.104 18.3203 382.979 18.5459 382.979 18.8193C382.979 19.0882 383.079 19.3206 383.279 19.5166C383.48 19.7126 383.735 19.8105 384.045 19.8105C384.391 19.8105 384.722 19.6966 385.036 19.4688C385.269 19.2956 385.421 19.0837 385.494 18.833C385.544 18.6689 385.569 18.3568 385.569 17.8965V17.5137ZM389.356 21V10.9785H391.277V21H389.356ZM397.457 18.6895L399.371 19.0107C399.125 19.7126 398.735 20.248 398.202 20.6172C397.674 20.9818 397.01 21.1641 396.213 21.1641C394.951 21.1641 394.016 20.7516 393.41 19.9268C392.932 19.266 392.692 18.432 392.692 17.4248C392.692 16.2217 393.007 15.2806 393.636 14.6016C394.265 13.918 395.06 13.5762 396.021 13.5762C397.102 13.5762 397.954 13.9339 398.578 14.6494C399.202 15.3604 399.501 16.4518 399.474 17.9238H394.661C394.675 18.4935 394.83 18.9378 395.126 19.2568C395.422 19.5713 395.791 19.7285 396.233 19.7285C396.534 19.7285 396.787 19.6465 396.992 19.4824C397.197 19.3184 397.352 19.054 397.457 18.6895ZM397.566 16.748C397.553 16.1921 397.409 15.7705 397.136 15.4834C396.862 15.1917 396.53 15.0459 396.138 15.0459C395.718 15.0459 395.372 15.1986 395.099 15.5039C394.825 15.8092 394.691 16.224 394.695 16.748H397.566ZM405.824 21V19.9131C405.56 20.3005 405.211 20.6058 404.778 20.8291C404.35 21.0524 403.896 21.1641 403.418 21.1641C402.93 21.1641 402.493 21.057 402.105 20.8428C401.718 20.6286 401.438 20.3278 401.265 19.9404C401.091 19.5531 401.005 19.0176 401.005 18.334V13.7402H402.926V17.0762C402.926 18.097 402.96 18.7236 403.028 18.9561C403.101 19.1839 403.231 19.3662 403.418 19.5029C403.605 19.6351 403.842 19.7012 404.129 19.7012C404.457 19.7012 404.751 19.6123 405.011 19.4346C405.271 19.2523 405.448 19.029 405.544 18.7646C405.64 18.4958 405.688 17.8418 405.688 16.8027V13.7402H407.608V21H405.824ZM411.443 21H409.522V13.7402H411.307V14.7725C411.612 14.2848 411.885 13.9635 412.127 13.8086C412.373 13.6536 412.651 13.5762 412.961 13.5762C413.398 13.5762 413.82 13.6969 414.226 13.9385L413.631 15.6133C413.307 15.4036 413.007 15.2988 412.729 15.2988C412.46 15.2988 412.232 15.374 412.045 15.5244C411.858 15.6702 411.71 15.9368 411.601 16.3242C411.496 16.7116 411.443 17.5228 411.443 18.7578V21Z" fill="#201F1F"/>
<path d="M356 33H712V34H356V33Z" fill="#CDCCCB"/>
<path d="M18.0576 65H16.916V54.9785H18.1465V58.5537C18.666 57.902 19.3291 57.5762 20.1357 57.5762C20.5824 57.5762 21.0039 57.6673 21.4004 57.8496C21.8014 58.0273 22.1296 58.2803 22.3848 58.6084C22.6445 58.932 22.8473 59.3239 22.9932 59.7842C23.139 60.2445 23.2119 60.7367 23.2119 61.2607C23.2119 62.5049 22.9043 63.4665 22.2891 64.1455C21.6738 64.8245 20.9355 65.1641 20.0742 65.1641C19.2174 65.1641 18.5452 64.8063 18.0576 64.0908V65ZM18.0439 61.3154C18.0439 62.1859 18.1624 62.8148 18.3994 63.2021C18.7868 63.8356 19.3109 64.1523 19.9717 64.1523C20.5094 64.1523 20.9743 63.9199 21.3662 63.4551C21.7581 62.9857 21.9541 62.2884 21.9541 61.3633C21.9541 60.4154 21.765 59.7158 21.3867 59.2646C21.013 58.8135 20.5596 58.5879 20.0264 58.5879C19.4886 58.5879 19.0238 58.8226 18.6318 59.292C18.2399 59.7568 18.0439 60.4313 18.0439 61.3154ZM29.4531 64.1045C28.9974 64.4919 28.5576 64.7653 28.1338 64.9248C27.7145 65.0843 27.2633 65.1641 26.7803 65.1641C25.9827 65.1641 25.3698 64.9704 24.9414 64.583C24.513 64.1911 24.2988 63.6921 24.2988 63.0859C24.2988 62.7305 24.3786 62.4069 24.5381 62.1152C24.7021 61.819 24.9141 61.582 25.1738 61.4043C25.4382 61.2266 25.7344 61.0921 26.0625 61.001C26.304 60.9372 26.6686 60.8757 27.1562 60.8164C28.1497 60.6979 28.8812 60.5566 29.3506 60.3926C29.3551 60.224 29.3574 60.1169 29.3574 60.0713C29.3574 59.57 29.2412 59.2168 29.0088 59.0117C28.6943 58.7337 28.2272 58.5947 27.6074 58.5947C27.0286 58.5947 26.6003 58.6973 26.3223 58.9023C26.0488 59.1029 25.846 59.4606 25.7139 59.9756L24.5107 59.8115C24.6201 59.2965 24.8001 58.8818 25.0508 58.5674C25.3014 58.2484 25.6637 58.0046 26.1377 57.8359C26.6117 57.6628 27.1608 57.5762 27.7852 57.5762C28.4049 57.5762 28.9085 57.6491 29.2959 57.7949C29.6833 57.9408 29.9681 58.1253 30.1504 58.3486C30.3327 58.5674 30.4603 58.8454 30.5332 59.1826C30.5742 59.3923 30.5947 59.7705 30.5947 60.3174V61.958C30.5947 63.1019 30.6198 63.8265 30.6699 64.1318C30.7246 64.4326 30.8294 64.722 30.9844 65H29.6992C29.5716 64.7448 29.4896 64.4463 29.4531 64.1045ZM29.3506 61.3564C28.904 61.5387 28.234 61.6937 27.3408 61.8213C26.835 61.8942 26.4772 61.9762 26.2676 62.0674C26.0579 62.1585 25.8962 62.293 25.7822 62.4707C25.6683 62.6439 25.6113 62.8376 25.6113 63.0518C25.6113 63.3799 25.7344 63.6533 25.9805 63.8721C26.2311 64.0908 26.5957 64.2002 27.0742 64.2002C27.5482 64.2002 27.9697 64.0977 28.3389 63.8926C28.708 63.6829 28.9792 63.3981 29.1523 63.0381C29.2845 62.7601 29.3506 62.3499 29.3506 61.8076V61.3564ZM37.2461 62.3408L38.4561 62.498C38.3239 63.332 37.9844 63.986 37.4375 64.46C36.8952 64.9294 36.2275 65.1641 35.4346 65.1641C34.4411 65.1641 33.6413 64.8405 33.0352 64.1934C32.4336 63.5417 32.1328 62.6097 32.1328 61.3975C32.1328 60.6136 32.2627 59.9277 32.5225 59.3398C32.7822 58.752 33.1764 58.3122 33.7051 58.0205C34.2383 57.7243 34.8171 57.5762 35.4414 57.5762C36.2298 57.5762 36.8747 57.7767 37.376 58.1777C37.8773 58.5742 38.1986 59.1393 38.3398 59.873L37.1436 60.0576C37.0296 59.57 36.8268 59.2031 36.5352 58.957C36.248 58.7109 35.8994 58.5879 35.4893 58.5879C34.8695 58.5879 34.3659 58.8112 33.9785 59.2578C33.5911 59.6999 33.3975 60.4017 33.3975 61.3633C33.3975 62.3385 33.5843 63.0472 33.958 63.4893C34.3317 63.9313 34.8193 64.1523 35.4209 64.1523C35.904 64.1523 36.3073 64.0042 36.6309 63.708C36.9544 63.4118 37.1595 62.9561 37.2461 62.3408ZM39.5156 65V54.9785H40.7461V60.6934L43.6582 57.7402H45.251L42.4756 60.4336L45.5312 65H44.0137L41.6143 61.2881L40.7461 62.1221V65H39.5156ZM46.2832 65.6016L47.4795 65.7793C47.5296 66.1484 47.6686 66.4173 47.8965 66.5859C48.2018 66.8138 48.6188 66.9277 49.1475 66.9277C49.7171 66.9277 50.1569 66.8138 50.4668 66.5859C50.7767 66.3581 50.9863 66.0391 51.0957 65.6289C51.1595 65.3783 51.1891 64.8519 51.1846 64.0498C50.6468 64.6833 49.9769 65 49.1748 65C48.1768 65 47.4043 64.64 46.8574 63.9199C46.3105 63.1999 46.0371 62.3363 46.0371 61.3291C46.0371 60.6364 46.1624 59.9984 46.4131 59.415C46.6637 58.8271 47.026 58.3737 47.5 58.0547C47.9785 57.7357 48.5391 57.5762 49.1816 57.5762C50.0384 57.5762 50.7448 57.9225 51.3008 58.6152V57.7402H52.4355V64.0156C52.4355 65.1458 52.3193 65.9456 52.0869 66.415C51.859 66.889 51.4945 67.2627 50.9932 67.5361C50.4964 67.8096 49.8835 67.9463 49.1543 67.9463C48.2884 67.9463 47.5889 67.7503 47.0557 67.3584C46.5225 66.971 46.265 66.3854 46.2832 65.6016ZM47.3018 61.2402C47.3018 62.1927 47.4909 62.8877 47.8691 63.3252C48.2474 63.7627 48.7214 63.9814 49.291 63.9814C49.8561 63.9814 50.3301 63.765 50.7129 63.332C51.0957 62.8945 51.2871 62.2109 51.2871 61.2812C51.2871 60.3926 51.0889 59.7227 50.6924 59.2715C50.3005 58.8203 49.8265 58.5947 49.2705 58.5947C48.7236 58.5947 48.2588 58.818 47.876 59.2646C47.4932 59.7067 47.3018 60.3652 47.3018 61.2402ZM54.2881 65V57.7402H55.3955V58.8408C55.6781 58.3258 55.9378 57.9863 56.1748 57.8223C56.4163 57.6582 56.6807 57.5762 56.9678 57.5762C57.3825 57.5762 57.804 57.7083 58.2324 57.9727L57.8086 59.1143C57.5078 58.9365 57.207 58.8477 56.9062 58.8477C56.6374 58.8477 56.3958 58.9297 56.1816 59.0938C55.9674 59.2533 55.8148 59.4766 55.7236 59.7637C55.5869 60.2012 55.5186 60.6797 55.5186 61.1992V65H54.2881ZM58.5059 61.3701C58.5059 60.0257 58.8796 59.0299 59.627 58.3828C60.2513 57.8451 61.0124 57.5762 61.9102 57.5762C62.9082 57.5762 63.724 57.9043 64.3574 58.5605C64.9909 59.2122 65.3076 60.1146 65.3076 61.2676C65.3076 62.2018 65.1663 62.9378 64.8838 63.4756C64.6058 64.0088 64.1979 64.4235 63.6602 64.7197C63.127 65.016 62.5436 65.1641 61.9102 65.1641C60.8939 65.1641 60.0713 64.8382 59.4424 64.1865C58.818 63.5348 58.5059 62.596 58.5059 61.3701ZM59.7705 61.3701C59.7705 62.2998 59.9733 62.9971 60.3789 63.4619C60.7845 63.9222 61.2949 64.1523 61.9102 64.1523C62.5208 64.1523 63.029 63.9199 63.4346 63.4551C63.8402 62.9902 64.043 62.2816 64.043 61.3291C64.043 60.4313 63.8379 59.7523 63.4277 59.292C63.0221 58.8271 62.5163 58.5947 61.9102 58.5947C61.2949 58.5947 60.7845 58.8249 60.3789 59.2852C59.9733 59.7454 59.7705 60.4404 59.7705 61.3701ZM71.5146 65V63.9336C70.9495 64.7539 70.1816 65.1641 69.2109 65.1641C68.7826 65.1641 68.3815 65.082 68.0078 64.918C67.6387 64.7539 67.363 64.5488 67.1807 64.3027C67.0029 64.0521 66.8776 63.7467 66.8047 63.3867C66.7546 63.1452 66.7295 62.7624 66.7295 62.2383V57.7402H67.96V61.7666C67.96 62.4092 67.985 62.8421 68.0352 63.0654C68.1126 63.389 68.2767 63.6442 68.5273 63.8311C68.778 64.0133 69.0879 64.1045 69.457 64.1045C69.8262 64.1045 70.1725 64.0111 70.4961 63.8242C70.8197 63.6328 71.0475 63.3753 71.1797 63.0518C71.3164 62.7236 71.3848 62.2497 71.3848 61.6299V57.7402H72.6152V65H71.5146ZM74.5498 65V57.7402H75.6572V58.7725C76.1904 57.9749 76.9606 57.5762 77.9678 57.5762C78.4053 57.5762 78.8063 57.6559 79.1709 57.8154C79.54 57.9704 79.8158 58.1755 79.998 58.4307C80.1803 58.6859 80.3079 58.9889 80.3809 59.3398C80.4264 59.5677 80.4492 59.9665 80.4492 60.5361V65H79.2188V60.584C79.2188 60.0827 79.1709 59.709 79.0752 59.4629C78.9795 59.2122 78.8086 59.014 78.5625 58.8682C78.321 58.7178 78.0361 58.6426 77.708 58.6426C77.1839 58.6426 76.7305 58.8089 76.3477 59.1416C75.9694 59.4743 75.7803 60.1055 75.7803 61.0352V65H74.5498ZM87.0527 65V64.084C86.5924 64.804 85.9157 65.1641 85.0225 65.1641C84.4437 65.1641 83.9105 65.0046 83.4229 64.6855C82.9398 64.3665 82.5638 63.9222 82.2949 63.3525C82.0306 62.7783 81.8984 62.1198 81.8984 61.377C81.8984 60.6523 82.0192 59.9961 82.2607 59.4082C82.5023 58.8158 82.8646 58.3623 83.3477 58.0479C83.8307 57.7334 84.3708 57.5762 84.9678 57.5762C85.4053 57.5762 85.7949 57.6696 86.1367 57.8564C86.4785 58.0387 86.7565 58.278 86.9707 58.5742V54.9785H88.1943V65H87.0527ZM83.1631 61.377C83.1631 62.3066 83.359 63.0016 83.751 63.4619C84.1429 63.9222 84.6055 64.1523 85.1387 64.1523C85.6764 64.1523 86.1322 63.9336 86.5059 63.4961C86.8841 63.054 87.0732 62.3818 87.0732 61.4795C87.0732 60.486 86.8818 59.7568 86.499 59.292C86.1162 58.8271 85.6445 58.5947 85.084 58.5947C84.5371 58.5947 84.0791 58.818 83.71 59.2646C83.3454 59.7113 83.1631 60.4154 83.1631 61.377ZM89.2129 65.1709L92.1182 54.8076H93.1025L90.2041 65.1709H89.2129ZM95.167 65H94.0254V54.9785H95.2559V58.5537C95.7754 57.902 96.4385 57.5762 97.2451 57.5762C97.6917 57.5762 98.1133 57.6673 98.5098 57.8496C98.9108 58.0273 99.2389 58.2803 99.4941 58.6084C99.7539 58.932 99.9567 59.3239 100.103 59.7842C100.248 60.2445 100.321 60.7367 100.321 61.2607C100.321 62.5049 100.014 63.4665 99.3984 64.1455C98.7832 64.8245 98.0449 65.1641 97.1836 65.1641C96.3268 65.1641 95.6546 64.8063 95.167 64.0908V65ZM95.1533 61.3154C95.1533 62.1859 95.2718 62.8148 95.5088 63.2021C95.8962 63.8356 96.4202 64.1523 97.0811 64.1523C97.6188 64.1523 98.0837 63.9199 98.4756 63.4551C98.8675 62.9857 99.0635 62.2884 99.0635 61.3633C99.0635 60.4154 98.8743 59.7158 98.4961 59.2646C98.1224 58.8135 97.6689 58.5879 97.1357 58.5879C96.598 58.5879 96.1331 58.8226 95.7412 59.292C95.3493 59.7568 95.1533 60.4313 95.1533 61.3154ZM101.812 65V57.7402H102.919V58.8408C103.201 58.3258 103.461 57.9863 103.698 57.8223C103.94 57.6582 104.204 57.5762 104.491 57.5762C104.906 57.5762 105.327 57.7083 105.756 57.9727L105.332 59.1143C105.031 58.9365 104.73 58.8477 104.43 58.8477C104.161 58.8477 103.919 58.9297 103.705 59.0938C103.491 59.2533 103.338 59.4766 103.247 59.7637C103.11 60.2012 103.042 60.6797 103.042 61.1992V65H101.812ZM111.225 64.1045C110.769 64.4919 110.329 64.7653 109.905 64.9248C109.486 65.0843 109.035 65.1641 108.552 65.1641C107.754 65.1641 107.141 64.9704 106.713 64.583C106.285 64.1911 106.07 63.6921 106.07 63.0859C106.07 62.7305 106.15 62.4069 106.31 62.1152C106.474 61.819 106.686 61.582 106.945 61.4043C107.21 61.2266 107.506 61.0921 107.834 61.001C108.076 60.9372 108.44 60.8757 108.928 60.8164C109.921 60.6979 110.653 60.5566 111.122 60.3926C111.127 60.224 111.129 60.1169 111.129 60.0713C111.129 59.57 111.013 59.2168 110.78 59.0117C110.466 58.7337 109.999 58.5947 109.379 58.5947C108.8 58.5947 108.372 58.6973 108.094 58.9023C107.82 59.1029 107.618 59.4606 107.485 59.9756L106.282 59.8115C106.392 59.2965 106.572 58.8818 106.822 58.5674C107.073 58.2484 107.435 58.0046 107.909 57.8359C108.383 57.6628 108.932 57.5762 109.557 57.5762C110.176 57.5762 110.68 57.6491 111.067 57.7949C111.455 57.9408 111.74 58.1253 111.922 58.3486C112.104 58.5674 112.232 58.8454 112.305 59.1826C112.346 59.3923 112.366 59.7705 112.366 60.3174V61.958C112.366 63.1019 112.391 63.8265 112.441 64.1318C112.496 64.4326 112.601 64.722 112.756 65H111.471C111.343 64.7448 111.261 64.4463 111.225 64.1045ZM111.122 61.3564C110.675 61.5387 110.006 61.6937 109.112 61.8213C108.606 61.8942 108.249 61.9762 108.039 62.0674C107.829 62.1585 107.668 62.293 107.554 62.4707C107.44 62.6439 107.383 62.8376 107.383 63.0518C107.383 63.3799 107.506 63.6533 107.752 63.8721C108.003 64.0908 108.367 64.2002 108.846 64.2002C109.32 64.2002 109.741 64.0977 110.11 63.8926C110.479 63.6829 110.751 63.3981 110.924 63.0381C111.056 62.7601 111.122 62.3499 111.122 61.8076V61.3564ZM114.28 65V57.7402H115.388V58.7725C115.921 57.9749 116.691 57.5762 117.698 57.5762C118.136 57.5762 118.537 57.6559 118.901 57.8154C119.271 57.9704 119.546 58.1755 119.729 58.4307C119.911 58.6859 120.038 58.9889 120.111 59.3398C120.157 59.5677 120.18 59.9665 120.18 60.5361V65H118.949V60.584C118.949 60.0827 118.901 59.709 118.806 59.4629C118.71 59.2122 118.539 59.014 118.293 58.8682C118.051 58.7178 117.767 58.6426 117.438 58.6426C116.914 58.6426 116.461 58.8089 116.078 59.1416C115.7 59.4743 115.511 60.1055 115.511 61.0352V65H114.28ZM126.783 65V64.084C126.323 64.804 125.646 65.1641 124.753 65.1641C124.174 65.1641 123.641 65.0046 123.153 64.6855C122.67 64.3665 122.294 63.9222 122.025 63.3525C121.761 62.7783 121.629 62.1198 121.629 61.377C121.629 60.6523 121.75 59.9961 121.991 59.4082C122.233 58.8158 122.595 58.3623 123.078 58.0479C123.561 57.7334 124.101 57.5762 124.698 57.5762C125.136 57.5762 125.525 57.6696 125.867 57.8564C126.209 58.0387 126.487 58.278 126.701 58.5742V54.9785H127.925V65H126.783ZM122.894 61.377C122.894 62.3066 123.09 63.0016 123.481 63.4619C123.873 63.9222 124.336 64.1523 124.869 64.1523C125.407 64.1523 125.863 63.9336 126.236 63.4961C126.615 63.054 126.804 62.3818 126.804 61.4795C126.804 60.486 126.612 59.7568 126.229 59.292C125.847 58.8271 125.375 58.5947 124.814 58.5947C124.268 58.5947 123.81 58.818 123.44 59.2646C123.076 59.7113 122.894 60.4154 122.894 61.377ZM129.388 61.9922V60.7549H133.168V61.9922H129.388ZM139.238 65V64.084C138.778 64.804 138.101 65.1641 137.208 65.1641C136.629 65.1641 136.096 65.0046 135.608 64.6855C135.125 64.3665 134.749 63.9222 134.48 63.3525C134.216 62.7783 134.084 62.1198 134.084 61.377C134.084 60.6523 134.205 59.9961 134.446 59.4082C134.688 58.8158 135.05 58.3623 135.533 58.0479C136.016 57.7334 136.556 57.5762 137.153 57.5762C137.591 57.5762 137.98 57.6696 138.322 57.8564C138.664 58.0387 138.942 58.278 139.156 58.5742V54.9785H140.38V65H139.238ZM135.349 61.377C135.349 62.3066 135.545 63.0016 135.937 63.4619C136.328 63.9222 136.791 64.1523 137.324 64.1523C137.862 64.1523 138.318 63.9336 138.691 63.4961C139.07 63.054 139.259 62.3818 139.259 61.4795C139.259 60.486 139.067 59.7568 138.685 59.292C138.302 58.8271 137.83 58.5947 137.27 58.5947C136.723 58.5947 136.265 58.818 135.896 59.2646C135.531 59.7113 135.349 60.4154 135.349 61.377ZM147.291 62.6621L148.562 62.8193C148.362 63.5622 147.991 64.1387 147.448 64.5488C146.906 64.959 146.213 65.1641 145.37 65.1641C144.308 65.1641 143.465 64.8382 142.841 64.1865C142.221 63.5303 141.911 62.612 141.911 61.4316C141.911 60.2103 142.226 59.2624 142.854 58.5879C143.483 57.9134 144.299 57.5762 145.302 57.5762C146.272 57.5762 147.065 57.9066 147.681 58.5674C148.296 59.2282 148.604 60.1579 148.604 61.3564C148.604 61.4294 148.601 61.5387 148.597 61.6846H143.183C143.228 62.4821 143.454 63.0928 143.859 63.5166C144.265 63.9404 144.771 64.1523 145.377 64.1523C145.828 64.1523 146.213 64.0339 146.532 63.7969C146.851 63.5599 147.104 63.1816 147.291 62.6621ZM143.251 60.6729H147.305C147.25 60.0622 147.095 59.6042 146.84 59.2988C146.448 58.8249 145.94 58.5879 145.315 58.5879C144.75 58.5879 144.274 58.777 143.887 59.1553C143.504 59.5335 143.292 60.0394 143.251 60.6729ZM150.408 65V58.6973H149.321V57.7402H150.408V56.9678C150.408 56.4801 150.451 56.1178 150.538 55.8809C150.657 55.5618 150.864 55.3044 151.16 55.1084C151.461 54.9079 151.88 54.8076 152.418 54.8076C152.764 54.8076 153.147 54.8486 153.566 54.9307L153.382 56.0039C153.127 55.9583 152.885 55.9355 152.657 55.9355C152.284 55.9355 152.019 56.0153 151.864 56.1748C151.709 56.3343 151.632 56.6328 151.632 57.0703V57.7402H153.047V58.6973H151.632V65H150.408ZM158.748 64.1045C158.292 64.4919 157.853 64.7653 157.429 64.9248C157.009 65.0843 156.558 65.1641 156.075 65.1641C155.278 65.1641 154.665 64.9704 154.236 64.583C153.808 64.1911 153.594 63.6921 153.594 63.0859C153.594 62.7305 153.674 62.4069 153.833 62.1152C153.997 61.819 154.209 61.582 154.469 61.4043C154.733 61.2266 155.029 61.0921 155.357 61.001C155.599 60.9372 155.964 60.8757 156.451 60.8164C157.445 60.6979 158.176 60.5566 158.646 60.3926C158.65 60.224 158.652 60.1169 158.652 60.0713C158.652 59.57 158.536 59.2168 158.304 59.0117C157.989 58.7337 157.522 58.5947 156.902 58.5947C156.324 58.5947 155.895 58.6973 155.617 58.9023C155.344 59.1029 155.141 59.4606 155.009 59.9756L153.806 59.8115C153.915 59.2965 154.095 58.8818 154.346 58.5674C154.596 58.2484 154.959 58.0046 155.433 57.8359C155.907 57.6628 156.456 57.5762 157.08 57.5762C157.7 57.5762 158.203 57.6491 158.591 57.7949C158.978 57.9408 159.263 58.1253 159.445 58.3486C159.628 58.5674 159.755 58.8454 159.828 59.1826C159.869 59.3923 159.89 59.7705 159.89 60.3174V61.958C159.89 63.1019 159.915 63.8265 159.965 64.1318C160.02 64.4326 160.124 64.722 160.279 65H158.994C158.867 64.7448 158.785 64.4463 158.748 64.1045ZM158.646 61.3564C158.199 61.5387 157.529 61.6937 156.636 61.8213C156.13 61.8942 155.772 61.9762 155.562 62.0674C155.353 62.1585 155.191 62.293 155.077 62.4707C154.963 62.6439 154.906 62.8376 154.906 63.0518C154.906 63.3799 155.029 63.6533 155.275 63.8721C155.526 64.0908 155.891 64.2002 156.369 64.2002C156.843 64.2002 157.265 64.0977 157.634 63.8926C158.003 63.6829 158.274 63.3981 158.447 63.0381C158.579 62.7601 158.646 62.3499 158.646 61.8076V61.3564ZM166.562 65V63.9336C165.996 64.7539 165.229 65.1641 164.258 65.1641C163.829 65.1641 163.428 65.082 163.055 64.918C162.686 64.7539 162.41 64.5488 162.228 64.3027C162.05 64.0521 161.924 63.7467 161.852 63.3867C161.801 63.1452 161.776 62.7624 161.776 62.2383V57.7402H163.007V61.7666C163.007 62.4092 163.032 62.8421 163.082 63.0654C163.16 63.389 163.324 63.6442 163.574 63.8311C163.825 64.0133 164.135 64.1045 164.504 64.1045C164.873 64.1045 165.219 64.0111 165.543 63.8242C165.867 63.6328 166.094 63.3753 166.227 63.0518C166.363 62.7236 166.432 62.2497 166.432 61.6299V57.7402H167.662V65H166.562ZM169.569 65V54.9785H170.8V65H169.569ZM175.4 63.8994L175.578 64.9863C175.232 65.0592 174.922 65.0957 174.648 65.0957C174.202 65.0957 173.855 65.0251 173.609 64.8838C173.363 64.7425 173.19 64.5579 173.09 64.3301C172.99 64.0977 172.939 63.6123 172.939 62.874V58.6973H172.037V57.7402H172.939V55.9424L174.163 55.2041V57.7402H175.4V58.6973H174.163V62.9424C174.163 63.2933 174.184 63.5189 174.225 63.6191C174.27 63.7194 174.341 63.7992 174.437 63.8584C174.537 63.9176 174.678 63.9473 174.86 63.9473C174.997 63.9473 175.177 63.9313 175.4 63.8994Z" fill="#3E3E3D"/>
<path d="M0 85H356V86H0V85Z" fill="#CDCCCB"/>
<path d="M374.058 65H372.916V54.9785H374.146V58.5537C374.666 57.902 375.329 57.5762 376.136 57.5762C376.582 57.5762 377.004 57.6673 377.4 57.8496C377.801 58.0273 378.13 58.2803 378.385 58.6084C378.645 58.932 378.847 59.3239 378.993 59.7842C379.139 60.2445 379.212 60.7367 379.212 61.2607C379.212 62.5049 378.904 63.4665 378.289 64.1455C377.674 64.8245 376.936 65.1641 376.074 65.1641C375.217 65.1641 374.545 64.8063 374.058 64.0908V65ZM374.044 61.3154C374.044 62.1859 374.162 62.8148 374.399 63.2021C374.787 63.8356 375.311 64.1523 375.972 64.1523C376.509 64.1523 376.974 63.9199 377.366 63.4551C377.758 62.9857 377.954 62.2884 377.954 61.3633C377.954 60.4154 377.765 59.7158 377.387 59.2646C377.013 58.8135 376.56 58.5879 376.026 58.5879C375.489 58.5879 375.024 58.8226 374.632 59.292C374.24 59.7568 374.044 60.4313 374.044 61.3154ZM380.688 65V54.9785H381.919V65H380.688ZM388.803 62.6621L390.074 62.8193C389.874 63.5622 389.502 64.1387 388.96 64.5488C388.418 64.959 387.725 65.1641 386.882 65.1641C385.82 65.1641 384.977 64.8382 384.353 64.1865C383.733 63.5303 383.423 62.612 383.423 61.4316C383.423 60.2103 383.737 59.2624 384.366 58.5879C384.995 57.9134 385.811 57.5762 386.813 57.5762C387.784 57.5762 388.577 57.9066 389.192 58.5674C389.808 59.2282 390.115 60.1579 390.115 61.3564C390.115 61.4294 390.113 61.5387 390.108 61.6846H384.694C384.74 62.4821 384.965 63.0928 385.371 63.5166C385.777 63.9404 386.283 64.1523 386.889 64.1523C387.34 64.1523 387.725 64.0339 388.044 63.7969C388.363 63.5599 388.616 63.1816 388.803 62.6621ZM384.763 60.6729H388.816C388.762 60.0622 388.607 59.6042 388.352 59.2988C387.96 58.8249 387.451 58.5879 386.827 58.5879C386.262 58.5879 385.786 58.777 385.398 59.1553C385.016 59.5335 384.804 60.0394 384.763 60.6729ZM396.384 65V63.9336C395.819 64.7539 395.051 65.1641 394.08 65.1641C393.652 65.1641 393.251 65.082 392.877 64.918C392.508 64.7539 392.232 64.5488 392.05 64.3027C391.872 64.0521 391.747 63.7467 391.674 63.3867C391.624 63.1452 391.599 62.7624 391.599 62.2383V57.7402H392.829V61.7666C392.829 62.4092 392.854 62.8421 392.904 63.0654C392.982 63.389 393.146 63.6442 393.396 63.8311C393.647 64.0133 393.957 64.1045 394.326 64.1045C394.695 64.1045 395.042 64.0111 395.365 63.8242C395.689 63.6328 395.917 63.3753 396.049 63.0518C396.186 62.7236 396.254 62.2497 396.254 61.6299V57.7402H397.484V65H396.384ZM398.94 61.9922V60.7549H402.721V61.9922H398.94ZM404.088 56.3936V54.9785H405.318V56.3936H404.088ZM404.088 65V57.7402H405.318V65H404.088ZM411.936 62.3408L413.146 62.498C413.013 63.332 412.674 63.986 412.127 64.46C411.585 64.9294 410.917 65.1641 410.124 65.1641C409.131 65.1641 408.331 64.8405 407.725 64.1934C407.123 63.5417 406.822 62.6097 406.822 61.3975C406.822 60.6136 406.952 59.9277 407.212 59.3398C407.472 58.752 407.866 58.3122 408.395 58.0205C408.928 57.7243 409.507 57.5762 410.131 57.5762C410.919 57.5762 411.564 57.7767 412.065 58.1777C412.567 58.5742 412.888 59.1393 413.029 59.873L411.833 60.0576C411.719 59.57 411.516 59.2031 411.225 58.957C410.938 58.7109 410.589 58.5879 410.179 58.5879C409.559 58.5879 409.055 58.8112 408.668 59.2578C408.281 59.6999 408.087 60.4017 408.087 61.3633C408.087 62.3385 408.274 63.0472 408.647 63.4893C409.021 63.9313 409.509 64.1523 410.11 64.1523C410.593 64.1523 410.997 64.0042 411.32 63.708C411.644 63.4118 411.849 62.9561 411.936 62.3408ZM419.168 62.6621L420.439 62.8193C420.239 63.5622 419.868 64.1387 419.325 64.5488C418.783 64.959 418.09 65.1641 417.247 65.1641C416.185 65.1641 415.342 64.8382 414.718 64.1865C414.098 63.5303 413.788 62.612 413.788 61.4316C413.788 60.2103 414.103 59.2624 414.731 58.5879C415.36 57.9134 416.176 57.5762 417.179 57.5762C418.149 57.5762 418.942 57.9066 419.558 58.5674C420.173 59.2282 420.48 60.1579 420.48 61.3564C420.48 61.4294 420.478 61.5387 420.474 61.6846H415.06C415.105 62.4821 415.331 63.0928 415.736 63.5166C416.142 63.9404 416.648 64.1523 417.254 64.1523C417.705 64.1523 418.09 64.0339 418.409 63.7969C418.728 63.5599 418.981 63.1816 419.168 62.6621ZM415.128 60.6729H419.182C419.127 60.0622 418.972 59.6042 418.717 59.2988C418.325 58.8249 417.817 58.5879 417.192 58.5879C416.627 58.5879 416.151 58.777 415.764 59.1553C415.381 59.5335 415.169 60.0394 415.128 60.6729ZM423.126 65H421.984V54.9785H423.215V58.5537C423.734 57.902 424.397 57.5762 425.204 57.5762C425.651 57.5762 426.072 57.6673 426.469 57.8496C426.87 58.0273 427.198 58.2803 427.453 58.6084C427.713 58.932 427.916 59.3239 428.062 59.7842C428.207 60.2445 428.28 60.7367 428.28 61.2607C428.28 62.5049 427.973 63.4665 427.357 64.1455C426.742 64.8245 426.004 65.1641 425.143 65.1641C424.286 65.1641 423.614 64.8063 423.126 64.0908V65ZM423.112 61.3154C423.112 62.1859 423.231 62.8148 423.468 63.2021C423.855 63.8356 424.379 64.1523 425.04 64.1523C425.578 64.1523 426.043 63.9199 426.435 63.4551C426.826 62.9857 427.022 62.2884 427.022 61.3633C427.022 60.4154 426.833 59.7158 426.455 59.2646C426.081 58.8135 425.628 58.5879 425.095 58.5879C424.557 58.5879 424.092 58.8226 423.7 59.292C423.308 59.7568 423.112 60.4313 423.112 61.3154ZM434.754 62.6621L436.025 62.8193C435.825 63.5622 435.453 64.1387 434.911 64.5488C434.369 64.959 433.676 65.1641 432.833 65.1641C431.771 65.1641 430.928 64.8382 430.304 64.1865C429.684 63.5303 429.374 62.612 429.374 61.4316C429.374 60.2103 429.688 59.2624 430.317 58.5879C430.946 57.9134 431.762 57.5762 432.765 57.5762C433.735 57.5762 434.528 57.9066 435.144 58.5674C435.759 59.2282 436.066 60.1579 436.066 61.3564C436.066 61.4294 436.064 61.5387 436.06 61.6846H430.646C430.691 62.4821 430.917 63.0928 431.322 63.5166C431.728 63.9404 432.234 64.1523 432.84 64.1523C433.291 64.1523 433.676 64.0339 433.995 63.7969C434.314 63.5599 434.567 63.1816 434.754 62.6621ZM430.714 60.6729H434.768C434.713 60.0622 434.558 59.6042 434.303 59.2988C433.911 58.8249 433.403 58.5879 432.778 58.5879C432.213 58.5879 431.737 58.777 431.35 59.1553C430.967 59.5335 430.755 60.0394 430.714 60.6729ZM437.563 65V57.7402H438.671V58.8408C438.953 58.3258 439.213 57.9863 439.45 57.8223C439.692 57.6582 439.956 57.5762 440.243 57.5762C440.658 57.5762 441.079 57.7083 441.508 57.9727L441.084 59.1143C440.783 58.9365 440.482 58.8477 440.182 58.8477C439.913 58.8477 439.671 58.9297 439.457 59.0938C439.243 59.2533 439.09 59.4766 438.999 59.7637C438.862 60.2012 438.794 60.6797 438.794 61.1992V65H437.563ZM442.014 65.6016L443.21 65.7793C443.26 66.1484 443.399 66.4173 443.627 66.5859C443.932 66.8138 444.349 66.9277 444.878 66.9277C445.448 66.9277 445.887 66.8138 446.197 66.5859C446.507 66.3581 446.717 66.0391 446.826 65.6289C446.89 65.3783 446.92 64.8519 446.915 64.0498C446.377 64.6833 445.707 65 444.905 65C443.907 65 443.135 64.64 442.588 63.9199C442.041 63.1999 441.768 62.3363 441.768 61.3291C441.768 60.6364 441.893 59.9984 442.144 59.415C442.394 58.8271 442.757 58.3737 443.23 58.0547C443.709 57.7357 444.27 57.5762 444.912 57.5762C445.769 57.5762 446.475 57.9225 447.031 58.6152V57.7402H448.166V64.0156C448.166 65.1458 448.05 65.9456 447.817 66.415C447.59 66.889 447.225 67.2627 446.724 67.5361C446.227 67.8096 445.614 67.9463 444.885 67.9463C444.019 67.9463 443.319 67.7503 442.786 67.3584C442.253 66.971 441.995 66.3854 442.014 65.6016ZM443.032 61.2402C443.032 62.1927 443.221 62.8877 443.6 63.3252C443.978 63.7627 444.452 63.9814 445.021 63.9814C445.587 63.9814 446.061 63.765 446.443 63.332C446.826 62.8945 447.018 62.2109 447.018 61.2812C447.018 60.3926 446.819 59.7227 446.423 59.2715C446.031 58.8203 445.557 58.5947 445.001 58.5947C444.454 58.5947 443.989 58.818 443.606 59.2646C443.224 59.7067 443.032 60.3652 443.032 61.2402ZM449.109 65.1709L452.015 54.8076H452.999L450.101 65.1709H449.109ZM459.972 57.4326L458.748 57.5283C458.639 57.0452 458.484 56.6943 458.283 56.4756C457.951 56.1247 457.54 55.9492 457.053 55.9492C456.661 55.9492 456.317 56.0586 456.021 56.2773C455.633 56.5599 455.328 56.9723 455.104 57.5146C454.881 58.057 454.765 58.8294 454.756 59.832C455.052 59.3809 455.414 59.0459 455.843 58.8271C456.271 58.6084 456.72 58.499 457.189 58.499C458.01 58.499 458.707 58.8021 459.281 59.4082C459.86 60.0098 460.149 60.7891 460.149 61.7461C460.149 62.375 460.013 62.9606 459.739 63.5029C459.47 64.0407 459.099 64.4531 458.625 64.7402C458.151 65.0273 457.613 65.1709 457.012 65.1709C455.986 65.1709 455.15 64.7949 454.503 64.043C453.856 63.2865 453.532 62.0423 453.532 60.3105C453.532 58.3737 453.89 56.9655 454.605 56.0859C455.23 55.3203 456.071 54.9375 457.128 54.9375C457.916 54.9375 458.561 55.1585 459.062 55.6006C459.568 56.0426 459.871 56.6533 459.972 57.4326ZM454.947 61.7529C454.947 62.1768 455.036 62.5824 455.214 62.9697C455.396 63.3571 455.649 63.6533 455.973 63.8584C456.296 64.0589 456.636 64.1592 456.991 64.1592C457.511 64.1592 457.957 63.9495 458.331 63.5303C458.705 63.111 458.892 62.5413 458.892 61.8213C458.892 61.1286 458.707 60.584 458.338 60.1875C457.969 59.7865 457.504 59.5859 456.943 59.5859C456.387 59.5859 455.916 59.7865 455.528 60.1875C455.141 60.584 454.947 61.1058 454.947 61.7529ZM461.38 60.0576C461.38 58.8727 461.501 57.9202 461.742 57.2002C461.988 56.4756 462.351 55.9173 462.829 55.5254C463.312 55.1335 463.918 54.9375 464.647 54.9375C465.185 54.9375 465.657 55.0469 466.062 55.2656C466.468 55.4798 466.803 55.792 467.067 56.2021C467.332 56.6077 467.539 57.1045 467.689 57.6924C467.84 58.2757 467.915 59.0641 467.915 60.0576C467.915 61.2334 467.794 62.1836 467.553 62.9082C467.311 63.6283 466.949 64.1865 466.466 64.583C465.987 64.9749 465.381 65.1709 464.647 65.1709C463.681 65.1709 462.923 64.8245 462.371 64.1318C461.71 63.2979 461.38 61.9398 461.38 60.0576ZM462.645 60.0576C462.645 61.7028 462.836 62.7988 463.219 63.3457C463.606 63.888 464.082 64.1592 464.647 64.1592C465.213 64.1592 465.687 63.8857 466.069 63.3389C466.457 62.792 466.65 61.6982 466.65 60.0576C466.65 58.4079 466.457 57.3118 466.069 56.7695C465.687 56.2272 465.208 55.9561 464.634 55.9561C464.069 55.9561 463.618 56.1953 463.28 56.6738C462.856 57.2845 462.645 58.4124 462.645 60.0576ZM469.173 60.0576C469.173 58.8727 469.294 57.9202 469.535 57.2002C469.781 56.4756 470.144 55.9173 470.622 55.5254C471.105 55.1335 471.711 54.9375 472.44 54.9375C472.978 54.9375 473.45 55.0469 473.855 55.2656C474.261 55.4798 474.596 55.792 474.86 56.2021C475.125 56.6077 475.332 57.1045 475.482 57.6924C475.633 58.2757 475.708 59.0641 475.708 60.0576C475.708 61.2334 475.587 62.1836 475.346 62.9082C475.104 63.6283 474.742 64.1865 474.259 64.583C473.78 64.9749 473.174 65.1709 472.44 65.1709C471.474 65.1709 470.715 64.8245 470.164 64.1318C469.503 63.2979 469.173 61.9398 469.173 60.0576ZM470.438 60.0576C470.438 61.7028 470.629 62.7988 471.012 63.3457C471.399 63.888 471.875 64.1592 472.44 64.1592C473.006 64.1592 473.479 63.8857 473.862 63.3389C474.25 62.792 474.443 61.6982 474.443 60.0576C474.443 58.4079 474.25 57.3118 473.862 56.7695C473.479 56.2272 473.001 55.9561 472.427 55.9561C471.862 55.9561 471.41 56.1953 471.073 56.6738C470.649 57.2845 470.438 58.4124 470.438 60.0576Z" fill="#3E3E3D"/>
<path d="M356 85H712V86H356V85Z" fill="#CDCCCB"/>
<path d="M16.4307 114.833L17.6475 114.642C17.7158 115.129 17.9049 115.503 18.2148 115.763C18.5293 116.022 18.9668 116.152 19.5273 116.152C20.0924 116.152 20.5117 116.038 20.7852 115.811C21.0586 115.578 21.1953 115.307 21.1953 114.997C21.1953 114.719 21.0745 114.5 20.833 114.341C20.6644 114.231 20.2451 114.092 19.5752 113.924C18.6729 113.696 18.0462 113.5 17.6953 113.336C17.349 113.167 17.0846 112.937 16.9023 112.646C16.7246 112.349 16.6357 112.023 16.6357 111.668C16.6357 111.344 16.7087 111.046 16.8545 110.772C17.0049 110.494 17.2077 110.264 17.4629 110.082C17.6543 109.941 17.9141 109.822 18.2422 109.727C18.5749 109.626 18.9303 109.576 19.3086 109.576C19.8783 109.576 20.3773 109.658 20.8057 109.822C21.2386 109.986 21.5576 110.21 21.7627 110.492C21.9678 110.77 22.109 111.144 22.1865 111.613L20.9834 111.777C20.9287 111.404 20.7692 111.112 20.5049 110.902C20.2451 110.693 19.876 110.588 19.3975 110.588C18.8324 110.588 18.429 110.681 18.1875 110.868C17.946 111.055 17.8252 111.274 17.8252 111.524C17.8252 111.684 17.8753 111.827 17.9756 111.955C18.0758 112.087 18.2331 112.197 18.4473 112.283C18.5703 112.329 18.9326 112.434 19.5342 112.598C20.4046 112.83 21.0107 113.021 21.3525 113.172C21.6989 113.318 21.9701 113.532 22.166 113.814C22.362 114.097 22.46 114.448 22.46 114.867C22.46 115.277 22.3392 115.665 22.0977 116.029C21.8607 116.389 21.5166 116.67 21.0654 116.87C20.6143 117.066 20.1038 117.164 19.5342 117.164C18.5908 117.164 17.8708 116.968 17.374 116.576C16.8818 116.184 16.5674 115.603 16.4307 114.833ZM23.9229 119.782V109.74H25.0439V110.684C25.3083 110.314 25.6068 110.039 25.9395 109.856C26.2721 109.67 26.6755 109.576 27.1494 109.576C27.7692 109.576 28.3161 109.736 28.79 110.055C29.264 110.374 29.6217 110.825 29.8633 111.408C30.1048 111.987 30.2256 112.623 30.2256 113.315C30.2256 114.058 30.0911 114.728 29.8223 115.325C29.5579 115.918 29.1706 116.373 28.6602 116.692C28.1543 117.007 27.6211 117.164 27.0605 117.164C26.6504 117.164 26.2812 117.077 25.9531 116.904C25.6296 116.731 25.363 116.512 25.1533 116.248V119.782H23.9229ZM25.0371 113.411C25.0371 114.345 25.2262 115.036 25.6045 115.482C25.9827 115.929 26.4408 116.152 26.9785 116.152C27.5254 116.152 27.9925 115.922 28.3799 115.462C28.7718 114.997 28.9678 114.279 28.9678 113.309C28.9678 112.383 28.7764 111.691 28.3936 111.23C28.0153 110.77 27.5618 110.54 27.0332 110.54C26.5091 110.54 26.0443 110.786 25.6387 111.278C25.2376 111.766 25.0371 112.477 25.0371 113.411ZM36.4531 116.104C35.9974 116.492 35.5576 116.765 35.1338 116.925C34.7145 117.084 34.2633 117.164 33.7803 117.164C32.9827 117.164 32.3698 116.97 31.9414 116.583C31.513 116.191 31.2988 115.692 31.2988 115.086C31.2988 114.73 31.3786 114.407 31.5381 114.115C31.7021 113.819 31.9141 113.582 32.1738 113.404C32.4382 113.227 32.7344 113.092 33.0625 113.001C33.304 112.937 33.6686 112.876 34.1562 112.816C35.1497 112.698 35.8812 112.557 36.3506 112.393C36.3551 112.224 36.3574 112.117 36.3574 112.071C36.3574 111.57 36.2412 111.217 36.0088 111.012C35.6943 110.734 35.2272 110.595 34.6074 110.595C34.0286 110.595 33.6003 110.697 33.3223 110.902C33.0488 111.103 32.846 111.461 32.7139 111.976L31.5107 111.812C31.6201 111.297 31.8001 110.882 32.0508 110.567C32.3014 110.248 32.6637 110.005 33.1377 109.836C33.6117 109.663 34.1608 109.576 34.7852 109.576C35.4049 109.576 35.9085 109.649 36.2959 109.795C36.6833 109.941 36.9681 110.125 37.1504 110.349C37.3327 110.567 37.4603 110.845 37.5332 111.183C37.5742 111.392 37.5947 111.771 37.5947 112.317V113.958C37.5947 115.102 37.6198 115.826 37.6699 116.132C37.7246 116.433 37.8294 116.722 37.9844 117H36.6992C36.5716 116.745 36.4896 116.446 36.4531 116.104ZM36.3506 113.356C35.904 113.539 35.234 113.694 34.3408 113.821C33.835 113.894 33.4772 113.976 33.2676 114.067C33.0579 114.159 32.8962 114.293 32.7822 114.471C32.6683 114.644 32.6113 114.838 32.6113 115.052C32.6113 115.38 32.7344 115.653 32.9805 115.872C33.2311 116.091 33.5957 116.2 34.0742 116.2C34.5482 116.2 34.9697 116.098 35.3389 115.893C35.708 115.683 35.9792 115.398 36.1523 115.038C36.2845 114.76 36.3506 114.35 36.3506 113.808V113.356ZM44.2461 114.341L45.4561 114.498C45.3239 115.332 44.9844 115.986 44.4375 116.46C43.8952 116.929 43.2275 117.164 42.4346 117.164C41.4411 117.164 40.6413 116.84 40.0352 116.193C39.4336 115.542 39.1328 114.61 39.1328 113.397C39.1328 112.614 39.2627 111.928 39.5225 111.34C39.7822 110.752 40.1764 110.312 40.7051 110.021C41.2383 109.724 41.8171 109.576 42.4414 109.576C43.2298 109.576 43.8747 109.777 44.376 110.178C44.8773 110.574 45.1986 111.139 45.3398 111.873L44.1436 112.058C44.0296 111.57 43.8268 111.203 43.5352 110.957C43.248 110.711 42.8994 110.588 42.4893 110.588C41.8695 110.588 41.3659 110.811 40.9785 111.258C40.5911 111.7 40.3975 112.402 40.3975 113.363C40.3975 114.339 40.5843 115.047 40.958 115.489C41.3317 115.931 41.8193 116.152 42.4209 116.152C42.904 116.152 43.3073 116.004 43.6309 115.708C43.9544 115.412 44.1595 114.956 44.2461 114.341ZM46.5156 108.394V106.979H47.7461V108.394H46.5156ZM46.5156 117V109.74H47.7461V117H46.5156ZM49.626 117V109.74H50.7334V110.772C51.2666 109.975 52.0368 109.576 53.0439 109.576C53.4814 109.576 53.8825 109.656 54.2471 109.815C54.6162 109.97 54.8919 110.175 55.0742 110.431C55.2565 110.686 55.3841 110.989 55.457 111.34C55.5026 111.568 55.5254 111.966 55.5254 112.536V117H54.2949V112.584C54.2949 112.083 54.2471 111.709 54.1514 111.463C54.0557 111.212 53.8848 111.014 53.6387 110.868C53.3971 110.718 53.1123 110.643 52.7842 110.643C52.2601 110.643 51.8066 110.809 51.4238 111.142C51.0456 111.474 50.8564 112.105 50.8564 113.035V117H49.626ZM57.1934 117.602L58.3896 117.779C58.4398 118.148 58.5788 118.417 58.8066 118.586C59.112 118.814 59.529 118.928 60.0576 118.928C60.6273 118.928 61.0671 118.814 61.377 118.586C61.6868 118.358 61.8965 118.039 62.0059 117.629C62.0697 117.378 62.0993 116.852 62.0947 116.05C61.557 116.683 60.887 117 60.085 117C59.0869 117 58.3145 116.64 57.7676 115.92C57.2207 115.2 56.9473 114.336 56.9473 113.329C56.9473 112.636 57.0726 111.998 57.3232 111.415C57.5739 110.827 57.9362 110.374 58.4102 110.055C58.8887 109.736 59.4492 109.576 60.0918 109.576C60.9486 109.576 61.6549 109.923 62.2109 110.615V109.74H63.3457V116.016C63.3457 117.146 63.2295 117.946 62.9971 118.415C62.7692 118.889 62.4046 119.263 61.9033 119.536C61.4066 119.81 60.7936 119.946 60.0645 119.946C59.1986 119.946 58.499 119.75 57.9658 119.358C57.4326 118.971 57.1751 118.385 57.1934 117.602ZM58.2119 113.24C58.2119 114.193 58.401 114.888 58.7793 115.325C59.1576 115.763 59.6315 115.981 60.2012 115.981C60.7663 115.981 61.2402 115.765 61.623 115.332C62.0059 114.895 62.1973 114.211 62.1973 113.281C62.1973 112.393 61.999 111.723 61.6025 111.271C61.2106 110.82 60.7367 110.595 60.1807 110.595C59.6338 110.595 59.1689 110.818 58.7861 111.265C58.4033 111.707 58.2119 112.365 58.2119 113.24ZM64.0771 119.782V118.894H72.2324V119.782H64.0771ZM72.6699 114.354L73.9004 114.19C74.0417 114.888 74.2809 115.391 74.6182 115.701C74.96 116.007 75.3747 116.159 75.8623 116.159C76.4411 116.159 76.9287 115.959 77.3252 115.558C77.7262 115.157 77.9268 114.66 77.9268 114.067C77.9268 113.502 77.7422 113.037 77.373 112.673C77.0039 112.304 76.5345 112.119 75.9648 112.119C75.7324 112.119 75.443 112.165 75.0967 112.256L75.2334 111.176C75.3154 111.185 75.3815 111.189 75.4316 111.189C75.9557 111.189 76.4274 111.053 76.8467 110.779C77.266 110.506 77.4756 110.084 77.4756 109.515C77.4756 109.063 77.3229 108.69 77.0176 108.394C76.7122 108.097 76.318 107.949 75.835 107.949C75.3564 107.949 74.9577 108.1 74.6387 108.4C74.3197 108.701 74.1146 109.152 74.0234 109.754L72.793 109.535C72.9434 108.71 73.2852 108.072 73.8184 107.621C74.3516 107.165 75.0146 106.938 75.8076 106.938C76.3545 106.938 76.8581 107.056 77.3184 107.293C77.7786 107.525 78.1296 107.844 78.3711 108.25C78.6172 108.656 78.7402 109.086 78.7402 109.542C78.7402 109.975 78.624 110.369 78.3916 110.725C78.1592 111.08 77.8151 111.363 77.3594 111.572C77.9518 111.709 78.4121 111.994 78.7402 112.427C79.0684 112.855 79.2324 113.393 79.2324 114.04C79.2324 114.915 78.9134 115.658 78.2754 116.269C77.6374 116.875 76.8307 117.178 75.8555 117.178C74.9759 117.178 74.2445 116.916 73.6611 116.392C73.0824 115.868 72.752 115.188 72.6699 114.354ZM80.4561 112.058C80.4561 110.873 80.5768 109.92 80.8184 109.2C81.0645 108.476 81.4268 107.917 81.9053 107.525C82.3883 107.133 82.9945 106.938 83.7236 106.938C84.2614 106.938 84.7331 107.047 85.1387 107.266C85.5443 107.48 85.8792 107.792 86.1436 108.202C86.4079 108.608 86.6152 109.104 86.7656 109.692C86.916 110.276 86.9912 111.064 86.9912 112.058C86.9912 113.233 86.8704 114.184 86.6289 114.908C86.3874 115.628 86.0251 116.187 85.542 116.583C85.0635 116.975 84.4574 117.171 83.7236 117.171C82.7575 117.171 81.9987 116.825 81.4473 116.132C80.7865 115.298 80.4561 113.94 80.4561 112.058ZM81.7207 112.058C81.7207 113.703 81.9121 114.799 82.2949 115.346C82.6823 115.888 83.1585 116.159 83.7236 116.159C84.2887 116.159 84.7627 115.886 85.1455 115.339C85.5329 114.792 85.7266 113.698 85.7266 112.058C85.7266 110.408 85.5329 109.312 85.1455 108.77C84.7627 108.227 84.2842 107.956 83.71 107.956C83.1449 107.956 82.6937 108.195 82.3564 108.674C81.9326 109.285 81.7207 110.412 81.7207 112.058ZM88.249 112.058C88.249 110.873 88.3698 109.92 88.6113 109.2C88.8574 108.476 89.2197 107.917 89.6982 107.525C90.1813 107.133 90.7874 106.938 91.5166 106.938C92.0544 106.938 92.526 107.047 92.9316 107.266C93.3372 107.48 93.6722 107.792 93.9365 108.202C94.2008 108.608 94.4082 109.104 94.5586 109.692C94.709 110.276 94.7842 111.064 94.7842 112.058C94.7842 113.233 94.6634 114.184 94.4219 114.908C94.1803 115.628 93.818 116.187 93.335 116.583C92.8564 116.975 92.2503 117.171 91.5166 117.171C90.5505 117.171 89.7917 116.825 89.2402 116.132C88.5794 115.298 88.249 113.94 88.249 112.058ZM89.5137 112.058C89.5137 113.703 89.7051 114.799 90.0879 115.346C90.4753 115.888 90.9515 116.159 91.5166 116.159C92.0817 116.159 92.5557 115.886 92.9385 115.339C93.3258 114.792 93.5195 113.698 93.5195 112.058C93.5195 110.408 93.3258 109.312 92.9385 108.77C92.5557 108.227 92.0771 107.956 91.5029 107.956C90.9378 107.956 90.4867 108.195 90.1494 108.674C89.7256 109.285 89.5137 110.412 89.5137 112.058Z" fill="#3E3E3D"/>
<path d="M0 137H356V138H0V137Z" fill="#CDCCCB"/>
<path d="M379.048 115.817V117H372.424C372.415 116.704 372.463 116.419 372.567 116.146C372.736 115.694 373.005 115.25 373.374 114.812C373.748 114.375 374.285 113.869 374.987 113.295C376.076 112.402 376.812 111.695 377.195 111.176C377.578 110.652 377.77 110.157 377.77 109.692C377.77 109.205 377.594 108.795 377.243 108.462C376.897 108.125 376.443 107.956 375.883 107.956C375.29 107.956 374.816 108.134 374.461 108.489C374.105 108.845 373.925 109.337 373.921 109.966L372.656 109.836C372.743 108.893 373.069 108.175 373.634 107.683C374.199 107.186 374.958 106.938 375.91 106.938C376.872 106.938 377.633 107.204 378.193 107.737C378.754 108.271 379.034 108.931 379.034 109.72C379.034 110.121 378.952 110.515 378.788 110.902C378.624 111.29 378.351 111.698 377.968 112.126C377.59 112.554 376.958 113.142 376.074 113.89C375.336 114.509 374.862 114.931 374.652 115.154C374.443 115.373 374.27 115.594 374.133 115.817H379.048ZM384.318 117V114.601H379.971V113.473L384.544 106.979H385.549V113.473H386.902V114.601H385.549V117H384.318ZM384.318 113.473V108.954L381.181 113.473H384.318ZM394.757 119.946C394.078 119.09 393.504 118.087 393.034 116.938C392.565 115.79 392.33 114.601 392.33 113.37C392.33 112.285 392.506 111.246 392.856 110.253C393.267 109.1 393.9 107.951 394.757 106.808H395.639C395.087 107.756 394.723 108.432 394.545 108.838C394.267 109.467 394.048 110.123 393.889 110.807C393.693 111.659 393.595 112.516 393.595 113.377C393.595 115.569 394.276 117.759 395.639 119.946H394.757ZM397.067 119.782V109.74H398.188V110.684C398.453 110.314 398.751 110.039 399.084 109.856C399.417 109.67 399.82 109.576 400.294 109.576C400.914 109.576 401.461 109.736 401.935 110.055C402.409 110.374 402.766 110.825 403.008 111.408C403.249 111.987 403.37 112.623 403.37 113.315C403.37 114.058 403.236 114.728 402.967 115.325C402.702 115.918 402.315 116.373 401.805 116.692C401.299 117.007 400.766 117.164 400.205 117.164C399.795 117.164 399.426 117.077 399.098 116.904C398.774 116.731 398.507 116.512 398.298 116.248V119.782H397.067ZM398.182 113.411C398.182 114.345 398.371 115.036 398.749 115.482C399.127 115.929 399.585 116.152 400.123 116.152C400.67 116.152 401.137 115.922 401.524 115.462C401.916 114.997 402.112 114.279 402.112 113.309C402.112 112.383 401.921 111.691 401.538 111.23C401.16 110.77 400.706 110.54 400.178 110.54C399.654 110.54 399.189 110.786 398.783 111.278C398.382 111.766 398.182 112.477 398.182 113.411ZM404.04 117L406.692 113.227L404.238 109.74H405.776L406.891 111.442C407.1 111.766 407.269 112.037 407.396 112.256C407.597 111.955 407.782 111.688 407.95 111.456L409.174 109.74H410.644L408.135 113.158L410.835 117H409.324L407.834 114.744L407.438 114.136L405.53 117H404.04ZM412.667 119.946H411.785C413.148 117.759 413.829 115.569 413.829 113.377C413.829 112.52 413.731 111.67 413.535 110.827C413.38 110.144 413.164 109.487 412.886 108.858C412.708 108.448 412.341 107.765 411.785 106.808H412.667C413.524 107.951 414.157 109.1 414.567 110.253C414.918 111.246 415.094 112.285 415.094 113.37C415.094 114.601 414.857 115.79 414.383 116.938C413.913 118.087 413.341 119.09 412.667 119.946Z" fill="#3E3E3D"/>
<path d="M356 137H712V138H356V137Z" fill="#CDCCCB"/>
<path d="M21.6602 168.104C21.2044 168.492 20.7646 168.765 20.3408 168.925C19.9215 169.084 19.4704 169.164 18.9873 169.164C18.1898 169.164 17.5768 168.97 17.1484 168.583C16.7201 168.191 16.5059 167.692 16.5059 167.086C16.5059 166.73 16.5856 166.407 16.7451 166.115C16.9092 165.819 17.1211 165.582 17.3809 165.404C17.6452 165.227 17.9414 165.092 18.2695 165.001C18.5111 164.937 18.8757 164.876 19.3633 164.816C20.3568 164.698 21.0882 164.557 21.5576 164.393C21.5622 164.224 21.5645 164.117 21.5645 164.071C21.5645 163.57 21.4482 163.217 21.2158 163.012C20.9014 162.734 20.4342 162.595 19.8145 162.595C19.2357 162.595 18.8073 162.697 18.5293 162.902C18.2559 163.103 18.0531 163.461 17.9209 163.976L16.7178 163.812C16.8271 163.297 17.0072 162.882 17.2578 162.567C17.5085 162.248 17.8708 162.005 18.3447 161.836C18.8187 161.663 19.3678 161.576 19.9922 161.576C20.612 161.576 21.1156 161.649 21.5029 161.795C21.8903 161.941 22.1751 162.125 22.3574 162.349C22.5397 162.567 22.6673 162.845 22.7402 163.183C22.7812 163.392 22.8018 163.771 22.8018 164.317V165.958C22.8018 167.102 22.8268 167.826 22.877 168.132C22.9316 168.433 23.0365 168.722 23.1914 169H21.9062C21.7786 168.745 21.6966 168.446 21.6602 168.104ZM21.5576 165.356C21.111 165.539 20.4411 165.694 19.5479 165.821C19.042 165.894 18.6842 165.976 18.4746 166.067C18.265 166.159 18.1032 166.293 17.9893 166.471C17.8753 166.644 17.8184 166.838 17.8184 167.052C17.8184 167.38 17.9414 167.653 18.1875 167.872C18.4382 168.091 18.8027 168.2 19.2812 168.2C19.7552 168.2 20.1768 168.098 20.5459 167.893C20.915 167.683 21.1862 167.398 21.3594 167.038C21.4915 166.76 21.5576 166.35 21.5576 165.808V165.356ZM24.7158 169V161.74H25.8164V162.759C26.0443 162.403 26.3473 162.118 26.7256 161.904C27.1038 161.686 27.5345 161.576 28.0176 161.576C28.5553 161.576 28.9951 161.688 29.3369 161.911C29.6833 162.134 29.9271 162.447 30.0684 162.848C30.6426 162 31.39 161.576 32.3105 161.576C33.0306 161.576 33.5843 161.777 33.9717 162.178C34.359 162.574 34.5527 163.187 34.5527 164.017V169H33.3291V164.427C33.3291 163.935 33.2881 163.581 33.2061 163.367C33.1286 163.148 32.985 162.973 32.7754 162.841C32.5658 162.709 32.3197 162.643 32.0371 162.643C31.5267 162.643 31.1029 162.813 30.7656 163.155C30.4284 163.493 30.2598 164.035 30.2598 164.782V169H29.0293V164.283C29.0293 163.736 28.929 163.326 28.7285 163.053C28.528 162.779 28.1999 162.643 27.7441 162.643C27.3978 162.643 27.0765 162.734 26.7803 162.916C26.4886 163.098 26.2767 163.365 26.1445 163.716C26.0124 164.067 25.9463 164.573 25.9463 165.233V169H24.7158ZM37.5127 169H36.3711V158.979H37.6016V162.554C38.1211 161.902 38.7842 161.576 39.5908 161.576C40.0374 161.576 40.459 161.667 40.8555 161.85C41.2565 162.027 41.5846 162.28 41.8398 162.608C42.0996 162.932 42.3024 163.324 42.4482 163.784C42.5941 164.244 42.667 164.737 42.667 165.261C42.667 166.505 42.3594 167.466 41.7441 168.146C41.1289 168.825 40.3906 169.164 39.5293 169.164C38.6725 169.164 38.0003 168.806 37.5127 168.091V169ZM37.499 165.315C37.499 166.186 37.6175 166.815 37.8545 167.202C38.2419 167.836 38.766 168.152 39.4268 168.152C39.9645 168.152 40.4294 167.92 40.8213 167.455C41.2132 166.986 41.4092 166.288 41.4092 165.363C41.4092 164.415 41.2201 163.716 40.8418 163.265C40.4681 162.813 40.0146 162.588 39.4814 162.588C38.9437 162.588 38.4788 162.823 38.0869 163.292C37.695 163.757 37.499 164.431 37.499 165.315ZM44.1777 160.394V158.979H45.4082V160.394H44.1777ZM44.1777 169V161.74H45.4082V169H44.1777ZM52.2578 166.662L53.5293 166.819C53.3288 167.562 52.9574 168.139 52.415 168.549C51.8727 168.959 51.18 169.164 50.3369 169.164C49.2751 169.164 48.432 168.838 47.8076 168.187C47.1878 167.53 46.8779 166.612 46.8779 165.432C46.8779 164.21 47.1924 163.262 47.8213 162.588C48.4502 161.913 49.266 161.576 50.2686 161.576C51.2393 161.576 52.0322 161.907 52.6475 162.567C53.2627 163.228 53.5703 164.158 53.5703 165.356C53.5703 165.429 53.568 165.539 53.5635 165.685H48.1494C48.195 166.482 48.4206 167.093 48.8262 167.517C49.2318 167.94 49.7376 168.152 50.3438 168.152C50.7949 168.152 51.18 168.034 51.499 167.797C51.818 167.56 52.071 167.182 52.2578 166.662ZM48.2178 164.673H52.2715C52.2168 164.062 52.0618 163.604 51.8066 163.299C51.4147 162.825 50.9066 162.588 50.2822 162.588C49.7171 162.588 49.2409 162.777 48.8535 163.155C48.4707 163.534 48.2588 164.039 48.2178 164.673ZM55.0811 169V161.74H56.1885V162.772C56.7217 161.975 57.4919 161.576 58.499 161.576C58.9365 161.576 59.3376 161.656 59.7021 161.815C60.0713 161.97 60.347 162.175 60.5293 162.431C60.7116 162.686 60.8392 162.989 60.9121 163.34C60.9577 163.568 60.9805 163.966 60.9805 164.536V169H59.75V164.584C59.75 164.083 59.7021 163.709 59.6064 163.463C59.5107 163.212 59.3398 163.014 59.0938 162.868C58.8522 162.718 58.5674 162.643 58.2393 162.643C57.7152 162.643 57.2617 162.809 56.8789 163.142C56.5007 163.474 56.3115 164.105 56.3115 165.035V169H55.0811ZM65.5605 167.899L65.7383 168.986C65.3919 169.059 65.082 169.096 64.8086 169.096C64.362 169.096 64.0156 169.025 63.7695 168.884C63.5234 168.743 63.3503 168.558 63.25 168.33C63.1497 168.098 63.0996 167.612 63.0996 166.874V162.697H62.1973V161.74H63.0996V159.942L64.3232 159.204V161.74H65.5605V162.697H64.3232V166.942C64.3232 167.293 64.3438 167.519 64.3848 167.619C64.4303 167.719 64.501 167.799 64.5967 167.858C64.6969 167.918 64.8382 167.947 65.0205 167.947C65.1572 167.947 65.3372 167.931 65.5605 167.899ZM66.292 165.992V164.755H70.0723V165.992H66.292ZM70.9404 166.833L72.1572 166.642C72.2256 167.129 72.4147 167.503 72.7246 167.763C73.0391 168.022 73.4766 168.152 74.0371 168.152C74.6022 168.152 75.0215 168.038 75.2949 167.811C75.5684 167.578 75.7051 167.307 75.7051 166.997C75.7051 166.719 75.5843 166.5 75.3428 166.341C75.1742 166.231 74.7549 166.092 74.085 165.924C73.1826 165.696 72.556 165.5 72.2051 165.336C71.8587 165.167 71.5944 164.937 71.4121 164.646C71.2344 164.349 71.1455 164.023 71.1455 163.668C71.1455 163.344 71.2184 163.046 71.3643 162.772C71.5146 162.494 71.7174 162.264 71.9727 162.082C72.1641 161.941 72.4238 161.822 72.752 161.727C73.0846 161.626 73.4401 161.576 73.8184 161.576C74.388 161.576 74.887 161.658 75.3154 161.822C75.7484 161.986 76.0674 162.21 76.2725 162.492C76.4775 162.77 76.6188 163.144 76.6963 163.613L75.4932 163.777C75.4385 163.404 75.279 163.112 75.0146 162.902C74.7549 162.693 74.3857 162.588 73.9072 162.588C73.3421 162.588 72.9388 162.681 72.6973 162.868C72.4557 163.055 72.335 163.274 72.335 163.524C72.335 163.684 72.3851 163.827 72.4854 163.955C72.5856 164.087 72.7428 164.197 72.957 164.283C73.0801 164.329 73.4424 164.434 74.0439 164.598C74.9144 164.83 75.5205 165.021 75.8623 165.172C76.2087 165.318 76.4798 165.532 76.6758 165.814C76.8717 166.097 76.9697 166.448 76.9697 166.867C76.9697 167.277 76.849 167.665 76.6074 168.029C76.3704 168.389 76.0264 168.67 75.5752 168.87C75.124 169.066 74.6136 169.164 74.0439 169.164C73.1006 169.164 72.3805 168.968 71.8838 168.576C71.3916 168.184 71.0771 167.603 70.9404 166.833ZM78.4326 169V158.979H79.6631V162.574C80.2373 161.909 80.9619 161.576 81.8369 161.576C82.3747 161.576 82.8418 161.683 83.2383 161.897C83.6348 162.107 83.9173 162.399 84.0859 162.772C84.2591 163.146 84.3457 163.688 84.3457 164.399V169H83.1152V164.399C83.1152 163.784 82.9808 163.338 82.7119 163.06C82.4476 162.777 82.0716 162.636 81.584 162.636C81.2194 162.636 80.8753 162.731 80.5518 162.923C80.2327 163.11 80.0049 163.365 79.8682 163.688C79.7314 164.012 79.6631 164.459 79.6631 165.028V169H78.4326ZM90.9629 168.104C90.5072 168.492 90.0674 168.765 89.6436 168.925C89.2243 169.084 88.7731 169.164 88.29 169.164C87.4925 169.164 86.8796 168.97 86.4512 168.583C86.0228 168.191 85.8086 167.692 85.8086 167.086C85.8086 166.73 85.8883 166.407 86.0479 166.115C86.2119 165.819 86.4238 165.582 86.6836 165.404C86.9479 165.227 87.2441 165.092 87.5723 165.001C87.8138 164.937 88.1784 164.876 88.666 164.816C89.6595 164.698 90.391 164.557 90.8604 164.393C90.8649 164.224 90.8672 164.117 90.8672 164.071C90.8672 163.57 90.751 163.217 90.5186 163.012C90.2041 162.734 89.737 162.595 89.1172 162.595C88.5384 162.595 88.11 162.697 87.832 162.902C87.5586 163.103 87.3558 163.461 87.2236 163.976L86.0205 163.812C86.1299 163.297 86.3099 162.882 86.5605 162.567C86.8112 162.248 87.1735 162.005 87.6475 161.836C88.1214 161.663 88.6706 161.576 89.2949 161.576C89.9147 161.576 90.4183 161.649 90.8057 161.795C91.193 161.941 91.4779 162.125 91.6602 162.349C91.8424 162.567 91.9701 162.845 92.043 163.183C92.084 163.392 92.1045 163.771 92.1045 164.317V165.958C92.1045 167.102 92.1296 167.826 92.1797 168.132C92.2344 168.433 92.3392 168.722 92.4941 169H91.209C91.0814 168.745 90.9993 168.446 90.9629 168.104ZM90.8604 165.356C90.4137 165.539 89.7438 165.694 88.8506 165.821C88.3447 165.894 87.987 165.976 87.7773 166.067C87.5677 166.159 87.4059 166.293 87.292 166.471C87.1781 166.644 87.1211 166.838 87.1211 167.052C87.1211 167.38 87.2441 167.653 87.4902 167.872C87.7409 168.091 88.1055 168.2 88.584 168.2C89.0579 168.2 89.4795 168.098 89.8486 167.893C90.2178 167.683 90.4889 167.398 90.6621 167.038C90.7943 166.76 90.8604 166.35 90.8604 165.808V165.356ZM98.7285 169V168.084C98.2682 168.804 97.5915 169.164 96.6982 169.164C96.1195 169.164 95.5863 169.005 95.0986 168.686C94.6156 168.367 94.2396 167.922 93.9707 167.353C93.7064 166.778 93.5742 166.12 93.5742 165.377C93.5742 164.652 93.695 163.996 93.9365 163.408C94.1781 162.816 94.5404 162.362 95.0234 162.048C95.5065 161.733 96.0465 161.576 96.6436 161.576C97.0811 161.576 97.4707 161.67 97.8125 161.856C98.1543 162.039 98.4323 162.278 98.6465 162.574V158.979H99.8701V169H98.7285ZM94.8389 165.377C94.8389 166.307 95.0348 167.002 95.4268 167.462C95.8187 167.922 96.2812 168.152 96.8145 168.152C97.3522 168.152 97.8079 167.934 98.1816 167.496C98.5599 167.054 98.749 166.382 98.749 165.479C98.749 164.486 98.5576 163.757 98.1748 163.292C97.792 162.827 97.3203 162.595 96.7598 162.595C96.2129 162.595 95.7549 162.818 95.3857 163.265C95.0212 163.711 94.8389 164.415 94.8389 165.377ZM101.354 165.37C101.354 164.026 101.727 163.03 102.475 162.383C103.099 161.845 103.86 161.576 104.758 161.576C105.756 161.576 106.572 161.904 107.205 162.561C107.839 163.212 108.155 164.115 108.155 165.268C108.155 166.202 108.014 166.938 107.731 167.476C107.453 168.009 107.046 168.424 106.508 168.72C105.975 169.016 105.391 169.164 104.758 169.164C103.742 169.164 102.919 168.838 102.29 168.187C101.666 167.535 101.354 166.596 101.354 165.37ZM102.618 165.37C102.618 166.3 102.821 166.997 103.227 167.462C103.632 167.922 104.143 168.152 104.758 168.152C105.368 168.152 105.877 167.92 106.282 167.455C106.688 166.99 106.891 166.282 106.891 165.329C106.891 164.431 106.686 163.752 106.275 163.292C105.87 162.827 105.364 162.595 104.758 162.595C104.143 162.595 103.632 162.825 103.227 163.285C102.821 163.745 102.618 164.44 102.618 165.37ZM110.944 169L108.723 161.74H109.994L111.149 165.931L111.58 167.489C111.598 167.412 111.724 166.913 111.956 165.992L113.111 161.74H114.376L115.463 165.951L115.825 167.339L116.242 165.938L117.486 161.74H118.683L116.413 169H115.135L113.979 164.652L113.699 163.415L112.229 169H110.944ZM118.799 169.171L121.704 158.808H122.688L119.79 169.171H118.799ZM123.618 171.782V161.74H124.739V162.684C125.004 162.314 125.302 162.039 125.635 161.856C125.967 161.67 126.371 161.576 126.845 161.576C127.465 161.576 128.011 161.736 128.485 162.055C128.959 162.374 129.317 162.825 129.559 163.408C129.8 163.987 129.921 164.623 129.921 165.315C129.921 166.058 129.786 166.728 129.518 167.325C129.253 167.918 128.866 168.373 128.355 168.692C127.85 169.007 127.316 169.164 126.756 169.164C126.346 169.164 125.977 169.077 125.648 168.904C125.325 168.731 125.058 168.512 124.849 168.248V171.782H123.618ZM124.732 165.411C124.732 166.345 124.922 167.036 125.3 167.482C125.678 167.929 126.136 168.152 126.674 168.152C127.221 168.152 127.688 167.922 128.075 167.462C128.467 166.997 128.663 166.279 128.663 165.309C128.663 164.383 128.472 163.691 128.089 163.23C127.711 162.77 127.257 162.54 126.729 162.54C126.204 162.54 125.74 162.786 125.334 163.278C124.933 163.766 124.732 164.477 124.732 165.411ZM130.953 165.37C130.953 164.026 131.327 163.03 132.074 162.383C132.699 161.845 133.46 161.576 134.357 161.576C135.355 161.576 136.171 161.904 136.805 162.561C137.438 163.212 137.755 164.115 137.755 165.268C137.755 166.202 137.614 166.938 137.331 167.476C137.053 168.009 136.645 168.424 136.107 168.72C135.574 169.016 134.991 169.164 134.357 169.164C133.341 169.164 132.519 168.838 131.89 168.187C131.265 167.535 130.953 166.596 130.953 165.37ZM132.218 165.37C132.218 166.3 132.421 166.997 132.826 167.462C133.232 167.922 133.742 168.152 134.357 168.152C134.968 168.152 135.476 167.92 135.882 167.455C136.287 166.99 136.49 166.282 136.49 165.329C136.49 164.431 136.285 163.752 135.875 163.292C135.469 162.827 134.964 162.595 134.357 162.595C133.742 162.595 133.232 162.825 132.826 163.285C132.421 163.745 132.218 164.44 132.218 165.37ZM138.712 166.833L139.929 166.642C139.997 167.129 140.186 167.503 140.496 167.763C140.811 168.022 141.248 168.152 141.809 168.152C142.374 168.152 142.793 168.038 143.066 167.811C143.34 167.578 143.477 167.307 143.477 166.997C143.477 166.719 143.356 166.5 143.114 166.341C142.946 166.231 142.526 166.092 141.856 165.924C140.954 165.696 140.327 165.5 139.977 165.336C139.63 165.167 139.366 164.937 139.184 164.646C139.006 164.349 138.917 164.023 138.917 163.668C138.917 163.344 138.99 163.046 139.136 162.772C139.286 162.494 139.489 162.264 139.744 162.082C139.936 161.941 140.195 161.822 140.523 161.727C140.856 161.626 141.212 161.576 141.59 161.576C142.16 161.576 142.659 161.658 143.087 161.822C143.52 161.986 143.839 162.21 144.044 162.492C144.249 162.77 144.39 163.144 144.468 163.613L143.265 163.777C143.21 163.404 143.05 163.112 142.786 162.902C142.526 162.693 142.157 162.588 141.679 162.588C141.114 162.588 140.71 162.681 140.469 162.868C140.227 163.055 140.106 163.274 140.106 163.524C140.106 163.684 140.157 163.827 140.257 163.955C140.357 164.087 140.514 164.197 140.729 164.283C140.852 164.329 141.214 164.434 141.815 164.598C142.686 164.83 143.292 165.021 143.634 165.172C143.98 165.318 144.251 165.532 144.447 165.814C144.643 166.097 144.741 166.448 144.741 166.867C144.741 167.277 144.62 167.665 144.379 168.029C144.142 168.389 143.798 168.67 143.347 168.87C142.896 169.066 142.385 169.164 141.815 169.164C140.872 169.164 140.152 168.968 139.655 168.576C139.163 168.184 138.849 167.603 138.712 166.833ZM146.211 160.394V158.979H147.441V160.394H146.211ZM146.211 169V161.74H147.441V169H146.211ZM152.008 167.899L152.186 168.986C151.839 169.059 151.529 169.096 151.256 169.096C150.809 169.096 150.463 169.025 150.217 168.884C149.971 168.743 149.798 168.558 149.697 168.33C149.597 168.098 149.547 167.612 149.547 166.874V162.697H148.645V161.74H149.547V159.942L150.771 159.204V161.74H152.008V162.697H150.771V166.942C150.771 167.293 150.791 167.519 150.832 167.619C150.878 167.719 150.948 167.799 151.044 167.858C151.144 167.918 151.285 167.947 151.468 167.947C151.604 167.947 151.785 167.931 152.008 167.899ZM153.225 160.394V158.979H154.455V160.394H153.225ZM153.225 169V161.74H154.455V169H153.225ZM155.877 165.37C155.877 164.026 156.251 163.03 156.998 162.383C157.622 161.845 158.383 161.576 159.281 161.576C160.279 161.576 161.095 161.904 161.729 162.561C162.362 163.212 162.679 164.115 162.679 165.268C162.679 166.202 162.537 166.938 162.255 167.476C161.977 168.009 161.569 168.424 161.031 168.72C160.498 169.016 159.915 169.164 159.281 169.164C158.265 169.164 157.442 168.838 156.813 168.187C156.189 167.535 155.877 166.596 155.877 165.37ZM157.142 165.37C157.142 166.3 157.344 166.997 157.75 167.462C158.156 167.922 158.666 168.152 159.281 168.152C159.892 168.152 160.4 167.92 160.806 167.455C161.211 166.99 161.414 166.282 161.414 165.329C161.414 164.431 161.209 163.752 160.799 163.292C160.393 162.827 159.887 162.595 159.281 162.595C158.666 162.595 158.156 162.825 157.75 163.285C157.344 163.745 157.142 164.44 157.142 165.37ZM164.128 169V161.74H165.235V162.772C165.769 161.975 166.539 161.576 167.546 161.576C167.983 161.576 168.384 161.656 168.749 161.815C169.118 161.97 169.394 162.175 169.576 162.431C169.758 162.686 169.886 162.989 169.959 163.34C170.005 163.568 170.027 163.966 170.027 164.536V169H168.797V164.584C168.797 164.083 168.749 163.709 168.653 163.463C168.558 163.212 168.387 163.014 168.141 162.868C167.899 162.718 167.614 162.643 167.286 162.643C166.762 162.643 166.309 162.809 165.926 163.142C165.548 163.474 165.358 164.105 165.358 165.035V169H164.128ZM171.442 165.992V164.755H175.223V165.992H171.442ZM175.722 169L179.598 163.777L176.18 158.979H177.759L179.577 161.549C179.955 162.082 180.224 162.492 180.384 162.779C180.607 162.415 180.871 162.034 181.177 161.638L183.193 158.979H184.636L181.115 163.702L184.909 169H183.269L180.746 165.425C180.605 165.22 180.459 164.996 180.309 164.755C180.085 165.119 179.926 165.37 179.83 165.507L177.314 169H175.722Z" fill="#3E3E3D"/>
<path d="M0 189H356V190H0V189Z" fill="#CDCCCB"/>
<path d="M372.581 164.058C372.581 162.873 372.702 161.92 372.943 161.2C373.189 160.476 373.552 159.917 374.03 159.525C374.513 159.133 375.119 158.938 375.849 158.938C376.386 158.938 376.858 159.047 377.264 159.266C377.669 159.48 378.004 159.792 378.269 160.202C378.533 160.608 378.74 161.104 378.891 161.692C379.041 162.276 379.116 163.064 379.116 164.058C379.116 165.233 378.995 166.184 378.754 166.908C378.512 167.628 378.15 168.187 377.667 168.583C377.188 168.975 376.582 169.171 375.849 169.171C374.882 169.171 374.124 168.825 373.572 168.132C372.911 167.298 372.581 165.94 372.581 164.058ZM373.846 164.058C373.846 165.703 374.037 166.799 374.42 167.346C374.807 167.888 375.284 168.159 375.849 168.159C376.414 168.159 376.888 167.886 377.271 167.339C377.658 166.792 377.852 165.698 377.852 164.058C377.852 162.408 377.658 161.312 377.271 160.77C376.888 160.227 376.409 159.956 375.835 159.956C375.27 159.956 374.819 160.195 374.481 160.674C374.058 161.285 373.846 162.412 373.846 164.058Z" fill="#3E3E3D"/>
<path d="M356 189H712V190H356V189Z" fill="#CDCCCB"/>
</g>
<path d="M8 0.5H704C708.142 0.5 711.5 3.85787 711.5 8V182C711.5 186.142 708.142 189.5 704 189.5H8C3.85786 189.5 0.5 186.142 0.5 182V8L0.509766 7.61426C0.710536 3.65139 3.98724 0.5 8 0.5Z" stroke="#CDCCCB"/>
<defs>
<clipPath id="clip0_968_7796">
<path d="M0 8C0 3.58172 3.58172 0 8 0H704C708.418 0 712 3.58172 712 8V182C712 186.418 708.418 190 704 190H8C3.58172 190 0 186.418 0 182V8Z" fill="white"/>
</clipPath>
</defs>
</svg>
