<svg width="1159" height="159" viewBox="0 0 1159 159" fill="none" xmlns="http://www.w3.org/2000/svg">
<g clip-path="url(#clip0_240_28634)">
<rect width="579.5" height="61" fill="white"/>
<path d="M18.62 37.14C18.3133 37.14 18.0733 37.0533 17.9 36.88C17.7267 36.7067 17.64 36.46 17.64 36.14V23.8C17.64 23.4667 17.72 23.2133 17.88 23.04C18.0533 22.8533 18.28 22.76 18.56 22.76C18.8 22.76 18.98 22.8067 19.1 22.9C19.2333 22.98 19.3867 23.1333 19.56 23.36L27.8 34.22H27.3V23.74C27.3 23.4333 27.38 23.1933 27.54 23.02C27.7133 22.8467 27.9533 22.76 28.26 22.76C28.58 22.76 28.82 22.8467 28.98 23.02C29.14 23.1933 29.22 23.4333 29.22 23.74V36.16C29.22 36.4667 29.14 36.7067 28.98 36.88C28.8333 37.0533 28.6333 37.14 28.38 37.14C28.14 37.14 27.94 37.0933 27.78 37C27.6333 36.9067 27.4733 36.7467 27.3 36.52L19.1 25.68H19.56V36.14C19.56 36.46 19.48 36.7067 19.32 36.88C19.16 37.0533 18.9267 37.14 18.62 37.14ZM36.0233 37.18C35.0366 37.18 34.1833 36.9733 33.4633 36.56C32.7566 36.1467 32.2033 35.56 31.8033 34.8C31.4033 34.04 31.2033 33.1467 31.2033 32.12C31.2033 31.3333 31.3166 30.6333 31.5433 30.02C31.7699 29.4067 32.0899 28.88 32.5033 28.44C32.9299 27.9867 33.4366 27.6467 34.0233 27.42C34.6233 27.18 35.2899 27.06 36.0233 27.06C36.9966 27.06 37.8366 27.2667 38.5433 27.68C39.2633 28.0933 39.8233 28.68 40.2233 29.44C40.6233 30.1867 40.8233 31.08 40.8233 32.12C40.8233 32.8933 40.7099 33.5933 40.4833 34.22C40.2566 34.8467 39.9299 35.38 39.5033 35.82C39.0899 36.26 38.5833 36.6 37.9833 36.84C37.3966 37.0667 36.7433 37.18 36.0233 37.18ZM36.0233 35.62C36.5699 35.62 37.0499 35.4867 37.4633 35.22C37.8766 34.9533 38.1966 34.56 38.4233 34.04C38.6633 33.52 38.7833 32.88 38.7833 32.12C38.7833 30.9733 38.5299 30.1067 38.0233 29.52C37.5166 28.9333 36.8499 28.64 36.0233 28.64C35.4633 28.64 34.9766 28.7733 34.5633 29.04C34.1499 29.2933 33.8233 29.68 33.5833 30.2C33.3566 30.72 33.2433 31.36 33.2433 32.12C33.2433 33.2533 33.4966 34.12 34.0033 34.72C34.5099 35.32 35.1833 35.62 36.0233 35.62ZM43.6319 37.14C43.3119 37.14 43.0652 37.0533 42.8919 36.88C42.7185 36.6933 42.6319 36.44 42.6319 36.12V28.12C42.6319 27.7867 42.7185 27.5333 42.8919 27.36C43.0652 27.1867 43.3052 27.1 43.6119 27.1C43.9319 27.1 44.1719 27.1867 44.3319 27.36C44.5052 27.5333 44.5919 27.7867 44.5919 28.12V29.76L44.3719 29.32C44.6385 28.6133 45.0519 28.06 45.6119 27.66C46.1719 27.26 46.8452 27.06 47.6319 27.06C48.4452 27.06 49.1052 27.2533 49.6119 27.64C50.1185 28.0267 50.4652 28.62 50.6519 29.42H50.3719C50.6252 28.6867 51.0585 28.1133 51.6719 27.7C52.2852 27.2733 52.9985 27.06 53.8119 27.06C54.5585 27.06 55.1719 27.2067 55.6519 27.5C56.1319 27.78 56.4919 28.2133 56.7319 28.8C56.9719 29.3733 57.0919 30.1 57.0919 30.98V36.12C57.0919 36.44 56.9985 36.6933 56.8119 36.88C56.6385 37.0533 56.3919 37.14 56.0719 37.14C55.7519 37.14 55.5052 37.0533 55.3319 36.88C55.1585 36.6933 55.0719 36.44 55.0719 36.12V31.08C55.0719 30.2533 54.9252 29.6467 54.6319 29.26C54.3519 28.8733 53.8852 28.68 53.2319 28.68C52.4985 28.68 51.9185 28.9333 51.4919 29.44C51.0652 29.9467 50.8519 30.6467 50.8519 31.54V36.12C50.8519 36.44 50.7652 36.6933 50.5919 36.88C50.4185 37.0533 50.1719 37.14 49.8519 37.14C49.5319 37.14 49.2785 37.0533 49.0919 36.88C48.9185 36.6933 48.8319 36.44 48.8319 36.12V31.08C48.8319 30.2533 48.6919 29.6467 48.4119 29.26C48.1319 28.8733 47.6652 28.68 47.0119 28.68C46.2785 28.68 45.6985 28.9333 45.2719 29.44C44.8585 29.9467 44.6519 30.6467 44.6519 31.54V36.12C44.6519 36.8 44.3119 37.14 43.6319 37.14Z" fill="#201F1F"/>
<path d="M0 60.5H579.5" stroke="#CDCCCB"/>
<rect width="579.5" height="49" transform="translate(0 61)" fill="white"/>
<path d="M17.1562 79.5469H21.3828C22.3359 79.5469 23.0625 79.6198 23.5625 79.7656C24.2344 79.9635 24.8099 80.3151 25.2891 80.8203C25.7682 81.3255 26.1328 81.9453 26.3828 82.6797C26.6328 83.4089 26.7578 84.3099 26.7578 85.3828C26.7578 86.3255 26.6406 87.138 26.4062 87.8203C26.1198 88.6536 25.7109 89.3281 25.1797 89.8438C24.7786 90.2344 24.237 90.5391 23.5547 90.7578C23.0443 90.9193 22.362 91 21.5078 91H17.1562V79.5469ZM19.4688 81.4844V89.0703H21.1953C21.8411 89.0703 22.3073 89.0339 22.5938 88.9609C22.9688 88.8672 23.2786 88.7083 23.5234 88.4844C23.7734 88.2604 23.9766 87.8932 24.1328 87.3828C24.2891 86.8672 24.3672 86.1667 24.3672 85.2812C24.3672 84.3958 24.2891 83.7161 24.1328 83.2422C23.9766 82.7682 23.7578 82.3984 23.4766 82.1328C23.1953 81.8672 22.8385 81.6875 22.4062 81.5938C22.0833 81.5208 21.4505 81.4844 20.5078 81.4844H19.4688ZM33.5156 88.3594L35.7031 88.7266C35.4219 89.5286 34.9766 90.1406 34.3672 90.5625C33.763 90.9792 33.0052 91.1875 32.0938 91.1875C30.651 91.1875 29.5833 90.7161 28.8906 89.7734C28.3438 89.0182 28.0703 88.0651 28.0703 86.9141C28.0703 85.5391 28.4297 84.4635 29.1484 83.6875C29.8672 82.9062 30.776 82.5156 31.875 82.5156C33.1094 82.5156 34.0833 82.9245 34.7969 83.7422C35.5104 84.5547 35.8516 85.8021 35.8203 87.4844H30.3203C30.3359 88.1354 30.513 88.6432 30.8516 89.0078C31.1901 89.3672 31.612 89.5469 32.1172 89.5469C32.4609 89.5469 32.75 89.4531 32.9844 89.2656C33.2188 89.0781 33.3958 88.776 33.5156 88.3594ZM33.6406 86.1406C33.625 85.5052 33.4609 85.0234 33.1484 84.6953C32.8359 84.362 32.4557 84.1953 32.0078 84.1953C31.5286 84.1953 31.1328 84.3698 30.8203 84.7188C30.5078 85.0677 30.3542 85.5417 30.3594 86.1406H33.6406ZM36.6562 82.7031H37.875V82.0781C37.875 81.3802 37.9479 80.8594 38.0938 80.5156C38.2448 80.1719 38.5182 79.8932 38.9141 79.6797C39.3151 79.4609 39.8203 79.3516 40.4297 79.3516C41.0547 79.3516 41.6667 79.4453 42.2656 79.6328L41.9688 81.1641C41.6198 81.0807 41.2839 81.0391 40.9609 81.0391C40.6432 81.0391 40.4141 81.1146 40.2734 81.2656C40.138 81.4115 40.0703 81.6953 40.0703 82.1172V82.7031H41.7109V84.4297H40.0703V91H37.875V84.4297H36.6562V82.7031ZM44.5859 85.2344L42.5938 84.875C42.8177 84.0729 43.2031 83.4792 43.75 83.0938C44.2969 82.7083 45.1094 82.5156 46.1875 82.5156C47.1667 82.5156 47.8958 82.6328 48.375 82.8672C48.8542 83.0964 49.1901 83.3906 49.3828 83.75C49.5807 84.1042 49.6797 84.7578 49.6797 85.7109L49.6562 88.2734C49.6562 89.0026 49.6901 89.5417 49.7578 89.8906C49.8307 90.2344 49.9635 90.6042 50.1562 91H47.9844C47.9271 90.8542 47.8568 90.638 47.7734 90.3516C47.737 90.2214 47.7109 90.1354 47.6953 90.0938C47.3203 90.4583 46.9193 90.7318 46.4922 90.9141C46.0651 91.0964 45.6094 91.1875 45.125 91.1875C44.2708 91.1875 43.5964 90.9557 43.1016 90.4922C42.612 90.0286 42.3672 89.4427 42.3672 88.7344C42.3672 88.2656 42.4792 87.849 42.7031 87.4844C42.9271 87.1146 43.2396 86.8333 43.6406 86.6406C44.0469 86.4427 44.6302 86.2708 45.3906 86.125C46.4167 85.9323 47.1276 85.7526 47.5234 85.5859V85.3672C47.5234 84.9453 47.4193 84.6458 47.2109 84.4688C47.0026 84.2865 46.6094 84.1953 46.0312 84.1953C45.6406 84.1953 45.3359 84.2734 45.1172 84.4297C44.8984 84.5807 44.7214 84.849 44.5859 85.2344ZM47.5234 87.0156C47.2422 87.1094 46.7969 87.2214 46.1875 87.3516C45.5781 87.4818 45.1797 87.6094 44.9922 87.7344C44.7057 87.9375 44.5625 88.1953 44.5625 88.5078C44.5625 88.8151 44.6771 89.0807 44.9062 89.3047C45.1354 89.5286 45.4271 89.6406 45.7812 89.6406C46.1771 89.6406 46.5547 89.5104 46.9141 89.25C47.1797 89.0521 47.3542 88.8099 47.4375 88.5234C47.4948 88.3359 47.5234 87.9792 47.5234 87.4531V87.0156ZM57.3125 91V89.7578C57.0104 90.2005 56.612 90.5495 56.1172 90.8047C55.6276 91.0599 55.1094 91.1875 54.5625 91.1875C54.0052 91.1875 53.5052 91.0651 53.0625 90.8203C52.6198 90.5755 52.2995 90.2318 52.1016 89.7891C51.9036 89.3464 51.8047 88.7344 51.8047 87.9531V82.7031H54V86.5156C54 87.6823 54.0391 88.3984 54.1172 88.6641C54.2005 88.9245 54.349 89.1328 54.5625 89.2891C54.776 89.4401 55.0469 89.5156 55.375 89.5156C55.75 89.5156 56.0859 89.4141 56.3828 89.2109C56.6797 89.0026 56.8828 88.7474 56.9922 88.4453C57.1016 88.138 57.1562 87.3906 57.1562 86.2031V82.7031H59.3516V91H57.3125ZM65.4375 82.7031V84.4531H63.9375V87.7969C63.9375 88.474 63.9505 88.8698 63.9766 88.9844C64.0078 89.0938 64.0729 89.1849 64.1719 89.2578C64.276 89.3307 64.401 89.3672 64.5469 89.3672C64.75 89.3672 65.0443 89.2969 65.4297 89.1562L65.6172 90.8594C65.1068 91.0781 64.5286 91.1875 63.8828 91.1875C63.487 91.1875 63.1302 91.1224 62.8125 90.9922C62.4948 90.8568 62.2604 90.6849 62.1094 90.4766C61.9635 90.263 61.862 89.9766 61.8047 89.6172C61.7578 89.362 61.7344 88.8464 61.7344 88.0703V84.4531H60.7266V82.7031H61.7344V81.0547L63.9375 79.7734V82.7031H65.4375Z" fill="#3E3E3D"/>
<g opacity="0.5">
<path d="M0 109.5H579.5" stroke="#CDCCCB"/>
</g>
<rect width="579.5" height="49" transform="translate(0 110)" fill="white"/>
<path d="M24.4922 135.789L26.7344 136.5C26.3906 137.75 25.8177 138.68 25.0156 139.289C24.2188 139.893 23.2057 140.195 21.9766 140.195C20.4557 140.195 19.2057 139.677 18.2266 138.641C17.2474 137.599 16.7578 136.177 16.7578 134.375C16.7578 132.469 17.25 130.99 18.2344 129.938C19.2188 128.88 20.513 128.352 22.1172 128.352C23.5182 128.352 24.6562 128.766 25.5312 129.594C26.0521 130.083 26.4427 130.786 26.7031 131.703L24.4141 132.25C24.2786 131.656 23.9948 131.188 23.5625 130.844C23.1354 130.5 22.6146 130.328 22 130.328C21.151 130.328 20.4609 130.633 19.9297 131.242C19.4036 131.852 19.1406 132.839 19.1406 134.203C19.1406 135.651 19.401 136.682 19.9219 137.297C20.4427 137.911 21.1198 138.219 21.9531 138.219C22.5677 138.219 23.0964 138.023 23.5391 137.633C23.9818 137.242 24.2995 136.628 24.4922 135.789ZM28.2031 135.734C28.2031 135.005 28.3828 134.299 28.7422 133.617C29.1016 132.935 29.6094 132.414 30.2656 132.055C30.9271 131.695 31.6641 131.516 32.4766 131.516C33.7318 131.516 34.7604 131.924 35.5625 132.742C36.3646 133.555 36.7656 134.583 36.7656 135.828C36.7656 137.083 36.3594 138.125 35.5469 138.953C34.7396 139.776 33.7214 140.188 32.4922 140.188C31.7318 140.188 31.0052 140.016 30.3125 139.672C29.625 139.328 29.1016 138.826 28.7422 138.164C28.3828 137.497 28.2031 136.688 28.2031 135.734ZM30.4531 135.852C30.4531 136.674 30.6484 137.305 31.0391 137.742C31.4297 138.18 31.9115 138.398 32.4844 138.398C33.0573 138.398 33.5365 138.18 33.9219 137.742C34.3125 137.305 34.5078 136.669 34.5078 135.836C34.5078 135.023 34.3125 134.398 33.9219 133.961C33.5365 133.523 33.0573 133.305 32.4844 133.305C31.9115 133.305 31.4297 133.523 31.0391 133.961C30.6484 134.398 30.4531 135.029 30.4531 135.852ZM38.3281 131.703H40.3516V132.836C41.0755 131.956 41.9375 131.516 42.9375 131.516C43.4688 131.516 43.9297 131.625 44.3203 131.844C44.7109 132.062 45.0312 132.393 45.2812 132.836C45.6458 132.393 46.0391 132.062 46.4609 131.844C46.8828 131.625 47.3333 131.516 47.8125 131.516C48.4219 131.516 48.9375 131.641 49.3594 131.891C49.7812 132.135 50.0964 132.497 50.3047 132.977C50.4557 133.331 50.5312 133.904 50.5312 134.695V140H48.3359V135.258C48.3359 134.435 48.2604 133.904 48.1094 133.664C47.9062 133.352 47.5938 133.195 47.1719 133.195C46.8646 133.195 46.5755 133.289 46.3047 133.477C46.0339 133.664 45.8385 133.94 45.7188 134.305C45.599 134.664 45.5391 135.234 45.5391 136.016V140H43.3438V135.453C43.3438 134.646 43.3047 134.125 43.2266 133.891C43.1484 133.656 43.026 133.482 42.8594 133.367C42.6979 133.253 42.4766 133.195 42.1953 133.195C41.8568 133.195 41.5521 133.286 41.2812 133.469C41.0104 133.651 40.8151 133.914 40.6953 134.258C40.5807 134.602 40.5234 135.172 40.5234 135.969V140H38.3281V131.703ZM52.6641 131.703H54.7109V132.922C54.9766 132.505 55.3359 132.167 55.7891 131.906C56.2422 131.646 56.7448 131.516 57.2969 131.516C58.2604 131.516 59.0781 131.893 59.75 132.648C60.4219 133.404 60.7578 134.456 60.7578 135.805C60.7578 137.19 60.4193 138.268 59.7422 139.039C59.0651 139.805 58.2448 140.188 57.2812 140.188C56.8229 140.188 56.4062 140.096 56.0312 139.914C55.6615 139.732 55.2708 139.419 54.8594 138.977V143.156H52.6641V131.703ZM54.8359 135.711C54.8359 136.643 55.0208 137.333 55.3906 137.781C55.7604 138.224 56.2109 138.445 56.7422 138.445C57.2526 138.445 57.6771 138.242 58.0156 137.836C58.3542 137.424 58.5234 136.753 58.5234 135.82C58.5234 134.951 58.349 134.305 58 133.883C57.651 133.461 57.2188 133.25 56.7031 133.25C56.1667 133.25 55.7214 133.458 55.3672 133.875C55.013 134.286 54.8359 134.898 54.8359 135.711ZM64.1484 134.234L62.1562 133.875C62.3802 133.073 62.7656 132.479 63.3125 132.094C63.8594 131.708 64.6719 131.516 65.75 131.516C66.7292 131.516 67.4583 131.633 67.9375 131.867C68.4167 132.096 68.7526 132.391 68.9453 132.75C69.1432 133.104 69.2422 133.758 69.2422 134.711L69.2188 137.273C69.2188 138.003 69.2526 138.542 69.3203 138.891C69.3932 139.234 69.526 139.604 69.7188 140H67.5469C67.4896 139.854 67.4193 139.638 67.3359 139.352C67.2995 139.221 67.2734 139.135 67.2578 139.094C66.8828 139.458 66.4818 139.732 66.0547 139.914C65.6276 140.096 65.1719 140.188 64.6875 140.188C63.8333 140.188 63.1589 139.956 62.6641 139.492C62.1745 139.029 61.9297 138.443 61.9297 137.734C61.9297 137.266 62.0417 136.849 62.2656 136.484C62.4896 136.115 62.8021 135.833 63.2031 135.641C63.6094 135.443 64.1927 135.271 64.9531 135.125C65.9792 134.932 66.6901 134.753 67.0859 134.586V134.367C67.0859 133.945 66.9818 133.646 66.7734 133.469C66.5651 133.286 66.1719 133.195 65.5938 133.195C65.2031 133.195 64.8984 133.273 64.6797 133.43C64.4609 133.581 64.2839 133.849 64.1484 134.234ZM67.0859 136.016C66.8047 136.109 66.3594 136.221 65.75 136.352C65.1406 136.482 64.7422 136.609 64.5547 136.734C64.2682 136.938 64.125 137.195 64.125 137.508C64.125 137.815 64.2396 138.081 64.4688 138.305C64.6979 138.529 64.9896 138.641 65.3438 138.641C65.7396 138.641 66.1172 138.51 66.4766 138.25C66.7422 138.052 66.9167 137.81 67 137.523C67.0573 137.336 67.0859 136.979 67.0859 136.453V136.016ZM78.6484 134.156L76.4844 134.547C76.4115 134.115 76.2448 133.789 75.9844 133.57C75.7292 133.352 75.3958 133.242 74.9844 133.242C74.4375 133.242 74 133.432 73.6719 133.812C73.349 134.188 73.1875 134.818 73.1875 135.703C73.1875 136.688 73.3516 137.383 73.6797 137.789C74.013 138.195 74.4583 138.398 75.0156 138.398C75.4323 138.398 75.7734 138.281 76.0391 138.047C76.3047 137.807 76.4922 137.398 76.6016 136.82L78.7578 137.188C78.5339 138.177 78.1042 138.924 77.4688 139.43C76.8333 139.935 75.9818 140.188 74.9141 140.188C73.7005 140.188 72.7318 139.805 72.0078 139.039C71.2891 138.273 70.9297 137.214 70.9297 135.859C70.9297 134.49 71.2917 133.424 72.0156 132.664C72.7396 131.898 73.7188 131.516 74.9531 131.516C75.9635 131.516 76.7656 131.734 77.3594 132.172C77.9583 132.604 78.388 133.266 78.6484 134.156ZM84.125 131.703V133.453H82.625V136.797C82.625 137.474 82.638 137.87 82.6641 137.984C82.6953 138.094 82.7604 138.185 82.8594 138.258C82.9635 138.331 83.0885 138.367 83.2344 138.367C83.4375 138.367 83.7318 138.297 84.1172 138.156L84.3047 139.859C83.7943 140.078 83.2161 140.188 82.5703 140.188C82.1745 140.188 81.8177 140.122 81.5 139.992C81.1823 139.857 80.9479 139.685 80.7969 139.477C80.651 139.263 80.5495 138.977 80.4922 138.617C80.4453 138.362 80.4219 137.846 80.4219 137.07V133.453H79.4141V131.703H80.4219V130.055L82.625 128.773V131.703H84.125ZM89.3281 137.633L91.5312 137.297C91.625 137.724 91.8151 138.049 92.1016 138.273C92.388 138.492 92.7891 138.602 93.3047 138.602C93.8724 138.602 94.2995 138.497 94.5859 138.289C94.7786 138.143 94.875 137.948 94.875 137.703C94.875 137.536 94.8229 137.398 94.7188 137.289C94.6094 137.185 94.3646 137.089 93.9844 137C92.2135 136.609 91.0911 136.253 90.6172 135.93C89.9609 135.482 89.6328 134.859 89.6328 134.062C89.6328 133.344 89.9167 132.74 90.4844 132.25C91.0521 131.76 91.9323 131.516 93.125 131.516C94.2604 131.516 95.1042 131.701 95.6562 132.07C96.2083 132.44 96.5885 132.987 96.7969 133.711L94.7266 134.094C94.638 133.771 94.4688 133.523 94.2188 133.352C93.974 133.18 93.6224 133.094 93.1641 133.094C92.5859 133.094 92.1719 133.174 91.9219 133.336C91.7552 133.451 91.6719 133.599 91.6719 133.781C91.6719 133.938 91.7448 134.07 91.8906 134.18C92.0885 134.326 92.7708 134.531 93.9375 134.797C95.1094 135.062 95.9271 135.388 96.3906 135.773C96.849 136.164 97.0781 136.708 97.0781 137.406C97.0781 138.167 96.7604 138.82 96.125 139.367C95.4896 139.914 94.5495 140.188 93.3047 140.188C92.1745 140.188 91.2786 139.958 90.6172 139.5C89.9609 139.042 89.5312 138.419 89.3281 137.633ZM98.9453 131.703H100.992V132.922C101.258 132.505 101.617 132.167 102.07 131.906C102.523 131.646 103.026 131.516 103.578 131.516C104.542 131.516 105.359 131.893 106.031 132.648C106.703 133.404 107.039 134.456 107.039 135.805C107.039 137.19 106.701 138.268 106.023 139.039C105.346 139.805 104.526 140.188 103.562 140.188C103.104 140.188 102.688 140.096 102.312 139.914C101.943 139.732 101.552 139.419 101.141 138.977V143.156H98.9453V131.703ZM101.117 135.711C101.117 136.643 101.302 137.333 101.672 137.781C102.042 138.224 102.492 138.445 103.023 138.445C103.534 138.445 103.958 138.242 104.297 137.836C104.635 137.424 104.805 136.753 104.805 135.82C104.805 134.951 104.63 134.305 104.281 133.883C103.932 133.461 103.5 133.25 102.984 133.25C102.448 133.25 102.003 133.458 101.648 133.875C101.294 134.286 101.117 134.898 101.117 135.711ZM110.43 134.234L108.438 133.875C108.661 133.073 109.047 132.479 109.594 132.094C110.141 131.708 110.953 131.516 112.031 131.516C113.01 131.516 113.74 131.633 114.219 131.867C114.698 132.096 115.034 132.391 115.227 132.75C115.424 133.104 115.523 133.758 115.523 134.711L115.5 137.273C115.5 138.003 115.534 138.542 115.602 138.891C115.674 139.234 115.807 139.604 116 140H113.828C113.771 139.854 113.701 139.638 113.617 139.352C113.581 139.221 113.555 139.135 113.539 139.094C113.164 139.458 112.763 139.732 112.336 139.914C111.909 140.096 111.453 140.188 110.969 140.188C110.115 140.188 109.44 139.956 108.945 139.492C108.456 139.029 108.211 138.443 108.211 137.734C108.211 137.266 108.323 136.849 108.547 136.484C108.771 136.115 109.083 135.833 109.484 135.641C109.891 135.443 110.474 135.271 111.234 135.125C112.26 134.932 112.971 134.753 113.367 134.586V134.367C113.367 133.945 113.263 133.646 113.055 133.469C112.846 133.286 112.453 133.195 111.875 133.195C111.484 133.195 111.18 133.273 110.961 133.43C110.742 133.581 110.565 133.849 110.43 134.234ZM113.367 136.016C113.086 136.109 112.641 136.221 112.031 136.352C111.422 136.482 111.023 136.609 110.836 136.734C110.549 136.938 110.406 137.195 110.406 137.508C110.406 137.815 110.521 138.081 110.75 138.305C110.979 138.529 111.271 138.641 111.625 138.641C112.021 138.641 112.398 138.51 112.758 138.25C113.023 138.052 113.198 137.81 113.281 137.523C113.339 137.336 113.367 136.979 113.367 136.453V136.016ZM124.93 134.156L122.766 134.547C122.693 134.115 122.526 133.789 122.266 133.57C122.01 133.352 121.677 133.242 121.266 133.242C120.719 133.242 120.281 133.432 119.953 133.812C119.63 134.188 119.469 134.818 119.469 135.703C119.469 136.688 119.633 137.383 119.961 137.789C120.294 138.195 120.74 138.398 121.297 138.398C121.714 138.398 122.055 138.281 122.32 138.047C122.586 137.807 122.773 137.398 122.883 136.82L125.039 137.188C124.815 138.177 124.385 138.924 123.75 139.43C123.115 139.935 122.263 140.188 121.195 140.188C119.982 140.188 119.013 139.805 118.289 139.039C117.57 138.273 117.211 137.214 117.211 135.859C117.211 134.49 117.573 133.424 118.297 132.664C119.021 131.898 120 131.516 121.234 131.516C122.245 131.516 123.047 131.734 123.641 132.172C124.24 132.604 124.669 133.266 124.93 134.156ZM126.602 130.578V128.547H128.797V130.578H126.602ZM126.602 140V131.703H128.797V140H126.602ZM138.602 140H136.406V135.766C136.406 134.87 136.359 134.292 136.266 134.031C136.172 133.766 136.018 133.56 135.805 133.414C135.596 133.268 135.344 133.195 135.047 133.195C134.667 133.195 134.326 133.299 134.023 133.508C133.721 133.716 133.513 133.992 133.398 134.336C133.289 134.68 133.234 135.315 133.234 136.242V140H131.039V131.703H133.078V132.922C133.802 131.984 134.714 131.516 135.812 131.516C136.297 131.516 136.74 131.604 137.141 131.781C137.542 131.953 137.844 132.174 138.047 132.445C138.255 132.716 138.398 133.023 138.477 133.367C138.56 133.711 138.602 134.203 138.602 134.844V140ZM140.633 140.547L143.141 140.852C143.182 141.143 143.279 141.344 143.43 141.453C143.638 141.609 143.966 141.688 144.414 141.688C144.987 141.688 145.417 141.602 145.703 141.43C145.896 141.315 146.042 141.13 146.141 140.875C146.208 140.693 146.242 140.357 146.242 139.867V138.656C145.586 139.552 144.758 140 143.758 140C142.643 140 141.76 139.529 141.109 138.586C140.599 137.841 140.344 136.914 140.344 135.805C140.344 134.414 140.677 133.352 141.344 132.617C142.016 131.883 142.849 131.516 143.844 131.516C144.87 131.516 145.716 131.966 146.383 132.867V131.703H148.438V139.148C148.438 140.128 148.357 140.859 148.195 141.344C148.034 141.828 147.807 142.208 147.516 142.484C147.224 142.76 146.833 142.977 146.344 143.133C145.859 143.289 145.245 143.367 144.5 143.367C143.094 143.367 142.096 143.125 141.508 142.641C140.919 142.161 140.625 141.552 140.625 140.812C140.625 140.74 140.628 140.651 140.633 140.547ZM142.594 135.68C142.594 136.56 142.763 137.206 143.102 137.617C143.445 138.023 143.867 138.227 144.367 138.227C144.904 138.227 145.357 138.018 145.727 137.602C146.096 137.18 146.281 136.557 146.281 135.734C146.281 134.875 146.104 134.237 145.75 133.82C145.396 133.404 144.948 133.195 144.406 133.195C143.88 133.195 143.445 133.401 143.102 133.812C142.763 134.219 142.594 134.841 142.594 135.68Z" fill="#3E3E3D"/>
<g opacity="0.5">
<path d="M0 158.5H579.5" stroke="#CDCCCB"/>
</g>
<rect width="579.5" height="61" transform="translate(579.5)" fill="white"/>
<path d="M601.62 37.14C601.287 37.14 601.027 37.0467 600.84 36.86C600.667 36.6733 600.58 36.4133 600.58 36.08V24.64H596.34C596.06 24.64 595.84 24.5667 595.68 24.42C595.52 24.26 595.44 24.04 595.44 23.76C595.44 23.48 595.52 23.2667 595.68 23.12C595.84 22.9733 596.06 22.9 596.34 22.9H606.88C607.173 22.9 607.4 22.9733 607.56 23.12C607.72 23.2667 607.8 23.48 607.8 23.76C607.8 24.04 607.72 24.26 607.56 24.42C607.4 24.5667 607.173 24.64 606.88 24.64H602.64V36.08C602.64 36.4133 602.553 36.6733 602.38 36.86C602.22 37.0467 601.967 37.14 601.62 37.14ZM610.224 37.18C609.544 37.18 608.93 37.0467 608.384 36.78C607.85 36.5133 607.43 36.1533 607.124 35.7C606.817 35.2467 606.664 34.7333 606.664 34.16C606.664 33.44 606.844 32.8733 607.204 32.46C607.577 32.0333 608.184 31.7333 609.024 31.56C609.877 31.3733 611.024 31.28 612.464 31.28H613.404V32.52H612.484C611.524 32.52 610.764 32.5667 610.204 32.66C609.644 32.7533 609.244 32.9133 609.004 33.14C608.777 33.3533 608.664 33.6533 608.664 34.04C608.664 34.5467 608.837 34.96 609.184 35.28C609.53 35.5867 610.01 35.74 610.624 35.74C611.117 35.74 611.55 35.6267 611.924 35.4C612.297 35.16 612.59 34.84 612.804 34.44C613.03 34.04 613.144 33.58 613.144 33.06V30.76C613.144 30 612.984 29.4533 612.664 29.12C612.344 28.7867 611.817 28.62 611.084 28.62C610.657 28.62 610.21 28.6733 609.744 28.78C609.29 28.8867 608.817 29.0667 608.324 29.32C608.097 29.4267 607.904 29.46 607.744 29.42C607.584 29.38 607.457 29.2933 607.364 29.16C607.27 29.0133 607.217 28.86 607.204 28.7C607.204 28.5267 607.244 28.36 607.324 28.2C607.417 28.04 607.57 27.92 607.784 27.84C608.37 27.56 608.95 27.36 609.524 27.24C610.097 27.12 610.637 27.06 611.144 27.06C612.037 27.06 612.77 27.2 613.344 27.48C613.93 27.76 614.364 28.1867 614.644 28.76C614.924 29.3333 615.064 30.0733 615.064 30.98V36.12C615.064 36.44 614.984 36.6933 614.824 36.88C614.664 37.0533 614.43 37.14 614.124 37.14C613.83 37.14 613.597 37.0533 613.424 36.88C613.25 36.6933 613.164 36.44 613.164 36.12V34.82H613.344C613.237 35.3133 613.037 35.74 612.744 36.1C612.464 36.4467 612.11 36.7133 611.684 36.9C611.257 37.0867 610.77 37.18 610.224 37.18ZM618.346 37.12C618.026 37.12 617.779 37.0267 617.606 36.84C617.432 36.64 617.346 36.3667 617.346 36.02V28.22C617.346 27.8733 617.432 27.6067 617.606 27.42C617.779 27.2333 618.026 27.14 618.346 27.14C618.666 27.14 618.912 27.2333 619.086 27.42C619.272 27.6067 619.366 27.8733 619.366 28.22V36.02C619.366 36.3667 619.279 36.64 619.106 36.84C618.932 37.0267 618.679 37.12 618.346 37.12ZM618.346 25.06C617.946 25.06 617.632 24.96 617.406 24.76C617.192 24.56 617.086 24.28 617.086 23.92C617.086 23.5467 617.192 23.2667 617.406 23.08C617.632 22.88 617.946 22.78 618.346 22.78C618.746 22.78 619.052 22.88 619.266 23.08C619.492 23.2667 619.606 23.5467 619.606 23.92C619.606 24.28 619.492 24.56 619.266 24.76C619.052 24.96 618.746 25.06 618.346 25.06ZM624.849 37.18C623.809 37.18 623.022 36.88 622.489 36.28C621.969 35.6667 621.709 34.7867 621.709 33.64V23.78C621.709 23.4467 621.796 23.1933 621.969 23.02C622.142 22.8467 622.389 22.76 622.709 22.76C623.029 22.76 623.276 22.8467 623.449 23.02C623.636 23.1933 623.729 23.4467 623.729 23.78V33.52C623.729 34.1867 623.862 34.6867 624.129 35.02C624.409 35.34 624.809 35.5 625.329 35.5C625.449 35.5 625.556 35.5 625.649 35.5C625.742 35.4867 625.836 35.4733 625.929 35.46C626.089 35.4467 626.202 35.4933 626.269 35.6C626.336 35.6933 626.369 35.8933 626.369 36.2C626.369 36.48 626.309 36.7 626.189 36.86C626.069 37.0067 625.876 37.1 625.609 37.14C625.489 37.1533 625.362 37.16 625.229 37.16C625.096 37.1733 624.969 37.18 624.849 37.18ZM630.462 37.18C629.422 37.18 628.636 36.88 628.102 36.28C627.582 35.6667 627.322 34.7867 627.322 33.64V23.78C627.322 23.4467 627.409 23.1933 627.582 23.02C627.756 22.8467 628.002 22.76 628.322 22.76C628.642 22.76 628.889 22.8467 629.062 23.02C629.249 23.1933 629.342 23.4467 629.342 23.78V33.52C629.342 34.1867 629.476 34.6867 629.742 35.02C630.022 35.34 630.422 35.5 630.942 35.5C631.062 35.5 631.169 35.5 631.262 35.5C631.356 35.4867 631.449 35.4733 631.542 35.46C631.702 35.4467 631.816 35.4933 631.882 35.6C631.949 35.6933 631.982 35.8933 631.982 36.2C631.982 36.48 631.922 36.7 631.802 36.86C631.682 37.0067 631.489 37.1 631.222 37.14C631.102 37.1533 630.976 37.16 630.842 37.16C630.709 37.1733 630.582 37.18 630.462 37.18ZM637.418 37.18C636.351 37.18 635.431 36.98 634.658 36.58C633.898 36.1667 633.305 35.5867 632.878 34.84C632.465 34.08 632.258 33.18 632.258 32.14C632.258 31.1267 632.465 30.24 632.878 29.48C633.291 28.72 633.858 28.1267 634.578 27.7C635.298 27.2733 636.118 27.06 637.038 27.06C637.718 27.06 638.325 27.1733 638.858 27.4C639.391 27.6133 639.845 27.9333 640.218 28.36C640.605 28.7733 640.891 29.28 641.078 29.88C641.278 30.48 641.378 31.1533 641.378 31.9C641.378 32.1267 641.311 32.3 641.178 32.42C641.045 32.5267 640.845 32.58 640.578 32.58H633.858V31.34H640.018L639.678 31.62C639.678 30.9533 639.578 30.3867 639.378 29.92C639.191 29.4533 638.905 29.1 638.518 28.86C638.145 28.6067 637.678 28.48 637.118 28.48C636.491 28.48 635.958 28.6267 635.518 28.92C635.091 29.2133 634.765 29.62 634.538 30.14C634.311 30.66 634.198 31.2667 634.198 31.96V32.08C634.198 33.2533 634.471 34.14 635.018 34.74C635.578 35.3267 636.385 35.62 637.438 35.62C637.838 35.62 638.258 35.5667 638.698 35.46C639.151 35.3533 639.578 35.1733 639.978 34.92C640.205 34.7867 640.405 34.7267 640.578 34.74C640.765 34.7533 640.911 34.8133 641.018 34.92C641.138 35.0267 641.211 35.16 641.238 35.32C641.265 35.48 641.238 35.6467 641.158 35.82C641.078 35.98 640.938 36.1267 640.738 36.26C640.285 36.5667 639.758 36.8 639.158 36.96C638.558 37.1067 637.978 37.18 637.418 37.18Z" fill="#201F1F"/>
<path d="M579.5 60.5H1159" stroke="#CDCCCB"/>
<rect width="579.5" height="49" transform="translate(579.5 61)" fill="white"/>
<path d="M596.172 87.9766L597.578 87.7891C597.74 88.5859 598.013 89.1615 598.398 89.5156C598.789 89.8646 599.263 90.0391 599.82 90.0391C600.482 90.0391 601.039 89.8099 601.492 89.3516C601.951 88.8932 602.18 88.3255 602.18 87.6484C602.18 87.0026 601.969 86.4714 601.547 86.0547C601.125 85.6328 600.589 85.4219 599.938 85.4219C599.672 85.4219 599.341 85.474 598.945 85.5781L599.102 84.3438C599.195 84.3542 599.271 84.3594 599.328 84.3594C599.927 84.3594 600.466 84.2031 600.945 83.8906C601.424 83.5781 601.664 83.0964 601.664 82.4453C601.664 81.9297 601.49 81.5026 601.141 81.1641C600.792 80.8255 600.341 80.6562 599.789 80.6562C599.242 80.6562 598.786 80.8281 598.422 81.1719C598.057 81.5156 597.823 82.0312 597.719 82.7188L596.312 82.4688C596.484 81.526 596.875 80.7969 597.484 80.2812C598.094 79.7604 598.852 79.5 599.758 79.5C600.383 79.5 600.958 79.6354 601.484 79.9062C602.01 80.1719 602.411 80.5365 602.688 81C602.969 81.4635 603.109 81.9557 603.109 82.4766C603.109 82.9714 602.977 83.4219 602.711 83.8281C602.445 84.2344 602.052 84.5573 601.531 84.7969C602.208 84.9531 602.734 85.2786 603.109 85.7734C603.484 86.263 603.672 86.8776 603.672 87.6172C603.672 88.6172 603.307 89.4661 602.578 90.1641C601.849 90.8568 600.927 91.2031 599.812 91.2031C598.807 91.2031 597.971 90.9036 597.305 90.3047C596.643 89.7057 596.266 88.9297 596.172 87.9766ZM612.461 89.6484V91H604.891C604.88 90.6615 604.935 90.3359 605.055 90.0234C605.247 89.5078 605.555 89 605.977 88.5C606.404 88 607.018 87.4219 607.82 86.7656C609.065 85.7448 609.906 84.9375 610.344 84.3438C610.781 83.7448 611 83.1797 611 82.6484C611 82.0911 610.799 81.6224 610.398 81.2422C610.003 80.8568 609.484 80.6641 608.844 80.6641C608.167 80.6641 607.625 80.8672 607.219 81.2734C606.812 81.6797 606.607 82.2422 606.602 82.9609L605.156 82.8125C605.255 81.7344 605.628 80.9141 606.273 80.3516C606.919 79.7839 607.786 79.5 608.875 79.5C609.974 79.5 610.844 79.8047 611.484 80.4141C612.125 81.0234 612.445 81.7786 612.445 82.6797C612.445 83.138 612.352 83.5885 612.164 84.0312C611.977 84.474 611.664 84.9401 611.227 85.4297C610.794 85.9193 610.073 86.5911 609.062 87.4453C608.219 88.1536 607.677 88.6354 607.438 88.8906C607.198 89.1406 607 89.3932 606.844 89.6484H612.461ZM618.82 94.1797V82.7031H620.102V83.7812C620.404 83.3594 620.745 83.0443 621.125 82.8359C621.505 82.6224 621.966 82.5156 622.508 82.5156C623.216 82.5156 623.841 82.6979 624.383 83.0625C624.924 83.4271 625.333 83.9427 625.609 84.6094C625.885 85.2708 626.023 85.9974 626.023 86.7891C626.023 87.638 625.87 88.4036 625.562 89.0859C625.26 89.763 624.818 90.2839 624.234 90.6484C623.656 91.0078 623.047 91.1875 622.406 91.1875C621.938 91.1875 621.516 91.0885 621.141 90.8906C620.771 90.6927 620.466 90.4427 620.227 90.1406V94.1797H618.82ZM620.094 86.8984C620.094 87.9661 620.31 88.7552 620.742 89.2656C621.174 89.776 621.698 90.0312 622.312 90.0312C622.938 90.0312 623.471 89.7682 623.914 89.2422C624.362 88.7109 624.586 87.8906 624.586 86.7812C624.586 85.724 624.367 84.9323 623.93 84.4062C623.497 83.8802 622.979 83.6172 622.375 83.6172C621.776 83.6172 621.245 83.8984 620.781 84.4609C620.323 85.0182 620.094 85.8307 620.094 86.8984ZM627.734 81.1641V79.5469H629.141V81.1641H627.734ZM627.734 91V82.7031H629.141V91H627.734ZM630.352 91L633.383 86.6875L630.578 82.7031H632.336L633.609 84.6484C633.849 85.0182 634.042 85.3281 634.188 85.5781C634.417 85.2344 634.628 84.9297 634.82 84.6641L636.219 82.7031H637.898L635.031 86.6094L638.117 91H636.391L634.688 88.4219L634.234 87.7266L632.055 91H630.352ZM644.969 88.3281L646.422 88.5078C646.193 89.3568 645.768 90.0156 645.148 90.4844C644.529 90.9531 643.737 91.1875 642.773 91.1875C641.56 91.1875 640.596 90.8151 639.883 90.0703C639.174 89.3203 638.82 88.2708 638.82 86.9219C638.82 85.526 639.18 84.4427 639.898 83.6719C640.617 82.901 641.549 82.5156 642.695 82.5156C643.805 82.5156 644.711 82.8932 645.414 83.6484C646.117 84.4036 646.469 85.4661 646.469 86.8359C646.469 86.9193 646.466 87.0443 646.461 87.2109H640.273C640.326 88.1224 640.583 88.8203 641.047 89.3047C641.51 89.7891 642.089 90.0312 642.781 90.0312C643.297 90.0312 643.737 89.8958 644.102 89.625C644.466 89.3542 644.755 88.9219 644.969 88.3281ZM640.352 86.0547H644.984C644.922 85.3568 644.745 84.8333 644.453 84.4844C644.005 83.9427 643.424 83.6719 642.711 83.6719C642.065 83.6719 641.521 83.888 641.078 84.3203C640.641 84.7526 640.398 85.3307 640.352 86.0547ZM648.164 91V79.5469H649.57V91H648.164ZM651.195 88.5234L652.586 88.3047C652.664 88.862 652.88 89.2891 653.234 89.5859C653.594 89.8828 654.094 90.0312 654.734 90.0312C655.38 90.0312 655.859 89.901 656.172 89.6406C656.484 89.375 656.641 89.0651 656.641 88.7109C656.641 88.3932 656.503 88.1432 656.227 87.9609C656.034 87.8359 655.555 87.6771 654.789 87.4844C653.758 87.224 653.042 87 652.641 86.8125C652.245 86.6198 651.943 86.3568 651.734 86.0234C651.531 85.6849 651.43 85.3125 651.43 84.9062C651.43 84.5365 651.513 84.1953 651.68 83.8828C651.852 83.5651 652.083 83.3021 652.375 83.0938C652.594 82.9323 652.891 82.7969 653.266 82.6875C653.646 82.5729 654.052 82.5156 654.484 82.5156C655.135 82.5156 655.706 82.6094 656.195 82.7969C656.69 82.9844 657.055 83.2396 657.289 83.5625C657.523 83.8802 657.685 84.3073 657.773 84.8438L656.398 85.0312C656.336 84.6042 656.154 84.2708 655.852 84.0312C655.555 83.7917 655.133 83.6719 654.586 83.6719C653.94 83.6719 653.479 83.7786 653.203 83.9922C652.927 84.2057 652.789 84.4557 652.789 84.7422C652.789 84.9245 652.846 85.0885 652.961 85.2344C653.076 85.3854 653.255 85.5104 653.5 85.6094C653.641 85.6615 654.055 85.7812 654.742 85.9688C655.737 86.2344 656.43 86.4531 656.82 86.625C657.216 86.7917 657.526 87.0365 657.75 87.3594C657.974 87.6823 658.086 88.0833 658.086 88.5625C658.086 89.0312 657.948 89.474 657.672 89.8906C657.401 90.3021 657.008 90.6224 656.492 90.8516C655.977 91.0755 655.393 91.1875 654.742 91.1875C653.664 91.1875 652.841 90.9635 652.273 90.5156C651.711 90.0677 651.352 89.4036 651.195 88.5234ZM669.594 91V89.9531C669.068 90.776 668.294 91.1875 667.273 91.1875C666.612 91.1875 666.003 91.0052 665.445 90.6406C664.893 90.276 664.464 89.7682 664.156 89.1172C663.854 88.4609 663.703 87.7083 663.703 86.8594C663.703 86.0312 663.841 85.2812 664.117 84.6094C664.393 83.9323 664.807 83.4141 665.359 83.0547C665.911 82.6953 666.529 82.5156 667.211 82.5156C667.711 82.5156 668.156 82.6224 668.547 82.8359C668.938 83.0443 669.255 83.3177 669.5 83.6562V79.5469H670.898V91H669.594ZM665.148 86.8594C665.148 87.9219 665.372 88.7161 665.82 89.2422C666.268 89.7682 666.797 90.0312 667.406 90.0312C668.021 90.0312 668.542 89.7812 668.969 89.2812C669.401 88.776 669.617 88.0078 669.617 86.9766C669.617 85.8411 669.398 85.0078 668.961 84.4766C668.523 83.9453 667.984 83.6797 667.344 83.6797C666.719 83.6797 666.195 83.9349 665.773 84.4453C665.357 84.9557 665.148 85.7604 665.148 86.8594ZM678.797 88.3281L680.25 88.5078C680.021 89.3568 679.596 90.0156 678.977 90.4844C678.357 90.9531 677.565 91.1875 676.602 91.1875C675.388 91.1875 674.424 90.8151 673.711 90.0703C673.003 89.3203 672.648 88.2708 672.648 86.9219C672.648 85.526 673.008 84.4427 673.727 83.6719C674.445 82.901 675.378 82.5156 676.523 82.5156C677.633 82.5156 678.539 82.8932 679.242 83.6484C679.945 84.4036 680.297 85.4661 680.297 86.8359C680.297 86.9193 680.294 87.0443 680.289 87.2109H674.102C674.154 88.1224 674.411 88.8203 674.875 89.3047C675.339 89.7891 675.917 90.0312 676.609 90.0312C677.125 90.0312 677.565 89.8958 677.93 89.625C678.294 89.3542 678.583 88.9219 678.797 88.3281ZM674.18 86.0547H678.812C678.75 85.3568 678.573 84.8333 678.281 84.4844C677.833 83.9427 677.253 83.6719 676.539 83.6719C675.893 83.6719 675.349 83.888 674.906 84.3203C674.469 84.7526 674.227 85.3307 674.18 86.0547ZM686.477 91V79.5469H687.883V83.6562C688.539 82.8958 689.367 82.5156 690.367 82.5156C690.982 82.5156 691.516 82.638 691.969 82.8828C692.422 83.1224 692.745 83.4557 692.938 83.8828C693.135 84.3099 693.234 84.9297 693.234 85.7422V91H691.828V85.7422C691.828 85.0391 691.674 84.5286 691.367 84.2109C691.065 83.888 690.635 83.7266 690.078 83.7266C689.661 83.7266 689.268 83.8359 688.898 84.0547C688.534 84.2682 688.273 84.5599 688.117 84.9297C687.961 85.2995 687.883 85.8099 687.883 86.4609V91H686.477ZM700.797 89.9766C700.276 90.4193 699.773 90.7318 699.289 90.9141C698.81 91.0964 698.294 91.1875 697.742 91.1875C696.831 91.1875 696.13 90.9661 695.641 90.5234C695.151 90.0755 694.906 89.5052 694.906 88.8125C694.906 88.4062 694.997 88.0365 695.18 87.7031C695.367 87.3646 695.609 87.0938 695.906 86.8906C696.208 86.6875 696.547 86.5339 696.922 86.4297C697.198 86.3568 697.615 86.2865 698.172 86.2188C699.307 86.0833 700.143 85.9219 700.68 85.7344C700.685 85.5417 700.688 85.4193 700.688 85.3672C700.688 84.7943 700.555 84.3906 700.289 84.1562C699.93 83.8385 699.396 83.6797 698.688 83.6797C698.026 83.6797 697.536 83.7969 697.219 84.0312C696.906 84.2604 696.674 84.6693 696.523 85.2578L695.148 85.0703C695.273 84.4818 695.479 84.0078 695.766 83.6484C696.052 83.2839 696.466 83.0052 697.008 82.8125C697.549 82.6146 698.177 82.5156 698.891 82.5156C699.599 82.5156 700.174 82.599 700.617 82.7656C701.06 82.9323 701.385 83.1432 701.594 83.3984C701.802 83.6484 701.948 83.9661 702.031 84.3516C702.078 84.5911 702.102 85.0234 702.102 85.6484V87.5234C702.102 88.8307 702.13 89.6589 702.188 90.0078C702.25 90.3516 702.37 90.6823 702.547 91H701.078C700.932 90.7083 700.839 90.3672 700.797 89.9766ZM700.68 86.8359C700.169 87.0443 699.404 87.2214 698.383 87.3672C697.805 87.4505 697.396 87.5443 697.156 87.6484C696.917 87.7526 696.732 87.9062 696.602 88.1094C696.471 88.3073 696.406 88.5286 696.406 88.7734C696.406 89.1484 696.547 89.4609 696.828 89.7109C697.115 89.9609 697.531 90.0859 698.078 90.0859C698.62 90.0859 699.102 89.9688 699.523 89.7344C699.945 89.4948 700.255 89.1693 700.453 88.7578C700.604 88.4401 700.68 87.9714 700.68 87.3516V86.8359ZM709.727 91V89.7812C709.081 90.7188 708.203 91.1875 707.094 91.1875C706.604 91.1875 706.146 91.0938 705.719 90.9062C705.297 90.7188 704.982 90.4844 704.773 90.2031C704.57 89.9167 704.427 89.5677 704.344 89.1562C704.286 88.8802 704.258 88.4427 704.258 87.8438V82.7031H705.664V87.3047C705.664 88.0391 705.693 88.5339 705.75 88.7891C705.839 89.1589 706.026 89.4505 706.312 89.6641C706.599 89.8724 706.953 89.9766 707.375 89.9766C707.797 89.9766 708.193 89.8698 708.562 89.6562C708.932 89.4375 709.193 89.1432 709.344 88.7734C709.5 88.3984 709.578 87.8568 709.578 87.1484V82.7031H710.984V91H709.727ZM716.266 89.7422L716.469 90.9844C716.073 91.0677 715.719 91.1094 715.406 91.1094C714.896 91.1094 714.5 91.0286 714.219 90.8672C713.938 90.7057 713.74 90.4948 713.625 90.2344C713.51 89.9688 713.453 89.4141 713.453 88.5703V83.7969H712.422V82.7031H713.453V80.6484L714.852 79.8047V82.7031H716.266V83.7969H714.852V88.6484C714.852 89.0495 714.875 89.3073 714.922 89.4219C714.974 89.5365 715.055 89.6276 715.164 89.6953C715.279 89.763 715.44 89.7969 715.648 89.7969C715.805 89.7969 716.01 89.7786 716.266 89.7422Z" fill="#3E3E3D"/>
<g opacity="0.5">
<path d="M579.5 109.5H1159" stroke="#CDCCCB"/>
</g>
<rect width="579.5" height="49" transform="translate(579.5 110)" fill="white"/>
<path d="M603.555 138.648V140H595.984C595.974 139.661 596.029 139.336 596.148 139.023C596.341 138.508 596.648 138 597.07 137.5C597.497 137 598.112 136.422 598.914 135.766C600.159 134.745 601 133.938 601.438 133.344C601.875 132.745 602.094 132.18 602.094 131.648C602.094 131.091 601.893 130.622 601.492 130.242C601.096 129.857 600.578 129.664 599.938 129.664C599.26 129.664 598.719 129.867 598.312 130.273C597.906 130.68 597.701 131.242 597.695 131.961L596.25 131.812C596.349 130.734 596.721 129.914 597.367 129.352C598.013 128.784 598.88 128.5 599.969 128.5C601.068 128.5 601.938 128.805 602.578 129.414C603.219 130.023 603.539 130.779 603.539 131.68C603.539 132.138 603.445 132.589 603.258 133.031C603.07 133.474 602.758 133.94 602.32 134.43C601.888 134.919 601.167 135.591 600.156 136.445C599.312 137.154 598.771 137.635 598.531 137.891C598.292 138.141 598.094 138.393 597.938 138.648H603.555ZM609.578 140V137.258H604.609V135.969L609.836 128.547H610.984V135.969H612.531V137.258H610.984V140H609.578ZM609.578 135.969V130.805L605.992 135.969H609.578ZM618.82 143.18V131.703H620.102V132.781C620.404 132.359 620.745 132.044 621.125 131.836C621.505 131.622 621.966 131.516 622.508 131.516C623.216 131.516 623.841 131.698 624.383 132.062C624.924 132.427 625.333 132.943 625.609 133.609C625.885 134.271 626.023 134.997 626.023 135.789C626.023 136.638 625.87 137.404 625.562 138.086C625.26 138.763 624.818 139.284 624.234 139.648C623.656 140.008 623.047 140.188 622.406 140.188C621.938 140.188 621.516 140.089 621.141 139.891C620.771 139.693 620.466 139.443 620.227 139.141V143.18H618.82ZM620.094 135.898C620.094 136.966 620.31 137.755 620.742 138.266C621.174 138.776 621.698 139.031 622.312 139.031C622.938 139.031 623.471 138.768 623.914 138.242C624.362 137.711 624.586 136.891 624.586 135.781C624.586 134.724 624.367 133.932 623.93 133.406C623.497 132.88 622.979 132.617 622.375 132.617C621.776 132.617 621.245 132.898 620.781 133.461C620.323 134.018 620.094 134.831 620.094 135.898ZM627.734 130.164V128.547H629.141V130.164H627.734ZM627.734 140V131.703H629.141V140H627.734ZM630.352 140L633.383 135.688L630.578 131.703H632.336L633.609 133.648C633.849 134.018 634.042 134.328 634.188 134.578C634.417 134.234 634.628 133.93 634.82 133.664L636.219 131.703H637.898L635.031 135.609L638.117 140H636.391L634.688 137.422L634.234 136.727L632.055 140H630.352ZM644.969 137.328L646.422 137.508C646.193 138.357 645.768 139.016 645.148 139.484C644.529 139.953 643.737 140.188 642.773 140.188C641.56 140.188 640.596 139.815 639.883 139.07C639.174 138.32 638.82 137.271 638.82 135.922C638.82 134.526 639.18 133.443 639.898 132.672C640.617 131.901 641.549 131.516 642.695 131.516C643.805 131.516 644.711 131.893 645.414 132.648C646.117 133.404 646.469 134.466 646.469 135.836C646.469 135.919 646.466 136.044 646.461 136.211H640.273C640.326 137.122 640.583 137.82 641.047 138.305C641.51 138.789 642.089 139.031 642.781 139.031C643.297 139.031 643.737 138.896 644.102 138.625C644.466 138.354 644.755 137.922 644.969 137.328ZM640.352 135.055H644.984C644.922 134.357 644.745 133.833 644.453 133.484C644.005 132.943 643.424 132.672 642.711 132.672C642.065 132.672 641.521 132.888 641.078 133.32C640.641 133.753 640.398 134.331 640.352 135.055ZM648.164 140V128.547H649.57V140H648.164ZM651.195 137.523L652.586 137.305C652.664 137.862 652.88 138.289 653.234 138.586C653.594 138.883 654.094 139.031 654.734 139.031C655.38 139.031 655.859 138.901 656.172 138.641C656.484 138.375 656.641 138.065 656.641 137.711C656.641 137.393 656.503 137.143 656.227 136.961C656.034 136.836 655.555 136.677 654.789 136.484C653.758 136.224 653.042 136 652.641 135.812C652.245 135.62 651.943 135.357 651.734 135.023C651.531 134.685 651.43 134.312 651.43 133.906C651.43 133.536 651.513 133.195 651.68 132.883C651.852 132.565 652.083 132.302 652.375 132.094C652.594 131.932 652.891 131.797 653.266 131.688C653.646 131.573 654.052 131.516 654.484 131.516C655.135 131.516 655.706 131.609 656.195 131.797C656.69 131.984 657.055 132.24 657.289 132.562C657.523 132.88 657.685 133.307 657.773 133.844L656.398 134.031C656.336 133.604 656.154 133.271 655.852 133.031C655.555 132.792 655.133 132.672 654.586 132.672C653.94 132.672 653.479 132.779 653.203 132.992C652.927 133.206 652.789 133.456 652.789 133.742C652.789 133.924 652.846 134.089 652.961 134.234C653.076 134.385 653.255 134.51 653.5 134.609C653.641 134.661 654.055 134.781 654.742 134.969C655.737 135.234 656.43 135.453 656.82 135.625C657.216 135.792 657.526 136.036 657.75 136.359C657.974 136.682 658.086 137.083 658.086 137.562C658.086 138.031 657.948 138.474 657.672 138.891C657.401 139.302 657.008 139.622 656.492 139.852C655.977 140.076 655.393 140.188 654.742 140.188C653.664 140.188 652.841 139.964 652.273 139.516C651.711 139.068 651.352 138.404 651.195 137.523ZM669.594 140V138.953C669.068 139.776 668.294 140.188 667.273 140.188C666.612 140.188 666.003 140.005 665.445 139.641C664.893 139.276 664.464 138.768 664.156 138.117C663.854 137.461 663.703 136.708 663.703 135.859C663.703 135.031 663.841 134.281 664.117 133.609C664.393 132.932 664.807 132.414 665.359 132.055C665.911 131.695 666.529 131.516 667.211 131.516C667.711 131.516 668.156 131.622 668.547 131.836C668.938 132.044 669.255 132.318 669.5 132.656V128.547H670.898V140H669.594ZM665.148 135.859C665.148 136.922 665.372 137.716 665.82 138.242C666.268 138.768 666.797 139.031 667.406 139.031C668.021 139.031 668.542 138.781 668.969 138.281C669.401 137.776 669.617 137.008 669.617 135.977C669.617 134.841 669.398 134.008 668.961 133.477C668.523 132.945 667.984 132.68 667.344 132.68C666.719 132.68 666.195 132.935 665.773 133.445C665.357 133.956 665.148 134.76 665.148 135.859ZM678.797 137.328L680.25 137.508C680.021 138.357 679.596 139.016 678.977 139.484C678.357 139.953 677.565 140.188 676.602 140.188C675.388 140.188 674.424 139.815 673.711 139.07C673.003 138.32 672.648 137.271 672.648 135.922C672.648 134.526 673.008 133.443 673.727 132.672C674.445 131.901 675.378 131.516 676.523 131.516C677.633 131.516 678.539 131.893 679.242 132.648C679.945 133.404 680.297 134.466 680.297 135.836C680.297 135.919 680.294 136.044 680.289 136.211H674.102C674.154 137.122 674.411 137.82 674.875 138.305C675.339 138.789 675.917 139.031 676.609 139.031C677.125 139.031 677.565 138.896 677.93 138.625C678.294 138.354 678.583 137.922 678.797 137.328ZM674.18 135.055H678.812C678.75 134.357 678.573 133.833 678.281 133.484C677.833 132.943 677.253 132.672 676.539 132.672C675.893 132.672 675.349 132.888 674.906 133.32C674.469 133.753 674.227 134.331 674.18 135.055ZM686.477 140V128.547H687.883V132.656C688.539 131.896 689.367 131.516 690.367 131.516C690.982 131.516 691.516 131.638 691.969 131.883C692.422 132.122 692.745 132.456 692.938 132.883C693.135 133.31 693.234 133.93 693.234 134.742V140H691.828V134.742C691.828 134.039 691.674 133.529 691.367 133.211C691.065 132.888 690.635 132.727 690.078 132.727C689.661 132.727 689.268 132.836 688.898 133.055C688.534 133.268 688.273 133.56 688.117 133.93C687.961 134.299 687.883 134.81 687.883 135.461V140H686.477ZM700.797 138.977C700.276 139.419 699.773 139.732 699.289 139.914C698.81 140.096 698.294 140.188 697.742 140.188C696.831 140.188 696.13 139.966 695.641 139.523C695.151 139.076 694.906 138.505 694.906 137.812C694.906 137.406 694.997 137.036 695.18 136.703C695.367 136.365 695.609 136.094 695.906 135.891C696.208 135.688 696.547 135.534 696.922 135.43C697.198 135.357 697.615 135.286 698.172 135.219C699.307 135.083 700.143 134.922 700.68 134.734C700.685 134.542 700.688 134.419 700.688 134.367C700.688 133.794 700.555 133.391 700.289 133.156C699.93 132.839 699.396 132.68 698.688 132.68C698.026 132.68 697.536 132.797 697.219 133.031C696.906 133.26 696.674 133.669 696.523 134.258L695.148 134.07C695.273 133.482 695.479 133.008 695.766 132.648C696.052 132.284 696.466 132.005 697.008 131.812C697.549 131.615 698.177 131.516 698.891 131.516C699.599 131.516 700.174 131.599 700.617 131.766C701.06 131.932 701.385 132.143 701.594 132.398C701.802 132.648 701.948 132.966 702.031 133.352C702.078 133.591 702.102 134.023 702.102 134.648V136.523C702.102 137.831 702.13 138.659 702.188 139.008C702.25 139.352 702.37 139.682 702.547 140H701.078C700.932 139.708 700.839 139.367 700.797 138.977ZM700.68 135.836C700.169 136.044 699.404 136.221 698.383 136.367C697.805 136.451 697.396 136.544 697.156 136.648C696.917 136.753 696.732 136.906 696.602 137.109C696.471 137.307 696.406 137.529 696.406 137.773C696.406 138.148 696.547 138.461 696.828 138.711C697.115 138.961 697.531 139.086 698.078 139.086C698.62 139.086 699.102 138.969 699.523 138.734C699.945 138.495 700.255 138.169 700.453 137.758C700.604 137.44 700.68 136.971 700.68 136.352V135.836ZM709.727 140V138.781C709.081 139.719 708.203 140.188 707.094 140.188C706.604 140.188 706.146 140.094 705.719 139.906C705.297 139.719 704.982 139.484 704.773 139.203C704.57 138.917 704.427 138.568 704.344 138.156C704.286 137.88 704.258 137.443 704.258 136.844V131.703H705.664V136.305C705.664 137.039 705.693 137.534 705.75 137.789C705.839 138.159 706.026 138.451 706.312 138.664C706.599 138.872 706.953 138.977 707.375 138.977C707.797 138.977 708.193 138.87 708.562 138.656C708.932 138.438 709.193 138.143 709.344 137.773C709.5 137.398 709.578 136.857 709.578 136.148V131.703H710.984V140H709.727ZM716.266 138.742L716.469 139.984C716.073 140.068 715.719 140.109 715.406 140.109C714.896 140.109 714.5 140.029 714.219 139.867C713.938 139.706 713.74 139.495 713.625 139.234C713.51 138.969 713.453 138.414 713.453 137.57V132.797H712.422V131.703H713.453V129.648L714.852 128.805V131.703H716.266V132.797H714.852V137.648C714.852 138.049 714.875 138.307 714.922 138.422C714.974 138.536 715.055 138.628 715.164 138.695C715.279 138.763 715.44 138.797 715.648 138.797C715.805 138.797 716.01 138.779 716.266 138.742Z" fill="#3E3E3D"/>
<g opacity="0.5">
<path d="M579.5 158.5H1159" stroke="#CDCCCB"/>
</g>
</g>
<rect x="0.5" y="0.5" width="1158" height="158" rx="7.5" stroke="#CDCCCB"/>
<defs>
<clipPath id="clip0_240_28634">
<rect width="1159" height="159" rx="8" fill="white"/>
</clipPath>
</defs>
</svg>
