<svg viewBox="0 0 20 20" fill="none" xmlns="http://www.w3.org/2000/svg">
<path d="M4.4375 17.5594C4.72917 17.8531 5.08139 18 5.49417 18H5.75C6.16421 18 6.5 17.6642 6.5 17.25C6.5 16.8358 6.16421 16.5 5.75 16.5H5.5V3.5H11.375L14.5 6.625V13.25C14.5 13.6642 14.8358 14 15.25 14C15.6642 14 16 13.6642 16 13.25V6.625C16 6.4275 15.9653 6.23924 15.8958 6.06021C15.8264 5.88118 15.7153 5.71528 15.5625 5.5625L12.4375 2.4375C12.2847 2.28472 12.1188 2.17361 11.9398 2.10417C11.7608 2.03472 11.5725 2 11.375 2H5.5C5.0875 2 4.73437 2.14688 4.44062 2.44063C4.14687 2.73438 4 3.0875 4 3.5V16.5C4 16.9125 4.14583 17.2656 4.4375 17.5594Z" fill="currentColor"/>
<path d="M7.36957 17.9654C7.26533 17.9654 7.17768 17.9378 7.10661 17.8824C7.04027 17.8225 7.00474 17.7464 7 17.6542C7 17.562 7.04027 17.4652 7.12082 17.3638L8.09411 16.1945L7.19189 15.0954C7.10661 14.994 7.06633 14.8972 7.07107 14.805C7.07581 14.7128 7.11134 14.639 7.17768 14.5837C7.24875 14.5237 7.3364 14.4938 7.44064 14.4938C7.54961 14.4938 7.63963 14.5122 7.7107 14.5491C7.78651 14.586 7.85521 14.6436 7.91681 14.722L8.63329 15.6167L9.31689 14.722C9.38322 14.6436 9.45193 14.586 9.523 14.5491C9.59407 14.5122 9.68172 14.4938 9.78596 14.4938C9.89493 14.4938 9.98258 14.5237 10.0489 14.5837C10.1152 14.6436 10.1484 14.7197 10.1484 14.8119C10.1532 14.9041 10.1129 15.0009 10.0276 15.1024L9.11147 16.1945L10.1058 17.3638C10.1911 17.4606 10.2313 17.5551 10.2266 17.6473C10.2219 17.7395 10.1839 17.8156 10.1129 17.8755C10.0465 17.9355 9.95889 17.9654 9.84992 17.9654C9.74568 17.9654 9.65803 17.947 9.58696 17.9101C9.51589 17.8732 9.44719 17.8156 9.38086 17.7372L8.63329 16.7898L7.83863 17.7372C7.77704 17.811 7.7107 17.8686 7.63963 17.9101C7.56856 17.947 7.47854 17.9654 7.36957 17.9654Z" fill="currentColor"/>
<path d="M12.1945 18C11.8013 18 11.5051 17.8917 11.3061 17.675C11.1071 17.4537 11.0076 17.1309 11.0076 16.7068V13.4357C11.0076 13.2928 11.0455 13.1844 11.1214 13.1107C11.1972 13.0369 11.3061 13 11.4483 13C11.5904 13 11.6994 13.0369 11.7752 13.1107C11.8557 13.1844 11.896 13.2928 11.896 13.4357V16.6653C11.896 16.8774 11.941 17.0341 12.0311 17.1355C12.1258 17.237 12.2585 17.2877 12.4291 17.2877C12.467 17.2877 12.5025 17.2877 12.5357 17.2877C12.5688 17.2831 12.602 17.2785 12.6352 17.2739C12.7015 17.2646 12.7465 17.2831 12.7702 17.3292C12.7939 17.3707 12.8057 17.4583 12.8057 17.592C12.8057 17.7072 12.782 17.7971 12.7347 17.8617C12.6873 17.9262 12.6091 17.9654 12.5001 17.9793C12.4527 17.9839 12.403 17.9885 12.3509 17.9931C12.2988 17.9977 12.2466 18 12.1945 18Z" fill="currentColor"/>
<path d="M14.5146 18C14.3109 18 14.0953 17.9793 13.8679 17.9378C13.6405 17.8963 13.4367 17.8248 13.2567 17.7234C13.1809 17.6773 13.1264 17.6243 13.0932 17.5643C13.0648 17.4998 13.053 17.4375 13.0577 17.3776C13.0672 17.313 13.0909 17.2577 13.1288 17.2116C13.1714 17.1655 13.2235 17.1355 13.2851 17.1217C13.3514 17.1079 13.4225 17.1194 13.4983 17.1563C13.6878 17.2439 13.8655 17.3061 14.0314 17.343C14.1972 17.3753 14.3606 17.3914 14.5217 17.3914C14.7492 17.3914 14.9174 17.3545 15.0263 17.2808C15.14 17.2024 15.1969 17.101 15.1969 16.9765C15.1969 16.8704 15.159 16.7898 15.0832 16.7344C15.0121 16.6745 14.9031 16.6307 14.7563 16.603L14.0456 16.4716C13.7518 16.4163 13.5268 16.3126 13.3704 16.1604C13.2188 16.0037 13.143 15.8031 13.143 15.5588C13.143 15.3375 13.2046 15.1462 13.3278 14.9848C13.4557 14.8234 13.631 14.6989 13.8537 14.6113C14.0764 14.5237 14.3322 14.4799 14.6212 14.4799C14.8297 14.4799 15.024 14.503 15.204 14.5491C15.3888 14.5906 15.5665 14.6574 15.737 14.7497C15.8081 14.7865 15.8555 14.8349 15.8792 14.8949C15.9076 14.9548 15.9147 15.0171 15.9005 15.0816C15.8863 15.1415 15.8579 15.1969 15.8152 15.2476C15.7726 15.2937 15.7181 15.3237 15.6518 15.3375C15.5902 15.3467 15.5191 15.3329 15.4385 15.296C15.2917 15.2222 15.1495 15.1692 15.0121 15.1369C14.8795 15.1047 14.7515 15.0885 14.6283 15.0885C14.3962 15.0885 14.2232 15.1277 14.1095 15.2061C14.0006 15.2845 13.9461 15.3882 13.9461 15.5173C13.9461 15.6141 13.9792 15.6948 14.0456 15.7593C14.1119 15.8239 14.2138 15.8677 14.3512 15.8907L15.0619 16.0221C15.3698 16.0775 15.602 16.1789 15.7584 16.3264C15.9195 16.474 16 16.6722 16 16.9212C16 17.2577 15.865 17.5228 15.5949 17.7165C15.3248 17.9055 14.9647 18 14.5146 18Z" fill="currentColor"/>
</svg>
