<svg viewBox="0 0 20 20" fill="none" xmlns="http://www.w3.org/2000/svg">
<path d="M10 14.1667C10.2361 14.1667 10.434 14.0868 10.5938 13.9271C10.7535 13.7674 10.8334 13.5695 10.8334 13.3334V10C10.8334 9.76391 10.7535 9.56599 10.5938 9.40627C10.434 9.24655 10.2361 9.16669 10 9.16669C9.76391 9.16669 9.56599 9.24655 9.40627 9.40627C9.24655 9.56599 9.16669 9.76391 9.16669 10V13.3334C9.16669 13.5695 9.24655 13.7674 9.40627 13.9271C9.56599 14.0868 9.76391 14.1667 10 14.1667ZM10 7.50002C10.2361 7.50002 10.434 7.42016 10.5938 7.26044C10.7535 7.10071 10.8334 6.9028 10.8334 6.66669C10.8334 6.43058 10.7535 6.23266 10.5938 6.07294C10.434 5.91321 10.2361 5.83335 10 5.83335C9.76391 5.83335 9.56599 5.91321 9.40627 6.07294C9.24655 6.23266 9.16669 6.43058 9.16669 6.66669C9.16669 6.9028 9.24655 7.10071 9.40627 7.26044C9.56599 7.42016 9.76391 7.50002 10 7.50002ZM10 18.3334C8.84724 18.3334 7.76391 18.1146 6.75002 17.6771C5.73613 17.2396 4.85419 16.6459 4.10419 15.8959C3.35419 15.1459 2.76044 14.2639 2.32294 13.25C1.88544 12.2361 1.66669 11.1528 1.66669 10C1.66669 8.84724 1.88544 7.76391 2.32294 6.75002C2.76044 5.73613 3.35419 4.85419 4.10419 4.10419C4.85419 3.35419 5.73613 2.76044 6.75002 2.32294C7.76391 1.88544 8.84724 1.66669 10 1.66669C11.1528 1.66669 12.2361 1.88544 13.25 2.32294C14.2639 2.76044 15.1459 3.35419 15.8959 4.10419C16.6459 4.85419 17.2396 5.73613 17.6771 6.75002C18.1146 7.76391 18.3334 8.84724 18.3334 10C18.3334 11.1528 18.1146 12.2361 17.6771 13.25C17.2396 14.2639 16.6459 15.1459 15.8959 15.8959C15.1459 16.6459 14.2639 17.2396 13.25 17.6771C12.2361 18.1146 11.1528 18.3334 10 18.3334ZM10 16.6667C11.8611 16.6667 13.4375 16.0209 14.7292 14.7292C16.0209 13.4375 16.6667 11.8611 16.6667 10C16.6667 8.13891 16.0209 6.56252 14.7292 5.27085C13.4375 3.97919 11.8611 3.33335 10 3.33335C8.13891 3.33335 6.56252 3.97919 5.27085 5.27085C3.97919 6.56252 3.33335 8.13891 3.33335 10C3.33335 11.8611 3.97919 13.4375 5.27085 14.7292C6.56252 16.0209 8.13891 16.6667 10 16.6667Z" fill="currentColor"/>
</svg>