<svg viewBox="0 0 20 20" fill="none" xmlns="http://www.w3.org/2000/svg">
<path d="M12.5 14.1667C12.7361 14.1667 12.934 14.0868 13.0938 13.9271C13.2535 13.7674 13.3333 13.5694 13.3333 13.3333V6.66667C13.3333 6.43056 13.2535 6.23264 13.0938 6.07292C12.934 5.91319 12.7361 5.83333 12.5 5.83333H7.5C7.26389 5.83333 7.06597 5.91319 6.90625 6.07292C6.74653 6.23264 6.66667 6.43056 6.66667 6.66667V13.3333C6.66667 13.5694 6.74653 13.7674 6.90625 13.9271C7.06597 14.0868 7.26389 14.1667 7.5 14.1667H12.5ZM8.33333 12.5V7.5H11.6667V12.5H8.33333ZM4.16667 17.5C3.70833 17.5 3.31597 17.3368 2.98958 17.0104C2.66319 16.684 2.5 16.2917 2.5 15.8333V4.16667C2.5 3.70833 2.66319 3.31597 2.98958 2.98958C3.31597 2.66319 3.70833 2.5 4.16667 2.5H15.8333C16.2917 2.5 16.684 2.66319 17.0104 2.98958C17.3368 3.31597 17.5 3.70833 17.5 4.16667V15.8333C17.5 16.2917 17.3368 16.684 17.0104 17.0104C16.684 17.3368 16.2917 17.5 15.8333 17.5H4.16667ZM10 10C10.2361 10 10.434 9.92014 10.5938 9.76042C10.7535 9.60069 10.8333 9.40278 10.8333 9.16667C10.8333 8.93056 10.7535 8.73264 10.5938 8.57292C10.434 8.41319 10.2361 8.33333 10 8.33333C9.76389 8.33333 9.56597 8.41319 9.40625 8.57292C9.24653 8.73264 9.16667 8.93056 9.16667 9.16667C9.16667 9.40278 9.24653 9.60069 9.40625 9.76042C9.56597 9.92014 9.76389 10 10 10Z" fill="currentColor"/>
</svg>