<svg viewBox="0 0 20 20" fill="none" xmlns="http://www.w3.org/2000/svg">
<path d="M8.3335 19.1666C8.3335 18.7083 8.49669 18.316 8.82308 17.9896C9.14947 17.6632 9.54183 17.5 10.0002 17.5V12.7291C10.1252 12.7847 10.2571 12.8264 10.396 12.8541C10.5349 12.8819 10.6807 12.8958 10.8335 12.8958C11.4168 12.8958 11.9064 12.6979 12.3022 12.3021C12.6981 11.9062 12.896 11.4166 12.896 10.8333V10.6458L15.5627 11.2916C15.7849 11.3472 15.9863 11.4444 16.1668 11.5833C16.3474 11.7222 16.4932 11.8889 16.6043 12.0833L18.5002 15.5C18.7085 15.875 18.7849 16.2708 18.7293 16.6875C18.6738 17.1041 18.4932 17.4653 18.1877 17.7708C17.8127 18.1458 17.3647 18.3333 16.8439 18.3333C16.3231 18.3333 15.8752 18.1458 15.5002 17.7708L11.6668 13.9375V17.5C12.1252 17.5 12.5175 17.6632 12.8439 17.9896C13.1703 18.316 13.3335 18.7083 13.3335 19.1666H8.3335ZM3.3335 17.5C3.09739 17.5 2.89947 17.4201 2.73975 17.2604C2.58002 17.1007 2.50016 16.9028 2.50016 16.6666C2.50016 16.4305 2.58002 16.2326 2.73975 16.0729C2.89947 15.9132 3.09739 15.8333 3.3335 15.8333H5.8335C6.06961 15.8333 6.26752 15.9132 6.42725 16.0729C6.58697 16.2326 6.66683 16.4305 6.66683 16.6666C6.66683 16.9028 6.58697 17.1007 6.42725 17.2604C6.26752 17.4201 6.06961 17.5 5.8335 17.5H3.3335ZM5.9585 13.9583L2.2085 12.8958C1.80572 12.7847 1.47586 12.559 1.21891 12.2187C0.961968 11.8785 0.833496 11.493 0.833496 11.0625C0.833496 10.5347 1.01752 10.0868 1.38558 9.71873C1.75363 9.35068 2.20155 9.16665 2.72933 9.16665H9.60433C9.34044 9.36109 9.13558 9.60068 8.98975 9.8854C8.84391 10.1701 8.771 10.4861 8.771 10.8333C8.771 11.1528 8.8335 11.4444 8.9585 11.7083C9.0835 11.9722 9.25711 12.2014 9.47933 12.3958L7.29183 13.7916C7.09739 13.9028 6.88558 13.9757 6.65641 14.0104C6.42725 14.0451 6.19461 14.0278 5.9585 13.9583ZM10.8335 12.0833C10.4863 12.0833 10.1911 11.9618 9.94808 11.7187C9.70502 11.4757 9.5835 11.1805 9.5835 10.8333C9.5835 10.4861 9.70502 10.191 9.94808 9.9479C10.1911 9.70484 10.4863 9.58331 10.8335 9.58331C11.1807 9.58331 11.4759 9.70484 11.7189 9.9479C11.962 10.191 12.0835 10.4861 12.0835 10.8333C12.0835 11.1805 11.962 11.4757 11.7189 11.7187C11.4759 11.9618 11.1807 12.0833 10.8335 12.0833ZM12.7502 10.0416C12.5974 9.66665 12.3509 9.36109 12.0106 9.12498C11.6703 8.88887 11.2779 8.77081 10.8335 8.77081C10.6807 8.77081 10.5349 8.7847 10.396 8.81248C10.2571 8.84026 10.1252 8.88193 10.0002 8.93748V5.64581C10.0002 5.4097 10.0453 5.18748 10.1356 4.97915C10.2259 4.77081 10.3543 4.59026 10.521 4.43748L13.3752 1.77081C13.6946 1.46526 14.0661 1.29165 14.4897 1.24998C14.9134 1.20831 15.3057 1.29859 15.6668 1.52081C16.1113 1.79859 16.3995 2.19095 16.5314 2.6979C16.6634 3.20484 16.5904 3.68054 16.3127 4.12498L12.7502 10.0416ZM1.66683 7.49998C1.43072 7.49998 1.2328 7.42012 1.07308 7.2604C0.913357 7.10068 0.833496 6.90276 0.833496 6.66665C0.833496 6.43054 0.913357 6.23262 1.07308 6.0729C1.2328 5.91318 1.43072 5.83331 1.66683 5.83331H4.16683C4.40294 5.83331 4.60086 5.91318 4.76058 6.0729C4.9203 6.23262 5.00016 6.43054 5.00016 6.66665C5.00016 6.90276 4.9203 7.10068 4.76058 7.2604C4.60086 7.42012 4.40294 7.49998 4.16683 7.49998H1.66683ZM4.16683 4.16665C3.93072 4.16665 3.7328 4.08679 3.57308 3.92706C3.41336 3.76734 3.3335 3.56943 3.3335 3.33331C3.3335 3.0972 3.41336 2.89929 3.57308 2.73956C3.7328 2.57984 3.93072 2.49998 4.16683 2.49998H7.50016C7.73627 2.49998 7.93419 2.57984 8.09391 2.73956C8.25364 2.89929 8.3335 3.0972 8.3335 3.33331C8.3335 3.56943 8.25364 3.76734 8.09391 3.92706C7.93419 4.08679 7.73627 4.16665 7.50016 4.16665H4.16683Z" fill="currentColor"/>
</svg>