<svg viewBox="0 0 20 20" fill="none" xmlns="http://www.w3.org/2000/svg">
<path d="M4.87508 14.25C5.58341 13.7084 6.37508 13.2813 7.25008 12.9688C8.12508 12.6563 9.04175 12.5 10.0001 12.5C10.9584 12.5 11.8751 12.6563 12.7501 12.9688C13.6251 13.2813 14.4167 13.7084 15.1251 14.25C15.6112 13.6806 15.9897 13.0347 16.2605 12.3125C16.5313 11.5903 16.6667 10.8195 16.6667 10C16.6667 8.1528 16.0174 6.57988 14.7188 5.28127C13.4202 3.98266 11.8473 3.33335 10.0001 3.33335C8.15286 3.33335 6.57994 3.98266 5.28133 5.28127C3.98272 6.57988 3.33341 8.1528 3.33341 10C3.33341 10.8195 3.46883 11.5903 3.73966 12.3125C4.0105 13.0347 4.38897 13.6806 4.87508 14.25ZM10.0001 10.8334C9.18064 10.8334 8.48966 10.5521 7.92716 9.9896C7.36466 9.4271 7.08341 8.73613 7.08341 7.91669C7.08341 7.09724 7.36466 6.40627 7.92716 5.84377C8.48966 5.28127 9.18064 5.00002 10.0001 5.00002C10.8195 5.00002 11.5105 5.28127 12.073 5.84377C12.6355 6.40627 12.9167 7.09724 12.9167 7.91669C12.9167 8.73613 12.6355 9.4271 12.073 9.9896C11.5105 10.5521 10.8195 10.8334 10.0001 10.8334ZM10.0001 18.3334C8.8473 18.3334 7.76397 18.1146 6.75008 17.6771C5.73619 17.2396 4.85425 16.6459 4.10425 15.8959C3.35425 15.1459 2.7605 14.2639 2.323 13.25C1.8855 12.2361 1.66675 11.1528 1.66675 10C1.66675 8.84724 1.8855 7.76391 2.323 6.75002C2.7605 5.73613 3.35425 4.85419 4.10425 4.10419C4.85425 3.35419 5.73619 2.76044 6.75008 2.32294C7.76397 1.88544 8.8473 1.66669 10.0001 1.66669C11.1529 1.66669 12.2362 1.88544 13.2501 2.32294C14.264 2.76044 15.1459 3.35419 15.8959 4.10419C16.6459 4.85419 17.2397 5.73613 17.6772 6.75002C18.1147 7.76391 18.3334 8.84724 18.3334 10C18.3334 11.1528 18.1147 12.2361 17.6772 13.25C17.2397 14.2639 16.6459 15.1459 15.8959 15.8959C15.1459 16.6459 14.264 17.2396 13.2501 17.6771C12.2362 18.1146 11.1529 18.3334 10.0001 18.3334Z" fill="currentColor"/>
</svg>