<svg viewBox="0 0 20 20" fill="none" xmlns="http://www.w3.org/2000/svg">
<path d="M9.125 12.875L12.0208 9.97913C12.1875 9.81246 12.3889 9.72913 12.625 9.72913C12.8611 9.72913 13.0625 9.81246 13.2292 9.97913C13.3958 10.1458 13.4792 10.3472 13.4792 10.5833C13.4792 10.8194 13.3958 11.0208 13.2292 11.1875L9.70833 14.7083C9.54167 14.875 9.34722 14.9583 9.125 14.9583C8.90278 14.9583 8.70833 14.875 8.54167 14.7083L6.77083 12.9375C6.60417 12.7708 6.52083 12.5694 6.52083 12.3333C6.52083 12.0972 6.60417 11.8958 6.77083 11.7291C6.9375 11.5625 7.13889 11.4791 7.375 11.4791C7.61111 11.4791 7.8125 11.5625 7.97917 11.7291L9.125 12.875ZM4.16667 18.3333C3.70833 18.3333 3.31597 18.1701 2.98958 17.8437C2.66319 17.5173 2.5 17.125 2.5 16.6666V4.99996C2.5 4.54163 2.66319 4.14926 2.98958 3.82288C3.31597 3.49649 3.70833 3.33329 4.16667 3.33329H5V2.49996C5 2.26385 5.07986 2.06593 5.23958 1.90621C5.39931 1.74649 5.59722 1.66663 5.83333 1.66663C6.06944 1.66663 6.26736 1.74649 6.42708 1.90621C6.58681 2.06593 6.66667 2.26385 6.66667 2.49996V3.33329H13.3333V2.49996C13.3333 2.26385 13.4132 2.06593 13.5729 1.90621C13.7326 1.74649 13.9306 1.66663 14.1667 1.66663C14.4028 1.66663 14.6007 1.74649 14.7604 1.90621C14.9201 2.06593 15 2.26385 15 2.49996V3.33329H15.8333C16.2917 3.33329 16.684 3.49649 17.0104 3.82288C17.3368 4.14926 17.5 4.54163 17.5 4.99996V16.6666C17.5 17.125 17.3368 17.5173 17.0104 17.8437C16.684 18.1701 16.2917 18.3333 15.8333 18.3333H4.16667ZM4.16667 16.6666H15.8333V8.33329H4.16667V16.6666ZM4.16667 6.66663H15.8333V4.99996H4.16667V6.66663Z" fill="currentColor"/>
</svg>