<svg viewBox="0 0 20 20" fill="none" xmlns="http://www.w3.org/2000/svg">
<path d="M13.9999 14.5H17.2499C17.4582 14.5 17.6353 14.5729 17.7812 14.7188C17.927 14.8646 17.9999 15.0417 17.9999 15.25C17.9999 15.4583 17.927 15.6354 17.7812 15.7813C17.6353 15.9271 17.4582 16 17.2499 16H12.4999L13.9999 14.5ZM5.20824 16C5.09713 16 4.99643 15.9792 4.90616 15.9375C4.81588 15.8958 4.73602 15.8403 4.66657 15.7708L2.43741 13.5417C2.14574 13.25 1.99643 12.8993 1.98949 12.4896C1.98254 12.0799 2.13185 11.7222 2.43741 11.4167L11.4166 2.43751C11.7221 2.13195 12.0763 1.97917 12.4791 1.97917C12.8819 1.97917 13.236 2.13195 13.5416 2.43751L17.5624 6.45834C17.8541 6.75001 18.0034 7.1007 18.0103 7.51042C18.0173 7.92014 17.868 8.27778 17.5624 8.58334L10.3749 15.7708C10.3055 15.8403 10.2256 15.8958 10.1353 15.9375C10.045 15.9792 9.94435 16 9.83324 16H5.20824Z" fill="currentColor"/>
</svg>
