<svg viewBox="0 0 20 20" fill="none" xmlns="http://www.w3.org/2000/svg">
<path d="M15.7515 7.5C14.9727 7.5 14.2917 7.26389 13.7083 6.79167C13.125 6.31944 12.75 5.72222 12.5833 5H7.39417C7.2425 5.59722 6.95486 6.10764 6.53125 6.53125C6.10764 6.95486 5.59722 7.2425 5 7.39417V12.5833C5.72222 12.75 6.31944 13.125 6.79167 13.7083C7.26389 14.2917 7.5 14.9727 7.5 15.7515C7.5 16.6533 7.18403 17.4201 6.55208 18.0521C5.92014 18.684 5.15278 19 4.25 19C3.34722 19 2.57986 18.684 1.94792 18.0521C1.31597 17.4201 1 16.6533 1 15.7515C1 14.9727 1.23611 14.2917 1.70833 13.7083C2.18056 13.125 2.77778 12.75 3.5 12.5833V7.39583C2.77778 7.22917 2.18056 6.85701 1.70833 6.27937C1.23611 5.70174 1 5.02778 1 4.2575C1 3.34972 1.31597 2.57986 1.94792 1.94792C2.57986 1.31597 3.34972 1 4.2575 1C5.02778 1 5.70174 1.23611 6.27938 1.70833C6.85701 2.18056 7.22917 2.77778 7.39583 3.5H12.5833C12.75 2.77778 13.125 2.18056 13.7083 1.70833C14.2917 1.23611 14.9727 1 15.7515 1C16.6533 1 17.4201 1.31597 18.0521 1.94792C18.684 2.57986 19 3.34722 19 4.25C19 5.15278 18.684 5.92014 18.0521 6.55208C17.4201 7.18403 16.6533 7.5 15.7515 7.5ZM15.7404 19C14.844 19 14.0799 18.684 13.4479 18.0521C12.816 17.4201 12.5 16.656 12.5 15.7596C12.5 14.8632 12.816 14.0958 13.4479 13.4575C14.0799 12.8192 14.844 12.5 15.7404 12.5C16.6368 12.5 17.4042 12.8192 18.0425 13.4575C18.6808 14.0958 19 14.8632 19 15.7596C19 16.656 18.6808 17.4201 18.0425 18.0521C17.4042 18.684 16.6368 19 15.7404 19Z" fill="currentColor"/>
</svg>
