<svg viewBox="0 0 20 20" fill="none" xmlns="http://www.w3.org/2000/svg">
<path d="M14 12.1459C13.8056 12.0347 13.6806 11.8646 13.625 11.6354C13.5695 11.4063 13.5973 11.1945 13.7084 11C13.8056 10.8472 13.8855 10.684 13.948 10.5104C14.0105 10.3368 14.0556 10.1597 14.0834 9.97919C14.1389 9.74308 14.2466 9.54863 14.4063 9.39585C14.566 9.24308 14.7639 9.16669 15 9.16669C15.2362 9.16669 15.4306 9.25002 15.5834 9.41669C15.7362 9.58335 15.7987 9.78474 15.7709 10.0209C15.7292 10.3403 15.6563 10.6528 15.5521 10.9584C15.448 11.2639 15.3125 11.5556 15.1459 11.8334C15.0348 12.0278 14.8646 12.1563 14.6355 12.2188C14.4063 12.2813 14.1945 12.257 14 12.1459ZM11.0834 8.70835L7.97921 5.60419C7.82643 5.45141 7.70837 5.27433 7.62504 5.07294C7.54171 4.87155 7.50004 4.65974 7.50004 4.43752V4.16669C7.50004 3.47224 7.7431 2.88196 8.22921 2.39585C8.71532 1.90974 9.3056 1.66669 10 1.66669C10.6945 1.66669 11.2848 1.90974 11.7709 2.39585C12.257 2.88196 12.5 3.47224 12.5 4.16669V8.10419C12.5 8.47919 12.3299 8.7396 11.9896 8.88544C11.6493 9.03127 11.3473 8.97224 11.0834 8.70835ZM9.16671 16.6667V14.9167C7.88893 14.75 6.79518 14.2153 5.88546 13.3125C4.97574 12.4097 4.42365 11.3125 4.22921 10.0209C4.20143 9.78474 4.26393 9.58335 4.41671 9.41669C4.56949 9.25002 4.76393 9.16669 5.00004 9.16669C5.23615 9.16669 5.43407 9.24655 5.59379 9.40627C5.75351 9.56599 5.86115 9.76391 5.91671 10C6.11115 10.9722 6.59379 11.7709 7.36462 12.3959C8.13546 13.0209 9.01393 13.3334 10 13.3334C10.4723 13.3334 10.9202 13.2604 11.3438 13.1146C11.7674 12.9688 12.1528 12.7639 12.5 12.5L13.6875 13.6875C13.2848 14.007 12.8438 14.2743 12.3646 14.4896C11.8855 14.7049 11.375 14.8472 10.8334 14.9167V16.6667C10.8334 16.9028 10.7535 17.1007 10.5938 17.2604C10.4341 17.4202 10.2362 17.5 10 17.5C9.76393 17.5 9.56601 17.4202 9.40629 17.2604C9.24657 17.1007 9.16671 16.9028 9.16671 16.6667ZM15.9167 18.25L1.75004 4.08335C1.59726 3.93058 1.52087 3.73613 1.52087 3.50002C1.52087 3.26391 1.59726 3.06946 1.75004 2.91669C1.90282 2.76391 2.09726 2.68752 2.33337 2.68752C2.56949 2.68752 2.76393 2.76391 2.91671 2.91669L17.0834 17.0834C17.2362 17.2361 17.3125 17.4306 17.3125 17.6667C17.3125 17.9028 17.2362 18.0972 17.0834 18.25C16.9306 18.4028 16.7362 18.4792 16.5 18.4792C16.2639 18.4792 16.0695 18.4028 15.9167 18.25Z" fill="currentColor"/>
</svg>