<svg viewBox="0 0 20 20" fill="none" xmlns="http://www.w3.org/2000/svg">
<path d="M9.99984 18.3334C8.84706 18.3334 7.76373 18.1146 6.74984 17.6771C5.73595 17.2396 4.854 16.6459 4.104 15.8959C3.354 15.1459 2.76025 14.2639 2.32275 13.25C1.88525 12.2361 1.6665 11.1528 1.6665 10C1.6665 8.84724 1.88525 7.76391 2.32275 6.75002C2.76025 5.73613 3.354 4.85419 4.104 4.10419C4.854 3.35419 5.73595 2.76044 6.74984 2.32294C7.76373 1.88544 8.84706 1.66669 9.99984 1.66669C11.1526 1.66669 12.2359 1.88544 13.2498 2.32294C14.2637 2.76044 15.1457 3.35419 15.8957 4.10419C16.6457 4.85419 17.2394 5.73613 17.6769 6.75002C18.1144 7.76391 18.3332 8.84724 18.3332 10C18.3332 11.1528 18.1144 12.2361 17.6769 13.25C17.2394 14.2639 16.6457 15.1459 15.8957 15.8959C15.1457 16.6459 14.2637 17.2396 13.2498 17.6771C12.2359 18.1146 11.1526 18.3334 9.99984 18.3334ZM9.99984 16.6667C11.8609 16.6667 13.4373 16.0209 14.729 14.7292C16.0207 13.4375 16.6665 11.8611 16.6665 10C16.6665 8.13891 16.0207 6.56252 14.729 5.27085C13.4373 3.97919 11.8609 3.33335 9.99984 3.33335C8.13873 3.33335 6.56234 3.97919 5.27067 5.27085C3.979 6.56252 3.33317 8.13891 3.33317 10C3.33317 11.8611 3.979 13.4375 5.27067 14.7292C6.56234 16.0209 8.13873 16.6667 9.99984 16.6667ZM9.99984 15C11.3887 15 12.5693 14.5139 13.5415 13.5417C14.5137 12.5695 14.9998 11.3889 14.9998 10C14.9998 9.51391 14.9373 9.0521 14.8123 8.6146C14.6873 8.1771 14.5068 7.76391 14.2707 7.37502C14.104 7.09724 13.9061 6.94099 13.6769 6.90627C13.4478 6.87155 13.2359 6.90974 13.0415 7.02085C12.8471 7.13196 12.7116 7.29169 12.6353 7.50002C12.5589 7.70835 12.5971 7.91669 12.7498 8.12502C12.9443 8.38891 13.0901 8.68058 13.1873 9.00002C13.2846 9.31946 13.3332 9.6528 13.3332 10C13.3332 10.9167 13.0068 11.7014 12.354 12.3542C11.7012 13.007 10.9165 13.3334 9.99984 13.3334C9.08317 13.3334 8.29845 13.007 7.64567 12.3542C6.99289 11.7014 6.6665 10.9167 6.6665 10C6.6665 9.6528 6.71511 9.32294 6.81234 9.01044C6.90956 8.69794 7.04845 8.40974 7.229 8.14585C7.36789 7.93752 7.40261 7.73266 7.33317 7.53127C7.26373 7.32988 7.13873 7.17363 6.95817 7.06252C6.77761 6.95141 6.57275 6.90974 6.34359 6.93752C6.11442 6.9653 5.90956 7.11113 5.729 7.37502C5.479 7.75002 5.29498 8.15974 5.17692 8.60419C5.05886 9.04863 4.99984 9.51391 4.99984 10C4.99984 11.3889 5.48595 12.5695 6.45817 13.5417C7.43039 14.5139 8.61095 15 9.99984 15ZM9.99984 5.00002C9.76373 5.00002 9.56581 5.07988 9.40609 5.2396C9.24636 5.39933 9.1665 5.59724 9.1665 5.83335V9.16669C9.1665 9.4028 9.24636 9.60071 9.40609 9.76044C9.56581 9.92016 9.76373 10 9.99984 10C10.2359 10 10.4339 9.92016 10.5936 9.76044C10.7533 9.60071 10.8332 9.4028 10.8332 9.16669V5.83335C10.8332 5.59724 10.7533 5.39933 10.5936 5.2396C10.4339 5.07988 10.2359 5.00002 9.99984 5.00002Z" fill="currentColor"/>
</svg>