<svg viewBox="0 0 20 20" fill="none" xmlns="http://www.w3.org/2000/svg">
<path d="M4.16667 15.8334C3.70833 15.8334 3.31597 15.6702 2.98958 15.3438C2.66319 15.0174 2.5 14.625 2.5 14.1667V5.83335C2.5 5.37502 2.66319 4.98266 2.98958 4.65627C3.31597 4.32988 3.70833 4.16669 4.16667 4.16669H5.27083C5.72917 4.16669 6.12153 4.32988 6.44792 4.65627C6.77431 4.98266 6.9375 5.37502 6.9375 5.83335V14.1667C6.9375 14.625 6.77431 15.0174 6.44792 15.3438C6.12153 15.6702 5.72917 15.8334 5.27083 15.8334H4.16667ZM9.4375 15.8334C8.97917 15.8334 8.58681 15.6702 8.26042 15.3438C7.93403 15.0174 7.77083 14.625 7.77083 14.1667V5.83335C7.77083 5.37502 7.93403 4.98266 8.26042 4.65627C8.58681 4.32988 8.97917 4.16669 9.4375 4.16669H10.5417C11 4.16669 11.3924 4.32988 11.7188 4.65627C12.0451 4.98266 12.2083 5.37502 12.2083 5.83335V14.1667C12.2083 14.625 12.0451 15.0174 11.7188 15.3438C11.3924 15.6702 11 15.8334 10.5417 15.8334H9.4375ZM14.7083 15.8334C14.25 15.8334 13.8576 15.6702 13.5312 15.3438C13.2049 15.0174 13.0417 14.625 13.0417 14.1667V5.83335C13.0417 5.37502 13.2049 4.98266 13.5312 4.65627C13.8576 4.32988 14.25 4.16669 14.7083 4.16669H15.8125C16.2708 4.16669 16.6632 4.32988 16.9896 4.65627C17.316 4.98266 17.4792 5.37502 17.4792 5.83335V14.1667C17.4792 14.625 17.316 15.0174 16.9896 15.3438C16.6632 15.6702 16.2708 15.8334 15.8125 15.8334H14.7083Z" fill="currentColor"/>
</svg>