<svg viewBox="0 0 20 20" fill="none" xmlns="http://www.w3.org/2000/svg">
<path d="M15.8333 9.97919C15.8333 8.82641 15.5278 7.77433 14.9167 6.82294C14.3056 5.87155 13.4861 5.15974 12.4583 4.68752C12.25 4.5903 12.0972 4.44099 12 4.2396C11.9028 4.03821 11.8889 3.83335 11.9583 3.62502C12.0417 3.4028 12.191 3.24308 12.4062 3.14585C12.6215 3.04863 12.8403 3.04863 13.0625 3.14585C14.4097 3.74308 15.4861 4.65627 16.2917 5.88544C17.0972 7.1146 17.5 8.47919 17.5 9.97919C17.5 11.4792 17.0972 12.8438 16.2917 14.0729C15.4861 15.3021 14.4097 16.2153 13.0625 16.8125C12.8403 16.9097 12.6215 16.9097 12.4062 16.8125C12.191 16.7153 12.0417 16.5556 11.9583 16.3334C11.8889 16.125 11.9028 15.9202 12 15.7188C12.0972 15.5174 12.25 15.3681 12.4583 15.2709C13.4861 14.7986 14.3056 14.0868 14.9167 13.1354C15.5278 12.184 15.8333 11.132 15.8333 9.97919ZM5.83333 12.5H3.33333C3.09722 12.5 2.89931 12.4202 2.73958 12.2604C2.57986 12.1007 2.5 11.9028 2.5 11.6667V8.33335C2.5 8.09724 2.57986 7.89933 2.73958 7.7396C2.89931 7.57988 3.09722 7.50002 3.33333 7.50002H5.83333L8.58333 4.75002C8.84722 4.48613 9.14931 4.4271 9.48958 4.57294C9.82986 4.71877 10 4.97919 10 5.35419V14.6459C10 15.0209 9.82986 15.2813 9.48958 15.4271C9.14931 15.5729 8.84722 15.5139 8.58333 15.25L5.83333 12.5ZM13.75 10C13.75 10.5834 13.6181 11.1354 13.3542 11.6563C13.0903 12.1771 12.7431 12.6042 12.3125 12.9375C12.1736 13.0209 12.0312 13.0243 11.8854 12.9479C11.7396 12.8715 11.6667 12.75 11.6667 12.5834V7.37502C11.6667 7.20835 11.7396 7.08683 11.8854 7.01044C12.0312 6.93405 12.1736 6.93752 12.3125 7.02085C12.7431 7.36808 13.0903 7.80558 13.3542 8.33335C13.6181 8.86113 13.75 9.41669 13.75 10ZM8.33333 7.37502L6.54167 9.16669H4.16667V10.8334H6.54167L8.33333 12.625V7.37502Z" fill="currentColor"/>
</svg>