<svg width="1159" height="144" viewBox="0 0 1159 144" fill="none" xmlns="http://www.w3.org/2000/svg">
<rect x="0.5" y="0.5" width="1158" height="143" rx="7.5" stroke="#CDCCCB"/>
<path d="M207.204 69.28C206.537 69.28 206.017 69.0933 205.644 68.72C205.297 68.3467 205.124 67.8267 205.124 67.16V42.64C205.124 41.9467 205.297 41.4267 205.644 41.08C206.017 40.7067 206.537 40.52 207.204 40.52C207.87 40.52 208.377 40.7067 208.724 41.08C209.097 41.4267 209.284 41.9467 209.284 42.64V52.96H225.084V42.64C225.084 41.9467 225.257 41.4267 225.604 41.08C225.977 40.7067 226.497 40.52 227.164 40.52C227.83 40.52 228.337 40.7067 228.684 41.08C229.03 41.4267 229.204 41.9467 229.204 42.64V67.16C229.204 67.8267 229.03 68.3467 228.684 68.72C228.337 69.0933 227.83 69.28 227.164 69.28C226.497 69.28 225.977 69.0933 225.604 68.72C225.257 68.3467 225.084 67.8267 225.084 67.16V56.44H209.284V67.16C209.284 67.8267 209.11 68.3467 208.764 68.72C208.417 69.0933 207.897 69.28 207.204 69.28ZM243.508 69.36C241.374 69.36 239.534 68.96 237.988 68.16C236.468 67.3333 235.281 66.1733 234.428 64.68C233.601 63.16 233.188 61.36 233.188 59.28C233.188 57.2533 233.601 55.48 234.428 53.96C235.254 52.44 236.388 51.2533 237.828 50.4C239.268 49.5467 240.908 49.12 242.748 49.12C244.108 49.12 245.321 49.3467 246.388 49.8C247.454 50.2267 248.361 50.8667 249.108 51.72C249.881 52.5467 250.454 53.56 250.828 54.76C251.228 55.96 251.428 57.3067 251.428 58.8C251.428 59.2533 251.294 59.6 251.028 59.84C250.761 60.0533 250.361 60.16 249.828 60.16H236.388V57.68H248.708L248.028 58.24C248.028 56.9067 247.828 55.7733 247.428 54.84C247.054 53.9067 246.481 53.2 245.708 52.72C244.961 52.2133 244.028 51.96 242.908 51.96C241.654 51.96 240.588 52.2533 239.708 52.84C238.854 53.4267 238.201 54.24 237.748 55.28C237.294 56.32 237.068 57.5333 237.068 58.92V59.16C237.068 61.5067 237.614 63.28 238.708 64.48C239.828 65.6533 241.441 66.24 243.548 66.24C244.348 66.24 245.188 66.1333 246.068 65.92C246.974 65.7067 247.828 65.3467 248.628 64.84C249.081 64.5733 249.481 64.4533 249.828 64.48C250.201 64.5067 250.494 64.6267 250.708 64.84C250.948 65.0533 251.094 65.32 251.148 65.64C251.201 65.96 251.148 66.2933 250.988 66.64C250.828 66.96 250.548 67.2533 250.148 67.52C249.241 68.1333 248.188 68.6 246.988 68.92C245.788 69.2133 244.628 69.36 243.508 69.36ZM261.072 69.36C259.712 69.36 258.486 69.0933 257.392 68.56C256.326 68.0267 255.486 67.3067 254.872 66.4C254.259 65.4933 253.952 64.4667 253.952 63.32C253.952 61.88 254.312 60.7467 255.032 59.92C255.779 59.0667 256.992 58.4667 258.672 58.12C260.379 57.7467 262.672 57.56 265.552 57.56H267.432V60.04H265.592C263.672 60.04 262.152 60.1333 261.032 60.32C259.912 60.5067 259.112 60.8267 258.632 61.28C258.179 61.7067 257.952 62.3067 257.952 63.08C257.952 64.0933 258.299 64.92 258.992 65.56C259.686 66.1733 260.646 66.48 261.872 66.48C262.859 66.48 263.726 66.2533 264.472 65.8C265.219 65.32 265.806 64.68 266.232 63.88C266.686 63.08 266.912 62.16 266.912 61.12V56.52C266.912 55 266.592 53.9067 265.952 53.24C265.312 52.5733 264.259 52.24 262.792 52.24C261.939 52.24 261.046 52.3467 260.112 52.56C259.206 52.7733 258.259 53.1333 257.272 53.64C256.819 53.8533 256.432 53.92 256.112 53.84C255.792 53.76 255.539 53.5867 255.352 53.32C255.166 53.0267 255.059 52.72 255.032 52.4C255.032 52.0533 255.112 51.72 255.272 51.4C255.459 51.08 255.766 50.84 256.192 50.68C257.366 50.12 258.526 49.72 259.672 49.48C260.819 49.24 261.899 49.12 262.912 49.12C264.699 49.12 266.166 49.4 267.312 49.96C268.486 50.52 269.352 51.3733 269.912 52.52C270.472 53.6667 270.752 55.1467 270.752 56.96V67.24C270.752 67.88 270.592 68.3867 270.272 68.76C269.952 69.1067 269.486 69.28 268.872 69.28C268.286 69.28 267.819 69.1067 267.472 68.76C267.126 68.3867 266.952 67.88 266.952 67.24V64.64H267.312C267.099 65.6267 266.699 66.48 266.112 67.2C265.552 67.8933 264.846 68.4267 263.992 68.8C263.139 69.1733 262.166 69.36 261.072 69.36ZM282.757 69.36C281.05 69.36 279.543 68.96 278.237 68.16C276.957 67.3333 275.957 66.16 275.237 64.64C274.517 63.0933 274.157 61.2933 274.157 59.24C274.157 57.1333 274.517 55.3333 275.237 53.84C275.957 52.3467 276.957 51.1867 278.237 50.36C279.543 49.5333 281.05 49.12 282.757 49.12C284.463 49.12 285.93 49.5467 287.157 50.4C288.41 51.2267 289.25 52.3467 289.677 53.76H289.237V42.56C289.237 41.8933 289.41 41.3867 289.757 41.04C290.103 40.6933 290.597 40.52 291.237 40.52C291.877 40.52 292.37 40.6933 292.717 41.04C293.09 41.3867 293.277 41.8933 293.277 42.56V67.24C293.277 67.88 293.103 68.3867 292.757 68.76C292.41 69.1067 291.917 69.28 291.277 69.28C290.637 69.28 290.143 69.1067 289.797 68.76C289.45 68.3867 289.277 67.88 289.277 67.24V63.72L289.717 64.6C289.29 66.04 288.45 67.2 287.197 68.08C285.97 68.9333 284.49 69.36 282.757 69.36ZM283.797 66.24C284.89 66.24 285.85 65.9733 286.677 65.44C287.503 64.9067 288.143 64.12 288.597 63.08C289.077 62.04 289.317 60.76 289.317 59.24C289.317 56.9467 288.81 55.2133 287.797 54.04C286.783 52.8667 285.45 52.28 283.797 52.28C282.677 52.28 281.703 52.5467 280.877 53.08C280.05 53.5867 279.397 54.36 278.917 55.4C278.463 56.44 278.237 57.72 278.237 59.24C278.237 61.5067 278.743 63.24 279.757 64.44C280.77 65.64 282.117 66.24 283.797 66.24ZM299.949 69.24C299.309 69.24 298.816 69.0533 298.469 68.68C298.123 68.28 297.949 67.7333 297.949 67.04V51.44C297.949 50.7467 298.123 50.2133 298.469 49.84C298.816 49.4667 299.309 49.28 299.949 49.28C300.589 49.28 301.083 49.4667 301.429 49.84C301.803 50.2133 301.989 50.7467 301.989 51.44V67.04C301.989 67.7333 301.816 68.28 301.469 68.68C301.123 69.0533 300.616 69.24 299.949 69.24ZM299.949 45.12C299.149 45.12 298.523 44.92 298.069 44.52C297.643 44.12 297.429 43.56 297.429 42.84C297.429 42.0933 297.643 41.5333 298.069 41.16C298.523 40.76 299.149 40.56 299.949 40.56C300.749 40.56 301.363 40.76 301.789 41.16C302.243 41.5333 302.469 42.0933 302.469 42.84C302.469 43.56 302.243 44.12 301.789 44.52C301.363 44.92 300.749 45.12 299.949 45.12ZM308.676 69.28C308.036 69.28 307.543 69.1067 307.196 68.76C306.849 68.3867 306.676 67.88 306.676 67.24V51.24C306.676 50.5733 306.849 50.0667 307.196 49.72C307.543 49.3733 308.023 49.2 308.636 49.2C309.276 49.2 309.756 49.3733 310.076 49.72C310.423 50.0667 310.596 50.5733 310.596 51.24V54.36L310.156 53.64C310.743 52.1467 311.663 51.0267 312.916 50.28C314.169 49.5067 315.609 49.12 317.236 49.12C318.783 49.12 320.063 49.4133 321.076 50C322.116 50.56 322.889 51.4267 323.396 52.6C323.903 53.7467 324.156 55.2 324.156 56.96V67.24C324.156 67.88 323.983 68.3867 323.636 68.76C323.289 69.1067 322.796 69.28 322.156 69.28C321.489 69.28 320.983 69.1067 320.636 68.76C320.289 68.3867 320.116 67.88 320.116 67.24V57.2C320.116 55.52 319.783 54.2933 319.116 53.52C318.476 52.7467 317.463 52.36 316.076 52.36C314.449 52.36 313.143 52.8667 312.156 53.88C311.196 54.8933 310.716 56.2533 310.716 57.96V67.24C310.716 68.6 310.036 69.28 308.676 69.28ZM337.563 76.56C336.123 76.56 334.723 76.4133 333.363 76.12C332.029 75.8267 330.816 75.3467 329.723 74.68C329.323 74.4667 329.056 74.2 328.923 73.88C328.789 73.5867 328.749 73.28 328.803 72.96C328.883 72.64 329.029 72.36 329.243 72.12C329.456 71.88 329.709 71.72 330.003 71.64C330.323 71.56 330.656 71.6133 331.003 71.8C332.176 72.44 333.283 72.8667 334.323 73.08C335.389 73.32 336.376 73.44 337.283 73.44C339.149 73.44 340.549 72.96 341.483 72C342.416 71.0667 342.883 69.68 342.883 67.84V63.76H343.243C342.843 65.2267 342.003 66.3867 340.723 67.24C339.443 68.0933 337.963 68.52 336.283 68.52C334.523 68.52 332.989 68.12 331.683 67.32C330.376 66.4933 329.363 65.36 328.643 63.92C327.923 62.4533 327.563 60.7467 327.563 58.8C327.563 57.3333 327.763 56.0133 328.163 54.84C328.589 53.6667 329.176 52.6533 329.923 51.8C330.696 50.9467 331.616 50.2933 332.683 49.84C333.776 49.36 334.976 49.12 336.283 49.12C337.989 49.12 339.469 49.5467 340.723 50.4C342.003 51.2533 342.829 52.4133 343.203 53.88L342.803 54.56V51.24C342.803 50.5733 342.976 50.0667 343.323 49.72C343.696 49.3733 344.189 49.2 344.803 49.2C345.443 49.2 345.936 49.3733 346.283 49.72C346.629 50.0667 346.803 50.5733 346.803 51.24V67.36C346.803 70.4 346.016 72.6933 344.443 74.24C342.869 75.7867 340.576 76.56 337.563 76.56ZM337.243 65.36C338.416 65.36 339.416 65.0933 340.243 64.56C341.069 64.0267 341.709 63.2667 342.163 62.28C342.616 61.2933 342.843 60.1333 342.843 58.8C342.843 56.8 342.336 55.2133 341.323 54.04C340.336 52.8667 338.976 52.28 337.243 52.28C336.096 52.28 335.109 52.5467 334.283 53.08C333.456 53.6133 332.803 54.3733 332.323 55.36C331.869 56.32 331.643 57.4667 331.643 58.8C331.643 60.8267 332.149 62.4267 333.163 63.6C334.176 64.7733 335.536 65.36 337.243 65.36ZM361.7 69.28C361.166 69.28 360.726 69.1467 360.38 68.88C360.033 68.5867 359.833 68.2267 359.78 67.8C359.726 67.3467 359.873 66.8933 360.22 66.44L369.66 53.76V55.44L360.74 43.44C360.393 42.96 360.233 42.4933 360.26 42.04C360.313 41.5867 360.513 41.2267 360.86 40.96C361.206 40.6667 361.633 40.52 362.14 40.52C362.566 40.52 362.94 40.6267 363.26 40.84C363.606 41.0267 363.953 41.36 364.3 41.84L372.06 52.48H370.78L378.46 41.84C378.806 41.36 379.14 41.0267 379.46 40.84C379.806 40.6267 380.206 40.52 380.66 40.52C381.193 40.52 381.633 40.6667 381.98 40.96C382.326 41.2267 382.513 41.5867 382.54 42.04C382.593 42.4667 382.433 42.9333 382.06 43.44L373.14 55.44V53.76L382.54 66.44C382.886 66.8933 383.033 67.3467 382.98 67.8C382.953 68.2267 382.766 68.5867 382.42 68.88C382.073 69.1467 381.62 69.28 381.06 69.28C380.66 69.28 380.286 69.1733 379.94 68.96C379.593 68.7467 379.233 68.4133 378.86 67.96L370.62 56.68H372.14L363.94 67.96C363.593 68.4133 363.233 68.7467 362.86 68.96C362.513 69.1733 362.126 69.28 361.7 69.28ZM388.986 69C388.319 69 387.799 68.8133 387.426 68.44C387.053 68.0667 386.866 67.5467 386.866 66.88V42.76C386.866 42.0667 387.039 41.5467 387.386 41.2C387.759 40.8267 388.279 40.64 388.946 40.64C389.613 40.64 390.119 40.8267 390.466 41.2C390.839 41.5467 391.026 42.0667 391.026 42.76V65.44H403.426C404.013 65.44 404.466 65.6 404.786 65.92C405.106 66.2133 405.266 66.64 405.266 67.2C405.266 67.76 405.106 68.2 404.786 68.52C404.466 68.84 404.013 69 403.426 69H388.986Z" fill="#1A1A1A"/>
<path d="M277.13 105C276.842 105 276.618 104.925 276.458 104.776C276.309 104.616 276.234 104.392 276.234 104.104V94.616C276.234 94.328 276.309 94.1093 276.458 93.96C276.618 93.8 276.842 93.72 277.13 93.72H280.218C282.074 93.72 283.503 94.2053 284.506 95.176C285.519 96.136 286.026 97.528 286.026 99.352C286.026 100.259 285.898 101.064 285.642 101.768C285.386 102.472 285.007 103.064 284.506 103.544C284.015 104.013 283.413 104.376 282.698 104.632C281.983 104.877 281.157 105 280.218 105H277.13ZM277.898 103.608H280.122C280.826 103.608 281.434 103.523 281.946 103.352C282.469 103.171 282.906 102.904 283.258 102.552C283.61 102.2 283.871 101.757 284.042 101.224C284.213 100.691 284.298 100.067 284.298 99.352C284.298 97.9333 283.946 96.872 283.242 96.168C282.549 95.464 281.509 95.112 280.122 95.112H277.898V103.608ZM291.238 105.144C290.384 105.144 289.648 104.984 289.03 104.664C288.422 104.333 287.947 103.869 287.606 103.272C287.275 102.664 287.11 101.944 287.11 101.112C287.11 100.301 287.275 99.592 287.606 98.984C287.936 98.376 288.39 97.9013 288.966 97.56C289.542 97.2187 290.198 97.048 290.934 97.048C291.478 97.048 291.963 97.1387 292.39 97.32C292.816 97.4907 293.179 97.7467 293.478 98.088C293.787 98.4187 294.016 98.824 294.166 99.304C294.326 99.784 294.406 100.323 294.406 100.92C294.406 101.101 294.352 101.24 294.246 101.336C294.139 101.421 293.979 101.464 293.766 101.464H288.39V100.472H293.318L293.046 100.696C293.046 100.163 292.966 99.7093 292.806 99.336C292.656 98.9627 292.427 98.68 292.118 98.488C291.819 98.2853 291.446 98.184 290.998 98.184C290.496 98.184 290.07 98.3013 289.718 98.536C289.376 98.7707 289.115 99.096 288.934 99.512C288.752 99.928 288.662 100.413 288.662 100.968V101.064C288.662 102.003 288.88 102.712 289.318 103.192C289.766 103.661 290.411 103.896 291.254 103.896C291.574 103.896 291.91 103.853 292.262 103.768C292.624 103.683 292.966 103.539 293.286 103.336C293.467 103.229 293.627 103.181 293.766 103.192C293.915 103.203 294.032 103.251 294.118 103.336C294.214 103.421 294.272 103.528 294.294 103.656C294.315 103.784 294.294 103.917 294.23 104.056C294.166 104.184 294.054 104.301 293.894 104.408C293.531 104.653 293.11 104.84 292.63 104.968C292.15 105.085 291.686 105.144 291.238 105.144ZM298.403 105.144C297.934 105.144 297.449 105.091 296.947 104.984C296.457 104.877 296.003 104.696 295.587 104.44C295.449 104.344 295.353 104.237 295.299 104.12C295.246 104.003 295.225 103.885 295.235 103.768C295.257 103.64 295.305 103.533 295.379 103.448C295.465 103.352 295.566 103.293 295.683 103.272C295.811 103.251 295.945 103.277 296.083 103.352C296.499 103.587 296.899 103.752 297.283 103.848C297.667 103.933 298.046 103.976 298.419 103.976C298.985 103.976 299.411 103.875 299.699 103.672C299.987 103.469 300.131 103.197 300.131 102.856C300.131 102.579 300.035 102.365 299.843 102.216C299.651 102.056 299.363 101.933 298.979 101.848L297.459 101.544C296.798 101.405 296.297 101.16 295.955 100.808C295.614 100.456 295.443 100.008 295.443 99.464C295.443 98.9733 295.577 98.5467 295.843 98.184C296.11 97.8213 296.483 97.544 296.963 97.352C297.443 97.1493 297.998 97.048 298.627 97.048C299.097 97.048 299.539 97.1067 299.955 97.224C300.371 97.3413 300.755 97.5173 301.107 97.752C301.246 97.8267 301.337 97.928 301.379 98.056C301.422 98.1733 301.427 98.2907 301.395 98.408C301.374 98.5253 301.321 98.632 301.235 98.728C301.15 98.8133 301.043 98.8667 300.915 98.888C300.798 98.8987 300.665 98.8667 300.515 98.792C300.195 98.5893 299.875 98.4453 299.555 98.36C299.246 98.2747 298.937 98.232 298.627 98.232C298.062 98.232 297.635 98.3387 297.347 98.552C297.07 98.7547 296.931 99.032 296.931 99.384C296.931 99.6507 297.017 99.8693 297.187 100.04C297.358 100.211 297.625 100.333 297.987 100.408L299.507 100.712C300.201 100.851 300.723 101.085 301.075 101.416C301.438 101.747 301.619 102.195 301.619 102.76C301.619 103.496 301.326 104.077 300.739 104.504C300.153 104.931 299.374 105.144 298.403 105.144ZM303.717 105.112C303.461 105.112 303.264 105.043 303.125 104.904C302.987 104.755 302.917 104.552 302.917 104.296V94.424C302.917 94.1573 302.987 93.9547 303.125 93.816C303.264 93.6773 303.461 93.608 303.717 93.608C303.973 93.608 304.171 93.6773 304.309 93.816C304.459 93.9547 304.533 94.1573 304.533 94.424V100.6H304.565L307.557 97.624C307.728 97.4533 307.883 97.32 308.021 97.224C308.16 97.128 308.341 97.08 308.565 97.08C308.789 97.08 308.96 97.1387 309.077 97.256C309.195 97.3733 309.253 97.5173 309.253 97.688C309.253 97.848 309.173 98.0133 309.013 98.184L305.845 101.32V100.568L309.301 104.008C309.472 104.179 309.552 104.349 309.541 104.52C309.531 104.691 309.461 104.835 309.333 104.952C309.205 105.059 309.045 105.112 308.853 105.112C308.608 105.112 308.411 105.064 308.261 104.968C308.123 104.872 307.957 104.728 307.765 104.536L304.565 101.432H304.533V104.296C304.533 104.84 304.261 105.112 303.717 105.112ZM313.777 105.144C313.137 105.144 312.598 105.032 312.161 104.808C311.723 104.584 311.398 104.253 311.185 103.816C310.971 103.379 310.865 102.845 310.865 102.216V98.44H309.905C309.691 98.44 309.526 98.3867 309.409 98.28C309.291 98.1627 309.232 98.008 309.232 97.816C309.232 97.6133 309.291 97.4587 309.409 97.352C309.526 97.2453 309.691 97.192 309.905 97.192H310.865V95.544C310.865 95.2773 310.934 95.0747 311.073 94.936C311.222 94.7973 311.425 94.728 311.681 94.728C311.937 94.728 312.134 94.7973 312.273 94.936C312.411 95.0747 312.481 95.2773 312.481 95.544V97.192H314.353C314.566 97.192 314.731 97.2453 314.849 97.352C314.966 97.4587 315.025 97.6133 315.025 97.816C315.025 98.008 314.966 98.1627 314.849 98.28C314.731 98.3867 314.566 98.44 314.353 98.44H312.481V102.088C312.481 102.653 312.598 103.08 312.833 103.368C313.078 103.656 313.473 103.8 314.016 103.8C314.209 103.8 314.374 103.784 314.513 103.752C314.662 103.709 314.785 103.683 314.881 103.672C314.998 103.672 315.094 103.715 315.169 103.8C315.243 103.875 315.281 104.024 315.281 104.248C315.281 104.408 315.249 104.557 315.185 104.696C315.131 104.835 315.03 104.925 314.881 104.968C314.753 105.011 314.577 105.048 314.353 105.08C314.139 105.123 313.947 105.144 313.777 105.144ZM319.106 105.144C318.317 105.144 317.634 104.979 317.058 104.648C316.493 104.317 316.05 103.848 315.73 103.24C315.41 102.632 315.25 101.917 315.25 101.096C315.25 100.467 315.341 99.9067 315.522 99.416C315.703 98.9253 315.959 98.504 316.29 98.152C316.631 97.7893 317.037 97.5173 317.506 97.336C317.986 97.144 318.519 97.048 319.106 97.048C319.885 97.048 320.557 97.2133 321.122 97.544C321.698 97.8747 322.146 98.344 322.466 98.952C322.786 99.5493 322.946 100.264 322.946 101.096C322.946 101.715 322.855 102.275 322.674 102.776C322.493 103.277 322.231 103.704 321.89 104.056C321.559 104.408 321.154 104.68 320.674 104.872C320.205 105.053 319.682 105.144 319.106 105.144ZM319.106 103.896C319.543 103.896 319.927 103.789 320.258 103.576C320.589 103.363 320.845 103.048 321.026 102.632C321.218 102.216 321.314 101.704 321.314 101.096C321.314 100.179 321.111 99.4853 320.706 99.016C320.301 98.5467 319.767 98.312 319.106 98.312C318.658 98.312 318.269 98.4187 317.938 98.632C317.607 98.8347 317.346 99.144 317.154 99.56C316.973 99.976 316.882 100.488 316.882 101.096C316.882 102.003 317.085 102.696 317.49 103.176C317.895 103.656 318.434 103.896 319.106 103.896ZM325.061 107.992C324.805 107.992 324.608 107.923 324.469 107.784C324.33 107.645 324.261 107.443 324.261 107.176V97.896C324.261 97.6293 324.33 97.4267 324.469 97.288C324.608 97.1493 324.8 97.08 325.045 97.08C325.301 97.08 325.498 97.1493 325.637 97.288C325.776 97.4267 325.845 97.6293 325.845 97.896V99.288L325.669 98.952C325.84 98.376 326.176 97.9173 326.677 97.576C327.178 97.224 327.77 97.048 328.453 97.048C329.146 97.048 329.749 97.2133 330.261 97.544C330.784 97.8747 331.184 98.3387 331.461 98.936C331.749 99.5333 331.893 100.253 331.893 101.096C331.893 101.917 331.749 102.637 331.461 103.256C331.184 103.864 330.789 104.333 330.277 104.664C329.765 104.984 329.157 105.144 328.453 105.144C327.781 105.144 327.194 104.973 326.693 104.632C326.192 104.291 325.856 103.837 325.685 103.272H325.877V107.176C325.877 107.443 325.802 107.645 325.653 107.784C325.514 107.923 325.317 107.992 325.061 107.992ZM328.053 103.896C328.501 103.896 328.89 103.789 329.221 103.576C329.552 103.363 329.808 103.048 329.989 102.632C330.17 102.216 330.261 101.704 330.261 101.096C330.261 100.179 330.058 99.4853 329.653 99.016C329.258 98.5467 328.725 98.312 328.053 98.312C327.616 98.312 327.226 98.4187 326.885 98.632C326.554 98.8347 326.298 99.144 326.117 99.56C325.936 99.976 325.845 100.488 325.845 101.096C325.845 102.003 326.048 102.696 326.453 103.176C326.858 103.656 327.392 103.896 328.053 103.896Z" fill="#1A1A1A"/>
<path d="M778.913 71.224C778.38 71.224 777.964 71.0747 777.665 70.776C777.388 70.4773 777.249 70.0613 777.249 69.528V49.912C777.249 49.3573 777.388 48.9413 777.665 48.664C777.964 48.3653 778.38 48.216 778.913 48.216C779.446 48.216 779.852 48.3653 780.129 48.664C780.428 48.9413 780.577 49.3573 780.577 49.912V58.168H793.217V49.912C793.217 49.3573 793.356 48.9413 793.633 48.664C793.932 48.3653 794.348 48.216 794.881 48.216C795.414 48.216 795.82 48.3653 796.097 48.664C796.374 48.9413 796.513 49.3573 796.513 49.912V69.528C796.513 70.0613 796.374 70.4773 796.097 70.776C795.82 71.0747 795.414 71.224 794.881 71.224C794.348 71.224 793.932 71.0747 793.633 70.776C793.356 70.4773 793.217 70.0613 793.217 69.528V60.952H780.577V69.528C780.577 70.0613 780.438 70.4773 780.161 70.776C779.884 71.0747 779.468 71.224 778.913 71.224ZM807.756 71.288C806.05 71.288 804.578 70.968 803.34 70.328C802.124 69.6667 801.175 68.7387 800.492 67.544C799.831 66.328 799.5 64.888 799.5 63.224C799.5 61.6027 799.831 60.184 800.492 58.968C801.154 57.752 802.06 56.8027 803.212 56.12C804.364 55.4373 805.676 55.096 807.148 55.096C808.236 55.096 809.207 55.2773 810.06 55.64C810.914 55.9813 811.639 56.4933 812.236 57.176C812.855 57.8373 813.314 58.648 813.612 59.608C813.932 60.568 814.092 61.6453 814.092 62.84C814.092 63.2027 813.986 63.48 813.772 63.672C813.559 63.8427 813.239 63.928 812.812 63.928H802.06V61.944H811.916L811.372 62.392C811.372 61.3253 811.212 60.4187 810.892 59.672C810.594 58.9253 810.135 58.36 809.516 57.976C808.919 57.5707 808.172 57.368 807.276 57.368C806.274 57.368 805.42 57.6027 804.716 58.072C804.034 58.5413 803.511 59.192 803.148 60.024C802.786 60.856 802.604 61.8267 802.604 62.936V63.128C802.604 65.0053 803.042 66.424 803.916 67.384C804.812 68.3227 806.103 68.792 807.788 68.792C808.428 68.792 809.1 68.7067 809.804 68.536C810.53 68.3653 811.212 68.0773 811.852 67.672C812.215 67.4587 812.535 67.3627 812.812 67.384C813.111 67.4053 813.346 67.5013 813.516 67.672C813.708 67.8427 813.826 68.056 813.868 68.312C813.911 68.568 813.868 68.8347 813.74 69.112C813.612 69.368 813.388 69.6027 813.068 69.816C812.343 70.3067 811.5 70.68 810.54 70.936C809.58 71.1707 808.652 71.288 807.756 71.288ZM821.608 71.288C820.52 71.288 819.538 71.0747 818.664 70.648C817.81 70.2213 817.138 69.6453 816.648 68.92C816.157 68.1947 815.912 67.3733 815.912 66.456C815.912 65.304 816.2 64.3973 816.776 63.736C817.373 63.0533 818.344 62.5733 819.688 62.296C821.053 61.9973 822.888 61.848 825.192 61.848H826.696V63.832H825.224C823.688 63.832 822.472 63.9067 821.576 64.056C820.68 64.2053 820.04 64.4613 819.656 64.824C819.293 65.1653 819.112 65.6453 819.112 66.264C819.112 67.0747 819.389 67.736 819.944 68.248C820.498 68.7387 821.266 68.984 822.248 68.984C823.037 68.984 823.73 68.8027 824.328 68.44C824.925 68.056 825.394 67.544 825.736 66.904C826.098 66.264 826.28 65.528 826.28 64.696V61.016C826.28 59.8 826.024 58.9253 825.512 58.392C825 57.8587 824.157 57.592 822.984 57.592C822.301 57.592 821.586 57.6773 820.84 57.848C820.114 58.0187 819.357 58.3067 818.568 58.712C818.205 58.8827 817.896 58.936 817.64 58.872C817.384 58.808 817.181 58.6693 817.032 58.456C816.882 58.2213 816.797 57.976 816.776 57.72C816.776 57.4427 816.84 57.176 816.968 56.92C817.117 56.664 817.362 56.472 817.704 56.344C818.642 55.896 819.57 55.576 820.488 55.384C821.405 55.192 822.269 55.096 823.08 55.096C824.509 55.096 825.682 55.32 826.6 55.768C827.538 56.216 828.232 56.8987 828.68 57.816C829.128 58.7333 829.352 59.9173 829.352 61.368V69.592C829.352 70.104 829.224 70.5093 828.968 70.808C828.712 71.0853 828.338 71.224 827.848 71.224C827.378 71.224 827.005 71.0853 826.728 70.808C826.45 70.5093 826.312 70.104 826.312 69.592V67.512H826.6C826.429 68.3013 826.109 68.984 825.64 69.56C825.192 70.1147 824.626 70.5413 823.944 70.84C823.261 71.1387 822.482 71.288 821.608 71.288ZM838.755 71.288C837.39 71.288 836.185 70.968 835.139 70.328C834.115 69.6667 833.315 68.728 832.739 67.512C832.163 66.2747 831.875 64.8347 831.875 63.192C831.875 61.5067 832.163 60.0667 832.739 58.872C833.315 57.6773 834.115 56.7493 835.139 56.088C836.185 55.4267 837.39 55.096 838.755 55.096C840.121 55.096 841.294 55.4373 842.275 56.12C843.278 56.7813 843.95 57.6773 844.291 58.808H843.939V49.848C843.939 49.3147 844.078 48.9093 844.355 48.632C844.633 48.3547 845.027 48.216 845.539 48.216C846.051 48.216 846.446 48.3547 846.723 48.632C847.022 48.9093 847.171 49.3147 847.171 49.848V69.592C847.171 70.104 847.033 70.5093 846.755 70.808C846.478 71.0853 846.083 71.224 845.571 71.224C845.059 71.224 844.665 71.0853 844.387 70.808C844.11 70.5093 843.971 70.104 843.971 69.592V66.776L844.323 67.48C843.982 68.632 843.31 69.56 842.307 70.264C841.326 70.9467 840.142 71.288 838.755 71.288ZM839.587 68.792C840.462 68.792 841.23 68.5787 841.891 68.152C842.553 67.7253 843.065 67.096 843.427 66.264C843.811 65.432 844.003 64.408 844.003 63.192C844.003 61.3573 843.598 59.9707 842.787 59.032C841.977 58.0933 840.91 57.624 839.587 57.624C838.691 57.624 837.913 57.8373 837.251 58.264C836.59 58.6693 836.067 59.288 835.683 60.12C835.321 60.952 835.139 61.976 835.139 63.192C835.139 65.0053 835.545 66.392 836.355 67.352C837.166 68.312 838.243 68.792 839.587 68.792ZM852.31 71.192C851.798 71.192 851.403 71.0427 851.126 70.744C850.848 70.424 850.71 69.9867 850.71 69.432V56.952C850.71 56.3973 850.848 55.9707 851.126 55.672C851.403 55.3733 851.798 55.224 852.31 55.224C852.822 55.224 853.216 55.3733 853.494 55.672C853.792 55.9707 853.942 56.3973 853.942 56.952V69.432C853.942 69.9867 853.803 70.424 853.526 70.744C853.248 71.0427 852.843 71.192 852.31 71.192ZM852.31 51.896C851.67 51.896 851.168 51.736 850.806 51.416C850.464 51.096 850.294 50.648 850.294 50.072C850.294 49.4747 850.464 49.0267 850.806 48.728C851.168 48.408 851.67 48.248 852.31 48.248C852.95 48.248 853.44 48.408 853.782 48.728C854.144 49.0267 854.326 49.4747 854.326 50.072C854.326 50.648 854.144 51.096 853.782 51.416C853.44 51.736 852.95 51.896 852.31 51.896ZM859.091 71.224C858.579 71.224 858.184 71.0853 857.907 70.808C857.629 70.5093 857.491 70.104 857.491 69.592V56.792C857.491 56.2587 857.629 55.8533 857.907 55.576C858.184 55.2987 858.568 55.16 859.059 55.16C859.571 55.16 859.955 55.2987 860.211 55.576C860.488 55.8533 860.627 56.2587 860.627 56.792V59.288L860.275 58.712C860.744 57.5173 861.48 56.6213 862.483 56.024C863.485 55.4053 864.637 55.096 865.939 55.096C867.176 55.096 868.2 55.3307 869.011 55.8C869.843 56.248 870.461 56.9413 870.867 57.88C871.272 58.7973 871.475 59.96 871.475 61.368V69.592C871.475 70.104 871.336 70.5093 871.059 70.808C870.781 71.0853 870.387 71.224 869.875 71.224C869.341 71.224 868.936 71.0853 868.659 70.808C868.381 70.5093 868.243 70.104 868.243 69.592V61.56C868.243 60.216 867.976 59.2347 867.443 58.616C866.931 57.9973 866.12 57.688 865.011 57.688C863.709 57.688 862.664 58.0933 861.875 58.904C861.107 59.7147 860.723 60.8027 860.723 62.168V69.592C860.723 70.68 860.179 71.224 859.091 71.224ZM882 77.048C880.848 77.048 879.728 76.9307 878.64 76.696C877.574 76.4613 876.603 76.0773 875.728 75.544C875.408 75.3733 875.195 75.16 875.088 74.904C874.982 74.6693 874.95 74.424 874.992 74.168C875.056 73.912 875.174 73.688 875.344 73.496C875.515 73.304 875.718 73.176 875.952 73.112C876.208 73.048 876.475 73.0907 876.752 73.24C877.691 73.752 878.576 74.0933 879.408 74.264C880.262 74.456 881.051 74.552 881.776 74.552C883.27 74.552 884.39 74.168 885.136 73.4C885.883 72.6533 886.256 71.544 886.256 70.072V66.808H886.544C886.224 67.9813 885.552 68.9093 884.528 69.592C883.504 70.2747 882.32 70.616 880.976 70.616C879.568 70.616 878.342 70.296 877.296 69.656C876.251 68.9947 875.44 68.088 874.864 66.936C874.288 65.7627 874 64.3973 874 62.84C874 61.6667 874.16 60.6107 874.48 59.672C874.822 58.7333 875.291 57.9227 875.888 57.24C876.507 56.5573 877.243 56.0347 878.096 55.672C878.971 55.288 879.931 55.096 880.976 55.096C882.342 55.096 883.526 55.4373 884.528 56.12C885.552 56.8027 886.214 57.7307 886.512 58.904L886.192 59.448V56.792C886.192 56.2587 886.331 55.8533 886.608 55.576C886.907 55.2987 887.302 55.16 887.792 55.16C888.304 55.16 888.699 55.2987 888.976 55.576C889.254 55.8533 889.392 56.2587 889.392 56.792V69.688C889.392 72.12 888.763 73.9547 887.504 75.192C886.246 76.4293 884.411 77.048 882 77.048ZM881.744 68.088C882.683 68.088 883.483 67.8747 884.144 67.448C884.806 67.0213 885.318 66.4133 885.68 65.624C886.043 64.8347 886.224 63.9067 886.224 62.84C886.224 61.24 885.819 59.9707 885.008 59.032C884.219 58.0933 883.131 57.624 881.744 57.624C880.827 57.624 880.038 57.8373 879.376 58.264C878.715 58.6907 878.192 59.2987 877.808 60.088C877.446 60.856 877.264 61.7733 877.264 62.84C877.264 64.4613 877.67 65.7413 878.48 66.68C879.291 67.6187 880.379 68.088 881.744 68.088ZM900.91 71.224C900.483 71.224 900.131 71.1173 899.854 70.904C899.576 70.6693 899.416 70.3813 899.374 70.04C899.331 69.6773 899.448 69.3147 899.726 68.952L907.278 58.808V60.152L900.142 50.552C899.864 50.168 899.736 49.7947 899.758 49.432C899.8 49.0693 899.96 48.7813 900.238 48.568C900.515 48.3333 900.856 48.216 901.262 48.216C901.603 48.216 901.902 48.3013 902.158 48.472C902.435 48.6213 902.712 48.888 902.99 49.272L909.198 57.784H908.174L914.318 49.272C914.595 48.888 914.862 48.6213 915.118 48.472C915.395 48.3013 915.715 48.216 916.078 48.216C916.504 48.216 916.856 48.3333 917.134 48.568C917.411 48.7813 917.56 49.0693 917.582 49.432C917.624 49.7733 917.496 50.1467 917.198 50.552L910.062 60.152V58.808L917.582 68.952C917.859 69.3147 917.976 69.6773 917.934 70.04C917.912 70.3813 917.763 70.6693 917.486 70.904C917.208 71.1173 916.846 71.224 916.398 71.224C916.078 71.224 915.779 71.1387 915.502 70.968C915.224 70.7973 914.936 70.5307 914.638 70.168L908.046 61.144H909.262L902.702 70.168C902.424 70.5307 902.136 70.7973 901.838 70.968C901.56 71.1387 901.251 71.224 900.91 71.224ZM922.539 71C922.005 71 921.589 70.8507 921.291 70.552C920.992 70.2533 920.843 69.8373 920.843 69.304V50.008C920.843 49.4533 920.981 49.0373 921.259 48.76C921.557 48.4613 921.973 48.312 922.507 48.312C923.04 48.312 923.445 48.4613 923.723 48.76C924.021 49.0373 924.171 49.4533 924.171 50.008V68.152H934.091C934.56 68.152 934.923 68.28 935.179 68.536C935.435 68.7707 935.563 69.112 935.563 69.56C935.563 70.008 935.435 70.36 935.179 70.616C934.923 70.872 934.56 71 934.091 71H922.539Z" fill="#1A1A1A"/>
<path d="M803.393 105.112C803.148 105.112 802.956 105.043 802.817 104.904C802.689 104.765 802.625 104.573 802.625 104.328V94.392C802.625 94.136 802.695 93.944 802.833 93.816C802.972 93.6773 803.159 93.608 803.393 93.608C803.617 93.608 803.788 93.6507 803.905 93.736C804.033 93.8107 804.151 93.9493 804.257 94.152L808.449 101.976H807.953L812.129 94.152C812.236 93.9493 812.348 93.8107 812.465 93.736C812.583 93.6507 812.753 93.608 812.977 93.608C813.212 93.608 813.393 93.6773 813.521 93.816C813.649 93.944 813.713 94.136 813.713 94.392V104.328C813.713 104.573 813.649 104.765 813.521 104.904C813.404 105.043 813.223 105.112 812.977 105.112C812.732 105.112 812.545 105.043 812.417 104.904C812.289 104.765 812.225 104.573 812.225 104.328V96.072H812.577L808.865 102.936C808.78 103.096 808.689 103.213 808.593 103.288C808.497 103.363 808.364 103.4 808.193 103.4C808.023 103.4 807.884 103.363 807.777 103.288C807.671 103.203 807.575 103.085 807.489 102.936L803.745 96.056H804.129V104.328C804.129 104.573 804.065 104.765 803.937 104.904C803.82 105.043 803.639 105.112 803.393 105.112ZM819.091 105.144C818.301 105.144 817.619 104.979 817.043 104.648C816.477 104.317 816.035 103.848 815.715 103.24C815.395 102.632 815.235 101.917 815.235 101.096C815.235 100.467 815.325 99.9067 815.507 99.416C815.688 98.9253 815.944 98.504 816.275 98.152C816.616 97.7893 817.021 97.5173 817.491 97.336C817.971 97.144 818.504 97.048 819.091 97.048C819.869 97.048 820.541 97.2133 821.107 97.544C821.683 97.8747 822.131 98.344 822.451 98.952C822.771 99.5493 822.931 100.264 822.931 101.096C822.931 101.715 822.84 102.275 822.659 102.776C822.477 103.277 822.216 103.704 821.875 104.056C821.544 104.408 821.139 104.68 820.659 104.872C820.189 105.053 819.667 105.144 819.091 105.144ZM819.091 103.896C819.528 103.896 819.912 103.789 820.243 103.576C820.573 103.363 820.829 103.048 821.011 102.632C821.203 102.216 821.299 101.704 821.299 101.096C821.299 100.179 821.096 99.4853 820.691 99.016C820.285 98.5467 819.752 98.312 819.091 98.312C818.643 98.312 818.253 98.4187 817.923 98.632C817.592 98.8347 817.331 99.144 817.139 99.56C816.957 99.976 816.867 100.488 816.867 101.096C816.867 102.003 817.069 102.696 817.475 103.176C817.88 103.656 818.419 103.896 819.091 103.896ZM828.437 105.144C827.755 105.144 827.163 104.973 826.661 104.632C826.16 104.28 825.824 103.816 825.653 103.24L825.829 102.952V104.296C825.829 104.552 825.76 104.755 825.621 104.904C825.483 105.043 825.291 105.112 825.045 105.112C824.789 105.112 824.592 105.043 824.453 104.904C824.315 104.755 824.245 104.552 824.245 104.296V94.424C824.245 94.1573 824.315 93.9547 824.453 93.816C824.592 93.6773 824.789 93.608 825.045 93.608C825.301 93.608 825.499 93.6773 825.637 93.816C825.787 93.9547 825.861 94.1573 825.861 94.424V98.904H825.669C825.84 98.3387 826.176 97.8907 826.677 97.56C827.179 97.2187 827.765 97.048 828.437 97.048C829.141 97.048 829.749 97.2133 830.261 97.544C830.773 97.8747 831.168 98.3387 831.445 98.936C831.733 99.5333 831.877 100.253 831.877 101.096C831.877 101.917 831.733 102.637 831.445 103.256C831.168 103.864 830.768 104.333 830.245 104.664C829.733 104.984 829.131 105.144 828.437 105.144ZM828.037 103.896C828.485 103.896 828.875 103.789 829.205 103.576C829.536 103.363 829.792 103.048 829.973 102.632C830.155 102.216 830.245 101.704 830.245 101.096C830.245 100.179 830.043 99.4853 829.637 99.016C829.243 98.5467 828.709 98.312 828.037 98.312C827.6 98.312 827.211 98.4187 826.869 98.632C826.539 98.8347 826.283 99.144 826.101 99.56C825.92 99.976 825.829 100.488 825.829 101.096C825.829 102.003 826.032 102.696 826.437 103.176C826.843 103.656 827.376 103.896 828.037 103.896ZM833.999 105.096C833.743 105.096 833.545 105.021 833.407 104.872C833.268 104.712 833.199 104.493 833.199 104.216V97.976C833.199 97.6987 833.268 97.4853 833.407 97.336C833.545 97.1867 833.743 97.112 833.999 97.112C834.255 97.112 834.452 97.1867 834.591 97.336C834.74 97.4853 834.815 97.6987 834.815 97.976V104.216C834.815 104.493 834.745 104.712 834.607 104.872C834.468 105.021 834.265 105.096 833.999 105.096ZM833.999 95.448C833.679 95.448 833.428 95.368 833.247 95.208C833.076 95.048 832.991 94.824 832.991 94.536C832.991 94.2373 833.076 94.0133 833.247 93.864C833.428 93.704 833.679 93.624 833.999 93.624C834.319 93.624 834.564 93.704 834.735 93.864C834.916 94.0133 835.007 94.2373 835.007 94.536C835.007 94.824 834.916 95.048 834.735 95.208C834.564 95.368 834.319 95.448 833.999 95.448ZM839.101 105.144C838.269 105.144 837.64 104.904 837.213 104.424C836.797 103.933 836.589 103.229 836.589 102.312V94.424C836.589 94.1573 836.658 93.9547 836.797 93.816C836.936 93.6773 837.133 93.608 837.389 93.608C837.645 93.608 837.842 93.6773 837.981 93.816C838.13 93.9547 838.205 94.1573 838.205 94.424V102.216C838.205 102.749 838.312 103.149 838.525 103.416C838.749 103.672 839.069 103.8 839.485 103.8C839.581 103.8 839.666 103.8 839.741 103.8C839.816 103.789 839.89 103.779 839.965 103.768C840.093 103.757 840.184 103.795 840.237 103.88C840.29 103.955 840.317 104.115 840.317 104.36C840.317 104.584 840.269 104.76 840.173 104.888C840.077 105.005 839.922 105.08 839.709 105.112C839.613 105.123 839.512 105.128 839.405 105.128C839.298 105.139 839.197 105.144 839.101 105.144ZM844.566 105.144C843.712 105.144 842.976 104.984 842.358 104.664C841.75 104.333 841.275 103.869 840.934 103.272C840.603 102.664 840.438 101.944 840.438 101.112C840.438 100.301 840.603 99.592 840.934 98.984C841.264 98.376 841.718 97.9013 842.294 97.56C842.87 97.2187 843.526 97.048 844.262 97.048C844.806 97.048 845.291 97.1387 845.718 97.32C846.144 97.4907 846.507 97.7467 846.806 98.088C847.115 98.4187 847.344 98.824 847.494 99.304C847.654 99.784 847.734 100.323 847.734 100.92C847.734 101.101 847.68 101.24 847.574 101.336C847.467 101.421 847.307 101.464 847.094 101.464H841.718V100.472H846.646L846.374 100.696C846.374 100.163 846.294 99.7093 846.134 99.336C845.984 98.9627 845.755 98.68 845.446 98.488C845.147 98.2853 844.774 98.184 844.326 98.184C843.824 98.184 843.398 98.3013 843.046 98.536C842.704 98.7707 842.443 99.096 842.262 99.512C842.08 99.928 841.99 100.413 841.99 100.968V101.064C841.99 102.003 842.208 102.712 842.646 103.192C843.094 103.661 843.739 103.896 844.582 103.896C844.902 103.896 845.238 103.853 845.59 103.768C845.952 103.683 846.294 103.539 846.614 103.336C846.795 103.229 846.955 103.181 847.094 103.192C847.243 103.203 847.36 103.251 847.446 103.336C847.542 103.421 847.6 103.528 847.622 103.656C847.643 103.784 847.622 103.917 847.558 104.056C847.494 104.184 847.382 104.301 847.222 104.408C846.859 104.653 846.438 104.84 845.958 104.968C845.478 105.085 845.014 105.144 844.566 105.144ZM849.073 105.512C849.02 105.683 848.934 105.805 848.817 105.88C848.7 105.955 848.572 105.992 848.433 105.992C848.294 105.992 848.166 105.955 848.049 105.88C847.942 105.816 847.868 105.72 847.825 105.592C847.772 105.464 847.772 105.309 847.825 105.128L851.585 93.48C851.638 93.3093 851.724 93.1867 851.841 93.112C851.958 93.0267 852.081 92.9893 852.209 93C852.348 93 852.47 93.0373 852.577 93.112C852.694 93.176 852.774 93.272 852.817 93.4C852.87 93.5173 852.876 93.6667 852.833 93.848L849.073 105.512ZM857.74 105.112C857.473 105.112 857.265 105.037 857.116 104.888C856.977 104.739 856.908 104.531 856.908 104.264V95.112H853.516C853.292 95.112 853.116 95.0533 852.988 94.936C852.86 94.808 852.796 94.632 852.796 94.408C852.796 94.184 852.86 94.0133 852.988 93.896C853.116 93.7787 853.292 93.72 853.516 93.72H861.948C862.182 93.72 862.364 93.7787 862.492 93.896C862.62 94.0133 862.684 94.184 862.684 94.408C862.684 94.632 862.62 94.808 862.492 94.936C862.364 95.0533 862.182 95.112 861.948 95.112H858.556V104.264C858.556 104.531 858.486 104.739 858.348 104.888C858.22 105.037 858.017 105.112 857.74 105.112ZM864.523 105.144C863.979 105.144 863.488 105.037 863.051 104.824C862.624 104.611 862.288 104.323 862.043 103.96C861.797 103.597 861.675 103.187 861.675 102.728C861.675 102.152 861.819 101.699 862.107 101.368C862.405 101.027 862.891 100.787 863.563 100.648C864.245 100.499 865.163 100.424 866.315 100.424H867.067V101.416H866.331C865.563 101.416 864.955 101.453 864.507 101.528C864.059 101.603 863.739 101.731 863.547 101.912C863.365 102.083 863.275 102.323 863.275 102.632C863.275 103.037 863.413 103.368 863.691 103.624C863.968 103.869 864.352 103.992 864.843 103.992C865.237 103.992 865.584 103.901 865.883 103.72C866.181 103.528 866.416 103.272 866.587 102.952C866.768 102.632 866.859 102.264 866.859 101.848V100.008C866.859 99.4 866.731 98.9627 866.475 98.696C866.219 98.4293 865.797 98.296 865.211 98.296C864.869 98.296 864.512 98.3387 864.139 98.424C863.776 98.5093 863.397 98.6533 863.003 98.856C862.821 98.9413 862.667 98.968 862.539 98.936C862.411 98.904 862.309 98.8347 862.235 98.728C862.16 98.6107 862.117 98.488 862.107 98.36C862.107 98.2213 862.139 98.088 862.203 97.96C862.277 97.832 862.4 97.736 862.571 97.672C863.04 97.448 863.504 97.288 863.963 97.192C864.421 97.096 864.853 97.048 865.259 97.048C865.973 97.048 866.56 97.16 867.019 97.384C867.488 97.608 867.835 97.9493 868.059 98.408C868.283 98.8667 868.395 99.4587 868.395 100.184V104.296C868.395 104.552 868.331 104.755 868.203 104.904C868.075 105.043 867.888 105.112 867.643 105.112C867.408 105.112 867.221 105.043 867.083 104.904C866.944 104.755 866.875 104.552 866.875 104.296V103.256H867.019C866.933 103.651 866.773 103.992 866.539 104.28C866.315 104.557 866.032 104.771 865.691 104.92C865.349 105.069 864.96 105.144 864.523 105.144ZM874.312 105.144C873.63 105.144 873.038 104.973 872.536 104.632C872.035 104.28 871.699 103.816 871.528 103.24L871.704 102.952V104.296C871.704 104.552 871.635 104.755 871.496 104.904C871.358 105.043 871.166 105.112 870.92 105.112C870.664 105.112 870.467 105.043 870.328 104.904C870.19 104.755 870.12 104.552 870.12 104.296V94.424C870.12 94.1573 870.19 93.9547 870.328 93.816C870.467 93.6773 870.664 93.608 870.92 93.608C871.176 93.608 871.374 93.6773 871.512 93.816C871.662 93.9547 871.736 94.1573 871.736 94.424V98.904H871.544C871.715 98.3387 872.051 97.8907 872.552 97.56C873.054 97.2187 873.64 97.048 874.312 97.048C875.016 97.048 875.624 97.2133 876.136 97.544C876.648 97.8747 877.043 98.3387 877.32 98.936C877.608 99.5333 877.752 100.253 877.752 101.096C877.752 101.917 877.608 102.637 877.32 103.256C877.043 103.864 876.643 104.333 876.12 104.664C875.608 104.984 875.006 105.144 874.312 105.144ZM873.912 103.896C874.36 103.896 874.75 103.789 875.08 103.576C875.411 103.363 875.667 103.048 875.848 102.632C876.03 102.216 876.12 101.704 876.12 101.096C876.12 100.179 875.918 99.4853 875.512 99.016C875.118 98.5467 874.584 98.312 873.912 98.312C873.475 98.312 873.086 98.4187 872.744 98.632C872.414 98.8347 872.158 99.144 871.976 99.56C871.795 99.976 871.704 100.488 871.704 101.096C871.704 102.003 871.907 102.696 872.312 103.176C872.718 103.656 873.251 103.896 873.912 103.896ZM881.586 105.144C880.754 105.144 880.124 104.904 879.698 104.424C879.282 103.933 879.074 103.229 879.074 102.312V94.424C879.074 94.1573 879.143 93.9547 879.282 93.816C879.42 93.6773 879.618 93.608 879.874 93.608C880.13 93.608 880.327 93.6773 880.466 93.816C880.615 93.9547 880.69 94.1573 880.69 94.424V102.216C880.69 102.749 880.796 103.149 881.01 103.416C881.234 103.672 881.554 103.8 881.97 103.8C882.066 103.8 882.151 103.8 882.226 103.8C882.3 103.789 882.375 103.779 882.45 103.768C882.578 103.757 882.668 103.795 882.722 103.88C882.775 103.955 882.802 104.115 882.802 104.36C882.802 104.584 882.754 104.76 882.658 104.888C882.562 105.005 882.407 105.08 882.194 105.112C882.098 105.123 881.996 105.128 881.89 105.128C881.783 105.139 881.682 105.144 881.586 105.144ZM887.05 105.144C886.197 105.144 885.461 104.984 884.842 104.664C884.234 104.333 883.759 103.869 883.418 103.272C883.087 102.664 882.922 101.944 882.922 101.112C882.922 100.301 883.087 99.592 883.418 98.984C883.749 98.376 884.202 97.9013 884.778 97.56C885.354 97.2187 886.01 97.048 886.746 97.048C887.29 97.048 887.775 97.1387 888.202 97.32C888.629 97.4907 888.991 97.7467 889.29 98.088C889.599 98.4187 889.829 98.824 889.978 99.304C890.138 99.784 890.218 100.323 890.218 100.92C890.218 101.101 890.165 101.24 890.058 101.336C889.951 101.421 889.791 101.464 889.578 101.464H884.202V100.472H889.13L888.858 100.696C888.858 100.163 888.778 99.7093 888.618 99.336C888.469 98.9627 888.239 98.68 887.93 98.488C887.631 98.2853 887.258 98.184 886.81 98.184C886.309 98.184 885.882 98.3013 885.53 98.536C885.189 98.7707 884.927 99.096 884.746 99.512C884.565 99.928 884.474 100.413 884.474 100.968V101.064C884.474 102.003 884.693 102.712 885.13 103.192C885.578 103.661 886.223 103.896 887.066 103.896C887.386 103.896 887.722 103.853 888.074 103.768C888.437 103.683 888.778 103.539 889.098 103.336C889.279 103.229 889.439 103.181 889.578 103.192C889.727 103.203 889.845 103.251 889.93 103.336C890.026 103.421 890.085 103.528 890.106 103.656C890.127 103.784 890.106 103.917 890.042 104.056C889.978 104.184 889.866 104.301 889.706 104.408C889.343 104.653 888.922 104.84 888.442 104.968C887.962 105.085 887.498 105.144 887.05 105.144ZM894.792 105.144C894.152 105.144 893.613 105.032 893.176 104.808C892.739 104.584 892.413 104.253 892.2 103.816C891.987 103.379 891.88 102.845 891.88 102.216V98.44H890.92C890.707 98.44 890.541 98.3867 890.424 98.28C890.307 98.1627 890.248 98.008 890.248 97.816C890.248 97.6133 890.307 97.4587 890.424 97.352C890.541 97.2453 890.707 97.192 890.92 97.192H891.88V95.544C891.88 95.2773 891.949 95.0747 892.088 94.936C892.237 94.7973 892.44 94.728 892.696 94.728C892.952 94.728 893.149 94.7973 893.288 94.936C893.427 95.0747 893.496 95.2773 893.496 95.544V97.192H895.368C895.581 97.192 895.747 97.2453 895.864 97.352C895.981 97.4587 896.04 97.6133 896.04 97.816C896.04 98.008 895.981 98.1627 895.864 98.28C895.747 98.3867 895.581 98.44 895.368 98.44H893.496V102.088C893.496 102.653 893.613 103.08 893.848 103.368C894.093 103.656 894.488 103.8 895.032 103.8C895.224 103.8 895.389 103.784 895.528 103.752C895.677 103.709 895.8 103.683 895.896 103.672C896.013 103.672 896.109 103.715 896.184 103.8C896.259 103.875 896.296 104.024 896.296 104.248C896.296 104.408 896.264 104.557 896.2 104.696C896.147 104.835 896.045 104.925 895.896 104.968C895.768 105.011 895.592 105.048 895.368 105.08C895.155 105.123 894.963 105.144 894.792 105.144ZM899.823 105.144C899.183 105.144 898.645 105.032 898.207 104.808C897.77 104.584 897.445 104.253 897.231 103.816C897.018 103.379 896.911 102.845 896.911 102.216V98.44H895.951C895.738 98.44 895.573 98.3867 895.455 98.28C895.338 98.1627 895.279 98.008 895.279 97.816C895.279 97.6133 895.338 97.4587 895.455 97.352C895.573 97.2453 895.738 97.192 895.951 97.192H896.911V95.544C896.911 95.2773 896.981 95.0747 897.119 94.936C897.269 94.7973 897.471 94.728 897.727 94.728C897.983 94.728 898.181 94.7973 898.319 94.936C898.458 95.0747 898.527 95.2773 898.527 95.544V97.192H900.399C900.613 97.192 900.778 97.2453 900.895 97.352C901.013 97.4587 901.071 97.6133 901.071 97.816C901.071 98.008 901.013 98.1627 900.895 98.28C900.778 98.3867 900.613 98.44 900.399 98.44H898.527V102.088C898.527 102.653 898.645 103.08 898.879 103.368C899.125 103.656 899.519 103.8 900.063 103.8C900.255 103.8 900.421 103.784 900.559 103.752C900.709 103.709 900.831 103.683 900.927 103.672C901.045 103.672 901.141 103.715 901.215 103.8C901.29 103.875 901.327 104.024 901.327 104.248C901.327 104.408 901.295 104.557 901.231 104.696C901.178 104.835 901.077 104.925 900.927 104.968C900.799 105.011 900.623 105.048 900.399 105.08C900.186 105.123 899.994 105.144 899.823 105.144ZM905.425 105.144C904.572 105.144 903.836 104.984 903.217 104.664C902.609 104.333 902.134 103.869 901.793 103.272C901.462 102.664 901.297 101.944 901.297 101.112C901.297 100.301 901.462 99.592 901.793 98.984C902.124 98.376 902.577 97.9013 903.153 97.56C903.729 97.2187 904.385 97.048 905.121 97.048C905.665 97.048 906.15 97.1387 906.577 97.32C907.004 97.4907 907.366 97.7467 907.665 98.088C907.974 98.4187 908.204 98.824 908.353 99.304C908.513 99.784 908.593 100.323 908.593 100.92C908.593 101.101 908.54 101.24 908.433 101.336C908.326 101.421 908.166 101.464 907.953 101.464H902.577V100.472H907.505L907.233 100.696C907.233 100.163 907.153 99.7093 906.993 99.336C906.844 98.9627 906.614 98.68 906.305 98.488C906.006 98.2853 905.633 98.184 905.185 98.184C904.684 98.184 904.257 98.3013 903.905 98.536C903.564 98.7707 903.302 99.096 903.121 99.512C902.94 99.928 902.849 100.413 902.849 100.968V101.064C902.849 102.003 903.068 102.712 903.505 103.192C903.953 103.661 904.598 103.896 905.441 103.896C905.761 103.896 906.097 103.853 906.449 103.768C906.812 103.683 907.153 103.539 907.473 103.336C907.654 103.229 907.814 103.181 907.953 103.192C908.102 103.203 908.22 103.251 908.305 103.336C908.401 103.421 908.46 103.528 908.481 103.656C908.502 103.784 908.481 103.917 908.417 104.056C908.353 104.184 908.241 104.301 908.081 104.408C907.718 104.653 907.297 104.84 906.817 104.968C906.337 105.085 905.873 105.144 905.425 105.144Z" fill="#1A1A1A"/>
</svg>
