<svg viewBox="0 0 20 20" fill="none" xmlns="http://www.w3.org/2000/svg">
<path d="M9.16683 12.3541V15C9.16683 15.2361 9.24669 15.434 9.40641 15.5937C9.56613 15.7534 9.76405 15.8333 10.0002 15.8333C10.2363 15.8333 10.4342 15.7534 10.5939 15.5937C10.7536 15.434 10.8335 15.2361 10.8335 15V12.3541L11.5835 13.1041C11.6668 13.1875 11.7606 13.25 11.8647 13.2916C11.9689 13.3333 12.0731 13.3507 12.1772 13.3437C12.2814 13.3368 12.3821 13.3125 12.4793 13.2708C12.5766 13.2291 12.6668 13.1666 12.7502 13.0833C12.9029 12.9166 12.9828 12.7222 12.9897 12.5C12.9967 12.2777 12.9168 12.0833 12.7502 11.9166L10.5835 9.74996C10.5002 9.66663 10.4099 9.6076 10.3127 9.57288C10.2154 9.53815 10.1113 9.52079 10.0002 9.52079C9.88905 9.52079 9.78489 9.53815 9.68766 9.57288C9.59044 9.6076 9.50016 9.66663 9.41683 9.74996L7.25016 11.9166C7.0835 12.0833 7.00364 12.2777 7.01058 12.5C7.01752 12.7222 7.10433 12.9166 7.271 13.0833C7.43766 13.2361 7.63211 13.3159 7.85433 13.3229C8.07655 13.3298 8.271 13.25 8.43766 13.0833L9.16683 12.3541ZM5.00016 18.3333C4.54183 18.3333 4.14947 18.1701 3.82308 17.8437C3.49669 17.5173 3.3335 17.125 3.3335 16.6666V3.33329C3.3335 2.87496 3.49669 2.4826 3.82308 2.15621C4.14947 1.82982 4.54183 1.66663 5.00016 1.66663H10.9793C11.2016 1.66663 11.4134 1.70829 11.6147 1.79163C11.8161 1.87496 11.9932 1.99301 12.146 2.14579L16.1877 6.18746C16.3404 6.34024 16.4585 6.51732 16.5418 6.71871C16.6252 6.9201 16.6668 7.1319 16.6668 7.35413V16.6666C16.6668 17.125 16.5036 17.5173 16.1772 17.8437C15.8509 18.1701 15.4585 18.3333 15.0002 18.3333H5.00016ZM10.8335 6.66663C10.8335 6.90274 10.9134 7.10065 11.0731 7.26038C11.2328 7.4201 11.4307 7.49996 11.6668 7.49996H15.0002L10.8335 3.33329V6.66663Z" fill="currentColor"/>
</svg>