<svg viewBox="0 0 20 20" fill="none" xmlns="http://www.w3.org/2000/svg">
<path d="M3.33341 16.6666C2.87508 16.6666 2.48272 16.5035 2.15633 16.1771C1.82994 15.8507 1.66675 15.4583 1.66675 15V4.99998C1.66675 4.54165 1.82994 4.14929 2.15633 3.8229C2.48272 3.49651 2.87508 3.33331 3.33341 3.33331H16.6667C17.1251 3.33331 17.5174 3.49651 17.8438 3.8229C18.1702 4.14929 18.3334 4.54165 18.3334 4.99998V15C18.3334 15.4583 18.1702 15.8507 17.8438 16.1771C17.5174 16.5035 17.1251 16.6666 16.6667 16.6666H3.33341ZM10.0001 10.6875C10.0695 10.6875 10.1424 10.6771 10.2188 10.6562C10.2952 10.6354 10.3681 10.6041 10.4376 10.5625L16.3334 6.87498C16.4445 6.80554 16.5279 6.71873 16.5834 6.61456C16.639 6.5104 16.6667 6.39581 16.6667 6.27081C16.6667 5.99304 16.5487 5.7847 16.3126 5.64581C16.0765 5.50692 15.8334 5.51387 15.5834 5.66665L10.0001 9.16665L4.41675 5.66665C4.16675 5.51387 3.92369 5.5104 3.68758 5.65623C3.45147 5.80206 3.33341 6.00692 3.33341 6.27081C3.33341 6.4097 3.36119 6.53123 3.41675 6.6354C3.4723 6.73956 3.55564 6.81942 3.66675 6.87498L9.56258 10.5625C9.63203 10.6041 9.70494 10.6354 9.78133 10.6562C9.85772 10.6771 9.93064 10.6875 10.0001 10.6875Z" fill="currentColor"/>
</svg>