<svg viewBox="0 0 20 20" fill="none" xmlns="http://www.w3.org/2000/svg">
<path d="M14.1666 18.3334C13.0138 18.3334 12.0312 17.9271 11.2187 17.1146C10.4062 16.3021 9.99992 15.3195 9.99992 14.1667C9.99992 13.0139 10.4062 12.0313 11.2187 11.2188C12.0312 10.4063 13.0138 10 14.1666 10C15.3194 10 16.302 10.4063 17.1145 11.2188C17.927 12.0313 18.3333 13.0139 18.3333 14.1667C18.3333 15.3195 17.927 16.3021 17.1145 17.1146C16.302 17.9271 15.3194 18.3334 14.1666 18.3334ZM3.33325 9.25002V5.31252C3.33325 4.9653 3.43395 4.6528 3.63534 4.37502C3.83672 4.09724 4.09714 3.89585 4.41659 3.77085L9.41659 1.89585C9.61103 1.82641 9.80547 1.79169 9.99992 1.79169C10.1944 1.79169 10.3888 1.82641 10.5833 1.89585L15.5833 3.77085C15.9027 3.89585 16.1631 4.09724 16.3645 4.37502C16.5659 4.6528 16.6666 4.9653 16.6666 5.31252V7.85419C16.6666 8.0903 16.5624 8.28127 16.3541 8.4271C16.1458 8.57294 15.9235 8.61113 15.6874 8.54169C15.4374 8.47224 15.1874 8.42016 14.9374 8.38544C14.6874 8.35072 14.4305 8.33335 14.1666 8.33335C12.5555 8.33335 11.1805 8.9028 10.0416 10.0417C8.9027 11.1806 8.33325 12.5556 8.33325 14.1667C8.33325 14.6111 8.38534 15.0452 8.4895 15.4688C8.59367 15.8924 8.74297 16.3195 8.93742 16.75C9.06242 17.0139 9.02422 17.25 8.82284 17.4584C8.62145 17.6667 8.38881 17.7084 8.12492 17.5834C7.54159 17.2778 7.00686 16.9028 6.52075 16.4584C6.03464 16.0139 5.60409 15.5278 5.22909 15C4.63186 14.1806 4.16659 13.2813 3.83325 12.3021C3.49992 11.3229 3.33325 10.3056 3.33325 9.25002ZM14.1666 14.1667C14.5138 14.1667 14.8089 14.0452 15.052 13.8021C15.2951 13.559 15.4166 13.2639 15.4166 12.9167C15.4166 12.5695 15.2951 12.2743 15.052 12.0313C14.8089 11.7882 14.5138 11.6667 14.1666 11.6667C13.8194 11.6667 13.5242 11.7882 13.2812 12.0313C13.0381 12.2743 12.9166 12.5695 12.9166 12.9167C12.9166 13.2639 13.0381 13.559 13.2812 13.8021C13.5242 14.0452 13.8194 14.1667 14.1666 14.1667ZM14.1666 16.6667C14.5138 16.6667 14.8402 16.6007 15.1458 16.4688C15.4513 16.3368 15.7221 16.1459 15.9583 15.8959C16.0277 15.8125 16.0555 15.7188 16.0416 15.6146C16.0277 15.5104 15.9652 15.4306 15.8541 15.375C15.5902 15.25 15.3159 15.1563 15.0312 15.0938C14.7464 15.0313 14.4583 15 14.1666 15C13.8749 15 13.5867 15.0313 13.302 15.0938C13.0173 15.1563 12.743 15.25 12.4791 15.375C12.368 15.4306 12.3055 15.5104 12.2916 15.6146C12.2777 15.7188 12.3055 15.8125 12.3749 15.8959C12.611 16.1459 12.8819 16.3368 13.1874 16.4688C13.493 16.6007 13.8194 16.6667 14.1666 16.6667Z" fill="currentColor"/>
</svg>