<svg viewBox="0 0 20 20" fill="none" xmlns="http://www.w3.org/2000/svg">
<path d="M8.83333 11.0417L7.04167 9.25004C6.88889 9.09726 6.69444 9.02087 6.45833 9.02087C6.22222 9.02087 6.02778 9.09726 5.875 9.25004C5.72222 9.40282 5.64583 9.59726 5.64583 9.83337C5.64583 10.0695 5.72222 10.2639 5.875 10.4167L8.25 12.7917C8.41667 12.9584 8.61111 13.0417 8.83333 13.0417C9.05556 13.0417 9.25 12.9584 9.41667 12.7917L14.125 8.08337C14.2778 7.9306 14.3542 7.73615 14.3542 7.50004C14.3542 7.26393 14.2778 7.06948 14.125 6.91671C13.9722 6.76393 13.7778 6.68754 13.5417 6.68754C13.3056 6.68754 13.1111 6.76393 12.9583 6.91671L8.83333 11.0417ZM4.16667 17.5C3.70833 17.5 3.31597 17.3368 2.98958 17.0105C2.66319 16.6841 2.5 16.2917 2.5 15.8334V4.16671C2.5 3.70837 2.66319 3.31601 2.98958 2.98962C3.31597 2.66324 3.70833 2.50004 4.16667 2.50004H7.66667C7.84722 2.00004 8.14931 1.59726 8.57292 1.29171C8.99653 0.986152 9.47222 0.833374 10 0.833374C10.5278 0.833374 11.0035 0.986152 11.4271 1.29171C11.8507 1.59726 12.1528 2.00004 12.3333 2.50004H15.8333C16.2917 2.50004 16.684 2.66324 17.0104 2.98962C17.3368 3.31601 17.5 3.70837 17.5 4.16671V15.8334C17.5 16.2917 17.3368 16.6841 17.0104 17.0105C16.684 17.3368 16.2917 17.5 15.8333 17.5H4.16667ZM10 3.54171C10.1806 3.54171 10.3299 3.48268 10.4479 3.36462C10.566 3.24657 10.625 3.09726 10.625 2.91671C10.625 2.73615 10.566 2.58685 10.4479 2.46879C10.3299 2.35074 10.1806 2.29171 10 2.29171C9.81944 2.29171 9.67014 2.35074 9.55208 2.46879C9.43403 2.58685 9.375 2.73615 9.375 2.91671C9.375 3.09726 9.43403 3.24657 9.55208 3.36462C9.67014 3.48268 9.81944 3.54171 10 3.54171Z" fill="currentColor"/>
</svg>