<svg viewBox="0 0 20 20" fill="none" xmlns="http://www.w3.org/2000/svg">
<path d="M10.0001 17C9.77786 17 9.59036 16.9236 9.43758 16.7708C9.2848 16.6181 9.20842 16.4306 9.20842 16.2083C9.20842 16.0972 9.22925 15.9931 9.27092 15.8958C9.31258 15.7986 9.36814 15.7153 9.43758 15.6458L12.9584 12.125C13.0279 12.0556 13.0626 11.9618 13.0626 11.8438C13.0626 11.7257 13.0279 11.6319 12.9584 11.5625C12.8751 11.4792 12.7779 11.441 12.6667 11.4479C12.5556 11.4549 12.4654 11.4931 12.3959 11.5625L8.87508 15.0625C8.80564 15.1319 8.7223 15.191 8.62508 15.2396C8.52786 15.2882 8.42369 15.3125 8.31258 15.3125C8.07647 15.3125 7.88203 15.2361 7.72925 15.0833C7.57647 14.9306 7.50008 14.7361 7.50008 14.5C7.50008 14.3889 7.52439 14.2847 7.573 14.1875C7.62161 14.0903 7.68064 14.0069 7.75008 13.9375L11.2501 10.4167C11.3195 10.3472 11.3542 10.2569 11.3542 10.1458C11.3542 10.0347 11.3195 9.94444 11.2501 9.875C11.1667 9.79167 11.0695 9.75 10.9584 9.75C10.8473 9.75 10.757 9.78472 10.6876 9.85417L7.16675 13.375C7.0973 13.4444 7.01397 13.5 6.91675 13.5417C6.81953 13.5833 6.71536 13.6042 6.60425 13.6042C6.38203 13.6042 6.19453 13.5278 6.04175 13.375C5.88897 13.2222 5.81258 13.0347 5.81258 12.8125C5.81258 12.7014 5.83342 12.5972 5.87508 12.5C5.91675 12.4028 5.9723 12.3194 6.04175 12.25L9.54175 8.75C9.62508 8.66667 9.66675 8.56944 9.66675 8.45833C9.66675 8.34722 9.62508 8.25 9.54175 8.16667C9.45842 8.08333 9.36119 8.04167 9.25008 8.04167C9.13897 8.04167 9.04175 8.08333 8.95842 8.16667L5.47925 11.6667C5.4098 11.7361 5.323 11.7917 5.21883 11.8333C5.11466 11.875 5.00703 11.8958 4.89591 11.8958C4.67369 11.8958 4.48619 11.8194 4.33341 11.6667C4.18064 11.5139 4.10425 11.3264 4.10425 11.1042C4.10425 10.9931 4.12508 10.8889 4.16675 10.7917C4.20841 10.6944 4.26397 10.6111 4.33341 10.5417L8.43758 6.45833C8.56258 6.33333 8.71536 6.27083 8.89592 6.27083C9.07647 6.27083 9.23619 6.34028 9.37508 6.47917L11.8959 9C12.0487 9.15278 12.2223 9.26736 12.4167 9.34375C12.6112 9.42014 12.8126 9.45833 13.0209 9.45833C13.4654 9.45833 13.8438 9.30208 14.1563 8.98958C14.4688 8.67708 14.6251 8.29861 14.6251 7.85417C14.6251 7.64583 14.5834 7.44444 14.5001 7.25C14.4167 7.05556 14.2987 6.88194 14.1459 6.72917L11.6459 4.22917C11.3959 3.97917 11.2536 3.68056 11.2188 3.33333C11.1841 2.98611 11.2848 2.6875 11.5209 2.4375C11.7154 2.24306 11.9272 2.10069 12.1563 2.01042C12.3855 1.92014 12.6251 1.875 12.8751 1.875C13.2501 1.875 13.6286 1.96181 14.0105 2.13542C14.3924 2.30903 14.7431 2.55556 15.0626 2.875L17.6251 5.4375C17.9029 5.71528 18.1181 6.03472 18.2709 6.39583C18.4237 6.75694 18.5001 7.13889 18.5001 7.54167C18.5001 7.94444 18.4237 8.32986 18.2709 8.69792C18.1181 9.06597 17.9029 9.38889 17.6251 9.66667L10.5626 16.7708C10.4931 16.8403 10.4098 16.8958 10.3126 16.9375C10.2154 16.9792 10.1112 17 10.0001 17ZM2.37508 9.75C2.05564 9.47222 1.81605 9.15625 1.65633 8.80208C1.49661 8.44792 1.41675 8.06944 1.41675 7.66667C1.41675 7.26389 1.49661 6.86806 1.65633 6.47917C1.81605 6.09028 2.05564 5.73611 2.37508 5.41667L4.91675 2.875C5.19453 2.59722 5.51397 2.38194 5.87508 2.22917C6.23619 2.07639 6.61814 2 7.02092 2C7.42369 2 7.80911 2.07639 8.17717 2.22917C8.54522 2.38194 8.86814 2.59722 9.14592 2.875L13.5834 7.29167C13.6529 7.36111 13.7084 7.44792 13.7501 7.55208C13.7917 7.65625 13.8126 7.76389 13.8126 7.875C13.8126 8.09722 13.7327 8.28472 13.573 8.4375C13.4133 8.59028 13.2223 8.66667 13.0001 8.66667C12.889 8.66667 12.7848 8.64583 12.6876 8.60417C12.5904 8.5625 12.507 8.50694 12.4376 8.4375L9.93758 5.91667C9.64592 5.625 9.29175 5.47917 8.87508 5.47917C8.45842 5.47917 8.10425 5.625 7.81258 5.91667L3.91675 9.8125C3.70841 10.0208 3.45841 10.1111 3.16675 10.0833C2.87508 10.0556 2.61119 9.94444 2.37508 9.75Z" fill="currentColor"/>
</svg>
