<svg viewBox="0 0 20 20" fill="none" xmlns="http://www.w3.org/2000/svg">
<path d="M3.75 17C3.5375 17 3.35938 16.9285 3.21563 16.7856C3.07188 16.6427 3 16.4656 3 16.2544C3 16.0431 3.07188 15.8646 3.21563 15.7188C3.35938 15.5729 3.5375 15.5 3.75 15.5H16.25C16.4625 15.5 16.6406 15.5715 16.7844 15.7144C16.9281 15.8573 17 16.0344 17 16.2456C17 16.4569 16.9281 16.6354 16.7844 16.7812C16.6406 16.9271 16.4625 17 16.25 17H3.75ZM6.75 13.875C6.5375 13.875 6.35938 13.8035 6.21563 13.6606C6.07188 13.5177 6 13.3406 6 13.1294C6 12.9181 6.07188 12.7396 6.21563 12.5938C6.35938 12.4479 6.5375 12.375 6.75 12.375H13.25C13.4625 12.375 13.6406 12.4465 13.7844 12.5894C13.9281 12.7323 14 12.9094 14 13.1206C14 13.3319 13.9281 13.5104 13.7844 13.6562C13.6406 13.8021 13.4625 13.875 13.25 13.875H6.75ZM3.75 10.75C3.5375 10.75 3.35938 10.6785 3.21563 10.5356C3.07188 10.3927 3 10.2156 3 10.0044C3 9.79313 3.07188 9.61458 3.21563 9.46875C3.35938 9.32292 3.5375 9.25 3.75 9.25H16.25C16.4625 9.25 16.6406 9.32146 16.7844 9.46438C16.9281 9.60729 17 9.78438 17 9.99563C17 10.2069 16.9281 10.3854 16.7844 10.5312C16.6406 10.6771 16.4625 10.75 16.25 10.75H3.75ZM6.75 7.625C6.5375 7.625 6.35938 7.55354 6.21563 7.41063C6.07188 7.26771 6 7.09063 6 6.87938C6 6.66813 6.07188 6.48958 6.21563 6.34375C6.35938 6.19792 6.5375 6.125 6.75 6.125H13.25C13.4625 6.125 13.6406 6.19646 13.7844 6.33937C13.9281 6.48229 14 6.65937 14 6.87062C14 7.08187 13.9281 7.26042 13.7844 7.40625C13.6406 7.55208 13.4625 7.625 13.25 7.625H6.75ZM3.75 4.5C3.5375 4.5 3.35938 4.42854 3.21563 4.28563C3.07188 4.14271 3 3.96563 3 3.75438C3 3.54313 3.07188 3.36458 3.21563 3.21875C3.35938 3.07292 3.5375 3 3.75 3H16.25C16.4625 3 16.6406 3.07146 16.7844 3.21437C16.9281 3.35729 17 3.53437 17 3.74562C17 3.95687 16.9281 4.13542 16.7844 4.28125C16.6406 4.42708 16.4625 4.5 16.25 4.5H3.75Z" fill="currentColor"/>
</svg>
