<svg width="1159" height="136" viewBox="0 0 1159 136" fill="none" xmlns="http://www.w3.org/2000/svg">
<path d="M8 0.5H1151C1155.14 0.5 1158.5 3.85787 1158.5 8V128C1158.5 132.142 1155.14 135.5 1151 135.5H8C3.85787 135.5 0.5 132.142 0.5 128V8C0.5 3.85786 3.85786 0.5 8 0.5Z" stroke="#737272"/>
<rect x="311.5" y="32" width="40" height="40" rx="4" fill="#2964A0"/>
<rect x="359.5" y="32" width="40" height="40" rx="4" fill="#225082"/>
<rect x="407.5" y="32" width="40" height="40" rx="4" fill="#214770"/>
<path d="M335.766 98V86.5469H340.062C340.938 86.5469 341.638 86.6641 342.164 86.8984C342.695 87.1276 343.109 87.4844 343.406 87.9688C343.708 88.4479 343.859 88.9505 343.859 89.4766C343.859 89.9661 343.727 90.4271 343.461 90.8594C343.195 91.2917 342.794 91.6406 342.258 91.9062C342.951 92.1094 343.482 92.4557 343.852 92.9453C344.227 93.4349 344.414 94.013 344.414 94.6797C344.414 95.2161 344.299 95.7161 344.07 96.1797C343.846 96.638 343.568 96.9922 343.234 97.2422C342.901 97.4922 342.482 97.6823 341.977 97.8125C341.477 97.9375 340.862 98 340.133 98H335.766ZM337.281 91.3594H339.758C340.43 91.3594 340.911 91.3151 341.203 91.2266C341.589 91.112 341.878 90.9219 342.07 90.6562C342.268 90.3906 342.367 90.0573 342.367 89.6562C342.367 89.276 342.276 88.9427 342.094 88.6562C341.911 88.3646 341.651 88.1667 341.312 88.0625C340.974 87.9531 340.393 87.8984 339.57 87.8984H337.281V91.3594ZM337.281 96.6484H340.133C340.622 96.6484 340.966 96.6302 341.164 96.5938C341.513 96.5312 341.805 96.4271 342.039 96.2812C342.273 96.1354 342.466 95.9245 342.617 95.6484C342.768 95.3672 342.844 95.0443 342.844 94.6797C342.844 94.2526 342.734 93.8828 342.516 93.5703C342.297 93.2526 341.992 93.0312 341.602 92.9062C341.216 92.776 340.659 92.7109 339.93 92.7109H337.281V96.6484ZM346.289 98V86.5469H347.695V98H346.289ZM355.562 95.3281L357.016 95.5078C356.786 96.3568 356.362 97.0156 355.742 97.4844C355.122 97.9531 354.331 98.1875 353.367 98.1875C352.154 98.1875 351.19 97.8151 350.477 97.0703C349.768 96.3203 349.414 95.2708 349.414 93.9219C349.414 92.526 349.773 91.4427 350.492 90.6719C351.211 89.901 352.143 89.5156 353.289 89.5156C354.398 89.5156 355.305 89.8932 356.008 90.6484C356.711 91.4036 357.062 92.4661 357.062 93.8359C357.062 93.9193 357.06 94.0443 357.055 94.2109H350.867C350.919 95.1224 351.177 95.8203 351.641 96.3047C352.104 96.7891 352.682 97.0312 353.375 97.0312C353.891 97.0312 354.331 96.8958 354.695 96.625C355.06 96.3542 355.349 95.9219 355.562 95.3281ZM350.945 93.0547H355.578C355.516 92.3568 355.339 91.8333 355.047 91.4844C354.599 90.9427 354.018 90.6719 353.305 90.6719C352.659 90.6719 352.115 90.888 351.672 91.3203C351.234 91.7526 350.992 92.3307 350.945 93.0547ZM364.227 98V96.7812C363.581 97.7188 362.703 98.1875 361.594 98.1875C361.104 98.1875 360.646 98.0938 360.219 97.9062C359.797 97.7188 359.482 97.4844 359.273 97.2031C359.07 96.9167 358.927 96.5677 358.844 96.1562C358.786 95.8802 358.758 95.4427 358.758 94.8438V89.7031H360.164V94.3047C360.164 95.0391 360.193 95.5339 360.25 95.7891C360.339 96.1589 360.526 96.4505 360.812 96.6641C361.099 96.8724 361.453 96.9766 361.875 96.9766C362.297 96.9766 362.693 96.8698 363.062 96.6562C363.432 96.4375 363.693 96.1432 363.844 95.7734C364 95.3984 364.078 94.8568 364.078 94.1484V89.7031H365.484V98H364.227ZM372.586 98V86.5469H374.102V98H372.586ZM382.016 94.9609L383.398 95.1406C383.247 96.0938 382.859 96.8411 382.234 97.3828C381.615 97.9193 380.852 98.1875 379.945 98.1875C378.81 98.1875 377.896 97.8177 377.203 97.0781C376.516 96.3333 376.172 95.2682 376.172 93.8828C376.172 92.987 376.32 92.2031 376.617 91.5312C376.914 90.8594 377.365 90.3568 377.969 90.0234C378.578 89.6849 379.24 89.5156 379.953 89.5156C380.854 89.5156 381.591 89.7448 382.164 90.2031C382.737 90.6562 383.104 91.3021 383.266 92.1406L381.898 92.3516C381.768 91.7943 381.536 91.375 381.203 91.0938C380.875 90.8125 380.477 90.6719 380.008 90.6719C379.299 90.6719 378.724 90.9271 378.281 91.4375C377.839 91.9427 377.617 92.7448 377.617 93.8438C377.617 94.9583 377.831 95.7682 378.258 96.2734C378.685 96.7786 379.242 97.0312 379.93 97.0312C380.482 97.0312 380.943 96.862 381.312 96.5234C381.682 96.1849 381.917 95.6641 382.016 94.9609ZM390.281 95.3281L391.734 95.5078C391.505 96.3568 391.081 97.0156 390.461 97.4844C389.841 97.9531 389.049 98.1875 388.086 98.1875C386.872 98.1875 385.909 97.8151 385.195 97.0703C384.487 96.3203 384.133 95.2708 384.133 93.9219C384.133 92.526 384.492 91.4427 385.211 90.6719C385.93 89.901 386.862 89.5156 388.008 89.5156C389.117 89.5156 390.023 89.8932 390.727 90.6484C391.43 91.4036 391.781 92.4661 391.781 93.8359C391.781 93.9193 391.779 94.0443 391.773 94.2109H385.586C385.638 95.1224 385.896 95.8203 386.359 96.3047C386.823 96.7891 387.401 97.0312 388.094 97.0312C388.609 97.0312 389.049 96.8958 389.414 96.625C389.779 96.3542 390.068 95.9219 390.281 95.3281ZM385.664 93.0547H390.297C390.234 92.3568 390.057 91.8333 389.766 91.4844C389.318 90.9427 388.737 90.6719 388.023 90.6719C387.378 90.6719 386.833 90.888 386.391 91.3203C385.953 91.7526 385.711 92.3307 385.664 93.0547ZM394.805 98H393.5V86.5469H394.906V90.6328C395.5 89.888 396.258 89.5156 397.18 89.5156C397.69 89.5156 398.172 89.6198 398.625 89.8281C399.083 90.0312 399.458 90.3203 399.75 90.6953C400.047 91.0651 400.279 91.513 400.445 92.0391C400.612 92.5651 400.695 93.1276 400.695 93.7266C400.695 95.1484 400.344 96.2474 399.641 97.0234C398.938 97.7995 398.094 98.1875 397.109 98.1875C396.13 98.1875 395.362 97.7786 394.805 96.9609V98ZM394.789 93.7891C394.789 94.7839 394.924 95.5026 395.195 95.9453C395.638 96.6693 396.237 97.0312 396.992 97.0312C397.607 97.0312 398.138 96.7656 398.586 96.2344C399.034 95.6979 399.258 94.901 399.258 93.8438C399.258 92.7604 399.042 91.9609 398.609 91.4453C398.182 90.9297 397.664 90.6719 397.055 90.6719C396.44 90.6719 395.909 90.9401 395.461 91.4766C395.013 92.0078 394.789 92.7786 394.789 93.7891ZM408.094 95.3281L409.547 95.5078C409.318 96.3568 408.893 97.0156 408.273 97.4844C407.654 97.9531 406.862 98.1875 405.898 98.1875C404.685 98.1875 403.721 97.8151 403.008 97.0703C402.299 96.3203 401.945 95.2708 401.945 93.9219C401.945 92.526 402.305 91.4427 403.023 90.6719C403.742 89.901 404.674 89.5156 405.82 89.5156C406.93 89.5156 407.836 89.8932 408.539 90.6484C409.242 91.4036 409.594 92.4661 409.594 93.8359C409.594 93.9193 409.591 94.0443 409.586 94.2109H403.398C403.451 95.1224 403.708 95.8203 404.172 96.3047C404.635 96.7891 405.214 97.0312 405.906 97.0312C406.422 97.0312 406.862 96.8958 407.227 96.625C407.591 96.3542 407.88 95.9219 408.094 95.3281ZM403.477 93.0547H408.109C408.047 92.3568 407.87 91.8333 407.578 91.4844C407.13 90.9427 406.549 90.6719 405.836 90.6719C405.19 90.6719 404.646 90.888 404.203 91.3203C403.766 91.7526 403.523 92.3307 403.477 93.0547ZM411.305 98V89.7031H412.57V90.9609C412.893 90.3724 413.19 89.9844 413.461 89.7969C413.737 89.6094 414.039 89.5156 414.367 89.5156C414.841 89.5156 415.323 89.6667 415.812 89.9688L415.328 91.2734C414.984 91.0703 414.641 90.9688 414.297 90.9688C413.99 90.9688 413.714 91.0625 413.469 91.25C413.224 91.4323 413.049 91.6875 412.945 92.0156C412.789 92.5156 412.711 93.0625 412.711 93.6562V98H411.305ZM416.391 98.6875L417.758 98.8906C417.815 99.3125 417.974 99.6198 418.234 99.8125C418.583 100.073 419.06 100.203 419.664 100.203C420.315 100.203 420.818 100.073 421.172 99.8125C421.526 99.5521 421.766 99.1875 421.891 98.7188C421.964 98.4323 421.997 97.8307 421.992 96.9141C421.378 97.638 420.612 98 419.695 98C418.555 98 417.672 97.5885 417.047 96.7656C416.422 95.9427 416.109 94.9557 416.109 93.8047C416.109 93.013 416.253 92.2839 416.539 91.6172C416.826 90.9453 417.24 90.4271 417.781 90.0625C418.328 89.6979 418.969 89.5156 419.703 89.5156C420.682 89.5156 421.49 89.9115 422.125 90.7031V89.7031H423.422V96.875C423.422 98.1667 423.289 99.0807 423.023 99.6172C422.763 100.159 422.346 100.586 421.773 100.898C421.206 101.211 420.505 101.367 419.672 101.367C418.682 101.367 417.883 101.143 417.273 100.695C416.664 100.253 416.37 99.5833 416.391 98.6875ZM417.555 93.7031C417.555 94.7917 417.771 95.5859 418.203 96.0859C418.635 96.5859 419.177 96.8359 419.828 96.8359C420.474 96.8359 421.016 96.5885 421.453 96.0938C421.891 95.5938 422.109 94.8125 422.109 93.75C422.109 92.7344 421.883 91.9688 421.43 91.4531C420.982 90.9375 420.44 90.6797 419.805 90.6797C419.18 90.6797 418.648 90.9349 418.211 91.4453C417.773 91.9505 417.555 92.7031 417.555 93.7031Z" fill="#3E3E3D"/>
<rect x="511.5" y="32" width="40" height="40" rx="4" fill="#7D5A9F"/>
<rect x="559.5" y="32" width="40" height="40" rx="4" fill="#674883"/>
<rect x="607.5" y="32" width="40" height="40" rx="4" fill="#563C6C"/>
<path d="M564.242 98L559.805 86.5469H561.445L564.422 94.8672C564.661 95.5339 564.862 96.1589 565.023 96.7422C565.201 96.1172 565.406 95.4922 565.641 94.8672L568.734 86.5469H570.281L565.797 98H564.242ZM571.172 88.1641V86.5469H572.578V88.1641H571.172ZM571.172 98V89.7031H572.578V98H571.172ZM574.203 93.8516C574.203 92.3151 574.63 91.1771 575.484 90.4375C576.198 89.8229 577.068 89.5156 578.094 89.5156C579.234 89.5156 580.167 89.8906 580.891 90.6406C581.615 91.3854 581.977 92.4167 581.977 93.7344C581.977 94.8021 581.815 95.6432 581.492 96.2578C581.174 96.8672 580.708 97.3411 580.094 97.6797C579.484 98.0182 578.818 98.1875 578.094 98.1875C576.932 98.1875 575.992 97.8151 575.273 97.0703C574.56 96.3255 574.203 95.2526 574.203 93.8516ZM575.648 93.8516C575.648 94.9141 575.88 95.7109 576.344 96.2422C576.807 96.7682 577.391 97.0312 578.094 97.0312C578.792 97.0312 579.372 96.7656 579.836 96.2344C580.299 95.7031 580.531 94.8932 580.531 93.8047C580.531 92.7786 580.297 92.0026 579.828 91.4766C579.365 90.9453 578.786 90.6797 578.094 90.6797C577.391 90.6797 576.807 90.9427 576.344 91.4688C575.88 91.9948 575.648 92.7891 575.648 93.8516ZM583.602 98V86.5469H585.008V98H583.602ZM592.875 95.3281L594.328 95.5078C594.099 96.3568 593.674 97.0156 593.055 97.4844C592.435 97.9531 591.643 98.1875 590.68 98.1875C589.466 98.1875 588.503 97.8151 587.789 97.0703C587.081 96.3203 586.727 95.2708 586.727 93.9219C586.727 92.526 587.086 91.4427 587.805 90.6719C588.523 89.901 589.456 89.5156 590.602 89.5156C591.711 89.5156 592.617 89.8932 593.32 90.6484C594.023 91.4036 594.375 92.4661 594.375 93.8359C594.375 93.9193 594.372 94.0443 594.367 94.2109H588.18C588.232 95.1224 588.49 95.8203 588.953 96.3047C589.417 96.7891 589.995 97.0312 590.688 97.0312C591.203 97.0312 591.643 96.8958 592.008 96.625C592.372 96.3542 592.661 95.9219 592.875 95.3281ZM588.258 93.0547H592.891C592.828 92.3568 592.651 91.8333 592.359 91.4844C591.911 90.9427 591.331 90.6719 590.617 90.6719C589.971 90.6719 589.427 90.888 588.984 91.3203C588.547 91.7526 588.305 92.3307 588.258 93.0547ZM599.172 96.7422L599.375 97.9844C598.979 98.0677 598.625 98.1094 598.312 98.1094C597.802 98.1094 597.406 98.0286 597.125 97.8672C596.844 97.7057 596.646 97.4948 596.531 97.2344C596.417 96.9688 596.359 96.4141 596.359 95.5703V90.7969H595.328V89.7031H596.359V87.6484L597.758 86.8047V89.7031H599.172V90.7969H597.758V95.6484C597.758 96.0495 597.781 96.3073 597.828 96.4219C597.88 96.5365 597.961 96.6276 598.07 96.6953C598.185 96.763 598.346 96.7969 598.555 96.7969C598.711 96.7969 598.917 96.7786 599.172 96.7422Z" fill="#3E3E3D"/>
<rect x="711.5" y="32" width="40" height="40" rx="4" fill="#1B8065"/>
<rect x="759.5" y="32" width="40" height="40" rx="4" fill="#176B57"/>
<rect x="807.5" y="32" width="40" height="40" rx="4" fill="#145143"/>
<path d="M749.211 98L744.773 86.5469H746.414L749.391 94.8672C749.63 95.5339 749.831 96.1589 749.992 96.7422C750.169 96.1172 750.375 95.4922 750.609 94.8672L753.703 86.5469H755.25L750.766 98H749.211ZM761.219 95.3281L762.672 95.5078C762.443 96.3568 762.018 97.0156 761.398 97.4844C760.779 97.9531 759.987 98.1875 759.023 98.1875C757.81 98.1875 756.846 97.8151 756.133 97.0703C755.424 96.3203 755.07 95.2708 755.07 93.9219C755.07 92.526 755.43 91.4427 756.148 90.6719C756.867 89.901 757.799 89.5156 758.945 89.5156C760.055 89.5156 760.961 89.8932 761.664 90.6484C762.367 91.4036 762.719 92.4661 762.719 93.8359C762.719 93.9193 762.716 94.0443 762.711 94.2109H756.523C756.576 95.1224 756.833 95.8203 757.297 96.3047C757.76 96.7891 758.339 97.0312 759.031 97.0312C759.547 97.0312 759.987 96.8958 760.352 96.625C760.716 96.3542 761.005 95.9219 761.219 95.3281ZM756.602 93.0547H761.234C761.172 92.3568 760.995 91.8333 760.703 91.4844C760.255 90.9427 759.674 90.6719 758.961 90.6719C758.315 90.6719 757.771 90.888 757.328 91.3203C756.891 91.7526 756.648 92.3307 756.602 93.0547ZM764.43 98V89.7031H765.695V90.9609C766.018 90.3724 766.315 89.9844 766.586 89.7969C766.862 89.6094 767.164 89.5156 767.492 89.5156C767.966 89.5156 768.448 89.6667 768.938 89.9688L768.453 91.2734C768.109 91.0703 767.766 90.9688 767.422 90.9688C767.115 90.9688 766.839 91.0625 766.594 91.25C766.349 91.4323 766.174 91.6875 766.07 92.0156C765.914 92.5156 765.836 93.0625 765.836 93.6562V98H764.43ZM772.844 96.7422L773.047 97.9844C772.651 98.0677 772.297 98.1094 771.984 98.1094C771.474 98.1094 771.078 98.0286 770.797 97.8672C770.516 97.7057 770.318 97.4948 770.203 97.2344C770.089 96.9688 770.031 96.4141 770.031 95.5703V90.7969H769V89.7031H770.031V87.6484L771.43 86.8047V89.7031H772.844V90.7969H771.43V95.6484C771.43 96.0495 771.453 96.3073 771.5 96.4219C771.552 96.5365 771.633 96.6276 771.742 96.6953C771.857 96.763 772.018 96.7969 772.227 96.7969C772.383 96.7969 772.589 96.7786 772.844 96.7422ZM778.938 98V86.5469H786.664V87.8984H780.453V91.4453H785.828V92.7969H780.453V98H778.938ZM787.938 93.8516C787.938 92.3151 788.365 91.1771 789.219 90.4375C789.932 89.8229 790.802 89.5156 791.828 89.5156C792.969 89.5156 793.901 89.8906 794.625 90.6406C795.349 91.3854 795.711 92.4167 795.711 93.7344C795.711 94.8021 795.549 95.6432 795.227 96.2578C794.909 96.8672 794.443 97.3411 793.828 97.6797C793.219 98.0182 792.552 98.1875 791.828 98.1875C790.667 98.1875 789.727 97.8151 789.008 97.0703C788.294 96.3255 787.938 95.2526 787.938 93.8516ZM789.383 93.8516C789.383 94.9141 789.615 95.7109 790.078 96.2422C790.542 96.7682 791.125 97.0312 791.828 97.0312C792.526 97.0312 793.107 96.7656 793.57 96.2344C794.034 95.7031 794.266 94.8932 794.266 93.8047C794.266 92.7786 794.031 92.0026 793.562 91.4766C793.099 90.9453 792.521 90.6797 791.828 90.6797C791.125 90.6797 790.542 90.9427 790.078 91.4688C789.615 91.9948 789.383 92.7891 789.383 93.8516ZM797.352 98V89.7031H798.617V90.9609C798.94 90.3724 799.237 89.9844 799.508 89.7969C799.784 89.6094 800.086 89.5156 800.414 89.5156C800.888 89.5156 801.37 89.6667 801.859 89.9688L801.375 91.2734C801.031 91.0703 800.688 90.9688 800.344 90.9688C800.036 90.9688 799.76 91.0625 799.516 91.25C799.271 91.4323 799.096 91.6875 798.992 92.0156C798.836 92.5156 798.758 93.0625 798.758 93.6562V98H797.352ZM808.375 95.3281L809.828 95.5078C809.599 96.3568 809.174 97.0156 808.555 97.4844C807.935 97.9531 807.143 98.1875 806.18 98.1875C804.966 98.1875 804.003 97.8151 803.289 97.0703C802.581 96.3203 802.227 95.2708 802.227 93.9219C802.227 92.526 802.586 91.4427 803.305 90.6719C804.023 89.901 804.956 89.5156 806.102 89.5156C807.211 89.5156 808.117 89.8932 808.82 90.6484C809.523 91.4036 809.875 92.4661 809.875 93.8359C809.875 93.9193 809.872 94.0443 809.867 94.2109H803.68C803.732 95.1224 803.99 95.8203 804.453 96.3047C804.917 96.7891 805.495 97.0312 806.188 97.0312C806.703 97.0312 807.143 96.8958 807.508 96.625C807.872 96.3542 808.161 95.9219 808.375 95.3281ZM803.758 93.0547H808.391C808.328 92.3568 808.151 91.8333 807.859 91.4844C807.411 90.9427 806.831 90.6719 806.117 90.6719C805.471 90.6719 804.927 90.888 804.484 91.3203C804.047 91.7526 803.805 92.3307 803.758 93.0547ZM814.672 96.7422L814.875 97.9844C814.479 98.0677 814.125 98.1094 813.812 98.1094C813.302 98.1094 812.906 98.0286 812.625 97.8672C812.344 97.7057 812.146 97.4948 812.031 97.2344C811.917 96.9688 811.859 96.4141 811.859 95.5703V90.7969H810.828V89.7031H811.859V87.6484L813.258 86.8047V89.7031H814.672V90.7969H813.258V95.6484C813.258 96.0495 813.281 96.3073 813.328 96.4219C813.38 96.5365 813.461 96.6276 813.57 96.6953C813.685 96.763 813.846 96.7969 814.055 96.7969C814.211 96.7969 814.417 96.7786 814.672 96.7422Z" fill="#3E3E3D"/>
</svg>
