<svg viewBox="0 0 20 20" fill="none" xmlns="http://www.w3.org/2000/svg">
<path d="M9.58333 15.8333H10.4167V14.2917L13.3333 11.375V7.5H6.66667V11.375L9.58333 14.2917V15.8333ZM7.91667 16.6667V15L5.47917 12.5625C5.32639 12.4097 5.20833 12.2326 5.125 12.0312C5.04167 11.8299 5 11.6181 5 11.3958V7.5C5 7.04167 5.16319 6.64931 5.48958 6.32292C5.81597 5.99653 6.20833 5.83333 6.66667 5.83333H7.5L6.66667 6.66667V3.33333C6.66667 3.09722 6.74653 2.89931 6.90625 2.73958C7.06597 2.57986 7.26389 2.5 7.5 2.5C7.73611 2.5 7.93403 2.57986 8.09375 2.73958C8.25347 2.89931 8.33333 3.09722 8.33333 3.33333V5.83333H11.6667V3.33333C11.6667 3.09722 11.7465 2.89931 11.9062 2.73958C12.066 2.57986 12.2639 2.5 12.5 2.5C12.7361 2.5 12.934 2.57986 13.0938 2.73958C13.2535 2.89931 13.3333 3.09722 13.3333 3.33333V6.66667L12.5 5.83333H13.3333C13.7917 5.83333 14.184 5.99653 14.5104 6.32292C14.8368 6.64931 15 7.04167 15 7.5V11.3958C15 11.6181 14.9583 11.8299 14.875 12.0312C14.7917 12.2326 14.6736 12.4097 14.5208 12.5625L12.0833 15V16.6667C12.0833 16.9028 12.0035 17.1007 11.8438 17.2604C11.684 17.4201 11.4861 17.5 11.25 17.5H8.75C8.51389 17.5 8.31597 17.4201 8.15625 17.2604C7.99653 17.1007 7.91667 16.9028 7.91667 16.6667Z" fill="currentColor"/>
</svg>