<svg viewBox="0 0 20 20" fill="none" xmlns="http://www.w3.org/2000/svg">
<path d="M8.54169 16.0417V12.5417L5.50003 14.2917C5.1528 14.4861 4.78475 14.5347 4.39586 14.4375C4.00697 14.3403 3.7153 14.1111 3.52086 13.75C3.32642 13.4028 3.2778 13.0347 3.37503 12.6458C3.47225 12.2569 3.69447 11.9653 4.04169 11.7708L7.08336 10L4.04169 8.25C3.69447 8.05556 3.47225 7.76042 3.37503 7.36458C3.2778 6.96875 3.32642 6.59722 3.52086 6.25C3.7153 5.90278 4.00697 5.68056 4.39586 5.58333C4.78475 5.48611 5.1528 5.53472 5.50003 5.72917L8.54169 7.47917V3.95833C8.54169 3.55556 8.68406 3.21181 8.96878 2.92708C9.2535 2.64236 9.59725 2.5 10 2.5C10.4028 2.5 10.7466 2.64236 11.0313 2.92708C11.316 3.21181 11.4584 3.55556 11.4584 3.95833V7.47917L14.5 5.72917C14.8472 5.53472 15.2153 5.48611 15.6042 5.58333C15.9931 5.68056 16.2847 5.90278 16.4792 6.25C16.6736 6.59722 16.7188 6.96875 16.6146 7.36458C16.5104 7.76042 16.2847 8.05556 15.9375 8.25L12.9167 10L15.9584 11.7708C16.3056 11.9653 16.5278 12.2569 16.625 12.6458C16.7222 13.0347 16.6736 13.4097 16.4792 13.7708C16.2847 14.1181 15.9931 14.3403 15.6042 14.4375C15.2153 14.5347 14.8472 14.4861 14.5 14.2917L11.4584 12.5417V16.0417C11.4584 16.4444 11.316 16.7882 11.0313 17.0729C10.7466 17.3576 10.4028 17.5 10 17.5C9.59725 17.5 9.2535 17.3576 8.96878 17.0729C8.68406 16.7882 8.54169 16.4444 8.54169 16.0417Z" fill="currentColor"/>
</svg>