<svg width="712" height="104" viewBox="0 0 712 104" fill="none" xmlns="http://www.w3.org/2000/svg">
<rect x="0.5" y="0.5" width="711" height="103" rx="7.5" fill="white"/>
<rect x="0.5" y="0.5" width="711" height="103" rx="7.5" stroke="#CDCCCB"/>
<path d="M150.501 63.224C150.095 63.224 149.786 63.1173 149.573 62.904C149.359 62.6693 149.253 62.3387 149.253 61.912V41.56C149.253 41.1333 149.359 40.8027 149.573 40.568C149.786 40.3333 150.063 40.216 150.405 40.216C150.746 40.216 150.991 40.28 151.141 40.408C151.311 40.5147 151.503 40.7173 151.717 41.016L165.669 59.608H164.901V41.496C164.901 41.0907 165.007 40.7813 165.221 40.568C165.434 40.3333 165.743 40.216 166.149 40.216C166.533 40.216 166.821 40.3333 167.013 40.568C167.226 40.7813 167.333 41.0907 167.333 41.496V61.944C167.333 62.3493 167.237 62.6693 167.045 62.904C166.874 63.1173 166.618 63.224 166.277 63.224C165.957 63.224 165.701 63.16 165.509 63.032C165.317 62.904 165.114 62.7013 164.901 62.424L150.981 43.832H151.717V61.912C151.717 62.3387 151.61 62.6693 151.397 62.904C151.183 63.1173 150.885 63.224 150.501 63.224ZM177.092 63.288C175.834 63.288 174.788 63.064 173.956 62.616C173.146 62.1467 172.527 61.4533 172.1 60.536C171.695 59.6187 171.492 58.4773 171.492 57.112V48.536C171.492 48.088 171.599 47.7573 171.812 47.544C172.047 47.3307 172.367 47.224 172.772 47.224C173.199 47.224 173.519 47.3307 173.732 47.544C173.967 47.7573 174.084 48.088 174.084 48.536V57.08C174.084 58.4453 174.362 59.4693 174.916 60.152C175.492 60.8133 176.388 61.144 177.604 61.144C178.927 61.144 180.004 60.696 180.836 59.8C181.668 58.904 182.084 57.7307 182.084 56.28V48.536C182.084 48.088 182.191 47.7573 182.404 47.544C182.639 47.3307 182.97 47.224 183.396 47.224C183.802 47.224 184.111 47.3307 184.324 47.544C184.559 47.7573 184.676 48.088 184.676 48.536V61.88C184.676 62.776 184.26 63.224 183.428 63.224C183.023 63.224 182.703 63.1067 182.468 62.872C182.255 62.6373 182.148 62.3067 182.148 61.88V58.968L182.564 59.416C182.138 60.6747 181.434 61.6347 180.452 62.296C179.492 62.9573 178.372 63.288 177.092 63.288ZM189.806 63.224C189.379 63.224 189.059 63.1067 188.846 62.872C188.632 62.6373 188.526 62.3067 188.526 61.88V48.536C188.526 48.1093 188.632 47.7893 188.846 47.576C189.059 47.3413 189.368 47.224 189.774 47.224C190.179 47.224 190.488 47.3413 190.702 47.576C190.936 47.7893 191.054 48.1093 191.054 48.536V51.288L190.702 50.904C191.15 49.6667 191.875 48.7387 192.878 48.12C193.902 47.48 195.075 47.16 196.398 47.16C197.635 47.16 198.659 47.384 199.47 47.832C200.302 48.28 200.92 48.9627 201.326 49.88C201.731 50.776 201.934 51.9173 201.934 53.304V61.88C201.934 62.3067 201.816 62.6373 201.582 62.872C201.368 63.1067 201.059 63.224 200.654 63.224C200.227 63.224 199.896 63.1067 199.662 62.872C199.448 62.6373 199.342 62.3067 199.342 61.88V53.464C199.342 52.0133 199.054 50.9573 198.478 50.296C197.923 49.6133 197.027 49.272 195.79 49.272C194.36 49.272 193.219 49.72 192.366 50.616C191.534 51.4907 191.118 52.664 191.118 54.136V61.88C191.118 62.776 190.68 63.224 189.806 63.224ZM206.993 63.16C206.567 63.16 206.247 63.0427 206.033 62.808C205.82 62.552 205.713 62.2 205.713 61.752V48.664C205.713 48.216 205.82 47.8747 206.033 47.64C206.247 47.4053 206.567 47.288 206.993 47.288C207.399 47.288 207.719 47.4053 207.953 47.64C208.188 47.8747 208.305 48.216 208.305 48.664V61.752C208.305 62.2 208.188 62.552 207.953 62.808C207.74 63.0427 207.42 63.16 206.993 63.16ZM206.993 43.704C206.46 43.704 206.044 43.5653 205.745 43.288C205.447 42.9893 205.297 42.5947 205.297 42.104C205.297 41.592 205.447 41.208 205.745 40.952C206.044 40.6747 206.46 40.536 206.993 40.536C207.548 40.536 207.964 40.6747 208.241 40.952C208.54 41.208 208.689 41.592 208.689 42.104C208.689 42.5947 208.54 42.9893 208.241 43.288C207.964 43.5653 207.548 43.704 206.993 43.704ZM218.391 63.288C217.175 63.288 216.151 63.0747 215.319 62.648C214.508 62.2 213.9 61.56 213.495 60.728C213.089 59.8747 212.887 58.84 212.887 57.624V49.464H210.743C210.38 49.464 210.103 49.3787 209.911 49.208C209.719 49.016 209.623 48.76 209.623 48.44C209.623 48.12 209.719 47.8747 209.911 47.704C210.103 47.5333 210.38 47.448 210.743 47.448H212.887V43.768C212.887 43.3413 213.004 43.0213 213.239 42.808C213.473 42.5733 213.793 42.456 214.199 42.456C214.604 42.456 214.913 42.5733 215.127 42.808C215.361 43.0213 215.479 43.3413 215.479 43.768V47.448H219.511C219.873 47.448 220.151 47.5333 220.343 47.704C220.535 47.8747 220.631 48.12 220.631 48.44C220.631 48.76 220.535 49.016 220.343 49.208C220.151 49.3787 219.873 49.464 219.511 49.464H215.479V57.368C215.479 58.584 215.735 59.512 216.247 60.152C216.759 60.7707 217.591 61.08 218.743 61.08C219.148 61.08 219.489 61.0373 219.767 60.952C220.065 60.8667 220.311 60.824 220.503 60.824C220.695 60.8027 220.855 60.8667 220.983 61.016C221.111 61.1653 221.175 61.4213 221.175 61.784C221.175 62.04 221.121 62.2747 221.015 62.488C220.929 62.7013 220.769 62.8507 220.535 62.936C220.279 63.0213 219.937 63.096 219.511 63.16C219.105 63.2453 218.732 63.288 218.391 63.288ZM228.646 63.288C227.131 63.288 225.819 62.9573 224.71 62.296C223.601 61.6347 222.737 60.7067 222.118 59.512C221.521 58.296 221.222 56.8667 221.222 55.224C221.222 53.9867 221.393 52.8773 221.734 51.896C222.075 50.8933 222.577 50.04 223.238 49.336C223.899 48.632 224.678 48.0987 225.574 47.736C226.491 47.352 227.515 47.16 228.646 47.16C230.161 47.16 231.473 47.4907 232.582 48.152C233.691 48.8133 234.545 49.752 235.142 50.968C235.761 52.1627 236.07 53.5813 236.07 55.224C236.07 56.4613 235.899 57.5707 235.558 58.552C235.217 59.5333 234.715 60.3867 234.054 61.112C233.393 61.816 232.603 62.36 231.686 62.744C230.79 63.1067 229.777 63.288 228.646 63.288ZM228.646 61.208C229.606 61.208 230.449 60.9733 231.174 60.504C231.899 60.0347 232.454 59.352 232.838 58.456C233.243 57.56 233.446 56.4827 233.446 55.224C233.446 53.2827 233.009 51.8 232.134 50.776C231.281 49.752 230.118 49.24 228.646 49.24C227.665 49.24 226.811 49.4747 226.086 49.944C225.382 50.392 224.827 51.064 224.422 51.96C224.038 52.8347 223.846 53.9227 223.846 55.224C223.846 57.144 224.283 58.6267 225.158 59.672C226.033 60.696 227.195 61.208 228.646 61.208Z" fill="#201F1F"/>
<path d="M489.922 63L498.719 40.0938H501.984L511.359 63H507.906L505.234 56.0625H495.656L493.141 63H489.922ZM496.531 53.5938H504.297L501.906 47.25C501.177 45.3229 500.635 43.7396 500.281 42.5C499.99 43.9688 499.578 45.4271 499.047 46.875L496.531 53.5938ZM512.391 63V46.4062H514.922V48.9219C515.568 47.7448 516.161 46.9688 516.703 46.5938C517.255 46.2188 517.859 46.0312 518.516 46.0312C519.464 46.0312 520.427 46.3333 521.406 46.9375L520.438 49.5469C519.75 49.1406 519.062 48.9375 518.375 48.9375C517.76 48.9375 517.208 49.125 516.719 49.5C516.229 49.8646 515.88 50.375 515.672 51.0312C515.359 52.0312 515.203 53.125 515.203 54.3125V63H512.391ZM522.094 43.3281V40.0938H524.906V43.3281H522.094ZM522.094 63V46.4062H524.906V63H522.094ZM539.031 60.9531C537.99 61.8385 536.984 62.4635 536.016 62.8281C535.057 63.1927 534.026 63.375 532.922 63.375C531.099 63.375 529.698 62.9323 528.719 62.0469C527.74 61.151 527.25 60.0104 527.25 58.625C527.25 57.8125 527.432 57.0729 527.797 56.4062C528.172 55.7292 528.656 55.1875 529.25 54.7812C529.854 54.375 530.531 54.0677 531.281 53.8594C531.833 53.7135 532.667 53.5729 533.781 53.4375C536.052 53.1667 537.724 52.8438 538.797 52.4688C538.807 52.0833 538.812 51.8385 538.812 51.7344C538.812 50.5885 538.547 49.7812 538.016 49.3125C537.297 48.6771 536.229 48.3594 534.812 48.3594C533.49 48.3594 532.51 48.5938 531.875 49.0625C531.25 49.5208 530.786 50.3385 530.484 51.5156L527.734 51.1406C527.984 49.9635 528.396 49.0156 528.969 48.2969C529.542 47.5677 530.37 47.0104 531.453 46.625C532.536 46.2292 533.792 46.0312 535.219 46.0312C536.635 46.0312 537.786 46.1979 538.672 46.5312C539.557 46.8646 540.208 47.2865 540.625 47.7969C541.042 48.2969 541.333 48.9323 541.5 49.7031C541.594 50.1823 541.641 51.0469 541.641 52.2969V56.0469C541.641 58.6615 541.698 60.3177 541.812 61.0156C541.938 61.7031 542.177 62.3646 542.531 63H539.594C539.302 62.4167 539.115 61.7344 539.031 60.9531ZM538.797 54.6719C537.776 55.0885 536.245 55.4427 534.203 55.7344C533.047 55.901 532.229 56.0885 531.75 56.2969C531.271 56.5052 530.901 56.8125 530.641 57.2188C530.38 57.6146 530.25 58.0573 530.25 58.5469C530.25 59.2969 530.531 59.9219 531.094 60.4219C531.667 60.9219 532.5 61.1719 533.594 61.1719C534.677 61.1719 535.641 60.9375 536.484 60.4688C537.328 59.9896 537.948 59.3385 538.344 58.5156C538.646 57.8802 538.797 56.9427 538.797 55.7031V54.6719ZM544.953 63V40.0938H547.766V63H544.953Z" fill="#201F1F"/>
</svg>
