<svg viewBox="0 0 20 20" fill="none" xmlns="http://www.w3.org/2000/svg">
<path d="M9.99984 15.8334C10.3471 15.8334 10.6422 15.7118 10.8853 15.4688C11.1283 15.2257 11.2498 14.9306 11.2498 14.5834H8.74984C8.74984 14.9306 8.87136 15.2257 9.11442 15.4688C9.35748 15.7118 9.65261 15.8334 9.99984 15.8334ZM8.12484 13.75H11.8748C12.0554 13.75 12.2047 13.691 12.3228 13.5729C12.4408 13.4549 12.4998 13.3056 12.4998 13.125C12.4998 12.9445 12.4408 12.7952 12.3228 12.6771C12.2047 12.559 12.0554 12.5 11.8748 12.5H8.12484C7.94428 12.5 7.79498 12.559 7.67692 12.6771C7.55886 12.7952 7.49984 12.9445 7.49984 13.125C7.49984 13.3056 7.55886 13.4549 7.67692 13.5729C7.79498 13.691 7.94428 13.75 8.12484 13.75ZM7.52067 11.6667H12.479C12.9929 11.2917 13.4026 10.816 13.7082 10.2396C14.0137 9.66321 14.1665 9.0278 14.1665 8.33335C14.1665 7.18058 13.7603 6.19794 12.9478 5.38544C12.1353 4.57294 11.1526 4.16669 9.99984 4.16669C8.84706 4.16669 7.86442 4.57294 7.05192 5.38544C6.23942 6.19794 5.83317 7.18058 5.83317 8.33335C5.83317 9.0278 5.98595 9.66321 6.2915 10.2396C6.59706 10.816 7.00678 11.2917 7.52067 11.6667ZM7.979 10.4167C7.70123 10.1389 7.48248 9.82294 7.32275 9.46877C7.16303 9.1146 7.08317 8.73613 7.08317 8.33335C7.08317 7.5278 7.36789 6.8403 7.93734 6.27085C8.50678 5.70141 9.19428 5.41669 9.99984 5.41669C10.8054 5.41669 11.4929 5.70141 12.0623 6.27085C12.6318 6.8403 12.9165 7.5278 12.9165 8.33335C12.9165 8.73613 12.8366 9.1146 12.6769 9.46877C12.5172 9.82294 12.2984 10.1389 12.0207 10.4167H7.979ZM9.99984 18.3334C8.84706 18.3334 7.76373 18.1146 6.74984 17.6771C5.73595 17.2396 4.854 16.6459 4.104 15.8959C3.354 15.1459 2.76025 14.2639 2.32275 13.25C1.88525 12.2361 1.6665 11.1528 1.6665 10C1.6665 8.84724 1.88525 7.76391 2.32275 6.75002C2.76025 5.73613 3.354 4.85419 4.104 4.10419C4.854 3.35419 5.73595 2.76044 6.74984 2.32294C7.76373 1.88544 8.84706 1.66669 9.99984 1.66669C11.1526 1.66669 12.2359 1.88544 13.2498 2.32294C14.2637 2.76044 15.1457 3.35419 15.8957 4.10419C16.6457 4.85419 17.2394 5.73613 17.6769 6.75002C18.1144 7.76391 18.3332 8.84724 18.3332 10C18.3332 11.1528 18.1144 12.2361 17.6769 13.25C17.2394 14.2639 16.6457 15.1459 15.8957 15.8959C15.1457 16.6459 14.2637 17.2396 13.2498 17.6771C12.2359 18.1146 11.1526 18.3334 9.99984 18.3334ZM9.99984 16.6667C11.8609 16.6667 13.4373 16.0209 14.729 14.7292C16.0207 13.4375 16.6665 11.8611 16.6665 10C16.6665 8.13891 16.0207 6.56252 14.729 5.27085C13.4373 3.97919 11.8609 3.33335 9.99984 3.33335C8.13873 3.33335 6.56234 3.97919 5.27067 5.27085C3.979 6.56252 3.33317 8.13891 3.33317 10C3.33317 11.8611 3.979 13.4375 5.27067 14.7292C6.56234 16.0209 8.13873 16.6667 9.99984 16.6667Z" fill="currentColor"/>
</svg>