<svg viewBox="0 0 20 20" fill="none" xmlns="http://www.w3.org/2000/svg">
<path d="M7.5 17.4583V16.2083C6.02778 15.6944 4.82639 14.7951 3.89583 13.5104C2.96528 12.2257 2.5 10.7639 2.5 9.125C2.5 8.08333 2.69792 7.10764 3.09375 6.19792C3.48958 5.28819 4.02431 4.49653 4.69792 3.82292C5.37153 3.14931 6.16319 2.61458 7.07292 2.21875C7.98264 1.82292 8.95139 1.625 9.97917 1.625C11.0069 1.625 11.9792 1.82292 12.8958 2.21875C13.8125 2.61458 14.6111 3.14931 15.2917 3.82292C15.9722 4.49653 16.5104 5.28819 16.9062 6.19792C17.3021 7.10764 17.5 8.08333 17.5 9.125C17.5 10.7639 17.0312 12.2187 16.0938 13.4896C15.1562 14.7604 13.9583 15.6597 12.5 16.1875V17.4583C12.5 17.6944 12.4201 17.8924 12.2604 18.0521C12.1007 18.2118 11.9028 18.2917 11.6667 18.2917C11.4306 18.2917 11.2326 18.2118 11.0729 18.0521C10.9132 17.8924 10.8333 17.6944 10.8333 17.4583V16.5833C10.6944 16.6111 10.5556 16.625 10.4167 16.625H9.97917C9.84028 16.625 9.70486 16.6215 9.57292 16.6146C9.44097 16.6076 9.30556 16.5972 9.16667 16.5833V17.4583C9.16667 17.6944 9.08681 17.8924 8.92708 18.0521C8.76736 18.2118 8.56944 18.2917 8.33333 18.2917C8.09722 18.2917 7.89931 18.2118 7.73958 18.0521C7.57986 17.8924 7.5 17.6944 7.5 17.4583ZM7.5 7.5H12.5C12.7361 7.5 12.934 7.42014 13.0938 7.26042C13.2535 7.10069 13.3333 6.90278 13.3333 6.66667C13.3333 6.43056 13.2535 6.23264 13.0938 6.07292C12.934 5.91319 12.7361 5.83333 12.5 5.83333H7.5C7.26389 5.83333 7.06597 5.91319 6.90625 6.07292C6.74653 6.23264 6.66667 6.43056 6.66667 6.66667C6.66667 6.90278 6.74653 7.10069 6.90625 7.26042C7.06597 7.42014 7.26389 7.5 7.5 7.5ZM9.16667 11.875L8.75 12.2917C8.56944 12.4722 8.47917 12.6806 8.47917 12.9167C8.47917 13.1528 8.56944 13.3611 8.75 13.5417C8.93056 13.7222 9.13889 13.8125 9.375 13.8125C9.61111 13.8125 9.81944 13.7222 10 13.5417L11.2917 12.25C11.4583 12.0833 11.5417 11.8889 11.5417 11.6667C11.5417 11.4444 11.4583 11.25 11.2917 11.0833L10.8333 10.625L11.25 10.2083C11.4306 10.0278 11.5208 9.81944 11.5208 9.58333C11.5208 9.34722 11.4306 9.13889 11.25 8.95833C11.0694 8.77778 10.8611 8.6875 10.625 8.6875C10.3889 8.6875 10.1806 8.77778 10 8.95833L8.70833 10.25C8.54167 10.4167 8.45833 10.6111 8.45833 10.8333C8.45833 11.0556 8.54167 11.25 8.70833 11.4167L9.16667 11.875Z" fill="currentColor"/>
</svg>