<svg viewBox="0 0 20 20" fill="none" xmlns="http://www.w3.org/2000/svg">
<path d="M10 8.33333C9.76389 8.33333 9.56597 8.41319 9.40625 8.57292C9.24653 8.73264 9.16667 8.93056 9.16667 9.16667V11.8333L8.41667 11.0833C8.26389 10.9306 8.06944 10.8542 7.83333 10.8542C7.59722 10.8542 7.40278 10.9306 7.25 11.0833C7.09722 11.2361 7.02083 11.4306 7.02083 11.6667C7.02083 11.9028 7.09722 12.0972 7.25 12.25L9.41667 14.4167C9.58333 14.5833 9.77778 14.6667 10 14.6667C10.2222 14.6667 10.4167 14.5833 10.5833 14.4167L12.75 12.25C12.9028 12.0972 12.9792 11.9028 12.9792 11.6667C12.9792 11.4306 12.9028 11.2361 12.75 11.0833C12.5972 10.9306 12.4028 10.8542 12.1667 10.8542C11.9306 10.8542 11.7361 10.9306 11.5833 11.0833L10.8333 11.8333V9.16667C10.8333 8.93056 10.7535 8.73264 10.5938 8.57292C10.434 8.41319 10.2361 8.33333 10 8.33333ZM4.16667 6.66667V15.8333H15.8333V6.66667H4.16667ZM4.16667 17.5C3.70833 17.5 3.31597 17.3368 2.98958 17.0104C2.66319 16.684 2.5 16.2917 2.5 15.8333V5.4375C2.5 5.24306 2.53125 5.05556 2.59375 4.875C2.65625 4.69444 2.75 4.52778 2.875 4.375L3.91667 3.10417C4.06944 2.90972 4.26042 2.76042 4.48958 2.65625C4.71875 2.55208 4.95833 2.5 5.20833 2.5H14.7917C15.0417 2.5 15.2812 2.55208 15.5104 2.65625C15.7396 2.76042 15.9306 2.90972 16.0833 3.10417L17.125 4.375C17.25 4.52778 17.3438 4.69444 17.4062 4.875C17.4688 5.05556 17.5 5.24306 17.5 5.4375V15.8333C17.5 16.2917 17.3368 16.684 17.0104 17.0104C16.684 17.3368 16.2917 17.5 15.8333 17.5H4.16667ZM4.5 5H15.5L14.7917 4.16667H5.20833L4.5 5Z" fill="currentColor"/>
</svg>