<svg viewBox="0 0 20 20" fill="none" xmlns="http://www.w3.org/2000/svg">
<path d="M14.6041 8.85419C14.7986 8.72919 14.8958 8.55558 14.8958 8.33335C14.8958 8.11113 14.7986 7.93752 14.6041 7.81252L10.5416 5.20835C10.3333 5.06946 10.1215 5.05905 9.90621 5.1771C9.69093 5.29516 9.58329 5.47919 9.58329 5.72919V10.9375C9.58329 11.1875 9.69093 11.3715 9.90621 11.4896C10.1215 11.6077 10.3333 11.5972 10.5416 11.4584L14.6041 8.85419ZM6.66663 15C6.20829 15 5.81593 14.8368 5.48954 14.5104C5.16315 14.184 4.99996 13.7917 4.99996 13.3334V3.33335C4.99996 2.87502 5.16315 2.48266 5.48954 2.15627C5.81593 1.82988 6.20829 1.66669 6.66663 1.66669H16.6666C17.125 1.66669 17.5173 1.82988 17.8437 2.15627C18.1701 2.48266 18.3333 2.87502 18.3333 3.33335V13.3334C18.3333 13.7917 18.1701 14.184 17.8437 14.5104C17.5173 14.8368 17.125 15 16.6666 15H6.66663ZM3.33329 18.3334C2.87496 18.3334 2.4826 18.1702 2.15621 17.8438C1.82982 17.5174 1.66663 17.125 1.66663 16.6667V5.83335C1.66663 5.59724 1.74649 5.39933 1.90621 5.2396C2.06593 5.07988 2.26385 5.00002 2.49996 5.00002C2.73607 5.00002 2.93399 5.07988 3.09371 5.2396C3.25343 5.39933 3.33329 5.59724 3.33329 5.83335V16.6667H14.1666C14.4027 16.6667 14.6007 16.7465 14.7604 16.9063C14.9201 17.066 15 17.2639 15 17.5C15 17.7361 14.9201 17.934 14.7604 18.0938C14.6007 18.2535 14.4027 18.3334 14.1666 18.3334H3.33329Z" fill="currentColor"/>
</svg>