<svg viewBox="0 0 20 20" fill="none" xmlns="http://www.w3.org/2000/svg">
<path d="M17.5 13.3333L11.0208 8.27084C10.6458 7.97917 10.2257 7.86459 9.76042 7.92709C9.29514 7.98959 8.92361 8.21528 8.64583 8.60417L6.85417 11.0625C6.71528 11.2569 6.53125 11.3715 6.30208 11.4063C6.07292 11.441 5.86111 11.3819 5.66667 11.2292L2.5 8.75V7.5C2.5 7.15278 2.65278 6.90278 2.95833 6.75C3.26389 6.59722 3.55556 6.625 3.83333 6.83334L5.83333 8.33334L8.97917 3.9375C9.25694 3.54861 9.63194 3.31945 10.1042 3.25C10.5764 3.18056 11 3.29861 11.375 3.60417L14.1667 5.83334H15.8333C16.2917 5.83334 16.684 5.99653 17.0104 6.32292C17.3368 6.64931 17.5 7.04167 17.5 7.5V13.3333ZM2.5 16.6667V10.8333L5.3125 13.0833C5.6875 13.3889 6.10764 13.5069 6.57292 13.4375C7.03819 13.3681 7.40972 13.1389 7.6875 12.75L9.5 10.2708C9.63889 10.0764 9.82292 9.96181 10.0521 9.92709C10.2812 9.89236 10.4931 9.95139 10.6875 10.1042L17.5 15.4375V16.6667H2.5Z" fill="currentColor"/>
</svg>