<svg viewBox="0 0 20 20" fill="none" xmlns="http://www.w3.org/2000/svg">
<path d="M9.12502 10.5833L7.91669 9.39581C7.76391 9.24303 7.57294 9.16664 7.34377 9.16664C7.1146 9.16664 6.91669 9.24998 6.75002 9.41664C6.59724 9.56942 6.52085 9.76386 6.52085 9.99998C6.52085 10.2361 6.59724 10.4305 6.75002 10.5833L8.54169 12.375C8.70835 12.5416 8.9028 12.625 9.12502 12.625C9.34724 12.625 9.54169 12.5416 9.70835 12.375L13.25 8.83331C13.4167 8.66664 13.4965 8.4722 13.4896 8.24998C13.4827 8.02775 13.4028 7.83331 13.25 7.66664C13.0834 7.49998 12.8854 7.41317 12.6563 7.40623C12.4271 7.39928 12.2292 7.47914 12.0625 7.64581L9.12502 10.5833ZM6.79169 18.125L5.58335 16.0833L3.29169 15.5833C3.08335 15.5416 2.91669 15.434 2.79169 15.2604C2.66669 15.0868 2.61808 14.8958 2.64585 14.6875L2.87502 12.3333L1.31252 10.5416C1.17363 10.3889 1.10419 10.2083 1.10419 9.99998C1.10419 9.79164 1.17363 9.61109 1.31252 9.45831L2.87502 7.66664L2.64585 5.31248C2.61808 5.10414 2.66669 4.91317 2.79169 4.73956C2.91669 4.56595 3.08335 4.45831 3.29169 4.41664L5.58335 3.91664L6.79169 1.87498C6.9028 1.69442 7.05558 1.57289 7.25002 1.51039C7.44447 1.44789 7.63891 1.45831 7.83335 1.54164L10 2.45831L12.1667 1.54164C12.3611 1.45831 12.5556 1.44789 12.75 1.51039C12.9445 1.57289 13.0972 1.69442 13.2084 1.87498L14.4167 3.91664L16.7084 4.41664C16.9167 4.45831 17.0834 4.56595 17.2084 4.73956C17.3334 4.91317 17.382 5.10414 17.3542 5.31248L17.125 7.66664L18.6875 9.45831C18.8264 9.61109 18.8959 9.79164 18.8959 9.99998C18.8959 10.2083 18.8264 10.3889 18.6875 10.5416L17.125 12.3333L17.3542 14.6875C17.382 14.8958 17.3334 15.0868 17.2084 15.2604C17.0834 15.434 16.9167 15.5416 16.7084 15.5833L14.4167 16.0833L13.2084 18.125C13.0972 18.3055 12.9445 18.4271 12.75 18.4896C12.5556 18.5521 12.3611 18.5416 12.1667 18.4583L10 17.5416L7.83335 18.4583C7.63891 18.5416 7.44447 18.5521 7.25002 18.4896C7.05558 18.4271 6.9028 18.3055 6.79169 18.125ZM7.87502 16.625L10 15.7083L12.1667 16.625L13.3334 14.625L15.625 14.0833L15.4167 11.75L16.9584 9.99998L15.4167 8.20831L15.625 5.87498L13.3334 5.37498L12.125 3.37498L10 4.29164L7.83335 3.37498L6.66669 5.37498L4.37502 5.87498L4.58335 8.20831L3.04169 9.99998L4.58335 11.75L4.37502 14.125L6.66669 14.625L7.87502 16.625Z" fill="currentColor"/>
</svg>