<svg viewBox="0 0 20 20" fill="none" xmlns="http://www.w3.org/2000/svg">
<path d="M4.16675 10H1.66675" stroke="currentColor" stroke-width="1.5" stroke-linecap="round" stroke-linejoin="round"/>
<path d="M15.8333 10H18.3333" stroke="currentColor" stroke-width="1.5" stroke-linecap="round" stroke-linejoin="round"/>
<path fill-rule="evenodd" clip-rule="evenodd" d="M10 3.41699C10.8644 3.41702 11.7209 3.5872 12.5195 3.91797C13.318 4.24875 14.0441 4.73364 14.6553 5.34473C15.2665 5.95599 15.7522 6.68284 16.083 7.48145C16.4136 8.27981 16.5839 9.13591 16.584 10C16.5839 10.8643 16.4137 11.721 16.083 12.5195C15.7522 13.3182 15.2665 14.044 14.6553 14.6553C14.044 15.2665 13.3182 15.7522 12.5195 16.083C11.721 16.4137 10.8644 16.584 10 16.584C9.13589 16.5839 8.27982 16.4136 7.48145 16.083C6.68284 15.7522 5.95599 15.2665 5.34473 14.6553C4.73366 14.0441 4.24875 13.318 3.91797 12.5195C3.58721 11.721 3.41704 10.8644 3.41699 10C3.41703 9.13581 3.58734 8.27989 3.91797 7.48145C4.2488 6.68274 4.73343 5.95604 5.34473 5.34473C5.95605 4.73341 6.68272 4.24881 7.48145 3.91797C8.27992 3.58731 9.13577 3.41703 10 3.41699ZM11.8896 7.10352C11.7686 7.10352 11.6576 7.1373 11.5576 7.20605C11.4577 7.2748 11.3891 7.3721 11.3516 7.49707L10.0205 11.5098L8.98926 8.26562L8.74512 7.51562C8.70761 7.39067 8.63728 7.2908 8.53418 7.21582C8.43108 7.14086 8.3164 7.10352 8.19043 7.10352C7.97283 7.1036 7.8017 7.18778 7.67676 7.35645C7.55183 7.52512 7.52666 7.70928 7.60156 7.90918L9.20215 12.374C9.24752 12.4975 9.3252 12.6004 9.43457 12.6816C9.54375 12.7627 9.66395 12.8026 9.79492 12.8027H10.2441C10.3823 12.8027 10.5051 12.7654 10.6113 12.6904C10.7174 12.6155 10.7958 12.5094 10.8457 12.3721L12.4326 7.87695C12.4995 7.6862 12.4749 7.50918 12.3594 7.34668C12.2439 7.18443 12.0874 7.10359 11.8896 7.10352Z" fill="currentColor"/>
</svg>
