<svg viewBox="0 0 20 20" fill="none" xmlns="http://www.w3.org/2000/svg">
<path d="M0.833252 14.3333C0.833252 13.8611 0.95478 13.4271 1.19784 13.0312C1.44089 12.6354 1.76381 12.3333 2.16659 12.125C3.0277 11.6944 3.9027 11.3715 4.79159 11.1562C5.68047 10.941 6.58325 10.8333 7.49992 10.8333C8.41659 10.8333 9.31936 10.941 10.2083 11.1562C11.0971 11.3715 11.9721 11.6944 12.8333 12.125C13.236 12.3333 13.5589 12.6354 13.802 13.0312C14.0451 13.4271 14.1666 13.8611 14.1666 14.3333V15C14.1666 15.4583 14.0034 15.8507 13.677 16.1771C13.3506 16.5035 12.9583 16.6666 12.4999 16.6666H2.49992C2.04159 16.6666 1.64922 16.5035 1.32284 16.1771C0.996446 15.8507 0.833252 15.4583 0.833252 15V14.3333ZM17.4999 16.6666H15.3749C15.5277 16.4166 15.6423 16.1493 15.7187 15.8646C15.7951 15.5798 15.8333 15.2916 15.8333 15V14.1666C15.8333 13.5555 15.6631 12.9687 15.3228 12.4062C14.9826 11.8437 14.4999 11.3611 13.8749 10.9583C14.5833 11.0416 15.2499 11.184 15.8749 11.3854C16.4999 11.5868 17.0833 11.8333 17.6249 12.125C18.1249 12.4028 18.5069 12.7118 18.7708 13.0521C19.0346 13.3923 19.1666 13.7639 19.1666 14.1666V15C19.1666 15.4583 19.0034 15.8507 18.677 16.1771C18.3506 16.5035 17.9583 16.6666 17.4999 16.6666ZM7.49992 9.99998C6.58325 9.99998 5.79853 9.67359 5.14575 9.02081C4.49297 8.36804 4.16659 7.58331 4.16659 6.66665C4.16659 5.74998 4.49297 4.96526 5.14575 4.31248C5.79853 3.6597 6.58325 3.33331 7.49992 3.33331C8.41659 3.33331 9.20131 3.6597 9.85409 4.31248C10.5069 4.96526 10.8333 5.74998 10.8333 6.66665C10.8333 7.58331 10.5069 8.36804 9.85409 9.02081C9.20131 9.67359 8.41659 9.99998 7.49992 9.99998ZM15.8333 6.66665C15.8333 7.58331 15.5069 8.36804 14.8541 9.02081C14.2013 9.67359 13.4166 9.99998 12.4999 9.99998C12.3471 9.99998 12.1527 9.98262 11.9166 9.9479C11.6805 9.91317 11.486 9.87498 11.3333 9.83331C11.7083 9.38887 11.9964 8.89581 12.1978 8.35415C12.3992 7.81248 12.4999 7.24998 12.4999 6.66665C12.4999 6.08331 12.3992 5.52081 12.1978 4.97915C11.9964 4.43748 11.7083 3.94442 11.3333 3.49998C11.5277 3.43054 11.7221 3.3854 11.9166 3.36456C12.111 3.34373 12.3055 3.33331 12.4999 3.33331C13.4166 3.33331 14.2013 3.6597 14.8541 4.31248C15.5069 4.96526 15.8333 5.74998 15.8333 6.66665ZM2.49992 15H12.4999V14.3333C12.4999 14.1805 12.4617 14.0416 12.3853 13.9166C12.3089 13.7916 12.2083 13.6944 12.0833 13.625C11.3333 13.25 10.5763 12.9687 9.81242 12.7812C9.04853 12.5937 8.2777 12.5 7.49992 12.5C6.72214 12.5 5.95131 12.5937 5.18742 12.7812C4.42353 12.9687 3.66659 13.25 2.91659 13.625C2.79159 13.6944 2.69089 13.7916 2.6145 13.9166C2.53811 14.0416 2.49992 14.1805 2.49992 14.3333V15ZM7.49992 8.33331C7.95825 8.33331 8.35061 8.17012 8.677 7.84373C9.00339 7.51734 9.16659 7.12498 9.16659 6.66665C9.16659 6.20831 9.00339 5.81595 8.677 5.48956C8.35061 5.16317 7.95825 4.99998 7.49992 4.99998C7.04159 4.99998 6.64922 5.16317 6.32284 5.48956C5.99645 5.81595 5.83325 6.20831 5.83325 6.66665C5.83325 7.12498 5.99645 7.51734 6.32284 7.84373C6.64922 8.17012 7.04159 8.33331 7.49992 8.33331Z" fill="currentColor"/>
</svg>