<svg viewBox="0 0 20 20" fill="none" xmlns="http://www.w3.org/2000/svg">
<path d="M9.16667 18.2917V17.4583C7.43056 17.2639 5.94097 16.5451 4.69792 15.3021C3.45486 14.059 2.73611 12.5694 2.54167 10.8333H1.70833C1.47222 10.8333 1.27431 10.7535 1.11458 10.5938C0.954861 10.434 0.875 10.2361 0.875 10C0.875 9.76389 0.954861 9.56597 1.11458 9.40625C1.27431 9.24653 1.47222 9.16667 1.70833 9.16667H2.54167C2.73611 7.43056 3.45486 5.94097 4.69792 4.69792C5.94097 3.45486 7.43056 2.73611 9.16667 2.54167V1.70833C9.16667 1.47222 9.24653 1.27431 9.40625 1.11458C9.56597 0.954861 9.76389 0.875 10 0.875C10.2361 0.875 10.434 0.954861 10.5938 1.11458C10.7535 1.27431 10.8333 1.47222 10.8333 1.70833V2.54167C12.5694 2.73611 14.059 3.45486 15.3021 4.69792C16.5451 5.94097 17.2639 7.43056 17.4583 9.16667H18.2917C18.5278 9.16667 18.7257 9.24653 18.8854 9.40625C19.0451 9.56597 19.125 9.76389 19.125 10C19.125 10.2361 19.0451 10.434 18.8854 10.5938C18.7257 10.7535 18.5278 10.8333 18.2917 10.8333H17.4583C17.2639 12.5694 16.5451 14.059 15.3021 15.3021C14.059 16.5451 12.5694 17.2639 10.8333 17.4583V18.2917C10.8333 18.5278 10.7535 18.7257 10.5938 18.8854C10.434 19.0451 10.2361 19.125 10 19.125C9.76389 19.125 9.56597 19.0451 9.40625 18.8854C9.24653 18.7257 9.16667 18.5278 9.16667 18.2917ZM10 15.8333C11.6111 15.8333 12.9861 15.2639 14.125 14.125C15.2639 12.9861 15.8333 11.6111 15.8333 10C15.8333 8.38889 15.2639 7.01389 14.125 5.875C12.9861 4.73611 11.6111 4.16667 10 4.16667C8.38889 4.16667 7.01389 4.73611 5.875 5.875C4.73611 7.01389 4.16667 8.38889 4.16667 10C4.16667 11.6111 4.73611 12.9861 5.875 14.125C7.01389 15.2639 8.38889 15.8333 10 15.8333ZM10 13.3333C9.08333 13.3333 8.29861 13.0069 7.64583 12.3542C6.99306 11.7014 6.66667 10.9167 6.66667 10C6.66667 9.08333 6.99306 8.29861 7.64583 7.64583C8.29861 6.99306 9.08333 6.66667 10 6.66667C10.9167 6.66667 11.7014 6.99306 12.3542 7.64583C13.0069 8.29861 13.3333 9.08333 13.3333 10C13.3333 10.9167 13.0069 11.7014 12.3542 12.3542C11.7014 13.0069 10.9167 13.3333 10 13.3333ZM10 11.6667C10.4583 11.6667 10.8507 11.5035 11.1771 11.1771C11.5035 10.8507 11.6667 10.4583 11.6667 10C11.6667 9.54167 11.5035 9.14931 11.1771 8.82292C10.8507 8.49653 10.4583 8.33333 10 8.33333C9.54167 8.33333 9.14931 8.49653 8.82292 8.82292C8.49653 9.14931 8.33333 9.54167 8.33333 10C8.33333 10.4583 8.49653 10.8507 8.82292 11.1771C9.14931 11.5035 9.54167 11.6667 10 11.6667Z" fill="currentColor"/>
</svg>