<svg viewBox="0 0 20 20" fill="none" xmlns="http://www.w3.org/2000/svg">
<path d="M8.125 13.25H2.75C2.5375 13.25 2.35937 13.1785 2.21562 13.0356C2.07187 12.8927 2 12.7156 2 12.5044C2 12.2931 2.07187 12.1146 2.21562 11.9688C2.35937 11.8229 2.5375 11.75 2.75 11.75H8.125L6.45833 10.0833C6.30556 9.93056 6.22917 9.7523 6.22917 9.54855C6.22917 9.34494 6.30556 9.16903 6.45833 9.02084C6.60653 8.86806 6.78243 8.79167 6.98604 8.79167C7.18979 8.79167 7.36806 8.86806 7.52083 9.02084L10.4792 11.9792C10.5486 12.0542 10.6007 12.1354 10.6354 12.2229C10.6701 12.3104 10.6875 12.4042 10.6875 12.5042C10.6875 12.6042 10.6701 12.6979 10.6354 12.7854C10.6007 12.8729 10.5486 12.9514 10.4792 13.0208L7.52083 15.9792C7.37306 16.132 7.20069 16.2049 7.00375 16.1979C6.80681 16.191 6.62861 16.1111 6.46917 15.9583C6.32306 15.8056 6.25 15.6285 6.25 15.4271C6.25 15.2257 6.32639 15.0486 6.47917 14.8958L8.125 13.25ZM11.875 8.25001L13.5417 9.91667C13.6944 10.0694 13.7708 10.2477 13.7708 10.4515C13.7708 10.6551 13.6944 10.831 13.5417 10.9792C13.3935 11.1319 13.2176 11.2083 13.014 11.2083C12.8102 11.2083 12.6319 11.1319 12.4792 10.9792L9.52083 8.02084C9.45139 7.94584 9.39931 7.86459 9.36458 7.77709C9.32986 7.68959 9.3125 7.59584 9.3125 7.49584C9.3125 7.39584 9.32986 7.30209 9.36458 7.21459C9.39931 7.12709 9.45139 7.04862 9.52083 6.97917L12.4792 4.02084C12.6319 3.86806 12.809 3.79167 13.0104 3.79167C13.2118 3.79167 13.3922 3.86806 13.5517 4.02084C13.6978 4.17362 13.7708 4.3507 13.7708 4.55209C13.7708 4.75348 13.6944 4.93056 13.5417 5.08334L11.875 6.75001H17.25C17.4625 6.75001 17.6406 6.82146 17.7844 6.96438C17.9281 7.1073 18 7.28438 18 7.49563C18 7.70688 17.9281 7.88542 17.7844 8.03126C17.6406 8.17709 17.4625 8.25001 17.25 8.25001H11.875Z" fill="currentColor"/>
</svg>
