<svg width="166" height="69" viewBox="0 0 166 69" fill="none" xmlns="http://www.w3.org/2000/svg">
<g clip-path="url(#clip0_248_31698)">
<path d="M3.1 30C2.82 30 2.6 29.92 2.44 29.76C2.28 29.6 2.2 29.3867 2.2 29.12C2.2 28.84 2.28 28.6267 2.44 28.48C2.6 28.3333 2.82 28.26 3.1 28.26H5.54V17.62H6.58L3.66 19.48C3.44667 19.6 3.24667 19.6467 3.06 19.62C2.88667 19.5933 2.73333 19.52 2.6 19.4C2.48 19.28 2.39333 19.1333 2.34 18.96C2.3 18.7867 2.31333 18.6067 2.38 18.42C2.46 18.2333 2.6 18.08 2.8 17.96L5.56 16.22C5.78667 16.0867 6 15.98 6.2 15.9C6.41333 15.8067 6.61333 15.76 6.8 15.76C7.02667 15.76 7.21333 15.8267 7.36 15.96C7.52 16.08 7.6 16.2867 7.6 16.58V28.26H9.84C10.1333 28.26 10.36 28.3333 10.52 28.48C10.68 28.6267 10.76 28.84 10.76 29.12C10.76 29.4 10.68 29.62 10.52 29.78C10.36 29.9267 10.1333 30 9.84 30H3.1ZM13.8922 30.08C13.5055 30.08 13.1922 29.96 12.9522 29.72C12.7122 29.48 12.5922 29.1733 12.5922 28.8C12.5922 28.4267 12.7122 28.1267 12.9522 27.9C13.1922 27.66 13.5055 27.54 13.8922 27.54C14.2789 27.54 14.5855 27.66 14.8122 27.9C15.0389 28.1267 15.1522 28.4267 15.1522 28.8C15.1522 29.1733 15.0389 29.48 14.8122 29.72C14.5855 29.96 14.2789 30.08 13.8922 30.08Z" fill="#737272"/>
<path d="M36.6667 22.5C36.6667 21.0272 35.4728 19.8333 34 19.8333C32.5272 19.8333 31.3333 21.0272 31.3333 22.5C31.3333 23.9728 32.5272 25.1667 34 25.1667C35.4728 25.1667 36.6667 23.9728 36.6667 22.5ZM34 22.5L34 22L17 22L17 22.5L17 23L34 23L34 22.5Z" fill="#737272"/>
<path d="M136.78 30.18C136.033 30.18 135.273 30.08 134.5 29.88C133.727 29.6667 133.053 29.3533 132.48 28.94C132.267 28.8067 132.12 28.6467 132.04 28.46C131.973 28.26 131.96 28.08 132 27.92C132.04 27.7467 132.12 27.6 132.24 27.48C132.373 27.36 132.533 27.2933 132.72 27.28C132.907 27.2533 133.113 27.3067 133.34 27.44C133.913 27.7867 134.473 28.04 135.02 28.2C135.567 28.3467 136.133 28.42 136.72 28.42C137.36 28.42 137.9 28.3267 138.34 28.14C138.78 27.9533 139.107 27.68 139.32 27.32C139.547 26.96 139.66 26.5267 139.66 26.02C139.66 25.26 139.407 24.6933 138.9 24.32C138.407 23.9333 137.687 23.74 136.74 23.74H135.38C135.073 23.74 134.84 23.6667 134.68 23.52C134.52 23.36 134.44 23.14 134.44 22.86C134.44 22.5933 134.52 22.3867 134.68 22.24C134.84 22.08 135.073 22 135.38 22H136.54C137.113 22 137.6 21.9067 138 21.72C138.4 21.52 138.707 21.2467 138.92 20.9C139.147 20.54 139.26 20.1067 139.26 19.6C139.26 18.92 139.033 18.4 138.58 18.04C138.14 17.6667 137.493 17.48 136.64 17.48C136.093 17.48 135.573 17.5533 135.08 17.7C134.6 17.8467 134.1 18.1067 133.58 18.48C133.38 18.6133 133.187 18.6733 133 18.66C132.827 18.6333 132.673 18.5667 132.54 18.46C132.42 18.34 132.333 18.1933 132.28 18.02C132.24 17.8467 132.253 17.6667 132.32 17.48C132.387 17.2933 132.52 17.1333 132.72 17C133.28 16.5867 133.913 16.2733 134.62 16.06C135.327 15.8333 136.053 15.72 136.8 15.72C137.733 15.72 138.533 15.8667 139.2 16.16C139.88 16.4533 140.393 16.8733 140.74 17.42C141.1 17.9667 141.28 18.62 141.28 19.38C141.28 19.9533 141.173 20.4733 140.96 20.94C140.747 21.4067 140.44 21.8067 140.04 22.14C139.653 22.46 139.18 22.6867 138.62 22.82V22.6C139.593 22.76 140.347 23.16 140.88 23.8C141.413 24.4267 141.68 25.2133 141.68 26.16C141.68 26.9867 141.48 27.7067 141.08 28.32C140.693 28.92 140.133 29.38 139.4 29.7C138.667 30.02 137.793 30.18 136.78 30.18ZM144.892 30.08C144.506 30.08 144.192 29.96 143.952 29.72C143.712 29.48 143.592 29.1733 143.592 28.8C143.592 28.4267 143.712 28.1267 143.952 27.9C144.192 27.66 144.506 27.54 144.892 27.54C145.279 27.54 145.586 27.66 145.812 27.9C146.039 28.1267 146.152 28.4267 146.152 28.8C146.152 29.1733 146.039 29.48 145.812 29.72C145.586 29.96 145.279 30.08 144.892 30.08Z" fill="#737272"/>
<path d="M111.333 22.5C111.333 21.0272 112.527 19.8333 114 19.8333C115.473 19.8333 116.667 21.0272 116.667 22.5C116.667 23.9728 115.473 25.1667 114 25.1667C112.527 25.1667 111.333 23.9728 111.333 22.5ZM114 22.5L114 22L131 22L131 22.5L131 23L114 23L114 22.5Z" fill="#737272"/>
<path d="M46.62 62C46.26 62 46 61.92 45.84 61.76C45.68 61.5867 45.6 61.3533 45.6 61.06C45.6 60.8733 45.6467 60.6933 45.74 60.52C45.8333 60.3467 45.9667 60.1667 46.14 59.98L50.4 55.42C51.0533 54.7267 51.52 54.0933 51.8 53.52C52.0933 52.9333 52.24 52.3467 52.24 51.76C52.24 51.0133 52.0133 50.4467 51.56 50.06C51.1067 49.6733 50.44 49.48 49.56 49.48C49.0267 49.48 48.5133 49.56 48.02 49.72C47.5267 49.88 47.0333 50.14 46.54 50.5C46.34 50.6333 46.1533 50.6933 45.98 50.68C45.8067 50.6667 45.6533 50.6 45.52 50.48C45.4 50.36 45.32 50.2133 45.28 50.04C45.24 49.8667 45.2467 49.6867 45.3 49.5C45.3533 49.3133 45.48 49.1533 45.68 49.02C46.2267 48.6067 46.86 48.2867 47.58 48.06C48.3 47.8333 49.0333 47.72 49.78 47.72C50.7533 47.72 51.5733 47.8733 52.24 48.18C52.92 48.4733 53.4333 48.9067 53.78 49.48C54.1267 50.0533 54.3 50.7533 54.3 51.58C54.3 52.14 54.2067 52.6867 54.02 53.22C53.8467 53.7533 53.5733 54.3 53.2 54.86C52.84 55.4067 52.3667 55.9867 51.78 56.6L47.74 60.84V60.26H54.1C54.3933 60.26 54.62 60.3333 54.78 60.48C54.94 60.6267 55.02 60.84 55.02 61.12C55.02 61.4 54.94 61.62 54.78 61.78C54.62 61.9267 54.3933 62 54.1 62H46.62ZM57.8922 62.08C57.5055 62.08 57.1922 61.96 56.9522 61.72C56.7122 61.48 56.5922 61.1733 56.5922 60.8C56.5922 60.4267 56.7122 60.1267 56.9522 59.9C57.1922 59.66 57.5055 59.54 57.8922 59.54C58.2789 59.54 58.5855 59.66 58.8122 59.9C59.0389 60.1267 59.1522 60.4267 59.1522 60.8C59.1522 61.1733 59.0389 61.48 58.8122 61.72C58.5855 61.96 58.2789 62.08 57.8922 62.08Z" fill="#737272"/>
<path d="M58 30.3333C56.5272 30.3333 55.3333 31.5272 55.3333 33C55.3333 34.4728 56.5272 35.6667 58 35.6667C59.4728 35.6667 60.6667 34.4728 60.6667 33C60.6667 31.5272 59.4728 30.3333 58 30.3333ZM58 33H57.5V45H58H58.5V33H58Z" fill="#737272"/>
</g>
<defs>
<clipPath id="clip0_248_31698">
<rect width="166" height="69" fill="white"/>
</clipPath>
</defs>
</svg>
