<svg width="712" height="212" viewBox="0 0 712 212" fill="none" xmlns="http://www.w3.org/2000/svg">
<path d="M8 0.5H704C708.142 0.5 711.5 3.85786 711.5 8V204C711.5 208.142 708.142 211.5 704 211.5H8C3.85786 211.5 0.5 208.142 0.5 204V8C0.5 3.85786 3.85786 0.5 8 0.5Z" fill="white"/>
<path d="M8 0.5H704C708.142 0.5 711.5 3.85786 711.5 8V204C711.5 208.142 708.142 211.5 704 211.5H8C3.85786 211.5 0.5 208.142 0.5 204V8C0.5 3.85786 3.85786 0.5 8 0.5Z" stroke="#CDCCCB"/>
<path d="M34.208 49C33.92 49 33.696 48.9253 33.536 48.776C33.3867 48.616 33.312 48.392 33.312 48.104V38.616C33.312 38.328 33.3867 38.1093 33.536 37.96C33.696 37.8 33.92 37.72 34.208 37.72H37.296C39.152 37.72 40.5813 38.2053 41.584 39.176C42.5973 40.136 43.104 41.528 43.104 43.352C43.104 44.2587 42.976 45.064 42.72 45.768C42.464 46.472 42.0853 47.064 41.584 47.544C41.0933 48.0133 40.4907 48.376 39.776 48.632C39.0613 48.8773 38.2347 49 37.296 49H34.208ZM34.976 47.608H37.2C37.904 47.608 38.512 47.5227 39.024 47.352C39.5467 47.1707 39.984 46.904 40.336 46.552C40.688 46.2 40.9493 45.7573 41.12 45.224C41.2907 44.6907 41.376 44.0667 41.376 43.352C41.376 41.9333 41.024 40.872 40.32 40.168C39.6267 39.464 38.5867 39.112 37.2 39.112H34.976V47.608ZM48.3156 49.144C47.4623 49.144 46.7263 48.984 46.1076 48.664C45.4996 48.3333 45.025 47.8693 44.6836 47.272C44.353 46.664 44.1876 45.944 44.1876 45.112C44.1876 44.3013 44.353 43.592 44.6836 42.984C45.0143 42.376 45.4676 41.9013 46.0436 41.56C46.6196 41.2187 47.2756 41.048 48.0116 41.048C48.5556 41.048 49.041 41.1387 49.4676 41.32C49.8943 41.4907 50.257 41.7467 50.5556 42.088C50.865 42.4187 51.0943 42.824 51.2436 43.304C51.4036 43.784 51.4836 44.3227 51.4836 44.92C51.4836 45.1013 51.4303 45.24 51.3236 45.336C51.217 45.4213 51.057 45.464 50.8436 45.464H45.4676V44.472H50.3956L50.1236 44.696C50.1236 44.1627 50.0436 43.7093 49.8836 43.336C49.7343 42.9627 49.505 42.68 49.1956 42.488C48.897 42.2853 48.5236 42.184 48.0756 42.184C47.5743 42.184 47.1476 42.3013 46.7956 42.536C46.4543 42.7707 46.193 43.096 46.0116 43.512C45.8303 43.928 45.7396 44.4133 45.7396 44.968V45.064C45.7396 46.0027 45.9583 46.712 46.3956 47.192C46.8436 47.6613 47.489 47.896 48.3316 47.896C48.6516 47.896 48.9876 47.8533 49.3396 47.768C49.7023 47.6827 50.0436 47.5387 50.3636 47.336C50.545 47.2293 50.705 47.1813 50.8436 47.192C50.993 47.2027 51.1103 47.2507 51.1956 47.336C51.2916 47.4213 51.3503 47.528 51.3716 47.656C51.393 47.784 51.3716 47.9173 51.3076 48.056C51.2436 48.184 51.1316 48.3013 50.9716 48.408C50.609 48.6533 50.1876 48.84 49.7076 48.968C49.2276 49.0853 48.7636 49.144 48.3156 49.144ZM54.0098 49.112C53.7538 49.112 53.5511 49.0427 53.4018 48.904C53.2631 48.7547 53.1938 48.552 53.1938 48.296V42.44H52.2978C52.0951 42.44 51.9351 42.3867 51.8178 42.28C51.7004 42.1627 51.6418 42.008 51.6418 41.816C51.6418 41.6133 51.7004 41.4587 51.8178 41.352C51.9351 41.2453 52.0951 41.192 52.2978 41.192H53.6578L53.1938 41.624V41.048C53.1938 39.992 53.4551 39.1973 53.9778 38.664C54.5004 38.12 55.2631 37.8 56.2658 37.704L56.7618 37.672C56.9431 37.6507 57.0871 37.6773 57.1938 37.752C57.3004 37.8267 57.3698 37.9227 57.4018 38.04C57.4338 38.1573 57.4338 38.28 57.4018 38.408C57.3804 38.5253 57.3271 38.632 57.2418 38.728C57.1564 38.824 57.0498 38.8773 56.9218 38.888L56.6178 38.904C55.9884 38.9573 55.5298 39.1387 55.2418 39.448C54.9538 39.7467 54.8098 40.2053 54.8098 40.824V41.448L54.5858 41.192H56.3618C56.5858 41.192 56.7511 41.2453 56.8578 41.352C56.9751 41.4587 57.0338 41.6133 57.0338 41.816C57.0338 42.008 56.9751 42.1627 56.8578 42.28C56.7511 42.3867 56.5858 42.44 56.3618 42.44H54.8098V48.296C54.8098 48.84 54.5431 49.112 54.0098 49.112ZM60.1945 49.144C59.6505 49.144 59.1598 49.0373 58.7225 48.824C58.2958 48.6107 57.9598 48.3227 57.7145 47.96C57.4692 47.5973 57.3465 47.1867 57.3465 46.728C57.3465 46.152 57.4905 45.6987 57.7785 45.368C58.0772 45.0267 58.5625 44.7867 59.2345 44.648C59.9172 44.4987 60.8345 44.424 61.9865 44.424H62.7385V45.416H62.0025C61.2345 45.416 60.6265 45.4533 60.1785 45.528C59.7305 45.6027 59.4105 45.7307 59.2185 45.912C59.0372 46.0827 58.9465 46.3227 58.9465 46.632C58.9465 47.0373 59.0852 47.368 59.3625 47.624C59.6398 47.8693 60.0238 47.992 60.5145 47.992C60.9092 47.992 61.2558 47.9013 61.5545 47.72C61.8532 47.528 62.0878 47.272 62.2585 46.952C62.4398 46.632 62.5305 46.264 62.5305 45.848V44.008C62.5305 43.4 62.4025 42.9627 62.1465 42.696C61.8905 42.4293 61.4692 42.296 60.8825 42.296C60.5412 42.296 60.1838 42.3387 59.8105 42.424C59.4478 42.5093 59.0692 42.6533 58.6745 42.856C58.4932 42.9413 58.3385 42.968 58.2105 42.936C58.0825 42.904 57.9812 42.8347 57.9065 42.728C57.8318 42.6107 57.7892 42.488 57.7785 42.36C57.7785 42.2213 57.8105 42.088 57.8745 41.96C57.9492 41.832 58.0718 41.736 58.2425 41.672C58.7118 41.448 59.1758 41.288 59.6345 41.192C60.0932 41.096 60.5252 41.048 60.9305 41.048C61.6452 41.048 62.2318 41.16 62.6905 41.384C63.1598 41.608 63.5065 41.9493 63.7305 42.408C63.9545 42.8667 64.0665 43.4587 64.0665 44.184V48.296C64.0665 48.552 64.0025 48.7547 63.8745 48.904C63.7465 49.0427 63.5598 49.112 63.3145 49.112C63.0798 49.112 62.8932 49.0427 62.7545 48.904C62.6158 48.7547 62.5465 48.552 62.5465 48.296V47.256H62.6905C62.6052 47.6507 62.4452 47.992 62.2105 48.28C61.9865 48.5573 61.7038 48.7707 61.3625 48.92C61.0212 49.0693 60.6318 49.144 60.1945 49.144ZM68.5763 49.144C67.9469 49.144 67.4189 49.0267 66.9923 48.792C66.5763 48.5573 66.2616 48.2107 66.0483 47.752C65.8456 47.2827 65.7443 46.696 65.7443 45.992V41.896C65.7443 41.6187 65.8136 41.416 65.9523 41.288C66.0909 41.1493 66.2883 41.08 66.5443 41.08C66.8003 41.08 66.9976 41.1493 67.1363 41.288C67.2856 41.416 67.3603 41.6187 67.3603 41.896V46.008C67.3603 46.6373 67.4883 47.1013 67.7443 47.4C68.0003 47.6987 68.4056 47.848 68.9603 47.848C69.5683 47.848 70.0589 47.6453 70.4323 47.24C70.8163 46.824 71.0083 46.28 71.0083 45.608V41.896C71.0083 41.6187 71.0776 41.416 71.2163 41.288C71.3549 41.1493 71.5576 41.08 71.8243 41.08C72.0803 41.08 72.2776 41.1493 72.4163 41.288C72.5549 41.416 72.6243 41.6187 72.6243 41.896V48.296C72.6243 48.84 72.3629 49.112 71.8403 49.112C71.5949 49.112 71.4029 49.0427 71.2643 48.904C71.1256 48.7547 71.0563 48.552 71.0563 48.296V46.936L71.2643 47.288C71.0509 47.8853 70.7096 48.344 70.2403 48.664C69.7709 48.984 69.2163 49.144 68.5763 49.144ZM76.9136 49.144C76.0816 49.144 75.4523 48.904 75.0256 48.424C74.6096 47.9333 74.4016 47.2293 74.4016 46.312V38.424C74.4016 38.1573 74.471 37.9547 74.6096 37.816C74.7483 37.6773 74.9456 37.608 75.2016 37.608C75.4576 37.608 75.655 37.6773 75.7936 37.816C75.943 37.9547 76.0176 38.1573 76.0176 38.424V46.216C76.0176 46.7493 76.1243 47.1493 76.3376 47.416C76.5616 47.672 76.8816 47.8 77.2976 47.8C77.3936 47.8 77.479 47.8 77.5536 47.8C77.6283 47.7893 77.703 47.7787 77.7776 47.768C77.9056 47.7573 77.9963 47.7947 78.0496 47.88C78.103 47.9547 78.1296 48.1147 78.1296 48.36C78.1296 48.584 78.0816 48.76 77.9856 48.888C77.8896 49.0053 77.735 49.08 77.5216 49.112C77.4256 49.1227 77.3243 49.128 77.2176 49.128C77.111 49.1387 77.0096 49.144 76.9136 49.144ZM81.9484 49.144C81.3084 49.144 80.7697 49.032 80.3324 48.808C79.895 48.584 79.5697 48.2533 79.3564 47.816C79.143 47.3787 79.0364 46.8453 79.0364 46.216V42.44H78.0764C77.863 42.44 77.6977 42.3867 77.5804 42.28C77.463 42.1627 77.4044 42.008 77.4044 41.816C77.4044 41.6133 77.463 41.4587 77.5804 41.352C77.6977 41.2453 77.863 41.192 78.0764 41.192H79.0364V39.544C79.0364 39.2773 79.1057 39.0747 79.2444 38.936C79.3937 38.7973 79.5964 38.728 79.8524 38.728C80.1084 38.728 80.3057 38.7973 80.4444 38.936C80.583 39.0747 80.6524 39.2773 80.6524 39.544V41.192H82.5244C82.7377 41.192 82.903 41.2453 83.0204 41.352C83.1377 41.4587 83.1964 41.6133 83.1964 41.816C83.1964 42.008 83.1377 42.1627 83.0204 42.28C82.903 42.3867 82.7377 42.44 82.5244 42.44H80.6524V46.088C80.6524 46.6533 80.7697 47.08 81.0044 47.368C81.2497 47.656 81.6444 47.8 82.1884 47.8C82.3804 47.8 82.5457 47.784 82.6844 47.752C82.8337 47.7093 82.9564 47.6827 83.0524 47.672C83.1697 47.672 83.2657 47.7147 83.3404 47.8C83.415 47.8747 83.4524 48.024 83.4524 48.248C83.4524 48.408 83.4204 48.5573 83.3564 48.696C83.303 48.8347 83.2017 48.9253 83.0524 48.968C82.9244 49.0107 82.7484 49.048 82.5244 49.08C82.311 49.1227 82.119 49.144 81.9484 49.144ZM88.4669 49.064C88.1575 49.064 87.9069 48.968 87.7149 48.776C87.5229 48.584 87.4269 48.3387 87.4269 48.04C87.4269 47.7413 87.5229 47.5013 87.7149 47.32C87.9069 47.128 88.1575 47.032 88.4669 47.032C88.7762 47.032 89.0215 47.128 89.2029 47.32C89.3842 47.5013 89.4749 47.7413 89.4749 48.04C89.4749 48.3387 89.3842 48.584 89.2029 48.776C89.0215 48.968 88.7762 49.064 88.4669 49.064ZM88.4669 43.16C88.1575 43.16 87.9069 43.064 87.7149 42.872C87.5229 42.68 87.4269 42.44 87.4269 42.152C87.4269 41.8427 87.5229 41.5973 87.7149 41.416C87.9069 41.224 88.1575 41.128 88.4669 41.128C88.7762 41.128 89.0215 41.224 89.2029 41.416C89.3842 41.5973 89.4749 41.8427 89.4749 42.152C89.4749 42.44 89.3842 42.68 89.2029 42.872C89.0215 43.064 88.7762 43.16 88.4669 43.16ZM96.0425 49C95.8185 49 95.6425 48.936 95.5145 48.808C95.3865 48.68 95.3225 48.5093 95.3225 48.296C95.3225 48.072 95.3865 47.9013 95.5145 47.784C95.6425 47.6667 95.8185 47.608 96.0425 47.608H97.9945V39.096H98.8265L96.4905 40.584C96.3198 40.68 96.1598 40.7173 96.0105 40.696C95.8718 40.6747 95.7492 40.616 95.6425 40.52C95.5465 40.424 95.4772 40.3067 95.4345 40.168C95.4025 40.0293 95.4132 39.8853 95.4665 39.736C95.5305 39.5867 95.6425 39.464 95.8025 39.368L98.0105 37.976C98.1918 37.8693 98.3625 37.784 98.5225 37.72C98.6932 37.6453 98.8532 37.608 99.0025 37.608C99.1838 37.608 99.3332 37.6613 99.4505 37.768C99.5785 37.864 99.6425 38.0293 99.6425 38.264V47.608H101.435C101.669 47.608 101.851 47.6667 101.979 47.784C102.107 47.9013 102.171 48.072 102.171 48.296C102.171 48.52 102.107 48.696 101.979 48.824C101.851 48.9413 101.669 49 101.435 49H96.0425ZM104.592 51.992C104.336 51.992 104.139 51.9227 104 51.784C103.862 51.6453 103.792 51.4427 103.792 51.176V41.896C103.792 41.6293 103.862 41.4267 104 41.288C104.139 41.1493 104.331 41.08 104.576 41.08C104.832 41.08 105.03 41.1493 105.168 41.288C105.307 41.4267 105.376 41.6293 105.376 41.896V43.288L105.2 42.952C105.371 42.376 105.707 41.9173 106.208 41.576C106.71 41.224 107.302 41.048 107.984 41.048C108.678 41.048 109.28 41.2133 109.792 41.544C110.315 41.8747 110.715 42.3387 110.992 42.936C111.28 43.5333 111.424 44.2533 111.424 45.096C111.424 45.9173 111.28 46.6373 110.992 47.256C110.715 47.864 110.32 48.3333 109.808 48.664C109.296 48.984 108.688 49.144 107.984 49.144C107.312 49.144 106.726 48.9733 106.224 48.632C105.723 48.2907 105.387 47.8373 105.216 47.272H105.408V51.176C105.408 51.4427 105.334 51.6453 105.184 51.784C105.046 51.9227 104.848 51.992 104.592 51.992ZM107.584 47.896C108.032 47.896 108.422 47.7893 108.752 47.576C109.083 47.3627 109.339 47.048 109.52 46.632C109.702 46.216 109.792 45.704 109.792 45.096C109.792 44.1787 109.59 43.4853 109.184 43.016C108.79 42.5467 108.256 42.312 107.584 42.312C107.147 42.312 106.758 42.4187 106.416 42.632C106.086 42.8347 105.83 43.144 105.648 43.56C105.467 43.976 105.376 44.488 105.376 45.096C105.376 46.0027 105.579 46.696 105.984 47.176C106.39 47.656 106.923 47.896 107.584 47.896ZM112.83 49.096C112.638 49.096 112.478 49.0427 112.35 48.936C112.233 48.8187 112.169 48.6747 112.158 48.504C112.158 48.3333 112.233 48.1467 112.382 47.944L115.086 44.568V45.368L112.558 42.216C112.387 42.024 112.307 41.8427 112.318 41.672C112.329 41.4907 112.398 41.3467 112.526 41.24C112.654 41.1333 112.809 41.08 112.99 41.08C113.193 41.08 113.358 41.1173 113.486 41.192C113.625 41.256 113.753 41.368 113.87 41.528L115.998 44.232H115.422L117.566 41.528C117.683 41.368 117.806 41.256 117.934 41.192C118.073 41.1173 118.238 41.08 118.43 41.08C118.622 41.08 118.777 41.1387 118.894 41.256C119.022 41.3627 119.086 41.5067 119.086 41.688C119.097 41.8587 119.022 42.04 118.862 42.232L116.334 45.336V44.616L119.038 47.944C119.198 48.136 119.273 48.3227 119.262 48.504C119.262 48.6747 119.198 48.8187 119.07 48.936C118.942 49.0427 118.782 49.096 118.59 49.096C118.398 49.096 118.233 49.0587 118.094 48.984C117.966 48.9093 117.838 48.7973 117.71 48.648L115.422 45.768H115.966L113.694 48.648C113.577 48.7867 113.449 48.8987 113.31 48.984C113.182 49.0587 113.022 49.096 112.83 49.096Z" fill="#201F1F"/>
<path d="M33.1797 90V78.5469H41.0312V80.4844H35.4922V83.1953H40.2734V85.1328H35.4922V90H33.1797ZM42.9297 80.5781V78.5469H45.125V80.5781H42.9297ZM42.9297 90V81.7031H45.125V90H42.9297ZM49.4844 90H47.2891V81.7031H49.3281V82.8828C49.6771 82.3255 49.9896 81.9583 50.2656 81.7812C50.5469 81.6042 50.8646 81.5156 51.2188 81.5156C51.7188 81.5156 52.2005 81.6536 52.6641 81.9297L51.9844 83.8438C51.6146 83.6042 51.2708 83.4844 50.9531 83.4844C50.6458 83.4844 50.3854 83.5703 50.1719 83.7422C49.9583 83.9089 49.7891 84.2135 49.6641 84.6562C49.5443 85.099 49.4844 86.026 49.4844 87.4375V90ZM52.8438 87.6328L55.0469 87.2969C55.1406 87.724 55.3307 88.0495 55.6172 88.2734C55.9036 88.4922 56.3047 88.6016 56.8203 88.6016C57.388 88.6016 57.8151 88.4974 58.1016 88.2891C58.2943 88.1432 58.3906 87.9479 58.3906 87.7031C58.3906 87.5365 58.3385 87.3984 58.2344 87.2891C58.125 87.1849 57.8802 87.0885 57.5 87C55.7292 86.6094 54.6068 86.2526 54.1328 85.9297C53.4766 85.4818 53.1484 84.8594 53.1484 84.0625C53.1484 83.3438 53.4323 82.7396 54 82.25C54.5677 81.7604 55.4479 81.5156 56.6406 81.5156C57.776 81.5156 58.6198 81.7005 59.1719 82.0703C59.724 82.4401 60.1042 82.987 60.3125 83.7109L58.2422 84.0938C58.1536 83.7708 57.9844 83.5234 57.7344 83.3516C57.4896 83.1797 57.138 83.0938 56.6797 83.0938C56.1016 83.0938 55.6875 83.1745 55.4375 83.3359C55.2708 83.4505 55.1875 83.599 55.1875 83.7812C55.1875 83.9375 55.2604 84.0703 55.4062 84.1797C55.6042 84.3255 56.2865 84.5312 57.4531 84.7969C58.625 85.0625 59.4427 85.388 59.9062 85.7734C60.3646 86.1641 60.5938 86.7083 60.5938 87.4062C60.5938 88.1667 60.276 88.8203 59.6406 89.3672C59.0052 89.9141 58.0651 90.1875 56.8203 90.1875C55.6901 90.1875 54.7943 89.9583 54.1328 89.5C53.4766 89.0417 53.0469 88.4193 52.8438 87.6328ZM66.3281 81.7031V83.4531H64.8281V86.7969C64.8281 87.474 64.8411 87.8698 64.8672 87.9844C64.8984 88.0938 64.9635 88.1849 65.0625 88.2578C65.1667 88.3307 65.2917 88.3672 65.4375 88.3672C65.6406 88.3672 65.9349 88.2969 66.3203 88.1562L66.5078 89.8594C65.9974 90.0781 65.4193 90.1875 64.7734 90.1875C64.3776 90.1875 64.0208 90.1224 63.7031 89.9922C63.3854 89.8568 63.151 89.6849 63 89.4766C62.8542 89.263 62.7526 88.9766 62.6953 88.6172C62.6484 88.362 62.625 87.8464 62.625 87.0703V83.4531H61.6172V81.7031H62.625V80.0547L64.8281 78.7734V81.7031H66.3281ZM79.8516 90H77.6562V85.7656C77.6562 84.8698 77.6094 84.2917 77.5156 84.0312C77.4219 83.7656 77.2682 83.5599 77.0547 83.4141C76.8464 83.2682 76.5938 83.1953 76.2969 83.1953C75.9167 83.1953 75.5755 83.2995 75.2734 83.5078C74.9714 83.7161 74.763 83.9922 74.6484 84.3359C74.5391 84.6797 74.4844 85.3151 74.4844 86.2422V90H72.2891V81.7031H74.3281V82.9219C75.0521 81.9844 75.9635 81.5156 77.0625 81.5156C77.5469 81.5156 77.9896 81.6042 78.3906 81.7812C78.7917 81.9531 79.0938 82.1745 79.2969 82.4453C79.5052 82.7161 79.6484 83.0234 79.7266 83.3672C79.8099 83.7109 79.8516 84.2031 79.8516 84.8438V90ZM83.7266 84.2344L81.7344 83.875C81.9583 83.0729 82.3438 82.4792 82.8906 82.0938C83.4375 81.7083 84.25 81.5156 85.3281 81.5156C86.3073 81.5156 87.0365 81.6328 87.5156 81.8672C87.9948 82.0964 88.3307 82.3906 88.5234 82.75C88.7214 83.1042 88.8203 83.7578 88.8203 84.7109L88.7969 87.2734C88.7969 88.0026 88.8307 88.5417 88.8984 88.8906C88.9714 89.2344 89.1042 89.6042 89.2969 90H87.125C87.0677 89.8542 86.9974 89.638 86.9141 89.3516C86.8776 89.2214 86.8516 89.1354 86.8359 89.0938C86.4609 89.4583 86.0599 89.7318 85.6328 89.9141C85.2057 90.0964 84.75 90.1875 84.2656 90.1875C83.4115 90.1875 82.737 89.9557 82.2422 89.4922C81.7526 89.0286 81.5078 88.4427 81.5078 87.7344C81.5078 87.2656 81.6198 86.849 81.8438 86.4844C82.0677 86.1146 82.3802 85.8333 82.7812 85.6406C83.1875 85.4427 83.7708 85.2708 84.5312 85.125C85.5573 84.9323 86.2682 84.7526 86.6641 84.5859V84.3672C86.6641 83.9453 86.5599 83.6458 86.3516 83.4688C86.1432 83.2865 85.75 83.1953 85.1719 83.1953C84.7812 83.1953 84.4766 83.2734 84.2578 83.4297C84.0391 83.5807 83.862 83.849 83.7266 84.2344ZM86.6641 86.0156C86.3828 86.1094 85.9375 86.2214 85.3281 86.3516C84.7188 86.4818 84.3203 86.6094 84.1328 86.7344C83.8464 86.9375 83.7031 87.1953 83.7031 87.5078C83.7031 87.8151 83.8177 88.0807 84.0469 88.3047C84.276 88.5286 84.5677 88.6406 84.9219 88.6406C85.3177 88.6406 85.6953 88.5104 86.0547 88.25C86.3203 88.0521 86.4948 87.8099 86.5781 87.5234C86.6354 87.3359 86.6641 86.9792 86.6641 86.4531V86.0156ZM90.8281 81.7031H92.8516V82.8359C93.5755 81.9557 94.4375 81.5156 95.4375 81.5156C95.9688 81.5156 96.4297 81.625 96.8203 81.8438C97.2109 82.0625 97.5312 82.3932 97.7812 82.8359C98.1458 82.3932 98.5391 82.0625 98.9609 81.8438C99.3828 81.625 99.8333 81.5156 100.312 81.5156C100.922 81.5156 101.438 81.6406 101.859 81.8906C102.281 82.1354 102.596 82.4974 102.805 82.9766C102.956 83.3307 103.031 83.9036 103.031 84.6953V90H100.836V85.2578C100.836 84.4349 100.76 83.9036 100.609 83.6641C100.406 83.3516 100.094 83.1953 99.6719 83.1953C99.3646 83.1953 99.0755 83.2891 98.8047 83.4766C98.5339 83.6641 98.3385 83.9401 98.2188 84.3047C98.099 84.6641 98.0391 85.2344 98.0391 86.0156V90H95.8438V85.4531C95.8438 84.6458 95.8047 84.125 95.7266 83.8906C95.6484 83.6562 95.526 83.4818 95.3594 83.3672C95.1979 83.2526 94.9766 83.1953 94.6953 83.1953C94.3568 83.1953 94.0521 83.2865 93.7812 83.4688C93.5104 83.651 93.3151 83.9141 93.1953 84.2578C93.0807 84.6016 93.0234 85.1719 93.0234 85.9688V90H90.8281V81.7031ZM110.031 87.3594L112.219 87.7266C111.938 88.5286 111.492 89.1406 110.883 89.5625C110.279 89.9792 109.521 90.1875 108.609 90.1875C107.167 90.1875 106.099 89.7161 105.406 88.7734C104.859 88.0182 104.586 87.0651 104.586 85.9141C104.586 84.5391 104.945 83.4635 105.664 82.6875C106.383 81.9062 107.292 81.5156 108.391 81.5156C109.625 81.5156 110.599 81.9245 111.312 82.7422C112.026 83.5547 112.367 84.8021 112.336 86.4844H106.836C106.852 87.1354 107.029 87.6432 107.367 88.0078C107.706 88.3672 108.128 88.5469 108.633 88.5469C108.977 88.5469 109.266 88.4531 109.5 88.2656C109.734 88.0781 109.911 87.776 110.031 87.3594ZM110.156 85.1406C110.141 84.5052 109.977 84.0234 109.664 83.6953C109.352 83.362 108.971 83.1953 108.523 83.1953C108.044 83.1953 107.648 83.3698 107.336 83.7188C107.023 84.0677 106.87 84.5417 106.875 85.1406H110.156Z" fill="#201F1F"/>
<mask id="path-4-inside-1_968_8575" fill="white">
<path d="M32 123.2C32 116.479 32 113.119 33.3079 110.552C34.4584 108.294 36.2942 106.458 38.5521 105.308C41.1191 104 44.4794 104 51.2 104H320.8C327.521 104 330.881 104 333.448 105.308C335.706 106.458 337.542 108.294 338.692 110.552C340 113.119 340 116.479 340 123.2V132.8C340 139.521 340 142.881 338.692 145.448C337.542 147.706 335.706 149.542 333.448 150.692C330.881 152 327.521 152 320.8 152H51.2C44.4794 152 41.1191 152 38.5521 150.692C36.2942 149.542 34.4584 147.706 33.3079 145.448C32 142.881 32 139.521 32 132.8V123.2Z"/>
</mask>
<path d="M32 123.2C32 116.479 32 113.119 33.3079 110.552C34.4584 108.294 36.2942 106.458 38.5521 105.308C41.1191 104 44.4794 104 51.2 104H320.8C327.521 104 330.881 104 333.448 105.308C335.706 106.458 337.542 108.294 338.692 110.552C340 113.119 340 116.479 340 123.2V132.8C340 139.521 340 142.881 338.692 145.448C337.542 147.706 335.706 149.542 333.448 150.692C330.881 152 327.521 152 320.8 152H51.2C44.4794 152 41.1191 152 38.5521 150.692C36.2942 149.542 34.4584 147.706 33.3079 145.448C32 142.881 32 139.521 32 132.8V123.2Z" fill="white"/>
<path d="M38.5521 150.692L38.0981 151.583L38.5521 150.692ZM33.3079 145.448L32.4169 145.902L33.3079 145.448ZM338.692 145.448L337.801 144.994L338.692 145.448ZM333.448 150.692L332.994 149.801L333.448 150.692ZM333.448 105.308L332.994 106.199L333.448 105.308ZM338.692 110.552L337.801 111.006L338.692 110.552ZM51.2 104V105H320.8V104V103H51.2V104ZM340 123.2H339V132.8H340H341V123.2H340ZM320.8 152V151H51.2V152V153H320.8V152ZM32 132.8H33V123.2H32H31V132.8H32ZM51.2 152V151C47.8232 151 45.3507 150.999 43.3999 150.84C41.4607 150.681 40.1251 150.371 39.0061 149.801L38.5521 150.692L38.0981 151.583C39.5461 152.321 41.1741 152.665 43.237 152.833C45.2882 153.001 47.8562 153 51.2 153V152ZM32 132.8H31C31 136.144 30.9992 138.712 31.1668 140.763C31.3354 142.826 31.6792 144.454 32.4169 145.902L33.3079 145.448L34.1989 144.994C33.6288 143.875 33.3186 142.539 33.1602 140.6C33.0008 138.649 33 136.177 33 132.8H32ZM38.5521 150.692L39.0061 149.801C36.9363 148.746 35.2535 147.064 34.1989 144.994L33.3079 145.448L32.4169 145.902C33.6633 148.348 35.652 150.337 38.0981 151.583L38.5521 150.692ZM340 132.8H339C339 136.177 338.999 138.649 338.84 140.6C338.681 142.539 338.371 143.875 337.801 144.994L338.692 145.448L339.583 145.902C340.321 144.454 340.665 142.826 340.833 140.763C341.001 138.712 341 136.144 341 132.8H340ZM320.8 152V153C324.144 153 326.712 153.001 328.763 152.833C330.826 152.665 332.454 152.321 333.902 151.583L333.448 150.692L332.994 149.801C331.875 150.371 330.539 150.681 328.6 150.84C326.649 150.999 324.177 151 320.8 151V152ZM338.692 145.448L337.801 144.994C336.746 147.064 335.064 148.746 332.994 149.801L333.448 150.692L333.902 151.583C336.348 150.337 338.337 148.348 339.583 145.902L338.692 145.448ZM320.8 104V105C324.177 105 326.649 105.001 328.6 105.16C330.539 105.319 331.875 105.629 332.994 106.199L333.448 105.308L333.902 104.417C332.454 103.679 330.826 103.335 328.763 103.167C326.712 102.999 324.144 103 320.8 103V104ZM340 123.2H341C341 119.856 341.001 117.288 340.833 115.237C340.665 113.174 340.321 111.546 339.583 110.098L338.692 110.552L337.801 111.006C338.371 112.125 338.681 113.461 338.84 115.4C338.999 117.351 339 119.823 339 123.2H340ZM333.448 105.308L332.994 106.199C335.064 107.254 336.746 108.936 337.801 111.006L338.692 110.552L339.583 110.098C338.337 107.652 336.348 105.663 333.902 104.417L333.448 105.308ZM51.2 104V103C47.8562 103 45.2882 102.999 43.237 103.167C41.1741 103.335 39.5461 103.679 38.0981 104.417L38.5521 105.308L39.0061 106.199C40.1251 105.629 41.4607 105.319 43.3999 105.16C45.3507 105.001 47.8232 105 51.2 105V104ZM32 123.2H33C33 119.823 33.0008 117.351 33.1602 115.4C33.3186 113.461 33.6288 112.125 34.1989 111.006L33.3079 110.552L32.4169 110.098C31.6792 111.546 31.3354 113.174 31.1668 115.237C30.9992 117.288 31 119.856 31 123.2H32ZM38.5521 105.308L38.0981 104.417C35.652 105.663 33.6633 107.652 32.4169 110.098L33.3079 110.552L34.1989 111.006C35.2535 108.936 36.9363 107.254 39.0061 106.199L38.5521 105.308Z" fill="#A1A1A0" mask="url(#path-4-inside-1_968_8575)"/>
<path d="M33.1074 175V164.979H40.3535V166.161H34.4336V169.23H39.9775V170.406H34.4336V173.817H40.5859V175H33.1074ZM42.2607 175V167.74H43.3682V168.772C43.9014 167.975 44.6715 167.576 45.6787 167.576C46.1162 167.576 46.5173 167.656 46.8818 167.815C47.251 167.97 47.5267 168.175 47.709 168.431C47.8913 168.686 48.0189 168.989 48.0918 169.34C48.1374 169.568 48.1602 169.966 48.1602 170.536V175H46.9297V170.584C46.9297 170.083 46.8818 169.709 46.7861 169.463C46.6904 169.212 46.5195 169.014 46.2734 168.868C46.0319 168.718 45.7471 168.643 45.4189 168.643C44.8949 168.643 44.4414 168.809 44.0586 169.142C43.6803 169.474 43.4912 170.105 43.4912 171.035V175H42.2607ZM52.7402 173.899L52.918 174.986C52.5716 175.059 52.2617 175.096 51.9883 175.096C51.5417 175.096 51.1953 175.025 50.9492 174.884C50.7031 174.743 50.5299 174.558 50.4297 174.33C50.3294 174.098 50.2793 173.612 50.2793 172.874V168.697H49.377V167.74H50.2793V165.942L51.5029 165.204V167.74H52.7402V168.697H51.5029V172.942C51.5029 173.293 51.5234 173.519 51.5645 173.619C51.61 173.719 51.6807 173.799 51.7764 173.858C51.8766 173.918 52.0179 173.947 52.2002 173.947C52.3369 173.947 52.5169 173.931 52.7402 173.899ZM58.9199 172.662L60.1914 172.819C59.9909 173.562 59.6195 174.139 59.0771 174.549C58.5348 174.959 57.8421 175.164 56.999 175.164C55.9372 175.164 55.0941 174.838 54.4697 174.187C53.8499 173.53 53.54 172.612 53.54 171.432C53.54 170.21 53.8545 169.262 54.4834 168.588C55.1123 167.913 55.9281 167.576 56.9307 167.576C57.9014 167.576 58.6943 167.907 59.3096 168.567C59.9248 169.228 60.2324 170.158 60.2324 171.356C60.2324 171.429 60.2301 171.539 60.2256 171.685H54.8115C54.8571 172.482 55.0827 173.093 55.4883 173.517C55.8939 173.94 56.3997 174.152 57.0059 174.152C57.457 174.152 57.8421 174.034 58.1611 173.797C58.4801 173.56 58.7331 173.182 58.9199 172.662ZM54.8799 170.673H58.9336C58.8789 170.062 58.724 169.604 58.4688 169.299C58.0768 168.825 57.5687 168.588 56.9443 168.588C56.3792 168.588 55.903 168.777 55.5156 169.155C55.1328 169.534 54.9209 170.039 54.8799 170.673ZM61.7295 175V167.74H62.8369V168.841C63.1195 168.326 63.3792 167.986 63.6162 167.822C63.8577 167.658 64.1221 167.576 64.4092 167.576C64.8239 167.576 65.2454 167.708 65.6738 167.973L65.25 169.114C64.9492 168.937 64.6484 168.848 64.3477 168.848C64.0788 168.848 63.8372 168.93 63.623 169.094C63.4089 169.253 63.2562 169.477 63.165 169.764C63.0283 170.201 62.96 170.68 62.96 171.199V175H61.7295ZM70.2471 177.796L70.1104 176.641C70.3792 176.714 70.6139 176.75 70.8145 176.75C71.0879 176.75 71.3066 176.704 71.4707 176.613C71.6348 176.522 71.7692 176.395 71.874 176.23C71.9515 176.107 72.0768 175.802 72.25 175.314C72.2728 175.246 72.3092 175.146 72.3594 175.014L69.6045 167.74H70.9307L72.4414 171.944C72.6374 172.478 72.8128 173.038 72.9678 173.626C73.109 173.061 73.2777 172.509 73.4736 171.972L75.0254 167.74H76.2559L73.4941 175.123C73.1979 175.921 72.9678 176.47 72.8037 176.771C72.585 177.176 72.3343 177.472 72.0518 177.659C71.7692 177.851 71.432 177.946 71.04 177.946C70.8031 177.946 70.5387 177.896 70.2471 177.796ZM76.8438 171.37C76.8438 170.026 77.2174 169.03 77.9648 168.383C78.5892 167.845 79.3503 167.576 80.248 167.576C81.2461 167.576 82.0618 167.904 82.6953 168.561C83.3288 169.212 83.6455 170.115 83.6455 171.268C83.6455 172.202 83.5042 172.938 83.2217 173.476C82.9437 174.009 82.5358 174.424 81.998 174.72C81.4648 175.016 80.8815 175.164 80.248 175.164C79.2318 175.164 78.4092 174.838 77.7803 174.187C77.1559 173.535 76.8438 172.596 76.8438 171.37ZM78.1084 171.37C78.1084 172.3 78.3112 172.997 78.7168 173.462C79.1224 173.922 79.6328 174.152 80.248 174.152C80.8587 174.152 81.3669 173.92 81.7725 173.455C82.1781 172.99 82.3809 172.282 82.3809 171.329C82.3809 170.431 82.1758 169.752 81.7656 169.292C81.36 168.827 80.8542 168.595 80.248 168.595C79.6328 168.595 79.1224 168.825 78.7168 169.285C78.3112 169.745 78.1084 170.44 78.1084 171.37ZM89.8525 175V173.934C89.2874 174.754 88.5195 175.164 87.5488 175.164C87.1204 175.164 86.7194 175.082 86.3457 174.918C85.9766 174.754 85.7008 174.549 85.5186 174.303C85.3408 174.052 85.2155 173.747 85.1426 173.387C85.0924 173.145 85.0674 172.762 85.0674 172.238V167.74H86.2979V171.767C86.2979 172.409 86.3229 172.842 86.373 173.065C86.4505 173.389 86.6146 173.644 86.8652 173.831C87.1159 174.013 87.4258 174.104 87.7949 174.104C88.1641 174.104 88.5104 174.011 88.834 173.824C89.1576 173.633 89.3854 173.375 89.5176 173.052C89.6543 172.724 89.7227 172.25 89.7227 171.63V167.74H90.9531V175H89.8525ZM92.874 175V167.74H93.9814V168.841C94.264 168.326 94.5238 167.986 94.7607 167.822C95.0023 167.658 95.2666 167.576 95.5537 167.576C95.9684 167.576 96.39 167.708 96.8184 167.973L96.3945 169.114C96.0938 168.937 95.793 168.848 95.4922 168.848C95.2233 168.848 94.9818 168.93 94.7676 169.094C94.5534 169.253 94.4007 169.477 94.3096 169.764C94.1729 170.201 94.1045 170.68 94.1045 171.199V175H92.874ZM101.74 175V168.697H100.653V167.74H101.74V166.968C101.74 166.48 101.784 166.118 101.87 165.881C101.989 165.562 102.196 165.304 102.492 165.108C102.793 164.908 103.212 164.808 103.75 164.808C104.096 164.808 104.479 164.849 104.898 164.931L104.714 166.004C104.459 165.958 104.217 165.936 103.989 165.936C103.616 165.936 103.351 166.015 103.196 166.175C103.041 166.334 102.964 166.633 102.964 167.07V167.74H104.379V168.697H102.964V175H101.74ZM105.35 166.394V164.979H106.58V166.394H105.35ZM105.35 175V167.74H106.58V175H105.35ZM108.446 175V167.74H109.554V168.841C109.836 168.326 110.096 167.986 110.333 167.822C110.575 167.658 110.839 167.576 111.126 167.576C111.541 167.576 111.962 167.708 112.391 167.973L111.967 169.114C111.666 168.937 111.365 168.848 111.064 168.848C110.796 168.848 110.554 168.93 110.34 169.094C110.126 169.253 109.973 169.477 109.882 169.764C109.745 170.201 109.677 170.68 109.677 171.199V175H108.446ZM112.63 172.833L113.847 172.642C113.915 173.129 114.104 173.503 114.414 173.763C114.729 174.022 115.166 174.152 115.727 174.152C116.292 174.152 116.711 174.038 116.984 173.811C117.258 173.578 117.395 173.307 117.395 172.997C117.395 172.719 117.274 172.5 117.032 172.341C116.864 172.231 116.444 172.092 115.774 171.924C114.872 171.696 114.245 171.5 113.895 171.336C113.548 171.167 113.284 170.937 113.102 170.646C112.924 170.349 112.835 170.023 112.835 169.668C112.835 169.344 112.908 169.046 113.054 168.772C113.204 168.494 113.407 168.264 113.662 168.082C113.854 167.941 114.113 167.822 114.441 167.727C114.774 167.626 115.13 167.576 115.508 167.576C116.077 167.576 116.576 167.658 117.005 167.822C117.438 167.986 117.757 168.21 117.962 168.492C118.167 168.77 118.308 169.144 118.386 169.613L117.183 169.777C117.128 169.404 116.968 169.112 116.704 168.902C116.444 168.693 116.075 168.588 115.597 168.588C115.032 168.588 114.628 168.681 114.387 168.868C114.145 169.055 114.024 169.274 114.024 169.524C114.024 169.684 114.075 169.827 114.175 169.955C114.275 170.087 114.432 170.197 114.646 170.283C114.77 170.329 115.132 170.434 115.733 170.598C116.604 170.83 117.21 171.021 117.552 171.172C117.898 171.318 118.169 171.532 118.365 171.814C118.561 172.097 118.659 172.448 118.659 172.867C118.659 173.277 118.538 173.665 118.297 174.029C118.06 174.389 117.716 174.67 117.265 174.87C116.813 175.066 116.303 175.164 115.733 175.164C114.79 175.164 114.07 174.968 113.573 174.576C113.081 174.184 112.767 173.603 112.63 172.833ZM122.809 173.899L122.986 174.986C122.64 175.059 122.33 175.096 122.057 175.096C121.61 175.096 121.264 175.025 121.018 174.884C120.771 174.743 120.598 174.558 120.498 174.33C120.398 174.098 120.348 173.612 120.348 172.874V168.697H119.445V167.74H120.348V165.942L121.571 165.204V167.74H122.809V168.697H121.571V172.942C121.571 173.293 121.592 173.519 121.633 173.619C121.678 173.719 121.749 173.799 121.845 173.858C121.945 173.918 122.086 173.947 122.269 173.947C122.405 173.947 122.585 173.931 122.809 173.899ZM127.915 175V167.74H129.022V168.772C129.556 167.975 130.326 167.576 131.333 167.576C131.771 167.576 132.172 167.656 132.536 167.815C132.905 167.97 133.181 168.175 133.363 168.431C133.546 168.686 133.673 168.989 133.746 169.34C133.792 169.568 133.814 169.966 133.814 170.536V175H132.584V170.584C132.584 170.083 132.536 169.709 132.44 169.463C132.345 169.212 132.174 169.014 131.928 168.868C131.686 168.718 131.401 168.643 131.073 168.643C130.549 168.643 130.096 168.809 129.713 169.142C129.335 169.474 129.146 170.105 129.146 171.035V175H127.915ZM140.445 174.104C139.99 174.492 139.55 174.765 139.126 174.925C138.707 175.084 138.256 175.164 137.772 175.164C136.975 175.164 136.362 174.97 135.934 174.583C135.505 174.191 135.291 173.692 135.291 173.086C135.291 172.73 135.371 172.407 135.53 172.115C135.694 171.819 135.906 171.582 136.166 171.404C136.43 171.227 136.727 171.092 137.055 171.001C137.296 170.937 137.661 170.876 138.148 170.816C139.142 170.698 139.873 170.557 140.343 170.393C140.347 170.224 140.35 170.117 140.35 170.071C140.35 169.57 140.233 169.217 140.001 169.012C139.687 168.734 139.219 168.595 138.6 168.595C138.021 168.595 137.592 168.697 137.314 168.902C137.041 169.103 136.838 169.461 136.706 169.976L135.503 169.812C135.612 169.297 135.792 168.882 136.043 168.567C136.294 168.248 136.656 168.005 137.13 167.836C137.604 167.663 138.153 167.576 138.777 167.576C139.397 167.576 139.901 167.649 140.288 167.795C140.675 167.941 140.96 168.125 141.143 168.349C141.325 168.567 141.452 168.845 141.525 169.183C141.566 169.392 141.587 169.771 141.587 170.317V171.958C141.587 173.102 141.612 173.826 141.662 174.132C141.717 174.433 141.822 174.722 141.977 175H140.691C140.564 174.745 140.482 174.446 140.445 174.104ZM140.343 171.356C139.896 171.539 139.226 171.694 138.333 171.821C137.827 171.894 137.469 171.976 137.26 172.067C137.05 172.159 136.888 172.293 136.774 172.471C136.66 172.644 136.604 172.838 136.604 173.052C136.604 173.38 136.727 173.653 136.973 173.872C137.223 174.091 137.588 174.2 138.066 174.2C138.54 174.2 138.962 174.098 139.331 173.893C139.7 173.683 139.971 173.398 140.145 173.038C140.277 172.76 140.343 172.35 140.343 171.808V171.356ZM143.501 175V167.74H144.602V168.759C144.829 168.403 145.132 168.118 145.511 167.904C145.889 167.686 146.32 167.576 146.803 167.576C147.34 167.576 147.78 167.688 148.122 167.911C148.468 168.134 148.712 168.447 148.854 168.848C149.428 168 150.175 167.576 151.096 167.576C151.816 167.576 152.369 167.777 152.757 168.178C153.144 168.574 153.338 169.187 153.338 170.017V175H152.114V170.427C152.114 169.935 152.073 169.581 151.991 169.367C151.914 169.148 151.77 168.973 151.561 168.841C151.351 168.709 151.105 168.643 150.822 168.643C150.312 168.643 149.888 168.813 149.551 169.155C149.214 169.493 149.045 170.035 149.045 170.782V175H147.814V170.283C147.814 169.736 147.714 169.326 147.514 169.053C147.313 168.779 146.985 168.643 146.529 168.643C146.183 168.643 145.862 168.734 145.565 168.916C145.274 169.098 145.062 169.365 144.93 169.716C144.798 170.067 144.731 170.573 144.731 171.233V175H143.501ZM160.133 172.662L161.404 172.819C161.204 173.562 160.832 174.139 160.29 174.549C159.748 174.959 159.055 175.164 158.212 175.164C157.15 175.164 156.307 174.838 155.683 174.187C155.063 173.53 154.753 172.612 154.753 171.432C154.753 170.21 155.067 169.262 155.696 168.588C156.325 167.913 157.141 167.576 158.144 167.576C159.114 167.576 159.907 167.907 160.522 168.567C161.138 169.228 161.445 170.158 161.445 171.356C161.445 171.429 161.443 171.539 161.438 171.685H156.024C156.07 172.482 156.296 173.093 156.701 173.517C157.107 173.94 157.613 174.152 158.219 174.152C158.67 174.152 159.055 174.034 159.374 173.797C159.693 173.56 159.946 173.182 160.133 172.662ZM156.093 170.673H160.146C160.092 170.062 159.937 169.604 159.682 169.299C159.29 168.825 158.782 168.588 158.157 168.588C157.592 168.588 157.116 168.777 156.729 169.155C156.346 169.534 156.134 170.039 156.093 170.673Z" fill="#3E3E3D"/>
<path d="M374.192 49.112C373.915 49.112 373.696 49.0373 373.536 48.888C373.387 48.7387 373.312 48.52 373.312 48.232V38.616C373.312 38.328 373.387 38.1093 373.536 37.96C373.696 37.8 373.92 37.72 374.208 37.72H379.904C380.139 37.72 380.309 37.7787 380.416 37.896C380.533 38.0027 380.592 38.1627 380.592 38.376C380.592 38.6 380.533 38.7707 380.416 38.888C380.309 39.0053 380.139 39.064 379.904 39.064H374.976V42.664H379.584C379.797 42.664 379.963 42.7227 380.08 42.84C380.208 42.9467 380.272 43.1067 380.272 43.32C380.272 43.544 380.208 43.7147 380.08 43.832C379.963 43.9493 379.797 44.008 379.584 44.008H374.976V48.232C374.976 48.8187 374.715 49.112 374.192 49.112ZM384.591 49.144C383.801 49.144 383.119 48.9787 382.543 48.648C381.977 48.3173 381.535 47.848 381.215 47.24C380.895 46.632 380.735 45.9173 380.735 45.096C380.735 44.4667 380.825 43.9067 381.007 43.416C381.188 42.9253 381.444 42.504 381.775 42.152C382.116 41.7893 382.521 41.5173 382.991 41.336C383.471 41.144 384.004 41.048 384.591 41.048C385.369 41.048 386.041 41.2133 386.607 41.544C387.183 41.8747 387.631 42.344 387.951 42.952C388.271 43.5493 388.431 44.264 388.431 45.096C388.431 45.7147 388.34 46.2747 388.159 46.776C387.977 47.2773 387.716 47.704 387.375 48.056C387.044 48.408 386.639 48.68 386.159 48.872C385.689 49.0533 385.167 49.144 384.591 49.144ZM384.591 47.896C385.028 47.896 385.412 47.7893 385.743 47.576C386.073 47.3627 386.329 47.048 386.511 46.632C386.703 46.216 386.799 45.704 386.799 45.096C386.799 44.1787 386.596 43.4853 386.191 43.016C385.785 42.5467 385.252 42.312 384.591 42.312C384.143 42.312 383.753 42.4187 383.423 42.632C383.092 42.8347 382.831 43.144 382.639 43.56C382.457 43.976 382.367 44.488 382.367 45.096C382.367 46.0027 382.569 46.696 382.975 47.176C383.38 47.656 383.919 47.896 384.591 47.896ZM393.185 49.144C392.385 49.144 391.692 48.9787 391.105 48.648C390.529 48.3067 390.081 47.832 389.761 47.224C389.441 46.6053 389.281 45.88 389.281 45.048C389.281 44.4293 389.372 43.8747 389.553 43.384C389.735 42.8827 389.991 42.4613 390.321 42.12C390.663 41.7787 391.073 41.5173 391.553 41.336C392.044 41.144 392.588 41.048 393.185 41.048C393.559 41.048 393.948 41.1067 394.353 41.224C394.769 41.3307 395.153 41.512 395.505 41.768C395.644 41.8533 395.729 41.96 395.761 42.088C395.804 42.2053 395.809 42.328 395.777 42.456C395.756 42.584 395.697 42.696 395.601 42.792C395.516 42.8773 395.409 42.9307 395.281 42.952C395.153 42.9627 395.015 42.9253 394.865 42.84C394.609 42.6587 394.348 42.5307 394.081 42.456C393.815 42.3707 393.559 42.328 393.313 42.328C392.929 42.328 392.588 42.392 392.289 42.52C392.001 42.6373 391.756 42.8133 391.553 43.048C391.351 43.272 391.196 43.5547 391.089 43.896C390.993 44.2373 390.945 44.6267 390.945 45.064C390.945 45.9387 391.148 46.6267 391.553 47.128C391.969 47.6187 392.556 47.864 393.313 47.864C393.559 47.864 393.815 47.8267 394.081 47.752C394.348 47.6773 394.609 47.5493 394.865 47.368C395.015 47.2827 395.153 47.2507 395.281 47.272C395.409 47.2933 395.511 47.352 395.585 47.448C395.671 47.5333 395.724 47.64 395.745 47.768C395.777 47.8853 395.772 48.008 395.729 48.136C395.687 48.264 395.596 48.3707 395.457 48.456C395.116 48.7013 394.743 48.8773 394.337 48.984C393.943 49.0907 393.559 49.144 393.185 49.144ZM399.498 49.144C398.869 49.144 398.341 49.0267 397.914 48.792C397.498 48.5573 397.183 48.2107 396.97 47.752C396.767 47.2827 396.666 46.696 396.666 45.992V41.896C396.666 41.6187 396.735 41.416 396.874 41.288C397.013 41.1493 397.21 41.08 397.466 41.08C397.722 41.08 397.919 41.1493 398.058 41.288C398.207 41.416 398.282 41.6187 398.282 41.896V46.008C398.282 46.6373 398.41 47.1013 398.666 47.4C398.922 47.6987 399.327 47.848 399.882 47.848C400.49 47.848 400.981 47.6453 401.354 47.24C401.738 46.824 401.93 46.28 401.93 45.608V41.896C401.93 41.6187 401.999 41.416 402.138 41.288C402.277 41.1493 402.479 41.08 402.746 41.08C403.002 41.08 403.199 41.1493 403.338 41.288C403.477 41.416 403.546 41.6187 403.546 41.896V48.296C403.546 48.84 403.285 49.112 402.762 49.112C402.517 49.112 402.325 49.0427 402.186 48.904C402.047 48.7547 401.978 48.552 401.978 48.296V46.936L402.186 47.288C401.973 47.8853 401.631 48.344 401.162 48.664C400.693 48.984 400.138 49.144 399.498 49.144ZM408.06 49.144C407.59 49.144 407.105 49.0907 406.604 48.984C406.113 48.8773 405.66 48.696 405.243 48.44C405.105 48.344 405.009 48.2373 404.956 48.12C404.902 48.0027 404.881 47.8853 404.892 47.768C404.913 47.64 404.961 47.5333 405.036 47.448C405.121 47.352 405.222 47.2933 405.34 47.272C405.468 47.2507 405.601 47.2773 405.74 47.352C406.156 47.5867 406.556 47.752 406.94 47.848C407.324 47.9333 407.702 47.976 408.076 47.976C408.641 47.976 409.068 47.8747 409.356 47.672C409.644 47.4693 409.788 47.1973 409.788 46.856C409.788 46.5787 409.692 46.3653 409.5 46.216C409.308 46.056 409.02 45.9333 408.636 45.848L407.116 45.544C406.454 45.4053 405.953 45.16 405.612 44.808C405.27 44.456 405.1 44.008 405.1 43.464C405.1 42.9733 405.233 42.5467 405.5 42.184C405.766 41.8213 406.14 41.544 406.62 41.352C407.1 41.1493 407.654 41.048 408.284 41.048C408.753 41.048 409.196 41.1067 409.612 41.224C410.028 41.3413 410.412 41.5173 410.764 41.752C410.902 41.8267 410.993 41.928 411.036 42.056C411.078 42.1733 411.084 42.2907 411.052 42.408C411.03 42.5253 410.977 42.632 410.892 42.728C410.806 42.8133 410.7 42.8667 410.572 42.888C410.454 42.8987 410.321 42.8667 410.172 42.792C409.852 42.5893 409.532 42.4453 409.212 42.36C408.902 42.2747 408.593 42.232 408.284 42.232C407.718 42.232 407.292 42.3387 407.004 42.552C406.726 42.7547 406.588 43.032 406.588 43.384C406.588 43.6507 406.673 43.8693 406.844 44.04C407.014 44.2107 407.281 44.3333 407.644 44.408L409.164 44.712C409.857 44.8507 410.38 45.0853 410.732 45.416C411.094 45.7467 411.276 46.1947 411.276 46.76C411.276 47.496 410.982 48.0773 410.396 48.504C409.809 48.9307 409.03 49.144 408.06 49.144ZM416.238 49.144C415.384 49.144 414.648 48.984 414.03 48.664C413.422 48.3333 412.947 47.8693 412.606 47.272C412.275 46.664 412.11 45.944 412.11 45.112C412.11 44.3013 412.275 43.592 412.606 42.984C412.936 42.376 413.39 41.9013 413.966 41.56C414.542 41.2187 415.198 41.048 415.934 41.048C416.478 41.048 416.963 41.1387 417.39 41.32C417.816 41.4907 418.179 41.7467 418.478 42.088C418.787 42.4187 419.016 42.824 419.166 43.304C419.326 43.784 419.406 44.3227 419.406 44.92C419.406 45.1013 419.352 45.24 419.246 45.336C419.139 45.4213 418.979 45.464 418.766 45.464H413.39V44.472H418.318L418.046 44.696C418.046 44.1627 417.966 43.7093 417.806 43.336C417.656 42.9627 417.427 42.68 417.118 42.488C416.819 42.2853 416.446 42.184 415.998 42.184C415.496 42.184 415.07 42.3013 414.718 42.536C414.376 42.7707 414.115 43.096 413.934 43.512C413.752 43.928 413.662 44.4133 413.662 44.968V45.064C413.662 46.0027 413.88 46.712 414.318 47.192C414.766 47.6613 415.411 47.896 416.254 47.896C416.574 47.896 416.91 47.8533 417.262 47.768C417.624 47.6827 417.966 47.5387 418.286 47.336C418.467 47.2293 418.627 47.1813 418.766 47.192C418.915 47.2027 419.032 47.2507 419.118 47.336C419.214 47.4213 419.272 47.528 419.294 47.656C419.315 47.784 419.294 47.9173 419.23 48.056C419.166 48.184 419.054 48.3013 418.894 48.408C418.531 48.6533 418.11 48.84 417.63 48.968C417.15 49.0853 416.686 49.144 416.238 49.144ZM423.643 49.144C422.961 49.144 422.358 48.984 421.835 48.664C421.323 48.3333 420.923 47.864 420.635 47.256C420.347 46.6373 420.203 45.9173 420.203 45.096C420.203 44.2533 420.347 43.5333 420.635 42.936C420.923 42.3387 421.323 41.8747 421.835 41.544C422.358 41.2133 422.961 41.048 423.643 41.048C424.326 41.048 424.913 41.2187 425.403 41.56C425.905 41.8907 426.241 42.3387 426.411 42.904H426.235V38.424C426.235 38.1573 426.305 37.9547 426.443 37.816C426.582 37.6773 426.779 37.608 427.035 37.608C427.291 37.608 427.489 37.6773 427.627 37.816C427.777 37.9547 427.851 38.1573 427.851 38.424V48.296C427.851 48.552 427.782 48.7547 427.643 48.904C427.505 49.0427 427.307 49.112 427.051 49.112C426.795 49.112 426.598 49.0427 426.459 48.904C426.321 48.7547 426.251 48.552 426.251 48.296V46.888L426.427 47.24C426.257 47.816 425.921 48.28 425.419 48.632C424.929 48.9733 424.337 49.144 423.643 49.144ZM424.059 47.896C424.497 47.896 424.881 47.7893 425.211 47.576C425.542 47.3627 425.798 47.048 425.979 46.632C426.171 46.216 426.267 45.704 426.267 45.096C426.267 44.1787 426.065 43.4853 425.659 43.016C425.254 42.5467 424.721 42.312 424.059 42.312C423.611 42.312 423.222 42.4187 422.891 42.632C422.561 42.8347 422.299 43.144 422.107 43.56C421.926 43.976 421.835 44.488 421.835 45.096C421.835 46.0027 422.038 46.696 422.443 47.176C422.849 47.656 423.387 47.896 424.059 47.896ZM434.123 49.064C433.814 49.064 433.563 48.968 433.371 48.776C433.179 48.584 433.083 48.3387 433.083 48.04C433.083 47.7413 433.179 47.5013 433.371 47.32C433.563 47.128 433.814 47.032 434.123 47.032C434.432 47.032 434.678 47.128 434.859 47.32C435.04 47.5013 435.131 47.7413 435.131 48.04C435.131 48.3387 435.04 48.584 434.859 48.776C434.678 48.968 434.432 49.064 434.123 49.064ZM434.123 43.16C433.814 43.16 433.563 43.064 433.371 42.872C433.179 42.68 433.083 42.44 433.083 42.152C433.083 41.8427 433.179 41.5973 433.371 41.416C433.563 41.224 433.814 41.128 434.123 41.128C434.432 41.128 434.678 41.224 434.859 41.416C435.04 41.5973 435.131 41.8427 435.131 42.152C435.131 42.44 435.04 42.68 434.859 42.872C434.678 43.064 434.432 43.16 434.123 43.16ZM441.315 49C441.027 49 440.819 48.936 440.691 48.808C440.563 48.6693 440.499 48.4827 440.499 48.248C440.499 48.0987 440.536 47.9547 440.611 47.816C440.685 47.6773 440.792 47.5333 440.931 47.384L444.339 43.736C444.861 43.1813 445.235 42.6747 445.459 42.216C445.693 41.7467 445.811 41.2773 445.811 40.808C445.811 40.2107 445.629 39.7573 445.267 39.448C444.904 39.1387 444.371 38.984 443.667 38.984C443.24 38.984 442.829 39.048 442.435 39.176C442.04 39.304 441.645 39.512 441.251 39.8C441.091 39.9067 440.941 39.9547 440.803 39.944C440.664 39.9333 440.541 39.88 440.435 39.784C440.339 39.688 440.275 39.5707 440.243 39.432C440.211 39.2933 440.216 39.1493 440.259 39C440.301 38.8507 440.403 38.7227 440.563 38.616C441 38.2853 441.507 38.0293 442.083 37.848C442.659 37.6667 443.245 37.576 443.843 37.576C444.621 37.576 445.277 37.6987 445.811 37.944C446.355 38.1787 446.765 38.5253 447.043 38.984C447.32 39.4427 447.459 40.0027 447.459 40.664C447.459 41.112 447.384 41.5493 447.235 41.976C447.096 42.4027 446.877 42.84 446.579 43.288C446.291 43.7253 445.912 44.1893 445.443 44.68L442.211 48.072V47.608H447.299C447.533 47.608 447.715 47.6667 447.843 47.784C447.971 47.9013 448.035 48.072 448.035 48.296C448.035 48.52 447.971 48.696 447.843 48.824C447.715 48.9413 447.533 49 447.299 49H441.315ZM450.249 51.992C449.993 51.992 449.795 51.9227 449.657 51.784C449.518 51.6453 449.449 51.4427 449.449 51.176V41.896C449.449 41.6293 449.518 41.4267 449.657 41.288C449.795 41.1493 449.987 41.08 450.233 41.08C450.489 41.08 450.686 41.1493 450.825 41.288C450.963 41.4267 451.033 41.6293 451.033 41.896V43.288L450.857 42.952C451.027 42.376 451.363 41.9173 451.865 41.576C452.366 41.224 452.958 41.048 453.641 41.048C454.334 41.048 454.937 41.2133 455.449 41.544C455.971 41.8747 456.371 42.3387 456.649 42.936C456.937 43.5333 457.081 44.2533 457.081 45.096C457.081 45.9173 456.937 46.6373 456.649 47.256C456.371 47.864 455.977 48.3333 455.465 48.664C454.953 48.984 454.345 49.144 453.641 49.144C452.969 49.144 452.382 48.9733 451.881 48.632C451.379 48.2907 451.043 47.8373 450.873 47.272H451.065V51.176C451.065 51.4427 450.99 51.6453 450.841 51.784C450.702 51.9227 450.505 51.992 450.249 51.992ZM453.241 47.896C453.689 47.896 454.078 47.7893 454.409 47.576C454.739 47.3627 454.995 47.048 455.177 46.632C455.358 46.216 455.449 45.704 455.449 45.096C455.449 44.1787 455.246 43.4853 454.841 43.016C454.446 42.5467 453.913 42.312 453.241 42.312C452.803 42.312 452.414 42.4187 452.073 42.632C451.742 42.8347 451.486 43.144 451.305 43.56C451.123 43.976 451.033 44.488 451.033 45.096C451.033 46.0027 451.235 46.696 451.641 47.176C452.046 47.656 452.579 47.896 453.241 47.896ZM458.486 49.096C458.294 49.096 458.134 49.0427 458.006 48.936C457.889 48.8187 457.825 48.6747 457.814 48.504C457.814 48.3333 457.889 48.1467 458.038 47.944L460.742 44.568V45.368L458.214 42.216C458.043 42.024 457.963 41.8427 457.974 41.672C457.985 41.4907 458.054 41.3467 458.182 41.24C458.31 41.1333 458.465 41.08 458.646 41.08C458.849 41.08 459.014 41.1173 459.142 41.192C459.281 41.256 459.409 41.368 459.526 41.528L461.654 44.232H461.078L463.222 41.528C463.339 41.368 463.462 41.256 463.59 41.192C463.729 41.1173 463.894 41.08 464.086 41.08C464.278 41.08 464.433 41.1387 464.55 41.256C464.678 41.3627 464.742 41.5067 464.742 41.688C464.753 41.8587 464.678 42.04 464.518 42.232L461.99 45.336V44.616L464.694 47.944C464.854 48.136 464.929 48.3227 464.918 48.504C464.918 48.6747 464.854 48.8187 464.726 48.936C464.598 49.0427 464.438 49.096 464.246 49.096C464.054 49.096 463.889 49.0587 463.75 48.984C463.622 48.9093 463.494 48.7973 463.366 48.648L461.078 45.768H461.622L459.35 48.648C459.233 48.7867 459.105 48.8987 458.966 48.984C458.838 49.0587 458.678 49.096 458.486 49.096Z" fill="#201F1F"/>
<path d="M373.18 90V78.5469H381.031V80.4844H375.492V83.1953H380.273V85.1328H375.492V90H373.18ZM382.93 80.5781V78.5469H385.125V80.5781H382.93ZM382.93 90V81.7031H385.125V90H382.93ZM389.484 90H387.289V81.7031H389.328V82.8828C389.677 82.3255 389.99 81.9583 390.266 81.7812C390.547 81.6042 390.865 81.5156 391.219 81.5156C391.719 81.5156 392.201 81.6536 392.664 81.9297L391.984 83.8438C391.615 83.6042 391.271 83.4844 390.953 83.4844C390.646 83.4844 390.385 83.5703 390.172 83.7422C389.958 83.9089 389.789 84.2135 389.664 84.6562C389.544 85.099 389.484 86.026 389.484 87.4375V90ZM392.844 87.6328L395.047 87.2969C395.141 87.724 395.331 88.0495 395.617 88.2734C395.904 88.4922 396.305 88.6016 396.82 88.6016C397.388 88.6016 397.815 88.4974 398.102 88.2891C398.294 88.1432 398.391 87.9479 398.391 87.7031C398.391 87.5365 398.339 87.3984 398.234 87.2891C398.125 87.1849 397.88 87.0885 397.5 87C395.729 86.6094 394.607 86.2526 394.133 85.9297C393.477 85.4818 393.148 84.8594 393.148 84.0625C393.148 83.3438 393.432 82.7396 394 82.25C394.568 81.7604 395.448 81.5156 396.641 81.5156C397.776 81.5156 398.62 81.7005 399.172 82.0703C399.724 82.4401 400.104 82.987 400.312 83.7109L398.242 84.0938C398.154 83.7708 397.984 83.5234 397.734 83.3516C397.49 83.1797 397.138 83.0938 396.68 83.0938C396.102 83.0938 395.688 83.1745 395.438 83.3359C395.271 83.4505 395.188 83.599 395.188 83.7812C395.188 83.9375 395.26 84.0703 395.406 84.1797C395.604 84.3255 396.286 84.5312 397.453 84.7969C398.625 85.0625 399.443 85.388 399.906 85.7734C400.365 86.1641 400.594 86.7083 400.594 87.4062C400.594 88.1667 400.276 88.8203 399.641 89.3672C399.005 89.9141 398.065 90.1875 396.82 90.1875C395.69 90.1875 394.794 89.9583 394.133 89.5C393.477 89.0417 393.047 88.4193 392.844 87.6328ZM406.328 81.7031V83.4531H404.828V86.7969C404.828 87.474 404.841 87.8698 404.867 87.9844C404.898 88.0938 404.964 88.1849 405.062 88.2578C405.167 88.3307 405.292 88.3672 405.438 88.3672C405.641 88.3672 405.935 88.2969 406.32 88.1562L406.508 89.8594C405.997 90.0781 405.419 90.1875 404.773 90.1875C404.378 90.1875 404.021 90.1224 403.703 89.9922C403.385 89.8568 403.151 89.6849 403 89.4766C402.854 89.263 402.753 88.9766 402.695 88.6172C402.648 88.362 402.625 87.8464 402.625 87.0703V83.4531H401.617V81.7031H402.625V80.0547L404.828 78.7734V81.7031H406.328ZM419.852 90H417.656V85.7656C417.656 84.8698 417.609 84.2917 417.516 84.0312C417.422 83.7656 417.268 83.5599 417.055 83.4141C416.846 83.2682 416.594 83.1953 416.297 83.1953C415.917 83.1953 415.576 83.2995 415.273 83.5078C414.971 83.7161 414.763 83.9922 414.648 84.3359C414.539 84.6797 414.484 85.3151 414.484 86.2422V90H412.289V81.7031H414.328V82.9219C415.052 81.9844 415.964 81.5156 417.062 81.5156C417.547 81.5156 417.99 81.6042 418.391 81.7812C418.792 81.9531 419.094 82.1745 419.297 82.4453C419.505 82.7161 419.648 83.0234 419.727 83.3672C419.81 83.7109 419.852 84.2031 419.852 84.8438V90ZM423.727 84.2344L421.734 83.875C421.958 83.0729 422.344 82.4792 422.891 82.0938C423.438 81.7083 424.25 81.5156 425.328 81.5156C426.307 81.5156 427.036 81.6328 427.516 81.8672C427.995 82.0964 428.331 82.3906 428.523 82.75C428.721 83.1042 428.82 83.7578 428.82 84.7109L428.797 87.2734C428.797 88.0026 428.831 88.5417 428.898 88.8906C428.971 89.2344 429.104 89.6042 429.297 90H427.125C427.068 89.8542 426.997 89.638 426.914 89.3516C426.878 89.2214 426.852 89.1354 426.836 89.0938C426.461 89.4583 426.06 89.7318 425.633 89.9141C425.206 90.0964 424.75 90.1875 424.266 90.1875C423.411 90.1875 422.737 89.9557 422.242 89.4922C421.753 89.0286 421.508 88.4427 421.508 87.7344C421.508 87.2656 421.62 86.849 421.844 86.4844C422.068 86.1146 422.38 85.8333 422.781 85.6406C423.188 85.4427 423.771 85.2708 424.531 85.125C425.557 84.9323 426.268 84.7526 426.664 84.5859V84.3672C426.664 83.9453 426.56 83.6458 426.352 83.4688C426.143 83.2865 425.75 83.1953 425.172 83.1953C424.781 83.1953 424.477 83.2734 424.258 83.4297C424.039 83.5807 423.862 83.849 423.727 84.2344ZM426.664 86.0156C426.383 86.1094 425.938 86.2214 425.328 86.3516C424.719 86.4818 424.32 86.6094 424.133 86.7344C423.846 86.9375 423.703 87.1953 423.703 87.5078C423.703 87.8151 423.818 88.0807 424.047 88.3047C424.276 88.5286 424.568 88.6406 424.922 88.6406C425.318 88.6406 425.695 88.5104 426.055 88.25C426.32 88.0521 426.495 87.8099 426.578 87.5234C426.635 87.3359 426.664 86.9792 426.664 86.4531V86.0156ZM430.828 81.7031H432.852V82.8359C433.576 81.9557 434.438 81.5156 435.438 81.5156C435.969 81.5156 436.43 81.625 436.82 81.8438C437.211 82.0625 437.531 82.3932 437.781 82.8359C438.146 82.3932 438.539 82.0625 438.961 81.8438C439.383 81.625 439.833 81.5156 440.312 81.5156C440.922 81.5156 441.438 81.6406 441.859 81.8906C442.281 82.1354 442.596 82.4974 442.805 82.9766C442.956 83.3307 443.031 83.9036 443.031 84.6953V90H440.836V85.2578C440.836 84.4349 440.76 83.9036 440.609 83.6641C440.406 83.3516 440.094 83.1953 439.672 83.1953C439.365 83.1953 439.076 83.2891 438.805 83.4766C438.534 83.6641 438.339 83.9401 438.219 84.3047C438.099 84.6641 438.039 85.2344 438.039 86.0156V90H435.844V85.4531C435.844 84.6458 435.805 84.125 435.727 83.8906C435.648 83.6562 435.526 83.4818 435.359 83.3672C435.198 83.2526 434.977 83.1953 434.695 83.1953C434.357 83.1953 434.052 83.2865 433.781 83.4688C433.51 83.651 433.315 83.9141 433.195 84.2578C433.081 84.6016 433.023 85.1719 433.023 85.9688V90H430.828V81.7031ZM450.031 87.3594L452.219 87.7266C451.938 88.5286 451.492 89.1406 450.883 89.5625C450.279 89.9792 449.521 90.1875 448.609 90.1875C447.167 90.1875 446.099 89.7161 445.406 88.7734C444.859 88.0182 444.586 87.0651 444.586 85.9141C444.586 84.5391 444.945 83.4635 445.664 82.6875C446.383 81.9062 447.292 81.5156 448.391 81.5156C449.625 81.5156 450.599 81.9245 451.312 82.7422C452.026 83.5547 452.367 84.8021 452.336 86.4844H446.836C446.852 87.1354 447.029 87.6432 447.367 88.0078C447.706 88.3672 448.128 88.5469 448.633 88.5469C448.977 88.5469 449.266 88.4531 449.5 88.2656C449.734 88.0781 449.911 87.776 450.031 87.3594ZM450.156 85.1406C450.141 84.5052 449.977 84.0234 449.664 83.6953C449.352 83.362 448.971 83.1953 448.523 83.1953C448.044 83.1953 447.648 83.3698 447.336 83.7188C447.023 84.0677 446.87 84.5417 446.875 85.1406H450.156Z" fill="#201F1F"/>
<mask id="path-9-inside-2_968_8575" fill="white">
<path d="M372 123.2C372 116.479 372 113.119 373.308 110.552C374.458 108.294 376.294 106.458 378.552 105.308C381.119 104 384.479 104 391.2 104H660.8C667.521 104 670.881 104 673.448 105.308C675.706 106.458 677.542 108.294 678.692 110.552C680 113.119 680 116.479 680 123.2V132.8C680 139.521 680 142.881 678.692 145.448C677.542 147.706 675.706 149.542 673.448 150.692C670.881 152 667.521 152 660.8 152H391.2C384.479 152 381.119 152 378.552 150.692C376.294 149.542 374.458 147.706 373.308 145.448C372 142.881 372 139.521 372 132.8V123.2Z"/>
</mask>
<path d="M372 123.2C372 116.479 372 113.119 373.308 110.552C374.458 108.294 376.294 106.458 378.552 105.308C381.119 104 384.479 104 391.2 104H660.8C667.521 104 670.881 104 673.448 105.308C675.706 106.458 677.542 108.294 678.692 110.552C680 113.119 680 116.479 680 123.2V132.8C680 139.521 680 142.881 678.692 145.448C677.542 147.706 675.706 149.542 673.448 150.692C670.881 152 667.521 152 660.8 152H391.2C384.479 152 381.119 152 378.552 150.692C376.294 149.542 374.458 147.706 373.308 145.448C372 142.881 372 139.521 372 132.8V123.2Z" fill="white"/>
<path d="M378.552 150.692L377.644 152.474L378.552 150.692ZM373.308 145.448L371.526 146.356L373.308 145.448ZM678.692 145.448L676.91 144.54L678.692 145.448ZM673.448 150.692L672.54 148.91L673.448 150.692ZM673.448 105.308L672.54 107.09L673.448 105.308ZM678.692 110.552L676.91 111.46L678.692 110.552ZM391.2 104V106H660.8V104V102H391.2V104ZM680 123.2H678V132.8H680H682V123.2H680ZM660.8 152V150H391.2V152V154H660.8V152ZM372 132.8H374V123.2H372H370V132.8H372ZM391.2 152V150C387.807 150 385.382 149.998 383.481 149.843C381.604 149.69 380.415 149.396 379.46 148.91L378.552 150.692L377.644 152.474C379.257 153.296 381.031 153.656 383.156 153.83C385.257 154.002 387.873 154 391.2 154V152ZM372 132.8H370C370 136.127 369.998 138.743 370.17 140.844C370.344 142.969 370.704 144.743 371.526 146.356L373.308 145.448L375.09 144.54C374.604 143.585 374.31 142.396 374.157 140.519C374.002 138.618 374 136.193 374 132.8H372ZM378.552 150.692L379.46 148.91C377.578 147.951 376.049 146.422 375.09 144.54L373.308 145.448L371.526 146.356C372.868 148.99 375.01 151.132 377.644 152.474L378.552 150.692ZM680 132.8H678C678 136.193 677.998 138.618 677.843 140.519C677.69 142.396 677.396 143.585 676.91 144.54L678.692 145.448L680.474 146.356C681.296 144.743 681.656 142.969 681.83 140.844C682.002 138.743 682 136.127 682 132.8H680ZM660.8 152V154C664.127 154 666.743 154.002 668.844 153.83C670.969 153.656 672.743 153.296 674.356 152.474L673.448 150.692L672.54 148.91C671.585 149.396 670.396 149.69 668.519 149.843C666.618 149.998 664.193 150 660.8 150V152ZM678.692 145.448L676.91 144.54C675.951 146.422 674.422 147.951 672.54 148.91L673.448 150.692L674.356 152.474C676.99 151.132 679.132 148.99 680.474 146.356L678.692 145.448ZM660.8 104V106C664.193 106 666.618 106.002 668.519 106.157C670.396 106.31 671.585 106.604 672.54 107.09L673.448 105.308L674.356 103.526C672.743 102.704 670.969 102.344 668.844 102.17C666.743 101.998 664.127 102 660.8 102V104ZM680 123.2H682C682 119.873 682.002 117.257 681.83 115.156C681.656 113.031 681.296 111.257 680.474 109.644L678.692 110.552L676.91 111.46C677.396 112.415 677.69 113.604 677.843 115.481C677.998 117.382 678 119.807 678 123.2H680ZM673.448 105.308L672.54 107.09C674.422 108.049 675.951 109.578 676.91 111.46L678.692 110.552L680.474 109.644C679.132 107.01 676.99 104.868 674.356 103.526L673.448 105.308ZM391.2 104V102C387.873 102 385.257 101.998 383.156 102.17C381.031 102.344 379.257 102.704 377.644 103.526L378.552 105.308L379.46 107.09C380.415 106.604 381.604 106.31 383.481 106.157C385.382 106.002 387.807 106 391.2 106V104ZM372 123.2H374C374 119.807 374.002 117.382 374.157 115.481C374.31 113.604 374.604 112.415 375.09 111.46L373.308 110.552L371.526 109.644C370.704 111.257 370.344 113.031 370.17 115.156C369.998 117.257 370 119.873 370 123.2H372ZM378.552 105.308L377.644 103.526C375.01 104.868 372.868 107.01 371.526 109.644L373.308 110.552L375.09 111.46C376.049 109.578 377.578 108.049 379.46 107.09L378.552 105.308Z" fill="#1F3B5B" mask="url(#path-9-inside-2_968_8575)"/>
<g clip-path="url(#clip0_968_8575)">
<path d="M391.182 118.614V137.75H390.045V118.614H391.182Z" fill="#3E3E3D"/>
</g>
<path d="M373.107 175V164.979H380.354V166.161H374.434V169.23H379.978V170.406H374.434V173.817H380.586V175H373.107ZM382.261 175V167.74H383.368V168.772C383.901 167.975 384.672 167.576 385.679 167.576C386.116 167.576 386.517 167.656 386.882 167.815C387.251 167.97 387.527 168.175 387.709 168.431C387.891 168.686 388.019 168.989 388.092 169.34C388.137 169.568 388.16 169.966 388.16 170.536V175H386.93V170.584C386.93 170.083 386.882 169.709 386.786 169.463C386.69 169.212 386.52 169.014 386.273 168.868C386.032 168.718 385.747 168.643 385.419 168.643C384.895 168.643 384.441 168.809 384.059 169.142C383.68 169.474 383.491 170.105 383.491 171.035V175H382.261ZM392.74 173.899L392.918 174.986C392.572 175.059 392.262 175.096 391.988 175.096C391.542 175.096 391.195 175.025 390.949 174.884C390.703 174.743 390.53 174.558 390.43 174.33C390.329 174.098 390.279 173.612 390.279 172.874V168.697H389.377V167.74H390.279V165.942L391.503 165.204V167.74H392.74V168.697H391.503V172.942C391.503 173.293 391.523 173.519 391.564 173.619C391.61 173.719 391.681 173.799 391.776 173.858C391.877 173.918 392.018 173.947 392.2 173.947C392.337 173.947 392.517 173.931 392.74 173.899ZM398.92 172.662L400.191 172.819C399.991 173.562 399.619 174.139 399.077 174.549C398.535 174.959 397.842 175.164 396.999 175.164C395.937 175.164 395.094 174.838 394.47 174.187C393.85 173.53 393.54 172.612 393.54 171.432C393.54 170.21 393.854 169.262 394.483 168.588C395.112 167.913 395.928 167.576 396.931 167.576C397.901 167.576 398.694 167.907 399.31 168.567C399.925 169.228 400.232 170.158 400.232 171.356C400.232 171.429 400.23 171.539 400.226 171.685H394.812C394.857 172.482 395.083 173.093 395.488 173.517C395.894 173.94 396.4 174.152 397.006 174.152C397.457 174.152 397.842 174.034 398.161 173.797C398.48 173.56 398.733 173.182 398.92 172.662ZM394.88 170.673H398.934C398.879 170.062 398.724 169.604 398.469 169.299C398.077 168.825 397.569 168.588 396.944 168.588C396.379 168.588 395.903 168.777 395.516 169.155C395.133 169.534 394.921 170.039 394.88 170.673ZM401.729 175V167.74H402.837V168.841C403.119 168.326 403.379 167.986 403.616 167.822C403.858 167.658 404.122 167.576 404.409 167.576C404.824 167.576 405.245 167.708 405.674 167.973L405.25 169.114C404.949 168.937 404.648 168.848 404.348 168.848C404.079 168.848 403.837 168.93 403.623 169.094C403.409 169.253 403.256 169.477 403.165 169.764C403.028 170.201 402.96 170.68 402.96 171.199V175H401.729ZM410.247 177.796L410.11 176.641C410.379 176.714 410.614 176.75 410.814 176.75C411.088 176.75 411.307 176.704 411.471 176.613C411.635 176.522 411.769 176.395 411.874 176.23C411.951 176.107 412.077 175.802 412.25 175.314C412.273 175.246 412.309 175.146 412.359 175.014L409.604 167.74H410.931L412.441 171.944C412.637 172.478 412.813 173.038 412.968 173.626C413.109 173.061 413.278 172.509 413.474 171.972L415.025 167.74H416.256L413.494 175.123C413.198 175.921 412.968 176.47 412.804 176.771C412.585 177.176 412.334 177.472 412.052 177.659C411.769 177.851 411.432 177.946 411.04 177.946C410.803 177.946 410.539 177.896 410.247 177.796ZM416.844 171.37C416.844 170.026 417.217 169.03 417.965 168.383C418.589 167.845 419.35 167.576 420.248 167.576C421.246 167.576 422.062 167.904 422.695 168.561C423.329 169.212 423.646 170.115 423.646 171.268C423.646 172.202 423.504 172.938 423.222 173.476C422.944 174.009 422.536 174.424 421.998 174.72C421.465 175.016 420.882 175.164 420.248 175.164C419.232 175.164 418.409 174.838 417.78 174.187C417.156 173.535 416.844 172.596 416.844 171.37ZM418.108 171.37C418.108 172.3 418.311 172.997 418.717 173.462C419.122 173.922 419.633 174.152 420.248 174.152C420.859 174.152 421.367 173.92 421.772 173.455C422.178 172.99 422.381 172.282 422.381 171.329C422.381 170.431 422.176 169.752 421.766 169.292C421.36 168.827 420.854 168.595 420.248 168.595C419.633 168.595 419.122 168.825 418.717 169.285C418.311 169.745 418.108 170.44 418.108 171.37ZM429.853 175V173.934C429.287 174.754 428.52 175.164 427.549 175.164C427.12 175.164 426.719 175.082 426.346 174.918C425.977 174.754 425.701 174.549 425.519 174.303C425.341 174.052 425.215 173.747 425.143 173.387C425.092 173.145 425.067 172.762 425.067 172.238V167.74H426.298V171.767C426.298 172.409 426.323 172.842 426.373 173.065C426.451 173.389 426.615 173.644 426.865 173.831C427.116 174.013 427.426 174.104 427.795 174.104C428.164 174.104 428.51 174.011 428.834 173.824C429.158 173.633 429.385 173.375 429.518 173.052C429.654 172.724 429.723 172.25 429.723 171.63V167.74H430.953V175H429.853ZM432.874 175V167.74H433.981V168.841C434.264 168.326 434.524 167.986 434.761 167.822C435.002 167.658 435.267 167.576 435.554 167.576C435.968 167.576 436.39 167.708 436.818 167.973L436.395 169.114C436.094 168.937 435.793 168.848 435.492 168.848C435.223 168.848 434.982 168.93 434.768 169.094C434.553 169.253 434.401 169.477 434.31 169.764C434.173 170.201 434.104 170.68 434.104 171.199V175H432.874ZM441.74 175V168.697H440.653V167.74H441.74V166.968C441.74 166.48 441.784 166.118 441.87 165.881C441.989 165.562 442.196 165.304 442.492 165.108C442.793 164.908 443.212 164.808 443.75 164.808C444.096 164.808 444.479 164.849 444.898 164.931L444.714 166.004C444.459 165.958 444.217 165.936 443.989 165.936C443.616 165.936 443.351 166.015 443.196 166.175C443.041 166.334 442.964 166.633 442.964 167.07V167.74H444.379V168.697H442.964V175H441.74ZM445.35 166.394V164.979H446.58V166.394H445.35ZM445.35 175V167.74H446.58V175H445.35ZM448.446 175V167.74H449.554V168.841C449.836 168.326 450.096 167.986 450.333 167.822C450.575 167.658 450.839 167.576 451.126 167.576C451.541 167.576 451.962 167.708 452.391 167.973L451.967 169.114C451.666 168.937 451.365 168.848 451.064 168.848C450.796 168.848 450.554 168.93 450.34 169.094C450.126 169.253 449.973 169.477 449.882 169.764C449.745 170.201 449.677 170.68 449.677 171.199V175H448.446ZM452.63 172.833L453.847 172.642C453.915 173.129 454.104 173.503 454.414 173.763C454.729 174.022 455.166 174.152 455.727 174.152C456.292 174.152 456.711 174.038 456.984 173.811C457.258 173.578 457.395 173.307 457.395 172.997C457.395 172.719 457.274 172.5 457.032 172.341C456.864 172.231 456.444 172.092 455.774 171.924C454.872 171.696 454.245 171.5 453.895 171.336C453.548 171.167 453.284 170.937 453.102 170.646C452.924 170.349 452.835 170.023 452.835 169.668C452.835 169.344 452.908 169.046 453.054 168.772C453.204 168.494 453.407 168.264 453.662 168.082C453.854 167.941 454.113 167.822 454.441 167.727C454.774 167.626 455.13 167.576 455.508 167.576C456.077 167.576 456.576 167.658 457.005 167.822C457.438 167.986 457.757 168.21 457.962 168.492C458.167 168.77 458.308 169.144 458.386 169.613L457.183 169.777C457.128 169.404 456.968 169.112 456.704 168.902C456.444 168.693 456.075 168.588 455.597 168.588C455.032 168.588 454.628 168.681 454.387 168.868C454.145 169.055 454.024 169.274 454.024 169.524C454.024 169.684 454.075 169.827 454.175 169.955C454.275 170.087 454.432 170.197 454.646 170.283C454.77 170.329 455.132 170.434 455.733 170.598C456.604 170.83 457.21 171.021 457.552 171.172C457.898 171.318 458.169 171.532 458.365 171.814C458.561 172.097 458.659 172.448 458.659 172.867C458.659 173.277 458.538 173.665 458.297 174.029C458.06 174.389 457.716 174.67 457.265 174.87C456.813 175.066 456.303 175.164 455.733 175.164C454.79 175.164 454.07 174.968 453.573 174.576C453.081 174.184 452.767 173.603 452.63 172.833ZM462.809 173.899L462.986 174.986C462.64 175.059 462.33 175.096 462.057 175.096C461.61 175.096 461.264 175.025 461.018 174.884C460.771 174.743 460.598 174.558 460.498 174.33C460.398 174.098 460.348 173.612 460.348 172.874V168.697H459.445V167.74H460.348V165.942L461.571 165.204V167.74H462.809V168.697H461.571V172.942C461.571 173.293 461.592 173.519 461.633 173.619C461.678 173.719 461.749 173.799 461.845 173.858C461.945 173.918 462.086 173.947 462.269 173.947C462.405 173.947 462.585 173.931 462.809 173.899ZM467.915 175V167.74H469.022V168.772C469.556 167.975 470.326 167.576 471.333 167.576C471.771 167.576 472.172 167.656 472.536 167.815C472.905 167.97 473.181 168.175 473.363 168.431C473.546 168.686 473.673 168.989 473.746 169.34C473.792 169.568 473.814 169.966 473.814 170.536V175H472.584V170.584C472.584 170.083 472.536 169.709 472.44 169.463C472.345 169.212 472.174 169.014 471.928 168.868C471.686 168.718 471.401 168.643 471.073 168.643C470.549 168.643 470.096 168.809 469.713 169.142C469.335 169.474 469.146 170.105 469.146 171.035V175H467.915ZM480.445 174.104C479.99 174.492 479.55 174.765 479.126 174.925C478.707 175.084 478.256 175.164 477.772 175.164C476.975 175.164 476.362 174.97 475.934 174.583C475.505 174.191 475.291 173.692 475.291 173.086C475.291 172.73 475.371 172.407 475.53 172.115C475.694 171.819 475.906 171.582 476.166 171.404C476.43 171.227 476.727 171.092 477.055 171.001C477.296 170.937 477.661 170.876 478.148 170.816C479.142 170.698 479.873 170.557 480.343 170.393C480.347 170.224 480.35 170.117 480.35 170.071C480.35 169.57 480.233 169.217 480.001 169.012C479.687 168.734 479.219 168.595 478.6 168.595C478.021 168.595 477.592 168.697 477.314 168.902C477.041 169.103 476.838 169.461 476.706 169.976L475.503 169.812C475.612 169.297 475.792 168.882 476.043 168.567C476.294 168.248 476.656 168.005 477.13 167.836C477.604 167.663 478.153 167.576 478.777 167.576C479.397 167.576 479.901 167.649 480.288 167.795C480.675 167.941 480.96 168.125 481.143 168.349C481.325 168.567 481.452 168.845 481.525 169.183C481.566 169.392 481.587 169.771 481.587 170.317V171.958C481.587 173.102 481.612 173.826 481.662 174.132C481.717 174.433 481.822 174.722 481.977 175H480.691C480.564 174.745 480.482 174.446 480.445 174.104ZM480.343 171.356C479.896 171.539 479.226 171.694 478.333 171.821C477.827 171.894 477.469 171.976 477.26 172.067C477.05 172.159 476.888 172.293 476.774 172.471C476.66 172.644 476.604 172.838 476.604 173.052C476.604 173.38 476.727 173.653 476.973 173.872C477.223 174.091 477.588 174.2 478.066 174.2C478.54 174.2 478.962 174.098 479.331 173.893C479.7 173.683 479.971 173.398 480.145 173.038C480.277 172.76 480.343 172.35 480.343 171.808V171.356ZM483.501 175V167.74H484.602V168.759C484.829 168.403 485.132 168.118 485.511 167.904C485.889 167.686 486.32 167.576 486.803 167.576C487.34 167.576 487.78 167.688 488.122 167.911C488.468 168.134 488.712 168.447 488.854 168.848C489.428 168 490.175 167.576 491.096 167.576C491.816 167.576 492.369 167.777 492.757 168.178C493.144 168.574 493.338 169.187 493.338 170.017V175H492.114V170.427C492.114 169.935 492.073 169.581 491.991 169.367C491.914 169.148 491.77 168.973 491.561 168.841C491.351 168.709 491.105 168.643 490.822 168.643C490.312 168.643 489.888 168.813 489.551 169.155C489.214 169.493 489.045 170.035 489.045 170.782V175H487.814V170.283C487.814 169.736 487.714 169.326 487.514 169.053C487.313 168.779 486.985 168.643 486.529 168.643C486.183 168.643 485.862 168.734 485.565 168.916C485.274 169.098 485.062 169.365 484.93 169.716C484.798 170.067 484.731 170.573 484.731 171.233V175H483.501ZM500.133 172.662L501.404 172.819C501.204 173.562 500.832 174.139 500.29 174.549C499.748 174.959 499.055 175.164 498.212 175.164C497.15 175.164 496.307 174.838 495.683 174.187C495.063 173.53 494.753 172.612 494.753 171.432C494.753 170.21 495.067 169.262 495.696 168.588C496.325 167.913 497.141 167.576 498.144 167.576C499.114 167.576 499.907 167.907 500.522 168.567C501.138 169.228 501.445 170.158 501.445 171.356C501.445 171.429 501.443 171.539 501.438 171.685H496.024C496.07 172.482 496.296 173.093 496.701 173.517C497.107 173.94 497.613 174.152 498.219 174.152C498.67 174.152 499.055 174.034 499.374 173.797C499.693 173.56 499.946 173.182 500.133 172.662ZM496.093 170.673H500.146C500.092 170.062 499.937 169.604 499.682 169.299C499.29 168.825 498.782 168.588 498.157 168.588C497.592 168.588 497.116 168.777 496.729 169.155C496.346 169.534 496.134 170.039 496.093 170.673Z" fill="#3E3E3D"/>
<defs>
<clipPath id="clip0_968_8575">
<rect width="276" height="24" fill="white" transform="translate(388 116)"/>
</clipPath>
</defs>
</svg>
