<svg width="712" height="360" viewBox="0 0 712 360" fill="none" xmlns="http://www.w3.org/2000/svg">
<path d="M8 0.5H704C708.142 0.5 711.5 3.85786 711.5 8V352C711.5 356.142 708.142 359.5 704 359.5H8C3.85786 359.5 0.5 356.142 0.5 352V8C0.5 3.85786 3.85786 0.5 8 0.5Z" fill="white"/>
<path d="M8 0.5H704C708.142 0.5 711.5 3.85786 711.5 8V352C711.5 356.142 708.142 359.5 704 359.5H8C3.85786 359.5 0.5 356.142 0.5 352V8C0.5 3.85786 3.85786 0.5 8 0.5Z" stroke="#737272"/>
<path d="M273.609 38.5469H278.188C279.094 38.5469 279.768 38.5859 280.211 38.6641C280.659 38.737 281.057 38.8932 281.406 39.1328C281.76 39.3724 282.055 39.6927 282.289 40.0938C282.523 40.4896 282.641 40.9349 282.641 41.4297C282.641 41.9661 282.495 42.4583 282.203 42.9062C281.917 43.3542 281.526 43.6901 281.031 43.9141C281.729 44.1172 282.266 44.4635 282.641 44.9531C283.016 45.4427 283.203 46.0182 283.203 46.6797C283.203 47.2005 283.081 47.7083 282.836 48.2031C282.596 48.6927 282.266 49.0859 281.844 49.3828C281.427 49.6745 280.911 49.8542 280.297 49.9219C279.911 49.9635 278.982 49.9896 277.508 50H273.609V38.5469ZM275.922 40.4531V43.1016H277.438C278.339 43.1016 278.898 43.0885 279.117 43.0625C279.513 43.0156 279.823 42.8802 280.047 42.6562C280.276 42.4271 280.391 42.1276 280.391 41.7578C280.391 41.4036 280.292 41.1172 280.094 40.8984C279.901 40.6745 279.612 40.5391 279.227 40.4922C278.997 40.4661 278.339 40.4531 277.25 40.4531H275.922ZM275.922 45.0078V48.0703H278.062C278.896 48.0703 279.424 48.0469 279.648 48C279.992 47.9375 280.271 47.7865 280.484 47.5469C280.703 47.3021 280.812 46.9766 280.812 46.5703C280.812 46.2266 280.729 45.9349 280.562 45.6953C280.396 45.4557 280.154 45.2812 279.836 45.1719C279.523 45.0625 278.841 45.0078 277.789 45.0078H275.922ZM285.148 50V38.5469H287.344V50H285.148ZM294.406 47.3594L296.594 47.7266C296.312 48.5286 295.867 49.1406 295.258 49.5625C294.654 49.9792 293.896 50.1875 292.984 50.1875C291.542 50.1875 290.474 49.7161 289.781 48.7734C289.234 48.0182 288.961 47.0651 288.961 45.9141C288.961 44.5391 289.32 43.4635 290.039 42.6875C290.758 41.9062 291.667 41.5156 292.766 41.5156C294 41.5156 294.974 41.9245 295.688 42.7422C296.401 43.5547 296.742 44.8021 296.711 46.4844H291.211C291.227 47.1354 291.404 47.6432 291.742 48.0078C292.081 48.3672 292.503 48.5469 293.008 48.5469C293.352 48.5469 293.641 48.4531 293.875 48.2656C294.109 48.0781 294.286 47.776 294.406 47.3594ZM294.531 45.1406C294.516 44.5052 294.352 44.0234 294.039 43.6953C293.727 43.362 293.346 43.1953 292.898 43.1953C292.419 43.1953 292.023 43.3698 291.711 43.7188C291.398 44.0677 291.245 44.5417 291.25 45.1406H294.531ZM303.969 50V48.7578C303.667 49.2005 303.268 49.5495 302.773 49.8047C302.284 50.0599 301.766 50.1875 301.219 50.1875C300.661 50.1875 300.161 50.0651 299.719 49.8203C299.276 49.5755 298.956 49.2318 298.758 48.7891C298.56 48.3464 298.461 47.7344 298.461 46.9531V41.7031H300.656V45.5156C300.656 46.6823 300.695 47.3984 300.773 47.6641C300.857 47.9245 301.005 48.1328 301.219 48.2891C301.432 48.4401 301.703 48.5156 302.031 48.5156C302.406 48.5156 302.742 48.4141 303.039 48.2109C303.336 48.0026 303.539 47.7474 303.648 47.4453C303.758 47.138 303.812 46.3906 303.812 45.2031V41.7031H306.008V50H303.969ZM312.688 50V38.5469H315V50H312.688ZM324.43 44.1562L322.266 44.5469C322.193 44.1146 322.026 43.7891 321.766 43.5703C321.51 43.3516 321.177 43.2422 320.766 43.2422C320.219 43.2422 319.781 43.4323 319.453 43.8125C319.13 44.1875 318.969 44.8177 318.969 45.7031C318.969 46.6875 319.133 47.3828 319.461 47.7891C319.794 48.1953 320.24 48.3984 320.797 48.3984C321.214 48.3984 321.555 48.2812 321.82 48.0469C322.086 47.8073 322.273 47.3984 322.383 46.8203L324.539 47.1875C324.315 48.1771 323.885 48.9245 323.25 49.4297C322.615 49.9349 321.763 50.1875 320.695 50.1875C319.482 50.1875 318.513 49.8047 317.789 49.0391C317.07 48.2734 316.711 47.2135 316.711 45.8594C316.711 44.4896 317.073 43.4245 317.797 42.6641C318.521 41.8984 319.5 41.5156 320.734 41.5156C321.745 41.5156 322.547 41.7344 323.141 42.1719C323.74 42.6042 324.169 43.2656 324.43 44.1562ZM330.906 47.3594L333.094 47.7266C332.812 48.5286 332.367 49.1406 331.758 49.5625C331.154 49.9792 330.396 50.1875 329.484 50.1875C328.042 50.1875 326.974 49.7161 326.281 48.7734C325.734 48.0182 325.461 47.0651 325.461 45.9141C325.461 44.5391 325.82 43.4635 326.539 42.6875C327.258 41.9062 328.167 41.5156 329.266 41.5156C330.5 41.5156 331.474 41.9245 332.188 42.7422C332.901 43.5547 333.242 44.8021 333.211 46.4844H327.711C327.727 47.1354 327.904 47.6432 328.242 48.0078C328.581 48.3672 329.003 48.5469 329.508 48.5469C329.852 48.5469 330.141 48.4531 330.375 48.2656C330.609 48.0781 330.786 47.776 330.906 47.3594ZM331.031 45.1406C331.016 44.5052 330.852 44.0234 330.539 43.6953C330.227 43.362 329.846 43.1953 329.398 43.1953C328.919 43.1953 328.523 43.3698 328.211 43.7188C327.898 44.0677 327.745 44.5417 327.75 45.1406H331.031ZM334.914 50V38.5469H337.109V42.6719C337.786 41.901 338.589 41.5156 339.516 41.5156C340.526 41.5156 341.362 41.8828 342.023 42.6172C342.685 43.3464 343.016 44.3958 343.016 45.7656C343.016 47.1823 342.677 48.2734 342 49.0391C341.328 49.8047 340.51 50.1875 339.547 50.1875C339.073 50.1875 338.604 50.0703 338.141 49.8359C337.682 49.5964 337.286 49.2448 336.953 48.7812V50H334.914ZM337.094 45.6719C337.094 46.5312 337.229 47.1667 337.5 47.5781C337.88 48.1615 338.385 48.4531 339.016 48.4531C339.5 48.4531 339.911 48.2474 340.25 47.8359C340.594 47.4193 340.766 46.7656 340.766 45.875C340.766 44.9271 340.594 44.2448 340.25 43.8281C339.906 43.4062 339.466 43.1953 338.93 43.1953C338.404 43.1953 337.966 43.401 337.617 43.8125C337.268 44.2188 337.094 44.8385 337.094 45.6719ZM349.594 47.3594L351.781 47.7266C351.5 48.5286 351.055 49.1406 350.445 49.5625C349.841 49.9792 349.083 50.1875 348.172 50.1875C346.729 50.1875 345.661 49.7161 344.969 48.7734C344.422 48.0182 344.148 47.0651 344.148 45.9141C344.148 44.5391 344.508 43.4635 345.227 42.6875C345.945 41.9062 346.854 41.5156 347.953 41.5156C349.188 41.5156 350.161 41.9245 350.875 42.7422C351.589 43.5547 351.93 44.8021 351.898 46.4844H346.398C346.414 47.1354 346.591 47.6432 346.93 48.0078C347.268 48.3672 347.69 48.5469 348.195 48.5469C348.539 48.5469 348.828 48.4531 349.062 48.2656C349.297 48.0781 349.474 47.776 349.594 47.3594ZM349.719 45.1406C349.703 44.5052 349.539 44.0234 349.227 43.6953C348.914 43.362 348.534 43.1953 348.086 43.1953C347.607 43.1953 347.211 43.3698 346.898 43.7188C346.586 44.0677 346.432 44.5417 346.438 45.1406H349.719ZM355.797 50H353.602V41.7031H355.641V42.8828C355.99 42.3255 356.302 41.9583 356.578 41.7812C356.859 41.6042 357.177 41.5156 357.531 41.5156C358.031 41.5156 358.513 41.6536 358.977 41.9297L358.297 43.8438C357.927 43.6042 357.583 43.4844 357.266 43.4844C356.958 43.4844 356.698 43.5703 356.484 43.7422C356.271 43.9089 356.102 44.2135 355.977 44.6562C355.857 45.099 355.797 46.026 355.797 47.4375V50ZM359.727 50.5469L362.234 50.8516C362.276 51.1432 362.372 51.3438 362.523 51.4531C362.732 51.6094 363.06 51.6875 363.508 51.6875C364.081 51.6875 364.51 51.6016 364.797 51.4297C364.99 51.3151 365.135 51.1302 365.234 50.875C365.302 50.6927 365.336 50.3568 365.336 49.8672V48.6562C364.68 49.5521 363.852 50 362.852 50C361.737 50 360.854 49.5286 360.203 48.5859C359.693 47.8411 359.438 46.9141 359.438 45.8047C359.438 44.4141 359.771 43.3516 360.438 42.6172C361.109 41.8828 361.943 41.5156 362.938 41.5156C363.964 41.5156 364.81 41.9661 365.477 42.8672V41.7031H367.531V49.1484C367.531 50.1276 367.451 50.8594 367.289 51.3438C367.128 51.8281 366.901 52.2083 366.609 52.4844C366.318 52.7604 365.927 52.9766 365.438 53.1328C364.953 53.2891 364.339 53.3672 363.594 53.3672C362.188 53.3672 361.19 53.125 360.602 52.6406C360.013 52.1615 359.719 51.5521 359.719 50.8125C359.719 50.7396 359.721 50.651 359.727 50.5469ZM361.688 45.6797C361.688 46.5599 361.857 47.2057 362.195 47.6172C362.539 48.0234 362.961 48.2266 363.461 48.2266C363.997 48.2266 364.451 48.0182 364.82 47.6016C365.19 47.1797 365.375 46.5573 365.375 45.7344C365.375 44.875 365.198 44.237 364.844 43.8203C364.49 43.4036 364.042 43.1953 363.5 43.1953C362.974 43.1953 362.539 43.401 362.195 43.8125C361.857 44.2188 361.688 44.8411 361.688 45.6797Z" fill="#201F1F"/>
<path d="M542.438 50L538.344 38.5469H540.852L543.75 47.0234L546.555 38.5469H549.008L544.906 50H542.438ZM549.875 40.5781V38.5469H552.07V40.5781H549.875ZM549.875 50V41.7031H552.07V50H549.875ZM553.82 45.7344C553.82 45.0052 554 44.2995 554.359 43.6172C554.719 42.9349 555.227 42.4141 555.883 42.0547C556.544 41.6953 557.281 41.5156 558.094 41.5156C559.349 41.5156 560.378 41.9245 561.18 42.7422C561.982 43.5547 562.383 44.5833 562.383 45.8281C562.383 47.0833 561.977 48.125 561.164 48.9531C560.357 49.776 559.339 50.1875 558.109 50.1875C557.349 50.1875 556.622 50.0156 555.93 49.6719C555.242 49.3281 554.719 48.8255 554.359 48.1641C554 47.4974 553.82 46.6875 553.82 45.7344ZM556.07 45.8516C556.07 46.6745 556.266 47.3047 556.656 47.7422C557.047 48.1797 557.529 48.3984 558.102 48.3984C558.674 48.3984 559.154 48.1797 559.539 47.7422C559.93 47.3047 560.125 46.6693 560.125 45.8359C560.125 45.0234 559.93 44.3984 559.539 43.9609C559.154 43.5234 558.674 43.3047 558.102 43.3047C557.529 43.3047 557.047 43.5234 556.656 43.9609C556.266 44.3984 556.07 45.0286 556.07 45.8516ZM564.109 50V38.5469H566.305V50H564.109ZM573.367 47.3594L575.555 47.7266C575.273 48.5286 574.828 49.1406 574.219 49.5625C573.615 49.9792 572.857 50.1875 571.945 50.1875C570.503 50.1875 569.435 49.7161 568.742 48.7734C568.195 48.0182 567.922 47.0651 567.922 45.9141C567.922 44.5391 568.281 43.4635 569 42.6875C569.719 41.9062 570.628 41.5156 571.727 41.5156C572.961 41.5156 573.935 41.9245 574.648 42.7422C575.362 43.5547 575.703 44.8021 575.672 46.4844H570.172C570.188 47.1354 570.365 47.6432 570.703 48.0078C571.042 48.3672 571.464 48.5469 571.969 48.5469C572.312 48.5469 572.602 48.4531 572.836 48.2656C573.07 48.0781 573.247 47.776 573.367 47.3594ZM573.492 45.1406C573.477 44.5052 573.312 44.0234 573 43.6953C572.688 43.362 572.307 43.1953 571.859 43.1953C571.38 43.1953 570.984 43.3698 570.672 43.7188C570.359 44.0677 570.206 44.5417 570.211 45.1406H573.492ZM581.273 41.7031V43.4531H579.773V46.7969C579.773 47.474 579.786 47.8698 579.812 47.9844C579.844 48.0938 579.909 48.1849 580.008 48.2578C580.112 48.3307 580.237 48.3672 580.383 48.3672C580.586 48.3672 580.88 48.2969 581.266 48.1562L581.453 49.8594C580.943 50.0781 580.365 50.1875 579.719 50.1875C579.323 50.1875 578.966 50.1224 578.648 49.9922C578.331 49.8568 578.096 49.6849 577.945 49.4766C577.799 49.263 577.698 48.9766 577.641 48.6172C577.594 48.362 577.57 47.8464 577.57 47.0703V43.4531H576.562V41.7031H577.57V40.0547L579.773 38.7734V41.7031H581.273Z" fill="#201F1F"/>
<path d="M72.7266 146V134.641H75.0391V144.07H80.7891V146H72.7266ZM82.4297 136.578V134.547H84.625V136.578H82.4297ZM82.4297 146V137.703H84.625V146H82.4297ZM86.6797 146.547L89.1875 146.852C89.2292 147.143 89.3255 147.344 89.4766 147.453C89.6849 147.609 90.013 147.688 90.4609 147.688C91.0339 147.688 91.4635 147.602 91.75 147.43C91.9427 147.315 92.0885 147.13 92.1875 146.875C92.2552 146.693 92.2891 146.357 92.2891 145.867V144.656C91.6328 145.552 90.8047 146 89.8047 146C88.6901 146 87.8073 145.529 87.1562 144.586C86.6458 143.841 86.3906 142.914 86.3906 141.805C86.3906 140.414 86.724 139.352 87.3906 138.617C88.0625 137.883 88.8958 137.516 89.8906 137.516C90.9167 137.516 91.763 137.966 92.4297 138.867V137.703H94.4844V145.148C94.4844 146.128 94.4036 146.859 94.2422 147.344C94.0807 147.828 93.8542 148.208 93.5625 148.484C93.2708 148.76 92.8802 148.977 92.3906 149.133C91.9062 149.289 91.2917 149.367 90.5469 149.367C89.1406 149.367 88.1432 149.125 87.5547 148.641C86.9661 148.161 86.6719 147.552 86.6719 146.812C86.6719 146.74 86.6745 146.651 86.6797 146.547ZM88.6406 141.68C88.6406 142.56 88.8099 143.206 89.1484 143.617C89.4922 144.023 89.9141 144.227 90.4141 144.227C90.9505 144.227 91.4036 144.018 91.7734 143.602C92.1432 143.18 92.3281 142.557 92.3281 141.734C92.3281 140.875 92.151 140.237 91.7969 139.82C91.4427 139.404 90.9948 139.195 90.4531 139.195C89.9271 139.195 89.4922 139.401 89.1484 139.812C88.8099 140.219 88.6406 140.841 88.6406 141.68ZM98.8516 134.547V138.758C99.5599 137.93 100.406 137.516 101.391 137.516C101.896 137.516 102.352 137.609 102.758 137.797C103.164 137.984 103.469 138.224 103.672 138.516C103.88 138.807 104.021 139.13 104.094 139.484C104.172 139.839 104.211 140.388 104.211 141.133V146H102.016V141.617C102.016 140.747 101.974 140.195 101.891 139.961C101.807 139.727 101.659 139.542 101.445 139.406C101.237 139.266 100.974 139.195 100.656 139.195C100.292 139.195 99.9661 139.284 99.6797 139.461C99.3932 139.638 99.1823 139.906 99.0469 140.266C98.9167 140.62 98.8516 141.146 98.8516 141.844V146H96.6562V134.547H98.8516ZM110.25 137.703V139.453H108.75V142.797C108.75 143.474 108.763 143.87 108.789 143.984C108.82 144.094 108.885 144.185 108.984 144.258C109.089 144.331 109.214 144.367 109.359 144.367C109.562 144.367 109.857 144.297 110.242 144.156L110.43 145.859C109.919 146.078 109.341 146.188 108.695 146.188C108.299 146.188 107.943 146.122 107.625 145.992C107.307 145.857 107.073 145.685 106.922 145.477C106.776 145.263 106.674 144.977 106.617 144.617C106.57 144.362 106.547 143.846 106.547 143.07V139.453H105.539V137.703H106.547V136.055L108.75 134.773V137.703H110.25ZM116.062 137.703H118.086V138.836C118.81 137.956 119.672 137.516 120.672 137.516C121.203 137.516 121.664 137.625 122.055 137.844C122.445 138.062 122.766 138.393 123.016 138.836C123.38 138.393 123.773 138.062 124.195 137.844C124.617 137.625 125.068 137.516 125.547 137.516C126.156 137.516 126.672 137.641 127.094 137.891C127.516 138.135 127.831 138.497 128.039 138.977C128.19 139.331 128.266 139.904 128.266 140.695V146H126.07V141.258C126.07 140.435 125.995 139.904 125.844 139.664C125.641 139.352 125.328 139.195 124.906 139.195C124.599 139.195 124.31 139.289 124.039 139.477C123.768 139.664 123.573 139.94 123.453 140.305C123.333 140.664 123.273 141.234 123.273 142.016V146H121.078V141.453C121.078 140.646 121.039 140.125 120.961 139.891C120.883 139.656 120.76 139.482 120.594 139.367C120.432 139.253 120.211 139.195 119.93 139.195C119.591 139.195 119.286 139.286 119.016 139.469C118.745 139.651 118.549 139.914 118.43 140.258C118.315 140.602 118.258 141.172 118.258 141.969V146H116.062V137.703ZM129.953 141.734C129.953 141.005 130.133 140.299 130.492 139.617C130.852 138.935 131.359 138.414 132.016 138.055C132.677 137.695 133.414 137.516 134.227 137.516C135.482 137.516 136.51 137.924 137.312 138.742C138.115 139.555 138.516 140.583 138.516 141.828C138.516 143.083 138.109 144.125 137.297 144.953C136.49 145.776 135.471 146.188 134.242 146.188C133.482 146.188 132.755 146.016 132.062 145.672C131.375 145.328 130.852 144.826 130.492 144.164C130.133 143.497 129.953 142.688 129.953 141.734ZM132.203 141.852C132.203 142.674 132.398 143.305 132.789 143.742C133.18 144.18 133.661 144.398 134.234 144.398C134.807 144.398 135.286 144.18 135.672 143.742C136.062 143.305 136.258 142.669 136.258 141.836C136.258 141.023 136.062 140.398 135.672 139.961C135.286 139.523 134.807 139.305 134.234 139.305C133.661 139.305 133.18 139.523 132.789 139.961C132.398 140.398 132.203 141.029 132.203 141.852ZM147.852 146H145.812V144.781C145.474 145.255 145.073 145.609 144.609 145.844C144.151 146.073 143.688 146.188 143.219 146.188C142.266 146.188 141.448 145.805 140.766 145.039C140.089 144.268 139.75 143.195 139.75 141.82C139.75 140.414 140.081 139.346 140.742 138.617C141.404 137.883 142.24 137.516 143.25 137.516C144.177 137.516 144.979 137.901 145.656 138.672V134.547H147.852V146ZM141.992 141.672C141.992 142.557 142.115 143.198 142.359 143.594C142.714 144.167 143.208 144.453 143.844 144.453C144.349 144.453 144.779 144.24 145.133 143.812C145.487 143.38 145.664 142.737 145.664 141.883C145.664 140.93 145.492 140.245 145.148 139.828C144.805 139.406 144.365 139.195 143.828 139.195C143.307 139.195 142.87 139.404 142.516 139.82C142.167 140.232 141.992 140.849 141.992 141.672ZM154.828 143.359L157.016 143.727C156.734 144.529 156.289 145.141 155.68 145.562C155.076 145.979 154.318 146.188 153.406 146.188C151.964 146.188 150.896 145.716 150.203 144.773C149.656 144.018 149.383 143.065 149.383 141.914C149.383 140.539 149.742 139.464 150.461 138.688C151.18 137.906 152.089 137.516 153.188 137.516C154.422 137.516 155.396 137.924 156.109 138.742C156.823 139.555 157.164 140.802 157.133 142.484H151.633C151.648 143.135 151.826 143.643 152.164 144.008C152.503 144.367 152.924 144.547 153.43 144.547C153.773 144.547 154.062 144.453 154.297 144.266C154.531 144.078 154.708 143.776 154.828 143.359ZM154.953 141.141C154.938 140.505 154.773 140.023 154.461 139.695C154.148 139.362 153.768 139.195 153.32 139.195C152.841 139.195 152.445 139.37 152.133 139.719C151.82 140.068 151.667 140.542 151.672 141.141H154.953Z" fill="#201F1F"/>
<path d="M246.5 88.5H391.5C395.642 88.5 399 91.8579 399 96V184C399 188.142 395.642 191.5 391.5 191.5H246.5C242.358 191.5 239 188.142 239 184V96C239 91.8579 242.358 88.5 246.5 88.5Z" fill="white"/>
<path d="M246.5 88.5H391.5C395.642 88.5 399 91.8579 399 96V184C399 188.142 395.642 191.5 391.5 191.5H246.5C242.358 191.5 239 188.142 239 184V96C239 91.8579 242.358 88.5 246.5 88.5Z" stroke="#CDCCCB"/>
<path d="M270.5 128C270.5 123.582 274.082 120 278.5 120H359.5C363.918 120 367.5 123.582 367.5 128V152C367.5 156.418 363.918 160 359.5 160H278.5C274.082 160 270.5 156.418 270.5 152V128Z" fill="#2964A0"/>
<path d="M297.2 147C296.867 147 296.607 146.907 296.42 146.72C296.233 146.533 296.14 146.273 296.14 145.94V133.88C296.14 133.533 296.227 133.273 296.4 133.1C296.587 132.913 296.847 132.82 297.18 132.82C297.513 132.82 297.767 132.913 297.94 133.1C298.127 133.273 298.22 133.533 298.22 133.88V145.22H304.42C304.713 145.22 304.94 145.3 305.1 145.46C305.26 145.607 305.34 145.82 305.34 146.1C305.34 146.38 305.26 146.6 305.1 146.76C304.94 146.92 304.713 147 304.42 147H297.2ZM309.575 147.18C308.895 147.18 308.282 147.047 307.735 146.78C307.202 146.513 306.782 146.153 306.475 145.7C306.168 145.247 306.015 144.733 306.015 144.16C306.015 143.44 306.195 142.873 306.555 142.46C306.928 142.033 307.535 141.733 308.375 141.56C309.228 141.373 310.375 141.28 311.815 141.28H312.755V142.52H311.835C310.875 142.52 310.115 142.567 309.555 142.66C308.995 142.753 308.595 142.913 308.355 143.14C308.128 143.353 308.015 143.653 308.015 144.04C308.015 144.547 308.188 144.96 308.535 145.28C308.882 145.587 309.362 145.74 309.975 145.74C310.468 145.74 310.902 145.627 311.275 145.4C311.648 145.16 311.942 144.84 312.155 144.44C312.382 144.04 312.495 143.58 312.495 143.06V140.76C312.495 140 312.335 139.453 312.015 139.12C311.695 138.787 311.168 138.62 310.435 138.62C310.008 138.62 309.562 138.673 309.095 138.78C308.642 138.887 308.168 139.067 307.675 139.32C307.448 139.427 307.255 139.46 307.095 139.42C306.935 139.38 306.808 139.293 306.715 139.16C306.622 139.013 306.568 138.86 306.555 138.7C306.555 138.527 306.595 138.36 306.675 138.2C306.768 138.04 306.922 137.92 307.135 137.84C307.722 137.56 308.302 137.36 308.875 137.24C309.448 137.12 309.988 137.06 310.495 137.06C311.388 137.06 312.122 137.2 312.695 137.48C313.282 137.76 313.715 138.187 313.995 138.76C314.275 139.333 314.415 140.073 314.415 140.98V146.12C314.415 146.44 314.335 146.693 314.175 146.88C314.015 147.053 313.782 147.14 313.475 147.14C313.182 147.14 312.948 147.053 312.775 146.88C312.602 146.693 312.515 146.44 312.515 146.12V144.82H312.695C312.588 145.313 312.388 145.74 312.095 146.1C311.815 146.447 311.462 146.713 311.035 146.9C310.608 147.087 310.122 147.18 309.575 147.18ZM321.937 147.18C321.084 147.18 320.344 146.967 319.717 146.54C319.091 146.1 318.671 145.52 318.457 144.8L318.677 144.44V146.12C318.677 146.44 318.591 146.693 318.417 146.88C318.244 147.053 318.004 147.14 317.697 147.14C317.377 147.14 317.131 147.053 316.957 146.88C316.784 146.693 316.697 146.44 316.697 146.12V133.78C316.697 133.447 316.784 133.193 316.957 133.02C317.131 132.847 317.377 132.76 317.697 132.76C318.017 132.76 318.264 132.847 318.437 133.02C318.624 133.193 318.717 133.447 318.717 133.78V139.38H318.477C318.691 138.673 319.111 138.113 319.737 137.7C320.364 137.273 321.097 137.06 321.937 137.06C322.817 137.06 323.577 137.267 324.217 137.68C324.857 138.093 325.351 138.673 325.697 139.42C326.057 140.167 326.237 141.067 326.237 142.12C326.237 143.147 326.057 144.047 325.697 144.82C325.351 145.58 324.851 146.167 324.197 146.58C323.557 146.98 322.804 147.18 321.937 147.18ZM321.437 145.62C321.997 145.62 322.484 145.487 322.897 145.22C323.311 144.953 323.631 144.56 323.857 144.04C324.084 143.52 324.197 142.88 324.197 142.12C324.197 140.973 323.944 140.107 323.437 139.52C322.944 138.933 322.277 138.64 321.437 138.64C320.891 138.64 320.404 138.773 319.977 139.04C319.564 139.293 319.244 139.68 319.017 140.2C318.791 140.72 318.677 141.36 318.677 142.12C318.677 143.253 318.931 144.12 319.437 144.72C319.944 145.32 320.611 145.62 321.437 145.62ZM332.594 147.18C331.527 147.18 330.607 146.98 329.834 146.58C329.074 146.167 328.48 145.587 328.054 144.84C327.64 144.08 327.434 143.18 327.434 142.14C327.434 141.127 327.64 140.24 328.054 139.48C328.467 138.72 329.034 138.127 329.754 137.7C330.474 137.273 331.294 137.06 332.214 137.06C332.894 137.06 333.5 137.173 334.034 137.4C334.567 137.613 335.02 137.933 335.394 138.36C335.78 138.773 336.067 139.28 336.254 139.88C336.454 140.48 336.554 141.153 336.554 141.9C336.554 142.127 336.487 142.3 336.354 142.42C336.22 142.527 336.02 142.58 335.754 142.58H329.034V141.34H335.194L334.854 141.62C334.854 140.953 334.754 140.387 334.554 139.92C334.367 139.453 334.08 139.1 333.694 138.86C333.32 138.607 332.854 138.48 332.294 138.48C331.667 138.48 331.134 138.627 330.694 138.92C330.267 139.213 329.94 139.62 329.714 140.14C329.487 140.66 329.374 141.267 329.374 141.96V142.08C329.374 143.253 329.647 144.14 330.194 144.74C330.754 145.327 331.56 145.62 332.614 145.62C333.014 145.62 333.434 145.567 333.874 145.46C334.327 145.353 334.754 145.173 335.154 144.92C335.38 144.787 335.58 144.727 335.754 144.74C335.94 144.753 336.087 144.813 336.194 144.92C336.314 145.027 336.387 145.16 336.414 145.32C336.44 145.48 336.414 145.647 336.334 145.82C336.254 145.98 336.114 146.127 335.914 146.26C335.46 146.567 334.934 146.8 334.334 146.96C333.734 147.107 333.154 147.18 332.594 147.18ZM341.396 147.18C340.356 147.18 339.569 146.88 339.036 146.28C338.516 145.667 338.256 144.787 338.256 143.64V133.78C338.256 133.447 338.343 133.193 338.516 133.02C338.689 132.847 338.936 132.76 339.256 132.76C339.576 132.76 339.823 132.847 339.996 133.02C340.183 133.193 340.276 133.447 340.276 133.78V143.52C340.276 144.187 340.409 144.687 340.676 145.02C340.956 145.34 341.356 145.5 341.876 145.5C341.996 145.5 342.103 145.5 342.196 145.5C342.289 145.487 342.383 145.473 342.476 145.46C342.636 145.447 342.749 145.493 342.816 145.6C342.883 145.693 342.916 145.893 342.916 146.2C342.916 146.48 342.856 146.7 342.736 146.86C342.616 147.007 342.423 147.1 342.156 147.14C342.036 147.153 341.909 147.16 341.776 147.16C341.643 147.173 341.516 147.18 341.396 147.18Z" fill="white"/>
<path d="M487.5 88.5H632.5C636.642 88.5 640 91.8579 640 96V184C640 188.142 636.642 191.5 632.5 191.5H487.5C483.358 191.5 480 188.142 480 184V96C480 91.8579 483.358 88.5 487.5 88.5Z" fill="white"/>
<path d="M487.5 88.5H632.5C636.642 88.5 640 91.8579 640 96V184C640 188.142 636.642 191.5 632.5 191.5H487.5C483.358 191.5 480 188.142 480 184V96C480 91.8579 483.358 88.5 487.5 88.5Z" stroke="#CDCCCB"/>
<path d="M511.5 128C511.5 123.582 515.082 120 519.5 120H600.5C604.918 120 608.5 123.582 608.5 128V152C608.5 156.418 604.918 160 600.5 160H519.5C515.082 160 511.5 156.418 511.5 152V128Z" fill="#7D5A9F"/>
<path d="M538.2 147C537.867 147 537.607 146.907 537.42 146.72C537.233 146.533 537.14 146.273 537.14 145.94V133.88C537.14 133.533 537.227 133.273 537.4 133.1C537.587 132.913 537.847 132.82 538.18 132.82C538.513 132.82 538.767 132.913 538.94 133.1C539.127 133.273 539.22 133.533 539.22 133.88V145.22H545.42C545.713 145.22 545.94 145.3 546.1 145.46C546.26 145.607 546.34 145.82 546.34 146.1C546.34 146.38 546.26 146.6 546.1 146.76C545.94 146.92 545.713 147 545.42 147H538.2ZM550.575 147.18C549.895 147.18 549.282 147.047 548.735 146.78C548.202 146.513 547.782 146.153 547.475 145.7C547.168 145.247 547.015 144.733 547.015 144.16C547.015 143.44 547.195 142.873 547.555 142.46C547.928 142.033 548.535 141.733 549.375 141.56C550.228 141.373 551.375 141.28 552.815 141.28H553.755V142.52H552.835C551.875 142.52 551.115 142.567 550.555 142.66C549.995 142.753 549.595 142.913 549.355 143.14C549.128 143.353 549.015 143.653 549.015 144.04C549.015 144.547 549.188 144.96 549.535 145.28C549.882 145.587 550.362 145.74 550.975 145.74C551.468 145.74 551.902 145.627 552.275 145.4C552.648 145.16 552.942 144.84 553.155 144.44C553.382 144.04 553.495 143.58 553.495 143.06V140.76C553.495 140 553.335 139.453 553.015 139.12C552.695 138.787 552.168 138.62 551.435 138.62C551.008 138.62 550.562 138.673 550.095 138.78C549.642 138.887 549.168 139.067 548.675 139.32C548.448 139.427 548.255 139.46 548.095 139.42C547.935 139.38 547.808 139.293 547.715 139.16C547.622 139.013 547.568 138.86 547.555 138.7C547.555 138.527 547.595 138.36 547.675 138.2C547.768 138.04 547.922 137.92 548.135 137.84C548.722 137.56 549.302 137.36 549.875 137.24C550.448 137.12 550.988 137.06 551.495 137.06C552.388 137.06 553.122 137.2 553.695 137.48C554.282 137.76 554.715 138.187 554.995 138.76C555.275 139.333 555.415 140.073 555.415 140.98V146.12C555.415 146.44 555.335 146.693 555.175 146.88C555.015 147.053 554.782 147.14 554.475 147.14C554.182 147.14 553.948 147.053 553.775 146.88C553.602 146.693 553.515 146.44 553.515 146.12V144.82H553.695C553.588 145.313 553.388 145.74 553.095 146.1C552.815 146.447 552.462 146.713 552.035 146.9C551.608 147.087 551.122 147.18 550.575 147.18ZM562.937 147.18C562.084 147.18 561.344 146.967 560.717 146.54C560.091 146.1 559.671 145.52 559.457 144.8L559.677 144.44V146.12C559.677 146.44 559.591 146.693 559.417 146.88C559.244 147.053 559.004 147.14 558.697 147.14C558.377 147.14 558.131 147.053 557.957 146.88C557.784 146.693 557.697 146.44 557.697 146.12V133.78C557.697 133.447 557.784 133.193 557.957 133.02C558.131 132.847 558.377 132.76 558.697 132.76C559.017 132.76 559.264 132.847 559.437 133.02C559.624 133.193 559.717 133.447 559.717 133.78V139.38H559.477C559.691 138.673 560.111 138.113 560.737 137.7C561.364 137.273 562.097 137.06 562.937 137.06C563.817 137.06 564.577 137.267 565.217 137.68C565.857 138.093 566.351 138.673 566.697 139.42C567.057 140.167 567.237 141.067 567.237 142.12C567.237 143.147 567.057 144.047 566.697 144.82C566.351 145.58 565.851 146.167 565.197 146.58C564.557 146.98 563.804 147.18 562.937 147.18ZM562.437 145.62C562.997 145.62 563.484 145.487 563.897 145.22C564.311 144.953 564.631 144.56 564.857 144.04C565.084 143.52 565.197 142.88 565.197 142.12C565.197 140.973 564.944 140.107 564.437 139.52C563.944 138.933 563.277 138.64 562.437 138.64C561.891 138.64 561.404 138.773 560.977 139.04C560.564 139.293 560.244 139.68 560.017 140.2C559.791 140.72 559.677 141.36 559.677 142.12C559.677 143.253 559.931 144.12 560.437 144.72C560.944 145.32 561.611 145.62 562.437 145.62ZM573.594 147.18C572.527 147.18 571.607 146.98 570.834 146.58C570.074 146.167 569.48 145.587 569.054 144.84C568.64 144.08 568.434 143.18 568.434 142.14C568.434 141.127 568.64 140.24 569.054 139.48C569.467 138.72 570.034 138.127 570.754 137.7C571.474 137.273 572.294 137.06 573.214 137.06C573.894 137.06 574.5 137.173 575.034 137.4C575.567 137.613 576.02 137.933 576.394 138.36C576.78 138.773 577.067 139.28 577.254 139.88C577.454 140.48 577.554 141.153 577.554 141.9C577.554 142.127 577.487 142.3 577.354 142.42C577.22 142.527 577.02 142.58 576.754 142.58H570.034V141.34H576.194L575.854 141.62C575.854 140.953 575.754 140.387 575.554 139.92C575.367 139.453 575.08 139.1 574.694 138.86C574.32 138.607 573.854 138.48 573.294 138.48C572.667 138.48 572.134 138.627 571.694 138.92C571.267 139.213 570.94 139.62 570.714 140.14C570.487 140.66 570.374 141.267 570.374 141.96V142.08C570.374 143.253 570.647 144.14 571.194 144.74C571.754 145.327 572.56 145.62 573.614 145.62C574.014 145.62 574.434 145.567 574.874 145.46C575.327 145.353 575.754 145.173 576.154 144.92C576.38 144.787 576.58 144.727 576.754 144.74C576.94 144.753 577.087 144.813 577.194 144.92C577.314 145.027 577.387 145.16 577.414 145.32C577.44 145.48 577.414 145.647 577.334 145.82C577.254 145.98 577.114 146.127 576.914 146.26C576.46 146.567 575.934 146.8 575.334 146.96C574.734 147.107 574.154 147.18 573.594 147.18ZM582.396 147.18C581.356 147.18 580.569 146.88 580.036 146.28C579.516 145.667 579.256 144.787 579.256 143.64V133.78C579.256 133.447 579.343 133.193 579.516 133.02C579.689 132.847 579.936 132.76 580.256 132.76C580.576 132.76 580.823 132.847 580.996 133.02C581.183 133.193 581.276 133.447 581.276 133.78V143.52C581.276 144.187 581.409 144.687 581.676 145.02C581.956 145.34 582.356 145.5 582.876 145.5C582.996 145.5 583.103 145.5 583.196 145.5C583.289 145.487 583.383 145.473 583.476 145.46C583.636 145.447 583.749 145.493 583.816 145.6C583.883 145.693 583.916 145.893 583.916 146.2C583.916 146.48 583.856 146.7 583.736 146.86C583.616 147.007 583.423 147.1 583.156 147.14C583.036 147.153 582.909 147.16 582.776 147.16C582.643 147.173 582.516 147.18 582.396 147.18Z" fill="white"/>
<path d="M74.6562 270.547H78.8828C79.8359 270.547 80.5625 270.62 81.0625 270.766C81.7344 270.964 82.3099 271.315 82.7891 271.82C83.2682 272.326 83.6328 272.945 83.8828 273.68C84.1328 274.409 84.2578 275.31 84.2578 276.383C84.2578 277.326 84.1406 278.138 83.9062 278.82C83.6198 279.654 83.2109 280.328 82.6797 280.844C82.2786 281.234 81.737 281.539 81.0547 281.758C80.5443 281.919 79.862 282 79.0078 282H74.6562V270.547ZM76.9688 272.484V280.07H78.6953C79.3411 280.07 79.8073 280.034 80.0938 279.961C80.4688 279.867 80.7786 279.708 81.0234 279.484C81.2734 279.26 81.4766 278.893 81.6328 278.383C81.7891 277.867 81.8672 277.167 81.8672 276.281C81.8672 275.396 81.7891 274.716 81.6328 274.242C81.4766 273.768 81.2578 273.398 80.9766 273.133C80.6953 272.867 80.3385 272.688 79.9062 272.594C79.5833 272.521 78.9505 272.484 78.0078 272.484H76.9688ZM87.8516 276.234L85.8594 275.875C86.0833 275.073 86.4688 274.479 87.0156 274.094C87.5625 273.708 88.375 273.516 89.4531 273.516C90.4323 273.516 91.1615 273.633 91.6406 273.867C92.1198 274.096 92.4557 274.391 92.6484 274.75C92.8464 275.104 92.9453 275.758 92.9453 276.711L92.9219 279.273C92.9219 280.003 92.9557 280.542 93.0234 280.891C93.0964 281.234 93.2292 281.604 93.4219 282H91.25C91.1927 281.854 91.1224 281.638 91.0391 281.352C91.0026 281.221 90.9766 281.135 90.9609 281.094C90.5859 281.458 90.1849 281.732 89.7578 281.914C89.3307 282.096 88.875 282.188 88.3906 282.188C87.5365 282.188 86.862 281.956 86.3672 281.492C85.8776 281.029 85.6328 280.443 85.6328 279.734C85.6328 279.266 85.7448 278.849 85.9688 278.484C86.1927 278.115 86.5052 277.833 86.9062 277.641C87.3125 277.443 87.8958 277.271 88.6562 277.125C89.6823 276.932 90.3932 276.753 90.7891 276.586V276.367C90.7891 275.945 90.6849 275.646 90.4766 275.469C90.2682 275.286 89.875 275.195 89.2969 275.195C88.9062 275.195 88.6016 275.273 88.3828 275.43C88.1641 275.581 87.987 275.849 87.8516 276.234ZM90.7891 278.016C90.5078 278.109 90.0625 278.221 89.4531 278.352C88.8438 278.482 88.4453 278.609 88.2578 278.734C87.9714 278.938 87.8281 279.195 87.8281 279.508C87.8281 279.815 87.9427 280.081 88.1719 280.305C88.401 280.529 88.6927 280.641 89.0469 280.641C89.4427 280.641 89.8203 280.51 90.1797 280.25C90.4453 280.052 90.6198 279.81 90.7031 279.523C90.7604 279.336 90.7891 278.979 90.7891 278.453V278.016ZM97.2188 282H95.0234V273.703H97.0625V274.883C97.4115 274.326 97.724 273.958 98 273.781C98.2812 273.604 98.599 273.516 98.9531 273.516C99.4531 273.516 99.9349 273.654 100.398 273.93L99.7188 275.844C99.349 275.604 99.0052 275.484 98.6875 275.484C98.3802 275.484 98.1198 275.57 97.9062 275.742C97.6927 275.909 97.5234 276.214 97.3984 276.656C97.2786 277.099 97.2188 278.026 97.2188 279.438V282ZM101.273 282V270.547H103.469V276.625L106.039 273.703H108.742L105.906 276.734L108.945 282H106.578L104.492 278.273L103.469 279.344V282H101.273ZM114.547 273.703H116.57V274.836C117.294 273.956 118.156 273.516 119.156 273.516C119.688 273.516 120.148 273.625 120.539 273.844C120.93 274.062 121.25 274.393 121.5 274.836C121.865 274.393 122.258 274.062 122.68 273.844C123.102 273.625 123.552 273.516 124.031 273.516C124.641 273.516 125.156 273.641 125.578 273.891C126 274.135 126.315 274.497 126.523 274.977C126.674 275.331 126.75 275.904 126.75 276.695V282H124.555V277.258C124.555 276.435 124.479 275.904 124.328 275.664C124.125 275.352 123.812 275.195 123.391 275.195C123.083 275.195 122.794 275.289 122.523 275.477C122.253 275.664 122.057 275.94 121.938 276.305C121.818 276.664 121.758 277.234 121.758 278.016V282H119.562V277.453C119.562 276.646 119.523 276.125 119.445 275.891C119.367 275.656 119.245 275.482 119.078 275.367C118.917 275.253 118.695 275.195 118.414 275.195C118.076 275.195 117.771 275.286 117.5 275.469C117.229 275.651 117.034 275.914 116.914 276.258C116.799 276.602 116.742 277.172 116.742 277.969V282H114.547V273.703ZM128.438 277.734C128.438 277.005 128.617 276.299 128.977 275.617C129.336 274.935 129.844 274.414 130.5 274.055C131.161 273.695 131.898 273.516 132.711 273.516C133.966 273.516 134.995 273.924 135.797 274.742C136.599 275.555 137 276.583 137 277.828C137 279.083 136.594 280.125 135.781 280.953C134.974 281.776 133.956 282.188 132.727 282.188C131.966 282.188 131.24 282.016 130.547 281.672C129.859 281.328 129.336 280.826 128.977 280.164C128.617 279.497 128.438 278.688 128.438 277.734ZM130.688 277.852C130.688 278.674 130.883 279.305 131.273 279.742C131.664 280.18 132.146 280.398 132.719 280.398C133.292 280.398 133.771 280.18 134.156 279.742C134.547 279.305 134.742 278.669 134.742 277.836C134.742 277.023 134.547 276.398 134.156 275.961C133.771 275.523 133.292 275.305 132.719 275.305C132.146 275.305 131.664 275.523 131.273 275.961C130.883 276.398 130.688 277.029 130.688 277.852ZM146.336 282H144.297V280.781C143.958 281.255 143.557 281.609 143.094 281.844C142.635 282.073 142.172 282.188 141.703 282.188C140.75 282.188 139.932 281.805 139.25 281.039C138.573 280.268 138.234 279.195 138.234 277.82C138.234 276.414 138.565 275.346 139.227 274.617C139.888 273.883 140.724 273.516 141.734 273.516C142.661 273.516 143.464 273.901 144.141 274.672V270.547H146.336V282ZM140.477 277.672C140.477 278.557 140.599 279.198 140.844 279.594C141.198 280.167 141.693 280.453 142.328 280.453C142.833 280.453 143.263 280.24 143.617 279.812C143.971 279.38 144.148 278.737 144.148 277.883C144.148 276.93 143.977 276.245 143.633 275.828C143.289 275.406 142.849 275.195 142.312 275.195C141.792 275.195 141.354 275.404 141 275.82C140.651 276.232 140.477 276.849 140.477 277.672ZM153.312 279.359L155.5 279.727C155.219 280.529 154.773 281.141 154.164 281.562C153.56 281.979 152.802 282.188 151.891 282.188C150.448 282.188 149.38 281.716 148.688 280.773C148.141 280.018 147.867 279.065 147.867 277.914C147.867 276.539 148.227 275.464 148.945 274.688C149.664 273.906 150.573 273.516 151.672 273.516C152.906 273.516 153.88 273.924 154.594 274.742C155.307 275.555 155.648 276.802 155.617 278.484H150.117C150.133 279.135 150.31 279.643 150.648 280.008C150.987 280.367 151.409 280.547 151.914 280.547C152.258 280.547 152.547 280.453 152.781 280.266C153.016 280.078 153.193 279.776 153.312 279.359ZM153.438 277.141C153.422 276.505 153.258 276.023 152.945 275.695C152.633 275.362 152.253 275.195 151.805 275.195C151.326 275.195 150.93 275.37 150.617 275.719C150.305 276.068 150.151 276.542 150.156 277.141H153.438Z" fill="#201F1F"/>
<path d="M244.5 224.5H389.5C393.642 224.5 397 227.858 397 232V320C397 324.142 393.642 327.5 389.5 327.5H244.5C240.358 327.5 237 324.142 237 320V232C237 227.858 240.358 224.5 244.5 224.5Z" fill="#201F1F"/>
<path d="M244.5 224.5H389.5C393.642 224.5 397 227.858 397 232V320C397 324.142 393.642 327.5 389.5 327.5H244.5C240.358 327.5 237 324.142 237 320V232C237 227.858 240.358 224.5 244.5 224.5Z" stroke="#3E3E3D"/>
<path d="M268.5 264C268.5 259.582 272.082 256 276.5 256H357.5C361.918 256 365.5 259.582 365.5 264V288C365.5 292.418 361.918 296 357.5 296H276.5C272.082 296 268.5 292.418 268.5 288V264Z" fill="#96BDE3"/>
<path d="M295.2 283C294.867 283 294.607 282.907 294.42 282.72C294.233 282.533 294.14 282.273 294.14 281.94V269.88C294.14 269.533 294.227 269.273 294.4 269.1C294.587 268.913 294.847 268.82 295.18 268.82C295.513 268.82 295.767 268.913 295.94 269.1C296.127 269.273 296.22 269.533 296.22 269.88V281.22H302.42C302.713 281.22 302.94 281.3 303.1 281.46C303.26 281.607 303.34 281.82 303.34 282.1C303.34 282.38 303.26 282.6 303.1 282.76C302.94 282.92 302.713 283 302.42 283H295.2ZM307.575 283.18C306.895 283.18 306.282 283.047 305.735 282.78C305.202 282.513 304.782 282.153 304.475 281.7C304.168 281.247 304.015 280.733 304.015 280.16C304.015 279.44 304.195 278.873 304.555 278.46C304.928 278.033 305.535 277.733 306.375 277.56C307.228 277.373 308.375 277.28 309.815 277.28H310.755V278.52H309.835C308.875 278.52 308.115 278.567 307.555 278.66C306.995 278.753 306.595 278.913 306.355 279.14C306.128 279.353 306.015 279.653 306.015 280.04C306.015 280.547 306.188 280.96 306.535 281.28C306.882 281.587 307.362 281.74 307.975 281.74C308.468 281.74 308.902 281.627 309.275 281.4C309.648 281.16 309.942 280.84 310.155 280.44C310.382 280.04 310.495 279.58 310.495 279.06V276.76C310.495 276 310.335 275.453 310.015 275.12C309.695 274.787 309.168 274.62 308.435 274.62C308.008 274.62 307.562 274.673 307.095 274.78C306.642 274.887 306.168 275.067 305.675 275.32C305.448 275.427 305.255 275.46 305.095 275.42C304.935 275.38 304.808 275.293 304.715 275.16C304.622 275.013 304.568 274.86 304.555 274.7C304.555 274.527 304.595 274.36 304.675 274.2C304.768 274.04 304.922 273.92 305.135 273.84C305.722 273.56 306.302 273.36 306.875 273.24C307.448 273.12 307.988 273.06 308.495 273.06C309.388 273.06 310.122 273.2 310.695 273.48C311.282 273.76 311.715 274.187 311.995 274.76C312.275 275.333 312.415 276.073 312.415 276.98V282.12C312.415 282.44 312.335 282.693 312.175 282.88C312.015 283.053 311.782 283.14 311.475 283.14C311.182 283.14 310.948 283.053 310.775 282.88C310.602 282.693 310.515 282.44 310.515 282.12V280.82H310.695C310.588 281.313 310.388 281.74 310.095 282.1C309.815 282.447 309.462 282.713 309.035 282.9C308.608 283.087 308.122 283.18 307.575 283.18ZM319.937 283.18C319.084 283.18 318.344 282.967 317.717 282.54C317.091 282.1 316.671 281.52 316.457 280.8L316.677 280.44V282.12C316.677 282.44 316.591 282.693 316.417 282.88C316.244 283.053 316.004 283.14 315.697 283.14C315.377 283.14 315.131 283.053 314.957 282.88C314.784 282.693 314.697 282.44 314.697 282.12V269.78C314.697 269.447 314.784 269.193 314.957 269.02C315.131 268.847 315.377 268.76 315.697 268.76C316.017 268.76 316.264 268.847 316.437 269.02C316.624 269.193 316.717 269.447 316.717 269.78V275.38H316.477C316.691 274.673 317.111 274.113 317.737 273.7C318.364 273.273 319.097 273.06 319.937 273.06C320.817 273.06 321.577 273.267 322.217 273.68C322.857 274.093 323.351 274.673 323.697 275.42C324.057 276.167 324.237 277.067 324.237 278.12C324.237 279.147 324.057 280.047 323.697 280.82C323.351 281.58 322.851 282.167 322.197 282.58C321.557 282.98 320.804 283.18 319.937 283.18ZM319.437 281.62C319.997 281.62 320.484 281.487 320.897 281.22C321.311 280.953 321.631 280.56 321.857 280.04C322.084 279.52 322.197 278.88 322.197 278.12C322.197 276.973 321.944 276.107 321.437 275.52C320.944 274.933 320.277 274.64 319.437 274.64C318.891 274.64 318.404 274.773 317.977 275.04C317.564 275.293 317.244 275.68 317.017 276.2C316.791 276.72 316.677 277.36 316.677 278.12C316.677 279.253 316.931 280.12 317.437 280.72C317.944 281.32 318.611 281.62 319.437 281.62ZM330.594 283.18C329.527 283.18 328.607 282.98 327.834 282.58C327.074 282.167 326.48 281.587 326.054 280.84C325.64 280.08 325.434 279.18 325.434 278.14C325.434 277.127 325.64 276.24 326.054 275.48C326.467 274.72 327.034 274.127 327.754 273.7C328.474 273.273 329.294 273.06 330.214 273.06C330.894 273.06 331.5 273.173 332.034 273.4C332.567 273.613 333.02 273.933 333.394 274.36C333.78 274.773 334.067 275.28 334.254 275.88C334.454 276.48 334.554 277.153 334.554 277.9C334.554 278.127 334.487 278.3 334.354 278.42C334.22 278.527 334.02 278.58 333.754 278.58H327.034V277.34H333.194L332.854 277.62C332.854 276.953 332.754 276.387 332.554 275.92C332.367 275.453 332.08 275.1 331.694 274.86C331.32 274.607 330.854 274.48 330.294 274.48C329.667 274.48 329.134 274.627 328.694 274.92C328.267 275.213 327.94 275.62 327.714 276.14C327.487 276.66 327.374 277.267 327.374 277.96V278.08C327.374 279.253 327.647 280.14 328.194 280.74C328.754 281.327 329.56 281.62 330.614 281.62C331.014 281.62 331.434 281.567 331.874 281.46C332.327 281.353 332.754 281.173 333.154 280.92C333.38 280.787 333.58 280.727 333.754 280.74C333.94 280.753 334.087 280.813 334.194 280.92C334.314 281.027 334.387 281.16 334.414 281.32C334.44 281.48 334.414 281.647 334.334 281.82C334.254 281.98 334.114 282.127 333.914 282.26C333.46 282.567 332.934 282.8 332.334 282.96C331.734 283.107 331.154 283.18 330.594 283.18ZM339.396 283.18C338.356 283.18 337.569 282.88 337.036 282.28C336.516 281.667 336.256 280.787 336.256 279.64V269.78C336.256 269.447 336.343 269.193 336.516 269.02C336.689 268.847 336.936 268.76 337.256 268.76C337.576 268.76 337.823 268.847 337.996 269.02C338.183 269.193 338.276 269.447 338.276 269.78V279.52C338.276 280.187 338.409 280.687 338.676 281.02C338.956 281.34 339.356 281.5 339.876 281.5C339.996 281.5 340.103 281.5 340.196 281.5C340.289 281.487 340.383 281.473 340.476 281.46C340.636 281.447 340.749 281.493 340.816 281.6C340.883 281.693 340.916 281.893 340.916 282.2C340.916 282.48 340.856 282.7 340.736 282.86C340.616 283.007 340.423 283.1 340.156 283.14C340.036 283.153 339.909 283.16 339.776 283.16C339.643 283.173 339.516 283.18 339.396 283.18Z" fill="#201F1F"/>
<path d="M485.5 224.5H630.5C634.642 224.5 638 227.858 638 232V320C638 324.142 634.642 327.5 630.5 327.5H485.5C481.358 327.5 478 324.142 478 320V232C478 227.858 481.358 224.5 485.5 224.5Z" fill="#201F1F"/>
<path d="M485.5 224.5H630.5C634.642 224.5 638 227.858 638 232V320C638 324.142 634.642 327.5 630.5 327.5H485.5C481.358 327.5 478 324.142 478 320V232C478 227.858 481.358 224.5 485.5 224.5Z" stroke="#3E3E3D"/>
<path d="M509.5 264C509.5 259.582 513.082 256 517.5 256H598.5C602.918 256 606.5 259.582 606.5 264V288C606.5 292.418 602.918 296 598.5 296H517.5C513.082 296 509.5 292.418 509.5 288V264Z" fill="#D2C3E4"/>
<path d="M536.2 283C535.867 283 535.607 282.907 535.42 282.72C535.233 282.533 535.14 282.273 535.14 281.94V269.88C535.14 269.533 535.227 269.273 535.4 269.1C535.587 268.913 535.847 268.82 536.18 268.82C536.513 268.82 536.767 268.913 536.94 269.1C537.127 269.273 537.22 269.533 537.22 269.88V281.22H543.42C543.713 281.22 543.94 281.3 544.1 281.46C544.26 281.607 544.34 281.82 544.34 282.1C544.34 282.38 544.26 282.6 544.1 282.76C543.94 282.92 543.713 283 543.42 283H536.2ZM548.575 283.18C547.895 283.18 547.282 283.047 546.735 282.78C546.202 282.513 545.782 282.153 545.475 281.7C545.168 281.247 545.015 280.733 545.015 280.16C545.015 279.44 545.195 278.873 545.555 278.46C545.928 278.033 546.535 277.733 547.375 277.56C548.228 277.373 549.375 277.28 550.815 277.28H551.755V278.52H550.835C549.875 278.52 549.115 278.567 548.555 278.66C547.995 278.753 547.595 278.913 547.355 279.14C547.128 279.353 547.015 279.653 547.015 280.04C547.015 280.547 547.188 280.96 547.535 281.28C547.882 281.587 548.362 281.74 548.975 281.74C549.468 281.74 549.902 281.627 550.275 281.4C550.648 281.16 550.942 280.84 551.155 280.44C551.382 280.04 551.495 279.58 551.495 279.06V276.76C551.495 276 551.335 275.453 551.015 275.12C550.695 274.787 550.168 274.62 549.435 274.62C549.008 274.62 548.562 274.673 548.095 274.78C547.642 274.887 547.168 275.067 546.675 275.32C546.448 275.427 546.255 275.46 546.095 275.42C545.935 275.38 545.808 275.293 545.715 275.16C545.622 275.013 545.568 274.86 545.555 274.7C545.555 274.527 545.595 274.36 545.675 274.2C545.768 274.04 545.922 273.92 546.135 273.84C546.722 273.56 547.302 273.36 547.875 273.24C548.448 273.12 548.988 273.06 549.495 273.06C550.388 273.06 551.122 273.2 551.695 273.48C552.282 273.76 552.715 274.187 552.995 274.76C553.275 275.333 553.415 276.073 553.415 276.98V282.12C553.415 282.44 553.335 282.693 553.175 282.88C553.015 283.053 552.782 283.14 552.475 283.14C552.182 283.14 551.948 283.053 551.775 282.88C551.602 282.693 551.515 282.44 551.515 282.12V280.82H551.695C551.588 281.313 551.388 281.74 551.095 282.1C550.815 282.447 550.462 282.713 550.035 282.9C549.608 283.087 549.122 283.18 548.575 283.18ZM560.937 283.18C560.084 283.18 559.344 282.967 558.717 282.54C558.091 282.1 557.671 281.52 557.457 280.8L557.677 280.44V282.12C557.677 282.44 557.591 282.693 557.417 282.88C557.244 283.053 557.004 283.14 556.697 283.14C556.377 283.14 556.131 283.053 555.957 282.88C555.784 282.693 555.697 282.44 555.697 282.12V269.78C555.697 269.447 555.784 269.193 555.957 269.02C556.131 268.847 556.377 268.76 556.697 268.76C557.017 268.76 557.264 268.847 557.437 269.02C557.624 269.193 557.717 269.447 557.717 269.78V275.38H557.477C557.691 274.673 558.111 274.113 558.737 273.7C559.364 273.273 560.097 273.06 560.937 273.06C561.817 273.06 562.577 273.267 563.217 273.68C563.857 274.093 564.351 274.673 564.697 275.42C565.057 276.167 565.237 277.067 565.237 278.12C565.237 279.147 565.057 280.047 564.697 280.82C564.351 281.58 563.851 282.167 563.197 282.58C562.557 282.98 561.804 283.18 560.937 283.18ZM560.437 281.62C560.997 281.62 561.484 281.487 561.897 281.22C562.311 280.953 562.631 280.56 562.857 280.04C563.084 279.52 563.197 278.88 563.197 278.12C563.197 276.973 562.944 276.107 562.437 275.52C561.944 274.933 561.277 274.64 560.437 274.64C559.891 274.64 559.404 274.773 558.977 275.04C558.564 275.293 558.244 275.68 558.017 276.2C557.791 276.72 557.677 277.36 557.677 278.12C557.677 279.253 557.931 280.12 558.437 280.72C558.944 281.32 559.611 281.62 560.437 281.62ZM571.594 283.18C570.527 283.18 569.607 282.98 568.834 282.58C568.074 282.167 567.48 281.587 567.054 280.84C566.64 280.08 566.434 279.18 566.434 278.14C566.434 277.127 566.64 276.24 567.054 275.48C567.467 274.72 568.034 274.127 568.754 273.7C569.474 273.273 570.294 273.06 571.214 273.06C571.894 273.06 572.5 273.173 573.034 273.4C573.567 273.613 574.02 273.933 574.394 274.36C574.78 274.773 575.067 275.28 575.254 275.88C575.454 276.48 575.554 277.153 575.554 277.9C575.554 278.127 575.487 278.3 575.354 278.42C575.22 278.527 575.02 278.58 574.754 278.58H568.034V277.34H574.194L573.854 277.62C573.854 276.953 573.754 276.387 573.554 275.92C573.367 275.453 573.08 275.1 572.694 274.86C572.32 274.607 571.854 274.48 571.294 274.48C570.667 274.48 570.134 274.627 569.694 274.92C569.267 275.213 568.94 275.62 568.714 276.14C568.487 276.66 568.374 277.267 568.374 277.96V278.08C568.374 279.253 568.647 280.14 569.194 280.74C569.754 281.327 570.56 281.62 571.614 281.62C572.014 281.62 572.434 281.567 572.874 281.46C573.327 281.353 573.754 281.173 574.154 280.92C574.38 280.787 574.58 280.727 574.754 280.74C574.94 280.753 575.087 280.813 575.194 280.92C575.314 281.027 575.387 281.16 575.414 281.32C575.44 281.48 575.414 281.647 575.334 281.82C575.254 281.98 575.114 282.127 574.914 282.26C574.46 282.567 573.934 282.8 573.334 282.96C572.734 283.107 572.154 283.18 571.594 283.18ZM580.396 283.18C579.356 283.18 578.569 282.88 578.036 282.28C577.516 281.667 577.256 280.787 577.256 279.64V269.78C577.256 269.447 577.343 269.193 577.516 269.02C577.689 268.847 577.936 268.76 578.256 268.76C578.576 268.76 578.823 268.847 578.996 269.02C579.183 269.193 579.276 269.447 579.276 269.78V279.52C579.276 280.187 579.409 280.687 579.676 281.02C579.956 281.34 580.356 281.5 580.876 281.5C580.996 281.5 581.103 281.5 581.196 281.5C581.289 281.487 581.383 281.473 581.476 281.46C581.636 281.447 581.749 281.493 581.816 281.6C581.883 281.693 581.916 281.893 581.916 282.2C581.916 282.48 581.856 282.7 581.736 282.86C581.616 283.007 581.423 283.1 581.156 283.14C581.036 283.153 580.909 283.16 580.776 283.16C580.643 283.173 580.516 283.18 580.396 283.18Z" fill="#201F1F"/>
</svg>
