<svg width="712" height="138" viewBox="0 0 712 138" fill="none" xmlns="http://www.w3.org/2000/svg">
<g clip-path="url(#clip0_968_8044)">
<path d="M0 8C0 3.58172 3.58172 0 8 0H704C708.418 0 712 3.58172 712 8V130C712 134.418 708.418 138 704 138H8C3.58172 138 0 134.418 0 130V8Z" fill="white"/>
<path d="M17.0391 21V10.9785H19.0078L23.1094 17.6709V10.9785H24.9893V21H22.959L18.9189 14.4648V21H17.0391ZM26.6777 17.2676C26.6777 16.6296 26.835 16.012 27.1494 15.415C27.4639 14.818 27.9082 14.3623 28.4824 14.0479C29.0612 13.7334 29.7061 13.5762 30.417 13.5762C31.5153 13.5762 32.4154 13.9339 33.1172 14.6494C33.819 15.3604 34.1699 16.2604 34.1699 17.3496C34.1699 18.4479 33.8145 19.3594 33.1035 20.084C32.3971 20.804 31.5062 21.1641 30.4307 21.1641C29.7653 21.1641 29.1296 21.0137 28.5234 20.7129C27.9219 20.4121 27.4639 19.9723 27.1494 19.3936C26.835 18.8102 26.6777 18.1016 26.6777 17.2676ZM28.6465 17.3701C28.6465 18.0902 28.8174 18.6416 29.1592 19.0244C29.501 19.4072 29.9225 19.5986 30.4238 19.5986C30.9251 19.5986 31.3444 19.4072 31.6816 19.0244C32.0234 18.6416 32.1943 18.0856 32.1943 17.3564C32.1943 16.6455 32.0234 16.0986 31.6816 15.7158C31.3444 15.333 30.9251 15.1416 30.4238 15.1416C29.9225 15.1416 29.501 15.333 29.1592 15.7158C28.8174 16.0986 28.6465 16.6501 28.6465 17.3701ZM35.5371 13.7402H37.3076V14.7314C37.9411 13.9613 38.6953 13.5762 39.5703 13.5762C40.0352 13.5762 40.4385 13.6719 40.7803 13.8633C41.1221 14.0547 41.4023 14.3441 41.6211 14.7314C41.9401 14.3441 42.2842 14.0547 42.6533 13.8633C43.0225 13.6719 43.4167 13.5762 43.8359 13.5762C44.3691 13.5762 44.8203 13.6855 45.1895 13.9043C45.5586 14.1185 45.8343 14.4352 46.0166 14.8545C46.1488 15.1644 46.2148 15.6657 46.2148 16.3584V21H44.2939V16.8506C44.2939 16.1305 44.2279 15.6657 44.0957 15.4561C43.918 15.1826 43.6445 15.0459 43.2754 15.0459C43.0065 15.0459 42.7536 15.1279 42.5166 15.292C42.2796 15.4561 42.1087 15.6976 42.0039 16.0166C41.8991 16.3311 41.8467 16.8301 41.8467 17.5137V21H39.9258V17.0215C39.9258 16.3151 39.8916 15.8594 39.8232 15.6543C39.7549 15.4492 39.6478 15.2965 39.502 15.1963C39.3607 15.096 39.167 15.0459 38.9209 15.0459C38.6247 15.0459 38.3581 15.1257 38.1211 15.2852C37.8841 15.4447 37.7132 15.6748 37.6084 15.9756C37.5081 16.2764 37.458 16.7754 37.458 17.4727V21H35.5371V13.7402ZM58.6904 21H56.9062V19.9336C56.61 20.3483 56.2591 20.6582 55.8535 20.8633C55.4525 21.0638 55.0469 21.1641 54.6367 21.1641C53.8027 21.1641 53.0872 20.8291 52.4902 20.1592C51.8978 19.4847 51.6016 18.5459 51.6016 17.3428C51.6016 16.1123 51.891 15.1781 52.4697 14.54C53.0485 13.8975 53.7799 13.5762 54.6641 13.5762C55.4753 13.5762 56.1771 13.9134 56.7695 14.5879V10.9785H58.6904V21ZM53.5635 17.2129C53.5635 17.9876 53.6706 18.5482 53.8848 18.8945C54.1947 19.3958 54.6276 19.6465 55.1836 19.6465C55.6257 19.6465 56.0016 19.4596 56.3115 19.0859C56.6214 18.7077 56.7764 18.1449 56.7764 17.3975C56.7764 16.5635 56.626 15.9642 56.3252 15.5996C56.0244 15.2305 55.6393 15.0459 55.1699 15.0459C54.7142 15.0459 54.3314 15.2282 54.0215 15.5928C53.7161 15.9528 53.5635 16.4928 53.5635 17.2129ZM65.3691 21V19.9131C65.1048 20.3005 64.7562 20.6058 64.3232 20.8291C63.8949 21.0524 63.4414 21.1641 62.9629 21.1641C62.4753 21.1641 62.0378 21.057 61.6504 20.8428C61.263 20.6286 60.9827 20.3278 60.8096 19.9404C60.6364 19.5531 60.5498 19.0176 60.5498 18.334V13.7402H62.4707V17.0762C62.4707 18.097 62.5049 18.7236 62.5732 18.9561C62.6462 19.1839 62.776 19.3662 62.9629 19.5029C63.1497 19.6351 63.3867 19.7012 63.6738 19.7012C64.002 19.7012 64.2959 19.6123 64.5557 19.4346C64.8154 19.2523 64.9932 19.029 65.0889 18.7646C65.1846 18.4958 65.2324 17.8418 65.2324 16.8027V13.7402H67.1533V21H65.3691ZM76.375 13.7402V15.2715H75.0625V18.1973C75.0625 18.7897 75.0739 19.1361 75.0967 19.2363C75.124 19.332 75.181 19.4118 75.2676 19.4756C75.3587 19.5394 75.4681 19.5713 75.5957 19.5713C75.7734 19.5713 76.0309 19.5098 76.3682 19.3867L76.5322 20.877C76.0856 21.0684 75.5798 21.1641 75.0146 21.1641C74.6683 21.1641 74.3561 21.1071 74.0781 20.9932C73.8001 20.8747 73.5951 20.7243 73.4629 20.542C73.3353 20.3551 73.2464 20.1045 73.1963 19.79C73.1553 19.5667 73.1348 19.1156 73.1348 18.4365V15.2715H72.2529V13.7402H73.1348V12.2979L75.0625 11.1768V13.7402H76.375ZM77.2637 17.2676C77.2637 16.6296 77.4209 16.012 77.7354 15.415C78.0498 14.818 78.4941 14.3623 79.0684 14.0479C79.6471 13.7334 80.292 13.5762 81.0029 13.5762C82.1012 13.5762 83.0013 13.9339 83.7031 14.6494C84.4049 15.3604 84.7559 16.2604 84.7559 17.3496C84.7559 18.4479 84.4004 19.3594 83.6895 20.084C82.9831 20.804 82.0921 21.1641 81.0166 21.1641C80.3512 21.1641 79.7155 21.0137 79.1094 20.7129C78.5078 20.4121 78.0498 19.9723 77.7354 19.3936C77.4209 18.8102 77.2637 18.1016 77.2637 17.2676ZM79.2324 17.3701C79.2324 18.0902 79.4033 18.6416 79.7451 19.0244C80.0869 19.4072 80.5085 19.5986 81.0098 19.5986C81.5111 19.5986 81.9303 19.4072 82.2676 19.0244C82.6094 18.6416 82.7803 18.0856 82.7803 17.3564C82.7803 16.6455 82.6094 16.0986 82.2676 15.7158C81.9303 15.333 81.5111 15.1416 81.0098 15.1416C80.5085 15.1416 80.0869 15.333 79.7451 15.7158C79.4033 16.0986 79.2324 16.6501 79.2324 17.3701ZM86.1982 21V10.9785H88.1191V16.2969L90.3682 13.7402H92.7334L90.252 16.3926L92.9111 21H90.8398L89.0146 17.7393L88.1191 18.6758V21H86.1982ZM98.2637 18.6895L100.178 19.0107C99.9316 19.7126 99.542 20.248 99.0088 20.6172C98.4801 20.9818 97.8171 21.1641 97.0195 21.1641C95.7572 21.1641 94.8229 20.7516 94.2168 19.9268C93.7383 19.266 93.499 18.432 93.499 17.4248C93.499 16.2217 93.8135 15.2806 94.4424 14.6016C95.0713 13.918 95.8665 13.5762 96.8281 13.5762C97.9082 13.5762 98.7604 13.9339 99.3848 14.6494C100.009 15.3604 100.308 16.4518 100.28 17.9238H95.4678C95.4814 18.4935 95.6364 18.9378 95.9326 19.2568C96.2288 19.5713 96.598 19.7285 97.04 19.7285C97.3408 19.7285 97.5938 19.6465 97.7988 19.4824C98.0039 19.3184 98.1589 19.054 98.2637 18.6895ZM98.373 16.748C98.3594 16.1921 98.2158 15.7705 97.9424 15.4834C97.6689 15.1917 97.3363 15.0459 96.9443 15.0459C96.5251 15.0459 96.1787 15.1986 95.9053 15.5039C95.6318 15.8092 95.4974 16.224 95.502 16.748H98.373ZM108.456 21H106.535V17.2949C106.535 16.5111 106.494 16.0052 106.412 15.7773C106.33 15.5449 106.196 15.3649 106.009 15.2373C105.826 15.1097 105.605 15.0459 105.346 15.0459C105.013 15.0459 104.715 15.137 104.45 15.3193C104.186 15.5016 104.004 15.7432 103.903 16.0439C103.808 16.3447 103.76 16.9007 103.76 17.7119V21H101.839V13.7402H103.623V14.8066C104.257 13.9863 105.054 13.5762 106.016 13.5762C106.439 13.5762 106.827 13.6536 107.178 13.8086C107.529 13.959 107.793 14.1527 107.971 14.3896C108.153 14.6266 108.278 14.8955 108.347 15.1963C108.42 15.4971 108.456 15.9277 108.456 16.4883V21Z" fill="#201F1F"/>
<path d="M0 33H356V34H0V33Z" fill="#CDCCCB"/>
<path d="M375.575 21L371.993 10.9785H374.188L376.724 18.3955L379.178 10.9785H381.324L377.735 21H375.575ZM382.999 15.9551L381.256 15.6406C381.452 14.9388 381.789 14.4193 382.268 14.082C382.746 13.7448 383.457 13.5762 384.4 13.5762C385.257 13.5762 385.895 13.6787 386.314 13.8838C386.734 14.0843 387.028 14.3418 387.196 14.6562C387.369 14.9661 387.456 15.5381 387.456 16.3721L387.436 18.6143C387.436 19.2523 387.465 19.724 387.524 20.0293C387.588 20.3301 387.704 20.6536 387.873 21H385.973C385.923 20.8724 385.861 20.6833 385.788 20.4326C385.756 20.3187 385.733 20.2435 385.72 20.207C385.392 20.526 385.041 20.7653 384.667 20.9248C384.293 21.0843 383.895 21.1641 383.471 21.1641C382.723 21.1641 382.133 20.9613 381.7 20.5557C381.272 20.1501 381.058 19.6374 381.058 19.0176C381.058 18.6074 381.156 18.2428 381.352 17.9238C381.548 17.6003 381.821 17.3542 382.172 17.1855C382.527 17.0124 383.038 16.862 383.703 16.7344C384.601 16.5658 385.223 16.4085 385.569 16.2627V16.0713C385.569 15.7021 385.478 15.4401 385.296 15.2852C385.114 15.1257 384.77 15.0459 384.264 15.0459C383.922 15.0459 383.655 15.1143 383.464 15.251C383.272 15.3831 383.118 15.6178 382.999 15.9551ZM385.569 17.5137C385.323 17.5957 384.934 17.6937 384.4 17.8076C383.867 17.9215 383.519 18.0332 383.354 18.1426C383.104 18.3203 382.979 18.5459 382.979 18.8193C382.979 19.0882 383.079 19.3206 383.279 19.5166C383.48 19.7126 383.735 19.8105 384.045 19.8105C384.391 19.8105 384.722 19.6966 385.036 19.4688C385.269 19.2956 385.421 19.0837 385.494 18.833C385.544 18.6689 385.569 18.3568 385.569 17.8965V17.5137ZM389.356 21V10.9785H391.277V21H389.356ZM397.457 18.6895L399.371 19.0107C399.125 19.7126 398.735 20.248 398.202 20.6172C397.674 20.9818 397.01 21.1641 396.213 21.1641C394.951 21.1641 394.016 20.7516 393.41 19.9268C392.932 19.266 392.692 18.432 392.692 17.4248C392.692 16.2217 393.007 15.2806 393.636 14.6016C394.265 13.918 395.06 13.5762 396.021 13.5762C397.102 13.5762 397.954 13.9339 398.578 14.6494C399.202 15.3604 399.501 16.4518 399.474 17.9238H394.661C394.675 18.4935 394.83 18.9378 395.126 19.2568C395.422 19.5713 395.791 19.7285 396.233 19.7285C396.534 19.7285 396.787 19.6465 396.992 19.4824C397.197 19.3184 397.352 19.054 397.457 18.6895ZM397.566 16.748C397.553 16.1921 397.409 15.7705 397.136 15.4834C396.862 15.1917 396.53 15.0459 396.138 15.0459C395.718 15.0459 395.372 15.1986 395.099 15.5039C394.825 15.8092 394.691 16.224 394.695 16.748H397.566ZM405.824 21V19.9131C405.56 20.3005 405.211 20.6058 404.778 20.8291C404.35 21.0524 403.896 21.1641 403.418 21.1641C402.93 21.1641 402.493 21.057 402.105 20.8428C401.718 20.6286 401.438 20.3278 401.265 19.9404C401.091 19.5531 401.005 19.0176 401.005 18.334V13.7402H402.926V17.0762C402.926 18.097 402.96 18.7236 403.028 18.9561C403.101 19.1839 403.231 19.3662 403.418 19.5029C403.605 19.6351 403.842 19.7012 404.129 19.7012C404.457 19.7012 404.751 19.6123 405.011 19.4346C405.271 19.2523 405.448 19.029 405.544 18.7646C405.64 18.4958 405.688 17.8418 405.688 16.8027V13.7402H407.608V21H405.824ZM411.443 21H409.522V13.7402H411.307V14.7725C411.612 14.2848 411.885 13.9635 412.127 13.8086C412.373 13.6536 412.651 13.5762 412.961 13.5762C413.398 13.5762 413.82 13.6969 414.226 13.9385L413.631 15.6133C413.307 15.4036 413.007 15.2988 412.729 15.2988C412.46 15.2988 412.232 15.374 412.045 15.5244C411.858 15.6702 411.71 15.9368 411.601 16.3242C411.496 16.7116 411.443 17.5228 411.443 18.7578V21Z" fill="#201F1F"/>
<path d="M356 33H712V34H356V33Z" fill="#CDCCCB"/>
<path d="M18.0576 65H16.916V54.9785H18.1465V58.5537C18.666 57.902 19.3291 57.5762 20.1357 57.5762C20.5824 57.5762 21.0039 57.6673 21.4004 57.8496C21.8014 58.0273 22.1296 58.2803 22.3848 58.6084C22.6445 58.932 22.8473 59.3239 22.9932 59.7842C23.139 60.2445 23.2119 60.7367 23.2119 61.2607C23.2119 62.5049 22.9043 63.4665 22.2891 64.1455C21.6738 64.8245 20.9355 65.1641 20.0742 65.1641C19.2174 65.1641 18.5452 64.8063 18.0576 64.0908V65ZM18.0439 61.3154C18.0439 62.1859 18.1624 62.8148 18.3994 63.2021C18.7868 63.8356 19.3109 64.1523 19.9717 64.1523C20.5094 64.1523 20.9743 63.9199 21.3662 63.4551C21.7581 62.9857 21.9541 62.2884 21.9541 61.3633C21.9541 60.4154 21.765 59.7158 21.3867 59.2646C21.013 58.8135 20.5596 58.5879 20.0264 58.5879C19.4886 58.5879 19.0238 58.8226 18.6318 59.292C18.2399 59.7568 18.0439 60.4313 18.0439 61.3154ZM24.2578 61.3701C24.2578 60.0257 24.6315 59.0299 25.3789 58.3828C26.0033 57.8451 26.7643 57.5762 27.6621 57.5762C28.6602 57.5762 29.4759 57.9043 30.1094 58.5605C30.7428 59.2122 31.0596 60.1146 31.0596 61.2676C31.0596 62.2018 30.9183 62.9378 30.6357 63.4756C30.3577 64.0088 29.9499 64.4235 29.4121 64.7197C28.8789 65.016 28.2956 65.1641 27.6621 65.1641C26.6458 65.1641 25.8232 64.8382 25.1943 64.1865C24.57 63.5348 24.2578 62.596 24.2578 61.3701ZM25.5225 61.3701C25.5225 62.2998 25.7253 62.9971 26.1309 63.4619C26.5365 63.9222 27.0469 64.1523 27.6621 64.1523C28.2728 64.1523 28.7809 63.9199 29.1865 63.4551C29.5921 62.9902 29.7949 62.2816 29.7949 61.3291C29.7949 60.4313 29.5898 59.7523 29.1797 59.292C28.7741 58.8271 28.2682 58.5947 27.6621 58.5947C27.0469 58.5947 26.5365 58.8249 26.1309 59.2852C25.7253 59.7454 25.5225 60.4404 25.5225 61.3701ZM32.4951 65V57.7402H33.6025V58.8408C33.8851 58.3258 34.1449 57.9863 34.3818 57.8223C34.6234 57.6582 34.8877 57.5762 35.1748 57.5762C35.5895 57.5762 36.0111 57.7083 36.4395 57.9727L36.0156 59.1143C35.7148 58.9365 35.4141 58.8477 35.1133 58.8477C34.8444 58.8477 34.6029 58.9297 34.3887 59.0938C34.1745 59.2533 34.0218 59.4766 33.9307 59.7637C33.7939 60.2012 33.7256 60.6797 33.7256 61.1992V65H32.4951ZM41.8809 65V64.084C41.4206 64.804 40.7438 65.1641 39.8506 65.1641C39.2718 65.1641 38.7386 65.0046 38.251 64.6855C37.7679 64.3665 37.3919 63.9222 37.123 63.3525C36.8587 62.7783 36.7266 62.1198 36.7266 61.377C36.7266 60.6523 36.8473 59.9961 37.0889 59.4082C37.3304 58.8158 37.6927 58.3623 38.1758 58.0479C38.6589 57.7334 39.1989 57.5762 39.7959 57.5762C40.2334 57.5762 40.623 57.6696 40.9648 57.8564C41.3066 58.0387 41.5846 58.278 41.7988 58.5742V54.9785H43.0225V65H41.8809ZM37.9912 61.377C37.9912 62.3066 38.1872 63.0016 38.5791 63.4619C38.971 63.9222 39.4336 64.1523 39.9668 64.1523C40.5046 64.1523 40.9603 63.9336 41.334 63.4961C41.7122 63.054 41.9014 62.3818 41.9014 61.4795C41.9014 60.486 41.71 59.7568 41.3271 59.292C40.9443 58.8271 40.4727 58.5947 39.9121 58.5947C39.3652 58.5947 38.9072 58.818 38.5381 59.2646C38.1735 59.7113 37.9912 60.4154 37.9912 61.377ZM49.9336 62.6621L51.2051 62.8193C51.0046 63.5622 50.6331 64.1387 50.0908 64.5488C49.5485 64.959 48.8558 65.1641 48.0127 65.1641C46.9508 65.1641 46.1077 64.8382 45.4834 64.1865C44.8636 63.5303 44.5537 62.612 44.5537 61.4316C44.5537 60.2103 44.8682 59.2624 45.4971 58.5879C46.126 57.9134 46.9417 57.5762 47.9443 57.5762C48.915 57.5762 49.708 57.9066 50.3232 58.5674C50.9385 59.2282 51.2461 60.1579 51.2461 61.3564C51.2461 61.4294 51.2438 61.5387 51.2393 61.6846H45.8252C45.8708 62.4821 46.0964 63.0928 46.502 63.5166C46.9076 63.9404 47.4134 64.1523 48.0195 64.1523C48.4707 64.1523 48.8558 64.0339 49.1748 63.7969C49.4938 63.5599 49.7467 63.1816 49.9336 62.6621ZM45.8936 60.6729H49.9473C49.8926 60.0622 49.7376 59.6042 49.4824 59.2988C49.0905 58.8249 48.5824 58.5879 47.958 58.5879C47.3929 58.5879 46.9167 58.777 46.5293 59.1553C46.1465 59.5335 45.9346 60.0394 45.8936 60.6729ZM52.7432 65V57.7402H53.8506V58.8408C54.1331 58.3258 54.3929 57.9863 54.6299 57.8223C54.8714 57.6582 55.1357 57.5762 55.4229 57.5762C55.8376 57.5762 56.2591 57.7083 56.6875 57.9727L56.2637 59.1143C55.9629 58.9365 55.6621 58.8477 55.3613 58.8477C55.0924 58.8477 54.8509 58.9297 54.6367 59.0938C54.4225 59.2533 54.2699 59.4766 54.1787 59.7637C54.042 60.2012 53.9736 60.6797 53.9736 61.1992V65H52.7432ZM56.4961 65.1709L59.4014 54.8076H60.3857L57.4873 65.1709H56.4961ZM62.4502 65H61.3086V54.9785H62.5391V58.5537C63.0586 57.902 63.7217 57.5762 64.5283 57.5762C64.9749 57.5762 65.3965 57.6673 65.793 57.8496C66.194 58.0273 66.5221 58.2803 66.7773 58.6084C67.0371 58.932 67.2399 59.3239 67.3857 59.7842C67.5316 60.2445 67.6045 60.7367 67.6045 61.2607C67.6045 62.5049 67.2969 63.4665 66.6816 64.1455C66.0664 64.8245 65.3281 65.1641 64.4668 65.1641C63.61 65.1641 62.9378 64.8063 62.4502 64.0908V65ZM62.4365 61.3154C62.4365 62.1859 62.555 62.8148 62.792 63.2021C63.1794 63.8356 63.7035 64.1523 64.3643 64.1523C64.902 64.1523 65.3669 63.9199 65.7588 63.4551C66.1507 62.9857 66.3467 62.2884 66.3467 61.3633C66.3467 60.4154 66.1576 59.7158 65.7793 59.2646C65.4056 58.8135 64.9521 58.5879 64.4189 58.5879C63.8812 58.5879 63.4163 58.8226 63.0244 59.292C62.6325 59.7568 62.4365 60.4313 62.4365 61.3154ZM69.0947 65V57.7402H70.2021V58.8408C70.4847 58.3258 70.7445 57.9863 70.9814 57.8223C71.223 57.6582 71.4873 57.5762 71.7744 57.5762C72.1891 57.5762 72.6107 57.7083 73.0391 57.9727L72.6152 59.1143C72.3145 58.9365 72.0137 58.8477 71.7129 58.8477C71.444 58.8477 71.2025 58.9297 70.9883 59.0938C70.7741 59.2533 70.6214 59.4766 70.5303 59.7637C70.3936 60.2012 70.3252 60.6797 70.3252 61.1992V65H69.0947ZM78.5078 64.1045C78.0521 64.4919 77.6123 64.7653 77.1885 64.9248C76.7692 65.0843 76.318 65.1641 75.835 65.1641C75.0374 65.1641 74.4245 64.9704 73.9961 64.583C73.5677 64.1911 73.3535 63.6921 73.3535 63.0859C73.3535 62.7305 73.4333 62.4069 73.5928 62.1152C73.7568 61.819 73.9688 61.582 74.2285 61.4043C74.4928 61.2266 74.7891 61.0921 75.1172 61.001C75.3587 60.9372 75.7233 60.8757 76.2109 60.8164C77.2044 60.6979 77.9359 60.5566 78.4053 60.3926C78.4098 60.224 78.4121 60.1169 78.4121 60.0713C78.4121 59.57 78.2959 59.2168 78.0635 59.0117C77.749 58.7337 77.2819 58.5947 76.6621 58.5947C76.0833 58.5947 75.6549 58.6973 75.377 58.9023C75.1035 59.1029 74.9007 59.4606 74.7686 59.9756L73.5654 59.8115C73.6748 59.2965 73.8548 58.8818 74.1055 58.5674C74.3561 58.2484 74.7184 58.0046 75.1924 57.8359C75.6663 57.6628 76.2155 57.5762 76.8398 57.5762C77.4596 57.5762 77.9632 57.6491 78.3506 57.7949C78.738 57.9408 79.0228 58.1253 79.2051 58.3486C79.3874 58.5674 79.515 58.8454 79.5879 59.1826C79.6289 59.3923 79.6494 59.7705 79.6494 60.3174V61.958C79.6494 63.1019 79.6745 63.8265 79.7246 64.1318C79.7793 64.4326 79.8841 64.722 80.0391 65H78.7539C78.6263 64.7448 78.5443 64.4463 78.5078 64.1045ZM78.4053 61.3564C77.9587 61.5387 77.2887 61.6937 76.3955 61.8213C75.8896 61.8942 75.5319 61.9762 75.3223 62.0674C75.1126 62.1585 74.9508 62.293 74.8369 62.4707C74.723 62.6439 74.666 62.8376 74.666 63.0518C74.666 63.3799 74.7891 63.6533 75.0352 63.8721C75.2858 64.0908 75.6504 64.2002 76.1289 64.2002C76.6029 64.2002 77.0244 64.0977 77.3936 63.8926C77.7627 63.6829 78.0339 63.3981 78.207 63.0381C78.3392 62.7601 78.4053 62.3499 78.4053 61.8076V61.3564ZM81.5635 65V57.7402H82.6709V58.7725C83.2041 57.9749 83.9743 57.5762 84.9814 57.5762C85.4189 57.5762 85.82 57.6559 86.1846 57.8154C86.5537 57.9704 86.8294 58.1755 87.0117 58.4307C87.194 58.6859 87.3216 58.9889 87.3945 59.3398C87.4401 59.5677 87.4629 59.9665 87.4629 60.5361V65H86.2324V60.584C86.2324 60.0827 86.1846 59.709 86.0889 59.4629C85.9932 59.2122 85.8223 59.014 85.5762 58.8682C85.3346 58.7178 85.0498 58.6426 84.7217 58.6426C84.1976 58.6426 83.7441 58.8089 83.3613 59.1416C82.9831 59.4743 82.7939 60.1055 82.7939 61.0352V65H81.5635ZM94.0664 65V64.084C93.6061 64.804 92.9294 65.1641 92.0361 65.1641C91.4574 65.1641 90.9242 65.0046 90.4365 64.6855C89.9535 64.3665 89.5775 63.9222 89.3086 63.3525C89.0443 62.7783 88.9121 62.1198 88.9121 61.377C88.9121 60.6523 89.0329 59.9961 89.2744 59.4082C89.516 58.8158 89.8783 58.3623 90.3613 58.0479C90.8444 57.7334 91.3844 57.5762 91.9814 57.5762C92.4189 57.5762 92.8086 57.6696 93.1504 57.8564C93.4922 58.0387 93.7702 58.278 93.9844 58.5742V54.9785H95.208V65H94.0664ZM90.1768 61.377C90.1768 62.3066 90.3727 63.0016 90.7646 63.4619C91.1566 63.9222 91.6191 64.1523 92.1523 64.1523C92.6901 64.1523 93.1458 63.9336 93.5195 63.4961C93.8978 63.054 94.0869 62.3818 94.0869 61.4795C94.0869 60.486 93.8955 59.7568 93.5127 59.292C93.1299 58.8271 92.6582 58.5947 92.0977 58.5947C91.5508 58.5947 91.0928 58.818 90.7236 59.2646C90.359 59.7113 90.1768 60.4154 90.1768 61.377ZM96.6709 61.9922V60.7549H100.451V61.9922H96.6709ZM101.812 65V57.7402H102.919V58.7725C103.452 57.9749 104.222 57.5762 105.229 57.5762C105.667 57.5762 106.068 57.6559 106.433 57.8154C106.802 57.9704 107.077 58.1755 107.26 58.4307C107.442 58.6859 107.57 58.9889 107.643 59.3398C107.688 59.5677 107.711 59.9665 107.711 60.5361V65H106.48V60.584C106.48 60.0827 106.433 59.709 106.337 59.4629C106.241 59.2122 106.07 59.014 105.824 58.8682C105.583 58.7178 105.298 58.6426 104.97 58.6426C104.446 58.6426 103.992 58.8089 103.609 59.1416C103.231 59.4743 103.042 60.1055 103.042 61.0352V65H101.812ZM114.342 64.1045C113.886 64.4919 113.446 64.7653 113.022 64.9248C112.603 65.0843 112.152 65.1641 111.669 65.1641C110.871 65.1641 110.258 64.9704 109.83 64.583C109.402 64.1911 109.188 63.6921 109.188 63.0859C109.188 62.7305 109.267 62.4069 109.427 62.1152C109.591 61.819 109.803 61.582 110.062 61.4043C110.327 61.2266 110.623 61.0921 110.951 61.001C111.193 60.9372 111.557 60.8757 112.045 60.8164C113.038 60.6979 113.77 60.5566 114.239 60.3926C114.244 60.224 114.246 60.1169 114.246 60.0713C114.246 59.57 114.13 59.2168 113.897 59.0117C113.583 58.7337 113.116 58.5947 112.496 58.5947C111.917 58.5947 111.489 58.6973 111.211 58.9023C110.938 59.1029 110.735 59.4606 110.603 59.9756L109.399 59.8115C109.509 59.2965 109.689 58.8818 109.939 58.5674C110.19 58.2484 110.552 58.0046 111.026 57.8359C111.5 57.6628 112.049 57.5762 112.674 57.5762C113.294 57.5762 113.797 57.6491 114.185 57.7949C114.572 57.9408 114.857 58.1253 115.039 58.3486C115.221 58.5674 115.349 58.8454 115.422 59.1826C115.463 59.3923 115.483 59.7705 115.483 60.3174V61.958C115.483 63.1019 115.508 63.8265 115.559 64.1318C115.613 64.4326 115.718 64.722 115.873 65H114.588C114.46 64.7448 114.378 64.4463 114.342 64.1045ZM114.239 61.3564C113.793 61.5387 113.123 61.6937 112.229 61.8213C111.724 61.8942 111.366 61.9762 111.156 62.0674C110.947 62.1585 110.785 62.293 110.671 62.4707C110.557 62.6439 110.5 62.8376 110.5 63.0518C110.5 63.3799 110.623 63.6533 110.869 63.8721C111.12 64.0908 111.484 64.2002 111.963 64.2002C112.437 64.2002 112.858 64.0977 113.228 63.8926C113.597 63.6829 113.868 63.3981 114.041 63.0381C114.173 62.7601 114.239 62.3499 114.239 61.8076V61.3564ZM119.414 65L116.652 57.7402H117.951L119.51 62.0879C119.678 62.5573 119.833 63.0449 119.975 63.5508C120.084 63.168 120.237 62.7077 120.433 62.1699L122.046 57.7402H123.311L120.562 65H119.414ZM124.404 56.3936V54.9785H125.635V56.3936H124.404ZM124.404 65V57.7402H125.635V65H124.404ZM127.289 65.6016L128.485 65.7793C128.535 66.1484 128.674 66.4173 128.902 66.5859C129.208 66.8138 129.625 66.9277 130.153 66.9277C130.723 66.9277 131.163 66.8138 131.473 66.5859C131.783 66.3581 131.992 66.0391 132.102 65.6289C132.165 65.3783 132.195 64.8519 132.19 64.0498C131.653 64.6833 130.983 65 130.181 65C129.183 65 128.41 64.64 127.863 63.9199C127.316 63.1999 127.043 62.3363 127.043 61.3291C127.043 60.6364 127.168 59.9984 127.419 59.415C127.67 58.8271 128.032 58.3737 128.506 58.0547C128.984 57.7357 129.545 57.5762 130.188 57.5762C131.044 57.5762 131.751 57.9225 132.307 58.6152V57.7402H133.441V64.0156C133.441 65.1458 133.325 65.9456 133.093 66.415C132.865 66.889 132.5 67.2627 131.999 67.5361C131.502 67.8096 130.889 67.9463 130.16 67.9463C129.294 67.9463 128.595 67.7503 128.062 67.3584C127.528 66.971 127.271 66.3854 127.289 65.6016ZM128.308 61.2402C128.308 62.1927 128.497 62.8877 128.875 63.3252C129.253 63.7627 129.727 63.9814 130.297 63.9814C130.862 63.9814 131.336 63.765 131.719 63.332C132.102 62.8945 132.293 62.2109 132.293 61.2812C132.293 60.3926 132.095 59.7227 131.698 59.2715C131.306 58.8203 130.832 58.5947 130.276 58.5947C129.729 58.5947 129.265 58.818 128.882 59.2646C128.499 59.7067 128.308 60.3652 128.308 61.2402ZM140.045 64.1045C139.589 64.4919 139.149 64.7653 138.726 64.9248C138.306 65.0843 137.855 65.1641 137.372 65.1641C136.575 65.1641 135.962 64.9704 135.533 64.583C135.105 64.1911 134.891 63.6921 134.891 63.0859C134.891 62.7305 134.97 62.4069 135.13 62.1152C135.294 61.819 135.506 61.582 135.766 61.4043C136.03 61.2266 136.326 61.0921 136.654 61.001C136.896 60.9372 137.26 60.8757 137.748 60.8164C138.742 60.6979 139.473 60.5566 139.942 60.3926C139.947 60.224 139.949 60.1169 139.949 60.0713C139.949 59.57 139.833 59.2168 139.601 59.0117C139.286 58.7337 138.819 58.5947 138.199 58.5947C137.62 58.5947 137.192 58.6973 136.914 58.9023C136.641 59.1029 136.438 59.4606 136.306 59.9756L135.103 59.8115C135.212 59.2965 135.392 58.8818 135.643 58.5674C135.893 58.2484 136.256 58.0046 136.729 57.8359C137.203 57.6628 137.753 57.5762 138.377 57.5762C138.997 57.5762 139.5 57.6491 139.888 57.7949C140.275 57.9408 140.56 58.1253 140.742 58.3486C140.924 58.5674 141.052 58.8454 141.125 59.1826C141.166 59.3923 141.187 59.7705 141.187 60.3174V61.958C141.187 63.1019 141.212 63.8265 141.262 64.1318C141.316 64.4326 141.421 64.722 141.576 65H140.291C140.163 64.7448 140.081 64.4463 140.045 64.1045ZM139.942 61.3564C139.496 61.5387 138.826 61.6937 137.933 61.8213C137.427 61.8942 137.069 61.9762 136.859 62.0674C136.65 62.1585 136.488 62.293 136.374 62.4707C136.26 62.6439 136.203 62.8376 136.203 63.0518C136.203 63.3799 136.326 63.6533 136.572 63.8721C136.823 64.0908 137.188 64.2002 137.666 64.2002C138.14 64.2002 138.562 64.0977 138.931 63.8926C139.3 63.6829 139.571 63.3981 139.744 63.0381C139.876 62.7601 139.942 62.3499 139.942 61.8076V61.3564ZM145.787 63.8994L145.965 64.9863C145.618 65.0592 145.309 65.0957 145.035 65.0957C144.589 65.0957 144.242 65.0251 143.996 64.8838C143.75 64.7425 143.577 64.5579 143.477 64.3301C143.376 64.0977 143.326 63.6123 143.326 62.874V58.6973H142.424V57.7402H143.326V55.9424L144.55 55.2041V57.7402H145.787V58.6973H144.55V62.9424C144.55 63.2933 144.57 63.5189 144.611 63.6191C144.657 63.7194 144.728 63.7992 144.823 63.8584C144.924 63.9176 145.065 63.9473 145.247 63.9473C145.384 63.9473 145.564 63.9313 145.787 63.8994ZM147.004 56.3936V54.9785H148.234V56.3936H147.004ZM147.004 65V57.7402H148.234V65H147.004ZM149.656 61.3701C149.656 60.0257 150.03 59.0299 150.777 58.3828C151.402 57.8451 152.163 57.5762 153.061 57.5762C154.059 57.5762 154.874 57.9043 155.508 58.5605C156.141 59.2122 156.458 60.1146 156.458 61.2676C156.458 62.2018 156.317 62.9378 156.034 63.4756C155.756 64.0088 155.348 64.4235 154.811 64.7197C154.277 65.016 153.694 65.1641 153.061 65.1641C152.044 65.1641 151.222 64.8382 150.593 64.1865C149.968 63.5348 149.656 62.596 149.656 61.3701ZM150.921 61.3701C150.921 62.2998 151.124 62.9971 151.529 63.4619C151.935 63.9222 152.445 64.1523 153.061 64.1523C153.671 64.1523 154.179 63.9199 154.585 63.4551C154.991 62.9902 155.193 62.2816 155.193 61.3291C155.193 60.4313 154.988 59.7523 154.578 59.292C154.173 58.8271 153.667 58.5947 153.061 58.5947C152.445 58.5947 151.935 58.8249 151.529 59.2852C151.124 59.7454 150.921 60.4404 150.921 61.3701ZM157.907 65V57.7402H159.015V58.7725C159.548 57.9749 160.318 57.5762 161.325 57.5762C161.763 57.5762 162.164 57.6559 162.528 57.8154C162.897 57.9704 163.173 58.1755 163.355 58.4307C163.538 58.6859 163.665 58.9889 163.738 59.3398C163.784 59.5677 163.807 59.9665 163.807 60.5361V65H162.576V60.584C162.576 60.0827 162.528 59.709 162.433 59.4629C162.337 59.2122 162.166 59.014 161.92 58.8682C161.678 58.7178 161.394 58.6426 161.065 58.6426C160.541 58.6426 160.088 58.8089 159.705 59.1416C159.327 59.4743 159.138 60.1055 159.138 61.0352V65H157.907ZM165.222 61.9922V60.7549H169.002V61.9922H165.222ZM175.1 64.1045C174.644 64.4919 174.204 64.7653 173.78 64.9248C173.361 65.0843 172.91 65.1641 172.427 65.1641C171.629 65.1641 171.016 64.9704 170.588 64.583C170.16 64.1911 169.945 63.6921 169.945 63.0859C169.945 62.7305 170.025 62.4069 170.185 62.1152C170.349 61.819 170.561 61.582 170.82 61.4043C171.085 61.2266 171.381 61.0921 171.709 61.001C171.951 60.9372 172.315 60.8757 172.803 60.8164C173.796 60.6979 174.528 60.5566 174.997 60.3926C175.002 60.224 175.004 60.1169 175.004 60.0713C175.004 59.57 174.888 59.2168 174.655 59.0117C174.341 58.7337 173.874 58.5947 173.254 58.5947C172.675 58.5947 172.247 58.6973 171.969 58.9023C171.695 59.1029 171.493 59.4606 171.36 59.9756L170.157 59.8115C170.267 59.2965 170.447 58.8818 170.697 58.5674C170.948 58.2484 171.31 58.0046 171.784 57.8359C172.258 57.6628 172.807 57.5762 173.432 57.5762C174.051 57.5762 174.555 57.6491 174.942 57.7949C175.33 57.9408 175.615 58.1253 175.797 58.3486C175.979 58.5674 176.107 58.8454 176.18 59.1826C176.221 59.3923 176.241 59.7705 176.241 60.3174V61.958C176.241 63.1019 176.266 63.8265 176.316 64.1318C176.371 64.4326 176.476 64.722 176.631 65H175.346C175.218 64.7448 175.136 64.4463 175.1 64.1045ZM174.997 61.3564C174.55 61.5387 173.881 61.6937 172.987 61.8213C172.481 61.8942 172.124 61.9762 171.914 62.0674C171.704 62.1585 171.543 62.293 171.429 62.4707C171.315 62.6439 171.258 62.8376 171.258 63.0518C171.258 63.3799 171.381 63.6533 171.627 63.8721C171.878 64.0908 172.242 64.2002 172.721 64.2002C173.195 64.2002 173.616 64.0977 173.985 63.8926C174.354 63.6829 174.626 63.3981 174.799 63.0381C174.931 62.7601 174.997 62.3499 174.997 61.8076V61.3564ZM182.893 62.3408L184.103 62.498C183.97 63.332 183.631 63.986 183.084 64.46C182.542 64.9294 181.874 65.1641 181.081 65.1641C180.088 65.1641 179.288 64.8405 178.682 64.1934C178.08 63.5417 177.779 62.6097 177.779 61.3975C177.779 60.6136 177.909 59.9277 178.169 59.3398C178.429 58.752 178.823 58.3122 179.352 58.0205C179.885 57.7243 180.464 57.5762 181.088 57.5762C181.876 57.5762 182.521 57.7767 183.022 58.1777C183.524 58.5742 183.845 59.1393 183.986 59.873L182.79 60.0576C182.676 59.57 182.473 59.2031 182.182 58.957C181.895 58.7109 181.546 58.5879 181.136 58.5879C180.516 58.5879 180.012 58.8112 179.625 59.2578C179.238 59.6999 179.044 60.4017 179.044 61.3633C179.044 62.3385 179.231 63.0472 179.604 63.4893C179.978 63.9313 180.466 64.1523 181.067 64.1523C181.55 64.1523 181.954 64.0042 182.277 63.708C182.601 63.4118 182.806 62.9561 182.893 62.3408ZM187.842 63.8994L188.02 64.9863C187.673 65.0592 187.363 65.0957 187.09 65.0957C186.643 65.0957 186.297 65.0251 186.051 64.8838C185.805 64.7425 185.632 64.5579 185.531 64.3301C185.431 64.0977 185.381 63.6123 185.381 62.874V58.6973H184.479V57.7402H185.381V55.9424L186.604 55.2041V57.7402H187.842V58.6973H186.604V62.9424C186.604 63.2933 186.625 63.5189 186.666 63.6191C186.712 63.7194 186.782 63.7992 186.878 63.8584C186.978 63.9176 187.119 63.9473 187.302 63.9473C187.438 63.9473 187.618 63.9313 187.842 63.8994ZM189.059 56.3936V54.9785H190.289V56.3936H189.059ZM189.059 65V57.7402H190.289V65H189.059ZM194.186 65L191.424 57.7402H192.723L194.281 62.0879C194.45 62.5573 194.605 63.0449 194.746 63.5508C194.855 63.168 195.008 62.7077 195.204 62.1699L196.817 57.7402H198.082L195.334 65H194.186ZM204.139 62.6621L205.41 62.8193C205.21 63.5622 204.838 64.1387 204.296 64.5488C203.754 64.959 203.061 65.1641 202.218 65.1641C201.156 65.1641 200.313 64.8382 199.688 64.1865C199.069 63.5303 198.759 62.612 198.759 61.4316C198.759 60.2103 199.073 59.2624 199.702 58.5879C200.331 57.9134 201.147 57.5762 202.149 57.5762C203.12 57.5762 203.913 57.9066 204.528 58.5674C205.144 59.2282 205.451 60.1579 205.451 61.3564C205.451 61.4294 205.449 61.5387 205.444 61.6846H200.03C200.076 62.4821 200.301 63.0928 200.707 63.5166C201.113 63.9404 201.618 64.1523 202.225 64.1523C202.676 64.1523 203.061 64.0339 203.38 63.7969C203.699 63.5599 203.952 63.1816 204.139 62.6621ZM200.099 60.6729H204.152C204.098 60.0622 203.943 59.6042 203.688 59.2988C203.296 58.8249 202.787 58.5879 202.163 58.5879C201.598 58.5879 201.122 58.777 200.734 59.1553C200.352 59.5335 200.14 60.0394 200.099 60.6729Z" fill="#3E3E3D"/>
<path d="M0 85H356V86H0V85Z" fill="#CDCCCB"/>
<path d="M374.058 65H372.916V54.9785H374.146V58.5537C374.666 57.902 375.329 57.5762 376.136 57.5762C376.582 57.5762 377.004 57.6673 377.4 57.8496C377.801 58.0273 378.13 58.2803 378.385 58.6084C378.645 58.932 378.847 59.3239 378.993 59.7842C379.139 60.2445 379.212 60.7367 379.212 61.2607C379.212 62.5049 378.904 63.4665 378.289 64.1455C377.674 64.8245 376.936 65.1641 376.074 65.1641C375.217 65.1641 374.545 64.8063 374.058 64.0908V65ZM374.044 61.3154C374.044 62.1859 374.162 62.8148 374.399 63.2021C374.787 63.8356 375.311 64.1523 375.972 64.1523C376.509 64.1523 376.974 63.9199 377.366 63.4551C377.758 62.9857 377.954 62.2884 377.954 61.3633C377.954 60.4154 377.765 59.7158 377.387 59.2646C377.013 58.8135 376.56 58.5879 376.026 58.5879C375.489 58.5879 375.024 58.8226 374.632 59.292C374.24 59.7568 374.044 60.4313 374.044 61.3154ZM380.688 65V54.9785H381.919V65H380.688ZM388.803 62.6621L390.074 62.8193C389.874 63.5622 389.502 64.1387 388.96 64.5488C388.418 64.959 387.725 65.1641 386.882 65.1641C385.82 65.1641 384.977 64.8382 384.353 64.1865C383.733 63.5303 383.423 62.612 383.423 61.4316C383.423 60.2103 383.737 59.2624 384.366 58.5879C384.995 57.9134 385.811 57.5762 386.813 57.5762C387.784 57.5762 388.577 57.9066 389.192 58.5674C389.808 59.2282 390.115 60.1579 390.115 61.3564C390.115 61.4294 390.113 61.5387 390.108 61.6846H384.694C384.74 62.4821 384.965 63.0928 385.371 63.5166C385.777 63.9404 386.283 64.1523 386.889 64.1523C387.34 64.1523 387.725 64.0339 388.044 63.7969C388.363 63.5599 388.616 63.1816 388.803 62.6621ZM384.763 60.6729H388.816C388.762 60.0622 388.607 59.6042 388.352 59.2988C387.96 58.8249 387.451 58.5879 386.827 58.5879C386.262 58.5879 385.786 58.777 385.398 59.1553C385.016 59.5335 384.804 60.0394 384.763 60.6729ZM396.384 65V63.9336C395.819 64.7539 395.051 65.1641 394.08 65.1641C393.652 65.1641 393.251 65.082 392.877 64.918C392.508 64.7539 392.232 64.5488 392.05 64.3027C391.872 64.0521 391.747 63.7467 391.674 63.3867C391.624 63.1452 391.599 62.7624 391.599 62.2383V57.7402H392.829V61.7666C392.829 62.4092 392.854 62.8421 392.904 63.0654C392.982 63.389 393.146 63.6442 393.396 63.8311C393.647 64.0133 393.957 64.1045 394.326 64.1045C394.695 64.1045 395.042 64.0111 395.365 63.8242C395.689 63.6328 395.917 63.3753 396.049 63.0518C396.186 62.7236 396.254 62.2497 396.254 61.6299V57.7402H397.484V65H396.384ZM398.94 61.9922V60.7549H402.721V61.9922H398.94ZM404.088 56.3936V54.9785H405.318V56.3936H404.088ZM404.088 65V57.7402H405.318V65H404.088ZM411.936 62.3408L413.146 62.498C413.013 63.332 412.674 63.986 412.127 64.46C411.585 64.9294 410.917 65.1641 410.124 65.1641C409.131 65.1641 408.331 64.8405 407.725 64.1934C407.123 63.5417 406.822 62.6097 406.822 61.3975C406.822 60.6136 406.952 59.9277 407.212 59.3398C407.472 58.752 407.866 58.3122 408.395 58.0205C408.928 57.7243 409.507 57.5762 410.131 57.5762C410.919 57.5762 411.564 57.7767 412.065 58.1777C412.567 58.5742 412.888 59.1393 413.029 59.873L411.833 60.0576C411.719 59.57 411.516 59.2031 411.225 58.957C410.938 58.7109 410.589 58.5879 410.179 58.5879C409.559 58.5879 409.055 58.8112 408.668 59.2578C408.281 59.6999 408.087 60.4017 408.087 61.3633C408.087 62.3385 408.274 63.0472 408.647 63.4893C409.021 63.9313 409.509 64.1523 410.11 64.1523C410.593 64.1523 410.997 64.0042 411.32 63.708C411.644 63.4118 411.849 62.9561 411.936 62.3408ZM419.168 62.6621L420.439 62.8193C420.239 63.5622 419.868 64.1387 419.325 64.5488C418.783 64.959 418.09 65.1641 417.247 65.1641C416.185 65.1641 415.342 64.8382 414.718 64.1865C414.098 63.5303 413.788 62.612 413.788 61.4316C413.788 60.2103 414.103 59.2624 414.731 58.5879C415.36 57.9134 416.176 57.5762 417.179 57.5762C418.149 57.5762 418.942 57.9066 419.558 58.5674C420.173 59.2282 420.48 60.1579 420.48 61.3564C420.48 61.4294 420.478 61.5387 420.474 61.6846H415.06C415.105 62.4821 415.331 63.0928 415.736 63.5166C416.142 63.9404 416.648 64.1523 417.254 64.1523C417.705 64.1523 418.09 64.0339 418.409 63.7969C418.728 63.5599 418.981 63.1816 419.168 62.6621ZM415.128 60.6729H419.182C419.127 60.0622 418.972 59.6042 418.717 59.2988C418.325 58.8249 417.817 58.5879 417.192 58.5879C416.627 58.5879 416.151 58.777 415.764 59.1553C415.381 59.5335 415.169 60.0394 415.128 60.6729ZM423.126 65H421.984V54.9785H423.215V58.5537C423.734 57.902 424.397 57.5762 425.204 57.5762C425.651 57.5762 426.072 57.6673 426.469 57.8496C426.87 58.0273 427.198 58.2803 427.453 58.6084C427.713 58.932 427.916 59.3239 428.062 59.7842C428.207 60.2445 428.28 60.7367 428.28 61.2607C428.28 62.5049 427.973 63.4665 427.357 64.1455C426.742 64.8245 426.004 65.1641 425.143 65.1641C424.286 65.1641 423.614 64.8063 423.126 64.0908V65ZM423.112 61.3154C423.112 62.1859 423.231 62.8148 423.468 63.2021C423.855 63.8356 424.379 64.1523 425.04 64.1523C425.578 64.1523 426.043 63.9199 426.435 63.4551C426.826 62.9857 427.022 62.2884 427.022 61.3633C427.022 60.4154 426.833 59.7158 426.455 59.2646C426.081 58.8135 425.628 58.5879 425.095 58.5879C424.557 58.5879 424.092 58.8226 423.7 59.292C423.308 59.7568 423.112 60.4313 423.112 61.3154ZM434.754 62.6621L436.025 62.8193C435.825 63.5622 435.453 64.1387 434.911 64.5488C434.369 64.959 433.676 65.1641 432.833 65.1641C431.771 65.1641 430.928 64.8382 430.304 64.1865C429.684 63.5303 429.374 62.612 429.374 61.4316C429.374 60.2103 429.688 59.2624 430.317 58.5879C430.946 57.9134 431.762 57.5762 432.765 57.5762C433.735 57.5762 434.528 57.9066 435.144 58.5674C435.759 59.2282 436.066 60.1579 436.066 61.3564C436.066 61.4294 436.064 61.5387 436.06 61.6846H430.646C430.691 62.4821 430.917 63.0928 431.322 63.5166C431.728 63.9404 432.234 64.1523 432.84 64.1523C433.291 64.1523 433.676 64.0339 433.995 63.7969C434.314 63.5599 434.567 63.1816 434.754 62.6621ZM430.714 60.6729H434.768C434.713 60.0622 434.558 59.6042 434.303 59.2988C433.911 58.8249 433.403 58.5879 432.778 58.5879C432.213 58.5879 431.737 58.777 431.35 59.1553C430.967 59.5335 430.755 60.0394 430.714 60.6729ZM437.563 65V57.7402H438.671V58.8408C438.953 58.3258 439.213 57.9863 439.45 57.8223C439.692 57.6582 439.956 57.5762 440.243 57.5762C440.658 57.5762 441.079 57.7083 441.508 57.9727L441.084 59.1143C440.783 58.9365 440.482 58.8477 440.182 58.8477C439.913 58.8477 439.671 58.9297 439.457 59.0938C439.243 59.2533 439.09 59.4766 438.999 59.7637C438.862 60.2012 438.794 60.6797 438.794 61.1992V65H437.563ZM442.014 65.6016L443.21 65.7793C443.26 66.1484 443.399 66.4173 443.627 66.5859C443.932 66.8138 444.349 66.9277 444.878 66.9277C445.448 66.9277 445.887 66.8138 446.197 66.5859C446.507 66.3581 446.717 66.0391 446.826 65.6289C446.89 65.3783 446.92 64.8519 446.915 64.0498C446.377 64.6833 445.707 65 444.905 65C443.907 65 443.135 64.64 442.588 63.9199C442.041 63.1999 441.768 62.3363 441.768 61.3291C441.768 60.6364 441.893 59.9984 442.144 59.415C442.394 58.8271 442.757 58.3737 443.23 58.0547C443.709 57.7357 444.27 57.5762 444.912 57.5762C445.769 57.5762 446.475 57.9225 447.031 58.6152V57.7402H448.166V64.0156C448.166 65.1458 448.05 65.9456 447.817 66.415C447.59 66.889 447.225 67.2627 446.724 67.5361C446.227 67.8096 445.614 67.9463 444.885 67.9463C444.019 67.9463 443.319 67.7503 442.786 67.3584C442.253 66.971 441.995 66.3854 442.014 65.6016ZM443.032 61.2402C443.032 62.1927 443.221 62.8877 443.6 63.3252C443.978 63.7627 444.452 63.9814 445.021 63.9814C445.587 63.9814 446.061 63.765 446.443 63.332C446.826 62.8945 447.018 62.2109 447.018 61.2812C447.018 60.3926 446.819 59.7227 446.423 59.2715C446.031 58.8203 445.557 58.5947 445.001 58.5947C444.454 58.5947 443.989 58.818 443.606 59.2646C443.224 59.7067 443.032 60.3652 443.032 61.2402ZM449.109 65.1709L452.015 54.8076H452.999L450.101 65.1709H449.109ZM453.669 56.291V55.1084H460.156V56.0654C459.518 56.7445 458.885 57.6468 458.256 58.7725C457.632 59.8981 457.148 61.0557 456.807 62.2451C456.561 63.0837 456.403 64.002 456.335 65H455.07C455.084 64.2116 455.239 63.2591 455.535 62.1426C455.831 61.026 456.255 59.9505 456.807 58.916C457.363 57.877 457.953 57.002 458.577 56.291H453.669ZM461.38 60.0576C461.38 58.8727 461.501 57.9202 461.742 57.2002C461.988 56.4756 462.351 55.9173 462.829 55.5254C463.312 55.1335 463.918 54.9375 464.647 54.9375C465.185 54.9375 465.657 55.0469 466.062 55.2656C466.468 55.4798 466.803 55.792 467.067 56.2021C467.332 56.6077 467.539 57.1045 467.689 57.6924C467.84 58.2757 467.915 59.0641 467.915 60.0576C467.915 61.2334 467.794 62.1836 467.553 62.9082C467.311 63.6283 466.949 64.1865 466.466 64.583C465.987 64.9749 465.381 65.1709 464.647 65.1709C463.681 65.1709 462.923 64.8245 462.371 64.1318C461.71 63.2979 461.38 61.9398 461.38 60.0576ZM462.645 60.0576C462.645 61.7028 462.836 62.7988 463.219 63.3457C463.606 63.888 464.082 64.1592 464.647 64.1592C465.213 64.1592 465.687 63.8857 466.069 63.3389C466.457 62.792 466.65 61.6982 466.65 60.0576C466.65 58.4079 466.457 57.3118 466.069 56.7695C465.687 56.2272 465.208 55.9561 464.634 55.9561C464.069 55.9561 463.618 56.1953 463.28 56.6738C462.856 57.2845 462.645 58.4124 462.645 60.0576ZM469.173 60.0576C469.173 58.8727 469.294 57.9202 469.535 57.2002C469.781 56.4756 470.144 55.9173 470.622 55.5254C471.105 55.1335 471.711 54.9375 472.44 54.9375C472.978 54.9375 473.45 55.0469 473.855 55.2656C474.261 55.4798 474.596 55.792 474.86 56.2021C475.125 56.6077 475.332 57.1045 475.482 57.6924C475.633 58.2757 475.708 59.0641 475.708 60.0576C475.708 61.2334 475.587 62.1836 475.346 62.9082C475.104 63.6283 474.742 64.1865 474.259 64.583C473.78 64.9749 473.174 65.1709 472.44 65.1709C471.474 65.1709 470.715 64.8245 470.164 64.1318C469.503 63.2979 469.173 61.9398 469.173 60.0576ZM470.438 60.0576C470.438 61.7028 470.629 62.7988 471.012 63.3457C471.399 63.888 471.875 64.1592 472.44 64.1592C473.006 64.1592 473.479 63.8857 473.862 63.3389C474.25 62.792 474.443 61.6982 474.443 60.0576C474.443 58.4079 474.25 57.3118 473.862 56.7695C473.479 56.2272 473.001 55.9561 472.427 55.9561C471.862 55.9561 471.41 56.1953 471.073 56.6738C470.649 57.2845 470.438 58.4124 470.438 60.0576Z" fill="#3E3E3D"/>
<path d="M356 85H712V86H356V85Z" fill="#CDCCCB"/>
<path d="M16.4307 114.833L17.6475 114.642C17.7158 115.129 17.9049 115.503 18.2148 115.763C18.5293 116.022 18.9668 116.152 19.5273 116.152C20.0924 116.152 20.5117 116.038 20.7852 115.811C21.0586 115.578 21.1953 115.307 21.1953 114.997C21.1953 114.719 21.0745 114.5 20.833 114.341C20.6644 114.231 20.2451 114.092 19.5752 113.924C18.6729 113.696 18.0462 113.5 17.6953 113.336C17.349 113.167 17.0846 112.937 16.9023 112.646C16.7246 112.349 16.6357 112.023 16.6357 111.668C16.6357 111.344 16.7087 111.046 16.8545 110.772C17.0049 110.494 17.2077 110.264 17.4629 110.082C17.6543 109.941 17.9141 109.822 18.2422 109.727C18.5749 109.626 18.9303 109.576 19.3086 109.576C19.8783 109.576 20.3773 109.658 20.8057 109.822C21.2386 109.986 21.5576 110.21 21.7627 110.492C21.9678 110.77 22.109 111.144 22.1865 111.613L20.9834 111.777C20.9287 111.404 20.7692 111.112 20.5049 110.902C20.2451 110.693 19.876 110.588 19.3975 110.588C18.8324 110.588 18.429 110.681 18.1875 110.868C17.946 111.055 17.8252 111.274 17.8252 111.524C17.8252 111.684 17.8753 111.827 17.9756 111.955C18.0758 112.087 18.2331 112.197 18.4473 112.283C18.5703 112.329 18.9326 112.434 19.5342 112.598C20.4046 112.83 21.0107 113.021 21.3525 113.172C21.6989 113.318 21.9701 113.532 22.166 113.814C22.362 114.097 22.46 114.448 22.46 114.867C22.46 115.277 22.3392 115.665 22.0977 116.029C21.8607 116.389 21.5166 116.67 21.0654 116.87C20.6143 117.066 20.1038 117.164 19.5342 117.164C18.5908 117.164 17.8708 116.968 17.374 116.576C16.8818 116.184 16.5674 115.603 16.4307 114.833ZM23.9297 108.394V106.979H25.1602V108.394H23.9297ZM23.9297 117V109.74H25.1602V117H23.9297ZM26.3906 117V116.002L31.0117 110.697C30.4876 110.725 30.0251 110.738 29.624 110.738H26.6641V109.74H32.5977V110.554L28.667 115.161L27.9082 116.002C28.4596 115.961 28.9769 115.94 29.46 115.94H32.8164V117H26.3906ZM39.0098 114.662L40.2812 114.819C40.0807 115.562 39.7093 116.139 39.167 116.549C38.6247 116.959 37.932 117.164 37.0889 117.164C36.027 117.164 35.1839 116.838 34.5596 116.187C33.9398 115.53 33.6299 114.612 33.6299 113.432C33.6299 112.21 33.9443 111.262 34.5732 110.588C35.2021 109.913 36.0179 109.576 37.0205 109.576C37.9912 109.576 38.7842 109.907 39.3994 110.567C40.0146 111.228 40.3223 112.158 40.3223 113.356C40.3223 113.429 40.32 113.539 40.3154 113.685H34.9014C34.9469 114.482 35.1725 115.093 35.5781 115.517C35.9837 115.94 36.4896 116.152 37.0957 116.152C37.5469 116.152 37.932 116.034 38.251 115.797C38.57 115.56 38.8229 115.182 39.0098 114.662ZM34.9697 112.673H39.0234C38.9688 112.062 38.8138 111.604 38.5586 111.299C38.1667 110.825 37.6585 110.588 37.0342 110.588C36.4691 110.588 35.9928 110.777 35.6055 111.155C35.2227 111.534 35.0107 112.039 34.9697 112.673ZM40.9102 117.171L43.8154 106.808H44.7998L41.9014 117.171H40.9102ZM45.7363 108.394V106.979H46.9668V108.394H45.7363ZM45.7363 117V109.74H46.9668V117H45.7363ZM53.584 114.341L54.7939 114.498C54.6618 115.332 54.3223 115.986 53.7754 116.46C53.2331 116.929 52.5654 117.164 51.7725 117.164C50.779 117.164 49.9792 116.84 49.373 116.193C48.7715 115.542 48.4707 114.61 48.4707 113.397C48.4707 112.614 48.6006 111.928 48.8604 111.34C49.1201 110.752 49.5143 110.312 50.043 110.021C50.5762 109.724 51.1549 109.576 51.7793 109.576C52.5677 109.576 53.2126 109.777 53.7139 110.178C54.2152 110.574 54.5365 111.139 54.6777 111.873L53.4814 112.058C53.3675 111.57 53.1647 111.203 52.873 110.957C52.5859 110.711 52.2373 110.588 51.8271 110.588C51.2074 110.588 50.7038 110.811 50.3164 111.258C49.929 111.7 49.7354 112.402 49.7354 113.363C49.7354 114.339 49.9222 115.047 50.2959 115.489C50.6696 115.931 51.1572 116.152 51.7588 116.152C52.2419 116.152 52.6452 116.004 52.9688 115.708C53.2923 115.412 53.4974 114.956 53.584 114.341ZM55.3887 113.37C55.3887 112.026 55.7624 111.03 56.5098 110.383C57.1341 109.845 57.8952 109.576 58.793 109.576C59.791 109.576 60.6068 109.904 61.2402 110.561C61.8737 111.212 62.1904 112.115 62.1904 113.268C62.1904 114.202 62.0492 114.938 61.7666 115.476C61.4886 116.009 61.0807 116.424 60.543 116.72C60.0098 117.016 59.4264 117.164 58.793 117.164C57.7767 117.164 56.9541 116.838 56.3252 116.187C55.7008 115.535 55.3887 114.596 55.3887 113.37ZM56.6533 113.37C56.6533 114.3 56.8561 114.997 57.2617 115.462C57.6673 115.922 58.1777 116.152 58.793 116.152C59.4036 116.152 59.9118 115.92 60.3174 115.455C60.723 114.99 60.9258 114.282 60.9258 113.329C60.9258 112.431 60.7207 111.752 60.3105 111.292C59.9049 110.827 59.3991 110.595 58.793 110.595C58.1777 110.595 57.6673 110.825 57.2617 111.285C56.8561 111.745 56.6533 112.44 56.6533 113.37ZM63.6396 117V109.74H64.7471V110.772C65.2803 109.975 66.0505 109.576 67.0576 109.576C67.4951 109.576 67.8962 109.656 68.2607 109.815C68.6299 109.97 68.9056 110.175 69.0879 110.431C69.2702 110.686 69.3978 110.989 69.4707 111.34C69.5163 111.568 69.5391 111.966 69.5391 112.536V117H68.3086V112.584C68.3086 112.083 68.2607 111.709 68.165 111.463C68.0693 111.212 67.8984 111.014 67.6523 110.868C67.4108 110.718 67.126 110.643 66.7979 110.643C66.2738 110.643 65.8203 110.809 65.4375 111.142C65.0592 111.474 64.8701 112.105 64.8701 113.035V117H63.6396ZM70.5098 117.171L73.415 106.808H74.3994L71.501 117.171H70.5098ZM75.4453 117V106.979H77.4414L79.8135 114.074C80.0322 114.735 80.1917 115.229 80.292 115.558C80.4059 115.193 80.5837 114.658 80.8252 113.951L83.2246 106.979H85.0088V117H83.7305V108.612L80.8184 117H79.6221L76.7236 108.469V117H75.4453Z" fill="#3E3E3D"/>
<path d="M0 137H356V138H0V137Z" fill="#CDCCCB"/>
<path d="M379.048 115.817V117H372.424C372.415 116.704 372.463 116.419 372.567 116.146C372.736 115.694 373.005 115.25 373.374 114.812C373.748 114.375 374.285 113.869 374.987 113.295C376.076 112.402 376.812 111.695 377.195 111.176C377.578 110.652 377.77 110.157 377.77 109.692C377.77 109.205 377.594 108.795 377.243 108.462C376.897 108.125 376.443 107.956 375.883 107.956C375.29 107.956 374.816 108.134 374.461 108.489C374.105 108.845 373.925 109.337 373.921 109.966L372.656 109.836C372.743 108.893 373.069 108.175 373.634 107.683C374.199 107.186 374.958 106.938 375.91 106.938C376.872 106.938 377.633 107.204 378.193 107.737C378.754 108.271 379.034 108.931 379.034 109.72C379.034 110.121 378.952 110.515 378.788 110.902C378.624 111.29 378.351 111.698 377.968 112.126C377.59 112.554 376.958 113.142 376.074 113.89C375.336 114.509 374.862 114.931 374.652 115.154C374.443 115.373 374.27 115.594 374.133 115.817H379.048ZM380.374 112.058C380.374 110.873 380.495 109.92 380.736 109.2C380.982 108.476 381.345 107.917 381.823 107.525C382.306 107.133 382.912 106.938 383.642 106.938C384.179 106.938 384.651 107.047 385.057 107.266C385.462 107.48 385.797 107.792 386.062 108.202C386.326 108.608 386.533 109.104 386.684 109.692C386.834 110.276 386.909 111.064 386.909 112.058C386.909 113.233 386.788 114.184 386.547 114.908C386.305 115.628 385.943 116.187 385.46 116.583C384.981 116.975 384.375 117.171 383.642 117.171C382.675 117.171 381.917 116.825 381.365 116.132C380.704 115.298 380.374 113.94 380.374 112.058ZM381.639 112.058C381.639 113.703 381.83 114.799 382.213 115.346C382.6 115.888 383.076 116.159 383.642 116.159C384.207 116.159 384.681 115.886 385.063 115.339C385.451 114.792 385.645 113.698 385.645 112.058C385.645 110.408 385.451 109.312 385.063 108.77C384.681 108.227 384.202 107.956 383.628 107.956C383.063 107.956 382.612 108.195 382.274 108.674C381.851 109.285 381.639 110.412 381.639 112.058ZM394.757 119.946C394.078 119.09 393.504 118.087 393.034 116.938C392.565 115.79 392.33 114.601 392.33 113.37C392.33 112.285 392.506 111.246 392.856 110.253C393.267 109.1 393.9 107.951 394.757 106.808H395.639C395.087 107.756 394.723 108.432 394.545 108.838C394.267 109.467 394.048 110.123 393.889 110.807C393.693 111.659 393.595 112.516 393.595 113.377C393.595 115.569 394.276 117.759 395.639 119.946H394.757ZM397.067 119.782V109.74H398.188V110.684C398.453 110.314 398.751 110.039 399.084 109.856C399.417 109.67 399.82 109.576 400.294 109.576C400.914 109.576 401.461 109.736 401.935 110.055C402.409 110.374 402.766 110.825 403.008 111.408C403.249 111.987 403.37 112.623 403.37 113.315C403.37 114.058 403.236 114.728 402.967 115.325C402.702 115.918 402.315 116.373 401.805 116.692C401.299 117.007 400.766 117.164 400.205 117.164C399.795 117.164 399.426 117.077 399.098 116.904C398.774 116.731 398.507 116.512 398.298 116.248V119.782H397.067ZM398.182 113.411C398.182 114.345 398.371 115.036 398.749 115.482C399.127 115.929 399.585 116.152 400.123 116.152C400.67 116.152 401.137 115.922 401.524 115.462C401.916 114.997 402.112 114.279 402.112 113.309C402.112 112.383 401.921 111.691 401.538 111.23C401.16 110.77 400.706 110.54 400.178 110.54C399.654 110.54 399.189 110.786 398.783 111.278C398.382 111.766 398.182 112.477 398.182 113.411ZM404.04 117L406.692 113.227L404.238 109.74H405.776L406.891 111.442C407.1 111.766 407.269 112.037 407.396 112.256C407.597 111.955 407.782 111.688 407.95 111.456L409.174 109.74H410.644L408.135 113.158L410.835 117H409.324L407.834 114.744L407.438 114.136L405.53 117H404.04ZM412.667 119.946H411.785C413.148 117.759 413.829 115.569 413.829 113.377C413.829 112.52 413.731 111.67 413.535 110.827C413.38 110.144 413.164 109.487 412.886 108.858C412.708 108.448 412.341 107.765 411.785 106.808H412.667C413.524 107.951 414.157 109.1 414.567 110.253C414.918 111.246 415.094 112.285 415.094 113.37C415.094 114.601 414.857 115.79 414.383 116.938C413.913 118.087 413.341 119.09 412.667 119.946Z" fill="#3E3E3D"/>
<path d="M356 137H712V138H356V137Z" fill="#CDCCCB"/>
</g>
<path d="M8 0.5H704C708.142 0.5 711.5 3.85786 711.5 8V130C711.5 134.142 708.142 137.5 704 137.5H8C3.85786 137.5 0.5 134.142 0.5 130V8C0.5 3.85786 3.85786 0.5 8 0.5Z" stroke="#CDCCCB"/>
<defs>
<clipPath id="clip0_968_8044">
<path d="M0 8C0 3.58172 3.58172 0 8 0H704C708.418 0 712 3.58172 712 8V130C712 134.418 708.418 138 704 138H8C3.58172 138 0 134.418 0 130V8Z" fill="white"/>
</clipPath>
</defs>
</svg>
