<svg width="1159" height="404" viewBox="0 0 1159 404" fill="none" xmlns="http://www.w3.org/2000/svg">
<g clip-path="url(#clip0_151_8054)">
<rect width="579.5" height="61" fill="white"/>
<path d="M18.62 37.14C18.3133 37.14 18.0733 37.0533 17.9 36.88C17.7267 36.7067 17.64 36.46 17.64 36.14V23.8C17.64 23.4667 17.72 23.2133 17.88 23.04C18.0533 22.8533 18.28 22.76 18.56 22.76C18.8 22.76 18.98 22.8067 19.1 22.9C19.2333 22.98 19.3867 23.1333 19.56 23.36L27.8 34.22H27.3V23.74C27.3 23.4333 27.38 23.1933 27.54 23.02C27.7133 22.8467 27.9533 22.76 28.26 22.76C28.58 22.76 28.82 22.8467 28.98 23.02C29.14 23.1933 29.22 23.4333 29.22 23.74V36.16C29.22 36.4667 29.14 36.7067 28.98 36.88C28.8333 37.0533 28.6333 37.14 28.38 37.14C28.14 37.14 27.94 37.0933 27.78 37C27.6333 36.9067 27.4733 36.7467 27.3 36.52L19.1 25.68H19.56V36.14C19.56 36.46 19.48 36.7067 19.32 36.88C19.16 37.0533 18.9267 37.14 18.62 37.14ZM36.0233 37.18C35.0366 37.18 34.1833 36.9733 33.4633 36.56C32.7566 36.1467 32.2033 35.56 31.8033 34.8C31.4033 34.04 31.2033 33.1467 31.2033 32.12C31.2033 31.3333 31.3166 30.6333 31.5433 30.02C31.7699 29.4067 32.0899 28.88 32.5033 28.44C32.9299 27.9867 33.4366 27.6467 34.0233 27.42C34.6233 27.18 35.2899 27.06 36.0233 27.06C36.9966 27.06 37.8366 27.2667 38.5433 27.68C39.2633 28.0933 39.8233 28.68 40.2233 29.44C40.6233 30.1867 40.8233 31.08 40.8233 32.12C40.8233 32.8933 40.7099 33.5933 40.4833 34.22C40.2566 34.8467 39.9299 35.38 39.5033 35.82C39.0899 36.26 38.5833 36.6 37.9833 36.84C37.3966 37.0667 36.7433 37.18 36.0233 37.18ZM36.0233 35.62C36.5699 35.62 37.0499 35.4867 37.4633 35.22C37.8766 34.9533 38.1966 34.56 38.4233 34.04C38.6633 33.52 38.7833 32.88 38.7833 32.12C38.7833 30.9733 38.5299 30.1067 38.0233 29.52C37.5166 28.9333 36.8499 28.64 36.0233 28.64C35.4633 28.64 34.9766 28.7733 34.5633 29.04C34.1499 29.2933 33.8233 29.68 33.5833 30.2C33.3566 30.72 33.2433 31.36 33.2433 32.12C33.2433 33.2533 33.4966 34.12 34.0033 34.72C34.5099 35.32 35.1833 35.62 36.0233 35.62ZM43.6319 37.14C43.3119 37.14 43.0652 37.0533 42.8919 36.88C42.7185 36.6933 42.6319 36.44 42.6319 36.12V28.12C42.6319 27.7867 42.7185 27.5333 42.8919 27.36C43.0652 27.1867 43.3052 27.1 43.6119 27.1C43.9319 27.1 44.1719 27.1867 44.3319 27.36C44.5052 27.5333 44.5919 27.7867 44.5919 28.12V29.76L44.3719 29.32C44.6385 28.6133 45.0519 28.06 45.6119 27.66C46.1719 27.26 46.8452 27.06 47.6319 27.06C48.4452 27.06 49.1052 27.2533 49.6119 27.64C50.1185 28.0267 50.4652 28.62 50.6519 29.42H50.3719C50.6252 28.6867 51.0585 28.1133 51.6719 27.7C52.2852 27.2733 52.9985 27.06 53.8119 27.06C54.5585 27.06 55.1719 27.2067 55.6519 27.5C56.1319 27.78 56.4919 28.2133 56.7319 28.8C56.9719 29.3733 57.0919 30.1 57.0919 30.98V36.12C57.0919 36.44 56.9985 36.6933 56.8119 36.88C56.6385 37.0533 56.3919 37.14 56.0719 37.14C55.7519 37.14 55.5052 37.0533 55.3319 36.88C55.1585 36.6933 55.0719 36.44 55.0719 36.12V31.08C55.0719 30.2533 54.9252 29.6467 54.6319 29.26C54.3519 28.8733 53.8852 28.68 53.2319 28.68C52.4985 28.68 51.9185 28.9333 51.4919 29.44C51.0652 29.9467 50.8519 30.6467 50.8519 31.54V36.12C50.8519 36.44 50.7652 36.6933 50.5919 36.88C50.4185 37.0533 50.1719 37.14 49.8519 37.14C49.5319 37.14 49.2785 37.0533 49.0919 36.88C48.9185 36.6933 48.8319 36.44 48.8319 36.12V31.08C48.8319 30.2533 48.6919 29.6467 48.4119 29.26C48.1319 28.8733 47.6652 28.68 47.0119 28.68C46.2785 28.68 45.6985 28.9333 45.2719 29.44C44.8585 29.9467 44.6519 30.6467 44.6519 31.54V36.12C44.6519 36.8 44.3119 37.14 43.6319 37.14Z" fill="#201F1F"/>
<path d="M0 60.5H579.5" stroke="#CDCCCB"/>
<rect width="579.5" height="49" transform="translate(0 61)" fill="white"/>
<path d="M16.0703 91L20.5 85.0312L16.5938 79.5469H18.3984L20.4766 82.4844C20.9089 83.0938 21.2161 83.5625 21.3984 83.8906C21.6536 83.474 21.9557 83.0391 22.3047 82.5859L24.6094 79.5469H26.2578L22.2344 84.9453L26.5703 91H24.6953L21.8125 86.9141C21.651 86.6797 21.4844 86.4245 21.3125 86.1484C21.0573 86.5651 20.875 86.8516 20.7656 87.0078L17.8906 91H16.0703ZM27.3906 87.3203L28.8203 87.1953C28.888 87.7682 29.0443 88.2396 29.2891 88.6094C29.5391 88.974 29.9245 89.2708 30.4453 89.5C30.9661 89.724 31.5521 89.8359 32.2031 89.8359C32.7812 89.8359 33.2917 89.75 33.7344 89.5781C34.1771 89.4062 34.5052 89.1719 34.7188 88.875C34.9375 88.5729 35.0469 88.2448 35.0469 87.8906C35.0469 87.5312 34.9427 87.2188 34.7344 86.9531C34.526 86.6823 34.1823 86.4557 33.7031 86.2734C33.3958 86.1536 32.7161 85.9688 31.6641 85.7188C30.612 85.4635 29.875 85.224 29.4531 85C28.9062 84.7135 28.4974 84.3594 28.2266 83.9375C27.9609 83.5104 27.8281 83.0339 27.8281 82.5078C27.8281 81.9297 27.9922 81.3906 28.3203 80.8906C28.6484 80.3854 29.1276 80.0026 29.7578 79.7422C30.388 79.4818 31.0885 79.3516 31.8594 79.3516C32.7083 79.3516 33.4557 79.4896 34.1016 79.7656C34.7526 80.0365 35.2526 80.4375 35.6016 80.9688C35.9505 81.5 36.138 82.1016 36.1641 82.7734L34.7109 82.8828C34.6328 82.1589 34.3672 81.612 33.9141 81.2422C33.4661 80.8724 32.8021 80.6875 31.9219 80.6875C31.0052 80.6875 30.3359 80.8568 29.9141 81.1953C29.4974 81.5286 29.2891 81.9323 29.2891 82.4062C29.2891 82.8177 29.4375 83.1562 29.7344 83.4219C30.026 83.6875 30.7865 83.9609 32.0156 84.2422C33.25 84.5182 34.0964 84.7604 34.5547 84.9688C35.2214 85.276 35.7135 85.6667 36.0312 86.1406C36.349 86.6094 36.5078 87.151 36.5078 87.7656C36.5078 88.375 36.3333 88.9505 35.9844 89.4922C35.6354 90.0286 35.1328 90.4479 34.4766 90.75C33.8255 91.0469 33.0911 91.1953 32.2734 91.1953C31.237 91.1953 30.3672 91.0443 29.6641 90.7422C28.9661 90.4401 28.4167 89.987 28.0156 89.3828C27.6198 88.7734 27.4115 88.0859 27.3906 87.3203Z" fill="#3E3E3D"/>
<g opacity="0.5">
<path d="M0 109.5H579.5" stroke="#CDCCCB"/>
</g>
<rect width="579.5" height="49" transform="translate(0 110)" fill="white"/>
<path d="M16.7188 136.32L18.1484 136.195C18.2161 136.768 18.3724 137.24 18.6172 137.609C18.8672 137.974 19.2526 138.271 19.7734 138.5C20.2943 138.724 20.8802 138.836 21.5312 138.836C22.1094 138.836 22.6198 138.75 23.0625 138.578C23.5052 138.406 23.8333 138.172 24.0469 137.875C24.2656 137.573 24.375 137.245 24.375 136.891C24.375 136.531 24.2708 136.219 24.0625 135.953C23.8542 135.682 23.5104 135.456 23.0312 135.273C22.724 135.154 22.0443 134.969 20.9922 134.719C19.9401 134.464 19.2031 134.224 18.7812 134C18.2344 133.714 17.8255 133.359 17.5547 132.938C17.2891 132.51 17.1562 132.034 17.1562 131.508C17.1562 130.93 17.3203 130.391 17.6484 129.891C17.9766 129.385 18.4557 129.003 19.0859 128.742C19.7161 128.482 20.4167 128.352 21.1875 128.352C22.0365 128.352 22.7839 128.49 23.4297 128.766C24.0807 129.036 24.5807 129.438 24.9297 129.969C25.2786 130.5 25.4661 131.102 25.4922 131.773L24.0391 131.883C23.9609 131.159 23.6953 130.612 23.2422 130.242C22.7943 129.872 22.1302 129.688 21.25 129.688C20.3333 129.688 19.6641 129.857 19.2422 130.195C18.8255 130.529 18.6172 130.932 18.6172 131.406C18.6172 131.818 18.7656 132.156 19.0625 132.422C19.3542 132.688 20.1146 132.961 21.3438 133.242C22.5781 133.518 23.4245 133.76 23.8828 133.969C24.5495 134.276 25.0417 134.667 25.3594 135.141C25.6771 135.609 25.8359 136.151 25.8359 136.766C25.8359 137.375 25.6615 137.951 25.3125 138.492C24.9635 139.029 24.4609 139.448 23.8047 139.75C23.1536 140.047 22.4193 140.195 21.6016 140.195C20.5651 140.195 19.6953 140.044 18.9922 139.742C18.2943 139.44 17.7448 138.987 17.3438 138.383C16.9479 137.773 16.7396 137.086 16.7188 136.32Z" fill="#3E3E3D"/>
<g opacity="0.5">
<path d="M0 158.5H579.5" stroke="#CDCCCB"/>
</g>
<rect width="579.5" height="49" transform="translate(0 159)" fill="white"/>
<path d="M17.1875 189V177.547H19.4688L22.1797 185.656C22.4297 186.411 22.612 186.977 22.7266 187.352C22.8568 186.935 23.0599 186.323 23.3359 185.516L26.0781 177.547H28.1172V189H26.6562V179.414L23.3281 189H21.9609L18.6484 179.25V189H17.1875Z" fill="#3E3E3D"/>
<g opacity="0.5">
<path d="M0 207.5H579.5" stroke="#CDCCCB"/>
</g>
<rect width="579.5" height="49" transform="translate(0 208)" fill="white"/>
<path d="M17.1719 238V226.547H18.6875V236.648H24.3281V238H17.1719Z" fill="#3E3E3D"/>
<g opacity="0.5">
<path d="M0 256.5H579.5" stroke="#CDCCCB"/>
</g>
<rect width="579.5" height="49" transform="translate(0 257)" fill="white"/>
<path d="M16.0703 287L20.5 281.031L16.5938 275.547H18.3984L20.4766 278.484C20.9089 279.094 21.2161 279.562 21.3984 279.891C21.6536 279.474 21.9557 279.039 22.3047 278.586L24.6094 275.547H26.2578L22.2344 280.945L26.5703 287H24.6953L21.8125 282.914C21.651 282.68 21.4844 282.424 21.3125 282.148C21.0573 282.565 20.875 282.852 20.7656 283.008L17.8906 287H16.0703ZM27.8438 287V275.547H29.3594V285.648H35V287H27.8438Z" fill="#3E3E3D"/>
<g opacity="0.5">
<path d="M0 305.5H579.5" stroke="#CDCCCB"/>
</g>
<rect width="579.5" height="49" transform="translate(0 306)" fill="white"/>
<path d="M24.0547 334.648V336H16.4844C16.474 335.661 16.5286 335.336 16.6484 335.023C16.8411 334.508 17.1484 334 17.5703 333.5C17.9974 333 18.612 332.422 19.4141 331.766C20.6589 330.745 21.5 329.938 21.9375 329.344C22.375 328.745 22.5938 328.18 22.5938 327.648C22.5938 327.091 22.3932 326.622 21.9922 326.242C21.5964 325.857 21.0781 325.664 20.4375 325.664C19.7604 325.664 19.2188 325.867 18.8125 326.273C18.4062 326.68 18.2005 327.242 18.1953 327.961L16.75 327.812C16.849 326.734 17.2214 325.914 17.8672 325.352C18.513 324.784 19.3802 324.5 20.4688 324.5C21.5677 324.5 22.4375 324.805 23.0781 325.414C23.7188 326.023 24.0391 326.779 24.0391 327.68C24.0391 328.138 23.9453 328.589 23.7578 329.031C23.5703 329.474 23.2578 329.94 22.8203 330.43C22.388 330.919 21.6667 331.591 20.6562 332.445C19.8125 333.154 19.2708 333.635 19.0312 333.891C18.7917 334.141 18.5938 334.393 18.4375 334.648H24.0547ZM24.9766 336L29.4062 330.031L25.5 324.547H27.3047L29.3828 327.484C29.8151 328.094 30.1224 328.562 30.3047 328.891C30.5599 328.474 30.862 328.039 31.2109 327.586L33.5156 324.547H35.1641L31.1406 329.945L35.4766 336H33.6016L30.7188 331.914C30.5573 331.68 30.3906 331.424 30.2188 331.148C29.9635 331.565 29.7812 331.852 29.6719 332.008L26.7969 336H24.9766ZM36.75 336V324.547H38.2656V334.648H43.9062V336H36.75Z" fill="#3E3E3D"/>
<g opacity="0.5">
<path d="M0 354.5H579.5" stroke="#CDCCCB"/>
</g>
<rect width="579.5" height="49" transform="translate(0 355)" fill="white"/>
<path d="M17.0547 388.18V376.703H18.3359V377.781C18.638 377.359 18.9792 377.044 19.3594 376.836C19.7396 376.622 20.2005 376.516 20.7422 376.516C21.4505 376.516 22.0755 376.698 22.6172 377.062C23.1589 377.427 23.5677 377.943 23.8438 378.609C24.1198 379.271 24.2578 379.997 24.2578 380.789C24.2578 381.638 24.1042 382.404 23.7969 383.086C23.4948 383.763 23.0521 384.284 22.4688 384.648C21.8906 385.008 21.2812 385.188 20.6406 385.188C20.1719 385.188 19.75 385.089 19.375 384.891C19.0052 384.693 18.7005 384.443 18.4609 384.141V388.18H17.0547ZM18.3281 380.898C18.3281 381.966 18.5443 382.755 18.9766 383.266C19.4089 383.776 19.9323 384.031 20.5469 384.031C21.1719 384.031 21.7057 383.768 22.1484 383.242C22.5964 382.711 22.8203 381.891 22.8203 380.781C22.8203 379.724 22.6016 378.932 22.1641 378.406C21.7318 377.88 21.2135 377.617 20.6094 377.617C20.0104 377.617 19.4792 377.898 19.0156 378.461C18.5573 379.018 18.3281 379.831 18.3281 380.898ZM25.9688 375.164V373.547H27.375V375.164H25.9688ZM25.9688 385V376.703H27.375V385H25.9688ZM29.4922 385V373.547H30.8984V385H29.4922ZM33.0547 385V373.547H34.4609V385H33.0547Z" fill="#3E3E3D"/>
<g opacity="0.5">
<path d="M0 403.5H579.5" stroke="#CDCCCB"/>
</g>
<rect width="579.5" height="61" transform="translate(579.5)" fill="white"/>
<path d="M601.62 37.14C601.287 37.14 601.027 37.0467 600.84 36.86C600.667 36.6733 600.58 36.4133 600.58 36.08V24.64H596.34C596.06 24.64 595.84 24.5667 595.68 24.42C595.52 24.26 595.44 24.04 595.44 23.76C595.44 23.48 595.52 23.2667 595.68 23.12C595.84 22.9733 596.06 22.9 596.34 22.9H606.88C607.173 22.9 607.4 22.9733 607.56 23.12C607.72 23.2667 607.8 23.48 607.8 23.76C607.8 24.04 607.72 24.26 607.56 24.42C607.4 24.5667 607.173 24.64 606.88 24.64H602.64V36.08C602.64 36.4133 602.553 36.6733 602.38 36.86C602.22 37.0467 601.967 37.14 601.62 37.14ZM610.224 37.18C609.544 37.18 608.93 37.0467 608.384 36.78C607.85 36.5133 607.43 36.1533 607.124 35.7C606.817 35.2467 606.664 34.7333 606.664 34.16C606.664 33.44 606.844 32.8733 607.204 32.46C607.577 32.0333 608.184 31.7333 609.024 31.56C609.877 31.3733 611.024 31.28 612.464 31.28H613.404V32.52H612.484C611.524 32.52 610.764 32.5667 610.204 32.66C609.644 32.7533 609.244 32.9133 609.004 33.14C608.777 33.3533 608.664 33.6533 608.664 34.04C608.664 34.5467 608.837 34.96 609.184 35.28C609.53 35.5867 610.01 35.74 610.624 35.74C611.117 35.74 611.55 35.6267 611.924 35.4C612.297 35.16 612.59 34.84 612.804 34.44C613.03 34.04 613.144 33.58 613.144 33.06V30.76C613.144 30 612.984 29.4533 612.664 29.12C612.344 28.7867 611.817 28.62 611.084 28.62C610.657 28.62 610.21 28.6733 609.744 28.78C609.29 28.8867 608.817 29.0667 608.324 29.32C608.097 29.4267 607.904 29.46 607.744 29.42C607.584 29.38 607.457 29.2933 607.364 29.16C607.27 29.0133 607.217 28.86 607.204 28.7C607.204 28.5267 607.244 28.36 607.324 28.2C607.417 28.04 607.57 27.92 607.784 27.84C608.37 27.56 608.95 27.36 609.524 27.24C610.097 27.12 610.637 27.06 611.144 27.06C612.037 27.06 612.77 27.2 613.344 27.48C613.93 27.76 614.364 28.1867 614.644 28.76C614.924 29.3333 615.064 30.0733 615.064 30.98V36.12C615.064 36.44 614.984 36.6933 614.824 36.88C614.664 37.0533 614.43 37.14 614.124 37.14C613.83 37.14 613.597 37.0533 613.424 36.88C613.25 36.6933 613.164 36.44 613.164 36.12V34.82H613.344C613.237 35.3133 613.037 35.74 612.744 36.1C612.464 36.4467 612.11 36.7133 611.684 36.9C611.257 37.0867 610.77 37.18 610.224 37.18ZM618.346 37.12C618.026 37.12 617.779 37.0267 617.606 36.84C617.432 36.64 617.346 36.3667 617.346 36.02V28.22C617.346 27.8733 617.432 27.6067 617.606 27.42C617.779 27.2333 618.026 27.14 618.346 27.14C618.666 27.14 618.912 27.2333 619.086 27.42C619.272 27.6067 619.366 27.8733 619.366 28.22V36.02C619.366 36.3667 619.279 36.64 619.106 36.84C618.932 37.0267 618.679 37.12 618.346 37.12ZM618.346 25.06C617.946 25.06 617.632 24.96 617.406 24.76C617.192 24.56 617.086 24.28 617.086 23.92C617.086 23.5467 617.192 23.2667 617.406 23.08C617.632 22.88 617.946 22.78 618.346 22.78C618.746 22.78 619.052 22.88 619.266 23.08C619.492 23.2667 619.606 23.5467 619.606 23.92C619.606 24.28 619.492 24.56 619.266 24.76C619.052 24.96 618.746 25.06 618.346 25.06ZM624.849 37.18C623.809 37.18 623.022 36.88 622.489 36.28C621.969 35.6667 621.709 34.7867 621.709 33.64V23.78C621.709 23.4467 621.796 23.1933 621.969 23.02C622.142 22.8467 622.389 22.76 622.709 22.76C623.029 22.76 623.276 22.8467 623.449 23.02C623.636 23.1933 623.729 23.4467 623.729 23.78V33.52C623.729 34.1867 623.862 34.6867 624.129 35.02C624.409 35.34 624.809 35.5 625.329 35.5C625.449 35.5 625.556 35.5 625.649 35.5C625.742 35.4867 625.836 35.4733 625.929 35.46C626.089 35.4467 626.202 35.4933 626.269 35.6C626.336 35.6933 626.369 35.8933 626.369 36.2C626.369 36.48 626.309 36.7 626.189 36.86C626.069 37.0067 625.876 37.1 625.609 37.14C625.489 37.1533 625.362 37.16 625.229 37.16C625.096 37.1733 624.969 37.18 624.849 37.18ZM630.462 37.18C629.422 37.18 628.636 36.88 628.102 36.28C627.582 35.6667 627.322 34.7867 627.322 33.64V23.78C627.322 23.4467 627.409 23.1933 627.582 23.02C627.756 22.8467 628.002 22.76 628.322 22.76C628.642 22.76 628.889 22.8467 629.062 23.02C629.249 23.1933 629.342 23.4467 629.342 23.78V33.52C629.342 34.1867 629.476 34.6867 629.742 35.02C630.022 35.34 630.422 35.5 630.942 35.5C631.062 35.5 631.169 35.5 631.262 35.5C631.356 35.4867 631.449 35.4733 631.542 35.46C631.702 35.4467 631.816 35.4933 631.882 35.6C631.949 35.6933 631.982 35.8933 631.982 36.2C631.982 36.48 631.922 36.7 631.802 36.86C631.682 37.0067 631.489 37.1 631.222 37.14C631.102 37.1533 630.976 37.16 630.842 37.16C630.709 37.1733 630.582 37.18 630.462 37.18ZM637.418 37.18C636.351 37.18 635.431 36.98 634.658 36.58C633.898 36.1667 633.305 35.5867 632.878 34.84C632.465 34.08 632.258 33.18 632.258 32.14C632.258 31.1267 632.465 30.24 632.878 29.48C633.291 28.72 633.858 28.1267 634.578 27.7C635.298 27.2733 636.118 27.06 637.038 27.06C637.718 27.06 638.325 27.1733 638.858 27.4C639.391 27.6133 639.845 27.9333 640.218 28.36C640.605 28.7733 640.891 29.28 641.078 29.88C641.278 30.48 641.378 31.1533 641.378 31.9C641.378 32.1267 641.311 32.3 641.178 32.42C641.045 32.5267 640.845 32.58 640.578 32.58H633.858V31.34H640.018L639.678 31.62C639.678 30.9533 639.578 30.3867 639.378 29.92C639.191 29.4533 638.905 29.1 638.518 28.86C638.145 28.6067 637.678 28.48 637.118 28.48C636.491 28.48 635.958 28.6267 635.518 28.92C635.091 29.2133 634.765 29.62 634.538 30.14C634.311 30.66 634.198 31.2667 634.198 31.96V32.08C634.198 33.2533 634.471 34.14 635.018 34.74C635.578 35.3267 636.385 35.62 637.438 35.62C637.838 35.62 638.258 35.5667 638.698 35.46C639.151 35.3533 639.578 35.1733 639.978 34.92C640.205 34.7867 640.405 34.7267 640.578 34.74C640.765 34.7533 640.911 34.8133 641.018 34.92C641.138 35.0267 641.211 35.16 641.238 35.32C641.265 35.48 641.238 35.6467 641.158 35.82C641.078 35.98 640.938 36.1267 640.738 36.26C640.285 36.5667 639.758 36.8 639.158 36.96C638.558 37.1067 637.978 37.18 637.418 37.18Z" fill="#201F1F"/>
<path d="M579.5 60.5H1159" stroke="#CDCCCB"/>
<rect width="579.5" height="49" transform="translate(579.5 61)" fill="white"/>
<path d="M603.555 89.6484V91H595.984C595.974 90.6615 596.029 90.3359 596.148 90.0234C596.341 89.5078 596.648 89 597.07 88.5C597.497 88 598.112 87.4219 598.914 86.7656C600.159 85.7448 601 84.9375 601.438 84.3438C601.875 83.7448 602.094 83.1797 602.094 82.6484C602.094 82.0911 601.893 81.6224 601.492 81.2422C601.096 80.8568 600.578 80.6641 599.938 80.6641C599.26 80.6641 598.719 80.8672 598.312 81.2734C597.906 81.6797 597.701 82.2422 597.695 82.9609L596.25 82.8125C596.349 81.7344 596.721 80.9141 597.367 80.3516C598.013 79.7839 598.88 79.5 599.969 79.5C601.068 79.5 601.938 79.8047 602.578 80.4141C603.219 81.0234 603.539 81.7786 603.539 82.6797C603.539 83.138 603.445 83.5885 603.258 84.0312C603.07 84.474 602.758 84.9401 602.32 85.4297C601.888 85.9193 601.167 86.5911 600.156 87.4453C599.312 88.1536 598.771 88.6354 598.531 88.8906C598.292 89.1406 598.094 89.3932 597.938 89.6484H603.555Z" fill="#3E3E3D"/>
<g opacity="0.5">
<path d="M579.5 109.5H1159" stroke="#CDCCCB"/>
</g>
<rect width="579.5" height="49" transform="translate(579.5 110)" fill="white"/>
<path d="M600.672 140V137.258H595.703V135.969L600.93 128.547H602.078V135.969H603.625V137.258H602.078V140H600.672ZM600.672 135.969V130.805L597.086 135.969H600.672Z" fill="#3E3E3D"/>
<g opacity="0.5">
<path d="M579.5 158.5H1159" stroke="#CDCCCB"/>
</g>
<rect width="579.5" height="49" transform="translate(579.5 159)" fill="white"/>
<path d="M598.328 182.789C597.745 182.576 597.312 182.271 597.031 181.875C596.75 181.479 596.609 181.005 596.609 180.453C596.609 179.62 596.909 178.919 597.508 178.352C598.107 177.784 598.904 177.5 599.898 177.5C600.898 177.5 601.703 177.792 602.312 178.375C602.922 178.953 603.227 179.659 603.227 180.492C603.227 181.023 603.086 181.487 602.805 181.883C602.529 182.273 602.107 182.576 601.539 182.789C602.242 183.018 602.776 183.388 603.141 183.898C603.51 184.409 603.695 185.018 603.695 185.727C603.695 186.706 603.349 187.529 602.656 188.195C601.964 188.862 601.052 189.195 599.922 189.195C598.792 189.195 597.88 188.862 597.188 188.195C596.495 187.523 596.148 186.688 596.148 185.688C596.148 184.943 596.336 184.32 596.711 183.82C597.091 183.315 597.63 182.971 598.328 182.789ZM598.047 180.406C598.047 180.948 598.221 181.391 598.57 181.734C598.919 182.078 599.372 182.25 599.93 182.25C600.471 182.25 600.914 182.081 601.258 181.742C601.607 181.398 601.781 180.979 601.781 180.484C601.781 179.969 601.602 179.536 601.242 179.188C600.888 178.833 600.445 178.656 599.914 178.656C599.378 178.656 598.932 178.828 598.578 179.172C598.224 179.516 598.047 179.927 598.047 180.406ZM597.594 185.695C597.594 186.096 597.688 186.484 597.875 186.859C598.068 187.234 598.352 187.526 598.727 187.734C599.102 187.938 599.505 188.039 599.938 188.039C600.609 188.039 601.164 187.823 601.602 187.391C602.039 186.958 602.258 186.409 602.258 185.742C602.258 185.065 602.031 184.505 601.578 184.062C601.13 183.62 600.568 183.398 599.891 183.398C599.229 183.398 598.68 183.617 598.242 184.055C597.81 184.492 597.594 185.039 597.594 185.695Z" fill="#3E3E3D"/>
<g opacity="0.5">
<path d="M579.5 207.5H1159" stroke="#CDCCCB"/>
</g>
<rect width="579.5" height="49" transform="translate(579.5 208)" fill="white"/>
<path d="M601.461 238H600.055V229.039C599.716 229.362 599.271 229.685 598.719 230.008C598.172 230.331 597.68 230.573 597.242 230.734V229.375C598.029 229.005 598.716 228.557 599.305 228.031C599.893 227.505 600.31 226.995 600.555 226.5H601.461V238ZM612.461 236.648V238H604.891C604.88 237.661 604.935 237.336 605.055 237.023C605.247 236.508 605.555 236 605.977 235.5C606.404 235 607.018 234.422 607.82 233.766C609.065 232.745 609.906 231.938 610.344 231.344C610.781 230.745 611 230.18 611 229.648C611 229.091 610.799 228.622 610.398 228.242C610.003 227.857 609.484 227.664 608.844 227.664C608.167 227.664 607.625 227.867 607.219 228.273C606.812 228.68 606.607 229.242 606.602 229.961L605.156 229.812C605.255 228.734 605.628 227.914 606.273 227.352C606.919 226.784 607.786 226.5 608.875 226.5C609.974 226.5 610.844 226.805 611.484 227.414C612.125 228.023 612.445 228.779 612.445 229.68C612.445 230.138 612.352 230.589 612.164 231.031C611.977 231.474 611.664 231.94 611.227 232.43C610.794 232.919 610.073 233.591 609.062 234.445C608.219 235.154 607.677 235.635 607.438 235.891C607.198 236.141 607 236.393 606.844 236.648H612.461Z" fill="#3E3E3D"/>
<g opacity="0.5">
<path d="M579.5 256.5H1159" stroke="#CDCCCB"/>
</g>
<rect width="579.5" height="49" transform="translate(579.5 257)" fill="white"/>
<path d="M601.461 287H600.055V278.039C599.716 278.362 599.271 278.685 598.719 279.008C598.172 279.331 597.68 279.573 597.242 279.734V278.375C598.029 278.005 598.716 277.557 599.305 277.031C599.893 276.505 600.31 275.995 600.555 275.5H601.461V287ZM612.367 278.352L610.969 278.461C610.844 277.909 610.667 277.508 610.438 277.258C610.057 276.857 609.589 276.656 609.031 276.656C608.583 276.656 608.19 276.781 607.852 277.031C607.409 277.354 607.06 277.826 606.805 278.445C606.549 279.065 606.417 279.948 606.406 281.094C606.745 280.578 607.159 280.195 607.648 279.945C608.138 279.695 608.651 279.57 609.188 279.57C610.125 279.57 610.922 279.917 611.578 280.609C612.24 281.297 612.57 282.188 612.57 283.281C612.57 284 612.414 284.669 612.102 285.289C611.794 285.904 611.37 286.375 610.828 286.703C610.286 287.031 609.672 287.195 608.984 287.195C607.812 287.195 606.857 286.766 606.117 285.906C605.378 285.042 605.008 283.62 605.008 281.641C605.008 279.427 605.417 277.818 606.234 276.812C606.948 275.938 607.909 275.5 609.117 275.5C610.018 275.5 610.755 275.753 611.328 276.258C611.906 276.763 612.253 277.461 612.367 278.352ZM606.625 283.289C606.625 283.773 606.727 284.237 606.93 284.68C607.138 285.122 607.427 285.461 607.797 285.695C608.167 285.924 608.555 286.039 608.961 286.039C609.555 286.039 610.065 285.799 610.492 285.32C610.919 284.841 611.133 284.19 611.133 283.367C611.133 282.576 610.922 281.953 610.5 281.5C610.078 281.042 609.547 280.812 608.906 280.812C608.271 280.812 607.732 281.042 607.289 281.5C606.846 281.953 606.625 282.549 606.625 283.289Z" fill="#3E3E3D"/>
<g opacity="0.5">
<path d="M579.5 305.5H1159" stroke="#CDCCCB"/>
</g>
<rect width="579.5" height="49" transform="translate(579.5 306)" fill="white"/>
<path d="M596.172 332.977L597.578 332.789C597.74 333.586 598.013 334.161 598.398 334.516C598.789 334.865 599.263 335.039 599.82 335.039C600.482 335.039 601.039 334.81 601.492 334.352C601.951 333.893 602.18 333.326 602.18 332.648C602.18 332.003 601.969 331.471 601.547 331.055C601.125 330.633 600.589 330.422 599.938 330.422C599.672 330.422 599.341 330.474 598.945 330.578L599.102 329.344C599.195 329.354 599.271 329.359 599.328 329.359C599.927 329.359 600.466 329.203 600.945 328.891C601.424 328.578 601.664 328.096 601.664 327.445C601.664 326.93 601.49 326.503 601.141 326.164C600.792 325.826 600.341 325.656 599.789 325.656C599.242 325.656 598.786 325.828 598.422 326.172C598.057 326.516 597.823 327.031 597.719 327.719L596.312 327.469C596.484 326.526 596.875 325.797 597.484 325.281C598.094 324.76 598.852 324.5 599.758 324.5C600.383 324.5 600.958 324.635 601.484 324.906C602.01 325.172 602.411 325.536 602.688 326C602.969 326.464 603.109 326.956 603.109 327.477C603.109 327.971 602.977 328.422 602.711 328.828C602.445 329.234 602.052 329.557 601.531 329.797C602.208 329.953 602.734 330.279 603.109 330.773C603.484 331.263 603.672 331.878 603.672 332.617C603.672 333.617 603.307 334.466 602.578 335.164C601.849 335.857 600.927 336.203 599.812 336.203C598.807 336.203 597.971 335.904 597.305 335.305C596.643 334.706 596.266 333.93 596.172 332.977ZM612.461 334.648V336H604.891C604.88 335.661 604.935 335.336 605.055 335.023C605.247 334.508 605.555 334 605.977 333.5C606.404 333 607.018 332.422 607.82 331.766C609.065 330.745 609.906 329.938 610.344 329.344C610.781 328.745 611 328.18 611 327.648C611 327.091 610.799 326.622 610.398 326.242C610.003 325.857 609.484 325.664 608.844 325.664C608.167 325.664 607.625 325.867 607.219 326.273C606.812 326.68 606.607 327.242 606.602 327.961L605.156 327.812C605.255 326.734 605.628 325.914 606.273 325.352C606.919 324.784 607.786 324.5 608.875 324.5C609.974 324.5 610.844 324.805 611.484 325.414C612.125 326.023 612.445 326.779 612.445 327.68C612.445 328.138 612.352 328.589 612.164 329.031C611.977 329.474 611.664 329.94 611.227 330.43C610.794 330.919 610.073 331.591 609.062 332.445C608.219 333.154 607.677 333.635 607.438 333.891C607.198 334.141 607 334.393 606.844 334.648H612.461Z" fill="#3E3E3D"/>
<g opacity="0.5">
<path d="M579.5 354.5H1159" stroke="#CDCCCB"/>
</g>
<rect width="579.5" height="49" transform="translate(579.5 355)" fill="white"/>
<path d="M596.375 382.352L597.727 382.227C597.841 382.862 598.06 383.323 598.383 383.609C598.706 383.896 599.12 384.039 599.625 384.039C600.057 384.039 600.435 383.94 600.758 383.742C601.086 383.544 601.354 383.281 601.562 382.953C601.771 382.62 601.945 382.172 602.086 381.609C602.227 381.047 602.297 380.474 602.297 379.891C602.297 379.828 602.294 379.734 602.289 379.609C602.008 380.057 601.622 380.422 601.133 380.703C600.648 380.979 600.122 381.117 599.555 381.117C598.607 381.117 597.805 380.773 597.148 380.086C596.492 379.398 596.164 378.492 596.164 377.367C596.164 376.206 596.505 375.271 597.188 374.562C597.875 373.854 598.734 373.5 599.766 373.5C600.51 373.5 601.19 373.701 601.805 374.102C602.424 374.503 602.893 375.076 603.211 375.82C603.534 376.56 603.695 377.633 603.695 379.039C603.695 380.503 603.536 381.669 603.219 382.539C602.901 383.404 602.427 384.062 601.797 384.516C601.172 384.969 600.438 385.195 599.594 385.195C598.698 385.195 597.966 384.948 597.398 384.453C596.831 383.953 596.49 383.253 596.375 382.352ZM602.133 377.297C602.133 376.49 601.917 375.849 601.484 375.375C601.057 374.901 600.542 374.664 599.938 374.664C599.312 374.664 598.768 374.919 598.305 375.43C597.841 375.94 597.609 376.602 597.609 377.414C597.609 378.143 597.828 378.737 598.266 379.195C598.708 379.648 599.253 379.875 599.898 379.875C600.549 379.875 601.083 379.648 601.5 379.195C601.922 378.737 602.133 378.104 602.133 377.297ZM605.281 382.352L606.633 382.227C606.747 382.862 606.966 383.323 607.289 383.609C607.612 383.896 608.026 384.039 608.531 384.039C608.964 384.039 609.341 383.94 609.664 383.742C609.992 383.544 610.26 383.281 610.469 382.953C610.677 382.62 610.852 382.172 610.992 381.609C611.133 381.047 611.203 380.474 611.203 379.891C611.203 379.828 611.201 379.734 611.195 379.609C610.914 380.057 610.529 380.422 610.039 380.703C609.555 380.979 609.029 381.117 608.461 381.117C607.513 381.117 606.711 380.773 606.055 380.086C605.398 379.398 605.07 378.492 605.07 377.367C605.07 376.206 605.411 375.271 606.094 374.562C606.781 373.854 607.641 373.5 608.672 373.5C609.417 373.5 610.096 373.701 610.711 374.102C611.331 374.503 611.799 375.076 612.117 375.82C612.44 376.56 612.602 377.633 612.602 379.039C612.602 380.503 612.443 381.669 612.125 382.539C611.807 383.404 611.333 384.062 610.703 384.516C610.078 384.969 609.344 385.195 608.5 385.195C607.604 385.195 606.872 384.948 606.305 384.453C605.737 383.953 605.396 383.253 605.281 382.352ZM611.039 377.297C611.039 376.49 610.823 375.849 610.391 375.375C609.964 374.901 609.448 374.664 608.844 374.664C608.219 374.664 607.674 374.919 607.211 375.43C606.747 375.94 606.516 376.602 606.516 377.414C606.516 378.143 606.734 378.737 607.172 379.195C607.615 379.648 608.159 379.875 608.805 379.875C609.456 379.875 609.99 379.648 610.406 379.195C610.828 378.737 611.039 378.104 611.039 377.297ZM614.188 382.352L615.539 382.227C615.654 382.862 615.872 383.323 616.195 383.609C616.518 383.896 616.932 384.039 617.438 384.039C617.87 384.039 618.247 383.94 618.57 383.742C618.898 383.544 619.167 383.281 619.375 382.953C619.583 382.62 619.758 382.172 619.898 381.609C620.039 381.047 620.109 380.474 620.109 379.891C620.109 379.828 620.107 379.734 620.102 379.609C619.82 380.057 619.435 380.422 618.945 380.703C618.461 380.979 617.935 381.117 617.367 381.117C616.419 381.117 615.617 380.773 614.961 380.086C614.305 379.398 613.977 378.492 613.977 377.367C613.977 376.206 614.318 375.271 615 374.562C615.688 373.854 616.547 373.5 617.578 373.5C618.323 373.5 619.003 373.701 619.617 374.102C620.237 374.503 620.706 375.076 621.023 375.82C621.346 376.56 621.508 377.633 621.508 379.039C621.508 380.503 621.349 381.669 621.031 382.539C620.714 383.404 620.24 384.062 619.609 384.516C618.984 384.969 618.25 385.195 617.406 385.195C616.51 385.195 615.779 384.948 615.211 384.453C614.643 383.953 614.302 383.253 614.188 382.352ZM619.945 377.297C619.945 376.49 619.729 375.849 619.297 375.375C618.87 374.901 618.354 374.664 617.75 374.664C617.125 374.664 616.581 374.919 616.117 375.43C615.654 375.94 615.422 376.602 615.422 377.414C615.422 378.143 615.641 378.737 616.078 379.195C616.521 379.648 617.065 379.875 617.711 379.875C618.362 379.875 618.896 379.648 619.312 379.195C619.734 378.737 619.945 378.104 619.945 377.297Z" fill="#3E3E3D"/>
<g opacity="0.5">
<path d="M579.5 403.5H1159" stroke="#CDCCCB"/>
</g>
</g>
<rect x="0.5" y="0.5" width="1158" height="403" rx="7.5" stroke="#CDCCCB"/>
<defs>
<clipPath id="clip0_151_8054">
<rect width="1159" height="404" rx="8" fill="white"/>
</clipPath>
</defs>
</svg>
