<svg viewBox="0 0 20 20" fill="none" xmlns="http://www.w3.org/2000/svg">
<path d="M13.7499 14.1667V5.83333C13.7499 5.59722 13.8298 5.39931 13.9895 5.23958C14.1492 5.07986 14.3471 5 14.5833 5C14.8194 5 15.0173 5.07986 15.177 5.23958C15.3367 5.39931 15.4166 5.59722 15.4166 5.83333V14.1667C15.4166 14.4028 15.3367 14.6007 15.177 14.7604C15.0173 14.9201 14.8194 15 14.5833 15C14.3471 15 14.1492 14.9201 13.9895 14.7604C13.8298 14.6007 13.7499 14.4028 13.7499 14.1667ZM4.58325 13.4375V6.5625C4.58325 6.3125 4.66659 6.11111 4.83325 5.95833C4.99992 5.80556 5.19436 5.72917 5.41659 5.72917C5.48603 5.72917 5.56242 5.73611 5.64575 5.75C5.72909 5.76389 5.80547 5.79861 5.87492 5.85417L11.0416 9.3125C11.1666 9.39583 11.2603 9.49653 11.3228 9.61458C11.3853 9.73264 11.4166 9.86111 11.4166 10C11.4166 10.1389 11.3853 10.2674 11.3228 10.3854C11.2603 10.5035 11.1666 10.6042 11.0416 10.6875L5.87492 14.1458C5.80547 14.2014 5.72909 14.2361 5.64575 14.25C5.56242 14.2639 5.48603 14.2708 5.41659 14.2708C5.19436 14.2708 4.99992 14.1944 4.83325 14.0417C4.66659 13.8889 4.58325 13.6875 4.58325 13.4375Z" fill="currentColor"/>
</svg>