<svg viewBox="0 0 20 20" fill="none" xmlns="http://www.w3.org/2000/svg">
<path d="M7.5 12.5C6.11111 12.5 4.93056 12.0139 3.95833 11.0417C2.98611 10.0694 2.5 8.88889 2.5 7.5C2.5 7.22222 2.52083 6.94444 2.5625 6.66667C2.60417 6.38889 2.68056 6.125 2.79167 5.875C2.86111 5.73611 2.94792 5.63194 3.05208 5.5625C3.15625 5.49306 3.27083 5.44444 3.39583 5.41667C3.52083 5.38889 3.64931 5.39236 3.78125 5.42708C3.91319 5.46181 4.03472 5.53472 4.14583 5.64583L6.33333 7.83333L7.83333 6.33333L5.64583 4.14583C5.53472 4.03472 5.46181 3.91319 5.42708 3.78125C5.39236 3.64931 5.38889 3.52083 5.41667 3.39583C5.44444 3.27083 5.49306 3.15625 5.5625 3.05208C5.63194 2.94792 5.73611 2.86111 5.875 2.79167C6.125 2.68056 6.38889 2.60417 6.66667 2.5625C6.94444 2.52083 7.22222 2.5 7.5 2.5C8.88889 2.5 10.0694 2.98611 11.0417 3.95833C12.0139 4.93056 12.5 6.11111 12.5 7.5C12.5 7.81944 12.4722 8.12153 12.4167 8.40625C12.3611 8.69097 12.2778 8.97222 12.1667 9.25L16.375 13.4167C16.7778 13.8194 16.9792 14.3125 16.9792 14.8958C16.9792 15.4792 16.7778 15.9722 16.375 16.375C15.9722 16.7778 15.4792 16.9792 14.8958 16.9792C14.3125 16.9792 13.8194 16.7708 13.4167 16.3542L9.25 12.1667C8.97222 12.2778 8.69097 12.3611 8.40625 12.4167C8.12153 12.4722 7.81944 12.5 7.5 12.5Z" fill="currentColor"/>
</svg>