<svg viewBox="0 0 20 20" fill="none" xmlns="http://www.w3.org/2000/svg">
<path d="M10.8334 9.66663V6.66663C10.8334 6.43051 10.7536 6.2326 10.5938 6.07288C10.4341 5.91315 10.2362 5.83329 10.0001 5.83329C9.76397 5.83329 9.56605 5.91315 9.40633 6.07288C9.24661 6.2326 9.16675 6.43051 9.16675 6.66663V9.97913C9.16675 10.0902 9.18758 10.1979 9.22925 10.302C9.27091 10.4062 9.33341 10.5 9.41675 10.5833L12.1667 13.3333C12.3195 13.4861 12.514 13.5625 12.7501 13.5625C12.9862 13.5625 13.1806 13.4861 13.3334 13.3333C13.4862 13.1805 13.5626 12.9861 13.5626 12.75C13.5626 12.5138 13.4862 12.3194 13.3334 12.1666L10.8334 9.66663ZM10.0001 18.3333C8.8473 18.3333 7.76397 18.1145 6.75008 17.677C5.73619 17.2395 4.85425 16.6458 4.10425 15.8958C3.35425 15.1458 2.7605 14.2638 2.323 13.25C1.8855 12.2361 1.66675 11.1527 1.66675 9.99996C1.66675 8.84718 1.8855 7.76385 2.323 6.74996C2.7605 5.73607 3.35425 4.85413 4.10425 4.10413C4.85425 3.35413 5.73619 2.76038 6.75008 2.32288C7.76397 1.88538 8.8473 1.66663 10.0001 1.66663C11.1529 1.66663 12.2362 1.88538 13.2501 2.32288C14.264 2.76038 15.1459 3.35413 15.8959 4.10413C16.6459 4.85413 17.2397 5.73607 17.6772 6.74996C18.1147 7.76385 18.3334 8.84718 18.3334 9.99996C18.3334 11.1527 18.1147 12.2361 17.6772 13.25C17.2397 14.2638 16.6459 15.1458 15.8959 15.8958C15.1459 16.6458 14.264 17.2395 13.2501 17.677C12.2362 18.1145 11.1529 18.3333 10.0001 18.3333Z" fill="currentColor"/>
</svg>