<svg viewBox="0 0 20 20" fill="none" xmlns="http://www.w3.org/2000/svg">
<path d="M10.0044 12C10.4181 12 10.7708 11.8527 11.0625 11.5581C11.3542 11.2635 11.5 10.9094 11.5 10.4956C11.5 10.0819 11.3527 9.72917 11.0581 9.4375C10.7635 9.14583 10.4094 9 9.99563 9C9.58188 9 9.22917 9.14729 8.9375 9.44187C8.64583 9.73646 8.5 10.0906 8.5 10.5044C8.5 10.9181 8.64729 11.2708 8.94187 11.5625C9.23646 11.8542 9.59062 12 10.0044 12ZM7 15H13V14.3125C13 14.0069 12.9167 13.7326 12.75 13.4896C12.5833 13.2465 12.3611 13.0625 12.0833 12.9375C11.7639 12.7847 11.4271 12.6736 11.0729 12.6042C10.7188 12.5347 10.3611 12.5 10 12.5C9.63889 12.5 9.28125 12.5347 8.92708 12.6042C8.57292 12.6736 8.23611 12.7847 7.91667 12.9375C7.63889 13.0625 7.41667 13.2465 7.25 13.4896C7.08333 13.7326 7 14.0069 7 14.3125V15ZM14.4992 18H5.49417C5.08139 18 4.72917 17.8531 4.4375 17.5594C4.14583 17.2656 4 16.9125 4 16.5V3.5C4 3.0875 4.14687 2.73438 4.44062 2.44063C4.73437 2.14688 5.0875 2 5.5 2H11.375C11.5725 2 11.7608 2.03472 11.9398 2.10417C12.1188 2.17361 12.2847 2.28472 12.4375 2.4375L15.5625 5.5625C15.7153 5.71528 15.8264 5.88118 15.8958 6.06021C15.9653 6.23924 16 6.4275 16 6.625V16.5C16 16.9125 15.8531 17.2656 15.5592 17.5594C15.2653 17.8531 14.9119 18 14.4992 18Z" fill="currentColor"/>
</svg>
