<svg viewBox="0 0 20 20" fill="none" xmlns="http://www.w3.org/2000/svg">
<path d="M9.375 18.3333C8.91667 18.3333 8.45486 18.2813 7.98958 18.1771C7.52431 18.0729 7.04861 17.9236 6.5625 17.7292C6.72917 16.0486 7.21528 14.4792 8.02083 13.0208C8.82639 11.5625 9.86111 10.2778 11.125 9.16668C9.59722 9.94445 8.27431 10.9722 7.15625 12.25C6.03819 13.5278 5.25694 14.9861 4.8125 16.625C4.75694 16.5833 4.70486 16.5382 4.65625 16.4896L4.5 16.3333C3.84722 15.6806 3.35069 14.9514 3.01042 14.1458C2.67014 13.3403 2.5 12.5 2.5 11.625C2.5 10.6806 2.6875 9.77779 3.0625 8.91668C3.4375 8.05556 3.95833 7.29168 4.625 6.62501C5.59722 5.65279 6.80208 4.97223 8.23958 4.58334C9.67708 4.19445 11.6181 4.05556 14.0625 4.16668C14.4236 4.18056 14.7569 4.26043 15.0625 4.40626C15.3681 4.55209 15.6389 4.74306 15.875 4.97918C16.1111 5.21529 16.2986 5.48959 16.4375 5.80209C16.5764 6.11459 16.6597 6.4514 16.6875 6.81251C16.7708 9.31251 16.625 11.2639 16.25 12.6667C15.875 14.0695 15.2083 15.25 14.25 16.2083C13.5694 16.8889 12.809 17.4132 11.9688 17.7813C11.1285 18.1493 10.2639 18.3333 9.375 18.3333Z" fill="currentColor"/>
</svg>