<svg viewBox="0 0 20 20" fill="none" xmlns="http://www.w3.org/2000/svg">
<path d="M4.5 16.3333C3.875 15.7083 3.38542 14.9861 3.03125 14.1667C2.67708 13.3472 2.5 12.5 2.5 11.625C2.5 10.75 2.66667 9.88542 3 9.03125C3.33333 8.17709 3.875 7.375 4.625 6.625C5.45833 5.79167 6.63542 5.15972 8.15625 4.72917C9.67708 4.29861 11.6458 4.11806 14.0625 4.1875C14.4236 4.20139 14.7569 4.27778 15.0625 4.41667C15.3681 4.55556 15.6389 4.74306 15.875 4.97917C16.1111 5.21528 16.2986 5.48959 16.4375 5.80209C16.5764 6.11459 16.6528 6.45139 16.6667 6.8125C16.6944 7.95139 16.6632 9.00347 16.5729 9.96875C16.4826 10.934 16.3368 11.8056 16.1354 12.5833C15.934 13.3611 15.6771 14.0521 15.3646 14.6563C15.0521 15.2604 14.6806 15.7778 14.25 16.2083C13.5139 16.9444 12.7326 17.4826 11.9062 17.8229C11.0799 18.1632 10.2361 18.3333 9.375 18.3333C8.47222 18.3333 7.59028 18.1563 6.72917 17.8021C5.86806 17.4479 5.125 16.9583 4.5 16.3333ZM6.83333 16C7.23611 16.2361 7.64931 16.4063 8.07292 16.5104C8.49653 16.6146 8.93056 16.6667 9.375 16.6667C10.0139 16.6667 10.6458 16.5382 11.2708 16.2813C11.8958 16.0243 12.4931 15.6111 13.0625 15.0417C13.3125 14.7917 13.566 14.441 13.8229 13.9896C14.0799 13.5382 14.3021 12.9479 14.4896 12.2188C14.6771 11.4896 14.8194 10.6076 14.9167 9.57292C15.0139 8.5382 15.0278 7.30556 14.9583 5.875C14.2778 5.84722 13.5104 5.83681 12.6562 5.84375C11.8021 5.8507 10.9514 5.91667 10.1042 6.04167C9.25694 6.16667 8.45139 6.36806 7.6875 6.64584C6.92361 6.92361 6.29861 7.30556 5.8125 7.79167C5.1875 8.41667 4.75694 9.03472 4.52083 9.64584C4.28472 10.2569 4.16667 10.8472 4.16667 11.4167C4.16667 12.2361 4.32292 12.9549 4.63542 13.5729C4.94792 14.191 5.22222 14.625 5.45833 14.875C6.04167 13.7639 6.8125 12.6979 7.77083 11.6771C8.72917 10.6563 9.84722 9.81945 11.125 9.16667C10.125 10.0417 9.25347 11.0313 8.51042 12.1354C7.76736 13.2396 7.20833 14.5278 6.83333 16Z" fill="currentColor"/>
</svg>