<svg viewBox="0 0 20 20" fill="none" xmlns="http://www.w3.org/2000/svg">
<path d="M10.0001 18.3334C8.86119 18.3334 7.7848 18.1146 6.77091 17.6771C5.75703 17.2396 4.87161 16.6424 4.11466 15.8854C3.35772 15.1285 2.7605 14.2431 2.323 13.2292C1.8855 12.2153 1.66675 11.1389 1.66675 10C1.66675 8.84724 1.89244 7.76391 2.34383 6.75002C2.79522 5.73613 3.40633 4.85419 4.17716 4.10419C4.948 3.35419 5.8473 2.76044 6.87508 2.32294C7.90286 1.88544 9.00008 1.66669 10.1667 1.66669C11.2779 1.66669 12.3265 1.85766 13.3126 2.2396C14.2987 2.62155 15.1633 3.14933 15.9063 3.82294C16.6494 4.49655 17.2397 5.29516 17.6772 6.21877C18.1147 7.14238 18.3334 8.13891 18.3334 9.20835C18.3334 10.8056 17.8473 12.0313 16.8751 12.8854C15.9029 13.7396 14.7223 14.1667 13.3334 14.1667H11.7917C11.6667 14.1667 11.5799 14.2014 11.5313 14.2709C11.4827 14.3403 11.4584 14.4167 11.4584 14.5C11.4584 14.6667 11.5626 14.9063 11.7709 15.2188C11.9792 15.5313 12.0834 15.8889 12.0834 16.2917C12.0834 16.9861 11.8924 17.5 11.5105 17.8334C11.1286 18.1667 10.6251 18.3334 10.0001 18.3334ZM5.41675 10.8334C5.77786 10.8334 6.07647 10.7153 6.31258 10.4792C6.54869 10.2431 6.66675 9.94446 6.66675 9.58335C6.66675 9.22224 6.54869 8.92363 6.31258 8.68752C6.07647 8.45141 5.77786 8.33335 5.41675 8.33335C5.05564 8.33335 4.75703 8.45141 4.52091 8.68752C4.2848 8.92363 4.16675 9.22224 4.16675 9.58335C4.16675 9.94446 4.2848 10.2431 4.52091 10.4792C4.75703 10.7153 5.05564 10.8334 5.41675 10.8334ZM7.91675 7.50002C8.27786 7.50002 8.57647 7.38196 8.81258 7.14585C9.04869 6.90974 9.16675 6.61113 9.16675 6.25002C9.16675 5.88891 9.04869 5.5903 8.81258 5.35419C8.57647 5.11808 8.27786 5.00002 7.91675 5.00002C7.55564 5.00002 7.25703 5.11808 7.02091 5.35419C6.7848 5.5903 6.66675 5.88891 6.66675 6.25002C6.66675 6.61113 6.7848 6.90974 7.02091 7.14585C7.25703 7.38196 7.55564 7.50002 7.91675 7.50002ZM12.0834 7.50002C12.4445 7.50002 12.7431 7.38196 12.9792 7.14585C13.2154 6.90974 13.3334 6.61113 13.3334 6.25002C13.3334 5.88891 13.2154 5.5903 12.9792 5.35419C12.7431 5.11808 12.4445 5.00002 12.0834 5.00002C11.7223 5.00002 11.4237 5.11808 11.1876 5.35419C10.9515 5.5903 10.8334 5.88891 10.8334 6.25002C10.8334 6.61113 10.9515 6.90974 11.1876 7.14585C11.4237 7.38196 11.7223 7.50002 12.0834 7.50002ZM14.5834 10.8334C14.9445 10.8334 15.2431 10.7153 15.4792 10.4792C15.7154 10.2431 15.8334 9.94446 15.8334 9.58335C15.8334 9.22224 15.7154 8.92363 15.4792 8.68752C15.2431 8.45141 14.9445 8.33335 14.5834 8.33335C14.2223 8.33335 13.9237 8.45141 13.6876 8.68752C13.4515 8.92363 13.3334 9.22224 13.3334 9.58335C13.3334 9.94446 13.4515 10.2431 13.6876 10.4792C13.9237 10.7153 14.2223 10.8334 14.5834 10.8334Z" fill="currentColor"/>
</svg>