<svg viewBox="0 0 20 20" fill="none" xmlns="http://www.w3.org/2000/svg">
<path d="M16.25 17.75H14.25M14.25 17.75L10 13.2036M14.25 17.75L12.9708 11.875M14.25 17.75H5.75M10 13.2036L5.75 17.75M10 13.2036L12.6441 10.375M10 13.2036L7.35585 10.375M12.9708 11.875C12.9708 11.875 16.5 10.375 15 10.375H12.6441M12.9708 11.875L12.6441 10.375M5.75 17.75H3.75M5.75 17.75L7.02922 11.875M7.02922 11.875C7.02922 11.875 3.5 10.375 5 10.375H7.35585M7.02922 11.875L7.35585 10.375M6.5 6.25H8.19058M8.19058 6.25L7.35585 10.375M8.19058 6.25L8.95945 2.45042C8.98305 2.33382 9.08552 2.25 9.20447 2.25H10.7955C10.9145 2.25 11.017 2.33382 11.0406 2.45042L11.8094 6.25M8.19058 6.25H11.8094M7.35585 10.375H12.6441M11.8094 6.25H13.5M11.8094 6.25L12.6441 10.375" stroke="currentColor" stroke-width="1.5" stroke-linecap="round"/>
</svg>
