<svg width="24" height="24" viewBox="0 0 24 24" fill="none" xmlns="http://www.w3.org/2000/svg">
<mask id="mask0_72_346" style="mask-type:alpha" maskUnits="userSpaceOnUse" x="0" y="0" width="24" height="24">
<rect width="24" height="24" fill="#D9D9D9"/>
</mask>
<g mask="url(#mask0_72_346)">
<path d="M14 7H10.5C10.0833 7 9.72917 6.85417 9.4375 6.5625C9.14583 6.27083 9 5.91667 9 5.5C9 5.08333 9.14583 4.72917 9.4375 4.4375C9.72917 4.14583 10.0833 4 10.5 4H20.5C20.9167 4 21.2708 4.14583 21.5625 4.4375C21.8542 4.72917 22 5.08333 22 5.5C22 5.91667 21.8542 6.27083 21.5625 6.5625C21.2708 6.85417 20.9167 7 20.5 7H17V18.5C17 18.9167 16.8542 19.2708 16.5625 19.5625C16.2708 19.8542 15.9167 20 15.5 20C15.0833 20 14.7292 19.8542 14.4375 19.5625C14.1458 19.2708 14 18.9167 14 18.5V7ZM5 12H3.5C3.08333 12 2.72917 11.8542 2.4375 11.5625C2.14583 11.2708 2 10.9167 2 10.5C2 10.0833 2.14583 9.72917 2.4375 9.4375C2.72917 9.14583 3.08333 9 3.5 9H9.5C9.91667 9 10.2708 9.14583 10.5625 9.4375C10.8542 9.72917 11 10.0833 11 10.5C11 10.9167 10.8542 11.2708 10.5625 11.5625C10.2708 11.8542 9.91667 12 9.5 12H8V18.5C8 18.9167 7.85417 19.2708 7.5625 19.5625C7.27083 19.8542 6.91667 20 6.5 20C6.08333 20 5.72917 19.8542 5.4375 19.5625C5.14583 19.2708 5 18.9167 5 18.5V12Z" fill="#1C1B1F"/>
</g>
</svg>
