<svg width="1159" height="144" viewBox="0 0 1159 144" fill="none" xmlns="http://www.w3.org/2000/svg">
<path d="M8 0.5H1151C1155.14 0.5 1158.5 3.85787 1158.5 8V136C1158.5 140.142 1155.14 143.5 1151 143.5H8C3.85787 143.5 0.5 140.142 0.5 136V8C0.500002 3.85787 3.85787 0.5 8 0.5Z" stroke="#CDCCCB"/>
<path d="M48.5752 31L44.9932 20.9785H47.1875L49.7236 28.3955L52.1777 20.9785H54.3242L50.7354 31H48.5752ZM55.999 25.9551L54.2559 25.6406C54.4518 24.9388 54.7891 24.4193 55.2676 24.082C55.7461 23.7448 56.457 23.5762 57.4004 23.5762C58.2572 23.5762 58.8952 23.6787 59.3145 23.8838C59.7337 24.0843 60.0277 24.3418 60.1963 24.6562C60.3695 24.9661 60.4561 25.5381 60.4561 26.3721L60.4355 28.6143C60.4355 29.2523 60.4652 29.724 60.5244 30.0293C60.5882 30.3301 60.7044 30.6536 60.873 31H58.9727C58.9225 30.8724 58.861 30.6833 58.7881 30.4326C58.7562 30.3187 58.7334 30.2435 58.7197 30.207C58.3916 30.526 58.0407 30.7653 57.667 30.9248C57.2933 31.0843 56.8945 31.1641 56.4707 31.1641C55.7233 31.1641 55.1331 30.9613 54.7002 30.5557C54.2718 30.1501 54.0576 29.6374 54.0576 29.0176C54.0576 28.6074 54.1556 28.2428 54.3516 27.9238C54.5475 27.6003 54.821 27.3542 55.1719 27.1855C55.5273 27.0124 56.0378 26.862 56.7031 26.7344C57.6009 26.5658 58.223 26.4085 58.5693 26.2627V26.0713C58.5693 25.7021 58.4782 25.4401 58.2959 25.2852C58.1136 25.1257 57.7695 25.0459 57.2637 25.0459C56.9219 25.0459 56.6553 25.1143 56.4639 25.251C56.2725 25.3831 56.1175 25.6178 55.999 25.9551ZM58.5693 27.5137C58.3232 27.5957 57.9336 27.6937 57.4004 27.8076C56.8672 27.9215 56.5186 28.0332 56.3545 28.1426C56.1038 28.3203 55.9785 28.5459 55.9785 28.8193C55.9785 29.0882 56.0788 29.3206 56.2793 29.5166C56.4798 29.7126 56.735 29.8105 57.0449 29.8105C57.3913 29.8105 57.7217 29.6966 58.0361 29.4688C58.2686 29.2956 58.4212 29.0837 58.4941 28.833C58.5443 28.6689 58.5693 28.3568 58.5693 27.8965V27.5137ZM62.3564 31V20.9785H64.2773V31H62.3564ZM70.457 28.6895L72.3711 29.0107C72.125 29.7126 71.7354 30.248 71.2021 30.6172C70.6735 30.9818 70.0104 31.1641 69.2129 31.1641C67.9505 31.1641 67.0163 30.7516 66.4102 29.9268C65.9316 29.266 65.6924 28.432 65.6924 27.4248C65.6924 26.2217 66.0068 25.2806 66.6357 24.6016C67.2646 23.918 68.0599 23.5762 69.0215 23.5762C70.1016 23.5762 70.9538 23.9339 71.5781 24.6494C72.2025 25.3604 72.501 26.4518 72.4736 27.9238H67.6611C67.6748 28.4935 67.8298 28.9378 68.126 29.2568C68.4222 29.5713 68.7913 29.7285 69.2334 29.7285C69.5342 29.7285 69.7871 29.6465 69.9922 29.4824C70.1973 29.3184 70.3522 29.054 70.457 28.6895ZM70.5664 26.748C70.5527 26.1921 70.4092 25.7705 70.1357 25.4834C69.8623 25.1917 69.5296 25.0459 69.1377 25.0459C68.7184 25.0459 68.3721 25.1986 68.0986 25.5039C67.8252 25.8092 67.6908 26.224 67.6953 26.748H70.5664ZM78.8242 31V29.9131C78.5599 30.3005 78.2113 30.6058 77.7783 30.8291C77.3499 31.0524 76.8965 31.1641 76.418 31.1641C75.9303 31.1641 75.4928 31.057 75.1055 30.8428C74.7181 30.6286 74.4378 30.3278 74.2646 29.9404C74.0915 29.5531 74.0049 29.0176 74.0049 28.334V23.7402H75.9258V27.0762C75.9258 28.097 75.96 28.7236 76.0283 28.9561C76.1012 29.1839 76.2311 29.3662 76.418 29.5029C76.6048 29.6351 76.8418 29.7012 77.1289 29.7012C77.457 29.7012 77.751 29.6123 78.0107 29.4346C78.2705 29.2523 78.4482 29.029 78.5439 28.7646C78.6396 28.4958 78.6875 27.8418 78.6875 26.8027V23.7402H80.6084V31H78.8242ZM84.4434 31H82.5225V23.7402H84.3066V24.7725C84.612 24.2848 84.8854 23.9635 85.127 23.8086C85.373 23.6536 85.651 23.5762 85.9609 23.5762C86.3984 23.5762 86.82 23.6969 87.2256 23.9385L86.6309 25.6133C86.3073 25.4036 86.0065 25.2988 85.7285 25.2988C85.4596 25.2988 85.2318 25.374 85.0449 25.5244C84.8581 25.6702 84.71 25.9368 84.6006 26.3242C84.4958 26.7116 84.4434 27.5228 84.4434 28.7578V31ZM91.9766 31V20.9785H94V24.9229H97.9648V20.9785H99.9883V31H97.9648V26.6182H94V31H91.9766ZM102.087 31V20.9785H109.518V22.6738H104.11V24.8955H109.142V26.584H104.11V29.3115H109.709V31H102.087ZM110.406 31L113.831 25.7705L110.728 20.9785H113.093L115.103 24.1982L117.071 20.9785H119.416L116.299 25.8457L119.724 31H117.283L115.062 27.5342L112.833 31H110.406Z" fill="#201F1F"/>
<path d="M214.431 27.3154L216.393 27.9375C216.092 29.0312 215.59 29.8447 214.889 30.3779C214.191 30.9066 213.305 31.1709 212.229 31.1709C210.899 31.1709 209.805 30.7174 208.948 29.8105C208.091 28.8991 207.663 27.6549 207.663 26.0781C207.663 24.4102 208.094 23.1159 208.955 22.1953C209.816 21.2702 210.949 20.8076 212.353 20.8076C213.578 20.8076 214.574 21.1699 215.34 21.8945C215.796 22.3229 216.137 22.9382 216.365 23.7402L214.362 24.2188C214.244 23.6992 213.995 23.2891 213.617 22.9883C213.243 22.6875 212.788 22.5371 212.25 22.5371C211.507 22.5371 210.903 22.8037 210.438 23.3369C209.978 23.8701 209.748 24.7337 209.748 25.9277C209.748 27.1947 209.976 28.097 210.432 28.6348C210.887 29.1725 211.48 29.4414 212.209 29.4414C212.747 29.4414 213.209 29.2705 213.597 28.9287C213.984 28.5869 214.262 28.0492 214.431 27.3154ZM217.678 27.2676C217.678 26.6296 217.835 26.012 218.149 25.415C218.464 24.818 218.908 24.3623 219.482 24.0479C220.061 23.7334 220.706 23.5762 221.417 23.5762C222.515 23.5762 223.415 23.9339 224.117 24.6494C224.819 25.3604 225.17 26.2604 225.17 27.3496C225.17 28.4479 224.814 29.3594 224.104 30.084C223.397 30.804 222.506 31.1641 221.431 31.1641C220.765 31.1641 220.13 31.0137 219.523 30.7129C218.922 30.4121 218.464 29.9723 218.149 29.3936C217.835 28.8102 217.678 28.1016 217.678 27.2676ZM219.646 27.3701C219.646 28.0902 219.817 28.6416 220.159 29.0244C220.501 29.4072 220.923 29.5986 221.424 29.5986C221.925 29.5986 222.344 29.4072 222.682 29.0244C223.023 28.6416 223.194 28.0856 223.194 27.3564C223.194 26.6455 223.023 26.0986 222.682 25.7158C222.344 25.333 221.925 25.1416 221.424 25.1416C220.923 25.1416 220.501 25.333 220.159 25.7158C219.817 26.0986 219.646 26.6501 219.646 27.3701ZM231.459 31V29.9131C231.195 30.3005 230.846 30.6058 230.413 30.8291C229.985 31.0524 229.531 31.1641 229.053 31.1641C228.565 31.1641 228.128 31.057 227.74 30.8428C227.353 30.6286 227.073 30.3278 226.899 29.9404C226.726 29.5531 226.64 29.0176 226.64 28.334V23.7402H228.561V27.0762C228.561 28.097 228.595 28.7236 228.663 28.9561C228.736 29.1839 228.866 29.3662 229.053 29.5029C229.24 29.6351 229.477 29.7012 229.764 29.7012C230.092 29.7012 230.386 29.6123 230.646 29.4346C230.905 29.2523 231.083 29.029 231.179 28.7646C231.274 28.4958 231.322 27.8418 231.322 26.8027V23.7402H233.243V31H231.459ZM235.239 31V20.9785H237.16V31H235.239ZM243.34 28.6895L245.254 29.0107C245.008 29.7126 244.618 30.248 244.085 30.6172C243.556 30.9818 242.893 31.1641 242.096 31.1641C240.833 31.1641 239.899 30.7516 239.293 29.9268C238.814 29.266 238.575 28.432 238.575 27.4248C238.575 26.2217 238.89 25.2806 239.519 24.6016C240.147 23.918 240.943 23.5762 241.904 23.5762C242.984 23.5762 243.837 23.9339 244.461 24.6494C245.085 25.3604 245.384 26.4518 245.356 27.9238H240.544C240.558 28.4935 240.713 28.9378 241.009 29.2568C241.305 29.5713 241.674 29.7285 242.116 29.7285C242.417 29.7285 242.67 29.6465 242.875 29.4824C243.08 29.3184 243.235 29.054 243.34 28.6895ZM243.449 26.748C243.436 26.1921 243.292 25.7705 243.019 25.4834C242.745 25.1917 242.412 25.0459 242.021 25.0459C241.601 25.0459 241.255 25.1986 240.981 25.5039C240.708 25.8092 240.574 26.224 240.578 26.748H243.449ZM251.707 31V29.9131C251.443 30.3005 251.094 30.6058 250.661 30.8291C250.233 31.0524 249.779 31.1641 249.301 31.1641C248.813 31.1641 248.376 31.057 247.988 30.8428C247.601 30.6286 247.321 30.3278 247.147 29.9404C246.974 29.5531 246.888 29.0176 246.888 28.334V23.7402H248.809V27.0762C248.809 28.097 248.843 28.7236 248.911 28.9561C248.984 29.1839 249.114 29.3662 249.301 29.5029C249.488 29.6351 249.725 29.7012 250.012 29.7012C250.34 29.7012 250.634 29.6123 250.894 29.4346C251.153 29.2523 251.331 29.029 251.427 28.7646C251.522 28.4958 251.57 27.8418 251.57 26.8027V23.7402H253.491V31H251.707ZM257.326 31H255.405V23.7402H257.189V24.7725C257.495 24.2848 257.768 23.9635 258.01 23.8086C258.256 23.6536 258.534 23.5762 258.844 23.5762C259.281 23.5762 259.703 23.6969 260.108 23.9385L259.514 25.6133C259.19 25.4036 258.889 25.2988 258.611 25.2988C258.342 25.2988 258.115 25.374 257.928 25.5244C257.741 25.6702 257.593 25.9368 257.483 26.3242C257.379 26.7116 257.326 27.5228 257.326 28.7578V31ZM264.784 23.7402H266.575V24.8066C266.808 24.4421 267.122 24.1458 267.519 23.918C267.915 23.6901 268.355 23.5762 268.838 23.5762C269.681 23.5762 270.396 23.9066 270.984 24.5674C271.572 25.2282 271.866 26.1488 271.866 27.3291C271.866 28.5413 271.57 29.4847 270.978 30.1592C270.385 30.8291 269.667 31.1641 268.824 31.1641C268.423 31.1641 268.059 31.0843 267.73 30.9248C267.407 30.7653 267.065 30.4919 266.705 30.1045V33.7617H264.784V23.7402ZM266.685 27.2471C266.685 28.0628 266.846 28.6667 267.17 29.0586C267.493 29.446 267.888 29.6396 268.353 29.6396C268.799 29.6396 269.171 29.4619 269.467 29.1064C269.763 28.7464 269.911 28.1585 269.911 27.3428C269.911 26.5817 269.758 26.0166 269.453 25.6475C269.148 25.2783 268.77 25.0938 268.318 25.0938C267.849 25.0938 267.459 25.276 267.149 25.6406C266.84 26.0007 266.685 26.5361 266.685 27.2471ZM275.236 31H273.315V23.7402H275.1V24.7725C275.405 24.2848 275.678 23.9635 275.92 23.8086C276.166 23.6536 276.444 23.5762 276.754 23.5762C277.191 23.5762 277.613 23.6969 278.019 23.9385L277.424 25.6133C277.1 25.4036 276.799 25.2988 276.521 25.2988C276.253 25.2988 276.025 25.374 275.838 25.5244C275.651 25.6702 275.503 25.9368 275.394 26.3242C275.289 26.7116 275.236 27.5228 275.236 28.7578V31ZM278.853 22.7559V20.9785H280.773V22.7559H278.853ZM278.853 31V23.7402H280.773V31H278.853ZM282.605 23.7402H284.376V24.7314C285.009 23.9613 285.764 23.5762 286.639 23.5762C287.104 23.5762 287.507 23.6719 287.849 23.8633C288.19 24.0547 288.471 24.3441 288.689 24.7314C289.008 24.3441 289.353 24.0547 289.722 23.8633C290.091 23.6719 290.485 23.5762 290.904 23.5762C291.438 23.5762 291.889 23.6855 292.258 23.9043C292.627 24.1185 292.903 24.4352 293.085 24.8545C293.217 25.1644 293.283 25.6657 293.283 26.3584V31H291.362V26.8506C291.362 26.1305 291.296 25.6657 291.164 25.4561C290.986 25.1826 290.713 25.0459 290.344 25.0459C290.075 25.0459 289.822 25.1279 289.585 25.292C289.348 25.4561 289.177 25.6976 289.072 26.0166C288.967 26.3311 288.915 26.8301 288.915 27.5137V31H286.994V27.0215C286.994 26.3151 286.96 25.8594 286.892 25.6543C286.823 25.4492 286.716 25.2965 286.57 25.1963C286.429 25.096 286.235 25.0459 285.989 25.0459C285.693 25.0459 285.426 25.1257 285.189 25.2852C284.952 25.4447 284.782 25.6748 284.677 25.9756C284.576 26.2764 284.526 26.7754 284.526 27.4727V31H282.605V23.7402ZM295.204 22.7559V20.9785H297.125V22.7559H295.204ZM295.204 31V23.7402H297.125V31H295.204ZM302.43 23.7402V25.2715H301.117V28.1973C301.117 28.7897 301.129 29.1361 301.151 29.2363C301.179 29.332 301.236 29.4118 301.322 29.4756C301.413 29.5394 301.523 29.5713 301.65 29.5713C301.828 29.5713 302.086 29.5098 302.423 29.3867L302.587 30.877C302.14 31.0684 301.634 31.1641 301.069 31.1641C300.723 31.1641 300.411 31.1071 300.133 30.9932C299.855 30.8747 299.65 30.7243 299.518 30.542C299.39 30.3551 299.301 30.1045 299.251 29.79C299.21 29.5667 299.189 29.1156 299.189 28.4365V25.2715H298.308V23.7402H299.189V22.2979L301.117 21.1768V23.7402H302.43ZM303.763 22.7559V20.9785H305.684V22.7559H303.763ZM303.763 31V23.7402H305.684V31H303.763ZM309.655 31L306.729 23.7402H308.746L310.113 27.4453L310.51 28.6826C310.615 28.3682 310.681 28.1608 310.708 28.0605C310.772 27.8555 310.84 27.6504 310.913 27.4453L312.294 23.7402H314.27L311.385 31H309.655ZM319.656 28.6895L321.57 29.0107C321.324 29.7126 320.935 30.248 320.401 30.6172C319.873 30.9818 319.21 31.1641 318.412 31.1641C317.15 31.1641 316.215 30.7516 315.609 29.9268C315.131 29.266 314.892 28.432 314.892 27.4248C314.892 26.2217 315.206 25.2806 315.835 24.6016C316.464 23.918 317.259 23.5762 318.221 23.5762C319.301 23.5762 320.153 23.9339 320.777 24.6494C321.402 25.3604 321.7 26.4518 321.673 27.9238H316.86C316.874 28.4935 317.029 28.9378 317.325 29.2568C317.621 29.5713 317.991 29.7285 318.433 29.7285C318.733 29.7285 318.986 29.6465 319.191 29.4824C319.396 29.3184 319.551 29.054 319.656 28.6895ZM319.766 26.748C319.752 26.1921 319.608 25.7705 319.335 25.4834C319.062 25.1917 318.729 25.0459 318.337 25.0459C317.918 25.0459 317.571 25.1986 317.298 25.5039C317.024 25.8092 316.89 26.224 316.895 26.748H319.766Z" fill="#201F1F"/>
<path d="M433.431 27.3154L435.393 27.9375C435.092 29.0312 434.59 29.8447 433.889 30.3779C433.191 30.9066 432.305 31.1709 431.229 31.1709C429.899 31.1709 428.805 30.7174 427.948 29.8105C427.091 28.8991 426.663 27.6549 426.663 26.0781C426.663 24.4102 427.094 23.1159 427.955 22.1953C428.816 21.2702 429.949 20.8076 431.353 20.8076C432.578 20.8076 433.574 21.1699 434.34 21.8945C434.796 22.3229 435.137 22.9382 435.365 23.7402L433.362 24.2188C433.244 23.6992 432.995 23.2891 432.617 22.9883C432.243 22.6875 431.788 22.5371 431.25 22.5371C430.507 22.5371 429.903 22.8037 429.438 23.3369C428.978 23.8701 428.748 24.7337 428.748 25.9277C428.748 27.1947 428.976 28.097 429.432 28.6348C429.887 29.1725 430.48 29.4414 431.209 29.4414C431.747 29.4414 432.209 29.2705 432.597 28.9287C432.984 28.5869 433.262 28.0492 433.431 27.3154ZM436.678 27.2676C436.678 26.6296 436.835 26.012 437.149 25.415C437.464 24.818 437.908 24.3623 438.482 24.0479C439.061 23.7334 439.706 23.5762 440.417 23.5762C441.515 23.5762 442.415 23.9339 443.117 24.6494C443.819 25.3604 444.17 26.2604 444.17 27.3496C444.17 28.4479 443.814 29.3594 443.104 30.084C442.397 30.804 441.506 31.1641 440.431 31.1641C439.765 31.1641 439.13 31.0137 438.523 30.7129C437.922 30.4121 437.464 29.9723 437.149 29.3936C436.835 28.8102 436.678 28.1016 436.678 27.2676ZM438.646 27.3701C438.646 28.0902 438.817 28.6416 439.159 29.0244C439.501 29.4072 439.923 29.5986 440.424 29.5986C440.925 29.5986 441.344 29.4072 441.682 29.0244C442.023 28.6416 442.194 28.0856 442.194 27.3564C442.194 26.6455 442.023 26.0986 441.682 25.7158C441.344 25.333 440.925 25.1416 440.424 25.1416C439.923 25.1416 439.501 25.333 439.159 25.7158C438.817 26.0986 438.646 26.6501 438.646 27.3701ZM450.459 31V29.9131C450.195 30.3005 449.846 30.6058 449.413 30.8291C448.985 31.0524 448.531 31.1641 448.053 31.1641C447.565 31.1641 447.128 31.057 446.74 30.8428C446.353 30.6286 446.073 30.3278 445.899 29.9404C445.726 29.5531 445.64 29.0176 445.64 28.334V23.7402H447.561V27.0762C447.561 28.097 447.595 28.7236 447.663 28.9561C447.736 29.1839 447.866 29.3662 448.053 29.5029C448.24 29.6351 448.477 29.7012 448.764 29.7012C449.092 29.7012 449.386 29.6123 449.646 29.4346C449.905 29.2523 450.083 29.029 450.179 28.7646C450.274 28.4958 450.322 27.8418 450.322 26.8027V23.7402H452.243V31H450.459ZM454.239 31V20.9785H456.16V31H454.239ZM462.34 28.6895L464.254 29.0107C464.008 29.7126 463.618 30.248 463.085 30.6172C462.556 30.9818 461.893 31.1641 461.096 31.1641C459.833 31.1641 458.899 30.7516 458.293 29.9268C457.814 29.266 457.575 28.432 457.575 27.4248C457.575 26.2217 457.89 25.2806 458.519 24.6016C459.147 23.918 459.943 23.5762 460.904 23.5762C461.984 23.5762 462.837 23.9339 463.461 24.6494C464.085 25.3604 464.384 26.4518 464.356 27.9238H459.544C459.558 28.4935 459.713 28.9378 460.009 29.2568C460.305 29.5713 460.674 29.7285 461.116 29.7285C461.417 29.7285 461.67 29.6465 461.875 29.4824C462.08 29.3184 462.235 29.054 462.34 28.6895ZM462.449 26.748C462.436 26.1921 462.292 25.7705 462.019 25.4834C461.745 25.1917 461.412 25.0459 461.021 25.0459C460.601 25.0459 460.255 25.1986 459.981 25.5039C459.708 25.8092 459.574 26.224 459.578 26.748H462.449ZM470.707 31V29.9131C470.443 30.3005 470.094 30.6058 469.661 30.8291C469.233 31.0524 468.779 31.1641 468.301 31.1641C467.813 31.1641 467.376 31.057 466.988 30.8428C466.601 30.6286 466.321 30.3278 466.147 29.9404C465.974 29.5531 465.888 29.0176 465.888 28.334V23.7402H467.809V27.0762C467.809 28.097 467.843 28.7236 467.911 28.9561C467.984 29.1839 468.114 29.3662 468.301 29.5029C468.488 29.6351 468.725 29.7012 469.012 29.7012C469.34 29.7012 469.634 29.6123 469.894 29.4346C470.153 29.2523 470.331 29.029 470.427 28.7646C470.522 28.4958 470.57 27.8418 470.57 26.8027V23.7402H472.491V31H470.707ZM476.326 31H474.405V23.7402H476.189V24.7725C476.495 24.2848 476.768 23.9635 477.01 23.8086C477.256 23.6536 477.534 23.5762 477.844 23.5762C478.281 23.5762 478.703 23.6969 479.108 23.9385L478.514 25.6133C478.19 25.4036 477.889 25.2988 477.611 25.2988C477.342 25.2988 477.115 25.374 476.928 25.5244C476.741 25.6702 476.593 25.9368 476.483 26.3242C476.379 26.7116 476.326 27.5228 476.326 28.7578V31ZM483.162 28.9287L485.09 28.6348C485.172 29.0085 485.338 29.2933 485.589 29.4893C485.84 29.6807 486.19 29.7764 486.642 29.7764C487.138 29.7764 487.512 29.6852 487.763 29.5029C487.931 29.3753 488.016 29.2044 488.016 28.9902C488.016 28.8444 487.97 28.7236 487.879 28.6279C487.783 28.5368 487.569 28.4525 487.236 28.375C485.687 28.0332 484.705 27.721 484.29 27.4385C483.716 27.0465 483.429 26.502 483.429 25.8047C483.429 25.1758 483.677 24.6471 484.174 24.2188C484.671 23.7904 485.441 23.5762 486.484 23.5762C487.478 23.5762 488.216 23.738 488.699 24.0615C489.182 24.3851 489.515 24.8636 489.697 25.4971L487.886 25.832C487.808 25.5495 487.66 25.333 487.441 25.1826C487.227 25.0322 486.92 24.957 486.519 24.957C486.013 24.957 485.65 25.0277 485.432 25.1689C485.286 25.2692 485.213 25.3991 485.213 25.5586C485.213 25.6953 485.277 25.8115 485.404 25.9072C485.577 26.0348 486.174 26.2148 487.195 26.4473C488.221 26.6797 488.936 26.9645 489.342 27.3018C489.743 27.6436 489.943 28.1198 489.943 28.7305C489.943 29.3958 489.665 29.9678 489.109 30.4463C488.553 30.9248 487.731 31.1641 486.642 31.1641C485.653 31.1641 484.869 30.9635 484.29 30.5625C483.716 30.1615 483.34 29.6169 483.162 28.9287ZM495.836 28.6895L497.75 29.0107C497.504 29.7126 497.114 30.248 496.581 30.6172C496.052 30.9818 495.389 31.1641 494.592 31.1641C493.329 31.1641 492.395 30.7516 491.789 29.9268C491.311 29.266 491.071 28.432 491.071 27.4248C491.071 26.2217 491.386 25.2806 492.015 24.6016C492.644 23.918 493.439 23.5762 494.4 23.5762C495.48 23.5762 496.333 23.9339 496.957 24.6494C497.581 25.3604 497.88 26.4518 497.853 27.9238H493.04C493.054 28.4935 493.209 28.9378 493.505 29.2568C493.801 29.5713 494.17 29.7285 494.612 29.7285C494.913 29.7285 495.166 29.6465 495.371 29.4824C495.576 29.3184 495.731 29.054 495.836 28.6895ZM495.945 26.748C495.932 26.1921 495.788 25.7705 495.515 25.4834C495.241 25.1917 494.909 25.0459 494.517 25.0459C494.097 25.0459 493.751 25.1986 493.478 25.5039C493.204 25.8092 493.07 26.224 493.074 26.748H495.945ZM493.491 22.8516L494.435 20.8076H496.588L494.708 22.8516H493.491ZM499.281 23.7402H501.052V24.7314C501.685 23.9613 502.439 23.5762 503.314 23.5762C503.779 23.5762 504.183 23.6719 504.524 23.8633C504.866 24.0547 505.146 24.3441 505.365 24.7314C505.684 24.3441 506.028 24.0547 506.397 23.8633C506.767 23.6719 507.161 23.5762 507.58 23.5762C508.113 23.5762 508.564 23.6855 508.934 23.9043C509.303 24.1185 509.578 24.4352 509.761 24.8545C509.893 25.1644 509.959 25.6657 509.959 26.3584V31H508.038V26.8506C508.038 26.1305 507.972 25.6657 507.84 25.4561C507.662 25.1826 507.389 25.0459 507.02 25.0459C506.751 25.0459 506.498 25.1279 506.261 25.292C506.024 25.4561 505.853 25.6976 505.748 26.0166C505.643 26.3311 505.591 26.8301 505.591 27.5137V31H503.67V27.0215C503.67 26.3151 503.636 25.8594 503.567 25.6543C503.499 25.4492 503.392 25.2965 503.246 25.1963C503.105 25.096 502.911 25.0459 502.665 25.0459C502.369 25.0459 502.102 25.1257 501.865 25.2852C501.628 25.4447 501.457 25.6748 501.353 25.9756C501.252 26.2764 501.202 26.7754 501.202 27.4727V31H499.281V23.7402ZM513.315 25.9551L511.572 25.6406C511.768 24.9388 512.105 24.4193 512.584 24.082C513.062 23.7448 513.773 23.5762 514.717 23.5762C515.574 23.5762 516.212 23.6787 516.631 23.8838C517.05 24.0843 517.344 24.3418 517.513 24.6562C517.686 24.9661 517.772 25.5381 517.772 26.3721L517.752 28.6143C517.752 29.2523 517.782 29.724 517.841 30.0293C517.905 30.3301 518.021 30.6536 518.189 31H516.289C516.239 30.8724 516.177 30.6833 516.104 30.4326C516.073 30.3187 516.05 30.2435 516.036 30.207C515.708 30.526 515.357 30.7653 514.983 30.9248C514.61 31.0843 514.211 31.1641 513.787 31.1641C513.04 31.1641 512.45 30.9613 512.017 30.5557C511.588 30.1501 511.374 29.6374 511.374 29.0176C511.374 28.6074 511.472 28.2428 511.668 27.9238C511.864 27.6003 512.137 27.3542 512.488 27.1855C512.844 27.0124 513.354 26.862 514.02 26.7344C514.917 26.5658 515.539 26.4085 515.886 26.2627V26.0713C515.886 25.7021 515.795 25.4401 515.612 25.2852C515.43 25.1257 515.086 25.0459 514.58 25.0459C514.238 25.0459 513.972 25.1143 513.78 25.251C513.589 25.3831 513.434 25.6178 513.315 25.9551ZM515.886 27.5137C515.64 27.5957 515.25 27.6937 514.717 27.8076C514.184 27.9215 513.835 28.0332 513.671 28.1426C513.42 28.3203 513.295 28.5459 513.295 28.8193C513.295 29.0882 513.395 29.3206 513.596 29.5166C513.796 29.7126 514.051 29.8105 514.361 29.8105C514.708 29.8105 515.038 29.6966 515.353 29.4688C515.585 29.2956 515.738 29.0837 515.811 28.833C515.861 28.6689 515.886 28.3568 515.886 27.8965V27.5137ZM526.276 31H524.355V27.2949C524.355 26.5111 524.314 26.0052 524.232 25.7773C524.15 25.5449 524.016 25.3649 523.829 25.2373C523.647 25.1097 523.426 25.0459 523.166 25.0459C522.833 25.0459 522.535 25.137 522.271 25.3193C522.006 25.5016 521.824 25.7432 521.724 26.0439C521.628 26.3447 521.58 26.9007 521.58 27.7119V31H519.659V23.7402H521.443V24.8066C522.077 23.9863 522.874 23.5762 523.836 23.5762C524.26 23.5762 524.647 23.6536 524.998 23.8086C525.349 23.959 525.613 24.1527 525.791 24.3896C525.973 24.6266 526.099 24.8955 526.167 25.1963C526.24 25.4971 526.276 25.9277 526.276 26.4883V31ZM531.561 23.7402V25.2715H530.248V28.1973C530.248 28.7897 530.259 29.1361 530.282 29.2363C530.31 29.332 530.367 29.4118 530.453 29.4756C530.544 29.5394 530.654 29.5713 530.781 29.5713C530.959 29.5713 531.216 29.5098 531.554 29.3867L531.718 30.877C531.271 31.0684 530.765 31.1641 530.2 31.1641C529.854 31.1641 529.542 31.1071 529.264 30.9932C528.986 30.8747 528.781 30.7243 528.648 30.542C528.521 30.3551 528.432 30.1045 528.382 29.79C528.341 29.5667 528.32 29.1156 528.32 28.4365V25.2715H527.438V23.7402H528.32V22.2979L530.248 21.1768V23.7402H531.561ZM532.894 22.7559V20.9785H534.814V22.7559H532.894ZM532.894 31V23.7402H534.814V31H532.894ZM541.534 33.7617V30.1113C541.284 30.4349 540.971 30.6924 540.598 30.8838C540.224 31.0706 539.821 31.1641 539.388 31.1641C538.563 31.1641 537.884 30.8542 537.351 30.2344C536.722 29.5098 536.407 28.5277 536.407 27.2881C536.407 26.1214 536.701 25.2122 537.289 24.5605C537.882 23.9043 538.615 23.5762 539.49 23.5762C539.973 23.5762 540.39 23.6787 540.741 23.8838C541.097 24.0889 541.411 24.3988 541.685 24.8135V23.7402H543.455V33.7617H541.534ZM541.596 27.2812C541.596 26.5384 541.443 25.987 541.138 25.627C540.837 25.2624 540.459 25.0801 540.003 25.0801C539.538 25.0801 539.148 25.2646 538.834 25.6338C538.524 26.0029 538.369 26.5885 538.369 27.3906C538.369 28.1882 538.52 28.7646 538.82 29.1201C539.121 29.471 539.493 29.6465 539.935 29.6465C540.377 29.6465 540.764 29.4482 541.097 29.0518C541.429 28.6553 541.596 28.0651 541.596 27.2812ZM550.127 31V29.9131C549.863 30.3005 549.514 30.6058 549.081 30.8291C548.653 31.0524 548.199 31.1641 547.721 31.1641C547.233 31.1641 546.796 31.057 546.408 30.8428C546.021 30.6286 545.741 30.3278 545.567 29.9404C545.394 29.5531 545.308 29.0176 545.308 28.334V23.7402H547.229V27.0762C547.229 28.097 547.263 28.7236 547.331 28.9561C547.404 29.1839 547.534 29.3662 547.721 29.5029C547.908 29.6351 548.145 29.7012 548.432 29.7012C548.76 29.7012 549.054 29.6123 549.313 29.4346C549.573 29.2523 549.751 29.029 549.847 28.7646C549.942 28.4958 549.99 27.8418 549.99 26.8027V23.7402H551.911V31H550.127ZM558.111 28.6895L560.025 29.0107C559.779 29.7126 559.39 30.248 558.856 30.6172C558.328 30.9818 557.665 31.1641 556.867 31.1641C555.605 31.1641 554.671 30.7516 554.064 29.9268C553.586 29.266 553.347 28.432 553.347 27.4248C553.347 26.2217 553.661 25.2806 554.29 24.6016C554.919 23.918 555.714 23.5762 556.676 23.5762C557.756 23.5762 558.608 23.9339 559.232 24.6494C559.857 25.3604 560.155 26.4518 560.128 27.9238H555.315C555.329 28.4935 555.484 28.9378 555.78 29.2568C556.076 29.5713 556.446 29.7285 556.888 29.7285C557.188 29.7285 557.441 29.6465 557.646 29.4824C557.852 29.3184 558.007 29.054 558.111 28.6895ZM558.221 26.748C558.207 26.1921 558.063 25.7705 557.79 25.4834C557.517 25.1917 557.184 25.0459 556.792 25.0459C556.373 25.0459 556.026 25.1986 555.753 25.5039C555.479 25.8092 555.345 26.224 555.35 26.748H558.221Z" fill="#201F1F"/>
<path d="M666.431 27.3154L668.393 27.9375C668.092 29.0312 667.59 29.8447 666.889 30.3779C666.191 30.9066 665.305 31.1709 664.229 31.1709C662.899 31.1709 661.805 30.7174 660.948 29.8105C660.091 28.8991 659.663 27.6549 659.663 26.0781C659.663 24.4102 660.094 23.1159 660.955 22.1953C661.816 21.2702 662.949 20.8076 664.353 20.8076C665.578 20.8076 666.574 21.1699 667.34 21.8945C667.796 22.3229 668.137 22.9382 668.365 23.7402L666.362 24.2188C666.244 23.6992 665.995 23.2891 665.617 22.9883C665.243 22.6875 664.788 22.5371 664.25 22.5371C663.507 22.5371 662.903 22.8037 662.438 23.3369C661.978 23.8701 661.748 24.7337 661.748 25.9277C661.748 27.1947 661.976 28.097 662.432 28.6348C662.887 29.1725 663.48 29.4414 664.209 29.4414C664.747 29.4414 665.209 29.2705 665.597 28.9287C665.984 28.5869 666.262 28.0492 666.431 27.3154ZM669.678 27.2676C669.678 26.6296 669.835 26.012 670.149 25.415C670.464 24.818 670.908 24.3623 671.482 24.0479C672.061 23.7334 672.706 23.5762 673.417 23.5762C674.515 23.5762 675.415 23.9339 676.117 24.6494C676.819 25.3604 677.17 26.2604 677.17 27.3496C677.17 28.4479 676.814 29.3594 676.104 30.084C675.397 30.804 674.506 31.1641 673.431 31.1641C672.765 31.1641 672.13 31.0137 671.523 30.7129C670.922 30.4121 670.464 29.9723 670.149 29.3936C669.835 28.8102 669.678 28.1016 669.678 27.2676ZM671.646 27.3701C671.646 28.0902 671.817 28.6416 672.159 29.0244C672.501 29.4072 672.923 29.5986 673.424 29.5986C673.925 29.5986 674.344 29.4072 674.682 29.0244C675.023 28.6416 675.194 28.0856 675.194 27.3564C675.194 26.6455 675.023 26.0986 674.682 25.7158C674.344 25.333 673.925 25.1416 673.424 25.1416C672.923 25.1416 672.501 25.333 672.159 25.7158C671.817 26.0986 671.646 26.6501 671.646 27.3701ZM678.537 23.7402H680.308V24.7314C680.941 23.9613 681.695 23.5762 682.57 23.5762C683.035 23.5762 683.438 23.6719 683.78 23.8633C684.122 24.0547 684.402 24.3441 684.621 24.7314C684.94 24.3441 685.284 24.0547 685.653 23.8633C686.022 23.6719 686.417 23.5762 686.836 23.5762C687.369 23.5762 687.82 23.6855 688.189 23.9043C688.559 24.1185 688.834 24.4352 689.017 24.8545C689.149 25.1644 689.215 25.6657 689.215 26.3584V31H687.294V26.8506C687.294 26.1305 687.228 25.6657 687.096 25.4561C686.918 25.1826 686.645 25.0459 686.275 25.0459C686.007 25.0459 685.754 25.1279 685.517 25.292C685.28 25.4561 685.109 25.6976 685.004 26.0166C684.899 26.3311 684.847 26.8301 684.847 27.5137V31H682.926V27.0215C682.926 26.3151 682.892 25.8594 682.823 25.6543C682.755 25.4492 682.648 25.2965 682.502 25.1963C682.361 25.096 682.167 25.0459 681.921 25.0459C681.625 25.0459 681.358 25.1257 681.121 25.2852C680.884 25.4447 680.713 25.6748 680.608 25.9756C680.508 26.2764 680.458 26.7754 680.458 27.4727V31H678.537V23.7402ZM691.081 23.7402H692.872V24.8066C693.104 24.4421 693.419 24.1458 693.815 23.918C694.212 23.6901 694.652 23.5762 695.135 23.5762C695.978 23.5762 696.693 23.9066 697.281 24.5674C697.869 25.2282 698.163 26.1488 698.163 27.3291C698.163 28.5413 697.867 29.4847 697.274 30.1592C696.682 30.8291 695.964 31.1641 695.121 31.1641C694.72 31.1641 694.355 31.0843 694.027 30.9248C693.704 30.7653 693.362 30.4919 693.002 30.1045V33.7617H691.081V23.7402ZM692.981 27.2471C692.981 28.0628 693.143 28.6667 693.467 29.0586C693.79 29.446 694.185 29.6396 694.649 29.6396C695.096 29.6396 695.467 29.4619 695.764 29.1064C696.06 28.7464 696.208 28.1585 696.208 27.3428C696.208 26.5817 696.055 26.0166 695.75 25.6475C695.445 25.2783 695.066 25.0938 694.615 25.0938C694.146 25.0938 693.756 25.276 693.446 25.6406C693.136 26.0007 692.981 26.5361 692.981 27.2471ZM699.25 27.2676C699.25 26.6296 699.407 26.012 699.722 25.415C700.036 24.818 700.48 24.3623 701.055 24.0479C701.633 23.7334 702.278 23.5762 702.989 23.5762C704.088 23.5762 704.988 23.9339 705.689 24.6494C706.391 25.3604 706.742 26.2604 706.742 27.3496C706.742 28.4479 706.387 29.3594 705.676 30.084C704.969 30.804 704.078 31.1641 703.003 31.1641C702.338 31.1641 701.702 31.0137 701.096 30.7129C700.494 30.4121 700.036 29.9723 699.722 29.3936C699.407 28.8102 699.25 28.1016 699.25 27.2676ZM701.219 27.3701C701.219 28.0902 701.39 28.6416 701.731 29.0244C702.073 29.4072 702.495 29.5986 702.996 29.5986C703.497 29.5986 703.917 29.4072 704.254 29.0244C704.596 28.6416 704.767 28.0856 704.767 27.3564C704.767 26.6455 704.596 26.0986 704.254 25.7158C703.917 25.333 703.497 25.1416 702.996 25.1416C702.495 25.1416 702.073 25.333 701.731 25.7158C701.39 26.0986 701.219 26.6501 701.219 27.3701ZM707.576 28.9287L709.504 28.6348C709.586 29.0085 709.752 29.2933 710.003 29.4893C710.254 29.6807 710.604 29.7764 711.056 29.7764C711.552 29.7764 711.926 29.6852 712.177 29.5029C712.345 29.3753 712.43 29.2044 712.43 28.9902C712.43 28.8444 712.384 28.7236 712.293 28.6279C712.197 28.5368 711.983 28.4525 711.65 28.375C710.101 28.0332 709.119 27.721 708.704 27.4385C708.13 27.0465 707.843 26.502 707.843 25.8047C707.843 25.1758 708.091 24.6471 708.588 24.2188C709.085 23.7904 709.855 23.5762 710.898 23.5762C711.892 23.5762 712.63 23.738 713.113 24.0615C713.596 24.3851 713.929 24.8636 714.111 25.4971L712.3 25.832C712.222 25.5495 712.074 25.333 711.855 25.1826C711.641 25.0322 711.334 24.957 710.933 24.957C710.427 24.957 710.064 25.0277 709.846 25.1689C709.7 25.2692 709.627 25.3991 709.627 25.5586C709.627 25.6953 709.691 25.8115 709.818 25.9072C709.992 26.0348 710.589 26.2148 711.609 26.4473C712.635 26.6797 713.35 26.9645 713.756 27.3018C714.157 27.6436 714.357 28.1198 714.357 28.7305C714.357 29.3958 714.079 29.9678 713.523 30.4463C712.967 30.9248 712.145 31.1641 711.056 31.1641C710.067 31.1641 709.283 30.9635 708.704 30.5625C708.13 30.1615 707.754 29.6169 707.576 28.9287ZM717.481 25.9551L715.738 25.6406C715.934 24.9388 716.271 24.4193 716.75 24.082C717.229 23.7448 717.939 23.5762 718.883 23.5762C719.74 23.5762 720.378 23.6787 720.797 23.8838C721.216 24.0843 721.51 24.3418 721.679 24.6562C721.852 24.9661 721.938 25.5381 721.938 26.3721L721.918 28.6143C721.918 29.2523 721.948 29.724 722.007 30.0293C722.071 30.3301 722.187 30.6536 722.355 31H720.455C720.405 30.8724 720.343 30.6833 720.271 30.4326C720.239 30.3187 720.216 30.2435 720.202 30.207C719.874 30.526 719.523 30.7653 719.149 30.9248C718.776 31.0843 718.377 31.1641 717.953 31.1641C717.206 31.1641 716.616 30.9613 716.183 30.5557C715.754 30.1501 715.54 29.6374 715.54 29.0176C715.54 28.6074 715.638 28.2428 715.834 27.9238C716.03 27.6003 716.303 27.3542 716.654 27.1855C717.01 27.0124 717.52 26.862 718.186 26.7344C719.083 26.5658 719.705 26.4085 720.052 26.2627V26.0713C720.052 25.7021 719.961 25.4401 719.778 25.2852C719.596 25.1257 719.252 25.0459 718.746 25.0459C718.404 25.0459 718.138 25.1143 717.946 25.251C717.755 25.3831 717.6 25.6178 717.481 25.9551ZM720.052 27.5137C719.806 27.5957 719.416 27.6937 718.883 27.8076C718.35 27.9215 718.001 28.0332 717.837 28.1426C717.586 28.3203 717.461 28.5459 717.461 28.8193C717.461 29.0882 717.561 29.3206 717.762 29.5166C717.962 29.7126 718.217 29.8105 718.527 29.8105C718.874 29.8105 719.204 29.6966 719.519 29.4688C719.751 29.2956 719.904 29.0837 719.977 28.833C720.027 28.6689 720.052 28.3568 720.052 27.8965V27.5137ZM730.442 31H728.521V27.2949C728.521 26.5111 728.48 26.0052 728.398 25.7773C728.316 25.5449 728.182 25.3649 727.995 25.2373C727.813 25.1097 727.592 25.0459 727.332 25.0459C726.999 25.0459 726.701 25.137 726.437 25.3193C726.172 25.5016 725.99 25.7432 725.89 26.0439C725.794 26.3447 725.746 26.9007 725.746 27.7119V31H723.825V23.7402H725.609V24.8066C726.243 23.9863 727.04 23.5762 728.002 23.5762C728.426 23.5762 728.813 23.6536 729.164 23.8086C729.515 23.959 729.779 24.1527 729.957 24.3896C730.139 24.6266 730.265 24.8955 730.333 25.1963C730.406 25.4971 730.442 25.9277 730.442 26.4883V31ZM735.727 23.7402V25.2715H734.414V28.1973C734.414 28.7897 734.425 29.1361 734.448 29.2363C734.476 29.332 734.533 29.4118 734.619 29.4756C734.71 29.5394 734.82 29.5713 734.947 29.5713C735.125 29.5713 735.382 29.5098 735.72 29.3867L735.884 30.877C735.437 31.0684 734.931 31.1641 734.366 31.1641C734.02 31.1641 733.708 31.1071 733.43 30.9932C733.152 30.8747 732.947 30.7243 732.814 30.542C732.687 30.3551 732.598 30.1045 732.548 29.79C732.507 29.5667 732.486 29.1156 732.486 28.4365V25.2715H731.604V23.7402H732.486V22.2979L734.414 21.1768V23.7402H735.727Z" fill="#201F1F"/>
<path d="M24 52.5H1135C1139.14 52.5 1142.5 55.8579 1142.5 60V120C1142.5 124.142 1139.14 127.5 1135 127.5H24C19.8579 127.5 16.5 124.142 16.5 120V60L16.5098 59.6143C16.7105 55.6514 19.9872 52.5 24 52.5Z" fill="white"/>
<path d="M24 52.5H1135C1139.14 52.5 1142.5 55.8579 1142.5 60V120C1142.5 124.142 1139.14 127.5 1135 127.5H24C19.8579 127.5 16.5 124.142 16.5 120V60L16.5098 59.6143C16.7105 55.6514 19.9872 52.5 24 52.5Z" stroke="#A1A1A0"/>
<g clip-path="url(#clip0_41_6825)">
<mask id="path-7-inside-1_41_6825" fill="white">
<path d="M32 90C32 78.9543 40.9543 70 52 70H117C128.046 70 137 78.9543 137 90C137 101.046 128.046 110 117 110H52C40.9543 110 32 101.046 32 90Z"/>
</mask>
<path d="M32 90C32 78.9543 40.9543 70 52 70H117C128.046 70 137 78.9543 137 90C137 101.046 128.046 110 117 110H52C40.9543 110 32 101.046 32 90Z" fill="white"/>
<path d="M52 70V71H117V70V69H52V70ZM117 110V109H52V110V111H117V110ZM52 110V109C41.5066 109 33 100.493 33 90H32H31C31 101.598 40.402 111 52 111V110ZM137 90H136C136 100.493 127.493 109 117 109V110V111C128.598 111 138 101.598 138 90H137ZM117 70V71C127.493 71 136 79.5066 136 90H137H138C138 78.402 128.598 69 117 69V70ZM52 70V69C40.402 69 31 78.402 31 90H32H33C33 79.5066 41.5066 71 52 71V70Z" fill="#A1A1A0" mask="url(#path-7-inside-1_41_6825)"/>
<circle cx="56" cy="90" r="12" fill="#2964A0"/>
<path d="M76.6035 94.1465L77.1133 91.6504H76.123V90.7773H77.2891L77.7227 88.6504H76.123V87.7773H77.8984L78.4082 85.2637H79.2871L78.7773 87.7773H80.623L81.1328 85.2637H82.0176L81.5078 87.7773H82.5215V88.6504H81.332L80.8926 90.7773H82.5215V91.6504H80.7168L80.207 94.1465H79.3281L79.832 91.6504H77.9922L77.4824 94.1465H76.6035ZM78.168 90.7773H80.0078L80.4473 88.6504H78.6016L78.168 90.7773ZM88.7207 92.9863V94H83.043C83.0352 93.7461 83.0762 93.502 83.166 93.2676C83.3105 92.8809 83.541 92.5 83.8574 92.125C84.1777 91.75 84.6387 91.3164 85.2402 90.8242C86.1738 90.0586 86.8047 89.4531 87.1328 89.0078C87.4609 88.5586 87.625 88.1348 87.625 87.7363C87.625 87.3184 87.4746 86.9668 87.1738 86.6816C86.877 86.3926 86.4883 86.248 86.0078 86.248C85.5 86.248 85.0938 86.4004 84.7891 86.7051C84.4844 87.0098 84.3301 87.4316 84.3262 87.9707L83.2422 87.8594C83.3164 87.0508 83.5957 86.4355 84.0801 86.0137C84.5645 85.5879 85.2148 85.375 86.0312 85.375C86.8555 85.375 87.5078 85.6035 87.9883 86.0605C88.4688 86.5176 88.709 87.084 88.709 87.7598C88.709 88.1035 88.6387 88.4414 88.498 88.7734C88.3574 89.1055 88.123 89.4551 87.7949 89.8223C87.4707 90.1895 86.9297 90.6934 86.1719 91.334C85.5391 91.8652 85.1328 92.2266 84.9531 92.418C84.7734 92.6055 84.625 92.7949 84.5078 92.9863H88.7207ZM90.0156 92.0137L91.0293 91.9199C91.1152 92.3965 91.2793 92.7422 91.5215 92.957C91.7637 93.1719 92.0742 93.2793 92.4531 93.2793C92.7773 93.2793 93.0605 93.2051 93.3027 93.0566C93.5488 92.9082 93.75 92.7109 93.9062 92.4648C94.0625 92.2148 94.1934 91.8789 94.2988 91.457C94.4043 91.0352 94.457 90.6055 94.457 90.168C94.457 90.1211 94.4551 90.0508 94.4512 89.957C94.2402 90.293 93.9512 90.5664 93.584 90.7773C93.2207 90.9844 92.8262 91.0879 92.4004 91.0879C91.6895 91.0879 91.0879 90.8301 90.5957 90.3145C90.1035 89.7988 89.8574 89.1191 89.8574 88.2754C89.8574 87.4043 90.1133 86.7031 90.625 86.1719C91.1406 85.6406 91.7852 85.375 92.5586 85.375C93.1172 85.375 93.627 85.5254 94.0879 85.8262C94.5527 86.127 94.9043 86.5566 95.1426 87.1152C95.3848 87.6699 95.5059 88.4746 95.5059 89.5293C95.5059 90.627 95.3867 91.502 95.1484 92.1543C94.9102 92.8027 94.5547 93.2969 94.082 93.6367C93.6133 93.9766 93.0625 94.1465 92.4297 94.1465C91.7578 94.1465 91.209 93.9609 90.7832 93.5898C90.3574 93.2148 90.1016 92.6895 90.0156 92.0137ZM94.334 88.2227C94.334 87.6172 94.1719 87.1367 93.8477 86.7812C93.5273 86.4258 93.1406 86.248 92.6875 86.248C92.2188 86.248 91.8105 86.4395 91.4629 86.8223C91.1152 87.2051 90.9414 87.7012 90.9414 88.3105C90.9414 88.8574 91.1055 89.3027 91.4336 89.6465C91.7656 89.9863 92.1738 90.1562 92.6582 90.1562C93.1465 90.1562 93.5469 89.9863 93.8594 89.6465C94.1758 89.3027 94.334 88.8281 94.334 88.2227ZM102.01 87.5137L100.961 87.5957C100.867 87.1816 100.734 86.8809 100.562 86.6934C100.277 86.3926 99.9258 86.2422 99.5078 86.2422C99.1719 86.2422 98.877 86.3359 98.623 86.5234C98.291 86.7656 98.0293 87.1191 97.8379 87.584C97.6465 88.0488 97.5469 88.7109 97.5391 89.5703C97.793 89.1836 98.1035 88.8965 98.4707 88.709C98.8379 88.5215 99.2227 88.4277 99.625 88.4277C100.328 88.4277 100.926 88.6875 101.418 89.207C101.914 89.7227 102.162 90.3906 102.162 91.2109C102.162 91.75 102.045 92.252 101.811 92.7168C101.58 93.1777 101.262 93.5312 100.855 93.7773C100.449 94.0234 99.9883 94.1465 99.4727 94.1465C98.5938 94.1465 97.877 93.8242 97.3223 93.1797C96.7676 92.5312 96.4902 91.4648 96.4902 89.9805C96.4902 88.3203 96.7969 87.1133 97.4102 86.3594C97.9453 85.7031 98.666 85.375 99.5723 85.375C100.248 85.375 100.801 85.5645 101.23 85.9434C101.664 86.3223 101.924 86.8457 102.01 87.5137ZM97.7031 91.2168C97.7031 91.5801 97.7793 91.9277 97.9316 92.2598C98.0879 92.5918 98.3047 92.8457 98.582 93.0215C98.8594 93.1934 99.1504 93.2793 99.4551 93.2793C99.9004 93.2793 100.283 93.0996 100.604 92.7402C100.924 92.3809 101.084 91.8926 101.084 91.2754C101.084 90.6816 100.926 90.2148 100.609 89.875C100.293 89.5312 99.8945 89.3594 99.4141 89.3594C98.9375 89.3594 98.5332 89.5312 98.2012 89.875C97.8691 90.2148 97.7031 90.6621 97.7031 91.2168ZM106.598 94V91.9434H102.871V90.9766L106.791 85.4102H107.652V90.9766H108.812V91.9434H107.652V94H106.598ZM106.598 90.9766V87.1035L103.908 90.9766H106.598ZM109.381 94L112.68 85.4102H113.904L117.42 94H116.125L115.123 91.3984H111.531L110.588 94H109.381ZM111.859 90.4727H114.771L113.875 88.0938C113.602 87.3711 113.398 86.7773 113.266 86.3125C113.156 86.8633 113.002 87.4102 112.803 87.9531L111.859 90.4727ZM117.9 89.7637C117.9 88.748 118.004 87.9316 118.211 87.3145C118.422 86.6934 118.732 86.2148 119.143 85.8789C119.557 85.543 120.076 85.375 120.701 85.375C121.162 85.375 121.566 85.4688 121.914 85.6562C122.262 85.8398 122.549 86.1074 122.775 86.459C123.002 86.8066 123.18 87.2324 123.309 87.7363C123.438 88.2363 123.502 88.9121 123.502 89.7637C123.502 90.7715 123.398 91.5859 123.191 92.207C122.984 92.8242 122.674 93.3027 122.26 93.6426C121.85 93.9785 121.33 94.1465 120.701 94.1465C119.873 94.1465 119.223 93.8496 118.75 93.2559C118.184 92.541 117.9 91.377 117.9 89.7637ZM118.984 89.7637C118.984 91.1738 119.148 92.1133 119.477 92.582C119.809 93.0469 120.217 93.2793 120.701 93.2793C121.186 93.2793 121.592 93.0449 121.92 92.5762C122.252 92.1074 122.418 91.1699 122.418 89.7637C122.418 88.3496 122.252 87.4102 121.92 86.9453C121.592 86.4805 121.182 86.248 120.689 86.248C120.205 86.248 119.818 86.4531 119.529 86.8633C119.166 87.3867 118.984 88.3535 118.984 89.7637Z" fill="#3E3E3D"/>
</g>
<path d="M246.687 90.3536C246.882 90.1583 246.882 89.8417 246.687 89.6464L243.505 86.4645C243.31 86.2692 242.993 86.2692 242.798 86.4645C242.603 86.6597 242.603 86.9763 242.798 87.1716L245.626 90L242.798 92.8284C242.603 93.0237 242.603 93.3403 242.798 93.5355C242.993 93.7308 243.31 93.7308 243.505 93.5355L246.687 90.3536ZM210.333 90V90.5H246.333V90V89.5H210.333V90Z" fill="#A1A1A0"/>
<g clip-path="url(#clip1_41_6825)">
<mask id="path-12-inside-2_41_6825" fill="white">
<path d="M319.667 90C319.667 78.9543 328.621 70 339.667 70H448.667C459.712 70 468.667 78.9543 468.667 90C468.667 101.046 459.712 110 448.667 110H339.667C328.621 110 319.667 101.046 319.667 90Z"/>
</mask>
<path d="M319.667 90C319.667 78.9543 328.621 70 339.667 70H448.667C459.712 70 468.667 78.9543 468.667 90C468.667 101.046 459.712 110 448.667 110H339.667C328.621 110 319.667 101.046 319.667 90Z" fill="white"/>
<path d="M339.667 70V71H448.667V70V69H339.667V70ZM448.667 110V109H339.667V110V111H448.667V110ZM339.667 110V109C329.173 109 320.667 100.493 320.667 90H319.667H318.667C318.667 101.598 328.069 111 339.667 111V110ZM468.667 90H467.667C467.667 100.493 459.16 109 448.667 109V110V111C460.265 111 469.667 101.598 469.667 90H468.667ZM448.667 70V71C459.16 71 467.667 79.5066 467.667 90H468.667H469.667C469.667 78.402 460.265 69 448.667 69V70ZM339.667 70V69C328.069 69 318.667 78.402 318.667 90H319.667H320.667C320.667 79.5066 329.173 71 339.667 71V70Z" fill="#A1A1A0" mask="url(#path-12-inside-2_41_6825)"/>
<circle cx="343.667" cy="90" r="12" fill="#2964A0"/>
<path d="M365.43 94H364.452V85.4102H365.507V88.4746C365.952 87.916 366.52 87.6367 367.212 87.6367C367.594 87.6367 367.956 87.7148 368.296 87.8711C368.639 88.0234 368.921 88.2402 369.139 88.5215C369.362 88.7988 369.536 89.1348 369.661 89.5293C369.786 89.9238 369.848 90.3457 369.848 90.7949C369.848 91.8613 369.585 92.6855 369.057 93.2676C368.53 93.8496 367.897 94.1406 367.159 94.1406C366.425 94.1406 365.848 93.834 365.43 93.2207V94ZM365.419 90.8418C365.419 91.5879 365.52 92.127 365.723 92.459C366.055 93.002 366.505 93.2734 367.071 93.2734C367.532 93.2734 367.93 93.0742 368.266 92.6758C368.602 92.2734 368.77 91.6758 368.77 90.8828C368.77 90.0703 368.608 89.4707 368.284 89.084C367.964 88.6973 367.575 88.5039 367.118 88.5039C366.657 88.5039 366.259 88.7051 365.923 89.1074C365.587 89.5059 365.419 90.084 365.419 90.8418ZM371.114 94V85.4102H372.169V94H371.114ZM378.069 91.9961L379.159 92.1309C378.987 92.7676 378.669 93.2617 378.204 93.6133C377.739 93.9648 377.145 94.1406 376.423 94.1406C375.512 94.1406 374.79 93.8613 374.255 93.3027C373.723 92.7402 373.458 91.9531 373.458 90.9414C373.458 89.8945 373.727 89.082 374.266 88.5039C374.805 87.9258 375.505 87.6367 376.364 87.6367C377.196 87.6367 377.876 87.9199 378.403 88.4863C378.93 89.0527 379.194 89.8496 379.194 90.877C379.194 90.9395 379.192 91.0332 379.188 91.1582H374.548C374.587 91.8418 374.78 92.3652 375.128 92.7285C375.475 93.0918 375.909 93.2734 376.428 93.2734C376.815 93.2734 377.145 93.1719 377.419 92.9688C377.692 92.7656 377.909 92.4414 378.069 91.9961ZM374.606 90.291H378.081C378.034 89.7676 377.901 89.375 377.682 89.1133C377.346 88.707 376.911 88.5039 376.376 88.5039C375.891 88.5039 375.483 88.666 375.151 88.9902C374.823 89.3145 374.641 89.748 374.606 90.291ZM384.567 94V93.0859C384.083 93.7891 383.425 94.1406 382.593 94.1406C382.225 94.1406 381.882 94.0703 381.561 93.9297C381.245 93.7891 381.009 93.6133 380.852 93.4023C380.7 93.1875 380.593 92.9258 380.53 92.6172C380.487 92.4102 380.466 92.082 380.466 91.6328V87.7773H381.52V91.2285C381.52 91.7793 381.542 92.1504 381.585 92.3418C381.651 92.6191 381.792 92.8379 382.007 92.998C382.221 93.1543 382.487 93.2324 382.803 93.2324C383.12 93.2324 383.417 93.1523 383.694 92.9922C383.971 92.8281 384.167 92.6074 384.28 92.3301C384.397 92.0488 384.456 91.6426 384.456 91.1113V87.7773H385.51V94H384.567ZM386.196 96.3848V95.623H393.186V96.3848H386.196ZM393.854 86.623V85.4102H394.909V86.623H393.854ZM393.854 94V87.7773H394.909V94H393.854ZM400.581 91.7207L401.618 91.8555C401.505 92.5703 401.214 93.1309 400.745 93.5371C400.28 93.9395 399.708 94.1406 399.028 94.1406C398.177 94.1406 397.491 93.8633 396.971 93.3086C396.456 92.75 396.198 91.9512 396.198 90.9121C396.198 90.2402 396.309 89.6523 396.532 89.1484C396.755 88.6445 397.093 88.2676 397.546 88.0176C398.003 87.7637 398.499 87.6367 399.034 87.6367C399.71 87.6367 400.262 87.8086 400.692 88.1523C401.122 88.4922 401.397 88.9766 401.518 89.6055L400.493 89.7637C400.395 89.3457 400.221 89.0312 399.971 88.8203C399.725 88.6094 399.427 88.5039 399.075 88.5039C398.544 88.5039 398.112 88.6953 397.78 89.0781C397.448 89.457 397.282 90.0586 397.282 90.8828C397.282 91.7188 397.442 92.3262 397.762 92.7051C398.083 93.084 398.501 93.2734 399.016 93.2734C399.43 93.2734 399.776 93.1465 400.053 92.8926C400.331 92.6387 400.507 92.248 400.581 91.7207ZM406.78 91.9961L407.87 92.1309C407.698 92.7676 407.38 93.2617 406.915 93.6133C406.45 93.9648 405.856 94.1406 405.134 94.1406C404.223 94.1406 403.501 93.8613 402.966 93.3027C402.434 92.7402 402.169 91.9531 402.169 90.9414C402.169 89.8945 402.438 89.082 402.977 88.5039C403.516 87.9258 404.216 87.6367 405.075 87.6367C405.907 87.6367 406.587 87.9199 407.114 88.4863C407.641 89.0527 407.905 89.8496 407.905 90.877C407.905 90.9395 407.903 91.0332 407.899 91.1582H403.259C403.298 91.8418 403.491 92.3652 403.839 92.7285C404.186 93.0918 404.62 93.2734 405.139 93.2734C405.526 93.2734 405.856 93.1719 406.13 92.9688C406.403 92.7656 406.62 92.4414 406.78 91.9961ZM403.317 90.291H406.792C406.745 89.7676 406.612 89.375 406.393 89.1133C406.057 88.707 405.622 88.5039 405.087 88.5039C404.602 88.5039 404.194 88.666 403.862 88.9902C403.534 89.3145 403.352 89.748 403.317 90.291ZM410.173 94H409.194V85.4102H410.249V88.4746C410.694 87.916 411.262 87.6367 411.954 87.6367C412.337 87.6367 412.698 87.7148 413.038 87.8711C413.382 88.0234 413.663 88.2402 413.882 88.5215C414.104 88.7988 414.278 89.1348 414.403 89.5293C414.528 89.9238 414.591 90.3457 414.591 90.7949C414.591 91.8613 414.327 92.6855 413.8 93.2676C413.272 93.8496 412.639 94.1406 411.901 94.1406C411.167 94.1406 410.591 93.834 410.173 93.2207V94ZM410.161 90.8418C410.161 91.5879 410.262 92.127 410.466 92.459C410.798 93.002 411.247 93.2734 411.813 93.2734C412.274 93.2734 412.673 93.0742 413.009 92.6758C413.344 92.2734 413.512 91.6758 413.512 90.8828C413.512 90.0703 413.35 89.4707 413.026 89.084C412.706 88.6973 412.317 88.5039 411.86 88.5039C411.399 88.5039 411.001 88.7051 410.665 89.1074C410.329 89.5059 410.161 90.084 410.161 90.8418ZM420.139 91.9961L421.229 92.1309C421.057 92.7676 420.739 93.2617 420.274 93.6133C419.809 93.9648 419.216 94.1406 418.493 94.1406C417.583 94.1406 416.86 93.8613 416.325 93.3027C415.794 92.7402 415.528 91.9531 415.528 90.9414C415.528 89.8945 415.798 89.082 416.337 88.5039C416.876 87.9258 417.575 87.6367 418.434 87.6367C419.266 87.6367 419.946 87.9199 420.473 88.4863C421.001 89.0527 421.264 89.8496 421.264 90.877C421.264 90.9395 421.262 91.0332 421.259 91.1582H416.618C416.657 91.8418 416.85 92.3652 417.198 92.7285C417.546 93.0918 417.979 93.2734 418.499 93.2734C418.885 93.2734 419.216 93.1719 419.489 92.9688C419.762 92.7656 419.979 92.4414 420.139 91.9961ZM416.677 90.291H420.151C420.104 89.7676 419.971 89.375 419.753 89.1133C419.417 88.707 418.981 88.5039 418.446 88.5039C417.962 88.5039 417.553 88.666 417.221 88.9902C416.893 89.3145 416.712 89.748 416.677 90.291ZM422.548 94V87.7773H423.497V88.7207C423.739 88.2793 423.962 87.9883 424.165 87.8477C424.372 87.707 424.598 87.6367 424.844 87.6367C425.2 87.6367 425.561 87.75 425.928 87.9766L425.565 88.9551C425.307 88.8027 425.05 88.7266 424.792 88.7266C424.561 88.7266 424.354 88.7969 424.171 88.9375C423.987 89.0742 423.856 89.2656 423.778 89.5117C423.661 89.8867 423.602 90.2969 423.602 90.7422V94H422.548ZM426.362 94.5156L427.387 94.668C427.43 94.9844 427.55 95.2148 427.745 95.3594C428.007 95.5547 428.364 95.6523 428.817 95.6523C429.305 95.6523 429.682 95.5547 429.948 95.3594C430.214 95.1641 430.393 94.8906 430.487 94.5391C430.542 94.3242 430.567 93.873 430.563 93.1855C430.102 93.7285 429.528 94 428.841 94C427.985 94 427.323 93.6914 426.854 93.0742C426.385 92.457 426.151 91.7168 426.151 90.8535C426.151 90.2598 426.259 89.7129 426.473 89.2129C426.688 88.709 426.999 88.3203 427.405 88.0469C427.815 87.7734 428.296 87.6367 428.846 87.6367C429.581 87.6367 430.186 87.9336 430.663 88.5273V87.7773H431.635V93.1562C431.635 94.125 431.536 94.8105 431.337 95.2129C431.141 95.6191 430.829 95.9395 430.399 96.1738C429.973 96.4082 429.448 96.5254 428.823 96.5254C428.081 96.5254 427.481 96.3574 427.024 96.0215C426.567 95.6895 426.346 95.1875 426.362 94.5156ZM427.235 90.7773C427.235 91.5938 427.397 92.1895 427.721 92.5645C428.046 92.9395 428.452 93.127 428.94 93.127C429.425 93.127 429.831 92.9414 430.159 92.5703C430.487 92.1953 430.651 91.6094 430.651 90.8125C430.651 90.0508 430.481 89.4766 430.141 89.0898C429.805 88.7031 429.399 88.5098 428.923 88.5098C428.454 88.5098 428.055 88.7012 427.727 89.084C427.399 89.4629 427.235 90.0273 427.235 90.7773ZM432.444 94.1465L434.934 85.2637H435.778L433.294 94.1465H432.444ZM441.755 87.5137L440.706 87.5957C440.612 87.1816 440.479 86.8809 440.307 86.6934C440.022 86.3926 439.671 86.2422 439.253 86.2422C438.917 86.2422 438.622 86.3359 438.368 86.5234C438.036 86.7656 437.774 87.1191 437.583 87.584C437.391 88.0488 437.292 88.7109 437.284 89.5703C437.538 89.1836 437.848 88.8965 438.216 88.709C438.583 88.5215 438.968 88.4277 439.37 88.4277C440.073 88.4277 440.671 88.6875 441.163 89.207C441.659 89.7227 441.907 90.3906 441.907 91.2109C441.907 91.75 441.79 92.252 441.555 92.7168C441.325 93.1777 441.007 93.5312 440.6 93.7773C440.194 94.0234 439.733 94.1465 439.218 94.1465C438.339 94.1465 437.622 93.8242 437.067 93.1797C436.512 92.5312 436.235 91.4648 436.235 89.9805C436.235 88.3203 436.542 87.1133 437.155 86.3594C437.69 85.7031 438.411 85.375 439.317 85.375C439.993 85.375 440.546 85.5645 440.975 85.9434C441.409 86.3223 441.669 86.8457 441.755 87.5137ZM437.448 91.2168C437.448 91.5801 437.524 91.9277 437.677 92.2598C437.833 92.5918 438.05 92.8457 438.327 93.0215C438.604 93.1934 438.895 93.2793 439.2 93.2793C439.645 93.2793 440.028 93.0996 440.348 92.7402C440.669 92.3809 440.829 91.8926 440.829 91.2754C440.829 90.6816 440.671 90.2148 440.354 89.875C440.038 89.5312 439.639 89.3594 439.159 89.3594C438.682 89.3594 438.278 89.5312 437.946 89.875C437.614 90.2148 437.448 90.6621 437.448 91.2168ZM442.962 89.7637C442.962 88.748 443.065 87.9316 443.272 87.3145C443.483 86.6934 443.794 86.2148 444.204 85.8789C444.618 85.543 445.137 85.375 445.762 85.375C446.223 85.375 446.628 85.4688 446.975 85.6562C447.323 85.8398 447.61 86.1074 447.837 86.459C448.063 86.8066 448.241 87.2324 448.37 87.7363C448.499 88.2363 448.563 88.9121 448.563 89.7637C448.563 90.7715 448.46 91.5859 448.253 92.207C448.046 92.8242 447.735 93.3027 447.321 93.6426C446.911 93.9785 446.391 94.1465 445.762 94.1465C444.934 94.1465 444.284 93.8496 443.811 93.2559C443.245 92.541 442.962 91.377 442.962 89.7637ZM444.046 89.7637C444.046 91.1738 444.21 92.1133 444.538 92.582C444.87 93.0469 445.278 93.2793 445.762 93.2793C446.247 93.2793 446.653 93.0449 446.981 92.5762C447.313 92.1074 447.479 91.1699 447.479 89.7637C447.479 88.3496 447.313 87.4102 446.981 86.9453C446.653 86.4805 446.243 86.248 445.751 86.248C445.266 86.248 444.88 86.4531 444.591 86.8633C444.227 87.3867 444.046 88.3535 444.046 89.7637ZM449.641 89.7637C449.641 88.748 449.745 87.9316 449.952 87.3145C450.163 86.6934 450.473 86.2148 450.884 85.8789C451.298 85.543 451.817 85.375 452.442 85.375C452.903 85.375 453.307 85.4688 453.655 85.6562C454.003 85.8398 454.29 86.1074 454.516 86.459C454.743 86.8066 454.921 87.2324 455.05 87.7363C455.178 88.2363 455.243 88.9121 455.243 89.7637C455.243 90.7715 455.139 91.5859 454.932 92.207C454.725 92.8242 454.415 93.3027 454.001 93.6426C453.591 93.9785 453.071 94.1465 452.442 94.1465C451.614 94.1465 450.964 93.8496 450.491 93.2559C449.925 92.541 449.641 91.377 449.641 89.7637ZM450.725 89.7637C450.725 91.1738 450.889 92.1133 451.218 92.582C451.55 93.0469 451.958 93.2793 452.442 93.2793C452.927 93.2793 453.333 93.0449 453.661 92.5762C453.993 92.1074 454.159 91.1699 454.159 89.7637C454.159 88.3496 453.993 87.4102 453.661 86.9453C453.333 86.4805 452.923 86.248 452.43 86.248C451.946 86.248 451.559 86.4531 451.27 86.8633C450.907 87.3867 450.725 88.3535 450.725 89.7637Z" fill="#3E3E3D"/>
</g>
<path d="M578.354 90.3536C578.549 90.1583 578.549 89.8417 578.354 89.6464L575.172 86.4645C574.976 86.2692 574.66 86.2692 574.464 86.4645C574.269 86.6597 574.269 86.9763 574.464 87.1716L577.293 90L574.464 92.8284C574.269 93.0237 574.269 93.3403 574.464 93.5355C574.66 93.7308 574.976 93.7308 575.172 93.5355L578.354 90.3536ZM542 90V90.5H578V90V89.5H542V90Z" fill="#A1A1A0"/>
<mask id="path-17-inside-3_41_6825" fill="white">
<path d="M651.333 90C651.333 78.9543 660.288 70 671.333 70H827.333C838.379 70 847.333 78.9543 847.333 90C847.333 101.046 838.379 110 827.333 110H671.333C660.288 110 651.333 101.046 651.333 90Z"/>
</mask>
<path d="M651.333 90C651.333 78.9543 660.288 70 671.333 70H827.333C838.379 70 847.333 78.9543 847.333 90C847.333 101.046 838.379 110 827.333 110H671.333C660.288 110 651.333 101.046 651.333 90Z" fill="white"/>
<path d="M671.333 70V71H827.333V70V69H671.333V70ZM827.333 110V109H671.333V110V111H827.333V110ZM671.333 110V109C660.84 109 652.333 100.493 652.333 90H651.333H650.333C650.333 101.598 659.735 111 671.333 111V110ZM847.333 90H846.333C846.333 100.493 837.827 109 827.333 109V110V111C838.931 111 848.333 101.598 848.333 90H847.333ZM827.333 70V71C837.827 71 846.333 79.5066 846.333 90H847.333H848.333C848.333 78.402 838.931 69 827.333 69V70ZM671.333 70V69C659.735 69 650.333 78.402 650.333 90H651.333H652.333C652.333 79.5066 660.84 71 671.333 71V70Z" fill="#A1A1A0" mask="url(#path-17-inside-3_41_6825)"/>
<circle cx="675.333" cy="90" r="12" fill="#2964A0"/>
<path d="M697.097 94H696.118V85.4102H697.173V88.4746C697.618 87.916 698.187 87.6367 698.878 87.6367C699.261 87.6367 699.622 87.7148 699.962 87.8711C700.306 88.0234 700.587 88.2402 700.806 88.5215C701.029 88.7988 701.202 89.1348 701.327 89.5293C701.452 89.9238 701.515 90.3457 701.515 90.7949C701.515 91.8613 701.251 92.6855 700.724 93.2676C700.197 93.8496 699.564 94.1406 698.826 94.1406C698.091 94.1406 697.515 93.834 697.097 93.2207V94ZM697.085 90.8418C697.085 91.5879 697.187 92.127 697.39 92.459C697.722 93.002 698.171 93.2734 698.738 93.2734C699.199 93.2734 699.597 93.0742 699.933 92.6758C700.269 92.2734 700.437 91.6758 700.437 90.8828C700.437 90.0703 700.275 89.4707 699.951 89.084C699.63 88.6973 699.242 88.5039 698.784 88.5039C698.324 88.5039 697.925 88.7051 697.589 89.1074C697.253 89.5059 697.085 90.084 697.085 90.8418ZM706.865 93.2324C706.474 93.5645 706.097 93.7988 705.734 93.9355C705.374 94.0723 704.988 94.1406 704.574 94.1406C703.89 94.1406 703.365 93.9746 702.997 93.6426C702.63 93.3066 702.447 92.8789 702.447 92.3594C702.447 92.0547 702.515 91.7773 702.652 91.5273C702.792 91.2734 702.974 91.0703 703.197 90.918C703.423 90.7656 703.677 90.6504 703.958 90.5723C704.165 90.5176 704.478 90.4648 704.896 90.4141C705.747 90.3125 706.374 90.1914 706.777 90.0508C706.781 89.9062 706.783 89.8145 706.783 89.7754C706.783 89.3457 706.683 89.043 706.484 88.8672C706.214 88.6289 705.814 88.5098 705.283 88.5098C704.786 88.5098 704.419 88.5977 704.181 88.7734C703.947 88.9453 703.773 89.252 703.659 89.6934L702.628 89.5527C702.722 89.1113 702.876 88.7559 703.091 88.4863C703.306 88.2129 703.617 88.0039 704.023 87.8594C704.429 87.7109 704.9 87.6367 705.435 87.6367C705.966 87.6367 706.398 87.6992 706.73 87.8242C707.062 87.9492 707.306 88.1074 707.462 88.2988C707.618 88.4863 707.728 88.7246 707.79 89.0137C707.826 89.1934 707.843 89.5176 707.843 89.9863V91.3926C707.843 92.373 707.865 92.9941 707.908 93.2559C707.954 93.5137 708.044 93.7617 708.177 94H707.076C706.966 93.7812 706.896 93.5254 706.865 93.2324ZM706.777 90.877C706.394 91.0332 705.82 91.166 705.054 91.2754C704.62 91.3379 704.314 91.4082 704.134 91.4863C703.954 91.5645 703.816 91.6797 703.718 91.832C703.62 91.9805 703.572 92.1465 703.572 92.3301C703.572 92.6113 703.677 92.8457 703.888 93.0332C704.103 93.2207 704.415 93.3145 704.826 93.3145C705.232 93.3145 705.593 93.2266 705.909 93.0508C706.226 92.8711 706.458 92.627 706.607 92.3184C706.72 92.0801 706.777 91.7285 706.777 91.2637V90.877ZM713.544 91.7207L714.581 91.8555C714.468 92.5703 714.177 93.1309 713.708 93.5371C713.243 93.9395 712.671 94.1406 711.992 94.1406C711.14 94.1406 710.454 93.8633 709.935 93.3086C709.419 92.75 709.161 91.9512 709.161 90.9121C709.161 90.2402 709.273 89.6523 709.495 89.1484C709.718 88.6445 710.056 88.2676 710.509 88.0176C710.966 87.7637 711.462 87.6367 711.997 87.6367C712.673 87.6367 713.226 87.8086 713.656 88.1523C714.085 88.4922 714.361 88.9766 714.482 89.6055L713.456 89.7637C713.359 89.3457 713.185 89.0312 712.935 88.8203C712.689 88.6094 712.39 88.5039 712.038 88.5039C711.507 88.5039 711.076 88.6953 710.743 89.0781C710.411 89.457 710.245 90.0586 710.245 90.8828C710.245 91.7188 710.406 92.3262 710.726 92.7051C711.046 93.084 711.464 93.2734 711.98 93.2734C712.394 93.2734 712.74 93.1465 713.017 92.8926C713.294 92.6387 713.47 92.248 713.544 91.7207ZM715.49 94V85.4102H716.544V90.3086L719.04 87.7773H720.406L718.027 90.0859L720.646 94H719.345L717.288 90.8184L716.544 91.5332V94H715.49ZM721.29 94.5156L722.316 94.668C722.359 94.9844 722.478 95.2148 722.673 95.3594C722.935 95.5547 723.292 95.6523 723.745 95.6523C724.234 95.6523 724.611 95.5547 724.876 95.3594C725.142 95.1641 725.322 94.8906 725.415 94.5391C725.47 94.3242 725.495 93.873 725.492 93.1855C725.031 93.7285 724.456 94 723.769 94C722.913 94 722.251 93.6914 721.783 93.0742C721.314 92.457 721.079 91.7168 721.079 90.8535C721.079 90.2598 721.187 89.7129 721.402 89.2129C721.617 88.709 721.927 88.3203 722.333 88.0469C722.743 87.7734 723.224 87.6367 723.775 87.6367C724.509 87.6367 725.115 87.9336 725.591 88.5273V87.7773H726.564V93.1562C726.564 94.125 726.464 94.8105 726.265 95.2129C726.07 95.6191 725.757 95.9395 725.327 96.1738C724.902 96.4082 724.376 96.5254 723.751 96.5254C723.009 96.5254 722.409 96.3574 721.952 96.0215C721.495 95.6895 721.275 95.1875 721.29 94.5156ZM722.163 90.7773C722.163 91.5938 722.326 92.1895 722.65 92.5645C722.974 92.9395 723.38 93.127 723.868 93.127C724.353 93.127 724.759 92.9414 725.087 92.5703C725.415 92.1953 725.579 91.6094 725.579 90.8125C725.579 90.0508 725.409 89.4766 725.07 89.0898C724.734 88.7031 724.327 88.5098 723.851 88.5098C723.382 88.5098 722.984 88.7012 722.656 89.084C722.327 89.4629 722.163 90.0273 722.163 90.7773ZM728.152 94V87.7773H729.101V88.7207C729.343 88.2793 729.566 87.9883 729.769 87.8477C729.976 87.707 730.202 87.6367 730.449 87.6367C730.804 87.6367 731.165 87.75 731.533 87.9766L731.169 88.9551C730.911 88.8027 730.654 88.7266 730.396 88.7266C730.165 88.7266 729.958 88.7969 729.775 88.9375C729.591 89.0742 729.46 89.2656 729.382 89.5117C729.265 89.8867 729.206 90.2969 729.206 90.7422V94H728.152ZM731.767 90.8887C731.767 89.7363 732.087 88.8828 732.728 88.3281C733.263 87.8672 733.915 87.6367 734.685 87.6367C735.54 87.6367 736.24 87.918 736.783 88.4805C737.326 89.0391 737.597 89.8125 737.597 90.8008C737.597 91.6016 737.476 92.2324 737.234 92.6934C736.995 93.1504 736.646 93.5059 736.185 93.7598C735.728 94.0137 735.228 94.1406 734.685 94.1406C733.814 94.1406 733.109 93.8613 732.57 93.3027C732.034 92.7441 731.767 91.9395 731.767 90.8887ZM732.851 90.8887C732.851 91.6855 733.025 92.2832 733.372 92.6816C733.72 93.0762 734.158 93.2734 734.685 93.2734C735.208 93.2734 735.644 93.0742 735.992 92.6758C736.339 92.2773 736.513 91.6699 736.513 90.8535C736.513 90.084 736.337 89.502 735.986 89.1074C735.638 88.709 735.204 88.5098 734.685 88.5098C734.158 88.5098 733.72 88.707 733.372 89.1016C733.025 89.4961 732.851 90.0918 732.851 90.8887ZM742.917 94V93.0859C742.433 93.7891 741.775 94.1406 740.943 94.1406C740.576 94.1406 740.232 94.0703 739.911 93.9297C739.595 93.7891 739.359 93.6133 739.202 93.4023C739.05 93.1875 738.943 92.9258 738.88 92.6172C738.837 92.4102 738.816 92.082 738.816 91.6328V87.7773H739.87V91.2285C739.87 91.7793 739.892 92.1504 739.935 92.3418C740.001 92.6191 740.142 92.8379 740.357 92.998C740.572 93.1543 740.837 93.2324 741.154 93.2324C741.47 93.2324 741.767 93.1523 742.044 92.9922C742.322 92.8281 742.517 92.6074 742.63 92.3301C742.747 92.0488 742.806 91.6426 742.806 91.1113V87.7773H743.861V94H742.917ZM745.519 94V87.7773H746.468V88.6621C746.925 87.9785 747.585 87.6367 748.449 87.6367C748.824 87.6367 749.167 87.7051 749.48 87.8418C749.796 87.9746 750.033 88.1504 750.189 88.3691C750.345 88.5879 750.454 88.8477 750.517 89.1484C750.556 89.3438 750.576 89.6855 750.576 90.1738V94H749.521V90.2148C749.521 89.7852 749.48 89.4648 749.398 89.2539C749.316 89.0391 749.169 88.8691 748.958 88.7441C748.751 88.6152 748.507 88.5508 748.226 88.5508C747.777 88.5508 747.388 88.6934 747.06 88.9785C746.736 89.2637 746.574 89.8047 746.574 90.6016V94H745.519ZM756.236 94V93.2148C755.841 93.832 755.261 94.1406 754.495 94.1406C753.999 94.1406 753.542 94.0039 753.124 93.7305C752.71 93.457 752.388 93.0762 752.158 92.5879C751.931 92.0957 751.818 91.5312 751.818 90.8945C751.818 90.2734 751.921 89.7109 752.128 89.207C752.335 88.6992 752.646 88.3105 753.06 88.041C753.474 87.7715 753.937 87.6367 754.449 87.6367C754.824 87.6367 755.158 87.7168 755.451 87.877C755.743 88.0332 755.982 88.2383 756.165 88.4922V85.4102H757.214V94H756.236ZM752.902 90.8945C752.902 91.6914 753.07 92.2871 753.406 92.6816C753.742 93.0762 754.138 93.2734 754.595 93.2734C755.056 93.2734 755.447 93.0859 755.767 92.7109C756.091 92.332 756.253 91.7559 756.253 90.9824C756.253 90.1309 756.089 89.5059 755.761 89.1074C755.433 88.709 755.029 88.5098 754.548 88.5098C754.079 88.5098 753.687 88.7012 753.37 89.084C753.058 89.4668 752.902 90.0703 752.902 90.8945ZM758.087 94.1465L760.577 85.2637H761.421L758.937 94.1465H758.087ZM763.191 94H762.212V85.4102H763.267V88.4746C763.712 87.916 764.281 87.6367 764.972 87.6367C765.355 87.6367 765.716 87.7148 766.056 87.8711C766.4 88.0234 766.681 88.2402 766.9 88.5215C767.122 88.7988 767.296 89.1348 767.421 89.5293C767.546 89.9238 767.609 90.3457 767.609 90.7949C767.609 91.8613 767.345 92.6855 766.818 93.2676C766.29 93.8496 765.658 94.1406 764.919 94.1406C764.185 94.1406 763.609 93.834 763.191 93.2207V94ZM763.179 90.8418C763.179 91.5879 763.281 92.127 763.484 92.459C763.816 93.002 764.265 93.2734 764.831 93.2734C765.292 93.2734 765.691 93.0742 766.027 92.6758C766.363 92.2734 766.531 91.6758 766.531 90.8828C766.531 90.0703 766.368 89.4707 766.044 89.084C765.724 88.6973 765.335 88.5039 764.878 88.5039C764.417 88.5039 764.019 88.7051 763.683 89.1074C763.347 89.5059 763.179 90.084 763.179 90.8418ZM768.886 94V87.7773H769.835V88.7207C770.077 88.2793 770.3 87.9883 770.503 87.8477C770.71 87.707 770.937 87.6367 771.183 87.6367C771.538 87.6367 771.9 87.75 772.267 87.9766L771.904 88.9551C771.646 88.8027 771.388 88.7266 771.13 88.7266C770.9 88.7266 770.693 88.7969 770.509 88.9375C770.326 89.0742 770.195 89.2656 770.117 89.5117C769.999 89.8867 769.941 90.2969 769.941 90.7422V94H768.886ZM776.954 93.2324C776.564 93.5645 776.187 93.7988 775.824 93.9355C775.464 94.0723 775.077 94.1406 774.663 94.1406C773.98 94.1406 773.454 93.9746 773.087 93.6426C772.72 93.3066 772.536 92.8789 772.536 92.3594C772.536 92.0547 772.605 91.7773 772.742 91.5273C772.882 91.2734 773.064 91.0703 773.286 90.918C773.513 90.7656 773.767 90.6504 774.048 90.5723C774.255 90.5176 774.568 90.4648 774.986 90.4141C775.837 90.3125 776.464 90.1914 776.867 90.0508C776.87 89.9062 776.872 89.8145 776.872 89.7754C776.872 89.3457 776.773 89.043 776.574 88.8672C776.304 88.6289 775.904 88.5098 775.372 88.5098C774.876 88.5098 774.509 88.5977 774.271 88.7734C774.036 88.9453 773.863 89.252 773.749 89.6934L772.718 89.5527C772.812 89.1113 772.966 88.7559 773.181 88.4863C773.396 88.2129 773.706 88.0039 774.113 87.8594C774.519 87.7109 774.99 87.6367 775.525 87.6367C776.056 87.6367 776.488 87.6992 776.82 87.8242C777.152 87.9492 777.396 88.1074 777.552 88.2988C777.708 88.4863 777.818 88.7246 777.88 89.0137C777.915 89.1934 777.933 89.5176 777.933 89.9863V91.3926C777.933 92.373 777.954 92.9941 777.997 93.2559C778.044 93.5137 778.134 93.7617 778.267 94H777.165C777.056 93.7812 776.986 93.5254 776.954 93.2324ZM776.867 90.877C776.484 91.0332 775.909 91.166 775.144 91.2754C774.71 91.3379 774.404 91.4082 774.224 91.4863C774.044 91.5645 773.906 91.6797 773.808 91.832C773.71 91.9805 773.661 92.1465 773.661 92.3301C773.661 92.6113 773.767 92.8457 773.978 93.0332C774.193 93.2207 774.505 93.3145 774.915 93.3145C775.322 93.3145 775.683 93.2266 775.999 93.0508C776.316 92.8711 776.548 92.627 776.697 92.3184C776.81 92.0801 776.867 91.7285 776.867 91.2637V90.877ZM779.574 94V87.7773H780.523V88.6621C780.98 87.9785 781.64 87.6367 782.503 87.6367C782.878 87.6367 783.222 87.7051 783.534 87.8418C783.851 87.9746 784.087 88.1504 784.243 88.3691C784.4 88.5879 784.509 88.8477 784.572 89.1484C784.611 89.3438 784.63 89.6855 784.63 90.1738V94H783.576V90.2148C783.576 89.7852 783.534 89.4648 783.452 89.2539C783.37 89.0391 783.224 88.8691 783.013 88.7441C782.806 88.6152 782.562 88.5508 782.281 88.5508C781.831 88.5508 781.443 88.6934 781.115 88.9785C780.79 89.2637 780.628 89.8047 780.628 90.6016V94H779.574ZM790.29 94V93.2148C789.896 93.832 789.316 94.1406 788.55 94.1406C788.054 94.1406 787.597 94.0039 787.179 93.7305C786.765 93.457 786.443 93.0762 786.212 92.5879C785.986 92.0957 785.872 91.5312 785.872 90.8945C785.872 90.2734 785.976 89.7109 786.183 89.207C786.39 88.6992 786.701 88.3105 787.115 88.041C787.529 87.7715 787.992 87.6367 788.503 87.6367C788.878 87.6367 789.212 87.7168 789.505 87.877C789.798 88.0332 790.036 88.2383 790.22 88.4922V85.4102H791.269V94H790.29ZM786.956 90.8945C786.956 91.6914 787.124 92.2871 787.46 92.6816C787.796 93.0762 788.193 93.2734 788.65 93.2734C789.111 93.2734 789.501 93.0859 789.822 92.7109C790.146 92.332 790.308 91.7559 790.308 90.9824C790.308 90.1309 790.144 89.5059 789.816 89.1074C789.488 88.709 789.083 88.5098 788.603 88.5098C788.134 88.5098 787.742 88.7012 787.425 89.084C787.113 89.4668 786.956 90.0703 786.956 90.8945ZM791.96 96.3848V95.623H798.951V96.3848H791.96ZM803.65 94V93.2148C803.255 93.832 802.675 94.1406 801.909 94.1406C801.413 94.1406 800.956 94.0039 800.538 93.7305C800.124 93.457 799.802 93.0762 799.572 92.5879C799.345 92.0957 799.232 91.5312 799.232 90.8945C799.232 90.2734 799.335 89.7109 799.542 89.207C799.749 88.6992 800.06 88.3105 800.474 88.041C800.888 87.7715 801.351 87.6367 801.863 87.6367C802.238 87.6367 802.572 87.7168 802.865 87.877C803.158 88.0332 803.396 88.2383 803.579 88.4922V85.4102H804.628V94H803.65ZM800.316 90.8945C800.316 91.6914 800.484 92.2871 800.82 92.6816C801.156 93.0762 801.552 93.2734 802.009 93.2734C802.47 93.2734 802.861 93.0859 803.181 92.7109C803.505 92.332 803.667 91.7559 803.667 90.9824C803.667 90.1309 803.503 89.5059 803.175 89.1074C802.847 88.709 802.443 88.5098 801.962 88.5098C801.493 88.5098 801.101 88.7012 800.784 89.084C800.472 89.4668 800.316 90.0703 800.316 90.8945ZM810.552 91.9961L811.642 92.1309C811.47 92.7676 811.152 93.2617 810.687 93.6133C810.222 93.9648 809.628 94.1406 808.906 94.1406C807.995 94.1406 807.273 93.8613 806.738 93.3027C806.206 92.7402 805.941 91.9531 805.941 90.9414C805.941 89.8945 806.21 89.082 806.749 88.5039C807.288 87.9258 807.988 87.6367 808.847 87.6367C809.679 87.6367 810.359 87.9199 810.886 88.4863C811.413 89.0527 811.677 89.8496 811.677 90.877C811.677 90.9395 811.675 91.0332 811.671 91.1582H807.031C807.07 91.8418 807.263 92.3652 807.611 92.7285C807.958 93.0918 808.392 93.2734 808.911 93.2734C809.298 93.2734 809.628 93.1719 809.902 92.9688C810.175 92.7656 810.392 92.4414 810.552 91.9961ZM807.089 90.291H810.564C810.517 89.7676 810.384 89.375 810.165 89.1133C809.829 88.707 809.394 88.5039 808.859 88.5039C808.374 88.5039 807.966 88.666 807.634 88.9902C807.306 89.3145 807.124 89.748 807.089 90.291ZM813.224 94V88.5977H812.292V87.7773H813.224V87.1152C813.224 86.6973 813.261 86.3867 813.335 86.1836C813.437 85.9102 813.615 85.6895 813.868 85.5215C814.126 85.3496 814.486 85.2637 814.947 85.2637C815.243 85.2637 815.572 85.2988 815.931 85.3691L815.773 86.2891C815.554 86.25 815.347 86.2305 815.152 86.2305C814.831 86.2305 814.605 86.2988 814.472 86.4355C814.339 86.5723 814.273 86.8281 814.273 87.2031V87.7773H815.486V88.5977H814.273V94H813.224ZM820.372 93.2324C819.982 93.5645 819.605 93.7988 819.242 93.9355C818.882 94.0723 818.495 94.1406 818.081 94.1406C817.398 94.1406 816.872 93.9746 816.505 93.6426C816.138 93.3066 815.954 92.8789 815.954 92.3594C815.954 92.0547 816.023 91.7773 816.159 91.5273C816.3 91.2734 816.482 91.0703 816.704 90.918C816.931 90.7656 817.185 90.6504 817.466 90.5723C817.673 90.5176 817.986 90.4648 818.404 90.4141C819.255 90.3125 819.882 90.1914 820.284 90.0508C820.288 89.9062 820.29 89.8145 820.29 89.7754C820.29 89.3457 820.191 89.043 819.992 88.8672C819.722 88.6289 819.322 88.5098 818.79 88.5098C818.294 88.5098 817.927 88.5977 817.689 88.7734C817.454 88.9453 817.281 89.252 817.167 89.6934L816.136 89.5527C816.23 89.1113 816.384 88.7559 816.599 88.4863C816.814 88.2129 817.124 88.0039 817.531 87.8594C817.937 87.7109 818.408 87.6367 818.943 87.6367C819.474 87.6367 819.906 87.6992 820.238 87.8242C820.57 87.9492 820.814 88.1074 820.97 88.2988C821.126 88.4863 821.236 88.7246 821.298 89.0137C821.333 89.1934 821.351 89.5176 821.351 89.9863V91.3926C821.351 92.373 821.372 92.9941 821.415 93.2559C821.462 93.5137 821.552 93.7617 821.685 94H820.583C820.474 93.7812 820.404 93.5254 820.372 93.2324ZM820.284 90.877C819.902 91.0332 819.327 91.166 818.562 91.2754C818.128 91.3379 817.822 91.4082 817.642 91.4863C817.462 91.5645 817.324 91.6797 817.226 91.832C817.128 91.9805 817.079 92.1465 817.079 92.3301C817.079 92.6113 817.185 92.8457 817.396 93.0332C817.611 93.2207 817.923 93.3145 818.333 93.3145C818.74 93.3145 819.101 93.2266 819.417 93.0508C819.734 92.8711 819.966 92.627 820.115 92.3184C820.228 92.0801 820.284 91.7285 820.284 91.2637V90.877ZM827.07 94V93.0859C826.585 93.7891 825.927 94.1406 825.095 94.1406C824.728 94.1406 824.384 94.0703 824.064 93.9297C823.747 93.7891 823.511 93.6133 823.355 93.4023C823.202 93.1875 823.095 92.9258 823.033 92.6172C822.99 92.4102 822.968 92.082 822.968 91.6328V87.7773H824.023V91.2285C824.023 91.7793 824.044 92.1504 824.087 92.3418C824.154 92.6191 824.294 92.8379 824.509 92.998C824.724 93.1543 824.99 93.2324 825.306 93.2324C825.622 93.2324 825.919 93.1523 826.197 92.9922C826.474 92.8281 826.669 92.6074 826.783 92.3301C826.9 92.0488 826.958 91.6426 826.958 91.1113V87.7773H828.013V94H827.07ZM829.648 94V85.4102H830.702V94H829.648ZM834.646 93.0566L834.798 93.9883C834.501 94.0508 834.236 94.082 834.001 94.082C833.618 94.082 833.322 94.0215 833.111 93.9004C832.9 93.7793 832.751 93.6211 832.665 93.4258C832.579 93.2266 832.536 92.8105 832.536 92.1777V88.5977H831.763V87.7773H832.536V86.2363L833.585 85.6035V87.7773H834.646V88.5977H833.585V92.2363C833.585 92.5371 833.603 92.7305 833.638 92.8164C833.677 92.9023 833.738 92.9707 833.82 93.0215C833.906 93.0723 834.027 93.0977 834.183 93.0977C834.3 93.0977 834.454 93.084 834.646 93.0566Z" fill="#3E3E3D"/>
<path d="M957.02 90.3536C957.215 90.1583 957.215 89.8417 957.02 89.6464L953.838 86.4645C953.643 86.2692 953.326 86.2692 953.131 86.4645C952.936 86.6597 952.936 86.9763 953.131 87.1716L955.96 90L953.131 92.8284C952.936 93.0237 952.936 93.3403 953.131 93.5355C953.326 93.7308 953.643 93.7308 953.838 93.5355L957.02 90.3536ZM920.667 90V90.5H956.667V90V89.5H920.667V90Z" fill="#A1A1A0"/>
<path d="M1030 78C1030 73.5817 1033.58 70 1038 70H1119C1123.42 70 1127 73.5817 1127 78V102C1127 106.418 1123.42 110 1119 110H1038C1033.58 110 1030 106.418 1030 102V78Z" fill="#2964A0"/>
<path d="M1056.7 97C1056.37 97 1056.11 96.9067 1055.92 96.72C1055.73 96.5333 1055.64 96.2733 1055.64 95.94V83.88C1055.64 83.5333 1055.73 83.2733 1055.9 83.1C1056.09 82.9133 1056.35 82.82 1056.68 82.82C1057.01 82.82 1057.27 82.9133 1057.44 83.1C1057.63 83.2733 1057.72 83.5333 1057.72 83.88V95.22H1063.92C1064.21 95.22 1064.44 95.3 1064.6 95.46C1064.76 95.6067 1064.84 95.82 1064.84 96.1C1064.84 96.38 1064.76 96.6 1064.6 96.76C1064.44 96.92 1064.21 97 1063.92 97H1056.7ZM1069.08 97.18C1068.4 97.18 1067.78 97.0467 1067.24 96.78C1066.7 96.5133 1066.28 96.1533 1065.98 95.7C1065.67 95.2467 1065.52 94.7333 1065.52 94.16C1065.52 93.44 1065.7 92.8733 1066.06 92.46C1066.43 92.0333 1067.04 91.7333 1067.88 91.56C1068.73 91.3733 1069.88 91.28 1071.32 91.28H1072.26V92.52H1071.34C1070.38 92.52 1069.62 92.5667 1069.06 92.66C1068.5 92.7533 1068.1 92.9133 1067.86 93.14C1067.63 93.3533 1067.52 93.6533 1067.52 94.04C1067.52 94.5467 1067.69 94.96 1068.04 95.28C1068.38 95.5867 1068.86 95.74 1069.48 95.74C1069.97 95.74 1070.4 95.6267 1070.78 95.4C1071.15 95.16 1071.44 94.84 1071.66 94.44C1071.88 94.04 1072 93.58 1072 93.06V90.76C1072 90 1071.84 89.4533 1071.52 89.12C1071.2 88.7867 1070.67 88.62 1069.94 88.62C1069.51 88.62 1069.06 88.6733 1068.6 88.78C1068.14 88.8867 1067.67 89.0667 1067.18 89.32C1066.95 89.4267 1066.76 89.46 1066.6 89.42C1066.44 89.38 1066.31 89.2933 1066.22 89.16C1066.12 89.0133 1066.07 88.86 1066.06 88.7C1066.06 88.5267 1066.1 88.36 1066.18 88.2C1066.27 88.04 1066.42 87.92 1066.64 87.84C1067.22 87.56 1067.8 87.36 1068.38 87.24C1068.95 87.12 1069.49 87.06 1070 87.06C1070.89 87.06 1071.62 87.2 1072.2 87.48C1072.78 87.76 1073.22 88.1867 1073.5 88.76C1073.78 89.3333 1073.92 90.0733 1073.92 90.98V96.12C1073.92 96.44 1073.84 96.6933 1073.68 96.88C1073.52 97.0533 1073.28 97.14 1072.98 97.14C1072.68 97.14 1072.45 97.0533 1072.28 96.88C1072.1 96.6933 1072.02 96.44 1072.02 96.12V94.82H1072.2C1072.09 95.3133 1071.89 95.74 1071.6 96.1C1071.32 96.4467 1070.96 96.7133 1070.54 96.9C1070.11 97.0867 1069.62 97.18 1069.08 97.18ZM1081.44 97.18C1080.58 97.18 1079.84 96.9667 1079.22 96.54C1078.59 96.1 1078.17 95.52 1077.96 94.8L1078.18 94.44V96.12C1078.18 96.44 1078.09 96.6933 1077.92 96.88C1077.74 97.0533 1077.5 97.14 1077.2 97.14C1076.88 97.14 1076.63 97.0533 1076.46 96.88C1076.28 96.6933 1076.2 96.44 1076.2 96.12V83.78C1076.2 83.4467 1076.28 83.1933 1076.46 83.02C1076.63 82.8467 1076.88 82.76 1077.2 82.76C1077.52 82.76 1077.76 82.8467 1077.94 83.02C1078.12 83.1933 1078.22 83.4467 1078.22 83.78V89.38H1077.98C1078.19 88.6733 1078.61 88.1133 1079.24 87.7C1079.86 87.2733 1080.6 87.06 1081.44 87.06C1082.32 87.06 1083.08 87.2667 1083.72 87.68C1084.36 88.0933 1084.85 88.6733 1085.2 89.42C1085.56 90.1667 1085.74 91.0667 1085.74 92.12C1085.74 93.1467 1085.56 94.0467 1085.2 94.82C1084.85 95.58 1084.35 96.1667 1083.7 96.58C1083.06 96.98 1082.3 97.18 1081.44 97.18ZM1080.94 95.62C1081.5 95.62 1081.98 95.4867 1082.4 95.22C1082.81 94.9533 1083.13 94.56 1083.36 94.04C1083.58 93.52 1083.7 92.88 1083.7 92.12C1083.7 90.9733 1083.44 90.1067 1082.94 89.52C1082.44 88.9333 1081.78 88.64 1080.94 88.64C1080.39 88.64 1079.9 88.7733 1079.48 89.04C1079.06 89.2933 1078.74 89.68 1078.52 90.2C1078.29 90.72 1078.18 91.36 1078.18 92.12C1078.18 93.2533 1078.43 94.12 1078.94 94.72C1079.44 95.32 1080.11 95.62 1080.94 95.62ZM1092.09 97.18C1091.03 97.18 1090.11 96.98 1089.33 96.58C1088.57 96.1667 1087.98 95.5867 1087.55 94.84C1087.14 94.08 1086.93 93.18 1086.93 92.14C1086.93 91.1267 1087.14 90.24 1087.55 89.48C1087.97 88.72 1088.53 88.1267 1089.25 87.7C1089.97 87.2733 1090.79 87.06 1091.71 87.06C1092.39 87.06 1093 87.1733 1093.53 87.4C1094.07 87.6133 1094.52 87.9333 1094.89 88.36C1095.28 88.7733 1095.57 89.28 1095.75 89.88C1095.95 90.48 1096.05 91.1533 1096.05 91.9C1096.05 92.1267 1095.99 92.3 1095.85 92.42C1095.72 92.5267 1095.52 92.58 1095.25 92.58H1088.53V91.34H1094.69L1094.35 91.62C1094.35 90.9533 1094.25 90.3867 1094.05 89.92C1093.87 89.4533 1093.58 89.1 1093.19 88.86C1092.82 88.6067 1092.35 88.48 1091.79 88.48C1091.17 88.48 1090.63 88.6267 1090.19 88.92C1089.77 89.2133 1089.44 89.62 1089.21 90.14C1088.99 90.66 1088.87 91.2667 1088.87 91.96V92.08C1088.87 93.2533 1089.15 94.14 1089.69 94.74C1090.25 95.3267 1091.06 95.62 1092.11 95.62C1092.51 95.62 1092.93 95.5667 1093.37 95.46C1093.83 95.3533 1094.25 95.1733 1094.65 94.92C1094.88 94.7867 1095.08 94.7267 1095.25 94.74C1095.44 94.7533 1095.59 94.8133 1095.69 94.92C1095.81 95.0267 1095.89 95.16 1095.91 95.32C1095.94 95.48 1095.91 95.6467 1095.83 95.82C1095.75 95.98 1095.61 96.1267 1095.41 96.26C1094.96 96.5667 1094.43 96.8 1093.83 96.96C1093.23 97.1067 1092.65 97.18 1092.09 97.18ZM1100.9 97.18C1099.86 97.18 1099.07 96.88 1098.54 96.28C1098.02 95.6667 1097.76 94.7867 1097.76 93.64V83.78C1097.76 83.4467 1097.84 83.1933 1098.02 83.02C1098.19 82.8467 1098.44 82.76 1098.76 82.76C1099.08 82.76 1099.32 82.8467 1099.5 83.02C1099.68 83.1933 1099.78 83.4467 1099.78 83.78V93.52C1099.78 94.1867 1099.91 94.6867 1100.18 95.02C1100.46 95.34 1100.86 95.5 1101.38 95.5C1101.5 95.5 1101.6 95.5 1101.7 95.5C1101.79 95.4867 1101.88 95.4733 1101.98 95.46C1102.14 95.4467 1102.25 95.4933 1102.32 95.6C1102.38 95.6933 1102.42 95.8933 1102.42 96.2C1102.42 96.48 1102.36 96.7 1102.24 96.86C1102.12 97.0067 1101.92 97.1 1101.66 97.14C1101.54 97.1533 1101.41 97.16 1101.28 97.16C1101.14 97.1733 1101.02 97.18 1100.9 97.18Z" fill="white"/>
<defs>
<clipPath id="clip0_41_6825">
<rect width="105" height="40" fill="white" transform="translate(32 70)"/>
</clipPath>
<clipPath id="clip1_41_6825">
<rect width="149" height="40" fill="white" transform="translate(319.667 70)"/>
</clipPath>
</defs>
</svg>
