<svg viewBox="0 0 20 20" fill="none" xmlns="http://www.w3.org/2000/svg">
<path d="M3.33317 16.6667C2.87484 16.6667 2.48248 16.5035 2.15609 16.1771C1.8297 15.8507 1.6665 15.4584 1.6665 15V5.00004C1.6665 4.54171 1.8297 4.14935 2.15609 3.82296C2.48248 3.49657 2.87484 3.33337 3.33317 3.33337H7.64567C7.86789 3.33337 8.0797 3.37504 8.28109 3.45837C8.48248 3.54171 8.65956 3.65976 8.81234 3.81254L9.99984 5.00004H17.4998C17.7359 5.00004 17.9339 5.0799 18.0936 5.23962C18.2533 5.39935 18.3332 5.59726 18.3332 5.83337C18.3332 6.06949 18.2533 6.2674 18.0936 6.42712C17.9339 6.58685 17.7359 6.66671 17.4998 6.66671H6.5415C5.68039 6.66671 4.93039 6.93754 4.2915 7.47921C3.65261 8.02087 3.33317 8.70837 3.33317 9.54171V15L4.979 9.52087C5.09011 9.15976 5.29498 8.87157 5.59359 8.65629C5.8922 8.44101 6.22206 8.33337 6.58317 8.33337H17.3332C17.9026 8.33337 18.3505 8.55907 18.6769 9.01046C19.0033 9.46185 19.0901 9.95143 18.9373 10.4792L17.4373 15.4792C17.3262 15.8403 17.1214 16.1285 16.8228 16.3438C16.5241 16.5591 16.1943 16.6667 15.8332 16.6667H3.33317Z" fill="currentColor"/>
</svg>