<svg width="1159" height="396" viewBox="0 0 1159 396" fill="none" xmlns="http://www.w3.org/2000/svg">
<g clip-path="url(#clip0_172_18439)">
<path d="M0 8.00001C0 3.58173 3.58172 0 8 0H1151C1155.42 0 1159 3.58172 1159 8V388C1159 392.418 1155.42 396 1151 396H8.00002C3.58174 396 0 392.418 0 388V8.00001Z" fill="white"/>
<path d="M500.812 48C500.38 48 500.044 47.888 499.804 47.664C499.58 47.424 499.468 47.088 499.468 46.656V32.424C499.468 31.992 499.58 31.664 499.804 31.44C500.044 31.2 500.38 31.08 500.812 31.08H506.524C507.692 31.08 508.684 31.256 509.5 31.608C510.332 31.96 510.964 32.464 511.396 33.12C511.844 33.776 512.068 34.568 512.068 35.496C512.068 36.52 511.764 37.384 511.156 38.088C510.548 38.792 509.724 39.264 508.684 39.504V39.144C509.868 39.304 510.796 39.752 511.468 40.488C512.14 41.208 512.476 42.152 512.476 43.32C512.476 44.824 511.98 45.984 510.988 46.8C509.996 47.6 508.604 48 506.812 48H500.812ZM501.868 46.08H506.524C507.724 46.08 508.612 45.848 509.188 45.384C509.764 44.904 510.052 44.184 510.052 43.224C510.052 42.264 509.764 41.552 509.188 41.088C508.612 40.624 507.724 40.392 506.524 40.392H501.868V46.08ZM501.868 38.472H506.14C507.292 38.472 508.164 38.24 508.756 37.776C509.348 37.312 509.644 36.632 509.644 35.736C509.644 34.84 509.348 34.16 508.756 33.696C508.164 33.232 507.292 33 506.14 33H501.868V38.472ZM516.287 48.168C515.887 48.168 515.583 48.064 515.375 47.856C515.167 47.632 515.063 47.328 515.063 46.944V37.344C515.063 36.944 515.167 36.64 515.375 36.432C515.583 36.224 515.871 36.12 516.239 36.12C516.623 36.12 516.911 36.224 517.103 36.432C517.311 36.64 517.415 36.944 517.415 37.344V39.096H517.175C517.431 38.136 517.903 37.408 518.591 36.912C519.279 36.416 520.159 36.128 521.231 36.048C521.519 36.032 521.743 36.104 521.903 36.264C522.079 36.424 522.175 36.672 522.191 37.008C522.223 37.344 522.151 37.616 521.975 37.824C521.799 38.016 521.527 38.128 521.159 38.16L520.703 38.208C519.663 38.304 518.871 38.632 518.327 39.192C517.783 39.752 517.511 40.52 517.511 41.496V46.944C517.511 47.328 517.407 47.632 517.199 47.856C517.007 48.064 516.703 48.168 516.287 48.168ZM527.143 48.216C526.327 48.216 525.591 48.056 524.935 47.736C524.295 47.416 523.791 46.984 523.423 46.44C523.055 45.896 522.871 45.28 522.871 44.592C522.871 43.728 523.087 43.048 523.519 42.552C523.967 42.04 524.695 41.68 525.703 41.472C526.727 41.248 528.103 41.136 529.831 41.136H530.959V42.624H529.855C528.703 42.624 527.791 42.68 527.119 42.792C526.447 42.904 525.967 43.096 525.679 43.368C525.407 43.624 525.271 43.984 525.271 44.448C525.271 45.056 525.479 45.552 525.895 45.936C526.311 46.304 526.887 46.488 527.623 46.488C528.215 46.488 528.735 46.352 529.183 46.08C529.631 45.792 529.983 45.408 530.239 44.928C530.511 44.448 530.647 43.896 530.647 43.272V40.512C530.647 39.6 530.455 38.944 530.071 38.544C529.687 38.144 529.055 37.944 528.175 37.944C527.663 37.944 527.127 38.008 526.567 38.136C526.023 38.264 525.455 38.48 524.863 38.784C524.591 38.912 524.359 38.952 524.167 38.904C523.975 38.856 523.823 38.752 523.711 38.592C523.599 38.416 523.535 38.232 523.519 38.04C523.519 37.832 523.567 37.632 523.663 37.44C523.775 37.248 523.959 37.104 524.215 37.008C524.919 36.672 525.615 36.432 526.303 36.288C526.991 36.144 527.639 36.072 528.247 36.072C529.319 36.072 530.199 36.24 530.887 36.576C531.591 36.912 532.111 37.424 532.447 38.112C532.783 38.8 532.951 39.688 532.951 40.776V46.944C532.951 47.328 532.855 47.632 532.663 47.856C532.471 48.064 532.191 48.168 531.823 48.168C531.471 48.168 531.191 48.064 530.983 47.856C530.775 47.632 530.671 47.328 530.671 46.944V45.384H530.887C530.759 45.976 530.519 46.488 530.167 46.92C529.831 47.336 529.407 47.656 528.895 47.88C528.383 48.104 527.799 48.216 527.143 48.216ZM536.99 48.168C536.606 48.168 536.31 48.064 536.102 47.856C535.894 47.632 535.79 47.328 535.79 46.944V37.344C535.79 36.944 535.894 36.64 536.102 36.432C536.31 36.224 536.598 36.12 536.966 36.12C537.35 36.12 537.638 36.224 537.83 36.432C538.038 36.64 538.142 36.944 538.142 37.344V39.216L537.878 38.784C538.23 37.888 538.782 37.216 539.534 36.768C540.286 36.304 541.15 36.072 542.126 36.072C543.054 36.072 543.822 36.248 544.43 36.6C545.054 36.936 545.518 37.456 545.822 38.16C546.126 38.848 546.278 39.72 546.278 40.776V46.944C546.278 47.328 546.174 47.632 545.966 47.856C545.758 48.064 545.462 48.168 545.078 48.168C544.678 48.168 544.374 48.064 544.166 47.856C543.958 47.632 543.854 47.328 543.854 46.944V40.92C543.854 39.912 543.654 39.176 543.254 38.712C542.87 38.248 542.262 38.016 541.43 38.016C540.454 38.016 539.67 38.32 539.078 38.928C538.502 39.536 538.214 40.352 538.214 41.376V46.944C538.214 47.76 537.806 48.168 536.99 48.168ZM553.582 48.216C552.558 48.216 551.654 47.976 550.87 47.496C550.102 47 549.502 46.296 549.07 45.384C548.638 44.456 548.422 43.376 548.422 42.144C548.422 40.88 548.638 39.8 549.07 38.904C549.502 38.008 550.102 37.312 550.87 36.816C551.654 36.32 552.558 36.072 553.582 36.072C554.606 36.072 555.486 36.328 556.222 36.84C556.974 37.336 557.478 38.008 557.734 38.856H557.47V32.136C557.47 31.736 557.574 31.432 557.782 31.224C557.99 31.016 558.286 30.912 558.67 30.912C559.054 30.912 559.35 31.016 559.558 31.224C559.782 31.432 559.894 31.736 559.894 32.136V46.944C559.894 47.328 559.79 47.632 559.582 47.856C559.374 48.064 559.078 48.168 558.694 48.168C558.31 48.168 558.014 48.064 557.806 47.856C557.598 47.632 557.494 47.328 557.494 46.944V44.832L557.758 45.36C557.502 46.224 556.998 46.92 556.246 47.448C555.51 47.96 554.622 48.216 553.582 48.216ZM554.206 46.344C554.862 46.344 555.438 46.184 555.934 45.864C556.43 45.544 556.814 45.072 557.086 44.448C557.374 43.824 557.518 43.056 557.518 42.144C557.518 40.768 557.214 39.728 556.606 39.024C555.998 38.32 555.198 37.968 554.206 37.968C553.534 37.968 552.95 38.128 552.454 38.448C551.958 38.752 551.566 39.216 551.278 39.84C551.006 40.464 550.87 41.232 550.87 42.144C550.87 43.504 551.174 44.544 551.782 45.264C552.39 45.984 553.198 46.344 554.206 46.344ZM572.73 48.216C572.026 48.216 571.298 48.136 570.546 47.976C569.81 47.816 569.13 47.544 568.506 47.16C568.298 47.016 568.154 46.856 568.074 46.68C567.994 46.504 567.962 46.328 567.978 46.152C568.01 45.96 568.082 45.8 568.194 45.672C568.322 45.528 568.474 45.44 568.65 45.408C568.842 45.376 569.042 45.416 569.25 45.528C569.874 45.88 570.474 46.128 571.05 46.272C571.626 46.4 572.194 46.464 572.754 46.464C573.602 46.464 574.242 46.312 574.674 46.008C575.106 45.704 575.322 45.296 575.322 44.784C575.322 44.368 575.178 44.048 574.89 43.824C574.602 43.584 574.17 43.4 573.594 43.272L571.314 42.816C570.322 42.608 569.57 42.24 569.058 41.712C568.546 41.184 568.29 40.512 568.29 39.696C568.29 38.96 568.49 38.32 568.89 37.776C569.29 37.232 569.85 36.816 570.57 36.528C571.29 36.224 572.122 36.072 573.066 36.072C573.77 36.072 574.434 36.16 575.058 36.336C575.682 36.512 576.258 36.776 576.786 37.128C576.994 37.24 577.13 37.392 577.194 37.584C577.258 37.76 577.266 37.936 577.218 38.112C577.186 38.288 577.106 38.448 576.978 38.592C576.85 38.72 576.69 38.8 576.498 38.832C576.322 38.848 576.122 38.8 575.898 38.688C575.418 38.384 574.938 38.168 574.458 38.04C573.994 37.912 573.53 37.848 573.066 37.848C572.218 37.848 571.578 38.008 571.146 38.328C570.73 38.632 570.522 39.048 570.522 39.576C570.522 39.976 570.65 40.304 570.906 40.56C571.162 40.816 571.562 41 572.106 41.112L574.386 41.568C575.426 41.776 576.21 42.128 576.738 42.624C577.282 43.12 577.554 43.792 577.554 44.64C577.554 45.744 577.114 46.616 576.234 47.256C575.354 47.896 574.186 48.216 572.73 48.216ZM580.951 48.168C580.567 48.168 580.271 48.064 580.063 47.856C579.855 47.632 579.751 47.328 579.751 46.944V32.136C579.751 31.736 579.855 31.432 580.063 31.224C580.271 31.016 580.567 30.912 580.951 30.912C581.335 30.912 581.631 31.016 581.839 31.224C582.063 31.432 582.175 31.736 582.175 32.136V38.784H581.839C582.191 37.888 582.743 37.216 583.495 36.768C584.247 36.304 585.111 36.072 586.087 36.072C587.015 36.072 587.783 36.248 588.391 36.6C589.015 36.936 589.479 37.456 589.783 38.16C590.087 38.848 590.239 39.72 590.239 40.776V46.944C590.239 47.328 590.135 47.632 589.927 47.856C589.719 48.064 589.423 48.168 589.039 48.168C588.639 48.168 588.335 48.064 588.127 47.856C587.919 47.632 587.815 47.328 587.815 46.944V40.92C587.815 39.912 587.615 39.176 587.215 38.712C586.831 38.248 586.223 38.016 585.391 38.016C584.415 38.016 583.631 38.32 583.039 38.928C582.463 39.536 582.175 40.352 582.175 41.376V46.944C582.175 47.76 581.767 48.168 580.951 48.168ZM596.823 48.216C596.007 48.216 595.271 48.056 594.615 47.736C593.975 47.416 593.471 46.984 593.103 46.44C592.735 45.896 592.551 45.28 592.551 44.592C592.551 43.728 592.767 43.048 593.199 42.552C593.647 42.04 594.375 41.68 595.383 41.472C596.407 41.248 597.783 41.136 599.511 41.136H600.639V42.624H599.535C598.383 42.624 597.471 42.68 596.799 42.792C596.127 42.904 595.647 43.096 595.359 43.368C595.087 43.624 594.951 43.984 594.951 44.448C594.951 45.056 595.159 45.552 595.575 45.936C595.991 46.304 596.567 46.488 597.303 46.488C597.895 46.488 598.415 46.352 598.863 46.08C599.311 45.792 599.663 45.408 599.919 44.928C600.191 44.448 600.327 43.896 600.327 43.272V40.512C600.327 39.6 600.135 38.944 599.751 38.544C599.367 38.144 598.735 37.944 597.855 37.944C597.343 37.944 596.807 38.008 596.247 38.136C595.703 38.264 595.135 38.48 594.543 38.784C594.271 38.912 594.039 38.952 593.847 38.904C593.655 38.856 593.503 38.752 593.391 38.592C593.279 38.416 593.215 38.232 593.199 38.04C593.199 37.832 593.247 37.632 593.343 37.44C593.455 37.248 593.639 37.104 593.895 37.008C594.599 36.672 595.295 36.432 595.983 36.288C596.671 36.144 597.319 36.072 597.927 36.072C598.999 36.072 599.879 36.24 600.567 36.576C601.271 36.912 601.791 37.424 602.127 38.112C602.463 38.8 602.631 39.688 602.631 40.776V46.944C602.631 47.328 602.535 47.632 602.343 47.856C602.151 48.064 601.871 48.168 601.503 48.168C601.151 48.168 600.871 48.064 600.663 47.856C600.455 47.632 600.351 47.328 600.351 46.944V45.384H600.567C600.439 45.976 600.199 46.488 599.847 46.92C599.511 47.336 599.087 47.656 598.575 47.88C598.063 48.104 597.479 48.216 596.823 48.216ZM609.934 48.216C608.91 48.216 608.006 47.976 607.222 47.496C606.454 47 605.854 46.296 605.422 45.384C604.99 44.456 604.774 43.376 604.774 42.144C604.774 40.88 604.99 39.8 605.422 38.904C605.854 38.008 606.454 37.312 607.222 36.816C608.006 36.32 608.91 36.072 609.934 36.072C610.958 36.072 611.838 36.328 612.574 36.84C613.326 37.336 613.83 38.008 614.086 38.856H613.822V32.136C613.822 31.736 613.926 31.432 614.134 31.224C614.342 31.016 614.638 30.912 615.022 30.912C615.406 30.912 615.702 31.016 615.91 31.224C616.134 31.432 616.246 31.736 616.246 32.136V46.944C616.246 47.328 616.142 47.632 615.934 47.856C615.726 48.064 615.43 48.168 615.046 48.168C614.662 48.168 614.366 48.064 614.158 47.856C613.95 47.632 613.846 47.328 613.846 46.944V44.832L614.11 45.36C613.854 46.224 613.35 46.92 612.598 47.448C611.862 47.96 610.974 48.216 609.934 48.216ZM610.558 46.344C611.214 46.344 611.79 46.184 612.286 45.864C612.782 45.544 613.166 45.072 613.438 44.448C613.726 43.824 613.87 43.056 613.87 42.144C613.87 40.768 613.566 39.728 612.958 39.024C612.35 38.32 611.55 37.968 610.558 37.968C609.886 37.968 609.302 38.128 608.806 38.448C608.31 38.752 607.918 39.216 607.63 39.84C607.358 40.464 607.222 41.232 607.222 42.144C607.222 43.504 607.526 44.544 608.134 45.264C608.742 45.984 609.55 46.344 610.558 46.344ZM624.237 48.216C623.053 48.216 622.029 47.968 621.165 47.472C620.317 46.976 619.653 46.272 619.173 45.36C618.693 44.448 618.453 43.376 618.453 42.144C618.453 41.2 618.589 40.36 618.861 39.624C619.133 38.888 619.517 38.256 620.013 37.728C620.525 37.184 621.133 36.776 621.837 36.504C622.557 36.216 623.357 36.072 624.237 36.072C625.405 36.072 626.413 36.32 627.261 36.816C628.125 37.312 628.797 38.016 629.277 38.928C629.757 39.824 629.997 40.896 629.997 42.144C629.997 43.072 629.861 43.912 629.589 44.664C629.317 45.416 628.925 46.056 628.413 46.584C627.917 47.112 627.309 47.52 626.589 47.808C625.885 48.08 625.101 48.216 624.237 48.216ZM624.237 46.344C624.893 46.344 625.469 46.184 625.965 45.864C626.461 45.544 626.845 45.072 627.117 44.448C627.405 43.824 627.549 43.056 627.549 42.144C627.549 40.768 627.245 39.728 626.637 39.024C626.029 38.32 625.229 37.968 624.237 37.968C623.565 37.968 622.981 38.128 622.485 38.448C621.989 38.752 621.597 39.216 621.309 39.84C621.037 40.464 620.901 41.232 620.901 42.144C620.901 43.504 621.205 44.544 621.813 45.264C622.421 45.984 623.229 46.344 624.237 46.344ZM636.281 48.168C635.945 48.168 635.649 48.088 635.393 47.928C635.153 47.752 634.961 47.48 634.817 47.112L631.289 37.776C631.161 37.456 631.121 37.176 631.169 36.936C631.217 36.68 631.337 36.48 631.529 36.336C631.737 36.192 632.001 36.12 632.321 36.12C632.609 36.12 632.841 36.192 633.017 36.336C633.209 36.464 633.369 36.72 633.497 37.104L636.641 45.96H636.065L639.329 37.008C639.441 36.704 639.593 36.48 639.785 36.336C639.977 36.192 640.225 36.12 640.529 36.12C640.833 36.12 641.081 36.192 641.273 36.336C641.481 36.48 641.633 36.704 641.729 37.008L644.921 45.96H644.393L647.585 37.056C647.713 36.688 647.873 36.44 648.065 36.312C648.273 36.184 648.505 36.12 648.761 36.12C649.081 36.12 649.321 36.2 649.481 36.36C649.657 36.52 649.753 36.728 649.769 36.984C649.801 37.224 649.761 37.488 649.649 37.776L646.121 47.112C645.977 47.464 645.777 47.728 645.521 47.904C645.281 48.08 645.001 48.168 644.681 48.168C644.345 48.168 644.049 48.08 643.793 47.904C643.553 47.728 643.361 47.464 643.217 47.112L639.857 38.016H641.057L637.721 47.112C637.593 47.464 637.401 47.728 637.145 47.904C636.905 48.08 636.617 48.168 636.281 48.168ZM655.675 48.216C654.971 48.216 654.243 48.136 653.491 47.976C652.755 47.816 652.075 47.544 651.451 47.16C651.243 47.016 651.099 46.856 651.019 46.68C650.939 46.504 650.907 46.328 650.923 46.152C650.955 45.96 651.027 45.8 651.139 45.672C651.267 45.528 651.419 45.44 651.595 45.408C651.787 45.376 651.987 45.416 652.195 45.528C652.819 45.88 653.419 46.128 653.995 46.272C654.571 46.4 655.139 46.464 655.699 46.464C656.547 46.464 657.187 46.312 657.619 46.008C658.051 45.704 658.267 45.296 658.267 44.784C658.267 44.368 658.123 44.048 657.835 43.824C657.547 43.584 657.115 43.4 656.539 43.272L654.259 42.816C653.267 42.608 652.515 42.24 652.003 41.712C651.491 41.184 651.235 40.512 651.235 39.696C651.235 38.96 651.435 38.32 651.835 37.776C652.235 37.232 652.795 36.816 653.515 36.528C654.235 36.224 655.067 36.072 656.011 36.072C656.715 36.072 657.379 36.16 658.003 36.336C658.627 36.512 659.203 36.776 659.731 37.128C659.939 37.24 660.075 37.392 660.139 37.584C660.203 37.76 660.211 37.936 660.163 38.112C660.131 38.288 660.051 38.448 659.923 38.592C659.795 38.72 659.635 38.8 659.443 38.832C659.267 38.848 659.067 38.8 658.843 38.688C658.363 38.384 657.883 38.168 657.403 38.04C656.939 37.912 656.475 37.848 656.011 37.848C655.163 37.848 654.523 38.008 654.091 38.328C653.675 38.632 653.467 39.048 653.467 39.576C653.467 39.976 653.595 40.304 653.851 40.56C654.107 40.816 654.507 41 655.051 41.112L657.331 41.568C658.371 41.776 659.155 42.128 659.683 42.624C660.227 43.12 660.499 43.792 660.499 44.64C660.499 45.744 660.059 46.616 659.179 47.256C658.299 47.896 657.131 48.216 655.675 48.216Z" fill="#201F1F"/>
<path d="M107.457 98V86.5469H108.973V98H107.457ZM111.473 98V89.7031H112.738V90.8828C113.348 89.9714 114.228 89.5156 115.379 89.5156C115.879 89.5156 116.337 89.6068 116.754 89.7891C117.176 89.9661 117.491 90.2005 117.699 90.4922C117.908 90.7839 118.054 91.1302 118.137 91.5312C118.189 91.7917 118.215 92.2474 118.215 92.8984V98H116.809V92.9531C116.809 92.3802 116.754 91.9531 116.645 91.6719C116.535 91.3854 116.34 91.1589 116.059 90.9922C115.783 90.8203 115.457 90.7344 115.082 90.7344C114.483 90.7344 113.965 90.9245 113.528 91.3047C113.095 91.6849 112.879 92.4062 112.879 93.4688V98H111.473ZM120.379 98V89.7031H121.645V90.8828C122.254 89.9714 123.134 89.5156 124.285 89.5156C124.785 89.5156 125.244 89.6068 125.66 89.7891C126.082 89.9661 126.397 90.2005 126.606 90.4922C126.814 90.7839 126.96 91.1302 127.043 91.5312C127.095 91.7917 127.121 92.2474 127.121 92.8984V98H125.715V92.9531C125.715 92.3802 125.66 91.9531 125.551 91.6719C125.442 91.3854 125.246 91.1589 124.965 90.9922C124.689 90.8203 124.363 90.7344 123.988 90.7344C123.389 90.7344 122.871 90.9245 122.434 91.3047C122.001 91.6849 121.785 92.4062 121.785 93.4688V98H120.379ZM134.965 95.3281L136.418 95.5078C136.189 96.3568 135.764 97.0156 135.145 97.4844C134.525 97.9531 133.733 98.1875 132.77 98.1875C131.556 98.1875 130.593 97.8151 129.879 97.0703C129.171 96.3203 128.817 95.2708 128.817 93.9219C128.817 92.526 129.176 91.4427 129.895 90.6719C130.613 89.901 131.546 89.5156 132.692 89.5156C133.801 89.5156 134.707 89.8932 135.41 90.6484C136.113 91.4036 136.465 92.4661 136.465 93.8359C136.465 93.9193 136.462 94.0443 136.457 94.2109H130.27C130.322 95.1224 130.58 95.8203 131.043 96.3047C131.507 96.7891 132.085 97.0312 132.778 97.0312C133.293 97.0312 133.733 96.8958 134.098 96.625C134.462 96.3542 134.751 95.9219 134.965 95.3281ZM130.348 93.0547H134.981C134.918 92.3568 134.741 91.8333 134.449 91.4844C134.001 90.9427 133.421 90.6719 132.707 90.6719C132.061 90.6719 131.517 90.888 131.074 91.3203C130.637 91.7526 130.395 92.3307 130.348 93.0547ZM138.176 98V89.7031H139.442V90.9609C139.764 90.3724 140.061 89.9844 140.332 89.7969C140.608 89.6094 140.91 89.5156 141.238 89.5156C141.712 89.5156 142.194 89.6667 142.684 89.9688L142.199 91.2734C141.856 91.0703 141.512 90.9688 141.168 90.9688C140.861 90.9688 140.585 91.0625 140.34 91.25C140.095 91.4323 139.921 91.6875 139.817 92.0156C139.66 92.5156 139.582 93.0625 139.582 93.6562V98H138.176ZM96.0041 118.32L97.4338 118.195C97.5015 118.768 97.6577 119.24 97.9025 119.609C98.1525 119.974 98.5379 120.271 99.0588 120.5C99.5796 120.724 100.166 120.836 100.817 120.836C101.395 120.836 101.905 120.75 102.348 120.578C102.791 120.406 103.119 120.172 103.332 119.875C103.551 119.573 103.66 119.245 103.66 118.891C103.66 118.531 103.556 118.219 103.348 117.953C103.139 117.682 102.796 117.456 102.317 117.273C102.009 117.154 101.33 116.969 100.278 116.719C99.2254 116.464 98.4884 116.224 98.0666 116C97.5197 115.714 97.1108 115.359 96.84 114.938C96.5744 114.51 96.4416 114.034 96.4416 113.508C96.4416 112.93 96.6056 112.391 96.9338 111.891C97.2619 111.385 97.741 111.003 98.3713 110.742C99.0015 110.482 99.702 110.352 100.473 110.352C101.322 110.352 102.069 110.49 102.715 110.766C103.366 111.036 103.866 111.438 104.215 111.969C104.564 112.5 104.751 113.102 104.778 113.773L103.324 113.883C103.246 113.159 102.981 112.612 102.528 112.242C102.08 111.872 101.416 111.688 100.535 111.688C99.6186 111.688 98.9494 111.857 98.5275 112.195C98.1108 112.529 97.9025 112.932 97.9025 113.406C97.9025 113.818 98.0509 114.156 98.3478 114.422C98.6395 114.688 99.3999 114.961 100.629 115.242C101.863 115.518 102.71 115.76 103.168 115.969C103.835 116.276 104.327 116.667 104.645 117.141C104.962 117.609 105.121 118.151 105.121 118.766C105.121 119.375 104.947 119.951 104.598 120.492C104.249 121.029 103.746 121.448 103.09 121.75C102.439 122.047 101.705 122.195 100.887 122.195C99.8504 122.195 98.9806 122.044 98.2775 121.742C97.5796 121.44 97.0301 120.987 96.6291 120.383C96.2332 119.773 96.0249 119.086 96.0041 118.32ZM107.012 122V110.547H108.418V114.656C109.074 113.896 109.903 113.516 110.903 113.516C111.517 113.516 112.051 113.638 112.504 113.883C112.957 114.122 113.28 114.456 113.473 114.883C113.671 115.31 113.77 115.93 113.77 116.742V122H112.363V116.742C112.363 116.039 112.21 115.529 111.903 115.211C111.6 114.888 111.171 114.727 110.613 114.727C110.197 114.727 109.804 114.836 109.434 115.055C109.069 115.268 108.809 115.56 108.653 115.93C108.496 116.299 108.418 116.81 108.418 117.461V122H107.012ZM121.332 120.977C120.811 121.419 120.309 121.732 119.824 121.914C119.345 122.096 118.83 122.188 118.278 122.188C117.366 122.188 116.666 121.966 116.176 121.523C115.686 121.076 115.442 120.505 115.442 119.812C115.442 119.406 115.533 119.036 115.715 118.703C115.903 118.365 116.145 118.094 116.442 117.891C116.744 117.688 117.082 117.534 117.457 117.43C117.733 117.357 118.15 117.286 118.707 117.219C119.843 117.083 120.679 116.922 121.215 116.734C121.22 116.542 121.223 116.419 121.223 116.367C121.223 115.794 121.09 115.391 120.824 115.156C120.465 114.839 119.931 114.68 119.223 114.68C118.561 114.68 118.072 114.797 117.754 115.031C117.442 115.26 117.21 115.669 117.059 116.258L115.684 116.07C115.809 115.482 116.014 115.008 116.301 114.648C116.587 114.284 117.001 114.005 117.543 113.812C118.085 113.615 118.712 113.516 119.426 113.516C120.134 113.516 120.71 113.599 121.153 113.766C121.595 113.932 121.921 114.143 122.129 114.398C122.337 114.648 122.483 114.966 122.567 115.352C122.613 115.591 122.637 116.023 122.637 116.648V118.523C122.637 119.831 122.666 120.659 122.723 121.008C122.785 121.352 122.905 121.682 123.082 122H121.613C121.468 121.708 121.374 121.367 121.332 120.977ZM121.215 117.836C120.705 118.044 119.939 118.221 118.918 118.367C118.34 118.451 117.931 118.544 117.692 118.648C117.452 118.753 117.267 118.906 117.137 119.109C117.007 119.307 116.942 119.529 116.942 119.773C116.942 120.148 117.082 120.461 117.363 120.711C117.65 120.961 118.067 121.086 118.613 121.086C119.155 121.086 119.637 120.969 120.059 120.734C120.481 120.495 120.791 120.169 120.988 119.758C121.139 119.44 121.215 118.971 121.215 118.352V117.836ZM130.207 122V120.953C129.681 121.776 128.908 122.188 127.887 122.188C127.225 122.188 126.616 122.005 126.059 121.641C125.507 121.276 125.077 120.768 124.77 120.117C124.468 119.461 124.317 118.708 124.317 117.859C124.317 117.031 124.455 116.281 124.731 115.609C125.007 114.932 125.421 114.414 125.973 114.055C126.525 113.695 127.142 113.516 127.824 113.516C128.324 113.516 128.77 113.622 129.16 113.836C129.551 114.044 129.869 114.318 130.113 114.656V110.547H131.512V122H130.207ZM125.762 117.859C125.762 118.922 125.986 119.716 126.434 120.242C126.882 120.768 127.41 121.031 128.02 121.031C128.634 121.031 129.155 120.781 129.582 120.281C130.014 119.776 130.231 119.008 130.231 117.977C130.231 116.841 130.012 116.008 129.574 115.477C129.137 114.945 128.598 114.68 127.957 114.68C127.332 114.68 126.809 114.935 126.387 115.445C125.97 115.956 125.762 116.76 125.762 117.859ZM133.207 117.852C133.207 116.315 133.634 115.177 134.488 114.438C135.202 113.823 136.072 113.516 137.098 113.516C138.238 113.516 139.171 113.891 139.895 114.641C140.619 115.385 140.981 116.417 140.981 117.734C140.981 118.802 140.819 119.643 140.496 120.258C140.179 120.867 139.712 121.341 139.098 121.68C138.488 122.018 137.822 122.188 137.098 122.188C135.936 122.188 134.996 121.815 134.278 121.07C133.564 120.326 133.207 119.253 133.207 117.852ZM134.653 117.852C134.653 118.914 134.884 119.711 135.348 120.242C135.811 120.768 136.395 121.031 137.098 121.031C137.796 121.031 138.376 120.766 138.84 120.234C139.304 119.703 139.535 118.893 139.535 117.805C139.535 116.779 139.301 116.003 138.832 115.477C138.369 114.945 137.791 114.68 137.098 114.68C136.395 114.68 135.811 114.943 135.348 115.469C134.884 115.995 134.653 116.789 134.653 117.852ZM144.168 122L141.629 113.703H143.082L144.403 118.492L144.895 120.273C144.916 120.185 145.059 119.615 145.324 118.562L146.645 113.703H148.09L149.332 118.516L149.746 120.102L150.223 118.5L151.645 113.703H153.012L150.418 122H148.957L147.637 117.031L147.317 115.617L145.637 122H144.168Z" fill="#201F1F"/>
<path d="M241.086 106.32L242.516 106.195C242.583 106.768 242.74 107.24 242.985 107.609C243.235 107.974 243.62 108.271 244.141 108.5C244.662 108.724 245.248 108.836 245.899 108.836C246.477 108.836 246.987 108.75 247.43 108.578C247.873 108.406 248.201 108.172 248.414 107.875C248.633 107.573 248.742 107.245 248.742 106.891C248.742 106.531 248.638 106.219 248.43 105.953C248.222 105.682 247.878 105.456 247.399 105.273C247.091 105.154 246.412 104.969 245.36 104.719C244.307 104.464 243.57 104.224 243.149 104C242.602 103.714 242.193 103.359 241.922 102.938C241.656 102.51 241.524 102.034 241.524 101.508C241.524 100.93 241.688 100.391 242.016 99.8906C242.344 99.3854 242.823 99.0026 243.453 98.7422C244.083 98.4818 244.784 98.3516 245.555 98.3516C246.404 98.3516 247.151 98.4896 247.797 98.7656C248.448 99.0365 248.948 99.4375 249.297 99.9688C249.646 100.5 249.833 101.102 249.86 101.773L248.406 101.883C248.328 101.159 248.063 100.612 247.61 100.242C247.162 99.8724 246.498 99.6875 245.617 99.6875C244.701 99.6875 244.031 99.8568 243.61 100.195C243.193 100.529 242.985 100.932 242.985 101.406C242.985 101.818 243.133 102.156 243.43 102.422C243.722 102.688 244.482 102.961 245.711 103.242C246.945 103.518 247.792 103.76 248.25 103.969C248.917 104.276 249.409 104.667 249.727 105.141C250.044 105.609 250.203 106.151 250.203 106.766C250.203 107.375 250.029 107.951 249.68 108.492C249.331 109.029 248.828 109.448 248.172 109.75C247.521 110.047 246.787 110.195 245.969 110.195C244.932 110.195 244.063 110.044 243.36 109.742C242.662 109.44 242.112 108.987 241.711 108.383C241.315 107.773 241.107 107.086 241.086 106.32ZM252.094 110V98.5469H253.5V102.656C254.156 101.896 254.985 101.516 255.985 101.516C256.599 101.516 257.133 101.638 257.586 101.883C258.039 102.122 258.362 102.456 258.555 102.883C258.753 103.31 258.852 103.93 258.852 104.742V110H257.445V104.742C257.445 104.039 257.292 103.529 256.985 103.211C256.682 102.888 256.253 102.727 255.695 102.727C255.279 102.727 254.886 102.836 254.516 103.055C254.151 103.268 253.891 103.56 253.735 103.93C253.578 104.299 253.5 104.81 253.5 105.461V110H252.094ZM266.414 108.977C265.893 109.419 265.391 109.732 264.906 109.914C264.427 110.096 263.912 110.188 263.36 110.188C262.448 110.188 261.748 109.966 261.258 109.523C260.768 109.076 260.524 108.505 260.524 107.812C260.524 107.406 260.615 107.036 260.797 106.703C260.985 106.365 261.227 106.094 261.524 105.891C261.826 105.688 262.164 105.534 262.539 105.43C262.815 105.357 263.232 105.286 263.789 105.219C264.925 105.083 265.761 104.922 266.297 104.734C266.302 104.542 266.305 104.419 266.305 104.367C266.305 103.794 266.172 103.391 265.906 103.156C265.547 102.839 265.013 102.68 264.305 102.68C263.643 102.68 263.154 102.797 262.836 103.031C262.524 103.26 262.292 103.669 262.141 104.258L260.766 104.07C260.891 103.482 261.097 103.008 261.383 102.648C261.669 102.284 262.083 102.005 262.625 101.812C263.167 101.615 263.794 101.516 264.508 101.516C265.216 101.516 265.792 101.599 266.235 101.766C266.677 101.932 267.003 102.143 267.211 102.398C267.419 102.648 267.565 102.966 267.649 103.352C267.695 103.591 267.719 104.023 267.719 104.648V106.523C267.719 107.831 267.748 108.659 267.805 109.008C267.867 109.352 267.987 109.682 268.164 110H266.695C266.55 109.708 266.456 109.367 266.414 108.977ZM266.297 105.836C265.787 106.044 265.021 106.221 264 106.367C263.422 106.451 263.013 106.544 262.774 106.648C262.534 106.753 262.349 106.906 262.219 107.109C262.089 107.307 262.024 107.529 262.024 107.773C262.024 108.148 262.164 108.461 262.445 108.711C262.732 108.961 263.149 109.086 263.695 109.086C264.237 109.086 264.719 108.969 265.141 108.734C265.563 108.495 265.873 108.169 266.07 107.758C266.222 107.44 266.297 106.971 266.297 106.352V105.836ZM275.289 110V108.953C274.763 109.776 273.99 110.188 272.969 110.188C272.307 110.188 271.698 110.005 271.141 109.641C270.589 109.276 270.159 108.768 269.852 108.117C269.55 107.461 269.399 106.708 269.399 105.859C269.399 105.031 269.537 104.281 269.813 103.609C270.089 102.932 270.503 102.414 271.055 102.055C271.607 101.695 272.224 101.516 272.906 101.516C273.406 101.516 273.852 101.622 274.242 101.836C274.633 102.044 274.951 102.318 275.195 102.656V98.5469H276.594V110H275.289ZM270.844 105.859C270.844 106.922 271.068 107.716 271.516 108.242C271.964 108.768 272.492 109.031 273.102 109.031C273.716 109.031 274.237 108.781 274.664 108.281C275.097 107.776 275.313 107.008 275.313 105.977C275.313 104.841 275.094 104.008 274.656 103.477C274.219 102.945 273.68 102.68 273.039 102.68C272.414 102.68 271.891 102.935 271.469 103.445C271.052 103.956 270.844 104.76 270.844 105.859ZM278.289 105.852C278.289 104.315 278.716 103.177 279.57 102.438C280.284 101.823 281.154 101.516 282.18 101.516C283.32 101.516 284.253 101.891 284.977 102.641C285.701 103.385 286.063 104.417 286.063 105.734C286.063 106.802 285.901 107.643 285.578 108.258C285.261 108.867 284.794 109.341 284.18 109.68C283.57 110.018 282.904 110.188 282.18 110.188C281.018 110.188 280.078 109.815 279.36 109.07C278.646 108.326 278.289 107.253 278.289 105.852ZM279.735 105.852C279.735 106.914 279.966 107.711 280.43 108.242C280.893 108.768 281.477 109.031 282.18 109.031C282.878 109.031 283.458 108.766 283.922 108.234C284.386 107.703 284.617 106.893 284.617 105.805C284.617 104.779 284.383 104.003 283.914 103.477C283.451 102.945 282.873 102.68 282.18 102.68C281.477 102.68 280.893 102.943 280.43 103.469C279.966 103.995 279.735 104.789 279.735 105.852ZM289.25 110L286.711 101.703H288.164L289.485 106.492L289.977 108.273C289.998 108.185 290.141 107.615 290.406 106.562L291.727 101.703H293.172L294.414 106.516L294.828 108.102L295.305 106.5L296.727 101.703H298.094L295.5 110H294.039L292.719 105.031L292.399 103.617L290.719 110H289.25ZM308.641 110H307.235V101.039C306.896 101.362 306.451 101.685 305.899 102.008C305.352 102.331 304.86 102.573 304.422 102.734V101.375C305.208 101.005 305.896 100.557 306.485 100.031C307.073 99.5052 307.49 98.9948 307.735 98.5H308.641V110Z" fill="#201F1F"/>
<path d="M392.848 106.32L394.278 106.195C394.345 106.768 394.501 107.24 394.746 107.609C394.996 107.974 395.382 108.271 395.903 108.5C396.423 108.724 397.009 108.836 397.66 108.836C398.238 108.836 398.749 108.75 399.192 108.578C399.634 108.406 399.962 108.172 400.176 107.875C400.395 107.573 400.504 107.245 400.504 106.891C400.504 106.531 400.4 106.219 400.192 105.953C399.983 105.682 399.639 105.456 399.16 105.273C398.853 105.154 398.173 104.969 397.121 104.719C396.069 104.464 395.332 104.224 394.91 104C394.363 103.714 393.955 103.359 393.684 102.938C393.418 102.51 393.285 102.034 393.285 101.508C393.285 100.93 393.449 100.391 393.778 99.8906C394.106 99.3854 394.585 99.0026 395.215 98.7422C395.845 98.4818 396.546 98.3516 397.317 98.3516C398.166 98.3516 398.913 98.4896 399.559 98.7656C400.21 99.0365 400.71 99.4375 401.059 99.9688C401.408 100.5 401.595 101.102 401.621 101.773L400.168 101.883C400.09 101.159 399.824 100.612 399.371 100.242C398.923 99.8724 398.259 99.6875 397.379 99.6875C396.462 99.6875 395.793 99.8568 395.371 100.195C394.955 100.529 394.746 100.932 394.746 101.406C394.746 101.818 394.895 102.156 395.192 102.422C395.483 102.688 396.244 102.961 397.473 103.242C398.707 103.518 399.554 103.76 400.012 103.969C400.679 104.276 401.171 104.667 401.488 105.141C401.806 105.609 401.965 106.151 401.965 106.766C401.965 107.375 401.791 107.951 401.442 108.492C401.093 109.029 400.59 109.448 399.934 109.75C399.283 110.047 398.548 110.195 397.731 110.195C396.694 110.195 395.824 110.044 395.121 109.742C394.423 109.44 393.874 108.987 393.473 108.383C393.077 107.773 392.869 107.086 392.848 106.32ZM403.856 110V98.5469H405.262V102.656C405.918 101.896 406.746 101.516 407.746 101.516C408.361 101.516 408.895 101.638 409.348 101.883C409.801 102.122 410.124 102.456 410.317 102.883C410.514 103.31 410.613 103.93 410.613 104.742V110H409.207V104.742C409.207 104.039 409.054 103.529 408.746 103.211C408.444 102.888 408.014 102.727 407.457 102.727C407.041 102.727 406.647 102.836 406.278 103.055C405.913 103.268 405.653 103.56 405.496 103.93C405.34 104.299 405.262 104.81 405.262 105.461V110H403.856ZM418.176 108.977C417.655 109.419 417.153 109.732 416.668 109.914C416.189 110.096 415.673 110.188 415.121 110.188C414.21 110.188 413.509 109.966 413.02 109.523C412.53 109.076 412.285 108.505 412.285 107.812C412.285 107.406 412.376 107.036 412.559 106.703C412.746 106.365 412.988 106.094 413.285 105.891C413.587 105.688 413.926 105.534 414.301 105.43C414.577 105.357 414.994 105.286 415.551 105.219C416.686 105.083 417.522 104.922 418.059 104.734C418.064 104.542 418.067 104.419 418.067 104.367C418.067 103.794 417.934 103.391 417.668 103.156C417.309 102.839 416.775 102.68 416.067 102.68C415.405 102.68 414.916 102.797 414.598 103.031C414.285 103.26 414.054 103.669 413.903 104.258L412.528 104.07C412.653 103.482 412.858 103.008 413.145 102.648C413.431 102.284 413.845 102.005 414.387 101.812C414.929 101.615 415.556 101.516 416.27 101.516C416.978 101.516 417.554 101.599 417.996 101.766C418.439 101.932 418.764 102.143 418.973 102.398C419.181 102.648 419.327 102.966 419.41 103.352C419.457 103.591 419.481 104.023 419.481 104.648V106.523C419.481 107.831 419.509 108.659 419.567 109.008C419.629 109.352 419.749 109.682 419.926 110H418.457C418.311 109.708 418.218 109.367 418.176 108.977ZM418.059 105.836C417.548 106.044 416.783 106.221 415.762 106.367C415.184 106.451 414.775 106.544 414.535 106.648C414.296 106.753 414.111 106.906 413.981 107.109C413.85 107.307 413.785 107.529 413.785 107.773C413.785 108.148 413.926 108.461 414.207 108.711C414.494 108.961 414.91 109.086 415.457 109.086C415.999 109.086 416.481 108.969 416.903 108.734C417.324 108.495 417.634 108.169 417.832 107.758C417.983 107.44 418.059 106.971 418.059 106.352V105.836ZM427.051 110V108.953C426.525 109.776 425.751 110.188 424.731 110.188C424.069 110.188 423.46 110.005 422.903 109.641C422.35 109.276 421.921 108.768 421.613 108.117C421.311 107.461 421.16 106.708 421.16 105.859C421.16 105.031 421.298 104.281 421.574 103.609C421.85 102.932 422.264 102.414 422.817 102.055C423.369 101.695 423.986 101.516 424.668 101.516C425.168 101.516 425.613 101.622 426.004 101.836C426.395 102.044 426.712 102.318 426.957 102.656V98.5469H428.356V110H427.051ZM422.606 105.859C422.606 106.922 422.83 107.716 423.278 108.242C423.725 108.768 424.254 109.031 424.863 109.031C425.478 109.031 425.999 108.781 426.426 108.281C426.858 107.776 427.074 107.008 427.074 105.977C427.074 104.841 426.856 104.008 426.418 103.477C425.981 102.945 425.442 102.68 424.801 102.68C424.176 102.68 423.653 102.935 423.231 103.445C422.814 103.956 422.606 104.76 422.606 105.859ZM430.051 105.852C430.051 104.315 430.478 103.177 431.332 102.438C432.046 101.823 432.916 101.516 433.942 101.516C435.082 101.516 436.014 101.891 436.738 102.641C437.462 103.385 437.824 104.417 437.824 105.734C437.824 106.802 437.663 107.643 437.34 108.258C437.022 108.867 436.556 109.341 435.942 109.68C435.332 110.018 434.666 110.188 433.942 110.188C432.78 110.188 431.84 109.815 431.121 109.07C430.408 108.326 430.051 107.253 430.051 105.852ZM431.496 105.852C431.496 106.914 431.728 107.711 432.192 108.242C432.655 108.768 433.238 109.031 433.942 109.031C434.639 109.031 435.22 108.766 435.684 108.234C436.147 107.703 436.379 106.893 436.379 105.805C436.379 104.779 436.145 104.003 435.676 103.477C435.212 102.945 434.634 102.68 433.942 102.68C433.238 102.68 432.655 102.943 432.192 103.469C431.728 103.995 431.496 104.789 431.496 105.852ZM441.012 110L438.473 101.703H439.926L441.246 106.492L441.738 108.273C441.759 108.185 441.903 107.615 442.168 106.562L443.488 101.703H444.934L446.176 106.516L446.59 108.102L447.067 106.5L448.488 101.703H449.856L447.262 110H445.801L444.481 105.031L444.16 103.617L442.481 110H441.012ZM462.496 108.648V110H454.926C454.916 109.661 454.97 109.336 455.09 109.023C455.283 108.508 455.59 108 456.012 107.5C456.439 107 457.054 106.422 457.856 105.766C459.1 104.745 459.942 103.938 460.379 103.344C460.817 102.745 461.035 102.18 461.035 101.648C461.035 101.091 460.835 100.622 460.434 100.242C460.038 99.8568 459.52 99.6641 458.879 99.6641C458.202 99.6641 457.66 99.8672 457.254 100.273C456.848 100.68 456.642 101.242 456.637 101.961L455.192 101.812C455.291 100.734 455.663 99.9141 456.309 99.3516C456.955 98.7839 457.822 98.5 458.91 98.5C460.009 98.5 460.879 98.8047 461.52 99.4141C462.16 100.023 462.481 100.779 462.481 101.68C462.481 102.138 462.387 102.589 462.199 103.031C462.012 103.474 461.699 103.94 461.262 104.43C460.83 104.919 460.108 105.591 459.098 106.445C458.254 107.154 457.712 107.635 457.473 107.891C457.233 108.141 457.035 108.393 456.879 108.648H462.496Z" fill="#201F1F"/>
<path d="M544.61 106.32L546.039 106.195C546.107 106.768 546.263 107.24 546.508 107.609C546.758 107.974 547.143 108.271 547.664 108.5C548.185 108.724 548.771 108.836 549.422 108.836C550 108.836 550.511 108.75 550.953 108.578C551.396 108.406 551.724 108.172 551.938 107.875C552.156 107.573 552.266 107.245 552.266 106.891C552.266 106.531 552.162 106.219 551.953 105.953C551.745 105.682 551.401 105.456 550.922 105.273C550.615 105.154 549.935 104.969 548.883 104.719C547.831 104.464 547.094 104.224 546.672 104C546.125 103.714 545.716 103.359 545.445 102.938C545.18 102.51 545.047 102.034 545.047 101.508C545.047 100.93 545.211 100.391 545.539 99.8906C545.867 99.3854 546.347 99.0026 546.977 98.7422C547.607 98.4818 548.307 98.3516 549.078 98.3516C549.927 98.3516 550.675 98.4896 551.32 98.7656C551.972 99.0365 552.472 99.4375 552.82 99.9688C553.169 100.5 553.357 101.102 553.383 101.773L551.93 101.883C551.852 101.159 551.586 100.612 551.133 100.242C550.685 99.8724 550.021 99.6875 549.141 99.6875C548.224 99.6875 547.555 99.8568 547.133 100.195C546.716 100.529 546.508 100.932 546.508 101.406C546.508 101.818 546.656 102.156 546.953 102.422C547.245 102.688 548.005 102.961 549.235 103.242C550.469 103.518 551.315 103.76 551.774 103.969C552.44 104.276 552.932 104.667 553.25 105.141C553.568 105.609 553.727 106.151 553.727 106.766C553.727 107.375 553.552 107.951 553.203 108.492C552.854 109.029 552.352 109.448 551.695 109.75C551.044 110.047 550.31 110.195 549.492 110.195C548.456 110.195 547.586 110.044 546.883 109.742C546.185 109.44 545.636 108.987 545.235 108.383C544.839 107.773 544.63 107.086 544.61 106.32ZM555.617 110V98.5469H557.024V102.656C557.68 101.896 558.508 101.516 559.508 101.516C560.123 101.516 560.656 101.638 561.11 101.883C561.563 102.122 561.886 102.456 562.078 102.883C562.276 103.31 562.375 103.93 562.375 104.742V110H560.969V104.742C560.969 104.039 560.815 103.529 560.508 103.211C560.206 102.888 559.776 102.727 559.219 102.727C558.802 102.727 558.409 102.836 558.039 103.055C557.675 103.268 557.414 103.56 557.258 103.93C557.102 104.299 557.024 104.81 557.024 105.461V110H555.617ZM569.938 108.977C569.417 109.419 568.914 109.732 568.43 109.914C567.951 110.096 567.435 110.188 566.883 110.188C565.972 110.188 565.271 109.966 564.781 109.523C564.292 109.076 564.047 108.505 564.047 107.812C564.047 107.406 564.138 107.036 564.32 106.703C564.508 106.365 564.75 106.094 565.047 105.891C565.349 105.688 565.688 105.534 566.063 105.43C566.339 105.357 566.755 105.286 567.313 105.219C568.448 105.083 569.284 104.922 569.82 104.734C569.826 104.542 569.828 104.419 569.828 104.367C569.828 103.794 569.695 103.391 569.43 103.156C569.07 102.839 568.537 102.68 567.828 102.68C567.167 102.68 566.677 102.797 566.36 103.031C566.047 103.26 565.815 103.669 565.664 104.258L564.289 104.07C564.414 103.482 564.62 103.008 564.906 102.648C565.193 102.284 565.607 102.005 566.149 101.812C566.69 101.615 567.318 101.516 568.031 101.516C568.74 101.516 569.315 101.599 569.758 101.766C570.201 101.932 570.526 102.143 570.735 102.398C570.943 102.648 571.089 102.966 571.172 103.352C571.219 103.591 571.242 104.023 571.242 104.648V106.523C571.242 107.831 571.271 108.659 571.328 109.008C571.391 109.352 571.511 109.682 571.688 110H570.219C570.073 109.708 569.979 109.367 569.938 108.977ZM569.82 105.836C569.31 106.044 568.544 106.221 567.524 106.367C566.945 106.451 566.537 106.544 566.297 106.648C566.057 106.753 565.873 106.906 565.742 107.109C565.612 107.307 565.547 107.529 565.547 107.773C565.547 108.148 565.688 108.461 565.969 108.711C566.255 108.961 566.672 109.086 567.219 109.086C567.761 109.086 568.242 108.969 568.664 108.734C569.086 108.495 569.396 108.169 569.594 107.758C569.745 107.44 569.82 106.971 569.82 106.352V105.836ZM578.813 110V108.953C578.287 109.776 577.513 110.188 576.492 110.188C575.831 110.188 575.222 110.005 574.664 109.641C574.112 109.276 573.682 108.768 573.375 108.117C573.073 107.461 572.922 106.708 572.922 105.859C572.922 105.031 573.06 104.281 573.336 103.609C573.612 102.932 574.026 102.414 574.578 102.055C575.13 101.695 575.748 101.516 576.43 101.516C576.93 101.516 577.375 101.622 577.766 101.836C578.156 102.044 578.474 102.318 578.719 102.656V98.5469H580.117V110H578.813ZM574.367 105.859C574.367 106.922 574.591 107.716 575.039 108.242C575.487 108.768 576.016 109.031 576.625 109.031C577.24 109.031 577.761 108.781 578.188 108.281C578.62 107.776 578.836 107.008 578.836 105.977C578.836 104.841 578.617 104.008 578.18 103.477C577.742 102.945 577.203 102.68 576.563 102.68C575.938 102.68 575.414 102.935 574.992 103.445C574.576 103.956 574.367 104.76 574.367 105.859ZM581.813 105.852C581.813 104.315 582.24 103.177 583.094 102.438C583.807 101.823 584.677 101.516 585.703 101.516C586.844 101.516 587.776 101.891 588.5 102.641C589.224 103.385 589.586 104.417 589.586 105.734C589.586 106.802 589.425 107.643 589.102 108.258C588.784 108.867 588.318 109.341 587.703 109.68C587.094 110.018 586.427 110.188 585.703 110.188C584.542 110.188 583.602 109.815 582.883 109.07C582.169 108.326 581.813 107.253 581.813 105.852ZM583.258 105.852C583.258 106.914 583.49 107.711 583.953 108.242C584.417 108.768 585 109.031 585.703 109.031C586.401 109.031 586.982 108.766 587.445 108.234C587.909 107.703 588.141 106.893 588.141 105.805C588.141 104.779 587.906 104.003 587.438 103.477C586.974 102.945 586.396 102.68 585.703 102.68C585 102.68 584.417 102.943 583.953 103.469C583.49 103.995 583.258 104.789 583.258 105.852ZM592.774 110L590.235 101.703H591.688L593.008 106.492L593.5 108.273C593.521 108.185 593.664 107.615 593.93 106.562L595.25 101.703H596.695L597.938 106.516L598.352 108.102L598.828 106.5L600.25 101.703H601.617L599.024 110H597.563L596.242 105.031L595.922 103.617L594.242 110H592.774ZM606.875 106.977L608.281 106.789C608.443 107.586 608.716 108.161 609.102 108.516C609.492 108.865 609.966 109.039 610.524 109.039C611.185 109.039 611.742 108.81 612.195 108.352C612.654 107.893 612.883 107.326 612.883 106.648C612.883 106.003 612.672 105.471 612.25 105.055C611.828 104.633 611.292 104.422 610.641 104.422C610.375 104.422 610.044 104.474 609.649 104.578L609.805 103.344C609.899 103.354 609.974 103.359 610.031 103.359C610.63 103.359 611.169 103.203 611.649 102.891C612.128 102.578 612.367 102.096 612.367 101.445C612.367 100.93 612.193 100.503 611.844 100.164C611.495 99.8255 611.044 99.6562 610.492 99.6562C609.945 99.6562 609.49 99.8281 609.125 100.172C608.761 100.516 608.526 101.031 608.422 101.719L607.016 101.469C607.188 100.526 607.578 99.7969 608.188 99.2812C608.797 98.7604 609.555 98.5 610.461 98.5C611.086 98.5 611.662 98.6354 612.188 98.9062C612.714 99.1719 613.115 99.5365 613.391 100C613.672 100.464 613.813 100.956 613.813 101.477C613.813 101.971 613.68 102.422 613.414 102.828C613.149 103.234 612.755 103.557 612.235 103.797C612.912 103.953 613.438 104.279 613.813 104.773C614.188 105.263 614.375 105.878 614.375 106.617C614.375 107.617 614.011 108.466 613.281 109.164C612.552 109.857 611.63 110.203 610.516 110.203C609.511 110.203 608.675 109.904 608.008 109.305C607.347 108.706 606.969 107.93 606.875 106.977Z" fill="#201F1F"/>
<path d="M696.371 106.32L697.801 106.195C697.869 106.768 698.025 107.24 698.27 107.609C698.52 107.974 698.905 108.271 699.426 108.5C699.947 108.724 700.533 108.836 701.184 108.836C701.762 108.836 702.272 108.75 702.715 108.578C703.158 108.406 703.486 108.172 703.699 107.875C703.918 107.573 704.028 107.245 704.028 106.891C704.028 106.531 703.923 106.219 703.715 105.953C703.507 105.682 703.163 105.456 702.684 105.273C702.376 105.154 701.697 104.969 700.645 104.719C699.593 104.464 698.856 104.224 698.434 104C697.887 103.714 697.478 103.359 697.207 102.938C696.942 102.51 696.809 102.034 696.809 101.508C696.809 100.93 696.973 100.391 697.301 99.8906C697.629 99.3854 698.108 99.0026 698.738 98.7422C699.369 98.4818 700.069 98.3516 700.84 98.3516C701.689 98.3516 702.436 98.4896 703.082 98.7656C703.733 99.0365 704.233 99.4375 704.582 99.9688C704.931 100.5 705.119 101.102 705.145 101.773L703.692 101.883C703.613 101.159 703.348 100.612 702.895 100.242C702.447 99.8724 701.783 99.6875 700.903 99.6875C699.986 99.6875 699.317 99.8568 698.895 100.195C698.478 100.529 698.27 100.932 698.27 101.406C698.27 101.818 698.418 102.156 698.715 102.422C699.007 102.688 699.767 102.961 700.996 103.242C702.231 103.518 703.077 103.76 703.535 103.969C704.202 104.276 704.694 104.667 705.012 105.141C705.33 105.609 705.488 106.151 705.488 106.766C705.488 107.375 705.314 107.951 704.965 108.492C704.616 109.029 704.113 109.448 703.457 109.75C702.806 110.047 702.072 110.195 701.254 110.195C700.218 110.195 699.348 110.044 698.645 109.742C697.947 109.44 697.397 108.987 696.996 108.383C696.6 107.773 696.392 107.086 696.371 106.32ZM707.379 110V98.5469H708.785V102.656C709.442 101.896 710.27 101.516 711.27 101.516C711.884 101.516 712.418 101.638 712.871 101.883C713.324 102.122 713.647 102.456 713.84 102.883C714.038 103.31 714.137 103.93 714.137 104.742V110H712.731V104.742C712.731 104.039 712.577 103.529 712.27 103.211C711.968 102.888 711.538 102.727 710.981 102.727C710.564 102.727 710.171 102.836 709.801 103.055C709.436 103.268 709.176 103.56 709.02 103.93C708.863 104.299 708.785 104.81 708.785 105.461V110H707.379ZM721.699 108.977C721.179 109.419 720.676 109.732 720.192 109.914C719.712 110.096 719.197 110.188 718.645 110.188C717.733 110.188 717.033 109.966 716.543 109.523C716.054 109.076 715.809 108.505 715.809 107.812C715.809 107.406 715.9 107.036 716.082 106.703C716.27 106.365 716.512 106.094 716.809 105.891C717.111 105.688 717.449 105.534 717.824 105.43C718.1 105.357 718.517 105.286 719.074 105.219C720.21 105.083 721.046 104.922 721.582 104.734C721.587 104.542 721.59 104.419 721.59 104.367C721.59 103.794 721.457 103.391 721.192 103.156C720.832 102.839 720.298 102.68 719.59 102.68C718.929 102.68 718.439 102.797 718.121 103.031C717.809 103.26 717.577 103.669 717.426 104.258L716.051 104.07C716.176 103.482 716.382 103.008 716.668 102.648C716.955 102.284 717.369 102.005 717.91 101.812C718.452 101.615 719.08 101.516 719.793 101.516C720.501 101.516 721.077 101.599 721.52 101.766C721.962 101.932 722.288 102.143 722.496 102.398C722.705 102.648 722.85 102.966 722.934 103.352C722.981 103.591 723.004 104.023 723.004 104.648V106.523C723.004 107.831 723.033 108.659 723.09 109.008C723.153 109.352 723.272 109.682 723.449 110H721.981C721.835 109.708 721.741 109.367 721.699 108.977ZM721.582 105.836C721.072 106.044 720.306 106.221 719.285 106.367C718.707 106.451 718.298 106.544 718.059 106.648C717.819 106.753 717.634 106.906 717.504 107.109C717.374 107.307 717.309 107.529 717.309 107.773C717.309 108.148 717.449 108.461 717.731 108.711C718.017 108.961 718.434 109.086 718.981 109.086C719.522 109.086 720.004 108.969 720.426 108.734C720.848 108.495 721.158 108.169 721.356 107.758C721.507 107.44 721.582 106.971 721.582 106.352V105.836ZM730.574 110V108.953C730.048 109.776 729.275 110.188 728.254 110.188C727.593 110.188 726.983 110.005 726.426 109.641C725.874 109.276 725.444 108.768 725.137 108.117C724.835 107.461 724.684 106.708 724.684 105.859C724.684 105.031 724.822 104.281 725.098 103.609C725.374 102.932 725.788 102.414 726.34 102.055C726.892 101.695 727.509 101.516 728.192 101.516C728.692 101.516 729.137 101.622 729.528 101.836C729.918 102.044 730.236 102.318 730.481 102.656V98.5469H731.879V110H730.574ZM726.129 105.859C726.129 106.922 726.353 107.716 726.801 108.242C727.249 108.768 727.778 109.031 728.387 109.031C729.001 109.031 729.522 108.781 729.949 108.281C730.382 107.776 730.598 107.008 730.598 105.977C730.598 104.841 730.379 104.008 729.942 103.477C729.504 102.945 728.965 102.68 728.324 102.68C727.699 102.68 727.176 102.935 726.754 103.445C726.337 103.956 726.129 104.76 726.129 105.859ZM733.574 105.852C733.574 104.315 734.001 103.177 734.856 102.438C735.569 101.823 736.439 101.516 737.465 101.516C738.606 101.516 739.538 101.891 740.262 102.641C740.986 103.385 741.348 104.417 741.348 105.734C741.348 106.802 741.186 107.643 740.863 108.258C740.546 108.867 740.08 109.341 739.465 109.68C738.856 110.018 738.189 110.188 737.465 110.188C736.304 110.188 735.363 109.815 734.645 109.07C733.931 108.326 733.574 107.253 733.574 105.852ZM735.02 105.852C735.02 106.914 735.251 107.711 735.715 108.242C736.179 108.768 736.762 109.031 737.465 109.031C738.163 109.031 738.744 108.766 739.207 108.234C739.671 107.703 739.903 106.893 739.903 105.805C739.903 104.779 739.668 104.003 739.199 103.477C738.736 102.945 738.158 102.68 737.465 102.68C736.762 102.68 736.179 102.943 735.715 103.469C735.251 103.995 735.02 104.789 735.02 105.852ZM744.535 110L741.996 101.703H743.449L744.77 106.492L745.262 108.273C745.283 108.185 745.426 107.615 745.692 106.562L747.012 101.703H748.457L749.699 106.516L750.113 108.102L750.59 106.5L752.012 101.703H753.379L750.785 110H749.324L748.004 105.031L747.684 103.617L746.004 110H744.535ZM763.137 110V107.258H758.168V105.969L763.395 98.5469H764.543V105.969H766.09V107.258H764.543V110H763.137ZM763.137 105.969V100.805L759.551 105.969H763.137Z" fill="#201F1F"/>
<path d="M848.133 106.32L849.563 106.195C849.63 106.768 849.787 107.24 850.031 107.609C850.281 107.974 850.667 108.271 851.188 108.5C851.708 108.724 852.294 108.836 852.945 108.836C853.524 108.836 854.034 108.75 854.477 108.578C854.919 108.406 855.248 108.172 855.461 107.875C855.68 107.573 855.789 107.245 855.789 106.891C855.789 106.531 855.685 106.219 855.477 105.953C855.268 105.682 854.925 105.456 854.445 105.273C854.138 105.154 853.458 104.969 852.406 104.719C851.354 104.464 850.617 104.224 850.195 104C849.649 103.714 849.24 103.359 848.969 102.938C848.703 102.51 848.57 102.034 848.57 101.508C848.57 100.93 848.735 100.391 849.063 99.8906C849.391 99.3854 849.87 99.0026 850.5 98.7422C851.13 98.4818 851.831 98.3516 852.602 98.3516C853.451 98.3516 854.198 98.4896 854.844 98.7656C855.495 99.0365 855.995 99.4375 856.344 99.9688C856.693 100.5 856.88 101.102 856.906 101.773L855.453 101.883C855.375 101.159 855.11 100.612 854.656 100.242C854.208 99.8724 853.544 99.6875 852.664 99.6875C851.748 99.6875 851.078 99.8568 850.656 100.195C850.24 100.529 850.031 100.932 850.031 101.406C850.031 101.818 850.18 102.156 850.477 102.422C850.768 102.688 851.529 102.961 852.758 103.242C853.992 103.518 854.839 103.76 855.297 103.969C855.964 104.276 856.456 104.667 856.774 105.141C857.091 105.609 857.25 106.151 857.25 106.766C857.25 107.375 857.076 107.951 856.727 108.492C856.378 109.029 855.875 109.448 855.219 109.75C854.568 110.047 853.833 110.195 853.016 110.195C851.979 110.195 851.11 110.044 850.406 109.742C849.708 109.44 849.159 108.987 848.758 108.383C848.362 107.773 848.154 107.086 848.133 106.32ZM859.141 110V98.5469H860.547V102.656C861.203 101.896 862.031 101.516 863.031 101.516C863.646 101.516 864.18 101.638 864.633 101.883C865.086 102.122 865.409 102.456 865.602 102.883C865.8 103.31 865.899 103.93 865.899 104.742V110H864.492V104.742C864.492 104.039 864.339 103.529 864.031 103.211C863.729 102.888 863.3 102.727 862.742 102.727C862.326 102.727 861.932 102.836 861.563 103.055C861.198 103.268 860.938 103.56 860.781 103.93C860.625 104.299 860.547 104.81 860.547 105.461V110H859.141ZM873.461 108.977C872.94 109.419 872.438 109.732 871.953 109.914C871.474 110.096 870.958 110.188 870.406 110.188C869.495 110.188 868.794 109.966 868.305 109.523C867.815 109.076 867.57 108.505 867.57 107.812C867.57 107.406 867.662 107.036 867.844 106.703C868.031 106.365 868.274 106.094 868.57 105.891C868.873 105.688 869.211 105.534 869.586 105.43C869.862 105.357 870.279 105.286 870.836 105.219C871.972 105.083 872.807 104.922 873.344 104.734C873.349 104.542 873.352 104.419 873.352 104.367C873.352 103.794 873.219 103.391 872.953 103.156C872.594 102.839 872.06 102.68 871.352 102.68C870.69 102.68 870.201 102.797 869.883 103.031C869.57 103.26 869.339 103.669 869.188 104.258L867.813 104.07C867.938 103.482 868.143 103.008 868.43 102.648C868.716 102.284 869.13 102.005 869.672 101.812C870.214 101.615 870.841 101.516 871.555 101.516C872.263 101.516 872.839 101.599 873.281 101.766C873.724 101.932 874.05 102.143 874.258 102.398C874.466 102.648 874.612 102.966 874.695 103.352C874.742 103.591 874.766 104.023 874.766 104.648V106.523C874.766 107.831 874.794 108.659 874.852 109.008C874.914 109.352 875.034 109.682 875.211 110H873.742C873.597 109.708 873.503 109.367 873.461 108.977ZM873.344 105.836C872.833 106.044 872.068 106.221 871.047 106.367C870.469 106.451 870.06 106.544 869.82 106.648C869.581 106.753 869.396 106.906 869.266 107.109C869.136 107.307 869.07 107.529 869.07 107.773C869.07 108.148 869.211 108.461 869.492 108.711C869.779 108.961 870.195 109.086 870.742 109.086C871.284 109.086 871.766 108.969 872.188 108.734C872.61 108.495 872.919 108.169 873.117 107.758C873.268 107.44 873.344 106.971 873.344 106.352V105.836ZM882.336 110V108.953C881.81 109.776 881.037 110.188 880.016 110.188C879.354 110.188 878.745 110.005 878.188 109.641C877.636 109.276 877.206 108.768 876.899 108.117C876.597 107.461 876.445 106.708 876.445 105.859C876.445 105.031 876.583 104.281 876.86 103.609C877.136 102.932 877.55 102.414 878.102 102.055C878.654 101.695 879.271 101.516 879.953 101.516C880.453 101.516 880.899 101.622 881.289 101.836C881.68 102.044 881.998 102.318 882.242 102.656V98.5469H883.641V110H882.336ZM877.891 105.859C877.891 106.922 878.115 107.716 878.563 108.242C879.011 108.768 879.539 109.031 880.149 109.031C880.763 109.031 881.284 108.781 881.711 108.281C882.143 107.776 882.36 107.008 882.36 105.977C882.36 104.841 882.141 104.008 881.703 103.477C881.266 102.945 880.727 102.68 880.086 102.68C879.461 102.68 878.938 102.935 878.516 103.445C878.099 103.956 877.891 104.76 877.891 105.859ZM885.336 105.852C885.336 104.315 885.763 103.177 886.617 102.438C887.331 101.823 888.201 101.516 889.227 101.516C890.367 101.516 891.3 101.891 892.024 102.641C892.748 103.385 893.11 104.417 893.11 105.734C893.11 106.802 892.948 107.643 892.625 108.258C892.307 108.867 891.841 109.341 891.227 109.68C890.617 110.018 889.951 110.188 889.227 110.188C888.065 110.188 887.125 109.815 886.406 109.07C885.693 108.326 885.336 107.253 885.336 105.852ZM886.781 105.852C886.781 106.914 887.013 107.711 887.477 108.242C887.94 108.768 888.524 109.031 889.227 109.031C889.925 109.031 890.505 108.766 890.969 108.234C891.432 107.703 891.664 106.893 891.664 105.805C891.664 104.779 891.43 104.003 890.961 103.477C890.498 102.945 889.919 102.68 889.227 102.68C888.524 102.68 887.94 102.943 887.477 103.469C887.013 103.995 886.781 104.789 886.781 105.852ZM896.297 110L893.758 101.703H895.211L896.531 106.492L897.024 108.273C897.044 108.185 897.188 107.615 897.453 106.562L898.774 101.703H900.219L901.461 106.516L901.875 108.102L902.352 106.5L903.774 101.703H905.141L902.547 110H901.086L899.766 105.031L899.445 103.617L897.766 110H896.297ZM910.391 107L911.867 106.875C911.977 107.594 912.229 108.135 912.625 108.5C913.026 108.859 913.508 109.039 914.07 109.039C914.748 109.039 915.32 108.784 915.789 108.273C916.258 107.763 916.492 107.086 916.492 106.242C916.492 105.44 916.266 104.807 915.813 104.344C915.365 103.88 914.776 103.648 914.047 103.648C913.594 103.648 913.185 103.753 912.82 103.961C912.456 104.164 912.169 104.43 911.961 104.758L910.641 104.586L911.75 98.7031H917.445V100.047H912.875L912.258 103.125C912.945 102.646 913.667 102.406 914.422 102.406C915.422 102.406 916.266 102.753 916.953 103.445C917.641 104.138 917.985 105.029 917.985 106.117C917.985 107.154 917.682 108.049 917.078 108.805C916.344 109.732 915.341 110.195 914.07 110.195C913.029 110.195 912.177 109.904 911.516 109.32C910.86 108.737 910.485 107.964 910.391 107Z" fill="#201F1F"/>
<path d="M999.895 106.32L1001.32 106.195C1001.39 106.768 1001.55 107.24 1001.79 107.609C1002.04 107.974 1002.43 108.271 1002.95 108.5C1003.47 108.724 1004.06 108.836 1004.71 108.836C1005.29 108.836 1005.8 108.75 1006.24 108.578C1006.68 108.406 1007.01 108.172 1007.22 107.875C1007.44 107.573 1007.55 107.245 1007.55 106.891C1007.55 106.531 1007.45 106.219 1007.24 105.953C1007.03 105.682 1006.69 105.456 1006.21 105.273C1005.9 105.154 1005.22 104.969 1004.17 104.719C1003.12 104.464 1002.38 104.224 1001.96 104C1001.41 103.714 1001 103.359 1000.73 102.938C1000.47 102.51 1000.33 102.034 1000.33 101.508C1000.33 100.93 1000.5 100.391 1000.82 99.8906C1001.15 99.3854 1001.63 99.0026 1002.26 98.7422C1002.89 98.4818 1003.59 98.3516 1004.36 98.3516C1005.21 98.3516 1005.96 98.4896 1006.61 98.7656C1007.26 99.0365 1007.76 99.4375 1008.11 99.9688C1008.45 100.5 1008.64 101.102 1008.67 101.773L1007.22 101.883C1007.14 101.159 1006.87 100.612 1006.42 100.242C1005.97 99.8724 1005.31 99.6875 1004.43 99.6875C1003.51 99.6875 1002.84 99.8568 1002.42 100.195C1002 100.529 1001.79 100.932 1001.79 101.406C1001.79 101.818 1001.94 102.156 1002.24 102.422C1002.53 102.688 1003.29 102.961 1004.52 103.242C1005.75 103.518 1006.6 103.76 1007.06 103.969C1007.73 104.276 1008.22 104.667 1008.54 105.141C1008.85 105.609 1009.01 106.151 1009.01 106.766C1009.01 107.375 1008.84 107.951 1008.49 108.492C1008.14 109.029 1007.64 109.448 1006.98 109.75C1006.33 110.047 1005.6 110.195 1004.78 110.195C1003.74 110.195 1002.87 110.044 1002.17 109.742C1001.47 109.44 1000.92 108.987 1000.52 108.383C1000.12 107.773 999.916 107.086 999.895 106.32ZM1010.9 110V98.5469H1012.31V102.656C1012.97 101.896 1013.79 101.516 1014.79 101.516C1015.41 101.516 1015.94 101.638 1016.39 101.883C1016.85 102.122 1017.17 102.456 1017.36 102.883C1017.56 103.31 1017.66 103.93 1017.66 104.742V110H1016.25V104.742C1016.25 104.039 1016.1 103.529 1015.79 103.211C1015.49 102.888 1015.06 102.727 1014.5 102.727C1014.09 102.727 1013.69 102.836 1013.32 103.055C1012.96 103.268 1012.7 103.56 1012.54 103.93C1012.39 104.299 1012.31 104.81 1012.31 105.461V110H1010.9ZM1025.22 108.977C1024.7 109.419 1024.2 109.732 1023.72 109.914C1023.24 110.096 1022.72 110.188 1022.17 110.188C1021.26 110.188 1020.56 109.966 1020.07 109.523C1019.58 109.076 1019.33 108.505 1019.33 107.812C1019.33 107.406 1019.42 107.036 1019.61 106.703C1019.79 106.365 1020.04 106.094 1020.33 105.891C1020.63 105.688 1020.97 105.534 1021.35 105.43C1021.62 105.357 1022.04 105.286 1022.6 105.219C1023.73 105.083 1024.57 104.922 1025.11 104.734C1025.11 104.542 1025.11 104.419 1025.11 104.367C1025.11 103.794 1024.98 103.391 1024.72 103.156C1024.36 102.839 1023.82 102.68 1023.11 102.68C1022.45 102.68 1021.96 102.797 1021.64 103.031C1021.33 103.26 1021.1 103.669 1020.95 104.258L1019.57 104.07C1019.7 103.482 1019.91 103.008 1020.19 102.648C1020.48 102.284 1020.89 102.005 1021.43 101.812C1021.98 101.615 1022.6 101.516 1023.32 101.516C1024.02 101.516 1024.6 101.599 1025.04 101.766C1025.49 101.932 1025.81 102.143 1026.02 102.398C1026.23 102.648 1026.37 102.966 1026.46 103.352C1026.5 103.591 1026.53 104.023 1026.53 104.648V106.523C1026.53 107.831 1026.56 108.659 1026.61 109.008C1026.68 109.352 1026.8 109.682 1026.97 110H1025.5C1025.36 109.708 1025.26 109.367 1025.22 108.977ZM1025.11 105.836C1024.6 106.044 1023.83 106.221 1022.81 106.367C1022.23 106.451 1021.82 106.544 1021.58 106.648C1021.34 106.753 1021.16 106.906 1021.03 107.109C1020.9 107.307 1020.83 107.529 1020.83 107.773C1020.83 108.148 1020.97 108.461 1021.25 108.711C1021.54 108.961 1021.96 109.086 1022.5 109.086C1023.05 109.086 1023.53 108.969 1023.95 108.734C1024.37 108.495 1024.68 108.169 1024.88 107.758C1025.03 107.44 1025.11 106.971 1025.11 106.352V105.836ZM1034.1 110V108.953C1033.57 109.776 1032.8 110.188 1031.78 110.188C1031.12 110.188 1030.51 110.005 1029.95 109.641C1029.4 109.276 1028.97 108.768 1028.66 108.117C1028.36 107.461 1028.21 106.708 1028.21 105.859C1028.21 105.031 1028.35 104.281 1028.62 103.609C1028.9 102.932 1029.31 102.414 1029.86 102.055C1030.42 101.695 1031.03 101.516 1031.72 101.516C1032.22 101.516 1032.66 101.622 1033.05 101.836C1033.44 102.044 1033.76 102.318 1034 102.656V98.5469H1035.4V110H1034.1ZM1029.65 105.859C1029.65 106.922 1029.88 107.716 1030.32 108.242C1030.77 108.768 1031.3 109.031 1031.91 109.031C1032.52 109.031 1033.05 108.781 1033.47 108.281C1033.91 107.776 1034.12 107.008 1034.12 105.977C1034.12 104.841 1033.9 104.008 1033.47 103.477C1033.03 102.945 1032.49 102.68 1031.85 102.68C1031.22 102.68 1030.7 102.935 1030.28 103.445C1029.86 103.956 1029.65 104.76 1029.65 105.859ZM1037.1 105.852C1037.1 104.315 1037.52 103.177 1038.38 102.438C1039.09 101.823 1039.96 101.516 1040.99 101.516C1042.13 101.516 1043.06 101.891 1043.79 102.641C1044.51 103.385 1044.87 104.417 1044.87 105.734C1044.87 106.802 1044.71 107.643 1044.39 108.258C1044.07 108.867 1043.6 109.341 1042.99 109.68C1042.38 110.018 1041.71 110.188 1040.99 110.188C1039.83 110.188 1038.89 109.815 1038.17 109.07C1037.45 108.326 1037.1 107.253 1037.1 105.852ZM1038.54 105.852C1038.54 106.914 1038.77 107.711 1039.24 108.242C1039.7 108.768 1040.29 109.031 1040.99 109.031C1041.69 109.031 1042.27 108.766 1042.73 108.234C1043.19 107.703 1043.43 106.893 1043.43 105.805C1043.43 104.779 1043.19 104.003 1042.72 103.477C1042.26 102.945 1041.68 102.68 1040.99 102.68C1040.29 102.68 1039.7 102.943 1039.24 103.469C1038.77 103.995 1038.54 104.789 1038.54 105.852ZM1048.06 110L1045.52 101.703H1046.97L1048.29 106.492L1048.79 108.273C1048.81 108.185 1048.95 107.615 1049.22 106.562L1050.54 101.703H1051.98L1053.22 106.516L1053.64 108.102L1054.11 106.5L1055.54 101.703H1056.9L1054.31 110H1052.85L1051.53 105.031L1051.21 103.617L1049.53 110H1048.06ZM1069.45 101.352L1068.05 101.461C1067.93 100.909 1067.75 100.508 1067.52 100.258C1067.14 99.8568 1066.67 99.6562 1066.11 99.6562C1065.67 99.6562 1065.27 99.7812 1064.93 100.031C1064.49 100.354 1064.14 100.826 1063.89 101.445C1063.63 102.065 1063.5 102.948 1063.49 104.094C1063.83 103.578 1064.24 103.195 1064.73 102.945C1065.22 102.695 1065.73 102.57 1066.27 102.57C1067.21 102.57 1068 102.917 1068.66 103.609C1069.32 104.297 1069.65 105.188 1069.65 106.281C1069.65 107 1069.5 107.669 1069.18 108.289C1068.88 108.904 1068.45 109.375 1067.91 109.703C1067.37 110.031 1066.75 110.195 1066.07 110.195C1064.89 110.195 1063.94 109.766 1063.2 108.906C1062.46 108.042 1062.09 106.62 1062.09 104.641C1062.09 102.427 1062.5 100.818 1063.32 99.8125C1064.03 98.9375 1064.99 98.5 1066.2 98.5C1067.1 98.5 1067.84 98.7526 1068.41 99.2578C1068.99 99.763 1069.33 100.461 1069.45 101.352ZM1063.71 106.289C1063.71 106.773 1063.81 107.237 1064.01 107.68C1064.22 108.122 1064.51 108.461 1064.88 108.695C1065.25 108.924 1065.64 109.039 1066.04 109.039C1066.64 109.039 1067.15 108.799 1067.57 108.32C1068 107.841 1068.21 107.19 1068.21 106.367C1068.21 105.576 1068 104.953 1067.58 104.5C1067.16 104.042 1066.63 103.812 1065.99 103.812C1065.35 103.812 1064.81 104.042 1064.37 104.5C1063.93 104.953 1063.71 105.549 1063.71 106.289Z" fill="#201F1F"/>
<g filter="url(#filter0_i_172_18439)">
<rect x="80" y="152" width="142.714" height="180" fill="#2964A0"/>
</g>
<g filter="url(#filter1_dd_172_18439)">
<rect x="222.714" y="152" width="142.714" height="180" fill="#2964A0"/>
</g>
<g filter="url(#filter2_dd_172_18439)">
<rect x="365.429" y="152" width="142.714" height="180" fill="#2964A0"/>
</g>
<g filter="url(#filter3_dd_172_18439)">
<rect x="508.143" y="152" width="142.714" height="180" fill="#2964A0"/>
</g>
<g filter="url(#filter4_dd_172_18439)">
<rect x="650.857" y="152" width="142.714" height="180" fill="#2964A0"/>
</g>
<g filter="url(#filter5_dd_172_18439)">
<rect x="793.571" y="152" width="142.714" height="180" fill="#2964A0"/>
</g>
<g filter="url(#filter6_dd_172_18439)">
<rect x="936.285" y="152" width="142.714" height="180" fill="#2964A0"/>
</g>
</g>
<path d="M8 0.5H1151C1155.14 0.5 1158.5 3.85787 1158.5 8V388C1158.5 392.142 1155.14 395.5 1151 395.5H8C3.85787 395.5 0.5 392.142 0.5 388V8C0.500004 3.85787 3.85787 0.5 8 0.5Z" stroke="#CDCCCB"/>
<defs>
<filter id="filter0_i_172_18439" x="80" y="152" width="142.714" height="181" filterUnits="userSpaceOnUse" color-interpolation-filters="sRGB">
<feFlood flood-opacity="0" result="BackgroundImageFix"/>
<feBlend mode="normal" in="SourceGraphic" in2="BackgroundImageFix" result="shape"/>
<feColorMatrix in="SourceAlpha" type="matrix" values="0 0 0 0 0 0 0 0 0 0 0 0 0 0 0 0 0 0 127 0" result="hardAlpha"/>
<feOffset dy="1"/>
<feGaussianBlur stdDeviation="2"/>
<feComposite in2="hardAlpha" operator="arithmetic" k2="-1" k3="1"/>
<feColorMatrix type="matrix" values="0 0 0 0 0 0 0 0 0 0 0 0 0 0 0 0 0 0 0.31 0"/>
<feBlend mode="normal" in2="shape" result="effect1_innerShadow_172_18439"/>
</filter>
<filter id="filter1_dd_172_18439" x="220.714" y="150" width="146.714" height="185" filterUnits="userSpaceOnUse" color-interpolation-filters="sRGB">
<feFlood flood-opacity="0" result="BackgroundImageFix"/>
<feColorMatrix in="SourceAlpha" type="matrix" values="0 0 0 0 0 0 0 0 0 0 0 0 0 0 0 0 0 0 127 0" result="hardAlpha"/>
<feOffset/>
<feGaussianBlur stdDeviation="1"/>
<feComposite in2="hardAlpha" operator="out"/>
<feColorMatrix type="matrix" values="0 0 0 0 0 0 0 0 0 0 0 0 0 0 0 0 0 0 0.25 0"/>
<feBlend mode="normal" in2="BackgroundImageFix" result="effect1_dropShadow_172_18439"/>
<feColorMatrix in="SourceAlpha" type="matrix" values="0 0 0 0 0 0 0 0 0 0 0 0 0 0 0 0 0 0 127 0" result="hardAlpha"/>
<feOffset dy="1"/>
<feGaussianBlur stdDeviation="1"/>
<feComposite in2="hardAlpha" operator="out"/>
<feColorMatrix type="matrix" values="0 0 0 0 0 0 0 0 0 0 0 0 0 0 0 0 0 0 0.31 0"/>
<feBlend mode="normal" in2="effect1_dropShadow_172_18439" result="effect2_dropShadow_172_18439"/>
<feBlend mode="normal" in="SourceGraphic" in2="effect2_dropShadow_172_18439" result="shape"/>
</filter>
<filter id="filter2_dd_172_18439" x="361.429" y="150" width="150.714" height="188" filterUnits="userSpaceOnUse" color-interpolation-filters="sRGB">
<feFlood flood-opacity="0" result="BackgroundImageFix"/>
<feColorMatrix in="SourceAlpha" type="matrix" values="0 0 0 0 0 0 0 0 0 0 0 0 0 0 0 0 0 0 127 0" result="hardAlpha"/>
<feOffset/>
<feGaussianBlur stdDeviation="1"/>
<feComposite in2="hardAlpha" operator="out"/>
<feColorMatrix type="matrix" values="0 0 0 0 0 0 0 0 0 0 0 0 0 0 0 0 0 0 0.25 0"/>
<feBlend mode="normal" in2="BackgroundImageFix" result="effect1_dropShadow_172_18439"/>
<feColorMatrix in="SourceAlpha" type="matrix" values="0 0 0 0 0 0 0 0 0 0 0 0 0 0 0 0 0 0 127 0" result="hardAlpha"/>
<feOffset dy="2"/>
<feGaussianBlur stdDeviation="2"/>
<feComposite in2="hardAlpha" operator="out"/>
<feColorMatrix type="matrix" values="0 0 0 0 0 0 0 0 0 0 0 0 0 0 0 0 0 0 0.31 0"/>
<feBlend mode="normal" in2="effect1_dropShadow_172_18439" result="effect2_dropShadow_172_18439"/>
<feBlend mode="normal" in="SourceGraphic" in2="effect2_dropShadow_172_18439" result="shape"/>
</filter>
<filter id="filter3_dd_172_18439" x="500.143" y="148" width="158.714" height="196" filterUnits="userSpaceOnUse" color-interpolation-filters="sRGB">
<feFlood flood-opacity="0" result="BackgroundImageFix"/>
<feColorMatrix in="SourceAlpha" type="matrix" values="0 0 0 0 0 0 0 0 0 0 0 0 0 0 0 0 0 0 127 0" result="hardAlpha"/>
<feOffset/>
<feGaussianBlur stdDeviation="1"/>
<feComposite in2="hardAlpha" operator="out"/>
<feColorMatrix type="matrix" values="0 0 0 0 0 0 0 0 0 0 0 0 0 0 0 0 0 0 0.25 0"/>
<feBlend mode="normal" in2="BackgroundImageFix" result="effect1_dropShadow_172_18439"/>
<feColorMatrix in="SourceAlpha" type="matrix" values="0 0 0 0 0 0 0 0 0 0 0 0 0 0 0 0 0 0 127 0" result="hardAlpha"/>
<feOffset dy="4"/>
<feGaussianBlur stdDeviation="4"/>
<feComposite in2="hardAlpha" operator="out"/>
<feColorMatrix type="matrix" values="0 0 0 0 0 0 0 0 0 0 0 0 0 0 0 0 0 0 0.31 0"/>
<feBlend mode="normal" in2="effect1_dropShadow_172_18439" result="effect2_dropShadow_172_18439"/>
<feBlend mode="normal" in="SourceGraphic" in2="effect2_dropShadow_172_18439" result="shape"/>
</filter>
<filter id="filter4_dd_172_18439" x="634.857" y="144" width="174.714" height="212" filterUnits="userSpaceOnUse" color-interpolation-filters="sRGB">
<feFlood flood-opacity="0" result="BackgroundImageFix"/>
<feColorMatrix in="SourceAlpha" type="matrix" values="0 0 0 0 0 0 0 0 0 0 0 0 0 0 0 0 0 0 127 0" result="hardAlpha"/>
<feOffset/>
<feGaussianBlur stdDeviation="1"/>
<feComposite in2="hardAlpha" operator="out"/>
<feColorMatrix type="matrix" values="0 0 0 0 0 0 0 0 0 0 0 0 0 0 0 0 0 0 0.25 0"/>
<feBlend mode="normal" in2="BackgroundImageFix" result="effect1_dropShadow_172_18439"/>
<feColorMatrix in="SourceAlpha" type="matrix" values="0 0 0 0 0 0 0 0 0 0 0 0 0 0 0 0 0 0 127 0" result="hardAlpha"/>
<feOffset dy="8"/>
<feGaussianBlur stdDeviation="8"/>
<feComposite in2="hardAlpha" operator="out"/>
<feColorMatrix type="matrix" values="0 0 0 0 0 0 0 0 0 0 0 0 0 0 0 0 0 0 0.31 0"/>
<feBlend mode="normal" in2="effect1_dropShadow_172_18439" result="effect2_dropShadow_172_18439"/>
<feBlend mode="normal" in="SourceGraphic" in2="effect2_dropShadow_172_18439" result="shape"/>
</filter>
<filter id="filter5_dd_172_18439" x="765.571" y="138" width="198.714" height="236" filterUnits="userSpaceOnUse" color-interpolation-filters="sRGB">
<feFlood flood-opacity="0" result="BackgroundImageFix"/>
<feColorMatrix in="SourceAlpha" type="matrix" values="0 0 0 0 0 0 0 0 0 0 0 0 0 0 0 0 0 0 127 0" result="hardAlpha"/>
<feOffset/>
<feGaussianBlur stdDeviation="4"/>
<feComposite in2="hardAlpha" operator="out"/>
<feColorMatrix type="matrix" values="0 0 0 0 0 0 0 0 0 0 0 0 0 0 0 0 0 0 0.25 0"/>
<feBlend mode="normal" in2="BackgroundImageFix" result="effect1_dropShadow_172_18439"/>
<feColorMatrix in="SourceAlpha" type="matrix" values="0 0 0 0 0 0 0 0 0 0 0 0 0 0 0 0 0 0 127 0" result="hardAlpha"/>
<feOffset dy="14"/>
<feGaussianBlur stdDeviation="14"/>
<feComposite in2="hardAlpha" operator="out"/>
<feColorMatrix type="matrix" values="0 0 0 0 0 0 0 0 0 0 0 0 0 0 0 0 0 0 0.31 0"/>
<feBlend mode="normal" in2="effect1_dropShadow_172_18439" result="effect2_dropShadow_172_18439"/>
<feBlend mode="normal" in="SourceGraphic" in2="effect2_dropShadow_172_18439" result="shape"/>
</filter>
<filter id="filter6_dd_172_18439" x="872.285" y="120" width="270.714" height="308" filterUnits="userSpaceOnUse" color-interpolation-filters="sRGB">
<feFlood flood-opacity="0" result="BackgroundImageFix"/>
<feColorMatrix in="SourceAlpha" type="matrix" values="0 0 0 0 0 0 0 0 0 0 0 0 0 0 0 0 0 0 127 0" result="hardAlpha"/>
<feOffset/>
<feGaussianBlur stdDeviation="4"/>
<feComposite in2="hardAlpha" operator="out"/>
<feColorMatrix type="matrix" values="0 0 0 0 0 0 0 0 0 0 0 0 0 0 0 0 0 0 0.25 0"/>
<feBlend mode="normal" in2="BackgroundImageFix" result="effect1_dropShadow_172_18439"/>
<feColorMatrix in="SourceAlpha" type="matrix" values="0 0 0 0 0 0 0 0 0 0 0 0 0 0 0 0 0 0 127 0" result="hardAlpha"/>
<feOffset dy="32"/>
<feGaussianBlur stdDeviation="32"/>
<feComposite in2="hardAlpha" operator="out"/>
<feColorMatrix type="matrix" values="0 0 0 0 0 0 0 0 0 0 0 0 0 0 0 0 0 0 0.31 0"/>
<feBlend mode="normal" in2="effect1_dropShadow_172_18439" result="effect2_dropShadow_172_18439"/>
<feBlend mode="normal" in="SourceGraphic" in2="effect2_dropShadow_172_18439" result="shape"/>
</filter>
<clipPath id="clip0_172_18439">
<path d="M0 8.00001C0 3.58173 3.58172 0 8 0H1151C1155.42 0 1159 3.58172 1159 8V388C1159 392.418 1155.42 396 1151 396H8.00002C3.58174 396 0 392.418 0 388V8.00001Z" fill="white"/>
</clipPath>
</defs>
</svg>
