<svg viewBox="0 0 20 20" fill="none" xmlns="http://www.w3.org/2000/svg">
<path d="M10 17.5C7.90278 17.5 6.12847 16.7743 4.67708 15.3229C3.22569 13.8715 2.5 12.0972 2.5 9.99996C2.5 8.0833 3.125 6.4201 4.375 5.01038C5.625 3.60066 7.22222 2.77774 9.16667 2.54163C9.34722 2.51385 9.50694 2.53816 9.64583 2.61455C9.78472 2.69093 9.89583 2.79163 9.97917 2.91663C10.0625 3.04163 10.1076 3.18746 10.1146 3.35413C10.1215 3.5208 10.0694 3.68052 9.95833 3.8333C9.72222 4.19441 9.54514 4.57635 9.42708 4.97913C9.30903 5.38191 9.25 5.80552 9.25 6.24996C9.25 7.49996 9.6875 8.56246 10.5625 9.43746C11.4375 10.3125 12.5 10.75 13.75 10.75C14.1806 10.75 14.6076 10.6875 15.0312 10.5625C15.4549 10.4375 15.8333 10.2639 16.1667 10.0416C16.3194 9.94441 16.4757 9.89927 16.6354 9.90621C16.7951 9.91316 16.9375 9.95135 17.0625 10.0208C17.2014 10.0902 17.309 10.1944 17.3854 10.3333C17.4618 10.4722 17.4861 10.6389 17.4583 10.8333C17.2639 12.75 16.4479 14.3402 15.0104 15.6041C13.5729 16.868 11.9028 17.5 10 17.5ZM10 15.8333C11.2222 15.8333 12.3194 15.4965 13.2917 14.8229C14.2639 14.1493 14.9722 13.2708 15.4167 12.1875C15.1389 12.2569 14.8611 12.3125 14.5833 12.3541C14.3056 12.3958 14.0278 12.4166 13.75 12.4166C12.0417 12.4166 10.5868 11.8159 9.38542 10.6145C8.18403 9.41316 7.58333 7.9583 7.58333 6.24996C7.58333 5.97218 7.60417 5.69441 7.64583 5.41663C7.6875 5.13885 7.74306 4.86107 7.8125 4.5833C6.72917 5.02774 5.85069 5.73607 5.17708 6.7083C4.50347 7.68052 4.16667 8.77774 4.16667 9.99996C4.16667 11.6111 4.73611 12.9861 5.875 14.125C7.01389 15.2639 8.38889 15.8333 10 15.8333Z" fill="currentColor"/>
</svg>