<svg viewBox="0 0 20 20" fill="none" xmlns="http://www.w3.org/2000/svg">
<path d="M5.00008 15L3.08341 16.9167C2.81953 17.1806 2.51744 17.2396 2.17716 17.0938C1.83689 16.9479 1.66675 16.6875 1.66675 16.3125V3.33335C1.66675 2.87502 1.82994 2.48266 2.15633 2.15627C2.48272 1.82988 2.87508 1.66669 3.33341 1.66669H16.6667C17.1251 1.66669 17.5174 1.82988 17.8438 2.15627C18.1702 2.48266 18.3334 2.87502 18.3334 3.33335V13.3334C18.3334 13.7917 18.1702 14.184 17.8438 14.5104C17.5174 14.8368 17.1251 15 16.6667 15H5.00008ZM9.16675 9.16669V10.8334C9.16675 11.0695 9.24661 11.2674 9.40633 11.4271C9.56605 11.5868 9.76397 11.6667 10.0001 11.6667C10.2362 11.6667 10.4341 11.5868 10.5938 11.4271C10.7536 11.2674 10.8334 11.0695 10.8334 10.8334V9.16669H12.5001C12.7362 9.16669 12.9341 9.08683 13.0938 8.9271C13.2536 8.76738 13.3334 8.56946 13.3334 8.33335C13.3334 8.09724 13.2536 7.89933 13.0938 7.7396C12.9341 7.57988 12.7362 7.50002 12.5001 7.50002H10.8334V5.83335C10.8334 5.59724 10.7536 5.39933 10.5938 5.2396C10.4341 5.07988 10.2362 5.00002 10.0001 5.00002C9.76397 5.00002 9.56605 5.07988 9.40633 5.2396C9.24661 5.39933 9.16675 5.59724 9.16675 5.83335V7.50002H7.50008C7.26397 7.50002 7.06605 7.57988 6.90633 7.7396C6.74661 7.89933 6.66675 8.09724 6.66675 8.33335C6.66675 8.56946 6.74661 8.76738 6.90633 8.9271C7.06605 9.08683 7.26397 9.16669 7.50008 9.16669H9.16675Z" fill="currentColor"/>
</svg>