<svg viewBox="0 0 20 20" fill="none" xmlns="http://www.w3.org/2000/svg">
<path d="M10.4167 9.95831C10.8194 9.51387 11.1285 9.00692 11.3438 8.43748C11.559 7.86803 11.6667 7.27776 11.6667 6.66665C11.6667 6.05554 11.559 5.46526 11.3438 4.89581C11.1285 4.32637 10.8194 3.81942 10.4167 3.37498C11.25 3.48609 11.9444 3.85415 12.5 4.47915C13.0556 5.10415 13.3333 5.83331 13.3333 6.66665C13.3333 7.49998 13.0556 8.22915 12.5 8.85415C11.9444 9.47915 11.25 9.8472 10.4167 9.95831ZM14.5417 16.6666C14.6944 16.4166 14.809 16.1493 14.8854 15.8646C14.9618 15.5798 15 15.2916 15 15V14.1666C15 13.6666 14.8889 13.191 14.6667 12.7396C14.4444 12.2882 14.1528 11.8889 13.7917 11.5416C14.5 11.7916 15.1562 12.1146 15.7604 12.5104C16.3646 12.9062 16.6667 13.4583 16.6667 14.1666V15C16.6667 15.4583 16.5035 15.8507 16.1771 16.1771C15.8507 16.5035 15.4583 16.6666 15 16.6666H14.5417ZM16.6667 9.16665H15.8333C15.5972 9.16665 15.3993 9.08678 15.2396 8.92706C15.0799 8.76734 15 8.56942 15 8.33331C15 8.0972 15.0799 7.89928 15.2396 7.73956C15.3993 7.57984 15.5972 7.49998 15.8333 7.49998H16.6667V6.66665C16.6667 6.43054 16.7465 6.23262 16.9062 6.0729C17.066 5.91317 17.2639 5.83331 17.5 5.83331C17.7361 5.83331 17.934 5.91317 18.0938 6.0729C18.2535 6.23262 18.3333 6.43054 18.3333 6.66665V7.49998H19.1667C19.4028 7.49998 19.6007 7.57984 19.7604 7.73956C19.9201 7.89928 20 8.0972 20 8.33331C20 8.56942 19.9201 8.76734 19.7604 8.92706C19.6007 9.08678 19.4028 9.16665 19.1667 9.16665H18.3333V9.99998C18.3333 10.2361 18.2535 10.434 18.0938 10.5937C17.934 10.7535 17.7361 10.8333 17.5 10.8333C17.2639 10.8333 17.066 10.7535 16.9062 10.5937C16.7465 10.434 16.6667 10.2361 16.6667 9.99998V9.16665ZM6.66667 9.99998C5.75 9.99998 4.96528 9.67359 4.3125 9.02081C3.65972 8.36803 3.33333 7.58331 3.33333 6.66665C3.33333 5.74998 3.65972 4.96526 4.3125 4.31248C4.96528 3.6597 5.75 3.33331 6.66667 3.33331C7.58333 3.33331 8.36806 3.6597 9.02083 4.31248C9.67361 4.96526 10 5.74998 10 6.66665C10 7.58331 9.67361 8.36803 9.02083 9.02081C8.36806 9.67359 7.58333 9.99998 6.66667 9.99998ZM0 15V14.3333C0 13.8611 0.121528 13.4271 0.364583 13.0312C0.607639 12.6354 0.930556 12.3333 1.33333 12.125C2.19444 11.6944 3.06944 11.3715 3.95833 11.1562C4.84722 10.941 5.75 10.8333 6.66667 10.8333C7.58333 10.8333 8.48611 10.941 9.375 11.1562C10.2639 11.3715 11.1389 11.6944 12 12.125C12.4028 12.3333 12.7257 12.6354 12.9688 13.0312C13.2118 13.4271 13.3333 13.8611 13.3333 14.3333V15C13.3333 15.4583 13.1701 15.8507 12.8438 16.1771C12.5174 16.5035 12.125 16.6666 11.6667 16.6666H1.66667C1.20833 16.6666 0.815972 16.5035 0.489583 16.1771C0.163194 15.8507 0 15.4583 0 15Z" fill="currentColor"/>
</svg>