<svg viewBox="0 0 20 20" fill="none" xmlns="http://www.w3.org/2000/svg">
<path d="M4.16667 17.5C3.70833 17.5 3.31597 17.3368 2.98958 17.0104C2.66319 16.684 2.5 16.2917 2.5 15.8333V4.16667C2.5 3.70833 2.66319 3.31597 2.98958 2.98958C3.31597 2.66319 3.70833 2.5 4.16667 2.5H13.4792C13.7014 2.5 13.9132 2.54167 14.1146 2.625C14.316 2.70833 14.4931 2.82639 14.6458 2.97917L17.0208 5.35417C17.1736 5.50694 17.2917 5.68403 17.375 5.88542C17.4583 6.08681 17.5 6.29861 17.5 6.52083V15.8333C17.5 16.2917 17.3368 16.684 17.0104 17.0104C16.684 17.3368 16.2917 17.5 15.8333 17.5H4.16667ZM15.8333 6.54167L13.4583 4.16667H4.16667V15.8333H15.8333V6.54167ZM10 15C10.6944 15 11.2847 14.7569 11.7708 14.2708C12.2569 13.7847 12.5 13.1944 12.5 12.5C12.5 11.8056 12.2569 11.2153 11.7708 10.7292C11.2847 10.2431 10.6944 10 10 10C9.30556 10 8.71528 10.2431 8.22917 10.7292C7.74306 11.2153 7.5 11.8056 7.5 12.5C7.5 13.1944 7.74306 13.7847 8.22917 14.2708C8.71528 14.7569 9.30556 15 10 15ZM5.83333 8.33333H11.6667C11.9028 8.33333 12.1007 8.25347 12.2604 8.09375C12.4201 7.93403 12.5 7.73611 12.5 7.5V5.83333C12.5 5.59722 12.4201 5.39931 12.2604 5.23958C12.1007 5.07986 11.9028 5 11.6667 5H5.83333C5.59722 5 5.39931 5.07986 5.23958 5.23958C5.07986 5.39931 5 5.59722 5 5.83333V7.5C5 7.73611 5.07986 7.93403 5.23958 8.09375C5.39931 8.25347 5.59722 8.33333 5.83333 8.33333ZM4.16667 6.54167V15.8333V4.16667V6.54167Z" fill="currentColor"/>
</svg>