<svg viewBox="0 0 20 20" fill="none" xmlns="http://www.w3.org/2000/svg">
<path d="M5.83333 17.5H4.16667C3.70833 17.5 3.31597 17.3368 2.98958 17.0104C2.66319 16.684 2.5 16.2917 2.5 15.8333V10C2.5 8.95833 2.69792 7.98264 3.09375 7.07292C3.48958 6.16319 4.02431 5.37153 4.69792 4.69792C5.37153 4.02431 6.16319 3.48958 7.07292 3.09375C7.98264 2.69792 8.95833 2.5 10 2.5C11.0417 2.5 12.0174 2.69792 12.9271 3.09375C13.8368 3.48958 14.6285 4.02431 15.3021 4.69792C15.9757 5.37153 16.5104 6.16319 16.9062 7.07292C17.3021 7.98264 17.5 8.95833 17.5 10V15.8333C17.5 16.2917 17.3368 16.684 17.0104 17.0104C16.684 17.3368 16.2917 17.5 15.8333 17.5H14.1667C13.7083 17.5 13.316 17.3368 12.9896 17.0104C12.6632 16.684 12.5 16.2917 12.5 15.8333V12.5C12.5 12.0417 12.6632 11.6493 12.9896 11.3229C13.316 10.9965 13.7083 10.8333 14.1667 10.8333H15.8333V10C15.8333 8.375 15.2674 6.99653 14.1354 5.86458C13.0035 4.73264 11.625 4.16667 10 4.16667C8.375 4.16667 6.99653 4.73264 5.86458 5.86458C4.73264 6.99653 4.16667 8.375 4.16667 10V10.8333H5.83333C6.29167 10.8333 6.68403 10.9965 7.01042 11.3229C7.33681 11.6493 7.5 12.0417 7.5 12.5V15.8333C7.5 16.2917 7.33681 16.684 7.01042 17.0104C6.68403 17.3368 6.29167 17.5 5.83333 17.5ZM5.83333 12.5H4.16667V15.8333H5.83333V12.5ZM14.1667 12.5V15.8333H15.8333V12.5H14.1667Z" fill="currentColor"/>
</svg>