<svg viewBox="0 0 20 20" fill="none" xmlns="http://www.w3.org/2000/svg">
<path d="M8.83332 11.5L7.04166 9.70835C6.88888 9.55558 6.69443 9.47919 6.45832 9.47919C6.22221 9.47919 6.02777 9.55558 5.87499 9.70835C5.72221 9.86113 5.64582 10.0556 5.64582 10.2917C5.64582 10.5278 5.72221 10.7222 5.87499 10.875L8.24999 13.25C8.41666 13.4167 8.6111 13.5 8.83332 13.5C9.05554 13.5 9.24999 13.4167 9.41666 13.25L14.125 8.54169C14.2778 8.38891 14.3542 8.19446 14.3542 7.95835C14.3542 7.72224 14.2778 7.5278 14.125 7.37502C13.9722 7.22224 13.7778 7.14585 13.5417 7.14585C13.3055 7.14585 13.1111 7.22224 12.9583 7.37502L8.83332 11.5ZM9.99999 18.3334C8.84721 18.3334 7.76388 18.1146 6.74999 17.6771C5.7361 17.2396 4.85416 16.6459 4.10416 15.8959C3.35416 15.1459 2.76041 14.2639 2.32291 13.25C1.88541 12.2361 1.66666 11.1528 1.66666 10C1.66666 8.84724 1.88541 7.76391 2.32291 6.75002C2.76041 5.73613 3.35416 4.85419 4.10416 4.10419C4.85416 3.35419 5.7361 2.76044 6.74999 2.32294C7.76388 1.88544 8.84721 1.66669 9.99999 1.66669C11.1528 1.66669 12.2361 1.88544 13.25 2.32294C14.2639 2.76044 15.1458 3.35419 15.8958 4.10419C16.6458 4.85419 17.2396 5.73613 17.6771 6.75002C18.1146 7.76391 18.3333 8.84724 18.3333 10C18.3333 11.1528 18.1146 12.2361 17.6771 13.25C17.2396 14.2639 16.6458 15.1459 15.8958 15.8959C15.1458 16.6459 14.2639 17.2396 13.25 17.6771C12.2361 18.1146 11.1528 18.3334 9.99999 18.3334Z" fill="currentColor"/>
</svg>