<svg width="724" height="276" viewBox="0 0 724 276" fill="none" xmlns="http://www.w3.org/2000/svg">
<path d="M6 8C6 3.58172 9.58172 0 14 0H352C356.418 0 360 3.58172 360 8V268C360 272.418 356.418 276 352 276H14C9.58172 276 6 272.418 6 268V8Z" fill="#F4F5F4"/>
<g filter="url(#filter0_dd_968_8331)">
<mask id="path-2-outside-1_968_8331" maskUnits="userSpaceOnUse" x="4" y="8" width="358" height="32" fill="black">
<rect fill="white" x="4" y="8" width="358" height="32"/>
<path d="M6 10C6 8.89543 6.89543 8 8 8H358C359.105 8 360 8.89543 360 10V38C360 39.1046 359.105 40 358 40H8.00001C6.89544 40 6 39.1046 6 38V10Z"/>
</mask>
<path d="M6 10C6 8.89543 6.89543 8 8 8H358C359.105 8 360 8.89543 360 10V38C360 39.1046 359.105 40 358 40H8.00001C6.89544 40 6 39.1046 6 38V10Z" fill="#0B8A4D" shape-rendering="crispEdges"/>
<path d="M6 8H360H6ZM360 40H6H360ZM8 40C5.79086 40 4 38.2091 4 36V12C4 9.79086 5.79086 8 8 8C8 8 8 8.89543 8 10V38C8 39.1046 8 40 8 40ZM358 8C360.209 8 362 9.79086 362 12V36C362 38.2091 360.209 40 358 40C358 40 358 39.1046 358 38V10C358 8.89543 358 8 358 8Z" fill="#0B8A4D" mask="url(#path-2-outside-1_968_8331)"/>
<path d="M22.8333 25.5001L21.0416 23.7084C20.8888 23.5556 20.6944 23.4792 20.4583 23.4792C20.2222 23.4792 20.0277 23.5556 19.875 23.7084C19.7222 23.8612 19.6458 24.0556 19.6458 24.2917C19.6458 24.5279 19.7222 24.7223 19.875 24.8751L22.25 27.2501C22.4166 27.4167 22.6111 27.5001 22.8333 27.5001C23.0555 27.5001 23.25 27.4167 23.4166 27.2501L28.125 22.5417C28.2777 22.389 28.3541 22.1945 28.3541 21.9584C28.3541 21.7223 28.2777 21.5279 28.125 21.3751C27.9722 21.2223 27.7777 21.1459 27.5416 21.1459C27.3055 21.1459 27.1111 21.2223 26.9583 21.3751L22.8333 25.5001ZM24 32.3334C22.8472 32.3334 21.7638 32.1147 20.75 31.6772C19.7361 31.2397 18.8541 30.6459 18.1041 29.8959C17.3541 29.1459 16.7604 28.264 16.3229 27.2501C15.8854 26.2362 15.6666 25.1529 15.6666 24.0001C15.6666 22.8473 15.8854 21.764 16.3229 20.7501C16.7604 19.7362 17.3541 18.8542 18.1041 18.1042C18.8541 17.3542 19.7361 16.7605 20.75 16.323C21.7638 15.8855 22.8472 15.6667 24 15.6667C25.1527 15.6667 26.2361 15.8855 27.25 16.323C28.2638 16.7605 29.1458 17.3542 29.8958 18.1042C30.6458 18.8542 31.2395 19.7362 31.677 20.7501C32.1145 21.764 32.3333 22.8473 32.3333 24.0001C32.3333 25.1529 32.1145 26.2362 31.677 27.2501C31.2395 28.264 30.6458 29.1459 29.8958 29.8959C29.1458 30.6459 28.2638 31.2397 27.25 31.6772C26.2361 32.1147 25.1527 32.3334 24 32.3334ZM24 30.6667C25.8611 30.6667 27.4375 30.0209 28.7291 28.7292C30.0208 27.4376 30.6666 25.8612 30.6666 24.0001C30.6666 22.139 30.0208 20.5626 28.7291 19.2709C27.4375 17.9792 25.8611 17.3334 24 17.3334C22.1388 17.3334 20.5625 17.9792 19.2708 19.2709C17.9791 20.5626 17.3333 22.139 17.3333 24.0001C17.3333 25.8612 17.9791 27.4376 19.2708 28.7292C20.5625 30.0209 22.1388 30.6667 24 30.6667Z" fill="white"/>
<path d="M39.248 29.112C39.0347 29.112 38.864 29.064 38.736 28.968C38.608 28.872 38.5333 28.744 38.512 28.584C38.4907 28.424 38.5227 28.2427 38.608 28.04L42.944 18.312C43.0507 18.056 43.184 17.8747 43.344 17.768C43.5147 17.6613 43.7013 17.608 43.904 17.608C44.096 17.608 44.272 17.6613 44.432 17.768C44.6027 17.8747 44.7413 18.056 44.848 18.312L49.184 28.04C49.28 28.2427 49.3173 28.4293 49.296 28.6C49.2747 28.76 49.2053 28.888 49.088 28.984C48.9707 29.0693 48.8053 29.112 48.592 29.112C48.3573 29.112 48.1707 29.0533 48.032 28.936C47.8933 28.8187 47.7707 28.6373 47.664 28.392L46.544 25.8L47.296 26.248H40.48L41.216 25.8L40.112 28.392C40.0053 28.648 39.888 28.8347 39.76 28.952C39.632 29.0587 39.4613 29.112 39.248 29.112ZM43.872 19.56L41.456 25.288L41.056 24.904H46.704L46.336 25.288L43.904 19.56H43.872ZM55.416 29.112C55.16 29.112 54.9573 29.0427 54.808 28.904C54.6693 28.7547 54.6 28.552 54.6 28.296V22.44H53.704C53.5013 22.44 53.3413 22.3867 53.224 22.28C53.1067 22.1627 53.048 22.008 53.048 21.816C53.048 21.6133 53.1067 21.4587 53.224 21.352C53.3413 21.2453 53.5013 21.192 53.704 21.192H55.064L54.6 21.624V21.048C54.6 19.992 54.8613 19.1973 55.384 18.664C55.9067 18.12 56.6693 17.8 57.672 17.704L58.168 17.672C58.3493 17.6507 58.4933 17.6773 58.6 17.752C58.7067 17.8267 58.776 17.9227 58.808 18.04C58.84 18.1573 58.84 18.28 58.808 18.408C58.7867 18.5253 58.7333 18.632 58.648 18.728C58.5627 18.824 58.456 18.8773 58.328 18.888L58.024 18.904C57.3947 18.9573 56.936 19.1387 56.648 19.448C56.36 19.7467 56.216 20.2053 56.216 20.824V21.448L55.992 21.192H57.768C57.992 21.192 58.1573 21.2453 58.264 21.352C58.3813 21.4587 58.44 21.6133 58.44 21.816C58.44 22.008 58.3813 22.1627 58.264 22.28C58.1573 22.3867 57.992 22.44 57.768 22.44H56.216V28.296C56.216 28.84 55.9493 29.112 55.416 29.112ZM61.6008 29.144C61.0568 29.144 60.5661 29.0373 60.1288 28.824C59.7021 28.6107 59.3661 28.3227 59.1208 27.96C58.8754 27.5973 58.7528 27.1867 58.7528 26.728C58.7528 26.152 58.8968 25.6987 59.1848 25.368C59.4834 25.0267 59.9688 24.7867 60.6408 24.648C61.3234 24.4987 62.2408 24.424 63.3928 24.424H64.1448V25.416H63.4088C62.6408 25.416 62.0328 25.4533 61.5848 25.528C61.1368 25.6027 60.8168 25.7307 60.6248 25.912C60.4434 26.0827 60.3528 26.3227 60.3528 26.632C60.3528 27.0373 60.4914 27.368 60.7688 27.624C61.0461 27.8693 61.4301 27.992 61.9208 27.992C62.3154 27.992 62.6621 27.9013 62.9608 27.72C63.2594 27.528 63.4941 27.272 63.6648 26.952C63.8461 26.632 63.9368 26.264 63.9368 25.848V24.008C63.9368 23.4 63.8088 22.9627 63.5528 22.696C63.2968 22.4293 62.8754 22.296 62.2888 22.296C61.9474 22.296 61.5901 22.3387 61.2168 22.424C60.8541 22.5093 60.4754 22.6533 60.0807 22.856C59.8994 22.9413 59.7448 22.968 59.6168 22.936C59.4888 22.904 59.3874 22.8347 59.3128 22.728C59.2381 22.6107 59.1954 22.488 59.1848 22.36C59.1848 22.2213 59.2168 22.088 59.2808 21.96C59.3554 21.832 59.4781 21.736 59.6488 21.672C60.1181 21.448 60.5821 21.288 61.0408 21.192C61.4994 21.096 61.9314 21.048 62.3368 21.048C63.0514 21.048 63.6381 21.16 64.0968 21.384C64.5661 21.608 64.9128 21.9493 65.1368 22.408C65.3608 22.8667 65.4728 23.4587 65.4728 24.184V28.296C65.4728 28.552 65.4088 28.7547 65.2808 28.904C65.1528 29.0427 64.9661 29.112 64.7208 29.112C64.4861 29.112 64.2994 29.0427 64.1608 28.904C64.0221 28.7547 63.9528 28.552 63.9528 28.296V27.256H64.0968C64.0114 27.6507 63.8514 27.992 63.6168 28.28C63.3928 28.5573 63.1101 28.7707 62.7688 28.92C62.4274 29.0693 62.0381 29.144 61.6008 29.144ZM67.9985 29.096C67.7425 29.096 67.5452 29.0213 67.4065 28.872C67.2678 28.712 67.1985 28.4933 67.1985 28.216V21.976C67.1985 21.6987 67.2678 21.4853 67.4065 21.336C67.5452 21.1867 67.7425 21.112 67.9985 21.112C68.2545 21.112 68.4518 21.1867 68.5905 21.336C68.7398 21.4853 68.8145 21.6987 68.8145 21.976V28.216C68.8145 28.4933 68.7452 28.712 68.6065 28.872C68.4678 29.0213 68.2652 29.096 67.9985 29.096ZM67.9985 19.448C67.6785 19.448 67.4278 19.368 67.2465 19.208C67.0758 19.048 66.9905 18.824 66.9905 18.536C66.9905 18.2373 67.0758 18.0133 67.2465 17.864C67.4278 17.704 67.6785 17.624 67.9985 17.624C68.3185 17.624 68.5638 17.704 68.7345 17.864C68.9158 18.0133 69.0065 18.2373 69.0065 18.536C69.0065 18.824 68.9158 19.048 68.7345 19.208C68.5638 19.368 68.3185 19.448 67.9985 19.448ZM71.4051 29.112C71.1385 29.112 70.9358 29.0427 70.7971 28.904C70.6585 28.7547 70.5891 28.552 70.5891 28.296V21.896C70.5891 21.6293 70.6585 21.4267 70.7971 21.288C70.9358 21.1493 71.1278 21.08 71.3731 21.08C71.6291 21.08 71.8211 21.1493 71.9491 21.288C72.0878 21.4267 72.1571 21.6293 72.1571 21.896V23.064H71.9971C72.1678 22.424 72.4825 21.9387 72.9411 21.608C73.3998 21.2773 73.9865 21.0853 74.7011 21.032C74.8931 21.0213 75.0425 21.0693 75.1491 21.176C75.2665 21.2827 75.3305 21.448 75.3411 21.672C75.3625 21.896 75.3145 22.0773 75.1971 22.216C75.0798 22.344 74.8985 22.4187 74.6531 22.44L74.3491 22.472C73.6558 22.536 73.1278 22.7547 72.7651 23.128C72.4025 23.5013 72.2211 24.0133 72.2211 24.664V28.296C72.2211 28.552 72.1518 28.7547 72.0131 28.904C71.8851 29.0427 71.6825 29.112 71.4051 29.112ZM79.6125 29.144C78.7592 29.144 78.0232 28.984 77.4045 28.664C76.7965 28.3333 76.3218 27.8693 75.9805 27.272C75.6498 26.664 75.4845 25.944 75.4845 25.112C75.4845 24.3013 75.6498 23.592 75.9805 22.984C76.3112 22.376 76.7645 21.9013 77.3405 21.56C77.9165 21.2187 78.5725 21.048 79.3085 21.048C79.8525 21.048 80.3378 21.1387 80.7645 21.32C81.1912 21.4907 81.5538 21.7467 81.8525 22.088C82.1618 22.4187 82.3912 22.824 82.5405 23.304C82.7005 23.784 82.7805 24.3227 82.7805 24.92C82.7805 25.1013 82.7272 25.24 82.6205 25.336C82.5138 25.4213 82.3538 25.464 82.1405 25.464H76.7645V24.472H81.6925L81.4205 24.696C81.4205 24.1627 81.3405 23.7093 81.1805 23.336C81.0312 22.9627 80.8018 22.68 80.4925 22.488C80.1938 22.2853 79.8205 22.184 79.3725 22.184C78.8712 22.184 78.4445 22.3013 78.0925 22.536C77.7512 22.7707 77.4898 23.096 77.3085 23.512C77.1272 23.928 77.0365 24.4133 77.0365 24.968V25.064C77.0365 26.0027 77.2552 26.712 77.6925 27.192C78.1405 27.6613 78.7858 27.896 79.6285 27.896C79.9485 27.896 80.2845 27.8533 80.6365 27.768C80.9992 27.6827 81.3405 27.5387 81.6605 27.336C81.8418 27.2293 82.0018 27.1813 82.1405 27.192C82.2898 27.2027 82.4072 27.2507 82.4925 27.336C82.5885 27.4213 82.6472 27.528 82.6685 27.656C82.6898 27.784 82.6685 27.9173 82.6045 28.056C82.5405 28.184 82.4285 28.3013 82.2685 28.408C81.9058 28.6533 81.4845 28.84 81.0045 28.968C80.5245 29.0853 80.0605 29.144 79.6125 29.144Z" fill="white"/>
</g>
<path d="M54.5 56.5H311.5C315.642 56.5 319 59.8579 319 64V244C319 248.142 315.642 251.5 311.5 251.5H54.5C50.3579 251.5 47 248.142 47 244V64L47.0098 63.6143C47.2105 59.6514 50.4872 56.5 54.5 56.5Z" fill="white"/>
<path d="M54.5 56.5H311.5C315.642 56.5 319 59.8579 319 64V244C319 248.142 315.642 251.5 311.5 251.5H54.5C50.3579 251.5 47 248.142 47 244V64L47.0098 63.6143C47.2105 59.6514 50.4872 56.5 54.5 56.5Z" stroke="#A1A1A0"/>
<mask id="path-7-inside-2_968_8331" fill="white">
<path d="M86.5 116C86.5 104.954 95.4543 96 106.5 96H259.5C270.546 96 279.5 104.954 279.5 116C279.5 127.046 270.546 136 259.5 136H106.5C95.4543 136 86.5 127.046 86.5 116Z"/>
</mask>
<path d="M86.5 116C86.5 104.954 95.4543 96 106.5 96H259.5C270.546 96 279.5 104.954 279.5 116C279.5 127.046 270.546 136 259.5 136H106.5C95.4543 136 86.5 127.046 86.5 116Z" fill="white"/>
<path d="M106.5 96V97H259.5V96V95H106.5V96ZM259.5 136V135H106.5V136V137H259.5V136ZM106.5 136V135C96.0066 135 87.5 126.493 87.5 116H86.5H85.5C85.5 127.598 94.902 137 106.5 137V136ZM279.5 116H278.5C278.5 126.493 269.993 135 259.5 135V136V137C271.098 137 280.5 127.598 280.5 116H279.5ZM259.5 96V97C269.993 97 278.5 105.507 278.5 116H279.5H280.5C280.5 104.402 271.098 95 259.5 95V96ZM106.5 96V95C94.902 95 85.5 104.402 85.5 116H86.5H87.5C87.5 105.507 96.0066 97 106.5 97V96Z" fill="#A1A1A0" mask="url(#path-7-inside-2_968_8331)"/>
<circle cx="110.5" cy="116" r="12" fill="#2964A0"/>
<path d="M132.264 120H131.285V111.41H132.34V114.475C132.785 113.916 133.354 113.637 134.045 113.637C134.428 113.637 134.789 113.715 135.129 113.871C135.473 114.023 135.754 114.24 135.973 114.521C136.195 114.799 136.369 115.135 136.494 115.529C136.619 115.924 136.682 116.346 136.682 116.795C136.682 117.861 136.418 118.686 135.891 119.268C135.363 119.85 134.73 120.141 133.992 120.141C133.258 120.141 132.682 119.834 132.264 119.221V120ZM132.252 116.842C132.252 117.588 132.354 118.127 132.557 118.459C132.889 119.002 133.338 119.273 133.904 119.273C134.365 119.273 134.764 119.074 135.1 118.676C135.436 118.273 135.604 117.676 135.604 116.883C135.604 116.07 135.441 115.471 135.117 115.084C134.797 114.697 134.408 114.504 133.951 114.504C133.49 114.504 133.092 114.705 132.756 115.107C132.42 115.506 132.252 116.084 132.252 116.842ZM142.031 119.232C141.641 119.564 141.264 119.799 140.9 119.936C140.541 120.072 140.154 120.141 139.74 120.141C139.057 120.141 138.531 119.975 138.164 119.643C137.797 119.307 137.613 118.879 137.613 118.359C137.613 118.055 137.682 117.777 137.818 117.527C137.959 117.273 138.141 117.07 138.363 116.918C138.59 116.766 138.844 116.65 139.125 116.572C139.332 116.518 139.645 116.465 140.062 116.414C140.914 116.312 141.541 116.191 141.943 116.051C141.947 115.906 141.949 115.814 141.949 115.775C141.949 115.346 141.85 115.043 141.65 114.867C141.381 114.629 140.98 114.51 140.449 114.51C139.953 114.51 139.586 114.598 139.348 114.773C139.113 114.945 138.939 115.252 138.826 115.693L137.795 115.553C137.889 115.111 138.043 114.756 138.258 114.486C138.473 114.213 138.783 114.004 139.189 113.859C139.596 113.711 140.066 113.637 140.602 113.637C141.133 113.637 141.564 113.699 141.896 113.824C142.229 113.949 142.473 114.107 142.629 114.299C142.785 114.486 142.895 114.725 142.957 115.014C142.992 115.193 143.01 115.518 143.01 115.986V117.393C143.01 118.373 143.031 118.994 143.074 119.256C143.121 119.514 143.211 119.762 143.344 120H142.242C142.133 119.781 142.062 119.525 142.031 119.232ZM141.943 116.877C141.561 117.033 140.986 117.166 140.221 117.275C139.787 117.338 139.48 117.408 139.301 117.486C139.121 117.564 138.982 117.68 138.885 117.832C138.787 117.98 138.738 118.146 138.738 118.33C138.738 118.611 138.844 118.846 139.055 119.033C139.27 119.221 139.582 119.314 139.992 119.314C140.398 119.314 140.76 119.227 141.076 119.051C141.393 118.871 141.625 118.627 141.773 118.318C141.887 118.08 141.943 117.729 141.943 117.264V116.877ZM148.711 117.721L149.748 117.855C149.635 118.57 149.344 119.131 148.875 119.537C148.41 119.939 147.838 120.141 147.158 120.141C146.307 120.141 145.621 119.863 145.102 119.309C144.586 118.75 144.328 117.951 144.328 116.912C144.328 116.24 144.439 115.652 144.662 115.148C144.885 114.645 145.223 114.268 145.676 114.018C146.133 113.764 146.629 113.637 147.164 113.637C147.84 113.637 148.393 113.809 148.822 114.152C149.252 114.492 149.527 114.977 149.648 115.605L148.623 115.764C148.525 115.346 148.352 115.031 148.102 114.82C147.855 114.609 147.557 114.504 147.205 114.504C146.674 114.504 146.242 114.695 145.91 115.078C145.578 115.457 145.412 116.059 145.412 116.883C145.412 117.719 145.572 118.326 145.893 118.705C146.213 119.084 146.631 119.273 147.146 119.273C147.561 119.273 147.906 119.146 148.184 118.893C148.461 118.639 148.637 118.248 148.711 117.721ZM150.656 120V111.41H151.711V116.309L154.207 113.777H155.572L153.193 116.086L155.812 120H154.512L152.455 116.818L151.711 117.533V120H150.656ZM156.457 120.516L157.482 120.668C157.525 120.984 157.645 121.215 157.84 121.359C158.102 121.555 158.459 121.652 158.912 121.652C159.4 121.652 159.777 121.555 160.043 121.359C160.309 121.164 160.488 120.891 160.582 120.539C160.637 120.324 160.662 119.873 160.658 119.186C160.197 119.729 159.623 120 158.936 120C158.08 120 157.418 119.691 156.949 119.074C156.48 118.457 156.246 117.717 156.246 116.854C156.246 116.26 156.354 115.713 156.568 115.213C156.783 114.709 157.094 114.32 157.5 114.047C157.91 113.773 158.391 113.637 158.941 113.637C159.676 113.637 160.281 113.934 160.758 114.527V113.777H161.73V119.156C161.73 120.125 161.631 120.811 161.432 121.213C161.236 121.619 160.924 121.939 160.494 122.174C160.068 122.408 159.543 122.525 158.918 122.525C158.176 122.525 157.576 122.357 157.119 122.021C156.662 121.689 156.441 121.188 156.457 120.516ZM157.33 116.777C157.33 117.594 157.492 118.189 157.816 118.564C158.141 118.939 158.547 119.127 159.035 119.127C159.52 119.127 159.926 118.941 160.254 118.57C160.582 118.195 160.746 117.609 160.746 116.812C160.746 116.051 160.576 115.477 160.236 115.09C159.9 114.703 159.494 114.51 159.018 114.51C158.549 114.51 158.15 114.701 157.822 115.084C157.494 115.463 157.33 116.027 157.33 116.777ZM163.318 120V113.777H164.268V114.721C164.51 114.279 164.732 113.988 164.936 113.848C165.143 113.707 165.369 113.637 165.615 113.637C165.971 113.637 166.332 113.75 166.699 113.977L166.336 114.955C166.078 114.803 165.82 114.727 165.562 114.727C165.332 114.727 165.125 114.797 164.941 114.938C164.758 115.074 164.627 115.266 164.549 115.512C164.432 115.887 164.373 116.297 164.373 116.742V120H163.318ZM166.934 116.889C166.934 115.736 167.254 114.883 167.895 114.328C168.43 113.867 169.082 113.637 169.852 113.637C170.707 113.637 171.406 113.918 171.949 114.48C172.492 115.039 172.764 115.812 172.764 116.801C172.764 117.602 172.643 118.232 172.4 118.693C172.162 119.15 171.812 119.506 171.352 119.76C170.895 120.014 170.395 120.141 169.852 120.141C168.98 120.141 168.275 119.861 167.736 119.303C167.201 118.744 166.934 117.939 166.934 116.889ZM168.018 116.889C168.018 117.686 168.191 118.283 168.539 118.682C168.887 119.076 169.324 119.273 169.852 119.273C170.375 119.273 170.811 119.074 171.158 118.676C171.506 118.277 171.68 117.67 171.68 116.854C171.68 116.084 171.504 115.502 171.152 115.107C170.805 114.709 170.371 114.51 169.852 114.51C169.324 114.51 168.887 114.707 168.539 115.102C168.191 115.496 168.018 116.092 168.018 116.889ZM178.084 120V119.086C177.6 119.789 176.941 120.141 176.109 120.141C175.742 120.141 175.398 120.07 175.078 119.93C174.762 119.789 174.525 119.613 174.369 119.402C174.217 119.188 174.109 118.926 174.047 118.617C174.004 118.41 173.982 118.082 173.982 117.633V113.777H175.037V117.229C175.037 117.779 175.059 118.15 175.102 118.342C175.168 118.619 175.309 118.838 175.523 118.998C175.738 119.154 176.004 119.232 176.32 119.232C176.637 119.232 176.934 119.152 177.211 118.992C177.488 118.828 177.684 118.607 177.797 118.33C177.914 118.049 177.973 117.643 177.973 117.111V113.777H179.027V120H178.084ZM180.686 120V113.777H181.635V114.662C182.092 113.979 182.752 113.637 183.615 113.637C183.99 113.637 184.334 113.705 184.646 113.842C184.963 113.975 185.199 114.15 185.355 114.369C185.512 114.588 185.621 114.848 185.684 115.148C185.723 115.344 185.742 115.686 185.742 116.174V120H184.688V116.215C184.688 115.785 184.646 115.465 184.564 115.254C184.482 115.039 184.336 114.869 184.125 114.744C183.918 114.615 183.674 114.551 183.393 114.551C182.943 114.551 182.555 114.693 182.227 114.979C181.902 115.264 181.74 115.805 181.74 116.602V120H180.686ZM191.402 120V119.215C191.008 119.832 190.428 120.141 189.662 120.141C189.166 120.141 188.709 120.004 188.291 119.73C187.877 119.457 187.555 119.076 187.324 118.588C187.098 118.096 186.984 117.531 186.984 116.895C186.984 116.273 187.088 115.711 187.295 115.207C187.502 114.699 187.812 114.311 188.227 114.041C188.641 113.771 189.104 113.637 189.615 113.637C189.99 113.637 190.324 113.717 190.617 113.877C190.91 114.033 191.148 114.238 191.332 114.492V111.41H192.381V120H191.402ZM188.068 116.895C188.068 117.691 188.236 118.287 188.572 118.682C188.908 119.076 189.305 119.273 189.762 119.273C190.223 119.273 190.613 119.086 190.934 118.711C191.258 118.332 191.42 117.756 191.42 116.982C191.42 116.131 191.256 115.506 190.928 115.107C190.6 114.709 190.195 114.51 189.715 114.51C189.246 114.51 188.854 114.701 188.537 115.084C188.225 115.467 188.068 116.07 188.068 116.895ZM193.254 120.146L195.744 111.264H196.588L194.104 120.146H193.254ZM198.357 120H197.379V111.41H198.434V114.475C198.879 113.916 199.447 113.637 200.139 113.637C200.521 113.637 200.883 113.715 201.223 113.871C201.566 114.023 201.848 114.24 202.066 114.521C202.289 114.799 202.463 115.135 202.588 115.529C202.713 115.924 202.775 116.346 202.775 116.795C202.775 117.861 202.512 118.686 201.984 119.268C201.457 119.85 200.824 120.141 200.086 120.141C199.352 120.141 198.775 119.834 198.357 119.221V120ZM198.346 116.842C198.346 117.588 198.447 118.127 198.65 118.459C198.982 119.002 199.432 119.273 199.998 119.273C200.459 119.273 200.857 119.074 201.193 118.676C201.529 118.273 201.697 117.676 201.697 116.883C201.697 116.07 201.535 115.471 201.211 115.084C200.891 114.697 200.502 114.504 200.045 114.504C199.584 114.504 199.186 114.705 198.85 115.107C198.514 115.506 198.346 116.084 198.346 116.842ZM204.053 120V113.777H205.002V114.721C205.244 114.279 205.467 113.988 205.67 113.848C205.877 113.707 206.104 113.637 206.35 113.637C206.705 113.637 207.066 113.75 207.434 113.977L207.07 114.955C206.812 114.803 206.555 114.727 206.297 114.727C206.066 114.727 205.859 114.797 205.676 114.938C205.492 115.074 205.361 115.266 205.283 115.512C205.166 115.887 205.107 116.297 205.107 116.742V120H204.053ZM212.121 119.232C211.73 119.564 211.354 119.799 210.99 119.936C210.631 120.072 210.244 120.141 209.83 120.141C209.146 120.141 208.621 119.975 208.254 119.643C207.887 119.307 207.703 118.879 207.703 118.359C207.703 118.055 207.771 117.777 207.908 117.527C208.049 117.273 208.23 117.07 208.453 116.918C208.68 116.766 208.934 116.65 209.215 116.572C209.422 116.518 209.734 116.465 210.152 116.414C211.004 116.312 211.631 116.191 212.033 116.051C212.037 115.906 212.039 115.814 212.039 115.775C212.039 115.346 211.939 115.043 211.74 114.867C211.471 114.629 211.07 114.51 210.539 114.51C210.043 114.51 209.676 114.598 209.438 114.773C209.203 114.945 209.029 115.252 208.916 115.693L207.885 115.553C207.979 115.111 208.133 114.756 208.348 114.486C208.562 114.213 208.873 114.004 209.279 113.859C209.686 113.711 210.156 113.637 210.691 113.637C211.223 113.637 211.654 113.699 211.986 113.824C212.318 113.949 212.562 114.107 212.719 114.299C212.875 114.486 212.984 114.725 213.047 115.014C213.082 115.193 213.1 115.518 213.1 115.986V117.393C213.1 118.373 213.121 118.994 213.164 119.256C213.211 119.514 213.301 119.762 213.434 120H212.332C212.223 119.781 212.152 119.525 212.121 119.232ZM212.033 116.877C211.65 117.033 211.076 117.166 210.311 117.275C209.877 117.338 209.57 117.408 209.391 117.486C209.211 117.564 209.072 117.68 208.975 117.832C208.877 117.98 208.828 118.146 208.828 118.33C208.828 118.611 208.934 118.846 209.145 119.033C209.359 119.221 209.672 119.314 210.082 119.314C210.488 119.314 210.85 119.227 211.166 119.051C211.482 118.871 211.715 118.627 211.863 118.318C211.977 118.08 212.033 117.729 212.033 117.264V116.877ZM214.74 120V113.777H215.689V114.662C216.146 113.979 216.807 113.637 217.67 113.637C218.045 113.637 218.389 113.705 218.701 113.842C219.018 113.975 219.254 114.15 219.41 114.369C219.566 114.588 219.676 114.848 219.738 115.148C219.777 115.344 219.797 115.686 219.797 116.174V120H218.742V116.215C218.742 115.785 218.701 115.465 218.619 115.254C218.537 115.039 218.391 114.869 218.18 114.744C217.973 114.615 217.729 114.551 217.447 114.551C216.998 114.551 216.609 114.693 216.281 114.979C215.957 115.264 215.795 115.805 215.795 116.602V120H214.74ZM225.457 120V119.215C225.062 119.832 224.482 120.141 223.717 120.141C223.221 120.141 222.764 120.004 222.346 119.73C221.932 119.457 221.609 119.076 221.379 118.588C221.152 118.096 221.039 117.531 221.039 116.895C221.039 116.273 221.143 115.711 221.35 115.207C221.557 114.699 221.867 114.311 222.281 114.041C222.695 113.771 223.158 113.637 223.67 113.637C224.045 113.637 224.379 113.717 224.672 113.877C224.965 114.033 225.203 114.238 225.387 114.492V111.41H226.436V120H225.457ZM222.123 116.895C222.123 117.691 222.291 118.287 222.627 118.682C222.963 119.076 223.359 119.273 223.816 119.273C224.277 119.273 224.668 119.086 224.988 118.711C225.312 118.332 225.475 117.756 225.475 116.982C225.475 116.131 225.311 115.506 224.982 115.107C224.654 114.709 224.25 114.51 223.77 114.51C223.301 114.51 222.908 114.701 222.592 115.084C222.279 115.467 222.123 116.07 222.123 116.895ZM227.689 117.422V116.361H230.93V117.422H227.689ZM236.133 120V119.215C235.738 119.832 235.158 120.141 234.393 120.141C233.896 120.141 233.439 120.004 233.021 119.73C232.607 119.457 232.285 119.076 232.055 118.588C231.828 118.096 231.715 117.531 231.715 116.895C231.715 116.273 231.818 115.711 232.025 115.207C232.232 114.699 232.543 114.311 232.957 114.041C233.371 113.771 233.834 113.637 234.346 113.637C234.721 113.637 235.055 113.717 235.348 113.877C235.641 114.033 235.879 114.238 236.062 114.492V111.41H237.111V120H236.133ZM232.799 116.895C232.799 117.691 232.967 118.287 233.303 118.682C233.639 119.076 234.035 119.273 234.492 119.273C234.953 119.273 235.344 119.086 235.664 118.711C235.988 118.332 236.15 117.756 236.15 116.982C236.15 116.131 235.986 115.506 235.658 115.107C235.33 114.709 234.926 114.51 234.445 114.51C233.977 114.51 233.584 114.701 233.268 115.084C232.955 115.467 232.799 116.07 232.799 116.895ZM243.035 117.996L244.125 118.131C243.953 118.768 243.635 119.262 243.17 119.613C242.705 119.965 242.111 120.141 241.389 120.141C240.479 120.141 239.756 119.861 239.221 119.303C238.689 118.74 238.424 117.953 238.424 116.941C238.424 115.895 238.693 115.082 239.232 114.504C239.771 113.926 240.471 113.637 241.33 113.637C242.162 113.637 242.842 113.92 243.369 114.486C243.896 115.053 244.16 115.85 244.16 116.877C244.16 116.939 244.158 117.033 244.154 117.158H239.514C239.553 117.842 239.746 118.365 240.094 118.729C240.441 119.092 240.875 119.273 241.395 119.273C241.781 119.273 242.111 119.172 242.385 118.969C242.658 118.766 242.875 118.441 243.035 117.996ZM239.572 116.291H243.047C243 115.768 242.867 115.375 242.648 115.113C242.312 114.707 241.877 114.504 241.342 114.504C240.857 114.504 240.449 114.666 240.117 114.99C239.789 115.314 239.607 115.748 239.572 116.291ZM245.707 120V114.598H244.775V113.777H245.707V113.115C245.707 112.697 245.744 112.387 245.818 112.184C245.92 111.91 246.098 111.689 246.352 111.521C246.609 111.35 246.969 111.264 247.43 111.264C247.727 111.264 248.055 111.299 248.414 111.369L248.256 112.289C248.037 112.25 247.83 112.23 247.635 112.23C247.314 112.23 247.088 112.299 246.955 112.436C246.822 112.572 246.756 112.828 246.756 113.203V113.777H247.969V114.598H246.756V120H245.707ZM252.855 119.232C252.465 119.564 252.088 119.799 251.725 119.936C251.365 120.072 250.979 120.141 250.564 120.141C249.881 120.141 249.355 119.975 248.988 119.643C248.621 119.307 248.438 118.879 248.438 118.359C248.438 118.055 248.506 117.777 248.643 117.527C248.783 117.273 248.965 117.07 249.188 116.918C249.414 116.766 249.668 116.65 249.949 116.572C250.156 116.518 250.469 116.465 250.887 116.414C251.738 116.312 252.365 116.191 252.768 116.051C252.771 115.906 252.773 115.814 252.773 115.775C252.773 115.346 252.674 115.043 252.475 114.867C252.205 114.629 251.805 114.51 251.273 114.51C250.777 114.51 250.41 114.598 250.172 114.773C249.938 114.945 249.764 115.252 249.65 115.693L248.619 115.553C248.713 115.111 248.867 114.756 249.082 114.486C249.297 114.213 249.607 114.004 250.014 113.859C250.42 113.711 250.891 113.637 251.426 113.637C251.957 113.637 252.389 113.699 252.721 113.824C253.053 113.949 253.297 114.107 253.453 114.299C253.609 114.486 253.719 114.725 253.781 115.014C253.816 115.193 253.834 115.518 253.834 115.986V117.393C253.834 118.373 253.855 118.994 253.898 119.256C253.945 119.514 254.035 119.762 254.168 120H253.066C252.957 119.781 252.887 119.525 252.855 119.232ZM252.768 116.877C252.385 117.033 251.811 117.166 251.045 117.275C250.611 117.338 250.305 117.408 250.125 117.486C249.945 117.564 249.807 117.68 249.709 117.832C249.611 117.98 249.562 118.146 249.562 118.33C249.562 118.611 249.668 118.846 249.879 119.033C250.094 119.221 250.406 119.314 250.816 119.314C251.223 119.314 251.584 119.227 251.9 119.051C252.217 118.871 252.449 118.627 252.598 118.318C252.711 118.08 252.768 117.729 252.768 117.264V116.877ZM259.553 120V119.086C259.068 119.789 258.41 120.141 257.578 120.141C257.211 120.141 256.867 120.07 256.547 119.93C256.23 119.789 255.994 119.613 255.838 119.402C255.686 119.188 255.578 118.926 255.516 118.617C255.473 118.41 255.451 118.082 255.451 117.633V113.777H256.506V117.229C256.506 117.779 256.527 118.15 256.57 118.342C256.637 118.619 256.777 118.838 256.992 118.998C257.207 119.154 257.473 119.232 257.789 119.232C258.105 119.232 258.402 119.152 258.68 118.992C258.957 118.828 259.152 118.607 259.266 118.33C259.383 118.049 259.441 117.643 259.441 117.111V113.777H260.496V120H259.553ZM262.131 120V111.41H263.186V120H262.131ZM267.129 119.057L267.281 119.988C266.984 120.051 266.719 120.082 266.484 120.082C266.102 120.082 265.805 120.021 265.594 119.9C265.383 119.779 265.234 119.621 265.148 119.426C265.062 119.227 265.02 118.811 265.02 118.178V114.598H264.246V113.777H265.02V112.236L266.068 111.604V113.777H267.129V114.598H266.068V118.236C266.068 118.537 266.086 118.73 266.121 118.816C266.16 118.902 266.221 118.971 266.303 119.021C266.389 119.072 266.51 119.098 266.666 119.098C266.783 119.098 266.938 119.084 267.129 119.057Z" fill="#3E3E3D"/>
<path d="M182.646 172.354C182.842 172.549 183.158 172.549 183.354 172.354L186.536 169.172C186.731 168.976 186.731 168.66 186.536 168.464C186.34 168.269 186.024 168.269 185.828 168.464L183 171.293L180.172 168.464C179.976 168.269 179.66 168.269 179.464 168.464C179.269 168.66 179.269 168.976 179.464 169.172L182.646 172.354ZM183 136H182.5V172H183H183.5V136H183Z" fill="#A1A1A0"/>
<path d="M135 180C135 175.582 138.582 172 143 172H224C228.418 172 232 175.582 232 180V204C232 208.418 228.418 212 224 212H143C138.582 212 135 208.418 135 204V180Z" fill="#2964A0"/>
<path d="M161.7 199C161.367 199 161.107 198.907 160.92 198.72C160.733 198.533 160.64 198.273 160.64 197.94V185.88C160.64 185.533 160.727 185.273 160.9 185.1C161.087 184.913 161.347 184.82 161.68 184.82C162.013 184.82 162.267 184.913 162.44 185.1C162.627 185.273 162.72 185.533 162.72 185.88V197.22H168.92C169.213 197.22 169.44 197.3 169.6 197.46C169.76 197.607 169.84 197.82 169.84 198.1C169.84 198.38 169.76 198.6 169.6 198.76C169.44 198.92 169.213 199 168.92 199H161.7ZM174.075 199.18C173.395 199.18 172.782 199.047 172.235 198.78C171.702 198.513 171.282 198.153 170.975 197.7C170.668 197.247 170.515 196.733 170.515 196.16C170.515 195.44 170.695 194.873 171.055 194.46C171.428 194.033 172.035 193.733 172.875 193.56C173.728 193.373 174.875 193.28 176.315 193.28H177.255V194.52H176.335C175.375 194.52 174.615 194.567 174.055 194.66C173.495 194.753 173.095 194.913 172.855 195.14C172.628 195.353 172.515 195.653 172.515 196.04C172.515 196.547 172.688 196.96 173.035 197.28C173.382 197.587 173.862 197.74 174.475 197.74C174.968 197.74 175.402 197.627 175.775 197.4C176.148 197.16 176.442 196.84 176.655 196.44C176.882 196.04 176.995 195.58 176.995 195.06V192.76C176.995 192 176.835 191.453 176.515 191.12C176.195 190.787 175.668 190.62 174.935 190.62C174.508 190.62 174.062 190.673 173.595 190.78C173.142 190.887 172.668 191.067 172.175 191.32C171.948 191.427 171.755 191.46 171.595 191.42C171.435 191.38 171.308 191.293 171.215 191.16C171.122 191.013 171.068 190.86 171.055 190.7C171.055 190.527 171.095 190.36 171.175 190.2C171.268 190.04 171.422 189.92 171.635 189.84C172.222 189.56 172.802 189.36 173.375 189.24C173.948 189.12 174.488 189.06 174.995 189.06C175.888 189.06 176.622 189.2 177.195 189.48C177.782 189.76 178.215 190.187 178.495 190.76C178.775 191.333 178.915 192.073 178.915 192.98V198.12C178.915 198.44 178.835 198.693 178.675 198.88C178.515 199.053 178.282 199.14 177.975 199.14C177.682 199.14 177.448 199.053 177.275 198.88C177.102 198.693 177.015 198.44 177.015 198.12V196.82H177.195C177.088 197.313 176.888 197.74 176.595 198.1C176.315 198.447 175.962 198.713 175.535 198.9C175.108 199.087 174.622 199.18 174.075 199.18ZM186.437 199.18C185.584 199.18 184.844 198.967 184.217 198.54C183.591 198.1 183.171 197.52 182.957 196.8L183.177 196.44V198.12C183.177 198.44 183.091 198.693 182.917 198.88C182.744 199.053 182.504 199.14 182.197 199.14C181.877 199.14 181.631 199.053 181.457 198.88C181.284 198.693 181.197 198.44 181.197 198.12V185.78C181.197 185.447 181.284 185.193 181.457 185.02C181.631 184.847 181.877 184.76 182.197 184.76C182.517 184.76 182.764 184.847 182.937 185.02C183.124 185.193 183.217 185.447 183.217 185.78V191.38H182.977C183.191 190.673 183.611 190.113 184.237 189.7C184.864 189.273 185.597 189.06 186.437 189.06C187.317 189.06 188.077 189.267 188.717 189.68C189.357 190.093 189.851 190.673 190.197 191.42C190.557 192.167 190.737 193.067 190.737 194.12C190.737 195.147 190.557 196.047 190.197 196.82C189.851 197.58 189.351 198.167 188.697 198.58C188.057 198.98 187.304 199.18 186.437 199.18ZM185.937 197.62C186.497 197.62 186.984 197.487 187.397 197.22C187.811 196.953 188.131 196.56 188.357 196.04C188.584 195.52 188.697 194.88 188.697 194.12C188.697 192.973 188.444 192.107 187.937 191.52C187.444 190.933 186.777 190.64 185.937 190.64C185.391 190.64 184.904 190.773 184.477 191.04C184.064 191.293 183.744 191.68 183.517 192.2C183.291 192.72 183.177 193.36 183.177 194.12C183.177 195.253 183.431 196.12 183.937 196.72C184.444 197.32 185.111 197.62 185.937 197.62ZM197.094 199.18C196.027 199.18 195.107 198.98 194.334 198.58C193.574 198.167 192.98 197.587 192.554 196.84C192.14 196.08 191.934 195.18 191.934 194.14C191.934 193.127 192.14 192.24 192.554 191.48C192.967 190.72 193.534 190.127 194.254 189.7C194.974 189.273 195.794 189.06 196.714 189.06C197.394 189.06 198 189.173 198.534 189.4C199.067 189.613 199.52 189.933 199.894 190.36C200.28 190.773 200.567 191.28 200.754 191.88C200.954 192.48 201.054 193.153 201.054 193.9C201.054 194.127 200.987 194.3 200.854 194.42C200.72 194.527 200.52 194.58 200.254 194.58H193.534V193.34H199.694L199.354 193.62C199.354 192.953 199.254 192.387 199.054 191.92C198.867 191.453 198.58 191.1 198.194 190.86C197.82 190.607 197.354 190.48 196.794 190.48C196.167 190.48 195.634 190.627 195.194 190.92C194.767 191.213 194.44 191.62 194.214 192.14C193.987 192.66 193.874 193.267 193.874 193.96V194.08C193.874 195.253 194.147 196.14 194.694 196.74C195.254 197.327 196.06 197.62 197.114 197.62C197.514 197.62 197.934 197.567 198.374 197.46C198.827 197.353 199.254 197.173 199.654 196.92C199.88 196.787 200.08 196.727 200.254 196.74C200.44 196.753 200.587 196.813 200.694 196.92C200.814 197.027 200.887 197.16 200.914 197.32C200.94 197.48 200.914 197.647 200.834 197.82C200.754 197.98 200.614 198.127 200.414 198.26C199.96 198.567 199.434 198.8 198.834 198.96C198.234 199.107 197.654 199.18 197.094 199.18ZM205.896 199.18C204.856 199.18 204.069 198.88 203.536 198.28C203.016 197.667 202.756 196.787 202.756 195.64V185.78C202.756 185.447 202.843 185.193 203.016 185.02C203.189 184.847 203.436 184.76 203.756 184.76C204.076 184.76 204.323 184.847 204.496 185.02C204.683 185.193 204.776 185.447 204.776 185.78V195.52C204.776 196.187 204.909 196.687 205.176 197.02C205.456 197.34 205.856 197.5 206.376 197.5C206.496 197.5 206.603 197.5 206.696 197.5C206.789 197.487 206.883 197.473 206.976 197.46C207.136 197.447 207.249 197.493 207.316 197.6C207.383 197.693 207.416 197.893 207.416 198.2C207.416 198.48 207.356 198.7 207.236 198.86C207.116 199.007 206.923 199.1 206.656 199.14C206.536 199.153 206.409 199.16 206.276 199.16C206.143 199.173 206.016 199.18 205.896 199.18Z" fill="white"/>
<path d="M364 8C364 3.58172 367.582 0 372 0H710C714.418 0 718 3.58172 718 8V268C718 272.418 714.418 276 710 276H372C367.582 276 364 272.418 364 268V8Z" fill="#F4F5F4"/>
<g filter="url(#filter1_dd_968_8331)">
<mask id="path-15-outside-3_968_8331" maskUnits="userSpaceOnUse" x="362" y="8" width="358" height="32" fill="black">
<rect fill="white" x="362" y="8" width="358" height="32"/>
<path d="M364 10C364 8.89543 364.895 8 366 8H716C717.105 8 718 8.89543 718 10V38C718 39.1046 717.105 40 716 40H366C364.895 40 364 39.1046 364 38V10Z"/>
</mask>
<path d="M364 10C364 8.89543 364.895 8 366 8H716C717.105 8 718 8.89543 718 10V38C718 39.1046 717.105 40 716 40H366C364.895 40 364 39.1046 364 38V10Z" fill="#DE2048" shape-rendering="crispEdges"/>
<path d="M364 8H718H364ZM718 40H364H718ZM366 40C363.791 40 362 38.2091 362 36V12C362 9.79086 363.791 8 366 8C366 8 366 8.89543 366 10V38C366 39.1046 366 40 366 40ZM716 8C718.209 8 720 9.79086 720 12V36C720 38.2091 718.209 40 716 40C716 40 716 39.1046 716 38V10C716 8.89543 716 8 716 8Z" fill="#DE2048" mask="url(#path-15-outside-3_968_8331)"/>
<path d="M382 25.1667L384.417 27.5834C384.569 27.7362 384.764 27.8126 385 27.8126C385.236 27.8126 385.431 27.7362 385.583 27.5834C385.736 27.4306 385.812 27.2362 385.812 27.0001C385.812 26.764 385.736 26.5695 385.583 26.4167L383.167 24.0001L385.583 21.5834C385.736 21.4306 385.812 21.2362 385.812 21.0001C385.812 20.764 385.736 20.5695 385.583 20.4167C385.431 20.264 385.236 20.1876 385 20.1876C384.764 20.1876 384.569 20.264 384.417 20.4167L382 22.8334L379.583 20.4167C379.431 20.264 379.236 20.1876 379 20.1876C378.764 20.1876 378.569 20.264 378.417 20.4167C378.264 20.5695 378.187 20.764 378.187 21.0001C378.187 21.2362 378.264 21.4306 378.417 21.5834L380.833 24.0001L378.417 26.4167C378.264 26.5695 378.187 26.764 378.187 27.0001C378.187 27.2362 378.264 27.4306 378.417 27.5834C378.569 27.7362 378.764 27.8126 379 27.8126C379.236 27.8126 379.431 27.7362 379.583 27.5834L382 25.1667ZM382 32.3334C380.847 32.3334 379.764 32.1147 378.75 31.6772C377.736 31.2397 376.854 30.6459 376.104 29.8959C375.354 29.1459 374.76 28.264 374.323 27.2501C373.885 26.2362 373.667 25.1529 373.667 24.0001C373.667 22.8473 373.885 21.764 374.323 20.7501C374.76 19.7362 375.354 18.8542 376.104 18.1042C376.854 17.3542 377.736 16.7605 378.75 16.323C379.764 15.8855 380.847 15.6667 382 15.6667C383.153 15.6667 384.236 15.8855 385.25 16.323C386.264 16.7605 387.146 17.3542 387.896 18.1042C388.646 18.8542 389.24 19.7362 389.677 20.7501C390.115 21.764 390.333 22.8473 390.333 24.0001C390.333 25.1529 390.115 26.2362 389.677 27.2501C389.24 28.264 388.646 29.1459 387.896 29.8959C387.146 30.6459 386.264 31.2397 385.25 31.6772C384.236 32.1147 383.153 32.3334 382 32.3334ZM382 30.6667C383.861 30.6667 385.437 30.0209 386.729 28.7292C388.021 27.4376 388.667 25.8612 388.667 24.0001C388.667 22.139 388.021 20.5626 386.729 19.2709C385.437 17.9792 383.861 17.3334 382 17.3334C380.139 17.3334 378.562 17.9792 377.271 19.2709C375.979 20.5626 375.333 22.139 375.333 24.0001C375.333 25.8612 375.979 27.4376 377.271 28.7292C378.562 30.0209 380.139 30.6667 382 30.6667Z" fill="white"/>
<path d="M397.248 29.112C397.035 29.112 396.864 29.064 396.736 28.968C396.608 28.872 396.533 28.744 396.512 28.584C396.491 28.424 396.523 28.2427 396.608 28.04L400.944 18.312C401.051 18.056 401.184 17.8747 401.344 17.768C401.515 17.6613 401.701 17.608 401.904 17.608C402.096 17.608 402.272 17.6613 402.432 17.768C402.603 17.8747 402.741 18.056 402.848 18.312L407.184 28.04C407.28 28.2427 407.317 28.4293 407.296 28.6C407.275 28.76 407.205 28.888 407.088 28.984C406.971 29.0693 406.805 29.112 406.592 29.112C406.357 29.112 406.171 29.0533 406.032 28.936C405.893 28.8187 405.771 28.6373 405.664 28.392L404.544 25.8L405.296 26.248H398.48L399.216 25.8L398.112 28.392C398.005 28.648 397.888 28.8347 397.76 28.952C397.632 29.0587 397.461 29.112 397.248 29.112ZM401.872 19.56L399.456 25.288L399.056 24.904H404.704L404.336 25.288L401.904 19.56H401.872ZM412.936 29.112C412.68 29.112 412.483 29.0427 412.344 28.904C412.205 28.7547 412.136 28.552 412.136 28.296V21.896C412.136 21.6293 412.205 21.4267 412.344 21.288C412.483 21.1493 412.675 21.08 412.92 21.08C413.176 21.08 413.368 21.1493 413.496 21.288C413.635 21.4267 413.704 21.6293 413.704 21.896V23.144L413.528 22.856C413.763 22.2587 414.131 21.8107 414.632 21.512C415.133 21.2027 415.709 21.048 416.36 21.048C416.979 21.048 417.491 21.1653 417.896 21.4C418.312 21.624 418.621 21.9707 418.824 22.44C419.027 22.8987 419.128 23.48 419.128 24.184V28.296C419.128 28.552 419.059 28.7547 418.92 28.904C418.781 29.0427 418.584 29.112 418.328 29.112C418.061 29.112 417.859 29.0427 417.72 28.904C417.581 28.7547 417.512 28.552 417.512 28.296V24.28C417.512 23.608 417.379 23.1173 417.112 22.808C416.856 22.4987 416.451 22.344 415.896 22.344C415.245 22.344 414.723 22.5467 414.328 22.952C413.944 23.3573 413.752 23.9013 413.752 24.584V28.296C413.752 28.84 413.48 29.112 412.936 29.112ZM424.519 29.144C423.665 29.144 422.929 28.984 422.311 28.664C421.703 28.3333 421.228 27.8693 420.887 27.272C420.556 26.664 420.391 25.944 420.391 25.112C420.391 24.3013 420.556 23.592 420.887 22.984C421.217 22.376 421.671 21.9013 422.247 21.56C422.823 21.2187 423.479 21.048 424.215 21.048C424.759 21.048 425.244 21.1387 425.671 21.32C426.097 21.4907 426.46 21.7467 426.759 22.088C427.068 22.4187 427.297 22.824 427.447 23.304C427.607 23.784 427.687 24.3227 427.687 24.92C427.687 25.1013 427.633 25.24 427.527 25.336C427.42 25.4213 427.26 25.464 427.047 25.464H421.671V24.472H426.599L426.327 24.696C426.327 24.1627 426.247 23.7093 426.087 23.336C425.937 22.9627 425.708 22.68 425.399 22.488C425.1 22.2853 424.727 22.184 424.279 22.184C423.777 22.184 423.351 22.3013 422.999 22.536C422.657 22.7707 422.396 23.096 422.215 23.512C422.033 23.928 421.943 24.4133 421.943 24.968V25.064C421.943 26.0027 422.161 26.712 422.599 27.192C423.047 27.6613 423.692 27.896 424.535 27.896C424.855 27.896 425.191 27.8533 425.543 27.768C425.905 27.6827 426.247 27.5387 426.567 27.336C426.748 27.2293 426.908 27.1813 427.047 27.192C427.196 27.2027 427.313 27.2507 427.399 27.336C427.495 27.4213 427.553 27.528 427.575 27.656C427.596 27.784 427.575 27.9173 427.511 28.056C427.447 28.184 427.335 28.3013 427.175 28.408C426.812 28.6533 426.391 28.84 425.911 28.968C425.431 29.0853 424.967 29.144 424.519 29.144ZM433.467 31.992C433.211 31.992 433.014 31.9227 432.875 31.784C432.737 31.6453 432.667 31.4427 432.667 31.176V21.896C432.667 21.6293 432.737 21.4267 432.875 21.288C433.014 21.1493 433.206 21.08 433.451 21.08C433.707 21.08 433.905 21.1493 434.043 21.288C434.182 21.4267 434.251 21.6293 434.251 21.896V23.288L434.075 22.952C434.246 22.376 434.582 21.9173 435.083 21.576C435.585 21.224 436.177 21.048 436.859 21.048C437.553 21.048 438.155 21.2133 438.667 21.544C439.19 21.8747 439.59 22.3387 439.867 22.936C440.155 23.5333 440.299 24.2533 440.299 25.096C440.299 25.9173 440.155 26.6373 439.867 27.256C439.59 27.864 439.195 28.3333 438.683 28.664C438.171 28.984 437.563 29.144 436.859 29.144C436.187 29.144 435.601 28.9733 435.099 28.632C434.598 28.2907 434.262 27.8373 434.091 27.272H434.283V31.176C434.283 31.4427 434.209 31.6453 434.059 31.784C433.921 31.9227 433.723 31.992 433.467 31.992ZM436.459 27.896C436.907 27.896 437.297 27.7893 437.627 27.576C437.958 27.3627 438.214 27.048 438.395 26.632C438.577 26.216 438.667 25.704 438.667 25.096C438.667 24.1787 438.465 23.4853 438.059 23.016C437.665 22.5467 437.131 22.312 436.459 22.312C436.022 22.312 435.633 22.4187 435.291 22.632C434.961 22.8347 434.705 23.144 434.523 23.56C434.342 23.976 434.251 24.488 434.251 25.096C434.251 26.0027 434.454 26.696 434.859 27.176C435.265 27.656 435.798 27.896 436.459 27.896ZM444.116 29.144C443.572 29.144 443.082 29.0373 442.644 28.824C442.218 28.6107 441.882 28.3227 441.636 27.96C441.391 27.5973 441.268 27.1867 441.268 26.728C441.268 26.152 441.412 25.6987 441.7 25.368C441.999 25.0267 442.484 24.7867 443.156 24.648C443.839 24.4987 444.756 24.424 445.908 24.424H446.66V25.416H445.924C445.156 25.416 444.548 25.4533 444.1 25.528C443.652 25.6027 443.332 25.7307 443.14 25.912C442.959 26.0827 442.868 26.3227 442.868 26.632C442.868 27.0373 443.007 27.368 443.284 27.624C443.562 27.8693 443.946 27.992 444.436 27.992C444.831 27.992 445.178 27.9013 445.476 27.72C445.775 27.528 446.01 27.272 446.18 26.952C446.362 26.632 446.452 26.264 446.452 25.848V24.008C446.452 23.4 446.324 22.9627 446.068 22.696C445.812 22.4293 445.391 22.296 444.804 22.296C444.463 22.296 444.106 22.3387 443.732 22.424C443.37 22.5093 442.991 22.6533 442.596 22.856C442.415 22.9413 442.26 22.968 442.132 22.936C442.004 22.904 441.903 22.8347 441.828 22.728C441.754 22.6107 441.711 22.488 441.7 22.36C441.7 22.2213 441.732 22.088 441.796 21.96C441.871 21.832 441.994 21.736 442.164 21.672C442.634 21.448 443.098 21.288 443.556 21.192C444.015 21.096 444.447 21.048 444.852 21.048C445.567 21.048 446.154 21.16 446.612 21.384C447.082 21.608 447.428 21.9493 447.652 22.408C447.876 22.8667 447.988 23.4587 447.988 24.184V28.296C447.988 28.552 447.924 28.7547 447.796 28.904C447.668 29.0427 447.482 29.112 447.236 29.112C447.002 29.112 446.815 29.0427 446.676 28.904C446.538 28.7547 446.468 28.552 446.468 28.296V27.256H446.612C446.527 27.6507 446.367 27.992 446.132 28.28C445.908 28.5573 445.626 28.7707 445.284 28.92C444.943 29.0693 444.554 29.144 444.116 29.144ZM452.45 29.144C451.981 29.144 451.495 29.0907 450.994 28.984C450.503 28.8773 450.05 28.696 449.634 28.44C449.495 28.344 449.399 28.2373 449.346 28.12C449.293 28.0027 449.271 27.8853 449.282 27.768C449.303 27.64 449.351 27.5333 449.426 27.448C449.511 27.352 449.613 27.2933 449.73 27.272C449.858 27.2507 449.991 27.2773 450.13 27.352C450.546 27.5867 450.946 27.752 451.33 27.848C451.714 27.9333 452.093 27.976 452.466 27.976C453.031 27.976 453.458 27.8747 453.746 27.672C454.034 27.4693 454.178 27.1973 454.178 26.856C454.178 26.5787 454.082 26.3653 453.89 26.216C453.698 26.056 453.41 25.9333 453.026 25.848L451.506 25.544C450.845 25.4053 450.343 25.16 450.002 24.808C449.661 24.456 449.49 24.008 449.49 23.464C449.49 22.9733 449.623 22.5467 449.89 22.184C450.157 21.8213 450.53 21.544 451.01 21.352C451.49 21.1493 452.045 21.048 452.674 21.048C453.143 21.048 453.586 21.1067 454.002 21.224C454.418 21.3413 454.802 21.5173 455.154 21.752C455.293 21.8267 455.383 21.928 455.426 22.056C455.469 22.1733 455.474 22.2907 455.442 22.408C455.421 22.5253 455.367 22.632 455.282 22.728C455.197 22.8133 455.09 22.8667 454.962 22.888C454.845 22.8987 454.711 22.8667 454.562 22.792C454.242 22.5893 453.922 22.4453 453.602 22.36C453.293 22.2747 452.983 22.232 452.674 22.232C452.109 22.232 451.682 22.3387 451.394 22.552C451.117 22.7547 450.978 23.032 450.978 23.384C450.978 23.6507 451.063 23.8693 451.234 24.04C451.405 24.2107 451.671 24.3333 452.034 24.408L453.554 24.712C454.247 24.8507 454.77 25.0853 455.122 25.416C455.485 25.7467 455.666 26.1947 455.666 26.76C455.666 27.496 455.373 28.0773 454.786 28.504C454.199 28.9307 453.421 29.144 452.45 29.144ZM461.963 29.112C461.707 29.112 461.504 29.0427 461.355 28.904C461.216 28.7547 461.147 28.552 461.147 28.296V22.44H460.251C460.048 22.44 459.888 22.3867 459.771 22.28C459.654 22.1627 459.595 22.008 459.595 21.816C459.595 21.6133 459.654 21.4587 459.771 21.352C459.888 21.2453 460.048 21.192 460.251 21.192H461.611L461.147 21.624V21.048C461.147 19.992 461.408 19.1973 461.931 18.664C462.454 18.12 463.216 17.8 464.219 17.704L464.715 17.672C464.896 17.6507 465.04 17.6773 465.147 17.752C465.254 17.8267 465.323 17.9227 465.355 18.04C465.387 18.1573 465.387 18.28 465.355 18.408C465.334 18.5253 465.28 18.632 465.195 18.728C465.11 18.824 465.003 18.8773 464.875 18.888L464.571 18.904C463.942 18.9573 463.483 19.1387 463.195 19.448C462.907 19.7467 462.763 20.2053 462.763 20.824V21.448L462.539 21.192H464.315C464.539 21.192 464.704 21.2453 464.811 21.352C464.928 21.4587 464.987 21.6133 464.987 21.816C464.987 22.008 464.928 22.1627 464.811 22.28C464.704 22.3867 464.539 22.44 464.315 22.44H462.763V28.296C462.763 28.84 462.496 29.112 461.963 29.112ZM468.148 29.144C467.604 29.144 467.113 29.0373 466.676 28.824C466.249 28.6107 465.913 28.3227 465.668 27.96C465.422 27.5973 465.3 27.1867 465.3 26.728C465.3 26.152 465.444 25.6987 465.732 25.368C466.03 25.0267 466.516 24.7867 467.188 24.648C467.87 24.4987 468.788 24.424 469.94 24.424H470.692V25.416H469.956C469.188 25.416 468.58 25.4533 468.132 25.528C467.684 25.6027 467.364 25.7307 467.172 25.912C466.99 26.0827 466.9 26.3227 466.9 26.632C466.9 27.0373 467.038 27.368 467.316 27.624C467.593 27.8693 467.977 27.992 468.468 27.992C468.862 27.992 469.209 27.9013 469.508 27.72C469.806 27.528 470.041 27.272 470.212 26.952C470.393 26.632 470.484 26.264 470.484 25.848V24.008C470.484 23.4 470.356 22.9627 470.1 22.696C469.844 22.4293 469.422 22.296 468.836 22.296C468.494 22.296 468.137 22.3387 467.764 22.424C467.401 22.5093 467.022 22.6533 466.628 22.856C466.446 22.9413 466.292 22.968 466.164 22.936C466.036 22.904 465.934 22.8347 465.86 22.728C465.785 22.6107 465.742 22.488 465.732 22.36C465.732 22.2213 465.764 22.088 465.828 21.96C465.902 21.832 466.025 21.736 466.196 21.672C466.665 21.448 467.129 21.288 467.588 21.192C468.046 21.096 468.478 21.048 468.884 21.048C469.598 21.048 470.185 21.16 470.644 21.384C471.113 21.608 471.46 21.9493 471.684 22.408C471.908 22.8667 472.02 23.4587 472.02 24.184V28.296C472.02 28.552 471.956 28.7547 471.828 28.904C471.7 29.0427 471.513 29.112 471.268 29.112C471.033 29.112 470.846 29.0427 470.708 28.904C470.569 28.7547 470.5 28.552 470.5 28.296V27.256H470.644C470.558 27.6507 470.398 27.992 470.164 28.28C469.94 28.5573 469.657 28.7707 469.316 28.92C468.974 29.0693 468.585 29.144 468.148 29.144ZM474.545 29.096C474.289 29.096 474.092 29.0213 473.953 28.872C473.815 28.712 473.745 28.4933 473.745 28.216V21.976C473.745 21.6987 473.815 21.4853 473.953 21.336C474.092 21.1867 474.289 21.112 474.545 21.112C474.801 21.112 474.999 21.1867 475.137 21.336C475.287 21.4853 475.361 21.6987 475.361 21.976V28.216C475.361 28.4933 475.292 28.712 475.153 28.872C475.015 29.0213 474.812 29.096 474.545 29.096ZM474.545 19.448C474.225 19.448 473.975 19.368 473.793 19.208C473.623 19.048 473.537 18.824 473.537 18.536C473.537 18.2373 473.623 18.0133 473.793 17.864C473.975 17.704 474.225 17.624 474.545 17.624C474.865 17.624 475.111 17.704 475.281 17.864C475.463 18.0133 475.553 18.2373 475.553 18.536C475.553 18.824 475.463 19.048 475.281 19.208C475.111 19.368 474.865 19.448 474.545 19.448ZM477.952 29.112C477.685 29.112 477.483 29.0427 477.344 28.904C477.205 28.7547 477.136 28.552 477.136 28.296V21.896C477.136 21.6293 477.205 21.4267 477.344 21.288C477.483 21.1493 477.675 21.08 477.92 21.08C478.176 21.08 478.368 21.1493 478.496 21.288C478.635 21.4267 478.704 21.6293 478.704 21.896V23.064H478.544C478.715 22.424 479.029 21.9387 479.488 21.608C479.947 21.2773 480.533 21.0853 481.248 21.032C481.44 21.0213 481.589 21.0693 481.696 21.176C481.813 21.2827 481.877 21.448 481.888 21.672C481.909 21.896 481.861 22.0773 481.744 22.216C481.627 22.344 481.445 22.4187 481.2 22.44L480.896 22.472C480.203 22.536 479.675 22.7547 479.312 23.128C478.949 23.5013 478.768 24.0133 478.768 24.664V28.296C478.768 28.552 478.699 28.7547 478.56 28.904C478.432 29.0427 478.229 29.112 477.952 29.112ZM486.159 29.144C485.306 29.144 484.57 28.984 483.951 28.664C483.343 28.3333 482.869 27.8693 482.527 27.272C482.197 26.664 482.031 25.944 482.031 25.112C482.031 24.3013 482.197 23.592 482.527 22.984C482.858 22.376 483.311 21.9013 483.887 21.56C484.463 21.2187 485.119 21.048 485.855 21.048C486.399 21.048 486.885 21.1387 487.311 21.32C487.738 21.4907 488.101 21.7467 488.399 22.088C488.709 22.4187 488.938 22.824 489.087 23.304C489.247 23.784 489.327 24.3227 489.327 24.92C489.327 25.1013 489.274 25.24 489.167 25.336C489.061 25.4213 488.901 25.464 488.687 25.464H483.311V24.472H488.239L487.967 24.696C487.967 24.1627 487.887 23.7093 487.727 23.336C487.578 22.9627 487.349 22.68 487.039 22.488C486.741 22.2853 486.367 22.184 485.919 22.184C485.418 22.184 484.991 22.3013 484.639 22.536C484.298 22.7707 484.037 23.096 483.855 23.512C483.674 23.928 483.583 24.4133 483.583 24.968V25.064C483.583 26.0027 483.802 26.712 484.239 27.192C484.687 27.6613 485.333 27.896 486.175 27.896C486.495 27.896 486.831 27.8533 487.183 27.768C487.546 27.6827 487.887 27.5387 488.207 27.336C488.389 27.2293 488.549 27.1813 488.687 27.192C488.837 27.2027 488.954 27.2507 489.039 27.336C489.135 27.4213 489.194 27.528 489.215 27.656C489.237 27.784 489.215 27.9173 489.151 28.056C489.087 28.184 488.975 28.3013 488.815 28.408C488.453 28.6533 488.031 28.84 487.551 28.968C487.071 29.0853 486.607 29.144 486.159 29.144Z" fill="white"/>
</g>
<path d="M436 56.5H646C650.142 56.5 653.5 59.8579 653.5 64V244C653.5 248.142 650.142 251.5 646 251.5H436C431.858 251.5 428.5 248.142 428.5 244V64L428.51 63.6143C428.711 59.6514 431.987 56.5 436 56.5Z" fill="white"/>
<path d="M436 56.5H646C650.142 56.5 653.5 59.8579 653.5 64V244C653.5 248.142 650.142 251.5 646 251.5H436C431.858 251.5 428.5 248.142 428.5 244V64L428.51 63.6143C428.711 59.6514 431.987 56.5 436 56.5Z" stroke="#A1A1A0"/>
<g clip-path="url(#clip0_968_8331)">
<mask id="path-20-inside-4_968_8331" fill="white">
<path d="M468 116C468 104.954 476.954 96 488 96H594C605.046 96 614 104.954 614 116C614 127.046 605.046 136 594 136H488C476.954 136 468 127.046 468 116Z"/>
</mask>
<path d="M468 116C468 104.954 476.954 96 488 96H594C605.046 96 614 104.954 614 116C614 127.046 605.046 136 594 136H488C476.954 136 468 127.046 468 116Z" fill="white"/>
<path d="M488 96V97H594V96V95H488V96ZM594 136V135H488V136V137H594V136ZM488 136V135C477.507 135 469 126.493 469 116H468H467C467 127.598 476.402 137 488 137V136ZM614 116H613C613 126.493 604.493 135 594 135V136V137C605.598 137 615 127.598 615 116H614ZM594 96V97C604.493 97 613 105.507 613 116H614H615C615 104.402 605.598 95 594 95V96ZM488 96V95C476.402 95 467 104.402 467 116H468H469C469 105.507 477.507 97 488 97V96Z" fill="#A1A1A0" mask="url(#path-20-inside-4_968_8331)"/>
<circle cx="492" cy="116" r="12" fill="#2964A0"/>
<path d="M513.764 120H512.785V111.41H513.84V114.475C514.285 113.916 514.854 113.637 515.545 113.637C515.928 113.637 516.289 113.715 516.629 113.871C516.973 114.023 517.254 114.24 517.473 114.521C517.695 114.799 517.869 115.135 517.994 115.529C518.119 115.924 518.182 116.346 518.182 116.795C518.182 117.861 517.918 118.686 517.391 119.268C516.863 119.85 516.23 120.141 515.492 120.141C514.758 120.141 514.182 119.834 513.764 119.221V120ZM513.752 116.842C513.752 117.588 513.854 118.127 514.057 118.459C514.389 119.002 514.838 119.273 515.404 119.273C515.865 119.273 516.264 119.074 516.6 118.676C516.936 118.273 517.104 117.676 517.104 116.883C517.104 116.07 516.941 115.471 516.617 115.084C516.297 114.697 515.908 114.504 515.451 114.504C514.99 114.504 514.592 114.705 514.256 115.107C513.92 115.506 513.752 116.084 513.752 116.842ZM519.447 120V111.41H520.502V120H519.447ZM526.402 117.996L527.492 118.131C527.32 118.768 527.002 119.262 526.537 119.613C526.072 119.965 525.479 120.141 524.756 120.141C523.846 120.141 523.123 119.861 522.588 119.303C522.057 118.74 521.791 117.953 521.791 116.941C521.791 115.895 522.061 115.082 522.6 114.504C523.139 113.926 523.838 113.637 524.697 113.637C525.529 113.637 526.209 113.92 526.736 114.486C527.264 115.053 527.527 115.85 527.527 116.877C527.527 116.939 527.525 117.033 527.521 117.158H522.881C522.92 117.842 523.113 118.365 523.461 118.729C523.809 119.092 524.242 119.273 524.762 119.273C525.148 119.273 525.479 119.172 525.752 118.969C526.025 118.766 526.242 118.441 526.402 117.996ZM522.939 116.291H526.414C526.367 115.768 526.234 115.375 526.016 115.113C525.68 114.707 525.244 114.504 524.709 114.504C524.225 114.504 523.816 114.666 523.484 114.99C523.156 115.314 522.975 115.748 522.939 116.291ZM532.9 120V119.086C532.416 119.789 531.758 120.141 530.926 120.141C530.559 120.141 530.215 120.07 529.895 119.93C529.578 119.789 529.342 119.613 529.186 119.402C529.033 119.188 528.926 118.926 528.863 118.617C528.82 118.41 528.799 118.082 528.799 117.633V113.777H529.854V117.229C529.854 117.779 529.875 118.15 529.918 118.342C529.984 118.619 530.125 118.838 530.34 118.998C530.555 119.154 530.82 119.232 531.137 119.232C531.453 119.232 531.75 119.152 532.027 118.992C532.305 118.828 532.5 118.607 532.613 118.33C532.73 118.049 532.789 117.643 532.789 117.111V113.777H533.844V120H532.9ZM535.092 117.422V116.361H538.332V117.422H535.092ZM539.504 112.623V111.41H540.559V112.623H539.504ZM539.504 120V113.777H540.559V120H539.504ZM546.23 117.721L547.268 117.855C547.154 118.57 546.863 119.131 546.395 119.537C545.93 119.939 545.357 120.141 544.678 120.141C543.826 120.141 543.141 119.863 542.621 119.309C542.105 118.75 541.848 117.951 541.848 116.912C541.848 116.24 541.959 115.652 542.182 115.148C542.404 114.645 542.742 114.268 543.195 114.018C543.652 113.764 544.148 113.637 544.684 113.637C545.359 113.637 545.912 113.809 546.342 114.152C546.771 114.492 547.047 114.977 547.168 115.605L546.143 115.764C546.045 115.346 545.871 115.031 545.621 114.82C545.375 114.609 545.076 114.504 544.725 114.504C544.193 114.504 543.762 114.695 543.43 115.078C543.098 115.457 542.932 116.059 542.932 116.883C542.932 117.719 543.092 118.326 543.412 118.705C543.732 119.084 544.15 119.273 544.666 119.273C545.08 119.273 545.426 119.146 545.703 118.893C545.98 118.639 546.156 118.248 546.23 117.721ZM552.43 117.996L553.52 118.131C553.348 118.768 553.029 119.262 552.564 119.613C552.1 119.965 551.506 120.141 550.783 120.141C549.873 120.141 549.15 119.861 548.615 119.303C548.084 118.74 547.818 117.953 547.818 116.941C547.818 115.895 548.088 115.082 548.627 114.504C549.166 113.926 549.865 113.637 550.725 113.637C551.557 113.637 552.236 113.92 552.764 114.486C553.291 115.053 553.555 115.85 553.555 116.877C553.555 116.939 553.553 117.033 553.549 117.158H548.908C548.947 117.842 549.141 118.365 549.488 118.729C549.836 119.092 550.27 119.273 550.789 119.273C551.176 119.273 551.506 119.172 551.779 118.969C552.053 118.766 552.27 118.441 552.43 117.996ZM548.967 116.291H552.441C552.395 115.768 552.262 115.375 552.043 115.113C551.707 114.707 551.271 114.504 550.736 114.504C550.252 114.504 549.844 114.666 549.512 114.99C549.184 115.314 549.002 115.748 548.967 116.291ZM555.822 120H554.844V111.41H555.898V114.475C556.344 113.916 556.912 113.637 557.604 113.637C557.986 113.637 558.348 113.715 558.688 113.871C559.031 114.023 559.312 114.24 559.531 114.521C559.754 114.799 559.928 115.135 560.053 115.529C560.178 115.924 560.24 116.346 560.24 116.795C560.24 117.861 559.977 118.686 559.449 119.268C558.922 119.85 558.289 120.141 557.551 120.141C556.816 120.141 556.24 119.834 555.822 119.221V120ZM555.811 116.842C555.811 117.588 555.912 118.127 556.115 118.459C556.447 119.002 556.896 119.273 557.463 119.273C557.924 119.273 558.322 119.074 558.658 118.676C558.994 118.273 559.162 117.676 559.162 116.883C559.162 116.07 559 115.471 558.676 115.084C558.355 114.697 557.967 114.504 557.51 114.504C557.049 114.504 556.65 114.705 556.314 115.107C555.979 115.506 555.811 116.084 555.811 116.842ZM565.789 117.996L566.879 118.131C566.707 118.768 566.389 119.262 565.924 119.613C565.459 119.965 564.865 120.141 564.143 120.141C563.232 120.141 562.51 119.861 561.975 119.303C561.443 118.74 561.178 117.953 561.178 116.941C561.178 115.895 561.447 115.082 561.986 114.504C562.525 113.926 563.225 113.637 564.084 113.637C564.916 113.637 565.596 113.92 566.123 114.486C566.65 115.053 566.914 115.85 566.914 116.877C566.914 116.939 566.912 117.033 566.908 117.158H562.268C562.307 117.842 562.5 118.365 562.848 118.729C563.195 119.092 563.629 119.273 564.148 119.273C564.535 119.273 564.865 119.172 565.139 118.969C565.412 118.766 565.629 118.441 565.789 117.996ZM562.326 116.291H565.801C565.754 115.768 565.621 115.375 565.402 115.113C565.066 114.707 564.631 114.504 564.096 114.504C563.611 114.504 563.203 114.666 562.871 114.99C562.543 115.314 562.361 115.748 562.326 116.291ZM568.197 120V113.777H569.146V114.721C569.389 114.279 569.611 113.988 569.814 113.848C570.021 113.707 570.248 113.637 570.494 113.637C570.85 113.637 571.211 113.75 571.578 113.977L571.215 114.955C570.957 114.803 570.699 114.727 570.441 114.727C570.211 114.727 570.004 114.797 569.82 114.938C569.637 115.074 569.506 115.266 569.428 115.512C569.311 115.887 569.252 116.297 569.252 116.742V120H568.197ZM572.012 120.516L573.037 120.668C573.08 120.984 573.199 121.215 573.395 121.359C573.656 121.555 574.014 121.652 574.467 121.652C574.955 121.652 575.332 121.555 575.598 121.359C575.863 121.164 576.043 120.891 576.137 120.539C576.191 120.324 576.217 119.873 576.213 119.186C575.752 119.729 575.178 120 574.49 120C573.635 120 572.973 119.691 572.504 119.074C572.035 118.457 571.801 117.717 571.801 116.854C571.801 116.26 571.908 115.713 572.123 115.213C572.338 114.709 572.648 114.32 573.055 114.047C573.465 113.773 573.945 113.637 574.496 113.637C575.23 113.637 575.836 113.934 576.312 114.527V113.777H577.285V119.156C577.285 120.125 577.186 120.811 576.986 121.213C576.791 121.619 576.479 121.939 576.049 122.174C575.623 122.408 575.098 122.525 574.473 122.525C573.73 122.525 573.131 122.357 572.674 122.021C572.217 121.689 571.996 121.188 572.012 120.516ZM572.885 116.777C572.885 117.594 573.047 118.189 573.371 118.564C573.695 118.939 574.102 119.127 574.59 119.127C575.074 119.127 575.48 118.941 575.809 118.57C576.137 118.195 576.301 117.609 576.301 116.812C576.301 116.051 576.131 115.477 575.791 115.09C575.455 114.703 575.049 114.51 574.572 114.51C574.104 114.51 573.705 114.701 573.377 115.084C573.049 115.463 572.885 116.027 572.885 116.777ZM578.094 120.146L580.584 111.264H581.428L578.943 120.146H578.094ZM587.404 113.514L586.355 113.596C586.262 113.182 586.129 112.881 585.957 112.693C585.672 112.393 585.32 112.242 584.902 112.242C584.566 112.242 584.271 112.336 584.018 112.523C583.686 112.766 583.424 113.119 583.232 113.584C583.041 114.049 582.941 114.711 582.934 115.57C583.188 115.184 583.498 114.896 583.865 114.709C584.232 114.521 584.617 114.428 585.02 114.428C585.723 114.428 586.32 114.688 586.812 115.207C587.309 115.723 587.557 116.391 587.557 117.211C587.557 117.75 587.439 118.252 587.205 118.717C586.975 119.178 586.656 119.531 586.25 119.777C585.844 120.023 585.383 120.146 584.867 120.146C583.988 120.146 583.271 119.824 582.717 119.18C582.162 118.531 581.885 117.465 581.885 115.98C581.885 114.32 582.191 113.113 582.805 112.359C583.34 111.703 584.061 111.375 584.967 111.375C585.643 111.375 586.195 111.564 586.625 111.943C587.059 112.322 587.318 112.846 587.404 113.514ZM583.098 117.217C583.098 117.58 583.174 117.928 583.326 118.26C583.482 118.592 583.699 118.846 583.977 119.021C584.254 119.193 584.545 119.279 584.85 119.279C585.295 119.279 585.678 119.1 585.998 118.74C586.318 118.381 586.479 117.893 586.479 117.275C586.479 116.682 586.32 116.215 586.004 115.875C585.688 115.531 585.289 115.359 584.809 115.359C584.332 115.359 583.928 115.531 583.596 115.875C583.264 116.215 583.098 116.662 583.098 117.217ZM588.611 115.764C588.611 114.748 588.715 113.932 588.922 113.314C589.133 112.693 589.443 112.215 589.854 111.879C590.268 111.543 590.787 111.375 591.412 111.375C591.873 111.375 592.277 111.469 592.625 111.656C592.973 111.84 593.26 112.107 593.486 112.459C593.713 112.807 593.891 113.232 594.02 113.736C594.148 114.236 594.213 114.912 594.213 115.764C594.213 116.771 594.109 117.586 593.902 118.207C593.695 118.824 593.385 119.303 592.971 119.643C592.561 119.979 592.041 120.146 591.412 120.146C590.584 120.146 589.934 119.85 589.461 119.256C588.895 118.541 588.611 117.377 588.611 115.764ZM589.695 115.764C589.695 117.174 589.859 118.113 590.188 118.582C590.52 119.047 590.928 119.279 591.412 119.279C591.896 119.279 592.303 119.045 592.631 118.576C592.963 118.107 593.129 117.17 593.129 115.764C593.129 114.35 592.963 113.41 592.631 112.945C592.303 112.48 591.893 112.248 591.4 112.248C590.916 112.248 590.529 112.453 590.24 112.863C589.877 113.387 589.695 114.354 589.695 115.764ZM595.291 115.764C595.291 114.748 595.395 113.932 595.602 113.314C595.812 112.693 596.123 112.215 596.533 111.879C596.947 111.543 597.467 111.375 598.092 111.375C598.553 111.375 598.957 111.469 599.305 111.656C599.652 111.84 599.939 112.107 600.166 112.459C600.393 112.807 600.57 113.232 600.699 113.736C600.828 114.236 600.893 114.912 600.893 115.764C600.893 116.771 600.789 117.586 600.582 118.207C600.375 118.824 600.064 119.303 599.65 119.643C599.24 119.979 598.721 120.146 598.092 120.146C597.264 120.146 596.613 119.85 596.141 119.256C595.574 118.541 595.291 117.377 595.291 115.764ZM596.375 115.764C596.375 117.174 596.539 118.113 596.867 118.582C597.199 119.047 597.607 119.279 598.092 119.279C598.576 119.279 598.982 119.045 599.311 118.576C599.643 118.107 599.809 117.17 599.809 115.764C599.809 114.35 599.643 113.41 599.311 112.945C598.982 112.48 598.572 112.248 598.08 112.248C597.596 112.248 597.209 112.453 596.92 112.863C596.557 113.387 596.375 114.354 596.375 115.764Z" fill="#3E3E3D"/>
</g>
<path d="M540.646 172.354C540.842 172.549 541.158 172.549 541.354 172.354L544.536 169.172C544.731 168.976 544.731 168.66 544.536 168.464C544.34 168.269 544.024 168.269 543.828 168.464L541 171.293L538.172 168.464C537.976 168.269 537.66 168.269 537.464 168.464C537.269 168.66 537.269 168.976 537.464 169.172L540.646 172.354ZM541 136H540.5V172H541H541.5V136H541Z" fill="#A1A1A0"/>
<path d="M493 180C493 175.582 496.582 172 501 172H582C586.418 172 590 175.582 590 180V204C590 208.418 586.418 212 582 212H501C496.582 212 493 208.418 493 204V180Z" fill="#2964A0"/>
<path d="M519.7 199C519.367 199 519.107 198.907 518.92 198.72C518.733 198.533 518.64 198.273 518.64 197.94V185.88C518.64 185.533 518.727 185.273 518.9 185.1C519.087 184.913 519.347 184.82 519.68 184.82C520.013 184.82 520.267 184.913 520.44 185.1C520.627 185.273 520.72 185.533 520.72 185.88V197.22H526.92C527.213 197.22 527.44 197.3 527.6 197.46C527.76 197.607 527.84 197.82 527.84 198.1C527.84 198.38 527.76 198.6 527.6 198.76C527.44 198.92 527.213 199 526.92 199H519.7ZM532.075 199.18C531.395 199.18 530.782 199.047 530.235 198.78C529.702 198.513 529.282 198.153 528.975 197.7C528.668 197.247 528.515 196.733 528.515 196.16C528.515 195.44 528.695 194.873 529.055 194.46C529.428 194.033 530.035 193.733 530.875 193.56C531.728 193.373 532.875 193.28 534.315 193.28H535.255V194.52H534.335C533.375 194.52 532.615 194.567 532.055 194.66C531.495 194.753 531.095 194.913 530.855 195.14C530.628 195.353 530.515 195.653 530.515 196.04C530.515 196.547 530.688 196.96 531.035 197.28C531.382 197.587 531.862 197.74 532.475 197.74C532.968 197.74 533.402 197.627 533.775 197.4C534.148 197.16 534.442 196.84 534.655 196.44C534.882 196.04 534.995 195.58 534.995 195.06V192.76C534.995 192 534.835 191.453 534.515 191.12C534.195 190.787 533.668 190.62 532.935 190.62C532.508 190.62 532.062 190.673 531.595 190.78C531.142 190.887 530.668 191.067 530.175 191.32C529.948 191.427 529.755 191.46 529.595 191.42C529.435 191.38 529.308 191.293 529.215 191.16C529.122 191.013 529.068 190.86 529.055 190.7C529.055 190.527 529.095 190.36 529.175 190.2C529.268 190.04 529.422 189.92 529.635 189.84C530.222 189.56 530.802 189.36 531.375 189.24C531.948 189.12 532.488 189.06 532.995 189.06C533.888 189.06 534.622 189.2 535.195 189.48C535.782 189.76 536.215 190.187 536.495 190.76C536.775 191.333 536.915 192.073 536.915 192.98V198.12C536.915 198.44 536.835 198.693 536.675 198.88C536.515 199.053 536.282 199.14 535.975 199.14C535.682 199.14 535.448 199.053 535.275 198.88C535.102 198.693 535.015 198.44 535.015 198.12V196.82H535.195C535.088 197.313 534.888 197.74 534.595 198.1C534.315 198.447 533.962 198.713 533.535 198.9C533.108 199.087 532.622 199.18 532.075 199.18ZM544.437 199.18C543.584 199.18 542.844 198.967 542.217 198.54C541.591 198.1 541.171 197.52 540.957 196.8L541.177 196.44V198.12C541.177 198.44 541.091 198.693 540.917 198.88C540.744 199.053 540.504 199.14 540.197 199.14C539.877 199.14 539.631 199.053 539.457 198.88C539.284 198.693 539.197 198.44 539.197 198.12V185.78C539.197 185.447 539.284 185.193 539.457 185.02C539.631 184.847 539.877 184.76 540.197 184.76C540.517 184.76 540.764 184.847 540.937 185.02C541.124 185.193 541.217 185.447 541.217 185.78V191.38H540.977C541.191 190.673 541.611 190.113 542.237 189.7C542.864 189.273 543.597 189.06 544.437 189.06C545.317 189.06 546.077 189.267 546.717 189.68C547.357 190.093 547.851 190.673 548.197 191.42C548.557 192.167 548.737 193.067 548.737 194.12C548.737 195.147 548.557 196.047 548.197 196.82C547.851 197.58 547.351 198.167 546.697 198.58C546.057 198.98 545.304 199.18 544.437 199.18ZM543.937 197.62C544.497 197.62 544.984 197.487 545.397 197.22C545.811 196.953 546.131 196.56 546.357 196.04C546.584 195.52 546.697 194.88 546.697 194.12C546.697 192.973 546.444 192.107 545.937 191.52C545.444 190.933 544.777 190.64 543.937 190.64C543.391 190.64 542.904 190.773 542.477 191.04C542.064 191.293 541.744 191.68 541.517 192.2C541.291 192.72 541.177 193.36 541.177 194.12C541.177 195.253 541.431 196.12 541.937 196.72C542.444 197.32 543.111 197.62 543.937 197.62ZM555.094 199.18C554.027 199.18 553.107 198.98 552.334 198.58C551.574 198.167 550.98 197.587 550.554 196.84C550.14 196.08 549.934 195.18 549.934 194.14C549.934 193.127 550.14 192.24 550.554 191.48C550.967 190.72 551.534 190.127 552.254 189.7C552.974 189.273 553.794 189.06 554.714 189.06C555.394 189.06 556 189.173 556.534 189.4C557.067 189.613 557.52 189.933 557.894 190.36C558.28 190.773 558.567 191.28 558.754 191.88C558.954 192.48 559.054 193.153 559.054 193.9C559.054 194.127 558.987 194.3 558.854 194.42C558.72 194.527 558.52 194.58 558.254 194.58H551.534V193.34H557.694L557.354 193.62C557.354 192.953 557.254 192.387 557.054 191.92C556.867 191.453 556.58 191.1 556.194 190.86C555.82 190.607 555.354 190.48 554.794 190.48C554.167 190.48 553.634 190.627 553.194 190.92C552.767 191.213 552.44 191.62 552.214 192.14C551.987 192.66 551.874 193.267 551.874 193.96V194.08C551.874 195.253 552.147 196.14 552.694 196.74C553.254 197.327 554.06 197.62 555.114 197.62C555.514 197.62 555.934 197.567 556.374 197.46C556.827 197.353 557.254 197.173 557.654 196.92C557.88 196.787 558.08 196.727 558.254 196.74C558.44 196.753 558.587 196.813 558.694 196.92C558.814 197.027 558.887 197.16 558.914 197.32C558.94 197.48 558.914 197.647 558.834 197.82C558.754 197.98 558.614 198.127 558.414 198.26C557.96 198.567 557.434 198.8 556.834 198.96C556.234 199.107 555.654 199.18 555.094 199.18ZM563.896 199.18C562.856 199.18 562.069 198.88 561.536 198.28C561.016 197.667 560.756 196.787 560.756 195.64V185.78C560.756 185.447 560.843 185.193 561.016 185.02C561.189 184.847 561.436 184.76 561.756 184.76C562.076 184.76 562.323 184.847 562.496 185.02C562.683 185.193 562.776 185.447 562.776 185.78V195.52C562.776 196.187 562.909 196.687 563.176 197.02C563.456 197.34 563.856 197.5 564.376 197.5C564.496 197.5 564.603 197.5 564.696 197.5C564.789 197.487 564.883 197.473 564.976 197.46C565.136 197.447 565.249 197.493 565.316 197.6C565.383 197.693 565.416 197.893 565.416 198.2C565.416 198.48 565.356 198.7 565.236 198.86C565.116 199.007 564.923 199.1 564.656 199.14C564.536 199.153 564.409 199.16 564.276 199.16C564.143 199.173 564.016 199.18 563.896 199.18Z" fill="white"/>
<defs>
<filter id="filter0_dd_968_8331" x="0" y="6" width="366" height="40" filterUnits="userSpaceOnUse" color-interpolation-filters="sRGB">
<feFlood flood-opacity="0" result="BackgroundImageFix"/>
<feColorMatrix in="SourceAlpha" type="matrix" values="0 0 0 0 0 0 0 0 0 0 0 0 0 0 0 0 0 0 127 0" result="hardAlpha"/>
<feOffset/>
<feGaussianBlur stdDeviation="1"/>
<feComposite in2="hardAlpha" operator="out"/>
<feColorMatrix type="matrix" values="0 0 0 0 0 0 0 0 0 0 0 0 0 0 0 0 0 0 0.12 0"/>
<feBlend mode="normal" in2="BackgroundImageFix" result="effect1_dropShadow_968_8331"/>
<feColorMatrix in="SourceAlpha" type="matrix" values="0 0 0 0 0 0 0 0 0 0 0 0 0 0 0 0 0 0 127 0" result="hardAlpha"/>
<feOffset dy="2"/>
<feGaussianBlur stdDeviation="2"/>
<feComposite in2="hardAlpha" operator="out"/>
<feColorMatrix type="matrix" values="0 0 0 0 0 0 0 0 0 0 0 0 0 0 0 0 0 0 0.14 0"/>
<feBlend mode="normal" in2="effect1_dropShadow_968_8331" result="effect2_dropShadow_968_8331"/>
<feBlend mode="normal" in="SourceGraphic" in2="effect2_dropShadow_968_8331" result="shape"/>
</filter>
<filter id="filter1_dd_968_8331" x="358" y="6" width="366" height="40" filterUnits="userSpaceOnUse" color-interpolation-filters="sRGB">
<feFlood flood-opacity="0" result="BackgroundImageFix"/>
<feColorMatrix in="SourceAlpha" type="matrix" values="0 0 0 0 0 0 0 0 0 0 0 0 0 0 0 0 0 0 127 0" result="hardAlpha"/>
<feOffset/>
<feGaussianBlur stdDeviation="1"/>
<feComposite in2="hardAlpha" operator="out"/>
<feColorMatrix type="matrix" values="0 0 0 0 0 0 0 0 0 0 0 0 0 0 0 0 0 0 0.12 0"/>
<feBlend mode="normal" in2="BackgroundImageFix" result="effect1_dropShadow_968_8331"/>
<feColorMatrix in="SourceAlpha" type="matrix" values="0 0 0 0 0 0 0 0 0 0 0 0 0 0 0 0 0 0 127 0" result="hardAlpha"/>
<feOffset dy="2"/>
<feGaussianBlur stdDeviation="2"/>
<feComposite in2="hardAlpha" operator="out"/>
<feColorMatrix type="matrix" values="0 0 0 0 0 0 0 0 0 0 0 0 0 0 0 0 0 0 0.14 0"/>
<feBlend mode="normal" in2="effect1_dropShadow_968_8331" result="effect2_dropShadow_968_8331"/>
<feBlend mode="normal" in="SourceGraphic" in2="effect2_dropShadow_968_8331" result="shape"/>
</filter>
<clipPath id="clip0_968_8331">
<rect width="146" height="40" fill="white" transform="translate(468 96)"/>
</clipPath>
</defs>
</svg>
