<svg width="724" height="192" viewBox="0 0 724 192" fill="none" xmlns="http://www.w3.org/2000/svg">
<path d="M6 8C6 3.58173 9.58172 0 14 0H352C356.418 0 360 3.58172 360 8V184C360 188.418 356.418 192 352 192H14C9.58172 192 6 188.418 6 184V8Z" fill="#F4F5F4"/>
<g filter="url(#filter0_dd_1198_5565)">
<mask id="path-2-outside-1_1198_5565" maskUnits="userSpaceOnUse" x="4" y="8" width="358" height="32" fill="black">
<rect fill="white" x="4" y="8" width="358" height="32"/>
<path d="M6 10C6 8.89543 6.89543 8 8 8H358C359.105 8 360 8.89543 360 10V38C360 39.1046 359.105 40 358 40H8.00001C6.89544 40 6 39.1046 6 38V10Z"/>
</mask>
<path d="M6 10C6 8.89543 6.89543 8 8 8H358C359.105 8 360 8.89543 360 10V38C360 39.1046 359.105 40 358 40H8.00001C6.89544 40 6 39.1046 6 38V10Z" fill="#0B8A4D" shape-rendering="crispEdges"/>
<path d="M6 8H360H6ZM360 40H6H360ZM8 40C5.79086 40 4 38.2091 4 36V12C4 9.79086 5.79086 8 8 8C8 8 8 8.89543 8 10V38C8 39.1046 8 40 8 40ZM358 8C360.209 8 362 9.79086 362 12V36C362 38.2091 360.209 40 358 40C358 40 358 39.1046 358 38V10C358 8.89543 358 8 358 8Z" fill="#0B8A4D" mask="url(#path-2-outside-1_1198_5565)"/>
<path d="M22.8333 25.5001L21.0416 23.7084C20.8888 23.5556 20.6944 23.4792 20.4583 23.4792C20.2222 23.4792 20.0277 23.5556 19.875 23.7084C19.7222 23.8612 19.6458 24.0556 19.6458 24.2917C19.6458 24.5279 19.7222 24.7223 19.875 24.8751L22.25 27.2501C22.4166 27.4167 22.6111 27.5001 22.8333 27.5001C23.0555 27.5001 23.25 27.4167 23.4166 27.2501L28.125 22.5417C28.2777 22.389 28.3541 22.1945 28.3541 21.9584C28.3541 21.7223 28.2777 21.5279 28.125 21.3751C27.9722 21.2223 27.7777 21.1459 27.5416 21.1459C27.3055 21.1459 27.1111 21.2223 26.9583 21.3751L22.8333 25.5001ZM24 32.3334C22.8472 32.3334 21.7638 32.1147 20.75 31.6772C19.7361 31.2397 18.8541 30.6459 18.1041 29.8959C17.3541 29.1459 16.7604 28.264 16.3229 27.2501C15.8854 26.2362 15.6666 25.1529 15.6666 24.0001C15.6666 22.8473 15.8854 21.764 16.3229 20.7501C16.7604 19.7362 17.3541 18.8542 18.1041 18.1042C18.8541 17.3542 19.7361 16.7605 20.75 16.323C21.7638 15.8855 22.8472 15.6667 24 15.6667C25.1527 15.6667 26.2361 15.8855 27.25 16.323C28.2638 16.7605 29.1458 17.3542 29.8958 18.1042C30.6458 18.8542 31.2395 19.7362 31.677 20.7501C32.1145 21.764 32.3333 22.8473 32.3333 24.0001C32.3333 25.1529 32.1145 26.2362 31.677 27.2501C31.2395 28.264 30.6458 29.1459 29.8958 29.8959C29.1458 30.6459 28.2638 31.2397 27.25 31.6772C26.2361 32.1147 25.1527 32.3334 24 32.3334ZM24 30.6667C25.8611 30.6667 27.4375 30.0209 28.7291 28.7292C30.0208 27.4376 30.6666 25.8612 30.6666 24.0001C30.6666 22.139 30.0208 20.5626 28.7291 19.2709C27.4375 17.9792 25.8611 17.3334 24 17.3334C22.1388 17.3334 20.5625 17.9792 19.2708 19.2709C17.9791 20.5626 17.3333 22.139 17.3333 24.0001C17.3333 25.8612 17.9791 27.4376 19.2708 28.7292C20.5625 30.0209 22.1388 30.6667 24 30.6667Z" fill="white"/>
<path d="M39.248 29.112C39.0347 29.112 38.864 29.064 38.736 28.968C38.608 28.872 38.5333 28.744 38.512 28.584C38.4907 28.424 38.5227 28.2427 38.608 28.04L42.944 18.312C43.0507 18.056 43.184 17.8747 43.344 17.768C43.5147 17.6613 43.7013 17.608 43.904 17.608C44.096 17.608 44.272 17.6613 44.432 17.768C44.6027 17.8747 44.7413 18.056 44.848 18.312L49.184 28.04C49.28 28.2427 49.3173 28.4293 49.296 28.6C49.2747 28.76 49.2053 28.888 49.088 28.984C48.9707 29.0693 48.8053 29.112 48.592 29.112C48.3573 29.112 48.1707 29.0533 48.032 28.936C47.8933 28.8187 47.7707 28.6373 47.664 28.392L46.544 25.8L47.296 26.248H40.48L41.216 25.8L40.112 28.392C40.0053 28.648 39.888 28.8347 39.76 28.952C39.632 29.0587 39.4613 29.112 39.248 29.112ZM43.872 19.56L41.456 25.288L41.056 24.904H46.704L46.336 25.288L43.904 19.56H43.872ZM55.416 29.112C55.16 29.112 54.9573 29.0427 54.808 28.904C54.6693 28.7547 54.6 28.552 54.6 28.296V22.44H53.704C53.5013 22.44 53.3413 22.3867 53.224 22.28C53.1067 22.1627 53.048 22.008 53.048 21.816C53.048 21.6133 53.1067 21.4587 53.224 21.352C53.3413 21.2453 53.5013 21.192 53.704 21.192H55.064L54.6 21.624V21.048C54.6 19.992 54.8613 19.1973 55.384 18.664C55.9067 18.12 56.6693 17.8 57.672 17.704L58.168 17.672C58.3493 17.6507 58.4933 17.6773 58.6 17.752C58.7067 17.8267 58.776 17.9227 58.808 18.04C58.84 18.1573 58.84 18.28 58.808 18.408C58.7867 18.5253 58.7333 18.632 58.648 18.728C58.5627 18.824 58.456 18.8773 58.328 18.888L58.024 18.904C57.3947 18.9573 56.936 19.1387 56.648 19.448C56.36 19.7467 56.216 20.2053 56.216 20.824V21.448L55.992 21.192H57.768C57.992 21.192 58.1573 21.2453 58.264 21.352C58.3813 21.4587 58.44 21.6133 58.44 21.816C58.44 22.008 58.3813 22.1627 58.264 22.28C58.1573 22.3867 57.992 22.44 57.768 22.44H56.216V28.296C56.216 28.84 55.9493 29.112 55.416 29.112ZM61.6008 29.144C61.0568 29.144 60.5661 29.0373 60.1288 28.824C59.7021 28.6107 59.3661 28.3227 59.1208 27.96C58.8754 27.5973 58.7528 27.1867 58.7528 26.728C58.7528 26.152 58.8968 25.6987 59.1848 25.368C59.4834 25.0267 59.9688 24.7867 60.6408 24.648C61.3234 24.4987 62.2408 24.424 63.3928 24.424H64.1448V25.416H63.4088C62.6408 25.416 62.0328 25.4533 61.5848 25.528C61.1368 25.6027 60.8168 25.7307 60.6248 25.912C60.4434 26.0827 60.3528 26.3227 60.3528 26.632C60.3528 27.0373 60.4914 27.368 60.7688 27.624C61.0461 27.8693 61.4301 27.992 61.9208 27.992C62.3154 27.992 62.6621 27.9013 62.9608 27.72C63.2594 27.528 63.4941 27.272 63.6648 26.952C63.8461 26.632 63.9368 26.264 63.9368 25.848V24.008C63.9368 23.4 63.8088 22.9627 63.5528 22.696C63.2968 22.4293 62.8754 22.296 62.2888 22.296C61.9474 22.296 61.5901 22.3387 61.2168 22.424C60.8541 22.5093 60.4754 22.6533 60.0807 22.856C59.8994 22.9413 59.7448 22.968 59.6168 22.936C59.4888 22.904 59.3874 22.8347 59.3128 22.728C59.2381 22.6107 59.1954 22.488 59.1848 22.36C59.1848 22.2213 59.2168 22.088 59.2808 21.96C59.3554 21.832 59.4781 21.736 59.6488 21.672C60.1181 21.448 60.5821 21.288 61.0408 21.192C61.4994 21.096 61.9314 21.048 62.3368 21.048C63.0514 21.048 63.6381 21.16 64.0968 21.384C64.5661 21.608 64.9128 21.9493 65.1368 22.408C65.3608 22.8667 65.4728 23.4587 65.4728 24.184V28.296C65.4728 28.552 65.4088 28.7547 65.2808 28.904C65.1528 29.0427 64.9661 29.112 64.7208 29.112C64.4861 29.112 64.2994 29.0427 64.1608 28.904C64.0221 28.7547 63.9528 28.552 63.9528 28.296V27.256H64.0968C64.0114 27.6507 63.8514 27.992 63.6168 28.28C63.3928 28.5573 63.1101 28.7707 62.7688 28.92C62.4274 29.0693 62.0381 29.144 61.6008 29.144ZM67.9985 29.096C67.7425 29.096 67.5452 29.0213 67.4065 28.872C67.2678 28.712 67.1985 28.4933 67.1985 28.216V21.976C67.1985 21.6987 67.2678 21.4853 67.4065 21.336C67.5452 21.1867 67.7425 21.112 67.9985 21.112C68.2545 21.112 68.4518 21.1867 68.5905 21.336C68.7398 21.4853 68.8145 21.6987 68.8145 21.976V28.216C68.8145 28.4933 68.7452 28.712 68.6065 28.872C68.4678 29.0213 68.2652 29.096 67.9985 29.096ZM67.9985 19.448C67.6785 19.448 67.4278 19.368 67.2465 19.208C67.0758 19.048 66.9905 18.824 66.9905 18.536C66.9905 18.2373 67.0758 18.0133 67.2465 17.864C67.4278 17.704 67.6785 17.624 67.9985 17.624C68.3185 17.624 68.5638 17.704 68.7345 17.864C68.9158 18.0133 69.0065 18.2373 69.0065 18.536C69.0065 18.824 68.9158 19.048 68.7345 19.208C68.5638 19.368 68.3185 19.448 67.9985 19.448ZM71.4051 29.112C71.1385 29.112 70.9358 29.0427 70.7971 28.904C70.6585 28.7547 70.5891 28.552 70.5891 28.296V21.896C70.5891 21.6293 70.6585 21.4267 70.7971 21.288C70.9358 21.1493 71.1278 21.08 71.3731 21.08C71.6291 21.08 71.8211 21.1493 71.9491 21.288C72.0878 21.4267 72.1571 21.6293 72.1571 21.896V23.064H71.9971C72.1678 22.424 72.4825 21.9387 72.9411 21.608C73.3998 21.2773 73.9865 21.0853 74.7011 21.032C74.8931 21.0213 75.0425 21.0693 75.1491 21.176C75.2665 21.2827 75.3305 21.448 75.3411 21.672C75.3625 21.896 75.3145 22.0773 75.1971 22.216C75.0798 22.344 74.8985 22.4187 74.6531 22.44L74.3491 22.472C73.6558 22.536 73.1278 22.7547 72.7651 23.128C72.4025 23.5013 72.2211 24.0133 72.2211 24.664V28.296C72.2211 28.552 72.1518 28.7547 72.0131 28.904C71.8851 29.0427 71.6825 29.112 71.4051 29.112ZM79.6125 29.144C78.7592 29.144 78.0232 28.984 77.4045 28.664C76.7965 28.3333 76.3218 27.8693 75.9805 27.272C75.6498 26.664 75.4845 25.944 75.4845 25.112C75.4845 24.3013 75.6498 23.592 75.9805 22.984C76.3112 22.376 76.7645 21.9013 77.3405 21.56C77.9165 21.2187 78.5725 21.048 79.3085 21.048C79.8525 21.048 80.3378 21.1387 80.7645 21.32C81.1912 21.4907 81.5538 21.7467 81.8525 22.088C82.1618 22.4187 82.3912 22.824 82.5405 23.304C82.7005 23.784 82.7805 24.3227 82.7805 24.92C82.7805 25.1013 82.7272 25.24 82.6205 25.336C82.5138 25.4213 82.3538 25.464 82.1405 25.464H76.7645V24.472H81.6925L81.4205 24.696C81.4205 24.1627 81.3405 23.7093 81.1805 23.336C81.0312 22.9627 80.8018 22.68 80.4925 22.488C80.1938 22.2853 79.8205 22.184 79.3725 22.184C78.8712 22.184 78.4445 22.3013 78.0925 22.536C77.7512 22.7707 77.4898 23.096 77.3085 23.512C77.1272 23.928 77.0365 24.4133 77.0365 24.968V25.064C77.0365 26.0027 77.2552 26.712 77.6925 27.192C78.1405 27.6613 78.7858 27.896 79.6285 27.896C79.9485 27.896 80.2845 27.8533 80.6365 27.768C80.9992 27.6827 81.3405 27.5387 81.6605 27.336C81.8418 27.2293 82.0018 27.1813 82.1405 27.192C82.2898 27.2027 82.4072 27.2507 82.4925 27.336C82.5885 27.4213 82.6472 27.528 82.6685 27.656C82.6898 27.784 82.6685 27.9173 82.6045 28.056C82.5405 28.184 82.4285 28.3013 82.2685 28.408C81.9058 28.6533 81.4845 28.84 81.0045 28.968C80.5245 29.0853 80.0605 29.144 79.6125 29.144Z" fill="white"/>
</g>
<path d="M51 56.5H315C319.142 56.5 322.5 59.8579 322.5 64V160C322.5 164.142 319.142 167.5 315 167.5H51C46.8579 167.5 43.5 164.142 43.5 160V64L43.5098 63.6143C43.7105 59.6514 46.9872 56.5 51 56.5Z" fill="white"/>
<path d="M51 56.5H315C319.142 56.5 322.5 59.8579 322.5 64V160C322.5 164.142 319.142 167.5 315 167.5H51C46.8579 167.5 43.5 164.142 43.5 160V64L43.5098 63.6143C43.7105 59.6514 46.9872 56.5 51 56.5Z" stroke="#A1A1A0"/>
<path d="M142 122C141.45 122 140.979 121.804 140.588 121.413C140.196 121.021 140 120.55 140 120V106C140 105.45 140.196 104.979 140.588 104.588C140.979 104.196 141.45 104 142 104H143V103C143 102.717 143.096 102.479 143.288 102.287C143.479 102.096 143.717 102 144 102C144.283 102 144.521 102.096 144.713 102.287C144.904 102.479 145 102.717 145 103V104H153V103C153 102.717 153.096 102.479 153.288 102.287C153.479 102.096 153.717 102 154 102C154.283 102 154.521 102.096 154.713 102.287C154.904 102.479 155 102.717 155 103V104H156C156.55 104 157.021 104.196 157.413 104.588C157.804 104.979 158 105.45 158 106V120C158 120.55 157.804 121.021 157.413 121.413C157.021 121.804 156.55 122 156 122H142ZM142 120H156V110H142V120ZM142 108H156V106H142V108Z" fill="#201F1F"/>
<path d="M172.312 120C171.88 120 171.544 119.888 171.304 119.664C171.08 119.424 170.968 119.088 170.968 118.656V104.424C170.968 103.992 171.08 103.664 171.304 103.44C171.544 103.2 171.88 103.08 172.312 103.08H181.072C181.408 103.08 181.664 103.168 181.84 103.344C182.016 103.504 182.104 103.744 182.104 104.064C182.104 104.4 182.016 104.656 181.84 104.832C181.664 105.008 181.408 105.096 181.072 105.096H173.368V110.4H180.544C180.896 110.4 181.152 110.488 181.312 110.664C181.488 110.84 181.576 111.088 181.576 111.408C181.576 111.744 181.488 112 181.312 112.176C181.152 112.336 180.896 112.416 180.544 112.416H173.368V117.984H181.072C181.408 117.984 181.664 118.072 181.84 118.248C182.016 118.424 182.104 118.672 182.104 118.992C182.104 119.328 182.016 119.584 181.84 119.76C181.664 119.92 181.408 120 181.072 120H172.312ZM188.662 120.168C188.326 120.168 188.03 120.08 187.774 119.904C187.534 119.728 187.334 119.456 187.174 119.088L183.166 109.776C183.038 109.488 182.99 109.216 183.022 108.96C183.054 108.704 183.174 108.504 183.382 108.36C183.59 108.2 183.87 108.12 184.222 108.12C184.526 108.12 184.766 108.192 184.942 108.336C185.118 108.48 185.278 108.728 185.422 109.08L189.046 118.008H188.374L192.07 109.08C192.214 108.728 192.374 108.48 192.55 108.336C192.742 108.192 193.006 108.12 193.342 108.12C193.63 108.12 193.854 108.2 194.014 108.36C194.19 108.504 194.294 108.704 194.326 108.96C194.374 109.2 194.334 109.464 194.206 109.752L190.15 119.088C190.006 119.456 189.806 119.728 189.55 119.904C189.294 120.08 188.998 120.168 188.662 120.168ZM201.38 120.216C200.1 120.216 198.996 119.976 198.068 119.496C197.156 119 196.444 118.304 195.932 117.408C195.436 116.496 195.188 115.416 195.188 114.168C195.188 112.952 195.436 111.888 195.932 110.976C196.428 110.064 197.108 109.352 197.972 108.84C198.836 108.328 199.82 108.072 200.924 108.072C201.74 108.072 202.468 108.208 203.108 108.48C203.748 108.736 204.292 109.12 204.74 109.632C205.204 110.128 205.548 110.736 205.772 111.456C206.012 112.176 206.132 112.984 206.132 113.88C206.132 114.152 206.052 114.36 205.892 114.504C205.732 114.632 205.492 114.696 205.172 114.696H197.108V113.208H204.5L204.092 113.544C204.092 112.744 203.972 112.064 203.732 111.504C203.508 110.944 203.164 110.52 202.7 110.232C202.252 109.928 201.692 109.776 201.02 109.776C200.268 109.776 199.628 109.952 199.1 110.304C198.588 110.656 198.196 111.144 197.924 111.768C197.652 112.392 197.516 113.12 197.516 113.952V114.096C197.516 115.504 197.844 116.568 198.5 117.288C199.172 117.992 200.14 118.344 201.404 118.344C201.884 118.344 202.388 118.28 202.916 118.152C203.46 118.024 203.972 117.808 204.452 117.504C204.724 117.344 204.964 117.272 205.172 117.288C205.396 117.304 205.572 117.376 205.7 117.504C205.844 117.632 205.932 117.792 205.964 117.984C205.996 118.176 205.964 118.376 205.868 118.584C205.772 118.776 205.604 118.952 205.364 119.112C204.82 119.48 204.188 119.76 203.468 119.952C202.748 120.128 202.052 120.216 201.38 120.216ZM209.474 120.168C209.09 120.168 208.794 120.064 208.586 119.856C208.378 119.632 208.274 119.328 208.274 118.944V109.344C208.274 108.944 208.378 108.64 208.586 108.432C208.794 108.224 209.082 108.12 209.45 108.12C209.834 108.12 210.122 108.224 210.314 108.432C210.522 108.64 210.626 108.944 210.626 109.344V111.216L210.362 110.784C210.714 109.888 211.266 109.216 212.018 108.768C212.77 108.304 213.634 108.072 214.61 108.072C215.538 108.072 216.306 108.248 216.914 108.6C217.538 108.936 218.002 109.456 218.306 110.16C218.61 110.848 218.762 111.72 218.762 112.776V118.944C218.762 119.328 218.658 119.632 218.45 119.856C218.242 120.064 217.946 120.168 217.562 120.168C217.162 120.168 216.858 120.064 216.65 119.856C216.442 119.632 216.338 119.328 216.338 118.944V112.92C216.338 111.912 216.138 111.176 215.738 110.712C215.354 110.248 214.746 110.016 213.914 110.016C212.938 110.016 212.154 110.32 211.562 110.928C210.986 111.536 210.698 112.352 210.698 113.376V118.944C210.698 119.76 210.29 120.168 209.474 120.168ZM226.594 120.216C225.634 120.216 224.826 120.048 224.17 119.712C223.514 119.376 223.026 118.88 222.706 118.224C222.386 117.568 222.226 116.768 222.226 115.824V110.16H220.786C220.466 110.16 220.218 110.08 220.042 109.92C219.866 109.744 219.778 109.512 219.778 109.224C219.778 108.92 219.866 108.688 220.042 108.528C220.218 108.368 220.466 108.288 220.786 108.288H222.226V105.816C222.226 105.416 222.33 105.112 222.538 104.904C222.762 104.696 223.066 104.592 223.45 104.592C223.834 104.592 224.13 104.696 224.338 104.904C224.546 105.112 224.65 105.416 224.65 105.816V108.288H227.458C227.778 108.288 228.026 108.368 228.202 108.528C228.378 108.688 228.466 108.92 228.466 109.224C228.466 109.512 228.378 109.744 228.202 109.92C228.026 110.08 227.778 110.16 227.458 110.16H224.65V115.632C224.65 116.48 224.826 117.12 225.178 117.552C225.546 117.984 226.138 118.2 226.954 118.2C227.242 118.2 227.49 118.176 227.698 118.128C227.922 118.064 228.106 118.024 228.25 118.008C228.426 118.008 228.57 118.072 228.682 118.2C228.794 118.312 228.85 118.536 228.85 118.872C228.85 119.112 228.802 119.336 228.706 119.544C228.626 119.752 228.474 119.888 228.25 119.952C228.058 120.016 227.794 120.072 227.458 120.12C227.138 120.184 226.85 120.216 226.594 120.216Z" fill="#201F1F"/>
<path d="M364 8C364 3.58173 367.582 0 372 0H710C714.418 0 718 3.58172 718 8V184C718 188.418 714.418 192 710 192H372C367.582 192 364 188.418 364 184V8Z" fill="#F4F5F4"/>
<g filter="url(#filter1_dd_1198_5565)">
<mask id="path-10-outside-2_1198_5565" maskUnits="userSpaceOnUse" x="362" y="8" width="358" height="32" fill="black">
<rect fill="white" x="362" y="8" width="358" height="32"/>
<path d="M364 10C364 8.89543 364.895 8 366 8H716C717.105 8 718 8.89543 718 10V38C718 39.1046 717.105 40 716 40H366C364.895 40 364 39.1046 364 38V10Z"/>
</mask>
<path d="M364 10C364 8.89543 364.895 8 366 8H716C717.105 8 718 8.89543 718 10V38C718 39.1046 717.105 40 716 40H366C364.895 40 364 39.1046 364 38V10Z" fill="#DE2048" shape-rendering="crispEdges"/>
<path d="M364 8H718H364ZM718 40H364H718ZM366 40C363.791 40 362 38.2091 362 36V12C362 9.79086 363.791 8 366 8C366 8 366 8.89543 366 10V38C366 39.1046 366 40 366 40ZM716 8C718.209 8 720 9.79086 720 12V36C720 38.2091 718.209 40 716 40C716 40 716 39.1046 716 38V10C716 8.89543 716 8 716 8Z" fill="#DE2048" mask="url(#path-10-outside-2_1198_5565)"/>
<path d="M382 25.1667L384.417 27.5834C384.569 27.7362 384.764 27.8126 385 27.8126C385.236 27.8126 385.431 27.7362 385.583 27.5834C385.736 27.4306 385.812 27.2362 385.812 27.0001C385.812 26.764 385.736 26.5695 385.583 26.4167L383.167 24.0001L385.583 21.5834C385.736 21.4306 385.812 21.2362 385.812 21.0001C385.812 20.764 385.736 20.5695 385.583 20.4167C385.431 20.264 385.236 20.1876 385 20.1876C384.764 20.1876 384.569 20.264 384.417 20.4167L382 22.8334L379.583 20.4167C379.431 20.264 379.236 20.1876 379 20.1876C378.764 20.1876 378.569 20.264 378.417 20.4167C378.264 20.5695 378.187 20.764 378.187 21.0001C378.187 21.2362 378.264 21.4306 378.417 21.5834L380.833 24.0001L378.417 26.4167C378.264 26.5695 378.187 26.764 378.187 27.0001C378.187 27.2362 378.264 27.4306 378.417 27.5834C378.569 27.7362 378.764 27.8126 379 27.8126C379.236 27.8126 379.431 27.7362 379.583 27.5834L382 25.1667ZM382 32.3334C380.847 32.3334 379.764 32.1147 378.75 31.6772C377.736 31.2397 376.854 30.6459 376.104 29.8959C375.354 29.1459 374.76 28.264 374.323 27.2501C373.885 26.2362 373.667 25.1529 373.667 24.0001C373.667 22.8473 373.885 21.764 374.323 20.7501C374.76 19.7362 375.354 18.8542 376.104 18.1042C376.854 17.3542 377.736 16.7605 378.75 16.323C379.764 15.8855 380.847 15.6667 382 15.6667C383.153 15.6667 384.236 15.8855 385.25 16.323C386.264 16.7605 387.146 17.3542 387.896 18.1042C388.646 18.8542 389.24 19.7362 389.677 20.7501C390.115 21.764 390.333 22.8473 390.333 24.0001C390.333 25.1529 390.115 26.2362 389.677 27.2501C389.24 28.264 388.646 29.1459 387.896 29.8959C387.146 30.6459 386.264 31.2397 385.25 31.6772C384.236 32.1147 383.153 32.3334 382 32.3334ZM382 30.6667C383.861 30.6667 385.437 30.0209 386.729 28.7292C388.021 27.4376 388.667 25.8612 388.667 24.0001C388.667 22.139 388.021 20.5626 386.729 19.2709C385.437 17.9792 383.861 17.3334 382 17.3334C380.139 17.3334 378.562 17.9792 377.271 19.2709C375.979 20.5626 375.333 22.139 375.333 24.0001C375.333 25.8612 375.979 27.4376 377.271 28.7292C378.562 30.0209 380.139 30.6667 382 30.6667Z" fill="white"/>
<path d="M397.248 29.112C397.035 29.112 396.864 29.064 396.736 28.968C396.608 28.872 396.533 28.744 396.512 28.584C396.491 28.424 396.523 28.2427 396.608 28.04L400.944 18.312C401.051 18.056 401.184 17.8747 401.344 17.768C401.515 17.6613 401.701 17.608 401.904 17.608C402.096 17.608 402.272 17.6613 402.432 17.768C402.603 17.8747 402.741 18.056 402.848 18.312L407.184 28.04C407.28 28.2427 407.317 28.4293 407.296 28.6C407.275 28.76 407.205 28.888 407.088 28.984C406.971 29.0693 406.805 29.112 406.592 29.112C406.357 29.112 406.171 29.0533 406.032 28.936C405.893 28.8187 405.771 28.6373 405.664 28.392L404.544 25.8L405.296 26.248H398.48L399.216 25.8L398.112 28.392C398.005 28.648 397.888 28.8347 397.76 28.952C397.632 29.0587 397.461 29.112 397.248 29.112ZM401.872 19.56L399.456 25.288L399.056 24.904H404.704L404.336 25.288L401.904 19.56H401.872ZM412.936 29.112C412.68 29.112 412.483 29.0427 412.344 28.904C412.205 28.7547 412.136 28.552 412.136 28.296V21.896C412.136 21.6293 412.205 21.4267 412.344 21.288C412.483 21.1493 412.675 21.08 412.92 21.08C413.176 21.08 413.368 21.1493 413.496 21.288C413.635 21.4267 413.704 21.6293 413.704 21.896V23.144L413.528 22.856C413.763 22.2587 414.131 21.8107 414.632 21.512C415.133 21.2027 415.709 21.048 416.36 21.048C416.979 21.048 417.491 21.1653 417.896 21.4C418.312 21.624 418.621 21.9707 418.824 22.44C419.027 22.8987 419.128 23.48 419.128 24.184V28.296C419.128 28.552 419.059 28.7547 418.92 28.904C418.781 29.0427 418.584 29.112 418.328 29.112C418.061 29.112 417.859 29.0427 417.72 28.904C417.581 28.7547 417.512 28.552 417.512 28.296V24.28C417.512 23.608 417.379 23.1173 417.112 22.808C416.856 22.4987 416.451 22.344 415.896 22.344C415.245 22.344 414.723 22.5467 414.328 22.952C413.944 23.3573 413.752 23.9013 413.752 24.584V28.296C413.752 28.84 413.48 29.112 412.936 29.112ZM424.519 29.144C423.665 29.144 422.929 28.984 422.311 28.664C421.703 28.3333 421.228 27.8693 420.887 27.272C420.556 26.664 420.391 25.944 420.391 25.112C420.391 24.3013 420.556 23.592 420.887 22.984C421.217 22.376 421.671 21.9013 422.247 21.56C422.823 21.2187 423.479 21.048 424.215 21.048C424.759 21.048 425.244 21.1387 425.671 21.32C426.097 21.4907 426.46 21.7467 426.759 22.088C427.068 22.4187 427.297 22.824 427.447 23.304C427.607 23.784 427.687 24.3227 427.687 24.92C427.687 25.1013 427.633 25.24 427.527 25.336C427.42 25.4213 427.26 25.464 427.047 25.464H421.671V24.472H426.599L426.327 24.696C426.327 24.1627 426.247 23.7093 426.087 23.336C425.937 22.9627 425.708 22.68 425.399 22.488C425.1 22.2853 424.727 22.184 424.279 22.184C423.777 22.184 423.351 22.3013 422.999 22.536C422.657 22.7707 422.396 23.096 422.215 23.512C422.033 23.928 421.943 24.4133 421.943 24.968V25.064C421.943 26.0027 422.161 26.712 422.599 27.192C423.047 27.6613 423.692 27.896 424.535 27.896C424.855 27.896 425.191 27.8533 425.543 27.768C425.905 27.6827 426.247 27.5387 426.567 27.336C426.748 27.2293 426.908 27.1813 427.047 27.192C427.196 27.2027 427.313 27.2507 427.399 27.336C427.495 27.4213 427.553 27.528 427.575 27.656C427.596 27.784 427.575 27.9173 427.511 28.056C427.447 28.184 427.335 28.3013 427.175 28.408C426.812 28.6533 426.391 28.84 425.911 28.968C425.431 29.0853 424.967 29.144 424.519 29.144ZM433.467 31.992C433.211 31.992 433.014 31.9227 432.875 31.784C432.737 31.6453 432.667 31.4427 432.667 31.176V21.896C432.667 21.6293 432.737 21.4267 432.875 21.288C433.014 21.1493 433.206 21.08 433.451 21.08C433.707 21.08 433.905 21.1493 434.043 21.288C434.182 21.4267 434.251 21.6293 434.251 21.896V23.288L434.075 22.952C434.246 22.376 434.582 21.9173 435.083 21.576C435.585 21.224 436.177 21.048 436.859 21.048C437.553 21.048 438.155 21.2133 438.667 21.544C439.19 21.8747 439.59 22.3387 439.867 22.936C440.155 23.5333 440.299 24.2533 440.299 25.096C440.299 25.9173 440.155 26.6373 439.867 27.256C439.59 27.864 439.195 28.3333 438.683 28.664C438.171 28.984 437.563 29.144 436.859 29.144C436.187 29.144 435.601 28.9733 435.099 28.632C434.598 28.2907 434.262 27.8373 434.091 27.272H434.283V31.176C434.283 31.4427 434.209 31.6453 434.059 31.784C433.921 31.9227 433.723 31.992 433.467 31.992ZM436.459 27.896C436.907 27.896 437.297 27.7893 437.627 27.576C437.958 27.3627 438.214 27.048 438.395 26.632C438.577 26.216 438.667 25.704 438.667 25.096C438.667 24.1787 438.465 23.4853 438.059 23.016C437.665 22.5467 437.131 22.312 436.459 22.312C436.022 22.312 435.633 22.4187 435.291 22.632C434.961 22.8347 434.705 23.144 434.523 23.56C434.342 23.976 434.251 24.488 434.251 25.096C434.251 26.0027 434.454 26.696 434.859 27.176C435.265 27.656 435.798 27.896 436.459 27.896ZM444.116 29.144C443.572 29.144 443.082 29.0373 442.644 28.824C442.218 28.6107 441.882 28.3227 441.636 27.96C441.391 27.5973 441.268 27.1867 441.268 26.728C441.268 26.152 441.412 25.6987 441.7 25.368C441.999 25.0267 442.484 24.7867 443.156 24.648C443.839 24.4987 444.756 24.424 445.908 24.424H446.66V25.416H445.924C445.156 25.416 444.548 25.4533 444.1 25.528C443.652 25.6027 443.332 25.7307 443.14 25.912C442.959 26.0827 442.868 26.3227 442.868 26.632C442.868 27.0373 443.007 27.368 443.284 27.624C443.562 27.8693 443.946 27.992 444.436 27.992C444.831 27.992 445.178 27.9013 445.476 27.72C445.775 27.528 446.01 27.272 446.18 26.952C446.362 26.632 446.452 26.264 446.452 25.848V24.008C446.452 23.4 446.324 22.9627 446.068 22.696C445.812 22.4293 445.391 22.296 444.804 22.296C444.463 22.296 444.106 22.3387 443.732 22.424C443.37 22.5093 442.991 22.6533 442.596 22.856C442.415 22.9413 442.26 22.968 442.132 22.936C442.004 22.904 441.903 22.8347 441.828 22.728C441.754 22.6107 441.711 22.488 441.7 22.36C441.7 22.2213 441.732 22.088 441.796 21.96C441.871 21.832 441.994 21.736 442.164 21.672C442.634 21.448 443.098 21.288 443.556 21.192C444.015 21.096 444.447 21.048 444.852 21.048C445.567 21.048 446.154 21.16 446.612 21.384C447.082 21.608 447.428 21.9493 447.652 22.408C447.876 22.8667 447.988 23.4587 447.988 24.184V28.296C447.988 28.552 447.924 28.7547 447.796 28.904C447.668 29.0427 447.482 29.112 447.236 29.112C447.002 29.112 446.815 29.0427 446.676 28.904C446.538 28.7547 446.468 28.552 446.468 28.296V27.256H446.612C446.527 27.6507 446.367 27.992 446.132 28.28C445.908 28.5573 445.626 28.7707 445.284 28.92C444.943 29.0693 444.554 29.144 444.116 29.144ZM452.45 29.144C451.981 29.144 451.495 29.0907 450.994 28.984C450.503 28.8773 450.05 28.696 449.634 28.44C449.495 28.344 449.399 28.2373 449.346 28.12C449.293 28.0027 449.271 27.8853 449.282 27.768C449.303 27.64 449.351 27.5333 449.426 27.448C449.511 27.352 449.613 27.2933 449.73 27.272C449.858 27.2507 449.991 27.2773 450.13 27.352C450.546 27.5867 450.946 27.752 451.33 27.848C451.714 27.9333 452.093 27.976 452.466 27.976C453.031 27.976 453.458 27.8747 453.746 27.672C454.034 27.4693 454.178 27.1973 454.178 26.856C454.178 26.5787 454.082 26.3653 453.89 26.216C453.698 26.056 453.41 25.9333 453.026 25.848L451.506 25.544C450.845 25.4053 450.343 25.16 450.002 24.808C449.661 24.456 449.49 24.008 449.49 23.464C449.49 22.9733 449.623 22.5467 449.89 22.184C450.157 21.8213 450.53 21.544 451.01 21.352C451.49 21.1493 452.045 21.048 452.674 21.048C453.143 21.048 453.586 21.1067 454.002 21.224C454.418 21.3413 454.802 21.5173 455.154 21.752C455.293 21.8267 455.383 21.928 455.426 22.056C455.469 22.1733 455.474 22.2907 455.442 22.408C455.421 22.5253 455.367 22.632 455.282 22.728C455.197 22.8133 455.09 22.8667 454.962 22.888C454.845 22.8987 454.711 22.8667 454.562 22.792C454.242 22.5893 453.922 22.4453 453.602 22.36C453.293 22.2747 452.983 22.232 452.674 22.232C452.109 22.232 451.682 22.3387 451.394 22.552C451.117 22.7547 450.978 23.032 450.978 23.384C450.978 23.6507 451.063 23.8693 451.234 24.04C451.405 24.2107 451.671 24.3333 452.034 24.408L453.554 24.712C454.247 24.8507 454.77 25.0853 455.122 25.416C455.485 25.7467 455.666 26.1947 455.666 26.76C455.666 27.496 455.373 28.0773 454.786 28.504C454.199 28.9307 453.421 29.144 452.45 29.144ZM461.963 29.112C461.707 29.112 461.504 29.0427 461.355 28.904C461.216 28.7547 461.147 28.552 461.147 28.296V22.44H460.251C460.048 22.44 459.888 22.3867 459.771 22.28C459.654 22.1627 459.595 22.008 459.595 21.816C459.595 21.6133 459.654 21.4587 459.771 21.352C459.888 21.2453 460.048 21.192 460.251 21.192H461.611L461.147 21.624V21.048C461.147 19.992 461.408 19.1973 461.931 18.664C462.454 18.12 463.216 17.8 464.219 17.704L464.715 17.672C464.896 17.6507 465.04 17.6773 465.147 17.752C465.254 17.8267 465.323 17.9227 465.355 18.04C465.387 18.1573 465.387 18.28 465.355 18.408C465.334 18.5253 465.28 18.632 465.195 18.728C465.11 18.824 465.003 18.8773 464.875 18.888L464.571 18.904C463.942 18.9573 463.483 19.1387 463.195 19.448C462.907 19.7467 462.763 20.2053 462.763 20.824V21.448L462.539 21.192H464.315C464.539 21.192 464.704 21.2453 464.811 21.352C464.928 21.4587 464.987 21.6133 464.987 21.816C464.987 22.008 464.928 22.1627 464.811 22.28C464.704 22.3867 464.539 22.44 464.315 22.44H462.763V28.296C462.763 28.84 462.496 29.112 461.963 29.112ZM468.148 29.144C467.604 29.144 467.113 29.0373 466.676 28.824C466.249 28.6107 465.913 28.3227 465.668 27.96C465.422 27.5973 465.3 27.1867 465.3 26.728C465.3 26.152 465.444 25.6987 465.732 25.368C466.03 25.0267 466.516 24.7867 467.188 24.648C467.87 24.4987 468.788 24.424 469.94 24.424H470.692V25.416H469.956C469.188 25.416 468.58 25.4533 468.132 25.528C467.684 25.6027 467.364 25.7307 467.172 25.912C466.99 26.0827 466.9 26.3227 466.9 26.632C466.9 27.0373 467.038 27.368 467.316 27.624C467.593 27.8693 467.977 27.992 468.468 27.992C468.862 27.992 469.209 27.9013 469.508 27.72C469.806 27.528 470.041 27.272 470.212 26.952C470.393 26.632 470.484 26.264 470.484 25.848V24.008C470.484 23.4 470.356 22.9627 470.1 22.696C469.844 22.4293 469.422 22.296 468.836 22.296C468.494 22.296 468.137 22.3387 467.764 22.424C467.401 22.5093 467.022 22.6533 466.628 22.856C466.446 22.9413 466.292 22.968 466.164 22.936C466.036 22.904 465.934 22.8347 465.86 22.728C465.785 22.6107 465.742 22.488 465.732 22.36C465.732 22.2213 465.764 22.088 465.828 21.96C465.902 21.832 466.025 21.736 466.196 21.672C466.665 21.448 467.129 21.288 467.588 21.192C468.046 21.096 468.478 21.048 468.884 21.048C469.598 21.048 470.185 21.16 470.644 21.384C471.113 21.608 471.46 21.9493 471.684 22.408C471.908 22.8667 472.02 23.4587 472.02 24.184V28.296C472.02 28.552 471.956 28.7547 471.828 28.904C471.7 29.0427 471.513 29.112 471.268 29.112C471.033 29.112 470.846 29.0427 470.708 28.904C470.569 28.7547 470.5 28.552 470.5 28.296V27.256H470.644C470.558 27.6507 470.398 27.992 470.164 28.28C469.94 28.5573 469.657 28.7707 469.316 28.92C468.974 29.0693 468.585 29.144 468.148 29.144ZM474.545 29.096C474.289 29.096 474.092 29.0213 473.953 28.872C473.815 28.712 473.745 28.4933 473.745 28.216V21.976C473.745 21.6987 473.815 21.4853 473.953 21.336C474.092 21.1867 474.289 21.112 474.545 21.112C474.801 21.112 474.999 21.1867 475.137 21.336C475.287 21.4853 475.361 21.6987 475.361 21.976V28.216C475.361 28.4933 475.292 28.712 475.153 28.872C475.015 29.0213 474.812 29.096 474.545 29.096ZM474.545 19.448C474.225 19.448 473.975 19.368 473.793 19.208C473.623 19.048 473.537 18.824 473.537 18.536C473.537 18.2373 473.623 18.0133 473.793 17.864C473.975 17.704 474.225 17.624 474.545 17.624C474.865 17.624 475.111 17.704 475.281 17.864C475.463 18.0133 475.553 18.2373 475.553 18.536C475.553 18.824 475.463 19.048 475.281 19.208C475.111 19.368 474.865 19.448 474.545 19.448ZM477.952 29.112C477.685 29.112 477.483 29.0427 477.344 28.904C477.205 28.7547 477.136 28.552 477.136 28.296V21.896C477.136 21.6293 477.205 21.4267 477.344 21.288C477.483 21.1493 477.675 21.08 477.92 21.08C478.176 21.08 478.368 21.1493 478.496 21.288C478.635 21.4267 478.704 21.6293 478.704 21.896V23.064H478.544C478.715 22.424 479.029 21.9387 479.488 21.608C479.947 21.2773 480.533 21.0853 481.248 21.032C481.44 21.0213 481.589 21.0693 481.696 21.176C481.813 21.2827 481.877 21.448 481.888 21.672C481.909 21.896 481.861 22.0773 481.744 22.216C481.627 22.344 481.445 22.4187 481.2 22.44L480.896 22.472C480.203 22.536 479.675 22.7547 479.312 23.128C478.949 23.5013 478.768 24.0133 478.768 24.664V28.296C478.768 28.552 478.699 28.7547 478.56 28.904C478.432 29.0427 478.229 29.112 477.952 29.112ZM486.159 29.144C485.306 29.144 484.57 28.984 483.951 28.664C483.343 28.3333 482.869 27.8693 482.527 27.272C482.197 26.664 482.031 25.944 482.031 25.112C482.031 24.3013 482.197 23.592 482.527 22.984C482.858 22.376 483.311 21.9013 483.887 21.56C484.463 21.2187 485.119 21.048 485.855 21.048C486.399 21.048 486.885 21.1387 487.311 21.32C487.738 21.4907 488.101 21.7467 488.399 22.088C488.709 22.4187 488.938 22.824 489.087 23.304C489.247 23.784 489.327 24.3227 489.327 24.92C489.327 25.1013 489.274 25.24 489.167 25.336C489.061 25.4213 488.901 25.464 488.687 25.464H483.311V24.472H488.239L487.967 24.696C487.967 24.1627 487.887 23.7093 487.727 23.336C487.578 22.9627 487.349 22.68 487.039 22.488C486.741 22.2853 486.367 22.184 485.919 22.184C485.418 22.184 484.991 22.3013 484.639 22.536C484.298 22.7707 484.037 23.096 483.855 23.512C483.674 23.928 483.583 24.4133 483.583 24.968V25.064C483.583 26.0027 483.802 26.712 484.239 27.192C484.687 27.6613 485.333 27.896 486.175 27.896C486.495 27.896 486.831 27.8533 487.183 27.768C487.546 27.6827 487.887 27.5387 488.207 27.336C488.389 27.2293 488.549 27.1813 488.687 27.192C488.837 27.2027 488.954 27.2507 489.039 27.336C489.135 27.4213 489.194 27.528 489.215 27.656C489.237 27.784 489.215 27.9173 489.151 28.056C489.087 28.184 488.975 28.3013 488.815 28.408C488.453 28.6533 488.031 28.84 487.551 28.968C487.071 29.0853 486.607 29.144 486.159 29.144Z" fill="white"/>
</g>
<path d="M409 56.5H673C677.142 56.5 680.5 59.8579 680.5 64V160C680.5 164.142 677.142 167.5 673 167.5H409C404.858 167.5 401.5 164.142 401.5 160V64L401.51 63.6143C401.711 59.6514 404.987 56.5 409 56.5Z" fill="white"/>
<path d="M409 56.5H673C677.142 56.5 680.5 59.8579 680.5 64V160C680.5 164.142 677.142 167.5 673 167.5H409C404.858 167.5 401.5 164.142 401.5 160V64L401.51 63.6143C401.711 59.6514 404.987 56.5 409 56.5Z" stroke="#A1A1A0"/>
<path d="M502.333 118.667C501.967 118.667 501.653 118.536 501.392 118.275C501.131 118.014 501 117.7 501 117.333V108C501 107.633 501.131 107.319 501.392 107.058C501.653 106.797 501.967 106.667 502.333 106.667H503V106C503 105.811 503.064 105.653 503.192 105.525C503.319 105.397 503.478 105.333 503.667 105.333C503.856 105.333 504.014 105.397 504.142 105.525C504.269 105.653 504.333 105.811 504.333 106V106.667H509.667V106C509.667 105.811 509.731 105.653 509.858 105.525C509.986 105.397 510.144 105.333 510.333 105.333C510.522 105.333 510.681 105.397 510.808 105.525C510.936 105.653 511 105.811 511 106V106.667H511.667C512.033 106.667 512.347 106.797 512.608 107.058C512.869 107.319 513 107.633 513 108V117.333C513 117.7 512.869 118.014 512.608 118.275C512.347 118.536 512.033 118.667 511.667 118.667H502.333ZM502.333 117.333H511.667V110.667H502.333V117.333ZM502.333 109.333H511.667V108H502.333V109.333Z" fill="#201F1F"/>
<path d="M526.312 120C525.88 120 525.544 119.888 525.304 119.664C525.08 119.424 524.968 119.088 524.968 118.656V104.424C524.968 103.992 525.08 103.664 525.304 103.44C525.544 103.2 525.88 103.08 526.312 103.08H535.072C535.408 103.08 535.664 103.168 535.84 103.344C536.016 103.504 536.104 103.744 536.104 104.064C536.104 104.4 536.016 104.656 535.84 104.832C535.664 105.008 535.408 105.096 535.072 105.096H527.368V110.4H534.544C534.896 110.4 535.152 110.488 535.312 110.664C535.488 110.84 535.576 111.088 535.576 111.408C535.576 111.744 535.488 112 535.312 112.176C535.152 112.336 534.896 112.416 534.544 112.416H527.368V117.984H535.072C535.408 117.984 535.664 118.072 535.84 118.248C536.016 118.424 536.104 118.672 536.104 118.992C536.104 119.328 536.016 119.584 535.84 119.76C535.664 119.92 535.408 120 535.072 120H526.312ZM542.662 120.168C542.326 120.168 542.03 120.08 541.774 119.904C541.534 119.728 541.334 119.456 541.174 119.088L537.166 109.776C537.038 109.488 536.99 109.216 537.022 108.96C537.054 108.704 537.174 108.504 537.382 108.36C537.59 108.2 537.87 108.12 538.222 108.12C538.526 108.12 538.766 108.192 538.942 108.336C539.118 108.48 539.278 108.728 539.422 109.08L543.046 118.008H542.374L546.07 109.08C546.214 108.728 546.374 108.48 546.55 108.336C546.742 108.192 547.006 108.12 547.342 108.12C547.63 108.12 547.854 108.2 548.014 108.36C548.19 108.504 548.294 108.704 548.326 108.96C548.374 109.2 548.334 109.464 548.206 109.752L544.15 119.088C544.006 119.456 543.806 119.728 543.55 119.904C543.294 120.08 542.998 120.168 542.662 120.168ZM555.38 120.216C554.1 120.216 552.996 119.976 552.068 119.496C551.156 119 550.444 118.304 549.932 117.408C549.436 116.496 549.188 115.416 549.188 114.168C549.188 112.952 549.436 111.888 549.932 110.976C550.428 110.064 551.108 109.352 551.972 108.84C552.836 108.328 553.82 108.072 554.924 108.072C555.74 108.072 556.468 108.208 557.108 108.48C557.748 108.736 558.292 109.12 558.74 109.632C559.204 110.128 559.548 110.736 559.772 111.456C560.012 112.176 560.132 112.984 560.132 113.88C560.132 114.152 560.052 114.36 559.892 114.504C559.732 114.632 559.492 114.696 559.172 114.696H551.108V113.208H558.5L558.092 113.544C558.092 112.744 557.972 112.064 557.732 111.504C557.508 110.944 557.164 110.52 556.7 110.232C556.252 109.928 555.692 109.776 555.02 109.776C554.268 109.776 553.628 109.952 553.1 110.304C552.588 110.656 552.196 111.144 551.924 111.768C551.652 112.392 551.516 113.12 551.516 113.952V114.096C551.516 115.504 551.844 116.568 552.5 117.288C553.172 117.992 554.14 118.344 555.404 118.344C555.884 118.344 556.388 118.28 556.916 118.152C557.46 118.024 557.972 117.808 558.452 117.504C558.724 117.344 558.964 117.272 559.172 117.288C559.396 117.304 559.572 117.376 559.7 117.504C559.844 117.632 559.932 117.792 559.964 117.984C559.996 118.176 559.964 118.376 559.868 118.584C559.772 118.776 559.604 118.952 559.364 119.112C558.82 119.48 558.188 119.76 557.468 119.952C556.748 120.128 556.052 120.216 555.38 120.216ZM563.474 120.168C563.09 120.168 562.794 120.064 562.586 119.856C562.378 119.632 562.274 119.328 562.274 118.944V109.344C562.274 108.944 562.378 108.64 562.586 108.432C562.794 108.224 563.082 108.12 563.45 108.12C563.834 108.12 564.122 108.224 564.314 108.432C564.522 108.64 564.626 108.944 564.626 109.344V111.216L564.362 110.784C564.714 109.888 565.266 109.216 566.018 108.768C566.77 108.304 567.634 108.072 568.61 108.072C569.538 108.072 570.306 108.248 570.914 108.6C571.538 108.936 572.002 109.456 572.306 110.16C572.61 110.848 572.762 111.72 572.762 112.776V118.944C572.762 119.328 572.658 119.632 572.45 119.856C572.242 120.064 571.946 120.168 571.562 120.168C571.162 120.168 570.858 120.064 570.65 119.856C570.442 119.632 570.338 119.328 570.338 118.944V112.92C570.338 111.912 570.138 111.176 569.738 110.712C569.354 110.248 568.746 110.016 567.914 110.016C566.938 110.016 566.154 110.32 565.562 110.928C564.986 111.536 564.698 112.352 564.698 113.376V118.944C564.698 119.76 564.29 120.168 563.474 120.168ZM580.594 120.216C579.634 120.216 578.826 120.048 578.17 119.712C577.514 119.376 577.026 118.88 576.706 118.224C576.386 117.568 576.226 116.768 576.226 115.824V110.16H574.786C574.466 110.16 574.218 110.08 574.042 109.92C573.866 109.744 573.778 109.512 573.778 109.224C573.778 108.92 573.866 108.688 574.042 108.528C574.218 108.368 574.466 108.288 574.786 108.288H576.226V105.816C576.226 105.416 576.33 105.112 576.538 104.904C576.762 104.696 577.066 104.592 577.45 104.592C577.834 104.592 578.13 104.696 578.338 104.904C578.546 105.112 578.65 105.416 578.65 105.816V108.288H581.458C581.778 108.288 582.026 108.368 582.202 108.528C582.378 108.688 582.466 108.92 582.466 109.224C582.466 109.512 582.378 109.744 582.202 109.92C582.026 110.08 581.778 110.16 581.458 110.16H578.65V115.632C578.65 116.48 578.826 117.12 579.178 117.552C579.546 117.984 580.138 118.2 580.954 118.2C581.242 118.2 581.49 118.176 581.698 118.128C581.922 118.064 582.106 118.024 582.25 118.008C582.426 118.008 582.57 118.072 582.682 118.2C582.794 118.312 582.85 118.536 582.85 118.872C582.85 119.112 582.802 119.336 582.706 119.544C582.626 119.752 582.474 119.888 582.25 119.952C582.058 120.016 581.794 120.072 581.458 120.12C581.138 120.184 580.85 120.216 580.594 120.216Z" fill="#201F1F"/>
<defs>
<filter id="filter0_dd_1198_5565" x="0" y="6" width="366" height="40" filterUnits="userSpaceOnUse" color-interpolation-filters="sRGB">
<feFlood flood-opacity="0" result="BackgroundImageFix"/>
<feColorMatrix in="SourceAlpha" type="matrix" values="0 0 0 0 0 0 0 0 0 0 0 0 0 0 0 0 0 0 127 0" result="hardAlpha"/>
<feOffset/>
<feGaussianBlur stdDeviation="1"/>
<feComposite in2="hardAlpha" operator="out"/>
<feColorMatrix type="matrix" values="0 0 0 0 0 0 0 0 0 0 0 0 0 0 0 0 0 0 0.12 0"/>
<feBlend mode="normal" in2="BackgroundImageFix" result="effect1_dropShadow_1198_5565"/>
<feColorMatrix in="SourceAlpha" type="matrix" values="0 0 0 0 0 0 0 0 0 0 0 0 0 0 0 0 0 0 127 0" result="hardAlpha"/>
<feOffset dy="2"/>
<feGaussianBlur stdDeviation="2"/>
<feComposite in2="hardAlpha" operator="out"/>
<feColorMatrix type="matrix" values="0 0 0 0 0 0 0 0 0 0 0 0 0 0 0 0 0 0 0.14 0"/>
<feBlend mode="normal" in2="effect1_dropShadow_1198_5565" result="effect2_dropShadow_1198_5565"/>
<feBlend mode="normal" in="SourceGraphic" in2="effect2_dropShadow_1198_5565" result="shape"/>
</filter>
<filter id="filter1_dd_1198_5565" x="358" y="6" width="366" height="40" filterUnits="userSpaceOnUse" color-interpolation-filters="sRGB">
<feFlood flood-opacity="0" result="BackgroundImageFix"/>
<feColorMatrix in="SourceAlpha" type="matrix" values="0 0 0 0 0 0 0 0 0 0 0 0 0 0 0 0 0 0 127 0" result="hardAlpha"/>
<feOffset/>
<feGaussianBlur stdDeviation="1"/>
<feComposite in2="hardAlpha" operator="out"/>
<feColorMatrix type="matrix" values="0 0 0 0 0 0 0 0 0 0 0 0 0 0 0 0 0 0 0.12 0"/>
<feBlend mode="normal" in2="BackgroundImageFix" result="effect1_dropShadow_1198_5565"/>
<feColorMatrix in="SourceAlpha" type="matrix" values="0 0 0 0 0 0 0 0 0 0 0 0 0 0 0 0 0 0 127 0" result="hardAlpha"/>
<feOffset dy="2"/>
<feGaussianBlur stdDeviation="2"/>
<feComposite in2="hardAlpha" operator="out"/>
<feColorMatrix type="matrix" values="0 0 0 0 0 0 0 0 0 0 0 0 0 0 0 0 0 0 0.14 0"/>
<feBlend mode="normal" in2="effect1_dropShadow_1198_5565" result="effect2_dropShadow_1198_5565"/>
<feBlend mode="normal" in="SourceGraphic" in2="effect2_dropShadow_1198_5565" result="shape"/>
</filter>
</defs>
</svg>
