<svg viewBox="0 0 20 20" fill="none" xmlns="http://www.w3.org/2000/svg">
<path d="M4.58325 14.1667V5.83333C4.58325 5.59722 4.66311 5.39931 4.82284 5.23958C4.98256 5.07986 5.18047 5 5.41659 5C5.6527 5 5.85061 5.07986 6.01034 5.23958C6.17006 5.39931 6.24992 5.59722 6.24992 5.83333V14.1667C6.24992 14.4028 6.17006 14.6007 6.01034 14.7604C5.85061 14.9201 5.6527 15 5.41659 15C5.18047 15 4.98256 14.9201 4.82284 14.7604C4.66311 14.6007 4.58325 14.4028 4.58325 14.1667ZM14.1249 14.1458L8.95825 10.6875C8.83325 10.6042 8.7395 10.5035 8.677 10.3854C8.6145 10.2674 8.58325 10.1389 8.58325 10C8.58325 9.86111 8.6145 9.73264 8.677 9.61458C8.7395 9.49653 8.83325 9.39583 8.95825 9.3125L14.1249 5.85417C14.1944 5.79861 14.2708 5.76389 14.3541 5.75C14.4374 5.73611 14.5138 5.72917 14.5833 5.72917C14.8055 5.72917 14.9999 5.80556 15.1666 5.95833C15.3333 6.11111 15.4166 6.3125 15.4166 6.5625V13.4375C15.4166 13.6875 15.3333 13.8889 15.1666 14.0417C14.9999 14.1944 14.8055 14.2708 14.5833 14.2708C14.5138 14.2708 14.4374 14.2639 14.3541 14.25C14.2708 14.2361 14.1944 14.2014 14.1249 14.1458ZM13.7499 11.875V8.125L10.9166 10L13.7499 11.875Z" fill="currentColor"/>
</svg>