<svg viewBox="0 0 20 20" fill="none" xmlns="http://www.w3.org/2000/svg">
<path d="M3.33341 16.6666C2.87508 16.6666 2.48272 16.5035 2.15633 16.1771C1.82994 15.8507 1.66675 15.4583 1.66675 15V4.99998C1.66675 4.54165 1.82994 4.14929 2.15633 3.8229C2.48272 3.49651 2.87508 3.33331 3.33341 3.33331H16.6667C17.1251 3.33331 17.5174 3.49651 17.8438 3.8229C18.1702 4.14929 18.3334 4.54165 18.3334 4.99998V15C18.3334 15.4583 18.1702 15.8507 17.8438 16.1771C17.5174 16.5035 17.1251 16.6666 16.6667 16.6666H3.33341ZM5.83341 13.3333H10.8334C11.0695 13.3333 11.2674 13.2535 11.4272 13.0937C11.5869 12.934 11.6667 12.7361 11.6667 12.5C11.6667 12.2639 11.5869 12.066 11.4272 11.9062C11.2674 11.7465 11.0695 11.6666 10.8334 11.6666H5.83341C5.5973 11.6666 5.39939 11.7465 5.23966 11.9062C5.07994 12.066 5.00008 12.2639 5.00008 12.5C5.00008 12.7361 5.07994 12.934 5.23966 13.0937C5.39939 13.2535 5.5973 13.3333 5.83341 13.3333ZM9.16675 9.99998H14.1667C14.4029 9.99998 14.6008 9.92012 14.7605 9.7604C14.9202 9.60067 15.0001 9.40276 15.0001 9.16665C15.0001 8.93053 14.9202 8.73262 14.7605 8.5729C14.6008 8.41317 14.4029 8.33331 14.1667 8.33331H9.16675C8.93064 8.33331 8.73272 8.41317 8.573 8.5729C8.41328 8.73262 8.33341 8.93053 8.33341 9.16665C8.33341 9.40276 8.41328 9.60067 8.573 9.7604C8.73272 9.92012 8.93064 9.99998 9.16675 9.99998ZM5.83341 9.99998C6.06953 9.99998 6.26744 9.92012 6.42716 9.7604C6.58689 9.60067 6.66675 9.40276 6.66675 9.16665C6.66675 8.93053 6.58689 8.73262 6.42716 8.5729C6.26744 8.41317 6.06953 8.33331 5.83341 8.33331C5.5973 8.33331 5.39939 8.41317 5.23966 8.5729C5.07994 8.73262 5.00008 8.93053 5.00008 9.16665C5.00008 9.40276 5.07994 9.60067 5.23966 9.7604C5.39939 9.92012 5.5973 9.99998 5.83341 9.99998ZM14.1667 13.3333C14.4029 13.3333 14.6008 13.2535 14.7605 13.0937C14.9202 12.934 15.0001 12.7361 15.0001 12.5C15.0001 12.2639 14.9202 12.066 14.7605 11.9062C14.6008 11.7465 14.4029 11.6666 14.1667 11.6666C13.9306 11.6666 13.7327 11.7465 13.573 11.9062C13.4133 12.066 13.3334 12.2639 13.3334 12.5C13.3334 12.7361 13.4133 12.934 13.573 13.0937C13.7327 13.2535 13.9306 13.3333 14.1667 13.3333Z" fill="currentColor"/>
</svg>