<svg viewBox="0 0 20 20" fill="none" xmlns="http://www.w3.org/2000/svg">
<path d="M13.4583 15.8334H4.16665C3.93054 15.8334 3.73262 15.7535 3.5729 15.5938C3.41317 15.434 3.33331 15.2361 3.33331 15C3.33331 14.7639 3.41317 14.566 3.5729 14.4063C3.73262 14.2465 3.93054 14.1667 4.16665 14.1667H4.99998V8.33335C4.99998 7.87502 5.05901 7.42363 5.17706 6.97919C5.29512 6.53474 5.4722 6.11113 5.70831 5.70835L8.33331 8.33335H5.99998L1.74998 4.08335C1.5972 3.93058 1.52081 3.73613 1.52081 3.50002C1.52081 3.26391 1.5972 3.06946 1.74998 2.91669C1.90276 2.76391 2.0972 2.68752 2.33331 2.68752C2.56942 2.68752 2.76387 2.76391 2.91665 2.91669L17.0833 17.0834C17.2361 17.2361 17.316 17.4271 17.3229 17.6563C17.3298 17.8854 17.25 18.0834 17.0833 18.25C16.9305 18.4028 16.7361 18.4792 16.5 18.4792C16.2639 18.4792 16.0694 18.4028 15.9166 18.25L13.4583 15.8334ZM15 10.6042C15 10.7709 14.9514 10.9236 14.8541 11.0625C14.7569 11.2014 14.6319 11.3056 14.4791 11.375C14.3264 11.4445 14.1666 11.4618 14 11.4271C13.8333 11.3924 13.6944 11.3195 13.5833 11.2084L7.64581 5.27085C7.54859 5.17363 7.47915 5.06946 7.43748 4.95835C7.39581 4.84724 7.37498 4.72919 7.37498 4.60419C7.37498 4.45141 7.41317 4.3021 7.48956 4.15627C7.56595 4.01044 7.67359 3.9028 7.81248 3.83335C7.96526 3.76391 8.11804 3.70141 8.27081 3.64585C8.42359 3.5903 8.58331 3.54169 8.74998 3.50002V2.91669C8.74998 2.56946 8.87151 2.27433 9.11456 2.03127C9.35762 1.78821 9.65276 1.66669 9.99998 1.66669C10.3472 1.66669 10.6423 1.78821 10.8854 2.03127C11.1285 2.27433 11.25 2.56946 11.25 2.91669V3.50002C12.3611 3.7778 13.2639 4.36808 13.9583 5.27085C14.6528 6.17363 15 7.19447 15 8.33335V10.6042ZM9.99998 18.3334C9.58331 18.3334 9.21179 18.2188 8.8854 17.9896C8.55901 17.7604 8.39581 17.4514 8.39581 17.0625C8.39581 16.9514 8.44095 16.8577 8.53123 16.7813C8.62151 16.7049 8.7222 16.6667 8.83331 16.6667H11.1666C11.2778 16.6667 11.3785 16.7049 11.4687 16.7813C11.559 16.8577 11.6041 16.9514 11.6041 17.0625C11.6041 17.4514 11.441 17.7604 11.1146 17.9896C10.7882 18.2188 10.4166 18.3334 9.99998 18.3334Z" fill="currentColor"/>
</svg>