<svg width="712" height="144" viewBox="0 0 712 144" fill="none" xmlns="http://www.w3.org/2000/svg">
<rect x="0.5" y="0.5" width="711" height="143" rx="7.5" fill="white"/>
<rect x="0.5" y="0.5" width="711" height="143" rx="7.5" stroke="#CDCCCB"/>
<path d="M95.4538 69.28C94.7871 69.28 94.2671 69.0933 93.8938 68.72C93.5471 68.3467 93.3738 67.8267 93.3738 67.16V42.64C93.3738 41.9467 93.5471 41.4267 93.8938 41.08C94.2671 40.7067 94.7871 40.52 95.4538 40.52C96.1204 40.52 96.6271 40.7067 96.9738 41.08C97.3471 41.4267 97.5338 41.9467 97.5338 42.64V52.96H113.334V42.64C113.334 41.9467 113.507 41.4267 113.854 41.08C114.227 40.7067 114.747 40.52 115.414 40.52C116.08 40.52 116.587 40.7067 116.934 41.08C117.28 41.4267 117.454 41.9467 117.454 42.64V67.16C117.454 67.8267 117.28 68.3467 116.934 68.72C116.587 69.0933 116.08 69.28 115.414 69.28C114.747 69.28 114.227 69.0933 113.854 68.72C113.507 68.3467 113.334 67.8267 113.334 67.16V56.44H97.5338V67.16C97.5338 67.8267 97.3604 68.3467 97.0138 68.72C96.6671 69.0933 96.1471 69.28 95.4538 69.28ZM131.758 69.36C129.624 69.36 127.784 68.96 126.238 68.16C124.718 67.3333 123.531 66.1733 122.678 64.68C121.851 63.16 121.438 61.36 121.438 59.28C121.438 57.2533 121.851 55.48 122.678 53.96C123.504 52.44 124.638 51.2533 126.078 50.4C127.518 49.5467 129.158 49.12 130.998 49.12C132.358 49.12 133.571 49.3467 134.638 49.8C135.704 50.2267 136.611 50.8667 137.358 51.72C138.131 52.5467 138.704 53.56 139.078 54.76C139.478 55.96 139.678 57.3067 139.678 58.8C139.678 59.2533 139.544 59.6 139.278 59.84C139.011 60.0533 138.611 60.16 138.078 60.16H124.638V57.68H136.958L136.278 58.24C136.278 56.9067 136.078 55.7733 135.678 54.84C135.304 53.9067 134.731 53.2 133.958 52.72C133.211 52.2133 132.278 51.96 131.158 51.96C129.904 51.96 128.838 52.2533 127.958 52.84C127.104 53.4267 126.451 54.24 125.998 55.28C125.544 56.32 125.318 57.5333 125.318 58.92V59.16C125.318 61.5067 125.864 63.28 126.958 64.48C128.078 65.6533 129.691 66.24 131.798 66.24C132.598 66.24 133.438 66.1333 134.318 65.92C135.224 65.7067 136.078 65.3467 136.878 64.84C137.331 64.5733 137.731 64.4533 138.078 64.48C138.451 64.5067 138.744 64.6267 138.958 64.84C139.198 65.0533 139.344 65.32 139.398 65.64C139.451 65.96 139.398 66.2933 139.238 66.64C139.078 66.96 138.798 67.2533 138.398 67.52C137.491 68.1333 136.438 68.6 135.238 68.92C134.038 69.2133 132.878 69.36 131.758 69.36ZM149.322 69.36C147.962 69.36 146.736 69.0933 145.642 68.56C144.576 68.0267 143.736 67.3067 143.122 66.4C142.509 65.4933 142.202 64.4667 142.202 63.32C142.202 61.88 142.562 60.7467 143.282 59.92C144.029 59.0667 145.242 58.4667 146.922 58.12C148.629 57.7467 150.922 57.56 153.802 57.56H155.682V60.04H153.842C151.922 60.04 150.402 60.1333 149.282 60.32C148.162 60.5067 147.362 60.8267 146.882 61.28C146.429 61.7067 146.202 62.3067 146.202 63.08C146.202 64.0933 146.549 64.92 147.242 65.56C147.936 66.1733 148.896 66.48 150.122 66.48C151.109 66.48 151.976 66.2533 152.722 65.8C153.469 65.32 154.056 64.68 154.482 63.88C154.936 63.08 155.162 62.16 155.162 61.12V56.52C155.162 55 154.842 53.9067 154.202 53.24C153.562 52.5733 152.509 52.24 151.042 52.24C150.189 52.24 149.296 52.3467 148.362 52.56C147.456 52.7733 146.509 53.1333 145.522 53.64C145.069 53.8533 144.682 53.92 144.362 53.84C144.042 53.76 143.789 53.5867 143.602 53.32C143.416 53.0267 143.309 52.72 143.282 52.4C143.282 52.0533 143.362 51.72 143.522 51.4C143.709 51.08 144.016 50.84 144.442 50.68C145.616 50.12 146.776 49.72 147.922 49.48C149.069 49.24 150.149 49.12 151.162 49.12C152.949 49.12 154.416 49.4 155.562 49.96C156.736 50.52 157.602 51.3733 158.162 52.52C158.722 53.6667 159.002 55.1467 159.002 56.96V67.24C159.002 67.88 158.842 68.3867 158.522 68.76C158.202 69.1067 157.736 69.28 157.122 69.28C156.536 69.28 156.069 69.1067 155.722 68.76C155.376 68.3867 155.202 67.88 155.202 67.24V64.64H155.562C155.349 65.6267 154.949 66.48 154.362 67.2C153.802 67.8933 153.096 68.4267 152.242 68.8C151.389 69.1733 150.416 69.36 149.322 69.36ZM171.007 69.36C169.3 69.36 167.793 68.96 166.487 68.16C165.207 67.3333 164.207 66.16 163.487 64.64C162.767 63.0933 162.407 61.2933 162.407 59.24C162.407 57.1333 162.767 55.3333 163.487 53.84C164.207 52.3467 165.207 51.1867 166.487 50.36C167.793 49.5333 169.3 49.12 171.007 49.12C172.713 49.12 174.18 49.5467 175.407 50.4C176.66 51.2267 177.5 52.3467 177.927 53.76H177.487V42.56C177.487 41.8933 177.66 41.3867 178.007 41.04C178.353 40.6933 178.847 40.52 179.487 40.52C180.127 40.52 180.62 40.6933 180.967 41.04C181.34 41.3867 181.527 41.8933 181.527 42.56V67.24C181.527 67.88 181.353 68.3867 181.007 68.76C180.66 69.1067 180.167 69.28 179.527 69.28C178.887 69.28 178.393 69.1067 178.047 68.76C177.7 68.3867 177.527 67.88 177.527 67.24V63.72L177.967 64.6C177.54 66.04 176.7 67.2 175.447 68.08C174.22 68.9333 172.74 69.36 171.007 69.36ZM172.047 66.24C173.14 66.24 174.1 65.9733 174.927 65.44C175.753 64.9067 176.393 64.12 176.847 63.08C177.327 62.04 177.567 60.76 177.567 59.24C177.567 56.9467 177.06 55.2133 176.047 54.04C175.033 52.8667 173.7 52.28 172.047 52.28C170.927 52.28 169.953 52.5467 169.127 53.08C168.3 53.5867 167.647 54.36 167.167 55.4C166.713 56.44 166.487 57.72 166.487 59.24C166.487 61.5067 166.993 63.24 168.007 64.44C169.02 65.64 170.367 66.24 172.047 66.24ZM188.199 69.24C187.559 69.24 187.066 69.0533 186.719 68.68C186.373 68.28 186.199 67.7333 186.199 67.04V51.44C186.199 50.7467 186.373 50.2133 186.719 49.84C187.066 49.4667 187.559 49.28 188.199 49.28C188.839 49.28 189.333 49.4667 189.679 49.84C190.053 50.2133 190.239 50.7467 190.239 51.44V67.04C190.239 67.7333 190.066 68.28 189.719 68.68C189.373 69.0533 188.866 69.24 188.199 69.24ZM188.199 45.12C187.399 45.12 186.773 44.92 186.319 44.52C185.893 44.12 185.679 43.56 185.679 42.84C185.679 42.0933 185.893 41.5333 186.319 41.16C186.773 40.76 187.399 40.56 188.199 40.56C188.999 40.56 189.613 40.76 190.039 41.16C190.493 41.5333 190.719 42.0933 190.719 42.84C190.719 43.56 190.493 44.12 190.039 44.52C189.613 44.92 188.999 45.12 188.199 45.12ZM196.926 69.28C196.286 69.28 195.793 69.1067 195.446 68.76C195.099 68.3867 194.926 67.88 194.926 67.24V51.24C194.926 50.5733 195.099 50.0667 195.446 49.72C195.793 49.3733 196.273 49.2 196.886 49.2C197.526 49.2 198.006 49.3733 198.326 49.72C198.673 50.0667 198.846 50.5733 198.846 51.24V54.36L198.406 53.64C198.993 52.1467 199.913 51.0267 201.166 50.28C202.419 49.5067 203.859 49.12 205.486 49.12C207.033 49.12 208.313 49.4133 209.326 50C210.366 50.56 211.139 51.4267 211.646 52.6C212.153 53.7467 212.406 55.2 212.406 56.96V67.24C212.406 67.88 212.233 68.3867 211.886 68.76C211.539 69.1067 211.046 69.28 210.406 69.28C209.739 69.28 209.233 69.1067 208.886 68.76C208.539 68.3867 208.366 67.88 208.366 67.24V57.2C208.366 55.52 208.033 54.2933 207.366 53.52C206.726 52.7467 205.713 52.36 204.326 52.36C202.699 52.36 201.393 52.8667 200.406 53.88C199.446 54.8933 198.966 56.2533 198.966 57.96V67.24C198.966 68.6 198.286 69.28 196.926 69.28ZM225.813 76.56C224.373 76.56 222.973 76.4133 221.613 76.12C220.279 75.8267 219.066 75.3467 217.973 74.68C217.573 74.4667 217.306 74.2 217.173 73.88C217.039 73.5867 216.999 73.28 217.053 72.96C217.133 72.64 217.279 72.36 217.493 72.12C217.706 71.88 217.959 71.72 218.253 71.64C218.573 71.56 218.906 71.6133 219.253 71.8C220.426 72.44 221.533 72.8667 222.573 73.08C223.639 73.32 224.626 73.44 225.533 73.44C227.399 73.44 228.799 72.96 229.733 72C230.666 71.0667 231.133 69.68 231.133 67.84V63.76H231.493C231.093 65.2267 230.253 66.3867 228.973 67.24C227.693 68.0933 226.213 68.52 224.533 68.52C222.773 68.52 221.239 68.12 219.933 67.32C218.626 66.4933 217.613 65.36 216.893 63.92C216.173 62.4533 215.813 60.7467 215.813 58.8C215.813 57.3333 216.013 56.0133 216.413 54.84C216.839 53.6667 217.426 52.6533 218.173 51.8C218.946 50.9467 219.866 50.2933 220.933 49.84C222.026 49.36 223.226 49.12 224.533 49.12C226.239 49.12 227.719 49.5467 228.973 50.4C230.253 51.2533 231.079 52.4133 231.453 53.88L231.053 54.56V51.24C231.053 50.5733 231.226 50.0667 231.573 49.72C231.946 49.3733 232.439 49.2 233.053 49.2C233.693 49.2 234.186 49.3733 234.533 49.72C234.879 50.0667 235.053 50.5733 235.053 51.24V67.36C235.053 70.4 234.266 72.6933 232.693 74.24C231.119 75.7867 228.826 76.56 225.813 76.56ZM225.493 65.36C226.666 65.36 227.666 65.0933 228.493 64.56C229.319 64.0267 229.959 63.2667 230.413 62.28C230.866 61.2933 231.093 60.1333 231.093 58.8C231.093 56.8 230.586 55.2133 229.573 54.04C228.586 52.8667 227.226 52.28 225.493 52.28C224.346 52.28 223.359 52.5467 222.533 53.08C221.706 53.6133 221.053 54.3733 220.573 55.36C220.119 56.32 219.893 57.4667 219.893 58.8C219.893 60.8267 220.399 62.4267 221.413 63.6C222.426 64.7733 223.786 65.36 225.493 65.36ZM249.95 69.28C249.416 69.28 248.976 69.1467 248.63 68.88C248.283 68.5867 248.083 68.2267 248.03 67.8C247.976 67.3467 248.123 66.8933 248.47 66.44L257.91 53.76V55.44L248.99 43.44C248.643 42.96 248.483 42.4933 248.51 42.04C248.563 41.5867 248.763 41.2267 249.11 40.96C249.456 40.6667 249.883 40.52 250.39 40.52C250.816 40.52 251.19 40.6267 251.51 40.84C251.856 41.0267 252.203 41.36 252.55 41.84L260.31 52.48H259.03L266.71 41.84C267.056 41.36 267.39 41.0267 267.71 40.84C268.056 40.6267 268.456 40.52 268.91 40.52C269.443 40.52 269.883 40.6667 270.23 40.96C270.576 41.2267 270.763 41.5867 270.79 42.04C270.843 42.4667 270.683 42.9333 270.31 43.44L261.39 55.44V53.76L270.79 66.44C271.136 66.8933 271.283 67.3467 271.23 67.8C271.203 68.2267 271.016 68.5867 270.67 68.88C270.323 69.1467 269.87 69.28 269.31 69.28C268.91 69.28 268.536 69.1733 268.19 68.96C267.843 68.7467 267.483 68.4133 267.11 67.96L258.87 56.68H260.39L252.19 67.96C251.843 68.4133 251.483 68.7467 251.11 68.96C250.763 69.1733 250.376 69.28 249.95 69.28ZM277.236 69C276.569 69 276.049 68.8133 275.676 68.44C275.303 68.0667 275.116 67.5467 275.116 66.88V42.76C275.116 42.0667 275.289 41.5467 275.636 41.2C276.009 40.8267 276.529 40.64 277.196 40.64C277.863 40.64 278.369 40.8267 278.716 41.2C279.089 41.5467 279.276 42.0667 279.276 42.76V65.44H291.676C292.263 65.44 292.716 65.6 293.036 65.92C293.356 66.2133 293.516 66.64 293.516 67.2C293.516 67.76 293.356 68.2 293.036 68.52C292.716 68.84 292.263 69 291.676 69H277.236Z" fill="#1A1A1A"/>
<path d="M165.38 105C165.092 105 164.868 104.925 164.708 104.776C164.559 104.616 164.484 104.392 164.484 104.104V94.616C164.484 94.328 164.559 94.1093 164.708 93.96C164.868 93.8 165.092 93.72 165.38 93.72H168.468C170.324 93.72 171.753 94.2053 172.756 95.176C173.769 96.136 174.276 97.528 174.276 99.352C174.276 100.259 174.148 101.064 173.892 101.768C173.636 102.472 173.257 103.064 172.756 103.544C172.265 104.013 171.663 104.376 170.948 104.632C170.233 104.877 169.407 105 168.468 105H165.38ZM166.148 103.608H168.372C169.076 103.608 169.684 103.523 170.196 103.352C170.719 103.171 171.156 102.904 171.508 102.552C171.86 102.2 172.121 101.757 172.292 101.224C172.463 100.691 172.548 100.067 172.548 99.352C172.548 97.9333 172.196 96.872 171.492 96.168C170.799 95.464 169.759 95.112 168.372 95.112H166.148V103.608ZM179.488 105.144C178.634 105.144 177.898 104.984 177.28 104.664C176.672 104.333 176.197 103.869 175.856 103.272C175.525 102.664 175.36 101.944 175.36 101.112C175.36 100.301 175.525 99.592 175.856 98.984C176.186 98.376 176.64 97.9013 177.216 97.56C177.792 97.2187 178.448 97.048 179.184 97.048C179.728 97.048 180.213 97.1387 180.64 97.32C181.066 97.4907 181.429 97.7467 181.728 98.088C182.037 98.4187 182.266 98.824 182.416 99.304C182.576 99.784 182.656 100.323 182.656 100.92C182.656 101.101 182.602 101.24 182.496 101.336C182.389 101.421 182.229 101.464 182.016 101.464H176.64V100.472H181.568L181.296 100.696C181.296 100.163 181.216 99.7093 181.056 99.336C180.906 98.9627 180.677 98.68 180.368 98.488C180.069 98.2853 179.696 98.184 179.248 98.184C178.746 98.184 178.32 98.3013 177.968 98.536C177.626 98.7707 177.365 99.096 177.184 99.512C177.002 99.928 176.912 100.413 176.912 100.968V101.064C176.912 102.003 177.13 102.712 177.568 103.192C178.016 103.661 178.661 103.896 179.504 103.896C179.824 103.896 180.16 103.853 180.512 103.768C180.874 103.683 181.216 103.539 181.536 103.336C181.717 103.229 181.877 103.181 182.016 103.192C182.165 103.203 182.282 103.251 182.368 103.336C182.464 103.421 182.522 103.528 182.544 103.656C182.565 103.784 182.544 103.917 182.48 104.056C182.416 104.184 182.304 104.301 182.144 104.408C181.781 104.653 181.36 104.84 180.88 104.968C180.4 105.085 179.936 105.144 179.488 105.144ZM186.653 105.144C186.184 105.144 185.699 105.091 185.197 104.984C184.707 104.877 184.253 104.696 183.837 104.44C183.699 104.344 183.603 104.237 183.549 104.12C183.496 104.003 183.475 103.885 183.485 103.768C183.507 103.64 183.555 103.533 183.629 103.448C183.715 103.352 183.816 103.293 183.933 103.272C184.061 103.251 184.195 103.277 184.333 103.352C184.749 103.587 185.149 103.752 185.533 103.848C185.917 103.933 186.296 103.976 186.669 103.976C187.235 103.976 187.661 103.875 187.949 103.672C188.237 103.469 188.381 103.197 188.381 102.856C188.381 102.579 188.285 102.365 188.093 102.216C187.901 102.056 187.613 101.933 187.229 101.848L185.709 101.544C185.048 101.405 184.547 101.16 184.205 100.808C183.864 100.456 183.693 100.008 183.693 99.464C183.693 98.9733 183.827 98.5467 184.093 98.184C184.36 97.8213 184.733 97.544 185.213 97.352C185.693 97.1493 186.248 97.048 186.877 97.048C187.347 97.048 187.789 97.1067 188.205 97.224C188.621 97.3413 189.005 97.5173 189.357 97.752C189.496 97.8267 189.587 97.928 189.629 98.056C189.672 98.1733 189.677 98.2907 189.645 98.408C189.624 98.5253 189.571 98.632 189.485 98.728C189.4 98.8133 189.293 98.8667 189.165 98.888C189.048 98.8987 188.915 98.8667 188.765 98.792C188.445 98.5893 188.125 98.4453 187.805 98.36C187.496 98.2747 187.187 98.232 186.877 98.232C186.312 98.232 185.885 98.3387 185.597 98.552C185.32 98.7547 185.181 99.032 185.181 99.384C185.181 99.6507 185.267 99.8693 185.437 100.04C185.608 100.211 185.875 100.333 186.237 100.408L187.757 100.712C188.451 100.851 188.973 101.085 189.325 101.416C189.688 101.747 189.869 102.195 189.869 102.76C189.869 103.496 189.576 104.077 188.989 104.504C188.403 104.931 187.624 105.144 186.653 105.144ZM191.967 105.112C191.711 105.112 191.514 105.043 191.375 104.904C191.237 104.755 191.167 104.552 191.167 104.296V94.424C191.167 94.1573 191.237 93.9547 191.375 93.816C191.514 93.6773 191.711 93.608 191.967 93.608C192.223 93.608 192.421 93.6773 192.559 93.816C192.709 93.9547 192.783 94.1573 192.783 94.424V100.6H192.815L195.807 97.624C195.978 97.4533 196.133 97.32 196.271 97.224C196.41 97.128 196.591 97.08 196.815 97.08C197.039 97.08 197.21 97.1387 197.327 97.256C197.445 97.3733 197.503 97.5173 197.503 97.688C197.503 97.848 197.423 98.0133 197.263 98.184L194.095 101.32V100.568L197.551 104.008C197.722 104.179 197.802 104.349 197.791 104.52C197.781 104.691 197.711 104.835 197.583 104.952C197.455 105.059 197.295 105.112 197.103 105.112C196.858 105.112 196.661 105.064 196.511 104.968C196.373 104.872 196.207 104.728 196.015 104.536L192.815 101.432H192.783V104.296C192.783 104.84 192.511 105.112 191.967 105.112ZM202.027 105.144C201.387 105.144 200.848 105.032 200.411 104.808C199.973 104.584 199.648 104.253 199.435 103.816C199.221 103.379 199.115 102.845 199.115 102.216V98.44H198.155C197.941 98.44 197.776 98.3867 197.659 98.28C197.541 98.1627 197.482 98.008 197.482 97.816C197.482 97.6133 197.541 97.4587 197.659 97.352C197.776 97.2453 197.941 97.192 198.155 97.192H199.115V95.544C199.115 95.2773 199.184 95.0747 199.323 94.936C199.472 94.7973 199.675 94.728 199.931 94.728C200.187 94.728 200.384 94.7973 200.523 94.936C200.661 95.0747 200.731 95.2773 200.731 95.544V97.192H202.603C202.816 97.192 202.981 97.2453 203.099 97.352C203.216 97.4587 203.275 97.6133 203.275 97.816C203.275 98.008 203.216 98.1627 203.099 98.28C202.981 98.3867 202.816 98.44 202.603 98.44H200.731V102.088C200.731 102.653 200.848 103.08 201.083 103.368C201.328 103.656 201.723 103.8 202.266 103.8C202.459 103.8 202.624 103.784 202.763 103.752C202.912 103.709 203.035 103.683 203.131 103.672C203.248 103.672 203.344 103.715 203.419 103.8C203.493 103.875 203.531 104.024 203.531 104.248C203.531 104.408 203.499 104.557 203.435 104.696C203.381 104.835 203.28 104.925 203.131 104.968C203.003 105.011 202.827 105.048 202.603 105.08C202.389 105.123 202.197 105.144 202.027 105.144ZM207.356 105.144C206.567 105.144 205.884 104.979 205.308 104.648C204.743 104.317 204.3 103.848 203.98 103.24C203.66 102.632 203.5 101.917 203.5 101.096C203.5 100.467 203.591 99.9067 203.772 99.416C203.953 98.9253 204.209 98.504 204.54 98.152C204.881 97.7893 205.287 97.5173 205.756 97.336C206.236 97.144 206.769 97.048 207.356 97.048C208.135 97.048 208.807 97.2133 209.372 97.544C209.948 97.8747 210.396 98.344 210.716 98.952C211.036 99.5493 211.196 100.264 211.196 101.096C211.196 101.715 211.105 102.275 210.924 102.776C210.743 103.277 210.481 103.704 210.14 104.056C209.809 104.408 209.404 104.68 208.924 104.872C208.455 105.053 207.932 105.144 207.356 105.144ZM207.356 103.896C207.793 103.896 208.177 103.789 208.508 103.576C208.839 103.363 209.095 103.048 209.276 102.632C209.468 102.216 209.564 101.704 209.564 101.096C209.564 100.179 209.361 99.4853 208.956 99.016C208.551 98.5467 208.017 98.312 207.356 98.312C206.908 98.312 206.519 98.4187 206.188 98.632C205.857 98.8347 205.596 99.144 205.404 99.56C205.223 99.976 205.132 100.488 205.132 101.096C205.132 102.003 205.335 102.696 205.74 103.176C206.145 103.656 206.684 103.896 207.356 103.896ZM213.311 107.992C213.055 107.992 212.858 107.923 212.719 107.784C212.58 107.645 212.511 107.443 212.511 107.176V97.896C212.511 97.6293 212.58 97.4267 212.719 97.288C212.858 97.1493 213.05 97.08 213.295 97.08C213.551 97.08 213.748 97.1493 213.887 97.288C214.026 97.4267 214.095 97.6293 214.095 97.896V99.288L213.919 98.952C214.09 98.376 214.426 97.9173 214.927 97.576C215.428 97.224 216.02 97.048 216.703 97.048C217.396 97.048 217.999 97.2133 218.511 97.544C219.034 97.8747 219.434 98.3387 219.711 98.936C219.999 99.5333 220.143 100.253 220.143 101.096C220.143 101.917 219.999 102.637 219.711 103.256C219.434 103.864 219.039 104.333 218.527 104.664C218.015 104.984 217.407 105.144 216.703 105.144C216.031 105.144 215.444 104.973 214.943 104.632C214.442 104.291 214.106 103.837 213.935 103.272H214.127V107.176C214.127 107.443 214.052 107.645 213.903 107.784C213.764 107.923 213.567 107.992 213.311 107.992ZM216.303 103.896C216.751 103.896 217.14 103.789 217.471 103.576C217.802 103.363 218.058 103.048 218.239 102.632C218.42 102.216 218.511 101.704 218.511 101.096C218.511 100.179 218.308 99.4853 217.903 99.016C217.508 98.5467 216.975 98.312 216.303 98.312C215.866 98.312 215.476 98.4187 215.135 98.632C214.804 98.8347 214.548 99.144 214.367 99.56C214.186 99.976 214.095 100.488 214.095 101.096C214.095 102.003 214.298 102.696 214.703 103.176C215.108 103.656 215.642 103.896 216.303 103.896Z" fill="#1A1A1A"/>
<path d="M443.663 71.224C443.13 71.224 442.714 71.0747 442.415 70.776C442.138 70.4773 441.999 70.0613 441.999 69.528V49.912C441.999 49.3573 442.138 48.9413 442.415 48.664C442.714 48.3653 443.13 48.216 443.663 48.216C444.196 48.216 444.602 48.3653 444.879 48.664C445.178 48.9413 445.327 49.3573 445.327 49.912V58.168H457.967V49.912C457.967 49.3573 458.106 48.9413 458.383 48.664C458.682 48.3653 459.098 48.216 459.631 48.216C460.164 48.216 460.57 48.3653 460.847 48.664C461.124 48.9413 461.263 49.3573 461.263 49.912V69.528C461.263 70.0613 461.124 70.4773 460.847 70.776C460.57 71.0747 460.164 71.224 459.631 71.224C459.098 71.224 458.682 71.0747 458.383 70.776C458.106 70.4773 457.967 70.0613 457.967 69.528V60.952H445.327V69.528C445.327 70.0613 445.188 70.4773 444.911 70.776C444.634 71.0747 444.218 71.224 443.663 71.224ZM472.506 71.288C470.8 71.288 469.328 70.968 468.09 70.328C466.874 69.6667 465.925 68.7387 465.242 67.544C464.581 66.328 464.25 64.888 464.25 63.224C464.25 61.6027 464.581 60.184 465.242 58.968C465.904 57.752 466.81 56.8027 467.962 56.12C469.114 55.4373 470.426 55.096 471.898 55.096C472.986 55.096 473.957 55.2773 474.81 55.64C475.664 55.9813 476.389 56.4933 476.986 57.176C477.605 57.8373 478.064 58.648 478.362 59.608C478.682 60.568 478.842 61.6453 478.842 62.84C478.842 63.2027 478.736 63.48 478.522 63.672C478.309 63.8427 477.989 63.928 477.562 63.928H466.81V61.944H476.666L476.122 62.392C476.122 61.3253 475.962 60.4187 475.642 59.672C475.344 58.9253 474.885 58.36 474.266 57.976C473.669 57.5707 472.922 57.368 472.026 57.368C471.024 57.368 470.17 57.6027 469.466 58.072C468.784 58.5413 468.261 59.192 467.898 60.024C467.536 60.856 467.354 61.8267 467.354 62.936V63.128C467.354 65.0053 467.792 66.424 468.666 67.384C469.562 68.3227 470.853 68.792 472.538 68.792C473.178 68.792 473.85 68.7067 474.554 68.536C475.28 68.3653 475.962 68.0773 476.602 67.672C476.965 67.4587 477.285 67.3627 477.562 67.384C477.861 67.4053 478.096 67.5013 478.266 67.672C478.458 67.8427 478.576 68.056 478.618 68.312C478.661 68.568 478.618 68.8347 478.49 69.112C478.362 69.368 478.138 69.6027 477.818 69.816C477.093 70.3067 476.25 70.68 475.29 70.936C474.33 71.1707 473.402 71.288 472.506 71.288ZM486.358 71.288C485.27 71.288 484.288 71.0747 483.414 70.648C482.56 70.2213 481.888 69.6453 481.398 68.92C480.907 68.1947 480.662 67.3733 480.662 66.456C480.662 65.304 480.95 64.3973 481.526 63.736C482.123 63.0533 483.094 62.5733 484.438 62.296C485.803 61.9973 487.638 61.848 489.942 61.848H491.446V63.832H489.974C488.438 63.832 487.222 63.9067 486.326 64.056C485.43 64.2053 484.79 64.4613 484.406 64.824C484.043 65.1653 483.862 65.6453 483.862 66.264C483.862 67.0747 484.139 67.736 484.694 68.248C485.248 68.7387 486.016 68.984 486.998 68.984C487.787 68.984 488.48 68.8027 489.078 68.44C489.675 68.056 490.144 67.544 490.486 66.904C490.848 66.264 491.03 65.528 491.03 64.696V61.016C491.03 59.8 490.774 58.9253 490.262 58.392C489.75 57.8587 488.907 57.592 487.734 57.592C487.051 57.592 486.336 57.6773 485.59 57.848C484.864 58.0187 484.107 58.3067 483.318 58.712C482.955 58.8827 482.646 58.936 482.39 58.872C482.134 58.808 481.931 58.6693 481.782 58.456C481.632 58.2213 481.547 57.976 481.526 57.72C481.526 57.4427 481.59 57.176 481.718 56.92C481.867 56.664 482.112 56.472 482.454 56.344C483.392 55.896 484.32 55.576 485.238 55.384C486.155 55.192 487.019 55.096 487.83 55.096C489.259 55.096 490.432 55.32 491.35 55.768C492.288 56.216 492.982 56.8987 493.43 57.816C493.878 58.7333 494.102 59.9173 494.102 61.368V69.592C494.102 70.104 493.974 70.5093 493.718 70.808C493.462 71.0853 493.088 71.224 492.598 71.224C492.128 71.224 491.755 71.0853 491.478 70.808C491.2 70.5093 491.062 70.104 491.062 69.592V67.512H491.35C491.179 68.3013 490.859 68.984 490.39 69.56C489.942 70.1147 489.376 70.5413 488.694 70.84C488.011 71.1387 487.232 71.288 486.358 71.288ZM503.505 71.288C502.14 71.288 500.935 70.968 499.889 70.328C498.865 69.6667 498.065 68.728 497.489 67.512C496.913 66.2747 496.625 64.8347 496.625 63.192C496.625 61.5067 496.913 60.0667 497.489 58.872C498.065 57.6773 498.865 56.7493 499.889 56.088C500.935 55.4267 502.14 55.096 503.505 55.096C504.871 55.096 506.044 55.4373 507.025 56.12C508.028 56.7813 508.7 57.6773 509.041 58.808H508.689V49.848C508.689 49.3147 508.828 48.9093 509.105 48.632C509.383 48.3547 509.777 48.216 510.289 48.216C510.801 48.216 511.196 48.3547 511.473 48.632C511.772 48.9093 511.921 49.3147 511.921 49.848V69.592C511.921 70.104 511.783 70.5093 511.505 70.808C511.228 71.0853 510.833 71.224 510.321 71.224C509.809 71.224 509.415 71.0853 509.137 70.808C508.86 70.5093 508.721 70.104 508.721 69.592V66.776L509.073 67.48C508.732 68.632 508.06 69.56 507.057 70.264C506.076 70.9467 504.892 71.288 503.505 71.288ZM504.337 68.792C505.212 68.792 505.98 68.5787 506.641 68.152C507.303 67.7253 507.815 67.096 508.177 66.264C508.561 65.432 508.753 64.408 508.753 63.192C508.753 61.3573 508.348 59.9707 507.537 59.032C506.727 58.0933 505.66 57.624 504.337 57.624C503.441 57.624 502.663 57.8373 502.001 58.264C501.34 58.6693 500.817 59.288 500.433 60.12C500.071 60.952 499.889 61.976 499.889 63.192C499.889 65.0053 500.295 66.392 501.105 67.352C501.916 68.312 502.993 68.792 504.337 68.792ZM517.06 71.192C516.548 71.192 516.153 71.0427 515.876 70.744C515.598 70.424 515.46 69.9867 515.46 69.432V56.952C515.46 56.3973 515.598 55.9707 515.876 55.672C516.153 55.3733 516.548 55.224 517.06 55.224C517.572 55.224 517.966 55.3733 518.244 55.672C518.542 55.9707 518.692 56.3973 518.692 56.952V69.432C518.692 69.9867 518.553 70.424 518.276 70.744C517.998 71.0427 517.593 71.192 517.06 71.192ZM517.06 51.896C516.42 51.896 515.918 51.736 515.556 51.416C515.214 51.096 515.044 50.648 515.044 50.072C515.044 49.4747 515.214 49.0267 515.556 48.728C515.918 48.408 516.42 48.248 517.06 48.248C517.7 48.248 518.19 48.408 518.532 48.728C518.894 49.0267 519.076 49.4747 519.076 50.072C519.076 50.648 518.894 51.096 518.532 51.416C518.19 51.736 517.7 51.896 517.06 51.896ZM523.841 71.224C523.329 71.224 522.934 71.0853 522.657 70.808C522.379 70.5093 522.241 70.104 522.241 69.592V56.792C522.241 56.2587 522.379 55.8533 522.657 55.576C522.934 55.2987 523.318 55.16 523.809 55.16C524.321 55.16 524.705 55.2987 524.961 55.576C525.238 55.8533 525.377 56.2587 525.377 56.792V59.288L525.025 58.712C525.494 57.5173 526.23 56.6213 527.233 56.024C528.235 55.4053 529.387 55.096 530.689 55.096C531.926 55.096 532.95 55.3307 533.761 55.8C534.593 56.248 535.211 56.9413 535.617 57.88C536.022 58.7973 536.225 59.96 536.225 61.368V69.592C536.225 70.104 536.086 70.5093 535.809 70.808C535.531 71.0853 535.137 71.224 534.625 71.224C534.091 71.224 533.686 71.0853 533.409 70.808C533.131 70.5093 532.993 70.104 532.993 69.592V61.56C532.993 60.216 532.726 59.2347 532.193 58.616C531.681 57.9973 530.87 57.688 529.761 57.688C528.459 57.688 527.414 58.0933 526.625 58.904C525.857 59.7147 525.473 60.8027 525.473 62.168V69.592C525.473 70.68 524.929 71.224 523.841 71.224ZM546.75 77.048C545.598 77.048 544.478 76.9307 543.39 76.696C542.324 76.4613 541.353 76.0773 540.478 75.544C540.158 75.3733 539.945 75.16 539.838 74.904C539.732 74.6693 539.7 74.424 539.742 74.168C539.806 73.912 539.924 73.688 540.094 73.496C540.265 73.304 540.468 73.176 540.702 73.112C540.958 73.048 541.225 73.0907 541.502 73.24C542.441 73.752 543.326 74.0933 544.158 74.264C545.012 74.456 545.801 74.552 546.526 74.552C548.02 74.552 549.14 74.168 549.886 73.4C550.633 72.6533 551.006 71.544 551.006 70.072V66.808H551.294C550.974 67.9813 550.302 68.9093 549.278 69.592C548.254 70.2747 547.07 70.616 545.726 70.616C544.318 70.616 543.092 70.296 542.046 69.656C541.001 68.9947 540.19 68.088 539.614 66.936C539.038 65.7627 538.75 64.3973 538.75 62.84C538.75 61.6667 538.91 60.6107 539.23 59.672C539.572 58.7333 540.041 57.9227 540.638 57.24C541.257 56.5573 541.993 56.0347 542.846 55.672C543.721 55.288 544.681 55.096 545.726 55.096C547.092 55.096 548.276 55.4373 549.278 56.12C550.302 56.8027 550.964 57.7307 551.262 58.904L550.942 59.448V56.792C550.942 56.2587 551.081 55.8533 551.358 55.576C551.657 55.2987 552.052 55.16 552.542 55.16C553.054 55.16 553.449 55.2987 553.726 55.576C554.004 55.8533 554.142 56.2587 554.142 56.792V69.688C554.142 72.12 553.513 73.9547 552.254 75.192C550.996 76.4293 549.161 77.048 546.75 77.048ZM546.494 68.088C547.433 68.088 548.233 67.8747 548.894 67.448C549.556 67.0213 550.068 66.4133 550.43 65.624C550.793 64.8347 550.974 63.9067 550.974 62.84C550.974 61.24 550.569 59.9707 549.758 59.032C548.969 58.0933 547.881 57.624 546.494 57.624C545.577 57.624 544.788 57.8373 544.126 58.264C543.465 58.6907 542.942 59.2987 542.558 60.088C542.196 60.856 542.014 61.7733 542.014 62.84C542.014 64.4613 542.42 65.7413 543.23 66.68C544.041 67.6187 545.129 68.088 546.494 68.088ZM565.66 71.224C565.233 71.224 564.881 71.1173 564.604 70.904C564.326 70.6693 564.166 70.3813 564.124 70.04C564.081 69.6773 564.198 69.3147 564.476 68.952L572.028 58.808V60.152L564.892 50.552C564.614 50.168 564.486 49.7947 564.508 49.432C564.55 49.0693 564.71 48.7813 564.988 48.568C565.265 48.3333 565.606 48.216 566.012 48.216C566.353 48.216 566.652 48.3013 566.908 48.472C567.185 48.6213 567.462 48.888 567.74 49.272L573.948 57.784H572.924L579.068 49.272C579.345 48.888 579.612 48.6213 579.868 48.472C580.145 48.3013 580.465 48.216 580.828 48.216C581.254 48.216 581.606 48.3333 581.884 48.568C582.161 48.7813 582.31 49.0693 582.332 49.432C582.374 49.7733 582.246 50.1467 581.948 50.552L574.812 60.152V58.808L582.332 68.952C582.609 69.3147 582.726 69.6773 582.684 70.04C582.662 70.3813 582.513 70.6693 582.236 70.904C581.958 71.1173 581.596 71.224 581.148 71.224C580.828 71.224 580.529 71.1387 580.252 70.968C579.974 70.7973 579.686 70.5307 579.388 70.168L572.796 61.144H574.012L567.452 70.168C567.174 70.5307 566.886 70.7973 566.588 70.968C566.31 71.1387 566.001 71.224 565.66 71.224ZM587.289 71C586.755 71 586.339 70.8507 586.041 70.552C585.742 70.2533 585.593 69.8373 585.593 69.304V50.008C585.593 49.4533 585.731 49.0373 586.009 48.76C586.307 48.4613 586.723 48.312 587.257 48.312C587.79 48.312 588.195 48.4613 588.473 48.76C588.771 49.0373 588.921 49.4533 588.921 50.008V68.152H598.841C599.31 68.152 599.673 68.28 599.929 68.536C600.185 68.7707 600.313 69.112 600.313 69.56C600.313 70.008 600.185 70.36 599.929 70.616C599.673 70.872 599.31 71 598.841 71H587.289Z" fill="#1A1A1A"/>
<path d="M468.143 105.112C467.898 105.112 467.706 105.043 467.567 104.904C467.439 104.765 467.375 104.573 467.375 104.328V94.392C467.375 94.136 467.445 93.944 467.583 93.816C467.722 93.6773 467.909 93.608 468.143 93.608C468.367 93.608 468.538 93.6507 468.655 93.736C468.783 93.8107 468.901 93.9493 469.007 94.152L473.199 101.976H472.703L476.879 94.152C476.986 93.9493 477.098 93.8107 477.215 93.736C477.333 93.6507 477.503 93.608 477.727 93.608C477.962 93.608 478.143 93.6773 478.271 93.816C478.399 93.944 478.463 94.136 478.463 94.392V104.328C478.463 104.573 478.399 104.765 478.271 104.904C478.154 105.043 477.973 105.112 477.727 105.112C477.482 105.112 477.295 105.043 477.167 104.904C477.039 104.765 476.975 104.573 476.975 104.328V96.072H477.327L473.615 102.936C473.53 103.096 473.439 103.213 473.343 103.288C473.247 103.363 473.114 103.4 472.943 103.4C472.773 103.4 472.634 103.363 472.527 103.288C472.421 103.203 472.325 103.085 472.239 102.936L468.495 96.056H468.879V104.328C468.879 104.573 468.815 104.765 468.687 104.904C468.57 105.043 468.389 105.112 468.143 105.112ZM483.841 105.144C483.051 105.144 482.369 104.979 481.793 104.648C481.227 104.317 480.785 103.848 480.465 103.24C480.145 102.632 479.985 101.917 479.985 101.096C479.985 100.467 480.075 99.9067 480.257 99.416C480.438 98.9253 480.694 98.504 481.025 98.152C481.366 97.7893 481.771 97.5173 482.241 97.336C482.721 97.144 483.254 97.048 483.841 97.048C484.619 97.048 485.291 97.2133 485.857 97.544C486.433 97.8747 486.881 98.344 487.201 98.952C487.521 99.5493 487.681 100.264 487.681 101.096C487.681 101.715 487.59 102.275 487.409 102.776C487.227 103.277 486.966 103.704 486.625 104.056C486.294 104.408 485.889 104.68 485.409 104.872C484.939 105.053 484.417 105.144 483.841 105.144ZM483.841 103.896C484.278 103.896 484.662 103.789 484.993 103.576C485.323 103.363 485.579 103.048 485.761 102.632C485.953 102.216 486.049 101.704 486.049 101.096C486.049 100.179 485.846 99.4853 485.441 99.016C485.035 98.5467 484.502 98.312 483.841 98.312C483.393 98.312 483.003 98.4187 482.673 98.632C482.342 98.8347 482.081 99.144 481.889 99.56C481.707 99.976 481.617 100.488 481.617 101.096C481.617 102.003 481.819 102.696 482.225 103.176C482.63 103.656 483.169 103.896 483.841 103.896ZM493.187 105.144C492.505 105.144 491.913 104.973 491.411 104.632C490.91 104.28 490.574 103.816 490.403 103.24L490.579 102.952V104.296C490.579 104.552 490.51 104.755 490.371 104.904C490.233 105.043 490.041 105.112 489.795 105.112C489.539 105.112 489.342 105.043 489.203 104.904C489.065 104.755 488.995 104.552 488.995 104.296V94.424C488.995 94.1573 489.065 93.9547 489.203 93.816C489.342 93.6773 489.539 93.608 489.795 93.608C490.051 93.608 490.249 93.6773 490.387 93.816C490.537 93.9547 490.611 94.1573 490.611 94.424V98.904H490.419C490.59 98.3387 490.926 97.8907 491.427 97.56C491.929 97.2187 492.515 97.048 493.187 97.048C493.891 97.048 494.499 97.2133 495.011 97.544C495.523 97.8747 495.918 98.3387 496.195 98.936C496.483 99.5333 496.627 100.253 496.627 101.096C496.627 101.917 496.483 102.637 496.195 103.256C495.918 103.864 495.518 104.333 494.995 104.664C494.483 104.984 493.881 105.144 493.187 105.144ZM492.787 103.896C493.235 103.896 493.625 103.789 493.955 103.576C494.286 103.363 494.542 103.048 494.723 102.632C494.905 102.216 494.995 101.704 494.995 101.096C494.995 100.179 494.793 99.4853 494.387 99.016C493.993 98.5467 493.459 98.312 492.787 98.312C492.35 98.312 491.961 98.4187 491.619 98.632C491.289 98.8347 491.033 99.144 490.851 99.56C490.67 99.976 490.579 100.488 490.579 101.096C490.579 102.003 490.782 102.696 491.187 103.176C491.593 103.656 492.126 103.896 492.787 103.896ZM498.749 105.096C498.493 105.096 498.295 105.021 498.157 104.872C498.018 104.712 497.949 104.493 497.949 104.216V97.976C497.949 97.6987 498.018 97.4853 498.157 97.336C498.295 97.1867 498.493 97.112 498.749 97.112C499.005 97.112 499.202 97.1867 499.341 97.336C499.49 97.4853 499.565 97.6987 499.565 97.976V104.216C499.565 104.493 499.495 104.712 499.357 104.872C499.218 105.021 499.015 105.096 498.749 105.096ZM498.749 95.448C498.429 95.448 498.178 95.368 497.997 95.208C497.826 95.048 497.741 94.824 497.741 94.536C497.741 94.2373 497.826 94.0133 497.997 93.864C498.178 93.704 498.429 93.624 498.749 93.624C499.069 93.624 499.314 93.704 499.485 93.864C499.666 94.0133 499.757 94.2373 499.757 94.536C499.757 94.824 499.666 95.048 499.485 95.208C499.314 95.368 499.069 95.448 498.749 95.448ZM503.851 105.144C503.019 105.144 502.39 104.904 501.963 104.424C501.547 103.933 501.339 103.229 501.339 102.312V94.424C501.339 94.1573 501.408 93.9547 501.547 93.816C501.686 93.6773 501.883 93.608 502.139 93.608C502.395 93.608 502.592 93.6773 502.731 93.816C502.88 93.9547 502.955 94.1573 502.955 94.424V102.216C502.955 102.749 503.062 103.149 503.275 103.416C503.499 103.672 503.819 103.8 504.235 103.8C504.331 103.8 504.416 103.8 504.491 103.8C504.566 103.789 504.64 103.779 504.715 103.768C504.843 103.757 504.934 103.795 504.987 103.88C505.04 103.955 505.067 104.115 505.067 104.36C505.067 104.584 505.019 104.76 504.923 104.888C504.827 105.005 504.672 105.08 504.459 105.112C504.363 105.123 504.262 105.128 504.155 105.128C504.048 105.139 503.947 105.144 503.851 105.144ZM509.316 105.144C508.462 105.144 507.726 104.984 507.108 104.664C506.5 104.333 506.025 103.869 505.684 103.272C505.353 102.664 505.188 101.944 505.188 101.112C505.188 100.301 505.353 99.592 505.684 98.984C506.014 98.376 506.468 97.9013 507.044 97.56C507.62 97.2187 508.276 97.048 509.012 97.048C509.556 97.048 510.041 97.1387 510.468 97.32C510.894 97.4907 511.257 97.7467 511.556 98.088C511.865 98.4187 512.094 98.824 512.244 99.304C512.404 99.784 512.484 100.323 512.484 100.92C512.484 101.101 512.43 101.24 512.324 101.336C512.217 101.421 512.057 101.464 511.844 101.464H506.468V100.472H511.396L511.124 100.696C511.124 100.163 511.044 99.7093 510.884 99.336C510.734 98.9627 510.505 98.68 510.196 98.488C509.897 98.2853 509.524 98.184 509.076 98.184C508.574 98.184 508.148 98.3013 507.796 98.536C507.454 98.7707 507.193 99.096 507.012 99.512C506.83 99.928 506.74 100.413 506.74 100.968V101.064C506.74 102.003 506.958 102.712 507.396 103.192C507.844 103.661 508.489 103.896 509.332 103.896C509.652 103.896 509.988 103.853 510.34 103.768C510.702 103.683 511.044 103.539 511.364 103.336C511.545 103.229 511.705 103.181 511.844 103.192C511.993 103.203 512.11 103.251 512.196 103.336C512.292 103.421 512.35 103.528 512.372 103.656C512.393 103.784 512.372 103.917 512.308 104.056C512.244 104.184 512.132 104.301 511.972 104.408C511.609 104.653 511.188 104.84 510.708 104.968C510.228 105.085 509.764 105.144 509.316 105.144ZM513.823 105.512C513.77 105.683 513.684 105.805 513.567 105.88C513.45 105.955 513.322 105.992 513.183 105.992C513.044 105.992 512.916 105.955 512.799 105.88C512.692 105.816 512.618 105.72 512.575 105.592C512.522 105.464 512.522 105.309 512.575 105.128L516.335 93.48C516.388 93.3093 516.474 93.1867 516.591 93.112C516.708 93.0267 516.831 92.9893 516.959 93C517.098 93 517.22 93.0373 517.327 93.112C517.444 93.176 517.524 93.272 517.567 93.4C517.62 93.5173 517.626 93.6667 517.583 93.848L513.823 105.512ZM522.49 105.112C522.223 105.112 522.015 105.037 521.866 104.888C521.727 104.739 521.658 104.531 521.658 104.264V95.112H518.266C518.042 95.112 517.866 95.0533 517.738 94.936C517.61 94.808 517.546 94.632 517.546 94.408C517.546 94.184 517.61 94.0133 517.738 93.896C517.866 93.7787 518.042 93.72 518.266 93.72H526.698C526.932 93.72 527.114 93.7787 527.242 93.896C527.37 94.0133 527.434 94.184 527.434 94.408C527.434 94.632 527.37 94.808 527.242 94.936C527.114 95.0533 526.932 95.112 526.698 95.112H523.306V104.264C523.306 104.531 523.236 104.739 523.098 104.888C522.97 105.037 522.767 105.112 522.49 105.112ZM529.273 105.144C528.729 105.144 528.238 105.037 527.801 104.824C527.374 104.611 527.038 104.323 526.793 103.96C526.547 103.597 526.425 103.187 526.425 102.728C526.425 102.152 526.569 101.699 526.857 101.368C527.155 101.027 527.641 100.787 528.313 100.648C528.995 100.499 529.913 100.424 531.065 100.424H531.817V101.416H531.081C530.313 101.416 529.705 101.453 529.257 101.528C528.809 101.603 528.489 101.731 528.297 101.912C528.115 102.083 528.025 102.323 528.025 102.632C528.025 103.037 528.163 103.368 528.441 103.624C528.718 103.869 529.102 103.992 529.593 103.992C529.987 103.992 530.334 103.901 530.633 103.72C530.931 103.528 531.166 103.272 531.337 102.952C531.518 102.632 531.609 102.264 531.609 101.848V100.008C531.609 99.4 531.481 98.9627 531.225 98.696C530.969 98.4293 530.547 98.296 529.961 98.296C529.619 98.296 529.262 98.3387 528.889 98.424C528.526 98.5093 528.147 98.6533 527.753 98.856C527.571 98.9413 527.417 98.968 527.289 98.936C527.161 98.904 527.059 98.8347 526.985 98.728C526.91 98.6107 526.867 98.488 526.857 98.36C526.857 98.2213 526.889 98.088 526.953 97.96C527.027 97.832 527.15 97.736 527.321 97.672C527.79 97.448 528.254 97.288 528.713 97.192C529.171 97.096 529.603 97.048 530.009 97.048C530.723 97.048 531.31 97.16 531.769 97.384C532.238 97.608 532.585 97.9493 532.809 98.408C533.033 98.8667 533.145 99.4587 533.145 100.184V104.296C533.145 104.552 533.081 104.755 532.953 104.904C532.825 105.043 532.638 105.112 532.393 105.112C532.158 105.112 531.971 105.043 531.833 104.904C531.694 104.755 531.625 104.552 531.625 104.296V103.256H531.769C531.683 103.651 531.523 103.992 531.289 104.28C531.065 104.557 530.782 104.771 530.441 104.92C530.099 105.069 529.71 105.144 529.273 105.144ZM539.062 105.144C538.38 105.144 537.788 104.973 537.286 104.632C536.785 104.28 536.449 103.816 536.278 103.24L536.454 102.952V104.296C536.454 104.552 536.385 104.755 536.246 104.904C536.108 105.043 535.916 105.112 535.67 105.112C535.414 105.112 535.217 105.043 535.078 104.904C534.94 104.755 534.87 104.552 534.87 104.296V94.424C534.87 94.1573 534.94 93.9547 535.078 93.816C535.217 93.6773 535.414 93.608 535.67 93.608C535.926 93.608 536.124 93.6773 536.262 93.816C536.412 93.9547 536.486 94.1573 536.486 94.424V98.904H536.294C536.465 98.3387 536.801 97.8907 537.302 97.56C537.804 97.2187 538.39 97.048 539.062 97.048C539.766 97.048 540.374 97.2133 540.886 97.544C541.398 97.8747 541.793 98.3387 542.07 98.936C542.358 99.5333 542.502 100.253 542.502 101.096C542.502 101.917 542.358 102.637 542.07 103.256C541.793 103.864 541.393 104.333 540.87 104.664C540.358 104.984 539.756 105.144 539.062 105.144ZM538.662 103.896C539.11 103.896 539.5 103.789 539.83 103.576C540.161 103.363 540.417 103.048 540.598 102.632C540.78 102.216 540.87 101.704 540.87 101.096C540.87 100.179 540.668 99.4853 540.262 99.016C539.868 98.5467 539.334 98.312 538.662 98.312C538.225 98.312 537.836 98.4187 537.494 98.632C537.164 98.8347 536.908 99.144 536.726 99.56C536.545 99.976 536.454 100.488 536.454 101.096C536.454 102.003 536.657 102.696 537.062 103.176C537.468 103.656 538.001 103.896 538.662 103.896ZM546.336 105.144C545.504 105.144 544.874 104.904 544.448 104.424C544.032 103.933 543.824 103.229 543.824 102.312V94.424C543.824 94.1573 543.893 93.9547 544.032 93.816C544.17 93.6773 544.368 93.608 544.624 93.608C544.88 93.608 545.077 93.6773 545.216 93.816C545.365 93.9547 545.44 94.1573 545.44 94.424V102.216C545.44 102.749 545.546 103.149 545.76 103.416C545.984 103.672 546.304 103.8 546.72 103.8C546.816 103.8 546.901 103.8 546.976 103.8C547.05 103.789 547.125 103.779 547.2 103.768C547.328 103.757 547.418 103.795 547.472 103.88C547.525 103.955 547.552 104.115 547.552 104.36C547.552 104.584 547.504 104.76 547.408 104.888C547.312 105.005 547.157 105.08 546.944 105.112C546.848 105.123 546.746 105.128 546.64 105.128C546.533 105.139 546.432 105.144 546.336 105.144ZM551.8 105.144C550.947 105.144 550.211 104.984 549.592 104.664C548.984 104.333 548.509 103.869 548.168 103.272C547.837 102.664 547.672 101.944 547.672 101.112C547.672 100.301 547.837 99.592 548.168 98.984C548.499 98.376 548.952 97.9013 549.528 97.56C550.104 97.2187 550.76 97.048 551.496 97.048C552.04 97.048 552.525 97.1387 552.952 97.32C553.379 97.4907 553.741 97.7467 554.04 98.088C554.349 98.4187 554.579 98.824 554.728 99.304C554.888 99.784 554.968 100.323 554.968 100.92C554.968 101.101 554.915 101.24 554.808 101.336C554.701 101.421 554.541 101.464 554.328 101.464H548.952V100.472H553.88L553.608 100.696C553.608 100.163 553.528 99.7093 553.368 99.336C553.219 98.9627 552.989 98.68 552.68 98.488C552.381 98.2853 552.008 98.184 551.56 98.184C551.059 98.184 550.632 98.3013 550.28 98.536C549.939 98.7707 549.677 99.096 549.496 99.512C549.315 99.928 549.224 100.413 549.224 100.968V101.064C549.224 102.003 549.443 102.712 549.88 103.192C550.328 103.661 550.973 103.896 551.816 103.896C552.136 103.896 552.472 103.853 552.824 103.768C553.187 103.683 553.528 103.539 553.848 103.336C554.029 103.229 554.189 103.181 554.328 103.192C554.477 103.203 554.595 103.251 554.68 103.336C554.776 103.421 554.835 103.528 554.856 103.656C554.877 103.784 554.856 103.917 554.792 104.056C554.728 104.184 554.616 104.301 554.456 104.408C554.093 104.653 553.672 104.84 553.192 104.968C552.712 105.085 552.248 105.144 551.8 105.144ZM559.542 105.144C558.902 105.144 558.363 105.032 557.926 104.808C557.489 104.584 557.163 104.253 556.95 103.816C556.737 103.379 556.63 102.845 556.63 102.216V98.44H555.67C555.457 98.44 555.291 98.3867 555.174 98.28C555.057 98.1627 554.998 98.008 554.998 97.816C554.998 97.6133 555.057 97.4587 555.174 97.352C555.291 97.2453 555.457 97.192 555.67 97.192H556.63V95.544C556.63 95.2773 556.699 95.0747 556.838 94.936C556.987 94.7973 557.19 94.728 557.446 94.728C557.702 94.728 557.899 94.7973 558.038 94.936C558.177 95.0747 558.246 95.2773 558.246 95.544V97.192H560.118C560.331 97.192 560.497 97.2453 560.614 97.352C560.731 97.4587 560.79 97.6133 560.79 97.816C560.79 98.008 560.731 98.1627 560.614 98.28C560.497 98.3867 560.331 98.44 560.118 98.44H558.246V102.088C558.246 102.653 558.363 103.08 558.598 103.368C558.843 103.656 559.238 103.8 559.782 103.8C559.974 103.8 560.139 103.784 560.278 103.752C560.427 103.709 560.55 103.683 560.646 103.672C560.763 103.672 560.859 103.715 560.934 103.8C561.009 103.875 561.046 104.024 561.046 104.248C561.046 104.408 561.014 104.557 560.95 104.696C560.897 104.835 560.795 104.925 560.646 104.968C560.518 105.011 560.342 105.048 560.118 105.08C559.905 105.123 559.713 105.144 559.542 105.144ZM564.573 105.144C563.933 105.144 563.395 105.032 562.957 104.808C562.52 104.584 562.195 104.253 561.981 103.816C561.768 103.379 561.661 102.845 561.661 102.216V98.44H560.701C560.488 98.44 560.323 98.3867 560.205 98.28C560.088 98.1627 560.029 98.008 560.029 97.816C560.029 97.6133 560.088 97.4587 560.205 97.352C560.323 97.2453 560.488 97.192 560.701 97.192H561.661V95.544C561.661 95.2773 561.731 95.0747 561.869 94.936C562.019 94.7973 562.221 94.728 562.477 94.728C562.733 94.728 562.931 94.7973 563.069 94.936C563.208 95.0747 563.277 95.2773 563.277 95.544V97.192H565.149C565.363 97.192 565.528 97.2453 565.645 97.352C565.763 97.4587 565.821 97.6133 565.821 97.816C565.821 98.008 565.763 98.1627 565.645 98.28C565.528 98.3867 565.363 98.44 565.149 98.44H563.277V102.088C563.277 102.653 563.395 103.08 563.629 103.368C563.875 103.656 564.269 103.8 564.813 103.8C565.005 103.8 565.171 103.784 565.309 103.752C565.459 103.709 565.581 103.683 565.677 103.672C565.795 103.672 565.891 103.715 565.965 103.8C566.04 103.875 566.077 104.024 566.077 104.248C566.077 104.408 566.045 104.557 565.981 104.696C565.928 104.835 565.827 104.925 565.677 104.968C565.549 105.011 565.373 105.048 565.149 105.08C564.936 105.123 564.744 105.144 564.573 105.144ZM570.175 105.144C569.322 105.144 568.586 104.984 567.967 104.664C567.359 104.333 566.884 103.869 566.543 103.272C566.212 102.664 566.047 101.944 566.047 101.112C566.047 100.301 566.212 99.592 566.543 98.984C566.874 98.376 567.327 97.9013 567.903 97.56C568.479 97.2187 569.135 97.048 569.871 97.048C570.415 97.048 570.9 97.1387 571.327 97.32C571.754 97.4907 572.116 97.7467 572.415 98.088C572.724 98.4187 572.954 98.824 573.103 99.304C573.263 99.784 573.343 100.323 573.343 100.92C573.343 101.101 573.29 101.24 573.183 101.336C573.076 101.421 572.916 101.464 572.703 101.464H567.327V100.472H572.255L571.983 100.696C571.983 100.163 571.903 99.7093 571.743 99.336C571.594 98.9627 571.364 98.68 571.055 98.488C570.756 98.2853 570.383 98.184 569.935 98.184C569.434 98.184 569.007 98.3013 568.655 98.536C568.314 98.7707 568.052 99.096 567.871 99.512C567.69 99.928 567.599 100.413 567.599 100.968V101.064C567.599 102.003 567.818 102.712 568.255 103.192C568.703 103.661 569.348 103.896 570.191 103.896C570.511 103.896 570.847 103.853 571.199 103.768C571.562 103.683 571.903 103.539 572.223 103.336C572.404 103.229 572.564 103.181 572.703 103.192C572.852 103.203 572.97 103.251 573.055 103.336C573.151 103.421 573.21 103.528 573.231 103.656C573.252 103.784 573.231 103.917 573.167 104.056C573.103 104.184 572.991 104.301 572.831 104.408C572.468 104.653 572.047 104.84 571.567 104.968C571.087 105.085 570.623 105.144 570.175 105.144Z" fill="#1A1A1A"/>
</svg>
