<svg width="712" height="138" viewBox="0 0 712 138" fill="none" xmlns="http://www.w3.org/2000/svg">
<g clip-path="url(#clip0_968_8168)">
<path d="M0 8C0 3.58172 3.58172 0 8 0H704C708.418 0 712 3.58172 712 8V130C712 134.418 708.418 138 704 138H8C3.58172 138 0 134.418 0 130V8Z" fill="white"/>
<path d="M17.0391 21V10.9785H19.0078L23.1094 17.6709V10.9785H24.9893V21H22.959L18.9189 14.4648V21H17.0391ZM26.6777 17.2676C26.6777 16.6296 26.835 16.012 27.1494 15.415C27.4639 14.818 27.9082 14.3623 28.4824 14.0479C29.0612 13.7334 29.7061 13.5762 30.417 13.5762C31.5153 13.5762 32.4154 13.9339 33.1172 14.6494C33.819 15.3604 34.1699 16.2604 34.1699 17.3496C34.1699 18.4479 33.8145 19.3594 33.1035 20.084C32.3971 20.804 31.5062 21.1641 30.4307 21.1641C29.7653 21.1641 29.1296 21.0137 28.5234 20.7129C27.9219 20.4121 27.4639 19.9723 27.1494 19.3936C26.835 18.8102 26.6777 18.1016 26.6777 17.2676ZM28.6465 17.3701C28.6465 18.0902 28.8174 18.6416 29.1592 19.0244C29.501 19.4072 29.9225 19.5986 30.4238 19.5986C30.9251 19.5986 31.3444 19.4072 31.6816 19.0244C32.0234 18.6416 32.1943 18.0856 32.1943 17.3564C32.1943 16.6455 32.0234 16.0986 31.6816 15.7158C31.3444 15.333 30.9251 15.1416 30.4238 15.1416C29.9225 15.1416 29.501 15.333 29.1592 15.7158C28.8174 16.0986 28.6465 16.6501 28.6465 17.3701ZM35.5371 13.7402H37.3076V14.7314C37.9411 13.9613 38.6953 13.5762 39.5703 13.5762C40.0352 13.5762 40.4385 13.6719 40.7803 13.8633C41.1221 14.0547 41.4023 14.3441 41.6211 14.7314C41.9401 14.3441 42.2842 14.0547 42.6533 13.8633C43.0225 13.6719 43.4167 13.5762 43.8359 13.5762C44.3691 13.5762 44.8203 13.6855 45.1895 13.9043C45.5586 14.1185 45.8343 14.4352 46.0166 14.8545C46.1488 15.1644 46.2148 15.6657 46.2148 16.3584V21H44.2939V16.8506C44.2939 16.1305 44.2279 15.6657 44.0957 15.4561C43.918 15.1826 43.6445 15.0459 43.2754 15.0459C43.0065 15.0459 42.7536 15.1279 42.5166 15.292C42.2796 15.4561 42.1087 15.6976 42.0039 16.0166C41.8991 16.3311 41.8467 16.8301 41.8467 17.5137V21H39.9258V17.0215C39.9258 16.3151 39.8916 15.8594 39.8232 15.6543C39.7549 15.4492 39.6478 15.2965 39.502 15.1963C39.3607 15.096 39.167 15.0459 38.9209 15.0459C38.6247 15.0459 38.3581 15.1257 38.1211 15.2852C37.8841 15.4447 37.7132 15.6748 37.6084 15.9756C37.5081 16.2764 37.458 16.7754 37.458 17.4727V21H35.5371V13.7402ZM58.6904 21H56.9062V19.9336C56.61 20.3483 56.2591 20.6582 55.8535 20.8633C55.4525 21.0638 55.0469 21.1641 54.6367 21.1641C53.8027 21.1641 53.0872 20.8291 52.4902 20.1592C51.8978 19.4847 51.6016 18.5459 51.6016 17.3428C51.6016 16.1123 51.891 15.1781 52.4697 14.54C53.0485 13.8975 53.7799 13.5762 54.6641 13.5762C55.4753 13.5762 56.1771 13.9134 56.7695 14.5879V10.9785H58.6904V21ZM53.5635 17.2129C53.5635 17.9876 53.6706 18.5482 53.8848 18.8945C54.1947 19.3958 54.6276 19.6465 55.1836 19.6465C55.6257 19.6465 56.0016 19.4596 56.3115 19.0859C56.6214 18.7077 56.7764 18.1449 56.7764 17.3975C56.7764 16.5635 56.626 15.9642 56.3252 15.5996C56.0244 15.2305 55.6393 15.0459 55.1699 15.0459C54.7142 15.0459 54.3314 15.2282 54.0215 15.5928C53.7161 15.9528 53.5635 16.4928 53.5635 17.2129ZM65.3691 21V19.9131C65.1048 20.3005 64.7562 20.6058 64.3232 20.8291C63.8949 21.0524 63.4414 21.1641 62.9629 21.1641C62.4753 21.1641 62.0378 21.057 61.6504 20.8428C61.263 20.6286 60.9827 20.3278 60.8096 19.9404C60.6364 19.5531 60.5498 19.0176 60.5498 18.334V13.7402H62.4707V17.0762C62.4707 18.097 62.5049 18.7236 62.5732 18.9561C62.6462 19.1839 62.776 19.3662 62.9629 19.5029C63.1497 19.6351 63.3867 19.7012 63.6738 19.7012C64.002 19.7012 64.2959 19.6123 64.5557 19.4346C64.8154 19.2523 64.9932 19.029 65.0889 18.7646C65.1846 18.4958 65.2324 17.8418 65.2324 16.8027V13.7402H67.1533V21H65.3691ZM76.375 13.7402V15.2715H75.0625V18.1973C75.0625 18.7897 75.0739 19.1361 75.0967 19.2363C75.124 19.332 75.181 19.4118 75.2676 19.4756C75.3587 19.5394 75.4681 19.5713 75.5957 19.5713C75.7734 19.5713 76.0309 19.5098 76.3682 19.3867L76.5322 20.877C76.0856 21.0684 75.5798 21.1641 75.0146 21.1641C74.6683 21.1641 74.3561 21.1071 74.0781 20.9932C73.8001 20.8747 73.5951 20.7243 73.4629 20.542C73.3353 20.3551 73.2464 20.1045 73.1963 19.79C73.1553 19.5667 73.1348 19.1156 73.1348 18.4365V15.2715H72.2529V13.7402H73.1348V12.2979L75.0625 11.1768V13.7402H76.375ZM77.2637 17.2676C77.2637 16.6296 77.4209 16.012 77.7354 15.415C78.0498 14.818 78.4941 14.3623 79.0684 14.0479C79.6471 13.7334 80.292 13.5762 81.0029 13.5762C82.1012 13.5762 83.0013 13.9339 83.7031 14.6494C84.4049 15.3604 84.7559 16.2604 84.7559 17.3496C84.7559 18.4479 84.4004 19.3594 83.6895 20.084C82.9831 20.804 82.0921 21.1641 81.0166 21.1641C80.3512 21.1641 79.7155 21.0137 79.1094 20.7129C78.5078 20.4121 78.0498 19.9723 77.7354 19.3936C77.4209 18.8102 77.2637 18.1016 77.2637 17.2676ZM79.2324 17.3701C79.2324 18.0902 79.4033 18.6416 79.7451 19.0244C80.0869 19.4072 80.5085 19.5986 81.0098 19.5986C81.5111 19.5986 81.9303 19.4072 82.2676 19.0244C82.6094 18.6416 82.7803 18.0856 82.7803 17.3564C82.7803 16.6455 82.6094 16.0986 82.2676 15.7158C81.9303 15.333 81.5111 15.1416 81.0098 15.1416C80.5085 15.1416 80.0869 15.333 79.7451 15.7158C79.4033 16.0986 79.2324 16.6501 79.2324 17.3701ZM86.1982 21V10.9785H88.1191V16.2969L90.3682 13.7402H92.7334L90.252 16.3926L92.9111 21H90.8398L89.0146 17.7393L88.1191 18.6758V21H86.1982ZM98.2637 18.6895L100.178 19.0107C99.9316 19.7126 99.542 20.248 99.0088 20.6172C98.4801 20.9818 97.8171 21.1641 97.0195 21.1641C95.7572 21.1641 94.8229 20.7516 94.2168 19.9268C93.7383 19.266 93.499 18.432 93.499 17.4248C93.499 16.2217 93.8135 15.2806 94.4424 14.6016C95.0713 13.918 95.8665 13.5762 96.8281 13.5762C97.9082 13.5762 98.7604 13.9339 99.3848 14.6494C100.009 15.3604 100.308 16.4518 100.28 17.9238H95.4678C95.4814 18.4935 95.6364 18.9378 95.9326 19.2568C96.2288 19.5713 96.598 19.7285 97.04 19.7285C97.3408 19.7285 97.5938 19.6465 97.7988 19.4824C98.0039 19.3184 98.1589 19.054 98.2637 18.6895ZM98.373 16.748C98.3594 16.1921 98.2158 15.7705 97.9424 15.4834C97.6689 15.1917 97.3363 15.0459 96.9443 15.0459C96.5251 15.0459 96.1787 15.1986 95.9053 15.5039C95.6318 15.8092 95.4974 16.224 95.502 16.748H98.373ZM108.456 21H106.535V17.2949C106.535 16.5111 106.494 16.0052 106.412 15.7773C106.33 15.5449 106.196 15.3649 106.009 15.2373C105.826 15.1097 105.605 15.0459 105.346 15.0459C105.013 15.0459 104.715 15.137 104.45 15.3193C104.186 15.5016 104.004 15.7432 103.903 16.0439C103.808 16.3447 103.76 16.9007 103.76 17.7119V21H101.839V13.7402H103.623V14.8066C104.257 13.9863 105.054 13.5762 106.016 13.5762C106.439 13.5762 106.827 13.6536 107.178 13.8086C107.529 13.959 107.793 14.1527 107.971 14.3896C108.153 14.6266 108.278 14.8955 108.347 15.1963C108.42 15.4971 108.456 15.9277 108.456 16.4883V21Z" fill="#201F1F"/>
<path d="M0 33H356V34H0V33Z" fill="#CDCCCB"/>
<path d="M375.575 21L371.993 10.9785H374.188L376.724 18.3955L379.178 10.9785H381.324L377.735 21H375.575ZM382.999 15.9551L381.256 15.6406C381.452 14.9388 381.789 14.4193 382.268 14.082C382.746 13.7448 383.457 13.5762 384.4 13.5762C385.257 13.5762 385.895 13.6787 386.314 13.8838C386.734 14.0843 387.028 14.3418 387.196 14.6562C387.369 14.9661 387.456 15.5381 387.456 16.3721L387.436 18.6143C387.436 19.2523 387.465 19.724 387.524 20.0293C387.588 20.3301 387.704 20.6536 387.873 21H385.973C385.923 20.8724 385.861 20.6833 385.788 20.4326C385.756 20.3187 385.733 20.2435 385.72 20.207C385.392 20.526 385.041 20.7653 384.667 20.9248C384.293 21.0843 383.895 21.1641 383.471 21.1641C382.723 21.1641 382.133 20.9613 381.7 20.5557C381.272 20.1501 381.058 19.6374 381.058 19.0176C381.058 18.6074 381.156 18.2428 381.352 17.9238C381.548 17.6003 381.821 17.3542 382.172 17.1855C382.527 17.0124 383.038 16.862 383.703 16.7344C384.601 16.5658 385.223 16.4085 385.569 16.2627V16.0713C385.569 15.7021 385.478 15.4401 385.296 15.2852C385.114 15.1257 384.77 15.0459 384.264 15.0459C383.922 15.0459 383.655 15.1143 383.464 15.251C383.272 15.3831 383.118 15.6178 382.999 15.9551ZM385.569 17.5137C385.323 17.5957 384.934 17.6937 384.4 17.8076C383.867 17.9215 383.519 18.0332 383.354 18.1426C383.104 18.3203 382.979 18.5459 382.979 18.8193C382.979 19.0882 383.079 19.3206 383.279 19.5166C383.48 19.7126 383.735 19.8105 384.045 19.8105C384.391 19.8105 384.722 19.6966 385.036 19.4688C385.269 19.2956 385.421 19.0837 385.494 18.833C385.544 18.6689 385.569 18.3568 385.569 17.8965V17.5137ZM389.356 21V10.9785H391.277V21H389.356ZM397.457 18.6895L399.371 19.0107C399.125 19.7126 398.735 20.248 398.202 20.6172C397.674 20.9818 397.01 21.1641 396.213 21.1641C394.951 21.1641 394.016 20.7516 393.41 19.9268C392.932 19.266 392.692 18.432 392.692 17.4248C392.692 16.2217 393.007 15.2806 393.636 14.6016C394.265 13.918 395.06 13.5762 396.021 13.5762C397.102 13.5762 397.954 13.9339 398.578 14.6494C399.202 15.3604 399.501 16.4518 399.474 17.9238H394.661C394.675 18.4935 394.83 18.9378 395.126 19.2568C395.422 19.5713 395.791 19.7285 396.233 19.7285C396.534 19.7285 396.787 19.6465 396.992 19.4824C397.197 19.3184 397.352 19.054 397.457 18.6895ZM397.566 16.748C397.553 16.1921 397.409 15.7705 397.136 15.4834C396.862 15.1917 396.53 15.0459 396.138 15.0459C395.718 15.0459 395.372 15.1986 395.099 15.5039C394.825 15.8092 394.691 16.224 394.695 16.748H397.566ZM405.824 21V19.9131C405.56 20.3005 405.211 20.6058 404.778 20.8291C404.35 21.0524 403.896 21.1641 403.418 21.1641C402.93 21.1641 402.493 21.057 402.105 20.8428C401.718 20.6286 401.438 20.3278 401.265 19.9404C401.091 19.5531 401.005 19.0176 401.005 18.334V13.7402H402.926V17.0762C402.926 18.097 402.96 18.7236 403.028 18.9561C403.101 19.1839 403.231 19.3662 403.418 19.5029C403.605 19.6351 403.842 19.7012 404.129 19.7012C404.457 19.7012 404.751 19.6123 405.011 19.4346C405.271 19.2523 405.448 19.029 405.544 18.7646C405.64 18.4958 405.688 17.8418 405.688 16.8027V13.7402H407.608V21H405.824ZM411.443 21H409.522V13.7402H411.307V14.7725C411.612 14.2848 411.885 13.9635 412.127 13.8086C412.373 13.6536 412.651 13.5762 412.961 13.5762C413.398 13.5762 413.82 13.6969 414.226 13.9385L413.631 15.6133C413.307 15.4036 413.007 15.2988 412.729 15.2988C412.46 15.2988 412.232 15.374 412.045 15.5244C411.858 15.6702 411.71 15.9368 411.601 16.3242C411.496 16.7116 411.443 17.5228 411.443 18.7578V21Z" fill="#201F1F"/>
<path d="M356 33H712V34H356V33Z" fill="#CDCCCB"/>
<path d="M18.0576 65H16.916V54.9785H18.1465V58.5537C18.666 57.902 19.3291 57.5762 20.1357 57.5762C20.5824 57.5762 21.0039 57.6673 21.4004 57.8496C21.8014 58.0273 22.1296 58.2803 22.3848 58.6084C22.6445 58.932 22.8473 59.3239 22.9932 59.7842C23.139 60.2445 23.2119 60.7367 23.2119 61.2607C23.2119 62.5049 22.9043 63.4665 22.2891 64.1455C21.6738 64.8245 20.9355 65.1641 20.0742 65.1641C19.2174 65.1641 18.5452 64.8063 18.0576 64.0908V65ZM18.0439 61.3154C18.0439 62.1859 18.1624 62.8148 18.3994 63.2021C18.7868 63.8356 19.3109 64.1523 19.9717 64.1523C20.5094 64.1523 20.9743 63.9199 21.3662 63.4551C21.7581 62.9857 21.9541 62.2884 21.9541 61.3633C21.9541 60.4154 21.765 59.7158 21.3867 59.2646C21.013 58.8135 20.5596 58.5879 20.0264 58.5879C19.4886 58.5879 19.0238 58.8226 18.6318 59.292C18.2399 59.7568 18.0439 60.4313 18.0439 61.3154ZM24.2578 61.3701C24.2578 60.0257 24.6315 59.0299 25.3789 58.3828C26.0033 57.8451 26.7643 57.5762 27.6621 57.5762C28.6602 57.5762 29.4759 57.9043 30.1094 58.5605C30.7428 59.2122 31.0596 60.1146 31.0596 61.2676C31.0596 62.2018 30.9183 62.9378 30.6357 63.4756C30.3577 64.0088 29.9499 64.4235 29.4121 64.7197C28.8789 65.016 28.2956 65.1641 27.6621 65.1641C26.6458 65.1641 25.8232 64.8382 25.1943 64.1865C24.57 63.5348 24.2578 62.596 24.2578 61.3701ZM25.5225 61.3701C25.5225 62.2998 25.7253 62.9971 26.1309 63.4619C26.5365 63.9222 27.0469 64.1523 27.6621 64.1523C28.2728 64.1523 28.7809 63.9199 29.1865 63.4551C29.5921 62.9902 29.7949 62.2816 29.7949 61.3291C29.7949 60.4313 29.5898 59.7523 29.1797 59.292C28.7741 58.8271 28.2682 58.5947 27.6621 58.5947C27.0469 58.5947 26.5365 58.8249 26.1309 59.2852C25.7253 59.7454 25.5225 60.4404 25.5225 61.3701ZM32.4951 65V57.7402H33.6025V58.8408C33.8851 58.3258 34.1449 57.9863 34.3818 57.8223C34.6234 57.6582 34.8877 57.5762 35.1748 57.5762C35.5895 57.5762 36.0111 57.7083 36.4395 57.9727L36.0156 59.1143C35.7148 58.9365 35.4141 58.8477 35.1133 58.8477C34.8444 58.8477 34.6029 58.9297 34.3887 59.0938C34.1745 59.2533 34.0218 59.4766 33.9307 59.7637C33.7939 60.2012 33.7256 60.6797 33.7256 61.1992V65H32.4951ZM41.8809 65V64.084C41.4206 64.804 40.7438 65.1641 39.8506 65.1641C39.2718 65.1641 38.7386 65.0046 38.251 64.6855C37.7679 64.3665 37.3919 63.9222 37.123 63.3525C36.8587 62.7783 36.7266 62.1198 36.7266 61.377C36.7266 60.6523 36.8473 59.9961 37.0889 59.4082C37.3304 58.8158 37.6927 58.3623 38.1758 58.0479C38.6589 57.7334 39.1989 57.5762 39.7959 57.5762C40.2334 57.5762 40.623 57.6696 40.9648 57.8564C41.3066 58.0387 41.5846 58.278 41.7988 58.5742V54.9785H43.0225V65H41.8809ZM37.9912 61.377C37.9912 62.3066 38.1872 63.0016 38.5791 63.4619C38.971 63.9222 39.4336 64.1523 39.9668 64.1523C40.5046 64.1523 40.9603 63.9336 41.334 63.4961C41.7122 63.054 41.9014 62.3818 41.9014 61.4795C41.9014 60.486 41.71 59.7568 41.3271 59.292C40.9443 58.8271 40.4727 58.5947 39.9121 58.5947C39.3652 58.5947 38.9072 58.818 38.5381 59.2646C38.1735 59.7113 37.9912 60.4154 37.9912 61.377ZM49.9336 62.6621L51.2051 62.8193C51.0046 63.5622 50.6331 64.1387 50.0908 64.5488C49.5485 64.959 48.8558 65.1641 48.0127 65.1641C46.9508 65.1641 46.1077 64.8382 45.4834 64.1865C44.8636 63.5303 44.5537 62.612 44.5537 61.4316C44.5537 60.2103 44.8682 59.2624 45.4971 58.5879C46.126 57.9134 46.9417 57.5762 47.9443 57.5762C48.915 57.5762 49.708 57.9066 50.3232 58.5674C50.9385 59.2282 51.2461 60.1579 51.2461 61.3564C51.2461 61.4294 51.2438 61.5387 51.2393 61.6846H45.8252C45.8708 62.4821 46.0964 63.0928 46.502 63.5166C46.9076 63.9404 47.4134 64.1523 48.0195 64.1523C48.4707 64.1523 48.8558 64.0339 49.1748 63.7969C49.4938 63.5599 49.7467 63.1816 49.9336 62.6621ZM45.8936 60.6729H49.9473C49.8926 60.0622 49.7376 59.6042 49.4824 59.2988C49.0905 58.8249 48.5824 58.5879 47.958 58.5879C47.3929 58.5879 46.9167 58.777 46.5293 59.1553C46.1465 59.5335 45.9346 60.0394 45.8936 60.6729ZM52.7432 65V57.7402H53.8506V58.8408C54.1331 58.3258 54.3929 57.9863 54.6299 57.8223C54.8714 57.6582 55.1357 57.5762 55.4229 57.5762C55.8376 57.5762 56.2591 57.7083 56.6875 57.9727L56.2637 59.1143C55.9629 58.9365 55.6621 58.8477 55.3613 58.8477C55.0924 58.8477 54.8509 58.9297 54.6367 59.0938C54.4225 59.2533 54.2699 59.4766 54.1787 59.7637C54.042 60.2012 53.9736 60.6797 53.9736 61.1992V65H52.7432ZM56.4961 65.1709L59.4014 54.8076H60.3857L57.4873 65.1709H56.4961ZM61.3018 65V57.7402H62.4092V58.8408C62.6917 58.3258 62.9515 57.9863 63.1885 57.8223C63.43 57.6582 63.6943 57.5762 63.9814 57.5762C64.3962 57.5762 64.8177 57.7083 65.2461 57.9727L64.8223 59.1143C64.5215 58.9365 64.2207 58.8477 63.9199 58.8477C63.651 58.8477 63.4095 58.9297 63.1953 59.0938C62.9811 59.2533 62.8285 59.4766 62.7373 59.7637C62.6006 60.2012 62.5322 60.6797 62.5322 61.1992V65H61.3018ZM70.7148 64.1045C70.2591 64.4919 69.8193 64.7653 69.3955 64.9248C68.9762 65.0843 68.5251 65.1641 68.042 65.1641C67.2445 65.1641 66.6315 64.9704 66.2031 64.583C65.7747 64.1911 65.5605 63.6921 65.5605 63.0859C65.5605 62.7305 65.6403 62.4069 65.7998 62.1152C65.9639 61.819 66.1758 61.582 66.4355 61.4043C66.6999 61.2266 66.9961 61.0921 67.3242 61.001C67.5658 60.9372 67.9303 60.8757 68.418 60.8164C69.4115 60.6979 70.1429 60.5566 70.6123 60.3926C70.6169 60.224 70.6191 60.1169 70.6191 60.0713C70.6191 59.57 70.5029 59.2168 70.2705 59.0117C69.9561 58.7337 69.4889 58.5947 68.8691 58.5947C68.2904 58.5947 67.862 58.6973 67.584 58.9023C67.3105 59.1029 67.1077 59.4606 66.9756 59.9756L65.7725 59.8115C65.8818 59.2965 66.0618 58.8818 66.3125 58.5674C66.5632 58.2484 66.9255 58.0046 67.3994 57.8359C67.8734 57.6628 68.4225 57.5762 69.0469 57.5762C69.6667 57.5762 70.1702 57.6491 70.5576 57.7949C70.945 57.9408 71.2298 58.1253 71.4121 58.3486C71.5944 58.5674 71.722 58.8454 71.7949 59.1826C71.8359 59.3923 71.8564 59.7705 71.8564 60.3174V61.958C71.8564 63.1019 71.8815 63.8265 71.9316 64.1318C71.9863 64.4326 72.0911 64.722 72.2461 65H70.9609C70.8333 64.7448 70.7513 64.4463 70.7148 64.1045ZM70.6123 61.3564C70.1657 61.5387 69.4958 61.6937 68.6025 61.8213C68.0967 61.8942 67.7389 61.9762 67.5293 62.0674C67.3197 62.1585 67.1579 62.293 67.0439 62.4707C66.93 62.6439 66.873 62.8376 66.873 63.0518C66.873 63.3799 66.9961 63.6533 67.2422 63.8721C67.4928 64.0908 67.8574 64.2002 68.3359 64.2002C68.8099 64.2002 69.2314 64.0977 69.6006 63.8926C69.9697 63.6829 70.2409 63.3981 70.4141 63.0381C70.5462 62.7601 70.6123 62.3499 70.6123 61.8076V61.3564ZM78.4805 65V64.084C78.0202 64.804 77.3434 65.1641 76.4502 65.1641C75.8714 65.1641 75.3382 65.0046 74.8506 64.6855C74.3675 64.3665 73.9915 63.9222 73.7227 63.3525C73.4583 62.7783 73.3262 62.1198 73.3262 61.377C73.3262 60.6523 73.4469 59.9961 73.6885 59.4082C73.93 58.8158 74.2923 58.3623 74.7754 58.0479C75.2585 57.7334 75.7985 57.5762 76.3955 57.5762C76.833 57.5762 77.2227 57.6696 77.5645 57.8564C77.9062 58.0387 78.1842 58.278 78.3984 58.5742V54.9785H79.6221V65H78.4805ZM74.5908 61.377C74.5908 62.3066 74.7868 63.0016 75.1787 63.4619C75.5706 63.9222 76.0332 64.1523 76.5664 64.1523C77.1042 64.1523 77.5599 63.9336 77.9336 63.4961C78.3118 63.054 78.501 62.3818 78.501 61.4795C78.501 60.486 78.3096 59.7568 77.9268 59.292C77.5439 58.8271 77.0723 58.5947 76.5117 58.5947C75.9648 58.5947 75.5068 58.818 75.1377 59.2646C74.7731 59.7113 74.5908 60.4154 74.5908 61.377ZM81.5703 56.3936V54.9785H82.8008V56.3936H81.5703ZM81.5703 65V57.7402H82.8008V65H81.5703ZM89.4385 65V63.9336C88.8734 64.7539 88.1055 65.1641 87.1348 65.1641C86.7064 65.1641 86.3053 65.082 85.9316 64.918C85.5625 64.7539 85.2868 64.5488 85.1045 64.3027C84.9268 64.0521 84.8014 63.7467 84.7285 63.3867C84.6784 63.1452 84.6533 62.7624 84.6533 62.2383V57.7402H85.8838V61.7666C85.8838 62.4092 85.9089 62.8421 85.959 63.0654C86.0365 63.389 86.2005 63.6442 86.4512 63.8311C86.7018 64.0133 87.0117 64.1045 87.3809 64.1045C87.75 64.1045 88.0964 64.0111 88.4199 63.8242C88.7435 63.6328 88.9714 63.3753 89.1035 63.0518C89.2402 62.7236 89.3086 62.2497 89.3086 61.6299V57.7402H90.5391V65H89.4385ZM91.9814 62.833L93.1982 62.6416C93.2666 63.1292 93.4557 63.5029 93.7656 63.7627C94.0801 64.0225 94.5176 64.1523 95.0781 64.1523C95.6432 64.1523 96.0625 64.0384 96.3359 63.8105C96.6094 63.5781 96.7461 63.307 96.7461 62.9971C96.7461 62.7191 96.6253 62.5003 96.3838 62.3408C96.2152 62.2314 95.7959 62.0924 95.126 61.9238C94.2236 61.696 93.597 61.5 93.2461 61.3359C92.8997 61.1673 92.6354 60.9372 92.4531 60.6455C92.2754 60.3493 92.1865 60.0234 92.1865 59.668C92.1865 59.3444 92.2594 59.0459 92.4053 58.7725C92.5557 58.4945 92.7585 58.2643 93.0137 58.082C93.2051 57.9408 93.4648 57.8223 93.793 57.7266C94.1257 57.6263 94.4811 57.5762 94.8594 57.5762C95.429 57.5762 95.9281 57.6582 96.3564 57.8223C96.7894 57.9863 97.1084 58.2096 97.3135 58.4922C97.5186 58.7702 97.6598 59.1439 97.7373 59.6133L96.5342 59.7773C96.4795 59.4036 96.32 59.112 96.0557 58.9023C95.7959 58.6927 95.4268 58.5879 94.9482 58.5879C94.3831 58.5879 93.9798 58.6813 93.7383 58.8682C93.4967 59.055 93.376 59.2738 93.376 59.5244C93.376 59.6839 93.4261 59.8275 93.5264 59.9551C93.6266 60.0872 93.7839 60.1966 93.998 60.2832C94.1211 60.3288 94.4834 60.4336 95.085 60.5977C95.9554 60.8301 96.5615 61.0215 96.9033 61.1719C97.2497 61.3177 97.5208 61.5319 97.7168 61.8145C97.9128 62.097 98.0107 62.4479 98.0107 62.8672C98.0107 63.2773 97.89 63.6647 97.6484 64.0293C97.4115 64.3893 97.0674 64.6696 96.6162 64.8701C96.165 65.0661 95.6546 65.1641 95.085 65.1641C94.1416 65.1641 93.4215 64.9681 92.9248 64.5762C92.4326 64.1842 92.1182 63.6032 91.9814 62.833ZM98.5508 65.1709L101.456 54.8076H102.44L99.542 65.1709H98.5508ZM102.509 65L106.385 59.7773L102.967 54.9785H104.546L106.364 57.5488C106.743 58.082 107.011 58.4922 107.171 58.7793C107.394 58.4147 107.659 58.0342 107.964 57.6377L109.98 54.9785H111.423L107.902 59.7021L111.696 65H110.056L107.533 61.4248C107.392 61.2197 107.246 60.9964 107.096 60.7549C106.872 61.1195 106.713 61.3701 106.617 61.5068L104.102 65H102.509ZM112.811 65V54.9785H114.137V63.8174H119.072V65H112.811Z" fill="#3E3E3D"/>
<path d="M0 85H356V86H0V85Z" fill="#CDCCCB"/>
<path d="M377.216 65H375.985V57.1592C375.689 57.4417 375.299 57.7243 374.816 58.0068C374.338 58.2894 373.907 58.5013 373.524 58.6426V57.4531C374.213 57.1296 374.814 56.7376 375.329 56.2773C375.844 55.8171 376.209 55.3704 376.423 54.9375H377.216V65ZM386.759 57.4326L385.535 57.5283C385.426 57.0452 385.271 56.6943 385.07 56.4756C384.738 56.1247 384.327 55.9492 383.84 55.9492C383.448 55.9492 383.104 56.0586 382.808 56.2773C382.42 56.5599 382.115 56.9723 381.892 57.5146C381.668 58.057 381.552 58.8294 381.543 59.832C381.839 59.3809 382.201 59.0459 382.63 58.8271C383.058 58.6084 383.507 58.499 383.977 58.499C384.797 58.499 385.494 58.8021 386.068 59.4082C386.647 60.0098 386.937 60.7891 386.937 61.7461C386.937 62.375 386.8 62.9606 386.526 63.5029C386.257 64.0407 385.886 64.4531 385.412 64.7402C384.938 65.0273 384.4 65.1709 383.799 65.1709C382.773 65.1709 381.937 64.7949 381.29 64.043C380.643 63.2865 380.319 62.0423 380.319 60.3105C380.319 58.3737 380.677 56.9655 381.393 56.0859C382.017 55.3203 382.858 54.9375 383.915 54.9375C384.703 54.9375 385.348 55.1585 385.85 55.6006C386.355 56.0426 386.659 56.6533 386.759 57.4326ZM381.734 61.7529C381.734 62.1768 381.823 62.5824 382.001 62.9697C382.183 63.3571 382.436 63.6533 382.76 63.8584C383.083 64.0589 383.423 64.1592 383.778 64.1592C384.298 64.1592 384.744 63.9495 385.118 63.5303C385.492 63.111 385.679 62.5413 385.679 61.8213C385.679 61.1286 385.494 60.584 385.125 60.1875C384.756 59.7865 384.291 59.5859 383.73 59.5859C383.174 59.5859 382.703 59.7865 382.315 60.1875C381.928 60.584 381.734 61.1058 381.734 61.7529ZM394.757 67.9463C394.078 67.0895 393.504 66.0869 393.034 64.9385C392.565 63.79 392.33 62.6006 392.33 61.3701C392.33 60.2855 392.506 59.2464 392.856 58.2529C393.267 57.0999 393.9 55.9515 394.757 54.8076H395.639C395.087 55.7555 394.723 56.4323 394.545 56.8379C394.267 57.4668 394.048 58.123 393.889 58.8066C393.693 59.6589 393.595 60.5156 393.595 61.377C393.595 63.569 394.276 65.7588 395.639 67.9463H394.757ZM397.067 67.7822V57.7402H398.188V58.6836C398.453 58.3145 398.751 58.0387 399.084 57.8564C399.417 57.6696 399.82 57.5762 400.294 57.5762C400.914 57.5762 401.461 57.7357 401.935 58.0547C402.409 58.3737 402.766 58.8249 403.008 59.4082C403.249 59.987 403.37 60.6227 403.37 61.3154C403.37 62.0583 403.236 62.7282 402.967 63.3252C402.702 63.9176 402.315 64.3734 401.805 64.6924C401.299 65.0068 400.766 65.1641 400.205 65.1641C399.795 65.1641 399.426 65.0775 399.098 64.9043C398.774 64.7311 398.507 64.5124 398.298 64.248V67.7822H397.067ZM398.182 61.4111C398.182 62.3454 398.371 63.0358 398.749 63.4824C399.127 63.929 399.585 64.1523 400.123 64.1523C400.67 64.1523 401.137 63.9222 401.524 63.4619C401.916 62.9971 402.112 62.2793 402.112 61.3086C402.112 60.3835 401.921 59.6908 401.538 59.2305C401.16 58.7702 400.706 58.54 400.178 58.54C399.654 58.54 399.189 58.7861 398.783 59.2783C398.382 59.766 398.182 60.4769 398.182 61.4111ZM404.04 65L406.692 61.2266L404.238 57.7402H405.776L406.891 59.4424C407.1 59.766 407.269 60.0371 407.396 60.2559C407.597 59.9551 407.782 59.6885 407.95 59.4561L409.174 57.7402H410.644L408.135 61.1582L410.835 65H409.324L407.834 62.7441L407.438 62.1357L405.53 65H404.04ZM412.667 67.9463H411.785C413.148 65.7588 413.829 63.569 413.829 61.377C413.829 60.5202 413.731 59.6702 413.535 58.8271C413.38 58.1436 413.164 57.4873 412.886 56.8584C412.708 56.4482 412.341 55.7646 411.785 54.8076H412.667C413.524 55.9515 414.157 57.0999 414.567 58.2529C414.918 59.2464 415.094 60.2855 415.094 61.3701C415.094 62.6006 414.857 63.79 414.383 64.9385C413.913 66.0869 413.341 67.0895 412.667 67.9463Z" fill="#3E3E3D"/>
<path d="M356 85H712V86H356V85Z" fill="#CDCCCB"/>
<path d="M16.4648 113.37C16.4648 112.026 16.8385 111.03 17.5859 110.383C18.2103 109.845 18.9714 109.576 19.8691 109.576C20.8672 109.576 21.6829 109.904 22.3164 110.561C22.9499 111.212 23.2666 112.115 23.2666 113.268C23.2666 114.202 23.1253 114.938 22.8428 115.476C22.5648 116.009 22.1569 116.424 21.6191 116.72C21.0859 117.016 20.5026 117.164 19.8691 117.164C18.8529 117.164 18.0303 116.838 17.4014 116.187C16.777 115.535 16.4648 114.596 16.4648 113.37ZM17.7295 113.37C17.7295 114.3 17.9323 114.997 18.3379 115.462C18.7435 115.922 19.2539 116.152 19.8691 116.152C20.4798 116.152 20.988 115.92 21.3936 115.455C21.7992 114.99 22.002 114.282 22.002 113.329C22.002 112.431 21.7969 111.752 21.3867 111.292C20.9811 110.827 20.4753 110.595 19.8691 110.595C19.2539 110.595 18.7435 110.825 18.3379 111.285C17.9323 111.745 17.7295 112.44 17.7295 113.37ZM24.7158 119.782V109.74H25.8369V110.684C26.1012 110.314 26.3997 110.039 26.7324 109.856C27.0651 109.67 27.4684 109.576 27.9424 109.576C28.5622 109.576 29.109 109.736 29.583 110.055C30.057 110.374 30.4147 110.825 30.6562 111.408C30.8978 111.987 31.0186 112.623 31.0186 113.315C31.0186 114.058 30.8841 114.728 30.6152 115.325C30.3509 115.918 29.9635 116.373 29.4531 116.692C28.9473 117.007 28.4141 117.164 27.8535 117.164C27.4434 117.164 27.0742 117.077 26.7461 116.904C26.4225 116.731 26.1559 116.512 25.9463 116.248V119.782H24.7158ZM25.8301 113.411C25.8301 114.345 26.0192 115.036 26.3975 115.482C26.7757 115.929 27.2337 116.152 27.7715 116.152C28.3184 116.152 28.7855 115.922 29.1729 115.462C29.5648 114.997 29.7607 114.279 29.7607 113.309C29.7607 112.383 29.5693 111.691 29.1865 111.23C28.8083 110.77 28.3548 110.54 27.8262 110.54C27.3021 110.54 26.8372 110.786 26.4316 111.278C26.0306 111.766 25.8301 112.477 25.8301 113.411ZM37.2461 116.104C36.7904 116.492 36.3506 116.765 35.9268 116.925C35.5075 117.084 35.0563 117.164 34.5732 117.164C33.7757 117.164 33.1628 116.97 32.7344 116.583C32.306 116.191 32.0918 115.692 32.0918 115.086C32.0918 114.73 32.1715 114.407 32.3311 114.115C32.4951 113.819 32.707 113.582 32.9668 113.404C33.2311 113.227 33.5273 113.092 33.8555 113.001C34.097 112.937 34.4616 112.876 34.9492 112.816C35.9427 112.698 36.6742 112.557 37.1436 112.393C37.1481 112.224 37.1504 112.117 37.1504 112.071C37.1504 111.57 37.0342 111.217 36.8018 111.012C36.4873 110.734 36.0202 110.595 35.4004 110.595C34.8216 110.595 34.3932 110.697 34.1152 110.902C33.8418 111.103 33.639 111.461 33.5068 111.976L32.3037 111.812C32.4131 111.297 32.5931 110.882 32.8438 110.567C33.0944 110.248 33.4567 110.005 33.9307 109.836C34.4046 109.663 34.9538 109.576 35.5781 109.576C36.1979 109.576 36.7015 109.649 37.0889 109.795C37.4762 109.941 37.7611 110.125 37.9434 110.349C38.1257 110.567 38.2533 110.845 38.3262 111.183C38.3672 111.392 38.3877 111.771 38.3877 112.317V113.958C38.3877 115.102 38.4128 115.826 38.4629 116.132C38.5176 116.433 38.6224 116.722 38.7773 117H37.4922C37.3646 116.745 37.2826 116.446 37.2461 116.104ZM37.1436 113.356C36.6969 113.539 36.027 113.694 35.1338 113.821C34.6279 113.894 34.2702 113.976 34.0605 114.067C33.8509 114.159 33.6891 114.293 33.5752 114.471C33.4613 114.644 33.4043 114.838 33.4043 115.052C33.4043 115.38 33.5273 115.653 33.7734 115.872C34.0241 116.091 34.3887 116.2 34.8672 116.2C35.3411 116.2 35.7627 116.098 36.1318 115.893C36.501 115.683 36.7721 115.398 36.9453 115.038C37.0775 114.76 37.1436 114.35 37.1436 113.808V113.356ZM45.0391 114.341L46.249 114.498C46.1169 115.332 45.7773 115.986 45.2305 116.46C44.6882 116.929 44.0205 117.164 43.2275 117.164C42.234 117.164 41.4342 116.84 40.8281 116.193C40.2266 115.542 39.9258 114.61 39.9258 113.397C39.9258 112.614 40.0557 111.928 40.3154 111.34C40.5752 110.752 40.9694 110.312 41.498 110.021C42.0312 109.724 42.61 109.576 43.2344 109.576C44.0228 109.576 44.6676 109.777 45.1689 110.178C45.6702 110.574 45.9915 111.139 46.1328 111.873L44.9365 112.058C44.8226 111.57 44.6198 111.203 44.3281 110.957C44.041 110.711 43.6924 110.588 43.2822 110.588C42.6624 110.588 42.1589 110.811 41.7715 111.258C41.3841 111.7 41.1904 112.402 41.1904 113.363C41.1904 114.339 41.3773 115.047 41.751 115.489C42.1247 115.931 42.6123 116.152 43.2139 116.152C43.6969 116.152 44.1003 116.004 44.4238 115.708C44.7474 115.412 44.9525 114.956 45.0391 114.341ZM47.3086 108.394V106.979H48.5391V108.394H47.3086ZM47.3086 117V109.74H48.5391V117H47.3086ZM53.1055 115.899L53.2832 116.986C52.9368 117.059 52.627 117.096 52.3535 117.096C51.9069 117.096 51.5605 117.025 51.3145 116.884C51.0684 116.743 50.8952 116.558 50.7949 116.33C50.6947 116.098 50.6445 115.612 50.6445 114.874V110.697H49.7422V109.74H50.6445V107.942L51.8682 107.204V109.74H53.1055V110.697H51.8682V114.942C51.8682 115.293 51.8887 115.519 51.9297 115.619C51.9753 115.719 52.0459 115.799 52.1416 115.858C52.2419 115.918 52.3831 115.947 52.5654 115.947C52.7021 115.947 52.8822 115.931 53.1055 115.899ZM54.2607 119.796L54.124 118.641C54.3929 118.714 54.6276 118.75 54.8281 118.75C55.1016 118.75 55.3203 118.704 55.4844 118.613C55.6484 118.522 55.7829 118.395 55.8877 118.23C55.9652 118.107 56.0905 117.802 56.2637 117.314C56.2865 117.246 56.3229 117.146 56.373 117.014L53.6182 109.74H54.9443L56.4551 113.944C56.651 114.478 56.8265 115.038 56.9814 115.626C57.1227 115.061 57.2913 114.509 57.4873 113.972L59.0391 109.74H60.2695L57.5078 117.123C57.2116 117.921 56.9814 118.47 56.8174 118.771C56.5986 119.176 56.348 119.472 56.0654 119.659C55.7829 119.851 55.4456 119.946 55.0537 119.946C54.8167 119.946 54.5524 119.896 54.2607 119.796ZM60.3926 117.171L63.2979 106.808H64.2822L61.3838 117.171H60.3926ZM65.0547 114.683L66.2373 114.573C66.3376 115.129 66.529 115.533 66.8115 115.783C67.0941 116.034 67.4564 116.159 67.8984 116.159C68.2767 116.159 68.6071 116.073 68.8896 115.899C69.1768 115.726 69.4115 115.496 69.5938 115.209C69.776 114.917 69.9287 114.525 70.0518 114.033C70.1748 113.541 70.2363 113.04 70.2363 112.529C70.2363 112.475 70.234 112.393 70.2295 112.283C69.9834 112.675 69.6462 112.994 69.2178 113.24C68.7939 113.482 68.3337 113.603 67.8369 113.603C67.0075 113.603 66.3057 113.302 65.7314 112.7C65.1572 112.099 64.8701 111.306 64.8701 110.321C64.8701 109.305 65.1686 108.487 65.7656 107.867C66.3672 107.247 67.1191 106.938 68.0215 106.938C68.6732 106.938 69.2679 107.113 69.8057 107.464C70.348 107.815 70.7581 108.316 71.0361 108.968C71.3187 109.615 71.46 110.554 71.46 111.784C71.46 113.065 71.321 114.086 71.043 114.847C70.765 115.603 70.3503 116.18 69.7988 116.576C69.252 116.973 68.6094 117.171 67.8711 117.171C67.0872 117.171 66.4469 116.954 65.9502 116.521C65.4535 116.084 65.1549 115.471 65.0547 114.683ZM70.0928 110.26C70.0928 109.553 69.9036 108.993 69.5254 108.578C69.1517 108.163 68.7005 107.956 68.1719 107.956C67.625 107.956 67.1488 108.179 66.7432 108.626C66.3376 109.073 66.1348 109.651 66.1348 110.362C66.1348 111 66.3262 111.52 66.709 111.921C67.0964 112.317 67.5726 112.516 68.1377 112.516C68.7074 112.516 69.1745 112.317 69.5391 111.921C69.9082 111.52 70.0928 110.966 70.0928 110.26ZM72.6631 112.058C72.6631 110.873 72.7839 109.92 73.0254 109.2C73.2715 108.476 73.6338 107.917 74.1123 107.525C74.5954 107.133 75.2015 106.938 75.9307 106.938C76.4684 106.938 76.9401 107.047 77.3457 107.266C77.7513 107.48 78.0863 107.792 78.3506 108.202C78.6149 108.608 78.8223 109.104 78.9727 109.692C79.123 110.276 79.1982 111.064 79.1982 112.058C79.1982 113.233 79.0775 114.184 78.8359 114.908C78.5944 115.628 78.2321 116.187 77.749 116.583C77.2705 116.975 76.6644 117.171 75.9307 117.171C74.9645 117.171 74.2057 116.825 73.6543 116.132C72.9935 115.298 72.6631 113.94 72.6631 112.058ZM73.9277 112.058C73.9277 113.703 74.1191 114.799 74.502 115.346C74.8893 115.888 75.3656 116.159 75.9307 116.159C76.4958 116.159 76.9697 115.886 77.3525 115.339C77.7399 114.792 77.9336 113.698 77.9336 112.058C77.9336 110.408 77.7399 109.312 77.3525 108.77C76.9697 108.227 76.4912 107.956 75.917 107.956C75.3519 107.956 74.9007 108.195 74.5635 108.674C74.1396 109.285 73.9277 110.412 73.9277 112.058ZM80.6885 109.385C80.6885 108.669 80.8685 108.061 81.2285 107.56C81.5885 107.058 82.1104 106.808 82.7939 106.808C83.4229 106.808 83.9424 107.033 84.3525 107.484C84.7673 107.931 84.9746 108.59 84.9746 109.46C84.9746 110.308 84.765 110.962 84.3457 111.422C83.931 111.878 83.4183 112.105 82.8076 112.105C82.2015 112.105 81.6956 111.88 81.29 111.429C80.889 110.978 80.6885 110.296 80.6885 109.385ZM82.8281 107.655C82.5228 107.655 82.2676 107.787 82.0625 108.052C81.862 108.316 81.7617 108.801 81.7617 109.508C81.7617 110.15 81.8643 110.604 82.0693 110.868C82.2744 111.128 82.5273 111.258 82.8281 111.258C83.138 111.258 83.3932 111.126 83.5938 110.861C83.7988 110.597 83.9014 110.114 83.9014 109.412C83.9014 108.765 83.7988 108.312 83.5938 108.052C83.3887 107.787 83.1335 107.655 82.8281 107.655ZM82.835 117.369L88.3174 106.808H89.3154L83.8535 117.369H82.835ZM87.1689 114.648C87.1689 113.928 87.349 113.32 87.709 112.823C88.069 112.322 88.5931 112.071 89.2812 112.071C89.9102 112.071 90.4297 112.297 90.8398 112.748C91.2546 113.195 91.4619 113.853 91.4619 114.724C91.4619 115.571 91.2523 116.225 90.833 116.686C90.4183 117.141 89.9033 117.369 89.2881 117.369C88.682 117.369 88.1761 117.144 87.7705 116.692C87.3695 116.237 87.1689 115.555 87.1689 114.648ZM89.3154 112.919C89.0055 112.919 88.748 113.051 88.543 113.315C88.3424 113.58 88.2422 114.065 88.2422 114.771C88.2422 115.41 88.3447 115.861 88.5498 116.125C88.7549 116.389 89.0078 116.521 89.3086 116.521C89.623 116.521 89.8805 116.389 90.0811 116.125C90.2861 115.861 90.3887 115.378 90.3887 114.676C90.3887 114.029 90.2861 113.575 90.0811 113.315C89.876 113.051 89.6208 112.919 89.3154 112.919Z" fill="#3E3E3D"/>
<path d="M0 137H356V138H0V137Z" fill="#CDCCCB"/>
<path d="M372.766 114.683L373.948 114.573C374.049 115.129 374.24 115.533 374.522 115.783C374.805 116.034 375.167 116.159 375.609 116.159C375.988 116.159 376.318 116.073 376.601 115.899C376.888 115.726 377.122 115.496 377.305 115.209C377.487 114.917 377.64 114.525 377.763 114.033C377.886 113.541 377.947 113.04 377.947 112.529C377.947 112.475 377.945 112.393 377.94 112.283C377.694 112.675 377.357 112.994 376.929 113.24C376.505 113.482 376.045 113.603 375.548 113.603C374.718 113.603 374.017 113.302 373.442 112.7C372.868 112.099 372.581 111.306 372.581 110.321C372.581 109.305 372.88 108.487 373.477 107.867C374.078 107.247 374.83 106.938 375.732 106.938C376.384 106.938 376.979 107.113 377.517 107.464C378.059 107.815 378.469 108.316 378.747 108.968C379.03 109.615 379.171 110.554 379.171 111.784C379.171 113.065 379.032 114.086 378.754 114.847C378.476 115.603 378.061 116.18 377.51 116.576C376.963 116.973 376.32 117.171 375.582 117.171C374.798 117.171 374.158 116.954 373.661 116.521C373.164 116.084 372.866 115.471 372.766 114.683ZM377.804 110.26C377.804 109.553 377.615 108.993 377.236 108.578C376.863 108.163 376.411 107.956 375.883 107.956C375.336 107.956 374.86 108.179 374.454 108.626C374.049 109.073 373.846 109.651 373.846 110.362C373.846 111 374.037 111.52 374.42 111.921C374.807 112.317 375.284 112.516 375.849 112.516C376.418 112.516 376.885 112.317 377.25 111.921C377.619 111.52 377.804 110.966 377.804 110.26ZM380.374 112.058C380.374 110.873 380.495 109.92 380.736 109.2C380.982 108.476 381.345 107.917 381.823 107.525C382.306 107.133 382.912 106.938 383.642 106.938C384.179 106.938 384.651 107.047 385.057 107.266C385.462 107.48 385.797 107.792 386.062 108.202C386.326 108.608 386.533 109.104 386.684 109.692C386.834 110.276 386.909 111.064 386.909 112.058C386.909 113.233 386.788 114.184 386.547 114.908C386.305 115.628 385.943 116.187 385.46 116.583C384.981 116.975 384.375 117.171 383.642 117.171C382.675 117.171 381.917 116.825 381.365 116.132C380.704 115.298 380.374 113.94 380.374 112.058ZM381.639 112.058C381.639 113.703 381.83 114.799 382.213 115.346C382.6 115.888 383.076 116.159 383.642 116.159C384.207 116.159 384.681 115.886 385.063 115.339C385.451 114.792 385.645 113.698 385.645 112.058C385.645 110.408 385.451 109.312 385.063 108.77C384.681 108.227 384.202 107.956 383.628 107.956C383.063 107.956 382.612 108.195 382.274 108.674C381.851 109.285 381.639 110.412 381.639 112.058ZM388.399 109.385C388.399 108.669 388.579 108.061 388.939 107.56C389.299 107.058 389.821 106.808 390.505 106.808C391.134 106.808 391.653 107.033 392.063 107.484C392.478 107.931 392.686 108.59 392.686 109.46C392.686 110.308 392.476 110.962 392.057 111.422C391.642 111.878 391.129 112.105 390.519 112.105C389.912 112.105 389.407 111.88 389.001 111.429C388.6 110.978 388.399 110.296 388.399 109.385ZM390.539 107.655C390.234 107.655 389.979 107.787 389.773 108.052C389.573 108.316 389.473 108.801 389.473 109.508C389.473 110.15 389.575 110.604 389.78 110.868C389.985 111.128 390.238 111.258 390.539 111.258C390.849 111.258 391.104 111.126 391.305 110.861C391.51 110.597 391.612 110.114 391.612 109.412C391.612 108.765 391.51 108.312 391.305 108.052C391.1 107.787 390.844 107.655 390.539 107.655ZM390.546 117.369L396.028 106.808H397.026L391.564 117.369H390.546ZM394.88 114.648C394.88 113.928 395.06 113.32 395.42 112.823C395.78 112.322 396.304 112.071 396.992 112.071C397.621 112.071 398.141 112.297 398.551 112.748C398.965 113.195 399.173 113.853 399.173 114.724C399.173 115.571 398.963 116.225 398.544 116.686C398.129 117.141 397.614 117.369 396.999 117.369C396.393 117.369 395.887 117.144 395.481 116.692C395.08 116.237 394.88 115.555 394.88 114.648ZM397.026 112.919C396.716 112.919 396.459 113.051 396.254 113.315C396.053 113.58 395.953 114.065 395.953 114.771C395.953 115.41 396.056 115.861 396.261 116.125C396.466 116.389 396.719 116.521 397.02 116.521C397.334 116.521 397.591 116.389 397.792 116.125C397.997 115.861 398.1 115.378 398.1 114.676C398.1 114.029 397.997 113.575 397.792 113.315C397.587 113.051 397.332 112.919 397.026 112.919Z" fill="#3E3E3D"/>
<path d="M356 137H712V138H356V137Z" fill="#CDCCCB"/>
</g>
<path d="M8 0.5H704C708.142 0.5 711.5 3.85786 711.5 8V130C711.5 134.142 708.142 137.5 704 137.5H8C3.85786 137.5 0.5 134.142 0.5 130V8C0.5 3.85786 3.85786 0.5 8 0.5Z" stroke="#CDCCCB"/>
<defs>
<clipPath id="clip0_968_8168">
<path d="M0 8C0 3.58172 3.58172 0 8 0H704C708.418 0 712 3.58172 712 8V130C712 134.418 708.418 138 704 138H8C3.58172 138 0 134.418 0 130V8Z" fill="white"/>
</clipPath>
</defs>
</svg>
