<svg viewBox="0 0 20 20" fill="none" xmlns="http://www.w3.org/2000/svg">
<path d="M2.50016 13.3333V10.8333H1.66683C1.43072 10.8333 1.2328 10.7535 1.07308 10.5937C0.913357 10.434 0.833496 10.2361 0.833496 9.99998C0.833496 9.76387 0.913357 9.56595 1.07308 9.40623C1.2328 9.24651 1.43072 9.16665 1.66683 9.16665H2.50016V6.66665C2.50016 5.9722 2.74322 5.38192 3.22933 4.89581C3.71544 4.4097 4.30572 4.16665 5.00016 4.16665H5.8335C5.8335 3.93054 5.91336 3.73262 6.07308 3.5729C6.2328 3.41317 6.43072 3.33331 6.66683 3.33331C6.90294 3.33331 7.10086 3.41317 7.26058 3.5729C7.4203 3.73262 7.50016 3.93054 7.50016 4.16665V15.8333C7.50016 16.0694 7.4203 16.2673 7.26058 16.4271C7.10086 16.5868 6.90294 16.6666 6.66683 16.6666C6.43072 16.6666 6.2328 16.5868 6.07308 16.4271C5.91336 16.2673 5.8335 16.0694 5.8335 15.8333H5.00016C4.30572 15.8333 3.71544 15.5903 3.22933 15.1041C2.74322 14.618 2.50016 14.0278 2.50016 13.3333ZM5.00016 14.1666H5.8335V5.83331H5.00016C4.76405 5.83331 4.56614 5.91317 4.40641 6.0729C4.24669 6.23262 4.16683 6.43054 4.16683 6.66665V13.3333C4.16683 13.5694 4.24669 13.7673 4.40641 13.9271C4.56614 14.0868 4.76405 14.1666 5.00016 14.1666ZM17.5002 13.3333C17.5002 14.0278 17.2571 14.618 16.771 15.1041C16.2849 15.5903 15.6946 15.8333 15.0002 15.8333H14.1668C14.1668 16.0694 14.087 16.2673 13.9272 16.4271C13.7675 16.5868 13.5696 16.6666 13.3335 16.6666C13.0974 16.6666 12.8995 16.5868 12.7397 16.4271C12.58 16.2673 12.5002 16.0694 12.5002 15.8333V13.3333H10.0002C9.76405 13.3333 9.56614 13.2535 9.40641 13.0937C9.24669 12.934 9.16683 12.7361 9.16683 12.5C9.16683 12.2639 9.24669 12.066 9.40641 11.9062C9.56614 11.7465 9.76405 11.6666 10.0002 11.6666H12.5002V8.33331H10.0002C9.76405 8.33331 9.56614 8.25345 9.40641 8.09373C9.24669 7.93401 9.16683 7.73609 9.16683 7.49998C9.16683 7.26387 9.24669 7.06595 9.40641 6.90623C9.56614 6.74651 9.76405 6.66665 10.0002 6.66665H12.5002V4.16665C12.5002 3.93054 12.58 3.73262 12.7397 3.5729C12.8995 3.41317 13.0974 3.33331 13.3335 3.33331C13.5696 3.33331 13.7675 3.41317 13.9272 3.5729C14.087 3.73262 14.1668 3.93054 14.1668 4.16665H15.0002C15.6946 4.16665 16.2849 4.4097 16.771 4.89581C17.2571 5.38192 17.5002 5.9722 17.5002 6.66665V9.16665H18.3335C18.5696 9.16665 18.7675 9.24651 18.9272 9.40623C19.087 9.56595 19.1668 9.76387 19.1668 9.99998C19.1668 10.2361 19.087 10.434 18.9272 10.5937C18.7675 10.7535 18.5696 10.8333 18.3335 10.8333H17.5002V13.3333ZM14.1668 14.1666H15.0002C15.2363 14.1666 15.4342 14.0868 15.5939 13.9271C15.7536 13.7673 15.8335 13.5694 15.8335 13.3333V6.66665C15.8335 6.43054 15.7536 6.23262 15.5939 6.0729C15.4342 5.91317 15.2363 5.83331 15.0002 5.83331H14.1668V14.1666Z" fill="currentColor"/>
</svg>