<svg viewBox="0 0 20 20" fill="none" xmlns="http://www.w3.org/2000/svg">
<path d="M10 14.7292C10.2361 14.7292 10.434 14.6493 10.5938 14.4896C10.7535 14.3299 10.8333 14.1319 10.8333 13.8958V11.2292L11.5833 11.9792C11.7361 12.1319 11.9306 12.2083 12.1667 12.2083C12.4028 12.2083 12.5972 12.1319 12.75 11.9792C12.9028 11.8264 12.9792 11.6319 12.9792 11.3958C12.9792 11.1597 12.9028 10.9653 12.75 10.8125L10.5833 8.66667C10.4167 8.5 10.2222 8.41667 10 8.41667C9.77778 8.41667 9.58333 8.5 9.41667 8.66667L7.25 10.8125C7.09722 10.9653 7.02083 11.1597 7.02083 11.3958C7.02083 11.6319 7.09722 11.8264 7.25 11.9792C7.40278 12.1319 7.59722 12.2083 7.83333 12.2083C8.06944 12.2083 8.26389 12.1319 8.41667 11.9792L9.16667 11.2292V13.8958C9.16667 14.1319 9.24653 14.3299 9.40625 14.4896C9.56597 14.6493 9.76389 14.7292 10 14.7292ZM4.16667 17.5C3.70833 17.5 3.31597 17.3368 2.98958 17.0104C2.66319 16.684 2.5 16.2917 2.5 15.8333V5.4375C2.5 5.24306 2.53125 5.05556 2.59375 4.875C2.65625 4.69444 2.75 4.52778 2.875 4.375L3.91667 3.10417C4.06944 2.90972 4.26042 2.76042 4.48958 2.65625C4.71875 2.55208 4.95833 2.5 5.20833 2.5H14.7917C15.0417 2.5 15.2812 2.55208 15.5104 2.65625C15.7396 2.76042 15.9306 2.90972 16.0833 3.10417L17.125 4.375C17.25 4.52778 17.3438 4.69444 17.4062 4.875C17.4688 5.05556 17.5 5.24306 17.5 5.4375V15.8333C17.5 16.2917 17.3368 16.684 17.0104 17.0104C16.684 17.3368 16.2917 17.5 15.8333 17.5H4.16667ZM4.5 5H15.5L14.7917 4.16667H5.20833L4.5 5Z" fill="currentColor"/>
</svg>