<svg viewBox="0 0 20 20" fill="none" xmlns="http://www.w3.org/2000/svg">
<path d="M10 18.3334C9.54167 18.3334 9.14931 18.1702 8.82292 17.8438C8.49653 17.5174 8.33333 17.125 8.33333 16.6667H11.6667C11.6667 17.125 11.5035 17.5174 11.1771 17.8438C10.8507 18.1702 10.4583 18.3334 10 18.3334ZM7.5 15.8334C7.26389 15.8334 7.06597 15.7535 6.90625 15.5938C6.74653 15.434 6.66667 15.2361 6.66667 15C6.66667 14.7639 6.74653 14.566 6.90625 14.4063C7.06597 14.2465 7.26389 14.1667 7.5 14.1667H12.5C12.7361 14.1667 12.934 14.2465 13.0938 14.4063C13.2535 14.566 13.3333 14.7639 13.3333 15C13.3333 15.2361 13.2535 15.434 13.0938 15.5938C12.934 15.7535 12.7361 15.8334 12.5 15.8334H7.5ZM6.875 13.3334C5.91667 12.7639 5.15625 12 4.59375 11.0417C4.03125 10.0834 3.75 9.04169 3.75 7.91669C3.75 6.18058 4.35764 4.70488 5.57292 3.4896C6.78819 2.27433 8.26389 1.66669 10 1.66669C11.7361 1.66669 13.2118 2.27433 14.4271 3.4896C15.6424 4.70488 16.25 6.18058 16.25 7.91669C16.25 9.04169 15.9688 10.0834 15.4062 11.0417C14.8438 12 14.0833 12.7639 13.125 13.3334H6.875Z" fill="currentColor"/>
</svg>