<svg width="1159" height="159" viewBox="0 0 1159 159" fill="none" xmlns="http://www.w3.org/2000/svg">
<g clip-path="url(#clip0_322_43587)">
<rect width="579.5" height="61" transform="translate(0 0.5)" fill="white"/>
<path d="M23.76 37.68C22.4267 37.68 21.26 37.3867 20.26 36.8C19.2733 36.2 18.5067 35.36 17.96 34.28C17.4267 33.1867 17.16 31.9067 17.16 30.44C17.16 29.3333 17.3133 28.34 17.62 27.46C17.9267 26.5667 18.3667 25.8067 18.94 25.18C19.5133 24.54 20.2067 24.0533 21.02 23.72C21.8333 23.3867 22.7467 23.22 23.76 23.22C25.1067 23.22 26.2733 23.5133 27.26 24.1C28.2467 24.6867 29.0067 25.52 29.54 26.6C30.0867 27.68 30.36 28.9533 30.36 30.42C30.36 31.5267 30.2067 32.5267 29.9 33.42C29.5933 34.3133 29.1467 35.08 28.56 35.72C27.9867 36.36 27.2933 36.8467 26.48 37.18C25.6667 37.5133 24.76 37.68 23.76 37.68ZM23.76 35.88C24.6933 35.88 25.4867 35.6667 26.14 35.24C26.8067 34.8133 27.3133 34.1933 27.66 33.38C28.02 32.5667 28.2 31.5867 28.2 30.44C28.2 28.72 27.8133 27.3867 27.04 26.44C26.2667 25.4933 25.1733 25.02 23.76 25.02C22.8267 25.02 22.0267 25.2333 21.36 25.66C20.7067 26.0733 20.2 26.6867 19.84 27.5C19.4933 28.3133 19.32 29.2933 19.32 30.44C19.32 32.1467 19.7067 33.48 20.48 34.44C21.2667 35.4 22.36 35.88 23.76 35.88ZM33.4278 41.24C33.1078 41.24 32.8611 41.1533 32.6878 40.98C32.5145 40.8067 32.4278 40.5533 32.4278 40.22V28.62C32.4278 28.2867 32.5145 28.0333 32.6878 27.86C32.8611 27.6867 33.1011 27.6 33.4078 27.6C33.7278 27.6 33.9745 27.6867 34.1478 27.86C34.3211 28.0333 34.4078 28.2867 34.4078 28.62V30.36L34.1878 29.94C34.4011 29.22 34.8211 28.6467 35.4478 28.22C36.0745 27.78 36.8145 27.56 37.6678 27.56C38.5345 27.56 39.2878 27.7667 39.9278 28.18C40.5811 28.5933 41.0811 29.1733 41.4278 29.92C41.7878 30.6667 41.9678 31.5667 41.9678 32.62C41.9678 33.6467 41.7878 34.5467 41.4278 35.32C41.0811 36.08 40.5878 36.6667 39.9478 37.08C39.3078 37.48 38.5478 37.68 37.6678 37.68C36.8278 37.68 36.0945 37.4667 35.4678 37.04C34.8411 36.6133 34.4211 36.0467 34.2078 35.34H34.4478V40.22C34.4478 40.5533 34.3545 40.8067 34.1678 40.98C33.9945 41.1533 33.7478 41.24 33.4278 41.24ZM37.1678 36.12C37.7278 36.12 38.2145 35.9867 38.6278 35.72C39.0411 35.4533 39.3611 35.06 39.5878 34.54C39.8145 34.02 39.9278 33.38 39.9278 32.62C39.9278 31.4733 39.6745 30.6067 39.1678 30.02C38.6745 29.4333 38.0078 29.14 37.1678 29.14C36.6211 29.14 36.1345 29.2733 35.7078 29.54C35.2945 29.7933 34.9745 30.18 34.7478 30.7C34.5211 31.22 34.4078 31.86 34.4078 32.62C34.4078 33.7533 34.6611 34.62 35.1678 35.22C35.6745 35.82 36.3411 36.12 37.1678 36.12ZM47.8066 37.68C47.0066 37.68 46.3332 37.54 45.7866 37.26C45.2399 36.98 44.8332 36.5667 44.5666 36.02C44.2999 35.4733 44.1666 34.8067 44.1666 34.02V29.3H42.9666C42.6999 29.3 42.4932 29.2333 42.3466 29.1C42.1999 28.9533 42.1266 28.76 42.1266 28.52C42.1266 28.2667 42.1999 28.0733 42.3466 27.94C42.4932 27.8067 42.6999 27.74 42.9666 27.74H44.1666V25.68C44.1666 25.3467 44.2532 25.0933 44.4266 24.92C44.6132 24.7467 44.8666 24.66 45.1866 24.66C45.5066 24.66 45.7532 24.7467 45.9266 24.92C46.0999 25.0933 46.1866 25.3467 46.1866 25.68V27.74H48.5266C48.7932 27.74 48.9999 27.8067 49.1466 27.94C49.2932 28.0733 49.3666 28.2667 49.3666 28.52C49.3666 28.76 49.2932 28.9533 49.1466 29.1C48.9999 29.2333 48.7932 29.3 48.5266 29.3H46.1866V33.86C46.1866 34.5667 46.3332 35.1 46.6266 35.46C46.9332 35.82 47.4266 36 48.1066 36C48.3466 36 48.5532 35.98 48.7266 35.94C48.9132 35.8867 49.0666 35.8533 49.1866 35.84C49.3332 35.84 49.4532 35.8933 49.5466 36C49.6399 36.0933 49.6866 36.28 49.6866 36.56C49.6866 36.76 49.6466 36.9467 49.5666 37.12C49.4999 37.2933 49.3732 37.4067 49.1866 37.46C49.0266 37.5133 48.8066 37.56 48.5266 37.6C48.2599 37.6533 48.0199 37.68 47.8066 37.68ZM51.627 37.62C51.307 37.62 51.0604 37.5267 50.887 37.34C50.7137 37.14 50.627 36.8667 50.627 36.52V28.72C50.627 28.3733 50.7137 28.1067 50.887 27.92C51.0604 27.7333 51.307 27.64 51.627 27.64C51.947 27.64 52.1937 27.7333 52.367 27.92C52.5537 28.1067 52.647 28.3733 52.647 28.72V36.52C52.647 36.8667 52.5604 37.14 52.387 37.34C52.2137 37.5267 51.9604 37.62 51.627 37.62ZM51.627 25.56C51.227 25.56 50.9137 25.46 50.687 25.26C50.4737 25.06 50.367 24.78 50.367 24.42C50.367 24.0467 50.4737 23.7667 50.687 23.58C50.9137 23.38 51.227 23.28 51.627 23.28C52.027 23.28 52.3337 23.38 52.547 23.58C52.7737 23.7667 52.887 24.0467 52.887 24.42C52.887 24.78 52.7737 25.06 52.547 25.26C52.3337 25.46 52.027 25.56 51.627 25.56ZM59.2303 37.68C58.2436 37.68 57.3903 37.4733 56.6703 37.06C55.9636 36.6467 55.4103 36.06 55.0103 35.3C54.6103 34.54 54.4103 33.6467 54.4103 32.62C54.4103 31.8333 54.5236 31.1333 54.7503 30.52C54.977 29.9067 55.297 29.38 55.7103 28.94C56.137 28.4867 56.6436 28.1467 57.2303 27.92C57.8303 27.68 58.497 27.56 59.2303 27.56C60.2036 27.56 61.0436 27.7667 61.7503 28.18C62.4703 28.5933 63.0303 29.18 63.4303 29.94C63.8303 30.6867 64.0303 31.58 64.0303 32.62C64.0303 33.3933 63.917 34.0933 63.6903 34.72C63.4636 35.3467 63.137 35.88 62.7103 36.32C62.297 36.76 61.7903 37.1 61.1903 37.34C60.6036 37.5667 59.9503 37.68 59.2303 37.68ZM59.2303 36.12C59.777 36.12 60.257 35.9867 60.6703 35.72C61.0836 35.4533 61.4036 35.06 61.6303 34.54C61.8703 34.02 61.9903 33.38 61.9903 32.62C61.9903 31.4733 61.737 30.6067 61.2303 30.02C60.7236 29.4333 60.057 29.14 59.2303 29.14C58.6703 29.14 58.1836 29.2733 57.7703 29.54C57.357 29.7933 57.0303 30.18 56.7903 30.7C56.5636 31.22 56.4503 31.86 56.4503 32.62C56.4503 33.7533 56.7036 34.62 57.2103 35.22C57.717 35.82 58.3903 36.12 59.2303 36.12ZM66.7989 37.64C66.4789 37.64 66.2322 37.5533 66.0589 37.38C65.8856 37.1933 65.7989 36.94 65.7989 36.62V28.62C65.7989 28.2867 65.8856 28.0333 66.0589 27.86C66.2322 27.6867 66.4722 27.6 66.7789 27.6C67.0989 27.6 67.3389 27.6867 67.4989 27.86C67.6722 28.0333 67.7589 28.2867 67.7589 28.62V30.18L67.5389 29.82C67.8322 29.0733 68.2922 28.5133 68.9189 28.14C69.5456 27.7533 70.2656 27.56 71.0789 27.56C71.8522 27.56 72.4922 27.7067 72.9989 28C73.5189 28.28 73.9056 28.7133 74.1589 29.3C74.4122 29.8733 74.5389 30.6 74.5389 31.48V36.62C74.5389 36.94 74.4522 37.1933 74.2789 37.38C74.1056 37.5533 73.8589 37.64 73.5389 37.64C73.2056 37.64 72.9522 37.5533 72.7789 37.38C72.6056 37.1933 72.5189 36.94 72.5189 36.62V31.6C72.5189 30.76 72.3522 30.1467 72.0189 29.76C71.6989 29.3733 71.1922 29.18 70.4989 29.18C69.6856 29.18 69.0322 29.4333 68.5389 29.94C68.0589 30.4467 67.8189 31.1267 67.8189 31.98V36.62C67.8189 37.3 67.4789 37.64 66.7989 37.64Z" fill="#201F1F"/>
<path d="M0 61H579.5" stroke="#CDCCCB"/>
<rect width="579.5" height="49" transform="translate(0 61.5)" fill="white"/>
<path d="M24.0938 89.4609V91.5H16.3984C16.4818 90.7292 16.7318 90 17.1484 89.3125C17.5651 88.6198 18.388 87.7031 19.6172 86.5625C20.6068 85.6406 21.2135 85.0156 21.4375 84.6875C21.7396 84.2344 21.8906 83.7865 21.8906 83.3438C21.8906 82.8542 21.7578 82.4792 21.4922 82.2188C21.2318 81.9531 20.8698 81.8203 20.4062 81.8203C19.9479 81.8203 19.5833 81.9583 19.3125 82.2344C19.0417 82.5104 18.8854 82.9688 18.8438 83.6094L16.6562 83.3906C16.7865 82.1823 17.1953 81.3151 17.8828 80.7891C18.5703 80.263 19.4297 80 20.4609 80C21.5911 80 22.4792 80.3047 23.125 80.9141C23.7708 81.5234 24.0938 82.2812 24.0938 83.1875C24.0938 83.7031 24 84.1953 23.8125 84.6641C23.6302 85.1276 23.3385 85.6146 22.9375 86.125C22.6719 86.4635 22.1927 86.9505 21.5 87.5859C20.8073 88.2214 20.3672 88.6432 20.1797 88.8516C19.9974 89.0599 19.849 89.263 19.7344 89.4609H24.0938Z" fill="#3E3E3D"/>
<g opacity="0.5">
<path d="M0 110H579.5" stroke="#CDCCCB"/>
</g>
<rect width="579.5" height="48" transform="translate(0 110.5)" fill="white"/>
<path d="M16.6016 137.461L18.7266 137.203C18.7943 137.745 18.9766 138.159 19.2734 138.445C19.5703 138.732 19.9297 138.875 20.3516 138.875C20.8047 138.875 21.1849 138.703 21.4922 138.359C21.8047 138.016 21.9609 137.552 21.9609 136.969C21.9609 136.417 21.8125 135.979 21.5156 135.656C21.2188 135.333 20.8568 135.172 20.4297 135.172C20.1484 135.172 19.8125 135.227 19.4219 135.336L19.6641 133.547C20.2578 133.562 20.7109 133.435 21.0234 133.164C21.3359 132.888 21.4922 132.523 21.4922 132.07C21.4922 131.685 21.3776 131.378 21.1484 131.148C20.9193 130.919 20.6146 130.805 20.2344 130.805C19.8594 130.805 19.5391 130.935 19.2734 131.195C19.0078 131.456 18.8464 131.836 18.7891 132.336L16.7656 131.992C16.9062 131.299 17.1172 130.747 17.3984 130.336C17.6849 129.919 18.0807 129.594 18.5859 129.359C19.0964 129.12 19.6667 129 20.2969 129C21.375 129 22.2396 129.344 22.8906 130.031C23.4271 130.594 23.6953 131.229 23.6953 131.938C23.6953 132.943 23.1458 133.745 22.0469 134.344C22.7031 134.484 23.2266 134.799 23.6172 135.289C24.013 135.779 24.2109 136.37 24.2109 137.062C24.2109 138.068 23.8438 138.924 23.1094 139.633C22.375 140.341 21.4609 140.695 20.3672 140.695C19.3307 140.695 18.4714 140.398 17.7891 139.805C17.1068 139.206 16.7109 138.424 16.6016 137.461Z" fill="#3E3E3D"/>
<rect width="579.5" height="61" transform="translate(579.5)" fill="white"/>
<path d="M598.18 37.14C597.847 37.14 597.587 37.0467 597.4 36.86C597.227 36.6733 597.14 36.4133 597.14 36.08V23.96C597.14 23.6133 597.233 23.3533 597.42 23.18C597.607 22.9933 597.867 22.9 598.2 22.9H602.98C604.5 22.9 605.673 23.28 606.5 24.04C607.327 24.7867 607.74 25.84 607.74 27.2C607.74 28.5733 607.327 29.64 606.5 30.4C605.673 31.1467 604.5 31.52 602.98 31.52H599.22V36.08C599.22 36.4133 599.133 36.6733 598.96 36.86C598.787 37.0467 598.527 37.14 598.18 37.14ZM599.22 29.86H602.68C603.68 29.86 604.433 29.64 604.94 29.2C605.46 28.7467 605.72 28.08 605.72 27.2C605.72 26.3333 605.46 25.68 604.94 25.24C604.433 24.7867 603.68 24.56 602.68 24.56H599.22V29.86ZM612.595 37.18C611.809 37.18 611.149 37.0333 610.615 36.74C610.095 36.4467 609.702 36.0133 609.435 35.44C609.182 34.8533 609.055 34.12 609.055 33.24V28.12C609.055 27.7733 609.142 27.52 609.315 27.36C609.489 27.1867 609.735 27.1 610.055 27.1C610.375 27.1 610.622 27.1867 610.795 27.36C610.982 27.52 611.075 27.7733 611.075 28.12V33.26C611.075 34.0467 611.235 34.6267 611.555 35C611.875 35.3733 612.382 35.56 613.075 35.56C613.835 35.56 614.449 35.3067 614.915 34.8C615.395 34.28 615.635 33.6 615.635 32.76V28.12C615.635 27.7733 615.722 27.52 615.895 27.36C616.069 27.1867 616.322 27.1 616.655 27.1C616.975 27.1 617.222 27.1867 617.395 27.36C617.569 27.52 617.655 27.7733 617.655 28.12V36.12C617.655 36.8 617.329 37.14 616.675 37.14C616.369 37.14 616.129 37.0533 615.955 36.88C615.782 36.6933 615.695 36.44 615.695 36.12V34.42L615.955 34.86C615.689 35.6067 615.262 36.18 614.675 36.58C614.089 36.98 613.395 37.18 612.595 37.18ZM621.022 37.14C620.689 37.14 620.435 37.0533 620.262 36.88C620.089 36.6933 620.002 36.44 620.002 36.12V28.12C620.002 27.7867 620.089 27.5333 620.262 27.36C620.435 27.1867 620.675 27.1 620.982 27.1C621.302 27.1 621.542 27.1867 621.702 27.36C621.875 27.5333 621.962 27.7867 621.962 28.12V29.58H621.762C621.975 28.78 622.369 28.1733 622.942 27.76C623.515 27.3467 624.249 27.1067 625.142 27.04C625.382 27.0267 625.569 27.0867 625.702 27.22C625.849 27.3533 625.929 27.56 625.942 27.84C625.969 28.12 625.909 28.3467 625.762 28.52C625.615 28.68 625.389 28.7733 625.082 28.8L624.702 28.84C623.835 28.92 623.175 29.1933 622.722 29.66C622.269 30.1267 622.042 30.7667 622.042 31.58V36.12C622.042 36.44 621.955 36.6933 621.782 36.88C621.622 37.0533 621.369 37.14 621.022 37.14ZM627.963 40.74C627.643 40.74 627.396 40.6533 627.223 40.48C627.05 40.3067 626.963 40.0533 626.963 39.72V28.12C626.963 27.7867 627.05 27.5333 627.223 27.36C627.396 27.1867 627.636 27.1 627.943 27.1C628.263 27.1 628.51 27.1867 628.683 27.36C628.856 27.5333 628.943 27.7867 628.943 28.12V29.86L628.723 29.44C628.936 28.72 629.356 28.1467 629.983 27.72C630.61 27.28 631.35 27.06 632.203 27.06C633.07 27.06 633.823 27.2667 634.463 27.68C635.116 28.0933 635.616 28.6733 635.963 29.42C636.323 30.1667 636.503 31.0667 636.503 32.12C636.503 33.1467 636.323 34.0467 635.963 34.82C635.616 35.58 635.123 36.1667 634.483 36.58C633.843 36.98 633.083 37.18 632.203 37.18C631.363 37.18 630.63 36.9667 630.003 36.54C629.376 36.1133 628.956 35.5467 628.743 34.84H628.983V39.72C628.983 40.0533 628.89 40.3067 628.703 40.48C628.53 40.6533 628.283 40.74 627.963 40.74ZM631.703 35.62C632.263 35.62 632.75 35.4867 633.163 35.22C633.576 34.9533 633.896 34.56 634.123 34.04C634.35 33.52 634.463 32.88 634.463 32.12C634.463 30.9733 634.21 30.1067 633.703 29.52C633.21 28.9333 632.543 28.64 631.703 28.64C631.156 28.64 630.67 28.7733 630.243 29.04C629.83 29.2933 629.51 29.68 629.283 30.2C629.056 30.72 628.943 31.36 628.943 32.12C628.943 33.2533 629.196 34.12 629.703 34.72C630.21 35.32 630.876 35.62 631.703 35.62ZM642.519 37.18C641.533 37.18 640.679 36.9733 639.959 36.56C639.253 36.1467 638.699 35.56 638.299 34.8C637.899 34.04 637.699 33.1467 637.699 32.12C637.699 31.3333 637.813 30.6333 638.039 30.02C638.266 29.4067 638.586 28.88 638.999 28.44C639.426 27.9867 639.933 27.6467 640.519 27.42C641.119 27.18 641.786 27.06 642.519 27.06C643.493 27.06 644.333 27.2667 645.039 27.68C645.759 28.0933 646.319 28.68 646.719 29.44C647.119 30.1867 647.319 31.08 647.319 32.12C647.319 32.8933 647.206 33.5933 646.979 34.22C646.753 34.8467 646.426 35.38 645.999 35.82C645.586 36.26 645.079 36.6 644.479 36.84C643.893 37.0667 643.239 37.18 642.519 37.18ZM642.519 35.62C643.066 35.62 643.546 35.4867 643.959 35.22C644.373 34.9533 644.693 34.56 644.919 34.04C645.159 33.52 645.279 32.88 645.279 32.12C645.279 30.9733 645.026 30.1067 644.519 29.52C644.013 28.9333 643.346 28.64 642.519 28.64C641.959 28.64 641.473 28.7733 641.059 29.04C640.646 29.2933 640.319 29.68 640.079 30.2C639.853 30.72 639.739 31.36 639.739 32.12C639.739 33.2533 639.993 34.12 640.499 34.72C641.006 35.32 641.679 35.62 642.519 35.62ZM652.508 37.18C651.921 37.18 651.315 37.1133 650.688 36.98C650.075 36.8467 649.508 36.62 648.988 36.3C648.815 36.18 648.695 36.0467 648.628 35.9C648.561 35.7533 648.535 35.6067 648.548 35.46C648.575 35.3 648.635 35.1667 648.728 35.06C648.835 34.94 648.961 34.8667 649.108 34.84C649.268 34.8133 649.435 34.8467 649.608 34.94C650.128 35.2333 650.628 35.44 651.108 35.56C651.588 35.6667 652.061 35.72 652.528 35.72C653.235 35.72 653.768 35.5933 654.128 35.34C654.488 35.0867 654.668 34.7467 654.668 34.32C654.668 33.9733 654.548 33.7067 654.308 33.52C654.068 33.32 653.708 33.1667 653.228 33.06L651.328 32.68C650.501 32.5067 649.875 32.2 649.448 31.76C649.021 31.32 648.808 30.76 648.808 30.08C648.808 29.4667 648.975 28.9333 649.308 28.48C649.641 28.0267 650.108 27.68 650.708 27.44C651.308 27.1867 652.001 27.06 652.788 27.06C653.375 27.06 653.928 27.1333 654.448 27.28C654.968 27.4267 655.448 27.6467 655.888 27.94C656.061 28.0333 656.175 28.16 656.228 28.32C656.281 28.4667 656.288 28.6133 656.248 28.76C656.221 28.9067 656.155 29.04 656.048 29.16C655.941 29.2667 655.808 29.3333 655.648 29.36C655.501 29.3733 655.335 29.3333 655.148 29.24C654.748 28.9867 654.348 28.8067 653.948 28.7C653.561 28.5933 653.175 28.54 652.788 28.54C652.081 28.54 651.548 28.6733 651.188 28.94C650.841 29.1933 650.668 29.54 650.668 29.98C650.668 30.3133 650.775 30.5867 650.988 30.8C651.201 31.0133 651.535 31.1667 651.988 31.26L653.888 31.64C654.755 31.8133 655.408 32.1067 655.848 32.52C656.301 32.9333 656.528 33.4933 656.528 34.2C656.528 35.12 656.161 35.8467 655.428 36.38C654.695 36.9133 653.721 37.18 652.508 37.18ZM662.855 37.18C661.789 37.18 660.869 36.98 660.095 36.58C659.335 36.1667 658.742 35.5867 658.315 34.84C657.902 34.08 657.695 33.18 657.695 32.14C657.695 31.1267 657.902 30.24 658.315 29.48C658.729 28.72 659.295 28.1267 660.015 27.7C660.735 27.2733 661.555 27.06 662.475 27.06C663.155 27.06 663.762 27.1733 664.295 27.4C664.829 27.6133 665.282 27.9333 665.655 28.36C666.042 28.7733 666.329 29.28 666.515 29.88C666.715 30.48 666.815 31.1533 666.815 31.9C666.815 32.1267 666.749 32.3 666.615 32.42C666.482 32.5267 666.282 32.58 666.015 32.58H659.295V31.34H665.455L665.115 31.62C665.115 30.9533 665.015 30.3867 664.815 29.92C664.629 29.4533 664.342 29.1 663.955 28.86C663.582 28.6067 663.115 28.48 662.555 28.48C661.929 28.48 661.395 28.6267 660.955 28.92C660.529 29.2133 660.202 29.62 659.975 30.14C659.749 30.66 659.635 31.2667 659.635 31.96V32.08C659.635 33.2533 659.909 34.14 660.455 34.74C661.015 35.3267 661.822 35.62 662.875 35.62C663.275 35.62 663.695 35.5667 664.135 35.46C664.589 35.3533 665.015 35.1733 665.415 34.92C665.642 34.7867 665.842 34.7267 666.015 34.74C666.202 34.7533 666.349 34.8133 666.455 34.92C666.575 35.0267 666.649 35.16 666.675 35.32C666.702 35.48 666.675 35.6467 666.595 35.82C666.515 35.98 666.375 36.1267 666.175 36.26C665.722 36.5667 665.195 36.8 664.595 36.96C663.995 37.1067 663.415 37.18 662.855 37.18Z" fill="#201F1F"/>
<path d="M579.5 60.5H1159" stroke="#CDCCCB"/>
<rect width="579.5" height="49" transform="translate(579.5 61)" fill="white"/>
<path d="M595.477 91L599.875 79.5469H601.508L606.195 91H604.469L603.133 87.5312H598.344L597.086 91H595.477ZM598.781 86.2969H602.664L601.469 83.125C601.104 82.1615 600.833 81.3698 600.656 80.75C600.51 81.4844 600.305 82.2135 600.039 82.9375L598.781 86.2969ZM607.562 91V83.7969H606.32V82.7031H607.562V81.8203C607.562 81.263 607.612 80.849 607.711 80.5781C607.846 80.2135 608.083 79.9193 608.422 79.6953C608.766 79.4661 609.245 79.3516 609.859 79.3516C610.255 79.3516 610.693 79.3984 611.172 79.4922L610.961 80.7188C610.669 80.6667 610.393 80.6406 610.133 80.6406C609.706 80.6406 609.404 80.7318 609.227 80.9141C609.049 81.0964 608.961 81.4375 608.961 81.9375V82.7031H610.578V83.7969H608.961V91H607.562ZM611.719 91V83.7969H610.477V82.7031H611.719V81.8203C611.719 81.263 611.768 80.849 611.867 80.5781C612.003 80.2135 612.24 79.9193 612.578 79.6953C612.922 79.4661 613.401 79.3516 614.016 79.3516C614.411 79.3516 614.849 79.3984 615.328 79.4922L615.117 80.7188C614.826 80.6667 614.549 80.6406 614.289 80.6406C613.862 80.6406 613.56 80.7318 613.383 80.9141C613.206 81.0964 613.117 81.4375 613.117 81.9375V82.7031H614.734V83.7969H613.117V91H611.719ZM615.844 81.1641V79.5469H617.25V81.1641H615.844ZM615.844 91V82.7031H617.25V91H615.844ZM624.812 87.9609L626.195 88.1406C626.044 89.0938 625.656 89.8411 625.031 90.3828C624.411 90.9193 623.648 91.1875 622.742 91.1875C621.607 91.1875 620.693 90.8177 620 90.0781C619.312 89.3333 618.969 88.2682 618.969 86.8828C618.969 85.987 619.117 85.2031 619.414 84.5312C619.711 83.8594 620.161 83.3568 620.766 83.0234C621.375 82.6849 622.036 82.5156 622.75 82.5156C623.651 82.5156 624.388 82.7448 624.961 83.2031C625.534 83.6562 625.901 84.3021 626.062 85.1406L624.695 85.3516C624.565 84.7943 624.333 84.375 624 84.0938C623.672 83.8125 623.273 83.6719 622.805 83.6719C622.096 83.6719 621.521 83.9271 621.078 84.4375C620.635 84.9427 620.414 85.7448 620.414 86.8438C620.414 87.9583 620.628 88.7682 621.055 89.2734C621.482 89.7786 622.039 90.0312 622.727 90.0312C623.279 90.0312 623.74 89.862 624.109 89.5234C624.479 89.1849 624.714 88.6641 624.812 87.9609ZM627.398 91V79.5469H628.805V83.6562C629.461 82.8958 630.289 82.5156 631.289 82.5156C631.904 82.5156 632.438 82.638 632.891 82.8828C633.344 83.1224 633.667 83.4557 633.859 83.8828C634.057 84.3099 634.156 84.9297 634.156 85.7422V91H632.75V85.7422C632.75 85.0391 632.596 84.5286 632.289 84.2109C631.987 83.888 631.557 83.7266 631 83.7266C630.583 83.7266 630.19 83.8359 629.82 84.0547C629.456 84.2682 629.195 84.5599 629.039 84.9297C628.883 85.2995 628.805 85.8099 628.805 86.4609V91H627.398ZM641.984 88.3281L643.438 88.5078C643.208 89.3568 642.784 90.0156 642.164 90.4844C641.544 90.9531 640.753 91.1875 639.789 91.1875C638.576 91.1875 637.612 90.8151 636.898 90.0703C636.19 89.3203 635.836 88.2708 635.836 86.9219C635.836 85.526 636.195 84.4427 636.914 83.6719C637.633 82.901 638.565 82.5156 639.711 82.5156C640.82 82.5156 641.727 82.8932 642.43 83.6484C643.133 84.4036 643.484 85.4661 643.484 86.8359C643.484 86.9193 643.482 87.0443 643.477 87.2109H637.289C637.341 88.1224 637.599 88.8203 638.062 89.3047C638.526 89.7891 639.104 90.0312 639.797 90.0312C640.312 90.0312 640.753 89.8958 641.117 89.625C641.482 89.3542 641.771 88.9219 641.984 88.3281ZM637.367 86.0547H642C641.938 85.3568 641.76 84.8333 641.469 84.4844C641.021 83.9427 640.44 83.6719 639.727 83.6719C639.081 83.6719 638.536 83.888 638.094 84.3203C637.656 84.7526 637.414 85.3307 637.367 86.0547ZM655.102 91V89.7812C654.456 90.7188 653.578 91.1875 652.469 91.1875C651.979 91.1875 651.521 91.0938 651.094 90.9062C650.672 90.7188 650.357 90.4844 650.148 90.2031C649.945 89.9167 649.802 89.5677 649.719 89.1562C649.661 88.8802 649.633 88.4427 649.633 87.8438V82.7031H651.039V87.3047C651.039 88.0391 651.068 88.5339 651.125 88.7891C651.214 89.1589 651.401 89.4505 651.688 89.6641C651.974 89.8724 652.328 89.9766 652.75 89.9766C653.172 89.9766 653.568 89.8698 653.938 89.6562C654.307 89.4375 654.568 89.1432 654.719 88.7734C654.875 88.3984 654.953 87.8568 654.953 87.1484V82.7031H656.359V91H655.102ZM658.57 91V82.7031H659.836V83.8828C660.445 82.9714 661.326 82.5156 662.477 82.5156C662.977 82.5156 663.435 82.6068 663.852 82.7891C664.273 82.9661 664.589 83.2005 664.797 83.4922C665.005 83.7839 665.151 84.1302 665.234 84.5312C665.286 84.7917 665.312 85.2474 665.312 85.8984V91H663.906V85.9531C663.906 85.3802 663.852 84.9531 663.742 84.6719C663.633 84.3854 663.438 84.1589 663.156 83.9922C662.88 83.8203 662.555 83.7344 662.18 83.7344C661.581 83.7344 661.062 83.9245 660.625 84.3047C660.193 84.6849 659.977 85.4062 659.977 86.4688V91H658.57ZM671.367 88.5234L672.758 88.3047C672.836 88.862 673.052 89.2891 673.406 89.5859C673.766 89.8828 674.266 90.0312 674.906 90.0312C675.552 90.0312 676.031 89.901 676.344 89.6406C676.656 89.375 676.812 89.0651 676.812 88.7109C676.812 88.3932 676.674 88.1432 676.398 87.9609C676.206 87.8359 675.727 87.6771 674.961 87.4844C673.93 87.224 673.214 87 672.812 86.8125C672.417 86.6198 672.115 86.3568 671.906 86.0234C671.703 85.6849 671.602 85.3125 671.602 84.9062C671.602 84.5365 671.685 84.1953 671.852 83.8828C672.023 83.5651 672.255 83.3021 672.547 83.0938C672.766 82.9323 673.062 82.7969 673.438 82.6875C673.818 82.5729 674.224 82.5156 674.656 82.5156C675.307 82.5156 675.878 82.6094 676.367 82.7969C676.862 82.9844 677.227 83.2396 677.461 83.5625C677.695 83.8802 677.857 84.3073 677.945 84.8438L676.57 85.0312C676.508 84.6042 676.326 84.2708 676.023 84.0312C675.727 83.7917 675.305 83.6719 674.758 83.6719C674.112 83.6719 673.651 83.7786 673.375 83.9922C673.099 84.2057 672.961 84.4557 672.961 84.7422C672.961 84.9245 673.018 85.0885 673.133 85.2344C673.247 85.3854 673.427 85.5104 673.672 85.6094C673.812 85.6615 674.227 85.7812 674.914 85.9688C675.909 86.2344 676.602 86.4531 676.992 86.625C677.388 86.7917 677.698 87.0365 677.922 87.3594C678.146 87.6823 678.258 88.0833 678.258 88.5625C678.258 89.0312 678.12 89.474 677.844 89.8906C677.573 90.3021 677.18 90.6224 676.664 90.8516C676.148 91.0755 675.565 91.1875 674.914 91.1875C673.836 91.1875 673.013 90.9635 672.445 90.5156C671.883 90.0677 671.523 89.4036 671.367 88.5234ZM685.609 88.3281L687.062 88.5078C686.833 89.3568 686.409 90.0156 685.789 90.4844C685.169 90.9531 684.378 91.1875 683.414 91.1875C682.201 91.1875 681.237 90.8151 680.523 90.0703C679.815 89.3203 679.461 88.2708 679.461 86.9219C679.461 85.526 679.82 84.4427 680.539 83.6719C681.258 82.901 682.19 82.5156 683.336 82.5156C684.445 82.5156 685.352 82.8932 686.055 83.6484C686.758 84.4036 687.109 85.4661 687.109 86.8359C687.109 86.9193 687.107 87.0443 687.102 87.2109H680.914C680.966 88.1224 681.224 88.8203 681.688 89.3047C682.151 89.7891 682.729 90.0312 683.422 90.0312C683.938 90.0312 684.378 89.8958 684.742 89.625C685.107 89.3542 685.396 88.9219 685.609 88.3281ZM680.992 86.0547H685.625C685.562 85.3568 685.385 84.8333 685.094 84.4844C684.646 83.9427 684.065 83.6719 683.352 83.6719C682.706 83.6719 682.161 83.888 681.719 84.3203C681.281 84.7526 681.039 85.3307 680.992 86.0547ZM688.578 91.6875L689.945 91.8906C690.003 92.3125 690.161 92.6198 690.422 92.8125C690.771 93.0729 691.247 93.2031 691.852 93.2031C692.503 93.2031 693.005 93.0729 693.359 92.8125C693.714 92.5521 693.953 92.1875 694.078 91.7188C694.151 91.4323 694.185 90.8307 694.18 89.9141C693.565 90.638 692.799 91 691.883 91C690.742 91 689.859 90.5885 689.234 89.7656C688.609 88.9427 688.297 87.9557 688.297 86.8047C688.297 86.013 688.44 85.2839 688.727 84.6172C689.013 83.9453 689.427 83.4271 689.969 83.0625C690.516 82.6979 691.156 82.5156 691.891 82.5156C692.87 82.5156 693.677 82.9115 694.312 83.7031V82.7031H695.609V89.875C695.609 91.1667 695.477 92.0807 695.211 92.6172C694.951 93.1589 694.534 93.5859 693.961 93.8984C693.393 94.2109 692.693 94.3672 691.859 94.3672C690.87 94.3672 690.07 94.1432 689.461 93.6953C688.852 93.2526 688.557 92.5833 688.578 91.6875ZM689.742 86.7031C689.742 87.7917 689.958 88.5859 690.391 89.0859C690.823 89.5859 691.365 89.8359 692.016 89.8359C692.661 89.8359 693.203 89.5885 693.641 89.0938C694.078 88.5938 694.297 87.8125 694.297 86.75C694.297 85.7344 694.07 84.9688 693.617 84.4531C693.169 83.9375 692.628 83.6797 691.992 83.6797C691.367 83.6797 690.836 83.9349 690.398 84.4453C689.961 84.9505 689.742 85.7031 689.742 86.7031ZM697.742 91V82.7031H699V83.8672C699.26 83.4609 699.607 83.1354 700.039 82.8906C700.471 82.6406 700.964 82.5156 701.516 82.5156C702.13 82.5156 702.633 82.6432 703.023 82.8984C703.419 83.1536 703.698 83.5104 703.859 83.9688C704.516 83 705.37 82.5156 706.422 82.5156C707.245 82.5156 707.878 82.7448 708.32 83.2031C708.763 83.6562 708.984 84.3568 708.984 85.3047V91H707.586V85.7734C707.586 85.2109 707.539 84.8073 707.445 84.5625C707.357 84.3125 707.193 84.112 706.953 83.9609C706.714 83.8099 706.432 83.7344 706.109 83.7344C705.526 83.7344 705.042 83.9297 704.656 84.3203C704.271 84.7057 704.078 85.3255 704.078 86.1797V91H702.672V85.6094C702.672 84.9844 702.557 84.5156 702.328 84.2031C702.099 83.8906 701.724 83.7344 701.203 83.7344C700.807 83.7344 700.44 83.8385 700.102 84.0469C699.768 84.2552 699.526 84.5599 699.375 84.9609C699.224 85.362 699.148 85.9401 699.148 86.6953V91H697.742ZM716.75 88.3281L718.203 88.5078C717.974 89.3568 717.549 90.0156 716.93 90.4844C716.31 90.9531 715.518 91.1875 714.555 91.1875C713.341 91.1875 712.378 90.8151 711.664 90.0703C710.956 89.3203 710.602 88.2708 710.602 86.9219C710.602 85.526 710.961 84.4427 711.68 83.6719C712.398 82.901 713.331 82.5156 714.477 82.5156C715.586 82.5156 716.492 82.8932 717.195 83.6484C717.898 84.4036 718.25 85.4661 718.25 86.8359C718.25 86.9193 718.247 87.0443 718.242 87.2109H712.055C712.107 88.1224 712.365 88.8203 712.828 89.3047C713.292 89.7891 713.87 90.0312 714.562 90.0312C715.078 90.0312 715.518 89.8958 715.883 89.625C716.247 89.3542 716.536 88.9219 716.75 88.3281ZM712.133 86.0547H716.766C716.703 85.3568 716.526 84.8333 716.234 84.4844C715.786 83.9427 715.206 83.6719 714.492 83.6719C713.846 83.6719 713.302 83.888 712.859 84.3203C712.422 84.7526 712.18 85.3307 712.133 86.0547ZM719.977 91V82.7031H721.242V83.8828C721.852 82.9714 722.732 82.5156 723.883 82.5156C724.383 82.5156 724.841 82.6068 725.258 82.7891C725.68 82.9661 725.995 83.2005 726.203 83.4922C726.411 83.7839 726.557 84.1302 726.641 84.5312C726.693 84.7917 726.719 85.2474 726.719 85.8984V91H725.312V85.9531C725.312 85.3802 725.258 84.9531 725.148 84.6719C725.039 84.3854 724.844 84.1589 724.562 83.9922C724.286 83.8203 723.961 83.7344 723.586 83.7344C722.987 83.7344 722.469 83.9245 722.031 84.3047C721.599 84.6849 721.383 85.4062 721.383 86.4688V91H719.977ZM731.953 89.7422L732.156 90.9844C731.76 91.0677 731.406 91.1094 731.094 91.1094C730.583 91.1094 730.188 91.0286 729.906 90.8672C729.625 90.7057 729.427 90.4948 729.312 90.2344C729.198 89.9688 729.141 89.4141 729.141 88.5703V83.7969H728.109V82.7031H729.141V80.6484L730.539 79.8047V82.7031H731.953V83.7969H730.539V88.6484C730.539 89.0495 730.562 89.3073 730.609 89.4219C730.661 89.5365 730.742 89.6276 730.852 89.6953C730.966 89.763 731.128 89.7969 731.336 89.7969C731.492 89.7969 731.698 89.7786 731.953 89.7422ZM739.016 88.3281L740.469 88.5078C740.24 89.3568 739.815 90.0156 739.195 90.4844C738.576 90.9531 737.784 91.1875 736.82 91.1875C735.607 91.1875 734.643 90.8151 733.93 90.0703C733.221 89.3203 732.867 88.2708 732.867 86.9219C732.867 85.526 733.227 84.4427 733.945 83.6719C734.664 82.901 735.596 82.5156 736.742 82.5156C737.852 82.5156 738.758 82.8932 739.461 83.6484C740.164 84.4036 740.516 85.4661 740.516 86.8359C740.516 86.9193 740.513 87.0443 740.508 87.2109H734.32C734.372 88.1224 734.63 88.8203 735.094 89.3047C735.557 89.7891 736.135 90.0312 736.828 90.0312C737.344 90.0312 737.784 89.8958 738.148 89.625C738.513 89.3542 738.802 88.9219 739.016 88.3281ZM734.398 86.0547H739.031C738.969 85.3568 738.792 84.8333 738.5 84.4844C738.052 83.9427 737.471 83.6719 736.758 83.6719C736.112 83.6719 735.568 83.888 735.125 84.3203C734.688 84.7526 734.445 85.3307 734.398 86.0547ZM747.625 91V89.9531C747.099 90.776 746.326 91.1875 745.305 91.1875C744.643 91.1875 744.034 91.0052 743.477 90.6406C742.924 90.276 742.495 89.7682 742.188 89.1172C741.885 88.4609 741.734 87.7083 741.734 86.8594C741.734 86.0312 741.872 85.2812 742.148 84.6094C742.424 83.9323 742.839 83.4141 743.391 83.0547C743.943 82.6953 744.56 82.5156 745.242 82.5156C745.742 82.5156 746.188 82.6224 746.578 82.8359C746.969 83.0443 747.286 83.3177 747.531 83.6562V79.5469H748.93V91H747.625ZM743.18 86.8594C743.18 87.9219 743.404 88.7161 743.852 89.2422C744.299 89.7682 744.828 90.0312 745.438 90.0312C746.052 90.0312 746.573 89.7812 747 89.2812C747.432 88.776 747.648 88.0078 747.648 86.9766C747.648 85.8411 747.43 85.0078 746.992 84.4766C746.555 83.9453 746.016 83.6797 745.375 83.6797C744.75 83.6797 744.227 83.9349 743.805 84.4453C743.388 84.9557 743.18 85.7604 743.18 86.8594ZM761.016 87.9609L762.398 88.1406C762.247 89.0938 761.859 89.8411 761.234 90.3828C760.615 90.9193 759.852 91.1875 758.945 91.1875C757.81 91.1875 756.896 90.8177 756.203 90.0781C755.516 89.3333 755.172 88.2682 755.172 86.8828C755.172 85.987 755.32 85.2031 755.617 84.5312C755.914 83.8594 756.365 83.3568 756.969 83.0234C757.578 82.6849 758.24 82.5156 758.953 82.5156C759.854 82.5156 760.591 82.7448 761.164 83.2031C761.737 83.6562 762.104 84.3021 762.266 85.1406L760.898 85.3516C760.768 84.7943 760.536 84.375 760.203 84.0938C759.875 83.8125 759.477 83.6719 759.008 83.6719C758.299 83.6719 757.724 83.9271 757.281 84.4375C756.839 84.9427 756.617 85.7448 756.617 86.8438C756.617 87.9583 756.831 88.7682 757.258 89.2734C757.685 89.7786 758.242 90.0312 758.93 90.0312C759.482 90.0312 759.943 89.862 760.312 89.5234C760.682 89.1849 760.917 88.6641 761.016 87.9609ZM763.078 86.8516C763.078 85.3151 763.505 84.1771 764.359 83.4375C765.073 82.8229 765.943 82.5156 766.969 82.5156C768.109 82.5156 769.042 82.8906 769.766 83.6406C770.49 84.3854 770.852 85.4167 770.852 86.7344C770.852 87.8021 770.69 88.6432 770.367 89.2578C770.049 89.8672 769.583 90.3411 768.969 90.6797C768.359 91.0182 767.693 91.1875 766.969 91.1875C765.807 91.1875 764.867 90.8151 764.148 90.0703C763.435 89.3255 763.078 88.2526 763.078 86.8516ZM764.523 86.8516C764.523 87.9141 764.755 88.7109 765.219 89.2422C765.682 89.7682 766.266 90.0312 766.969 90.0312C767.667 90.0312 768.247 89.7656 768.711 89.2344C769.174 88.7031 769.406 87.8932 769.406 86.8047C769.406 85.7786 769.172 85.0026 768.703 84.4766C768.24 83.9453 767.661 83.6797 766.969 83.6797C766.266 83.6797 765.682 83.9427 765.219 84.4688C764.755 84.9948 764.523 85.7891 764.523 86.8516ZM772.508 91V82.7031H773.773V83.8828C774.383 82.9714 775.263 82.5156 776.414 82.5156C776.914 82.5156 777.372 82.6068 777.789 82.7891C778.211 82.9661 778.526 83.2005 778.734 83.4922C778.943 83.7839 779.089 84.1302 779.172 84.5312C779.224 84.7917 779.25 85.2474 779.25 85.8984V91H777.844V85.9531C777.844 85.3802 777.789 84.9531 777.68 84.6719C777.57 84.3854 777.375 84.1589 777.094 83.9922C776.818 83.8203 776.492 83.7344 776.117 83.7344C775.518 83.7344 775 83.9245 774.562 84.3047C774.13 84.6849 773.914 85.4062 773.914 86.4688V91H772.508ZM784.484 89.7422L784.688 90.9844C784.292 91.0677 783.938 91.1094 783.625 91.1094C783.115 91.1094 782.719 91.0286 782.438 90.8672C782.156 90.7057 781.958 90.4948 781.844 90.2344C781.729 89.9688 781.672 89.4141 781.672 88.5703V83.7969H780.641V82.7031H781.672V80.6484L783.07 79.8047V82.7031H784.484V83.7969H783.07V88.6484C783.07 89.0495 783.094 89.3073 783.141 89.4219C783.193 89.5365 783.273 89.6276 783.383 89.6953C783.497 89.763 783.659 89.7969 783.867 89.7969C784.023 89.7969 784.229 89.7786 784.484 89.7422ZM785.852 91V82.7031H787.117V83.9609C787.44 83.3724 787.737 82.9844 788.008 82.7969C788.284 82.6094 788.586 82.5156 788.914 82.5156C789.388 82.5156 789.87 82.6667 790.359 82.9688L789.875 84.2734C789.531 84.0703 789.188 83.9688 788.844 83.9688C788.536 83.9688 788.26 84.0625 788.016 84.25C787.771 84.4323 787.596 84.6875 787.492 85.0156C787.336 85.5156 787.258 86.0625 787.258 86.6562V91H785.852ZM790.672 86.8516C790.672 85.3151 791.099 84.1771 791.953 83.4375C792.667 82.8229 793.536 82.5156 794.562 82.5156C795.703 82.5156 796.635 82.8906 797.359 83.6406C798.083 84.3854 798.445 85.4167 798.445 86.7344C798.445 87.8021 798.284 88.6432 797.961 89.2578C797.643 89.8672 797.177 90.3411 796.562 90.6797C795.953 91.0182 795.286 91.1875 794.562 91.1875C793.401 91.1875 792.461 90.8151 791.742 90.0703C791.029 89.3255 790.672 88.2526 790.672 86.8516ZM792.117 86.8516C792.117 87.9141 792.349 88.7109 792.812 89.2422C793.276 89.7682 793.859 90.0312 794.562 90.0312C795.26 90.0312 795.841 89.7656 796.305 89.2344C796.768 88.7031 797 87.8932 797 86.8047C797 85.7786 796.766 85.0026 796.297 84.4766C795.833 83.9453 795.255 83.6797 794.562 83.6797C793.859 83.6797 793.276 83.9427 792.812 84.4688C792.349 84.9948 792.117 85.7891 792.117 86.8516ZM800.07 91V79.5469H801.477V91H800.07ZM813.531 87.9609L814.914 88.1406C814.763 89.0938 814.375 89.8411 813.75 90.3828C813.13 90.9193 812.367 91.1875 811.461 91.1875C810.326 91.1875 809.411 90.8177 808.719 90.0781C808.031 89.3333 807.688 88.2682 807.688 86.8828C807.688 85.987 807.836 85.2031 808.133 84.5312C808.43 83.8594 808.88 83.3568 809.484 83.0234C810.094 82.6849 810.755 82.5156 811.469 82.5156C812.37 82.5156 813.107 82.7448 813.68 83.2031C814.253 83.6562 814.62 84.3021 814.781 85.1406L813.414 85.3516C813.284 84.7943 813.052 84.375 812.719 84.0938C812.391 83.8125 811.992 83.6719 811.523 83.6719C810.815 83.6719 810.24 83.9271 809.797 84.4375C809.354 84.9427 809.133 85.7448 809.133 86.8438C809.133 87.9583 809.346 88.7682 809.773 89.2734C810.201 89.7786 810.758 90.0312 811.445 90.0312C811.997 90.0312 812.458 89.862 812.828 89.5234C813.198 89.1849 813.432 88.6641 813.531 87.9609ZM815.594 86.8516C815.594 85.3151 816.021 84.1771 816.875 83.4375C817.589 82.8229 818.458 82.5156 819.484 82.5156C820.625 82.5156 821.557 82.8906 822.281 83.6406C823.005 84.3854 823.367 85.4167 823.367 86.7344C823.367 87.8021 823.206 88.6432 822.883 89.2578C822.565 89.8672 822.099 90.3411 821.484 90.6797C820.875 91.0182 820.208 91.1875 819.484 91.1875C818.323 91.1875 817.383 90.8151 816.664 90.0703C815.951 89.3255 815.594 88.2526 815.594 86.8516ZM817.039 86.8516C817.039 87.9141 817.271 88.7109 817.734 89.2422C818.198 89.7682 818.781 90.0312 819.484 90.0312C820.182 90.0312 820.763 89.7656 821.227 89.2344C821.69 88.7031 821.922 87.8932 821.922 86.8047C821.922 85.7786 821.688 85.0026 821.219 84.4766C820.755 83.9453 820.177 83.6797 819.484 83.6797C818.781 83.6797 818.198 83.9427 817.734 84.4688C817.271 84.9948 817.039 85.7891 817.039 86.8516ZM825.023 91V82.7031H826.281V83.8672C826.542 83.4609 826.888 83.1354 827.32 82.8906C827.753 82.6406 828.245 82.5156 828.797 82.5156C829.411 82.5156 829.914 82.6432 830.305 82.8984C830.701 83.1536 830.979 83.5104 831.141 83.9688C831.797 83 832.651 82.5156 833.703 82.5156C834.526 82.5156 835.159 82.7448 835.602 83.2031C836.044 83.6562 836.266 84.3568 836.266 85.3047V91H834.867V85.7734C834.867 85.2109 834.82 84.8073 834.727 84.5625C834.638 84.3125 834.474 84.112 834.234 83.9609C833.995 83.8099 833.714 83.7344 833.391 83.7344C832.807 83.7344 832.323 83.9297 831.938 84.3203C831.552 84.7057 831.359 85.3255 831.359 86.1797V91H829.953V85.6094C829.953 84.9844 829.839 84.5156 829.609 84.2031C829.38 83.8906 829.005 83.7344 828.484 83.7344C828.089 83.7344 827.721 83.8385 827.383 84.0469C827.049 84.2552 826.807 84.5599 826.656 84.9609C826.505 85.362 826.43 85.9401 826.43 86.6953V91H825.023ZM838.352 94.1797V82.7031H839.633V83.7812C839.935 83.3594 840.276 83.0443 840.656 82.8359C841.036 82.6224 841.497 82.5156 842.039 82.5156C842.747 82.5156 843.372 82.6979 843.914 83.0625C844.456 83.4271 844.865 83.9427 845.141 84.6094C845.417 85.2708 845.555 85.9974 845.555 86.7891C845.555 87.638 845.401 88.4036 845.094 89.0859C844.792 89.763 844.349 90.2839 843.766 90.6484C843.188 91.0078 842.578 91.1875 841.938 91.1875C841.469 91.1875 841.047 91.0885 840.672 90.8906C840.302 90.6927 839.997 90.4427 839.758 90.1406V94.1797H838.352ZM839.625 86.8984C839.625 87.9661 839.841 88.7552 840.273 89.2656C840.706 89.776 841.229 90.0312 841.844 90.0312C842.469 90.0312 843.003 89.7682 843.445 89.2422C843.893 88.7109 844.117 87.8906 844.117 86.7812C844.117 85.724 843.898 84.9323 843.461 84.4062C843.029 83.8802 842.51 83.6172 841.906 83.6172C841.307 83.6172 840.776 83.8984 840.312 84.4609C839.854 85.0182 839.625 85.8307 839.625 86.8984ZM846.734 86.8516C846.734 85.3151 847.161 84.1771 848.016 83.4375C848.729 82.8229 849.599 82.5156 850.625 82.5156C851.766 82.5156 852.698 82.8906 853.422 83.6406C854.146 84.3854 854.508 85.4167 854.508 86.7344C854.508 87.8021 854.346 88.6432 854.023 89.2578C853.706 89.8672 853.24 90.3411 852.625 90.6797C852.016 91.0182 851.349 91.1875 850.625 91.1875C849.464 91.1875 848.523 90.8151 847.805 90.0703C847.091 89.3255 846.734 88.2526 846.734 86.8516ZM848.18 86.8516C848.18 87.9141 848.411 88.7109 848.875 89.2422C849.339 89.7682 849.922 90.0312 850.625 90.0312C851.323 90.0312 851.904 89.7656 852.367 89.2344C852.831 88.7031 853.062 87.8932 853.062 86.8047C853.062 85.7786 852.828 85.0026 852.359 84.4766C851.896 83.9453 851.318 83.6797 850.625 83.6797C849.922 83.6797 849.339 83.9427 848.875 84.4688C848.411 84.9948 848.18 85.7891 848.18 86.8516ZM855.602 88.5234L856.992 88.3047C857.07 88.862 857.286 89.2891 857.641 89.5859C858 89.8828 858.5 90.0312 859.141 90.0312C859.786 90.0312 860.266 89.901 860.578 89.6406C860.891 89.375 861.047 89.0651 861.047 88.7109C861.047 88.3932 860.909 88.1432 860.633 87.9609C860.44 87.8359 859.961 87.6771 859.195 87.4844C858.164 87.224 857.448 87 857.047 86.8125C856.651 86.6198 856.349 86.3568 856.141 86.0234C855.938 85.6849 855.836 85.3125 855.836 84.9062C855.836 84.5365 855.919 84.1953 856.086 83.8828C856.258 83.5651 856.49 83.3021 856.781 83.0938C857 82.9323 857.297 82.7969 857.672 82.6875C858.052 82.5729 858.458 82.5156 858.891 82.5156C859.542 82.5156 860.112 82.6094 860.602 82.7969C861.096 82.9844 861.461 83.2396 861.695 83.5625C861.93 83.8802 862.091 84.3073 862.18 84.8438L860.805 85.0312C860.742 84.6042 860.56 84.2708 860.258 84.0312C859.961 83.7917 859.539 83.6719 858.992 83.6719C858.346 83.6719 857.885 83.7786 857.609 83.9922C857.333 84.2057 857.195 84.4557 857.195 84.7422C857.195 84.9245 857.253 85.0885 857.367 85.2344C857.482 85.3854 857.661 85.5104 857.906 85.6094C858.047 85.6615 858.461 85.7812 859.148 85.9688C860.143 86.2344 860.836 86.4531 861.227 86.625C861.622 86.7917 861.932 87.0365 862.156 87.3594C862.38 87.6823 862.492 88.0833 862.492 88.5625C862.492 89.0312 862.354 89.474 862.078 89.8906C861.807 90.3021 861.414 90.6224 860.898 90.8516C860.383 91.0755 859.799 91.1875 859.148 91.1875C858.07 91.1875 857.247 90.9635 856.68 90.5156C856.117 90.0677 855.758 89.4036 855.602 88.5234ZM869.844 88.3281L871.297 88.5078C871.068 89.3568 870.643 90.0156 870.023 90.4844C869.404 90.9531 868.612 91.1875 867.648 91.1875C866.435 91.1875 865.471 90.8151 864.758 90.0703C864.049 89.3203 863.695 88.2708 863.695 86.9219C863.695 85.526 864.055 84.4427 864.773 83.6719C865.492 82.901 866.424 82.5156 867.57 82.5156C868.68 82.5156 869.586 82.8932 870.289 83.6484C870.992 84.4036 871.344 85.4661 871.344 86.8359C871.344 86.9193 871.341 87.0443 871.336 87.2109H865.148C865.201 88.1224 865.458 88.8203 865.922 89.3047C866.385 89.7891 866.964 90.0312 867.656 90.0312C868.172 90.0312 868.612 89.8958 868.977 89.625C869.341 89.3542 869.63 88.9219 869.844 88.3281ZM865.227 86.0547H869.859C869.797 85.3568 869.62 84.8333 869.328 84.4844C868.88 83.9427 868.299 83.6719 867.586 83.6719C866.94 83.6719 866.396 83.888 865.953 84.3203C865.516 84.7526 865.273 85.3307 865.227 86.0547ZM866.742 81.6719L867.781 79.4844H869.625L867.906 81.6719H866.742ZM882.906 91V89.9531C882.38 90.776 881.607 91.1875 880.586 91.1875C879.924 91.1875 879.315 91.0052 878.758 90.6406C878.206 90.276 877.776 89.7682 877.469 89.1172C877.167 88.4609 877.016 87.7083 877.016 86.8594C877.016 86.0312 877.154 85.2812 877.43 84.6094C877.706 83.9323 878.12 83.4141 878.672 83.0547C879.224 82.6953 879.841 82.5156 880.523 82.5156C881.023 82.5156 881.469 82.6224 881.859 82.8359C882.25 83.0443 882.568 83.3177 882.812 83.6562V79.5469H884.211V91H882.906ZM878.461 86.8594C878.461 87.9219 878.685 88.7161 879.133 89.2422C879.581 89.7682 880.109 90.0312 880.719 90.0312C881.333 90.0312 881.854 89.7812 882.281 89.2812C882.714 88.776 882.93 88.0078 882.93 86.9766C882.93 85.8411 882.711 85.0078 882.273 84.4766C881.836 83.9453 881.297 83.6797 880.656 83.6797C880.031 83.6797 879.508 83.9349 879.086 84.4453C878.669 84.9557 878.461 85.7604 878.461 86.8594ZM892.109 88.3281L893.562 88.5078C893.333 89.3568 892.909 90.0156 892.289 90.4844C891.669 90.9531 890.878 91.1875 889.914 91.1875C888.701 91.1875 887.737 90.8151 887.023 90.0703C886.315 89.3203 885.961 88.2708 885.961 86.9219C885.961 85.526 886.32 84.4427 887.039 83.6719C887.758 82.901 888.69 82.5156 889.836 82.5156C890.945 82.5156 891.852 82.8932 892.555 83.6484C893.258 84.4036 893.609 85.4661 893.609 86.8359C893.609 86.9193 893.607 87.0443 893.602 87.2109H887.414C887.466 88.1224 887.724 88.8203 888.188 89.3047C888.651 89.7891 889.229 90.0312 889.922 90.0312C890.438 90.0312 890.878 89.8958 891.242 89.625C891.607 89.3542 891.896 88.9219 892.109 88.3281ZM887.492 86.0547H892.125C892.062 85.3568 891.885 84.8333 891.594 84.4844C891.146 83.9427 890.565 83.6719 889.852 83.6719C889.206 83.6719 888.661 83.888 888.219 84.3203C887.781 84.7526 887.539 85.3307 887.492 86.0547ZM906.789 89.6484V91H899.219C899.208 90.6615 899.263 90.3359 899.383 90.0234C899.576 89.5078 899.883 89 900.305 88.5C900.732 88 901.346 87.4219 902.148 86.7656C903.393 85.7448 904.234 84.9375 904.672 84.3438C905.109 83.7448 905.328 83.1797 905.328 82.6484C905.328 82.0911 905.128 81.6224 904.727 81.2422C904.331 80.8568 903.812 80.6641 903.172 80.6641C902.495 80.6641 901.953 80.8672 901.547 81.2734C901.141 81.6797 900.935 82.2422 900.93 82.9609L899.484 82.8125C899.583 81.7344 899.956 80.9141 900.602 80.3516C901.247 79.7839 902.115 79.5 903.203 79.5C904.302 79.5 905.172 79.8047 905.812 80.4141C906.453 81.0234 906.773 81.7786 906.773 82.6797C906.773 83.138 906.68 83.5885 906.492 84.0312C906.305 84.474 905.992 84.9401 905.555 85.4297C905.122 85.9193 904.401 86.5911 903.391 87.4453C902.547 88.1536 902.005 88.6354 901.766 88.8906C901.526 89.1406 901.328 89.3932 901.172 89.6484H906.789ZM912.586 88.5234L913.977 88.3047C914.055 88.862 914.271 89.2891 914.625 89.5859C914.984 89.8828 915.484 90.0312 916.125 90.0312C916.771 90.0312 917.25 89.901 917.562 89.6406C917.875 89.375 918.031 89.0651 918.031 88.7109C918.031 88.3932 917.893 88.1432 917.617 87.9609C917.424 87.8359 916.945 87.6771 916.18 87.4844C915.148 87.224 914.432 87 914.031 86.8125C913.635 86.6198 913.333 86.3568 913.125 86.0234C912.922 85.6849 912.82 85.3125 912.82 84.9062C912.82 84.5365 912.904 84.1953 913.07 83.8828C913.242 83.5651 913.474 83.3021 913.766 83.0938C913.984 82.9323 914.281 82.7969 914.656 82.6875C915.036 82.5729 915.443 82.5156 915.875 82.5156C916.526 82.5156 917.096 82.6094 917.586 82.7969C918.081 82.9844 918.445 83.2396 918.68 83.5625C918.914 83.8802 919.076 84.3073 919.164 84.8438L917.789 85.0312C917.727 84.6042 917.544 84.2708 917.242 84.0312C916.945 83.7917 916.523 83.6719 915.977 83.6719C915.331 83.6719 914.87 83.7786 914.594 83.9922C914.318 84.2057 914.18 84.4557 914.18 84.7422C914.18 84.9245 914.237 85.0885 914.352 85.2344C914.466 85.3854 914.646 85.5104 914.891 85.6094C915.031 85.6615 915.445 85.7812 916.133 85.9688C917.128 86.2344 917.82 86.4531 918.211 86.625C918.607 86.7917 918.917 87.0365 919.141 87.3594C919.365 87.6823 919.477 88.0833 919.477 88.5625C919.477 89.0312 919.339 89.474 919.062 89.8906C918.792 90.3021 918.398 90.6224 917.883 90.8516C917.367 91.0755 916.784 91.1875 916.133 91.1875C915.055 91.1875 914.232 90.9635 913.664 90.5156C913.102 90.0677 912.742 89.4036 912.586 88.5234ZM926.828 88.3281L928.281 88.5078C928.052 89.3568 927.628 90.0156 927.008 90.4844C926.388 90.9531 925.596 91.1875 924.633 91.1875C923.419 91.1875 922.456 90.8151 921.742 90.0703C921.034 89.3203 920.68 88.2708 920.68 86.9219C920.68 85.526 921.039 84.4427 921.758 83.6719C922.477 82.901 923.409 82.5156 924.555 82.5156C925.664 82.5156 926.57 82.8932 927.273 83.6484C927.977 84.4036 928.328 85.4661 928.328 86.8359C928.328 86.9193 928.326 87.0443 928.32 87.2109H922.133C922.185 88.1224 922.443 88.8203 922.906 89.3047C923.37 89.7891 923.948 90.0312 924.641 90.0312C925.156 90.0312 925.596 89.8958 925.961 89.625C926.326 89.3542 926.615 88.9219 926.828 88.3281ZM922.211 86.0547H926.844C926.781 85.3568 926.604 84.8333 926.312 84.4844C925.865 83.9427 925.284 83.6719 924.57 83.6719C923.924 83.6719 923.38 83.888 922.938 84.3203C922.5 84.7526 922.258 85.3307 922.211 86.0547ZM929.797 91.6875L931.164 91.8906C931.221 92.3125 931.38 92.6198 931.641 92.8125C931.99 93.0729 932.466 93.2031 933.07 93.2031C933.721 93.2031 934.224 93.0729 934.578 92.8125C934.932 92.5521 935.172 92.1875 935.297 91.7188C935.37 91.4323 935.404 90.8307 935.398 89.9141C934.784 90.638 934.018 91 933.102 91C931.961 91 931.078 90.5885 930.453 89.7656C929.828 88.9427 929.516 87.9557 929.516 86.8047C929.516 86.013 929.659 85.2839 929.945 84.6172C930.232 83.9453 930.646 83.4271 931.188 83.0625C931.734 82.6979 932.375 82.5156 933.109 82.5156C934.089 82.5156 934.896 82.9115 935.531 83.7031V82.7031H936.828V89.875C936.828 91.1667 936.695 92.0807 936.43 92.6172C936.169 93.1589 935.753 93.5859 935.18 93.8984C934.612 94.2109 933.911 94.3672 933.078 94.3672C932.089 94.3672 931.289 94.1432 930.68 93.6953C930.07 93.2526 929.776 92.5833 929.797 91.6875ZM930.961 86.7031C930.961 87.7917 931.177 88.5859 931.609 89.0859C932.042 89.5859 932.583 89.8359 933.234 89.8359C933.88 89.8359 934.422 89.5885 934.859 89.0938C935.297 88.5938 935.516 87.8125 935.516 86.75C935.516 85.7344 935.289 84.9688 934.836 84.4531C934.388 83.9375 933.846 83.6797 933.211 83.6797C932.586 83.6797 932.055 83.9349 931.617 84.4453C931.18 84.9505 930.961 85.7031 930.961 86.7031ZM938.961 91V82.7031H940.219V83.8672C940.479 83.4609 940.826 83.1354 941.258 82.8906C941.69 82.6406 942.182 82.5156 942.734 82.5156C943.349 82.5156 943.852 82.6432 944.242 82.8984C944.638 83.1536 944.917 83.5104 945.078 83.9688C945.734 83 946.589 82.5156 947.641 82.5156C948.464 82.5156 949.096 82.7448 949.539 83.2031C949.982 83.6562 950.203 84.3568 950.203 85.3047V91H948.805V85.7734C948.805 85.2109 948.758 84.8073 948.664 84.5625C948.576 84.3125 948.411 84.112 948.172 83.9609C947.932 83.8099 947.651 83.7344 947.328 83.7344C946.745 83.7344 946.26 83.9297 945.875 84.3203C945.49 84.7057 945.297 85.3255 945.297 86.1797V91H943.891V85.6094C943.891 84.9844 943.776 84.5156 943.547 84.2031C943.318 83.8906 942.943 83.7344 942.422 83.7344C942.026 83.7344 941.659 83.8385 941.32 84.0469C940.987 84.2552 940.745 84.5599 940.594 84.9609C940.443 85.362 940.367 85.9401 940.367 86.6953V91H938.961ZM957.969 88.3281L959.422 88.5078C959.193 89.3568 958.768 90.0156 958.148 90.4844C957.529 90.9531 956.737 91.1875 955.773 91.1875C954.56 91.1875 953.596 90.8151 952.883 90.0703C952.174 89.3203 951.82 88.2708 951.82 86.9219C951.82 85.526 952.18 84.4427 952.898 83.6719C953.617 82.901 954.549 82.5156 955.695 82.5156C956.805 82.5156 957.711 82.8932 958.414 83.6484C959.117 84.4036 959.469 85.4661 959.469 86.8359C959.469 86.9193 959.466 87.0443 959.461 87.2109H953.273C953.326 88.1224 953.583 88.8203 954.047 89.3047C954.51 89.7891 955.089 90.0312 955.781 90.0312C956.297 90.0312 956.737 89.8958 957.102 89.625C957.466 89.3542 957.755 88.9219 957.969 88.3281ZM953.352 86.0547H957.984C957.922 85.3568 957.745 84.8333 957.453 84.4844C957.005 83.9427 956.424 83.6719 955.711 83.6719C955.065 83.6719 954.521 83.888 954.078 84.3203C953.641 84.7526 953.398 85.3307 953.352 86.0547ZM961.195 91V82.7031H962.461V83.8828C963.07 82.9714 963.951 82.5156 965.102 82.5156C965.602 82.5156 966.06 82.6068 966.477 82.7891C966.898 82.9661 967.214 83.2005 967.422 83.4922C967.63 83.7839 967.776 84.1302 967.859 84.5312C967.911 84.7917 967.938 85.2474 967.938 85.8984V91H966.531V85.9531C966.531 85.3802 966.477 84.9531 966.367 84.6719C966.258 84.3854 966.062 84.1589 965.781 83.9922C965.505 83.8203 965.18 83.7344 964.805 83.7344C964.206 83.7344 963.688 83.9245 963.25 84.3047C962.818 84.6849 962.602 85.4062 962.602 86.4688V91H961.195ZM973.172 89.7422L973.375 90.9844C972.979 91.0677 972.625 91.1094 972.312 91.1094C971.802 91.1094 971.406 91.0286 971.125 90.8672C970.844 90.7057 970.646 90.4948 970.531 90.2344C970.417 89.9688 970.359 89.4141 970.359 88.5703V83.7969H969.328V82.7031H970.359V80.6484L971.758 79.8047V82.7031H973.172V83.7969H971.758V88.6484C971.758 89.0495 971.781 89.3073 971.828 89.4219C971.88 89.5365 971.961 89.6276 972.07 89.6953C972.185 89.763 972.346 89.7969 972.555 89.7969C972.711 89.7969 972.917 89.7786 973.172 89.7422ZM973.992 88.5234L975.383 88.3047C975.461 88.862 975.677 89.2891 976.031 89.5859C976.391 89.8828 976.891 90.0312 977.531 90.0312C978.177 90.0312 978.656 89.901 978.969 89.6406C979.281 89.375 979.438 89.0651 979.438 88.7109C979.438 88.3932 979.299 88.1432 979.023 87.9609C978.831 87.8359 978.352 87.6771 977.586 87.4844C976.555 87.224 975.839 87 975.438 86.8125C975.042 86.6198 974.74 86.3568 974.531 86.0234C974.328 85.6849 974.227 85.3125 974.227 84.9062C974.227 84.5365 974.31 84.1953 974.477 83.8828C974.648 83.5651 974.88 83.3021 975.172 83.0938C975.391 82.9323 975.688 82.7969 976.062 82.6875C976.443 82.5729 976.849 82.5156 977.281 82.5156C977.932 82.5156 978.503 82.6094 978.992 82.7969C979.487 82.9844 979.852 83.2396 980.086 83.5625C980.32 83.8802 980.482 84.3073 980.57 84.8438L979.195 85.0312C979.133 84.6042 978.951 84.2708 978.648 84.0312C978.352 83.7917 977.93 83.6719 977.383 83.6719C976.737 83.6719 976.276 83.7786 976 83.9922C975.724 84.2057 975.586 84.4557 975.586 84.7422C975.586 84.9245 975.643 85.0885 975.758 85.2344C975.872 85.3854 976.052 85.5104 976.297 85.6094C976.438 85.6615 976.852 85.7812 977.539 85.9688C978.534 86.2344 979.227 86.4531 979.617 86.625C980.013 86.7917 980.323 87.0365 980.547 87.3594C980.771 87.6823 980.883 88.0833 980.883 88.5625C980.883 89.0312 980.745 89.474 980.469 89.8906C980.198 90.3021 979.805 90.6224 979.289 90.8516C978.773 91.0755 978.19 91.1875 977.539 91.1875C976.461 91.1875 975.638 90.9635 975.07 90.5156C974.508 90.0677 974.148 89.4036 973.992 88.5234Z" fill="#3E3E3D"/>
<g opacity="0.5">
<path d="M579.5 109.5H1159" stroke="#CDCCCB"/>
</g>
<rect width="579.5" height="49" transform="translate(579.5 110)" fill="white"/>
<path d="M595.477 140L599.875 128.547H601.508L606.195 140H604.469L603.133 136.531H598.344L597.086 140H595.477ZM598.781 135.297H602.664L601.469 132.125C601.104 131.161 600.833 130.37 600.656 129.75C600.51 130.484 600.305 131.214 600.039 131.938L598.781 135.297ZM607.562 140V132.797H606.32V131.703H607.562V130.82C607.562 130.263 607.612 129.849 607.711 129.578C607.846 129.214 608.083 128.919 608.422 128.695C608.766 128.466 609.245 128.352 609.859 128.352C610.255 128.352 610.693 128.398 611.172 128.492L610.961 129.719C610.669 129.667 610.393 129.641 610.133 129.641C609.706 129.641 609.404 129.732 609.227 129.914C609.049 130.096 608.961 130.438 608.961 130.938V131.703H610.578V132.797H608.961V140H607.562ZM611.719 140V132.797H610.477V131.703H611.719V130.82C611.719 130.263 611.768 129.849 611.867 129.578C612.003 129.214 612.24 128.919 612.578 128.695C612.922 128.466 613.401 128.352 614.016 128.352C614.411 128.352 614.849 128.398 615.328 128.492L615.117 129.719C614.826 129.667 614.549 129.641 614.289 129.641C613.862 129.641 613.56 129.732 613.383 129.914C613.206 130.096 613.117 130.438 613.117 130.938V131.703H614.734V132.797H613.117V140H611.719ZM615.844 130.164V128.547H617.25V130.164H615.844ZM615.844 140V131.703H617.25V140H615.844ZM624.812 136.961L626.195 137.141C626.044 138.094 625.656 138.841 625.031 139.383C624.411 139.919 623.648 140.188 622.742 140.188C621.607 140.188 620.693 139.818 620 139.078C619.312 138.333 618.969 137.268 618.969 135.883C618.969 134.987 619.117 134.203 619.414 133.531C619.711 132.859 620.161 132.357 620.766 132.023C621.375 131.685 622.036 131.516 622.75 131.516C623.651 131.516 624.388 131.745 624.961 132.203C625.534 132.656 625.901 133.302 626.062 134.141L624.695 134.352C624.565 133.794 624.333 133.375 624 133.094C623.672 132.812 623.273 132.672 622.805 132.672C622.096 132.672 621.521 132.927 621.078 133.438C620.635 133.943 620.414 134.745 620.414 135.844C620.414 136.958 620.628 137.768 621.055 138.273C621.482 138.779 622.039 139.031 622.727 139.031C623.279 139.031 623.74 138.862 624.109 138.523C624.479 138.185 624.714 137.664 624.812 136.961ZM627.398 140V128.547H628.805V132.656C629.461 131.896 630.289 131.516 631.289 131.516C631.904 131.516 632.438 131.638 632.891 131.883C633.344 132.122 633.667 132.456 633.859 132.883C634.057 133.31 634.156 133.93 634.156 134.742V140H632.75V134.742C632.75 134.039 632.596 133.529 632.289 133.211C631.987 132.888 631.557 132.727 631 132.727C630.583 132.727 630.19 132.836 629.82 133.055C629.456 133.268 629.195 133.56 629.039 133.93C628.883 134.299 628.805 134.81 628.805 135.461V140H627.398ZM641.984 137.328L643.438 137.508C643.208 138.357 642.784 139.016 642.164 139.484C641.544 139.953 640.753 140.188 639.789 140.188C638.576 140.188 637.612 139.815 636.898 139.07C636.19 138.32 635.836 137.271 635.836 135.922C635.836 134.526 636.195 133.443 636.914 132.672C637.633 131.901 638.565 131.516 639.711 131.516C640.82 131.516 641.727 131.893 642.43 132.648C643.133 133.404 643.484 134.466 643.484 135.836C643.484 135.919 643.482 136.044 643.477 136.211H637.289C637.341 137.122 637.599 137.82 638.062 138.305C638.526 138.789 639.104 139.031 639.797 139.031C640.312 139.031 640.753 138.896 641.117 138.625C641.482 138.354 641.771 137.922 641.984 137.328ZM637.367 135.055H642C641.938 134.357 641.76 133.833 641.469 133.484C641.021 132.943 640.44 132.672 639.727 132.672C639.081 132.672 638.536 132.888 638.094 133.32C637.656 133.753 637.414 134.331 637.367 135.055ZM655.102 140V138.781C654.456 139.719 653.578 140.188 652.469 140.188C651.979 140.188 651.521 140.094 651.094 139.906C650.672 139.719 650.357 139.484 650.148 139.203C649.945 138.917 649.802 138.568 649.719 138.156C649.661 137.88 649.633 137.443 649.633 136.844V131.703H651.039V136.305C651.039 137.039 651.068 137.534 651.125 137.789C651.214 138.159 651.401 138.451 651.688 138.664C651.974 138.872 652.328 138.977 652.75 138.977C653.172 138.977 653.568 138.87 653.938 138.656C654.307 138.438 654.568 138.143 654.719 137.773C654.875 137.398 654.953 136.857 654.953 136.148V131.703H656.359V140H655.102ZM658.57 140V131.703H659.836V132.883C660.445 131.971 661.326 131.516 662.477 131.516C662.977 131.516 663.435 131.607 663.852 131.789C664.273 131.966 664.589 132.201 664.797 132.492C665.005 132.784 665.151 133.13 665.234 133.531C665.286 133.792 665.312 134.247 665.312 134.898V140H663.906V134.953C663.906 134.38 663.852 133.953 663.742 133.672C663.633 133.385 663.438 133.159 663.156 132.992C662.88 132.82 662.555 132.734 662.18 132.734C661.581 132.734 661.062 132.924 660.625 133.305C660.193 133.685 659.977 134.406 659.977 135.469V140H658.57ZM671.367 137.523L672.758 137.305C672.836 137.862 673.052 138.289 673.406 138.586C673.766 138.883 674.266 139.031 674.906 139.031C675.552 139.031 676.031 138.901 676.344 138.641C676.656 138.375 676.812 138.065 676.812 137.711C676.812 137.393 676.674 137.143 676.398 136.961C676.206 136.836 675.727 136.677 674.961 136.484C673.93 136.224 673.214 136 672.812 135.812C672.417 135.62 672.115 135.357 671.906 135.023C671.703 134.685 671.602 134.312 671.602 133.906C671.602 133.536 671.685 133.195 671.852 132.883C672.023 132.565 672.255 132.302 672.547 132.094C672.766 131.932 673.062 131.797 673.438 131.688C673.818 131.573 674.224 131.516 674.656 131.516C675.307 131.516 675.878 131.609 676.367 131.797C676.862 131.984 677.227 132.24 677.461 132.562C677.695 132.88 677.857 133.307 677.945 133.844L676.57 134.031C676.508 133.604 676.326 133.271 676.023 133.031C675.727 132.792 675.305 132.672 674.758 132.672C674.112 132.672 673.651 132.779 673.375 132.992C673.099 133.206 672.961 133.456 672.961 133.742C672.961 133.924 673.018 134.089 673.133 134.234C673.247 134.385 673.427 134.51 673.672 134.609C673.812 134.661 674.227 134.781 674.914 134.969C675.909 135.234 676.602 135.453 676.992 135.625C677.388 135.792 677.698 136.036 677.922 136.359C678.146 136.682 678.258 137.083 678.258 137.562C678.258 138.031 678.12 138.474 677.844 138.891C677.573 139.302 677.18 139.622 676.664 139.852C676.148 140.076 675.565 140.188 674.914 140.188C673.836 140.188 673.013 139.964 672.445 139.516C671.883 139.068 671.523 138.404 671.367 137.523ZM685.609 137.328L687.062 137.508C686.833 138.357 686.409 139.016 685.789 139.484C685.169 139.953 684.378 140.188 683.414 140.188C682.201 140.188 681.237 139.815 680.523 139.07C679.815 138.32 679.461 137.271 679.461 135.922C679.461 134.526 679.82 133.443 680.539 132.672C681.258 131.901 682.19 131.516 683.336 131.516C684.445 131.516 685.352 131.893 686.055 132.648C686.758 133.404 687.109 134.466 687.109 135.836C687.109 135.919 687.107 136.044 687.102 136.211H680.914C680.966 137.122 681.224 137.82 681.688 138.305C682.151 138.789 682.729 139.031 683.422 139.031C683.938 139.031 684.378 138.896 684.742 138.625C685.107 138.354 685.396 137.922 685.609 137.328ZM680.992 135.055H685.625C685.562 134.357 685.385 133.833 685.094 133.484C684.646 132.943 684.065 132.672 683.352 132.672C682.706 132.672 682.161 132.888 681.719 133.32C681.281 133.753 681.039 134.331 680.992 135.055ZM688.578 140.688L689.945 140.891C690.003 141.312 690.161 141.62 690.422 141.812C690.771 142.073 691.247 142.203 691.852 142.203C692.503 142.203 693.005 142.073 693.359 141.812C693.714 141.552 693.953 141.188 694.078 140.719C694.151 140.432 694.185 139.831 694.18 138.914C693.565 139.638 692.799 140 691.883 140C690.742 140 689.859 139.589 689.234 138.766C688.609 137.943 688.297 136.956 688.297 135.805C688.297 135.013 688.44 134.284 688.727 133.617C689.013 132.945 689.427 132.427 689.969 132.062C690.516 131.698 691.156 131.516 691.891 131.516C692.87 131.516 693.677 131.911 694.312 132.703V131.703H695.609V138.875C695.609 140.167 695.477 141.081 695.211 141.617C694.951 142.159 694.534 142.586 693.961 142.898C693.393 143.211 692.693 143.367 691.859 143.367C690.87 143.367 690.07 143.143 689.461 142.695C688.852 142.253 688.557 141.583 688.578 140.688ZM689.742 135.703C689.742 136.792 689.958 137.586 690.391 138.086C690.823 138.586 691.365 138.836 692.016 138.836C692.661 138.836 693.203 138.589 693.641 138.094C694.078 137.594 694.297 136.812 694.297 135.75C694.297 134.734 694.07 133.969 693.617 133.453C693.169 132.938 692.628 132.68 691.992 132.68C691.367 132.68 690.836 132.935 690.398 133.445C689.961 133.951 689.742 134.703 689.742 135.703ZM697.742 140V131.703H699V132.867C699.26 132.461 699.607 132.135 700.039 131.891C700.471 131.641 700.964 131.516 701.516 131.516C702.13 131.516 702.633 131.643 703.023 131.898C703.419 132.154 703.698 132.51 703.859 132.969C704.516 132 705.37 131.516 706.422 131.516C707.245 131.516 707.878 131.745 708.32 132.203C708.763 132.656 708.984 133.357 708.984 134.305V140H707.586V134.773C707.586 134.211 707.539 133.807 707.445 133.562C707.357 133.312 707.193 133.112 706.953 132.961C706.714 132.81 706.432 132.734 706.109 132.734C705.526 132.734 705.042 132.93 704.656 133.32C704.271 133.706 704.078 134.326 704.078 135.18V140H702.672V134.609C702.672 133.984 702.557 133.516 702.328 133.203C702.099 132.891 701.724 132.734 701.203 132.734C700.807 132.734 700.44 132.839 700.102 133.047C699.768 133.255 699.526 133.56 699.375 133.961C699.224 134.362 699.148 134.94 699.148 135.695V140H697.742ZM716.75 137.328L718.203 137.508C717.974 138.357 717.549 139.016 716.93 139.484C716.31 139.953 715.518 140.188 714.555 140.188C713.341 140.188 712.378 139.815 711.664 139.07C710.956 138.32 710.602 137.271 710.602 135.922C710.602 134.526 710.961 133.443 711.68 132.672C712.398 131.901 713.331 131.516 714.477 131.516C715.586 131.516 716.492 131.893 717.195 132.648C717.898 133.404 718.25 134.466 718.25 135.836C718.25 135.919 718.247 136.044 718.242 136.211H712.055C712.107 137.122 712.365 137.82 712.828 138.305C713.292 138.789 713.87 139.031 714.562 139.031C715.078 139.031 715.518 138.896 715.883 138.625C716.247 138.354 716.536 137.922 716.75 137.328ZM712.133 135.055H716.766C716.703 134.357 716.526 133.833 716.234 133.484C715.786 132.943 715.206 132.672 714.492 132.672C713.846 132.672 713.302 132.888 712.859 133.32C712.422 133.753 712.18 134.331 712.133 135.055ZM719.977 140V131.703H721.242V132.883C721.852 131.971 722.732 131.516 723.883 131.516C724.383 131.516 724.841 131.607 725.258 131.789C725.68 131.966 725.995 132.201 726.203 132.492C726.411 132.784 726.557 133.13 726.641 133.531C726.693 133.792 726.719 134.247 726.719 134.898V140H725.312V134.953C725.312 134.38 725.258 133.953 725.148 133.672C725.039 133.385 724.844 133.159 724.562 132.992C724.286 132.82 723.961 132.734 723.586 132.734C722.987 132.734 722.469 132.924 722.031 133.305C721.599 133.685 721.383 134.406 721.383 135.469V140H719.977ZM731.953 138.742L732.156 139.984C731.76 140.068 731.406 140.109 731.094 140.109C730.583 140.109 730.188 140.029 729.906 139.867C729.625 139.706 729.427 139.495 729.312 139.234C729.198 138.969 729.141 138.414 729.141 137.57V132.797H728.109V131.703H729.141V129.648L730.539 128.805V131.703H731.953V132.797H730.539V137.648C730.539 138.049 730.562 138.307 730.609 138.422C730.661 138.536 730.742 138.628 730.852 138.695C730.966 138.763 731.128 138.797 731.336 138.797C731.492 138.797 731.698 138.779 731.953 138.742ZM739.016 137.328L740.469 137.508C740.24 138.357 739.815 139.016 739.195 139.484C738.576 139.953 737.784 140.188 736.82 140.188C735.607 140.188 734.643 139.815 733.93 139.07C733.221 138.32 732.867 137.271 732.867 135.922C732.867 134.526 733.227 133.443 733.945 132.672C734.664 131.901 735.596 131.516 736.742 131.516C737.852 131.516 738.758 131.893 739.461 132.648C740.164 133.404 740.516 134.466 740.516 135.836C740.516 135.919 740.513 136.044 740.508 136.211H734.32C734.372 137.122 734.63 137.82 735.094 138.305C735.557 138.789 736.135 139.031 736.828 139.031C737.344 139.031 737.784 138.896 738.148 138.625C738.513 138.354 738.802 137.922 739.016 137.328ZM734.398 135.055H739.031C738.969 134.357 738.792 133.833 738.5 133.484C738.052 132.943 737.471 132.672 736.758 132.672C736.112 132.672 735.568 132.888 735.125 133.32C734.688 133.753 734.445 134.331 734.398 135.055ZM747.625 140V138.953C747.099 139.776 746.326 140.188 745.305 140.188C744.643 140.188 744.034 140.005 743.477 139.641C742.924 139.276 742.495 138.768 742.188 138.117C741.885 137.461 741.734 136.708 741.734 135.859C741.734 135.031 741.872 134.281 742.148 133.609C742.424 132.932 742.839 132.414 743.391 132.055C743.943 131.695 744.56 131.516 745.242 131.516C745.742 131.516 746.188 131.622 746.578 131.836C746.969 132.044 747.286 132.318 747.531 132.656V128.547H748.93V140H747.625ZM743.18 135.859C743.18 136.922 743.404 137.716 743.852 138.242C744.299 138.768 744.828 139.031 745.438 139.031C746.052 139.031 746.573 138.781 747 138.281C747.432 137.776 747.648 137.008 747.648 135.977C747.648 134.841 747.43 134.008 746.992 133.477C746.555 132.945 746.016 132.68 745.375 132.68C744.75 132.68 744.227 132.935 743.805 133.445C743.388 133.956 743.18 134.76 743.18 135.859ZM761.016 136.961L762.398 137.141C762.247 138.094 761.859 138.841 761.234 139.383C760.615 139.919 759.852 140.188 758.945 140.188C757.81 140.188 756.896 139.818 756.203 139.078C755.516 138.333 755.172 137.268 755.172 135.883C755.172 134.987 755.32 134.203 755.617 133.531C755.914 132.859 756.365 132.357 756.969 132.023C757.578 131.685 758.24 131.516 758.953 131.516C759.854 131.516 760.591 131.745 761.164 132.203C761.737 132.656 762.104 133.302 762.266 134.141L760.898 134.352C760.768 133.794 760.536 133.375 760.203 133.094C759.875 132.812 759.477 132.672 759.008 132.672C758.299 132.672 757.724 132.927 757.281 133.438C756.839 133.943 756.617 134.745 756.617 135.844C756.617 136.958 756.831 137.768 757.258 138.273C757.685 138.779 758.242 139.031 758.93 139.031C759.482 139.031 759.943 138.862 760.312 138.523C760.682 138.185 760.917 137.664 761.016 136.961ZM763.078 135.852C763.078 134.315 763.505 133.177 764.359 132.438C765.073 131.823 765.943 131.516 766.969 131.516C768.109 131.516 769.042 131.891 769.766 132.641C770.49 133.385 770.852 134.417 770.852 135.734C770.852 136.802 770.69 137.643 770.367 138.258C770.049 138.867 769.583 139.341 768.969 139.68C768.359 140.018 767.693 140.188 766.969 140.188C765.807 140.188 764.867 139.815 764.148 139.07C763.435 138.326 763.078 137.253 763.078 135.852ZM764.523 135.852C764.523 136.914 764.755 137.711 765.219 138.242C765.682 138.768 766.266 139.031 766.969 139.031C767.667 139.031 768.247 138.766 768.711 138.234C769.174 137.703 769.406 136.893 769.406 135.805C769.406 134.779 769.172 134.003 768.703 133.477C768.24 132.945 767.661 132.68 766.969 132.68C766.266 132.68 765.682 132.943 765.219 133.469C764.755 133.995 764.523 134.789 764.523 135.852ZM772.508 140V131.703H773.773V132.883C774.383 131.971 775.263 131.516 776.414 131.516C776.914 131.516 777.372 131.607 777.789 131.789C778.211 131.966 778.526 132.201 778.734 132.492C778.943 132.784 779.089 133.13 779.172 133.531C779.224 133.792 779.25 134.247 779.25 134.898V140H777.844V134.953C777.844 134.38 777.789 133.953 777.68 133.672C777.57 133.385 777.375 133.159 777.094 132.992C776.818 132.82 776.492 132.734 776.117 132.734C775.518 132.734 775 132.924 774.562 133.305C774.13 133.685 773.914 134.406 773.914 135.469V140H772.508ZM784.484 138.742L784.688 139.984C784.292 140.068 783.938 140.109 783.625 140.109C783.115 140.109 782.719 140.029 782.438 139.867C782.156 139.706 781.958 139.495 781.844 139.234C781.729 138.969 781.672 138.414 781.672 137.57V132.797H780.641V131.703H781.672V129.648L783.07 128.805V131.703H784.484V132.797H783.07V137.648C783.07 138.049 783.094 138.307 783.141 138.422C783.193 138.536 783.273 138.628 783.383 138.695C783.497 138.763 783.659 138.797 783.867 138.797C784.023 138.797 784.229 138.779 784.484 138.742ZM785.852 140V131.703H787.117V132.961C787.44 132.372 787.737 131.984 788.008 131.797C788.284 131.609 788.586 131.516 788.914 131.516C789.388 131.516 789.87 131.667 790.359 131.969L789.875 133.273C789.531 133.07 789.188 132.969 788.844 132.969C788.536 132.969 788.26 133.062 788.016 133.25C787.771 133.432 787.596 133.688 787.492 134.016C787.336 134.516 787.258 135.062 787.258 135.656V140H785.852ZM790.672 135.852C790.672 134.315 791.099 133.177 791.953 132.438C792.667 131.823 793.536 131.516 794.562 131.516C795.703 131.516 796.635 131.891 797.359 132.641C798.083 133.385 798.445 134.417 798.445 135.734C798.445 136.802 798.284 137.643 797.961 138.258C797.643 138.867 797.177 139.341 796.562 139.68C795.953 140.018 795.286 140.188 794.562 140.188C793.401 140.188 792.461 139.815 791.742 139.07C791.029 138.326 790.672 137.253 790.672 135.852ZM792.117 135.852C792.117 136.914 792.349 137.711 792.812 138.242C793.276 138.768 793.859 139.031 794.562 139.031C795.26 139.031 795.841 138.766 796.305 138.234C796.768 137.703 797 136.893 797 135.805C797 134.779 796.766 134.003 796.297 133.477C795.833 132.945 795.255 132.68 794.562 132.68C793.859 132.68 793.276 132.943 792.812 133.469C792.349 133.995 792.117 134.789 792.117 135.852ZM800.07 140V128.547H801.477V140H800.07ZM813.531 136.961L814.914 137.141C814.763 138.094 814.375 138.841 813.75 139.383C813.13 139.919 812.367 140.188 811.461 140.188C810.326 140.188 809.411 139.818 808.719 139.078C808.031 138.333 807.688 137.268 807.688 135.883C807.688 134.987 807.836 134.203 808.133 133.531C808.43 132.859 808.88 132.357 809.484 132.023C810.094 131.685 810.755 131.516 811.469 131.516C812.37 131.516 813.107 131.745 813.68 132.203C814.253 132.656 814.62 133.302 814.781 134.141L813.414 134.352C813.284 133.794 813.052 133.375 812.719 133.094C812.391 132.812 811.992 132.672 811.523 132.672C810.815 132.672 810.24 132.927 809.797 133.438C809.354 133.943 809.133 134.745 809.133 135.844C809.133 136.958 809.346 137.768 809.773 138.273C810.201 138.779 810.758 139.031 811.445 139.031C811.997 139.031 812.458 138.862 812.828 138.523C813.198 138.185 813.432 137.664 813.531 136.961ZM815.594 135.852C815.594 134.315 816.021 133.177 816.875 132.438C817.589 131.823 818.458 131.516 819.484 131.516C820.625 131.516 821.557 131.891 822.281 132.641C823.005 133.385 823.367 134.417 823.367 135.734C823.367 136.802 823.206 137.643 822.883 138.258C822.565 138.867 822.099 139.341 821.484 139.68C820.875 140.018 820.208 140.188 819.484 140.188C818.323 140.188 817.383 139.815 816.664 139.07C815.951 138.326 815.594 137.253 815.594 135.852ZM817.039 135.852C817.039 136.914 817.271 137.711 817.734 138.242C818.198 138.768 818.781 139.031 819.484 139.031C820.182 139.031 820.763 138.766 821.227 138.234C821.69 137.703 821.922 136.893 821.922 135.805C821.922 134.779 821.688 134.003 821.219 133.477C820.755 132.945 820.177 132.68 819.484 132.68C818.781 132.68 818.198 132.943 817.734 133.469C817.271 133.995 817.039 134.789 817.039 135.852ZM825.023 140V131.703H826.281V132.867C826.542 132.461 826.888 132.135 827.32 131.891C827.753 131.641 828.245 131.516 828.797 131.516C829.411 131.516 829.914 131.643 830.305 131.898C830.701 132.154 830.979 132.51 831.141 132.969C831.797 132 832.651 131.516 833.703 131.516C834.526 131.516 835.159 131.745 835.602 132.203C836.044 132.656 836.266 133.357 836.266 134.305V140H834.867V134.773C834.867 134.211 834.82 133.807 834.727 133.562C834.638 133.312 834.474 133.112 834.234 132.961C833.995 132.81 833.714 132.734 833.391 132.734C832.807 132.734 832.323 132.93 831.938 133.32C831.552 133.706 831.359 134.326 831.359 135.18V140H829.953V134.609C829.953 133.984 829.839 133.516 829.609 133.203C829.38 132.891 829.005 132.734 828.484 132.734C828.089 132.734 827.721 132.839 827.383 133.047C827.049 133.255 826.807 133.56 826.656 133.961C826.505 134.362 826.43 134.94 826.43 135.695V140H825.023ZM838.352 143.18V131.703H839.633V132.781C839.935 132.359 840.276 132.044 840.656 131.836C841.036 131.622 841.497 131.516 842.039 131.516C842.747 131.516 843.372 131.698 843.914 132.062C844.456 132.427 844.865 132.943 845.141 133.609C845.417 134.271 845.555 134.997 845.555 135.789C845.555 136.638 845.401 137.404 845.094 138.086C844.792 138.763 844.349 139.284 843.766 139.648C843.188 140.008 842.578 140.188 841.938 140.188C841.469 140.188 841.047 140.089 840.672 139.891C840.302 139.693 839.997 139.443 839.758 139.141V143.18H838.352ZM839.625 135.898C839.625 136.966 839.841 137.755 840.273 138.266C840.706 138.776 841.229 139.031 841.844 139.031C842.469 139.031 843.003 138.768 843.445 138.242C843.893 137.711 844.117 136.891 844.117 135.781C844.117 134.724 843.898 133.932 843.461 133.406C843.029 132.88 842.51 132.617 841.906 132.617C841.307 132.617 840.776 132.898 840.312 133.461C839.854 134.018 839.625 134.831 839.625 135.898ZM846.734 135.852C846.734 134.315 847.161 133.177 848.016 132.438C848.729 131.823 849.599 131.516 850.625 131.516C851.766 131.516 852.698 131.891 853.422 132.641C854.146 133.385 854.508 134.417 854.508 135.734C854.508 136.802 854.346 137.643 854.023 138.258C853.706 138.867 853.24 139.341 852.625 139.68C852.016 140.018 851.349 140.188 850.625 140.188C849.464 140.188 848.523 139.815 847.805 139.07C847.091 138.326 846.734 137.253 846.734 135.852ZM848.18 135.852C848.18 136.914 848.411 137.711 848.875 138.242C849.339 138.768 849.922 139.031 850.625 139.031C851.323 139.031 851.904 138.766 852.367 138.234C852.831 137.703 853.062 136.893 853.062 135.805C853.062 134.779 852.828 134.003 852.359 133.477C851.896 132.945 851.318 132.68 850.625 132.68C849.922 132.68 849.339 132.943 848.875 133.469C848.411 133.995 848.18 134.789 848.18 135.852ZM855.602 137.523L856.992 137.305C857.07 137.862 857.286 138.289 857.641 138.586C858 138.883 858.5 139.031 859.141 139.031C859.786 139.031 860.266 138.901 860.578 138.641C860.891 138.375 861.047 138.065 861.047 137.711C861.047 137.393 860.909 137.143 860.633 136.961C860.44 136.836 859.961 136.677 859.195 136.484C858.164 136.224 857.448 136 857.047 135.812C856.651 135.62 856.349 135.357 856.141 135.023C855.938 134.685 855.836 134.312 855.836 133.906C855.836 133.536 855.919 133.195 856.086 132.883C856.258 132.565 856.49 132.302 856.781 132.094C857 131.932 857.297 131.797 857.672 131.688C858.052 131.573 858.458 131.516 858.891 131.516C859.542 131.516 860.112 131.609 860.602 131.797C861.096 131.984 861.461 132.24 861.695 132.562C861.93 132.88 862.091 133.307 862.18 133.844L860.805 134.031C860.742 133.604 860.56 133.271 860.258 133.031C859.961 132.792 859.539 132.672 858.992 132.672C858.346 132.672 857.885 132.779 857.609 132.992C857.333 133.206 857.195 133.456 857.195 133.742C857.195 133.924 857.253 134.089 857.367 134.234C857.482 134.385 857.661 134.51 857.906 134.609C858.047 134.661 858.461 134.781 859.148 134.969C860.143 135.234 860.836 135.453 861.227 135.625C861.622 135.792 861.932 136.036 862.156 136.359C862.38 136.682 862.492 137.083 862.492 137.562C862.492 138.031 862.354 138.474 862.078 138.891C861.807 139.302 861.414 139.622 860.898 139.852C860.383 140.076 859.799 140.188 859.148 140.188C858.07 140.188 857.247 139.964 856.68 139.516C856.117 139.068 855.758 138.404 855.602 137.523ZM869.844 137.328L871.297 137.508C871.068 138.357 870.643 139.016 870.023 139.484C869.404 139.953 868.612 140.188 867.648 140.188C866.435 140.188 865.471 139.815 864.758 139.07C864.049 138.32 863.695 137.271 863.695 135.922C863.695 134.526 864.055 133.443 864.773 132.672C865.492 131.901 866.424 131.516 867.57 131.516C868.68 131.516 869.586 131.893 870.289 132.648C870.992 133.404 871.344 134.466 871.344 135.836C871.344 135.919 871.341 136.044 871.336 136.211H865.148C865.201 137.122 865.458 137.82 865.922 138.305C866.385 138.789 866.964 139.031 867.656 139.031C868.172 139.031 868.612 138.896 868.977 138.625C869.341 138.354 869.63 137.922 869.844 137.328ZM865.227 135.055H869.859C869.797 134.357 869.62 133.833 869.328 133.484C868.88 132.943 868.299 132.672 867.586 132.672C866.94 132.672 866.396 132.888 865.953 133.32C865.516 133.753 865.273 134.331 865.227 135.055ZM866.742 130.672L867.781 128.484H869.625L867.906 130.672H866.742ZM882.906 140V138.953C882.38 139.776 881.607 140.188 880.586 140.188C879.924 140.188 879.315 140.005 878.758 139.641C878.206 139.276 877.776 138.768 877.469 138.117C877.167 137.461 877.016 136.708 877.016 135.859C877.016 135.031 877.154 134.281 877.43 133.609C877.706 132.932 878.12 132.414 878.672 132.055C879.224 131.695 879.841 131.516 880.523 131.516C881.023 131.516 881.469 131.622 881.859 131.836C882.25 132.044 882.568 132.318 882.812 132.656V128.547H884.211V140H882.906ZM878.461 135.859C878.461 136.922 878.685 137.716 879.133 138.242C879.581 138.768 880.109 139.031 880.719 139.031C881.333 139.031 881.854 138.781 882.281 138.281C882.714 137.776 882.93 137.008 882.93 135.977C882.93 134.841 882.711 134.008 882.273 133.477C881.836 132.945 881.297 132.68 880.656 132.68C880.031 132.68 879.508 132.935 879.086 133.445C878.669 133.956 878.461 134.76 878.461 135.859ZM892.109 137.328L893.562 137.508C893.333 138.357 892.909 139.016 892.289 139.484C891.669 139.953 890.878 140.188 889.914 140.188C888.701 140.188 887.737 139.815 887.023 139.07C886.315 138.32 885.961 137.271 885.961 135.922C885.961 134.526 886.32 133.443 887.039 132.672C887.758 131.901 888.69 131.516 889.836 131.516C890.945 131.516 891.852 131.893 892.555 132.648C893.258 133.404 893.609 134.466 893.609 135.836C893.609 135.919 893.607 136.044 893.602 136.211H887.414C887.466 137.122 887.724 137.82 888.188 138.305C888.651 138.789 889.229 139.031 889.922 139.031C890.438 139.031 890.878 138.896 891.242 138.625C891.607 138.354 891.896 137.922 892.109 137.328ZM887.492 135.055H892.125C892.062 134.357 891.885 133.833 891.594 133.484C891.146 132.943 890.565 132.672 889.852 132.672C889.206 132.672 888.661 132.888 888.219 133.32C887.781 133.753 887.539 134.331 887.492 135.055ZM899.406 136.977L900.812 136.789C900.974 137.586 901.247 138.161 901.633 138.516C902.023 138.865 902.497 139.039 903.055 139.039C903.716 139.039 904.273 138.81 904.727 138.352C905.185 137.893 905.414 137.326 905.414 136.648C905.414 136.003 905.203 135.471 904.781 135.055C904.359 134.633 903.823 134.422 903.172 134.422C902.906 134.422 902.576 134.474 902.18 134.578L902.336 133.344C902.43 133.354 902.505 133.359 902.562 133.359C903.161 133.359 903.701 133.203 904.18 132.891C904.659 132.578 904.898 132.096 904.898 131.445C904.898 130.93 904.724 130.503 904.375 130.164C904.026 129.826 903.576 129.656 903.023 129.656C902.477 129.656 902.021 129.828 901.656 130.172C901.292 130.516 901.057 131.031 900.953 131.719L899.547 131.469C899.719 130.526 900.109 129.797 900.719 129.281C901.328 128.76 902.086 128.5 902.992 128.5C903.617 128.5 904.193 128.635 904.719 128.906C905.245 129.172 905.646 129.536 905.922 130C906.203 130.464 906.344 130.956 906.344 131.477C906.344 131.971 906.211 132.422 905.945 132.828C905.68 133.234 905.286 133.557 904.766 133.797C905.443 133.953 905.969 134.279 906.344 134.773C906.719 135.263 906.906 135.878 906.906 136.617C906.906 137.617 906.542 138.466 905.812 139.164C905.083 139.857 904.161 140.203 903.047 140.203C902.042 140.203 901.206 139.904 900.539 139.305C899.878 138.706 899.5 137.93 899.406 136.977ZM912.586 137.523L913.977 137.305C914.055 137.862 914.271 138.289 914.625 138.586C914.984 138.883 915.484 139.031 916.125 139.031C916.771 139.031 917.25 138.901 917.562 138.641C917.875 138.375 918.031 138.065 918.031 137.711C918.031 137.393 917.893 137.143 917.617 136.961C917.424 136.836 916.945 136.677 916.18 136.484C915.148 136.224 914.432 136 914.031 135.812C913.635 135.62 913.333 135.357 913.125 135.023C912.922 134.685 912.82 134.312 912.82 133.906C912.82 133.536 912.904 133.195 913.07 132.883C913.242 132.565 913.474 132.302 913.766 132.094C913.984 131.932 914.281 131.797 914.656 131.688C915.036 131.573 915.443 131.516 915.875 131.516C916.526 131.516 917.096 131.609 917.586 131.797C918.081 131.984 918.445 132.24 918.68 132.562C918.914 132.88 919.076 133.307 919.164 133.844L917.789 134.031C917.727 133.604 917.544 133.271 917.242 133.031C916.945 132.792 916.523 132.672 915.977 132.672C915.331 132.672 914.87 132.779 914.594 132.992C914.318 133.206 914.18 133.456 914.18 133.742C914.18 133.924 914.237 134.089 914.352 134.234C914.466 134.385 914.646 134.51 914.891 134.609C915.031 134.661 915.445 134.781 916.133 134.969C917.128 135.234 917.82 135.453 918.211 135.625C918.607 135.792 918.917 136.036 919.141 136.359C919.365 136.682 919.477 137.083 919.477 137.562C919.477 138.031 919.339 138.474 919.062 138.891C918.792 139.302 918.398 139.622 917.883 139.852C917.367 140.076 916.784 140.188 916.133 140.188C915.055 140.188 914.232 139.964 913.664 139.516C913.102 139.068 912.742 138.404 912.586 137.523ZM926.828 137.328L928.281 137.508C928.052 138.357 927.628 139.016 927.008 139.484C926.388 139.953 925.596 140.188 924.633 140.188C923.419 140.188 922.456 139.815 921.742 139.07C921.034 138.32 920.68 137.271 920.68 135.922C920.68 134.526 921.039 133.443 921.758 132.672C922.477 131.901 923.409 131.516 924.555 131.516C925.664 131.516 926.57 131.893 927.273 132.648C927.977 133.404 928.328 134.466 928.328 135.836C928.328 135.919 928.326 136.044 928.32 136.211H922.133C922.185 137.122 922.443 137.82 922.906 138.305C923.37 138.789 923.948 139.031 924.641 139.031C925.156 139.031 925.596 138.896 925.961 138.625C926.326 138.354 926.615 137.922 926.828 137.328ZM922.211 135.055H926.844C926.781 134.357 926.604 133.833 926.312 133.484C925.865 132.943 925.284 132.672 924.57 132.672C923.924 132.672 923.38 132.888 922.938 133.32C922.5 133.753 922.258 134.331 922.211 135.055ZM929.797 140.688L931.164 140.891C931.221 141.312 931.38 141.62 931.641 141.812C931.99 142.073 932.466 142.203 933.07 142.203C933.721 142.203 934.224 142.073 934.578 141.812C934.932 141.552 935.172 141.188 935.297 140.719C935.37 140.432 935.404 139.831 935.398 138.914C934.784 139.638 934.018 140 933.102 140C931.961 140 931.078 139.589 930.453 138.766C929.828 137.943 929.516 136.956 929.516 135.805C929.516 135.013 929.659 134.284 929.945 133.617C930.232 132.945 930.646 132.427 931.188 132.062C931.734 131.698 932.375 131.516 933.109 131.516C934.089 131.516 934.896 131.911 935.531 132.703V131.703H936.828V138.875C936.828 140.167 936.695 141.081 936.43 141.617C936.169 142.159 935.753 142.586 935.18 142.898C934.612 143.211 933.911 143.367 933.078 143.367C932.089 143.367 931.289 143.143 930.68 142.695C930.07 142.253 929.776 141.583 929.797 140.688ZM930.961 135.703C930.961 136.792 931.177 137.586 931.609 138.086C932.042 138.586 932.583 138.836 933.234 138.836C933.88 138.836 934.422 138.589 934.859 138.094C935.297 137.594 935.516 136.812 935.516 135.75C935.516 134.734 935.289 133.969 934.836 133.453C934.388 132.938 933.846 132.68 933.211 132.68C932.586 132.68 932.055 132.935 931.617 133.445C931.18 133.951 930.961 134.703 930.961 135.703ZM938.961 140V131.703H940.219V132.867C940.479 132.461 940.826 132.135 941.258 131.891C941.69 131.641 942.182 131.516 942.734 131.516C943.349 131.516 943.852 131.643 944.242 131.898C944.638 132.154 944.917 132.51 945.078 132.969C945.734 132 946.589 131.516 947.641 131.516C948.464 131.516 949.096 131.745 949.539 132.203C949.982 132.656 950.203 133.357 950.203 134.305V140H948.805V134.773C948.805 134.211 948.758 133.807 948.664 133.562C948.576 133.312 948.411 133.112 948.172 132.961C947.932 132.81 947.651 132.734 947.328 132.734C946.745 132.734 946.26 132.93 945.875 133.32C945.49 133.706 945.297 134.326 945.297 135.18V140H943.891V134.609C943.891 133.984 943.776 133.516 943.547 133.203C943.318 132.891 942.943 132.734 942.422 132.734C942.026 132.734 941.659 132.839 941.32 133.047C940.987 133.255 940.745 133.56 940.594 133.961C940.443 134.362 940.367 134.94 940.367 135.695V140H938.961ZM957.969 137.328L959.422 137.508C959.193 138.357 958.768 139.016 958.148 139.484C957.529 139.953 956.737 140.188 955.773 140.188C954.56 140.188 953.596 139.815 952.883 139.07C952.174 138.32 951.82 137.271 951.82 135.922C951.82 134.526 952.18 133.443 952.898 132.672C953.617 131.901 954.549 131.516 955.695 131.516C956.805 131.516 957.711 131.893 958.414 132.648C959.117 133.404 959.469 134.466 959.469 135.836C959.469 135.919 959.466 136.044 959.461 136.211H953.273C953.326 137.122 953.583 137.82 954.047 138.305C954.51 138.789 955.089 139.031 955.781 139.031C956.297 139.031 956.737 138.896 957.102 138.625C957.466 138.354 957.755 137.922 957.969 137.328ZM953.352 135.055H957.984C957.922 134.357 957.745 133.833 957.453 133.484C957.005 132.943 956.424 132.672 955.711 132.672C955.065 132.672 954.521 132.888 954.078 133.32C953.641 133.753 953.398 134.331 953.352 135.055ZM961.195 140V131.703H962.461V132.883C963.07 131.971 963.951 131.516 965.102 131.516C965.602 131.516 966.06 131.607 966.477 131.789C966.898 131.966 967.214 132.201 967.422 132.492C967.63 132.784 967.776 133.13 967.859 133.531C967.911 133.792 967.938 134.247 967.938 134.898V140H966.531V134.953C966.531 134.38 966.477 133.953 966.367 133.672C966.258 133.385 966.062 133.159 965.781 132.992C965.505 132.82 965.18 132.734 964.805 132.734C964.206 132.734 963.688 132.924 963.25 133.305C962.818 133.685 962.602 134.406 962.602 135.469V140H961.195ZM973.172 138.742L973.375 139.984C972.979 140.068 972.625 140.109 972.312 140.109C971.802 140.109 971.406 140.029 971.125 139.867C970.844 139.706 970.646 139.495 970.531 139.234C970.417 138.969 970.359 138.414 970.359 137.57V132.797H969.328V131.703H970.359V129.648L971.758 128.805V131.703H973.172V132.797H971.758V137.648C971.758 138.049 971.781 138.307 971.828 138.422C971.88 138.536 971.961 138.628 972.07 138.695C972.185 138.763 972.346 138.797 972.555 138.797C972.711 138.797 972.917 138.779 973.172 138.742ZM973.992 137.523L975.383 137.305C975.461 137.862 975.677 138.289 976.031 138.586C976.391 138.883 976.891 139.031 977.531 139.031C978.177 139.031 978.656 138.901 978.969 138.641C979.281 138.375 979.438 138.065 979.438 137.711C979.438 137.393 979.299 137.143 979.023 136.961C978.831 136.836 978.352 136.677 977.586 136.484C976.555 136.224 975.839 136 975.438 135.812C975.042 135.62 974.74 135.357 974.531 135.023C974.328 134.685 974.227 134.312 974.227 133.906C974.227 133.536 974.31 133.195 974.477 132.883C974.648 132.565 974.88 132.302 975.172 132.094C975.391 131.932 975.688 131.797 976.062 131.688C976.443 131.573 976.849 131.516 977.281 131.516C977.932 131.516 978.503 131.609 978.992 131.797C979.487 131.984 979.852 132.24 980.086 132.562C980.32 132.88 980.482 133.307 980.57 133.844L979.195 134.031C979.133 133.604 978.951 133.271 978.648 133.031C978.352 132.792 977.93 132.672 977.383 132.672C976.737 132.672 976.276 132.779 976 132.992C975.724 133.206 975.586 133.456 975.586 133.742C975.586 133.924 975.643 134.089 975.758 134.234C975.872 134.385 976.052 134.51 976.297 134.609C976.438 134.661 976.852 134.781 977.539 134.969C978.534 135.234 979.227 135.453 979.617 135.625C980.013 135.792 980.323 136.036 980.547 136.359C980.771 136.682 980.883 137.083 980.883 137.562C980.883 138.031 980.745 138.474 980.469 138.891C980.198 139.302 979.805 139.622 979.289 139.852C978.773 140.076 978.19 140.188 977.539 140.188C976.461 140.188 975.638 139.964 975.07 139.516C974.508 139.068 974.148 138.404 973.992 137.523Z" fill="#3E3E3D"/>
<g opacity="0.5">
<path d="M579.5 158.5H1159" stroke="#CDCCCB"/>
</g>
</g>
<rect x="0.5" y="0.5" width="1158" height="158" rx="7.5" stroke="#CDCCCB"/>
<defs>
<clipPath id="clip0_322_43587">
<rect width="1159" height="159" rx="8" fill="white"/>
</clipPath>
</defs>
</svg>
