<svg viewBox="0 0 20 20" fill="none" xmlns="http://www.w3.org/2000/svg">
<path d="M4.16667 17.5C3.70833 17.5 3.31597 17.3368 2.98958 17.0104C2.66319 16.684 2.5 16.2917 2.5 15.8333V4.16667C2.5 3.70833 2.66319 3.31597 2.98958 2.98958C3.31597 2.66319 3.70833 2.5 4.16667 2.5H15.8333C16.2917 2.5 16.684 2.66319 17.0104 2.98958C17.3368 3.31597 17.5 3.70833 17.5 4.16667V15.8333C17.5 16.2917 17.3368 16.684 17.0104 17.0104C16.684 17.3368 16.2917 17.5 15.8333 17.5H4.16667ZM10 13.3333C10.4444 13.3333 10.8542 13.2188 11.2292 12.9896C11.6042 12.7604 11.9097 12.4583 12.1458 12.0833C12.2292 11.9583 12.3333 11.8576 12.4583 11.7812C12.5833 11.7049 12.7222 11.6667 12.875 11.6667H15.8333V4.16667H4.16667V11.6667H7.125C7.27778 11.6667 7.41667 11.7049 7.54167 11.7812C7.66667 11.8576 7.77083 11.9583 7.85417 12.0833C8.09028 12.4583 8.39583 12.7604 8.77083 12.9896C9.14583 13.2188 9.55556 13.3333 10 13.3333Z" fill="currentColor"/>
</svg>