<svg width="364" height="140" viewBox="0 0 364 140" fill="none" xmlns="http://www.w3.org/2000/svg">
<rect width="364" height="140" fill="white"/>
<mask id="path-1-inside-1_341_43982" fill="white">
<path d="M55 70C55 56.7452 65.7452 46 79 46H182V94H79C65.7452 94 55 83.2548 55 70Z"/>
</mask>
<path d="M55 70C55 56.7452 65.7452 46 79 46H182V94H79C65.7452 94 55 83.2548 55 70Z" fill="#2964A0"/>
<path d="M54 70C54 56.1929 65.1929 45 79 45H182V47H79C66.2975 47 56 57.2975 56 70H54ZM182 95H79C65.1929 95 54 83.8071 54 70H56C56 82.7025 66.2975 93 79 93H182V95ZM79 95C65.1929 95 54 83.8071 54 70C54 56.1929 65.1929 45 79 45V47C66.2975 47 56 57.2975 56 70C56 82.7025 66.2975 93 79 93V95ZM182 46V94V46Z" fill="white" mask="url(#path-1-inside-1_341_43982)"/>
<path d="M59 70C59 58.9543 67.9543 50 79 50H160C171.046 50 180 58.9543 180 70C180 81.0457 171.046 90 160 90H79C67.9543 90 59 81.0457 59 70Z" fill="white"/>
<path d="M77.0008 71.5998L82.9008 65.6998C83.0841 65.5165 83.3174 65.4248 83.6008 65.4248C83.8841 65.4248 84.1174 65.5165 84.3008 65.6998C84.4841 65.8831 84.5758 66.1165 84.5758 66.3998C84.5758 66.6831 84.4841 66.9165 84.3008 67.0998L77.7008 73.6998C77.5008 73.8998 77.2674 73.9998 77.0008 73.9998C76.7341 73.9998 76.5008 73.8998 76.3008 73.6998L73.7008 71.0998C73.5174 70.9165 73.4258 70.6831 73.4258 70.3998C73.4258 70.1165 73.5174 69.8831 73.7008 69.6998C73.8841 69.5165 74.1174 69.4248 74.4008 69.4248C74.6841 69.4248 74.9174 69.5165 75.1008 69.6998L77.0008 71.5998Z" fill="#2964A0"/>
<path d="M109.7 77C109.367 77 109.107 76.9067 108.92 76.72C108.733 76.5333 108.64 76.2733 108.64 75.94V63.88C108.64 63.5333 108.727 63.2733 108.9 63.1C109.087 62.9133 109.347 62.82 109.68 62.82C110.013 62.82 110.267 62.9133 110.44 63.1C110.627 63.2733 110.72 63.5333 110.72 63.88V75.22H116.92C117.213 75.22 117.44 75.3 117.6 75.46C117.76 75.6067 117.84 75.82 117.84 76.1C117.84 76.38 117.76 76.6 117.6 76.76C117.44 76.92 117.213 77 116.92 77H109.7ZM122.075 77.18C121.395 77.18 120.782 77.0467 120.235 76.78C119.702 76.5133 119.282 76.1533 118.975 75.7C118.668 75.2467 118.515 74.7333 118.515 74.16C118.515 73.44 118.695 72.8733 119.055 72.46C119.428 72.0333 120.035 71.7333 120.875 71.56C121.728 71.3733 122.875 71.28 124.315 71.28H125.255V72.52H124.335C123.375 72.52 122.615 72.5667 122.055 72.66C121.495 72.7533 121.095 72.9133 120.855 73.14C120.628 73.3533 120.515 73.6533 120.515 74.04C120.515 74.5467 120.688 74.96 121.035 75.28C121.382 75.5867 121.862 75.74 122.475 75.74C122.968 75.74 123.402 75.6267 123.775 75.4C124.148 75.16 124.442 74.84 124.655 74.44C124.882 74.04 124.995 73.58 124.995 73.06V70.76C124.995 70 124.835 69.4533 124.515 69.12C124.195 68.7867 123.668 68.62 122.935 68.62C122.508 68.62 122.062 68.6733 121.595 68.78C121.142 68.8867 120.668 69.0667 120.175 69.32C119.948 69.4267 119.755 69.46 119.595 69.42C119.435 69.38 119.308 69.2933 119.215 69.16C119.122 69.0133 119.068 68.86 119.055 68.7C119.055 68.5267 119.095 68.36 119.175 68.2C119.268 68.04 119.422 67.92 119.635 67.84C120.222 67.56 120.802 67.36 121.375 67.24C121.948 67.12 122.488 67.06 122.995 67.06C123.888 67.06 124.622 67.2 125.195 67.48C125.782 67.76 126.215 68.1867 126.495 68.76C126.775 69.3333 126.915 70.0733 126.915 70.98V76.12C126.915 76.44 126.835 76.6933 126.675 76.88C126.515 77.0533 126.282 77.14 125.975 77.14C125.682 77.14 125.448 77.0533 125.275 76.88C125.102 76.6933 125.015 76.44 125.015 76.12V74.82H125.195C125.088 75.3133 124.888 75.74 124.595 76.1C124.315 76.4467 123.962 76.7133 123.535 76.9C123.108 77.0867 122.622 77.18 122.075 77.18ZM134.437 77.18C133.584 77.18 132.844 76.9667 132.217 76.54C131.591 76.1 131.171 75.52 130.957 74.8L131.177 74.44V76.12C131.177 76.44 131.091 76.6933 130.917 76.88C130.744 77.0533 130.504 77.14 130.197 77.14C129.877 77.14 129.631 77.0533 129.457 76.88C129.284 76.6933 129.197 76.44 129.197 76.12V63.78C129.197 63.4467 129.284 63.1933 129.457 63.02C129.631 62.8467 129.877 62.76 130.197 62.76C130.517 62.76 130.764 62.8467 130.937 63.02C131.124 63.1933 131.217 63.4467 131.217 63.78V69.38H130.977C131.191 68.6733 131.611 68.1133 132.237 67.7C132.864 67.2733 133.597 67.06 134.437 67.06C135.317 67.06 136.077 67.2667 136.717 67.68C137.357 68.0933 137.851 68.6733 138.197 69.42C138.557 70.1667 138.737 71.0667 138.737 72.12C138.737 73.1467 138.557 74.0467 138.197 74.82C137.851 75.58 137.351 76.1667 136.697 76.58C136.057 76.98 135.304 77.18 134.437 77.18ZM133.937 75.62C134.497 75.62 134.984 75.4867 135.397 75.22C135.811 74.9533 136.131 74.56 136.357 74.04C136.584 73.52 136.697 72.88 136.697 72.12C136.697 70.9733 136.444 70.1067 135.937 69.52C135.444 68.9333 134.777 68.64 133.937 68.64C133.391 68.64 132.904 68.7733 132.477 69.04C132.064 69.2933 131.744 69.68 131.517 70.2C131.291 70.72 131.177 71.36 131.177 72.12C131.177 73.2533 131.431 74.12 131.937 74.72C132.444 75.32 133.111 75.62 133.937 75.62ZM145.094 77.18C144.027 77.18 143.107 76.98 142.334 76.58C141.574 76.1667 140.98 75.5867 140.554 74.84C140.14 74.08 139.934 73.18 139.934 72.14C139.934 71.1267 140.14 70.24 140.554 69.48C140.967 68.72 141.534 68.1267 142.254 67.7C142.974 67.2733 143.794 67.06 144.714 67.06C145.394 67.06 146 67.1733 146.534 67.4C147.067 67.6133 147.52 67.9333 147.894 68.36C148.28 68.7733 148.567 69.28 148.754 69.88C148.954 70.48 149.054 71.1533 149.054 71.9C149.054 72.1267 148.987 72.3 148.854 72.42C148.72 72.5267 148.52 72.58 148.254 72.58H141.534V71.34H147.694L147.354 71.62C147.354 70.9533 147.254 70.3867 147.054 69.92C146.867 69.4533 146.58 69.1 146.194 68.86C145.82 68.6067 145.354 68.48 144.794 68.48C144.167 68.48 143.634 68.6267 143.194 68.92C142.767 69.2133 142.44 69.62 142.214 70.14C141.987 70.66 141.874 71.2667 141.874 71.96V72.08C141.874 73.2533 142.147 74.14 142.694 74.74C143.254 75.3267 144.06 75.62 145.114 75.62C145.514 75.62 145.934 75.5667 146.374 75.46C146.827 75.3533 147.254 75.1733 147.654 74.92C147.88 74.7867 148.08 74.7267 148.254 74.74C148.44 74.7533 148.587 74.8133 148.694 74.92C148.814 75.0267 148.887 75.16 148.914 75.32C148.94 75.48 148.914 75.6467 148.834 75.82C148.754 75.98 148.614 76.1267 148.414 76.26C147.96 76.5667 147.434 76.8 146.834 76.96C146.234 77.1067 145.654 77.18 145.094 77.18ZM153.896 77.18C152.856 77.18 152.069 76.88 151.536 76.28C151.016 75.6667 150.756 74.7867 150.756 73.64V63.78C150.756 63.4467 150.843 63.1933 151.016 63.02C151.189 62.8467 151.436 62.76 151.756 62.76C152.076 62.76 152.323 62.8467 152.496 63.02C152.683 63.1933 152.776 63.4467 152.776 63.78V73.52C152.776 74.1867 152.909 74.6867 153.176 75.02C153.456 75.34 153.856 75.5 154.376 75.5C154.496 75.5 154.603 75.5 154.696 75.5C154.789 75.4867 154.883 75.4733 154.976 75.46C155.136 75.4467 155.249 75.4933 155.316 75.6C155.383 75.6933 155.416 75.8933 155.416 76.2C155.416 76.48 155.356 76.7 155.236 76.86C155.116 77.0067 154.923 77.1 154.656 77.14C154.536 77.1533 154.409 77.16 154.276 77.16C154.143 77.1733 154.016 77.18 153.896 77.18Z" fill="#2964A0"/>
<mask id="path-6-inside-2_341_43982" fill="white">
<path d="M182 46H285C298.255 46 309 56.7452 309 70C309 83.2548 298.255 94 285 94H182V46Z"/>
</mask>
<path d="M182 46H285C298.255 46 309 56.7452 309 70C309 83.2548 298.255 94 285 94H182V46Z" fill="#2964A0"/>
<path d="M182 45H285C298.807 45 310 56.1929 310 70H308C308 57.2975 297.703 47 285 47H182V45ZM310 70C310 83.8071 298.807 95 285 95H182V93H285C297.703 93 308 82.7025 308 70H310ZM182 94V46V94ZM285 45C298.807 45 310 56.1929 310 70C310 83.8071 298.807 95 285 95V93C297.703 93 308 82.7025 308 70C308 57.2975 297.703 47 285 47V45Z" fill="white" mask="url(#path-6-inside-2_341_43982)"/>
<path d="M222.7 77C222.367 77 222.107 76.9067 221.92 76.72C221.733 76.5333 221.64 76.2733 221.64 75.94V63.88C221.64 63.5333 221.727 63.2733 221.9 63.1C222.087 62.9133 222.347 62.82 222.68 62.82C223.013 62.82 223.267 62.9133 223.44 63.1C223.627 63.2733 223.72 63.5333 223.72 63.88V75.22H229.92C230.213 75.22 230.44 75.3 230.6 75.46C230.76 75.6067 230.84 75.82 230.84 76.1C230.84 76.38 230.76 76.6 230.6 76.76C230.44 76.92 230.213 77 229.92 77H222.7ZM235.075 77.18C234.395 77.18 233.782 77.0467 233.235 76.78C232.702 76.5133 232.282 76.1533 231.975 75.7C231.668 75.2467 231.515 74.7333 231.515 74.16C231.515 73.44 231.695 72.8733 232.055 72.46C232.428 72.0333 233.035 71.7333 233.875 71.56C234.728 71.3733 235.875 71.28 237.315 71.28H238.255V72.52H237.335C236.375 72.52 235.615 72.5667 235.055 72.66C234.495 72.7533 234.095 72.9133 233.855 73.14C233.628 73.3533 233.515 73.6533 233.515 74.04C233.515 74.5467 233.688 74.96 234.035 75.28C234.382 75.5867 234.862 75.74 235.475 75.74C235.968 75.74 236.402 75.6267 236.775 75.4C237.148 75.16 237.442 74.84 237.655 74.44C237.882 74.04 237.995 73.58 237.995 73.06V70.76C237.995 70 237.835 69.4533 237.515 69.12C237.195 68.7867 236.668 68.62 235.935 68.62C235.508 68.62 235.062 68.6733 234.595 68.78C234.142 68.8867 233.668 69.0667 233.175 69.32C232.948 69.4267 232.755 69.46 232.595 69.42C232.435 69.38 232.308 69.2933 232.215 69.16C232.122 69.0133 232.068 68.86 232.055 68.7C232.055 68.5267 232.095 68.36 232.175 68.2C232.268 68.04 232.422 67.92 232.635 67.84C233.222 67.56 233.802 67.36 234.375 67.24C234.948 67.12 235.488 67.06 235.995 67.06C236.888 67.06 237.622 67.2 238.195 67.48C238.782 67.76 239.215 68.1867 239.495 68.76C239.775 69.3333 239.915 70.0733 239.915 70.98V76.12C239.915 76.44 239.835 76.6933 239.675 76.88C239.515 77.0533 239.282 77.14 238.975 77.14C238.682 77.14 238.448 77.0533 238.275 76.88C238.102 76.6933 238.015 76.44 238.015 76.12V74.82H238.195C238.088 75.3133 237.888 75.74 237.595 76.1C237.315 76.4467 236.962 76.7133 236.535 76.9C236.108 77.0867 235.622 77.18 235.075 77.18ZM247.437 77.18C246.584 77.18 245.844 76.9667 245.217 76.54C244.591 76.1 244.171 75.52 243.957 74.8L244.177 74.44V76.12C244.177 76.44 244.091 76.6933 243.917 76.88C243.744 77.0533 243.504 77.14 243.197 77.14C242.877 77.14 242.631 77.0533 242.457 76.88C242.284 76.6933 242.197 76.44 242.197 76.12V63.78C242.197 63.4467 242.284 63.1933 242.457 63.02C242.631 62.8467 242.877 62.76 243.197 62.76C243.517 62.76 243.764 62.8467 243.937 63.02C244.124 63.1933 244.217 63.4467 244.217 63.78V69.38H243.977C244.191 68.6733 244.611 68.1133 245.237 67.7C245.864 67.2733 246.597 67.06 247.437 67.06C248.317 67.06 249.077 67.2667 249.717 67.68C250.357 68.0933 250.851 68.6733 251.197 69.42C251.557 70.1667 251.737 71.0667 251.737 72.12C251.737 73.1467 251.557 74.0467 251.197 74.82C250.851 75.58 250.351 76.1667 249.697 76.58C249.057 76.98 248.304 77.18 247.437 77.18ZM246.937 75.62C247.497 75.62 247.984 75.4867 248.397 75.22C248.811 74.9533 249.131 74.56 249.357 74.04C249.584 73.52 249.697 72.88 249.697 72.12C249.697 70.9733 249.444 70.1067 248.937 69.52C248.444 68.9333 247.777 68.64 246.937 68.64C246.391 68.64 245.904 68.7733 245.477 69.04C245.064 69.2933 244.744 69.68 244.517 70.2C244.291 70.72 244.177 71.36 244.177 72.12C244.177 73.2533 244.431 74.12 244.937 74.72C245.444 75.32 246.111 75.62 246.937 75.62ZM258.094 77.18C257.027 77.18 256.107 76.98 255.334 76.58C254.574 76.1667 253.98 75.5867 253.554 74.84C253.14 74.08 252.934 73.18 252.934 72.14C252.934 71.1267 253.14 70.24 253.554 69.48C253.967 68.72 254.534 68.1267 255.254 67.7C255.974 67.2733 256.794 67.06 257.714 67.06C258.394 67.06 259 67.1733 259.534 67.4C260.067 67.6133 260.52 67.9333 260.894 68.36C261.28 68.7733 261.567 69.28 261.754 69.88C261.954 70.48 262.054 71.1533 262.054 71.9C262.054 72.1267 261.987 72.3 261.854 72.42C261.72 72.5267 261.52 72.58 261.254 72.58H254.534V71.34H260.694L260.354 71.62C260.354 70.9533 260.254 70.3867 260.054 69.92C259.867 69.4533 259.58 69.1 259.194 68.86C258.82 68.6067 258.354 68.48 257.794 68.48C257.167 68.48 256.634 68.6267 256.194 68.92C255.767 69.2133 255.44 69.62 255.214 70.14C254.987 70.66 254.874 71.2667 254.874 71.96V72.08C254.874 73.2533 255.147 74.14 255.694 74.74C256.254 75.3267 257.06 75.62 258.114 75.62C258.514 75.62 258.934 75.5667 259.374 75.46C259.827 75.3533 260.254 75.1733 260.654 74.92C260.88 74.7867 261.08 74.7267 261.254 74.74C261.44 74.7533 261.587 74.8133 261.694 74.92C261.814 75.0267 261.887 75.16 261.914 75.32C261.94 75.48 261.914 75.6467 261.834 75.82C261.754 75.98 261.614 76.1267 261.414 76.26C260.96 76.5667 260.434 76.8 259.834 76.96C259.234 77.1067 258.654 77.18 258.094 77.18ZM266.896 77.18C265.856 77.18 265.069 76.88 264.536 76.28C264.016 75.6667 263.756 74.7867 263.756 73.64V63.78C263.756 63.4467 263.843 63.1933 264.016 63.02C264.189 62.8467 264.436 62.76 264.756 62.76C265.076 62.76 265.323 62.8467 265.496 63.02C265.683 63.1933 265.776 63.4467 265.776 63.78V73.52C265.776 74.1867 265.909 74.6867 266.176 75.02C266.456 75.34 266.856 75.5 267.376 75.5C267.496 75.5 267.603 75.5 267.696 75.5C267.789 75.4867 267.883 75.4733 267.976 75.46C268.136 75.4467 268.249 75.4933 268.316 75.6C268.383 75.6933 268.416 75.8933 268.416 76.2C268.416 76.48 268.356 76.7 268.236 76.86C268.116 77.0067 267.923 77.1 267.656 77.14C267.536 77.1533 267.409 77.16 267.276 77.16C267.143 77.1733 267.016 77.18 266.896 77.18Z" fill="white"/>
<path d="M19.1 77C18.82 77 18.6 76.92 18.44 76.76C18.28 76.6 18.2 76.3867 18.2 76.12C18.2 75.84 18.28 75.6267 18.44 75.48C18.6 75.3333 18.82 75.26 19.1 75.26H21.54V64.62H22.58L19.66 66.48C19.4467 66.6 19.2467 66.6467 19.06 66.62C18.8867 66.5933 18.7333 66.52 18.6 66.4C18.48 66.28 18.3933 66.1333 18.34 65.96C18.3 65.7867 18.3133 65.6067 18.38 65.42C18.46 65.2333 18.6 65.08 18.8 64.96L21.56 63.22C21.7867 63.0867 22 62.98 22.2 62.9C22.4133 62.8067 22.6133 62.76 22.8 62.76C23.0267 62.76 23.2133 62.8267 23.36 62.96C23.52 63.08 23.6 63.2867 23.6 63.58V75.26H25.84C26.1333 75.26 26.36 75.3333 26.52 75.48C26.68 75.6267 26.76 75.84 26.76 76.12C26.76 76.4 26.68 76.62 26.52 76.78C26.36 76.9267 26.1333 77 25.84 77H19.1ZM29.8922 77.08C29.5055 77.08 29.1922 76.96 28.9522 76.72C28.7122 76.48 28.5922 76.1733 28.5922 75.8C28.5922 75.4267 28.7122 75.1267 28.9522 74.9C29.1922 74.66 29.5055 74.54 29.8922 74.54C30.2789 74.54 30.5855 74.66 30.8122 74.9C31.0389 75.1267 31.1522 75.4267 31.1522 75.8C31.1522 76.1733 31.0389 76.48 30.8122 76.72C30.5855 76.96 30.2789 77.08 29.8922 77.08Z" fill="#737272"/>
<path d="M52.6667 69.5C52.6667 68.0272 51.4728 66.8333 50 66.8333C48.5272 66.8333 47.3333 68.0272 47.3333 69.5C47.3333 70.9728 48.5272 72.1667 50 72.1667C51.4728 72.1667 52.6667 70.9728 52.6667 69.5ZM50 69.5L50 69L33 69L33 69.5L33 70L50 70L50 69.5Z" fill="#737272"/>
<path d="M69.62 116C69.26 116 69 115.92 68.84 115.76C68.68 115.587 68.6 115.353 68.6 115.06C68.6 114.873 68.6467 114.693 68.74 114.52C68.8333 114.347 68.9667 114.167 69.14 113.98L73.4 109.42C74.0533 108.727 74.52 108.093 74.8 107.52C75.0933 106.933 75.24 106.347 75.24 105.76C75.24 105.013 75.0133 104.447 74.56 104.06C74.1067 103.673 73.44 103.48 72.56 103.48C72.0267 103.48 71.5133 103.56 71.02 103.72C70.5267 103.88 70.0333 104.14 69.54 104.5C69.34 104.633 69.1533 104.693 68.98 104.68C68.8067 104.667 68.6533 104.6 68.52 104.48C68.4 104.36 68.32 104.213 68.28 104.04C68.24 103.867 68.2467 103.687 68.3 103.5C68.3533 103.313 68.48 103.153 68.68 103.02C69.2267 102.607 69.86 102.287 70.58 102.06C71.3 101.833 72.0333 101.72 72.78 101.72C73.7533 101.72 74.5733 101.873 75.24 102.18C75.92 102.473 76.4333 102.907 76.78 103.48C77.1267 104.053 77.3 104.753 77.3 105.58C77.3 106.14 77.2067 106.687 77.02 107.22C76.8467 107.753 76.5733 108.3 76.2 108.86C75.84 109.407 75.3667 109.987 74.78 110.6L70.74 114.84V114.26H77.1C77.3933 114.26 77.62 114.333 77.78 114.48C77.94 114.627 78.02 114.84 78.02 115.12C78.02 115.4 77.94 115.62 77.78 115.78C77.62 115.927 77.3933 116 77.1 116H69.62ZM80.8922 116.08C80.5055 116.08 80.1922 115.96 79.9522 115.72C79.7122 115.48 79.5922 115.173 79.5922 114.8C79.5922 114.427 79.7122 114.127 79.9522 113.9C80.1922 113.66 80.5055 113.54 80.8922 113.54C81.2789 113.54 81.5855 113.66 81.8122 113.9C82.0389 114.127 82.1522 114.427 82.1522 114.8C82.1522 115.173 82.0389 115.48 81.8122 115.72C81.5855 115.96 81.2789 116.08 80.8922 116.08Z" fill="#737272"/>
<path d="M81 78.3333C79.5272 78.3333 78.3333 79.5272 78.3333 81C78.3333 82.4728 79.5272 83.6667 81 83.6667C82.4728 83.6667 83.6667 82.4728 83.6667 81C83.6667 79.5272 82.4728 78.3333 81 78.3333ZM81 81H80.5V97H81H81.5V81H81Z" fill="#737272"/>
<path d="M97.32 34.14C97 34.14 96.7467 34.0533 96.56 33.88C96.3733 33.6933 96.28 33.44 96.28 33.12V31.14H90.92C90.5867 31.14 90.32 31.0667 90.12 30.92C89.92 30.7733 89.82 30.5467 89.82 30.24C89.82 30.0667 89.86 29.88 89.94 29.68C90.0333 29.48 90.1933 29.22 90.42 28.9L96.24 20.44C96.3867 20.2133 96.5533 20.0467 96.74 19.94C96.9267 19.82 97.14 19.76 97.38 19.76C97.66 19.76 97.8867 19.8467 98.06 20.02C98.2467 20.18 98.34 20.4333 98.34 20.78V29.4H99.6C99.92 29.4 100.153 29.4733 100.3 29.62C100.46 29.7667 100.54 29.98 100.54 30.26C100.54 30.5533 100.46 30.7733 100.3 30.92C100.153 31.0667 99.92 31.14 99.6 31.14H98.34V33.12C98.34 33.44 98.2467 33.6933 98.06 33.88C97.8867 34.0533 97.64 34.14 97.32 34.14ZM96.28 29.4V22.34H96.82L91.6 29.96V29.4H96.28ZM102.892 34.08C102.506 34.08 102.192 33.96 101.952 33.72C101.712 33.48 101.592 33.1733 101.592 32.8C101.592 32.4267 101.712 32.1267 101.952 31.9C102.192 31.66 102.506 31.54 102.892 31.54C103.279 31.54 103.586 31.66 103.812 31.9C104.039 32.1267 104.152 32.4267 104.152 32.8C104.152 33.1733 104.039 33.48 103.812 33.72C103.586 33.96 103.279 34.08 102.892 34.08Z" fill="#737272"/>
<path d="M103 52.6667C104.473 52.6667 105.667 51.4728 105.667 50C105.667 48.5272 104.473 47.3333 103 47.3333C101.527 47.3333 100.333 48.5272 100.333 50C100.333 51.4728 101.527 52.6667 103 52.6667ZM103 50H103.5V34H103H102.5V50H103Z" fill="#737272"/>
<path d="M126.78 116.18C126.033 116.18 125.273 116.08 124.5 115.88C123.727 115.667 123.053 115.353 122.48 114.94C122.267 114.807 122.12 114.647 122.04 114.46C121.973 114.26 121.96 114.08 122 113.92C122.04 113.747 122.12 113.6 122.24 113.48C122.373 113.36 122.533 113.293 122.72 113.28C122.907 113.253 123.113 113.307 123.34 113.44C123.913 113.787 124.473 114.04 125.02 114.2C125.567 114.347 126.133 114.42 126.72 114.42C127.36 114.42 127.9 114.327 128.34 114.14C128.78 113.953 129.107 113.68 129.32 113.32C129.547 112.96 129.66 112.527 129.66 112.02C129.66 111.26 129.407 110.693 128.9 110.32C128.407 109.933 127.687 109.74 126.74 109.74H125.38C125.073 109.74 124.84 109.667 124.68 109.52C124.52 109.36 124.44 109.14 124.44 108.86C124.44 108.593 124.52 108.387 124.68 108.24C124.84 108.08 125.073 108 125.38 108H126.54C127.113 108 127.6 107.907 128 107.72C128.4 107.52 128.707 107.247 128.92 106.9C129.147 106.54 129.26 106.107 129.26 105.6C129.26 104.92 129.033 104.4 128.58 104.04C128.14 103.667 127.493 103.48 126.64 103.48C126.093 103.48 125.573 103.553 125.08 103.7C124.6 103.847 124.1 104.107 123.58 104.48C123.38 104.613 123.187 104.673 123 104.66C122.827 104.633 122.673 104.567 122.54 104.46C122.42 104.34 122.333 104.193 122.28 104.02C122.24 103.847 122.253 103.667 122.32 103.48C122.387 103.293 122.52 103.133 122.72 103C123.28 102.587 123.913 102.273 124.62 102.06C125.327 101.833 126.053 101.72 126.8 101.72C127.733 101.72 128.533 101.867 129.2 102.16C129.88 102.453 130.393 102.873 130.74 103.42C131.1 103.967 131.28 104.62 131.28 105.38C131.28 105.953 131.173 106.473 130.96 106.94C130.747 107.407 130.44 107.807 130.04 108.14C129.653 108.46 129.18 108.687 128.62 108.82V108.6C129.593 108.76 130.347 109.16 130.88 109.8C131.413 110.427 131.68 111.213 131.68 112.16C131.68 112.987 131.48 113.707 131.08 114.32C130.693 114.92 130.133 115.38 129.4 115.7C128.667 116.02 127.793 116.18 126.78 116.18ZM134.892 116.08C134.506 116.08 134.192 115.96 133.952 115.72C133.712 115.48 133.592 115.173 133.592 114.8C133.592 114.427 133.712 114.127 133.952 113.9C134.192 113.66 134.506 113.54 134.892 113.54C135.279 113.54 135.586 113.66 135.812 113.9C136.039 114.127 136.152 114.427 136.152 114.8C136.152 115.173 136.039 115.48 135.812 115.72C135.586 115.96 135.279 116.08 134.892 116.08Z" fill="#737272"/>
<path d="M135 78.3333C133.527 78.3333 132.333 79.5272 132.333 81C132.333 82.4728 133.527 83.6667 135 83.6667C136.473 83.6667 137.667 82.4728 137.667 81C137.667 79.5272 136.473 78.3333 135 78.3333ZM135 81H134.5V97H135H135.5V81H135Z" fill="#737272"/>
<path d="M239.22 116.18C238.487 116.18 237.747 116.08 237 115.88C236.253 115.667 235.573 115.34 234.96 114.9C234.76 114.78 234.627 114.627 234.56 114.44C234.493 114.253 234.48 114.073 234.52 113.9C234.56 113.713 234.64 113.56 234.76 113.44C234.893 113.32 235.053 113.253 235.24 113.24C235.427 113.213 235.627 113.267 235.84 113.4C236.36 113.733 236.893 113.987 237.44 114.16C238 114.333 238.58 114.42 239.18 114.42C239.793 114.42 240.32 114.307 240.76 114.08C241.2 113.853 241.533 113.54 241.76 113.14C242 112.727 242.12 112.247 242.12 111.7C242.12 110.86 241.873 110.173 241.38 109.64C240.887 109.107 240.2 108.84 239.32 108.84C238.813 108.84 238.34 108.933 237.9 109.12C237.46 109.293 237.04 109.587 236.64 110C236.547 110.107 236.42 110.207 236.26 110.3C236.113 110.38 235.947 110.42 235.76 110.42C235.48 110.42 235.267 110.347 235.12 110.2C234.973 110.053 234.9 109.853 234.9 109.6V102.82C234.9 102.527 234.98 102.3 235.14 102.14C235.3 101.98 235.527 101.9 235.82 101.9H242.52C242.813 101.9 243.04 101.973 243.2 102.12C243.36 102.267 243.44 102.48 243.44 102.76C243.44 103.04 243.36 103.26 243.2 103.42C243.04 103.567 242.813 103.64 242.52 103.64H236.92V108.72H236.36C236.72 108.213 237.193 107.82 237.78 107.54C238.38 107.26 239.04 107.12 239.76 107.12C240.653 107.12 241.427 107.307 242.08 107.68C242.733 108.053 243.24 108.58 243.6 109.26C243.96 109.927 244.14 110.707 244.14 111.6C244.14 112.507 243.94 113.307 243.54 114C243.14 114.68 242.573 115.213 241.84 115.6C241.107 115.987 240.233 116.18 239.22 116.18ZM246.892 116.08C246.506 116.08 246.192 115.96 245.952 115.72C245.712 115.48 245.592 115.173 245.592 114.8C245.592 114.427 245.712 114.127 245.952 113.9C246.192 113.66 246.506 113.54 246.892 113.54C247.279 113.54 247.586 113.66 247.812 113.9C248.039 114.127 248.152 114.427 248.152 114.8C248.152 115.173 248.039 115.48 247.812 115.72C247.586 115.96 247.279 116.08 246.892 116.08Z" fill="#737272"/>
<path d="M247 78.3333C245.527 78.3333 244.333 79.5272 244.333 81C244.333 82.4728 245.527 83.6667 247 83.6667C248.473 83.6667 249.667 82.4728 249.667 81C249.667 79.5272 248.473 78.3333 247 78.3333ZM247 81H246.5V97H247H247.5V81H247Z" fill="#737272"/>
</svg>
