<svg viewBox="0 0 20 20" fill="none" xmlns="http://www.w3.org/2000/svg">
<path d="M6.979 13.5417L11.1873 12.3334C11.4651 12.25 11.7047 12.1077 11.9061 11.9063C12.1075 11.7049 12.2498 11.4653 12.3332 11.1875L13.5415 6.97919C13.5832 6.82641 13.545 6.69099 13.4269 6.57294C13.3089 6.45488 13.1734 6.41669 13.0207 6.45835L8.81234 7.66669C8.53456 7.75002 8.29498 7.89238 8.09359 8.09377C7.8922 8.29516 7.74984 8.53474 7.6665 8.81252L6.45817 13.0209C6.4165 13.1736 6.4547 13.309 6.57275 13.4271C6.69081 13.5452 6.82623 13.5834 6.979 13.5417ZM9.99984 11.25C9.65261 11.25 9.35748 11.1285 9.11442 10.8854C8.87136 10.6424 8.74984 10.3472 8.74984 10C8.74984 9.6528 8.87136 9.35766 9.11442 9.1146C9.35748 8.87155 9.65261 8.75002 9.99984 8.75002C10.3471 8.75002 10.6422 8.87155 10.8853 9.1146C11.1283 9.35766 11.2498 9.6528 11.2498 10C11.2498 10.3472 11.1283 10.6424 10.8853 10.8854C10.6422 11.1285 10.3471 11.25 9.99984 11.25ZM9.99984 18.3334C8.84706 18.3334 7.76373 18.1146 6.74984 17.6771C5.73595 17.2396 4.854 16.6459 4.104 15.8959C3.354 15.1459 2.76025 14.2639 2.32275 13.25C1.88525 12.2361 1.6665 11.1528 1.6665 10C1.6665 8.84724 1.88525 7.76391 2.32275 6.75002C2.76025 5.73613 3.354 4.85419 4.104 4.10419C4.854 3.35419 5.73595 2.76044 6.74984 2.32294C7.76373 1.88544 8.84706 1.66669 9.99984 1.66669C11.1526 1.66669 12.2359 1.88544 13.2498 2.32294C14.2637 2.76044 15.1457 3.35419 15.8957 4.10419C16.6457 4.85419 17.2394 5.73613 17.6769 6.75002C18.1144 7.76391 18.3332 8.84724 18.3332 10C18.3332 11.1528 18.1144 12.2361 17.6769 13.25C17.2394 14.2639 16.6457 15.1459 15.8957 15.8959C15.1457 16.6459 14.2637 17.2396 13.2498 17.6771C12.2359 18.1146 11.1526 18.3334 9.99984 18.3334ZM9.99984 16.6667C11.8471 16.6667 13.42 16.0174 14.7186 14.7188C16.0172 13.4202 16.6665 11.8472 16.6665 10C16.6665 8.1528 16.0172 6.57988 14.7186 5.28127C13.42 3.98266 11.8471 3.33335 9.99984 3.33335C8.15261 3.33335 6.5797 3.98266 5.28109 5.28127C3.98248 6.57988 3.33317 8.1528 3.33317 10C3.33317 11.8472 3.98248 13.4202 5.28109 14.7188C6.5797 16.0174 8.15261 16.6667 9.99984 16.6667Z" fill="currentColor"/>
</svg>