<svg width="1159" height="159" viewBox="0 0 1159 159" fill="none" xmlns="http://www.w3.org/2000/svg">
<g clip-path="url(#clip0_414_61528)">
<rect width="579.5" height="61" fill="white"/>
<path d="M18.68 37.14C18.3467 37.14 18.0867 37.0467 17.9 36.86C17.7267 36.6733 17.64 36.4133 17.64 36.08V23.96C17.64 23.6133 17.7333 23.3533 17.92 23.18C18.1067 22.9933 18.3667 22.9 18.7 22.9H23.48C25 22.9 26.1733 23.28 27 24.04C27.8267 24.7867 28.24 25.84 28.24 27.2C28.24 28.5733 27.8267 29.64 27 30.4C26.1733 31.1467 25 31.52 23.48 31.52H19.72V36.08C19.72 36.4133 19.6333 36.6733 19.46 36.86C19.2867 37.0467 19.0267 37.14 18.68 37.14ZM19.72 29.86H23.18C24.18 29.86 24.9333 29.64 25.44 29.2C25.96 28.7467 26.22 28.08 26.22 27.2C26.22 26.3333 25.96 25.68 25.44 25.24C24.9333 24.7867 24.18 24.56 23.18 24.56H19.72V29.86ZM33.5233 37.18C32.5366 37.18 31.6833 36.9733 30.9633 36.56C30.2566 36.1467 29.7033 35.56 29.3033 34.8C28.9033 34.04 28.7033 33.1467 28.7033 32.12C28.7033 31.3333 28.8166 30.6333 29.0433 30.02C29.2699 29.4067 29.5899 28.88 30.0033 28.44C30.4299 27.9867 30.9366 27.6467 31.5233 27.42C32.1233 27.18 32.7899 27.06 33.5233 27.06C34.4966 27.06 35.3366 27.2667 36.0433 27.68C36.7633 28.0933 37.3233 28.68 37.7233 29.44C38.1233 30.1867 38.3233 31.08 38.3233 32.12C38.3233 32.8933 38.2099 33.5933 37.9833 34.22C37.7566 34.8467 37.4299 35.38 37.0033 35.82C36.5899 36.26 36.0833 36.6 35.4833 36.84C34.8966 37.0667 34.2433 37.18 33.5233 37.18ZM33.5233 35.62C34.0699 35.62 34.5499 35.4867 34.9633 35.22C35.3766 34.9533 35.6966 34.56 35.9233 34.04C36.1633 33.52 36.2833 32.88 36.2833 32.12C36.2833 30.9733 36.0299 30.1067 35.5233 29.52C35.0166 28.9333 34.3499 28.64 33.5233 28.64C32.9633 28.64 32.4766 28.7733 32.0633 29.04C31.6499 29.2933 31.3233 29.68 31.0833 30.2C30.8566 30.72 30.7433 31.36 30.7433 32.12C30.7433 33.2533 30.9966 34.12 31.5033 34.72C32.0099 35.32 32.6833 35.62 33.5233 35.62ZM43.5119 37.18C42.9252 37.18 42.3185 37.1133 41.6919 36.98C41.0785 36.8467 40.5119 36.62 39.9919 36.3C39.8185 36.18 39.6985 36.0467 39.6319 35.9C39.5652 35.7533 39.5385 35.6067 39.5519 35.46C39.5785 35.3 39.6385 35.1667 39.7319 35.06C39.8385 34.94 39.9652 34.8667 40.1119 34.84C40.2719 34.8133 40.4385 34.8467 40.6119 34.94C41.1319 35.2333 41.6319 35.44 42.1119 35.56C42.5919 35.6667 43.0652 35.72 43.5319 35.72C44.2385 35.72 44.7719 35.5933 45.1319 35.34C45.4919 35.0867 45.6719 34.7467 45.6719 34.32C45.6719 33.9733 45.5519 33.7067 45.3119 33.52C45.0719 33.32 44.7119 33.1667 44.2319 33.06L42.3319 32.68C41.5052 32.5067 40.8785 32.2 40.4519 31.76C40.0252 31.32 39.8119 30.76 39.8119 30.08C39.8119 29.4667 39.9785 28.9333 40.3119 28.48C40.6452 28.0267 41.1119 27.68 41.7119 27.44C42.3119 27.1867 43.0052 27.06 43.7919 27.06C44.3785 27.06 44.9319 27.1333 45.4519 27.28C45.9719 27.4267 46.4519 27.6467 46.8919 27.94C47.0652 28.0333 47.1785 28.16 47.2319 28.32C47.2852 28.4667 47.2919 28.6133 47.2519 28.76C47.2252 28.9067 47.1585 29.04 47.0519 29.16C46.9452 29.2667 46.8119 29.3333 46.6519 29.36C46.5052 29.3733 46.3385 29.3333 46.1519 29.24C45.7519 28.9867 45.3519 28.8067 44.9519 28.7C44.5652 28.5933 44.1785 28.54 43.7919 28.54C43.0852 28.54 42.5519 28.6733 42.1919 28.94C41.8452 29.1933 41.6719 29.54 41.6719 29.98C41.6719 30.3133 41.7785 30.5867 41.9919 30.8C42.2052 31.0133 42.5385 31.1667 42.9919 31.26L44.8919 31.64C45.7585 31.8133 46.4119 32.1067 46.8519 32.52C47.3052 32.9333 47.5319 33.4933 47.5319 34.2C47.5319 35.12 47.1652 35.8467 46.4319 36.38C45.6985 36.9133 44.7252 37.18 43.5119 37.18ZM50.2794 37.12C49.9594 37.12 49.7127 37.0267 49.5394 36.84C49.366 36.64 49.2794 36.3667 49.2794 36.02V28.22C49.2794 27.8733 49.366 27.6067 49.5394 27.42C49.7127 27.2333 49.9594 27.14 50.2794 27.14C50.5994 27.14 50.846 27.2333 51.0194 27.42C51.206 27.6067 51.2994 27.8733 51.2994 28.22V36.02C51.2994 36.3667 51.2127 36.64 51.0394 36.84C50.866 37.0267 50.6127 37.12 50.2794 37.12ZM50.2794 25.06C49.8794 25.06 49.566 24.96 49.3394 24.76C49.126 24.56 49.0194 24.28 49.0194 23.92C49.0194 23.5467 49.126 23.2667 49.3394 23.08C49.566 22.88 49.8794 22.78 50.2794 22.78C50.6794 22.78 50.986 22.88 51.1994 23.08C51.426 23.2667 51.5394 23.5467 51.5394 23.92C51.5394 24.28 51.426 24.56 51.1994 24.76C50.986 24.96 50.6794 25.06 50.2794 25.06ZM57.8027 37.18C57.0027 37.18 56.3293 37.04 55.7827 36.76C55.236 36.48 54.8293 36.0667 54.5627 35.52C54.296 34.9733 54.1627 34.3067 54.1627 33.52V28.8H52.9627C52.696 28.8 52.4893 28.7333 52.3427 28.6C52.196 28.4533 52.1227 28.26 52.1227 28.02C52.1227 27.7667 52.196 27.5733 52.3427 27.44C52.4893 27.3067 52.696 27.24 52.9627 27.24H54.1627V25.18C54.1627 24.8467 54.2493 24.5933 54.4227 24.42C54.6093 24.2467 54.8627 24.16 55.1827 24.16C55.5027 24.16 55.7493 24.2467 55.9227 24.42C56.096 24.5933 56.1827 24.8467 56.1827 25.18V27.24H58.5227C58.7893 27.24 58.996 27.3067 59.1427 27.44C59.2893 27.5733 59.3627 27.7667 59.3627 28.02C59.3627 28.26 59.2893 28.4533 59.1427 28.6C58.996 28.7333 58.7893 28.8 58.5227 28.8H56.1827V33.36C56.1827 34.0667 56.3293 34.6 56.6227 34.96C56.9293 35.32 57.4227 35.5 58.1027 35.5C58.3427 35.5 58.5493 35.48 58.7227 35.44C58.9093 35.3867 59.0627 35.3533 59.1827 35.34C59.3293 35.34 59.4493 35.3933 59.5427 35.5C59.636 35.5933 59.6827 35.78 59.6827 36.06C59.6827 36.26 59.6427 36.4467 59.5627 36.62C59.496 36.7933 59.3693 36.9067 59.1827 36.96C59.0227 37.0133 58.8027 37.06 58.5227 37.1C58.256 37.1533 58.016 37.18 57.8027 37.18ZM61.6231 37.12C61.3031 37.12 61.0565 37.0267 60.8831 36.84C60.7098 36.64 60.6231 36.3667 60.6231 36.02V28.22C60.6231 27.8733 60.7098 27.6067 60.8831 27.42C61.0565 27.2333 61.3031 27.14 61.6231 27.14C61.9431 27.14 62.1898 27.2333 62.3631 27.42C62.5498 27.6067 62.6431 27.8733 62.6431 28.22V36.02C62.6431 36.3667 62.5565 36.64 62.3831 36.84C62.2098 37.0267 61.9565 37.12 61.6231 37.12ZM61.6231 25.06C61.2231 25.06 60.9098 24.96 60.6831 24.76C60.4698 24.56 60.3631 24.28 60.3631 23.92C60.3631 23.5467 60.4698 23.2667 60.6831 23.08C60.9098 22.88 61.2231 22.78 61.6231 22.78C62.0231 22.78 62.3298 22.88 62.5431 23.08C62.7698 23.2667 62.8831 23.5467 62.8831 23.92C62.8831 24.28 62.7698 24.56 62.5431 24.76C62.3298 24.96 62.0231 25.06 61.6231 25.06ZM69.2264 37.18C68.2397 37.18 67.3864 36.9733 66.6664 36.56C65.9597 36.1467 65.4064 35.56 65.0064 34.8C64.6064 34.04 64.4064 33.1467 64.4064 32.12C64.4064 31.3333 64.5197 30.6333 64.7464 30.02C64.9731 29.4067 65.2931 28.88 65.7064 28.44C66.1331 27.9867 66.6397 27.6467 67.2264 27.42C67.8264 27.18 68.4931 27.06 69.2264 27.06C70.1997 27.06 71.0397 27.2667 71.7464 27.68C72.4664 28.0933 73.0264 28.68 73.4264 29.44C73.8264 30.1867 74.0264 31.08 74.0264 32.12C74.0264 32.8933 73.9131 33.5933 73.6864 34.22C73.4597 34.8467 73.1331 35.38 72.7064 35.82C72.2931 36.26 71.7864 36.6 71.1864 36.84C70.5997 37.0667 69.9464 37.18 69.2264 37.18ZM69.2264 35.62C69.7731 35.62 70.2531 35.4867 70.6664 35.22C71.0797 34.9533 71.3997 34.56 71.6264 34.04C71.8664 33.52 71.9864 32.88 71.9864 32.12C71.9864 30.9733 71.7331 30.1067 71.2264 29.52C70.7197 28.9333 70.0531 28.64 69.2264 28.64C68.6664 28.64 68.1797 28.7733 67.7664 29.04C67.3531 29.2933 67.0264 29.68 66.7864 30.2C66.5597 30.72 66.4464 31.36 66.4464 32.12C66.4464 33.2533 66.6997 34.12 67.2064 34.72C67.7131 35.32 68.3864 35.62 69.2264 35.62ZM76.795 37.14C76.475 37.14 76.2283 37.0533 76.055 36.88C75.8817 36.6933 75.795 36.44 75.795 36.12V28.12C75.795 27.7867 75.8817 27.5333 76.055 27.36C76.2283 27.1867 76.4683 27.1 76.775 27.1C77.095 27.1 77.335 27.1867 77.495 27.36C77.6683 27.5333 77.755 27.7867 77.755 28.12V29.68L77.535 29.32C77.8283 28.5733 78.2883 28.0133 78.915 27.64C79.5417 27.2533 80.2617 27.06 81.075 27.06C81.8483 27.06 82.4883 27.2067 82.995 27.5C83.515 27.78 83.9017 28.2133 84.155 28.8C84.4083 29.3733 84.535 30.1 84.535 30.98V36.12C84.535 36.44 84.4483 36.6933 84.275 36.88C84.1017 37.0533 83.855 37.14 83.535 37.14C83.2017 37.14 82.9483 37.0533 82.775 36.88C82.6017 36.6933 82.515 36.44 82.515 36.12V31.1C82.515 30.26 82.3483 29.6467 82.015 29.26C81.695 28.8733 81.1883 28.68 80.495 28.68C79.6817 28.68 79.0283 28.9333 78.535 29.44C78.055 29.9467 77.815 30.6267 77.815 31.48V36.12C77.815 36.8 77.475 37.14 76.795 37.14Z" fill="#201F1F"/>
<path d="M0 60.5H579.5" stroke="#CDCCCB"/>
<rect width="579.5" height="49" transform="translate(0 61)" fill="white"/>
<path d="M17.0547 91V79.5469H19.25V83.6719C19.9271 82.901 20.7292 82.5156 21.6562 82.5156C22.6667 82.5156 23.5026 82.8828 24.1641 83.6172C24.8255 84.3464 25.1562 85.3958 25.1562 86.7656C25.1562 88.1823 24.8177 89.2734 24.1406 90.0391C23.4688 90.8047 22.651 91.1875 21.6875 91.1875C21.2135 91.1875 20.7448 91.0703 20.2812 90.8359C19.8229 90.5964 19.4271 90.2448 19.0938 89.7812V91H17.0547ZM19.2344 86.6719C19.2344 87.5312 19.3698 88.1667 19.6406 88.5781C20.0208 89.1615 20.526 89.4531 21.1562 89.4531C21.6406 89.4531 22.0521 89.2474 22.3906 88.8359C22.7344 88.4193 22.9062 87.7656 22.9062 86.875C22.9062 85.9271 22.7344 85.2448 22.3906 84.8281C22.0469 84.4062 21.6068 84.1953 21.0703 84.1953C20.5443 84.1953 20.1068 84.401 19.7578 84.8125C19.4089 85.2188 19.2344 85.8385 19.2344 86.6719ZM29.0312 91H26.8359V82.7031H28.875V83.8828C29.224 83.3255 29.5365 82.9583 29.8125 82.7812C30.0938 82.6042 30.4115 82.5156 30.7656 82.5156C31.2656 82.5156 31.7474 82.6536 32.2109 82.9297L31.5312 84.8438C31.1615 84.6042 30.8177 84.4844 30.5 84.4844C30.1927 84.4844 29.9323 84.5703 29.7188 84.7422C29.5052 84.9089 29.3359 85.2135 29.2109 85.6562C29.0911 86.099 29.0312 87.026 29.0312 88.4375V91ZM34.8047 85.2344L32.8125 84.875C33.0365 84.0729 33.4219 83.4792 33.9688 83.0938C34.5156 82.7083 35.3281 82.5156 36.4062 82.5156C37.3854 82.5156 38.1146 82.6328 38.5938 82.8672C39.0729 83.0964 39.4089 83.3906 39.6016 83.75C39.7995 84.1042 39.8984 84.7578 39.8984 85.7109L39.875 88.2734C39.875 89.0026 39.9089 89.5417 39.9766 89.8906C40.0495 90.2344 40.1823 90.6042 40.375 91H38.2031C38.1458 90.8542 38.0755 90.638 37.9922 90.3516C37.9557 90.2214 37.9297 90.1354 37.9141 90.0938C37.5391 90.4583 37.138 90.7318 36.7109 90.9141C36.2839 91.0964 35.8281 91.1875 35.3438 91.1875C34.4896 91.1875 33.8151 90.9557 33.3203 90.4922C32.8307 90.0286 32.5859 89.4427 32.5859 88.7344C32.5859 88.2656 32.6979 87.849 32.9219 87.4844C33.1458 87.1146 33.4583 86.8333 33.8594 86.6406C34.2656 86.4427 34.849 86.2708 35.6094 86.125C36.6354 85.9323 37.3464 85.7526 37.7422 85.5859V85.3672C37.7422 84.9453 37.638 84.6458 37.4297 84.4688C37.2214 84.2865 36.8281 84.1953 36.25 84.1953C35.8594 84.1953 35.5547 84.2734 35.3359 84.4297C35.1172 84.5807 34.9401 84.849 34.8047 85.2344ZM37.7422 87.0156C37.4609 87.1094 37.0156 87.2214 36.4062 87.3516C35.7969 87.4818 35.3984 87.6094 35.2109 87.7344C34.9245 87.9375 34.7812 88.1953 34.7812 88.5078C34.7812 88.8151 34.8958 89.0807 35.125 89.3047C35.3542 89.5286 35.6458 89.6406 36 89.6406C36.3958 89.6406 36.7734 89.5104 37.1328 89.25C37.3984 89.0521 37.5729 88.8099 37.6562 88.5234C37.7135 88.3359 37.7422 87.9792 37.7422 87.4531V87.0156ZM49.6172 91H47.4219V86.7656C47.4219 85.8698 47.375 85.2917 47.2812 85.0312C47.1875 84.7656 47.0339 84.5599 46.8203 84.4141C46.612 84.2682 46.3594 84.1953 46.0625 84.1953C45.6823 84.1953 45.3411 84.2995 45.0391 84.5078C44.737 84.7161 44.5286 84.9922 44.4141 85.3359C44.3047 85.6797 44.25 86.3151 44.25 87.2422V91H42.0547V82.7031H44.0938V83.9219C44.8177 82.9844 45.7292 82.5156 46.8281 82.5156C47.3125 82.5156 47.7552 82.6042 48.1562 82.7812C48.5573 82.9531 48.8594 83.1745 49.0625 83.4453C49.2708 83.7161 49.4141 84.0234 49.4922 84.3672C49.5755 84.7109 49.6172 85.2031 49.6172 85.8438V91ZM59.4609 91H57.4219V89.7812C57.0833 90.2552 56.6823 90.6094 56.2188 90.8438C55.7604 91.0729 55.2969 91.1875 54.8281 91.1875C53.875 91.1875 53.0573 90.8047 52.375 90.0391C51.6979 89.2682 51.3594 88.1953 51.3594 86.8203C51.3594 85.4141 51.6901 84.3464 52.3516 83.6172C53.013 82.8828 53.849 82.5156 54.8594 82.5156C55.7865 82.5156 56.5885 82.901 57.2656 83.6719V79.5469H59.4609V91ZM53.6016 86.6719C53.6016 87.5573 53.724 88.1979 53.9688 88.5938C54.3229 89.1667 54.8177 89.4531 55.4531 89.4531C55.9583 89.4531 56.388 89.2396 56.7422 88.8125C57.0964 88.3802 57.2734 87.737 57.2734 86.8828C57.2734 85.9297 57.1016 85.2448 56.7578 84.8281C56.4141 84.4062 55.974 84.1953 55.4375 84.1953C54.9167 84.1953 54.4792 84.4036 54.125 84.8203C53.776 85.2318 53.6016 85.849 53.6016 86.6719Z" fill="#3E3E3D"/>
<g opacity="0.5">
<path d="M0 109.5H579.5" stroke="#CDCCCB"/>
</g>
<rect width="579.5" height="49" transform="translate(0 110)" fill="white"/>
<path d="M19.25 140H17.0547V131.703H19.0938V132.883C19.4427 132.326 19.7552 131.958 20.0312 131.781C20.3125 131.604 20.6302 131.516 20.9844 131.516C21.4844 131.516 21.9661 131.654 22.4297 131.93L21.75 133.844C21.3802 133.604 21.0365 133.484 20.7188 133.484C20.4115 133.484 20.151 133.57 19.9375 133.742C19.724 133.909 19.5547 134.214 19.4297 134.656C19.3099 135.099 19.25 136.026 19.25 137.438V140ZM28.1875 137.359L30.375 137.727C30.0938 138.529 29.6484 139.141 29.0391 139.562C28.4349 139.979 27.6771 140.188 26.7656 140.188C25.3229 140.188 24.2552 139.716 23.5625 138.773C23.0156 138.018 22.7422 137.065 22.7422 135.914C22.7422 134.539 23.1016 133.464 23.8203 132.688C24.5391 131.906 25.4479 131.516 26.5469 131.516C27.7812 131.516 28.7552 131.924 29.4688 132.742C30.1823 133.555 30.5234 134.802 30.4922 136.484H24.9922C25.0078 137.135 25.1849 137.643 25.5234 138.008C25.862 138.367 26.2839 138.547 26.7891 138.547C27.1328 138.547 27.4219 138.453 27.6562 138.266C27.8906 138.078 28.0677 137.776 28.1875 137.359ZM28.3125 135.141C28.2969 134.505 28.1328 134.023 27.8203 133.695C27.5078 133.362 27.1276 133.195 26.6797 133.195C26.2005 133.195 25.8047 133.37 25.4922 133.719C25.1797 134.068 25.026 134.542 25.0312 135.141H28.3125ZM34.5703 140L31.2266 131.703H33.5312L35.0938 135.938L35.5469 137.352C35.6667 136.992 35.7422 136.755 35.7734 136.641C35.8464 136.406 35.9245 136.172 36.0078 135.938L37.5859 131.703H39.8438L36.5469 140H34.5703ZM46 137.359L48.1875 137.727C47.9062 138.529 47.4609 139.141 46.8516 139.562C46.2474 139.979 45.4896 140.188 44.5781 140.188C43.1354 140.188 42.0677 139.716 41.375 138.773C40.8281 138.018 40.5547 137.065 40.5547 135.914C40.5547 134.539 40.9141 133.464 41.6328 132.688C42.3516 131.906 43.2604 131.516 44.3594 131.516C45.5938 131.516 46.5677 131.924 47.2812 132.742C47.9948 133.555 48.3359 134.802 48.3047 136.484H42.8047C42.8203 137.135 42.9974 137.643 43.3359 138.008C43.6745 138.367 44.0964 138.547 44.6016 138.547C44.9453 138.547 45.2344 138.453 45.4688 138.266C45.7031 138.078 45.8802 137.776 46 137.359ZM46.125 135.141C46.1094 134.505 45.9453 134.023 45.6328 133.695C45.3203 133.362 44.9401 133.195 44.4922 133.195C44.013 133.195 43.6172 133.37 43.3047 133.719C42.9922 134.068 42.8385 134.542 42.8438 135.141H46.125ZM52.2031 140H50.0078V131.703H52.0469V132.883C52.3958 132.326 52.7083 131.958 52.9844 131.781C53.2656 131.604 53.5833 131.516 53.9375 131.516C54.4375 131.516 54.9193 131.654 55.3828 131.93L54.7031 133.844C54.3333 133.604 53.9896 133.484 53.6719 133.484C53.3646 133.484 53.1042 133.57 52.8906 133.742C52.6771 133.909 52.5078 134.214 52.3828 134.656C52.263 135.099 52.2031 136.026 52.2031 137.438V140ZM55.5625 137.633L57.7656 137.297C57.8594 137.724 58.0495 138.049 58.3359 138.273C58.6224 138.492 59.0234 138.602 59.5391 138.602C60.1068 138.602 60.5339 138.497 60.8203 138.289C61.013 138.143 61.1094 137.948 61.1094 137.703C61.1094 137.536 61.0573 137.398 60.9531 137.289C60.8438 137.185 60.599 137.089 60.2188 137C58.4479 136.609 57.3255 136.253 56.8516 135.93C56.1953 135.482 55.8672 134.859 55.8672 134.062C55.8672 133.344 56.151 132.74 56.7188 132.25C57.2865 131.76 58.1667 131.516 59.3594 131.516C60.4948 131.516 61.3385 131.701 61.8906 132.07C62.4427 132.44 62.8229 132.987 63.0312 133.711L60.9609 134.094C60.8724 133.771 60.7031 133.523 60.4531 133.352C60.2083 133.18 59.8568 133.094 59.3984 133.094C58.8203 133.094 58.4062 133.174 58.1562 133.336C57.9896 133.451 57.9062 133.599 57.9062 133.781C57.9062 133.938 57.9792 134.07 58.125 134.18C58.3229 134.326 59.0052 134.531 60.1719 134.797C61.3438 135.062 62.1615 135.388 62.625 135.773C63.0833 136.164 63.3125 136.708 63.3125 137.406C63.3125 138.167 62.9948 138.82 62.3594 139.367C61.724 139.914 60.7839 140.188 59.5391 140.188C58.4089 140.188 57.513 139.958 56.8516 139.5C56.1953 139.042 55.7656 138.419 55.5625 137.633ZM70.0469 137.359L72.2344 137.727C71.9531 138.529 71.5078 139.141 70.8984 139.562C70.2943 139.979 69.5365 140.188 68.625 140.188C67.1823 140.188 66.1146 139.716 65.4219 138.773C64.875 138.018 64.6016 137.065 64.6016 135.914C64.6016 134.539 64.9609 133.464 65.6797 132.688C66.3984 131.906 67.3073 131.516 68.4062 131.516C69.6406 131.516 70.6146 131.924 71.3281 132.742C72.0417 133.555 72.3828 134.802 72.3516 136.484H66.8516C66.8672 137.135 67.0443 137.643 67.3828 138.008C67.7214 138.367 68.1432 138.547 68.6484 138.547C68.9922 138.547 69.2812 138.453 69.5156 138.266C69.75 138.078 69.9271 137.776 70.0469 137.359ZM70.1719 135.141C70.1562 134.505 69.9922 134.023 69.6797 133.695C69.3672 133.362 68.987 133.195 68.5391 133.195C68.0599 133.195 67.6641 133.37 67.3516 133.719C67.0391 134.068 66.8854 134.542 66.8906 135.141H70.1719Z" fill="#3E3E3D"/>
<g opacity="0.5">
<path d="M0 158.5H579.5" stroke="#CDCCCB"/>
</g>
<rect width="579.5" height="61" transform="translate(579.5)" fill="white"/>
<path d="M598.18 37.14C597.847 37.14 597.587 37.0467 597.4 36.86C597.227 36.6733 597.14 36.4133 597.14 36.08V23.96C597.14 23.6133 597.233 23.3533 597.42 23.18C597.607 22.9933 597.867 22.9 598.2 22.9H602.98C604.5 22.9 605.673 23.28 606.5 24.04C607.327 24.7867 607.74 25.84 607.74 27.2C607.74 28.5733 607.327 29.64 606.5 30.4C605.673 31.1467 604.5 31.52 602.98 31.52H599.22V36.08C599.22 36.4133 599.133 36.6733 598.96 36.86C598.787 37.0467 598.527 37.14 598.18 37.14ZM599.22 29.86H602.68C603.68 29.86 604.433 29.64 604.94 29.2C605.46 28.7467 605.72 28.08 605.72 27.2C605.72 26.3333 605.46 25.68 604.94 25.24C604.433 24.7867 603.68 24.56 602.68 24.56H599.22V29.86ZM612.595 37.18C611.809 37.18 611.149 37.0333 610.615 36.74C610.095 36.4467 609.702 36.0133 609.435 35.44C609.182 34.8533 609.055 34.12 609.055 33.24V28.12C609.055 27.7733 609.142 27.52 609.315 27.36C609.489 27.1867 609.735 27.1 610.055 27.1C610.375 27.1 610.622 27.1867 610.795 27.36C610.982 27.52 611.075 27.7733 611.075 28.12V33.26C611.075 34.0467 611.235 34.6267 611.555 35C611.875 35.3733 612.382 35.56 613.075 35.56C613.835 35.56 614.449 35.3067 614.915 34.8C615.395 34.28 615.635 33.6 615.635 32.76V28.12C615.635 27.7733 615.722 27.52 615.895 27.36C616.069 27.1867 616.322 27.1 616.655 27.1C616.975 27.1 617.222 27.1867 617.395 27.36C617.569 27.52 617.655 27.7733 617.655 28.12V36.12C617.655 36.8 617.329 37.14 616.675 37.14C616.369 37.14 616.129 37.0533 615.955 36.88C615.782 36.6933 615.695 36.44 615.695 36.12V34.42L615.955 34.86C615.689 35.6067 615.262 36.18 614.675 36.58C614.089 36.98 613.395 37.18 612.595 37.18ZM621.022 37.14C620.689 37.14 620.435 37.0533 620.262 36.88C620.089 36.6933 620.002 36.44 620.002 36.12V28.12C620.002 27.7867 620.089 27.5333 620.262 27.36C620.435 27.1867 620.675 27.1 620.982 27.1C621.302 27.1 621.542 27.1867 621.702 27.36C621.875 27.5333 621.962 27.7867 621.962 28.12V29.58H621.762C621.975 28.78 622.369 28.1733 622.942 27.76C623.515 27.3467 624.249 27.1067 625.142 27.04C625.382 27.0267 625.569 27.0867 625.702 27.22C625.849 27.3533 625.929 27.56 625.942 27.84C625.969 28.12 625.909 28.3467 625.762 28.52C625.615 28.68 625.389 28.7733 625.082 28.8L624.702 28.84C623.835 28.92 623.175 29.1933 622.722 29.66C622.269 30.1267 622.042 30.7667 622.042 31.58V36.12C622.042 36.44 621.955 36.6933 621.782 36.88C621.622 37.0533 621.369 37.14 621.022 37.14ZM627.963 40.74C627.643 40.74 627.396 40.6533 627.223 40.48C627.05 40.3067 626.963 40.0533 626.963 39.72V28.12C626.963 27.7867 627.05 27.5333 627.223 27.36C627.396 27.1867 627.636 27.1 627.943 27.1C628.263 27.1 628.51 27.1867 628.683 27.36C628.856 27.5333 628.943 27.7867 628.943 28.12V29.86L628.723 29.44C628.936 28.72 629.356 28.1467 629.983 27.72C630.61 27.28 631.35 27.06 632.203 27.06C633.07 27.06 633.823 27.2667 634.463 27.68C635.116 28.0933 635.616 28.6733 635.963 29.42C636.323 30.1667 636.503 31.0667 636.503 32.12C636.503 33.1467 636.323 34.0467 635.963 34.82C635.616 35.58 635.123 36.1667 634.483 36.58C633.843 36.98 633.083 37.18 632.203 37.18C631.363 37.18 630.63 36.9667 630.003 36.54C629.376 36.1133 628.956 35.5467 628.743 34.84H628.983V39.72C628.983 40.0533 628.89 40.3067 628.703 40.48C628.53 40.6533 628.283 40.74 627.963 40.74ZM631.703 35.62C632.263 35.62 632.75 35.4867 633.163 35.22C633.576 34.9533 633.896 34.56 634.123 34.04C634.35 33.52 634.463 32.88 634.463 32.12C634.463 30.9733 634.21 30.1067 633.703 29.52C633.21 28.9333 632.543 28.64 631.703 28.64C631.156 28.64 630.67 28.7733 630.243 29.04C629.83 29.2933 629.51 29.68 629.283 30.2C629.056 30.72 628.943 31.36 628.943 32.12C628.943 33.2533 629.196 34.12 629.703 34.72C630.21 35.32 630.876 35.62 631.703 35.62ZM642.519 37.18C641.533 37.18 640.679 36.9733 639.959 36.56C639.253 36.1467 638.699 35.56 638.299 34.8C637.899 34.04 637.699 33.1467 637.699 32.12C637.699 31.3333 637.813 30.6333 638.039 30.02C638.266 29.4067 638.586 28.88 638.999 28.44C639.426 27.9867 639.933 27.6467 640.519 27.42C641.119 27.18 641.786 27.06 642.519 27.06C643.493 27.06 644.333 27.2667 645.039 27.68C645.759 28.0933 646.319 28.68 646.719 29.44C647.119 30.1867 647.319 31.08 647.319 32.12C647.319 32.8933 647.206 33.5933 646.979 34.22C646.753 34.8467 646.426 35.38 645.999 35.82C645.586 36.26 645.079 36.6 644.479 36.84C643.893 37.0667 643.239 37.18 642.519 37.18ZM642.519 35.62C643.066 35.62 643.546 35.4867 643.959 35.22C644.373 34.9533 644.693 34.56 644.919 34.04C645.159 33.52 645.279 32.88 645.279 32.12C645.279 30.9733 645.026 30.1067 644.519 29.52C644.013 28.9333 643.346 28.64 642.519 28.64C641.959 28.64 641.473 28.7733 641.059 29.04C640.646 29.2933 640.319 29.68 640.079 30.2C639.853 30.72 639.739 31.36 639.739 32.12C639.739 33.2533 639.993 34.12 640.499 34.72C641.006 35.32 641.679 35.62 642.519 35.62ZM652.508 37.18C651.921 37.18 651.315 37.1133 650.688 36.98C650.075 36.8467 649.508 36.62 648.988 36.3C648.815 36.18 648.695 36.0467 648.628 35.9C648.561 35.7533 648.535 35.6067 648.548 35.46C648.575 35.3 648.635 35.1667 648.728 35.06C648.835 34.94 648.961 34.8667 649.108 34.84C649.268 34.8133 649.435 34.8467 649.608 34.94C650.128 35.2333 650.628 35.44 651.108 35.56C651.588 35.6667 652.061 35.72 652.528 35.72C653.235 35.72 653.768 35.5933 654.128 35.34C654.488 35.0867 654.668 34.7467 654.668 34.32C654.668 33.9733 654.548 33.7067 654.308 33.52C654.068 33.32 653.708 33.1667 653.228 33.06L651.328 32.68C650.501 32.5067 649.875 32.2 649.448 31.76C649.021 31.32 648.808 30.76 648.808 30.08C648.808 29.4667 648.975 28.9333 649.308 28.48C649.641 28.0267 650.108 27.68 650.708 27.44C651.308 27.1867 652.001 27.06 652.788 27.06C653.375 27.06 653.928 27.1333 654.448 27.28C654.968 27.4267 655.448 27.6467 655.888 27.94C656.061 28.0333 656.175 28.16 656.228 28.32C656.281 28.4667 656.288 28.6133 656.248 28.76C656.221 28.9067 656.155 29.04 656.048 29.16C655.941 29.2667 655.808 29.3333 655.648 29.36C655.501 29.3733 655.335 29.3333 655.148 29.24C654.748 28.9867 654.348 28.8067 653.948 28.7C653.561 28.5933 653.175 28.54 652.788 28.54C652.081 28.54 651.548 28.6733 651.188 28.94C650.841 29.1933 650.668 29.54 650.668 29.98C650.668 30.3133 650.775 30.5867 650.988 30.8C651.201 31.0133 651.535 31.1667 651.988 31.26L653.888 31.64C654.755 31.8133 655.408 32.1067 655.848 32.52C656.301 32.9333 656.528 33.4933 656.528 34.2C656.528 35.12 656.161 35.8467 655.428 36.38C654.695 36.9133 653.721 37.18 652.508 37.18ZM662.855 37.18C661.789 37.18 660.869 36.98 660.095 36.58C659.335 36.1667 658.742 35.5867 658.315 34.84C657.902 34.08 657.695 33.18 657.695 32.14C657.695 31.1267 657.902 30.24 658.315 29.48C658.729 28.72 659.295 28.1267 660.015 27.7C660.735 27.2733 661.555 27.06 662.475 27.06C663.155 27.06 663.762 27.1733 664.295 27.4C664.829 27.6133 665.282 27.9333 665.655 28.36C666.042 28.7733 666.329 29.28 666.515 29.88C666.715 30.48 666.815 31.1533 666.815 31.9C666.815 32.1267 666.749 32.3 666.615 32.42C666.482 32.5267 666.282 32.58 666.015 32.58H659.295V31.34H665.455L665.115 31.62C665.115 30.9533 665.015 30.3867 664.815 29.92C664.629 29.4533 664.342 29.1 663.955 28.86C663.582 28.6067 663.115 28.48 662.555 28.48C661.929 28.48 661.395 28.6267 660.955 28.92C660.529 29.2133 660.202 29.62 659.975 30.14C659.749 30.66 659.635 31.2667 659.635 31.96V32.08C659.635 33.2533 659.909 34.14 660.455 34.74C661.015 35.3267 661.822 35.62 662.875 35.62C663.275 35.62 663.695 35.5667 664.135 35.46C664.589 35.3533 665.015 35.1733 665.415 34.92C665.642 34.7867 665.842 34.7267 666.015 34.74C666.202 34.7533 666.349 34.8133 666.455 34.92C666.575 35.0267 666.649 35.16 666.675 35.32C666.702 35.48 666.675 35.6467 666.595 35.82C666.515 35.98 666.375 36.1267 666.175 36.26C665.722 36.5667 665.195 36.8 664.595 36.96C663.995 37.1067 663.415 37.18 662.855 37.18Z" fill="#201F1F"/>
<path d="M579.5 60.5H1159" stroke="#CDCCCB"/>
<rect width="579.5" height="49" transform="translate(579.5 61)" fill="white"/>
<path d="M604.906 86.9844L606.422 87.3672C606.104 88.612 605.531 89.5625 604.703 90.2188C603.88 90.8698 602.872 91.1953 601.68 91.1953C600.445 91.1953 599.44 90.9453 598.664 90.4453C597.893 89.9401 597.305 89.2109 596.898 88.2578C596.497 87.3047 596.297 86.2812 596.297 85.1875C596.297 83.9948 596.523 82.9557 596.977 82.0703C597.435 81.1797 598.083 80.5052 598.922 80.0469C599.766 79.5833 600.693 79.3516 601.703 79.3516C602.849 79.3516 603.812 79.6432 604.594 80.2266C605.375 80.8099 605.919 81.6302 606.227 82.6875L604.734 83.0391C604.469 82.2057 604.083 81.599 603.578 81.2188C603.073 80.8385 602.438 80.6484 601.672 80.6484C600.792 80.6484 600.055 80.8594 599.461 81.2812C598.872 81.7031 598.458 82.2708 598.219 82.9844C597.979 83.6927 597.859 84.4245 597.859 85.1797C597.859 86.1536 598 87.0052 598.281 87.7344C598.568 88.4583 599.01 89 599.609 89.3594C600.208 89.7188 600.857 89.8984 601.555 89.8984C602.404 89.8984 603.122 89.6536 603.711 89.1641C604.299 88.6745 604.698 87.9479 604.906 86.9844ZM607.594 86.8516C607.594 85.3151 608.021 84.1771 608.875 83.4375C609.589 82.8229 610.458 82.5156 611.484 82.5156C612.625 82.5156 613.557 82.8906 614.281 83.6406C615.005 84.3854 615.367 85.4167 615.367 86.7344C615.367 87.8021 615.206 88.6432 614.883 89.2578C614.565 89.8672 614.099 90.3411 613.484 90.6797C612.875 91.0182 612.208 91.1875 611.484 91.1875C610.323 91.1875 609.383 90.8151 608.664 90.0703C607.951 89.3255 607.594 88.2526 607.594 86.8516ZM609.039 86.8516C609.039 87.9141 609.271 88.7109 609.734 89.2422C610.198 89.7682 610.781 90.0312 611.484 90.0312C612.182 90.0312 612.763 89.7656 613.227 89.2344C613.69 88.7031 613.922 87.8932 613.922 86.8047C613.922 85.7786 613.688 85.0026 613.219 84.4766C612.755 83.9453 612.177 83.6797 611.484 83.6797C610.781 83.6797 610.198 83.9427 609.734 84.4688C609.271 84.9948 609.039 85.7891 609.039 86.8516ZM622.461 91V89.7812C621.815 90.7188 620.938 91.1875 619.828 91.1875C619.339 91.1875 618.88 91.0938 618.453 90.9062C618.031 90.7188 617.716 90.4844 617.508 90.2031C617.305 89.9167 617.161 89.5677 617.078 89.1562C617.021 88.8802 616.992 88.4427 616.992 87.8438V82.7031H618.398V87.3047C618.398 88.0391 618.427 88.5339 618.484 88.7891C618.573 89.1589 618.76 89.4505 619.047 89.6641C619.333 89.8724 619.688 89.9766 620.109 89.9766C620.531 89.9766 620.927 89.8698 621.297 89.6562C621.667 89.4375 621.927 89.1432 622.078 88.7734C622.234 88.3984 622.312 87.8568 622.312 87.1484V82.7031H623.719V91H622.461ZM625.898 91V79.5469H627.305V91H625.898ZM635.172 88.3281L636.625 88.5078C636.396 89.3568 635.971 90.0156 635.352 90.4844C634.732 90.9531 633.94 91.1875 632.977 91.1875C631.763 91.1875 630.799 90.8151 630.086 90.0703C629.378 89.3203 629.023 88.2708 629.023 86.9219C629.023 85.526 629.383 84.4427 630.102 83.6719C630.82 82.901 631.753 82.5156 632.898 82.5156C634.008 82.5156 634.914 82.8932 635.617 83.6484C636.32 84.4036 636.672 85.4661 636.672 86.8359C636.672 86.9193 636.669 87.0443 636.664 87.2109H630.477C630.529 88.1224 630.786 88.8203 631.25 89.3047C631.714 89.7891 632.292 90.0312 632.984 90.0312C633.5 90.0312 633.94 89.8958 634.305 89.625C634.669 89.3542 634.958 88.9219 635.172 88.3281ZM630.555 86.0547H635.188C635.125 85.3568 634.948 84.8333 634.656 84.4844C634.208 83.9427 633.628 83.6719 632.914 83.6719C632.268 83.6719 631.724 83.888 631.281 84.3203C630.844 84.7526 630.602 85.3307 630.555 86.0547ZM643.836 91V89.7812C643.19 90.7188 642.312 91.1875 641.203 91.1875C640.714 91.1875 640.255 91.0938 639.828 90.9062C639.406 90.7188 639.091 90.4844 638.883 90.2031C638.68 89.9167 638.536 89.5677 638.453 89.1562C638.396 88.8802 638.367 88.4427 638.367 87.8438V82.7031H639.773V87.3047C639.773 88.0391 639.802 88.5339 639.859 88.7891C639.948 89.1589 640.135 89.4505 640.422 89.6641C640.708 89.8724 641.062 89.9766 641.484 89.9766C641.906 89.9766 642.302 89.8698 642.672 89.6562C643.042 89.4375 643.302 89.1432 643.453 88.7734C643.609 88.3984 643.688 87.8568 643.688 87.1484V82.7031H645.094V91H643.836ZM647.289 91V82.7031H648.555V83.9609C648.878 83.3724 649.174 82.9844 649.445 82.7969C649.721 82.6094 650.023 82.5156 650.352 82.5156C650.826 82.5156 651.307 82.6667 651.797 82.9688L651.312 84.2734C650.969 84.0703 650.625 83.9688 650.281 83.9688C649.974 83.9688 649.698 84.0625 649.453 84.25C649.208 84.4323 649.034 84.6875 648.93 85.0156C648.773 85.5156 648.695 86.0625 648.695 86.6562V91H647.289ZM657.203 91V79.5469H661.5C662.375 79.5469 663.076 79.6641 663.602 79.8984C664.133 80.1276 664.547 80.4844 664.844 80.9688C665.146 81.4479 665.297 81.9505 665.297 82.4766C665.297 82.9661 665.164 83.4271 664.898 83.8594C664.633 84.2917 664.232 84.6406 663.695 84.9062C664.388 85.1094 664.919 85.4557 665.289 85.9453C665.664 86.4349 665.852 87.013 665.852 87.6797C665.852 88.2161 665.737 88.7161 665.508 89.1797C665.284 89.638 665.005 89.9922 664.672 90.2422C664.339 90.4922 663.919 90.6823 663.414 90.8125C662.914 90.9375 662.299 91 661.57 91H657.203ZM658.719 84.3594H661.195C661.867 84.3594 662.349 84.3151 662.641 84.2266C663.026 84.112 663.315 83.9219 663.508 83.6562C663.706 83.3906 663.805 83.0573 663.805 82.6562C663.805 82.276 663.714 81.9427 663.531 81.6562C663.349 81.3646 663.089 81.1667 662.75 81.0625C662.411 80.9531 661.831 80.8984 661.008 80.8984H658.719V84.3594ZM658.719 89.6484H661.57C662.06 89.6484 662.404 89.6302 662.602 89.5938C662.951 89.5312 663.242 89.4271 663.477 89.2812C663.711 89.1354 663.904 88.9245 664.055 88.6484C664.206 88.3672 664.281 88.0443 664.281 87.6797C664.281 87.2526 664.172 86.8828 663.953 86.5703C663.734 86.2526 663.43 86.0312 663.039 85.9062C662.654 85.776 662.096 85.7109 661.367 85.7109H658.719V89.6484ZM667.742 91V82.7031H669.008V83.9609C669.331 83.3724 669.628 82.9844 669.898 82.7969C670.174 82.6094 670.477 82.5156 670.805 82.5156C671.279 82.5156 671.76 82.6667 672.25 82.9688L671.766 84.2734C671.422 84.0703 671.078 83.9688 670.734 83.9688C670.427 83.9688 670.151 84.0625 669.906 84.25C669.661 84.4323 669.487 84.6875 669.383 85.0156C669.227 85.5156 669.148 86.0625 669.148 86.6562V91H667.742ZM678.5 89.9766C677.979 90.4193 677.477 90.7318 676.992 90.9141C676.513 91.0964 675.997 91.1875 675.445 91.1875C674.534 91.1875 673.833 90.9661 673.344 90.5234C672.854 90.0755 672.609 89.5052 672.609 88.8125C672.609 88.4062 672.701 88.0365 672.883 87.7031C673.07 87.3646 673.312 87.0938 673.609 86.8906C673.911 86.6875 674.25 86.5339 674.625 86.4297C674.901 86.3568 675.318 86.2865 675.875 86.2188C677.01 86.0833 677.846 85.9219 678.383 85.7344C678.388 85.5417 678.391 85.4193 678.391 85.3672C678.391 84.7943 678.258 84.3906 677.992 84.1562C677.633 83.8385 677.099 83.6797 676.391 83.6797C675.729 83.6797 675.24 83.7969 674.922 84.0312C674.609 84.2604 674.378 84.6693 674.227 85.2578L672.852 85.0703C672.977 84.4818 673.182 84.0078 673.469 83.6484C673.755 83.2839 674.169 83.0052 674.711 82.8125C675.253 82.6146 675.88 82.5156 676.594 82.5156C677.302 82.5156 677.878 82.599 678.32 82.7656C678.763 82.9323 679.089 83.1432 679.297 83.3984C679.505 83.6484 679.651 83.9661 679.734 84.3516C679.781 84.5911 679.805 85.0234 679.805 85.6484V87.5234C679.805 88.8307 679.833 89.6589 679.891 90.0078C679.953 90.3516 680.073 90.6823 680.25 91H678.781C678.635 90.7083 678.542 90.3672 678.5 89.9766ZM678.383 86.8359C677.872 87.0443 677.107 87.2214 676.086 87.3672C675.508 87.4505 675.099 87.5443 674.859 87.6484C674.62 87.7526 674.435 87.9062 674.305 88.1094C674.174 88.3073 674.109 88.5286 674.109 88.7734C674.109 89.1484 674.25 89.4609 674.531 89.7109C674.818 89.9609 675.234 90.0859 675.781 90.0859C676.323 90.0859 676.805 89.9688 677.227 89.7344C677.648 89.4948 677.958 89.1693 678.156 88.7578C678.307 88.4401 678.383 87.9714 678.383 87.3516V86.8359ZM681.992 91V82.7031H683.258V83.8828C683.867 82.9714 684.747 82.5156 685.898 82.5156C686.398 82.5156 686.857 82.6068 687.273 82.7891C687.695 82.9661 688.01 83.2005 688.219 83.4922C688.427 83.7839 688.573 84.1302 688.656 84.5312C688.708 84.7917 688.734 85.2474 688.734 85.8984V91H687.328V85.9531C687.328 85.3802 687.273 84.9531 687.164 84.6719C687.055 84.3854 686.859 84.1589 686.578 83.9922C686.302 83.8203 685.977 83.7344 685.602 83.7344C685.003 83.7344 684.484 83.9245 684.047 84.3047C683.615 84.6849 683.398 85.4062 683.398 86.4688V91H681.992ZM696.281 91V89.9531C695.755 90.776 694.982 91.1875 693.961 91.1875C693.299 91.1875 692.69 91.0052 692.133 90.6406C691.581 90.276 691.151 89.7682 690.844 89.1172C690.542 88.4609 690.391 87.7083 690.391 86.8594C690.391 86.0312 690.529 85.2812 690.805 84.6094C691.081 83.9323 691.495 83.4141 692.047 83.0547C692.599 82.6953 693.216 82.5156 693.898 82.5156C694.398 82.5156 694.844 82.6224 695.234 82.8359C695.625 83.0443 695.943 83.3177 696.188 83.6562V79.5469H697.586V91H696.281ZM691.836 86.8594C691.836 87.9219 692.06 88.7161 692.508 89.2422C692.956 89.7682 693.484 90.0312 694.094 90.0312C694.708 90.0312 695.229 89.7812 695.656 89.2812C696.089 88.776 696.305 88.0078 696.305 86.9766C696.305 85.8411 696.086 85.0078 695.648 84.4766C695.211 83.9453 694.672 83.6797 694.031 83.6797C693.406 83.6797 692.883 83.9349 692.461 84.4453C692.044 84.9557 691.836 85.7604 691.836 86.8594ZM709.641 91V89.9531C709.115 90.776 708.341 91.1875 707.32 91.1875C706.659 91.1875 706.049 91.0052 705.492 90.6406C704.94 90.276 704.51 89.7682 704.203 89.1172C703.901 88.4609 703.75 87.7083 703.75 86.8594C703.75 86.0312 703.888 85.2812 704.164 84.6094C704.44 83.9323 704.854 83.4141 705.406 83.0547C705.958 82.6953 706.576 82.5156 707.258 82.5156C707.758 82.5156 708.203 82.6224 708.594 82.8359C708.984 83.0443 709.302 83.3177 709.547 83.6562V79.5469H710.945V91H709.641ZM705.195 86.8594C705.195 87.9219 705.419 88.7161 705.867 89.2422C706.315 89.7682 706.844 90.0312 707.453 90.0312C708.068 90.0312 708.589 89.7812 709.016 89.2812C709.448 88.776 709.664 88.0078 709.664 86.9766C709.664 85.8411 709.445 85.0078 709.008 84.4766C708.57 83.9453 708.031 83.6797 707.391 83.6797C706.766 83.6797 706.242 83.9349 705.82 84.4453C705.404 84.9557 705.195 85.7604 705.195 86.8594ZM718.844 88.3281L720.297 88.5078C720.068 89.3568 719.643 90.0156 719.023 90.4844C718.404 90.9531 717.612 91.1875 716.648 91.1875C715.435 91.1875 714.471 90.8151 713.758 90.0703C713.049 89.3203 712.695 88.2708 712.695 86.9219C712.695 85.526 713.055 84.4427 713.773 83.6719C714.492 82.901 715.424 82.5156 716.57 82.5156C717.68 82.5156 718.586 82.8932 719.289 83.6484C719.992 84.4036 720.344 85.4661 720.344 86.8359C720.344 86.9193 720.341 87.0443 720.336 87.2109H714.148C714.201 88.1224 714.458 88.8203 714.922 89.3047C715.385 89.7891 715.964 90.0312 716.656 90.0312C717.172 90.0312 717.612 89.8958 717.977 89.625C718.341 89.3542 718.63 88.9219 718.844 88.3281ZM714.227 86.0547H718.859C718.797 85.3568 718.62 84.8333 718.328 84.4844C717.88 83.9427 717.299 83.6719 716.586 83.6719C715.94 83.6719 715.396 83.888 714.953 84.3203C714.516 84.7526 714.273 85.3307 714.227 86.0547ZM722.406 91V83.7969H721.164V82.7031H722.406V81.8203C722.406 81.263 722.456 80.849 722.555 80.5781C722.69 80.2135 722.927 79.9193 723.266 79.6953C723.609 79.4661 724.089 79.3516 724.703 79.3516C725.099 79.3516 725.536 79.3984 726.016 79.4922L725.805 80.7188C725.513 80.6667 725.237 80.6406 724.977 80.6406C724.549 80.6406 724.247 80.7318 724.07 80.9141C723.893 81.0964 723.805 81.4375 723.805 81.9375V82.7031H725.422V83.7969H723.805V91H722.406ZM731.938 89.9766C731.417 90.4193 730.914 90.7318 730.43 90.9141C729.951 91.0964 729.435 91.1875 728.883 91.1875C727.971 91.1875 727.271 90.9661 726.781 90.5234C726.292 90.0755 726.047 89.5052 726.047 88.8125C726.047 88.4062 726.138 88.0365 726.32 87.7031C726.508 87.3646 726.75 87.0938 727.047 86.8906C727.349 86.6875 727.688 86.5339 728.062 86.4297C728.339 86.3568 728.755 86.2865 729.312 86.2188C730.448 86.0833 731.284 85.9219 731.82 85.7344C731.826 85.5417 731.828 85.4193 731.828 85.3672C731.828 84.7943 731.695 84.3906 731.43 84.1562C731.07 83.8385 730.536 83.6797 729.828 83.6797C729.167 83.6797 728.677 83.7969 728.359 84.0312C728.047 84.2604 727.815 84.6693 727.664 85.2578L726.289 85.0703C726.414 84.4818 726.62 84.0078 726.906 83.6484C727.193 83.2839 727.607 83.0052 728.148 82.8125C728.69 82.6146 729.318 82.5156 730.031 82.5156C730.74 82.5156 731.315 82.599 731.758 82.7656C732.201 82.9323 732.526 83.1432 732.734 83.3984C732.943 83.6484 733.089 83.9661 733.172 84.3516C733.219 84.5911 733.242 85.0234 733.242 85.6484V87.5234C733.242 88.8307 733.271 89.6589 733.328 90.0078C733.391 90.3516 733.51 90.6823 733.688 91H732.219C732.073 90.7083 731.979 90.3672 731.938 89.9766ZM731.82 86.8359C731.31 87.0443 730.544 87.2214 729.523 87.3672C728.945 87.4505 728.536 87.5443 728.297 87.6484C728.057 87.7526 727.872 87.9062 727.742 88.1094C727.612 88.3073 727.547 88.5286 727.547 88.7734C727.547 89.1484 727.688 89.4609 727.969 89.7109C728.255 89.9609 728.672 90.0859 729.219 90.0859C729.76 90.0859 730.242 89.9688 730.664 89.7344C731.086 89.4948 731.396 89.1693 731.594 88.7578C731.745 88.4401 731.82 87.9714 731.82 87.3516V86.8359ZM740.867 91V89.7812C740.221 90.7188 739.344 91.1875 738.234 91.1875C737.745 91.1875 737.286 91.0938 736.859 90.9062C736.438 90.7188 736.122 90.4844 735.914 90.2031C735.711 89.9167 735.568 89.5677 735.484 89.1562C735.427 88.8802 735.398 88.4427 735.398 87.8438V82.7031H736.805V87.3047C736.805 88.0391 736.833 88.5339 736.891 88.7891C736.979 89.1589 737.167 89.4505 737.453 89.6641C737.74 89.8724 738.094 89.9766 738.516 89.9766C738.938 89.9766 739.333 89.8698 739.703 89.6562C740.073 89.4375 740.333 89.1432 740.484 88.7734C740.641 88.3984 740.719 87.8568 740.719 87.1484V82.7031H742.125V91H740.867ZM744.305 91V79.5469H745.711V91H744.305ZM750.969 89.7422L751.172 90.9844C750.776 91.0677 750.422 91.1094 750.109 91.1094C749.599 91.1094 749.203 91.0286 748.922 90.8672C748.641 90.7057 748.443 90.4948 748.328 90.2344C748.214 89.9688 748.156 89.4141 748.156 88.5703V83.7969H747.125V82.7031H748.156V80.6484L749.555 79.8047V82.7031H750.969V83.7969H749.555V88.6484C749.555 89.0495 749.578 89.3073 749.625 89.4219C749.677 89.5365 749.758 89.6276 749.867 89.6953C749.982 89.763 750.143 89.7969 750.352 89.7969C750.508 89.7969 750.714 89.7786 750.969 89.7422Z" fill="#3E3E3D"/>
<g opacity="0.5">
<path d="M579.5 109.5H1159" stroke="#CDCCCB"/>
</g>
<rect width="579.5" height="49" transform="translate(579.5 110)" fill="white"/>
<path d="M604.906 135.984L606.422 136.367C606.104 137.612 605.531 138.562 604.703 139.219C603.88 139.87 602.872 140.195 601.68 140.195C600.445 140.195 599.44 139.945 598.664 139.445C597.893 138.94 597.305 138.211 596.898 137.258C596.497 136.305 596.297 135.281 596.297 134.188C596.297 132.995 596.523 131.956 596.977 131.07C597.435 130.18 598.083 129.505 598.922 129.047C599.766 128.583 600.693 128.352 601.703 128.352C602.849 128.352 603.812 128.643 604.594 129.227C605.375 129.81 605.919 130.63 606.227 131.688L604.734 132.039C604.469 131.206 604.083 130.599 603.578 130.219C603.073 129.839 602.438 129.648 601.672 129.648C600.792 129.648 600.055 129.859 599.461 130.281C598.872 130.703 598.458 131.271 598.219 131.984C597.979 132.693 597.859 133.424 597.859 134.18C597.859 135.154 598 136.005 598.281 136.734C598.568 137.458 599.01 138 599.609 138.359C600.208 138.719 600.857 138.898 601.555 138.898C602.404 138.898 603.122 138.654 603.711 138.164C604.299 137.674 604.698 136.948 604.906 135.984ZM607.594 135.852C607.594 134.315 608.021 133.177 608.875 132.438C609.589 131.823 610.458 131.516 611.484 131.516C612.625 131.516 613.557 131.891 614.281 132.641C615.005 133.385 615.367 134.417 615.367 135.734C615.367 136.802 615.206 137.643 614.883 138.258C614.565 138.867 614.099 139.341 613.484 139.68C612.875 140.018 612.208 140.188 611.484 140.188C610.323 140.188 609.383 139.815 608.664 139.07C607.951 138.326 607.594 137.253 607.594 135.852ZM609.039 135.852C609.039 136.914 609.271 137.711 609.734 138.242C610.198 138.768 610.781 139.031 611.484 139.031C612.182 139.031 612.763 138.766 613.227 138.234C613.69 137.703 613.922 136.893 613.922 135.805C613.922 134.779 613.688 134.003 613.219 133.477C612.755 132.945 612.177 132.68 611.484 132.68C610.781 132.68 610.198 132.943 609.734 133.469C609.271 133.995 609.039 134.789 609.039 135.852ZM622.461 140V138.781C621.815 139.719 620.938 140.188 619.828 140.188C619.339 140.188 618.88 140.094 618.453 139.906C618.031 139.719 617.716 139.484 617.508 139.203C617.305 138.917 617.161 138.568 617.078 138.156C617.021 137.88 616.992 137.443 616.992 136.844V131.703H618.398V136.305C618.398 137.039 618.427 137.534 618.484 137.789C618.573 138.159 618.76 138.451 619.047 138.664C619.333 138.872 619.688 138.977 620.109 138.977C620.531 138.977 620.927 138.87 621.297 138.656C621.667 138.438 621.927 138.143 622.078 137.773C622.234 137.398 622.312 136.857 622.312 136.148V131.703H623.719V140H622.461ZM625.898 140V128.547H627.305V140H625.898ZM635.172 137.328L636.625 137.508C636.396 138.357 635.971 139.016 635.352 139.484C634.732 139.953 633.94 140.188 632.977 140.188C631.763 140.188 630.799 139.815 630.086 139.07C629.378 138.32 629.023 137.271 629.023 135.922C629.023 134.526 629.383 133.443 630.102 132.672C630.82 131.901 631.753 131.516 632.898 131.516C634.008 131.516 634.914 131.893 635.617 132.648C636.32 133.404 636.672 134.466 636.672 135.836C636.672 135.919 636.669 136.044 636.664 136.211H630.477C630.529 137.122 630.786 137.82 631.25 138.305C631.714 138.789 632.292 139.031 632.984 139.031C633.5 139.031 633.94 138.896 634.305 138.625C634.669 138.354 634.958 137.922 635.172 137.328ZM630.555 135.055H635.188C635.125 134.357 634.948 133.833 634.656 133.484C634.208 132.943 633.628 132.672 632.914 132.672C632.268 132.672 631.724 132.888 631.281 133.32C630.844 133.753 630.602 134.331 630.555 135.055ZM643.836 140V138.781C643.19 139.719 642.312 140.188 641.203 140.188C640.714 140.188 640.255 140.094 639.828 139.906C639.406 139.719 639.091 139.484 638.883 139.203C638.68 138.917 638.536 138.568 638.453 138.156C638.396 137.88 638.367 137.443 638.367 136.844V131.703H639.773V136.305C639.773 137.039 639.802 137.534 639.859 137.789C639.948 138.159 640.135 138.451 640.422 138.664C640.708 138.872 641.062 138.977 641.484 138.977C641.906 138.977 642.302 138.87 642.672 138.656C643.042 138.438 643.302 138.143 643.453 137.773C643.609 137.398 643.688 136.857 643.688 136.148V131.703H645.094V140H643.836ZM647.289 140V131.703H648.555V132.961C648.878 132.372 649.174 131.984 649.445 131.797C649.721 131.609 650.023 131.516 650.352 131.516C650.826 131.516 651.307 131.667 651.797 131.969L651.312 133.273C650.969 133.07 650.625 132.969 650.281 132.969C649.974 132.969 649.698 133.062 649.453 133.25C649.208 133.432 649.034 133.688 648.93 134.016C648.773 134.516 648.695 135.062 648.695 135.656V140H647.289ZM658.383 140H657.078V128.547H658.484V132.633C659.078 131.888 659.836 131.516 660.758 131.516C661.268 131.516 661.75 131.62 662.203 131.828C662.661 132.031 663.036 132.32 663.328 132.695C663.625 133.065 663.857 133.513 664.023 134.039C664.19 134.565 664.273 135.128 664.273 135.727C664.273 137.148 663.922 138.247 663.219 139.023C662.516 139.799 661.672 140.188 660.688 140.188C659.708 140.188 658.94 139.779 658.383 138.961V140ZM658.367 135.789C658.367 136.784 658.503 137.503 658.773 137.945C659.216 138.669 659.815 139.031 660.57 139.031C661.185 139.031 661.716 138.766 662.164 138.234C662.612 137.698 662.836 136.901 662.836 135.844C662.836 134.76 662.62 133.961 662.188 133.445C661.76 132.93 661.242 132.672 660.633 132.672C660.018 132.672 659.487 132.94 659.039 133.477C658.591 134.008 658.367 134.779 658.367 135.789ZM665.977 140V131.703H667.242V132.961C667.565 132.372 667.862 131.984 668.133 131.797C668.409 131.609 668.711 131.516 669.039 131.516C669.513 131.516 669.995 131.667 670.484 131.969L670 133.273C669.656 133.07 669.312 132.969 668.969 132.969C668.661 132.969 668.385 133.062 668.141 133.25C667.896 133.432 667.721 133.688 667.617 134.016C667.461 134.516 667.383 135.062 667.383 135.656V140H665.977ZM676.734 138.977C676.214 139.419 675.711 139.732 675.227 139.914C674.747 140.096 674.232 140.188 673.68 140.188C672.768 140.188 672.068 139.966 671.578 139.523C671.089 139.076 670.844 138.505 670.844 137.812C670.844 137.406 670.935 137.036 671.117 136.703C671.305 136.365 671.547 136.094 671.844 135.891C672.146 135.688 672.484 135.534 672.859 135.43C673.135 135.357 673.552 135.286 674.109 135.219C675.245 135.083 676.081 134.922 676.617 134.734C676.622 134.542 676.625 134.419 676.625 134.367C676.625 133.794 676.492 133.391 676.227 133.156C675.867 132.839 675.333 132.68 674.625 132.68C673.964 132.68 673.474 132.797 673.156 133.031C672.844 133.26 672.612 133.669 672.461 134.258L671.086 134.07C671.211 133.482 671.417 133.008 671.703 132.648C671.99 132.284 672.404 132.005 672.945 131.812C673.487 131.615 674.115 131.516 674.828 131.516C675.536 131.516 676.112 131.599 676.555 131.766C676.997 131.932 677.323 132.143 677.531 132.398C677.74 132.648 677.885 132.966 677.969 133.352C678.016 133.591 678.039 134.023 678.039 134.648V136.523C678.039 137.831 678.068 138.659 678.125 139.008C678.188 139.352 678.307 139.682 678.484 140H677.016C676.87 139.708 676.776 139.367 676.734 138.977ZM676.617 135.836C676.107 136.044 675.341 136.221 674.32 136.367C673.742 136.451 673.333 136.544 673.094 136.648C672.854 136.753 672.669 136.906 672.539 137.109C672.409 137.307 672.344 137.529 672.344 137.773C672.344 138.148 672.484 138.461 672.766 138.711C673.052 138.961 673.469 139.086 674.016 139.086C674.557 139.086 675.039 138.969 675.461 138.734C675.883 138.495 676.193 138.169 676.391 137.758C676.542 137.44 676.617 136.971 676.617 136.352V135.836ZM680.227 140V131.703H681.492V132.883C682.102 131.971 682.982 131.516 684.133 131.516C684.633 131.516 685.091 131.607 685.508 131.789C685.93 131.966 686.245 132.201 686.453 132.492C686.661 132.784 686.807 133.13 686.891 133.531C686.943 133.792 686.969 134.247 686.969 134.898V140H685.562V134.953C685.562 134.38 685.508 133.953 685.398 133.672C685.289 133.385 685.094 133.159 684.812 132.992C684.536 132.82 684.211 132.734 683.836 132.734C683.237 132.734 682.719 132.924 682.281 133.305C681.849 133.685 681.633 134.406 681.633 135.469V140H680.227ZM694.516 140V138.953C693.99 139.776 693.216 140.188 692.195 140.188C691.534 140.188 690.924 140.005 690.367 139.641C689.815 139.276 689.385 138.768 689.078 138.117C688.776 137.461 688.625 136.708 688.625 135.859C688.625 135.031 688.763 134.281 689.039 133.609C689.315 132.932 689.729 132.414 690.281 132.055C690.833 131.695 691.451 131.516 692.133 131.516C692.633 131.516 693.078 131.622 693.469 131.836C693.859 132.044 694.177 132.318 694.422 132.656V128.547H695.82V140H694.516ZM690.07 135.859C690.07 136.922 690.294 137.716 690.742 138.242C691.19 138.768 691.719 139.031 692.328 139.031C692.943 139.031 693.464 138.781 693.891 138.281C694.323 137.776 694.539 137.008 694.539 135.977C694.539 134.841 694.32 134.008 693.883 133.477C693.445 132.945 692.906 132.68 692.266 132.68C691.641 132.68 691.117 132.935 690.695 133.445C690.279 133.956 690.07 134.76 690.07 135.859ZM702.477 140V131.703H703.742V132.961C704.065 132.372 704.362 131.984 704.633 131.797C704.909 131.609 705.211 131.516 705.539 131.516C706.013 131.516 706.495 131.667 706.984 131.969L706.5 133.273C706.156 133.07 705.812 132.969 705.469 132.969C705.161 132.969 704.885 133.062 704.641 133.25C704.396 133.432 704.221 133.688 704.117 134.016C703.961 134.516 703.883 135.062 703.883 135.656V140H702.477ZM713.5 137.328L714.953 137.508C714.724 138.357 714.299 139.016 713.68 139.484C713.06 139.953 712.268 140.188 711.305 140.188C710.091 140.188 709.128 139.815 708.414 139.07C707.706 138.32 707.352 137.271 707.352 135.922C707.352 134.526 707.711 133.443 708.43 132.672C709.148 131.901 710.081 131.516 711.227 131.516C712.336 131.516 713.242 131.893 713.945 132.648C714.648 133.404 715 134.466 715 135.836C715 135.919 714.997 136.044 714.992 136.211H708.805C708.857 137.122 709.115 137.82 709.578 138.305C710.042 138.789 710.62 139.031 711.312 139.031C711.828 139.031 712.268 138.896 712.633 138.625C712.997 138.354 713.286 137.922 713.5 137.328ZM708.883 135.055H713.516C713.453 134.357 713.276 133.833 712.984 133.484C712.536 132.943 711.956 132.672 711.242 132.672C710.596 132.672 710.052 132.888 709.609 133.32C709.172 133.753 708.93 134.331 708.883 135.055ZM719.031 140L715.875 131.703H717.359L719.141 136.672C719.333 137.208 719.51 137.766 719.672 138.344C719.797 137.906 719.971 137.38 720.195 136.766L722.039 131.703H723.484L720.344 140H719.031ZM730.406 137.328L731.859 137.508C731.63 138.357 731.206 139.016 730.586 139.484C729.966 139.953 729.174 140.188 728.211 140.188C726.997 140.188 726.034 139.815 725.32 139.07C724.612 138.32 724.258 137.271 724.258 135.922C724.258 134.526 724.617 133.443 725.336 132.672C726.055 131.901 726.987 131.516 728.133 131.516C729.242 131.516 730.148 131.893 730.852 132.648C731.555 133.404 731.906 134.466 731.906 135.836C731.906 135.919 731.904 136.044 731.898 136.211H725.711C725.763 137.122 726.021 137.82 726.484 138.305C726.948 138.789 727.526 139.031 728.219 139.031C728.734 139.031 729.174 138.896 729.539 138.625C729.904 138.354 730.193 137.922 730.406 137.328ZM725.789 135.055H730.422C730.359 134.357 730.182 133.833 729.891 133.484C729.443 132.943 728.862 132.672 728.148 132.672C727.503 132.672 726.958 132.888 726.516 133.32C726.078 133.753 725.836 134.331 725.789 135.055ZM733.617 140V131.703H734.883V132.961C735.206 132.372 735.503 131.984 735.773 131.797C736.049 131.609 736.352 131.516 736.68 131.516C737.154 131.516 737.635 131.667 738.125 131.969L737.641 133.273C737.297 133.07 736.953 132.969 736.609 132.969C736.302 132.969 736.026 133.062 735.781 133.25C735.536 133.432 735.362 133.688 735.258 134.016C735.102 134.516 735.023 135.062 735.023 135.656V140H733.617ZM738.398 137.523L739.789 137.305C739.867 137.862 740.083 138.289 740.438 138.586C740.797 138.883 741.297 139.031 741.938 139.031C742.583 139.031 743.062 138.901 743.375 138.641C743.688 138.375 743.844 138.065 743.844 137.711C743.844 137.393 743.706 137.143 743.43 136.961C743.237 136.836 742.758 136.677 741.992 136.484C740.961 136.224 740.245 136 739.844 135.812C739.448 135.62 739.146 135.357 738.938 135.023C738.734 134.685 738.633 134.312 738.633 133.906C738.633 133.536 738.716 133.195 738.883 132.883C739.055 132.565 739.286 132.302 739.578 132.094C739.797 131.932 740.094 131.797 740.469 131.688C740.849 131.573 741.255 131.516 741.688 131.516C742.339 131.516 742.909 131.609 743.398 131.797C743.893 131.984 744.258 132.24 744.492 132.562C744.727 132.88 744.888 133.307 744.977 133.844L743.602 134.031C743.539 133.604 743.357 133.271 743.055 133.031C742.758 132.792 742.336 132.672 741.789 132.672C741.143 132.672 740.682 132.779 740.406 132.992C740.13 133.206 739.992 133.456 739.992 133.742C739.992 133.924 740.049 134.089 740.164 134.234C740.279 134.385 740.458 134.51 740.703 134.609C740.844 134.661 741.258 134.781 741.945 134.969C742.94 135.234 743.633 135.453 744.023 135.625C744.419 135.792 744.729 136.036 744.953 136.359C745.177 136.682 745.289 137.083 745.289 137.562C745.289 138.031 745.151 138.474 744.875 138.891C744.604 139.302 744.211 139.622 743.695 139.852C743.18 140.076 742.596 140.188 741.945 140.188C740.867 140.188 740.044 139.964 739.477 139.516C738.914 139.068 738.555 138.404 738.398 137.523ZM752.641 137.328L754.094 137.508C753.865 138.357 753.44 139.016 752.82 139.484C752.201 139.953 751.409 140.188 750.445 140.188C749.232 140.188 748.268 139.815 747.555 139.07C746.846 138.32 746.492 137.271 746.492 135.922C746.492 134.526 746.852 133.443 747.57 132.672C748.289 131.901 749.221 131.516 750.367 131.516C751.477 131.516 752.383 131.893 753.086 132.648C753.789 133.404 754.141 134.466 754.141 135.836C754.141 135.919 754.138 136.044 754.133 136.211H747.945C747.997 137.122 748.255 137.82 748.719 138.305C749.182 138.789 749.76 139.031 750.453 139.031C750.969 139.031 751.409 138.896 751.773 138.625C752.138 138.354 752.427 137.922 752.641 137.328ZM748.023 135.055H752.656C752.594 134.357 752.417 133.833 752.125 133.484C751.677 132.943 751.096 132.672 750.383 132.672C749.737 132.672 749.193 132.888 748.75 133.32C748.312 133.753 748.07 134.331 748.023 135.055Z" fill="#3E3E3D"/>
<g opacity="0.5">
<path d="M579.5 158.5H1159" stroke="#CDCCCB"/>
</g>
</g>
<rect x="0.5" y="0.5" width="1158" height="158" rx="7.5" stroke="#CDCCCB"/>
<defs>
<clipPath id="clip0_414_61528">
<rect width="1159" height="159" rx="8" fill="white"/>
</clipPath>
</defs>
</svg>
