<svg width="712" height="144" viewBox="0 0 712 144" fill="none" xmlns="http://www.w3.org/2000/svg">
<rect x="0.5" y="0.5" width="711" height="143" rx="7.5" fill="white"/>
<rect x="0.5" y="0.5" width="711" height="143" rx="7.5" stroke="#CDCCCB"/>
<path d="M73.9186 69.28C73.2519 69.28 72.7319 69.0933 72.3586 68.72C72.0119 68.3467 71.8386 67.8267 71.8386 67.16V42.64C71.8386 41.9467 72.0119 41.4267 72.3586 41.08C72.7319 40.7067 73.2519 40.52 73.9186 40.52C74.5853 40.52 75.0919 40.7067 75.4386 41.08C75.8119 41.4267 75.9986 41.9467 75.9986 42.64V52.96H91.7986V42.64C91.7986 41.9467 91.9719 41.4267 92.3186 41.08C92.6919 40.7067 93.2119 40.52 93.8786 40.52C94.5453 40.52 95.0519 40.7067 95.3986 41.08C95.7453 41.4267 95.9186 41.9467 95.9186 42.64V67.16C95.9186 67.8267 95.7453 68.3467 95.3986 68.72C95.0519 69.0933 94.5453 69.28 93.8786 69.28C93.2119 69.28 92.6919 69.0933 92.3186 68.72C91.9719 68.3467 91.7986 67.8267 91.7986 67.16V56.44H75.9986V67.16C75.9986 67.8267 75.8253 68.3467 75.4786 68.72C75.1319 69.0933 74.6119 69.28 73.9186 69.28ZM104.423 69C103.863 69 103.423 68.84 103.103 68.52C102.783 68.2 102.623 67.7733 102.623 67.24C102.623 66.68 102.783 66.2533 103.103 65.96C103.423 65.6667 103.863 65.52 104.423 65.52H109.303V44.24H111.383L105.543 47.96C105.116 48.2 104.716 48.2933 104.343 48.24C103.996 48.1867 103.689 48.04 103.423 47.8C103.183 47.56 103.009 47.2667 102.903 46.92C102.823 46.5733 102.849 46.2133 102.983 45.84C103.143 45.4667 103.423 45.16 103.823 44.92L109.343 41.44C109.796 41.1733 110.223 40.96 110.623 40.8C111.049 40.6133 111.449 40.52 111.823 40.52C112.276 40.52 112.649 40.6533 112.943 40.92C113.263 41.16 113.423 41.5733 113.423 42.16V65.52H117.903C118.489 65.52 118.943 65.6667 119.263 65.96C119.583 66.2533 119.743 66.68 119.743 67.24C119.743 67.8 119.583 68.24 119.263 68.56C118.943 68.8533 118.489 69 117.903 69H104.423ZM139.274 75.64C137.727 72.9467 136.594 70.16 135.874 67.28C135.154 64.3733 134.794 61.44 134.794 58.48C134.794 56.5067 134.954 54.5467 135.274 52.6C135.594 50.6533 136.074 48.7333 136.714 46.84C137.381 44.9467 138.234 43.1067 139.274 41.32C139.514 40.8933 139.834 40.64 140.234 40.56C140.661 40.4533 141.047 40.48 141.394 40.64C141.767 40.8 142.034 41.08 142.194 41.48C142.381 41.88 142.367 42.3867 142.154 43C141.461 44.7333 140.887 46.4533 140.434 48.16C140.007 49.8667 139.674 51.5733 139.434 53.28C139.221 54.96 139.114 56.6933 139.114 58.48C139.114 60.24 139.221 61.9733 139.434 63.68C139.674 65.3867 140.021 67.0933 140.474 68.8C140.954 70.48 141.514 72.2 142.154 73.96C142.367 74.5733 142.381 75.08 142.194 75.48C142.034 75.88 141.767 76.16 141.394 76.32C141.047 76.48 140.661 76.5067 140.234 76.4C139.834 76.2933 139.514 76.04 139.274 75.64ZM148.551 69.28C147.885 69.28 147.365 69.0933 146.991 68.72C146.645 68.3467 146.471 67.8267 146.471 67.16V42.92C146.471 42.2267 146.658 41.7067 147.031 41.36C147.405 40.9867 147.925 40.8 148.591 40.8H158.151C161.191 40.8 163.538 41.56 165.191 43.08C166.845 44.5733 167.671 46.68 167.671 49.4C167.671 52.1467 166.845 54.28 165.191 55.8C163.538 57.2933 161.191 58.04 158.151 58.04H150.631V67.16C150.631 67.8267 150.458 68.3467 150.111 68.72C149.765 69.0933 149.245 69.28 148.551 69.28ZM150.631 54.72H157.551C159.551 54.72 161.058 54.28 162.071 53.4C163.111 52.4933 163.631 51.16 163.631 49.4C163.631 47.6667 163.111 46.36 162.071 45.48C161.058 44.5733 159.551 44.12 157.551 44.12H150.631V54.72ZM172.345 69.28C171.678 69.28 171.172 69.1067 170.825 68.76C170.478 68.3867 170.305 67.88 170.305 67.24V51.24C170.305 50.5733 170.478 50.0667 170.825 49.72C171.172 49.3733 171.652 49.2 172.265 49.2C172.905 49.2 173.385 49.3733 173.705 49.72C174.052 50.0667 174.225 50.5733 174.225 51.24V54.16H173.825C174.252 52.56 175.038 51.3467 176.185 50.52C177.332 49.6933 178.798 49.2133 180.585 49.08C181.065 49.0533 181.438 49.1733 181.705 49.44C181.998 49.7067 182.158 50.12 182.185 50.68C182.238 51.24 182.118 51.6933 181.825 52.04C181.532 52.36 181.078 52.5467 180.465 52.6L179.705 52.68C177.972 52.84 176.652 53.3867 175.745 54.32C174.838 55.2533 174.385 56.5333 174.385 58.16V67.24C174.385 67.88 174.212 68.3867 173.865 68.76C173.545 69.1067 173.038 69.28 172.345 69.28ZM192.433 69.36C190.46 69.36 188.753 68.9467 187.313 68.12C185.9 67.2933 184.793 66.12 183.993 64.6C183.193 63.08 182.793 61.2933 182.793 59.24C182.793 57.6667 183.02 56.2667 183.473 55.04C183.927 53.8133 184.567 52.76 185.393 51.88C186.247 50.9733 187.26 50.2933 188.433 49.84C189.633 49.36 190.967 49.12 192.433 49.12C194.38 49.12 196.06 49.5333 197.473 50.36C198.913 51.1867 200.033 52.36 200.833 53.88C201.633 55.3733 202.033 57.16 202.033 59.24C202.033 60.7867 201.807 62.1867 201.353 63.44C200.9 64.6933 200.247 65.76 199.393 66.64C198.567 67.52 197.553 68.2 196.353 68.68C195.18 69.1333 193.873 69.36 192.433 69.36ZM192.433 66.24C193.527 66.24 194.487 65.9733 195.313 65.44C196.14 64.9067 196.78 64.12 197.233 63.08C197.713 62.04 197.953 60.76 197.953 59.24C197.953 56.9467 197.447 55.2133 196.433 54.04C195.42 52.8667 194.087 52.28 192.433 52.28C191.313 52.28 190.34 52.5467 189.513 53.08C188.687 53.5867 188.033 54.36 187.553 55.4C187.1 56.44 186.873 57.72 186.873 59.24C186.873 61.5067 187.38 63.24 188.393 64.44C189.407 65.64 190.753 66.24 192.433 66.24ZM213.01 69.36C211.304 69.36 209.797 68.96 208.49 68.16C207.21 67.3333 206.21 66.16 205.49 64.64C204.77 63.0933 204.41 61.2933 204.41 59.24C204.41 57.1333 204.77 55.3333 205.49 53.84C206.21 52.3467 207.21 51.1867 208.49 50.36C209.797 49.5333 211.304 49.12 213.01 49.12C214.717 49.12 216.184 49.5467 217.41 50.4C218.664 51.2267 219.504 52.3467 219.93 53.76H219.49V42.56C219.49 41.8933 219.664 41.3867 220.01 41.04C220.357 40.6933 220.85 40.52 221.49 40.52C222.13 40.52 222.624 40.6933 222.97 41.04C223.344 41.3867 223.53 41.8933 223.53 42.56V67.24C223.53 67.88 223.357 68.3867 223.01 68.76C222.664 69.1067 222.17 69.28 221.53 69.28C220.89 69.28 220.397 69.1067 220.05 68.76C219.704 68.3867 219.53 67.88 219.53 67.24V63.72L219.97 64.6C219.544 66.04 218.704 67.2 217.45 68.08C216.224 68.9333 214.744 69.36 213.01 69.36ZM214.05 66.24C215.144 66.24 216.104 65.9733 216.93 65.44C217.757 64.9067 218.397 64.12 218.85 63.08C219.33 62.04 219.57 60.76 219.57 59.24C219.57 56.9467 219.064 55.2133 218.05 54.04C217.037 52.8667 215.704 52.28 214.05 52.28C212.93 52.28 211.957 52.5467 211.13 53.08C210.304 53.5867 209.65 54.36 209.17 55.4C208.717 56.44 208.49 57.72 208.49 59.24C208.49 61.5067 208.997 63.24 210.01 64.44C211.024 65.64 212.37 66.24 214.05 66.24ZM235.163 69.36C233.59 69.36 232.27 69.0667 231.203 68.48C230.163 67.8933 229.377 67.0267 228.843 65.88C228.337 64.7067 228.083 63.24 228.083 61.48V51.24C228.083 50.5467 228.257 50.04 228.603 49.72C228.95 49.3733 229.443 49.2 230.083 49.2C230.723 49.2 231.217 49.3733 231.563 49.72C231.937 50.04 232.123 50.5467 232.123 51.24V61.52C232.123 63.0933 232.443 64.2533 233.083 65C233.723 65.7467 234.737 66.12 236.123 66.12C237.643 66.12 238.87 65.6133 239.803 64.6C240.763 63.56 241.243 62.2 241.243 60.52V51.24C241.243 50.5467 241.417 50.04 241.763 49.72C242.11 49.3733 242.617 49.2 243.283 49.2C243.923 49.2 244.417 49.3733 244.763 49.72C245.11 50.04 245.283 50.5467 245.283 51.24V67.24C245.283 68.6 244.63 69.28 243.323 69.28C242.71 69.28 242.23 69.1067 241.883 68.76C241.537 68.3867 241.363 67.88 241.363 67.24V63.84L241.883 64.72C241.35 66.2133 240.497 67.36 239.323 68.16C238.15 68.96 236.763 69.36 235.163 69.36ZM251.977 69.24C251.337 69.24 250.843 69.0533 250.497 68.68C250.15 68.28 249.977 67.7333 249.977 67.04V51.44C249.977 50.7467 250.15 50.2133 250.497 49.84C250.843 49.4667 251.337 49.28 251.977 49.28C252.617 49.28 253.11 49.4667 253.457 49.84C253.83 50.2133 254.017 50.7467 254.017 51.44V67.04C254.017 67.7333 253.843 68.28 253.497 68.68C253.15 69.0533 252.643 69.24 251.977 69.24ZM251.977 45.12C251.177 45.12 250.55 44.92 250.097 44.52C249.67 44.12 249.457 43.56 249.457 42.84C249.457 42.0933 249.67 41.5333 250.097 41.16C250.55 40.76 251.177 40.56 251.977 40.56C252.777 40.56 253.39 40.76 253.817 41.16C254.27 41.5333 254.497 42.0933 254.497 42.84C254.497 43.56 254.27 44.12 253.817 44.52C253.39 44.92 252.777 45.12 251.977 45.12ZM267.023 69.36C265.423 69.36 264.077 69.08 262.983 68.52C261.89 67.96 261.077 67.1333 260.543 66.04C260.01 64.9467 259.743 63.6133 259.743 62.04V52.6H257.343C256.81 52.6 256.397 52.4667 256.103 52.2C255.81 51.9067 255.663 51.52 255.663 51.04C255.663 50.5333 255.81 50.1467 256.103 49.88C256.397 49.6133 256.81 49.48 257.343 49.48H259.743V45.36C259.743 44.6933 259.917 44.1867 260.263 43.84C260.637 43.4933 261.143 43.32 261.783 43.32C262.423 43.32 262.917 43.4933 263.263 43.84C263.61 44.1867 263.783 44.6933 263.783 45.36V49.48H268.463C268.997 49.48 269.41 49.6133 269.703 49.88C269.997 50.1467 270.143 50.5333 270.143 51.04C270.143 51.52 269.997 51.9067 269.703 52.2C269.41 52.4667 268.997 52.6 268.463 52.6H263.783V61.72C263.783 63.1333 264.077 64.2 264.663 64.92C265.277 65.64 266.263 66 267.623 66C268.103 66 268.517 65.96 268.863 65.88C269.237 65.7733 269.543 65.7067 269.783 65.68C270.077 65.68 270.317 65.7867 270.503 66C270.69 66.1867 270.783 66.56 270.783 67.12C270.783 67.52 270.703 67.8933 270.543 68.24C270.41 68.5867 270.157 68.8133 269.783 68.92C269.463 69.0267 269.023 69.12 268.463 69.2C267.93 69.3067 267.45 69.36 267.023 69.36ZM285.22 69C284.66 69 284.22 68.84 283.9 68.52C283.58 68.2 283.42 67.7733 283.42 67.24C283.42 66.68 283.58 66.2533 283.9 65.96C284.22 65.6667 284.66 65.52 285.22 65.52H290.1V44.24H292.18L286.34 47.96C285.913 48.2 285.513 48.2933 285.14 48.24C284.793 48.1867 284.486 48.04 284.22 47.8C283.98 47.56 283.806 47.2667 283.7 46.92C283.62 46.5733 283.646 46.2133 283.78 45.84C283.94 45.4667 284.22 45.16 284.62 44.92L290.14 41.44C290.593 41.1733 291.02 40.96 291.42 40.8C291.846 40.6133 292.246 40.52 292.62 40.52C293.073 40.52 293.446 40.6533 293.74 40.92C294.06 41.16 294.22 41.5733 294.22 42.16V65.52H298.7C299.286 65.52 299.74 65.6667 300.06 65.96C300.38 66.2533 300.54 66.68 300.54 67.24C300.54 67.8 300.38 68.24 300.06 68.56C299.74 68.8533 299.286 69 298.7 69H285.22ZM306.924 75.64C306.684 76.04 306.351 76.2933 305.924 76.4C305.524 76.5067 305.137 76.48 304.764 76.32C304.391 76.16 304.124 75.88 303.964 75.48C303.804 75.08 303.831 74.5733 304.044 73.96C304.764 72.2 305.337 70.48 305.764 68.8C306.191 67.0933 306.511 65.3867 306.724 63.68C306.964 61.9733 307.084 60.24 307.084 58.48C307.084 56.6933 306.964 54.96 306.724 53.28C306.484 51.5733 306.137 49.88 305.684 48.2C305.257 46.4933 304.711 44.76 304.044 43C303.831 42.3867 303.804 41.88 303.964 41.48C304.151 41.08 304.431 40.8 304.804 40.64C305.177 40.48 305.564 40.4533 305.964 40.56C306.364 40.64 306.684 40.8933 306.924 41.32C308.471 43.9867 309.604 46.7733 310.324 49.68C311.044 52.56 311.404 55.4933 311.404 58.48C311.404 60.4533 311.231 62.4267 310.884 64.4C310.564 66.3467 310.084 68.2667 309.444 70.16C308.804 72.0533 307.964 73.88 306.924 75.64Z" fill="#1A1A1A"/>
<path d="M126.785 105.112C126.518 105.112 126.31 105.037 126.161 104.888C126.022 104.739 125.953 104.531 125.953 104.264V94.456C125.953 94.1787 126.022 93.9707 126.161 93.832C126.31 93.6827 126.518 93.608 126.785 93.608C127.051 93.608 127.254 93.6827 127.393 93.832C127.542 93.9707 127.617 94.1787 127.617 94.456V98.584H133.937V94.456C133.937 94.1787 134.006 93.9707 134.145 93.832C134.294 93.6827 134.502 93.608 134.769 93.608C135.035 93.608 135.238 93.6827 135.377 93.832C135.515 93.9707 135.585 94.1787 135.585 94.456V104.264C135.585 104.531 135.515 104.739 135.377 104.888C135.238 105.037 135.035 105.112 134.769 105.112C134.502 105.112 134.294 105.037 134.145 104.888C134.006 104.739 133.937 104.531 133.937 104.264V99.976H127.617V104.264C127.617 104.531 127.547 104.739 127.409 104.888C127.27 105.037 127.062 105.112 126.785 105.112ZM141.206 105.144C140.353 105.144 139.617 104.984 138.998 104.664C138.39 104.333 137.916 103.869 137.574 103.272C137.244 102.664 137.078 101.944 137.078 101.112C137.078 100.301 137.244 99.592 137.574 98.984C137.905 98.376 138.358 97.9013 138.934 97.56C139.51 97.2187 140.166 97.048 140.902 97.048C141.446 97.048 141.932 97.1387 142.358 97.32C142.785 97.4907 143.148 97.7467 143.446 98.088C143.756 98.4187 143.985 98.824 144.134 99.304C144.294 99.784 144.374 100.323 144.374 100.92C144.374 101.101 144.321 101.24 144.214 101.336C144.108 101.421 143.948 101.464 143.734 101.464H138.358V100.472H143.286L143.014 100.696C143.014 100.163 142.934 99.7093 142.774 99.336C142.625 98.9627 142.396 98.68 142.086 98.488C141.788 98.2853 141.414 98.184 140.966 98.184C140.465 98.184 140.038 98.3013 139.686 98.536C139.345 98.7707 139.084 99.096 138.902 99.512C138.721 99.928 138.63 100.413 138.63 100.968V101.064C138.63 102.003 138.849 102.712 139.286 103.192C139.734 103.661 140.38 103.896 141.222 103.896C141.542 103.896 141.878 103.853 142.23 103.768C142.593 103.683 142.934 103.539 143.254 103.336C143.436 103.229 143.596 103.181 143.734 103.192C143.884 103.203 144.001 103.251 144.086 103.336C144.182 103.421 144.241 103.528 144.262 103.656C144.284 103.784 144.262 103.917 144.198 104.056C144.134 104.184 144.022 104.301 143.862 104.408C143.5 104.653 143.078 104.84 142.598 104.968C142.118 105.085 141.654 105.144 141.206 105.144ZM148.132 105.144C147.588 105.144 147.097 105.037 146.66 104.824C146.233 104.611 145.897 104.323 145.652 103.96C145.407 103.597 145.284 103.187 145.284 102.728C145.284 102.152 145.428 101.699 145.716 101.368C146.015 101.027 146.5 100.787 147.172 100.648C147.855 100.499 148.772 100.424 149.924 100.424H150.676V101.416H149.94C149.172 101.416 148.564 101.453 148.116 101.528C147.668 101.603 147.348 101.731 147.156 101.912C146.975 102.083 146.884 102.323 146.884 102.632C146.884 103.037 147.023 103.368 147.3 103.624C147.577 103.869 147.961 103.992 148.452 103.992C148.847 103.992 149.193 103.901 149.492 103.72C149.791 103.528 150.025 103.272 150.196 102.952C150.377 102.632 150.468 102.264 150.468 101.848V100.008C150.468 99.4 150.34 98.9627 150.084 98.696C149.828 98.4293 149.407 98.296 148.82 98.296C148.479 98.296 148.121 98.3387 147.748 98.424C147.385 98.5093 147.007 98.6533 146.612 98.856C146.431 98.9413 146.276 98.968 146.148 98.936C146.02 98.904 145.919 98.8347 145.844 98.728C145.769 98.6107 145.727 98.488 145.716 98.36C145.716 98.2213 145.748 98.088 145.812 97.96C145.887 97.832 146.009 97.736 146.18 97.672C146.649 97.448 147.113 97.288 147.572 97.192C148.031 97.096 148.463 97.048 148.868 97.048C149.583 97.048 150.169 97.16 150.628 97.384C151.097 97.608 151.444 97.9493 151.668 98.408C151.892 98.8667 152.004 99.4587 152.004 100.184V104.296C152.004 104.552 151.94 104.755 151.812 104.904C151.684 105.043 151.497 105.112 151.252 105.112C151.017 105.112 150.831 105.043 150.692 104.904C150.553 104.755 150.484 104.552 150.484 104.296V103.256H150.628C150.543 103.651 150.383 103.992 150.148 104.28C149.924 104.557 149.641 104.771 149.3 104.92C148.959 105.069 148.569 105.144 148.132 105.144ZM156.706 105.144C156.023 105.144 155.42 104.984 154.898 104.664C154.386 104.333 153.986 103.864 153.698 103.256C153.41 102.637 153.266 101.917 153.266 101.096C153.266 100.253 153.41 99.5333 153.698 98.936C153.986 98.3387 154.386 97.8747 154.898 97.544C155.42 97.2133 156.023 97.048 156.706 97.048C157.388 97.048 157.975 97.2187 158.466 97.56C158.967 97.8907 159.303 98.3387 159.474 98.904H159.298V94.424C159.298 94.1573 159.367 93.9547 159.506 93.816C159.644 93.6773 159.842 93.608 160.098 93.608C160.354 93.608 160.551 93.6773 160.69 93.816C160.839 93.9547 160.914 94.1573 160.914 94.424V104.296C160.914 104.552 160.844 104.755 160.706 104.904C160.567 105.043 160.37 105.112 160.114 105.112C159.858 105.112 159.66 105.043 159.522 104.904C159.383 104.755 159.314 104.552 159.314 104.296V102.888L159.49 103.24C159.319 103.816 158.983 104.28 158.482 104.632C157.991 104.973 157.399 105.144 156.706 105.144ZM157.122 103.896C157.559 103.896 157.943 103.789 158.274 103.576C158.604 103.363 158.86 103.048 159.042 102.632C159.234 102.216 159.33 101.704 159.33 101.096C159.33 100.179 159.127 99.4853 158.722 99.016C158.316 98.5467 157.783 98.312 157.122 98.312C156.674 98.312 156.284 98.4187 155.954 98.632C155.623 98.8347 155.362 99.144 155.17 99.56C154.988 99.976 154.898 100.488 154.898 101.096C154.898 102.003 155.1 102.696 155.506 103.176C155.911 103.656 156.45 103.896 157.122 103.896ZM163.483 105.096C163.227 105.096 163.03 105.021 162.891 104.872C162.752 104.712 162.683 104.493 162.683 104.216V97.976C162.683 97.6987 162.752 97.4853 162.891 97.336C163.03 97.1867 163.227 97.112 163.483 97.112C163.739 97.112 163.936 97.1867 164.075 97.336C164.224 97.4853 164.299 97.6987 164.299 97.976V104.216C164.299 104.493 164.23 104.712 164.091 104.872C163.952 105.021 163.75 105.096 163.483 105.096ZM163.483 95.448C163.163 95.448 162.912 95.368 162.731 95.208C162.56 95.048 162.475 94.824 162.475 94.536C162.475 94.2373 162.56 94.0133 162.731 93.864C162.912 93.704 163.163 93.624 163.483 93.624C163.803 93.624 164.048 93.704 164.219 93.864C164.4 94.0133 164.491 94.2373 164.491 94.536C164.491 94.824 164.4 95.048 164.219 95.208C164.048 95.368 163.803 95.448 163.483 95.448ZM166.874 105.112C166.618 105.112 166.42 105.043 166.282 104.904C166.143 104.755 166.074 104.552 166.074 104.296V97.896C166.074 97.6293 166.143 97.4267 166.282 97.288C166.42 97.1493 166.612 97.08 166.858 97.08C167.114 97.08 167.306 97.1493 167.434 97.288C167.572 97.4267 167.642 97.6293 167.642 97.896V99.144L167.466 98.856C167.7 98.2587 168.068 97.8107 168.57 97.512C169.071 97.2027 169.647 97.048 170.298 97.048C170.916 97.048 171.428 97.1653 171.834 97.4C172.25 97.624 172.559 97.9707 172.762 98.44C172.964 98.8987 173.066 99.48 173.066 100.184V104.296C173.066 104.552 172.996 104.755 172.858 104.904C172.719 105.043 172.522 105.112 172.266 105.112C171.999 105.112 171.796 105.043 171.658 104.904C171.519 104.755 171.45 104.552 171.45 104.296V100.28C171.45 99.608 171.316 99.1173 171.05 98.808C170.794 98.4987 170.388 98.344 169.834 98.344C169.183 98.344 168.66 98.5467 168.266 98.952C167.882 99.3573 167.69 99.9013 167.69 100.584V104.296C167.69 104.84 167.418 105.112 166.874 105.112ZM178.328 108.024C177.752 108.024 177.192 107.965 176.648 107.848C176.115 107.731 175.63 107.539 175.192 107.272C175.032 107.187 174.926 107.08 174.872 106.952C174.819 106.835 174.803 106.712 174.824 106.584C174.856 106.456 174.915 106.344 175 106.248C175.086 106.152 175.187 106.088 175.304 106.056C175.432 106.024 175.566 106.045 175.704 106.12C176.174 106.376 176.616 106.547 177.032 106.632C177.459 106.728 177.854 106.776 178.216 106.776C178.963 106.776 179.523 106.584 179.896 106.2C180.27 105.827 180.456 105.272 180.456 104.536V102.904H180.6C180.44 103.491 180.104 103.955 179.592 104.296C179.08 104.637 178.488 104.808 177.816 104.808C177.112 104.808 176.499 104.648 175.976 104.328C175.454 103.997 175.048 103.544 174.76 102.968C174.472 102.381 174.328 101.699 174.328 100.92C174.328 100.333 174.408 99.8053 174.568 99.336C174.739 98.8667 174.974 98.4613 175.272 98.12C175.582 97.7787 175.95 97.5173 176.376 97.336C176.814 97.144 177.294 97.048 177.816 97.048C178.499 97.048 179.091 97.2187 179.592 97.56C180.104 97.9013 180.435 98.3653 180.584 98.952L180.424 99.224V97.896C180.424 97.6293 180.494 97.4267 180.632 97.288C180.782 97.1493 180.979 97.08 181.224 97.08C181.48 97.08 181.678 97.1493 181.816 97.288C181.955 97.4267 182.024 97.6293 182.024 97.896V104.344C182.024 105.56 181.71 106.477 181.08 107.096C180.451 107.715 179.534 108.024 178.328 108.024ZM178.2 103.544C178.67 103.544 179.07 103.437 179.4 103.224C179.731 103.011 179.987 102.707 180.168 102.312C180.35 101.917 180.44 101.453 180.44 100.92C180.44 100.12 180.238 99.4853 179.832 99.016C179.438 98.5467 178.894 98.312 178.2 98.312C177.742 98.312 177.347 98.4187 177.016 98.632C176.686 98.8453 176.424 99.1493 176.232 99.544C176.051 99.928 175.96 100.387 175.96 100.92C175.96 101.731 176.163 102.371 176.568 102.84C176.974 103.309 177.518 103.544 178.2 103.544ZM187.783 105.112C187.57 105.112 187.394 105.059 187.255 104.952C187.116 104.835 187.036 104.691 187.015 104.52C186.994 104.339 187.052 104.157 187.191 103.976L190.967 98.904V99.576L187.399 94.776C187.26 94.584 187.196 94.3973 187.207 94.216C187.228 94.0347 187.308 93.8907 187.447 93.784C187.586 93.6667 187.756 93.608 187.959 93.608C188.13 93.608 188.279 93.6507 188.407 93.736C188.546 93.8107 188.684 93.944 188.823 94.136L191.927 98.392H191.415L194.487 94.136C194.626 93.944 194.759 93.8107 194.887 93.736C195.026 93.6507 195.186 93.608 195.367 93.608C195.58 93.608 195.756 93.6667 195.895 93.784C196.034 93.8907 196.108 94.0347 196.119 94.216C196.14 94.3867 196.076 94.5733 195.927 94.776L192.359 99.576V98.904L196.119 103.976C196.258 104.157 196.316 104.339 196.295 104.52C196.284 104.691 196.21 104.835 196.071 104.952C195.932 105.059 195.751 105.112 195.527 105.112C195.367 105.112 195.218 105.069 195.079 104.984C194.94 104.899 194.796 104.765 194.647 104.584L191.351 100.072H191.959L188.679 104.584C188.54 104.765 188.396 104.899 188.247 104.984C188.108 105.069 187.954 105.112 187.783 105.112ZM198.598 105C198.331 105 198.123 104.925 197.974 104.776C197.824 104.627 197.75 104.419 197.75 104.152V94.504C197.75 94.2267 197.819 94.0187 197.958 93.88C198.107 93.7307 198.315 93.656 198.582 93.656C198.848 93.656 199.051 93.7307 199.19 93.88C199.339 94.0187 199.414 94.2267 199.414 94.504V103.576H204.374C204.608 103.576 204.79 103.64 204.918 103.768C205.046 103.885 205.11 104.056 205.11 104.28C205.11 104.504 205.046 104.68 204.918 104.808C204.79 104.936 204.608 105 204.374 105H198.598ZM211.892 107.656C211.274 106.579 210.82 105.464 210.532 104.312C210.244 103.149 210.1 101.976 210.1 100.792C210.1 100.003 210.164 99.2187 210.292 98.44C210.42 97.6613 210.612 96.8933 210.868 96.136C211.135 95.3787 211.476 94.6427 211.892 93.928C211.988 93.7573 212.116 93.656 212.276 93.624C212.447 93.5813 212.602 93.592 212.74 93.656C212.89 93.72 212.996 93.832 213.06 93.992C213.135 94.152 213.13 94.3547 213.044 94.6C212.767 95.2933 212.538 95.9813 212.356 96.664C212.186 97.3467 212.052 98.0293 211.956 98.712C211.871 99.384 211.828 100.077 211.828 100.792C211.828 101.496 211.871 102.189 211.956 102.872C212.052 103.555 212.191 104.237 212.372 104.92C212.564 105.592 212.788 106.28 213.044 106.984C213.13 107.229 213.135 107.432 213.06 107.592C212.996 107.752 212.89 107.864 212.74 107.928C212.602 107.992 212.447 108.003 212.276 107.96C212.116 107.917 211.988 107.816 211.892 107.656ZM220.015 105.112C219.759 105.112 219.557 105.043 219.407 104.904C219.258 104.755 219.183 104.552 219.183 104.296V102.712H214.895C214.629 102.712 214.415 102.653 214.255 102.536C214.095 102.419 214.015 102.237 214.015 101.992C214.015 101.853 214.047 101.704 214.111 101.544C214.186 101.384 214.314 101.176 214.495 100.92L219.151 94.152C219.269 93.9707 219.402 93.8373 219.551 93.752C219.701 93.656 219.871 93.608 220.063 93.608C220.287 93.608 220.469 93.6773 220.607 93.816C220.757 93.944 220.831 94.1467 220.831 94.424V101.32H221.839C222.095 101.32 222.282 101.379 222.399 101.496C222.527 101.613 222.591 101.784 222.591 102.008C222.591 102.243 222.527 102.419 222.399 102.536C222.282 102.653 222.095 102.712 221.839 102.712H220.831V104.296C220.831 104.552 220.757 104.755 220.607 104.904C220.469 105.043 220.271 105.112 220.015 105.112ZM219.183 101.32V95.672H219.615L215.439 101.768V101.32H219.183ZM227.253 105.144C225.941 105.144 224.938 104.648 224.245 103.656C223.562 102.653 223.221 101.219 223.221 99.352C223.221 98.0827 223.376 97.0213 223.685 96.168C223.994 95.3147 224.448 94.6693 225.045 94.232C225.642 93.7947 226.378 93.576 227.253 93.576C228.576 93.576 229.578 94.0667 230.261 95.048C230.944 96.0187 231.285 97.448 231.285 99.336C231.285 100.584 231.13 101.64 230.821 102.504C230.512 103.368 230.058 104.024 229.461 104.472C228.864 104.92 228.128 105.144 227.253 105.144ZM227.253 103.768C228.074 103.768 228.677 103.411 229.061 102.696C229.456 101.971 229.653 100.851 229.653 99.336C229.653 97.8107 229.456 96.7013 229.061 96.008C228.677 95.304 228.074 94.952 227.253 94.952C226.442 94.952 225.84 95.304 225.445 96.008C225.05 96.7013 224.853 97.8107 224.853 99.336C224.853 100.851 225.05 101.971 225.445 102.696C225.84 103.411 226.442 103.768 227.253 103.768ZM232.667 105.512C232.614 105.683 232.528 105.805 232.411 105.88C232.294 105.955 232.166 105.992 232.027 105.992C231.888 105.992 231.76 105.955 231.643 105.88C231.536 105.816 231.462 105.72 231.419 105.592C231.366 105.464 231.366 105.309 231.419 105.128L235.179 93.48C235.232 93.3093 235.318 93.1867 235.435 93.112C235.552 93.0267 235.675 92.9893 235.803 93C235.942 93 236.064 93.0373 236.171 93.112C236.288 93.176 236.368 93.272 236.411 93.4C236.464 93.5173 236.47 93.6667 236.427 93.848L232.667 105.512ZM242.453 105.112C242.197 105.112 241.994 105.043 241.845 104.904C241.696 104.755 241.621 104.552 241.621 104.296V102.712H237.333C237.066 102.712 236.853 102.653 236.693 102.536C236.533 102.419 236.453 102.237 236.453 101.992C236.453 101.853 236.485 101.704 236.549 101.544C236.624 101.384 236.752 101.176 236.933 100.92L241.589 94.152C241.706 93.9707 241.84 93.8373 241.989 93.752C242.138 93.656 242.309 93.608 242.501 93.608C242.725 93.608 242.906 93.6773 243.045 93.816C243.194 93.944 243.269 94.1467 243.269 94.424V101.32H244.277C244.533 101.32 244.72 101.379 244.837 101.496C244.965 101.613 245.029 101.784 245.029 102.008C245.029 102.243 244.965 102.419 244.837 102.536C244.72 102.653 244.533 102.712 244.277 102.712H243.269V104.296C243.269 104.552 243.194 104.755 243.045 104.904C242.906 105.043 242.709 105.112 242.453 105.112ZM241.621 101.32V95.672H242.053L237.877 101.768V101.32H241.621ZM249.691 105.144C248.837 105.144 248.101 105.021 247.483 104.776C246.875 104.531 246.405 104.173 246.075 103.704C245.755 103.224 245.595 102.653 245.595 101.992C245.595 101.459 245.701 100.989 245.915 100.584C246.128 100.168 246.427 99.832 246.811 99.576C247.195 99.32 247.637 99.16 248.139 99.096V99.384C247.445 99.2347 246.891 98.9093 246.475 98.408C246.069 97.896 245.867 97.288 245.867 96.584C245.867 95.9547 246.021 95.416 246.331 94.968C246.651 94.5093 247.099 94.1627 247.675 93.928C248.251 93.6933 248.923 93.576 249.691 93.576C250.469 93.576 251.147 93.6933 251.723 93.928C252.299 94.1627 252.741 94.5093 253.051 94.968C253.371 95.416 253.531 95.9547 253.531 96.584C253.531 97.0533 253.435 97.4853 253.243 97.88C253.061 98.264 252.8 98.5893 252.459 98.856C252.117 99.112 251.717 99.2827 251.259 99.368V99.096C252.016 99.2027 252.624 99.5173 253.083 100.04C253.552 100.552 253.787 101.203 253.787 101.992C253.787 102.653 253.621 103.224 253.291 103.704C252.971 104.173 252.507 104.531 251.899 104.776C251.291 105.021 250.555 105.144 249.691 105.144ZM249.691 103.832C250.533 103.832 251.168 103.672 251.595 103.352C252.021 103.021 252.235 102.531 252.235 101.88C252.235 101.229 252.021 100.744 251.595 100.424C251.168 100.104 250.533 99.944 249.691 99.944C248.859 99.944 248.224 100.104 247.787 100.424C247.36 100.744 247.147 101.229 247.147 101.88C247.147 102.531 247.36 103.021 247.787 103.352C248.224 103.672 248.859 103.832 249.691 103.832ZM249.691 98.632C250.171 98.632 250.576 98.5573 250.907 98.408C251.248 98.248 251.509 98.0293 251.691 97.752C251.872 97.464 251.963 97.128 251.963 96.744C251.963 96.168 251.76 95.7147 251.355 95.384C250.96 95.0533 250.405 94.888 249.691 94.888C248.976 94.888 248.421 95.0533 248.027 95.384C247.632 95.7147 247.435 96.168 247.435 96.744C247.435 97.3307 247.632 97.7947 248.027 98.136C248.421 98.4667 248.976 98.632 249.691 98.632ZM255.952 107.656C255.856 107.816 255.723 107.917 255.552 107.96C255.392 108.003 255.238 107.992 255.088 107.928C254.939 107.864 254.832 107.752 254.768 107.592C254.704 107.432 254.715 107.229 254.8 106.984C255.088 106.28 255.318 105.592 255.488 104.92C255.659 104.237 255.787 103.555 255.872 102.872C255.968 102.189 256.016 101.496 256.016 100.792C256.016 100.077 255.968 99.384 255.872 98.712C255.776 98.0293 255.638 97.352 255.456 96.68C255.286 95.9973 255.067 95.304 254.8 94.6C254.715 94.3547 254.704 94.152 254.768 93.992C254.843 93.832 254.955 93.72 255.104 93.656C255.254 93.592 255.408 93.5813 255.568 93.624C255.728 93.656 255.856 93.7573 255.952 93.928C256.571 94.9947 257.024 96.1093 257.312 97.272C257.6 98.424 257.744 99.5973 257.744 100.792C257.744 101.581 257.675 102.371 257.536 103.16C257.408 103.939 257.216 104.707 256.96 105.464C256.704 106.221 256.368 106.952 255.952 107.656Z" fill="#1A1A1A"/>
<path d="M426.835 71.224C426.302 71.224 425.886 71.0747 425.587 70.776C425.31 70.4773 425.171 70.0613 425.171 69.528V49.912C425.171 49.3573 425.31 48.9413 425.587 48.664C425.886 48.3653 426.302 48.216 426.835 48.216C427.368 48.216 427.774 48.3653 428.051 48.664C428.35 48.9413 428.499 49.3573 428.499 49.912V58.168H441.139V49.912C441.139 49.3573 441.278 48.9413 441.555 48.664C441.854 48.3653 442.27 48.216 442.803 48.216C443.336 48.216 443.742 48.3653 444.019 48.664C444.296 48.9413 444.435 49.3573 444.435 49.912V69.528C444.435 70.0613 444.296 70.4773 444.019 70.776C443.742 71.0747 443.336 71.224 442.803 71.224C442.27 71.224 441.854 71.0747 441.555 70.776C441.278 70.4773 441.139 70.0613 441.139 69.528V60.952H428.499V69.528C428.499 70.0613 428.36 70.4773 428.083 70.776C427.806 71.0747 427.39 71.224 426.835 71.224ZM451.038 71C450.59 71 450.238 70.872 449.982 70.616C449.726 70.36 449.598 70.0187 449.598 69.592C449.598 69.144 449.726 68.8027 449.982 68.568C450.238 68.3333 450.59 68.216 451.038 68.216H454.942V51.192H456.606L451.934 54.168C451.593 54.36 451.273 54.4347 450.974 54.392C450.697 54.3493 450.451 54.232 450.238 54.04C450.046 53.848 449.907 53.6133 449.822 53.336C449.758 53.0587 449.779 52.7707 449.886 52.472C450.014 52.1733 450.238 51.928 450.558 51.736L454.974 48.952C455.337 48.7387 455.678 48.568 455.998 48.44C456.339 48.2907 456.659 48.216 456.958 48.216C457.321 48.216 457.619 48.3227 457.854 48.536C458.11 48.728 458.238 49.0587 458.238 49.528V68.216H461.822C462.291 68.216 462.654 68.3333 462.91 68.568C463.166 68.8027 463.294 69.144 463.294 69.592C463.294 70.04 463.166 70.392 462.91 70.648C462.654 70.8827 462.291 71 461.822 71H451.038ZM478.519 76.312C477.282 74.1573 476.375 71.928 475.799 69.624C475.223 67.2987 474.935 64.952 474.935 62.584C474.935 61.0053 475.063 59.4373 475.319 57.88C475.575 56.3227 475.959 54.7867 476.471 53.272C477.004 51.7573 477.687 50.2853 478.519 48.856C478.711 48.5147 478.967 48.312 479.287 48.248C479.628 48.1627 479.938 48.184 480.215 48.312C480.514 48.44 480.727 48.664 480.855 48.984C481.004 49.304 480.994 49.7093 480.823 50.2C480.268 51.5867 479.81 52.9627 479.447 54.328C479.106 55.6933 478.839 57.0587 478.647 58.424C478.476 59.768 478.391 61.1547 478.391 62.584C478.391 63.992 478.476 65.3787 478.647 66.744C478.839 68.1093 479.116 69.4747 479.479 70.84C479.863 72.184 480.311 73.56 480.823 74.968C480.994 75.4587 481.004 75.864 480.855 76.184C480.727 76.504 480.514 76.728 480.215 76.856C479.938 76.984 479.628 77.0053 479.287 76.92C478.967 76.8347 478.711 76.632 478.519 76.312ZM485.741 71.224C485.208 71.224 484.792 71.0747 484.493 70.776C484.216 70.4773 484.077 70.0613 484.077 69.528V50.136C484.077 49.5813 484.226 49.1653 484.525 48.888C484.824 48.5893 485.24 48.44 485.773 48.44H493.421C495.853 48.44 497.73 49.048 499.053 50.264C500.376 51.4587 501.037 53.144 501.037 55.32C501.037 57.5173 500.376 59.224 499.053 60.44C497.73 61.6347 495.853 62.232 493.421 62.232H487.405V69.528C487.405 70.0613 487.266 70.4773 486.989 70.776C486.712 71.0747 486.296 71.224 485.741 71.224ZM487.405 59.576H492.941C494.541 59.576 495.746 59.224 496.557 58.52C497.389 57.7947 497.805 56.728 497.805 55.32C497.805 53.9333 497.389 52.888 496.557 52.184C495.746 51.4587 494.541 51.096 492.941 51.096H487.405V59.576ZM504.576 71.224C504.043 71.224 503.637 71.0853 503.36 70.808C503.083 70.5093 502.944 70.104 502.944 69.592V56.792C502.944 56.2587 503.083 55.8533 503.36 55.576C503.637 55.2987 504.021 55.16 504.512 55.16C505.024 55.16 505.408 55.2987 505.664 55.576C505.941 55.8533 506.08 56.2587 506.08 56.792V59.128H505.76C506.101 57.848 506.731 56.8773 507.648 56.216C508.565 55.5547 509.739 55.1707 511.168 55.064C511.552 55.0427 511.851 55.1387 512.064 55.352C512.299 55.5653 512.427 55.896 512.448 56.344C512.491 56.792 512.395 57.1547 512.16 57.432C511.925 57.688 511.563 57.8373 511.072 57.88L510.464 57.944C509.077 58.072 508.021 58.5093 507.296 59.256C506.571 60.0027 506.208 61.0267 506.208 62.328V69.592C506.208 70.104 506.069 70.5093 505.792 70.808C505.536 71.0853 505.131 71.224 504.576 71.224ZM520.447 71.288C518.868 71.288 517.503 70.9573 516.351 70.296C515.22 69.6347 514.335 68.696 513.695 67.48C513.055 66.264 512.735 64.8347 512.735 63.192C512.735 61.9333 512.916 60.8133 513.279 59.832C513.641 58.8507 514.153 58.008 514.815 57.304C515.497 56.5787 516.308 56.0347 517.247 55.672C518.207 55.288 519.273 55.096 520.447 55.096C522.004 55.096 523.348 55.4267 524.479 56.088C525.631 56.7493 526.527 57.688 527.167 58.904C527.807 60.0987 528.127 61.528 528.127 63.192C528.127 64.4293 527.945 65.5493 527.583 66.552C527.22 67.5547 526.697 68.408 526.015 69.112C525.353 69.816 524.543 70.36 523.583 70.744C522.644 71.1067 521.599 71.288 520.447 71.288ZM520.447 68.792C521.321 68.792 522.089 68.5787 522.751 68.152C523.412 67.7253 523.924 67.096 524.287 66.264C524.671 65.432 524.863 64.408 524.863 63.192C524.863 61.3573 524.457 59.9707 523.647 59.032C522.836 58.0933 521.769 57.624 520.447 57.624C519.551 57.624 518.772 57.8373 518.111 58.264C517.449 58.6693 516.927 59.288 516.543 60.12C516.18 60.952 515.999 61.976 515.999 63.192C515.999 65.0053 516.404 66.392 517.215 67.352C518.025 68.312 519.103 68.792 520.447 68.792ZM536.708 71.288C535.343 71.288 534.138 70.968 533.092 70.328C532.068 69.6667 531.268 68.728 530.692 67.512C530.116 66.2747 529.828 64.8347 529.828 63.192C529.828 61.5067 530.116 60.0667 530.692 58.872C531.268 57.6773 532.068 56.7493 533.092 56.088C534.138 55.4267 535.343 55.096 536.708 55.096C538.074 55.096 539.247 55.4373 540.228 56.12C541.231 56.7813 541.903 57.6773 542.244 58.808H541.892V49.848C541.892 49.3147 542.031 48.9093 542.308 48.632C542.586 48.3547 542.98 48.216 543.492 48.216C544.004 48.216 544.399 48.3547 544.676 48.632C544.975 48.9093 545.124 49.3147 545.124 49.848V69.592C545.124 70.104 544.986 70.5093 544.708 70.808C544.431 71.0853 544.036 71.224 543.524 71.224C543.012 71.224 542.618 71.0853 542.34 70.808C542.063 70.5093 541.924 70.104 541.924 69.592V66.776L542.276 67.48C541.935 68.632 541.263 69.56 540.26 70.264C539.279 70.9467 538.095 71.288 536.708 71.288ZM537.54 68.792C538.415 68.792 539.183 68.5787 539.844 68.152C540.506 67.7253 541.018 67.096 541.38 66.264C541.764 65.432 541.956 64.408 541.956 63.192C541.956 61.3573 541.551 59.9707 540.74 59.032C539.93 58.0933 538.863 57.624 537.54 57.624C536.644 57.624 535.866 57.8373 535.204 58.264C534.543 58.6693 534.02 59.288 533.636 60.12C533.274 60.952 533.092 61.976 533.092 63.192C533.092 65.0053 533.498 66.392 534.308 67.352C535.119 68.312 536.196 68.792 537.54 68.792ZM554.231 71.288C552.972 71.288 551.916 71.0533 551.063 70.584C550.231 70.1147 549.601 69.4213 549.175 68.504C548.769 67.5653 548.567 66.392 548.567 64.984V56.792C548.567 56.2373 548.705 55.832 548.983 55.576C549.26 55.2987 549.655 55.16 550.167 55.16C550.679 55.16 551.073 55.2987 551.351 55.576C551.649 55.832 551.799 56.2373 551.799 56.792V65.016C551.799 66.2747 552.055 67.2027 552.567 67.8C553.079 68.3973 553.889 68.696 554.999 68.696C556.215 68.696 557.196 68.2907 557.943 67.48C558.711 66.648 559.095 65.56 559.095 64.216V56.792C559.095 56.2373 559.233 55.832 559.511 55.576C559.788 55.2987 560.193 55.16 560.727 55.16C561.239 55.16 561.633 55.2987 561.911 55.576C562.188 55.832 562.327 56.2373 562.327 56.792V69.592C562.327 70.68 561.804 71.224 560.759 71.224C560.268 71.224 559.884 71.0853 559.607 70.808C559.329 70.5093 559.191 70.104 559.191 69.592V66.872L559.607 67.576C559.18 68.7707 558.497 69.688 557.559 70.328C556.62 70.968 555.511 71.288 554.231 71.288ZM567.481 71.192C566.969 71.192 566.575 71.0427 566.297 70.744C566.02 70.424 565.881 69.9867 565.881 69.432V56.952C565.881 56.3973 566.02 55.9707 566.297 55.672C566.575 55.3733 566.969 55.224 567.481 55.224C567.993 55.224 568.388 55.3733 568.665 55.672C568.964 55.9707 569.113 56.3973 569.113 56.952V69.432C569.113 69.9867 568.975 70.424 568.697 70.744C568.42 71.0427 568.015 71.192 567.481 71.192ZM567.481 51.896C566.841 51.896 566.34 51.736 565.977 51.416C565.636 51.096 565.465 50.648 565.465 50.072C565.465 49.4747 565.636 49.0267 565.977 48.728C566.34 48.408 566.841 48.248 567.481 48.248C568.121 48.248 568.612 48.408 568.953 48.728C569.316 49.0267 569.497 49.4747 569.497 50.072C569.497 50.648 569.316 51.096 568.953 51.416C568.612 51.736 568.121 51.896 567.481 51.896ZM579.319 71.288C578.039 71.288 576.961 71.064 576.087 70.616C575.212 70.168 574.561 69.5067 574.135 68.632C573.708 67.7573 573.495 66.6907 573.495 65.432V57.88H571.575C571.148 57.88 570.817 57.7733 570.583 57.56C570.348 57.3253 570.231 57.016 570.231 56.632C570.231 56.2267 570.348 55.9173 570.583 55.704C570.817 55.4907 571.148 55.384 571.575 55.384H573.495V52.088C573.495 51.5547 573.633 51.1493 573.911 50.872C574.209 50.5947 574.615 50.456 575.127 50.456C575.639 50.456 576.033 50.5947 576.311 50.872C576.588 51.1493 576.727 51.5547 576.727 52.088V55.384H580.471C580.897 55.384 581.228 55.4907 581.463 55.704C581.697 55.9173 581.815 56.2267 581.815 56.632C581.815 57.016 581.697 57.3253 581.463 57.56C581.228 57.7733 580.897 57.88 580.471 57.88H576.727V65.176C576.727 66.3067 576.961 67.16 577.431 67.736C577.921 68.312 578.711 68.6 579.799 68.6C580.183 68.6 580.513 68.568 580.791 68.504C581.089 68.4187 581.335 68.3653 581.527 68.344C581.761 68.344 581.953 68.4293 582.103 68.6C582.252 68.7493 582.327 69.048 582.327 69.496C582.327 69.816 582.263 70.1147 582.135 70.392C582.028 70.6693 581.825 70.8507 581.527 70.936C581.271 71.0213 580.919 71.096 580.471 71.16C580.044 71.2453 579.66 71.288 579.319 71.288ZM592.708 71C592.132 71 591.716 70.872 591.46 70.616C591.204 70.3387 591.076 69.9653 591.076 69.496C591.076 69.1973 591.15 68.9093 591.3 68.632C591.449 68.3547 591.662 68.0667 591.94 67.768L598.756 60.472C599.801 59.3627 600.548 58.3493 600.996 57.432C601.465 56.4933 601.7 55.5547 601.7 54.616C601.7 53.4213 601.337 52.5147 600.612 51.896C599.886 51.2773 598.82 50.968 597.412 50.968C596.558 50.968 595.737 51.096 594.948 51.352C594.158 51.608 593.369 52.024 592.58 52.6C592.26 52.8133 591.961 52.9093 591.684 52.888C591.406 52.8667 591.161 52.76 590.948 52.568C590.756 52.376 590.628 52.1413 590.564 51.864C590.5 51.5867 590.51 51.2987 590.596 51C590.681 50.7013 590.884 50.4453 591.204 50.232C592.078 49.5707 593.092 49.0587 594.244 48.696C595.396 48.3333 596.569 48.152 597.764 48.152C599.321 48.152 600.633 48.3973 601.7 48.888C602.788 49.3573 603.609 50.0507 604.164 50.968C604.718 51.8853 604.996 53.0053 604.996 54.328C604.996 55.224 604.846 56.0987 604.548 56.952C604.27 57.8053 603.833 58.68 603.236 59.576C602.66 60.4507 601.902 61.3787 600.964 62.36L594.5 69.144V68.216H604.676C605.145 68.216 605.508 68.3333 605.764 68.568C606.02 68.8027 606.148 69.144 606.148 69.592C606.148 70.04 606.02 70.392 605.764 70.648C605.508 70.8827 605.145 71 604.676 71H592.708ZM610.639 76.312C610.447 76.632 610.18 76.8347 609.839 76.92C609.519 77.0053 609.21 76.984 608.911 76.856C608.612 76.728 608.399 76.504 608.271 76.184C608.143 75.864 608.164 75.4587 608.335 74.968C608.911 73.56 609.37 72.184 609.711 70.84C610.052 69.4747 610.308 68.1093 610.479 66.744C610.671 65.3787 610.767 63.992 610.767 62.584C610.767 61.1547 610.671 59.768 610.479 58.424C610.287 57.0587 610.01 55.704 609.647 54.36C609.306 52.9947 608.868 51.608 608.335 50.2C608.164 49.7093 608.143 49.304 608.271 48.984C608.42 48.664 608.644 48.44 608.943 48.312C609.242 48.184 609.551 48.1627 609.871 48.248C610.191 48.312 610.447 48.5147 610.639 48.856C611.876 50.9893 612.783 53.2187 613.359 55.544C613.935 57.848 614.223 60.1947 614.223 62.584C614.223 64.1627 614.084 65.7413 613.807 67.32C613.551 68.8773 613.167 70.4133 612.655 71.928C612.143 73.4427 611.471 74.904 610.639 76.312Z" fill="#1A1A1A"/>
<path d="M459.816 105.112C459.549 105.112 459.341 105.037 459.192 104.888C459.053 104.739 458.984 104.531 458.984 104.264V94.456C458.984 94.1787 459.053 93.9707 459.192 93.832C459.341 93.6827 459.549 93.608 459.816 93.608C460.083 93.608 460.285 93.6827 460.424 93.832C460.573 93.9707 460.648 94.1787 460.648 94.456V98.584H466.968V94.456C466.968 94.1787 467.037 93.9707 467.176 93.832C467.325 93.6827 467.533 93.608 467.8 93.608C468.067 93.608 468.269 93.6827 468.408 93.832C468.547 93.9707 468.616 94.1787 468.616 94.456V104.264C468.616 104.531 468.547 104.739 468.408 104.888C468.269 105.037 468.067 105.112 467.8 105.112C467.533 105.112 467.325 105.037 467.176 104.888C467.037 104.739 466.968 104.531 466.968 104.264V99.976H460.648V104.264C460.648 104.531 460.579 104.739 460.44 104.888C460.301 105.037 460.093 105.112 459.816 105.112ZM474.238 105.144C473.384 105.144 472.648 104.984 472.03 104.664C471.422 104.333 470.947 103.869 470.606 103.272C470.275 102.664 470.11 101.944 470.11 101.112C470.11 100.301 470.275 99.592 470.606 98.984C470.936 98.376 471.39 97.9013 471.966 97.56C472.542 97.2187 473.198 97.048 473.934 97.048C474.478 97.048 474.963 97.1387 475.39 97.32C475.816 97.4907 476.179 97.7467 476.478 98.088C476.787 98.4187 477.016 98.824 477.166 99.304C477.326 99.784 477.406 100.323 477.406 100.92C477.406 101.101 477.352 101.24 477.246 101.336C477.139 101.421 476.979 101.464 476.766 101.464H471.39V100.472H476.318L476.046 100.696C476.046 100.163 475.966 99.7093 475.806 99.336C475.656 98.9627 475.427 98.68 475.118 98.488C474.819 98.2853 474.446 98.184 473.998 98.184C473.496 98.184 473.07 98.3013 472.718 98.536C472.376 98.7707 472.115 99.096 471.934 99.512C471.752 99.928 471.662 100.413 471.662 100.968V101.064C471.662 102.003 471.88 102.712 472.318 103.192C472.766 103.661 473.411 103.896 474.254 103.896C474.574 103.896 474.91 103.853 475.262 103.768C475.624 103.683 475.966 103.539 476.286 103.336C476.467 103.229 476.627 103.181 476.766 103.192C476.915 103.203 477.032 103.251 477.118 103.336C477.214 103.421 477.272 103.528 477.294 103.656C477.315 103.784 477.294 103.917 477.23 104.056C477.166 104.184 477.054 104.301 476.894 104.408C476.531 104.653 476.11 104.84 475.63 104.968C475.15 105.085 474.686 105.144 474.238 105.144ZM481.163 105.144C480.619 105.144 480.129 105.037 479.691 104.824C479.265 104.611 478.929 104.323 478.683 103.96C478.438 103.597 478.315 103.187 478.315 102.728C478.315 102.152 478.459 101.699 478.747 101.368C479.046 101.027 479.531 100.787 480.203 100.648C480.886 100.499 481.803 100.424 482.955 100.424H483.707V101.416H482.971C482.203 101.416 481.595 101.453 481.147 101.528C480.699 101.603 480.379 101.731 480.187 101.912C480.006 102.083 479.915 102.323 479.915 102.632C479.915 103.037 480.054 103.368 480.331 103.624C480.609 103.869 480.993 103.992 481.483 103.992C481.878 103.992 482.225 103.901 482.523 103.72C482.822 103.528 483.057 103.272 483.227 102.952C483.409 102.632 483.499 102.264 483.499 101.848V100.008C483.499 99.4 483.371 98.9627 483.115 98.696C482.859 98.4293 482.438 98.296 481.851 98.296C481.51 98.296 481.153 98.3387 480.779 98.424C480.417 98.5093 480.038 98.6533 479.643 98.856C479.462 98.9413 479.307 98.968 479.179 98.936C479.051 98.904 478.95 98.8347 478.875 98.728C478.801 98.6107 478.758 98.488 478.747 98.36C478.747 98.2213 478.779 98.088 478.843 97.96C478.918 97.832 479.041 97.736 479.211 97.672C479.681 97.448 480.145 97.288 480.603 97.192C481.062 97.096 481.494 97.048 481.899 97.048C482.614 97.048 483.201 97.16 483.659 97.384C484.129 97.608 484.475 97.9493 484.699 98.408C484.923 98.8667 485.035 99.4587 485.035 100.184V104.296C485.035 104.552 484.971 104.755 484.843 104.904C484.715 105.043 484.529 105.112 484.283 105.112C484.049 105.112 483.862 105.043 483.723 104.904C483.585 104.755 483.515 104.552 483.515 104.296V103.256H483.659C483.574 103.651 483.414 103.992 483.179 104.28C482.955 104.557 482.673 104.771 482.331 104.92C481.99 105.069 481.601 105.144 481.163 105.144ZM489.737 105.144C489.054 105.144 488.452 104.984 487.929 104.664C487.417 104.333 487.017 103.864 486.729 103.256C486.441 102.637 486.297 101.917 486.297 101.096C486.297 100.253 486.441 99.5333 486.729 98.936C487.017 98.3387 487.417 97.8747 487.929 97.544C488.452 97.2133 489.054 97.048 489.737 97.048C490.42 97.048 491.006 97.2187 491.497 97.56C491.998 97.8907 492.334 98.3387 492.505 98.904H492.329V94.424C492.329 94.1573 492.398 93.9547 492.537 93.816C492.676 93.6773 492.873 93.608 493.129 93.608C493.385 93.608 493.582 93.6773 493.721 93.816C493.87 93.9547 493.945 94.1573 493.945 94.424V104.296C493.945 104.552 493.876 104.755 493.737 104.904C493.598 105.043 493.401 105.112 493.145 105.112C492.889 105.112 492.692 105.043 492.553 104.904C492.414 104.755 492.345 104.552 492.345 104.296V102.888L492.521 103.24C492.35 103.816 492.014 104.28 491.513 104.632C491.022 104.973 490.43 105.144 489.737 105.144ZM490.153 103.896C490.59 103.896 490.974 103.789 491.305 103.576C491.636 103.363 491.892 103.048 492.073 102.632C492.265 102.216 492.361 101.704 492.361 101.096C492.361 100.179 492.158 99.4853 491.753 99.016C491.348 98.5467 490.814 98.312 490.153 98.312C489.705 98.312 489.316 98.4187 488.985 98.632C488.654 98.8347 488.393 99.144 488.201 99.56C488.02 99.976 487.929 100.488 487.929 101.096C487.929 102.003 488.132 102.696 488.537 103.176C488.942 103.656 489.481 103.896 490.153 103.896ZM496.514 105.096C496.258 105.096 496.061 105.021 495.922 104.872C495.783 104.712 495.714 104.493 495.714 104.216V97.976C495.714 97.6987 495.783 97.4853 495.922 97.336C496.061 97.1867 496.258 97.112 496.514 97.112C496.77 97.112 496.967 97.1867 497.106 97.336C497.255 97.4853 497.33 97.6987 497.33 97.976V104.216C497.33 104.493 497.261 104.712 497.122 104.872C496.983 105.021 496.781 105.096 496.514 105.096ZM496.514 95.448C496.194 95.448 495.943 95.368 495.762 95.208C495.591 95.048 495.506 94.824 495.506 94.536C495.506 94.2373 495.591 94.0133 495.762 93.864C495.943 93.704 496.194 93.624 496.514 93.624C496.834 93.624 497.079 93.704 497.25 93.864C497.431 94.0133 497.522 94.2373 497.522 94.536C497.522 94.824 497.431 95.048 497.25 95.208C497.079 95.368 496.834 95.448 496.514 95.448ZM499.905 105.112C499.649 105.112 499.451 105.043 499.313 104.904C499.174 104.755 499.105 104.552 499.105 104.296V97.896C499.105 97.6293 499.174 97.4267 499.313 97.288C499.451 97.1493 499.643 97.08 499.889 97.08C500.145 97.08 500.337 97.1493 500.465 97.288C500.603 97.4267 500.673 97.6293 500.673 97.896V99.144L500.497 98.856C500.731 98.2587 501.099 97.8107 501.601 97.512C502.102 97.2027 502.678 97.048 503.329 97.048C503.947 97.048 504.459 97.1653 504.865 97.4C505.281 97.624 505.59 97.9707 505.793 98.44C505.995 98.8987 506.097 99.48 506.097 100.184V104.296C506.097 104.552 506.027 104.755 505.889 104.904C505.75 105.043 505.553 105.112 505.297 105.112C505.03 105.112 504.827 105.043 504.689 104.904C504.55 104.755 504.481 104.552 504.481 104.296V100.28C504.481 99.608 504.347 99.1173 504.081 98.808C503.825 98.4987 503.419 98.344 502.865 98.344C502.214 98.344 501.691 98.5467 501.297 98.952C500.913 99.3573 500.721 99.9013 500.721 100.584V104.296C500.721 104.84 500.449 105.112 499.905 105.112ZM511.36 108.024C510.784 108.024 510.224 107.965 509.68 107.848C509.146 107.731 508.661 107.539 508.224 107.272C508.064 107.187 507.957 107.08 507.904 106.952C507.85 106.835 507.834 106.712 507.856 106.584C507.888 106.456 507.946 106.344 508.032 106.248C508.117 106.152 508.218 106.088 508.336 106.056C508.464 106.024 508.597 106.045 508.736 106.12C509.205 106.376 509.648 106.547 510.064 106.632C510.49 106.728 510.885 106.776 511.248 106.776C511.994 106.776 512.554 106.584 512.928 106.2C513.301 105.827 513.488 105.272 513.488 104.536V102.904H513.632C513.472 103.491 513.136 103.955 512.624 104.296C512.112 104.637 511.52 104.808 510.848 104.808C510.144 104.808 509.53 104.648 509.008 104.328C508.485 103.997 508.08 103.544 507.792 102.968C507.504 102.381 507.36 101.699 507.36 100.92C507.36 100.333 507.44 99.8053 507.6 99.336C507.77 98.8667 508.005 98.4613 508.304 98.12C508.613 97.7787 508.981 97.5173 509.408 97.336C509.845 97.144 510.325 97.048 510.848 97.048C511.53 97.048 512.122 97.2187 512.624 97.56C513.136 97.9013 513.466 98.3653 513.616 98.952L513.456 99.224V97.896C513.456 97.6293 513.525 97.4267 513.664 97.288C513.813 97.1493 514.01 97.08 514.256 97.08C514.512 97.08 514.709 97.1493 514.848 97.288C514.986 97.4267 515.056 97.6293 515.056 97.896V104.344C515.056 105.56 514.741 106.477 514.112 107.096C513.482 107.715 512.565 108.024 511.36 108.024ZM511.232 103.544C511.701 103.544 512.101 103.437 512.432 103.224C512.762 103.011 513.018 102.707 513.2 102.312C513.381 101.917 513.472 101.453 513.472 100.92C513.472 100.12 513.269 99.4853 512.864 99.016C512.469 98.5467 511.925 98.312 511.232 98.312C510.773 98.312 510.378 98.4187 510.048 98.632C509.717 98.8453 509.456 99.1493 509.264 99.544C509.082 99.928 508.992 100.387 508.992 100.92C508.992 101.731 509.194 102.371 509.6 102.84C510.005 103.309 510.549 103.544 511.232 103.544ZM521.566 105C521.3 105 521.092 104.925 520.942 104.776C520.793 104.627 520.718 104.419 520.718 104.152V94.504C520.718 94.2267 520.788 94.0187 520.926 93.88C521.076 93.7307 521.284 93.656 521.55 93.656C521.817 93.656 522.02 93.7307 522.158 93.88C522.308 94.0187 522.382 94.2267 522.382 94.504V103.576H527.342C527.577 103.576 527.758 103.64 527.886 103.768C528.014 103.885 528.078 104.056 528.078 104.28C528.078 104.504 528.014 104.68 527.886 104.808C527.758 104.936 527.577 105 527.342 105H521.566ZM534.861 107.656C534.242 106.579 533.789 105.464 533.501 104.312C533.213 103.149 533.069 101.976 533.069 100.792C533.069 100.003 533.133 99.2187 533.261 98.44C533.389 97.6613 533.581 96.8933 533.837 96.136C534.104 95.3787 534.445 94.6427 534.861 93.928C534.957 93.7573 535.085 93.656 535.245 93.624C535.416 93.5813 535.57 93.592 535.709 93.656C535.858 93.72 535.965 93.832 536.029 93.992C536.104 94.152 536.098 94.3547 536.013 94.6C535.736 95.2933 535.506 95.9813 535.325 96.664C535.154 97.3467 535.021 98.0293 534.925 98.712C534.84 99.384 534.797 100.077 534.797 100.792C534.797 101.496 534.84 102.189 534.925 102.872C535.021 103.555 535.16 104.237 535.341 104.92C535.533 105.592 535.757 106.28 536.013 106.984C536.098 107.229 536.104 107.432 536.029 107.592C535.965 107.752 535.858 107.864 535.709 107.928C535.57 107.992 535.416 108.003 535.245 107.96C535.085 107.917 534.957 107.816 534.861 107.656ZM540.952 105.144C540.355 105.144 539.747 105.064 539.128 104.904C538.509 104.733 537.971 104.483 537.512 104.152C537.341 104.045 537.224 103.917 537.16 103.768C537.107 103.608 537.096 103.464 537.128 103.336C537.16 103.197 537.224 103.08 537.32 102.984C537.427 102.888 537.555 102.835 537.704 102.824C537.853 102.803 538.019 102.845 538.2 102.952C538.659 103.229 539.107 103.432 539.544 103.56C539.981 103.677 540.435 103.736 540.904 103.736C541.416 103.736 541.848 103.661 542.2 103.512C542.552 103.363 542.813 103.144 542.984 102.856C543.165 102.568 543.256 102.221 543.256 101.816C543.256 101.208 543.053 100.755 542.648 100.456C542.253 100.147 541.677 99.992 540.92 99.992H539.832C539.587 99.992 539.4 99.9333 539.272 99.816C539.144 99.688 539.08 99.512 539.08 99.288C539.08 99.0747 539.144 98.9093 539.272 98.792C539.4 98.664 539.587 98.6 539.832 98.6H540.76C541.219 98.6 541.608 98.5253 541.928 98.376C542.248 98.216 542.493 97.9973 542.664 97.72C542.845 97.432 542.936 97.0853 542.936 96.68C542.936 96.136 542.755 95.72 542.392 95.432C542.04 95.1333 541.523 94.984 540.84 94.984C540.403 94.984 539.987 95.0427 539.592 95.16C539.208 95.2773 538.808 95.4853 538.392 95.784C538.232 95.8907 538.077 95.9387 537.928 95.928C537.789 95.9067 537.667 95.8533 537.56 95.768C537.464 95.672 537.395 95.5547 537.352 95.416C537.32 95.2773 537.331 95.1333 537.384 94.984C537.437 94.8347 537.544 94.7067 537.704 94.6C538.152 94.2693 538.659 94.0187 539.224 93.848C539.789 93.6667 540.371 93.576 540.968 93.576C541.715 93.576 542.355 93.6933 542.888 93.928C543.432 94.1627 543.843 94.4987 544.12 94.936C544.408 95.3733 544.552 95.896 544.552 96.504C544.552 96.9627 544.467 97.3787 544.296 97.752C544.125 98.1253 543.88 98.4453 543.56 98.712C543.251 98.968 542.872 99.1493 542.424 99.256V99.08C543.203 99.208 543.805 99.528 544.232 100.04C544.659 100.541 544.872 101.171 544.872 101.928C544.872 102.589 544.712 103.165 544.392 103.656C544.083 104.136 543.635 104.504 543.048 104.76C542.461 105.016 541.763 105.144 540.952 105.144ZM547.518 105C547.23 105 547.022 104.936 546.894 104.808C546.766 104.669 546.702 104.483 546.702 104.248C546.702 104.099 546.739 103.955 546.814 103.816C546.889 103.677 546.995 103.533 547.134 103.384L550.542 99.736C551.065 99.1813 551.438 98.6747 551.662 98.216C551.897 97.7467 552.014 97.2773 552.014 96.808C552.014 96.2107 551.833 95.7573 551.47 95.448C551.107 95.1387 550.574 94.984 549.87 94.984C549.443 94.984 549.033 95.048 548.638 95.176C548.243 95.304 547.849 95.512 547.454 95.8C547.294 95.9067 547.145 95.9547 547.006 95.944C546.867 95.9333 546.745 95.88 546.638 95.784C546.542 95.688 546.478 95.5707 546.446 95.432C546.414 95.2933 546.419 95.1493 546.462 95C546.505 94.8507 546.606 94.7227 546.766 94.616C547.203 94.2853 547.71 94.0293 548.286 93.848C548.862 93.6667 549.449 93.576 550.046 93.576C550.825 93.576 551.481 93.6987 552.014 93.944C552.558 94.1787 552.969 94.5253 553.246 94.984C553.523 95.4427 553.662 96.0027 553.662 96.664C553.662 97.112 553.587 97.5493 553.438 97.976C553.299 98.4027 553.081 98.84 552.782 99.288C552.494 99.7253 552.115 100.189 551.646 100.68L548.414 104.072V103.608H553.502C553.737 103.608 553.918 103.667 554.046 103.784C554.174 103.901 554.238 104.072 554.238 104.296C554.238 104.52 554.174 104.696 554.046 104.824C553.918 104.941 553.737 105 553.502 105H547.518ZM555.636 105.512C555.582 105.683 555.497 105.805 555.38 105.88C555.262 105.955 555.134 105.992 554.996 105.992C554.857 105.992 554.729 105.955 554.612 105.88C554.505 105.816 554.43 105.72 554.388 105.592C554.334 105.464 554.334 105.309 554.388 105.128L558.148 93.48C558.201 93.3093 558.286 93.1867 558.404 93.112C558.521 93.0267 558.644 92.9893 558.772 93C558.91 93 559.033 93.0373 559.14 93.112C559.257 93.176 559.337 93.272 559.38 93.4C559.433 93.5173 559.438 93.6667 559.396 93.848L555.636 105.512ZM565.422 105.112C565.166 105.112 564.963 105.043 564.814 104.904C564.664 104.755 564.59 104.552 564.59 104.296V102.712H560.302C560.035 102.712 559.822 102.653 559.662 102.536C559.502 102.419 559.422 102.237 559.422 101.992C559.422 101.853 559.454 101.704 559.518 101.544C559.592 101.384 559.72 101.176 559.902 100.92L564.558 94.152C564.675 93.9707 564.808 93.8373 564.958 93.752C565.107 93.656 565.278 93.608 565.47 93.608C565.694 93.608 565.875 93.6773 566.014 93.816C566.163 93.944 566.238 94.1467 566.238 94.424V101.32H567.246C567.502 101.32 567.688 101.379 567.806 101.496C567.934 101.613 567.998 101.784 567.998 102.008C567.998 102.243 567.934 102.419 567.806 102.536C567.688 102.653 567.502 102.712 567.246 102.712H566.238V104.296C566.238 104.552 566.163 104.755 566.014 104.904C565.875 105.043 565.678 105.112 565.422 105.112ZM564.59 101.32V95.672H565.022L560.846 101.768V101.32H564.59ZM572.659 105.144C571.347 105.144 570.345 104.648 569.651 103.656C568.969 102.653 568.627 101.219 568.627 99.352C568.627 98.0827 568.782 97.0213 569.091 96.168C569.401 95.3147 569.854 94.6693 570.451 94.232C571.049 93.7947 571.785 93.576 572.659 93.576C573.982 93.576 574.985 94.0667 575.667 95.048C576.35 96.0187 576.691 97.448 576.691 99.336C576.691 100.584 576.537 101.64 576.227 102.504C575.918 103.368 575.465 104.024 574.867 104.472C574.27 104.92 573.534 105.144 572.659 105.144ZM572.659 103.768C573.481 103.768 574.083 103.411 574.467 102.696C574.862 101.971 575.059 100.851 575.059 99.336C575.059 97.8107 574.862 96.7013 574.467 96.008C574.083 95.304 573.481 94.952 572.659 94.952C571.849 94.952 571.246 95.304 570.851 96.008C570.457 96.7013 570.259 97.8107 570.259 99.336C570.259 100.851 570.457 101.971 570.851 102.696C571.246 103.411 571.849 103.768 572.659 103.768ZM578.921 107.656C578.825 107.816 578.692 107.917 578.521 107.96C578.361 108.003 578.206 107.992 578.057 107.928C577.908 107.864 577.801 107.752 577.737 107.592C577.673 107.432 577.684 107.229 577.769 106.984C578.057 106.28 578.286 105.592 578.457 104.92C578.628 104.237 578.756 103.555 578.841 102.872C578.937 102.189 578.985 101.496 578.985 100.792C578.985 100.077 578.937 99.384 578.841 98.712C578.745 98.0293 578.606 97.352 578.425 96.68C578.254 95.9973 578.036 95.304 577.769 94.6C577.684 94.3547 577.673 94.152 577.737 93.992C577.812 93.832 577.924 93.72 578.073 93.656C578.222 93.592 578.377 93.5813 578.537 93.624C578.697 93.656 578.825 93.7573 578.921 93.928C579.54 94.9947 579.993 96.1093 580.281 97.272C580.569 98.424 580.713 99.5973 580.713 100.792C580.713 101.581 580.644 102.371 580.505 103.16C580.377 103.939 580.185 104.707 579.929 105.464C579.673 106.221 579.337 106.952 578.921 107.656Z" fill="#1A1A1A"/>
</svg>
