<svg width="382" height="186" viewBox="0 0 382 186" fill="none" xmlns="http://www.w3.org/2000/svg">
<path d="M23.1 105C22.82 105 22.6 104.92 22.44 104.76C22.28 104.6 22.2 104.387 22.2 104.12C22.2 103.84 22.28 103.627 22.44 103.48C22.6 103.333 22.82 103.26 23.1 103.26H25.54V92.62H26.58L23.66 94.48C23.4467 94.6 23.2467 94.6467 23.06 94.62C22.8867 94.5933 22.7333 94.52 22.6 94.4C22.48 94.28 22.3933 94.1333 22.34 93.96C22.3 93.7867 22.3133 93.6067 22.38 93.42C22.46 93.2333 22.6 93.08 22.8 92.96L25.56 91.22C25.7867 91.0867 26 90.98 26.2 90.9C26.4133 90.8067 26.6133 90.76 26.8 90.76C27.0267 90.76 27.2133 90.8267 27.36 90.96C27.52 91.08 27.6 91.2867 27.6 91.58V103.26H29.84C30.1333 103.26 30.36 103.333 30.52 103.48C30.68 103.627 30.76 103.84 30.76 104.12C30.76 104.4 30.68 104.62 30.52 104.78C30.36 104.927 30.1333 105 29.84 105H23.1ZM33.8922 105.08C33.5055 105.08 33.1922 104.96 32.9522 104.72C32.7122 104.48 32.5922 104.173 32.5922 103.8C32.5922 103.427 32.7122 103.127 32.9522 102.9C33.1922 102.66 33.5055 102.54 33.8922 102.54C34.2789 102.54 34.5855 102.66 34.8122 102.9C35.0389 103.127 35.1522 103.427 35.1522 103.8C35.1522 104.173 35.0389 104.48 34.8122 104.72C34.5855 104.96 34.2789 105.08 33.8922 105.08Z" fill="#737272"/>
<path d="M56.6667 97.5C56.6667 96.0272 55.4728 94.8333 54 94.8333C52.5272 94.8333 51.3333 96.0272 51.3333 97.5C51.3333 98.9728 52.5272 100.167 54 100.167C55.4728 100.167 56.6667 98.9728 56.6667 97.5ZM54 97.5L54 97L37 97L37 97.5L37 98L54 98L54 97.5Z" fill="#737272"/>
<path d="M80.62 47C80.26 47 80 46.92 79.84 46.76C79.68 46.5867 79.6 46.3533 79.6 46.06C79.6 45.8733 79.6467 45.6933 79.74 45.52C79.8333 45.3467 79.9667 45.1667 80.14 44.98L84.4 40.42C85.0533 39.7267 85.52 39.0933 85.8 38.52C86.0933 37.9333 86.24 37.3467 86.24 36.76C86.24 36.0133 86.0133 35.4467 85.56 35.06C85.1067 34.6733 84.44 34.48 83.56 34.48C83.0267 34.48 82.5133 34.56 82.02 34.72C81.5267 34.88 81.0333 35.14 80.54 35.5C80.34 35.6333 80.1533 35.6933 79.98 35.68C79.8067 35.6667 79.6533 35.6 79.52 35.48C79.4 35.36 79.32 35.2133 79.28 35.04C79.24 34.8667 79.2467 34.6867 79.3 34.5C79.3533 34.3133 79.48 34.1533 79.68 34.02C80.2267 33.6067 80.86 33.2867 81.58 33.06C82.3 32.8333 83.0333 32.72 83.78 32.72C84.7533 32.72 85.5733 32.8733 86.24 33.18C86.92 33.4733 87.4333 33.9067 87.78 34.48C88.1267 35.0533 88.3 35.7533 88.3 36.58C88.3 37.14 88.2067 37.6867 88.02 38.22C87.8467 38.7533 87.5733 39.3 87.2 39.86C86.84 40.4067 86.3667 40.9867 85.78 41.6L81.74 45.84V45.26H88.1C88.3933 45.26 88.62 45.3333 88.78 45.48C88.94 45.6267 89.02 45.84 89.02 46.12C89.02 46.4 88.94 46.62 88.78 46.78C88.62 46.9267 88.3933 47 88.1 47H80.62ZM91.8922 47.08C91.5055 47.08 91.1922 46.96 90.9522 46.72C90.7122 46.48 90.5922 46.1733 90.5922 45.8C90.5922 45.4267 90.7122 45.1267 90.9522 44.9C91.1922 44.66 91.5055 44.54 91.8922 44.54C92.2789 44.54 92.5855 44.66 92.8122 44.9C93.0389 45.1267 93.1522 45.4267 93.1522 45.8C93.1522 46.1733 93.0389 46.48 92.8122 46.72C92.5855 46.96 92.2789 47.08 91.8922 47.08Z" fill="#737272"/>
<path d="M92 65.6667C93.4728 65.6667 94.6667 64.4728 94.6667 63C94.6667 61.5272 93.4728 60.3333 92 60.3333C90.5272 60.3333 89.3333 61.5272 89.3333 63C89.3333 64.4728 90.5272 65.6667 92 65.6667ZM92 63H92.5V47H92H91.5V63H92Z" fill="#737272"/>
<path d="M334.32 47.14C334 47.14 333.747 47.0533 333.56 46.88C333.373 46.6933 333.28 46.44 333.28 46.12V44.14H327.92C327.587 44.14 327.32 44.0667 327.12 43.92C326.92 43.7733 326.82 43.5467 326.82 43.24C326.82 43.0667 326.86 42.88 326.94 42.68C327.033 42.48 327.193 42.22 327.42 41.9L333.24 33.44C333.387 33.2133 333.553 33.0467 333.74 32.94C333.927 32.82 334.14 32.76 334.38 32.76C334.66 32.76 334.887 32.8467 335.06 33.02C335.247 33.18 335.34 33.4333 335.34 33.78V42.4H336.6C336.92 42.4 337.153 42.4733 337.3 42.62C337.46 42.7667 337.54 42.98 337.54 43.26C337.54 43.5533 337.46 43.7733 337.3 43.92C337.153 44.0667 336.92 44.14 336.6 44.14H335.34V46.12C335.34 46.44 335.247 46.6933 335.06 46.88C334.887 47.0533 334.64 47.14 334.32 47.14ZM333.28 42.4V35.34H333.82L328.6 42.96V42.4H333.28ZM339.892 47.08C339.506 47.08 339.192 46.96 338.952 46.72C338.712 46.48 338.592 46.1733 338.592 45.8C338.592 45.4267 338.712 45.1267 338.952 44.9C339.192 44.66 339.506 44.54 339.892 44.54C340.279 44.54 340.586 44.66 340.812 44.9C341.039 45.1267 341.152 45.4267 341.152 45.8C341.152 46.1733 341.039 46.48 340.812 46.72C340.586 46.96 340.279 47.08 339.892 47.08Z" fill="#737272"/>
<path d="M340 65.6667C341.473 65.6667 342.667 64.4728 342.667 63C342.667 61.5272 341.473 60.3333 340 60.3333C338.527 60.3333 337.333 61.5272 337.333 63C337.333 64.4728 338.527 65.6667 340 65.6667ZM340 63H340.5V47H340H339.5V63H340Z" fill="#737272"/>
<path d="M69.0664 76V65.9785H70.4268L75.6904 73.8467V65.9785H76.9619V76H75.6016L70.3379 68.125V76H69.0664ZM78.582 72.3701C78.582 71.0257 78.9557 70.0299 79.7031 69.3828C80.3275 68.8451 81.0885 68.5762 81.9863 68.5762C82.9844 68.5762 83.8001 68.9043 84.4336 69.5605C85.0671 70.2122 85.3838 71.1146 85.3838 72.2676C85.3838 73.2018 85.2425 73.9378 84.96 74.4756C84.682 75.0088 84.2741 75.4235 83.7363 75.7197C83.2031 76.016 82.6198 76.1641 81.9863 76.1641C80.9701 76.1641 80.1475 75.8382 79.5186 75.1865C78.8942 74.5348 78.582 73.596 78.582 72.3701ZM79.8467 72.3701C79.8467 73.2998 80.0495 73.9971 80.4551 74.4619C80.8607 74.9222 81.3711 75.1523 81.9863 75.1523C82.597 75.1523 83.1051 74.9199 83.5107 74.4551C83.9163 73.9902 84.1191 73.2816 84.1191 72.3291C84.1191 71.4313 83.9141 70.7523 83.5039 70.292C83.0983 69.8271 82.5924 69.5947 81.9863 69.5947C81.3711 69.5947 80.8607 69.8249 80.4551 70.2852C80.0495 70.7454 79.8467 71.4404 79.8467 72.3701ZM86.833 76V68.7402H87.9336V69.7588C88.1615 69.4033 88.4645 69.1185 88.8428 68.9043C89.221 68.6855 89.6517 68.5762 90.1348 68.5762C90.6725 68.5762 91.1123 68.6878 91.4541 68.9111C91.8005 69.1344 92.0443 69.4466 92.1855 69.8477C92.7598 69 93.5072 68.5762 94.4277 68.5762C95.1478 68.5762 95.7015 68.7767 96.0889 69.1777C96.4762 69.5742 96.6699 70.1872 96.6699 71.0166V76H95.4463V71.4268C95.4463 70.9346 95.4053 70.5814 95.3232 70.3672C95.2458 70.1484 95.1022 69.973 94.8926 69.8408C94.6829 69.7087 94.4368 69.6426 94.1543 69.6426C93.6439 69.6426 93.2201 69.8135 92.8828 70.1553C92.5456 70.4925 92.377 71.0348 92.377 71.7822V76H91.1465V71.2832C91.1465 70.7363 91.0462 70.3262 90.8457 70.0527C90.6452 69.7793 90.3171 69.6426 89.8613 69.6426C89.515 69.6426 89.1937 69.7337 88.8975 69.916C88.6058 70.0983 88.3939 70.3649 88.2617 70.7158C88.1296 71.0667 88.0635 71.5726 88.0635 72.2334V76H86.833ZM107.102 76V75.084C106.641 75.804 105.965 76.1641 105.071 76.1641C104.493 76.1641 103.959 76.0046 103.472 75.6855C102.989 75.3665 102.613 74.9222 102.344 74.3525C102.079 73.7783 101.947 73.1198 101.947 72.377C101.947 71.6523 102.068 70.9961 102.31 70.4082C102.551 69.8158 102.913 69.3623 103.396 69.0479C103.88 68.7334 104.42 68.5762 105.017 68.5762C105.454 68.5762 105.844 68.6696 106.186 68.8564C106.527 69.0387 106.805 69.278 107.02 69.5742V65.9785H108.243V76H107.102ZM103.212 72.377C103.212 73.3066 103.408 74.0016 103.8 74.4619C104.192 74.9222 104.654 75.1523 105.188 75.1523C105.725 75.1523 106.181 74.9336 106.555 74.4961C106.933 74.054 107.122 73.3818 107.122 72.4795C107.122 71.486 106.931 70.7568 106.548 70.292C106.165 69.8271 105.693 69.5947 105.133 69.5947C104.586 69.5947 104.128 69.818 103.759 70.2646C103.394 70.7113 103.212 71.4154 103.212 72.377ZM114.942 76V74.9336C114.377 75.7539 113.609 76.1641 112.639 76.1641C112.21 76.1641 111.809 76.082 111.436 75.918C111.066 75.7539 110.791 75.5488 110.608 75.3027C110.431 75.0521 110.305 74.7467 110.232 74.3867C110.182 74.1452 110.157 73.7624 110.157 73.2383V68.7402H111.388V72.7666C111.388 73.4092 111.413 73.8421 111.463 74.0654C111.54 74.389 111.704 74.6442 111.955 74.8311C112.206 75.0133 112.516 75.1045 112.885 75.1045C113.254 75.1045 113.6 75.0111 113.924 74.8242C114.247 74.6328 114.475 74.3753 114.607 74.0518C114.744 73.7236 114.812 73.2497 114.812 72.6299V68.7402H116.043V76H114.942ZM121.874 78.7822V68.7402H122.995V69.6836C123.259 69.3145 123.558 69.0387 123.891 68.8564C124.223 68.6696 124.627 68.5762 125.101 68.5762C125.72 68.5762 126.267 68.7357 126.741 69.0547C127.215 69.3737 127.573 69.8249 127.814 70.4082C128.056 70.987 128.177 71.6227 128.177 72.3154C128.177 73.0583 128.042 73.7282 127.773 74.3252C127.509 74.9176 127.122 75.3734 126.611 75.6924C126.105 76.0068 125.572 76.1641 125.012 76.1641C124.602 76.1641 124.232 76.0775 123.904 75.9043C123.581 75.7311 123.314 75.5124 123.104 75.248V78.7822H121.874ZM122.988 72.4111C122.988 73.3454 123.177 74.0358 123.556 74.4824C123.934 74.929 124.392 75.1523 124.93 75.1523C125.477 75.1523 125.944 74.9222 126.331 74.4619C126.723 73.9971 126.919 73.2793 126.919 72.3086C126.919 71.3835 126.728 70.6908 126.345 70.2305C125.966 69.7702 125.513 69.54 124.984 69.54C124.46 69.54 123.995 69.7861 123.59 70.2783C123.189 70.766 122.988 71.4769 122.988 72.4111ZM129.653 76V68.7402H130.761V69.8408C131.043 69.3258 131.303 68.9863 131.54 68.8223C131.782 68.6582 132.046 68.5762 132.333 68.5762C132.748 68.5762 133.169 68.7083 133.598 68.9727L133.174 70.1143C132.873 69.9365 132.572 69.8477 132.271 69.8477C132.003 69.8477 131.761 69.9297 131.547 70.0938C131.333 70.2533 131.18 70.4766 131.089 70.7637C130.952 71.2012 130.884 71.6797 130.884 72.1992V76H129.653ZM133.871 72.3701C133.871 71.0257 134.245 70.0299 134.992 69.3828C135.617 68.8451 136.378 68.5762 137.275 68.5762C138.273 68.5762 139.089 68.9043 139.723 69.5605C140.356 70.2122 140.673 71.1146 140.673 72.2676C140.673 73.2018 140.532 73.9378 140.249 74.4756C139.971 75.0088 139.563 75.4235 139.025 75.7197C138.492 76.016 137.909 76.1641 137.275 76.1641C136.259 76.1641 135.437 75.8382 134.808 75.1865C134.183 74.5348 133.871 73.596 133.871 72.3701ZM135.136 72.3701C135.136 73.2998 135.339 73.9971 135.744 74.4619C136.15 74.9222 136.66 75.1523 137.275 75.1523C137.886 75.1523 138.394 74.9199 138.8 74.4551C139.205 73.9902 139.408 73.2816 139.408 72.3291C139.408 71.4313 139.203 70.7523 138.793 70.292C138.387 69.8271 137.882 69.5947 137.275 69.5947C136.66 69.5947 136.15 69.8249 135.744 70.2852C135.339 70.7454 135.136 71.4404 135.136 72.3701ZM142.115 67.4072V65.9785H143.346V67.4072H142.115ZM140.557 78.8164L140.789 77.7705C141.035 77.8343 141.229 77.8662 141.37 77.8662C141.621 77.8662 141.808 77.7819 141.931 77.6133C142.054 77.4492 142.115 77.0345 142.115 76.3691V68.7402H143.346V76.3965C143.346 77.2897 143.229 77.9118 142.997 78.2627C142.701 78.7184 142.209 78.9463 141.521 78.9463C141.188 78.9463 140.867 78.903 140.557 78.8164ZM150.209 73.6621L151.48 73.8193C151.28 74.5622 150.909 75.1387 150.366 75.5488C149.824 75.959 149.131 76.1641 148.288 76.1641C147.226 76.1641 146.383 75.8382 145.759 75.1865C145.139 74.5303 144.829 73.612 144.829 72.4316C144.829 71.2103 145.144 70.2624 145.772 69.5879C146.401 68.9134 147.217 68.5762 148.22 68.5762C149.19 68.5762 149.983 68.9066 150.599 69.5674C151.214 70.2282 151.521 71.1579 151.521 72.3564C151.521 72.4294 151.519 72.5387 151.515 72.6846H146.101C146.146 73.4821 146.372 74.0928 146.777 74.5166C147.183 74.9404 147.689 75.1523 148.295 75.1523C148.746 75.1523 149.131 75.0339 149.45 74.7969C149.769 74.5599 150.022 74.1816 150.209 73.6621ZM146.169 71.6729H150.223C150.168 71.0622 150.013 70.6042 149.758 70.2988C149.366 69.8249 148.858 69.5879 148.233 69.5879C147.668 69.5879 147.192 69.777 146.805 70.1553C146.422 70.5335 146.21 71.0394 146.169 71.6729ZM155.719 74.8994L155.896 75.9863C155.55 76.0592 155.24 76.0957 154.967 76.0957C154.52 76.0957 154.174 76.0251 153.928 75.8838C153.682 75.7425 153.508 75.5579 153.408 75.3301C153.308 75.0977 153.258 74.6123 153.258 73.874V69.6973H152.355V68.7402H153.258V66.9424L154.481 66.2041V68.7402H155.719V69.6973H154.481V73.9424C154.481 74.2933 154.502 74.5189 154.543 74.6191C154.589 74.7194 154.659 74.7992 154.755 74.8584C154.855 74.9176 154.996 74.9473 155.179 74.9473C155.315 74.9473 155.495 74.9313 155.719 74.8994Z" fill="#3E3E3D"/>
<path d="M163.344 67.3194V65.6861L161.977 66.5028C161.821 66.5935 161.656 66.6162 161.481 66.5708C161.306 66.5255 161.175 66.4185 161.087 66.25C161 66.088 160.978 65.9162 161.022 65.7347C161.066 65.5532 161.165 65.4171 161.322 65.3264L162.689 64.5L161.322 63.6833C161.165 63.5926 161.066 63.4549 161.022 63.2701C160.978 63.0854 161 62.912 161.087 62.75C161.175 62.588 161.306 62.4843 161.481 62.4389C161.656 62.3935 161.821 62.4162 161.977 62.5069L163.344 63.3236V61.6806C163.344 61.4926 163.408 61.3322 163.536 61.1993C163.664 61.0664 163.819 61 164 61C164.181 61 164.336 61.0664 164.464 61.1993C164.592 61.3322 164.656 61.4926 164.656 61.6806V63.3236L166.023 62.5069C166.179 62.4162 166.344 62.3935 166.519 62.4389C166.694 62.4843 166.825 62.588 166.913 62.75C167 62.912 167.02 63.0854 166.973 63.2701C166.927 63.4549 166.825 63.5926 166.669 63.6833L165.311 64.5L166.678 65.3264C166.835 65.4171 166.934 65.5532 166.978 65.7347C167.022 65.9162 167 66.0912 166.913 66.2597C166.825 66.4218 166.694 66.5255 166.519 66.5708C166.344 66.6162 166.179 66.5935 166.023 66.5028L164.656 65.6861V67.3194C164.656 67.5074 164.592 67.6678 164.464 67.8007C164.336 67.9336 164.181 68 164 68C163.819 68 163.664 67.9336 163.536 67.8007C163.408 67.6678 163.344 67.5074 163.344 67.3194Z" fill="#DE2048"/>
<path d="M329.119 72.7637C329.119 71.748 329.223 70.9316 329.43 70.3145C329.641 69.6934 329.951 69.2148 330.361 68.8789C330.775 68.543 331.295 68.375 331.92 68.375C332.381 68.375 332.785 68.4688 333.133 68.6562C333.48 68.8398 333.768 69.1074 333.994 69.459C334.221 69.8066 334.398 70.2324 334.527 70.7363C334.656 71.2363 334.721 71.9121 334.721 72.7637C334.721 73.7715 334.617 74.5859 334.41 75.207C334.203 75.8242 333.893 76.3027 333.479 76.6426C333.068 76.9785 332.549 77.1465 331.92 77.1465C331.092 77.1465 330.441 76.8496 329.969 76.2559C329.402 75.541 329.119 74.377 329.119 72.7637ZM330.203 72.7637C330.203 74.1738 330.367 75.1133 330.695 75.582C331.027 76.0469 331.436 76.2793 331.92 76.2793C332.404 76.2793 332.811 76.0449 333.139 75.5762C333.471 75.1074 333.637 74.1699 333.637 72.7637C333.637 71.3496 333.471 70.4102 333.139 69.9453C332.811 69.4805 332.4 69.248 331.908 69.248C331.424 69.248 331.037 69.4531 330.748 69.8633C330.385 70.3867 330.203 71.3535 330.203 72.7637ZM335.301 77.1465L337.791 68.2637H338.635L336.15 77.1465H335.301ZM339.145 74.7324L340.199 74.5918C340.32 75.1895 340.525 75.6211 340.814 75.8867C341.107 76.1484 341.463 76.2793 341.881 76.2793C342.377 76.2793 342.795 76.1074 343.135 75.7637C343.479 75.4199 343.65 74.9941 343.65 74.4863C343.65 74.002 343.492 73.6035 343.176 73.291C342.859 72.9746 342.457 72.8164 341.969 72.8164C341.77 72.8164 341.521 72.8555 341.225 72.9336L341.342 72.0078C341.412 72.0156 341.469 72.0195 341.512 72.0195C341.961 72.0195 342.365 71.9023 342.725 71.668C343.084 71.4336 343.264 71.0723 343.264 70.584C343.264 70.1973 343.133 69.877 342.871 69.623C342.609 69.3691 342.271 69.2422 341.857 69.2422C341.447 69.2422 341.105 69.3711 340.832 69.6289C340.559 69.8867 340.383 70.2734 340.305 70.7891L339.25 70.6016C339.379 69.8945 339.672 69.3477 340.129 68.9609C340.586 68.5703 341.154 68.375 341.834 68.375C342.303 68.375 342.734 68.4766 343.129 68.6797C343.523 68.8789 343.824 69.1523 344.031 69.5C344.242 69.8477 344.348 70.2168 344.348 70.6074C344.348 70.9785 344.248 71.3164 344.049 71.6211C343.85 71.9258 343.555 72.168 343.164 72.3477C343.672 72.4648 344.066 72.709 344.348 73.0801C344.629 73.4473 344.77 73.9082 344.77 74.4629C344.77 75.2129 344.496 75.8496 343.949 76.373C343.402 76.8926 342.711 77.1523 341.875 77.1523C341.121 77.1523 340.494 76.9277 339.994 76.4785C339.498 76.0293 339.215 75.4473 339.145 74.7324ZM345.818 74.75L346.926 74.6562C347.008 75.1953 347.197 75.6016 347.494 75.875C347.795 76.1445 348.156 76.2793 348.578 76.2793C349.086 76.2793 349.516 76.0879 349.867 75.7051C350.219 75.3223 350.395 74.8145 350.395 74.1816C350.395 73.5801 350.225 73.1055 349.885 72.7578C349.549 72.4102 349.107 72.2363 348.561 72.2363C348.221 72.2363 347.914 72.3145 347.641 72.4707C347.367 72.623 347.152 72.8223 346.996 73.0684L346.006 72.9395L346.838 68.5273H351.109V69.5352H347.682L347.219 71.8438C347.734 71.4844 348.275 71.3047 348.842 71.3047C349.592 71.3047 350.225 71.5645 350.74 72.084C351.256 72.6035 351.514 73.2715 351.514 74.0879C351.514 74.8652 351.287 75.5371 350.834 76.1035C350.283 76.7988 349.531 77.1465 348.578 77.1465C347.797 77.1465 347.158 76.9277 346.662 76.4902C346.17 76.0527 345.889 75.4727 345.818 74.75Z" fill="#737272"/>
<g filter="url(#filter0_i_390_53038)">
<mask id="path-10-inside-1_390_53038" fill="white">
<path d="M60 87C60 84.7909 61.7909 83 64 83H356C358.209 83 360 84.7909 360 87V111C360 113.209 358.209 115 356 115H64C61.7909 115 60 113.209 60 111V87Z"/>
</mask>
<path d="M60 87C60 84.7909 61.7909 83 64 83H356C358.209 83 360 84.7909 360 87V111C360 113.209 358.209 115 356 115H64C61.7909 115 60 113.209 60 111V87Z" fill="white"/>
<path d="M64 83V84H356V83V82H64V83ZM360 87H359V111H360H361V87H360ZM356 115V114H64V115V116H356V115ZM60 111H61V87H60H59V111H60ZM64 115V114C62.3431 114 61 112.657 61 111H60H59C59 113.761 61.2386 116 64 116V115ZM360 111H359C359 112.657 357.657 114 356 114V115V116C358.761 116 361 113.761 361 111H360ZM356 83V84C357.657 84 359 85.3431 359 87H360H361C361 84.2386 358.761 82 356 82V83ZM64 83V82C61.2386 82 59 84.2386 59 87H60H61C61 85.3431 62.3431 84 64 84V83Z" fill="#A1A1A0" mask="url(#path-10-inside-1_390_53038)"/>
</g>
<path d="M68.8789 131V122.41H70.0156V129.986H74.2461V131H68.8789ZM79.7305 128.996L80.8203 129.131C80.6484 129.768 80.3301 130.262 79.8652 130.613C79.4004 130.965 78.8066 131.141 78.084 131.141C77.1738 131.141 76.4512 130.861 75.916 130.303C75.3848 129.74 75.1191 128.953 75.1191 127.941C75.1191 126.895 75.3887 126.082 75.9277 125.504C76.4668 124.926 77.166 124.637 78.0254 124.637C78.8574 124.637 79.5371 124.92 80.0645 125.486C80.5918 126.053 80.8555 126.85 80.8555 127.877C80.8555 127.939 80.8535 128.033 80.8496 128.158H76.209C76.248 128.842 76.4414 129.365 76.7891 129.729C77.1367 130.092 77.5703 130.273 78.0898 130.273C78.4766 130.273 78.8066 130.172 79.0801 129.969C79.3535 129.766 79.5703 129.441 79.7305 128.996ZM76.2676 127.291H79.7422C79.6953 126.768 79.5625 126.375 79.3438 126.113C79.0078 125.707 78.5723 125.504 78.0371 125.504C77.5527 125.504 77.1445 125.666 76.8125 125.99C76.4844 126.314 76.3027 126.748 76.2676 127.291ZM85.4902 131V124.777H86.4395V125.662C86.8965 124.979 87.5566 124.637 88.4199 124.637C88.7949 124.637 89.1387 124.705 89.4512 124.842C89.7676 124.975 90.0039 125.15 90.1602 125.369C90.3164 125.588 90.4258 125.848 90.4883 126.148C90.5273 126.344 90.5469 126.686 90.5469 127.174V131H89.4922V127.215C89.4922 126.785 89.4512 126.465 89.3691 126.254C89.2871 126.039 89.1406 125.869 88.9297 125.744C88.7227 125.615 88.4785 125.551 88.1973 125.551C87.748 125.551 87.3594 125.693 87.0312 125.979C86.707 126.264 86.5449 126.805 86.5449 127.602V131H85.4902ZM91.7773 127.889C91.7773 126.736 92.0977 125.883 92.7383 125.328C93.2734 124.867 93.9258 124.637 94.6953 124.637C95.5508 124.637 96.25 124.918 96.793 125.48C97.3359 126.039 97.6074 126.812 97.6074 127.801C97.6074 128.602 97.4863 129.232 97.2441 129.693C97.0059 130.15 96.6562 130.506 96.1953 130.76C95.7383 131.014 95.2383 131.141 94.6953 131.141C93.8242 131.141 93.1191 130.861 92.5801 130.303C92.0449 129.744 91.7773 128.939 91.7773 127.889ZM92.8613 127.889C92.8613 128.686 93.0352 129.283 93.3828 129.682C93.7305 130.076 94.168 130.273 94.6953 130.273C95.2188 130.273 95.6543 130.074 96.002 129.676C96.3496 129.277 96.5234 128.67 96.5234 127.854C96.5234 127.084 96.3477 126.502 95.9961 126.107C95.6484 125.709 95.2148 125.51 94.6953 125.51C94.168 125.51 93.7305 125.707 93.3828 126.102C93.0352 126.496 92.8613 127.092 92.8613 127.889ZM98.8496 131V124.777H99.793V125.65C99.9883 125.346 100.248 125.102 100.572 124.918C100.896 124.73 101.266 124.637 101.68 124.637C102.141 124.637 102.518 124.732 102.811 124.924C103.107 125.115 103.316 125.383 103.438 125.727C103.93 125 104.57 124.637 105.359 124.637C105.977 124.637 106.451 124.809 106.783 125.152C107.115 125.492 107.281 126.018 107.281 126.729V131H106.232V127.08C106.232 126.658 106.197 126.355 106.127 126.172C106.061 125.984 105.938 125.834 105.758 125.721C105.578 125.607 105.367 125.551 105.125 125.551C104.688 125.551 104.324 125.697 104.035 125.99C103.746 126.279 103.602 126.744 103.602 127.385V131H102.547V126.957C102.547 126.488 102.461 126.137 102.289 125.902C102.117 125.668 101.836 125.551 101.445 125.551C101.148 125.551 100.873 125.629 100.619 125.785C100.369 125.941 100.188 126.17 100.074 126.471C99.9609 126.771 99.9043 127.205 99.9043 127.771V131H98.8496ZM116.223 131V130.215C115.828 130.832 115.248 131.141 114.482 131.141C113.986 131.141 113.529 131.004 113.111 130.73C112.697 130.457 112.375 130.076 112.145 129.588C111.918 129.096 111.805 128.531 111.805 127.895C111.805 127.273 111.908 126.711 112.115 126.207C112.322 125.699 112.633 125.311 113.047 125.041C113.461 124.771 113.924 124.637 114.436 124.637C114.811 124.637 115.145 124.717 115.438 124.877C115.73 125.033 115.969 125.238 116.152 125.492V122.41H117.201V131H116.223ZM112.889 127.895C112.889 128.691 113.057 129.287 113.393 129.682C113.729 130.076 114.125 130.273 114.582 130.273C115.043 130.273 115.434 130.086 115.754 129.711C116.078 129.332 116.24 128.756 116.24 127.982C116.24 127.131 116.076 126.506 115.748 126.107C115.42 125.709 115.016 125.51 114.535 125.51C114.066 125.51 113.674 125.701 113.357 126.084C113.045 126.467 112.889 127.07 112.889 127.895ZM122.943 131V130.086C122.459 130.789 121.801 131.141 120.969 131.141C120.602 131.141 120.258 131.07 119.938 130.93C119.621 130.789 119.385 130.613 119.229 130.402C119.076 130.188 118.969 129.926 118.906 129.617C118.863 129.41 118.842 129.082 118.842 128.633V124.777H119.896V128.229C119.896 128.779 119.918 129.15 119.961 129.342C120.027 129.619 120.168 129.838 120.383 129.998C120.598 130.154 120.863 130.232 121.18 130.232C121.496 130.232 121.793 130.152 122.07 129.992C122.348 129.828 122.543 129.607 122.656 129.33C122.773 129.049 122.832 128.643 122.832 128.111V124.777H123.887V131H122.943ZM128.885 133.385V124.777H129.846V125.586C130.072 125.27 130.328 125.033 130.613 124.877C130.898 124.717 131.244 124.637 131.65 124.637C132.182 124.637 132.65 124.773 133.057 125.047C133.463 125.32 133.77 125.707 133.977 126.207C134.184 126.703 134.287 127.248 134.287 127.842C134.287 128.479 134.172 129.053 133.941 129.564C133.715 130.072 133.383 130.463 132.945 130.736C132.512 131.006 132.055 131.141 131.574 131.141C131.223 131.141 130.906 131.066 130.625 130.918C130.348 130.77 130.119 130.582 129.939 130.355V133.385H128.885ZM129.84 127.924C129.84 128.725 130.002 129.316 130.326 129.699C130.65 130.082 131.043 130.273 131.504 130.273C131.973 130.273 132.373 130.076 132.705 129.682C133.041 129.283 133.209 128.668 133.209 127.836C133.209 127.043 133.045 126.449 132.717 126.055C132.393 125.66 132.004 125.463 131.551 125.463C131.102 125.463 130.703 125.674 130.355 126.096C130.012 126.514 129.84 127.123 129.84 127.924ZM135.553 131V124.777H136.502V125.721C136.744 125.279 136.967 124.988 137.17 124.848C137.377 124.707 137.604 124.637 137.85 124.637C138.205 124.637 138.566 124.75 138.934 124.977L138.57 125.955C138.312 125.803 138.055 125.727 137.797 125.727C137.566 125.727 137.359 125.797 137.176 125.938C136.992 126.074 136.861 126.266 136.783 126.512C136.666 126.887 136.607 127.297 136.607 127.742V131H135.553ZM139.168 127.889C139.168 126.736 139.488 125.883 140.129 125.328C140.664 124.867 141.316 124.637 142.086 124.637C142.941 124.637 143.641 124.918 144.184 125.48C144.727 126.039 144.998 126.812 144.998 127.801C144.998 128.602 144.877 129.232 144.635 129.693C144.396 130.15 144.047 130.506 143.586 130.76C143.129 131.014 142.629 131.141 142.086 131.141C141.215 131.141 140.51 130.861 139.971 130.303C139.436 129.744 139.168 128.939 139.168 127.889ZM140.252 127.889C140.252 128.686 140.426 129.283 140.773 129.682C141.121 130.076 141.559 130.273 142.086 130.273C142.609 130.273 143.045 130.074 143.393 129.676C143.74 129.277 143.914 128.67 143.914 127.854C143.914 127.084 143.738 126.502 143.387 126.107C143.039 125.709 142.605 125.51 142.086 125.51C141.559 125.51 141.121 125.707 140.773 126.102C140.426 126.496 140.252 127.092 140.252 127.889ZM146.234 123.635V122.41H147.289V123.635H146.234ZM144.898 133.414L145.098 132.518C145.309 132.572 145.475 132.6 145.596 132.6C145.811 132.6 145.971 132.527 146.076 132.383C146.182 132.242 146.234 131.887 146.234 131.316V124.777H147.289V131.34C147.289 132.105 147.189 132.639 146.99 132.939C146.736 133.33 146.314 133.525 145.725 133.525C145.439 133.525 145.164 133.488 144.898 133.414ZM153.172 128.996L154.262 129.131C154.09 129.768 153.771 130.262 153.307 130.613C152.842 130.965 152.248 131.141 151.525 131.141C150.615 131.141 149.893 130.861 149.357 130.303C148.826 129.74 148.561 128.953 148.561 127.941C148.561 126.895 148.83 126.082 149.369 125.504C149.908 124.926 150.607 124.637 151.467 124.637C152.299 124.637 152.979 124.92 153.506 125.486C154.033 126.053 154.297 126.85 154.297 127.877C154.297 127.939 154.295 128.033 154.291 128.158H149.65C149.689 128.842 149.883 129.365 150.23 129.729C150.578 130.092 151.012 130.273 151.531 130.273C151.918 130.273 152.248 130.172 152.521 129.969C152.795 129.766 153.012 129.441 153.172 128.996ZM149.709 127.291H153.184C153.137 126.768 153.004 126.375 152.785 126.113C152.449 125.707 152.014 125.504 151.479 125.504C150.994 125.504 150.586 125.666 150.254 125.99C149.926 126.314 149.744 126.748 149.709 127.291ZM157.895 130.057L158.047 130.988C157.75 131.051 157.484 131.082 157.25 131.082C156.867 131.082 156.57 131.021 156.359 130.9C156.148 130.779 156 130.621 155.914 130.426C155.828 130.227 155.785 129.811 155.785 129.178V125.598H155.012V124.777H155.785V123.236L156.834 122.604V124.777H157.895V125.598H156.834V129.236C156.834 129.537 156.852 129.73 156.887 129.816C156.926 129.902 156.986 129.971 157.068 130.021C157.154 130.072 157.275 130.098 157.432 130.098C157.549 130.098 157.703 130.084 157.895 130.057ZM166.309 131V130.215C165.914 130.832 165.334 131.141 164.568 131.141C164.072 131.141 163.615 131.004 163.197 130.73C162.783 130.457 162.461 130.076 162.23 129.588C162.004 129.096 161.891 128.531 161.891 127.895C161.891 127.273 161.994 126.711 162.201 126.207C162.408 125.699 162.719 125.311 163.133 125.041C163.547 124.771 164.01 124.637 164.521 124.637C164.896 124.637 165.23 124.717 165.523 124.877C165.816 125.033 166.055 125.238 166.238 125.492V122.41H167.287V131H166.309ZM162.975 127.895C162.975 128.691 163.143 129.287 163.479 129.682C163.814 130.076 164.211 130.273 164.668 130.273C165.129 130.273 165.52 130.086 165.84 129.711C166.164 129.332 166.326 128.756 166.326 127.982C166.326 127.131 166.162 126.506 165.834 126.107C165.506 125.709 165.102 125.51 164.621 125.51C164.152 125.51 163.76 125.701 163.443 126.084C163.131 126.467 162.975 127.07 162.975 127.895ZM168.559 127.889C168.559 126.736 168.879 125.883 169.52 125.328C170.055 124.867 170.707 124.637 171.477 124.637C172.332 124.637 173.031 124.918 173.574 125.48C174.117 126.039 174.389 126.812 174.389 127.801C174.389 128.602 174.268 129.232 174.025 129.693C173.787 130.15 173.438 130.506 172.977 130.76C172.52 131.014 172.02 131.141 171.477 131.141C170.605 131.141 169.9 130.861 169.361 130.303C168.826 129.744 168.559 128.939 168.559 127.889ZM169.643 127.889C169.643 128.686 169.816 129.283 170.164 129.682C170.512 130.076 170.949 130.273 171.477 130.273C172 130.273 172.436 130.074 172.783 129.676C173.131 129.277 173.305 128.67 173.305 127.854C173.305 127.084 173.129 126.502 172.777 126.107C172.43 125.709 171.996 125.51 171.477 125.51C170.949 125.51 170.512 125.707 170.164 126.102C169.816 126.496 169.643 127.092 169.643 127.889ZM175.637 123.623V122.41H176.691V123.623H175.637ZM175.637 131V124.777H176.691V131H175.637ZM180.605 130.057L180.758 130.988C180.461 131.051 180.195 131.082 179.961 131.082C179.578 131.082 179.281 131.021 179.07 130.9C178.859 130.779 178.711 130.621 178.625 130.426C178.539 130.227 178.496 129.811 178.496 129.178V125.598H177.723V124.777H178.496V123.236L179.545 122.604V124.777H180.605V125.598H179.545V129.236C179.545 129.537 179.562 129.73 179.598 129.816C179.637 129.902 179.697 129.971 179.779 130.021C179.865 130.072 179.986 130.098 180.143 130.098C180.26 130.098 180.414 130.084 180.605 130.057ZM189.242 128.996L190.332 129.131C190.16 129.768 189.842 130.262 189.377 130.613C188.912 130.965 188.318 131.141 187.596 131.141C186.686 131.141 185.963 130.861 185.428 130.303C184.896 129.74 184.631 128.953 184.631 127.941C184.631 126.895 184.9 126.082 185.439 125.504C185.979 124.926 186.678 124.637 187.537 124.637C188.369 124.637 189.049 124.92 189.576 125.486C190.104 126.053 190.367 126.85 190.367 127.877C190.367 127.939 190.365 128.033 190.361 128.158H185.721C185.76 128.842 185.953 129.365 186.301 129.729C186.648 130.092 187.082 130.273 187.602 130.273C187.988 130.273 188.318 130.172 188.592 129.969C188.865 129.766 189.082 129.441 189.242 128.996ZM185.779 127.291H189.254C189.207 126.768 189.074 126.375 188.855 126.113C188.52 125.707 188.084 125.504 187.549 125.504C187.064 125.504 186.656 125.666 186.324 125.99C185.996 126.314 185.814 126.748 185.779 127.291ZM187.514 123.008L186.852 124.004H185.645L186.91 122.363H188.035L189.354 124.004H188.158L187.514 123.008ZM193.965 130.057L194.117 130.988C193.82 131.051 193.555 131.082 193.32 131.082C192.938 131.082 192.641 131.021 192.43 130.9C192.219 130.779 192.07 130.621 191.984 130.426C191.898 130.227 191.855 129.811 191.855 129.178V125.598H191.082V124.777H191.855V123.236L192.904 122.604V124.777H193.965V125.598H192.904V129.236C192.904 129.537 192.922 129.73 192.957 129.816C192.996 129.902 193.057 129.971 193.139 130.021C193.225 130.072 193.346 130.098 193.502 130.098C193.619 130.098 193.773 130.084 193.965 130.057ZM194.99 131V124.777H195.939V125.721C196.182 125.279 196.404 124.988 196.607 124.848C196.814 124.707 197.041 124.637 197.287 124.637C197.643 124.637 198.004 124.75 198.371 124.977L198.008 125.955C197.75 125.803 197.492 125.727 197.234 125.727C197.004 125.727 196.797 125.797 196.613 125.938C196.43 126.074 196.299 126.266 196.221 126.512C196.104 126.887 196.045 127.297 196.045 127.742V131H194.99ZM203.258 128.996L204.348 129.131C204.176 129.768 203.857 130.262 203.393 130.613C202.928 130.965 202.334 131.141 201.611 131.141C200.701 131.141 199.979 130.861 199.443 130.303C198.912 129.74 198.646 128.953 198.646 127.941C198.646 126.895 198.916 126.082 199.455 125.504C199.994 124.926 200.693 124.637 201.553 124.637C202.385 124.637 203.064 124.92 203.592 125.486C204.119 126.053 204.383 126.85 204.383 127.877C204.383 127.939 204.381 128.033 204.377 128.158H199.736C199.775 128.842 199.969 129.365 200.316 129.729C200.664 130.092 201.098 130.273 201.617 130.273C202.004 130.273 202.334 130.172 202.607 129.969C202.881 129.766 203.098 129.441 203.258 128.996ZM199.795 127.291H203.27C203.223 126.768 203.09 126.375 202.871 126.113C202.535 125.707 202.1 125.504 201.564 125.504C201.08 125.504 200.672 125.666 200.34 125.99C200.012 126.314 199.83 126.748 199.795 127.291ZM209.27 131V125.598H208.338V124.777H209.27V124.115C209.27 123.697 209.307 123.387 209.381 123.184C209.482 122.91 209.66 122.689 209.914 122.521C210.172 122.35 210.531 122.264 210.992 122.264C211.289 122.264 211.617 122.299 211.977 122.369L211.818 123.289C211.6 123.25 211.393 123.23 211.197 123.23C210.877 123.23 210.65 123.299 210.518 123.436C210.385 123.572 210.318 123.828 210.318 124.203V124.777H211.531V125.598H210.318V131H209.27ZM216.418 130.232C216.027 130.564 215.65 130.799 215.287 130.936C214.928 131.072 214.541 131.141 214.127 131.141C213.443 131.141 212.918 130.975 212.551 130.643C212.184 130.307 212 129.879 212 129.359C212 129.055 212.068 128.777 212.205 128.527C212.346 128.273 212.527 128.07 212.75 127.918C212.977 127.766 213.23 127.65 213.512 127.572C213.719 127.518 214.031 127.465 214.449 127.414C215.301 127.312 215.928 127.191 216.33 127.051C216.334 126.906 216.336 126.814 216.336 126.775C216.336 126.346 216.236 126.043 216.037 125.867C215.768 125.629 215.367 125.51 214.836 125.51C214.34 125.51 213.973 125.598 213.734 125.773C213.5 125.945 213.326 126.252 213.213 126.693L212.182 126.553C212.275 126.111 212.43 125.756 212.645 125.486C212.859 125.213 213.17 125.004 213.576 124.859C213.982 124.711 214.453 124.637 214.988 124.637C215.52 124.637 215.951 124.699 216.283 124.824C216.615 124.949 216.859 125.107 217.016 125.299C217.172 125.486 217.281 125.725 217.344 126.014C217.379 126.193 217.396 126.518 217.396 126.986V128.393C217.396 129.373 217.418 129.994 217.461 130.256C217.508 130.514 217.598 130.762 217.73 131H216.629C216.52 130.781 216.449 130.525 216.418 130.232ZM216.33 127.877C215.947 128.033 215.373 128.166 214.607 128.275C214.174 128.338 213.867 128.408 213.688 128.486C213.508 128.564 213.369 128.68 213.271 128.832C213.174 128.98 213.125 129.146 213.125 129.33C213.125 129.611 213.23 129.846 213.441 130.033C213.656 130.221 213.969 130.314 214.379 130.314C214.785 130.314 215.146 130.227 215.463 130.051C215.779 129.871 216.012 129.627 216.16 129.318C216.273 129.08 216.33 128.729 216.33 128.264V127.877ZM223.098 128.721L224.135 128.855C224.021 129.57 223.73 130.131 223.262 130.537C222.797 130.939 222.225 131.141 221.545 131.141C220.693 131.141 220.008 130.863 219.488 130.309C218.973 129.75 218.715 128.951 218.715 127.912C218.715 127.24 218.826 126.652 219.049 126.148C219.271 125.645 219.609 125.268 220.062 125.018C220.52 124.764 221.016 124.637 221.551 124.637C222.227 124.637 222.779 124.809 223.209 125.152C223.639 125.492 223.914 125.977 224.035 126.605L223.01 126.764C222.912 126.346 222.738 126.031 222.488 125.82C222.242 125.609 221.943 125.504 221.592 125.504C221.061 125.504 220.629 125.695 220.297 126.078C219.965 126.457 219.799 127.059 219.799 127.883C219.799 128.719 219.959 129.326 220.279 129.705C220.6 130.084 221.018 130.273 221.533 130.273C221.947 130.273 222.293 130.146 222.57 129.893C222.848 129.639 223.023 129.248 223.098 128.721ZM225.043 123.623V122.41H226.098V123.623H225.043ZM225.043 131V124.777H226.098V131H225.043ZM227.686 131V122.41H228.74V131H227.686ZM234.641 128.996L235.73 129.131C235.559 129.768 235.24 130.262 234.775 130.613C234.311 130.965 233.717 131.141 232.994 131.141C232.084 131.141 231.361 130.861 230.826 130.303C230.295 129.74 230.029 128.953 230.029 127.941C230.029 126.895 230.299 126.082 230.838 125.504C231.377 124.926 232.076 124.637 232.936 124.637C233.768 124.637 234.447 124.92 234.975 125.486C235.502 126.053 235.766 126.85 235.766 127.877C235.766 127.939 235.764 128.033 235.76 128.158H231.119C231.158 128.842 231.352 129.365 231.699 129.729C232.047 130.092 232.48 130.273 233 130.273C233.387 130.273 233.717 130.172 233.99 129.969C234.264 129.766 234.48 129.441 234.641 128.996ZM231.178 127.291H234.652C234.605 126.768 234.473 126.375 234.254 126.113C233.918 125.707 233.482 125.504 232.947 125.504C232.463 125.504 232.055 125.666 231.723 125.99C231.395 126.314 231.213 126.748 231.178 127.291ZM237.061 131V124.777H238.004V125.65C238.199 125.346 238.459 125.102 238.783 124.918C239.107 124.73 239.477 124.637 239.891 124.637C240.352 124.637 240.729 124.732 241.021 124.924C241.318 125.115 241.527 125.383 241.648 125.727C242.141 125 242.781 124.637 243.57 124.637C244.188 124.637 244.662 124.809 244.994 125.152C245.326 125.492 245.492 126.018 245.492 126.729V131H244.443V127.08C244.443 126.658 244.408 126.355 244.338 126.172C244.271 125.984 244.148 125.834 243.969 125.721C243.789 125.607 243.578 125.551 243.336 125.551C242.898 125.551 242.535 125.697 242.246 125.99C241.957 126.279 241.812 126.744 241.812 127.385V131H240.758V126.957C240.758 126.488 240.672 126.137 240.5 125.902C240.328 125.668 240.047 125.551 239.656 125.551C239.359 125.551 239.084 125.629 238.83 125.785C238.58 125.941 238.398 126.17 238.285 126.471C238.172 126.771 238.115 127.205 238.115 127.771V131H237.061ZM251.316 128.996L252.406 129.131C252.234 129.768 251.916 130.262 251.451 130.613C250.986 130.965 250.393 131.141 249.67 131.141C248.76 131.141 248.037 130.861 247.502 130.303C246.971 129.74 246.705 128.953 246.705 127.941C246.705 126.895 246.975 126.082 247.514 125.504C248.053 124.926 248.752 124.637 249.611 124.637C250.443 124.637 251.123 124.92 251.65 125.486C252.178 126.053 252.441 126.85 252.441 127.877C252.441 127.939 252.439 128.033 252.436 128.158H247.795C247.834 128.842 248.027 129.365 248.375 129.729C248.723 130.092 249.156 130.273 249.676 130.273C250.062 130.273 250.393 130.172 250.666 129.969C250.939 129.766 251.156 129.441 251.316 128.996ZM247.854 127.291H251.328C251.281 126.768 251.148 126.375 250.93 126.113C250.594 125.707 250.158 125.504 249.623 125.504C249.139 125.504 248.73 125.666 248.398 125.99C248.07 126.314 247.889 126.748 247.854 127.291ZM253.736 131V124.777H254.686V125.662C255.143 124.979 255.803 124.637 256.666 124.637C257.041 124.637 257.385 124.705 257.697 124.842C258.014 124.975 258.25 125.15 258.406 125.369C258.562 125.588 258.672 125.848 258.734 126.148C258.773 126.344 258.793 126.686 258.793 127.174V131H257.738V127.215C257.738 126.785 257.697 126.465 257.615 126.254C257.533 126.039 257.387 125.869 257.176 125.744C256.969 125.615 256.725 125.551 256.443 125.551C255.994 125.551 255.605 125.693 255.277 125.979C254.953 126.264 254.791 126.805 254.791 127.602V131H253.736ZM262.719 130.057L262.871 130.988C262.574 131.051 262.309 131.082 262.074 131.082C261.691 131.082 261.395 131.021 261.184 130.9C260.973 130.779 260.824 130.621 260.738 130.426C260.652 130.227 260.609 129.811 260.609 129.178V125.598H259.836V124.777H260.609V123.236L261.658 122.604V124.777H262.719V125.598H261.658V129.236C261.658 129.537 261.676 129.73 261.711 129.816C261.75 129.902 261.811 129.971 261.893 130.021C261.979 130.072 262.1 130.098 262.256 130.098C262.373 130.098 262.527 130.084 262.719 130.057ZM267.102 123.623V122.41H268.156V123.623H267.102ZM267.102 131V124.777H268.156V131H267.102ZM273.805 131V130.215C273.41 130.832 272.83 131.141 272.064 131.141C271.568 131.141 271.111 131.004 270.693 130.73C270.279 130.457 269.957 130.076 269.727 129.588C269.5 129.096 269.387 128.531 269.387 127.895C269.387 127.273 269.49 126.711 269.697 126.207C269.904 125.699 270.215 125.311 270.629 125.041C271.043 124.771 271.506 124.637 272.018 124.637C272.393 124.637 272.727 124.717 273.02 124.877C273.312 125.033 273.551 125.238 273.734 125.492V122.41H274.783V131H273.805ZM270.471 127.895C270.471 128.691 270.639 129.287 270.975 129.682C271.311 130.076 271.707 130.273 272.164 130.273C272.625 130.273 273.016 130.086 273.336 129.711C273.66 129.332 273.822 128.756 273.822 127.982C273.822 127.131 273.658 126.506 273.33 126.107C273.002 125.709 272.598 125.51 272.117 125.51C271.648 125.51 271.256 125.701 270.939 126.084C270.627 126.467 270.471 127.07 270.471 127.895ZM280.707 128.996L281.797 129.131C281.625 129.768 281.307 130.262 280.842 130.613C280.377 130.965 279.783 131.141 279.061 131.141C278.15 131.141 277.428 130.861 276.893 130.303C276.361 129.74 276.096 128.953 276.096 127.941C276.096 126.895 276.365 126.082 276.904 125.504C277.443 124.926 278.143 124.637 279.002 124.637C279.834 124.637 280.514 124.92 281.041 125.486C281.568 126.053 281.832 126.85 281.832 127.877C281.832 127.939 281.83 128.033 281.826 128.158H277.186C277.225 128.842 277.418 129.365 277.766 129.729C278.113 130.092 278.547 130.273 279.066 130.273C279.453 130.273 279.783 130.172 280.057 129.969C280.33 129.766 280.547 129.441 280.707 128.996ZM277.244 127.291H280.719C280.672 126.768 280.539 126.375 280.32 126.113C279.984 125.707 279.549 125.504 279.014 125.504C278.529 125.504 278.121 125.666 277.789 125.99C277.461 126.314 277.279 126.748 277.244 127.291ZM283.127 131V124.777H284.076V125.662C284.533 124.979 285.193 124.637 286.057 124.637C286.432 124.637 286.775 124.705 287.088 124.842C287.404 124.975 287.641 125.15 287.797 125.369C287.953 125.588 288.062 125.848 288.125 126.148C288.164 126.344 288.184 126.686 288.184 127.174V131H287.129V127.215C287.129 126.785 287.088 126.465 287.006 126.254C286.924 126.039 286.777 125.869 286.566 125.744C286.359 125.615 286.115 125.551 285.834 125.551C285.385 125.551 284.996 125.693 284.668 125.979C284.344 126.264 284.182 126.805 284.182 127.602V131H283.127ZM292.109 130.057L292.262 130.988C291.965 131.051 291.699 131.082 291.465 131.082C291.082 131.082 290.785 131.021 290.574 130.9C290.363 130.779 290.215 130.621 290.129 130.426C290.043 130.227 290 129.811 290 129.178V125.598H289.227V124.777H290V123.236L291.049 122.604V124.777H292.109V125.598H291.049V129.236C291.049 129.537 291.066 129.73 291.102 129.816C291.141 129.902 291.201 129.971 291.283 130.021C291.369 130.072 291.49 130.098 291.646 130.098C291.764 130.098 291.918 130.084 292.109 130.057ZM293.152 123.623V122.41H294.207V123.623H293.152ZM293.152 131V124.777H294.207V131H293.152ZM296.07 131V125.598H295.139V124.777H296.07V124.115C296.07 123.697 296.107 123.387 296.182 123.184C296.283 122.91 296.461 122.689 296.715 122.521C296.973 122.35 297.332 122.264 297.793 122.264C298.09 122.264 298.418 122.299 298.777 122.369L298.619 123.289C298.4 123.25 298.193 123.23 297.998 123.23C297.678 123.23 297.451 123.299 297.318 123.436C297.186 123.572 297.119 123.828 297.119 124.203V124.777H298.332V125.598H297.119V131H296.07ZM299.164 123.623V122.41H300.219V123.623H299.164ZM299.164 131V124.777H300.219V131H299.164ZM305.891 130.232C305.5 130.564 305.123 130.799 304.76 130.936C304.4 131.072 304.014 131.141 303.6 131.141C302.916 131.141 302.391 130.975 302.023 130.643C301.656 130.307 301.473 129.879 301.473 129.359C301.473 129.055 301.541 128.777 301.678 128.527C301.818 128.273 302 128.07 302.223 127.918C302.449 127.766 302.703 127.65 302.984 127.572C303.191 127.518 303.504 127.465 303.922 127.414C304.773 127.312 305.4 127.191 305.803 127.051C305.807 126.906 305.809 126.814 305.809 126.775C305.809 126.346 305.709 126.043 305.51 125.867C305.24 125.629 304.84 125.51 304.309 125.51C303.812 125.51 303.445 125.598 303.207 125.773C302.973 125.945 302.799 126.252 302.686 126.693L301.654 126.553C301.748 126.111 301.902 125.756 302.117 125.486C302.332 125.213 302.643 125.004 303.049 124.859C303.455 124.711 303.926 124.637 304.461 124.637C304.992 124.637 305.424 124.699 305.756 124.824C306.088 124.949 306.332 125.107 306.488 125.299C306.645 125.486 306.754 125.725 306.816 126.014C306.852 126.193 306.869 126.518 306.869 126.986V128.393C306.869 129.373 306.891 129.994 306.934 130.256C306.98 130.514 307.07 130.762 307.203 131H306.102C305.992 130.781 305.922 130.525 305.891 130.232ZM305.803 127.877C305.42 128.033 304.846 128.166 304.08 128.275C303.646 128.338 303.34 128.408 303.16 128.486C302.98 128.564 302.842 128.68 302.744 128.832C302.646 128.98 302.598 129.146 302.598 129.33C302.598 129.611 302.703 129.846 302.914 130.033C303.129 130.221 303.441 130.314 303.852 130.314C304.258 130.314 304.619 130.227 304.936 130.051C305.252 129.871 305.484 129.627 305.633 129.318C305.746 129.08 305.803 128.729 305.803 128.264V127.877ZM309.482 131H308.504V122.41H309.559V125.475C310.004 124.916 310.572 124.637 311.264 124.637C311.646 124.637 312.008 124.715 312.348 124.871C312.691 125.023 312.973 125.24 313.191 125.521C313.414 125.799 313.588 126.135 313.713 126.529C313.838 126.924 313.9 127.346 313.9 127.795C313.9 128.861 313.637 129.686 313.109 130.268C312.582 130.85 311.949 131.141 311.211 131.141C310.477 131.141 309.9 130.834 309.482 130.221V131ZM309.471 127.842C309.471 128.588 309.572 129.127 309.775 129.459C310.107 130.002 310.557 130.273 311.123 130.273C311.584 130.273 311.982 130.074 312.318 129.676C312.654 129.273 312.822 128.676 312.822 127.883C312.822 127.07 312.66 126.471 312.336 126.084C312.016 125.697 311.627 125.504 311.17 125.504C310.709 125.504 310.311 125.705 309.975 126.107C309.639 126.506 309.471 127.084 309.471 127.842ZM315.166 131V122.41H316.221V131H315.166ZM322.121 128.996L323.211 129.131C323.039 129.768 322.721 130.262 322.256 130.613C321.791 130.965 321.197 131.141 320.475 131.141C319.564 131.141 318.842 130.861 318.307 130.303C317.775 129.74 317.51 128.953 317.51 127.941C317.51 126.895 317.779 126.082 318.318 125.504C318.857 124.926 319.557 124.637 320.416 124.637C321.248 124.637 321.928 124.92 322.455 125.486C322.982 126.053 323.246 126.85 323.246 127.877C323.246 127.939 323.244 128.033 323.24 128.158H318.6C318.639 128.842 318.832 129.365 319.18 129.729C319.527 130.092 319.961 130.273 320.48 130.273C320.867 130.273 321.197 130.172 321.471 129.969C321.744 129.766 321.961 129.441 322.121 128.996ZM318.658 127.291H322.133C322.086 126.768 321.953 126.375 321.734 126.113C321.398 125.707 320.963 125.504 320.428 125.504C319.943 125.504 319.535 125.666 319.203 125.99C318.875 126.314 318.693 126.748 318.658 127.291ZM324.84 131V129.799H326.041V131H324.84Z" fill="#737272"/>
<path d="M65.78 171.18C65.0333 171.18 64.2733 171.08 63.5 170.88C62.7267 170.667 62.0533 170.353 61.48 169.94C61.2667 169.807 61.12 169.647 61.04 169.46C60.9733 169.26 60.96 169.08 61 168.92C61.04 168.747 61.12 168.6 61.24 168.48C61.3733 168.36 61.5333 168.293 61.72 168.28C61.9067 168.253 62.1133 168.307 62.34 168.44C62.9133 168.787 63.4733 169.04 64.02 169.2C64.5667 169.347 65.1333 169.42 65.72 169.42C66.36 169.42 66.9 169.327 67.34 169.14C67.78 168.953 68.1067 168.68 68.32 168.32C68.5467 167.96 68.66 167.527 68.66 167.02C68.66 166.26 68.4067 165.693 67.9 165.32C67.4067 164.933 66.6867 164.74 65.74 164.74H64.38C64.0733 164.74 63.84 164.667 63.68 164.52C63.52 164.36 63.44 164.14 63.44 163.86C63.44 163.593 63.52 163.387 63.68 163.24C63.84 163.08 64.0733 163 64.38 163H65.54C66.1133 163 66.6 162.907 67 162.72C67.4 162.52 67.7067 162.247 67.92 161.9C68.1467 161.54 68.26 161.107 68.26 160.6C68.26 159.92 68.0333 159.4 67.58 159.04C67.14 158.667 66.4933 158.48 65.64 158.48C65.0933 158.48 64.5733 158.553 64.08 158.7C63.6 158.847 63.1 159.107 62.58 159.48C62.38 159.613 62.1867 159.673 62 159.66C61.8267 159.633 61.6733 159.567 61.54 159.46C61.42 159.34 61.3333 159.193 61.28 159.02C61.24 158.847 61.2533 158.667 61.32 158.48C61.3867 158.293 61.52 158.133 61.72 158C62.28 157.587 62.9133 157.273 63.62 157.06C64.3267 156.833 65.0533 156.72 65.8 156.72C66.7333 156.72 67.5333 156.867 68.2 157.16C68.88 157.453 69.3933 157.873 69.74 158.42C70.1 158.967 70.28 159.62 70.28 160.38C70.28 160.953 70.1733 161.473 69.96 161.94C69.7467 162.407 69.44 162.807 69.04 163.14C68.6533 163.46 68.18 163.687 67.62 163.82V163.6C68.5933 163.76 69.3467 164.16 69.88 164.8C70.4133 165.427 70.68 166.213 70.68 167.16C70.68 167.987 70.48 168.707 70.08 169.32C69.6933 169.92 69.1333 170.38 68.4 170.7C67.6667 171.02 66.7933 171.18 65.78 171.18ZM73.8922 171.08C73.5055 171.08 73.1922 170.96 72.9522 170.72C72.7122 170.48 72.5922 170.173 72.5922 169.8C72.5922 169.427 72.7122 169.127 72.9522 168.9C73.1922 168.66 73.5055 168.54 73.8922 168.54C74.2789 168.54 74.5855 168.66 74.8122 168.9C75.0389 169.127 75.1522 169.427 75.1522 169.8C75.1522 170.173 75.0389 170.48 74.8122 170.72C74.5855 170.96 74.2789 171.08 73.8922 171.08Z" fill="#737272"/>
<path d="M74 133.333C72.5272 133.333 71.3333 134.527 71.3333 136C71.3333 137.473 72.5272 138.667 74 138.667C75.4728 138.667 76.6667 137.473 76.6667 136C76.6667 134.527 75.4728 133.333 74 133.333ZM74 136H73.5V152H74H74.5V136H74Z" fill="#737272"/>
<defs>
<filter id="filter0_i_390_53038" x="60" y="83" width="300" height="33" filterUnits="userSpaceOnUse" color-interpolation-filters="sRGB">
<feFlood flood-opacity="0" result="BackgroundImageFix"/>
<feBlend mode="normal" in="SourceGraphic" in2="BackgroundImageFix" result="shape"/>
<feColorMatrix in="SourceAlpha" type="matrix" values="0 0 0 0 0 0 0 0 0 0 0 0 0 0 0 0 0 0 127 0" result="hardAlpha"/>
<feOffset dy="1"/>
<feGaussianBlur stdDeviation="2"/>
<feComposite in2="hardAlpha" operator="arithmetic" k2="-1" k3="1"/>
<feColorMatrix type="matrix" values="0 0 0 0 0 0 0 0 0 0 0 0 0 0 0 0 0 0 0.14 0"/>
<feBlend mode="normal" in2="shape" result="effect1_innerShadow_390_53038"/>
</filter>
</defs>
</svg>
