<svg viewBox="0 0 20 20" fill="none" xmlns="http://www.w3.org/2000/svg">
<path d="M8.33329 13.3334C8.5694 13.3334 8.76732 13.2535 8.92704 13.0938C9.08676 12.934 9.16663 12.7361 9.16663 12.5V7.50002C9.16663 7.26391 9.08676 7.06599 8.92704 6.90627C8.76732 6.74655 8.5694 6.66669 8.33329 6.66669C8.09718 6.66669 7.89926 6.74655 7.73954 6.90627C7.57982 7.06599 7.49996 7.26391 7.49996 7.50002V12.5C7.49996 12.7361 7.57982 12.934 7.73954 13.0938C7.89926 13.2535 8.09718 13.3334 8.33329 13.3334ZM11.6666 13.3334C11.9027 13.3334 12.1007 13.2535 12.2604 13.0938C12.4201 12.934 12.5 12.7361 12.5 12.5V7.50002C12.5 7.26391 12.4201 7.06599 12.2604 6.90627C12.1007 6.74655 11.9027 6.66669 11.6666 6.66669C11.4305 6.66669 11.2326 6.74655 11.0729 6.90627C10.9132 7.06599 10.8333 7.26391 10.8333 7.50002V12.5C10.8333 12.7361 10.9132 12.934 11.0729 13.0938C11.2326 13.2535 11.4305 13.3334 11.6666 13.3334ZM9.99996 18.3334C8.84718 18.3334 7.76385 18.1146 6.74996 17.6771C5.73607 17.2396 4.85413 16.6459 4.10413 15.8959C3.35413 15.1459 2.76038 14.2639 2.32288 13.25C1.88538 12.2361 1.66663 11.1528 1.66663 10C1.66663 8.84724 1.88538 7.76391 2.32288 6.75002C2.76038 5.73613 3.35413 4.85419 4.10413 4.10419C4.85413 3.35419 5.73607 2.76044 6.74996 2.32294C7.76385 1.88544 8.84718 1.66669 9.99996 1.66669C11.1527 1.66669 12.2361 1.88544 13.25 2.32294C14.2638 2.76044 15.1458 3.35419 15.8958 4.10419C16.6458 4.85419 17.2395 5.73613 17.677 6.75002C18.1145 7.76391 18.3333 8.84724 18.3333 10C18.3333 11.1528 18.1145 12.2361 17.677 13.25C17.2395 14.2639 16.6458 15.1459 15.8958 15.8959C15.1458 16.6459 14.2638 17.2396 13.25 17.6771C12.2361 18.1146 11.1527 18.3334 9.99996 18.3334Z" fill="currentColor"/>
</svg>