<svg viewBox="0 0 20 20" fill="none" xmlns="http://www.w3.org/2000/svg">
<path d="M8.3335 19.1666C8.3335 18.7083 8.49669 18.316 8.82308 17.9896C9.14947 17.6632 9.54183 17.5 10.0002 17.5V13.1666C9.8335 13.0972 9.67725 13.0173 9.53141 12.9271C9.38558 12.8368 9.25016 12.7361 9.12516 12.625L7.29183 13.7916C7.09739 13.9028 6.88558 13.9757 6.65641 14.0104C6.42725 14.0451 6.19461 14.0278 5.9585 13.9583L2.2085 12.8958C1.80572 12.7847 1.47586 12.559 1.21891 12.2187C0.961968 11.8785 0.833496 11.493 0.833496 11.0625C0.833496 10.5347 1.01752 10.0868 1.38558 9.71873C1.75363 9.35068 2.20155 9.16665 2.72933 9.16665H9.00016C9.13905 9.01387 9.29183 8.88193 9.4585 8.77081C9.62516 8.6597 9.80572 8.56943 10.0002 8.49998V5.64581C10.0002 5.4097 10.0453 5.18748 10.1356 4.97915C10.2259 4.77081 10.3543 4.59026 10.521 4.43748L13.3752 1.77081C13.6946 1.46526 14.0661 1.29165 14.4897 1.24998C14.9134 1.20831 15.3057 1.29859 15.6668 1.52081C16.1113 1.79859 16.3995 2.19095 16.5314 2.6979C16.6634 3.20484 16.5904 3.68054 16.3127 4.12498L13.0002 9.60415C13.0974 9.77081 13.1703 9.95137 13.2189 10.1458C13.2675 10.3403 13.2988 10.5416 13.3127 10.75L15.5627 11.2916C15.7849 11.3472 15.9863 11.4444 16.1668 11.5833C16.3474 11.7222 16.4932 11.8889 16.6043 12.0833L18.5002 15.5C18.7085 15.875 18.7849 16.2708 18.7293 16.6875C18.6738 17.1041 18.4932 17.4653 18.1877 17.7708C17.8127 18.1458 17.3647 18.3333 16.8439 18.3333C16.3231 18.3333 15.8752 18.1458 15.5002 17.7708L11.6668 13.9375V17.5C12.1252 17.5 12.5175 17.6632 12.8439 17.9896C13.1703 18.316 13.3335 18.7083 13.3335 19.1666H8.3335ZM4.16683 4.16665C3.93072 4.16665 3.7328 4.08679 3.57308 3.92706C3.41336 3.76734 3.3335 3.56943 3.3335 3.33331C3.3335 3.0972 3.41336 2.89929 3.57308 2.73956C3.7328 2.57984 3.93072 2.49998 4.16683 2.49998H7.50016C7.73627 2.49998 7.93419 2.57984 8.09391 2.73956C8.25364 2.89929 8.3335 3.0972 8.3335 3.33331C8.3335 3.56943 8.25364 3.76734 8.09391 3.92706C7.93419 4.08679 7.73627 4.16665 7.50016 4.16665H4.16683ZM11.6668 5.64581V8.49998C11.6807 8.49998 11.6911 8.50345 11.6981 8.5104C11.705 8.51734 11.7154 8.52081 11.7293 8.52081L14.896 3.24998C14.9238 3.19443 14.9307 3.1354 14.9168 3.0729C14.9029 3.0104 14.8682 2.96526 14.8127 2.93748C14.771 2.9097 14.7189 2.90276 14.6564 2.91665C14.5939 2.93054 14.5488 2.95137 14.521 2.97915L11.6668 5.64581ZM1.66683 7.49998C1.43072 7.49998 1.2328 7.42012 1.07308 7.2604C0.913357 7.10068 0.833496 6.90276 0.833496 6.66665C0.833496 6.43054 0.913357 6.23262 1.07308 6.0729C1.2328 5.91318 1.43072 5.83331 1.66683 5.83331H4.16683C4.40294 5.83331 4.60086 5.91318 4.76058 6.0729C4.9203 6.23262 5.00016 6.43054 5.00016 6.66665C5.00016 6.90276 4.9203 7.10068 4.76058 7.2604C4.60086 7.42012 4.40294 7.49998 4.16683 7.49998H1.66683ZM10.8335 11.6666C11.0696 11.6666 11.2675 11.5868 11.4272 11.4271C11.587 11.2673 11.6668 11.0694 11.6668 10.8333C11.6668 10.5972 11.587 10.3993 11.4272 10.2396C11.2675 10.0798 11.0696 9.99998 10.8335 9.99998C10.5974 9.99998 10.3995 10.0798 10.2397 10.2396C10.08 10.3993 10.0002 10.5972 10.0002 10.8333C10.0002 11.0694 10.08 11.2673 10.2397 11.4271C10.3995 11.5868 10.5974 11.6666 10.8335 11.6666ZM6.43766 12.375L8.37516 11.2083C8.36127 11.1389 8.35433 11.0764 8.35433 11.0208V10.8333H2.72933C2.65989 10.8333 2.60433 10.8541 2.56266 10.8958C2.521 10.9375 2.50016 10.993 2.50016 11.0625C2.50016 11.118 2.51405 11.1666 2.54183 11.2083C2.56961 11.25 2.61127 11.2778 2.66683 11.2916L6.43766 12.375ZM15.1668 12.8958L12.7918 12.3541C12.7641 12.3819 12.7363 12.4166 12.7085 12.4583C12.6807 12.5 12.6529 12.5347 12.6252 12.5625L16.6877 16.6041C16.7293 16.6458 16.7849 16.6666 16.8543 16.6666C16.9238 16.6666 16.9793 16.6458 17.021 16.6041C17.0627 16.5625 17.087 16.5173 17.0939 16.4687C17.1009 16.4201 17.0904 16.368 17.0627 16.3125L15.1668 12.8958ZM3.3335 17.5C3.09739 17.5 2.89947 17.4201 2.73975 17.2604C2.58002 17.1007 2.50016 16.9028 2.50016 16.6666C2.50016 16.4305 2.58002 16.2326 2.73975 16.0729C2.89947 15.9132 3.09739 15.8333 3.3335 15.8333H5.8335C6.06961 15.8333 6.26752 15.9132 6.42725 16.0729C6.58697 16.2326 6.66683 16.4305 6.66683 16.6666C6.66683 16.9028 6.58697 17.1007 6.42725 17.2604C6.26752 17.4201 6.06961 17.5 5.8335 17.5H3.3335Z" fill="currentColor"/>
</svg>