<svg viewBox="0 0 20 20" fill="none" xmlns="http://www.w3.org/2000/svg">
<path d="M4.16668 18.3333C3.93057 18.3333 3.73265 18.2534 3.57293 18.0937C3.4132 17.934 3.33334 17.7361 3.33334 17.5C3.33334 17.2638 3.4132 17.0659 3.57293 16.9062C3.73265 16.7465 3.93057 16.6666 4.16668 16.6666H5.00001V14.1666C5.00001 13.3194 5.19793 12.5243 5.59376 11.7812C5.98959 11.0382 6.54168 10.4444 7.25001 9.99996C6.54168 9.55551 5.98959 8.96176 5.59376 8.21871C5.19793 7.47565 5.00001 6.68051 5.00001 5.83329V3.33329H4.16668C3.93057 3.33329 3.73265 3.25343 3.57293 3.09371C3.4132 2.93399 3.33334 2.73607 3.33334 2.49996C3.33334 2.26385 3.4132 2.06593 3.57293 1.90621C3.73265 1.74649 3.93057 1.66663 4.16668 1.66663H15.8333C16.0695 1.66663 16.2674 1.74649 16.4271 1.90621C16.5868 2.06593 16.6667 2.26385 16.6667 2.49996C16.6667 2.73607 16.5868 2.93399 16.4271 3.09371C16.2674 3.25343 16.0695 3.33329 15.8333 3.33329H15V5.83329C15 6.68051 14.8021 7.47565 14.4063 8.21871C14.0104 8.96176 13.4583 9.55551 12.75 9.99996C13.4583 10.4444 14.0104 11.0382 14.4063 11.7812C14.8021 12.5243 15 13.3194 15 14.1666V16.6666H15.8333C16.0695 16.6666 16.2674 16.7465 16.4271 16.9062C16.5868 17.0659 16.6667 17.2638 16.6667 17.5C16.6667 17.7361 16.5868 17.934 16.4271 18.0937C16.2674 18.2534 16.0695 18.3333 15.8333 18.3333H4.16668Z" fill="currentColor"/>
</svg>