<svg width="1159" height="159" viewBox="0 0 1159 159" fill="none" xmlns="http://www.w3.org/2000/svg">
<g clip-path="url(#clip0_353_46396)">
<rect width="579.5" height="61" fill="white"/>
<path d="M22.34 37.18C21.7267 37.18 21.1267 37.1333 20.54 37.04C19.9533 36.9467 19.4 36.8067 18.88 36.62C18.36 36.42 17.8933 36.18 17.48 35.9C17.28 35.7533 17.14 35.5867 17.06 35.4C16.9933 35.2133 16.9733 35.0333 17 34.86C17.04 34.6733 17.12 34.5133 17.24 34.38C17.36 34.2467 17.5067 34.1667 17.68 34.14C17.8533 34.1 18.0467 34.1533 18.26 34.3C18.86 34.6867 19.4933 34.9733 20.16 35.16C20.8267 35.3333 21.5533 35.42 22.34 35.42C23.4733 35.42 24.3067 35.22 24.84 34.82C25.3867 34.4067 25.66 33.8733 25.66 33.22C25.66 32.6867 25.4667 32.2667 25.08 31.96C24.6933 31.64 24.0467 31.3867 23.14 31.2L21 30.76C19.7333 30.4933 18.7867 30.0533 18.16 29.44C17.5467 28.8267 17.24 28 17.24 26.96C17.24 26.3333 17.3667 25.76 17.62 25.24C17.8867 24.72 18.2533 24.2733 18.72 23.9C19.1867 23.5133 19.7467 23.22 20.4 23.02C21.0533 22.82 21.7667 22.72 22.54 22.72C23.3667 22.72 24.14 22.8267 24.86 23.04C25.5933 23.2533 26.2467 23.58 26.82 24.02C26.9933 24.14 27.1067 24.2933 27.16 24.48C27.2267 24.6533 27.24 24.8267 27.2 25C27.1733 25.1733 27.1 25.32 26.98 25.44C26.86 25.56 26.7067 25.6333 26.52 25.66C26.3333 25.6733 26.1267 25.6067 25.9 25.46C25.38 25.1133 24.8467 24.8667 24.3 24.72C23.7667 24.56 23.1733 24.48 22.52 24.48C21.8667 24.48 21.2933 24.58 20.8 24.78C20.32 24.98 19.9467 25.26 19.68 25.62C19.4267 25.98 19.3 26.4067 19.3 26.9C19.3 27.46 19.48 27.9067 19.84 28.24C20.2 28.5733 20.8 28.8267 21.64 29L23.76 29.44C25.0933 29.72 26.0867 30.1533 26.74 30.74C27.3933 31.3267 27.72 32.1067 27.72 33.08C27.72 33.7067 27.5933 34.2733 27.34 34.78C27.0867 35.2733 26.7267 35.7 26.26 36.06C25.7933 36.42 25.2267 36.7 24.56 36.9C23.9067 37.0867 23.1667 37.18 22.34 37.18ZM33.4628 37.18C32.6628 37.18 31.9895 37.04 31.4428 36.76C30.8961 36.48 30.4895 36.0667 30.2228 35.52C29.9561 34.9733 29.8228 34.3067 29.8228 33.52V28.8H28.6228C28.3561 28.8 28.1495 28.7333 28.0028 28.6C27.8561 28.4533 27.7828 28.26 27.7828 28.02C27.7828 27.7667 27.8561 27.5733 28.0028 27.44C28.1495 27.3067 28.3561 27.24 28.6228 27.24H29.8228V25.18C29.8228 24.8467 29.9095 24.5933 30.0828 24.42C30.2695 24.2467 30.5228 24.16 30.8428 24.16C31.1628 24.16 31.4095 24.2467 31.5828 24.42C31.7561 24.5933 31.8428 24.8467 31.8428 25.18V27.24H34.1828C34.4495 27.24 34.6561 27.3067 34.8028 27.44C34.9495 27.5733 35.0228 27.7667 35.0228 28.02C35.0228 28.26 34.9495 28.4533 34.8028 28.6C34.6561 28.7333 34.4495 28.8 34.1828 28.8H31.8428V33.36C31.8428 34.0667 31.9895 34.6 32.2828 34.96C32.5895 35.32 33.0828 35.5 33.7628 35.5C34.0028 35.5 34.2095 35.48 34.3828 35.44C34.5695 35.3867 34.7228 35.3533 34.8428 35.34C34.9895 35.34 35.1095 35.3933 35.2028 35.5C35.2961 35.5933 35.3428 35.78 35.3428 36.06C35.3428 36.26 35.3028 36.4467 35.2228 36.62C35.1561 36.7933 35.0295 36.9067 34.8428 36.96C34.6828 37.0133 34.4628 37.06 34.1828 37.1C33.9161 37.1533 33.6761 37.18 33.4628 37.18ZM39.2275 37.18C38.5475 37.18 37.9342 37.0467 37.3875 36.78C36.8542 36.5133 36.4342 36.1533 36.1275 35.7C35.8208 35.2467 35.6675 34.7333 35.6675 34.16C35.6675 33.44 35.8475 32.8733 36.2075 32.46C36.5808 32.0333 37.1875 31.7333 38.0275 31.56C38.8808 31.3733 40.0275 31.28 41.4675 31.28H42.4075V32.52H41.4875C40.5275 32.52 39.7675 32.5667 39.2075 32.66C38.6475 32.7533 38.2475 32.9133 38.0075 33.14C37.7808 33.3533 37.6675 33.6533 37.6675 34.04C37.6675 34.5467 37.8408 34.96 38.1875 35.28C38.5342 35.5867 39.0142 35.74 39.6275 35.74C40.1208 35.74 40.5542 35.6267 40.9275 35.4C41.3008 35.16 41.5942 34.84 41.8075 34.44C42.0342 34.04 42.1475 33.58 42.1475 33.06V30.76C42.1475 30 41.9875 29.4533 41.6675 29.12C41.3475 28.7867 40.8208 28.62 40.0875 28.62C39.6608 28.62 39.2142 28.6733 38.7475 28.78C38.2942 28.8867 37.8208 29.0667 37.3275 29.32C37.1008 29.4267 36.9075 29.46 36.7475 29.42C36.5875 29.38 36.4608 29.2933 36.3675 29.16C36.2742 29.0133 36.2208 28.86 36.2075 28.7C36.2075 28.5267 36.2475 28.36 36.3275 28.2C36.4208 28.04 36.5742 27.92 36.7875 27.84C37.3742 27.56 37.9542 27.36 38.5275 27.24C39.1008 27.12 39.6408 27.06 40.1475 27.06C41.0408 27.06 41.7742 27.2 42.3475 27.48C42.9342 27.76 43.3675 28.1867 43.6475 28.76C43.9275 29.3333 44.0675 30.0733 44.0675 30.98V36.12C44.0675 36.44 43.9875 36.6933 43.8275 36.88C43.6675 37.0533 43.4342 37.14 43.1275 37.14C42.8342 37.14 42.6008 37.0533 42.4275 36.88C42.2542 36.6933 42.1675 36.44 42.1675 36.12V34.82H42.3475C42.2408 35.3133 42.0408 35.74 41.7475 36.1C41.4675 36.4467 41.1142 36.7133 40.6875 36.9C40.2608 37.0867 39.7742 37.18 39.2275 37.18ZM50.5097 37.18C49.7097 37.18 49.0364 37.04 48.4897 36.76C47.943 36.48 47.5364 36.0667 47.2697 35.52C47.003 34.9733 46.8697 34.3067 46.8697 33.52V28.8H45.6697C45.403 28.8 45.1964 28.7333 45.0497 28.6C44.903 28.4533 44.8297 28.26 44.8297 28.02C44.8297 27.7667 44.903 27.5733 45.0497 27.44C45.1964 27.3067 45.403 27.24 45.6697 27.24H46.8697V25.18C46.8697 24.8467 46.9564 24.5933 47.1297 24.42C47.3164 24.2467 47.5697 24.16 47.8897 24.16C48.2097 24.16 48.4564 24.2467 48.6297 24.42C48.803 24.5933 48.8897 24.8467 48.8897 25.18V27.24H51.2297C51.4964 27.24 51.703 27.3067 51.8497 27.44C51.9964 27.5733 52.0697 27.7667 52.0697 28.02C52.0697 28.26 51.9964 28.4533 51.8497 28.6C51.703 28.7333 51.4964 28.8 51.2297 28.8H48.8897V33.36C48.8897 34.0667 49.0364 34.6 49.3297 34.96C49.6364 35.32 50.1297 35.5 50.8097 35.5C51.0497 35.5 51.2564 35.48 51.4297 35.44C51.6164 35.3867 51.7697 35.3533 51.8897 35.34C52.0364 35.34 52.1564 35.3933 52.2497 35.5C52.343 35.5933 52.3897 35.78 52.3897 36.06C52.3897 36.26 52.3497 36.4467 52.2697 36.62C52.203 36.7933 52.0764 36.9067 51.8897 36.96C51.7297 37.0133 51.5097 37.06 51.2297 37.1C50.963 37.1533 50.723 37.18 50.5097 37.18ZM57.6367 37.18C56.5701 37.18 55.6501 36.98 54.8767 36.58C54.1167 36.1667 53.5234 35.5867 53.0967 34.84C52.6834 34.08 52.4767 33.18 52.4767 32.14C52.4767 31.1267 52.6834 30.24 53.0967 29.48C53.5101 28.72 54.0767 28.1267 54.7967 27.7C55.5167 27.2733 56.3367 27.06 57.2567 27.06C57.9367 27.06 58.5434 27.1733 59.0767 27.4C59.6101 27.6133 60.0634 27.9333 60.4367 28.36C60.8234 28.7733 61.1101 29.28 61.2967 29.88C61.4967 30.48 61.5967 31.1533 61.5967 31.9C61.5967 32.1267 61.5301 32.3 61.3967 32.42C61.2634 32.5267 61.0634 32.58 60.7967 32.58H54.0767V31.34H60.2367L59.8967 31.62C59.8967 30.9533 59.7967 30.3867 59.5967 29.92C59.4101 29.4533 59.1234 29.1 58.7367 28.86C58.3634 28.6067 57.8967 28.48 57.3367 28.48C56.7101 28.48 56.1767 28.6267 55.7367 28.92C55.3101 29.2133 54.9834 29.62 54.7567 30.14C54.5301 30.66 54.4167 31.2667 54.4167 31.96V32.08C54.4167 33.2533 54.6901 34.14 55.2367 34.74C55.7967 35.3267 56.6034 35.62 57.6567 35.62C58.0567 35.62 58.4767 35.5667 58.9167 35.46C59.3701 35.3533 59.7967 35.1733 60.1967 34.92C60.4234 34.7867 60.6234 34.7267 60.7967 34.74C60.9834 34.7533 61.1301 34.8133 61.2367 34.92C61.3567 35.0267 61.4301 35.16 61.4567 35.32C61.4834 35.48 61.4567 35.6467 61.3767 35.82C61.2967 35.98 61.1567 36.1267 60.9567 36.26C60.5034 36.5667 59.9767 36.8 59.3767 36.96C58.7767 37.1067 58.1967 37.18 57.6367 37.18Z" fill="#201F1F"/>
<path d="M0 60.5H579.5" stroke="#CDCCCB"/>
<rect width="579.5" height="49" transform="translate(0 61)" fill="white"/>
<path d="M17.1719 91V79.5469H19.4844V84.0547H24.0156V79.5469H26.3281V91H24.0156V85.9922H19.4844V91H17.1719ZM28.2031 86.7344C28.2031 86.0052 28.3828 85.2995 28.7422 84.6172C29.1016 83.9349 29.6094 83.4141 30.2656 83.0547C30.9271 82.6953 31.6641 82.5156 32.4766 82.5156C33.7318 82.5156 34.7604 82.9245 35.5625 83.7422C36.3646 84.5547 36.7656 85.5833 36.7656 86.8281C36.7656 88.0833 36.3594 89.125 35.5469 89.9531C34.7396 90.776 33.7214 91.1875 32.4922 91.1875C31.7318 91.1875 31.0052 91.0156 30.3125 90.6719C29.625 90.3281 29.1016 89.8255 28.7422 89.1641C28.3828 88.4974 28.2031 87.6875 28.2031 86.7344ZM30.4531 86.8516C30.4531 87.6745 30.6484 88.3047 31.0391 88.7422C31.4297 89.1797 31.9115 89.3984 32.4844 89.3984C33.0573 89.3984 33.5365 89.1797 33.9219 88.7422C34.3125 88.3047 34.5078 87.6693 34.5078 86.8359C34.5078 86.0234 34.3125 85.3984 33.9219 84.9609C33.5365 84.5234 33.0573 84.3047 32.4844 84.3047C31.9115 84.3047 31.4297 84.5234 31.0391 84.9609C30.6484 85.3984 30.4531 86.0286 30.4531 86.8516ZM40.5938 91H38.3984V82.7031H40.4375V83.8828C40.7865 83.3255 41.099 82.9583 41.375 82.7812C41.6562 82.6042 41.974 82.5156 42.3281 82.5156C42.8281 82.5156 43.3099 82.6536 43.7734 82.9297L43.0938 84.8438C42.724 84.6042 42.3802 84.4844 42.0625 84.4844C41.7552 84.4844 41.4948 84.5703 41.2812 84.7422C41.0677 84.9089 40.8984 85.2135 40.7734 85.6562C40.6536 86.099 40.5938 87.026 40.5938 88.4375V91ZM44.7266 81.5781V79.5469H46.9219V81.5781H44.7266ZM44.7266 91V82.7031H46.9219V91H44.7266ZM48.2969 91V89.2891L51.4062 85.7188C51.9167 85.1354 52.2943 84.7214 52.5391 84.4766C52.2839 84.4922 51.9479 84.5026 51.5312 84.5078L48.6016 84.5234V82.7031H55.4609V84.2578L52.2891 87.9141L51.1719 89.125C51.7812 89.0885 52.1589 89.0703 52.3047 89.0703H55.7031V91H48.2969ZM56.6719 86.7344C56.6719 86.0052 56.8516 85.2995 57.2109 84.6172C57.5703 83.9349 58.0781 83.4141 58.7344 83.0547C59.3958 82.6953 60.1328 82.5156 60.9453 82.5156C62.2005 82.5156 63.2292 82.9245 64.0312 83.7422C64.8333 84.5547 65.2344 85.5833 65.2344 86.8281C65.2344 88.0833 64.8281 89.125 64.0156 89.9531C63.2083 90.776 62.1901 91.1875 60.9609 91.1875C60.2005 91.1875 59.474 91.0156 58.7812 90.6719C58.0938 90.3281 57.5703 89.8255 57.2109 89.1641C56.8516 88.4974 56.6719 87.6875 56.6719 86.7344ZM58.9219 86.8516C58.9219 87.6745 59.1172 88.3047 59.5078 88.7422C59.8984 89.1797 60.3802 89.3984 60.9531 89.3984C61.526 89.3984 62.0052 89.1797 62.3906 88.7422C62.7812 88.3047 62.9766 87.6693 62.9766 86.8359C62.9766 86.0234 62.7812 85.3984 62.3906 84.9609C62.0052 84.5234 61.526 84.3047 60.9531 84.3047C60.3802 84.3047 59.8984 84.5234 59.5078 84.9609C59.1172 85.3984 58.9219 86.0286 58.9219 86.8516ZM74.5078 91H72.3125V86.7656C72.3125 85.8698 72.2656 85.2917 72.1719 85.0312C72.0781 84.7656 71.9245 84.5599 71.7109 84.4141C71.5026 84.2682 71.25 84.1953 70.9531 84.1953C70.5729 84.1953 70.2318 84.2995 69.9297 84.5078C69.6276 84.7161 69.4193 84.9922 69.3047 85.3359C69.1953 85.6797 69.1406 86.3151 69.1406 87.2422V91H66.9453V82.7031H68.9844V83.9219C69.7083 82.9844 70.6198 82.5156 71.7188 82.5156C72.2031 82.5156 72.6458 82.6042 73.0469 82.7812C73.4479 82.9531 73.75 83.1745 73.9531 83.4453C74.1615 83.7161 74.3047 84.0234 74.3828 84.3672C74.4661 84.7109 74.5078 85.2031 74.5078 85.8438V91ZM80.5469 82.7031V84.4531H79.0469V87.7969C79.0469 88.474 79.0599 88.8698 79.0859 88.9844C79.1172 89.0938 79.1823 89.1849 79.2812 89.2578C79.3854 89.3307 79.5104 89.3672 79.6562 89.3672C79.8594 89.3672 80.1536 89.2969 80.5391 89.1562L80.7266 90.8594C80.2161 91.0781 79.638 91.1875 78.9922 91.1875C78.5964 91.1875 78.2396 91.1224 77.9219 90.9922C77.6042 90.8568 77.3698 90.6849 77.2188 90.4766C77.0729 90.263 76.9714 89.9766 76.9141 89.6172C76.8672 89.362 76.8438 88.8464 76.8438 88.0703V84.4531H75.8359V82.7031H76.8438V81.0547L79.0469 79.7734V82.7031H80.5469ZM83.7109 85.2344L81.7188 84.875C81.9427 84.0729 82.3281 83.4792 82.875 83.0938C83.4219 82.7083 84.2344 82.5156 85.3125 82.5156C86.2917 82.5156 87.0208 82.6328 87.5 82.8672C87.9792 83.0964 88.3151 83.3906 88.5078 83.75C88.7057 84.1042 88.8047 84.7578 88.8047 85.7109L88.7812 88.2734C88.7812 89.0026 88.8151 89.5417 88.8828 89.8906C88.9557 90.2344 89.0885 90.6042 89.2812 91H87.1094C87.0521 90.8542 86.9818 90.638 86.8984 90.3516C86.862 90.2214 86.8359 90.1354 86.8203 90.0938C86.4453 90.4583 86.0443 90.7318 85.6172 90.9141C85.1901 91.0964 84.7344 91.1875 84.25 91.1875C83.3958 91.1875 82.7214 90.9557 82.2266 90.4922C81.737 90.0286 81.4922 89.4427 81.4922 88.7344C81.4922 88.2656 81.6042 87.849 81.8281 87.4844C82.0521 87.1146 82.3646 86.8333 82.7656 86.6406C83.1719 86.4427 83.7552 86.2708 84.5156 86.125C85.5417 85.9323 86.2526 85.7526 86.6484 85.5859V85.3672C86.6484 84.9453 86.5443 84.6458 86.3359 84.4688C86.1276 84.2865 85.7344 84.1953 85.1562 84.1953C84.7656 84.1953 84.4609 84.2734 84.2422 84.4297C84.0234 84.5807 83.8464 84.849 83.7109 85.2344ZM86.6484 87.0156C86.3672 87.1094 85.9219 87.2214 85.3125 87.3516C84.7031 87.4818 84.3047 87.6094 84.1172 87.7344C83.8307 87.9375 83.6875 88.1953 83.6875 88.5078C83.6875 88.8151 83.8021 89.0807 84.0312 89.3047C84.2604 89.5286 84.5521 89.6406 84.9062 89.6406C85.3021 89.6406 85.6797 89.5104 86.0391 89.25C86.3047 89.0521 86.4792 88.8099 86.5625 88.5234C86.6198 88.3359 86.6484 87.9792 86.6484 87.4531V87.0156ZM90.9766 91V79.5469H93.1719V91H90.9766Z" fill="#3E3E3D"/>
<g opacity="0.5">
<path d="M0 109.5H579.5" stroke="#CDCCCB"/>
</g>
<rect width="579.5" height="48" transform="translate(0 110)" fill="white"/>
<path d="M20.0859 140L15.9922 128.547H18.5L21.3984 137.023L24.2031 128.547H26.6562L22.5547 140H20.0859ZM31.7344 137.359L33.9219 137.727C33.6406 138.529 33.1953 139.141 32.5859 139.562C31.9818 139.979 31.224 140.188 30.3125 140.188C28.8698 140.188 27.8021 139.716 27.1094 138.773C26.5625 138.018 26.2891 137.065 26.2891 135.914C26.2891 134.539 26.6484 133.464 27.3672 132.688C28.0859 131.906 28.9948 131.516 30.0938 131.516C31.3281 131.516 32.3021 131.924 33.0156 132.742C33.7292 133.555 34.0703 134.802 34.0391 136.484H28.5391C28.5547 137.135 28.7318 137.643 29.0703 138.008C29.4089 138.367 29.8307 138.547 30.3359 138.547C30.6797 138.547 30.9688 138.453 31.2031 138.266C31.4375 138.078 31.6146 137.776 31.7344 137.359ZM31.8594 135.141C31.8438 134.505 31.6797 134.023 31.3672 133.695C31.0547 133.362 30.6745 133.195 30.2266 133.195C29.7474 133.195 29.3516 133.37 29.0391 133.719C28.7266 134.068 28.5729 134.542 28.5781 135.141H31.8594ZM37.9375 140H35.7422V131.703H37.7812V132.883C38.1302 132.326 38.4427 131.958 38.7188 131.781C39 131.604 39.3177 131.516 39.6719 131.516C40.1719 131.516 40.6536 131.654 41.1172 131.93L40.4375 133.844C40.0677 133.604 39.724 133.484 39.4062 133.484C39.099 133.484 38.8385 133.57 38.625 133.742C38.4115 133.909 38.2422 134.214 38.1172 134.656C37.9974 135.099 37.9375 136.026 37.9375 137.438V140ZM45.875 131.703V133.453H44.375V136.797C44.375 137.474 44.388 137.87 44.4141 137.984C44.4453 138.094 44.5104 138.185 44.6094 138.258C44.7135 138.331 44.8385 138.367 44.9844 138.367C45.1875 138.367 45.4818 138.297 45.8672 138.156L46.0547 139.859C45.5443 140.078 44.9661 140.188 44.3203 140.188C43.9245 140.188 43.5677 140.122 43.25 139.992C42.9323 139.857 42.6979 139.685 42.5469 139.477C42.401 139.263 42.2995 138.977 42.2422 138.617C42.1953 138.362 42.1719 137.846 42.1719 137.07V133.453H41.1641V131.703H42.1719V130.055L44.375 128.773V131.703H45.875ZM47.3984 130.578V128.547H49.5938V130.578H47.3984ZM47.3984 140V131.703H49.5938V140H47.3984ZM59.0859 134.156L56.9219 134.547C56.849 134.115 56.6823 133.789 56.4219 133.57C56.1667 133.352 55.8333 133.242 55.4219 133.242C54.875 133.242 54.4375 133.432 54.1094 133.812C53.7865 134.188 53.625 134.818 53.625 135.703C53.625 136.688 53.7891 137.383 54.1172 137.789C54.4505 138.195 54.8958 138.398 55.4531 138.398C55.8698 138.398 56.2109 138.281 56.4766 138.047C56.7422 137.807 56.9297 137.398 57.0391 136.82L59.1953 137.188C58.9714 138.177 58.5417 138.924 57.9062 139.43C57.2708 139.935 56.4193 140.188 55.3516 140.188C54.138 140.188 53.1693 139.805 52.4453 139.039C51.7266 138.273 51.3672 137.214 51.3672 135.859C51.3672 134.49 51.7292 133.424 52.4531 132.664C53.1771 131.898 54.1562 131.516 55.3906 131.516C56.401 131.516 57.2031 131.734 57.7969 132.172C58.3958 132.604 58.8255 133.266 59.0859 134.156ZM62.3984 134.234L60.4062 133.875C60.6302 133.073 61.0156 132.479 61.5625 132.094C62.1094 131.708 62.9219 131.516 64 131.516C64.9792 131.516 65.7083 131.633 66.1875 131.867C66.6667 132.096 67.0026 132.391 67.1953 132.75C67.3932 133.104 67.4922 133.758 67.4922 134.711L67.4688 137.273C67.4688 138.003 67.5026 138.542 67.5703 138.891C67.6432 139.234 67.776 139.604 67.9688 140H65.7969C65.7396 139.854 65.6693 139.638 65.5859 139.352C65.5495 139.221 65.5234 139.135 65.5078 139.094C65.1328 139.458 64.7318 139.732 64.3047 139.914C63.8776 140.096 63.4219 140.188 62.9375 140.188C62.0833 140.188 61.4089 139.956 60.9141 139.492C60.4245 139.029 60.1797 138.443 60.1797 137.734C60.1797 137.266 60.2917 136.849 60.5156 136.484C60.7396 136.115 61.0521 135.833 61.4531 135.641C61.8594 135.443 62.4427 135.271 63.2031 135.125C64.2292 134.932 64.9401 134.753 65.3359 134.586V134.367C65.3359 133.945 65.2318 133.646 65.0234 133.469C64.8151 133.286 64.4219 133.195 63.8438 133.195C63.4531 133.195 63.1484 133.273 62.9297 133.43C62.7109 133.581 62.5339 133.849 62.3984 134.234ZM65.3359 136.016C65.0547 136.109 64.6094 136.221 64 136.352C63.3906 136.482 62.9922 136.609 62.8047 136.734C62.5182 136.938 62.375 137.195 62.375 137.508C62.375 137.815 62.4896 138.081 62.7188 138.305C62.9479 138.529 63.2396 138.641 63.5938 138.641C63.9896 138.641 64.3672 138.51 64.7266 138.25C64.9922 138.052 65.1667 137.81 65.25 137.523C65.3073 137.336 65.3359 136.979 65.3359 136.453V136.016ZM69.6641 140V128.547H71.8594V140H69.6641Z" fill="#3E3E3D"/>
<rect width="579.5" height="61" transform="translate(579.5)" fill="white"/>
<path d="M598.18 37.14C597.847 37.14 597.587 37.0467 597.4 36.86C597.227 36.6733 597.14 36.4133 597.14 36.08V23.96C597.14 23.6133 597.233 23.3533 597.42 23.18C597.607 22.9933 597.867 22.9 598.2 22.9H602.98C604.5 22.9 605.673 23.28 606.5 24.04C607.327 24.7867 607.74 25.84 607.74 27.2C607.74 28.5733 607.327 29.64 606.5 30.4C605.673 31.1467 604.5 31.52 602.98 31.52H599.22V36.08C599.22 36.4133 599.133 36.6733 598.96 36.86C598.787 37.0467 598.527 37.14 598.18 37.14ZM599.22 29.86H602.68C603.68 29.86 604.433 29.64 604.94 29.2C605.46 28.7467 605.72 28.08 605.72 27.2C605.72 26.3333 605.46 25.68 604.94 25.24C604.433 24.7867 603.68 24.56 602.68 24.56H599.22V29.86ZM612.595 37.18C611.809 37.18 611.149 37.0333 610.615 36.74C610.095 36.4467 609.702 36.0133 609.435 35.44C609.182 34.8533 609.055 34.12 609.055 33.24V28.12C609.055 27.7733 609.142 27.52 609.315 27.36C609.489 27.1867 609.735 27.1 610.055 27.1C610.375 27.1 610.622 27.1867 610.795 27.36C610.982 27.52 611.075 27.7733 611.075 28.12V33.26C611.075 34.0467 611.235 34.6267 611.555 35C611.875 35.3733 612.382 35.56 613.075 35.56C613.835 35.56 614.449 35.3067 614.915 34.8C615.395 34.28 615.635 33.6 615.635 32.76V28.12C615.635 27.7733 615.722 27.52 615.895 27.36C616.069 27.1867 616.322 27.1 616.655 27.1C616.975 27.1 617.222 27.1867 617.395 27.36C617.569 27.52 617.655 27.7733 617.655 28.12V36.12C617.655 36.8 617.329 37.14 616.675 37.14C616.369 37.14 616.129 37.0533 615.955 36.88C615.782 36.6933 615.695 36.44 615.695 36.12V34.42L615.955 34.86C615.689 35.6067 615.262 36.18 614.675 36.58C614.089 36.98 613.395 37.18 612.595 37.18ZM621.022 37.14C620.689 37.14 620.435 37.0533 620.262 36.88C620.089 36.6933 620.002 36.44 620.002 36.12V28.12C620.002 27.7867 620.089 27.5333 620.262 27.36C620.435 27.1867 620.675 27.1 620.982 27.1C621.302 27.1 621.542 27.1867 621.702 27.36C621.875 27.5333 621.962 27.7867 621.962 28.12V29.58H621.762C621.975 28.78 622.369 28.1733 622.942 27.76C623.515 27.3467 624.249 27.1067 625.142 27.04C625.382 27.0267 625.569 27.0867 625.702 27.22C625.849 27.3533 625.929 27.56 625.942 27.84C625.969 28.12 625.909 28.3467 625.762 28.52C625.615 28.68 625.389 28.7733 625.082 28.8L624.702 28.84C623.835 28.92 623.175 29.1933 622.722 29.66C622.269 30.1267 622.042 30.7667 622.042 31.58V36.12C622.042 36.44 621.955 36.6933 621.782 36.88C621.622 37.0533 621.369 37.14 621.022 37.14ZM627.963 40.74C627.643 40.74 627.396 40.6533 627.223 40.48C627.05 40.3067 626.963 40.0533 626.963 39.72V28.12C626.963 27.7867 627.05 27.5333 627.223 27.36C627.396 27.1867 627.636 27.1 627.943 27.1C628.263 27.1 628.51 27.1867 628.683 27.36C628.856 27.5333 628.943 27.7867 628.943 28.12V29.86L628.723 29.44C628.936 28.72 629.356 28.1467 629.983 27.72C630.61 27.28 631.35 27.06 632.203 27.06C633.07 27.06 633.823 27.2667 634.463 27.68C635.116 28.0933 635.616 28.6733 635.963 29.42C636.323 30.1667 636.503 31.0667 636.503 32.12C636.503 33.1467 636.323 34.0467 635.963 34.82C635.616 35.58 635.123 36.1667 634.483 36.58C633.843 36.98 633.083 37.18 632.203 37.18C631.363 37.18 630.63 36.9667 630.003 36.54C629.376 36.1133 628.956 35.5467 628.743 34.84H628.983V39.72C628.983 40.0533 628.89 40.3067 628.703 40.48C628.53 40.6533 628.283 40.74 627.963 40.74ZM631.703 35.62C632.263 35.62 632.75 35.4867 633.163 35.22C633.576 34.9533 633.896 34.56 634.123 34.04C634.35 33.52 634.463 32.88 634.463 32.12C634.463 30.9733 634.21 30.1067 633.703 29.52C633.21 28.9333 632.543 28.64 631.703 28.64C631.156 28.64 630.67 28.7733 630.243 29.04C629.83 29.2933 629.51 29.68 629.283 30.2C629.056 30.72 628.943 31.36 628.943 32.12C628.943 33.2533 629.196 34.12 629.703 34.72C630.21 35.32 630.876 35.62 631.703 35.62ZM642.519 37.18C641.533 37.18 640.679 36.9733 639.959 36.56C639.253 36.1467 638.699 35.56 638.299 34.8C637.899 34.04 637.699 33.1467 637.699 32.12C637.699 31.3333 637.813 30.6333 638.039 30.02C638.266 29.4067 638.586 28.88 638.999 28.44C639.426 27.9867 639.933 27.6467 640.519 27.42C641.119 27.18 641.786 27.06 642.519 27.06C643.493 27.06 644.333 27.2667 645.039 27.68C645.759 28.0933 646.319 28.68 646.719 29.44C647.119 30.1867 647.319 31.08 647.319 32.12C647.319 32.8933 647.206 33.5933 646.979 34.22C646.753 34.8467 646.426 35.38 645.999 35.82C645.586 36.26 645.079 36.6 644.479 36.84C643.893 37.0667 643.239 37.18 642.519 37.18ZM642.519 35.62C643.066 35.62 643.546 35.4867 643.959 35.22C644.373 34.9533 644.693 34.56 644.919 34.04C645.159 33.52 645.279 32.88 645.279 32.12C645.279 30.9733 645.026 30.1067 644.519 29.52C644.013 28.9333 643.346 28.64 642.519 28.64C641.959 28.64 641.473 28.7733 641.059 29.04C640.646 29.2933 640.319 29.68 640.079 30.2C639.853 30.72 639.739 31.36 639.739 32.12C639.739 33.2533 639.993 34.12 640.499 34.72C641.006 35.32 641.679 35.62 642.519 35.62ZM652.508 37.18C651.921 37.18 651.315 37.1133 650.688 36.98C650.075 36.8467 649.508 36.62 648.988 36.3C648.815 36.18 648.695 36.0467 648.628 35.9C648.561 35.7533 648.535 35.6067 648.548 35.46C648.575 35.3 648.635 35.1667 648.728 35.06C648.835 34.94 648.961 34.8667 649.108 34.84C649.268 34.8133 649.435 34.8467 649.608 34.94C650.128 35.2333 650.628 35.44 651.108 35.56C651.588 35.6667 652.061 35.72 652.528 35.72C653.235 35.72 653.768 35.5933 654.128 35.34C654.488 35.0867 654.668 34.7467 654.668 34.32C654.668 33.9733 654.548 33.7067 654.308 33.52C654.068 33.32 653.708 33.1667 653.228 33.06L651.328 32.68C650.501 32.5067 649.875 32.2 649.448 31.76C649.021 31.32 648.808 30.76 648.808 30.08C648.808 29.4667 648.975 28.9333 649.308 28.48C649.641 28.0267 650.108 27.68 650.708 27.44C651.308 27.1867 652.001 27.06 652.788 27.06C653.375 27.06 653.928 27.1333 654.448 27.28C654.968 27.4267 655.448 27.6467 655.888 27.94C656.061 28.0333 656.175 28.16 656.228 28.32C656.281 28.4667 656.288 28.6133 656.248 28.76C656.221 28.9067 656.155 29.04 656.048 29.16C655.941 29.2667 655.808 29.3333 655.648 29.36C655.501 29.3733 655.335 29.3333 655.148 29.24C654.748 28.9867 654.348 28.8067 653.948 28.7C653.561 28.5933 653.175 28.54 652.788 28.54C652.081 28.54 651.548 28.6733 651.188 28.94C650.841 29.1933 650.668 29.54 650.668 29.98C650.668 30.3133 650.775 30.5867 650.988 30.8C651.201 31.0133 651.535 31.1667 651.988 31.26L653.888 31.64C654.755 31.8133 655.408 32.1067 655.848 32.52C656.301 32.9333 656.528 33.4933 656.528 34.2C656.528 35.12 656.161 35.8467 655.428 36.38C654.695 36.9133 653.721 37.18 652.508 37.18ZM662.855 37.18C661.789 37.18 660.869 36.98 660.095 36.58C659.335 36.1667 658.742 35.5867 658.315 34.84C657.902 34.08 657.695 33.18 657.695 32.14C657.695 31.1267 657.902 30.24 658.315 29.48C658.729 28.72 659.295 28.1267 660.015 27.7C660.735 27.2733 661.555 27.06 662.475 27.06C663.155 27.06 663.762 27.1733 664.295 27.4C664.829 27.6133 665.282 27.9333 665.655 28.36C666.042 28.7733 666.329 29.28 666.515 29.88C666.715 30.48 666.815 31.1533 666.815 31.9C666.815 32.1267 666.749 32.3 666.615 32.42C666.482 32.5267 666.282 32.58 666.015 32.58H659.295V31.34H665.455L665.115 31.62C665.115 30.9533 665.015 30.3867 664.815 29.92C664.629 29.4533 664.342 29.1 663.955 28.86C663.582 28.6067 663.115 28.48 662.555 28.48C661.929 28.48 661.395 28.6267 660.955 28.92C660.529 29.2133 660.202 29.62 659.975 30.14C659.749 30.66 659.635 31.2667 659.635 31.96V32.08C659.635 33.2533 659.909 34.14 660.455 34.74C661.015 35.3267 661.822 35.62 662.875 35.62C663.275 35.62 663.695 35.5667 664.135 35.46C664.589 35.3533 665.015 35.1733 665.415 34.92C665.642 34.7867 665.842 34.7267 666.015 34.74C666.202 34.7533 666.349 34.8133 666.455 34.92C666.575 35.0267 666.649 35.16 666.675 35.32C666.702 35.48 666.675 35.6467 666.595 35.82C666.515 35.98 666.375 36.1267 666.175 36.26C665.722 36.5667 665.195 36.8 664.595 36.96C663.995 37.1067 663.415 37.18 662.855 37.18Z" fill="#201F1F"/>
<path d="M579.5 60.5H1159" stroke="#CDCCCB"/>
<rect width="579.5" height="49" transform="translate(579.5 61)" fill="white"/>
<path d="M596.672 91V79.5469H598.188V89.6484H603.828V91H596.672ZM605.469 81.1641V79.5469H606.875V81.1641H605.469ZM605.469 91V82.7031H606.875V91H605.469ZM608.766 91.6875L610.133 91.8906C610.19 92.3125 610.349 92.6198 610.609 92.8125C610.958 93.0729 611.435 93.2031 612.039 93.2031C612.69 93.2031 613.193 93.0729 613.547 92.8125C613.901 92.5521 614.141 92.1875 614.266 91.7188C614.339 91.4323 614.372 90.8307 614.367 89.9141C613.753 90.638 612.987 91 612.07 91C610.93 91 610.047 90.5885 609.422 89.7656C608.797 88.9427 608.484 87.9557 608.484 86.8047C608.484 86.013 608.628 85.2839 608.914 84.6172C609.201 83.9453 609.615 83.4271 610.156 83.0625C610.703 82.6979 611.344 82.5156 612.078 82.5156C613.057 82.5156 613.865 82.9115 614.5 83.7031V82.7031H615.797V89.875C615.797 91.1667 615.664 92.0807 615.398 92.6172C615.138 93.1589 614.721 93.5859 614.148 93.8984C613.581 94.2109 612.88 94.3672 612.047 94.3672C611.057 94.3672 610.258 94.1432 609.648 93.6953C609.039 93.2526 608.745 92.5833 608.766 91.6875ZM609.93 86.7031C609.93 87.7917 610.146 88.5859 610.578 89.0859C611.01 89.5859 611.552 89.8359 612.203 89.8359C612.849 89.8359 613.391 89.5885 613.828 89.0938C614.266 88.5938 614.484 87.8125 614.484 86.75C614.484 85.7344 614.258 84.9688 613.805 84.4531C613.357 83.9375 612.815 83.6797 612.18 83.6797C611.555 83.6797 611.023 83.9349 610.586 84.4453C610.148 84.9505 609.93 85.7031 609.93 86.7031ZM617.93 91V82.7031H619.195V83.8828C619.805 82.9714 620.685 82.5156 621.836 82.5156C622.336 82.5156 622.794 82.6068 623.211 82.7891C623.633 82.9661 623.948 83.2005 624.156 83.4922C624.365 83.7839 624.51 84.1302 624.594 84.5312C624.646 84.7917 624.672 85.2474 624.672 85.8984V91H623.266V85.9531C623.266 85.3802 623.211 84.9531 623.102 84.6719C622.992 84.3854 622.797 84.1589 622.516 83.9922C622.24 83.8203 621.914 83.7344 621.539 83.7344C620.94 83.7344 620.422 83.9245 619.984 84.3047C619.552 84.6849 619.336 85.4062 619.336 86.4688V91H617.93ZM632.516 88.3281L633.969 88.5078C633.74 89.3568 633.315 90.0156 632.695 90.4844C632.076 90.9531 631.284 91.1875 630.32 91.1875C629.107 91.1875 628.143 90.8151 627.43 90.0703C626.721 89.3203 626.367 88.2708 626.367 86.9219C626.367 85.526 626.727 84.4427 627.445 83.6719C628.164 82.901 629.096 82.5156 630.242 82.5156C631.352 82.5156 632.258 82.8932 632.961 83.6484C633.664 84.4036 634.016 85.4661 634.016 86.8359C634.016 86.9193 634.013 87.0443 634.008 87.2109H627.82C627.872 88.1224 628.13 88.8203 628.594 89.3047C629.057 89.7891 629.635 90.0312 630.328 90.0312C630.844 90.0312 631.284 89.8958 631.648 89.625C632.013 89.3542 632.302 88.9219 632.516 88.3281ZM627.898 86.0547H632.531C632.469 85.3568 632.292 84.8333 632 84.4844C631.552 83.9427 630.971 83.6719 630.258 83.6719C629.612 83.6719 629.068 83.888 628.625 84.3203C628.188 84.7526 627.945 85.3307 627.898 86.0547ZM645.578 91V89.9531C645.052 90.776 644.279 91.1875 643.258 91.1875C642.596 91.1875 641.987 91.0052 641.43 90.6406C640.878 90.276 640.448 89.7682 640.141 89.1172C639.839 88.4609 639.688 87.7083 639.688 86.8594C639.688 86.0312 639.826 85.2812 640.102 84.6094C640.378 83.9323 640.792 83.4141 641.344 83.0547C641.896 82.6953 642.513 82.5156 643.195 82.5156C643.695 82.5156 644.141 82.6224 644.531 82.8359C644.922 83.0443 645.24 83.3177 645.484 83.6562V79.5469H646.883V91H645.578ZM641.133 86.8594C641.133 87.9219 641.357 88.7161 641.805 89.2422C642.253 89.7682 642.781 90.0312 643.391 90.0312C644.005 90.0312 644.526 89.7812 644.953 89.2812C645.385 88.776 645.602 88.0078 645.602 86.9766C645.602 85.8411 645.383 85.0078 644.945 84.4766C644.508 83.9453 643.969 83.6797 643.328 83.6797C642.703 83.6797 642.18 83.9349 641.758 84.4453C641.341 84.9557 641.133 85.7604 641.133 86.8594ZM649.086 91V82.7031H650.352V83.9609C650.674 83.3724 650.971 82.9844 651.242 82.7969C651.518 82.6094 651.82 82.5156 652.148 82.5156C652.622 82.5156 653.104 82.6667 653.594 82.9688L653.109 84.2734C652.766 84.0703 652.422 83.9688 652.078 83.9688C651.771 83.9688 651.495 84.0625 651.25 84.25C651.005 84.4323 650.831 84.6875 650.727 85.0156C650.57 85.5156 650.492 86.0625 650.492 86.6562V91H649.086ZM653.906 86.8516C653.906 85.3151 654.333 84.1771 655.188 83.4375C655.901 82.8229 656.771 82.5156 657.797 82.5156C658.938 82.5156 659.87 82.8906 660.594 83.6406C661.318 84.3854 661.68 85.4167 661.68 86.7344C661.68 87.8021 661.518 88.6432 661.195 89.2578C660.878 89.8672 660.411 90.3411 659.797 90.6797C659.188 91.0182 658.521 91.1875 657.797 91.1875C656.635 91.1875 655.695 90.8151 654.977 90.0703C654.263 89.3255 653.906 88.2526 653.906 86.8516ZM655.352 86.8516C655.352 87.9141 655.583 88.7109 656.047 89.2422C656.51 89.7682 657.094 90.0312 657.797 90.0312C658.495 90.0312 659.076 89.7656 659.539 89.2344C660.003 88.7031 660.234 87.8932 660.234 86.8047C660.234 85.7786 660 85.0026 659.531 84.4766C659.068 83.9453 658.49 83.6797 657.797 83.6797C657.094 83.6797 656.51 83.9427 656.047 84.4688C655.583 84.9948 655.352 85.7891 655.352 86.8516ZM663.344 81.1641V79.5469H664.75V81.1641H663.344ZM663.344 91V82.7031H664.75V91H663.344ZM669.969 89.7422L670.172 90.9844C669.776 91.0677 669.422 91.1094 669.109 91.1094C668.599 91.1094 668.203 91.0286 667.922 90.8672C667.641 90.7057 667.443 90.4948 667.328 90.2344C667.214 89.9688 667.156 89.4141 667.156 88.5703V83.7969H666.125V82.7031H667.156V80.6484L668.555 79.8047V82.7031H669.969V83.7969H668.555V88.6484C668.555 89.0495 668.578 89.3073 668.625 89.4219C668.677 89.5365 668.758 89.6276 668.867 89.6953C668.982 89.763 669.143 89.7969 669.352 89.7969C669.508 89.7969 669.714 89.7786 669.969 89.7422ZM677.031 88.3281L678.484 88.5078C678.255 89.3568 677.831 90.0156 677.211 90.4844C676.591 90.9531 675.799 91.1875 674.836 91.1875C673.622 91.1875 672.659 90.8151 671.945 90.0703C671.237 89.3203 670.883 88.2708 670.883 86.9219C670.883 85.526 671.242 84.4427 671.961 83.6719C672.68 82.901 673.612 82.5156 674.758 82.5156C675.867 82.5156 676.773 82.8932 677.477 83.6484C678.18 84.4036 678.531 85.4661 678.531 86.8359C678.531 86.9193 678.529 87.0443 678.523 87.2109H672.336C672.388 88.1224 672.646 88.8203 673.109 89.3047C673.573 89.7891 674.151 90.0312 674.844 90.0312C675.359 90.0312 675.799 89.8958 676.164 89.625C676.529 89.3542 676.818 88.9219 677.031 88.3281ZM672.414 86.0547H677.047C676.984 85.3568 676.807 84.8333 676.516 84.4844C676.068 83.9427 675.487 83.6719 674.773 83.6719C674.128 83.6719 673.583 83.888 673.141 84.3203C672.703 84.7526 672.461 85.3307 672.414 86.0547ZM690 94.1797V90.1172C689.781 90.4245 689.474 90.6797 689.078 90.8828C688.688 91.0859 688.271 91.1875 687.828 91.1875C686.844 91.1875 685.995 90.7943 685.281 90.0078C684.573 89.2214 684.219 88.1432 684.219 86.7734C684.219 85.9401 684.362 85.1927 684.648 84.5312C684.94 83.8698 685.359 83.3698 685.906 83.0312C686.458 82.6875 687.062 82.5156 687.719 82.5156C688.745 82.5156 689.552 82.9479 690.141 83.8125V82.7031H691.406V94.1797H690ZM685.664 86.8281C685.664 87.8958 685.888 88.6979 686.336 89.2344C686.784 89.7656 687.32 90.0312 687.945 90.0312C688.544 90.0312 689.06 89.7786 689.492 89.2734C689.924 88.763 690.141 87.9896 690.141 86.9531C690.141 85.849 689.911 85.0182 689.453 84.4609C689 83.9036 688.466 83.625 687.852 83.625C687.242 83.625 686.724 83.8854 686.297 84.4062C685.875 84.9219 685.664 85.7292 685.664 86.8281ZM699.055 91V89.7812C698.409 90.7188 697.531 91.1875 696.422 91.1875C695.932 91.1875 695.474 91.0938 695.047 90.9062C694.625 90.7188 694.31 90.4844 694.102 90.2031C693.898 89.9167 693.755 89.5677 693.672 89.1562C693.615 88.8802 693.586 88.4427 693.586 87.8438V82.7031H694.992V87.3047C694.992 88.0391 695.021 88.5339 695.078 88.7891C695.167 89.1589 695.354 89.4505 695.641 89.6641C695.927 89.8724 696.281 89.9766 696.703 89.9766C697.125 89.9766 697.521 89.8698 697.891 89.6562C698.26 89.4375 698.521 89.1432 698.672 88.7734C698.828 88.3984 698.906 87.8568 698.906 87.1484V82.7031H700.312V91H699.055ZM702.531 81.1641V79.5469H703.938V81.1641H702.531ZM702.531 91V82.7031H703.938V91H702.531ZM709.977 88.5234L711.367 88.3047C711.445 88.862 711.661 89.2891 712.016 89.5859C712.375 89.8828 712.875 90.0312 713.516 90.0312C714.161 90.0312 714.641 89.901 714.953 89.6406C715.266 89.375 715.422 89.0651 715.422 88.7109C715.422 88.3932 715.284 88.1432 715.008 87.9609C714.815 87.8359 714.336 87.6771 713.57 87.4844C712.539 87.224 711.823 87 711.422 86.8125C711.026 86.6198 710.724 86.3568 710.516 86.0234C710.312 85.6849 710.211 85.3125 710.211 84.9062C710.211 84.5365 710.294 84.1953 710.461 83.8828C710.633 83.5651 710.865 83.3021 711.156 83.0938C711.375 82.9323 711.672 82.7969 712.047 82.6875C712.427 82.5729 712.833 82.5156 713.266 82.5156C713.917 82.5156 714.487 82.6094 714.977 82.7969C715.471 82.9844 715.836 83.2396 716.07 83.5625C716.305 83.8802 716.466 84.3073 716.555 84.8438L715.18 85.0312C715.117 84.6042 714.935 84.2708 714.633 84.0312C714.336 83.7917 713.914 83.6719 713.367 83.6719C712.721 83.6719 712.26 83.7786 711.984 83.9922C711.708 84.2057 711.57 84.4557 711.57 84.7422C711.57 84.9245 711.628 85.0885 711.742 85.2344C711.857 85.3854 712.036 85.5104 712.281 85.6094C712.422 85.6615 712.836 85.7812 713.523 85.9688C714.518 86.2344 715.211 86.4531 715.602 86.625C715.997 86.7917 716.307 87.0365 716.531 87.3594C716.755 87.6823 716.867 88.0833 716.867 88.5625C716.867 89.0312 716.729 89.474 716.453 89.8906C716.182 90.3021 715.789 90.6224 715.273 90.8516C714.758 91.0755 714.174 91.1875 713.523 91.1875C712.445 91.1875 711.622 90.9635 711.055 90.5156C710.492 90.0677 710.133 89.4036 709.977 88.5234ZM724.219 88.3281L725.672 88.5078C725.443 89.3568 725.018 90.0156 724.398 90.4844C723.779 90.9531 722.987 91.1875 722.023 91.1875C720.81 91.1875 719.846 90.8151 719.133 90.0703C718.424 89.3203 718.07 88.2708 718.07 86.9219C718.07 85.526 718.43 84.4427 719.148 83.6719C719.867 82.901 720.799 82.5156 721.945 82.5156C723.055 82.5156 723.961 82.8932 724.664 83.6484C725.367 84.4036 725.719 85.4661 725.719 86.8359C725.719 86.9193 725.716 87.0443 725.711 87.2109H719.523C719.576 88.1224 719.833 88.8203 720.297 89.3047C720.76 89.7891 721.339 90.0312 722.031 90.0312C722.547 90.0312 722.987 89.8958 723.352 89.625C723.716 89.3542 724.005 88.9219 724.219 88.3281ZM719.602 86.0547H724.234C724.172 85.3568 723.995 84.8333 723.703 84.4844C723.255 83.9427 722.674 83.6719 721.961 83.6719C721.315 83.6719 720.771 83.888 720.328 84.3203C719.891 84.7526 719.648 85.3307 719.602 86.0547ZM721.117 81.6719L722.156 79.4844H724L722.281 81.6719H721.117ZM727.445 94.1797V82.7031H728.727V83.7812C729.029 83.3594 729.37 83.0443 729.75 82.8359C730.13 82.6224 730.591 82.5156 731.133 82.5156C731.841 82.5156 732.466 82.6979 733.008 83.0625C733.549 83.4271 733.958 83.9427 734.234 84.6094C734.51 85.2708 734.648 85.9974 734.648 86.7891C734.648 87.638 734.495 88.4036 734.188 89.0859C733.885 89.763 733.443 90.2839 732.859 90.6484C732.281 91.0078 731.672 91.1875 731.031 91.1875C730.562 91.1875 730.141 91.0885 729.766 90.8906C729.396 90.6927 729.091 90.4427 728.852 90.1406V94.1797H727.445ZM728.719 86.8984C728.719 87.9661 728.935 88.7552 729.367 89.2656C729.799 89.776 730.323 90.0312 730.938 90.0312C731.562 90.0312 732.096 89.7682 732.539 89.2422C732.987 88.7109 733.211 87.8906 733.211 86.7812C733.211 85.724 732.992 84.9323 732.555 84.4062C732.122 83.8802 731.604 83.6172 731 83.6172C730.401 83.6172 729.87 83.8984 729.406 84.4609C728.948 85.0182 728.719 85.8307 728.719 86.8984ZM741.766 89.9766C741.245 90.4193 740.742 90.7318 740.258 90.9141C739.779 91.0964 739.263 91.1875 738.711 91.1875C737.799 91.1875 737.099 90.9661 736.609 90.5234C736.12 90.0755 735.875 89.5052 735.875 88.8125C735.875 88.4062 735.966 88.0365 736.148 87.7031C736.336 87.3646 736.578 87.0938 736.875 86.8906C737.177 86.6875 737.516 86.5339 737.891 86.4297C738.167 86.3568 738.583 86.2865 739.141 86.2188C740.276 86.0833 741.112 85.9219 741.648 85.7344C741.654 85.5417 741.656 85.4193 741.656 85.3672C741.656 84.7943 741.523 84.3906 741.258 84.1562C740.898 83.8385 740.365 83.6797 739.656 83.6797C738.995 83.6797 738.505 83.7969 738.188 84.0312C737.875 84.2604 737.643 84.6693 737.492 85.2578L736.117 85.0703C736.242 84.4818 736.448 84.0078 736.734 83.6484C737.021 83.2839 737.435 83.0052 737.977 82.8125C738.518 82.6146 739.146 82.5156 739.859 82.5156C740.568 82.5156 741.143 82.599 741.586 82.7656C742.029 82.9323 742.354 83.1432 742.562 83.3984C742.771 83.6484 742.917 83.9661 743 84.3516C743.047 84.5911 743.07 85.0234 743.07 85.6484V87.5234C743.07 88.8307 743.099 89.6589 743.156 90.0078C743.219 90.3516 743.339 90.6823 743.516 91H742.047C741.901 90.7083 741.807 90.3672 741.766 89.9766ZM741.648 86.8359C741.138 87.0443 740.372 87.2214 739.352 87.3672C738.773 87.4505 738.365 87.5443 738.125 87.6484C737.885 87.7526 737.701 87.9062 737.57 88.1094C737.44 88.3073 737.375 88.5286 737.375 88.7734C737.375 89.1484 737.516 89.4609 737.797 89.7109C738.083 89.9609 738.5 90.0859 739.047 90.0859C739.589 90.0859 740.07 89.9688 740.492 89.7344C740.914 89.4948 741.224 89.1693 741.422 88.7578C741.573 88.4401 741.648 87.9714 741.648 87.3516V86.8359ZM745.242 91V82.7031H746.508V83.9609C746.831 83.3724 747.128 82.9844 747.398 82.7969C747.674 82.6094 747.977 82.5156 748.305 82.5156C748.779 82.5156 749.26 82.6667 749.75 82.9688L749.266 84.2734C748.922 84.0703 748.578 83.9688 748.234 83.9688C747.927 83.9688 747.651 84.0625 747.406 84.25C747.161 84.4323 746.987 84.6875 746.883 85.0156C746.727 85.5156 746.648 86.0625 746.648 86.6562V91H745.242ZM756.266 88.3281L757.719 88.5078C757.49 89.3568 757.065 90.0156 756.445 90.4844C755.826 90.9531 755.034 91.1875 754.07 91.1875C752.857 91.1875 751.893 90.8151 751.18 90.0703C750.471 89.3203 750.117 88.2708 750.117 86.9219C750.117 85.526 750.477 84.4427 751.195 83.6719C751.914 82.901 752.846 82.5156 753.992 82.5156C755.102 82.5156 756.008 82.8932 756.711 83.6484C757.414 84.4036 757.766 85.4661 757.766 86.8359C757.766 86.9193 757.763 87.0443 757.758 87.2109H751.57C751.622 88.1224 751.88 88.8203 752.344 89.3047C752.807 89.7891 753.385 90.0312 754.078 90.0312C754.594 90.0312 755.034 89.8958 755.398 89.625C755.763 89.3542 756.052 88.9219 756.266 88.3281ZM751.648 86.0547H756.281C756.219 85.3568 756.042 84.8333 755.75 84.4844C755.302 83.9427 754.721 83.6719 754.008 83.6719C753.362 83.6719 752.818 83.888 752.375 84.3203C751.938 84.7526 751.695 85.3307 751.648 86.0547ZM769.328 91V89.9531C768.802 90.776 768.029 91.1875 767.008 91.1875C766.346 91.1875 765.737 91.0052 765.18 90.6406C764.628 90.276 764.198 89.7682 763.891 89.1172C763.589 88.4609 763.438 87.7083 763.438 86.8594C763.438 86.0312 763.576 85.2812 763.852 84.6094C764.128 83.9323 764.542 83.4141 765.094 83.0547C765.646 82.6953 766.263 82.5156 766.945 82.5156C767.445 82.5156 767.891 82.6224 768.281 82.8359C768.672 83.0443 768.99 83.3177 769.234 83.6562V79.5469H770.633V91H769.328ZM764.883 86.8594C764.883 87.9219 765.107 88.7161 765.555 89.2422C766.003 89.7682 766.531 90.0312 767.141 90.0312C767.755 90.0312 768.276 89.7812 768.703 89.2812C769.135 88.776 769.352 88.0078 769.352 86.9766C769.352 85.8411 769.133 85.0078 768.695 84.4766C768.258 83.9453 767.719 83.6797 767.078 83.6797C766.453 83.6797 765.93 83.9349 765.508 84.4453C765.091 84.9557 764.883 85.7604 764.883 86.8594ZM778.531 88.3281L779.984 88.5078C779.755 89.3568 779.331 90.0156 778.711 90.4844C778.091 90.9531 777.299 91.1875 776.336 91.1875C775.122 91.1875 774.159 90.8151 773.445 90.0703C772.737 89.3203 772.383 88.2708 772.383 86.9219C772.383 85.526 772.742 84.4427 773.461 83.6719C774.18 82.901 775.112 82.5156 776.258 82.5156C777.367 82.5156 778.273 82.8932 778.977 83.6484C779.68 84.4036 780.031 85.4661 780.031 86.8359C780.031 86.9193 780.029 87.0443 780.023 87.2109H773.836C773.888 88.1224 774.146 88.8203 774.609 89.3047C775.073 89.7891 775.651 90.0312 776.344 90.0312C776.859 90.0312 777.299 89.8958 777.664 89.625C778.029 89.3542 778.318 88.9219 778.531 88.3281ZM773.914 86.0547H778.547C778.484 85.3568 778.307 84.8333 778.016 84.4844C777.568 83.9427 776.987 83.6719 776.273 83.6719C775.628 83.6719 775.083 83.888 774.641 84.3203C774.203 84.7526 773.961 85.3307 773.914 86.0547ZM781.195 88.5234L782.586 88.3047C782.664 88.862 782.88 89.2891 783.234 89.5859C783.594 89.8828 784.094 90.0312 784.734 90.0312C785.38 90.0312 785.859 89.901 786.172 89.6406C786.484 89.375 786.641 89.0651 786.641 88.7109C786.641 88.3932 786.503 88.1432 786.227 87.9609C786.034 87.8359 785.555 87.6771 784.789 87.4844C783.758 87.224 783.042 87 782.641 86.8125C782.245 86.6198 781.943 86.3568 781.734 86.0234C781.531 85.6849 781.43 85.3125 781.43 84.9062C781.43 84.5365 781.513 84.1953 781.68 83.8828C781.852 83.5651 782.083 83.3021 782.375 83.0938C782.594 82.9323 782.891 82.7969 783.266 82.6875C783.646 82.5729 784.052 82.5156 784.484 82.5156C785.135 82.5156 785.706 82.6094 786.195 82.7969C786.69 82.9844 787.055 83.2396 787.289 83.5625C787.523 83.8802 787.685 84.3073 787.773 84.8438L786.398 85.0312C786.336 84.6042 786.154 84.2708 785.852 84.0312C785.555 83.7917 785.133 83.6719 784.586 83.6719C783.94 83.6719 783.479 83.7786 783.203 83.9922C782.927 84.2057 782.789 84.4557 782.789 84.7422C782.789 84.9245 782.846 85.0885 782.961 85.2344C783.076 85.3854 783.255 85.5104 783.5 85.6094C783.641 85.6615 784.055 85.7812 784.742 85.9688C785.737 86.2344 786.43 86.4531 786.82 86.625C787.216 86.7917 787.526 87.0365 787.75 87.3594C787.974 87.6823 788.086 88.0833 788.086 88.5625C788.086 89.0312 787.948 89.474 787.672 89.8906C787.401 90.3021 787.008 90.6224 786.492 90.8516C785.977 91.0755 785.393 91.1875 784.742 91.1875C783.664 91.1875 782.841 90.9635 782.273 90.5156C781.711 90.0677 781.352 89.4036 781.195 88.5234ZM793.648 88.5234L795.039 88.3047C795.117 88.862 795.333 89.2891 795.688 89.5859C796.047 89.8828 796.547 90.0312 797.188 90.0312C797.833 90.0312 798.312 89.901 798.625 89.6406C798.938 89.375 799.094 89.0651 799.094 88.7109C799.094 88.3932 798.956 88.1432 798.68 87.9609C798.487 87.8359 798.008 87.6771 797.242 87.4844C796.211 87.224 795.495 87 795.094 86.8125C794.698 86.6198 794.396 86.3568 794.188 86.0234C793.984 85.6849 793.883 85.3125 793.883 84.9062C793.883 84.5365 793.966 84.1953 794.133 83.8828C794.305 83.5651 794.536 83.3021 794.828 83.0938C795.047 82.9323 795.344 82.7969 795.719 82.6875C796.099 82.5729 796.505 82.5156 796.938 82.5156C797.589 82.5156 798.159 82.6094 798.648 82.7969C799.143 82.9844 799.508 83.2396 799.742 83.5625C799.977 83.8802 800.138 84.3073 800.227 84.8438L798.852 85.0312C798.789 84.6042 798.607 84.2708 798.305 84.0312C798.008 83.7917 797.586 83.6719 797.039 83.6719C796.393 83.6719 795.932 83.7786 795.656 83.9922C795.38 84.2057 795.242 84.4557 795.242 84.7422C795.242 84.9245 795.299 85.0885 795.414 85.2344C795.529 85.3854 795.708 85.5104 795.953 85.6094C796.094 85.6615 796.508 85.7812 797.195 85.9688C798.19 86.2344 798.883 86.4531 799.273 86.625C799.669 86.7917 799.979 87.0365 800.203 87.3594C800.427 87.6823 800.539 88.0833 800.539 88.5625C800.539 89.0312 800.401 89.474 800.125 89.8906C799.854 90.3021 799.461 90.6224 798.945 90.8516C798.43 91.0755 797.846 91.1875 797.195 91.1875C796.117 91.1875 795.294 90.9635 794.727 90.5156C794.164 90.0677 793.805 89.4036 793.648 88.5234ZM807.891 88.3281L809.344 88.5078C809.115 89.3568 808.69 90.0156 808.07 90.4844C807.451 90.9531 806.659 91.1875 805.695 91.1875C804.482 91.1875 803.518 90.8151 802.805 90.0703C802.096 89.3203 801.742 88.2708 801.742 86.9219C801.742 85.526 802.102 84.4427 802.82 83.6719C803.539 82.901 804.471 82.5156 805.617 82.5156C806.727 82.5156 807.633 82.8932 808.336 83.6484C809.039 84.4036 809.391 85.4661 809.391 86.8359C809.391 86.9193 809.388 87.0443 809.383 87.2109H803.195C803.247 88.1224 803.505 88.8203 803.969 89.3047C804.432 89.7891 805.01 90.0312 805.703 90.0312C806.219 90.0312 806.659 89.8958 807.023 89.625C807.388 89.3542 807.677 88.9219 807.891 88.3281ZM803.273 86.0547H807.906C807.844 85.3568 807.667 84.8333 807.375 84.4844C806.927 83.9427 806.346 83.6719 805.633 83.6719C804.987 83.6719 804.443 83.888 804 84.3203C803.562 84.7526 803.32 85.3307 803.273 86.0547ZM816.531 87.9609L817.914 88.1406C817.763 89.0938 817.375 89.8411 816.75 90.3828C816.13 90.9193 815.367 91.1875 814.461 91.1875C813.326 91.1875 812.411 90.8177 811.719 90.0781C811.031 89.3333 810.688 88.2682 810.688 86.8828C810.688 85.987 810.836 85.2031 811.133 84.5312C811.43 83.8594 811.88 83.3568 812.484 83.0234C813.094 82.6849 813.755 82.5156 814.469 82.5156C815.37 82.5156 816.107 82.7448 816.68 83.2031C817.253 83.6562 817.62 84.3021 817.781 85.1406L816.414 85.3516C816.284 84.7943 816.052 84.375 815.719 84.0938C815.391 83.8125 814.992 83.6719 814.523 83.6719C813.815 83.6719 813.24 83.9271 812.797 84.4375C812.354 84.9427 812.133 85.7448 812.133 86.8438C812.133 87.9583 812.346 88.7682 812.773 89.2734C813.201 89.7786 813.758 90.0312 814.445 90.0312C814.997 90.0312 815.458 89.862 815.828 89.5234C816.198 89.1849 816.432 88.6641 816.531 87.9609ZM822.188 89.7422L822.391 90.9844C821.995 91.0677 821.641 91.1094 821.328 91.1094C820.818 91.1094 820.422 91.0286 820.141 90.8672C819.859 90.7057 819.661 90.4948 819.547 90.2344C819.432 89.9688 819.375 89.4141 819.375 88.5703V83.7969H818.344V82.7031H819.375V80.6484L820.773 79.8047V82.7031H822.188V83.7969H820.773V88.6484C820.773 89.0495 820.797 89.3073 820.844 89.4219C820.896 89.5365 820.977 89.6276 821.086 89.6953C821.201 89.763 821.362 89.7969 821.57 89.7969C821.727 89.7969 821.932 89.7786 822.188 89.7422ZM823.578 81.1641V79.5469H824.984V81.1641H823.578ZM823.578 91V82.7031H824.984V91H823.578ZM826.609 86.8516C826.609 85.3151 827.036 84.1771 827.891 83.4375C828.604 82.8229 829.474 82.5156 830.5 82.5156C831.641 82.5156 832.573 82.8906 833.297 83.6406C834.021 84.3854 834.383 85.4167 834.383 86.7344C834.383 87.8021 834.221 88.6432 833.898 89.2578C833.581 89.8672 833.115 90.3411 832.5 90.6797C831.891 91.0182 831.224 91.1875 830.5 91.1875C829.339 91.1875 828.398 90.8151 827.68 90.0703C826.966 89.3255 826.609 88.2526 826.609 86.8516ZM828.055 86.8516C828.055 87.9141 828.286 88.7109 828.75 89.2422C829.214 89.7682 829.797 90.0312 830.5 90.0312C831.198 90.0312 831.779 89.7656 832.242 89.2344C832.706 88.7031 832.938 87.8932 832.938 86.8047C832.938 85.7786 832.703 85.0026 832.234 84.4766C831.771 83.9453 831.193 83.6797 830.5 83.6797C829.797 83.6797 829.214 83.9427 828.75 84.4688C828.286 84.9948 828.055 85.7891 828.055 86.8516ZM836.039 91V82.7031H837.305V83.8828C837.914 82.9714 838.794 82.5156 839.945 82.5156C840.445 82.5156 840.904 82.6068 841.32 82.7891C841.742 82.9661 842.057 83.2005 842.266 83.4922C842.474 83.7839 842.62 84.1302 842.703 84.5312C842.755 84.7917 842.781 85.2474 842.781 85.8984V91H841.375V85.9531C841.375 85.3802 841.32 84.9531 841.211 84.6719C841.102 84.3854 840.906 84.1589 840.625 83.9922C840.349 83.8203 840.023 83.7344 839.648 83.7344C839.049 83.7344 838.531 83.9245 838.094 84.3047C837.661 84.6849 837.445 85.4062 837.445 86.4688V91H836.039ZM844.383 88.5234L845.773 88.3047C845.852 88.862 846.068 89.2891 846.422 89.5859C846.781 89.8828 847.281 90.0312 847.922 90.0312C848.568 90.0312 849.047 89.901 849.359 89.6406C849.672 89.375 849.828 89.0651 849.828 88.7109C849.828 88.3932 849.69 88.1432 849.414 87.9609C849.221 87.8359 848.742 87.6771 847.977 87.4844C846.945 87.224 846.229 87 845.828 86.8125C845.432 86.6198 845.13 86.3568 844.922 86.0234C844.719 85.6849 844.617 85.3125 844.617 84.9062C844.617 84.5365 844.701 84.1953 844.867 83.8828C845.039 83.5651 845.271 83.3021 845.562 83.0938C845.781 82.9323 846.078 82.7969 846.453 82.6875C846.833 82.5729 847.24 82.5156 847.672 82.5156C848.323 82.5156 848.893 82.6094 849.383 82.7969C849.878 82.9844 850.242 83.2396 850.477 83.5625C850.711 83.8802 850.872 84.3073 850.961 84.8438L849.586 85.0312C849.523 84.6042 849.341 84.2708 849.039 84.0312C848.742 83.7917 848.32 83.6719 847.773 83.6719C847.128 83.6719 846.667 83.7786 846.391 83.9922C846.115 84.2057 845.977 84.4557 845.977 84.7422C845.977 84.9245 846.034 85.0885 846.148 85.2344C846.263 85.3854 846.443 85.5104 846.688 85.6094C846.828 85.6615 847.242 85.7812 847.93 85.9688C848.924 86.2344 849.617 86.4531 850.008 86.625C850.404 86.7917 850.714 87.0365 850.938 87.3594C851.161 87.6823 851.273 88.0833 851.273 88.5625C851.273 89.0312 851.135 89.474 850.859 89.8906C850.589 90.3021 850.195 90.6224 849.68 90.8516C849.164 91.0755 848.581 91.1875 847.93 91.1875C846.852 91.1875 846.029 90.9635 845.461 90.5156C844.898 90.0677 844.539 89.4036 844.383 88.5234ZM859.703 91L856.547 82.7031H858.031L859.812 87.6719C860.005 88.2083 860.182 88.7656 860.344 89.3438C860.469 88.9062 860.643 88.3802 860.867 87.7656L862.711 82.7031H864.156L861.016 91H859.703ZM871.078 88.3281L872.531 88.5078C872.302 89.3568 871.878 90.0156 871.258 90.4844C870.638 90.9531 869.846 91.1875 868.883 91.1875C867.669 91.1875 866.706 90.8151 865.992 90.0703C865.284 89.3203 864.93 88.2708 864.93 86.9219C864.93 85.526 865.289 84.4427 866.008 83.6719C866.727 82.901 867.659 82.5156 868.805 82.5156C869.914 82.5156 870.82 82.8932 871.523 83.6484C872.227 84.4036 872.578 85.4661 872.578 86.8359C872.578 86.9193 872.576 87.0443 872.57 87.2109H866.383C866.435 88.1224 866.693 88.8203 867.156 89.3047C867.62 89.7891 868.198 90.0312 868.891 90.0312C869.406 90.0312 869.846 89.8958 870.211 89.625C870.576 89.3542 870.865 88.9219 871.078 88.3281ZM866.461 86.0547H871.094C871.031 85.3568 870.854 84.8333 870.562 84.4844C870.115 83.9427 869.534 83.6719 868.82 83.6719C868.174 83.6719 867.63 83.888 867.188 84.3203C866.75 84.7526 866.508 85.3307 866.461 86.0547ZM874.289 91V82.7031H875.555V83.9609C875.878 83.3724 876.174 82.9844 876.445 82.7969C876.721 82.6094 877.023 82.5156 877.352 82.5156C877.826 82.5156 878.307 82.6667 878.797 82.9688L878.312 84.2734C877.969 84.0703 877.625 83.9688 877.281 83.9688C876.974 83.9688 876.698 84.0625 876.453 84.25C876.208 84.4323 876.034 84.6875 875.93 85.0156C875.773 85.5156 875.695 86.0625 875.695 86.6562V91H874.289ZM882.703 89.7422L882.906 90.9844C882.51 91.0677 882.156 91.1094 881.844 91.1094C881.333 91.1094 880.938 91.0286 880.656 90.8672C880.375 90.7057 880.177 90.4948 880.062 90.2344C879.948 89.9688 879.891 89.4141 879.891 88.5703V83.7969H878.859V82.7031H879.891V80.6484L881.289 79.8047V82.7031H882.703V83.7969H881.289V88.6484C881.289 89.0495 881.312 89.3073 881.359 89.4219C881.411 89.5365 881.492 89.6276 881.602 89.6953C881.716 89.763 881.878 89.7969 882.086 89.7969C882.242 89.7969 882.448 89.7786 882.703 89.7422ZM884.094 81.1641V79.5469H885.5V81.1641H884.094ZM884.094 91V82.7031H885.5V91H884.094ZM893.062 87.9609L894.445 88.1406C894.294 89.0938 893.906 89.8411 893.281 90.3828C892.661 90.9193 891.898 91.1875 890.992 91.1875C889.857 91.1875 888.943 90.8177 888.25 90.0781C887.562 89.3333 887.219 88.2682 887.219 86.8828C887.219 85.987 887.367 85.2031 887.664 84.5312C887.961 83.8594 888.411 83.3568 889.016 83.0234C889.625 82.6849 890.286 82.5156 891 82.5156C891.901 82.5156 892.638 82.7448 893.211 83.2031C893.784 83.6562 894.151 84.3021 894.312 85.1406L892.945 85.3516C892.815 84.7943 892.583 84.375 892.25 84.0938C891.922 83.8125 891.523 83.6719 891.055 83.6719C890.346 83.6719 889.771 83.9271 889.328 84.4375C888.885 84.9427 888.664 85.7448 888.664 86.8438C888.664 87.9583 888.878 88.7682 889.305 89.2734C889.732 89.7786 890.289 90.0312 890.977 90.0312C891.529 90.0312 891.99 89.862 892.359 89.5234C892.729 89.1849 892.964 88.6641 893.062 87.9609ZM901.062 89.9766C900.542 90.4193 900.039 90.7318 899.555 90.9141C899.076 91.0964 898.56 91.1875 898.008 91.1875C897.096 91.1875 896.396 90.9661 895.906 90.5234C895.417 90.0755 895.172 89.5052 895.172 88.8125C895.172 88.4062 895.263 88.0365 895.445 87.7031C895.633 87.3646 895.875 87.0938 896.172 86.8906C896.474 86.6875 896.812 86.5339 897.188 86.4297C897.464 86.3568 897.88 86.2865 898.438 86.2188C899.573 86.0833 900.409 85.9219 900.945 85.7344C900.951 85.5417 900.953 85.4193 900.953 85.3672C900.953 84.7943 900.82 84.3906 900.555 84.1562C900.195 83.8385 899.661 83.6797 898.953 83.6797C898.292 83.6797 897.802 83.7969 897.484 84.0312C897.172 84.2604 896.94 84.6693 896.789 85.2578L895.414 85.0703C895.539 84.4818 895.745 84.0078 896.031 83.6484C896.318 83.2839 896.732 83.0052 897.273 82.8125C897.815 82.6146 898.443 82.5156 899.156 82.5156C899.865 82.5156 900.44 82.599 900.883 82.7656C901.326 82.9323 901.651 83.1432 901.859 83.3984C902.068 83.6484 902.214 83.9661 902.297 84.3516C902.344 84.5911 902.367 85.0234 902.367 85.6484V87.5234C902.367 88.8307 902.396 89.6589 902.453 90.0078C902.516 90.3516 902.635 90.6823 902.812 91H901.344C901.198 90.7083 901.104 90.3672 901.062 89.9766ZM900.945 86.8359C900.435 87.0443 899.669 87.2214 898.648 87.3672C898.07 87.4505 897.661 87.5443 897.422 87.6484C897.182 87.7526 896.997 87.9062 896.867 88.1094C896.737 88.3073 896.672 88.5286 896.672 88.7734C896.672 89.1484 896.812 89.4609 897.094 89.7109C897.38 89.9609 897.797 90.0859 898.344 90.0859C898.885 90.0859 899.367 89.9688 899.789 89.7344C900.211 89.4948 900.521 89.1693 900.719 88.7578C900.87 88.4401 900.945 87.9714 900.945 87.3516V86.8359ZM904.523 91V79.5469H905.93V91H904.523ZM913.797 88.3281L915.25 88.5078C915.021 89.3568 914.596 90.0156 913.977 90.4844C913.357 90.9531 912.565 91.1875 911.602 91.1875C910.388 91.1875 909.424 90.8151 908.711 90.0703C908.003 89.3203 907.648 88.2708 907.648 86.9219C907.648 85.526 908.008 84.4427 908.727 83.6719C909.445 82.901 910.378 82.5156 911.523 82.5156C912.633 82.5156 913.539 82.8932 914.242 83.6484C914.945 84.4036 915.297 85.4661 915.297 86.8359C915.297 86.9193 915.294 87.0443 915.289 87.2109H909.102C909.154 88.1224 909.411 88.8203 909.875 89.3047C910.339 89.7891 910.917 90.0312 911.609 90.0312C912.125 90.0312 912.565 89.8958 912.93 89.625C913.294 89.3542 913.583 88.9219 913.797 88.3281ZM909.18 86.0547H913.812C913.75 85.3568 913.573 84.8333 913.281 84.4844C912.833 83.9427 912.253 83.6719 911.539 83.6719C910.893 83.6719 910.349 83.888 909.906 84.3203C909.469 84.7526 909.227 85.3307 909.18 86.0547ZM917.023 91V82.7031H918.281V83.8672C918.542 83.4609 918.888 83.1354 919.32 82.8906C919.753 82.6406 920.245 82.5156 920.797 82.5156C921.411 82.5156 921.914 82.6432 922.305 82.8984C922.701 83.1536 922.979 83.5104 923.141 83.9688C923.797 83 924.651 82.5156 925.703 82.5156C926.526 82.5156 927.159 82.7448 927.602 83.2031C928.044 83.6562 928.266 84.3568 928.266 85.3047V91H926.867V85.7734C926.867 85.2109 926.82 84.8073 926.727 84.5625C926.638 84.3125 926.474 84.112 926.234 83.9609C925.995 83.8099 925.714 83.7344 925.391 83.7344C924.807 83.7344 924.323 83.9297 923.938 84.3203C923.552 84.7057 923.359 85.3255 923.359 86.1797V91H921.953V85.6094C921.953 84.9844 921.839 84.5156 921.609 84.2031C921.38 83.8906 921.005 83.7344 920.484 83.7344C920.089 83.7344 919.721 83.8385 919.383 84.0469C919.049 84.2552 918.807 84.5599 918.656 84.9609C918.505 85.362 918.43 85.9401 918.43 86.6953V91H917.023ZM936.031 88.3281L937.484 88.5078C937.255 89.3568 936.831 90.0156 936.211 90.4844C935.591 90.9531 934.799 91.1875 933.836 91.1875C932.622 91.1875 931.659 90.8151 930.945 90.0703C930.237 89.3203 929.883 88.2708 929.883 86.9219C929.883 85.526 930.242 84.4427 930.961 83.6719C931.68 82.901 932.612 82.5156 933.758 82.5156C934.867 82.5156 935.773 82.8932 936.477 83.6484C937.18 84.4036 937.531 85.4661 937.531 86.8359C937.531 86.9193 937.529 87.0443 937.523 87.2109H931.336C931.388 88.1224 931.646 88.8203 932.109 89.3047C932.573 89.7891 933.151 90.0312 933.844 90.0312C934.359 90.0312 934.799 89.8958 935.164 89.625C935.529 89.3542 935.818 88.9219 936.031 88.3281ZM931.414 86.0547H936.047C935.984 85.3568 935.807 84.8333 935.516 84.4844C935.068 83.9427 934.487 83.6719 933.773 83.6719C933.128 83.6719 932.583 83.888 932.141 84.3203C931.703 84.7526 931.461 85.3307 931.414 86.0547ZM939.258 91V82.7031H940.523V83.8828C941.133 82.9714 942.013 82.5156 943.164 82.5156C943.664 82.5156 944.122 82.6068 944.539 82.7891C944.961 82.9661 945.276 83.2005 945.484 83.4922C945.693 83.7839 945.839 84.1302 945.922 84.5312C945.974 84.7917 946 85.2474 946 85.8984V91H944.594V85.9531C944.594 85.3802 944.539 84.9531 944.43 84.6719C944.32 84.3854 944.125 84.1589 943.844 83.9922C943.568 83.8203 943.242 83.7344 942.867 83.7344C942.268 83.7344 941.75 83.9245 941.312 84.3047C940.88 84.6849 940.664 85.4062 940.664 86.4688V91H939.258ZM951.234 89.7422L951.438 90.9844C951.042 91.0677 950.688 91.1094 950.375 91.1094C949.865 91.1094 949.469 91.0286 949.188 90.8672C948.906 90.7057 948.708 90.4948 948.594 90.2344C948.479 89.9688 948.422 89.4141 948.422 88.5703V83.7969H947.391V82.7031H948.422V80.6484L949.82 79.8047V82.7031H951.234V83.7969H949.82V88.6484C949.82 89.0495 949.844 89.3073 949.891 89.4219C949.943 89.5365 950.023 89.6276 950.133 89.6953C950.247 89.763 950.409 89.7969 950.617 89.7969C950.773 89.7969 950.979 89.7786 951.234 89.7422Z" fill="#3E3E3D"/>
<g opacity="0.5">
<path d="M579.5 109.5H1159" stroke="#CDCCCB"/>
</g>
<rect width="579.5" height="48" transform="translate(579.5 110)" fill="white"/>
<path d="M596.672 140V128.547H598.188V138.648H603.828V140H596.672ZM605.469 130.164V128.547H606.875V130.164H605.469ZM605.469 140V131.703H606.875V140H605.469ZM608.766 140.688L610.133 140.891C610.19 141.312 610.349 141.62 610.609 141.812C610.958 142.073 611.435 142.203 612.039 142.203C612.69 142.203 613.193 142.073 613.547 141.812C613.901 141.552 614.141 141.188 614.266 140.719C614.339 140.432 614.372 139.831 614.367 138.914C613.753 139.638 612.987 140 612.07 140C610.93 140 610.047 139.589 609.422 138.766C608.797 137.943 608.484 136.956 608.484 135.805C608.484 135.013 608.628 134.284 608.914 133.617C609.201 132.945 609.615 132.427 610.156 132.062C610.703 131.698 611.344 131.516 612.078 131.516C613.057 131.516 613.865 131.911 614.5 132.703V131.703H615.797V138.875C615.797 140.167 615.664 141.081 615.398 141.617C615.138 142.159 614.721 142.586 614.148 142.898C613.581 143.211 612.88 143.367 612.047 143.367C611.057 143.367 610.258 143.143 609.648 142.695C609.039 142.253 608.745 141.583 608.766 140.688ZM609.93 135.703C609.93 136.792 610.146 137.586 610.578 138.086C611.01 138.586 611.552 138.836 612.203 138.836C612.849 138.836 613.391 138.589 613.828 138.094C614.266 137.594 614.484 136.812 614.484 135.75C614.484 134.734 614.258 133.969 613.805 133.453C613.357 132.938 612.815 132.68 612.18 132.68C611.555 132.68 611.023 132.935 610.586 133.445C610.148 133.951 609.93 134.703 609.93 135.703ZM617.93 140V131.703H619.195V132.883C619.805 131.971 620.685 131.516 621.836 131.516C622.336 131.516 622.794 131.607 623.211 131.789C623.633 131.966 623.948 132.201 624.156 132.492C624.365 132.784 624.51 133.13 624.594 133.531C624.646 133.792 624.672 134.247 624.672 134.898V140H623.266V134.953C623.266 134.38 623.211 133.953 623.102 133.672C622.992 133.385 622.797 133.159 622.516 132.992C622.24 132.82 621.914 132.734 621.539 132.734C620.94 132.734 620.422 132.924 619.984 133.305C619.552 133.685 619.336 134.406 619.336 135.469V140H617.93ZM632.516 137.328L633.969 137.508C633.74 138.357 633.315 139.016 632.695 139.484C632.076 139.953 631.284 140.188 630.32 140.188C629.107 140.188 628.143 139.815 627.43 139.07C626.721 138.32 626.367 137.271 626.367 135.922C626.367 134.526 626.727 133.443 627.445 132.672C628.164 131.901 629.096 131.516 630.242 131.516C631.352 131.516 632.258 131.893 632.961 132.648C633.664 133.404 634.016 134.466 634.016 135.836C634.016 135.919 634.013 136.044 634.008 136.211H627.82C627.872 137.122 628.13 137.82 628.594 138.305C629.057 138.789 629.635 139.031 630.328 139.031C630.844 139.031 631.284 138.896 631.648 138.625C632.013 138.354 632.302 137.922 632.516 137.328ZM627.898 135.055H632.531C632.469 134.357 632.292 133.833 632 133.484C631.552 132.943 630.971 132.672 630.258 132.672C629.612 132.672 629.068 132.888 628.625 133.32C628.188 133.753 627.945 134.331 627.898 135.055ZM645.484 143.18V139.117C645.266 139.424 644.958 139.68 644.562 139.883C644.172 140.086 643.755 140.188 643.312 140.188C642.328 140.188 641.479 139.794 640.766 139.008C640.057 138.221 639.703 137.143 639.703 135.773C639.703 134.94 639.846 134.193 640.133 133.531C640.424 132.87 640.844 132.37 641.391 132.031C641.943 131.688 642.547 131.516 643.203 131.516C644.229 131.516 645.036 131.948 645.625 132.812V131.703H646.891V143.18H645.484ZM641.148 135.828C641.148 136.896 641.372 137.698 641.82 138.234C642.268 138.766 642.805 139.031 643.43 139.031C644.029 139.031 644.544 138.779 644.977 138.273C645.409 137.763 645.625 136.99 645.625 135.953C645.625 134.849 645.396 134.018 644.938 133.461C644.484 132.904 643.951 132.625 643.336 132.625C642.727 132.625 642.208 132.885 641.781 133.406C641.359 133.922 641.148 134.729 641.148 135.828ZM654.539 140V138.781C653.893 139.719 653.016 140.188 651.906 140.188C651.417 140.188 650.958 140.094 650.531 139.906C650.109 139.719 649.794 139.484 649.586 139.203C649.383 138.917 649.24 138.568 649.156 138.156C649.099 137.88 649.07 137.443 649.07 136.844V131.703H650.477V136.305C650.477 137.039 650.505 137.534 650.562 137.789C650.651 138.159 650.839 138.451 651.125 138.664C651.411 138.872 651.766 138.977 652.188 138.977C652.609 138.977 653.005 138.87 653.375 138.656C653.745 138.438 654.005 138.143 654.156 137.773C654.312 137.398 654.391 136.857 654.391 136.148V131.703H655.797V140H654.539ZM658.016 130.164V128.547H659.422V130.164H658.016ZM658.016 140V131.703H659.422V140H658.016ZM665.461 137.523L666.852 137.305C666.93 137.862 667.146 138.289 667.5 138.586C667.859 138.883 668.359 139.031 669 139.031C669.646 139.031 670.125 138.901 670.438 138.641C670.75 138.375 670.906 138.065 670.906 137.711C670.906 137.393 670.768 137.143 670.492 136.961C670.299 136.836 669.82 136.677 669.055 136.484C668.023 136.224 667.307 136 666.906 135.812C666.51 135.62 666.208 135.357 666 135.023C665.797 134.685 665.695 134.312 665.695 133.906C665.695 133.536 665.779 133.195 665.945 132.883C666.117 132.565 666.349 132.302 666.641 132.094C666.859 131.932 667.156 131.797 667.531 131.688C667.911 131.573 668.318 131.516 668.75 131.516C669.401 131.516 669.971 131.609 670.461 131.797C670.956 131.984 671.32 132.24 671.555 132.562C671.789 132.88 671.951 133.307 672.039 133.844L670.664 134.031C670.602 133.604 670.419 133.271 670.117 133.031C669.82 132.792 669.398 132.672 668.852 132.672C668.206 132.672 667.745 132.779 667.469 132.992C667.193 133.206 667.055 133.456 667.055 133.742C667.055 133.924 667.112 134.089 667.227 134.234C667.341 134.385 667.521 134.51 667.766 134.609C667.906 134.661 668.32 134.781 669.008 134.969C670.003 135.234 670.695 135.453 671.086 135.625C671.482 135.792 671.792 136.036 672.016 136.359C672.24 136.682 672.352 137.083 672.352 137.562C672.352 138.031 672.214 138.474 671.938 138.891C671.667 139.302 671.273 139.622 670.758 139.852C670.242 140.076 669.659 140.188 669.008 140.188C667.93 140.188 667.107 139.964 666.539 139.516C665.977 139.068 665.617 138.404 665.461 137.523ZM679.703 137.328L681.156 137.508C680.927 138.357 680.503 139.016 679.883 139.484C679.263 139.953 678.471 140.188 677.508 140.188C676.294 140.188 675.331 139.815 674.617 139.07C673.909 138.32 673.555 137.271 673.555 135.922C673.555 134.526 673.914 133.443 674.633 132.672C675.352 131.901 676.284 131.516 677.43 131.516C678.539 131.516 679.445 131.893 680.148 132.648C680.852 133.404 681.203 134.466 681.203 135.836C681.203 135.919 681.201 136.044 681.195 136.211H675.008C675.06 137.122 675.318 137.82 675.781 138.305C676.245 138.789 676.823 139.031 677.516 139.031C678.031 139.031 678.471 138.896 678.836 138.625C679.201 138.354 679.49 137.922 679.703 137.328ZM675.086 135.055H679.719C679.656 134.357 679.479 133.833 679.188 133.484C678.74 132.943 678.159 132.672 677.445 132.672C676.799 132.672 676.255 132.888 675.812 133.32C675.375 133.753 675.133 134.331 675.086 135.055ZM676.602 130.672L677.641 128.484H679.484L677.766 130.672H676.602ZM682.93 143.18V131.703H684.211V132.781C684.513 132.359 684.854 132.044 685.234 131.836C685.615 131.622 686.076 131.516 686.617 131.516C687.326 131.516 687.951 131.698 688.492 132.062C689.034 132.427 689.443 132.943 689.719 133.609C689.995 134.271 690.133 134.997 690.133 135.789C690.133 136.638 689.979 137.404 689.672 138.086C689.37 138.763 688.927 139.284 688.344 139.648C687.766 140.008 687.156 140.188 686.516 140.188C686.047 140.188 685.625 140.089 685.25 139.891C684.88 139.693 684.576 139.443 684.336 139.141V143.18H682.93ZM684.203 135.898C684.203 136.966 684.419 137.755 684.852 138.266C685.284 138.776 685.807 139.031 686.422 139.031C687.047 139.031 687.581 138.768 688.023 138.242C688.471 137.711 688.695 136.891 688.695 135.781C688.695 134.724 688.477 133.932 688.039 133.406C687.607 132.88 687.089 132.617 686.484 132.617C685.885 132.617 685.354 132.898 684.891 133.461C684.432 134.018 684.203 134.831 684.203 135.898ZM697.25 138.977C696.729 139.419 696.227 139.732 695.742 139.914C695.263 140.096 694.747 140.188 694.195 140.188C693.284 140.188 692.583 139.966 692.094 139.523C691.604 139.076 691.359 138.505 691.359 137.812C691.359 137.406 691.451 137.036 691.633 136.703C691.82 136.365 692.062 136.094 692.359 135.891C692.661 135.688 693 135.534 693.375 135.43C693.651 135.357 694.068 135.286 694.625 135.219C695.76 135.083 696.596 134.922 697.133 134.734C697.138 134.542 697.141 134.419 697.141 134.367C697.141 133.794 697.008 133.391 696.742 133.156C696.383 132.839 695.849 132.68 695.141 132.68C694.479 132.68 693.99 132.797 693.672 133.031C693.359 133.26 693.128 133.669 692.977 134.258L691.602 134.07C691.727 133.482 691.932 133.008 692.219 132.648C692.505 132.284 692.919 132.005 693.461 131.812C694.003 131.615 694.63 131.516 695.344 131.516C696.052 131.516 696.628 131.599 697.07 131.766C697.513 131.932 697.839 132.143 698.047 132.398C698.255 132.648 698.401 132.966 698.484 133.352C698.531 133.591 698.555 134.023 698.555 134.648V136.523C698.555 137.831 698.583 138.659 698.641 139.008C698.703 139.352 698.823 139.682 699 140H697.531C697.385 139.708 697.292 139.367 697.25 138.977ZM697.133 135.836C696.622 136.044 695.857 136.221 694.836 136.367C694.258 136.451 693.849 136.544 693.609 136.648C693.37 136.753 693.185 136.906 693.055 137.109C692.924 137.307 692.859 137.529 692.859 137.773C692.859 138.148 693 138.461 693.281 138.711C693.568 138.961 693.984 139.086 694.531 139.086C695.073 139.086 695.555 138.969 695.977 138.734C696.398 138.495 696.708 138.169 696.906 137.758C697.057 137.44 697.133 136.971 697.133 136.352V135.836ZM700.727 140V131.703H701.992V132.961C702.315 132.372 702.612 131.984 702.883 131.797C703.159 131.609 703.461 131.516 703.789 131.516C704.263 131.516 704.745 131.667 705.234 131.969L704.75 133.273C704.406 133.07 704.062 132.969 703.719 132.969C703.411 132.969 703.135 133.062 702.891 133.25C702.646 133.432 702.471 133.688 702.367 134.016C702.211 134.516 702.133 135.062 702.133 135.656V140H700.727ZM711.75 137.328L713.203 137.508C712.974 138.357 712.549 139.016 711.93 139.484C711.31 139.953 710.518 140.188 709.555 140.188C708.341 140.188 707.378 139.815 706.664 139.07C705.956 138.32 705.602 137.271 705.602 135.922C705.602 134.526 705.961 133.443 706.68 132.672C707.398 131.901 708.331 131.516 709.477 131.516C710.586 131.516 711.492 131.893 712.195 132.648C712.898 133.404 713.25 134.466 713.25 135.836C713.25 135.919 713.247 136.044 713.242 136.211H707.055C707.107 137.122 707.365 137.82 707.828 138.305C708.292 138.789 708.87 139.031 709.562 139.031C710.078 139.031 710.518 138.896 710.883 138.625C711.247 138.354 711.536 137.922 711.75 137.328ZM707.133 135.055H711.766C711.703 134.357 711.526 133.833 711.234 133.484C710.786 132.943 710.206 132.672 709.492 132.672C708.846 132.672 708.302 132.888 707.859 133.32C707.422 133.753 707.18 134.331 707.133 135.055ZM724.812 140V138.953C724.286 139.776 723.513 140.188 722.492 140.188C721.831 140.188 721.221 140.005 720.664 139.641C720.112 139.276 719.682 138.768 719.375 138.117C719.073 137.461 718.922 136.708 718.922 135.859C718.922 135.031 719.06 134.281 719.336 133.609C719.612 132.932 720.026 132.414 720.578 132.055C721.13 131.695 721.747 131.516 722.43 131.516C722.93 131.516 723.375 131.622 723.766 131.836C724.156 132.044 724.474 132.318 724.719 132.656V128.547H726.117V140H724.812ZM720.367 135.859C720.367 136.922 720.591 137.716 721.039 138.242C721.487 138.768 722.016 139.031 722.625 139.031C723.24 139.031 723.76 138.781 724.188 138.281C724.62 137.776 724.836 137.008 724.836 135.977C724.836 134.841 724.617 134.008 724.18 133.477C723.742 132.945 723.203 132.68 722.562 132.68C721.938 132.68 721.414 132.935 720.992 133.445C720.576 133.956 720.367 134.76 720.367 135.859ZM734.016 137.328L735.469 137.508C735.24 138.357 734.815 139.016 734.195 139.484C733.576 139.953 732.784 140.188 731.82 140.188C730.607 140.188 729.643 139.815 728.93 139.07C728.221 138.32 727.867 137.271 727.867 135.922C727.867 134.526 728.227 133.443 728.945 132.672C729.664 131.901 730.596 131.516 731.742 131.516C732.852 131.516 733.758 131.893 734.461 132.648C735.164 133.404 735.516 134.466 735.516 135.836C735.516 135.919 735.513 136.044 735.508 136.211H729.32C729.372 137.122 729.63 137.82 730.094 138.305C730.557 138.789 731.135 139.031 731.828 139.031C732.344 139.031 732.784 138.896 733.148 138.625C733.513 138.354 733.802 137.922 734.016 137.328ZM729.398 135.055H734.031C733.969 134.357 733.792 133.833 733.5 133.484C733.052 132.943 732.471 132.672 731.758 132.672C731.112 132.672 730.568 132.888 730.125 133.32C729.688 133.753 729.445 134.331 729.398 135.055ZM742.68 140V138.781C742.034 139.719 741.156 140.188 740.047 140.188C739.557 140.188 739.099 140.094 738.672 139.906C738.25 139.719 737.935 139.484 737.727 139.203C737.523 138.917 737.38 138.568 737.297 138.156C737.24 137.88 737.211 137.443 737.211 136.844V131.703H738.617V136.305C738.617 137.039 738.646 137.534 738.703 137.789C738.792 138.159 738.979 138.451 739.266 138.664C739.552 138.872 739.906 138.977 740.328 138.977C740.75 138.977 741.146 138.87 741.516 138.656C741.885 138.438 742.146 138.143 742.297 137.773C742.453 137.398 742.531 136.857 742.531 136.148V131.703H743.938V140H742.68ZM745.211 140L748.242 135.688L745.438 131.703H747.195L748.469 133.648C748.708 134.018 748.901 134.328 749.047 134.578C749.276 134.234 749.487 133.93 749.68 133.664L751.078 131.703H752.758L749.891 135.609L752.977 140H751.25L749.547 137.422L749.094 136.727L746.914 140H745.211ZM764.016 136.961L765.398 137.141C765.247 138.094 764.859 138.841 764.234 139.383C763.615 139.919 762.852 140.188 761.945 140.188C760.81 140.188 759.896 139.818 759.203 139.078C758.516 138.333 758.172 137.268 758.172 135.883C758.172 134.987 758.32 134.203 758.617 133.531C758.914 132.859 759.365 132.357 759.969 132.023C760.578 131.685 761.24 131.516 761.953 131.516C762.854 131.516 763.591 131.745 764.164 132.203C764.737 132.656 765.104 133.302 765.266 134.141L763.898 134.352C763.768 133.794 763.536 133.375 763.203 133.094C762.875 132.812 762.477 132.672 762.008 132.672C761.299 132.672 760.724 132.927 760.281 133.438C759.839 133.943 759.617 134.745 759.617 135.844C759.617 136.958 759.831 137.768 760.258 138.273C760.685 138.779 761.242 139.031 761.93 139.031C762.482 139.031 762.943 138.862 763.312 138.523C763.682 138.185 763.917 137.664 764.016 136.961ZM766.078 135.852C766.078 134.315 766.505 133.177 767.359 132.438C768.073 131.823 768.943 131.516 769.969 131.516C771.109 131.516 772.042 131.891 772.766 132.641C773.49 133.385 773.852 134.417 773.852 135.734C773.852 136.802 773.69 137.643 773.367 138.258C773.049 138.867 772.583 139.341 771.969 139.68C771.359 140.018 770.693 140.188 769.969 140.188C768.807 140.188 767.867 139.815 767.148 139.07C766.435 138.326 766.078 137.253 766.078 135.852ZM767.523 135.852C767.523 136.914 767.755 137.711 768.219 138.242C768.682 138.768 769.266 139.031 769.969 139.031C770.667 139.031 771.247 138.766 771.711 138.234C772.174 137.703 772.406 136.893 772.406 135.805C772.406 134.779 772.172 134.003 771.703 133.477C771.24 132.945 770.661 132.68 769.969 132.68C769.266 132.68 768.682 132.943 768.219 133.469C767.755 133.995 767.523 134.789 767.523 135.852ZM775.477 140V128.547H776.883V140H775.477ZM778.547 135.852C778.547 134.315 778.974 133.177 779.828 132.438C780.542 131.823 781.411 131.516 782.438 131.516C783.578 131.516 784.51 131.891 785.234 132.641C785.958 133.385 786.32 134.417 786.32 135.734C786.32 136.802 786.159 137.643 785.836 138.258C785.518 138.867 785.052 139.341 784.438 139.68C783.828 140.018 783.161 140.188 782.438 140.188C781.276 140.188 780.336 139.815 779.617 139.07C778.904 138.326 778.547 137.253 778.547 135.852ZM779.992 135.852C779.992 136.914 780.224 137.711 780.688 138.242C781.151 138.768 781.734 139.031 782.438 139.031C783.135 139.031 783.716 138.766 784.18 138.234C784.643 137.703 784.875 136.893 784.875 135.805C784.875 134.779 784.641 134.003 784.172 133.477C783.708 132.945 783.13 132.68 782.438 132.68C781.734 132.68 781.151 132.943 780.688 133.469C780.224 133.995 779.992 134.789 779.992 135.852ZM787.977 140V131.703H789.242V132.883C789.852 131.971 790.732 131.516 791.883 131.516C792.383 131.516 792.841 131.607 793.258 131.789C793.68 131.966 793.995 132.201 794.203 132.492C794.411 132.784 794.557 133.13 794.641 133.531C794.693 133.792 794.719 134.247 794.719 134.898V140H793.312V134.953C793.312 134.38 793.258 133.953 793.148 133.672C793.039 133.385 792.844 133.159 792.562 132.992C792.286 132.82 791.961 132.734 791.586 132.734C790.987 132.734 790.469 132.924 790.031 133.305C789.599 133.685 789.383 134.406 789.383 135.469V140H787.977ZM796.883 140V131.703H798.148V132.883C798.758 131.971 799.638 131.516 800.789 131.516C801.289 131.516 801.747 131.607 802.164 131.789C802.586 131.966 802.901 132.201 803.109 132.492C803.318 132.784 803.464 133.13 803.547 133.531C803.599 133.792 803.625 134.247 803.625 134.898V140H802.219V134.953C802.219 134.38 802.164 133.953 802.055 133.672C801.945 133.385 801.75 133.159 801.469 132.992C801.193 132.82 800.867 132.734 800.492 132.734C799.893 132.734 799.375 132.924 798.938 133.305C798.505 133.685 798.289 134.406 798.289 135.469V140H796.883ZM811.469 137.328L812.922 137.508C812.693 138.357 812.268 139.016 811.648 139.484C811.029 139.953 810.237 140.188 809.273 140.188C808.06 140.188 807.096 139.815 806.383 139.07C805.674 138.32 805.32 137.271 805.32 135.922C805.32 134.526 805.68 133.443 806.398 132.672C807.117 131.901 808.049 131.516 809.195 131.516C810.305 131.516 811.211 131.893 811.914 132.648C812.617 133.404 812.969 134.466 812.969 135.836C812.969 135.919 812.966 136.044 812.961 136.211H806.773C806.826 137.122 807.083 137.82 807.547 138.305C808.01 138.789 808.589 139.031 809.281 139.031C809.797 139.031 810.237 138.896 810.602 138.625C810.966 138.354 811.255 137.922 811.469 137.328ZM806.852 135.055H811.484C811.422 134.357 811.245 133.833 810.953 133.484C810.505 132.943 809.924 132.672 809.211 132.672C808.565 132.672 808.021 132.888 807.578 133.32C807.141 133.753 806.898 134.331 806.852 135.055ZM814.133 137.523L815.523 137.305C815.602 137.862 815.818 138.289 816.172 138.586C816.531 138.883 817.031 139.031 817.672 139.031C818.318 139.031 818.797 138.901 819.109 138.641C819.422 138.375 819.578 138.065 819.578 137.711C819.578 137.393 819.44 137.143 819.164 136.961C818.971 136.836 818.492 136.677 817.727 136.484C816.695 136.224 815.979 136 815.578 135.812C815.182 135.62 814.88 135.357 814.672 135.023C814.469 134.685 814.367 134.312 814.367 133.906C814.367 133.536 814.451 133.195 814.617 132.883C814.789 132.565 815.021 132.302 815.312 132.094C815.531 131.932 815.828 131.797 816.203 131.688C816.583 131.573 816.99 131.516 817.422 131.516C818.073 131.516 818.643 131.609 819.133 131.797C819.628 131.984 819.992 132.24 820.227 132.562C820.461 132.88 820.622 133.307 820.711 133.844L819.336 134.031C819.273 133.604 819.091 133.271 818.789 133.031C818.492 132.792 818.07 132.672 817.523 132.672C816.878 132.672 816.417 132.779 816.141 132.992C815.865 133.206 815.727 133.456 815.727 133.742C815.727 133.924 815.784 134.089 815.898 134.234C816.013 134.385 816.193 134.51 816.438 134.609C816.578 134.661 816.992 134.781 817.68 134.969C818.674 135.234 819.367 135.453 819.758 135.625C820.154 135.792 820.464 136.036 820.688 136.359C820.911 136.682 821.023 137.083 821.023 137.562C821.023 138.031 820.885 138.474 820.609 138.891C820.339 139.302 819.945 139.622 819.43 139.852C818.914 140.076 818.331 140.188 817.68 140.188C816.602 140.188 815.779 139.964 815.211 139.516C814.648 139.068 814.289 138.404 814.133 137.523ZM826.625 135.852C826.625 134.315 827.052 133.177 827.906 132.438C828.62 131.823 829.49 131.516 830.516 131.516C831.656 131.516 832.589 131.891 833.312 132.641C834.036 133.385 834.398 134.417 834.398 135.734C834.398 136.802 834.237 137.643 833.914 138.258C833.596 138.867 833.13 139.341 832.516 139.68C831.906 140.018 831.24 140.188 830.516 140.188C829.354 140.188 828.414 139.815 827.695 139.07C826.982 138.326 826.625 137.253 826.625 135.852ZM828.07 135.852C828.07 136.914 828.302 137.711 828.766 138.242C829.229 138.768 829.812 139.031 830.516 139.031C831.214 139.031 831.794 138.766 832.258 138.234C832.721 137.703 832.953 136.893 832.953 135.805C832.953 134.779 832.719 134.003 832.25 133.477C831.786 132.945 831.208 132.68 830.516 132.68C829.812 132.68 829.229 132.943 828.766 133.469C828.302 133.995 828.07 134.789 828.07 135.852ZM841.492 140V138.781C840.846 139.719 839.969 140.188 838.859 140.188C838.37 140.188 837.911 140.094 837.484 139.906C837.062 139.719 836.747 139.484 836.539 139.203C836.336 138.917 836.193 138.568 836.109 138.156C836.052 137.88 836.023 137.443 836.023 136.844V131.703H837.43V136.305C837.43 137.039 837.458 137.534 837.516 137.789C837.604 138.159 837.792 138.451 838.078 138.664C838.365 138.872 838.719 138.977 839.141 138.977C839.562 138.977 839.958 138.87 840.328 138.656C840.698 138.438 840.958 138.143 841.109 137.773C841.266 137.398 841.344 136.857 841.344 136.148V131.703H842.75V140H841.492ZM849.414 143.18V131.703H850.695V132.781C850.997 132.359 851.339 132.044 851.719 131.836C852.099 131.622 852.56 131.516 853.102 131.516C853.81 131.516 854.435 131.698 854.977 132.062C855.518 132.427 855.927 132.943 856.203 133.609C856.479 134.271 856.617 134.997 856.617 135.789C856.617 136.638 856.464 137.404 856.156 138.086C855.854 138.763 855.411 139.284 854.828 139.648C854.25 140.008 853.641 140.188 853 140.188C852.531 140.188 852.109 140.089 851.734 139.891C851.365 139.693 851.06 139.443 850.82 139.141V143.18H849.414ZM850.688 135.898C850.688 136.966 850.904 137.755 851.336 138.266C851.768 138.776 852.292 139.031 852.906 139.031C853.531 139.031 854.065 138.768 854.508 138.242C854.956 137.711 855.18 136.891 855.18 135.781C855.18 134.724 854.961 133.932 854.523 133.406C854.091 132.88 853.573 132.617 852.969 132.617C852.37 132.617 851.839 132.898 851.375 133.461C850.917 134.018 850.688 134.831 850.688 135.898ZM863.734 138.977C863.214 139.419 862.711 139.732 862.227 139.914C861.747 140.096 861.232 140.188 860.68 140.188C859.768 140.188 859.068 139.966 858.578 139.523C858.089 139.076 857.844 138.505 857.844 137.812C857.844 137.406 857.935 137.036 858.117 136.703C858.305 136.365 858.547 136.094 858.844 135.891C859.146 135.688 859.484 135.534 859.859 135.43C860.135 135.357 860.552 135.286 861.109 135.219C862.245 135.083 863.081 134.922 863.617 134.734C863.622 134.542 863.625 134.419 863.625 134.367C863.625 133.794 863.492 133.391 863.227 133.156C862.867 132.839 862.333 132.68 861.625 132.68C860.964 132.68 860.474 132.797 860.156 133.031C859.844 133.26 859.612 133.669 859.461 134.258L858.086 134.07C858.211 133.482 858.417 133.008 858.703 132.648C858.99 132.284 859.404 132.005 859.945 131.812C860.487 131.615 861.115 131.516 861.828 131.516C862.536 131.516 863.112 131.599 863.555 131.766C863.997 131.932 864.323 132.143 864.531 132.398C864.74 132.648 864.885 132.966 864.969 133.352C865.016 133.591 865.039 134.023 865.039 134.648V136.523C865.039 137.831 865.068 138.659 865.125 139.008C865.188 139.352 865.307 139.682 865.484 140H864.016C863.87 139.708 863.776 139.367 863.734 138.977ZM863.617 135.836C863.107 136.044 862.341 136.221 861.32 136.367C860.742 136.451 860.333 136.544 860.094 136.648C859.854 136.753 859.669 136.906 859.539 137.109C859.409 137.307 859.344 137.529 859.344 137.773C859.344 138.148 859.484 138.461 859.766 138.711C860.052 138.961 860.469 139.086 861.016 139.086C861.557 139.086 862.039 138.969 862.461 138.734C862.883 138.495 863.193 138.169 863.391 137.758C863.542 137.44 863.617 136.971 863.617 136.352V135.836ZM867.227 140V131.703H868.492V132.883C869.102 131.971 869.982 131.516 871.133 131.516C871.633 131.516 872.091 131.607 872.508 131.789C872.93 131.966 873.245 132.201 873.453 132.492C873.661 132.784 873.807 133.13 873.891 133.531C873.943 133.792 873.969 134.247 873.969 134.898V140H872.562V134.953C872.562 134.38 872.508 133.953 872.398 133.672C872.289 133.385 872.094 133.159 871.812 132.992C871.536 132.82 871.211 132.734 870.836 132.734C870.237 132.734 869.719 132.924 869.281 133.305C868.849 133.685 868.633 134.406 868.633 135.469V140H867.227ZM876.133 140V131.703H877.398V132.883C878.008 131.971 878.888 131.516 880.039 131.516C880.539 131.516 880.997 131.607 881.414 131.789C881.836 131.966 882.151 132.201 882.359 132.492C882.568 132.784 882.714 133.13 882.797 133.531C882.849 133.792 882.875 134.247 882.875 134.898V140H881.469V134.953C881.469 134.38 881.414 133.953 881.305 133.672C881.195 133.385 881 133.159 880.719 132.992C880.443 132.82 880.117 132.734 879.742 132.734C879.143 132.734 878.625 132.924 878.188 133.305C877.755 133.685 877.539 134.406 877.539 135.469V140H876.133ZM890.719 137.328L892.172 137.508C891.943 138.357 891.518 139.016 890.898 139.484C890.279 139.953 889.487 140.188 888.523 140.188C887.31 140.188 886.346 139.815 885.633 139.07C884.924 138.32 884.57 137.271 884.57 135.922C884.57 134.526 884.93 133.443 885.648 132.672C886.367 131.901 887.299 131.516 888.445 131.516C889.555 131.516 890.461 131.893 891.164 132.648C891.867 133.404 892.219 134.466 892.219 135.836C892.219 135.919 892.216 136.044 892.211 136.211H886.023C886.076 137.122 886.333 137.82 886.797 138.305C887.26 138.789 887.839 139.031 888.531 139.031C889.047 139.031 889.487 138.896 889.852 138.625C890.216 138.354 890.505 137.922 890.719 137.328ZM886.102 135.055H890.734C890.672 134.357 890.495 133.833 890.203 133.484C889.755 132.943 889.174 132.672 888.461 132.672C887.815 132.672 887.271 132.888 886.828 133.32C886.391 133.753 886.148 134.331 886.102 135.055ZM899.359 138.977C898.839 139.419 898.336 139.732 897.852 139.914C897.372 140.096 896.857 140.188 896.305 140.188C895.393 140.188 894.693 139.966 894.203 139.523C893.714 139.076 893.469 138.505 893.469 137.812C893.469 137.406 893.56 137.036 893.742 136.703C893.93 136.365 894.172 136.094 894.469 135.891C894.771 135.688 895.109 135.534 895.484 135.43C895.76 135.357 896.177 135.286 896.734 135.219C897.87 135.083 898.706 134.922 899.242 134.734C899.247 134.542 899.25 134.419 899.25 134.367C899.25 133.794 899.117 133.391 898.852 133.156C898.492 132.839 897.958 132.68 897.25 132.68C896.589 132.68 896.099 132.797 895.781 133.031C895.469 133.26 895.237 133.669 895.086 134.258L893.711 134.07C893.836 133.482 894.042 133.008 894.328 132.648C894.615 132.284 895.029 132.005 895.57 131.812C896.112 131.615 896.74 131.516 897.453 131.516C898.161 131.516 898.737 131.599 899.18 131.766C899.622 131.932 899.948 132.143 900.156 132.398C900.365 132.648 900.51 132.966 900.594 133.352C900.641 133.591 900.664 134.023 900.664 134.648V136.523C900.664 137.831 900.693 138.659 900.75 139.008C900.812 139.352 900.932 139.682 901.109 140H899.641C899.495 139.708 899.401 139.367 899.359 138.977ZM899.242 135.836C898.732 136.044 897.966 136.221 896.945 136.367C896.367 136.451 895.958 136.544 895.719 136.648C895.479 136.753 895.294 136.906 895.164 137.109C895.034 137.307 894.969 137.529 894.969 137.773C894.969 138.148 895.109 138.461 895.391 138.711C895.677 138.961 896.094 139.086 896.641 139.086C897.182 139.086 897.664 138.969 898.086 138.734C898.508 138.495 898.818 138.169 899.016 137.758C899.167 137.44 899.242 136.971 899.242 136.352V135.836ZM908.289 140V138.781C907.643 139.719 906.766 140.188 905.656 140.188C905.167 140.188 904.708 140.094 904.281 139.906C903.859 139.719 903.544 139.484 903.336 139.203C903.133 138.917 902.99 138.568 902.906 138.156C902.849 137.88 902.82 137.443 902.82 136.844V131.703H904.227V136.305C904.227 137.039 904.255 137.534 904.312 137.789C904.401 138.159 904.589 138.451 904.875 138.664C905.161 138.872 905.516 138.977 905.938 138.977C906.359 138.977 906.755 138.87 907.125 138.656C907.495 138.438 907.755 138.143 907.906 137.773C908.062 137.398 908.141 136.857 908.141 136.148V131.703H909.547V140H908.289ZM910.82 140L913.852 135.688L911.047 131.703H912.805L914.078 133.648C914.318 134.018 914.51 134.328 914.656 134.578C914.885 134.234 915.096 133.93 915.289 133.664L916.688 131.703H918.367L915.5 135.609L918.586 140H916.859L915.156 137.422L914.703 136.727L912.523 140H910.82ZM924.18 140V128.547H925.586V140H924.18ZM933.188 138.977C932.667 139.419 932.164 139.732 931.68 139.914C931.201 140.096 930.685 140.188 930.133 140.188C929.221 140.188 928.521 139.966 928.031 139.523C927.542 139.076 927.297 138.505 927.297 137.812C927.297 137.406 927.388 137.036 927.57 136.703C927.758 136.365 928 136.094 928.297 135.891C928.599 135.688 928.938 135.534 929.312 135.43C929.589 135.357 930.005 135.286 930.562 135.219C931.698 135.083 932.534 134.922 933.07 134.734C933.076 134.542 933.078 134.419 933.078 134.367C933.078 133.794 932.945 133.391 932.68 133.156C932.32 132.839 931.786 132.68 931.078 132.68C930.417 132.68 929.927 132.797 929.609 133.031C929.297 133.26 929.065 133.669 928.914 134.258L927.539 134.07C927.664 133.482 927.87 133.008 928.156 132.648C928.443 132.284 928.857 132.005 929.398 131.812C929.94 131.615 930.568 131.516 931.281 131.516C931.99 131.516 932.565 131.599 933.008 131.766C933.451 131.932 933.776 132.143 933.984 132.398C934.193 132.648 934.339 132.966 934.422 133.352C934.469 133.591 934.492 134.023 934.492 134.648V136.523C934.492 137.831 934.521 138.659 934.578 139.008C934.641 139.352 934.76 139.682 934.938 140H933.469C933.323 139.708 933.229 139.367 933.188 138.977ZM933.07 135.836C932.56 136.044 931.794 136.221 930.773 136.367C930.195 136.451 929.786 136.544 929.547 136.648C929.307 136.753 929.122 136.906 928.992 137.109C928.862 137.307 928.797 137.529 928.797 137.773C928.797 138.148 928.938 138.461 929.219 138.711C929.505 138.961 929.922 139.086 930.469 139.086C931.01 139.086 931.492 138.969 931.914 138.734C932.336 138.495 932.646 138.169 932.844 137.758C932.995 137.44 933.07 136.971 933.07 136.352V135.836ZM939.75 138.742L939.953 139.984C939.557 140.068 939.203 140.109 938.891 140.109C938.38 140.109 937.984 140.029 937.703 139.867C937.422 139.706 937.224 139.495 937.109 139.234C936.995 138.969 936.938 138.414 936.938 137.57V132.797H935.906V131.703H936.938V129.648L938.336 128.805V131.703H939.75V132.797H938.336V137.648C938.336 138.049 938.359 138.307 938.406 138.422C938.458 138.536 938.539 138.628 938.648 138.695C938.763 138.763 938.924 138.797 939.133 138.797C939.289 138.797 939.495 138.779 939.75 138.742ZM946.812 137.328L948.266 137.508C948.036 138.357 947.612 139.016 946.992 139.484C946.372 139.953 945.581 140.188 944.617 140.188C943.404 140.188 942.44 139.815 941.727 139.07C941.018 138.32 940.664 137.271 940.664 135.922C940.664 134.526 941.023 133.443 941.742 132.672C942.461 131.901 943.393 131.516 944.539 131.516C945.648 131.516 946.555 131.893 947.258 132.648C947.961 133.404 948.312 134.466 948.312 135.836C948.312 135.919 948.31 136.044 948.305 136.211H942.117C942.169 137.122 942.427 137.82 942.891 138.305C943.354 138.789 943.932 139.031 944.625 139.031C945.141 139.031 945.581 138.896 945.945 138.625C946.31 138.354 946.599 137.922 946.812 137.328ZM942.195 135.055H946.828C946.766 134.357 946.589 133.833 946.297 133.484C945.849 132.943 945.268 132.672 944.555 132.672C943.909 132.672 943.365 132.888 942.922 133.32C942.484 133.753 942.242 134.331 942.195 135.055ZM943.711 130.672L944.75 128.484H946.594L944.875 130.672H943.711ZM950.023 140V131.703H951.289V132.961C951.612 132.372 951.909 131.984 952.18 131.797C952.456 131.609 952.758 131.516 953.086 131.516C953.56 131.516 954.042 131.667 954.531 131.969L954.047 133.273C953.703 133.07 953.359 132.969 953.016 132.969C952.708 132.969 952.432 133.062 952.188 133.25C951.943 133.432 951.768 133.688 951.664 134.016C951.508 134.516 951.43 135.062 951.43 135.656V140H950.023ZM960.781 138.977C960.26 139.419 959.758 139.732 959.273 139.914C958.794 140.096 958.279 140.188 957.727 140.188C956.815 140.188 956.115 139.966 955.625 139.523C955.135 139.076 954.891 138.505 954.891 137.812C954.891 137.406 954.982 137.036 955.164 136.703C955.352 136.365 955.594 136.094 955.891 135.891C956.193 135.688 956.531 135.534 956.906 135.43C957.182 135.357 957.599 135.286 958.156 135.219C959.292 135.083 960.128 134.922 960.664 134.734C960.669 134.542 960.672 134.419 960.672 134.367C960.672 133.794 960.539 133.391 960.273 133.156C959.914 132.839 959.38 132.68 958.672 132.68C958.01 132.68 957.521 132.797 957.203 133.031C956.891 133.26 956.659 133.669 956.508 134.258L955.133 134.07C955.258 133.482 955.464 133.008 955.75 132.648C956.036 132.284 956.451 132.005 956.992 131.812C957.534 131.615 958.161 131.516 958.875 131.516C959.583 131.516 960.159 131.599 960.602 131.766C961.044 131.932 961.37 132.143 961.578 132.398C961.786 132.648 961.932 132.966 962.016 133.352C962.062 133.591 962.086 134.023 962.086 134.648V136.523C962.086 137.831 962.115 138.659 962.172 139.008C962.234 139.352 962.354 139.682 962.531 140H961.062C960.917 139.708 960.823 139.367 960.781 138.977ZM960.664 135.836C960.154 136.044 959.388 136.221 958.367 136.367C957.789 136.451 957.38 136.544 957.141 136.648C956.901 136.753 956.716 136.906 956.586 137.109C956.456 137.307 956.391 137.529 956.391 137.773C956.391 138.148 956.531 138.461 956.812 138.711C957.099 138.961 957.516 139.086 958.062 139.086C958.604 139.086 959.086 138.969 959.508 138.734C959.93 138.495 960.24 138.169 960.438 137.758C960.589 137.44 960.664 136.971 960.664 136.352V135.836ZM969.711 140V138.781C969.065 139.719 968.188 140.188 967.078 140.188C966.589 140.188 966.13 140.094 965.703 139.906C965.281 139.719 964.966 139.484 964.758 139.203C964.555 138.917 964.411 138.568 964.328 138.156C964.271 137.88 964.242 137.443 964.242 136.844V131.703H965.648V136.305C965.648 137.039 965.677 137.534 965.734 137.789C965.823 138.159 966.01 138.451 966.297 138.664C966.583 138.872 966.938 138.977 967.359 138.977C967.781 138.977 968.177 138.87 968.547 138.656C968.917 138.438 969.177 138.143 969.328 137.773C969.484 137.398 969.562 136.857 969.562 136.148V131.703H970.969V140H969.711ZM972.242 140L975.273 135.688L972.469 131.703H974.227L975.5 133.648C975.74 134.018 975.932 134.328 976.078 134.578C976.307 134.234 976.518 133.93 976.711 133.664L978.109 131.703H979.789L976.922 135.609L980.008 140H978.281L976.578 137.422L976.125 136.727L973.945 140H972.242Z" fill="#3E3E3D"/>
<rect width="579.5" height="1" transform="translate(579.5 158)" fill="white"/>
<g opacity="0.5">
<path d="M579.5 158.5H1159" stroke="#CDCCCB"/>
</g>
</g>
<rect x="0.5" y="0.5" width="1158" height="158" rx="7.5" stroke="#CDCCCB"/>
<defs>
<clipPath id="clip0_353_46396">
<rect width="1159" height="159" rx="8" fill="white"/>
</clipPath>
</defs>
</svg>
