<svg width="1159" height="159" viewBox="0 0 1159 159" fill="none" xmlns="http://www.w3.org/2000/svg">
<g clip-path="url(#clip0_353_46475)">
<rect width="579.5" height="61" fill="white"/>
<path d="M18.74 37.14C18.3933 37.14 18.12 37.0467 17.92 36.86C17.7333 36.6733 17.64 36.4 17.64 36.04V24.02C17.64 23.66 17.7333 23.3867 17.92 23.2C18.12 23 18.4 22.9 18.76 22.9H25.88C26.1733 22.9 26.3867 22.9733 26.52 23.12C26.6667 23.2533 26.74 23.4533 26.74 23.72C26.74 24 26.6667 24.2133 26.52 24.36C26.3867 24.5067 26.1733 24.58 25.88 24.58H19.72V29.08H25.48C25.7467 29.08 25.9533 29.1533 26.1 29.3C26.26 29.4333 26.34 29.6333 26.34 29.9C26.34 30.18 26.26 30.3933 26.1 30.54C25.9533 30.6867 25.7467 30.76 25.48 30.76H19.72V36.04C19.72 36.7733 19.3933 37.14 18.74 37.14ZM31.8631 37.18C30.8765 37.18 30.0231 36.9733 29.3031 36.56C28.5965 36.1467 28.0431 35.56 27.6431 34.8C27.2431 34.04 27.0431 33.1467 27.0431 32.12C27.0431 31.3333 27.1565 30.6333 27.3831 30.02C27.6098 29.4067 27.9298 28.88 28.3431 28.44C28.7698 27.9867 29.2765 27.6467 29.8631 27.42C30.4631 27.18 31.1298 27.06 31.8631 27.06C32.8365 27.06 33.6765 27.2667 34.3831 27.68C35.1031 28.0933 35.6631 28.68 36.0631 29.44C36.4631 30.1867 36.6631 31.08 36.6631 32.12C36.6631 32.8933 36.5498 33.5933 36.3231 34.22C36.0965 34.8467 35.7698 35.38 35.3431 35.82C34.9298 36.26 34.4231 36.6 33.8231 36.84C33.2365 37.0667 32.5831 37.18 31.8631 37.18ZM31.8631 35.62C32.4098 35.62 32.8898 35.4867 33.3031 35.22C33.7165 34.9533 34.0365 34.56 34.2631 34.04C34.5031 33.52 34.6231 32.88 34.6231 32.12C34.6231 30.9733 34.3698 30.1067 33.8631 29.52C33.3565 28.9333 32.6898 28.64 31.8631 28.64C31.3031 28.64 30.8165 28.7733 30.4031 29.04C29.9898 29.2933 29.6631 29.68 29.4231 30.2C29.1965 30.72 29.0831 31.36 29.0831 32.12C29.0831 33.2533 29.3365 34.12 29.8431 34.72C30.3498 35.32 31.0231 35.62 31.8631 35.62ZM39.4317 37.14C39.1117 37.14 38.8651 37.0533 38.6917 36.88C38.5184 36.6933 38.4317 36.44 38.4317 36.12V28.12C38.4317 27.7867 38.5184 27.5333 38.6917 27.36C38.8651 27.1867 39.1051 27.1 39.4117 27.1C39.7317 27.1 39.9717 27.1867 40.1317 27.36C40.3051 27.5333 40.3917 27.7867 40.3917 28.12V29.68L40.1717 29.32C40.4651 28.5733 40.9251 28.0133 41.5517 27.64C42.1784 27.2533 42.8984 27.06 43.7117 27.06C44.4851 27.06 45.1251 27.2067 45.6317 27.5C46.1517 27.78 46.5384 28.2133 46.7917 28.8C47.0451 29.3733 47.1717 30.1 47.1717 30.98V36.12C47.1717 36.44 47.0851 36.6933 46.9117 36.88C46.7384 37.0533 46.4917 37.14 46.1717 37.14C45.8384 37.14 45.5851 37.0533 45.4117 36.88C45.2384 36.6933 45.1517 36.44 45.1517 36.12V31.1C45.1517 30.26 44.9851 29.6467 44.6517 29.26C44.3317 28.8733 43.8251 28.68 43.1317 28.68C42.3184 28.68 41.6651 28.9333 41.1717 29.44C40.6917 29.9467 40.4517 30.6267 40.4517 31.48V36.12C40.4517 36.8 40.1117 37.14 39.4317 37.14ZM53.7552 37.18C52.7552 37.18 51.8885 36.9733 51.1552 36.56C50.4352 36.1333 49.8752 35.54 49.4752 34.78C49.0752 34.0067 48.8752 33.1 48.8752 32.06C48.8752 31.2867 48.9885 30.5933 49.2152 29.98C49.4418 29.3533 49.7618 28.8267 50.1752 28.4C50.6018 27.9733 51.1152 27.6467 51.7152 27.42C52.3285 27.18 53.0085 27.06 53.7552 27.06C54.2218 27.06 54.7085 27.1333 55.2152 27.28C55.7352 27.4133 56.2152 27.64 56.6552 27.96C56.8285 28.0667 56.9352 28.2 56.9752 28.36C57.0285 28.5067 57.0352 28.66 56.9952 28.82C56.9685 28.98 56.8952 29.12 56.7752 29.24C56.6685 29.3467 56.5352 29.4133 56.3752 29.44C56.2152 29.4533 56.0418 29.4067 55.8552 29.3C55.5352 29.0733 55.2085 28.9133 54.8752 28.82C54.5418 28.7133 54.2218 28.66 53.9152 28.66C53.4352 28.66 53.0085 28.74 52.6352 28.9C52.2752 29.0467 51.9685 29.2667 51.7152 29.56C51.4618 29.84 51.2685 30.1933 51.1352 30.62C51.0152 31.0467 50.9552 31.5333 50.9552 32.08C50.9552 33.1733 51.2085 34.0333 51.7152 34.66C52.2352 35.2733 52.9685 35.58 53.9152 35.58C54.2218 35.58 54.5418 35.5333 54.8752 35.44C55.2085 35.3467 55.5352 35.1867 55.8552 34.96C56.0418 34.8533 56.2152 34.8133 56.3752 34.84C56.5352 34.8667 56.6618 34.94 56.7552 35.06C56.8618 35.1667 56.9285 35.3 56.9552 35.46C56.9952 35.6067 56.9885 35.76 56.9352 35.92C56.8818 36.08 56.7685 36.2133 56.5952 36.32C56.1685 36.6267 55.7018 36.8467 55.1952 36.98C54.7018 37.1133 54.2218 37.18 53.7552 37.18ZM62.4706 37.18C61.6706 37.18 60.9973 37.04 60.4506 36.76C59.904 36.48 59.4973 36.0667 59.2306 35.52C58.964 34.9733 58.8306 34.3067 58.8306 33.52V28.8H57.6306C57.364 28.8 57.1573 28.7333 57.0106 28.6C56.864 28.4533 56.7906 28.26 56.7906 28.02C56.7906 27.7667 56.864 27.5733 57.0106 27.44C57.1573 27.3067 57.364 27.24 57.6306 27.24H58.8306V25.18C58.8306 24.8467 58.9173 24.5933 59.0906 24.42C59.2773 24.2467 59.5306 24.16 59.8506 24.16C60.1706 24.16 60.4173 24.2467 60.5906 24.42C60.764 24.5933 60.8506 24.8467 60.8506 25.18V27.24H63.1906C63.4573 27.24 63.664 27.3067 63.8106 27.44C63.9573 27.5733 64.0306 27.7667 64.0306 28.02C64.0306 28.26 63.9573 28.4533 63.8106 28.6C63.664 28.7333 63.4573 28.8 63.1906 28.8H60.8506V33.36C60.8506 34.0667 60.9973 34.6 61.2906 34.96C61.5973 35.32 62.0906 35.5 62.7706 35.5C63.0106 35.5 63.2173 35.48 63.3906 35.44C63.5773 35.3867 63.7306 35.3533 63.8506 35.34C63.9973 35.34 64.1173 35.3933 64.2106 35.5C64.304 35.5933 64.3506 35.78 64.3506 36.06C64.3506 36.26 64.3106 36.4467 64.2306 36.62C64.164 36.7933 64.0373 36.9067 63.8506 36.96C63.6906 37.0133 63.4706 37.06 63.1906 37.1C62.924 37.1533 62.684 37.18 62.4706 37.18ZM66.2911 37.12C65.9711 37.12 65.7244 37.0267 65.5511 36.84C65.3778 36.64 65.2911 36.3667 65.2911 36.02V28.22C65.2911 27.8733 65.3778 27.6067 65.5511 27.42C65.7244 27.2333 65.9711 27.14 66.2911 27.14C66.6111 27.14 66.8578 27.2333 67.0311 27.42C67.2178 27.6067 67.3111 27.8733 67.3111 28.22V36.02C67.3111 36.3667 67.2244 36.64 67.0511 36.84C66.8778 37.0267 66.6244 37.12 66.2911 37.12ZM66.2911 25.06C65.8911 25.06 65.5778 24.96 65.3511 24.76C65.1378 24.56 65.0311 24.28 65.0311 23.92C65.0311 23.5467 65.1378 23.2667 65.3511 23.08C65.5778 22.88 65.8911 22.78 66.2911 22.78C66.6911 22.78 66.9978 22.88 67.2111 23.08C67.4378 23.2667 67.5511 23.5467 67.5511 23.92C67.5511 24.28 67.4378 24.56 67.2111 24.76C66.9978 24.96 66.6911 25.06 66.2911 25.06ZM73.8944 37.18C72.9077 37.18 72.0544 36.9733 71.3344 36.56C70.6277 36.1467 70.0744 35.56 69.6744 34.8C69.2744 34.04 69.0744 33.1467 69.0744 32.12C69.0744 31.3333 69.1877 30.6333 69.4144 30.02C69.641 29.4067 69.961 28.88 70.3744 28.44C70.801 27.9867 71.3077 27.6467 71.8944 27.42C72.4944 27.18 73.161 27.06 73.8944 27.06C74.8677 27.06 75.7077 27.2667 76.4144 27.68C77.1344 28.0933 77.6944 28.68 78.0944 29.44C78.4944 30.1867 78.6944 31.08 78.6944 32.12C78.6944 32.8933 78.581 33.5933 78.3544 34.22C78.1277 34.8467 77.801 35.38 77.3744 35.82C76.961 36.26 76.4544 36.6 75.8544 36.84C75.2677 37.0667 74.6144 37.18 73.8944 37.18ZM73.8944 35.62C74.441 35.62 74.921 35.4867 75.3344 35.22C75.7477 34.9533 76.0677 34.56 76.2944 34.04C76.5344 33.52 76.6544 32.88 76.6544 32.12C76.6544 30.9733 76.401 30.1067 75.8944 29.52C75.3877 28.9333 74.721 28.64 73.8944 28.64C73.3344 28.64 72.8477 28.7733 72.4344 29.04C72.021 29.2933 71.6944 29.68 71.4544 30.2C71.2277 30.72 71.1144 31.36 71.1144 32.12C71.1144 33.2533 71.3677 34.12 71.8744 34.72C72.381 35.32 73.0544 35.62 73.8944 35.62ZM81.463 37.14C81.143 37.14 80.8963 37.0533 80.723 36.88C80.5496 36.6933 80.463 36.44 80.463 36.12V28.12C80.463 27.7867 80.5496 27.5333 80.723 27.36C80.8963 27.1867 81.1363 27.1 81.443 27.1C81.763 27.1 82.003 27.1867 82.163 27.36C82.3363 27.5333 82.423 27.7867 82.423 28.12V29.68L82.203 29.32C82.4963 28.5733 82.9563 28.0133 83.583 27.64C84.2096 27.2533 84.9296 27.06 85.743 27.06C86.5163 27.06 87.1563 27.2067 87.663 27.5C88.183 27.78 88.5696 28.2133 88.823 28.8C89.0763 29.3733 89.203 30.1 89.203 30.98V36.12C89.203 36.44 89.1163 36.6933 88.943 36.88C88.7696 37.0533 88.523 37.14 88.203 37.14C87.8696 37.14 87.6163 37.0533 87.443 36.88C87.2696 36.6933 87.183 36.44 87.183 36.12V31.1C87.183 30.26 87.0163 29.6467 86.683 29.26C86.363 28.8733 85.8563 28.68 85.163 28.68C84.3496 28.68 83.6963 28.9333 83.203 29.44C82.723 29.9467 82.483 30.6267 82.483 31.48V36.12C82.483 36.8 82.143 37.14 81.463 37.14ZM99.3798 37.18C98.6998 37.18 98.0865 37.0467 97.5398 36.78C97.0065 36.5133 96.5865 36.1533 96.2798 35.7C95.9732 35.2467 95.8198 34.7333 95.8198 34.16C95.8198 33.44 95.9998 32.8733 96.3598 32.46C96.7332 32.0333 97.3398 31.7333 98.1798 31.56C99.0332 31.3733 100.18 31.28 101.62 31.28H102.56V32.52H101.64C100.68 32.52 99.9198 32.5667 99.3598 32.66C98.7998 32.7533 98.3998 32.9133 98.1598 33.14C97.9332 33.3533 97.8198 33.6533 97.8198 34.04C97.8198 34.5467 97.9932 34.96 98.3398 35.28C98.6865 35.5867 99.1665 35.74 99.7798 35.74C100.273 35.74 100.707 35.6267 101.08 35.4C101.453 35.16 101.747 34.84 101.96 34.44C102.187 34.04 102.3 33.58 102.3 33.06V30.76C102.3 30 102.14 29.4533 101.82 29.12C101.5 28.7867 100.973 28.62 100.24 28.62C99.8132 28.62 99.3665 28.6733 98.8998 28.78C98.4465 28.8867 97.9732 29.0667 97.4798 29.32C97.2532 29.4267 97.0598 29.46 96.8998 29.42C96.7398 29.38 96.6132 29.2933 96.5198 29.16C96.4265 29.0133 96.3732 28.86 96.3598 28.7C96.3598 28.5267 96.3998 28.36 96.4798 28.2C96.5732 28.04 96.7265 27.92 96.9398 27.84C97.5265 27.56 98.1065 27.36 98.6798 27.24C99.2532 27.12 99.7932 27.06 100.3 27.06C101.193 27.06 101.927 27.2 102.5 27.48C103.087 27.76 103.52 28.1867 103.8 28.76C104.08 29.3333 104.22 30.0733 104.22 30.98V36.12C104.22 36.44 104.14 36.6933 103.98 36.88C103.82 37.0533 103.587 37.14 103.28 37.14C102.987 37.14 102.753 37.0533 102.58 36.88C102.407 36.6933 102.32 36.44 102.32 36.12V34.82H102.5C102.393 35.3133 102.193 35.74 101.9 36.1C101.62 36.4467 101.267 36.7133 100.84 36.9C100.413 37.0867 99.9265 37.18 99.3798 37.18ZM110.662 37.18C109.862 37.18 109.189 37.04 108.642 36.76C108.095 36.48 107.689 36.0667 107.422 35.52C107.155 34.9733 107.022 34.3067 107.022 33.52V28.8H105.822C105.555 28.8 105.349 28.7333 105.202 28.6C105.055 28.4533 104.982 28.26 104.982 28.02C104.982 27.7667 105.055 27.5733 105.202 27.44C105.349 27.3067 105.555 27.24 105.822 27.24H107.022V25.18C107.022 24.8467 107.109 24.5933 107.282 24.42C107.469 24.2467 107.722 24.16 108.042 24.16C108.362 24.16 108.609 24.2467 108.782 24.42C108.955 24.5933 109.042 24.8467 109.042 25.18V27.24H111.382C111.649 27.24 111.855 27.3067 112.002 27.44C112.149 27.5733 112.222 27.7667 112.222 28.02C112.222 28.26 112.149 28.4533 112.002 28.6C111.855 28.7333 111.649 28.8 111.382 28.8H109.042V33.36C109.042 34.0667 109.189 34.6 109.482 34.96C109.789 35.32 110.282 35.5 110.962 35.5C111.202 35.5 111.409 35.48 111.582 35.44C111.769 35.3867 111.922 35.3533 112.042 35.34C112.189 35.34 112.309 35.3933 112.402 35.5C112.495 35.5933 112.542 35.78 112.542 36.06C112.542 36.26 112.502 36.4467 112.422 36.62C112.355 36.7933 112.229 36.9067 112.042 36.96C111.882 37.0133 111.662 37.06 111.382 37.1C111.115 37.1533 110.875 37.18 110.662 37.18ZM117.076 37.18C116.276 37.18 115.603 37.04 115.056 36.76C114.509 36.48 114.103 36.0667 113.836 35.52C113.569 34.9733 113.436 34.3067 113.436 33.52V28.8H112.236C111.969 28.8 111.763 28.7333 111.616 28.6C111.469 28.4533 111.396 28.26 111.396 28.02C111.396 27.7667 111.469 27.5733 111.616 27.44C111.763 27.3067 111.969 27.24 112.236 27.24H113.436V25.18C113.436 24.8467 113.523 24.5933 113.696 24.42C113.883 24.2467 114.136 24.16 114.456 24.16C114.776 24.16 115.023 24.2467 115.196 24.42C115.369 24.5933 115.456 24.8467 115.456 25.18V27.24H117.796C118.063 27.24 118.269 27.3067 118.416 27.44C118.563 27.5733 118.636 27.7667 118.636 28.02C118.636 28.26 118.563 28.4533 118.416 28.6C118.269 28.7333 118.063 28.8 117.796 28.8H115.456V33.36C115.456 34.0667 115.603 34.6 115.896 34.96C116.203 35.32 116.696 35.5 117.376 35.5C117.616 35.5 117.823 35.48 117.996 35.44C118.183 35.3867 118.336 35.3533 118.456 35.34C118.603 35.34 118.723 35.3933 118.816 35.5C118.909 35.5933 118.956 35.78 118.956 36.06C118.956 36.26 118.916 36.4467 118.836 36.62C118.769 36.7933 118.643 36.9067 118.456 36.96C118.296 37.0133 118.076 37.06 117.796 37.1C117.529 37.1533 117.289 37.18 117.076 37.18ZM124.203 37.18C123.136 37.18 122.216 36.98 121.443 36.58C120.683 36.1667 120.09 35.5867 119.663 34.84C119.25 34.08 119.043 33.18 119.043 32.14C119.043 31.1267 119.25 30.24 119.663 29.48C120.076 28.72 120.643 28.1267 121.363 27.7C122.083 27.2733 122.903 27.06 123.823 27.06C124.503 27.06 125.11 27.1733 125.643 27.4C126.176 27.6133 126.63 27.9333 127.003 28.36C127.39 28.7733 127.676 29.28 127.863 29.88C128.063 30.48 128.163 31.1533 128.163 31.9C128.163 32.1267 128.096 32.3 127.963 32.42C127.83 32.5267 127.63 32.58 127.363 32.58H120.643V31.34H126.803L126.463 31.62C126.463 30.9533 126.363 30.3867 126.163 29.92C125.976 29.4533 125.69 29.1 125.303 28.86C124.93 28.6067 124.463 28.48 123.903 28.48C123.276 28.48 122.743 28.6267 122.303 28.92C121.876 29.2133 121.55 29.62 121.323 30.14C121.096 30.66 120.983 31.2667 120.983 31.96V32.08C120.983 33.2533 121.256 34.14 121.803 34.74C122.363 35.3267 123.17 35.62 124.223 35.62C124.623 35.62 125.043 35.5667 125.483 35.46C125.936 35.3533 126.363 35.1733 126.763 34.92C126.99 34.7867 127.19 34.7267 127.363 34.74C127.55 34.7533 127.696 34.8133 127.803 34.92C127.923 35.0267 127.996 35.16 128.023 35.32C128.05 35.48 128.023 35.6467 127.943 35.82C127.863 35.98 127.723 36.1267 127.523 36.26C127.07 36.5667 126.543 36.8 125.943 36.96C125.343 37.1067 124.763 37.18 124.203 37.18ZM130.865 37.14C130.545 37.14 130.299 37.0533 130.125 36.88C129.952 36.6933 129.865 36.44 129.865 36.12V28.12C129.865 27.7867 129.952 27.5333 130.125 27.36C130.299 27.1867 130.539 27.1 130.845 27.1C131.165 27.1 131.405 27.1867 131.565 27.36C131.739 27.5333 131.825 27.7867 131.825 28.12V29.68L131.605 29.32C131.899 28.5733 132.359 28.0133 132.985 27.64C133.612 27.2533 134.332 27.06 135.145 27.06C135.919 27.06 136.559 27.2067 137.065 27.5C137.585 27.78 137.972 28.2133 138.225 28.8C138.479 29.3733 138.605 30.1 138.605 30.98V36.12C138.605 36.44 138.519 36.6933 138.345 36.88C138.172 37.0533 137.925 37.14 137.605 37.14C137.272 37.14 137.019 37.0533 136.845 36.88C136.672 36.6933 136.585 36.44 136.585 36.12V31.1C136.585 30.26 136.419 29.6467 136.085 29.26C135.765 28.8733 135.259 28.68 134.565 28.68C133.752 28.68 133.099 28.9333 132.605 29.44C132.125 29.9467 131.885 30.6267 131.885 31.48V36.12C131.885 36.8 131.545 37.14 130.865 37.14ZM144.609 37.18C143.755 37.18 143.002 36.98 142.349 36.58C141.709 36.1667 141.209 35.58 140.849 34.82C140.489 34.0467 140.309 33.1467 140.309 32.12C140.309 31.0667 140.489 30.1667 140.849 29.42C141.209 28.6733 141.709 28.0933 142.349 27.68C143.002 27.2667 143.755 27.06 144.609 27.06C145.462 27.06 146.195 27.2733 146.809 27.7C147.435 28.1133 147.855 28.6733 148.069 29.38H147.849V23.78C147.849 23.4467 147.935 23.1933 148.109 23.02C148.282 22.8467 148.529 22.76 148.849 22.76C149.169 22.76 149.415 22.8467 149.589 23.02C149.775 23.1933 149.869 23.4467 149.869 23.78V36.12C149.869 36.44 149.782 36.6933 149.609 36.88C149.435 37.0533 149.189 37.14 148.869 37.14C148.549 37.14 148.302 37.0533 148.129 36.88C147.955 36.6933 147.869 36.44 147.869 36.12V34.36L148.089 34.8C147.875 35.52 147.455 36.1 146.829 36.54C146.215 36.9667 145.475 37.18 144.609 37.18ZM145.129 35.62C145.675 35.62 146.155 35.4867 146.569 35.22C146.982 34.9533 147.302 34.56 147.529 34.04C147.769 33.52 147.889 32.88 147.889 32.12C147.889 30.9733 147.635 30.1067 147.129 29.52C146.622 28.9333 145.955 28.64 145.129 28.64C144.569 28.64 144.082 28.7733 143.669 29.04C143.255 29.2933 142.929 29.68 142.689 30.2C142.462 30.72 142.349 31.36 142.349 32.12C142.349 33.2533 142.602 34.12 143.109 34.72C143.615 35.32 144.289 35.62 145.129 35.62ZM155.685 37.18C154.898 37.18 154.238 37.0333 153.705 36.74C153.185 36.4467 152.792 36.0133 152.525 35.44C152.272 34.8533 152.145 34.12 152.145 33.24V28.12C152.145 27.7733 152.232 27.52 152.405 27.36C152.578 27.1867 152.825 27.1 153.145 27.1C153.465 27.1 153.712 27.1867 153.885 27.36C154.072 27.52 154.165 27.7733 154.165 28.12V33.26C154.165 34.0467 154.325 34.6267 154.645 35C154.965 35.3733 155.472 35.56 156.165 35.56C156.925 35.56 157.538 35.3067 158.005 34.8C158.485 34.28 158.725 33.6 158.725 32.76V28.12C158.725 27.7733 158.812 27.52 158.985 27.36C159.158 27.1867 159.412 27.1 159.745 27.1C160.065 27.1 160.312 27.1867 160.485 27.36C160.658 27.52 160.745 27.7733 160.745 28.12V36.12C160.745 36.8 160.418 37.14 159.765 37.14C159.458 37.14 159.218 37.0533 159.045 36.88C158.872 36.6933 158.785 36.44 158.785 36.12V34.42L159.045 34.86C158.778 35.6067 158.352 36.18 157.765 36.58C157.178 36.98 156.485 37.18 155.685 37.18ZM167.672 37.18C166.605 37.18 165.685 36.98 164.912 36.58C164.152 36.1667 163.559 35.5867 163.132 34.84C162.719 34.08 162.512 33.18 162.512 32.14C162.512 31.1267 162.719 30.24 163.132 29.48C163.545 28.72 164.112 28.1267 164.832 27.7C165.552 27.2733 166.372 27.06 167.292 27.06C167.972 27.06 168.579 27.1733 169.112 27.4C169.645 27.6133 170.099 27.9333 170.472 28.36C170.859 28.7733 171.145 29.28 171.332 29.88C171.532 30.48 171.632 31.1533 171.632 31.9C171.632 32.1267 171.565 32.3 171.432 32.42C171.299 32.5267 171.099 32.58 170.832 32.58H164.112V31.34H170.272L169.932 31.62C169.932 30.9533 169.832 30.3867 169.632 29.92C169.445 29.4533 169.159 29.1 168.772 28.86C168.399 28.6067 167.932 28.48 167.372 28.48C166.745 28.48 166.212 28.6267 165.772 28.92C165.345 29.2133 165.019 29.62 164.792 30.14C164.565 30.66 164.452 31.2667 164.452 31.96V32.08C164.452 33.2533 164.725 34.14 165.272 34.74C165.832 35.3267 166.639 35.62 167.692 35.62C168.092 35.62 168.512 35.5667 168.952 35.46C169.405 35.3533 169.832 35.1733 170.232 34.92C170.459 34.7867 170.659 34.7267 170.832 34.74C171.019 34.7533 171.165 34.8133 171.272 34.92C171.392 35.0267 171.465 35.16 171.492 35.32C171.519 35.48 171.492 35.6467 171.412 35.82C171.332 35.98 171.192 36.1267 170.992 36.26C170.539 36.5667 170.012 36.8 169.412 36.96C168.812 37.1067 168.232 37.18 167.672 37.18Z" fill="#201F1F"/>
<path d="M0 60.5H579.5" stroke="#CDCCCB"/>
<rect width="579.5" height="49" transform="translate(0 61)" fill="white"/>
<path d="M17.1719 91V79.5469H19.4844V84.0547H24.0156V79.5469H26.3281V91H24.0156V85.9922H19.4844V91H17.1719ZM31.3047 91V81.4844H27.9062V79.5469H37.0078V81.4844H33.6172V91H31.3047ZM38.4766 91V79.5469H41.9375L44.0156 87.3594L46.0703 79.5469H49.5391V91H47.3906V81.9844L45.1172 91H42.8906L40.625 81.9844V91H38.4766ZM51.8984 91V79.6406H54.2109V89.0703H59.9609V91H51.8984ZM67.3984 85.2344L65.4062 84.875C65.6302 84.0729 66.0156 83.4792 66.5625 83.0938C67.1094 82.7083 67.9219 82.5156 69 82.5156C69.9792 82.5156 70.7083 82.6328 71.1875 82.8672C71.6667 83.0964 72.0026 83.3906 72.1953 83.75C72.3932 84.1042 72.4922 84.7578 72.4922 85.7109L72.4688 88.2734C72.4688 89.0026 72.5026 89.5417 72.5703 89.8906C72.6432 90.2344 72.776 90.6042 72.9688 91H70.7969C70.7396 90.8542 70.6693 90.638 70.5859 90.3516C70.5495 90.2214 70.5234 90.1354 70.5078 90.0938C70.1328 90.4583 69.7318 90.7318 69.3047 90.9141C68.8776 91.0964 68.4219 91.1875 67.9375 91.1875C67.0833 91.1875 66.4089 90.9557 65.9141 90.4922C65.4245 90.0286 65.1797 89.4427 65.1797 88.7344C65.1797 88.2656 65.2917 87.849 65.5156 87.4844C65.7396 87.1146 66.0521 86.8333 66.4531 86.6406C66.8594 86.4427 67.4427 86.2708 68.2031 86.125C69.2292 85.9323 69.9401 85.7526 70.3359 85.5859V85.3672C70.3359 84.9453 70.2318 84.6458 70.0234 84.4688C69.8151 84.2865 69.4219 84.1953 68.8438 84.1953C68.4531 84.1953 68.1484 84.2734 67.9297 84.4297C67.7109 84.5807 67.5339 84.849 67.3984 85.2344ZM70.3359 87.0156C70.0547 87.1094 69.6094 87.2214 69 87.3516C68.3906 87.4818 67.9922 87.6094 67.8047 87.7344C67.5182 87.9375 67.375 88.1953 67.375 88.5078C67.375 88.8151 67.4896 89.0807 67.7188 89.3047C67.9479 89.5286 68.2396 89.6406 68.5938 89.6406C68.9896 89.6406 69.3672 89.5104 69.7266 89.25C69.9922 89.0521 70.1667 88.8099 70.25 88.5234C70.3073 88.3359 70.3359 87.9792 70.3359 87.4531V87.0156ZM78.4688 82.7031V84.4531H76.9688V87.7969C76.9688 88.474 76.9818 88.8698 77.0078 88.9844C77.0391 89.0938 77.1042 89.1849 77.2031 89.2578C77.3073 89.3307 77.4323 89.3672 77.5781 89.3672C77.7812 89.3672 78.0755 89.2969 78.4609 89.1562L78.6484 90.8594C78.138 91.0781 77.5599 91.1875 76.9141 91.1875C76.5182 91.1875 76.1615 91.1224 75.8438 90.9922C75.526 90.8568 75.2917 90.6849 75.1406 90.4766C74.9948 90.263 74.8932 89.9766 74.8359 89.6172C74.7891 89.362 74.7656 88.8464 74.7656 88.0703V84.4531H73.7578V82.7031H74.7656V81.0547L76.9688 79.7734V82.7031H78.4688ZM83.7969 82.7031V84.4531H82.2969V87.7969C82.2969 88.474 82.3099 88.8698 82.3359 88.9844C82.3672 89.0938 82.4323 89.1849 82.5312 89.2578C82.6354 89.3307 82.7604 89.3672 82.9062 89.3672C83.1094 89.3672 83.4036 89.2969 83.7891 89.1562L83.9766 90.8594C83.4661 91.0781 82.888 91.1875 82.2422 91.1875C81.8464 91.1875 81.4896 91.1224 81.1719 90.9922C80.8542 90.8568 80.6198 90.6849 80.4688 90.4766C80.3229 90.263 80.2214 89.9766 80.1641 89.6172C80.1172 89.362 80.0938 88.8464 80.0938 88.0703V84.4531H79.0859V82.7031H80.0938V81.0547L82.2969 79.7734V82.7031H83.7969ZM90.125 88.3594L92.3125 88.7266C92.0312 89.5286 91.5859 90.1406 90.9766 90.5625C90.3724 90.9792 89.6146 91.1875 88.7031 91.1875C87.2604 91.1875 86.1927 90.7161 85.5 89.7734C84.9531 89.0182 84.6797 88.0651 84.6797 86.9141C84.6797 85.5391 85.0391 84.4635 85.7578 83.6875C86.4766 82.9062 87.3854 82.5156 88.4844 82.5156C89.7188 82.5156 90.6927 82.9245 91.4062 83.7422C92.1198 84.5547 92.4609 85.8021 92.4297 87.4844H86.9297C86.9453 88.1354 87.1224 88.6432 87.4609 89.0078C87.7995 89.3672 88.2214 89.5469 88.7266 89.5469C89.0703 89.5469 89.3594 89.4531 89.5938 89.2656C89.8281 89.0781 90.0052 88.776 90.125 88.3594ZM90.25 86.1406C90.2344 85.5052 90.0703 85.0234 89.7578 84.6953C89.4453 84.362 89.0651 84.1953 88.6172 84.1953C88.138 84.1953 87.7422 84.3698 87.4297 84.7188C87.1172 85.0677 86.9635 85.5417 86.9688 86.1406H90.25ZM101.773 91H99.5781V86.7656C99.5781 85.8698 99.5312 85.2917 99.4375 85.0312C99.3438 84.7656 99.1901 84.5599 98.9766 84.4141C98.7682 84.2682 98.5156 84.1953 98.2188 84.1953C97.8385 84.1953 97.4974 84.2995 97.1953 84.5078C96.8932 84.7161 96.6849 84.9922 96.5703 85.3359C96.4609 85.6797 96.4062 86.3151 96.4062 87.2422V91H94.2109V82.7031H96.25V83.9219C96.974 82.9844 97.8854 82.5156 98.9844 82.5156C99.4688 82.5156 99.9115 82.6042 100.312 82.7812C100.714 82.9531 101.016 83.1745 101.219 83.4453C101.427 83.7161 101.57 84.0234 101.648 84.3672C101.732 84.7109 101.773 85.2031 101.773 85.8438V91ZM111.617 91H109.578V89.7812C109.24 90.2552 108.839 90.6094 108.375 90.8438C107.917 91.0729 107.453 91.1875 106.984 91.1875C106.031 91.1875 105.214 90.8047 104.531 90.0391C103.854 89.2682 103.516 88.1953 103.516 86.8203C103.516 85.4141 103.846 84.3464 104.508 83.6172C105.169 82.8828 106.005 82.5156 107.016 82.5156C107.943 82.5156 108.745 82.901 109.422 83.6719V79.5469H111.617V91ZM105.758 86.6719C105.758 87.5573 105.88 88.1979 106.125 88.5938C106.479 89.1667 106.974 89.4531 107.609 89.4531C108.115 89.4531 108.544 89.2396 108.898 88.8125C109.253 88.3802 109.43 87.737 109.43 86.8828C109.43 85.9297 109.258 85.2448 108.914 84.8281C108.57 84.4062 108.13 84.1953 107.594 84.1953C107.073 84.1953 106.635 84.4036 106.281 84.8203C105.932 85.2318 105.758 85.849 105.758 86.6719ZM119.25 91V89.7578C118.948 90.2005 118.549 90.5495 118.055 90.8047C117.565 91.0599 117.047 91.1875 116.5 91.1875C115.943 91.1875 115.443 91.0651 115 90.8203C114.557 90.5755 114.237 90.2318 114.039 89.7891C113.841 89.3464 113.742 88.7344 113.742 87.9531V82.7031H115.938V86.5156C115.938 87.6823 115.977 88.3984 116.055 88.6641C116.138 88.9245 116.286 89.1328 116.5 89.2891C116.714 89.4401 116.984 89.5156 117.312 89.5156C117.688 89.5156 118.023 89.4141 118.32 89.2109C118.617 89.0026 118.82 88.7474 118.93 88.4453C119.039 88.138 119.094 87.3906 119.094 86.2031V82.7031H121.289V91H119.25Z" fill="#3E3E3D"/>
<g opacity="0.5">
<path d="M0 109.5H579.5" stroke="#CDCCCB"/>
</g>
<rect width="579.5" height="49" transform="translate(0 110)" fill="white"/>
<path d="M17.1719 140V128.547H22.0391C23.263 128.547 24.151 128.651 24.7031 128.859C25.2604 129.062 25.7057 129.427 26.0391 129.953C26.3724 130.479 26.5391 131.081 26.5391 131.758C26.5391 132.617 26.2865 133.328 25.7812 133.891C25.276 134.448 24.5208 134.799 23.5156 134.945C24.0156 135.237 24.4271 135.557 24.75 135.906C25.0781 136.255 25.5182 136.875 26.0703 137.766L27.4688 140H24.7031L23.0312 137.508C22.4375 136.617 22.0312 136.057 21.8125 135.828C21.5938 135.594 21.362 135.435 21.1172 135.352C20.8724 135.263 20.4844 135.219 19.9531 135.219H19.4844V140H17.1719ZM19.4844 133.391H21.1953C22.3047 133.391 22.9974 133.344 23.2734 133.25C23.5495 133.156 23.7656 132.995 23.9219 132.766C24.0781 132.536 24.1562 132.25 24.1562 131.906C24.1562 131.521 24.0521 131.211 23.8438 130.977C23.6406 130.737 23.3516 130.586 22.9766 130.523C22.7891 130.497 22.2266 130.484 21.2891 130.484H19.4844V133.391ZM28.2031 135.734C28.2031 135.005 28.3828 134.299 28.7422 133.617C29.1016 132.935 29.6094 132.414 30.2656 132.055C30.9271 131.695 31.6641 131.516 32.4766 131.516C33.7318 131.516 34.7604 131.924 35.5625 132.742C36.3646 133.555 36.7656 134.583 36.7656 135.828C36.7656 137.083 36.3594 138.125 35.5469 138.953C34.7396 139.776 33.7214 140.188 32.4922 140.188C31.7318 140.188 31.0052 140.016 30.3125 139.672C29.625 139.328 29.1016 138.826 28.7422 138.164C28.3828 137.497 28.2031 136.688 28.2031 135.734ZM30.4531 135.852C30.4531 136.674 30.6484 137.305 31.0391 137.742C31.4297 138.18 31.9115 138.398 32.4844 138.398C33.0573 138.398 33.5365 138.18 33.9219 137.742C34.3125 137.305 34.5078 136.669 34.5078 135.836C34.5078 135.023 34.3125 134.398 33.9219 133.961C33.5365 133.523 33.0573 133.305 32.4844 133.305C31.9115 133.305 31.4297 133.523 31.0391 133.961C30.6484 134.398 30.4531 135.029 30.4531 135.852ZM29.8359 130.656L31.4766 128.352H33.5078L35.125 130.656H33.3594L32.4531 129.492L31.6094 130.656H29.8359ZM38.4922 140V128.547H40.6875V140H38.4922ZM47.75 137.359L49.9375 137.727C49.6562 138.529 49.2109 139.141 48.6016 139.562C47.9974 139.979 47.2396 140.188 46.3281 140.188C44.8854 140.188 43.8177 139.716 43.125 138.773C42.5781 138.018 42.3047 137.065 42.3047 135.914C42.3047 134.539 42.6641 133.464 43.3828 132.688C44.1016 131.906 45.0104 131.516 46.1094 131.516C47.3438 131.516 48.3177 131.924 49.0312 132.742C49.7448 133.555 50.0859 134.802 50.0547 136.484H44.5547C44.5703 137.135 44.7474 137.643 45.0859 138.008C45.4245 138.367 45.8464 138.547 46.3516 138.547C46.6953 138.547 46.9844 138.453 47.2188 138.266C47.4531 138.078 47.6302 137.776 47.75 137.359ZM47.875 135.141C47.8594 134.505 47.6953 134.023 47.3828 133.695C47.0703 133.362 46.6901 133.195 46.2422 133.195C45.763 133.195 45.3672 133.37 45.0547 133.719C44.7422 134.068 44.5885 134.542 44.5938 135.141H47.875ZM66.0547 140H63.5391L62.5391 137.398H57.9609L57.0156 140H54.5625L59.0234 128.547H61.4688L66.0547 140ZM61.7969 135.469L60.2188 131.219L58.6719 135.469H61.7969ZM67.2969 140V128.547H72.1641C73.388 128.547 74.276 128.651 74.8281 128.859C75.3854 129.062 75.8307 129.427 76.1641 129.953C76.4974 130.479 76.6641 131.081 76.6641 131.758C76.6641 132.617 76.4115 133.328 75.9062 133.891C75.401 134.448 74.6458 134.799 73.6406 134.945C74.1406 135.237 74.5521 135.557 74.875 135.906C75.2031 136.255 75.6432 136.875 76.1953 137.766L77.5938 140H74.8281L73.1562 137.508C72.5625 136.617 72.1562 136.057 71.9375 135.828C71.7188 135.594 71.487 135.435 71.2422 135.352C70.9974 135.263 70.6094 135.219 70.0781 135.219H69.6094V140H67.2969ZM69.6094 133.391H71.3203C72.4297 133.391 73.1224 133.344 73.3984 133.25C73.6745 133.156 73.8906 132.995 74.0469 132.766C74.2031 132.536 74.2812 132.25 74.2812 131.906C74.2812 131.521 74.1771 131.211 73.9688 130.977C73.7656 130.737 73.4766 130.586 73.1016 130.523C72.9141 130.497 72.3516 130.484 71.4141 130.484H69.6094V133.391ZM78.7812 140V128.547H81.0938V140H78.7812ZM93.6328 140H91.1172L90.1172 137.398H85.5391L84.5938 140H82.1406L86.6016 128.547H89.0469L93.6328 140ZM89.375 135.469L87.7969 131.219L86.25 135.469H89.375Z" fill="#3E3E3D"/>
<g opacity="0.5">
<path d="M0 158.5H579.5" stroke="#CDCCCB"/>
</g>
<rect width="579.5" height="61" transform="translate(579.5)" fill="white"/>
<path d="M601.84 37.18C601.227 37.18 600.627 37.1333 600.04 37.04C599.453 36.9467 598.9 36.8067 598.38 36.62C597.86 36.42 597.393 36.18 596.98 35.9C596.78 35.7533 596.64 35.5867 596.56 35.4C596.493 35.2133 596.473 35.0333 596.5 34.86C596.54 34.6733 596.62 34.5133 596.74 34.38C596.86 34.2467 597.007 34.1667 597.18 34.14C597.353 34.1 597.547 34.1533 597.76 34.3C598.36 34.6867 598.993 34.9733 599.66 35.16C600.327 35.3333 601.053 35.42 601.84 35.42C602.973 35.42 603.807 35.22 604.34 34.82C604.887 34.4067 605.16 33.8733 605.16 33.22C605.16 32.6867 604.967 32.2667 604.58 31.96C604.193 31.64 603.547 31.3867 602.64 31.2L600.5 30.76C599.233 30.4933 598.287 30.0533 597.66 29.44C597.047 28.8267 596.74 28 596.74 26.96C596.74 26.3333 596.867 25.76 597.12 25.24C597.387 24.72 597.753 24.2733 598.22 23.9C598.687 23.5133 599.247 23.22 599.9 23.02C600.553 22.82 601.267 22.72 602.04 22.72C602.867 22.72 603.64 22.8267 604.36 23.04C605.093 23.2533 605.747 23.58 606.32 24.02C606.493 24.14 606.607 24.2933 606.66 24.48C606.727 24.6533 606.74 24.8267 606.7 25C606.673 25.1733 606.6 25.32 606.48 25.44C606.36 25.56 606.207 25.6333 606.02 25.66C605.833 25.6733 605.627 25.6067 605.4 25.46C604.88 25.1133 604.347 24.8667 603.8 24.72C603.267 24.56 602.673 24.48 602.02 24.48C601.367 24.48 600.793 24.58 600.3 24.78C599.82 24.98 599.447 25.26 599.18 25.62C598.927 25.98 598.8 26.4067 598.8 26.9C598.8 27.46 598.98 27.9067 599.34 28.24C599.7 28.5733 600.3 28.8267 601.14 29L603.26 29.44C604.593 29.72 605.587 30.1533 606.24 30.74C606.893 31.3267 607.22 32.1067 607.22 33.08C607.22 33.7067 607.093 34.2733 606.84 34.78C606.587 35.2733 606.227 35.7 605.76 36.06C605.293 36.42 604.727 36.7 604.06 36.9C603.407 37.0867 602.667 37.18 601.84 37.18ZM609.861 40.74C609.541 40.74 609.295 40.6533 609.121 40.48C608.948 40.3067 608.861 40.0533 608.861 39.72V28.12C608.861 27.7867 608.948 27.5333 609.121 27.36C609.295 27.1867 609.535 27.1 609.841 27.1C610.161 27.1 610.408 27.1867 610.581 27.36C610.755 27.5333 610.841 27.7867 610.841 28.12V29.86L610.621 29.44C610.835 28.72 611.255 28.1467 611.881 27.72C612.508 27.28 613.248 27.06 614.101 27.06C614.968 27.06 615.721 27.2667 616.361 27.68C617.015 28.0933 617.515 28.6733 617.861 29.42C618.221 30.1667 618.401 31.0667 618.401 32.12C618.401 33.1467 618.221 34.0467 617.861 34.82C617.515 35.58 617.021 36.1667 616.381 36.58C615.741 36.98 614.981 37.18 614.101 37.18C613.261 37.18 612.528 36.9667 611.901 36.54C611.275 36.1133 610.855 35.5467 610.641 34.84H610.881V39.72C610.881 40.0533 610.788 40.3067 610.601 40.48C610.428 40.6533 610.181 40.74 609.861 40.74ZM613.601 35.62C614.161 35.62 614.648 35.4867 615.061 35.22C615.475 34.9533 615.795 34.56 616.021 34.04C616.248 33.52 616.361 32.88 616.361 32.12C616.361 30.9733 616.108 30.1067 615.601 29.52C615.108 28.9333 614.441 28.64 613.601 28.64C613.055 28.64 612.568 28.7733 612.141 29.04C611.728 29.2933 611.408 29.68 611.181 30.2C610.955 30.72 610.841 31.36 610.841 32.12C610.841 33.2533 611.095 34.12 611.601 34.72C612.108 35.32 612.775 35.62 613.601 35.62ZM624.758 37.18C623.691 37.18 622.771 36.98 621.998 36.58C621.238 36.1667 620.644 35.5867 620.218 34.84C619.804 34.08 619.598 33.18 619.598 32.14C619.598 31.1267 619.804 30.24 620.218 29.48C620.631 28.72 621.198 28.1267 621.918 27.7C622.638 27.2733 623.458 27.06 624.378 27.06C625.058 27.06 625.664 27.1733 626.198 27.4C626.731 27.6133 627.184 27.9333 627.558 28.36C627.944 28.7733 628.231 29.28 628.418 29.88C628.618 30.48 628.718 31.1533 628.718 31.9C628.718 32.1267 628.651 32.3 628.518 32.42C628.384 32.5267 628.184 32.58 627.918 32.58H621.198V31.34H627.358L627.018 31.62C627.018 30.9533 626.918 30.3867 626.718 29.92C626.531 29.4533 626.244 29.1 625.858 28.86C625.484 28.6067 625.018 28.48 624.458 28.48C623.831 28.48 623.298 28.6267 622.858 28.92C622.431 29.2133 622.104 29.62 621.878 30.14C621.651 30.66 621.538 31.2667 621.538 31.96V32.08C621.538 33.2533 621.811 34.14 622.358 34.74C622.918 35.3267 623.724 35.62 624.778 35.62C625.178 35.62 625.598 35.5667 626.038 35.46C626.491 35.3533 626.918 35.1733 627.318 34.92C627.544 34.7867 627.744 34.7267 627.918 34.74C628.104 34.7533 628.251 34.8133 628.358 34.92C628.478 35.0267 628.551 35.16 628.578 35.32C628.604 35.48 628.578 35.6467 628.498 35.82C628.418 35.98 628.278 36.1267 628.078 36.26C627.624 36.5667 627.098 36.8 626.498 36.96C625.898 37.1067 625.318 37.18 624.758 37.18ZM625.178 25.84C625.071 26 624.938 26.0933 624.778 26.12C624.631 26.1467 624.484 26.12 624.338 26.04C624.191 25.96 624.084 25.8467 624.018 25.7C623.964 25.5533 623.978 25.3933 624.058 25.22L625.678 22.08C625.784 21.8667 625.918 21.7267 626.078 21.66C626.251 21.5933 626.424 21.5867 626.598 21.64C626.784 21.68 626.938 21.76 627.058 21.88C627.191 22 627.271 22.1533 627.298 22.34C627.324 22.5133 627.278 22.6867 627.158 22.86L625.178 25.84ZM634.72 37.18C633.72 37.18 632.853 36.9733 632.12 36.56C631.4 36.1333 630.84 35.54 630.44 34.78C630.04 34.0067 629.84 33.1 629.84 32.06C629.84 31.2867 629.953 30.5933 630.18 29.98C630.407 29.3533 630.727 28.8267 631.14 28.4C631.567 27.9733 632.08 27.6467 632.68 27.42C633.293 27.18 633.973 27.06 634.72 27.06C635.187 27.06 635.673 27.1333 636.18 27.28C636.7 27.4133 637.18 27.64 637.62 27.96C637.793 28.0667 637.9 28.2 637.94 28.36C637.993 28.5067 638 28.66 637.96 28.82C637.933 28.98 637.86 29.12 637.74 29.24C637.633 29.3467 637.5 29.4133 637.34 29.44C637.18 29.4533 637.007 29.4067 636.82 29.3C636.5 29.0733 636.173 28.9133 635.84 28.82C635.507 28.7133 635.187 28.66 634.88 28.66C634.4 28.66 633.973 28.74 633.6 28.9C633.24 29.0467 632.933 29.2667 632.68 29.56C632.427 29.84 632.233 30.1933 632.1 30.62C631.98 31.0467 631.92 31.5333 631.92 32.08C631.92 33.1733 632.173 34.0333 632.68 34.66C633.2 35.2733 633.933 35.58 634.88 35.58C635.187 35.58 635.507 35.5333 635.84 35.44C636.173 35.3467 636.5 35.1867 636.82 34.96C637.007 34.8533 637.18 34.8133 637.34 34.84C637.5 34.8667 637.627 34.94 637.72 35.06C637.827 35.1667 637.893 35.3 637.92 35.46C637.96 35.6067 637.953 35.76 637.9 35.92C637.847 36.08 637.733 36.2133 637.56 36.32C637.133 36.6267 636.667 36.8467 636.16 36.98C635.667 37.1133 635.187 37.18 634.72 37.18ZM640.256 37.12C639.936 37.12 639.689 37.0267 639.516 36.84C639.343 36.64 639.256 36.3667 639.256 36.02V28.22C639.256 27.8733 639.343 27.6067 639.516 27.42C639.689 27.2333 639.936 27.14 640.256 27.14C640.576 27.14 640.823 27.2333 640.996 27.42C641.183 27.6067 641.276 27.8733 641.276 28.22V36.02C641.276 36.3667 641.189 36.64 641.016 36.84C640.843 37.0267 640.589 37.12 640.256 37.12ZM640.256 25.06C639.856 25.06 639.543 24.96 639.316 24.76C639.103 24.56 638.996 24.28 638.996 23.92C638.996 23.5467 639.103 23.2667 639.316 23.08C639.543 22.88 639.856 22.78 640.256 22.78C640.656 22.78 640.963 22.88 641.176 23.08C641.403 23.2667 641.516 23.5467 641.516 23.92C641.516 24.28 641.403 24.56 641.176 24.76C640.963 24.96 640.656 25.06 640.256 25.06ZM645.219 37.14C644.899 37.14 644.646 37.0533 644.459 36.88C644.286 36.6933 644.199 36.44 644.199 36.12V28.8H643.079C642.826 28.8 642.626 28.7333 642.479 28.6C642.333 28.4533 642.259 28.26 642.259 28.02C642.259 27.7667 642.333 27.5733 642.479 27.44C642.626 27.3067 642.826 27.24 643.079 27.24H644.779L644.199 27.78V27.06C644.199 25.7667 644.519 24.78 645.159 24.1C645.799 23.42 646.739 23.02 647.979 22.9L648.579 22.86C648.819 22.8333 649.013 22.8667 649.159 22.96C649.306 23.04 649.406 23.16 649.459 23.32C649.513 23.4667 649.519 23.62 649.479 23.78C649.439 23.94 649.366 24.08 649.259 24.2C649.166 24.3067 649.046 24.3667 648.899 24.38L648.359 24.42C647.613 24.4733 647.066 24.6933 646.719 25.08C646.386 25.4667 646.219 26.0333 646.219 26.78V27.56L645.939 27.24H651.419C651.753 27.24 652.006 27.34 652.179 27.54C652.353 27.7267 652.439 27.9867 652.439 28.32V36.02C652.439 36.3667 652.353 36.64 652.179 36.84C652.019 37.0267 651.766 37.12 651.419 37.12C651.099 37.12 650.853 37.0267 650.679 36.84C650.506 36.64 650.419 36.3667 650.419 36.02V28.8H646.219V36.12C646.219 36.8 645.886 37.14 645.219 37.14ZM651.459 25.06C651.073 25.06 650.773 24.96 650.559 24.76C650.346 24.56 650.239 24.28 650.239 23.92C650.239 23.5467 650.346 23.2667 650.559 23.08C650.773 22.88 651.073 22.78 651.459 22.78C651.859 22.78 652.159 22.88 652.359 23.08C652.573 23.2667 652.679 23.5467 652.679 23.92C652.679 24.28 652.573 24.56 652.359 24.76C652.159 24.96 651.859 25.06 651.459 25.06ZM659.06 37.18C658.06 37.18 657.193 36.9733 656.46 36.56C655.74 36.1333 655.18 35.54 654.78 34.78C654.38 34.0067 654.18 33.1 654.18 32.06C654.18 31.2867 654.293 30.5933 654.52 29.98C654.747 29.3533 655.067 28.8267 655.48 28.4C655.907 27.9733 656.42 27.6467 657.02 27.42C657.633 27.18 658.313 27.06 659.06 27.06C659.527 27.06 660.013 27.1333 660.52 27.28C661.04 27.4133 661.52 27.64 661.96 27.96C662.133 28.0667 662.24 28.2 662.28 28.36C662.333 28.5067 662.34 28.66 662.3 28.82C662.273 28.98 662.2 29.12 662.08 29.24C661.973 29.3467 661.84 29.4133 661.68 29.44C661.52 29.4533 661.347 29.4067 661.16 29.3C660.84 29.0733 660.513 28.9133 660.18 28.82C659.847 28.7133 659.527 28.66 659.22 28.66C658.74 28.66 658.313 28.74 657.94 28.9C657.58 29.0467 657.273 29.2667 657.02 29.56C656.767 29.84 656.573 30.1933 656.44 30.62C656.32 31.0467 656.26 31.5333 656.26 32.08C656.26 33.1733 656.513 34.0333 657.02 34.66C657.54 35.2733 658.273 35.58 659.22 35.58C659.527 35.58 659.847 35.5333 660.18 35.44C660.513 35.3467 660.84 35.1867 661.16 34.96C661.347 34.8533 661.52 34.8133 661.68 34.84C661.84 34.8667 661.967 34.94 662.06 35.06C662.167 35.1667 662.233 35.3 662.26 35.46C662.3 35.6067 662.293 35.76 662.24 35.92C662.187 36.08 662.073 36.2133 661.9 36.32C661.473 36.6267 661.007 36.8467 660.5 36.98C660.007 37.1133 659.527 37.18 659.06 37.18ZM666.638 37.18C665.958 37.18 665.344 37.0467 664.798 36.78C664.264 36.5133 663.844 36.1533 663.538 35.7C663.231 35.2467 663.078 34.7333 663.078 34.16C663.078 33.44 663.258 32.8733 663.618 32.46C663.991 32.0333 664.598 31.7333 665.438 31.56C666.291 31.3733 667.438 31.28 668.878 31.28H669.818V32.52H668.898C667.938 32.52 667.178 32.5667 666.618 32.66C666.058 32.7533 665.658 32.9133 665.418 33.14C665.191 33.3533 665.078 33.6533 665.078 34.04C665.078 34.5467 665.251 34.96 665.598 35.28C665.944 35.5867 666.424 35.74 667.038 35.74C667.531 35.74 667.964 35.6267 668.338 35.4C668.711 35.16 669.004 34.84 669.218 34.44C669.444 34.04 669.558 33.58 669.558 33.06V30.76C669.558 30 669.398 29.4533 669.078 29.12C668.758 28.7867 668.231 28.62 667.498 28.62C667.071 28.62 666.624 28.6733 666.158 28.78C665.704 28.8867 665.231 29.0667 664.738 29.32C664.511 29.4267 664.318 29.46 664.158 29.42C663.998 29.38 663.871 29.2933 663.778 29.16C663.684 29.0133 663.631 28.86 663.618 28.7C663.618 28.5267 663.658 28.36 663.738 28.2C663.831 28.04 663.984 27.92 664.198 27.84C664.784 27.56 665.364 27.36 665.938 27.24C666.511 27.12 667.051 27.06 667.558 27.06C668.451 27.06 669.184 27.2 669.758 27.48C670.344 27.76 670.778 28.1867 671.058 28.76C671.338 29.3333 671.478 30.0733 671.478 30.98V36.12C671.478 36.44 671.398 36.6933 671.238 36.88C671.078 37.0533 670.844 37.14 670.538 37.14C670.244 37.14 670.011 37.0533 669.838 36.88C669.664 36.6933 669.578 36.44 669.578 36.12V34.82H669.758C669.651 35.3133 669.451 35.74 669.158 36.1C668.878 36.4467 668.524 36.7133 668.098 36.9C667.671 37.0867 667.184 37.18 666.638 37.18ZM677.92 37.18C677.12 37.18 676.447 37.04 675.9 36.76C675.353 36.48 674.947 36.0667 674.68 35.52C674.413 34.9733 674.28 34.3067 674.28 33.52V28.8H673.08C672.813 28.8 672.607 28.7333 672.46 28.6C672.313 28.4533 672.24 28.26 672.24 28.02C672.24 27.7667 672.313 27.5733 672.46 27.44C672.607 27.3067 672.813 27.24 673.08 27.24H674.28V25.18C674.28 24.8467 674.367 24.5933 674.54 24.42C674.727 24.2467 674.98 24.16 675.3 24.16C675.62 24.16 675.867 24.2467 676.04 24.42C676.213 24.5933 676.3 24.8467 676.3 25.18V27.24H678.64C678.907 27.24 679.113 27.3067 679.26 27.44C679.407 27.5733 679.48 27.7667 679.48 28.02C679.48 28.26 679.407 28.4533 679.26 28.6C679.113 28.7333 678.907 28.8 678.64 28.8H676.3V33.36C676.3 34.0667 676.447 34.6 676.74 34.96C677.047 35.32 677.54 35.5 678.22 35.5C678.46 35.5 678.667 35.48 678.84 35.44C679.027 35.3867 679.18 35.3533 679.3 35.34C679.447 35.34 679.567 35.3933 679.66 35.5C679.753 35.5933 679.8 35.78 679.8 36.06C679.8 36.26 679.76 36.4467 679.68 36.62C679.613 36.7933 679.487 36.9067 679.3 36.96C679.14 37.0133 678.92 37.06 678.64 37.1C678.373 37.1533 678.133 37.18 677.92 37.18ZM681.74 37.12C681.42 37.12 681.174 37.0267 681 36.84C680.827 36.64 680.74 36.3667 680.74 36.02V28.22C680.74 27.8733 680.827 27.6067 681 27.42C681.174 27.2333 681.42 27.14 681.74 27.14C682.06 27.14 682.307 27.2333 682.48 27.42C682.667 27.6067 682.76 27.8733 682.76 28.22V36.02C682.76 36.3667 682.674 36.64 682.5 36.84C682.327 37.0267 682.074 37.12 681.74 37.12ZM681.74 25.06C681.34 25.06 681.027 24.96 680.8 24.76C680.587 24.56 680.48 24.28 680.48 23.92C680.48 23.5467 680.587 23.2667 680.8 23.08C681.027 22.88 681.34 22.78 681.74 22.78C682.14 22.78 682.447 22.88 682.66 23.08C682.887 23.2667 683 23.5467 683 23.92C683 24.28 682.887 24.56 682.66 24.76C682.447 24.96 682.14 25.06 681.74 25.06ZM689.344 37.18C688.357 37.18 687.504 36.9733 686.784 36.56C686.077 36.1467 685.524 35.56 685.124 34.8C684.724 34.04 684.524 33.1467 684.524 32.12C684.524 31.3333 684.637 30.6333 684.864 30.02C685.09 29.4067 685.41 28.88 685.824 28.44C686.25 27.9867 686.757 27.6467 687.344 27.42C687.944 27.18 688.61 27.06 689.344 27.06C690.317 27.06 691.157 27.2667 691.864 27.68C692.584 28.0933 693.144 28.68 693.544 29.44C693.944 30.1867 694.144 31.08 694.144 32.12C694.144 32.8933 694.03 33.5933 693.804 34.22C693.577 34.8467 693.25 35.38 692.824 35.82C692.41 36.26 691.904 36.6 691.304 36.84C690.717 37.0667 690.064 37.18 689.344 37.18ZM689.344 35.62C689.89 35.62 690.37 35.4867 690.784 35.22C691.197 34.9533 691.517 34.56 691.744 34.04C691.984 33.52 692.104 32.88 692.104 32.12C692.104 30.9733 691.85 30.1067 691.344 29.52C690.837 28.9333 690.17 28.64 689.344 28.64C688.784 28.64 688.297 28.7733 687.884 29.04C687.47 29.2933 687.144 29.68 686.904 30.2C686.677 30.72 686.564 31.36 686.564 32.12C686.564 33.2533 686.817 34.12 687.324 34.72C687.83 35.32 688.504 35.62 689.344 35.62ZM696.912 37.14C696.592 37.14 696.346 37.0533 696.172 36.88C695.999 36.6933 695.912 36.44 695.912 36.12V28.12C695.912 27.7867 695.999 27.5333 696.172 27.36C696.346 27.1867 696.586 27.1 696.892 27.1C697.212 27.1 697.452 27.1867 697.612 27.36C697.786 27.5333 697.872 27.7867 697.872 28.12V29.68L697.652 29.32C697.946 28.5733 698.406 28.0133 699.032 27.64C699.659 27.2533 700.379 27.06 701.192 27.06C701.966 27.06 702.606 27.2067 703.112 27.5C703.632 27.78 704.019 28.2133 704.272 28.8C704.526 29.3733 704.652 30.1 704.652 30.98V36.12C704.652 36.44 704.566 36.6933 704.392 36.88C704.219 37.0533 703.972 37.14 703.652 37.14C703.319 37.14 703.066 37.0533 702.892 36.88C702.719 36.6933 702.632 36.44 702.632 36.12V31.1C702.632 30.26 702.466 29.6467 702.132 29.26C701.812 28.8733 701.306 28.68 700.612 28.68C699.799 28.68 699.146 28.9333 698.652 29.44C698.172 29.9467 697.932 30.6267 697.932 31.48V36.12C697.932 36.8 697.592 37.14 696.912 37.14Z" fill="#201F1F"/>
<path d="M579.5 60.5H1159" stroke="#CDCCCB"/>
<rect width="579.5" height="49" transform="translate(579.5 61)" fill="white"/>
<path d="M596.375 85.9922V84.6797L603.961 81.4766V82.875L597.945 85.3438L603.961 87.8359V89.2344L596.375 85.9922ZM605.898 91V79.5469H607.305V83.6562C607.961 82.8958 608.789 82.5156 609.789 82.5156C610.404 82.5156 610.938 82.638 611.391 82.8828C611.844 83.1224 612.167 83.4557 612.359 83.8828C612.557 84.3099 612.656 84.9297 612.656 85.7422V91H611.25V85.7422C611.25 85.0391 611.096 84.5286 610.789 84.2109C610.487 83.888 610.057 83.7266 609.5 83.7266C609.083 83.7266 608.69 83.8359 608.32 84.0547C607.956 84.2682 607.695 84.5599 607.539 84.9297C607.383 85.2995 607.305 85.8099 607.305 86.4609V91H605.898ZM614.789 91V82.7031H616.055V83.9609C616.378 83.3724 616.674 82.9844 616.945 82.7969C617.221 82.6094 617.523 82.5156 617.852 82.5156C618.326 82.5156 618.807 82.6667 619.297 82.9688L618.812 84.2734C618.469 84.0703 618.125 83.9688 617.781 83.9688C617.474 83.9688 617.198 84.0625 616.953 84.25C616.708 84.4323 616.534 84.6875 616.43 85.0156C616.273 85.5156 616.195 86.0625 616.195 86.6562V91H614.789ZM627.539 85.9922L619.953 89.2344V87.8359L625.961 85.3438L619.953 82.875V81.4766L627.539 84.6797V85.9922ZM633.93 94.1797V82.7031H635.211V83.7812C635.513 83.3594 635.854 83.0443 636.234 82.8359C636.615 82.6224 637.076 82.5156 637.617 82.5156C638.326 82.5156 638.951 82.6979 639.492 83.0625C640.034 83.4271 640.443 83.9427 640.719 84.6094C640.995 85.2708 641.133 85.9974 641.133 86.7891C641.133 87.638 640.979 88.4036 640.672 89.0859C640.37 89.763 639.927 90.2839 639.344 90.6484C638.766 91.0078 638.156 91.1875 637.516 91.1875C637.047 91.1875 636.625 91.0885 636.25 90.8906C635.88 90.6927 635.576 90.4427 635.336 90.1406V94.1797H633.93ZM635.203 86.8984C635.203 87.9661 635.419 88.7552 635.852 89.2656C636.284 89.776 636.807 90.0312 637.422 90.0312C638.047 90.0312 638.581 89.7682 639.023 89.2422C639.471 88.7109 639.695 87.8906 639.695 86.7812C639.695 85.724 639.477 84.9323 639.039 84.4062C638.607 83.8802 638.089 83.6172 637.484 83.6172C636.885 83.6172 636.354 83.8984 635.891 84.4609C635.432 85.0182 635.203 85.8307 635.203 86.8984ZM642.312 86.8516C642.312 85.3151 642.74 84.1771 643.594 83.4375C644.307 82.8229 645.177 82.5156 646.203 82.5156C647.344 82.5156 648.276 82.8906 649 83.6406C649.724 84.3854 650.086 85.4167 650.086 86.7344C650.086 87.8021 649.924 88.6432 649.602 89.2578C649.284 89.8672 648.818 90.3411 648.203 90.6797C647.594 91.0182 646.927 91.1875 646.203 91.1875C645.042 91.1875 644.102 90.8151 643.383 90.0703C642.669 89.3255 642.312 88.2526 642.312 86.8516ZM643.758 86.8516C643.758 87.9141 643.99 88.7109 644.453 89.2422C644.917 89.7682 645.5 90.0312 646.203 90.0312C646.901 90.0312 647.482 89.7656 647.945 89.2344C648.409 88.7031 648.641 87.8932 648.641 86.8047C648.641 85.7786 648.406 85.0026 647.938 84.4766C647.474 83.9453 646.896 83.6797 646.203 83.6797C645.5 83.6797 644.917 83.9427 644.453 84.4688C643.99 84.9948 643.758 85.7891 643.758 86.8516ZM657.18 91V89.7812C656.534 90.7188 655.656 91.1875 654.547 91.1875C654.057 91.1875 653.599 91.0938 653.172 90.9062C652.75 90.7188 652.435 90.4844 652.227 90.2031C652.023 89.9167 651.88 89.5677 651.797 89.1562C651.74 88.8802 651.711 88.4427 651.711 87.8438V82.7031H653.117V87.3047C653.117 88.0391 653.146 88.5339 653.203 88.7891C653.292 89.1589 653.479 89.4505 653.766 89.6641C654.052 89.8724 654.406 89.9766 654.828 89.9766C655.25 89.9766 655.646 89.8698 656.016 89.6562C656.385 89.4375 656.646 89.1432 656.797 88.7734C656.953 88.3984 657.031 87.8568 657.031 87.1484V82.7031H658.438V91H657.18ZM660.633 91V82.7031H661.898V83.9609C662.221 83.3724 662.518 82.9844 662.789 82.7969C663.065 82.6094 663.367 82.5156 663.695 82.5156C664.169 82.5156 664.651 82.6667 665.141 82.9688L664.656 84.2734C664.312 84.0703 663.969 83.9688 663.625 83.9688C663.318 83.9688 663.042 84.0625 662.797 84.25C662.552 84.4323 662.378 84.6875 662.273 85.0156C662.117 85.5156 662.039 86.0625 662.039 86.6562V91H660.633ZM670.43 91V79.5469H671.836V83.6562C672.492 82.8958 673.32 82.5156 674.32 82.5156C674.935 82.5156 675.469 82.638 675.922 82.8828C676.375 83.1224 676.698 83.4557 676.891 83.8828C677.089 84.3099 677.188 84.9297 677.188 85.7422V91H675.781V85.7422C675.781 85.0391 675.628 84.5286 675.32 84.2109C675.018 83.888 674.589 83.7266 674.031 83.7266C673.615 83.7266 673.221 83.8359 672.852 84.0547C672.487 84.2682 672.227 84.5599 672.07 84.9297C671.914 85.2995 671.836 85.8099 671.836 86.4609V91H670.43ZM678.812 86.8516C678.812 85.3151 679.24 84.1771 680.094 83.4375C680.807 82.8229 681.677 82.5156 682.703 82.5156C683.844 82.5156 684.776 82.8906 685.5 83.6406C686.224 84.3854 686.586 85.4167 686.586 86.7344C686.586 87.8021 686.424 88.6432 686.102 89.2578C685.784 89.8672 685.318 90.3411 684.703 90.6797C684.094 91.0182 683.427 91.1875 682.703 91.1875C681.542 91.1875 680.602 90.8151 679.883 90.0703C679.169 89.3255 678.812 88.2526 678.812 86.8516ZM680.258 86.8516C680.258 87.9141 680.49 88.7109 680.953 89.2422C681.417 89.7682 682 90.0312 682.703 90.0312C683.401 90.0312 683.982 89.7656 684.445 89.2344C684.909 88.7031 685.141 87.8932 685.141 86.8047C685.141 85.7786 684.906 85.0026 684.438 84.4766C683.974 83.9453 683.396 83.6797 682.703 83.6797C682 83.6797 681.417 83.9427 680.953 84.4688C680.49 84.9948 680.258 85.7891 680.258 86.8516ZM688.227 91V82.7031H689.492V83.9609C689.815 83.3724 690.112 82.9844 690.383 82.7969C690.659 82.6094 690.961 82.5156 691.289 82.5156C691.763 82.5156 692.245 82.6667 692.734 82.9688L692.25 84.2734C691.906 84.0703 691.562 83.9688 691.219 83.9688C690.911 83.9688 690.635 84.0625 690.391 84.25C690.146 84.4323 689.971 84.6875 689.867 85.0156C689.711 85.5156 689.633 86.0625 689.633 86.6562V91H688.227ZM693.578 81.1641V79.5469H694.984V81.1641H693.578ZM693.578 91V82.7031H694.984V91H693.578ZM696.391 91V89.8594L701.672 83.7969C701.073 83.8281 700.544 83.8438 700.086 83.8438H696.703V82.7031H703.484V83.6328L698.992 88.8984L698.125 89.8594C698.755 89.8125 699.346 89.7891 699.898 89.7891H703.734V91H696.391ZM704.609 86.8516C704.609 85.3151 705.036 84.1771 705.891 83.4375C706.604 82.8229 707.474 82.5156 708.5 82.5156C709.641 82.5156 710.573 82.8906 711.297 83.6406C712.021 84.3854 712.383 85.4167 712.383 86.7344C712.383 87.8021 712.221 88.6432 711.898 89.2578C711.581 89.8672 711.115 90.3411 710.5 90.6797C709.891 91.0182 709.224 91.1875 708.5 91.1875C707.339 91.1875 706.398 90.8151 705.68 90.0703C704.966 89.3255 704.609 88.2526 704.609 86.8516ZM706.055 86.8516C706.055 87.9141 706.286 88.7109 706.75 89.2422C707.214 89.7682 707.797 90.0312 708.5 90.0312C709.198 90.0312 709.779 89.7656 710.242 89.2344C710.706 88.7031 710.938 87.8932 710.938 86.8047C710.938 85.7786 710.703 85.0026 710.234 84.4766C709.771 83.9453 709.193 83.6797 708.5 83.6797C707.797 83.6797 707.214 83.9427 706.75 84.4688C706.286 84.9948 706.055 85.7891 706.055 86.8516ZM714.039 91V82.7031H715.305V83.8828C715.914 82.9714 716.794 82.5156 717.945 82.5156C718.445 82.5156 718.904 82.6068 719.32 82.7891C719.742 82.9661 720.057 83.2005 720.266 83.4922C720.474 83.7839 720.62 84.1302 720.703 84.5312C720.755 84.7917 720.781 85.2474 720.781 85.8984V91H719.375V85.9531C719.375 85.3802 719.32 84.9531 719.211 84.6719C719.102 84.3854 718.906 84.1589 718.625 83.9922C718.349 83.8203 718.023 83.7344 717.648 83.7344C717.049 83.7344 716.531 83.9245 716.094 84.3047C715.661 84.6849 715.445 85.4062 715.445 86.4688V91H714.039ZM726.016 89.7422L726.219 90.9844C725.823 91.0677 725.469 91.1094 725.156 91.1094C724.646 91.1094 724.25 91.0286 723.969 90.8672C723.688 90.7057 723.49 90.4948 723.375 90.2344C723.26 89.9688 723.203 89.4141 723.203 88.5703V83.7969H722.172V82.7031H723.203V80.6484L724.602 79.8047V82.7031H726.016V83.7969H724.602V88.6484C724.602 89.0495 724.625 89.3073 724.672 89.4219C724.724 89.5365 724.805 89.6276 724.914 89.6953C725.029 89.763 725.19 89.7969 725.398 89.7969C725.555 89.7969 725.76 89.7786 726.016 89.7422ZM732.812 89.9766C732.292 90.4193 731.789 90.7318 731.305 90.9141C730.826 91.0964 730.31 91.1875 729.758 91.1875C728.846 91.1875 728.146 90.9661 727.656 90.5234C727.167 90.0755 726.922 89.5052 726.922 88.8125C726.922 88.4062 727.013 88.0365 727.195 87.7031C727.383 87.3646 727.625 87.0938 727.922 86.8906C728.224 86.6875 728.562 86.5339 728.938 86.4297C729.214 86.3568 729.63 86.2865 730.188 86.2188C731.323 86.0833 732.159 85.9219 732.695 85.7344C732.701 85.5417 732.703 85.4193 732.703 85.3672C732.703 84.7943 732.57 84.3906 732.305 84.1562C731.945 83.8385 731.411 83.6797 730.703 83.6797C730.042 83.6797 729.552 83.7969 729.234 84.0312C728.922 84.2604 728.69 84.6693 728.539 85.2578L727.164 85.0703C727.289 84.4818 727.495 84.0078 727.781 83.6484C728.068 83.2839 728.482 83.0052 729.023 82.8125C729.565 82.6146 730.193 82.5156 730.906 82.5156C731.615 82.5156 732.19 82.599 732.633 82.7656C733.076 82.9323 733.401 83.1432 733.609 83.3984C733.818 83.6484 733.964 83.9661 734.047 84.3516C734.094 84.5911 734.117 85.0234 734.117 85.6484V87.5234C734.117 88.8307 734.146 89.6589 734.203 90.0078C734.266 90.3516 734.385 90.6823 734.562 91H733.094C732.948 90.7083 732.854 90.3672 732.812 89.9766ZM732.695 86.8359C732.185 87.0443 731.419 87.2214 730.398 87.3672C729.82 87.4505 729.411 87.5443 729.172 87.6484C728.932 87.7526 728.747 87.9062 728.617 88.1094C728.487 88.3073 728.422 88.5286 728.422 88.7734C728.422 89.1484 728.562 89.4609 728.844 89.7109C729.13 89.9609 729.547 90.0859 730.094 90.0859C730.635 90.0859 731.117 89.9688 731.539 89.7344C731.961 89.4948 732.271 89.1693 732.469 88.7578C732.62 88.4401 732.695 87.9714 732.695 87.3516V86.8359ZM736.273 91V79.5469H737.68V91H736.273ZM740.234 91V89.3984H741.836V91C741.836 91.5885 741.732 92.0625 741.523 92.4219C741.315 92.7865 740.984 93.0677 740.531 93.2656L740.141 92.6641C740.438 92.5339 740.656 92.3411 740.797 92.0859C740.938 91.8359 741.016 91.474 741.031 91H740.234ZM748.594 85.9922V84.6797L756.18 81.4766V82.875L750.164 85.3438L756.18 87.8359V89.2344L748.594 85.9922ZM763.5 91V89.9531C762.974 90.776 762.201 91.1875 761.18 91.1875C760.518 91.1875 759.909 91.0052 759.352 90.6406C758.799 90.276 758.37 89.7682 758.062 89.1172C757.76 88.4609 757.609 87.7083 757.609 86.8594C757.609 86.0312 757.747 85.2812 758.023 84.6094C758.299 83.9323 758.714 83.4141 759.266 83.0547C759.818 82.6953 760.435 82.5156 761.117 82.5156C761.617 82.5156 762.062 82.6224 762.453 82.8359C762.844 83.0443 763.161 83.3177 763.406 83.6562V79.5469H764.805V91H763.5ZM759.055 86.8594C759.055 87.9219 759.279 88.7161 759.727 89.2422C760.174 89.7682 760.703 90.0312 761.312 90.0312C761.927 90.0312 762.448 89.7812 762.875 89.2812C763.307 88.776 763.523 88.0078 763.523 86.9766C763.523 85.8411 763.305 85.0078 762.867 84.4766C762.43 83.9453 761.891 83.6797 761.25 83.6797C760.625 83.6797 760.102 83.9349 759.68 84.4453C759.263 84.9557 759.055 85.7604 759.055 86.8594ZM767.031 81.1641V79.5469H768.438V81.1641H767.031ZM767.031 91V82.7031H768.438V91H767.031ZM772.891 91L769.734 82.7031H771.219L773 87.6719C773.193 88.2083 773.37 88.7656 773.531 89.3438C773.656 88.9062 773.831 88.3802 774.055 87.7656L775.898 82.7031H777.344L774.203 91H772.891ZM783.023 91V82.7031H784.289V83.9609C784.612 83.3724 784.909 82.9844 785.18 82.7969C785.456 82.6094 785.758 82.5156 786.086 82.5156C786.56 82.5156 787.042 82.6667 787.531 82.9688L787.047 84.2734C786.703 84.0703 786.359 83.9688 786.016 83.9688C785.708 83.9688 785.432 84.0625 785.188 84.25C784.943 84.4323 784.768 84.6875 784.664 85.0156C784.508 85.5156 784.43 86.0625 784.43 86.6562V91H783.023ZM787.844 86.8516C787.844 85.3151 788.271 84.1771 789.125 83.4375C789.839 82.8229 790.708 82.5156 791.734 82.5156C792.875 82.5156 793.807 82.8906 794.531 83.6406C795.255 84.3854 795.617 85.4167 795.617 86.7344C795.617 87.8021 795.456 88.6432 795.133 89.2578C794.815 89.8672 794.349 90.3411 793.734 90.6797C793.125 91.0182 792.458 91.1875 791.734 91.1875C790.573 91.1875 789.633 90.8151 788.914 90.0703C788.201 89.3255 787.844 88.2526 787.844 86.8516ZM789.289 86.8516C789.289 87.9141 789.521 88.7109 789.984 89.2422C790.448 89.7682 791.031 90.0312 791.734 90.0312C792.432 90.0312 793.013 89.7656 793.477 89.2344C793.94 88.7031 794.172 87.8932 794.172 86.8047C794.172 85.7786 793.938 85.0026 793.469 84.4766C793.005 83.9453 792.427 83.6797 791.734 83.6797C791.031 83.6797 790.448 83.9427 789.984 84.4688C789.521 84.9948 789.289 85.7891 789.289 86.8516ZM797.242 91V79.5469H798.648V91H797.242ZM806.516 88.3281L807.969 88.5078C807.74 89.3568 807.315 90.0156 806.695 90.4844C806.076 90.9531 805.284 91.1875 804.32 91.1875C803.107 91.1875 802.143 90.8151 801.43 90.0703C800.721 89.3203 800.367 88.2708 800.367 86.9219C800.367 85.526 800.727 84.4427 801.445 83.6719C802.164 82.901 803.096 82.5156 804.242 82.5156C805.352 82.5156 806.258 82.8932 806.961 83.6484C807.664 84.4036 808.016 85.4661 808.016 86.8359C808.016 86.9193 808.013 87.0443 808.008 87.2109H801.82C801.872 88.1224 802.13 88.8203 802.594 89.3047C803.057 89.7891 803.635 90.0312 804.328 90.0312C804.844 90.0312 805.284 89.8958 805.648 89.625C806.013 89.3542 806.302 88.9219 806.516 88.3281ZM801.898 86.0547H806.531C806.469 85.3568 806.292 84.8333 806 84.4844C805.552 83.9427 804.971 83.6719 804.258 83.6719C803.612 83.6719 803.068 83.888 802.625 84.3203C802.188 84.7526 801.945 85.3307 801.898 86.0547ZM817.141 84.2656H809.578V82.9531H817.141V84.2656ZM817.141 87.7422H809.578V86.4297H817.141V87.7422ZM819.156 83.6016L818.766 81.4219V79.5469H820.367V81.4219L820.016 83.6016H819.156ZM821.742 83.6016L821.359 81.4219V79.5469H822.961V81.4219L822.586 83.6016H821.742ZM824.211 88.5234L825.602 88.3047C825.68 88.862 825.896 89.2891 826.25 89.5859C826.609 89.8828 827.109 90.0312 827.75 90.0312C828.396 90.0312 828.875 89.901 829.188 89.6406C829.5 89.375 829.656 89.0651 829.656 88.7109C829.656 88.3932 829.518 88.1432 829.242 87.9609C829.049 87.8359 828.57 87.6771 827.805 87.4844C826.773 87.224 826.057 87 825.656 86.8125C825.26 86.6198 824.958 86.3568 824.75 86.0234C824.547 85.6849 824.445 85.3125 824.445 84.9062C824.445 84.5365 824.529 84.1953 824.695 83.8828C824.867 83.5651 825.099 83.3021 825.391 83.0938C825.609 82.9323 825.906 82.7969 826.281 82.6875C826.661 82.5729 827.068 82.5156 827.5 82.5156C828.151 82.5156 828.721 82.6094 829.211 82.7969C829.706 82.9844 830.07 83.2396 830.305 83.5625C830.539 83.8802 830.701 84.3073 830.789 84.8438L829.414 85.0312C829.352 84.6042 829.169 84.2708 828.867 84.0312C828.57 83.7917 828.148 83.6719 827.602 83.6719C826.956 83.6719 826.495 83.7786 826.219 83.9922C825.943 84.2057 825.805 84.4557 825.805 84.7422C825.805 84.9245 825.862 85.0885 825.977 85.2344C826.091 85.3854 826.271 85.5104 826.516 85.6094C826.656 85.6615 827.07 85.7812 827.758 85.9688C828.753 86.2344 829.445 86.4531 829.836 86.625C830.232 86.7917 830.542 87.0365 830.766 87.3594C830.99 87.6823 831.102 88.0833 831.102 88.5625C831.102 89.0312 830.964 89.474 830.688 89.8906C830.417 90.3021 830.023 90.6224 829.508 90.8516C828.992 91.0755 828.409 91.1875 827.758 91.1875C826.68 91.1875 825.857 90.9635 825.289 90.5156C824.727 90.0677 824.367 89.4036 824.211 88.5234ZM838.453 88.3281L839.906 88.5078C839.677 89.3568 839.253 90.0156 838.633 90.4844C838.013 90.9531 837.221 91.1875 836.258 91.1875C835.044 91.1875 834.081 90.8151 833.367 90.0703C832.659 89.3203 832.305 88.2708 832.305 86.9219C832.305 85.526 832.664 84.4427 833.383 83.6719C834.102 82.901 835.034 82.5156 836.18 82.5156C837.289 82.5156 838.195 82.8932 838.898 83.6484C839.602 84.4036 839.953 85.4661 839.953 86.8359C839.953 86.9193 839.951 87.0443 839.945 87.2109H833.758C833.81 88.1224 834.068 88.8203 834.531 89.3047C834.995 89.7891 835.573 90.0312 836.266 90.0312C836.781 90.0312 837.221 89.8958 837.586 89.625C837.951 89.3542 838.24 88.9219 838.453 88.3281ZM833.836 86.0547H838.469C838.406 85.3568 838.229 84.8333 837.938 84.4844C837.49 83.9427 836.909 83.6719 836.195 83.6719C835.549 83.6719 835.005 83.888 834.562 84.3203C834.125 84.7526 833.883 85.3307 833.836 86.0547ZM841.68 94.1797V82.7031H842.961V83.7812C843.263 83.3594 843.604 83.0443 843.984 82.8359C844.365 82.6224 844.826 82.5156 845.367 82.5156C846.076 82.5156 846.701 82.6979 847.242 83.0625C847.784 83.4271 848.193 83.9427 848.469 84.6094C848.745 85.2708 848.883 85.9974 848.883 86.7891C848.883 87.638 848.729 88.4036 848.422 89.0859C848.12 89.763 847.677 90.2839 847.094 90.6484C846.516 91.0078 845.906 91.1875 845.266 91.1875C844.797 91.1875 844.375 91.0885 844 90.8906C843.63 90.6927 843.326 90.4427 843.086 90.1406V94.1797H841.68ZM842.953 86.8984C842.953 87.9661 843.169 88.7552 843.602 89.2656C844.034 89.776 844.557 90.0312 845.172 90.0312C845.797 90.0312 846.331 89.7682 846.773 89.2422C847.221 88.7109 847.445 87.8906 847.445 86.7812C847.445 85.724 847.227 84.9323 846.789 84.4062C846.357 83.8802 845.839 83.6172 845.234 83.6172C844.635 83.6172 844.104 83.8984 843.641 84.4609C843.182 85.0182 842.953 85.8307 842.953 86.8984ZM856 89.9766C855.479 90.4193 854.977 90.7318 854.492 90.9141C854.013 91.0964 853.497 91.1875 852.945 91.1875C852.034 91.1875 851.333 90.9661 850.844 90.5234C850.354 90.0755 850.109 89.5052 850.109 88.8125C850.109 88.4062 850.201 88.0365 850.383 87.7031C850.57 87.3646 850.812 87.0938 851.109 86.8906C851.411 86.6875 851.75 86.5339 852.125 86.4297C852.401 86.3568 852.818 86.2865 853.375 86.2188C854.51 86.0833 855.346 85.9219 855.883 85.7344C855.888 85.5417 855.891 85.4193 855.891 85.3672C855.891 84.7943 855.758 84.3906 855.492 84.1562C855.133 83.8385 854.599 83.6797 853.891 83.6797C853.229 83.6797 852.74 83.7969 852.422 84.0312C852.109 84.2604 851.878 84.6693 851.727 85.2578L850.352 85.0703C850.477 84.4818 850.682 84.0078 850.969 83.6484C851.255 83.2839 851.669 83.0052 852.211 82.8125C852.753 82.6146 853.38 82.5156 854.094 82.5156C854.802 82.5156 855.378 82.599 855.82 82.7656C856.263 82.9323 856.589 83.1432 856.797 83.3984C857.005 83.6484 857.151 83.9661 857.234 84.3516C857.281 84.5911 857.305 85.0234 857.305 85.6484V87.5234C857.305 88.8307 857.333 89.6589 857.391 90.0078C857.453 90.3516 857.573 90.6823 857.75 91H856.281C856.135 90.7083 856.042 90.3672 856 89.9766ZM855.883 86.8359C855.372 87.0443 854.607 87.2214 853.586 87.3672C853.008 87.4505 852.599 87.5443 852.359 87.6484C852.12 87.7526 851.935 87.9062 851.805 88.1094C851.674 88.3073 851.609 88.5286 851.609 88.7734C851.609 89.1484 851.75 89.4609 852.031 89.7109C852.318 89.9609 852.734 90.0859 853.281 90.0859C853.823 90.0859 854.305 89.9688 854.727 89.7344C855.148 89.4948 855.458 89.1693 855.656 88.7578C855.807 88.4401 855.883 87.9714 855.883 87.3516V86.8359ZM859.477 91V82.7031H860.742V83.9609C861.065 83.3724 861.362 82.9844 861.633 82.7969C861.909 82.6094 862.211 82.5156 862.539 82.5156C863.013 82.5156 863.495 82.6667 863.984 82.9688L863.5 84.2734C863.156 84.0703 862.812 83.9688 862.469 83.9688C862.161 83.9688 861.885 84.0625 861.641 84.25C861.396 84.4323 861.221 84.6875 861.117 85.0156C860.961 85.5156 860.883 86.0625 860.883 86.6562V91H859.477ZM870.234 89.9766C869.714 90.4193 869.211 90.7318 868.727 90.9141C868.247 91.0964 867.732 91.1875 867.18 91.1875C866.268 91.1875 865.568 90.9661 865.078 90.5234C864.589 90.0755 864.344 89.5052 864.344 88.8125C864.344 88.4062 864.435 88.0365 864.617 87.7031C864.805 87.3646 865.047 87.0938 865.344 86.8906C865.646 86.6875 865.984 86.5339 866.359 86.4297C866.635 86.3568 867.052 86.2865 867.609 86.2188C868.745 86.0833 869.581 85.9219 870.117 85.7344C870.122 85.5417 870.125 85.4193 870.125 85.3672C870.125 84.7943 869.992 84.3906 869.727 84.1562C869.367 83.8385 868.833 83.6797 868.125 83.6797C867.464 83.6797 866.974 83.7969 866.656 84.0312C866.344 84.2604 866.112 84.6693 865.961 85.2578L864.586 85.0703C864.711 84.4818 864.917 84.0078 865.203 83.6484C865.49 83.2839 865.904 83.0052 866.445 82.8125C866.987 82.6146 867.615 82.5156 868.328 82.5156C869.036 82.5156 869.612 82.599 870.055 82.7656C870.497 82.9323 870.823 83.1432 871.031 83.3984C871.24 83.6484 871.385 83.9661 871.469 84.3516C871.516 84.5911 871.539 85.0234 871.539 85.6484V87.5234C871.539 88.8307 871.568 89.6589 871.625 90.0078C871.688 90.3516 871.807 90.6823 871.984 91H870.516C870.37 90.7083 870.276 90.3672 870.234 89.9766ZM870.117 86.8359C869.607 87.0443 868.841 87.2214 867.82 87.3672C867.242 87.4505 866.833 87.5443 866.594 87.6484C866.354 87.7526 866.169 87.9062 866.039 88.1094C865.909 88.3073 865.844 88.5286 865.844 88.7734C865.844 89.1484 865.984 89.4609 866.266 89.7109C866.552 89.9609 866.969 90.0859 867.516 90.0859C868.057 90.0859 868.539 89.9688 868.961 89.7344C869.383 89.4948 869.693 89.1693 869.891 88.7578C870.042 88.4401 870.117 87.9714 870.117 87.3516V86.8359ZM876.797 89.7422L877 90.9844C876.604 91.0677 876.25 91.1094 875.938 91.1094C875.427 91.1094 875.031 91.0286 874.75 90.8672C874.469 90.7057 874.271 90.4948 874.156 90.2344C874.042 89.9688 873.984 89.4141 873.984 88.5703V83.7969H872.953V82.7031H873.984V80.6484L875.383 79.8047V82.7031H876.797V83.7969H875.383V88.6484C875.383 89.0495 875.406 89.3073 875.453 89.4219C875.505 89.5365 875.586 89.6276 875.695 89.6953C875.81 89.763 875.971 89.7969 876.18 89.7969C876.336 89.7969 876.542 89.7786 876.797 89.7422ZM877.656 86.8516C877.656 85.3151 878.083 84.1771 878.938 83.4375C879.651 82.8229 880.521 82.5156 881.547 82.5156C882.688 82.5156 883.62 82.8906 884.344 83.6406C885.068 84.3854 885.43 85.4167 885.43 86.7344C885.43 87.8021 885.268 88.6432 884.945 89.2578C884.628 89.8672 884.161 90.3411 883.547 90.6797C882.938 91.0182 882.271 91.1875 881.547 91.1875C880.385 91.1875 879.445 90.8151 878.727 90.0703C878.013 89.3255 877.656 88.2526 877.656 86.8516ZM879.102 86.8516C879.102 87.9141 879.333 88.7109 879.797 89.2422C880.26 89.7682 880.844 90.0312 881.547 90.0312C882.245 90.0312 882.826 89.7656 883.289 89.2344C883.753 88.7031 883.984 87.8932 883.984 86.8047C883.984 85.7786 883.75 85.0026 883.281 84.4766C882.818 83.9453 882.24 83.6797 881.547 83.6797C880.844 83.6797 880.26 83.9427 879.797 84.4688C879.333 84.9948 879.102 85.7891 879.102 86.8516ZM887.07 91V82.7031H888.336V83.9609C888.659 83.3724 888.956 82.9844 889.227 82.7969C889.503 82.6094 889.805 82.5156 890.133 82.5156C890.607 82.5156 891.089 82.6667 891.578 82.9688L891.094 84.2734C890.75 84.0703 890.406 83.9688 890.062 83.9688C889.755 83.9688 889.479 84.0625 889.234 84.25C888.99 84.4323 888.815 84.6875 888.711 85.0156C888.555 85.5156 888.477 86.0625 888.477 86.6562V91H887.07ZM892.484 83.6016L892.094 81.4219V79.5469H893.695V81.4219L893.344 83.6016H892.484ZM895.07 83.6016L894.688 81.4219V79.5469H896.289V81.4219L895.914 83.6016H895.07ZM905.508 85.9922L897.922 89.2344V87.8359L903.93 85.3438L897.922 82.875V81.4766L905.508 84.6797V85.9922ZM911.336 88.5234L912.727 88.3047C912.805 88.862 913.021 89.2891 913.375 89.5859C913.734 89.8828 914.234 90.0312 914.875 90.0312C915.521 90.0312 916 89.901 916.312 89.6406C916.625 89.375 916.781 89.0651 916.781 88.7109C916.781 88.3932 916.643 88.1432 916.367 87.9609C916.174 87.8359 915.695 87.6771 914.93 87.4844C913.898 87.224 913.182 87 912.781 86.8125C912.385 86.6198 912.083 86.3568 911.875 86.0234C911.672 85.6849 911.57 85.3125 911.57 84.9062C911.57 84.5365 911.654 84.1953 911.82 83.8828C911.992 83.5651 912.224 83.3021 912.516 83.0938C912.734 82.9323 913.031 82.7969 913.406 82.6875C913.786 82.5729 914.193 82.5156 914.625 82.5156C915.276 82.5156 915.846 82.6094 916.336 82.7969C916.831 82.9844 917.195 83.2396 917.43 83.5625C917.664 83.8802 917.826 84.3073 917.914 84.8438L916.539 85.0312C916.477 84.6042 916.294 84.2708 915.992 84.0312C915.695 83.7917 915.273 83.6719 914.727 83.6719C914.081 83.6719 913.62 83.7786 913.344 83.9922C913.068 84.2057 912.93 84.4557 912.93 84.7422C912.93 84.9245 912.987 85.0885 913.102 85.2344C913.216 85.3854 913.396 85.5104 913.641 85.6094C913.781 85.6615 914.195 85.7812 914.883 85.9688C915.878 86.2344 916.57 86.4531 916.961 86.625C917.357 86.7917 917.667 87.0365 917.891 87.3594C918.115 87.6823 918.227 88.0833 918.227 88.5625C918.227 89.0312 918.089 89.474 917.812 89.8906C917.542 90.3021 917.148 90.6224 916.633 90.8516C916.117 91.0755 915.534 91.1875 914.883 91.1875C913.805 91.1875 912.982 90.9635 912.414 90.5156C911.852 90.0677 911.492 89.4036 911.336 88.5234ZM919.906 81.1641V79.5469H921.312V81.1641H919.906ZM919.906 91V82.7031H921.312V91H919.906ZM923.461 91V82.7031H924.727V83.8828C925.336 82.9714 926.216 82.5156 927.367 82.5156C927.867 82.5156 928.326 82.6068 928.742 82.7891C929.164 82.9661 929.479 83.2005 929.688 83.4922C929.896 83.7839 930.042 84.1302 930.125 84.5312C930.177 84.7917 930.203 85.2474 930.203 85.8984V91H928.797V85.9531C928.797 85.3802 928.742 84.9531 928.633 84.6719C928.523 84.3854 928.328 84.1589 928.047 83.9922C927.771 83.8203 927.445 83.7344 927.07 83.7344C926.471 83.7344 925.953 83.9245 925.516 84.3047C925.083 84.6849 924.867 85.4062 924.867 86.4688V91H923.461ZM931.844 86.8516C931.844 85.3151 932.271 84.1771 933.125 83.4375C933.839 82.8229 934.708 82.5156 935.734 82.5156C936.875 82.5156 937.807 82.8906 938.531 83.6406C939.255 84.3854 939.617 85.4167 939.617 86.7344C939.617 87.8021 939.456 88.6432 939.133 89.2578C938.815 89.8672 938.349 90.3411 937.734 90.6797C937.125 91.0182 936.458 91.1875 935.734 91.1875C934.573 91.1875 933.633 90.8151 932.914 90.0703C932.201 89.3255 931.844 88.2526 931.844 86.8516ZM933.289 86.8516C933.289 87.9141 933.521 88.7109 933.984 89.2422C934.448 89.7682 935.031 90.0312 935.734 90.0312C936.432 90.0312 937.013 89.7656 937.477 89.2344C937.94 88.7031 938.172 87.8932 938.172 86.8047C938.172 85.7786 937.938 85.0026 937.469 84.4766C937.005 83.9453 936.427 83.6797 935.734 83.6797C935.031 83.6797 934.448 83.9427 933.984 84.4688C933.521 84.9948 933.289 85.7891 933.289 86.8516ZM941.273 91V82.7031H942.539V83.8828C943.148 82.9714 944.029 82.5156 945.18 82.5156C945.68 82.5156 946.138 82.6068 946.555 82.7891C946.977 82.9661 947.292 83.2005 947.5 83.4922C947.708 83.7839 947.854 84.1302 947.938 84.5312C947.99 84.7917 948.016 85.2474 948.016 85.8984V91H946.609V85.9531C946.609 85.3802 946.555 84.9531 946.445 84.6719C946.336 84.3854 946.141 84.1589 945.859 83.9922C945.583 83.8203 945.258 83.7344 944.883 83.7344C944.284 83.7344 943.766 83.9245 943.328 84.3047C942.896 84.6849 942.68 85.4062 942.68 86.4688V91H941.273Z" fill="#3E3E3D"/>
<g opacity="0.5">
<path d="M579.5 109.5H1159" stroke="#CDCCCB"/>
</g>
<rect width="579.5" height="49" transform="translate(579.5 110)" fill="white"/>
<path d="M596.539 140V131.703H597.805V132.961C598.128 132.372 598.424 131.984 598.695 131.797C598.971 131.609 599.273 131.516 599.602 131.516C600.076 131.516 600.557 131.667 601.047 131.969L600.562 133.273C600.219 133.07 599.875 132.969 599.531 132.969C599.224 132.969 598.948 133.062 598.703 133.25C598.458 133.432 598.284 133.688 598.18 134.016C598.023 134.516 597.945 135.062 597.945 135.656V140H596.539ZM601.359 135.852C601.359 134.315 601.786 133.177 602.641 132.438C603.354 131.823 604.224 131.516 605.25 131.516C606.391 131.516 607.323 131.891 608.047 132.641C608.771 133.385 609.133 134.417 609.133 135.734C609.133 136.802 608.971 137.643 608.648 138.258C608.331 138.867 607.865 139.341 607.25 139.68C606.641 140.018 605.974 140.188 605.25 140.188C604.089 140.188 603.148 139.815 602.43 139.07C601.716 138.326 601.359 137.253 601.359 135.852ZM602.805 135.852C602.805 136.914 603.036 137.711 603.5 138.242C603.964 138.768 604.547 139.031 605.25 139.031C605.948 139.031 606.529 138.766 606.992 138.234C607.456 137.703 607.688 136.893 607.688 135.805C607.688 134.779 607.453 134.003 606.984 133.477C606.521 132.945 605.943 132.68 605.25 132.68C604.547 132.68 603.964 132.943 603.5 133.469C603.036 133.995 602.805 134.789 602.805 135.852ZM610.758 140V128.547H612.164V140H610.758ZM620.031 137.328L621.484 137.508C621.255 138.357 620.831 139.016 620.211 139.484C619.591 139.953 618.799 140.188 617.836 140.188C616.622 140.188 615.659 139.815 614.945 139.07C614.237 138.32 613.883 137.271 613.883 135.922C613.883 134.526 614.242 133.443 614.961 132.672C615.68 131.901 616.612 131.516 617.758 131.516C618.867 131.516 619.773 131.893 620.477 132.648C621.18 133.404 621.531 134.466 621.531 135.836C621.531 135.919 621.529 136.044 621.523 136.211H615.336C615.388 137.122 615.646 137.82 616.109 138.305C616.573 138.789 617.151 139.031 617.844 139.031C618.359 139.031 618.799 138.896 619.164 138.625C619.529 138.354 619.818 137.922 620.031 137.328ZM615.414 135.055H620.047C619.984 134.357 619.807 133.833 619.516 133.484C619.068 132.943 618.487 132.672 617.773 132.672C617.128 132.672 616.583 132.888 616.141 133.32C615.703 133.753 615.461 134.331 615.414 135.055ZM630.656 133.266H623.094V131.953H630.656V133.266ZM630.656 136.742H623.094V135.43H630.656V136.742ZM632.672 132.602L632.281 130.422V128.547H633.883V130.422L633.531 132.602H632.672ZM635.258 132.602L634.875 130.422V128.547H636.477V130.422L636.102 132.602H635.258ZM637.727 137.523L639.117 137.305C639.195 137.862 639.411 138.289 639.766 138.586C640.125 138.883 640.625 139.031 641.266 139.031C641.911 139.031 642.391 138.901 642.703 138.641C643.016 138.375 643.172 138.065 643.172 137.711C643.172 137.393 643.034 137.143 642.758 136.961C642.565 136.836 642.086 136.677 641.32 136.484C640.289 136.224 639.573 136 639.172 135.812C638.776 135.62 638.474 135.357 638.266 135.023C638.062 134.685 637.961 134.312 637.961 133.906C637.961 133.536 638.044 133.195 638.211 132.883C638.383 132.565 638.615 132.302 638.906 132.094C639.125 131.932 639.422 131.797 639.797 131.688C640.177 131.573 640.583 131.516 641.016 131.516C641.667 131.516 642.237 131.609 642.727 131.797C643.221 131.984 643.586 132.24 643.82 132.562C644.055 132.88 644.216 133.307 644.305 133.844L642.93 134.031C642.867 133.604 642.685 133.271 642.383 133.031C642.086 132.792 641.664 132.672 641.117 132.672C640.471 132.672 640.01 132.779 639.734 132.992C639.458 133.206 639.32 133.456 639.32 133.742C639.32 133.924 639.378 134.089 639.492 134.234C639.607 134.385 639.786 134.51 640.031 134.609C640.172 134.661 640.586 134.781 641.273 134.969C642.268 135.234 642.961 135.453 643.352 135.625C643.747 135.792 644.057 136.036 644.281 136.359C644.505 136.682 644.617 137.083 644.617 137.562C644.617 138.031 644.479 138.474 644.203 138.891C643.932 139.302 643.539 139.622 643.023 139.852C642.508 140.076 641.924 140.188 641.273 140.188C640.195 140.188 639.372 139.964 638.805 139.516C638.242 139.068 637.883 138.404 637.727 137.523ZM651.969 137.328L653.422 137.508C653.193 138.357 652.768 139.016 652.148 139.484C651.529 139.953 650.737 140.188 649.773 140.188C648.56 140.188 647.596 139.815 646.883 139.07C646.174 138.32 645.82 137.271 645.82 135.922C645.82 134.526 646.18 133.443 646.898 132.672C647.617 131.901 648.549 131.516 649.695 131.516C650.805 131.516 651.711 131.893 652.414 132.648C653.117 133.404 653.469 134.466 653.469 135.836C653.469 135.919 653.466 136.044 653.461 136.211H647.273C647.326 137.122 647.583 137.82 648.047 138.305C648.51 138.789 649.089 139.031 649.781 139.031C650.297 139.031 650.737 138.896 651.102 138.625C651.466 138.354 651.755 137.922 651.969 137.328ZM647.352 135.055H651.984C651.922 134.357 651.745 133.833 651.453 133.484C651.005 132.943 650.424 132.672 649.711 132.672C649.065 132.672 648.521 132.888 648.078 133.32C647.641 133.753 647.398 134.331 647.352 135.055ZM655.195 143.18V131.703H656.477V132.781C656.779 132.359 657.12 132.044 657.5 131.836C657.88 131.622 658.341 131.516 658.883 131.516C659.591 131.516 660.216 131.698 660.758 132.062C661.299 132.427 661.708 132.943 661.984 133.609C662.26 134.271 662.398 134.997 662.398 135.789C662.398 136.638 662.245 137.404 661.938 138.086C661.635 138.763 661.193 139.284 660.609 139.648C660.031 140.008 659.422 140.188 658.781 140.188C658.312 140.188 657.891 140.089 657.516 139.891C657.146 139.693 656.841 139.443 656.602 139.141V143.18H655.195ZM656.469 135.898C656.469 136.966 656.685 137.755 657.117 138.266C657.549 138.776 658.073 139.031 658.688 139.031C659.312 139.031 659.846 138.768 660.289 138.242C660.737 137.711 660.961 136.891 660.961 135.781C660.961 134.724 660.742 133.932 660.305 133.406C659.872 132.88 659.354 132.617 658.75 132.617C658.151 132.617 657.62 132.898 657.156 133.461C656.698 134.018 656.469 134.831 656.469 135.898ZM669.516 138.977C668.995 139.419 668.492 139.732 668.008 139.914C667.529 140.096 667.013 140.188 666.461 140.188C665.549 140.188 664.849 139.966 664.359 139.523C663.87 139.076 663.625 138.505 663.625 137.812C663.625 137.406 663.716 137.036 663.898 136.703C664.086 136.365 664.328 136.094 664.625 135.891C664.927 135.688 665.266 135.534 665.641 135.43C665.917 135.357 666.333 135.286 666.891 135.219C668.026 135.083 668.862 134.922 669.398 134.734C669.404 134.542 669.406 134.419 669.406 134.367C669.406 133.794 669.273 133.391 669.008 133.156C668.648 132.839 668.115 132.68 667.406 132.68C666.745 132.68 666.255 132.797 665.938 133.031C665.625 133.26 665.393 133.669 665.242 134.258L663.867 134.07C663.992 133.482 664.198 133.008 664.484 132.648C664.771 132.284 665.185 132.005 665.727 131.812C666.268 131.615 666.896 131.516 667.609 131.516C668.318 131.516 668.893 131.599 669.336 131.766C669.779 131.932 670.104 132.143 670.312 132.398C670.521 132.648 670.667 132.966 670.75 133.352C670.797 133.591 670.82 134.023 670.82 134.648V136.523C670.82 137.831 670.849 138.659 670.906 139.008C670.969 139.352 671.089 139.682 671.266 140H669.797C669.651 139.708 669.557 139.367 669.516 138.977ZM669.398 135.836C668.888 136.044 668.122 136.221 667.102 136.367C666.523 136.451 666.115 136.544 665.875 136.648C665.635 136.753 665.451 136.906 665.32 137.109C665.19 137.307 665.125 137.529 665.125 137.773C665.125 138.148 665.266 138.461 665.547 138.711C665.833 138.961 666.25 139.086 666.797 139.086C667.339 139.086 667.82 138.969 668.242 138.734C668.664 138.495 668.974 138.169 669.172 137.758C669.323 137.44 669.398 136.971 669.398 136.352V135.836ZM672.992 140V131.703H674.258V132.961C674.581 132.372 674.878 131.984 675.148 131.797C675.424 131.609 675.727 131.516 676.055 131.516C676.529 131.516 677.01 131.667 677.5 131.969L677.016 133.273C676.672 133.07 676.328 132.969 675.984 132.969C675.677 132.969 675.401 133.062 675.156 133.25C674.911 133.432 674.737 133.688 674.633 134.016C674.477 134.516 674.398 135.062 674.398 135.656V140H672.992ZM683.75 138.977C683.229 139.419 682.727 139.732 682.242 139.914C681.763 140.096 681.247 140.188 680.695 140.188C679.784 140.188 679.083 139.966 678.594 139.523C678.104 139.076 677.859 138.505 677.859 137.812C677.859 137.406 677.951 137.036 678.133 136.703C678.32 136.365 678.562 136.094 678.859 135.891C679.161 135.688 679.5 135.534 679.875 135.43C680.151 135.357 680.568 135.286 681.125 135.219C682.26 135.083 683.096 134.922 683.633 134.734C683.638 134.542 683.641 134.419 683.641 134.367C683.641 133.794 683.508 133.391 683.242 133.156C682.883 132.839 682.349 132.68 681.641 132.68C680.979 132.68 680.49 132.797 680.172 133.031C679.859 133.26 679.628 133.669 679.477 134.258L678.102 134.07C678.227 133.482 678.432 133.008 678.719 132.648C679.005 132.284 679.419 132.005 679.961 131.812C680.503 131.615 681.13 131.516 681.844 131.516C682.552 131.516 683.128 131.599 683.57 131.766C684.013 131.932 684.339 132.143 684.547 132.398C684.755 132.648 684.901 132.966 684.984 133.352C685.031 133.591 685.055 134.023 685.055 134.648V136.523C685.055 137.831 685.083 138.659 685.141 139.008C685.203 139.352 685.323 139.682 685.5 140H684.031C683.885 139.708 683.792 139.367 683.75 138.977ZM683.633 135.836C683.122 136.044 682.357 136.221 681.336 136.367C680.758 136.451 680.349 136.544 680.109 136.648C679.87 136.753 679.685 136.906 679.555 137.109C679.424 137.307 679.359 137.529 679.359 137.773C679.359 138.148 679.5 138.461 679.781 138.711C680.068 138.961 680.484 139.086 681.031 139.086C681.573 139.086 682.055 138.969 682.477 138.734C682.898 138.495 683.208 138.169 683.406 137.758C683.557 137.44 683.633 136.971 683.633 136.352V135.836ZM690.312 138.742L690.516 139.984C690.12 140.068 689.766 140.109 689.453 140.109C688.943 140.109 688.547 140.029 688.266 139.867C687.984 139.706 687.786 139.495 687.672 139.234C687.557 138.969 687.5 138.414 687.5 137.57V132.797H686.469V131.703H687.5V129.648L688.898 128.805V131.703H690.312V132.797H688.898V137.648C688.898 138.049 688.922 138.307 688.969 138.422C689.021 138.536 689.102 138.628 689.211 138.695C689.326 138.763 689.487 138.797 689.695 138.797C689.852 138.797 690.057 138.779 690.312 138.742ZM691.172 135.852C691.172 134.315 691.599 133.177 692.453 132.438C693.167 131.823 694.036 131.516 695.062 131.516C696.203 131.516 697.135 131.891 697.859 132.641C698.583 133.385 698.945 134.417 698.945 135.734C698.945 136.802 698.784 137.643 698.461 138.258C698.143 138.867 697.677 139.341 697.062 139.68C696.453 140.018 695.786 140.188 695.062 140.188C693.901 140.188 692.961 139.815 692.242 139.07C691.529 138.326 691.172 137.253 691.172 135.852ZM692.617 135.852C692.617 136.914 692.849 137.711 693.312 138.242C693.776 138.768 694.359 139.031 695.062 139.031C695.76 139.031 696.341 138.766 696.805 138.234C697.268 137.703 697.5 136.893 697.5 135.805C697.5 134.779 697.266 134.003 696.797 133.477C696.333 132.945 695.755 132.68 695.062 132.68C694.359 132.68 693.776 132.943 693.312 133.469C692.849 133.995 692.617 134.789 692.617 135.852ZM700.586 140V131.703H701.852V132.961C702.174 132.372 702.471 131.984 702.742 131.797C703.018 131.609 703.32 131.516 703.648 131.516C704.122 131.516 704.604 131.667 705.094 131.969L704.609 133.273C704.266 133.07 703.922 132.969 703.578 132.969C703.271 132.969 702.995 133.062 702.75 133.25C702.505 133.432 702.331 133.688 702.227 134.016C702.07 134.516 701.992 135.062 701.992 135.656V140H700.586ZM706 132.602L705.609 130.422V128.547H707.211V130.422L706.859 132.602H706ZM708.586 132.602L708.203 130.422V128.547H709.805V130.422L709.43 132.602H708.586ZM715.508 137.523L716.898 137.305C716.977 137.862 717.193 138.289 717.547 138.586C717.906 138.883 718.406 139.031 719.047 139.031C719.693 139.031 720.172 138.901 720.484 138.641C720.797 138.375 720.953 138.065 720.953 137.711C720.953 137.393 720.815 137.143 720.539 136.961C720.346 136.836 719.867 136.677 719.102 136.484C718.07 136.224 717.354 136 716.953 135.812C716.557 135.62 716.255 135.357 716.047 135.023C715.844 134.685 715.742 134.312 715.742 133.906C715.742 133.536 715.826 133.195 715.992 132.883C716.164 132.565 716.396 132.302 716.688 132.094C716.906 131.932 717.203 131.797 717.578 131.688C717.958 131.573 718.365 131.516 718.797 131.516C719.448 131.516 720.018 131.609 720.508 131.797C721.003 131.984 721.367 132.24 721.602 132.562C721.836 132.88 721.997 133.307 722.086 133.844L720.711 134.031C720.648 133.604 720.466 133.271 720.164 133.031C719.867 132.792 719.445 132.672 718.898 132.672C718.253 132.672 717.792 132.779 717.516 132.992C717.24 133.206 717.102 133.456 717.102 133.742C717.102 133.924 717.159 134.089 717.273 134.234C717.388 134.385 717.568 134.51 717.812 134.609C717.953 134.661 718.367 134.781 719.055 134.969C720.049 135.234 720.742 135.453 721.133 135.625C721.529 135.792 721.839 136.036 722.062 136.359C722.286 136.682 722.398 137.083 722.398 137.562C722.398 138.031 722.26 138.474 721.984 138.891C721.714 139.302 721.32 139.622 720.805 139.852C720.289 140.076 719.706 140.188 719.055 140.188C717.977 140.188 717.154 139.964 716.586 139.516C716.023 139.068 715.664 138.404 715.508 137.523ZM724.078 130.164V128.547H725.484V130.164H724.078ZM724.078 140V131.703H725.484V140H724.078ZM731.906 134.992V133.68L739.492 130.477V131.875L733.477 134.344L739.492 136.836V138.234L731.906 134.992ZM746.812 140V138.953C746.286 139.776 745.513 140.188 744.492 140.188C743.831 140.188 743.221 140.005 742.664 139.641C742.112 139.276 741.682 138.768 741.375 138.117C741.073 137.461 740.922 136.708 740.922 135.859C740.922 135.031 741.06 134.281 741.336 133.609C741.612 132.932 742.026 132.414 742.578 132.055C743.13 131.695 743.747 131.516 744.43 131.516C744.93 131.516 745.375 131.622 745.766 131.836C746.156 132.044 746.474 132.318 746.719 132.656V128.547H748.117V140H746.812ZM742.367 135.859C742.367 136.922 742.591 137.716 743.039 138.242C743.487 138.768 744.016 139.031 744.625 139.031C745.24 139.031 745.76 138.781 746.188 138.281C746.62 137.776 746.836 137.008 746.836 135.977C746.836 134.841 746.617 134.008 746.18 133.477C745.742 132.945 745.203 132.68 744.562 132.68C743.938 132.68 743.414 132.935 742.992 133.445C742.576 133.956 742.367 134.76 742.367 135.859ZM750.344 130.164V128.547H751.75V130.164H750.344ZM750.344 140V131.703H751.75V140H750.344ZM756.203 140L753.047 131.703H754.531L756.312 136.672C756.505 137.208 756.682 137.766 756.844 138.344C756.969 137.906 757.143 137.38 757.367 136.766L759.211 131.703H760.656L757.516 140H756.203ZM769.305 134.992L761.719 138.234V136.836L767.727 134.344L761.719 131.875V130.477L769.305 133.68V134.992Z" fill="#3E3E3D"/>
<g opacity="0.5">
<path d="M579.5 158.5H1159" stroke="#CDCCCB"/>
</g>
</g>
<rect x="0.5" y="0.5" width="1158" height="158" rx="7.5" stroke="#CDCCCB"/>
<defs>
<clipPath id="clip0_353_46475">
<rect width="1159" height="159" rx="8" fill="white"/>
</clipPath>
</defs>
</svg>
