<svg width="712" height="242" viewBox="0 0 712 242" fill="none" xmlns="http://www.w3.org/2000/svg">
<rect x="0.5" y="0.5" width="711" height="241" rx="7.5" stroke="#CDCCCB"/>
<path d="M138.832 169.225L140.484 168.973C140.555 169.293 140.697 169.537 140.912 169.705C141.127 169.869 141.428 169.951 141.814 169.951C142.24 169.951 142.561 169.873 142.775 169.717C142.92 169.607 142.992 169.461 142.992 169.277C142.992 169.152 142.953 169.049 142.875 168.967C142.793 168.889 142.609 168.816 142.324 168.75C140.996 168.457 140.154 168.189 139.799 167.947C139.307 167.611 139.061 167.145 139.061 166.547C139.061 166.008 139.273 165.555 139.699 165.188C140.125 164.82 140.785 164.637 141.68 164.637C142.531 164.637 143.164 164.775 143.578 165.053C143.992 165.33 144.277 165.74 144.434 166.283L142.881 166.57C142.814 166.328 142.688 166.143 142.5 166.014C142.316 165.885 142.053 165.82 141.709 165.82C141.275 165.82 140.965 165.881 140.777 166.002C140.652 166.088 140.59 166.199 140.59 166.336C140.59 166.453 140.645 166.553 140.754 166.635C140.902 166.744 141.414 166.898 142.289 167.098C143.168 167.297 143.781 167.541 144.129 167.83C144.473 168.123 144.645 168.531 144.645 169.055C144.645 169.625 144.406 170.115 143.93 170.525C143.453 170.936 142.748 171.141 141.814 171.141C140.967 171.141 140.295 170.969 139.799 170.625C139.307 170.281 138.984 169.814 138.832 169.225ZM146.045 164.777H147.58V165.691C147.779 165.379 148.049 165.125 148.389 164.93C148.729 164.734 149.105 164.637 149.52 164.637C150.242 164.637 150.855 164.92 151.359 165.486C151.863 166.053 152.115 166.842 152.115 167.854C152.115 168.893 151.861 169.701 151.354 170.279C150.846 170.854 150.23 171.141 149.508 171.141C149.164 171.141 148.852 171.072 148.57 170.936C148.293 170.799 148 170.564 147.691 170.232V173.367H146.045V164.777ZM147.674 167.783C147.674 168.482 147.812 169 148.09 169.336C148.367 169.668 148.705 169.834 149.104 169.834C149.486 169.834 149.805 169.682 150.059 169.377C150.312 169.068 150.439 168.564 150.439 167.865C150.439 167.213 150.309 166.729 150.047 166.412C149.785 166.096 149.461 165.938 149.074 165.938C148.672 165.938 148.338 166.094 148.072 166.406C147.807 166.715 147.674 167.174 147.674 167.783ZM154.658 166.676L153.164 166.406C153.332 165.805 153.621 165.359 154.031 165.07C154.441 164.781 155.051 164.637 155.859 164.637C156.594 164.637 157.141 164.725 157.5 164.9C157.859 165.072 158.111 165.293 158.256 165.562C158.404 165.828 158.479 166.318 158.479 167.033L158.461 168.955C158.461 169.502 158.486 169.906 158.537 170.168C158.592 170.426 158.691 170.703 158.836 171H157.207C157.164 170.891 157.111 170.729 157.049 170.514C157.021 170.416 157.002 170.352 156.99 170.32C156.709 170.594 156.408 170.799 156.088 170.936C155.768 171.072 155.426 171.141 155.062 171.141C154.422 171.141 153.916 170.967 153.545 170.619C153.178 170.271 152.994 169.832 152.994 169.301C152.994 168.949 153.078 168.637 153.246 168.363C153.414 168.086 153.648 167.875 153.949 167.73C154.254 167.582 154.691 167.453 155.262 167.344C156.031 167.199 156.564 167.064 156.861 166.939V166.775C156.861 166.459 156.783 166.234 156.627 166.102C156.471 165.965 156.176 165.896 155.742 165.896C155.449 165.896 155.221 165.955 155.057 166.072C154.893 166.186 154.76 166.387 154.658 166.676ZM156.861 168.012C156.65 168.082 156.316 168.166 155.859 168.264C155.402 168.361 155.104 168.457 154.963 168.551C154.748 168.703 154.641 168.896 154.641 169.131C154.641 169.361 154.727 169.561 154.898 169.729C155.07 169.896 155.289 169.98 155.555 169.98C155.852 169.98 156.135 169.883 156.404 169.688C156.604 169.539 156.734 169.357 156.797 169.143C156.84 169.002 156.861 168.734 156.861 168.34V168.012ZM165.533 166.617L163.91 166.91C163.855 166.586 163.73 166.342 163.535 166.178C163.344 166.014 163.094 165.932 162.785 165.932C162.375 165.932 162.047 166.074 161.801 166.359C161.559 166.641 161.438 167.113 161.438 167.777C161.438 168.516 161.561 169.037 161.807 169.342C162.057 169.646 162.391 169.799 162.809 169.799C163.121 169.799 163.377 169.711 163.576 169.535C163.775 169.355 163.916 169.049 163.998 168.615L165.615 168.891C165.447 169.633 165.125 170.193 164.648 170.572C164.172 170.951 163.533 171.141 162.732 171.141C161.822 171.141 161.096 170.854 160.553 170.279C160.014 169.705 159.744 168.91 159.744 167.895C159.744 166.867 160.016 166.068 160.559 165.498C161.102 164.924 161.836 164.637 162.762 164.637C163.52 164.637 164.121 164.801 164.566 165.129C165.016 165.453 165.338 165.949 165.533 166.617ZM166.787 163.934V162.41H168.434V163.934H166.787ZM166.787 171V164.777H168.434V171H166.787ZM175.787 171H174.141V167.824C174.141 167.152 174.105 166.719 174.035 166.523C173.965 166.324 173.85 166.17 173.689 166.061C173.533 165.951 173.344 165.896 173.121 165.896C172.836 165.896 172.58 165.975 172.354 166.131C172.127 166.287 171.971 166.494 171.885 166.752C171.803 167.01 171.762 167.486 171.762 168.182V171H170.115V164.777H171.645V165.691C172.188 164.988 172.871 164.637 173.695 164.637C174.059 164.637 174.391 164.703 174.691 164.836C174.992 164.965 175.219 165.131 175.371 165.334C175.527 165.537 175.635 165.768 175.693 166.025C175.756 166.283 175.787 166.652 175.787 167.133V171ZM177.311 171.41L179.191 171.639C179.223 171.857 179.295 172.008 179.408 172.09C179.564 172.207 179.811 172.266 180.146 172.266C180.576 172.266 180.898 172.201 181.113 172.072C181.258 171.986 181.367 171.848 181.441 171.656C181.492 171.52 181.518 171.268 181.518 170.9V169.992C181.025 170.664 180.404 171 179.654 171C178.818 171 178.156 170.646 177.668 169.939C177.285 169.381 177.094 168.686 177.094 167.854C177.094 166.811 177.344 166.014 177.844 165.463C178.348 164.912 178.973 164.637 179.719 164.637C180.488 164.637 181.123 164.975 181.623 165.65V164.777H183.164V170.361C183.164 171.096 183.104 171.645 182.982 172.008C182.861 172.371 182.691 172.656 182.473 172.863C182.254 173.07 181.961 173.232 181.594 173.35C181.23 173.467 180.77 173.525 180.211 173.525C179.156 173.525 178.408 173.344 177.967 172.98C177.525 172.621 177.305 172.164 177.305 171.609C177.305 171.555 177.307 171.488 177.311 171.41ZM178.781 167.76C178.781 168.42 178.908 168.904 179.162 169.213C179.42 169.518 179.736 169.67 180.111 169.67C180.514 169.67 180.854 169.514 181.131 169.201C181.408 168.885 181.547 168.418 181.547 167.801C181.547 167.156 181.414 166.678 181.148 166.365C180.883 166.053 180.547 165.896 180.141 165.896C179.746 165.896 179.42 166.051 179.162 166.359C178.908 166.664 178.781 167.131 178.781 167.76ZM187.775 166.219V164.707H193.781V166.219H187.775ZM187.775 168.82V167.303H193.781V168.82H187.775ZM202.348 171H200.701V164.795C200.1 165.357 199.391 165.773 198.574 166.043V164.549C199.004 164.408 199.471 164.143 199.975 163.752C200.479 163.357 200.824 162.898 201.012 162.375H202.348V171ZM207.598 162.375C208.43 162.375 209.08 162.672 209.549 163.266C210.107 163.969 210.387 165.135 210.387 166.764C210.387 168.389 210.105 169.557 209.543 170.268C209.078 170.854 208.43 171.146 207.598 171.146C206.762 171.146 206.088 170.826 205.576 170.186C205.064 169.541 204.809 168.395 204.809 166.746C204.809 165.129 205.09 163.965 205.652 163.254C206.117 162.668 206.766 162.375 207.598 162.375ZM207.598 163.74C207.398 163.74 207.221 163.805 207.064 163.934C206.908 164.059 206.787 164.285 206.701 164.613C206.588 165.039 206.531 165.756 206.531 166.764C206.531 167.771 206.582 168.465 206.684 168.844C206.785 169.219 206.912 169.469 207.064 169.594C207.221 169.719 207.398 169.781 207.598 169.781C207.797 169.781 207.975 169.719 208.131 169.594C208.287 169.465 208.408 169.236 208.494 168.908C208.607 168.486 208.664 167.771 208.664 166.764C208.664 165.756 208.613 165.064 208.512 164.689C208.41 164.311 208.281 164.059 208.125 163.934C207.973 163.805 207.797 163.74 207.598 163.74ZM211.799 164.777H213.334V165.691C213.533 165.379 213.803 165.125 214.143 164.93C214.482 164.734 214.859 164.637 215.273 164.637C215.996 164.637 216.609 164.92 217.113 165.486C217.617 166.053 217.869 166.842 217.869 167.854C217.869 168.893 217.615 169.701 217.107 170.279C216.6 170.854 215.984 171.141 215.262 171.141C214.918 171.141 214.605 171.072 214.324 170.936C214.047 170.799 213.754 170.564 213.445 170.232V173.367H211.799V164.777ZM213.428 167.783C213.428 168.482 213.566 169 213.844 169.336C214.121 169.668 214.459 169.834 214.857 169.834C215.24 169.834 215.559 169.682 215.812 169.377C216.066 169.068 216.193 168.564 216.193 167.865C216.193 167.213 216.062 166.729 215.801 166.412C215.539 166.096 215.215 165.938 214.828 165.938C214.426 165.938 214.092 166.094 213.826 166.406C213.561 166.715 213.428 167.174 213.428 167.783ZM218.391 171L220.635 167.795L218.484 164.777H220.494L221.596 166.488L222.756 164.777H224.689L222.58 167.725L224.883 171H222.861L221.596 169.072L220.318 171H218.391Z" fill="#3E3E3D"/>
<path d="M145.512 77.2246L147.164 76.9727C147.234 77.293 147.377 77.5371 147.592 77.7051C147.807 77.8691 148.107 77.9512 148.494 77.9512C148.92 77.9512 149.24 77.873 149.455 77.7168C149.6 77.6074 149.672 77.4609 149.672 77.2773C149.672 77.1523 149.633 77.0488 149.555 76.9668C149.473 76.8887 149.289 76.8164 149.004 76.75C147.676 76.457 146.834 76.1895 146.479 75.9473C145.986 75.6113 145.74 75.1445 145.74 74.5469C145.74 74.0078 145.953 73.5547 146.379 73.1875C146.805 72.8203 147.465 72.6367 148.359 72.6367C149.211 72.6367 149.844 72.7754 150.258 73.0527C150.672 73.3301 150.957 73.7402 151.113 74.2832L149.561 74.5703C149.494 74.3281 149.367 74.1426 149.18 74.0137C148.996 73.8848 148.732 73.8203 148.389 73.8203C147.955 73.8203 147.645 73.8809 147.457 74.002C147.332 74.0879 147.27 74.1992 147.27 74.3359C147.27 74.4531 147.324 74.5527 147.434 74.6348C147.582 74.7441 148.094 74.8984 148.969 75.0977C149.848 75.2969 150.461 75.541 150.809 75.8301C151.152 76.123 151.324 76.5312 151.324 77.0547C151.324 77.625 151.086 78.1152 150.609 78.5254C150.133 78.9355 149.428 79.1406 148.494 79.1406C147.646 79.1406 146.975 78.9688 146.479 78.625C145.986 78.2812 145.664 77.8145 145.512 77.2246ZM152.725 72.7773H154.26V73.6914C154.459 73.3789 154.729 73.125 155.068 72.9297C155.408 72.7344 155.785 72.6367 156.199 72.6367C156.922 72.6367 157.535 72.9199 158.039 73.4863C158.543 74.0527 158.795 74.8418 158.795 75.8535C158.795 76.8926 158.541 77.7012 158.033 78.2793C157.525 78.8535 156.91 79.1406 156.188 79.1406C155.844 79.1406 155.531 79.0723 155.25 78.9355C154.973 78.7988 154.68 78.5645 154.371 78.2324V81.3672H152.725V72.7773ZM154.354 75.7832C154.354 76.4824 154.492 77 154.77 77.3359C155.047 77.668 155.385 77.834 155.783 77.834C156.166 77.834 156.484 77.6816 156.738 77.377C156.992 77.0684 157.119 76.5645 157.119 75.8652C157.119 75.2129 156.988 74.7285 156.727 74.4121C156.465 74.0957 156.141 73.9375 155.754 73.9375C155.352 73.9375 155.018 74.0938 154.752 74.4062C154.486 74.7148 154.354 75.1738 154.354 75.7832ZM161.338 74.6758L159.844 74.4062C160.012 73.8047 160.301 73.3594 160.711 73.0703C161.121 72.7812 161.73 72.6367 162.539 72.6367C163.273 72.6367 163.82 72.7246 164.18 72.9004C164.539 73.0723 164.791 73.293 164.936 73.5625C165.084 73.8281 165.158 74.3184 165.158 75.0332L165.141 76.9551C165.141 77.502 165.166 77.9062 165.217 78.168C165.271 78.4258 165.371 78.7031 165.516 79H163.887C163.844 78.8906 163.791 78.7285 163.729 78.5137C163.701 78.416 163.682 78.3516 163.67 78.3203C163.389 78.5938 163.088 78.7988 162.768 78.9355C162.447 79.0723 162.105 79.1406 161.742 79.1406C161.102 79.1406 160.596 78.9668 160.225 78.6191C159.857 78.2715 159.674 77.832 159.674 77.3008C159.674 76.9492 159.758 76.6367 159.926 76.3633C160.094 76.0859 160.328 75.875 160.629 75.7305C160.934 75.582 161.371 75.4531 161.941 75.3438C162.711 75.1992 163.244 75.0645 163.541 74.9395V74.7754C163.541 74.459 163.463 74.2344 163.307 74.1016C163.15 73.9648 162.855 73.8965 162.422 73.8965C162.129 73.8965 161.9 73.9551 161.736 74.0723C161.572 74.1855 161.439 74.3867 161.338 74.6758ZM163.541 76.0117C163.33 76.082 162.996 76.166 162.539 76.2637C162.082 76.3613 161.783 76.457 161.643 76.5508C161.428 76.7031 161.32 76.8965 161.32 77.1309C161.32 77.3613 161.406 77.5605 161.578 77.7285C161.75 77.8965 161.969 77.9805 162.234 77.9805C162.531 77.9805 162.814 77.8828 163.084 77.6875C163.283 77.5391 163.414 77.3574 163.477 77.1426C163.52 77.002 163.541 76.7344 163.541 76.3398V76.0117ZM172.213 74.6172L170.59 74.9102C170.535 74.5859 170.41 74.3418 170.215 74.1777C170.023 74.0137 169.773 73.9316 169.465 73.9316C169.055 73.9316 168.727 74.0742 168.48 74.3594C168.238 74.6406 168.117 75.1133 168.117 75.7773C168.117 76.5156 168.24 77.0371 168.486 77.3418C168.736 77.6465 169.07 77.7988 169.488 77.7988C169.801 77.7988 170.057 77.7109 170.256 77.5352C170.455 77.3555 170.596 77.0488 170.678 76.6152L172.295 76.8906C172.127 77.6328 171.805 78.1934 171.328 78.5723C170.852 78.9512 170.213 79.1406 169.412 79.1406C168.502 79.1406 167.775 78.8535 167.232 78.2793C166.693 77.7051 166.424 76.9102 166.424 75.8945C166.424 74.8672 166.695 74.0684 167.238 73.498C167.781 72.9238 168.516 72.6367 169.441 72.6367C170.199 72.6367 170.801 72.8008 171.246 73.1289C171.695 73.4531 172.018 73.9492 172.213 74.6172ZM173.467 71.9336V70.4102H175.113V71.9336H173.467ZM173.467 79V72.7773H175.113V79H173.467ZM182.467 79H180.82V75.8242C180.82 75.1523 180.785 74.7188 180.715 74.5234C180.645 74.3242 180.529 74.1699 180.369 74.0605C180.213 73.9512 180.023 73.8965 179.801 73.8965C179.516 73.8965 179.26 73.9746 179.033 74.1309C178.807 74.2871 178.65 74.4941 178.564 74.752C178.482 75.0098 178.441 75.4863 178.441 76.1816V79H176.795V72.7773H178.324V73.6914C178.867 72.9883 179.551 72.6367 180.375 72.6367C180.738 72.6367 181.07 72.7031 181.371 72.8359C181.672 72.9648 181.898 73.1309 182.051 73.334C182.207 73.5371 182.314 73.7676 182.373 74.0254C182.436 74.2832 182.467 74.6523 182.467 75.1328V79ZM183.99 79.4102L185.871 79.6387C185.902 79.8574 185.975 80.0078 186.088 80.0898C186.244 80.207 186.49 80.2656 186.826 80.2656C187.256 80.2656 187.578 80.2012 187.793 80.0723C187.938 79.9863 188.047 79.8477 188.121 79.6562C188.172 79.5195 188.197 79.2676 188.197 78.9004V77.9922C187.705 78.6641 187.084 79 186.334 79C185.498 79 184.836 78.6465 184.348 77.9395C183.965 77.3809 183.773 76.6855 183.773 75.8535C183.773 74.8105 184.023 74.0137 184.523 73.4629C185.027 72.9121 185.652 72.6367 186.398 72.6367C187.168 72.6367 187.803 72.9746 188.303 73.6504V72.7773H189.844V78.3613C189.844 79.0957 189.783 79.6445 189.662 80.0078C189.541 80.3711 189.371 80.6562 189.152 80.8633C188.934 81.0703 188.641 81.2324 188.273 81.3496C187.91 81.4668 187.449 81.5254 186.891 81.5254C185.836 81.5254 185.088 81.3438 184.646 80.9805C184.205 80.6211 183.984 80.1641 183.984 79.6094C183.984 79.5547 183.986 79.4883 183.99 79.4102ZM185.461 75.7598C185.461 76.4199 185.588 76.9043 185.842 77.2129C186.1 77.5176 186.416 77.6699 186.791 77.6699C187.193 77.6699 187.533 77.5137 187.811 77.2012C188.088 76.8848 188.227 76.418 188.227 75.8008C188.227 75.1562 188.094 74.6777 187.828 74.3652C187.562 74.0527 187.227 73.8965 186.82 73.8965C186.426 73.8965 186.1 74.0508 185.842 74.3594C185.588 74.6641 185.461 75.1309 185.461 75.7598ZM194.455 74.2188V72.707H200.461V74.2188H194.455ZM194.455 76.8203V75.3027H200.461V76.8203H194.455ZM207.598 70.375C208.43 70.375 209.08 70.6719 209.549 71.2656C210.107 71.9688 210.387 73.1348 210.387 74.7637C210.387 76.3887 210.105 77.5566 209.543 78.2676C209.078 78.8535 208.43 79.1465 207.598 79.1465C206.762 79.1465 206.088 78.8262 205.576 78.1855C205.064 77.541 204.809 76.3945 204.809 74.7461C204.809 73.1289 205.09 71.9648 205.652 71.2539C206.117 70.668 206.766 70.375 207.598 70.375ZM207.598 71.7402C207.398 71.7402 207.221 71.8047 207.064 71.9336C206.908 72.0586 206.787 72.2852 206.701 72.6133C206.588 73.0391 206.531 73.7559 206.531 74.7637C206.531 75.7715 206.582 76.4648 206.684 76.8438C206.785 77.2188 206.912 77.4688 207.064 77.5938C207.221 77.7188 207.398 77.7812 207.598 77.7812C207.797 77.7812 207.975 77.7188 208.131 77.5938C208.287 77.4648 208.408 77.2363 208.494 76.9082C208.607 76.4863 208.664 75.7715 208.664 74.7637C208.664 73.7559 208.613 73.0645 208.512 72.6895C208.41 72.3105 208.281 72.0586 208.125 71.9336C207.973 71.8047 207.797 71.7402 207.598 71.7402ZM211.799 72.7773H213.334V73.6914C213.533 73.3789 213.803 73.125 214.143 72.9297C214.482 72.7344 214.859 72.6367 215.273 72.6367C215.996 72.6367 216.609 72.9199 217.113 73.4863C217.617 74.0527 217.869 74.8418 217.869 75.8535C217.869 76.8926 217.615 77.7012 217.107 78.2793C216.6 78.8535 215.984 79.1406 215.262 79.1406C214.918 79.1406 214.605 79.0723 214.324 78.9355C214.047 78.7988 213.754 78.5645 213.445 78.2324V81.3672H211.799V72.7773ZM213.428 75.7832C213.428 76.4824 213.566 77 213.844 77.3359C214.121 77.668 214.459 77.834 214.857 77.834C215.24 77.834 215.559 77.6816 215.812 77.377C216.066 77.0684 216.193 76.5645 216.193 75.8652C216.193 75.2129 216.062 74.7285 215.801 74.4121C215.539 74.0957 215.215 73.9375 214.828 73.9375C214.426 73.9375 214.092 74.0938 213.826 74.4062C213.561 74.7148 213.428 75.1738 213.428 75.7832ZM218.391 79L220.635 75.7949L218.484 72.7773H220.494L221.596 74.4883L222.756 72.7773H224.689L222.58 75.7246L224.883 79H222.861L221.596 77.0723L220.318 79H218.391Z" fill="#3E3E3D"/>
<rect x="303" y="121" width="17" height="92" fill="#C81640" fill-opacity="0.25"/>
<rect x="303" y="29" width="7" height="92" fill="#C81640" fill-opacity="0.25"/>
<line x1="303.5" y1="16" x2="303.5" y2="226" stroke="#DE2048"/>
<line x1="310.5" y1="16" x2="310.5" y2="121" stroke="#DE2048"/>
<line x1="320.5" y1="121" x2="320.5" y2="226" stroke="#DE2048"/>
<line x1="253.5" y1="16" x2="253.5" y2="226" stroke="#DE2048"/>
<path d="M258.04 101C256.6 101 255.48 100.627 254.68 99.88C253.933 99.08 253.56 97.96 253.56 96.52V49.08C253.56 47.64 253.933 46.5467 254.68 45.8C255.48 45 256.6 44.6 258.04 44.6H273.48C282.76 44.6 289.907 47.0267 294.92 51.88C299.987 56.68 302.52 63.64 302.52 72.76C302.52 77.2933 301.88 81.32 300.6 84.84C299.32 88.36 297.427 91.32 294.92 93.72C292.467 96.0667 289.453 97.88 285.88 99.16C282.307 100.387 278.173 101 273.48 101H258.04ZM261.88 94.04H273C276.52 94.04 279.56 93.6133 282.12 92.76C284.733 91.8533 286.92 90.52 288.68 88.76C290.44 87 291.747 84.7867 292.6 82.12C293.453 79.4533 293.88 76.3333 293.88 72.76C293.88 65.6667 292.12 60.36 288.6 56.84C285.133 53.32 279.933 51.56 273 51.56H261.88V94.04ZM331.078 101.72C326.811 101.72 323.131 100.92 320.038 99.32C316.998 97.6667 314.625 95.3467 312.918 92.36C311.265 89.32 310.438 85.72 310.438 81.56C310.438 77.5067 311.265 73.96 312.918 70.92C314.571 67.88 316.838 65.5067 319.718 63.8C322.598 62.0933 325.878 61.24 329.558 61.24C332.278 61.24 334.705 61.6933 336.838 62.6C338.971 63.4533 340.785 64.7333 342.278 66.44C343.825 68.0933 344.971 70.12 345.718 72.52C346.518 74.92 346.918 77.6133 346.918 80.6C346.918 81.5067 346.651 82.2 346.118 82.68C345.585 83.1067 344.785 83.32 343.718 83.32H316.838V78.36H341.478L340.118 79.48C340.118 76.8133 339.718 74.5467 338.918 72.68C338.171 70.8133 337.025 69.4 335.478 68.44C333.985 67.4267 332.118 66.92 329.878 66.92C327.371 66.92 325.238 67.5067 323.478 68.68C321.771 69.8533 320.465 71.48 319.558 73.56C318.651 75.64 318.198 78.0667 318.198 80.84V81.32C318.198 86.0133 319.291 89.56 321.478 91.96C323.718 94.3067 326.945 95.48 331.158 95.48C332.758 95.48 334.438 95.2667 336.198 94.84C338.011 94.4133 339.718 93.6933 341.318 92.68C342.225 92.1467 343.025 91.9067 343.718 91.96C344.465 92.0133 345.051 92.2533 345.478 92.68C345.958 93.1067 346.251 93.64 346.358 94.28C346.465 94.92 346.358 95.5867 346.038 96.28C345.718 96.92 345.158 97.5067 344.358 98.04C342.545 99.2667 340.438 100.2 338.038 100.84C335.638 101.427 333.318 101.72 331.078 101.72ZM369.407 101.72C367.06 101.72 364.634 101.453 362.127 100.92C359.674 100.387 357.407 99.48 355.327 98.2C354.634 97.72 354.154 97.1867 353.887 96.6C353.62 96.0133 353.514 95.4267 353.567 94.84C353.674 94.2 353.914 93.6667 354.287 93.24C354.714 92.76 355.22 92.4667 355.807 92.36C356.447 92.2533 357.114 92.3867 357.807 92.76C359.887 93.9333 361.887 94.76 363.807 95.24C365.727 95.6667 367.62 95.88 369.487 95.88C372.314 95.88 374.447 95.3733 375.887 94.36C377.327 93.3467 378.047 91.9867 378.047 90.28C378.047 88.8933 377.567 87.8267 376.607 87.08C375.647 86.28 374.207 85.6667 372.287 85.24L364.687 83.72C361.38 83.0267 358.874 81.8 357.167 80.04C355.46 78.28 354.607 76.04 354.607 73.32C354.607 70.8667 355.274 68.7333 356.607 66.92C357.94 65.1067 359.807 63.72 362.207 62.76C364.607 61.7467 367.38 61.24 370.527 61.24C372.874 61.24 375.087 61.5333 377.167 62.12C379.247 62.7067 381.167 63.5867 382.927 64.76C383.62 65.1333 384.074 65.64 384.287 66.28C384.5 66.8667 384.527 67.4533 384.367 68.04C384.26 68.6267 383.994 69.16 383.567 69.64C383.14 70.0667 382.607 70.3333 381.967 70.44C381.38 70.4933 380.714 70.3333 379.967 69.96C378.367 68.9467 376.767 68.2267 375.167 67.8C373.62 67.3733 372.074 67.16 370.527 67.16C367.7 67.16 365.567 67.6933 364.127 68.76C362.74 69.7733 362.047 71.16 362.047 72.92C362.047 74.2533 362.474 75.3467 363.327 76.2C364.18 77.0533 365.514 77.6667 367.327 78.04L374.927 79.56C378.394 80.2533 381.007 81.4267 382.767 83.08C384.58 84.7333 385.487 86.9733 385.487 89.8C385.487 93.48 384.02 96.3867 381.087 98.52C378.154 100.653 374.26 101.72 369.407 101.72ZM398.477 101.48C397.197 101.48 396.21 101.107 395.517 100.36C394.824 99.56 394.477 98.4667 394.477 97.08V65.88C394.477 64.4933 394.824 63.4267 395.517 62.68C396.21 61.9333 397.197 61.56 398.477 61.56C399.757 61.56 400.744 61.9333 401.437 62.68C402.184 63.4267 402.557 64.4933 402.557 65.88V97.08C402.557 98.4667 402.21 99.56 401.517 100.36C400.824 101.107 399.81 101.48 398.477 101.48ZM398.477 53.24C396.877 53.24 395.624 52.84 394.717 52.04C393.864 51.24 393.437 50.12 393.437 48.68C393.437 47.1867 393.864 46.0667 394.717 45.32C395.624 44.52 396.877 44.12 398.477 44.12C400.077 44.12 401.304 44.52 402.157 45.32C403.064 46.0667 403.517 47.1867 403.517 48.68C403.517 50.12 403.064 51.24 402.157 52.04C401.304 52.84 400.077 53.24 398.477 53.24ZM431.61 116.12C428.73 116.12 425.93 115.827 423.21 115.24C420.543 114.653 418.117 113.693 415.93 112.36C415.13 111.933 414.597 111.4 414.33 110.76C414.063 110.173 413.983 109.56 414.09 108.92C414.25 108.28 414.543 107.72 414.97 107.24C415.397 106.76 415.903 106.44 416.49 106.28C417.13 106.12 417.797 106.227 418.49 106.6C420.837 107.88 423.05 108.733 425.13 109.16C427.263 109.64 429.237 109.88 431.05 109.88C434.783 109.88 437.583 108.92 439.45 107C441.317 105.133 442.25 102.36 442.25 98.68V90.52H442.97C442.17 93.4533 440.49 95.7733 437.93 97.48C435.37 99.1867 432.41 100.04 429.05 100.04C425.53 100.04 422.463 99.24 419.85 97.64C417.237 95.9867 415.21 93.72 413.77 90.84C412.33 87.9067 411.61 84.4933 411.61 80.6C411.61 77.6667 412.01 75.0267 412.81 72.68C413.663 70.3333 414.837 68.3067 416.33 66.6C417.877 64.8933 419.717 63.5867 421.85 62.68C424.037 61.72 426.437 61.24 429.05 61.24C432.463 61.24 435.423 62.0933 437.93 63.8C440.49 65.5067 442.143 67.8267 442.89 70.76L442.09 72.12V65.48C442.09 64.1467 442.437 63.1333 443.13 62.44C443.877 61.7467 444.863 61.4 446.09 61.4C447.37 61.4 448.357 61.7467 449.05 62.44C449.743 63.1333 450.09 64.1467 450.09 65.48V97.72C450.09 103.8 448.517 108.387 445.37 111.48C442.223 114.573 437.637 116.12 431.61 116.12ZM430.97 93.72C433.317 93.72 435.317 93.1867 436.97 92.12C438.623 91.0533 439.903 89.5333 440.81 87.56C441.717 85.5867 442.17 83.2667 442.17 80.6C442.17 76.6 441.157 73.4267 439.13 71.08C437.157 68.7333 434.437 67.56 430.97 67.56C428.677 67.56 426.703 68.0933 425.05 69.16C423.397 70.2267 422.09 71.7467 421.13 73.72C420.223 75.64 419.77 77.9333 419.77 80.6C419.77 84.6533 420.783 87.8533 422.81 90.2C424.837 92.5467 427.557 93.72 430.97 93.72ZM465.43 101.56C464.15 101.56 463.163 101.213 462.47 100.52C461.777 99.7733 461.43 98.76 461.43 97.48V65.48C461.43 64.1467 461.777 63.1333 462.47 62.44C463.163 61.7467 464.123 61.4 465.35 61.4C466.63 61.4 467.59 61.7467 468.23 62.44C468.923 63.1333 469.27 64.1467 469.27 65.48V71.72L468.39 70.28C469.563 67.2933 471.403 65.0533 473.91 63.56C476.417 62.0133 479.297 61.24 482.55 61.24C485.643 61.24 488.203 61.8267 490.23 63C492.31 64.12 493.857 65.8533 494.87 68.2C495.883 70.4933 496.39 73.4 496.39 76.92V97.48C496.39 98.76 496.043 99.7733 495.35 100.52C494.657 101.213 493.67 101.56 492.39 101.56C491.057 101.56 490.043 101.213 489.35 100.52C488.657 99.7733 488.31 98.76 488.31 97.48V77.4C488.31 74.04 487.643 71.5867 486.31 70.04C485.03 68.4933 483.003 67.72 480.23 67.72C476.977 67.72 474.363 68.7333 472.39 70.76C470.47 72.7867 469.51 75.5067 469.51 78.92V97.48C469.51 100.2 468.15 101.56 465.43 101.56Z" fill="black"/>
<path d="M258.04 193C256.6 193 255.48 192.627 254.68 191.88C253.933 191.08 253.56 189.96 253.56 188.52V141.08C253.56 139.64 253.933 138.547 254.68 137.8C255.48 137 256.6 136.6 258.04 136.6H273.48C282.76 136.6 289.907 139.027 294.92 143.88C299.987 148.68 302.52 155.64 302.52 164.76C302.52 169.293 301.88 173.32 300.6 176.84C299.32 180.36 297.427 183.32 294.92 185.72C292.467 188.067 289.453 189.88 285.88 191.16C282.307 192.387 278.173 193 273.48 193H258.04ZM261.88 186.04H273C276.52 186.04 279.56 185.613 282.12 184.76C284.733 183.853 286.92 182.52 288.68 180.76C290.44 179 291.747 176.787 292.6 174.12C293.453 171.453 293.88 168.333 293.88 164.76C293.88 157.667 292.12 152.36 288.6 148.84C285.133 145.32 279.933 143.56 273 143.56H261.88V186.04ZM341.078 193.72C336.811 193.72 333.131 192.92 330.038 191.32C326.998 189.667 324.625 187.347 322.918 184.36C321.265 181.32 320.438 177.72 320.438 173.56C320.438 169.507 321.265 165.96 322.918 162.92C324.571 159.88 326.838 157.507 329.718 155.8C332.598 154.093 335.878 153.24 339.558 153.24C342.278 153.24 344.705 153.693 346.838 154.6C348.971 155.453 350.785 156.733 352.278 158.44C353.825 160.093 354.971 162.12 355.718 164.52C356.518 166.92 356.918 169.613 356.918 172.6C356.918 173.507 356.651 174.2 356.118 174.68C355.585 175.107 354.785 175.32 353.718 175.32H326.838V170.36H351.478L350.118 171.48C350.118 168.813 349.718 166.547 348.918 164.68C348.171 162.813 347.025 161.4 345.478 160.44C343.985 159.427 342.118 158.92 339.878 158.92C337.371 158.92 335.238 159.507 333.478 160.68C331.771 161.853 330.465 163.48 329.558 165.56C328.651 167.64 328.198 170.067 328.198 172.84V173.32C328.198 178.013 329.291 181.56 331.478 183.96C333.718 186.307 336.945 187.48 341.158 187.48C342.758 187.48 344.438 187.267 346.198 186.84C348.011 186.413 349.718 185.693 351.318 184.68C352.225 184.147 353.025 183.907 353.718 183.96C354.465 184.013 355.051 184.253 355.478 184.68C355.958 185.107 356.251 185.64 356.358 186.28C356.465 186.92 356.358 187.587 356.038 188.28C355.718 188.92 355.158 189.507 354.358 190.04C352.545 191.267 350.438 192.2 348.038 192.84C345.638 193.427 343.318 193.72 341.078 193.72ZM389.407 193.72C387.06 193.72 384.634 193.453 382.127 192.92C379.674 192.387 377.407 191.48 375.327 190.2C374.634 189.72 374.154 189.187 373.887 188.6C373.62 188.013 373.514 187.427 373.567 186.84C373.674 186.2 373.914 185.667 374.287 185.24C374.714 184.76 375.22 184.467 375.807 184.36C376.447 184.253 377.114 184.387 377.807 184.76C379.887 185.933 381.887 186.76 383.807 187.24C385.727 187.667 387.62 187.88 389.487 187.88C392.314 187.88 394.447 187.373 395.887 186.36C397.327 185.347 398.047 183.987 398.047 182.28C398.047 180.893 397.567 179.827 396.607 179.08C395.647 178.28 394.207 177.667 392.287 177.24L384.687 175.72C381.38 175.027 378.874 173.8 377.167 172.04C375.46 170.28 374.607 168.04 374.607 165.32C374.607 162.867 375.274 160.733 376.607 158.92C377.94 157.107 379.807 155.72 382.207 154.76C384.607 153.747 387.38 153.24 390.527 153.24C392.874 153.24 395.087 153.533 397.167 154.12C399.247 154.707 401.167 155.587 402.927 156.76C403.62 157.133 404.074 157.64 404.287 158.28C404.5 158.867 404.527 159.453 404.367 160.04C404.26 160.627 403.994 161.16 403.567 161.64C403.14 162.067 402.607 162.333 401.967 162.44C401.38 162.493 400.714 162.333 399.967 161.96C398.367 160.947 396.767 160.227 395.167 159.8C393.62 159.373 392.074 159.16 390.527 159.16C387.7 159.16 385.567 159.693 384.127 160.76C382.74 161.773 382.047 163.16 382.047 164.92C382.047 166.253 382.474 167.347 383.327 168.2C384.18 169.053 385.514 169.667 387.327 170.04L394.927 171.56C398.394 172.253 401.007 173.427 402.767 175.08C404.58 176.733 405.487 178.973 405.487 181.8C405.487 185.48 404.02 188.387 401.087 190.52C398.154 192.653 394.26 193.72 389.407 193.72ZM428.477 193.48C427.197 193.48 426.21 193.107 425.517 192.36C424.824 191.56 424.477 190.467 424.477 189.08V157.88C424.477 156.493 424.824 155.427 425.517 154.68C426.21 153.933 427.197 153.56 428.477 153.56C429.757 153.56 430.744 153.933 431.437 154.68C432.184 155.427 432.557 156.493 432.557 157.88V189.08C432.557 190.467 432.21 191.56 431.517 192.36C430.824 193.107 429.81 193.48 428.477 193.48ZM428.477 145.24C426.877 145.24 425.624 144.84 424.717 144.04C423.864 143.24 423.437 142.12 423.437 140.68C423.437 139.187 423.864 138.067 424.717 137.32C425.624 136.52 426.877 136.12 428.477 136.12C430.077 136.12 431.304 136.52 432.157 137.32C433.064 138.067 433.517 139.187 433.517 140.68C433.517 142.12 433.064 143.24 432.157 144.04C431.304 144.84 430.077 145.24 428.477 145.24ZM471.61 208.12C468.73 208.12 465.93 207.827 463.21 207.24C460.543 206.653 458.117 205.693 455.93 204.36C455.13 203.933 454.597 203.4 454.33 202.76C454.063 202.173 453.983 201.56 454.09 200.92C454.25 200.28 454.543 199.72 454.97 199.24C455.397 198.76 455.903 198.44 456.49 198.28C457.13 198.12 457.797 198.227 458.49 198.6C460.837 199.88 463.05 200.733 465.13 201.16C467.263 201.64 469.237 201.88 471.05 201.88C474.783 201.88 477.583 200.92 479.45 199C481.317 197.133 482.25 194.36 482.25 190.68V182.52H482.97C482.17 185.453 480.49 187.773 477.93 189.48C475.37 191.187 472.41 192.04 469.05 192.04C465.53 192.04 462.463 191.24 459.85 189.64C457.237 187.987 455.21 185.72 453.77 182.84C452.33 179.907 451.61 176.493 451.61 172.6C451.61 169.667 452.01 167.027 452.81 164.68C453.663 162.333 454.837 160.307 456.33 158.6C457.877 156.893 459.717 155.587 461.85 154.68C464.037 153.72 466.437 153.24 469.05 153.24C472.463 153.24 475.423 154.093 477.93 155.8C480.49 157.507 482.143 159.827 482.89 162.76L482.09 164.12V157.48C482.09 156.147 482.437 155.133 483.13 154.44C483.877 153.747 484.863 153.4 486.09 153.4C487.37 153.4 488.357 153.747 489.05 154.44C489.743 155.133 490.09 156.147 490.09 157.48V189.72C490.09 195.8 488.517 200.387 485.37 203.48C482.223 206.573 477.637 208.12 471.61 208.12ZM470.97 185.72C473.317 185.72 475.317 185.187 476.97 184.12C478.623 183.053 479.903 181.533 480.81 179.56C481.717 177.587 482.17 175.267 482.17 172.6C482.17 168.6 481.157 165.427 479.13 163.08C477.157 160.733 474.437 159.56 470.97 159.56C468.677 159.56 466.703 160.093 465.05 161.16C463.397 162.227 462.09 163.747 461.13 165.72C460.223 167.64 459.77 169.933 459.77 172.6C459.77 176.653 460.783 179.853 462.81 182.2C464.837 184.547 467.557 185.72 470.97 185.72ZM515.43 193.56C514.15 193.56 513.163 193.213 512.47 192.52C511.777 191.773 511.43 190.76 511.43 189.48V157.48C511.43 156.147 511.777 155.133 512.47 154.44C513.163 153.747 514.123 153.4 515.35 153.4C516.63 153.4 517.59 153.747 518.23 154.44C518.923 155.133 519.27 156.147 519.27 157.48V163.72L518.39 162.28C519.563 159.293 521.403 157.053 523.91 155.56C526.417 154.013 529.297 153.24 532.55 153.24C535.643 153.24 538.203 153.827 540.23 155C542.31 156.12 543.857 157.853 544.87 160.2C545.883 162.493 546.39 165.4 546.39 168.92V189.48C546.39 190.76 546.043 191.773 545.35 192.52C544.657 193.213 543.67 193.56 542.39 193.56C541.057 193.56 540.043 193.213 539.35 192.52C538.657 191.773 538.31 190.76 538.31 189.48V169.4C538.31 166.04 537.643 163.587 536.31 162.04C535.03 160.493 533.003 159.72 530.23 159.72C526.977 159.72 524.363 160.733 522.39 162.76C520.47 164.787 519.51 167.507 519.51 170.92V189.48C519.51 192.2 518.15 193.56 515.43 193.56Z" fill="black"/>
<path d="M225 121H574" stroke="#A1A1A0" stroke-width="0.5"/>
<path d="M225 29H574" stroke="#A1A1A0" stroke-width="0.5"/>
<path d="M225 213H574" stroke="#A1A1A0" stroke-width="0.5"/>
</svg>
