<svg viewBox="0 0 20 20" fill="none" xmlns="http://www.w3.org/2000/svg">
<path d="M10 16.9375C9.80556 16.9375 9.60764 16.9028 9.40625 16.8333C9.20487 16.7639 9.02778 16.6528 8.875 16.5L7.4375 15.1875C5.96528 13.8403 4.63542 12.5035 3.44792 11.1771C2.26042 9.85068 1.66667 8.38887 1.66667 6.79165C1.66667 5.48609 2.10417 4.39581 2.97917 3.52081C3.85417 2.64581 4.94445 2.20831 6.25 2.20831C6.98612 2.20831 7.68056 2.36456 8.33334 2.67706C8.98612 2.98956 9.54167 3.41665 10 3.95831C10.4583 3.41665 11.0139 2.98956 11.6667 2.67706C12.3194 2.36456 13.0139 2.20831 13.75 2.20831C15.0556 2.20831 16.1458 2.64581 17.0208 3.52081C17.8958 4.39581 18.3333 5.48609 18.3333 6.79165C18.3333 8.38887 17.7431 9.85415 16.5625 11.1875C15.3819 12.5208 14.0417 13.8611 12.5417 15.2083L11.125 16.5C10.9722 16.6528 10.7951 16.7639 10.5938 16.8333C10.3924 16.9028 10.1944 16.9375 10 16.9375Z" fill="currentColor"/>
</svg>