<svg width="1159" height="257" viewBox="0 0 1159 257" fill="none" xmlns="http://www.w3.org/2000/svg">
<g clip-path="url(#clip0_234_27238)">
<rect width="579.5" height="61" fill="white"/>
<path d="M18.68 37.14C18.3467 37.14 18.0867 37.0467 17.9 36.86C17.7267 36.6733 17.64 36.4133 17.64 36.08V23.82C17.64 23.4733 17.7267 23.2133 17.9 23.04C18.0867 22.8533 18.3467 22.76 18.68 22.76C19.0133 22.76 19.2667 22.8533 19.44 23.04C19.6267 23.2133 19.72 23.4733 19.72 23.82V36.08C19.72 36.4133 19.6333 36.6733 19.46 36.86C19.2867 37.0467 19.0267 37.14 18.68 37.14ZM23.2716 37.14C22.9516 37.14 22.7049 37.0533 22.5316 36.88C22.3582 36.6933 22.2716 36.44 22.2716 36.12V28.12C22.2716 27.7867 22.3582 27.5333 22.5316 27.36C22.7049 27.1867 22.9449 27.1 23.2516 27.1C23.5716 27.1 23.8116 27.1867 23.9716 27.36C24.1449 27.5333 24.2316 27.7867 24.2316 28.12V29.68L24.0116 29.32C24.3049 28.5733 24.7649 28.0133 25.3916 27.64C26.0182 27.2533 26.7382 27.06 27.5516 27.06C28.3249 27.06 28.9649 27.2067 29.4716 27.5C29.9916 27.78 30.3782 28.2133 30.6316 28.8C30.8849 29.3733 31.0116 30.1 31.0116 30.98V36.12C31.0116 36.44 30.9249 36.6933 30.7516 36.88C30.5782 37.0533 30.3316 37.14 30.0116 37.14C29.6782 37.14 29.4249 37.0533 29.2516 36.88C29.0782 36.6933 28.9916 36.44 28.9916 36.12V31.1C28.9916 30.26 28.8249 29.6467 28.4916 29.26C28.1716 28.8733 27.6649 28.68 26.9716 28.68C26.1582 28.68 25.5049 28.9333 25.0116 29.44C24.5316 29.9467 24.2916 30.6267 24.2916 31.48V36.12C24.2916 36.8 23.9516 37.14 23.2716 37.14ZM37.455 37.18C36.655 37.18 35.9817 37.04 35.435 36.76C34.8883 36.48 34.4817 36.0667 34.215 35.52C33.9483 34.9733 33.815 34.3067 33.815 33.52V28.8H32.615C32.3483 28.8 32.1417 28.7333 31.995 28.6C31.8483 28.4533 31.775 28.26 31.775 28.02C31.775 27.7667 31.8483 27.5733 31.995 27.44C32.1417 27.3067 32.3483 27.24 32.615 27.24H33.815V25.18C33.815 24.8467 33.9017 24.5933 34.075 24.42C34.2617 24.2467 34.515 24.16 34.835 24.16C35.155 24.16 35.4017 24.2467 35.575 24.42C35.7483 24.5933 35.835 24.8467 35.835 25.18V27.24H38.175C38.4417 27.24 38.6483 27.3067 38.795 27.44C38.9417 27.5733 39.015 27.7667 39.015 28.02C39.015 28.26 38.9417 28.4533 38.795 28.6C38.6483 28.7333 38.4417 28.8 38.175 28.8H35.835V33.36C35.835 34.0667 35.9817 34.6 36.275 34.96C36.5817 35.32 37.075 35.5 37.755 35.5C37.995 35.5 38.2017 35.48 38.375 35.44C38.5617 35.3867 38.715 35.3533 38.835 35.34C38.9817 35.34 39.1017 35.3933 39.195 35.5C39.2883 35.5933 39.335 35.78 39.335 36.06C39.335 36.26 39.295 36.4467 39.215 36.62C39.1483 36.7933 39.0217 36.9067 38.835 36.96C38.675 37.0133 38.455 37.06 38.175 37.1C37.9083 37.1533 37.6683 37.18 37.455 37.18ZM44.582 37.18C43.5154 37.18 42.5954 36.98 41.822 36.58C41.062 36.1667 40.4687 35.5867 40.042 34.84C39.6287 34.08 39.422 33.18 39.422 32.14C39.422 31.1267 39.6287 30.24 40.042 29.48C40.4554 28.72 41.022 28.1267 41.742 27.7C42.462 27.2733 43.282 27.06 44.202 27.06C44.882 27.06 45.4887 27.1733 46.022 27.4C46.5554 27.6133 47.0087 27.9333 47.382 28.36C47.7687 28.7733 48.0554 29.28 48.242 29.88C48.442 30.48 48.542 31.1533 48.542 31.9C48.542 32.1267 48.4754 32.3 48.342 32.42C48.2087 32.5267 48.0087 32.58 47.742 32.58H41.022V31.34H47.182L46.842 31.62C46.842 30.9533 46.742 30.3867 46.542 29.92C46.3554 29.4533 46.0687 29.1 45.682 28.86C45.3087 28.6067 44.842 28.48 44.282 28.48C43.6554 28.48 43.122 28.6267 42.682 28.92C42.2554 29.2133 41.9287 29.62 41.702 30.14C41.4754 30.66 41.362 31.2667 41.362 31.96V32.08C41.362 33.2533 41.6354 34.14 42.182 34.74C42.742 35.3267 43.5487 35.62 44.602 35.62C45.002 35.62 45.422 35.5667 45.862 35.46C46.3154 35.3533 46.742 35.1733 47.142 34.92C47.3687 34.7867 47.5687 34.7267 47.742 34.74C47.9287 34.7533 48.0754 34.8133 48.182 34.92C48.302 35.0267 48.3754 35.16 48.402 35.32C48.4287 35.48 48.402 35.6467 48.322 35.82C48.242 35.98 48.102 36.1267 47.902 36.26C47.4487 36.5667 46.922 36.8 46.322 36.96C45.722 37.1067 45.142 37.18 44.582 37.18ZM51.2642 37.14C50.9309 37.14 50.6776 37.0533 50.5042 36.88C50.3309 36.6933 50.2442 36.44 50.2442 36.12V28.12C50.2442 27.7867 50.3309 27.5333 50.5042 27.36C50.6776 27.1867 50.9176 27.1 51.2242 27.1C51.5442 27.1 51.7842 27.1867 51.9442 27.36C52.1176 27.5333 52.2042 27.7867 52.2042 28.12V29.58H52.0042C52.2176 28.78 52.6109 28.1733 53.1842 27.76C53.7576 27.3467 54.4909 27.1067 55.3842 27.04C55.6242 27.0267 55.8109 27.0867 55.9442 27.22C56.0909 27.3533 56.1709 27.56 56.1842 27.84C56.2109 28.12 56.1509 28.3467 56.0042 28.52C55.8576 28.68 55.6309 28.7733 55.3242 28.8L54.9442 28.84C54.0776 28.92 53.4176 29.1933 52.9642 29.66C52.5109 30.1267 52.2842 30.7667 52.2842 31.58V36.12C52.2842 36.44 52.1976 36.6933 52.0242 36.88C51.8642 37.0533 51.6109 37.14 51.2642 37.14ZM60.2275 37.18C59.5475 37.18 58.9342 37.0467 58.3875 36.78C57.8542 36.5133 57.4342 36.1533 57.1275 35.7C56.8208 35.2467 56.6675 34.7333 56.6675 34.16C56.6675 33.44 56.8475 32.8733 57.2075 32.46C57.5808 32.0333 58.1875 31.7333 59.0275 31.56C59.8808 31.3733 61.0275 31.28 62.4675 31.28H63.4075V32.52H62.4875C61.5275 32.52 60.7675 32.5667 60.2075 32.66C59.6475 32.7533 59.2475 32.9133 59.0075 33.14C58.7808 33.3533 58.6675 33.6533 58.6675 34.04C58.6675 34.5467 58.8408 34.96 59.1875 35.28C59.5342 35.5867 60.0142 35.74 60.6275 35.74C61.1208 35.74 61.5542 35.6267 61.9275 35.4C62.3008 35.16 62.5942 34.84 62.8075 34.44C63.0342 34.04 63.1475 33.58 63.1475 33.06V30.76C63.1475 30 62.9875 29.4533 62.6675 29.12C62.3475 28.7867 61.8208 28.62 61.0875 28.62C60.6608 28.62 60.2142 28.6733 59.7475 28.78C59.2942 28.8867 58.8208 29.0667 58.3275 29.32C58.1008 29.4267 57.9075 29.46 57.7475 29.42C57.5875 29.38 57.4608 29.2933 57.3675 29.16C57.2742 29.0133 57.2208 28.86 57.2075 28.7C57.2075 28.5267 57.2475 28.36 57.3275 28.2C57.4208 28.04 57.5742 27.92 57.7875 27.84C58.3742 27.56 58.9542 27.36 59.5275 27.24C60.1008 27.12 60.6408 27.06 61.1475 27.06C62.0408 27.06 62.7742 27.2 63.3475 27.48C63.9342 27.76 64.3675 28.1867 64.6475 28.76C64.9275 29.3333 65.0675 30.0733 65.0675 30.98V36.12C65.0675 36.44 64.9875 36.6933 64.8275 36.88C64.6675 37.0533 64.4342 37.14 64.1275 37.14C63.8342 37.14 63.6008 37.0533 63.4275 36.88C63.2542 36.6933 63.1675 36.44 63.1675 36.12V34.82H63.3475C63.2408 35.3133 63.0408 35.74 62.7475 36.1C62.4675 36.4467 62.1142 36.7133 61.6875 36.9C61.2608 37.0867 60.7742 37.18 60.2275 37.18ZM71.6497 37.18C70.6497 37.18 69.783 36.9733 69.0497 36.56C68.3297 36.1333 67.7697 35.54 67.3697 34.78C66.9697 34.0067 66.7697 33.1 66.7697 32.06C66.7697 31.2867 66.883 30.5933 67.1097 29.98C67.3364 29.3533 67.6564 28.8267 68.0697 28.4C68.4964 27.9733 69.0097 27.6467 69.6097 27.42C70.223 27.18 70.903 27.06 71.6497 27.06C72.1164 27.06 72.603 27.1333 73.1097 27.28C73.6297 27.4133 74.1097 27.64 74.5497 27.96C74.723 28.0667 74.8297 28.2 74.8697 28.36C74.923 28.5067 74.9297 28.66 74.8897 28.82C74.863 28.98 74.7897 29.12 74.6697 29.24C74.563 29.3467 74.4297 29.4133 74.2697 29.44C74.1097 29.4533 73.9364 29.4067 73.7497 29.3C73.4297 29.0733 73.103 28.9133 72.7697 28.82C72.4364 28.7133 72.1164 28.66 71.8097 28.66C71.3297 28.66 70.903 28.74 70.5297 28.9C70.1697 29.0467 69.863 29.2667 69.6097 29.56C69.3564 29.84 69.163 30.1933 69.0297 30.62C68.9097 31.0467 68.8497 31.5333 68.8497 32.08C68.8497 33.1733 69.103 34.0333 69.6097 34.66C70.1297 35.2733 70.863 35.58 71.8097 35.58C72.1164 35.58 72.4364 35.5333 72.7697 35.44C73.103 35.3467 73.4297 35.1867 73.7497 34.96C73.9364 34.8533 74.1097 34.8133 74.2697 34.84C74.4297 34.8667 74.5564 34.94 74.6497 35.06C74.7564 35.1667 74.823 35.3 74.8497 35.46C74.8897 35.6067 74.883 35.76 74.8297 35.92C74.7764 36.08 74.663 36.2133 74.4897 36.32C74.063 36.6267 73.5964 36.8467 73.0897 36.98C72.5964 37.1133 72.1164 37.18 71.6497 37.18ZM80.3652 37.18C79.5652 37.18 78.8918 37.04 78.3452 36.76C77.7985 36.48 77.3918 36.0667 77.1252 35.52C76.8585 34.9733 76.7252 34.3067 76.7252 33.52V28.8H75.5252C75.2585 28.8 75.0518 28.7333 74.9052 28.6C74.7585 28.4533 74.6852 28.26 74.6852 28.02C74.6852 27.7667 74.7585 27.5733 74.9052 27.44C75.0518 27.3067 75.2585 27.24 75.5252 27.24H76.7252V25.18C76.7252 24.8467 76.8118 24.5933 76.9852 24.42C77.1718 24.2467 77.4252 24.16 77.7452 24.16C78.0652 24.16 78.3118 24.2467 78.4852 24.42C78.6585 24.5933 78.7452 24.8467 78.7452 25.18V27.24H81.0852C81.3518 27.24 81.5585 27.3067 81.7052 27.44C81.8518 27.5733 81.9252 27.7667 81.9252 28.02C81.9252 28.26 81.8518 28.4533 81.7052 28.6C81.5585 28.7333 81.3518 28.8 81.0852 28.8H78.7452V33.36C78.7452 34.0667 78.8918 34.6 79.1852 34.96C79.4918 35.32 79.9852 35.5 80.6652 35.5C80.9052 35.5 81.1118 35.48 81.2852 35.44C81.4718 35.3867 81.6252 35.3533 81.7452 35.34C81.8918 35.34 82.0118 35.3933 82.1052 35.5C82.1985 35.5933 82.2452 35.78 82.2452 36.06C82.2452 36.26 82.2052 36.4467 82.1252 36.62C82.0585 36.7933 81.9318 36.9067 81.7452 36.96C81.5852 37.0133 81.3652 37.06 81.0852 37.1C80.8185 37.1533 80.5785 37.18 80.3652 37.18ZM84.1856 37.12C83.8656 37.12 83.619 37.0267 83.4456 36.84C83.2723 36.64 83.1856 36.3667 83.1856 36.02V28.22C83.1856 27.8733 83.2723 27.6067 83.4456 27.42C83.619 27.2333 83.8656 27.14 84.1856 27.14C84.5056 27.14 84.7523 27.2333 84.9256 27.42C85.1123 27.6067 85.2056 27.8733 85.2056 28.22V36.02C85.2056 36.3667 85.119 36.64 84.9456 36.84C84.7723 37.0267 84.519 37.12 84.1856 37.12ZM84.1856 25.06C83.7856 25.06 83.4723 24.96 83.2456 24.76C83.0323 24.56 82.9256 24.28 82.9256 23.92C82.9256 23.5467 83.0323 23.2667 83.2456 23.08C83.4723 22.88 83.7856 22.78 84.1856 22.78C84.5856 22.78 84.8923 22.88 85.1056 23.08C85.3323 23.2667 85.4456 23.5467 85.4456 23.92C85.4456 24.28 85.3323 24.56 85.1056 24.76C84.8923 24.96 84.5856 25.06 84.1856 25.06ZM91.7889 37.18C90.8022 37.18 89.9489 36.9733 89.2289 36.56C88.5222 36.1467 87.9689 35.56 87.5689 34.8C87.1689 34.04 86.9689 33.1467 86.9689 32.12C86.9689 31.3333 87.0822 30.6333 87.3089 30.02C87.5356 29.4067 87.8556 28.88 88.2689 28.44C88.6956 27.9867 89.2022 27.6467 89.7889 27.42C90.3889 27.18 91.0556 27.06 91.7889 27.06C92.7622 27.06 93.6022 27.2667 94.3089 27.68C95.0289 28.0933 95.5889 28.68 95.9889 29.44C96.3889 30.1867 96.5889 31.08 96.5889 32.12C96.5889 32.8933 96.4756 33.5933 96.2489 34.22C96.0222 34.8467 95.6956 35.38 95.2689 35.82C94.8556 36.26 94.3489 36.6 93.7489 36.84C93.1622 37.0667 92.5089 37.18 91.7889 37.18ZM91.7889 35.62C92.3356 35.62 92.8156 35.4867 93.2289 35.22C93.6422 34.9533 93.9622 34.56 94.1889 34.04C94.4289 33.52 94.5489 32.88 94.5489 32.12C94.5489 30.9733 94.2956 30.1067 93.7889 29.52C93.2822 28.9333 92.6156 28.64 91.7889 28.64C91.2289 28.64 90.7422 28.7733 90.3289 29.04C89.9156 29.2933 89.5889 29.68 89.3489 30.2C89.1222 30.72 89.0089 31.36 89.0089 32.12C89.0089 33.2533 89.2622 34.12 89.7689 34.72C90.2756 35.32 90.9489 35.62 91.7889 35.62ZM99.3575 37.14C99.0375 37.14 98.7908 37.0533 98.6175 36.88C98.4442 36.6933 98.3575 36.44 98.3575 36.12V28.12C98.3575 27.7867 98.4442 27.5333 98.6175 27.36C98.7908 27.1867 99.0308 27.1 99.3375 27.1C99.6575 27.1 99.8975 27.1867 100.058 27.36C100.231 27.5333 100.318 27.7867 100.318 28.12V29.68L100.098 29.32C100.391 28.5733 100.851 28.0133 101.478 27.64C102.104 27.2533 102.824 27.06 103.638 27.06C104.411 27.06 105.051 27.2067 105.558 27.5C106.078 27.78 106.464 28.2133 106.718 28.8C106.971 29.3733 107.098 30.1 107.098 30.98V36.12C107.098 36.44 107.011 36.6933 106.838 36.88C106.664 37.0533 106.418 37.14 106.098 37.14C105.764 37.14 105.511 37.0533 105.338 36.88C105.164 36.6933 105.078 36.44 105.078 36.12V31.1C105.078 30.26 104.911 29.6467 104.578 29.26C104.258 28.8733 103.751 28.68 103.058 28.68C102.244 28.68 101.591 28.9333 101.098 29.44C100.618 29.9467 100.378 30.6267 100.378 31.48V36.12C100.378 36.8 100.038 37.14 99.3575 37.14ZM119.074 37.18C118.461 37.18 117.861 37.1333 117.274 37.04C116.688 36.9467 116.134 36.8067 115.614 36.62C115.094 36.42 114.628 36.18 114.214 35.9C114.014 35.7533 113.874 35.5867 113.794 35.4C113.728 35.2133 113.708 35.0333 113.734 34.86C113.774 34.6733 113.854 34.5133 113.974 34.38C114.094 34.2467 114.241 34.1667 114.414 34.14C114.588 34.1 114.781 34.1533 114.994 34.3C115.594 34.6867 116.228 34.9733 116.894 35.16C117.561 35.3333 118.288 35.42 119.074 35.42C120.208 35.42 121.041 35.22 121.574 34.82C122.121 34.4067 122.394 33.8733 122.394 33.22C122.394 32.6867 122.201 32.2667 121.814 31.96C121.428 31.64 120.781 31.3867 119.874 31.2L117.734 30.76C116.468 30.4933 115.521 30.0533 114.894 29.44C114.281 28.8267 113.974 28 113.974 26.96C113.974 26.3333 114.101 25.76 114.354 25.24C114.621 24.72 114.988 24.2733 115.454 23.9C115.921 23.5133 116.481 23.22 117.134 23.02C117.788 22.82 118.501 22.72 119.274 22.72C120.101 22.72 120.874 22.8267 121.594 23.04C122.328 23.2533 122.981 23.58 123.554 24.02C123.728 24.14 123.841 24.2933 123.894 24.48C123.961 24.6533 123.974 24.8267 123.934 25C123.908 25.1733 123.834 25.32 123.714 25.44C123.594 25.56 123.441 25.6333 123.254 25.66C123.068 25.6733 122.861 25.6067 122.634 25.46C122.114 25.1133 121.581 24.8667 121.034 24.72C120.501 24.56 119.908 24.48 119.254 24.48C118.601 24.48 118.028 24.58 117.534 24.78C117.054 24.98 116.681 25.26 116.414 25.62C116.161 25.98 116.034 26.4067 116.034 26.9C116.034 27.46 116.214 27.9067 116.574 28.24C116.934 28.5733 117.534 28.8267 118.374 29L120.494 29.44C121.828 29.72 122.821 30.1533 123.474 30.74C124.128 31.3267 124.454 32.1067 124.454 33.08C124.454 33.7067 124.328 34.2733 124.074 34.78C123.821 35.2733 123.461 35.7 122.994 36.06C122.528 36.42 121.961 36.7 121.294 36.9C120.641 37.0867 119.901 37.18 119.074 37.18ZM130.197 37.18C129.397 37.18 128.724 37.04 128.177 36.76C127.631 36.48 127.224 36.0667 126.957 35.52C126.691 34.9733 126.557 34.3067 126.557 33.52V28.8H125.357C125.091 28.8 124.884 28.7333 124.737 28.6C124.591 28.4533 124.517 28.26 124.517 28.02C124.517 27.7667 124.591 27.5733 124.737 27.44C124.884 27.3067 125.091 27.24 125.357 27.24H126.557V25.18C126.557 24.8467 126.644 24.5933 126.817 24.42C127.004 24.2467 127.257 24.16 127.577 24.16C127.897 24.16 128.144 24.2467 128.317 24.42C128.491 24.5933 128.577 24.8467 128.577 25.18V27.24H130.917C131.184 27.24 131.391 27.3067 131.537 27.44C131.684 27.5733 131.757 27.7667 131.757 28.02C131.757 28.26 131.684 28.4533 131.537 28.6C131.391 28.7333 131.184 28.8 130.917 28.8H128.577V33.36C128.577 34.0667 128.724 34.6 129.017 34.96C129.324 35.32 129.817 35.5 130.497 35.5C130.737 35.5 130.944 35.48 131.117 35.44C131.304 35.3867 131.457 35.3533 131.577 35.34C131.724 35.34 131.844 35.3933 131.937 35.5C132.031 35.5933 132.077 35.78 132.077 36.06C132.077 36.26 132.037 36.4467 131.957 36.62C131.891 36.7933 131.764 36.9067 131.577 36.96C131.417 37.0133 131.197 37.06 130.917 37.1C130.651 37.1533 130.411 37.18 130.197 37.18ZM135.962 37.18C135.282 37.18 134.669 37.0467 134.122 36.78C133.589 36.5133 133.169 36.1533 132.862 35.7C132.555 35.2467 132.402 34.7333 132.402 34.16C132.402 33.44 132.582 32.8733 132.942 32.46C133.315 32.0333 133.922 31.7333 134.762 31.56C135.615 31.3733 136.762 31.28 138.202 31.28H139.142V32.52H138.222C137.262 32.52 136.502 32.5667 135.942 32.66C135.382 32.7533 134.982 32.9133 134.742 33.14C134.515 33.3533 134.402 33.6533 134.402 34.04C134.402 34.5467 134.575 34.96 134.922 35.28C135.269 35.5867 135.749 35.74 136.362 35.74C136.855 35.74 137.289 35.6267 137.662 35.4C138.035 35.16 138.329 34.84 138.542 34.44C138.769 34.04 138.882 33.58 138.882 33.06V30.76C138.882 30 138.722 29.4533 138.402 29.12C138.082 28.7867 137.555 28.62 136.822 28.62C136.395 28.62 135.949 28.6733 135.482 28.78C135.029 28.8867 134.555 29.0667 134.062 29.32C133.835 29.4267 133.642 29.46 133.482 29.42C133.322 29.38 133.195 29.2933 133.102 29.16C133.009 29.0133 132.955 28.86 132.942 28.7C132.942 28.5267 132.982 28.36 133.062 28.2C133.155 28.04 133.309 27.92 133.522 27.84C134.109 27.56 134.689 27.36 135.262 27.24C135.835 27.12 136.375 27.06 136.882 27.06C137.775 27.06 138.509 27.2 139.082 27.48C139.669 27.76 140.102 28.1867 140.382 28.76C140.662 29.3333 140.802 30.0733 140.802 30.98V36.12C140.802 36.44 140.722 36.6933 140.562 36.88C140.402 37.0533 140.169 37.14 139.862 37.14C139.569 37.14 139.335 37.0533 139.162 36.88C138.989 36.6933 138.902 36.44 138.902 36.12V34.82H139.082C138.975 35.3133 138.775 35.74 138.482 36.1C138.202 36.4467 137.849 36.7133 137.422 36.9C136.995 37.0867 136.509 37.18 135.962 37.18ZM147.244 37.18C146.444 37.18 145.771 37.04 145.224 36.76C144.677 36.48 144.271 36.0667 144.004 35.52C143.737 34.9733 143.604 34.3067 143.604 33.52V28.8H142.404C142.137 28.8 141.931 28.7333 141.784 28.6C141.637 28.4533 141.564 28.26 141.564 28.02C141.564 27.7667 141.637 27.5733 141.784 27.44C141.931 27.3067 142.137 27.24 142.404 27.24H143.604V25.18C143.604 24.8467 143.691 24.5933 143.864 24.42C144.051 24.2467 144.304 24.16 144.624 24.16C144.944 24.16 145.191 24.2467 145.364 24.42C145.537 24.5933 145.624 24.8467 145.624 25.18V27.24H147.964C148.231 27.24 148.437 27.3067 148.584 27.44C148.731 27.5733 148.804 27.7667 148.804 28.02C148.804 28.26 148.731 28.4533 148.584 28.6C148.437 28.7333 148.231 28.8 147.964 28.8H145.624V33.36C145.624 34.0667 145.771 34.6 146.064 34.96C146.371 35.32 146.864 35.5 147.544 35.5C147.784 35.5 147.991 35.48 148.164 35.44C148.351 35.3867 148.504 35.3533 148.624 35.34C148.771 35.34 148.891 35.3933 148.984 35.5C149.077 35.5933 149.124 35.78 149.124 36.06C149.124 36.26 149.084 36.4467 149.004 36.62C148.937 36.7933 148.811 36.9067 148.624 36.96C148.464 37.0133 148.244 37.06 147.964 37.1C147.697 37.1533 147.457 37.18 147.244 37.18ZM154.371 37.18C153.304 37.18 152.384 36.98 151.611 36.58C150.851 36.1667 150.258 35.5867 149.831 34.84C149.418 34.08 149.211 33.18 149.211 32.14C149.211 31.1267 149.418 30.24 149.831 29.48C150.244 28.72 150.811 28.1267 151.531 27.7C152.251 27.2733 153.071 27.06 153.991 27.06C154.671 27.06 155.278 27.1733 155.811 27.4C156.344 27.6133 156.798 27.9333 157.171 28.36C157.558 28.7733 157.844 29.28 158.031 29.88C158.231 30.48 158.331 31.1533 158.331 31.9C158.331 32.1267 158.264 32.3 158.131 32.42C157.998 32.5267 157.798 32.58 157.531 32.58H150.811V31.34H156.971L156.631 31.62C156.631 30.9533 156.531 30.3867 156.331 29.92C156.144 29.4533 155.858 29.1 155.471 28.86C155.098 28.6067 154.631 28.48 154.071 28.48C153.444 28.48 152.911 28.6267 152.471 28.92C152.044 29.2133 151.718 29.62 151.491 30.14C151.264 30.66 151.151 31.2667 151.151 31.96V32.08C151.151 33.2533 151.424 34.14 151.971 34.74C152.531 35.3267 153.338 35.62 154.391 35.62C154.791 35.62 155.211 35.5667 155.651 35.46C156.104 35.3533 156.531 35.1733 156.931 34.92C157.158 34.7867 157.358 34.7267 157.531 34.74C157.718 34.7533 157.864 34.8133 157.971 34.92C158.091 35.0267 158.164 35.16 158.191 35.32C158.218 35.48 158.191 35.6467 158.111 35.82C158.031 35.98 157.891 36.1267 157.691 36.26C157.238 36.5667 156.711 36.8 156.111 36.96C155.511 37.1067 154.931 37.18 154.371 37.18Z" fill="#201F1F"/>
<path d="M0 60.5H579.5" stroke="#CDCCCB"/>
<rect width="579.5" height="49" transform="translate(0 61)" fill="white"/>
<path d="M16.5781 87.2734L18.8281 87.0547C18.9635 87.8099 19.237 88.3646 19.6484 88.7188C20.0651 89.0729 20.625 89.25 21.3281 89.25C22.0729 89.25 22.6328 89.0938 23.0078 88.7812C23.388 88.4635 23.5781 88.0938 23.5781 87.6719C23.5781 87.401 23.4974 87.1719 23.3359 86.9844C23.1797 86.7917 22.9036 86.625 22.5078 86.4844C22.237 86.3906 21.6198 86.224 20.6562 85.9844C19.4167 85.6771 18.5469 85.2995 18.0469 84.8516C17.3438 84.2214 16.9922 83.4531 16.9922 82.5469C16.9922 81.9635 17.1562 81.4193 17.4844 80.9141C17.8177 80.4036 18.2943 80.0156 18.9141 79.75C19.5391 79.4844 20.2917 79.3516 21.1719 79.3516C22.6094 79.3516 23.6901 79.6667 24.4141 80.2969C25.1432 80.9271 25.526 81.7682 25.5625 82.8203L23.25 82.9219C23.151 82.3333 22.9375 81.9115 22.6094 81.6562C22.2865 81.3958 21.7995 81.2656 21.1484 81.2656C20.4766 81.2656 19.9505 81.4036 19.5703 81.6797C19.3255 81.8568 19.2031 82.0938 19.2031 82.3906C19.2031 82.6615 19.3177 82.8932 19.5469 83.0859C19.8385 83.3307 20.5469 83.5859 21.6719 83.8516C22.7969 84.1172 23.6276 84.3932 24.1641 84.6797C24.7057 84.9609 25.1276 85.349 25.4297 85.8438C25.737 86.3333 25.8906 86.9401 25.8906 87.6641C25.8906 88.3203 25.7083 88.9349 25.3438 89.5078C24.9792 90.0807 24.4635 90.5078 23.7969 90.7891C23.1302 91.0651 22.2995 91.2031 21.3047 91.2031C19.8568 91.2031 18.7448 90.8698 17.9688 90.2031C17.1927 89.5312 16.7292 88.5547 16.5781 87.2734ZM33.2812 91V89.7578C32.9792 90.2005 32.5807 90.5495 32.0859 90.8047C31.5964 91.0599 31.0781 91.1875 30.5312 91.1875C29.974 91.1875 29.474 91.0651 29.0312 90.8203C28.5885 90.5755 28.2682 90.2318 28.0703 89.7891C27.8724 89.3464 27.7734 88.7344 27.7734 87.9531V82.7031H29.9688V86.5156C29.9688 87.6823 30.0078 88.3984 30.0859 88.6641C30.1693 88.9245 30.3177 89.1328 30.5312 89.2891C30.7448 89.4401 31.0156 89.5156 31.3438 89.5156C31.7188 89.5156 32.0547 89.4141 32.3516 89.2109C32.6484 89.0026 32.8516 88.7474 32.9609 88.4453C33.0703 88.138 33.125 87.3906 33.125 86.2031V82.7031H35.3203V91H33.2812ZM44.8359 85.1562L42.6719 85.5469C42.599 85.1146 42.4323 84.7891 42.1719 84.5703C41.9167 84.3516 41.5833 84.2422 41.1719 84.2422C40.625 84.2422 40.1875 84.4323 39.8594 84.8125C39.5365 85.1875 39.375 85.8177 39.375 86.7031C39.375 87.6875 39.5391 88.3828 39.8672 88.7891C40.2005 89.1953 40.6458 89.3984 41.2031 89.3984C41.6198 89.3984 41.9609 89.2812 42.2266 89.0469C42.4922 88.8073 42.6797 88.3984 42.7891 87.8203L44.9453 88.1875C44.7214 89.1771 44.2917 89.9245 43.6562 90.4297C43.0208 90.9349 42.1693 91.1875 41.1016 91.1875C39.888 91.1875 38.9193 90.8047 38.1953 90.0391C37.4766 89.2734 37.1172 88.2135 37.1172 86.8594C37.1172 85.4896 37.4792 84.4245 38.2031 83.6641C38.9271 82.8984 39.9062 82.5156 41.1406 82.5156C42.151 82.5156 42.9531 82.7344 43.5469 83.1719C44.1458 83.6042 44.5755 84.2656 44.8359 85.1562ZM53.7422 85.1562L51.5781 85.5469C51.5052 85.1146 51.3385 84.7891 51.0781 84.5703C50.8229 84.3516 50.4896 84.2422 50.0781 84.2422C49.5312 84.2422 49.0938 84.4323 48.7656 84.8125C48.4427 85.1875 48.2812 85.8177 48.2812 86.7031C48.2812 87.6875 48.4453 88.3828 48.7734 88.7891C49.1068 89.1953 49.5521 89.3984 50.1094 89.3984C50.526 89.3984 50.8672 89.2812 51.1328 89.0469C51.3984 88.8073 51.5859 88.3984 51.6953 87.8203L53.8516 88.1875C53.6276 89.1771 53.1979 89.9245 52.5625 90.4297C51.9271 90.9349 51.0755 91.1875 50.0078 91.1875C48.7943 91.1875 47.8255 90.8047 47.1016 90.0391C46.3828 89.2734 46.0234 88.2135 46.0234 86.8594C46.0234 85.4896 46.3854 84.4245 47.1094 83.6641C47.8333 82.8984 48.8125 82.5156 50.0469 82.5156C51.0573 82.5156 51.8594 82.7344 52.4531 83.1719C53.0521 83.6042 53.4818 84.2656 53.7422 85.1562ZM60.2188 88.3594L62.4062 88.7266C62.125 89.5286 61.6797 90.1406 61.0703 90.5625C60.4661 90.9792 59.7083 91.1875 58.7969 91.1875C57.3542 91.1875 56.2865 90.7161 55.5938 89.7734C55.0469 89.0182 54.7734 88.0651 54.7734 86.9141C54.7734 85.5391 55.1328 84.4635 55.8516 83.6875C56.5703 82.9062 57.4792 82.5156 58.5781 82.5156C59.8125 82.5156 60.7865 82.9245 61.5 83.7422C62.2135 84.5547 62.5547 85.8021 62.5234 87.4844H57.0234C57.0391 88.1354 57.2161 88.6432 57.5547 89.0078C57.8932 89.3672 58.3151 89.5469 58.8203 89.5469C59.1641 89.5469 59.4531 89.4531 59.6875 89.2656C59.9219 89.0781 60.099 88.776 60.2188 88.3594ZM60.3438 86.1406C60.3281 85.5052 60.1641 85.0234 59.8516 84.6953C59.5391 84.362 59.1589 84.1953 58.7109 84.1953C58.2318 84.1953 57.8359 84.3698 57.5234 84.7188C57.2109 85.0677 57.0573 85.5417 57.0625 86.1406H60.3438ZM63.5469 88.6328L65.75 88.2969C65.8438 88.724 66.0339 89.0495 66.3203 89.2734C66.6068 89.4922 67.0078 89.6016 67.5234 89.6016C68.0911 89.6016 68.5182 89.4974 68.8047 89.2891C68.9974 89.1432 69.0938 88.9479 69.0938 88.7031C69.0938 88.5365 69.0417 88.3984 68.9375 88.2891C68.8281 88.1849 68.5833 88.0885 68.2031 88C66.4323 87.6094 65.3099 87.2526 64.8359 86.9297C64.1797 86.4818 63.8516 85.8594 63.8516 85.0625C63.8516 84.3438 64.1354 83.7396 64.7031 83.25C65.2708 82.7604 66.151 82.5156 67.3438 82.5156C68.4792 82.5156 69.3229 82.7005 69.875 83.0703C70.4271 83.4401 70.8073 83.987 71.0156 84.7109L68.9453 85.0938C68.8568 84.7708 68.6875 84.5234 68.4375 84.3516C68.1927 84.1797 67.8411 84.0938 67.3828 84.0938C66.8047 84.0938 66.3906 84.1745 66.1406 84.3359C65.974 84.4505 65.8906 84.599 65.8906 84.7812C65.8906 84.9375 65.9635 85.0703 66.1094 85.1797C66.3073 85.3255 66.9896 85.5312 68.1562 85.7969C69.3281 86.0625 70.1458 86.388 70.6094 86.7734C71.0677 87.1641 71.2969 87.7083 71.2969 88.4062C71.2969 89.1667 70.9792 89.8203 70.3438 90.3672C69.7083 90.9141 68.7682 91.1875 67.5234 91.1875C66.3932 91.1875 65.4974 90.9583 64.8359 90.5C64.1797 90.0417 63.75 89.4193 63.5469 88.6328ZM72.4531 88.6328L74.6562 88.2969C74.75 88.724 74.9401 89.0495 75.2266 89.2734C75.513 89.4922 75.9141 89.6016 76.4297 89.6016C76.9974 89.6016 77.4245 89.4974 77.7109 89.2891C77.9036 89.1432 78 88.9479 78 88.7031C78 88.5365 77.9479 88.3984 77.8438 88.2891C77.7344 88.1849 77.4896 88.0885 77.1094 88C75.3385 87.6094 74.2161 87.2526 73.7422 86.9297C73.0859 86.4818 72.7578 85.8594 72.7578 85.0625C72.7578 84.3438 73.0417 83.7396 73.6094 83.25C74.1771 82.7604 75.0573 82.5156 76.25 82.5156C77.3854 82.5156 78.2292 82.7005 78.7812 83.0703C79.3333 83.4401 79.7135 83.987 79.9219 84.7109L77.8516 85.0938C77.763 84.7708 77.5938 84.5234 77.3438 84.3516C77.099 84.1797 76.7474 84.0938 76.2891 84.0938C75.7109 84.0938 75.2969 84.1745 75.0469 84.3359C74.8802 84.4505 74.7969 84.599 74.7969 84.7812C74.7969 84.9375 74.8698 85.0703 75.0156 85.1797C75.2135 85.3255 75.8958 85.5312 77.0625 85.7969C78.2344 86.0625 79.0521 86.388 79.5156 86.7734C79.974 87.1641 80.2031 87.7083 80.2031 88.4062C80.2031 89.1667 79.8854 89.8203 79.25 90.3672C78.6146 90.9141 77.6745 91.1875 76.4297 91.1875C75.2995 91.1875 74.4036 90.9583 73.7422 90.5C73.0859 90.0417 72.6562 89.4193 72.4531 88.6328Z" fill="#3E3E3D"/>
<g opacity="0.5">
<path d="M0 109.5H579.5" stroke="#CDCCCB"/>
</g>
<rect width="579.5" height="49" transform="translate(0 110)" fill="white"/>
<path d="M17.0938 140V128.547H19.4062V140H17.0938ZM29.1484 140H26.9531V135.766C26.9531 134.87 26.9062 134.292 26.8125 134.031C26.7188 133.766 26.5651 133.56 26.3516 133.414C26.1432 133.268 25.8906 133.195 25.5938 133.195C25.2135 133.195 24.8724 133.299 24.5703 133.508C24.2682 133.716 24.0599 133.992 23.9453 134.336C23.8359 134.68 23.7812 135.315 23.7812 136.242V140H21.5859V131.703H23.625V132.922C24.349 131.984 25.2604 131.516 26.3594 131.516C26.8438 131.516 27.2865 131.604 27.6875 131.781C28.0885 131.953 28.3906 132.174 28.5938 132.445C28.8021 132.716 28.9453 133.023 29.0234 133.367C29.1068 133.711 29.1484 134.203 29.1484 134.844V140ZM30.4219 131.703H31.6406V131.078C31.6406 130.38 31.7135 129.859 31.8594 129.516C32.0104 129.172 32.2839 128.893 32.6797 128.68C33.0807 128.461 33.5859 128.352 34.1953 128.352C34.8203 128.352 35.4323 128.445 36.0312 128.633L35.7344 130.164C35.3854 130.081 35.0495 130.039 34.7266 130.039C34.4089 130.039 34.1797 130.115 34.0391 130.266C33.9036 130.411 33.8359 130.695 33.8359 131.117V131.703H35.4766V133.43H33.8359V140H31.6406V133.43H30.4219V131.703ZM36.2031 135.734C36.2031 135.005 36.3828 134.299 36.7422 133.617C37.1016 132.935 37.6094 132.414 38.2656 132.055C38.9271 131.695 39.6641 131.516 40.4766 131.516C41.7318 131.516 42.7604 131.924 43.5625 132.742C44.3646 133.555 44.7656 134.583 44.7656 135.828C44.7656 137.083 44.3594 138.125 43.5469 138.953C42.7396 139.776 41.7214 140.188 40.4922 140.188C39.7318 140.188 39.0052 140.016 38.3125 139.672C37.625 139.328 37.1016 138.826 36.7422 138.164C36.3828 137.497 36.2031 136.688 36.2031 135.734ZM38.4531 135.852C38.4531 136.674 38.6484 137.305 39.0391 137.742C39.4297 138.18 39.9115 138.398 40.4844 138.398C41.0573 138.398 41.5365 138.18 41.9219 137.742C42.3125 137.305 42.5078 136.669 42.5078 135.836C42.5078 135.023 42.3125 134.398 41.9219 133.961C41.5365 133.523 41.0573 133.305 40.4844 133.305C39.9115 133.305 39.4297 133.523 39.0391 133.961C38.6484 134.398 38.4531 135.029 38.4531 135.852ZM48.5938 140H46.3984V131.703H48.4375V132.883C48.7865 132.326 49.099 131.958 49.375 131.781C49.6562 131.604 49.974 131.516 50.3281 131.516C50.8281 131.516 51.3099 131.654 51.7734 131.93L51.0938 133.844C50.724 133.604 50.3802 133.484 50.0625 133.484C49.7552 133.484 49.4948 133.57 49.2812 133.742C49.0677 133.909 48.8984 134.214 48.7734 134.656C48.6536 135.099 48.5938 136.026 48.5938 137.438V140ZM52.5625 131.703H54.5859V132.836C55.3099 131.956 56.1719 131.516 57.1719 131.516C57.7031 131.516 58.1641 131.625 58.5547 131.844C58.9453 132.062 59.2656 132.393 59.5156 132.836C59.8802 132.393 60.2734 132.062 60.6953 131.844C61.1172 131.625 61.5677 131.516 62.0469 131.516C62.6562 131.516 63.1719 131.641 63.5938 131.891C64.0156 132.135 64.3307 132.497 64.5391 132.977C64.6901 133.331 64.7656 133.904 64.7656 134.695V140H62.5703V135.258C62.5703 134.435 62.4948 133.904 62.3438 133.664C62.1406 133.352 61.8281 133.195 61.4062 133.195C61.099 133.195 60.8099 133.289 60.5391 133.477C60.2682 133.664 60.0729 133.94 59.9531 134.305C59.8333 134.664 59.7734 135.234 59.7734 136.016V140H57.5781V135.453C57.5781 134.646 57.5391 134.125 57.4609 133.891C57.3828 133.656 57.2604 133.482 57.0938 133.367C56.9323 133.253 56.7109 133.195 56.4297 133.195C56.0911 133.195 55.7865 133.286 55.5156 133.469C55.2448 133.651 55.0495 133.914 54.9297 134.258C54.8151 134.602 54.7578 135.172 54.7578 135.969V140H52.5625V131.703ZM68.6016 134.234L66.6094 133.875C66.8333 133.073 67.2188 132.479 67.7656 132.094C68.3125 131.708 69.125 131.516 70.2031 131.516C71.1823 131.516 71.9115 131.633 72.3906 131.867C72.8698 132.096 73.2057 132.391 73.3984 132.75C73.5964 133.104 73.6953 133.758 73.6953 134.711L73.6719 137.273C73.6719 138.003 73.7057 138.542 73.7734 138.891C73.8464 139.234 73.9792 139.604 74.1719 140H72C71.9427 139.854 71.8724 139.638 71.7891 139.352C71.7526 139.221 71.7266 139.135 71.7109 139.094C71.3359 139.458 70.9349 139.732 70.5078 139.914C70.0807 140.096 69.625 140.188 69.1406 140.188C68.2865 140.188 67.612 139.956 67.1172 139.492C66.6276 139.029 66.3828 138.443 66.3828 137.734C66.3828 137.266 66.4948 136.849 66.7188 136.484C66.9427 136.115 67.2552 135.833 67.6562 135.641C68.0625 135.443 68.6458 135.271 69.4062 135.125C70.4323 134.932 71.1432 134.753 71.5391 134.586V134.367C71.5391 133.945 71.4349 133.646 71.2266 133.469C71.0182 133.286 70.625 133.195 70.0469 133.195C69.6562 133.195 69.3516 133.273 69.1328 133.43C68.9141 133.581 68.737 133.849 68.6016 134.234ZM71.5391 136.016C71.2578 136.109 70.8125 136.221 70.2031 136.352C69.5938 136.482 69.1953 136.609 69.0078 136.734C68.7214 136.938 68.5781 137.195 68.5781 137.508C68.5781 137.815 68.6927 138.081 68.9219 138.305C69.151 138.529 69.4427 138.641 69.7969 138.641C70.1927 138.641 70.5703 138.51 70.9297 138.25C71.1953 138.052 71.3698 137.81 71.4531 137.523C71.5104 137.336 71.5391 136.979 71.5391 136.453V136.016ZM79.6719 131.703V133.453H78.1719V136.797C78.1719 137.474 78.1849 137.87 78.2109 137.984C78.2422 138.094 78.3073 138.185 78.4062 138.258C78.5104 138.331 78.6354 138.367 78.7812 138.367C78.9844 138.367 79.2786 138.297 79.6641 138.156L79.8516 139.859C79.3411 140.078 78.763 140.188 78.1172 140.188C77.7214 140.188 77.3646 140.122 77.0469 139.992C76.7292 139.857 76.4948 139.685 76.3438 139.477C76.1979 139.263 76.0964 138.977 76.0391 138.617C75.9922 138.362 75.9688 137.846 75.9688 137.07V133.453H74.9609V131.703H75.9688V130.055L78.1719 128.773V131.703H79.6719ZM81.1953 130.578V128.547H83.3906V130.578H81.1953ZM81.1953 140V131.703H83.3906V140H81.1953ZM85.1406 135.734C85.1406 135.005 85.3203 134.299 85.6797 133.617C86.0391 132.935 86.5469 132.414 87.2031 132.055C87.8646 131.695 88.6016 131.516 89.4141 131.516C90.6693 131.516 91.6979 131.924 92.5 132.742C93.3021 133.555 93.7031 134.583 93.7031 135.828C93.7031 137.083 93.2969 138.125 92.4844 138.953C91.6771 139.776 90.6589 140.188 89.4297 140.188C88.6693 140.188 87.9427 140.016 87.25 139.672C86.5625 139.328 86.0391 138.826 85.6797 138.164C85.3203 137.497 85.1406 136.688 85.1406 135.734ZM87.3906 135.852C87.3906 136.674 87.5859 137.305 87.9766 137.742C88.3672 138.18 88.849 138.398 89.4219 138.398C89.9948 138.398 90.474 138.18 90.8594 137.742C91.25 137.305 91.4453 136.669 91.4453 135.836C91.4453 135.023 91.25 134.398 90.8594 133.961C90.474 133.523 89.9948 133.305 89.4219 133.305C88.849 133.305 88.3672 133.523 87.9766 133.961C87.5859 134.398 87.3906 135.029 87.3906 135.852ZM102.977 140H100.781V135.766C100.781 134.87 100.734 134.292 100.641 134.031C100.547 133.766 100.393 133.56 100.18 133.414C99.9714 133.268 99.7188 133.195 99.4219 133.195C99.0417 133.195 98.7005 133.299 98.3984 133.508C98.0964 133.716 97.888 133.992 97.7734 134.336C97.6641 134.68 97.6094 135.315 97.6094 136.242V140H95.4141V131.703H97.4531V132.922C98.1771 131.984 99.0885 131.516 100.188 131.516C100.672 131.516 101.115 131.604 101.516 131.781C101.917 131.953 102.219 132.174 102.422 132.445C102.63 132.716 102.773 133.023 102.852 133.367C102.935 133.711 102.977 134.203 102.977 134.844V140Z" fill="#3E3E3D"/>
<g opacity="0.5">
<path d="M0 158.5H579.5" stroke="#CDCCCB"/>
</g>
<rect width="579.5" height="49" transform="translate(0 159)" fill="white"/>
<path d="M18.7891 189L16.0547 177.547H18.4219L20.1484 185.414L22.2422 177.547H24.9922L27 185.547L28.7578 177.547H31.0859L28.3047 189H25.8516L23.5703 180.438L21.2969 189H18.7891ZM33.3047 183.234L31.3125 182.875C31.5365 182.073 31.9219 181.479 32.4688 181.094C33.0156 180.708 33.8281 180.516 34.9062 180.516C35.8854 180.516 36.6146 180.633 37.0938 180.867C37.5729 181.096 37.9089 181.391 38.1016 181.75C38.2995 182.104 38.3984 182.758 38.3984 183.711L38.375 186.273C38.375 187.003 38.4089 187.542 38.4766 187.891C38.5495 188.234 38.6823 188.604 38.875 189H36.7031C36.6458 188.854 36.5755 188.638 36.4922 188.352C36.4557 188.221 36.4297 188.135 36.4141 188.094C36.0391 188.458 35.638 188.732 35.2109 188.914C34.7839 189.096 34.3281 189.188 33.8438 189.188C32.9896 189.188 32.3151 188.956 31.8203 188.492C31.3307 188.029 31.0859 187.443 31.0859 186.734C31.0859 186.266 31.1979 185.849 31.4219 185.484C31.6458 185.115 31.9583 184.833 32.3594 184.641C32.7656 184.443 33.349 184.271 34.1094 184.125C35.1354 183.932 35.8464 183.753 36.2422 183.586V183.367C36.2422 182.945 36.138 182.646 35.9297 182.469C35.7214 182.286 35.3281 182.195 34.75 182.195C34.3594 182.195 34.0547 182.273 33.8359 182.43C33.6172 182.581 33.4401 182.849 33.3047 183.234ZM36.2422 185.016C35.9609 185.109 35.5156 185.221 34.9062 185.352C34.2969 185.482 33.8984 185.609 33.7109 185.734C33.4245 185.938 33.2812 186.195 33.2812 186.508C33.2812 186.815 33.3958 187.081 33.625 187.305C33.8542 187.529 34.1458 187.641 34.5 187.641C34.8958 187.641 35.2734 187.51 35.6328 187.25C35.8984 187.052 36.0729 186.81 36.1562 186.523C36.2135 186.336 36.2422 185.979 36.2422 185.453V185.016ZM42.6719 189H40.4766V180.703H42.5156V181.883C42.8646 181.326 43.1771 180.958 43.4531 180.781C43.7344 180.604 44.0521 180.516 44.4062 180.516C44.9062 180.516 45.388 180.654 45.8516 180.93L45.1719 182.844C44.8021 182.604 44.4583 182.484 44.1406 182.484C43.8333 182.484 43.5729 182.57 43.3594 182.742C43.1458 182.909 42.9766 183.214 42.8516 183.656C42.7318 184.099 42.6719 185.026 42.6719 186.438V189ZM54.3516 189H52.1562V184.766C52.1562 183.87 52.1094 183.292 52.0156 183.031C51.9219 182.766 51.7682 182.56 51.5547 182.414C51.3464 182.268 51.0938 182.195 50.7969 182.195C50.4167 182.195 50.0755 182.299 49.7734 182.508C49.4714 182.716 49.263 182.992 49.1484 183.336C49.0391 183.68 48.9844 184.315 48.9844 185.242V189H46.7891V180.703H48.8281V181.922C49.5521 180.984 50.4635 180.516 51.5625 180.516C52.0469 180.516 52.4896 180.604 52.8906 180.781C53.2917 180.953 53.5938 181.174 53.7969 181.445C54.0052 181.716 54.1484 182.023 54.2266 182.367C54.3099 182.711 54.3516 183.203 54.3516 183.844V189ZM56.5859 179.578V177.547H58.7812V179.578H56.5859ZM56.5859 189V180.703H58.7812V189H56.5859ZM68.5859 189H66.3906V184.766C66.3906 183.87 66.3438 183.292 66.25 183.031C66.1562 182.766 66.0026 182.56 65.7891 182.414C65.5807 182.268 65.3281 182.195 65.0312 182.195C64.651 182.195 64.3099 182.299 64.0078 182.508C63.7057 182.716 63.4974 182.992 63.3828 183.336C63.2734 183.68 63.2188 184.315 63.2188 185.242V189H61.0234V180.703H63.0625V181.922C63.7865 180.984 64.6979 180.516 65.7969 180.516C66.2812 180.516 66.724 180.604 67.125 180.781C67.526 180.953 67.8281 181.174 68.0312 181.445C68.2396 181.716 68.3828 182.023 68.4609 182.367C68.5443 182.711 68.5859 183.203 68.5859 183.844V189ZM70.6172 189.547L73.125 189.852C73.1667 190.143 73.263 190.344 73.4141 190.453C73.6224 190.609 73.9505 190.688 74.3984 190.688C74.9714 190.688 75.401 190.602 75.6875 190.43C75.8802 190.315 76.026 190.13 76.125 189.875C76.1927 189.693 76.2266 189.357 76.2266 188.867V187.656C75.5703 188.552 74.7422 189 73.7422 189C72.6276 189 71.7448 188.529 71.0938 187.586C70.5833 186.841 70.3281 185.914 70.3281 184.805C70.3281 183.414 70.6615 182.352 71.3281 181.617C72 180.883 72.8333 180.516 73.8281 180.516C74.8542 180.516 75.7005 180.966 76.3672 181.867V180.703H78.4219V188.148C78.4219 189.128 78.3411 189.859 78.1797 190.344C78.0182 190.828 77.7917 191.208 77.5 191.484C77.2083 191.76 76.8177 191.977 76.3281 192.133C75.8438 192.289 75.2292 192.367 74.4844 192.367C73.0781 192.367 72.0807 192.125 71.4922 191.641C70.9036 191.161 70.6094 190.552 70.6094 189.812C70.6094 189.74 70.612 189.651 70.6172 189.547ZM72.5781 184.68C72.5781 185.56 72.7474 186.206 73.0859 186.617C73.4297 187.023 73.8516 187.227 74.3516 187.227C74.888 187.227 75.3411 187.018 75.7109 186.602C76.0807 186.18 76.2656 185.557 76.2656 184.734C76.2656 183.875 76.0885 183.237 75.7344 182.82C75.3802 182.404 74.9323 182.195 74.3906 182.195C73.8646 182.195 73.4297 182.401 73.0859 182.812C72.7474 183.219 72.5781 183.841 72.5781 184.68Z" fill="#3E3E3D"/>
<g opacity="0.5">
<path d="M0 207.5H579.5" stroke="#CDCCCB"/>
</g>
<rect width="579.5" height="49" transform="translate(0 208)" fill="white"/>
<path d="M27.4922 238H24.9766L23.9766 235.398H19.3984L18.4531 238H16L20.4609 226.547H22.9062L27.4922 238ZM23.2344 233.469L21.6562 229.219L20.1094 233.469H23.2344ZM28.7109 238V226.547H30.9062V238H28.7109ZM37.9688 235.359L40.1562 235.727C39.875 236.529 39.4297 237.141 38.8203 237.562C38.2161 237.979 37.4583 238.188 36.5469 238.188C35.1042 238.188 34.0365 237.716 33.3438 236.773C32.7969 236.018 32.5234 235.065 32.5234 233.914C32.5234 232.539 32.8828 231.464 33.6016 230.688C34.3203 229.906 35.2292 229.516 36.3281 229.516C37.5625 229.516 38.5365 229.924 39.25 230.742C39.9635 231.555 40.3047 232.802 40.2734 234.484H34.7734C34.7891 235.135 34.9661 235.643 35.3047 236.008C35.6432 236.367 36.0651 236.547 36.5703 236.547C36.9141 236.547 37.2031 236.453 37.4375 236.266C37.6719 236.078 37.849 235.776 37.9688 235.359ZM38.0938 233.141C38.0781 232.505 37.9141 232.023 37.6016 231.695C37.2891 231.362 36.9089 231.195 36.4609 231.195C35.9818 231.195 35.5859 231.37 35.2734 231.719C34.9609 232.068 34.8073 232.542 34.8125 233.141H38.0938ZM44.1719 238H41.9766V229.703H44.0156V230.883C44.3646 230.326 44.6771 229.958 44.9531 229.781C45.2344 229.604 45.5521 229.516 45.9062 229.516C46.4062 229.516 46.888 229.654 47.3516 229.93L46.6719 231.844C46.3021 231.604 45.9583 231.484 45.6406 231.484C45.3333 231.484 45.0729 231.57 44.8594 231.742C44.6458 231.909 44.4766 232.214 44.3516 232.656C44.2318 233.099 44.1719 234.026 44.1719 235.438V238ZM52.1094 229.703V231.453H50.6094V234.797C50.6094 235.474 50.6224 235.87 50.6484 235.984C50.6797 236.094 50.7448 236.185 50.8438 236.258C50.9479 236.331 51.0729 236.367 51.2188 236.367C51.4219 236.367 51.7161 236.297 52.1016 236.156L52.2891 237.859C51.7786 238.078 51.2005 238.188 50.5547 238.188C50.1589 238.188 49.8021 238.122 49.4844 237.992C49.1667 237.857 48.9323 237.685 48.7812 237.477C48.6354 237.263 48.5339 236.977 48.4766 236.617C48.4297 236.362 48.4062 235.846 48.4062 235.07V231.453H47.3984V229.703H48.4062V228.055L50.6094 226.773V229.703H52.1094Z" fill="#3E3E3D"/>
<g opacity="0.5">
<path d="M0 256.5H579.5" stroke="#CDCCCB"/>
</g>
<rect width="579.5" height="61" transform="translate(579.5)" fill="white"/>
<path d="M598.18 37.14C597.847 37.14 597.587 37.0467 597.4 36.86C597.227 36.6733 597.14 36.4133 597.14 36.08V23.96C597.14 23.6133 597.233 23.3533 597.42 23.18C597.607 22.9933 597.867 22.9 598.2 22.9H602.98C604.5 22.9 605.673 23.28 606.5 24.04C607.327 24.7867 607.74 25.84 607.74 27.2C607.74 28.5733 607.327 29.64 606.5 30.4C605.673 31.1467 604.5 31.52 602.98 31.52H599.22V36.08C599.22 36.4133 599.133 36.6733 598.96 36.86C598.787 37.0467 598.527 37.14 598.18 37.14ZM599.22 29.86H602.68C603.68 29.86 604.433 29.64 604.94 29.2C605.46 28.7467 605.72 28.08 605.72 27.2C605.72 26.3333 605.46 25.68 604.94 25.24C604.433 24.7867 603.68 24.56 602.68 24.56H599.22V29.86ZM612.595 37.18C611.809 37.18 611.149 37.0333 610.615 36.74C610.095 36.4467 609.702 36.0133 609.435 35.44C609.182 34.8533 609.055 34.12 609.055 33.24V28.12C609.055 27.7733 609.142 27.52 609.315 27.36C609.489 27.1867 609.735 27.1 610.055 27.1C610.375 27.1 610.622 27.1867 610.795 27.36C610.982 27.52 611.075 27.7733 611.075 28.12V33.26C611.075 34.0467 611.235 34.6267 611.555 35C611.875 35.3733 612.382 35.56 613.075 35.56C613.835 35.56 614.449 35.3067 614.915 34.8C615.395 34.28 615.635 33.6 615.635 32.76V28.12C615.635 27.7733 615.722 27.52 615.895 27.36C616.069 27.1867 616.322 27.1 616.655 27.1C616.975 27.1 617.222 27.1867 617.395 27.36C617.569 27.52 617.655 27.7733 617.655 28.12V36.12C617.655 36.8 617.329 37.14 616.675 37.14C616.369 37.14 616.129 37.0533 615.955 36.88C615.782 36.6933 615.695 36.44 615.695 36.12V34.42L615.955 34.86C615.689 35.6067 615.262 36.18 614.675 36.58C614.089 36.98 613.395 37.18 612.595 37.18ZM621.022 37.14C620.689 37.14 620.435 37.0533 620.262 36.88C620.089 36.6933 620.002 36.44 620.002 36.12V28.12C620.002 27.7867 620.089 27.5333 620.262 27.36C620.435 27.1867 620.675 27.1 620.982 27.1C621.302 27.1 621.542 27.1867 621.702 27.36C621.875 27.5333 621.962 27.7867 621.962 28.12V29.58H621.762C621.975 28.78 622.369 28.1733 622.942 27.76C623.515 27.3467 624.249 27.1067 625.142 27.04C625.382 27.0267 625.569 27.0867 625.702 27.22C625.849 27.3533 625.929 27.56 625.942 27.84C625.969 28.12 625.909 28.3467 625.762 28.52C625.615 28.68 625.389 28.7733 625.082 28.8L624.702 28.84C623.835 28.92 623.175 29.1933 622.722 29.66C622.269 30.1267 622.042 30.7667 622.042 31.58V36.12C622.042 36.44 621.955 36.6933 621.782 36.88C621.622 37.0533 621.369 37.14 621.022 37.14ZM627.963 40.74C627.643 40.74 627.396 40.6533 627.223 40.48C627.05 40.3067 626.963 40.0533 626.963 39.72V28.12C626.963 27.7867 627.05 27.5333 627.223 27.36C627.396 27.1867 627.636 27.1 627.943 27.1C628.263 27.1 628.51 27.1867 628.683 27.36C628.856 27.5333 628.943 27.7867 628.943 28.12V29.86L628.723 29.44C628.936 28.72 629.356 28.1467 629.983 27.72C630.61 27.28 631.35 27.06 632.203 27.06C633.07 27.06 633.823 27.2667 634.463 27.68C635.116 28.0933 635.616 28.6733 635.963 29.42C636.323 30.1667 636.503 31.0667 636.503 32.12C636.503 33.1467 636.323 34.0467 635.963 34.82C635.616 35.58 635.123 36.1667 634.483 36.58C633.843 36.98 633.083 37.18 632.203 37.18C631.363 37.18 630.63 36.9667 630.003 36.54C629.376 36.1133 628.956 35.5467 628.743 34.84H628.983V39.72C628.983 40.0533 628.89 40.3067 628.703 40.48C628.53 40.6533 628.283 40.74 627.963 40.74ZM631.703 35.62C632.263 35.62 632.75 35.4867 633.163 35.22C633.576 34.9533 633.896 34.56 634.123 34.04C634.35 33.52 634.463 32.88 634.463 32.12C634.463 30.9733 634.21 30.1067 633.703 29.52C633.21 28.9333 632.543 28.64 631.703 28.64C631.156 28.64 630.67 28.7733 630.243 29.04C629.83 29.2933 629.51 29.68 629.283 30.2C629.056 30.72 628.943 31.36 628.943 32.12C628.943 33.2533 629.196 34.12 629.703 34.72C630.21 35.32 630.876 35.62 631.703 35.62ZM642.519 37.18C641.533 37.18 640.679 36.9733 639.959 36.56C639.253 36.1467 638.699 35.56 638.299 34.8C637.899 34.04 637.699 33.1467 637.699 32.12C637.699 31.3333 637.813 30.6333 638.039 30.02C638.266 29.4067 638.586 28.88 638.999 28.44C639.426 27.9867 639.933 27.6467 640.519 27.42C641.119 27.18 641.786 27.06 642.519 27.06C643.493 27.06 644.333 27.2667 645.039 27.68C645.759 28.0933 646.319 28.68 646.719 29.44C647.119 30.1867 647.319 31.08 647.319 32.12C647.319 32.8933 647.206 33.5933 646.979 34.22C646.753 34.8467 646.426 35.38 645.999 35.82C645.586 36.26 645.079 36.6 644.479 36.84C643.893 37.0667 643.239 37.18 642.519 37.18ZM642.519 35.62C643.066 35.62 643.546 35.4867 643.959 35.22C644.373 34.9533 644.693 34.56 644.919 34.04C645.159 33.52 645.279 32.88 645.279 32.12C645.279 30.9733 645.026 30.1067 644.519 29.52C644.013 28.9333 643.346 28.64 642.519 28.64C641.959 28.64 641.473 28.7733 641.059 29.04C640.646 29.2933 640.319 29.68 640.079 30.2C639.853 30.72 639.739 31.36 639.739 32.12C639.739 33.2533 639.993 34.12 640.499 34.72C641.006 35.32 641.679 35.62 642.519 35.62ZM652.508 37.18C651.921 37.18 651.315 37.1133 650.688 36.98C650.075 36.8467 649.508 36.62 648.988 36.3C648.815 36.18 648.695 36.0467 648.628 35.9C648.561 35.7533 648.535 35.6067 648.548 35.46C648.575 35.3 648.635 35.1667 648.728 35.06C648.835 34.94 648.961 34.8667 649.108 34.84C649.268 34.8133 649.435 34.8467 649.608 34.94C650.128 35.2333 650.628 35.44 651.108 35.56C651.588 35.6667 652.061 35.72 652.528 35.72C653.235 35.72 653.768 35.5933 654.128 35.34C654.488 35.0867 654.668 34.7467 654.668 34.32C654.668 33.9733 654.548 33.7067 654.308 33.52C654.068 33.32 653.708 33.1667 653.228 33.06L651.328 32.68C650.501 32.5067 649.875 32.2 649.448 31.76C649.021 31.32 648.808 30.76 648.808 30.08C648.808 29.4667 648.975 28.9333 649.308 28.48C649.641 28.0267 650.108 27.68 650.708 27.44C651.308 27.1867 652.001 27.06 652.788 27.06C653.375 27.06 653.928 27.1333 654.448 27.28C654.968 27.4267 655.448 27.6467 655.888 27.94C656.061 28.0333 656.175 28.16 656.228 28.32C656.281 28.4667 656.288 28.6133 656.248 28.76C656.221 28.9067 656.155 29.04 656.048 29.16C655.941 29.2667 655.808 29.3333 655.648 29.36C655.501 29.3733 655.335 29.3333 655.148 29.24C654.748 28.9867 654.348 28.8067 653.948 28.7C653.561 28.5933 653.175 28.54 652.788 28.54C652.081 28.54 651.548 28.6733 651.188 28.94C650.841 29.1933 650.668 29.54 650.668 29.98C650.668 30.3133 650.775 30.5867 650.988 30.8C651.201 31.0133 651.535 31.1667 651.988 31.26L653.888 31.64C654.755 31.8133 655.408 32.1067 655.848 32.52C656.301 32.9333 656.528 33.4933 656.528 34.2C656.528 35.12 656.161 35.8467 655.428 36.38C654.695 36.9133 653.721 37.18 652.508 37.18ZM662.855 37.18C661.789 37.18 660.869 36.98 660.095 36.58C659.335 36.1667 658.742 35.5867 658.315 34.84C657.902 34.08 657.695 33.18 657.695 32.14C657.695 31.1267 657.902 30.24 658.315 29.48C658.729 28.72 659.295 28.1267 660.015 27.7C660.735 27.2733 661.555 27.06 662.475 27.06C663.155 27.06 663.762 27.1733 664.295 27.4C664.829 27.6133 665.282 27.9333 665.655 28.36C666.042 28.7733 666.329 29.28 666.515 29.88C666.715 30.48 666.815 31.1533 666.815 31.9C666.815 32.1267 666.749 32.3 666.615 32.42C666.482 32.5267 666.282 32.58 666.015 32.58H659.295V31.34H665.455L665.115 31.62C665.115 30.9533 665.015 30.3867 664.815 29.92C664.629 29.4533 664.342 29.1 663.955 28.86C663.582 28.6067 663.115 28.48 662.555 28.48C661.929 28.48 661.395 28.6267 660.955 28.92C660.529 29.2133 660.202 29.62 659.975 30.14C659.749 30.66 659.635 31.2667 659.635 31.96V32.08C659.635 33.2533 659.909 34.14 660.455 34.74C661.015 35.3267 661.822 35.62 662.875 35.62C663.275 35.62 663.695 35.5667 664.135 35.46C664.589 35.3533 665.015 35.1733 665.415 34.92C665.642 34.7867 665.842 34.7267 666.015 34.74C666.202 34.7533 666.349 34.8133 666.455 34.92C666.575 35.0267 666.649 35.16 666.675 35.32C666.702 35.48 666.675 35.6467 666.595 35.82C666.515 35.98 666.375 36.1267 666.175 36.26C665.722 36.5667 665.195 36.8 664.595 36.96C663.995 37.1067 663.415 37.18 662.855 37.18Z" fill="#201F1F"/>
<path d="M579.5 60.5H1159" stroke="#CDCCCB"/>
<rect width="579.5" height="49" transform="translate(579.5 61)" fill="white"/>
<g opacity="0.5">
<path d="M579.5 109.5H1159" stroke="#CDCCCB"/>
</g>
<rect width="579.5" height="49" transform="translate(579.5 110)" fill="white"/>
<g opacity="0.5">
<path d="M579.5 158.5H1159" stroke="#CDCCCB"/>
</g>
<rect width="579.5" height="49" transform="translate(579.5 159)" fill="white"/>
<g opacity="0.5">
<path d="M579.5 207.5H1159" stroke="#CDCCCB"/>
</g>
<rect width="579.5" height="49" transform="translate(579.5 208)" fill="white"/>
<g opacity="0.5">
<path d="M579.5 256.5H1159" stroke="#CDCCCB"/>
</g>
</g>
<rect x="0.5" y="0.5" width="1158" height="256" rx="7.5" stroke="#CDCCCB"/>
<defs>
<clipPath id="clip0_234_27238">
<rect width="1159" height="257" rx="8" fill="white"/>
</clipPath>
</defs>
</svg>
