<svg width="188" height="88" viewBox="0 0 188 88" fill="none" xmlns="http://www.w3.org/2000/svg">
<g clip-path="url(#clip0_234_27687)">
<rect width="188" height="88" fill="white"/>
<path d="M57 32C57 29.7909 58.7909 28 61 28H127C129.209 28 131 29.7909 131 32V56C131 58.2091 129.209 60 127 60H61C58.7909 60 57 58.2091 57 56V32Z" fill="#2964A0"/>
<path d="M71 50C69.3222 50 67.9028 49.7417 66.7417 49.225C65.5806 48.7083 65 48.0778 65 47.3333V40.6667C65 39.9333 65.5861 39.3056 66.7583 38.7833C67.9306 38.2611 69.3444 38 71 38C72.6556 38 74.0694 38.2611 75.2417 38.7833C76.4139 39.3056 77 39.9333 77 40.6667V47.3333C77 48.0778 76.4194 48.7083 75.2583 49.225C74.0972 49.7417 72.6778 50 71 50ZM71 42.0167C71.9889 42.0167 72.9833 41.875 73.9833 41.5917C74.9833 41.3083 75.5444 41.0056 75.6667 40.6833C75.5444 40.3611 74.9861 40.0556 73.9917 39.7667C72.9972 39.4778 72 39.3333 71 39.3333C69.9889 39.3333 68.9972 39.475 68.025 39.7583C67.0528 40.0417 66.4889 40.35 66.3333 40.6833C66.4889 41.0167 67.0528 41.3222 68.025 41.6C68.9972 41.8778 69.9889 42.0167 71 42.0167ZM71 45.3333C71.4667 45.3333 71.9167 45.3111 72.35 45.2667C72.7833 45.2222 73.1972 45.1583 73.5917 45.075C73.9861 44.9917 74.3583 44.8889 74.7083 44.7667C75.0583 44.6444 75.3778 44.5056 75.6667 44.35V42.35C75.3778 42.5056 75.0583 42.6444 74.7083 42.7667C74.3583 42.8889 73.9861 42.9917 73.5917 43.075C73.1972 43.1583 72.7833 43.2222 72.35 43.2667C71.9167 43.3111 71.4667 43.3333 71 43.3333C70.5333 43.3333 70.0778 43.3111 69.6333 43.2667C69.1889 43.2222 68.7694 43.1583 68.375 43.075C67.9806 42.9917 67.6111 42.8889 67.2667 42.7667C66.9222 42.6444 66.6111 42.5056 66.3333 42.35V44.35C66.6111 44.5056 66.9222 44.6444 67.2667 44.7667C67.6111 44.8889 67.9806 44.9917 68.375 45.075C68.7694 45.1583 69.1889 45.2222 69.6333 45.2667C70.0778 45.3111 70.5333 45.3333 71 45.3333ZM71 48.6667C71.5111 48.6667 72.0306 48.6278 72.5583 48.55C73.0861 48.4722 73.5722 48.3694 74.0167 48.2417C74.4611 48.1139 74.8333 47.9694 75.1333 47.8083C75.4333 47.6472 75.6111 47.4833 75.6667 47.3167V45.6833C75.3778 45.8389 75.0583 45.9778 74.7083 46.1C74.3583 46.2222 73.9861 46.325 73.5917 46.4083C73.1972 46.4917 72.7833 46.5556 72.35 46.6C71.9167 46.6444 71.4667 46.6667 71 46.6667C70.5333 46.6667 70.0778 46.6444 69.6333 46.6C69.1889 46.5556 68.7694 46.4917 68.375 46.4083C67.9806 46.325 67.6111 46.2222 67.2667 46.1C66.9222 45.9778 66.6111 45.8389 66.3333 45.6833V47.3333C66.3889 47.5 66.5639 47.6611 66.8583 47.8167C67.1528 47.9722 67.5222 48.1139 67.9667 48.2417C68.4111 48.3694 68.9 48.4722 69.4333 48.55C69.9667 48.6278 70.4889 48.6667 71 48.6667Z" fill="white"/>
<path d="M86.2344 50V38.5469H90.1797C91.0703 38.5469 91.75 38.6016 92.2188 38.7109C92.875 38.862 93.4349 39.1354 93.8984 39.5312C94.5026 40.0417 94.9531 40.6953 95.25 41.4922C95.5521 42.2839 95.7031 43.1901 95.7031 44.2109C95.7031 45.0807 95.6016 45.8516 95.3984 46.5234C95.1953 47.1953 94.9349 47.7526 94.6172 48.1953C94.2995 48.6328 93.9505 48.9792 93.5703 49.2344C93.1953 49.4844 92.7396 49.6745 92.2031 49.8047C91.6719 49.9349 91.0599 50 90.3672 50H86.2344ZM87.75 48.6484H90.1953C90.9505 48.6484 91.5417 48.5781 91.9688 48.4375C92.401 48.2969 92.7448 48.099 93 47.8438C93.3594 47.4844 93.638 47.0026 93.8359 46.3984C94.0391 45.7891 94.1406 45.0521 94.1406 44.1875C94.1406 42.9896 93.9427 42.0703 93.5469 41.4297C93.1562 40.7839 92.6797 40.3516 92.1172 40.1328C91.7109 39.9766 91.0573 39.8984 90.1562 39.8984H87.75V48.6484ZM103.031 48.9766C102.51 49.4193 102.008 49.7318 101.523 49.9141C101.044 50.0964 100.529 50.1875 99.9766 50.1875C99.0651 50.1875 98.3646 49.9661 97.875 49.5234C97.3854 49.0755 97.1406 48.5052 97.1406 47.8125C97.1406 47.4062 97.2318 47.0365 97.4141 46.7031C97.6016 46.3646 97.8438 46.0938 98.1406 45.8906C98.4427 45.6875 98.7812 45.5339 99.1562 45.4297C99.4323 45.3568 99.849 45.2865 100.406 45.2188C101.542 45.0833 102.378 44.9219 102.914 44.7344C102.919 44.5417 102.922 44.4193 102.922 44.3672C102.922 43.7943 102.789 43.3906 102.523 43.1562C102.164 42.8385 101.63 42.6797 100.922 42.6797C100.26 42.6797 99.7708 42.7969 99.4531 43.0312C99.1406 43.2604 98.9089 43.6693 98.7578 44.2578L97.3828 44.0703C97.5078 43.4818 97.7135 43.0078 98 42.6484C98.2865 42.2839 98.7005 42.0052 99.2422 41.8125C99.7839 41.6146 100.411 41.5156 101.125 41.5156C101.833 41.5156 102.409 41.599 102.852 41.7656C103.294 41.9323 103.62 42.1432 103.828 42.3984C104.036 42.6484 104.182 42.9661 104.266 43.3516C104.312 43.5911 104.336 44.0234 104.336 44.6484V46.5234C104.336 47.8307 104.365 48.6589 104.422 49.0078C104.484 49.3516 104.604 49.6823 104.781 50H103.312C103.167 49.7083 103.073 49.3672 103.031 48.9766ZM102.914 45.8359C102.404 46.0443 101.638 46.2214 100.617 46.3672C100.039 46.4505 99.6302 46.5443 99.3906 46.6484C99.151 46.7526 98.9661 46.9062 98.8359 47.1094C98.7057 47.3073 98.6406 47.5286 98.6406 47.7734C98.6406 48.1484 98.7812 48.4609 99.0625 48.7109C99.349 48.9609 99.7656 49.0859 100.312 49.0859C100.854 49.0859 101.336 48.9688 101.758 48.7344C102.18 48.4948 102.49 48.1693 102.688 47.7578C102.839 47.4401 102.914 46.9714 102.914 46.3516V45.8359ZM109.594 48.7422L109.797 49.9844C109.401 50.0677 109.047 50.1094 108.734 50.1094C108.224 50.1094 107.828 50.0286 107.547 49.8672C107.266 49.7057 107.068 49.4948 106.953 49.2344C106.839 48.9688 106.781 48.4141 106.781 47.5703V42.7969H105.75V41.7031H106.781V39.6484L108.18 38.8047V41.7031H109.594V42.7969H108.18V47.6484C108.18 48.0495 108.203 48.3073 108.25 48.4219C108.302 48.5365 108.383 48.6276 108.492 48.6953C108.607 48.763 108.768 48.7969 108.977 48.7969C109.133 48.7969 109.339 48.7786 109.594 48.7422ZM116.391 48.9766C115.87 49.4193 115.367 49.7318 114.883 49.9141C114.404 50.0964 113.888 50.1875 113.336 50.1875C112.424 50.1875 111.724 49.9661 111.234 49.5234C110.745 49.0755 110.5 48.5052 110.5 47.8125C110.5 47.4062 110.591 47.0365 110.773 46.7031C110.961 46.3646 111.203 46.0938 111.5 45.8906C111.802 45.6875 112.141 45.5339 112.516 45.4297C112.792 45.3568 113.208 45.2865 113.766 45.2188C114.901 45.0833 115.737 44.9219 116.273 44.7344C116.279 44.5417 116.281 44.4193 116.281 44.3672C116.281 43.7943 116.148 43.3906 115.883 43.1562C115.523 42.8385 114.99 42.6797 114.281 42.6797C113.62 42.6797 113.13 42.7969 112.812 43.0312C112.5 43.2604 112.268 43.6693 112.117 44.2578L110.742 44.0703C110.867 43.4818 111.073 43.0078 111.359 42.6484C111.646 42.2839 112.06 42.0052 112.602 41.8125C113.143 41.6146 113.771 41.5156 114.484 41.5156C115.193 41.5156 115.768 41.599 116.211 41.7656C116.654 41.9323 116.979 42.1432 117.188 42.3984C117.396 42.6484 117.542 42.9661 117.625 43.3516C117.672 43.5911 117.695 44.0234 117.695 44.6484V46.5234C117.695 47.8307 117.724 48.6589 117.781 49.0078C117.844 49.3516 117.964 49.6823 118.141 50H116.672C116.526 49.7083 116.432 49.3672 116.391 48.9766ZM116.273 45.8359C115.763 46.0443 114.997 46.2214 113.977 46.3672C113.398 46.4505 112.99 46.5443 112.75 46.6484C112.51 46.7526 112.326 46.9062 112.195 47.1094C112.065 47.3073 112 47.5286 112 47.7734C112 48.1484 112.141 48.4609 112.422 48.7109C112.708 48.9609 113.125 49.0859 113.672 49.0859C114.214 49.0859 114.695 48.9688 115.117 48.7344C115.539 48.4948 115.849 48.1693 116.047 47.7578C116.198 47.4401 116.273 46.9714 116.273 46.3516V45.8359Z" fill="white"/>
<path d="M23.1 42C22.82 42 22.6 41.92 22.44 41.76C22.28 41.6 22.2 41.3867 22.2 41.12C22.2 40.84 22.28 40.6267 22.44 40.48C22.6 40.3333 22.82 40.26 23.1 40.26H25.54V29.62H26.58L23.66 31.48C23.4467 31.6 23.2467 31.6467 23.06 31.62C22.8867 31.5933 22.7333 31.52 22.6 31.4C22.48 31.28 22.3933 31.1333 22.34 30.96C22.3 30.7867 22.3133 30.6067 22.38 30.42C22.46 30.2333 22.6 30.08 22.8 29.96L25.56 28.22C25.7867 28.0867 26 27.98 26.2 27.9C26.4133 27.8067 26.6133 27.76 26.8 27.76C27.0267 27.76 27.2133 27.8267 27.36 27.96C27.52 28.08 27.6 28.2867 27.6 28.58V40.26H29.84C30.1333 40.26 30.36 40.3333 30.52 40.48C30.68 40.6267 30.76 40.84 30.76 41.12C30.76 41.4 30.68 41.62 30.52 41.78C30.36 41.9267 30.1333 42 29.84 42H23.1ZM33.8922 42.08C33.5055 42.08 33.1922 41.96 32.9522 41.72C32.7122 41.48 32.5922 41.1733 32.5922 40.8C32.5922 40.4267 32.7122 40.1267 32.9522 39.9C33.1922 39.66 33.5055 39.54 33.8922 39.54C34.2789 39.54 34.5855 39.66 34.8122 39.9C35.0389 40.1267 35.1522 40.4267 35.1522 40.8C35.1522 41.1733 35.0389 41.48 34.8122 41.72C34.5855 41.96 34.2789 42.08 33.8922 42.08Z" fill="#737272"/>
<path d="M56.6667 34.5C56.6667 33.0272 55.4728 31.8333 54 31.8333C52.5272 31.8333 51.3333 33.0272 51.3333 34.5C51.3333 35.9728 52.5272 37.1667 54 37.1667C55.4728 37.1667 56.6667 35.9728 56.6667 34.5ZM54 34.5L54 34L37 34L37 34.5L37 35L54 35L54 34.5Z" fill="#737272"/>
<path d="M144.78 51.18C144.033 51.18 143.273 51.08 142.5 50.88C141.727 50.6667 141.053 50.3533 140.48 49.94C140.267 49.8067 140.12 49.6467 140.04 49.46C139.973 49.26 139.96 49.08 140 48.92C140.04 48.7467 140.12 48.6 140.24 48.48C140.373 48.36 140.533 48.2933 140.72 48.28C140.907 48.2533 141.113 48.3067 141.34 48.44C141.913 48.7867 142.473 49.04 143.02 49.2C143.567 49.3467 144.133 49.42 144.72 49.42C145.36 49.42 145.9 49.3267 146.34 49.14C146.78 48.9533 147.107 48.68 147.32 48.32C147.547 47.96 147.66 47.5267 147.66 47.02C147.66 46.26 147.407 45.6933 146.9 45.32C146.407 44.9333 145.687 44.74 144.74 44.74H143.38C143.073 44.74 142.84 44.6667 142.68 44.52C142.52 44.36 142.44 44.14 142.44 43.86C142.44 43.5933 142.52 43.3867 142.68 43.24C142.84 43.08 143.073 43 143.38 43H144.54C145.113 43 145.6 42.9067 146 42.72C146.4 42.52 146.707 42.2467 146.92 41.9C147.147 41.54 147.26 41.1067 147.26 40.6C147.26 39.92 147.033 39.4 146.58 39.04C146.14 38.6667 145.493 38.48 144.64 38.48C144.093 38.48 143.573 38.5533 143.08 38.7C142.6 38.8467 142.1 39.1067 141.58 39.48C141.38 39.6133 141.187 39.6733 141 39.66C140.827 39.6333 140.673 39.5667 140.54 39.46C140.42 39.34 140.333 39.1933 140.28 39.02C140.24 38.8467 140.253 38.6667 140.32 38.48C140.387 38.2933 140.52 38.1333 140.72 38C141.28 37.5867 141.913 37.2733 142.62 37.06C143.327 36.8333 144.053 36.72 144.8 36.72C145.733 36.72 146.533 36.8667 147.2 37.16C147.88 37.4533 148.393 37.8733 148.74 38.42C149.1 38.9667 149.28 39.62 149.28 40.38C149.28 40.9533 149.173 41.4733 148.96 41.94C148.747 42.4067 148.44 42.8067 148.04 43.14C147.653 43.46 147.18 43.6867 146.62 43.82V43.6C147.593 43.76 148.347 44.16 148.88 44.8C149.413 45.4267 149.68 46.2133 149.68 47.16C149.68 47.9867 149.48 48.7067 149.08 49.32C148.693 49.92 148.133 50.38 147.4 50.7C146.667 51.02 145.793 51.18 144.78 51.18ZM152.892 51.08C152.506 51.08 152.192 50.96 151.952 50.72C151.712 50.48 151.592 50.1733 151.592 49.8C151.592 49.4267 151.712 49.1267 151.952 48.9C152.192 48.66 152.506 48.54 152.892 48.54C153.279 48.54 153.586 48.66 153.812 48.9C154.039 49.1267 154.152 49.4267 154.152 49.8C154.152 50.1733 154.039 50.48 153.812 50.72C153.586 50.96 153.279 51.08 152.892 51.08Z" fill="#737272"/>
<path d="M119.333 43.5C119.333 42.0272 120.527 40.8333 122 40.8333C123.473 40.8333 124.667 42.0272 124.667 43.5C124.667 44.9728 123.473 46.1667 122 46.1667C120.527 46.1667 119.333 44.9728 119.333 43.5ZM122 43.5L122 43L139 43L139 43.5L139 44L122 44L122 43.5Z" fill="#737272"/>
<path d="M60.62 81C60.26 81 60 80.92 59.84 80.76C59.68 80.5867 59.6 80.3533 59.6 80.06C59.6 79.8733 59.6467 79.6933 59.74 79.52C59.8333 79.3467 59.9667 79.1667 60.14 78.98L64.4 74.42C65.0533 73.7267 65.52 73.0933 65.8 72.52C66.0933 71.9333 66.24 71.3467 66.24 70.76C66.24 70.0133 66.0133 69.4467 65.56 69.06C65.1067 68.6733 64.44 68.48 63.56 68.48C63.0267 68.48 62.5133 68.56 62.02 68.72C61.5267 68.88 61.0333 69.14 60.54 69.5C60.34 69.6333 60.1533 69.6933 59.98 69.68C59.8067 69.6667 59.6533 69.6 59.52 69.48C59.4 69.36 59.32 69.2133 59.28 69.04C59.24 68.8667 59.2467 68.6867 59.3 68.5C59.3533 68.3133 59.48 68.1533 59.68 68.02C60.2267 67.6067 60.86 67.2867 61.58 67.06C62.3 66.8333 63.0333 66.72 63.78 66.72C64.7533 66.72 65.5733 66.8733 66.24 67.18C66.92 67.4733 67.4333 67.9067 67.78 68.48C68.1267 69.0533 68.3 69.7533 68.3 70.58C68.3 71.14 68.2067 71.6867 68.02 72.22C67.8467 72.7533 67.5733 73.3 67.2 73.86C66.84 74.4067 66.3667 74.9867 65.78 75.6L61.74 79.84V79.26H68.1C68.3933 79.26 68.62 79.3333 68.78 79.48C68.94 79.6267 69.02 79.84 69.02 80.12C69.02 80.4 68.94 80.62 68.78 80.78C68.62 80.9267 68.3933 81 68.1 81H60.62ZM71.8922 81.08C71.5055 81.08 71.1922 80.96 70.9522 80.72C70.7122 80.48 70.5922 80.1733 70.5922 79.8C70.5922 79.4267 70.7122 79.1267 70.9522 78.9C71.1922 78.66 71.5055 78.54 71.8922 78.54C72.2789 78.54 72.5855 78.66 72.8122 78.9C73.0389 79.1267 73.1522 79.4267 73.1522 79.8C73.1522 80.1733 73.0389 80.48 72.8122 80.72C72.5855 80.96 72.2789 81.08 71.8922 81.08Z" fill="#737272"/>
<path d="M72 49.3333C70.5272 49.3333 69.3333 50.5272 69.3333 52C69.3333 53.4728 70.5272 54.6667 72 54.6667C73.4728 54.6667 74.6667 53.4728 74.6667 52C74.6667 50.5272 73.4728 49.3333 72 49.3333ZM72 52H71.5V64H72H72.5V52H72Z" fill="#737272"/>
</g>
<defs>
<clipPath id="clip0_234_27687">
<rect width="188" height="88" fill="white"/>
</clipPath>
</defs>
</svg>
