<svg width="1159" height="160" viewBox="0 0 1159 160" fill="none" xmlns="http://www.w3.org/2000/svg">
<g clip-path="url(#clip0_228_25646)">
<rect width="579.5" height="61" transform="translate(0 0.5)" fill="white"/>
<path d="M22.12 37.64C21.7867 37.64 21.5267 37.5467 21.34 37.36C21.1667 37.1733 21.08 36.9133 21.08 36.58V25.14H16.84C16.56 25.14 16.34 25.0667 16.18 24.92C16.02 24.76 15.94 24.54 15.94 24.26C15.94 23.98 16.02 23.7667 16.18 23.62C16.34 23.4733 16.56 23.4 16.84 23.4H27.38C27.6733 23.4 27.9 23.4733 28.06 23.62C28.22 23.7667 28.3 23.98 28.3 24.26C28.3 24.54 28.22 24.76 28.06 24.92C27.9 25.0667 27.6733 25.14 27.38 25.14H23.14V36.58C23.14 36.9133 23.0533 37.1733 22.88 37.36C22.72 37.5467 22.4667 37.64 22.12 37.64ZM29.9622 41.24C29.7222 41.24 29.5222 41.1733 29.3622 41.04C29.2155 40.92 29.1289 40.7533 29.1022 40.54C29.0889 40.34 29.1289 40.12 29.2222 39.88L30.5822 36.82V37.68L26.8422 28.98C26.7489 28.74 26.7155 28.5133 26.7422 28.3C26.7689 28.0867 26.8689 27.92 27.0422 27.8C27.2155 27.6667 27.4489 27.6 27.7422 27.6C27.9955 27.6 28.1955 27.66 28.3422 27.78C28.4889 27.9 28.6222 28.1067 28.7422 28.4L31.7622 35.86H31.2022L34.2622 28.4C34.3822 28.0933 34.5222 27.8867 34.6822 27.78C34.8422 27.66 35.0622 27.6 35.3422 27.6C35.5822 27.6 35.7689 27.6667 35.9022 27.8C36.0489 27.92 36.1355 28.0867 36.1622 28.3C36.2022 28.5 36.1689 28.72 36.0622 28.96L31.0622 40.46C30.9289 40.7667 30.7755 40.9733 30.6022 41.08C30.4422 41.1867 30.2289 41.24 29.9622 41.24ZM38.5528 41.24C38.2328 41.24 37.9861 41.1533 37.8128 40.98C37.6395 40.8067 37.5528 40.5533 37.5528 40.22V28.62C37.5528 28.2867 37.6395 28.0333 37.8128 27.86C37.9861 27.6867 38.2261 27.6 38.5328 27.6C38.8528 27.6 39.0995 27.6867 39.2728 27.86C39.4461 28.0333 39.5328 28.2867 39.5328 28.62V30.36L39.3128 29.94C39.5261 29.22 39.9461 28.6467 40.5728 28.22C41.1995 27.78 41.9395 27.56 42.7928 27.56C43.6595 27.56 44.4128 27.7667 45.0528 28.18C45.7061 28.5933 46.2061 29.1733 46.5528 29.92C46.9128 30.6667 47.0928 31.5667 47.0928 32.62C47.0928 33.6467 46.9128 34.5467 46.5528 35.32C46.2061 36.08 45.7128 36.6667 45.0728 37.08C44.4328 37.48 43.6728 37.68 42.7928 37.68C41.9528 37.68 41.2195 37.4667 40.5928 37.04C39.9661 36.6133 39.5461 36.0467 39.3328 35.34H39.5728V40.22C39.5728 40.5533 39.4795 40.8067 39.2928 40.98C39.1195 41.1533 38.8728 41.24 38.5528 41.24ZM42.2928 36.12C42.8528 36.12 43.3395 35.9867 43.7528 35.72C44.1661 35.4533 44.4861 35.06 44.7128 34.54C44.9395 34.02 45.0528 33.38 45.0528 32.62C45.0528 31.4733 44.7995 30.6067 44.2928 30.02C43.7995 29.4333 43.1328 29.14 42.2928 29.14C41.7461 29.14 41.2595 29.2733 40.8328 29.54C40.4195 29.7933 40.0995 30.18 39.8728 30.7C39.6461 31.22 39.5328 31.86 39.5328 32.62C39.5328 33.7533 39.7861 34.62 40.2928 35.22C40.7995 35.82 41.4661 36.12 42.2928 36.12ZM53.4492 37.68C52.3826 37.68 51.4626 37.48 50.6892 37.08C49.9292 36.6667 49.3359 36.0867 48.9092 35.34C48.4959 34.58 48.2892 33.68 48.2892 32.64C48.2892 31.6267 48.4959 30.74 48.9092 29.98C49.3226 29.22 49.8892 28.6267 50.6092 28.2C51.3292 27.7733 52.1492 27.56 53.0692 27.56C53.7492 27.56 54.3559 27.6733 54.8892 27.9C55.4226 28.1133 55.8759 28.4333 56.2492 28.86C56.6359 29.2733 56.9226 29.78 57.1092 30.38C57.3092 30.98 57.4092 31.6533 57.4092 32.4C57.4092 32.6267 57.3426 32.8 57.2092 32.92C57.0759 33.0267 56.8759 33.08 56.6092 33.08H49.8892V31.84H56.0492L55.7092 32.12C55.7092 31.4533 55.6092 30.8867 55.4092 30.42C55.2226 29.9533 54.9359 29.6 54.5492 29.36C54.1759 29.1067 53.7092 28.98 53.1492 28.98C52.5226 28.98 51.9892 29.1267 51.5492 29.42C51.1226 29.7133 50.7959 30.12 50.5692 30.64C50.3426 31.16 50.2292 31.7667 50.2292 32.46V32.58C50.2292 33.7533 50.5026 34.64 51.0492 35.24C51.6092 35.8267 52.4159 36.12 53.4692 36.12C53.8692 36.12 54.2892 36.0667 54.7292 35.96C55.1826 35.8533 55.6092 35.6733 56.0092 35.42C56.2359 35.2867 56.4359 35.2267 56.6092 35.24C56.7959 35.2533 56.9426 35.3133 57.0492 35.42C57.1692 35.5267 57.2426 35.66 57.2692 35.82C57.2959 35.98 57.2692 36.1467 57.1892 36.32C57.1092 36.48 56.9692 36.6267 56.7692 36.76C56.3159 37.0667 55.7892 37.3 55.1892 37.46C54.5892 37.6067 54.0092 37.68 53.4492 37.68ZM62.5314 37.68C61.9447 37.68 61.3381 37.6133 60.7114 37.48C60.0981 37.3467 59.5314 37.12 59.0114 36.8C58.8381 36.68 58.7181 36.5467 58.6514 36.4C58.5847 36.2533 58.5581 36.1067 58.5714 35.96C58.5981 35.8 58.6581 35.6667 58.7514 35.56C58.8581 35.44 58.9847 35.3667 59.1314 35.34C59.2914 35.3133 59.4581 35.3467 59.6314 35.44C60.1514 35.7333 60.6514 35.94 61.1314 36.06C61.6114 36.1667 62.0847 36.22 62.5514 36.22C63.2581 36.22 63.7914 36.0933 64.1514 35.84C64.5114 35.5867 64.6914 35.2467 64.6914 34.82C64.6914 34.4733 64.5714 34.2067 64.3314 34.02C64.0914 33.82 63.7314 33.6667 63.2514 33.56L61.3514 33.18C60.5247 33.0067 59.8981 32.7 59.4714 32.26C59.0447 31.82 58.8314 31.26 58.8314 30.58C58.8314 29.9667 58.9981 29.4333 59.3314 28.98C59.6647 28.5267 60.1314 28.18 60.7314 27.94C61.3314 27.6867 62.0247 27.56 62.8114 27.56C63.3981 27.56 63.9514 27.6333 64.4714 27.78C64.9914 27.9267 65.4714 28.1467 65.9114 28.44C66.0847 28.5333 66.1981 28.66 66.2514 28.82C66.3047 28.9667 66.3114 29.1133 66.2714 29.26C66.2447 29.4067 66.1781 29.54 66.0714 29.66C65.9647 29.7667 65.8314 29.8333 65.6714 29.86C65.5247 29.8733 65.3581 29.8333 65.1714 29.74C64.7714 29.4867 64.3714 29.3067 63.9714 29.2C63.5847 29.0933 63.1981 29.04 62.8114 29.04C62.1047 29.04 61.5714 29.1733 61.2114 29.44C60.8647 29.6933 60.6914 30.04 60.6914 30.48C60.6914 30.8133 60.7981 31.0867 61.0114 31.3C61.2247 31.5133 61.5581 31.6667 62.0114 31.76L63.9114 32.14C64.7781 32.3133 65.4314 32.6067 65.8714 33.02C66.3247 33.4333 66.5514 33.9933 66.5514 34.7C66.5514 35.62 66.1847 36.3467 65.4514 36.88C64.7181 37.4133 63.7447 37.68 62.5314 37.68Z" fill="#201F1F"/>
<path d="M0 61H579.5" stroke="#CDCCCB"/>
<rect width="579.5" height="49" transform="translate(0 61.5)" fill="white"/>
<path d="M16.5781 87.7734L18.8281 87.5547C18.9635 88.3099 19.237 88.8646 19.6484 89.2188C20.0651 89.5729 20.625 89.75 21.3281 89.75C22.0729 89.75 22.6328 89.5938 23.0078 89.2812C23.388 88.9635 23.5781 88.5938 23.5781 88.1719C23.5781 87.901 23.4974 87.6719 23.3359 87.4844C23.1797 87.2917 22.9036 87.125 22.5078 86.9844C22.237 86.8906 21.6198 86.724 20.6562 86.4844C19.4167 86.1771 18.5469 85.7995 18.0469 85.3516C17.3438 84.7214 16.9922 83.9531 16.9922 83.0469C16.9922 82.4635 17.1562 81.9193 17.4844 81.4141C17.8177 80.9036 18.2943 80.5156 18.9141 80.25C19.5391 79.9844 20.2917 79.8516 21.1719 79.8516C22.6094 79.8516 23.6901 80.1667 24.4141 80.7969C25.1432 81.4271 25.526 82.2682 25.5625 83.3203L23.25 83.4219C23.151 82.8333 22.9375 82.4115 22.6094 82.1562C22.2865 81.8958 21.7995 81.7656 21.1484 81.7656C20.4766 81.7656 19.9505 81.9036 19.5703 82.1797C19.3255 82.3568 19.2031 82.5938 19.2031 82.8906C19.2031 83.1615 19.3177 83.3932 19.5469 83.5859C19.8385 83.8307 20.5469 84.0859 21.6719 84.3516C22.7969 84.6172 23.6276 84.8932 24.1641 85.1797C24.7057 85.4609 25.1276 85.849 25.4297 86.3438C25.737 86.8333 25.8906 87.4401 25.8906 88.1641C25.8906 88.8203 25.7083 89.4349 25.3438 90.0078C24.9792 90.5807 24.4635 91.0078 23.7969 91.2891C23.1302 91.5651 22.2995 91.7031 21.3047 91.7031C19.8568 91.7031 18.7448 91.3698 17.9688 90.7031C17.1927 90.0312 16.7292 89.0547 16.5781 87.7734ZM31.625 83.2031V84.9531H30.125V88.2969C30.125 88.974 30.138 89.3698 30.1641 89.4844C30.1953 89.5938 30.2604 89.6849 30.3594 89.7578C30.4635 89.8307 30.5885 89.8672 30.7344 89.8672C30.9375 89.8672 31.2318 89.7969 31.6172 89.6562L31.8047 91.3594C31.2943 91.5781 30.7161 91.6875 30.0703 91.6875C29.6745 91.6875 29.3177 91.6224 29 91.4922C28.6823 91.3568 28.4479 91.1849 28.2969 90.9766C28.151 90.763 28.0495 90.4766 27.9922 90.1172C27.9453 89.862 27.9219 89.3464 27.9219 88.5703V84.9531H26.9141V83.2031H27.9219V81.5547L30.125 80.2734V83.2031H31.625ZM34.7891 85.7344L32.7969 85.375C33.0208 84.5729 33.4062 83.9792 33.9531 83.5938C34.5 83.2083 35.3125 83.0156 36.3906 83.0156C37.3698 83.0156 38.099 83.1328 38.5781 83.3672C39.0573 83.5964 39.3932 83.8906 39.5859 84.25C39.7839 84.6042 39.8828 85.2578 39.8828 86.2109L39.8594 88.7734C39.8594 89.5026 39.8932 90.0417 39.9609 90.3906C40.0339 90.7344 40.1667 91.1042 40.3594 91.5H38.1875C38.1302 91.3542 38.0599 91.138 37.9766 90.8516C37.9401 90.7214 37.9141 90.6354 37.8984 90.5938C37.5234 90.9583 37.1224 91.2318 36.6953 91.4141C36.2682 91.5964 35.8125 91.6875 35.3281 91.6875C34.474 91.6875 33.7995 91.4557 33.3047 90.9922C32.8151 90.5286 32.5703 89.9427 32.5703 89.2344C32.5703 88.7656 32.6823 88.349 32.9062 87.9844C33.1302 87.6146 33.4427 87.3333 33.8438 87.1406C34.25 86.9427 34.8333 86.7708 35.5938 86.625C36.6198 86.4323 37.3307 86.2526 37.7266 86.0859V85.8672C37.7266 85.4453 37.6224 85.1458 37.4141 84.9688C37.2057 84.7865 36.8125 84.6953 36.2344 84.6953C35.8438 84.6953 35.5391 84.7734 35.3203 84.9297C35.1016 85.0807 34.9245 85.349 34.7891 85.7344ZM37.7266 87.5156C37.4453 87.6094 37 87.7214 36.3906 87.8516C35.7812 87.9818 35.3828 88.1094 35.1953 88.2344C34.9089 88.4375 34.7656 88.6953 34.7656 89.0078C34.7656 89.3151 34.8802 89.5807 35.1094 89.8047C35.3385 90.0286 35.6302 90.1406 35.9844 90.1406C36.3802 90.1406 36.7578 90.0104 37.1172 89.75C37.3828 89.5521 37.5573 89.3099 37.6406 89.0234C37.6979 88.8359 37.7266 88.4792 37.7266 87.9531V87.5156ZM45.8594 83.2031V84.9531H44.3594V88.2969C44.3594 88.974 44.3724 89.3698 44.3984 89.4844C44.4297 89.5938 44.4948 89.6849 44.5938 89.7578C44.6979 89.8307 44.8229 89.8672 44.9688 89.8672C45.1719 89.8672 45.4661 89.7969 45.8516 89.6562L46.0391 91.3594C45.5286 91.5781 44.9505 91.6875 44.3047 91.6875C43.9089 91.6875 43.5521 91.6224 43.2344 91.4922C42.9167 91.3568 42.6823 91.1849 42.5312 90.9766C42.3854 90.763 42.2839 90.4766 42.2266 90.1172C42.1797 89.862 42.1562 89.3464 42.1562 88.5703V84.9531H41.1484V83.2031H42.1562V81.5547L44.3594 80.2734V83.2031H45.8594ZM52.8438 91.5V90.2578C52.5417 90.7005 52.1432 91.0495 51.6484 91.3047C51.1589 91.5599 50.6406 91.6875 50.0938 91.6875C49.5365 91.6875 49.0365 91.5651 48.5938 91.3203C48.151 91.0755 47.8307 90.7318 47.6328 90.2891C47.4349 89.8464 47.3359 89.2344 47.3359 88.4531V83.2031H49.5312V87.0156C49.5312 88.1823 49.5703 88.8984 49.6484 89.1641C49.7318 89.4245 49.8802 89.6328 50.0938 89.7891C50.3073 89.9401 50.5781 90.0156 50.9062 90.0156C51.2812 90.0156 51.6172 89.9141 51.9141 89.7109C52.2109 89.5026 52.4141 89.2474 52.5234 88.9453C52.6328 88.638 52.6875 87.8906 52.6875 86.7031V83.2031H54.8828V91.5H52.8438ZM56.3906 89.1328L58.5938 88.7969C58.6875 89.224 58.8776 89.5495 59.1641 89.7734C59.4505 89.9922 59.8516 90.1016 60.3672 90.1016C60.9349 90.1016 61.362 89.9974 61.6484 89.7891C61.8411 89.6432 61.9375 89.4479 61.9375 89.2031C61.9375 89.0365 61.8854 88.8984 61.7812 88.7891C61.6719 88.6849 61.4271 88.5885 61.0469 88.5C59.276 88.1094 58.1536 87.7526 57.6797 87.4297C57.0234 86.9818 56.6953 86.3594 56.6953 85.5625C56.6953 84.8438 56.9792 84.2396 57.5469 83.75C58.1146 83.2604 58.9948 83.0156 60.1875 83.0156C61.3229 83.0156 62.1667 83.2005 62.7188 83.5703C63.2708 83.9401 63.651 84.487 63.8594 85.2109L61.7891 85.5938C61.7005 85.2708 61.5312 85.0234 61.2812 84.8516C61.0365 84.6797 60.6849 84.5938 60.2266 84.5938C59.6484 84.5938 59.2344 84.6745 58.9844 84.8359C58.8177 84.9505 58.7344 85.099 58.7344 85.2812C58.7344 85.4375 58.8073 85.5703 58.9531 85.6797C59.151 85.8255 59.8333 86.0312 61 86.2969C62.1719 86.5625 62.9896 86.888 63.4531 87.2734C63.9115 87.6641 64.1406 88.2083 64.1406 88.9062C64.1406 89.6667 63.8229 90.3203 63.1875 90.8672C62.5521 91.4141 61.612 91.6875 60.3672 91.6875C59.237 91.6875 58.3411 91.4583 57.6797 91C57.0234 90.5417 56.5938 89.9193 56.3906 89.1328Z" fill="#3E3E3D"/>
<g opacity="0.5">
<path d="M0 110H579.5" stroke="#CDCCCB"/>
</g>
<rect width="579.5" height="49" transform="translate(0 110.5)" fill="white"/>
<path d="M17.1562 129.047H21.3828C22.3359 129.047 23.0625 129.12 23.5625 129.266C24.2344 129.464 24.8099 129.815 25.2891 130.32C25.7682 130.826 26.1328 131.445 26.3828 132.18C26.6328 132.909 26.7578 133.81 26.7578 134.883C26.7578 135.826 26.6406 136.638 26.4062 137.32C26.1198 138.154 25.7109 138.828 25.1797 139.344C24.7786 139.734 24.237 140.039 23.5547 140.258C23.0443 140.419 22.362 140.5 21.5078 140.5H17.1562V129.047ZM19.4688 130.984V138.57H21.1953C21.8411 138.57 22.3073 138.534 22.5938 138.461C22.9688 138.367 23.2786 138.208 23.5234 137.984C23.7734 137.76 23.9766 137.393 24.1328 136.883C24.2891 136.367 24.3672 135.667 24.3672 134.781C24.3672 133.896 24.2891 133.216 24.1328 132.742C23.9766 132.268 23.7578 131.898 23.4766 131.633C23.1953 131.367 22.8385 131.188 22.4062 131.094C22.0833 131.021 21.4505 130.984 20.5078 130.984H19.4688ZM33.5156 137.859L35.7031 138.227C35.4219 139.029 34.9766 139.641 34.3672 140.062C33.763 140.479 33.0052 140.688 32.0938 140.688C30.651 140.688 29.5833 140.216 28.8906 139.273C28.3438 138.518 28.0703 137.565 28.0703 136.414C28.0703 135.039 28.4297 133.964 29.1484 133.188C29.8672 132.406 30.776 132.016 31.875 132.016C33.1094 132.016 34.0833 132.424 34.7969 133.242C35.5104 134.055 35.8516 135.302 35.8203 136.984H30.3203C30.3359 137.635 30.513 138.143 30.8516 138.508C31.1901 138.867 31.612 139.047 32.1172 139.047C32.4609 139.047 32.75 138.953 32.9844 138.766C33.2188 138.578 33.3958 138.276 33.5156 137.859ZM33.6406 135.641C33.625 135.005 33.4609 134.523 33.1484 134.195C32.8359 133.862 32.4557 133.695 32.0078 133.695C31.5286 133.695 31.1328 133.87 30.8203 134.219C30.5078 134.568 30.3542 135.042 30.3594 135.641H33.6406ZM44.8516 134.656L42.6875 135.047C42.6146 134.615 42.4479 134.289 42.1875 134.07C41.9323 133.852 41.599 133.742 41.1875 133.742C40.6406 133.742 40.2031 133.932 39.875 134.312C39.5521 134.688 39.3906 135.318 39.3906 136.203C39.3906 137.188 39.5547 137.883 39.8828 138.289C40.2161 138.695 40.6615 138.898 41.2188 138.898C41.6354 138.898 41.9766 138.781 42.2422 138.547C42.5078 138.307 42.6953 137.898 42.8047 137.32L44.9609 137.688C44.737 138.677 44.3073 139.424 43.6719 139.93C43.0365 140.435 42.1849 140.688 41.1172 140.688C39.9036 140.688 38.9349 140.305 38.2109 139.539C37.4922 138.773 37.1328 137.714 37.1328 136.359C37.1328 134.99 37.4948 133.924 38.2188 133.164C38.9427 132.398 39.9219 132.016 41.1562 132.016C42.1667 132.016 42.9688 132.234 43.5625 132.672C44.1615 133.104 44.5911 133.766 44.8516 134.656ZM46.0156 136.234C46.0156 135.505 46.1953 134.799 46.5547 134.117C46.9141 133.435 47.4219 132.914 48.0781 132.555C48.7396 132.195 49.4766 132.016 50.2891 132.016C51.5443 132.016 52.5729 132.424 53.375 133.242C54.1771 134.055 54.5781 135.083 54.5781 136.328C54.5781 137.583 54.1719 138.625 53.3594 139.453C52.5521 140.276 51.5339 140.688 50.3047 140.688C49.5443 140.688 48.8177 140.516 48.125 140.172C47.4375 139.828 46.9141 139.326 46.5547 138.664C46.1953 137.997 46.0156 137.188 46.0156 136.234ZM48.2656 136.352C48.2656 137.174 48.4609 137.805 48.8516 138.242C49.2422 138.68 49.724 138.898 50.2969 138.898C50.8698 138.898 51.349 138.68 51.7344 138.242C52.125 137.805 52.3203 137.169 52.3203 136.336C52.3203 135.523 52.125 134.898 51.7344 134.461C51.349 134.023 50.8698 133.805 50.2969 133.805C49.724 133.805 49.2422 134.023 48.8516 134.461C48.4609 134.898 48.2656 135.529 48.2656 136.352ZM58.4062 140.5H56.2109V132.203H58.25V133.383C58.599 132.826 58.9115 132.458 59.1875 132.281C59.4688 132.104 59.7865 132.016 60.1406 132.016C60.6406 132.016 61.1224 132.154 61.5859 132.43L60.9062 134.344C60.5365 134.104 60.1927 133.984 59.875 133.984C59.5677 133.984 59.3073 134.07 59.0938 134.242C58.8802 134.409 58.7109 134.714 58.5859 135.156C58.4661 135.599 58.4062 136.526 58.4062 137.938V140.5ZM64.1797 134.734L62.1875 134.375C62.4115 133.573 62.7969 132.979 63.3438 132.594C63.8906 132.208 64.7031 132.016 65.7812 132.016C66.7604 132.016 67.4896 132.133 67.9688 132.367C68.4479 132.596 68.7839 132.891 68.9766 133.25C69.1745 133.604 69.2734 134.258 69.2734 135.211L69.25 137.773C69.25 138.503 69.2839 139.042 69.3516 139.391C69.4245 139.734 69.5573 140.104 69.75 140.5H67.5781C67.5208 140.354 67.4505 140.138 67.3672 139.852C67.3307 139.721 67.3047 139.635 67.2891 139.594C66.9141 139.958 66.513 140.232 66.0859 140.414C65.6589 140.596 65.2031 140.688 64.7188 140.688C63.8646 140.688 63.1901 140.456 62.6953 139.992C62.2057 139.529 61.9609 138.943 61.9609 138.234C61.9609 137.766 62.0729 137.349 62.2969 136.984C62.5208 136.615 62.8333 136.333 63.2344 136.141C63.6406 135.943 64.224 135.771 64.9844 135.625C66.0104 135.432 66.7214 135.253 67.1172 135.086V134.867C67.1172 134.445 67.013 134.146 66.8047 133.969C66.5964 133.786 66.2031 133.695 65.625 133.695C65.2344 133.695 64.9297 133.773 64.7109 133.93C64.4922 134.081 64.3151 134.349 64.1797 134.734ZM67.1172 136.516C66.8359 136.609 66.3906 136.721 65.7812 136.852C65.1719 136.982 64.7734 137.109 64.5859 137.234C64.2995 137.438 64.1562 137.695 64.1562 138.008C64.1562 138.315 64.2708 138.581 64.5 138.805C64.7292 139.029 65.0208 139.141 65.375 139.141C65.7708 139.141 66.1484 139.01 66.5078 138.75C66.7734 138.552 66.9479 138.31 67.0312 138.023C67.0885 137.836 67.1172 137.479 67.1172 136.953V136.516ZM75.25 132.203V133.953H73.75V137.297C73.75 137.974 73.763 138.37 73.7891 138.484C73.8203 138.594 73.8854 138.685 73.9844 138.758C74.0885 138.831 74.2135 138.867 74.3594 138.867C74.5625 138.867 74.8568 138.797 75.2422 138.656L75.4297 140.359C74.9193 140.578 74.3411 140.688 73.6953 140.688C73.2995 140.688 72.9427 140.622 72.625 140.492C72.3073 140.357 72.0729 140.185 71.9219 139.977C71.776 139.763 71.6745 139.477 71.6172 139.117C71.5703 138.862 71.5469 138.346 71.5469 137.57V133.953H70.5391V132.203H71.5469V130.555L73.75 129.273V132.203H75.25ZM76.7734 131.078V129.047H78.9688V131.078H76.7734ZM76.7734 140.5V132.203H78.9688V140.5H76.7734ZM83.5078 140.5L80.1641 132.203H82.4688L84.0312 136.438L84.4844 137.852C84.6042 137.492 84.6797 137.255 84.7109 137.141C84.7839 136.906 84.862 136.672 84.9453 136.438L86.5234 132.203H88.7812L85.4844 140.5H83.5078ZM94.9375 137.859L97.125 138.227C96.8438 139.029 96.3984 139.641 95.7891 140.062C95.1849 140.479 94.4271 140.688 93.5156 140.688C92.0729 140.688 91.0052 140.216 90.3125 139.273C89.7656 138.518 89.4922 137.565 89.4922 136.414C89.4922 135.039 89.8516 133.964 90.5703 133.188C91.2891 132.406 92.1979 132.016 93.2969 132.016C94.5312 132.016 95.5052 132.424 96.2188 133.242C96.9323 134.055 97.2734 135.302 97.2422 136.984H91.7422C91.7578 137.635 91.9349 138.143 92.2734 138.508C92.612 138.867 93.0339 139.047 93.5391 139.047C93.8828 139.047 94.1719 138.953 94.4062 138.766C94.6406 138.578 94.8177 138.276 94.9375 137.859ZM95.0625 135.641C95.0469 135.005 94.8828 134.523 94.5703 134.195C94.2578 133.862 93.8776 133.695 93.4297 133.695C92.9505 133.695 92.5547 133.87 92.2422 134.219C91.9297 134.568 91.776 135.042 91.7812 135.641H95.0625Z" fill="#3E3E3D"/>
<g opacity="0.5">
<path d="M0 159H579.5" stroke="#CDCCCB"/>
</g>
<rect width="579.5" height="61" transform="translate(579.5)" fill="white"/>
<path d="M598.18 37.14C597.847 37.14 597.587 37.0467 597.4 36.86C597.227 36.6733 597.14 36.4133 597.14 36.08V23.96C597.14 23.6133 597.233 23.3533 597.42 23.18C597.607 22.9933 597.867 22.9 598.2 22.9H602.98C604.5 22.9 605.673 23.28 606.5 24.04C607.327 24.7867 607.74 25.84 607.74 27.2C607.74 28.5733 607.327 29.64 606.5 30.4C605.673 31.1467 604.5 31.52 602.98 31.52H599.22V36.08C599.22 36.4133 599.133 36.6733 598.96 36.86C598.787 37.0467 598.527 37.14 598.18 37.14ZM599.22 29.86H602.68C603.68 29.86 604.433 29.64 604.94 29.2C605.46 28.7467 605.72 28.08 605.72 27.2C605.72 26.3333 605.46 25.68 604.94 25.24C604.433 24.7867 603.68 24.56 602.68 24.56H599.22V29.86ZM612.595 37.18C611.809 37.18 611.149 37.0333 610.615 36.74C610.095 36.4467 609.702 36.0133 609.435 35.44C609.182 34.8533 609.055 34.12 609.055 33.24V28.12C609.055 27.7733 609.142 27.52 609.315 27.36C609.489 27.1867 609.735 27.1 610.055 27.1C610.375 27.1 610.622 27.1867 610.795 27.36C610.982 27.52 611.075 27.7733 611.075 28.12V33.26C611.075 34.0467 611.235 34.6267 611.555 35C611.875 35.3733 612.382 35.56 613.075 35.56C613.835 35.56 614.449 35.3067 614.915 34.8C615.395 34.28 615.635 33.6 615.635 32.76V28.12C615.635 27.7733 615.722 27.52 615.895 27.36C616.069 27.1867 616.322 27.1 616.655 27.1C616.975 27.1 617.222 27.1867 617.395 27.36C617.569 27.52 617.655 27.7733 617.655 28.12V36.12C617.655 36.8 617.329 37.14 616.675 37.14C616.369 37.14 616.129 37.0533 615.955 36.88C615.782 36.6933 615.695 36.44 615.695 36.12V34.42L615.955 34.86C615.689 35.6067 615.262 36.18 614.675 36.58C614.089 36.98 613.395 37.18 612.595 37.18ZM621.022 37.14C620.689 37.14 620.435 37.0533 620.262 36.88C620.089 36.6933 620.002 36.44 620.002 36.12V28.12C620.002 27.7867 620.089 27.5333 620.262 27.36C620.435 27.1867 620.675 27.1 620.982 27.1C621.302 27.1 621.542 27.1867 621.702 27.36C621.875 27.5333 621.962 27.7867 621.962 28.12V29.58H621.762C621.975 28.78 622.369 28.1733 622.942 27.76C623.515 27.3467 624.249 27.1067 625.142 27.04C625.382 27.0267 625.569 27.0867 625.702 27.22C625.849 27.3533 625.929 27.56 625.942 27.84C625.969 28.12 625.909 28.3467 625.762 28.52C625.615 28.68 625.389 28.7733 625.082 28.8L624.702 28.84C623.835 28.92 623.175 29.1933 622.722 29.66C622.269 30.1267 622.042 30.7667 622.042 31.58V36.12C622.042 36.44 621.955 36.6933 621.782 36.88C621.622 37.0533 621.369 37.14 621.022 37.14ZM627.963 40.74C627.643 40.74 627.396 40.6533 627.223 40.48C627.05 40.3067 626.963 40.0533 626.963 39.72V28.12C626.963 27.7867 627.05 27.5333 627.223 27.36C627.396 27.1867 627.636 27.1 627.943 27.1C628.263 27.1 628.51 27.1867 628.683 27.36C628.856 27.5333 628.943 27.7867 628.943 28.12V29.86L628.723 29.44C628.936 28.72 629.356 28.1467 629.983 27.72C630.61 27.28 631.35 27.06 632.203 27.06C633.07 27.06 633.823 27.2667 634.463 27.68C635.116 28.0933 635.616 28.6733 635.963 29.42C636.323 30.1667 636.503 31.0667 636.503 32.12C636.503 33.1467 636.323 34.0467 635.963 34.82C635.616 35.58 635.123 36.1667 634.483 36.58C633.843 36.98 633.083 37.18 632.203 37.18C631.363 37.18 630.63 36.9667 630.003 36.54C629.376 36.1133 628.956 35.5467 628.743 34.84H628.983V39.72C628.983 40.0533 628.89 40.3067 628.703 40.48C628.53 40.6533 628.283 40.74 627.963 40.74ZM631.703 35.62C632.263 35.62 632.75 35.4867 633.163 35.22C633.576 34.9533 633.896 34.56 634.123 34.04C634.35 33.52 634.463 32.88 634.463 32.12C634.463 30.9733 634.21 30.1067 633.703 29.52C633.21 28.9333 632.543 28.64 631.703 28.64C631.156 28.64 630.67 28.7733 630.243 29.04C629.83 29.2933 629.51 29.68 629.283 30.2C629.056 30.72 628.943 31.36 628.943 32.12C628.943 33.2533 629.196 34.12 629.703 34.72C630.21 35.32 630.876 35.62 631.703 35.62ZM642.519 37.18C641.533 37.18 640.679 36.9733 639.959 36.56C639.253 36.1467 638.699 35.56 638.299 34.8C637.899 34.04 637.699 33.1467 637.699 32.12C637.699 31.3333 637.813 30.6333 638.039 30.02C638.266 29.4067 638.586 28.88 638.999 28.44C639.426 27.9867 639.933 27.6467 640.519 27.42C641.119 27.18 641.786 27.06 642.519 27.06C643.493 27.06 644.333 27.2667 645.039 27.68C645.759 28.0933 646.319 28.68 646.719 29.44C647.119 30.1867 647.319 31.08 647.319 32.12C647.319 32.8933 647.206 33.5933 646.979 34.22C646.753 34.8467 646.426 35.38 645.999 35.82C645.586 36.26 645.079 36.6 644.479 36.84C643.893 37.0667 643.239 37.18 642.519 37.18ZM642.519 35.62C643.066 35.62 643.546 35.4867 643.959 35.22C644.373 34.9533 644.693 34.56 644.919 34.04C645.159 33.52 645.279 32.88 645.279 32.12C645.279 30.9733 645.026 30.1067 644.519 29.52C644.013 28.9333 643.346 28.64 642.519 28.64C641.959 28.64 641.473 28.7733 641.059 29.04C640.646 29.2933 640.319 29.68 640.079 30.2C639.853 30.72 639.739 31.36 639.739 32.12C639.739 33.2533 639.993 34.12 640.499 34.72C641.006 35.32 641.679 35.62 642.519 35.62ZM652.508 37.18C651.921 37.18 651.315 37.1133 650.688 36.98C650.075 36.8467 649.508 36.62 648.988 36.3C648.815 36.18 648.695 36.0467 648.628 35.9C648.561 35.7533 648.535 35.6067 648.548 35.46C648.575 35.3 648.635 35.1667 648.728 35.06C648.835 34.94 648.961 34.8667 649.108 34.84C649.268 34.8133 649.435 34.8467 649.608 34.94C650.128 35.2333 650.628 35.44 651.108 35.56C651.588 35.6667 652.061 35.72 652.528 35.72C653.235 35.72 653.768 35.5933 654.128 35.34C654.488 35.0867 654.668 34.7467 654.668 34.32C654.668 33.9733 654.548 33.7067 654.308 33.52C654.068 33.32 653.708 33.1667 653.228 33.06L651.328 32.68C650.501 32.5067 649.875 32.2 649.448 31.76C649.021 31.32 648.808 30.76 648.808 30.08C648.808 29.4667 648.975 28.9333 649.308 28.48C649.641 28.0267 650.108 27.68 650.708 27.44C651.308 27.1867 652.001 27.06 652.788 27.06C653.375 27.06 653.928 27.1333 654.448 27.28C654.968 27.4267 655.448 27.6467 655.888 27.94C656.061 28.0333 656.175 28.16 656.228 28.32C656.281 28.4667 656.288 28.6133 656.248 28.76C656.221 28.9067 656.155 29.04 656.048 29.16C655.941 29.2667 655.808 29.3333 655.648 29.36C655.501 29.3733 655.335 29.3333 655.148 29.24C654.748 28.9867 654.348 28.8067 653.948 28.7C653.561 28.5933 653.175 28.54 652.788 28.54C652.081 28.54 651.548 28.6733 651.188 28.94C650.841 29.1933 650.668 29.54 650.668 29.98C650.668 30.3133 650.775 30.5867 650.988 30.8C651.201 31.0133 651.535 31.1667 651.988 31.26L653.888 31.64C654.755 31.8133 655.408 32.1067 655.848 32.52C656.301 32.9333 656.528 33.4933 656.528 34.2C656.528 35.12 656.161 35.8467 655.428 36.38C654.695 36.9133 653.721 37.18 652.508 37.18ZM662.855 37.18C661.789 37.18 660.869 36.98 660.095 36.58C659.335 36.1667 658.742 35.5867 658.315 34.84C657.902 34.08 657.695 33.18 657.695 32.14C657.695 31.1267 657.902 30.24 658.315 29.48C658.729 28.72 659.295 28.1267 660.015 27.7C660.735 27.2733 661.555 27.06 662.475 27.06C663.155 27.06 663.762 27.1733 664.295 27.4C664.829 27.6133 665.282 27.9333 665.655 28.36C666.042 28.7733 666.329 29.28 666.515 29.88C666.715 30.48 666.815 31.1533 666.815 31.9C666.815 32.1267 666.749 32.3 666.615 32.42C666.482 32.5267 666.282 32.58 666.015 32.58H659.295V31.34H665.455L665.115 31.62C665.115 30.9533 665.015 30.3867 664.815 29.92C664.629 29.4533 664.342 29.1 663.955 28.86C663.582 28.6067 663.115 28.48 662.555 28.48C661.929 28.48 661.395 28.6267 660.955 28.92C660.529 29.2133 660.202 29.62 659.975 30.14C659.749 30.66 659.635 31.2667 659.635 31.96V32.08C659.635 33.2533 659.909 34.14 660.455 34.74C661.015 35.3267 661.822 35.62 662.875 35.62C663.275 35.62 663.695 35.5667 664.135 35.46C664.589 35.3533 665.015 35.1733 665.415 34.92C665.642 34.7867 665.842 34.7267 666.015 34.74C666.202 34.7533 666.349 34.8133 666.455 34.92C666.575 35.0267 666.649 35.16 666.675 35.32C666.702 35.48 666.675 35.6467 666.595 35.82C666.515 35.98 666.375 36.1267 666.175 36.26C665.722 36.5667 665.195 36.8 664.595 36.96C663.995 37.1067 663.415 37.18 662.855 37.18Z" fill="#201F1F"/>
<path d="M579.5 60.5H1159" stroke="#CDCCCB"/>
<rect width="579.5" height="49" transform="translate(579.5 61)" fill="white"/>
<g opacity="0.5">
<path d="M579.5 109.5H1159" stroke="#CDCCCB"/>
</g>
<rect width="579.5" height="49" transform="translate(579.5 110)" fill="white"/>
<g opacity="0.5">
<path d="M579.5 158.5H1159" stroke="#CDCCCB"/>
</g>
<rect width="579.5" height="1" transform="translate(579.5 159)" fill="white"/>
<g opacity="0.5">
<path d="M579.5 159.5H1159" stroke="#CDCCCB"/>
</g>
</g>
<rect x="0.5" y="0.5" width="1158" height="159" rx="7.5" stroke="#CDCCCB"/>
<defs>
<clipPath id="clip0_228_25646">
<rect width="1159" height="160" rx="8" fill="white"/>
</clipPath>
</defs>
</svg>
