<svg viewBox="0 0 20 20" fill="none" xmlns="http://www.w3.org/2000/svg">
<path d="M9.99984 18.3334C8.84706 18.3334 7.76373 18.1146 6.74984 17.6771C5.73595 17.2396 4.854 16.6459 4.104 15.8959C3.354 15.1459 2.76025 14.2639 2.32275 13.25C1.88525 12.2361 1.6665 11.1528 1.6665 10C1.6665 9.16669 1.78456 8.3646 2.02067 7.59377C2.25678 6.82294 2.59706 6.09724 3.0415 5.41669L1.729 4.10419C1.56234 3.93752 1.479 3.7396 1.479 3.51044C1.479 3.28127 1.56234 3.08335 1.729 2.91669C1.89567 2.75002 2.09359 2.66669 2.32275 2.66669C2.55192 2.66669 2.74984 2.75002 2.9165 2.91669L17.0832 17.0834C17.2498 17.25 17.3332 17.4445 17.3332 17.6667C17.3332 17.8889 17.2498 18.0834 17.0832 18.25C16.9165 18.4167 16.7186 18.5 16.4894 18.5C16.2603 18.5 16.0623 18.4167 15.8957 18.25L14.5832 16.9584C13.9026 17.4028 13.1769 17.7431 12.4061 17.9792C11.6353 18.2153 10.8332 18.3334 9.99984 18.3334ZM6.979 13.5417L9.56234 12.8125C9.71512 12.7709 9.80887 12.6702 9.84359 12.5104C9.87831 12.3507 9.84012 12.2153 9.729 12.1042L7.89567 10.2709C7.78456 10.1597 7.64914 10.1215 7.48942 10.1563C7.3297 10.191 7.229 10.2847 7.18734 10.4375L6.45817 13.0209C6.4165 13.1736 6.4547 13.309 6.57275 13.4271C6.69081 13.5452 6.82623 13.5834 6.979 13.5417ZM16.729 13.9167C16.5901 13.9167 16.4582 13.8924 16.3332 13.8438C16.2082 13.7952 16.0901 13.7153 15.979 13.6042L12.9582 10.5834C12.8471 10.4722 12.7741 10.3472 12.7394 10.2084C12.7047 10.0695 12.7082 9.92363 12.7498 9.77085L13.5415 6.97919C13.5832 6.82641 13.545 6.69099 13.4269 6.57294C13.3089 6.45488 13.1734 6.41669 13.0207 6.45835L10.229 7.25002C10.0762 7.29169 9.93039 7.29516 9.7915 7.26044C9.65262 7.22572 9.52762 7.1528 9.4165 7.04169L6.39567 4.02085C6.28456 3.90974 6.2047 3.79516 6.15609 3.6771C6.10748 3.55905 6.08317 3.43058 6.08317 3.29169C6.08317 3.09724 6.13178 2.92016 6.229 2.76044C6.32623 2.60071 6.46512 2.47224 6.64567 2.37502C7.17345 2.13891 7.71859 1.96183 8.28109 1.84377C8.84359 1.72571 9.4165 1.66669 9.99984 1.66669C11.1526 1.66669 12.2359 1.88544 13.2498 2.32294C14.2637 2.76044 15.1457 3.35419 15.8957 4.10419C16.6457 4.85419 17.2394 5.73613 17.6769 6.75002C18.1144 7.76391 18.3332 8.84724 18.3332 10C18.3332 10.5834 18.2741 11.1563 18.1561 11.7188C18.038 12.2813 17.861 12.8264 17.6248 13.3542C17.5415 13.5486 17.42 13.691 17.2603 13.7813C17.1005 13.8715 16.9235 13.9167 16.729 13.9167Z" fill="currentColor"/>
</svg>