<svg width="712" height="88" viewBox="0 0 712 88" fill="none" xmlns="http://www.w3.org/2000/svg">
<rect x="0.5" y="0.5" width="711" height="87" rx="7.5" fill="white"/>
<rect x="0.5" y="0.5" width="711" height="87" rx="7.5" stroke="#CDCCCB"/>
<path d="M32 36C32 33.7909 33.7909 32 36 32H129C131.209 32 133 33.7909 133 36V52C133 54.2091 131.209 56 129 56H36C33.7909 56 32 54.2091 32 52V36Z" fill="#E1E1E0"/>
<path d="M39.3311 49V42.5811H37.2939V41.6035H39.3311V41.084C39.3311 40.61 39.3994 40.1953 39.5361 39.8398C39.6774 39.4798 39.8757 39.179 40.1309 38.9375C40.3815 38.696 40.6846 38.5137 41.04 38.3906C41.3955 38.2676 41.792 38.2061 42.2295 38.2061C42.4118 38.2061 42.5918 38.2174 42.7695 38.2402C42.9473 38.2585 43.1227 38.2835 43.2959 38.3154C43.4098 38.3382 43.5238 38.3633 43.6377 38.3906C43.7516 38.4134 43.8678 38.4408 43.9863 38.4727L43.8359 39.5186C43.6491 39.4548 43.4303 39.4001 43.1797 39.3545C42.9336 39.3044 42.6693 39.2793 42.3867 39.2793C42.0996 39.2793 41.8444 39.3158 41.6211 39.3887C41.4023 39.457 41.2201 39.5618 41.0742 39.7031C40.9193 39.849 40.8008 40.0381 40.7188 40.2705C40.6413 40.5029 40.6025 40.7741 40.6025 41.084V41.6035H43.4531V42.5811H40.6025V49H39.3311ZM45.4971 45.2334C45.4971 44.7002 45.5745 44.2057 45.7295 43.75C45.8844 43.2897 46.1077 42.891 46.3994 42.5537C46.6865 42.2165 47.0374 41.9521 47.4521 41.7607C47.8669 41.5648 48.334 41.4668 48.8535 41.4668C49.3776 41.4668 49.847 41.5648 50.2617 41.7607C50.681 41.9521 51.0365 42.2165 51.3281 42.5537C51.6152 42.891 51.8363 43.2897 51.9912 43.75C52.1462 44.2057 52.2236 44.7002 52.2236 45.2334V45.3838C52.2236 45.917 52.1462 46.4115 51.9912 46.8672C51.8363 47.3229 51.6152 47.7194 51.3281 48.0566C51.0365 48.3939 50.6833 48.6582 50.2686 48.8496C49.8538 49.041 49.3867 49.1367 48.8672 49.1367C48.3431 49.1367 47.8714 49.041 47.4521 48.8496C47.0374 48.6582 46.6865 48.3939 46.3994 48.0566C46.1077 47.7194 45.8844 47.3229 45.7295 46.8672C45.5745 46.4115 45.4971 45.917 45.4971 45.3838V45.2334ZM46.7617 45.3838C46.7617 45.7484 46.805 46.097 46.8916 46.4297C46.9782 46.7578 47.1104 47.0472 47.2881 47.2979C47.4613 47.5485 47.68 47.7467 47.9443 47.8926C48.2087 48.0384 48.5163 48.1113 48.8672 48.1113C49.2135 48.1113 49.5166 48.0384 49.7764 47.8926C50.0407 47.7467 50.2617 47.5485 50.4395 47.2979C50.6126 47.0472 50.7425 46.7578 50.8291 46.4297C50.9157 46.097 50.959 45.7484 50.959 45.3838V45.2334C50.959 44.8734 50.9134 44.5293 50.8223 44.2012C50.7357 43.8685 50.6058 43.5768 50.4326 43.3262C50.2549 43.0755 50.0339 42.8773 49.7695 42.7314C49.5098 42.5811 49.2044 42.5059 48.8535 42.5059C48.5026 42.5059 48.1973 42.5811 47.9375 42.7314C47.6777 42.8773 47.4613 43.0755 47.2881 43.3262C47.1104 43.5768 46.9782 43.8685 46.8916 44.2012C46.805 44.5293 46.7617 44.8734 46.7617 45.2334V45.3838ZM54.2607 49V41.6035H55.3955L55.4844 42.6973C55.5938 42.5423 55.7122 42.401 55.8398 42.2734C55.972 42.1413 56.111 42.0273 56.2568 41.9316C56.4756 41.7858 56.7126 41.6742 56.9678 41.5967C57.2275 41.5146 57.501 41.4714 57.7881 41.4668C58.1755 41.4668 58.5264 41.5215 58.8408 41.6309C59.1598 41.7402 59.431 41.9111 59.6543 42.1436C59.8776 42.376 60.0485 42.6722 60.167 43.0322C60.29 43.3877 60.3516 43.8115 60.3516 44.3037V49H59.0869V44.3311C59.0869 44.0029 59.0505 43.7249 58.9775 43.4971C58.9046 43.2692 58.7975 43.0846 58.6562 42.9434C58.5104 42.8021 58.3327 42.6995 58.123 42.6357C57.918 42.5719 57.681 42.54 57.4121 42.54C57.1797 42.54 56.9632 42.5742 56.7627 42.6426C56.5622 42.7064 56.3776 42.7952 56.209 42.9092C56.0723 43.0094 55.9447 43.1257 55.8262 43.2578C55.7122 43.39 55.612 43.5358 55.5254 43.6953V49H54.2607ZM65.6631 39.8125V41.6035H68.4795V42.5811H65.6631V46.6006C65.6631 46.8877 65.6995 47.1247 65.7725 47.3115C65.8454 47.4984 65.9456 47.6465 66.0732 47.7559C66.2008 47.8698 66.3467 47.9495 66.5107 47.9951C66.6794 48.0407 66.8571 48.0635 67.0439 48.0635C67.1807 48.0635 67.3219 48.0566 67.4678 48.043C67.6136 48.0247 67.7572 48.0042 67.8984 47.9814C68.0352 47.9587 68.1628 47.9359 68.2812 47.9131C68.4043 47.8857 68.5046 47.863 68.582 47.8447L68.7598 48.7402C68.6549 48.804 68.5273 48.861 68.377 48.9111C68.2266 48.9567 68.0625 48.9954 67.8848 49.0273C67.707 49.0638 67.5179 49.0911 67.3174 49.1094C67.1214 49.1276 66.9255 49.1367 66.7295 49.1367C66.4014 49.1367 66.0938 49.0911 65.8066 49C65.5241 48.9043 65.278 48.7539 65.0684 48.5488C64.8587 48.3483 64.6924 48.0885 64.5693 47.7695C64.4508 47.446 64.3916 47.0563 64.3916 46.6006V42.5811H62.4502V41.6035H64.3916V39.8125H65.6631ZM77.2158 50.0322H70.9473V49H77.2158V50.0322ZM81.3721 49V42.5811H79.335V41.6035H81.3721V41.084C81.3721 40.61 81.4404 40.1953 81.5771 39.8398C81.7184 39.4798 81.9167 39.179 82.1719 38.9375C82.4225 38.696 82.7256 38.5137 83.0811 38.3906C83.4365 38.2676 83.833 38.2061 84.2705 38.2061C84.4528 38.2061 84.6328 38.2174 84.8105 38.2402C84.9883 38.2585 85.1637 38.2835 85.3369 38.3154C85.4508 38.3382 85.5648 38.3633 85.6787 38.3906C85.7926 38.4134 85.9089 38.4408 86.0273 38.4727L85.877 39.5186C85.6901 39.4548 85.4714 39.4001 85.2207 39.3545C84.9746 39.3044 84.7103 39.2793 84.4277 39.2793C84.1406 39.2793 83.8854 39.3158 83.6621 39.3887C83.4434 39.457 83.2611 39.5618 83.1152 39.7031C82.9603 39.849 82.8418 40.0381 82.7598 40.2705C82.6823 40.5029 82.6436 40.7741 82.6436 41.084V41.6035H85.4941V42.5811H82.6436V49H81.3721ZM92.7539 49C92.7038 48.9043 92.6628 48.7858 92.6309 48.6445C92.6035 48.4987 92.583 48.3483 92.5693 48.1934C92.4417 48.321 92.2982 48.4417 92.1387 48.5557C91.9837 48.6696 91.8128 48.7699 91.626 48.8564C91.4346 48.943 91.2318 49.0114 91.0176 49.0615C90.8034 49.1117 90.5755 49.1367 90.334 49.1367C89.9421 49.1367 89.5866 49.0798 89.2676 48.9658C88.9531 48.8519 88.6865 48.6969 88.4678 48.501C88.2445 48.3096 88.0713 48.0817 87.9482 47.8174C87.8298 47.5485 87.7705 47.2591 87.7705 46.9492C87.7705 46.5436 87.8503 46.1882 88.0098 45.8828C88.1738 45.5775 88.404 45.3223 88.7002 45.1172C88.9964 44.9167 89.3519 44.7663 89.7666 44.666C90.1859 44.5658 90.653 44.5156 91.168 44.5156H92.5488V43.9346C92.5488 43.7113 92.5078 43.5107 92.4258 43.333C92.3438 43.1553 92.2275 43.0026 92.0771 42.875C91.9268 42.752 91.7422 42.6562 91.5234 42.5879C91.3092 42.5195 91.0677 42.4854 90.7988 42.4854C90.5482 42.4854 90.3226 42.5173 90.1221 42.5811C89.9261 42.6449 89.7598 42.7292 89.623 42.834C89.4863 42.9388 89.3792 43.0641 89.3018 43.21C89.2288 43.3512 89.1924 43.4993 89.1924 43.6543H87.9209C87.9255 43.3854 87.9938 43.1211 88.126 42.8613C88.2627 42.6016 88.4587 42.3669 88.7139 42.1572C88.9645 41.9521 89.2699 41.7858 89.6299 41.6582C89.9945 41.5306 90.4069 41.4668 90.8672 41.4668C91.2865 41.4668 91.6761 41.5192 92.0361 41.624C92.3962 41.7243 92.7083 41.877 92.9727 42.082C93.2324 42.2917 93.4375 42.5514 93.5879 42.8613C93.7383 43.1712 93.8135 43.5335 93.8135 43.9482V47.3867C93.8135 47.6328 93.8363 47.8949 93.8818 48.1729C93.9274 48.4463 93.9912 48.6855 94.0732 48.8906V49H92.7539ZM90.5186 48.0361C90.7646 48.0361 90.9948 48.0042 91.209 47.9404C91.4232 47.8766 91.6191 47.7923 91.7969 47.6875C91.9701 47.5827 92.1204 47.4642 92.248 47.332C92.3757 47.1953 92.4759 47.054 92.5488 46.9082V45.4111H91.373C90.9355 45.4111 90.5527 45.4499 90.2246 45.5273C89.901 45.6003 89.6436 45.7142 89.4521 45.8691C89.3154 45.9785 89.2106 46.1084 89.1377 46.2588C89.0693 46.4092 89.0352 46.5801 89.0352 46.7715C89.0352 46.9538 89.0648 47.1224 89.124 47.2773C89.1878 47.4323 89.2812 47.5645 89.4043 47.6738C89.5273 47.7878 89.6823 47.8766 89.8691 47.9404C90.056 48.0042 90.2725 48.0361 90.5186 48.0361ZM96.8828 41.6035L96.917 42.3008C97.0674 42.041 97.2633 41.8382 97.5049 41.6924C97.751 41.5465 98.0472 41.4714 98.3936 41.4668C98.5895 41.4668 98.765 41.4896 98.9199 41.5352C99.0794 41.5762 99.2184 41.6377 99.3369 41.7197C99.4235 41.7835 99.501 41.861 99.5693 41.9521C99.6423 42.0433 99.7038 42.1458 99.7539 42.2598C99.8177 42.1549 99.8929 42.057 99.9795 41.9658C100.066 41.8747 100.16 41.7949 100.26 41.7266C100.387 41.6491 100.529 41.5876 100.684 41.542C100.843 41.4964 101.016 41.4714 101.203 41.4668C101.458 41.4668 101.688 41.5055 101.894 41.583C102.099 41.6559 102.272 41.7653 102.413 41.9111C102.568 42.0752 102.687 42.2894 102.769 42.5537C102.851 42.8135 102.892 43.1211 102.892 43.4766V49H101.688V43.4629C101.688 43.3079 101.67 43.1712 101.634 43.0527C101.597 42.9342 101.545 42.8363 101.477 42.7588C101.404 42.6859 101.312 42.6312 101.203 42.5947C101.098 42.5583 100.975 42.54 100.834 42.54C100.684 42.54 100.554 42.5605 100.444 42.6016C100.335 42.6426 100.244 42.6973 100.171 42.7656C100.098 42.8385 100.041 42.9229 100 43.0186C99.959 43.1097 99.9316 43.2122 99.918 43.3262C99.918 43.349 99.918 43.3717 99.918 43.3945C99.918 43.4128 99.918 43.4355 99.918 43.4629V49H98.7148V43.4561C98.7148 43.3011 98.6966 43.1644 98.6602 43.0459C98.6283 42.9274 98.5758 42.8294 98.5029 42.752C98.4346 42.679 98.348 42.6266 98.2432 42.5947C98.1429 42.5583 98.0244 42.54 97.8877 42.54C97.7373 42.54 97.6051 42.5583 97.4912 42.5947C97.3818 42.6266 97.2884 42.6745 97.2109 42.7383C97.1517 42.7884 97.0993 42.8454 97.0537 42.9092C97.0127 42.973 96.9785 43.0413 96.9512 43.1143V49H95.748V41.6035H96.8828ZM104.908 41.6035H108.688V47.9062H111.102V49H104.908V47.9062H107.424V42.7041H104.908V41.6035ZM107.26 39.6621C107.26 39.5527 107.276 39.4502 107.308 39.3545C107.344 39.2588 107.399 39.1768 107.472 39.1084C107.531 39.0492 107.606 39.0036 107.697 38.9717C107.793 38.9352 107.9 38.917 108.019 38.917C108.137 38.917 108.242 38.9352 108.333 38.9717C108.424 39.0036 108.499 39.0492 108.559 39.1084C108.632 39.1722 108.686 39.252 108.723 39.3477C108.759 39.4434 108.777 39.5482 108.777 39.6621C108.777 39.8672 108.714 40.0381 108.586 40.1748C108.458 40.3115 108.269 40.3799 108.019 40.3799C107.763 40.3799 107.572 40.3115 107.444 40.1748C107.321 40.0381 107.26 39.8672 107.26 39.6621ZM113.316 38.5H117.097V47.9062H119.51V49H113.316V47.9062H115.832V39.6006H113.316V38.5ZM122.121 51.9873C122.003 51.9873 121.864 51.9736 121.704 51.9463C121.545 51.9189 121.424 51.8962 121.342 51.8779L121.547 50.8457C121.661 50.8548 121.772 50.8617 121.882 50.8662C121.996 50.8753 122.085 50.8799 122.148 50.8799C122.322 50.8799 122.479 50.832 122.62 50.7363C122.766 50.6406 122.896 50.5267 123.01 50.3945C123.119 50.2624 123.213 50.1257 123.29 49.9844C123.372 49.8431 123.436 49.7269 123.481 49.6357L123.987 48.6514L120.802 41.6035H122.217L124.247 46.375L124.575 47.2705L124.924 46.4023L126.831 41.6035H128.246L124.493 50.1416C124.407 50.333 124.295 50.5358 124.158 50.75C124.026 50.9642 123.864 51.1624 123.673 51.3447C123.481 51.527 123.258 51.6797 123.003 51.8027C122.748 51.9258 122.454 51.9873 122.121 51.9873Z" fill="#201F1F"/>
<path d="M166.75 36C166.75 33.7909 168.541 32 170.75 32H263.75C265.959 32 267.75 33.7909 267.75 36V52C267.75 54.2091 265.959 56 263.75 56H170.75C168.541 56 166.75 54.2091 166.75 52V36Z" fill="#E1E1E0"/>
<path d="M174.081 49V42.5811H172.044V41.6035H174.081V41.084C174.081 40.61 174.149 40.1953 174.286 39.8398C174.427 39.4798 174.626 39.179 174.881 38.9375C175.132 38.696 175.435 38.5137 175.79 38.3906C176.146 38.2676 176.542 38.2061 176.979 38.2061C177.162 38.2061 177.342 38.2174 177.52 38.2402C177.697 38.2585 177.873 38.2835 178.046 38.3154C178.16 38.3382 178.274 38.3633 178.388 38.3906C178.502 38.4134 178.618 38.4408 178.736 38.4727L178.586 39.5186C178.399 39.4548 178.18 39.4001 177.93 39.3545C177.684 39.3044 177.419 39.2793 177.137 39.2793C176.85 39.2793 176.594 39.3158 176.371 39.3887C176.152 39.457 175.97 39.5618 175.824 39.7031C175.669 39.849 175.551 40.0381 175.469 40.2705C175.391 40.5029 175.353 40.7741 175.353 41.084V41.6035H178.203V42.5811H175.353V49H174.081ZM180.247 45.2334C180.247 44.7002 180.325 44.2057 180.479 43.75C180.634 43.2897 180.858 42.891 181.149 42.5537C181.437 42.2165 181.787 41.9521 182.202 41.7607C182.617 41.5648 183.084 41.4668 183.604 41.4668C184.128 41.4668 184.597 41.5648 185.012 41.7607C185.431 41.9521 185.786 42.2165 186.078 42.5537C186.365 42.891 186.586 43.2897 186.741 43.75C186.896 44.2057 186.974 44.7002 186.974 45.2334V45.3838C186.974 45.917 186.896 46.4115 186.741 46.8672C186.586 47.3229 186.365 47.7194 186.078 48.0566C185.786 48.3939 185.433 48.6582 185.019 48.8496C184.604 49.041 184.137 49.1367 183.617 49.1367C183.093 49.1367 182.621 49.041 182.202 48.8496C181.787 48.6582 181.437 48.3939 181.149 48.0566C180.858 47.7194 180.634 47.3229 180.479 46.8672C180.325 46.4115 180.247 45.917 180.247 45.3838V45.2334ZM181.512 45.3838C181.512 45.7484 181.555 46.097 181.642 46.4297C181.728 46.7578 181.86 47.0472 182.038 47.2979C182.211 47.5485 182.43 47.7467 182.694 47.8926C182.959 48.0384 183.266 48.1113 183.617 48.1113C183.964 48.1113 184.267 48.0384 184.526 47.8926C184.791 47.7467 185.012 47.5485 185.189 47.2979C185.363 47.0472 185.493 46.7578 185.579 46.4297C185.666 46.097 185.709 45.7484 185.709 45.3838V45.2334C185.709 44.8734 185.663 44.5293 185.572 44.2012C185.486 43.8685 185.356 43.5768 185.183 43.3262C185.005 43.0755 184.784 42.8773 184.52 42.7314C184.26 42.5811 183.954 42.5059 183.604 42.5059C183.253 42.5059 182.947 42.5811 182.688 42.7314C182.428 42.8773 182.211 43.0755 182.038 43.3262C181.86 43.5768 181.728 43.8685 181.642 44.2012C181.555 44.5293 181.512 44.8734 181.512 45.2334V45.3838ZM189.011 49V41.6035H190.146L190.234 42.6973C190.344 42.5423 190.462 42.401 190.59 42.2734C190.722 42.1413 190.861 42.0273 191.007 41.9316C191.226 41.7858 191.463 41.6742 191.718 41.5967C191.978 41.5146 192.251 41.4714 192.538 41.4668C192.925 41.4668 193.276 41.5215 193.591 41.6309C193.91 41.7402 194.181 41.9111 194.404 42.1436C194.628 42.376 194.799 42.6722 194.917 43.0322C195.04 43.3877 195.102 43.8115 195.102 44.3037V49H193.837V44.3311C193.837 44.0029 193.8 43.7249 193.728 43.4971C193.655 43.2692 193.548 43.0846 193.406 42.9434C193.26 42.8021 193.083 42.6995 192.873 42.6357C192.668 42.5719 192.431 42.54 192.162 42.54C191.93 42.54 191.713 42.5742 191.513 42.6426C191.312 42.7064 191.128 42.7952 190.959 42.9092C190.822 43.0094 190.695 43.1257 190.576 43.2578C190.462 43.39 190.362 43.5358 190.275 43.6953V49H189.011ZM200.413 39.8125V41.6035H203.229V42.5811H200.413V46.6006C200.413 46.8877 200.45 47.1247 200.522 47.3115C200.595 47.4984 200.696 47.6465 200.823 47.7559C200.951 47.8698 201.097 47.9495 201.261 47.9951C201.429 48.0407 201.607 48.0635 201.794 48.0635C201.931 48.0635 202.072 48.0566 202.218 48.043C202.364 48.0247 202.507 48.0042 202.648 47.9814C202.785 47.9587 202.913 47.9359 203.031 47.9131C203.154 47.8857 203.255 47.863 203.332 47.8447L203.51 48.7402C203.405 48.804 203.277 48.861 203.127 48.9111C202.977 48.9567 202.812 48.9954 202.635 49.0273C202.457 49.0638 202.268 49.0911 202.067 49.1094C201.871 49.1276 201.675 49.1367 201.479 49.1367C201.151 49.1367 200.844 49.0911 200.557 49C200.274 48.9043 200.028 48.7539 199.818 48.5488C199.609 48.3483 199.442 48.0885 199.319 47.7695C199.201 47.446 199.142 47.0563 199.142 46.6006V42.5811H197.2V41.6035H199.142V39.8125H200.413ZM211.966 50.0322H205.697V49H211.966V50.0322ZM214.946 49L213.374 41.6035H214.495L215.356 46.3203L215.507 47.3799L215.691 46.3203L216.874 41.6035H217.688L218.863 46.3203L219.062 47.4824L219.246 46.3203L220.066 41.6035H221.188L219.615 49H218.617L217.462 44.4678L217.271 43.3193L217.086 44.4678L215.944 49H214.946ZM225.911 49.1367C225.392 49.1367 224.913 49.0479 224.476 48.8701C224.043 48.6924 223.671 48.444 223.361 48.125C223.051 47.806 222.81 47.4277 222.637 46.9902C222.464 46.5527 222.377 46.0765 222.377 45.5615V45.2744C222.377 44.6774 222.473 44.1442 222.664 43.6748C222.855 43.2008 223.111 42.7998 223.43 42.4717C223.744 42.1481 224.102 41.8997 224.503 41.7266C224.909 41.5534 225.323 41.4668 225.747 41.4668C226.28 41.4668 226.745 41.5602 227.142 41.7471C227.543 41.9294 227.875 42.1823 228.14 42.5059C228.404 42.834 228.6 43.2191 228.728 43.6611C228.86 44.1032 228.926 44.5817 228.926 45.0967V45.6641H223.642V45.7119C223.674 46.0719 223.744 46.3887 223.854 46.6621C223.967 46.9355 224.122 47.1771 224.318 47.3867C224.519 47.61 224.76 47.7855 225.043 47.9131C225.326 48.0407 225.638 48.1045 225.979 48.1045C226.431 48.1045 226.832 48.0133 227.183 47.8311C227.534 47.6488 227.825 47.4072 228.058 47.1064L228.83 47.708C228.584 48.0817 228.215 48.4144 227.723 48.7061C227.235 48.9932 226.631 49.1367 225.911 49.1367ZM225.747 42.5059C225.492 42.5059 225.25 42.5537 225.022 42.6494C224.795 42.7406 224.59 42.875 224.407 43.0527C224.225 43.235 224.07 43.4583 223.942 43.7227C223.819 43.9824 223.733 44.2832 223.683 44.625H227.661V44.5635C227.661 44.3356 227.618 44.0918 227.531 43.832C227.445 43.5677 227.324 43.3398 227.169 43.1484C227.014 42.957 226.818 42.8021 226.581 42.6836C226.349 42.5651 226.071 42.5059 225.747 42.5059ZM231.25 41.6035H235.03V47.9062H237.443V49H231.25V47.9062H233.766V42.7041H231.25V41.6035ZM233.602 39.6621C233.602 39.5527 233.618 39.4502 233.649 39.3545C233.686 39.2588 233.741 39.1768 233.813 39.1084C233.873 39.0492 233.948 39.0036 234.039 38.9717C234.135 38.9352 234.242 38.917 234.36 38.917C234.479 38.917 234.584 38.9352 234.675 38.9717C234.766 39.0036 234.841 39.0492 234.9 39.1084C234.973 39.1722 235.028 39.252 235.064 39.3477C235.101 39.4434 235.119 39.5482 235.119 39.6621C235.119 39.8672 235.055 40.0381 234.928 40.1748C234.8 40.3115 234.611 40.3799 234.36 40.3799C234.105 40.3799 233.914 40.3115 233.786 40.1748C233.663 40.0381 233.602 39.8672 233.602 39.6621ZM239.228 45.2402C239.228 44.6888 239.294 44.1829 239.426 43.7227C239.562 43.2578 239.758 42.859 240.014 42.5264C240.269 42.1937 240.579 41.9339 240.943 41.7471C241.308 41.5602 241.72 41.4668 242.181 41.4668C242.477 41.4668 242.748 41.501 242.994 41.5693C243.245 41.6377 243.47 41.738 243.671 41.8701C243.78 41.9385 243.883 42.0182 243.979 42.1094C244.079 42.2005 244.172 42.3008 244.259 42.4102L244.32 41.6035H245.469V48.8428C245.469 49.3304 245.391 49.7633 245.236 50.1416C245.086 50.5199 244.874 50.8411 244.601 51.1055C244.323 51.3698 243.992 51.5703 243.609 51.707C243.227 51.8438 242.803 51.9121 242.338 51.9121C242.146 51.9121 241.928 51.8893 241.682 51.8438C241.436 51.8027 241.187 51.7321 240.937 51.6318C240.681 51.5361 240.435 51.4062 240.198 51.2422C239.966 51.0781 239.765 50.8753 239.597 50.6338L240.253 49.875C240.408 50.0618 240.567 50.2191 240.731 50.3467C240.896 50.4788 241.062 50.5837 241.23 50.6611C241.399 50.7386 241.568 50.7933 241.736 50.8252C241.905 50.8617 242.074 50.8799 242.242 50.8799C242.543 50.8799 242.814 50.8366 243.056 50.75C243.297 50.6634 243.505 50.5358 243.678 50.3672C243.846 50.2031 243.976 49.998 244.067 49.752C244.159 49.5059 244.204 49.2233 244.204 48.9043V48.2686C244.108 48.3779 244.006 48.4782 243.896 48.5693C243.792 48.6605 243.678 48.7402 243.555 48.8086C243.363 48.9134 243.151 48.9932 242.919 49.0479C242.687 49.1071 242.436 49.1367 242.167 49.1367C241.716 49.1367 241.308 49.041 240.943 48.8496C240.579 48.6582 240.271 48.3939 240.021 48.0566C239.765 47.7194 239.569 47.3229 239.433 46.8672C239.296 46.4069 239.228 45.9124 239.228 45.3838V45.2402ZM240.492 45.3838C240.492 45.7438 240.529 46.0856 240.602 46.4092C240.679 46.7327 240.8 47.0176 240.964 47.2637C241.123 47.5098 241.328 47.7057 241.579 47.8516C241.83 47.9928 242.131 48.0635 242.481 48.0635C242.7 48.0635 242.896 48.0384 243.069 47.9883C243.247 47.9336 243.407 47.8584 243.548 47.7627C243.685 47.667 243.808 47.5531 243.917 47.4209C244.026 47.2887 244.122 47.1429 244.204 46.9834V43.5928C244.122 43.4378 244.026 43.2965 243.917 43.1689C243.808 43.0413 243.682 42.9297 243.541 42.834C243.4 42.7428 243.243 42.6722 243.069 42.6221C242.896 42.5674 242.705 42.54 242.495 42.54C242.14 42.54 241.834 42.613 241.579 42.7588C241.328 42.9046 241.123 43.1006 240.964 43.3467C240.8 43.5973 240.679 43.8867 240.602 44.2148C240.529 44.5384 240.492 44.8802 240.492 45.2402V45.3838ZM249.133 42.7041C249.233 42.5537 249.345 42.417 249.468 42.2939C249.591 42.1663 249.721 42.0547 249.857 41.959C250.076 41.7995 250.315 41.6787 250.575 41.5967C250.84 41.5146 251.12 41.4714 251.416 41.4668C251.803 41.4668 252.154 41.5238 252.469 41.6377C252.788 41.7471 253.059 41.9202 253.282 42.1572C253.506 42.3942 253.676 42.695 253.795 43.0596C253.918 43.4196 253.979 43.848 253.979 44.3447V49H252.715V44.3311C252.715 44.0394 252.681 43.7842 252.612 43.5654C252.544 43.3421 252.444 43.1576 252.312 43.0117C252.17 42.8522 251.993 42.7337 251.778 42.6562C251.564 42.5742 251.318 42.5355 251.04 42.54C250.812 42.54 250.596 42.5719 250.391 42.6357C250.186 42.6995 249.996 42.7907 249.823 42.9092C249.687 43.0003 249.559 43.1074 249.44 43.2305C249.326 43.349 249.224 43.4811 249.133 43.627V49H247.868V38.5H249.133V42.7041ZM259.271 39.8125V41.6035H262.087V42.5811H259.271V46.6006C259.271 46.8877 259.307 47.1247 259.38 47.3115C259.453 47.4984 259.553 47.6465 259.681 47.7559C259.808 47.8698 259.954 47.9495 260.118 47.9951C260.287 48.0407 260.465 48.0635 260.651 48.0635C260.788 48.0635 260.929 48.0566 261.075 48.043C261.221 48.0247 261.365 48.0042 261.506 47.9814C261.643 47.9587 261.77 47.9359 261.889 47.9131C262.012 47.8857 262.112 47.863 262.189 47.8447L262.367 48.7402C262.262 48.804 262.135 48.861 261.984 48.9111C261.834 48.9567 261.67 48.9954 261.492 49.0273C261.314 49.0638 261.125 49.0911 260.925 49.1094C260.729 49.1276 260.533 49.1367 260.337 49.1367C260.009 49.1367 259.701 49.0911 259.414 49C259.132 48.9043 258.885 48.7539 258.676 48.5488C258.466 48.3483 258.3 48.0885 258.177 47.7695C258.058 47.446 257.999 47.0563 257.999 46.6006V42.5811H256.058V41.6035H257.999V39.8125H259.271Z" fill="#201F1F"/>
<path d="M301.5 36C301.5 33.7909 303.291 32 305.5 32H381.5C383.709 32 385.5 33.7909 385.5 36V52C385.5 54.2091 383.709 56 381.5 56H305.5C303.291 56 301.5 54.2091 301.5 52V36Z" fill="#E1E1E0"/>
<path d="M308.739 49V42.5811H306.702V41.6035H308.739V41.084C308.739 40.61 308.808 40.1953 308.944 39.8398C309.086 39.4798 309.284 39.179 309.539 38.9375C309.79 38.696 310.093 38.5137 310.448 38.3906C310.804 38.2676 311.2 38.2061 311.638 38.2061C311.82 38.2061 312 38.2174 312.178 38.2402C312.355 38.2585 312.531 38.2835 312.704 38.3154C312.818 38.3382 312.932 38.3633 313.046 38.3906C313.16 38.4134 313.276 38.4408 313.395 38.4727L313.244 39.5186C313.057 39.4548 312.839 39.4001 312.588 39.3545C312.342 39.3044 312.077 39.2793 311.795 39.2793C311.508 39.2793 311.253 39.3158 311.029 39.3887C310.811 39.457 310.628 39.5618 310.482 39.7031C310.327 39.849 310.209 40.0381 310.127 40.2705C310.049 40.5029 310.011 40.7741 310.011 41.084V41.6035H312.861V42.5811H310.011V49H308.739ZM314.905 45.2334C314.905 44.7002 314.983 44.2057 315.138 43.75C315.293 43.2897 315.516 42.891 315.808 42.5537C316.095 42.2165 316.446 41.9521 316.86 41.7607C317.275 41.5648 317.742 41.4668 318.262 41.4668C318.786 41.4668 319.255 41.5648 319.67 41.7607C320.089 41.9521 320.445 42.2165 320.736 42.5537C321.023 42.891 321.244 43.2897 321.399 43.75C321.554 44.2057 321.632 44.7002 321.632 45.2334V45.3838C321.632 45.917 321.554 46.4115 321.399 46.8672C321.244 47.3229 321.023 47.7194 320.736 48.0566C320.445 48.3939 320.091 48.6582 319.677 48.8496C319.262 49.041 318.795 49.1367 318.275 49.1367C317.751 49.1367 317.28 49.041 316.86 48.8496C316.446 48.6582 316.095 48.3939 315.808 48.0566C315.516 47.7194 315.293 47.3229 315.138 46.8672C314.983 46.4115 314.905 45.917 314.905 45.3838V45.2334ZM316.17 45.3838C316.17 45.7484 316.213 46.097 316.3 46.4297C316.386 46.7578 316.519 47.0472 316.696 47.2979C316.869 47.5485 317.088 47.7467 317.353 47.8926C317.617 48.0384 317.924 48.1113 318.275 48.1113C318.622 48.1113 318.925 48.0384 319.185 47.8926C319.449 47.7467 319.67 47.5485 319.848 47.2979C320.021 47.0472 320.151 46.7578 320.237 46.4297C320.324 46.097 320.367 45.7484 320.367 45.3838V45.2334C320.367 44.8734 320.322 44.5293 320.23 44.2012C320.144 43.8685 320.014 43.5768 319.841 43.3262C319.663 43.0755 319.442 42.8773 319.178 42.7314C318.918 42.5811 318.613 42.5059 318.262 42.5059C317.911 42.5059 317.605 42.5811 317.346 42.7314C317.086 42.8773 316.869 43.0755 316.696 43.3262C316.519 43.5768 316.386 43.8685 316.3 44.2012C316.213 44.5293 316.17 44.8734 316.17 45.2334V45.3838ZM323.669 49V41.6035H324.804L324.893 42.6973C325.002 42.5423 325.12 42.401 325.248 42.2734C325.38 42.1413 325.519 42.0273 325.665 41.9316C325.884 41.7858 326.121 41.6742 326.376 41.5967C326.636 41.5146 326.909 41.4714 327.196 41.4668C327.584 41.4668 327.935 41.5215 328.249 41.6309C328.568 41.7402 328.839 41.9111 329.062 42.1436C329.286 42.376 329.457 42.6722 329.575 43.0322C329.698 43.3877 329.76 43.8115 329.76 44.3037V49H328.495V44.3311C328.495 44.0029 328.459 43.7249 328.386 43.4971C328.313 43.2692 328.206 43.0846 328.064 42.9434C327.919 42.8021 327.741 42.6995 327.531 42.6357C327.326 42.5719 327.089 42.54 326.82 42.54C326.588 42.54 326.371 42.5742 326.171 42.6426C325.97 42.7064 325.786 42.7952 325.617 42.9092C325.48 43.0094 325.353 43.1257 325.234 43.2578C325.12 43.39 325.02 43.5358 324.934 43.6953V49H323.669ZM335.071 39.8125V41.6035H337.888V42.5811H335.071V46.6006C335.071 46.8877 335.108 47.1247 335.181 47.3115C335.254 47.4984 335.354 47.6465 335.481 47.7559C335.609 47.8698 335.755 47.9495 335.919 47.9951C336.088 48.0407 336.265 48.0635 336.452 48.0635C336.589 48.0635 336.73 48.0566 336.876 48.043C337.022 48.0247 337.165 48.0042 337.307 47.9814C337.443 47.9587 337.571 47.9359 337.689 47.9131C337.812 47.8857 337.913 47.863 337.99 47.8447L338.168 48.7402C338.063 48.804 337.936 48.861 337.785 48.9111C337.635 48.9567 337.471 48.9954 337.293 49.0273C337.115 49.0638 336.926 49.0911 336.726 49.1094C336.53 49.1276 336.334 49.1367 336.138 49.1367C335.81 49.1367 335.502 49.0911 335.215 49C334.932 48.9043 334.686 48.7539 334.477 48.5488C334.267 48.3483 334.101 48.0885 333.978 47.7695C333.859 47.446 333.8 47.0563 333.8 46.6006V42.5811H331.858V41.6035H333.8V39.8125H335.071ZM346.624 50.0322H340.355V49H346.624V50.0322ZM353.809 47.0381C353.809 46.8877 353.779 46.7533 353.72 46.6348C353.66 46.5117 353.56 46.4001 353.419 46.2998C353.278 46.1995 353.091 46.1084 352.858 46.0264C352.626 45.9398 352.337 45.8623 351.99 45.7939C351.566 45.7074 351.179 45.6025 350.828 45.4795C350.482 45.3564 350.186 45.2083 349.939 45.0352C349.689 44.8665 349.495 44.6683 349.358 44.4404C349.222 44.208 349.153 43.9391 349.153 43.6338C349.153 43.333 349.224 43.0527 349.365 42.793C349.507 42.5286 349.705 42.2985 349.96 42.1025C350.215 41.9066 350.518 41.7516 350.869 41.6377C351.225 41.5238 351.614 41.4668 352.038 41.4668C352.494 41.4668 352.904 41.526 353.269 41.6445C353.633 41.763 353.943 41.9271 354.198 42.1367C354.453 42.3464 354.649 42.5924 354.786 42.875C354.927 43.153 354.998 43.4538 354.998 43.7773H353.733C353.733 43.6178 353.692 43.4629 353.61 43.3125C353.528 43.1576 353.414 43.0208 353.269 42.9023C353.123 42.7839 352.945 42.6882 352.735 42.6152C352.53 42.5423 352.298 42.5059 352.038 42.5059C351.769 42.5059 351.532 42.5355 351.327 42.5947C351.127 42.654 350.96 42.7337 350.828 42.834C350.691 42.9342 350.589 43.0505 350.521 43.1826C350.452 43.3148 350.418 43.4515 350.418 43.5928C350.418 43.7386 350.445 43.8685 350.5 43.9824C350.555 44.0964 350.65 44.1989 350.787 44.29C350.919 44.3812 351.097 44.4632 351.32 44.5361C351.548 44.609 351.835 44.6797 352.182 44.748C352.637 44.8438 353.045 44.9554 353.405 45.083C353.765 45.2061 354.068 45.3542 354.314 45.5273C354.561 45.7051 354.747 45.9102 354.875 46.1426C355.007 46.375 355.073 46.6439 355.073 46.9492C355.073 47.2773 354.998 47.5758 354.848 47.8447C354.702 48.1136 354.497 48.3438 354.232 48.5352C353.968 48.7266 353.651 48.8747 353.282 48.9795C352.913 49.0843 352.51 49.1367 352.072 49.1367C351.571 49.1367 351.124 49.0706 350.732 48.9385C350.34 48.8018 350.01 48.6217 349.741 48.3984C349.468 48.1797 349.258 47.9245 349.112 47.6328C348.971 47.3411 348.9 47.0381 348.9 46.7236H350.165C350.183 46.9834 350.252 47.2021 350.37 47.3799C350.493 47.5576 350.646 47.7012 350.828 47.8105C351.006 47.9199 351.204 47.9974 351.423 48.043C351.642 48.0885 351.858 48.1113 352.072 48.1113C352.41 48.1113 352.703 48.0726 352.954 47.9951C353.205 47.9131 353.401 47.8014 353.542 47.6602C353.629 47.5736 353.695 47.4779 353.74 47.373C353.786 47.2682 353.809 47.1566 353.809 47.0381ZM357.5 41.6035H361.28V47.9062H363.693V49H357.5V47.9062H360.016V42.7041H357.5V41.6035ZM359.852 39.6621C359.852 39.5527 359.868 39.4502 359.899 39.3545C359.936 39.2588 359.991 39.1768 360.063 39.1084C360.123 39.0492 360.198 39.0036 360.289 38.9717C360.385 38.9352 360.492 38.917 360.61 38.917C360.729 38.917 360.834 38.9352 360.925 38.9717C361.016 39.0036 361.091 39.0492 361.15 39.1084C361.223 39.1722 361.278 39.252 361.314 39.3477C361.351 39.4434 361.369 39.5482 361.369 39.6621C361.369 39.8672 361.305 40.0381 361.178 40.1748C361.05 40.3115 360.861 40.3799 360.61 40.3799C360.355 40.3799 360.164 40.3115 360.036 40.1748C359.913 40.0381 359.852 39.8672 359.852 39.6621ZM367.228 47.9678H371.938V49H365.614V48.0703L370.03 42.6494H365.676V41.6035H371.691V42.499L367.228 47.9678ZM377.386 49.1367C376.866 49.1367 376.388 49.0479 375.95 48.8701C375.517 48.6924 375.146 48.444 374.836 48.125C374.526 47.806 374.285 47.4277 374.111 46.9902C373.938 46.5527 373.852 46.0765 373.852 45.5615V45.2744C373.852 44.6774 373.947 44.1442 374.139 43.6748C374.33 43.2008 374.585 42.7998 374.904 42.4717C375.219 42.1481 375.576 41.8997 375.978 41.7266C376.383 41.5534 376.798 41.4668 377.222 41.4668C377.755 41.4668 378.22 41.5602 378.616 41.7471C379.017 41.9294 379.35 42.1823 379.614 42.5059C379.879 42.834 380.075 43.2191 380.202 43.6611C380.334 44.1032 380.4 44.5817 380.4 45.0967V45.6641H375.116V45.7119C375.148 46.0719 375.219 46.3887 375.328 46.6621C375.442 46.9355 375.597 47.1771 375.793 47.3867C375.993 47.61 376.235 47.7855 376.518 47.9131C376.8 48.0407 377.112 48.1045 377.454 48.1045C377.905 48.1045 378.306 48.0133 378.657 47.8311C379.008 47.6488 379.3 47.4072 379.532 47.1064L380.305 47.708C380.059 48.0817 379.689 48.4144 379.197 48.7061C378.71 48.9932 378.106 49.1367 377.386 49.1367ZM377.222 42.5059C376.966 42.5059 376.725 42.5537 376.497 42.6494C376.269 42.7406 376.064 42.875 375.882 43.0527C375.7 43.235 375.545 43.4583 375.417 43.7227C375.294 43.9824 375.207 44.2832 375.157 44.625H379.136V44.5635C379.136 44.3356 379.092 44.0918 379.006 43.832C378.919 43.5677 378.799 43.3398 378.644 43.1484C378.489 42.957 378.293 42.8021 378.056 42.6836C377.823 42.5651 377.545 42.5059 377.222 42.5059Z" fill="#201F1F"/>
<path d="M419.25 36C419.25 33.7909 421.041 32 423.25 32H516.25C518.459 32 520.25 33.7909 520.25 36V52C520.25 54.2091 518.459 56 516.25 56H423.25C421.041 56 419.25 54.2091 419.25 52V36Z" fill="#E1E1E0"/>
<path d="M424.893 38.5H428.673V47.9062H431.086V49H424.893V47.9062H427.408V39.6006H424.893V38.5ZM433.301 41.6035H437.081V47.9062H439.494V49H433.301V47.9062H435.816V42.7041H433.301V41.6035ZM435.652 39.6621C435.652 39.5527 435.668 39.4502 435.7 39.3545C435.737 39.2588 435.791 39.1768 435.864 39.1084C435.924 39.0492 435.999 39.0036 436.09 38.9717C436.186 38.9352 436.293 38.917 436.411 38.917C436.53 38.917 436.634 38.9352 436.726 38.9717C436.817 39.0036 436.892 39.0492 436.951 39.1084C437.024 39.1722 437.079 39.252 437.115 39.3477C437.152 39.4434 437.17 39.5482 437.17 39.6621C437.17 39.8672 437.106 40.0381 436.979 40.1748C436.851 40.3115 436.662 40.3799 436.411 40.3799C436.156 40.3799 435.965 40.3115 435.837 40.1748C435.714 40.0381 435.652 39.8672 435.652 39.6621ZM441.511 49V41.6035H442.646L442.734 42.6973C442.844 42.5423 442.962 42.401 443.09 42.2734C443.222 42.1413 443.361 42.0273 443.507 41.9316C443.726 41.7858 443.963 41.6742 444.218 41.5967C444.478 41.5146 444.751 41.4714 445.038 41.4668C445.425 41.4668 445.776 41.5215 446.091 41.6309C446.41 41.7402 446.681 41.9111 446.904 42.1436C447.128 42.376 447.299 42.6722 447.417 43.0322C447.54 43.3877 447.602 43.8115 447.602 44.3037V49H446.337V44.3311C446.337 44.0029 446.3 43.7249 446.228 43.4971C446.155 43.2692 446.048 43.0846 445.906 42.9434C445.76 42.8021 445.583 42.6995 445.373 42.6357C445.168 42.5719 444.931 42.54 444.662 42.54C444.43 42.54 444.213 42.5742 444.013 42.6426C443.812 42.7064 443.628 42.7952 443.459 42.9092C443.322 43.0094 443.195 43.1257 443.076 43.2578C442.962 43.39 442.862 43.5358 442.775 43.6953V49H441.511ZM453.187 49.1367C452.667 49.1367 452.188 49.0479 451.751 48.8701C451.318 48.6924 450.947 48.444 450.637 48.125C450.327 47.806 450.085 47.4277 449.912 46.9902C449.739 46.5527 449.652 46.0765 449.652 45.5615V45.2744C449.652 44.6774 449.748 44.1442 449.939 43.6748C450.131 43.2008 450.386 42.7998 450.705 42.4717C451.02 42.1481 451.377 41.8997 451.778 41.7266C452.184 41.5534 452.599 41.4668 453.022 41.4668C453.556 41.4668 454.021 41.5602 454.417 41.7471C454.818 41.9294 455.151 42.1823 455.415 42.5059C455.679 42.834 455.875 43.2191 456.003 43.6611C456.135 44.1032 456.201 44.5817 456.201 45.0967V45.6641H450.917V45.7119C450.949 46.0719 451.02 46.3887 451.129 46.6621C451.243 46.9355 451.398 47.1771 451.594 47.3867C451.794 47.61 452.036 47.7855 452.318 47.9131C452.601 48.0407 452.913 48.1045 453.255 48.1045C453.706 48.1045 454.107 48.0133 454.458 47.8311C454.809 47.6488 455.101 47.4072 455.333 47.1064L456.105 47.708C455.859 48.0817 455.49 48.4144 454.998 48.7061C454.51 48.9932 453.907 49.1367 453.187 49.1367ZM453.022 42.5059C452.767 42.5059 452.526 42.5537 452.298 42.6494C452.07 42.7406 451.865 42.875 451.683 43.0527C451.5 43.235 451.345 43.4583 451.218 43.7227C451.095 43.9824 451.008 44.2832 450.958 44.625H454.937V44.5635C454.937 44.3356 454.893 44.0918 454.807 43.832C454.72 43.5677 454.599 43.3398 454.444 43.1484C454.289 42.957 454.093 42.8021 453.856 42.6836C453.624 42.5651 453.346 42.5059 453.022 42.5059ZM464.466 50.0322H458.197V49H464.466V50.0322ZM468 42.7041C468.1 42.5537 468.212 42.417 468.335 42.2939C468.458 42.1663 468.588 42.0547 468.725 41.959C468.943 41.7995 469.183 41.6787 469.442 41.5967C469.707 41.5146 469.987 41.4714 470.283 41.4668C470.671 41.4668 471.021 41.5238 471.336 41.6377C471.655 41.7471 471.926 41.9202 472.149 42.1572C472.373 42.3942 472.544 42.695 472.662 43.0596C472.785 43.4196 472.847 43.848 472.847 44.3447V49H471.582V44.3311C471.582 44.0394 471.548 43.7842 471.479 43.5654C471.411 43.3421 471.311 43.1576 471.179 43.0117C471.037 42.8522 470.86 42.7337 470.646 42.6562C470.431 42.5742 470.185 42.5355 469.907 42.54C469.679 42.54 469.463 42.5719 469.258 42.6357C469.053 42.6995 468.864 42.7907 468.69 42.9092C468.554 43.0003 468.426 43.1074 468.308 43.2305C468.194 43.349 468.091 43.4811 468 43.627V49H466.735V38.5H468V42.7041ZM478.411 49.1367C477.892 49.1367 477.413 49.0479 476.976 48.8701C476.543 48.6924 476.171 48.444 475.861 48.125C475.551 47.806 475.31 47.4277 475.137 46.9902C474.964 46.5527 474.877 46.0765 474.877 45.5615V45.2744C474.877 44.6774 474.973 44.1442 475.164 43.6748C475.355 43.2008 475.611 42.7998 475.93 42.4717C476.244 42.1481 476.602 41.8997 477.003 41.7266C477.409 41.5534 477.823 41.4668 478.247 41.4668C478.78 41.4668 479.245 41.5602 479.642 41.7471C480.043 41.9294 480.375 42.1823 480.64 42.5059C480.904 42.834 481.1 43.2191 481.228 43.6611C481.36 44.1032 481.426 44.5817 481.426 45.0967V45.6641H476.142V45.7119C476.174 46.0719 476.244 46.3887 476.354 46.6621C476.467 46.9355 476.622 47.1771 476.818 47.3867C477.019 47.61 477.26 47.7855 477.543 47.9131C477.826 48.0407 478.138 48.1045 478.479 48.1045C478.931 48.1045 479.332 48.0133 479.683 47.8311C480.034 47.6488 480.325 47.4072 480.558 47.1064L481.33 47.708C481.084 48.0817 480.715 48.4144 480.223 48.7061C479.735 48.9932 479.131 49.1367 478.411 49.1367ZM478.247 42.5059C477.992 42.5059 477.75 42.5537 477.522 42.6494C477.295 42.7406 477.09 42.875 476.907 43.0527C476.725 43.235 476.57 43.4583 476.442 43.7227C476.319 43.9824 476.233 44.2832 476.183 44.625H480.161V44.5635C480.161 44.3356 480.118 44.0918 480.031 43.832C479.945 43.5677 479.824 43.3398 479.669 43.1484C479.514 42.957 479.318 42.8021 479.081 42.6836C478.849 42.5651 478.571 42.5059 478.247 42.5059ZM483.75 41.6035H487.53V47.9062H489.943V49H483.75V47.9062H486.266V42.7041H483.75V41.6035ZM486.102 39.6621C486.102 39.5527 486.118 39.4502 486.149 39.3545C486.186 39.2588 486.241 39.1768 486.313 39.1084C486.373 39.0492 486.448 39.0036 486.539 38.9717C486.635 38.9352 486.742 38.917 486.86 38.917C486.979 38.917 487.084 38.9352 487.175 38.9717C487.266 39.0036 487.341 39.0492 487.4 39.1084C487.473 39.1722 487.528 39.252 487.564 39.3477C487.601 39.4434 487.619 39.5482 487.619 39.6621C487.619 39.8672 487.555 40.0381 487.428 40.1748C487.3 40.3115 487.111 40.3799 486.86 40.3799C486.605 40.3799 486.414 40.3115 486.286 40.1748C486.163 40.0381 486.102 39.8672 486.102 39.6621ZM491.728 45.2402C491.728 44.6888 491.794 44.1829 491.926 43.7227C492.062 43.2578 492.258 42.859 492.514 42.5264C492.769 42.1937 493.079 41.9339 493.443 41.7471C493.808 41.5602 494.22 41.4668 494.681 41.4668C494.977 41.4668 495.248 41.501 495.494 41.5693C495.745 41.6377 495.97 41.738 496.171 41.8701C496.28 41.9385 496.383 42.0182 496.479 42.1094C496.579 42.2005 496.672 42.3008 496.759 42.4102L496.82 41.6035H497.969V48.8428C497.969 49.3304 497.891 49.7633 497.736 50.1416C497.586 50.5199 497.374 50.8411 497.101 51.1055C496.823 51.3698 496.492 51.5703 496.109 51.707C495.727 51.8438 495.303 51.9121 494.838 51.9121C494.646 51.9121 494.428 51.8893 494.182 51.8438C493.936 51.8027 493.687 51.7321 493.437 51.6318C493.181 51.5361 492.935 51.4062 492.698 51.2422C492.466 51.0781 492.265 50.8753 492.097 50.6338L492.753 49.875C492.908 50.0618 493.067 50.2191 493.231 50.3467C493.396 50.4788 493.562 50.5837 493.73 50.6611C493.899 50.7386 494.068 50.7933 494.236 50.8252C494.405 50.8617 494.574 50.8799 494.742 50.8799C495.043 50.8799 495.314 50.8366 495.556 50.75C495.797 50.6634 496.005 50.5358 496.178 50.3672C496.346 50.2031 496.476 49.998 496.567 49.752C496.659 49.5059 496.704 49.2233 496.704 48.9043V48.2686C496.608 48.3779 496.506 48.4782 496.396 48.5693C496.292 48.6605 496.178 48.7402 496.055 48.8086C495.863 48.9134 495.651 48.9932 495.419 49.0479C495.187 49.1071 494.936 49.1367 494.667 49.1367C494.216 49.1367 493.808 49.041 493.443 48.8496C493.079 48.6582 492.771 48.3939 492.521 48.0566C492.265 47.7194 492.069 47.3229 491.933 46.8672C491.796 46.4069 491.728 45.9124 491.728 45.3838V45.2402ZM492.992 45.3838C492.992 45.7438 493.029 46.0856 493.102 46.4092C493.179 46.7327 493.3 47.0176 493.464 47.2637C493.623 47.5098 493.828 47.7057 494.079 47.8516C494.33 47.9928 494.631 48.0635 494.981 48.0635C495.2 48.0635 495.396 48.0384 495.569 47.9883C495.747 47.9336 495.907 47.8584 496.048 47.7627C496.185 47.667 496.308 47.5531 496.417 47.4209C496.526 47.2887 496.622 47.1429 496.704 46.9834V43.5928C496.622 43.4378 496.526 43.2965 496.417 43.1689C496.308 43.0413 496.182 42.9297 496.041 42.834C495.9 42.7428 495.743 42.6722 495.569 42.6221C495.396 42.5674 495.205 42.54 494.995 42.54C494.64 42.54 494.334 42.613 494.079 42.7588C493.828 42.9046 493.623 43.1006 493.464 43.3467C493.3 43.5973 493.179 43.8867 493.102 44.2148C493.029 44.5384 492.992 44.8802 492.992 45.2402V45.3838ZM501.633 42.7041C501.733 42.5537 501.845 42.417 501.968 42.2939C502.091 42.1663 502.221 42.0547 502.357 41.959C502.576 41.7995 502.815 41.6787 503.075 41.5967C503.34 41.5146 503.62 41.4714 503.916 41.4668C504.303 41.4668 504.654 41.5238 504.969 41.6377C505.288 41.7471 505.559 41.9202 505.782 42.1572C506.006 42.3942 506.176 42.695 506.295 43.0596C506.418 43.4196 506.479 43.848 506.479 44.3447V49H505.215V44.3311C505.215 44.0394 505.181 43.7842 505.112 43.5654C505.044 43.3421 504.944 43.1576 504.812 43.0117C504.67 42.8522 504.493 42.7337 504.278 42.6562C504.064 42.5742 503.818 42.5355 503.54 42.54C503.312 42.54 503.096 42.5719 502.891 42.6357C502.686 42.6995 502.496 42.7907 502.323 42.9092C502.187 43.0003 502.059 43.1074 501.94 43.2305C501.826 43.349 501.724 43.4811 501.633 43.627V49H500.368V38.5H501.633V42.7041ZM511.771 39.8125V41.6035H514.587V42.5811H511.771V46.6006C511.771 46.8877 511.807 47.1247 511.88 47.3115C511.953 47.4984 512.053 47.6465 512.181 47.7559C512.308 47.8698 512.454 47.9495 512.618 47.9951C512.787 48.0407 512.965 48.0635 513.151 48.0635C513.288 48.0635 513.429 48.0566 513.575 48.043C513.721 48.0247 513.865 48.0042 514.006 47.9814C514.143 47.9587 514.27 47.9359 514.389 47.9131C514.512 47.8857 514.612 47.863 514.689 47.8447L514.867 48.7402C514.762 48.804 514.635 48.861 514.484 48.9111C514.334 48.9567 514.17 48.9954 513.992 49.0273C513.814 49.0638 513.625 49.0911 513.425 49.1094C513.229 49.1276 513.033 49.1367 512.837 49.1367C512.509 49.1367 512.201 49.0911 511.914 49C511.632 48.9043 511.385 48.7539 511.176 48.5488C510.966 48.3483 510.8 48.0885 510.677 47.7695C510.558 47.446 510.499 47.0563 510.499 46.6006V42.5811H508.558V41.6035H510.499V39.8125H511.771Z" fill="#201F1F"/>
<path d="M554 36C554 33.7909 555.791 32 558 32H676C678.209 32 680 33.7909 680 36V52C680 54.2091 678.209 56 676 56H558C555.791 56 554 54.2091 554 52V36Z" fill="#E1E1E0"/>
<path d="M559.53 38.5H563.311V47.9062H565.724V49H559.53V47.9062H562.046V39.6006H559.53V38.5ZM571.008 49.1367C570.488 49.1367 570.01 49.0479 569.572 48.8701C569.139 48.6924 568.768 48.444 568.458 48.125C568.148 47.806 567.907 47.4277 567.733 46.9902C567.56 46.5527 567.474 46.0765 567.474 45.5615V45.2744C567.474 44.6774 567.569 44.1442 567.761 43.6748C567.952 43.2008 568.207 42.7998 568.526 42.4717C568.841 42.1481 569.199 41.8997 569.6 41.7266C570.005 41.5534 570.42 41.4668 570.844 41.4668C571.377 41.4668 571.842 41.5602 572.238 41.7471C572.639 41.9294 572.972 42.1823 573.236 42.5059C573.501 42.834 573.697 43.2191 573.824 43.6611C573.956 44.1032 574.022 44.5817 574.022 45.0967V45.6641H568.738V45.7119C568.77 46.0719 568.841 46.3887 568.95 46.6621C569.064 46.9355 569.219 47.1771 569.415 47.3867C569.616 47.61 569.857 47.7855 570.14 47.9131C570.422 48.0407 570.734 48.1045 571.076 48.1045C571.527 48.1045 571.928 48.0133 572.279 47.8311C572.63 47.6488 572.922 47.4072 573.154 47.1064L573.927 47.708C573.681 48.0817 573.312 48.4144 572.819 48.7061C572.332 48.9932 571.728 49.1367 571.008 49.1367ZM570.844 42.5059C570.589 42.5059 570.347 42.5537 570.119 42.6494C569.891 42.7406 569.686 42.875 569.504 43.0527C569.322 43.235 569.167 43.4583 569.039 43.7227C568.916 43.9824 568.829 44.2832 568.779 44.625H572.758V44.5635C572.758 44.3356 572.715 44.0918 572.628 43.832C572.541 43.5677 572.421 43.3398 572.266 43.1484C572.111 42.957 571.915 42.8021 571.678 42.6836C571.445 42.5651 571.167 42.5059 570.844 42.5059ZM579.143 39.8125V41.6035H581.959V42.5811H579.143V46.6006C579.143 46.8877 579.179 47.1247 579.252 47.3115C579.325 47.4984 579.425 47.6465 579.553 47.7559C579.68 47.8698 579.826 47.9495 579.99 47.9951C580.159 48.0407 580.337 48.0635 580.523 48.0635C580.66 48.0635 580.801 48.0566 580.947 48.043C581.093 48.0247 581.237 48.0042 581.378 47.9814C581.515 47.9587 581.642 47.9359 581.761 47.9131C581.884 47.8857 581.984 47.863 582.062 47.8447L582.239 48.7402C582.134 48.804 582.007 48.861 581.856 48.9111C581.706 48.9567 581.542 48.9954 581.364 49.0273C581.187 49.0638 580.997 49.0911 580.797 49.1094C580.601 49.1276 580.405 49.1367 580.209 49.1367C579.881 49.1367 579.573 49.0911 579.286 49C579.004 48.9043 578.757 48.7539 578.548 48.5488C578.338 48.3483 578.172 48.0885 578.049 47.7695C577.93 47.446 577.871 47.0563 577.871 46.6006V42.5811H575.93V41.6035H577.871V39.8125H579.143ZM587.551 39.8125V41.6035H590.367V42.5811H587.551V46.6006C587.551 46.8877 587.587 47.1247 587.66 47.3115C587.733 47.4984 587.833 47.6465 587.961 47.7559C588.089 47.8698 588.234 47.9495 588.398 47.9951C588.567 48.0407 588.745 48.0635 588.932 48.0635C589.068 48.0635 589.21 48.0566 589.355 48.043C589.501 48.0247 589.645 48.0042 589.786 47.9814C589.923 47.9587 590.05 47.9359 590.169 47.9131C590.292 47.8857 590.392 47.863 590.47 47.8447L590.647 48.7402C590.543 48.804 590.415 48.861 590.265 48.9111C590.114 48.9567 589.95 48.9954 589.772 49.0273C589.595 49.0638 589.406 49.0911 589.205 49.1094C589.009 49.1276 588.813 49.1367 588.617 49.1367C588.289 49.1367 587.981 49.0911 587.694 49C587.412 48.9043 587.166 48.7539 586.956 48.5488C586.746 48.3483 586.58 48.0885 586.457 47.7695C586.339 47.446 586.279 47.0563 586.279 46.6006V42.5811H584.338V41.6035H586.279V39.8125H587.551ZM596.232 49.1367C595.713 49.1367 595.234 49.0479 594.797 48.8701C594.364 48.6924 593.993 48.444 593.683 48.125C593.373 47.806 593.131 47.4277 592.958 46.9902C592.785 46.5527 592.698 46.0765 592.698 45.5615V45.2744C592.698 44.6774 592.794 44.1442 592.985 43.6748C593.177 43.2008 593.432 42.7998 593.751 42.4717C594.065 42.1481 594.423 41.8997 594.824 41.7266C595.23 41.5534 595.645 41.4668 596.068 41.4668C596.602 41.4668 597.066 41.5602 597.463 41.7471C597.864 41.9294 598.197 42.1823 598.461 42.5059C598.725 42.834 598.921 43.2191 599.049 43.6611C599.181 44.1032 599.247 44.5817 599.247 45.0967V45.6641H593.963V45.7119C593.995 46.0719 594.065 46.3887 594.175 46.6621C594.289 46.9355 594.444 47.1771 594.64 47.3867C594.84 47.61 595.082 47.7855 595.364 47.9131C595.647 48.0407 595.959 48.1045 596.301 48.1045C596.752 48.1045 597.153 48.0133 597.504 47.8311C597.855 47.6488 598.146 47.4072 598.379 47.1064L599.151 47.708C598.905 48.0817 598.536 48.4144 598.044 48.7061C597.556 48.9932 596.952 49.1367 596.232 49.1367ZM596.068 42.5059C595.813 42.5059 595.572 42.5537 595.344 42.6494C595.116 42.7406 594.911 42.875 594.729 43.0527C594.546 43.235 594.391 43.4583 594.264 43.7227C594.141 43.9824 594.054 44.2832 594.004 44.625H597.982V44.5635C597.982 44.3356 597.939 44.0918 597.853 43.832C597.766 43.5677 597.645 43.3398 597.49 43.1484C597.335 42.957 597.139 42.8021 596.902 42.6836C596.67 42.5651 596.392 42.5059 596.068 42.5059ZM606.22 41.4668C606.452 41.4668 606.694 41.4827 606.944 41.5146C607.2 41.5465 607.391 41.5898 607.519 41.6445L607.348 42.8818C607.102 42.8271 606.867 42.7884 606.644 42.7656C606.425 42.7383 606.195 42.7246 605.953 42.7246C605.643 42.7246 605.363 42.7633 605.112 42.8408C604.862 42.9137 604.643 43.0231 604.456 43.1689C604.287 43.2965 604.139 43.4538 604.012 43.6406C603.889 43.8229 603.786 44.028 603.704 44.2559V49H602.433V41.6035H603.636L603.69 42.5947L603.697 42.7793C603.998 42.3737 604.358 42.0547 604.777 41.8223C605.201 41.5853 605.682 41.4668 606.22 41.4668ZM615.92 50.0322H609.651V49H615.92V50.0322ZM623.104 47.0381C623.104 46.8877 623.075 46.7533 623.016 46.6348C622.956 46.5117 622.856 46.4001 622.715 46.2998C622.574 46.1995 622.387 46.1084 622.154 46.0264C621.922 45.9398 621.632 45.8623 621.286 45.7939C620.862 45.7074 620.475 45.6025 620.124 45.4795C619.778 45.3564 619.481 45.2083 619.235 45.0352C618.985 44.8665 618.791 44.6683 618.654 44.4404C618.518 44.208 618.449 43.9391 618.449 43.6338C618.449 43.333 618.52 43.0527 618.661 42.793C618.802 42.5286 619.001 42.2985 619.256 42.1025C619.511 41.9066 619.814 41.7516 620.165 41.6377C620.521 41.5238 620.91 41.4668 621.334 41.4668C621.79 41.4668 622.2 41.526 622.564 41.6445C622.929 41.763 623.239 41.9271 623.494 42.1367C623.749 42.3464 623.945 42.5924 624.082 42.875C624.223 43.153 624.294 43.4538 624.294 43.7773H623.029C623.029 43.6178 622.988 43.4629 622.906 43.3125C622.824 43.1576 622.71 43.0208 622.564 42.9023C622.419 42.7839 622.241 42.6882 622.031 42.6152C621.826 42.5423 621.594 42.5059 621.334 42.5059C621.065 42.5059 620.828 42.5355 620.623 42.5947C620.423 42.654 620.256 42.7337 620.124 42.834C619.987 42.9342 619.885 43.0505 619.816 43.1826C619.748 43.3148 619.714 43.4515 619.714 43.5928C619.714 43.7386 619.741 43.8685 619.796 43.9824C619.851 44.0964 619.946 44.1989 620.083 44.29C620.215 44.3812 620.393 44.4632 620.616 44.5361C620.844 44.609 621.131 44.6797 621.478 44.748C621.933 44.8438 622.341 44.9554 622.701 45.083C623.061 45.2061 623.364 45.3542 623.61 45.5273C623.856 45.7051 624.043 45.9102 624.171 46.1426C624.303 46.375 624.369 46.6439 624.369 46.9492C624.369 47.2773 624.294 47.5758 624.144 47.8447C623.998 48.1136 623.793 48.3438 623.528 48.5352C623.264 48.7266 622.947 48.8747 622.578 48.9795C622.209 49.0843 621.806 49.1367 621.368 49.1367C620.867 49.1367 620.42 49.0706 620.028 48.9385C619.636 48.8018 619.306 48.6217 619.037 48.3984C618.764 48.1797 618.554 47.9245 618.408 47.6328C618.267 47.3411 618.196 47.0381 618.196 46.7236H619.461C619.479 46.9834 619.548 47.2021 619.666 47.3799C619.789 47.5576 619.942 47.7012 620.124 47.8105C620.302 47.9199 620.5 47.9974 620.719 48.043C620.938 48.0885 621.154 48.1113 621.368 48.1113C621.705 48.1113 621.999 48.0726 622.25 47.9951C622.501 47.9131 622.697 47.8014 622.838 47.6602C622.924 47.5736 622.991 47.4779 623.036 47.373C623.082 47.2682 623.104 47.1566 623.104 47.0381ZM626.591 51.8438V41.6035H627.746L627.808 42.4102C627.908 42.2826 628.017 42.1686 628.136 42.0684C628.254 41.9635 628.382 41.8747 628.519 41.8018C628.71 41.6924 628.922 41.6104 629.154 41.5557C629.391 41.4964 629.644 41.4668 629.913 41.4668C630.387 41.4668 630.806 41.5602 631.171 41.7471C631.535 41.9339 631.841 42.1937 632.087 42.5264C632.333 42.859 632.52 43.2578 632.647 43.7227C632.775 44.1829 632.839 44.6888 632.839 45.2402V45.3838C632.839 45.9124 632.775 46.4069 632.647 46.8672C632.52 47.3229 632.333 47.7194 632.087 48.0566C631.841 48.3939 631.535 48.6582 631.171 48.8496C630.811 49.041 630.398 49.1367 629.934 49.1367C629.651 49.1367 629.387 49.1071 629.141 49.0479C628.899 48.9886 628.68 48.9043 628.484 48.7949C628.366 48.7266 628.254 48.6514 628.149 48.5693C628.045 48.4827 627.947 48.3893 627.855 48.2891V51.8438H626.591ZM631.574 45.2402C631.574 44.8802 631.533 44.5384 631.451 44.2148C631.374 43.8867 631.253 43.5973 631.089 43.3467C630.92 43.1006 630.708 42.9046 630.453 42.7588C630.198 42.613 629.893 42.54 629.537 42.54C629.341 42.54 629.159 42.5628 628.99 42.6084C628.826 42.654 628.678 42.7201 628.546 42.8066C628.4 42.8932 628.27 43.0003 628.156 43.1279C628.042 43.2555 627.942 43.3968 627.855 43.5518V47.1133C627.933 47.25 628.022 47.3776 628.122 47.4961C628.222 47.6146 628.336 47.7148 628.464 47.7969C628.61 47.8926 628.771 47.9678 628.949 48.0225C629.132 48.0771 629.332 48.1045 629.551 48.1045C629.902 48.1045 630.205 48.0316 630.46 47.8857C630.715 47.7354 630.925 47.5348 631.089 47.2842C631.253 47.0335 631.374 46.7441 631.451 46.416C631.533 46.0879 631.574 45.7438 631.574 45.3838V45.2402ZM639.866 49C639.816 48.9043 639.775 48.7858 639.743 48.6445C639.716 48.4987 639.695 48.3483 639.682 48.1934C639.554 48.321 639.41 48.4417 639.251 48.5557C639.096 48.6696 638.925 48.7699 638.738 48.8564C638.547 48.943 638.344 49.0114 638.13 49.0615C637.916 49.1117 637.688 49.1367 637.446 49.1367C637.054 49.1367 636.699 49.0798 636.38 48.9658C636.065 48.8519 635.799 48.6969 635.58 48.501C635.357 48.3096 635.184 48.0817 635.061 47.8174C634.942 47.5485 634.883 47.2591 634.883 46.9492C634.883 46.5436 634.963 46.1882 635.122 45.8828C635.286 45.5775 635.516 45.3223 635.812 45.1172C636.109 44.9167 636.464 44.7663 636.879 44.666C637.298 44.5658 637.765 44.5156 638.28 44.5156H639.661V43.9346C639.661 43.7113 639.62 43.5107 639.538 43.333C639.456 43.1553 639.34 43.0026 639.189 42.875C639.039 42.752 638.854 42.6562 638.636 42.5879C638.422 42.5195 638.18 42.4854 637.911 42.4854C637.66 42.4854 637.435 42.5173 637.234 42.5811C637.038 42.6449 636.872 42.7292 636.735 42.834C636.599 42.9388 636.492 43.0641 636.414 43.21C636.341 43.3512 636.305 43.4993 636.305 43.6543H635.033C635.038 43.3854 635.106 43.1211 635.238 42.8613C635.375 42.6016 635.571 42.3669 635.826 42.1572C636.077 41.9521 636.382 41.7858 636.742 41.6582C637.107 41.5306 637.519 41.4668 637.979 41.4668C638.399 41.4668 638.788 41.5192 639.148 41.624C639.508 41.7243 639.821 41.877 640.085 42.082C640.345 42.2917 640.55 42.5514 640.7 42.8613C640.851 43.1712 640.926 43.5335 640.926 43.9482V47.3867C640.926 47.6328 640.949 47.8949 640.994 48.1729C641.04 48.4463 641.104 48.6855 641.186 48.8906V49H639.866ZM637.631 48.0361C637.877 48.0361 638.107 48.0042 638.321 47.9404C638.535 47.8766 638.731 47.7923 638.909 47.6875C639.082 47.5827 639.233 47.4642 639.36 47.332C639.488 47.1953 639.588 47.054 639.661 46.9082V45.4111H638.485C638.048 45.4111 637.665 45.4499 637.337 45.5273C637.013 45.6003 636.756 45.7142 636.564 45.8691C636.428 45.9785 636.323 46.1084 636.25 46.2588C636.182 46.4092 636.147 46.5801 636.147 46.7715C636.147 46.9538 636.177 47.1224 636.236 47.2773C636.3 47.4323 636.394 47.5645 636.517 47.6738C636.64 47.7878 636.795 47.8766 636.981 47.9404C637.168 48.0042 637.385 48.0361 637.631 48.0361ZM646.565 48.1113C646.793 48.1113 647.014 48.0749 647.229 48.002C647.447 47.929 647.641 47.8265 647.81 47.6943C647.978 47.5667 648.113 47.4163 648.213 47.2432C648.318 47.0654 648.372 46.874 648.377 46.6689H649.573C649.569 46.9971 649.482 47.3115 649.313 47.6123C649.149 47.9085 648.928 48.1683 648.65 48.3916C648.372 48.6195 648.053 48.8018 647.693 48.9385C647.333 49.0706 646.957 49.1367 646.565 49.1367C646.005 49.1367 645.515 49.0365 645.096 48.8359C644.676 48.6354 644.328 48.3643 644.05 48.0225C643.767 47.6852 643.555 47.2956 643.414 46.8535C643.273 46.4069 643.202 45.9375 643.202 45.4453V45.1582C643.202 44.6706 643.273 44.2035 643.414 43.7568C643.555 43.3102 643.767 42.916 644.05 42.5742C644.328 42.237 644.676 41.9681 645.096 41.7676C645.515 41.5671 646.005 41.4668 646.565 41.4668C647.003 41.4668 647.404 41.5374 647.769 41.6787C648.138 41.8154 648.457 42.0023 648.726 42.2393C648.99 42.4808 649.197 42.7656 649.348 43.0938C649.498 43.4219 649.573 43.7728 649.573 44.1465H648.377C648.372 43.9232 648.322 43.7135 648.227 43.5176C648.135 43.3171 648.01 43.1416 647.851 42.9912C647.691 42.8408 647.5 42.7223 647.276 42.6357C647.058 42.5492 646.821 42.5059 646.565 42.5059C646.174 42.5059 645.843 42.5856 645.574 42.7451C645.31 42.9001 645.096 43.1029 644.932 43.3535C644.768 43.6087 644.649 43.8936 644.576 44.208C644.508 44.5225 644.474 44.8392 644.474 45.1582V45.4453C644.474 45.7689 644.508 46.0902 644.576 46.4092C644.649 46.7236 644.768 47.0062 644.932 47.2568C645.091 47.512 645.303 47.7194 645.567 47.8789C645.836 48.0339 646.169 48.1113 646.565 48.1113ZM652.021 41.6035H655.801V47.9062H658.214V49H652.021V47.9062H654.536V42.7041H652.021V41.6035ZM654.372 39.6621C654.372 39.5527 654.388 39.4502 654.42 39.3545C654.456 39.2588 654.511 39.1768 654.584 39.1084C654.643 39.0492 654.718 39.0036 654.81 38.9717C654.905 38.9352 655.012 38.917 655.131 38.917C655.249 38.917 655.354 38.9352 655.445 38.9717C655.536 39.0036 655.612 39.0492 655.671 39.1084C655.744 39.1722 655.799 39.252 655.835 39.3477C655.871 39.4434 655.89 39.5482 655.89 39.6621C655.89 39.8672 655.826 40.0381 655.698 40.1748C655.571 40.3115 655.382 40.3799 655.131 40.3799C654.876 40.3799 654.684 40.3115 654.557 40.1748C654.434 40.0381 654.372 39.8672 654.372 39.6621ZM660.23 49V41.6035H661.365L661.454 42.6973C661.563 42.5423 661.682 42.401 661.81 42.2734C661.942 42.1413 662.081 42.0273 662.227 41.9316C662.445 41.7858 662.682 41.6742 662.938 41.5967C663.197 41.5146 663.471 41.4714 663.758 41.4668C664.145 41.4668 664.496 41.5215 664.811 41.6309C665.13 41.7402 665.401 41.9111 665.624 42.1436C665.847 42.376 666.018 42.6722 666.137 43.0322C666.26 43.3877 666.321 43.8115 666.321 44.3037V49H665.057V44.3311C665.057 44.0029 665.02 43.7249 664.947 43.4971C664.874 43.2692 664.767 43.0846 664.626 42.9434C664.48 42.8021 664.302 42.6995 664.093 42.6357C663.888 42.5719 663.651 42.54 663.382 42.54C663.149 42.54 662.933 42.5742 662.732 42.6426C662.532 42.7064 662.347 42.7952 662.179 42.9092C662.042 43.0094 661.914 43.1257 661.796 43.2578C661.682 43.39 661.582 43.5358 661.495 43.6953V49H660.23ZM668.406 45.2402C668.406 44.6888 668.472 44.1829 668.604 43.7227C668.741 43.2578 668.937 42.859 669.192 42.5264C669.448 42.1937 669.757 41.9339 670.122 41.7471C670.487 41.5602 670.899 41.4668 671.359 41.4668C671.656 41.4668 671.927 41.501 672.173 41.5693C672.424 41.6377 672.649 41.738 672.85 41.8701C672.959 41.9385 673.062 42.0182 673.157 42.1094C673.257 42.2005 673.351 42.3008 673.438 42.4102L673.499 41.6035H674.647V48.8428C674.647 49.3304 674.57 49.7633 674.415 50.1416C674.265 50.5199 674.053 50.8411 673.779 51.1055C673.501 51.3698 673.171 51.5703 672.788 51.707C672.405 51.8438 671.981 51.9121 671.517 51.9121C671.325 51.9121 671.106 51.8893 670.86 51.8438C670.614 51.8027 670.366 51.7321 670.115 51.6318C669.86 51.5361 669.614 51.4062 669.377 51.2422C669.145 51.0781 668.944 50.8753 668.775 50.6338L669.432 49.875C669.587 50.0618 669.746 50.2191 669.91 50.3467C670.074 50.4788 670.241 50.5837 670.409 50.6611C670.578 50.7386 670.746 50.7933 670.915 50.8252C671.084 50.8617 671.252 50.8799 671.421 50.8799C671.722 50.8799 671.993 50.8366 672.234 50.75C672.476 50.6634 672.683 50.5358 672.856 50.3672C673.025 50.2031 673.155 49.998 673.246 49.752C673.337 49.5059 673.383 49.2233 673.383 48.9043V48.2686C673.287 48.3779 673.185 48.4782 673.075 48.5693C672.97 48.6605 672.856 48.7402 672.733 48.8086C672.542 48.9134 672.33 48.9932 672.098 49.0479C671.865 49.1071 671.615 49.1367 671.346 49.1367C670.895 49.1367 670.487 49.041 670.122 48.8496C669.757 48.6582 669.45 48.3939 669.199 48.0566C668.944 47.7194 668.748 47.3229 668.611 46.8672C668.475 46.4069 668.406 45.9124 668.406 45.3838V45.2402ZM669.671 45.3838C669.671 45.7438 669.707 46.0856 669.78 46.4092C669.858 46.7327 669.979 47.0176 670.143 47.2637C670.302 47.5098 670.507 47.7057 670.758 47.8516C671.008 47.9928 671.309 48.0635 671.66 48.0635C671.879 48.0635 672.075 48.0384 672.248 47.9883C672.426 47.9336 672.585 47.8584 672.727 47.7627C672.863 47.667 672.986 47.5531 673.096 47.4209C673.205 47.2887 673.301 47.1429 673.383 46.9834V43.5928C673.301 43.4378 673.205 43.2965 673.096 43.1689C672.986 43.0413 672.861 42.9297 672.72 42.834C672.578 42.7428 672.421 42.6722 672.248 42.6221C672.075 42.5674 671.883 42.54 671.674 42.54C671.318 42.54 671.013 42.613 670.758 42.7588C670.507 42.9046 670.302 43.1006 670.143 43.3467C669.979 43.5973 669.858 43.8867 669.78 44.2148C669.707 44.5384 669.671 44.8802 669.671 45.2402V45.3838Z" fill="#201F1F"/>
</svg>
