<svg viewBox="0 0 20 20" fill="none" xmlns="http://www.w3.org/2000/svg">
<path d="M9.99996 14.5833C11.0416 14.5833 11.927 14.2188 12.6562 13.4896C13.3854 12.7604 13.75 11.875 13.75 10.8333C13.75 9.79167 13.3854 8.90625 12.6562 8.17708C11.927 7.44792 11.0416 7.08333 9.99996 7.08333C8.95829 7.08333 8.07288 7.44792 7.34371 8.17708C6.61454 8.90625 6.24996 9.79167 6.24996 10.8333C6.24996 11.875 6.61454 12.7604 7.34371 13.4896C8.07288 14.2188 8.95829 14.5833 9.99996 14.5833ZM9.99996 12.9167C9.41663 12.9167 8.92357 12.7153 8.52079 12.3125C8.11801 11.9097 7.91663 11.4167 7.91663 10.8333C7.91663 10.25 8.11801 9.75694 8.52079 9.35417C8.92357 8.95139 9.41663 8.75 9.99996 8.75C10.5833 8.75 11.0763 8.95139 11.4791 9.35417C11.8819 9.75694 12.0833 10.25 12.0833 10.8333C12.0833 11.4167 11.8819 11.9097 11.4791 12.3125C11.0763 12.7153 10.5833 12.9167 9.99996 12.9167ZM3.33329 17.5C2.87496 17.5 2.4826 17.3368 2.15621 17.0104C1.82982 16.684 1.66663 16.2917 1.66663 15.8333V5.83333C1.66663 5.375 1.82982 4.98264 2.15621 4.65625C2.4826 4.32986 2.87496 4.16667 3.33329 4.16667H5.95829L6.99996 3.04167C7.15274 2.875 7.33676 2.74306 7.55204 2.64583C7.76732 2.54861 7.99301 2.5 8.22913 2.5H11.7708C12.0069 2.5 12.2326 2.54861 12.4479 2.64583C12.6632 2.74306 12.8472 2.875 13 3.04167L14.0416 4.16667H16.6666C17.125 4.16667 17.5173 4.32986 17.8437 4.65625C18.1701 4.98264 18.3333 5.375 18.3333 5.83333V15.8333C18.3333 16.2917 18.1701 16.684 17.8437 17.0104C17.5173 17.3368 17.125 17.5 16.6666 17.5H3.33329Z" fill="currentColor"/>
</svg>