<svg width="712" height="396" viewBox="0 0 712 396" fill="none" xmlns="http://www.w3.org/2000/svg">
<g clip-path="url(#clip0_968_9544)">
<path d="M0 8.00001C0 3.58173 3.58172 0 8 0H704C708.418 0 712 3.58172 712 8V388C712 392.418 708.418 396 704 396H8C3.58172 396 0 392.418 0 388V8.00001Z" fill="white"/>
<path d="M277.312 60C276.88 60 276.544 59.888 276.304 59.664C276.08 59.424 275.968 59.088 275.968 58.656V44.424C275.968 43.992 276.08 43.664 276.304 43.44C276.544 43.2 276.88 43.08 277.312 43.08H283.024C284.192 43.08 285.184 43.256 286 43.608C286.832 43.96 287.464 44.464 287.896 45.12C288.344 45.776 288.568 46.568 288.568 47.496C288.568 48.52 288.264 49.384 287.656 50.088C287.048 50.792 286.224 51.264 285.184 51.504V51.144C286.368 51.304 287.296 51.752 287.968 52.488C288.64 53.208 288.976 54.152 288.976 55.32C288.976 56.824 288.48 57.984 287.488 58.8C286.496 59.6 285.104 60 283.312 60H277.312ZM278.368 58.08H283.024C284.224 58.08 285.112 57.848 285.688 57.384C286.264 56.904 286.552 56.184 286.552 55.224C286.552 54.264 286.264 53.552 285.688 53.088C285.112 52.624 284.224 52.392 283.024 52.392H278.368V58.08ZM278.368 50.472H282.64C283.792 50.472 284.664 50.24 285.256 49.776C285.848 49.312 286.144 48.632 286.144 47.736C286.144 46.84 285.848 46.16 285.256 45.696C284.664 45.232 283.792 45 282.64 45H278.368V50.472ZM292.787 60.168C292.387 60.168 292.083 60.064 291.875 59.856C291.667 59.632 291.563 59.328 291.563 58.944V49.344C291.563 48.944 291.667 48.64 291.875 48.432C292.083 48.224 292.371 48.12 292.739 48.12C293.123 48.12 293.411 48.224 293.603 48.432C293.811 48.64 293.915 48.944 293.915 49.344V51.096H293.675C293.931 50.136 294.403 49.408 295.091 48.912C295.779 48.416 296.659 48.128 297.731 48.048C298.019 48.032 298.243 48.104 298.403 48.264C298.579 48.424 298.675 48.672 298.691 49.008C298.723 49.344 298.651 49.616 298.475 49.824C298.299 50.016 298.027 50.128 297.659 50.16L297.203 50.208C296.163 50.304 295.371 50.632 294.827 51.192C294.283 51.752 294.011 52.52 294.011 53.496V58.944C294.011 59.328 293.907 59.632 293.699 59.856C293.507 60.064 293.203 60.168 292.787 60.168ZM303.643 60.216C302.827 60.216 302.091 60.056 301.435 59.736C300.795 59.416 300.291 58.984 299.923 58.44C299.555 57.896 299.371 57.28 299.371 56.592C299.371 55.728 299.587 55.048 300.019 54.552C300.467 54.04 301.195 53.68 302.203 53.472C303.227 53.248 304.603 53.136 306.331 53.136H307.459V54.624H306.355C305.203 54.624 304.291 54.68 303.619 54.792C302.947 54.904 302.467 55.096 302.179 55.368C301.907 55.624 301.771 55.984 301.771 56.448C301.771 57.056 301.979 57.552 302.395 57.936C302.811 58.304 303.387 58.488 304.123 58.488C304.715 58.488 305.235 58.352 305.683 58.08C306.131 57.792 306.483 57.408 306.739 56.928C307.011 56.448 307.147 55.896 307.147 55.272V52.512C307.147 51.6 306.955 50.944 306.571 50.544C306.187 50.144 305.555 49.944 304.675 49.944C304.163 49.944 303.627 50.008 303.067 50.136C302.523 50.264 301.955 50.48 301.363 50.784C301.091 50.912 300.859 50.952 300.667 50.904C300.475 50.856 300.323 50.752 300.211 50.592C300.099 50.416 300.035 50.232 300.019 50.04C300.019 49.832 300.067 49.632 300.163 49.44C300.275 49.248 300.459 49.104 300.715 49.008C301.419 48.672 302.115 48.432 302.803 48.288C303.491 48.144 304.139 48.072 304.747 48.072C305.819 48.072 306.699 48.24 307.387 48.576C308.091 48.912 308.611 49.424 308.947 50.112C309.283 50.8 309.451 51.688 309.451 52.776V58.944C309.451 59.328 309.355 59.632 309.163 59.856C308.971 60.064 308.691 60.168 308.323 60.168C307.971 60.168 307.691 60.064 307.483 59.856C307.275 59.632 307.171 59.328 307.171 58.944V57.384H307.387C307.259 57.976 307.019 58.488 306.667 58.92C306.331 59.336 305.907 59.656 305.395 59.88C304.883 60.104 304.299 60.216 303.643 60.216ZM313.49 60.168C313.106 60.168 312.81 60.064 312.602 59.856C312.394 59.632 312.29 59.328 312.29 58.944V49.344C312.29 48.944 312.394 48.64 312.602 48.432C312.81 48.224 313.098 48.12 313.466 48.12C313.85 48.12 314.138 48.224 314.33 48.432C314.538 48.64 314.642 48.944 314.642 49.344V51.216L314.378 50.784C314.73 49.888 315.282 49.216 316.034 48.768C316.786 48.304 317.65 48.072 318.626 48.072C319.554 48.072 320.322 48.248 320.93 48.6C321.554 48.936 322.018 49.456 322.322 50.16C322.626 50.848 322.778 51.72 322.778 52.776V58.944C322.778 59.328 322.674 59.632 322.466 59.856C322.258 60.064 321.962 60.168 321.578 60.168C321.178 60.168 320.874 60.064 320.666 59.856C320.458 59.632 320.354 59.328 320.354 58.944V52.92C320.354 51.912 320.154 51.176 319.754 50.712C319.37 50.248 318.762 50.016 317.93 50.016C316.954 50.016 316.17 50.32 315.578 50.928C315.002 51.536 314.714 52.352 314.714 53.376V58.944C314.714 59.76 314.306 60.168 313.49 60.168ZM330.082 60.216C329.058 60.216 328.154 59.976 327.37 59.496C326.602 59 326.002 58.296 325.57 57.384C325.138 56.456 324.922 55.376 324.922 54.144C324.922 52.88 325.138 51.8 325.57 50.904C326.002 50.008 326.602 49.312 327.37 48.816C328.154 48.32 329.058 48.072 330.082 48.072C331.106 48.072 331.986 48.328 332.722 48.84C333.474 49.336 333.978 50.008 334.234 50.856H333.97V44.136C333.97 43.736 334.074 43.432 334.282 43.224C334.49 43.016 334.786 42.912 335.17 42.912C335.554 42.912 335.85 43.016 336.058 43.224C336.282 43.432 336.394 43.736 336.394 44.136V58.944C336.394 59.328 336.29 59.632 336.082 59.856C335.874 60.064 335.578 60.168 335.194 60.168C334.81 60.168 334.514 60.064 334.306 59.856C334.098 59.632 333.994 59.328 333.994 58.944V56.832L334.258 57.36C334.002 58.224 333.498 58.92 332.746 59.448C332.01 59.96 331.122 60.216 330.082 60.216ZM330.706 58.344C331.362 58.344 331.938 58.184 332.434 57.864C332.93 57.544 333.314 57.072 333.586 56.448C333.874 55.824 334.018 55.056 334.018 54.144C334.018 52.768 333.714 51.728 333.106 51.024C332.498 50.32 331.698 49.968 330.706 49.968C330.034 49.968 329.45 50.128 328.954 50.448C328.458 50.752 328.066 51.216 327.778 51.84C327.506 52.464 327.37 53.232 327.37 54.144C327.37 55.504 327.674 56.544 328.282 57.264C328.89 57.984 329.698 58.344 330.706 58.344ZM349.23 60.216C348.526 60.216 347.798 60.136 347.046 59.976C346.31 59.816 345.63 59.544 345.006 59.16C344.798 59.016 344.654 58.856 344.574 58.68C344.494 58.504 344.462 58.328 344.478 58.152C344.51 57.96 344.582 57.8 344.694 57.672C344.822 57.528 344.974 57.44 345.15 57.408C345.342 57.376 345.542 57.416 345.75 57.528C346.374 57.88 346.974 58.128 347.55 58.272C348.126 58.4 348.694 58.464 349.254 58.464C350.102 58.464 350.742 58.312 351.174 58.008C351.606 57.704 351.822 57.296 351.822 56.784C351.822 56.368 351.678 56.048 351.39 55.824C351.102 55.584 350.67 55.4 350.094 55.272L347.814 54.816C346.822 54.608 346.07 54.24 345.558 53.712C345.046 53.184 344.79 52.512 344.79 51.696C344.79 50.96 344.99 50.32 345.39 49.776C345.79 49.232 346.35 48.816 347.07 48.528C347.79 48.224 348.622 48.072 349.566 48.072C350.27 48.072 350.934 48.16 351.558 48.336C352.182 48.512 352.758 48.776 353.286 49.128C353.494 49.24 353.63 49.392 353.694 49.584C353.758 49.76 353.766 49.936 353.718 50.112C353.686 50.288 353.606 50.448 353.478 50.592C353.35 50.72 353.19 50.8 352.998 50.832C352.822 50.848 352.622 50.8 352.398 50.688C351.918 50.384 351.438 50.168 350.958 50.04C350.494 49.912 350.03 49.848 349.566 49.848C348.718 49.848 348.078 50.008 347.646 50.328C347.23 50.632 347.022 51.048 347.022 51.576C347.022 51.976 347.15 52.304 347.406 52.56C347.662 52.816 348.062 53 348.606 53.112L350.886 53.568C351.926 53.776 352.71 54.128 353.238 54.624C353.782 55.12 354.054 55.792 354.054 56.64C354.054 57.744 353.614 58.616 352.734 59.256C351.854 59.896 350.686 60.216 349.23 60.216ZM357.451 60.168C357.067 60.168 356.771 60.064 356.563 59.856C356.355 59.632 356.251 59.328 356.251 58.944V44.136C356.251 43.736 356.355 43.432 356.563 43.224C356.771 43.016 357.067 42.912 357.451 42.912C357.835 42.912 358.131 43.016 358.339 43.224C358.563 43.432 358.675 43.736 358.675 44.136V50.784H358.339C358.691 49.888 359.243 49.216 359.995 48.768C360.747 48.304 361.611 48.072 362.587 48.072C363.515 48.072 364.283 48.248 364.891 48.6C365.515 48.936 365.979 49.456 366.283 50.16C366.587 50.848 366.739 51.72 366.739 52.776V58.944C366.739 59.328 366.635 59.632 366.427 59.856C366.219 60.064 365.923 60.168 365.539 60.168C365.139 60.168 364.835 60.064 364.627 59.856C364.419 59.632 364.315 59.328 364.315 58.944V52.92C364.315 51.912 364.115 51.176 363.715 50.712C363.331 50.248 362.723 50.016 361.891 50.016C360.915 50.016 360.131 50.32 359.539 50.928C358.963 51.536 358.675 52.352 358.675 53.376V58.944C358.675 59.76 358.267 60.168 357.451 60.168ZM373.323 60.216C372.507 60.216 371.771 60.056 371.115 59.736C370.475 59.416 369.971 58.984 369.603 58.44C369.235 57.896 369.051 57.28 369.051 56.592C369.051 55.728 369.267 55.048 369.699 54.552C370.147 54.04 370.875 53.68 371.883 53.472C372.907 53.248 374.283 53.136 376.011 53.136H377.139V54.624H376.035C374.883 54.624 373.971 54.68 373.299 54.792C372.627 54.904 372.147 55.096 371.859 55.368C371.587 55.624 371.451 55.984 371.451 56.448C371.451 57.056 371.659 57.552 372.075 57.936C372.491 58.304 373.067 58.488 373.803 58.488C374.395 58.488 374.915 58.352 375.363 58.08C375.811 57.792 376.163 57.408 376.419 56.928C376.691 56.448 376.827 55.896 376.827 55.272V52.512C376.827 51.6 376.635 50.944 376.251 50.544C375.867 50.144 375.235 49.944 374.355 49.944C373.843 49.944 373.307 50.008 372.747 50.136C372.203 50.264 371.635 50.48 371.043 50.784C370.771 50.912 370.539 50.952 370.347 50.904C370.155 50.856 370.003 50.752 369.891 50.592C369.779 50.416 369.715 50.232 369.699 50.04C369.699 49.832 369.747 49.632 369.843 49.44C369.955 49.248 370.139 49.104 370.395 49.008C371.099 48.672 371.795 48.432 372.483 48.288C373.171 48.144 373.819 48.072 374.427 48.072C375.499 48.072 376.379 48.24 377.067 48.576C377.771 48.912 378.291 49.424 378.627 50.112C378.963 50.8 379.131 51.688 379.131 52.776V58.944C379.131 59.328 379.035 59.632 378.843 59.856C378.651 60.064 378.371 60.168 378.003 60.168C377.651 60.168 377.371 60.064 377.163 59.856C376.955 59.632 376.851 59.328 376.851 58.944V57.384H377.067C376.939 57.976 376.699 58.488 376.347 58.92C376.011 59.336 375.587 59.656 375.075 59.88C374.563 60.104 373.979 60.216 373.323 60.216ZM386.434 60.216C385.41 60.216 384.506 59.976 383.722 59.496C382.954 59 382.354 58.296 381.922 57.384C381.49 56.456 381.274 55.376 381.274 54.144C381.274 52.88 381.49 51.8 381.922 50.904C382.354 50.008 382.954 49.312 383.722 48.816C384.506 48.32 385.41 48.072 386.434 48.072C387.458 48.072 388.338 48.328 389.074 48.84C389.826 49.336 390.33 50.008 390.586 50.856H390.322V44.136C390.322 43.736 390.426 43.432 390.634 43.224C390.842 43.016 391.138 42.912 391.522 42.912C391.906 42.912 392.202 43.016 392.41 43.224C392.634 43.432 392.746 43.736 392.746 44.136V58.944C392.746 59.328 392.642 59.632 392.434 59.856C392.226 60.064 391.93 60.168 391.546 60.168C391.162 60.168 390.866 60.064 390.658 59.856C390.45 59.632 390.346 59.328 390.346 58.944V56.832L390.61 57.36C390.354 58.224 389.85 58.92 389.098 59.448C388.362 59.96 387.474 60.216 386.434 60.216ZM387.058 58.344C387.714 58.344 388.29 58.184 388.786 57.864C389.282 57.544 389.666 57.072 389.938 56.448C390.226 55.824 390.37 55.056 390.37 54.144C390.37 52.768 390.066 51.728 389.458 51.024C388.85 50.32 388.05 49.968 387.058 49.968C386.386 49.968 385.802 50.128 385.306 50.448C384.81 50.752 384.418 51.216 384.13 51.84C383.858 52.464 383.722 53.232 383.722 54.144C383.722 55.504 384.026 56.544 384.634 57.264C385.242 57.984 386.05 58.344 387.058 58.344ZM400.737 60.216C399.553 60.216 398.529 59.968 397.665 59.472C396.817 58.976 396.153 58.272 395.673 57.36C395.193 56.448 394.953 55.376 394.953 54.144C394.953 53.2 395.089 52.36 395.361 51.624C395.633 50.888 396.017 50.256 396.513 49.728C397.025 49.184 397.633 48.776 398.337 48.504C399.057 48.216 399.857 48.072 400.737 48.072C401.905 48.072 402.913 48.32 403.761 48.816C404.625 49.312 405.297 50.016 405.777 50.928C406.257 51.824 406.497 52.896 406.497 54.144C406.497 55.072 406.361 55.912 406.089 56.664C405.817 57.416 405.425 58.056 404.913 58.584C404.417 59.112 403.809 59.52 403.089 59.808C402.385 60.08 401.601 60.216 400.737 60.216ZM400.737 58.344C401.393 58.344 401.969 58.184 402.465 57.864C402.961 57.544 403.345 57.072 403.617 56.448C403.905 55.824 404.049 55.056 404.049 54.144C404.049 52.768 403.745 51.728 403.137 51.024C402.529 50.32 401.729 49.968 400.737 49.968C400.065 49.968 399.481 50.128 398.985 50.448C398.489 50.752 398.097 51.216 397.809 51.84C397.537 52.464 397.401 53.232 397.401 54.144C397.401 55.504 397.705 56.544 398.313 57.264C398.921 57.984 399.729 58.344 400.737 58.344ZM412.781 60.168C412.445 60.168 412.149 60.088 411.893 59.928C411.653 59.752 411.461 59.48 411.317 59.112L407.789 49.776C407.661 49.456 407.621 49.176 407.669 48.936C407.717 48.68 407.837 48.48 408.029 48.336C408.237 48.192 408.501 48.12 408.821 48.12C409.109 48.12 409.341 48.192 409.517 48.336C409.709 48.464 409.869 48.72 409.997 49.104L413.141 57.96H412.565L415.829 49.008C415.941 48.704 416.093 48.48 416.285 48.336C416.477 48.192 416.725 48.12 417.029 48.12C417.333 48.12 417.581 48.192 417.773 48.336C417.981 48.48 418.133 48.704 418.229 49.008L421.421 57.96H420.893L424.085 49.056C424.213 48.688 424.373 48.44 424.565 48.312C424.773 48.184 425.005 48.12 425.261 48.12C425.581 48.12 425.821 48.2 425.981 48.36C426.157 48.52 426.253 48.728 426.269 48.984C426.301 49.224 426.261 49.488 426.149 49.776L422.621 59.112C422.477 59.464 422.277 59.728 422.021 59.904C421.781 60.08 421.501 60.168 421.181 60.168C420.845 60.168 420.549 60.08 420.293 59.904C420.053 59.728 419.861 59.464 419.717 59.112L416.357 50.016H417.557L414.221 59.112C414.093 59.464 413.901 59.728 413.645 59.904C413.405 60.08 413.117 60.168 412.781 60.168ZM432.175 60.216C431.471 60.216 430.743 60.136 429.991 59.976C429.255 59.816 428.575 59.544 427.951 59.16C427.743 59.016 427.599 58.856 427.519 58.68C427.439 58.504 427.407 58.328 427.423 58.152C427.455 57.96 427.527 57.8 427.639 57.672C427.767 57.528 427.919 57.44 428.095 57.408C428.287 57.376 428.487 57.416 428.695 57.528C429.319 57.88 429.919 58.128 430.495 58.272C431.071 58.4 431.639 58.464 432.199 58.464C433.047 58.464 433.687 58.312 434.119 58.008C434.551 57.704 434.767 57.296 434.767 56.784C434.767 56.368 434.623 56.048 434.335 55.824C434.047 55.584 433.615 55.4 433.039 55.272L430.759 54.816C429.767 54.608 429.015 54.24 428.503 53.712C427.991 53.184 427.735 52.512 427.735 51.696C427.735 50.96 427.935 50.32 428.335 49.776C428.735 49.232 429.295 48.816 430.015 48.528C430.735 48.224 431.567 48.072 432.511 48.072C433.215 48.072 433.879 48.16 434.503 48.336C435.127 48.512 435.703 48.776 436.231 49.128C436.439 49.24 436.575 49.392 436.639 49.584C436.703 49.76 436.711 49.936 436.663 50.112C436.631 50.288 436.551 50.448 436.423 50.592C436.295 50.72 436.135 50.8 435.943 50.832C435.767 50.848 435.567 50.8 435.343 50.688C434.863 50.384 434.383 50.168 433.903 50.04C433.439 49.912 432.975 49.848 432.511 49.848C431.663 49.848 431.023 50.008 430.591 50.328C430.175 50.632 429.967 51.048 429.967 51.576C429.967 51.976 430.095 52.304 430.351 52.56C430.607 52.816 431.007 53 431.551 53.112L433.831 53.568C434.871 53.776 435.655 54.128 436.183 54.624C436.727 55.12 436.999 55.792 436.999 56.64C436.999 57.744 436.559 58.616 435.679 59.256C434.799 59.896 433.631 60.216 432.175 60.216Z" fill="#201F1F"/>
<path d="M67.4572 110V98.5469H68.9728V110H67.4572ZM71.4728 110V101.703H72.7384V102.883C73.3478 101.971 74.228 101.516 75.3791 101.516C75.8791 101.516 76.3374 101.607 76.7541 101.789C77.1759 101.966 77.491 102.201 77.6994 102.492C77.9077 102.784 78.0535 103.13 78.1369 103.531C78.189 103.792 78.215 104.247 78.215 104.898V110H76.8088V104.953C76.8088 104.38 76.7541 103.953 76.6447 103.672C76.5353 103.385 76.34 103.159 76.0588 102.992C75.7827 102.82 75.4572 102.734 75.0822 102.734C74.4832 102.734 73.965 102.924 73.5275 103.305C73.0952 103.685 72.8791 104.406 72.8791 105.469V110H71.4728ZM80.3791 110V101.703H81.6447V102.883C82.2541 101.971 83.1343 101.516 84.2853 101.516C84.7853 101.516 85.2436 101.607 85.6603 101.789C86.0822 101.966 86.3973 102.201 86.6056 102.492C86.814 102.784 86.9598 103.13 87.0431 103.531C87.0952 103.792 87.1213 104.247 87.1213 104.898V110H85.715V104.953C85.715 104.38 85.6603 103.953 85.5509 103.672C85.4416 103.385 85.2463 103.159 84.965 102.992C84.689 102.82 84.3634 102.734 83.9884 102.734C83.3895 102.734 82.8713 102.924 82.4338 103.305C82.0015 103.685 81.7853 104.406 81.7853 105.469V110H80.3791ZM94.965 107.328L96.4181 107.508C96.189 108.357 95.7645 109.016 95.1447 109.484C94.5249 109.953 93.7332 110.188 92.7697 110.188C91.5561 110.188 90.5926 109.815 89.8791 109.07C89.1707 108.32 88.8166 107.271 88.8166 105.922C88.8166 104.526 89.1759 103.443 89.8947 102.672C90.6134 101.901 91.5457 101.516 92.6916 101.516C93.8009 101.516 94.7072 101.893 95.4103 102.648C96.1134 103.404 96.465 104.466 96.465 105.836C96.465 105.919 96.4624 106.044 96.4572 106.211H90.2697C90.3218 107.122 90.5796 107.82 91.0431 108.305C91.5067 108.789 92.0848 109.031 92.7775 109.031C93.2931 109.031 93.7332 108.896 94.0978 108.625C94.4624 108.354 94.7515 107.922 94.965 107.328ZM90.3478 105.055H94.9806C94.9181 104.357 94.741 103.833 94.4494 103.484C94.0015 102.943 93.4207 102.672 92.7072 102.672C92.0614 102.672 91.5171 102.888 91.0744 103.32C90.6369 103.753 90.3947 104.331 90.3478 105.055ZM98.1759 110V101.703H99.4416V102.961C99.7645 102.372 100.061 101.984 100.332 101.797C100.608 101.609 100.91 101.516 101.238 101.516C101.712 101.516 102.194 101.667 102.684 101.969L102.199 103.273C101.856 103.07 101.512 102.969 101.168 102.969C100.861 102.969 100.585 103.062 100.34 103.25C100.095 103.432 99.9207 103.688 99.8166 104.016C99.6603 104.516 99.5822 105.062 99.5822 105.656V110H98.1759ZM56.0041 130.32L57.4338 130.195C57.5015 130.768 57.6577 131.24 57.9025 131.609C58.1525 131.974 58.5379 132.271 59.0588 132.5C59.5796 132.724 60.1655 132.836 60.8166 132.836C61.3947 132.836 61.9051 132.75 62.3478 132.578C62.7905 132.406 63.1186 132.172 63.3322 131.875C63.5509 131.573 63.6603 131.245 63.6603 130.891C63.6603 130.531 63.5561 130.219 63.3478 129.953C63.1395 129.682 62.7957 129.456 62.3166 129.273C62.0093 129.154 61.3296 128.969 60.2775 128.719C59.2254 128.464 58.4884 128.224 58.0666 128C57.5197 127.714 57.1108 127.359 56.84 126.938C56.5744 126.51 56.4416 126.034 56.4416 125.508C56.4416 124.93 56.6056 124.391 56.9338 123.891C57.2619 123.385 57.741 123.003 58.3713 122.742C59.0015 122.482 59.702 122.352 60.4728 122.352C61.3218 122.352 62.0692 122.49 62.715 122.766C63.366 123.036 63.866 123.438 64.215 123.969C64.564 124.5 64.7515 125.102 64.7775 125.773L63.3244 125.883C63.2463 125.159 62.9806 124.612 62.5275 124.242C62.0796 123.872 61.4155 123.688 60.5353 123.688C59.6186 123.688 58.9494 123.857 58.5275 124.195C58.1108 124.529 57.9025 124.932 57.9025 125.406C57.9025 125.818 58.0509 126.156 58.3478 126.422C58.6395 126.688 59.3999 126.961 60.6291 127.242C61.8634 127.518 62.7098 127.76 63.1681 127.969C63.8348 128.276 64.327 128.667 64.6447 129.141C64.9624 129.609 65.1213 130.151 65.1213 130.766C65.1213 131.375 64.9468 131.951 64.5978 132.492C64.2489 133.029 63.7463 133.448 63.09 133.75C62.439 134.047 61.7046 134.195 60.8869 134.195C59.8504 134.195 58.9806 134.044 58.2775 133.742C57.5796 133.44 57.0301 132.987 56.6291 132.383C56.2332 131.773 56.0249 131.086 56.0041 130.32ZM67.0119 134V122.547H68.4181V126.656C69.0744 125.896 69.9025 125.516 70.9025 125.516C71.5171 125.516 72.0509 125.638 72.5041 125.883C72.9572 126.122 73.2801 126.456 73.4728 126.883C73.6707 127.31 73.7697 127.93 73.7697 128.742V134H72.3634V128.742C72.3634 128.039 72.2098 127.529 71.9025 127.211C71.6004 126.888 71.1707 126.727 70.6134 126.727C70.1968 126.727 69.8035 126.836 69.4338 127.055C69.0692 127.268 68.8088 127.56 68.6525 127.93C68.4963 128.299 68.4181 128.81 68.4181 129.461V134H67.0119ZM81.3322 132.977C80.8114 133.419 80.3088 133.732 79.8244 133.914C79.3452 134.096 78.8296 134.188 78.2775 134.188C77.366 134.188 76.6655 133.966 76.1759 133.523C75.6864 133.076 75.4416 132.505 75.4416 131.812C75.4416 131.406 75.5327 131.036 75.715 130.703C75.9025 130.365 76.1447 130.094 76.4416 129.891C76.7436 129.688 77.0822 129.534 77.4572 129.43C77.7332 129.357 78.1499 129.286 78.7072 129.219C79.8426 129.083 80.6785 128.922 81.215 128.734C81.2202 128.542 81.2228 128.419 81.2228 128.367C81.2228 127.794 81.09 127.391 80.8244 127.156C80.465 126.839 79.9311 126.68 79.2228 126.68C78.5614 126.68 78.0718 126.797 77.7541 127.031C77.4416 127.26 77.2098 127.669 77.0588 128.258L75.6838 128.07C75.8088 127.482 76.0145 127.008 76.3009 126.648C76.5874 126.284 77.0015 126.005 77.5431 125.812C78.0848 125.615 78.7124 125.516 79.4259 125.516C80.1343 125.516 80.7098 125.599 81.1525 125.766C81.5952 125.932 81.9207 126.143 82.1291 126.398C82.3374 126.648 82.4832 126.966 82.5666 127.352C82.6134 127.591 82.6369 128.023 82.6369 128.648V130.523C82.6369 131.831 82.6655 132.659 82.7228 133.008C82.7853 133.352 82.9051 133.682 83.0822 134H81.6134C81.4676 133.708 81.3739 133.367 81.3322 132.977ZM81.215 129.836C80.7046 130.044 79.939 130.221 78.9181 130.367C78.34 130.451 77.9311 130.544 77.6916 130.648C77.452 130.753 77.2671 130.906 77.1369 131.109C77.0067 131.307 76.9416 131.529 76.9416 131.773C76.9416 132.148 77.0822 132.461 77.3634 132.711C77.6499 132.961 78.0666 133.086 78.6134 133.086C79.1551 133.086 79.6369 132.969 80.0588 132.734C80.4806 132.495 80.7905 132.169 80.9884 131.758C81.1395 131.44 81.215 130.971 81.215 130.352V129.836ZM90.2072 134V132.953C89.6811 133.776 88.9077 134.188 87.8869 134.188C87.2254 134.188 86.616 134.005 86.0588 133.641C85.5067 133.276 85.077 132.768 84.7697 132.117C84.4676 131.461 84.3166 130.708 84.3166 129.859C84.3166 129.031 84.4546 128.281 84.7306 127.609C85.0067 126.932 85.4207 126.414 85.9728 126.055C86.5249 125.695 87.1421 125.516 87.8244 125.516C88.3244 125.516 88.7697 125.622 89.1603 125.836C89.5509 126.044 89.8686 126.318 90.1134 126.656V122.547H91.5119V134H90.2072ZM85.7619 129.859C85.7619 130.922 85.9858 131.716 86.4338 132.242C86.8817 132.768 87.4103 133.031 88.0197 133.031C88.6343 133.031 89.1551 132.781 89.5822 132.281C90.0145 131.776 90.2306 131.008 90.2306 129.977C90.2306 128.841 90.0119 128.008 89.5744 127.477C89.1369 126.945 88.5978 126.68 87.9572 126.68C87.3322 126.68 86.8088 126.935 86.3869 127.445C85.9702 127.956 85.7619 128.76 85.7619 129.859ZM93.2072 129.852C93.2072 128.315 93.6343 127.177 94.4884 126.438C95.202 125.823 96.0718 125.516 97.0978 125.516C98.2384 125.516 99.1707 125.891 99.8947 126.641C100.619 127.385 100.981 128.417 100.981 129.734C100.981 130.802 100.819 131.643 100.496 132.258C100.179 132.867 99.7124 133.341 99.0978 133.68C98.4884 134.018 97.8218 134.188 97.0978 134.188C95.9364 134.188 94.9963 133.815 94.2775 133.07C93.564 132.326 93.2072 131.253 93.2072 129.852ZM94.6525 129.852C94.6525 130.914 94.8843 131.711 95.3478 132.242C95.8114 132.768 96.3947 133.031 97.0978 133.031C97.7957 133.031 98.3765 132.766 98.84 132.234C99.3035 131.703 99.5353 130.893 99.5353 129.805C99.5353 128.779 99.3009 128.003 98.8322 127.477C98.3686 126.945 97.7905 126.68 97.0978 126.68C96.3947 126.68 95.8114 126.943 95.3478 127.469C94.8843 127.995 94.6525 128.789 94.6525 129.852ZM104.168 134L101.629 125.703H103.082L104.403 130.492L104.895 132.273C104.916 132.185 105.059 131.615 105.324 130.562L106.645 125.703H108.09L109.332 130.516L109.746 132.102L110.223 130.5L111.645 125.703H113.012L110.418 134H108.957L107.637 129.031L107.317 127.617L105.637 134H104.168Z" fill="#201F1F"/>
<path d="M139.919 118.32L141.349 118.195C141.417 118.768 141.573 119.24 141.818 119.609C142.068 119.974 142.453 120.271 142.974 120.5C143.495 120.724 144.081 120.836 144.732 120.836C145.31 120.836 145.82 120.75 146.263 120.578C146.706 120.406 147.034 120.172 147.247 119.875C147.466 119.573 147.576 119.245 147.576 118.891C147.576 118.531 147.471 118.219 147.263 117.953C147.055 117.682 146.711 117.456 146.232 117.273C145.925 117.154 145.245 116.969 144.193 116.719C143.141 116.464 142.404 116.224 141.982 116C141.435 115.714 141.026 115.359 140.755 114.938C140.49 114.51 140.357 114.034 140.357 113.508C140.357 112.93 140.521 112.391 140.849 111.891C141.177 111.385 141.656 111.003 142.287 110.742C142.917 110.482 143.617 110.352 144.388 110.352C145.237 110.352 145.984 110.49 146.63 110.766C147.281 111.036 147.781 111.438 148.13 111.969C148.479 112.5 148.667 113.102 148.693 113.773L147.24 113.883C147.162 113.159 146.896 112.612 146.443 112.242C145.995 111.872 145.331 111.688 144.451 111.688C143.534 111.688 142.865 111.857 142.443 112.195C142.026 112.529 141.818 112.932 141.818 113.406C141.818 113.818 141.966 114.156 142.263 114.422C142.555 114.688 143.315 114.961 144.544 115.242C145.779 115.518 146.625 115.76 147.083 115.969C147.75 116.276 148.242 116.667 148.56 117.141C148.878 117.609 149.037 118.151 149.037 118.766C149.037 119.375 148.862 119.951 148.513 120.492C148.164 121.029 147.662 121.448 147.005 121.75C146.354 122.047 145.62 122.195 144.802 122.195C143.766 122.195 142.896 122.044 142.193 121.742C141.495 121.44 140.945 120.987 140.544 120.383C140.149 119.773 139.94 119.086 139.919 118.32ZM150.927 122V110.547H152.333V114.656C152.99 113.896 153.818 113.516 154.818 113.516C155.432 113.516 155.966 113.638 156.419 113.883C156.872 114.122 157.195 114.456 157.388 114.883C157.586 115.31 157.685 115.93 157.685 116.742V122H156.279V116.742C156.279 116.039 156.125 115.529 155.818 115.211C155.516 114.888 155.086 114.727 154.529 114.727C154.112 114.727 153.719 114.836 153.349 115.055C152.984 115.268 152.724 115.56 152.568 115.93C152.412 116.299 152.333 116.81 152.333 117.461V122H150.927ZM165.247 120.977C164.727 121.419 164.224 121.732 163.74 121.914C163.26 122.096 162.745 122.188 162.193 122.188C161.281 122.188 160.581 121.966 160.091 121.523C159.602 121.076 159.357 120.505 159.357 119.812C159.357 119.406 159.448 119.036 159.63 118.703C159.818 118.365 160.06 118.094 160.357 117.891C160.659 117.688 160.997 117.534 161.372 117.43C161.649 117.357 162.065 117.286 162.622 117.219C163.758 117.083 164.594 116.922 165.13 116.734C165.135 116.542 165.138 116.419 165.138 116.367C165.138 115.794 165.005 115.391 164.74 115.156C164.38 114.839 163.846 114.68 163.138 114.68C162.477 114.68 161.987 114.797 161.669 115.031C161.357 115.26 161.125 115.669 160.974 116.258L159.599 116.07C159.724 115.482 159.93 115.008 160.216 114.648C160.503 114.284 160.917 114.005 161.458 113.812C162 113.615 162.628 113.516 163.341 113.516C164.05 113.516 164.625 113.599 165.068 113.766C165.51 113.932 165.836 114.143 166.044 114.398C166.253 114.648 166.399 114.966 166.482 115.352C166.529 115.591 166.552 116.023 166.552 116.648V118.523C166.552 119.831 166.581 120.659 166.638 121.008C166.701 121.352 166.82 121.682 166.997 122H165.529C165.383 121.708 165.289 121.367 165.247 120.977ZM165.13 117.836C164.62 118.044 163.854 118.221 162.833 118.367C162.255 118.451 161.846 118.544 161.607 118.648C161.367 118.753 161.182 118.906 161.052 119.109C160.922 119.307 160.857 119.529 160.857 119.773C160.857 120.148 160.997 120.461 161.279 120.711C161.565 120.961 161.982 121.086 162.529 121.086C163.07 121.086 163.552 120.969 163.974 120.734C164.396 120.495 164.706 120.169 164.904 119.758C165.055 119.44 165.13 118.971 165.13 118.352V117.836ZM174.122 122V120.953C173.596 121.776 172.823 122.188 171.802 122.188C171.141 122.188 170.531 122.005 169.974 121.641C169.422 121.276 168.992 120.768 168.685 120.117C168.383 119.461 168.232 118.708 168.232 117.859C168.232 117.031 168.37 116.281 168.646 115.609C168.922 114.932 169.336 114.414 169.888 114.055C170.44 113.695 171.057 113.516 171.74 113.516C172.24 113.516 172.685 113.622 173.076 113.836C173.466 114.044 173.784 114.318 174.029 114.656V110.547H175.427V122H174.122ZM169.677 117.859C169.677 118.922 169.901 119.716 170.349 120.242C170.797 120.768 171.326 121.031 171.935 121.031C172.55 121.031 173.07 120.781 173.497 120.281C173.93 119.776 174.146 119.008 174.146 117.977C174.146 116.841 173.927 116.008 173.49 115.477C173.052 114.945 172.513 114.68 171.872 114.68C171.247 114.68 170.724 114.935 170.302 115.445C169.885 115.956 169.677 116.76 169.677 117.859ZM177.122 117.852C177.122 116.315 177.55 115.177 178.404 114.438C179.117 113.823 179.987 113.516 181.013 113.516C182.154 113.516 183.086 113.891 183.81 114.641C184.534 115.385 184.896 116.417 184.896 117.734C184.896 118.802 184.734 119.643 184.412 120.258C184.094 120.867 183.628 121.341 183.013 121.68C182.404 122.018 181.737 122.188 181.013 122.188C179.852 122.188 178.912 121.815 178.193 121.07C177.479 120.326 177.122 119.253 177.122 117.852ZM178.568 117.852C178.568 118.914 178.8 119.711 179.263 120.242C179.727 120.768 180.31 121.031 181.013 121.031C181.711 121.031 182.292 120.766 182.755 120.234C183.219 119.703 183.451 118.893 183.451 117.805C183.451 116.779 183.216 116.003 182.747 115.477C182.284 114.945 181.706 114.68 181.013 114.68C180.31 114.68 179.727 114.943 179.263 115.469C178.8 115.995 178.568 116.789 178.568 117.852ZM188.083 122L185.544 113.703H186.997L188.318 118.492L188.81 120.273C188.831 120.185 188.974 119.615 189.24 118.562L190.56 113.703H192.005L193.247 118.516L193.662 120.102L194.138 118.5L195.56 113.703H196.927L194.333 122H192.872L191.552 117.031L191.232 115.617L189.552 122H188.083ZM207.474 122H206.068V113.039C205.729 113.362 205.284 113.685 204.732 114.008C204.185 114.331 203.693 114.573 203.255 114.734V113.375C204.042 113.005 204.729 112.557 205.318 112.031C205.906 111.505 206.323 110.995 206.568 110.5H207.474V122Z" fill="#201F1F"/>
<path d="M230.514 118.32L231.944 118.195C232.012 118.768 232.168 119.24 232.413 119.609C232.663 119.974 233.048 120.271 233.569 120.5C234.09 120.724 234.676 120.836 235.327 120.836C235.905 120.836 236.415 120.75 236.858 120.578C237.301 120.406 237.629 120.172 237.842 119.875C238.061 119.573 238.171 119.245 238.171 118.891C238.171 118.531 238.066 118.219 237.858 117.953C237.65 117.682 237.306 117.456 236.827 117.273C236.52 117.154 235.84 116.969 234.788 116.719C233.736 116.464 232.999 116.224 232.577 116C232.03 115.714 231.621 115.359 231.35 114.938C231.085 114.51 230.952 114.034 230.952 113.508C230.952 112.93 231.116 112.391 231.444 111.891C231.772 111.385 232.251 111.003 232.882 110.742C233.512 110.482 234.212 110.352 234.983 110.352C235.832 110.352 236.579 110.49 237.225 110.766C237.876 111.036 238.376 111.438 238.725 111.969C239.074 112.5 239.262 113.102 239.288 113.773L237.835 113.883C237.757 113.159 237.491 112.612 237.038 112.242C236.59 111.872 235.926 111.688 235.046 111.688C234.129 111.688 233.46 111.857 233.038 112.195C232.621 112.529 232.413 112.932 232.413 113.406C232.413 113.818 232.561 114.156 232.858 114.422C233.15 114.688 233.91 114.961 235.139 115.242C236.374 115.518 237.22 115.76 237.678 115.969C238.345 116.276 238.837 116.667 239.155 117.141C239.473 117.609 239.632 118.151 239.632 118.766C239.632 119.375 239.457 119.951 239.108 120.492C238.759 121.029 238.257 121.448 237.6 121.75C236.949 122.047 236.215 122.195 235.397 122.195C234.361 122.195 233.491 122.044 232.788 121.742C232.09 121.44 231.54 120.987 231.139 120.383C230.743 119.773 230.535 119.086 230.514 118.32ZM241.522 122V110.547H242.928V114.656C243.585 113.896 244.413 113.516 245.413 113.516C246.027 113.516 246.561 113.638 247.014 113.883C247.467 114.122 247.79 114.456 247.983 114.883C248.181 115.31 248.28 115.93 248.28 116.742V122H246.874V116.742C246.874 116.039 246.72 115.529 246.413 115.211C246.111 114.888 245.681 114.727 245.124 114.727C244.707 114.727 244.314 114.836 243.944 115.055C243.579 115.268 243.319 115.56 243.163 115.93C243.007 116.299 242.928 116.81 242.928 117.461V122H241.522ZM255.842 120.977C255.322 121.419 254.819 121.732 254.335 121.914C253.855 122.096 253.34 122.188 252.788 122.188C251.876 122.188 251.176 121.966 250.686 121.523C250.197 121.076 249.952 120.505 249.952 119.812C249.952 119.406 250.043 119.036 250.225 118.703C250.413 118.365 250.655 118.094 250.952 117.891C251.254 117.688 251.592 117.534 251.967 117.43C252.243 117.357 252.66 117.286 253.217 117.219C254.353 117.083 255.189 116.922 255.725 116.734C255.73 116.542 255.733 116.419 255.733 116.367C255.733 115.794 255.6 115.391 255.335 115.156C254.975 114.839 254.441 114.68 253.733 114.68C253.072 114.68 252.582 114.797 252.264 115.031C251.952 115.26 251.72 115.669 251.569 116.258L250.194 116.07C250.319 115.482 250.525 115.008 250.811 114.648C251.098 114.284 251.512 114.005 252.053 113.812C252.595 113.615 253.223 113.516 253.936 113.516C254.645 113.516 255.22 113.599 255.663 113.766C256.105 113.932 256.431 114.143 256.639 114.398C256.848 114.648 256.993 114.966 257.077 115.352C257.124 115.591 257.147 116.023 257.147 116.648V118.523C257.147 119.831 257.176 120.659 257.233 121.008C257.296 121.352 257.415 121.682 257.592 122H256.124C255.978 121.708 255.884 121.367 255.842 120.977ZM255.725 117.836C255.215 118.044 254.449 118.221 253.428 118.367C252.85 118.451 252.441 118.544 252.202 118.648C251.962 118.753 251.777 118.906 251.647 119.109C251.517 119.307 251.452 119.529 251.452 119.773C251.452 120.148 251.592 120.461 251.874 120.711C252.16 120.961 252.577 121.086 253.124 121.086C253.665 121.086 254.147 120.969 254.569 120.734C254.991 120.495 255.301 120.169 255.499 119.758C255.65 119.44 255.725 118.971 255.725 118.352V117.836ZM264.717 122V120.953C264.191 121.776 263.418 122.188 262.397 122.188C261.736 122.188 261.126 122.005 260.569 121.641C260.017 121.276 259.587 120.768 259.28 120.117C258.978 119.461 258.827 118.708 258.827 117.859C258.827 117.031 258.965 116.281 259.241 115.609C259.517 114.932 259.931 114.414 260.483 114.055C261.035 113.695 261.652 113.516 262.335 113.516C262.835 113.516 263.28 113.622 263.671 113.836C264.061 114.044 264.379 114.318 264.624 114.656V110.547H266.022V122H264.717ZM260.272 117.859C260.272 118.922 260.496 119.716 260.944 120.242C261.392 120.768 261.921 121.031 262.53 121.031C263.145 121.031 263.665 120.781 264.092 120.281C264.525 119.776 264.741 119.008 264.741 117.977C264.741 116.841 264.522 116.008 264.085 115.477C263.647 114.945 263.108 114.68 262.467 114.68C261.842 114.68 261.319 114.935 260.897 115.445C260.48 115.956 260.272 116.76 260.272 117.859ZM267.717 117.852C267.717 116.315 268.145 115.177 268.999 114.438C269.712 113.823 270.582 113.516 271.608 113.516C272.749 113.516 273.681 113.891 274.405 114.641C275.129 115.385 275.491 116.417 275.491 117.734C275.491 118.802 275.329 119.643 275.007 120.258C274.689 120.867 274.223 121.341 273.608 121.68C272.999 122.018 272.332 122.188 271.608 122.188C270.447 122.188 269.507 121.815 268.788 121.07C268.074 120.326 267.717 119.253 267.717 117.852ZM269.163 117.852C269.163 118.914 269.395 119.711 269.858 120.242C270.322 120.768 270.905 121.031 271.608 121.031C272.306 121.031 272.887 120.766 273.35 120.234C273.814 119.703 274.046 118.893 274.046 117.805C274.046 116.779 273.811 116.003 273.342 115.477C272.879 114.945 272.301 114.68 271.608 114.68C270.905 114.68 270.322 114.943 269.858 115.469C269.395 115.995 269.163 116.789 269.163 117.852ZM278.678 122L276.139 113.703H277.592L278.913 118.492L279.405 120.273C279.426 120.185 279.569 119.615 279.835 118.562L281.155 113.703H282.6L283.842 118.516L284.257 120.102L284.733 118.5L286.155 113.703H287.522L284.928 122H283.467L282.147 117.031L281.827 115.617L280.147 122H278.678ZM300.163 120.648V122H292.592C292.582 121.661 292.637 121.336 292.757 121.023C292.949 120.508 293.257 120 293.678 119.5C294.105 119 294.72 118.422 295.522 117.766C296.767 116.745 297.608 115.938 298.046 115.344C298.483 114.745 298.702 114.18 298.702 113.648C298.702 113.091 298.501 112.622 298.1 112.242C297.704 111.857 297.186 111.664 296.546 111.664C295.868 111.664 295.327 111.867 294.921 112.273C294.514 112.68 294.309 113.242 294.303 113.961L292.858 113.812C292.957 112.734 293.329 111.914 293.975 111.352C294.621 110.784 295.488 110.5 296.577 110.5C297.676 110.5 298.546 110.805 299.186 111.414C299.827 112.023 300.147 112.779 300.147 113.68C300.147 114.138 300.053 114.589 299.866 115.031C299.678 115.474 299.366 115.94 298.928 116.43C298.496 116.919 297.775 117.591 296.764 118.445C295.921 119.154 295.379 119.635 295.139 119.891C294.9 120.141 294.702 120.393 294.546 120.648H300.163Z" fill="#201F1F"/>
<path d="M321.109 118.32L322.539 118.195C322.607 118.768 322.763 119.24 323.008 119.609C323.258 119.974 323.643 120.271 324.164 120.5C324.685 120.724 325.271 120.836 325.922 120.836C326.5 120.836 327.01 120.75 327.453 120.578C327.896 120.406 328.224 120.172 328.437 119.875C328.656 119.573 328.766 119.245 328.766 118.891C328.766 118.531 328.661 118.219 328.453 117.953C328.245 117.682 327.901 117.456 327.422 117.273C327.114 117.154 326.435 116.969 325.383 116.719C324.331 116.464 323.594 116.224 323.172 116C322.625 115.714 322.216 115.359 321.945 114.938C321.68 114.51 321.547 114.034 321.547 113.508C321.547 112.93 321.711 112.391 322.039 111.891C322.367 111.385 322.846 111.003 323.476 110.742C324.107 110.482 324.807 110.352 325.578 110.352C326.427 110.352 327.174 110.49 327.82 110.766C328.471 111.036 328.971 111.438 329.32 111.969C329.669 112.5 329.857 113.102 329.883 113.773L328.43 113.883C328.351 113.159 328.086 112.612 327.633 112.242C327.185 111.872 326.521 111.688 325.641 111.688C324.724 111.688 324.055 111.857 323.633 112.195C323.216 112.529 323.008 112.932 323.008 113.406C323.008 113.818 323.156 114.156 323.453 114.422C323.745 114.688 324.505 114.961 325.734 115.242C326.969 115.518 327.815 115.76 328.273 115.969C328.94 116.276 329.432 116.667 329.75 117.141C330.068 117.609 330.226 118.151 330.226 118.766C330.226 119.375 330.052 119.951 329.703 120.492C329.354 121.029 328.851 121.448 328.195 121.75C327.544 122.047 326.81 122.195 325.992 122.195C324.956 122.195 324.086 122.044 323.383 121.742C322.685 121.44 322.135 120.987 321.734 120.383C321.338 119.773 321.13 119.086 321.109 118.32ZM332.117 122V110.547H333.523V114.656C334.18 113.896 335.008 113.516 336.008 113.516C336.622 113.516 337.156 113.638 337.609 113.883C338.062 114.122 338.385 114.456 338.578 114.883C338.776 115.31 338.875 115.93 338.875 116.742V122H337.469V116.742C337.469 116.039 337.315 115.529 337.008 115.211C336.706 114.888 336.276 114.727 335.719 114.727C335.302 114.727 334.909 114.836 334.539 115.055C334.174 115.268 333.914 115.56 333.758 115.93C333.601 116.299 333.523 116.81 333.523 117.461V122H332.117ZM346.437 120.977C345.917 121.419 345.414 121.732 344.93 121.914C344.45 122.096 343.935 122.188 343.383 122.188C342.471 122.188 341.771 121.966 341.281 121.523C340.792 121.076 340.547 120.505 340.547 119.812C340.547 119.406 340.638 119.036 340.82 118.703C341.008 118.365 341.25 118.094 341.547 117.891C341.849 117.688 342.187 117.534 342.562 117.43C342.838 117.357 343.255 117.286 343.812 117.219C344.948 117.083 345.784 116.922 346.32 116.734C346.325 116.542 346.328 116.419 346.328 116.367C346.328 115.794 346.195 115.391 345.93 115.156C345.57 114.839 345.036 114.68 344.328 114.68C343.667 114.68 343.177 114.797 342.859 115.031C342.547 115.26 342.315 115.669 342.164 116.258L340.789 116.07C340.914 115.482 341.12 115.008 341.406 114.648C341.693 114.284 342.107 114.005 342.648 113.812C343.19 113.615 343.818 113.516 344.531 113.516C345.239 113.516 345.815 113.599 346.258 113.766C346.7 113.932 347.026 114.143 347.234 114.398C347.443 114.648 347.588 114.966 347.672 115.352C347.719 115.591 347.742 116.023 347.742 116.648V118.523C347.742 119.831 347.771 120.659 347.828 121.008C347.891 121.352 348.01 121.682 348.187 122H346.719C346.573 121.708 346.479 121.367 346.437 120.977ZM346.32 117.836C345.81 118.044 345.044 118.221 344.023 118.367C343.445 118.451 343.036 118.544 342.797 118.648C342.557 118.753 342.372 118.906 342.242 119.109C342.112 119.307 342.047 119.529 342.047 119.773C342.047 120.148 342.187 120.461 342.469 120.711C342.755 120.961 343.172 121.086 343.719 121.086C344.26 121.086 344.742 120.969 345.164 120.734C345.586 120.495 345.896 120.169 346.094 119.758C346.245 119.44 346.32 118.971 346.32 118.352V117.836ZM355.312 122V120.953C354.786 121.776 354.013 122.188 352.992 122.188C352.331 122.188 351.721 122.005 351.164 121.641C350.612 121.276 350.182 120.768 349.875 120.117C349.573 119.461 349.422 118.708 349.422 117.859C349.422 117.031 349.56 116.281 349.836 115.609C350.112 114.932 350.526 114.414 351.078 114.055C351.63 113.695 352.247 113.516 352.93 113.516C353.43 113.516 353.875 113.622 354.266 113.836C354.656 114.044 354.974 114.318 355.219 114.656V110.547H356.617V122H355.312ZM350.867 117.859C350.867 118.922 351.091 119.716 351.539 120.242C351.987 120.768 352.516 121.031 353.125 121.031C353.739 121.031 354.26 120.781 354.687 120.281C355.12 119.776 355.336 119.008 355.336 117.977C355.336 116.841 355.117 116.008 354.68 115.477C354.242 114.945 353.703 114.68 353.062 114.68C352.437 114.68 351.914 114.935 351.492 115.445C351.075 115.956 350.867 116.76 350.867 117.859ZM358.312 117.852C358.312 116.315 358.739 115.177 359.594 114.438C360.307 113.823 361.177 113.516 362.203 113.516C363.344 113.516 364.276 113.891 365 114.641C365.724 115.385 366.086 116.417 366.086 117.734C366.086 118.802 365.924 119.643 365.601 120.258C365.284 120.867 364.818 121.341 364.203 121.68C363.594 122.018 362.927 122.188 362.203 122.188C361.042 122.188 360.101 121.815 359.383 121.07C358.669 120.326 358.312 119.253 358.312 117.852ZM359.758 117.852C359.758 118.914 359.989 119.711 360.453 120.242C360.917 120.768 361.5 121.031 362.203 121.031C362.901 121.031 363.482 120.766 363.945 120.234C364.409 119.703 364.641 118.893 364.641 117.805C364.641 116.779 364.406 116.003 363.937 115.477C363.474 114.945 362.896 114.68 362.203 114.68C361.5 114.68 360.917 114.943 360.453 115.469C359.989 115.995 359.758 116.789 359.758 117.852ZM369.273 122L366.734 113.703H368.187L369.508 118.492L370 120.273C370.021 120.185 370.164 119.615 370.43 118.562L371.75 113.703H373.195L374.437 118.516L374.851 120.102L375.328 118.5L376.75 113.703H378.117L375.523 122H374.062L372.742 117.031L372.422 115.617L370.742 122H369.273ZM383.375 118.977L384.781 118.789C384.943 119.586 385.216 120.161 385.601 120.516C385.992 120.865 386.466 121.039 387.023 121.039C387.685 121.039 388.242 120.81 388.695 120.352C389.154 119.893 389.383 119.326 389.383 118.648C389.383 118.003 389.172 117.471 388.75 117.055C388.328 116.633 387.792 116.422 387.141 116.422C386.875 116.422 386.544 116.474 386.148 116.578L386.305 115.344C386.398 115.354 386.474 115.359 386.531 115.359C387.13 115.359 387.669 115.203 388.148 114.891C388.628 114.578 388.867 114.096 388.867 113.445C388.867 112.93 388.693 112.503 388.344 112.164C387.995 111.826 387.544 111.656 386.992 111.656C386.445 111.656 385.989 111.828 385.625 112.172C385.26 112.516 385.026 113.031 384.922 113.719L383.516 113.469C383.687 112.526 384.078 111.797 384.687 111.281C385.297 110.76 386.055 110.5 386.961 110.5C387.586 110.5 388.161 110.635 388.687 110.906C389.213 111.172 389.614 111.536 389.891 112C390.172 112.464 390.312 112.956 390.312 113.477C390.312 113.971 390.18 114.422 389.914 114.828C389.648 115.234 389.255 115.557 388.734 115.797C389.411 115.953 389.937 116.279 390.312 116.773C390.687 117.263 390.875 117.878 390.875 118.617C390.875 119.617 390.51 120.466 389.781 121.164C389.052 121.857 388.13 122.203 387.016 122.203C386.01 122.203 385.174 121.904 384.508 121.305C383.846 120.706 383.469 119.93 383.375 118.977Z" fill="#201F1F"/>
<path d="M411.704 118.32L413.134 118.195C413.202 118.768 413.358 119.24 413.603 119.609C413.853 119.974 414.238 120.271 414.759 120.5C415.28 120.724 415.866 120.836 416.517 120.836C417.095 120.836 417.605 120.75 418.048 120.578C418.491 120.406 418.819 120.172 419.032 119.875C419.251 119.573 419.361 119.245 419.361 118.891C419.361 118.531 419.256 118.219 419.048 117.953C418.84 117.682 418.496 117.456 418.017 117.273C417.709 117.154 417.03 116.969 415.978 116.719C414.926 116.464 414.189 116.224 413.767 116C413.22 115.714 412.811 115.359 412.54 114.938C412.275 114.51 412.142 114.034 412.142 113.508C412.142 112.93 412.306 112.391 412.634 111.891C412.962 111.385 413.441 111.003 414.071 110.742C414.702 110.482 415.402 110.352 416.173 110.352C417.022 110.352 417.769 110.49 418.415 110.766C419.066 111.036 419.566 111.438 419.915 111.969C420.264 112.5 420.452 113.102 420.478 113.773L419.025 113.883C418.946 113.159 418.681 112.612 418.228 112.242C417.78 111.872 417.116 111.688 416.236 111.688C415.319 111.688 414.65 111.857 414.228 112.195C413.811 112.529 413.603 112.932 413.603 113.406C413.603 113.818 413.751 114.156 414.048 114.422C414.34 114.688 415.1 114.961 416.329 115.242C417.564 115.518 418.41 115.76 418.868 115.969C419.535 116.276 420.027 116.667 420.345 117.141C420.663 117.609 420.821 118.151 420.821 118.766C420.821 119.375 420.647 119.951 420.298 120.492C419.949 121.029 419.446 121.448 418.79 121.75C418.139 122.047 417.405 122.195 416.587 122.195C415.551 122.195 414.681 122.044 413.978 121.742C413.28 121.44 412.73 120.987 412.329 120.383C411.933 119.773 411.725 119.086 411.704 118.32ZM422.712 122V110.547H424.118V114.656C424.775 113.896 425.603 113.516 426.603 113.516C427.217 113.516 427.751 113.638 428.204 113.883C428.657 114.122 428.98 114.456 429.173 114.883C429.371 115.31 429.47 115.93 429.47 116.742V122H428.064V116.742C428.064 116.039 427.91 115.529 427.603 115.211C427.301 114.888 426.871 114.727 426.314 114.727C425.897 114.727 425.504 114.836 425.134 115.055C424.769 115.268 424.509 115.56 424.353 115.93C424.196 116.299 424.118 116.81 424.118 117.461V122H422.712ZM437.032 120.977C436.512 121.419 436.009 121.732 435.525 121.914C435.045 122.096 434.53 122.188 433.978 122.188C433.066 122.188 432.366 121.966 431.876 121.523C431.387 121.076 431.142 120.505 431.142 119.812C431.142 119.406 431.233 119.036 431.415 118.703C431.603 118.365 431.845 118.094 432.142 117.891C432.444 117.688 432.782 117.534 433.157 117.43C433.433 117.357 433.85 117.286 434.407 117.219C435.543 117.083 436.379 116.922 436.915 116.734C436.92 116.542 436.923 116.419 436.923 116.367C436.923 115.794 436.79 115.391 436.525 115.156C436.165 114.839 435.631 114.68 434.923 114.68C434.262 114.68 433.772 114.797 433.454 115.031C433.142 115.26 432.91 115.669 432.759 116.258L431.384 116.07C431.509 115.482 431.715 115.008 432.001 114.648C432.288 114.284 432.702 114.005 433.243 113.812C433.785 113.615 434.413 113.516 435.126 113.516C435.834 113.516 436.41 113.599 436.853 113.766C437.295 113.932 437.621 114.143 437.829 114.398C438.038 114.648 438.183 114.966 438.267 115.352C438.314 115.591 438.337 116.023 438.337 116.648V118.523C438.337 119.831 438.366 120.659 438.423 121.008C438.486 121.352 438.605 121.682 438.782 122H437.314C437.168 121.708 437.074 121.367 437.032 120.977ZM436.915 117.836C436.405 118.044 435.639 118.221 434.618 118.367C434.04 118.451 433.631 118.544 433.392 118.648C433.152 118.753 432.967 118.906 432.837 119.109C432.707 119.307 432.642 119.529 432.642 119.773C432.642 120.148 432.782 120.461 433.064 120.711C433.35 120.961 433.767 121.086 434.314 121.086C434.855 121.086 435.337 120.969 435.759 120.734C436.181 120.495 436.491 120.169 436.689 119.758C436.84 119.44 436.915 118.971 436.915 118.352V117.836ZM445.907 122V120.953C445.381 121.776 444.608 122.188 443.587 122.188C442.926 122.188 442.316 122.005 441.759 121.641C441.207 121.276 440.777 120.768 440.47 120.117C440.168 119.461 440.017 118.708 440.017 117.859C440.017 117.031 440.155 116.281 440.431 115.609C440.707 114.932 441.121 114.414 441.673 114.055C442.225 113.695 442.842 113.516 443.525 113.516C444.025 113.516 444.47 113.622 444.861 113.836C445.251 114.044 445.569 114.318 445.814 114.656V110.547H447.212V122H445.907ZM441.462 117.859C441.462 118.922 441.686 119.716 442.134 120.242C442.582 120.768 443.111 121.031 443.72 121.031C444.334 121.031 444.855 120.781 445.282 120.281C445.715 119.776 445.931 119.008 445.931 117.977C445.931 116.841 445.712 116.008 445.275 115.477C444.837 114.945 444.298 114.68 443.657 114.68C443.032 114.68 442.509 114.935 442.087 115.445C441.67 115.956 441.462 116.76 441.462 117.859ZM448.907 117.852C448.907 116.315 449.334 115.177 450.189 114.438C450.902 113.823 451.772 113.516 452.798 113.516C453.939 113.516 454.871 113.891 455.595 114.641C456.319 115.385 456.681 116.417 456.681 117.734C456.681 118.802 456.519 119.643 456.196 120.258C455.879 120.867 455.413 121.341 454.798 121.68C454.189 122.018 453.522 122.188 452.798 122.188C451.637 122.188 450.696 121.815 449.978 121.07C449.264 120.326 448.907 119.253 448.907 117.852ZM450.353 117.852C450.353 118.914 450.584 119.711 451.048 120.242C451.512 120.768 452.095 121.031 452.798 121.031C453.496 121.031 454.077 120.766 454.54 120.234C455.004 119.703 455.236 118.893 455.236 117.805C455.236 116.779 455.001 116.003 454.532 115.477C454.069 114.945 453.491 114.68 452.798 114.68C452.095 114.68 451.512 114.943 451.048 115.469C450.584 115.995 450.353 116.789 450.353 117.852ZM459.868 122L457.329 113.703H458.782L460.103 118.492L460.595 120.273C460.616 120.185 460.759 119.615 461.025 118.562L462.345 113.703H463.79L465.032 118.516L465.446 120.102L465.923 118.5L467.345 113.703H468.712L466.118 122H464.657L463.337 117.031L463.017 115.617L461.337 122H459.868ZM478.47 122V119.258H473.501V117.969L478.728 110.547H479.876V117.969H481.423V119.258H479.876V122H478.47ZM478.47 117.969V112.805L474.884 117.969H478.47Z" fill="#201F1F"/>
<path d="M502.299 118.32L503.729 118.195C503.797 118.768 503.953 119.24 504.198 119.609C504.448 119.974 504.833 120.271 505.354 120.5C505.875 120.724 506.461 120.836 507.112 120.836C507.69 120.836 508.201 120.75 508.643 120.578C509.086 120.406 509.414 120.172 509.628 119.875C509.846 119.573 509.956 119.245 509.956 118.891C509.956 118.531 509.852 118.219 509.643 117.953C509.435 117.682 509.091 117.456 508.612 117.273C508.305 117.154 507.625 116.969 506.573 116.719C505.521 116.464 504.784 116.224 504.362 116C503.815 115.714 503.406 115.359 503.135 114.938C502.87 114.51 502.737 114.034 502.737 113.508C502.737 112.93 502.901 112.391 503.229 111.891C503.557 111.385 504.036 111.003 504.667 110.742C505.297 110.482 505.997 110.352 506.768 110.352C507.617 110.352 508.365 110.49 509.01 110.766C509.661 111.036 510.161 111.438 510.51 111.969C510.859 112.5 511.047 113.102 511.073 113.773L509.62 113.883C509.542 113.159 509.276 112.612 508.823 112.242C508.375 111.872 507.711 111.688 506.831 111.688C505.914 111.688 505.245 111.857 504.823 112.195C504.406 112.529 504.198 112.932 504.198 113.406C504.198 113.818 504.346 114.156 504.643 114.422C504.935 114.688 505.695 114.961 506.924 115.242C508.159 115.518 509.005 115.76 509.464 115.969C510.13 116.276 510.622 116.667 510.94 117.141C511.258 117.609 511.417 118.151 511.417 118.766C511.417 119.375 511.242 119.951 510.893 120.492C510.544 121.029 510.042 121.448 509.385 121.75C508.734 122.047 508 122.195 507.182 122.195C506.146 122.195 505.276 122.044 504.573 121.742C503.875 121.44 503.326 120.987 502.924 120.383C502.529 119.773 502.32 119.086 502.299 118.32ZM513.307 122V110.547H514.714V114.656C515.37 113.896 516.198 113.516 517.198 113.516C517.812 113.516 518.346 113.638 518.799 113.883C519.253 114.122 519.576 114.456 519.768 114.883C519.966 115.31 520.065 115.93 520.065 116.742V122H518.659V116.742C518.659 116.039 518.505 115.529 518.198 115.211C517.896 114.888 517.466 114.727 516.909 114.727C516.492 114.727 516.099 114.836 515.729 115.055C515.365 115.268 515.104 115.56 514.948 115.93C514.792 116.299 514.714 116.81 514.714 117.461V122H513.307ZM527.628 120.977C527.107 121.419 526.604 121.732 526.12 121.914C525.641 122.096 525.125 122.188 524.573 122.188C523.661 122.188 522.961 121.966 522.471 121.523C521.982 121.076 521.737 120.505 521.737 119.812C521.737 119.406 521.828 119.036 522.01 118.703C522.198 118.365 522.44 118.094 522.737 117.891C523.039 117.688 523.378 117.534 523.753 117.43C524.029 117.357 524.445 117.286 525.003 117.219C526.138 117.083 526.974 116.922 527.51 116.734C527.516 116.542 527.518 116.419 527.518 116.367C527.518 115.794 527.385 115.391 527.12 115.156C526.76 114.839 526.227 114.68 525.518 114.68C524.857 114.68 524.367 114.797 524.049 115.031C523.737 115.26 523.505 115.669 523.354 116.258L521.979 116.07C522.104 115.482 522.31 115.008 522.596 114.648C522.883 114.284 523.297 114.005 523.839 113.812C524.38 113.615 525.008 113.516 525.721 113.516C526.43 113.516 527.005 113.599 527.448 113.766C527.891 113.932 528.216 114.143 528.424 114.398C528.633 114.648 528.779 114.966 528.862 115.352C528.909 115.591 528.932 116.023 528.932 116.648V118.523C528.932 119.831 528.961 120.659 529.018 121.008C529.081 121.352 529.201 121.682 529.378 122H527.909C527.763 121.708 527.669 121.367 527.628 120.977ZM527.51 117.836C527 118.044 526.234 118.221 525.214 118.367C524.635 118.451 524.227 118.544 523.987 118.648C523.747 118.753 523.562 118.906 523.432 119.109C523.302 119.307 523.237 119.529 523.237 119.773C523.237 120.148 523.378 120.461 523.659 120.711C523.945 120.961 524.362 121.086 524.909 121.086C525.451 121.086 525.932 120.969 526.354 120.734C526.776 120.495 527.086 120.169 527.284 119.758C527.435 119.44 527.51 118.971 527.51 118.352V117.836ZM536.503 122V120.953C535.977 121.776 535.203 122.188 534.182 122.188C533.521 122.188 532.911 122.005 532.354 121.641C531.802 121.276 531.372 120.768 531.065 120.117C530.763 119.461 530.612 118.708 530.612 117.859C530.612 117.031 530.75 116.281 531.026 115.609C531.302 114.932 531.716 114.414 532.268 114.055C532.82 113.695 533.437 113.516 534.12 113.516C534.62 113.516 535.065 113.622 535.456 113.836C535.846 114.044 536.164 114.318 536.409 114.656V110.547H537.807V122H536.503ZM532.057 117.859C532.057 118.922 532.281 119.716 532.729 120.242C533.177 120.768 533.706 121.031 534.315 121.031C534.93 121.031 535.451 120.781 535.878 120.281C536.31 119.776 536.526 119.008 536.526 117.977C536.526 116.841 536.307 116.008 535.87 115.477C535.432 114.945 534.893 114.68 534.253 114.68C533.628 114.68 533.104 114.935 532.682 115.445C532.266 115.956 532.057 116.76 532.057 117.859ZM539.503 117.852C539.503 116.315 539.93 115.177 540.784 114.438C541.497 113.823 542.367 113.516 543.393 113.516C544.534 113.516 545.466 113.891 546.19 114.641C546.914 115.385 547.276 116.417 547.276 117.734C547.276 118.802 547.115 119.643 546.792 120.258C546.474 120.867 546.008 121.341 545.393 121.68C544.784 122.018 544.117 122.188 543.393 122.188C542.232 122.188 541.292 121.815 540.573 121.07C539.859 120.326 539.503 119.253 539.503 117.852ZM540.948 117.852C540.948 118.914 541.18 119.711 541.643 120.242C542.107 120.768 542.69 121.031 543.393 121.031C544.091 121.031 544.672 120.766 545.135 120.234C545.599 119.703 545.831 118.893 545.831 117.805C545.831 116.779 545.596 116.003 545.128 115.477C544.664 114.945 544.086 114.68 543.393 114.68C542.69 114.68 542.107 114.943 541.643 115.469C541.18 115.995 540.948 116.789 540.948 117.852ZM550.464 122L547.924 113.703H549.378L550.698 118.492L551.19 120.273C551.211 120.185 551.354 119.615 551.62 118.562L552.94 113.703H554.385L555.628 118.516L556.042 120.102L556.518 118.5L557.94 113.703H559.307L556.714 122H555.253L553.932 117.031L553.612 115.617L551.932 122H550.464ZM564.557 119L566.034 118.875C566.143 119.594 566.396 120.135 566.792 120.5C567.193 120.859 567.674 121.039 568.237 121.039C568.914 121.039 569.487 120.784 569.956 120.273C570.424 119.763 570.659 119.086 570.659 118.242C570.659 117.44 570.432 116.807 569.979 116.344C569.531 115.88 568.943 115.648 568.214 115.648C567.76 115.648 567.352 115.753 566.987 115.961C566.622 116.164 566.336 116.43 566.128 116.758L564.807 116.586L565.917 110.703H571.612V112.047H567.042L566.424 115.125C567.112 114.646 567.833 114.406 568.589 114.406C569.589 114.406 570.432 114.753 571.12 115.445C571.807 116.138 572.151 117.029 572.151 118.117C572.151 119.154 571.849 120.049 571.245 120.805C570.51 121.732 569.508 122.195 568.237 122.195C567.195 122.195 566.344 121.904 565.682 121.32C565.026 120.737 564.651 119.964 564.557 119Z" fill="#201F1F"/>
<path d="M592.894 118.32L594.324 118.195C594.392 118.768 594.548 119.24 594.793 119.609C595.043 119.974 595.428 120.271 595.949 120.5C596.47 120.724 597.056 120.836 597.707 120.836C598.285 120.836 598.795 120.75 599.238 120.578C599.681 120.406 600.009 120.172 600.223 119.875C600.441 119.573 600.551 119.245 600.551 118.891C600.551 118.531 600.447 118.219 600.238 117.953C600.03 117.682 599.686 117.456 599.207 117.273C598.9 117.154 598.22 116.969 597.168 116.719C596.116 116.464 595.379 116.224 594.957 116C594.41 115.714 594.001 115.359 593.73 114.938C593.465 114.51 593.332 114.034 593.332 113.508C593.332 112.93 593.496 112.391 593.824 111.891C594.152 111.385 594.631 111.003 595.262 110.742C595.892 110.482 596.592 110.352 597.363 110.352C598.212 110.352 598.96 110.49 599.605 110.766C600.256 111.036 600.756 111.438 601.105 111.969C601.454 112.5 601.642 113.102 601.668 113.773L600.215 113.883C600.137 113.159 599.871 112.612 599.418 112.242C598.97 111.872 598.306 111.688 597.426 111.688C596.509 111.688 595.84 111.857 595.418 112.195C595.001 112.529 594.793 112.932 594.793 113.406C594.793 113.818 594.941 114.156 595.238 114.422C595.53 114.688 596.29 114.961 597.519 115.242C598.754 115.518 599.6 115.76 600.059 115.969C600.725 116.276 601.217 116.667 601.535 117.141C601.853 117.609 602.012 118.151 602.012 118.766C602.012 119.375 601.837 119.951 601.488 120.492C601.139 121.029 600.637 121.448 599.98 121.75C599.329 122.047 598.595 122.195 597.777 122.195C596.741 122.195 595.871 122.044 595.168 121.742C594.47 121.44 593.92 120.987 593.519 120.383C593.124 119.773 592.915 119.086 592.894 118.32ZM603.902 122V110.547H605.309V114.656C605.965 113.896 606.793 113.516 607.793 113.516C608.407 113.516 608.941 113.638 609.394 113.883C609.848 114.122 610.17 114.456 610.363 114.883C610.561 115.31 610.66 115.93 610.66 116.742V122H609.254V116.742C609.254 116.039 609.1 115.529 608.793 115.211C608.491 114.888 608.061 114.727 607.504 114.727C607.087 114.727 606.694 114.836 606.324 115.055C605.96 115.268 605.699 115.56 605.543 115.93C605.387 116.299 605.309 116.81 605.309 117.461V122H603.902ZM618.223 120.977C617.702 121.419 617.199 121.732 616.715 121.914C616.236 122.096 615.72 122.188 615.168 122.188C614.256 122.188 613.556 121.966 613.066 121.523C612.577 121.076 612.332 120.505 612.332 119.812C612.332 119.406 612.423 119.036 612.605 118.703C612.793 118.365 613.035 118.094 613.332 117.891C613.634 117.688 613.973 117.534 614.348 117.43C614.624 117.357 615.04 117.286 615.598 117.219C616.733 117.083 617.569 116.922 618.105 116.734C618.111 116.542 618.113 116.419 618.113 116.367C618.113 115.794 617.98 115.391 617.715 115.156C617.355 114.839 616.822 114.68 616.113 114.68C615.452 114.68 614.962 114.797 614.644 115.031C614.332 115.26 614.1 115.669 613.949 116.258L612.574 116.07C612.699 115.482 612.905 115.008 613.191 114.648C613.478 114.284 613.892 114.005 614.434 113.812C614.975 113.615 615.603 113.516 616.316 113.516C617.025 113.516 617.6 113.599 618.043 113.766C618.486 113.932 618.811 114.143 619.019 114.398C619.228 114.648 619.374 114.966 619.457 115.352C619.504 115.591 619.527 116.023 619.527 116.648V118.523C619.527 119.831 619.556 120.659 619.613 121.008C619.676 121.352 619.795 121.682 619.973 122H618.504C618.358 121.708 618.264 121.367 618.223 120.977ZM618.105 117.836C617.595 118.044 616.829 118.221 615.809 118.367C615.23 118.451 614.822 118.544 614.582 118.648C614.342 118.753 614.157 118.906 614.027 119.109C613.897 119.307 613.832 119.529 613.832 119.773C613.832 120.148 613.973 120.461 614.254 120.711C614.54 120.961 614.957 121.086 615.504 121.086C616.045 121.086 616.527 120.969 616.949 120.734C617.371 120.495 617.681 120.169 617.879 119.758C618.03 119.44 618.105 118.971 618.105 118.352V117.836ZM627.098 122V120.953C626.572 121.776 625.798 122.188 624.777 122.188C624.116 122.188 623.506 122.005 622.949 121.641C622.397 121.276 621.967 120.768 621.66 120.117C621.358 119.461 621.207 118.708 621.207 117.859C621.207 117.031 621.345 116.281 621.621 115.609C621.897 114.932 622.311 114.414 622.863 114.055C623.415 113.695 624.032 113.516 624.715 113.516C625.215 113.516 625.66 113.622 626.051 113.836C626.441 114.044 626.759 114.318 627.004 114.656V110.547H628.402V122H627.098ZM622.652 117.859C622.652 118.922 622.876 119.716 623.324 120.242C623.772 120.768 624.301 121.031 624.91 121.031C625.525 121.031 626.045 120.781 626.473 120.281C626.905 119.776 627.121 119.008 627.121 117.977C627.121 116.841 626.902 116.008 626.465 115.477C626.027 114.945 625.488 114.68 624.848 114.68C624.223 114.68 623.699 114.935 623.277 115.445C622.861 115.956 622.652 116.76 622.652 117.859ZM630.098 117.852C630.098 116.315 630.525 115.177 631.379 114.438C632.092 113.823 632.962 113.516 633.988 113.516C635.129 113.516 636.061 113.891 636.785 114.641C637.509 115.385 637.871 116.417 637.871 117.734C637.871 118.802 637.71 119.643 637.387 120.258C637.069 120.867 636.603 121.341 635.988 121.68C635.379 122.018 634.712 122.188 633.988 122.188C632.827 122.188 631.887 121.815 631.168 121.07C630.454 120.326 630.098 119.253 630.098 117.852ZM631.543 117.852C631.543 118.914 631.775 119.711 632.238 120.242C632.702 120.768 633.285 121.031 633.988 121.031C634.686 121.031 635.267 120.766 635.73 120.234C636.194 119.703 636.426 118.893 636.426 117.805C636.426 116.779 636.191 116.003 635.723 115.477C635.259 114.945 634.681 114.68 633.988 114.68C633.285 114.68 632.702 114.943 632.238 115.469C631.775 115.995 631.543 116.789 631.543 117.852ZM641.059 122L638.519 113.703H639.973L641.293 118.492L641.785 120.273C641.806 120.185 641.949 119.615 642.215 118.562L643.535 113.703H644.98L646.223 118.516L646.637 120.102L647.113 118.5L648.535 113.703H649.902L647.309 122H645.848L644.527 117.031L644.207 115.617L642.527 122H641.059ZM662.449 113.352L661.051 113.461C660.926 112.909 660.749 112.508 660.519 112.258C660.139 111.857 659.67 111.656 659.113 111.656C658.665 111.656 658.272 111.781 657.934 112.031C657.491 112.354 657.142 112.826 656.887 113.445C656.631 114.065 656.499 114.948 656.488 116.094C656.827 115.578 657.241 115.195 657.73 114.945C658.22 114.695 658.733 114.57 659.269 114.57C660.207 114.57 661.004 114.917 661.66 115.609C662.322 116.297 662.652 117.188 662.652 118.281C662.652 119 662.496 119.669 662.184 120.289C661.876 120.904 661.452 121.375 660.91 121.703C660.368 122.031 659.754 122.195 659.066 122.195C657.894 122.195 656.939 121.766 656.199 120.906C655.46 120.042 655.09 118.62 655.09 116.641C655.09 114.427 655.499 112.818 656.316 111.812C657.03 110.938 657.991 110.5 659.199 110.5C660.1 110.5 660.837 110.753 661.41 111.258C661.988 111.763 662.335 112.461 662.449 113.352ZM656.707 118.289C656.707 118.773 656.809 119.237 657.012 119.68C657.22 120.122 657.509 120.461 657.879 120.695C658.249 120.924 658.637 121.039 659.043 121.039C659.637 121.039 660.147 120.799 660.574 120.32C661.001 119.841 661.215 119.19 661.215 118.367C661.215 117.576 661.004 116.953 660.582 116.5C660.16 116.042 659.629 115.812 658.988 115.812C658.353 115.812 657.814 116.042 657.371 116.5C656.928 116.953 656.707 117.549 656.707 118.289Z" fill="#201F1F"/>
<g filter="url(#filter0_i_968_9544)">
<rect x="40" y="164" width="90.2857" height="180" fill="#2964A0"/>
</g>
<g filter="url(#filter1_dd_968_9544)">
<rect x="130.286" y="164" width="90.2857" height="180" fill="#2964A0"/>
</g>
<g filter="url(#filter2_dd_968_9544)">
<rect x="220.572" y="164" width="90.2857" height="180" fill="#2964A0"/>
</g>
<g filter="url(#filter3_dd_968_9544)">
<rect x="310.857" y="164" width="90.2857" height="180" fill="#2964A0"/>
</g>
<g filter="url(#filter4_dd_968_9544)">
<rect x="401.143" y="164" width="90.2857" height="180" fill="#2964A0"/>
</g>
<g filter="url(#filter5_dd_968_9544)">
<rect x="491.429" y="164" width="90.2857" height="180" fill="#2964A0"/>
</g>
<g filter="url(#filter6_dd_968_9544)">
<rect x="581.714" y="164" width="90.2857" height="180" fill="#2964A0"/>
</g>
</g>
<path d="M8 0.5H704C708.142 0.5 711.5 3.85786 711.5 8V388C711.5 392.142 708.142 395.5 704 395.5H8C3.85786 395.5 0.5 392.142 0.5 388V8C0.500004 3.85787 3.85787 0.5 8 0.5Z" stroke="#CDCCCB"/>
<defs>
<filter id="filter0_i_968_9544" x="40" y="164" width="90.2856" height="181" filterUnits="userSpaceOnUse" color-interpolation-filters="sRGB">
<feFlood flood-opacity="0" result="BackgroundImageFix"/>
<feBlend mode="normal" in="SourceGraphic" in2="BackgroundImageFix" result="shape"/>
<feColorMatrix in="SourceAlpha" type="matrix" values="0 0 0 0 0 0 0 0 0 0 0 0 0 0 0 0 0 0 127 0" result="hardAlpha"/>
<feOffset dy="1"/>
<feGaussianBlur stdDeviation="2"/>
<feComposite in2="hardAlpha" operator="arithmetic" k2="-1" k3="1"/>
<feColorMatrix type="matrix" values="0 0 0 0 0 0 0 0 0 0 0 0 0 0 0 0 0 0 0.31 0"/>
<feBlend mode="normal" in2="shape" result="effect1_innerShadow_968_9544"/>
</filter>
<filter id="filter1_dd_968_9544" x="128.286" y="162" width="94.2856" height="185" filterUnits="userSpaceOnUse" color-interpolation-filters="sRGB">
<feFlood flood-opacity="0" result="BackgroundImageFix"/>
<feColorMatrix in="SourceAlpha" type="matrix" values="0 0 0 0 0 0 0 0 0 0 0 0 0 0 0 0 0 0 127 0" result="hardAlpha"/>
<feOffset/>
<feGaussianBlur stdDeviation="1"/>
<feComposite in2="hardAlpha" operator="out"/>
<feColorMatrix type="matrix" values="0 0 0 0 0 0 0 0 0 0 0 0 0 0 0 0 0 0 0.25 0"/>
<feBlend mode="normal" in2="BackgroundImageFix" result="effect1_dropShadow_968_9544"/>
<feColorMatrix in="SourceAlpha" type="matrix" values="0 0 0 0 0 0 0 0 0 0 0 0 0 0 0 0 0 0 127 0" result="hardAlpha"/>
<feOffset dy="1"/>
<feGaussianBlur stdDeviation="1"/>
<feComposite in2="hardAlpha" operator="out"/>
<feColorMatrix type="matrix" values="0 0 0 0 0 0 0 0 0 0 0 0 0 0 0 0 0 0 0.31 0"/>
<feBlend mode="normal" in2="effect1_dropShadow_968_9544" result="effect2_dropShadow_968_9544"/>
<feBlend mode="normal" in="SourceGraphic" in2="effect2_dropShadow_968_9544" result="shape"/>
</filter>
<filter id="filter2_dd_968_9544" x="216.572" y="162" width="98.2856" height="188" filterUnits="userSpaceOnUse" color-interpolation-filters="sRGB">
<feFlood flood-opacity="0" result="BackgroundImageFix"/>
<feColorMatrix in="SourceAlpha" type="matrix" values="0 0 0 0 0 0 0 0 0 0 0 0 0 0 0 0 0 0 127 0" result="hardAlpha"/>
<feOffset/>
<feGaussianBlur stdDeviation="1"/>
<feComposite in2="hardAlpha" operator="out"/>
<feColorMatrix type="matrix" values="0 0 0 0 0 0 0 0 0 0 0 0 0 0 0 0 0 0 0.25 0"/>
<feBlend mode="normal" in2="BackgroundImageFix" result="effect1_dropShadow_968_9544"/>
<feColorMatrix in="SourceAlpha" type="matrix" values="0 0 0 0 0 0 0 0 0 0 0 0 0 0 0 0 0 0 127 0" result="hardAlpha"/>
<feOffset dy="2"/>
<feGaussianBlur stdDeviation="2"/>
<feComposite in2="hardAlpha" operator="out"/>
<feColorMatrix type="matrix" values="0 0 0 0 0 0 0 0 0 0 0 0 0 0 0 0 0 0 0.31 0"/>
<feBlend mode="normal" in2="effect1_dropShadow_968_9544" result="effect2_dropShadow_968_9544"/>
<feBlend mode="normal" in="SourceGraphic" in2="effect2_dropShadow_968_9544" result="shape"/>
</filter>
<filter id="filter3_dd_968_9544" x="302.857" y="160" width="106.286" height="196" filterUnits="userSpaceOnUse" color-interpolation-filters="sRGB">
<feFlood flood-opacity="0" result="BackgroundImageFix"/>
<feColorMatrix in="SourceAlpha" type="matrix" values="0 0 0 0 0 0 0 0 0 0 0 0 0 0 0 0 0 0 127 0" result="hardAlpha"/>
<feOffset/>
<feGaussianBlur stdDeviation="1"/>
<feComposite in2="hardAlpha" operator="out"/>
<feColorMatrix type="matrix" values="0 0 0 0 0 0 0 0 0 0 0 0 0 0 0 0 0 0 0.25 0"/>
<feBlend mode="normal" in2="BackgroundImageFix" result="effect1_dropShadow_968_9544"/>
<feColorMatrix in="SourceAlpha" type="matrix" values="0 0 0 0 0 0 0 0 0 0 0 0 0 0 0 0 0 0 127 0" result="hardAlpha"/>
<feOffset dy="4"/>
<feGaussianBlur stdDeviation="4"/>
<feComposite in2="hardAlpha" operator="out"/>
<feColorMatrix type="matrix" values="0 0 0 0 0 0 0 0 0 0 0 0 0 0 0 0 0 0 0.31 0"/>
<feBlend mode="normal" in2="effect1_dropShadow_968_9544" result="effect2_dropShadow_968_9544"/>
<feBlend mode="normal" in="SourceGraphic" in2="effect2_dropShadow_968_9544" result="shape"/>
</filter>
<filter id="filter4_dd_968_9544" x="385.143" y="156" width="122.286" height="212" filterUnits="userSpaceOnUse" color-interpolation-filters="sRGB">
<feFlood flood-opacity="0" result="BackgroundImageFix"/>
<feColorMatrix in="SourceAlpha" type="matrix" values="0 0 0 0 0 0 0 0 0 0 0 0 0 0 0 0 0 0 127 0" result="hardAlpha"/>
<feOffset/>
<feGaussianBlur stdDeviation="1"/>
<feComposite in2="hardAlpha" operator="out"/>
<feColorMatrix type="matrix" values="0 0 0 0 0 0 0 0 0 0 0 0 0 0 0 0 0 0 0.25 0"/>
<feBlend mode="normal" in2="BackgroundImageFix" result="effect1_dropShadow_968_9544"/>
<feColorMatrix in="SourceAlpha" type="matrix" values="0 0 0 0 0 0 0 0 0 0 0 0 0 0 0 0 0 0 127 0" result="hardAlpha"/>
<feOffset dy="8"/>
<feGaussianBlur stdDeviation="8"/>
<feComposite in2="hardAlpha" operator="out"/>
<feColorMatrix type="matrix" values="0 0 0 0 0 0 0 0 0 0 0 0 0 0 0 0 0 0 0.31 0"/>
<feBlend mode="normal" in2="effect1_dropShadow_968_9544" result="effect2_dropShadow_968_9544"/>
<feBlend mode="normal" in="SourceGraphic" in2="effect2_dropShadow_968_9544" result="shape"/>
</filter>
<filter id="filter5_dd_968_9544" x="463.429" y="150" width="146.286" height="236" filterUnits="userSpaceOnUse" color-interpolation-filters="sRGB">
<feFlood flood-opacity="0" result="BackgroundImageFix"/>
<feColorMatrix in="SourceAlpha" type="matrix" values="0 0 0 0 0 0 0 0 0 0 0 0 0 0 0 0 0 0 127 0" result="hardAlpha"/>
<feOffset/>
<feGaussianBlur stdDeviation="4"/>
<feComposite in2="hardAlpha" operator="out"/>
<feColorMatrix type="matrix" values="0 0 0 0 0 0 0 0 0 0 0 0 0 0 0 0 0 0 0.25 0"/>
<feBlend mode="normal" in2="BackgroundImageFix" result="effect1_dropShadow_968_9544"/>
<feColorMatrix in="SourceAlpha" type="matrix" values="0 0 0 0 0 0 0 0 0 0 0 0 0 0 0 0 0 0 127 0" result="hardAlpha"/>
<feOffset dy="14"/>
<feGaussianBlur stdDeviation="14"/>
<feComposite in2="hardAlpha" operator="out"/>
<feColorMatrix type="matrix" values="0 0 0 0 0 0 0 0 0 0 0 0 0 0 0 0 0 0 0.31 0"/>
<feBlend mode="normal" in2="effect1_dropShadow_968_9544" result="effect2_dropShadow_968_9544"/>
<feBlend mode="normal" in="SourceGraphic" in2="effect2_dropShadow_968_9544" result="shape"/>
</filter>
<filter id="filter6_dd_968_9544" x="517.714" y="132" width="218.286" height="308" filterUnits="userSpaceOnUse" color-interpolation-filters="sRGB">
<feFlood flood-opacity="0" result="BackgroundImageFix"/>
<feColorMatrix in="SourceAlpha" type="matrix" values="0 0 0 0 0 0 0 0 0 0 0 0 0 0 0 0 0 0 127 0" result="hardAlpha"/>
<feOffset/>
<feGaussianBlur stdDeviation="4"/>
<feComposite in2="hardAlpha" operator="out"/>
<feColorMatrix type="matrix" values="0 0 0 0 0 0 0 0 0 0 0 0 0 0 0 0 0 0 0.25 0"/>
<feBlend mode="normal" in2="BackgroundImageFix" result="effect1_dropShadow_968_9544"/>
<feColorMatrix in="SourceAlpha" type="matrix" values="0 0 0 0 0 0 0 0 0 0 0 0 0 0 0 0 0 0 127 0" result="hardAlpha"/>
<feOffset dy="32"/>
<feGaussianBlur stdDeviation="32"/>
<feComposite in2="hardAlpha" operator="out"/>
<feColorMatrix type="matrix" values="0 0 0 0 0 0 0 0 0 0 0 0 0 0 0 0 0 0 0.31 0"/>
<feBlend mode="normal" in2="effect1_dropShadow_968_9544" result="effect2_dropShadow_968_9544"/>
<feBlend mode="normal" in="SourceGraphic" in2="effect2_dropShadow_968_9544" result="shape"/>
</filter>
<clipPath id="clip0_968_9544">
<path d="M0 8.00001C0 3.58173 3.58172 0 8 0H704C708.418 0 712 3.58172 712 8V388C712 392.418 708.418 396 704 396H8C3.58172 396 0 392.418 0 388V8.00001Z" fill="white"/>
</clipPath>
</defs>
</svg>
