<svg width="1159" height="110" viewBox="0 0 1159 110" fill="none" xmlns="http://www.w3.org/2000/svg">
<g clip-path="url(#clip0_410_59632)">
<rect width="579.5" height="61" fill="white"/>
<path d="M18.74 37.14C18.3933 37.14 18.12 37.0467 17.92 36.86C17.7333 36.6733 17.64 36.4 17.64 36.04V24.02C17.64 23.66 17.7333 23.3867 17.92 23.2C18.12 23 18.4 22.9 18.76 22.9H25.88C26.1733 22.9 26.3867 22.9733 26.52 23.12C26.6667 23.2533 26.74 23.4533 26.74 23.72C26.74 24 26.6667 24.2133 26.52 24.36C26.3867 24.5067 26.1733 24.58 25.88 24.58H19.72V29.08H25.48C25.7467 29.08 25.9533 29.1533 26.1 29.3C26.26 29.4333 26.34 29.6333 26.34 29.9C26.34 30.18 26.26 30.3933 26.1 30.54C25.9533 30.6867 25.7467 30.76 25.48 30.76H19.72V36.04C19.72 36.7733 19.3933 37.14 18.74 37.14ZM31.8631 37.18C30.8765 37.18 30.0231 36.9733 29.3031 36.56C28.5965 36.1467 28.0431 35.56 27.6431 34.8C27.2431 34.04 27.0431 33.1467 27.0431 32.12C27.0431 31.3333 27.1565 30.6333 27.3831 30.02C27.6098 29.4067 27.9298 28.88 28.3431 28.44C28.7698 27.9867 29.2765 27.6467 29.8631 27.42C30.4631 27.18 31.1298 27.06 31.8631 27.06C32.8365 27.06 33.6765 27.2667 34.3831 27.68C35.1031 28.0933 35.6631 28.68 36.0631 29.44C36.4631 30.1867 36.6631 31.08 36.6631 32.12C36.6631 32.8933 36.5498 33.5933 36.3231 34.22C36.0965 34.8467 35.7698 35.38 35.3431 35.82C34.9298 36.26 34.4231 36.6 33.8231 36.84C33.2365 37.0667 32.5831 37.18 31.8631 37.18ZM31.8631 35.62C32.4098 35.62 32.8898 35.4867 33.3031 35.22C33.7165 34.9533 34.0365 34.56 34.2631 34.04C34.5031 33.52 34.6231 32.88 34.6231 32.12C34.6231 30.9733 34.3698 30.1067 33.8631 29.52C33.3565 28.9333 32.6898 28.64 31.8631 28.64C31.3031 28.64 30.8165 28.7733 30.4031 29.04C29.9898 29.2933 29.6631 29.68 29.4231 30.2C29.1965 30.72 29.0831 31.36 29.0831 32.12C29.0831 33.2533 29.3365 34.12 29.8431 34.72C30.3498 35.32 31.0231 35.62 31.8631 35.62ZM39.4317 37.14C39.1117 37.14 38.8651 37.0533 38.6917 36.88C38.5184 36.6933 38.4317 36.44 38.4317 36.12V28.12C38.4317 27.7867 38.5184 27.5333 38.6917 27.36C38.8651 27.1867 39.1051 27.1 39.4117 27.1C39.7317 27.1 39.9717 27.1867 40.1317 27.36C40.3051 27.5333 40.3917 27.7867 40.3917 28.12V29.68L40.1717 29.32C40.4651 28.5733 40.9251 28.0133 41.5517 27.64C42.1784 27.2533 42.8984 27.06 43.7117 27.06C44.4851 27.06 45.1251 27.2067 45.6317 27.5C46.1517 27.78 46.5384 28.2133 46.7917 28.8C47.0451 29.3733 47.1717 30.1 47.1717 30.98V36.12C47.1717 36.44 47.0851 36.6933 46.9117 36.88C46.7384 37.0533 46.4917 37.14 46.1717 37.14C45.8384 37.14 45.5851 37.0533 45.4117 36.88C45.2384 36.6933 45.1517 36.44 45.1517 36.12V31.1C45.1517 30.26 44.9851 29.6467 44.6517 29.26C44.3317 28.8733 43.8251 28.68 43.1317 28.68C42.3184 28.68 41.6651 28.9333 41.1717 29.44C40.6917 29.9467 40.4517 30.6267 40.4517 31.48V36.12C40.4517 36.8 40.1117 37.14 39.4317 37.14ZM53.7552 37.18C52.7552 37.18 51.8885 36.9733 51.1552 36.56C50.4352 36.1333 49.8752 35.54 49.4752 34.78C49.0752 34.0067 48.8752 33.1 48.8752 32.06C48.8752 31.2867 48.9885 30.5933 49.2152 29.98C49.4418 29.3533 49.7618 28.8267 50.1752 28.4C50.6018 27.9733 51.1152 27.6467 51.7152 27.42C52.3285 27.18 53.0085 27.06 53.7552 27.06C54.2218 27.06 54.7085 27.1333 55.2152 27.28C55.7352 27.4133 56.2152 27.64 56.6552 27.96C56.8285 28.0667 56.9352 28.2 56.9752 28.36C57.0285 28.5067 57.0352 28.66 56.9952 28.82C56.9685 28.98 56.8952 29.12 56.7752 29.24C56.6685 29.3467 56.5352 29.4133 56.3752 29.44C56.2152 29.4533 56.0418 29.4067 55.8552 29.3C55.5352 29.0733 55.2085 28.9133 54.8752 28.82C54.5418 28.7133 54.2218 28.66 53.9152 28.66C53.4352 28.66 53.0085 28.74 52.6352 28.9C52.2752 29.0467 51.9685 29.2667 51.7152 29.56C51.4618 29.84 51.2685 30.1933 51.1352 30.62C51.0152 31.0467 50.9552 31.5333 50.9552 32.08C50.9552 33.1733 51.2085 34.0333 51.7152 34.66C52.2352 35.2733 52.9685 35.58 53.9152 35.58C54.2218 35.58 54.5418 35.5333 54.8752 35.44C55.2085 35.3467 55.5352 35.1867 55.8552 34.96C56.0418 34.8533 56.2152 34.8133 56.3752 34.84C56.5352 34.8667 56.6618 34.94 56.7552 35.06C56.8618 35.1667 56.9285 35.3 56.9552 35.46C56.9952 35.6067 56.9885 35.76 56.9352 35.92C56.8818 36.08 56.7685 36.2133 56.5952 36.32C56.1685 36.6267 55.7018 36.8467 55.1952 36.98C54.7018 37.1133 54.2218 37.18 53.7552 37.18ZM62.4706 37.18C61.6706 37.18 60.9973 37.04 60.4506 36.76C59.904 36.48 59.4973 36.0667 59.2306 35.52C58.964 34.9733 58.8306 34.3067 58.8306 33.52V28.8H57.6306C57.364 28.8 57.1573 28.7333 57.0106 28.6C56.864 28.4533 56.7906 28.26 56.7906 28.02C56.7906 27.7667 56.864 27.5733 57.0106 27.44C57.1573 27.3067 57.364 27.24 57.6306 27.24H58.8306V25.18C58.8306 24.8467 58.9173 24.5933 59.0906 24.42C59.2773 24.2467 59.5306 24.16 59.8506 24.16C60.1706 24.16 60.4173 24.2467 60.5906 24.42C60.764 24.5933 60.8506 24.8467 60.8506 25.18V27.24H63.1906C63.4573 27.24 63.664 27.3067 63.8106 27.44C63.9573 27.5733 64.0306 27.7667 64.0306 28.02C64.0306 28.26 63.9573 28.4533 63.8106 28.6C63.664 28.7333 63.4573 28.8 63.1906 28.8H60.8506V33.36C60.8506 34.0667 60.9973 34.6 61.2906 34.96C61.5973 35.32 62.0906 35.5 62.7706 35.5C63.0106 35.5 63.2173 35.48 63.3906 35.44C63.5773 35.3867 63.7306 35.3533 63.8506 35.34C63.9973 35.34 64.1173 35.3933 64.2106 35.5C64.304 35.5933 64.3506 35.78 64.3506 36.06C64.3506 36.26 64.3106 36.4467 64.2306 36.62C64.164 36.7933 64.0373 36.9067 63.8506 36.96C63.6906 37.0133 63.4706 37.06 63.1906 37.1C62.924 37.1533 62.684 37.18 62.4706 37.18ZM66.2911 37.12C65.9711 37.12 65.7244 37.0267 65.5511 36.84C65.3778 36.64 65.2911 36.3667 65.2911 36.02V28.22C65.2911 27.8733 65.3778 27.6067 65.5511 27.42C65.7244 27.2333 65.9711 27.14 66.2911 27.14C66.6111 27.14 66.8578 27.2333 67.0311 27.42C67.2178 27.6067 67.3111 27.8733 67.3111 28.22V36.02C67.3111 36.3667 67.2244 36.64 67.0511 36.84C66.8778 37.0267 66.6244 37.12 66.2911 37.12ZM66.2911 25.06C65.8911 25.06 65.5778 24.96 65.3511 24.76C65.1378 24.56 65.0311 24.28 65.0311 23.92C65.0311 23.5467 65.1378 23.2667 65.3511 23.08C65.5778 22.88 65.8911 22.78 66.2911 22.78C66.6911 22.78 66.9978 22.88 67.2111 23.08C67.4378 23.2667 67.5511 23.5467 67.5511 23.92C67.5511 24.28 67.4378 24.56 67.2111 24.76C66.9978 24.96 66.6911 25.06 66.2911 25.06ZM73.8944 37.18C72.9077 37.18 72.0544 36.9733 71.3344 36.56C70.6277 36.1467 70.0744 35.56 69.6744 34.8C69.2744 34.04 69.0744 33.1467 69.0744 32.12C69.0744 31.3333 69.1877 30.6333 69.4144 30.02C69.641 29.4067 69.961 28.88 70.3744 28.44C70.801 27.9867 71.3077 27.6467 71.8944 27.42C72.4944 27.18 73.161 27.06 73.8944 27.06C74.8677 27.06 75.7077 27.2667 76.4144 27.68C77.1344 28.0933 77.6944 28.68 78.0944 29.44C78.4944 30.1867 78.6944 31.08 78.6944 32.12C78.6944 32.8933 78.581 33.5933 78.3544 34.22C78.1277 34.8467 77.801 35.38 77.3744 35.82C76.961 36.26 76.4544 36.6 75.8544 36.84C75.2677 37.0667 74.6144 37.18 73.8944 37.18ZM73.8944 35.62C74.441 35.62 74.921 35.4867 75.3344 35.22C75.7477 34.9533 76.0677 34.56 76.2944 34.04C76.5344 33.52 76.6544 32.88 76.6544 32.12C76.6544 30.9733 76.401 30.1067 75.8944 29.52C75.3877 28.9333 74.721 28.64 73.8944 28.64C73.3344 28.64 72.8477 28.7733 72.4344 29.04C72.021 29.2933 71.6944 29.68 71.4544 30.2C71.2277 30.72 71.1144 31.36 71.1144 32.12C71.1144 33.2533 71.3677 34.12 71.8744 34.72C72.381 35.32 73.0544 35.62 73.8944 35.62ZM81.463 37.14C81.143 37.14 80.8963 37.0533 80.723 36.88C80.5496 36.6933 80.463 36.44 80.463 36.12V28.12C80.463 27.7867 80.5496 27.5333 80.723 27.36C80.8963 27.1867 81.1363 27.1 81.443 27.1C81.763 27.1 82.003 27.1867 82.163 27.36C82.3363 27.5333 82.423 27.7867 82.423 28.12V29.68L82.203 29.32C82.4963 28.5733 82.9563 28.0133 83.583 27.64C84.2096 27.2533 84.9296 27.06 85.743 27.06C86.5163 27.06 87.1563 27.2067 87.663 27.5C88.183 27.78 88.5696 28.2133 88.823 28.8C89.0763 29.3733 89.203 30.1 89.203 30.98V36.12C89.203 36.44 89.1163 36.6933 88.943 36.88C88.7696 37.0533 88.523 37.14 88.203 37.14C87.8696 37.14 87.6163 37.0533 87.443 36.88C87.2696 36.6933 87.183 36.44 87.183 36.12V31.1C87.183 30.26 87.0163 29.6467 86.683 29.26C86.363 28.8733 85.8563 28.68 85.163 28.68C84.3496 28.68 83.6963 28.9333 83.203 29.44C82.723 29.9467 82.483 30.6267 82.483 31.48V36.12C82.483 36.8 82.143 37.14 81.463 37.14ZM99.3798 37.18C98.6998 37.18 98.0865 37.0467 97.5398 36.78C97.0065 36.5133 96.5865 36.1533 96.2798 35.7C95.9732 35.2467 95.8198 34.7333 95.8198 34.16C95.8198 33.44 95.9998 32.8733 96.3598 32.46C96.7332 32.0333 97.3398 31.7333 98.1798 31.56C99.0332 31.3733 100.18 31.28 101.62 31.28H102.56V32.52H101.64C100.68 32.52 99.9198 32.5667 99.3598 32.66C98.7998 32.7533 98.3998 32.9133 98.1598 33.14C97.9332 33.3533 97.8198 33.6533 97.8198 34.04C97.8198 34.5467 97.9932 34.96 98.3398 35.28C98.6865 35.5867 99.1665 35.74 99.7798 35.74C100.273 35.74 100.707 35.6267 101.08 35.4C101.453 35.16 101.747 34.84 101.96 34.44C102.187 34.04 102.3 33.58 102.3 33.06V30.76C102.3 30 102.14 29.4533 101.82 29.12C101.5 28.7867 100.973 28.62 100.24 28.62C99.8132 28.62 99.3665 28.6733 98.8998 28.78C98.4465 28.8867 97.9732 29.0667 97.4798 29.32C97.2532 29.4267 97.0598 29.46 96.8998 29.42C96.7398 29.38 96.6132 29.2933 96.5198 29.16C96.4265 29.0133 96.3732 28.86 96.3598 28.7C96.3598 28.5267 96.3998 28.36 96.4798 28.2C96.5732 28.04 96.7265 27.92 96.9398 27.84C97.5265 27.56 98.1065 27.36 98.6798 27.24C99.2532 27.12 99.7932 27.06 100.3 27.06C101.193 27.06 101.927 27.2 102.5 27.48C103.087 27.76 103.52 28.1867 103.8 28.76C104.08 29.3333 104.22 30.0733 104.22 30.98V36.12C104.22 36.44 104.14 36.6933 103.98 36.88C103.82 37.0533 103.587 37.14 103.28 37.14C102.987 37.14 102.753 37.0533 102.58 36.88C102.407 36.6933 102.32 36.44 102.32 36.12V34.82H102.5C102.393 35.3133 102.193 35.74 101.9 36.1C101.62 36.4467 101.267 36.7133 100.84 36.9C100.413 37.0867 99.9265 37.18 99.3798 37.18ZM110.662 37.18C109.862 37.18 109.189 37.04 108.642 36.76C108.095 36.48 107.689 36.0667 107.422 35.52C107.155 34.9733 107.022 34.3067 107.022 33.52V28.8H105.822C105.555 28.8 105.349 28.7333 105.202 28.6C105.055 28.4533 104.982 28.26 104.982 28.02C104.982 27.7667 105.055 27.5733 105.202 27.44C105.349 27.3067 105.555 27.24 105.822 27.24H107.022V25.18C107.022 24.8467 107.109 24.5933 107.282 24.42C107.469 24.2467 107.722 24.16 108.042 24.16C108.362 24.16 108.609 24.2467 108.782 24.42C108.955 24.5933 109.042 24.8467 109.042 25.18V27.24H111.382C111.649 27.24 111.855 27.3067 112.002 27.44C112.149 27.5733 112.222 27.7667 112.222 28.02C112.222 28.26 112.149 28.4533 112.002 28.6C111.855 28.7333 111.649 28.8 111.382 28.8H109.042V33.36C109.042 34.0667 109.189 34.6 109.482 34.96C109.789 35.32 110.282 35.5 110.962 35.5C111.202 35.5 111.409 35.48 111.582 35.44C111.769 35.3867 111.922 35.3533 112.042 35.34C112.189 35.34 112.309 35.3933 112.402 35.5C112.495 35.5933 112.542 35.78 112.542 36.06C112.542 36.26 112.502 36.4467 112.422 36.62C112.355 36.7933 112.229 36.9067 112.042 36.96C111.882 37.0133 111.662 37.06 111.382 37.1C111.115 37.1533 110.875 37.18 110.662 37.18ZM117.076 37.18C116.276 37.18 115.603 37.04 115.056 36.76C114.509 36.48 114.103 36.0667 113.836 35.52C113.569 34.9733 113.436 34.3067 113.436 33.52V28.8H112.236C111.969 28.8 111.763 28.7333 111.616 28.6C111.469 28.4533 111.396 28.26 111.396 28.02C111.396 27.7667 111.469 27.5733 111.616 27.44C111.763 27.3067 111.969 27.24 112.236 27.24H113.436V25.18C113.436 24.8467 113.523 24.5933 113.696 24.42C113.883 24.2467 114.136 24.16 114.456 24.16C114.776 24.16 115.023 24.2467 115.196 24.42C115.369 24.5933 115.456 24.8467 115.456 25.18V27.24H117.796C118.063 27.24 118.269 27.3067 118.416 27.44C118.563 27.5733 118.636 27.7667 118.636 28.02C118.636 28.26 118.563 28.4533 118.416 28.6C118.269 28.7333 118.063 28.8 117.796 28.8H115.456V33.36C115.456 34.0667 115.603 34.6 115.896 34.96C116.203 35.32 116.696 35.5 117.376 35.5C117.616 35.5 117.823 35.48 117.996 35.44C118.183 35.3867 118.336 35.3533 118.456 35.34C118.603 35.34 118.723 35.3933 118.816 35.5C118.909 35.5933 118.956 35.78 118.956 36.06C118.956 36.26 118.916 36.4467 118.836 36.62C118.769 36.7933 118.643 36.9067 118.456 36.96C118.296 37.0133 118.076 37.06 117.796 37.1C117.529 37.1533 117.289 37.18 117.076 37.18ZM124.203 37.18C123.136 37.18 122.216 36.98 121.443 36.58C120.683 36.1667 120.09 35.5867 119.663 34.84C119.25 34.08 119.043 33.18 119.043 32.14C119.043 31.1267 119.25 30.24 119.663 29.48C120.076 28.72 120.643 28.1267 121.363 27.7C122.083 27.2733 122.903 27.06 123.823 27.06C124.503 27.06 125.11 27.1733 125.643 27.4C126.176 27.6133 126.63 27.9333 127.003 28.36C127.39 28.7733 127.676 29.28 127.863 29.88C128.063 30.48 128.163 31.1533 128.163 31.9C128.163 32.1267 128.096 32.3 127.963 32.42C127.83 32.5267 127.63 32.58 127.363 32.58H120.643V31.34H126.803L126.463 31.62C126.463 30.9533 126.363 30.3867 126.163 29.92C125.976 29.4533 125.69 29.1 125.303 28.86C124.93 28.6067 124.463 28.48 123.903 28.48C123.276 28.48 122.743 28.6267 122.303 28.92C121.876 29.2133 121.55 29.62 121.323 30.14C121.096 30.66 120.983 31.2667 120.983 31.96V32.08C120.983 33.2533 121.256 34.14 121.803 34.74C122.363 35.3267 123.17 35.62 124.223 35.62C124.623 35.62 125.043 35.5667 125.483 35.46C125.936 35.3533 126.363 35.1733 126.763 34.92C126.99 34.7867 127.19 34.7267 127.363 34.74C127.55 34.7533 127.696 34.8133 127.803 34.92C127.923 35.0267 127.996 35.16 128.023 35.32C128.05 35.48 128.023 35.6467 127.943 35.82C127.863 35.98 127.723 36.1267 127.523 36.26C127.07 36.5667 126.543 36.8 125.943 36.96C125.343 37.1067 124.763 37.18 124.203 37.18ZM130.865 37.14C130.545 37.14 130.299 37.0533 130.125 36.88C129.952 36.6933 129.865 36.44 129.865 36.12V28.12C129.865 27.7867 129.952 27.5333 130.125 27.36C130.299 27.1867 130.539 27.1 130.845 27.1C131.165 27.1 131.405 27.1867 131.565 27.36C131.739 27.5333 131.825 27.7867 131.825 28.12V29.68L131.605 29.32C131.899 28.5733 132.359 28.0133 132.985 27.64C133.612 27.2533 134.332 27.06 135.145 27.06C135.919 27.06 136.559 27.2067 137.065 27.5C137.585 27.78 137.972 28.2133 138.225 28.8C138.479 29.3733 138.605 30.1 138.605 30.98V36.12C138.605 36.44 138.519 36.6933 138.345 36.88C138.172 37.0533 137.925 37.14 137.605 37.14C137.272 37.14 137.019 37.0533 136.845 36.88C136.672 36.6933 136.585 36.44 136.585 36.12V31.1C136.585 30.26 136.419 29.6467 136.085 29.26C135.765 28.8733 135.259 28.68 134.565 28.68C133.752 28.68 133.099 28.9333 132.605 29.44C132.125 29.9467 131.885 30.6267 131.885 31.48V36.12C131.885 36.8 131.545 37.14 130.865 37.14ZM144.609 37.18C143.755 37.18 143.002 36.98 142.349 36.58C141.709 36.1667 141.209 35.58 140.849 34.82C140.489 34.0467 140.309 33.1467 140.309 32.12C140.309 31.0667 140.489 30.1667 140.849 29.42C141.209 28.6733 141.709 28.0933 142.349 27.68C143.002 27.2667 143.755 27.06 144.609 27.06C145.462 27.06 146.195 27.2733 146.809 27.7C147.435 28.1133 147.855 28.6733 148.069 29.38H147.849V23.78C147.849 23.4467 147.935 23.1933 148.109 23.02C148.282 22.8467 148.529 22.76 148.849 22.76C149.169 22.76 149.415 22.8467 149.589 23.02C149.775 23.1933 149.869 23.4467 149.869 23.78V36.12C149.869 36.44 149.782 36.6933 149.609 36.88C149.435 37.0533 149.189 37.14 148.869 37.14C148.549 37.14 148.302 37.0533 148.129 36.88C147.955 36.6933 147.869 36.44 147.869 36.12V34.36L148.089 34.8C147.875 35.52 147.455 36.1 146.829 36.54C146.215 36.9667 145.475 37.18 144.609 37.18ZM145.129 35.62C145.675 35.62 146.155 35.4867 146.569 35.22C146.982 34.9533 147.302 34.56 147.529 34.04C147.769 33.52 147.889 32.88 147.889 32.12C147.889 30.9733 147.635 30.1067 147.129 29.52C146.622 28.9333 145.955 28.64 145.129 28.64C144.569 28.64 144.082 28.7733 143.669 29.04C143.255 29.2933 142.929 29.68 142.689 30.2C142.462 30.72 142.349 31.36 142.349 32.12C142.349 33.2533 142.602 34.12 143.109 34.72C143.615 35.32 144.289 35.62 145.129 35.62ZM155.685 37.18C154.898 37.18 154.238 37.0333 153.705 36.74C153.185 36.4467 152.792 36.0133 152.525 35.44C152.272 34.8533 152.145 34.12 152.145 33.24V28.12C152.145 27.7733 152.232 27.52 152.405 27.36C152.578 27.1867 152.825 27.1 153.145 27.1C153.465 27.1 153.712 27.1867 153.885 27.36C154.072 27.52 154.165 27.7733 154.165 28.12V33.26C154.165 34.0467 154.325 34.6267 154.645 35C154.965 35.3733 155.472 35.56 156.165 35.56C156.925 35.56 157.538 35.3067 158.005 34.8C158.485 34.28 158.725 33.6 158.725 32.76V28.12C158.725 27.7733 158.812 27.52 158.985 27.36C159.158 27.1867 159.412 27.1 159.745 27.1C160.065 27.1 160.312 27.1867 160.485 27.36C160.658 27.52 160.745 27.7733 160.745 28.12V36.12C160.745 36.8 160.418 37.14 159.765 37.14C159.458 37.14 159.218 37.0533 159.045 36.88C158.872 36.6933 158.785 36.44 158.785 36.12V34.42L159.045 34.86C158.778 35.6067 158.352 36.18 157.765 36.58C157.178 36.98 156.485 37.18 155.685 37.18ZM167.672 37.18C166.605 37.18 165.685 36.98 164.912 36.58C164.152 36.1667 163.559 35.5867 163.132 34.84C162.719 34.08 162.512 33.18 162.512 32.14C162.512 31.1267 162.719 30.24 163.132 29.48C163.545 28.72 164.112 28.1267 164.832 27.7C165.552 27.2733 166.372 27.06 167.292 27.06C167.972 27.06 168.579 27.1733 169.112 27.4C169.645 27.6133 170.099 27.9333 170.472 28.36C170.859 28.7733 171.145 29.28 171.332 29.88C171.532 30.48 171.632 31.1533 171.632 31.9C171.632 32.1267 171.565 32.3 171.432 32.42C171.299 32.5267 171.099 32.58 170.832 32.58H164.112V31.34H170.272L169.932 31.62C169.932 30.9533 169.832 30.3867 169.632 29.92C169.445 29.4533 169.159 29.1 168.772 28.86C168.399 28.6067 167.932 28.48 167.372 28.48C166.745 28.48 166.212 28.6267 165.772 28.92C165.345 29.2133 165.019 29.62 164.792 30.14C164.565 30.66 164.452 31.2667 164.452 31.96V32.08C164.452 33.2533 164.725 34.14 165.272 34.74C165.832 35.3267 166.639 35.62 167.692 35.62C168.092 35.62 168.512 35.5667 168.952 35.46C169.405 35.3533 169.832 35.1733 170.232 34.92C170.459 34.7867 170.659 34.7267 170.832 34.74C171.019 34.7533 171.165 34.8133 171.272 34.92C171.392 35.0267 171.465 35.16 171.492 35.32C171.519 35.48 171.492 35.6467 171.412 35.82C171.332 35.98 171.192 36.1267 170.992 36.26C170.539 36.5667 170.012 36.8 169.412 36.96C168.812 37.1067 168.232 37.18 167.672 37.18Z" fill="#201F1F"/>
<path d="M0 60.5H579.5" stroke="#CDCCCB"/>
<rect width="579.5" height="49" transform="translate(0 61)" fill="white"/>
<path d="M27.4922 91H24.9766L23.9766 88.3984H19.3984L18.4531 91H16L20.4609 79.5469H22.9062L27.4922 91ZM23.2344 86.4688L21.6562 82.2188L20.1094 86.4688H23.2344ZM34.1719 91V89.7578C33.8698 90.2005 33.4714 90.5495 32.9766 90.8047C32.487 91.0599 31.9688 91.1875 31.4219 91.1875C30.8646 91.1875 30.3646 91.0651 29.9219 90.8203C29.4792 90.5755 29.1589 90.2318 28.9609 89.7891C28.763 89.3464 28.6641 88.7344 28.6641 87.9531V82.7031H30.8594V86.5156C30.8594 87.6823 30.8984 88.3984 30.9766 88.6641C31.0599 88.9245 31.2083 89.1328 31.4219 89.2891C31.6354 89.4401 31.9062 89.5156 32.2344 89.5156C32.6094 89.5156 32.9453 89.4141 33.2422 89.2109C33.5391 89.0026 33.7422 88.7474 33.8516 88.4453C33.9609 88.138 34.0156 87.3906 34.0156 86.2031V82.7031H36.2109V91H34.1719ZM45.7266 85.1562L43.5625 85.5469C43.4896 85.1146 43.3229 84.7891 43.0625 84.5703C42.8073 84.3516 42.474 84.2422 42.0625 84.2422C41.5156 84.2422 41.0781 84.4323 40.75 84.8125C40.4271 85.1875 40.2656 85.8177 40.2656 86.7031C40.2656 87.6875 40.4297 88.3828 40.7578 88.7891C41.0911 89.1953 41.5365 89.3984 42.0938 89.3984C42.5104 89.3984 42.8516 89.2812 43.1172 89.0469C43.3828 88.8073 43.5703 88.3984 43.6797 87.8203L45.8359 88.1875C45.612 89.1771 45.1823 89.9245 44.5469 90.4297C43.9115 90.9349 43.0599 91.1875 41.9922 91.1875C40.7786 91.1875 39.8099 90.8047 39.0859 90.0391C38.3672 89.2734 38.0078 88.2135 38.0078 86.8594C38.0078 85.4896 38.3698 84.4245 39.0938 83.6641C39.8177 82.8984 40.7969 82.5156 42.0312 82.5156C43.0417 82.5156 43.8438 82.7344 44.4375 83.1719C45.0365 83.6042 45.4661 84.2656 45.7266 85.1562ZM52.8594 91V89.7578C52.5573 90.2005 52.1589 90.5495 51.6641 90.8047C51.1745 91.0599 50.6562 91.1875 50.1094 91.1875C49.5521 91.1875 49.0521 91.0651 48.6094 90.8203C48.1667 90.5755 47.8464 90.2318 47.6484 89.7891C47.4505 89.3464 47.3516 88.7344 47.3516 87.9531V82.7031H49.5469V86.5156C49.5469 87.6823 49.5859 88.3984 49.6641 88.6641C49.7474 88.9245 49.8958 89.1328 50.1094 89.2891C50.3229 89.4401 50.5938 89.5156 50.9219 89.5156C51.2969 89.5156 51.6328 89.4141 51.9297 89.2109C52.2266 89.0026 52.4297 88.7474 52.5391 88.4453C52.6484 88.138 52.7031 87.3906 52.7031 86.2031V82.7031H54.8984V91H52.8594ZM64.7266 91H62.5312V86.7656C62.5312 85.8698 62.4844 85.2917 62.3906 85.0312C62.2969 84.7656 62.1432 84.5599 61.9297 84.4141C61.7214 84.2682 61.4688 84.1953 61.1719 84.1953C60.7917 84.1953 60.4505 84.2995 60.1484 84.5078C59.8464 84.7161 59.638 84.9922 59.5234 85.3359C59.4141 85.6797 59.3594 86.3151 59.3594 87.2422V91H57.1641V82.7031H59.2031V83.9219C59.9271 82.9844 60.8385 82.5156 61.9375 82.5156C62.4219 82.5156 62.8646 82.6042 63.2656 82.7812C63.6667 82.9531 63.9688 83.1745 64.1719 83.4453C64.3802 83.7161 64.5234 84.0234 64.6016 84.3672C64.6849 84.7109 64.7266 85.2031 64.7266 85.8438V91ZM71.7656 88.3594L73.9531 88.7266C73.6719 89.5286 73.2266 90.1406 72.6172 90.5625C72.013 90.9792 71.2552 91.1875 70.3438 91.1875C68.901 91.1875 67.8333 90.7161 67.1406 89.7734C66.5938 89.0182 66.3203 88.0651 66.3203 86.9141C66.3203 85.5391 66.6797 84.4635 67.3984 83.6875C68.1172 82.9062 69.026 82.5156 70.125 82.5156C71.3594 82.5156 72.3333 82.9245 73.0469 83.7422C73.7604 84.5547 74.1016 85.8021 74.0703 87.4844H68.5703C68.5859 88.1354 68.763 88.6432 69.1016 89.0078C69.4401 89.3672 69.862 89.5469 70.3672 89.5469C70.7109 89.5469 71 89.4531 71.2344 89.2656C71.4688 89.0781 71.6458 88.776 71.7656 88.3594ZM71.8906 86.1406C71.875 85.5052 71.7109 85.0234 71.3984 84.6953C71.0859 84.362 70.7057 84.1953 70.2578 84.1953C69.7786 84.1953 69.3828 84.3698 69.0703 84.7188C68.7578 85.0677 68.6042 85.5417 68.6094 86.1406H71.8906Z" fill="#3E3E3D"/>
<g opacity="0.5">
<path d="M0 109.5H579.5" stroke="#CDCCCB"/>
</g>
<rect width="579.5" height="61" transform="translate(579.5)" fill="white"/>
<path d="M601.84 37.18C601.227 37.18 600.627 37.1333 600.04 37.04C599.453 36.9467 598.9 36.8067 598.38 36.62C597.86 36.42 597.393 36.18 596.98 35.9C596.78 35.7533 596.64 35.5867 596.56 35.4C596.493 35.2133 596.473 35.0333 596.5 34.86C596.54 34.6733 596.62 34.5133 596.74 34.38C596.86 34.2467 597.007 34.1667 597.18 34.14C597.353 34.1 597.547 34.1533 597.76 34.3C598.36 34.6867 598.993 34.9733 599.66 35.16C600.327 35.3333 601.053 35.42 601.84 35.42C602.973 35.42 603.807 35.22 604.34 34.82C604.887 34.4067 605.16 33.8733 605.16 33.22C605.16 32.6867 604.967 32.2667 604.58 31.96C604.193 31.64 603.547 31.3867 602.64 31.2L600.5 30.76C599.233 30.4933 598.287 30.0533 597.66 29.44C597.047 28.8267 596.74 28 596.74 26.96C596.74 26.3333 596.867 25.76 597.12 25.24C597.387 24.72 597.753 24.2733 598.22 23.9C598.687 23.5133 599.247 23.22 599.9 23.02C600.553 22.82 601.267 22.72 602.04 22.72C602.867 22.72 603.64 22.8267 604.36 23.04C605.093 23.2533 605.747 23.58 606.32 24.02C606.493 24.14 606.607 24.2933 606.66 24.48C606.727 24.6533 606.74 24.8267 606.7 25C606.673 25.1733 606.6 25.32 606.48 25.44C606.36 25.56 606.207 25.6333 606.02 25.66C605.833 25.6733 605.627 25.6067 605.4 25.46C604.88 25.1133 604.347 24.8667 603.8 24.72C603.267 24.56 602.673 24.48 602.02 24.48C601.367 24.48 600.793 24.58 600.3 24.78C599.82 24.98 599.447 25.26 599.18 25.62C598.927 25.98 598.8 26.4067 598.8 26.9C598.8 27.46 598.98 27.9067 599.34 28.24C599.7 28.5733 600.3 28.8267 601.14 29L603.26 29.44C604.593 29.72 605.587 30.1533 606.24 30.74C606.893 31.3267 607.22 32.1067 607.22 33.08C607.22 33.7067 607.093 34.2733 606.84 34.78C606.587 35.2733 606.227 35.7 605.76 36.06C605.293 36.42 604.727 36.7 604.06 36.9C603.407 37.0867 602.667 37.18 601.84 37.18ZM609.861 40.74C609.541 40.74 609.295 40.6533 609.121 40.48C608.948 40.3067 608.861 40.0533 608.861 39.72V28.12C608.861 27.7867 608.948 27.5333 609.121 27.36C609.295 27.1867 609.535 27.1 609.841 27.1C610.161 27.1 610.408 27.1867 610.581 27.36C610.755 27.5333 610.841 27.7867 610.841 28.12V29.86L610.621 29.44C610.835 28.72 611.255 28.1467 611.881 27.72C612.508 27.28 613.248 27.06 614.101 27.06C614.968 27.06 615.721 27.2667 616.361 27.68C617.015 28.0933 617.515 28.6733 617.861 29.42C618.221 30.1667 618.401 31.0667 618.401 32.12C618.401 33.1467 618.221 34.0467 617.861 34.82C617.515 35.58 617.021 36.1667 616.381 36.58C615.741 36.98 614.981 37.18 614.101 37.18C613.261 37.18 612.528 36.9667 611.901 36.54C611.275 36.1133 610.855 35.5467 610.641 34.84H610.881V39.72C610.881 40.0533 610.788 40.3067 610.601 40.48C610.428 40.6533 610.181 40.74 609.861 40.74ZM613.601 35.62C614.161 35.62 614.648 35.4867 615.061 35.22C615.475 34.9533 615.795 34.56 616.021 34.04C616.248 33.52 616.361 32.88 616.361 32.12C616.361 30.9733 616.108 30.1067 615.601 29.52C615.108 28.9333 614.441 28.64 613.601 28.64C613.055 28.64 612.568 28.7733 612.141 29.04C611.728 29.2933 611.408 29.68 611.181 30.2C610.955 30.72 610.841 31.36 610.841 32.12C610.841 33.2533 611.095 34.12 611.601 34.72C612.108 35.32 612.775 35.62 613.601 35.62ZM624.758 37.18C623.691 37.18 622.771 36.98 621.998 36.58C621.238 36.1667 620.644 35.5867 620.218 34.84C619.804 34.08 619.598 33.18 619.598 32.14C619.598 31.1267 619.804 30.24 620.218 29.48C620.631 28.72 621.198 28.1267 621.918 27.7C622.638 27.2733 623.458 27.06 624.378 27.06C625.058 27.06 625.664 27.1733 626.198 27.4C626.731 27.6133 627.184 27.9333 627.558 28.36C627.944 28.7733 628.231 29.28 628.418 29.88C628.618 30.48 628.718 31.1533 628.718 31.9C628.718 32.1267 628.651 32.3 628.518 32.42C628.384 32.5267 628.184 32.58 627.918 32.58H621.198V31.34H627.358L627.018 31.62C627.018 30.9533 626.918 30.3867 626.718 29.92C626.531 29.4533 626.244 29.1 625.858 28.86C625.484 28.6067 625.018 28.48 624.458 28.48C623.831 28.48 623.298 28.6267 622.858 28.92C622.431 29.2133 622.104 29.62 621.878 30.14C621.651 30.66 621.538 31.2667 621.538 31.96V32.08C621.538 33.2533 621.811 34.14 622.358 34.74C622.918 35.3267 623.724 35.62 624.778 35.62C625.178 35.62 625.598 35.5667 626.038 35.46C626.491 35.3533 626.918 35.1733 627.318 34.92C627.544 34.7867 627.744 34.7267 627.918 34.74C628.104 34.7533 628.251 34.8133 628.358 34.92C628.478 35.0267 628.551 35.16 628.578 35.32C628.604 35.48 628.578 35.6467 628.498 35.82C628.418 35.98 628.278 36.1267 628.078 36.26C627.624 36.5667 627.098 36.8 626.498 36.96C625.898 37.1067 625.318 37.18 624.758 37.18ZM625.178 25.84C625.071 26 624.938 26.0933 624.778 26.12C624.631 26.1467 624.484 26.12 624.338 26.04C624.191 25.96 624.084 25.8467 624.018 25.7C623.964 25.5533 623.978 25.3933 624.058 25.22L625.678 22.08C625.784 21.8667 625.918 21.7267 626.078 21.66C626.251 21.5933 626.424 21.5867 626.598 21.64C626.784 21.68 626.938 21.76 627.058 21.88C627.191 22 627.271 22.1533 627.298 22.34C627.324 22.5133 627.278 22.6867 627.158 22.86L625.178 25.84ZM634.72 37.18C633.72 37.18 632.853 36.9733 632.12 36.56C631.4 36.1333 630.84 35.54 630.44 34.78C630.04 34.0067 629.84 33.1 629.84 32.06C629.84 31.2867 629.953 30.5933 630.18 29.98C630.407 29.3533 630.727 28.8267 631.14 28.4C631.567 27.9733 632.08 27.6467 632.68 27.42C633.293 27.18 633.973 27.06 634.72 27.06C635.187 27.06 635.673 27.1333 636.18 27.28C636.7 27.4133 637.18 27.64 637.62 27.96C637.793 28.0667 637.9 28.2 637.94 28.36C637.993 28.5067 638 28.66 637.96 28.82C637.933 28.98 637.86 29.12 637.74 29.24C637.633 29.3467 637.5 29.4133 637.34 29.44C637.18 29.4533 637.007 29.4067 636.82 29.3C636.5 29.0733 636.173 28.9133 635.84 28.82C635.507 28.7133 635.187 28.66 634.88 28.66C634.4 28.66 633.973 28.74 633.6 28.9C633.24 29.0467 632.933 29.2667 632.68 29.56C632.427 29.84 632.233 30.1933 632.1 30.62C631.98 31.0467 631.92 31.5333 631.92 32.08C631.92 33.1733 632.173 34.0333 632.68 34.66C633.2 35.2733 633.933 35.58 634.88 35.58C635.187 35.58 635.507 35.5333 635.84 35.44C636.173 35.3467 636.5 35.1867 636.82 34.96C637.007 34.8533 637.18 34.8133 637.34 34.84C637.5 34.8667 637.627 34.94 637.72 35.06C637.827 35.1667 637.893 35.3 637.92 35.46C637.96 35.6067 637.953 35.76 637.9 35.92C637.847 36.08 637.733 36.2133 637.56 36.32C637.133 36.6267 636.667 36.8467 636.16 36.98C635.667 37.1133 635.187 37.18 634.72 37.18ZM640.256 37.12C639.936 37.12 639.689 37.0267 639.516 36.84C639.343 36.64 639.256 36.3667 639.256 36.02V28.22C639.256 27.8733 639.343 27.6067 639.516 27.42C639.689 27.2333 639.936 27.14 640.256 27.14C640.576 27.14 640.823 27.2333 640.996 27.42C641.183 27.6067 641.276 27.8733 641.276 28.22V36.02C641.276 36.3667 641.189 36.64 641.016 36.84C640.843 37.0267 640.589 37.12 640.256 37.12ZM640.256 25.06C639.856 25.06 639.543 24.96 639.316 24.76C639.103 24.56 638.996 24.28 638.996 23.92C638.996 23.5467 639.103 23.2667 639.316 23.08C639.543 22.88 639.856 22.78 640.256 22.78C640.656 22.78 640.963 22.88 641.176 23.08C641.403 23.2667 641.516 23.5467 641.516 23.92C641.516 24.28 641.403 24.56 641.176 24.76C640.963 24.96 640.656 25.06 640.256 25.06ZM645.219 37.14C644.899 37.14 644.646 37.0533 644.459 36.88C644.286 36.6933 644.199 36.44 644.199 36.12V28.8H643.079C642.826 28.8 642.626 28.7333 642.479 28.6C642.333 28.4533 642.259 28.26 642.259 28.02C642.259 27.7667 642.333 27.5733 642.479 27.44C642.626 27.3067 642.826 27.24 643.079 27.24H644.779L644.199 27.78V27.06C644.199 25.7667 644.519 24.78 645.159 24.1C645.799 23.42 646.739 23.02 647.979 22.9L648.579 22.86C648.819 22.8333 649.013 22.8667 649.159 22.96C649.306 23.04 649.406 23.16 649.459 23.32C649.513 23.4667 649.519 23.62 649.479 23.78C649.439 23.94 649.366 24.08 649.259 24.2C649.166 24.3067 649.046 24.3667 648.899 24.38L648.359 24.42C647.613 24.4733 647.066 24.6933 646.719 25.08C646.386 25.4667 646.219 26.0333 646.219 26.78V27.56L645.939 27.24H651.419C651.753 27.24 652.006 27.34 652.179 27.54C652.353 27.7267 652.439 27.9867 652.439 28.32V36.02C652.439 36.3667 652.353 36.64 652.179 36.84C652.019 37.0267 651.766 37.12 651.419 37.12C651.099 37.12 650.853 37.0267 650.679 36.84C650.506 36.64 650.419 36.3667 650.419 36.02V28.8H646.219V36.12C646.219 36.8 645.886 37.14 645.219 37.14ZM651.459 25.06C651.073 25.06 650.773 24.96 650.559 24.76C650.346 24.56 650.239 24.28 650.239 23.92C650.239 23.5467 650.346 23.2667 650.559 23.08C650.773 22.88 651.073 22.78 651.459 22.78C651.859 22.78 652.159 22.88 652.359 23.08C652.573 23.2667 652.679 23.5467 652.679 23.92C652.679 24.28 652.573 24.56 652.359 24.76C652.159 24.96 651.859 25.06 651.459 25.06ZM659.06 37.18C658.06 37.18 657.193 36.9733 656.46 36.56C655.74 36.1333 655.18 35.54 654.78 34.78C654.38 34.0067 654.18 33.1 654.18 32.06C654.18 31.2867 654.293 30.5933 654.52 29.98C654.747 29.3533 655.067 28.8267 655.48 28.4C655.907 27.9733 656.42 27.6467 657.02 27.42C657.633 27.18 658.313 27.06 659.06 27.06C659.527 27.06 660.013 27.1333 660.52 27.28C661.04 27.4133 661.52 27.64 661.96 27.96C662.133 28.0667 662.24 28.2 662.28 28.36C662.333 28.5067 662.34 28.66 662.3 28.82C662.273 28.98 662.2 29.12 662.08 29.24C661.973 29.3467 661.84 29.4133 661.68 29.44C661.52 29.4533 661.347 29.4067 661.16 29.3C660.84 29.0733 660.513 28.9133 660.18 28.82C659.847 28.7133 659.527 28.66 659.22 28.66C658.74 28.66 658.313 28.74 657.94 28.9C657.58 29.0467 657.273 29.2667 657.02 29.56C656.767 29.84 656.573 30.1933 656.44 30.62C656.32 31.0467 656.26 31.5333 656.26 32.08C656.26 33.1733 656.513 34.0333 657.02 34.66C657.54 35.2733 658.273 35.58 659.22 35.58C659.527 35.58 659.847 35.5333 660.18 35.44C660.513 35.3467 660.84 35.1867 661.16 34.96C661.347 34.8533 661.52 34.8133 661.68 34.84C661.84 34.8667 661.967 34.94 662.06 35.06C662.167 35.1667 662.233 35.3 662.26 35.46C662.3 35.6067 662.293 35.76 662.24 35.92C662.187 36.08 662.073 36.2133 661.9 36.32C661.473 36.6267 661.007 36.8467 660.5 36.98C660.007 37.1133 659.527 37.18 659.06 37.18ZM666.638 37.18C665.958 37.18 665.344 37.0467 664.798 36.78C664.264 36.5133 663.844 36.1533 663.538 35.7C663.231 35.2467 663.078 34.7333 663.078 34.16C663.078 33.44 663.258 32.8733 663.618 32.46C663.991 32.0333 664.598 31.7333 665.438 31.56C666.291 31.3733 667.438 31.28 668.878 31.28H669.818V32.52H668.898C667.938 32.52 667.178 32.5667 666.618 32.66C666.058 32.7533 665.658 32.9133 665.418 33.14C665.191 33.3533 665.078 33.6533 665.078 34.04C665.078 34.5467 665.251 34.96 665.598 35.28C665.944 35.5867 666.424 35.74 667.038 35.74C667.531 35.74 667.964 35.6267 668.338 35.4C668.711 35.16 669.004 34.84 669.218 34.44C669.444 34.04 669.558 33.58 669.558 33.06V30.76C669.558 30 669.398 29.4533 669.078 29.12C668.758 28.7867 668.231 28.62 667.498 28.62C667.071 28.62 666.624 28.6733 666.158 28.78C665.704 28.8867 665.231 29.0667 664.738 29.32C664.511 29.4267 664.318 29.46 664.158 29.42C663.998 29.38 663.871 29.2933 663.778 29.16C663.684 29.0133 663.631 28.86 663.618 28.7C663.618 28.5267 663.658 28.36 663.738 28.2C663.831 28.04 663.984 27.92 664.198 27.84C664.784 27.56 665.364 27.36 665.938 27.24C666.511 27.12 667.051 27.06 667.558 27.06C668.451 27.06 669.184 27.2 669.758 27.48C670.344 27.76 670.778 28.1867 671.058 28.76C671.338 29.3333 671.478 30.0733 671.478 30.98V36.12C671.478 36.44 671.398 36.6933 671.238 36.88C671.078 37.0533 670.844 37.14 670.538 37.14C670.244 37.14 670.011 37.0533 669.838 36.88C669.664 36.6933 669.578 36.44 669.578 36.12V34.82H669.758C669.651 35.3133 669.451 35.74 669.158 36.1C668.878 36.4467 668.524 36.7133 668.098 36.9C667.671 37.0867 667.184 37.18 666.638 37.18ZM677.92 37.18C677.12 37.18 676.447 37.04 675.9 36.76C675.353 36.48 674.947 36.0667 674.68 35.52C674.413 34.9733 674.28 34.3067 674.28 33.52V28.8H673.08C672.813 28.8 672.607 28.7333 672.46 28.6C672.313 28.4533 672.24 28.26 672.24 28.02C672.24 27.7667 672.313 27.5733 672.46 27.44C672.607 27.3067 672.813 27.24 673.08 27.24H674.28V25.18C674.28 24.8467 674.367 24.5933 674.54 24.42C674.727 24.2467 674.98 24.16 675.3 24.16C675.62 24.16 675.867 24.2467 676.04 24.42C676.213 24.5933 676.3 24.8467 676.3 25.18V27.24H678.64C678.907 27.24 679.113 27.3067 679.26 27.44C679.407 27.5733 679.48 27.7667 679.48 28.02C679.48 28.26 679.407 28.4533 679.26 28.6C679.113 28.7333 678.907 28.8 678.64 28.8H676.3V33.36C676.3 34.0667 676.447 34.6 676.74 34.96C677.047 35.32 677.54 35.5 678.22 35.5C678.46 35.5 678.667 35.48 678.84 35.44C679.027 35.3867 679.18 35.3533 679.3 35.34C679.447 35.34 679.567 35.3933 679.66 35.5C679.753 35.5933 679.8 35.78 679.8 36.06C679.8 36.26 679.76 36.4467 679.68 36.62C679.613 36.7933 679.487 36.9067 679.3 36.96C679.14 37.0133 678.92 37.06 678.64 37.1C678.373 37.1533 678.133 37.18 677.92 37.18ZM681.74 37.12C681.42 37.12 681.174 37.0267 681 36.84C680.827 36.64 680.74 36.3667 680.74 36.02V28.22C680.74 27.8733 680.827 27.6067 681 27.42C681.174 27.2333 681.42 27.14 681.74 27.14C682.06 27.14 682.307 27.2333 682.48 27.42C682.667 27.6067 682.76 27.8733 682.76 28.22V36.02C682.76 36.3667 682.674 36.64 682.5 36.84C682.327 37.0267 682.074 37.12 681.74 37.12ZM681.74 25.06C681.34 25.06 681.027 24.96 680.8 24.76C680.587 24.56 680.48 24.28 680.48 23.92C680.48 23.5467 680.587 23.2667 680.8 23.08C681.027 22.88 681.34 22.78 681.74 22.78C682.14 22.78 682.447 22.88 682.66 23.08C682.887 23.2667 683 23.5467 683 23.92C683 24.28 682.887 24.56 682.66 24.76C682.447 24.96 682.14 25.06 681.74 25.06ZM689.344 37.18C688.357 37.18 687.504 36.9733 686.784 36.56C686.077 36.1467 685.524 35.56 685.124 34.8C684.724 34.04 684.524 33.1467 684.524 32.12C684.524 31.3333 684.637 30.6333 684.864 30.02C685.09 29.4067 685.41 28.88 685.824 28.44C686.25 27.9867 686.757 27.6467 687.344 27.42C687.944 27.18 688.61 27.06 689.344 27.06C690.317 27.06 691.157 27.2667 691.864 27.68C692.584 28.0933 693.144 28.68 693.544 29.44C693.944 30.1867 694.144 31.08 694.144 32.12C694.144 32.8933 694.03 33.5933 693.804 34.22C693.577 34.8467 693.25 35.38 692.824 35.82C692.41 36.26 691.904 36.6 691.304 36.84C690.717 37.0667 690.064 37.18 689.344 37.18ZM689.344 35.62C689.89 35.62 690.37 35.4867 690.784 35.22C691.197 34.9533 691.517 34.56 691.744 34.04C691.984 33.52 692.104 32.88 692.104 32.12C692.104 30.9733 691.85 30.1067 691.344 29.52C690.837 28.9333 690.17 28.64 689.344 28.64C688.784 28.64 688.297 28.7733 687.884 29.04C687.47 29.2933 687.144 29.68 686.904 30.2C686.677 30.72 686.564 31.36 686.564 32.12C686.564 33.2533 686.817 34.12 687.324 34.72C687.83 35.32 688.504 35.62 689.344 35.62ZM696.912 37.14C696.592 37.14 696.346 37.0533 696.172 36.88C695.999 36.6933 695.912 36.44 695.912 36.12V28.12C695.912 27.7867 695.999 27.5333 696.172 27.36C696.346 27.1867 696.586 27.1 696.892 27.1C697.212 27.1 697.452 27.1867 697.612 27.36C697.786 27.5333 697.872 27.7867 697.872 28.12V29.68L697.652 29.32C697.946 28.5733 698.406 28.0133 699.032 27.64C699.659 27.2533 700.379 27.06 701.192 27.06C701.966 27.06 702.606 27.2067 703.112 27.5C703.632 27.78 704.019 28.2133 704.272 28.8C704.526 29.3733 704.652 30.1 704.652 30.98V36.12C704.652 36.44 704.566 36.6933 704.392 36.88C704.219 37.0533 703.972 37.14 703.652 37.14C703.319 37.14 703.066 37.0533 702.892 36.88C702.719 36.6933 702.632 36.44 702.632 36.12V31.1C702.632 30.26 702.466 29.6467 702.132 29.26C701.812 28.8733 701.306 28.68 700.612 28.68C699.799 28.68 699.146 28.9333 698.652 29.44C698.172 29.9467 697.932 30.6267 697.932 31.48V36.12C697.932 36.8 697.592 37.14 696.912 37.14Z" fill="#201F1F"/>
<path d="M579.5 60.5H1159" stroke="#CDCCCB"/>
<rect width="579.5" height="49" transform="translate(579.5 61)" fill="white"/>
<path d="M596.672 91V79.5469H598.188V89.6484H603.828V91H596.672ZM611.141 88.3281L612.594 88.5078C612.365 89.3568 611.94 90.0156 611.32 90.4844C610.701 90.9531 609.909 91.1875 608.945 91.1875C607.732 91.1875 606.768 90.8151 606.055 90.0703C605.346 89.3203 604.992 88.2708 604.992 86.9219C604.992 85.526 605.352 84.4427 606.07 83.6719C606.789 82.901 607.721 82.5156 608.867 82.5156C609.977 82.5156 610.883 82.8932 611.586 83.6484C612.289 84.4036 612.641 85.4661 612.641 86.8359C612.641 86.9193 612.638 87.0443 612.633 87.2109H606.445C606.497 88.1224 606.755 88.8203 607.219 89.3047C607.682 89.7891 608.26 90.0312 608.953 90.0312C609.469 90.0312 609.909 89.8958 610.273 89.625C610.638 89.3542 610.927 88.9219 611.141 88.3281ZM606.523 86.0547H611.156C611.094 85.3568 610.917 84.8333 610.625 84.4844C610.177 83.9427 609.596 83.6719 608.883 83.6719C608.237 83.6719 607.693 83.888 607.25 84.3203C606.812 84.7526 606.57 85.3307 606.523 86.0547ZM618.789 91V79.5469H620.195V91H618.789ZM621.859 86.8516C621.859 85.3151 622.286 84.1771 623.141 83.4375C623.854 82.8229 624.724 82.5156 625.75 82.5156C626.891 82.5156 627.823 82.8906 628.547 83.6406C629.271 84.3854 629.633 85.4167 629.633 86.7344C629.633 87.8021 629.471 88.6432 629.148 89.2578C628.831 89.8672 628.365 90.3411 627.75 90.6797C627.141 91.0182 626.474 91.1875 625.75 91.1875C624.589 91.1875 623.648 90.8151 622.93 90.0703C622.216 89.3255 621.859 88.2526 621.859 86.8516ZM623.305 86.8516C623.305 87.9141 623.536 88.7109 624 89.2422C624.464 89.7682 625.047 90.0312 625.75 90.0312C626.448 90.0312 627.029 89.7656 627.492 89.2344C627.956 88.7031 628.188 87.8932 628.188 86.8047C628.188 85.7786 627.953 85.0026 627.484 84.4766C627.021 83.9453 626.443 83.6797 625.75 83.6797C625.047 83.6797 624.464 83.9427 624 84.4688C623.536 84.9948 623.305 85.7891 623.305 86.8516ZM636.703 89.9766C636.182 90.4193 635.68 90.7318 635.195 90.9141C634.716 91.0964 634.201 91.1875 633.648 91.1875C632.737 91.1875 632.036 90.9661 631.547 90.5234C631.057 90.0755 630.812 89.5052 630.812 88.8125C630.812 88.4062 630.904 88.0365 631.086 87.7031C631.273 87.3646 631.516 87.0938 631.812 86.8906C632.115 86.6875 632.453 86.5339 632.828 86.4297C633.104 86.3568 633.521 86.2865 634.078 86.2188C635.214 86.0833 636.049 85.9219 636.586 85.7344C636.591 85.5417 636.594 85.4193 636.594 85.3672C636.594 84.7943 636.461 84.3906 636.195 84.1562C635.836 83.8385 635.302 83.6797 634.594 83.6797C633.932 83.6797 633.443 83.7969 633.125 84.0312C632.812 84.2604 632.581 84.6693 632.43 85.2578L631.055 85.0703C631.18 84.4818 631.385 84.0078 631.672 83.6484C631.958 83.2839 632.372 83.0052 632.914 82.8125C633.456 82.6146 634.083 82.5156 634.797 82.5156C635.505 82.5156 636.081 82.599 636.523 82.7656C636.966 82.9323 637.292 83.1432 637.5 83.3984C637.708 83.6484 637.854 83.9661 637.938 84.3516C637.984 84.5911 638.008 85.0234 638.008 85.6484V87.5234C638.008 88.8307 638.036 89.6589 638.094 90.0078C638.156 90.3516 638.276 90.6823 638.453 91H636.984C636.839 90.7083 636.745 90.3672 636.703 89.9766ZM636.586 86.8359C636.076 87.0443 635.31 87.2214 634.289 87.3672C633.711 87.4505 633.302 87.5443 633.062 87.6484C632.823 87.7526 632.638 87.9062 632.508 88.1094C632.378 88.3073 632.312 88.5286 632.312 88.7734C632.312 89.1484 632.453 89.4609 632.734 89.7109C633.021 89.9609 633.438 90.0859 633.984 90.0859C634.526 90.0859 635.008 89.9688 635.43 89.7344C635.852 89.4948 636.161 89.1693 636.359 88.7578C636.51 88.4401 636.586 87.9714 636.586 87.3516V86.8359ZM645.578 91V89.9531C645.052 90.776 644.279 91.1875 643.258 91.1875C642.596 91.1875 641.987 91.0052 641.43 90.6406C640.878 90.276 640.448 89.7682 640.141 89.1172C639.839 88.4609 639.688 87.7083 639.688 86.8594C639.688 86.0312 639.826 85.2812 640.102 84.6094C640.378 83.9323 640.792 83.4141 641.344 83.0547C641.896 82.6953 642.513 82.5156 643.195 82.5156C643.695 82.5156 644.141 82.6224 644.531 82.8359C644.922 83.0443 645.24 83.3177 645.484 83.6562V79.5469H646.883V91H645.578ZM641.133 86.8594C641.133 87.9219 641.357 88.7161 641.805 89.2422C642.253 89.7682 642.781 90.0312 643.391 90.0312C644.005 90.0312 644.526 89.7812 644.953 89.2812C645.385 88.776 645.602 88.0078 645.602 86.9766C645.602 85.8411 645.383 85.0078 644.945 84.4766C644.508 83.9453 643.969 83.6797 643.328 83.6797C642.703 83.6797 642.18 83.9349 641.758 84.4453C641.341 84.9557 641.133 85.7604 641.133 86.8594ZM654.781 88.3281L656.234 88.5078C656.005 89.3568 655.581 90.0156 654.961 90.4844C654.341 90.9531 653.549 91.1875 652.586 91.1875C651.372 91.1875 650.409 90.8151 649.695 90.0703C648.987 89.3203 648.633 88.2708 648.633 86.9219C648.633 85.526 648.992 84.4427 649.711 83.6719C650.43 82.901 651.362 82.5156 652.508 82.5156C653.617 82.5156 654.523 82.8932 655.227 83.6484C655.93 84.4036 656.281 85.4661 656.281 86.8359C656.281 86.9193 656.279 87.0443 656.273 87.2109H650.086C650.138 88.1224 650.396 88.8203 650.859 89.3047C651.323 89.7891 651.901 90.0312 652.594 90.0312C653.109 90.0312 653.549 89.8958 653.914 89.625C654.279 89.3542 654.568 88.9219 654.781 88.3281ZM650.164 86.0547H654.797C654.734 85.3568 654.557 84.8333 654.266 84.4844C653.818 83.9427 653.237 83.6719 652.523 83.6719C651.878 83.6719 651.333 83.888 650.891 84.3203C650.453 84.7526 650.211 85.3307 650.164 86.0547ZM657.992 91V82.7031H659.258V83.9609C659.581 83.3724 659.878 82.9844 660.148 82.7969C660.424 82.6094 660.727 82.5156 661.055 82.5156C661.529 82.5156 662.01 82.6667 662.5 82.9688L662.016 84.2734C661.672 84.0703 661.328 83.9688 660.984 83.9688C660.677 83.9688 660.401 84.0625 660.156 84.25C659.911 84.4323 659.737 84.6875 659.633 85.0156C659.477 85.5156 659.398 86.0625 659.398 86.6562V91H657.992ZM667.789 91V82.7031H669.055V83.8828C669.664 82.9714 670.544 82.5156 671.695 82.5156C672.195 82.5156 672.654 82.6068 673.07 82.7891C673.492 82.9661 673.807 83.2005 674.016 83.4922C674.224 83.7839 674.37 84.1302 674.453 84.5312C674.505 84.7917 674.531 85.2474 674.531 85.8984V91H673.125V85.9531C673.125 85.3802 673.07 84.9531 672.961 84.6719C672.852 84.3854 672.656 84.1589 672.375 83.9922C672.099 83.8203 671.773 83.7344 671.398 83.7344C670.799 83.7344 670.281 83.9245 669.844 84.3047C669.411 84.6849 669.195 85.4062 669.195 86.4688V91H667.789ZM676.609 81.0625V79.4297H678.117V80.7188C678.117 81.4167 678.036 81.9193 677.875 82.2266C677.651 82.6484 677.302 82.9661 676.828 83.1797L676.484 82.625C676.766 82.5104 676.974 82.3307 677.109 82.0859C677.25 81.8359 677.328 81.4948 677.344 81.0625H676.609ZM685.938 88.3281L687.391 88.5078C687.161 89.3568 686.737 90.0156 686.117 90.4844C685.497 90.9531 684.706 91.1875 683.742 91.1875C682.529 91.1875 681.565 90.8151 680.852 90.0703C680.143 89.3203 679.789 88.2708 679.789 86.9219C679.789 85.526 680.148 84.4427 680.867 83.6719C681.586 82.901 682.518 82.5156 683.664 82.5156C684.773 82.5156 685.68 82.8932 686.383 83.6484C687.086 84.4036 687.438 85.4661 687.438 86.8359C687.438 86.9193 687.435 87.0443 687.43 87.2109H681.242C681.294 88.1224 681.552 88.8203 682.016 89.3047C682.479 89.7891 683.057 90.0312 683.75 90.0312C684.266 90.0312 684.706 89.8958 685.07 89.625C685.435 89.3542 685.724 88.9219 685.938 88.3281ZM681.32 86.0547H685.953C685.891 85.3568 685.714 84.8333 685.422 84.4844C684.974 83.9427 684.393 83.6719 683.68 83.6719C683.034 83.6719 682.49 83.888 682.047 84.3203C681.609 84.7526 681.367 85.3307 681.32 86.0547ZM688.602 88.5234L689.992 88.3047C690.07 88.862 690.286 89.2891 690.641 89.5859C691 89.8828 691.5 90.0312 692.141 90.0312C692.786 90.0312 693.266 89.901 693.578 89.6406C693.891 89.375 694.047 89.0651 694.047 88.7109C694.047 88.3932 693.909 88.1432 693.633 87.9609C693.44 87.8359 692.961 87.6771 692.195 87.4844C691.164 87.224 690.448 87 690.047 86.8125C689.651 86.6198 689.349 86.3568 689.141 86.0234C688.938 85.6849 688.836 85.3125 688.836 84.9062C688.836 84.5365 688.919 84.1953 689.086 83.8828C689.258 83.5651 689.49 83.3021 689.781 83.0938C690 82.9323 690.297 82.7969 690.672 82.6875C691.052 82.5729 691.458 82.5156 691.891 82.5156C692.542 82.5156 693.112 82.6094 693.602 82.7969C694.096 82.9844 694.461 83.2396 694.695 83.5625C694.93 83.8802 695.091 84.3073 695.18 84.8438L693.805 85.0312C693.742 84.6042 693.56 84.2708 693.258 84.0312C692.961 83.7917 692.539 83.6719 691.992 83.6719C691.346 83.6719 690.885 83.7786 690.609 83.9922C690.333 84.2057 690.195 84.4557 690.195 84.7422C690.195 84.9245 690.253 85.0885 690.367 85.2344C690.482 85.3854 690.661 85.5104 690.906 85.6094C691.047 85.6615 691.461 85.7812 692.148 85.9688C693.143 86.2344 693.836 86.4531 694.227 86.625C694.622 86.7917 694.932 87.0365 695.156 87.3594C695.38 87.6823 695.492 88.0833 695.492 88.5625C695.492 89.0312 695.354 89.474 695.078 89.8906C694.807 90.3021 694.414 90.6224 693.898 90.8516C693.383 91.0755 692.799 91.1875 692.148 91.1875C691.07 91.1875 690.247 90.9635 689.68 90.5156C689.117 90.0677 688.758 89.4036 688.602 88.5234ZM700.234 89.7422L700.438 90.9844C700.042 91.0677 699.688 91.1094 699.375 91.1094C698.865 91.1094 698.469 91.0286 698.188 90.8672C697.906 90.7057 697.708 90.4948 697.594 90.2344C697.479 89.9688 697.422 89.4141 697.422 88.5703V83.7969H696.391V82.7031H697.422V80.6484L698.82 79.8047V82.7031H700.234V83.7969H698.82V88.6484C698.82 89.0495 698.844 89.3073 698.891 89.4219C698.943 89.5365 699.023 89.6276 699.133 89.6953C699.247 89.763 699.409 89.7969 699.617 89.7969C699.773 89.7969 699.979 89.7786 700.234 89.7422ZM706.07 94.1797V82.7031H707.352V83.7812C707.654 83.3594 707.995 83.0443 708.375 82.8359C708.755 82.6224 709.216 82.5156 709.758 82.5156C710.466 82.5156 711.091 82.6979 711.633 83.0625C712.174 83.4271 712.583 83.9427 712.859 84.6094C713.135 85.2708 713.273 85.9974 713.273 86.7891C713.273 87.638 713.12 88.4036 712.812 89.0859C712.51 89.763 712.068 90.2839 711.484 90.6484C710.906 91.0078 710.297 91.1875 709.656 91.1875C709.188 91.1875 708.766 91.0885 708.391 90.8906C708.021 90.6927 707.716 90.4427 707.477 90.1406V94.1797H706.07ZM707.344 86.8984C707.344 87.9661 707.56 88.7552 707.992 89.2656C708.424 89.776 708.948 90.0312 709.562 90.0312C710.188 90.0312 710.721 89.7682 711.164 89.2422C711.612 88.7109 711.836 87.8906 711.836 86.7812C711.836 85.724 711.617 84.9323 711.18 84.4062C710.747 83.8802 710.229 83.6172 709.625 83.6172C709.026 83.6172 708.495 83.8984 708.031 84.4609C707.573 85.0182 707.344 85.8307 707.344 86.8984ZM720.391 89.9766C719.87 90.4193 719.367 90.7318 718.883 90.9141C718.404 91.0964 717.888 91.1875 717.336 91.1875C716.424 91.1875 715.724 90.9661 715.234 90.5234C714.745 90.0755 714.5 89.5052 714.5 88.8125C714.5 88.4062 714.591 88.0365 714.773 87.7031C714.961 87.3646 715.203 87.0938 715.5 86.8906C715.802 86.6875 716.141 86.5339 716.516 86.4297C716.792 86.3568 717.208 86.2865 717.766 86.2188C718.901 86.0833 719.737 85.9219 720.273 85.7344C720.279 85.5417 720.281 85.4193 720.281 85.3672C720.281 84.7943 720.148 84.3906 719.883 84.1562C719.523 83.8385 718.99 83.6797 718.281 83.6797C717.62 83.6797 717.13 83.7969 716.812 84.0312C716.5 84.2604 716.268 84.6693 716.117 85.2578L714.742 85.0703C714.867 84.4818 715.073 84.0078 715.359 83.6484C715.646 83.2839 716.06 83.0052 716.602 82.8125C717.143 82.6146 717.771 82.5156 718.484 82.5156C719.193 82.5156 719.768 82.599 720.211 82.7656C720.654 82.9323 720.979 83.1432 721.188 83.3984C721.396 83.6484 721.542 83.9661 721.625 84.3516C721.672 84.5911 721.695 85.0234 721.695 85.6484V87.5234C721.695 88.8307 721.724 89.6589 721.781 90.0078C721.844 90.3516 721.964 90.6823 722.141 91H720.672C720.526 90.7083 720.432 90.3672 720.391 89.9766ZM720.273 86.8359C719.763 87.0443 718.997 87.2214 717.977 87.3672C717.398 87.4505 716.99 87.5443 716.75 87.6484C716.51 87.7526 716.326 87.9062 716.195 88.1094C716.065 88.3073 716 88.5286 716 88.7734C716 89.1484 716.141 89.4609 716.422 89.7109C716.708 89.9609 717.125 90.0859 717.672 90.0859C718.214 90.0859 718.695 89.9688 719.117 89.7344C719.539 89.4948 719.849 89.1693 720.047 88.7578C720.198 88.4401 720.273 87.9714 720.273 87.3516V86.8359ZM723.32 88.5234L724.711 88.3047C724.789 88.862 725.005 89.2891 725.359 89.5859C725.719 89.8828 726.219 90.0312 726.859 90.0312C727.505 90.0312 727.984 89.901 728.297 89.6406C728.609 89.375 728.766 89.0651 728.766 88.7109C728.766 88.3932 728.628 88.1432 728.352 87.9609C728.159 87.8359 727.68 87.6771 726.914 87.4844C725.883 87.224 725.167 87 724.766 86.8125C724.37 86.6198 724.068 86.3568 723.859 86.0234C723.656 85.6849 723.555 85.3125 723.555 84.9062C723.555 84.5365 723.638 84.1953 723.805 83.8828C723.977 83.5651 724.208 83.3021 724.5 83.0938C724.719 82.9323 725.016 82.7969 725.391 82.6875C725.771 82.5729 726.177 82.5156 726.609 82.5156C727.26 82.5156 727.831 82.6094 728.32 82.7969C728.815 82.9844 729.18 83.2396 729.414 83.5625C729.648 83.8802 729.81 84.3073 729.898 84.8438L728.523 85.0312C728.461 84.6042 728.279 84.2708 727.977 84.0312C727.68 83.7917 727.258 83.6719 726.711 83.6719C726.065 83.6719 725.604 83.7786 725.328 83.9922C725.052 84.2057 724.914 84.4557 724.914 84.7422C724.914 84.9245 724.971 85.0885 725.086 85.2344C725.201 85.3854 725.38 85.5104 725.625 85.6094C725.766 85.6615 726.18 85.7812 726.867 85.9688C727.862 86.2344 728.555 86.4531 728.945 86.625C729.341 86.7917 729.651 87.0365 729.875 87.3594C730.099 87.6823 730.211 88.0833 730.211 88.5625C730.211 89.0312 730.073 89.474 729.797 89.8906C729.526 90.3021 729.133 90.6224 728.617 90.8516C728.102 91.0755 727.518 91.1875 726.867 91.1875C725.789 91.1875 724.966 90.9635 724.398 90.5156C723.836 90.0677 723.477 89.4036 723.32 88.5234ZM736.672 91V83.7969H735.43V82.7031H736.672V81.8203C736.672 81.263 736.721 80.849 736.82 80.5781C736.956 80.2135 737.193 79.9193 737.531 79.6953C737.875 79.4661 738.354 79.3516 738.969 79.3516C739.365 79.3516 739.802 79.3984 740.281 79.4922L740.07 80.7188C739.779 80.6667 739.503 80.6406 739.242 80.6406C738.815 80.6406 738.513 80.7318 738.336 80.9141C738.159 81.0964 738.07 81.4375 738.07 81.9375V82.7031H739.688V83.7969H738.07V91H736.672ZM740.266 86.8516C740.266 85.3151 740.693 84.1771 741.547 83.4375C742.26 82.8229 743.13 82.5156 744.156 82.5156C745.297 82.5156 746.229 82.8906 746.953 83.6406C747.677 84.3854 748.039 85.4167 748.039 86.7344C748.039 87.8021 747.878 88.6432 747.555 89.2578C747.237 89.8672 746.771 90.3411 746.156 90.6797C745.547 91.0182 744.88 91.1875 744.156 91.1875C742.995 91.1875 742.055 90.8151 741.336 90.0703C740.622 89.3255 740.266 88.2526 740.266 86.8516ZM741.711 86.8516C741.711 87.9141 741.943 88.7109 742.406 89.2422C742.87 89.7682 743.453 90.0312 744.156 90.0312C744.854 90.0312 745.435 89.7656 745.898 89.2344C746.362 88.7031 746.594 87.8932 746.594 86.8047C746.594 85.7786 746.359 85.0026 745.891 84.4766C745.427 83.9453 744.849 83.6797 744.156 83.6797C743.453 83.6797 742.87 83.9427 742.406 84.4688C741.943 84.9948 741.711 85.7891 741.711 86.8516ZM755.109 87.9609L756.492 88.1406C756.341 89.0938 755.953 89.8411 755.328 90.3828C754.708 90.9193 753.945 91.1875 753.039 91.1875C751.904 91.1875 750.99 90.8177 750.297 90.0781C749.609 89.3333 749.266 88.2682 749.266 86.8828C749.266 85.987 749.414 85.2031 749.711 84.5312C750.008 83.8594 750.458 83.3568 751.062 83.0234C751.672 82.6849 752.333 82.5156 753.047 82.5156C753.948 82.5156 754.685 82.7448 755.258 83.2031C755.831 83.6562 756.198 84.3021 756.359 85.1406L754.992 85.3516C754.862 84.7943 754.63 84.375 754.297 84.0938C753.969 83.8125 753.57 83.6719 753.102 83.6719C752.393 83.6719 751.818 83.9271 751.375 84.4375C750.932 84.9427 750.711 85.7448 750.711 86.8438C750.711 87.9583 750.924 88.7682 751.352 89.2734C751.779 89.7786 752.336 90.0312 753.023 90.0312C753.576 90.0312 754.036 89.862 754.406 89.5234C754.776 89.1849 755.01 88.6641 755.109 87.9609ZM763.133 91V89.7812C762.487 90.7188 761.609 91.1875 760.5 91.1875C760.01 91.1875 759.552 91.0938 759.125 90.9062C758.703 90.7188 758.388 90.4844 758.18 90.2031C757.977 89.9167 757.833 89.5677 757.75 89.1562C757.693 88.8802 757.664 88.4427 757.664 87.8438V82.7031H759.07V87.3047C759.07 88.0391 759.099 88.5339 759.156 88.7891C759.245 89.1589 759.432 89.4505 759.719 89.6641C760.005 89.8724 760.359 89.9766 760.781 89.9766C761.203 89.9766 761.599 89.8698 761.969 89.6562C762.339 89.4375 762.599 89.1432 762.75 88.7734C762.906 88.3984 762.984 87.8568 762.984 87.1484V82.7031H764.391V91H763.133ZM766.039 88.5234L767.43 88.3047C767.508 88.862 767.724 89.2891 768.078 89.5859C768.438 89.8828 768.938 90.0312 769.578 90.0312C770.224 90.0312 770.703 89.901 771.016 89.6406C771.328 89.375 771.484 89.0651 771.484 88.7109C771.484 88.3932 771.346 88.1432 771.07 87.9609C770.878 87.8359 770.398 87.6771 769.633 87.4844C768.602 87.224 767.885 87 767.484 86.8125C767.089 86.6198 766.786 86.3568 766.578 86.0234C766.375 85.6849 766.273 85.3125 766.273 84.9062C766.273 84.5365 766.357 84.1953 766.523 83.8828C766.695 83.5651 766.927 83.3021 767.219 83.0938C767.438 82.9323 767.734 82.7969 768.109 82.6875C768.49 82.5729 768.896 82.5156 769.328 82.5156C769.979 82.5156 770.549 82.6094 771.039 82.7969C771.534 82.9844 771.898 83.2396 772.133 83.5625C772.367 83.8802 772.529 84.3073 772.617 84.8438L771.242 85.0312C771.18 84.6042 770.997 84.2708 770.695 84.0312C770.398 83.7917 769.977 83.6719 769.43 83.6719C768.784 83.6719 768.323 83.7786 768.047 83.9922C767.771 84.2057 767.633 84.4557 767.633 84.7422C767.633 84.9245 767.69 85.0885 767.805 85.2344C767.919 85.3854 768.099 85.5104 768.344 85.6094C768.484 85.6615 768.898 85.7812 769.586 85.9688C770.581 86.2344 771.273 86.4531 771.664 86.625C772.06 86.7917 772.37 87.0365 772.594 87.3594C772.818 87.6823 772.93 88.0833 772.93 88.5625C772.93 89.0312 772.792 89.474 772.516 89.8906C772.245 90.3021 771.852 90.6224 771.336 90.8516C770.82 91.0755 770.237 91.1875 769.586 91.1875C768.508 91.1875 767.685 90.9635 767.117 90.5156C766.555 90.0677 766.195 89.4036 766.039 88.5234ZM780.016 89.9766C779.495 90.4193 778.992 90.7318 778.508 90.9141C778.029 91.0964 777.513 91.1875 776.961 91.1875C776.049 91.1875 775.349 90.9661 774.859 90.5234C774.37 90.0755 774.125 89.5052 774.125 88.8125C774.125 88.4062 774.216 88.0365 774.398 87.7031C774.586 87.3646 774.828 87.0938 775.125 86.8906C775.427 86.6875 775.766 86.5339 776.141 86.4297C776.417 86.3568 776.833 86.2865 777.391 86.2188C778.526 86.0833 779.362 85.9219 779.898 85.7344C779.904 85.5417 779.906 85.4193 779.906 85.3672C779.906 84.7943 779.773 84.3906 779.508 84.1562C779.148 83.8385 778.615 83.6797 777.906 83.6797C777.245 83.6797 776.755 83.7969 776.438 84.0312C776.125 84.2604 775.893 84.6693 775.742 85.2578L774.367 85.0703C774.492 84.4818 774.698 84.0078 774.984 83.6484C775.271 83.2839 775.685 83.0052 776.227 82.8125C776.768 82.6146 777.396 82.5156 778.109 82.5156C778.818 82.5156 779.393 82.599 779.836 82.7656C780.279 82.9323 780.604 83.1432 780.812 83.3984C781.021 83.6484 781.167 83.9661 781.25 84.3516C781.297 84.5911 781.32 85.0234 781.32 85.6484V87.5234C781.32 88.8307 781.349 89.6589 781.406 90.0078C781.469 90.3516 781.589 90.6823 781.766 91H780.297C780.151 90.7083 780.057 90.3672 780.016 89.9766ZM779.898 86.8359C779.388 87.0443 778.622 87.2214 777.602 87.3672C777.023 87.4505 776.615 87.5443 776.375 87.6484C776.135 87.7526 775.951 87.9062 775.82 88.1094C775.69 88.3073 775.625 88.5286 775.625 88.7734C775.625 89.1484 775.766 89.4609 776.047 89.7109C776.333 89.9609 776.75 90.0859 777.297 90.0859C777.839 90.0859 778.32 89.9688 778.742 89.7344C779.164 89.4948 779.474 89.1693 779.672 88.7578C779.823 88.4401 779.898 87.9714 779.898 87.3516V86.8359ZM784.805 91H783.5V79.5469H784.906V83.6328C785.5 82.888 786.258 82.5156 787.18 82.5156C787.69 82.5156 788.172 82.6198 788.625 82.8281C789.083 83.0312 789.458 83.3203 789.75 83.6953C790.047 84.0651 790.279 84.513 790.445 85.0391C790.612 85.5651 790.695 86.1276 790.695 86.7266C790.695 88.1484 790.344 89.2474 789.641 90.0234C788.938 90.7995 788.094 91.1875 787.109 91.1875C786.13 91.1875 785.362 90.7786 784.805 89.9609V91ZM784.789 86.7891C784.789 87.7839 784.924 88.5026 785.195 88.9453C785.638 89.6693 786.237 90.0312 786.992 90.0312C787.607 90.0312 788.138 89.7656 788.586 89.2344C789.034 88.6979 789.258 87.901 789.258 86.8438C789.258 85.7604 789.042 84.9609 788.609 84.4453C788.182 83.9297 787.664 83.6719 787.055 83.6719C786.44 83.6719 785.909 83.9401 785.461 84.4766C785.013 85.0078 784.789 85.7786 784.789 86.7891ZM792.383 91V79.5469H793.789V91H792.383ZM801.656 88.3281L803.109 88.5078C802.88 89.3568 802.456 90.0156 801.836 90.4844C801.216 90.9531 800.424 91.1875 799.461 91.1875C798.247 91.1875 797.284 90.8151 796.57 90.0703C795.862 89.3203 795.508 88.2708 795.508 86.9219C795.508 85.526 795.867 84.4427 796.586 83.6719C797.305 82.901 798.237 82.5156 799.383 82.5156C800.492 82.5156 801.398 82.8932 802.102 83.6484C802.805 84.4036 803.156 85.4661 803.156 86.8359C803.156 86.9193 803.154 87.0443 803.148 87.2109H796.961C797.013 88.1224 797.271 88.8203 797.734 89.3047C798.198 89.7891 798.776 90.0312 799.469 90.0312C799.984 90.0312 800.424 89.8958 800.789 89.625C801.154 89.3542 801.443 88.9219 801.656 88.3281ZM797.039 86.0547H801.672C801.609 85.3568 801.432 84.8333 801.141 84.4844C800.693 83.9427 800.112 83.6719 799.398 83.6719C798.753 83.6719 798.208 83.888 797.766 84.3203C797.328 84.7526 797.086 85.3307 797.039 86.0547ZM809.336 91V82.7031H810.602V83.8828C811.211 82.9714 812.091 82.5156 813.242 82.5156C813.742 82.5156 814.201 82.6068 814.617 82.7891C815.039 82.9661 815.354 83.2005 815.562 83.4922C815.771 83.7839 815.917 84.1302 816 84.5312C816.052 84.7917 816.078 85.2474 816.078 85.8984V91H814.672V85.9531C814.672 85.3802 814.617 84.9531 814.508 84.6719C814.398 84.3854 814.203 84.1589 813.922 83.9922C813.646 83.8203 813.32 83.7344 812.945 83.7344C812.346 83.7344 811.828 83.9245 811.391 84.3047C810.958 84.6849 810.742 85.4062 810.742 86.4688V91H809.336ZM818.25 81.1641V79.5469H819.656V81.1641H818.25ZM818.25 91V82.7031H819.656V91H818.25ZM826.266 81.1641V79.5469H827.672V81.1641H826.266ZM826.266 91V82.7031H827.672V91H826.266ZM829.82 91V82.7031H831.086V83.8828C831.695 82.9714 832.576 82.5156 833.727 82.5156C834.227 82.5156 834.685 82.6068 835.102 82.7891C835.523 82.9661 835.839 83.2005 836.047 83.4922C836.255 83.7839 836.401 84.1302 836.484 84.5312C836.536 84.7917 836.562 85.2474 836.562 85.8984V91H835.156V85.9531C835.156 85.3802 835.102 84.9531 834.992 84.6719C834.883 84.3854 834.688 84.1589 834.406 83.9922C834.13 83.8203 833.805 83.7344 833.43 83.7344C832.831 83.7344 832.312 83.9245 831.875 84.3047C831.443 84.6849 831.227 85.4062 831.227 86.4688V91H829.82ZM841.797 89.7422L842 90.9844C841.604 91.0677 841.25 91.1094 840.938 91.1094C840.427 91.1094 840.031 91.0286 839.75 90.8672C839.469 90.7057 839.271 90.4948 839.156 90.2344C839.042 89.9688 838.984 89.4141 838.984 88.5703V83.7969H837.953V82.7031H838.984V80.6484L840.383 79.8047V82.7031H841.797V83.7969H840.383V88.6484C840.383 89.0495 840.406 89.3073 840.453 89.4219C840.505 89.5365 840.586 89.6276 840.695 89.6953C840.81 89.763 840.971 89.7969 841.18 89.7969C841.336 89.7969 841.542 89.7786 841.797 89.7422ZM848.859 88.3281L850.312 88.5078C850.083 89.3568 849.659 90.0156 849.039 90.4844C848.419 90.9531 847.628 91.1875 846.664 91.1875C845.451 91.1875 844.487 90.8151 843.773 90.0703C843.065 89.3203 842.711 88.2708 842.711 86.9219C842.711 85.526 843.07 84.4427 843.789 83.6719C844.508 82.901 845.44 82.5156 846.586 82.5156C847.695 82.5156 848.602 82.8932 849.305 83.6484C850.008 84.4036 850.359 85.4661 850.359 86.8359C850.359 86.9193 850.357 87.0443 850.352 87.2109H844.164C844.216 88.1224 844.474 88.8203 844.938 89.3047C845.401 89.7891 845.979 90.0312 846.672 90.0312C847.188 90.0312 847.628 89.8958 847.992 89.625C848.357 89.3542 848.646 88.9219 848.859 88.3281ZM844.242 86.0547H848.875C848.812 85.3568 848.635 84.8333 848.344 84.4844C847.896 83.9427 847.315 83.6719 846.602 83.6719C845.956 83.6719 845.411 83.888 844.969 84.3203C844.531 84.7526 844.289 85.3307 844.242 86.0547ZM852.07 91V82.7031H853.336V83.9609C853.659 83.3724 853.956 82.9844 854.227 82.7969C854.503 82.6094 854.805 82.5156 855.133 82.5156C855.607 82.5156 856.089 82.6667 856.578 82.9688L856.094 84.2734C855.75 84.0703 855.406 83.9688 855.062 83.9688C854.755 83.9688 854.479 84.0625 854.234 84.25C853.99 84.4323 853.815 84.6875 853.711 85.0156C853.555 85.5156 853.477 86.0625 853.477 86.6562V91H852.07ZM862.828 89.9766C862.307 90.4193 861.805 90.7318 861.32 90.9141C860.841 91.0964 860.326 91.1875 859.773 91.1875C858.862 91.1875 858.161 90.9661 857.672 90.5234C857.182 90.0755 856.938 89.5052 856.938 88.8125C856.938 88.4062 857.029 88.0365 857.211 87.7031C857.398 87.3646 857.641 87.0938 857.938 86.8906C858.24 86.6875 858.578 86.5339 858.953 86.4297C859.229 86.3568 859.646 86.2865 860.203 86.2188C861.339 86.0833 862.174 85.9219 862.711 85.7344C862.716 85.5417 862.719 85.4193 862.719 85.3672C862.719 84.7943 862.586 84.3906 862.32 84.1562C861.961 83.8385 861.427 83.6797 860.719 83.6797C860.057 83.6797 859.568 83.7969 859.25 84.0312C858.938 84.2604 858.706 84.6693 858.555 85.2578L857.18 85.0703C857.305 84.4818 857.51 84.0078 857.797 83.6484C858.083 83.2839 858.497 83.0052 859.039 82.8125C859.581 82.6146 860.208 82.5156 860.922 82.5156C861.63 82.5156 862.206 82.599 862.648 82.7656C863.091 82.9323 863.417 83.1432 863.625 83.3984C863.833 83.6484 863.979 83.9661 864.062 84.3516C864.109 84.5911 864.133 85.0234 864.133 85.6484V87.5234C864.133 88.8307 864.161 89.6589 864.219 90.0078C864.281 90.3516 864.401 90.6823 864.578 91H863.109C862.964 90.7083 862.87 90.3672 862.828 89.9766ZM862.711 86.8359C862.201 87.0443 861.435 87.2214 860.414 87.3672C859.836 87.4505 859.427 87.5443 859.188 87.6484C858.948 87.7526 858.763 87.9062 858.633 88.1094C858.503 88.3073 858.438 88.5286 858.438 88.7734C858.438 89.1484 858.578 89.4609 858.859 89.7109C859.146 89.9609 859.562 90.0859 860.109 90.0859C860.651 90.0859 861.133 89.9688 861.555 89.7344C861.977 89.4948 862.286 89.1693 862.484 88.7578C862.635 88.4401 862.711 87.9714 862.711 87.3516V86.8359ZM871.734 87.9609L873.117 88.1406C872.966 89.0938 872.578 89.8411 871.953 90.3828C871.333 90.9193 870.57 91.1875 869.664 91.1875C868.529 91.1875 867.615 90.8177 866.922 90.0781C866.234 89.3333 865.891 88.2682 865.891 86.8828C865.891 85.987 866.039 85.2031 866.336 84.5312C866.633 83.8594 867.083 83.3568 867.688 83.0234C868.297 82.6849 868.958 82.5156 869.672 82.5156C870.573 82.5156 871.31 82.7448 871.883 83.2031C872.456 83.6562 872.823 84.3021 872.984 85.1406L871.617 85.3516C871.487 84.7943 871.255 84.375 870.922 84.0938C870.594 83.8125 870.195 83.6719 869.727 83.6719C869.018 83.6719 868.443 83.9271 868 84.4375C867.557 84.9427 867.336 85.7448 867.336 86.8438C867.336 87.9583 867.549 88.7682 867.977 89.2734C868.404 89.7786 868.961 90.0312 869.648 90.0312C870.201 90.0312 870.661 89.862 871.031 89.5234C871.401 89.1849 871.635 88.6641 871.734 87.9609ZM877.391 89.7422L877.594 90.9844C877.198 91.0677 876.844 91.1094 876.531 91.1094C876.021 91.1094 875.625 91.0286 875.344 90.8672C875.062 90.7057 874.865 90.4948 874.75 90.2344C874.635 89.9688 874.578 89.4141 874.578 88.5703V83.7969H873.547V82.7031H874.578V80.6484L875.977 79.8047V82.7031H877.391V83.7969H875.977V88.6484C875.977 89.0495 876 89.3073 876.047 89.4219C876.099 89.5365 876.18 89.6276 876.289 89.6953C876.404 89.763 876.565 89.7969 876.773 89.7969C876.93 89.7969 877.135 89.7786 877.391 89.7422ZM878.781 81.1641V79.5469H880.188V81.1641H878.781ZM878.781 91V82.7031H880.188V91H878.781ZM882.672 91V83.7969H881.43V82.7031H882.672V81.8203C882.672 81.263 882.721 80.849 882.82 80.5781C882.956 80.2135 883.193 79.9193 883.531 79.6953C883.875 79.4661 884.354 79.3516 884.969 79.3516C885.365 79.3516 885.802 79.3984 886.281 79.4922L886.07 80.7188C885.779 80.6667 885.503 80.6406 885.242 80.6406C884.815 80.6406 884.513 80.7318 884.336 80.9141C884.159 81.0964 884.07 81.4375 884.07 81.9375V82.7031H885.688V83.7969H884.07V91H882.672Z" fill="#3E3E3D"/>
<g opacity="0.5">
<path d="M579.5 109.5H1159" stroke="#CDCCCB"/>
</g>
</g>
<rect x="0.5" y="0.5" width="1158" height="109" rx="7.5" stroke="#CDCCCB"/>
<defs>
<clipPath id="clip0_410_59632">
<rect width="1159" height="110" rx="8" fill="white"/>
</clipPath>
</defs>
</svg>
