<svg width="1159" height="159" viewBox="0 0 1159 159" fill="none" xmlns="http://www.w3.org/2000/svg">
<g clip-path="url(#clip0_364_48943)">
<rect width="579.5" height="61" fill="white"/>
<path d="M18.74 37.14C18.3933 37.14 18.12 37.0467 17.92 36.86C17.7333 36.6733 17.64 36.4 17.64 36.04V24.02C17.64 23.66 17.7333 23.3867 17.92 23.2C18.12 23 18.4 22.9 18.76 22.9H25.88C26.1733 22.9 26.3867 22.9733 26.52 23.12C26.6667 23.2533 26.74 23.4533 26.74 23.72C26.74 24 26.6667 24.2133 26.52 24.36C26.3867 24.5067 26.1733 24.58 25.88 24.58H19.72V29.08H25.48C25.7467 29.08 25.9533 29.1533 26.1 29.3C26.26 29.4333 26.34 29.6333 26.34 29.9C26.34 30.18 26.26 30.3933 26.1 30.54C25.9533 30.6867 25.7467 30.76 25.48 30.76H19.72V36.04C19.72 36.7733 19.3933 37.14 18.74 37.14ZM31.8631 37.18C30.8765 37.18 30.0231 36.9733 29.3031 36.56C28.5965 36.1467 28.0431 35.56 27.6431 34.8C27.2431 34.04 27.0431 33.1467 27.0431 32.12C27.0431 31.3333 27.1565 30.6333 27.3831 30.02C27.6098 29.4067 27.9298 28.88 28.3431 28.44C28.7698 27.9867 29.2765 27.6467 29.8631 27.42C30.4631 27.18 31.1298 27.06 31.8631 27.06C32.8365 27.06 33.6765 27.2667 34.3831 27.68C35.1031 28.0933 35.6631 28.68 36.0631 29.44C36.4631 30.1867 36.6631 31.08 36.6631 32.12C36.6631 32.8933 36.5498 33.5933 36.3231 34.22C36.0965 34.8467 35.7698 35.38 35.3431 35.82C34.9298 36.26 34.4231 36.6 33.8231 36.84C33.2365 37.0667 32.5831 37.18 31.8631 37.18ZM31.8631 35.62C32.4098 35.62 32.8898 35.4867 33.3031 35.22C33.7165 34.9533 34.0365 34.56 34.2631 34.04C34.5031 33.52 34.6231 32.88 34.6231 32.12C34.6231 30.9733 34.3698 30.1067 33.8631 29.52C33.3565 28.9333 32.6898 28.64 31.8631 28.64C31.3031 28.64 30.8165 28.7733 30.4031 29.04C29.9898 29.2933 29.6631 29.68 29.4231 30.2C29.1965 30.72 29.0831 31.36 29.0831 32.12C29.0831 33.2533 29.3365 34.12 29.8431 34.72C30.3498 35.32 31.0231 35.62 31.8631 35.62ZM39.4317 37.14C39.1117 37.14 38.8651 37.0533 38.6917 36.88C38.5184 36.6933 38.4317 36.44 38.4317 36.12V28.12C38.4317 27.7867 38.5184 27.5333 38.6917 27.36C38.8651 27.1867 39.1051 27.1 39.4117 27.1C39.7317 27.1 39.9717 27.1867 40.1317 27.36C40.3051 27.5333 40.3917 27.7867 40.3917 28.12V29.68L40.1717 29.32C40.4651 28.5733 40.9251 28.0133 41.5517 27.64C42.1784 27.2533 42.8984 27.06 43.7117 27.06C44.4851 27.06 45.1251 27.2067 45.6317 27.5C46.1517 27.78 46.5384 28.2133 46.7917 28.8C47.0451 29.3733 47.1717 30.1 47.1717 30.98V36.12C47.1717 36.44 47.0851 36.6933 46.9117 36.88C46.7384 37.0533 46.4917 37.14 46.1717 37.14C45.8384 37.14 45.5851 37.0533 45.4117 36.88C45.2384 36.6933 45.1517 36.44 45.1517 36.12V31.1C45.1517 30.26 44.9851 29.6467 44.6517 29.26C44.3317 28.8733 43.8251 28.68 43.1317 28.68C42.3184 28.68 41.6651 28.9333 41.1717 29.44C40.6917 29.9467 40.4517 30.6267 40.4517 31.48V36.12C40.4517 36.8 40.1117 37.14 39.4317 37.14ZM53.7552 37.18C52.7552 37.18 51.8885 36.9733 51.1552 36.56C50.4352 36.1333 49.8752 35.54 49.4752 34.78C49.0752 34.0067 48.8752 33.1 48.8752 32.06C48.8752 31.2867 48.9885 30.5933 49.2152 29.98C49.4418 29.3533 49.7618 28.8267 50.1752 28.4C50.6018 27.9733 51.1152 27.6467 51.7152 27.42C52.3285 27.18 53.0085 27.06 53.7552 27.06C54.2218 27.06 54.7085 27.1333 55.2152 27.28C55.7352 27.4133 56.2152 27.64 56.6552 27.96C56.8285 28.0667 56.9352 28.2 56.9752 28.36C57.0285 28.5067 57.0352 28.66 56.9952 28.82C56.9685 28.98 56.8952 29.12 56.7752 29.24C56.6685 29.3467 56.5352 29.4133 56.3752 29.44C56.2152 29.4533 56.0418 29.4067 55.8552 29.3C55.5352 29.0733 55.2085 28.9133 54.8752 28.82C54.5418 28.7133 54.2218 28.66 53.9152 28.66C53.4352 28.66 53.0085 28.74 52.6352 28.9C52.2752 29.0467 51.9685 29.2667 51.7152 29.56C51.4618 29.84 51.2685 30.1933 51.1352 30.62C51.0152 31.0467 50.9552 31.5333 50.9552 32.08C50.9552 33.1733 51.2085 34.0333 51.7152 34.66C52.2352 35.2733 52.9685 35.58 53.9152 35.58C54.2218 35.58 54.5418 35.5333 54.8752 35.44C55.2085 35.3467 55.5352 35.1867 55.8552 34.96C56.0418 34.8533 56.2152 34.8133 56.3752 34.84C56.5352 34.8667 56.6618 34.94 56.7552 35.06C56.8618 35.1667 56.9285 35.3 56.9552 35.46C56.9952 35.6067 56.9885 35.76 56.9352 35.92C56.8818 36.08 56.7685 36.2133 56.5952 36.32C56.1685 36.6267 55.7018 36.8467 55.1952 36.98C54.7018 37.1133 54.2218 37.18 53.7552 37.18ZM62.4706 37.18C61.6706 37.18 60.9973 37.04 60.4506 36.76C59.904 36.48 59.4973 36.0667 59.2306 35.52C58.964 34.9733 58.8306 34.3067 58.8306 33.52V28.8H57.6306C57.364 28.8 57.1573 28.7333 57.0106 28.6C56.864 28.4533 56.7906 28.26 56.7906 28.02C56.7906 27.7667 56.864 27.5733 57.0106 27.44C57.1573 27.3067 57.364 27.24 57.6306 27.24H58.8306V25.18C58.8306 24.8467 58.9173 24.5933 59.0906 24.42C59.2773 24.2467 59.5306 24.16 59.8506 24.16C60.1706 24.16 60.4173 24.2467 60.5906 24.42C60.764 24.5933 60.8506 24.8467 60.8506 25.18V27.24H63.1906C63.4573 27.24 63.664 27.3067 63.8106 27.44C63.9573 27.5733 64.0306 27.7667 64.0306 28.02C64.0306 28.26 63.9573 28.4533 63.8106 28.6C63.664 28.7333 63.4573 28.8 63.1906 28.8H60.8506V33.36C60.8506 34.0667 60.9973 34.6 61.2906 34.96C61.5973 35.32 62.0906 35.5 62.7706 35.5C63.0106 35.5 63.2173 35.48 63.3906 35.44C63.5773 35.3867 63.7306 35.3533 63.8506 35.34C63.9973 35.34 64.1173 35.3933 64.2106 35.5C64.304 35.5933 64.3506 35.78 64.3506 36.06C64.3506 36.26 64.3106 36.4467 64.2306 36.62C64.164 36.7933 64.0373 36.9067 63.8506 36.96C63.6906 37.0133 63.4706 37.06 63.1906 37.1C62.924 37.1533 62.684 37.18 62.4706 37.18ZM66.2911 37.12C65.9711 37.12 65.7244 37.0267 65.5511 36.84C65.3778 36.64 65.2911 36.3667 65.2911 36.02V28.22C65.2911 27.8733 65.3778 27.6067 65.5511 27.42C65.7244 27.2333 65.9711 27.14 66.2911 27.14C66.6111 27.14 66.8578 27.2333 67.0311 27.42C67.2178 27.6067 67.3111 27.8733 67.3111 28.22V36.02C67.3111 36.3667 67.2244 36.64 67.0511 36.84C66.8778 37.0267 66.6244 37.12 66.2911 37.12ZM66.2911 25.06C65.8911 25.06 65.5778 24.96 65.3511 24.76C65.1378 24.56 65.0311 24.28 65.0311 23.92C65.0311 23.5467 65.1378 23.2667 65.3511 23.08C65.5778 22.88 65.8911 22.78 66.2911 22.78C66.6911 22.78 66.9978 22.88 67.2111 23.08C67.4378 23.2667 67.5511 23.5467 67.5511 23.92C67.5511 24.28 67.4378 24.56 67.2111 24.76C66.9978 24.96 66.6911 25.06 66.2911 25.06ZM73.8944 37.18C72.9077 37.18 72.0544 36.9733 71.3344 36.56C70.6277 36.1467 70.0744 35.56 69.6744 34.8C69.2744 34.04 69.0744 33.1467 69.0744 32.12C69.0744 31.3333 69.1877 30.6333 69.4144 30.02C69.641 29.4067 69.961 28.88 70.3744 28.44C70.801 27.9867 71.3077 27.6467 71.8944 27.42C72.4944 27.18 73.161 27.06 73.8944 27.06C74.8677 27.06 75.7077 27.2667 76.4144 27.68C77.1344 28.0933 77.6944 28.68 78.0944 29.44C78.4944 30.1867 78.6944 31.08 78.6944 32.12C78.6944 32.8933 78.581 33.5933 78.3544 34.22C78.1277 34.8467 77.801 35.38 77.3744 35.82C76.961 36.26 76.4544 36.6 75.8544 36.84C75.2677 37.0667 74.6144 37.18 73.8944 37.18ZM73.8944 35.62C74.441 35.62 74.921 35.4867 75.3344 35.22C75.7477 34.9533 76.0677 34.56 76.2944 34.04C76.5344 33.52 76.6544 32.88 76.6544 32.12C76.6544 30.9733 76.401 30.1067 75.8944 29.52C75.3877 28.9333 74.721 28.64 73.8944 28.64C73.3344 28.64 72.8477 28.7733 72.4344 29.04C72.021 29.2933 71.6944 29.68 71.4544 30.2C71.2277 30.72 71.1144 31.36 71.1144 32.12C71.1144 33.2533 71.3677 34.12 71.8744 34.72C72.381 35.32 73.0544 35.62 73.8944 35.62ZM81.463 37.14C81.143 37.14 80.8963 37.0533 80.723 36.88C80.5496 36.6933 80.463 36.44 80.463 36.12V28.12C80.463 27.7867 80.5496 27.5333 80.723 27.36C80.8963 27.1867 81.1363 27.1 81.443 27.1C81.763 27.1 82.003 27.1867 82.163 27.36C82.3363 27.5333 82.423 27.7867 82.423 28.12V29.68L82.203 29.32C82.4963 28.5733 82.9563 28.0133 83.583 27.64C84.2096 27.2533 84.9296 27.06 85.743 27.06C86.5163 27.06 87.1563 27.2067 87.663 27.5C88.183 27.78 88.5696 28.2133 88.823 28.8C89.0763 29.3733 89.203 30.1 89.203 30.98V36.12C89.203 36.44 89.1163 36.6933 88.943 36.88C88.7696 37.0533 88.523 37.14 88.203 37.14C87.8696 37.14 87.6163 37.0533 87.443 36.88C87.2696 36.6933 87.183 36.44 87.183 36.12V31.1C87.183 30.26 87.0163 29.6467 86.683 29.26C86.363 28.8733 85.8563 28.68 85.163 28.68C84.3496 28.68 83.6963 28.9333 83.203 29.44C82.723 29.9467 82.483 30.6267 82.483 31.48V36.12C82.483 36.8 82.143 37.14 81.463 37.14ZM99.3798 37.18C98.6998 37.18 98.0865 37.0467 97.5398 36.78C97.0065 36.5133 96.5865 36.1533 96.2798 35.7C95.9732 35.2467 95.8198 34.7333 95.8198 34.16C95.8198 33.44 95.9998 32.8733 96.3598 32.46C96.7332 32.0333 97.3398 31.7333 98.1798 31.56C99.0332 31.3733 100.18 31.28 101.62 31.28H102.56V32.52H101.64C100.68 32.52 99.9198 32.5667 99.3598 32.66C98.7998 32.7533 98.3998 32.9133 98.1598 33.14C97.9332 33.3533 97.8198 33.6533 97.8198 34.04C97.8198 34.5467 97.9932 34.96 98.3398 35.28C98.6865 35.5867 99.1665 35.74 99.7798 35.74C100.273 35.74 100.707 35.6267 101.08 35.4C101.453 35.16 101.747 34.84 101.96 34.44C102.187 34.04 102.3 33.58 102.3 33.06V30.76C102.3 30 102.14 29.4533 101.82 29.12C101.5 28.7867 100.973 28.62 100.24 28.62C99.8132 28.62 99.3665 28.6733 98.8998 28.78C98.4465 28.8867 97.9732 29.0667 97.4798 29.32C97.2532 29.4267 97.0598 29.46 96.8998 29.42C96.7398 29.38 96.6132 29.2933 96.5198 29.16C96.4265 29.0133 96.3732 28.86 96.3598 28.7C96.3598 28.5267 96.3998 28.36 96.4798 28.2C96.5732 28.04 96.7265 27.92 96.9398 27.84C97.5265 27.56 98.1065 27.36 98.6798 27.24C99.2532 27.12 99.7932 27.06 100.3 27.06C101.193 27.06 101.927 27.2 102.5 27.48C103.087 27.76 103.52 28.1867 103.8 28.76C104.08 29.3333 104.22 30.0733 104.22 30.98V36.12C104.22 36.44 104.14 36.6933 103.98 36.88C103.82 37.0533 103.587 37.14 103.28 37.14C102.987 37.14 102.753 37.0533 102.58 36.88C102.407 36.6933 102.32 36.44 102.32 36.12V34.82H102.5C102.393 35.3133 102.193 35.74 101.9 36.1C101.62 36.4467 101.267 36.7133 100.84 36.9C100.413 37.0867 99.9265 37.18 99.3798 37.18ZM110.662 37.18C109.862 37.18 109.189 37.04 108.642 36.76C108.095 36.48 107.689 36.0667 107.422 35.52C107.155 34.9733 107.022 34.3067 107.022 33.52V28.8H105.822C105.555 28.8 105.349 28.7333 105.202 28.6C105.055 28.4533 104.982 28.26 104.982 28.02C104.982 27.7667 105.055 27.5733 105.202 27.44C105.349 27.3067 105.555 27.24 105.822 27.24H107.022V25.18C107.022 24.8467 107.109 24.5933 107.282 24.42C107.469 24.2467 107.722 24.16 108.042 24.16C108.362 24.16 108.609 24.2467 108.782 24.42C108.955 24.5933 109.042 24.8467 109.042 25.18V27.24H111.382C111.649 27.24 111.855 27.3067 112.002 27.44C112.149 27.5733 112.222 27.7667 112.222 28.02C112.222 28.26 112.149 28.4533 112.002 28.6C111.855 28.7333 111.649 28.8 111.382 28.8H109.042V33.36C109.042 34.0667 109.189 34.6 109.482 34.96C109.789 35.32 110.282 35.5 110.962 35.5C111.202 35.5 111.409 35.48 111.582 35.44C111.769 35.3867 111.922 35.3533 112.042 35.34C112.189 35.34 112.309 35.3933 112.402 35.5C112.495 35.5933 112.542 35.78 112.542 36.06C112.542 36.26 112.502 36.4467 112.422 36.62C112.355 36.7933 112.229 36.9067 112.042 36.96C111.882 37.0133 111.662 37.06 111.382 37.1C111.115 37.1533 110.875 37.18 110.662 37.18ZM117.076 37.18C116.276 37.18 115.603 37.04 115.056 36.76C114.509 36.48 114.103 36.0667 113.836 35.52C113.569 34.9733 113.436 34.3067 113.436 33.52V28.8H112.236C111.969 28.8 111.763 28.7333 111.616 28.6C111.469 28.4533 111.396 28.26 111.396 28.02C111.396 27.7667 111.469 27.5733 111.616 27.44C111.763 27.3067 111.969 27.24 112.236 27.24H113.436V25.18C113.436 24.8467 113.523 24.5933 113.696 24.42C113.883 24.2467 114.136 24.16 114.456 24.16C114.776 24.16 115.023 24.2467 115.196 24.42C115.369 24.5933 115.456 24.8467 115.456 25.18V27.24H117.796C118.063 27.24 118.269 27.3067 118.416 27.44C118.563 27.5733 118.636 27.7667 118.636 28.02C118.636 28.26 118.563 28.4533 118.416 28.6C118.269 28.7333 118.063 28.8 117.796 28.8H115.456V33.36C115.456 34.0667 115.603 34.6 115.896 34.96C116.203 35.32 116.696 35.5 117.376 35.5C117.616 35.5 117.823 35.48 117.996 35.44C118.183 35.3867 118.336 35.3533 118.456 35.34C118.603 35.34 118.723 35.3933 118.816 35.5C118.909 35.5933 118.956 35.78 118.956 36.06C118.956 36.26 118.916 36.4467 118.836 36.62C118.769 36.7933 118.643 36.9067 118.456 36.96C118.296 37.0133 118.076 37.06 117.796 37.1C117.529 37.1533 117.289 37.18 117.076 37.18ZM124.203 37.18C123.136 37.18 122.216 36.98 121.443 36.58C120.683 36.1667 120.09 35.5867 119.663 34.84C119.25 34.08 119.043 33.18 119.043 32.14C119.043 31.1267 119.25 30.24 119.663 29.48C120.076 28.72 120.643 28.1267 121.363 27.7C122.083 27.2733 122.903 27.06 123.823 27.06C124.503 27.06 125.11 27.1733 125.643 27.4C126.176 27.6133 126.63 27.9333 127.003 28.36C127.39 28.7733 127.676 29.28 127.863 29.88C128.063 30.48 128.163 31.1533 128.163 31.9C128.163 32.1267 128.096 32.3 127.963 32.42C127.83 32.5267 127.63 32.58 127.363 32.58H120.643V31.34H126.803L126.463 31.62C126.463 30.9533 126.363 30.3867 126.163 29.92C125.976 29.4533 125.69 29.1 125.303 28.86C124.93 28.6067 124.463 28.48 123.903 28.48C123.276 28.48 122.743 28.6267 122.303 28.92C121.876 29.2133 121.55 29.62 121.323 30.14C121.096 30.66 120.983 31.2667 120.983 31.96V32.08C120.983 33.2533 121.256 34.14 121.803 34.74C122.363 35.3267 123.17 35.62 124.223 35.62C124.623 35.62 125.043 35.5667 125.483 35.46C125.936 35.3533 126.363 35.1733 126.763 34.92C126.99 34.7867 127.19 34.7267 127.363 34.74C127.55 34.7533 127.696 34.8133 127.803 34.92C127.923 35.0267 127.996 35.16 128.023 35.32C128.05 35.48 128.023 35.6467 127.943 35.82C127.863 35.98 127.723 36.1267 127.523 36.26C127.07 36.5667 126.543 36.8 125.943 36.96C125.343 37.1067 124.763 37.18 124.203 37.18ZM130.865 37.14C130.545 37.14 130.299 37.0533 130.125 36.88C129.952 36.6933 129.865 36.44 129.865 36.12V28.12C129.865 27.7867 129.952 27.5333 130.125 27.36C130.299 27.1867 130.539 27.1 130.845 27.1C131.165 27.1 131.405 27.1867 131.565 27.36C131.739 27.5333 131.825 27.7867 131.825 28.12V29.68L131.605 29.32C131.899 28.5733 132.359 28.0133 132.985 27.64C133.612 27.2533 134.332 27.06 135.145 27.06C135.919 27.06 136.559 27.2067 137.065 27.5C137.585 27.78 137.972 28.2133 138.225 28.8C138.479 29.3733 138.605 30.1 138.605 30.98V36.12C138.605 36.44 138.519 36.6933 138.345 36.88C138.172 37.0533 137.925 37.14 137.605 37.14C137.272 37.14 137.019 37.0533 136.845 36.88C136.672 36.6933 136.585 36.44 136.585 36.12V31.1C136.585 30.26 136.419 29.6467 136.085 29.26C135.765 28.8733 135.259 28.68 134.565 28.68C133.752 28.68 133.099 28.9333 132.605 29.44C132.125 29.9467 131.885 30.6267 131.885 31.48V36.12C131.885 36.8 131.545 37.14 130.865 37.14ZM144.609 37.18C143.755 37.18 143.002 36.98 142.349 36.58C141.709 36.1667 141.209 35.58 140.849 34.82C140.489 34.0467 140.309 33.1467 140.309 32.12C140.309 31.0667 140.489 30.1667 140.849 29.42C141.209 28.6733 141.709 28.0933 142.349 27.68C143.002 27.2667 143.755 27.06 144.609 27.06C145.462 27.06 146.195 27.2733 146.809 27.7C147.435 28.1133 147.855 28.6733 148.069 29.38H147.849V23.78C147.849 23.4467 147.935 23.1933 148.109 23.02C148.282 22.8467 148.529 22.76 148.849 22.76C149.169 22.76 149.415 22.8467 149.589 23.02C149.775 23.1933 149.869 23.4467 149.869 23.78V36.12C149.869 36.44 149.782 36.6933 149.609 36.88C149.435 37.0533 149.189 37.14 148.869 37.14C148.549 37.14 148.302 37.0533 148.129 36.88C147.955 36.6933 147.869 36.44 147.869 36.12V34.36L148.089 34.8C147.875 35.52 147.455 36.1 146.829 36.54C146.215 36.9667 145.475 37.18 144.609 37.18ZM145.129 35.62C145.675 35.62 146.155 35.4867 146.569 35.22C146.982 34.9533 147.302 34.56 147.529 34.04C147.769 33.52 147.889 32.88 147.889 32.12C147.889 30.9733 147.635 30.1067 147.129 29.52C146.622 28.9333 145.955 28.64 145.129 28.64C144.569 28.64 144.082 28.7733 143.669 29.04C143.255 29.2933 142.929 29.68 142.689 30.2C142.462 30.72 142.349 31.36 142.349 32.12C142.349 33.2533 142.602 34.12 143.109 34.72C143.615 35.32 144.289 35.62 145.129 35.62ZM155.685 37.18C154.898 37.18 154.238 37.0333 153.705 36.74C153.185 36.4467 152.792 36.0133 152.525 35.44C152.272 34.8533 152.145 34.12 152.145 33.24V28.12C152.145 27.7733 152.232 27.52 152.405 27.36C152.578 27.1867 152.825 27.1 153.145 27.1C153.465 27.1 153.712 27.1867 153.885 27.36C154.072 27.52 154.165 27.7733 154.165 28.12V33.26C154.165 34.0467 154.325 34.6267 154.645 35C154.965 35.3733 155.472 35.56 156.165 35.56C156.925 35.56 157.538 35.3067 158.005 34.8C158.485 34.28 158.725 33.6 158.725 32.76V28.12C158.725 27.7733 158.812 27.52 158.985 27.36C159.158 27.1867 159.412 27.1 159.745 27.1C160.065 27.1 160.312 27.1867 160.485 27.36C160.658 27.52 160.745 27.7733 160.745 28.12V36.12C160.745 36.8 160.418 37.14 159.765 37.14C159.458 37.14 159.218 37.0533 159.045 36.88C158.872 36.6933 158.785 36.44 158.785 36.12V34.42L159.045 34.86C158.778 35.6067 158.352 36.18 157.765 36.58C157.178 36.98 156.485 37.18 155.685 37.18ZM167.672 37.18C166.605 37.18 165.685 36.98 164.912 36.58C164.152 36.1667 163.559 35.5867 163.132 34.84C162.719 34.08 162.512 33.18 162.512 32.14C162.512 31.1267 162.719 30.24 163.132 29.48C163.545 28.72 164.112 28.1267 164.832 27.7C165.552 27.2733 166.372 27.06 167.292 27.06C167.972 27.06 168.579 27.1733 169.112 27.4C169.645 27.6133 170.099 27.9333 170.472 28.36C170.859 28.7733 171.145 29.28 171.332 29.88C171.532 30.48 171.632 31.1533 171.632 31.9C171.632 32.1267 171.565 32.3 171.432 32.42C171.299 32.5267 171.099 32.58 170.832 32.58H164.112V31.34H170.272L169.932 31.62C169.932 30.9533 169.832 30.3867 169.632 29.92C169.445 29.4533 169.159 29.1 168.772 28.86C168.399 28.6067 167.932 28.48 167.372 28.48C166.745 28.48 166.212 28.6267 165.772 28.92C165.345 29.2133 165.019 29.62 164.792 30.14C164.565 30.66 164.452 31.2667 164.452 31.96V32.08C164.452 33.2533 164.725 34.14 165.272 34.74C165.832 35.3267 166.639 35.62 167.692 35.62C168.092 35.62 168.512 35.5667 168.952 35.46C169.405 35.3533 169.832 35.1733 170.232 34.92C170.459 34.7867 170.659 34.7267 170.832 34.74C171.019 34.7533 171.165 34.8133 171.272 34.92C171.392 35.0267 171.465 35.16 171.492 35.32C171.519 35.48 171.492 35.6467 171.412 35.82C171.332 35.98 171.192 36.1267 170.992 36.26C170.539 36.5667 170.012 36.8 169.412 36.96C168.812 37.1067 168.232 37.18 167.672 37.18Z" fill="#201F1F"/>
<path d="M0 60.5H579.5" stroke="#CDCCCB"/>
<rect width="579.5" height="49" transform="translate(0 61)" fill="white"/>
<path d="M27.4922 91H24.9766L23.9766 88.3984H19.3984L18.4531 91H16L20.4609 79.5469H22.9062L27.4922 91ZM23.2344 86.4688L21.6562 82.2188L20.1094 86.4688H23.2344ZM34.1719 91V89.7578C33.8698 90.2005 33.4714 90.5495 32.9766 90.8047C32.487 91.0599 31.9688 91.1875 31.4219 91.1875C30.8646 91.1875 30.3646 91.0651 29.9219 90.8203C29.4792 90.5755 29.1589 90.2318 28.9609 89.7891C28.763 89.3464 28.6641 88.7344 28.6641 87.9531V82.7031H30.8594V86.5156C30.8594 87.6823 30.8984 88.3984 30.9766 88.6641C31.0599 88.9245 31.2083 89.1328 31.4219 89.2891C31.6354 89.4401 31.9062 89.5156 32.2344 89.5156C32.6094 89.5156 32.9453 89.4141 33.2422 89.2109C33.5391 89.0026 33.7422 88.7474 33.8516 88.4453C33.9609 88.138 34.0156 87.3906 34.0156 86.2031V82.7031H36.2109V91H34.1719ZM45.7266 85.1562L43.5625 85.5469C43.4896 85.1146 43.3229 84.7891 43.0625 84.5703C42.8073 84.3516 42.474 84.2422 42.0625 84.2422C41.5156 84.2422 41.0781 84.4323 40.75 84.8125C40.4271 85.1875 40.2656 85.8177 40.2656 86.7031C40.2656 87.6875 40.4297 88.3828 40.7578 88.7891C41.0911 89.1953 41.5365 89.3984 42.0938 89.3984C42.5104 89.3984 42.8516 89.2812 43.1172 89.0469C43.3828 88.8073 43.5703 88.3984 43.6797 87.8203L45.8359 88.1875C45.612 89.1771 45.1823 89.9245 44.5469 90.4297C43.9115 90.9349 43.0599 91.1875 41.9922 91.1875C40.7786 91.1875 39.8099 90.8047 39.0859 90.0391C38.3672 89.2734 38.0078 88.2135 38.0078 86.8594C38.0078 85.4896 38.3698 84.4245 39.0938 83.6641C39.8177 82.8984 40.7969 82.5156 42.0312 82.5156C43.0417 82.5156 43.8438 82.7344 44.4375 83.1719C45.0365 83.6042 45.4661 84.2656 45.7266 85.1562ZM52.8594 91V89.7578C52.5573 90.2005 52.1589 90.5495 51.6641 90.8047C51.1745 91.0599 50.6562 91.1875 50.1094 91.1875C49.5521 91.1875 49.0521 91.0651 48.6094 90.8203C48.1667 90.5755 47.8464 90.2318 47.6484 89.7891C47.4505 89.3464 47.3516 88.7344 47.3516 87.9531V82.7031H49.5469V86.5156C49.5469 87.6823 49.5859 88.3984 49.6641 88.6641C49.7474 88.9245 49.8958 89.1328 50.1094 89.2891C50.3229 89.4401 50.5938 89.5156 50.9219 89.5156C51.2969 89.5156 51.6328 89.4141 51.9297 89.2109C52.2266 89.0026 52.4297 88.7474 52.5391 88.4453C52.6484 88.138 52.7031 87.3906 52.7031 86.2031V82.7031H54.8984V91H52.8594ZM64.7266 91H62.5312V86.7656C62.5312 85.8698 62.4844 85.2917 62.3906 85.0312C62.2969 84.7656 62.1432 84.5599 61.9297 84.4141C61.7214 84.2682 61.4688 84.1953 61.1719 84.1953C60.7917 84.1953 60.4505 84.2995 60.1484 84.5078C59.8464 84.7161 59.638 84.9922 59.5234 85.3359C59.4141 85.6797 59.3594 86.3151 59.3594 87.2422V91H57.1641V82.7031H59.2031V83.9219C59.9271 82.9844 60.8385 82.5156 61.9375 82.5156C62.4219 82.5156 62.8646 82.6042 63.2656 82.7812C63.6667 82.9531 63.9688 83.1745 64.1719 83.4453C64.3802 83.7161 64.5234 84.0234 64.6016 84.3672C64.6849 84.7109 64.7266 85.2031 64.7266 85.8438V91ZM78.6484 85.1562L76.4844 85.5469C76.4115 85.1146 76.2448 84.7891 75.9844 84.5703C75.7292 84.3516 75.3958 84.2422 74.9844 84.2422C74.4375 84.2422 74 84.4323 73.6719 84.8125C73.349 85.1875 73.1875 85.8177 73.1875 86.7031C73.1875 87.6875 73.3516 88.3828 73.6797 88.7891C74.013 89.1953 74.4583 89.3984 75.0156 89.3984C75.4323 89.3984 75.7734 89.2812 76.0391 89.0469C76.3047 88.8073 76.4922 88.3984 76.6016 87.8203L78.7578 88.1875C78.5339 89.1771 78.1042 89.9245 77.4688 90.4297C76.8333 90.9349 75.9818 91.1875 74.9141 91.1875C73.7005 91.1875 72.7318 90.8047 72.0078 90.0391C71.2891 89.2734 70.9297 88.2135 70.9297 86.8594C70.9297 85.4896 71.2917 84.4245 72.0156 83.6641C72.7396 82.8984 73.7188 82.5156 74.9531 82.5156C75.9635 82.5156 76.7656 82.7344 77.3594 83.1719C77.9583 83.6042 78.388 84.2656 78.6484 85.1562ZM80.3203 91V79.5469H82.5156V91H80.3203ZM84.7734 81.5781V79.5469H86.9688V81.5781H84.7734ZM84.7734 91V82.7031H86.9688V91H84.7734ZM96.4609 85.1562L94.2969 85.5469C94.224 85.1146 94.0573 84.7891 93.7969 84.5703C93.5417 84.3516 93.2083 84.2422 92.7969 84.2422C92.25 84.2422 91.8125 84.4323 91.4844 84.8125C91.1615 85.1875 91 85.8177 91 86.7031C91 87.6875 91.1641 88.3828 91.4922 88.7891C91.8255 89.1953 92.2708 89.3984 92.8281 89.3984C93.2448 89.3984 93.5859 89.2812 93.8516 89.0469C94.1172 88.8073 94.3047 88.3984 94.4141 87.8203L96.5703 88.1875C96.3464 89.1771 95.9167 89.9245 95.2812 90.4297C94.6458 90.9349 93.7943 91.1875 92.7266 91.1875C91.513 91.1875 90.5443 90.8047 89.8203 90.0391C89.1016 89.2734 88.7422 88.2135 88.7422 86.8594C88.7422 85.4896 89.1042 84.4245 89.8281 83.6641C90.5521 82.8984 91.5312 82.5156 92.7656 82.5156C93.776 82.5156 94.5781 82.7344 95.1719 83.1719C95.7708 83.6042 96.2005 84.2656 96.4609 85.1562ZM101.414 91.1953L104.25 79.3516H105.898L103.031 91.1953H101.414ZM110.719 88.6328L112.922 88.2969C113.016 88.724 113.206 89.0495 113.492 89.2734C113.779 89.4922 114.18 89.6016 114.695 89.6016C115.263 89.6016 115.69 89.4974 115.977 89.2891C116.169 89.1432 116.266 88.9479 116.266 88.7031C116.266 88.5365 116.214 88.3984 116.109 88.2891C116 88.1849 115.755 88.0885 115.375 88C113.604 87.6094 112.482 87.2526 112.008 86.9297C111.352 86.4818 111.023 85.8594 111.023 85.0625C111.023 84.3438 111.307 83.7396 111.875 83.25C112.443 82.7604 113.323 82.5156 114.516 82.5156C115.651 82.5156 116.495 82.7005 117.047 83.0703C117.599 83.4401 117.979 83.987 118.188 84.7109L116.117 85.0938C116.029 84.7708 115.859 84.5234 115.609 84.3516C115.365 84.1797 115.013 84.0938 114.555 84.0938C113.977 84.0938 113.562 84.1745 113.312 84.3359C113.146 84.4505 113.062 84.599 113.062 84.7812C113.062 84.9375 113.135 85.0703 113.281 85.1797C113.479 85.3255 114.161 85.5312 115.328 85.7969C116.5 86.0625 117.318 86.388 117.781 86.7734C118.24 87.1641 118.469 87.7083 118.469 88.4062C118.469 89.1667 118.151 89.8203 117.516 90.3672C116.88 90.9141 115.94 91.1875 114.695 91.1875C113.565 91.1875 112.669 90.9583 112.008 90.5C111.352 90.0417 110.922 89.4193 110.719 88.6328ZM125.859 91V89.7578C125.557 90.2005 125.159 90.5495 124.664 90.8047C124.174 91.0599 123.656 91.1875 123.109 91.1875C122.552 91.1875 122.052 91.0651 121.609 90.8203C121.167 90.5755 120.846 90.2318 120.648 89.7891C120.451 89.3464 120.352 88.7344 120.352 87.9531V82.7031H122.547V86.5156C122.547 87.6823 122.586 88.3984 122.664 88.6641C122.747 88.9245 122.896 89.1328 123.109 89.2891C123.323 89.4401 123.594 89.5156 123.922 89.5156C124.297 89.5156 124.633 89.4141 124.93 89.2109C125.227 89.0026 125.43 88.7474 125.539 88.4453C125.648 88.138 125.703 87.3906 125.703 86.2031V82.7031H127.898V91H125.859ZM132.281 91H130.086V82.7031H132.125V83.8828C132.474 83.3255 132.786 82.9583 133.062 82.7812C133.344 82.6042 133.661 82.5156 134.016 82.5156C134.516 82.5156 134.997 82.6536 135.461 82.9297L134.781 84.8438C134.411 84.6042 134.068 84.4844 133.75 84.4844C133.443 84.4844 133.182 84.5703 132.969 84.7422C132.755 84.9089 132.586 85.2135 132.461 85.6562C132.341 86.099 132.281 87.026 132.281 88.4375V91ZM138.695 91L135.352 82.7031H137.656L139.219 86.9375L139.672 88.3516C139.792 87.9922 139.867 87.7552 139.898 87.6406C139.971 87.4062 140.049 87.1719 140.133 86.9375L141.711 82.7031H143.969L140.672 91H138.695ZM144.812 86.7344C144.812 86.0052 144.992 85.2995 145.352 84.6172C145.711 83.9349 146.219 83.4141 146.875 83.0547C147.536 82.6953 148.273 82.5156 149.086 82.5156C150.341 82.5156 151.37 82.9245 152.172 83.7422C152.974 84.5547 153.375 85.5833 153.375 86.8281C153.375 88.0833 152.969 89.125 152.156 89.9531C151.349 90.776 150.331 91.1875 149.102 91.1875C148.341 91.1875 147.615 91.0156 146.922 90.6719C146.234 90.3281 145.711 89.8255 145.352 89.1641C144.992 88.4974 144.812 87.6875 144.812 86.7344ZM147.062 86.8516C147.062 87.6745 147.258 88.3047 147.648 88.7422C148.039 89.1797 148.521 89.3984 149.094 89.3984C149.667 89.3984 150.146 89.1797 150.531 88.7422C150.922 88.3047 151.117 87.6693 151.117 86.8359C151.117 86.0234 150.922 85.3984 150.531 84.9609C150.146 84.5234 149.667 84.3047 149.094 84.3047C148.521 84.3047 148.039 84.5234 147.648 84.9609C147.258 85.3984 147.062 86.0286 147.062 86.8516ZM155.102 91V79.5469H157.297V91H155.102Z" fill="#3E3E3D"/>
<g opacity="0.5">
<path d="M0 109.5H579.5" stroke="#CDCCCB"/>
</g>
<rect width="579.5" height="49" transform="translate(0 110)" fill="white"/>
<path d="M19.7422 140V130.484H16.3438V128.547H25.4453V130.484H22.0547V140H19.7422ZM30.5469 137.359L32.7344 137.727C32.4531 138.529 32.0078 139.141 31.3984 139.562C30.7943 139.979 30.0365 140.188 29.125 140.188C27.6823 140.188 26.6146 139.716 25.9219 138.773C25.375 138.018 25.1016 137.065 25.1016 135.914C25.1016 134.539 25.4609 133.464 26.1797 132.688C26.8984 131.906 27.8073 131.516 28.9062 131.516C30.1406 131.516 31.1146 131.924 31.8281 132.742C32.5417 133.555 32.8828 134.802 32.8516 136.484H27.3516C27.3672 137.135 27.5443 137.643 27.8828 138.008C28.2214 138.367 28.6432 138.547 29.1484 138.547C29.4922 138.547 29.7812 138.453 30.0156 138.266C30.25 138.078 30.4271 137.776 30.5469 137.359ZM30.6719 135.141C30.6562 134.505 30.4922 134.023 30.1797 133.695C29.8672 133.362 29.487 133.195 29.0391 133.195C28.5599 133.195 28.1641 133.37 27.8516 133.719C27.5391 134.068 27.3854 134.542 27.3906 135.141H30.6719ZM33.5938 140L36.5859 135.727L33.7188 131.703H36.3984L37.8672 133.984L39.4141 131.703H41.9922L39.1797 135.633L42.25 140H39.5547L37.8672 137.43L36.1641 140H33.5938ZM47.3594 131.703V133.453H45.8594V136.797C45.8594 137.474 45.8724 137.87 45.8984 137.984C45.9297 138.094 45.9948 138.185 46.0938 138.258C46.1979 138.331 46.3229 138.367 46.4688 138.367C46.6719 138.367 46.9661 138.297 47.3516 138.156L47.5391 139.859C47.0286 140.078 46.4505 140.188 45.8047 140.188C45.4089 140.188 45.0521 140.122 44.7344 139.992C44.4167 139.857 44.1823 139.685 44.0312 139.477C43.8854 139.263 43.7839 138.977 43.7266 138.617C43.6797 138.362 43.6562 137.846 43.6562 137.07V133.453H42.6484V131.703H43.6562V130.055L45.8594 128.773V131.703H47.3594ZM53.6875 137.359L55.875 137.727C55.5938 138.529 55.1484 139.141 54.5391 139.562C53.9349 139.979 53.1771 140.188 52.2656 140.188C50.8229 140.188 49.7552 139.716 49.0625 138.773C48.5156 138.018 48.2422 137.065 48.2422 135.914C48.2422 134.539 48.6016 133.464 49.3203 132.688C50.0391 131.906 50.9479 131.516 52.0469 131.516C53.2812 131.516 54.2552 131.924 54.9688 132.742C55.6823 133.555 56.0234 134.802 55.9922 136.484H50.4922C50.5078 137.135 50.6849 137.643 51.0234 138.008C51.362 138.367 51.7839 138.547 52.2891 138.547C52.6328 138.547 52.9219 138.453 53.1562 138.266C53.3906 138.078 53.5677 137.776 53.6875 137.359ZM53.8125 135.141C53.7969 134.505 53.6328 134.023 53.3203 133.695C53.0078 133.362 52.6276 133.195 52.1797 133.195C51.7005 133.195 51.3047 133.37 50.9922 133.719C50.6797 134.068 50.526 134.542 50.5312 135.141H53.8125ZM63.8828 134.234L61.8906 133.875C62.1146 133.073 62.5 132.479 63.0469 132.094C63.5938 131.708 64.4062 131.516 65.4844 131.516C66.4635 131.516 67.1927 131.633 67.6719 131.867C68.151 132.096 68.487 132.391 68.6797 132.75C68.8776 133.104 68.9766 133.758 68.9766 134.711L68.9531 137.273C68.9531 138.003 68.987 138.542 69.0547 138.891C69.1276 139.234 69.2604 139.604 69.4531 140H67.2812C67.224 139.854 67.1536 139.638 67.0703 139.352C67.0339 139.221 67.0078 139.135 66.9922 139.094C66.6172 139.458 66.2161 139.732 65.7891 139.914C65.362 140.096 64.9062 140.188 64.4219 140.188C63.5677 140.188 62.8932 139.956 62.3984 139.492C61.9089 139.029 61.6641 138.443 61.6641 137.734C61.6641 137.266 61.776 136.849 62 136.484C62.224 136.115 62.5365 135.833 62.9375 135.641C63.3438 135.443 63.9271 135.271 64.6875 135.125C65.7135 134.932 66.4245 134.753 66.8203 134.586V134.367C66.8203 133.945 66.7161 133.646 66.5078 133.469C66.2995 133.286 65.9062 133.195 65.3281 133.195C64.9375 133.195 64.6328 133.273 64.4141 133.43C64.1953 133.581 64.0182 133.849 63.8828 134.234ZM66.8203 136.016C66.5391 136.109 66.0938 136.221 65.4844 136.352C64.875 136.482 64.4766 136.609 64.2891 136.734C64.0026 136.938 63.8594 137.195 63.8594 137.508C63.8594 137.815 63.974 138.081 64.2031 138.305C64.4323 138.529 64.724 138.641 65.0781 138.641C65.474 138.641 65.8516 138.51 66.2109 138.25C66.4766 138.052 66.651 137.81 66.7344 137.523C66.7917 137.336 66.8203 136.979 66.8203 136.453V136.016ZM78.7578 140H76.7188V138.781C76.3802 139.255 75.9792 139.609 75.5156 139.844C75.0573 140.073 74.5938 140.188 74.125 140.188C73.1719 140.188 72.3542 139.805 71.6719 139.039C70.9948 138.268 70.6562 137.195 70.6562 135.82C70.6562 134.414 70.987 133.346 71.6484 132.617C72.3099 131.883 73.1458 131.516 74.1562 131.516C75.0833 131.516 75.8854 131.901 76.5625 132.672V128.547H78.7578V140ZM72.8984 135.672C72.8984 136.557 73.0208 137.198 73.2656 137.594C73.6198 138.167 74.1146 138.453 74.75 138.453C75.2552 138.453 75.6849 138.24 76.0391 137.812C76.3932 137.38 76.5703 136.737 76.5703 135.883C76.5703 134.93 76.3984 134.245 76.0547 133.828C75.7109 133.406 75.2708 133.195 74.7344 133.195C74.2135 133.195 73.776 133.404 73.4219 133.82C73.0729 134.232 72.8984 134.849 72.8984 135.672ZM80.8828 130.578V128.547H83.0781V130.578H80.8828ZM83.0781 131.703V139.742C83.0781 140.799 83.0078 141.544 82.8672 141.977C82.7318 142.414 82.4661 142.755 82.0703 143C81.6797 143.245 81.1797 143.367 80.5703 143.367C80.3516 143.367 80.1146 143.346 79.8594 143.305C79.6094 143.268 79.3385 143.211 79.0469 143.133L79.4297 141.258C79.5339 141.279 79.6328 141.294 79.7266 141.305C79.8151 141.32 79.8984 141.328 79.9766 141.328C80.2005 141.328 80.3828 141.279 80.5234 141.18C80.6693 141.086 80.7656 140.971 80.8125 140.836C80.8594 140.701 80.8828 140.294 80.8828 139.617V131.703H83.0781ZM87.0234 134.234L85.0312 133.875C85.2552 133.073 85.6406 132.479 86.1875 132.094C86.7344 131.708 87.5469 131.516 88.625 131.516C89.6042 131.516 90.3333 131.633 90.8125 131.867C91.2917 132.096 91.6276 132.391 91.8203 132.75C92.0182 133.104 92.1172 133.758 92.1172 134.711L92.0938 137.273C92.0938 138.003 92.1276 138.542 92.1953 138.891C92.2682 139.234 92.401 139.604 92.5938 140H90.4219C90.3646 139.854 90.2943 139.638 90.2109 139.352C90.1745 139.221 90.1484 139.135 90.1328 139.094C89.7578 139.458 89.3568 139.732 88.9297 139.914C88.5026 140.096 88.0469 140.188 87.5625 140.188C86.7083 140.188 86.0339 139.956 85.5391 139.492C85.0495 139.029 84.8047 138.443 84.8047 137.734C84.8047 137.266 84.9167 136.849 85.1406 136.484C85.3646 136.115 85.6771 135.833 86.0781 135.641C86.4844 135.443 87.0677 135.271 87.8281 135.125C88.8542 134.932 89.5651 134.753 89.9609 134.586V134.367C89.9609 133.945 89.8568 133.646 89.6484 133.469C89.4401 133.286 89.0469 133.195 88.4688 133.195C88.0781 133.195 87.7734 133.273 87.5547 133.43C87.3359 133.581 87.1589 133.849 87.0234 134.234ZM89.9609 136.016C89.6797 136.109 89.2344 136.221 88.625 136.352C88.0156 136.482 87.6172 136.609 87.4297 136.734C87.1432 136.938 87 137.195 87 137.508C87 137.815 87.1146 138.081 87.3438 138.305C87.5729 138.529 87.8646 138.641 88.2188 138.641C88.6146 138.641 88.9922 138.51 89.3516 138.25C89.6172 138.052 89.7917 137.81 89.875 137.523C89.9323 137.336 89.9609 136.979 89.9609 136.453V136.016ZM101.523 134.156L99.3594 134.547C99.2865 134.115 99.1198 133.789 98.8594 133.57C98.6042 133.352 98.2708 133.242 97.8594 133.242C97.3125 133.242 96.875 133.432 96.5469 133.812C96.224 134.188 96.0625 134.818 96.0625 135.703C96.0625 136.688 96.2266 137.383 96.5547 137.789C96.888 138.195 97.3333 138.398 97.8906 138.398C98.3073 138.398 98.6484 138.281 98.9141 138.047C99.1797 137.807 99.3672 137.398 99.4766 136.82L101.633 137.188C101.409 138.177 100.979 138.924 100.344 139.43C99.7083 139.935 98.8568 140.188 97.7891 140.188C96.5755 140.188 95.6068 139.805 94.8828 139.039C94.1641 138.273 93.8047 137.214 93.8047 135.859C93.8047 134.49 94.1667 133.424 94.8906 132.664C95.6146 131.898 96.5938 131.516 97.8281 131.516C98.8385 131.516 99.6406 131.734 100.234 132.172C100.833 132.604 101.263 133.266 101.523 134.156ZM108 137.359L110.188 137.727C109.906 138.529 109.461 139.141 108.852 139.562C108.247 139.979 107.49 140.188 106.578 140.188C105.135 140.188 104.068 139.716 103.375 138.773C102.828 138.018 102.555 137.065 102.555 135.914C102.555 134.539 102.914 133.464 103.633 132.688C104.352 131.906 105.26 131.516 106.359 131.516C107.594 131.516 108.568 131.924 109.281 132.742C109.995 133.555 110.336 134.802 110.305 136.484H104.805C104.82 137.135 104.997 137.643 105.336 138.008C105.674 138.367 106.096 138.547 106.602 138.547C106.945 138.547 107.234 138.453 107.469 138.266C107.703 138.078 107.88 137.776 108 137.359ZM108.125 135.141C108.109 134.505 107.945 134.023 107.633 133.695C107.32 133.362 106.94 133.195 106.492 133.195C106.013 133.195 105.617 133.37 105.305 133.719C104.992 134.068 104.839 134.542 104.844 135.141H108.125ZM119.648 140H117.453V135.766C117.453 134.87 117.406 134.292 117.312 134.031C117.219 133.766 117.065 133.56 116.852 133.414C116.643 133.268 116.391 133.195 116.094 133.195C115.714 133.195 115.372 133.299 115.07 133.508C114.768 133.716 114.56 133.992 114.445 134.336C114.336 134.68 114.281 135.315 114.281 136.242V140H112.086V131.703H114.125V132.922C114.849 131.984 115.76 131.516 116.859 131.516C117.344 131.516 117.786 131.604 118.188 131.781C118.589 131.953 118.891 132.174 119.094 132.445C119.302 132.716 119.445 133.023 119.523 133.367C119.607 133.711 119.648 134.203 119.648 134.844V140ZM125.688 131.703V133.453H124.188V136.797C124.188 137.474 124.201 137.87 124.227 137.984C124.258 138.094 124.323 138.185 124.422 138.258C124.526 138.331 124.651 138.367 124.797 138.367C125 138.367 125.294 138.297 125.68 138.156L125.867 139.859C125.357 140.078 124.779 140.188 124.133 140.188C123.737 140.188 123.38 140.122 123.062 139.992C122.745 139.857 122.51 139.685 122.359 139.477C122.214 139.263 122.112 138.977 122.055 138.617C122.008 138.362 121.984 137.846 121.984 137.07V133.453H120.977V131.703H121.984V130.055L124.188 128.773V131.703H125.688Z" fill="#3E3E3D"/>
<g opacity="0.5">
<path d="M0 158.5H579.5" stroke="#CDCCCB"/>
</g>
<rect width="579.5" height="61" transform="translate(579.5)" fill="white"/>
<path d="M601.84 37.18C601.227 37.18 600.627 37.1333 600.04 37.04C599.453 36.9467 598.9 36.8067 598.38 36.62C597.86 36.42 597.393 36.18 596.98 35.9C596.78 35.7533 596.64 35.5867 596.56 35.4C596.493 35.2133 596.473 35.0333 596.5 34.86C596.54 34.6733 596.62 34.5133 596.74 34.38C596.86 34.2467 597.007 34.1667 597.18 34.14C597.353 34.1 597.547 34.1533 597.76 34.3C598.36 34.6867 598.993 34.9733 599.66 35.16C600.327 35.3333 601.053 35.42 601.84 35.42C602.973 35.42 603.807 35.22 604.34 34.82C604.887 34.4067 605.16 33.8733 605.16 33.22C605.16 32.6867 604.967 32.2667 604.58 31.96C604.193 31.64 603.547 31.3867 602.64 31.2L600.5 30.76C599.233 30.4933 598.287 30.0533 597.66 29.44C597.047 28.8267 596.74 28 596.74 26.96C596.74 26.3333 596.867 25.76 597.12 25.24C597.387 24.72 597.753 24.2733 598.22 23.9C598.687 23.5133 599.247 23.22 599.9 23.02C600.553 22.82 601.267 22.72 602.04 22.72C602.867 22.72 603.64 22.8267 604.36 23.04C605.093 23.2533 605.747 23.58 606.32 24.02C606.493 24.14 606.607 24.2933 606.66 24.48C606.727 24.6533 606.74 24.8267 606.7 25C606.673 25.1733 606.6 25.32 606.48 25.44C606.36 25.56 606.207 25.6333 606.02 25.66C605.833 25.6733 605.627 25.6067 605.4 25.46C604.88 25.1133 604.347 24.8667 603.8 24.72C603.267 24.56 602.673 24.48 602.02 24.48C601.367 24.48 600.793 24.58 600.3 24.78C599.82 24.98 599.447 25.26 599.18 25.62C598.927 25.98 598.8 26.4067 598.8 26.9C598.8 27.46 598.98 27.9067 599.34 28.24C599.7 28.5733 600.3 28.8267 601.14 29L603.26 29.44C604.593 29.72 605.587 30.1533 606.24 30.74C606.893 31.3267 607.22 32.1067 607.22 33.08C607.22 33.7067 607.093 34.2733 606.84 34.78C606.587 35.2733 606.227 35.7 605.76 36.06C605.293 36.42 604.727 36.7 604.06 36.9C603.407 37.0867 602.667 37.18 601.84 37.18ZM609.861 40.74C609.541 40.74 609.295 40.6533 609.121 40.48C608.948 40.3067 608.861 40.0533 608.861 39.72V28.12C608.861 27.7867 608.948 27.5333 609.121 27.36C609.295 27.1867 609.535 27.1 609.841 27.1C610.161 27.1 610.408 27.1867 610.581 27.36C610.755 27.5333 610.841 27.7867 610.841 28.12V29.86L610.621 29.44C610.835 28.72 611.255 28.1467 611.881 27.72C612.508 27.28 613.248 27.06 614.101 27.06C614.968 27.06 615.721 27.2667 616.361 27.68C617.015 28.0933 617.515 28.6733 617.861 29.42C618.221 30.1667 618.401 31.0667 618.401 32.12C618.401 33.1467 618.221 34.0467 617.861 34.82C617.515 35.58 617.021 36.1667 616.381 36.58C615.741 36.98 614.981 37.18 614.101 37.18C613.261 37.18 612.528 36.9667 611.901 36.54C611.275 36.1133 610.855 35.5467 610.641 34.84H610.881V39.72C610.881 40.0533 610.788 40.3067 610.601 40.48C610.428 40.6533 610.181 40.74 609.861 40.74ZM613.601 35.62C614.161 35.62 614.648 35.4867 615.061 35.22C615.475 34.9533 615.795 34.56 616.021 34.04C616.248 33.52 616.361 32.88 616.361 32.12C616.361 30.9733 616.108 30.1067 615.601 29.52C615.108 28.9333 614.441 28.64 613.601 28.64C613.055 28.64 612.568 28.7733 612.141 29.04C611.728 29.2933 611.408 29.68 611.181 30.2C610.955 30.72 610.841 31.36 610.841 32.12C610.841 33.2533 611.095 34.12 611.601 34.72C612.108 35.32 612.775 35.62 613.601 35.62ZM624.758 37.18C623.691 37.18 622.771 36.98 621.998 36.58C621.238 36.1667 620.644 35.5867 620.218 34.84C619.804 34.08 619.598 33.18 619.598 32.14C619.598 31.1267 619.804 30.24 620.218 29.48C620.631 28.72 621.198 28.1267 621.918 27.7C622.638 27.2733 623.458 27.06 624.378 27.06C625.058 27.06 625.664 27.1733 626.198 27.4C626.731 27.6133 627.184 27.9333 627.558 28.36C627.944 28.7733 628.231 29.28 628.418 29.88C628.618 30.48 628.718 31.1533 628.718 31.9C628.718 32.1267 628.651 32.3 628.518 32.42C628.384 32.5267 628.184 32.58 627.918 32.58H621.198V31.34H627.358L627.018 31.62C627.018 30.9533 626.918 30.3867 626.718 29.92C626.531 29.4533 626.244 29.1 625.858 28.86C625.484 28.6067 625.018 28.48 624.458 28.48C623.831 28.48 623.298 28.6267 622.858 28.92C622.431 29.2133 622.104 29.62 621.878 30.14C621.651 30.66 621.538 31.2667 621.538 31.96V32.08C621.538 33.2533 621.811 34.14 622.358 34.74C622.918 35.3267 623.724 35.62 624.778 35.62C625.178 35.62 625.598 35.5667 626.038 35.46C626.491 35.3533 626.918 35.1733 627.318 34.92C627.544 34.7867 627.744 34.7267 627.918 34.74C628.104 34.7533 628.251 34.8133 628.358 34.92C628.478 35.0267 628.551 35.16 628.578 35.32C628.604 35.48 628.578 35.6467 628.498 35.82C628.418 35.98 628.278 36.1267 628.078 36.26C627.624 36.5667 627.098 36.8 626.498 36.96C625.898 37.1067 625.318 37.18 624.758 37.18ZM625.178 25.84C625.071 26 624.938 26.0933 624.778 26.12C624.631 26.1467 624.484 26.12 624.338 26.04C624.191 25.96 624.084 25.8467 624.018 25.7C623.964 25.5533 623.978 25.3933 624.058 25.22L625.678 22.08C625.784 21.8667 625.918 21.7267 626.078 21.66C626.251 21.5933 626.424 21.5867 626.598 21.64C626.784 21.68 626.938 21.76 627.058 21.88C627.191 22 627.271 22.1533 627.298 22.34C627.324 22.5133 627.278 22.6867 627.158 22.86L625.178 25.84ZM634.72 37.18C633.72 37.18 632.853 36.9733 632.12 36.56C631.4 36.1333 630.84 35.54 630.44 34.78C630.04 34.0067 629.84 33.1 629.84 32.06C629.84 31.2867 629.953 30.5933 630.18 29.98C630.407 29.3533 630.727 28.8267 631.14 28.4C631.567 27.9733 632.08 27.6467 632.68 27.42C633.293 27.18 633.973 27.06 634.72 27.06C635.187 27.06 635.673 27.1333 636.18 27.28C636.7 27.4133 637.18 27.64 637.62 27.96C637.793 28.0667 637.9 28.2 637.94 28.36C637.993 28.5067 638 28.66 637.96 28.82C637.933 28.98 637.86 29.12 637.74 29.24C637.633 29.3467 637.5 29.4133 637.34 29.44C637.18 29.4533 637.007 29.4067 636.82 29.3C636.5 29.0733 636.173 28.9133 635.84 28.82C635.507 28.7133 635.187 28.66 634.88 28.66C634.4 28.66 633.973 28.74 633.6 28.9C633.24 29.0467 632.933 29.2667 632.68 29.56C632.427 29.84 632.233 30.1933 632.1 30.62C631.98 31.0467 631.92 31.5333 631.92 32.08C631.92 33.1733 632.173 34.0333 632.68 34.66C633.2 35.2733 633.933 35.58 634.88 35.58C635.187 35.58 635.507 35.5333 635.84 35.44C636.173 35.3467 636.5 35.1867 636.82 34.96C637.007 34.8533 637.18 34.8133 637.34 34.84C637.5 34.8667 637.627 34.94 637.72 35.06C637.827 35.1667 637.893 35.3 637.92 35.46C637.96 35.6067 637.953 35.76 637.9 35.92C637.847 36.08 637.733 36.2133 637.56 36.32C637.133 36.6267 636.667 36.8467 636.16 36.98C635.667 37.1133 635.187 37.18 634.72 37.18ZM640.256 37.12C639.936 37.12 639.689 37.0267 639.516 36.84C639.343 36.64 639.256 36.3667 639.256 36.02V28.22C639.256 27.8733 639.343 27.6067 639.516 27.42C639.689 27.2333 639.936 27.14 640.256 27.14C640.576 27.14 640.823 27.2333 640.996 27.42C641.183 27.6067 641.276 27.8733 641.276 28.22V36.02C641.276 36.3667 641.189 36.64 641.016 36.84C640.843 37.0267 640.589 37.12 640.256 37.12ZM640.256 25.06C639.856 25.06 639.543 24.96 639.316 24.76C639.103 24.56 638.996 24.28 638.996 23.92C638.996 23.5467 639.103 23.2667 639.316 23.08C639.543 22.88 639.856 22.78 640.256 22.78C640.656 22.78 640.963 22.88 641.176 23.08C641.403 23.2667 641.516 23.5467 641.516 23.92C641.516 24.28 641.403 24.56 641.176 24.76C640.963 24.96 640.656 25.06 640.256 25.06ZM645.219 37.14C644.899 37.14 644.646 37.0533 644.459 36.88C644.286 36.6933 644.199 36.44 644.199 36.12V28.8H643.079C642.826 28.8 642.626 28.7333 642.479 28.6C642.333 28.4533 642.259 28.26 642.259 28.02C642.259 27.7667 642.333 27.5733 642.479 27.44C642.626 27.3067 642.826 27.24 643.079 27.24H644.779L644.199 27.78V27.06C644.199 25.7667 644.519 24.78 645.159 24.1C645.799 23.42 646.739 23.02 647.979 22.9L648.579 22.86C648.819 22.8333 649.013 22.8667 649.159 22.96C649.306 23.04 649.406 23.16 649.459 23.32C649.513 23.4667 649.519 23.62 649.479 23.78C649.439 23.94 649.366 24.08 649.259 24.2C649.166 24.3067 649.046 24.3667 648.899 24.38L648.359 24.42C647.613 24.4733 647.066 24.6933 646.719 25.08C646.386 25.4667 646.219 26.0333 646.219 26.78V27.56L645.939 27.24H651.419C651.753 27.24 652.006 27.34 652.179 27.54C652.353 27.7267 652.439 27.9867 652.439 28.32V36.02C652.439 36.3667 652.353 36.64 652.179 36.84C652.019 37.0267 651.766 37.12 651.419 37.12C651.099 37.12 650.853 37.0267 650.679 36.84C650.506 36.64 650.419 36.3667 650.419 36.02V28.8H646.219V36.12C646.219 36.8 645.886 37.14 645.219 37.14ZM651.459 25.06C651.073 25.06 650.773 24.96 650.559 24.76C650.346 24.56 650.239 24.28 650.239 23.92C650.239 23.5467 650.346 23.2667 650.559 23.08C650.773 22.88 651.073 22.78 651.459 22.78C651.859 22.78 652.159 22.88 652.359 23.08C652.573 23.2667 652.679 23.5467 652.679 23.92C652.679 24.28 652.573 24.56 652.359 24.76C652.159 24.96 651.859 25.06 651.459 25.06ZM659.06 37.18C658.06 37.18 657.193 36.9733 656.46 36.56C655.74 36.1333 655.18 35.54 654.78 34.78C654.38 34.0067 654.18 33.1 654.18 32.06C654.18 31.2867 654.293 30.5933 654.52 29.98C654.747 29.3533 655.067 28.8267 655.48 28.4C655.907 27.9733 656.42 27.6467 657.02 27.42C657.633 27.18 658.313 27.06 659.06 27.06C659.527 27.06 660.013 27.1333 660.52 27.28C661.04 27.4133 661.52 27.64 661.96 27.96C662.133 28.0667 662.24 28.2 662.28 28.36C662.333 28.5067 662.34 28.66 662.3 28.82C662.273 28.98 662.2 29.12 662.08 29.24C661.973 29.3467 661.84 29.4133 661.68 29.44C661.52 29.4533 661.347 29.4067 661.16 29.3C660.84 29.0733 660.513 28.9133 660.18 28.82C659.847 28.7133 659.527 28.66 659.22 28.66C658.74 28.66 658.313 28.74 657.94 28.9C657.58 29.0467 657.273 29.2667 657.02 29.56C656.767 29.84 656.573 30.1933 656.44 30.62C656.32 31.0467 656.26 31.5333 656.26 32.08C656.26 33.1733 656.513 34.0333 657.02 34.66C657.54 35.2733 658.273 35.58 659.22 35.58C659.527 35.58 659.847 35.5333 660.18 35.44C660.513 35.3467 660.84 35.1867 661.16 34.96C661.347 34.8533 661.52 34.8133 661.68 34.84C661.84 34.8667 661.967 34.94 662.06 35.06C662.167 35.1667 662.233 35.3 662.26 35.46C662.3 35.6067 662.293 35.76 662.24 35.92C662.187 36.08 662.073 36.2133 661.9 36.32C661.473 36.6267 661.007 36.8467 660.5 36.98C660.007 37.1133 659.527 37.18 659.06 37.18ZM666.638 37.18C665.958 37.18 665.344 37.0467 664.798 36.78C664.264 36.5133 663.844 36.1533 663.538 35.7C663.231 35.2467 663.078 34.7333 663.078 34.16C663.078 33.44 663.258 32.8733 663.618 32.46C663.991 32.0333 664.598 31.7333 665.438 31.56C666.291 31.3733 667.438 31.28 668.878 31.28H669.818V32.52H668.898C667.938 32.52 667.178 32.5667 666.618 32.66C666.058 32.7533 665.658 32.9133 665.418 33.14C665.191 33.3533 665.078 33.6533 665.078 34.04C665.078 34.5467 665.251 34.96 665.598 35.28C665.944 35.5867 666.424 35.74 667.038 35.74C667.531 35.74 667.964 35.6267 668.338 35.4C668.711 35.16 669.004 34.84 669.218 34.44C669.444 34.04 669.558 33.58 669.558 33.06V30.76C669.558 30 669.398 29.4533 669.078 29.12C668.758 28.7867 668.231 28.62 667.498 28.62C667.071 28.62 666.624 28.6733 666.158 28.78C665.704 28.8867 665.231 29.0667 664.738 29.32C664.511 29.4267 664.318 29.46 664.158 29.42C663.998 29.38 663.871 29.2933 663.778 29.16C663.684 29.0133 663.631 28.86 663.618 28.7C663.618 28.5267 663.658 28.36 663.738 28.2C663.831 28.04 663.984 27.92 664.198 27.84C664.784 27.56 665.364 27.36 665.938 27.24C666.511 27.12 667.051 27.06 667.558 27.06C668.451 27.06 669.184 27.2 669.758 27.48C670.344 27.76 670.778 28.1867 671.058 28.76C671.338 29.3333 671.478 30.0733 671.478 30.98V36.12C671.478 36.44 671.398 36.6933 671.238 36.88C671.078 37.0533 670.844 37.14 670.538 37.14C670.244 37.14 670.011 37.0533 669.838 36.88C669.664 36.6933 669.578 36.44 669.578 36.12V34.82H669.758C669.651 35.3133 669.451 35.74 669.158 36.1C668.878 36.4467 668.524 36.7133 668.098 36.9C667.671 37.0867 667.184 37.18 666.638 37.18ZM677.92 37.18C677.12 37.18 676.447 37.04 675.9 36.76C675.353 36.48 674.947 36.0667 674.68 35.52C674.413 34.9733 674.28 34.3067 674.28 33.52V28.8H673.08C672.813 28.8 672.607 28.7333 672.46 28.6C672.313 28.4533 672.24 28.26 672.24 28.02C672.24 27.7667 672.313 27.5733 672.46 27.44C672.607 27.3067 672.813 27.24 673.08 27.24H674.28V25.18C674.28 24.8467 674.367 24.5933 674.54 24.42C674.727 24.2467 674.98 24.16 675.3 24.16C675.62 24.16 675.867 24.2467 676.04 24.42C676.213 24.5933 676.3 24.8467 676.3 25.18V27.24H678.64C678.907 27.24 679.113 27.3067 679.26 27.44C679.407 27.5733 679.48 27.7667 679.48 28.02C679.48 28.26 679.407 28.4533 679.26 28.6C679.113 28.7333 678.907 28.8 678.64 28.8H676.3V33.36C676.3 34.0667 676.447 34.6 676.74 34.96C677.047 35.32 677.54 35.5 678.22 35.5C678.46 35.5 678.667 35.48 678.84 35.44C679.027 35.3867 679.18 35.3533 679.3 35.34C679.447 35.34 679.567 35.3933 679.66 35.5C679.753 35.5933 679.8 35.78 679.8 36.06C679.8 36.26 679.76 36.4467 679.68 36.62C679.613 36.7933 679.487 36.9067 679.3 36.96C679.14 37.0133 678.92 37.06 678.64 37.1C678.373 37.1533 678.133 37.18 677.92 37.18ZM681.74 37.12C681.42 37.12 681.174 37.0267 681 36.84C680.827 36.64 680.74 36.3667 680.74 36.02V28.22C680.74 27.8733 680.827 27.6067 681 27.42C681.174 27.2333 681.42 27.14 681.74 27.14C682.06 27.14 682.307 27.2333 682.48 27.42C682.667 27.6067 682.76 27.8733 682.76 28.22V36.02C682.76 36.3667 682.674 36.64 682.5 36.84C682.327 37.0267 682.074 37.12 681.74 37.12ZM681.74 25.06C681.34 25.06 681.027 24.96 680.8 24.76C680.587 24.56 680.48 24.28 680.48 23.92C680.48 23.5467 680.587 23.2667 680.8 23.08C681.027 22.88 681.34 22.78 681.74 22.78C682.14 22.78 682.447 22.88 682.66 23.08C682.887 23.2667 683 23.5467 683 23.92C683 24.28 682.887 24.56 682.66 24.76C682.447 24.96 682.14 25.06 681.74 25.06ZM689.344 37.18C688.357 37.18 687.504 36.9733 686.784 36.56C686.077 36.1467 685.524 35.56 685.124 34.8C684.724 34.04 684.524 33.1467 684.524 32.12C684.524 31.3333 684.637 30.6333 684.864 30.02C685.09 29.4067 685.41 28.88 685.824 28.44C686.25 27.9867 686.757 27.6467 687.344 27.42C687.944 27.18 688.61 27.06 689.344 27.06C690.317 27.06 691.157 27.2667 691.864 27.68C692.584 28.0933 693.144 28.68 693.544 29.44C693.944 30.1867 694.144 31.08 694.144 32.12C694.144 32.8933 694.03 33.5933 693.804 34.22C693.577 34.8467 693.25 35.38 692.824 35.82C692.41 36.26 691.904 36.6 691.304 36.84C690.717 37.0667 690.064 37.18 689.344 37.18ZM689.344 35.62C689.89 35.62 690.37 35.4867 690.784 35.22C691.197 34.9533 691.517 34.56 691.744 34.04C691.984 33.52 692.104 32.88 692.104 32.12C692.104 30.9733 691.85 30.1067 691.344 29.52C690.837 28.9333 690.17 28.64 689.344 28.64C688.784 28.64 688.297 28.7733 687.884 29.04C687.47 29.2933 687.144 29.68 686.904 30.2C686.677 30.72 686.564 31.36 686.564 32.12C686.564 33.2533 686.817 34.12 687.324 34.72C687.83 35.32 688.504 35.62 689.344 35.62ZM696.912 37.14C696.592 37.14 696.346 37.0533 696.172 36.88C695.999 36.6933 695.912 36.44 695.912 36.12V28.12C695.912 27.7867 695.999 27.5333 696.172 27.36C696.346 27.1867 696.586 27.1 696.892 27.1C697.212 27.1 697.452 27.1867 697.612 27.36C697.786 27.5333 697.872 27.7867 697.872 28.12V29.68L697.652 29.32C697.946 28.5733 698.406 28.0133 699.032 27.64C699.659 27.2533 700.379 27.06 701.192 27.06C701.966 27.06 702.606 27.2067 703.112 27.5C703.632 27.78 704.019 28.2133 704.272 28.8C704.526 29.3733 704.652 30.1 704.652 30.98V36.12C704.652 36.44 704.566 36.6933 704.392 36.88C704.219 37.0533 703.972 37.14 703.652 37.14C703.319 37.14 703.066 37.0533 702.892 36.88C702.719 36.6933 702.632 36.44 702.632 36.12V31.1C702.632 30.26 702.466 29.6467 702.132 29.26C701.812 28.8733 701.306 28.68 700.612 28.68C699.799 28.68 699.146 28.9333 698.652 29.44C698.172 29.9467 697.932 30.6267 697.932 31.48V36.12C697.932 36.8 697.592 37.14 696.912 37.14Z" fill="#201F1F"/>
<path d="M579.5 60.5H1159" stroke="#CDCCCB"/>
<rect width="579.5" height="49" transform="translate(579.5 61)" fill="white"/>
<path d="M596.008 87.5625V86.1484H600.328V87.5625H596.008Z" fill="#3E3E3D"/>
<g opacity="0.5">
<path d="M579.5 109.5H1159" stroke="#CDCCCB"/>
</g>
<rect width="579.5" height="49" transform="translate(579.5 110)" fill="white"/>
<path d="M596.219 136.32L597.648 136.195C597.716 136.768 597.872 137.24 598.117 137.609C598.367 137.974 598.753 138.271 599.273 138.5C599.794 138.724 600.38 138.836 601.031 138.836C601.609 138.836 602.12 138.75 602.562 138.578C603.005 138.406 603.333 138.172 603.547 137.875C603.766 137.573 603.875 137.245 603.875 136.891C603.875 136.531 603.771 136.219 603.562 135.953C603.354 135.682 603.01 135.456 602.531 135.273C602.224 135.154 601.544 134.969 600.492 134.719C599.44 134.464 598.703 134.224 598.281 134C597.734 133.714 597.326 133.359 597.055 132.938C596.789 132.51 596.656 132.034 596.656 131.508C596.656 130.93 596.82 130.391 597.148 129.891C597.477 129.385 597.956 129.003 598.586 128.742C599.216 128.482 599.917 128.352 600.688 128.352C601.536 128.352 602.284 128.49 602.93 128.766C603.581 129.036 604.081 129.438 604.43 129.969C604.779 130.5 604.966 131.102 604.992 131.773L603.539 131.883C603.461 131.159 603.195 130.612 602.742 130.242C602.294 129.872 601.63 129.688 600.75 129.688C599.833 129.688 599.164 129.857 598.742 130.195C598.326 130.529 598.117 130.932 598.117 131.406C598.117 131.818 598.266 132.156 598.562 132.422C598.854 132.688 599.615 132.961 600.844 133.242C602.078 133.518 602.924 133.76 603.383 133.969C604.049 134.276 604.542 134.667 604.859 135.141C605.177 135.609 605.336 136.151 605.336 136.766C605.336 137.375 605.161 137.951 604.812 138.492C604.464 139.029 603.961 139.448 603.305 139.75C602.654 140.047 601.919 140.195 601.102 140.195C600.065 140.195 599.195 140.044 598.492 139.742C597.794 139.44 597.245 138.987 596.844 138.383C596.448 137.773 596.24 137.086 596.219 136.32ZM607.234 130.164V128.547H608.641V130.164H607.234ZM607.234 140V131.703H608.641V140H607.234ZM615.242 143.18V131.703H616.523V132.781C616.826 132.359 617.167 132.044 617.547 131.836C617.927 131.622 618.388 131.516 618.93 131.516C619.638 131.516 620.263 131.698 620.805 132.062C621.346 132.427 621.755 132.943 622.031 133.609C622.307 134.271 622.445 134.997 622.445 135.789C622.445 136.638 622.292 137.404 621.984 138.086C621.682 138.763 621.24 139.284 620.656 139.648C620.078 140.008 619.469 140.188 618.828 140.188C618.359 140.188 617.938 140.089 617.562 139.891C617.193 139.693 616.888 139.443 616.648 139.141V143.18H615.242ZM616.516 135.898C616.516 136.966 616.732 137.755 617.164 138.266C617.596 138.776 618.12 139.031 618.734 139.031C619.359 139.031 619.893 138.768 620.336 138.242C620.784 137.711 621.008 136.891 621.008 135.781C621.008 134.724 620.789 133.932 620.352 133.406C619.919 132.88 619.401 132.617 618.797 132.617C618.198 132.617 617.667 132.898 617.203 133.461C616.745 134.018 616.516 134.831 616.516 135.898ZM624.133 140V131.703H625.398V132.961C625.721 132.372 626.018 131.984 626.289 131.797C626.565 131.609 626.867 131.516 627.195 131.516C627.669 131.516 628.151 131.667 628.641 131.969L628.156 133.273C627.812 133.07 627.469 132.969 627.125 132.969C626.818 132.969 626.542 133.062 626.297 133.25C626.052 133.432 625.878 133.688 625.773 134.016C625.617 134.516 625.539 135.062 625.539 135.656V140H624.133ZM635.156 137.328L636.609 137.508C636.38 138.357 635.956 139.016 635.336 139.484C634.716 139.953 633.924 140.188 632.961 140.188C631.747 140.188 630.784 139.815 630.07 139.07C629.362 138.32 629.008 137.271 629.008 135.922C629.008 134.526 629.367 133.443 630.086 132.672C630.805 131.901 631.737 131.516 632.883 131.516C633.992 131.516 634.898 131.893 635.602 132.648C636.305 133.404 636.656 134.466 636.656 135.836C636.656 135.919 636.654 136.044 636.648 136.211H630.461C630.513 137.122 630.771 137.82 631.234 138.305C631.698 138.789 632.276 139.031 632.969 139.031C633.484 139.031 633.924 138.896 634.289 138.625C634.654 138.354 634.943 137.922 635.156 137.328ZM630.539 135.055H635.172C635.109 134.357 634.932 133.833 634.641 133.484C634.193 132.943 633.612 132.672 632.898 132.672C632.253 132.672 631.708 132.888 631.266 133.32C630.828 133.753 630.586 134.331 630.539 135.055ZM632.055 130.672L633.094 128.484H634.938L633.219 130.672H632.055ZM637.82 137.523L639.211 137.305C639.289 137.862 639.505 138.289 639.859 138.586C640.219 138.883 640.719 139.031 641.359 139.031C642.005 139.031 642.484 138.901 642.797 138.641C643.109 138.375 643.266 138.065 643.266 137.711C643.266 137.393 643.128 137.143 642.852 136.961C642.659 136.836 642.18 136.677 641.414 136.484C640.383 136.224 639.667 136 639.266 135.812C638.87 135.62 638.568 135.357 638.359 135.023C638.156 134.685 638.055 134.312 638.055 133.906C638.055 133.536 638.138 133.195 638.305 132.883C638.477 132.565 638.708 132.302 639 132.094C639.219 131.932 639.516 131.797 639.891 131.688C640.271 131.573 640.677 131.516 641.109 131.516C641.76 131.516 642.331 131.609 642.82 131.797C643.315 131.984 643.68 132.24 643.914 132.562C644.148 132.88 644.31 133.307 644.398 133.844L643.023 134.031C642.961 133.604 642.779 133.271 642.477 133.031C642.18 132.792 641.758 132.672 641.211 132.672C640.565 132.672 640.104 132.779 639.828 132.992C639.552 133.206 639.414 133.456 639.414 133.742C639.414 133.924 639.471 134.089 639.586 134.234C639.701 134.385 639.88 134.51 640.125 134.609C640.266 134.661 640.68 134.781 641.367 134.969C642.362 135.234 643.055 135.453 643.445 135.625C643.841 135.792 644.151 136.036 644.375 136.359C644.599 136.682 644.711 137.083 644.711 137.562C644.711 138.031 644.573 138.474 644.297 138.891C644.026 139.302 643.633 139.622 643.117 139.852C642.602 140.076 642.018 140.188 641.367 140.188C640.289 140.188 639.466 139.964 638.898 139.516C638.336 139.068 637.977 138.404 637.82 137.523ZM652.062 137.328L653.516 137.508C653.286 138.357 652.862 139.016 652.242 139.484C651.622 139.953 650.831 140.188 649.867 140.188C648.654 140.188 647.69 139.815 646.977 139.07C646.268 138.32 645.914 137.271 645.914 135.922C645.914 134.526 646.273 133.443 646.992 132.672C647.711 131.901 648.643 131.516 649.789 131.516C650.898 131.516 651.805 131.893 652.508 132.648C653.211 133.404 653.562 134.466 653.562 135.836C653.562 135.919 653.56 136.044 653.555 136.211H647.367C647.419 137.122 647.677 137.82 648.141 138.305C648.604 138.789 649.182 139.031 649.875 139.031C650.391 139.031 650.831 138.896 651.195 138.625C651.56 138.354 651.849 137.922 652.062 137.328ZM647.445 135.055H652.078C652.016 134.357 651.839 133.833 651.547 133.484C651.099 132.943 650.518 132.672 649.805 132.672C649.159 132.672 648.615 132.888 648.172 133.32C647.734 133.753 647.492 134.331 647.445 135.055ZM655.289 140V131.703H656.555V132.883C657.164 131.971 658.044 131.516 659.195 131.516C659.695 131.516 660.154 131.607 660.57 131.789C660.992 131.966 661.307 132.201 661.516 132.492C661.724 132.784 661.87 133.13 661.953 133.531C662.005 133.792 662.031 134.247 662.031 134.898V140H660.625V134.953C660.625 134.38 660.57 133.953 660.461 133.672C660.352 133.385 660.156 133.159 659.875 132.992C659.599 132.82 659.273 132.734 658.898 132.734C658.299 132.734 657.781 132.924 657.344 133.305C656.911 133.685 656.695 134.406 656.695 135.469V140H655.289ZM667.266 138.742L667.469 139.984C667.073 140.068 666.719 140.109 666.406 140.109C665.896 140.109 665.5 140.029 665.219 139.867C664.938 139.706 664.74 139.495 664.625 139.234C664.51 138.969 664.453 138.414 664.453 137.57V132.797H663.422V131.703H664.453V129.648L665.852 128.805V131.703H667.266V132.797H665.852V137.648C665.852 138.049 665.875 138.307 665.922 138.422C665.974 138.536 666.055 138.628 666.164 138.695C666.279 138.763 666.44 138.797 666.648 138.797C666.805 138.797 667.01 138.779 667.266 138.742ZM669.016 140V138.398H670.617V140C670.617 140.589 670.513 141.062 670.305 141.422C670.096 141.786 669.766 142.068 669.312 142.266L668.922 141.664C669.219 141.534 669.438 141.341 669.578 141.086C669.719 140.836 669.797 140.474 669.812 140H669.016ZM677.523 140V128.547H678.93V140H677.523ZM686.797 137.328L688.25 137.508C688.021 138.357 687.596 139.016 686.977 139.484C686.357 139.953 685.565 140.188 684.602 140.188C683.388 140.188 682.424 139.815 681.711 139.07C681.003 138.32 680.648 137.271 680.648 135.922C680.648 134.526 681.008 133.443 681.727 132.672C682.445 131.901 683.378 131.516 684.523 131.516C685.633 131.516 686.539 131.893 687.242 132.648C687.945 133.404 688.297 134.466 688.297 135.836C688.297 135.919 688.294 136.044 688.289 136.211H682.102C682.154 137.122 682.411 137.82 682.875 138.305C683.339 138.789 683.917 139.031 684.609 139.031C685.125 139.031 685.565 138.896 685.93 138.625C686.294 138.354 686.583 137.922 686.797 137.328ZM682.18 135.055H686.812C686.75 134.357 686.573 133.833 686.281 133.484C685.833 132.943 685.253 132.672 684.539 132.672C683.893 132.672 683.349 132.888 682.906 133.32C682.469 133.753 682.227 134.331 682.18 135.055ZM697.547 138.742L697.75 139.984C697.354 140.068 697 140.109 696.688 140.109C696.177 140.109 695.781 140.029 695.5 139.867C695.219 139.706 695.021 139.495 694.906 139.234C694.792 138.969 694.734 138.414 694.734 137.57V132.797H693.703V131.703H694.734V129.648L696.133 128.805V131.703H697.547V132.797H696.133V137.648C696.133 138.049 696.156 138.307 696.203 138.422C696.255 138.536 696.336 138.628 696.445 138.695C696.56 138.763 696.721 138.797 696.93 138.797C697.086 138.797 697.292 138.779 697.547 138.742ZM704.609 137.328L706.062 137.508C705.833 138.357 705.409 139.016 704.789 139.484C704.169 139.953 703.378 140.188 702.414 140.188C701.201 140.188 700.237 139.815 699.523 139.07C698.815 138.32 698.461 137.271 698.461 135.922C698.461 134.526 698.82 133.443 699.539 132.672C700.258 131.901 701.19 131.516 702.336 131.516C703.445 131.516 704.352 131.893 705.055 132.648C705.758 133.404 706.109 134.466 706.109 135.836C706.109 135.919 706.107 136.044 706.102 136.211H699.914C699.966 137.122 700.224 137.82 700.688 138.305C701.151 138.789 701.729 139.031 702.422 139.031C702.938 139.031 703.378 138.896 703.742 138.625C704.107 138.354 704.396 137.922 704.609 137.328ZM699.992 135.055H704.625C704.562 134.357 704.385 133.833 704.094 133.484C703.646 132.943 703.065 132.672 702.352 132.672C701.706 132.672 701.161 132.888 700.719 133.32C700.281 133.753 700.039 134.331 699.992 135.055ZM706.898 140L709.93 135.688L707.125 131.703H708.883L710.156 133.648C710.396 134.018 710.589 134.328 710.734 134.578C710.964 134.234 711.174 133.93 711.367 133.664L712.766 131.703H714.445L711.578 135.609L714.664 140H712.938L711.234 137.422L710.781 136.727L708.602 140H706.898ZM718.906 138.742L719.109 139.984C718.714 140.068 718.359 140.109 718.047 140.109C717.536 140.109 717.141 140.029 716.859 139.867C716.578 139.706 716.38 139.495 716.266 139.234C716.151 138.969 716.094 138.414 716.094 137.57V132.797H715.062V131.703H716.094V129.648L717.492 128.805V131.703H718.906V132.797H717.492V137.648C717.492 138.049 717.516 138.307 717.562 138.422C717.615 138.536 717.695 138.628 717.805 138.695C717.919 138.763 718.081 138.797 718.289 138.797C718.445 138.797 718.651 138.779 718.906 138.742ZM725.969 137.328L727.422 137.508C727.193 138.357 726.768 139.016 726.148 139.484C725.529 139.953 724.737 140.188 723.773 140.188C722.56 140.188 721.596 139.815 720.883 139.07C720.174 138.32 719.82 137.271 719.82 135.922C719.82 134.526 720.18 133.443 720.898 132.672C721.617 131.901 722.549 131.516 723.695 131.516C724.805 131.516 725.711 131.893 726.414 132.648C727.117 133.404 727.469 134.466 727.469 135.836C727.469 135.919 727.466 136.044 727.461 136.211H721.273C721.326 137.122 721.583 137.82 722.047 138.305C722.51 138.789 723.089 139.031 723.781 139.031C724.297 139.031 724.737 138.896 725.102 138.625C725.466 138.354 725.755 137.922 725.969 137.328ZM721.352 135.055H725.984C725.922 134.357 725.745 133.833 725.453 133.484C725.005 132.943 724.424 132.672 723.711 132.672C723.065 132.672 722.521 132.888 722.078 133.32C721.641 133.753 721.398 134.331 721.352 135.055ZM733.648 140V131.703H734.914V132.883C735.523 131.971 736.404 131.516 737.555 131.516C738.055 131.516 738.513 131.607 738.93 131.789C739.352 131.966 739.667 132.201 739.875 132.492C740.083 132.784 740.229 133.13 740.312 133.531C740.365 133.792 740.391 134.247 740.391 134.898V140H738.984V134.953C738.984 134.38 738.93 133.953 738.82 133.672C738.711 133.385 738.516 133.159 738.234 132.992C737.958 132.82 737.633 132.734 737.258 132.734C736.659 132.734 736.141 132.924 735.703 133.305C735.271 133.685 735.055 134.406 735.055 135.469V140H733.648ZM748.234 137.328L749.688 137.508C749.458 138.357 749.034 139.016 748.414 139.484C747.794 139.953 747.003 140.188 746.039 140.188C744.826 140.188 743.862 139.815 743.148 139.07C742.44 138.32 742.086 137.271 742.086 135.922C742.086 134.526 742.445 133.443 743.164 132.672C743.883 131.901 744.815 131.516 745.961 131.516C747.07 131.516 747.977 131.893 748.68 132.648C749.383 133.404 749.734 134.466 749.734 135.836C749.734 135.919 749.732 136.044 749.727 136.211H743.539C743.591 137.122 743.849 137.82 744.312 138.305C744.776 138.789 745.354 139.031 746.047 139.031C746.562 139.031 747.003 138.896 747.367 138.625C747.732 138.354 748.021 137.922 748.234 137.328ZM743.617 135.055H748.25C748.188 134.357 748.01 133.833 747.719 133.484C747.271 132.943 746.69 132.672 745.977 132.672C745.331 132.672 744.786 132.888 744.344 133.32C743.906 133.753 743.664 134.331 743.617 135.055ZM761.297 140V138.953C760.771 139.776 759.997 140.188 758.977 140.188C758.315 140.188 757.706 140.005 757.148 139.641C756.596 139.276 756.167 138.768 755.859 138.117C755.557 137.461 755.406 136.708 755.406 135.859C755.406 135.031 755.544 134.281 755.82 133.609C756.096 132.932 756.51 132.414 757.062 132.055C757.615 131.695 758.232 131.516 758.914 131.516C759.414 131.516 759.859 131.622 760.25 131.836C760.641 132.044 760.958 132.318 761.203 132.656V128.547H762.602V140H761.297ZM756.852 135.859C756.852 136.922 757.076 137.716 757.523 138.242C757.971 138.768 758.5 139.031 759.109 139.031C759.724 139.031 760.245 138.781 760.672 138.281C761.104 137.776 761.32 137.008 761.32 135.977C761.32 134.841 761.102 134.008 760.664 133.477C760.227 132.945 759.688 132.68 759.047 132.68C758.422 132.68 757.898 132.935 757.477 133.445C757.06 133.956 756.852 134.76 756.852 135.859ZM764.297 135.852C764.297 134.315 764.724 133.177 765.578 132.438C766.292 131.823 767.161 131.516 768.188 131.516C769.328 131.516 770.26 131.891 770.984 132.641C771.708 133.385 772.07 134.417 772.07 135.734C772.07 136.802 771.909 137.643 771.586 138.258C771.268 138.867 770.802 139.341 770.188 139.68C769.578 140.018 768.911 140.188 768.188 140.188C767.026 140.188 766.086 139.815 765.367 139.07C764.654 138.326 764.297 137.253 764.297 135.852ZM765.742 135.852C765.742 136.914 765.974 137.711 766.438 138.242C766.901 138.768 767.484 139.031 768.188 139.031C768.885 139.031 769.466 138.766 769.93 138.234C770.393 137.703 770.625 136.893 770.625 135.805C770.625 134.779 770.391 134.003 769.922 133.477C769.458 132.945 768.88 132.68 768.188 132.68C767.484 132.68 766.901 132.943 766.438 133.469C765.974 133.995 765.742 134.789 765.742 135.852ZM773.734 130.164V128.547H775.141V130.164H773.734ZM773.734 140V131.703H775.141V140H773.734ZM780.359 138.742L780.562 139.984C780.167 140.068 779.812 140.109 779.5 140.109C778.99 140.109 778.594 140.029 778.312 139.867C778.031 139.706 777.833 139.495 777.719 139.234C777.604 138.969 777.547 138.414 777.547 137.57V132.797H776.516V131.703H777.547V129.648L778.945 128.805V131.703H780.359V132.797H778.945V137.648C778.945 138.049 778.969 138.307 779.016 138.422C779.068 138.536 779.148 138.628 779.258 138.695C779.372 138.763 779.534 138.797 779.742 138.797C779.898 138.797 780.104 138.779 780.359 138.742ZM786.195 143.18V131.703H787.477V132.781C787.779 132.359 788.12 132.044 788.5 131.836C788.88 131.622 789.341 131.516 789.883 131.516C790.591 131.516 791.216 131.698 791.758 132.062C792.299 132.427 792.708 132.943 792.984 133.609C793.26 134.271 793.398 134.997 793.398 135.789C793.398 136.638 793.245 137.404 792.938 138.086C792.635 138.763 792.193 139.284 791.609 139.648C791.031 140.008 790.422 140.188 789.781 140.188C789.312 140.188 788.891 140.089 788.516 139.891C788.146 139.693 787.841 139.443 787.602 139.141V143.18H786.195ZM787.469 135.898C787.469 136.966 787.685 137.755 788.117 138.266C788.549 138.776 789.073 139.031 789.688 139.031C790.312 139.031 790.846 138.768 791.289 138.242C791.737 137.711 791.961 136.891 791.961 135.781C791.961 134.724 791.742 133.932 791.305 133.406C790.872 132.88 790.354 132.617 789.75 132.617C789.151 132.617 788.62 132.898 788.156 133.461C787.698 134.018 787.469 134.831 787.469 135.898ZM800.516 138.977C799.995 139.419 799.492 139.732 799.008 139.914C798.529 140.096 798.013 140.188 797.461 140.188C796.549 140.188 795.849 139.966 795.359 139.523C794.87 139.076 794.625 138.505 794.625 137.812C794.625 137.406 794.716 137.036 794.898 136.703C795.086 136.365 795.328 136.094 795.625 135.891C795.927 135.688 796.266 135.534 796.641 135.43C796.917 135.357 797.333 135.286 797.891 135.219C799.026 135.083 799.862 134.922 800.398 134.734C800.404 134.542 800.406 134.419 800.406 134.367C800.406 133.794 800.273 133.391 800.008 133.156C799.648 132.839 799.115 132.68 798.406 132.68C797.745 132.68 797.255 132.797 796.938 133.031C796.625 133.26 796.393 133.669 796.242 134.258L794.867 134.07C794.992 133.482 795.198 133.008 795.484 132.648C795.771 132.284 796.185 132.005 796.727 131.812C797.268 131.615 797.896 131.516 798.609 131.516C799.318 131.516 799.893 131.599 800.336 131.766C800.779 131.932 801.104 132.143 801.312 132.398C801.521 132.648 801.667 132.966 801.75 133.352C801.797 133.591 801.82 134.023 801.82 134.648V136.523C801.82 137.831 801.849 138.659 801.906 139.008C801.969 139.352 802.089 139.682 802.266 140H800.797C800.651 139.708 800.557 139.367 800.516 138.977ZM800.398 135.836C799.888 136.044 799.122 136.221 798.102 136.367C797.523 136.451 797.115 136.544 796.875 136.648C796.635 136.753 796.451 136.906 796.32 137.109C796.19 137.307 796.125 137.529 796.125 137.773C796.125 138.148 796.266 138.461 796.547 138.711C796.833 138.961 797.25 139.086 797.797 139.086C798.339 139.086 798.82 138.969 799.242 138.734C799.664 138.495 799.974 138.169 800.172 137.758C800.323 137.44 800.398 136.971 800.398 136.352V135.836ZM803.445 137.523L804.836 137.305C804.914 137.862 805.13 138.289 805.484 138.586C805.844 138.883 806.344 139.031 806.984 139.031C807.63 139.031 808.109 138.901 808.422 138.641C808.734 138.375 808.891 138.065 808.891 137.711C808.891 137.393 808.753 137.143 808.477 136.961C808.284 136.836 807.805 136.677 807.039 136.484C806.008 136.224 805.292 136 804.891 135.812C804.495 135.62 804.193 135.357 803.984 135.023C803.781 134.685 803.68 134.312 803.68 133.906C803.68 133.536 803.763 133.195 803.93 132.883C804.102 132.565 804.333 132.302 804.625 132.094C804.844 131.932 805.141 131.797 805.516 131.688C805.896 131.573 806.302 131.516 806.734 131.516C807.385 131.516 807.956 131.609 808.445 131.797C808.94 131.984 809.305 132.24 809.539 132.562C809.773 132.88 809.935 133.307 810.023 133.844L808.648 134.031C808.586 133.604 808.404 133.271 808.102 133.031C807.805 132.792 807.383 132.672 806.836 132.672C806.19 132.672 805.729 132.779 805.453 132.992C805.177 133.206 805.039 133.456 805.039 133.742C805.039 133.924 805.096 134.089 805.211 134.234C805.326 134.385 805.505 134.51 805.75 134.609C805.891 134.661 806.305 134.781 806.992 134.969C807.987 135.234 808.68 135.453 809.07 135.625C809.466 135.792 809.776 136.036 810 136.359C810.224 136.682 810.336 137.083 810.336 137.562C810.336 138.031 810.198 138.474 809.922 138.891C809.651 139.302 809.258 139.622 808.742 139.852C808.227 140.076 807.643 140.188 806.992 140.188C805.914 140.188 805.091 139.964 804.523 139.516C803.961 139.068 803.602 138.404 803.445 137.523ZM822.141 137.328L823.594 137.508C823.365 138.357 822.94 139.016 822.32 139.484C821.701 139.953 820.909 140.188 819.945 140.188C818.732 140.188 817.768 139.815 817.055 139.07C816.346 138.32 815.992 137.271 815.992 135.922C815.992 134.526 816.352 133.443 817.07 132.672C817.789 131.901 818.721 131.516 819.867 131.516C820.977 131.516 821.883 131.893 822.586 132.648C823.289 133.404 823.641 134.466 823.641 135.836C823.641 135.919 823.638 136.044 823.633 136.211H817.445C817.497 137.122 817.755 137.82 818.219 138.305C818.682 138.789 819.26 139.031 819.953 139.031C820.469 139.031 820.909 138.896 821.273 138.625C821.638 138.354 821.927 137.922 822.141 137.328ZM817.523 135.055H822.156C822.094 134.357 821.917 133.833 821.625 133.484C821.177 132.943 820.596 132.672 819.883 132.672C819.237 132.672 818.693 132.888 818.25 133.32C817.812 133.753 817.57 134.331 817.523 135.055ZM825.367 140V131.703H826.625V132.867C826.885 132.461 827.232 132.135 827.664 131.891C828.096 131.641 828.589 131.516 829.141 131.516C829.755 131.516 830.258 131.643 830.648 131.898C831.044 132.154 831.323 132.51 831.484 132.969C832.141 132 832.995 131.516 834.047 131.516C834.87 131.516 835.503 131.745 835.945 132.203C836.388 132.656 836.609 133.357 836.609 134.305V140H835.211V134.773C835.211 134.211 835.164 133.807 835.07 133.562C834.982 133.312 834.818 133.112 834.578 132.961C834.339 132.81 834.057 132.734 833.734 132.734C833.151 132.734 832.667 132.93 832.281 133.32C831.896 133.706 831.703 134.326 831.703 135.18V140H830.297V134.609C830.297 133.984 830.182 133.516 829.953 133.203C829.724 132.891 829.349 132.734 828.828 132.734C828.432 132.734 828.065 132.839 827.727 133.047C827.393 133.255 827.151 133.56 827 133.961C826.849 134.362 826.773 134.94 826.773 135.695V140H825.367ZM838.695 143.18V131.703H839.977V132.781C840.279 132.359 840.62 132.044 841 131.836C841.38 131.622 841.841 131.516 842.383 131.516C843.091 131.516 843.716 131.698 844.258 132.062C844.799 132.427 845.208 132.943 845.484 133.609C845.76 134.271 845.898 134.997 845.898 135.789C845.898 136.638 845.745 137.404 845.438 138.086C845.135 138.763 844.693 139.284 844.109 139.648C843.531 140.008 842.922 140.188 842.281 140.188C841.812 140.188 841.391 140.089 841.016 139.891C840.646 139.693 840.341 139.443 840.102 139.141V143.18H838.695ZM839.969 135.898C839.969 136.966 840.185 137.755 840.617 138.266C841.049 138.776 841.573 139.031 842.188 139.031C842.812 139.031 843.346 138.768 843.789 138.242C844.237 137.711 844.461 136.891 844.461 135.781C844.461 134.724 844.242 133.932 843.805 133.406C843.372 132.88 842.854 132.617 842.25 132.617C841.651 132.617 841.12 132.898 840.656 133.461C840.198 134.018 839.969 134.831 839.969 135.898ZM853.281 137.328L854.734 137.508C854.505 138.357 854.081 139.016 853.461 139.484C852.841 139.953 852.049 140.188 851.086 140.188C849.872 140.188 848.909 139.815 848.195 139.07C847.487 138.32 847.133 137.271 847.133 135.922C847.133 134.526 847.492 133.443 848.211 132.672C848.93 131.901 849.862 131.516 851.008 131.516C852.117 131.516 853.023 131.893 853.727 132.648C854.43 133.404 854.781 134.466 854.781 135.836C854.781 135.919 854.779 136.044 854.773 136.211H848.586C848.638 137.122 848.896 137.82 849.359 138.305C849.823 138.789 850.401 139.031 851.094 139.031C851.609 139.031 852.049 138.896 852.414 138.625C852.779 138.354 853.068 137.922 853.281 137.328ZM848.664 135.055H853.297C853.234 134.357 853.057 133.833 852.766 133.484C852.318 132.943 851.737 132.672 851.023 132.672C850.378 132.672 849.833 132.888 849.391 133.32C848.953 133.753 848.711 134.331 848.664 135.055ZM850.977 129.344L850.094 130.672H848.484L850.172 128.484H851.672L853.43 130.672H851.836L850.977 129.344ZM861.922 136.961L863.305 137.141C863.154 138.094 862.766 138.841 862.141 139.383C861.521 139.919 860.758 140.188 859.852 140.188C858.716 140.188 857.802 139.818 857.109 139.078C856.422 138.333 856.078 137.268 856.078 135.883C856.078 134.987 856.227 134.203 856.523 133.531C856.82 132.859 857.271 132.357 857.875 132.023C858.484 131.685 859.146 131.516 859.859 131.516C860.76 131.516 861.497 131.745 862.07 132.203C862.643 132.656 863.01 133.302 863.172 134.141L861.805 134.352C861.674 133.794 861.443 133.375 861.109 133.094C860.781 132.812 860.383 132.672 859.914 132.672C859.206 132.672 858.63 132.927 858.188 133.438C857.745 133.943 857.523 134.745 857.523 135.844C857.523 136.958 857.737 137.768 858.164 138.273C858.591 138.779 859.148 139.031 859.836 139.031C860.388 139.031 860.849 138.862 861.219 138.523C861.589 138.185 861.823 137.664 861.922 136.961ZM864.508 140V128.547H865.914V132.656C866.57 131.896 867.398 131.516 868.398 131.516C869.013 131.516 869.547 131.638 870 131.883C870.453 132.122 870.776 132.456 870.969 132.883C871.167 133.31 871.266 133.93 871.266 134.742V140H869.859V134.742C869.859 134.039 869.706 133.529 869.398 133.211C869.096 132.888 868.667 132.727 868.109 132.727C867.693 132.727 867.299 132.836 866.93 133.055C866.565 133.268 866.305 133.56 866.148 133.93C865.992 134.299 865.914 134.81 865.914 135.461V140H864.508ZM879.094 137.328L880.547 137.508C880.318 138.357 879.893 139.016 879.273 139.484C878.654 139.953 877.862 140.188 876.898 140.188C875.685 140.188 874.721 139.815 874.008 139.07C873.299 138.32 872.945 137.271 872.945 135.922C872.945 134.526 873.305 133.443 874.023 132.672C874.742 131.901 875.674 131.516 876.82 131.516C877.93 131.516 878.836 131.893 879.539 132.648C880.242 133.404 880.594 134.466 880.594 135.836C880.594 135.919 880.591 136.044 880.586 136.211H874.398C874.451 137.122 874.708 137.82 875.172 138.305C875.635 138.789 876.214 139.031 876.906 139.031C877.422 139.031 877.862 138.896 878.227 138.625C878.591 138.354 878.88 137.922 879.094 137.328ZM874.477 135.055H879.109C879.047 134.357 878.87 133.833 878.578 133.484C878.13 132.943 877.549 132.672 876.836 132.672C876.19 132.672 875.646 132.888 875.203 133.32C874.766 133.753 874.523 134.331 874.477 135.055ZM882.305 140V131.703H883.57V132.961C883.893 132.372 884.19 131.984 884.461 131.797C884.737 131.609 885.039 131.516 885.367 131.516C885.841 131.516 886.323 131.667 886.812 131.969L886.328 133.273C885.984 133.07 885.641 132.969 885.297 132.969C884.99 132.969 884.714 133.062 884.469 133.25C884.224 133.432 884.049 133.688 883.945 134.016C883.789 134.516 883.711 135.062 883.711 135.656V140H882.305ZM892.07 140V128.547H893.477V140H892.07ZM895.578 130.062V128.43H897.086V129.719C897.086 130.417 897.005 130.919 896.844 131.227C896.62 131.648 896.271 131.966 895.797 132.18L895.453 131.625C895.734 131.51 895.943 131.331 896.078 131.086C896.219 130.836 896.297 130.495 896.312 130.062H895.578ZM899.234 130.164V128.547H900.641V130.164H899.234ZM899.234 140V131.703H900.641V140H899.234ZM902.789 140V131.703H904.055V132.883C904.664 131.971 905.544 131.516 906.695 131.516C907.195 131.516 907.654 131.607 908.07 131.789C908.492 131.966 908.807 132.201 909.016 132.492C909.224 132.784 909.37 133.13 909.453 133.531C909.505 133.792 909.531 134.247 909.531 134.898V140H908.125V134.953C908.125 134.38 908.07 133.953 907.961 133.672C907.852 133.385 907.656 133.159 907.375 132.992C907.099 132.82 906.773 132.734 906.398 132.734C905.799 132.734 905.281 132.924 904.844 133.305C904.411 133.685 904.195 134.406 904.195 135.469V140H902.789ZM914.766 138.742L914.969 139.984C914.573 140.068 914.219 140.109 913.906 140.109C913.396 140.109 913 140.029 912.719 139.867C912.438 139.706 912.24 139.495 912.125 139.234C912.01 138.969 911.953 138.414 911.953 137.57V132.797H910.922V131.703H911.953V129.648L913.352 128.805V131.703H914.766V132.797H913.352V137.648C913.352 138.049 913.375 138.307 913.422 138.422C913.474 138.536 913.555 138.628 913.664 138.695C913.779 138.763 913.94 138.797 914.148 138.797C914.305 138.797 914.51 138.779 914.766 138.742ZM921.828 137.328L923.281 137.508C923.052 138.357 922.628 139.016 922.008 139.484C921.388 139.953 920.596 140.188 919.633 140.188C918.419 140.188 917.456 139.815 916.742 139.07C916.034 138.32 915.68 137.271 915.68 135.922C915.68 134.526 916.039 133.443 916.758 132.672C917.477 131.901 918.409 131.516 919.555 131.516C920.664 131.516 921.57 131.893 922.273 132.648C922.977 133.404 923.328 134.466 923.328 135.836C923.328 135.919 923.326 136.044 923.32 136.211H917.133C917.185 137.122 917.443 137.82 917.906 138.305C918.37 138.789 918.948 139.031 919.641 139.031C920.156 139.031 920.596 138.896 920.961 138.625C921.326 138.354 921.615 137.922 921.828 137.328ZM917.211 135.055H921.844C921.781 134.357 921.604 133.833 921.312 133.484C920.865 132.943 920.284 132.672 919.57 132.672C918.924 132.672 918.38 132.888 917.938 133.32C917.5 133.753 917.258 134.331 917.211 135.055ZM925.039 140V131.703H926.305V132.961C926.628 132.372 926.924 131.984 927.195 131.797C927.471 131.609 927.773 131.516 928.102 131.516C928.576 131.516 929.057 131.667 929.547 131.969L929.062 133.273C928.719 133.07 928.375 132.969 928.031 132.969C927.724 132.969 927.448 133.062 927.203 133.25C926.958 133.432 926.784 133.688 926.68 134.016C926.523 134.516 926.445 135.062 926.445 135.656V140H925.039ZM935.797 138.977C935.276 139.419 934.773 139.732 934.289 139.914C933.81 140.096 933.294 140.188 932.742 140.188C931.831 140.188 931.13 139.966 930.641 139.523C930.151 139.076 929.906 138.505 929.906 137.812C929.906 137.406 929.997 137.036 930.18 136.703C930.367 136.365 930.609 136.094 930.906 135.891C931.208 135.688 931.547 135.534 931.922 135.43C932.198 135.357 932.615 135.286 933.172 135.219C934.307 135.083 935.143 134.922 935.68 134.734C935.685 134.542 935.688 134.419 935.688 134.367C935.688 133.794 935.555 133.391 935.289 133.156C934.93 132.839 934.396 132.68 933.688 132.68C933.026 132.68 932.536 132.797 932.219 133.031C931.906 133.26 931.674 133.669 931.523 134.258L930.148 134.07C930.273 133.482 930.479 133.008 930.766 132.648C931.052 132.284 931.466 132.005 932.008 131.812C932.549 131.615 933.177 131.516 933.891 131.516C934.599 131.516 935.174 131.599 935.617 131.766C936.06 131.932 936.385 132.143 936.594 132.398C936.802 132.648 936.948 132.966 937.031 133.352C937.078 133.591 937.102 134.023 937.102 134.648V136.523C937.102 137.831 937.13 138.659 937.188 139.008C937.25 139.352 937.37 139.682 937.547 140H936.078C935.932 139.708 935.839 139.367 935.797 138.977ZM935.68 135.836C935.169 136.044 934.404 136.221 933.383 136.367C932.805 136.451 932.396 136.544 932.156 136.648C931.917 136.753 931.732 136.906 931.602 137.109C931.471 137.307 931.406 137.529 931.406 137.773C931.406 138.148 931.547 138.461 931.828 138.711C932.115 138.961 932.531 139.086 933.078 139.086C933.62 139.086 934.102 138.969 934.523 138.734C934.945 138.495 935.255 138.169 935.453 137.758C935.604 137.44 935.68 136.971 935.68 136.352V135.836ZM944.703 136.961L946.086 137.141C945.935 138.094 945.547 138.841 944.922 139.383C944.302 139.919 943.539 140.188 942.633 140.188C941.497 140.188 940.583 139.818 939.891 139.078C939.203 138.333 938.859 137.268 938.859 135.883C938.859 134.987 939.008 134.203 939.305 133.531C939.602 132.859 940.052 132.357 940.656 132.023C941.266 131.685 941.927 131.516 942.641 131.516C943.542 131.516 944.279 131.745 944.852 132.203C945.424 132.656 945.792 133.302 945.953 134.141L944.586 134.352C944.456 133.794 944.224 133.375 943.891 133.094C943.562 132.812 943.164 132.672 942.695 132.672C941.987 132.672 941.411 132.927 940.969 133.438C940.526 133.943 940.305 134.745 940.305 135.844C940.305 136.958 940.518 137.768 940.945 138.273C941.372 138.779 941.93 139.031 942.617 139.031C943.169 139.031 943.63 138.862 944 138.523C944.37 138.185 944.604 137.664 944.703 136.961ZM950.359 138.742L950.562 139.984C950.167 140.068 949.812 140.109 949.5 140.109C948.99 140.109 948.594 140.029 948.312 139.867C948.031 139.706 947.833 139.495 947.719 139.234C947.604 138.969 947.547 138.414 947.547 137.57V132.797H946.516V131.703H947.547V129.648L948.945 128.805V131.703H950.359V132.797H948.945V137.648C948.945 138.049 948.969 138.307 949.016 138.422C949.068 138.536 949.148 138.628 949.258 138.695C949.372 138.763 949.534 138.797 949.742 138.797C949.898 138.797 950.104 138.779 950.359 138.742ZM951.75 130.164V128.547H953.156V130.164H951.75ZM951.75 140V131.703H953.156V140H951.75ZM954.781 135.852C954.781 134.315 955.208 133.177 956.062 132.438C956.776 131.823 957.646 131.516 958.672 131.516C959.812 131.516 960.745 131.891 961.469 132.641C962.193 133.385 962.555 134.417 962.555 135.734C962.555 136.802 962.393 137.643 962.07 138.258C961.753 138.867 961.286 139.341 960.672 139.68C960.062 140.018 959.396 140.188 958.672 140.188C957.51 140.188 956.57 139.815 955.852 139.07C955.138 138.326 954.781 137.253 954.781 135.852ZM956.227 135.852C956.227 136.914 956.458 137.711 956.922 138.242C957.385 138.768 957.969 139.031 958.672 139.031C959.37 139.031 959.951 138.766 960.414 138.234C960.878 137.703 961.109 136.893 961.109 135.805C961.109 134.779 960.875 134.003 960.406 133.477C959.943 132.945 959.365 132.68 958.672 132.68C957.969 132.68 957.385 132.943 956.922 133.469C956.458 133.995 956.227 134.789 956.227 135.852ZM964.211 140V131.703H965.477V132.883C966.086 131.971 966.966 131.516 968.117 131.516C968.617 131.516 969.076 131.607 969.492 131.789C969.914 131.966 970.229 132.201 970.438 132.492C970.646 132.784 970.792 133.13 970.875 133.531C970.927 133.792 970.953 134.247 970.953 134.898V140H969.547V134.953C969.547 134.38 969.492 133.953 969.383 133.672C969.273 133.385 969.078 133.159 968.797 132.992C968.521 132.82 968.195 132.734 967.82 132.734C967.221 132.734 966.703 132.924 966.266 133.305C965.833 133.685 965.617 134.406 965.617 135.469V140H964.211ZM983.25 137.328L984.703 137.508C984.474 138.357 984.049 139.016 983.43 139.484C982.81 139.953 982.018 140.188 981.055 140.188C979.841 140.188 978.878 139.815 978.164 139.07C977.456 138.32 977.102 137.271 977.102 135.922C977.102 134.526 977.461 133.443 978.18 132.672C978.898 131.901 979.831 131.516 980.977 131.516C982.086 131.516 982.992 131.893 983.695 132.648C984.398 133.404 984.75 134.466 984.75 135.836C984.75 135.919 984.747 136.044 984.742 136.211H978.555C978.607 137.122 978.865 137.82 979.328 138.305C979.792 138.789 980.37 139.031 981.062 139.031C981.578 139.031 982.018 138.896 982.383 138.625C982.747 138.354 983.036 137.922 983.25 137.328ZM978.633 135.055H983.266C983.203 134.357 983.026 133.833 982.734 133.484C982.286 132.943 981.706 132.672 980.992 132.672C980.346 132.672 979.802 132.888 979.359 133.32C978.922 133.753 978.68 134.331 978.633 135.055ZM985.539 140L988.57 135.688L985.766 131.703H987.523L988.797 133.648C989.036 134.018 989.229 134.328 989.375 134.578C989.604 134.234 989.815 133.93 990.008 133.664L991.406 131.703H993.086L990.219 135.609L993.305 140H991.578L989.875 137.422L989.422 136.727L987.242 140H985.539ZM997.547 138.742L997.75 139.984C997.354 140.068 997 140.109 996.688 140.109C996.177 140.109 995.781 140.029 995.5 139.867C995.219 139.706 995.021 139.495 994.906 139.234C994.792 138.969 994.734 138.414 994.734 137.57V132.797H993.703V131.703H994.734V129.648L996.133 128.805V131.703H997.547V132.797H996.133V137.648C996.133 138.049 996.156 138.307 996.203 138.422C996.255 138.536 996.336 138.628 996.445 138.695C996.56 138.763 996.721 138.797 996.93 138.797C997.086 138.797 997.292 138.779 997.547 138.742ZM1004.61 137.328L1006.06 137.508C1005.83 138.357 1005.41 139.016 1004.79 139.484C1004.17 139.953 1003.38 140.188 1002.41 140.188C1001.2 140.188 1000.24 139.815 999.523 139.07C998.815 138.32 998.461 137.271 998.461 135.922C998.461 134.526 998.82 133.443 999.539 132.672C1000.26 131.901 1001.19 131.516 1002.34 131.516C1003.45 131.516 1004.35 131.893 1005.05 132.648C1005.76 133.404 1006.11 134.466 1006.11 135.836C1006.11 135.919 1006.11 136.044 1006.1 136.211H999.914C999.966 137.122 1000.22 137.82 1000.69 138.305C1001.15 138.789 1001.73 139.031 1002.42 139.031C1002.94 139.031 1003.38 138.896 1003.74 138.625C1004.11 138.354 1004.4 137.922 1004.61 137.328ZM999.992 135.055H1004.62C1004.56 134.357 1004.39 133.833 1004.09 133.484C1003.65 132.943 1003.07 132.672 1002.35 132.672C1001.71 132.672 1001.16 132.888 1000.72 133.32C1000.28 133.753 1000.04 134.331 999.992 135.055ZM1007.82 140V131.703H1009.09V132.961C1009.41 132.372 1009.71 131.984 1009.98 131.797C1010.25 131.609 1010.55 131.516 1010.88 131.516C1011.36 131.516 1011.84 131.667 1012.33 131.969L1011.84 133.273C1011.5 133.07 1011.16 132.969 1010.81 132.969C1010.51 132.969 1010.23 133.062 1009.98 133.25C1009.74 133.432 1009.57 133.688 1009.46 134.016C1009.3 134.516 1009.23 135.062 1009.23 135.656V140H1007.82ZM1013.16 140V131.703H1014.43V132.883C1015.04 131.971 1015.92 131.516 1017.07 131.516C1017.57 131.516 1018.03 131.607 1018.45 131.789C1018.87 131.966 1019.18 132.201 1019.39 132.492C1019.6 132.784 1019.74 133.13 1019.83 133.531C1019.88 133.792 1019.91 134.247 1019.91 134.898V140H1018.5V134.953C1018.5 134.38 1018.45 133.953 1018.34 133.672C1018.23 133.385 1018.03 133.159 1017.75 132.992C1017.47 132.82 1017.15 132.734 1016.77 132.734C1016.17 132.734 1015.66 132.924 1015.22 133.305C1014.79 133.685 1014.57 134.406 1014.57 135.469V140H1013.16ZM1027.75 137.328L1029.2 137.508C1028.97 138.357 1028.55 139.016 1027.93 139.484C1027.31 139.953 1026.52 140.188 1025.55 140.188C1024.34 140.188 1023.38 139.815 1022.66 139.07C1021.96 138.32 1021.6 137.271 1021.6 135.922C1021.6 134.526 1021.96 133.443 1022.68 132.672C1023.4 131.901 1024.33 131.516 1025.48 131.516C1026.59 131.516 1027.49 131.893 1028.2 132.648C1028.9 133.404 1029.25 134.466 1029.25 135.836C1029.25 135.919 1029.25 136.044 1029.24 136.211H1023.05C1023.11 137.122 1023.36 137.82 1023.83 138.305C1024.29 138.789 1024.87 139.031 1025.56 139.031C1026.08 139.031 1026.52 138.896 1026.88 138.625C1027.25 138.354 1027.54 137.922 1027.75 137.328ZM1023.13 135.055H1027.77C1027.7 134.357 1027.53 133.833 1027.23 133.484C1026.79 132.943 1026.21 132.672 1025.49 132.672C1024.85 132.672 1024.3 132.888 1023.86 133.32C1023.42 133.753 1023.18 134.331 1023.13 135.055Z" fill="#3E3E3D"/>
<g opacity="0.5">
<path d="M579.5 158.5H1159" stroke="#CDCCCB"/>
</g>
</g>
<rect x="0.5" y="0.5" width="1158" height="158" rx="7.5" stroke="#CDCCCB"/>
<defs>
<clipPath id="clip0_364_48943">
<rect width="1159" height="159" rx="8" fill="white"/>
</clipPath>
</defs>
</svg>
