<svg width="1159" height="110" viewBox="0 0 1159 110" fill="none" xmlns="http://www.w3.org/2000/svg">
<g clip-path="url(#clip0_414_61655)">
<rect width="579.5" height="61" fill="white"/>
<path d="M18.68 37.14C18.3467 37.14 18.0867 37.0467 17.9 36.86C17.7267 36.6733 17.64 36.4133 17.64 36.08V23.96C17.64 23.6133 17.7333 23.3533 17.92 23.18C18.1067 22.9933 18.3667 22.9 18.7 22.9H23.48C25 22.9 26.1733 23.28 27 24.04C27.8267 24.7867 28.24 25.84 28.24 27.2C28.24 28.5733 27.8267 29.64 27 30.4C26.1733 31.1467 25 31.52 23.48 31.52H19.72V36.08C19.72 36.4133 19.6333 36.6733 19.46 36.86C19.2867 37.0467 19.0267 37.14 18.68 37.14ZM19.72 29.86H23.18C24.18 29.86 24.9333 29.64 25.44 29.2C25.96 28.7467 26.22 28.08 26.22 27.2C26.22 26.3333 25.96 25.68 25.44 25.24C24.9333 24.7867 24.18 24.56 23.18 24.56H19.72V29.86ZM33.5233 37.18C32.5366 37.18 31.6833 36.9733 30.9633 36.56C30.2566 36.1467 29.7033 35.56 29.3033 34.8C28.9033 34.04 28.7033 33.1467 28.7033 32.12C28.7033 31.3333 28.8166 30.6333 29.0433 30.02C29.2699 29.4067 29.5899 28.88 30.0033 28.44C30.4299 27.9867 30.9366 27.6467 31.5233 27.42C32.1233 27.18 32.7899 27.06 33.5233 27.06C34.4966 27.06 35.3366 27.2667 36.0433 27.68C36.7633 28.0933 37.3233 28.68 37.7233 29.44C38.1233 30.1867 38.3233 31.08 38.3233 32.12C38.3233 32.8933 38.2099 33.5933 37.9833 34.22C37.7566 34.8467 37.4299 35.38 37.0033 35.82C36.5899 36.26 36.0833 36.6 35.4833 36.84C34.8966 37.0667 34.2433 37.18 33.5233 37.18ZM33.5233 35.62C34.0699 35.62 34.5499 35.4867 34.9633 35.22C35.3766 34.9533 35.6966 34.56 35.9233 34.04C36.1633 33.52 36.2833 32.88 36.2833 32.12C36.2833 30.9733 36.0299 30.1067 35.5233 29.52C35.0166 28.9333 34.3499 28.64 33.5233 28.64C32.9633 28.64 32.4766 28.7733 32.0633 29.04C31.6499 29.2933 31.3233 29.68 31.0833 30.2C30.8566 30.72 30.7433 31.36 30.7433 32.12C30.7433 33.2533 30.9966 34.12 31.5033 34.72C32.0099 35.32 32.6833 35.62 33.5233 35.62ZM43.5119 37.18C42.9252 37.18 42.3185 37.1133 41.6919 36.98C41.0785 36.8467 40.5119 36.62 39.9919 36.3C39.8185 36.18 39.6985 36.0467 39.6319 35.9C39.5652 35.7533 39.5385 35.6067 39.5519 35.46C39.5785 35.3 39.6385 35.1667 39.7319 35.06C39.8385 34.94 39.9652 34.8667 40.1119 34.84C40.2719 34.8133 40.4385 34.8467 40.6119 34.94C41.1319 35.2333 41.6319 35.44 42.1119 35.56C42.5919 35.6667 43.0652 35.72 43.5319 35.72C44.2385 35.72 44.7719 35.5933 45.1319 35.34C45.4919 35.0867 45.6719 34.7467 45.6719 34.32C45.6719 33.9733 45.5519 33.7067 45.3119 33.52C45.0719 33.32 44.7119 33.1667 44.2319 33.06L42.3319 32.68C41.5052 32.5067 40.8785 32.2 40.4519 31.76C40.0252 31.32 39.8119 30.76 39.8119 30.08C39.8119 29.4667 39.9785 28.9333 40.3119 28.48C40.6452 28.0267 41.1119 27.68 41.7119 27.44C42.3119 27.1867 43.0052 27.06 43.7919 27.06C44.3785 27.06 44.9319 27.1333 45.4519 27.28C45.9719 27.4267 46.4519 27.6467 46.8919 27.94C47.0652 28.0333 47.1785 28.16 47.2319 28.32C47.2852 28.4667 47.2919 28.6133 47.2519 28.76C47.2252 28.9067 47.1585 29.04 47.0519 29.16C46.9452 29.2667 46.8119 29.3333 46.6519 29.36C46.5052 29.3733 46.3385 29.3333 46.1519 29.24C45.7519 28.9867 45.3519 28.8067 44.9519 28.7C44.5652 28.5933 44.1785 28.54 43.7919 28.54C43.0852 28.54 42.5519 28.6733 42.1919 28.94C41.8452 29.1933 41.6719 29.54 41.6719 29.98C41.6719 30.3133 41.7785 30.5867 41.9919 30.8C42.2052 31.0133 42.5385 31.1667 42.9919 31.26L44.8919 31.64C45.7585 31.8133 46.4119 32.1067 46.8519 32.52C47.3052 32.9333 47.5319 33.4933 47.5319 34.2C47.5319 35.12 47.1652 35.8467 46.4319 36.38C45.6985 36.9133 44.7252 37.18 43.5119 37.18ZM50.2794 37.12C49.9594 37.12 49.7127 37.0267 49.5394 36.84C49.366 36.64 49.2794 36.3667 49.2794 36.02V28.22C49.2794 27.8733 49.366 27.6067 49.5394 27.42C49.7127 27.2333 49.9594 27.14 50.2794 27.14C50.5994 27.14 50.846 27.2333 51.0194 27.42C51.206 27.6067 51.2994 27.8733 51.2994 28.22V36.02C51.2994 36.3667 51.2127 36.64 51.0394 36.84C50.866 37.0267 50.6127 37.12 50.2794 37.12ZM50.2794 25.06C49.8794 25.06 49.566 24.96 49.3394 24.76C49.126 24.56 49.0194 24.28 49.0194 23.92C49.0194 23.5467 49.126 23.2667 49.3394 23.08C49.566 22.88 49.8794 22.78 50.2794 22.78C50.6794 22.78 50.986 22.88 51.1994 23.08C51.426 23.2667 51.5394 23.5467 51.5394 23.92C51.5394 24.28 51.426 24.56 51.1994 24.76C50.986 24.96 50.6794 25.06 50.2794 25.06ZM57.8027 37.18C57.0027 37.18 56.3293 37.04 55.7827 36.76C55.236 36.48 54.8293 36.0667 54.5627 35.52C54.296 34.9733 54.1627 34.3067 54.1627 33.52V28.8H52.9627C52.696 28.8 52.4893 28.7333 52.3427 28.6C52.196 28.4533 52.1227 28.26 52.1227 28.02C52.1227 27.7667 52.196 27.5733 52.3427 27.44C52.4893 27.3067 52.696 27.24 52.9627 27.24H54.1627V25.18C54.1627 24.8467 54.2493 24.5933 54.4227 24.42C54.6093 24.2467 54.8627 24.16 55.1827 24.16C55.5027 24.16 55.7493 24.2467 55.9227 24.42C56.096 24.5933 56.1827 24.8467 56.1827 25.18V27.24H58.5227C58.7893 27.24 58.996 27.3067 59.1427 27.44C59.2893 27.5733 59.3627 27.7667 59.3627 28.02C59.3627 28.26 59.2893 28.4533 59.1427 28.6C58.996 28.7333 58.7893 28.8 58.5227 28.8H56.1827V33.36C56.1827 34.0667 56.3293 34.6 56.6227 34.96C56.9293 35.32 57.4227 35.5 58.1027 35.5C58.3427 35.5 58.5493 35.48 58.7227 35.44C58.9093 35.3867 59.0627 35.3533 59.1827 35.34C59.3293 35.34 59.4493 35.3933 59.5427 35.5C59.636 35.5933 59.6827 35.78 59.6827 36.06C59.6827 36.26 59.6427 36.4467 59.5627 36.62C59.496 36.7933 59.3693 36.9067 59.1827 36.96C59.0227 37.0133 58.8027 37.06 58.5227 37.1C58.256 37.1533 58.016 37.18 57.8027 37.18ZM61.6231 37.12C61.3031 37.12 61.0565 37.0267 60.8831 36.84C60.7098 36.64 60.6231 36.3667 60.6231 36.02V28.22C60.6231 27.8733 60.7098 27.6067 60.8831 27.42C61.0565 27.2333 61.3031 27.14 61.6231 27.14C61.9431 27.14 62.1898 27.2333 62.3631 27.42C62.5498 27.6067 62.6431 27.8733 62.6431 28.22V36.02C62.6431 36.3667 62.5565 36.64 62.3831 36.84C62.2098 37.0267 61.9565 37.12 61.6231 37.12ZM61.6231 25.06C61.2231 25.06 60.9098 24.96 60.6831 24.76C60.4698 24.56 60.3631 24.28 60.3631 23.92C60.3631 23.5467 60.4698 23.2667 60.6831 23.08C60.9098 22.88 61.2231 22.78 61.6231 22.78C62.0231 22.78 62.3298 22.88 62.5431 23.08C62.7698 23.2667 62.8831 23.5467 62.8831 23.92C62.8831 24.28 62.7698 24.56 62.5431 24.76C62.3298 24.96 62.0231 25.06 61.6231 25.06ZM69.2264 37.18C68.2397 37.18 67.3864 36.9733 66.6664 36.56C65.9597 36.1467 65.4064 35.56 65.0064 34.8C64.6064 34.04 64.4064 33.1467 64.4064 32.12C64.4064 31.3333 64.5197 30.6333 64.7464 30.02C64.9731 29.4067 65.2931 28.88 65.7064 28.44C66.1331 27.9867 66.6397 27.6467 67.2264 27.42C67.8264 27.18 68.4931 27.06 69.2264 27.06C70.1997 27.06 71.0397 27.2667 71.7464 27.68C72.4664 28.0933 73.0264 28.68 73.4264 29.44C73.8264 30.1867 74.0264 31.08 74.0264 32.12C74.0264 32.8933 73.9131 33.5933 73.6864 34.22C73.4597 34.8467 73.1331 35.38 72.7064 35.82C72.2931 36.26 71.7864 36.6 71.1864 36.84C70.5997 37.0667 69.9464 37.18 69.2264 37.18ZM69.2264 35.62C69.7731 35.62 70.2531 35.4867 70.6664 35.22C71.0797 34.9533 71.3997 34.56 71.6264 34.04C71.8664 33.52 71.9864 32.88 71.9864 32.12C71.9864 30.9733 71.7331 30.1067 71.2264 29.52C70.7197 28.9333 70.0531 28.64 69.2264 28.64C68.6664 28.64 68.1797 28.7733 67.7664 29.04C67.3531 29.2933 67.0264 29.68 66.7864 30.2C66.5597 30.72 66.4464 31.36 66.4464 32.12C66.4464 33.2533 66.6997 34.12 67.2064 34.72C67.7131 35.32 68.3864 35.62 69.2264 35.62ZM76.795 37.14C76.475 37.14 76.2283 37.0533 76.055 36.88C75.8817 36.6933 75.795 36.44 75.795 36.12V28.12C75.795 27.7867 75.8817 27.5333 76.055 27.36C76.2283 27.1867 76.4683 27.1 76.775 27.1C77.095 27.1 77.335 27.1867 77.495 27.36C77.6683 27.5333 77.755 27.7867 77.755 28.12V29.68L77.535 29.32C77.8283 28.5733 78.2883 28.0133 78.915 27.64C79.5417 27.2533 80.2617 27.06 81.075 27.06C81.8483 27.06 82.4883 27.2067 82.995 27.5C83.515 27.78 83.9017 28.2133 84.155 28.8C84.4083 29.3733 84.535 30.1 84.535 30.98V36.12C84.535 36.44 84.4483 36.6933 84.275 36.88C84.1017 37.0533 83.855 37.14 83.535 37.14C83.2017 37.14 82.9483 37.0533 82.775 36.88C82.6017 36.6933 82.515 36.44 82.515 36.12V31.1C82.515 30.26 82.3483 29.6467 82.015 29.26C81.695 28.8733 81.1883 28.68 80.495 28.68C79.6817 28.68 79.0283 28.9333 78.535 29.44C78.055 29.9467 77.815 30.6267 77.815 31.48V36.12C77.815 36.8 77.475 37.14 76.795 37.14Z" fill="#201F1F"/>
<path d="M0 60.5H579.5" stroke="#CDCCCB"/>
<rect width="579.5" height="49" transform="translate(0 61)" fill="white"/>
<path d="M17.1484 91V79.5469H19.3438V91H17.1484ZM23.2422 85.2344L21.25 84.875C21.474 84.0729 21.8594 83.4792 22.4062 83.0938C22.9531 82.7083 23.7656 82.5156 24.8438 82.5156C25.8229 82.5156 26.5521 82.6328 27.0312 82.8672C27.5104 83.0964 27.8464 83.3906 28.0391 83.75C28.237 84.1042 28.3359 84.7578 28.3359 85.7109L28.3125 88.2734C28.3125 89.0026 28.3464 89.5417 28.4141 89.8906C28.487 90.2344 28.6198 90.6042 28.8125 91H26.6406C26.5833 90.8542 26.513 90.638 26.4297 90.3516C26.3932 90.2214 26.3672 90.1354 26.3516 90.0938C25.9766 90.4583 25.5755 90.7318 25.1484 90.9141C24.7214 91.0964 24.2656 91.1875 23.7812 91.1875C22.9271 91.1875 22.2526 90.9557 21.7578 90.4922C21.2682 90.0286 21.0234 89.4427 21.0234 88.7344C21.0234 88.2656 21.1354 87.849 21.3594 87.4844C21.5833 87.1146 21.8958 86.8333 22.2969 86.6406C22.7031 86.4427 23.2865 86.2708 24.0469 86.125C25.0729 85.9323 25.7839 85.7526 26.1797 85.5859V85.3672C26.1797 84.9453 26.0755 84.6458 25.8672 84.4688C25.6589 84.2865 25.2656 84.1953 24.6875 84.1953C24.2969 84.1953 23.9922 84.2734 23.7734 84.4297C23.5547 84.5807 23.3776 84.849 23.2422 85.2344ZM26.1797 87.0156C25.8984 87.1094 25.4531 87.2214 24.8438 87.3516C24.2344 87.4818 23.8359 87.6094 23.6484 87.7344C23.362 87.9375 23.2188 88.1953 23.2188 88.5078C23.2188 88.8151 23.3333 89.0807 23.5625 89.3047C23.7917 89.5286 24.0833 89.6406 24.4375 89.6406C24.8333 89.6406 25.2109 89.5104 25.5703 89.25C25.8359 89.0521 26.0104 88.8099 26.0938 88.5234C26.151 88.3359 26.1797 87.9792 26.1797 87.4531V87.0156ZM30.4141 91V79.5469H32.6094V83.6719C33.2865 82.901 34.0885 82.5156 35.0156 82.5156C36.026 82.5156 36.862 82.8828 37.5234 83.6172C38.1849 84.3464 38.5156 85.3958 38.5156 86.7656C38.5156 88.1823 38.1771 89.2734 37.5 90.0391C36.8281 90.8047 36.0104 91.1875 35.0469 91.1875C34.5729 91.1875 34.1042 91.0703 33.6406 90.8359C33.1823 90.5964 32.7865 90.2448 32.4531 89.7812V91H30.4141ZM32.5938 86.6719C32.5938 87.5312 32.7292 88.1667 33 88.5781C33.3802 89.1615 33.8854 89.4531 34.5156 89.4531C35 89.4531 35.4115 89.2474 35.75 88.8359C36.0938 88.4193 36.2656 87.7656 36.2656 86.875C36.2656 85.9271 36.0938 85.2448 35.75 84.8281C35.4062 84.4062 34.9661 84.1953 34.4297 84.1953C33.9036 84.1953 33.4661 84.401 33.1172 84.8125C32.7682 85.2188 32.5938 85.8385 32.5938 86.6719ZM45.0938 88.3594L47.2812 88.7266C47 89.5286 46.5547 90.1406 45.9453 90.5625C45.3411 90.9792 44.5833 91.1875 43.6719 91.1875C42.2292 91.1875 41.1615 90.7161 40.4688 89.7734C39.9219 89.0182 39.6484 88.0651 39.6484 86.9141C39.6484 85.5391 40.0078 84.4635 40.7266 83.6875C41.4453 82.9062 42.3542 82.5156 43.4531 82.5156C44.6875 82.5156 45.6615 82.9245 46.375 83.7422C47.0885 84.5547 47.4297 85.8021 47.3984 87.4844H41.8984C41.9141 88.1354 42.0911 88.6432 42.4297 89.0078C42.7682 89.3672 43.1901 89.5469 43.6953 89.5469C44.0391 89.5469 44.3281 89.4531 44.5625 89.2656C44.7969 89.0781 44.974 88.776 45.0938 88.3594ZM45.2188 86.1406C45.2031 85.5052 45.0391 85.0234 44.7266 84.6953C44.4141 84.362 44.0339 84.1953 43.5859 84.1953C43.1068 84.1953 42.7109 84.3698 42.3984 84.7188C42.0859 85.0677 41.9323 85.5417 41.9375 86.1406H45.2188ZM49.1953 91V79.5469H51.3906V91H49.1953Z" fill="#3E3E3D"/>
<g opacity="0.5">
<path d="M0 109.5H579.5" stroke="#CDCCCB"/>
</g>
<rect width="579.5" height="61" transform="translate(579.5)" fill="white"/>
<path d="M598.18 37.14C597.847 37.14 597.587 37.0467 597.4 36.86C597.227 36.6733 597.14 36.4133 597.14 36.08V23.96C597.14 23.6133 597.233 23.3533 597.42 23.18C597.607 22.9933 597.867 22.9 598.2 22.9H602.98C604.5 22.9 605.673 23.28 606.5 24.04C607.327 24.7867 607.74 25.84 607.74 27.2C607.74 28.5733 607.327 29.64 606.5 30.4C605.673 31.1467 604.5 31.52 602.98 31.52H599.22V36.08C599.22 36.4133 599.133 36.6733 598.96 36.86C598.787 37.0467 598.527 37.14 598.18 37.14ZM599.22 29.86H602.68C603.68 29.86 604.433 29.64 604.94 29.2C605.46 28.7467 605.72 28.08 605.72 27.2C605.72 26.3333 605.46 25.68 604.94 25.24C604.433 24.7867 603.68 24.56 602.68 24.56H599.22V29.86ZM612.595 37.18C611.809 37.18 611.149 37.0333 610.615 36.74C610.095 36.4467 609.702 36.0133 609.435 35.44C609.182 34.8533 609.055 34.12 609.055 33.24V28.12C609.055 27.7733 609.142 27.52 609.315 27.36C609.489 27.1867 609.735 27.1 610.055 27.1C610.375 27.1 610.622 27.1867 610.795 27.36C610.982 27.52 611.075 27.7733 611.075 28.12V33.26C611.075 34.0467 611.235 34.6267 611.555 35C611.875 35.3733 612.382 35.56 613.075 35.56C613.835 35.56 614.449 35.3067 614.915 34.8C615.395 34.28 615.635 33.6 615.635 32.76V28.12C615.635 27.7733 615.722 27.52 615.895 27.36C616.069 27.1867 616.322 27.1 616.655 27.1C616.975 27.1 617.222 27.1867 617.395 27.36C617.569 27.52 617.655 27.7733 617.655 28.12V36.12C617.655 36.8 617.329 37.14 616.675 37.14C616.369 37.14 616.129 37.0533 615.955 36.88C615.782 36.6933 615.695 36.44 615.695 36.12V34.42L615.955 34.86C615.689 35.6067 615.262 36.18 614.675 36.58C614.089 36.98 613.395 37.18 612.595 37.18ZM621.022 37.14C620.689 37.14 620.435 37.0533 620.262 36.88C620.089 36.6933 620.002 36.44 620.002 36.12V28.12C620.002 27.7867 620.089 27.5333 620.262 27.36C620.435 27.1867 620.675 27.1 620.982 27.1C621.302 27.1 621.542 27.1867 621.702 27.36C621.875 27.5333 621.962 27.7867 621.962 28.12V29.58H621.762C621.975 28.78 622.369 28.1733 622.942 27.76C623.515 27.3467 624.249 27.1067 625.142 27.04C625.382 27.0267 625.569 27.0867 625.702 27.22C625.849 27.3533 625.929 27.56 625.942 27.84C625.969 28.12 625.909 28.3467 625.762 28.52C625.615 28.68 625.389 28.7733 625.082 28.8L624.702 28.84C623.835 28.92 623.175 29.1933 622.722 29.66C622.269 30.1267 622.042 30.7667 622.042 31.58V36.12C622.042 36.44 621.955 36.6933 621.782 36.88C621.622 37.0533 621.369 37.14 621.022 37.14ZM627.963 40.74C627.643 40.74 627.396 40.6533 627.223 40.48C627.05 40.3067 626.963 40.0533 626.963 39.72V28.12C626.963 27.7867 627.05 27.5333 627.223 27.36C627.396 27.1867 627.636 27.1 627.943 27.1C628.263 27.1 628.51 27.1867 628.683 27.36C628.856 27.5333 628.943 27.7867 628.943 28.12V29.86L628.723 29.44C628.936 28.72 629.356 28.1467 629.983 27.72C630.61 27.28 631.35 27.06 632.203 27.06C633.07 27.06 633.823 27.2667 634.463 27.68C635.116 28.0933 635.616 28.6733 635.963 29.42C636.323 30.1667 636.503 31.0667 636.503 32.12C636.503 33.1467 636.323 34.0467 635.963 34.82C635.616 35.58 635.123 36.1667 634.483 36.58C633.843 36.98 633.083 37.18 632.203 37.18C631.363 37.18 630.63 36.9667 630.003 36.54C629.376 36.1133 628.956 35.5467 628.743 34.84H628.983V39.72C628.983 40.0533 628.89 40.3067 628.703 40.48C628.53 40.6533 628.283 40.74 627.963 40.74ZM631.703 35.62C632.263 35.62 632.75 35.4867 633.163 35.22C633.576 34.9533 633.896 34.56 634.123 34.04C634.35 33.52 634.463 32.88 634.463 32.12C634.463 30.9733 634.21 30.1067 633.703 29.52C633.21 28.9333 632.543 28.64 631.703 28.64C631.156 28.64 630.67 28.7733 630.243 29.04C629.83 29.2933 629.51 29.68 629.283 30.2C629.056 30.72 628.943 31.36 628.943 32.12C628.943 33.2533 629.196 34.12 629.703 34.72C630.21 35.32 630.876 35.62 631.703 35.62ZM642.519 37.18C641.533 37.18 640.679 36.9733 639.959 36.56C639.253 36.1467 638.699 35.56 638.299 34.8C637.899 34.04 637.699 33.1467 637.699 32.12C637.699 31.3333 637.813 30.6333 638.039 30.02C638.266 29.4067 638.586 28.88 638.999 28.44C639.426 27.9867 639.933 27.6467 640.519 27.42C641.119 27.18 641.786 27.06 642.519 27.06C643.493 27.06 644.333 27.2667 645.039 27.68C645.759 28.0933 646.319 28.68 646.719 29.44C647.119 30.1867 647.319 31.08 647.319 32.12C647.319 32.8933 647.206 33.5933 646.979 34.22C646.753 34.8467 646.426 35.38 645.999 35.82C645.586 36.26 645.079 36.6 644.479 36.84C643.893 37.0667 643.239 37.18 642.519 37.18ZM642.519 35.62C643.066 35.62 643.546 35.4867 643.959 35.22C644.373 34.9533 644.693 34.56 644.919 34.04C645.159 33.52 645.279 32.88 645.279 32.12C645.279 30.9733 645.026 30.1067 644.519 29.52C644.013 28.9333 643.346 28.64 642.519 28.64C641.959 28.64 641.473 28.7733 641.059 29.04C640.646 29.2933 640.319 29.68 640.079 30.2C639.853 30.72 639.739 31.36 639.739 32.12C639.739 33.2533 639.993 34.12 640.499 34.72C641.006 35.32 641.679 35.62 642.519 35.62ZM652.508 37.18C651.921 37.18 651.315 37.1133 650.688 36.98C650.075 36.8467 649.508 36.62 648.988 36.3C648.815 36.18 648.695 36.0467 648.628 35.9C648.561 35.7533 648.535 35.6067 648.548 35.46C648.575 35.3 648.635 35.1667 648.728 35.06C648.835 34.94 648.961 34.8667 649.108 34.84C649.268 34.8133 649.435 34.8467 649.608 34.94C650.128 35.2333 650.628 35.44 651.108 35.56C651.588 35.6667 652.061 35.72 652.528 35.72C653.235 35.72 653.768 35.5933 654.128 35.34C654.488 35.0867 654.668 34.7467 654.668 34.32C654.668 33.9733 654.548 33.7067 654.308 33.52C654.068 33.32 653.708 33.1667 653.228 33.06L651.328 32.68C650.501 32.5067 649.875 32.2 649.448 31.76C649.021 31.32 648.808 30.76 648.808 30.08C648.808 29.4667 648.975 28.9333 649.308 28.48C649.641 28.0267 650.108 27.68 650.708 27.44C651.308 27.1867 652.001 27.06 652.788 27.06C653.375 27.06 653.928 27.1333 654.448 27.28C654.968 27.4267 655.448 27.6467 655.888 27.94C656.061 28.0333 656.175 28.16 656.228 28.32C656.281 28.4667 656.288 28.6133 656.248 28.76C656.221 28.9067 656.155 29.04 656.048 29.16C655.941 29.2667 655.808 29.3333 655.648 29.36C655.501 29.3733 655.335 29.3333 655.148 29.24C654.748 28.9867 654.348 28.8067 653.948 28.7C653.561 28.5933 653.175 28.54 652.788 28.54C652.081 28.54 651.548 28.6733 651.188 28.94C650.841 29.1933 650.668 29.54 650.668 29.98C650.668 30.3133 650.775 30.5867 650.988 30.8C651.201 31.0133 651.535 31.1667 651.988 31.26L653.888 31.64C654.755 31.8133 655.408 32.1067 655.848 32.52C656.301 32.9333 656.528 33.4933 656.528 34.2C656.528 35.12 656.161 35.8467 655.428 36.38C654.695 36.9133 653.721 37.18 652.508 37.18ZM662.855 37.18C661.789 37.18 660.869 36.98 660.095 36.58C659.335 36.1667 658.742 35.5867 658.315 34.84C657.902 34.08 657.695 33.18 657.695 32.14C657.695 31.1267 657.902 30.24 658.315 29.48C658.729 28.72 659.295 28.1267 660.015 27.7C660.735 27.2733 661.555 27.06 662.475 27.06C663.155 27.06 663.762 27.1733 664.295 27.4C664.829 27.6133 665.282 27.9333 665.655 28.36C666.042 28.7733 666.329 29.28 666.515 29.88C666.715 30.48 666.815 31.1533 666.815 31.9C666.815 32.1267 666.749 32.3 666.615 32.42C666.482 32.5267 666.282 32.58 666.015 32.58H659.295V31.34H665.455L665.115 31.62C665.115 30.9533 665.015 30.3867 664.815 29.92C664.629 29.4533 664.342 29.1 663.955 28.86C663.582 28.6067 663.115 28.48 662.555 28.48C661.929 28.48 661.395 28.6267 660.955 28.92C660.529 29.2133 660.202 29.62 659.975 30.14C659.749 30.66 659.635 31.2667 659.635 31.96V32.08C659.635 33.2533 659.909 34.14 660.455 34.74C661.015 35.3267 661.822 35.62 662.875 35.62C663.275 35.62 663.695 35.5667 664.135 35.46C664.589 35.3533 665.015 35.1733 665.415 34.92C665.642 34.7867 665.842 34.7267 666.015 34.74C666.202 34.7533 666.349 34.8133 666.455 34.92C666.575 35.0267 666.649 35.16 666.675 35.32C666.702 35.48 666.675 35.6467 666.595 35.82C666.515 35.98 666.375 36.1267 666.175 36.26C665.722 36.5667 665.195 36.8 664.595 36.96C663.995 37.1067 663.415 37.18 662.855 37.18Z" fill="#201F1F"/>
<path d="M579.5 60.5H1159" stroke="#CDCCCB"/>
<rect width="579.5" height="49" transform="translate(579.5 61)" fill="white"/>
<path d="M599.648 91V80.8984H595.875V79.5469H604.953V80.8984H601.164V91H599.648ZM610.234 88.3281L611.688 88.5078C611.458 89.3568 611.034 90.0156 610.414 90.4844C609.794 90.9531 609.003 91.1875 608.039 91.1875C606.826 91.1875 605.862 90.8151 605.148 90.0703C604.44 89.3203 604.086 88.2708 604.086 86.9219C604.086 85.526 604.445 84.4427 605.164 83.6719C605.883 82.901 606.815 82.5156 607.961 82.5156C609.07 82.5156 609.977 82.8932 610.68 83.6484C611.383 84.4036 611.734 85.4661 611.734 86.8359C611.734 86.9193 611.732 87.0443 611.727 87.2109H605.539C605.591 88.1224 605.849 88.8203 606.312 89.3047C606.776 89.7891 607.354 90.0312 608.047 90.0312C608.562 90.0312 609.003 89.8958 609.367 89.625C609.732 89.3542 610.021 88.9219 610.234 88.3281ZM605.617 86.0547H610.25C610.188 85.3568 610.01 84.8333 609.719 84.4844C609.271 83.9427 608.69 83.6719 607.977 83.6719C607.331 83.6719 606.786 83.888 606.344 84.3203C605.906 84.7526 605.664 85.3307 605.617 86.0547ZM612.523 91L615.555 86.6875L612.75 82.7031H614.508L615.781 84.6484C616.021 85.0182 616.214 85.3281 616.359 85.5781C616.589 85.2344 616.799 84.9297 616.992 84.6641L618.391 82.7031H620.07L617.203 86.6094L620.289 91H618.562L616.859 88.4219L616.406 87.7266L614.227 91H612.523ZM624.531 89.7422L624.734 90.9844C624.339 91.0677 623.984 91.1094 623.672 91.1094C623.161 91.1094 622.766 91.0286 622.484 90.8672C622.203 90.7057 622.005 90.4948 621.891 90.2344C621.776 89.9688 621.719 89.4141 621.719 88.5703V83.7969H620.688V82.7031H621.719V80.6484L623.117 79.8047V82.7031H624.531V83.7969H623.117V88.6484C623.117 89.0495 623.141 89.3073 623.188 89.4219C623.24 89.5365 623.32 89.6276 623.43 89.6953C623.544 89.763 623.706 89.7969 623.914 89.7969C624.07 89.7969 624.276 89.7786 624.531 89.7422ZM631.594 88.3281L633.047 88.5078C632.818 89.3568 632.393 90.0156 631.773 90.4844C631.154 90.9531 630.362 91.1875 629.398 91.1875C628.185 91.1875 627.221 90.8151 626.508 90.0703C625.799 89.3203 625.445 88.2708 625.445 86.9219C625.445 85.526 625.805 84.4427 626.523 83.6719C627.242 82.901 628.174 82.5156 629.32 82.5156C630.43 82.5156 631.336 82.8932 632.039 83.6484C632.742 84.4036 633.094 85.4661 633.094 86.8359C633.094 86.9193 633.091 87.0443 633.086 87.2109H626.898C626.951 88.1224 627.208 88.8203 627.672 89.3047C628.135 89.7891 628.714 90.0312 629.406 90.0312C629.922 90.0312 630.362 89.8958 630.727 89.625C631.091 89.3542 631.38 88.9219 631.594 88.3281ZM626.977 86.0547H631.609C631.547 85.3568 631.37 84.8333 631.078 84.4844C630.63 83.9427 630.049 83.6719 629.336 83.6719C628.69 83.6719 628.146 83.888 627.703 84.3203C627.266 84.7526 627.023 85.3307 626.977 86.0547ZM644.688 89.9766C644.167 90.4193 643.664 90.7318 643.18 90.9141C642.701 91.0964 642.185 91.1875 641.633 91.1875C640.721 91.1875 640.021 90.9661 639.531 90.5234C639.042 90.0755 638.797 89.5052 638.797 88.8125C638.797 88.4062 638.888 88.0365 639.07 87.7031C639.258 87.3646 639.5 87.0938 639.797 86.8906C640.099 86.6875 640.438 86.5339 640.812 86.4297C641.089 86.3568 641.505 86.2865 642.062 86.2188C643.198 86.0833 644.034 85.9219 644.57 85.7344C644.576 85.5417 644.578 85.4193 644.578 85.3672C644.578 84.7943 644.445 84.3906 644.18 84.1562C643.82 83.8385 643.286 83.6797 642.578 83.6797C641.917 83.6797 641.427 83.7969 641.109 84.0312C640.797 84.2604 640.565 84.6693 640.414 85.2578L639.039 85.0703C639.164 84.4818 639.37 84.0078 639.656 83.6484C639.943 83.2839 640.357 83.0052 640.898 82.8125C641.44 82.6146 642.068 82.5156 642.781 82.5156C643.49 82.5156 644.065 82.599 644.508 82.7656C644.951 82.9323 645.276 83.1432 645.484 83.3984C645.693 83.6484 645.839 83.9661 645.922 84.3516C645.969 84.5911 645.992 85.0234 645.992 85.6484V87.5234C645.992 88.8307 646.021 89.6589 646.078 90.0078C646.141 90.3516 646.26 90.6823 646.438 91H644.969C644.823 90.7083 644.729 90.3672 644.688 89.9766ZM644.57 86.8359C644.06 87.0443 643.294 87.2214 642.273 87.3672C641.695 87.4505 641.286 87.5443 641.047 87.6484C640.807 87.7526 640.622 87.9062 640.492 88.1094C640.362 88.3073 640.297 88.5286 640.297 88.7734C640.297 89.1484 640.438 89.4609 640.719 89.7109C641.005 89.9609 641.422 90.0859 641.969 90.0859C642.51 90.0859 642.992 89.9688 643.414 89.7344C643.836 89.4948 644.146 89.1693 644.344 88.7578C644.495 88.4401 644.57 87.9714 644.57 87.3516V86.8359ZM648.516 91V83.7969H647.273V82.7031H648.516V81.8203C648.516 81.263 648.565 80.849 648.664 80.5781C648.799 80.2135 649.036 79.9193 649.375 79.6953C649.719 79.4661 650.198 79.3516 650.812 79.3516C651.208 79.3516 651.646 79.3984 652.125 79.4922L651.914 80.7188C651.622 80.6667 651.346 80.6406 651.086 80.6406C650.659 80.6406 650.357 80.7318 650.18 80.9141C650.003 81.0964 649.914 81.4375 649.914 81.9375V82.7031H651.531V83.7969H649.914V91H648.516ZM652.672 91V83.7969H651.43V82.7031H652.672V81.8203C652.672 81.263 652.721 80.849 652.82 80.5781C652.956 80.2135 653.193 79.9193 653.531 79.6953C653.875 79.4661 654.354 79.3516 654.969 79.3516C655.365 79.3516 655.802 79.3984 656.281 79.4922L656.07 80.7188C655.779 80.6667 655.503 80.6406 655.242 80.6406C654.815 80.6406 654.513 80.7318 654.336 80.9141C654.159 81.0964 654.07 81.4375 654.07 81.9375V82.7031H655.688V83.7969H654.07V91H652.672ZM656.797 81.1641V79.5469H658.203V81.1641H656.797ZM656.797 91V82.7031H658.203V91H656.797ZM665.766 87.9609L667.148 88.1406C666.997 89.0938 666.609 89.8411 665.984 90.3828C665.365 90.9193 664.602 91.1875 663.695 91.1875C662.56 91.1875 661.646 90.8177 660.953 90.0781C660.266 89.3333 659.922 88.2682 659.922 86.8828C659.922 85.987 660.07 85.2031 660.367 84.5312C660.664 83.8594 661.115 83.3568 661.719 83.0234C662.328 82.6849 662.99 82.5156 663.703 82.5156C664.604 82.5156 665.341 82.7448 665.914 83.2031C666.487 83.6562 666.854 84.3021 667.016 85.1406L665.648 85.3516C665.518 84.7943 665.286 84.375 664.953 84.0938C664.625 83.8125 664.227 83.6719 663.758 83.6719C663.049 83.6719 662.474 83.9271 662.031 84.4375C661.589 84.9427 661.367 85.7448 661.367 86.8438C661.367 87.9583 661.581 88.7682 662.008 89.2734C662.435 89.7786 662.992 90.0312 663.68 90.0312C664.232 90.0312 664.693 89.862 665.062 89.5234C665.432 89.1849 665.667 88.6641 665.766 87.9609ZM668.352 91V79.5469H669.758V83.6562C670.414 82.8958 671.242 82.5156 672.242 82.5156C672.857 82.5156 673.391 82.638 673.844 82.8828C674.297 83.1224 674.62 83.4557 674.812 83.8828C675.01 84.3099 675.109 84.9297 675.109 85.7422V91H673.703V85.7422C673.703 85.0391 673.549 84.5286 673.242 84.2109C672.94 83.888 672.51 83.7266 671.953 83.7266C671.536 83.7266 671.143 83.8359 670.773 84.0547C670.409 84.2682 670.148 84.5599 669.992 84.9297C669.836 85.2995 669.758 85.8099 669.758 86.4609V91H668.352ZM682.938 88.3281L684.391 88.5078C684.161 89.3568 683.737 90.0156 683.117 90.4844C682.497 90.9531 681.706 91.1875 680.742 91.1875C679.529 91.1875 678.565 90.8151 677.852 90.0703C677.143 89.3203 676.789 88.2708 676.789 86.9219C676.789 85.526 677.148 84.4427 677.867 83.6719C678.586 82.901 679.518 82.5156 680.664 82.5156C681.773 82.5156 682.68 82.8932 683.383 83.6484C684.086 84.4036 684.438 85.4661 684.438 86.8359C684.438 86.9193 684.435 87.0443 684.43 87.2109H678.242C678.294 88.1224 678.552 88.8203 679.016 89.3047C679.479 89.7891 680.057 90.0312 680.75 90.0312C681.266 90.0312 681.706 89.8958 682.07 89.625C682.435 89.3542 682.724 88.9219 682.938 88.3281ZM678.32 86.0547H682.953C682.891 85.3568 682.714 84.8333 682.422 84.4844C681.974 83.9427 681.393 83.6719 680.68 83.6719C680.034 83.6719 679.49 83.888 679.047 84.3203C678.609 84.7526 678.367 85.3307 678.32 86.0547ZM679.836 81.6719L680.875 79.4844H682.719L681 81.6719H679.836ZM696.031 89.9766C695.51 90.4193 695.008 90.7318 694.523 90.9141C694.044 91.0964 693.529 91.1875 692.977 91.1875C692.065 91.1875 691.365 90.9661 690.875 90.5234C690.385 90.0755 690.141 89.5052 690.141 88.8125C690.141 88.4062 690.232 88.0365 690.414 87.7031C690.602 87.3646 690.844 87.0938 691.141 86.8906C691.443 86.6875 691.781 86.5339 692.156 86.4297C692.432 86.3568 692.849 86.2865 693.406 86.2188C694.542 86.0833 695.378 85.9219 695.914 85.7344C695.919 85.5417 695.922 85.4193 695.922 85.3672C695.922 84.7943 695.789 84.3906 695.523 84.1562C695.164 83.8385 694.63 83.6797 693.922 83.6797C693.26 83.6797 692.771 83.7969 692.453 84.0312C692.141 84.2604 691.909 84.6693 691.758 85.2578L690.383 85.0703C690.508 84.4818 690.714 84.0078 691 83.6484C691.286 83.2839 691.701 83.0052 692.242 82.8125C692.784 82.6146 693.411 82.5156 694.125 82.5156C694.833 82.5156 695.409 82.599 695.852 82.7656C696.294 82.9323 696.62 83.1432 696.828 83.3984C697.036 83.6484 697.182 83.9661 697.266 84.3516C697.312 84.5911 697.336 85.0234 697.336 85.6484V87.5234C697.336 88.8307 697.365 89.6589 697.422 90.0078C697.484 90.3516 697.604 90.6823 697.781 91H696.312C696.167 90.7083 696.073 90.3672 696.031 89.9766ZM695.914 86.8359C695.404 87.0443 694.638 87.2214 693.617 87.3672C693.039 87.4505 692.63 87.5443 692.391 87.6484C692.151 87.7526 691.966 87.9062 691.836 88.1094C691.706 88.3073 691.641 88.5286 691.641 88.7734C691.641 89.1484 691.781 89.4609 692.062 89.7109C692.349 89.9609 692.766 90.0859 693.312 90.0859C693.854 90.0859 694.336 89.9688 694.758 89.7344C695.18 89.4948 695.49 89.1693 695.688 88.7578C695.839 88.4401 695.914 87.9714 695.914 87.3516V86.8359ZM701.828 91L698.672 82.7031H700.156L701.938 87.6719C702.13 88.2083 702.307 88.7656 702.469 89.3438C702.594 88.9062 702.768 88.3802 702.992 87.7656L704.836 82.7031H706.281L703.141 91H701.828ZM713.203 88.3281L714.656 88.5078C714.427 89.3568 714.003 90.0156 713.383 90.4844C712.763 90.9531 711.971 91.1875 711.008 91.1875C709.794 91.1875 708.831 90.8151 708.117 90.0703C707.409 89.3203 707.055 88.2708 707.055 86.9219C707.055 85.526 707.414 84.4427 708.133 83.6719C708.852 82.901 709.784 82.5156 710.93 82.5156C712.039 82.5156 712.945 82.8932 713.648 83.6484C714.352 84.4036 714.703 85.4661 714.703 86.8359C714.703 86.9193 714.701 87.0443 714.695 87.2109H708.508C708.56 88.1224 708.818 88.8203 709.281 89.3047C709.745 89.7891 710.323 90.0312 711.016 90.0312C711.531 90.0312 711.971 89.8958 712.336 89.625C712.701 89.3542 712.99 88.9219 713.203 88.3281ZM708.586 86.0547H713.219C713.156 85.3568 712.979 84.8333 712.688 84.4844C712.24 83.9427 711.659 83.6719 710.945 83.6719C710.299 83.6719 709.755 83.888 709.312 84.3203C708.875 84.7526 708.633 85.3307 708.586 86.0547ZM721.844 87.9609L723.227 88.1406C723.076 89.0938 722.688 89.8411 722.062 90.3828C721.443 90.9193 720.68 91.1875 719.773 91.1875C718.638 91.1875 717.724 90.8177 717.031 90.0781C716.344 89.3333 716 88.2682 716 86.8828C716 85.987 716.148 85.2031 716.445 84.5312C716.742 83.8594 717.193 83.3568 717.797 83.0234C718.406 82.6849 719.068 82.5156 719.781 82.5156C720.682 82.5156 721.419 82.7448 721.992 83.2031C722.565 83.6562 722.932 84.3021 723.094 85.1406L721.727 85.3516C721.596 84.7943 721.365 84.375 721.031 84.0938C720.703 83.8125 720.305 83.6719 719.836 83.6719C719.128 83.6719 718.552 83.9271 718.109 84.4375C717.667 84.9427 717.445 85.7448 717.445 86.8438C717.445 87.9583 717.659 88.7682 718.086 89.2734C718.513 89.7786 719.07 90.0312 719.758 90.0312C720.31 90.0312 720.771 89.862 721.141 89.5234C721.51 89.1849 721.745 88.6641 721.844 87.9609ZM728.852 91V79.5469H730.258V91H728.852ZM738.125 88.3281L739.578 88.5078C739.349 89.3568 738.924 90.0156 738.305 90.4844C737.685 90.9531 736.893 91.1875 735.93 91.1875C734.716 91.1875 733.753 90.8151 733.039 90.0703C732.331 89.3203 731.977 88.2708 731.977 86.9219C731.977 85.526 732.336 84.4427 733.055 83.6719C733.773 82.901 734.706 82.5156 735.852 82.5156C736.961 82.5156 737.867 82.8932 738.57 83.6484C739.273 84.4036 739.625 85.4661 739.625 86.8359C739.625 86.9193 739.622 87.0443 739.617 87.2109H733.43C733.482 88.1224 733.74 88.8203 734.203 89.3047C734.667 89.7891 735.245 90.0312 735.938 90.0312C736.453 90.0312 736.893 89.8958 737.258 89.625C737.622 89.3542 737.911 88.9219 738.125 88.3281ZM733.508 86.0547H738.141C738.078 85.3568 737.901 84.8333 737.609 84.4844C737.161 83.9427 736.581 83.6719 735.867 83.6719C735.221 83.6719 734.677 83.888 734.234 84.3203C733.797 84.7526 733.555 85.3307 733.508 86.0547ZM745.773 91V79.5469H747.18V91H745.773ZM748.844 86.8516C748.844 85.3151 749.271 84.1771 750.125 83.4375C750.839 82.8229 751.708 82.5156 752.734 82.5156C753.875 82.5156 754.807 82.8906 755.531 83.6406C756.255 84.3854 756.617 85.4167 756.617 86.7344C756.617 87.8021 756.456 88.6432 756.133 89.2578C755.815 89.8672 755.349 90.3411 754.734 90.6797C754.125 91.0182 753.458 91.1875 752.734 91.1875C751.573 91.1875 750.633 90.8151 749.914 90.0703C749.201 89.3255 748.844 88.2526 748.844 86.8516ZM750.289 86.8516C750.289 87.9141 750.521 88.7109 750.984 89.2422C751.448 89.7682 752.031 90.0312 752.734 90.0312C753.432 90.0312 754.013 89.7656 754.477 89.2344C754.94 88.7031 755.172 87.8932 755.172 86.8047C755.172 85.7786 754.938 85.0026 754.469 84.4766C754.005 83.9453 753.427 83.6797 752.734 83.6797C752.031 83.6797 751.448 83.9427 750.984 84.4688C750.521 84.9948 750.289 85.7891 750.289 86.8516ZM763.688 89.9766C763.167 90.4193 762.664 90.7318 762.18 90.9141C761.701 91.0964 761.185 91.1875 760.633 91.1875C759.721 91.1875 759.021 90.9661 758.531 90.5234C758.042 90.0755 757.797 89.5052 757.797 88.8125C757.797 88.4062 757.888 88.0365 758.07 87.7031C758.258 87.3646 758.5 87.0938 758.797 86.8906C759.099 86.6875 759.438 86.5339 759.812 86.4297C760.089 86.3568 760.505 86.2865 761.062 86.2188C762.198 86.0833 763.034 85.9219 763.57 85.7344C763.576 85.5417 763.578 85.4193 763.578 85.3672C763.578 84.7943 763.445 84.3906 763.18 84.1562C762.82 83.8385 762.286 83.6797 761.578 83.6797C760.917 83.6797 760.427 83.7969 760.109 84.0312C759.797 84.2604 759.565 84.6693 759.414 85.2578L758.039 85.0703C758.164 84.4818 758.37 84.0078 758.656 83.6484C758.943 83.2839 759.357 83.0052 759.898 82.8125C760.44 82.6146 761.068 82.5156 761.781 82.5156C762.49 82.5156 763.065 82.599 763.508 82.7656C763.951 82.9323 764.276 83.1432 764.484 83.3984C764.693 83.6484 764.839 83.9661 764.922 84.3516C764.969 84.5911 764.992 85.0234 764.992 85.6484V87.5234C764.992 88.8307 765.021 89.6589 765.078 90.0078C765.141 90.3516 765.26 90.6823 765.438 91H763.969C763.823 90.7083 763.729 90.3672 763.688 89.9766ZM763.57 86.8359C763.06 87.0443 762.294 87.2214 761.273 87.3672C760.695 87.4505 760.286 87.5443 760.047 87.6484C759.807 87.7526 759.622 87.9062 759.492 88.1094C759.362 88.3073 759.297 88.5286 759.297 88.7734C759.297 89.1484 759.438 89.4609 759.719 89.7109C760.005 89.9609 760.422 90.0859 760.969 90.0859C761.51 90.0859 761.992 89.9688 762.414 89.7344C762.836 89.4948 763.146 89.1693 763.344 88.7578C763.495 88.4401 763.57 87.9714 763.57 87.3516V86.8359ZM772.562 91V89.9531C772.036 90.776 771.263 91.1875 770.242 91.1875C769.581 91.1875 768.971 91.0052 768.414 90.6406C767.862 90.276 767.432 89.7682 767.125 89.1172C766.823 88.4609 766.672 87.7083 766.672 86.8594C766.672 86.0312 766.81 85.2812 767.086 84.6094C767.362 83.9323 767.776 83.4141 768.328 83.0547C768.88 82.6953 769.497 82.5156 770.18 82.5156C770.68 82.5156 771.125 82.6224 771.516 82.8359C771.906 83.0443 772.224 83.3177 772.469 83.6562V79.5469H773.867V91H772.562ZM768.117 86.8594C768.117 87.9219 768.341 88.7161 768.789 89.2422C769.237 89.7682 769.766 90.0312 770.375 90.0312C770.99 90.0312 771.51 89.7812 771.938 89.2812C772.37 88.776 772.586 88.0078 772.586 86.9766C772.586 85.8411 772.367 85.0078 771.93 84.4766C771.492 83.9453 770.953 83.6797 770.312 83.6797C769.688 83.6797 769.164 83.9349 768.742 84.4453C768.326 84.9557 768.117 85.7604 768.117 86.8594ZM781.766 88.3281L783.219 88.5078C782.99 89.3568 782.565 90.0156 781.945 90.4844C781.326 90.9531 780.534 91.1875 779.57 91.1875C778.357 91.1875 777.393 90.8151 776.68 90.0703C775.971 89.3203 775.617 88.2708 775.617 86.9219C775.617 85.526 775.977 84.4427 776.695 83.6719C777.414 82.901 778.346 82.5156 779.492 82.5156C780.602 82.5156 781.508 82.8932 782.211 83.6484C782.914 84.4036 783.266 85.4661 783.266 86.8359C783.266 86.9193 783.263 87.0443 783.258 87.2109H777.07C777.122 88.1224 777.38 88.8203 777.844 89.3047C778.307 89.7891 778.885 90.0312 779.578 90.0312C780.094 90.0312 780.534 89.8958 780.898 89.625C781.263 89.3542 781.552 88.9219 781.766 88.3281ZM777.148 86.0547H781.781C781.719 85.3568 781.542 84.8333 781.25 84.4844C780.802 83.9427 780.221 83.6719 779.508 83.6719C778.862 83.6719 778.318 83.888 777.875 84.3203C777.438 84.7526 777.195 85.3307 777.148 86.0547ZM784.977 91V82.7031H786.242V83.9609C786.565 83.3724 786.862 82.9844 787.133 82.7969C787.409 82.6094 787.711 82.5156 788.039 82.5156C788.513 82.5156 788.995 82.6667 789.484 82.9688L789 84.2734C788.656 84.0703 788.312 83.9688 787.969 83.9688C787.661 83.9688 787.385 84.0625 787.141 84.25C786.896 84.4323 786.721 84.6875 786.617 85.0156C786.461 85.5156 786.383 86.0625 786.383 86.6562V91H784.977ZM797.461 94.3672C796.685 93.388 796.029 92.2422 795.492 90.9297C794.956 89.6172 794.688 88.2578 794.688 86.8516C794.688 85.612 794.888 84.4245 795.289 83.2891C795.758 81.9714 796.482 80.6589 797.461 79.3516H798.469C797.839 80.4349 797.422 81.2083 797.219 81.6719C796.901 82.3906 796.651 83.1406 796.469 83.9219C796.245 84.8958 796.133 85.875 796.133 86.8594C796.133 89.3646 796.911 91.8672 798.469 94.3672H797.461ZM805.516 87.9609L806.898 88.1406C806.747 89.0938 806.359 89.8411 805.734 90.3828C805.115 90.9193 804.352 91.1875 803.445 91.1875C802.31 91.1875 801.396 90.8177 800.703 90.0781C800.016 89.3333 799.672 88.2682 799.672 86.8828C799.672 85.987 799.82 85.2031 800.117 84.5312C800.414 83.8594 800.865 83.3568 801.469 83.0234C802.078 82.6849 802.74 82.5156 803.453 82.5156C804.354 82.5156 805.091 82.7448 805.664 83.2031C806.237 83.6562 806.604 84.3021 806.766 85.1406L805.398 85.3516C805.268 84.7943 805.036 84.375 804.703 84.0938C804.375 83.8125 803.977 83.6719 803.508 83.6719C802.799 83.6719 802.224 83.9271 801.781 84.4375C801.339 84.9427 801.117 85.7448 801.117 86.8438C801.117 87.9583 801.331 88.7682 801.758 89.2734C802.185 89.7786 802.742 90.0312 803.43 90.0312C803.982 90.0312 804.443 89.862 804.812 89.5234C805.182 89.1849 805.417 88.6641 805.516 87.9609ZM808.102 91V79.5469H809.508V83.6562C810.164 82.8958 810.992 82.5156 811.992 82.5156C812.607 82.5156 813.141 82.638 813.594 82.8828C814.047 83.1224 814.37 83.4557 814.562 83.8828C814.76 84.3099 814.859 84.9297 814.859 85.7422V91H813.453V85.7422C813.453 85.0391 813.299 84.5286 812.992 84.2109C812.69 83.888 812.26 83.7266 811.703 83.7266C811.286 83.7266 810.893 83.8359 810.523 84.0547C810.159 84.2682 809.898 84.5599 809.742 84.9297C809.586 85.2995 809.508 85.8099 809.508 86.4609V91H808.102ZM822.422 89.9766C821.901 90.4193 821.398 90.7318 820.914 90.9141C820.435 91.0964 819.919 91.1875 819.367 91.1875C818.456 91.1875 817.755 90.9661 817.266 90.5234C816.776 90.0755 816.531 89.5052 816.531 88.8125C816.531 88.4062 816.622 88.0365 816.805 87.7031C816.992 87.3646 817.234 87.0938 817.531 86.8906C817.833 86.6875 818.172 86.5339 818.547 86.4297C818.823 86.3568 819.24 86.2865 819.797 86.2188C820.932 86.0833 821.768 85.9219 822.305 85.7344C822.31 85.5417 822.312 85.4193 822.312 85.3672C822.312 84.7943 822.18 84.3906 821.914 84.1562C821.555 83.8385 821.021 83.6797 820.312 83.6797C819.651 83.6797 819.161 83.7969 818.844 84.0312C818.531 84.2604 818.299 84.6693 818.148 85.2578L816.773 85.0703C816.898 84.4818 817.104 84.0078 817.391 83.6484C817.677 83.2839 818.091 83.0052 818.633 82.8125C819.174 82.6146 819.802 82.5156 820.516 82.5156C821.224 82.5156 821.799 82.599 822.242 82.7656C822.685 82.9323 823.01 83.1432 823.219 83.3984C823.427 83.6484 823.573 83.9661 823.656 84.3516C823.703 84.5911 823.727 85.0234 823.727 85.6484V87.5234C823.727 88.8307 823.755 89.6589 823.812 90.0078C823.875 90.3516 823.995 90.6823 824.172 91H822.703C822.557 90.7083 822.464 90.3672 822.422 89.9766ZM822.305 86.8359C821.794 87.0443 821.029 87.2214 820.008 87.3672C819.43 87.4505 819.021 87.5443 818.781 87.6484C818.542 87.7526 818.357 87.9062 818.227 88.1094C818.096 88.3073 818.031 88.5286 818.031 88.7734C818.031 89.1484 818.172 89.4609 818.453 89.7109C818.74 89.9609 819.156 90.0859 819.703 90.0859C820.245 90.0859 820.727 89.9688 821.148 89.7344C821.57 89.4948 821.88 89.1693 822.078 88.7578C822.229 88.4401 822.305 87.9714 822.305 87.3516V86.8359ZM825.898 91V82.7031H827.164V83.9609C827.487 83.3724 827.784 82.9844 828.055 82.7969C828.331 82.6094 828.633 82.5156 828.961 82.5156C829.435 82.5156 829.917 82.6667 830.406 82.9688L829.922 84.2734C829.578 84.0703 829.234 83.9688 828.891 83.9688C828.583 83.9688 828.307 84.0625 828.062 84.25C827.818 84.4323 827.643 84.6875 827.539 85.0156C827.383 85.5156 827.305 86.0625 827.305 86.6562V91H825.898ZM830.984 91.6875L832.352 91.8906C832.409 92.3125 832.568 92.6198 832.828 92.8125C833.177 93.0729 833.654 93.2031 834.258 93.2031C834.909 93.2031 835.411 93.0729 835.766 92.8125C836.12 92.5521 836.359 92.1875 836.484 91.7188C836.557 91.4323 836.591 90.8307 836.586 89.9141C835.971 90.638 835.206 91 834.289 91C833.148 91 832.266 90.5885 831.641 89.7656C831.016 88.9427 830.703 87.9557 830.703 86.8047C830.703 86.013 830.846 85.2839 831.133 84.6172C831.419 83.9453 831.833 83.4271 832.375 83.0625C832.922 82.6979 833.562 82.5156 834.297 82.5156C835.276 82.5156 836.083 82.9115 836.719 83.7031V82.7031H838.016V89.875C838.016 91.1667 837.883 92.0807 837.617 92.6172C837.357 93.1589 836.94 93.5859 836.367 93.8984C835.799 94.2109 835.099 94.3672 834.266 94.3672C833.276 94.3672 832.477 94.1432 831.867 93.6953C831.258 93.2526 830.964 92.5833 830.984 91.6875ZM832.148 86.7031C832.148 87.7917 832.365 88.5859 832.797 89.0859C833.229 89.5859 833.771 89.8359 834.422 89.8359C835.068 89.8359 835.609 89.5885 836.047 89.0938C836.484 88.5938 836.703 87.8125 836.703 86.75C836.703 85.7344 836.477 84.9688 836.023 84.4531C835.576 83.9375 835.034 83.6797 834.398 83.6797C833.773 83.6797 833.242 83.9349 832.805 84.4453C832.367 84.9505 832.148 85.7031 832.148 86.7031ZM845.828 88.3281L847.281 88.5078C847.052 89.3568 846.628 90.0156 846.008 90.4844C845.388 90.9531 844.596 91.1875 843.633 91.1875C842.419 91.1875 841.456 90.8151 840.742 90.0703C840.034 89.3203 839.68 88.2708 839.68 86.9219C839.68 85.526 840.039 84.4427 840.758 83.6719C841.477 82.901 842.409 82.5156 843.555 82.5156C844.664 82.5156 845.57 82.8932 846.273 83.6484C846.977 84.4036 847.328 85.4661 847.328 86.8359C847.328 86.9193 847.326 87.0443 847.32 87.2109H841.133C841.185 88.1224 841.443 88.8203 841.906 89.3047C842.37 89.7891 842.948 90.0312 843.641 90.0312C844.156 90.0312 844.596 89.8958 844.961 89.625C845.326 89.3542 845.615 88.9219 845.828 88.3281ZM841.211 86.0547H845.844C845.781 85.3568 845.604 84.8333 845.312 84.4844C844.865 83.9427 844.284 83.6719 843.57 83.6719C842.924 83.6719 842.38 83.888 841.938 84.3203C841.5 84.7526 841.258 85.3307 841.211 86.0547ZM849.055 91V82.7031H850.312V83.8672C850.573 83.4609 850.919 83.1354 851.352 82.8906C851.784 82.6406 852.276 82.5156 852.828 82.5156C853.443 82.5156 853.945 82.6432 854.336 82.8984C854.732 83.1536 855.01 83.5104 855.172 83.9688C855.828 83 856.682 82.5156 857.734 82.5156C858.557 82.5156 859.19 82.7448 859.633 83.2031C860.076 83.6562 860.297 84.3568 860.297 85.3047V91H858.898V85.7734C858.898 85.2109 858.852 84.8073 858.758 84.5625C858.669 84.3125 858.505 84.112 858.266 83.9609C858.026 83.8099 857.745 83.7344 857.422 83.7344C856.839 83.7344 856.354 83.9297 855.969 84.3203C855.583 84.7057 855.391 85.3255 855.391 86.1797V91H853.984V85.6094C853.984 84.9844 853.87 84.5156 853.641 84.2031C853.411 83.8906 853.036 83.7344 852.516 83.7344C852.12 83.7344 851.753 83.8385 851.414 84.0469C851.081 84.2552 850.839 84.5599 850.688 84.9609C850.536 85.362 850.461 85.9401 850.461 86.6953V91H849.055ZM868.062 88.3281L869.516 88.5078C869.286 89.3568 868.862 90.0156 868.242 90.4844C867.622 90.9531 866.831 91.1875 865.867 91.1875C864.654 91.1875 863.69 90.8151 862.977 90.0703C862.268 89.3203 861.914 88.2708 861.914 86.9219C861.914 85.526 862.273 84.4427 862.992 83.6719C863.711 82.901 864.643 82.5156 865.789 82.5156C866.898 82.5156 867.805 82.8932 868.508 83.6484C869.211 84.4036 869.562 85.4661 869.562 86.8359C869.562 86.9193 869.56 87.0443 869.555 87.2109H863.367C863.419 88.1224 863.677 88.8203 864.141 89.3047C864.604 89.7891 865.182 90.0312 865.875 90.0312C866.391 90.0312 866.831 89.8958 867.195 89.625C867.56 89.3542 867.849 88.9219 868.062 88.3281ZM863.445 86.0547H868.078C868.016 85.3568 867.839 84.8333 867.547 84.4844C867.099 83.9427 866.518 83.6719 865.805 83.6719C865.159 83.6719 864.615 83.888 864.172 84.3203C863.734 84.7526 863.492 85.3307 863.445 86.0547ZM871.289 91V82.7031H872.555V83.8828C873.164 82.9714 874.044 82.5156 875.195 82.5156C875.695 82.5156 876.154 82.6068 876.57 82.7891C876.992 82.9661 877.307 83.2005 877.516 83.4922C877.724 83.7839 877.87 84.1302 877.953 84.5312C878.005 84.7917 878.031 85.2474 878.031 85.8984V91H876.625V85.9531C876.625 85.3802 876.57 84.9531 876.461 84.6719C876.352 84.3854 876.156 84.1589 875.875 83.9922C875.599 83.8203 875.273 83.7344 874.898 83.7344C874.299 83.7344 873.781 83.9245 873.344 84.3047C872.911 84.6849 872.695 85.4062 872.695 86.4688V91H871.289ZM883.266 89.7422L883.469 90.9844C883.073 91.0677 882.719 91.1094 882.406 91.1094C881.896 91.1094 881.5 91.0286 881.219 90.8672C880.938 90.7057 880.74 90.4948 880.625 90.2344C880.51 89.9688 880.453 89.4141 880.453 88.5703V83.7969H879.422V82.7031H880.453V80.6484L881.852 79.8047V82.7031H883.266V83.7969H881.852V88.6484C881.852 89.0495 881.875 89.3073 881.922 89.4219C881.974 89.5365 882.055 89.6276 882.164 89.6953C882.279 89.763 882.44 89.7969 882.648 89.7969C882.805 89.7969 883.01 89.7786 883.266 89.7422ZM885.016 91V89.3984H886.617V91C886.617 91.5885 886.513 92.0625 886.305 92.4219C886.096 92.7865 885.766 93.0677 885.312 93.2656L884.922 92.6641C885.219 92.5339 885.438 92.3411 885.578 92.0859C885.719 91.8359 885.797 91.474 885.812 91H885.016ZM898.969 89.9766C898.448 90.4193 897.945 90.7318 897.461 90.9141C896.982 91.0964 896.466 91.1875 895.914 91.1875C895.003 91.1875 894.302 90.9661 893.812 90.5234C893.323 90.0755 893.078 89.5052 893.078 88.8125C893.078 88.4062 893.169 88.0365 893.352 87.7031C893.539 87.3646 893.781 87.0938 894.078 86.8906C894.38 86.6875 894.719 86.5339 895.094 86.4297C895.37 86.3568 895.786 86.2865 896.344 86.2188C897.479 86.0833 898.315 85.9219 898.852 85.7344C898.857 85.5417 898.859 85.4193 898.859 85.3672C898.859 84.7943 898.727 84.3906 898.461 84.1562C898.102 83.8385 897.568 83.6797 896.859 83.6797C896.198 83.6797 895.708 83.7969 895.391 84.0312C895.078 84.2604 894.846 84.6693 894.695 85.2578L893.32 85.0703C893.445 84.4818 893.651 84.0078 893.938 83.6484C894.224 83.2839 894.638 83.0052 895.18 82.8125C895.721 82.6146 896.349 82.5156 897.062 82.5156C897.771 82.5156 898.346 82.599 898.789 82.7656C899.232 82.9323 899.557 83.1432 899.766 83.3984C899.974 83.6484 900.12 83.9661 900.203 84.3516C900.25 84.5911 900.273 85.0234 900.273 85.6484V87.5234C900.273 88.8307 900.302 89.6589 900.359 90.0078C900.422 90.3516 900.542 90.6823 900.719 91H899.25C899.104 90.7083 899.01 90.3672 898.969 89.9766ZM898.852 86.8359C898.341 87.0443 897.576 87.2214 896.555 87.3672C895.977 87.4505 895.568 87.5443 895.328 87.6484C895.089 87.7526 894.904 87.9062 894.773 88.1094C894.643 88.3073 894.578 88.5286 894.578 88.7734C894.578 89.1484 894.719 89.4609 895 89.7109C895.286 89.9609 895.703 90.0859 896.25 90.0859C896.792 90.0859 897.273 89.9688 897.695 89.7344C898.117 89.4948 898.427 89.1693 898.625 88.7578C898.776 88.4401 898.852 87.9714 898.852 87.3516V86.8359ZM905.531 89.7422L905.734 90.9844C905.339 91.0677 904.984 91.1094 904.672 91.1094C904.161 91.1094 903.766 91.0286 903.484 90.8672C903.203 90.7057 903.005 90.4948 902.891 90.2344C902.776 89.9688 902.719 89.4141 902.719 88.5703V83.7969H901.688V82.7031H902.719V80.6484L904.117 79.8047V82.7031H905.531V83.7969H904.117V88.6484C904.117 89.0495 904.141 89.3073 904.188 89.4219C904.24 89.5365 904.32 89.6276 904.43 89.6953C904.544 89.763 904.706 89.7969 904.914 89.7969C905.07 89.7969 905.276 89.7786 905.531 89.7422ZM909.984 89.7422L910.188 90.9844C909.792 91.0677 909.438 91.1094 909.125 91.1094C908.615 91.1094 908.219 91.0286 907.938 90.8672C907.656 90.7057 907.458 90.4948 907.344 90.2344C907.229 89.9688 907.172 89.4141 907.172 88.5703V83.7969H906.141V82.7031H907.172V80.6484L908.57 79.8047V82.7031H909.984V83.7969H908.57V88.6484C908.57 89.0495 908.594 89.3073 908.641 89.4219C908.693 89.5365 908.773 89.6276 908.883 89.6953C908.997 89.763 909.159 89.7969 909.367 89.7969C909.523 89.7969 909.729 89.7786 909.984 89.7422ZM917.047 88.3281L918.5 88.5078C918.271 89.3568 917.846 90.0156 917.227 90.4844C916.607 90.9531 915.815 91.1875 914.852 91.1875C913.638 91.1875 912.674 90.8151 911.961 90.0703C911.253 89.3203 910.898 88.2708 910.898 86.9219C910.898 85.526 911.258 84.4427 911.977 83.6719C912.695 82.901 913.628 82.5156 914.773 82.5156C915.883 82.5156 916.789 82.8932 917.492 83.6484C918.195 84.4036 918.547 85.4661 918.547 86.8359C918.547 86.9193 918.544 87.0443 918.539 87.2109H912.352C912.404 88.1224 912.661 88.8203 913.125 89.3047C913.589 89.7891 914.167 90.0312 914.859 90.0312C915.375 90.0312 915.815 89.8958 916.18 89.625C916.544 89.3542 916.833 88.9219 917.047 88.3281ZM912.43 86.0547H917.062C917 85.3568 916.823 84.8333 916.531 84.4844C916.083 83.9427 915.503 83.6719 914.789 83.6719C914.143 83.6719 913.599 83.888 913.156 84.3203C912.719 84.7526 912.477 85.3307 912.43 86.0547ZM920.273 91V82.7031H921.539V83.8828C922.148 82.9714 923.029 82.5156 924.18 82.5156C924.68 82.5156 925.138 82.6068 925.555 82.7891C925.977 82.9661 926.292 83.2005 926.5 83.4922C926.708 83.7839 926.854 84.1302 926.938 84.5312C926.99 84.7917 927.016 85.2474 927.016 85.8984V91H925.609V85.9531C925.609 85.3802 925.555 84.9531 925.445 84.6719C925.336 84.3854 925.141 84.1589 924.859 83.9922C924.583 83.8203 924.258 83.7344 923.883 83.7344C923.284 83.7344 922.766 83.9245 922.328 84.3047C921.896 84.6849 921.68 85.4062 921.68 86.4688V91H920.273ZM932.25 89.7422L932.453 90.9844C932.057 91.0677 931.703 91.1094 931.391 91.1094C930.88 91.1094 930.484 91.0286 930.203 90.8672C929.922 90.7057 929.724 90.4948 929.609 90.2344C929.495 89.9688 929.438 89.4141 929.438 88.5703V83.7969H928.406V82.7031H929.438V80.6484L930.836 79.8047V82.7031H932.25V83.7969H930.836V88.6484C930.836 89.0495 930.859 89.3073 930.906 89.4219C930.958 89.5365 931.039 89.6276 931.148 89.6953C931.263 89.763 931.424 89.7969 931.633 89.7969C931.789 89.7969 931.995 89.7786 932.25 89.7422ZM939.312 88.3281L940.766 88.5078C940.536 89.3568 940.112 90.0156 939.492 90.4844C938.872 90.9531 938.081 91.1875 937.117 91.1875C935.904 91.1875 934.94 90.8151 934.227 90.0703C933.518 89.3203 933.164 88.2708 933.164 86.9219C933.164 85.526 933.523 84.4427 934.242 83.6719C934.961 82.901 935.893 82.5156 937.039 82.5156C938.148 82.5156 939.055 82.8932 939.758 83.6484C940.461 84.4036 940.812 85.4661 940.812 86.8359C940.812 86.9193 940.81 87.0443 940.805 87.2109H934.617C934.669 88.1224 934.927 88.8203 935.391 89.3047C935.854 89.7891 936.432 90.0312 937.125 90.0312C937.641 90.0312 938.081 89.8958 938.445 89.625C938.81 89.3542 939.099 88.9219 939.312 88.3281ZM934.695 86.0547H939.328C939.266 85.3568 939.089 84.8333 938.797 84.4844C938.349 83.9427 937.768 83.6719 937.055 83.6719C936.409 83.6719 935.865 83.888 935.422 84.3203C934.984 84.7526 934.742 85.3307 934.695 86.0547ZM943.352 91V89.3984H944.953V91H943.352ZM948.688 91V89.3984H950.289V91H948.688ZM954.016 91V89.3984H955.625V91H954.016ZM959.461 94.3672H958.453C960.01 91.8672 960.789 89.3646 960.789 86.8594C960.789 85.8802 960.677 84.9089 960.453 83.9453C960.276 83.1641 960.029 82.4141 959.711 81.6953C959.508 81.2266 959.089 80.4453 958.453 79.3516H959.461C960.44 80.6589 961.164 81.9714 961.633 83.2891C962.034 84.4245 962.234 85.612 962.234 86.8516C962.234 88.2578 961.964 89.6172 961.422 90.9297C960.885 92.2422 960.232 93.388 959.461 94.3672Z" fill="#3E3E3D"/>
<g opacity="0.5">
<path d="M579.5 109.5H1159" stroke="#CDCCCB"/>
</g>
</g>
<rect x="0.5" y="0.5" width="1158" height="109" rx="7.5" stroke="#CDCCCB"/>
<defs>
<clipPath id="clip0_414_61655">
<rect width="1159" height="110" rx="8" fill="white"/>
</clipPath>
</defs>
</svg>
