<svg viewBox="0 0 20 20" fill="none" xmlns="http://www.w3.org/2000/svg">
<path d="M15.9167 18.25L13 15.375C12.5139 15.5278 12.0208 15.6424 11.5208 15.7188C11.0208 15.7951 10.5139 15.8333 10 15.8333C8.13889 15.8333 6.4375 15.3333 4.89583 14.3333C3.35417 13.3333 2.14583 12.0139 1.27083 10.375C1.20139 10.25 1.14931 10.1215 1.11458 9.98958C1.07986 9.85764 1.0625 9.72222 1.0625 9.58333C1.0625 9.44444 1.07986 9.30903 1.11458 9.17708C1.14931 9.04514 1.20139 8.91667 1.27083 8.79167C1.57639 8.25 1.90278 7.72222 2.25 7.20833C2.59722 6.69444 3 6.23611 3.45833 5.83333L1.72917 4.08333C1.57639 3.93056 1.5 3.73958 1.5 3.51042C1.5 3.28125 1.58333 3.08333 1.75 2.91667C1.90278 2.76389 2.09722 2.6875 2.33333 2.6875C2.56944 2.6875 2.76389 2.76389 2.91667 2.91667L17.0833 17.0833C17.2361 17.2361 17.316 17.4271 17.3229 17.6562C17.3299 17.8854 17.25 18.0833 17.0833 18.25C16.9306 18.4028 16.7361 18.4792 16.5 18.4792C16.2639 18.4792 16.0694 18.4028 15.9167 18.25ZM10 13.3333C10.1528 13.3333 10.2986 13.3264 10.4375 13.3125C10.5764 13.2986 10.7153 13.2708 10.8542 13.2292L6.35417 8.72917C6.3125 8.86806 6.28472 9.00694 6.27083 9.14583C6.25694 9.28472 6.25 9.43056 6.25 9.58333C6.25 10.625 6.61458 11.5104 7.34375 12.2396C8.07292 12.9688 8.95833 13.3333 10 13.3333ZM10 3.33333C11.8611 3.33333 13.566 3.83681 15.1146 4.84375C16.6632 5.85069 17.875 7.17361 18.75 8.8125C18.8194 8.92361 18.8715 9.04514 18.9062 9.17708C18.941 9.30903 18.9583 9.44444 18.9583 9.58333C18.9583 9.72222 18.9444 9.85764 18.9167 9.98958C18.8889 10.1215 18.8403 10.2431 18.7708 10.3542C18.5069 10.8681 18.2118 11.3542 17.8854 11.8125C17.559 12.2708 17.1944 12.7014 16.7917 13.1042C16.5972 13.2986 16.3681 13.3889 16.1042 13.375C15.8403 13.3611 15.6111 13.2569 15.4167 13.0625L13.75 11.3958C13.6528 11.2986 13.5903 11.184 13.5625 11.0521C13.5347 10.9201 13.5417 10.7847 13.5833 10.6458C13.6389 10.4653 13.6806 10.2917 13.7083 10.125C13.7361 9.95833 13.75 9.77778 13.75 9.58333C13.75 8.54167 13.3854 7.65625 12.6562 6.92708C11.9271 6.19792 11.0417 5.83333 10 5.83333C9.80556 5.83333 9.625 5.84722 9.45833 5.875C9.29167 5.90278 9.11806 5.94444 8.9375 6C8.79861 6.04167 8.65972 6.04861 8.52083 6.02083C8.38194 5.99306 8.26389 5.93056 8.16667 5.83333L7.47917 5.14583C7.21528 4.88194 7.12847 4.57639 7.21875 4.22917C7.30903 3.88194 7.52778 3.65972 7.875 3.5625C8.22222 3.49306 8.57292 3.4375 8.92708 3.39583C9.28125 3.35417 9.63889 3.33333 10 3.33333ZM11.6458 8.04167C11.7986 8.22222 11.9271 8.42014 12.0312 8.63542C12.1354 8.85069 12.2014 9.07639 12.2292 9.3125C12.2431 9.42361 12.2014 9.5 12.1042 9.54167C12.0069 9.58333 11.9167 9.5625 11.8333 9.47917L10.125 7.77083C10.0417 7.6875 10.0243 7.59722 10.0729 7.5C10.1215 7.40278 10.2014 7.35417 10.3125 7.35417C10.5764 7.38194 10.8194 7.45486 11.0417 7.57292C11.2639 7.69097 11.4653 7.84722 11.6458 8.04167Z" fill="currentColor"/>
</svg>