<svg viewBox="0 0 20 20" fill="none" xmlns="http://www.w3.org/2000/svg">
<path d="M4.61078 12.2323C4.31763 11.5246 4.16675 10.766 4.16675 9.99999C4.16675 9.23395 4.31763 8.4754 4.61078 7.76767C4.90394 7.05994 5.33362 6.41688 5.87529 5.8752C6.41697 5.33353 7.06003 4.90384 7.76776 4.61069C8.47549 4.31754 9.23404 4.16666 10.0001 4.16666C10.7661 4.16666 11.5247 4.31754 12.2324 4.61069C12.9401 4.90384 13.5832 5.33353 14.1249 5.8752C14.6665 6.41688 15.0962 7.05994 15.3894 7.76767C15.6825 8.4754 15.8334 9.23395 15.8334 9.99999C15.8334 10.766 15.6825 11.5246 15.3894 12.2323C15.0962 12.94 14.6665 13.5831 14.1249 14.1248C13.5832 14.6665 12.9401 15.0961 12.2324 15.3893C11.5247 15.6824 10.7661 15.8333 10.0001 15.8333C9.23404 15.8333 8.47549 15.6824 7.76776 15.3893C7.06003 15.0961 6.41697 14.6665 5.87529 14.1248C5.33362 13.5831 4.90394 12.94 4.61078 12.2323Z" stroke="currentColor" stroke-width="1.5" stroke-linecap="round" stroke-linejoin="round"/>
<path d="M4.16675 10H1.66675" stroke="currentColor" stroke-width="1.5" stroke-linecap="round" stroke-linejoin="round"/>
<path d="M15.8333 10H18.3333" stroke="currentColor" stroke-width="1.5" stroke-linecap="round" stroke-linejoin="round"/>
<path d="M8.98912 8.26564L8.74537 7.51564C8.70787 7.39064 8.63756 7.29064 8.53444 7.21564C8.43131 7.14064 8.31675 7.10314 8.19075 7.10314C7.973 7.10314 7.80162 7.18752 7.67662 7.35627C7.55162 7.52502 7.52662 7.70939 7.60162 7.90939L9.20231 12.3741C9.24769 12.4976 9.32506 12.6 9.43443 12.6813C9.54381 12.7625 9.66412 12.8031 9.79537 12.8031L10.2444 12.8031C10.3826 12.8031 10.5047 12.7656 10.611 12.6906C10.7172 12.6156 10.7954 12.5094 10.8454 12.3719L12.4326 7.87677C12.4994 7.68602 12.4751 7.50939 12.3596 7.34689C12.2441 7.18439 12.0874 7.10314 11.8894 7.10314C11.7684 7.10314 11.6579 7.13752 11.5579 7.20627C11.4579 7.27502 11.3891 7.37189 11.3516 7.49689L11.0966 8.26564L10.0204 11.5094L8.98912 8.26564Z" fill="currentColor"/>
</svg>
