<svg viewBox="0 0 20 20" fill="none" xmlns="http://www.w3.org/2000/svg">
<path d="M10.0002 18.3334C9.63905 18.3334 9.31266 18.2465 9.021 18.0729C8.72933 17.8993 8.50016 17.6667 8.3335 17.375C7.87516 17.375 7.4828 17.2118 7.15641 16.8854C6.83002 16.559 6.66683 16.1667 6.66683 15.7084V12.75C5.84739 12.2084 5.19114 11.4931 4.69808 10.6042C4.20502 9.7153 3.9585 8.75002 3.9585 7.70835C3.9585 6.0278 4.5453 4.60071 5.71891 3.4271C6.89252 2.25349 8.31961 1.66669 10.0002 1.66669C11.6807 1.66669 13.1078 2.25349 14.2814 3.4271C15.455 4.60071 16.0418 6.0278 16.0418 7.70835C16.0418 8.7778 15.7953 9.75002 15.3022 10.625C14.8092 11.5 14.1529 12.2084 13.3335 12.75V15.7084C13.3335 16.1667 13.1703 16.559 12.8439 16.8854C12.5175 17.2118 12.1252 17.375 11.6668 17.375C11.5002 17.6667 11.271 17.8993 10.9793 18.0729C10.6877 18.2465 10.3613 18.3334 10.0002 18.3334ZM8.3335 15.7084H11.6668V14.9584H8.3335V15.7084ZM8.3335 14.125H11.6668V13.3334H8.3335V14.125ZM8.16683 11.6667H9.37516V9.41669L7.97933 8.02085C7.85433 7.89585 7.79183 7.75002 7.79183 7.58335C7.79183 7.41669 7.85433 7.27085 7.97933 7.14585C8.10433 7.02085 8.25016 6.95835 8.41683 6.95835C8.5835 6.95835 8.72933 7.02085 8.85433 7.14585L10.0002 8.29169L11.146 7.14585C11.271 7.02085 11.4168 6.95835 11.5835 6.95835C11.7502 6.95835 11.896 7.02085 12.021 7.14585C12.146 7.27085 12.2085 7.41669 12.2085 7.58335C12.2085 7.75002 12.146 7.89585 12.021 8.02085L10.6252 9.41669V11.6667H11.8335C12.5835 11.3056 13.1946 10.7743 13.6668 10.0729C14.1391 9.37155 14.3752 8.58335 14.3752 7.70835C14.3752 6.48613 13.9516 5.45141 13.1043 4.60419C12.2571 3.75696 11.2224 3.33335 10.0002 3.33335C8.77794 3.33335 7.74322 3.75696 6.896 4.60419C6.04877 5.45141 5.62516 6.48613 5.62516 7.70835C5.62516 8.58335 5.86127 9.37155 6.3335 10.0729C6.80572 10.7743 7.41683 11.3056 8.16683 11.6667Z" fill="currentColor"/>
</svg>