<svg width="1159" height="159" viewBox="0 0 1159 159" fill="none" xmlns="http://www.w3.org/2000/svg">
<g clip-path="url(#clip0_414_61577)">
<rect width="579.5" height="61" fill="white"/>
<path d="M18.68 37.14C18.3467 37.14 18.0867 37.0467 17.9 36.86C17.7267 36.6733 17.64 36.4133 17.64 36.08V23.96C17.64 23.6133 17.7333 23.3533 17.92 23.18C18.1067 22.9933 18.3667 22.9 18.7 22.9H23.48C25 22.9 26.1733 23.28 27 24.04C27.8267 24.7867 28.24 25.84 28.24 27.2C28.24 28.5733 27.8267 29.64 27 30.4C26.1733 31.1467 25 31.52 23.48 31.52H19.72V36.08C19.72 36.4133 19.6333 36.6733 19.46 36.86C19.2867 37.0467 19.0267 37.14 18.68 37.14ZM19.72 29.86H23.18C24.18 29.86 24.9333 29.64 25.44 29.2C25.96 28.7467 26.22 28.08 26.22 27.2C26.22 26.3333 25.96 25.68 25.44 25.24C24.9333 24.7867 24.18 24.56 23.18 24.56H19.72V29.86ZM33.5233 37.18C32.5366 37.18 31.6833 36.9733 30.9633 36.56C30.2566 36.1467 29.7033 35.56 29.3033 34.8C28.9033 34.04 28.7033 33.1467 28.7033 32.12C28.7033 31.3333 28.8166 30.6333 29.0433 30.02C29.2699 29.4067 29.5899 28.88 30.0033 28.44C30.4299 27.9867 30.9366 27.6467 31.5233 27.42C32.1233 27.18 32.7899 27.06 33.5233 27.06C34.4966 27.06 35.3366 27.2667 36.0433 27.68C36.7633 28.0933 37.3233 28.68 37.7233 29.44C38.1233 30.1867 38.3233 31.08 38.3233 32.12C38.3233 32.8933 38.2099 33.5933 37.9833 34.22C37.7566 34.8467 37.4299 35.38 37.0033 35.82C36.5899 36.26 36.0833 36.6 35.4833 36.84C34.8966 37.0667 34.2433 37.18 33.5233 37.18ZM33.5233 35.62C34.0699 35.62 34.5499 35.4867 34.9633 35.22C35.3766 34.9533 35.6966 34.56 35.9233 34.04C36.1633 33.52 36.2833 32.88 36.2833 32.12C36.2833 30.9733 36.0299 30.1067 35.5233 29.52C35.0166 28.9333 34.3499 28.64 33.5233 28.64C32.9633 28.64 32.4766 28.7733 32.0633 29.04C31.6499 29.2933 31.3233 29.68 31.0833 30.2C30.8566 30.72 30.7433 31.36 30.7433 32.12C30.7433 33.2533 30.9966 34.12 31.5033 34.72C32.0099 35.32 32.6833 35.62 33.5233 35.62ZM43.5119 37.18C42.9252 37.18 42.3185 37.1133 41.6919 36.98C41.0785 36.8467 40.5119 36.62 39.9919 36.3C39.8185 36.18 39.6985 36.0467 39.6319 35.9C39.5652 35.7533 39.5385 35.6067 39.5519 35.46C39.5785 35.3 39.6385 35.1667 39.7319 35.06C39.8385 34.94 39.9652 34.8667 40.1119 34.84C40.2719 34.8133 40.4385 34.8467 40.6119 34.94C41.1319 35.2333 41.6319 35.44 42.1119 35.56C42.5919 35.6667 43.0652 35.72 43.5319 35.72C44.2385 35.72 44.7719 35.5933 45.1319 35.34C45.4919 35.0867 45.6719 34.7467 45.6719 34.32C45.6719 33.9733 45.5519 33.7067 45.3119 33.52C45.0719 33.32 44.7119 33.1667 44.2319 33.06L42.3319 32.68C41.5052 32.5067 40.8785 32.2 40.4519 31.76C40.0252 31.32 39.8119 30.76 39.8119 30.08C39.8119 29.4667 39.9785 28.9333 40.3119 28.48C40.6452 28.0267 41.1119 27.68 41.7119 27.44C42.3119 27.1867 43.0052 27.06 43.7919 27.06C44.3785 27.06 44.9319 27.1333 45.4519 27.28C45.9719 27.4267 46.4519 27.6467 46.8919 27.94C47.0652 28.0333 47.1785 28.16 47.2319 28.32C47.2852 28.4667 47.2919 28.6133 47.2519 28.76C47.2252 28.9067 47.1585 29.04 47.0519 29.16C46.9452 29.2667 46.8119 29.3333 46.6519 29.36C46.5052 29.3733 46.3385 29.3333 46.1519 29.24C45.7519 28.9867 45.3519 28.8067 44.9519 28.7C44.5652 28.5933 44.1785 28.54 43.7919 28.54C43.0852 28.54 42.5519 28.6733 42.1919 28.94C41.8452 29.1933 41.6719 29.54 41.6719 29.98C41.6719 30.3133 41.7785 30.5867 41.9919 30.8C42.2052 31.0133 42.5385 31.1667 42.9919 31.26L44.8919 31.64C45.7585 31.8133 46.4119 32.1067 46.8519 32.52C47.3052 32.9333 47.5319 33.4933 47.5319 34.2C47.5319 35.12 47.1652 35.8467 46.4319 36.38C45.6985 36.9133 44.7252 37.18 43.5119 37.18ZM50.2794 37.12C49.9594 37.12 49.7127 37.0267 49.5394 36.84C49.366 36.64 49.2794 36.3667 49.2794 36.02V28.22C49.2794 27.8733 49.366 27.6067 49.5394 27.42C49.7127 27.2333 49.9594 27.14 50.2794 27.14C50.5994 27.14 50.846 27.2333 51.0194 27.42C51.206 27.6067 51.2994 27.8733 51.2994 28.22V36.02C51.2994 36.3667 51.2127 36.64 51.0394 36.84C50.866 37.0267 50.6127 37.12 50.2794 37.12ZM50.2794 25.06C49.8794 25.06 49.566 24.96 49.3394 24.76C49.126 24.56 49.0194 24.28 49.0194 23.92C49.0194 23.5467 49.126 23.2667 49.3394 23.08C49.566 22.88 49.8794 22.78 50.2794 22.78C50.6794 22.78 50.986 22.88 51.1994 23.08C51.426 23.2667 51.5394 23.5467 51.5394 23.92C51.5394 24.28 51.426 24.56 51.1994 24.76C50.986 24.96 50.6794 25.06 50.2794 25.06ZM57.8027 37.18C57.0027 37.18 56.3293 37.04 55.7827 36.76C55.236 36.48 54.8293 36.0667 54.5627 35.52C54.296 34.9733 54.1627 34.3067 54.1627 33.52V28.8H52.9627C52.696 28.8 52.4893 28.7333 52.3427 28.6C52.196 28.4533 52.1227 28.26 52.1227 28.02C52.1227 27.7667 52.196 27.5733 52.3427 27.44C52.4893 27.3067 52.696 27.24 52.9627 27.24H54.1627V25.18C54.1627 24.8467 54.2493 24.5933 54.4227 24.42C54.6093 24.2467 54.8627 24.16 55.1827 24.16C55.5027 24.16 55.7493 24.2467 55.9227 24.42C56.096 24.5933 56.1827 24.8467 56.1827 25.18V27.24H58.5227C58.7893 27.24 58.996 27.3067 59.1427 27.44C59.2893 27.5733 59.3627 27.7667 59.3627 28.02C59.3627 28.26 59.2893 28.4533 59.1427 28.6C58.996 28.7333 58.7893 28.8 58.5227 28.8H56.1827V33.36C56.1827 34.0667 56.3293 34.6 56.6227 34.96C56.9293 35.32 57.4227 35.5 58.1027 35.5C58.3427 35.5 58.5493 35.48 58.7227 35.44C58.9093 35.3867 59.0627 35.3533 59.1827 35.34C59.3293 35.34 59.4493 35.3933 59.5427 35.5C59.636 35.5933 59.6827 35.78 59.6827 36.06C59.6827 36.26 59.6427 36.4467 59.5627 36.62C59.496 36.7933 59.3693 36.9067 59.1827 36.96C59.0227 37.0133 58.8027 37.06 58.5227 37.1C58.256 37.1533 58.016 37.18 57.8027 37.18ZM61.6231 37.12C61.3031 37.12 61.0565 37.0267 60.8831 36.84C60.7098 36.64 60.6231 36.3667 60.6231 36.02V28.22C60.6231 27.8733 60.7098 27.6067 60.8831 27.42C61.0565 27.2333 61.3031 27.14 61.6231 27.14C61.9431 27.14 62.1898 27.2333 62.3631 27.42C62.5498 27.6067 62.6431 27.8733 62.6431 28.22V36.02C62.6431 36.3667 62.5565 36.64 62.3831 36.84C62.2098 37.0267 61.9565 37.12 61.6231 37.12ZM61.6231 25.06C61.2231 25.06 60.9098 24.96 60.6831 24.76C60.4698 24.56 60.3631 24.28 60.3631 23.92C60.3631 23.5467 60.4698 23.2667 60.6831 23.08C60.9098 22.88 61.2231 22.78 61.6231 22.78C62.0231 22.78 62.3298 22.88 62.5431 23.08C62.7698 23.2667 62.8831 23.5467 62.8831 23.92C62.8831 24.28 62.7698 24.56 62.5431 24.76C62.3298 24.96 62.0231 25.06 61.6231 25.06ZM69.2264 37.18C68.2397 37.18 67.3864 36.9733 66.6664 36.56C65.9597 36.1467 65.4064 35.56 65.0064 34.8C64.6064 34.04 64.4064 33.1467 64.4064 32.12C64.4064 31.3333 64.5197 30.6333 64.7464 30.02C64.9731 29.4067 65.2931 28.88 65.7064 28.44C66.1331 27.9867 66.6397 27.6467 67.2264 27.42C67.8264 27.18 68.4931 27.06 69.2264 27.06C70.1997 27.06 71.0397 27.2667 71.7464 27.68C72.4664 28.0933 73.0264 28.68 73.4264 29.44C73.8264 30.1867 74.0264 31.08 74.0264 32.12C74.0264 32.8933 73.9131 33.5933 73.6864 34.22C73.4597 34.8467 73.1331 35.38 72.7064 35.82C72.2931 36.26 71.7864 36.6 71.1864 36.84C70.5997 37.0667 69.9464 37.18 69.2264 37.18ZM69.2264 35.62C69.7731 35.62 70.2531 35.4867 70.6664 35.22C71.0797 34.9533 71.3997 34.56 71.6264 34.04C71.8664 33.52 71.9864 32.88 71.9864 32.12C71.9864 30.9733 71.7331 30.1067 71.2264 29.52C70.7197 28.9333 70.0531 28.64 69.2264 28.64C68.6664 28.64 68.1797 28.7733 67.7664 29.04C67.3531 29.2933 67.0264 29.68 66.7864 30.2C66.5597 30.72 66.4464 31.36 66.4464 32.12C66.4464 33.2533 66.6997 34.12 67.2064 34.72C67.7131 35.32 68.3864 35.62 69.2264 35.62ZM76.795 37.14C76.475 37.14 76.2283 37.0533 76.055 36.88C75.8817 36.6933 75.795 36.44 75.795 36.12V28.12C75.795 27.7867 75.8817 27.5333 76.055 27.36C76.2283 27.1867 76.4683 27.1 76.775 27.1C77.095 27.1 77.335 27.1867 77.495 27.36C77.6683 27.5333 77.755 27.7867 77.755 28.12V29.68L77.535 29.32C77.8283 28.5733 78.2883 28.0133 78.915 27.64C79.5417 27.2533 80.2617 27.06 81.075 27.06C81.8483 27.06 82.4883 27.2067 82.995 27.5C83.515 27.78 83.9017 28.2133 84.155 28.8C84.4083 29.3733 84.535 30.1 84.535 30.98V36.12C84.535 36.44 84.4483 36.6933 84.275 36.88C84.1017 37.0533 83.855 37.14 83.535 37.14C83.2017 37.14 82.9483 37.0533 82.775 36.88C82.6017 36.6933 82.515 36.44 82.515 36.12V31.1C82.515 30.26 82.3483 29.6467 82.015 29.26C81.695 28.8733 81.1883 28.68 80.495 28.68C79.6817 28.68 79.0283 28.9333 78.535 29.44C78.055 29.9467 77.815 30.6267 77.815 31.48V36.12C77.815 36.8 77.475 37.14 76.795 37.14Z" fill="#201F1F"/>
<path d="M0 60.5H579.5" stroke="#CDCCCB"/>
<rect width="579.5" height="49" transform="translate(0 61)" fill="white"/>
<path d="M19.25 91H17.0547V82.7031H19.0938V83.8828C19.4427 83.3255 19.7552 82.9583 20.0312 82.7812C20.3125 82.6042 20.6302 82.5156 20.9844 82.5156C21.4844 82.5156 21.9661 82.6536 22.4297 82.9297L21.75 84.8438C21.3802 84.6042 21.0365 84.4844 20.7188 84.4844C20.4115 84.4844 20.151 84.5703 19.9375 84.7422C19.724 84.9089 19.5547 85.2135 19.4297 85.6562C19.3099 86.099 19.25 87.026 19.25 88.4375V91ZM23.3828 81.5781V79.5469H25.5781V81.5781H23.3828ZM23.3828 91V82.7031H25.5781V91H23.3828ZM27.6328 91.5469L30.1406 91.8516C30.1823 92.1432 30.2786 92.3438 30.4297 92.4531C30.638 92.6094 30.9661 92.6875 31.4141 92.6875C31.987 92.6875 32.4167 92.6016 32.7031 92.4297C32.8958 92.3151 33.0417 92.1302 33.1406 91.875C33.2083 91.6927 33.2422 91.3568 33.2422 90.8672V89.6562C32.5859 90.5521 31.7578 91 30.7578 91C29.6432 91 28.7604 90.5286 28.1094 89.5859C27.599 88.8411 27.3438 87.9141 27.3438 86.8047C27.3438 85.4141 27.6771 84.3516 28.3438 83.6172C29.0156 82.8828 29.849 82.5156 30.8438 82.5156C31.8698 82.5156 32.7161 82.9661 33.3828 83.8672V82.7031H35.4375V90.1484C35.4375 91.1276 35.3568 91.8594 35.1953 92.3438C35.0339 92.8281 34.8073 93.2083 34.5156 93.4844C34.224 93.7604 33.8333 93.9766 33.3438 94.1328C32.8594 94.2891 32.2448 94.3672 31.5 94.3672C30.0938 94.3672 29.0964 94.125 28.5078 93.6406C27.9193 93.1615 27.625 92.5521 27.625 91.8125C27.625 91.7396 27.6276 91.651 27.6328 91.5469ZM29.5938 86.6797C29.5938 87.5599 29.763 88.2057 30.1016 88.6172C30.4453 89.0234 30.8672 89.2266 31.3672 89.2266C31.9036 89.2266 32.3568 89.0182 32.7266 88.6016C33.0964 88.1797 33.2812 87.5573 33.2812 86.7344C33.2812 85.875 33.1042 85.237 32.75 84.8203C32.3958 84.4036 31.9479 84.1953 31.4062 84.1953C30.8802 84.1953 30.4453 84.401 30.1016 84.8125C29.763 85.2188 29.5938 85.8411 29.5938 86.6797ZM39.8047 79.5469V83.7578C40.513 82.9297 41.3594 82.5156 42.3438 82.5156C42.849 82.5156 43.3047 82.6094 43.7109 82.7969C44.1172 82.9844 44.4219 83.224 44.625 83.5156C44.8333 83.8073 44.974 84.1302 45.0469 84.4844C45.125 84.8385 45.1641 85.388 45.1641 86.1328V91H42.9688V86.6172C42.9688 85.7474 42.9271 85.1953 42.8438 84.9609C42.7604 84.7266 42.612 84.5417 42.3984 84.4062C42.1901 84.2656 41.9271 84.1953 41.6094 84.1953C41.2448 84.1953 40.9193 84.2839 40.6328 84.4609C40.3464 84.638 40.1354 84.9062 40 85.2656C39.8698 85.6198 39.8047 86.1458 39.8047 86.8438V91H37.6094V79.5469H39.8047ZM51.2031 82.7031V84.4531H49.7031V87.7969C49.7031 88.474 49.7161 88.8698 49.7422 88.9844C49.7734 89.0938 49.8385 89.1849 49.9375 89.2578C50.0417 89.3307 50.1667 89.3672 50.3125 89.3672C50.5156 89.3672 50.8099 89.2969 51.1953 89.1562L51.3828 90.8594C50.8724 91.0781 50.2943 91.1875 49.6484 91.1875C49.2526 91.1875 48.8958 91.1224 48.5781 90.9922C48.2604 90.8568 48.026 90.6849 47.875 90.4766C47.7292 90.263 47.6276 89.9766 47.5703 89.6172C47.5234 89.362 47.5 88.8464 47.5 88.0703V84.4531H46.4922V82.7031H47.5V81.0547L49.7031 79.7734V82.7031H51.2031Z" fill="#3E3E3D"/>
<g opacity="0.5">
<path d="M0 109.5H579.5" stroke="#CDCCCB"/>
</g>
<rect width="579.5" height="49" transform="translate(0 110)" fill="white"/>
<path d="M22.6094 140V138.758C22.3073 139.201 21.9089 139.549 21.4141 139.805C20.9245 140.06 20.4062 140.188 19.8594 140.188C19.3021 140.188 18.8021 140.065 18.3594 139.82C17.9167 139.576 17.5964 139.232 17.3984 138.789C17.2005 138.346 17.1016 137.734 17.1016 136.953V131.703H19.2969V135.516C19.2969 136.682 19.3359 137.398 19.4141 137.664C19.4974 137.924 19.6458 138.133 19.8594 138.289C20.0729 138.44 20.3438 138.516 20.6719 138.516C21.0469 138.516 21.3828 138.414 21.6797 138.211C21.9766 138.003 22.1797 137.747 22.2891 137.445C22.3984 137.138 22.4531 136.391 22.4531 135.203V131.703H24.6484V140H22.6094ZM34.4766 140H32.2812V135.766C32.2812 134.87 32.2344 134.292 32.1406 134.031C32.0469 133.766 31.8932 133.56 31.6797 133.414C31.4714 133.268 31.2188 133.195 30.9219 133.195C30.5417 133.195 30.2005 133.299 29.8984 133.508C29.5964 133.716 29.388 133.992 29.2734 134.336C29.1641 134.68 29.1094 135.315 29.1094 136.242V140H26.9141V131.703H28.9531V132.922C29.6771 131.984 30.5885 131.516 31.6875 131.516C32.1719 131.516 32.6146 131.604 33.0156 131.781C33.4167 131.953 33.7188 132.174 33.9219 132.445C34.1302 132.716 34.2734 133.023 34.3516 133.367C34.4349 133.711 34.4766 134.203 34.4766 134.844V140ZM44.3203 140H42.2812V138.781C41.9427 139.255 41.5417 139.609 41.0781 139.844C40.6198 140.073 40.1562 140.188 39.6875 140.188C38.7344 140.188 37.9167 139.805 37.2344 139.039C36.5573 138.268 36.2188 137.195 36.2188 135.82C36.2188 134.414 36.5495 133.346 37.2109 132.617C37.8724 131.883 38.7083 131.516 39.7188 131.516C40.6458 131.516 41.4479 131.901 42.125 132.672V128.547H44.3203V140ZM38.4609 135.672C38.4609 136.557 38.5833 137.198 38.8281 137.594C39.1823 138.167 39.6771 138.453 40.3125 138.453C40.8177 138.453 41.2474 138.24 41.6016 137.812C41.9557 137.38 42.1328 136.737 42.1328 135.883C42.1328 134.93 41.9609 134.245 41.6172 133.828C41.2734 133.406 40.8333 133.195 40.2969 133.195C39.776 133.195 39.3385 133.404 38.9844 133.82C38.6354 134.232 38.4609 134.849 38.4609 135.672ZM51.2969 137.359L53.4844 137.727C53.2031 138.529 52.7578 139.141 52.1484 139.562C51.5443 139.979 50.7865 140.188 49.875 140.188C48.4323 140.188 47.3646 139.716 46.6719 138.773C46.125 138.018 45.8516 137.065 45.8516 135.914C45.8516 134.539 46.2109 133.464 46.9297 132.688C47.6484 131.906 48.5573 131.516 49.6562 131.516C50.8906 131.516 51.8646 131.924 52.5781 132.742C53.2917 133.555 53.6328 134.802 53.6016 136.484H48.1016C48.1172 137.135 48.2943 137.643 48.6328 138.008C48.9714 138.367 49.3932 138.547 49.8984 138.547C50.2422 138.547 50.5312 138.453 50.7656 138.266C51 138.078 51.1771 137.776 51.2969 137.359ZM51.4219 135.141C51.4062 134.505 51.2422 134.023 50.9297 133.695C50.6172 133.362 50.237 133.195 49.7891 133.195C49.3099 133.195 48.9141 133.37 48.6016 133.719C48.2891 134.068 48.1354 134.542 48.1406 135.141H51.4219ZM57.5 140H55.3047V131.703H57.3438V132.883C57.6927 132.326 58.0052 131.958 58.2812 131.781C58.5625 131.604 58.8802 131.516 59.2344 131.516C59.7344 131.516 60.2161 131.654 60.6797 131.93L60 133.844C59.6302 133.604 59.2865 133.484 58.9688 133.484C58.6615 133.484 58.401 133.57 58.1875 133.742C57.974 133.909 57.8047 134.214 57.6797 134.656C57.5599 135.099 57.5 136.026 57.5 137.438V140Z" fill="#3E3E3D"/>
<g opacity="0.5">
<path d="M0 158.5H579.5" stroke="#CDCCCB"/>
</g>
<rect width="579.5" height="61" transform="translate(579.5)" fill="white"/>
<path d="M598.18 37.14C597.847 37.14 597.587 37.0467 597.4 36.86C597.227 36.6733 597.14 36.4133 597.14 36.08V23.96C597.14 23.6133 597.233 23.3533 597.42 23.18C597.607 22.9933 597.867 22.9 598.2 22.9H602.98C604.5 22.9 605.673 23.28 606.5 24.04C607.327 24.7867 607.74 25.84 607.74 27.2C607.74 28.5733 607.327 29.64 606.5 30.4C605.673 31.1467 604.5 31.52 602.98 31.52H599.22V36.08C599.22 36.4133 599.133 36.6733 598.96 36.86C598.787 37.0467 598.527 37.14 598.18 37.14ZM599.22 29.86H602.68C603.68 29.86 604.433 29.64 604.94 29.2C605.46 28.7467 605.72 28.08 605.72 27.2C605.72 26.3333 605.46 25.68 604.94 25.24C604.433 24.7867 603.68 24.56 602.68 24.56H599.22V29.86ZM612.595 37.18C611.809 37.18 611.149 37.0333 610.615 36.74C610.095 36.4467 609.702 36.0133 609.435 35.44C609.182 34.8533 609.055 34.12 609.055 33.24V28.12C609.055 27.7733 609.142 27.52 609.315 27.36C609.489 27.1867 609.735 27.1 610.055 27.1C610.375 27.1 610.622 27.1867 610.795 27.36C610.982 27.52 611.075 27.7733 611.075 28.12V33.26C611.075 34.0467 611.235 34.6267 611.555 35C611.875 35.3733 612.382 35.56 613.075 35.56C613.835 35.56 614.449 35.3067 614.915 34.8C615.395 34.28 615.635 33.6 615.635 32.76V28.12C615.635 27.7733 615.722 27.52 615.895 27.36C616.069 27.1867 616.322 27.1 616.655 27.1C616.975 27.1 617.222 27.1867 617.395 27.36C617.569 27.52 617.655 27.7733 617.655 28.12V36.12C617.655 36.8 617.329 37.14 616.675 37.14C616.369 37.14 616.129 37.0533 615.955 36.88C615.782 36.6933 615.695 36.44 615.695 36.12V34.42L615.955 34.86C615.689 35.6067 615.262 36.18 614.675 36.58C614.089 36.98 613.395 37.18 612.595 37.18ZM621.022 37.14C620.689 37.14 620.435 37.0533 620.262 36.88C620.089 36.6933 620.002 36.44 620.002 36.12V28.12C620.002 27.7867 620.089 27.5333 620.262 27.36C620.435 27.1867 620.675 27.1 620.982 27.1C621.302 27.1 621.542 27.1867 621.702 27.36C621.875 27.5333 621.962 27.7867 621.962 28.12V29.58H621.762C621.975 28.78 622.369 28.1733 622.942 27.76C623.515 27.3467 624.249 27.1067 625.142 27.04C625.382 27.0267 625.569 27.0867 625.702 27.22C625.849 27.3533 625.929 27.56 625.942 27.84C625.969 28.12 625.909 28.3467 625.762 28.52C625.615 28.68 625.389 28.7733 625.082 28.8L624.702 28.84C623.835 28.92 623.175 29.1933 622.722 29.66C622.269 30.1267 622.042 30.7667 622.042 31.58V36.12C622.042 36.44 621.955 36.6933 621.782 36.88C621.622 37.0533 621.369 37.14 621.022 37.14ZM627.963 40.74C627.643 40.74 627.396 40.6533 627.223 40.48C627.05 40.3067 626.963 40.0533 626.963 39.72V28.12C626.963 27.7867 627.05 27.5333 627.223 27.36C627.396 27.1867 627.636 27.1 627.943 27.1C628.263 27.1 628.51 27.1867 628.683 27.36C628.856 27.5333 628.943 27.7867 628.943 28.12V29.86L628.723 29.44C628.936 28.72 629.356 28.1467 629.983 27.72C630.61 27.28 631.35 27.06 632.203 27.06C633.07 27.06 633.823 27.2667 634.463 27.68C635.116 28.0933 635.616 28.6733 635.963 29.42C636.323 30.1667 636.503 31.0667 636.503 32.12C636.503 33.1467 636.323 34.0467 635.963 34.82C635.616 35.58 635.123 36.1667 634.483 36.58C633.843 36.98 633.083 37.18 632.203 37.18C631.363 37.18 630.63 36.9667 630.003 36.54C629.376 36.1133 628.956 35.5467 628.743 34.84H628.983V39.72C628.983 40.0533 628.89 40.3067 628.703 40.48C628.53 40.6533 628.283 40.74 627.963 40.74ZM631.703 35.62C632.263 35.62 632.75 35.4867 633.163 35.22C633.576 34.9533 633.896 34.56 634.123 34.04C634.35 33.52 634.463 32.88 634.463 32.12C634.463 30.9733 634.21 30.1067 633.703 29.52C633.21 28.9333 632.543 28.64 631.703 28.64C631.156 28.64 630.67 28.7733 630.243 29.04C629.83 29.2933 629.51 29.68 629.283 30.2C629.056 30.72 628.943 31.36 628.943 32.12C628.943 33.2533 629.196 34.12 629.703 34.72C630.21 35.32 630.876 35.62 631.703 35.62ZM642.519 37.18C641.533 37.18 640.679 36.9733 639.959 36.56C639.253 36.1467 638.699 35.56 638.299 34.8C637.899 34.04 637.699 33.1467 637.699 32.12C637.699 31.3333 637.813 30.6333 638.039 30.02C638.266 29.4067 638.586 28.88 638.999 28.44C639.426 27.9867 639.933 27.6467 640.519 27.42C641.119 27.18 641.786 27.06 642.519 27.06C643.493 27.06 644.333 27.2667 645.039 27.68C645.759 28.0933 646.319 28.68 646.719 29.44C647.119 30.1867 647.319 31.08 647.319 32.12C647.319 32.8933 647.206 33.5933 646.979 34.22C646.753 34.8467 646.426 35.38 645.999 35.82C645.586 36.26 645.079 36.6 644.479 36.84C643.893 37.0667 643.239 37.18 642.519 37.18ZM642.519 35.62C643.066 35.62 643.546 35.4867 643.959 35.22C644.373 34.9533 644.693 34.56 644.919 34.04C645.159 33.52 645.279 32.88 645.279 32.12C645.279 30.9733 645.026 30.1067 644.519 29.52C644.013 28.9333 643.346 28.64 642.519 28.64C641.959 28.64 641.473 28.7733 641.059 29.04C640.646 29.2933 640.319 29.68 640.079 30.2C639.853 30.72 639.739 31.36 639.739 32.12C639.739 33.2533 639.993 34.12 640.499 34.72C641.006 35.32 641.679 35.62 642.519 35.62ZM652.508 37.18C651.921 37.18 651.315 37.1133 650.688 36.98C650.075 36.8467 649.508 36.62 648.988 36.3C648.815 36.18 648.695 36.0467 648.628 35.9C648.561 35.7533 648.535 35.6067 648.548 35.46C648.575 35.3 648.635 35.1667 648.728 35.06C648.835 34.94 648.961 34.8667 649.108 34.84C649.268 34.8133 649.435 34.8467 649.608 34.94C650.128 35.2333 650.628 35.44 651.108 35.56C651.588 35.6667 652.061 35.72 652.528 35.72C653.235 35.72 653.768 35.5933 654.128 35.34C654.488 35.0867 654.668 34.7467 654.668 34.32C654.668 33.9733 654.548 33.7067 654.308 33.52C654.068 33.32 653.708 33.1667 653.228 33.06L651.328 32.68C650.501 32.5067 649.875 32.2 649.448 31.76C649.021 31.32 648.808 30.76 648.808 30.08C648.808 29.4667 648.975 28.9333 649.308 28.48C649.641 28.0267 650.108 27.68 650.708 27.44C651.308 27.1867 652.001 27.06 652.788 27.06C653.375 27.06 653.928 27.1333 654.448 27.28C654.968 27.4267 655.448 27.6467 655.888 27.94C656.061 28.0333 656.175 28.16 656.228 28.32C656.281 28.4667 656.288 28.6133 656.248 28.76C656.221 28.9067 656.155 29.04 656.048 29.16C655.941 29.2667 655.808 29.3333 655.648 29.36C655.501 29.3733 655.335 29.3333 655.148 29.24C654.748 28.9867 654.348 28.8067 653.948 28.7C653.561 28.5933 653.175 28.54 652.788 28.54C652.081 28.54 651.548 28.6733 651.188 28.94C650.841 29.1933 650.668 29.54 650.668 29.98C650.668 30.3133 650.775 30.5867 650.988 30.8C651.201 31.0133 651.535 31.1667 651.988 31.26L653.888 31.64C654.755 31.8133 655.408 32.1067 655.848 32.52C656.301 32.9333 656.528 33.4933 656.528 34.2C656.528 35.12 656.161 35.8467 655.428 36.38C654.695 36.9133 653.721 37.18 652.508 37.18ZM662.855 37.18C661.789 37.18 660.869 36.98 660.095 36.58C659.335 36.1667 658.742 35.5867 658.315 34.84C657.902 34.08 657.695 33.18 657.695 32.14C657.695 31.1267 657.902 30.24 658.315 29.48C658.729 28.72 659.295 28.1267 660.015 27.7C660.735 27.2733 661.555 27.06 662.475 27.06C663.155 27.06 663.762 27.1733 664.295 27.4C664.829 27.6133 665.282 27.9333 665.655 28.36C666.042 28.7733 666.329 29.28 666.515 29.88C666.715 30.48 666.815 31.1533 666.815 31.9C666.815 32.1267 666.749 32.3 666.615 32.42C666.482 32.5267 666.282 32.58 666.015 32.58H659.295V31.34H665.455L665.115 31.62C665.115 30.9533 665.015 30.3867 664.815 29.92C664.629 29.4533 664.342 29.1 663.955 28.86C663.582 28.6067 663.115 28.48 662.555 28.48C661.929 28.48 661.395 28.6267 660.955 28.92C660.529 29.2133 660.202 29.62 659.975 30.14C659.749 30.66 659.635 31.2667 659.635 31.96V32.08C659.635 33.2533 659.909 34.14 660.455 34.74C661.015 35.3267 661.822 35.62 662.875 35.62C663.275 35.62 663.695 35.5667 664.135 35.46C664.589 35.3533 665.015 35.1733 665.415 34.92C665.642 34.7867 665.842 34.7267 666.015 34.74C666.202 34.7533 666.349 34.8133 666.455 34.92C666.575 35.0267 666.649 35.16 666.675 35.32C666.702 35.48 666.675 35.6467 666.595 35.82C666.515 35.98 666.375 36.1267 666.175 36.26C665.722 36.5667 665.195 36.8 664.595 36.96C663.995 37.1067 663.415 37.18 662.855 37.18Z" fill="#201F1F"/>
<path d="M579.5 60.5H1159" stroke="#CDCCCB"/>
<rect width="579.5" height="49" transform="translate(579.5 61)" fill="white"/>
<path d="M596.672 91V79.5469H598.188V89.6484H603.828V91H596.672ZM611.141 88.3281L612.594 88.5078C612.365 89.3568 611.94 90.0156 611.32 90.4844C610.701 90.9531 609.909 91.1875 608.945 91.1875C607.732 91.1875 606.768 90.8151 606.055 90.0703C605.346 89.3203 604.992 88.2708 604.992 86.9219C604.992 85.526 605.352 84.4427 606.07 83.6719C606.789 82.901 607.721 82.5156 608.867 82.5156C609.977 82.5156 610.883 82.8932 611.586 83.6484C612.289 84.4036 612.641 85.4661 612.641 86.8359C612.641 86.9193 612.638 87.0443 612.633 87.2109H606.445C606.497 88.1224 606.755 88.8203 607.219 89.3047C607.682 89.7891 608.26 90.0312 608.953 90.0312C609.469 90.0312 609.909 89.8958 610.273 89.625C610.638 89.3542 610.927 88.9219 611.141 88.3281ZM606.523 86.0547H611.156C611.094 85.3568 610.917 84.8333 610.625 84.4844C610.177 83.9427 609.596 83.6719 608.883 83.6719C608.237 83.6719 607.693 83.888 607.25 84.3203C606.812 84.7526 606.57 85.3307 606.523 86.0547ZM621.891 89.7422L622.094 90.9844C621.698 91.0677 621.344 91.1094 621.031 91.1094C620.521 91.1094 620.125 91.0286 619.844 90.8672C619.562 90.7057 619.365 90.4948 619.25 90.2344C619.135 89.9688 619.078 89.4141 619.078 88.5703V83.7969H618.047V82.7031H619.078V80.6484L620.477 79.8047V82.7031H621.891V83.7969H620.477V88.6484C620.477 89.0495 620.5 89.3073 620.547 89.4219C620.599 89.5365 620.68 89.6276 620.789 89.6953C620.904 89.763 621.065 89.7969 621.273 89.7969C621.43 89.7969 621.635 89.7786 621.891 89.7422ZM628.953 88.3281L630.406 88.5078C630.177 89.3568 629.753 90.0156 629.133 90.4844C628.513 90.9531 627.721 91.1875 626.758 91.1875C625.544 91.1875 624.581 90.8151 623.867 90.0703C623.159 89.3203 622.805 88.2708 622.805 86.9219C622.805 85.526 623.164 84.4427 623.883 83.6719C624.602 82.901 625.534 82.5156 626.68 82.5156C627.789 82.5156 628.695 82.8932 629.398 83.6484C630.102 84.4036 630.453 85.4661 630.453 86.8359C630.453 86.9193 630.451 87.0443 630.445 87.2109H624.258C624.31 88.1224 624.568 88.8203 625.031 89.3047C625.495 89.7891 626.073 90.0312 626.766 90.0312C627.281 90.0312 627.721 89.8958 628.086 89.625C628.451 89.3542 628.74 88.9219 628.953 88.3281ZM624.336 86.0547H628.969C628.906 85.3568 628.729 84.8333 628.438 84.4844C627.99 83.9427 627.409 83.6719 626.695 83.6719C626.049 83.6719 625.505 83.888 625.062 84.3203C624.625 84.7526 624.383 85.3307 624.336 86.0547ZM631.242 91L634.273 86.6875L631.469 82.7031H633.227L634.5 84.6484C634.74 85.0182 634.932 85.3281 635.078 85.5781C635.307 85.2344 635.518 84.9297 635.711 84.6641L637.109 82.7031H638.789L635.922 86.6094L639.008 91H637.281L635.578 88.4219L635.125 87.7266L632.945 91H631.242ZM643.25 89.7422L643.453 90.9844C643.057 91.0677 642.703 91.1094 642.391 91.1094C641.88 91.1094 641.484 91.0286 641.203 90.8672C640.922 90.7057 640.724 90.4948 640.609 90.2344C640.495 89.9688 640.438 89.4141 640.438 88.5703V83.7969H639.406V82.7031H640.438V80.6484L641.836 79.8047V82.7031H643.25V83.7969H641.836V88.6484C641.836 89.0495 641.859 89.3073 641.906 89.4219C641.958 89.5365 642.039 89.6276 642.148 89.6953C642.263 89.763 642.424 89.7969 642.633 89.7969C642.789 89.7969 642.995 89.7786 643.25 89.7422ZM650.312 88.3281L651.766 88.5078C651.536 89.3568 651.112 90.0156 650.492 90.4844C649.872 90.9531 649.081 91.1875 648.117 91.1875C646.904 91.1875 645.94 90.8151 645.227 90.0703C644.518 89.3203 644.164 88.2708 644.164 86.9219C644.164 85.526 644.523 84.4427 645.242 83.6719C645.961 82.901 646.893 82.5156 648.039 82.5156C649.148 82.5156 650.055 82.8932 650.758 83.6484C651.461 84.4036 651.812 85.4661 651.812 86.8359C651.812 86.9193 651.81 87.0443 651.805 87.2109H645.617C645.669 88.1224 645.927 88.8203 646.391 89.3047C646.854 89.7891 647.432 90.0312 648.125 90.0312C648.641 90.0312 649.081 89.8958 649.445 89.625C649.81 89.3542 650.099 88.9219 650.312 88.3281ZM645.695 86.0547H650.328C650.266 85.3568 650.089 84.8333 649.797 84.4844C649.349 83.9427 648.768 83.6719 648.055 83.6719C647.409 83.6719 646.865 83.888 646.422 84.3203C645.984 84.7526 645.742 85.3307 645.695 86.0547ZM663.672 88.3281L665.125 88.5078C664.896 89.3568 664.471 90.0156 663.852 90.4844C663.232 90.9531 662.44 91.1875 661.477 91.1875C660.263 91.1875 659.299 90.8151 658.586 90.0703C657.878 89.3203 657.523 88.2708 657.523 86.9219C657.523 85.526 657.883 84.4427 658.602 83.6719C659.32 82.901 660.253 82.5156 661.398 82.5156C662.508 82.5156 663.414 82.8932 664.117 83.6484C664.82 84.4036 665.172 85.4661 665.172 86.8359C665.172 86.9193 665.169 87.0443 665.164 87.2109H658.977C659.029 88.1224 659.286 88.8203 659.75 89.3047C660.214 89.7891 660.792 90.0312 661.484 90.0312C662 90.0312 662.44 89.8958 662.805 89.625C663.169 89.3542 663.458 88.9219 663.672 88.3281ZM659.055 86.0547H663.688C663.625 85.3568 663.448 84.8333 663.156 84.4844C662.708 83.9427 662.128 83.6719 661.414 83.6719C660.768 83.6719 660.224 83.888 659.781 84.3203C659.344 84.7526 659.102 85.3307 659.055 86.0547ZM666.336 88.5234L667.727 88.3047C667.805 88.862 668.021 89.2891 668.375 89.5859C668.734 89.8828 669.234 90.0312 669.875 90.0312C670.521 90.0312 671 89.901 671.312 89.6406C671.625 89.375 671.781 89.0651 671.781 88.7109C671.781 88.3932 671.643 88.1432 671.367 87.9609C671.174 87.8359 670.695 87.6771 669.93 87.4844C668.898 87.224 668.182 87 667.781 86.8125C667.385 86.6198 667.083 86.3568 666.875 86.0234C666.672 85.6849 666.57 85.3125 666.57 84.9062C666.57 84.5365 666.654 84.1953 666.82 83.8828C666.992 83.5651 667.224 83.3021 667.516 83.0938C667.734 82.9323 668.031 82.7969 668.406 82.6875C668.786 82.5729 669.193 82.5156 669.625 82.5156C670.276 82.5156 670.846 82.6094 671.336 82.7969C671.831 82.9844 672.195 83.2396 672.43 83.5625C672.664 83.8802 672.826 84.3073 672.914 84.8438L671.539 85.0312C671.477 84.6042 671.294 84.2708 670.992 84.0312C670.695 83.7917 670.273 83.6719 669.727 83.6719C669.081 83.6719 668.62 83.7786 668.344 83.9922C668.068 84.2057 667.93 84.4557 667.93 84.7422C667.93 84.9245 667.987 85.0885 668.102 85.2344C668.216 85.3854 668.396 85.5104 668.641 85.6094C668.781 85.6615 669.195 85.7812 669.883 85.9688C670.878 86.2344 671.57 86.4531 671.961 86.625C672.357 86.7917 672.667 87.0365 672.891 87.3594C673.115 87.6823 673.227 88.0833 673.227 88.5625C673.227 89.0312 673.089 89.474 672.812 89.8906C672.542 90.3021 672.148 90.6224 671.633 90.8516C671.117 91.0755 670.534 91.1875 669.883 91.1875C668.805 91.1875 667.982 90.9635 667.414 90.5156C666.852 90.0677 666.492 89.4036 666.336 88.5234ZM677.969 89.7422L678.172 90.9844C677.776 91.0677 677.422 91.1094 677.109 91.1094C676.599 91.1094 676.203 91.0286 675.922 90.8672C675.641 90.7057 675.443 90.4948 675.328 90.2344C675.214 89.9688 675.156 89.4141 675.156 88.5703V83.7969H674.125V82.7031H675.156V80.6484L676.555 79.8047V82.7031H677.969V83.7969H676.555V88.6484C676.555 89.0495 676.578 89.3073 676.625 89.4219C676.677 89.5365 676.758 89.6276 676.867 89.6953C676.982 89.763 677.143 89.7969 677.352 89.7969C677.508 89.7969 677.714 89.7786 677.969 89.7422ZM683.805 94.1797V82.7031H685.086V83.7812C685.388 83.3594 685.729 83.0443 686.109 82.8359C686.49 82.6224 686.951 82.5156 687.492 82.5156C688.201 82.5156 688.826 82.6979 689.367 83.0625C689.909 83.4271 690.318 83.9427 690.594 84.6094C690.87 85.2708 691.008 85.9974 691.008 86.7891C691.008 87.638 690.854 88.4036 690.547 89.0859C690.245 89.763 689.802 90.2839 689.219 90.6484C688.641 91.0078 688.031 91.1875 687.391 91.1875C686.922 91.1875 686.5 91.0885 686.125 90.8906C685.755 90.6927 685.451 90.4427 685.211 90.1406V94.1797H683.805ZM685.078 86.8984C685.078 87.9661 685.294 88.7552 685.727 89.2656C686.159 89.776 686.682 90.0312 687.297 90.0312C687.922 90.0312 688.456 89.7682 688.898 89.2422C689.346 88.7109 689.57 87.8906 689.57 86.7812C689.57 85.724 689.352 84.9323 688.914 84.4062C688.482 83.8802 687.964 83.6172 687.359 83.6172C686.76 83.6172 686.229 83.8984 685.766 84.4609C685.307 85.0182 685.078 85.8307 685.078 86.8984ZM692.188 86.8516C692.188 85.3151 692.615 84.1771 693.469 83.4375C694.182 82.8229 695.052 82.5156 696.078 82.5156C697.219 82.5156 698.151 82.8906 698.875 83.6406C699.599 84.3854 699.961 85.4167 699.961 86.7344C699.961 87.8021 699.799 88.6432 699.477 89.2578C699.159 89.8672 698.693 90.3411 698.078 90.6797C697.469 91.0182 696.802 91.1875 696.078 91.1875C694.917 91.1875 693.977 90.8151 693.258 90.0703C692.544 89.3255 692.188 88.2526 692.188 86.8516ZM693.633 86.8516C693.633 87.9141 693.865 88.7109 694.328 89.2422C694.792 89.7682 695.375 90.0312 696.078 90.0312C696.776 90.0312 697.357 89.7656 697.82 89.2344C698.284 88.7031 698.516 87.8932 698.516 86.8047C698.516 85.7786 698.281 85.0026 697.812 84.4766C697.349 83.9453 696.771 83.6797 696.078 83.6797C695.375 83.6797 694.792 83.9427 694.328 84.4688C693.865 84.9948 693.633 85.7891 693.633 86.8516ZM701.055 88.5234L702.445 88.3047C702.523 88.862 702.74 89.2891 703.094 89.5859C703.453 89.8828 703.953 90.0312 704.594 90.0312C705.24 90.0312 705.719 89.901 706.031 89.6406C706.344 89.375 706.5 89.0651 706.5 88.7109C706.5 88.3932 706.362 88.1432 706.086 87.9609C705.893 87.8359 705.414 87.6771 704.648 87.4844C703.617 87.224 702.901 87 702.5 86.8125C702.104 86.6198 701.802 86.3568 701.594 86.0234C701.391 85.6849 701.289 85.3125 701.289 84.9062C701.289 84.5365 701.372 84.1953 701.539 83.8828C701.711 83.5651 701.943 83.3021 702.234 83.0938C702.453 82.9323 702.75 82.7969 703.125 82.6875C703.505 82.5729 703.911 82.5156 704.344 82.5156C704.995 82.5156 705.565 82.6094 706.055 82.7969C706.549 82.9844 706.914 83.2396 707.148 83.5625C707.383 83.8802 707.544 84.3073 707.633 84.8438L706.258 85.0312C706.195 84.6042 706.013 84.2708 705.711 84.0312C705.414 83.7917 704.992 83.6719 704.445 83.6719C703.799 83.6719 703.339 83.7786 703.062 83.9922C702.786 84.2057 702.648 84.4557 702.648 84.7422C702.648 84.9245 702.706 85.0885 702.82 85.2344C702.935 85.3854 703.115 85.5104 703.359 85.6094C703.5 85.6615 703.914 85.7812 704.602 85.9688C705.596 86.2344 706.289 86.4531 706.68 86.625C707.076 86.7917 707.385 87.0365 707.609 87.3594C707.833 87.6823 707.945 88.0833 707.945 88.5625C707.945 89.0312 707.807 89.474 707.531 89.8906C707.26 90.3021 706.867 90.6224 706.352 90.8516C705.836 91.0755 705.253 91.1875 704.602 91.1875C703.523 91.1875 702.701 90.9635 702.133 90.5156C701.57 90.0677 701.211 89.4036 701.055 88.5234ZM709.625 81.1641V79.5469H711.031V81.1641H709.625ZM709.625 91V82.7031H711.031V91H709.625ZM716.25 89.7422L716.453 90.9844C716.057 91.0677 715.703 91.1094 715.391 91.1094C714.88 91.1094 714.484 91.0286 714.203 90.8672C713.922 90.7057 713.724 90.4948 713.609 90.2344C713.495 89.9688 713.438 89.4141 713.438 88.5703V83.7969H712.406V82.7031H713.438V80.6484L714.836 79.8047V82.7031H716.25V83.7969H714.836V88.6484C714.836 89.0495 714.859 89.3073 714.906 89.4219C714.958 89.5365 715.039 89.6276 715.148 89.6953C715.263 89.763 715.424 89.7969 715.633 89.7969C715.789 89.7969 715.995 89.7786 716.25 89.7422ZM717.641 81.1641V79.5469H719.047V81.1641H717.641ZM717.641 91V82.7031H719.047V91H717.641ZM720.672 86.8516C720.672 85.3151 721.099 84.1771 721.953 83.4375C722.667 82.8229 723.536 82.5156 724.562 82.5156C725.703 82.5156 726.635 82.8906 727.359 83.6406C728.083 84.3854 728.445 85.4167 728.445 86.7344C728.445 87.8021 728.284 88.6432 727.961 89.2578C727.643 89.8672 727.177 90.3411 726.562 90.6797C725.953 91.0182 725.286 91.1875 724.562 91.1875C723.401 91.1875 722.461 90.8151 721.742 90.0703C721.029 89.3255 720.672 88.2526 720.672 86.8516ZM722.117 86.8516C722.117 87.9141 722.349 88.7109 722.812 89.2422C723.276 89.7682 723.859 90.0312 724.562 90.0312C725.26 90.0312 725.841 89.7656 726.305 89.2344C726.768 88.7031 727 87.8932 727 86.8047C727 85.7786 726.766 85.0026 726.297 84.4766C725.833 83.9453 725.255 83.6797 724.562 83.6797C723.859 83.6797 723.276 83.9427 722.812 84.4688C722.349 84.9948 722.117 85.7891 722.117 86.8516ZM730.102 91V82.7031H731.367V83.8828C731.977 82.9714 732.857 82.5156 734.008 82.5156C734.508 82.5156 734.966 82.6068 735.383 82.7891C735.805 82.9661 736.12 83.2005 736.328 83.4922C736.536 83.7839 736.682 84.1302 736.766 84.5312C736.818 84.7917 736.844 85.2474 736.844 85.8984V91H735.438V85.9531C735.438 85.3802 735.383 84.9531 735.273 84.6719C735.164 84.3854 734.969 84.1589 734.688 83.9922C734.411 83.8203 734.086 83.7344 733.711 83.7344C733.112 83.7344 732.594 83.9245 732.156 84.3047C731.724 84.6849 731.508 85.4062 731.508 86.4688V91H730.102ZM739.008 91V82.7031H740.273V83.8828C740.883 82.9714 741.763 82.5156 742.914 82.5156C743.414 82.5156 743.872 82.6068 744.289 82.7891C744.711 82.9661 745.026 83.2005 745.234 83.4922C745.443 83.7839 745.589 84.1302 745.672 84.5312C745.724 84.7917 745.75 85.2474 745.75 85.8984V91H744.344V85.9531C744.344 85.3802 744.289 84.9531 744.18 84.6719C744.07 84.3854 743.875 84.1589 743.594 83.9922C743.318 83.8203 742.992 83.7344 742.617 83.7344C742.018 83.7344 741.5 83.9245 741.062 84.3047C740.63 84.6849 740.414 85.4062 740.414 86.4688V91H739.008ZM753.594 88.3281L755.047 88.5078C754.818 89.3568 754.393 90.0156 753.773 90.4844C753.154 90.9531 752.362 91.1875 751.398 91.1875C750.185 91.1875 749.221 90.8151 748.508 90.0703C747.799 89.3203 747.445 88.2708 747.445 86.9219C747.445 85.526 747.805 84.4427 748.523 83.6719C749.242 82.901 750.174 82.5156 751.32 82.5156C752.43 82.5156 753.336 82.8932 754.039 83.6484C754.742 84.4036 755.094 85.4661 755.094 86.8359C755.094 86.9193 755.091 87.0443 755.086 87.2109H748.898C748.951 88.1224 749.208 88.8203 749.672 89.3047C750.135 89.7891 750.714 90.0312 751.406 90.0312C751.922 90.0312 752.362 89.8958 752.727 89.625C753.091 89.3542 753.38 88.9219 753.594 88.3281ZM748.977 86.0547H753.609C753.547 85.3568 753.37 84.8333 753.078 84.4844C752.63 83.9427 752.049 83.6719 751.336 83.6719C750.69 83.6719 750.146 83.888 749.703 84.3203C749.266 84.7526 749.023 85.3307 748.977 86.0547ZM750.492 81.6719L751.531 79.4844H753.375L751.656 81.6719H750.492ZM766.688 89.9766C766.167 90.4193 765.664 90.7318 765.18 90.9141C764.701 91.0964 764.185 91.1875 763.633 91.1875C762.721 91.1875 762.021 90.9661 761.531 90.5234C761.042 90.0755 760.797 89.5052 760.797 88.8125C760.797 88.4062 760.888 88.0365 761.07 87.7031C761.258 87.3646 761.5 87.0938 761.797 86.8906C762.099 86.6875 762.438 86.5339 762.812 86.4297C763.089 86.3568 763.505 86.2865 764.062 86.2188C765.198 86.0833 766.034 85.9219 766.57 85.7344C766.576 85.5417 766.578 85.4193 766.578 85.3672C766.578 84.7943 766.445 84.3906 766.18 84.1562C765.82 83.8385 765.286 83.6797 764.578 83.6797C763.917 83.6797 763.427 83.7969 763.109 84.0312C762.797 84.2604 762.565 84.6693 762.414 85.2578L761.039 85.0703C761.164 84.4818 761.37 84.0078 761.656 83.6484C761.943 83.2839 762.357 83.0052 762.898 82.8125C763.44 82.6146 764.068 82.5156 764.781 82.5156C765.49 82.5156 766.065 82.599 766.508 82.7656C766.951 82.9323 767.276 83.1432 767.484 83.3984C767.693 83.6484 767.839 83.9661 767.922 84.3516C767.969 84.5911 767.992 85.0234 767.992 85.6484V87.5234C767.992 88.8307 768.021 89.6589 768.078 90.0078C768.141 90.3516 768.26 90.6823 768.438 91H766.969C766.823 90.7083 766.729 90.3672 766.688 89.9766ZM766.57 86.8359C766.06 87.0443 765.294 87.2214 764.273 87.3672C763.695 87.4505 763.286 87.5443 763.047 87.6484C762.807 87.7526 762.622 87.9062 762.492 88.1094C762.362 88.3073 762.297 88.5286 762.297 88.7734C762.297 89.1484 762.438 89.4609 762.719 89.7109C763.005 89.9609 763.422 90.0859 763.969 90.0859C764.51 90.0859 764.992 89.9688 765.414 89.7344C765.836 89.4948 766.146 89.1693 766.344 88.7578C766.495 88.4401 766.57 87.9714 766.57 87.3516V86.8359ZM765.805 81.6719H764.672L762.867 79.4844H764.75L765.805 81.6719ZM780.016 91V89.9531C779.49 90.776 778.716 91.1875 777.695 91.1875C777.034 91.1875 776.424 91.0052 775.867 90.6406C775.315 90.276 774.885 89.7682 774.578 89.1172C774.276 88.4609 774.125 87.7083 774.125 86.8594C774.125 86.0312 774.263 85.2812 774.539 84.6094C774.815 83.9323 775.229 83.4141 775.781 83.0547C776.333 82.6953 776.951 82.5156 777.633 82.5156C778.133 82.5156 778.578 82.6224 778.969 82.8359C779.359 83.0443 779.677 83.3177 779.922 83.6562V79.5469H781.32V91H780.016ZM775.57 86.8594C775.57 87.9219 775.794 88.7161 776.242 89.2422C776.69 89.7682 777.219 90.0312 777.828 90.0312C778.443 90.0312 778.964 89.7812 779.391 89.2812C779.823 88.776 780.039 88.0078 780.039 86.9766C780.039 85.8411 779.82 85.0078 779.383 84.4766C778.945 83.9453 778.406 83.6797 777.766 83.6797C777.141 83.6797 776.617 83.9349 776.195 84.4453C775.779 84.9557 775.57 85.7604 775.57 86.8594ZM783.523 91V82.7031H784.789V83.9609C785.112 83.3724 785.409 82.9844 785.68 82.7969C785.956 82.6094 786.258 82.5156 786.586 82.5156C787.06 82.5156 787.542 82.6667 788.031 82.9688L787.547 84.2734C787.203 84.0703 786.859 83.9688 786.516 83.9688C786.208 83.9688 785.932 84.0625 785.688 84.25C785.443 84.4323 785.268 84.6875 785.164 85.0156C785.008 85.5156 784.93 86.0625 784.93 86.6562V91H783.523ZM788.344 86.8516C788.344 85.3151 788.771 84.1771 789.625 83.4375C790.339 82.8229 791.208 82.5156 792.234 82.5156C793.375 82.5156 794.307 82.8906 795.031 83.6406C795.755 84.3854 796.117 85.4167 796.117 86.7344C796.117 87.8021 795.956 88.6432 795.633 89.2578C795.315 89.8672 794.849 90.3411 794.234 90.6797C793.625 91.0182 792.958 91.1875 792.234 91.1875C791.073 91.1875 790.133 90.8151 789.414 90.0703C788.701 89.3255 788.344 88.2526 788.344 86.8516ZM789.789 86.8516C789.789 87.9141 790.021 88.7109 790.484 89.2422C790.948 89.7682 791.531 90.0312 792.234 90.0312C792.932 90.0312 793.513 89.7656 793.977 89.2344C794.44 88.7031 794.672 87.8932 794.672 86.8047C794.672 85.7786 794.438 85.0026 793.969 84.4766C793.505 83.9453 792.927 83.6797 792.234 83.6797C791.531 83.6797 790.948 83.9427 790.484 84.4688C790.021 84.9948 789.789 85.7891 789.789 86.8516ZM797.781 81.1641V79.5469H799.188V81.1641H797.781ZM797.781 91V82.7031H799.188V91H797.781ZM804.406 89.7422L804.609 90.9844C804.214 91.0677 803.859 91.1094 803.547 91.1094C803.036 91.1094 802.641 91.0286 802.359 90.8672C802.078 90.7057 801.88 90.4948 801.766 90.2344C801.651 89.9688 801.594 89.4141 801.594 88.5703V83.7969H800.562V82.7031H801.594V80.6484L802.992 79.8047V82.7031H804.406V83.7969H802.992V88.6484C802.992 89.0495 803.016 89.3073 803.062 89.4219C803.115 89.5365 803.195 89.6276 803.305 89.6953C803.419 89.763 803.581 89.7969 803.789 89.7969C803.945 89.7969 804.151 89.7786 804.406 89.7422ZM811.469 88.3281L812.922 88.5078C812.693 89.3568 812.268 90.0156 811.648 90.4844C811.029 90.9531 810.237 91.1875 809.273 91.1875C808.06 91.1875 807.096 90.8151 806.383 90.0703C805.674 89.3203 805.32 88.2708 805.32 86.9219C805.32 85.526 805.68 84.4427 806.398 83.6719C807.117 82.901 808.049 82.5156 809.195 82.5156C810.305 82.5156 811.211 82.8932 811.914 83.6484C812.617 84.4036 812.969 85.4661 812.969 86.8359C812.969 86.9193 812.966 87.0443 812.961 87.2109H806.773C806.826 88.1224 807.083 88.8203 807.547 89.3047C808.01 89.7891 808.589 90.0312 809.281 90.0312C809.797 90.0312 810.237 89.8958 810.602 89.625C810.966 89.3542 811.255 88.9219 811.469 88.3281ZM806.852 86.0547H811.484C811.422 85.3568 811.245 84.8333 810.953 84.4844C810.505 83.9427 809.924 83.6719 809.211 83.6719C808.565 83.6719 808.021 83.888 807.578 84.3203C807.141 84.7526 806.898 85.3307 806.852 86.0547ZM824.531 91V89.9531C824.005 90.776 823.232 91.1875 822.211 91.1875C821.549 91.1875 820.94 91.0052 820.383 90.6406C819.831 90.276 819.401 89.7682 819.094 89.1172C818.792 88.4609 818.641 87.7083 818.641 86.8594C818.641 86.0312 818.779 85.2812 819.055 84.6094C819.331 83.9323 819.745 83.4141 820.297 83.0547C820.849 82.6953 821.466 82.5156 822.148 82.5156C822.648 82.5156 823.094 82.6224 823.484 82.8359C823.875 83.0443 824.193 83.3177 824.438 83.6562V79.5469H825.836V91H824.531ZM820.086 86.8594C820.086 87.9219 820.31 88.7161 820.758 89.2422C821.206 89.7682 821.734 90.0312 822.344 90.0312C822.958 90.0312 823.479 89.7812 823.906 89.2812C824.339 88.776 824.555 88.0078 824.555 86.9766C824.555 85.8411 824.336 85.0078 823.898 84.4766C823.461 83.9453 822.922 83.6797 822.281 83.6797C821.656 83.6797 821.133 83.9349 820.711 84.4453C820.294 84.9557 820.086 85.7604 820.086 86.8594ZM833.492 91V89.7812C832.846 90.7188 831.969 91.1875 830.859 91.1875C830.37 91.1875 829.911 91.0938 829.484 90.9062C829.062 90.7188 828.747 90.4844 828.539 90.2031C828.336 89.9167 828.193 89.5677 828.109 89.1562C828.052 88.8802 828.023 88.4427 828.023 87.8438V82.7031H829.43V87.3047C829.43 88.0391 829.458 88.5339 829.516 88.7891C829.604 89.1589 829.792 89.4505 830.078 89.6641C830.365 89.8724 830.719 89.9766 831.141 89.9766C831.562 89.9766 831.958 89.8698 832.328 89.6562C832.698 89.4375 832.958 89.1432 833.109 88.7734C833.266 88.3984 833.344 87.8568 833.344 87.1484V82.7031H834.75V91H833.492ZM840.852 88.5234L842.242 88.3047C842.32 88.862 842.536 89.2891 842.891 89.5859C843.25 89.8828 843.75 90.0312 844.391 90.0312C845.036 90.0312 845.516 89.901 845.828 89.6406C846.141 89.375 846.297 89.0651 846.297 88.7109C846.297 88.3932 846.159 88.1432 845.883 87.9609C845.69 87.8359 845.211 87.6771 844.445 87.4844C843.414 87.224 842.698 87 842.297 86.8125C841.901 86.6198 841.599 86.3568 841.391 86.0234C841.188 85.6849 841.086 85.3125 841.086 84.9062C841.086 84.5365 841.169 84.1953 841.336 83.8828C841.508 83.5651 841.74 83.3021 842.031 83.0938C842.25 82.9323 842.547 82.7969 842.922 82.6875C843.302 82.5729 843.708 82.5156 844.141 82.5156C844.792 82.5156 845.362 82.6094 845.852 82.7969C846.346 82.9844 846.711 83.2396 846.945 83.5625C847.18 83.8802 847.341 84.3073 847.43 84.8438L846.055 85.0312C845.992 84.6042 845.81 84.2708 845.508 84.0312C845.211 83.7917 844.789 83.6719 844.242 83.6719C843.596 83.6719 843.135 83.7786 842.859 83.9922C842.583 84.2057 842.445 84.4557 842.445 84.7422C842.445 84.9245 842.503 85.0885 842.617 85.2344C842.732 85.3854 842.911 85.5104 843.156 85.6094C843.297 85.6615 843.711 85.7812 844.398 85.9688C845.393 86.2344 846.086 86.4531 846.477 86.625C846.872 86.7917 847.182 87.0365 847.406 87.3594C847.63 87.6823 847.742 88.0833 847.742 88.5625C847.742 89.0312 847.604 89.474 847.328 89.8906C847.057 90.3021 846.664 90.6224 846.148 90.8516C845.633 91.0755 845.049 91.1875 844.398 91.1875C843.32 91.1875 842.497 90.9635 841.93 90.5156C841.367 90.0677 841.008 89.4036 840.852 88.5234ZM849.414 94.1797V82.7031H850.695V83.7812C850.997 83.3594 851.339 83.0443 851.719 82.8359C852.099 82.6224 852.56 82.5156 853.102 82.5156C853.81 82.5156 854.435 82.6979 854.977 83.0625C855.518 83.4271 855.927 83.9427 856.203 84.6094C856.479 85.2708 856.617 85.9974 856.617 86.7891C856.617 87.638 856.464 88.4036 856.156 89.0859C855.854 89.763 855.411 90.2839 854.828 90.6484C854.25 91.0078 853.641 91.1875 853 91.1875C852.531 91.1875 852.109 91.0885 851.734 90.8906C851.365 90.6927 851.06 90.4427 850.82 90.1406V94.1797H849.414ZM850.688 86.8984C850.688 87.9661 850.904 88.7552 851.336 89.2656C851.768 89.776 852.292 90.0312 852.906 90.0312C853.531 90.0312 854.065 89.7682 854.508 89.2422C854.956 88.7109 855.18 87.8906 855.18 86.7812C855.18 85.724 854.961 84.9323 854.523 84.4062C854.091 83.8802 853.573 83.6172 852.969 83.6172C852.37 83.6172 851.839 83.8984 851.375 84.4609C850.917 85.0182 850.688 85.8307 850.688 86.8984ZM858.328 81.1641V79.5469H859.734V81.1641H858.328ZM858.328 91V82.7031H859.734V91H858.328ZM861.883 91V82.7031H863.148V83.8828C863.758 82.9714 864.638 82.5156 865.789 82.5156C866.289 82.5156 866.747 82.6068 867.164 82.7891C867.586 82.9661 867.901 83.2005 868.109 83.4922C868.318 83.7839 868.464 84.1302 868.547 84.5312C868.599 84.7917 868.625 85.2474 868.625 85.8984V91H867.219V85.9531C867.219 85.3802 867.164 84.9531 867.055 84.6719C866.945 84.3854 866.75 84.1589 866.469 83.9922C866.193 83.8203 865.867 83.7344 865.492 83.7344C864.893 83.7344 864.375 83.9245 863.938 84.3047C863.505 84.6849 863.289 85.4062 863.289 86.4688V91H861.883ZM870.789 91V82.7031H872.055V83.8828C872.664 82.9714 873.544 82.5156 874.695 82.5156C875.195 82.5156 875.654 82.6068 876.07 82.7891C876.492 82.9661 876.807 83.2005 877.016 83.4922C877.224 83.7839 877.37 84.1302 877.453 84.5312C877.505 84.7917 877.531 85.2474 877.531 85.8984V91H876.125V85.9531C876.125 85.3802 876.07 84.9531 875.961 84.6719C875.852 84.3854 875.656 84.1589 875.375 83.9922C875.099 83.8203 874.773 83.7344 874.398 83.7344C873.799 83.7344 873.281 83.9245 872.844 84.3047C872.411 84.6849 872.195 85.4062 872.195 86.4688V91H870.789ZM885.375 88.3281L886.828 88.5078C886.599 89.3568 886.174 90.0156 885.555 90.4844C884.935 90.9531 884.143 91.1875 883.18 91.1875C881.966 91.1875 881.003 90.8151 880.289 90.0703C879.581 89.3203 879.227 88.2708 879.227 86.9219C879.227 85.526 879.586 84.4427 880.305 83.6719C881.023 82.901 881.956 82.5156 883.102 82.5156C884.211 82.5156 885.117 82.8932 885.82 83.6484C886.523 84.4036 886.875 85.4661 886.875 86.8359C886.875 86.9193 886.872 87.0443 886.867 87.2109H880.68C880.732 88.1224 880.99 88.8203 881.453 89.3047C881.917 89.7891 882.495 90.0312 883.188 90.0312C883.703 90.0312 884.143 89.8958 884.508 89.625C884.872 89.3542 885.161 88.9219 885.375 88.3281ZM880.758 86.0547H885.391C885.328 85.3568 885.151 84.8333 884.859 84.4844C884.411 83.9427 883.831 83.6719 883.117 83.6719C882.471 83.6719 881.927 83.888 881.484 84.3203C881.047 84.7526 880.805 85.3307 880.758 86.0547ZM888.586 91V82.7031H889.852V83.9609C890.174 83.3724 890.471 82.9844 890.742 82.7969C891.018 82.6094 891.32 82.5156 891.648 82.5156C892.122 82.5156 892.604 82.6667 893.094 82.9688L892.609 84.2734C892.266 84.0703 891.922 83.9688 891.578 83.9688C891.271 83.9688 890.995 84.0625 890.75 84.25C890.505 84.4323 890.331 84.6875 890.227 85.0156C890.07 85.5156 889.992 86.0625 889.992 86.6562V91H888.586Z" fill="#3E3E3D"/>
<g opacity="0.5">
<path d="M579.5 109.5H1159" stroke="#CDCCCB"/>
</g>
<rect width="579.5" height="49" transform="translate(579.5 110)" fill="white"/>
<path d="M596.672 140V128.547H598.188V138.648H603.828V140H596.672ZM611.141 137.328L612.594 137.508C612.365 138.357 611.94 139.016 611.32 139.484C610.701 139.953 609.909 140.188 608.945 140.188C607.732 140.188 606.768 139.815 606.055 139.07C605.346 138.32 604.992 137.271 604.992 135.922C604.992 134.526 605.352 133.443 606.07 132.672C606.789 131.901 607.721 131.516 608.867 131.516C609.977 131.516 610.883 131.893 611.586 132.648C612.289 133.404 612.641 134.466 612.641 135.836C612.641 135.919 612.638 136.044 612.633 136.211H606.445C606.497 137.122 606.755 137.82 607.219 138.305C607.682 138.789 608.26 139.031 608.953 139.031C609.469 139.031 609.909 138.896 610.273 138.625C610.638 138.354 610.927 137.922 611.141 137.328ZM606.523 135.055H611.156C611.094 134.357 610.917 133.833 610.625 133.484C610.177 132.943 609.596 132.672 608.883 132.672C608.237 132.672 607.693 132.888 607.25 133.32C606.812 133.753 606.57 134.331 606.523 135.055ZM621.891 138.742L622.094 139.984C621.698 140.068 621.344 140.109 621.031 140.109C620.521 140.109 620.125 140.029 619.844 139.867C619.562 139.706 619.365 139.495 619.25 139.234C619.135 138.969 619.078 138.414 619.078 137.57V132.797H618.047V131.703H619.078V129.648L620.477 128.805V131.703H621.891V132.797H620.477V137.648C620.477 138.049 620.5 138.307 620.547 138.422C620.599 138.536 620.68 138.628 620.789 138.695C620.904 138.763 621.065 138.797 621.273 138.797C621.43 138.797 621.635 138.779 621.891 138.742ZM628.953 137.328L630.406 137.508C630.177 138.357 629.753 139.016 629.133 139.484C628.513 139.953 627.721 140.188 626.758 140.188C625.544 140.188 624.581 139.815 623.867 139.07C623.159 138.32 622.805 137.271 622.805 135.922C622.805 134.526 623.164 133.443 623.883 132.672C624.602 131.901 625.534 131.516 626.68 131.516C627.789 131.516 628.695 131.893 629.398 132.648C630.102 133.404 630.453 134.466 630.453 135.836C630.453 135.919 630.451 136.044 630.445 136.211H624.258C624.31 137.122 624.568 137.82 625.031 138.305C625.495 138.789 626.073 139.031 626.766 139.031C627.281 139.031 627.721 138.896 628.086 138.625C628.451 138.354 628.74 137.922 628.953 137.328ZM624.336 135.055H628.969C628.906 134.357 628.729 133.833 628.438 133.484C627.99 132.943 627.409 132.672 626.695 132.672C626.049 132.672 625.505 132.888 625.062 133.32C624.625 133.753 624.383 134.331 624.336 135.055ZM631.242 140L634.273 135.688L631.469 131.703H633.227L634.5 133.648C634.74 134.018 634.932 134.328 635.078 134.578C635.307 134.234 635.518 133.93 635.711 133.664L637.109 131.703H638.789L635.922 135.609L639.008 140H637.281L635.578 137.422L635.125 136.727L632.945 140H631.242ZM643.25 138.742L643.453 139.984C643.057 140.068 642.703 140.109 642.391 140.109C641.88 140.109 641.484 140.029 641.203 139.867C640.922 139.706 640.724 139.495 640.609 139.234C640.495 138.969 640.438 138.414 640.438 137.57V132.797H639.406V131.703H640.438V129.648L641.836 128.805V131.703H643.25V132.797H641.836V137.648C641.836 138.049 641.859 138.307 641.906 138.422C641.958 138.536 642.039 138.628 642.148 138.695C642.263 138.763 642.424 138.797 642.633 138.797C642.789 138.797 642.995 138.779 643.25 138.742ZM650.312 137.328L651.766 137.508C651.536 138.357 651.112 139.016 650.492 139.484C649.872 139.953 649.081 140.188 648.117 140.188C646.904 140.188 645.94 139.815 645.227 139.07C644.518 138.32 644.164 137.271 644.164 135.922C644.164 134.526 644.523 133.443 645.242 132.672C645.961 131.901 646.893 131.516 648.039 131.516C649.148 131.516 650.055 131.893 650.758 132.648C651.461 133.404 651.812 134.466 651.812 135.836C651.812 135.919 651.81 136.044 651.805 136.211H645.617C645.669 137.122 645.927 137.82 646.391 138.305C646.854 138.789 647.432 139.031 648.125 139.031C648.641 139.031 649.081 138.896 649.445 138.625C649.81 138.354 650.099 137.922 650.312 137.328ZM645.695 135.055H650.328C650.266 134.357 650.089 133.833 649.797 133.484C649.349 132.943 648.768 132.672 648.055 132.672C647.409 132.672 646.865 132.888 646.422 133.32C645.984 133.753 645.742 134.331 645.695 135.055ZM663.672 137.328L665.125 137.508C664.896 138.357 664.471 139.016 663.852 139.484C663.232 139.953 662.44 140.188 661.477 140.188C660.263 140.188 659.299 139.815 658.586 139.07C657.878 138.32 657.523 137.271 657.523 135.922C657.523 134.526 657.883 133.443 658.602 132.672C659.32 131.901 660.253 131.516 661.398 131.516C662.508 131.516 663.414 131.893 664.117 132.648C664.82 133.404 665.172 134.466 665.172 135.836C665.172 135.919 665.169 136.044 665.164 136.211H658.977C659.029 137.122 659.286 137.82 659.75 138.305C660.214 138.789 660.792 139.031 661.484 139.031C662 139.031 662.44 138.896 662.805 138.625C663.169 138.354 663.458 137.922 663.672 137.328ZM659.055 135.055H663.688C663.625 134.357 663.448 133.833 663.156 133.484C662.708 132.943 662.128 132.672 661.414 132.672C660.768 132.672 660.224 132.888 659.781 133.32C659.344 133.753 659.102 134.331 659.055 135.055ZM666.336 137.523L667.727 137.305C667.805 137.862 668.021 138.289 668.375 138.586C668.734 138.883 669.234 139.031 669.875 139.031C670.521 139.031 671 138.901 671.312 138.641C671.625 138.375 671.781 138.065 671.781 137.711C671.781 137.393 671.643 137.143 671.367 136.961C671.174 136.836 670.695 136.677 669.93 136.484C668.898 136.224 668.182 136 667.781 135.812C667.385 135.62 667.083 135.357 666.875 135.023C666.672 134.685 666.57 134.312 666.57 133.906C666.57 133.536 666.654 133.195 666.82 132.883C666.992 132.565 667.224 132.302 667.516 132.094C667.734 131.932 668.031 131.797 668.406 131.688C668.786 131.573 669.193 131.516 669.625 131.516C670.276 131.516 670.846 131.609 671.336 131.797C671.831 131.984 672.195 132.24 672.43 132.562C672.664 132.88 672.826 133.307 672.914 133.844L671.539 134.031C671.477 133.604 671.294 133.271 670.992 133.031C670.695 132.792 670.273 132.672 669.727 132.672C669.081 132.672 668.62 132.779 668.344 132.992C668.068 133.206 667.93 133.456 667.93 133.742C667.93 133.924 667.987 134.089 668.102 134.234C668.216 134.385 668.396 134.51 668.641 134.609C668.781 134.661 669.195 134.781 669.883 134.969C670.878 135.234 671.57 135.453 671.961 135.625C672.357 135.792 672.667 136.036 672.891 136.359C673.115 136.682 673.227 137.083 673.227 137.562C673.227 138.031 673.089 138.474 672.812 138.891C672.542 139.302 672.148 139.622 671.633 139.852C671.117 140.076 670.534 140.188 669.883 140.188C668.805 140.188 667.982 139.964 667.414 139.516C666.852 139.068 666.492 138.404 666.336 137.523ZM677.969 138.742L678.172 139.984C677.776 140.068 677.422 140.109 677.109 140.109C676.599 140.109 676.203 140.029 675.922 139.867C675.641 139.706 675.443 139.495 675.328 139.234C675.214 138.969 675.156 138.414 675.156 137.57V132.797H674.125V131.703H675.156V129.648L676.555 128.805V131.703H677.969V132.797H676.555V137.648C676.555 138.049 676.578 138.307 676.625 138.422C676.677 138.536 676.758 138.628 676.867 138.695C676.982 138.763 677.143 138.797 677.352 138.797C677.508 138.797 677.714 138.779 677.969 138.742ZM683.805 143.18V131.703H685.086V132.781C685.388 132.359 685.729 132.044 686.109 131.836C686.49 131.622 686.951 131.516 687.492 131.516C688.201 131.516 688.826 131.698 689.367 132.062C689.909 132.427 690.318 132.943 690.594 133.609C690.87 134.271 691.008 134.997 691.008 135.789C691.008 136.638 690.854 137.404 690.547 138.086C690.245 138.763 689.802 139.284 689.219 139.648C688.641 140.008 688.031 140.188 687.391 140.188C686.922 140.188 686.5 140.089 686.125 139.891C685.755 139.693 685.451 139.443 685.211 139.141V143.18H683.805ZM685.078 135.898C685.078 136.966 685.294 137.755 685.727 138.266C686.159 138.776 686.682 139.031 687.297 139.031C687.922 139.031 688.456 138.768 688.898 138.242C689.346 137.711 689.57 136.891 689.57 135.781C689.57 134.724 689.352 133.932 688.914 133.406C688.482 132.88 687.964 132.617 687.359 132.617C686.76 132.617 686.229 132.898 685.766 133.461C685.307 134.018 685.078 134.831 685.078 135.898ZM692.188 135.852C692.188 134.315 692.615 133.177 693.469 132.438C694.182 131.823 695.052 131.516 696.078 131.516C697.219 131.516 698.151 131.891 698.875 132.641C699.599 133.385 699.961 134.417 699.961 135.734C699.961 136.802 699.799 137.643 699.477 138.258C699.159 138.867 698.693 139.341 698.078 139.68C697.469 140.018 696.802 140.188 696.078 140.188C694.917 140.188 693.977 139.815 693.258 139.07C692.544 138.326 692.188 137.253 692.188 135.852ZM693.633 135.852C693.633 136.914 693.865 137.711 694.328 138.242C694.792 138.768 695.375 139.031 696.078 139.031C696.776 139.031 697.357 138.766 697.82 138.234C698.284 137.703 698.516 136.893 698.516 135.805C698.516 134.779 698.281 134.003 697.812 133.477C697.349 132.945 696.771 132.68 696.078 132.68C695.375 132.68 694.792 132.943 694.328 133.469C693.865 133.995 693.633 134.789 693.633 135.852ZM701.055 137.523L702.445 137.305C702.523 137.862 702.74 138.289 703.094 138.586C703.453 138.883 703.953 139.031 704.594 139.031C705.24 139.031 705.719 138.901 706.031 138.641C706.344 138.375 706.5 138.065 706.5 137.711C706.5 137.393 706.362 137.143 706.086 136.961C705.893 136.836 705.414 136.677 704.648 136.484C703.617 136.224 702.901 136 702.5 135.812C702.104 135.62 701.802 135.357 701.594 135.023C701.391 134.685 701.289 134.312 701.289 133.906C701.289 133.536 701.372 133.195 701.539 132.883C701.711 132.565 701.943 132.302 702.234 132.094C702.453 131.932 702.75 131.797 703.125 131.688C703.505 131.573 703.911 131.516 704.344 131.516C704.995 131.516 705.565 131.609 706.055 131.797C706.549 131.984 706.914 132.24 707.148 132.562C707.383 132.88 707.544 133.307 707.633 133.844L706.258 134.031C706.195 133.604 706.013 133.271 705.711 133.031C705.414 132.792 704.992 132.672 704.445 132.672C703.799 132.672 703.339 132.779 703.062 132.992C702.786 133.206 702.648 133.456 702.648 133.742C702.648 133.924 702.706 134.089 702.82 134.234C702.935 134.385 703.115 134.51 703.359 134.609C703.5 134.661 703.914 134.781 704.602 134.969C705.596 135.234 706.289 135.453 706.68 135.625C707.076 135.792 707.385 136.036 707.609 136.359C707.833 136.682 707.945 137.083 707.945 137.562C707.945 138.031 707.807 138.474 707.531 138.891C707.26 139.302 706.867 139.622 706.352 139.852C705.836 140.076 705.253 140.188 704.602 140.188C703.523 140.188 702.701 139.964 702.133 139.516C701.57 139.068 701.211 138.404 701.055 137.523ZM709.625 130.164V128.547H711.031V130.164H709.625ZM709.625 140V131.703H711.031V140H709.625ZM716.25 138.742L716.453 139.984C716.057 140.068 715.703 140.109 715.391 140.109C714.88 140.109 714.484 140.029 714.203 139.867C713.922 139.706 713.724 139.495 713.609 139.234C713.495 138.969 713.438 138.414 713.438 137.57V132.797H712.406V131.703H713.438V129.648L714.836 128.805V131.703H716.25V132.797H714.836V137.648C714.836 138.049 714.859 138.307 714.906 138.422C714.958 138.536 715.039 138.628 715.148 138.695C715.263 138.763 715.424 138.797 715.633 138.797C715.789 138.797 715.995 138.779 716.25 138.742ZM717.641 130.164V128.547H719.047V130.164H717.641ZM717.641 140V131.703H719.047V140H717.641ZM720.672 135.852C720.672 134.315 721.099 133.177 721.953 132.438C722.667 131.823 723.536 131.516 724.562 131.516C725.703 131.516 726.635 131.891 727.359 132.641C728.083 133.385 728.445 134.417 728.445 135.734C728.445 136.802 728.284 137.643 727.961 138.258C727.643 138.867 727.177 139.341 726.562 139.68C725.953 140.018 725.286 140.188 724.562 140.188C723.401 140.188 722.461 139.815 721.742 139.07C721.029 138.326 720.672 137.253 720.672 135.852ZM722.117 135.852C722.117 136.914 722.349 137.711 722.812 138.242C723.276 138.768 723.859 139.031 724.562 139.031C725.26 139.031 725.841 138.766 726.305 138.234C726.768 137.703 727 136.893 727 135.805C727 134.779 726.766 134.003 726.297 133.477C725.833 132.945 725.255 132.68 724.562 132.68C723.859 132.68 723.276 132.943 722.812 133.469C722.349 133.995 722.117 134.789 722.117 135.852ZM730.102 140V131.703H731.367V132.883C731.977 131.971 732.857 131.516 734.008 131.516C734.508 131.516 734.966 131.607 735.383 131.789C735.805 131.966 736.12 132.201 736.328 132.492C736.536 132.784 736.682 133.13 736.766 133.531C736.818 133.792 736.844 134.247 736.844 134.898V140H735.438V134.953C735.438 134.38 735.383 133.953 735.273 133.672C735.164 133.385 734.969 133.159 734.688 132.992C734.411 132.82 734.086 132.734 733.711 132.734C733.112 132.734 732.594 132.924 732.156 133.305C731.724 133.685 731.508 134.406 731.508 135.469V140H730.102ZM739.008 140V131.703H740.273V132.883C740.883 131.971 741.763 131.516 742.914 131.516C743.414 131.516 743.872 131.607 744.289 131.789C744.711 131.966 745.026 132.201 745.234 132.492C745.443 132.784 745.589 133.13 745.672 133.531C745.724 133.792 745.75 134.247 745.75 134.898V140H744.344V134.953C744.344 134.38 744.289 133.953 744.18 133.672C744.07 133.385 743.875 133.159 743.594 132.992C743.318 132.82 742.992 132.734 742.617 132.734C742.018 132.734 741.5 132.924 741.062 133.305C740.63 133.685 740.414 134.406 740.414 135.469V140H739.008ZM753.594 137.328L755.047 137.508C754.818 138.357 754.393 139.016 753.773 139.484C753.154 139.953 752.362 140.188 751.398 140.188C750.185 140.188 749.221 139.815 748.508 139.07C747.799 138.32 747.445 137.271 747.445 135.922C747.445 134.526 747.805 133.443 748.523 132.672C749.242 131.901 750.174 131.516 751.32 131.516C752.43 131.516 753.336 131.893 754.039 132.648C754.742 133.404 755.094 134.466 755.094 135.836C755.094 135.919 755.091 136.044 755.086 136.211H748.898C748.951 137.122 749.208 137.82 749.672 138.305C750.135 138.789 750.714 139.031 751.406 139.031C751.922 139.031 752.362 138.896 752.727 138.625C753.091 138.354 753.38 137.922 753.594 137.328ZM748.977 135.055H753.609C753.547 134.357 753.37 133.833 753.078 133.484C752.63 132.943 752.049 132.672 751.336 132.672C750.69 132.672 750.146 132.888 749.703 133.32C749.266 133.753 749.023 134.331 748.977 135.055ZM750.492 130.672L751.531 128.484H753.375L751.656 130.672H750.492ZM766.953 137.328L768.406 137.508C768.177 138.357 767.753 139.016 767.133 139.484C766.513 139.953 765.721 140.188 764.758 140.188C763.544 140.188 762.581 139.815 761.867 139.07C761.159 138.32 760.805 137.271 760.805 135.922C760.805 134.526 761.164 133.443 761.883 132.672C762.602 131.901 763.534 131.516 764.68 131.516C765.789 131.516 766.695 131.893 767.398 132.648C768.102 133.404 768.453 134.466 768.453 135.836C768.453 135.919 768.451 136.044 768.445 136.211H762.258C762.31 137.122 762.568 137.82 763.031 138.305C763.495 138.789 764.073 139.031 764.766 139.031C765.281 139.031 765.721 138.896 766.086 138.625C766.451 138.354 766.74 137.922 766.953 137.328ZM762.336 135.055H766.969C766.906 134.357 766.729 133.833 766.438 133.484C765.99 132.943 765.409 132.672 764.695 132.672C764.049 132.672 763.505 132.888 763.062 133.32C762.625 133.753 762.383 134.331 762.336 135.055ZM770.18 140V131.703H771.445V132.883C772.055 131.971 772.935 131.516 774.086 131.516C774.586 131.516 775.044 131.607 775.461 131.789C775.883 131.966 776.198 132.201 776.406 132.492C776.615 132.784 776.76 133.13 776.844 133.531C776.896 133.792 776.922 134.247 776.922 134.898V140H775.516V134.953C775.516 134.38 775.461 133.953 775.352 133.672C775.242 133.385 775.047 133.159 774.766 132.992C774.49 132.82 774.164 132.734 773.789 132.734C773.19 132.734 772.672 132.924 772.234 133.305C771.802 133.685 771.586 134.406 771.586 135.469V140H770.18ZM778.539 136.562V135.148H782.859V136.562H778.539ZM789.797 140V138.953C789.271 139.776 788.497 140.188 787.477 140.188C786.815 140.188 786.206 140.005 785.648 139.641C785.096 139.276 784.667 138.768 784.359 138.117C784.057 137.461 783.906 136.708 783.906 135.859C783.906 135.031 784.044 134.281 784.32 133.609C784.596 132.932 785.01 132.414 785.562 132.055C786.115 131.695 786.732 131.516 787.414 131.516C787.914 131.516 788.359 131.622 788.75 131.836C789.141 132.044 789.458 132.318 789.703 132.656V128.547H791.102V140H789.797ZM785.352 135.859C785.352 136.922 785.576 137.716 786.023 138.242C786.471 138.768 787 139.031 787.609 139.031C788.224 139.031 788.745 138.781 789.172 138.281C789.604 137.776 789.82 137.008 789.82 135.977C789.82 134.841 789.602 134.008 789.164 133.477C788.727 132.945 788.188 132.68 787.547 132.68C786.922 132.68 786.398 132.935 785.977 133.445C785.56 133.956 785.352 134.76 785.352 135.859ZM799 137.328L800.453 137.508C800.224 138.357 799.799 139.016 799.18 139.484C798.56 139.953 797.768 140.188 796.805 140.188C795.591 140.188 794.628 139.815 793.914 139.07C793.206 138.32 792.852 137.271 792.852 135.922C792.852 134.526 793.211 133.443 793.93 132.672C794.648 131.901 795.581 131.516 796.727 131.516C797.836 131.516 798.742 131.893 799.445 132.648C800.148 133.404 800.5 134.466 800.5 135.836C800.5 135.919 800.497 136.044 800.492 136.211H794.305C794.357 137.122 794.615 137.82 795.078 138.305C795.542 138.789 796.12 139.031 796.812 139.031C797.328 139.031 797.768 138.896 798.133 138.625C798.497 138.354 798.786 137.922 799 137.328ZM794.383 135.055H799.016C798.953 134.357 798.776 133.833 798.484 133.484C798.036 132.943 797.456 132.672 796.742 132.672C796.096 132.672 795.552 132.888 795.109 133.32C794.672 133.753 794.43 134.331 794.383 135.055ZM801.664 137.523L803.055 137.305C803.133 137.862 803.349 138.289 803.703 138.586C804.062 138.883 804.562 139.031 805.203 139.031C805.849 139.031 806.328 138.901 806.641 138.641C806.953 138.375 807.109 138.065 807.109 137.711C807.109 137.393 806.971 137.143 806.695 136.961C806.503 136.836 806.023 136.677 805.258 136.484C804.227 136.224 803.51 136 803.109 135.812C802.714 135.62 802.411 135.357 802.203 135.023C802 134.685 801.898 134.312 801.898 133.906C801.898 133.536 801.982 133.195 802.148 132.883C802.32 132.565 802.552 132.302 802.844 132.094C803.062 131.932 803.359 131.797 803.734 131.688C804.115 131.573 804.521 131.516 804.953 131.516C805.604 131.516 806.174 131.609 806.664 131.797C807.159 131.984 807.523 132.24 807.758 132.562C807.992 132.88 808.154 133.307 808.242 133.844L806.867 134.031C806.805 133.604 806.622 133.271 806.32 133.031C806.023 132.792 805.602 132.672 805.055 132.672C804.409 132.672 803.948 132.779 803.672 132.992C803.396 133.206 803.258 133.456 803.258 133.742C803.258 133.924 803.315 134.089 803.43 134.234C803.544 134.385 803.724 134.51 803.969 134.609C804.109 134.661 804.523 134.781 805.211 134.969C806.206 135.234 806.898 135.453 807.289 135.625C807.685 135.792 807.995 136.036 808.219 136.359C808.443 136.682 808.555 137.083 808.555 137.562C808.555 138.031 808.417 138.474 808.141 138.891C807.87 139.302 807.477 139.622 806.961 139.852C806.445 140.076 805.862 140.188 805.211 140.188C804.133 140.188 803.31 139.964 802.742 139.516C802.18 139.068 801.82 138.404 801.664 137.523ZM809.664 137.523L811.055 137.305C811.133 137.862 811.349 138.289 811.703 138.586C812.062 138.883 812.562 139.031 813.203 139.031C813.849 139.031 814.328 138.901 814.641 138.641C814.953 138.375 815.109 138.065 815.109 137.711C815.109 137.393 814.971 137.143 814.695 136.961C814.503 136.836 814.023 136.677 813.258 136.484C812.227 136.224 811.51 136 811.109 135.812C810.714 135.62 810.411 135.357 810.203 135.023C810 134.685 809.898 134.312 809.898 133.906C809.898 133.536 809.982 133.195 810.148 132.883C810.32 132.565 810.552 132.302 810.844 132.094C811.062 131.932 811.359 131.797 811.734 131.688C812.115 131.573 812.521 131.516 812.953 131.516C813.604 131.516 814.174 131.609 814.664 131.797C815.159 131.984 815.523 132.24 815.758 132.562C815.992 132.88 816.154 133.307 816.242 133.844L814.867 134.031C814.805 133.604 814.622 133.271 814.32 133.031C814.023 132.792 813.602 132.672 813.055 132.672C812.409 132.672 811.948 132.779 811.672 132.992C811.396 133.206 811.258 133.456 811.258 133.742C811.258 133.924 811.315 134.089 811.43 134.234C811.544 134.385 811.724 134.51 811.969 134.609C812.109 134.661 812.523 134.781 813.211 134.969C814.206 135.234 814.898 135.453 815.289 135.625C815.685 135.792 815.995 136.036 816.219 136.359C816.443 136.682 816.555 137.083 816.555 137.562C816.555 138.031 816.417 138.474 816.141 138.891C815.87 139.302 815.477 139.622 814.961 139.852C814.445 140.076 813.862 140.188 813.211 140.188C812.133 140.188 811.31 139.964 810.742 139.516C810.18 139.068 809.82 138.404 809.664 137.523ZM817.703 135.852C817.703 134.315 818.13 133.177 818.984 132.438C819.698 131.823 820.568 131.516 821.594 131.516C822.734 131.516 823.667 131.891 824.391 132.641C825.115 133.385 825.477 134.417 825.477 135.734C825.477 136.802 825.315 137.643 824.992 138.258C824.674 138.867 824.208 139.341 823.594 139.68C822.984 140.018 822.318 140.188 821.594 140.188C820.432 140.188 819.492 139.815 818.773 139.07C818.06 138.326 817.703 137.253 817.703 135.852ZM819.148 135.852C819.148 136.914 819.38 137.711 819.844 138.242C820.307 138.768 820.891 139.031 821.594 139.031C822.292 139.031 822.872 138.766 823.336 138.234C823.799 137.703 824.031 136.893 824.031 135.805C824.031 134.779 823.797 134.003 823.328 133.477C822.865 132.945 822.286 132.68 821.594 132.68C820.891 132.68 820.307 132.943 819.844 133.469C819.38 133.995 819.148 134.789 819.148 135.852ZM832.57 140V138.781C831.924 139.719 831.047 140.188 829.938 140.188C829.448 140.188 828.99 140.094 828.562 139.906C828.141 139.719 827.826 139.484 827.617 139.203C827.414 138.917 827.271 138.568 827.188 138.156C827.13 137.88 827.102 137.443 827.102 136.844V131.703H828.508V136.305C828.508 137.039 828.536 137.534 828.594 137.789C828.682 138.159 828.87 138.451 829.156 138.664C829.443 138.872 829.797 138.977 830.219 138.977C830.641 138.977 831.036 138.87 831.406 138.656C831.776 138.438 832.036 138.143 832.188 137.773C832.344 137.398 832.422 136.857 832.422 136.148V131.703H833.828V140H832.57ZM835.477 137.523L836.867 137.305C836.945 137.862 837.161 138.289 837.516 138.586C837.875 138.883 838.375 139.031 839.016 139.031C839.661 139.031 840.141 138.901 840.453 138.641C840.766 138.375 840.922 138.065 840.922 137.711C840.922 137.393 840.784 137.143 840.508 136.961C840.315 136.836 839.836 136.677 839.07 136.484C838.039 136.224 837.323 136 836.922 135.812C836.526 135.62 836.224 135.357 836.016 135.023C835.812 134.685 835.711 134.312 835.711 133.906C835.711 133.536 835.794 133.195 835.961 132.883C836.133 132.565 836.365 132.302 836.656 132.094C836.875 131.932 837.172 131.797 837.547 131.688C837.927 131.573 838.333 131.516 838.766 131.516C839.417 131.516 839.987 131.609 840.477 131.797C840.971 131.984 841.336 132.24 841.57 132.562C841.805 132.88 841.966 133.307 842.055 133.844L840.68 134.031C840.617 133.604 840.435 133.271 840.133 133.031C839.836 132.792 839.414 132.672 838.867 132.672C838.221 132.672 837.76 132.779 837.484 132.992C837.208 133.206 837.07 133.456 837.07 133.742C837.07 133.924 837.128 134.089 837.242 134.234C837.357 134.385 837.536 134.51 837.781 134.609C837.922 134.661 838.336 134.781 839.023 134.969C840.018 135.234 840.711 135.453 841.102 135.625C841.497 135.792 841.807 136.036 842.031 136.359C842.255 136.682 842.367 137.083 842.367 137.562C842.367 138.031 842.229 138.474 841.953 138.891C841.682 139.302 841.289 139.622 840.773 139.852C840.258 140.076 839.674 140.188 839.023 140.188C837.945 140.188 837.122 139.964 836.555 139.516C835.992 139.068 835.633 138.404 835.477 137.523ZM853.875 140V138.953C853.349 139.776 852.576 140.188 851.555 140.188C850.893 140.188 850.284 140.005 849.727 139.641C849.174 139.276 848.745 138.768 848.438 138.117C848.135 137.461 847.984 136.708 847.984 135.859C847.984 135.031 848.122 134.281 848.398 133.609C848.674 132.932 849.089 132.414 849.641 132.055C850.193 131.695 850.81 131.516 851.492 131.516C851.992 131.516 852.438 131.622 852.828 131.836C853.219 132.044 853.536 132.318 853.781 132.656V128.547H855.18V140H853.875ZM849.43 135.859C849.43 136.922 849.654 137.716 850.102 138.242C850.549 138.768 851.078 139.031 851.688 139.031C852.302 139.031 852.823 138.781 853.25 138.281C853.682 137.776 853.898 137.008 853.898 135.977C853.898 134.841 853.68 134.008 853.242 133.477C852.805 132.945 852.266 132.68 851.625 132.68C851 132.68 850.477 132.935 850.055 133.445C849.638 133.956 849.43 134.76 849.43 135.859ZM862.836 140V138.781C862.19 139.719 861.312 140.188 860.203 140.188C859.714 140.188 859.255 140.094 858.828 139.906C858.406 139.719 858.091 139.484 857.883 139.203C857.68 138.917 857.536 138.568 857.453 138.156C857.396 137.88 857.367 137.443 857.367 136.844V131.703H858.773V136.305C858.773 137.039 858.802 137.534 858.859 137.789C858.948 138.159 859.135 138.451 859.422 138.664C859.708 138.872 860.062 138.977 860.484 138.977C860.906 138.977 861.302 138.87 861.672 138.656C862.042 138.438 862.302 138.143 862.453 137.773C862.609 137.398 862.688 136.857 862.688 136.148V131.703H864.094V140H862.836ZM870.195 137.523L871.586 137.305C871.664 137.862 871.88 138.289 872.234 138.586C872.594 138.883 873.094 139.031 873.734 139.031C874.38 139.031 874.859 138.901 875.172 138.641C875.484 138.375 875.641 138.065 875.641 137.711C875.641 137.393 875.503 137.143 875.227 136.961C875.034 136.836 874.555 136.677 873.789 136.484C872.758 136.224 872.042 136 871.641 135.812C871.245 135.62 870.943 135.357 870.734 135.023C870.531 134.685 870.43 134.312 870.43 133.906C870.43 133.536 870.513 133.195 870.68 132.883C870.852 132.565 871.083 132.302 871.375 132.094C871.594 131.932 871.891 131.797 872.266 131.688C872.646 131.573 873.052 131.516 873.484 131.516C874.135 131.516 874.706 131.609 875.195 131.797C875.69 131.984 876.055 132.24 876.289 132.562C876.523 132.88 876.685 133.307 876.773 133.844L875.398 134.031C875.336 133.604 875.154 133.271 874.852 133.031C874.555 132.792 874.133 132.672 873.586 132.672C872.94 132.672 872.479 132.779 872.203 132.992C871.927 133.206 871.789 133.456 871.789 133.742C871.789 133.924 871.846 134.089 871.961 134.234C872.076 134.385 872.255 134.51 872.5 134.609C872.641 134.661 873.055 134.781 873.742 134.969C874.737 135.234 875.43 135.453 875.82 135.625C876.216 135.792 876.526 136.036 876.75 136.359C876.974 136.682 877.086 137.083 877.086 137.562C877.086 138.031 876.948 138.474 876.672 138.891C876.401 139.302 876.008 139.622 875.492 139.852C874.977 140.076 874.393 140.188 873.742 140.188C872.664 140.188 871.841 139.964 871.273 139.516C870.711 139.068 870.352 138.404 870.195 137.523ZM878.758 143.18V131.703H880.039V132.781C880.341 132.359 880.682 132.044 881.062 131.836C881.443 131.622 881.904 131.516 882.445 131.516C883.154 131.516 883.779 131.698 884.32 132.062C884.862 132.427 885.271 132.943 885.547 133.609C885.823 134.271 885.961 134.997 885.961 135.789C885.961 136.638 885.807 137.404 885.5 138.086C885.198 138.763 884.755 139.284 884.172 139.648C883.594 140.008 882.984 140.188 882.344 140.188C881.875 140.188 881.453 140.089 881.078 139.891C880.708 139.693 880.404 139.443 880.164 139.141V143.18H878.758ZM880.031 135.898C880.031 136.966 880.247 137.755 880.68 138.266C881.112 138.776 881.635 139.031 882.25 139.031C882.875 139.031 883.409 138.768 883.852 138.242C884.299 137.711 884.523 136.891 884.523 135.781C884.523 134.724 884.305 133.932 883.867 133.406C883.435 132.88 882.917 132.617 882.312 132.617C881.714 132.617 881.182 132.898 880.719 133.461C880.26 134.018 880.031 134.831 880.031 135.898ZM887.672 130.164V128.547H889.078V130.164H887.672ZM887.672 140V131.703H889.078V140H887.672ZM891.227 140V131.703H892.492V132.883C893.102 131.971 893.982 131.516 895.133 131.516C895.633 131.516 896.091 131.607 896.508 131.789C896.93 131.966 897.245 132.201 897.453 132.492C897.661 132.784 897.807 133.13 897.891 133.531C897.943 133.792 897.969 134.247 897.969 134.898V140H896.562V134.953C896.562 134.38 896.508 133.953 896.398 133.672C896.289 133.385 896.094 133.159 895.812 132.992C895.536 132.82 895.211 132.734 894.836 132.734C894.237 132.734 893.719 132.924 893.281 133.305C892.849 133.685 892.633 134.406 892.633 135.469V140H891.227ZM900.133 140V131.703H901.398V132.883C902.008 131.971 902.888 131.516 904.039 131.516C904.539 131.516 904.997 131.607 905.414 131.789C905.836 131.966 906.151 132.201 906.359 132.492C906.568 132.784 906.714 133.13 906.797 133.531C906.849 133.792 906.875 134.247 906.875 134.898V140H905.469V134.953C905.469 134.38 905.414 133.953 905.305 133.672C905.195 133.385 905 133.159 904.719 132.992C904.443 132.82 904.117 132.734 903.742 132.734C903.143 132.734 902.625 132.924 902.188 133.305C901.755 133.685 901.539 134.406 901.539 135.469V140H900.133ZM914.719 137.328L916.172 137.508C915.943 138.357 915.518 139.016 914.898 139.484C914.279 139.953 913.487 140.188 912.523 140.188C911.31 140.188 910.346 139.815 909.633 139.07C908.924 138.32 908.57 137.271 908.57 135.922C908.57 134.526 908.93 133.443 909.648 132.672C910.367 131.901 911.299 131.516 912.445 131.516C913.555 131.516 914.461 131.893 915.164 132.648C915.867 133.404 916.219 134.466 916.219 135.836C916.219 135.919 916.216 136.044 916.211 136.211H910.023C910.076 137.122 910.333 137.82 910.797 138.305C911.26 138.789 911.839 139.031 912.531 139.031C913.047 139.031 913.487 138.896 913.852 138.625C914.216 138.354 914.505 137.922 914.719 137.328ZM910.102 135.055H914.734C914.672 134.357 914.495 133.833 914.203 133.484C913.755 132.943 913.174 132.672 912.461 132.672C911.815 132.672 911.271 132.888 910.828 133.32C910.391 133.753 910.148 134.331 910.102 135.055ZM917.93 140V131.703H919.195V132.961C919.518 132.372 919.815 131.984 920.086 131.797C920.362 131.609 920.664 131.516 920.992 131.516C921.466 131.516 921.948 131.667 922.438 131.969L921.953 133.273C921.609 133.07 921.266 132.969 920.922 132.969C920.615 132.969 920.339 133.062 920.094 133.25C919.849 133.432 919.674 133.688 919.57 134.016C919.414 134.516 919.336 135.062 919.336 135.656V140H917.93Z" fill="#3E3E3D"/>
<g opacity="0.5">
<path d="M579.5 158.5H1159" stroke="#CDCCCB"/>
</g>
</g>
<rect x="0.5" y="0.5" width="1158" height="158" rx="7.5" stroke="#CDCCCB"/>
<defs>
<clipPath id="clip0_414_61577">
<rect width="1159" height="159" rx="8" fill="white"/>
</clipPath>
</defs>
</svg>
