<svg width="1159" height="110" viewBox="0 0 1159 110" fill="none" xmlns="http://www.w3.org/2000/svg">
<g clip-path="url(#clip0_414_61616)">
<rect width="579.5" height="61" fill="white"/>
<path d="M18.68 37.14C18.3467 37.14 18.0867 37.0467 17.9 36.86C17.7267 36.6733 17.64 36.4133 17.64 36.08V23.96C17.64 23.6133 17.7333 23.3533 17.92 23.18C18.1067 22.9933 18.3667 22.9 18.7 22.9H23.48C25 22.9 26.1733 23.28 27 24.04C27.8267 24.7867 28.24 25.84 28.24 27.2C28.24 28.5733 27.8267 29.64 27 30.4C26.1733 31.1467 25 31.52 23.48 31.52H19.72V36.08C19.72 36.4133 19.6333 36.6733 19.46 36.86C19.2867 37.0467 19.0267 37.14 18.68 37.14ZM19.72 29.86H23.18C24.18 29.86 24.9333 29.64 25.44 29.2C25.96 28.7467 26.22 28.08 26.22 27.2C26.22 26.3333 25.96 25.68 25.44 25.24C24.9333 24.7867 24.18 24.56 23.18 24.56H19.72V29.86ZM33.5233 37.18C32.5366 37.18 31.6833 36.9733 30.9633 36.56C30.2566 36.1467 29.7033 35.56 29.3033 34.8C28.9033 34.04 28.7033 33.1467 28.7033 32.12C28.7033 31.3333 28.8166 30.6333 29.0433 30.02C29.2699 29.4067 29.5899 28.88 30.0033 28.44C30.4299 27.9867 30.9366 27.6467 31.5233 27.42C32.1233 27.18 32.7899 27.06 33.5233 27.06C34.4966 27.06 35.3366 27.2667 36.0433 27.68C36.7633 28.0933 37.3233 28.68 37.7233 29.44C38.1233 30.1867 38.3233 31.08 38.3233 32.12C38.3233 32.8933 38.2099 33.5933 37.9833 34.22C37.7566 34.8467 37.4299 35.38 37.0033 35.82C36.5899 36.26 36.0833 36.6 35.4833 36.84C34.8966 37.0667 34.2433 37.18 33.5233 37.18ZM33.5233 35.62C34.0699 35.62 34.5499 35.4867 34.9633 35.22C35.3766 34.9533 35.6966 34.56 35.9233 34.04C36.1633 33.52 36.2833 32.88 36.2833 32.12C36.2833 30.9733 36.0299 30.1067 35.5233 29.52C35.0166 28.9333 34.3499 28.64 33.5233 28.64C32.9633 28.64 32.4766 28.7733 32.0633 29.04C31.6499 29.2933 31.3233 29.68 31.0833 30.2C30.8566 30.72 30.7433 31.36 30.7433 32.12C30.7433 33.2533 30.9966 34.12 31.5033 34.72C32.0099 35.32 32.6833 35.62 33.5233 35.62ZM43.5119 37.18C42.9252 37.18 42.3185 37.1133 41.6919 36.98C41.0785 36.8467 40.5119 36.62 39.9919 36.3C39.8185 36.18 39.6985 36.0467 39.6319 35.9C39.5652 35.7533 39.5385 35.6067 39.5519 35.46C39.5785 35.3 39.6385 35.1667 39.7319 35.06C39.8385 34.94 39.9652 34.8667 40.1119 34.84C40.2719 34.8133 40.4385 34.8467 40.6119 34.94C41.1319 35.2333 41.6319 35.44 42.1119 35.56C42.5919 35.6667 43.0652 35.72 43.5319 35.72C44.2385 35.72 44.7719 35.5933 45.1319 35.34C45.4919 35.0867 45.6719 34.7467 45.6719 34.32C45.6719 33.9733 45.5519 33.7067 45.3119 33.52C45.0719 33.32 44.7119 33.1667 44.2319 33.06L42.3319 32.68C41.5052 32.5067 40.8785 32.2 40.4519 31.76C40.0252 31.32 39.8119 30.76 39.8119 30.08C39.8119 29.4667 39.9785 28.9333 40.3119 28.48C40.6452 28.0267 41.1119 27.68 41.7119 27.44C42.3119 27.1867 43.0052 27.06 43.7919 27.06C44.3785 27.06 44.9319 27.1333 45.4519 27.28C45.9719 27.4267 46.4519 27.6467 46.8919 27.94C47.0652 28.0333 47.1785 28.16 47.2319 28.32C47.2852 28.4667 47.2919 28.6133 47.2519 28.76C47.2252 28.9067 47.1585 29.04 47.0519 29.16C46.9452 29.2667 46.8119 29.3333 46.6519 29.36C46.5052 29.3733 46.3385 29.3333 46.1519 29.24C45.7519 28.9867 45.3519 28.8067 44.9519 28.7C44.5652 28.5933 44.1785 28.54 43.7919 28.54C43.0852 28.54 42.5519 28.6733 42.1919 28.94C41.8452 29.1933 41.6719 29.54 41.6719 29.98C41.6719 30.3133 41.7785 30.5867 41.9919 30.8C42.2052 31.0133 42.5385 31.1667 42.9919 31.26L44.8919 31.64C45.7585 31.8133 46.4119 32.1067 46.8519 32.52C47.3052 32.9333 47.5319 33.4933 47.5319 34.2C47.5319 35.12 47.1652 35.8467 46.4319 36.38C45.6985 36.9133 44.7252 37.18 43.5119 37.18ZM50.2794 37.12C49.9594 37.12 49.7127 37.0267 49.5394 36.84C49.366 36.64 49.2794 36.3667 49.2794 36.02V28.22C49.2794 27.8733 49.366 27.6067 49.5394 27.42C49.7127 27.2333 49.9594 27.14 50.2794 27.14C50.5994 27.14 50.846 27.2333 51.0194 27.42C51.206 27.6067 51.2994 27.8733 51.2994 28.22V36.02C51.2994 36.3667 51.2127 36.64 51.0394 36.84C50.866 37.0267 50.6127 37.12 50.2794 37.12ZM50.2794 25.06C49.8794 25.06 49.566 24.96 49.3394 24.76C49.126 24.56 49.0194 24.28 49.0194 23.92C49.0194 23.5467 49.126 23.2667 49.3394 23.08C49.566 22.88 49.8794 22.78 50.2794 22.78C50.6794 22.78 50.986 22.88 51.1994 23.08C51.426 23.2667 51.5394 23.5467 51.5394 23.92C51.5394 24.28 51.426 24.56 51.1994 24.76C50.986 24.96 50.6794 25.06 50.2794 25.06ZM57.8027 37.18C57.0027 37.18 56.3293 37.04 55.7827 36.76C55.236 36.48 54.8293 36.0667 54.5627 35.52C54.296 34.9733 54.1627 34.3067 54.1627 33.52V28.8H52.9627C52.696 28.8 52.4893 28.7333 52.3427 28.6C52.196 28.4533 52.1227 28.26 52.1227 28.02C52.1227 27.7667 52.196 27.5733 52.3427 27.44C52.4893 27.3067 52.696 27.24 52.9627 27.24H54.1627V25.18C54.1627 24.8467 54.2493 24.5933 54.4227 24.42C54.6093 24.2467 54.8627 24.16 55.1827 24.16C55.5027 24.16 55.7493 24.2467 55.9227 24.42C56.096 24.5933 56.1827 24.8467 56.1827 25.18V27.24H58.5227C58.7893 27.24 58.996 27.3067 59.1427 27.44C59.2893 27.5733 59.3627 27.7667 59.3627 28.02C59.3627 28.26 59.2893 28.4533 59.1427 28.6C58.996 28.7333 58.7893 28.8 58.5227 28.8H56.1827V33.36C56.1827 34.0667 56.3293 34.6 56.6227 34.96C56.9293 35.32 57.4227 35.5 58.1027 35.5C58.3427 35.5 58.5493 35.48 58.7227 35.44C58.9093 35.3867 59.0627 35.3533 59.1827 35.34C59.3293 35.34 59.4493 35.3933 59.5427 35.5C59.636 35.5933 59.6827 35.78 59.6827 36.06C59.6827 36.26 59.6427 36.4467 59.5627 36.62C59.496 36.7933 59.3693 36.9067 59.1827 36.96C59.0227 37.0133 58.8027 37.06 58.5227 37.1C58.256 37.1533 58.016 37.18 57.8027 37.18ZM61.6231 37.12C61.3031 37.12 61.0565 37.0267 60.8831 36.84C60.7098 36.64 60.6231 36.3667 60.6231 36.02V28.22C60.6231 27.8733 60.7098 27.6067 60.8831 27.42C61.0565 27.2333 61.3031 27.14 61.6231 27.14C61.9431 27.14 62.1898 27.2333 62.3631 27.42C62.5498 27.6067 62.6431 27.8733 62.6431 28.22V36.02C62.6431 36.3667 62.5565 36.64 62.3831 36.84C62.2098 37.0267 61.9565 37.12 61.6231 37.12ZM61.6231 25.06C61.2231 25.06 60.9098 24.96 60.6831 24.76C60.4698 24.56 60.3631 24.28 60.3631 23.92C60.3631 23.5467 60.4698 23.2667 60.6831 23.08C60.9098 22.88 61.2231 22.78 61.6231 22.78C62.0231 22.78 62.3298 22.88 62.5431 23.08C62.7698 23.2667 62.8831 23.5467 62.8831 23.92C62.8831 24.28 62.7698 24.56 62.5431 24.76C62.3298 24.96 62.0231 25.06 61.6231 25.06ZM69.2264 37.18C68.2397 37.18 67.3864 36.9733 66.6664 36.56C65.9597 36.1467 65.4064 35.56 65.0064 34.8C64.6064 34.04 64.4064 33.1467 64.4064 32.12C64.4064 31.3333 64.5197 30.6333 64.7464 30.02C64.9731 29.4067 65.2931 28.88 65.7064 28.44C66.1331 27.9867 66.6397 27.6467 67.2264 27.42C67.8264 27.18 68.4931 27.06 69.2264 27.06C70.1997 27.06 71.0397 27.2667 71.7464 27.68C72.4664 28.0933 73.0264 28.68 73.4264 29.44C73.8264 30.1867 74.0264 31.08 74.0264 32.12C74.0264 32.8933 73.9131 33.5933 73.6864 34.22C73.4597 34.8467 73.1331 35.38 72.7064 35.82C72.2931 36.26 71.7864 36.6 71.1864 36.84C70.5997 37.0667 69.9464 37.18 69.2264 37.18ZM69.2264 35.62C69.7731 35.62 70.2531 35.4867 70.6664 35.22C71.0797 34.9533 71.3997 34.56 71.6264 34.04C71.8664 33.52 71.9864 32.88 71.9864 32.12C71.9864 30.9733 71.7331 30.1067 71.2264 29.52C70.7197 28.9333 70.0531 28.64 69.2264 28.64C68.6664 28.64 68.1797 28.7733 67.7664 29.04C67.3531 29.2933 67.0264 29.68 66.7864 30.2C66.5597 30.72 66.4464 31.36 66.4464 32.12C66.4464 33.2533 66.6997 34.12 67.2064 34.72C67.7131 35.32 68.3864 35.62 69.2264 35.62ZM76.795 37.14C76.475 37.14 76.2283 37.0533 76.055 36.88C75.8817 36.6933 75.795 36.44 75.795 36.12V28.12C75.795 27.7867 75.8817 27.5333 76.055 27.36C76.2283 27.1867 76.4683 27.1 76.775 27.1C77.095 27.1 77.335 27.1867 77.495 27.36C77.6683 27.5333 77.755 27.7867 77.755 28.12V29.68L77.535 29.32C77.8283 28.5733 78.2883 28.0133 78.915 27.64C79.5417 27.2533 80.2617 27.06 81.075 27.06C81.8483 27.06 82.4883 27.2067 82.995 27.5C83.515 27.78 83.9017 28.2133 84.155 28.8C84.4083 29.3733 84.535 30.1 84.535 30.98V36.12C84.535 36.44 84.4483 36.6933 84.275 36.88C84.1017 37.0533 83.855 37.14 83.535 37.14C83.2017 37.14 82.9483 37.0533 82.775 36.88C82.6017 36.6933 82.515 36.44 82.515 36.12V31.1C82.515 30.26 82.3483 29.6467 82.015 29.26C81.695 28.8733 81.1883 28.68 80.495 28.68C79.6817 28.68 79.0283 28.9333 78.535 29.44C78.055 29.9467 77.815 30.6267 77.815 31.48V36.12C77.815 36.8 77.475 37.14 76.795 37.14Z" fill="#201F1F"/>
<path d="M0 60.5H579.5" stroke="#CDCCCB"/>
<rect width="579.5" height="49" transform="translate(0 61)" fill="white"/>
<path d="M16.375 88.6328L18.5781 88.2969C18.6719 88.724 18.862 89.0495 19.1484 89.2734C19.4349 89.4922 19.8359 89.6016 20.3516 89.6016C20.9193 89.6016 21.3464 89.4974 21.6328 89.2891C21.8255 89.1432 21.9219 88.9479 21.9219 88.7031C21.9219 88.5365 21.8698 88.3984 21.7656 88.2891C21.6562 88.1849 21.4115 88.0885 21.0312 88C19.2604 87.6094 18.138 87.2526 17.6641 86.9297C17.0078 86.4818 16.6797 85.8594 16.6797 85.0625C16.6797 84.3438 16.9635 83.7396 17.5312 83.25C18.099 82.7604 18.9792 82.5156 20.1719 82.5156C21.3073 82.5156 22.151 82.7005 22.7031 83.0703C23.2552 83.4401 23.6354 83.987 23.8438 84.7109L21.7734 85.0938C21.6849 84.7708 21.5156 84.5234 21.2656 84.3516C21.0208 84.1797 20.6693 84.0938 20.2109 84.0938C19.6328 84.0938 19.2188 84.1745 18.9688 84.3359C18.8021 84.4505 18.7188 84.599 18.7188 84.7812C18.7188 84.9375 18.7917 85.0703 18.9375 85.1797C19.1354 85.3255 19.8177 85.5312 20.9844 85.7969C22.1562 86.0625 22.974 86.388 23.4375 86.7734C23.8958 87.1641 24.125 87.7083 24.125 88.4062C24.125 89.1667 23.8073 89.8203 23.1719 90.3672C22.5365 90.9141 21.5964 91.1875 20.3516 91.1875C19.2214 91.1875 18.3255 90.9583 17.6641 90.5C17.0078 90.0417 16.5781 89.4193 16.375 88.6328ZM28.2422 79.5469V83.7578C28.9505 82.9297 29.7969 82.5156 30.7812 82.5156C31.2865 82.5156 31.7422 82.6094 32.1484 82.7969C32.5547 82.9844 32.8594 83.224 33.0625 83.5156C33.2708 83.8073 33.4115 84.1302 33.4844 84.4844C33.5625 84.8385 33.6016 85.388 33.6016 86.1328V91H31.4062V86.6172C31.4062 85.7474 31.3646 85.1953 31.2812 84.9609C31.1979 84.7266 31.0495 84.5417 30.8359 84.4062C30.6276 84.2656 30.3646 84.1953 30.0469 84.1953C29.6823 84.1953 29.3568 84.2839 29.0703 84.4609C28.7839 84.638 28.5729 84.9062 28.4375 85.2656C28.3073 85.6198 28.2422 86.1458 28.2422 86.8438V91H26.0469V79.5469H28.2422ZM35.3281 86.7344C35.3281 86.0052 35.5078 85.2995 35.8672 84.6172C36.2266 83.9349 36.7344 83.4141 37.3906 83.0547C38.0521 82.6953 38.7891 82.5156 39.6016 82.5156C40.8568 82.5156 41.8854 82.9245 42.6875 83.7422C43.4896 84.5547 43.8906 85.5833 43.8906 86.8281C43.8906 88.0833 43.4844 89.125 42.6719 89.9531C41.8646 90.776 40.8464 91.1875 39.6172 91.1875C38.8568 91.1875 38.1302 91.0156 37.4375 90.6719C36.75 90.3281 36.2266 89.8255 35.8672 89.1641C35.5078 88.4974 35.3281 87.6875 35.3281 86.7344ZM37.5781 86.8516C37.5781 87.6745 37.7734 88.3047 38.1641 88.7422C38.5547 89.1797 39.0365 89.3984 39.6094 89.3984C40.1823 89.3984 40.6615 89.1797 41.0469 88.7422C41.4375 88.3047 41.6328 87.6693 41.6328 86.8359C41.6328 86.0234 41.4375 85.3984 41.0469 84.9609C40.6615 84.5234 40.1823 84.3047 39.6094 84.3047C39.0365 84.3047 38.5547 84.5234 38.1641 84.9609C37.7734 85.3984 37.5781 86.0286 37.5781 86.8516ZM47.1641 91L44.5391 82.7031H46.6719L48.2266 88.1406L49.6562 82.7031H51.7734L53.1562 88.1406L54.7422 82.7031H56.9062L54.2422 91H52.1328L50.7031 85.6641L49.2969 91H47.1641ZM58.1484 91V79.6406H60.4609V89.0703H66.2109V91H58.1484ZM69.4922 85.2344L67.5 84.875C67.724 84.0729 68.1094 83.4792 68.6562 83.0938C69.2031 82.7083 70.0156 82.5156 71.0938 82.5156C72.0729 82.5156 72.8021 82.6328 73.2812 82.8672C73.7604 83.0964 74.0964 83.3906 74.2891 83.75C74.487 84.1042 74.5859 84.7578 74.5859 85.7109L74.5625 88.2734C74.5625 89.0026 74.5964 89.5417 74.6641 89.8906C74.737 90.2344 74.8698 90.6042 75.0625 91H72.8906C72.8333 90.8542 72.763 90.638 72.6797 90.3516C72.6432 90.2214 72.6172 90.1354 72.6016 90.0938C72.2266 90.4583 71.8255 90.7318 71.3984 90.9141C70.9714 91.0964 70.5156 91.1875 70.0312 91.1875C69.1771 91.1875 68.5026 90.9557 68.0078 90.4922C67.5182 90.0286 67.2734 89.4427 67.2734 88.7344C67.2734 88.2656 67.3854 87.849 67.6094 87.4844C67.8333 87.1146 68.1458 86.8333 68.5469 86.6406C68.9531 86.4427 69.5365 86.2708 70.2969 86.125C71.3229 85.9323 72.0339 85.7526 72.4297 85.5859V85.3672C72.4297 84.9453 72.3255 84.6458 72.1172 84.4688C71.9089 84.2865 71.5156 84.1953 70.9375 84.1953C70.5469 84.1953 70.2422 84.2734 70.0234 84.4297C69.8047 84.5807 69.6276 84.849 69.4922 85.2344ZM72.4297 87.0156C72.1484 87.1094 71.7031 87.2214 71.0938 87.3516C70.4844 87.4818 70.0859 87.6094 69.8984 87.7344C69.612 87.9375 69.4688 88.1953 69.4688 88.5078C69.4688 88.8151 69.5833 89.0807 69.8125 89.3047C70.0417 89.5286 70.3333 89.6406 70.6875 89.6406C71.0833 89.6406 71.4609 89.5104 71.8203 89.25C72.0859 89.0521 72.2604 88.8099 72.3438 88.5234C72.401 88.3359 72.4297 87.9792 72.4297 87.4531V87.0156ZM76.6641 91V79.5469H78.8594V83.6719C79.5365 82.901 80.3385 82.5156 81.2656 82.5156C82.276 82.5156 83.112 82.8828 83.7734 83.6172C84.4349 84.3464 84.7656 85.3958 84.7656 86.7656C84.7656 88.1823 84.4271 89.2734 83.75 90.0391C83.0781 90.8047 82.2604 91.1875 81.2969 91.1875C80.8229 91.1875 80.3542 91.0703 79.8906 90.8359C79.4323 90.5964 79.0365 90.2448 78.7031 89.7812V91H76.6641ZM78.8438 86.6719C78.8438 87.5312 78.9792 88.1667 79.25 88.5781C79.6302 89.1615 80.1354 89.4531 80.7656 89.4531C81.25 89.4531 81.6615 89.2474 82 88.8359C82.3438 88.4193 82.5156 87.7656 82.5156 86.875C82.5156 85.9271 82.3438 85.2448 82 84.8281C81.6562 84.4062 81.2161 84.1953 80.6797 84.1953C80.1536 84.1953 79.7161 84.401 79.3672 84.8125C79.0182 85.2188 78.8438 85.8385 78.8438 86.6719ZM91.3438 88.3594L93.5312 88.7266C93.25 89.5286 92.8047 90.1406 92.1953 90.5625C91.5911 90.9792 90.8333 91.1875 89.9219 91.1875C88.4792 91.1875 87.4115 90.7161 86.7188 89.7734C86.1719 89.0182 85.8984 88.0651 85.8984 86.9141C85.8984 85.5391 86.2578 84.4635 86.9766 83.6875C87.6953 82.9062 88.6042 82.5156 89.7031 82.5156C90.9375 82.5156 91.9115 82.9245 92.625 83.7422C93.3385 84.5547 93.6797 85.8021 93.6484 87.4844H88.1484C88.1641 88.1354 88.3411 88.6432 88.6797 89.0078C89.0182 89.3672 89.4401 89.5469 89.9453 89.5469C90.2891 89.5469 90.5781 89.4531 90.8125 89.2656C91.0469 89.0781 91.224 88.776 91.3438 88.3594ZM91.4688 86.1406C91.4531 85.5052 91.2891 85.0234 90.9766 84.6953C90.6641 84.362 90.2839 84.1953 89.8359 84.1953C89.3568 84.1953 88.9609 84.3698 88.6484 84.7188C88.3359 85.0677 88.1823 85.5417 88.1875 86.1406H91.4688ZM95.4453 91V79.5469H97.6406V91H95.4453Z" fill="#3E3E3D"/>
<g opacity="0.5">
<path d="M0 109.5H579.5" stroke="#CDCCCB"/>
</g>
<rect width="579.5" height="61" transform="translate(579.5)" fill="white"/>
<path d="M598.18 37.14C597.847 37.14 597.587 37.0467 597.4 36.86C597.227 36.6733 597.14 36.4133 597.14 36.08V23.96C597.14 23.6133 597.233 23.3533 597.42 23.18C597.607 22.9933 597.867 22.9 598.2 22.9H602.98C604.5 22.9 605.673 23.28 606.5 24.04C607.327 24.7867 607.74 25.84 607.74 27.2C607.74 28.5733 607.327 29.64 606.5 30.4C605.673 31.1467 604.5 31.52 602.98 31.52H599.22V36.08C599.22 36.4133 599.133 36.6733 598.96 36.86C598.787 37.0467 598.527 37.14 598.18 37.14ZM599.22 29.86H602.68C603.68 29.86 604.433 29.64 604.94 29.2C605.46 28.7467 605.72 28.08 605.72 27.2C605.72 26.3333 605.46 25.68 604.94 25.24C604.433 24.7867 603.68 24.56 602.68 24.56H599.22V29.86ZM612.595 37.18C611.809 37.18 611.149 37.0333 610.615 36.74C610.095 36.4467 609.702 36.0133 609.435 35.44C609.182 34.8533 609.055 34.12 609.055 33.24V28.12C609.055 27.7733 609.142 27.52 609.315 27.36C609.489 27.1867 609.735 27.1 610.055 27.1C610.375 27.1 610.622 27.1867 610.795 27.36C610.982 27.52 611.075 27.7733 611.075 28.12V33.26C611.075 34.0467 611.235 34.6267 611.555 35C611.875 35.3733 612.382 35.56 613.075 35.56C613.835 35.56 614.449 35.3067 614.915 34.8C615.395 34.28 615.635 33.6 615.635 32.76V28.12C615.635 27.7733 615.722 27.52 615.895 27.36C616.069 27.1867 616.322 27.1 616.655 27.1C616.975 27.1 617.222 27.1867 617.395 27.36C617.569 27.52 617.655 27.7733 617.655 28.12V36.12C617.655 36.8 617.329 37.14 616.675 37.14C616.369 37.14 616.129 37.0533 615.955 36.88C615.782 36.6933 615.695 36.44 615.695 36.12V34.42L615.955 34.86C615.689 35.6067 615.262 36.18 614.675 36.58C614.089 36.98 613.395 37.18 612.595 37.18ZM621.022 37.14C620.689 37.14 620.435 37.0533 620.262 36.88C620.089 36.6933 620.002 36.44 620.002 36.12V28.12C620.002 27.7867 620.089 27.5333 620.262 27.36C620.435 27.1867 620.675 27.1 620.982 27.1C621.302 27.1 621.542 27.1867 621.702 27.36C621.875 27.5333 621.962 27.7867 621.962 28.12V29.58H621.762C621.975 28.78 622.369 28.1733 622.942 27.76C623.515 27.3467 624.249 27.1067 625.142 27.04C625.382 27.0267 625.569 27.0867 625.702 27.22C625.849 27.3533 625.929 27.56 625.942 27.84C625.969 28.12 625.909 28.3467 625.762 28.52C625.615 28.68 625.389 28.7733 625.082 28.8L624.702 28.84C623.835 28.92 623.175 29.1933 622.722 29.66C622.269 30.1267 622.042 30.7667 622.042 31.58V36.12C622.042 36.44 621.955 36.6933 621.782 36.88C621.622 37.0533 621.369 37.14 621.022 37.14ZM627.963 40.74C627.643 40.74 627.396 40.6533 627.223 40.48C627.05 40.3067 626.963 40.0533 626.963 39.72V28.12C626.963 27.7867 627.05 27.5333 627.223 27.36C627.396 27.1867 627.636 27.1 627.943 27.1C628.263 27.1 628.51 27.1867 628.683 27.36C628.856 27.5333 628.943 27.7867 628.943 28.12V29.86L628.723 29.44C628.936 28.72 629.356 28.1467 629.983 27.72C630.61 27.28 631.35 27.06 632.203 27.06C633.07 27.06 633.823 27.2667 634.463 27.68C635.116 28.0933 635.616 28.6733 635.963 29.42C636.323 30.1667 636.503 31.0667 636.503 32.12C636.503 33.1467 636.323 34.0467 635.963 34.82C635.616 35.58 635.123 36.1667 634.483 36.58C633.843 36.98 633.083 37.18 632.203 37.18C631.363 37.18 630.63 36.9667 630.003 36.54C629.376 36.1133 628.956 35.5467 628.743 34.84H628.983V39.72C628.983 40.0533 628.89 40.3067 628.703 40.48C628.53 40.6533 628.283 40.74 627.963 40.74ZM631.703 35.62C632.263 35.62 632.75 35.4867 633.163 35.22C633.576 34.9533 633.896 34.56 634.123 34.04C634.35 33.52 634.463 32.88 634.463 32.12C634.463 30.9733 634.21 30.1067 633.703 29.52C633.21 28.9333 632.543 28.64 631.703 28.64C631.156 28.64 630.67 28.7733 630.243 29.04C629.83 29.2933 629.51 29.68 629.283 30.2C629.056 30.72 628.943 31.36 628.943 32.12C628.943 33.2533 629.196 34.12 629.703 34.72C630.21 35.32 630.876 35.62 631.703 35.62ZM642.519 37.18C641.533 37.18 640.679 36.9733 639.959 36.56C639.253 36.1467 638.699 35.56 638.299 34.8C637.899 34.04 637.699 33.1467 637.699 32.12C637.699 31.3333 637.813 30.6333 638.039 30.02C638.266 29.4067 638.586 28.88 638.999 28.44C639.426 27.9867 639.933 27.6467 640.519 27.42C641.119 27.18 641.786 27.06 642.519 27.06C643.493 27.06 644.333 27.2667 645.039 27.68C645.759 28.0933 646.319 28.68 646.719 29.44C647.119 30.1867 647.319 31.08 647.319 32.12C647.319 32.8933 647.206 33.5933 646.979 34.22C646.753 34.8467 646.426 35.38 645.999 35.82C645.586 36.26 645.079 36.6 644.479 36.84C643.893 37.0667 643.239 37.18 642.519 37.18ZM642.519 35.62C643.066 35.62 643.546 35.4867 643.959 35.22C644.373 34.9533 644.693 34.56 644.919 34.04C645.159 33.52 645.279 32.88 645.279 32.12C645.279 30.9733 645.026 30.1067 644.519 29.52C644.013 28.9333 643.346 28.64 642.519 28.64C641.959 28.64 641.473 28.7733 641.059 29.04C640.646 29.2933 640.319 29.68 640.079 30.2C639.853 30.72 639.739 31.36 639.739 32.12C639.739 33.2533 639.993 34.12 640.499 34.72C641.006 35.32 641.679 35.62 642.519 35.62ZM652.508 37.18C651.921 37.18 651.315 37.1133 650.688 36.98C650.075 36.8467 649.508 36.62 648.988 36.3C648.815 36.18 648.695 36.0467 648.628 35.9C648.561 35.7533 648.535 35.6067 648.548 35.46C648.575 35.3 648.635 35.1667 648.728 35.06C648.835 34.94 648.961 34.8667 649.108 34.84C649.268 34.8133 649.435 34.8467 649.608 34.94C650.128 35.2333 650.628 35.44 651.108 35.56C651.588 35.6667 652.061 35.72 652.528 35.72C653.235 35.72 653.768 35.5933 654.128 35.34C654.488 35.0867 654.668 34.7467 654.668 34.32C654.668 33.9733 654.548 33.7067 654.308 33.52C654.068 33.32 653.708 33.1667 653.228 33.06L651.328 32.68C650.501 32.5067 649.875 32.2 649.448 31.76C649.021 31.32 648.808 30.76 648.808 30.08C648.808 29.4667 648.975 28.9333 649.308 28.48C649.641 28.0267 650.108 27.68 650.708 27.44C651.308 27.1867 652.001 27.06 652.788 27.06C653.375 27.06 653.928 27.1333 654.448 27.28C654.968 27.4267 655.448 27.6467 655.888 27.94C656.061 28.0333 656.175 28.16 656.228 28.32C656.281 28.4667 656.288 28.6133 656.248 28.76C656.221 28.9067 656.155 29.04 656.048 29.16C655.941 29.2667 655.808 29.3333 655.648 29.36C655.501 29.3733 655.335 29.3333 655.148 29.24C654.748 28.9867 654.348 28.8067 653.948 28.7C653.561 28.5933 653.175 28.54 652.788 28.54C652.081 28.54 651.548 28.6733 651.188 28.94C650.841 29.1933 650.668 29.54 650.668 29.98C650.668 30.3133 650.775 30.5867 650.988 30.8C651.201 31.0133 651.535 31.1667 651.988 31.26L653.888 31.64C654.755 31.8133 655.408 32.1067 655.848 32.52C656.301 32.9333 656.528 33.4933 656.528 34.2C656.528 35.12 656.161 35.8467 655.428 36.38C654.695 36.9133 653.721 37.18 652.508 37.18ZM662.855 37.18C661.789 37.18 660.869 36.98 660.095 36.58C659.335 36.1667 658.742 35.5867 658.315 34.84C657.902 34.08 657.695 33.18 657.695 32.14C657.695 31.1267 657.902 30.24 658.315 29.48C658.729 28.72 659.295 28.1267 660.015 27.7C660.735 27.2733 661.555 27.06 662.475 27.06C663.155 27.06 663.762 27.1733 664.295 27.4C664.829 27.6133 665.282 27.9333 665.655 28.36C666.042 28.7733 666.329 29.28 666.515 29.88C666.715 30.48 666.815 31.1533 666.815 31.9C666.815 32.1267 666.749 32.3 666.615 32.42C666.482 32.5267 666.282 32.58 666.015 32.58H659.295V31.34H665.455L665.115 31.62C665.115 30.9533 665.015 30.3867 664.815 29.92C664.629 29.4533 664.342 29.1 663.955 28.86C663.582 28.6067 663.115 28.48 662.555 28.48C661.929 28.48 661.395 28.6267 660.955 28.92C660.529 29.2133 660.202 29.62 659.975 30.14C659.749 30.66 659.635 31.2667 659.635 31.96V32.08C659.635 33.2533 659.909 34.14 660.455 34.74C661.015 35.3267 661.822 35.62 662.875 35.62C663.275 35.62 663.695 35.5667 664.135 35.46C664.589 35.3533 665.015 35.1733 665.415 34.92C665.642 34.7867 665.842 34.7267 666.015 34.74C666.202 34.7533 666.349 34.8133 666.455 34.92C666.575 35.0267 666.649 35.16 666.675 35.32C666.702 35.48 666.675 35.6467 666.595 35.82C666.515 35.98 666.375 36.1267 666.175 36.26C665.722 36.5667 665.195 36.8 664.595 36.96C663.995 37.1067 663.415 37.18 662.855 37.18Z" fill="#201F1F"/>
<path d="M579.5 60.5H1159" stroke="#CDCCCB"/>
<rect width="579.5" height="49" transform="translate(579.5 61)" fill="white"/>
<path d="M595.477 91L599.875 79.5469H601.508L606.195 91H604.469L603.133 87.5312H598.344L597.086 91H595.477ZM598.781 86.2969H602.664L601.469 83.125C601.104 82.1615 600.833 81.3698 600.656 80.75C600.51 81.4844 600.305 82.2135 600.039 82.9375L598.781 86.2969ZM607.562 91V83.7969H606.32V82.7031H607.562V81.8203C607.562 81.263 607.612 80.849 607.711 80.5781C607.846 80.2135 608.083 79.9193 608.422 79.6953C608.766 79.4661 609.245 79.3516 609.859 79.3516C610.255 79.3516 610.693 79.3984 611.172 79.4922L610.961 80.7188C610.669 80.6667 610.393 80.6406 610.133 80.6406C609.706 80.6406 609.404 80.7318 609.227 80.9141C609.049 81.0964 608.961 81.4375 608.961 81.9375V82.7031H610.578V83.7969H608.961V91H607.562ZM611.719 91V83.7969H610.477V82.7031H611.719V81.8203C611.719 81.263 611.768 80.849 611.867 80.5781C612.003 80.2135 612.24 79.9193 612.578 79.6953C612.922 79.4661 613.401 79.3516 614.016 79.3516C614.411 79.3516 614.849 79.3984 615.328 79.4922L615.117 80.7188C614.826 80.6667 614.549 80.6406 614.289 80.6406C613.862 80.6406 613.56 80.7318 613.383 80.9141C613.206 81.0964 613.117 81.4375 613.117 81.9375V82.7031H614.734V83.7969H613.117V91H611.719ZM615.844 81.1641V79.5469H617.25V81.1641H615.844ZM615.844 91V82.7031H617.25V91H615.844ZM624.812 87.9609L626.195 88.1406C626.044 89.0938 625.656 89.8411 625.031 90.3828C624.411 90.9193 623.648 91.1875 622.742 91.1875C621.607 91.1875 620.693 90.8177 620 90.0781C619.312 89.3333 618.969 88.2682 618.969 86.8828C618.969 85.987 619.117 85.2031 619.414 84.5312C619.711 83.8594 620.161 83.3568 620.766 83.0234C621.375 82.6849 622.036 82.5156 622.75 82.5156C623.651 82.5156 624.388 82.7448 624.961 83.2031C625.534 83.6562 625.901 84.3021 626.062 85.1406L624.695 85.3516C624.565 84.7943 624.333 84.375 624 84.0938C623.672 83.8125 623.273 83.6719 622.805 83.6719C622.096 83.6719 621.521 83.9271 621.078 84.4375C620.635 84.9427 620.414 85.7448 620.414 86.8438C620.414 87.9583 620.628 88.7682 621.055 89.2734C621.482 89.7786 622.039 90.0312 622.727 90.0312C623.279 90.0312 623.74 89.862 624.109 89.5234C624.479 89.1849 624.714 88.6641 624.812 87.9609ZM627.398 91V79.5469H628.805V83.6562C629.461 82.8958 630.289 82.5156 631.289 82.5156C631.904 82.5156 632.438 82.638 632.891 82.8828C633.344 83.1224 633.667 83.4557 633.859 83.8828C634.057 84.3099 634.156 84.9297 634.156 85.7422V91H632.75V85.7422C632.75 85.0391 632.596 84.5286 632.289 84.2109C631.987 83.888 631.557 83.7266 631 83.7266C630.583 83.7266 630.19 83.8359 629.82 84.0547C629.456 84.2682 629.195 84.5599 629.039 84.9297C628.883 85.2995 628.805 85.8099 628.805 86.4609V91H627.398ZM641.984 88.3281L643.438 88.5078C643.208 89.3568 642.784 90.0156 642.164 90.4844C641.544 90.9531 640.753 91.1875 639.789 91.1875C638.576 91.1875 637.612 90.8151 636.898 90.0703C636.19 89.3203 635.836 88.2708 635.836 86.9219C635.836 85.526 636.195 84.4427 636.914 83.6719C637.633 82.901 638.565 82.5156 639.711 82.5156C640.82 82.5156 641.727 82.8932 642.43 83.6484C643.133 84.4036 643.484 85.4661 643.484 86.8359C643.484 86.9193 643.482 87.0443 643.477 87.2109H637.289C637.341 88.1224 637.599 88.8203 638.062 89.3047C638.526 89.7891 639.104 90.0312 639.797 90.0312C640.312 90.0312 640.753 89.8958 641.117 89.625C641.482 89.3542 641.771 88.9219 641.984 88.3281ZM637.367 86.0547H642C641.938 85.3568 641.76 84.8333 641.469 84.4844C641.021 83.9427 640.44 83.6719 639.727 83.6719C639.081 83.6719 638.536 83.888 638.094 84.3203C637.656 84.7526 637.414 85.3307 637.367 86.0547ZM655.102 91V89.7812C654.456 90.7188 653.578 91.1875 652.469 91.1875C651.979 91.1875 651.521 91.0938 651.094 90.9062C650.672 90.7188 650.357 90.4844 650.148 90.2031C649.945 89.9167 649.802 89.5677 649.719 89.1562C649.661 88.8802 649.633 88.4427 649.633 87.8438V82.7031H651.039V87.3047C651.039 88.0391 651.068 88.5339 651.125 88.7891C651.214 89.1589 651.401 89.4505 651.688 89.6641C651.974 89.8724 652.328 89.9766 652.75 89.9766C653.172 89.9766 653.568 89.8698 653.938 89.6562C654.307 89.4375 654.568 89.1432 654.719 88.7734C654.875 88.3984 654.953 87.8568 654.953 87.1484V82.7031H656.359V91H655.102ZM658.57 91V82.7031H659.836V83.8828C660.445 82.9714 661.326 82.5156 662.477 82.5156C662.977 82.5156 663.435 82.6068 663.852 82.7891C664.273 82.9661 664.589 83.2005 664.797 83.4922C665.005 83.7839 665.151 84.1302 665.234 84.5312C665.286 84.7917 665.312 85.2474 665.312 85.8984V91H663.906V85.9531C663.906 85.3802 663.852 84.9531 663.742 84.6719C663.633 84.3854 663.438 84.1589 663.156 83.9922C662.88 83.8203 662.555 83.7344 662.18 83.7344C661.581 83.7344 661.062 83.9245 660.625 84.3047C660.193 84.6849 659.977 85.4062 659.977 86.4688V91H658.57ZM675 89.7422L675.203 90.9844C674.807 91.0677 674.453 91.1094 674.141 91.1094C673.63 91.1094 673.234 91.0286 672.953 90.8672C672.672 90.7057 672.474 90.4948 672.359 90.2344C672.245 89.9688 672.188 89.4141 672.188 88.5703V83.7969H671.156V82.7031H672.188V80.6484L673.586 79.8047V82.7031H675V83.7969H673.586V88.6484C673.586 89.0495 673.609 89.3073 673.656 89.4219C673.708 89.5365 673.789 89.6276 673.898 89.6953C674.013 89.763 674.174 89.7969 674.383 89.7969C674.539 89.7969 674.745 89.7786 675 89.7422ZM682.062 88.3281L683.516 88.5078C683.286 89.3568 682.862 90.0156 682.242 90.4844C681.622 90.9531 680.831 91.1875 679.867 91.1875C678.654 91.1875 677.69 90.8151 676.977 90.0703C676.268 89.3203 675.914 88.2708 675.914 86.9219C675.914 85.526 676.273 84.4427 676.992 83.6719C677.711 82.901 678.643 82.5156 679.789 82.5156C680.898 82.5156 681.805 82.8932 682.508 83.6484C683.211 84.4036 683.562 85.4661 683.562 86.8359C683.562 86.9193 683.56 87.0443 683.555 87.2109H677.367C677.419 88.1224 677.677 88.8203 678.141 89.3047C678.604 89.7891 679.182 90.0312 679.875 90.0312C680.391 90.0312 680.831 89.8958 681.195 89.625C681.56 89.3542 681.849 88.9219 682.062 88.3281ZM677.445 86.0547H682.078C682.016 85.3568 681.839 84.8333 681.547 84.4844C681.099 83.9427 680.518 83.6719 679.805 83.6719C679.159 83.6719 678.615 83.888 678.172 84.3203C677.734 84.7526 677.492 85.3307 677.445 86.0547ZM684.352 91L687.383 86.6875L684.578 82.7031H686.336L687.609 84.6484C687.849 85.0182 688.042 85.3281 688.188 85.5781C688.417 85.2344 688.628 84.9297 688.82 84.6641L690.219 82.7031H691.898L689.031 86.6094L692.117 91H690.391L688.688 88.4219L688.234 87.7266L686.055 91H684.352ZM696.359 89.7422L696.562 90.9844C696.167 91.0677 695.812 91.1094 695.5 91.1094C694.99 91.1094 694.594 91.0286 694.312 90.8672C694.031 90.7057 693.833 90.4948 693.719 90.2344C693.604 89.9688 693.547 89.4141 693.547 88.5703V83.7969H692.516V82.7031H693.547V80.6484L694.945 79.8047V82.7031H696.359V83.7969H694.945V88.6484C694.945 89.0495 694.969 89.3073 695.016 89.4219C695.068 89.5365 695.148 89.6276 695.258 89.6953C695.372 89.763 695.534 89.7969 695.742 89.7969C695.898 89.7969 696.104 89.7786 696.359 89.7422ZM703.422 88.3281L704.875 88.5078C704.646 89.3568 704.221 90.0156 703.602 90.4844C702.982 90.9531 702.19 91.1875 701.227 91.1875C700.013 91.1875 699.049 90.8151 698.336 90.0703C697.628 89.3203 697.273 88.2708 697.273 86.9219C697.273 85.526 697.633 84.4427 698.352 83.6719C699.07 82.901 700.003 82.5156 701.148 82.5156C702.258 82.5156 703.164 82.8932 703.867 83.6484C704.57 84.4036 704.922 85.4661 704.922 86.8359C704.922 86.9193 704.919 87.0443 704.914 87.2109H698.727C698.779 88.1224 699.036 88.8203 699.5 89.3047C699.964 89.7891 700.542 90.0312 701.234 90.0312C701.75 90.0312 702.19 89.8958 702.555 89.625C702.919 89.3542 703.208 88.9219 703.422 88.3281ZM698.805 86.0547H703.438C703.375 85.3568 703.198 84.8333 702.906 84.4844C702.458 83.9427 701.878 83.6719 701.164 83.6719C700.518 83.6719 699.974 83.888 699.531 84.3203C699.094 84.7526 698.852 85.3307 698.805 86.0547ZM716.484 91V89.9531C715.958 90.776 715.185 91.1875 714.164 91.1875C713.503 91.1875 712.893 91.0052 712.336 90.6406C711.784 90.276 711.354 89.7682 711.047 89.1172C710.745 88.4609 710.594 87.7083 710.594 86.8594C710.594 86.0312 710.732 85.2812 711.008 84.6094C711.284 83.9323 711.698 83.4141 712.25 83.0547C712.802 82.6953 713.419 82.5156 714.102 82.5156C714.602 82.5156 715.047 82.6224 715.438 82.8359C715.828 83.0443 716.146 83.3177 716.391 83.6562V79.5469H717.789V91H716.484ZM712.039 86.8594C712.039 87.9219 712.263 88.7161 712.711 89.2422C713.159 89.7682 713.688 90.0312 714.297 90.0312C714.911 90.0312 715.432 89.7812 715.859 89.2812C716.292 88.776 716.508 88.0078 716.508 86.9766C716.508 85.8411 716.289 85.0078 715.852 84.4766C715.414 83.9453 714.875 83.6797 714.234 83.6797C713.609 83.6797 713.086 83.9349 712.664 84.4453C712.247 84.9557 712.039 85.7604 712.039 86.8594ZM719.922 81.0625V79.4297H721.43V80.7188C721.43 81.4167 721.349 81.9193 721.188 82.2266C720.964 82.6484 720.615 82.9661 720.141 83.1797L719.797 82.625C720.078 82.5104 720.286 82.3307 720.422 82.0859C720.562 81.8359 720.641 81.4948 720.656 81.0625H719.922ZM728.984 89.9766C728.464 90.4193 727.961 90.7318 727.477 90.9141C726.997 91.0964 726.482 91.1875 725.93 91.1875C725.018 91.1875 724.318 90.9661 723.828 90.5234C723.339 90.0755 723.094 89.5052 723.094 88.8125C723.094 88.4062 723.185 88.0365 723.367 87.7031C723.555 87.3646 723.797 87.0938 724.094 86.8906C724.396 86.6875 724.734 86.5339 725.109 86.4297C725.385 86.3568 725.802 86.2865 726.359 86.2188C727.495 86.0833 728.331 85.9219 728.867 85.7344C728.872 85.5417 728.875 85.4193 728.875 85.3672C728.875 84.7943 728.742 84.3906 728.477 84.1562C728.117 83.8385 727.583 83.6797 726.875 83.6797C726.214 83.6797 725.724 83.7969 725.406 84.0312C725.094 84.2604 724.862 84.6693 724.711 85.2578L723.336 85.0703C723.461 84.4818 723.667 84.0078 723.953 83.6484C724.24 83.2839 724.654 83.0052 725.195 82.8125C725.737 82.6146 726.365 82.5156 727.078 82.5156C727.786 82.5156 728.362 82.599 728.805 82.7656C729.247 82.9323 729.573 83.1432 729.781 83.3984C729.99 83.6484 730.135 83.9661 730.219 84.3516C730.266 84.5911 730.289 85.0234 730.289 85.6484V87.5234C730.289 88.8307 730.318 89.6589 730.375 90.0078C730.438 90.3516 730.557 90.6823 730.734 91H729.266C729.12 90.7083 729.026 90.3672 728.984 89.9766ZM728.867 86.8359C728.357 87.0443 727.591 87.2214 726.57 87.3672C725.992 87.4505 725.583 87.5443 725.344 87.6484C725.104 87.7526 724.919 87.9062 724.789 88.1094C724.659 88.3073 724.594 88.5286 724.594 88.7734C724.594 89.1484 724.734 89.4609 725.016 89.7109C725.302 89.9609 725.719 90.0859 726.266 90.0859C726.807 90.0859 727.289 89.9688 727.711 89.7344C728.133 89.4948 728.443 89.1693 728.641 88.7578C728.792 88.4401 728.867 87.9714 728.867 87.3516V86.8359ZM737.891 87.9609L739.273 88.1406C739.122 89.0938 738.734 89.8411 738.109 90.3828C737.49 90.9193 736.727 91.1875 735.82 91.1875C734.685 91.1875 733.771 90.8177 733.078 90.0781C732.391 89.3333 732.047 88.2682 732.047 86.8828C732.047 85.987 732.195 85.2031 732.492 84.5312C732.789 83.8594 733.24 83.3568 733.844 83.0234C734.453 82.6849 735.115 82.5156 735.828 82.5156C736.729 82.5156 737.466 82.7448 738.039 83.2031C738.612 83.6562 738.979 84.3021 739.141 85.1406L737.773 85.3516C737.643 84.7943 737.411 84.375 737.078 84.0938C736.75 83.8125 736.352 83.6719 735.883 83.6719C735.174 83.6719 734.599 83.9271 734.156 84.4375C733.714 84.9427 733.492 85.7448 733.492 86.8438C733.492 87.9583 733.706 88.7682 734.133 89.2734C734.56 89.7786 735.117 90.0312 735.805 90.0312C736.357 90.0312 736.818 89.862 737.188 89.5234C737.557 89.1849 737.792 88.6641 737.891 87.9609ZM745.891 87.9609L747.273 88.1406C747.122 89.0938 746.734 89.8411 746.109 90.3828C745.49 90.9193 744.727 91.1875 743.82 91.1875C742.685 91.1875 741.771 90.8177 741.078 90.0781C740.391 89.3333 740.047 88.2682 740.047 86.8828C740.047 85.987 740.195 85.2031 740.492 84.5312C740.789 83.8594 741.24 83.3568 741.844 83.0234C742.453 82.6849 743.115 82.5156 743.828 82.5156C744.729 82.5156 745.466 82.7448 746.039 83.2031C746.612 83.6562 746.979 84.3021 747.141 85.1406L745.773 85.3516C745.643 84.7943 745.411 84.375 745.078 84.0938C744.75 83.8125 744.352 83.6719 743.883 83.6719C743.174 83.6719 742.599 83.9271 742.156 84.4375C741.714 84.9427 741.492 85.7448 741.492 86.8438C741.492 87.9583 741.706 88.7682 742.133 89.2734C742.56 89.7786 743.117 90.0312 743.805 90.0312C744.357 90.0312 744.818 89.862 745.188 89.5234C745.557 89.1849 745.792 88.6641 745.891 87.9609ZM747.953 86.8516C747.953 85.3151 748.38 84.1771 749.234 83.4375C749.948 82.8229 750.818 82.5156 751.844 82.5156C752.984 82.5156 753.917 82.8906 754.641 83.6406C755.365 84.3854 755.727 85.4167 755.727 86.7344C755.727 87.8021 755.565 88.6432 755.242 89.2578C754.924 89.8672 754.458 90.3411 753.844 90.6797C753.234 91.0182 752.568 91.1875 751.844 91.1875C750.682 91.1875 749.742 90.8151 749.023 90.0703C748.31 89.3255 747.953 88.2526 747.953 86.8516ZM749.398 86.8516C749.398 87.9141 749.63 88.7109 750.094 89.2422C750.557 89.7682 751.141 90.0312 751.844 90.0312C752.542 90.0312 753.122 89.7656 753.586 89.2344C754.049 88.7031 754.281 87.8932 754.281 86.8047C754.281 85.7786 754.047 85.0026 753.578 84.4766C753.115 83.9453 752.536 83.6797 751.844 83.6797C751.141 83.6797 750.557 83.9427 750.094 84.4688C749.63 84.9948 749.398 85.7891 749.398 86.8516ZM757.383 91V82.7031H758.641V83.8672C758.901 83.4609 759.247 83.1354 759.68 82.8906C760.112 82.6406 760.604 82.5156 761.156 82.5156C761.771 82.5156 762.273 82.6432 762.664 82.8984C763.06 83.1536 763.339 83.5104 763.5 83.9688C764.156 83 765.01 82.5156 766.062 82.5156C766.885 82.5156 767.518 82.7448 767.961 83.2031C768.404 83.6562 768.625 84.3568 768.625 85.3047V91H767.227V85.7734C767.227 85.2109 767.18 84.8073 767.086 84.5625C766.997 84.3125 766.833 84.112 766.594 83.9609C766.354 83.8099 766.073 83.7344 765.75 83.7344C765.167 83.7344 764.682 83.9297 764.297 84.3203C763.911 84.7057 763.719 85.3255 763.719 86.1797V91H762.312V85.6094C762.312 84.9844 762.198 84.5156 761.969 84.2031C761.74 83.8906 761.365 83.7344 760.844 83.7344C760.448 83.7344 760.081 83.8385 759.742 84.0469C759.409 84.2552 759.167 84.5599 759.016 84.9609C758.865 85.362 758.789 85.9401 758.789 86.6953V91H757.383ZM770.711 94.1797V82.7031H771.992V83.7812C772.294 83.3594 772.635 83.0443 773.016 82.8359C773.396 82.6224 773.857 82.5156 774.398 82.5156C775.107 82.5156 775.732 82.6979 776.273 83.0625C776.815 83.4271 777.224 83.9427 777.5 84.6094C777.776 85.2708 777.914 85.9974 777.914 86.7891C777.914 87.638 777.76 88.4036 777.453 89.0859C777.151 89.763 776.708 90.2839 776.125 90.6484C775.547 91.0078 774.938 91.1875 774.297 91.1875C773.828 91.1875 773.406 91.0885 773.031 90.8906C772.661 90.6927 772.357 90.4427 772.117 90.1406V94.1797H770.711ZM771.984 86.8984C771.984 87.9661 772.201 88.7552 772.633 89.2656C773.065 89.776 773.589 90.0312 774.203 90.0312C774.828 90.0312 775.362 89.7682 775.805 89.2422C776.253 88.7109 776.477 87.8906 776.477 86.7812C776.477 85.724 776.258 84.9323 775.82 84.4062C775.388 83.8802 774.87 83.6172 774.266 83.6172C773.667 83.6172 773.135 83.8984 772.672 84.4609C772.214 85.0182 771.984 85.8307 771.984 86.8984ZM785.031 89.9766C784.51 90.4193 784.008 90.7318 783.523 90.9141C783.044 91.0964 782.529 91.1875 781.977 91.1875C781.065 91.1875 780.365 90.9661 779.875 90.5234C779.385 90.0755 779.141 89.5052 779.141 88.8125C779.141 88.4062 779.232 88.0365 779.414 87.7031C779.602 87.3646 779.844 87.0938 780.141 86.8906C780.443 86.6875 780.781 86.5339 781.156 86.4297C781.432 86.3568 781.849 86.2865 782.406 86.2188C783.542 86.0833 784.378 85.9219 784.914 85.7344C784.919 85.5417 784.922 85.4193 784.922 85.3672C784.922 84.7943 784.789 84.3906 784.523 84.1562C784.164 83.8385 783.63 83.6797 782.922 83.6797C782.26 83.6797 781.771 83.7969 781.453 84.0312C781.141 84.2604 780.909 84.6693 780.758 85.2578L779.383 85.0703C779.508 84.4818 779.714 84.0078 780 83.6484C780.286 83.2839 780.701 83.0052 781.242 82.8125C781.784 82.6146 782.411 82.5156 783.125 82.5156C783.833 82.5156 784.409 82.599 784.852 82.7656C785.294 82.9323 785.62 83.1432 785.828 83.3984C786.036 83.6484 786.182 83.9661 786.266 84.3516C786.312 84.5911 786.336 85.0234 786.336 85.6484V87.5234C786.336 88.8307 786.365 89.6589 786.422 90.0078C786.484 90.3516 786.604 90.6823 786.781 91H785.312C785.167 90.7083 785.073 90.3672 785.031 89.9766ZM784.914 86.8359C784.404 87.0443 783.638 87.2214 782.617 87.3672C782.039 87.4505 781.63 87.5443 781.391 87.6484C781.151 87.7526 780.966 87.9062 780.836 88.1094C780.706 88.3073 780.641 88.5286 780.641 88.7734C780.641 89.1484 780.781 89.4609 781.062 89.7109C781.349 89.9609 781.766 90.0859 782.312 90.0859C782.854 90.0859 783.336 89.9688 783.758 89.7344C784.18 89.4948 784.49 89.1693 784.688 88.7578C784.839 88.4401 784.914 87.9714 784.914 87.3516V86.8359ZM788.266 91.6875L789.633 91.8906C789.69 92.3125 789.849 92.6198 790.109 92.8125C790.458 93.0729 790.935 93.2031 791.539 93.2031C792.19 93.2031 792.693 93.0729 793.047 92.8125C793.401 92.5521 793.641 92.1875 793.766 91.7188C793.839 91.4323 793.872 90.8307 793.867 89.9141C793.253 90.638 792.487 91 791.57 91C790.43 91 789.547 90.5885 788.922 89.7656C788.297 88.9427 787.984 87.9557 787.984 86.8047C787.984 86.013 788.128 85.2839 788.414 84.6172C788.701 83.9453 789.115 83.4271 789.656 83.0625C790.203 82.6979 790.844 82.5156 791.578 82.5156C792.557 82.5156 793.365 82.9115 794 83.7031V82.7031H795.297V89.875C795.297 91.1667 795.164 92.0807 794.898 92.6172C794.638 93.1589 794.221 93.5859 793.648 93.8984C793.081 94.2109 792.38 94.3672 791.547 94.3672C790.557 94.3672 789.758 94.1432 789.148 93.6953C788.539 93.2526 788.245 92.5833 788.266 91.6875ZM789.43 86.7031C789.43 87.7917 789.646 88.5859 790.078 89.0859C790.51 89.5859 791.052 89.8359 791.703 89.8359C792.349 89.8359 792.891 89.5885 793.328 89.0938C793.766 88.5938 793.984 87.8125 793.984 86.75C793.984 85.7344 793.758 84.9688 793.305 84.4531C792.857 83.9375 792.315 83.6797 791.68 83.6797C791.055 83.6797 790.523 83.9349 790.086 84.4453C789.648 84.9505 789.43 85.7031 789.43 86.7031ZM797.43 91V82.7031H798.695V83.8828C799.305 82.9714 800.185 82.5156 801.336 82.5156C801.836 82.5156 802.294 82.6068 802.711 82.7891C803.133 82.9661 803.448 83.2005 803.656 83.4922C803.865 83.7839 804.01 84.1302 804.094 84.5312C804.146 84.7917 804.172 85.2474 804.172 85.8984V91H802.766V85.9531C802.766 85.3802 802.711 84.9531 802.602 84.6719C802.492 84.3854 802.297 84.1589 802.016 83.9922C801.74 83.8203 801.414 83.7344 801.039 83.7344C800.44 83.7344 799.922 83.9245 799.484 84.3047C799.052 84.6849 798.836 85.4062 798.836 86.4688V91H797.43ZM812.016 88.3281L813.469 88.5078C813.24 89.3568 812.815 90.0156 812.195 90.4844C811.576 90.9531 810.784 91.1875 809.82 91.1875C808.607 91.1875 807.643 90.8151 806.93 90.0703C806.221 89.3203 805.867 88.2708 805.867 86.9219C805.867 85.526 806.227 84.4427 806.945 83.6719C807.664 82.901 808.596 82.5156 809.742 82.5156C810.852 82.5156 811.758 82.8932 812.461 83.6484C813.164 84.4036 813.516 85.4661 813.516 86.8359C813.516 86.9193 813.513 87.0443 813.508 87.2109H807.32C807.372 88.1224 807.63 88.8203 808.094 89.3047C808.557 89.7891 809.135 90.0312 809.828 90.0312C810.344 90.0312 810.784 89.8958 811.148 89.625C811.513 89.3542 811.802 88.9219 812.016 88.3281ZM807.398 86.0547H812.031C811.969 85.3568 811.792 84.8333 811.5 84.4844C811.052 83.9427 810.471 83.6719 809.758 83.6719C809.112 83.6719 808.568 83.888 808.125 84.3203C807.688 84.7526 807.445 85.3307 807.398 86.0547ZM815.242 91V82.7031H816.5V83.8672C816.76 83.4609 817.107 83.1354 817.539 82.8906C817.971 82.6406 818.464 82.5156 819.016 82.5156C819.63 82.5156 820.133 82.6432 820.523 82.8984C820.919 83.1536 821.198 83.5104 821.359 83.9688C822.016 83 822.87 82.5156 823.922 82.5156C824.745 82.5156 825.378 82.7448 825.82 83.2031C826.263 83.6562 826.484 84.3568 826.484 85.3047V91H825.086V85.7734C825.086 85.2109 825.039 84.8073 824.945 84.5625C824.857 84.3125 824.693 84.112 824.453 83.9609C824.214 83.8099 823.932 83.7344 823.609 83.7344C823.026 83.7344 822.542 83.9297 822.156 84.3203C821.771 84.7057 821.578 85.3255 821.578 86.1797V91H820.172V85.6094C820.172 84.9844 820.057 84.5156 819.828 84.2031C819.599 83.8906 819.224 83.7344 818.703 83.7344C818.307 83.7344 817.94 83.8385 817.602 84.0469C817.268 84.2552 817.026 84.5599 816.875 84.9609C816.724 85.362 816.648 85.9401 816.648 86.6953V91H815.242ZM834.25 88.3281L835.703 88.5078C835.474 89.3568 835.049 90.0156 834.43 90.4844C833.81 90.9531 833.018 91.1875 832.055 91.1875C830.841 91.1875 829.878 90.8151 829.164 90.0703C828.456 89.3203 828.102 88.2708 828.102 86.9219C828.102 85.526 828.461 84.4427 829.18 83.6719C829.898 82.901 830.831 82.5156 831.977 82.5156C833.086 82.5156 833.992 82.8932 834.695 83.6484C835.398 84.4036 835.75 85.4661 835.75 86.8359C835.75 86.9193 835.747 87.0443 835.742 87.2109H829.555C829.607 88.1224 829.865 88.8203 830.328 89.3047C830.792 89.7891 831.37 90.0312 832.062 90.0312C832.578 90.0312 833.018 89.8958 833.383 89.625C833.747 89.3542 834.036 88.9219 834.25 88.3281ZM829.633 86.0547H834.266C834.203 85.3568 834.026 84.8333 833.734 84.4844C833.286 83.9427 832.706 83.6719 831.992 83.6719C831.346 83.6719 830.802 83.888 830.359 84.3203C829.922 84.7526 829.68 85.3307 829.633 86.0547ZM837.477 91V82.7031H838.742V83.8828C839.352 82.9714 840.232 82.5156 841.383 82.5156C841.883 82.5156 842.341 82.6068 842.758 82.7891C843.18 82.9661 843.495 83.2005 843.703 83.4922C843.911 83.7839 844.057 84.1302 844.141 84.5312C844.193 84.7917 844.219 85.2474 844.219 85.8984V91H842.812V85.9531C842.812 85.3802 842.758 84.9531 842.648 84.6719C842.539 84.3854 842.344 84.1589 842.062 83.9922C841.786 83.8203 841.461 83.7344 841.086 83.7344C840.487 83.7344 839.969 83.9245 839.531 84.3047C839.099 84.6849 838.883 85.4062 838.883 86.4688V91H837.477ZM849.453 89.7422L849.656 90.9844C849.26 91.0677 848.906 91.1094 848.594 91.1094C848.083 91.1094 847.688 91.0286 847.406 90.8672C847.125 90.7057 846.927 90.4948 846.812 90.2344C846.698 89.9688 846.641 89.4141 846.641 88.5703V83.7969H845.609V82.7031H846.641V80.6484L848.039 79.8047V82.7031H849.453V83.7969H848.039V88.6484C848.039 89.0495 848.062 89.3073 848.109 89.4219C848.161 89.5365 848.242 89.6276 848.352 89.6953C848.466 89.763 848.628 89.7969 848.836 89.7969C848.992 89.7969 849.198 89.7786 849.453 89.7422ZM860.703 89.9766C860.182 90.4193 859.68 90.7318 859.195 90.9141C858.716 91.0964 858.201 91.1875 857.648 91.1875C856.737 91.1875 856.036 90.9661 855.547 90.5234C855.057 90.0755 854.812 89.5052 854.812 88.8125C854.812 88.4062 854.904 88.0365 855.086 87.7031C855.273 87.3646 855.516 87.0938 855.812 86.8906C856.115 86.6875 856.453 86.5339 856.828 86.4297C857.104 86.3568 857.521 86.2865 858.078 86.2188C859.214 86.0833 860.049 85.9219 860.586 85.7344C860.591 85.5417 860.594 85.4193 860.594 85.3672C860.594 84.7943 860.461 84.3906 860.195 84.1562C859.836 83.8385 859.302 83.6797 858.594 83.6797C857.932 83.6797 857.443 83.7969 857.125 84.0312C856.812 84.2604 856.581 84.6693 856.43 85.2578L855.055 85.0703C855.18 84.4818 855.385 84.0078 855.672 83.6484C855.958 83.2839 856.372 83.0052 856.914 82.8125C857.456 82.6146 858.083 82.5156 858.797 82.5156C859.505 82.5156 860.081 82.599 860.523 82.7656C860.966 82.9323 861.292 83.1432 861.5 83.3984C861.708 83.6484 861.854 83.9661 861.938 84.3516C861.984 84.5911 862.008 85.0234 862.008 85.6484V87.5234C862.008 88.8307 862.036 89.6589 862.094 90.0078C862.156 90.3516 862.276 90.6823 862.453 91H860.984C860.839 90.7083 860.745 90.3672 860.703 89.9766ZM860.586 86.8359C860.076 87.0443 859.31 87.2214 858.289 87.3672C857.711 87.4505 857.302 87.5443 857.062 87.6484C856.823 87.7526 856.638 87.9062 856.508 88.1094C856.378 88.3073 856.312 88.5286 856.312 88.7734C856.312 89.1484 856.453 89.4609 856.734 89.7109C857.021 89.9609 857.438 90.0859 857.984 90.0859C858.526 90.0859 859.008 89.9688 859.43 89.7344C859.852 89.4948 860.161 89.1693 860.359 88.7578C860.51 88.4401 860.586 87.9714 860.586 87.3516V86.8359ZM859.82 81.6719H858.688L856.883 79.4844H858.766L859.82 81.6719ZM874.062 87.9609L875.445 88.1406C875.294 89.0938 874.906 89.8411 874.281 90.3828C873.661 90.9193 872.898 91.1875 871.992 91.1875C870.857 91.1875 869.943 90.8177 869.25 90.0781C868.562 89.3333 868.219 88.2682 868.219 86.8828C868.219 85.987 868.367 85.2031 868.664 84.5312C868.961 83.8594 869.411 83.3568 870.016 83.0234C870.625 82.6849 871.286 82.5156 872 82.5156C872.901 82.5156 873.638 82.7448 874.211 83.2031C874.784 83.6562 875.151 84.3021 875.312 85.1406L873.945 85.3516C873.815 84.7943 873.583 84.375 873.25 84.0938C872.922 83.8125 872.523 83.6719 872.055 83.6719C871.346 83.6719 870.771 83.9271 870.328 84.4375C869.885 84.9427 869.664 85.7448 869.664 86.8438C869.664 87.9583 869.878 88.7682 870.305 89.2734C870.732 89.7786 871.289 90.0312 871.977 90.0312C872.529 90.0312 872.99 89.862 873.359 89.5234C873.729 89.1849 873.964 88.6641 874.062 87.9609ZM876.125 86.8516C876.125 85.3151 876.552 84.1771 877.406 83.4375C878.12 82.8229 878.99 82.5156 880.016 82.5156C881.156 82.5156 882.089 82.8906 882.812 83.6406C883.536 84.3854 883.898 85.4167 883.898 86.7344C883.898 87.8021 883.737 88.6432 883.414 89.2578C883.096 89.8672 882.63 90.3411 882.016 90.6797C881.406 91.0182 880.74 91.1875 880.016 91.1875C878.854 91.1875 877.914 90.8151 877.195 90.0703C876.482 89.3255 876.125 88.2526 876.125 86.8516ZM877.57 86.8516C877.57 87.9141 877.802 88.7109 878.266 89.2422C878.729 89.7682 879.312 90.0312 880.016 90.0312C880.714 90.0312 881.294 89.7656 881.758 89.2344C882.221 88.7031 882.453 87.8932 882.453 86.8047C882.453 85.7786 882.219 85.0026 881.75 84.4766C881.286 83.9453 880.708 83.6797 880.016 83.6797C879.312 83.6797 878.729 83.9427 878.266 84.4688C877.802 84.9948 877.57 85.7891 877.57 86.8516ZM880.031 80.3438L879.148 81.6719H877.539L879.227 79.4844H880.727L882.484 81.6719H880.891L880.031 80.3438ZM888.625 89.7422L888.828 90.9844C888.432 91.0677 888.078 91.1094 887.766 91.1094C887.255 91.1094 886.859 91.0286 886.578 90.8672C886.297 90.7057 886.099 90.4948 885.984 90.2344C885.87 89.9688 885.812 89.4141 885.812 88.5703V83.7969H884.781V82.7031H885.812V80.6484L887.211 79.8047V82.7031H888.625V83.7969H887.211V88.6484C887.211 89.0495 887.234 89.3073 887.281 89.4219C887.333 89.5365 887.414 89.6276 887.523 89.6953C887.638 89.763 887.799 89.7969 888.008 89.7969C888.164 89.7969 888.37 89.7786 888.625 89.7422ZM895.688 88.3281L897.141 88.5078C896.911 89.3568 896.487 90.0156 895.867 90.4844C895.247 90.9531 894.456 91.1875 893.492 91.1875C892.279 91.1875 891.315 90.8151 890.602 90.0703C889.893 89.3203 889.539 88.2708 889.539 86.9219C889.539 85.526 889.898 84.4427 890.617 83.6719C891.336 82.901 892.268 82.5156 893.414 82.5156C894.523 82.5156 895.43 82.8932 896.133 83.6484C896.836 84.4036 897.188 85.4661 897.188 86.8359C897.188 86.9193 897.185 87.0443 897.18 87.2109H890.992C891.044 88.1224 891.302 88.8203 891.766 89.3047C892.229 89.7891 892.807 90.0312 893.5 90.0312C894.016 90.0312 894.456 89.8958 894.82 89.625C895.185 89.3542 895.474 88.9219 895.688 88.3281ZM891.07 86.0547H895.703C895.641 85.3568 895.464 84.8333 895.172 84.4844C894.724 83.9427 894.143 83.6719 893.43 83.6719C892.784 83.6719 892.24 83.888 891.797 84.3203C891.359 84.7526 891.117 85.3307 891.07 86.0547ZM892.586 81.6719L893.625 79.4844H895.469L893.75 81.6719H892.586ZM902.844 86.8516C902.844 85.3151 903.271 84.1771 904.125 83.4375C904.839 82.8229 905.708 82.5156 906.734 82.5156C907.875 82.5156 908.807 82.8906 909.531 83.6406C910.255 84.3854 910.617 85.4167 910.617 86.7344C910.617 87.8021 910.456 88.6432 910.133 89.2578C909.815 89.8672 909.349 90.3411 908.734 90.6797C908.125 91.0182 907.458 91.1875 906.734 91.1875C905.573 91.1875 904.633 90.8151 903.914 90.0703C903.201 89.3255 902.844 88.2526 902.844 86.8516ZM904.289 86.8516C904.289 87.9141 904.521 88.7109 904.984 89.2422C905.448 89.7682 906.031 90.0312 906.734 90.0312C907.432 90.0312 908.013 89.7656 908.477 89.2344C908.94 88.7031 909.172 87.8932 909.172 86.8047C909.172 85.7786 908.938 85.0026 908.469 84.4766C908.005 83.9453 907.427 83.6797 906.734 83.6797C906.031 83.6797 905.448 83.9427 904.984 84.4688C904.521 84.9948 904.289 85.7891 904.289 86.8516ZM917.711 91V89.7812C917.065 90.7188 916.188 91.1875 915.078 91.1875C914.589 91.1875 914.13 91.0938 913.703 90.9062C913.281 90.7188 912.966 90.4844 912.758 90.2031C912.555 89.9167 912.411 89.5677 912.328 89.1562C912.271 88.8802 912.242 88.4427 912.242 87.8438V82.7031H913.648V87.3047C913.648 88.0391 913.677 88.5339 913.734 88.7891C913.823 89.1589 914.01 89.4505 914.297 89.6641C914.583 89.8724 914.938 89.9766 915.359 89.9766C915.781 89.9766 916.177 89.8698 916.547 89.6562C916.917 89.4375 917.177 89.1432 917.328 88.7734C917.484 88.3984 917.562 87.8568 917.562 87.1484V82.7031H918.969V91H917.711ZM925.07 88.5234L926.461 88.3047C926.539 88.862 926.755 89.2891 927.109 89.5859C927.469 89.8828 927.969 90.0312 928.609 90.0312C929.255 90.0312 929.734 89.901 930.047 89.6406C930.359 89.375 930.516 89.0651 930.516 88.7109C930.516 88.3932 930.378 88.1432 930.102 87.9609C929.909 87.8359 929.43 87.6771 928.664 87.4844C927.633 87.224 926.917 87 926.516 86.8125C926.12 86.6198 925.818 86.3568 925.609 86.0234C925.406 85.6849 925.305 85.3125 925.305 84.9062C925.305 84.5365 925.388 84.1953 925.555 83.8828C925.727 83.5651 925.958 83.3021 926.25 83.0938C926.469 82.9323 926.766 82.7969 927.141 82.6875C927.521 82.5729 927.927 82.5156 928.359 82.5156C929.01 82.5156 929.581 82.6094 930.07 82.7969C930.565 82.9844 930.93 83.2396 931.164 83.5625C931.398 83.8802 931.56 84.3073 931.648 84.8438L930.273 85.0312C930.211 84.6042 930.029 84.2708 929.727 84.0312C929.43 83.7917 929.008 83.6719 928.461 83.6719C927.815 83.6719 927.354 83.7786 927.078 83.9922C926.802 84.2057 926.664 84.4557 926.664 84.7422C926.664 84.9245 926.721 85.0885 926.836 85.2344C926.951 85.3854 927.13 85.5104 927.375 85.6094C927.516 85.6615 927.93 85.7812 928.617 85.9688C929.612 86.2344 930.305 86.4531 930.695 86.625C931.091 86.7917 931.401 87.0365 931.625 87.3594C931.849 87.6823 931.961 88.0833 931.961 88.5625C931.961 89.0312 931.823 89.474 931.547 89.8906C931.276 90.3021 930.883 90.6224 930.367 90.8516C929.852 91.0755 929.268 91.1875 928.617 91.1875C927.539 91.1875 926.716 90.9635 926.148 90.5156C925.586 90.0677 925.227 89.4036 925.07 88.5234ZM933.109 86.8516C933.109 85.3151 933.536 84.1771 934.391 83.4375C935.104 82.8229 935.974 82.5156 937 82.5156C938.141 82.5156 939.073 82.8906 939.797 83.6406C940.521 84.3854 940.883 85.4167 940.883 86.7344C940.883 87.8021 940.721 88.6432 940.398 89.2578C940.081 89.8672 939.615 90.3411 939 90.6797C938.391 91.0182 937.724 91.1875 937 91.1875C935.839 91.1875 934.898 90.8151 934.18 90.0703C933.466 89.3255 933.109 88.2526 933.109 86.8516ZM934.555 86.8516C934.555 87.9141 934.786 88.7109 935.25 89.2422C935.714 89.7682 936.297 90.0312 937 90.0312C937.698 90.0312 938.279 89.7656 938.742 89.2344C939.206 88.7031 939.438 87.8932 939.438 86.8047C939.438 85.7786 939.203 85.0026 938.734 84.4766C938.271 83.9453 937.693 83.6797 937 83.6797C936.297 83.6797 935.714 83.9427 935.25 84.4688C934.786 84.9948 934.555 85.7891 934.555 86.8516ZM947.977 91V89.7812C947.331 90.7188 946.453 91.1875 945.344 91.1875C944.854 91.1875 944.396 91.0938 943.969 90.9062C943.547 90.7188 943.232 90.4844 943.023 90.2031C942.82 89.9167 942.677 89.5677 942.594 89.1562C942.536 88.8802 942.508 88.4427 942.508 87.8438V82.7031H943.914V87.3047C943.914 88.0391 943.943 88.5339 944 88.7891C944.089 89.1589 944.276 89.4505 944.562 89.6641C944.849 89.8724 945.203 89.9766 945.625 89.9766C946.047 89.9766 946.443 89.8698 946.812 89.6562C947.182 89.4375 947.443 89.1432 947.594 88.7734C947.75 88.3984 947.828 87.8568 947.828 87.1484V82.7031H949.234V91H947.977ZM950.883 88.5234L952.273 88.3047C952.352 88.862 952.568 89.2891 952.922 89.5859C953.281 89.8828 953.781 90.0312 954.422 90.0312C955.068 90.0312 955.547 89.901 955.859 89.6406C956.172 89.375 956.328 89.0651 956.328 88.7109C956.328 88.3932 956.19 88.1432 955.914 87.9609C955.721 87.8359 955.242 87.6771 954.477 87.4844C953.445 87.224 952.729 87 952.328 86.8125C951.932 86.6198 951.63 86.3568 951.422 86.0234C951.219 85.6849 951.117 85.3125 951.117 84.9062C951.117 84.5365 951.201 84.1953 951.367 83.8828C951.539 83.5651 951.771 83.3021 952.062 83.0938C952.281 82.9323 952.578 82.7969 952.953 82.6875C953.333 82.5729 953.74 82.5156 954.172 82.5156C954.823 82.5156 955.393 82.6094 955.883 82.7969C956.378 82.9844 956.742 83.2396 956.977 83.5625C957.211 83.8802 957.372 84.3073 957.461 84.8438L956.086 85.0312C956.023 84.6042 955.841 84.2708 955.539 84.0312C955.242 83.7917 954.82 83.6719 954.273 83.6719C953.628 83.6719 953.167 83.7786 952.891 83.9922C952.615 84.2057 952.477 84.4557 952.477 84.7422C952.477 84.9245 952.534 85.0885 952.648 85.2344C952.763 85.3854 952.943 85.5104 953.188 85.6094C953.328 85.6615 953.742 85.7812 954.43 85.9688C955.424 86.2344 956.117 86.4531 956.508 86.625C956.904 86.7917 957.214 87.0365 957.438 87.3594C957.661 87.6823 957.773 88.0833 957.773 88.5625C957.773 89.0312 957.635 89.474 957.359 89.8906C957.089 90.3021 956.695 90.6224 956.18 90.8516C955.664 91.0755 955.081 91.1875 954.43 91.1875C953.352 91.1875 952.529 90.9635 951.961 90.5156C951.398 90.0677 951.039 89.4036 950.883 88.5234ZM963.867 91V79.5469H965.273V91H963.867ZM973.141 88.3281L974.594 88.5078C974.365 89.3568 973.94 90.0156 973.32 90.4844C972.701 90.9531 971.909 91.1875 970.945 91.1875C969.732 91.1875 968.768 90.8151 968.055 90.0703C967.346 89.3203 966.992 88.2708 966.992 86.9219C966.992 85.526 967.352 84.4427 968.07 83.6719C968.789 82.901 969.721 82.5156 970.867 82.5156C971.977 82.5156 972.883 82.8932 973.586 83.6484C974.289 84.4036 974.641 85.4661 974.641 86.8359C974.641 86.9193 974.638 87.0443 974.633 87.2109H968.445C968.497 88.1224 968.755 88.8203 969.219 89.3047C969.682 89.7891 970.26 90.0312 970.953 90.0312C971.469 90.0312 971.909 89.8958 972.273 89.625C972.638 89.3542 972.927 88.9219 973.141 88.3281ZM968.523 86.0547H973.156C973.094 85.3568 972.917 84.8333 972.625 84.4844C972.177 83.9427 971.596 83.6719 970.883 83.6719C970.237 83.6719 969.693 83.888 969.25 84.3203C968.812 84.7526 968.57 85.3307 968.523 86.0547ZM980.789 91V79.5469H982.195V91H980.789ZM983.859 86.8516C983.859 85.3151 984.286 84.1771 985.141 83.4375C985.854 82.8229 986.724 82.5156 987.75 82.5156C988.891 82.5156 989.823 82.8906 990.547 83.6406C991.271 84.3854 991.633 85.4167 991.633 86.7344C991.633 87.8021 991.471 88.6432 991.148 89.2578C990.831 89.8672 990.365 90.3411 989.75 90.6797C989.141 91.0182 988.474 91.1875 987.75 91.1875C986.589 91.1875 985.648 90.8151 984.93 90.0703C984.216 89.3255 983.859 88.2526 983.859 86.8516ZM985.305 86.8516C985.305 87.9141 985.536 88.7109 986 89.2422C986.464 89.7682 987.047 90.0312 987.75 90.0312C988.448 90.0312 989.029 89.7656 989.492 89.2344C989.956 88.7031 990.188 87.8932 990.188 86.8047C990.188 85.7786 989.953 85.0026 989.484 84.4766C989.021 83.9453 988.443 83.6797 987.75 83.6797C987.047 83.6797 986.464 83.9427 986 84.4688C985.536 84.9948 985.305 85.7891 985.305 86.8516ZM998.703 89.9766C998.182 90.4193 997.68 90.7318 997.195 90.9141C996.716 91.0964 996.201 91.1875 995.648 91.1875C994.737 91.1875 994.036 90.9661 993.547 90.5234C993.057 90.0755 992.812 89.5052 992.812 88.8125C992.812 88.4062 992.904 88.0365 993.086 87.7031C993.273 87.3646 993.516 87.0938 993.812 86.8906C994.115 86.6875 994.453 86.5339 994.828 86.4297C995.104 86.3568 995.521 86.2865 996.078 86.2188C997.214 86.0833 998.049 85.9219 998.586 85.7344C998.591 85.5417 998.594 85.4193 998.594 85.3672C998.594 84.7943 998.461 84.3906 998.195 84.1562C997.836 83.8385 997.302 83.6797 996.594 83.6797C995.932 83.6797 995.443 83.7969 995.125 84.0312C994.812 84.2604 994.581 84.6693 994.43 85.2578L993.055 85.0703C993.18 84.4818 993.385 84.0078 993.672 83.6484C993.958 83.2839 994.372 83.0052 994.914 82.8125C995.456 82.6146 996.083 82.5156 996.797 82.5156C997.505 82.5156 998.081 82.599 998.523 82.7656C998.966 82.9323 999.292 83.1432 999.5 83.3984C999.708 83.6484 999.854 83.9661 999.938 84.3516C999.984 84.5911 1000.01 85.0234 1000.01 85.6484V87.5234C1000.01 88.8307 1000.04 89.6589 1000.09 90.0078C1000.16 90.3516 1000.28 90.6823 1000.45 91H998.984C998.839 90.7083 998.745 90.3672 998.703 89.9766ZM998.586 86.8359C998.076 87.0443 997.31 87.2214 996.289 87.3672C995.711 87.4505 995.302 87.5443 995.062 87.6484C994.823 87.7526 994.638 87.9062 994.508 88.1094C994.378 88.3073 994.312 88.5286 994.312 88.7734C994.312 89.1484 994.453 89.4609 994.734 89.7109C995.021 89.9609 995.438 90.0859 995.984 90.0859C996.526 90.0859 997.008 89.9688 997.43 89.7344C997.852 89.4948 998.161 89.1693 998.359 88.7578C998.51 88.4401 998.586 87.9714 998.586 87.3516V86.8359ZM1007.58 91V89.9531C1007.05 90.776 1006.28 91.1875 1005.26 91.1875C1004.6 91.1875 1003.99 91.0052 1003.43 90.6406C1002.88 90.276 1002.45 89.7682 1002.14 89.1172C1001.84 88.4609 1001.69 87.7083 1001.69 86.8594C1001.69 86.0312 1001.83 85.2812 1002.1 84.6094C1002.38 83.9323 1002.79 83.4141 1003.34 83.0547C1003.9 82.6953 1004.51 82.5156 1005.2 82.5156C1005.7 82.5156 1006.14 82.6224 1006.53 82.8359C1006.92 83.0443 1007.24 83.3177 1007.48 83.6562V79.5469H1008.88V91H1007.58ZM1003.13 86.8594C1003.13 87.9219 1003.36 88.7161 1003.8 89.2422C1004.25 89.7682 1004.78 90.0312 1005.39 90.0312C1006.01 90.0312 1006.53 89.7812 1006.95 89.2812C1007.39 88.776 1007.6 88.0078 1007.6 86.9766C1007.6 85.8411 1007.38 85.0078 1006.95 84.4766C1006.51 83.9453 1005.97 83.6797 1005.33 83.6797C1004.7 83.6797 1004.18 83.9349 1003.76 84.4453C1003.34 84.9557 1003.13 85.7604 1003.13 86.8594ZM1016.78 88.3281L1018.23 88.5078C1018.01 89.3568 1017.58 90.0156 1016.96 90.4844C1016.34 90.9531 1015.55 91.1875 1014.59 91.1875C1013.37 91.1875 1012.41 90.8151 1011.7 90.0703C1010.99 89.3203 1010.63 88.2708 1010.63 86.9219C1010.63 85.526 1010.99 84.4427 1011.71 83.6719C1012.43 82.901 1013.36 82.5156 1014.51 82.5156C1015.62 82.5156 1016.52 82.8932 1017.23 83.6484C1017.93 84.4036 1018.28 85.4661 1018.28 86.8359C1018.28 86.9193 1018.28 87.0443 1018.27 87.2109H1012.09C1012.14 88.1224 1012.4 88.8203 1012.86 89.3047C1013.32 89.7891 1013.9 90.0312 1014.59 90.0312C1015.11 90.0312 1015.55 89.8958 1015.91 89.625C1016.28 89.3542 1016.57 88.9219 1016.78 88.3281ZM1012.16 86.0547H1016.8C1016.73 85.3568 1016.56 84.8333 1016.27 84.4844C1015.82 83.9427 1015.24 83.6719 1014.52 83.6719C1013.88 83.6719 1013.33 83.888 1012.89 84.3203C1012.45 84.7526 1012.21 85.3307 1012.16 86.0547ZM1019.99 91V82.7031H1021.26V83.9609C1021.58 83.3724 1021.88 82.9844 1022.15 82.7969C1022.42 82.6094 1022.73 82.5156 1023.05 82.5156C1023.53 82.5156 1024.01 82.6667 1024.5 82.9688L1024.02 84.2734C1023.67 84.0703 1023.33 83.9688 1022.98 83.9688C1022.68 83.9688 1022.4 84.0625 1022.16 84.25C1021.91 84.4323 1021.74 84.6875 1021.63 85.0156C1021.48 85.5156 1021.4 86.0625 1021.4 86.6562V91H1019.99Z" fill="#3E3E3D"/>
<g opacity="0.5">
<path d="M579.5 109.5H1159" stroke="#CDCCCB"/>
</g>
</g>
<rect x="0.5" y="0.5" width="1158" height="109" rx="7.5" stroke="#CDCCCB"/>
<defs>
<clipPath id="clip0_414_61616">
<rect width="1159" height="110" rx="8" fill="white"/>
</clipPath>
</defs>
</svg>
