<svg viewBox="0 0 20 20" fill="none" xmlns="http://www.w3.org/2000/svg">
<path d="M4.16668 15.8334C3.93057 15.8334 3.73265 15.7535 3.57293 15.5938C3.4132 15.434 3.33334 15.2361 3.33334 15C3.33334 14.7639 3.4132 14.566 3.57293 14.4063C3.73265 14.2465 3.93057 14.1667 4.16668 14.1667H5.00001V8.33335C5.00001 7.18058 5.34723 6.15627 6.04168 5.26044C6.73612 4.3646 7.6389 3.7778 8.75001 3.50002V2.91669C8.75001 2.56946 8.87154 2.27433 9.11459 2.03127C9.35765 1.78821 9.65279 1.66669 10 1.66669C10.3472 1.66669 10.6424 1.78821 10.8854 2.03127C11.1285 2.27433 11.25 2.56946 11.25 2.91669V3.50002C12.3611 3.7778 13.2639 4.3646 13.9583 5.26044C14.6528 6.15627 15 7.18058 15 8.33335V14.1667H15.8333C16.0695 14.1667 16.2674 14.2465 16.4271 14.4063C16.5868 14.566 16.6667 14.7639 16.6667 15C16.6667 15.2361 16.5868 15.434 16.4271 15.5938C16.2674 15.7535 16.0695 15.8334 15.8333 15.8334H4.16668ZM10 18.3334C9.54168 18.3334 9.14932 18.1702 8.82293 17.8438C8.49654 17.5174 8.33334 17.125 8.33334 16.6667H11.6667C11.6667 17.125 11.5035 17.5174 11.1771 17.8438C10.8507 18.1702 10.4583 18.3334 10 18.3334ZM6.66668 14.1667H13.3333V8.33335C13.3333 7.41669 13.007 6.63196 12.3542 5.97919C11.7014 5.32641 10.9167 5.00002 10 5.00002C9.08334 5.00002 8.29862 5.32641 7.64584 5.97919C6.99307 6.63196 6.66668 7.41669 6.66668 8.33335V14.1667ZM10 10.8334C10.2361 10.8334 10.434 10.7535 10.5938 10.5938C10.7535 10.434 10.8333 10.2361 10.8333 10V7.50002C10.8333 7.26391 10.7535 7.06599 10.5938 6.90627C10.434 6.74655 10.2361 6.66669 10 6.66669C9.7639 6.66669 9.56598 6.74655 9.40626 6.90627C9.24654 7.06599 9.16668 7.26391 9.16668 7.50002V10C9.16668 10.2361 9.24654 10.434 9.40626 10.5938C9.56598 10.7535 9.7639 10.8334 10 10.8334ZM10 13.3334C10.2361 13.3334 10.434 13.2535 10.5938 13.0938C10.7535 12.934 10.8333 12.7361 10.8333 12.5C10.8333 12.2639 10.7535 12.066 10.5938 11.9063C10.434 11.7465 10.2361 11.6667 10 11.6667C9.7639 11.6667 9.56598 11.7465 9.40626 11.9063C9.24654 12.066 9.16668 12.2639 9.16668 12.5C9.16668 12.7361 9.24654 12.934 9.40626 13.0938C9.56598 13.2535 9.7639 13.3334 10 13.3334Z" fill="currentColor"/>
</svg>