<svg viewBox="0 0 20 20" fill="none" xmlns="http://www.w3.org/2000/svg">
<g clip-path="url(#clip0_1700_504)">
<path d="M16.6667 9.99999C16.6667 9.12451 16.494 8.25756 16.1589 7.44872C15.8239 6.63995 15.3335 5.90465 14.7144 5.28563C14.0954 4.66662 13.3601 4.17617 12.5514 3.84114C11.7425 3.5061 10.8756 3.33332 10.0001 3.33332C9.1246 3.33332 8.25765 3.5061 7.44881 3.84114C6.64004 4.17617 5.90474 4.66662 5.28573 5.28563C4.66671 5.90465 4.17626 6.63995 3.84123 7.44872C3.5062 8.25756 3.33341 9.12451 3.33341 9.99999C3.33341 10.8755 3.5062 11.7424 3.84123 12.5513C4.17626 13.36 4.66671 14.0953 5.28573 14.7143C5.90474 15.3334 6.64004 15.8238 7.44881 16.1588C8.25765 16.4939 9.1246 16.6667 10.0001 16.6667C10.8756 16.6667 11.7425 16.4939 12.5514 16.1588C13.3601 15.8238 14.0954 15.3334 14.7144 14.7143C15.3335 14.0953 15.8239 13.36 16.1589 12.5513C16.494 11.7424 16.6667 10.8755 16.6667 9.99999ZM8.66707 6.66666C9.59771 6.66682 10.1197 7.35158 10.3988 7.9077C10.6822 8.47226 10.8664 9.19136 11.0206 9.79328C11.1885 10.4485 11.3253 10.9835 11.504 11.3647C11.5952 11.5592 11.6602 11.637 11.692 11.665C12.1975 11.657 12.5931 11.4087 12.8883 11.0408C13.2091 10.6409 13.3334 10.195 13.3334 9.99999C13.3334 9.53975 13.7065 9.16666 14.1667 9.16666C14.627 9.16666 15.0001 9.53975 15.0001 9.99999C15.0001 10.6383 14.7028 11.4425 14.1879 12.0841C13.6522 12.7518 12.8059 13.3333 11.6667 13.3333C10.7341 13.3333 10.2431 12.6014 9.9952 12.0727C9.73441 11.5165 9.55836 10.8013 9.40601 10.2067C9.24001 9.5588 9.09594 9.02765 8.90877 8.65477C8.81857 8.47515 8.74476 8.38806 8.70125 8.35123C8.67483 8.32889 8.67292 8.33316 8.66707 8.33332C8.18549 8.33332 7.92161 8.58177 7.73446 8.93309C7.63729 9.11555 7.57491 9.30695 7.53752 9.458C7.51924 9.5318 7.50813 9.59189 7.50171 9.63052L7.4952 9.6761V9.67121C7.44669 10.1285 7.03712 10.4598 6.57967 10.4118C6.12196 10.3637 5.79019 9.95396 5.8383 9.49625V9.49299L5.83911 9.48892C5.83942 9.48615 5.83948 9.48286 5.83992 9.47916C5.84085 9.4714 5.84244 9.4615 5.84399 9.44986C5.84713 9.4264 5.85155 9.39485 5.85783 9.35709C5.87034 9.28182 5.88963 9.17897 5.91968 9.05761C5.97897 8.81811 6.083 8.48848 6.2631 8.15022C6.63068 7.46 7.36771 6.66666 8.66707 6.66666ZM18.3334 9.99999C18.3334 11.0943 18.1183 12.1782 17.6995 13.1893C17.2807 14.2003 16.6666 15.1189 15.8928 15.8927C15.119 16.6665 14.2004 17.2806 13.1894 17.6994C12.1783 18.1182 11.0944 18.3333 10.0001 18.3333C8.90573 18.3333 7.82184 18.1182 6.81079 17.6994C5.79978 17.2806 4.88114 16.6665 4.10734 15.8927C3.33354 15.1189 2.71949 14.2003 2.3007 13.1893C1.88191 12.1782 1.66675 11.0943 1.66675 9.99999C1.66675 8.90564 1.88191 7.82175 2.3007 6.8107C2.71949 5.79969 3.33354 4.88105 4.10734 4.10725C4.88114 3.33345 5.79978 2.7194 6.81079 2.30061C7.82184 1.88182 8.90573 1.66666 10.0001 1.66666C11.0944 1.66666 12.1783 1.88182 13.1894 2.30061C14.2004 2.7194 15.119 3.33345 15.8928 4.10725C16.6666 4.88105 17.2807 5.79969 17.6995 6.8107C18.1183 7.82175 18.3334 8.90564 18.3334 9.99999Z" fill="currentColor"/>
</g>
<defs>
<clipPath id="clip0_1700_504">
<rect width="20" height="20" fill="white"/>
</clipPath>
</defs>
</svg>
