<svg viewBox="0 0 20 20" fill="none" xmlns="http://www.w3.org/2000/svg">
<path fill-rule="evenodd" clip-rule="evenodd" d="M11.375 2C11.5724 2 11.7605 2.0351 11.9395 2.10449C12.1185 2.17394 12.2847 2.28472 12.4375 2.4375L15.5625 5.5625C15.7153 5.71528 15.8261 5.88152 15.8955 6.06055C15.9649 6.23952 16 6.42757 16 6.625V16.5C16 16.9125 15.8534 17.2658 15.5596 17.5596C15.2657 17.8533 14.9118 18 14.499 18H5.49414C5.08142 18 4.72914 17.8532 4.4375 17.5596C4.14583 17.2658 4 16.9125 4 16.5V3.5C4 3.0875 4.14668 2.73418 4.44043 2.44043C4.73418 2.14668 5.0875 2 5.5 2H11.375ZM10.4482 12C10.3061 12 10.1969 12.0366 10.1211 12.1104C10.0453 12.1841 10.0078 12.2927 10.0078 12.4355V15.707C10.0079 16.1309 10.1069 16.4536 10.3057 16.6748C10.5046 16.8915 10.8012 17 11.1943 17C11.2464 17 11.2986 16.9978 11.3506 16.9932C11.4027 16.9886 11.4527 16.9841 11.5 16.9795C11.609 16.9657 11.687 16.9259 11.7344 16.8613C11.7817 16.7968 11.8057 16.707 11.8057 16.5918C11.8057 16.4583 11.7942 16.3706 11.7705 16.3291C11.7468 16.283 11.7011 16.2642 11.6348 16.2734C11.6018 16.278 11.5691 16.2835 11.5361 16.2881H11.4287C11.2584 16.288 11.1259 16.237 11.0312 16.1357C10.9412 16.0343 10.8965 15.8771 10.8965 15.665V12.4355C10.8965 12.2927 10.8559 12.1841 10.7754 12.1104C10.6996 12.0366 10.5903 12 10.4482 12ZM13.6211 13.4795C13.3321 13.4795 13.0762 13.5237 12.8535 13.6113C12.6311 13.6988 12.456 13.8233 12.3281 13.9844C12.205 14.1457 12.1426 14.3374 12.1426 14.5586C12.1426 14.8028 12.2187 15.0034 12.3701 15.1602C12.5265 15.3123 12.7521 15.4164 13.0459 15.4717L13.7559 15.6035C13.9026 15.6312 14.0119 15.6745 14.083 15.7344C14.1588 15.7897 14.1973 15.8705 14.1973 15.9766C14.1972 16.101 14.1401 16.2029 14.0264 16.2812C13.9174 16.3549 13.7488 16.3916 13.5215 16.3916C13.3605 16.3916 13.197 16.375 13.0312 16.3428C12.8655 16.3059 12.6875 16.2438 12.498 16.1562C12.4223 16.1195 12.3514 16.1083 12.2852 16.1221C12.2236 16.1359 12.1715 16.1658 12.1289 16.2119C12.0911 16.258 12.0671 16.3134 12.0576 16.3779C12.053 16.4377 12.0644 16.5 12.0928 16.5645C12.1259 16.6244 12.181 16.6775 12.2568 16.7236C12.4368 16.825 12.6408 16.896 12.8682 16.9375C13.0955 16.979 13.311 17 13.5146 17C13.9646 17 14.3247 16.9057 14.5947 16.7168C14.8648 16.5232 15 16.2575 15 15.9209C14.9999 15.6721 14.9198 15.4736 14.7588 15.3262C14.6024 15.1786 14.3695 15.0778 14.0615 15.0225L13.3516 14.8906C13.2144 14.8676 13.1122 14.8241 13.0459 14.7598C12.9796 14.6953 12.9464 14.6143 12.9463 14.5176C12.9463 14.3885 13.0005 14.2844 13.1094 14.2061C13.223 14.1277 13.396 14.0889 13.6279 14.0889C13.751 14.0889 13.8792 14.1045 14.0117 14.1367C14.1491 14.169 14.2916 14.2222 14.4385 14.2959C14.5188 14.3327 14.5899 14.347 14.6514 14.3379C14.7176 14.3241 14.7728 14.2941 14.8154 14.248C14.858 14.1975 14.8861 14.1418 14.9004 14.082C14.9146 14.0175 14.9073 13.9545 14.8789 13.8945C14.8552 13.8349 14.808 13.7868 14.7373 13.75C14.5667 13.6578 14.3889 13.5903 14.2041 13.5488C14.0241 13.5027 13.8296 13.4795 13.6211 13.4795ZM8.78613 13.4941C8.68212 13.4941 8.59443 13.5121 8.52344 13.5488C8.45237 13.5857 8.38274 13.6433 8.31641 13.7217L7.63281 14.6172L6.91699 13.7217C6.85544 13.6434 6.78668 13.5857 6.71094 13.5488C6.63987 13.5119 6.5494 13.4941 6.44043 13.4941C6.33628 13.4942 6.24876 13.5241 6.17773 13.584C6.11155 13.6392 6.07609 13.7127 6.07129 13.8047C6.06655 13.8969 6.10617 13.9943 6.19141 14.0957L7.09375 15.1943L6.12109 16.3633C6.04055 16.4647 6 16.5621 6 16.6543C6.00475 16.7465 6.04013 16.8229 6.10645 16.8828C6.1774 16.938 6.26513 16.9657 6.36914 16.9658C6.47811 16.9658 6.56858 16.947 6.63965 16.9102C6.71072 16.8687 6.77727 16.8111 6.83887 16.7373L7.63281 15.79L8.38086 16.7373C8.44717 16.8156 8.51587 16.8733 8.58691 16.9102C8.65791 16.947 8.74551 16.9658 8.84961 16.9658C8.95858 16.9658 9.04695 16.9359 9.11328 16.876C9.1843 16.8161 9.22179 16.7396 9.22656 16.6475C9.2313 16.5553 9.19075 16.4601 9.10547 16.3633L8.11133 15.1943L9.02734 14.1025C9.11263 14.0011 9.15318 13.9037 9.14844 13.8115C9.14835 13.7195 9.115 13.6438 9.04883 13.584C8.98253 13.5241 8.89503 13.4942 8.78613 13.4941Z" fill="currentColor"/>
</svg>
