<svg viewBox="0 0 20 20" fill="none" xmlns="http://www.w3.org/2000/svg">
<path d="M3.33334 3.33333C3.09723 3.33333 2.89932 3.25347 2.73959 3.09374C2.57987 2.93402 2.50001 2.73611 2.50001 2.49999C2.50001 2.26388 2.57987 2.06597 2.73959 1.90624C2.89932 1.74652 3.09723 1.66666 3.33334 1.66666H4.16668C4.40279 1.66666 4.6007 1.74652 4.76043 1.90624C4.92015 2.06597 5.00001 2.26388 5.00001 2.49999C5.00001 2.73611 4.92015 2.93402 4.76043 3.09374C4.6007 3.25347 4.40279 3.33333 4.16668 3.33333H3.33334ZM4.04168 15L3.70834 16.6667H9.16668V15H4.04168ZM4.52084 5.99999L5.10418 5.41666C5.25695 5.26388 5.44793 5.18749 5.67709 5.18749C5.90626 5.18749 6.10418 5.26388 6.27084 5.41666C6.43751 5.58333 6.52084 5.78124 6.52084 6.01041C6.52084 6.23958 6.43751 6.43749 6.27084 6.60416L5.68751 7.18749C5.53473 7.34027 5.34376 7.41666 5.11459 7.41666C4.88543 7.41666 4.68751 7.34027 4.52084 7.18749C4.35418 7.02083 4.27084 6.82291 4.27084 6.59374C4.27084 6.36458 4.35418 6.16666 4.52084 5.99999ZM4.37501 13.3333H9.16668V11.6667H4.70834L4.37501 13.3333ZM10 5.83333C9.02779 5.83333 8.17015 5.53472 7.42709 4.93749C6.68404 4.34027 6.19445 3.59027 5.95834 2.68749C5.90279 2.46527 5.93404 2.25694 6.05209 2.06249C6.17015 1.86805 6.34029 1.74305 6.56251 1.68749C6.78473 1.63194 6.99654 1.66319 7.19793 1.78124C7.39932 1.8993 7.52779 2.06944 7.58334 2.29166C7.72223 2.83333 8.0139 3.28124 8.45834 3.63541C8.90279 3.98958 9.41668 4.16666 10 4.16666C10.5833 4.16666 11.0972 3.98958 11.5417 3.63541C11.9861 3.28124 12.2778 2.83333 12.4167 2.29166C12.4722 2.06944 12.6007 1.8993 12.8021 1.78124C13.0035 1.66319 13.2153 1.63194 13.4375 1.68749C13.6597 1.74305 13.8299 1.86805 13.9479 2.06249C14.066 2.25694 14.0972 2.46527 14.0417 2.68749C13.8056 3.59027 13.316 4.34027 12.5729 4.93749C11.8299 5.53472 10.9722 5.83333 10 5.83333ZM9.16668 8.33333V7.49999C9.16668 7.26388 9.24654 7.06597 9.40626 6.90624C9.56598 6.74652 9.7639 6.66666 10 6.66666C10.2361 6.66666 10.434 6.74652 10.5938 6.90624C10.7535 7.06597 10.8333 7.26388 10.8333 7.49999V8.33333C10.8333 8.56944 10.7535 8.76736 10.5938 8.92708C10.434 9.0868 10.2361 9.16666 10 9.16666C9.7639 9.16666 9.56598 9.0868 9.40626 8.92708C9.24654 8.76736 9.16668 8.56944 9.16668 8.33333ZM10.8333 16.6667H16.2917L15.9583 15H10.8333V16.6667ZM10.8333 13.3333H15.625L15.2917 11.6667H10.8333V13.3333ZM14.3125 7.16666L13.7292 6.58333C13.5764 6.43055 13.4965 6.23958 13.4896 6.01041C13.4826 5.78124 13.5625 5.58333 13.7292 5.41666C13.882 5.26388 14.0764 5.18749 14.3125 5.18749C14.5486 5.18749 14.7431 5.26388 14.8958 5.41666L15.5 5.99999C15.6667 6.15277 15.75 6.34374 15.75 6.57291C15.75 6.80208 15.6667 6.99999 15.5 7.16666C15.3333 7.33333 15.1354 7.41666 14.9063 7.41666C14.6771 7.41666 14.4792 7.33333 14.3125 7.16666ZM16.6667 3.33333H15.8333C15.5972 3.33333 15.3993 3.25347 15.2396 3.09374C15.0799 2.93402 15 2.73611 15 2.49999C15 2.26388 15.0799 2.06597 15.2396 1.90624C15.3993 1.74652 15.5972 1.66666 15.8333 1.66666H16.6667C16.9028 1.66666 17.1007 1.74652 17.2604 1.90624C17.4201 2.06597 17.5 2.26388 17.5 2.49999C17.5 2.73611 17.4201 2.93402 17.2604 3.09374C17.1007 3.25347 16.9028 3.33333 16.6667 3.33333ZM2.06251 16.3333L3.06251 11.3333C3.13195 10.9444 3.32293 10.625 3.63543 10.375C3.94793 10.125 4.30557 9.99999 4.70834 9.99999H15.2917C15.6945 9.99999 16.0521 10.125 16.3646 10.375C16.6771 10.625 16.8681 10.9444 16.9375 11.3333L17.9375 16.3333C18.0486 16.8611 17.934 17.3264 17.5938 17.7292C17.2535 18.1319 16.8195 18.3333 16.2917 18.3333H3.70834C3.18057 18.3333 2.74654 18.1319 2.40626 17.7292C2.06598 17.3264 1.9514 16.8611 2.06251 16.3333Z" fill="currentColor"/>
</svg>