<svg viewBox="0 0 20 20" fill="none" xmlns="http://www.w3.org/2000/svg">
<path d="M14.9999 9.16665H13.3333C13.0971 9.16665 12.8992 9.08678 12.7395 8.92706C12.5798 8.76734 12.4999 8.56942 12.4999 8.33331C12.4999 8.0972 12.5798 7.89928 12.7395 7.73956C12.8992 7.57984 13.0971 7.49998 13.3333 7.49998H14.9999V5.83331C14.9999 5.5972 15.0798 5.39929 15.2395 5.23956C15.3992 5.07984 15.5971 4.99998 15.8333 4.99998C16.0694 4.99998 16.2673 5.07984 16.427 5.23956C16.5867 5.39929 16.6666 5.5972 16.6666 5.83331V7.49998H18.3333C18.5694 7.49998 18.7673 7.57984 18.927 7.73956C19.0867 7.89928 19.1666 8.0972 19.1666 8.33331C19.1666 8.56942 19.0867 8.76734 18.927 8.92706C18.7673 9.08678 18.5694 9.16665 18.3333 9.16665H16.6666V10.8333C16.6666 11.0694 16.5867 11.2673 16.427 11.4271C16.2673 11.5868 16.0694 11.6666 15.8333 11.6666C15.5971 11.6666 15.3992 11.5868 15.2395 11.4271C15.0798 11.2673 14.9999 11.0694 14.9999 10.8333V9.16665ZM7.49992 9.99998C6.58325 9.99998 5.79853 9.67359 5.14575 9.02081C4.49297 8.36803 4.16659 7.58331 4.16659 6.66665C4.16659 5.74998 4.49297 4.96526 5.14575 4.31248C5.79853 3.6597 6.58325 3.33331 7.49992 3.33331C8.41659 3.33331 9.20131 3.6597 9.85409 4.31248C10.5069 4.96526 10.8333 5.74998 10.8333 6.66665C10.8333 7.58331 10.5069 8.36803 9.85409 9.02081C9.20131 9.67359 8.41659 9.99998 7.49992 9.99998ZM0.833252 15V14.3333C0.833252 13.8611 0.95478 13.4271 1.19784 13.0312C1.44089 12.6354 1.76381 12.3333 2.16659 12.125C3.0277 11.6944 3.9027 11.3715 4.79159 11.1562C5.68047 10.941 6.58325 10.8333 7.49992 10.8333C8.41659 10.8333 9.31936 10.941 10.2083 11.1562C11.0971 11.3715 11.9721 11.6944 12.8333 12.125C13.236 12.3333 13.5589 12.6354 13.802 13.0312C14.0451 13.4271 14.1666 13.8611 14.1666 14.3333V15C14.1666 15.4583 14.0034 15.8507 13.677 16.1771C13.3506 16.5035 12.9583 16.6666 12.4999 16.6666H2.49992C2.04159 16.6666 1.64922 16.5035 1.32284 16.1771C0.996446 15.8507 0.833252 15.4583 0.833252 15Z" fill="currentColor"/>
</svg>