<svg width="1159" height="159" viewBox="0 0 1159 159" fill="none" xmlns="http://www.w3.org/2000/svg">
<g clip-path="url(#clip0_301_41719)">
<rect width="579.5" height="61" fill="white"/>
<path d="M18.74 37.14C18.3933 37.14 18.12 37.0467 17.92 36.86C17.7333 36.6733 17.64 36.4 17.64 36.04V24.02C17.64 23.66 17.7333 23.3867 17.92 23.2C18.12 23 18.4 22.9 18.76 22.9H25.88C26.1733 22.9 26.3867 22.9733 26.52 23.12C26.6667 23.2533 26.74 23.4533 26.74 23.72C26.74 24 26.6667 24.2133 26.52 24.36C26.3867 24.5067 26.1733 24.58 25.88 24.58H19.72V29.08H25.48C25.7467 29.08 25.9533 29.1533 26.1 29.3C26.26 29.4333 26.34 29.6333 26.34 29.9C26.34 30.18 26.26 30.3933 26.1 30.54C25.9533 30.6867 25.7467 30.76 25.48 30.76H19.72V36.04C19.72 36.7733 19.3933 37.14 18.74 37.14ZM31.8631 37.18C30.8765 37.18 30.0231 36.9733 29.3031 36.56C28.5965 36.1467 28.0431 35.56 27.6431 34.8C27.2431 34.04 27.0431 33.1467 27.0431 32.12C27.0431 31.3333 27.1565 30.6333 27.3831 30.02C27.6098 29.4067 27.9298 28.88 28.3431 28.44C28.7698 27.9867 29.2765 27.6467 29.8631 27.42C30.4631 27.18 31.1298 27.06 31.8631 27.06C32.8365 27.06 33.6765 27.2667 34.3831 27.68C35.1031 28.0933 35.6631 28.68 36.0631 29.44C36.4631 30.1867 36.6631 31.08 36.6631 32.12C36.6631 32.8933 36.5498 33.5933 36.3231 34.22C36.0965 34.8467 35.7698 35.38 35.3431 35.82C34.9298 36.26 34.4231 36.6 33.8231 36.84C33.2365 37.0667 32.5831 37.18 31.8631 37.18ZM31.8631 35.62C32.4098 35.62 32.8898 35.4867 33.3031 35.22C33.7165 34.9533 34.0365 34.56 34.2631 34.04C34.5031 33.52 34.6231 32.88 34.6231 32.12C34.6231 30.9733 34.3698 30.1067 33.8631 29.52C33.3565 28.9333 32.6898 28.64 31.8631 28.64C31.3031 28.64 30.8165 28.7733 30.4031 29.04C29.9898 29.2933 29.6631 29.68 29.4231 30.2C29.1965 30.72 29.0831 31.36 29.0831 32.12C29.0831 33.2533 29.3365 34.12 29.8431 34.72C30.3498 35.32 31.0231 35.62 31.8631 35.62ZM39.4317 37.14C39.1117 37.14 38.8651 37.0533 38.6917 36.88C38.5184 36.6933 38.4317 36.44 38.4317 36.12V28.12C38.4317 27.7867 38.5184 27.5333 38.6917 27.36C38.8651 27.1867 39.1051 27.1 39.4117 27.1C39.7317 27.1 39.9717 27.1867 40.1317 27.36C40.3051 27.5333 40.3917 27.7867 40.3917 28.12V29.68L40.1717 29.32C40.4651 28.5733 40.9251 28.0133 41.5517 27.64C42.1784 27.2533 42.8984 27.06 43.7117 27.06C44.4851 27.06 45.1251 27.2067 45.6317 27.5C46.1517 27.78 46.5384 28.2133 46.7917 28.8C47.0451 29.3733 47.1717 30.1 47.1717 30.98V36.12C47.1717 36.44 47.0851 36.6933 46.9117 36.88C46.7384 37.0533 46.4917 37.14 46.1717 37.14C45.8384 37.14 45.5851 37.0533 45.4117 36.88C45.2384 36.6933 45.1517 36.44 45.1517 36.12V31.1C45.1517 30.26 44.9851 29.6467 44.6517 29.26C44.3317 28.8733 43.8251 28.68 43.1317 28.68C42.3184 28.68 41.6651 28.9333 41.1717 29.44C40.6917 29.9467 40.4517 30.6267 40.4517 31.48V36.12C40.4517 36.8 40.1117 37.14 39.4317 37.14ZM53.7552 37.18C52.7552 37.18 51.8885 36.9733 51.1552 36.56C50.4352 36.1333 49.8752 35.54 49.4752 34.78C49.0752 34.0067 48.8752 33.1 48.8752 32.06C48.8752 31.2867 48.9885 30.5933 49.2152 29.98C49.4418 29.3533 49.7618 28.8267 50.1752 28.4C50.6018 27.9733 51.1152 27.6467 51.7152 27.42C52.3285 27.18 53.0085 27.06 53.7552 27.06C54.2218 27.06 54.7085 27.1333 55.2152 27.28C55.7352 27.4133 56.2152 27.64 56.6552 27.96C56.8285 28.0667 56.9352 28.2 56.9752 28.36C57.0285 28.5067 57.0352 28.66 56.9952 28.82C56.9685 28.98 56.8952 29.12 56.7752 29.24C56.6685 29.3467 56.5352 29.4133 56.3752 29.44C56.2152 29.4533 56.0418 29.4067 55.8552 29.3C55.5352 29.0733 55.2085 28.9133 54.8752 28.82C54.5418 28.7133 54.2218 28.66 53.9152 28.66C53.4352 28.66 53.0085 28.74 52.6352 28.9C52.2752 29.0467 51.9685 29.2667 51.7152 29.56C51.4618 29.84 51.2685 30.1933 51.1352 30.62C51.0152 31.0467 50.9552 31.5333 50.9552 32.08C50.9552 33.1733 51.2085 34.0333 51.7152 34.66C52.2352 35.2733 52.9685 35.58 53.9152 35.58C54.2218 35.58 54.5418 35.5333 54.8752 35.44C55.2085 35.3467 55.5352 35.1867 55.8552 34.96C56.0418 34.8533 56.2152 34.8133 56.3752 34.84C56.5352 34.8667 56.6618 34.94 56.7552 35.06C56.8618 35.1667 56.9285 35.3 56.9552 35.46C56.9952 35.6067 56.9885 35.76 56.9352 35.92C56.8818 36.08 56.7685 36.2133 56.5952 36.32C56.1685 36.6267 55.7018 36.8467 55.1952 36.98C54.7018 37.1133 54.2218 37.18 53.7552 37.18ZM62.4706 37.18C61.6706 37.18 60.9973 37.04 60.4506 36.76C59.904 36.48 59.4973 36.0667 59.2306 35.52C58.964 34.9733 58.8306 34.3067 58.8306 33.52V28.8H57.6306C57.364 28.8 57.1573 28.7333 57.0106 28.6C56.864 28.4533 56.7906 28.26 56.7906 28.02C56.7906 27.7667 56.864 27.5733 57.0106 27.44C57.1573 27.3067 57.364 27.24 57.6306 27.24H58.8306V25.18C58.8306 24.8467 58.9173 24.5933 59.0906 24.42C59.2773 24.2467 59.5306 24.16 59.8506 24.16C60.1706 24.16 60.4173 24.2467 60.5906 24.42C60.764 24.5933 60.8506 24.8467 60.8506 25.18V27.24H63.1906C63.4573 27.24 63.664 27.3067 63.8106 27.44C63.9573 27.5733 64.0306 27.7667 64.0306 28.02C64.0306 28.26 63.9573 28.4533 63.8106 28.6C63.664 28.7333 63.4573 28.8 63.1906 28.8H60.8506V33.36C60.8506 34.0667 60.9973 34.6 61.2906 34.96C61.5973 35.32 62.0906 35.5 62.7706 35.5C63.0106 35.5 63.2173 35.48 63.3906 35.44C63.5773 35.3867 63.7306 35.3533 63.8506 35.34C63.9973 35.34 64.1173 35.3933 64.2106 35.5C64.304 35.5933 64.3506 35.78 64.3506 36.06C64.3506 36.26 64.3106 36.4467 64.2306 36.62C64.164 36.7933 64.0373 36.9067 63.8506 36.96C63.6906 37.0133 63.4706 37.06 63.1906 37.1C62.924 37.1533 62.684 37.18 62.4706 37.18ZM66.2911 37.12C65.9711 37.12 65.7244 37.0267 65.5511 36.84C65.3778 36.64 65.2911 36.3667 65.2911 36.02V28.22C65.2911 27.8733 65.3778 27.6067 65.5511 27.42C65.7244 27.2333 65.9711 27.14 66.2911 27.14C66.6111 27.14 66.8578 27.2333 67.0311 27.42C67.2178 27.6067 67.3111 27.8733 67.3111 28.22V36.02C67.3111 36.3667 67.2244 36.64 67.0511 36.84C66.8778 37.0267 66.6244 37.12 66.2911 37.12ZM66.2911 25.06C65.8911 25.06 65.5778 24.96 65.3511 24.76C65.1378 24.56 65.0311 24.28 65.0311 23.92C65.0311 23.5467 65.1378 23.2667 65.3511 23.08C65.5778 22.88 65.8911 22.78 66.2911 22.78C66.6911 22.78 66.9978 22.88 67.2111 23.08C67.4378 23.2667 67.5511 23.5467 67.5511 23.92C67.5511 24.28 67.4378 24.56 67.2111 24.76C66.9978 24.96 66.6911 25.06 66.2911 25.06ZM73.8944 37.18C72.9077 37.18 72.0544 36.9733 71.3344 36.56C70.6277 36.1467 70.0744 35.56 69.6744 34.8C69.2744 34.04 69.0744 33.1467 69.0744 32.12C69.0744 31.3333 69.1877 30.6333 69.4144 30.02C69.641 29.4067 69.961 28.88 70.3744 28.44C70.801 27.9867 71.3077 27.6467 71.8944 27.42C72.4944 27.18 73.161 27.06 73.8944 27.06C74.8677 27.06 75.7077 27.2667 76.4144 27.68C77.1344 28.0933 77.6944 28.68 78.0944 29.44C78.4944 30.1867 78.6944 31.08 78.6944 32.12C78.6944 32.8933 78.581 33.5933 78.3544 34.22C78.1277 34.8467 77.801 35.38 77.3744 35.82C76.961 36.26 76.4544 36.6 75.8544 36.84C75.2677 37.0667 74.6144 37.18 73.8944 37.18ZM73.8944 35.62C74.441 35.62 74.921 35.4867 75.3344 35.22C75.7477 34.9533 76.0677 34.56 76.2944 34.04C76.5344 33.52 76.6544 32.88 76.6544 32.12C76.6544 30.9733 76.401 30.1067 75.8944 29.52C75.3877 28.9333 74.721 28.64 73.8944 28.64C73.3344 28.64 72.8477 28.7733 72.4344 29.04C72.021 29.2933 71.6944 29.68 71.4544 30.2C71.2277 30.72 71.1144 31.36 71.1144 32.12C71.1144 33.2533 71.3677 34.12 71.8744 34.72C72.381 35.32 73.0544 35.62 73.8944 35.62ZM81.463 37.14C81.143 37.14 80.8963 37.0533 80.723 36.88C80.5496 36.6933 80.463 36.44 80.463 36.12V28.12C80.463 27.7867 80.5496 27.5333 80.723 27.36C80.8963 27.1867 81.1363 27.1 81.443 27.1C81.763 27.1 82.003 27.1867 82.163 27.36C82.3363 27.5333 82.423 27.7867 82.423 28.12V29.68L82.203 29.32C82.4963 28.5733 82.9563 28.0133 83.583 27.64C84.2096 27.2533 84.9296 27.06 85.743 27.06C86.5163 27.06 87.1563 27.2067 87.663 27.5C88.183 27.78 88.5696 28.2133 88.823 28.8C89.0763 29.3733 89.203 30.1 89.203 30.98V36.12C89.203 36.44 89.1163 36.6933 88.943 36.88C88.7696 37.0533 88.523 37.14 88.203 37.14C87.8696 37.14 87.6163 37.0533 87.443 36.88C87.2696 36.6933 87.183 36.44 87.183 36.12V31.1C87.183 30.26 87.0163 29.6467 86.683 29.26C86.363 28.8733 85.8563 28.68 85.163 28.68C84.3496 28.68 83.6963 28.9333 83.203 29.44C82.723 29.9467 82.483 30.6267 82.483 31.48V36.12C82.483 36.8 82.143 37.14 81.463 37.14ZM99.3798 37.18C98.6998 37.18 98.0865 37.0467 97.5398 36.78C97.0065 36.5133 96.5865 36.1533 96.2798 35.7C95.9732 35.2467 95.8198 34.7333 95.8198 34.16C95.8198 33.44 95.9998 32.8733 96.3598 32.46C96.7332 32.0333 97.3398 31.7333 98.1798 31.56C99.0332 31.3733 100.18 31.28 101.62 31.28H102.56V32.52H101.64C100.68 32.52 99.9198 32.5667 99.3598 32.66C98.7998 32.7533 98.3998 32.9133 98.1598 33.14C97.9332 33.3533 97.8198 33.6533 97.8198 34.04C97.8198 34.5467 97.9932 34.96 98.3398 35.28C98.6865 35.5867 99.1665 35.74 99.7798 35.74C100.273 35.74 100.707 35.6267 101.08 35.4C101.453 35.16 101.747 34.84 101.96 34.44C102.187 34.04 102.3 33.58 102.3 33.06V30.76C102.3 30 102.14 29.4533 101.82 29.12C101.5 28.7867 100.973 28.62 100.24 28.62C99.8132 28.62 99.3665 28.6733 98.8998 28.78C98.4465 28.8867 97.9732 29.0667 97.4798 29.32C97.2532 29.4267 97.0598 29.46 96.8998 29.42C96.7398 29.38 96.6132 29.2933 96.5198 29.16C96.4265 29.0133 96.3732 28.86 96.3598 28.7C96.3598 28.5267 96.3998 28.36 96.4798 28.2C96.5732 28.04 96.7265 27.92 96.9398 27.84C97.5265 27.56 98.1065 27.36 98.6798 27.24C99.2532 27.12 99.7932 27.06 100.3 27.06C101.193 27.06 101.927 27.2 102.5 27.48C103.087 27.76 103.52 28.1867 103.8 28.76C104.08 29.3333 104.22 30.0733 104.22 30.98V36.12C104.22 36.44 104.14 36.6933 103.98 36.88C103.82 37.0533 103.587 37.14 103.28 37.14C102.987 37.14 102.753 37.0533 102.58 36.88C102.407 36.6933 102.32 36.44 102.32 36.12V34.82H102.5C102.393 35.3133 102.193 35.74 101.9 36.1C101.62 36.4467 101.267 36.7133 100.84 36.9C100.413 37.0867 99.9265 37.18 99.3798 37.18ZM110.662 37.18C109.862 37.18 109.189 37.04 108.642 36.76C108.095 36.48 107.689 36.0667 107.422 35.52C107.155 34.9733 107.022 34.3067 107.022 33.52V28.8H105.822C105.555 28.8 105.349 28.7333 105.202 28.6C105.055 28.4533 104.982 28.26 104.982 28.02C104.982 27.7667 105.055 27.5733 105.202 27.44C105.349 27.3067 105.555 27.24 105.822 27.24H107.022V25.18C107.022 24.8467 107.109 24.5933 107.282 24.42C107.469 24.2467 107.722 24.16 108.042 24.16C108.362 24.16 108.609 24.2467 108.782 24.42C108.955 24.5933 109.042 24.8467 109.042 25.18V27.24H111.382C111.649 27.24 111.855 27.3067 112.002 27.44C112.149 27.5733 112.222 27.7667 112.222 28.02C112.222 28.26 112.149 28.4533 112.002 28.6C111.855 28.7333 111.649 28.8 111.382 28.8H109.042V33.36C109.042 34.0667 109.189 34.6 109.482 34.96C109.789 35.32 110.282 35.5 110.962 35.5C111.202 35.5 111.409 35.48 111.582 35.44C111.769 35.3867 111.922 35.3533 112.042 35.34C112.189 35.34 112.309 35.3933 112.402 35.5C112.495 35.5933 112.542 35.78 112.542 36.06C112.542 36.26 112.502 36.4467 112.422 36.62C112.355 36.7933 112.229 36.9067 112.042 36.96C111.882 37.0133 111.662 37.06 111.382 37.1C111.115 37.1533 110.875 37.18 110.662 37.18ZM117.076 37.18C116.276 37.18 115.603 37.04 115.056 36.76C114.509 36.48 114.103 36.0667 113.836 35.52C113.569 34.9733 113.436 34.3067 113.436 33.52V28.8H112.236C111.969 28.8 111.763 28.7333 111.616 28.6C111.469 28.4533 111.396 28.26 111.396 28.02C111.396 27.7667 111.469 27.5733 111.616 27.44C111.763 27.3067 111.969 27.24 112.236 27.24H113.436V25.18C113.436 24.8467 113.523 24.5933 113.696 24.42C113.883 24.2467 114.136 24.16 114.456 24.16C114.776 24.16 115.023 24.2467 115.196 24.42C115.369 24.5933 115.456 24.8467 115.456 25.18V27.24H117.796C118.063 27.24 118.269 27.3067 118.416 27.44C118.563 27.5733 118.636 27.7667 118.636 28.02C118.636 28.26 118.563 28.4533 118.416 28.6C118.269 28.7333 118.063 28.8 117.796 28.8H115.456V33.36C115.456 34.0667 115.603 34.6 115.896 34.96C116.203 35.32 116.696 35.5 117.376 35.5C117.616 35.5 117.823 35.48 117.996 35.44C118.183 35.3867 118.336 35.3533 118.456 35.34C118.603 35.34 118.723 35.3933 118.816 35.5C118.909 35.5933 118.956 35.78 118.956 36.06C118.956 36.26 118.916 36.4467 118.836 36.62C118.769 36.7933 118.643 36.9067 118.456 36.96C118.296 37.0133 118.076 37.06 117.796 37.1C117.529 37.1533 117.289 37.18 117.076 37.18ZM124.203 37.18C123.136 37.18 122.216 36.98 121.443 36.58C120.683 36.1667 120.09 35.5867 119.663 34.84C119.25 34.08 119.043 33.18 119.043 32.14C119.043 31.1267 119.25 30.24 119.663 29.48C120.076 28.72 120.643 28.1267 121.363 27.7C122.083 27.2733 122.903 27.06 123.823 27.06C124.503 27.06 125.11 27.1733 125.643 27.4C126.176 27.6133 126.63 27.9333 127.003 28.36C127.39 28.7733 127.676 29.28 127.863 29.88C128.063 30.48 128.163 31.1533 128.163 31.9C128.163 32.1267 128.096 32.3 127.963 32.42C127.83 32.5267 127.63 32.58 127.363 32.58H120.643V31.34H126.803L126.463 31.62C126.463 30.9533 126.363 30.3867 126.163 29.92C125.976 29.4533 125.69 29.1 125.303 28.86C124.93 28.6067 124.463 28.48 123.903 28.48C123.276 28.48 122.743 28.6267 122.303 28.92C121.876 29.2133 121.55 29.62 121.323 30.14C121.096 30.66 120.983 31.2667 120.983 31.96V32.08C120.983 33.2533 121.256 34.14 121.803 34.74C122.363 35.3267 123.17 35.62 124.223 35.62C124.623 35.62 125.043 35.5667 125.483 35.46C125.936 35.3533 126.363 35.1733 126.763 34.92C126.99 34.7867 127.19 34.7267 127.363 34.74C127.55 34.7533 127.696 34.8133 127.803 34.92C127.923 35.0267 127.996 35.16 128.023 35.32C128.05 35.48 128.023 35.6467 127.943 35.82C127.863 35.98 127.723 36.1267 127.523 36.26C127.07 36.5667 126.543 36.8 125.943 36.96C125.343 37.1067 124.763 37.18 124.203 37.18ZM130.865 37.14C130.545 37.14 130.299 37.0533 130.125 36.88C129.952 36.6933 129.865 36.44 129.865 36.12V28.12C129.865 27.7867 129.952 27.5333 130.125 27.36C130.299 27.1867 130.539 27.1 130.845 27.1C131.165 27.1 131.405 27.1867 131.565 27.36C131.739 27.5333 131.825 27.7867 131.825 28.12V29.68L131.605 29.32C131.899 28.5733 132.359 28.0133 132.985 27.64C133.612 27.2533 134.332 27.06 135.145 27.06C135.919 27.06 136.559 27.2067 137.065 27.5C137.585 27.78 137.972 28.2133 138.225 28.8C138.479 29.3733 138.605 30.1 138.605 30.98V36.12C138.605 36.44 138.519 36.6933 138.345 36.88C138.172 37.0533 137.925 37.14 137.605 37.14C137.272 37.14 137.019 37.0533 136.845 36.88C136.672 36.6933 136.585 36.44 136.585 36.12V31.1C136.585 30.26 136.419 29.6467 136.085 29.26C135.765 28.8733 135.259 28.68 134.565 28.68C133.752 28.68 133.099 28.9333 132.605 29.44C132.125 29.9467 131.885 30.6267 131.885 31.48V36.12C131.885 36.8 131.545 37.14 130.865 37.14ZM144.609 37.18C143.755 37.18 143.002 36.98 142.349 36.58C141.709 36.1667 141.209 35.58 140.849 34.82C140.489 34.0467 140.309 33.1467 140.309 32.12C140.309 31.0667 140.489 30.1667 140.849 29.42C141.209 28.6733 141.709 28.0933 142.349 27.68C143.002 27.2667 143.755 27.06 144.609 27.06C145.462 27.06 146.195 27.2733 146.809 27.7C147.435 28.1133 147.855 28.6733 148.069 29.38H147.849V23.78C147.849 23.4467 147.935 23.1933 148.109 23.02C148.282 22.8467 148.529 22.76 148.849 22.76C149.169 22.76 149.415 22.8467 149.589 23.02C149.775 23.1933 149.869 23.4467 149.869 23.78V36.12C149.869 36.44 149.782 36.6933 149.609 36.88C149.435 37.0533 149.189 37.14 148.869 37.14C148.549 37.14 148.302 37.0533 148.129 36.88C147.955 36.6933 147.869 36.44 147.869 36.12V34.36L148.089 34.8C147.875 35.52 147.455 36.1 146.829 36.54C146.215 36.9667 145.475 37.18 144.609 37.18ZM145.129 35.62C145.675 35.62 146.155 35.4867 146.569 35.22C146.982 34.9533 147.302 34.56 147.529 34.04C147.769 33.52 147.889 32.88 147.889 32.12C147.889 30.9733 147.635 30.1067 147.129 29.52C146.622 28.9333 145.955 28.64 145.129 28.64C144.569 28.64 144.082 28.7733 143.669 29.04C143.255 29.2933 142.929 29.68 142.689 30.2C142.462 30.72 142.349 31.36 142.349 32.12C142.349 33.2533 142.602 34.12 143.109 34.72C143.615 35.32 144.289 35.62 145.129 35.62ZM155.685 37.18C154.898 37.18 154.238 37.0333 153.705 36.74C153.185 36.4467 152.792 36.0133 152.525 35.44C152.272 34.8533 152.145 34.12 152.145 33.24V28.12C152.145 27.7733 152.232 27.52 152.405 27.36C152.578 27.1867 152.825 27.1 153.145 27.1C153.465 27.1 153.712 27.1867 153.885 27.36C154.072 27.52 154.165 27.7733 154.165 28.12V33.26C154.165 34.0467 154.325 34.6267 154.645 35C154.965 35.3733 155.472 35.56 156.165 35.56C156.925 35.56 157.538 35.3067 158.005 34.8C158.485 34.28 158.725 33.6 158.725 32.76V28.12C158.725 27.7733 158.812 27.52 158.985 27.36C159.158 27.1867 159.412 27.1 159.745 27.1C160.065 27.1 160.312 27.1867 160.485 27.36C160.658 27.52 160.745 27.7733 160.745 28.12V36.12C160.745 36.8 160.418 37.14 159.765 37.14C159.458 37.14 159.218 37.0533 159.045 36.88C158.872 36.6933 158.785 36.44 158.785 36.12V34.42L159.045 34.86C158.778 35.6067 158.352 36.18 157.765 36.58C157.178 36.98 156.485 37.18 155.685 37.18ZM167.672 37.18C166.605 37.18 165.685 36.98 164.912 36.58C164.152 36.1667 163.559 35.5867 163.132 34.84C162.719 34.08 162.512 33.18 162.512 32.14C162.512 31.1267 162.719 30.24 163.132 29.48C163.545 28.72 164.112 28.1267 164.832 27.7C165.552 27.2733 166.372 27.06 167.292 27.06C167.972 27.06 168.579 27.1733 169.112 27.4C169.645 27.6133 170.099 27.9333 170.472 28.36C170.859 28.7733 171.145 29.28 171.332 29.88C171.532 30.48 171.632 31.1533 171.632 31.9C171.632 32.1267 171.565 32.3 171.432 32.42C171.299 32.5267 171.099 32.58 170.832 32.58H164.112V31.34H170.272L169.932 31.62C169.932 30.9533 169.832 30.3867 169.632 29.92C169.445 29.4533 169.159 29.1 168.772 28.86C168.399 28.6067 167.932 28.48 167.372 28.48C166.745 28.48 166.212 28.6267 165.772 28.92C165.345 29.2133 165.019 29.62 164.792 30.14C164.565 30.66 164.452 31.2667 164.452 31.96V32.08C164.452 33.2533 164.725 34.14 165.272 34.74C165.832 35.3267 166.639 35.62 167.692 35.62C168.092 35.62 168.512 35.5667 168.952 35.46C169.405 35.3533 169.832 35.1733 170.232 34.92C170.459 34.7867 170.659 34.7267 170.832 34.74C171.019 34.7533 171.165 34.8133 171.272 34.92C171.392 35.0267 171.465 35.16 171.492 35.32C171.519 35.48 171.492 35.6467 171.412 35.82C171.332 35.98 171.192 36.1267 170.992 36.26C170.539 36.5667 170.012 36.8 169.412 36.96C168.812 37.1067 168.232 37.18 167.672 37.18Z" fill="#201F1F"/>
<path d="M0 60.5H579.5" stroke="#CDCCCB"/>
<rect width="579.5" height="49" transform="translate(0 61)" fill="white"/>
<path d="M17.1719 91V79.5469H19.4844V84.0547H24.0156V79.5469H26.3281V91H24.0156V85.9922H19.4844V91H17.1719ZM31.3047 91V81.4844H27.9062V79.5469H37.0078V81.4844H33.6172V91H31.3047ZM38.4766 91V79.5469H41.9375L44.0156 87.3594L46.0703 79.5469H49.5391V91H47.3906V81.9844L45.1172 91H42.8906L40.625 81.9844V91H38.4766ZM51.8984 91V79.6406H54.2109V89.0703H59.9609V91H51.8984ZM73.3047 91H71.1094V86.7656C71.1094 85.8698 71.0625 85.2917 70.9688 85.0312C70.875 84.7656 70.7214 84.5599 70.5078 84.4141C70.2995 84.2682 70.0469 84.1953 69.75 84.1953C69.3698 84.1953 69.0286 84.2995 68.7266 84.5078C68.4245 84.7161 68.2161 84.9922 68.1016 85.3359C67.9922 85.6797 67.9375 86.3151 67.9375 87.2422V91H65.7422V82.7031H67.7812V83.9219C68.5052 82.9844 69.4167 82.5156 70.5156 82.5156C71 82.5156 71.4427 82.6042 71.8438 82.7812C72.2448 82.9531 72.5469 83.1745 72.75 83.4453C72.9583 83.7161 73.1016 84.0234 73.1797 84.3672C73.263 84.7109 73.3047 85.2031 73.3047 85.8438V91ZM77.1797 85.2344L75.1875 84.875C75.4115 84.0729 75.7969 83.4792 76.3438 83.0938C76.8906 82.7083 77.7031 82.5156 78.7812 82.5156C79.7604 82.5156 80.4896 82.6328 80.9688 82.8672C81.4479 83.0964 81.7839 83.3906 81.9766 83.75C82.1745 84.1042 82.2734 84.7578 82.2734 85.7109L82.25 88.2734C82.25 89.0026 82.2839 89.5417 82.3516 89.8906C82.4245 90.2344 82.5573 90.6042 82.75 91H80.5781C80.5208 90.8542 80.4505 90.638 80.3672 90.3516C80.3307 90.2214 80.3047 90.1354 80.2891 90.0938C79.9141 90.4583 79.513 90.7318 79.0859 90.9141C78.6589 91.0964 78.2031 91.1875 77.7188 91.1875C76.8646 91.1875 76.1901 90.9557 75.6953 90.4922C75.2057 90.0286 74.9609 89.4427 74.9609 88.7344C74.9609 88.2656 75.0729 87.849 75.2969 87.4844C75.5208 87.1146 75.8333 86.8333 76.2344 86.6406C76.6406 86.4427 77.224 86.2708 77.9844 86.125C79.0104 85.9323 79.7214 85.7526 80.1172 85.5859V85.3672C80.1172 84.9453 80.013 84.6458 79.8047 84.4688C79.5964 84.2865 79.2031 84.1953 78.625 84.1953C78.2344 84.1953 77.9297 84.2734 77.7109 84.4297C77.4922 84.5807 77.3151 84.849 77.1797 85.2344ZM80.1172 87.0156C79.8359 87.1094 79.3906 87.2214 78.7812 87.3516C78.1719 87.4818 77.7734 87.6094 77.5859 87.7344C77.2995 87.9375 77.1562 88.1953 77.1562 88.5078C77.1562 88.8151 77.2708 89.0807 77.5 89.3047C77.7292 89.5286 78.0208 89.6406 78.375 89.6406C78.7708 89.6406 79.1484 89.5104 79.5078 89.25C79.7734 89.0521 79.9479 88.8099 80.0312 88.5234C80.0885 88.3359 80.1172 87.9792 80.1172 87.4531V87.0156ZM88.25 82.7031V84.4531H86.75V87.7969C86.75 88.474 86.763 88.8698 86.7891 88.9844C86.8203 89.0938 86.8854 89.1849 86.9844 89.2578C87.0885 89.3307 87.2135 89.3672 87.3594 89.3672C87.5625 89.3672 87.8568 89.2969 88.2422 89.1562L88.4297 90.8594C87.9193 91.0781 87.3411 91.1875 86.6953 91.1875C86.2995 91.1875 85.9427 91.1224 85.625 90.9922C85.3073 90.8568 85.0729 90.6849 84.9219 90.4766C84.776 90.263 84.6745 89.9766 84.6172 89.6172C84.5703 89.362 84.5469 88.8464 84.5469 88.0703V84.4531H83.5391V82.7031H84.5469V81.0547L86.75 79.7734V82.7031H88.25ZM89.7734 81.5781V79.5469H91.9688V81.5781H89.7734ZM89.7734 91V82.7031H91.9688V91H89.7734ZM93.2656 82.7031H94.4844V82.0781C94.4844 81.3802 94.5573 80.8594 94.7031 80.5156C94.8542 80.1719 95.1276 79.8932 95.5234 79.6797C95.9245 79.4609 96.4297 79.3516 97.0391 79.3516C97.6641 79.3516 98.276 79.4453 98.875 79.6328L98.5781 81.1641C98.2292 81.0807 97.8932 81.0391 97.5703 81.0391C97.2526 81.0391 97.0234 81.1146 96.8828 81.2656C96.7474 81.4115 96.6797 81.6953 96.6797 82.1172V82.7031H98.3203V84.4297H96.6797V91H94.4844V84.4297H93.2656V82.7031ZM106.109 91H103.914V82.7031H105.953V83.8828C106.302 83.3255 106.615 82.9583 106.891 82.7812C107.172 82.6042 107.49 82.5156 107.844 82.5156C108.344 82.5156 108.826 82.6536 109.289 82.9297L108.609 84.8438C108.24 84.6042 107.896 84.4844 107.578 84.4844C107.271 84.4844 107.01 84.5703 106.797 84.7422C106.583 84.9089 106.414 85.2135 106.289 85.6562C106.169 86.099 106.109 87.026 106.109 88.4375V91ZM115.047 88.3594L117.234 88.7266C116.953 89.5286 116.508 90.1406 115.898 90.5625C115.294 90.9792 114.536 91.1875 113.625 91.1875C112.182 91.1875 111.115 90.7161 110.422 89.7734C109.875 89.0182 109.602 88.0651 109.602 86.9141C109.602 85.5391 109.961 84.4635 110.68 83.6875C111.398 82.9062 112.307 82.5156 113.406 82.5156C114.641 82.5156 115.615 82.9245 116.328 83.7422C117.042 84.5547 117.383 85.8021 117.352 87.4844H111.852C111.867 88.1354 112.044 88.6432 112.383 89.0078C112.721 89.3672 113.143 89.5469 113.648 89.5469C113.992 89.5469 114.281 89.4531 114.516 89.2656C114.75 89.0781 114.927 88.776 115.047 88.3594ZM115.172 86.1406C115.156 85.5052 114.992 85.0234 114.68 84.6953C114.367 84.362 113.987 84.1953 113.539 84.1953C113.06 84.1953 112.664 84.3698 112.352 84.7188C112.039 85.0677 111.885 85.5417 111.891 86.1406H115.172ZM126.383 85.1562L124.219 85.5469C124.146 85.1146 123.979 84.7891 123.719 84.5703C123.464 84.3516 123.13 84.2422 122.719 84.2422C122.172 84.2422 121.734 84.4323 121.406 84.8125C121.083 85.1875 120.922 85.8177 120.922 86.7031C120.922 87.6875 121.086 88.3828 121.414 88.7891C121.747 89.1953 122.193 89.3984 122.75 89.3984C123.167 89.3984 123.508 89.2812 123.773 89.0469C124.039 88.8073 124.227 88.3984 124.336 87.8203L126.492 88.1875C126.268 89.1771 125.839 89.9245 125.203 90.4297C124.568 90.9349 123.716 91.1875 122.648 91.1875C121.435 91.1875 120.466 90.8047 119.742 90.0391C119.023 89.2734 118.664 88.2135 118.664 86.8594C118.664 85.4896 119.026 84.4245 119.75 83.6641C120.474 82.8984 121.453 82.5156 122.688 82.5156C123.698 82.5156 124.5 82.7344 125.094 83.1719C125.693 83.6042 126.122 84.2656 126.383 85.1562ZM127.547 86.7344C127.547 86.0052 127.727 85.2995 128.086 84.6172C128.445 83.9349 128.953 83.4141 129.609 83.0547C130.271 82.6953 131.008 82.5156 131.82 82.5156C133.076 82.5156 134.104 82.9245 134.906 83.7422C135.708 84.5547 136.109 85.5833 136.109 86.8281C136.109 88.0833 135.703 89.125 134.891 89.9531C134.083 90.776 133.065 91.1875 131.836 91.1875C131.076 91.1875 130.349 91.0156 129.656 90.6719C128.969 90.3281 128.445 89.8255 128.086 89.1641C127.727 88.4974 127.547 87.6875 127.547 86.7344ZM129.797 86.8516C129.797 87.6745 129.992 88.3047 130.383 88.7422C130.773 89.1797 131.255 89.3984 131.828 89.3984C132.401 89.3984 132.88 89.1797 133.266 88.7422C133.656 88.3047 133.852 87.6693 133.852 86.8359C133.852 86.0234 133.656 85.3984 133.266 84.9609C132.88 84.5234 132.401 84.3047 131.828 84.3047C131.255 84.3047 130.773 84.5234 130.383 84.9609C129.992 85.3984 129.797 86.0286 129.797 86.8516ZM137.672 82.7031H139.695V83.8359C140.419 82.9557 141.281 82.5156 142.281 82.5156C142.812 82.5156 143.273 82.625 143.664 82.8438C144.055 83.0625 144.375 83.3932 144.625 83.8359C144.99 83.3932 145.383 83.0625 145.805 82.8438C146.227 82.625 146.677 82.5156 147.156 82.5156C147.766 82.5156 148.281 82.6406 148.703 82.8906C149.125 83.1354 149.44 83.4974 149.648 83.9766C149.799 84.3307 149.875 84.9036 149.875 85.6953V91H147.68V86.2578C147.68 85.4349 147.604 84.9036 147.453 84.6641C147.25 84.3516 146.938 84.1953 146.516 84.1953C146.208 84.1953 145.919 84.2891 145.648 84.4766C145.378 84.6641 145.182 84.9401 145.062 85.3047C144.943 85.6641 144.883 86.2344 144.883 87.0156V91H142.688V86.4531C142.688 85.6458 142.648 85.125 142.57 84.8906C142.492 84.6562 142.37 84.4818 142.203 84.3672C142.042 84.2526 141.82 84.1953 141.539 84.1953C141.201 84.1953 140.896 84.2865 140.625 84.4688C140.354 84.651 140.159 84.9141 140.039 85.2578C139.924 85.6016 139.867 86.1719 139.867 86.9688V91H137.672V82.7031ZM151.906 82.7031H153.93V83.8359C154.654 82.9557 155.516 82.5156 156.516 82.5156C157.047 82.5156 157.508 82.625 157.898 82.8438C158.289 83.0625 158.609 83.3932 158.859 83.8359C159.224 83.3932 159.617 83.0625 160.039 82.8438C160.461 82.625 160.911 82.5156 161.391 82.5156C162 82.5156 162.516 82.6406 162.938 82.8906C163.359 83.1354 163.674 83.4974 163.883 83.9766C164.034 84.3307 164.109 84.9036 164.109 85.6953V91H161.914V86.2578C161.914 85.4349 161.839 84.9036 161.688 84.6641C161.484 84.3516 161.172 84.1953 160.75 84.1953C160.443 84.1953 160.154 84.2891 159.883 84.4766C159.612 84.6641 159.417 84.9401 159.297 85.3047C159.177 85.6641 159.117 86.2344 159.117 87.0156V91H156.922V86.4531C156.922 85.6458 156.883 85.125 156.805 84.8906C156.727 84.6562 156.604 84.4818 156.438 84.3672C156.276 84.2526 156.055 84.1953 155.773 84.1953C155.435 84.1953 155.13 84.2865 154.859 84.4688C154.589 84.651 154.393 84.9141 154.273 85.2578C154.159 85.6016 154.102 86.1719 154.102 86.9688V91H151.906V82.7031ZM167.945 85.2344L165.953 84.875C166.177 84.0729 166.562 83.4792 167.109 83.0938C167.656 82.7083 168.469 82.5156 169.547 82.5156C170.526 82.5156 171.255 82.6328 171.734 82.8672C172.214 83.0964 172.549 83.3906 172.742 83.75C172.94 84.1042 173.039 84.7578 173.039 85.7109L173.016 88.2734C173.016 89.0026 173.049 89.5417 173.117 89.8906C173.19 90.2344 173.323 90.6042 173.516 91H171.344C171.286 90.8542 171.216 90.638 171.133 90.3516C171.096 90.2214 171.07 90.1354 171.055 90.0938C170.68 90.4583 170.279 90.7318 169.852 90.9141C169.424 91.0964 168.969 91.1875 168.484 91.1875C167.63 91.1875 166.956 90.9557 166.461 90.4922C165.971 90.0286 165.727 89.4427 165.727 88.7344C165.727 88.2656 165.839 87.849 166.062 87.4844C166.286 87.1146 166.599 86.8333 167 86.6406C167.406 86.4427 167.99 86.2708 168.75 86.125C169.776 85.9323 170.487 85.7526 170.883 85.5859V85.3672C170.883 84.9453 170.779 84.6458 170.57 84.4688C170.362 84.2865 169.969 84.1953 169.391 84.1953C169 84.1953 168.695 84.2734 168.477 84.4297C168.258 84.5807 168.081 84.849 167.945 85.2344ZM170.883 87.0156C170.602 87.1094 170.156 87.2214 169.547 87.3516C168.938 87.4818 168.539 87.6094 168.352 87.7344C168.065 87.9375 167.922 88.1953 167.922 88.5078C167.922 88.8151 168.036 89.0807 168.266 89.3047C168.495 89.5286 168.786 89.6406 169.141 89.6406C169.536 89.6406 169.914 89.5104 170.273 89.25C170.539 89.0521 170.714 88.8099 170.797 88.5234C170.854 88.3359 170.883 87.9792 170.883 87.4531V87.0156ZM182.758 91H180.562V86.7656C180.562 85.8698 180.516 85.2917 180.422 85.0312C180.328 84.7656 180.174 84.5599 179.961 84.4141C179.753 84.2682 179.5 84.1953 179.203 84.1953C178.823 84.1953 178.482 84.2995 178.18 84.5078C177.878 84.7161 177.669 84.9922 177.555 85.3359C177.445 85.6797 177.391 86.3151 177.391 87.2422V91H175.195V82.7031H177.234V83.9219C177.958 82.9844 178.87 82.5156 179.969 82.5156C180.453 82.5156 180.896 82.6042 181.297 82.7812C181.698 82.9531 182 83.1745 182.203 83.4453C182.411 83.7161 182.555 84.0234 182.633 84.3672C182.716 84.7109 182.758 85.2031 182.758 85.8438V91ZM192.602 91H190.562V89.7812C190.224 90.2552 189.823 90.6094 189.359 90.8438C188.901 91.0729 188.438 91.1875 187.969 91.1875C187.016 91.1875 186.198 90.8047 185.516 90.0391C184.839 89.2682 184.5 88.1953 184.5 86.8203C184.5 85.4141 184.831 84.3464 185.492 83.6172C186.154 82.8828 186.99 82.5156 188 82.5156C188.927 82.5156 189.729 82.901 190.406 83.6719V79.5469H192.602V91ZM186.742 86.6719C186.742 87.5573 186.865 88.1979 187.109 88.5938C187.464 89.1667 187.958 89.4531 188.594 89.4531C189.099 89.4531 189.529 89.2396 189.883 88.8125C190.237 88.3802 190.414 87.737 190.414 86.8828C190.414 85.9297 190.242 85.2448 189.898 84.8281C189.555 84.4062 189.115 84.1953 188.578 84.1953C188.057 84.1953 187.62 84.4036 187.266 84.8203C186.917 85.2318 186.742 85.849 186.742 86.6719ZM199.578 88.3594L201.766 88.7266C201.484 89.5286 201.039 90.1406 200.43 90.5625C199.826 90.9792 199.068 91.1875 198.156 91.1875C196.714 91.1875 195.646 90.7161 194.953 89.7734C194.406 89.0182 194.133 88.0651 194.133 86.9141C194.133 85.5391 194.492 84.4635 195.211 83.6875C195.93 82.9062 196.839 82.5156 197.938 82.5156C199.172 82.5156 200.146 82.9245 200.859 83.7422C201.573 84.5547 201.914 85.8021 201.883 87.4844H196.383C196.398 88.1354 196.576 88.6432 196.914 89.0078C197.253 89.3672 197.674 89.5469 198.18 89.5469C198.523 89.5469 198.812 89.4531 199.047 89.2656C199.281 89.0781 199.458 88.776 199.578 88.3594ZM199.703 86.1406C199.688 85.5052 199.523 85.0234 199.211 84.6953C198.898 84.362 198.518 84.1953 198.07 84.1953C197.591 84.1953 197.195 84.3698 196.883 84.7188C196.57 85.0677 196.417 85.5417 196.422 86.1406H199.703ZM196.898 81.6875L197.977 79.3516H200.438L198.289 81.6875H196.898Z" fill="#3E3E3D"/>
<g opacity="0.5">
<path d="M0 109.5H579.5" stroke="#CDCCCB"/>
</g>
<rect width="579.5" height="49" transform="translate(0 110)" fill="white"/>
<path d="M17.1719 140V128.547H22.0391C23.263 128.547 24.151 128.651 24.7031 128.859C25.2604 129.062 25.7057 129.427 26.0391 129.953C26.3724 130.479 26.5391 131.081 26.5391 131.758C26.5391 132.617 26.2865 133.328 25.7812 133.891C25.276 134.448 24.5208 134.799 23.5156 134.945C24.0156 135.237 24.4271 135.557 24.75 135.906C25.0781 136.255 25.5182 136.875 26.0703 137.766L27.4688 140H24.7031L23.0312 137.508C22.4375 136.617 22.0312 136.057 21.8125 135.828C21.5938 135.594 21.362 135.435 21.1172 135.352C20.8724 135.263 20.4844 135.219 19.9531 135.219H19.4844V140H17.1719ZM19.4844 133.391H21.1953C22.3047 133.391 22.9974 133.344 23.2734 133.25C23.5495 133.156 23.7656 132.995 23.9219 132.766C24.0781 132.536 24.1562 132.25 24.1562 131.906C24.1562 131.521 24.0521 131.211 23.8438 130.977C23.6406 130.737 23.3516 130.586 22.9766 130.523C22.7891 130.497 22.2266 130.484 21.2891 130.484H19.4844V133.391ZM28.2031 135.734C28.2031 135.005 28.3828 134.299 28.7422 133.617C29.1016 132.935 29.6094 132.414 30.2656 132.055C30.9271 131.695 31.6641 131.516 32.4766 131.516C33.7318 131.516 34.7604 131.924 35.5625 132.742C36.3646 133.555 36.7656 134.583 36.7656 135.828C36.7656 137.083 36.3594 138.125 35.5469 138.953C34.7396 139.776 33.7214 140.188 32.4922 140.188C31.7318 140.188 31.0052 140.016 30.3125 139.672C29.625 139.328 29.1016 138.826 28.7422 138.164C28.3828 137.497 28.2031 136.688 28.2031 135.734ZM30.4531 135.852C30.4531 136.674 30.6484 137.305 31.0391 137.742C31.4297 138.18 31.9115 138.398 32.4844 138.398C33.0573 138.398 33.5365 138.18 33.9219 137.742C34.3125 137.305 34.5078 136.669 34.5078 135.836C34.5078 135.023 34.3125 134.398 33.9219 133.961C33.5365 133.523 33.0573 133.305 32.4844 133.305C31.9115 133.305 31.4297 133.523 31.0391 133.961C30.6484 134.398 30.4531 135.029 30.4531 135.852ZM29.8359 130.656L31.4766 128.352H33.5078L35.125 130.656H33.3594L32.4531 129.492L31.6094 130.656H29.8359ZM38.4922 140V128.547H40.6875V140H38.4922ZM47.75 137.359L49.9375 137.727C49.6562 138.529 49.2109 139.141 48.6016 139.562C47.9974 139.979 47.2396 140.188 46.3281 140.188C44.8854 140.188 43.8177 139.716 43.125 138.773C42.5781 138.018 42.3047 137.065 42.3047 135.914C42.3047 134.539 42.6641 133.464 43.3828 132.688C44.1016 131.906 45.0104 131.516 46.1094 131.516C47.3438 131.516 48.3177 131.924 49.0312 132.742C49.7448 133.555 50.0859 134.802 50.0547 136.484H44.5547C44.5703 137.135 44.7474 137.643 45.0859 138.008C45.4245 138.367 45.8464 138.547 46.3516 138.547C46.6953 138.547 46.9844 138.453 47.2188 138.266C47.4531 138.078 47.6302 137.776 47.75 137.359ZM47.875 135.141C47.8594 134.505 47.6953 134.023 47.3828 133.695C47.0703 133.362 46.6901 133.195 46.2422 133.195C45.763 133.195 45.3672 133.37 45.0547 133.719C44.7422 134.068 44.5885 134.542 44.5938 135.141H47.875ZM66.0547 140H63.5391L62.5391 137.398H57.9609L57.0156 140H54.5625L59.0234 128.547H61.4688L66.0547 140ZM61.7969 135.469L60.2188 131.219L58.6719 135.469H61.7969ZM67.2969 140V128.547H72.1641C73.388 128.547 74.276 128.651 74.8281 128.859C75.3854 129.062 75.8307 129.427 76.1641 129.953C76.4974 130.479 76.6641 131.081 76.6641 131.758C76.6641 132.617 76.4115 133.328 75.9062 133.891C75.401 134.448 74.6458 134.799 73.6406 134.945C74.1406 135.237 74.5521 135.557 74.875 135.906C75.2031 136.255 75.6432 136.875 76.1953 137.766L77.5938 140H74.8281L73.1562 137.508C72.5625 136.617 72.1562 136.057 71.9375 135.828C71.7188 135.594 71.487 135.435 71.2422 135.352C70.9974 135.263 70.6094 135.219 70.0781 135.219H69.6094V140H67.2969ZM69.6094 133.391H71.3203C72.4297 133.391 73.1224 133.344 73.3984 133.25C73.6745 133.156 73.8906 132.995 74.0469 132.766C74.2031 132.536 74.2812 132.25 74.2812 131.906C74.2812 131.521 74.1771 131.211 73.9688 130.977C73.7656 130.737 73.4766 130.586 73.1016 130.523C72.9141 130.497 72.3516 130.484 71.4141 130.484H69.6094V133.391ZM78.7812 140V128.547H81.0938V140H78.7812ZM93.6328 140H91.1172L90.1172 137.398H85.5391L84.5938 140H82.1406L86.6016 128.547H89.0469L93.6328 140ZM89.375 135.469L87.7969 131.219L86.25 135.469H89.375Z" fill="#3E3E3D"/>
<g opacity="0.5">
<path d="M0 158.5H579.5" stroke="#CDCCCB"/>
</g>
<rect width="579.5" height="61" transform="translate(579.5)" fill="white"/>
<path d="M601.84 37.18C601.227 37.18 600.627 37.1333 600.04 37.04C599.453 36.9467 598.9 36.8067 598.38 36.62C597.86 36.42 597.393 36.18 596.98 35.9C596.78 35.7533 596.64 35.5867 596.56 35.4C596.493 35.2133 596.473 35.0333 596.5 34.86C596.54 34.6733 596.62 34.5133 596.74 34.38C596.86 34.2467 597.007 34.1667 597.18 34.14C597.353 34.1 597.547 34.1533 597.76 34.3C598.36 34.6867 598.993 34.9733 599.66 35.16C600.327 35.3333 601.053 35.42 601.84 35.42C602.973 35.42 603.807 35.22 604.34 34.82C604.887 34.4067 605.16 33.8733 605.16 33.22C605.16 32.6867 604.967 32.2667 604.58 31.96C604.193 31.64 603.547 31.3867 602.64 31.2L600.5 30.76C599.233 30.4933 598.287 30.0533 597.66 29.44C597.047 28.8267 596.74 28 596.74 26.96C596.74 26.3333 596.867 25.76 597.12 25.24C597.387 24.72 597.753 24.2733 598.22 23.9C598.687 23.5133 599.247 23.22 599.9 23.02C600.553 22.82 601.267 22.72 602.04 22.72C602.867 22.72 603.64 22.8267 604.36 23.04C605.093 23.2533 605.747 23.58 606.32 24.02C606.493 24.14 606.607 24.2933 606.66 24.48C606.727 24.6533 606.74 24.8267 606.7 25C606.673 25.1733 606.6 25.32 606.48 25.44C606.36 25.56 606.207 25.6333 606.02 25.66C605.833 25.6733 605.627 25.6067 605.4 25.46C604.88 25.1133 604.347 24.8667 603.8 24.72C603.267 24.56 602.673 24.48 602.02 24.48C601.367 24.48 600.793 24.58 600.3 24.78C599.82 24.98 599.447 25.26 599.18 25.62C598.927 25.98 598.8 26.4067 598.8 26.9C598.8 27.46 598.98 27.9067 599.34 28.24C599.7 28.5733 600.3 28.8267 601.14 29L603.26 29.44C604.593 29.72 605.587 30.1533 606.24 30.74C606.893 31.3267 607.22 32.1067 607.22 33.08C607.22 33.7067 607.093 34.2733 606.84 34.78C606.587 35.2733 606.227 35.7 605.76 36.06C605.293 36.42 604.727 36.7 604.06 36.9C603.407 37.0867 602.667 37.18 601.84 37.18ZM609.861 40.74C609.541 40.74 609.295 40.6533 609.121 40.48C608.948 40.3067 608.861 40.0533 608.861 39.72V28.12C608.861 27.7867 608.948 27.5333 609.121 27.36C609.295 27.1867 609.535 27.1 609.841 27.1C610.161 27.1 610.408 27.1867 610.581 27.36C610.755 27.5333 610.841 27.7867 610.841 28.12V29.86L610.621 29.44C610.835 28.72 611.255 28.1467 611.881 27.72C612.508 27.28 613.248 27.06 614.101 27.06C614.968 27.06 615.721 27.2667 616.361 27.68C617.015 28.0933 617.515 28.6733 617.861 29.42C618.221 30.1667 618.401 31.0667 618.401 32.12C618.401 33.1467 618.221 34.0467 617.861 34.82C617.515 35.58 617.021 36.1667 616.381 36.58C615.741 36.98 614.981 37.18 614.101 37.18C613.261 37.18 612.528 36.9667 611.901 36.54C611.275 36.1133 610.855 35.5467 610.641 34.84H610.881V39.72C610.881 40.0533 610.788 40.3067 610.601 40.48C610.428 40.6533 610.181 40.74 609.861 40.74ZM613.601 35.62C614.161 35.62 614.648 35.4867 615.061 35.22C615.475 34.9533 615.795 34.56 616.021 34.04C616.248 33.52 616.361 32.88 616.361 32.12C616.361 30.9733 616.108 30.1067 615.601 29.52C615.108 28.9333 614.441 28.64 613.601 28.64C613.055 28.64 612.568 28.7733 612.141 29.04C611.728 29.2933 611.408 29.68 611.181 30.2C610.955 30.72 610.841 31.36 610.841 32.12C610.841 33.2533 611.095 34.12 611.601 34.72C612.108 35.32 612.775 35.62 613.601 35.62ZM624.758 37.18C623.691 37.18 622.771 36.98 621.998 36.58C621.238 36.1667 620.644 35.5867 620.218 34.84C619.804 34.08 619.598 33.18 619.598 32.14C619.598 31.1267 619.804 30.24 620.218 29.48C620.631 28.72 621.198 28.1267 621.918 27.7C622.638 27.2733 623.458 27.06 624.378 27.06C625.058 27.06 625.664 27.1733 626.198 27.4C626.731 27.6133 627.184 27.9333 627.558 28.36C627.944 28.7733 628.231 29.28 628.418 29.88C628.618 30.48 628.718 31.1533 628.718 31.9C628.718 32.1267 628.651 32.3 628.518 32.42C628.384 32.5267 628.184 32.58 627.918 32.58H621.198V31.34H627.358L627.018 31.62C627.018 30.9533 626.918 30.3867 626.718 29.92C626.531 29.4533 626.244 29.1 625.858 28.86C625.484 28.6067 625.018 28.48 624.458 28.48C623.831 28.48 623.298 28.6267 622.858 28.92C622.431 29.2133 622.104 29.62 621.878 30.14C621.651 30.66 621.538 31.2667 621.538 31.96V32.08C621.538 33.2533 621.811 34.14 622.358 34.74C622.918 35.3267 623.724 35.62 624.778 35.62C625.178 35.62 625.598 35.5667 626.038 35.46C626.491 35.3533 626.918 35.1733 627.318 34.92C627.544 34.7867 627.744 34.7267 627.918 34.74C628.104 34.7533 628.251 34.8133 628.358 34.92C628.478 35.0267 628.551 35.16 628.578 35.32C628.604 35.48 628.578 35.6467 628.498 35.82C628.418 35.98 628.278 36.1267 628.078 36.26C627.624 36.5667 627.098 36.8 626.498 36.96C625.898 37.1067 625.318 37.18 624.758 37.18ZM625.178 25.84C625.071 26 624.938 26.0933 624.778 26.12C624.631 26.1467 624.484 26.12 624.338 26.04C624.191 25.96 624.084 25.8467 624.018 25.7C623.964 25.5533 623.978 25.3933 624.058 25.22L625.678 22.08C625.784 21.8667 625.918 21.7267 626.078 21.66C626.251 21.5933 626.424 21.5867 626.598 21.64C626.784 21.68 626.938 21.76 627.058 21.88C627.191 22 627.271 22.1533 627.298 22.34C627.324 22.5133 627.278 22.6867 627.158 22.86L625.178 25.84ZM634.72 37.18C633.72 37.18 632.853 36.9733 632.12 36.56C631.4 36.1333 630.84 35.54 630.44 34.78C630.04 34.0067 629.84 33.1 629.84 32.06C629.84 31.2867 629.953 30.5933 630.18 29.98C630.407 29.3533 630.727 28.8267 631.14 28.4C631.567 27.9733 632.08 27.6467 632.68 27.42C633.293 27.18 633.973 27.06 634.72 27.06C635.187 27.06 635.673 27.1333 636.18 27.28C636.7 27.4133 637.18 27.64 637.62 27.96C637.793 28.0667 637.9 28.2 637.94 28.36C637.993 28.5067 638 28.66 637.96 28.82C637.933 28.98 637.86 29.12 637.74 29.24C637.633 29.3467 637.5 29.4133 637.34 29.44C637.18 29.4533 637.007 29.4067 636.82 29.3C636.5 29.0733 636.173 28.9133 635.84 28.82C635.507 28.7133 635.187 28.66 634.88 28.66C634.4 28.66 633.973 28.74 633.6 28.9C633.24 29.0467 632.933 29.2667 632.68 29.56C632.427 29.84 632.233 30.1933 632.1 30.62C631.98 31.0467 631.92 31.5333 631.92 32.08C631.92 33.1733 632.173 34.0333 632.68 34.66C633.2 35.2733 633.933 35.58 634.88 35.58C635.187 35.58 635.507 35.5333 635.84 35.44C636.173 35.3467 636.5 35.1867 636.82 34.96C637.007 34.8533 637.18 34.8133 637.34 34.84C637.5 34.8667 637.627 34.94 637.72 35.06C637.827 35.1667 637.893 35.3 637.92 35.46C637.96 35.6067 637.953 35.76 637.9 35.92C637.847 36.08 637.733 36.2133 637.56 36.32C637.133 36.6267 636.667 36.8467 636.16 36.98C635.667 37.1133 635.187 37.18 634.72 37.18ZM640.256 37.12C639.936 37.12 639.689 37.0267 639.516 36.84C639.343 36.64 639.256 36.3667 639.256 36.02V28.22C639.256 27.8733 639.343 27.6067 639.516 27.42C639.689 27.2333 639.936 27.14 640.256 27.14C640.576 27.14 640.823 27.2333 640.996 27.42C641.183 27.6067 641.276 27.8733 641.276 28.22V36.02C641.276 36.3667 641.189 36.64 641.016 36.84C640.843 37.0267 640.589 37.12 640.256 37.12ZM640.256 25.06C639.856 25.06 639.543 24.96 639.316 24.76C639.103 24.56 638.996 24.28 638.996 23.92C638.996 23.5467 639.103 23.2667 639.316 23.08C639.543 22.88 639.856 22.78 640.256 22.78C640.656 22.78 640.963 22.88 641.176 23.08C641.403 23.2667 641.516 23.5467 641.516 23.92C641.516 24.28 641.403 24.56 641.176 24.76C640.963 24.96 640.656 25.06 640.256 25.06ZM645.219 37.14C644.899 37.14 644.646 37.0533 644.459 36.88C644.286 36.6933 644.199 36.44 644.199 36.12V28.8H643.079C642.826 28.8 642.626 28.7333 642.479 28.6C642.333 28.4533 642.259 28.26 642.259 28.02C642.259 27.7667 642.333 27.5733 642.479 27.44C642.626 27.3067 642.826 27.24 643.079 27.24H644.779L644.199 27.78V27.06C644.199 25.7667 644.519 24.78 645.159 24.1C645.799 23.42 646.739 23.02 647.979 22.9L648.579 22.86C648.819 22.8333 649.013 22.8667 649.159 22.96C649.306 23.04 649.406 23.16 649.459 23.32C649.513 23.4667 649.519 23.62 649.479 23.78C649.439 23.94 649.366 24.08 649.259 24.2C649.166 24.3067 649.046 24.3667 648.899 24.38L648.359 24.42C647.613 24.4733 647.066 24.6933 646.719 25.08C646.386 25.4667 646.219 26.0333 646.219 26.78V27.56L645.939 27.24H651.419C651.753 27.24 652.006 27.34 652.179 27.54C652.353 27.7267 652.439 27.9867 652.439 28.32V36.02C652.439 36.3667 652.353 36.64 652.179 36.84C652.019 37.0267 651.766 37.12 651.419 37.12C651.099 37.12 650.853 37.0267 650.679 36.84C650.506 36.64 650.419 36.3667 650.419 36.02V28.8H646.219V36.12C646.219 36.8 645.886 37.14 645.219 37.14ZM651.459 25.06C651.073 25.06 650.773 24.96 650.559 24.76C650.346 24.56 650.239 24.28 650.239 23.92C650.239 23.5467 650.346 23.2667 650.559 23.08C650.773 22.88 651.073 22.78 651.459 22.78C651.859 22.78 652.159 22.88 652.359 23.08C652.573 23.2667 652.679 23.5467 652.679 23.92C652.679 24.28 652.573 24.56 652.359 24.76C652.159 24.96 651.859 25.06 651.459 25.06ZM659.06 37.18C658.06 37.18 657.193 36.9733 656.46 36.56C655.74 36.1333 655.18 35.54 654.78 34.78C654.38 34.0067 654.18 33.1 654.18 32.06C654.18 31.2867 654.293 30.5933 654.52 29.98C654.747 29.3533 655.067 28.8267 655.48 28.4C655.907 27.9733 656.42 27.6467 657.02 27.42C657.633 27.18 658.313 27.06 659.06 27.06C659.527 27.06 660.013 27.1333 660.52 27.28C661.04 27.4133 661.52 27.64 661.96 27.96C662.133 28.0667 662.24 28.2 662.28 28.36C662.333 28.5067 662.34 28.66 662.3 28.82C662.273 28.98 662.2 29.12 662.08 29.24C661.973 29.3467 661.84 29.4133 661.68 29.44C661.52 29.4533 661.347 29.4067 661.16 29.3C660.84 29.0733 660.513 28.9133 660.18 28.82C659.847 28.7133 659.527 28.66 659.22 28.66C658.74 28.66 658.313 28.74 657.94 28.9C657.58 29.0467 657.273 29.2667 657.02 29.56C656.767 29.84 656.573 30.1933 656.44 30.62C656.32 31.0467 656.26 31.5333 656.26 32.08C656.26 33.1733 656.513 34.0333 657.02 34.66C657.54 35.2733 658.273 35.58 659.22 35.58C659.527 35.58 659.847 35.5333 660.18 35.44C660.513 35.3467 660.84 35.1867 661.16 34.96C661.347 34.8533 661.52 34.8133 661.68 34.84C661.84 34.8667 661.967 34.94 662.06 35.06C662.167 35.1667 662.233 35.3 662.26 35.46C662.3 35.6067 662.293 35.76 662.24 35.92C662.187 36.08 662.073 36.2133 661.9 36.32C661.473 36.6267 661.007 36.8467 660.5 36.98C660.007 37.1133 659.527 37.18 659.06 37.18ZM666.638 37.18C665.958 37.18 665.344 37.0467 664.798 36.78C664.264 36.5133 663.844 36.1533 663.538 35.7C663.231 35.2467 663.078 34.7333 663.078 34.16C663.078 33.44 663.258 32.8733 663.618 32.46C663.991 32.0333 664.598 31.7333 665.438 31.56C666.291 31.3733 667.438 31.28 668.878 31.28H669.818V32.52H668.898C667.938 32.52 667.178 32.5667 666.618 32.66C666.058 32.7533 665.658 32.9133 665.418 33.14C665.191 33.3533 665.078 33.6533 665.078 34.04C665.078 34.5467 665.251 34.96 665.598 35.28C665.944 35.5867 666.424 35.74 667.038 35.74C667.531 35.74 667.964 35.6267 668.338 35.4C668.711 35.16 669.004 34.84 669.218 34.44C669.444 34.04 669.558 33.58 669.558 33.06V30.76C669.558 30 669.398 29.4533 669.078 29.12C668.758 28.7867 668.231 28.62 667.498 28.62C667.071 28.62 666.624 28.6733 666.158 28.78C665.704 28.8867 665.231 29.0667 664.738 29.32C664.511 29.4267 664.318 29.46 664.158 29.42C663.998 29.38 663.871 29.2933 663.778 29.16C663.684 29.0133 663.631 28.86 663.618 28.7C663.618 28.5267 663.658 28.36 663.738 28.2C663.831 28.04 663.984 27.92 664.198 27.84C664.784 27.56 665.364 27.36 665.938 27.24C666.511 27.12 667.051 27.06 667.558 27.06C668.451 27.06 669.184 27.2 669.758 27.48C670.344 27.76 670.778 28.1867 671.058 28.76C671.338 29.3333 671.478 30.0733 671.478 30.98V36.12C671.478 36.44 671.398 36.6933 671.238 36.88C671.078 37.0533 670.844 37.14 670.538 37.14C670.244 37.14 670.011 37.0533 669.838 36.88C669.664 36.6933 669.578 36.44 669.578 36.12V34.82H669.758C669.651 35.3133 669.451 35.74 669.158 36.1C668.878 36.4467 668.524 36.7133 668.098 36.9C667.671 37.0867 667.184 37.18 666.638 37.18ZM677.92 37.18C677.12 37.18 676.447 37.04 675.9 36.76C675.353 36.48 674.947 36.0667 674.68 35.52C674.413 34.9733 674.28 34.3067 674.28 33.52V28.8H673.08C672.813 28.8 672.607 28.7333 672.46 28.6C672.313 28.4533 672.24 28.26 672.24 28.02C672.24 27.7667 672.313 27.5733 672.46 27.44C672.607 27.3067 672.813 27.24 673.08 27.24H674.28V25.18C674.28 24.8467 674.367 24.5933 674.54 24.42C674.727 24.2467 674.98 24.16 675.3 24.16C675.62 24.16 675.867 24.2467 676.04 24.42C676.213 24.5933 676.3 24.8467 676.3 25.18V27.24H678.64C678.907 27.24 679.113 27.3067 679.26 27.44C679.407 27.5733 679.48 27.7667 679.48 28.02C679.48 28.26 679.407 28.4533 679.26 28.6C679.113 28.7333 678.907 28.8 678.64 28.8H676.3V33.36C676.3 34.0667 676.447 34.6 676.74 34.96C677.047 35.32 677.54 35.5 678.22 35.5C678.46 35.5 678.667 35.48 678.84 35.44C679.027 35.3867 679.18 35.3533 679.3 35.34C679.447 35.34 679.567 35.3933 679.66 35.5C679.753 35.5933 679.8 35.78 679.8 36.06C679.8 36.26 679.76 36.4467 679.68 36.62C679.613 36.7933 679.487 36.9067 679.3 36.96C679.14 37.0133 678.92 37.06 678.64 37.1C678.373 37.1533 678.133 37.18 677.92 37.18ZM681.74 37.12C681.42 37.12 681.174 37.0267 681 36.84C680.827 36.64 680.74 36.3667 680.74 36.02V28.22C680.74 27.8733 680.827 27.6067 681 27.42C681.174 27.2333 681.42 27.14 681.74 27.14C682.06 27.14 682.307 27.2333 682.48 27.42C682.667 27.6067 682.76 27.8733 682.76 28.22V36.02C682.76 36.3667 682.674 36.64 682.5 36.84C682.327 37.0267 682.074 37.12 681.74 37.12ZM681.74 25.06C681.34 25.06 681.027 24.96 680.8 24.76C680.587 24.56 680.48 24.28 680.48 23.92C680.48 23.5467 680.587 23.2667 680.8 23.08C681.027 22.88 681.34 22.78 681.74 22.78C682.14 22.78 682.447 22.88 682.66 23.08C682.887 23.2667 683 23.5467 683 23.92C683 24.28 682.887 24.56 682.66 24.76C682.447 24.96 682.14 25.06 681.74 25.06ZM689.344 37.18C688.357 37.18 687.504 36.9733 686.784 36.56C686.077 36.1467 685.524 35.56 685.124 34.8C684.724 34.04 684.524 33.1467 684.524 32.12C684.524 31.3333 684.637 30.6333 684.864 30.02C685.09 29.4067 685.41 28.88 685.824 28.44C686.25 27.9867 686.757 27.6467 687.344 27.42C687.944 27.18 688.61 27.06 689.344 27.06C690.317 27.06 691.157 27.2667 691.864 27.68C692.584 28.0933 693.144 28.68 693.544 29.44C693.944 30.1867 694.144 31.08 694.144 32.12C694.144 32.8933 694.03 33.5933 693.804 34.22C693.577 34.8467 693.25 35.38 692.824 35.82C692.41 36.26 691.904 36.6 691.304 36.84C690.717 37.0667 690.064 37.18 689.344 37.18ZM689.344 35.62C689.89 35.62 690.37 35.4867 690.784 35.22C691.197 34.9533 691.517 34.56 691.744 34.04C691.984 33.52 692.104 32.88 692.104 32.12C692.104 30.9733 691.85 30.1067 691.344 29.52C690.837 28.9333 690.17 28.64 689.344 28.64C688.784 28.64 688.297 28.7733 687.884 29.04C687.47 29.2933 687.144 29.68 686.904 30.2C686.677 30.72 686.564 31.36 686.564 32.12C686.564 33.2533 686.817 34.12 687.324 34.72C687.83 35.32 688.504 35.62 689.344 35.62ZM696.912 37.14C696.592 37.14 696.346 37.0533 696.172 36.88C695.999 36.6933 695.912 36.44 695.912 36.12V28.12C695.912 27.7867 695.999 27.5333 696.172 27.36C696.346 27.1867 696.586 27.1 696.892 27.1C697.212 27.1 697.452 27.1867 697.612 27.36C697.786 27.5333 697.872 27.7867 697.872 28.12V29.68L697.652 29.32C697.946 28.5733 698.406 28.0133 699.032 27.64C699.659 27.2533 700.379 27.06 701.192 27.06C701.966 27.06 702.606 27.2067 703.112 27.5C703.632 27.78 704.019 28.2133 704.272 28.8C704.526 29.3733 704.652 30.1 704.652 30.98V36.12C704.652 36.44 704.566 36.6933 704.392 36.88C704.219 37.0533 703.972 37.14 703.652 37.14C703.319 37.14 703.066 37.0533 702.892 36.88C702.719 36.6933 702.632 36.44 702.632 36.12V31.1C702.632 30.26 702.466 29.6467 702.132 29.26C701.812 28.8733 701.306 28.68 700.612 28.68C699.799 28.68 699.146 28.9333 698.652 29.44C698.172 29.9467 697.932 30.6267 697.932 31.48V36.12C697.932 36.8 697.592 37.14 696.912 37.14Z" fill="#201F1F"/>
<path d="M579.5 60.5H1159" stroke="#CDCCCB"/>
<rect width="579.5" height="49" transform="translate(579.5 61)" fill="white"/>
<path d="M596.375 85.9922V84.6797L603.961 81.4766V82.875L597.945 85.3438L603.961 87.8359V89.2344L596.375 85.9922ZM605.906 81.1641V79.5469H607.312V81.1641H605.906ZM605.906 91V82.7031H607.312V91H605.906ZM609.461 91V82.7031H610.727V83.8828C611.336 82.9714 612.216 82.5156 613.367 82.5156C613.867 82.5156 614.326 82.6068 614.742 82.7891C615.164 82.9661 615.479 83.2005 615.688 83.4922C615.896 83.7839 616.042 84.1302 616.125 84.5312C616.177 84.7917 616.203 85.2474 616.203 85.8984V91H614.797V85.9531C614.797 85.3802 614.742 84.9531 614.633 84.6719C614.523 84.3854 614.328 84.1589 614.047 83.9922C613.771 83.8203 613.445 83.7344 613.07 83.7344C612.471 83.7344 611.953 83.9245 611.516 84.3047C611.083 84.6849 610.867 85.4062 610.867 86.4688V91H609.461ZM618.367 94.1797V82.7031H619.648V83.7812C619.951 83.3594 620.292 83.0443 620.672 82.8359C621.052 82.6224 621.513 82.5156 622.055 82.5156C622.763 82.5156 623.388 82.6979 623.93 83.0625C624.471 83.4271 624.88 83.9427 625.156 84.6094C625.432 85.2708 625.57 85.9974 625.57 86.7891C625.57 87.638 625.417 88.4036 625.109 89.0859C624.807 89.763 624.365 90.2839 623.781 90.6484C623.203 91.0078 622.594 91.1875 621.953 91.1875C621.484 91.1875 621.062 91.0885 620.688 90.8906C620.318 90.6927 620.013 90.4427 619.773 90.1406V94.1797H618.367ZM619.641 86.8984C619.641 87.9661 619.857 88.7552 620.289 89.2656C620.721 89.776 621.245 90.0312 621.859 90.0312C622.484 90.0312 623.018 89.7682 623.461 89.2422C623.909 88.7109 624.133 87.8906 624.133 86.7812C624.133 85.724 623.914 84.9323 623.477 84.4062C623.044 83.8802 622.526 83.6172 621.922 83.6172C621.323 83.6172 620.792 83.8984 620.328 84.4609C619.87 85.0182 619.641 85.8307 619.641 86.8984ZM632.711 91V89.7812C632.065 90.7188 631.188 91.1875 630.078 91.1875C629.589 91.1875 629.13 91.0938 628.703 90.9062C628.281 90.7188 627.966 90.4844 627.758 90.2031C627.555 89.9167 627.411 89.5677 627.328 89.1562C627.271 88.8802 627.242 88.4427 627.242 87.8438V82.7031H628.648V87.3047C628.648 88.0391 628.677 88.5339 628.734 88.7891C628.823 89.1589 629.01 89.4505 629.297 89.6641C629.583 89.8724 629.938 89.9766 630.359 89.9766C630.781 89.9766 631.177 89.8698 631.547 89.6562C631.917 89.4375 632.177 89.1432 632.328 88.7734C632.484 88.3984 632.562 87.8568 632.562 87.1484V82.7031H633.969V91H632.711ZM639.25 89.7422L639.453 90.9844C639.057 91.0677 638.703 91.1094 638.391 91.1094C637.88 91.1094 637.484 91.0286 637.203 90.8672C636.922 90.7057 636.724 90.4948 636.609 90.2344C636.495 89.9688 636.438 89.4141 636.438 88.5703V83.7969H635.406V82.7031H636.438V80.6484L637.836 79.8047V82.7031H639.25V83.7969H637.836V88.6484C637.836 89.0495 637.859 89.3073 637.906 89.4219C637.958 89.5365 638.039 89.6276 638.148 89.6953C638.263 89.763 638.424 89.7969 638.633 89.7969C638.789 89.7969 638.995 89.7786 639.25 89.7422ZM648.156 89.7422L648.359 90.9844C647.964 91.0677 647.609 91.1094 647.297 91.1094C646.786 91.1094 646.391 91.0286 646.109 90.8672C645.828 90.7057 645.63 90.4948 645.516 90.2344C645.401 89.9688 645.344 89.4141 645.344 88.5703V83.7969H644.312V82.7031H645.344V80.6484L646.742 79.8047V82.7031H648.156V83.7969H646.742V88.6484C646.742 89.0495 646.766 89.3073 646.812 89.4219C646.865 89.5365 646.945 89.6276 647.055 89.6953C647.169 89.763 647.331 89.7969 647.539 89.7969C647.695 89.7969 647.901 89.7786 648.156 89.7422ZM649.477 94.1953L649.32 92.875C649.628 92.9583 649.896 93 650.125 93C650.438 93 650.688 92.9479 650.875 92.8438C651.062 92.7396 651.216 92.5938 651.336 92.4062C651.424 92.2656 651.568 91.9167 651.766 91.3594C651.792 91.2812 651.833 91.1667 651.891 91.0156L648.742 82.7031H650.258L651.984 87.5078C652.208 88.1172 652.409 88.7578 652.586 89.4297C652.747 88.7839 652.94 88.1536 653.164 87.5391L654.938 82.7031H656.344L653.188 91.1406C652.849 92.0521 652.586 92.6797 652.398 93.0234C652.148 93.487 651.862 93.8255 651.539 94.0391C651.216 94.2578 650.831 94.3672 650.383 94.3672C650.112 94.3672 649.81 94.3099 649.477 94.1953ZM657.539 94.1797V82.7031H658.82V83.7812C659.122 83.3594 659.464 83.0443 659.844 82.8359C660.224 82.6224 660.685 82.5156 661.227 82.5156C661.935 82.5156 662.56 82.6979 663.102 83.0625C663.643 83.4271 664.052 83.9427 664.328 84.6094C664.604 85.2708 664.742 85.9974 664.742 86.7891C664.742 87.638 664.589 88.4036 664.281 89.0859C663.979 89.763 663.536 90.2839 662.953 90.6484C662.375 91.0078 661.766 91.1875 661.125 91.1875C660.656 91.1875 660.234 91.0885 659.859 90.8906C659.49 90.6927 659.185 90.4427 658.945 90.1406V94.1797H657.539ZM658.812 86.8984C658.812 87.9661 659.029 88.7552 659.461 89.2656C659.893 89.776 660.417 90.0312 661.031 90.0312C661.656 90.0312 662.19 89.7682 662.633 89.2422C663.081 88.7109 663.305 87.8906 663.305 86.7812C663.305 85.724 663.086 84.9323 662.648 84.4062C662.216 83.8802 661.698 83.6172 661.094 83.6172C660.495 83.6172 659.964 83.8984 659.5 84.4609C659.042 85.0182 658.812 85.8307 658.812 86.8984ZM672.125 88.3281L673.578 88.5078C673.349 89.3568 672.924 90.0156 672.305 90.4844C671.685 90.9531 670.893 91.1875 669.93 91.1875C668.716 91.1875 667.753 90.8151 667.039 90.0703C666.331 89.3203 665.977 88.2708 665.977 86.9219C665.977 85.526 666.336 84.4427 667.055 83.6719C667.773 82.901 668.706 82.5156 669.852 82.5156C670.961 82.5156 671.867 82.8932 672.57 83.6484C673.273 84.4036 673.625 85.4661 673.625 86.8359C673.625 86.9193 673.622 87.0443 673.617 87.2109H667.43C667.482 88.1224 667.74 88.8203 668.203 89.3047C668.667 89.7891 669.245 90.0312 669.938 90.0312C670.453 90.0312 670.893 89.8958 671.258 89.625C671.622 89.3542 671.911 88.9219 672.125 88.3281ZM667.508 86.0547H672.141C672.078 85.3568 671.901 84.8333 671.609 84.4844C671.161 83.9427 670.581 83.6719 669.867 83.6719C669.221 83.6719 668.677 83.888 668.234 84.3203C667.797 84.7526 667.555 85.3307 667.508 86.0547ZM682.75 84.2656H675.188V82.9531H682.75V84.2656ZM682.75 87.7422H675.188V86.4297H682.75V87.7422ZM684.766 83.6016L684.375 81.4219V79.5469H685.977V81.4219L685.625 83.6016H684.766ZM687.352 83.6016L686.969 81.4219V79.5469H688.57V81.4219L688.195 83.6016H687.352ZM695.797 87.9609L697.18 88.1406C697.029 89.0938 696.641 89.8411 696.016 90.3828C695.396 90.9193 694.633 91.1875 693.727 91.1875C692.591 91.1875 691.677 90.8177 690.984 90.0781C690.297 89.3333 689.953 88.2682 689.953 86.8828C689.953 85.987 690.102 85.2031 690.398 84.5312C690.695 83.8594 691.146 83.3568 691.75 83.0234C692.359 82.6849 693.021 82.5156 693.734 82.5156C694.635 82.5156 695.372 82.7448 695.945 83.2031C696.518 83.6562 696.885 84.3021 697.047 85.1406L695.68 85.3516C695.549 84.7943 695.318 84.375 694.984 84.0938C694.656 83.8125 694.258 83.6719 693.789 83.6719C693.081 83.6719 692.505 83.9271 692.062 84.4375C691.62 84.9427 691.398 85.7448 691.398 86.8438C691.398 87.9583 691.612 88.7682 692.039 89.2734C692.466 89.7786 693.023 90.0312 693.711 90.0312C694.263 90.0312 694.724 89.862 695.094 89.5234C695.464 89.1849 695.698 88.6641 695.797 87.9609ZM698.383 91V79.5469H699.789V83.6562C700.445 82.8958 701.273 82.5156 702.273 82.5156C702.888 82.5156 703.422 82.638 703.875 82.8828C704.328 83.1224 704.651 83.4557 704.844 83.8828C705.042 84.3099 705.141 84.9297 705.141 85.7422V91H703.734V85.7422C703.734 85.0391 703.581 84.5286 703.273 84.2109C702.971 83.888 702.542 83.7266 701.984 83.7266C701.568 83.7266 701.174 83.8359 700.805 84.0547C700.44 84.2682 700.18 84.5599 700.023 84.9297C699.867 85.2995 699.789 85.8099 699.789 86.4609V91H698.383ZM712.969 88.3281L714.422 88.5078C714.193 89.3568 713.768 90.0156 713.148 90.4844C712.529 90.9531 711.737 91.1875 710.773 91.1875C709.56 91.1875 708.596 90.8151 707.883 90.0703C707.174 89.3203 706.82 88.2708 706.82 86.9219C706.82 85.526 707.18 84.4427 707.898 83.6719C708.617 82.901 709.549 82.5156 710.695 82.5156C711.805 82.5156 712.711 82.8932 713.414 83.6484C714.117 84.4036 714.469 85.4661 714.469 86.8359C714.469 86.9193 714.466 87.0443 714.461 87.2109H708.273C708.326 88.1224 708.583 88.8203 709.047 89.3047C709.51 89.7891 710.089 90.0312 710.781 90.0312C711.297 90.0312 711.737 89.8958 712.102 89.625C712.466 89.3542 712.755 88.9219 712.969 88.3281ZM708.352 86.0547H712.984C712.922 85.3568 712.745 84.8333 712.453 84.4844C712.005 83.9427 711.424 83.6719 710.711 83.6719C710.065 83.6719 709.521 83.888 709.078 84.3203C708.641 84.7526 708.398 85.3307 708.352 86.0547ZM721.609 87.9609L722.992 88.1406C722.841 89.0938 722.453 89.8411 721.828 90.3828C721.208 90.9193 720.445 91.1875 719.539 91.1875C718.404 91.1875 717.49 90.8177 716.797 90.0781C716.109 89.3333 715.766 88.2682 715.766 86.8828C715.766 85.987 715.914 85.2031 716.211 84.5312C716.508 83.8594 716.958 83.3568 717.562 83.0234C718.172 82.6849 718.833 82.5156 719.547 82.5156C720.448 82.5156 721.185 82.7448 721.758 83.2031C722.331 83.6562 722.698 84.3021 722.859 85.1406L721.492 85.3516C721.362 84.7943 721.13 84.375 720.797 84.0938C720.469 83.8125 720.07 83.6719 719.602 83.6719C718.893 83.6719 718.318 83.9271 717.875 84.4375C717.432 84.9427 717.211 85.7448 717.211 86.8438C717.211 87.9583 717.424 88.7682 717.852 89.2734C718.279 89.7786 718.836 90.0312 719.523 90.0312C720.076 90.0312 720.536 89.862 720.906 89.5234C721.276 89.1849 721.51 88.6641 721.609 87.9609ZM724.203 91V79.5469H725.609V86.0781L728.938 82.7031H730.758L727.586 85.7812L731.078 91H729.344L726.602 86.7578L725.609 87.7109V91H724.203ZM733.492 91H732.188V79.5469H733.594V83.6328C734.188 82.888 734.945 82.5156 735.867 82.5156C736.378 82.5156 736.859 82.6198 737.312 82.8281C737.771 83.0312 738.146 83.3203 738.438 83.6953C738.734 84.0651 738.966 84.513 739.133 85.0391C739.299 85.5651 739.383 86.1276 739.383 86.7266C739.383 88.1484 739.031 89.2474 738.328 90.0234C737.625 90.7995 736.781 91.1875 735.797 91.1875C734.818 91.1875 734.049 90.7786 733.492 89.9609V91ZM733.477 86.7891C733.477 87.7839 733.612 88.5026 733.883 88.9453C734.326 89.6693 734.924 90.0312 735.68 90.0312C736.294 90.0312 736.826 89.7656 737.273 89.2344C737.721 88.6979 737.945 87.901 737.945 86.8438C737.945 85.7604 737.729 84.9609 737.297 84.4453C736.87 83.9297 736.352 83.6719 735.742 83.6719C735.128 83.6719 734.596 83.9401 734.148 84.4766C733.701 85.0078 733.477 85.7786 733.477 86.7891ZM740.578 86.8516C740.578 85.3151 741.005 84.1771 741.859 83.4375C742.573 82.8229 743.443 82.5156 744.469 82.5156C745.609 82.5156 746.542 82.8906 747.266 83.6406C747.99 84.3854 748.352 85.4167 748.352 86.7344C748.352 87.8021 748.19 88.6432 747.867 89.2578C747.549 89.8672 747.083 90.3411 746.469 90.6797C745.859 91.0182 745.193 91.1875 744.469 91.1875C743.307 91.1875 742.367 90.8151 741.648 90.0703C740.935 89.3255 740.578 88.2526 740.578 86.8516ZM742.023 86.8516C742.023 87.9141 742.255 88.7109 742.719 89.2422C743.182 89.7682 743.766 90.0312 744.469 90.0312C745.167 90.0312 745.747 89.7656 746.211 89.2344C746.674 88.7031 746.906 87.8932 746.906 86.8047C746.906 85.7786 746.672 85.0026 746.203 84.4766C745.74 83.9453 745.161 83.6797 744.469 83.6797C743.766 83.6797 743.182 83.9427 742.719 84.4688C742.255 84.9948 742.023 85.7891 742.023 86.8516ZM749.07 91L752.102 86.6875L749.297 82.7031H751.055L752.328 84.6484C752.568 85.0182 752.76 85.3281 752.906 85.5781C753.135 85.2344 753.346 84.9297 753.539 84.6641L754.938 82.7031H756.617L753.75 86.6094L756.836 91H755.109L753.406 88.4219L752.953 87.7266L750.773 91H749.07ZM758.078 83.6016L757.688 81.4219V79.5469H759.289V81.4219L758.938 83.6016H758.078ZM760.664 83.6016L760.281 81.4219V79.5469H761.883V81.4219L761.508 83.6016H760.664ZM768.133 91V82.7031H769.398V83.9609C769.721 83.3724 770.018 82.9844 770.289 82.7969C770.565 82.6094 770.867 82.5156 771.195 82.5156C771.669 82.5156 772.151 82.6667 772.641 82.9688L772.156 84.2734C771.812 84.0703 771.469 83.9688 771.125 83.9688C770.818 83.9688 770.542 84.0625 770.297 84.25C770.052 84.4323 769.878 84.6875 769.773 85.0156C769.617 85.5156 769.539 86.0625 769.539 86.6562V91H768.133ZM772.953 86.8516C772.953 85.3151 773.38 84.1771 774.234 83.4375C774.948 82.8229 775.818 82.5156 776.844 82.5156C777.984 82.5156 778.917 82.8906 779.641 83.6406C780.365 84.3854 780.727 85.4167 780.727 86.7344C780.727 87.8021 780.565 88.6432 780.242 89.2578C779.924 89.8672 779.458 90.3411 778.844 90.6797C778.234 91.0182 777.568 91.1875 776.844 91.1875C775.682 91.1875 774.742 90.8151 774.023 90.0703C773.31 89.3255 772.953 88.2526 772.953 86.8516ZM774.398 86.8516C774.398 87.9141 774.63 88.7109 775.094 89.2422C775.557 89.7682 776.141 90.0312 776.844 90.0312C777.542 90.0312 778.122 89.7656 778.586 89.2344C779.049 88.7031 779.281 87.8932 779.281 86.8047C779.281 85.7786 779.047 85.0026 778.578 84.4766C778.115 83.9453 777.536 83.6797 776.844 83.6797C776.141 83.6797 775.557 83.9427 775.094 84.4688C774.63 84.9948 774.398 85.7891 774.398 86.8516ZM782.352 91V79.5469H783.758V91H782.352ZM791.625 88.3281L793.078 88.5078C792.849 89.3568 792.424 90.0156 791.805 90.4844C791.185 90.9531 790.393 91.1875 789.43 91.1875C788.216 91.1875 787.253 90.8151 786.539 90.0703C785.831 89.3203 785.477 88.2708 785.477 86.9219C785.477 85.526 785.836 84.4427 786.555 83.6719C787.273 82.901 788.206 82.5156 789.352 82.5156C790.461 82.5156 791.367 82.8932 792.07 83.6484C792.773 84.4036 793.125 85.4661 793.125 86.8359C793.125 86.9193 793.122 87.0443 793.117 87.2109H786.93C786.982 88.1224 787.24 88.8203 787.703 89.3047C788.167 89.7891 788.745 90.0312 789.438 90.0312C789.953 90.0312 790.393 89.8958 790.758 89.625C791.122 89.3542 791.411 88.9219 791.625 88.3281ZM787.008 86.0547H791.641C791.578 85.3568 791.401 84.8333 791.109 84.4844C790.661 83.9427 790.081 83.6719 789.367 83.6719C788.721 83.6719 788.177 83.888 787.734 84.3203C787.297 84.7526 787.055 85.3307 787.008 86.0547ZM802.25 84.2656H794.688V82.9531H802.25V84.2656ZM802.25 87.7422H794.688V86.4297H802.25V87.7422ZM804.266 83.6016L803.875 81.4219V79.5469H805.477V81.4219L805.125 83.6016H804.266ZM806.852 83.6016L806.469 81.4219V79.5469H808.07V81.4219L807.695 83.6016H806.852ZM809.32 88.5234L810.711 88.3047C810.789 88.862 811.005 89.2891 811.359 89.5859C811.719 89.8828 812.219 90.0312 812.859 90.0312C813.505 90.0312 813.984 89.901 814.297 89.6406C814.609 89.375 814.766 89.0651 814.766 88.7109C814.766 88.3932 814.628 88.1432 814.352 87.9609C814.159 87.8359 813.68 87.6771 812.914 87.4844C811.883 87.224 811.167 87 810.766 86.8125C810.37 86.6198 810.068 86.3568 809.859 86.0234C809.656 85.6849 809.555 85.3125 809.555 84.9062C809.555 84.5365 809.638 84.1953 809.805 83.8828C809.977 83.5651 810.208 83.3021 810.5 83.0938C810.719 82.9323 811.016 82.7969 811.391 82.6875C811.771 82.5729 812.177 82.5156 812.609 82.5156C813.26 82.5156 813.831 82.6094 814.32 82.7969C814.815 82.9844 815.18 83.2396 815.414 83.5625C815.648 83.8802 815.81 84.3073 815.898 84.8438L814.523 85.0312C814.461 84.6042 814.279 84.2708 813.977 84.0312C813.68 83.7917 813.258 83.6719 812.711 83.6719C812.065 83.6719 811.604 83.7786 811.328 83.9922C811.052 84.2057 810.914 84.4557 810.914 84.7422C810.914 84.9245 810.971 85.0885 811.086 85.2344C811.201 85.3854 811.38 85.5104 811.625 85.6094C811.766 85.6615 812.18 85.7812 812.867 85.9688C813.862 86.2344 814.555 86.4531 814.945 86.625C815.341 86.7917 815.651 87.0365 815.875 87.3594C816.099 87.6823 816.211 88.0833 816.211 88.5625C816.211 89.0312 816.073 89.474 815.797 89.8906C815.526 90.3021 815.133 90.6224 814.617 90.8516C814.102 91.0755 813.518 91.1875 812.867 91.1875C811.789 91.1875 810.966 90.9635 810.398 90.5156C809.836 90.0677 809.477 89.4036 809.32 88.5234ZM819.414 91L816.875 82.7031H818.328L819.648 87.4922L820.141 89.2734C820.161 89.1849 820.305 88.6146 820.57 87.5625L821.891 82.7031H823.336L824.578 87.5156L824.992 89.1016L825.469 87.5L826.891 82.7031H828.258L825.664 91H824.203L822.883 86.0312L822.562 84.6172L820.883 91H819.414ZM829.453 81.1641V79.5469H830.859V81.1641H829.453ZM829.453 91V82.7031H830.859V91H829.453ZM836.078 89.7422L836.281 90.9844C835.885 91.0677 835.531 91.1094 835.219 91.1094C834.708 91.1094 834.312 91.0286 834.031 90.8672C833.75 90.7057 833.552 90.4948 833.438 90.2344C833.323 89.9688 833.266 89.4141 833.266 88.5703V83.7969H832.234V82.7031H833.266V80.6484L834.664 79.8047V82.7031H836.078V83.7969H834.664V88.6484C834.664 89.0495 834.688 89.3073 834.734 89.4219C834.786 89.5365 834.867 89.6276 834.977 89.6953C835.091 89.763 835.253 89.7969 835.461 89.7969C835.617 89.7969 835.823 89.7786 836.078 89.7422ZM842.875 87.9609L844.258 88.1406C844.107 89.0938 843.719 89.8411 843.094 90.3828C842.474 90.9193 841.711 91.1875 840.805 91.1875C839.669 91.1875 838.755 90.8177 838.062 90.0781C837.375 89.3333 837.031 88.2682 837.031 86.8828C837.031 85.987 837.18 85.2031 837.477 84.5312C837.773 83.8594 838.224 83.3568 838.828 83.0234C839.438 82.6849 840.099 82.5156 840.812 82.5156C841.714 82.5156 842.451 82.7448 843.023 83.2031C843.596 83.6562 843.964 84.3021 844.125 85.1406L842.758 85.3516C842.628 84.7943 842.396 84.375 842.062 84.0938C841.734 83.8125 841.336 83.6719 840.867 83.6719C840.159 83.6719 839.583 83.9271 839.141 84.4375C838.698 84.9427 838.477 85.7448 838.477 86.8438C838.477 87.9583 838.69 88.7682 839.117 89.2734C839.544 89.7786 840.102 90.0312 840.789 90.0312C841.341 90.0312 841.802 89.862 842.172 89.5234C842.542 89.1849 842.776 88.6641 842.875 87.9609ZM845.461 91V79.5469H846.867V83.6562C847.523 82.8958 848.352 82.5156 849.352 82.5156C849.966 82.5156 850.5 82.638 850.953 82.8828C851.406 83.1224 851.729 83.4557 851.922 83.8828C852.12 84.3099 852.219 84.9297 852.219 85.7422V91H850.812V85.7422C850.812 85.0391 850.659 84.5286 850.352 84.2109C850.049 83.888 849.62 83.7266 849.062 83.7266C848.646 83.7266 848.253 83.8359 847.883 84.0547C847.518 84.2682 847.258 84.5599 847.102 84.9297C846.945 85.2995 846.867 85.8099 846.867 86.4609V91H845.461ZM854.438 83.6016L854.047 81.4219V79.5469H855.648V81.4219L855.297 83.6016H854.438ZM857.023 83.6016L856.641 81.4219V79.5469H858.242V81.4219L857.867 83.6016H857.023ZM867.461 85.9922L859.875 89.2344V87.8359L865.883 85.3438L859.875 82.875V81.4766L867.461 84.6797V85.9922Z" fill="#3E3E3D"/>
<g opacity="0.5">
<path d="M579.5 109.5H1159" stroke="#CDCCCB"/>
</g>
<rect width="579.5" height="49" transform="translate(579.5 110)" fill="white"/>
<path d="M596.539 140V131.703H597.805V132.961C598.128 132.372 598.424 131.984 598.695 131.797C598.971 131.609 599.273 131.516 599.602 131.516C600.076 131.516 600.557 131.667 601.047 131.969L600.562 133.273C600.219 133.07 599.875 132.969 599.531 132.969C599.224 132.969 598.948 133.062 598.703 133.25C598.458 133.432 598.284 133.688 598.18 134.016C598.023 134.516 597.945 135.062 597.945 135.656V140H596.539ZM601.359 135.852C601.359 134.315 601.786 133.177 602.641 132.438C603.354 131.823 604.224 131.516 605.25 131.516C606.391 131.516 607.323 131.891 608.047 132.641C608.771 133.385 609.133 134.417 609.133 135.734C609.133 136.802 608.971 137.643 608.648 138.258C608.331 138.867 607.865 139.341 607.25 139.68C606.641 140.018 605.974 140.188 605.25 140.188C604.089 140.188 603.148 139.815 602.43 139.07C601.716 138.326 601.359 137.253 601.359 135.852ZM602.805 135.852C602.805 136.914 603.036 137.711 603.5 138.242C603.964 138.768 604.547 139.031 605.25 139.031C605.948 139.031 606.529 138.766 606.992 138.234C607.456 137.703 607.688 136.893 607.688 135.805C607.688 134.779 607.453 134.003 606.984 133.477C606.521 132.945 605.943 132.68 605.25 132.68C604.547 132.68 603.964 132.943 603.5 133.469C603.036 133.995 602.805 134.789 602.805 135.852ZM610.758 140V128.547H612.164V140H610.758ZM620.031 137.328L621.484 137.508C621.255 138.357 620.831 139.016 620.211 139.484C619.591 139.953 618.799 140.188 617.836 140.188C616.622 140.188 615.659 139.815 614.945 139.07C614.237 138.32 613.883 137.271 613.883 135.922C613.883 134.526 614.242 133.443 614.961 132.672C615.68 131.901 616.612 131.516 617.758 131.516C618.867 131.516 619.773 131.893 620.477 132.648C621.18 133.404 621.531 134.466 621.531 135.836C621.531 135.919 621.529 136.044 621.523 136.211H615.336C615.388 137.122 615.646 137.82 616.109 138.305C616.573 138.789 617.151 139.031 617.844 139.031C618.359 139.031 618.799 138.896 619.164 138.625C619.529 138.354 619.818 137.922 620.031 137.328ZM615.414 135.055H620.047C619.984 134.357 619.807 133.833 619.516 133.484C619.068 132.943 618.487 132.672 617.773 132.672C617.128 132.672 616.583 132.888 616.141 133.32C615.703 133.753 615.461 134.331 615.414 135.055ZM630.656 133.266H623.094V131.953H630.656V133.266ZM630.656 136.742H623.094V135.43H630.656V136.742ZM632.672 132.602L632.281 130.422V128.547H633.883V130.422L633.531 132.602H632.672ZM635.258 132.602L634.875 130.422V128.547H636.477V130.422L636.102 132.602H635.258ZM637.727 137.523L639.117 137.305C639.195 137.862 639.411 138.289 639.766 138.586C640.125 138.883 640.625 139.031 641.266 139.031C641.911 139.031 642.391 138.901 642.703 138.641C643.016 138.375 643.172 138.065 643.172 137.711C643.172 137.393 643.034 137.143 642.758 136.961C642.565 136.836 642.086 136.677 641.32 136.484C640.289 136.224 639.573 136 639.172 135.812C638.776 135.62 638.474 135.357 638.266 135.023C638.062 134.685 637.961 134.312 637.961 133.906C637.961 133.536 638.044 133.195 638.211 132.883C638.383 132.565 638.615 132.302 638.906 132.094C639.125 131.932 639.422 131.797 639.797 131.688C640.177 131.573 640.583 131.516 641.016 131.516C641.667 131.516 642.237 131.609 642.727 131.797C643.221 131.984 643.586 132.24 643.82 132.562C644.055 132.88 644.216 133.307 644.305 133.844L642.93 134.031C642.867 133.604 642.685 133.271 642.383 133.031C642.086 132.792 641.664 132.672 641.117 132.672C640.471 132.672 640.01 132.779 639.734 132.992C639.458 133.206 639.32 133.456 639.32 133.742C639.32 133.924 639.378 134.089 639.492 134.234C639.607 134.385 639.786 134.51 640.031 134.609C640.172 134.661 640.586 134.781 641.273 134.969C642.268 135.234 642.961 135.453 643.352 135.625C643.747 135.792 644.057 136.036 644.281 136.359C644.505 136.682 644.617 137.083 644.617 137.562C644.617 138.031 644.479 138.474 644.203 138.891C643.932 139.302 643.539 139.622 643.023 139.852C642.508 140.076 641.924 140.188 641.273 140.188C640.195 140.188 639.372 139.964 638.805 139.516C638.242 139.068 637.883 138.404 637.727 137.523ZM647.82 140L645.281 131.703H646.734L648.055 136.492L648.547 138.273C648.568 138.185 648.711 137.615 648.977 136.562L650.297 131.703H651.742L652.984 136.516L653.398 138.102L653.875 136.5L655.297 131.703H656.664L654.07 140H652.609L651.289 135.031L650.969 133.617L649.289 140H647.82ZM657.859 130.164V128.547H659.266V130.164H657.859ZM657.859 140V131.703H659.266V140H657.859ZM664.484 138.742L664.688 139.984C664.292 140.068 663.938 140.109 663.625 140.109C663.115 140.109 662.719 140.029 662.438 139.867C662.156 139.706 661.958 139.495 661.844 139.234C661.729 138.969 661.672 138.414 661.672 137.57V132.797H660.641V131.703H661.672V129.648L663.07 128.805V131.703H664.484V132.797H663.07V137.648C663.07 138.049 663.094 138.307 663.141 138.422C663.193 138.536 663.273 138.628 663.383 138.695C663.497 138.763 663.659 138.797 663.867 138.797C664.023 138.797 664.229 138.779 664.484 138.742ZM671.281 136.961L672.664 137.141C672.513 138.094 672.125 138.841 671.5 139.383C670.88 139.919 670.117 140.188 669.211 140.188C668.076 140.188 667.161 139.818 666.469 139.078C665.781 138.333 665.438 137.268 665.438 135.883C665.438 134.987 665.586 134.203 665.883 133.531C666.18 132.859 666.63 132.357 667.234 132.023C667.844 131.685 668.505 131.516 669.219 131.516C670.12 131.516 670.857 131.745 671.43 132.203C672.003 132.656 672.37 133.302 672.531 134.141L671.164 134.352C671.034 133.794 670.802 133.375 670.469 133.094C670.141 132.812 669.742 132.672 669.273 132.672C668.565 132.672 667.99 132.927 667.547 133.438C667.104 133.943 666.883 134.745 666.883 135.844C666.883 136.958 667.096 137.768 667.523 138.273C667.951 138.779 668.508 139.031 669.195 139.031C669.747 139.031 670.208 138.862 670.578 138.523C670.948 138.185 671.182 137.664 671.281 136.961ZM673.867 140V128.547H675.273V132.656C675.93 131.896 676.758 131.516 677.758 131.516C678.372 131.516 678.906 131.638 679.359 131.883C679.812 132.122 680.135 132.456 680.328 132.883C680.526 133.31 680.625 133.93 680.625 134.742V140H679.219V134.742C679.219 134.039 679.065 133.529 678.758 133.211C678.456 132.888 678.026 132.727 677.469 132.727C677.052 132.727 676.659 132.836 676.289 133.055C675.924 133.268 675.664 133.56 675.508 133.93C675.352 134.299 675.273 134.81 675.273 135.461V140H673.867ZM682.844 132.602L682.453 130.422V128.547H684.055V130.422L683.703 132.602H682.844ZM685.43 132.602L685.047 130.422V128.547H686.648V130.422L686.273 132.602H685.43ZM695.602 143.367C694.826 142.388 694.169 141.242 693.633 139.93C693.096 138.617 692.828 137.258 692.828 135.852C692.828 134.612 693.029 133.424 693.43 132.289C693.898 130.971 694.622 129.659 695.602 128.352H696.609C695.979 129.435 695.562 130.208 695.359 130.672C695.042 131.391 694.792 132.141 694.609 132.922C694.385 133.896 694.273 134.875 694.273 135.859C694.273 138.365 695.052 140.867 696.609 143.367H695.602ZM697.719 135.852C697.719 134.315 698.146 133.177 699 132.438C699.714 131.823 700.583 131.516 701.609 131.516C702.75 131.516 703.682 131.891 704.406 132.641C705.13 133.385 705.492 134.417 705.492 135.734C705.492 136.802 705.331 137.643 705.008 138.258C704.69 138.867 704.224 139.341 703.609 139.68C703 140.018 702.333 140.188 701.609 140.188C700.448 140.188 699.508 139.815 698.789 139.07C698.076 138.326 697.719 137.253 697.719 135.852ZM699.164 135.852C699.164 136.914 699.396 137.711 699.859 138.242C700.323 138.768 700.906 139.031 701.609 139.031C702.307 139.031 702.888 138.766 703.352 138.234C703.815 137.703 704.047 136.893 704.047 135.805C704.047 134.779 703.812 134.003 703.344 133.477C702.88 132.945 702.302 132.68 701.609 132.68C700.906 132.68 700.323 132.943 699.859 133.469C699.396 133.995 699.164 134.789 699.164 135.852ZM708.445 140H707.141V128.547H708.547V132.633C709.141 131.888 709.898 131.516 710.82 131.516C711.331 131.516 711.812 131.62 712.266 131.828C712.724 132.031 713.099 132.32 713.391 132.695C713.688 133.065 713.919 133.513 714.086 134.039C714.253 134.565 714.336 135.128 714.336 135.727C714.336 137.148 713.984 138.247 713.281 139.023C712.578 139.799 711.734 140.188 710.75 140.188C709.771 140.188 709.003 139.779 708.445 138.961V140ZM708.43 135.789C708.43 136.784 708.565 137.503 708.836 137.945C709.279 138.669 709.878 139.031 710.633 139.031C711.247 139.031 711.779 138.766 712.227 138.234C712.674 137.698 712.898 136.901 712.898 135.844C712.898 134.76 712.682 133.961 712.25 133.445C711.823 132.93 711.305 132.672 710.695 132.672C710.081 132.672 709.549 132.94 709.102 133.477C708.654 134.008 708.43 134.779 708.43 135.789ZM716.023 140V128.547H717.43V140H716.023ZM719.625 130.164V128.547H721.031V130.164H719.625ZM719.625 140V131.703H721.031V140H719.625ZM722.922 140.688L724.289 140.891C724.346 141.312 724.505 141.62 724.766 141.812C725.115 142.073 725.591 142.203 726.195 142.203C726.846 142.203 727.349 142.073 727.703 141.812C728.057 141.552 728.297 141.188 728.422 140.719C728.495 140.432 728.529 139.831 728.523 138.914C727.909 139.638 727.143 140 726.227 140C725.086 140 724.203 139.589 723.578 138.766C722.953 137.943 722.641 136.956 722.641 135.805C722.641 135.013 722.784 134.284 723.07 133.617C723.357 132.945 723.771 132.427 724.312 132.062C724.859 131.698 725.5 131.516 726.234 131.516C727.214 131.516 728.021 131.911 728.656 132.703V131.703H729.953V138.875C729.953 140.167 729.82 141.081 729.555 141.617C729.294 142.159 728.878 142.586 728.305 142.898C727.737 143.211 727.036 143.367 726.203 143.367C725.214 143.367 724.414 143.143 723.805 142.695C723.195 142.253 722.901 141.583 722.922 140.688ZM724.086 135.703C724.086 136.792 724.302 137.586 724.734 138.086C725.167 138.586 725.708 138.836 726.359 138.836C727.005 138.836 727.547 138.589 727.984 138.094C728.422 137.594 728.641 136.812 728.641 135.75C728.641 134.734 728.414 133.969 727.961 133.453C727.513 132.938 726.971 132.68 726.336 132.68C725.711 132.68 725.18 132.935 724.742 133.445C724.305 133.951 724.086 134.703 724.086 135.703ZM737.5 138.977C736.979 139.419 736.477 139.732 735.992 139.914C735.513 140.096 734.997 140.188 734.445 140.188C733.534 140.188 732.833 139.966 732.344 139.523C731.854 139.076 731.609 138.505 731.609 137.812C731.609 137.406 731.701 137.036 731.883 136.703C732.07 136.365 732.312 136.094 732.609 135.891C732.911 135.688 733.25 135.534 733.625 135.43C733.901 135.357 734.318 135.286 734.875 135.219C736.01 135.083 736.846 134.922 737.383 134.734C737.388 134.542 737.391 134.419 737.391 134.367C737.391 133.794 737.258 133.391 736.992 133.156C736.633 132.839 736.099 132.68 735.391 132.68C734.729 132.68 734.24 132.797 733.922 133.031C733.609 133.26 733.378 133.669 733.227 134.258L731.852 134.07C731.977 133.482 732.182 133.008 732.469 132.648C732.755 132.284 733.169 132.005 733.711 131.812C734.253 131.615 734.88 131.516 735.594 131.516C736.302 131.516 736.878 131.599 737.32 131.766C737.763 131.932 738.089 132.143 738.297 132.398C738.505 132.648 738.651 132.966 738.734 133.352C738.781 133.591 738.805 134.023 738.805 134.648V136.523C738.805 137.831 738.833 138.659 738.891 139.008C738.953 139.352 739.073 139.682 739.25 140H737.781C737.635 139.708 737.542 139.367 737.5 138.977ZM737.383 135.836C736.872 136.044 736.107 136.221 735.086 136.367C734.508 136.451 734.099 136.544 733.859 136.648C733.62 136.753 733.435 136.906 733.305 137.109C733.174 137.307 733.109 137.529 733.109 137.773C733.109 138.148 733.25 138.461 733.531 138.711C733.818 138.961 734.234 139.086 734.781 139.086C735.323 139.086 735.805 138.969 736.227 138.734C736.648 138.495 736.958 138.169 737.156 137.758C737.307 137.44 737.383 136.971 737.383 136.352V135.836ZM744.062 138.742L744.266 139.984C743.87 140.068 743.516 140.109 743.203 140.109C742.693 140.109 742.297 140.029 742.016 139.867C741.734 139.706 741.536 139.495 741.422 139.234C741.307 138.969 741.25 138.414 741.25 137.57V132.797H740.219V131.703H741.25V129.648L742.648 128.805V131.703H744.062V132.797H742.648V137.648C742.648 138.049 742.672 138.307 742.719 138.422C742.771 138.536 742.852 138.628 742.961 138.695C743.076 138.763 743.237 138.797 743.445 138.797C743.602 138.797 743.807 138.779 744.062 138.742ZM744.922 135.852C744.922 134.315 745.349 133.177 746.203 132.438C746.917 131.823 747.786 131.516 748.812 131.516C749.953 131.516 750.885 131.891 751.609 132.641C752.333 133.385 752.695 134.417 752.695 135.734C752.695 136.802 752.534 137.643 752.211 138.258C751.893 138.867 751.427 139.341 750.812 139.68C750.203 140.018 749.536 140.188 748.812 140.188C747.651 140.188 746.711 139.815 745.992 139.07C745.279 138.326 744.922 137.253 744.922 135.852ZM746.367 135.852C746.367 136.914 746.599 137.711 747.062 138.242C747.526 138.768 748.109 139.031 748.812 139.031C749.51 139.031 750.091 138.766 750.555 138.234C751.018 137.703 751.25 136.893 751.25 135.805C751.25 134.779 751.016 134.003 750.547 133.477C750.083 132.945 749.505 132.68 748.812 132.68C748.109 132.68 747.526 132.943 747.062 133.469C746.599 133.995 746.367 134.789 746.367 135.852ZM754.359 130.164V128.547H755.766V130.164H754.359ZM754.359 140V131.703H755.766V140H754.359ZM757.898 140V131.703H759.164V132.961C759.487 132.372 759.784 131.984 760.055 131.797C760.331 131.609 760.633 131.516 760.961 131.516C761.435 131.516 761.917 131.667 762.406 131.969L761.922 133.273C761.578 133.07 761.234 132.969 760.891 132.969C760.583 132.969 760.307 133.062 760.062 133.25C759.818 133.432 759.643 133.688 759.539 134.016C759.383 134.516 759.305 135.062 759.305 135.656V140H757.898ZM768.922 137.328L770.375 137.508C770.146 138.357 769.721 139.016 769.102 139.484C768.482 139.953 767.69 140.188 766.727 140.188C765.513 140.188 764.549 139.815 763.836 139.07C763.128 138.32 762.773 137.271 762.773 135.922C762.773 134.526 763.133 133.443 763.852 132.672C764.57 131.901 765.503 131.516 766.648 131.516C767.758 131.516 768.664 131.893 769.367 132.648C770.07 133.404 770.422 134.466 770.422 135.836C770.422 135.919 770.419 136.044 770.414 136.211H764.227C764.279 137.122 764.536 137.82 765 138.305C765.464 138.789 766.042 139.031 766.734 139.031C767.25 139.031 767.69 138.896 768.055 138.625C768.419 138.354 768.708 137.922 768.922 137.328ZM764.305 135.055H768.938C768.875 134.357 768.698 133.833 768.406 133.484C767.958 132.943 767.378 132.672 766.664 132.672C766.018 132.672 765.474 132.888 765.031 133.32C764.594 133.753 764.352 134.331 764.305 135.055ZM776.039 137.523L777.43 137.305C777.508 137.862 777.724 138.289 778.078 138.586C778.438 138.883 778.938 139.031 779.578 139.031C780.224 139.031 780.703 138.901 781.016 138.641C781.328 138.375 781.484 138.065 781.484 137.711C781.484 137.393 781.346 137.143 781.07 136.961C780.878 136.836 780.398 136.677 779.633 136.484C778.602 136.224 777.885 136 777.484 135.812C777.089 135.62 776.786 135.357 776.578 135.023C776.375 134.685 776.273 134.312 776.273 133.906C776.273 133.536 776.357 133.195 776.523 132.883C776.695 132.565 776.927 132.302 777.219 132.094C777.438 131.932 777.734 131.797 778.109 131.688C778.49 131.573 778.896 131.516 779.328 131.516C779.979 131.516 780.549 131.609 781.039 131.797C781.534 131.984 781.898 132.24 782.133 132.562C782.367 132.88 782.529 133.307 782.617 133.844L781.242 134.031C781.18 133.604 780.997 133.271 780.695 133.031C780.398 132.792 779.977 132.672 779.43 132.672C778.784 132.672 778.323 132.779 778.047 132.992C777.771 133.206 777.633 133.456 777.633 133.742C777.633 133.924 777.69 134.089 777.805 134.234C777.919 134.385 778.099 134.51 778.344 134.609C778.484 134.661 778.898 134.781 779.586 134.969C780.581 135.234 781.273 135.453 781.664 135.625C782.06 135.792 782.37 136.036 782.594 136.359C782.818 136.682 782.93 137.083 782.93 137.562C782.93 138.031 782.792 138.474 782.516 138.891C782.245 139.302 781.852 139.622 781.336 139.852C780.82 140.076 780.237 140.188 779.586 140.188C778.508 140.188 777.685 139.964 777.117 139.516C776.555 139.068 776.195 138.404 776.039 137.523ZM784.609 130.164V128.547H786.016V130.164H784.609ZM784.609 140V131.703H786.016V140H784.609ZM798.031 136.961L799.414 137.141C799.263 138.094 798.875 138.841 798.25 139.383C797.63 139.919 796.867 140.188 795.961 140.188C794.826 140.188 793.911 139.818 793.219 139.078C792.531 138.333 792.188 137.268 792.188 135.883C792.188 134.987 792.336 134.203 792.633 133.531C792.93 132.859 793.38 132.357 793.984 132.023C794.594 131.685 795.255 131.516 795.969 131.516C796.87 131.516 797.607 131.745 798.18 132.203C798.753 132.656 799.12 133.302 799.281 134.141L797.914 134.352C797.784 133.794 797.552 133.375 797.219 133.094C796.891 132.812 796.492 132.672 796.023 132.672C795.315 132.672 794.74 132.927 794.297 133.438C793.854 133.943 793.633 134.745 793.633 135.844C793.633 136.958 793.846 137.768 794.273 138.273C794.701 138.779 795.258 139.031 795.945 139.031C796.497 139.031 796.958 138.862 797.328 138.523C797.698 138.185 797.932 137.664 798.031 136.961ZM806.055 140V138.781C805.409 139.719 804.531 140.188 803.422 140.188C802.932 140.188 802.474 140.094 802.047 139.906C801.625 139.719 801.31 139.484 801.102 139.203C800.898 138.917 800.755 138.568 800.672 138.156C800.615 137.88 800.586 137.443 800.586 136.844V131.703H801.992V136.305C801.992 137.039 802.021 137.534 802.078 137.789C802.167 138.159 802.354 138.451 802.641 138.664C802.927 138.872 803.281 138.977 803.703 138.977C804.125 138.977 804.521 138.87 804.891 138.656C805.26 138.438 805.521 138.143 805.672 137.773C805.828 137.398 805.906 136.857 805.906 136.148V131.703H807.312V140H806.055ZM808.961 137.523L810.352 137.305C810.43 137.862 810.646 138.289 811 138.586C811.359 138.883 811.859 139.031 812.5 139.031C813.146 139.031 813.625 138.901 813.938 138.641C814.25 138.375 814.406 138.065 814.406 137.711C814.406 137.393 814.268 137.143 813.992 136.961C813.799 136.836 813.32 136.677 812.555 136.484C811.523 136.224 810.807 136 810.406 135.812C810.01 135.62 809.708 135.357 809.5 135.023C809.297 134.685 809.195 134.312 809.195 133.906C809.195 133.536 809.279 133.195 809.445 132.883C809.617 132.565 809.849 132.302 810.141 132.094C810.359 131.932 810.656 131.797 811.031 131.688C811.411 131.573 811.818 131.516 812.25 131.516C812.901 131.516 813.471 131.609 813.961 131.797C814.456 131.984 814.82 132.24 815.055 132.562C815.289 132.88 815.451 133.307 815.539 133.844L814.164 134.031C814.102 133.604 813.919 133.271 813.617 133.031C813.32 132.792 812.898 132.672 812.352 132.672C811.706 132.672 811.245 132.779 810.969 132.992C810.693 133.206 810.555 133.456 810.555 133.742C810.555 133.924 810.612 134.089 810.727 134.234C810.841 134.385 811.021 134.51 811.266 134.609C811.406 134.661 811.82 134.781 812.508 134.969C813.503 135.234 814.195 135.453 814.586 135.625C814.982 135.792 815.292 136.036 815.516 136.359C815.74 136.682 815.852 137.083 815.852 137.562C815.852 138.031 815.714 138.474 815.438 138.891C815.167 139.302 814.773 139.622 814.258 139.852C813.742 140.076 813.159 140.188 812.508 140.188C811.43 140.188 810.607 139.964 810.039 139.516C809.477 139.068 809.117 138.404 808.961 137.523ZM820.594 138.742L820.797 139.984C820.401 140.068 820.047 140.109 819.734 140.109C819.224 140.109 818.828 140.029 818.547 139.867C818.266 139.706 818.068 139.495 817.953 139.234C817.839 138.969 817.781 138.414 817.781 137.57V132.797H816.75V131.703H817.781V129.648L819.18 128.805V131.703H820.594V132.797H819.18V137.648C819.18 138.049 819.203 138.307 819.25 138.422C819.302 138.536 819.383 138.628 819.492 138.695C819.607 138.763 819.768 138.797 819.977 138.797C820.133 138.797 820.339 138.779 820.594 138.742ZM821.453 135.852C821.453 134.315 821.88 133.177 822.734 132.438C823.448 131.823 824.318 131.516 825.344 131.516C826.484 131.516 827.417 131.891 828.141 132.641C828.865 133.385 829.227 134.417 829.227 135.734C829.227 136.802 829.065 137.643 828.742 138.258C828.424 138.867 827.958 139.341 827.344 139.68C826.734 140.018 826.068 140.188 825.344 140.188C824.182 140.188 823.242 139.815 822.523 139.07C821.81 138.326 821.453 137.253 821.453 135.852ZM822.898 135.852C822.898 136.914 823.13 137.711 823.594 138.242C824.057 138.768 824.641 139.031 825.344 139.031C826.042 139.031 826.622 138.766 827.086 138.234C827.549 137.703 827.781 136.893 827.781 135.805C827.781 134.779 827.547 134.003 827.078 133.477C826.615 132.945 826.036 132.68 825.344 132.68C824.641 132.68 824.057 132.943 823.594 133.469C823.13 133.995 822.898 134.789 822.898 135.852ZM830.883 140V131.703H832.141V132.867C832.401 132.461 832.747 132.135 833.18 131.891C833.612 131.641 834.104 131.516 834.656 131.516C835.271 131.516 835.773 131.643 836.164 131.898C836.56 132.154 836.839 132.51 837 132.969C837.656 132 838.51 131.516 839.562 131.516C840.385 131.516 841.018 131.745 841.461 132.203C841.904 132.656 842.125 133.357 842.125 134.305V140H840.727V134.773C840.727 134.211 840.68 133.807 840.586 133.562C840.497 133.312 840.333 133.112 840.094 132.961C839.854 132.81 839.573 132.734 839.25 132.734C838.667 132.734 838.182 132.93 837.797 133.32C837.411 133.706 837.219 134.326 837.219 135.18V140H835.812V134.609C835.812 133.984 835.698 133.516 835.469 133.203C835.24 132.891 834.865 132.734 834.344 132.734C833.948 132.734 833.581 132.839 833.242 133.047C832.909 133.255 832.667 133.56 832.516 133.961C832.365 134.362 832.289 134.94 832.289 135.695V140H830.883ZM854.078 136.961L855.461 137.141C855.31 138.094 854.922 138.841 854.297 139.383C853.677 139.919 852.914 140.188 852.008 140.188C850.872 140.188 849.958 139.818 849.266 139.078C848.578 138.333 848.234 137.268 848.234 135.883C848.234 134.987 848.383 134.203 848.68 133.531C848.977 132.859 849.427 132.357 850.031 132.023C850.641 131.685 851.302 131.516 852.016 131.516C852.917 131.516 853.654 131.745 854.227 132.203C854.799 132.656 855.167 133.302 855.328 134.141L853.961 134.352C853.831 133.794 853.599 133.375 853.266 133.094C852.938 132.812 852.539 132.672 852.07 132.672C851.362 132.672 850.786 132.927 850.344 133.438C849.901 133.943 849.68 134.745 849.68 135.844C849.68 136.958 849.893 137.768 850.32 138.273C850.747 138.779 851.305 139.031 851.992 139.031C852.544 139.031 853.005 138.862 853.375 138.523C853.745 138.185 853.979 137.664 854.078 136.961ZM856.141 135.852C856.141 134.315 856.568 133.177 857.422 132.438C858.135 131.823 859.005 131.516 860.031 131.516C861.172 131.516 862.104 131.891 862.828 132.641C863.552 133.385 863.914 134.417 863.914 135.734C863.914 136.802 863.753 137.643 863.43 138.258C863.112 138.867 862.646 139.341 862.031 139.68C861.422 140.018 860.755 140.188 860.031 140.188C858.87 140.188 857.93 139.815 857.211 139.07C856.497 138.326 856.141 137.253 856.141 135.852ZM857.586 135.852C857.586 136.914 857.818 137.711 858.281 138.242C858.745 138.768 859.328 139.031 860.031 139.031C860.729 139.031 861.31 138.766 861.773 138.234C862.237 137.703 862.469 136.893 862.469 135.805C862.469 134.779 862.234 134.003 861.766 133.477C861.302 132.945 860.724 132.68 860.031 132.68C859.328 132.68 858.745 132.943 858.281 133.469C857.818 133.995 857.586 134.789 857.586 135.852ZM865.57 140V131.703H866.828V132.867C867.089 132.461 867.435 132.135 867.867 131.891C868.299 131.641 868.792 131.516 869.344 131.516C869.958 131.516 870.461 131.643 870.852 131.898C871.247 132.154 871.526 132.51 871.688 132.969C872.344 132 873.198 131.516 874.25 131.516C875.073 131.516 875.706 131.745 876.148 132.203C876.591 132.656 876.812 133.357 876.812 134.305V140H875.414V134.773C875.414 134.211 875.367 133.807 875.273 133.562C875.185 133.312 875.021 133.112 874.781 132.961C874.542 132.81 874.26 132.734 873.938 132.734C873.354 132.734 872.87 132.93 872.484 133.32C872.099 133.706 871.906 134.326 871.906 135.18V140H870.5V134.609C870.5 133.984 870.385 133.516 870.156 133.203C869.927 132.891 869.552 132.734 869.031 132.734C868.635 132.734 868.268 132.839 867.93 133.047C867.596 133.255 867.354 133.56 867.203 133.961C867.052 134.362 866.977 134.94 866.977 135.695V140H865.57ZM878.898 143.18V131.703H880.18V132.781C880.482 132.359 880.823 132.044 881.203 131.836C881.583 131.622 882.044 131.516 882.586 131.516C883.294 131.516 883.919 131.698 884.461 132.062C885.003 132.427 885.411 132.943 885.688 133.609C885.964 134.271 886.102 134.997 886.102 135.789C886.102 136.638 885.948 137.404 885.641 138.086C885.339 138.763 884.896 139.284 884.312 139.648C883.734 140.008 883.125 140.188 882.484 140.188C882.016 140.188 881.594 140.089 881.219 139.891C880.849 139.693 880.544 139.443 880.305 139.141V143.18H878.898ZM880.172 135.898C880.172 136.966 880.388 137.755 880.82 138.266C881.253 138.776 881.776 139.031 882.391 139.031C883.016 139.031 883.549 138.768 883.992 138.242C884.44 137.711 884.664 136.891 884.664 135.781C884.664 134.724 884.445 133.932 884.008 133.406C883.576 132.88 883.057 132.617 882.453 132.617C881.854 132.617 881.323 132.898 880.859 133.461C880.401 134.018 880.172 134.831 880.172 135.898ZM887.281 135.852C887.281 134.315 887.708 133.177 888.562 132.438C889.276 131.823 890.146 131.516 891.172 131.516C892.312 131.516 893.245 131.891 893.969 132.641C894.693 133.385 895.055 134.417 895.055 135.734C895.055 136.802 894.893 137.643 894.57 138.258C894.253 138.867 893.786 139.341 893.172 139.68C892.562 140.018 891.896 140.188 891.172 140.188C890.01 140.188 889.07 139.815 888.352 139.07C887.638 138.326 887.281 137.253 887.281 135.852ZM888.727 135.852C888.727 136.914 888.958 137.711 889.422 138.242C889.885 138.768 890.469 139.031 891.172 139.031C891.87 139.031 892.451 138.766 892.914 138.234C893.378 137.703 893.609 136.893 893.609 135.805C893.609 134.779 893.375 134.003 892.906 133.477C892.443 132.945 891.865 132.68 891.172 132.68C890.469 132.68 889.885 132.943 889.422 133.469C888.958 133.995 888.727 134.789 888.727 135.852ZM896.711 140V131.703H897.977V132.883C898.586 131.971 899.466 131.516 900.617 131.516C901.117 131.516 901.576 131.607 901.992 131.789C902.414 131.966 902.729 132.201 902.938 132.492C903.146 132.784 903.292 133.13 903.375 133.531C903.427 133.792 903.453 134.247 903.453 134.898V140H902.047V134.953C902.047 134.38 901.992 133.953 901.883 133.672C901.773 133.385 901.578 133.159 901.297 132.992C901.021 132.82 900.695 132.734 900.32 132.734C899.721 132.734 899.203 132.924 898.766 133.305C898.333 133.685 898.117 134.406 898.117 135.469V140H896.711ZM911.297 137.328L912.75 137.508C912.521 138.357 912.096 139.016 911.477 139.484C910.857 139.953 910.065 140.188 909.102 140.188C907.888 140.188 906.924 139.815 906.211 139.07C905.503 138.32 905.148 137.271 905.148 135.922C905.148 134.526 905.508 133.443 906.227 132.672C906.945 131.901 907.878 131.516 909.023 131.516C910.133 131.516 911.039 131.893 911.742 132.648C912.445 133.404 912.797 134.466 912.797 135.836C912.797 135.919 912.794 136.044 912.789 136.211H906.602C906.654 137.122 906.911 137.82 907.375 138.305C907.839 138.789 908.417 139.031 909.109 139.031C909.625 139.031 910.065 138.896 910.43 138.625C910.794 138.354 911.083 137.922 911.297 137.328ZM906.68 135.055H911.312C911.25 134.357 911.073 133.833 910.781 133.484C910.333 132.943 909.753 132.672 909.039 132.672C908.393 132.672 907.849 132.888 907.406 133.32C906.969 133.753 906.727 134.331 906.68 135.055ZM914.523 140V131.703H915.789V132.883C916.398 131.971 917.279 131.516 918.43 131.516C918.93 131.516 919.388 131.607 919.805 131.789C920.227 131.966 920.542 132.201 920.75 132.492C920.958 132.784 921.104 133.13 921.188 133.531C921.24 133.792 921.266 134.247 921.266 134.898V140H919.859V134.953C919.859 134.38 919.805 133.953 919.695 133.672C919.586 133.385 919.391 133.159 919.109 132.992C918.833 132.82 918.508 132.734 918.133 132.734C917.534 132.734 917.016 132.924 916.578 133.305C916.146 133.685 915.93 134.406 915.93 135.469V140H914.523ZM926.5 138.742L926.703 139.984C926.307 140.068 925.953 140.109 925.641 140.109C925.13 140.109 924.734 140.029 924.453 139.867C924.172 139.706 923.974 139.495 923.859 139.234C923.745 138.969 923.688 138.414 923.688 137.57V132.797H922.656V131.703H923.688V129.648L925.086 128.805V131.703H926.5V132.797H925.086V137.648C925.086 138.049 925.109 138.307 925.156 138.422C925.208 138.536 925.289 138.628 925.398 138.695C925.513 138.763 925.674 138.797 925.883 138.797C926.039 138.797 926.245 138.779 926.5 138.742ZM928.805 143.367H927.797C929.354 140.867 930.133 138.365 930.133 135.859C930.133 134.88 930.021 133.909 929.797 132.945C929.62 132.164 929.372 131.414 929.055 130.695C928.852 130.227 928.432 129.445 927.797 128.352H928.805C929.784 129.659 930.508 130.971 930.977 132.289C931.378 133.424 931.578 134.612 931.578 135.852C931.578 137.258 931.307 138.617 930.766 139.93C930.229 141.242 929.576 142.388 928.805 143.367Z" fill="#3E3E3D"/>
<g opacity="0.5">
<path d="M579.5 158.5H1159" stroke="#CDCCCB"/>
</g>
</g>
<rect x="0.5" y="0.5" width="1158" height="158" rx="7.5" stroke="#CDCCCB"/>
<defs>
<clipPath id="clip0_301_41719">
<rect width="1159" height="159" rx="8" fill="white"/>
</clipPath>
</defs>
</svg>
