<svg viewBox="0 0 20 20" fill="none" xmlns="http://www.w3.org/2000/svg">
<path d="M1.66683 17.5C1.43072 17.5 1.2328 17.4201 1.07308 17.2604C0.913357 17.1007 0.833496 16.9028 0.833496 16.6667C0.833496 16.4306 0.913357 16.2326 1.07308 16.0729C1.2328 15.9132 1.43072 15.8333 1.66683 15.8333H18.3335C18.5696 15.8333 18.7675 15.9132 18.9272 16.0729C19.087 16.2326 19.1668 16.4306 19.1668 16.6667C19.1668 16.9028 19.087 17.1007 18.9272 17.2604C18.7675 17.4201 18.5696 17.5 18.3335 17.5H1.66683ZM3.3335 15C2.87516 15 2.4828 14.8368 2.15641 14.5104C1.83002 14.184 1.66683 13.7917 1.66683 13.3333V4.16667C1.66683 3.70833 1.83002 3.31597 2.15641 2.98958C2.4828 2.66319 2.87516 2.5 3.3335 2.5H16.6668C17.1252 2.5 17.5175 2.66319 17.8439 2.98958C18.1703 3.31597 18.3335 3.70833 18.3335 4.16667V13.3333C18.3335 13.7917 18.1703 14.184 17.8439 14.5104C17.5175 14.8368 17.1252 15 16.6668 15H3.3335Z" fill="currentColor"/>
</svg>