<svg viewBox="0 0 20 20" fill="none" xmlns="http://www.w3.org/2000/svg">
<path d="M9.25 11.5H10.75V9.25H13V7.75H10.75V5.5H9.25V7.75H7V9.25H9.25V11.5ZM10 16.0208C11.6528 14.5347 12.8993 13.1667 13.7396 11.9167C14.5799 10.6667 15 9.54861 15 8.5625C15 7.10417 14.5243 5.89583 13.5729 4.9375C12.6215 3.97917 11.4306 3.5 10 3.5C8.56944 3.5 7.37847 3.97917 6.42708 4.9375C5.47569 5.89583 5 7.10417 5 8.5625C5 9.54861 5.42014 10.6667 6.26042 11.9167C7.10069 13.1667 8.34722 14.5347 10 16.0208ZM10 18C7.81986 16.179 6.19146 14.4877 5.11479 12.926C4.03826 11.3642 3.5 9.90972 3.5 8.5625C3.5 6.70139 4.11806 5.14236 5.35417 3.88542C6.59028 2.62847 8.13542 2 9.98958 2C11.8438 2 13.3924 2.62847 14.6354 3.88542C15.8785 5.14236 16.5 6.70139 16.5 8.5625C16.5 9.90972 15.9653 11.3611 14.8958 12.9167C13.8264 14.4722 12.1944 16.1667 10 18Z" fill="currentColor"/>
</svg>
