<svg viewBox="0 0 20 20" fill="none" xmlns="http://www.w3.org/2000/svg">
<path d="M8.33341 9.99998C7.41675 9.99998 6.63203 9.67359 5.97925 9.02081C5.32647 8.36803 5.00008 7.58331 5.00008 6.66665C5.00008 5.74998 5.32647 4.96526 5.97925 4.31248C6.63203 3.6597 7.41675 3.33331 8.33341 3.33331C9.25008 3.33331 10.0348 3.6597 10.6876 4.31248C11.3404 4.96526 11.6667 5.74998 11.6667 6.66665C11.6667 7.58331 11.3404 8.36803 10.6876 9.02081C10.0348 9.67359 9.25008 9.99998 8.33341 9.99998ZM1.66675 15V14.3333C1.66675 13.875 1.7848 13.4444 2.02091 13.0416C2.25703 12.6389 2.58341 12.3333 3.00008 12.125C3.80564 11.7222 4.63897 11.4062 5.50008 11.1771C6.36119 10.9479 7.24314 10.8333 8.14591 10.8333C8.38203 10.8333 8.57994 10.9166 8.73966 11.0833C8.89939 11.25 8.97925 11.4514 8.97925 11.6875C8.97925 11.9236 8.89939 12.1215 8.73966 12.2812C8.57994 12.441 8.38203 12.5208 8.14591 12.5208C7.36814 12.5208 6.61466 12.618 5.8855 12.8125C5.15633 13.0069 4.44453 13.2778 3.75008 13.625C3.61119 13.6944 3.50703 13.7916 3.43758 13.9166C3.36814 14.0416 3.33341 14.1805 3.33341 14.3333V15H8.14591C8.38203 15 8.57994 15.0798 8.73966 15.2396C8.89939 15.3993 8.97925 15.5972 8.97925 15.8333C8.97925 16.0694 8.89939 16.2673 8.73966 16.4271C8.57994 16.5868 8.38203 16.6666 8.14591 16.6666H3.33341C2.87508 16.6666 2.48272 16.5035 2.15633 16.1771C1.82994 15.8507 1.66675 15.4583 1.66675 15ZM13.2084 16.8333L13.0834 16.25C12.9167 16.1805 12.7605 16.1076 12.6147 16.0312C12.4688 15.9548 12.3195 15.8611 12.1667 15.75L11.5626 15.9375C11.382 15.993 11.2049 15.9861 11.0313 15.9166C10.8577 15.8472 10.7223 15.7361 10.6251 15.5833L10.4584 15.2916C10.3612 15.125 10.3265 14.9444 10.3542 14.75C10.382 14.5555 10.4723 14.3958 10.6251 14.2708L11.0834 13.875C11.0556 13.6805 11.0417 13.5 11.0417 13.3333C11.0417 13.1666 11.0556 12.9861 11.0834 12.7916L10.6251 12.3958C10.4723 12.2708 10.382 12.1146 10.3542 11.9271C10.3265 11.7396 10.3612 11.5625 10.4584 11.3958L10.6459 11.0833C10.7431 10.9305 10.8751 10.8194 11.0417 10.75C11.2084 10.6805 11.382 10.6736 11.5626 10.7291L12.1667 10.9166C12.3195 10.8055 12.4688 10.7118 12.6147 10.6354C12.7605 10.559 12.9167 10.4861 13.0834 10.4166L13.2084 9.81248C13.2501 9.61803 13.3438 9.46178 13.4897 9.34373C13.6355 9.22567 13.8056 9.16665 14.0001 9.16665H14.3334C14.5279 9.16665 14.698 9.22915 14.8438 9.35415C14.9897 9.47915 15.0834 9.63887 15.1251 9.83331L15.2501 10.4166C15.4167 10.4861 15.573 10.5625 15.7188 10.6458C15.8647 10.7291 16.014 10.8333 16.1667 10.9583L16.7292 10.7708C16.9237 10.7014 17.1112 10.7014 17.2917 10.7708C17.4723 10.8403 17.6112 10.9583 17.7084 11.125L17.8751 11.4166C17.9723 11.5833 18.007 11.7639 17.9792 11.9583C17.9515 12.1528 17.8612 12.3125 17.7084 12.4375L17.2501 12.8333C17.2779 13 17.2917 13.1736 17.2917 13.3541C17.2917 13.5347 17.2779 13.7083 17.2501 13.875L17.7084 14.2708C17.8612 14.3958 17.9515 14.5521 17.9792 14.7396C18.007 14.9271 17.9723 15.1041 17.8751 15.2708L17.6876 15.5833C17.5904 15.7361 17.4584 15.8472 17.2917 15.9166C17.1251 15.9861 16.9515 15.993 16.7709 15.9375L16.1667 15.75C16.014 15.8611 15.8647 15.9548 15.7188 16.0312C15.573 16.1076 15.4167 16.1805 15.2501 16.25L15.1251 16.8541C15.0834 17.0486 14.9897 17.2048 14.8438 17.3229C14.698 17.441 14.5279 17.5 14.3334 17.5H14.0001C13.8056 17.5 13.6355 17.4375 13.4897 17.3125C13.3438 17.1875 13.2501 17.0278 13.2084 16.8333ZM14.1667 15C14.6251 15 15.0174 14.8368 15.3438 14.5104C15.6702 14.184 15.8334 13.7916 15.8334 13.3333C15.8334 12.875 15.6702 12.4826 15.3438 12.1562C15.0174 11.8298 14.6251 11.6666 14.1667 11.6666C13.7084 11.6666 13.3161 11.8298 12.9897 12.1562C12.6633 12.4826 12.5001 12.875 12.5001 13.3333C12.5001 13.7916 12.6633 14.184 12.9897 14.5104C13.3161 14.8368 13.7084 15 14.1667 15ZM8.33341 8.33331C8.79175 8.33331 9.18411 8.17012 9.5105 7.84373C9.83689 7.51734 10.0001 7.12498 10.0001 6.66665C10.0001 6.20831 9.83689 5.81595 9.5105 5.48956C9.18411 5.16317 8.79175 4.99998 8.33341 4.99998C7.87508 4.99998 7.48272 5.16317 7.15633 5.48956C6.82994 5.81595 6.66675 6.20831 6.66675 6.66665C6.66675 7.12498 6.82994 7.51734 7.15633 7.84373C7.48272 8.17012 7.87508 8.33331 8.33341 8.33331Z" fill="currentColor"/>
</svg>