<svg width="1159" height="212" viewBox="0 0 1159 212" fill="none" xmlns="http://www.w3.org/2000/svg">
<path d="M8 0.5H1151C1155.14 0.5 1158.5 3.85787 1158.5 8V204C1158.5 208.142 1155.14 211.5 1151 211.5H8C3.85787 211.5 0.5 208.142 0.5 204V8C0.5 3.85786 3.85786 0.5 8 0.5Z" stroke="#CDCCCB"/>
<path d="M34.208 49C33.92 49 33.696 48.9253 33.536 48.776C33.3867 48.616 33.312 48.392 33.312 48.104V38.616C33.312 38.328 33.3867 38.1093 33.536 37.96C33.696 37.8 33.92 37.72 34.208 37.72H37.296C39.152 37.72 40.5813 38.2053 41.584 39.176C42.5973 40.136 43.104 41.528 43.104 43.352C43.104 44.2587 42.976 45.064 42.72 45.768C42.464 46.472 42.0853 47.064 41.584 47.544C41.0933 48.0133 40.4907 48.376 39.776 48.632C39.0613 48.8773 38.2347 49 37.296 49H34.208ZM34.976 47.608H37.2C37.904 47.608 38.512 47.5227 39.024 47.352C39.5467 47.1707 39.984 46.904 40.336 46.552C40.688 46.2 40.9493 45.7573 41.12 45.224C41.2907 44.6907 41.376 44.0667 41.376 43.352C41.376 41.9333 41.024 40.872 40.32 40.168C39.6267 39.464 38.5867 39.112 37.2 39.112H34.976V47.608ZM48.3156 49.144C47.4623 49.144 46.7263 48.984 46.1076 48.664C45.4996 48.3333 45.025 47.8693 44.6836 47.272C44.353 46.664 44.1876 45.944 44.1876 45.112C44.1876 44.3013 44.353 43.592 44.6836 42.984C45.0143 42.376 45.4676 41.9013 46.0436 41.56C46.6196 41.2187 47.2756 41.048 48.0116 41.048C48.5556 41.048 49.041 41.1387 49.4676 41.32C49.8943 41.4907 50.257 41.7467 50.5556 42.088C50.865 42.4187 51.0943 42.824 51.2436 43.304C51.4036 43.784 51.4836 44.3227 51.4836 44.92C51.4836 45.1013 51.4303 45.24 51.3236 45.336C51.217 45.4213 51.057 45.464 50.8436 45.464H45.4676V44.472H50.3956L50.1236 44.696C50.1236 44.1627 50.0436 43.7093 49.8836 43.336C49.7343 42.9627 49.505 42.68 49.1956 42.488C48.897 42.2853 48.5236 42.184 48.0756 42.184C47.5743 42.184 47.1476 42.3013 46.7956 42.536C46.4543 42.7707 46.193 43.096 46.0116 43.512C45.8303 43.928 45.7396 44.4133 45.7396 44.968V45.064C45.7396 46.0027 45.9583 46.712 46.3956 47.192C46.8436 47.6613 47.489 47.896 48.3316 47.896C48.6516 47.896 48.9876 47.8533 49.3396 47.768C49.7023 47.6827 50.0436 47.5387 50.3636 47.336C50.545 47.2293 50.705 47.1813 50.8436 47.192C50.993 47.2027 51.1103 47.2507 51.1956 47.336C51.2916 47.4213 51.3503 47.528 51.3716 47.656C51.393 47.784 51.3716 47.9173 51.3076 48.056C51.2436 48.184 51.1316 48.3013 50.9716 48.408C50.609 48.6533 50.1876 48.84 49.7076 48.968C49.2276 49.0853 48.7636 49.144 48.3156 49.144ZM54.0098 49.112C53.7538 49.112 53.5511 49.0427 53.4018 48.904C53.2631 48.7547 53.1938 48.552 53.1938 48.296V42.44H52.2978C52.0951 42.44 51.9351 42.3867 51.8178 42.28C51.7004 42.1627 51.6418 42.008 51.6418 41.816C51.6418 41.6133 51.7004 41.4587 51.8178 41.352C51.9351 41.2453 52.0951 41.192 52.2978 41.192H53.6578L53.1938 41.624V41.048C53.1938 39.992 53.4551 39.1973 53.9778 38.664C54.5004 38.12 55.2631 37.8 56.2658 37.704L56.7618 37.672C56.9431 37.6507 57.0871 37.6773 57.1938 37.752C57.3004 37.8267 57.3698 37.9227 57.4018 38.04C57.4338 38.1573 57.4338 38.28 57.4018 38.408C57.3804 38.5253 57.3271 38.632 57.2418 38.728C57.1564 38.824 57.0498 38.8773 56.9218 38.888L56.6178 38.904C55.9884 38.9573 55.5298 39.1387 55.2418 39.448C54.9538 39.7467 54.8098 40.2053 54.8098 40.824V41.448L54.5858 41.192H56.3618C56.5858 41.192 56.7511 41.2453 56.8578 41.352C56.9751 41.4587 57.0338 41.6133 57.0338 41.816C57.0338 42.008 56.9751 42.1627 56.8578 42.28C56.7511 42.3867 56.5858 42.44 56.3618 42.44H54.8098V48.296C54.8098 48.84 54.5431 49.112 54.0098 49.112ZM60.1945 49.144C59.6505 49.144 59.1598 49.0373 58.7225 48.824C58.2958 48.6107 57.9598 48.3227 57.7145 47.96C57.4692 47.5973 57.3465 47.1867 57.3465 46.728C57.3465 46.152 57.4905 45.6987 57.7785 45.368C58.0772 45.0267 58.5625 44.7867 59.2345 44.648C59.9172 44.4987 60.8345 44.424 61.9865 44.424H62.7385V45.416H62.0025C61.2345 45.416 60.6265 45.4533 60.1785 45.528C59.7305 45.6027 59.4105 45.7307 59.2185 45.912C59.0372 46.0827 58.9465 46.3227 58.9465 46.632C58.9465 47.0373 59.0852 47.368 59.3625 47.624C59.6398 47.8693 60.0238 47.992 60.5145 47.992C60.9092 47.992 61.2558 47.9013 61.5545 47.72C61.8532 47.528 62.0878 47.272 62.2585 46.952C62.4398 46.632 62.5305 46.264 62.5305 45.848V44.008C62.5305 43.4 62.4025 42.9627 62.1465 42.696C61.8905 42.4293 61.4692 42.296 60.8825 42.296C60.5412 42.296 60.1838 42.3387 59.8105 42.424C59.4478 42.5093 59.0692 42.6533 58.6745 42.856C58.4932 42.9413 58.3385 42.968 58.2105 42.936C58.0825 42.904 57.9812 42.8347 57.9065 42.728C57.8318 42.6107 57.7892 42.488 57.7785 42.36C57.7785 42.2213 57.8105 42.088 57.8745 41.96C57.9492 41.832 58.0718 41.736 58.2425 41.672C58.7118 41.448 59.1758 41.288 59.6345 41.192C60.0932 41.096 60.5252 41.048 60.9305 41.048C61.6452 41.048 62.2318 41.16 62.6905 41.384C63.1598 41.608 63.5065 41.9493 63.7305 42.408C63.9545 42.8667 64.0665 43.4587 64.0665 44.184V48.296C64.0665 48.552 64.0025 48.7547 63.8745 48.904C63.7465 49.0427 63.5598 49.112 63.3145 49.112C63.0798 49.112 62.8932 49.0427 62.7545 48.904C62.6158 48.7547 62.5465 48.552 62.5465 48.296V47.256H62.6905C62.6052 47.6507 62.4452 47.992 62.2105 48.28C61.9865 48.5573 61.7038 48.7707 61.3625 48.92C61.0212 49.0693 60.6318 49.144 60.1945 49.144ZM68.5763 49.144C67.9469 49.144 67.4189 49.0267 66.9923 48.792C66.5763 48.5573 66.2616 48.2107 66.0483 47.752C65.8456 47.2827 65.7443 46.696 65.7443 45.992V41.896C65.7443 41.6187 65.8136 41.416 65.9523 41.288C66.0909 41.1493 66.2883 41.08 66.5443 41.08C66.8003 41.08 66.9976 41.1493 67.1363 41.288C67.2856 41.416 67.3603 41.6187 67.3603 41.896V46.008C67.3603 46.6373 67.4883 47.1013 67.7443 47.4C68.0003 47.6987 68.4056 47.848 68.9603 47.848C69.5683 47.848 70.0589 47.6453 70.4323 47.24C70.8163 46.824 71.0083 46.28 71.0083 45.608V41.896C71.0083 41.6187 71.0776 41.416 71.2163 41.288C71.3549 41.1493 71.5576 41.08 71.8243 41.08C72.0803 41.08 72.2776 41.1493 72.4163 41.288C72.5549 41.416 72.6243 41.6187 72.6243 41.896V48.296C72.6243 48.84 72.3629 49.112 71.8403 49.112C71.5949 49.112 71.4029 49.0427 71.2643 48.904C71.1256 48.7547 71.0563 48.552 71.0563 48.296V46.936L71.2643 47.288C71.0509 47.8853 70.7096 48.344 70.2403 48.664C69.7709 48.984 69.2163 49.144 68.5763 49.144ZM76.9136 49.144C76.0816 49.144 75.4523 48.904 75.0256 48.424C74.6096 47.9333 74.4016 47.2293 74.4016 46.312V38.424C74.4016 38.1573 74.471 37.9547 74.6096 37.816C74.7483 37.6773 74.9456 37.608 75.2016 37.608C75.4576 37.608 75.655 37.6773 75.7936 37.816C75.943 37.9547 76.0176 38.1573 76.0176 38.424V46.216C76.0176 46.7493 76.1243 47.1493 76.3376 47.416C76.5616 47.672 76.8816 47.8 77.2976 47.8C77.3936 47.8 77.479 47.8 77.5536 47.8C77.6283 47.7893 77.703 47.7787 77.7776 47.768C77.9056 47.7573 77.9963 47.7947 78.0496 47.88C78.103 47.9547 78.1296 48.1147 78.1296 48.36C78.1296 48.584 78.0816 48.76 77.9856 48.888C77.8896 49.0053 77.735 49.08 77.5216 49.112C77.4256 49.1227 77.3243 49.128 77.2176 49.128C77.111 49.1387 77.0096 49.144 76.9136 49.144ZM81.9484 49.144C81.3084 49.144 80.7697 49.032 80.3324 48.808C79.895 48.584 79.5697 48.2533 79.3564 47.816C79.143 47.3787 79.0364 46.8453 79.0364 46.216V42.44H78.0764C77.863 42.44 77.6977 42.3867 77.5804 42.28C77.463 42.1627 77.4044 42.008 77.4044 41.816C77.4044 41.6133 77.463 41.4587 77.5804 41.352C77.6977 41.2453 77.863 41.192 78.0764 41.192H79.0364V39.544C79.0364 39.2773 79.1057 39.0747 79.2444 38.936C79.3937 38.7973 79.5964 38.728 79.8524 38.728C80.1084 38.728 80.3057 38.7973 80.4444 38.936C80.583 39.0747 80.6524 39.2773 80.6524 39.544V41.192H82.5244C82.7377 41.192 82.903 41.2453 83.0204 41.352C83.1377 41.4587 83.1964 41.6133 83.1964 41.816C83.1964 42.008 83.1377 42.1627 83.0204 42.28C82.903 42.3867 82.7377 42.44 82.5244 42.44H80.6524V46.088C80.6524 46.6533 80.7697 47.08 81.0044 47.368C81.2497 47.656 81.6444 47.8 82.1884 47.8C82.3804 47.8 82.5457 47.784 82.6844 47.752C82.8337 47.7093 82.9564 47.6827 83.0524 47.672C83.1697 47.672 83.2657 47.7147 83.3404 47.8C83.415 47.8747 83.4524 48.024 83.4524 48.248C83.4524 48.408 83.4204 48.5573 83.3564 48.696C83.303 48.8347 83.2017 48.9253 83.0524 48.968C82.9244 49.0107 82.7484 49.048 82.5244 49.08C82.311 49.1227 82.119 49.144 81.9484 49.144ZM88.4669 49.064C88.1575 49.064 87.9069 48.968 87.7149 48.776C87.5229 48.584 87.4269 48.3387 87.4269 48.04C87.4269 47.7413 87.5229 47.5013 87.7149 47.32C87.9069 47.128 88.1575 47.032 88.4669 47.032C88.7762 47.032 89.0215 47.128 89.2029 47.32C89.3842 47.5013 89.4749 47.7413 89.4749 48.04C89.4749 48.3387 89.3842 48.584 89.2029 48.776C89.0215 48.968 88.7762 49.064 88.4669 49.064ZM88.4669 43.16C88.1575 43.16 87.9069 43.064 87.7149 42.872C87.5229 42.68 87.4269 42.44 87.4269 42.152C87.4269 41.8427 87.5229 41.5973 87.7149 41.416C87.9069 41.224 88.1575 41.128 88.4669 41.128C88.7762 41.128 89.0215 41.224 89.2029 41.416C89.3842 41.5973 89.4749 41.8427 89.4749 42.152C89.4749 42.44 89.3842 42.68 89.2029 42.872C89.0215 43.064 88.7762 43.16 88.4669 43.16ZM96.0425 49C95.8185 49 95.6425 48.936 95.5145 48.808C95.3865 48.68 95.3225 48.5093 95.3225 48.296C95.3225 48.072 95.3865 47.9013 95.5145 47.784C95.6425 47.6667 95.8185 47.608 96.0425 47.608H97.9945V39.096H98.8265L96.4905 40.584C96.3198 40.68 96.1598 40.7173 96.0105 40.696C95.8718 40.6747 95.7492 40.616 95.6425 40.52C95.5465 40.424 95.4772 40.3067 95.4345 40.168C95.4025 40.0293 95.4132 39.8853 95.4665 39.736C95.5305 39.5867 95.6425 39.464 95.8025 39.368L98.0105 37.976C98.1918 37.8693 98.3625 37.784 98.5225 37.72C98.6932 37.6453 98.8532 37.608 99.0025 37.608C99.1838 37.608 99.3332 37.6613 99.4505 37.768C99.5785 37.864 99.6425 38.0293 99.6425 38.264V47.608H101.435C101.669 47.608 101.851 47.6667 101.979 47.784C102.107 47.9013 102.171 48.072 102.171 48.296C102.171 48.52 102.107 48.696 101.979 48.824C101.851 48.9413 101.669 49 101.435 49H96.0425ZM104.592 51.992C104.336 51.992 104.139 51.9227 104 51.784C103.862 51.6453 103.792 51.4427 103.792 51.176V41.896C103.792 41.6293 103.862 41.4267 104 41.288C104.139 41.1493 104.331 41.08 104.576 41.08C104.832 41.08 105.03 41.1493 105.168 41.288C105.307 41.4267 105.376 41.6293 105.376 41.896V43.288L105.2 42.952C105.371 42.376 105.707 41.9173 106.208 41.576C106.71 41.224 107.302 41.048 107.984 41.048C108.678 41.048 109.28 41.2133 109.792 41.544C110.315 41.8747 110.715 42.3387 110.992 42.936C111.28 43.5333 111.424 44.2533 111.424 45.096C111.424 45.9173 111.28 46.6373 110.992 47.256C110.715 47.864 110.32 48.3333 109.808 48.664C109.296 48.984 108.688 49.144 107.984 49.144C107.312 49.144 106.726 48.9733 106.224 48.632C105.723 48.2907 105.387 47.8373 105.216 47.272H105.408V51.176C105.408 51.4427 105.334 51.6453 105.184 51.784C105.046 51.9227 104.848 51.992 104.592 51.992ZM107.584 47.896C108.032 47.896 108.422 47.7893 108.752 47.576C109.083 47.3627 109.339 47.048 109.52 46.632C109.702 46.216 109.792 45.704 109.792 45.096C109.792 44.1787 109.59 43.4853 109.184 43.016C108.79 42.5467 108.256 42.312 107.584 42.312C107.147 42.312 106.758 42.4187 106.416 42.632C106.086 42.8347 105.83 43.144 105.648 43.56C105.467 43.976 105.376 44.488 105.376 45.096C105.376 46.0027 105.579 46.696 105.984 47.176C106.39 47.656 106.923 47.896 107.584 47.896ZM112.83 49.096C112.638 49.096 112.478 49.0427 112.35 48.936C112.233 48.8187 112.169 48.6747 112.158 48.504C112.158 48.3333 112.233 48.1467 112.382 47.944L115.086 44.568V45.368L112.558 42.216C112.387 42.024 112.307 41.8427 112.318 41.672C112.329 41.4907 112.398 41.3467 112.526 41.24C112.654 41.1333 112.809 41.08 112.99 41.08C113.193 41.08 113.358 41.1173 113.486 41.192C113.625 41.256 113.753 41.368 113.87 41.528L115.998 44.232H115.422L117.566 41.528C117.683 41.368 117.806 41.256 117.934 41.192C118.073 41.1173 118.238 41.08 118.43 41.08C118.622 41.08 118.777 41.1387 118.894 41.256C119.022 41.3627 119.086 41.5067 119.086 41.688C119.097 41.8587 119.022 42.04 118.862 42.232L116.334 45.336V44.616L119.038 47.944C119.198 48.136 119.273 48.3227 119.262 48.504C119.262 48.6747 119.198 48.8187 119.07 48.936C118.942 49.0427 118.782 49.096 118.59 49.096C118.398 49.096 118.233 49.0587 118.094 48.984C117.966 48.9093 117.838 48.7973 117.71 48.648L115.422 45.768H115.966L113.694 48.648C113.577 48.7867 113.449 48.8987 113.31 48.984C113.182 49.0587 113.022 49.096 112.83 49.096Z" fill="#201F1F"/>
<path d="M33.1797 90V78.5469H41.0312V80.4844H35.4922V83.1953H40.2734V85.1328H35.4922V90H33.1797ZM42.9297 80.5781V78.5469H45.125V80.5781H42.9297ZM42.9297 90V81.7031H45.125V90H42.9297ZM49.4844 90H47.2891V81.7031H49.3281V82.8828C49.6771 82.3255 49.9896 81.9583 50.2656 81.7812C50.5469 81.6042 50.8646 81.5156 51.2188 81.5156C51.7188 81.5156 52.2005 81.6536 52.6641 81.9297L51.9844 83.8438C51.6146 83.6042 51.2708 83.4844 50.9531 83.4844C50.6458 83.4844 50.3854 83.5703 50.1719 83.7422C49.9583 83.9089 49.7891 84.2135 49.6641 84.6562C49.5443 85.099 49.4844 86.026 49.4844 87.4375V90ZM52.8438 87.6328L55.0469 87.2969C55.1406 87.724 55.3307 88.0495 55.6172 88.2734C55.9036 88.4922 56.3047 88.6016 56.8203 88.6016C57.388 88.6016 57.8151 88.4974 58.1016 88.2891C58.2943 88.1432 58.3906 87.9479 58.3906 87.7031C58.3906 87.5365 58.3385 87.3984 58.2344 87.2891C58.125 87.1849 57.8802 87.0885 57.5 87C55.7292 86.6094 54.6068 86.2526 54.1328 85.9297C53.4766 85.4818 53.1484 84.8594 53.1484 84.0625C53.1484 83.3438 53.4323 82.7396 54 82.25C54.5677 81.7604 55.4479 81.5156 56.6406 81.5156C57.776 81.5156 58.6198 81.7005 59.1719 82.0703C59.724 82.4401 60.1042 82.987 60.3125 83.7109L58.2422 84.0938C58.1536 83.7708 57.9844 83.5234 57.7344 83.3516C57.4896 83.1797 57.138 83.0938 56.6797 83.0938C56.1016 83.0938 55.6875 83.1745 55.4375 83.3359C55.2708 83.4505 55.1875 83.599 55.1875 83.7812C55.1875 83.9375 55.2604 84.0703 55.4062 84.1797C55.6042 84.3255 56.2865 84.5312 57.4531 84.7969C58.625 85.0625 59.4427 85.388 59.9062 85.7734C60.3646 86.1641 60.5938 86.7083 60.5938 87.4062C60.5938 88.1667 60.276 88.8203 59.6406 89.3672C59.0052 89.9141 58.0651 90.1875 56.8203 90.1875C55.6901 90.1875 54.7943 89.9583 54.1328 89.5C53.4766 89.0417 53.0469 88.4193 52.8438 87.6328ZM66.3281 81.7031V83.4531H64.8281V86.7969C64.8281 87.474 64.8411 87.8698 64.8672 87.9844C64.8984 88.0938 64.9635 88.1849 65.0625 88.2578C65.1667 88.3307 65.2917 88.3672 65.4375 88.3672C65.6406 88.3672 65.9349 88.2969 66.3203 88.1562L66.5078 89.8594C65.9974 90.0781 65.4193 90.1875 64.7734 90.1875C64.3776 90.1875 64.0208 90.1224 63.7031 89.9922C63.3854 89.8568 63.151 89.6849 63 89.4766C62.8542 89.263 62.7526 88.9766 62.6953 88.6172C62.6484 88.362 62.625 87.8464 62.625 87.0703V83.4531H61.6172V81.7031H62.625V80.0547L64.8281 78.7734V81.7031H66.3281ZM79.8516 90H77.6562V85.7656C77.6562 84.8698 77.6094 84.2917 77.5156 84.0312C77.4219 83.7656 77.2682 83.5599 77.0547 83.4141C76.8464 83.2682 76.5938 83.1953 76.2969 83.1953C75.9167 83.1953 75.5755 83.2995 75.2734 83.5078C74.9714 83.7161 74.763 83.9922 74.6484 84.3359C74.5391 84.6797 74.4844 85.3151 74.4844 86.2422V90H72.2891V81.7031H74.3281V82.9219C75.0521 81.9844 75.9635 81.5156 77.0625 81.5156C77.5469 81.5156 77.9896 81.6042 78.3906 81.7812C78.7917 81.9531 79.0938 82.1745 79.2969 82.4453C79.5052 82.7161 79.6484 83.0234 79.7266 83.3672C79.8099 83.7109 79.8516 84.2031 79.8516 84.8438V90ZM83.7266 84.2344L81.7344 83.875C81.9583 83.0729 82.3438 82.4792 82.8906 82.0938C83.4375 81.7083 84.25 81.5156 85.3281 81.5156C86.3073 81.5156 87.0365 81.6328 87.5156 81.8672C87.9948 82.0964 88.3307 82.3906 88.5234 82.75C88.7214 83.1042 88.8203 83.7578 88.8203 84.7109L88.7969 87.2734C88.7969 88.0026 88.8307 88.5417 88.8984 88.8906C88.9714 89.2344 89.1042 89.6042 89.2969 90H87.125C87.0677 89.8542 86.9974 89.638 86.9141 89.3516C86.8776 89.2214 86.8516 89.1354 86.8359 89.0938C86.4609 89.4583 86.0599 89.7318 85.6328 89.9141C85.2057 90.0964 84.75 90.1875 84.2656 90.1875C83.4115 90.1875 82.737 89.9557 82.2422 89.4922C81.7526 89.0286 81.5078 88.4427 81.5078 87.7344C81.5078 87.2656 81.6198 86.849 81.8438 86.4844C82.0677 86.1146 82.3802 85.8333 82.7812 85.6406C83.1875 85.4427 83.7708 85.2708 84.5312 85.125C85.5573 84.9323 86.2682 84.7526 86.6641 84.5859V84.3672C86.6641 83.9453 86.5599 83.6458 86.3516 83.4688C86.1432 83.2865 85.75 83.1953 85.1719 83.1953C84.7812 83.1953 84.4766 83.2734 84.2578 83.4297C84.0391 83.5807 83.862 83.849 83.7266 84.2344ZM86.6641 86.0156C86.3828 86.1094 85.9375 86.2214 85.3281 86.3516C84.7188 86.4818 84.3203 86.6094 84.1328 86.7344C83.8464 86.9375 83.7031 87.1953 83.7031 87.5078C83.7031 87.8151 83.8177 88.0807 84.0469 88.3047C84.276 88.5286 84.5677 88.6406 84.9219 88.6406C85.3177 88.6406 85.6953 88.5104 86.0547 88.25C86.3203 88.0521 86.4948 87.8099 86.5781 87.5234C86.6354 87.3359 86.6641 86.9792 86.6641 86.4531V86.0156ZM90.8281 81.7031H92.8516V82.8359C93.5755 81.9557 94.4375 81.5156 95.4375 81.5156C95.9688 81.5156 96.4297 81.625 96.8203 81.8438C97.2109 82.0625 97.5312 82.3932 97.7812 82.8359C98.1458 82.3932 98.5391 82.0625 98.9609 81.8438C99.3828 81.625 99.8333 81.5156 100.312 81.5156C100.922 81.5156 101.438 81.6406 101.859 81.8906C102.281 82.1354 102.596 82.4974 102.805 82.9766C102.956 83.3307 103.031 83.9036 103.031 84.6953V90H100.836V85.2578C100.836 84.4349 100.76 83.9036 100.609 83.6641C100.406 83.3516 100.094 83.1953 99.6719 83.1953C99.3646 83.1953 99.0755 83.2891 98.8047 83.4766C98.5339 83.6641 98.3385 83.9401 98.2188 84.3047C98.099 84.6641 98.0391 85.2344 98.0391 86.0156V90H95.8438V85.4531C95.8438 84.6458 95.8047 84.125 95.7266 83.8906C95.6484 83.6562 95.526 83.4818 95.3594 83.3672C95.1979 83.2526 94.9766 83.1953 94.6953 83.1953C94.3568 83.1953 94.0521 83.2865 93.7812 83.4688C93.5104 83.651 93.3151 83.9141 93.1953 84.2578C93.0807 84.6016 93.0234 85.1719 93.0234 85.9688V90H90.8281V81.7031ZM110.031 87.3594L112.219 87.7266C111.938 88.5286 111.492 89.1406 110.883 89.5625C110.279 89.9792 109.521 90.1875 108.609 90.1875C107.167 90.1875 106.099 89.7161 105.406 88.7734C104.859 88.0182 104.586 87.0651 104.586 85.9141C104.586 84.5391 104.945 83.4635 105.664 82.6875C106.383 81.9062 107.292 81.5156 108.391 81.5156C109.625 81.5156 110.599 81.9245 111.312 82.7422C112.026 83.5547 112.367 84.8021 112.336 86.4844H106.836C106.852 87.1354 107.029 87.6432 107.367 88.0078C107.706 88.3672 108.128 88.5469 108.633 88.5469C108.977 88.5469 109.266 88.4531 109.5 88.2656C109.734 88.0781 109.911 87.776 110.031 87.3594ZM110.156 85.1406C110.141 84.5052 109.977 84.0234 109.664 83.6953C109.352 83.362 108.971 83.1953 108.523 83.1953C108.044 83.1953 107.648 83.3698 107.336 83.7188C107.023 84.0677 106.87 84.5417 106.875 85.1406H110.156Z" fill="#201F1F"/>
<mask id="path-4-inside-1_151_8080" fill="white">
<path d="M32 123.2C32 116.479 32 113.119 33.3079 110.552C34.4584 108.294 36.2942 106.458 38.5521 105.308C41.1191 104 44.4794 104 51.2 104H544.3C551.021 104 554.381 104 556.948 105.308C559.206 106.458 561.042 108.294 562.192 110.552C563.5 113.119 563.5 116.479 563.5 123.2V132.8C563.5 139.521 563.5 142.881 562.192 145.448C561.042 147.706 559.206 149.542 556.948 150.692C554.381 152 551.021 152 544.3 152H51.2C44.4794 152 41.1191 152 38.5521 150.692C36.2942 149.542 34.4584 147.706 33.3079 145.448C32 142.881 32 139.521 32 132.8V123.2Z"/>
</mask>
<path d="M32 123.2C32 116.479 32 113.119 33.3079 110.552C34.4584 108.294 36.2942 106.458 38.5521 105.308C41.1191 104 44.4794 104 51.2 104H544.3C551.021 104 554.381 104 556.948 105.308C559.206 106.458 561.042 108.294 562.192 110.552C563.5 113.119 563.5 116.479 563.5 123.2V132.8C563.5 139.521 563.5 142.881 562.192 145.448C561.042 147.706 559.206 149.542 556.948 150.692C554.381 152 551.021 152 544.3 152H51.2C44.4794 152 41.1191 152 38.5521 150.692C36.2942 149.542 34.4584 147.706 33.3079 145.448C32 142.881 32 139.521 32 132.8V123.2Z" fill="white"/>
<path d="M38.5521 150.692L38.0981 151.583L38.5521 150.692ZM33.3079 145.448L32.4169 145.902L33.3079 145.448ZM562.192 145.448L563.083 145.902L562.192 145.448ZM556.948 150.692L557.402 151.583L556.948 150.692ZM556.948 105.308L556.494 106.199L556.948 105.308ZM562.192 110.552L561.301 111.006L562.192 110.552ZM51.2 104V105H544.3V104V103H51.2V104ZM563.5 123.2H562.5V132.8H563.5H564.5V123.2H563.5ZM544.3 152V151H51.2V152V153H544.3V152ZM32 132.8H33V123.2H32H31V132.8H32ZM51.2 152V151C47.8232 151 45.3507 150.999 43.3999 150.84C41.4607 150.681 40.1251 150.371 39.0061 149.801L38.5521 150.692L38.0981 151.583C39.5461 152.321 41.1741 152.665 43.237 152.833C45.2882 153.001 47.8562 153 51.2 153V152ZM32 132.8H31C31 136.144 30.9992 138.712 31.1668 140.763C31.3354 142.826 31.6792 144.454 32.4169 145.902L33.3079 145.448L34.1989 144.994C33.6288 143.875 33.3186 142.539 33.1602 140.6C33.0008 138.649 33 136.177 33 132.8H32ZM38.5521 150.692L39.0061 149.801C36.9363 148.746 35.2535 147.064 34.1989 144.994L33.3079 145.448L32.4169 145.902C33.6633 148.348 35.652 150.337 38.0981 151.583L38.5521 150.692ZM563.5 132.8H562.5C562.5 136.177 562.499 138.649 562.34 140.6C562.181 142.539 561.871 143.875 561.301 144.994L562.192 145.448L563.083 145.902C563.821 144.454 564.165 142.826 564.333 140.763C564.501 138.712 564.5 136.144 564.5 132.8H563.5ZM544.3 152V153C547.644 153 550.212 153.001 552.263 152.833C554.326 152.665 555.954 152.321 557.402 151.583L556.948 150.692L556.494 149.801C555.375 150.371 554.039 150.681 552.1 150.84C550.149 150.999 547.677 151 544.3 151V152ZM562.192 145.448L561.301 144.994C560.246 147.064 558.564 148.746 556.494 149.801L556.948 150.692L557.402 151.583C559.848 150.337 561.837 148.348 563.083 145.902L562.192 145.448ZM544.3 104V105C547.677 105 550.149 105.001 552.1 105.16C554.039 105.319 555.375 105.629 556.494 106.199L556.948 105.308L557.402 104.417C555.954 103.679 554.326 103.335 552.263 103.167C550.212 102.999 547.644 103 544.3 103V104ZM563.5 123.2H564.5C564.5 119.856 564.501 117.288 564.333 115.237C564.165 113.174 563.821 111.546 563.083 110.098L562.192 110.552L561.301 111.006C561.871 112.125 562.181 113.461 562.34 115.4C562.499 117.351 562.5 119.823 562.5 123.2H563.5ZM556.948 105.308L556.494 106.199C558.564 107.254 560.246 108.936 561.301 111.006L562.192 110.552L563.083 110.098C561.837 107.652 559.848 105.663 557.402 104.417L556.948 105.308ZM51.2 104V103C47.8562 103 45.2882 102.999 43.237 103.167C41.1741 103.335 39.5461 103.679 38.0981 104.417L38.5521 105.308L39.0061 106.199C40.1251 105.629 41.4607 105.319 43.3999 105.16C45.3507 105.001 47.8232 105 51.2 105V104ZM32 123.2H33C33 119.823 33.0008 117.351 33.1602 115.4C33.3186 113.461 33.6288 112.125 34.1989 111.006L33.3079 110.552L32.4169 110.098C31.6792 111.546 31.3354 113.174 31.1668 115.237C30.9992 117.288 31 119.856 31 123.2H32ZM38.5521 105.308L38.0981 104.417C35.652 105.663 33.6633 107.652 32.4169 110.098L33.3079 110.552L34.1989 111.006C35.2535 108.936 36.9363 107.254 39.0061 106.199L38.5521 105.308Z" fill="#A1A1A0" mask="url(#path-4-inside-1_151_8080)"/>
<path d="M33.1074 175V164.979H40.3535V166.161H34.4336V169.23H39.9775V170.406H34.4336V173.817H40.5859V175H33.1074ZM42.2607 175V167.74H43.3682V168.772C43.9014 167.975 44.6715 167.576 45.6787 167.576C46.1162 167.576 46.5173 167.656 46.8818 167.815C47.251 167.97 47.5267 168.175 47.709 168.431C47.8913 168.686 48.0189 168.989 48.0918 169.34C48.1374 169.568 48.1602 169.966 48.1602 170.536V175H46.9297V170.584C46.9297 170.083 46.8818 169.709 46.7861 169.463C46.6904 169.212 46.5195 169.014 46.2734 168.868C46.0319 168.718 45.7471 168.643 45.4189 168.643C44.8949 168.643 44.4414 168.809 44.0586 169.142C43.6803 169.474 43.4912 170.105 43.4912 171.035V175H42.2607ZM52.7402 173.899L52.918 174.986C52.5716 175.059 52.2617 175.096 51.9883 175.096C51.5417 175.096 51.1953 175.025 50.9492 174.884C50.7031 174.743 50.5299 174.558 50.4297 174.33C50.3294 174.098 50.2793 173.612 50.2793 172.874V168.697H49.377V167.74H50.2793V165.942L51.5029 165.204V167.74H52.7402V168.697H51.5029V172.942C51.5029 173.293 51.5234 173.519 51.5645 173.619C51.61 173.719 51.6807 173.799 51.7764 173.858C51.8766 173.918 52.0179 173.947 52.2002 173.947C52.3369 173.947 52.5169 173.931 52.7402 173.899ZM58.9199 172.662L60.1914 172.819C59.9909 173.562 59.6195 174.139 59.0771 174.549C58.5348 174.959 57.8421 175.164 56.999 175.164C55.9372 175.164 55.0941 174.838 54.4697 174.187C53.8499 173.53 53.54 172.612 53.54 171.432C53.54 170.21 53.8545 169.262 54.4834 168.588C55.1123 167.913 55.9281 167.576 56.9307 167.576C57.9014 167.576 58.6943 167.907 59.3096 168.567C59.9248 169.228 60.2324 170.158 60.2324 171.356C60.2324 171.429 60.2301 171.539 60.2256 171.685H54.8115C54.8571 172.482 55.0827 173.093 55.4883 173.517C55.8939 173.94 56.3997 174.152 57.0059 174.152C57.457 174.152 57.8421 174.034 58.1611 173.797C58.4801 173.56 58.7331 173.182 58.9199 172.662ZM54.8799 170.673H58.9336C58.8789 170.062 58.724 169.604 58.4688 169.299C58.0768 168.825 57.5687 168.588 56.9443 168.588C56.3792 168.588 55.903 168.777 55.5156 169.155C55.1328 169.534 54.9209 170.039 54.8799 170.673ZM61.7295 175V167.74H62.8369V168.841C63.1195 168.326 63.3792 167.986 63.6162 167.822C63.8577 167.658 64.1221 167.576 64.4092 167.576C64.8239 167.576 65.2454 167.708 65.6738 167.973L65.25 169.114C64.9492 168.937 64.6484 168.848 64.3477 168.848C64.0788 168.848 63.8372 168.93 63.623 169.094C63.4089 169.253 63.2562 169.477 63.165 169.764C63.0283 170.201 62.96 170.68 62.96 171.199V175H61.7295ZM70.2471 177.796L70.1104 176.641C70.3792 176.714 70.6139 176.75 70.8145 176.75C71.0879 176.75 71.3066 176.704 71.4707 176.613C71.6348 176.522 71.7692 176.395 71.874 176.23C71.9515 176.107 72.0768 175.802 72.25 175.314C72.2728 175.246 72.3092 175.146 72.3594 175.014L69.6045 167.74H70.9307L72.4414 171.944C72.6374 172.478 72.8128 173.038 72.9678 173.626C73.109 173.061 73.2777 172.509 73.4736 171.972L75.0254 167.74H76.2559L73.4941 175.123C73.1979 175.921 72.9678 176.47 72.8037 176.771C72.585 177.176 72.3343 177.472 72.0518 177.659C71.7692 177.851 71.432 177.946 71.04 177.946C70.8031 177.946 70.5387 177.896 70.2471 177.796ZM76.8438 171.37C76.8438 170.026 77.2174 169.03 77.9648 168.383C78.5892 167.845 79.3503 167.576 80.248 167.576C81.2461 167.576 82.0618 167.904 82.6953 168.561C83.3288 169.212 83.6455 170.115 83.6455 171.268C83.6455 172.202 83.5042 172.938 83.2217 173.476C82.9437 174.009 82.5358 174.424 81.998 174.72C81.4648 175.016 80.8815 175.164 80.248 175.164C79.2318 175.164 78.4092 174.838 77.7803 174.187C77.1559 173.535 76.8438 172.596 76.8438 171.37ZM78.1084 171.37C78.1084 172.3 78.3112 172.997 78.7168 173.462C79.1224 173.922 79.6328 174.152 80.248 174.152C80.8587 174.152 81.3669 173.92 81.7725 173.455C82.1781 172.99 82.3809 172.282 82.3809 171.329C82.3809 170.431 82.1758 169.752 81.7656 169.292C81.36 168.827 80.8542 168.595 80.248 168.595C79.6328 168.595 79.1224 168.825 78.7168 169.285C78.3112 169.745 78.1084 170.44 78.1084 171.37ZM89.8525 175V173.934C89.2874 174.754 88.5195 175.164 87.5488 175.164C87.1204 175.164 86.7194 175.082 86.3457 174.918C85.9766 174.754 85.7008 174.549 85.5186 174.303C85.3408 174.052 85.2155 173.747 85.1426 173.387C85.0924 173.145 85.0674 172.762 85.0674 172.238V167.74H86.2979V171.767C86.2979 172.409 86.3229 172.842 86.373 173.065C86.4505 173.389 86.6146 173.644 86.8652 173.831C87.1159 174.013 87.4258 174.104 87.7949 174.104C88.1641 174.104 88.5104 174.011 88.834 173.824C89.1576 173.633 89.3854 173.375 89.5176 173.052C89.6543 172.724 89.7227 172.25 89.7227 171.63V167.74H90.9531V175H89.8525ZM92.874 175V167.74H93.9814V168.841C94.264 168.326 94.5238 167.986 94.7607 167.822C95.0023 167.658 95.2666 167.576 95.5537 167.576C95.9684 167.576 96.39 167.708 96.8184 167.973L96.3945 169.114C96.0938 168.937 95.793 168.848 95.4922 168.848C95.2233 168.848 94.9818 168.93 94.7676 169.094C94.5534 169.253 94.4007 169.477 94.3096 169.764C94.1729 170.201 94.1045 170.68 94.1045 171.199V175H92.874ZM101.74 175V168.697H100.653V167.74H101.74V166.968C101.74 166.48 101.784 166.118 101.87 165.881C101.989 165.562 102.196 165.304 102.492 165.108C102.793 164.908 103.212 164.808 103.75 164.808C104.096 164.808 104.479 164.849 104.898 164.931L104.714 166.004C104.459 165.958 104.217 165.936 103.989 165.936C103.616 165.936 103.351 166.015 103.196 166.175C103.041 166.334 102.964 166.633 102.964 167.07V167.74H104.379V168.697H102.964V175H101.74ZM105.35 166.394V164.979H106.58V166.394H105.35ZM105.35 175V167.74H106.58V175H105.35ZM108.446 175V167.74H109.554V168.841C109.836 168.326 110.096 167.986 110.333 167.822C110.575 167.658 110.839 167.576 111.126 167.576C111.541 167.576 111.962 167.708 112.391 167.973L111.967 169.114C111.666 168.937 111.365 168.848 111.064 168.848C110.796 168.848 110.554 168.93 110.34 169.094C110.126 169.253 109.973 169.477 109.882 169.764C109.745 170.201 109.677 170.68 109.677 171.199V175H108.446ZM112.63 172.833L113.847 172.642C113.915 173.129 114.104 173.503 114.414 173.763C114.729 174.022 115.166 174.152 115.727 174.152C116.292 174.152 116.711 174.038 116.984 173.811C117.258 173.578 117.395 173.307 117.395 172.997C117.395 172.719 117.274 172.5 117.032 172.341C116.864 172.231 116.444 172.092 115.774 171.924C114.872 171.696 114.245 171.5 113.895 171.336C113.548 171.167 113.284 170.937 113.102 170.646C112.924 170.349 112.835 170.023 112.835 169.668C112.835 169.344 112.908 169.046 113.054 168.772C113.204 168.494 113.407 168.264 113.662 168.082C113.854 167.941 114.113 167.822 114.441 167.727C114.774 167.626 115.13 167.576 115.508 167.576C116.077 167.576 116.576 167.658 117.005 167.822C117.438 167.986 117.757 168.21 117.962 168.492C118.167 168.77 118.308 169.144 118.386 169.613L117.183 169.777C117.128 169.404 116.968 169.112 116.704 168.902C116.444 168.693 116.075 168.588 115.597 168.588C115.032 168.588 114.628 168.681 114.387 168.868C114.145 169.055 114.024 169.274 114.024 169.524C114.024 169.684 114.075 169.827 114.175 169.955C114.275 170.087 114.432 170.197 114.646 170.283C114.77 170.329 115.132 170.434 115.733 170.598C116.604 170.83 117.21 171.021 117.552 171.172C117.898 171.318 118.169 171.532 118.365 171.814C118.561 172.097 118.659 172.448 118.659 172.867C118.659 173.277 118.538 173.665 118.297 174.029C118.06 174.389 117.716 174.67 117.265 174.87C116.813 175.066 116.303 175.164 115.733 175.164C114.79 175.164 114.07 174.968 113.573 174.576C113.081 174.184 112.767 173.603 112.63 172.833ZM122.809 173.899L122.986 174.986C122.64 175.059 122.33 175.096 122.057 175.096C121.61 175.096 121.264 175.025 121.018 174.884C120.771 174.743 120.598 174.558 120.498 174.33C120.398 174.098 120.348 173.612 120.348 172.874V168.697H119.445V167.74H120.348V165.942L121.571 165.204V167.74H122.809V168.697H121.571V172.942C121.571 173.293 121.592 173.519 121.633 173.619C121.678 173.719 121.749 173.799 121.845 173.858C121.945 173.918 122.086 173.947 122.269 173.947C122.405 173.947 122.585 173.931 122.809 173.899ZM127.915 175V167.74H129.022V168.772C129.556 167.975 130.326 167.576 131.333 167.576C131.771 167.576 132.172 167.656 132.536 167.815C132.905 167.97 133.181 168.175 133.363 168.431C133.546 168.686 133.673 168.989 133.746 169.34C133.792 169.568 133.814 169.966 133.814 170.536V175H132.584V170.584C132.584 170.083 132.536 169.709 132.44 169.463C132.345 169.212 132.174 169.014 131.928 168.868C131.686 168.718 131.401 168.643 131.073 168.643C130.549 168.643 130.096 168.809 129.713 169.142C129.335 169.474 129.146 170.105 129.146 171.035V175H127.915ZM140.445 174.104C139.99 174.492 139.55 174.765 139.126 174.925C138.707 175.084 138.256 175.164 137.772 175.164C136.975 175.164 136.362 174.97 135.934 174.583C135.505 174.191 135.291 173.692 135.291 173.086C135.291 172.73 135.371 172.407 135.53 172.115C135.694 171.819 135.906 171.582 136.166 171.404C136.43 171.227 136.727 171.092 137.055 171.001C137.296 170.937 137.661 170.876 138.148 170.816C139.142 170.698 139.873 170.557 140.343 170.393C140.347 170.224 140.35 170.117 140.35 170.071C140.35 169.57 140.233 169.217 140.001 169.012C139.687 168.734 139.219 168.595 138.6 168.595C138.021 168.595 137.592 168.697 137.314 168.902C137.041 169.103 136.838 169.461 136.706 169.976L135.503 169.812C135.612 169.297 135.792 168.882 136.043 168.567C136.294 168.248 136.656 168.005 137.13 167.836C137.604 167.663 138.153 167.576 138.777 167.576C139.397 167.576 139.901 167.649 140.288 167.795C140.675 167.941 140.96 168.125 141.143 168.349C141.325 168.567 141.452 168.845 141.525 169.183C141.566 169.392 141.587 169.771 141.587 170.317V171.958C141.587 173.102 141.612 173.826 141.662 174.132C141.717 174.433 141.822 174.722 141.977 175H140.691C140.564 174.745 140.482 174.446 140.445 174.104ZM140.343 171.356C139.896 171.539 139.226 171.694 138.333 171.821C137.827 171.894 137.469 171.976 137.26 172.067C137.05 172.159 136.888 172.293 136.774 172.471C136.66 172.644 136.604 172.838 136.604 173.052C136.604 173.38 136.727 173.653 136.973 173.872C137.223 174.091 137.588 174.2 138.066 174.2C138.54 174.2 138.962 174.098 139.331 173.893C139.7 173.683 139.971 173.398 140.145 173.038C140.277 172.76 140.343 172.35 140.343 171.808V171.356ZM143.501 175V167.74H144.602V168.759C144.829 168.403 145.132 168.118 145.511 167.904C145.889 167.686 146.32 167.576 146.803 167.576C147.34 167.576 147.78 167.688 148.122 167.911C148.468 168.134 148.712 168.447 148.854 168.848C149.428 168 150.175 167.576 151.096 167.576C151.816 167.576 152.369 167.777 152.757 168.178C153.144 168.574 153.338 169.187 153.338 170.017V175H152.114V170.427C152.114 169.935 152.073 169.581 151.991 169.367C151.914 169.148 151.77 168.973 151.561 168.841C151.351 168.709 151.105 168.643 150.822 168.643C150.312 168.643 149.888 168.813 149.551 169.155C149.214 169.493 149.045 170.035 149.045 170.782V175H147.814V170.283C147.814 169.736 147.714 169.326 147.514 169.053C147.313 168.779 146.985 168.643 146.529 168.643C146.183 168.643 145.862 168.734 145.565 168.916C145.274 169.098 145.062 169.365 144.93 169.716C144.798 170.067 144.731 170.573 144.731 171.233V175H143.501ZM160.133 172.662L161.404 172.819C161.204 173.562 160.832 174.139 160.29 174.549C159.748 174.959 159.055 175.164 158.212 175.164C157.15 175.164 156.307 174.838 155.683 174.187C155.063 173.53 154.753 172.612 154.753 171.432C154.753 170.21 155.067 169.262 155.696 168.588C156.325 167.913 157.141 167.576 158.144 167.576C159.114 167.576 159.907 167.907 160.522 168.567C161.138 169.228 161.445 170.158 161.445 171.356C161.445 171.429 161.443 171.539 161.438 171.685H156.024C156.07 172.482 156.296 173.093 156.701 173.517C157.107 173.94 157.613 174.152 158.219 174.152C158.67 174.152 159.055 174.034 159.374 173.797C159.693 173.56 159.946 173.182 160.133 172.662ZM156.093 170.673H160.146C160.092 170.062 159.937 169.604 159.682 169.299C159.29 168.825 158.782 168.588 158.157 168.588C157.592 168.588 157.116 168.777 156.729 169.155C156.346 169.534 156.134 170.039 156.093 170.673Z" fill="#3E3E3D"/>
<path d="M597.692 49.112C597.415 49.112 597.196 49.0373 597.036 48.888C596.887 48.7387 596.812 48.52 596.812 48.232V38.616C596.812 38.328 596.887 38.1093 597.036 37.96C597.196 37.8 597.42 37.72 597.708 37.72H603.404C603.639 37.72 603.809 37.7787 603.916 37.896C604.033 38.0027 604.092 38.1627 604.092 38.376C604.092 38.6 604.033 38.7707 603.916 38.888C603.809 39.0053 603.639 39.064 603.404 39.064H598.476V42.664H603.084C603.297 42.664 603.463 42.7227 603.58 42.84C603.708 42.9467 603.772 43.1067 603.772 43.32C603.772 43.544 603.708 43.7147 603.58 43.832C603.463 43.9493 603.297 44.008 603.084 44.008H598.476V48.232C598.476 48.8187 598.215 49.112 597.692 49.112ZM608.091 49.144C607.301 49.144 606.619 48.9787 606.043 48.648C605.477 48.3173 605.035 47.848 604.715 47.24C604.395 46.632 604.235 45.9173 604.235 45.096C604.235 44.4667 604.325 43.9067 604.507 43.416C604.688 42.9253 604.944 42.504 605.275 42.152C605.616 41.7893 606.021 41.5173 606.491 41.336C606.971 41.144 607.504 41.048 608.091 41.048C608.869 41.048 609.541 41.2133 610.107 41.544C610.683 41.8747 611.131 42.344 611.451 42.952C611.771 43.5493 611.931 44.264 611.931 45.096C611.931 45.7147 611.84 46.2747 611.659 46.776C611.477 47.2773 611.216 47.704 610.875 48.056C610.544 48.408 610.139 48.68 609.659 48.872C609.189 49.0533 608.667 49.144 608.091 49.144ZM608.091 47.896C608.528 47.896 608.912 47.7893 609.243 47.576C609.573 47.3627 609.829 47.048 610.011 46.632C610.203 46.216 610.299 45.704 610.299 45.096C610.299 44.1787 610.096 43.4853 609.691 43.016C609.285 42.5467 608.752 42.312 608.091 42.312C607.643 42.312 607.253 42.4187 606.923 42.632C606.592 42.8347 606.331 43.144 606.139 43.56C605.957 43.976 605.867 44.488 605.867 45.096C605.867 46.0027 606.069 46.696 606.475 47.176C606.88 47.656 607.419 47.896 608.091 47.896ZM616.685 49.144C615.885 49.144 615.192 48.9787 614.605 48.648C614.029 48.3067 613.581 47.832 613.261 47.224C612.941 46.6053 612.781 45.88 612.781 45.048C612.781 44.4293 612.872 43.8747 613.053 43.384C613.235 42.8827 613.491 42.4613 613.821 42.12C614.163 41.7787 614.573 41.5173 615.053 41.336C615.544 41.144 616.088 41.048 616.685 41.048C617.059 41.048 617.448 41.1067 617.853 41.224C618.269 41.3307 618.653 41.512 619.005 41.768C619.144 41.8533 619.229 41.96 619.261 42.088C619.304 42.2053 619.309 42.328 619.277 42.456C619.256 42.584 619.197 42.696 619.101 42.792C619.016 42.8773 618.909 42.9307 618.781 42.952C618.653 42.9627 618.515 42.9253 618.365 42.84C618.109 42.6587 617.848 42.5307 617.581 42.456C617.315 42.3707 617.059 42.328 616.813 42.328C616.429 42.328 616.088 42.392 615.789 42.52C615.501 42.6373 615.256 42.8133 615.053 43.048C614.851 43.272 614.696 43.5547 614.589 43.896C614.493 44.2373 614.445 44.6267 614.445 45.064C614.445 45.9387 614.648 46.6267 615.053 47.128C615.469 47.6187 616.056 47.864 616.813 47.864C617.059 47.864 617.315 47.8267 617.581 47.752C617.848 47.6773 618.109 47.5493 618.365 47.368C618.515 47.2827 618.653 47.2507 618.781 47.272C618.909 47.2933 619.011 47.352 619.085 47.448C619.171 47.5333 619.224 47.64 619.245 47.768C619.277 47.8853 619.272 48.008 619.229 48.136C619.187 48.264 619.096 48.3707 618.957 48.456C618.616 48.7013 618.243 48.8773 617.837 48.984C617.443 49.0907 617.059 49.144 616.685 49.144ZM622.998 49.144C622.369 49.144 621.841 49.0267 621.414 48.792C620.998 48.5573 620.683 48.2107 620.47 47.752C620.267 47.2827 620.166 46.696 620.166 45.992V41.896C620.166 41.6187 620.235 41.416 620.374 41.288C620.513 41.1493 620.71 41.08 620.966 41.08C621.222 41.08 621.419 41.1493 621.558 41.288C621.707 41.416 621.782 41.6187 621.782 41.896V46.008C621.782 46.6373 621.91 47.1013 622.166 47.4C622.422 47.6987 622.827 47.848 623.382 47.848C623.99 47.848 624.481 47.6453 624.854 47.24C625.238 46.824 625.43 46.28 625.43 45.608V41.896C625.43 41.6187 625.499 41.416 625.638 41.288C625.777 41.1493 625.979 41.08 626.246 41.08C626.502 41.08 626.699 41.1493 626.838 41.288C626.977 41.416 627.046 41.6187 627.046 41.896V48.296C627.046 48.84 626.785 49.112 626.262 49.112C626.017 49.112 625.825 49.0427 625.686 48.904C625.547 48.7547 625.478 48.552 625.478 48.296V46.936L625.686 47.288C625.473 47.8853 625.131 48.344 624.662 48.664C624.193 48.984 623.638 49.144 622.998 49.144ZM631.56 49.144C631.09 49.144 630.605 49.0907 630.104 48.984C629.613 48.8773 629.16 48.696 628.743 48.44C628.605 48.344 628.509 48.2373 628.456 48.12C628.402 48.0027 628.381 47.8853 628.392 47.768C628.413 47.64 628.461 47.5333 628.536 47.448C628.621 47.352 628.722 47.2933 628.84 47.272C628.968 47.2507 629.101 47.2773 629.24 47.352C629.656 47.5867 630.056 47.752 630.44 47.848C630.824 47.9333 631.202 47.976 631.576 47.976C632.141 47.976 632.568 47.8747 632.856 47.672C633.144 47.4693 633.288 47.1973 633.288 46.856C633.288 46.5787 633.192 46.3653 633 46.216C632.808 46.056 632.52 45.9333 632.136 45.848L630.616 45.544C629.954 45.4053 629.453 45.16 629.112 44.808C628.77 44.456 628.6 44.008 628.6 43.464C628.6 42.9733 628.733 42.5467 629 42.184C629.266 41.8213 629.64 41.544 630.12 41.352C630.6 41.1493 631.154 41.048 631.784 41.048C632.253 41.048 632.696 41.1067 633.112 41.224C633.528 41.3413 633.912 41.5173 634.264 41.752C634.402 41.8267 634.493 41.928 634.536 42.056C634.578 42.1733 634.584 42.2907 634.552 42.408C634.53 42.5253 634.477 42.632 634.392 42.728C634.306 42.8133 634.2 42.8667 634.072 42.888C633.954 42.8987 633.821 42.8667 633.672 42.792C633.352 42.5893 633.032 42.4453 632.712 42.36C632.402 42.2747 632.093 42.232 631.784 42.232C631.218 42.232 630.792 42.3387 630.504 42.552C630.226 42.7547 630.088 43.032 630.088 43.384C630.088 43.6507 630.173 43.8693 630.344 44.04C630.514 44.2107 630.781 44.3333 631.144 44.408L632.664 44.712C633.357 44.8507 633.88 45.0853 634.232 45.416C634.594 45.7467 634.776 46.1947 634.776 46.76C634.776 47.496 634.482 48.0773 633.896 48.504C633.309 48.9307 632.53 49.144 631.56 49.144ZM639.738 49.144C638.884 49.144 638.148 48.984 637.53 48.664C636.922 48.3333 636.447 47.8693 636.106 47.272C635.775 46.664 635.61 45.944 635.61 45.112C635.61 44.3013 635.775 43.592 636.106 42.984C636.436 42.376 636.89 41.9013 637.466 41.56C638.042 41.2187 638.698 41.048 639.434 41.048C639.978 41.048 640.463 41.1387 640.89 41.32C641.316 41.4907 641.679 41.7467 641.978 42.088C642.287 42.4187 642.516 42.824 642.666 43.304C642.826 43.784 642.906 44.3227 642.906 44.92C642.906 45.1013 642.852 45.24 642.746 45.336C642.639 45.4213 642.479 45.464 642.266 45.464H636.89V44.472H641.818L641.546 44.696C641.546 44.1627 641.466 43.7093 641.306 43.336C641.156 42.9627 640.927 42.68 640.618 42.488C640.319 42.2853 639.946 42.184 639.498 42.184C638.996 42.184 638.57 42.3013 638.218 42.536C637.876 42.7707 637.615 43.096 637.434 43.512C637.252 43.928 637.162 44.4133 637.162 44.968V45.064C637.162 46.0027 637.38 46.712 637.818 47.192C638.266 47.6613 638.911 47.896 639.754 47.896C640.074 47.896 640.41 47.8533 640.762 47.768C641.124 47.6827 641.466 47.5387 641.786 47.336C641.967 47.2293 642.127 47.1813 642.266 47.192C642.415 47.2027 642.532 47.2507 642.618 47.336C642.714 47.4213 642.772 47.528 642.794 47.656C642.815 47.784 642.794 47.9173 642.73 48.056C642.666 48.184 642.554 48.3013 642.394 48.408C642.031 48.6533 641.61 48.84 641.13 48.968C640.65 49.0853 640.186 49.144 639.738 49.144ZM647.143 49.144C646.461 49.144 645.858 48.984 645.335 48.664C644.823 48.3333 644.423 47.864 644.135 47.256C643.847 46.6373 643.703 45.9173 643.703 45.096C643.703 44.2533 643.847 43.5333 644.135 42.936C644.423 42.3387 644.823 41.8747 645.335 41.544C645.858 41.2133 646.461 41.048 647.143 41.048C647.826 41.048 648.413 41.2187 648.903 41.56C649.405 41.8907 649.741 42.3387 649.911 42.904H649.735V38.424C649.735 38.1573 649.805 37.9547 649.943 37.816C650.082 37.6773 650.279 37.608 650.535 37.608C650.791 37.608 650.989 37.6773 651.127 37.816C651.277 37.9547 651.351 38.1573 651.351 38.424V48.296C651.351 48.552 651.282 48.7547 651.143 48.904C651.005 49.0427 650.807 49.112 650.551 49.112C650.295 49.112 650.098 49.0427 649.959 48.904C649.821 48.7547 649.751 48.552 649.751 48.296V46.888L649.927 47.24C649.757 47.816 649.421 48.28 648.919 48.632C648.429 48.9733 647.837 49.144 647.143 49.144ZM647.559 47.896C647.997 47.896 648.381 47.7893 648.711 47.576C649.042 47.3627 649.298 47.048 649.479 46.632C649.671 46.216 649.767 45.704 649.767 45.096C649.767 44.1787 649.565 43.4853 649.159 43.016C648.754 42.5467 648.221 42.312 647.559 42.312C647.111 42.312 646.722 42.4187 646.391 42.632C646.061 42.8347 645.799 43.144 645.607 43.56C645.426 43.976 645.335 44.488 645.335 45.096C645.335 46.0027 645.538 46.696 645.943 47.176C646.349 47.656 646.887 47.896 647.559 47.896ZM657.623 49.064C657.314 49.064 657.063 48.968 656.871 48.776C656.679 48.584 656.583 48.3387 656.583 48.04C656.583 47.7413 656.679 47.5013 656.871 47.32C657.063 47.128 657.314 47.032 657.623 47.032C657.932 47.032 658.178 47.128 658.359 47.32C658.54 47.5013 658.631 47.7413 658.631 48.04C658.631 48.3387 658.54 48.584 658.359 48.776C658.178 48.968 657.932 49.064 657.623 49.064ZM657.623 43.16C657.314 43.16 657.063 43.064 656.871 42.872C656.679 42.68 656.583 42.44 656.583 42.152C656.583 41.8427 656.679 41.5973 656.871 41.416C657.063 41.224 657.314 41.128 657.623 41.128C657.932 41.128 658.178 41.224 658.359 41.416C658.54 41.5973 658.631 41.8427 658.631 42.152C658.631 42.44 658.54 42.68 658.359 42.872C658.178 43.064 657.932 43.16 657.623 43.16ZM664.815 49C664.527 49 664.319 48.936 664.191 48.808C664.063 48.6693 663.999 48.4827 663.999 48.248C663.999 48.0987 664.036 47.9547 664.111 47.816C664.185 47.6773 664.292 47.5333 664.431 47.384L667.839 43.736C668.361 43.1813 668.735 42.6747 668.959 42.216C669.193 41.7467 669.311 41.2773 669.311 40.808C669.311 40.2107 669.129 39.7573 668.767 39.448C668.404 39.1387 667.871 38.984 667.167 38.984C666.74 38.984 666.329 39.048 665.935 39.176C665.54 39.304 665.145 39.512 664.751 39.8C664.591 39.9067 664.441 39.9547 664.303 39.944C664.164 39.9333 664.041 39.88 663.935 39.784C663.839 39.688 663.775 39.5707 663.743 39.432C663.711 39.2933 663.716 39.1493 663.759 39C663.801 38.8507 663.903 38.7227 664.063 38.616C664.5 38.2853 665.007 38.0293 665.583 37.848C666.159 37.6667 666.745 37.576 667.343 37.576C668.121 37.576 668.777 37.6987 669.311 37.944C669.855 38.1787 670.265 38.5253 670.543 38.984C670.82 39.4427 670.959 40.0027 670.959 40.664C670.959 41.112 670.884 41.5493 670.735 41.976C670.596 42.4027 670.377 42.84 670.079 43.288C669.791 43.7253 669.412 44.1893 668.943 44.68L665.711 48.072V47.608H670.799C671.033 47.608 671.215 47.6667 671.343 47.784C671.471 47.9013 671.535 48.072 671.535 48.296C671.535 48.52 671.471 48.696 671.343 48.824C671.215 48.9413 671.033 49 670.799 49H664.815ZM673.749 51.992C673.493 51.992 673.295 51.9227 673.157 51.784C673.018 51.6453 672.949 51.4427 672.949 51.176V41.896C672.949 41.6293 673.018 41.4267 673.157 41.288C673.295 41.1493 673.487 41.08 673.733 41.08C673.989 41.08 674.186 41.1493 674.325 41.288C674.463 41.4267 674.533 41.6293 674.533 41.896V43.288L674.357 42.952C674.527 42.376 674.863 41.9173 675.365 41.576C675.866 41.224 676.458 41.048 677.141 41.048C677.834 41.048 678.437 41.2133 678.949 41.544C679.471 41.8747 679.871 42.3387 680.149 42.936C680.437 43.5333 680.581 44.2533 680.581 45.096C680.581 45.9173 680.437 46.6373 680.149 47.256C679.871 47.864 679.477 48.3333 678.965 48.664C678.453 48.984 677.845 49.144 677.141 49.144C676.469 49.144 675.882 48.9733 675.381 48.632C674.879 48.2907 674.543 47.8373 674.373 47.272H674.565V51.176C674.565 51.4427 674.49 51.6453 674.341 51.784C674.202 51.9227 674.005 51.992 673.749 51.992ZM676.741 47.896C677.189 47.896 677.578 47.7893 677.909 47.576C678.239 47.3627 678.495 47.048 678.677 46.632C678.858 46.216 678.949 45.704 678.949 45.096C678.949 44.1787 678.746 43.4853 678.341 43.016C677.946 42.5467 677.413 42.312 676.741 42.312C676.303 42.312 675.914 42.4187 675.573 42.632C675.242 42.8347 674.986 43.144 674.805 43.56C674.623 43.976 674.533 44.488 674.533 45.096C674.533 46.0027 674.735 46.696 675.141 47.176C675.546 47.656 676.079 47.896 676.741 47.896ZM681.986 49.096C681.794 49.096 681.634 49.0427 681.506 48.936C681.389 48.8187 681.325 48.6747 681.314 48.504C681.314 48.3333 681.389 48.1467 681.538 47.944L684.242 44.568V45.368L681.714 42.216C681.543 42.024 681.463 41.8427 681.474 41.672C681.485 41.4907 681.554 41.3467 681.682 41.24C681.81 41.1333 681.965 41.08 682.146 41.08C682.349 41.08 682.514 41.1173 682.642 41.192C682.781 41.256 682.909 41.368 683.026 41.528L685.154 44.232H684.578L686.722 41.528C686.839 41.368 686.962 41.256 687.09 41.192C687.229 41.1173 687.394 41.08 687.586 41.08C687.778 41.08 687.933 41.1387 688.05 41.256C688.178 41.3627 688.242 41.5067 688.242 41.688C688.253 41.8587 688.178 42.04 688.018 42.232L685.49 45.336V44.616L688.194 47.944C688.354 48.136 688.429 48.3227 688.418 48.504C688.418 48.6747 688.354 48.8187 688.226 48.936C688.098 49.0427 687.938 49.096 687.746 49.096C687.554 49.096 687.389 49.0587 687.25 48.984C687.122 48.9093 686.994 48.7973 686.866 48.648L684.578 45.768H685.122L682.85 48.648C682.733 48.7867 682.605 48.8987 682.466 48.984C682.338 49.0587 682.178 49.096 681.986 49.096Z" fill="#201F1F"/>
<path d="M596.68 90V78.5469H604.531V80.4844H598.992V83.1953H603.773V85.1328H598.992V90H596.68ZM606.43 80.5781V78.5469H608.625V80.5781H606.43ZM606.43 90V81.7031H608.625V90H606.43ZM612.984 90H610.789V81.7031H612.828V82.8828C613.177 82.3255 613.49 81.9583 613.766 81.7812C614.047 81.6042 614.365 81.5156 614.719 81.5156C615.219 81.5156 615.701 81.6536 616.164 81.9297L615.484 83.8438C615.115 83.6042 614.771 83.4844 614.453 83.4844C614.146 83.4844 613.885 83.5703 613.672 83.7422C613.458 83.9089 613.289 84.2135 613.164 84.6562C613.044 85.099 612.984 86.026 612.984 87.4375V90ZM616.344 87.6328L618.547 87.2969C618.641 87.724 618.831 88.0495 619.117 88.2734C619.404 88.4922 619.805 88.6016 620.32 88.6016C620.888 88.6016 621.315 88.4974 621.602 88.2891C621.794 88.1432 621.891 87.9479 621.891 87.7031C621.891 87.5365 621.839 87.3984 621.734 87.2891C621.625 87.1849 621.38 87.0885 621 87C619.229 86.6094 618.107 86.2526 617.633 85.9297C616.977 85.4818 616.648 84.8594 616.648 84.0625C616.648 83.3438 616.932 82.7396 617.5 82.25C618.068 81.7604 618.948 81.5156 620.141 81.5156C621.276 81.5156 622.12 81.7005 622.672 82.0703C623.224 82.4401 623.604 82.987 623.812 83.7109L621.742 84.0938C621.654 83.7708 621.484 83.5234 621.234 83.3516C620.99 83.1797 620.638 83.0938 620.18 83.0938C619.602 83.0938 619.188 83.1745 618.938 83.3359C618.771 83.4505 618.688 83.599 618.688 83.7812C618.688 83.9375 618.76 84.0703 618.906 84.1797C619.104 84.3255 619.786 84.5312 620.953 84.7969C622.125 85.0625 622.943 85.388 623.406 85.7734C623.865 86.1641 624.094 86.7083 624.094 87.4062C624.094 88.1667 623.776 88.8203 623.141 89.3672C622.505 89.9141 621.565 90.1875 620.32 90.1875C619.19 90.1875 618.294 89.9583 617.633 89.5C616.977 89.0417 616.547 88.4193 616.344 87.6328ZM629.828 81.7031V83.4531H628.328V86.7969C628.328 87.474 628.341 87.8698 628.367 87.9844C628.398 88.0938 628.464 88.1849 628.562 88.2578C628.667 88.3307 628.792 88.3672 628.938 88.3672C629.141 88.3672 629.435 88.2969 629.82 88.1562L630.008 89.8594C629.497 90.0781 628.919 90.1875 628.273 90.1875C627.878 90.1875 627.521 90.1224 627.203 89.9922C626.885 89.8568 626.651 89.6849 626.5 89.4766C626.354 89.263 626.253 88.9766 626.195 88.6172C626.148 88.362 626.125 87.8464 626.125 87.0703V83.4531H625.117V81.7031H626.125V80.0547L628.328 78.7734V81.7031H629.828ZM643.352 90H641.156V85.7656C641.156 84.8698 641.109 84.2917 641.016 84.0312C640.922 83.7656 640.768 83.5599 640.555 83.4141C640.346 83.2682 640.094 83.1953 639.797 83.1953C639.417 83.1953 639.076 83.2995 638.773 83.5078C638.471 83.7161 638.263 83.9922 638.148 84.3359C638.039 84.6797 637.984 85.3151 637.984 86.2422V90H635.789V81.7031H637.828V82.9219C638.552 81.9844 639.464 81.5156 640.562 81.5156C641.047 81.5156 641.49 81.6042 641.891 81.7812C642.292 81.9531 642.594 82.1745 642.797 82.4453C643.005 82.7161 643.148 83.0234 643.227 83.3672C643.31 83.7109 643.352 84.2031 643.352 84.8438V90ZM647.227 84.2344L645.234 83.875C645.458 83.0729 645.844 82.4792 646.391 82.0938C646.938 81.7083 647.75 81.5156 648.828 81.5156C649.807 81.5156 650.536 81.6328 651.016 81.8672C651.495 82.0964 651.831 82.3906 652.023 82.75C652.221 83.1042 652.32 83.7578 652.32 84.7109L652.297 87.2734C652.297 88.0026 652.331 88.5417 652.398 88.8906C652.471 89.2344 652.604 89.6042 652.797 90H650.625C650.568 89.8542 650.497 89.638 650.414 89.3516C650.378 89.2214 650.352 89.1354 650.336 89.0938C649.961 89.4583 649.56 89.7318 649.133 89.9141C648.706 90.0964 648.25 90.1875 647.766 90.1875C646.911 90.1875 646.237 89.9557 645.742 89.4922C645.253 89.0286 645.008 88.4427 645.008 87.7344C645.008 87.2656 645.12 86.849 645.344 86.4844C645.568 86.1146 645.88 85.8333 646.281 85.6406C646.688 85.4427 647.271 85.2708 648.031 85.125C649.057 84.9323 649.768 84.7526 650.164 84.5859V84.3672C650.164 83.9453 650.06 83.6458 649.852 83.4688C649.643 83.2865 649.25 83.1953 648.672 83.1953C648.281 83.1953 647.977 83.2734 647.758 83.4297C647.539 83.5807 647.362 83.849 647.227 84.2344ZM650.164 86.0156C649.883 86.1094 649.438 86.2214 648.828 86.3516C648.219 86.4818 647.82 86.6094 647.633 86.7344C647.346 86.9375 647.203 87.1953 647.203 87.5078C647.203 87.8151 647.318 88.0807 647.547 88.3047C647.776 88.5286 648.068 88.6406 648.422 88.6406C648.818 88.6406 649.195 88.5104 649.555 88.25C649.82 88.0521 649.995 87.8099 650.078 87.5234C650.135 87.3359 650.164 86.9792 650.164 86.4531V86.0156ZM654.328 81.7031H656.352V82.8359C657.076 81.9557 657.938 81.5156 658.938 81.5156C659.469 81.5156 659.93 81.625 660.32 81.8438C660.711 82.0625 661.031 82.3932 661.281 82.8359C661.646 82.3932 662.039 82.0625 662.461 81.8438C662.883 81.625 663.333 81.5156 663.812 81.5156C664.422 81.5156 664.938 81.6406 665.359 81.8906C665.781 82.1354 666.096 82.4974 666.305 82.9766C666.456 83.3307 666.531 83.9036 666.531 84.6953V90H664.336V85.2578C664.336 84.4349 664.26 83.9036 664.109 83.6641C663.906 83.3516 663.594 83.1953 663.172 83.1953C662.865 83.1953 662.576 83.2891 662.305 83.4766C662.034 83.6641 661.839 83.9401 661.719 84.3047C661.599 84.6641 661.539 85.2344 661.539 86.0156V90H659.344V85.4531C659.344 84.6458 659.305 84.125 659.227 83.8906C659.148 83.6562 659.026 83.4818 658.859 83.3672C658.698 83.2526 658.477 83.1953 658.195 83.1953C657.857 83.1953 657.552 83.2865 657.281 83.4688C657.01 83.651 656.815 83.9141 656.695 84.2578C656.581 84.6016 656.523 85.1719 656.523 85.9688V90H654.328V81.7031ZM673.531 87.3594L675.719 87.7266C675.438 88.5286 674.992 89.1406 674.383 89.5625C673.779 89.9792 673.021 90.1875 672.109 90.1875C670.667 90.1875 669.599 89.7161 668.906 88.7734C668.359 88.0182 668.086 87.0651 668.086 85.9141C668.086 84.5391 668.445 83.4635 669.164 82.6875C669.883 81.9062 670.792 81.5156 671.891 81.5156C673.125 81.5156 674.099 81.9245 674.812 82.7422C675.526 83.5547 675.867 84.8021 675.836 86.4844H670.336C670.352 87.1354 670.529 87.6432 670.867 88.0078C671.206 88.3672 671.628 88.5469 672.133 88.5469C672.477 88.5469 672.766 88.4531 673 88.2656C673.234 88.0781 673.411 87.776 673.531 87.3594ZM673.656 85.1406C673.641 84.5052 673.477 84.0234 673.164 83.6953C672.852 83.362 672.471 83.1953 672.023 83.1953C671.544 83.1953 671.148 83.3698 670.836 83.7188C670.523 84.0677 670.37 84.5417 670.375 85.1406H673.656Z" fill="#201F1F"/>
<mask id="path-9-inside-2_151_8080" fill="white">
<path d="M595.5 123.2C595.5 116.479 595.5 113.119 596.808 110.552C597.958 108.294 599.794 106.458 602.052 105.308C604.619 104 607.979 104 614.7 104H1107.8C1114.52 104 1117.88 104 1120.45 105.308C1122.71 106.458 1124.54 108.294 1125.69 110.552C1127 113.119 1127 116.479 1127 123.2V132.8C1127 139.521 1127 142.881 1125.69 145.448C1124.54 147.706 1122.71 149.542 1120.45 150.692C1117.88 152 1114.52 152 1107.8 152H614.7C607.979 152 604.619 152 602.052 150.692C599.794 149.542 597.958 147.706 596.808 145.448C595.5 142.881 595.5 139.521 595.5 132.8V123.2Z"/>
</mask>
<path d="M595.5 123.2C595.5 116.479 595.5 113.119 596.808 110.552C597.958 108.294 599.794 106.458 602.052 105.308C604.619 104 607.979 104 614.7 104H1107.8C1114.52 104 1117.88 104 1120.45 105.308C1122.71 106.458 1124.54 108.294 1125.69 110.552C1127 113.119 1127 116.479 1127 123.2V132.8C1127 139.521 1127 142.881 1125.69 145.448C1124.54 147.706 1122.71 149.542 1120.45 150.692C1117.88 152 1114.52 152 1107.8 152H614.7C607.979 152 604.619 152 602.052 150.692C599.794 149.542 597.958 147.706 596.808 145.448C595.5 142.881 595.5 139.521 595.5 132.8V123.2Z" fill="white"/>
<path d="M602.052 150.692L601.144 152.474L602.052 150.692ZM596.808 145.448L595.026 146.356L596.808 145.448ZM1125.69 145.448L1127.47 146.356L1125.69 145.448ZM1120.45 150.692L1121.36 152.474L1120.45 150.692ZM1120.45 105.308L1119.54 107.09L1120.45 105.308ZM1125.69 110.552L1123.91 111.46L1125.69 110.552ZM614.7 104V106H1107.8V104V102H614.7V104ZM1127 123.2H1125V132.8H1127H1129V123.2H1127ZM1107.8 152V150H614.7V152V154H1107.8V152ZM595.5 132.8H597.5V123.2H595.5H593.5V132.8H595.5ZM614.7 152V150C611.307 150 608.882 149.998 606.981 149.843C605.104 149.69 603.915 149.396 602.96 148.91L602.052 150.692L601.144 152.474C602.757 153.296 604.531 153.656 606.656 153.83C608.757 154.002 611.373 154 614.7 154V152ZM595.5 132.8H593.5C593.5 136.127 593.498 138.743 593.67 140.844C593.844 142.969 594.204 144.743 595.026 146.356L596.808 145.448L598.59 144.54C598.104 143.585 597.81 142.396 597.657 140.519C597.502 138.618 597.5 136.193 597.5 132.8H595.5ZM602.052 150.692L602.96 148.91C601.078 147.951 599.549 146.422 598.59 144.54L596.808 145.448L595.026 146.356C596.368 148.99 598.51 151.132 601.144 152.474L602.052 150.692ZM1127 132.8H1125C1125 136.193 1125 138.618 1124.84 140.519C1124.69 142.396 1124.4 143.585 1123.91 144.54L1125.69 145.448L1127.47 146.356C1128.3 144.743 1128.66 142.969 1128.83 140.844C1129 138.743 1129 136.127 1129 132.8H1127ZM1107.8 152V154C1111.13 154 1113.74 154.002 1115.84 153.83C1117.97 153.656 1119.74 153.296 1121.36 152.474L1120.45 150.692L1119.54 148.91C1118.59 149.396 1117.4 149.69 1115.52 149.843C1113.62 149.998 1111.19 150 1107.8 150V152ZM1125.69 145.448L1123.91 144.54C1122.95 146.422 1121.42 147.951 1119.54 148.91L1120.45 150.692L1121.36 152.474C1123.99 151.132 1126.13 148.99 1127.47 146.356L1125.69 145.448ZM1107.8 104V106C1111.19 106 1113.62 106.002 1115.52 106.157C1117.4 106.31 1118.59 106.604 1119.54 107.09L1120.45 105.308L1121.36 103.526C1119.74 102.704 1117.97 102.344 1115.84 102.17C1113.74 101.998 1111.13 102 1107.8 102V104ZM1127 123.2H1129C1129 119.873 1129 117.257 1128.83 115.156C1128.66 113.031 1128.3 111.257 1127.47 109.644L1125.69 110.552L1123.91 111.46C1124.4 112.415 1124.69 113.604 1124.84 115.481C1125 117.382 1125 119.807 1125 123.2H1127ZM1120.45 105.308L1119.54 107.09C1121.42 108.049 1122.95 109.578 1123.91 111.46L1125.69 110.552L1127.47 109.644C1126.13 107.01 1123.99 104.868 1121.36 103.526L1120.45 105.308ZM614.7 104V102C611.373 102 608.757 101.998 606.656 102.17C604.531 102.344 602.757 102.704 601.144 103.526L602.052 105.308L602.96 107.09C603.915 106.604 605.104 106.31 606.981 106.157C608.882 106.002 611.307 106 614.7 106V104ZM595.5 123.2H597.5C597.5 119.807 597.502 117.382 597.657 115.481C597.81 113.604 598.104 112.415 598.59 111.46L596.808 110.552L595.026 109.644C594.204 111.257 593.844 113.031 593.67 115.156C593.498 117.257 593.5 119.873 593.5 123.2H595.5ZM602.052 105.308L601.144 103.526C598.51 104.868 596.368 107.01 595.026 109.644L596.808 110.552L598.59 111.46C599.549 109.578 601.078 108.049 602.96 107.09L602.052 105.308Z" fill="#1F3B5B" mask="url(#path-9-inside-2_151_8080)"/>
<g clip-path="url(#clip0_151_8080)">
<path d="M614.682 118.614V137.75H613.545V118.614H614.682Z" fill="#3E3E3D"/>
</g>
<path d="M596.607 175V164.979H603.854V166.161H597.934V169.23H603.478V170.406H597.934V173.817H604.086V175H596.607ZM605.761 175V167.74H606.868V168.772C607.401 167.975 608.172 167.576 609.179 167.576C609.616 167.576 610.017 167.656 610.382 167.815C610.751 167.97 611.027 168.175 611.209 168.431C611.391 168.686 611.519 168.989 611.592 169.34C611.637 169.568 611.66 169.966 611.66 170.536V175H610.43V170.584C610.43 170.083 610.382 169.709 610.286 169.463C610.19 169.212 610.02 169.014 609.773 168.868C609.532 168.718 609.247 168.643 608.919 168.643C608.395 168.643 607.941 168.809 607.559 169.142C607.18 169.474 606.991 170.105 606.991 171.035V175H605.761ZM616.24 173.899L616.418 174.986C616.072 175.059 615.762 175.096 615.488 175.096C615.042 175.096 614.695 175.025 614.449 174.884C614.203 174.743 614.03 174.558 613.93 174.33C613.829 174.098 613.779 173.612 613.779 172.874V168.697H612.877V167.74H613.779V165.942L615.003 165.204V167.74H616.24V168.697H615.003V172.942C615.003 173.293 615.023 173.519 615.064 173.619C615.11 173.719 615.181 173.799 615.276 173.858C615.377 173.918 615.518 173.947 615.7 173.947C615.837 173.947 616.017 173.931 616.24 173.899ZM622.42 172.662L623.691 172.819C623.491 173.562 623.119 174.139 622.577 174.549C622.035 174.959 621.342 175.164 620.499 175.164C619.437 175.164 618.594 174.838 617.97 174.187C617.35 173.53 617.04 172.612 617.04 171.432C617.04 170.21 617.354 169.262 617.983 168.588C618.612 167.913 619.428 167.576 620.431 167.576C621.401 167.576 622.194 167.907 622.81 168.567C623.425 169.228 623.732 170.158 623.732 171.356C623.732 171.429 623.73 171.539 623.726 171.685H618.312C618.357 172.482 618.583 173.093 618.988 173.517C619.394 173.94 619.9 174.152 620.506 174.152C620.957 174.152 621.342 174.034 621.661 173.797C621.98 173.56 622.233 173.182 622.42 172.662ZM618.38 170.673H622.434C622.379 170.062 622.224 169.604 621.969 169.299C621.577 168.825 621.069 168.588 620.444 168.588C619.879 168.588 619.403 168.777 619.016 169.155C618.633 169.534 618.421 170.039 618.38 170.673ZM625.229 175V167.74H626.337V168.841C626.619 168.326 626.879 167.986 627.116 167.822C627.358 167.658 627.622 167.576 627.909 167.576C628.324 167.576 628.745 167.708 629.174 167.973L628.75 169.114C628.449 168.937 628.148 168.848 627.848 168.848C627.579 168.848 627.337 168.93 627.123 169.094C626.909 169.253 626.756 169.477 626.665 169.764C626.528 170.201 626.46 170.68 626.46 171.199V175H625.229ZM633.747 177.796L633.61 176.641C633.879 176.714 634.114 176.75 634.314 176.75C634.588 176.75 634.807 176.704 634.971 176.613C635.135 176.522 635.269 176.395 635.374 176.23C635.451 176.107 635.577 175.802 635.75 175.314C635.773 175.246 635.809 175.146 635.859 175.014L633.104 167.74H634.431L635.941 171.944C636.137 172.478 636.313 173.038 636.468 173.626C636.609 173.061 636.778 172.509 636.974 171.972L638.525 167.74H639.756L636.994 175.123C636.698 175.921 636.468 176.47 636.304 176.771C636.085 177.176 635.834 177.472 635.552 177.659C635.269 177.851 634.932 177.946 634.54 177.946C634.303 177.946 634.039 177.896 633.747 177.796ZM640.344 171.37C640.344 170.026 640.717 169.03 641.465 168.383C642.089 167.845 642.85 167.576 643.748 167.576C644.746 167.576 645.562 167.904 646.195 168.561C646.829 169.212 647.146 170.115 647.146 171.268C647.146 172.202 647.004 172.938 646.722 173.476C646.444 174.009 646.036 174.424 645.498 174.72C644.965 175.016 644.382 175.164 643.748 175.164C642.732 175.164 641.909 174.838 641.28 174.187C640.656 173.535 640.344 172.596 640.344 171.37ZM641.608 171.37C641.608 172.3 641.811 172.997 642.217 173.462C642.622 173.922 643.133 174.152 643.748 174.152C644.359 174.152 644.867 173.92 645.272 173.455C645.678 172.99 645.881 172.282 645.881 171.329C645.881 170.431 645.676 169.752 645.266 169.292C644.86 168.827 644.354 168.595 643.748 168.595C643.133 168.595 642.622 168.825 642.217 169.285C641.811 169.745 641.608 170.44 641.608 171.37ZM653.353 175V173.934C652.787 174.754 652.02 175.164 651.049 175.164C650.62 175.164 650.219 175.082 649.846 174.918C649.477 174.754 649.201 174.549 649.019 174.303C648.841 174.052 648.715 173.747 648.643 173.387C648.592 173.145 648.567 172.762 648.567 172.238V167.74H649.798V171.767C649.798 172.409 649.823 172.842 649.873 173.065C649.951 173.389 650.115 173.644 650.365 173.831C650.616 174.013 650.926 174.104 651.295 174.104C651.664 174.104 652.01 174.011 652.334 173.824C652.658 173.633 652.885 173.375 653.018 173.052C653.154 172.724 653.223 172.25 653.223 171.63V167.74H654.453V175H653.353ZM656.374 175V167.74H657.481V168.841C657.764 168.326 658.024 167.986 658.261 167.822C658.502 167.658 658.767 167.576 659.054 167.576C659.468 167.576 659.89 167.708 660.318 167.973L659.895 169.114C659.594 168.937 659.293 168.848 658.992 168.848C658.723 168.848 658.482 168.93 658.268 169.094C658.053 169.253 657.901 169.477 657.81 169.764C657.673 170.201 657.604 170.68 657.604 171.199V175H656.374ZM665.24 175V168.697H664.153V167.74H665.24V166.968C665.24 166.48 665.284 166.118 665.37 165.881C665.489 165.562 665.696 165.304 665.992 165.108C666.293 164.908 666.712 164.808 667.25 164.808C667.596 164.808 667.979 164.849 668.398 164.931L668.214 166.004C667.959 165.958 667.717 165.936 667.489 165.936C667.116 165.936 666.851 166.015 666.696 166.175C666.541 166.334 666.464 166.633 666.464 167.07V167.74H667.879V168.697H666.464V175H665.24ZM668.85 166.394V164.979H670.08V166.394H668.85ZM668.85 175V167.74H670.08V175H668.85ZM671.946 175V167.74H673.054V168.841C673.336 168.326 673.596 167.986 673.833 167.822C674.075 167.658 674.339 167.576 674.626 167.576C675.041 167.576 675.462 167.708 675.891 167.973L675.467 169.114C675.166 168.937 674.865 168.848 674.564 168.848C674.296 168.848 674.054 168.93 673.84 169.094C673.626 169.253 673.473 169.477 673.382 169.764C673.245 170.201 673.177 170.68 673.177 171.199V175H671.946ZM676.13 172.833L677.347 172.642C677.415 173.129 677.604 173.503 677.914 173.763C678.229 174.022 678.666 174.152 679.227 174.152C679.792 174.152 680.211 174.038 680.484 173.811C680.758 173.578 680.895 173.307 680.895 172.997C680.895 172.719 680.774 172.5 680.532 172.341C680.364 172.231 679.944 172.092 679.274 171.924C678.372 171.696 677.745 171.5 677.395 171.336C677.048 171.167 676.784 170.937 676.602 170.646C676.424 170.349 676.335 170.023 676.335 169.668C676.335 169.344 676.408 169.046 676.554 168.772C676.704 168.494 676.907 168.264 677.162 168.082C677.354 167.941 677.613 167.822 677.941 167.727C678.274 167.626 678.63 167.576 679.008 167.576C679.577 167.576 680.076 167.658 680.505 167.822C680.938 167.986 681.257 168.21 681.462 168.492C681.667 168.77 681.808 169.144 681.886 169.613L680.683 169.777C680.628 169.404 680.468 169.112 680.204 168.902C679.944 168.693 679.575 168.588 679.097 168.588C678.532 168.588 678.128 168.681 677.887 168.868C677.645 169.055 677.524 169.274 677.524 169.524C677.524 169.684 677.575 169.827 677.675 169.955C677.775 170.087 677.932 170.197 678.146 170.283C678.27 170.329 678.632 170.434 679.233 170.598C680.104 170.83 680.71 171.021 681.052 171.172C681.398 171.318 681.669 171.532 681.865 171.814C682.061 172.097 682.159 172.448 682.159 172.867C682.159 173.277 682.038 173.665 681.797 174.029C681.56 174.389 681.216 174.67 680.765 174.87C680.313 175.066 679.803 175.164 679.233 175.164C678.29 175.164 677.57 174.968 677.073 174.576C676.581 174.184 676.267 173.603 676.13 172.833ZM686.309 173.899L686.486 174.986C686.14 175.059 685.83 175.096 685.557 175.096C685.11 175.096 684.764 175.025 684.518 174.884C684.271 174.743 684.098 174.558 683.998 174.33C683.898 174.098 683.848 173.612 683.848 172.874V168.697H682.945V167.74H683.848V165.942L685.071 165.204V167.74H686.309V168.697H685.071V172.942C685.071 173.293 685.092 173.519 685.133 173.619C685.178 173.719 685.249 173.799 685.345 173.858C685.445 173.918 685.586 173.947 685.769 173.947C685.905 173.947 686.085 173.931 686.309 173.899ZM691.415 175V167.74H692.522V168.772C693.056 167.975 693.826 167.576 694.833 167.576C695.271 167.576 695.672 167.656 696.036 167.815C696.405 167.97 696.681 168.175 696.863 168.431C697.046 168.686 697.173 168.989 697.246 169.34C697.292 169.568 697.314 169.966 697.314 170.536V175H696.084V170.584C696.084 170.083 696.036 169.709 695.94 169.463C695.845 169.212 695.674 169.014 695.428 168.868C695.186 168.718 694.901 168.643 694.573 168.643C694.049 168.643 693.596 168.809 693.213 169.142C692.835 169.474 692.646 170.105 692.646 171.035V175H691.415ZM703.945 174.104C703.49 174.492 703.05 174.765 702.626 174.925C702.207 175.084 701.756 175.164 701.272 175.164C700.475 175.164 699.862 174.97 699.434 174.583C699.005 174.191 698.791 173.692 698.791 173.086C698.791 172.73 698.871 172.407 699.03 172.115C699.194 171.819 699.406 171.582 699.666 171.404C699.93 171.227 700.227 171.092 700.555 171.001C700.796 170.937 701.161 170.876 701.648 170.816C702.642 170.698 703.373 170.557 703.843 170.393C703.847 170.224 703.85 170.117 703.85 170.071C703.85 169.57 703.733 169.217 703.501 169.012C703.187 168.734 702.719 168.595 702.1 168.595C701.521 168.595 701.092 168.697 700.814 168.902C700.541 169.103 700.338 169.461 700.206 169.976L699.003 169.812C699.112 169.297 699.292 168.882 699.543 168.567C699.794 168.248 700.156 168.005 700.63 167.836C701.104 167.663 701.653 167.576 702.277 167.576C702.897 167.576 703.401 167.649 703.788 167.795C704.175 167.941 704.46 168.125 704.643 168.349C704.825 168.567 704.952 168.845 705.025 169.183C705.066 169.392 705.087 169.771 705.087 170.317V171.958C705.087 173.102 705.112 173.826 705.162 174.132C705.217 174.433 705.322 174.722 705.477 175H704.191C704.064 174.745 703.982 174.446 703.945 174.104ZM703.843 171.356C703.396 171.539 702.726 171.694 701.833 171.821C701.327 171.894 700.969 171.976 700.76 172.067C700.55 172.159 700.388 172.293 700.274 172.471C700.16 172.644 700.104 172.838 700.104 173.052C700.104 173.38 700.227 173.653 700.473 173.872C700.723 174.091 701.088 174.2 701.566 174.2C702.04 174.2 702.462 174.098 702.831 173.893C703.2 173.683 703.471 173.398 703.645 173.038C703.777 172.76 703.843 172.35 703.843 171.808V171.356ZM707.001 175V167.74H708.102V168.759C708.329 168.403 708.632 168.118 709.011 167.904C709.389 167.686 709.82 167.576 710.303 167.576C710.84 167.576 711.28 167.688 711.622 167.911C711.968 168.134 712.212 168.447 712.354 168.848C712.928 168 713.675 167.576 714.596 167.576C715.316 167.576 715.869 167.777 716.257 168.178C716.644 168.574 716.838 169.187 716.838 170.017V175H715.614V170.427C715.614 169.935 715.573 169.581 715.491 169.367C715.414 169.148 715.27 168.973 715.061 168.841C714.851 168.709 714.605 168.643 714.322 168.643C713.812 168.643 713.388 168.813 713.051 169.155C712.714 169.493 712.545 170.035 712.545 170.782V175H711.314V170.283C711.314 169.736 711.214 169.326 711.014 169.053C710.813 168.779 710.485 168.643 710.029 168.643C709.683 168.643 709.362 168.734 709.065 168.916C708.774 169.098 708.562 169.365 708.43 169.716C708.298 170.067 708.231 170.573 708.231 171.233V175H707.001ZM723.633 172.662L724.904 172.819C724.704 173.562 724.332 174.139 723.79 174.549C723.248 174.959 722.555 175.164 721.712 175.164C720.65 175.164 719.807 174.838 719.183 174.187C718.563 173.53 718.253 172.612 718.253 171.432C718.253 170.21 718.567 169.262 719.196 168.588C719.825 167.913 720.641 167.576 721.644 167.576C722.614 167.576 723.407 167.907 724.022 168.567C724.638 169.228 724.945 170.158 724.945 171.356C724.945 171.429 724.943 171.539 724.938 171.685H719.524C719.57 172.482 719.796 173.093 720.201 173.517C720.607 173.94 721.113 174.152 721.719 174.152C722.17 174.152 722.555 174.034 722.874 173.797C723.193 173.56 723.446 173.182 723.633 172.662ZM719.593 170.673H723.646C723.592 170.062 723.437 169.604 723.182 169.299C722.79 168.825 722.282 168.588 721.657 168.588C721.092 168.588 720.616 168.777 720.229 169.155C719.846 169.534 719.634 170.039 719.593 170.673Z" fill="#3E3E3D"/>
<defs>
<clipPath id="clip0_151_8080">
<rect width="499.5" height="24" fill="white" transform="translate(611.5 116)"/>
</clipPath>
</defs>
</svg>
