<svg viewBox="0 0 20 20" fill="none" xmlns="http://www.w3.org/2000/svg">
<path d="M10 11.1667L12.4167 13.5834C12.5695 13.7361 12.7639 13.8125 13 13.8125C13.2361 13.8125 13.4306 13.7361 13.5834 13.5834C13.7361 13.4306 13.8125 13.2361 13.8125 13C13.8125 12.7639 13.7361 12.5695 13.5834 12.4167L11.1667 10L13.5834 7.58335C13.7361 7.43058 13.8125 7.23613 13.8125 7.00002C13.8125 6.76391 13.7361 6.56946 13.5834 6.41669C13.4306 6.26391 13.2361 6.18752 13 6.18752C12.7639 6.18752 12.5695 6.26391 12.4167 6.41669L10 8.83335L7.58335 6.41669C7.43058 6.26391 7.23613 6.18752 7.00002 6.18752C6.76391 6.18752 6.56946 6.26391 6.41669 6.41669C6.26391 6.56946 6.18752 6.76391 6.18752 7.00002C6.18752 7.23613 6.26391 7.43058 6.41669 7.58335L8.83335 10L6.41669 12.4167C6.26391 12.5695 6.18752 12.7639 6.18752 13C6.18752 13.2361 6.26391 13.4306 6.41669 13.5834C6.56946 13.7361 6.76391 13.8125 7.00002 13.8125C7.23613 13.8125 7.43058 13.7361 7.58335 13.5834L10 11.1667ZM10 18.3334C8.84724 18.3334 7.76391 18.1146 6.75002 17.6771C5.73613 17.2396 4.85419 16.6459 4.10419 15.8959C3.35419 15.1459 2.76044 14.2639 2.32294 13.25C1.88544 12.2361 1.66669 11.1528 1.66669 10C1.66669 8.84724 1.88544 7.76391 2.32294 6.75002C2.76044 5.73613 3.35419 4.85419 4.10419 4.10419C4.85419 3.35419 5.73613 2.76044 6.75002 2.32294C7.76391 1.88544 8.84724 1.66669 10 1.66669C11.1528 1.66669 12.2361 1.88544 13.25 2.32294C14.2639 2.76044 15.1459 3.35419 15.8959 4.10419C16.6459 4.85419 17.2396 5.73613 17.6771 6.75002C18.1146 7.76391 18.3334 8.84724 18.3334 10C18.3334 11.1528 18.1146 12.2361 17.6771 13.25C17.2396 14.2639 16.6459 15.1459 15.8959 15.8959C15.1459 16.6459 14.2639 17.2396 13.25 17.6771C12.2361 18.1146 11.1528 18.3334 10 18.3334ZM10 16.6667C11.8611 16.6667 13.4375 16.0209 14.7292 14.7292C16.0209 13.4375 16.6667 11.8611 16.6667 10C16.6667 8.13891 16.0209 6.56252 14.7292 5.27085C13.4375 3.97919 11.8611 3.33335 10 3.33335C8.13891 3.33335 6.56252 3.97919 5.27085 5.27085C3.97919 6.56252 3.33335 8.13891 3.33335 10C3.33335 11.8611 3.97919 13.4375 5.27085 14.7292C6.56252 16.0209 8.13891 16.6667 10 16.6667Z" fill="currentColor"/>
</svg>