<svg viewBox="0 0 20 20" fill="none" xmlns="http://www.w3.org/2000/svg">
<path d="M3.3335 11.6667C3.3335 10.0972 3.79877 8.59028 4.72933 7.14584C5.65989 5.70139 6.93766 4.4375 8.56266 3.35417C8.86822 3.14584 9.18419 3.13542 9.51058 3.32292C9.83697 3.51042 10.0002 3.79167 10.0002 4.16667V5.25C10.0002 5.72223 10.1634 6.11806 10.4897 6.4375C10.8161 6.75695 11.2154 6.91667 11.6877 6.91667C11.9238 6.91667 12.1495 6.86459 12.3647 6.76042C12.58 6.65625 12.771 6.50695 12.9377 6.3125C13.0488 6.17362 13.1911 6.08681 13.3647 6.05209C13.5384 6.01737 13.7016 6.05556 13.8543 6.16667C14.7293 6.79167 15.4168 7.59028 15.9168 8.5625C16.4168 9.53473 16.6668 10.5694 16.6668 11.6667C16.6668 12.8889 16.3682 14.0035 15.771 15.0104C15.1738 16.0174 14.3891 16.8125 13.4168 17.3958C13.6529 17.0625 13.837 16.6979 13.9689 16.3021C14.1009 15.9063 14.1668 15.4861 14.1668 15.0417C14.1668 14.4861 14.0627 13.9618 13.8543 13.4688C13.646 12.9757 13.3474 12.5347 12.9585 12.1458L10.0002 9.25L7.06266 12.1458C6.65989 12.5486 6.35433 12.9931 6.146 13.4792C5.93766 13.9653 5.8335 14.4861 5.8335 15.0417C5.8335 15.4861 5.89947 15.9063 6.03141 16.3021C6.16336 16.6979 6.34739 17.0625 6.5835 17.3958C5.61127 16.8125 4.82655 16.0174 4.22933 15.0104C3.63211 14.0035 3.3335 12.8889 3.3335 11.6667ZM10.0002 11.5833L11.771 13.3125C12.0071 13.5486 12.1877 13.8125 12.3127 14.1042C12.4377 14.3958 12.5002 14.7083 12.5002 15.0417C12.5002 15.7222 12.2571 16.3021 11.771 16.7813C11.2849 17.2604 10.6946 17.5 10.0002 17.5C9.30572 17.5 8.71544 17.2604 8.22933 16.7813C7.74322 16.3021 7.50016 15.7222 7.50016 15.0417C7.50016 14.7222 7.56266 14.4132 7.68766 14.1146C7.81266 13.816 7.99322 13.5486 8.22933 13.3125L10.0002 11.5833Z" fill="currentColor"/>
</svg>