<svg viewBox="0 0 20 20" fill="none" xmlns="http://www.w3.org/2000/svg">
<path d="M13.3333 15.8334C12.875 15.8334 12.4826 15.6702 12.1562 15.3438C11.8299 15.0174 11.6667 14.625 11.6667 14.1667V5.83335C11.6667 5.37502 11.8299 4.98266 12.1562 4.65627C12.4826 4.32988 12.875 4.16669 13.3333 4.16669C13.7917 4.16669 14.184 4.32988 14.5104 4.65627C14.8368 4.98266 15 5.37502 15 5.83335V14.1667C15 14.625 14.8368 15.0174 14.5104 15.3438C14.184 15.6702 13.7917 15.8334 13.3333 15.8334ZM6.66667 15.8334C6.20833 15.8334 5.81597 15.6702 5.48958 15.3438C5.16319 15.0174 5 14.625 5 14.1667V5.83335C5 5.37502 5.16319 4.98266 5.48958 4.65627C5.81597 4.32988 6.20833 4.16669 6.66667 4.16669C7.125 4.16669 7.51736 4.32988 7.84375 4.65627C8.17014 4.98266 8.33333 5.37502 8.33333 5.83335V14.1667C8.33333 14.625 8.17014 15.0174 7.84375 15.3438C7.51736 15.6702 7.125 15.8334 6.66667 15.8334Z" fill="currentColor"/>
</svg>