<svg viewBox="0 0 20 20" fill="none" xmlns="http://www.w3.org/2000/svg">
<path d="M15.5 15.7813V14.4896C15.5 14.3507 15.4514 14.2326 15.3542 14.1354C15.2569 14.0382 15.1389 13.9896 15 13.9896C14.8611 13.9896 14.7431 14.0382 14.6458 14.1354C14.5486 14.2326 14.5 14.3507 14.5 14.4896V15.8854C14.5 15.9965 14.5208 16.0972 14.5625 16.1875C14.6042 16.2778 14.6597 16.3576 14.7292 16.4271L15.7917 17.4896C15.8889 17.5868 16.0069 17.6354 16.1458 17.6354C16.2847 17.6354 16.4028 17.5868 16.5 17.4896C16.5972 17.3924 16.6458 17.2743 16.6458 17.1354C16.6458 16.9965 16.5972 16.8785 16.5 16.7813L15.5 15.7813ZM10.3854 10.5833C10.5174 10.5486 10.6389 10.4965 10.75 10.4271L14.8542 8.05209C15.0347 7.94098 15.1528 7.78821 15.2083 7.59376C15.2639 7.39932 15.2361 7.21182 15.125 7.03126C15.0139 6.85071 14.8611 6.73265 14.6667 6.67709C14.4722 6.62154 14.2847 6.64932 14.1042 6.76043L10 9.11459L5.89583 6.76043C5.71528 6.64932 5.52778 6.62154 5.33333 6.67709C5.13889 6.73265 4.98611 6.85071 4.875 7.03126C4.76389 7.21182 4.73611 7.39932 4.79167 7.59376C4.84722 7.78821 4.96528 7.94098 5.14583 8.05209L9.25 10.4271C9.36111 10.4965 9.48264 10.5486 9.61458 10.5833C9.74653 10.6181 9.875 10.6354 10 10.6354C10.125 10.6354 10.2535 10.6181 10.3854 10.5833ZM3 13.3229V6.65626C3 6.37848 3.06597 6.12848 3.19792 5.90626C3.32986 5.68404 3.51389 5.50348 3.75 5.36459L9.22917 2.19793C9.34028 2.12848 9.46181 2.0764 9.59375 2.04168C9.72569 2.00695 9.86111 1.98959 10 1.98959C10.1389 1.98959 10.2743 2.00695 10.4062 2.04168C10.5382 2.0764 10.6597 2.12848 10.7708 2.19793L16.25 5.36459C16.4861 5.50348 16.6701 5.68404 16.8021 5.90626C16.934 6.12848 17 6.37848 17 6.65626V9.96876C17 10.191 16.9097 10.3681 16.7292 10.5C16.5486 10.632 16.3472 10.6701 16.125 10.6146C15.9306 10.5729 15.7431 10.5417 15.5625 10.5208C15.3819 10.5 15.1944 10.4896 15 10.4896C13.4722 10.4896 12.1736 11.0243 11.1042 12.0938C10.0347 13.1632 9.5 14.4618 9.5 15.9896V16.3021C9.5 16.3993 9.50694 16.4965 9.52083 16.5938C9.54861 16.9132 9.44444 17.1597 9.20833 17.3333C8.97222 17.507 8.73611 17.5174 8.5 17.3646L3.75 14.6146C3.51389 14.4757 3.32986 14.2951 3.19792 14.0729C3.06597 13.8507 3 13.6007 3 13.3229ZM12.1667 18.8229C11.3889 18.0451 11 17.1007 11 15.9896C11 14.8785 11.3889 13.934 12.1667 13.1563C12.9444 12.3785 13.8889 11.9896 15 11.9896C16.1111 11.9896 17.0556 12.3785 17.8333 13.1563C18.6111 13.934 19 14.8785 19 15.9896C19 17.1007 18.6111 18.0451 17.8333 18.8229C17.0556 19.6007 16.1111 19.9896 15 19.9896C13.8889 19.9896 12.9444 19.6007 12.1667 18.8229Z" fill="currentColor"/>
</svg>
