<svg viewBox="0 0 20 20" fill="none" xmlns="http://www.w3.org/2000/svg">
<path d="M9.99977 18.3334C9.54143 18.3334 9.14907 18.1702 8.82268 17.8438C8.49629 17.5174 8.3331 17.125 8.3331 16.6667H11.6664C11.6664 17.125 11.5032 17.5174 11.1768 17.8438C10.8505 18.1702 10.4581 18.3334 9.99977 18.3334ZM14.5414 12.1667L5.7081 3.37502C6.27754 2.84724 6.92685 2.43058 7.65602 2.12502C8.38518 1.81946 9.16643 1.66669 9.99977 1.66669C11.7359 1.66669 13.2116 2.27433 14.4268 3.4896C15.6421 4.70488 16.2498 6.18058 16.2498 7.91669C16.2498 8.9028 16.0762 9.74655 15.7289 10.4479C15.3817 11.1493 14.9859 11.7222 14.5414 12.1667ZM10.9581 13.3334H6.87477C5.91643 12.7639 5.15602 12 4.59352 11.0417C4.03102 10.0834 3.74977 9.04169 3.74977 7.91669C3.74977 7.63891 3.76713 7.36808 3.80185 7.10419C3.83657 6.8403 3.88865 6.58335 3.9581 6.33335L1.74977 4.08335C1.59699 3.93058 1.51713 3.7396 1.51018 3.51044C1.50324 3.28127 1.5831 3.08335 1.74977 2.91669C1.90254 2.76391 2.09699 2.68752 2.3331 2.68752C2.56921 2.68752 2.76365 2.76391 2.91643 2.91669L17.0831 17.0834C17.2498 17.25 17.3331 17.4445 17.3331 17.6667C17.3331 17.8889 17.2498 18.0834 17.0831 18.25C16.9164 18.4167 16.7185 18.5 16.4893 18.5C16.2602 18.5 16.0623 18.4167 15.8956 18.25L10.9581 13.3334ZM7.49977 15.8334C7.26365 15.8334 7.06574 15.7535 6.90602 15.5938C6.74629 15.434 6.66643 15.2361 6.66643 15C6.66643 14.7639 6.74629 14.566 6.90602 14.4063C7.06574 14.2465 7.26365 14.1667 7.49977 14.1667H12.6248C12.8609 14.1667 13.0588 14.2465 13.2185 14.4063C13.3782 14.566 13.4581 14.7639 13.4581 15C13.4581 15.2361 13.3782 15.434 13.2185 15.5938C13.0588 15.7535 12.8609 15.8334 12.6248 15.8334H7.49977Z" fill="currentColor"/>
</svg>