<svg viewBox="0 0 20 20" fill="none" xmlns="http://www.w3.org/2000/svg">
<path d="M5.83333 17.5C5.37499 17.5 4.98263 17.3368 4.65624 17.0104C4.32986 16.684 4.16666 16.2917 4.16666 15.8333V5C3.93055 5 3.73263 4.92014 3.57291 4.76042C3.41319 4.60069 3.33333 4.40278 3.33333 4.16667C3.33333 3.93056 3.41319 3.73264 3.57291 3.57292C3.73263 3.41319 3.93055 3.33333 4.16666 3.33333H7.49999C7.49999 3.09722 7.57986 2.89931 7.73958 2.73958C7.8993 2.57986 8.09722 2.5 8.33333 2.5H11.6667C11.9028 2.5 12.1007 2.57986 12.2604 2.73958C12.4201 2.89931 12.5 3.09722 12.5 3.33333H15.8333C16.0694 3.33333 16.2674 3.41319 16.4271 3.57292C16.5868 3.73264 16.6667 3.93056 16.6667 4.16667C16.6667 4.40278 16.5868 4.60069 16.4271 4.76042C16.2674 4.92014 16.0694 5 15.8333 5V15.8333C15.8333 16.2917 15.6701 16.684 15.3437 17.0104C15.0174 17.3368 14.625 17.5 14.1667 17.5H5.83333ZM14.1667 5H5.83333V15.8333H14.1667V5ZM8.33333 14.1667C8.56944 14.1667 8.76736 14.0868 8.92708 13.9271C9.0868 13.7674 9.16666 13.5694 9.16666 13.3333V7.5C9.16666 7.26389 9.0868 7.06597 8.92708 6.90625C8.76736 6.74653 8.56944 6.66667 8.33333 6.66667C8.09722 6.66667 7.8993 6.74653 7.73958 6.90625C7.57986 7.06597 7.49999 7.26389 7.49999 7.5V13.3333C7.49999 13.5694 7.57986 13.7674 7.73958 13.9271C7.8993 14.0868 8.09722 14.1667 8.33333 14.1667ZM11.6667 14.1667C11.9028 14.1667 12.1007 14.0868 12.2604 13.9271C12.4201 13.7674 12.5 13.5694 12.5 13.3333V7.5C12.5 7.26389 12.4201 7.06597 12.2604 6.90625C12.1007 6.74653 11.9028 6.66667 11.6667 6.66667C11.4305 6.66667 11.2326 6.74653 11.0729 6.90625C10.9132 7.06597 10.8333 7.26389 10.8333 7.5V13.3333C10.8333 13.5694 10.9132 13.7674 11.0729 13.9271C11.2326 14.0868 11.4305 14.1667 11.6667 14.1667Z" fill="currentColor"/>
</svg>