<svg viewBox="0 0 20 20" fill="none" xmlns="http://www.w3.org/2000/svg">
<path d="M4.16667 15.8333H5.35417L13.5 7.6875L12.3125 6.5L4.16667 14.6458V15.8333ZM3.33333 17.5C3.09722 17.5 2.89931 17.4201 2.73958 17.2604C2.57986 17.1007 2.5 16.9028 2.5 16.6667V14.6458C2.5 14.4236 2.54167 14.2118 2.625 14.0104C2.70833 13.809 2.82639 13.6319 2.97917 13.4792L13.5 2.97917C13.6667 2.82639 13.8507 2.70833 14.0521 2.625C14.2535 2.54167 14.4653 2.5 14.6875 2.5C14.9097 2.5 15.125 2.54167 15.3333 2.625C15.5417 2.70833 15.7222 2.83333 15.875 3L17.0208 4.16667C17.1875 4.31944 17.309 4.5 17.3854 4.70833C17.4618 4.91667 17.5 5.125 17.5 5.33333C17.5 5.55556 17.4618 5.76736 17.3854 5.96875C17.309 6.17014 17.1875 6.35417 17.0208 6.52083L6.52083 17.0208C6.36806 17.1736 6.19097 17.2917 5.98958 17.375C5.78819 17.4583 5.57639 17.5 5.35417 17.5H3.33333ZM12.8958 7.10417L12.3125 6.5L13.5 7.6875L12.8958 7.10417Z" fill="currentColor"/>
</svg>