<svg viewBox="0 0 20 20" fill="none" xmlns="http://www.w3.org/2000/svg">
<path d="M13.4583 15.8334H4.16665C3.93054 15.8334 3.73262 15.7535 3.5729 15.5938C3.41317 15.434 3.33331 15.2361 3.33331 15C3.33331 14.7639 3.41317 14.566 3.5729 14.4063C3.73262 14.2465 3.93054 14.1667 4.16665 14.1667H4.99998V8.33335C4.99998 7.87502 5.05901 7.42363 5.17706 6.97919C5.29512 6.53474 5.4722 6.11113 5.70831 5.70835L6.95831 6.95835C6.86109 7.18058 6.78817 7.40627 6.73956 7.63544C6.69095 7.8646 6.66665 8.09724 6.66665 8.33335V14.1667H11.8333L1.74998 4.08335C1.5972 3.93058 1.52081 3.73613 1.52081 3.50002C1.52081 3.26391 1.5972 3.06946 1.74998 2.91669C1.90276 2.76391 2.0972 2.68752 2.33331 2.68752C2.56942 2.68752 2.76387 2.76391 2.91665 2.91669L17.0833 17.0834C17.2361 17.2361 17.316 17.4271 17.3229 17.6563C17.3298 17.8854 17.25 18.0834 17.0833 18.25C16.9305 18.4028 16.7361 18.4792 16.5 18.4792C16.2639 18.4792 16.0694 18.4028 15.9166 18.25L13.4583 15.8334ZM11.25 3.50002C12.3611 3.7778 13.2639 4.3646 13.9583 5.26044C14.6528 6.15627 15 7.18058 15 8.33335V10.625C15 10.9028 14.9132 11.1111 14.7396 11.25C14.566 11.3889 14.375 11.4584 14.1666 11.4584C13.9583 11.4584 13.7673 11.3854 13.5937 11.2396C13.4201 11.0938 13.3333 10.882 13.3333 10.6042V8.33335C13.3333 7.41669 13.0069 6.63197 12.3541 5.97919C11.7014 5.32641 10.9166 5.00002 9.99998 5.00002C9.77776 5.00002 9.54165 5.0278 9.29165 5.08335C9.04165 5.13891 8.81942 5.20835 8.62498 5.29169C8.38887 5.38891 8.15623 5.40974 7.92706 5.35419C7.6979 5.29863 7.52081 5.16669 7.39581 4.95835C7.2847 4.7778 7.24651 4.58683 7.28123 4.38544C7.31595 4.18405 7.42359 4.03474 7.60415 3.93752C7.7847 3.8403 7.9722 3.75696 8.16665 3.68752C8.36109 3.61808 8.55554 3.55558 8.74998 3.50002V2.91669C8.74998 2.56946 8.87151 2.27433 9.11456 2.03127C9.35762 1.78821 9.65276 1.66669 9.99998 1.66669C10.3472 1.66669 10.6423 1.78821 10.8854 2.03127C11.1285 2.27433 11.25 2.56946 11.25 2.91669V3.50002ZM9.99998 18.3334C9.58331 18.3334 9.21179 18.2188 8.8854 17.9896C8.55901 17.7604 8.39581 17.4514 8.39581 17.0625C8.39581 16.9514 8.44095 16.8577 8.53123 16.7813C8.62151 16.7049 8.7222 16.6667 8.83331 16.6667H11.1666C11.2778 16.6667 11.3785 16.7049 11.4687 16.7813C11.559 16.8577 11.6041 16.9514 11.6041 17.0625C11.6041 17.4514 11.441 17.7604 11.1146 17.9896C10.7882 18.2188 10.4166 18.3334 9.99998 18.3334Z" fill="currentColor"/>
</svg>