<svg width="24" height="24" viewBox="0 0 24 24" fill="none" xmlns="http://www.w3.org/2000/svg">
<mask id="mask0_72_293" style="mask-type:alpha" maskUnits="userSpaceOnUse" x="0" y="0" width="24" height="24">
<rect width="24" height="24" fill="#D9D9D9"/>
</mask>
<g mask="url(#mask0_72_293)">
<path d="M7.82502 19L8.72502 19.9C8.90836 20.0833 9.00002 20.3125 9.00002 20.5875C9.00002 20.8625 8.90002 21.1 8.70002 21.3C8.51669 21.4833 8.28336 21.575 8.00002 21.575C7.71669 21.575 7.48336 21.4833 7.30002 21.3L4.70002 18.7C4.50002 18.5 4.40002 18.2667 4.40002 18C4.40002 17.7333 4.50002 17.5 4.70002 17.3L7.30002 14.7C7.48336 14.5167 7.71252 14.425 7.98752 14.425C8.26252 14.425 8.50002 14.5167 8.70002 14.7C8.90002 14.9 9.00002 15.1375 9.00002 15.4125C9.00002 15.6875 8.90002 15.925 8.70002 16.125L7.82502 17H16.175L15.275 16.1C15.0917 15.9167 15 15.6875 15 15.4125C15 15.1375 15.1 14.9 15.3 14.7C15.4834 14.5167 15.7167 14.425 16 14.425C16.2834 14.425 16.5167 14.5167 16.7 14.7L19.3 17.3C19.5 17.5 19.6 17.7333 19.6 18C19.6 18.2667 19.5 18.5 19.3 18.7L16.7 21.3C16.5167 21.4833 16.2875 21.575 16.0125 21.575C15.7375 21.575 15.5 21.4833 15.3 21.3C15.1 21.1 15 20.8625 15 20.5875C15 20.3125 15.1 20.075 15.3 19.875L16.175 19H7.82502ZM6.00002 12C5.71669 12 5.47919 11.9042 5.28752 11.7125C5.09586 11.5208 5.00002 11.2833 5.00002 11V3C5.00002 2.71667 5.09586 2.47917 5.28752 2.2875C5.47919 2.09583 5.71669 2 6.00002 2C6.28336 2 6.52086 2.09583 6.71252 2.2875C6.90419 2.47917 7.00002 2.71667 7.00002 3V11C7.00002 11.2833 6.90419 11.5208 6.71252 11.7125C6.52086 11.9042 6.28336 12 6.00002 12ZM12 12C11.7167 12 11.4792 11.9042 11.2875 11.7125C11.0959 11.5208 11 11.2833 11 11V3C11 2.71667 11.0959 2.47917 11.2875 2.2875C11.4792 2.09583 11.7167 2 12 2C12.2834 2 12.5209 2.09583 12.7125 2.2875C12.9042 2.47917 13 2.71667 13 3V11C13 11.2833 12.9042 11.5208 12.7125 11.7125C12.5209 11.9042 12.2834 12 12 12ZM18 12C17.7167 12 17.4792 11.9042 17.2875 11.7125C17.0959 11.5208 17 11.2833 17 11V3C17 2.71667 17.0959 2.47917 17.2875 2.2875C17.4792 2.09583 17.7167 2 18 2C18.2834 2 18.5209 2.09583 18.7125 2.2875C18.9042 2.47917 19 2.71667 19 3V11C19 11.2833 18.9042 11.5208 18.7125 11.7125C18.5209 11.9042 18.2834 12 18 12Z" fill="#1C1B1F"/>
</g>
</svg>
