<svg width="712" height="177" viewBox="0 0 712 177" fill="none" xmlns="http://www.w3.org/2000/svg">
<rect x="0.5" y="0.5" width="711" height="176" rx="7.5" stroke="#CDCCCB"/>
<path d="M84.1815 72.336C83.5415 72.336 83.0295 72.192 82.6455 71.904C82.2615 71.616 82.0375 71.232 81.9735 70.752C81.9095 70.272 82.0055 69.728 82.2615 69.12L95.2695 39.936C95.5895 39.168 95.9895 38.624 96.4695 38.304C96.9815 37.984 97.5415 37.824 98.1495 37.824C98.7255 37.824 99.2535 37.984 99.7335 38.304C100.246 38.624 100.662 39.168 100.982 39.936L113.99 69.12C114.278 69.728 114.39 70.288 114.326 70.8C114.262 71.28 114.054 71.664 113.702 71.952C113.35 72.208 112.854 72.336 112.214 72.336C111.51 72.336 110.95 72.16 110.534 71.808C110.118 71.456 109.75 70.912 109.43 70.176L106.07 62.4L108.326 63.744H87.8775L90.0855 62.4L86.7735 70.176C86.4535 70.944 86.1015 71.504 85.7175 71.856C85.3335 72.176 84.8215 72.336 84.1815 72.336ZM98.0535 43.68L90.8055 60.864L89.6055 59.712H106.55L105.446 60.864L98.1495 43.68H98.0535ZM126.677 72.432C125.045 72.432 123.573 72.112 122.261 71.472C120.981 70.832 119.973 69.968 119.237 68.88C118.501 67.792 118.133 66.56 118.133 65.184C118.133 63.456 118.565 62.096 119.429 61.104C120.325 60.08 121.781 59.36 123.797 58.944C125.845 58.496 128.597 58.272 132.053 58.272H134.309V61.248H132.101C129.797 61.248 127.973 61.36 126.629 61.584C125.285 61.808 124.325 62.192 123.749 62.736C123.205 63.248 122.933 63.968 122.933 64.896C122.933 66.112 123.349 67.104 124.181 67.872C125.013 68.608 126.165 68.976 127.637 68.976C128.821 68.976 129.861 68.704 130.757 68.16C131.653 67.584 132.357 66.816 132.869 65.856C133.413 64.896 133.685 63.792 133.685 62.544V57.024C133.685 55.2 133.301 53.888 132.533 53.088C131.765 52.288 130.501 51.888 128.741 51.888C127.717 51.888 126.645 52.016 125.525 52.272C124.437 52.528 123.301 52.96 122.117 53.568C121.573 53.824 121.109 53.904 120.725 53.808C120.341 53.712 120.037 53.504 119.813 53.184C119.589 52.832 119.461 52.464 119.429 52.08C119.429 51.664 119.525 51.264 119.717 50.88C119.941 50.496 120.309 50.208 120.821 50.016C122.229 49.344 123.621 48.864 124.997 48.576C126.373 48.288 127.669 48.144 128.885 48.144C131.029 48.144 132.789 48.48 134.165 49.152C135.573 49.824 136.613 50.848 137.285 52.224C137.957 53.6 138.293 55.376 138.293 57.552V69.888C138.293 70.656 138.101 71.264 137.717 71.712C137.333 72.128 136.773 72.336 136.037 72.336C135.333 72.336 134.773 72.128 134.357 71.712C133.941 71.264 133.733 70.656 133.733 69.888V66.768H134.165C133.909 67.952 133.429 68.976 132.725 69.84C132.053 70.672 131.205 71.312 130.181 71.76C129.157 72.208 127.989 72.432 126.677 72.432Z" fill="#CDCCCB"/>
<line x1="80.5" y1="84" x2="80.5" y2="90" stroke="#CDCCCB"/>
<line x1="142.5" y1="84" x2="142.5" y2="90" stroke="#CDCCCB"/>
<line x1="80" y1="89.5" x2="142" y2="89.5" stroke="#CDCCCB"/>
<path d="M103.383 106V104.286H100.277V103.48L103.544 98.8418H104.262V103.48H105.229V104.286H104.262V106H103.383ZM103.383 103.48V100.253L101.142 103.48H103.383ZM107.484 102.118C107.12 101.985 106.85 101.794 106.674 101.547C106.498 101.299 106.41 101.003 106.41 100.658C106.41 100.137 106.597 99.6995 106.972 99.3447C107.346 98.9899 107.844 98.8125 108.466 98.8125C109.091 98.8125 109.594 98.9948 109.975 99.3594C110.355 99.7207 110.546 100.162 110.546 100.683C110.546 101.015 110.458 101.304 110.282 101.552C110.11 101.796 109.846 101.985 109.491 102.118C109.931 102.261 110.264 102.493 110.492 102.812C110.723 103.131 110.839 103.511 110.839 103.954C110.839 104.566 110.622 105.08 110.189 105.497C109.757 105.914 109.187 106.122 108.48 106.122C107.774 106.122 107.204 105.914 106.771 105.497C106.339 105.077 106.122 104.555 106.122 103.93C106.122 103.464 106.239 103.075 106.474 102.763C106.711 102.447 107.048 102.232 107.484 102.118ZM107.309 100.629C107.309 100.967 107.418 101.244 107.636 101.459C107.854 101.674 108.137 101.781 108.485 101.781C108.824 101.781 109.101 101.675 109.315 101.464C109.534 101.249 109.643 100.987 109.643 100.678C109.643 100.355 109.53 100.085 109.306 99.8672C109.084 99.6458 108.808 99.5352 108.476 99.5352C108.14 99.5352 107.862 99.6426 107.641 99.8574C107.419 100.072 107.309 100.329 107.309 100.629ZM107.025 103.935C107.025 104.185 107.084 104.428 107.201 104.662C107.322 104.896 107.499 105.079 107.733 105.209C107.968 105.336 108.22 105.399 108.49 105.399C108.91 105.399 109.257 105.264 109.53 104.994C109.804 104.724 109.94 104.381 109.94 103.964C109.94 103.541 109.799 103.191 109.516 102.914C109.236 102.637 108.884 102.499 108.461 102.499C108.048 102.499 107.704 102.636 107.431 102.909C107.16 103.183 107.025 103.524 107.025 103.935ZM111.942 107.987V100.814H112.743V101.488C112.932 101.225 113.145 101.028 113.383 100.897C113.62 100.764 113.909 100.697 114.247 100.697C114.69 100.697 115.08 100.811 115.419 101.039C115.757 101.267 116.013 101.589 116.186 102.006C116.358 102.419 116.444 102.873 116.444 103.368C116.444 103.899 116.348 104.377 116.156 104.804C115.967 105.227 115.691 105.552 115.326 105.78C114.965 106.005 114.584 106.117 114.184 106.117C113.891 106.117 113.627 106.055 113.393 105.932C113.161 105.808 112.971 105.652 112.821 105.463V107.987H111.942ZM112.738 103.437C112.738 104.104 112.873 104.597 113.144 104.916C113.414 105.235 113.741 105.395 114.125 105.395C114.516 105.395 114.849 105.23 115.126 104.901C115.406 104.569 115.546 104.057 115.546 103.363C115.546 102.702 115.409 102.208 115.136 101.879C114.866 101.55 114.542 101.386 114.164 101.386C113.79 101.386 113.458 101.562 113.168 101.913C112.882 102.261 112.738 102.769 112.738 103.437ZM116.923 106L118.817 103.305L117.064 100.814H118.163L118.959 102.03C119.109 102.261 119.229 102.455 119.32 102.611C119.464 102.396 119.595 102.206 119.716 102.04L120.59 100.814H121.64L119.848 103.256L121.776 106H120.697L119.633 104.389L119.35 103.954L117.987 106H116.923Z" fill="#CDCCCB"/>
<path d="M168.262 73.28C167.729 73.28 167.302 73.16 166.982 72.92C166.662 72.68 166.476 72.36 166.422 71.96C166.369 71.56 166.449 71.1067 166.662 70.6L177.502 46.28C177.769 45.64 178.102 45.1867 178.502 44.92C178.929 44.6533 179.396 44.52 179.902 44.52C180.382 44.52 180.822 44.6533 181.222 44.92C181.649 45.1867 181.996 45.64 182.262 46.28L193.102 70.6C193.342 71.1067 193.436 71.5733 193.382 72C193.329 72.4 193.156 72.72 192.862 72.96C192.569 73.1733 192.156 73.28 191.622 73.28C191.036 73.28 190.569 73.1333 190.222 72.84C189.876 72.5467 189.569 72.0933 189.302 71.48L186.502 65L188.382 66.12H171.342L173.182 65L170.422 71.48C170.156 72.12 169.862 72.5867 169.542 72.88C169.222 73.1467 168.796 73.28 168.262 73.28ZM179.822 49.4L173.782 63.72L172.782 62.76H186.902L185.982 63.72L179.902 49.4H179.822ZM203.675 73.36C202.315 73.36 201.089 73.0933 199.995 72.56C198.929 72.0267 198.089 71.3067 197.475 70.4C196.862 69.4933 196.555 68.4667 196.555 67.32C196.555 65.88 196.915 64.7467 197.635 63.92C198.382 63.0667 199.595 62.4667 201.275 62.12C202.982 61.7467 205.275 61.56 208.155 61.56H210.035V64.04H208.195C206.275 64.04 204.755 64.1333 203.635 64.32C202.515 64.5067 201.715 64.8267 201.235 65.28C200.782 65.7067 200.555 66.3067 200.555 67.08C200.555 68.0933 200.902 68.92 201.595 69.56C202.289 70.1733 203.249 70.48 204.475 70.48C205.462 70.48 206.329 70.2533 207.075 69.8C207.822 69.32 208.409 68.68 208.835 67.88C209.289 67.08 209.515 66.16 209.515 65.12V60.52C209.515 59 209.195 57.9067 208.555 57.24C207.915 56.5733 206.862 56.24 205.395 56.24C204.542 56.24 203.649 56.3467 202.715 56.56C201.809 56.7733 200.862 57.1333 199.875 57.64C199.422 57.8533 199.035 57.92 198.715 57.84C198.395 57.76 198.142 57.5867 197.955 57.32C197.769 57.0267 197.662 56.72 197.635 56.4C197.635 56.0533 197.715 55.72 197.875 55.4C198.062 55.08 198.369 54.84 198.795 54.68C199.969 54.12 201.129 53.72 202.275 53.48C203.422 53.24 204.502 53.12 205.515 53.12C207.302 53.12 208.769 53.4 209.915 53.96C211.089 54.52 211.955 55.3733 212.515 56.52C213.075 57.6667 213.355 59.1467 213.355 60.96V71.24C213.355 71.88 213.195 72.3867 212.875 72.76C212.555 73.1067 212.089 73.28 211.475 73.28C210.889 73.28 210.422 73.1067 210.075 72.76C209.729 72.3867 209.555 71.88 209.555 71.24V68.64H209.915C209.702 69.6267 209.302 70.48 208.715 71.2C208.155 71.8933 207.449 72.4267 206.595 72.8C205.742 73.1733 204.769 73.36 203.675 73.36Z" fill="#CDCCCB"/>
<line x1="165.611" y1="84" x2="165.611" y2="90" stroke="#CDCCCB"/>
<line x1="216.611" y1="84" x2="216.611" y2="90" stroke="#CDCCCB"/>
<line x1="165.111" y1="89.5" x2="216.111" y2="89.5" stroke="#CDCCCB"/>
<path d="M182.994 106V104.286H179.888V103.48L183.155 98.8418H183.873V103.48H184.84V104.286H183.873V106H182.994ZM182.994 103.48V100.253L180.753 103.48H182.994ZM185.743 102.47C185.743 101.623 185.829 100.943 186.002 100.429C186.177 99.9111 186.436 99.5124 186.778 99.2324C187.123 98.9525 187.556 98.8125 188.077 98.8125C188.461 98.8125 188.798 98.8906 189.088 99.0469C189.377 99.1999 189.617 99.4229 189.805 99.7158C189.994 100.006 190.142 100.36 190.25 100.78C190.357 101.197 190.411 101.76 190.411 102.47C190.411 103.31 190.325 103.988 190.152 104.506C189.98 105.02 189.721 105.419 189.376 105.702C189.034 105.982 188.601 106.122 188.077 106.122C187.387 106.122 186.845 105.875 186.451 105.38C185.979 104.784 185.743 103.814 185.743 102.47ZM186.646 102.47C186.646 103.645 186.783 104.428 187.056 104.818C187.333 105.206 187.673 105.399 188.077 105.399C188.481 105.399 188.819 105.204 189.093 104.813C189.369 104.423 189.508 103.642 189.508 102.47C189.508 101.291 189.369 100.508 189.093 100.121C188.819 99.7337 188.477 99.54 188.067 99.54C187.663 99.54 187.341 99.7109 187.1 100.053C186.798 100.489 186.646 101.295 186.646 102.47ZM191.553 107.987V100.814H192.354V101.488C192.543 101.225 192.756 101.028 192.994 100.897C193.232 100.764 193.52 100.697 193.858 100.697C194.301 100.697 194.691 100.811 195.03 101.039C195.369 101.267 195.624 101.589 195.797 102.006C195.969 102.419 196.055 102.873 196.055 103.368C196.055 103.899 195.959 104.377 195.767 104.804C195.579 105.227 195.302 105.552 194.937 105.78C194.576 106.005 194.195 106.117 193.795 106.117C193.502 106.117 193.238 106.055 193.004 105.932C192.773 105.808 192.582 105.652 192.432 105.463V107.987H191.553ZM192.349 103.437C192.349 104.104 192.484 104.597 192.755 104.916C193.025 105.235 193.352 105.395 193.736 105.395C194.127 105.395 194.46 105.23 194.737 104.901C195.017 104.569 195.157 104.057 195.157 103.363C195.157 102.702 195.02 102.208 194.747 101.879C194.477 101.55 194.153 101.386 193.775 101.386C193.401 101.386 193.069 101.562 192.779 101.913C192.493 102.261 192.349 102.769 192.349 103.437ZM196.534 106L198.428 103.305L196.676 100.814H197.774L198.57 102.03C198.72 102.261 198.84 102.455 198.931 102.611C199.075 102.396 199.206 102.206 199.327 102.04L200.201 100.814H201.251L199.459 103.256L201.387 106H200.308L199.244 104.389L198.961 103.954L197.598 106H196.534Z" fill="#CDCCCB"/>
<path d="M241.843 75.224C241.417 75.224 241.075 75.128 240.819 74.936C240.563 74.744 240.414 74.488 240.371 74.168C240.329 73.848 240.393 73.4853 240.563 73.08L249.235 53.624C249.449 53.112 249.715 52.7493 250.035 52.536C250.377 52.3227 250.75 52.216 251.155 52.216C251.539 52.216 251.891 52.3227 252.211 52.536C252.553 52.7493 252.83 53.112 253.043 53.624L261.715 73.08C261.907 73.4853 261.982 73.8587 261.939 74.2C261.897 74.52 261.758 74.776 261.523 74.968C261.289 75.1387 260.958 75.224 260.531 75.224C260.062 75.224 259.689 75.1067 259.411 74.872C259.134 74.6373 258.889 74.2747 258.675 73.784L256.435 68.6L257.939 69.496H244.307L245.779 68.6L243.571 73.784C243.358 74.296 243.123 74.6693 242.867 74.904C242.611 75.1173 242.27 75.224 241.843 75.224ZM251.091 56.12L246.259 67.576L245.459 66.808H256.755L256.019 67.576L251.155 56.12H251.091ZM270.174 75.288C269.086 75.288 268.104 75.0747 267.23 74.648C266.376 74.2213 265.704 73.6453 265.214 72.92C264.723 72.1947 264.478 71.3733 264.478 70.456C264.478 69.304 264.766 68.3973 265.342 67.736C265.939 67.0533 266.91 66.5733 268.254 66.296C269.619 65.9973 271.454 65.848 273.758 65.848H275.262V67.832H273.79C272.254 67.832 271.038 67.9067 270.142 68.056C269.246 68.2053 268.606 68.4613 268.222 68.824C267.859 69.1653 267.678 69.6453 267.678 70.264C267.678 71.0747 267.955 71.736 268.51 72.248C269.064 72.7387 269.832 72.984 270.814 72.984C271.603 72.984 272.296 72.8027 272.894 72.44C273.491 72.056 273.96 71.544 274.302 70.904C274.664 70.264 274.846 69.528 274.846 68.696V65.016C274.846 63.8 274.59 62.9253 274.078 62.392C273.566 61.8587 272.723 61.592 271.55 61.592C270.867 61.592 270.152 61.6773 269.406 61.848C268.68 62.0187 267.923 62.3067 267.134 62.712C266.771 62.8827 266.462 62.936 266.206 62.872C265.95 62.808 265.747 62.6693 265.598 62.456C265.448 62.2213 265.363 61.976 265.342 61.72C265.342 61.4427 265.406 61.176 265.534 60.92C265.683 60.664 265.928 60.472 266.27 60.344C267.208 59.896 268.136 59.576 269.054 59.384C269.971 59.192 270.835 59.096 271.646 59.096C273.075 59.096 274.248 59.32 275.166 59.768C276.104 60.216 276.798 60.8987 277.246 61.816C277.694 62.7333 277.918 63.9173 277.918 65.368V73.592C277.918 74.104 277.79 74.5093 277.534 74.808C277.278 75.0853 276.904 75.224 276.414 75.224C275.944 75.224 275.571 75.0853 275.294 74.808C275.016 74.5093 274.878 74.104 274.878 73.592V71.512H275.166C274.995 72.3013 274.675 72.984 274.206 73.56C273.758 74.1147 273.192 74.5413 272.51 74.84C271.827 75.1387 271.048 75.288 270.174 75.288Z" fill="#CDCCCB"/>
<line x1="239.722" y1="84" x2="239.722" y2="90" stroke="#CDCCCB"/>
<line x1="280.722" y1="84" x2="280.722" y2="90" stroke="#CDCCCB"/>
<line x1="239.222" y1="89.5" x2="280.222" y2="89.5" stroke="#CDCCCB"/>
<path d="M249.292 104.11L250.171 103.993C250.272 104.491 250.443 104.851 250.684 105.072C250.928 105.29 251.224 105.399 251.573 105.399C251.986 105.399 252.334 105.256 252.618 104.97C252.904 104.683 253.047 104.328 253.047 103.905C253.047 103.502 252.916 103.17 252.652 102.909C252.388 102.646 252.053 102.514 251.646 102.514C251.48 102.514 251.273 102.546 251.026 102.611L251.124 101.84C251.182 101.846 251.229 101.85 251.265 101.85C251.639 101.85 251.976 101.752 252.276 101.557C252.575 101.361 252.725 101.06 252.725 100.653C252.725 100.331 252.616 100.064 252.398 99.8525C252.18 99.641 251.898 99.5352 251.553 99.5352C251.211 99.5352 250.927 99.6426 250.699 99.8574C250.471 100.072 250.324 100.395 250.259 100.824L249.38 100.668C249.488 100.079 249.732 99.623 250.113 99.3008C250.494 98.9753 250.967 98.8125 251.534 98.8125C251.924 98.8125 252.284 98.8971 252.613 99.0664C252.942 99.2324 253.192 99.4603 253.365 99.75C253.541 100.04 253.628 100.347 253.628 100.673C253.628 100.982 253.545 101.264 253.379 101.518C253.213 101.771 252.968 101.973 252.642 102.123C253.065 102.221 253.394 102.424 253.628 102.733C253.863 103.039 253.98 103.424 253.98 103.886C253.98 104.511 253.752 105.041 253.296 105.478C252.841 105.91 252.264 106.127 251.568 106.127C250.94 106.127 250.417 105.94 250 105.565C249.587 105.191 249.351 104.706 249.292 104.11ZM259.473 105.155V106H254.742C254.735 105.788 254.769 105.585 254.844 105.39C254.965 105.067 255.157 104.75 255.42 104.438C255.687 104.125 256.071 103.764 256.573 103.354C257.351 102.715 257.876 102.211 258.15 101.84C258.423 101.465 258.56 101.112 258.56 100.78C258.56 100.432 258.435 100.139 258.184 99.9014C257.937 99.6605 257.613 99.54 257.212 99.54C256.789 99.54 256.451 99.667 256.197 99.9209C255.943 100.175 255.814 100.526 255.811 100.976L254.908 100.883C254.97 100.209 255.202 99.6963 255.606 99.3447C256.01 98.9899 256.552 98.8125 257.232 98.8125C257.919 98.8125 258.462 99.0029 258.863 99.3838C259.263 99.7646 259.463 100.237 259.463 100.8C259.463 101.086 259.405 101.368 259.288 101.645C259.17 101.921 258.975 102.213 258.702 102.519C258.431 102.825 257.981 103.244 257.349 103.778C256.822 104.221 256.483 104.522 256.333 104.682C256.184 104.838 256.06 104.996 255.962 105.155H259.473ZM260.665 107.987V100.814H261.465V101.488C261.654 101.225 261.867 101.028 262.105 100.897C262.343 100.764 262.631 100.697 262.969 100.697C263.412 100.697 263.803 100.811 264.141 101.039C264.48 101.267 264.735 101.589 264.908 102.006C265.08 102.419 265.167 102.873 265.167 103.368C265.167 103.899 265.07 104.377 264.878 104.804C264.69 105.227 264.413 105.552 264.048 105.78C263.687 106.005 263.306 106.117 262.906 106.117C262.613 106.117 262.349 106.055 262.115 105.932C261.884 105.808 261.693 105.652 261.543 105.463V107.987H260.665ZM261.46 103.437C261.46 104.104 261.596 104.597 261.866 104.916C262.136 105.235 262.463 105.395 262.847 105.395C263.238 105.395 263.571 105.23 263.848 104.901C264.128 104.569 264.268 104.057 264.268 103.363C264.268 102.702 264.131 102.208 263.858 101.879C263.588 101.55 263.264 101.386 262.886 101.386C262.512 101.386 262.18 101.562 261.89 101.913C261.604 102.261 261.46 102.769 261.46 103.437ZM265.645 106L267.54 103.305L265.787 100.814H266.885L267.681 102.03C267.831 102.261 267.951 102.455 268.042 102.611C268.186 102.396 268.318 102.206 268.438 102.04L269.312 100.814H270.362L268.57 103.256L270.499 106H269.419L268.355 104.389L268.072 103.954L266.709 106H265.645Z" fill="#CDCCCB"/>
<path d="M305.689 75.196C305.316 75.196 305.017 75.112 304.793 74.944C304.569 74.776 304.438 74.552 304.401 74.272C304.364 73.992 304.42 73.6747 304.569 73.32L312.157 56.296C312.344 55.848 312.577 55.5307 312.857 55.344C313.156 55.1573 313.482 55.064 313.837 55.064C314.173 55.064 314.481 55.1573 314.761 55.344C315.06 55.5307 315.302 55.848 315.489 56.296L323.077 73.32C323.245 73.6747 323.31 74.0013 323.273 74.3C323.236 74.58 323.114 74.804 322.909 74.972C322.704 75.1213 322.414 75.196 322.041 75.196C321.63 75.196 321.304 75.0933 321.061 74.888C320.818 74.6827 320.604 74.3653 320.417 73.936L318.457 69.4L319.773 70.184H307.845L309.133 69.4L307.201 73.936C307.014 74.384 306.809 74.7107 306.585 74.916C306.361 75.1027 306.062 75.196 305.689 75.196ZM313.781 58.48L309.553 68.504L308.853 67.832H318.737L318.093 68.504L313.837 58.48H313.781ZM330.478 75.252C329.526 75.252 328.668 75.0653 327.902 74.692C327.156 74.3187 326.568 73.8147 326.138 73.18C325.709 72.5453 325.494 71.8267 325.494 71.024C325.494 70.016 325.746 69.2227 326.25 68.644C326.773 68.0467 327.622 67.6267 328.798 67.384C329.993 67.1227 331.598 66.992 333.614 66.992H334.93V68.728H333.642C332.298 68.728 331.234 68.7933 330.45 68.924C329.666 69.0547 329.106 69.2787 328.77 69.596C328.453 69.8947 328.294 70.3147 328.294 70.856C328.294 71.5653 328.537 72.144 329.022 72.592C329.508 73.0213 330.18 73.236 331.038 73.236C331.729 73.236 332.336 73.0773 332.858 72.76C333.381 72.424 333.792 71.976 334.09 71.416C334.408 70.856 334.566 70.212 334.566 69.484V66.264C334.566 65.2 334.342 64.4347 333.894 63.968C333.446 63.5013 332.709 63.268 331.682 63.268C331.085 63.268 330.46 63.3427 329.806 63.492C329.172 63.6413 328.509 63.8933 327.818 64.248C327.501 64.3973 327.23 64.444 327.006 64.388C326.782 64.332 326.605 64.2107 326.474 64.024C326.344 63.8187 326.269 63.604 326.25 63.38C326.25 63.1373 326.306 62.904 326.418 62.68C326.549 62.456 326.764 62.288 327.062 62.176C327.884 61.784 328.696 61.504 329.498 61.336C330.301 61.168 331.057 61.084 331.766 61.084C333.017 61.084 334.044 61.28 334.846 61.672C335.668 62.064 336.274 62.6613 336.666 63.464C337.058 64.2667 337.254 65.3027 337.254 66.572V73.768C337.254 74.216 337.142 74.5707 336.918 74.832C336.694 75.0747 336.368 75.196 335.938 75.196C335.528 75.196 335.201 75.0747 334.958 74.832C334.716 74.5707 334.594 74.216 334.594 73.768V71.948H334.846C334.697 72.6387 334.417 73.236 334.006 73.74C333.614 74.2253 333.12 74.5987 332.522 74.86C331.925 75.1213 331.244 75.252 330.478 75.252Z" fill="#CDCCCB"/>
<line x1="303.833" y1="84" x2="303.833" y2="90" stroke="#CDCCCB"/>
<line x1="339.833" y1="84" x2="339.833" y2="90" stroke="#CDCCCB"/>
<line x1="303.333" y1="89.5" x2="339.333" y2="89.5" stroke="#CDCCCB"/>
<path d="M315.518 105.155V106H310.786C310.78 105.788 310.814 105.585 310.889 105.39C311.009 105.067 311.201 104.75 311.465 104.438C311.732 104.125 312.116 103.764 312.617 103.354C313.395 102.715 313.921 102.211 314.195 101.84C314.468 101.465 314.605 101.112 314.605 100.78C314.605 100.432 314.479 100.139 314.229 99.9014C313.981 99.6605 313.657 99.54 313.257 99.54C312.834 99.54 312.495 99.667 312.241 99.9209C311.988 100.175 311.859 100.526 311.856 100.976L310.952 100.883C311.014 100.209 311.247 99.6963 311.651 99.3447C312.054 98.9899 312.596 98.8125 313.277 98.8125C313.963 98.8125 314.507 99.0029 314.907 99.3838C315.308 99.7646 315.508 100.237 315.508 100.8C315.508 101.086 315.449 101.368 315.332 101.645C315.215 101.921 315.02 102.213 314.746 102.519C314.476 102.825 314.025 103.244 313.394 103.778C312.866 104.221 312.528 104.522 312.378 104.682C312.228 104.838 312.105 104.996 312.007 105.155H315.518ZM317.818 102.118C317.453 101.985 317.183 101.794 317.007 101.547C316.831 101.299 316.743 101.003 316.743 100.658C316.743 100.137 316.931 99.6995 317.305 99.3447C317.679 98.9899 318.177 98.8125 318.799 98.8125C319.424 98.8125 319.927 98.9948 320.308 99.3594C320.689 99.7207 320.879 100.162 320.879 100.683C320.879 101.015 320.791 101.304 320.615 101.552C320.443 101.796 320.179 101.985 319.824 102.118C320.264 102.261 320.598 102.493 320.825 102.812C321.057 103.131 321.172 103.511 321.172 103.954C321.172 104.566 320.956 105.08 320.523 105.497C320.09 105.914 319.52 106.122 318.814 106.122C318.107 106.122 317.538 105.914 317.105 105.497C316.672 105.077 316.455 104.555 316.455 103.93C316.455 103.464 316.573 103.075 316.807 102.763C317.045 102.447 317.381 102.232 317.818 102.118ZM317.642 100.629C317.642 100.967 317.751 101.244 317.969 101.459C318.187 101.674 318.47 101.781 318.819 101.781C319.157 101.781 319.434 101.675 319.649 101.464C319.867 101.249 319.976 100.987 319.976 100.678C319.976 100.355 319.864 100.085 319.639 99.8672C319.418 99.6458 319.141 99.5352 318.809 99.5352C318.474 99.5352 318.195 99.6426 317.974 99.8574C317.753 100.072 317.642 100.329 317.642 100.629ZM317.359 103.935C317.359 104.185 317.417 104.428 317.534 104.662C317.655 104.896 317.832 105.079 318.067 105.209C318.301 105.336 318.553 105.399 318.823 105.399C319.243 105.399 319.59 105.264 319.864 104.994C320.137 104.724 320.274 104.381 320.274 103.964C320.274 103.541 320.132 103.191 319.849 102.914C319.569 102.637 319.217 102.499 318.794 102.499C318.381 102.499 318.037 102.636 317.764 102.909C317.494 103.183 317.359 103.524 317.359 103.935ZM322.276 107.987V100.814H323.076V101.488C323.265 101.225 323.478 101.028 323.716 100.897C323.954 100.764 324.242 100.697 324.58 100.697C325.023 100.697 325.414 100.811 325.752 101.039C326.091 101.267 326.346 101.589 326.519 102.006C326.691 102.419 326.778 102.873 326.778 103.368C326.778 103.899 326.682 104.377 326.49 104.804C326.301 105.227 326.024 105.552 325.659 105.78C325.298 106.005 324.917 106.117 324.517 106.117C324.224 106.117 323.96 106.055 323.726 105.932C323.495 105.808 323.304 105.652 323.155 105.463V107.987H322.276ZM323.072 103.437C323.072 104.104 323.207 104.597 323.477 104.916C323.747 105.235 324.074 105.395 324.458 105.395C324.849 105.395 325.183 105.23 325.459 104.901C325.739 104.569 325.879 104.057 325.879 103.363C325.879 102.702 325.742 102.208 325.469 101.879C325.199 101.55 324.875 101.386 324.497 101.386C324.123 101.386 323.791 101.562 323.501 101.913C323.215 102.261 323.072 102.769 323.072 103.437ZM327.256 106L329.151 103.305L327.398 100.814H328.496L329.292 102.03C329.442 102.261 329.562 102.455 329.654 102.611C329.797 102.396 329.929 102.206 330.049 102.04L330.923 100.814H331.973L330.181 103.256L332.11 106H331.031L329.966 104.389L329.683 103.954L328.321 106H327.256Z" fill="#CDCCCB"/>
<path d="M364.535 76.168C364.215 76.168 363.959 76.096 363.767 75.952C363.575 75.808 363.463 75.616 363.431 75.376C363.399 75.136 363.447 74.864 363.575 74.56L370.079 59.968C370.239 59.584 370.439 59.312 370.679 59.152C370.935 58.992 371.215 58.912 371.519 58.912C371.807 58.912 372.071 58.992 372.311 59.152C372.567 59.312 372.775 59.584 372.935 59.968L379.439 74.56C379.583 74.864 379.639 75.144 379.607 75.4C379.575 75.64 379.471 75.832 379.295 75.976C379.119 76.104 378.871 76.168 378.551 76.168C378.199 76.168 377.919 76.08 377.711 75.904C377.503 75.728 377.319 75.456 377.159 75.088L375.479 71.2L376.607 71.872H366.383L367.487 71.2L365.831 75.088C365.671 75.472 365.495 75.752 365.303 75.928C365.111 76.088 364.855 76.168 364.535 76.168ZM371.471 61.84L367.847 70.432L367.247 69.856H375.719L375.167 70.432L371.519 61.84H371.471ZM385.783 76.216C384.967 76.216 384.231 76.056 383.575 75.736C382.935 75.416 382.431 74.984 382.063 74.44C381.695 73.896 381.511 73.28 381.511 72.592C381.511 71.728 381.727 71.048 382.159 70.552C382.607 70.04 383.335 69.68 384.343 69.472C385.367 69.248 386.743 69.136 388.471 69.136H389.599V70.624H388.495C387.343 70.624 386.431 70.68 385.759 70.792C385.087 70.904 384.607 71.096 384.319 71.368C384.047 71.624 383.911 71.984 383.911 72.448C383.911 73.056 384.119 73.552 384.535 73.936C384.951 74.304 385.527 74.488 386.263 74.488C386.855 74.488 387.375 74.352 387.823 74.08C388.271 73.792 388.623 73.408 388.879 72.928C389.151 72.448 389.287 71.896 389.287 71.272V68.512C389.287 67.6 389.095 66.944 388.711 66.544C388.327 66.144 387.695 65.944 386.815 65.944C386.303 65.944 385.767 66.008 385.207 66.136C384.663 66.264 384.095 66.48 383.503 66.784C383.231 66.912 382.999 66.952 382.807 66.904C382.615 66.856 382.463 66.752 382.351 66.592C382.239 66.416 382.175 66.232 382.159 66.04C382.159 65.832 382.207 65.632 382.303 65.44C382.415 65.248 382.599 65.104 382.855 65.008C383.559 64.672 384.255 64.432 384.943 64.288C385.631 64.144 386.279 64.072 386.887 64.072C387.959 64.072 388.839 64.24 389.527 64.576C390.231 64.912 390.751 65.424 391.087 66.112C391.423 66.8 391.591 67.688 391.591 68.776V74.944C391.591 75.328 391.495 75.632 391.303 75.856C391.111 76.064 390.831 76.168 390.463 76.168C390.111 76.168 389.831 76.064 389.623 75.856C389.415 75.632 389.311 75.328 389.311 74.944V73.384H389.527C389.399 73.976 389.159 74.488 388.807 74.92C388.471 75.336 388.047 75.656 387.535 75.88C387.023 76.104 386.439 76.216 385.783 76.216Z" fill="#CDCCCB"/>
<line x1="362.944" y1="84" x2="362.944" y2="90" stroke="#CDCCCB"/>
<line x1="393.944" y1="84" x2="393.944" y2="90" stroke="#CDCCCB"/>
<line x1="362.444" y1="89.5" x2="393.444" y2="89.5" stroke="#CDCCCB"/>
<path d="M372.129 105.155V106H367.397C367.391 105.788 367.425 105.585 367.5 105.39C367.62 105.067 367.812 104.75 368.076 104.438C368.343 104.125 368.727 103.764 369.229 103.354C370.007 102.715 370.532 102.211 370.806 101.84C371.079 101.465 371.216 101.112 371.216 100.78C371.216 100.432 371.09 100.139 370.84 99.9014C370.592 99.6605 370.269 99.54 369.868 99.54C369.445 99.54 369.106 99.667 368.853 99.9209C368.599 100.175 368.47 100.526 368.467 100.976L367.563 100.883C367.625 100.209 367.858 99.6963 368.262 99.3447C368.665 98.9899 369.207 98.8125 369.888 98.8125C370.575 98.8125 371.118 99.0029 371.519 99.3838C371.919 99.7646 372.119 100.237 372.119 100.8C372.119 101.086 372.061 101.368 371.943 101.645C371.826 101.921 371.631 102.213 371.357 102.519C371.087 102.825 370.636 103.244 370.005 103.778C369.478 104.221 369.139 104.522 368.989 104.682C368.84 104.838 368.716 104.996 368.618 105.155H372.129ZM375.894 106V104.286H372.788V103.48L376.055 98.8418H376.772V103.48H377.739V104.286H376.772V106H375.894ZM375.894 103.48V100.253L373.652 103.48H375.894ZM378.887 107.987V100.814H379.688V101.488C379.876 101.225 380.09 101.028 380.327 100.897C380.565 100.764 380.853 100.697 381.191 100.697C381.634 100.697 382.025 100.811 382.363 101.039C382.702 101.267 382.957 101.589 383.13 102.006C383.302 102.419 383.389 102.873 383.389 103.368C383.389 103.899 383.293 104.377 383.101 104.804C382.912 105.227 382.635 105.552 382.271 105.78C381.909 106.005 381.528 106.117 381.128 106.117C380.835 106.117 380.571 106.055 380.337 105.932C380.106 105.808 379.915 105.652 379.766 105.463V107.987H378.887ZM379.683 103.437C379.683 104.104 379.818 104.597 380.088 104.916C380.358 105.235 380.685 105.395 381.069 105.395C381.46 105.395 381.794 105.23 382.07 104.901C382.35 104.569 382.49 104.057 382.49 103.363C382.49 102.702 382.354 102.208 382.08 101.879C381.81 101.55 381.486 101.386 381.108 101.386C380.734 101.386 380.402 101.562 380.112 101.913C379.826 102.261 379.683 102.769 379.683 103.437ZM383.867 106L385.762 103.305L384.009 100.814H385.107L385.903 102.03C386.053 102.261 386.174 102.455 386.265 102.611C386.408 102.396 386.54 102.206 386.66 102.04L387.534 100.814H388.584L386.792 103.256L388.721 106H387.642L386.577 104.389L386.294 103.954L384.932 106H383.867Z" fill="#CDCCCB"/>
<path d="M418.381 77.14C418.115 77.14 417.901 77.08 417.741 76.96C417.581 76.84 417.488 76.68 417.461 76.48C417.435 76.28 417.475 76.0533 417.581 75.8L423.001 63.64C423.135 63.32 423.301 63.0933 423.501 62.96C423.715 62.8267 423.948 62.76 424.201 62.76C424.441 62.76 424.661 62.8267 424.861 62.96C425.075 63.0933 425.248 63.32 425.381 63.64L430.801 75.8C430.921 76.0533 430.968 76.2867 430.941 76.5C430.915 76.7 430.828 76.86 430.681 76.98C430.535 77.0867 430.328 77.14 430.061 77.14C429.768 77.14 429.535 77.0667 429.361 76.92C429.188 76.7733 429.035 76.5467 428.901 76.24L427.501 73L428.441 73.56H419.921L420.841 73L419.461 76.24C419.328 76.56 419.181 76.7933 419.021 76.94C418.861 77.0733 418.648 77.14 418.381 77.14ZM424.161 65.2L421.141 72.36L420.641 71.88H427.701L427.241 72.36L424.201 65.2H424.161ZM436.088 77.18C435.408 77.18 434.795 77.0467 434.248 76.78C433.715 76.5133 433.295 76.1533 432.988 75.7C432.681 75.2467 432.528 74.7333 432.528 74.16C432.528 73.44 432.708 72.8733 433.068 72.46C433.441 72.0333 434.048 71.7333 434.888 71.56C435.741 71.3733 436.888 71.28 438.328 71.28H439.268V72.52H438.348C437.388 72.52 436.628 72.5667 436.068 72.66C435.508 72.7533 435.108 72.9133 434.868 73.14C434.641 73.3533 434.528 73.6533 434.528 74.04C434.528 74.5467 434.701 74.96 435.048 75.28C435.395 75.5867 435.875 75.74 436.488 75.74C436.981 75.74 437.415 75.6267 437.788 75.4C438.161 75.16 438.455 74.84 438.668 74.44C438.895 74.04 439.008 73.58 439.008 73.06V70.76C439.008 70 438.848 69.4533 438.528 69.12C438.208 68.7867 437.681 68.62 436.948 68.62C436.521 68.62 436.075 68.6733 435.608 68.78C435.155 68.8867 434.681 69.0667 434.188 69.32C433.961 69.4267 433.768 69.46 433.608 69.42C433.448 69.38 433.321 69.2933 433.228 69.16C433.135 69.0133 433.081 68.86 433.068 68.7C433.068 68.5267 433.108 68.36 433.188 68.2C433.281 68.04 433.435 67.92 433.648 67.84C434.235 67.56 434.815 67.36 435.388 67.24C435.961 67.12 436.501 67.06 437.008 67.06C437.901 67.06 438.635 67.2 439.208 67.48C439.795 67.76 440.228 68.1867 440.508 68.76C440.788 69.3333 440.928 70.0733 440.928 70.98V76.12C440.928 76.44 440.848 76.6933 440.688 76.88C440.528 77.0533 440.295 77.14 439.988 77.14C439.695 77.14 439.461 77.0533 439.288 76.88C439.115 76.6933 439.028 76.44 439.028 76.12V74.82H439.208C439.101 75.3133 438.901 75.74 438.608 76.1C438.328 76.4467 437.975 76.7133 437.548 76.9C437.121 77.0867 436.635 77.18 436.088 77.18Z" fill="#CDCCCB"/>
<line x1="417.056" y1="84" x2="417.056" y2="90" stroke="#CDCCCB"/>
<line x1="443.056" y1="84" x2="443.056" y2="90" stroke="#CDCCCB"/>
<line x1="416.556" y1="89.5" x2="442.556" y2="89.5" stroke="#CDCCCB"/>
<path d="M423.74 105.155V106H419.009C419.002 105.788 419.036 105.585 419.111 105.39C419.232 105.067 419.424 104.75 419.688 104.438C419.954 104.125 420.339 103.764 420.84 103.354C421.618 102.715 422.144 102.211 422.417 101.84C422.69 101.465 422.827 101.112 422.827 100.78C422.827 100.432 422.702 100.139 422.451 99.9014C422.204 99.6605 421.88 99.54 421.479 99.54C421.056 99.54 420.718 99.667 420.464 99.9209C420.21 100.175 420.081 100.526 420.078 100.976L419.175 100.883C419.237 100.209 419.469 99.6963 419.873 99.3447C420.277 98.9899 420.819 98.8125 421.499 98.8125C422.186 98.8125 422.729 99.0029 423.13 99.3838C423.53 99.7646 423.73 100.237 423.73 100.8C423.73 101.086 423.672 101.368 423.555 101.645C423.438 101.921 423.242 102.213 422.969 102.519C422.699 102.825 422.248 103.244 421.616 103.778C421.089 104.221 420.75 104.522 420.601 104.682C420.451 104.838 420.327 104.996 420.229 105.155H423.74ZM424.688 102.47C424.688 101.623 424.774 100.943 424.946 100.429C425.122 99.9111 425.381 99.5124 425.723 99.2324C426.068 98.9525 426.501 98.8125 427.021 98.8125C427.406 98.8125 427.743 98.8906 428.032 99.0469C428.322 99.1999 428.561 99.4229 428.75 99.7158C428.939 100.006 429.087 100.36 429.194 100.78C429.302 101.197 429.355 101.76 429.355 102.47C429.355 103.31 429.269 103.988 429.097 104.506C428.924 105.02 428.665 105.419 428.32 105.702C427.979 105.982 427.546 106.122 427.021 106.122C426.331 106.122 425.789 105.875 425.396 105.38C424.924 104.784 424.688 103.814 424.688 102.47ZM425.591 102.47C425.591 103.645 425.728 104.428 426.001 104.818C426.278 105.206 426.618 105.399 427.021 105.399C427.425 105.399 427.764 105.204 428.037 104.813C428.314 104.423 428.452 103.642 428.452 102.47C428.452 101.291 428.314 100.508 428.037 100.121C427.764 99.7337 427.422 99.54 427.012 99.54C426.608 99.54 426.286 99.7109 426.045 100.053C425.742 100.489 425.591 101.295 425.591 102.47ZM430.498 107.987V100.814H431.299V101.488C431.488 101.225 431.701 101.028 431.938 100.897C432.176 100.764 432.464 100.697 432.803 100.697C433.245 100.697 433.636 100.811 433.975 101.039C434.313 101.267 434.569 101.589 434.741 102.006C434.914 102.419 435 102.873 435 103.368C435 103.899 434.904 104.377 434.712 104.804C434.523 105.227 434.246 105.552 433.882 105.78C433.521 106.005 433.14 106.117 432.739 106.117C432.446 106.117 432.183 106.055 431.948 105.932C431.717 105.808 431.527 105.652 431.377 105.463V107.987H430.498ZM431.294 103.437C431.294 104.104 431.429 104.597 431.699 104.916C431.969 105.235 432.297 105.395 432.681 105.395C433.071 105.395 433.405 105.23 433.682 104.901C433.962 104.569 434.102 104.057 434.102 103.363C434.102 102.702 433.965 102.208 433.691 101.879C433.421 101.55 433.097 101.386 432.72 101.386C432.345 101.386 432.013 101.562 431.724 101.913C431.437 102.261 431.294 102.769 431.294 103.437ZM435.479 106L437.373 103.305L435.62 100.814H436.719L437.515 102.03C437.664 102.261 437.785 102.455 437.876 102.611C438.019 102.396 438.151 102.206 438.271 102.04L439.146 100.814H440.195L438.403 103.256L440.332 106H439.253L438.188 104.389L437.905 103.954L436.543 106H435.479Z" fill="#CDCCCB"/>
<path d="M468.227 77.112C468.014 77.112 467.843 77.064 467.715 76.968C467.587 76.872 467.513 76.744 467.491 76.584C467.47 76.424 467.502 76.2427 467.587 76.04L471.923 66.312C472.03 66.056 472.163 65.8747 472.323 65.768C472.494 65.6613 472.681 65.608 472.883 65.608C473.075 65.608 473.251 65.6613 473.411 65.768C473.582 65.8747 473.721 66.056 473.827 66.312L478.163 76.04C478.259 76.2427 478.297 76.4293 478.275 76.6C478.254 76.76 478.185 76.888 478.067 76.984C477.95 77.0693 477.785 77.112 477.571 77.112C477.337 77.112 477.15 77.0533 477.011 76.936C476.873 76.8187 476.75 76.6373 476.643 76.392L475.523 73.8L476.275 74.248H469.459L470.195 73.8L469.091 76.392C468.985 76.648 468.867 76.8347 468.739 76.952C468.611 77.0587 468.441 77.112 468.227 77.112ZM472.851 67.56L470.435 73.288L470.035 72.904H475.683L475.315 73.288L472.883 67.56H472.851ZM482.392 77.144C481.848 77.144 481.358 77.0373 480.92 76.824C480.494 76.6107 480.158 76.3227 479.912 75.96C479.667 75.5973 479.544 75.1867 479.544 74.728C479.544 74.152 479.688 73.6987 479.976 73.368C480.275 73.0267 480.76 72.7867 481.432 72.648C482.115 72.4987 483.032 72.424 484.184 72.424H484.936V73.416H484.2C483.432 73.416 482.824 73.4533 482.376 73.528C481.928 73.6027 481.608 73.7307 481.416 73.912C481.235 74.0827 481.144 74.3227 481.144 74.632C481.144 75.0373 481.283 75.368 481.56 75.624C481.838 75.8693 482.222 75.992 482.712 75.992C483.107 75.992 483.454 75.9013 483.752 75.72C484.051 75.528 484.286 75.272 484.456 74.952C484.638 74.632 484.728 74.264 484.728 73.848V72.008C484.728 71.4 484.6 70.9627 484.344 70.696C484.088 70.4293 483.667 70.296 483.08 70.296C482.739 70.296 482.382 70.3387 482.008 70.424C481.646 70.5093 481.267 70.6533 480.872 70.856C480.691 70.9413 480.536 70.968 480.408 70.936C480.28 70.904 480.179 70.8347 480.104 70.728C480.03 70.6107 479.987 70.488 479.976 70.36C479.976 70.2213 480.008 70.088 480.072 69.96C480.147 69.832 480.27 69.736 480.44 69.672C480.91 69.448 481.374 69.288 481.832 69.192C482.291 69.096 482.723 69.048 483.128 69.048C483.843 69.048 484.43 69.16 484.888 69.384C485.358 69.608 485.704 69.9493 485.928 70.408C486.152 70.8667 486.264 71.4587 486.264 72.184V76.296C486.264 76.552 486.2 76.7547 486.072 76.904C485.944 77.0427 485.758 77.112 485.512 77.112C485.278 77.112 485.091 77.0427 484.952 76.904C484.814 76.7547 484.744 76.552 484.744 76.296V75.256H484.888C484.803 75.6507 484.643 75.992 484.408 76.28C484.184 76.5573 483.902 76.7707 483.56 76.92C483.219 77.0693 482.83 77.144 482.392 77.144Z" fill="#201F1F"/>
<line x1="466.167" y1="84" x2="466.167" y2="90" stroke="#2964A0"/>
<line x1="489.167" y1="84" x2="489.167" y2="90" stroke="#2964A0"/>
<line x1="465.667" y1="89.5" x2="488.667" y2="89.5" stroke="#2964A0"/>
<path d="M469.696 106H468.324V100.829C467.823 101.298 467.232 101.645 466.552 101.869V100.624C466.91 100.507 467.299 100.285 467.719 99.96C468.138 99.6312 468.427 99.2487 468.583 98.8125H469.696V106ZM476.4 100.595L475.072 100.741C475.039 100.468 474.955 100.266 474.818 100.136C474.681 100.006 474.504 99.9404 474.286 99.9404C473.996 99.9404 473.75 100.071 473.549 100.331C473.35 100.591 473.225 101.133 473.173 101.957C473.514 101.553 473.939 101.352 474.447 101.352C475.02 101.352 475.51 101.57 475.917 102.006C476.327 102.442 476.532 103.005 476.532 103.695C476.532 104.428 476.317 105.015 475.887 105.458C475.458 105.901 474.906 106.122 474.232 106.122C473.51 106.122 472.915 105.842 472.45 105.282C471.984 104.719 471.752 103.798 471.752 102.519C471.752 101.207 471.994 100.261 472.479 99.6816C472.964 99.1022 473.594 98.8125 474.369 98.8125C474.913 98.8125 475.362 98.9655 475.717 99.2715C476.075 99.5742 476.302 100.015 476.4 100.595ZM473.29 103.588C473.29 104.034 473.392 104.379 473.597 104.623C473.802 104.864 474.037 104.984 474.301 104.984C474.554 104.984 474.766 104.885 474.935 104.687C475.105 104.488 475.189 104.162 475.189 103.71C475.189 103.244 475.098 102.904 474.916 102.689C474.733 102.471 474.506 102.362 474.232 102.362C473.969 102.362 473.746 102.466 473.563 102.675C473.381 102.88 473.29 103.184 473.29 103.588ZM477.572 100.814H478.851V101.576C479.017 101.316 479.242 101.104 479.525 100.941C479.808 100.779 480.122 100.697 480.468 100.697C481.07 100.697 481.581 100.933 482.001 101.405C482.421 101.877 482.631 102.535 482.631 103.378C482.631 104.244 482.419 104.918 481.996 105.399C481.573 105.878 481.06 106.117 480.458 106.117C480.171 106.117 479.911 106.06 479.677 105.946C479.445 105.832 479.201 105.637 478.944 105.36V107.973H477.572V100.814ZM478.929 103.319C478.929 103.902 479.045 104.333 479.276 104.613C479.507 104.89 479.789 105.028 480.121 105.028C480.44 105.028 480.705 104.901 480.917 104.647C481.128 104.39 481.234 103.97 481.234 103.388C481.234 102.844 481.125 102.44 480.907 102.177C480.689 101.913 480.419 101.781 480.096 101.781C479.761 101.781 479.483 101.911 479.261 102.172C479.04 102.429 478.929 102.812 478.929 103.319ZM483.065 106L484.935 103.329L483.143 100.814H484.818L485.736 102.24L486.703 100.814H488.314L486.556 103.271L488.475 106H486.791L485.736 104.394L484.672 106H483.065Z" fill="#3E3E3D"/>
<path d="M515.456 78.098C515.269 78.098 515.12 78.056 515.008 77.972C514.896 77.888 514.83 77.776 514.812 77.636C514.793 77.496 514.821 77.3373 514.896 77.16L518.69 68.648C518.783 68.424 518.9 68.2653 519.04 68.172C519.189 68.0787 519.352 68.032 519.53 68.032C519.698 68.032 519.852 68.0787 519.992 68.172C520.141 68.2653 520.262 68.424 520.356 68.648L524.15 77.16C524.234 77.3373 524.266 77.5007 524.248 77.65C524.229 77.79 524.168 77.902 524.066 77.986C523.963 78.0607 523.818 78.098 523.632 78.098C523.426 78.098 523.263 78.0467 523.142 77.944C523.02 77.8413 522.913 77.6827 522.82 77.468L521.84 75.2L522.498 75.592H516.534L517.178 75.2L516.212 77.468C516.118 77.692 516.016 77.8553 515.904 77.958C515.792 78.0513 515.642 78.098 515.456 78.098ZM519.502 69.74L517.388 74.752L517.038 74.416H521.98L521.658 74.752L519.53 69.74H519.502ZM527.85 78.126C527.374 78.126 526.945 78.0327 526.562 77.846C526.189 77.6593 525.895 77.4073 525.68 77.09C525.466 76.7727 525.358 76.4133 525.358 76.012C525.358 75.508 525.484 75.1113 525.736 74.822C525.998 74.5233 526.422 74.3133 527.01 74.192C527.608 74.0613 528.41 73.996 529.418 73.996H530.076V74.864H529.432C528.76 74.864 528.228 74.8967 527.836 74.962C527.444 75.0273 527.164 75.1393 526.996 75.298C526.838 75.4473 526.758 75.6573 526.758 75.928C526.758 76.2827 526.88 76.572 527.122 76.796C527.365 77.0107 527.701 77.118 528.13 77.118C528.476 77.118 528.779 77.0387 529.04 76.88C529.302 76.712 529.507 76.488 529.656 76.208C529.815 75.928 529.894 75.606 529.894 75.242V73.632C529.894 73.1 529.782 72.7173 529.558 72.484C529.334 72.2507 528.966 72.134 528.452 72.134C528.154 72.134 527.841 72.1713 527.514 72.246C527.197 72.3207 526.866 72.4467 526.52 72.624C526.362 72.6987 526.226 72.722 526.114 72.694C526.002 72.666 525.914 72.6053 525.848 72.512C525.783 72.4093 525.746 72.302 525.736 72.19C525.736 72.0687 525.764 71.952 525.82 71.84C525.886 71.728 525.993 71.644 526.142 71.588C526.553 71.392 526.959 71.252 527.36 71.168C527.762 71.084 528.14 71.042 528.494 71.042C529.12 71.042 529.633 71.14 530.034 71.336C530.445 71.532 530.748 71.8307 530.944 72.232C531.14 72.6333 531.238 73.1513 531.238 73.786V77.384C531.238 77.608 531.182 77.7853 531.07 77.916C530.958 78.0373 530.795 78.098 530.58 78.098C530.375 78.098 530.212 78.0373 530.09 77.916C529.969 77.7853 529.908 77.608 529.908 77.384V76.474H530.034C529.96 76.8193 529.82 77.118 529.614 77.37C529.418 77.6127 529.171 77.7993 528.872 77.93C528.574 78.0607 528.233 78.126 527.85 78.126Z" fill="#201F1F"/>
<line x1="512.278" y1="84" x2="512.278" y2="90" stroke="#2964A0"/>
<line x1="535.278" y1="84" x2="535.278" y2="90" stroke="#2964A0"/>
<line x1="511.778" y1="89.5" x2="534.778" y2="89.5" stroke="#2964A0"/>
<path d="M515.807 106H514.435V100.829C513.934 101.298 513.343 101.645 512.663 101.869V100.624C513.021 100.507 513.41 100.285 513.83 99.96C514.25 99.6312 514.538 99.2487 514.694 98.8125H515.807V106ZM520.553 106V104.56H517.624V103.358L520.729 98.8125H521.881V103.354H522.77V104.56H521.881V106H520.553ZM520.553 103.354V100.907L518.908 103.354H520.553ZM523.683 100.814H524.962V101.576C525.128 101.316 525.353 101.104 525.636 100.941C525.919 100.779 526.234 100.697 526.579 100.697C527.181 100.697 527.692 100.933 528.112 101.405C528.532 101.877 528.742 102.535 528.742 103.378C528.742 104.244 528.53 104.918 528.107 105.399C527.684 105.878 527.171 106.117 526.569 106.117C526.282 106.117 526.022 106.06 525.788 105.946C525.556 105.832 525.312 105.637 525.055 105.36V107.973H523.683V100.814ZM525.041 103.319C525.041 103.902 525.156 104.333 525.387 104.613C525.618 104.89 525.9 105.028 526.232 105.028C526.551 105.028 526.816 104.901 527.028 104.647C527.239 104.39 527.345 103.97 527.345 103.388C527.345 102.844 527.236 102.44 527.018 102.177C526.8 101.913 526.53 101.781 526.208 101.781C525.872 101.781 525.594 101.911 525.373 102.172C525.151 102.429 525.041 102.812 525.041 103.319ZM529.176 106L531.046 103.329L529.254 100.814H530.929L531.847 102.24L532.814 100.814H534.425L532.667 103.271L534.586 106H532.902L531.847 104.394L530.783 106H529.176Z" fill="#3E3E3D"/>
<path d="M561.184 78.084C561.024 78.084 560.896 78.048 560.8 77.976C560.704 77.904 560.648 77.808 560.632 77.688C560.616 77.568 560.64 77.432 560.704 77.28L563.956 69.984C564.036 69.792 564.136 69.656 564.256 69.576C564.384 69.496 564.524 69.456 564.676 69.456C564.82 69.456 564.952 69.496 565.072 69.576C565.2 69.656 565.304 69.792 565.384 69.984L568.636 77.28C568.708 77.432 568.736 77.572 568.72 77.7C568.704 77.82 568.652 77.916 568.564 77.988C568.476 78.052 568.352 78.084 568.192 78.084C568.016 78.084 567.876 78.04 567.772 77.952C567.668 77.864 567.576 77.728 567.496 77.544L566.656 75.6L567.22 75.936H562.108L562.66 75.6L561.832 77.544C561.752 77.736 561.664 77.876 561.568 77.964C561.472 78.044 561.344 78.084 561.184 78.084ZM564.652 70.92L562.84 75.216L562.54 74.928H566.776L566.5 75.216L564.676 70.92H564.652ZM571.808 78.108C571.4 78.108 571.032 78.028 570.704 77.868C570.384 77.708 570.132 77.492 569.948 77.22C569.764 76.948 569.672 76.64 569.672 76.296C569.672 75.864 569.78 75.524 569.996 75.276C570.22 75.02 570.584 74.84 571.088 74.736C571.6 74.624 572.288 74.568 573.152 74.568H573.716V75.312H573.164C572.588 75.312 572.132 75.34 571.796 75.396C571.46 75.452 571.22 75.548 571.076 75.684C570.94 75.812 570.872 75.992 570.872 76.224C570.872 76.528 570.976 76.776 571.184 76.968C571.392 77.152 571.68 77.244 572.048 77.244C572.344 77.244 572.604 77.176 572.828 77.04C573.052 76.896 573.228 76.704 573.356 76.464C573.492 76.224 573.56 75.948 573.56 75.636V74.256C573.56 73.8 573.464 73.472 573.272 73.272C573.08 73.072 572.764 72.972 572.324 72.972C572.068 72.972 571.8 73.004 571.52 73.068C571.248 73.132 570.964 73.24 570.668 73.392C570.532 73.456 570.416 73.476 570.32 73.452C570.224 73.428 570.148 73.376 570.092 73.296C570.036 73.208 570.004 73.116 569.996 73.02C569.996 72.916 570.02 72.816 570.068 72.72C570.124 72.624 570.216 72.552 570.344 72.504C570.696 72.336 571.044 72.216 571.388 72.144C571.732 72.072 572.056 72.036 572.36 72.036C572.896 72.036 573.336 72.12 573.68 72.288C574.032 72.456 574.292 72.712 574.46 73.056C574.628 73.4 574.712 73.844 574.712 74.388V77.472C574.712 77.664 574.664 77.816 574.568 77.928C574.472 78.032 574.332 78.084 574.148 78.084C573.972 78.084 573.832 78.032 573.728 77.928C573.624 77.816 573.572 77.664 573.572 77.472V76.692H573.68C573.616 76.988 573.496 77.244 573.32 77.46C573.152 77.668 572.94 77.828 572.684 77.94C572.428 78.052 572.136 78.108 571.808 78.108Z" fill="#CDCCCB"/>
<line x1="557.389" y1="84" x2="557.389" y2="90" stroke="#CDCCCB"/>
<line x1="579.389" y1="84" x2="579.389" y2="90" stroke="#CDCCCB"/>
<line x1="556.889" y1="89.5" x2="578.889" y2="89.5" stroke="#CDCCCB"/>
<path d="M560.765 106H559.886V100.399C559.674 100.601 559.396 100.803 559.051 101.005C558.709 101.207 558.402 101.358 558.128 101.459V100.609C558.62 100.378 559.049 100.098 559.417 99.7695C559.785 99.4408 560.045 99.1217 560.198 98.8125H560.765V106ZM567.64 105.155V106H562.908C562.902 105.788 562.936 105.585 563.011 105.39C563.131 105.067 563.323 104.75 563.587 104.438C563.854 104.125 564.238 103.764 564.74 103.354C565.517 102.715 566.043 102.211 566.317 101.84C566.59 101.465 566.727 101.112 566.727 100.78C566.727 100.432 566.601 100.139 566.351 99.9014C566.103 99.6605 565.78 99.54 565.379 99.54C564.956 99.54 564.617 99.667 564.364 99.9209C564.11 100.175 563.981 100.526 563.978 100.976L563.074 100.883C563.136 100.209 563.369 99.6963 563.773 99.3447C564.176 98.9899 564.718 98.8125 565.399 98.8125C566.086 98.8125 566.629 99.0029 567.03 99.3838C567.43 99.7646 567.63 100.237 567.63 100.8C567.63 101.086 567.572 101.368 567.454 101.645C567.337 101.921 567.142 102.213 566.868 102.519C566.598 102.825 566.147 103.244 565.516 103.778C564.989 104.221 564.65 104.522 564.5 104.682C564.351 104.838 564.227 104.996 564.129 105.155H567.64ZM568.831 107.987V100.814H569.632V101.488C569.821 101.225 570.034 101.028 570.272 100.897C570.509 100.764 570.797 100.697 571.136 100.697C571.579 100.697 571.969 100.811 572.308 101.039C572.646 101.267 572.902 101.589 573.074 102.006C573.247 102.419 573.333 102.873 573.333 103.368C573.333 103.899 573.237 104.377 573.045 104.804C572.856 105.227 572.58 105.552 572.215 105.78C571.854 106.005 571.473 106.117 571.073 106.117C570.78 106.117 570.516 106.055 570.281 105.932C570.05 105.808 569.86 105.652 569.71 105.463V107.987H568.831ZM569.627 103.437C569.627 104.104 569.762 104.597 570.032 104.916C570.303 105.235 570.63 105.395 571.014 105.395C571.405 105.395 571.738 105.23 572.015 104.901C572.295 104.569 572.435 104.057 572.435 103.363C572.435 102.702 572.298 102.208 572.025 101.879C571.754 101.55 571.431 101.386 571.053 101.386C570.679 101.386 570.347 101.562 570.057 101.913C569.77 102.261 569.627 102.769 569.627 103.437ZM573.812 106L575.706 103.305L573.953 100.814H575.052L575.848 102.03C575.998 102.261 576.118 102.455 576.209 102.611C576.352 102.396 576.484 102.206 576.605 102.04L577.479 100.814H578.529L576.737 103.256L578.665 106H577.586L576.522 104.389L576.239 103.954L574.876 106H573.812Z" fill="#CDCCCB"/>
<path d="M607.413 78.07C607.279 78.07 607.173 78.04 607.093 77.98C607.013 77.92 606.966 77.84 606.953 77.74C606.939 77.64 606.959 77.5267 607.013 77.4L609.723 71.32C609.789 71.16 609.873 71.0467 609.973 70.98C610.079 70.9133 610.196 70.88 610.323 70.88C610.443 70.88 610.553 70.9133 610.653 70.98C610.759 71.0467 610.846 71.16 610.913 71.32L613.623 77.4C613.683 77.5267 613.706 77.6433 613.693 77.75C613.679 77.85 613.636 77.93 613.563 77.99C613.489 78.0433 613.386 78.07 613.253 78.07C613.106 78.07 612.989 78.0333 612.903 77.96C612.816 77.8867 612.739 77.7733 612.673 77.62L611.973 76L612.443 76.28H608.183L608.643 76L607.953 77.62C607.886 77.78 607.813 77.8967 607.733 77.97C607.653 78.0367 607.546 78.07 607.413 78.07ZM610.303 72.1L608.793 75.68L608.543 75.44H612.073L611.843 75.68L610.323 72.1H610.303ZM616.266 78.09C615.926 78.09 615.619 78.0233 615.346 77.89C615.079 77.7567 614.869 77.5767 614.716 77.35C614.563 77.1233 614.486 76.8667 614.486 76.58C614.486 76.22 614.576 75.9367 614.756 75.73C614.943 75.5167 615.246 75.3667 615.666 75.28C616.093 75.1867 616.666 75.14 617.386 75.14H617.856V75.76H617.396C616.916 75.76 616.536 75.7833 616.256 75.83C615.976 75.8767 615.776 75.9567 615.656 76.07C615.543 76.1767 615.486 76.3267 615.486 76.52C615.486 76.7733 615.573 76.98 615.746 77.14C615.919 77.2933 616.159 77.37 616.466 77.37C616.713 77.37 616.929 77.3133 617.116 77.2C617.303 77.08 617.449 76.92 617.556 76.72C617.669 76.52 617.726 76.29 617.726 76.03V74.88C617.726 74.5 617.646 74.2267 617.486 74.06C617.326 73.8933 617.063 73.81 616.696 73.81C616.483 73.81 616.259 73.8367 616.026 73.89C615.799 73.9433 615.563 74.0333 615.316 74.16C615.203 74.2133 615.106 74.23 615.026 74.21C614.946 74.19 614.883 74.1467 614.836 74.08C614.789 74.0067 614.763 73.93 614.756 73.85C614.756 73.7633 614.776 73.68 614.816 73.6C614.863 73.52 614.939 73.46 615.046 73.42C615.339 73.28 615.629 73.18 615.916 73.12C616.203 73.06 616.473 73.03 616.726 73.03C617.173 73.03 617.539 73.1 617.826 73.24C618.119 73.38 618.336 73.5933 618.476 73.88C618.616 74.1667 618.686 74.5367 618.686 74.99V77.56C618.686 77.72 618.646 77.8467 618.566 77.94C618.486 78.0267 618.369 78.07 618.216 78.07C618.069 78.07 617.953 78.0267 617.866 77.94C617.779 77.8467 617.736 77.72 617.736 77.56V76.91H617.826C617.773 77.1567 617.673 77.37 617.526 77.55C617.386 77.7233 617.209 77.8567 616.996 77.95C616.783 78.0433 616.539 78.09 616.266 78.09Z" fill="#CDCCCB"/>
<line x1="602.5" y1="84" x2="602.5" y2="90" stroke="#CDCCCB"/>
<line x1="624.5" y1="84" x2="624.5" y2="90" stroke="#CDCCCB"/>
<line x1="602" y1="89.5" x2="624" y2="89.5" stroke="#CDCCCB"/>
<path d="M605.876 106H604.997V100.399C604.785 100.601 604.507 100.803 604.162 101.005C603.82 101.207 603.513 101.358 603.239 101.459V100.609C603.731 100.378 604.16 100.098 604.528 99.7695C604.896 99.4408 605.157 99.1217 605.31 98.8125H605.876V106ZM608.132 102.47C608.132 101.623 608.218 100.943 608.391 100.429C608.566 99.9111 608.825 99.5124 609.167 99.2324C609.512 98.9525 609.945 98.8125 610.466 98.8125C610.85 98.8125 611.187 98.8906 611.477 99.0469C611.766 99.1999 612.006 99.4229 612.194 99.7158C612.383 100.006 612.531 100.36 612.639 100.78C612.746 101.197 612.8 101.76 612.8 102.47C612.8 103.31 612.714 103.988 612.541 104.506C612.368 105.02 612.11 105.419 611.765 105.702C611.423 105.982 610.99 106.122 610.466 106.122C609.776 106.122 609.234 105.875 608.84 105.38C608.368 104.784 608.132 103.814 608.132 102.47ZM609.035 102.47C609.035 103.645 609.172 104.428 609.445 104.818C609.722 105.206 610.062 105.399 610.466 105.399C610.869 105.399 611.208 105.204 611.481 104.813C611.758 104.423 611.896 103.642 611.896 102.47C611.896 101.291 611.758 100.508 611.481 100.121C611.208 99.7337 610.866 99.54 610.456 99.54C610.052 99.54 609.73 99.7109 609.489 100.053C609.187 100.489 609.035 101.295 609.035 102.47ZM613.942 107.987V100.814H614.743V101.488C614.932 101.225 615.145 101.028 615.383 100.897C615.62 100.764 615.909 100.697 616.247 100.697C616.69 100.697 617.08 100.811 617.419 101.039C617.757 101.267 618.013 101.589 618.186 102.006C618.358 102.419 618.444 102.873 618.444 103.368C618.444 103.899 618.348 104.377 618.156 104.804C617.967 105.227 617.691 105.552 617.326 105.78C616.965 106.005 616.584 106.117 616.184 106.117C615.891 106.117 615.627 106.055 615.393 105.932C615.161 105.808 614.971 105.652 614.821 105.463V107.987H613.942ZM614.738 103.437C614.738 104.104 614.873 104.597 615.144 104.916C615.414 105.235 615.741 105.395 616.125 105.395C616.516 105.395 616.849 105.23 617.126 104.901C617.406 104.569 617.546 104.057 617.546 103.363C617.546 102.702 617.409 102.208 617.136 101.879C616.866 101.55 616.542 101.386 616.164 101.386C615.79 101.386 615.458 101.562 615.168 101.913C614.882 102.261 614.738 102.769 614.738 103.437ZM618.923 106L620.817 103.305L619.064 100.814H620.163L620.959 102.03C621.109 102.261 621.229 102.455 621.32 102.611C621.464 102.396 621.595 102.206 621.716 102.04L622.59 100.814H623.64L621.848 103.256L623.776 106H622.697L621.633 104.389L621.35 103.954L619.987 106H618.923Z" fill="#CDCCCB"/>
<path d="M477.354 117.646C477.158 117.451 476.842 117.451 476.646 117.646L473.464 120.828C473.269 121.024 473.269 121.34 473.464 121.536C473.66 121.731 473.976 121.731 474.172 121.536L477 118.707L479.828 121.536C480.024 121.731 480.34 121.731 480.536 121.536C480.731 121.34 480.731 121.024 480.536 120.828L477.354 117.646ZM523 118H522.5C522.5 122.499 520.034 126.612 515.966 129.619C511.899 132.625 506.255 134.5 500 134.5V135V135.5C506.447 135.5 512.304 133.569 516.561 130.423C520.817 127.277 523.5 122.89 523.5 118H523ZM500 135V134.5C493.745 134.5 488.101 132.625 484.034 129.619C479.966 126.612 477.5 122.499 477.5 118H477H476.5C476.5 122.89 479.183 127.277 483.439 130.423C487.696 133.569 493.553 135.5 500 135.5V135Z" fill="#2964A0"/>
<path d="M457.051 153H455.679V147.829C455.177 148.298 454.587 148.645 453.906 148.869V147.624C454.264 147.507 454.653 147.285 455.073 146.96C455.493 146.631 455.781 146.249 455.938 145.812H457.051V153ZM461.797 153V151.56H458.867V150.358L461.973 145.812H463.125V150.354H464.014V151.56H463.125V153H461.797ZM461.797 150.354V147.907L460.151 150.354H461.797ZM467.09 153L468.96 150.329L467.168 147.814H468.843L469.761 149.24L470.728 147.814H472.339L470.581 150.271L472.5 153H470.815L469.761 151.394L468.696 153H467.09ZM479.316 153H477.944V147.829C477.443 148.298 476.852 148.645 476.172 148.869V147.624C476.53 147.507 476.919 147.285 477.339 146.96C477.759 146.631 478.047 146.249 478.203 145.812H479.316V153ZM481.631 151.628H483.003V152.609C483.003 153.007 482.969 153.319 482.9 153.547C482.832 153.778 482.702 153.985 482.51 154.167C482.321 154.349 482.08 154.493 481.787 154.597L481.519 154.03C481.795 153.939 481.992 153.814 482.109 153.654C482.227 153.495 482.288 153.277 482.295 153H481.631V151.628ZM488.789 151.726V153H483.979C484.032 152.518 484.188 152.062 484.448 151.633C484.709 151.2 485.223 150.627 485.991 149.914C486.61 149.338 486.989 148.947 487.129 148.742C487.318 148.459 487.412 148.179 487.412 147.902C487.412 147.596 487.329 147.362 487.163 147.199C487 147.033 486.774 146.95 486.484 146.95C486.198 146.95 485.97 147.036 485.801 147.209C485.632 147.382 485.534 147.668 485.508 148.068L484.141 147.932C484.222 147.176 484.478 146.634 484.907 146.306C485.337 145.977 485.874 145.812 486.519 145.812C487.225 145.812 487.78 146.003 488.184 146.384C488.587 146.765 488.789 147.238 488.789 147.805C488.789 148.127 488.73 148.435 488.613 148.728C488.499 149.017 488.317 149.322 488.066 149.641C487.9 149.852 487.601 150.157 487.168 150.554C486.735 150.951 486.46 151.215 486.343 151.345C486.229 151.475 486.136 151.602 486.064 151.726H488.789ZM492.495 149.016V147.756H497.5V149.016H492.495ZM492.495 151.184V149.919H497.5V151.184H492.495ZM504.639 153H503.267V147.829C502.765 148.298 502.174 148.645 501.494 148.869V147.624C501.852 147.507 502.241 147.285 502.661 146.96C503.081 146.631 503.369 146.249 503.525 145.812H504.639V153ZM511.343 147.595L510.015 147.741C509.982 147.468 509.897 147.266 509.761 147.136C509.624 147.006 509.447 146.94 509.229 146.94C508.939 146.94 508.693 147.071 508.491 147.331C508.293 147.591 508.167 148.133 508.115 148.957C508.457 148.553 508.882 148.352 509.39 148.352C509.963 148.352 510.452 148.57 510.859 149.006C511.27 149.442 511.475 150.005 511.475 150.695C511.475 151.428 511.26 152.015 510.83 152.458C510.4 152.901 509.849 153.122 509.175 153.122C508.452 153.122 507.858 152.842 507.393 152.282C506.927 151.719 506.694 150.798 506.694 149.519C506.694 148.207 506.937 147.261 507.422 146.682C507.907 146.102 508.537 145.812 509.312 145.812C509.855 145.812 510.304 145.965 510.659 146.271C511.017 146.574 511.245 147.015 511.343 147.595ZM508.232 150.588C508.232 151.034 508.335 151.379 508.54 151.623C508.745 151.864 508.979 151.984 509.243 151.984C509.497 151.984 509.709 151.885 509.878 151.687C510.047 151.488 510.132 151.162 510.132 150.71C510.132 150.244 510.041 149.904 509.858 149.689C509.676 149.471 509.448 149.362 509.175 149.362C508.911 149.362 508.688 149.466 508.506 149.675C508.324 149.88 508.232 150.184 508.232 150.588ZM512.52 151.628H513.892V152.609C513.892 153.007 513.857 153.319 513.789 153.547C513.721 153.778 513.59 153.985 513.398 154.167C513.21 154.349 512.969 154.493 512.676 154.597L512.407 154.03C512.684 153.939 512.881 153.814 512.998 153.654C513.115 153.495 513.177 153.277 513.184 153H512.52V151.628ZM516.221 149.138C515.866 148.988 515.607 148.783 515.444 148.522C515.285 148.259 515.205 147.971 515.205 147.658C515.205 147.124 515.391 146.683 515.762 146.335C516.136 145.987 516.667 145.812 517.354 145.812C518.034 145.812 518.561 145.987 518.936 146.335C519.313 146.683 519.502 147.124 519.502 147.658C519.502 147.99 519.416 148.286 519.243 148.547C519.071 148.804 518.828 149.001 518.516 149.138C518.913 149.297 519.214 149.53 519.419 149.836C519.627 150.142 519.731 150.495 519.731 150.896C519.731 151.556 519.52 152.093 519.097 152.507C518.677 152.92 518.117 153.127 517.417 153.127C516.766 153.127 516.224 152.956 515.791 152.614C515.28 152.211 515.024 151.657 515.024 150.954C515.024 150.567 515.12 150.212 515.312 149.89C515.505 149.564 515.807 149.313 516.221 149.138ZM516.504 147.756C516.504 148.029 516.58 148.243 516.733 148.396C516.89 148.549 517.096 148.625 517.354 148.625C517.614 148.625 517.822 148.549 517.979 148.396C518.135 148.239 518.213 148.024 518.213 147.751C518.213 147.494 518.135 147.289 517.979 147.136C517.826 146.979 517.622 146.901 517.368 146.901C517.104 146.901 516.895 146.979 516.738 147.136C516.582 147.292 516.504 147.499 516.504 147.756ZM516.377 150.822C516.377 151.2 516.473 151.494 516.665 151.706C516.86 151.918 517.103 152.023 517.393 152.023C517.676 152.023 517.91 151.923 518.096 151.721C518.281 151.516 518.374 151.221 518.374 150.837C518.374 150.502 518.28 150.233 518.091 150.031C517.902 149.826 517.663 149.724 517.373 149.724C517.038 149.724 516.787 149.839 516.621 150.07C516.458 150.301 516.377 150.552 516.377 150.822ZM530.562 148.723C530.994 149.195 531.369 149.554 531.685 149.802C532 150.046 532.298 150.228 532.578 150.349V150.568C532.256 150.725 531.943 150.925 531.641 151.169C531.338 151.41 530.977 151.765 530.557 152.233H530.181C530.487 151.579 530.807 151.076 531.143 150.725H523.354V150.231H531.143C530.895 149.919 530.723 149.686 530.625 149.533C530.527 149.377 530.382 149.107 530.19 148.723H530.562ZM539.688 153H538.315V147.829C537.814 148.298 537.223 148.645 536.543 148.869V147.624C536.901 147.507 537.29 147.285 537.71 146.96C538.13 146.631 538.418 146.249 538.574 145.812H539.688V153ZM546.392 147.595L545.063 147.741C545.031 147.468 544.946 147.266 544.81 147.136C544.673 147.006 544.495 146.94 544.277 146.94C543.988 146.94 543.742 147.071 543.54 147.331C543.341 147.591 543.216 148.133 543.164 148.957C543.506 148.553 543.931 148.352 544.438 148.352C545.011 148.352 545.501 148.57 545.908 149.006C546.318 149.442 546.523 150.005 546.523 150.695C546.523 151.428 546.309 152.015 545.879 152.458C545.449 152.901 544.897 153.122 544.224 153.122C543.501 153.122 542.907 152.842 542.441 152.282C541.976 151.719 541.743 150.798 541.743 149.519C541.743 148.207 541.986 147.261 542.471 146.682C542.956 146.102 543.586 145.812 544.36 145.812C544.904 145.812 545.353 145.965 545.708 146.271C546.066 146.574 546.294 147.015 546.392 147.595ZM543.281 150.588C543.281 151.034 543.384 151.379 543.589 151.623C543.794 151.864 544.028 151.984 544.292 151.984C544.546 151.984 544.757 151.885 544.927 151.687C545.096 151.488 545.181 151.162 545.181 150.71C545.181 150.244 545.09 149.904 544.907 149.689C544.725 149.471 544.497 149.362 544.224 149.362C543.96 149.362 543.737 149.466 543.555 149.675C543.372 149.88 543.281 150.184 543.281 150.588Z" fill="#3E3E3D"/>
</svg>
