<svg viewBox="0 0 20 20" fill="none" xmlns="http://www.w3.org/2000/svg">
<path d="M3.33317 16.6667C2.87484 16.6667 2.48248 16.5035 2.15609 16.1771C1.8297 15.8507 1.6665 15.4584 1.6665 15V5.00004C1.6665 4.54171 1.8297 4.14935 2.15609 3.82296C2.48248 3.49657 2.87484 3.33337 3.33317 3.33337H7.64567C7.86789 3.33337 8.0797 3.37504 8.28109 3.45837C8.48248 3.54171 8.65956 3.65976 8.81234 3.81254L9.99984 5.00004H16.6665C17.1248 5.00004 17.5172 5.16324 17.8436 5.48962C18.17 5.81601 18.3332 6.20837 18.3332 6.66671V15C18.3332 15.4584 18.17 15.8507 17.8436 16.1771C17.5172 16.5035 17.1248 16.6667 16.6665 16.6667H3.33317ZM3.33317 15H16.6665V6.66671H9.31234L7.64567 5.00004H3.33317V15ZM11.6665 11.6667V12.5C11.6665 12.7362 11.7464 12.9341 11.9061 13.0938C12.0658 13.2535 12.2637 13.3334 12.4998 13.3334C12.7359 13.3334 12.9339 13.2535 13.0936 13.0938C13.2533 12.9341 13.3332 12.7362 13.3332 12.5V11.6667H14.1665C14.4026 11.6667 14.6005 11.5868 14.7603 11.4271C14.92 11.2674 14.9998 11.0695 14.9998 10.8334C14.9998 10.5973 14.92 10.3993 14.7603 10.2396C14.6005 10.0799 14.4026 10 14.1665 10H13.3332V9.16671C13.3332 8.9306 13.2533 8.73268 13.0936 8.57296C12.9339 8.41324 12.7359 8.33337 12.4998 8.33337C12.2637 8.33337 12.0658 8.41324 11.9061 8.57296C11.7464 8.73268 11.6665 8.9306 11.6665 9.16671V10H10.8332C10.5971 10 10.3991 10.0799 10.2394 10.2396C10.0797 10.3993 9.99984 10.5973 9.99984 10.8334C9.99984 11.0695 10.0797 11.2674 10.2394 11.4271C10.3991 11.5868 10.5971 11.6667 10.8332 11.6667H11.6665Z" fill="currentColor"/>
</svg>