<svg viewBox="0 0 20 20" fill="none" xmlns="http://www.w3.org/2000/svg">
<path d="M7.5625 17.5C7.34028 17.5 7.12847 17.4583 6.92708 17.375C6.72569 17.2917 6.54861 17.1736 6.39583 17.0208L2.97917 13.6042C2.82639 13.4514 2.70833 13.2743 2.625 13.0729C2.54167 12.8715 2.5 12.6597 2.5 12.4375V7.5625C2.5 7.34028 2.54167 7.12847 2.625 6.92708C2.70833 6.72569 2.82639 6.54861 2.97917 6.39583L6.39583 2.97917C6.54861 2.82639 6.72569 2.70833 6.92708 2.625C7.12847 2.54167 7.34028 2.5 7.5625 2.5H12.4375C12.6597 2.5 12.8715 2.54167 13.0729 2.625C13.2743 2.70833 13.4514 2.82639 13.6042 2.97917L17.0208 6.39583C17.1736 6.54861 17.2917 6.72569 17.375 6.92708C17.4583 7.12847 17.5 7.34028 17.5 7.5625V12.4375C17.5 12.6597 17.4583 12.8715 17.375 13.0729C17.2917 13.2743 17.1736 13.4514 17.0208 13.6042L13.6042 17.0208C13.4514 17.1736 13.2743 17.2917 13.0729 17.375C12.8715 17.4583 12.6597 17.5 12.4375 17.5H7.5625ZM7.58333 15.8333H12.4167L15.8333 12.4167V7.58333L12.4167 4.16667H7.58333L4.16667 7.58333V12.4167L7.58333 15.8333ZM10 11.1667L11.7917 12.9583C11.9444 13.1111 12.1389 13.1875 12.375 13.1875C12.6111 13.1875 12.8056 13.1111 12.9583 12.9583C13.1111 12.8056 13.1875 12.6111 13.1875 12.375C13.1875 12.1389 13.1111 11.9444 12.9583 11.7917L11.1667 10L12.9583 8.20833C13.1111 8.05556 13.1875 7.86111 13.1875 7.625C13.1875 7.38889 13.1111 7.19444 12.9583 7.04167C12.8056 6.88889 12.6111 6.8125 12.375 6.8125C12.1389 6.8125 11.9444 6.88889 11.7917 7.04167L10 8.83333L8.20833 7.04167C8.05556 6.88889 7.86111 6.8125 7.625 6.8125C7.38889 6.8125 7.19444 6.88889 7.04167 7.04167C6.88889 7.19444 6.8125 7.38889 6.8125 7.625C6.8125 7.86111 6.88889 8.05556 7.04167 8.20833L8.83333 10L7.04167 11.7917C6.88889 11.9444 6.8125 12.1389 6.8125 12.375C6.8125 12.6111 6.88889 12.8056 7.04167 12.9583C7.19444 13.1111 7.38889 13.1875 7.625 13.1875C7.86111 13.1875 8.05556 13.1111 8.20833 12.9583L10 11.1667Z" fill="currentColor"/>
</svg>