<svg viewBox="0 0 20 20" fill="none" xmlns="http://www.w3.org/2000/svg">
<path d="M5.83334 17.5C5.375 17.5 4.98264 17.3368 4.65625 17.0104C4.32986 16.684 4.16667 16.2917 4.16667 15.8333V5C3.93056 5 3.73264 4.92014 3.57292 4.76042C3.4132 4.60069 3.33334 4.40278 3.33334 4.16667C3.33334 3.93056 3.4132 3.73264 3.57292 3.57292C3.73264 3.41319 3.93056 3.33333 4.16667 3.33333H7.5C7.5 3.09722 7.57986 2.89931 7.73959 2.73958C7.89931 2.57986 8.09722 2.5 8.33334 2.5H11.6667C11.9028 2.5 12.1007 2.57986 12.2604 2.73958C12.4201 2.89931 12.5 3.09722 12.5 3.33333H15.8333C16.0694 3.33333 16.2674 3.41319 16.4271 3.57292C16.5868 3.73264 16.6667 3.93056 16.6667 4.16667C16.6667 4.40278 16.5868 4.60069 16.4271 4.76042C16.2674 4.92014 16.0694 5 15.8333 5V15.8333C15.8333 16.2917 15.6701 16.684 15.3438 17.0104C15.0174 17.3368 14.625 17.5 14.1667 17.5H5.83334ZM14.1667 5H5.83334V15.8333H14.1667V5ZM9.16667 9.875V12.5C9.16667 12.7361 9.24653 12.934 9.40625 13.0938C9.56597 13.2535 9.76389 13.3333 10 13.3333C10.2361 13.3333 10.434 13.2535 10.5938 13.0938C10.7535 12.934 10.8333 12.7361 10.8333 12.5V9.875L11.5833 10.6042C11.7361 10.7569 11.9271 10.8333 12.1563 10.8333C12.3854 10.8333 12.5833 10.75 12.75 10.5833C12.9028 10.4306 12.9792 10.2361 12.9792 10C12.9792 9.76389 12.9028 9.56944 12.75 9.41667L10.5833 7.25C10.4167 7.08333 10.2222 7 10 7C9.77778 7 9.58334 7.08333 9.41667 7.25L7.25 9.41667C7.09722 9.56944 7.01736 9.76042 7.01042 9.98958C7.00347 10.2188 7.08334 10.4167 7.25 10.5833C7.40278 10.7361 7.59375 10.816 7.82292 10.8229C8.05209 10.8299 8.25 10.7569 8.41667 10.6042L9.16667 9.875Z" fill="currentColor"/>
</svg>