<svg width="1159" height="110" viewBox="0 0 1159 110" fill="none" xmlns="http://www.w3.org/2000/svg">
<g clip-path="url(#clip0_304_42085)">
<rect width="579.5" height="61" fill="white"/>
<path d="M23.76 37.18C22.4267 37.18 21.26 36.8867 20.26 36.3C19.2733 35.7 18.5067 34.86 17.96 33.78C17.4267 32.6867 17.16 31.4067 17.16 29.94C17.16 28.8333 17.3133 27.84 17.62 26.96C17.9267 26.0667 18.3667 25.3067 18.94 24.68C19.5133 24.04 20.2067 23.5533 21.02 23.22C21.8333 22.8867 22.7467 22.72 23.76 22.72C25.1067 22.72 26.2733 23.0133 27.26 23.6C28.2467 24.1867 29.0067 25.02 29.54 26.1C30.0867 27.18 30.36 28.4533 30.36 29.92C30.36 31.0267 30.2067 32.0267 29.9 32.92C29.5933 33.8133 29.1467 34.58 28.56 35.22C27.9867 35.86 27.2933 36.3467 26.48 36.68C25.6667 37.0133 24.76 37.18 23.76 37.18ZM23.76 35.38C24.6933 35.38 25.4867 35.1667 26.14 34.74C26.8067 34.3133 27.3133 33.6933 27.66 32.88C28.02 32.0667 28.2 31.0867 28.2 29.94C28.2 28.22 27.8133 26.8867 27.04 25.94C26.2667 24.9933 25.1733 24.52 23.76 24.52C22.8267 24.52 22.0267 24.7333 21.36 25.16C20.7067 25.5733 20.2 26.1867 19.84 27C19.4933 27.8133 19.32 28.7933 19.32 29.94C19.32 31.6467 19.7067 32.98 20.48 33.94C21.2667 34.9 22.36 35.38 23.76 35.38ZM33.4278 40.74C33.1078 40.74 32.8611 40.6533 32.6878 40.48C32.5145 40.3067 32.4278 40.0533 32.4278 39.72V28.12C32.4278 27.7867 32.5145 27.5333 32.6878 27.36C32.8611 27.1867 33.1011 27.1 33.4078 27.1C33.7278 27.1 33.9745 27.1867 34.1478 27.36C34.3211 27.5333 34.4078 27.7867 34.4078 28.12V29.86L34.1878 29.44C34.4011 28.72 34.8211 28.1467 35.4478 27.72C36.0745 27.28 36.8145 27.06 37.6678 27.06C38.5345 27.06 39.2878 27.2667 39.9278 27.68C40.5811 28.0933 41.0811 28.6733 41.4278 29.42C41.7878 30.1667 41.9678 31.0667 41.9678 32.12C41.9678 33.1467 41.7878 34.0467 41.4278 34.82C41.0811 35.58 40.5878 36.1667 39.9478 36.58C39.3078 36.98 38.5478 37.18 37.6678 37.18C36.8278 37.18 36.0945 36.9667 35.4678 36.54C34.8411 36.1133 34.4211 35.5467 34.2078 34.84H34.4478V39.72C34.4478 40.0533 34.3545 40.3067 34.1678 40.48C33.9945 40.6533 33.7478 40.74 33.4278 40.74ZM37.1678 35.62C37.7278 35.62 38.2145 35.4867 38.6278 35.22C39.0411 34.9533 39.3611 34.56 39.5878 34.04C39.8145 33.52 39.9278 32.88 39.9278 32.12C39.9278 30.9733 39.6745 30.1067 39.1678 29.52C38.6745 28.9333 38.0078 28.64 37.1678 28.64C36.6211 28.64 36.1345 28.7733 35.7078 29.04C35.2945 29.2933 34.9745 29.68 34.7478 30.2C34.5211 30.72 34.4078 31.36 34.4078 32.12C34.4078 33.2533 34.6611 34.12 35.1678 34.72C35.6745 35.32 36.3411 35.62 37.1678 35.62ZM47.8066 37.18C47.0066 37.18 46.3332 37.04 45.7866 36.76C45.2399 36.48 44.8332 36.0667 44.5666 35.52C44.2999 34.9733 44.1666 34.3067 44.1666 33.52V28.8H42.9666C42.6999 28.8 42.4932 28.7333 42.3466 28.6C42.1999 28.4533 42.1266 28.26 42.1266 28.02C42.1266 27.7667 42.1999 27.5733 42.3466 27.44C42.4932 27.3067 42.6999 27.24 42.9666 27.24H44.1666V25.18C44.1666 24.8467 44.2532 24.5933 44.4266 24.42C44.6132 24.2467 44.8666 24.16 45.1866 24.16C45.5066 24.16 45.7532 24.2467 45.9266 24.42C46.0999 24.5933 46.1866 24.8467 46.1866 25.18V27.24H48.5266C48.7932 27.24 48.9999 27.3067 49.1466 27.44C49.2932 27.5733 49.3666 27.7667 49.3666 28.02C49.3666 28.26 49.2932 28.4533 49.1466 28.6C48.9999 28.7333 48.7932 28.8 48.5266 28.8H46.1866V33.36C46.1866 34.0667 46.3332 34.6 46.6266 34.96C46.9332 35.32 47.4266 35.5 48.1066 35.5C48.3466 35.5 48.5532 35.48 48.7266 35.44C48.9132 35.3867 49.0666 35.3533 49.1866 35.34C49.3332 35.34 49.4532 35.3933 49.5466 35.5C49.6399 35.5933 49.6866 35.78 49.6866 36.06C49.6866 36.26 49.6466 36.4467 49.5666 36.62C49.4999 36.7933 49.3732 36.9067 49.1866 36.96C49.0266 37.0133 48.8066 37.06 48.5266 37.1C48.2599 37.1533 48.0199 37.18 47.8066 37.18ZM51.627 37.12C51.307 37.12 51.0604 37.0267 50.887 36.84C50.7137 36.64 50.627 36.3667 50.627 36.02V28.22C50.627 27.8733 50.7137 27.6067 50.887 27.42C51.0604 27.2333 51.307 27.14 51.627 27.14C51.947 27.14 52.1937 27.2333 52.367 27.42C52.5537 27.6067 52.647 27.8733 52.647 28.22V36.02C52.647 36.3667 52.5604 36.64 52.387 36.84C52.2137 37.0267 51.9604 37.12 51.627 37.12ZM51.627 25.06C51.227 25.06 50.9137 24.96 50.687 24.76C50.4737 24.56 50.367 24.28 50.367 23.92C50.367 23.5467 50.4737 23.2667 50.687 23.08C50.9137 22.88 51.227 22.78 51.627 22.78C52.027 22.78 52.3337 22.88 52.547 23.08C52.7737 23.2667 52.887 23.5467 52.887 23.92C52.887 24.28 52.7737 24.56 52.547 24.76C52.3337 24.96 52.027 25.06 51.627 25.06ZM59.2303 37.18C58.2436 37.18 57.3903 36.9733 56.6703 36.56C55.9636 36.1467 55.4103 35.56 55.0103 34.8C54.6103 34.04 54.4103 33.1467 54.4103 32.12C54.4103 31.3333 54.5236 30.6333 54.7503 30.02C54.977 29.4067 55.297 28.88 55.7103 28.44C56.137 27.9867 56.6436 27.6467 57.2303 27.42C57.8303 27.18 58.497 27.06 59.2303 27.06C60.2036 27.06 61.0436 27.2667 61.7503 27.68C62.4703 28.0933 63.0303 28.68 63.4303 29.44C63.8303 30.1867 64.0303 31.08 64.0303 32.12C64.0303 32.8933 63.917 33.5933 63.6903 34.22C63.4636 34.8467 63.137 35.38 62.7103 35.82C62.297 36.26 61.7903 36.6 61.1903 36.84C60.6036 37.0667 59.9503 37.18 59.2303 37.18ZM59.2303 35.62C59.777 35.62 60.257 35.4867 60.6703 35.22C61.0836 34.9533 61.4036 34.56 61.6303 34.04C61.8703 33.52 61.9903 32.88 61.9903 32.12C61.9903 30.9733 61.737 30.1067 61.2303 29.52C60.7236 28.9333 60.057 28.64 59.2303 28.64C58.6703 28.64 58.1836 28.7733 57.7703 29.04C57.357 29.2933 57.0303 29.68 56.7903 30.2C56.5636 30.72 56.4503 31.36 56.4503 32.12C56.4503 33.2533 56.7036 34.12 57.2103 34.72C57.717 35.32 58.3903 35.62 59.2303 35.62ZM66.7989 37.14C66.4789 37.14 66.2322 37.0533 66.0589 36.88C65.8856 36.6933 65.7989 36.44 65.7989 36.12V28.12C65.7989 27.7867 65.8856 27.5333 66.0589 27.36C66.2322 27.1867 66.4722 27.1 66.7789 27.1C67.0989 27.1 67.3389 27.1867 67.4989 27.36C67.6722 27.5333 67.7589 27.7867 67.7589 28.12V29.68L67.5389 29.32C67.8322 28.5733 68.2922 28.0133 68.9189 27.64C69.5456 27.2533 70.2656 27.06 71.0789 27.06C71.8522 27.06 72.4922 27.2067 72.9989 27.5C73.5189 27.78 73.9056 28.2133 74.1589 28.8C74.4122 29.3733 74.5389 30.1 74.5389 30.98V36.12C74.5389 36.44 74.4522 36.6933 74.2789 36.88C74.1056 37.0533 73.8589 37.14 73.5389 37.14C73.2056 37.14 72.9522 37.0533 72.7789 36.88C72.6056 36.6933 72.5189 36.44 72.5189 36.12V31.1C72.5189 30.26 72.3522 29.6467 72.0189 29.26C71.6989 28.8733 71.1922 28.68 70.4989 28.68C69.6856 28.68 69.0322 28.9333 68.5389 29.44C68.0589 29.9467 67.8189 30.6267 67.8189 31.48V36.12C67.8189 36.8 67.4789 37.14 66.7989 37.14Z" fill="#201F1F"/>
<path d="M0 60.5H579.5" stroke="#CDCCCB"/>
<rect width="579.5" height="49" transform="translate(0 61)" fill="white"/>
<path d="M16.5781 87.2734L18.8281 87.0547C18.9635 87.8099 19.237 88.3646 19.6484 88.7188C20.0651 89.0729 20.625 89.25 21.3281 89.25C22.0729 89.25 22.6328 89.0938 23.0078 88.7812C23.388 88.4635 23.5781 88.0938 23.5781 87.6719C23.5781 87.401 23.4974 87.1719 23.3359 86.9844C23.1797 86.7917 22.9036 86.625 22.5078 86.4844C22.237 86.3906 21.6198 86.224 20.6562 85.9844C19.4167 85.6771 18.5469 85.2995 18.0469 84.8516C17.3438 84.2214 16.9922 83.4531 16.9922 82.5469C16.9922 81.9635 17.1562 81.4193 17.4844 80.9141C17.8177 80.4036 18.2943 80.0156 18.9141 79.75C19.5391 79.4844 20.2917 79.3516 21.1719 79.3516C22.6094 79.3516 23.6901 79.6667 24.4141 80.2969C25.1432 80.9271 25.526 81.7682 25.5625 82.8203L23.25 82.9219C23.151 82.3333 22.9375 81.9115 22.6094 81.6562C22.2865 81.3958 21.7995 81.2656 21.1484 81.2656C20.4766 81.2656 19.9505 81.4036 19.5703 81.6797C19.3255 81.8568 19.2031 82.0938 19.2031 82.3906C19.2031 82.6615 19.3177 82.8932 19.5469 83.0859C19.8385 83.3307 20.5469 83.5859 21.6719 83.8516C22.7969 84.1172 23.6276 84.3932 24.1641 84.6797C24.7057 84.9609 25.1276 85.349 25.4297 85.8438C25.737 86.3333 25.8906 86.9401 25.8906 87.6641C25.8906 88.3203 25.7083 88.9349 25.3438 89.5078C24.9792 90.0807 24.4635 90.5078 23.7969 90.7891C23.1302 91.0651 22.2995 91.2031 21.3047 91.2031C19.8568 91.2031 18.7448 90.8698 17.9688 90.2031C17.1927 89.5312 16.7292 88.5547 16.5781 87.2734ZM32.625 88.3594L34.8125 88.7266C34.5312 89.5286 34.0859 90.1406 33.4766 90.5625C32.8724 90.9792 32.1146 91.1875 31.2031 91.1875C29.7604 91.1875 28.6927 90.7161 28 89.7734C27.4531 89.0182 27.1797 88.0651 27.1797 86.9141C27.1797 85.5391 27.5391 84.4635 28.2578 83.6875C28.9766 82.9062 29.8854 82.5156 30.9844 82.5156C32.2188 82.5156 33.1927 82.9245 33.9062 83.7422C34.6198 84.5547 34.9609 85.8021 34.9297 87.4844H29.4297C29.4453 88.1354 29.6224 88.6432 29.9609 89.0078C30.2995 89.3672 30.7214 89.5469 31.2266 89.5469C31.5703 89.5469 31.8594 89.4531 32.0938 89.2656C32.3281 89.0781 32.5052 88.776 32.625 88.3594ZM32.75 86.1406C32.7344 85.5052 32.5703 85.0234 32.2578 84.6953C31.9453 84.362 31.5651 84.1953 31.1172 84.1953C30.638 84.1953 30.2422 84.3698 29.9297 84.7188C29.6172 85.0677 29.4635 85.5417 29.4688 86.1406H32.75ZM36.7266 91V79.5469H38.9219V91H36.7266ZM45.9844 88.3594L48.1719 88.7266C47.8906 89.5286 47.4453 90.1406 46.8359 90.5625C46.2318 90.9792 45.474 91.1875 44.5625 91.1875C43.1198 91.1875 42.0521 90.7161 41.3594 89.7734C40.8125 89.0182 40.5391 88.0651 40.5391 86.9141C40.5391 85.5391 40.8984 84.4635 41.6172 83.6875C42.3359 82.9062 43.2448 82.5156 44.3438 82.5156C45.5781 82.5156 46.5521 82.9245 47.2656 83.7422C47.9792 84.5547 48.3203 85.8021 48.2891 87.4844H42.7891C42.8047 88.1354 42.9818 88.6432 43.3203 89.0078C43.6589 89.3672 44.0807 89.5469 44.5859 89.5469C44.9297 89.5469 45.2188 89.4531 45.4531 89.2656C45.6875 89.0781 45.8646 88.776 45.9844 88.3594ZM46.1094 86.1406C46.0938 85.5052 45.9297 85.0234 45.6172 84.6953C45.3047 84.362 44.9245 84.1953 44.4766 84.1953C43.9974 84.1953 43.6016 84.3698 43.2891 84.7188C42.9766 85.0677 42.8229 85.5417 42.8281 86.1406H46.1094ZM57.3203 85.1562L55.1562 85.5469C55.0833 85.1146 54.9167 84.7891 54.6562 84.5703C54.401 84.3516 54.0677 84.2422 53.6562 84.2422C53.1094 84.2422 52.6719 84.4323 52.3438 84.8125C52.0208 85.1875 51.8594 85.8177 51.8594 86.7031C51.8594 87.6875 52.0234 88.3828 52.3516 88.7891C52.6849 89.1953 53.1302 89.3984 53.6875 89.3984C54.1042 89.3984 54.4453 89.2812 54.7109 89.0469C54.9766 88.8073 55.1641 88.3984 55.2734 87.8203L57.4297 88.1875C57.2057 89.1771 56.776 89.9245 56.1406 90.4297C55.5052 90.9349 54.6536 91.1875 53.5859 91.1875C52.3724 91.1875 51.4036 90.8047 50.6797 90.0391C49.9609 89.2734 49.6016 88.2135 49.6016 86.8594C49.6016 85.4896 49.9635 84.4245 50.6875 83.6641C51.4115 82.8984 52.3906 82.5156 53.625 82.5156C54.6354 82.5156 55.4375 82.7344 56.0312 83.1719C56.6302 83.6042 57.0599 84.2656 57.3203 85.1562ZM62.7969 82.7031V84.4531H61.2969V87.7969C61.2969 88.474 61.3099 88.8698 61.3359 88.9844C61.3672 89.0938 61.4323 89.1849 61.5312 89.2578C61.6354 89.3307 61.7604 89.3672 61.9062 89.3672C62.1094 89.3672 62.4036 89.2969 62.7891 89.1562L62.9766 90.8594C62.4661 91.0781 61.888 91.1875 61.2422 91.1875C60.8464 91.1875 60.4896 91.1224 60.1719 90.9922C59.8542 90.8568 59.6198 90.6849 59.4688 90.4766C59.3229 90.263 59.2214 89.9766 59.1641 89.6172C59.1172 89.362 59.0938 88.8464 59.0938 88.0703V84.4531H58.0859V82.7031H59.0938V81.0547L61.2969 79.7734V82.7031H62.7969ZM69.125 88.3594L71.3125 88.7266C71.0312 89.5286 70.5859 90.1406 69.9766 90.5625C69.3724 90.9792 68.6146 91.1875 67.7031 91.1875C66.2604 91.1875 65.1927 90.7161 64.5 89.7734C63.9531 89.0182 63.6797 88.0651 63.6797 86.9141C63.6797 85.5391 64.0391 84.4635 64.7578 83.6875C65.4766 82.9062 66.3854 82.5156 67.4844 82.5156C68.7188 82.5156 69.6927 82.9245 70.4062 83.7422C71.1198 84.5547 71.4609 85.8021 71.4297 87.4844H65.9297C65.9453 88.1354 66.1224 88.6432 66.4609 89.0078C66.7995 89.3672 67.2214 89.5469 67.7266 89.5469C68.0703 89.5469 68.3594 89.4531 68.5938 89.2656C68.8281 89.0781 69.0052 88.776 69.125 88.3594ZM69.25 86.1406C69.2344 85.5052 69.0703 85.0234 68.7578 84.6953C68.4453 84.362 68.0651 84.1953 67.6172 84.1953C67.138 84.1953 66.7422 84.3698 66.4297 84.7188C66.1172 85.0677 65.9635 85.5417 65.9688 86.1406H69.25ZM80.8359 91H78.7969V89.7812C78.4583 90.2552 78.0573 90.6094 77.5938 90.8438C77.1354 91.0729 76.6719 91.1875 76.2031 91.1875C75.25 91.1875 74.4323 90.8047 73.75 90.0391C73.0729 89.2682 72.7344 88.1953 72.7344 86.8203C72.7344 85.4141 73.0651 84.3464 73.7266 83.6172C74.388 82.8828 75.224 82.5156 76.2344 82.5156C77.1615 82.5156 77.9635 82.901 78.6406 83.6719V79.5469H80.8359V91ZM74.9766 86.6719C74.9766 87.5573 75.099 88.1979 75.3438 88.5938C75.6979 89.1667 76.1927 89.4531 76.8281 89.4531C77.3333 89.4531 77.763 89.2396 78.1172 88.8125C78.4714 88.3802 78.6484 87.737 78.6484 86.8828C78.6484 85.9297 78.4766 85.2448 78.1328 84.8281C77.7891 84.4062 77.349 84.1953 76.8125 84.1953C76.2917 84.1953 75.8542 84.4036 75.5 84.8203C75.151 85.2318 74.9766 85.849 74.9766 86.6719Z" fill="#3E3E3D"/>
<g opacity="0.5">
<path d="M0 109.5H579.5" stroke="#CDCCCB"/>
</g>
<rect width="579.5" height="61" transform="translate(579.5)" fill="white"/>
<path d="M598.18 37.14C597.847 37.14 597.587 37.0467 597.4 36.86C597.227 36.6733 597.14 36.4133 597.14 36.08V23.96C597.14 23.6133 597.233 23.3533 597.42 23.18C597.607 22.9933 597.867 22.9 598.2 22.9H602.98C604.5 22.9 605.673 23.28 606.5 24.04C607.327 24.7867 607.74 25.84 607.74 27.2C607.74 28.5733 607.327 29.64 606.5 30.4C605.673 31.1467 604.5 31.52 602.98 31.52H599.22V36.08C599.22 36.4133 599.133 36.6733 598.96 36.86C598.787 37.0467 598.527 37.14 598.18 37.14ZM599.22 29.86H602.68C603.68 29.86 604.433 29.64 604.94 29.2C605.46 28.7467 605.72 28.08 605.72 27.2C605.72 26.3333 605.46 25.68 604.94 25.24C604.433 24.7867 603.68 24.56 602.68 24.56H599.22V29.86ZM612.595 37.18C611.809 37.18 611.149 37.0333 610.615 36.74C610.095 36.4467 609.702 36.0133 609.435 35.44C609.182 34.8533 609.055 34.12 609.055 33.24V28.12C609.055 27.7733 609.142 27.52 609.315 27.36C609.489 27.1867 609.735 27.1 610.055 27.1C610.375 27.1 610.622 27.1867 610.795 27.36C610.982 27.52 611.075 27.7733 611.075 28.12V33.26C611.075 34.0467 611.235 34.6267 611.555 35C611.875 35.3733 612.382 35.56 613.075 35.56C613.835 35.56 614.449 35.3067 614.915 34.8C615.395 34.28 615.635 33.6 615.635 32.76V28.12C615.635 27.7733 615.722 27.52 615.895 27.36C616.069 27.1867 616.322 27.1 616.655 27.1C616.975 27.1 617.222 27.1867 617.395 27.36C617.569 27.52 617.655 27.7733 617.655 28.12V36.12C617.655 36.8 617.329 37.14 616.675 37.14C616.369 37.14 616.129 37.0533 615.955 36.88C615.782 36.6933 615.695 36.44 615.695 36.12V34.42L615.955 34.86C615.689 35.6067 615.262 36.18 614.675 36.58C614.089 36.98 613.395 37.18 612.595 37.18ZM621.022 37.14C620.689 37.14 620.435 37.0533 620.262 36.88C620.089 36.6933 620.002 36.44 620.002 36.12V28.12C620.002 27.7867 620.089 27.5333 620.262 27.36C620.435 27.1867 620.675 27.1 620.982 27.1C621.302 27.1 621.542 27.1867 621.702 27.36C621.875 27.5333 621.962 27.7867 621.962 28.12V29.58H621.762C621.975 28.78 622.369 28.1733 622.942 27.76C623.515 27.3467 624.249 27.1067 625.142 27.04C625.382 27.0267 625.569 27.0867 625.702 27.22C625.849 27.3533 625.929 27.56 625.942 27.84C625.969 28.12 625.909 28.3467 625.762 28.52C625.615 28.68 625.389 28.7733 625.082 28.8L624.702 28.84C623.835 28.92 623.175 29.1933 622.722 29.66C622.269 30.1267 622.042 30.7667 622.042 31.58V36.12C622.042 36.44 621.955 36.6933 621.782 36.88C621.622 37.0533 621.369 37.14 621.022 37.14ZM627.963 40.74C627.643 40.74 627.396 40.6533 627.223 40.48C627.05 40.3067 626.963 40.0533 626.963 39.72V28.12C626.963 27.7867 627.05 27.5333 627.223 27.36C627.396 27.1867 627.636 27.1 627.943 27.1C628.263 27.1 628.51 27.1867 628.683 27.36C628.856 27.5333 628.943 27.7867 628.943 28.12V29.86L628.723 29.44C628.936 28.72 629.356 28.1467 629.983 27.72C630.61 27.28 631.35 27.06 632.203 27.06C633.07 27.06 633.823 27.2667 634.463 27.68C635.116 28.0933 635.616 28.6733 635.963 29.42C636.323 30.1667 636.503 31.0667 636.503 32.12C636.503 33.1467 636.323 34.0467 635.963 34.82C635.616 35.58 635.123 36.1667 634.483 36.58C633.843 36.98 633.083 37.18 632.203 37.18C631.363 37.18 630.63 36.9667 630.003 36.54C629.376 36.1133 628.956 35.5467 628.743 34.84H628.983V39.72C628.983 40.0533 628.89 40.3067 628.703 40.48C628.53 40.6533 628.283 40.74 627.963 40.74ZM631.703 35.62C632.263 35.62 632.75 35.4867 633.163 35.22C633.576 34.9533 633.896 34.56 634.123 34.04C634.35 33.52 634.463 32.88 634.463 32.12C634.463 30.9733 634.21 30.1067 633.703 29.52C633.21 28.9333 632.543 28.64 631.703 28.64C631.156 28.64 630.67 28.7733 630.243 29.04C629.83 29.2933 629.51 29.68 629.283 30.2C629.056 30.72 628.943 31.36 628.943 32.12C628.943 33.2533 629.196 34.12 629.703 34.72C630.21 35.32 630.876 35.62 631.703 35.62ZM642.519 37.18C641.533 37.18 640.679 36.9733 639.959 36.56C639.253 36.1467 638.699 35.56 638.299 34.8C637.899 34.04 637.699 33.1467 637.699 32.12C637.699 31.3333 637.813 30.6333 638.039 30.02C638.266 29.4067 638.586 28.88 638.999 28.44C639.426 27.9867 639.933 27.6467 640.519 27.42C641.119 27.18 641.786 27.06 642.519 27.06C643.493 27.06 644.333 27.2667 645.039 27.68C645.759 28.0933 646.319 28.68 646.719 29.44C647.119 30.1867 647.319 31.08 647.319 32.12C647.319 32.8933 647.206 33.5933 646.979 34.22C646.753 34.8467 646.426 35.38 645.999 35.82C645.586 36.26 645.079 36.6 644.479 36.84C643.893 37.0667 643.239 37.18 642.519 37.18ZM642.519 35.62C643.066 35.62 643.546 35.4867 643.959 35.22C644.373 34.9533 644.693 34.56 644.919 34.04C645.159 33.52 645.279 32.88 645.279 32.12C645.279 30.9733 645.026 30.1067 644.519 29.52C644.013 28.9333 643.346 28.64 642.519 28.64C641.959 28.64 641.473 28.7733 641.059 29.04C640.646 29.2933 640.319 29.68 640.079 30.2C639.853 30.72 639.739 31.36 639.739 32.12C639.739 33.2533 639.993 34.12 640.499 34.72C641.006 35.32 641.679 35.62 642.519 35.62ZM652.508 37.18C651.921 37.18 651.315 37.1133 650.688 36.98C650.075 36.8467 649.508 36.62 648.988 36.3C648.815 36.18 648.695 36.0467 648.628 35.9C648.561 35.7533 648.535 35.6067 648.548 35.46C648.575 35.3 648.635 35.1667 648.728 35.06C648.835 34.94 648.961 34.8667 649.108 34.84C649.268 34.8133 649.435 34.8467 649.608 34.94C650.128 35.2333 650.628 35.44 651.108 35.56C651.588 35.6667 652.061 35.72 652.528 35.72C653.235 35.72 653.768 35.5933 654.128 35.34C654.488 35.0867 654.668 34.7467 654.668 34.32C654.668 33.9733 654.548 33.7067 654.308 33.52C654.068 33.32 653.708 33.1667 653.228 33.06L651.328 32.68C650.501 32.5067 649.875 32.2 649.448 31.76C649.021 31.32 648.808 30.76 648.808 30.08C648.808 29.4667 648.975 28.9333 649.308 28.48C649.641 28.0267 650.108 27.68 650.708 27.44C651.308 27.1867 652.001 27.06 652.788 27.06C653.375 27.06 653.928 27.1333 654.448 27.28C654.968 27.4267 655.448 27.6467 655.888 27.94C656.061 28.0333 656.175 28.16 656.228 28.32C656.281 28.4667 656.288 28.6133 656.248 28.76C656.221 28.9067 656.155 29.04 656.048 29.16C655.941 29.2667 655.808 29.3333 655.648 29.36C655.501 29.3733 655.335 29.3333 655.148 29.24C654.748 28.9867 654.348 28.8067 653.948 28.7C653.561 28.5933 653.175 28.54 652.788 28.54C652.081 28.54 651.548 28.6733 651.188 28.94C650.841 29.1933 650.668 29.54 650.668 29.98C650.668 30.3133 650.775 30.5867 650.988 30.8C651.201 31.0133 651.535 31.1667 651.988 31.26L653.888 31.64C654.755 31.8133 655.408 32.1067 655.848 32.52C656.301 32.9333 656.528 33.4933 656.528 34.2C656.528 35.12 656.161 35.8467 655.428 36.38C654.695 36.9133 653.721 37.18 652.508 37.18ZM662.855 37.18C661.789 37.18 660.869 36.98 660.095 36.58C659.335 36.1667 658.742 35.5867 658.315 34.84C657.902 34.08 657.695 33.18 657.695 32.14C657.695 31.1267 657.902 30.24 658.315 29.48C658.729 28.72 659.295 28.1267 660.015 27.7C660.735 27.2733 661.555 27.06 662.475 27.06C663.155 27.06 663.762 27.1733 664.295 27.4C664.829 27.6133 665.282 27.9333 665.655 28.36C666.042 28.7733 666.329 29.28 666.515 29.88C666.715 30.48 666.815 31.1533 666.815 31.9C666.815 32.1267 666.749 32.3 666.615 32.42C666.482 32.5267 666.282 32.58 666.015 32.58H659.295V31.34H665.455L665.115 31.62C665.115 30.9533 665.015 30.3867 664.815 29.92C664.629 29.4533 664.342 29.1 663.955 28.86C663.582 28.6067 663.115 28.48 662.555 28.48C661.929 28.48 661.395 28.6267 660.955 28.92C660.529 29.2133 660.202 29.62 659.975 30.14C659.749 30.66 659.635 31.2667 659.635 31.96V32.08C659.635 33.2533 659.909 34.14 660.455 34.74C661.015 35.3267 661.822 35.62 662.875 35.62C663.275 35.62 663.695 35.5667 664.135 35.46C664.589 35.3533 665.015 35.1733 665.415 34.92C665.642 34.7867 665.842 34.7267 666.015 34.74C666.202 34.7533 666.349 34.8133 666.455 34.92C666.575 35.0267 666.649 35.16 666.675 35.32C666.702 35.48 666.675 35.6467 666.595 35.82C666.515 35.98 666.375 36.1267 666.175 36.26C665.722 36.5667 665.195 36.8 664.595 36.96C663.995 37.1067 663.415 37.18 662.855 37.18Z" fill="#201F1F"/>
<path d="M579.5 60.5H1159" stroke="#CDCCCB"/>
<rect width="579.5" height="49" transform="translate(579.5 61)" fill="white"/>
<path d="M596.734 91V79.5469H601.055C601.815 79.5469 602.396 79.5833 602.797 79.6562C603.359 79.75 603.831 79.9297 604.211 80.1953C604.591 80.4557 604.896 80.8229 605.125 81.2969C605.359 81.7708 605.477 82.2917 605.477 82.8594C605.477 83.8333 605.167 84.6589 604.547 85.3359C603.927 86.0078 602.807 86.3438 601.188 86.3438H598.25V91H596.734ZM598.25 84.9922H601.211C602.19 84.9922 602.885 84.8099 603.297 84.4453C603.708 84.0807 603.914 83.5677 603.914 82.9062C603.914 82.4271 603.792 82.0182 603.547 81.6797C603.307 81.3359 602.99 81.1094 602.594 81C602.339 80.9323 601.867 80.8984 601.18 80.8984H598.25V84.9922ZM612.906 88.3281L614.359 88.5078C614.13 89.3568 613.706 90.0156 613.086 90.4844C612.466 90.9531 611.674 91.1875 610.711 91.1875C609.497 91.1875 608.534 90.8151 607.82 90.0703C607.112 89.3203 606.758 88.2708 606.758 86.9219C606.758 85.526 607.117 84.4427 607.836 83.6719C608.555 82.901 609.487 82.5156 610.633 82.5156C611.742 82.5156 612.648 82.8932 613.352 83.6484C614.055 84.4036 614.406 85.4661 614.406 86.8359C614.406 86.9193 614.404 87.0443 614.398 87.2109H608.211C608.263 88.1224 608.521 88.8203 608.984 89.3047C609.448 89.7891 610.026 90.0312 610.719 90.0312C611.234 90.0312 611.674 89.8958 612.039 89.625C612.404 89.3542 612.693 88.9219 612.906 88.3281ZM608.289 86.0547H612.922C612.859 85.3568 612.682 84.8333 612.391 84.4844C611.943 83.9427 611.362 83.6719 610.648 83.6719C610.003 83.6719 609.458 83.888 609.016 84.3203C608.578 84.7526 608.336 85.3307 608.289 86.0547ZM616.117 91V82.7031H617.383V83.9609C617.706 83.3724 618.003 82.9844 618.273 82.7969C618.549 82.6094 618.852 82.5156 619.18 82.5156C619.654 82.5156 620.135 82.6667 620.625 82.9688L620.141 84.2734C619.797 84.0703 619.453 83.9688 619.109 83.9688C618.802 83.9688 618.526 84.0625 618.281 84.25C618.036 84.4323 617.862 84.6875 617.758 85.0156C617.602 85.5156 617.523 86.0625 617.523 86.6562V91H616.117ZM621.461 91V82.7031H622.719V83.8672C622.979 83.4609 623.326 83.1354 623.758 82.8906C624.19 82.6406 624.682 82.5156 625.234 82.5156C625.849 82.5156 626.352 82.6432 626.742 82.8984C627.138 83.1536 627.417 83.5104 627.578 83.9688C628.234 83 629.089 82.5156 630.141 82.5156C630.964 82.5156 631.596 82.7448 632.039 83.2031C632.482 83.6562 632.703 84.3568 632.703 85.3047V91H631.305V85.7734C631.305 85.2109 631.258 84.8073 631.164 84.5625C631.076 84.3125 630.911 84.112 630.672 83.9609C630.432 83.8099 630.151 83.7344 629.828 83.7344C629.245 83.7344 628.76 83.9297 628.375 84.3203C627.99 84.7057 627.797 85.3255 627.797 86.1797V91H626.391V85.6094C626.391 84.9844 626.276 84.5156 626.047 84.2031C625.818 83.8906 625.443 83.7344 624.922 83.7344C624.526 83.7344 624.159 83.8385 623.82 84.0469C623.487 84.2552 623.245 84.5599 623.094 84.9609C622.943 85.362 622.867 85.9401 622.867 86.6953V91H621.461ZM640.469 88.3281L641.922 88.5078C641.693 89.3568 641.268 90.0156 640.648 90.4844C640.029 90.9531 639.237 91.1875 638.273 91.1875C637.06 91.1875 636.096 90.8151 635.383 90.0703C634.674 89.3203 634.32 88.2708 634.32 86.9219C634.32 85.526 634.68 84.4427 635.398 83.6719C636.117 82.901 637.049 82.5156 638.195 82.5156C639.305 82.5156 640.211 82.8932 640.914 83.6484C641.617 84.4036 641.969 85.4661 641.969 86.8359C641.969 86.9193 641.966 87.0443 641.961 87.2109H635.773C635.826 88.1224 636.083 88.8203 636.547 89.3047C637.01 89.7891 637.589 90.0312 638.281 90.0312C638.797 90.0312 639.237 89.8958 639.602 89.625C639.966 89.3542 640.255 88.9219 640.469 88.3281ZM635.852 86.0547H640.484C640.422 85.3568 640.245 84.8333 639.953 84.4844C639.505 83.9427 638.924 83.6719 638.211 83.6719C637.565 83.6719 637.021 83.888 636.578 84.3203C636.141 84.7526 635.898 85.3307 635.852 86.0547ZM646.766 89.7422L646.969 90.9844C646.573 91.0677 646.219 91.1094 645.906 91.1094C645.396 91.1094 645 91.0286 644.719 90.8672C644.438 90.7057 644.24 90.4948 644.125 90.2344C644.01 89.9688 643.953 89.4141 643.953 88.5703V83.7969H642.922V82.7031H643.953V80.6484L645.352 79.8047V82.7031H646.766V83.7969H645.352V88.6484C645.352 89.0495 645.375 89.3073 645.422 89.4219C645.474 89.5365 645.555 89.6276 645.664 89.6953C645.779 89.763 645.94 89.7969 646.148 89.7969C646.305 89.7969 646.51 89.7786 646.766 89.7422ZM657.984 91V89.9531C657.458 90.776 656.685 91.1875 655.664 91.1875C655.003 91.1875 654.393 91.0052 653.836 90.6406C653.284 90.276 652.854 89.7682 652.547 89.1172C652.245 88.4609 652.094 87.7083 652.094 86.8594C652.094 86.0312 652.232 85.2812 652.508 84.6094C652.784 83.9323 653.198 83.4141 653.75 83.0547C654.302 82.6953 654.919 82.5156 655.602 82.5156C656.102 82.5156 656.547 82.6224 656.938 82.8359C657.328 83.0443 657.646 83.3177 657.891 83.6562V79.5469H659.289V91H657.984ZM653.539 86.8594C653.539 87.9219 653.763 88.7161 654.211 89.2422C654.659 89.7682 655.188 90.0312 655.797 90.0312C656.411 90.0312 656.932 89.7812 657.359 89.2812C657.792 88.776 658.008 88.0078 658.008 86.9766C658.008 85.8411 657.789 85.0078 657.352 84.4766C656.914 83.9453 656.375 83.6797 655.734 83.6797C655.109 83.6797 654.586 83.9349 654.164 84.4453C653.747 84.9557 653.539 85.7604 653.539 86.8594ZM667.188 88.3281L668.641 88.5078C668.411 89.3568 667.987 90.0156 667.367 90.4844C666.747 90.9531 665.956 91.1875 664.992 91.1875C663.779 91.1875 662.815 90.8151 662.102 90.0703C661.393 89.3203 661.039 88.2708 661.039 86.9219C661.039 85.526 661.398 84.4427 662.117 83.6719C662.836 82.901 663.768 82.5156 664.914 82.5156C666.023 82.5156 666.93 82.8932 667.633 83.6484C668.336 84.4036 668.688 85.4661 668.688 86.8359C668.688 86.9193 668.685 87.0443 668.68 87.2109H662.492C662.544 88.1224 662.802 88.8203 663.266 89.3047C663.729 89.7891 664.307 90.0312 665 90.0312C665.516 90.0312 665.956 89.8958 666.32 89.625C666.685 89.3542 666.974 88.9219 667.188 88.3281ZM662.57 86.0547H667.203C667.141 85.3568 666.964 84.8333 666.672 84.4844C666.224 83.9427 665.643 83.6719 664.93 83.6719C664.284 83.6719 663.74 83.888 663.297 84.3203C662.859 84.7526 662.617 85.3307 662.57 86.0547ZM674.867 94.1797V82.7031H676.148V83.7812C676.451 83.3594 676.792 83.0443 677.172 82.8359C677.552 82.6224 678.013 82.5156 678.555 82.5156C679.263 82.5156 679.888 82.6979 680.43 83.0625C680.971 83.4271 681.38 83.9427 681.656 84.6094C681.932 85.2708 682.07 85.9974 682.07 86.7891C682.07 87.638 681.917 88.4036 681.609 89.0859C681.307 89.763 680.865 90.2839 680.281 90.6484C679.703 91.0078 679.094 91.1875 678.453 91.1875C677.984 91.1875 677.562 91.0885 677.188 90.8906C676.818 90.6927 676.513 90.4427 676.273 90.1406V94.1797H674.867ZM676.141 86.8984C676.141 87.9661 676.357 88.7552 676.789 89.2656C677.221 89.776 677.745 90.0312 678.359 90.0312C678.984 90.0312 679.518 89.7682 679.961 89.2422C680.409 88.7109 680.633 87.8906 680.633 86.7812C680.633 85.724 680.414 84.9323 679.977 84.4062C679.544 83.8802 679.026 83.6172 678.422 83.6172C677.823 83.6172 677.292 83.8984 676.828 84.4609C676.37 85.0182 676.141 85.8307 676.141 86.8984ZM689.188 89.9766C688.667 90.4193 688.164 90.7318 687.68 90.9141C687.201 91.0964 686.685 91.1875 686.133 91.1875C685.221 91.1875 684.521 90.9661 684.031 90.5234C683.542 90.0755 683.297 89.5052 683.297 88.8125C683.297 88.4062 683.388 88.0365 683.57 87.7031C683.758 87.3646 684 87.0938 684.297 86.8906C684.599 86.6875 684.938 86.5339 685.312 86.4297C685.589 86.3568 686.005 86.2865 686.562 86.2188C687.698 86.0833 688.534 85.9219 689.07 85.7344C689.076 85.5417 689.078 85.4193 689.078 85.3672C689.078 84.7943 688.945 84.3906 688.68 84.1562C688.32 83.8385 687.786 83.6797 687.078 83.6797C686.417 83.6797 685.927 83.7969 685.609 84.0312C685.297 84.2604 685.065 84.6693 684.914 85.2578L683.539 85.0703C683.664 84.4818 683.87 84.0078 684.156 83.6484C684.443 83.2839 684.857 83.0052 685.398 82.8125C685.94 82.6146 686.568 82.5156 687.281 82.5156C687.99 82.5156 688.565 82.599 689.008 82.7656C689.451 82.9323 689.776 83.1432 689.984 83.3984C690.193 83.6484 690.339 83.9661 690.422 84.3516C690.469 84.5911 690.492 85.0234 690.492 85.6484V87.5234C690.492 88.8307 690.521 89.6589 690.578 90.0078C690.641 90.3516 690.76 90.6823 690.938 91H689.469C689.323 90.7083 689.229 90.3672 689.188 89.9766ZM689.07 86.8359C688.56 87.0443 687.794 87.2214 686.773 87.3672C686.195 87.4505 685.786 87.5443 685.547 87.6484C685.307 87.7526 685.122 87.9062 684.992 88.1094C684.862 88.3073 684.797 88.5286 684.797 88.7734C684.797 89.1484 684.938 89.4609 685.219 89.7109C685.505 89.9609 685.922 90.0859 686.469 90.0859C687.01 90.0859 687.492 89.9688 687.914 89.7344C688.336 89.4948 688.646 89.1693 688.844 88.7578C688.995 88.4401 689.07 87.9714 689.07 87.3516V86.8359ZM692.117 88.5234L693.508 88.3047C693.586 88.862 693.802 89.2891 694.156 89.5859C694.516 89.8828 695.016 90.0312 695.656 90.0312C696.302 90.0312 696.781 89.901 697.094 89.6406C697.406 89.375 697.562 89.0651 697.562 88.7109C697.562 88.3932 697.424 88.1432 697.148 87.9609C696.956 87.8359 696.477 87.6771 695.711 87.4844C694.68 87.224 693.964 87 693.562 86.8125C693.167 86.6198 692.865 86.3568 692.656 86.0234C692.453 85.6849 692.352 85.3125 692.352 84.9062C692.352 84.5365 692.435 84.1953 692.602 83.8828C692.773 83.5651 693.005 83.3021 693.297 83.0938C693.516 82.9323 693.812 82.7969 694.188 82.6875C694.568 82.5729 694.974 82.5156 695.406 82.5156C696.057 82.5156 696.628 82.6094 697.117 82.7969C697.612 82.9844 697.977 83.2396 698.211 83.5625C698.445 83.8802 698.607 84.3073 698.695 84.8438L697.32 85.0312C697.258 84.6042 697.076 84.2708 696.773 84.0312C696.477 83.7917 696.055 83.6719 695.508 83.6719C694.862 83.6719 694.401 83.7786 694.125 83.9922C693.849 84.2057 693.711 84.4557 693.711 84.7422C693.711 84.9245 693.768 85.0885 693.883 85.2344C693.997 85.3854 694.177 85.5104 694.422 85.6094C694.562 85.6615 694.977 85.7812 695.664 85.9688C696.659 86.2344 697.352 86.4531 697.742 86.625C698.138 86.7917 698.448 87.0365 698.672 87.3594C698.896 87.6823 699.008 88.0833 699.008 88.5625C699.008 89.0312 698.87 89.474 698.594 89.8906C698.323 90.3021 697.93 90.6224 697.414 90.8516C696.898 91.0755 696.315 91.1875 695.664 91.1875C694.586 91.1875 693.763 90.9635 693.195 90.5156C692.633 90.0677 692.273 89.4036 692.117 88.5234ZM700.117 88.5234L701.508 88.3047C701.586 88.862 701.802 89.2891 702.156 89.5859C702.516 89.8828 703.016 90.0312 703.656 90.0312C704.302 90.0312 704.781 89.901 705.094 89.6406C705.406 89.375 705.562 89.0651 705.562 88.7109C705.562 88.3932 705.424 88.1432 705.148 87.9609C704.956 87.8359 704.477 87.6771 703.711 87.4844C702.68 87.224 701.964 87 701.562 86.8125C701.167 86.6198 700.865 86.3568 700.656 86.0234C700.453 85.6849 700.352 85.3125 700.352 84.9062C700.352 84.5365 700.435 84.1953 700.602 83.8828C700.773 83.5651 701.005 83.3021 701.297 83.0938C701.516 82.9323 701.812 82.7969 702.188 82.6875C702.568 82.5729 702.974 82.5156 703.406 82.5156C704.057 82.5156 704.628 82.6094 705.117 82.7969C705.612 82.9844 705.977 83.2396 706.211 83.5625C706.445 83.8802 706.607 84.3073 706.695 84.8438L705.32 85.0312C705.258 84.6042 705.076 84.2708 704.773 84.0312C704.477 83.7917 704.055 83.6719 703.508 83.6719C702.862 83.6719 702.401 83.7786 702.125 83.9922C701.849 84.2057 701.711 84.4557 701.711 84.7422C701.711 84.9245 701.768 85.0885 701.883 85.2344C701.997 85.3854 702.177 85.5104 702.422 85.6094C702.562 85.6615 702.977 85.7812 703.664 85.9688C704.659 86.2344 705.352 86.4531 705.742 86.625C706.138 86.7917 706.448 87.0365 706.672 87.3594C706.896 87.6823 707.008 88.0833 707.008 88.5625C707.008 89.0312 706.87 89.474 706.594 89.8906C706.323 90.3021 705.93 90.6224 705.414 90.8516C704.898 91.0755 704.315 91.1875 703.664 91.1875C702.586 91.1875 701.763 90.9635 701.195 90.5156C700.633 90.0677 700.273 89.4036 700.117 88.5234ZM714.359 88.3281L715.812 88.5078C715.583 89.3568 715.159 90.0156 714.539 90.4844C713.919 90.9531 713.128 91.1875 712.164 91.1875C710.951 91.1875 709.987 90.8151 709.273 90.0703C708.565 89.3203 708.211 88.2708 708.211 86.9219C708.211 85.526 708.57 84.4427 709.289 83.6719C710.008 82.901 710.94 82.5156 712.086 82.5156C713.195 82.5156 714.102 82.8932 714.805 83.6484C715.508 84.4036 715.859 85.4661 715.859 86.8359C715.859 86.9193 715.857 87.0443 715.852 87.2109H709.664C709.716 88.1224 709.974 88.8203 710.438 89.3047C710.901 89.7891 711.479 90.0312 712.172 90.0312C712.688 90.0312 713.128 89.8958 713.492 89.625C713.857 89.3542 714.146 88.9219 714.359 88.3281ZM709.742 86.0547H714.375C714.312 85.3568 714.135 84.8333 713.844 84.4844C713.396 83.9427 712.815 83.6719 712.102 83.6719C711.456 83.6719 710.911 83.888 710.469 84.3203C710.031 84.7526 709.789 85.3307 709.742 86.0547ZM717.57 91V82.7031H718.836V83.9609C719.159 83.3724 719.456 82.9844 719.727 82.7969C720.003 82.6094 720.305 82.5156 720.633 82.5156C721.107 82.5156 721.589 82.6667 722.078 82.9688L721.594 84.2734C721.25 84.0703 720.906 83.9688 720.562 83.9688C720.255 83.9688 719.979 84.0625 719.734 84.25C719.49 84.4323 719.315 84.6875 719.211 85.0156C719.055 85.5156 718.977 86.0625 718.977 86.6562V91H717.57ZM732.805 91V89.7812C732.159 90.7188 731.281 91.1875 730.172 91.1875C729.682 91.1875 729.224 91.0938 728.797 90.9062C728.375 90.7188 728.06 90.4844 727.852 90.2031C727.648 89.9167 727.505 89.5677 727.422 89.1562C727.365 88.8802 727.336 88.4427 727.336 87.8438V82.7031H728.742V87.3047C728.742 88.0391 728.771 88.5339 728.828 88.7891C728.917 89.1589 729.104 89.4505 729.391 89.6641C729.677 89.8724 730.031 89.9766 730.453 89.9766C730.875 89.9766 731.271 89.8698 731.641 89.6562C732.01 89.4375 732.271 89.1432 732.422 88.7734C732.578 88.3984 732.656 87.8568 732.656 87.1484V82.7031H734.062V91H732.805ZM736.273 91V82.7031H737.539V83.8828C738.148 82.9714 739.029 82.5156 740.18 82.5156C740.68 82.5156 741.138 82.6068 741.555 82.7891C741.977 82.9661 742.292 83.2005 742.5 83.4922C742.708 83.7839 742.854 84.1302 742.938 84.5312C742.99 84.7917 743.016 85.2474 743.016 85.8984V91H741.609V85.9531C741.609 85.3802 741.555 84.9531 741.445 84.6719C741.336 84.3854 741.141 84.1589 740.859 83.9922C740.583 83.8203 740.258 83.7344 739.883 83.7344C739.284 83.7344 738.766 83.9245 738.328 84.3047C737.896 84.6849 737.68 85.4062 737.68 86.4688V91H736.273ZM749.07 88.5234L750.461 88.3047C750.539 88.862 750.755 89.2891 751.109 89.5859C751.469 89.8828 751.969 90.0312 752.609 90.0312C753.255 90.0312 753.734 89.901 754.047 89.6406C754.359 89.375 754.516 89.0651 754.516 88.7109C754.516 88.3932 754.378 88.1432 754.102 87.9609C753.909 87.8359 753.43 87.6771 752.664 87.4844C751.633 87.224 750.917 87 750.516 86.8125C750.12 86.6198 749.818 86.3568 749.609 86.0234C749.406 85.6849 749.305 85.3125 749.305 84.9062C749.305 84.5365 749.388 84.1953 749.555 83.8828C749.727 83.5651 749.958 83.3021 750.25 83.0938C750.469 82.9323 750.766 82.7969 751.141 82.6875C751.521 82.5729 751.927 82.5156 752.359 82.5156C753.01 82.5156 753.581 82.6094 754.07 82.7969C754.565 82.9844 754.93 83.2396 755.164 83.5625C755.398 83.8802 755.56 84.3073 755.648 84.8438L754.273 85.0312C754.211 84.6042 754.029 84.2708 753.727 84.0312C753.43 83.7917 753.008 83.6719 752.461 83.6719C751.815 83.6719 751.354 83.7786 751.078 83.9922C750.802 84.2057 750.664 84.4557 750.664 84.7422C750.664 84.9245 750.721 85.0885 750.836 85.2344C750.951 85.3854 751.13 85.5104 751.375 85.6094C751.516 85.6615 751.93 85.7812 752.617 85.9688C753.612 86.2344 754.305 86.4531 754.695 86.625C755.091 86.7917 755.401 87.0365 755.625 87.3594C755.849 87.6823 755.961 88.0833 755.961 88.5625C755.961 89.0312 755.823 89.474 755.547 89.8906C755.276 90.3021 754.883 90.6224 754.367 90.8516C753.852 91.0755 753.268 91.1875 752.617 91.1875C751.539 91.1875 750.716 90.9635 750.148 90.5156C749.586 90.0677 749.227 89.4036 749.07 88.5234ZM763.312 88.3281L764.766 88.5078C764.536 89.3568 764.112 90.0156 763.492 90.4844C762.872 90.9531 762.081 91.1875 761.117 91.1875C759.904 91.1875 758.94 90.8151 758.227 90.0703C757.518 89.3203 757.164 88.2708 757.164 86.9219C757.164 85.526 757.523 84.4427 758.242 83.6719C758.961 82.901 759.893 82.5156 761.039 82.5156C762.148 82.5156 763.055 82.8932 763.758 83.6484C764.461 84.4036 764.812 85.4661 764.812 86.8359C764.812 86.9193 764.81 87.0443 764.805 87.2109H758.617C758.669 88.1224 758.927 88.8203 759.391 89.3047C759.854 89.7891 760.432 90.0312 761.125 90.0312C761.641 90.0312 762.081 89.8958 762.445 89.625C762.81 89.3542 763.099 88.9219 763.312 88.3281ZM758.695 86.0547H763.328C763.266 85.3568 763.089 84.8333 762.797 84.4844C762.349 83.9427 761.768 83.6719 761.055 83.6719C760.409 83.6719 759.865 83.888 759.422 84.3203C758.984 84.7526 758.742 85.3307 758.695 86.0547ZM766.281 91.6875L767.648 91.8906C767.706 92.3125 767.865 92.6198 768.125 92.8125C768.474 93.0729 768.951 93.2031 769.555 93.2031C770.206 93.2031 770.708 93.0729 771.062 92.8125C771.417 92.5521 771.656 92.1875 771.781 91.7188C771.854 91.4323 771.888 90.8307 771.883 89.9141C771.268 90.638 770.503 91 769.586 91C768.445 91 767.562 90.5885 766.938 89.7656C766.312 88.9427 766 87.9557 766 86.8047C766 86.013 766.143 85.2839 766.43 84.6172C766.716 83.9453 767.13 83.4271 767.672 83.0625C768.219 82.6979 768.859 82.5156 769.594 82.5156C770.573 82.5156 771.38 82.9115 772.016 83.7031V82.7031H773.312V89.875C773.312 91.1667 773.18 92.0807 772.914 92.6172C772.654 93.1589 772.237 93.5859 771.664 93.8984C771.096 94.2109 770.396 94.3672 769.562 94.3672C768.573 94.3672 767.773 94.1432 767.164 93.6953C766.555 93.2526 766.26 92.5833 766.281 91.6875ZM767.445 86.7031C767.445 87.7917 767.661 88.5859 768.094 89.0859C768.526 89.5859 769.068 89.8359 769.719 89.8359C770.365 89.8359 770.906 89.5885 771.344 89.0938C771.781 88.5938 772 87.8125 772 86.75C772 85.7344 771.773 84.9688 771.32 84.4531C770.872 83.9375 770.331 83.6797 769.695 83.6797C769.07 83.6797 768.539 83.9349 768.102 84.4453C767.664 84.9505 767.445 85.7031 767.445 86.7031ZM775.445 91V82.7031H776.703V83.8672C776.964 83.4609 777.31 83.1354 777.742 82.8906C778.174 82.6406 778.667 82.5156 779.219 82.5156C779.833 82.5156 780.336 82.6432 780.727 82.8984C781.122 83.1536 781.401 83.5104 781.562 83.9688C782.219 83 783.073 82.5156 784.125 82.5156C784.948 82.5156 785.581 82.7448 786.023 83.2031C786.466 83.6562 786.688 84.3568 786.688 85.3047V91H785.289V85.7734C785.289 85.2109 785.242 84.8073 785.148 84.5625C785.06 84.3125 784.896 84.112 784.656 83.9609C784.417 83.8099 784.135 83.7344 783.812 83.7344C783.229 83.7344 782.745 83.9297 782.359 84.3203C781.974 84.7057 781.781 85.3255 781.781 86.1797V91H780.375V85.6094C780.375 84.9844 780.26 84.5156 780.031 84.2031C779.802 83.8906 779.427 83.7344 778.906 83.7344C778.51 83.7344 778.143 83.8385 777.805 84.0469C777.471 84.2552 777.229 84.5599 777.078 84.9609C776.927 85.362 776.852 85.9401 776.852 86.6953V91H775.445ZM794.453 88.3281L795.906 88.5078C795.677 89.3568 795.253 90.0156 794.633 90.4844C794.013 90.9531 793.221 91.1875 792.258 91.1875C791.044 91.1875 790.081 90.8151 789.367 90.0703C788.659 89.3203 788.305 88.2708 788.305 86.9219C788.305 85.526 788.664 84.4427 789.383 83.6719C790.102 82.901 791.034 82.5156 792.18 82.5156C793.289 82.5156 794.195 82.8932 794.898 83.6484C795.602 84.4036 795.953 85.4661 795.953 86.8359C795.953 86.9193 795.951 87.0443 795.945 87.2109H789.758C789.81 88.1224 790.068 88.8203 790.531 89.3047C790.995 89.7891 791.573 90.0312 792.266 90.0312C792.781 90.0312 793.221 89.8958 793.586 89.625C793.951 89.3542 794.24 88.9219 794.453 88.3281ZM789.836 86.0547H794.469C794.406 85.3568 794.229 84.8333 793.938 84.4844C793.49 83.9427 792.909 83.6719 792.195 83.6719C791.549 83.6719 791.005 83.888 790.562 84.3203C790.125 84.7526 789.883 85.3307 789.836 86.0547ZM797.68 91V82.7031H798.945V83.8828C799.555 82.9714 800.435 82.5156 801.586 82.5156C802.086 82.5156 802.544 82.6068 802.961 82.7891C803.383 82.9661 803.698 83.2005 803.906 83.4922C804.115 83.7839 804.26 84.1302 804.344 84.5312C804.396 84.7917 804.422 85.2474 804.422 85.8984V91H803.016V85.9531C803.016 85.3802 802.961 84.9531 802.852 84.6719C802.742 84.3854 802.547 84.1589 802.266 83.9922C801.99 83.8203 801.664 83.7344 801.289 83.7344C800.69 83.7344 800.172 83.9245 799.734 84.3047C799.302 84.6849 799.086 85.4062 799.086 86.4688V91H797.68ZM809.656 89.7422L809.859 90.9844C809.464 91.0677 809.109 91.1094 808.797 91.1094C808.286 91.1094 807.891 91.0286 807.609 90.8672C807.328 90.7057 807.13 90.4948 807.016 90.2344C806.901 89.9688 806.844 89.4141 806.844 88.5703V83.7969H805.812V82.7031H806.844V80.6484L808.242 79.8047V82.7031H809.656V83.7969H808.242V88.6484C808.242 89.0495 808.266 89.3073 808.312 89.4219C808.365 89.5365 808.445 89.6276 808.555 89.6953C808.669 89.763 808.831 89.7969 809.039 89.7969C809.195 89.7969 809.401 89.7786 809.656 89.7422ZM821.172 88.3281L822.625 88.5078C822.396 89.3568 821.971 90.0156 821.352 90.4844C820.732 90.9531 819.94 91.1875 818.977 91.1875C817.763 91.1875 816.799 90.8151 816.086 90.0703C815.378 89.3203 815.023 88.2708 815.023 86.9219C815.023 85.526 815.383 84.4427 816.102 83.6719C816.82 82.901 817.753 82.5156 818.898 82.5156C820.008 82.5156 820.914 82.8932 821.617 83.6484C822.32 84.4036 822.672 85.4661 822.672 86.8359C822.672 86.9193 822.669 87.0443 822.664 87.2109H816.477C816.529 88.1224 816.786 88.8203 817.25 89.3047C817.714 89.7891 818.292 90.0312 818.984 90.0312C819.5 90.0312 819.94 89.8958 820.305 89.625C820.669 89.3542 820.958 88.9219 821.172 88.3281ZM816.555 86.0547H821.188C821.125 85.3568 820.948 84.8333 820.656 84.4844C820.208 83.9427 819.628 83.6719 818.914 83.6719C818.268 83.6719 817.724 83.888 817.281 84.3203C816.844 84.7526 816.602 85.3307 816.555 86.0547ZM824.398 91V82.7031H825.664V83.8828C826.273 82.9714 827.154 82.5156 828.305 82.5156C828.805 82.5156 829.263 82.6068 829.68 82.7891C830.102 82.9661 830.417 83.2005 830.625 83.4922C830.833 83.7839 830.979 84.1302 831.062 84.5312C831.115 84.7917 831.141 85.2474 831.141 85.8984V91H829.734V85.9531C829.734 85.3802 829.68 84.9531 829.57 84.6719C829.461 84.3854 829.266 84.1589 828.984 83.9922C828.708 83.8203 828.383 83.7344 828.008 83.7344C827.409 83.7344 826.891 83.9245 826.453 84.3047C826.021 84.6849 825.805 85.4062 825.805 86.4688V91H824.398ZM843.438 88.3281L844.891 88.5078C844.661 89.3568 844.237 90.0156 843.617 90.4844C842.997 90.9531 842.206 91.1875 841.242 91.1875C840.029 91.1875 839.065 90.8151 838.352 90.0703C837.643 89.3203 837.289 88.2708 837.289 86.9219C837.289 85.526 837.648 84.4427 838.367 83.6719C839.086 82.901 840.018 82.5156 841.164 82.5156C842.273 82.5156 843.18 82.8932 843.883 83.6484C844.586 84.4036 844.938 85.4661 844.938 86.8359C844.938 86.9193 844.935 87.0443 844.93 87.2109H838.742C838.794 88.1224 839.052 88.8203 839.516 89.3047C839.979 89.7891 840.557 90.0312 841.25 90.0312C841.766 90.0312 842.206 89.8958 842.57 89.625C842.935 89.3542 843.224 88.9219 843.438 88.3281ZM838.82 86.0547H843.453C843.391 85.3568 843.214 84.8333 842.922 84.4844C842.474 83.9427 841.893 83.6719 841.18 83.6719C840.534 83.6719 839.99 83.888 839.547 84.3203C839.109 84.7526 838.867 85.3307 838.82 86.0547ZM840.336 81.6719L841.375 79.4844H843.219L841.5 81.6719H840.336ZM849.734 89.7422L849.938 90.9844C849.542 91.0677 849.188 91.1094 848.875 91.1094C848.365 91.1094 847.969 91.0286 847.688 90.8672C847.406 90.7057 847.208 90.4948 847.094 90.2344C846.979 89.9688 846.922 89.4141 846.922 88.5703V83.7969H845.891V82.7031H846.922V80.6484L848.32 79.8047V82.7031H849.734V83.7969H848.32V88.6484C848.32 89.0495 848.344 89.3073 848.391 89.4219C848.443 89.5365 848.523 89.6276 848.633 89.6953C848.747 89.763 848.909 89.7969 849.117 89.7969C849.273 89.7969 849.479 89.7786 849.734 89.7422ZM856.531 89.9766C856.01 90.4193 855.508 90.7318 855.023 90.9141C854.544 91.0964 854.029 91.1875 853.477 91.1875C852.565 91.1875 851.865 90.9661 851.375 90.5234C850.885 90.0755 850.641 89.5052 850.641 88.8125C850.641 88.4062 850.732 88.0365 850.914 87.7031C851.102 87.3646 851.344 87.0938 851.641 86.8906C851.943 86.6875 852.281 86.5339 852.656 86.4297C852.932 86.3568 853.349 86.2865 853.906 86.2188C855.042 86.0833 855.878 85.9219 856.414 85.7344C856.419 85.5417 856.422 85.4193 856.422 85.3672C856.422 84.7943 856.289 84.3906 856.023 84.1562C855.664 83.8385 855.13 83.6797 854.422 83.6797C853.76 83.6797 853.271 83.7969 852.953 84.0312C852.641 84.2604 852.409 84.6693 852.258 85.2578L850.883 85.0703C851.008 84.4818 851.214 84.0078 851.5 83.6484C851.786 83.2839 852.201 83.0052 852.742 82.8125C853.284 82.6146 853.911 82.5156 854.625 82.5156C855.333 82.5156 855.909 82.599 856.352 82.7656C856.794 82.9323 857.12 83.1432 857.328 83.3984C857.536 83.6484 857.682 83.9661 857.766 84.3516C857.812 84.5911 857.836 85.0234 857.836 85.6484V87.5234C857.836 88.8307 857.865 89.6589 857.922 90.0078C857.984 90.3516 858.104 90.6823 858.281 91H856.812C856.667 90.7083 856.573 90.3672 856.531 89.9766ZM856.414 86.8359C855.904 87.0443 855.138 87.2214 854.117 87.3672C853.539 87.4505 853.13 87.5443 852.891 87.6484C852.651 87.7526 852.466 87.9062 852.336 88.1094C852.206 88.3073 852.141 88.5286 852.141 88.7734C852.141 89.1484 852.281 89.4609 852.562 89.7109C852.849 89.9609 853.266 90.0859 853.812 90.0859C854.354 90.0859 854.836 89.9688 855.258 89.7344C855.68 89.4948 855.99 89.1693 856.188 88.7578C856.339 88.4401 856.414 87.9714 856.414 87.3516V86.8359ZM863.094 89.7422L863.297 90.9844C862.901 91.0677 862.547 91.1094 862.234 91.1094C861.724 91.1094 861.328 91.0286 861.047 90.8672C860.766 90.7057 860.568 90.4948 860.453 90.2344C860.339 89.9688 860.281 89.4141 860.281 88.5703V83.7969H859.25V82.7031H860.281V80.6484L861.68 79.8047V82.7031H863.094V83.7969H861.68V88.6484C861.68 89.0495 861.703 89.3073 861.75 89.4219C861.802 89.5365 861.883 89.6276 861.992 89.6953C862.107 89.763 862.268 89.7969 862.477 89.7969C862.633 89.7969 862.839 89.7786 863.094 89.7422ZM868.367 88.5234L869.758 88.3047C869.836 88.862 870.052 89.2891 870.406 89.5859C870.766 89.8828 871.266 90.0312 871.906 90.0312C872.552 90.0312 873.031 89.901 873.344 89.6406C873.656 89.375 873.812 89.0651 873.812 88.7109C873.812 88.3932 873.674 88.1432 873.398 87.9609C873.206 87.8359 872.727 87.6771 871.961 87.4844C870.93 87.224 870.214 87 869.812 86.8125C869.417 86.6198 869.115 86.3568 868.906 86.0234C868.703 85.6849 868.602 85.3125 868.602 84.9062C868.602 84.5365 868.685 84.1953 868.852 83.8828C869.023 83.5651 869.255 83.3021 869.547 83.0938C869.766 82.9323 870.062 82.7969 870.438 82.6875C870.818 82.5729 871.224 82.5156 871.656 82.5156C872.307 82.5156 872.878 82.6094 873.367 82.7969C873.862 82.9844 874.227 83.2396 874.461 83.5625C874.695 83.8802 874.857 84.3073 874.945 84.8438L873.57 85.0312C873.508 84.6042 873.326 84.2708 873.023 84.0312C872.727 83.7917 872.305 83.6719 871.758 83.6719C871.112 83.6719 870.651 83.7786 870.375 83.9922C870.099 84.2057 869.961 84.4557 869.961 84.7422C869.961 84.9245 870.018 85.0885 870.133 85.2344C870.247 85.3854 870.427 85.5104 870.672 85.6094C870.812 85.6615 871.227 85.7812 871.914 85.9688C872.909 86.2344 873.602 86.4531 873.992 86.625C874.388 86.7917 874.698 87.0365 874.922 87.3594C875.146 87.6823 875.258 88.0833 875.258 88.5625C875.258 89.0312 875.12 89.474 874.844 89.8906C874.573 90.3021 874.18 90.6224 873.664 90.8516C873.148 91.0755 872.565 91.1875 871.914 91.1875C870.836 91.1875 870.013 90.9635 869.445 90.5156C868.883 90.0677 868.523 89.4036 868.367 88.5234ZM882.609 88.3281L884.062 88.5078C883.833 89.3568 883.409 90.0156 882.789 90.4844C882.169 90.9531 881.378 91.1875 880.414 91.1875C879.201 91.1875 878.237 90.8151 877.523 90.0703C876.815 89.3203 876.461 88.2708 876.461 86.9219C876.461 85.526 876.82 84.4427 877.539 83.6719C878.258 82.901 879.19 82.5156 880.336 82.5156C881.445 82.5156 882.352 82.8932 883.055 83.6484C883.758 84.4036 884.109 85.4661 884.109 86.8359C884.109 86.9193 884.107 87.0443 884.102 87.2109H877.914C877.966 88.1224 878.224 88.8203 878.688 89.3047C879.151 89.7891 879.729 90.0312 880.422 90.0312C880.938 90.0312 881.378 89.8958 881.742 89.625C882.107 89.3542 882.396 88.9219 882.609 88.3281ZM877.992 86.0547H882.625C882.562 85.3568 882.385 84.8333 882.094 84.4844C881.646 83.9427 881.065 83.6719 880.352 83.6719C879.706 83.6719 879.161 83.888 878.719 84.3203C878.281 84.7526 878.039 85.3307 877.992 86.0547ZM879.508 81.6719L880.547 79.4844H882.391L880.672 81.6719H879.508ZM885.805 91V79.5469H887.211V91H885.805ZM895.078 88.3281L896.531 88.5078C896.302 89.3568 895.878 90.0156 895.258 90.4844C894.638 90.9531 893.846 91.1875 892.883 91.1875C891.669 91.1875 890.706 90.8151 889.992 90.0703C889.284 89.3203 888.93 88.2708 888.93 86.9219C888.93 85.526 889.289 84.4427 890.008 83.6719C890.727 82.901 891.659 82.5156 892.805 82.5156C893.914 82.5156 894.82 82.8932 895.523 83.6484C896.227 84.4036 896.578 85.4661 896.578 86.8359C896.578 86.9193 896.576 87.0443 896.57 87.2109H890.383C890.435 88.1224 890.693 88.8203 891.156 89.3047C891.62 89.7891 892.198 90.0312 892.891 90.0312C893.406 90.0312 893.846 89.8958 894.211 89.625C894.576 89.3542 894.865 88.9219 895.078 88.3281ZM890.461 86.0547H895.094C895.031 85.3568 894.854 84.8333 894.562 84.4844C894.115 83.9427 893.534 83.6719 892.82 83.6719C892.174 83.6719 891.63 83.888 891.188 84.3203C890.75 84.7526 890.508 85.3307 890.461 86.0547ZM903.719 87.9609L905.102 88.1406C904.951 89.0938 904.562 89.8411 903.938 90.3828C903.318 90.9193 902.555 91.1875 901.648 91.1875C900.513 91.1875 899.599 90.8177 898.906 90.0781C898.219 89.3333 897.875 88.2682 897.875 86.8828C897.875 85.987 898.023 85.2031 898.32 84.5312C898.617 83.8594 899.068 83.3568 899.672 83.0234C900.281 82.6849 900.943 82.5156 901.656 82.5156C902.557 82.5156 903.294 82.7448 903.867 83.2031C904.44 83.6562 904.807 84.3021 904.969 85.1406L903.602 85.3516C903.471 84.7943 903.24 84.375 902.906 84.0938C902.578 83.8125 902.18 83.6719 901.711 83.6719C901.003 83.6719 900.427 83.9271 899.984 84.4375C899.542 84.9427 899.32 85.7448 899.32 86.8438C899.32 87.9583 899.534 88.7682 899.961 89.2734C900.388 89.7786 900.945 90.0312 901.633 90.0312C902.185 90.0312 902.646 89.862 903.016 89.5234C903.385 89.1849 903.62 88.6641 903.719 87.9609ZM909.375 89.7422L909.578 90.9844C909.182 91.0677 908.828 91.1094 908.516 91.1094C908.005 91.1094 907.609 91.0286 907.328 90.8672C907.047 90.7057 906.849 90.4948 906.734 90.2344C906.62 89.9688 906.562 89.4141 906.562 88.5703V83.7969H905.531V82.7031H906.562V80.6484L907.961 79.8047V82.7031H909.375V83.7969H907.961V88.6484C907.961 89.0495 907.984 89.3073 908.031 89.4219C908.083 89.5365 908.164 89.6276 908.273 89.6953C908.388 89.763 908.549 89.7969 908.758 89.7969C908.914 89.7969 909.12 89.7786 909.375 89.7422ZM910.766 81.1641V79.5469H912.172V81.1641H910.766ZM910.766 91V82.7031H912.172V91H910.766ZM913.797 86.8516C913.797 85.3151 914.224 84.1771 915.078 83.4375C915.792 82.8229 916.661 82.5156 917.688 82.5156C918.828 82.5156 919.76 82.8906 920.484 83.6406C921.208 84.3854 921.57 85.4167 921.57 86.7344C921.57 87.8021 921.409 88.6432 921.086 89.2578C920.768 89.8672 920.302 90.3411 919.688 90.6797C919.078 91.0182 918.411 91.1875 917.688 91.1875C916.526 91.1875 915.586 90.8151 914.867 90.0703C914.154 89.3255 913.797 88.2526 913.797 86.8516ZM915.242 86.8516C915.242 87.9141 915.474 88.7109 915.938 89.2422C916.401 89.7682 916.984 90.0312 917.688 90.0312C918.385 90.0312 918.966 89.7656 919.43 89.2344C919.893 88.7031 920.125 87.8932 920.125 86.8047C920.125 85.7786 919.891 85.0026 919.422 84.4766C918.958 83.9453 918.38 83.6797 917.688 83.6797C916.984 83.6797 916.401 83.9427 915.938 84.4688C915.474 84.9948 915.242 85.7891 915.242 86.8516ZM923.227 91V82.7031H924.492V83.8828C925.102 82.9714 925.982 82.5156 927.133 82.5156C927.633 82.5156 928.091 82.6068 928.508 82.7891C928.93 82.9661 929.245 83.2005 929.453 83.4922C929.661 83.7839 929.807 84.1302 929.891 84.5312C929.943 84.7917 929.969 85.2474 929.969 85.8984V91H928.562V85.9531C928.562 85.3802 928.508 84.9531 928.398 84.6719C928.289 84.3854 928.094 84.1589 927.812 83.9922C927.536 83.8203 927.211 83.7344 926.836 83.7344C926.237 83.7344 925.719 83.9245 925.281 84.3047C924.849 84.6849 924.633 85.4062 924.633 86.4688V91H923.227ZM932.133 91V82.7031H933.398V83.8828C934.008 82.9714 934.888 82.5156 936.039 82.5156C936.539 82.5156 936.997 82.6068 937.414 82.7891C937.836 82.9661 938.151 83.2005 938.359 83.4922C938.568 83.7839 938.714 84.1302 938.797 84.5312C938.849 84.7917 938.875 85.2474 938.875 85.8984V91H937.469V85.9531C937.469 85.3802 937.414 84.9531 937.305 84.6719C937.195 84.3854 937 84.1589 936.719 83.9922C936.443 83.8203 936.117 83.7344 935.742 83.7344C935.143 83.7344 934.625 83.9245 934.188 84.3047C933.755 84.6849 933.539 85.4062 933.539 86.4688V91H932.133ZM946.719 88.3281L948.172 88.5078C947.943 89.3568 947.518 90.0156 946.898 90.4844C946.279 90.9531 945.487 91.1875 944.523 91.1875C943.31 91.1875 942.346 90.8151 941.633 90.0703C940.924 89.3203 940.57 88.2708 940.57 86.9219C940.57 85.526 940.93 84.4427 941.648 83.6719C942.367 82.901 943.299 82.5156 944.445 82.5156C945.555 82.5156 946.461 82.8932 947.164 83.6484C947.867 84.4036 948.219 85.4661 948.219 86.8359C948.219 86.9193 948.216 87.0443 948.211 87.2109H942.023C942.076 88.1224 942.333 88.8203 942.797 89.3047C943.26 89.7891 943.839 90.0312 944.531 90.0312C945.047 90.0312 945.487 89.8958 945.852 89.625C946.216 89.3542 946.505 88.9219 946.719 88.3281ZM942.102 86.0547H946.734C946.672 85.3568 946.495 84.8333 946.203 84.4844C945.755 83.9427 945.174 83.6719 944.461 83.6719C943.815 83.6719 943.271 83.888 942.828 84.3203C942.391 84.7526 942.148 85.3307 942.102 86.0547ZM943.617 81.6719L944.656 79.4844H946.5L944.781 81.6719H943.617ZM953.875 86.8516C953.875 85.3151 954.302 84.1771 955.156 83.4375C955.87 82.8229 956.74 82.5156 957.766 82.5156C958.906 82.5156 959.839 82.8906 960.562 83.6406C961.286 84.3854 961.648 85.4167 961.648 86.7344C961.648 87.8021 961.487 88.6432 961.164 89.2578C960.846 89.8672 960.38 90.3411 959.766 90.6797C959.156 91.0182 958.49 91.1875 957.766 91.1875C956.604 91.1875 955.664 90.8151 954.945 90.0703C954.232 89.3255 953.875 88.2526 953.875 86.8516ZM955.32 86.8516C955.32 87.9141 955.552 88.7109 956.016 89.2422C956.479 89.7682 957.062 90.0312 957.766 90.0312C958.464 90.0312 959.044 89.7656 959.508 89.2344C959.971 88.7031 960.203 87.8932 960.203 86.8047C960.203 85.7786 959.969 85.0026 959.5 84.4766C959.036 83.9453 958.458 83.6797 957.766 83.6797C957.062 83.6797 956.479 83.9427 956.016 84.4688C955.552 84.9948 955.32 85.7891 955.32 86.8516ZM968.742 91V89.7812C968.096 90.7188 967.219 91.1875 966.109 91.1875C965.62 91.1875 965.161 91.0938 964.734 90.9062C964.312 90.7188 963.997 90.4844 963.789 90.2031C963.586 89.9167 963.443 89.5677 963.359 89.1562C963.302 88.8802 963.273 88.4427 963.273 87.8438V82.7031H964.68V87.3047C964.68 88.0391 964.708 88.5339 964.766 88.7891C964.854 89.1589 965.042 89.4505 965.328 89.6641C965.615 89.8724 965.969 89.9766 966.391 89.9766C966.812 89.9766 967.208 89.8698 967.578 89.6562C967.948 89.4375 968.208 89.1432 968.359 88.7734C968.516 88.3984 968.594 87.8568 968.594 87.1484V82.7031H970V91H968.742ZM976.664 91V82.7031H977.93V83.8828C978.539 82.9714 979.419 82.5156 980.57 82.5156C981.07 82.5156 981.529 82.6068 981.945 82.7891C982.367 82.9661 982.682 83.2005 982.891 83.4922C983.099 83.7839 983.245 84.1302 983.328 84.5312C983.38 84.7917 983.406 85.2474 983.406 85.8984V91H982V85.9531C982 85.3802 981.945 84.9531 981.836 84.6719C981.727 84.3854 981.531 84.1589 981.25 83.9922C980.974 83.8203 980.648 83.7344 980.273 83.7344C979.674 83.7344 979.156 83.9245 978.719 84.3047C978.286 84.6849 978.07 85.4062 978.07 86.4688V91H976.664ZM985.047 86.8516C985.047 85.3151 985.474 84.1771 986.328 83.4375C987.042 82.8229 987.911 82.5156 988.938 82.5156C990.078 82.5156 991.01 82.8906 991.734 83.6406C992.458 84.3854 992.82 85.4167 992.82 86.7344C992.82 87.8021 992.659 88.6432 992.336 89.2578C992.018 89.8672 991.552 90.3411 990.938 90.6797C990.328 91.0182 989.661 91.1875 988.938 91.1875C987.776 91.1875 986.836 90.8151 986.117 90.0703C985.404 89.3255 985.047 88.2526 985.047 86.8516ZM986.492 86.8516C986.492 87.9141 986.724 88.7109 987.188 89.2422C987.651 89.7682 988.234 90.0312 988.938 90.0312C989.635 90.0312 990.216 89.7656 990.68 89.2344C991.143 88.7031 991.375 87.8932 991.375 86.8047C991.375 85.7786 991.141 85.0026 990.672 84.4766C990.208 83.9453 989.63 83.6797 988.938 83.6797C988.234 83.6797 987.651 83.9427 987.188 84.4688C986.724 84.9948 986.492 85.7891 986.492 86.8516ZM994.477 91V82.7031H995.742V83.8828C996.352 82.9714 997.232 82.5156 998.383 82.5156C998.883 82.5156 999.341 82.6068 999.758 82.7891C1000.18 82.9661 1000.49 83.2005 1000.7 83.4922C1000.91 83.7839 1001.06 84.1302 1001.14 84.5312C1001.19 84.7917 1001.22 85.2474 1001.22 85.8984V91H999.812V85.9531C999.812 85.3802 999.758 84.9531 999.648 84.6719C999.539 84.3854 999.344 84.1589 999.062 83.9922C998.786 83.8203 998.461 83.7344 998.086 83.7344C997.487 83.7344 996.969 83.9245 996.531 84.3047C996.099 84.6849 995.883 85.4062 995.883 86.4688V91H994.477Z" fill="#3E3E3D"/>
<g opacity="0.5">
<path d="M579.5 109.5H1159" stroke="#CDCCCB"/>
</g>
</g>
<rect x="0.5" y="0.5" width="1158" height="109" rx="7.5" stroke="#CDCCCB"/>
<defs>
<clipPath id="clip0_304_42085">
<rect width="1159" height="110" rx="8" fill="white"/>
</clipPath>
</defs>
</svg>
