<svg viewBox="0 0 20 20" fill="none" xmlns="http://www.w3.org/2000/svg">
<path d="M15.8332 15.8334H6.6665C6.20817 15.8334 5.81581 15.6702 5.48942 15.3438C5.16303 15.0174 4.99984 14.625 4.99984 14.1667V2.50004C4.99984 2.04171 5.16303 1.64935 5.48942 1.32296C5.81581 0.996568 6.20817 0.833374 6.6665 0.833374H11.8123C12.0346 0.833374 12.2464 0.875041 12.4478 0.958374C12.6491 1.04171 12.8262 1.15976 12.979 1.31254L17.0207 5.35421C17.1734 5.50699 17.2915 5.68407 17.3748 5.88546C17.4582 6.08685 17.4998 6.29865 17.4998 6.52087V14.1667C17.4998 14.625 17.3366 15.0174 17.0103 15.3438C16.6839 15.6702 16.2915 15.8334 15.8332 15.8334ZM15.8332 6.66671L11.6665 2.50004V5.41671C11.6665 5.76393 11.788 6.05907 12.0311 6.30212C12.2741 6.54518 12.5693 6.66671 12.9165 6.66671H15.8332ZM3.33317 19.1667C2.87484 19.1667 2.48248 19.0035 2.15609 18.6771C1.8297 18.3507 1.6665 17.9584 1.6665 17.5V6.66671C1.6665 6.4306 1.74637 6.23268 1.90609 6.07296C2.06581 5.91324 2.26373 5.83337 2.49984 5.83337C2.73595 5.83337 2.93386 5.91324 3.09359 6.07296C3.25331 6.23268 3.33317 6.4306 3.33317 6.66671V17.5H11.6665C11.9026 17.5 12.1005 17.5799 12.2603 17.7396C12.42 17.8993 12.4998 18.0973 12.4998 18.3334C12.4998 18.5695 12.42 18.7674 12.2603 18.9271C12.1005 19.0868 11.9026 19.1667 11.6665 19.1667H3.33317Z" fill="currentColor"/>
</svg>