<svg viewBox="0 0 20 20" fill="none" xmlns="http://www.w3.org/2000/svg">
<path d="M10.3126 16.5208C10.382 16.5208 10.448 16.5069 10.5105 16.4792C10.573 16.4514 10.6251 16.4167 10.6667 16.375L17.0626 9.95833C17.2014 9.81944 17.3091 9.65972 17.3855 9.47917C17.4619 9.29861 17.5001 9.11285 17.5001 8.92188C17.5001 8.71813 17.4619 8.52396 17.3855 8.33937C17.3091 8.15479 17.2014 7.99306 17.0626 7.85417L13.1876 3.95833C13.0348 3.81944 12.8689 3.71181 12.6898 3.63542C12.5108 3.55903 12.3226 3.52083 12.1251 3.52083C11.8473 3.52083 11.5938 3.60069 11.3646 3.76042C11.1355 3.92014 10.9237 4.09722 10.7292 4.29167L12.2917 5.79167C12.5139 6.01389 12.691 6.26042 12.823 6.53125C12.9549 6.80208 13.0209 7.09722 13.0209 7.41667C13.0209 7.97222 12.8264 8.44444 12.4376 8.83333C12.0487 9.22222 11.5773 9.41667 11.0234 9.41667C10.7596 9.41667 10.5058 9.36806 10.2619 9.27083C10.0179 9.17361 9.79866 9.02778 9.60422 8.83333L7.89588 7.125L4.66672 10.3542C4.62505 10.4097 4.59033 10.4669 4.56255 10.5258C4.53477 10.5846 4.52088 10.6476 4.52088 10.715C4.52088 10.8494 4.57123 10.9653 4.67193 11.0625C4.77262 11.1597 4.89012 11.2083 5.02443 11.2083C5.09151 11.2083 5.15283 11.1944 5.20838 11.1667C5.26394 11.1389 5.3195 11.1042 5.37505 11.0625L7.33338 9.125C7.48616 8.97222 7.65977 8.89583 7.85422 8.89583C8.04866 8.89583 8.22227 8.97222 8.37505 9.125C8.52783 9.27778 8.60422 9.45139 8.60422 9.64583C8.60422 9.84028 8.52783 10.0139 8.37505 10.1667L6.41672 12.125C6.36116 12.1806 6.32297 12.2374 6.30213 12.2954C6.2813 12.3533 6.27088 12.4155 6.27088 12.4819C6.27088 12.6145 6.31998 12.7306 6.41818 12.83C6.51637 12.9294 6.63429 12.9792 6.77193 12.9792C6.84068 12.9792 6.9063 12.9653 6.9688 12.9375C7.0313 12.9097 7.08338 12.875 7.12505 12.8333L9.08338 10.875C9.23616 10.7222 9.40977 10.6458 9.60422 10.6458C9.79866 10.6458 9.97227 10.7222 10.1251 10.875C10.2778 11.0278 10.3542 11.2049 10.3542 11.4062C10.3542 11.6076 10.2778 11.7847 10.1251 11.9375L8.18755 13.875C8.132 13.9306 8.0938 13.9913 8.07297 14.0573C8.05213 14.1233 8.04172 14.1892 8.04172 14.2552C8.04172 14.3872 8.09082 14.5026 8.18901 14.6015C8.2872 14.7005 8.40512 14.75 8.54276 14.75C8.61151 14.75 8.67713 14.7361 8.73963 14.7083C8.80213 14.6806 8.85422 14.6458 8.89588 14.6042L10.8542 12.6458C11.007 12.4931 11.1806 12.4167 11.3751 12.4167C11.5695 12.4167 11.7431 12.4931 11.8959 12.6458C12.0487 12.7986 12.1251 12.9757 12.1251 13.1771C12.1251 13.3785 12.0487 13.5556 11.8959 13.7083L9.95838 15.6458C9.91672 15.7014 9.882 15.7599 9.85422 15.8212C9.82644 15.8826 9.81255 15.9484 9.81255 16.0185C9.81255 16.159 9.86116 16.2778 9.95838 16.375C10.0556 16.4722 10.1737 16.5208 10.3126 16.5208ZM10.2917 17.9792C9.77783 17.9792 9.33338 17.809 8.95838 17.4688C8.58338 17.1285 8.36811 16.7083 8.31255 16.2083C7.85422 16.1667 7.46186 15.9792 7.13547 15.6458C6.80908 15.3125 6.61116 14.9158 6.54172 14.4556C6.0695 14.388 5.67019 14.191 5.3438 13.8646C5.01741 13.5382 4.83338 13.1458 4.79172 12.6875C4.27783 12.6597 3.85422 12.4514 3.52088 12.0625C3.18755 11.6736 3.02088 11.2244 3.02088 10.7148C3.02088 10.4466 3.06949 10.191 3.16672 9.94792C3.26394 9.70486 3.40977 9.48611 3.60422 9.29167L6.83338 6.08333C7.12088 5.79167 7.47401 5.64583 7.89276 5.64583C8.31151 5.64583 8.66672 5.79167 8.95838 6.08333L10.6459 7.77083C10.7014 7.82639 10.757 7.86458 10.8126 7.88542C10.8681 7.90625 10.9281 7.91667 10.9926 7.91667C11.1376 7.91667 11.2584 7.86806 11.3551 7.77083C11.4517 7.67361 11.5001 7.55354 11.5001 7.41063C11.5001 7.34715 11.4862 7.28368 11.4584 7.22021C11.4306 7.15674 11.3959 7.10417 11.3542 7.0625L8.25005 3.95833C8.09727 3.80556 7.93026 3.69444 7.74901 3.625C7.56776 3.55556 7.37713 3.52083 7.17713 3.52083C6.98963 3.52083 6.80561 3.55903 6.62505 3.63542C6.4445 3.71181 6.27783 3.81944 6.12505 3.95833L2.93755 7.14583C2.757 7.32639 2.632 7.54167 2.56255 7.79167C2.49311 8.04167 2.48616 8.29167 2.54172 8.54167C2.58338 8.73611 2.54866 8.92014 2.43755 9.09375C2.32644 9.26736 2.16672 9.375 1.95838 9.41667C1.75005 9.45833 1.55908 9.42361 1.38547 9.3125C1.21186 9.20139 1.10422 9.04167 1.06255 8.83333C0.951439 8.34722 0.968801 7.85764 1.11463 7.36458C1.26047 6.87153 1.51394 6.44444 1.87505 6.08333L5.06255 2.89583C5.34033 2.61806 5.66325 2.40278 6.0313 2.25C6.39936 2.09722 6.78477 2.02083 7.18755 2.02083C7.59033 2.02083 7.97575 2.09722 8.3438 2.25C8.71186 2.40278 9.03477 2.61806 9.31255 2.89583L9.64588 3.22917L9.97922 2.875C10.257 2.59722 10.5799 2.38194 10.948 2.22917C11.316 2.07639 11.7014 2 12.1042 2C12.507 2 12.8889 2.07639 13.2501 2.22917C13.6112 2.38194 13.9306 2.59722 14.2084 2.875L18.1042 6.77083C18.382 7.04861 18.5973 7.36806 18.7501 7.72917C18.9028 8.09028 18.9792 8.47222 18.9792 8.875C18.9792 9.27778 18.9028 9.66319 18.7501 10.0312C18.5973 10.3993 18.382 10.7222 18.1042 11L11.7084 17.3958C11.5139 17.5903 11.295 17.7361 11.0515 17.8333C10.8082 17.9306 10.5549 17.9792 10.2917 17.9792Z" fill="currentColor"/>
</svg>
