<svg width="1159" height="207" viewBox="0 0 1159 207" fill="none" xmlns="http://www.w3.org/2000/svg">
<g clip-path="url(#clip0_353_46411)">
<rect width="579.5" height="61" fill="white"/>
<path d="M23.96 37.18C22.5333 37.18 21.3133 36.8867 20.3 36.3C19.2867 35.7133 18.5067 34.88 17.96 33.8C17.4267 32.7067 17.16 31.42 17.16 29.94C17.16 28.8333 17.3133 27.84 17.62 26.96C17.9267 26.0667 18.3667 25.3067 18.94 24.68C19.5267 24.04 20.24 23.5533 21.08 23.22C21.9333 22.8867 22.8933 22.72 23.96 22.72C24.7467 22.72 25.5 22.8267 26.22 23.04C26.9533 23.2533 27.5867 23.56 28.12 23.96C28.3467 24.1067 28.4933 24.2867 28.56 24.5C28.64 24.7 28.6533 24.8933 28.6 25.08C28.56 25.2667 28.4733 25.4267 28.34 25.56C28.2067 25.68 28.0333 25.7467 27.82 25.76C27.62 25.7733 27.4 25.7 27.16 25.54C26.72 25.2067 26.2333 24.96 25.7 24.8C25.1667 24.64 24.6067 24.56 24.02 24.56C23.0067 24.56 22.1533 24.7733 21.46 25.2C20.7667 25.6133 20.24 26.22 19.88 27.02C19.52 27.82 19.34 28.7933 19.34 29.94C19.34 31.0867 19.52 32.0667 19.88 32.88C20.24 33.68 20.7667 34.2933 21.46 34.72C22.1533 35.1333 23.0067 35.34 24.02 35.34C24.6067 35.34 25.1667 35.26 25.7 35.1C26.2467 34.9267 26.76 34.6733 27.24 34.34C27.48 34.1933 27.6933 34.1267 27.88 34.14C28.08 34.1533 28.2467 34.22 28.38 34.34C28.5133 34.46 28.6 34.6133 28.64 34.8C28.6933 34.9733 28.6867 35.16 28.62 35.36C28.5667 35.5467 28.44 35.7067 28.24 35.84C27.6933 36.28 27.0467 36.6133 26.3 36.84C25.5533 37.0667 24.7733 37.18 23.96 37.18ZM33.9725 37.18C32.9858 37.18 32.1325 36.9733 31.4125 36.56C30.7058 36.1467 30.1525 35.56 29.7525 34.8C29.3525 34.04 29.1525 33.1467 29.1525 32.12C29.1525 31.3333 29.2658 30.6333 29.4925 30.02C29.7192 29.4067 30.0392 28.88 30.4525 28.44C30.8792 27.9867 31.3858 27.6467 31.9725 27.42C32.5725 27.18 33.2392 27.06 33.9725 27.06C34.9458 27.06 35.7858 27.2667 36.4925 27.68C37.2125 28.0933 37.7725 28.68 38.1725 29.44C38.5725 30.1867 38.7725 31.08 38.7725 32.12C38.7725 32.8933 38.6592 33.5933 38.4325 34.22C38.2058 34.8467 37.8792 35.38 37.4525 35.82C37.0392 36.26 36.5325 36.6 35.9325 36.84C35.3458 37.0667 34.6925 37.18 33.9725 37.18ZM33.9725 35.62C34.5192 35.62 34.9992 35.4867 35.4125 35.22C35.8258 34.9533 36.1458 34.56 36.3725 34.04C36.6125 33.52 36.7325 32.88 36.7325 32.12C36.7325 30.9733 36.4792 30.1067 35.9725 29.52C35.4658 28.9333 34.7992 28.64 33.9725 28.64C33.4125 28.64 32.9258 28.7733 32.5125 29.04C32.0992 29.2933 31.7725 29.68 31.5325 30.2C31.3058 30.72 31.1925 31.36 31.1925 32.12C31.1925 33.2533 31.4458 34.12 31.9525 34.72C32.4592 35.32 33.1325 35.62 33.9725 35.62ZM41.5411 37.14C41.2211 37.14 40.9744 37.0533 40.8011 36.88C40.6278 36.6933 40.5411 36.44 40.5411 36.12V28.12C40.5411 27.7867 40.6278 27.5333 40.8011 27.36C40.9744 27.1867 41.2144 27.1 41.5211 27.1C41.8411 27.1 42.0811 27.1867 42.2411 27.36C42.4144 27.5333 42.5011 27.7867 42.5011 28.12V29.68L42.2811 29.32C42.5744 28.5733 43.0344 28.0133 43.6611 27.64C44.2878 27.2533 45.0078 27.06 45.8211 27.06C46.5944 27.06 47.2344 27.2067 47.7411 27.5C48.2611 27.78 48.6478 28.2133 48.9011 28.8C49.1544 29.3733 49.2811 30.1 49.2811 30.98V36.12C49.2811 36.44 49.1944 36.6933 49.0211 36.88C48.8478 37.0533 48.6011 37.14 48.2811 37.14C47.9478 37.14 47.6944 37.0533 47.5211 36.88C47.3478 36.6933 47.2611 36.44 47.2611 36.12V31.1C47.2611 30.26 47.0944 29.6467 46.7611 29.26C46.4411 28.8733 45.9344 28.68 45.2411 28.68C44.4278 28.68 43.7744 28.9333 43.2811 29.44C42.8011 29.9467 42.5611 30.6267 42.5611 31.48V36.12C42.5611 36.8 42.2211 37.14 41.5411 37.14ZM55.7245 37.18C54.9245 37.18 54.2512 37.04 53.7045 36.76C53.1579 36.48 52.7512 36.0667 52.4845 35.52C52.2179 34.9733 52.0845 34.3067 52.0845 33.52V28.8H50.8845C50.6179 28.8 50.4112 28.7333 50.2645 28.6C50.1179 28.4533 50.0445 28.26 50.0445 28.02C50.0445 27.7667 50.1179 27.5733 50.2645 27.44C50.4112 27.3067 50.6179 27.24 50.8845 27.24H52.0845V25.18C52.0845 24.8467 52.1712 24.5933 52.3445 24.42C52.5312 24.2467 52.7845 24.16 53.1045 24.16C53.4245 24.16 53.6712 24.2467 53.8445 24.42C54.0179 24.5933 54.1045 24.8467 54.1045 25.18V27.24H56.4445C56.7112 27.24 56.9179 27.3067 57.0645 27.44C57.2112 27.5733 57.2845 27.7667 57.2845 28.02C57.2845 28.26 57.2112 28.4533 57.0645 28.6C56.9179 28.7333 56.7112 28.8 56.4445 28.8H54.1045V33.36C54.1045 34.0667 54.2512 34.6 54.5445 34.96C54.8512 35.32 55.3445 35.5 56.0245 35.5C56.2645 35.5 56.4712 35.48 56.6445 35.44C56.8312 35.3867 56.9845 35.3533 57.1045 35.34C57.2512 35.34 57.3712 35.3933 57.4645 35.5C57.5579 35.5933 57.6045 35.78 57.6045 36.06C57.6045 36.26 57.5645 36.4467 57.4845 36.62C57.4179 36.7933 57.2912 36.9067 57.1045 36.96C56.9445 37.0133 56.7245 37.06 56.4445 37.1C56.1779 37.1533 55.9379 37.18 55.7245 37.18ZM62.8516 37.18C61.7849 37.18 60.8649 36.98 60.0916 36.58C59.3316 36.1667 58.7382 35.5867 58.3116 34.84C57.8982 34.08 57.6916 33.18 57.6916 32.14C57.6916 31.1267 57.8982 30.24 58.3116 29.48C58.7249 28.72 59.2916 28.1267 60.0116 27.7C60.7316 27.2733 61.5516 27.06 62.4716 27.06C63.1516 27.06 63.7582 27.1733 64.2916 27.4C64.8249 27.6133 65.2782 27.9333 65.6516 28.36C66.0382 28.7733 66.3249 29.28 66.5116 29.88C66.7116 30.48 66.8116 31.1533 66.8116 31.9C66.8116 32.1267 66.7449 32.3 66.6116 32.42C66.4782 32.5267 66.2782 32.58 66.0116 32.58H59.2916V31.34H65.4516L65.1116 31.62C65.1116 30.9533 65.0116 30.3867 64.8116 29.92C64.6249 29.4533 64.3382 29.1 63.9516 28.86C63.5782 28.6067 63.1116 28.48 62.5516 28.48C61.9249 28.48 61.3916 28.6267 60.9516 28.92C60.5249 29.2133 60.1982 29.62 59.9716 30.14C59.7449 30.66 59.6316 31.2667 59.6316 31.96V32.08C59.6316 33.2533 59.9049 34.14 60.4516 34.74C61.0116 35.3267 61.8182 35.62 62.8716 35.62C63.2716 35.62 63.6916 35.5667 64.1316 35.46C64.5849 35.3533 65.0116 35.1733 65.4116 34.92C65.6382 34.7867 65.8382 34.7267 66.0116 34.74C66.1982 34.7533 66.3449 34.8133 66.4516 34.92C66.5716 35.0267 66.6449 35.16 66.6716 35.32C66.6982 35.48 66.6716 35.6467 66.5916 35.82C66.5116 35.98 66.3716 36.1267 66.1716 36.26C65.7182 36.5667 65.1916 36.8 64.5916 36.96C63.9916 37.1067 63.4116 37.18 62.8516 37.18ZM69.5138 37.14C69.1938 37.14 68.9471 37.0533 68.7738 36.88C68.6004 36.6933 68.5138 36.44 68.5138 36.12V28.12C68.5138 27.7867 68.6004 27.5333 68.7738 27.36C68.9471 27.1867 69.1871 27.1 69.4938 27.1C69.8138 27.1 70.0538 27.1867 70.2138 27.36C70.3871 27.5333 70.4738 27.7867 70.4738 28.12V29.68L70.2538 29.32C70.5471 28.5733 71.0071 28.0133 71.6338 27.64C72.2604 27.2533 72.9804 27.06 73.7938 27.06C74.5671 27.06 75.2071 27.2067 75.7138 27.5C76.2338 27.78 76.6204 28.2133 76.8738 28.8C77.1271 29.3733 77.2538 30.1 77.2538 30.98V36.12C77.2538 36.44 77.1671 36.6933 76.9938 36.88C76.8204 37.0533 76.5738 37.14 76.2538 37.14C75.9204 37.14 75.6671 37.0533 75.4938 36.88C75.3204 36.6933 75.2338 36.44 75.2338 36.12V31.1C75.2338 30.26 75.0671 29.6467 74.7338 29.26C74.4138 28.8733 73.9071 28.68 73.2138 28.68C72.4004 28.68 71.7471 28.9333 71.2538 29.44C70.7738 29.9467 70.5338 30.6267 70.5338 31.48V36.12C70.5338 36.8 70.1938 37.14 69.5138 37.14ZM83.6972 37.18C82.8972 37.18 82.2239 37.04 81.6772 36.76C81.1305 36.48 80.7239 36.0667 80.4572 35.52C80.1905 34.9733 80.0572 34.3067 80.0572 33.52V28.8H78.8572C78.5905 28.8 78.3839 28.7333 78.2372 28.6C78.0905 28.4533 78.0172 28.26 78.0172 28.02C78.0172 27.7667 78.0905 27.5733 78.2372 27.44C78.3839 27.3067 78.5905 27.24 78.8572 27.24H80.0572V25.18C80.0572 24.8467 80.1439 24.5933 80.3172 24.42C80.5039 24.2467 80.7572 24.16 81.0772 24.16C81.3972 24.16 81.6439 24.2467 81.8172 24.42C81.9905 24.5933 82.0772 24.8467 82.0772 25.18V27.24H84.4172C84.6839 27.24 84.8905 27.3067 85.0372 27.44C85.1839 27.5733 85.2572 27.7667 85.2572 28.02C85.2572 28.26 85.1839 28.4533 85.0372 28.6C84.8905 28.7333 84.6839 28.8 84.4172 28.8H82.0772V33.36C82.0772 34.0667 82.2239 34.6 82.5172 34.96C82.8239 35.32 83.3172 35.5 83.9972 35.5C84.2372 35.5 84.4439 35.48 84.6172 35.44C84.8039 35.3867 84.9572 35.3533 85.0772 35.34C85.2239 35.34 85.3439 35.3933 85.4372 35.5C85.5305 35.5933 85.5772 35.78 85.5772 36.06C85.5772 36.26 85.5372 36.4467 85.4572 36.62C85.3905 36.7933 85.2639 36.9067 85.0772 36.96C84.9172 37.0133 84.6972 37.06 84.4172 37.1C84.1505 37.1533 83.9105 37.18 83.6972 37.18Z" fill="#201F1F"/>
<path d="M0 60.5H579.5" stroke="#CDCCCB"/>
<rect width="579.5" height="49" transform="translate(0 61)" fill="white"/>
<path d="M17.2266 91V79.6406H19.5391V89.0703H25.2891V91H17.2266ZM26.9297 81.5781V79.5469H29.125V81.5781H26.9297ZM26.9297 91V82.7031H29.125V91H26.9297ZM31.1797 91.5469L33.6875 91.8516C33.7292 92.1432 33.8255 92.3438 33.9766 92.4531C34.1849 92.6094 34.513 92.6875 34.9609 92.6875C35.5339 92.6875 35.9635 92.6016 36.25 92.4297C36.4427 92.3151 36.5885 92.1302 36.6875 91.875C36.7552 91.6927 36.7891 91.3568 36.7891 90.8672V89.6562C36.1328 90.5521 35.3047 91 34.3047 91C33.1901 91 32.3073 90.5286 31.6562 89.5859C31.1458 88.8411 30.8906 87.9141 30.8906 86.8047C30.8906 85.4141 31.224 84.3516 31.8906 83.6172C32.5625 82.8828 33.3958 82.5156 34.3906 82.5156C35.4167 82.5156 36.263 82.9661 36.9297 83.8672V82.7031H38.9844V90.1484C38.9844 91.1276 38.9036 91.8594 38.7422 92.3438C38.5807 92.8281 38.3542 93.2083 38.0625 93.4844C37.7708 93.7604 37.3802 93.9766 36.8906 94.1328C36.4062 94.2891 35.7917 94.3672 35.0469 94.3672C33.6406 94.3672 32.6432 94.125 32.0547 93.6406C31.4661 93.1615 31.1719 92.5521 31.1719 91.8125C31.1719 91.7396 31.1745 91.651 31.1797 91.5469ZM33.1406 86.6797C33.1406 87.5599 33.3099 88.2057 33.6484 88.6172C33.9922 89.0234 34.4141 89.2266 34.9141 89.2266C35.4505 89.2266 35.9036 89.0182 36.2734 88.6016C36.6432 88.1797 36.8281 87.5573 36.8281 86.7344C36.8281 85.875 36.651 85.237 36.2969 84.8203C35.9427 84.4036 35.4948 84.1953 34.9531 84.1953C34.4271 84.1953 33.9922 84.401 33.6484 84.8125C33.3099 85.2188 33.1406 85.8411 33.1406 86.6797ZM43.3516 79.5469V83.7578C44.0599 82.9297 44.9062 82.5156 45.8906 82.5156C46.3958 82.5156 46.8516 82.6094 47.2578 82.7969C47.6641 82.9844 47.9688 83.224 48.1719 83.5156C48.3802 83.8073 48.5208 84.1302 48.5938 84.4844C48.6719 84.8385 48.7109 85.388 48.7109 86.1328V91H46.5156V86.6172C46.5156 85.7474 46.474 85.1953 46.3906 84.9609C46.3073 84.7266 46.1589 84.5417 45.9453 84.4062C45.737 84.2656 45.474 84.1953 45.1562 84.1953C44.7917 84.1953 44.4661 84.2839 44.1797 84.4609C43.8932 84.638 43.6823 84.9062 43.5469 85.2656C43.4167 85.6198 43.3516 86.1458 43.3516 86.8438V91H41.1562V79.5469H43.3516ZM54.75 82.7031V84.4531H53.25V87.7969C53.25 88.474 53.263 88.8698 53.2891 88.9844C53.3203 89.0938 53.3854 89.1849 53.4844 89.2578C53.5885 89.3307 53.7135 89.3672 53.8594 89.3672C54.0625 89.3672 54.3568 89.2969 54.7422 89.1562L54.9297 90.8594C54.4193 91.0781 53.8411 91.1875 53.1953 91.1875C52.7995 91.1875 52.4427 91.1224 52.125 90.9922C51.8073 90.8568 51.5729 90.6849 51.4219 90.4766C51.276 90.263 51.1745 89.9766 51.1172 89.6172C51.0703 89.362 51.0469 88.8464 51.0469 88.0703V84.4531H50.0391V82.7031H51.0469V81.0547L53.25 79.7734V82.7031H54.75ZM64.3672 94.3672H62.8594C62.0625 93.1641 61.4557 91.9141 61.0391 90.6172C60.6224 89.3203 60.4141 88.0651 60.4141 86.8516C60.4141 85.3464 60.6719 83.9219 61.1875 82.5781C61.6354 81.4115 62.2031 80.3359 62.8906 79.3516H64.3906C63.6771 80.9297 63.1849 82.2734 62.9141 83.3828C62.6484 84.487 62.5156 85.6589 62.5156 86.8984C62.5156 87.7526 62.5938 88.6276 62.75 89.5234C62.9115 90.4193 63.1302 91.2708 63.4062 92.0781C63.5885 92.6094 63.9089 93.3724 64.3672 94.3672ZM71.2031 91H69.0078V82.7266C68.2057 83.4766 67.2604 84.0312 66.1719 84.3906V82.3984C66.7448 82.2109 67.3672 81.8568 68.0391 81.3359C68.7109 80.8099 69.1719 80.1979 69.4219 79.5H71.2031V91ZM74.8984 82.7031H76.9453V83.9219C77.2109 83.5052 77.5703 83.1667 78.0234 82.9062C78.4766 82.6458 78.9792 82.5156 79.5312 82.5156C80.4948 82.5156 81.3125 82.8932 81.9844 83.6484C82.6562 84.4036 82.9922 85.4557 82.9922 86.8047C82.9922 88.1901 82.6536 89.2682 81.9766 90.0391C81.2995 90.8047 80.4792 91.1875 79.5156 91.1875C79.0573 91.1875 78.6406 91.0964 78.2656 90.9141C77.8958 90.7318 77.5052 90.4193 77.0938 89.9766V94.1562H74.8984V82.7031ZM77.0703 86.7109C77.0703 87.6432 77.2552 88.3333 77.625 88.7812C77.9948 89.224 78.4453 89.4453 78.9766 89.4453C79.487 89.4453 79.9115 89.2422 80.25 88.8359C80.5885 88.4245 80.7578 87.7526 80.7578 86.8203C80.7578 85.9505 80.5833 85.3047 80.2344 84.8828C79.8854 84.4609 79.4531 84.25 78.9375 84.25C78.401 84.25 77.9557 84.4583 77.6016 84.875C77.2474 85.2865 77.0703 85.8984 77.0703 86.7109ZM83.6875 91L86.6797 86.7266L83.8125 82.7031H86.4922L87.9609 84.9844L89.5078 82.7031H92.0859L89.2734 86.6328L92.3438 91H89.6484L87.9609 88.4297L86.2578 91H83.6875ZM93.0391 94.3672C93.4714 93.4401 93.776 92.7292 93.9531 92.2344C94.1302 91.7396 94.2943 91.1693 94.4453 90.5234C94.5964 89.8776 94.7083 89.2656 94.7812 88.6875C94.8542 88.1042 94.8906 87.5078 94.8906 86.8984C94.8906 85.6589 94.7578 84.487 94.4922 83.3828C94.2266 82.2734 93.737 80.9297 93.0234 79.3516H94.5156C95.3021 80.4714 95.9115 81.6589 96.3438 82.9141C96.7812 84.1693 97 85.4427 97 86.7344C97 87.8229 96.8281 88.9896 96.4844 90.2344C96.0938 91.6302 95.4505 93.0078 94.5547 94.3672H93.0391Z" fill="#3E3E3D"/>
<g opacity="0.5">
<path d="M0 109.5H579.5" stroke="#CDCCCB"/>
</g>
<rect width="579.5" height="48" transform="translate(0 110)" fill="white"/>
<path d="M17.1328 140V128.547H20.5938L22.6719 136.359L24.7266 128.547H28.1953V140H26.0469V130.984L23.7734 140H21.5469L19.2812 130.984V140H17.1328ZM35.2812 137.359L37.4688 137.727C37.1875 138.529 36.7422 139.141 36.1328 139.562C35.5286 139.979 34.7708 140.188 33.8594 140.188C32.4167 140.188 31.349 139.716 30.6562 138.773C30.1094 138.018 29.8359 137.065 29.8359 135.914C29.8359 134.539 30.1953 133.464 30.9141 132.688C31.6328 131.906 32.5417 131.516 33.6406 131.516C34.875 131.516 35.849 131.924 36.5625 132.742C37.276 133.555 37.6172 134.802 37.5859 136.484H32.0859C32.1016 137.135 32.2786 137.643 32.6172 138.008C32.9557 138.367 33.3776 138.547 33.8828 138.547C34.2266 138.547 34.5156 138.453 34.75 138.266C34.9844 138.078 35.1615 137.776 35.2812 137.359ZM35.4062 135.141C35.3906 134.505 35.2266 134.023 34.9141 133.695C34.6016 133.362 34.2214 133.195 33.7734 133.195C33.2943 133.195 32.8984 133.37 32.5859 133.719C32.2734 134.068 32.1198 134.542 32.125 135.141H35.4062ZM46.9922 140H44.9531V138.781C44.6146 139.255 44.2135 139.609 43.75 139.844C43.2917 140.073 42.8281 140.188 42.3594 140.188C41.4062 140.188 40.5885 139.805 39.9062 139.039C39.2292 138.268 38.8906 137.195 38.8906 135.82C38.8906 134.414 39.2214 133.346 39.8828 132.617C40.5443 131.883 41.3802 131.516 42.3906 131.516C43.3177 131.516 44.1198 131.901 44.7969 132.672V128.547H46.9922V140ZM41.1328 135.672C41.1328 136.557 41.2552 137.198 41.5 137.594C41.8542 138.167 42.349 138.453 42.9844 138.453C43.4896 138.453 43.9193 138.24 44.2734 137.812C44.6276 137.38 44.8047 136.737 44.8047 135.883C44.8047 134.93 44.6328 134.245 44.2891 133.828C43.9453 133.406 43.5052 133.195 42.9688 133.195C42.4479 133.195 42.0104 133.404 41.6562 133.82C41.3073 134.232 41.1328 134.849 41.1328 135.672ZM49.1641 130.578V128.547H51.3594V130.578H49.1641ZM49.1641 140V131.703H51.3594V140H49.1641ZM59.0781 140V138.758C58.776 139.201 58.3776 139.549 57.8828 139.805C57.3932 140.06 56.875 140.188 56.3281 140.188C55.7708 140.188 55.2708 140.065 54.8281 139.82C54.3854 139.576 54.0651 139.232 53.8672 138.789C53.6693 138.346 53.5703 137.734 53.5703 136.953V131.703H55.7656V135.516C55.7656 136.682 55.8047 137.398 55.8828 137.664C55.9661 137.924 56.1146 138.133 56.3281 138.289C56.5417 138.44 56.8125 138.516 57.1406 138.516C57.5156 138.516 57.8516 138.414 58.1484 138.211C58.4453 138.003 58.6484 137.747 58.7578 137.445C58.8672 137.138 58.9219 136.391 58.9219 135.203V131.703H61.1172V140H59.0781ZM63.2344 131.703H65.2578V132.836C65.9818 131.956 66.8438 131.516 67.8438 131.516C68.375 131.516 68.8359 131.625 69.2266 131.844C69.6172 132.062 69.9375 132.393 70.1875 132.836C70.5521 132.393 70.9453 132.062 71.3672 131.844C71.7891 131.625 72.2396 131.516 72.7188 131.516C73.3281 131.516 73.8438 131.641 74.2656 131.891C74.6875 132.135 75.0026 132.497 75.2109 132.977C75.362 133.331 75.4375 133.904 75.4375 134.695V140H73.2422V135.258C73.2422 134.435 73.1667 133.904 73.0156 133.664C72.8125 133.352 72.5 133.195 72.0781 133.195C71.7708 133.195 71.4818 133.289 71.2109 133.477C70.9401 133.664 70.7448 133.94 70.625 134.305C70.5052 134.664 70.4453 135.234 70.4453 136.016V140H68.25V135.453C68.25 134.646 68.2109 134.125 68.1328 133.891C68.0547 133.656 67.9323 133.482 67.7656 133.367C67.6042 133.253 67.3828 133.195 67.1016 133.195C66.763 133.195 66.4583 133.286 66.1875 133.469C65.9167 133.651 65.7214 133.914 65.6016 134.258C65.487 134.602 65.4297 135.172 65.4297 135.969V140H63.2344V131.703ZM85.7266 143.367H84.2188C83.4219 142.164 82.8151 140.914 82.3984 139.617C81.9818 138.32 81.7734 137.065 81.7734 135.852C81.7734 134.346 82.0312 132.922 82.5469 131.578C82.9948 130.411 83.5625 129.336 84.25 128.352H85.75C85.0365 129.93 84.5443 131.273 84.2734 132.383C84.0078 133.487 83.875 134.659 83.875 135.898C83.875 136.753 83.9531 137.628 84.1094 138.523C84.2708 139.419 84.4896 140.271 84.7656 141.078C84.9479 141.609 85.2682 142.372 85.7266 143.367ZM94.3594 137.961V140H86.6641C86.7474 139.229 86.9974 138.5 87.4141 137.812C87.8307 137.12 88.6536 136.203 89.8828 135.062C90.8724 134.141 91.4792 133.516 91.7031 133.188C92.0052 132.734 92.1562 132.286 92.1562 131.844C92.1562 131.354 92.0234 130.979 91.7578 130.719C91.4974 130.453 91.1354 130.32 90.6719 130.32C90.2135 130.32 89.849 130.458 89.5781 130.734C89.3073 131.01 89.151 131.469 89.1094 132.109L86.9219 131.891C87.0521 130.682 87.4609 129.815 88.1484 129.289C88.8359 128.763 89.6953 128.5 90.7266 128.5C91.8568 128.5 92.7448 128.805 93.3906 129.414C94.0365 130.023 94.3594 130.781 94.3594 131.688C94.3594 132.203 94.2656 132.695 94.0781 133.164C93.8958 133.628 93.6042 134.115 93.2031 134.625C92.9375 134.964 92.4583 135.451 91.7656 136.086C91.0729 136.721 90.6328 137.143 90.4453 137.352C90.263 137.56 90.1146 137.763 90 137.961H94.3594ZM96.2578 131.703H98.3047V132.922C98.5703 132.505 98.9297 132.167 99.3828 131.906C99.8359 131.646 100.339 131.516 100.891 131.516C101.854 131.516 102.672 131.893 103.344 132.648C104.016 133.404 104.352 134.456 104.352 135.805C104.352 137.19 104.013 138.268 103.336 139.039C102.659 139.805 101.839 140.188 100.875 140.188C100.417 140.188 100 140.096 99.625 139.914C99.2552 139.732 98.8646 139.419 98.4531 138.977V143.156H96.2578V131.703ZM98.4297 135.711C98.4297 136.643 98.6146 137.333 98.9844 137.781C99.3542 138.224 99.8047 138.445 100.336 138.445C100.846 138.445 101.271 138.242 101.609 137.836C101.948 137.424 102.117 136.753 102.117 135.82C102.117 134.951 101.943 134.305 101.594 133.883C101.245 133.461 100.812 133.25 100.297 133.25C99.7604 133.25 99.3151 133.458 98.9609 133.875C98.6068 134.286 98.4297 134.898 98.4297 135.711ZM105.047 140L108.039 135.727L105.172 131.703H107.852L109.32 133.984L110.867 131.703H113.445L110.633 135.633L113.703 140H111.008L109.32 137.43L107.617 140H105.047ZM114.398 143.367C114.831 142.44 115.135 141.729 115.312 141.234C115.49 140.74 115.654 140.169 115.805 139.523C115.956 138.878 116.068 138.266 116.141 137.688C116.214 137.104 116.25 136.508 116.25 135.898C116.25 134.659 116.117 133.487 115.852 132.383C115.586 131.273 115.096 129.93 114.383 128.352H115.875C116.661 129.471 117.271 130.659 117.703 131.914C118.141 133.169 118.359 134.443 118.359 135.734C118.359 136.823 118.188 137.99 117.844 139.234C117.453 140.63 116.81 142.008 115.914 143.367H114.398Z" fill="#3E3E3D"/>
<rect width="579.5" height="48" transform="translate(0 158)" fill="white"/>
<path d="M17.1719 176.547H21.75C22.6562 176.547 23.3307 176.586 23.7734 176.664C24.2214 176.737 24.6198 176.893 24.9688 177.133C25.3229 177.372 25.6172 177.693 25.8516 178.094C26.0859 178.49 26.2031 178.935 26.2031 179.43C26.2031 179.966 26.0573 180.458 25.7656 180.906C25.4792 181.354 25.0885 181.69 24.5938 181.914C25.2917 182.117 25.8281 182.464 26.2031 182.953C26.5781 183.443 26.7656 184.018 26.7656 184.68C26.7656 185.201 26.6432 185.708 26.3984 186.203C26.1589 186.693 25.8281 187.086 25.4062 187.383C24.9896 187.674 24.474 187.854 23.8594 187.922C23.474 187.964 22.5443 187.99 21.0703 188H17.1719V176.547ZM19.4844 178.453V181.102H21C21.901 181.102 22.4609 181.089 22.6797 181.062C23.0755 181.016 23.3854 180.88 23.6094 180.656C23.8385 180.427 23.9531 180.128 23.9531 179.758C23.9531 179.404 23.8542 179.117 23.6562 178.898C23.4635 178.674 23.1745 178.539 22.7891 178.492C22.5599 178.466 21.901 178.453 20.8125 178.453H19.4844ZM19.4844 183.008V186.07H21.625C22.4583 186.07 22.987 186.047 23.2109 186C23.5547 185.938 23.8333 185.786 24.0469 185.547C24.2656 185.302 24.375 184.977 24.375 184.57C24.375 184.227 24.2917 183.935 24.125 183.695C23.9583 183.456 23.7161 183.281 23.3984 183.172C23.0859 183.062 22.4036 183.008 21.3516 183.008H19.4844ZM28.2031 183.734C28.2031 183.005 28.3828 182.299 28.7422 181.617C29.1016 180.935 29.6094 180.414 30.2656 180.055C30.9271 179.695 31.6641 179.516 32.4766 179.516C33.7318 179.516 34.7604 179.924 35.5625 180.742C36.3646 181.555 36.7656 182.583 36.7656 183.828C36.7656 185.083 36.3594 186.125 35.5469 186.953C34.7396 187.776 33.7214 188.188 32.4922 188.188C31.7318 188.188 31.0052 188.016 30.3125 187.672C29.625 187.328 29.1016 186.826 28.7422 186.164C28.3828 185.497 28.2031 184.688 28.2031 183.734ZM30.4531 183.852C30.4531 184.674 30.6484 185.305 31.0391 185.742C31.4297 186.18 31.9115 186.398 32.4844 186.398C33.0573 186.398 33.5365 186.18 33.9219 185.742C34.3125 185.305 34.5078 184.669 34.5078 183.836C34.5078 183.023 34.3125 182.398 33.9219 181.961C33.5365 181.523 33.0573 181.305 32.4844 181.305C31.9115 181.305 31.4297 181.523 31.0391 181.961C30.6484 182.398 30.4531 183.029 30.4531 183.852ZM38.4922 188V176.547H40.6875V188H38.4922ZM50.5547 188H48.5156V186.781C48.1771 187.255 47.776 187.609 47.3125 187.844C46.8542 188.073 46.3906 188.188 45.9219 188.188C44.9688 188.188 44.151 187.805 43.4688 187.039C42.7917 186.268 42.4531 185.195 42.4531 183.82C42.4531 182.414 42.7839 181.346 43.4453 180.617C44.1068 179.883 44.9427 179.516 45.9531 179.516C46.8802 179.516 47.6823 179.901 48.3594 180.672V176.547H50.5547V188ZM44.6953 183.672C44.6953 184.557 44.8177 185.198 45.0625 185.594C45.4167 186.167 45.9115 186.453 46.5469 186.453C47.0521 186.453 47.4818 186.24 47.8359 185.812C48.1901 185.38 48.3672 184.737 48.3672 183.883C48.3672 182.93 48.1953 182.245 47.8516 181.828C47.5078 181.406 47.0677 181.195 46.5312 181.195C46.0104 181.195 45.5729 181.404 45.2188 181.82C44.8698 182.232 44.6953 182.849 44.6953 183.672ZM60.8203 191.367H59.3125C58.5156 190.164 57.9089 188.914 57.4922 187.617C57.0755 186.32 56.8672 185.065 56.8672 183.852C56.8672 182.346 57.125 180.922 57.6406 179.578C58.0885 178.411 58.6562 177.336 59.3438 176.352H60.8438C60.1302 177.93 59.638 179.273 59.3672 180.383C59.1016 181.487 58.9688 182.659 58.9688 183.898C58.9688 184.753 59.0469 185.628 59.2031 186.523C59.3646 187.419 59.5833 188.271 59.8594 189.078C60.0417 189.609 60.362 190.372 60.8203 191.367ZM66.3438 188V185.695H61.6562V183.773L66.625 176.5H68.4688V183.766H69.8906V185.695H68.4688V188H66.3438ZM66.3438 183.766V179.852L63.7109 183.766H66.3438ZM71.3516 179.703H73.3984V180.922C73.6641 180.505 74.0234 180.167 74.4766 179.906C74.9297 179.646 75.4323 179.516 75.9844 179.516C76.9479 179.516 77.7656 179.893 78.4375 180.648C79.1094 181.404 79.4453 182.456 79.4453 183.805C79.4453 185.19 79.1068 186.268 78.4297 187.039C77.7526 187.805 76.9323 188.188 75.9688 188.188C75.5104 188.188 75.0938 188.096 74.7188 187.914C74.349 187.732 73.9583 187.419 73.5469 186.977V191.156H71.3516V179.703ZM73.5234 183.711C73.5234 184.643 73.7083 185.333 74.0781 185.781C74.4479 186.224 74.8984 186.445 75.4297 186.445C75.9401 186.445 76.3646 186.242 76.7031 185.836C77.0417 185.424 77.2109 184.753 77.2109 183.82C77.2109 182.951 77.0365 182.305 76.6875 181.883C76.3385 181.461 75.9062 181.25 75.3906 181.25C74.8542 181.25 74.4089 181.458 74.0547 181.875C73.7005 182.286 73.5234 182.898 73.5234 183.711ZM80.1406 188L83.1328 183.727L80.2656 179.703H82.9453L84.4141 181.984L85.9609 179.703H88.5391L85.7266 183.633L88.7969 188H86.1016L84.4141 185.43L82.7109 188H80.1406ZM89.4922 191.367C89.9245 190.44 90.2292 189.729 90.4062 189.234C90.5833 188.74 90.7474 188.169 90.8984 187.523C91.0495 186.878 91.1615 186.266 91.2344 185.688C91.3073 185.104 91.3438 184.508 91.3438 183.898C91.3438 182.659 91.2109 181.487 90.9453 180.383C90.6797 179.273 90.1901 177.93 89.4766 176.352H90.9688C91.7552 177.471 92.3646 178.659 92.7969 179.914C93.2344 181.169 93.4531 182.443 93.4531 183.734C93.4531 184.823 93.2812 185.99 92.9375 187.234C92.5469 188.63 91.9036 190.008 91.0078 191.367H89.4922Z" fill="#3E3E3D"/>
<rect width="579.5" height="61" transform="translate(579.5)" fill="white"/>
<path d="M598.18 37.14C597.847 37.14 597.587 37.0467 597.4 36.86C597.227 36.6733 597.14 36.4133 597.14 36.08V23.96C597.14 23.6133 597.233 23.3533 597.42 23.18C597.607 22.9933 597.867 22.9 598.2 22.9H602.98C604.5 22.9 605.673 23.28 606.5 24.04C607.327 24.7867 607.74 25.84 607.74 27.2C607.74 28.5733 607.327 29.64 606.5 30.4C605.673 31.1467 604.5 31.52 602.98 31.52H599.22V36.08C599.22 36.4133 599.133 36.6733 598.96 36.86C598.787 37.0467 598.527 37.14 598.18 37.14ZM599.22 29.86H602.68C603.68 29.86 604.433 29.64 604.94 29.2C605.46 28.7467 605.72 28.08 605.72 27.2C605.72 26.3333 605.46 25.68 604.94 25.24C604.433 24.7867 603.68 24.56 602.68 24.56H599.22V29.86ZM612.595 37.18C611.809 37.18 611.149 37.0333 610.615 36.74C610.095 36.4467 609.702 36.0133 609.435 35.44C609.182 34.8533 609.055 34.12 609.055 33.24V28.12C609.055 27.7733 609.142 27.52 609.315 27.36C609.489 27.1867 609.735 27.1 610.055 27.1C610.375 27.1 610.622 27.1867 610.795 27.36C610.982 27.52 611.075 27.7733 611.075 28.12V33.26C611.075 34.0467 611.235 34.6267 611.555 35C611.875 35.3733 612.382 35.56 613.075 35.56C613.835 35.56 614.449 35.3067 614.915 34.8C615.395 34.28 615.635 33.6 615.635 32.76V28.12C615.635 27.7733 615.722 27.52 615.895 27.36C616.069 27.1867 616.322 27.1 616.655 27.1C616.975 27.1 617.222 27.1867 617.395 27.36C617.569 27.52 617.655 27.7733 617.655 28.12V36.12C617.655 36.8 617.329 37.14 616.675 37.14C616.369 37.14 616.129 37.0533 615.955 36.88C615.782 36.6933 615.695 36.44 615.695 36.12V34.42L615.955 34.86C615.689 35.6067 615.262 36.18 614.675 36.58C614.089 36.98 613.395 37.18 612.595 37.18ZM621.022 37.14C620.689 37.14 620.435 37.0533 620.262 36.88C620.089 36.6933 620.002 36.44 620.002 36.12V28.12C620.002 27.7867 620.089 27.5333 620.262 27.36C620.435 27.1867 620.675 27.1 620.982 27.1C621.302 27.1 621.542 27.1867 621.702 27.36C621.875 27.5333 621.962 27.7867 621.962 28.12V29.58H621.762C621.975 28.78 622.369 28.1733 622.942 27.76C623.515 27.3467 624.249 27.1067 625.142 27.04C625.382 27.0267 625.569 27.0867 625.702 27.22C625.849 27.3533 625.929 27.56 625.942 27.84C625.969 28.12 625.909 28.3467 625.762 28.52C625.615 28.68 625.389 28.7733 625.082 28.8L624.702 28.84C623.835 28.92 623.175 29.1933 622.722 29.66C622.269 30.1267 622.042 30.7667 622.042 31.58V36.12C622.042 36.44 621.955 36.6933 621.782 36.88C621.622 37.0533 621.369 37.14 621.022 37.14ZM627.963 40.74C627.643 40.74 627.396 40.6533 627.223 40.48C627.05 40.3067 626.963 40.0533 626.963 39.72V28.12C626.963 27.7867 627.05 27.5333 627.223 27.36C627.396 27.1867 627.636 27.1 627.943 27.1C628.263 27.1 628.51 27.1867 628.683 27.36C628.856 27.5333 628.943 27.7867 628.943 28.12V29.86L628.723 29.44C628.936 28.72 629.356 28.1467 629.983 27.72C630.61 27.28 631.35 27.06 632.203 27.06C633.07 27.06 633.823 27.2667 634.463 27.68C635.116 28.0933 635.616 28.6733 635.963 29.42C636.323 30.1667 636.503 31.0667 636.503 32.12C636.503 33.1467 636.323 34.0467 635.963 34.82C635.616 35.58 635.123 36.1667 634.483 36.58C633.843 36.98 633.083 37.18 632.203 37.18C631.363 37.18 630.63 36.9667 630.003 36.54C629.376 36.1133 628.956 35.5467 628.743 34.84H628.983V39.72C628.983 40.0533 628.89 40.3067 628.703 40.48C628.53 40.6533 628.283 40.74 627.963 40.74ZM631.703 35.62C632.263 35.62 632.75 35.4867 633.163 35.22C633.576 34.9533 633.896 34.56 634.123 34.04C634.35 33.52 634.463 32.88 634.463 32.12C634.463 30.9733 634.21 30.1067 633.703 29.52C633.21 28.9333 632.543 28.64 631.703 28.64C631.156 28.64 630.67 28.7733 630.243 29.04C629.83 29.2933 629.51 29.68 629.283 30.2C629.056 30.72 628.943 31.36 628.943 32.12C628.943 33.2533 629.196 34.12 629.703 34.72C630.21 35.32 630.876 35.62 631.703 35.62ZM642.519 37.18C641.533 37.18 640.679 36.9733 639.959 36.56C639.253 36.1467 638.699 35.56 638.299 34.8C637.899 34.04 637.699 33.1467 637.699 32.12C637.699 31.3333 637.813 30.6333 638.039 30.02C638.266 29.4067 638.586 28.88 638.999 28.44C639.426 27.9867 639.933 27.6467 640.519 27.42C641.119 27.18 641.786 27.06 642.519 27.06C643.493 27.06 644.333 27.2667 645.039 27.68C645.759 28.0933 646.319 28.68 646.719 29.44C647.119 30.1867 647.319 31.08 647.319 32.12C647.319 32.8933 647.206 33.5933 646.979 34.22C646.753 34.8467 646.426 35.38 645.999 35.82C645.586 36.26 645.079 36.6 644.479 36.84C643.893 37.0667 643.239 37.18 642.519 37.18ZM642.519 35.62C643.066 35.62 643.546 35.4867 643.959 35.22C644.373 34.9533 644.693 34.56 644.919 34.04C645.159 33.52 645.279 32.88 645.279 32.12C645.279 30.9733 645.026 30.1067 644.519 29.52C644.013 28.9333 643.346 28.64 642.519 28.64C641.959 28.64 641.473 28.7733 641.059 29.04C640.646 29.2933 640.319 29.68 640.079 30.2C639.853 30.72 639.739 31.36 639.739 32.12C639.739 33.2533 639.993 34.12 640.499 34.72C641.006 35.32 641.679 35.62 642.519 35.62ZM652.508 37.18C651.921 37.18 651.315 37.1133 650.688 36.98C650.075 36.8467 649.508 36.62 648.988 36.3C648.815 36.18 648.695 36.0467 648.628 35.9C648.561 35.7533 648.535 35.6067 648.548 35.46C648.575 35.3 648.635 35.1667 648.728 35.06C648.835 34.94 648.961 34.8667 649.108 34.84C649.268 34.8133 649.435 34.8467 649.608 34.94C650.128 35.2333 650.628 35.44 651.108 35.56C651.588 35.6667 652.061 35.72 652.528 35.72C653.235 35.72 653.768 35.5933 654.128 35.34C654.488 35.0867 654.668 34.7467 654.668 34.32C654.668 33.9733 654.548 33.7067 654.308 33.52C654.068 33.32 653.708 33.1667 653.228 33.06L651.328 32.68C650.501 32.5067 649.875 32.2 649.448 31.76C649.021 31.32 648.808 30.76 648.808 30.08C648.808 29.4667 648.975 28.9333 649.308 28.48C649.641 28.0267 650.108 27.68 650.708 27.44C651.308 27.1867 652.001 27.06 652.788 27.06C653.375 27.06 653.928 27.1333 654.448 27.28C654.968 27.4267 655.448 27.6467 655.888 27.94C656.061 28.0333 656.175 28.16 656.228 28.32C656.281 28.4667 656.288 28.6133 656.248 28.76C656.221 28.9067 656.155 29.04 656.048 29.16C655.941 29.2667 655.808 29.3333 655.648 29.36C655.501 29.3733 655.335 29.3333 655.148 29.24C654.748 28.9867 654.348 28.8067 653.948 28.7C653.561 28.5933 653.175 28.54 652.788 28.54C652.081 28.54 651.548 28.6733 651.188 28.94C650.841 29.1933 650.668 29.54 650.668 29.98C650.668 30.3133 650.775 30.5867 650.988 30.8C651.201 31.0133 651.535 31.1667 651.988 31.26L653.888 31.64C654.755 31.8133 655.408 32.1067 655.848 32.52C656.301 32.9333 656.528 33.4933 656.528 34.2C656.528 35.12 656.161 35.8467 655.428 36.38C654.695 36.9133 653.721 37.18 652.508 37.18ZM662.855 37.18C661.789 37.18 660.869 36.98 660.095 36.58C659.335 36.1667 658.742 35.5867 658.315 34.84C657.902 34.08 657.695 33.18 657.695 32.14C657.695 31.1267 657.902 30.24 658.315 29.48C658.729 28.72 659.295 28.1267 660.015 27.7C660.735 27.2733 661.555 27.06 662.475 27.06C663.155 27.06 663.762 27.1733 664.295 27.4C664.829 27.6133 665.282 27.9333 665.655 28.36C666.042 28.7733 666.329 29.28 666.515 29.88C666.715 30.48 666.815 31.1533 666.815 31.9C666.815 32.1267 666.749 32.3 666.615 32.42C666.482 32.5267 666.282 32.58 666.015 32.58H659.295V31.34H665.455L665.115 31.62C665.115 30.9533 665.015 30.3867 664.815 29.92C664.629 29.4533 664.342 29.1 663.955 28.86C663.582 28.6067 663.115 28.48 662.555 28.48C661.929 28.48 661.395 28.6267 660.955 28.92C660.529 29.2133 660.202 29.62 659.975 30.14C659.749 30.66 659.635 31.2667 659.635 31.96V32.08C659.635 33.2533 659.909 34.14 660.455 34.74C661.015 35.3267 661.822 35.62 662.875 35.62C663.275 35.62 663.695 35.5667 664.135 35.46C664.589 35.3533 665.015 35.1733 665.415 34.92C665.642 34.7867 665.842 34.7267 666.015 34.74C666.202 34.7533 666.349 34.8133 666.455 34.92C666.575 35.0267 666.649 35.16 666.675 35.32C666.702 35.48 666.675 35.6467 666.595 35.82C666.515 35.98 666.375 36.1267 666.175 36.26C665.722 36.5667 665.195 36.8 664.595 36.96C663.995 37.1067 663.415 37.18 662.855 37.18Z" fill="#201F1F"/>
<path d="M579.5 60.5H1159" stroke="#CDCCCB"/>
<rect width="579.5" height="49" transform="translate(579.5 61)" fill="white"/>
<path d="M596.734 91V79.5469H601.055C601.815 79.5469 602.396 79.5833 602.797 79.6562C603.359 79.75 603.831 79.9297 604.211 80.1953C604.591 80.4557 604.896 80.8229 605.125 81.2969C605.359 81.7708 605.477 82.2917 605.477 82.8594C605.477 83.8333 605.167 84.6589 604.547 85.3359C603.927 86.0078 602.807 86.3438 601.188 86.3438H598.25V91H596.734ZM598.25 84.9922H601.211C602.19 84.9922 602.885 84.8099 603.297 84.4453C603.708 84.0807 603.914 83.5677 603.914 82.9062C603.914 82.4271 603.792 82.0182 603.547 81.6797C603.307 81.3359 602.99 81.1094 602.594 81C602.339 80.9323 601.867 80.8984 601.18 80.8984H598.25V84.9922ZM612.641 89.9766C612.12 90.4193 611.617 90.7318 611.133 90.9141C610.654 91.0964 610.138 91.1875 609.586 91.1875C608.674 91.1875 607.974 90.9661 607.484 90.5234C606.995 90.0755 606.75 89.5052 606.75 88.8125C606.75 88.4062 606.841 88.0365 607.023 87.7031C607.211 87.3646 607.453 87.0938 607.75 86.8906C608.052 86.6875 608.391 86.5339 608.766 86.4297C609.042 86.3568 609.458 86.2865 610.016 86.2188C611.151 86.0833 611.987 85.9219 612.523 85.7344C612.529 85.5417 612.531 85.4193 612.531 85.3672C612.531 84.7943 612.398 84.3906 612.133 84.1562C611.773 83.8385 611.24 83.6797 610.531 83.6797C609.87 83.6797 609.38 83.7969 609.062 84.0312C608.75 84.2604 608.518 84.6693 608.367 85.2578L606.992 85.0703C607.117 84.4818 607.323 84.0078 607.609 83.6484C607.896 83.2839 608.31 83.0052 608.852 82.8125C609.393 82.6146 610.021 82.5156 610.734 82.5156C611.443 82.5156 612.018 82.599 612.461 82.7656C612.904 82.9323 613.229 83.1432 613.438 83.3984C613.646 83.6484 613.792 83.9661 613.875 84.3516C613.922 84.5911 613.945 85.0234 613.945 85.6484V87.5234C613.945 88.8307 613.974 89.6589 614.031 90.0078C614.094 90.3516 614.214 90.6823 614.391 91H612.922C612.776 90.7083 612.682 90.3672 612.641 89.9766ZM612.523 86.8359C612.013 87.0443 611.247 87.2214 610.227 87.3672C609.648 87.4505 609.24 87.5443 609 87.6484C608.76 87.7526 608.576 87.9062 608.445 88.1094C608.315 88.3073 608.25 88.5286 608.25 88.7734C608.25 89.1484 608.391 89.4609 608.672 89.7109C608.958 89.9609 609.375 90.0859 609.922 90.0859C610.464 90.0859 610.945 89.9688 611.367 89.7344C611.789 89.4948 612.099 89.1693 612.297 88.7578C612.448 88.4401 612.523 87.9714 612.523 87.3516V86.8359ZM616.117 91V82.7031H617.383V83.9609C617.706 83.3724 618.003 82.9844 618.273 82.7969C618.549 82.6094 618.852 82.5156 619.18 82.5156C619.654 82.5156 620.135 82.6667 620.625 82.9688L620.141 84.2734C619.797 84.0703 619.453 83.9688 619.109 83.9688C618.802 83.9688 618.526 84.0625 618.281 84.25C618.036 84.4323 617.862 84.6875 617.758 85.0156C617.602 85.5156 617.523 86.0625 617.523 86.6562V91H616.117ZM631.297 91V89.9531C630.771 90.776 629.997 91.1875 628.977 91.1875C628.315 91.1875 627.706 91.0052 627.148 90.6406C626.596 90.276 626.167 89.7682 625.859 89.1172C625.557 88.4609 625.406 87.7083 625.406 86.8594C625.406 86.0312 625.544 85.2812 625.82 84.6094C626.096 83.9323 626.51 83.4141 627.062 83.0547C627.615 82.6953 628.232 82.5156 628.914 82.5156C629.414 82.5156 629.859 82.6224 630.25 82.8359C630.641 83.0443 630.958 83.3177 631.203 83.6562V79.5469H632.602V91H631.297ZM626.852 86.8594C626.852 87.9219 627.076 88.7161 627.523 89.2422C627.971 89.7682 628.5 90.0312 629.109 90.0312C629.724 90.0312 630.245 89.7812 630.672 89.2812C631.104 88.776 631.32 88.0078 631.32 86.9766C631.32 85.8411 631.102 85.0078 630.664 84.4766C630.227 83.9453 629.688 83.6797 629.047 83.6797C628.422 83.6797 627.898 83.9349 627.477 84.4453C627.06 84.9557 626.852 85.7604 626.852 86.8594ZM640.5 88.3281L641.953 88.5078C641.724 89.3568 641.299 90.0156 640.68 90.4844C640.06 90.9531 639.268 91.1875 638.305 91.1875C637.091 91.1875 636.128 90.8151 635.414 90.0703C634.706 89.3203 634.352 88.2708 634.352 86.9219C634.352 85.526 634.711 84.4427 635.43 83.6719C636.148 82.901 637.081 82.5156 638.227 82.5156C639.336 82.5156 640.242 82.8932 640.945 83.6484C641.648 84.4036 642 85.4661 642 86.8359C642 86.9193 641.997 87.0443 641.992 87.2109H635.805C635.857 88.1224 636.115 88.8203 636.578 89.3047C637.042 89.7891 637.62 90.0312 638.312 90.0312C638.828 90.0312 639.268 89.8958 639.633 89.625C639.997 89.3542 640.286 88.9219 640.5 88.3281ZM635.883 86.0547H640.516C640.453 85.3568 640.276 84.8333 639.984 84.4844C639.536 83.9427 638.956 83.6719 638.242 83.6719C637.596 83.6719 637.052 83.888 636.609 84.3203C636.172 84.7526 635.93 85.3307 635.883 86.0547ZM637.398 81.6719L638.438 79.4844H640.281L638.562 81.6719H637.398ZM644.062 91V83.7969H642.82V82.7031H644.062V81.8203C644.062 81.263 644.112 80.849 644.211 80.5781C644.346 80.2135 644.583 79.9193 644.922 79.6953C645.266 79.4661 645.745 79.3516 646.359 79.3516C646.755 79.3516 647.193 79.3984 647.672 79.4922L647.461 80.7188C647.169 80.6667 646.893 80.6406 646.633 80.6406C646.206 80.6406 645.904 80.7318 645.727 80.9141C645.549 81.0964 645.461 81.4375 645.461 81.9375V82.7031H647.078V83.7969H645.461V91H644.062ZM653.594 89.9766C653.073 90.4193 652.57 90.7318 652.086 90.9141C651.607 91.0964 651.091 91.1875 650.539 91.1875C649.628 91.1875 648.927 90.9661 648.438 90.5234C647.948 90.0755 647.703 89.5052 647.703 88.8125C647.703 88.4062 647.794 88.0365 647.977 87.7031C648.164 87.3646 648.406 87.0938 648.703 86.8906C649.005 86.6875 649.344 86.5339 649.719 86.4297C649.995 86.3568 650.411 86.2865 650.969 86.2188C652.104 86.0833 652.94 85.9219 653.477 85.7344C653.482 85.5417 653.484 85.4193 653.484 85.3672C653.484 84.7943 653.352 84.3906 653.086 84.1562C652.727 83.8385 652.193 83.6797 651.484 83.6797C650.823 83.6797 650.333 83.7969 650.016 84.0312C649.703 84.2604 649.471 84.6693 649.32 85.2578L647.945 85.0703C648.07 84.4818 648.276 84.0078 648.562 83.6484C648.849 83.2839 649.263 83.0052 649.805 82.8125C650.346 82.6146 650.974 82.5156 651.688 82.5156C652.396 82.5156 652.971 82.599 653.414 82.7656C653.857 82.9323 654.182 83.1432 654.391 83.3984C654.599 83.6484 654.745 83.9661 654.828 84.3516C654.875 84.5911 654.898 85.0234 654.898 85.6484V87.5234C654.898 88.8307 654.927 89.6589 654.984 90.0078C655.047 90.3516 655.167 90.6823 655.344 91H653.875C653.729 90.7083 653.635 90.3672 653.594 89.9766ZM653.477 86.8359C652.966 87.0443 652.201 87.2214 651.18 87.3672C650.602 87.4505 650.193 87.5443 649.953 87.6484C649.714 87.7526 649.529 87.9062 649.398 88.1094C649.268 88.3073 649.203 88.5286 649.203 88.7734C649.203 89.1484 649.344 89.4609 649.625 89.7109C649.911 89.9609 650.328 90.0859 650.875 90.0859C651.417 90.0859 651.898 89.9688 652.32 89.7344C652.742 89.4948 653.052 89.1693 653.25 88.7578C653.401 88.4401 653.477 87.9714 653.477 87.3516V86.8359ZM662.523 91V89.7812C661.878 90.7188 661 91.1875 659.891 91.1875C659.401 91.1875 658.943 91.0938 658.516 90.9062C658.094 90.7188 657.779 90.4844 657.57 90.2031C657.367 89.9167 657.224 89.5677 657.141 89.1562C657.083 88.8802 657.055 88.4427 657.055 87.8438V82.7031H658.461V87.3047C658.461 88.0391 658.49 88.5339 658.547 88.7891C658.635 89.1589 658.823 89.4505 659.109 89.6641C659.396 89.8724 659.75 89.9766 660.172 89.9766C660.594 89.9766 660.99 89.8698 661.359 89.6562C661.729 89.4375 661.99 89.1432 662.141 88.7734C662.297 88.3984 662.375 87.8568 662.375 87.1484V82.7031H663.781V91H662.523ZM669.062 89.7422L669.266 90.9844C668.87 91.0677 668.516 91.1094 668.203 91.1094C667.693 91.1094 667.297 91.0286 667.016 90.8672C666.734 90.7057 666.536 90.4948 666.422 90.2344C666.307 89.9688 666.25 89.4141 666.25 88.5703V83.7969H665.219V82.7031H666.25V80.6484L667.648 79.8047V82.7031H669.062V83.7969H667.648V88.6484C667.648 89.0495 667.672 89.3073 667.719 89.4219C667.771 89.5365 667.852 89.6276 667.961 89.6953C668.076 89.763 668.237 89.7969 668.445 89.7969C668.602 89.7969 668.807 89.7786 669.062 89.7422ZM670.812 91V89.3984H672.414V91C672.414 91.5885 672.31 92.0625 672.102 92.4219C671.893 92.7865 671.562 93.0677 671.109 93.2656L670.719 92.6641C671.016 92.5339 671.234 92.3411 671.375 92.0859C671.516 91.8359 671.594 91.474 671.609 91H670.812ZM684.734 91V89.9531C684.208 90.776 683.435 91.1875 682.414 91.1875C681.753 91.1875 681.143 91.0052 680.586 90.6406C680.034 90.276 679.604 89.7682 679.297 89.1172C678.995 88.4609 678.844 87.7083 678.844 86.8594C678.844 86.0312 678.982 85.2812 679.258 84.6094C679.534 83.9323 679.948 83.4141 680.5 83.0547C681.052 82.6953 681.669 82.5156 682.352 82.5156C682.852 82.5156 683.297 82.6224 683.688 82.8359C684.078 83.0443 684.396 83.3177 684.641 83.6562V79.5469H686.039V91H684.734ZM680.289 86.8594C680.289 87.9219 680.513 88.7161 680.961 89.2422C681.409 89.7682 681.938 90.0312 682.547 90.0312C683.161 90.0312 683.682 89.7812 684.109 89.2812C684.542 88.776 684.758 88.0078 684.758 86.9766C684.758 85.8411 684.539 85.0078 684.102 84.4766C683.664 83.9453 683.125 83.6797 682.484 83.6797C681.859 83.6797 681.336 83.9349 680.914 84.4453C680.497 84.9557 680.289 85.7604 680.289 86.8594ZM688.266 81.1641V79.5469H689.672V81.1641H688.266ZM688.266 91V82.7031H689.672V91H688.266ZM691.258 88.5234L692.648 88.3047C692.727 88.862 692.943 89.2891 693.297 89.5859C693.656 89.8828 694.156 90.0312 694.797 90.0312C695.443 90.0312 695.922 89.901 696.234 89.6406C696.547 89.375 696.703 89.0651 696.703 88.7109C696.703 88.3932 696.565 88.1432 696.289 87.9609C696.096 87.8359 695.617 87.6771 694.852 87.4844C693.82 87.224 693.104 87 692.703 86.8125C692.307 86.6198 692.005 86.3568 691.797 86.0234C691.594 85.6849 691.492 85.3125 691.492 84.9062C691.492 84.5365 691.576 84.1953 691.742 83.8828C691.914 83.5651 692.146 83.3021 692.438 83.0938C692.656 82.9323 692.953 82.7969 693.328 82.6875C693.708 82.5729 694.115 82.5156 694.547 82.5156C695.198 82.5156 695.768 82.6094 696.258 82.7969C696.753 82.9844 697.117 83.2396 697.352 83.5625C697.586 83.8802 697.747 84.3073 697.836 84.8438L696.461 85.0312C696.398 84.6042 696.216 84.2708 695.914 84.0312C695.617 83.7917 695.195 83.6719 694.648 83.6719C694.003 83.6719 693.542 83.7786 693.266 83.9922C692.99 84.2057 692.852 84.4557 692.852 84.7422C692.852 84.9245 692.909 85.0885 693.023 85.2344C693.138 85.3854 693.318 85.5104 693.562 85.6094C693.703 85.6615 694.117 85.7812 694.805 85.9688C695.799 86.2344 696.492 86.4531 696.883 86.625C697.279 86.7917 697.589 87.0365 697.812 87.3594C698.036 87.6823 698.148 88.0833 698.148 88.5625C698.148 89.0312 698.01 89.474 697.734 89.8906C697.464 90.3021 697.07 90.6224 696.555 90.8516C696.039 91.0755 695.456 91.1875 694.805 91.1875C693.727 91.1875 692.904 90.9635 692.336 90.5156C691.773 90.0677 691.414 89.4036 691.258 88.5234ZM705.234 87.9609L706.617 88.1406C706.466 89.0938 706.078 89.8411 705.453 90.3828C704.833 90.9193 704.07 91.1875 703.164 91.1875C702.029 91.1875 701.115 90.8177 700.422 90.0781C699.734 89.3333 699.391 88.2682 699.391 86.8828C699.391 85.987 699.539 85.2031 699.836 84.5312C700.133 83.8594 700.583 83.3568 701.188 83.0234C701.797 82.6849 702.458 82.5156 703.172 82.5156C704.073 82.5156 704.81 82.7448 705.383 83.2031C705.956 83.6562 706.323 84.3021 706.484 85.1406L705.117 85.3516C704.987 84.7943 704.755 84.375 704.422 84.0938C704.094 83.8125 703.695 83.6719 703.227 83.6719C702.518 83.6719 701.943 83.9271 701.5 84.4375C701.057 84.9427 700.836 85.7448 700.836 86.8438C700.836 87.9583 701.049 88.7682 701.477 89.2734C701.904 89.7786 702.461 90.0312 703.148 90.0312C703.701 90.0312 704.161 89.862 704.531 89.5234C704.901 89.1849 705.135 88.6641 705.234 87.9609ZM707.805 91V82.7031H709.07V83.9609C709.393 83.3724 709.69 82.9844 709.961 82.7969C710.237 82.6094 710.539 82.5156 710.867 82.5156C711.341 82.5156 711.823 82.6667 712.312 82.9688L711.828 84.2734C711.484 84.0703 711.141 83.9688 710.797 83.9688C710.49 83.9688 710.214 84.0625 709.969 84.25C709.724 84.4323 709.549 84.6875 709.445 85.0156C709.289 85.5156 709.211 86.0625 709.211 86.6562V91H707.805ZM718.828 88.3281L720.281 88.5078C720.052 89.3568 719.628 90.0156 719.008 90.4844C718.388 90.9531 717.596 91.1875 716.633 91.1875C715.419 91.1875 714.456 90.8151 713.742 90.0703C713.034 89.3203 712.68 88.2708 712.68 86.9219C712.68 85.526 713.039 84.4427 713.758 83.6719C714.477 82.901 715.409 82.5156 716.555 82.5156C717.664 82.5156 718.57 82.8932 719.273 83.6484C719.977 84.4036 720.328 85.4661 720.328 86.8359C720.328 86.9193 720.326 87.0443 720.32 87.2109H714.133C714.185 88.1224 714.443 88.8203 714.906 89.3047C715.37 89.7891 715.948 90.0312 716.641 90.0312C717.156 90.0312 717.596 89.8958 717.961 89.625C718.326 89.3542 718.615 88.9219 718.828 88.3281ZM714.211 86.0547H718.844C718.781 85.3568 718.604 84.8333 718.312 84.4844C717.865 83.9427 717.284 83.6719 716.57 83.6719C715.924 83.6719 715.38 83.888 714.938 84.3203C714.5 84.7526 714.258 85.3307 714.211 86.0547ZM725.125 89.7422L725.328 90.9844C724.932 91.0677 724.578 91.1094 724.266 91.1094C723.755 91.1094 723.359 91.0286 723.078 90.8672C722.797 90.7057 722.599 90.4948 722.484 90.2344C722.37 89.9688 722.312 89.4141 722.312 88.5703V83.7969H721.281V82.7031H722.312V80.6484L723.711 79.8047V82.7031H725.125V83.7969H723.711V88.6484C723.711 89.0495 723.734 89.3073 723.781 89.4219C723.833 89.5365 723.914 89.6276 724.023 89.6953C724.138 89.763 724.299 89.7969 724.508 89.7969C724.664 89.7969 724.87 89.7786 725.125 89.7422Z" fill="#3E3E3D"/>
<g opacity="0.5">
<path d="M579.5 109.5H1159" stroke="#CDCCCB"/>
</g>
<rect width="579.5" height="48" transform="translate(579.5 110)" fill="white"/>
<path d="M596.734 140V128.547H601.055C601.815 128.547 602.396 128.583 602.797 128.656C603.359 128.75 603.831 128.93 604.211 129.195C604.591 129.456 604.896 129.823 605.125 130.297C605.359 130.771 605.477 131.292 605.477 131.859C605.477 132.833 605.167 133.659 604.547 134.336C603.927 135.008 602.807 135.344 601.188 135.344H598.25V140H596.734ZM598.25 133.992H601.211C602.19 133.992 602.885 133.81 603.297 133.445C603.708 133.081 603.914 132.568 603.914 131.906C603.914 131.427 603.792 131.018 603.547 130.68C603.307 130.336 602.99 130.109 602.594 130C602.339 129.932 601.867 129.898 601.18 129.898H598.25V133.992ZM606.703 135.852C606.703 134.315 607.13 133.177 607.984 132.438C608.698 131.823 609.568 131.516 610.594 131.516C611.734 131.516 612.667 131.891 613.391 132.641C614.115 133.385 614.477 134.417 614.477 135.734C614.477 136.802 614.315 137.643 613.992 138.258C613.674 138.867 613.208 139.341 612.594 139.68C611.984 140.018 611.318 140.188 610.594 140.188C609.432 140.188 608.492 139.815 607.773 139.07C607.06 138.326 606.703 137.253 606.703 135.852ZM608.148 135.852C608.148 136.914 608.38 137.711 608.844 138.242C609.307 138.768 609.891 139.031 610.594 139.031C611.292 139.031 611.872 138.766 612.336 138.234C612.799 137.703 613.031 136.893 613.031 135.805C613.031 134.779 612.797 134.003 612.328 133.477C611.865 132.945 611.286 132.68 610.594 132.68C609.891 132.68 609.307 132.943 608.844 133.469C608.38 133.995 608.148 134.789 608.148 135.852ZM621.57 140V138.781C620.924 139.719 620.047 140.188 618.938 140.188C618.448 140.188 617.99 140.094 617.562 139.906C617.141 139.719 616.826 139.484 616.617 139.203C616.414 138.917 616.271 138.568 616.188 138.156C616.13 137.88 616.102 137.443 616.102 136.844V131.703H617.508V136.305C617.508 137.039 617.536 137.534 617.594 137.789C617.682 138.159 617.87 138.451 618.156 138.664C618.443 138.872 618.797 138.977 619.219 138.977C619.641 138.977 620.036 138.87 620.406 138.656C620.776 138.438 621.036 138.143 621.188 137.773C621.344 137.398 621.422 136.857 621.422 136.148V131.703H622.828V140H621.57ZM625.023 140V131.703H626.289V132.961C626.612 132.372 626.909 131.984 627.18 131.797C627.456 131.609 627.758 131.516 628.086 131.516C628.56 131.516 629.042 131.667 629.531 131.969L629.047 133.273C628.703 133.07 628.359 132.969 628.016 132.969C627.708 132.969 627.432 133.062 627.188 133.25C626.943 133.432 626.768 133.688 626.664 134.016C626.508 134.516 626.43 135.062 626.43 135.656V140H625.023ZM634.258 137.523L635.648 137.305C635.727 137.862 635.943 138.289 636.297 138.586C636.656 138.883 637.156 139.031 637.797 139.031C638.443 139.031 638.922 138.901 639.234 138.641C639.547 138.375 639.703 138.065 639.703 137.711C639.703 137.393 639.565 137.143 639.289 136.961C639.096 136.836 638.617 136.677 637.852 136.484C636.82 136.224 636.104 136 635.703 135.812C635.307 135.62 635.005 135.357 634.797 135.023C634.594 134.685 634.492 134.312 634.492 133.906C634.492 133.536 634.576 133.195 634.742 132.883C634.914 132.565 635.146 132.302 635.438 132.094C635.656 131.932 635.953 131.797 636.328 131.688C636.708 131.573 637.115 131.516 637.547 131.516C638.198 131.516 638.768 131.609 639.258 131.797C639.753 131.984 640.117 132.24 640.352 132.562C640.586 132.88 640.747 133.307 640.836 133.844L639.461 134.031C639.398 133.604 639.216 133.271 638.914 133.031C638.617 132.792 638.195 132.672 637.648 132.672C637.003 132.672 636.542 132.779 636.266 132.992C635.99 133.206 635.852 133.456 635.852 133.742C635.852 133.924 635.909 134.089 636.023 134.234C636.138 134.385 636.318 134.51 636.562 134.609C636.703 134.661 637.117 134.781 637.805 134.969C638.799 135.234 639.492 135.453 639.883 135.625C640.279 135.792 640.589 136.036 640.812 136.359C641.036 136.682 641.148 137.083 641.148 137.562C641.148 138.031 641.01 138.474 640.734 138.891C640.464 139.302 640.07 139.622 639.555 139.852C639.039 140.076 638.456 140.188 637.805 140.188C636.727 140.188 635.904 139.964 635.336 139.516C634.773 139.068 634.414 138.404 634.258 137.523ZM648.5 137.328L649.953 137.508C649.724 138.357 649.299 139.016 648.68 139.484C648.06 139.953 647.268 140.188 646.305 140.188C645.091 140.188 644.128 139.815 643.414 139.07C642.706 138.32 642.352 137.271 642.352 135.922C642.352 134.526 642.711 133.443 643.43 132.672C644.148 131.901 645.081 131.516 646.227 131.516C647.336 131.516 648.242 131.893 648.945 132.648C649.648 133.404 650 134.466 650 135.836C650 135.919 649.997 136.044 649.992 136.211H643.805C643.857 137.122 644.115 137.82 644.578 138.305C645.042 138.789 645.62 139.031 646.312 139.031C646.828 139.031 647.268 138.896 647.633 138.625C647.997 138.354 648.286 137.922 648.5 137.328ZM643.883 135.055H648.516C648.453 134.357 648.276 133.833 647.984 133.484C647.536 132.943 646.956 132.672 646.242 132.672C645.596 132.672 645.052 132.888 644.609 133.32C644.172 133.753 643.93 134.331 643.883 135.055ZM645.398 130.672L646.438 128.484H648.281L646.562 130.672H645.398ZM651.727 143.18V131.703H653.008V132.781C653.31 132.359 653.651 132.044 654.031 131.836C654.411 131.622 654.872 131.516 655.414 131.516C656.122 131.516 656.747 131.698 657.289 132.062C657.831 132.427 658.24 132.943 658.516 133.609C658.792 134.271 658.93 134.997 658.93 135.789C658.93 136.638 658.776 137.404 658.469 138.086C658.167 138.763 657.724 139.284 657.141 139.648C656.562 140.008 655.953 140.188 655.312 140.188C654.844 140.188 654.422 140.089 654.047 139.891C653.677 139.693 653.372 139.443 653.133 139.141V143.18H651.727ZM653 135.898C653 136.966 653.216 137.755 653.648 138.266C654.081 138.776 654.604 139.031 655.219 139.031C655.844 139.031 656.378 138.768 656.82 138.242C657.268 137.711 657.492 136.891 657.492 135.781C657.492 134.724 657.273 133.932 656.836 133.406C656.404 132.88 655.885 132.617 655.281 132.617C654.682 132.617 654.151 132.898 653.688 133.461C653.229 134.018 653 134.831 653 135.898ZM666.047 138.977C665.526 139.419 665.023 139.732 664.539 139.914C664.06 140.096 663.544 140.188 662.992 140.188C662.081 140.188 661.38 139.966 660.891 139.523C660.401 139.076 660.156 138.505 660.156 137.812C660.156 137.406 660.247 137.036 660.43 136.703C660.617 136.365 660.859 136.094 661.156 135.891C661.458 135.688 661.797 135.534 662.172 135.43C662.448 135.357 662.865 135.286 663.422 135.219C664.557 135.083 665.393 134.922 665.93 134.734C665.935 134.542 665.938 134.419 665.938 134.367C665.938 133.794 665.805 133.391 665.539 133.156C665.18 132.839 664.646 132.68 663.938 132.68C663.276 132.68 662.786 132.797 662.469 133.031C662.156 133.26 661.924 133.669 661.773 134.258L660.398 134.07C660.523 133.482 660.729 133.008 661.016 132.648C661.302 132.284 661.716 132.005 662.258 131.812C662.799 131.615 663.427 131.516 664.141 131.516C664.849 131.516 665.424 131.599 665.867 131.766C666.31 131.932 666.635 132.143 666.844 132.398C667.052 132.648 667.198 132.966 667.281 133.352C667.328 133.591 667.352 134.023 667.352 134.648V136.523C667.352 137.831 667.38 138.659 667.438 139.008C667.5 139.352 667.62 139.682 667.797 140H666.328C666.182 139.708 666.089 139.367 666.047 138.977ZM665.93 135.836C665.419 136.044 664.654 136.221 663.633 136.367C663.055 136.451 662.646 136.544 662.406 136.648C662.167 136.753 661.982 136.906 661.852 137.109C661.721 137.307 661.656 137.529 661.656 137.773C661.656 138.148 661.797 138.461 662.078 138.711C662.365 138.961 662.781 139.086 663.328 139.086C663.87 139.086 664.352 138.969 664.773 138.734C665.195 138.495 665.505 138.169 665.703 137.758C665.854 137.44 665.93 136.971 665.93 136.352V135.836ZM669.523 140V131.703H670.789V132.961C671.112 132.372 671.409 131.984 671.68 131.797C671.956 131.609 672.258 131.516 672.586 131.516C673.06 131.516 673.542 131.667 674.031 131.969L673.547 133.273C673.203 133.07 672.859 132.969 672.516 132.969C672.208 132.969 671.932 133.062 671.688 133.25C671.443 133.432 671.268 133.688 671.164 134.016C671.008 134.516 670.93 135.062 670.93 135.656V140H669.523ZM680.281 138.977C679.76 139.419 679.258 139.732 678.773 139.914C678.294 140.096 677.779 140.188 677.227 140.188C676.315 140.188 675.615 139.966 675.125 139.523C674.635 139.076 674.391 138.505 674.391 137.812C674.391 137.406 674.482 137.036 674.664 136.703C674.852 136.365 675.094 136.094 675.391 135.891C675.693 135.688 676.031 135.534 676.406 135.43C676.682 135.357 677.099 135.286 677.656 135.219C678.792 135.083 679.628 134.922 680.164 134.734C680.169 134.542 680.172 134.419 680.172 134.367C680.172 133.794 680.039 133.391 679.773 133.156C679.414 132.839 678.88 132.68 678.172 132.68C677.51 132.68 677.021 132.797 676.703 133.031C676.391 133.26 676.159 133.669 676.008 134.258L674.633 134.07C674.758 133.482 674.964 133.008 675.25 132.648C675.536 132.284 675.951 132.005 676.492 131.812C677.034 131.615 677.661 131.516 678.375 131.516C679.083 131.516 679.659 131.599 680.102 131.766C680.544 131.932 680.87 132.143 681.078 132.398C681.286 132.648 681.432 132.966 681.516 133.352C681.562 133.591 681.586 134.023 681.586 134.648V136.523C681.586 137.831 681.615 138.659 681.672 139.008C681.734 139.352 681.854 139.682 682.031 140H680.562C680.417 139.708 680.323 139.367 680.281 138.977ZM680.164 135.836C679.654 136.044 678.888 136.221 677.867 136.367C677.289 136.451 676.88 136.544 676.641 136.648C676.401 136.753 676.216 136.906 676.086 137.109C675.956 137.307 675.891 137.529 675.891 137.773C675.891 138.148 676.031 138.461 676.312 138.711C676.599 138.961 677.016 139.086 677.562 139.086C678.104 139.086 678.586 138.969 679.008 138.734C679.43 138.495 679.74 138.169 679.938 137.758C680.089 137.44 680.164 136.971 680.164 136.352V135.836ZM686.844 138.742L687.047 139.984C686.651 140.068 686.297 140.109 685.984 140.109C685.474 140.109 685.078 140.029 684.797 139.867C684.516 139.706 684.318 139.495 684.203 139.234C684.089 138.969 684.031 138.414 684.031 137.57V132.797H683V131.703H684.031V129.648L685.43 128.805V131.703H686.844V132.797H685.43V137.648C685.43 138.049 685.453 138.307 685.5 138.422C685.552 138.536 685.633 138.628 685.742 138.695C685.857 138.763 686.018 138.797 686.227 138.797C686.383 138.797 686.589 138.779 686.844 138.742ZM688.234 130.164V128.547H689.641V130.164H688.234ZM688.234 140V131.703H689.641V140H688.234ZM691.266 135.852C691.266 134.315 691.693 133.177 692.547 132.438C693.26 131.823 694.13 131.516 695.156 131.516C696.297 131.516 697.229 131.891 697.953 132.641C698.677 133.385 699.039 134.417 699.039 135.734C699.039 136.802 698.878 137.643 698.555 138.258C698.237 138.867 697.771 139.341 697.156 139.68C696.547 140.018 695.88 140.188 695.156 140.188C693.995 140.188 693.055 139.815 692.336 139.07C691.622 138.326 691.266 137.253 691.266 135.852ZM692.711 135.852C692.711 136.914 692.943 137.711 693.406 138.242C693.87 138.768 694.453 139.031 695.156 139.031C695.854 139.031 696.435 138.766 696.898 138.234C697.362 137.703 697.594 136.893 697.594 135.805C697.594 134.779 697.359 134.003 696.891 133.477C696.427 132.945 695.849 132.68 695.156 132.68C694.453 132.68 693.87 132.943 693.406 133.469C692.943 133.995 692.711 134.789 692.711 135.852ZM700.695 140V131.703H701.961V132.883C702.57 131.971 703.451 131.516 704.602 131.516C705.102 131.516 705.56 131.607 705.977 131.789C706.398 131.966 706.714 132.201 706.922 132.492C707.13 132.784 707.276 133.13 707.359 133.531C707.411 133.792 707.438 134.247 707.438 134.898V140H706.031V134.953C706.031 134.38 705.977 133.953 705.867 133.672C705.758 133.385 705.562 133.159 705.281 132.992C705.005 132.82 704.68 132.734 704.305 132.734C703.706 132.734 703.188 132.924 702.75 133.305C702.318 133.685 702.102 134.406 702.102 135.469V140H700.695ZM714.055 143.18V131.703H715.336V132.781C715.638 132.359 715.979 132.044 716.359 131.836C716.74 131.622 717.201 131.516 717.742 131.516C718.451 131.516 719.076 131.698 719.617 132.062C720.159 132.427 720.568 132.943 720.844 133.609C721.12 134.271 721.258 134.997 721.258 135.789C721.258 136.638 721.104 137.404 720.797 138.086C720.495 138.763 720.052 139.284 719.469 139.648C718.891 140.008 718.281 140.188 717.641 140.188C717.172 140.188 716.75 140.089 716.375 139.891C716.005 139.693 715.701 139.443 715.461 139.141V143.18H714.055ZM715.328 135.898C715.328 136.966 715.544 137.755 715.977 138.266C716.409 138.776 716.932 139.031 717.547 139.031C718.172 139.031 718.706 138.768 719.148 138.242C719.596 137.711 719.82 136.891 719.82 135.781C719.82 134.724 719.602 133.932 719.164 133.406C718.732 132.88 718.214 132.617 717.609 132.617C717.01 132.617 716.479 132.898 716.016 133.461C715.557 134.018 715.328 134.831 715.328 135.898ZM722.93 140V128.547H724.336V140H722.93ZM731.961 140V138.781C731.315 139.719 730.438 140.188 729.328 140.188C728.839 140.188 728.38 140.094 727.953 139.906C727.531 139.719 727.216 139.484 727.008 139.203C726.805 138.917 726.661 138.568 726.578 138.156C726.521 137.88 726.492 137.443 726.492 136.844V131.703H727.898V136.305C727.898 137.039 727.927 137.534 727.984 137.789C728.073 138.159 728.26 138.451 728.547 138.664C728.833 138.872 729.188 138.977 729.609 138.977C730.031 138.977 730.427 138.87 730.797 138.656C731.167 138.438 731.427 138.143 731.578 137.773C731.734 137.398 731.812 136.857 731.812 136.148V131.703H733.219V140H731.961ZM734.867 137.523L736.258 137.305C736.336 137.862 736.552 138.289 736.906 138.586C737.266 138.883 737.766 139.031 738.406 139.031C739.052 139.031 739.531 138.901 739.844 138.641C740.156 138.375 740.312 138.065 740.312 137.711C740.312 137.393 740.174 137.143 739.898 136.961C739.706 136.836 739.227 136.677 738.461 136.484C737.43 136.224 736.714 136 736.312 135.812C735.917 135.62 735.615 135.357 735.406 135.023C735.203 134.685 735.102 134.312 735.102 133.906C735.102 133.536 735.185 133.195 735.352 132.883C735.523 132.565 735.755 132.302 736.047 132.094C736.266 131.932 736.562 131.797 736.938 131.688C737.318 131.573 737.724 131.516 738.156 131.516C738.807 131.516 739.378 131.609 739.867 131.797C740.362 131.984 740.727 132.24 740.961 132.562C741.195 132.88 741.357 133.307 741.445 133.844L740.07 134.031C740.008 133.604 739.826 133.271 739.523 133.031C739.227 132.792 738.805 132.672 738.258 132.672C737.612 132.672 737.151 132.779 736.875 132.992C736.599 133.206 736.461 133.456 736.461 133.742C736.461 133.924 736.518 134.089 736.633 134.234C736.747 134.385 736.927 134.51 737.172 134.609C737.312 134.661 737.727 134.781 738.414 134.969C739.409 135.234 740.102 135.453 740.492 135.625C740.888 135.792 741.198 136.036 741.422 136.359C741.646 136.682 741.758 137.083 741.758 137.562C741.758 138.031 741.62 138.474 741.344 138.891C741.073 139.302 740.68 139.622 740.164 139.852C739.648 140.076 739.065 140.188 738.414 140.188C737.336 140.188 736.513 139.964 735.945 139.516C735.383 139.068 735.023 138.404 734.867 137.523ZM750.188 140L747.031 131.703H748.516L750.297 136.672C750.49 137.208 750.667 137.766 750.828 138.344C750.953 137.906 751.128 137.38 751.352 136.766L753.195 131.703H754.641L751.5 140H750.188ZM755.891 130.164V128.547H757.297V130.164H755.891ZM755.891 140V131.703H757.297V140H755.891ZM758.883 137.523L760.273 137.305C760.352 137.862 760.568 138.289 760.922 138.586C761.281 138.883 761.781 139.031 762.422 139.031C763.068 139.031 763.547 138.901 763.859 138.641C764.172 138.375 764.328 138.065 764.328 137.711C764.328 137.393 764.19 137.143 763.914 136.961C763.721 136.836 763.242 136.677 762.477 136.484C761.445 136.224 760.729 136 760.328 135.812C759.932 135.62 759.63 135.357 759.422 135.023C759.219 134.685 759.117 134.312 759.117 133.906C759.117 133.536 759.201 133.195 759.367 132.883C759.539 132.565 759.771 132.302 760.062 132.094C760.281 131.932 760.578 131.797 760.953 131.688C761.333 131.573 761.74 131.516 762.172 131.516C762.823 131.516 763.393 131.609 763.883 131.797C764.378 131.984 764.742 132.24 764.977 132.562C765.211 132.88 765.372 133.307 765.461 133.844L764.086 134.031C764.023 133.604 763.841 133.271 763.539 133.031C763.242 132.792 762.82 132.672 762.273 132.672C761.628 132.672 761.167 132.779 760.891 132.992C760.615 133.206 760.477 133.456 760.477 133.742C760.477 133.924 760.534 134.089 760.648 134.234C760.763 134.385 760.943 134.51 761.188 134.609C761.328 134.661 761.742 134.781 762.43 134.969C763.424 135.234 764.117 135.453 764.508 135.625C764.904 135.792 765.214 136.036 765.438 136.359C765.661 136.682 765.773 137.083 765.773 137.562C765.773 138.031 765.635 138.474 765.359 138.891C765.089 139.302 764.695 139.622 764.18 139.852C763.664 140.076 763.081 140.188 762.43 140.188C761.352 140.188 760.529 139.964 759.961 139.516C759.398 139.068 759.039 138.404 758.883 137.523ZM767.453 130.164V128.547H768.859V130.164H767.453ZM767.453 140V131.703H768.859V140H767.453ZM772.305 140H771V128.547H772.406V132.633C773 131.888 773.758 131.516 774.68 131.516C775.19 131.516 775.672 131.62 776.125 131.828C776.583 132.031 776.958 132.32 777.25 132.695C777.547 133.065 777.779 133.513 777.945 134.039C778.112 134.565 778.195 135.128 778.195 135.727C778.195 137.148 777.844 138.247 777.141 139.023C776.438 139.799 775.594 140.188 774.609 140.188C773.63 140.188 772.862 139.779 772.305 138.961V140ZM772.289 135.789C772.289 136.784 772.424 137.503 772.695 137.945C773.138 138.669 773.737 139.031 774.492 139.031C775.107 139.031 775.638 138.766 776.086 138.234C776.534 137.698 776.758 136.901 776.758 135.844C776.758 134.76 776.542 133.961 776.109 133.445C775.682 132.93 775.164 132.672 774.555 132.672C773.94 132.672 773.409 132.94 772.961 133.477C772.513 134.008 772.289 134.779 772.289 135.789ZM779.883 140V128.547H781.289V140H779.883ZM789.156 137.328L790.609 137.508C790.38 138.357 789.956 139.016 789.336 139.484C788.716 139.953 787.924 140.188 786.961 140.188C785.747 140.188 784.784 139.815 784.07 139.07C783.362 138.32 783.008 137.271 783.008 135.922C783.008 134.526 783.367 133.443 784.086 132.672C784.805 131.901 785.737 131.516 786.883 131.516C787.992 131.516 788.898 131.893 789.602 132.648C790.305 133.404 790.656 134.466 790.656 135.836C790.656 135.919 790.654 136.044 790.648 136.211H784.461C784.513 137.122 784.771 137.82 785.234 138.305C785.698 138.789 786.276 139.031 786.969 139.031C787.484 139.031 787.924 138.896 788.289 138.625C788.654 138.354 788.943 137.922 789.156 137.328ZM784.539 135.055H789.172C789.109 134.357 788.932 133.833 788.641 133.484C788.193 132.943 787.612 132.672 786.898 132.672C786.253 132.672 785.708 132.888 785.266 133.32C784.828 133.753 784.586 134.331 784.539 135.055Z" fill="#3E3E3D"/>
<rect width="579.5" height="48" transform="translate(579.5 158)" fill="white"/>
<path d="M604.906 183.984L606.422 184.367C606.104 185.612 605.531 186.562 604.703 187.219C603.88 187.87 602.872 188.195 601.68 188.195C600.445 188.195 599.44 187.945 598.664 187.445C597.893 186.94 597.305 186.211 596.898 185.258C596.497 184.305 596.297 183.281 596.297 182.188C596.297 180.995 596.523 179.956 596.977 179.07C597.435 178.18 598.083 177.505 598.922 177.047C599.766 176.583 600.693 176.352 601.703 176.352C602.849 176.352 603.812 176.643 604.594 177.227C605.375 177.81 605.919 178.63 606.227 179.688L604.734 180.039C604.469 179.206 604.083 178.599 603.578 178.219C603.073 177.839 602.438 177.648 601.672 177.648C600.792 177.648 600.055 177.859 599.461 178.281C598.872 178.703 598.458 179.271 598.219 179.984C597.979 180.693 597.859 181.424 597.859 182.18C597.859 183.154 598 184.005 598.281 184.734C598.568 185.458 599.01 186 599.609 186.359C600.208 186.719 600.857 186.898 601.555 186.898C602.404 186.898 603.122 186.654 603.711 186.164C604.299 185.674 604.698 184.948 604.906 183.984ZM613.531 186.977C613.01 187.419 612.508 187.732 612.023 187.914C611.544 188.096 611.029 188.188 610.477 188.188C609.565 188.188 608.865 187.966 608.375 187.523C607.885 187.076 607.641 186.505 607.641 185.812C607.641 185.406 607.732 185.036 607.914 184.703C608.102 184.365 608.344 184.094 608.641 183.891C608.943 183.688 609.281 183.534 609.656 183.43C609.932 183.357 610.349 183.286 610.906 183.219C612.042 183.083 612.878 182.922 613.414 182.734C613.419 182.542 613.422 182.419 613.422 182.367C613.422 181.794 613.289 181.391 613.023 181.156C612.664 180.839 612.13 180.68 611.422 180.68C610.76 180.68 610.271 180.797 609.953 181.031C609.641 181.26 609.409 181.669 609.258 182.258L607.883 182.07C608.008 181.482 608.214 181.008 608.5 180.648C608.786 180.284 609.201 180.005 609.742 179.812C610.284 179.615 610.911 179.516 611.625 179.516C612.333 179.516 612.909 179.599 613.352 179.766C613.794 179.932 614.12 180.143 614.328 180.398C614.536 180.648 614.682 180.966 614.766 181.352C614.812 181.591 614.836 182.023 614.836 182.648V184.523C614.836 185.831 614.865 186.659 614.922 187.008C614.984 187.352 615.104 187.682 615.281 188H613.812C613.667 187.708 613.573 187.367 613.531 186.977ZM613.414 183.836C612.904 184.044 612.138 184.221 611.117 184.367C610.539 184.451 610.13 184.544 609.891 184.648C609.651 184.753 609.466 184.906 609.336 185.109C609.206 185.307 609.141 185.529 609.141 185.773C609.141 186.148 609.281 186.461 609.562 186.711C609.849 186.961 610.266 187.086 610.812 187.086C611.354 187.086 611.836 186.969 612.258 186.734C612.68 186.495 612.99 186.169 613.188 185.758C613.339 185.44 613.414 184.971 613.414 184.352V183.836ZM616.461 185.523L617.852 185.305C617.93 185.862 618.146 186.289 618.5 186.586C618.859 186.883 619.359 187.031 620 187.031C620.646 187.031 621.125 186.901 621.438 186.641C621.75 186.375 621.906 186.065 621.906 185.711C621.906 185.393 621.768 185.143 621.492 184.961C621.299 184.836 620.82 184.677 620.055 184.484C619.023 184.224 618.307 184 617.906 183.812C617.51 183.62 617.208 183.357 617 183.023C616.797 182.685 616.695 182.312 616.695 181.906C616.695 181.536 616.779 181.195 616.945 180.883C617.117 180.565 617.349 180.302 617.641 180.094C617.859 179.932 618.156 179.797 618.531 179.688C618.911 179.573 619.318 179.516 619.75 179.516C620.401 179.516 620.971 179.609 621.461 179.797C621.956 179.984 622.32 180.24 622.555 180.562C622.789 180.88 622.951 181.307 623.039 181.844L621.664 182.031C621.602 181.604 621.419 181.271 621.117 181.031C620.82 180.792 620.398 180.672 619.852 180.672C619.206 180.672 618.745 180.779 618.469 180.992C618.193 181.206 618.055 181.456 618.055 181.742C618.055 181.924 618.112 182.089 618.227 182.234C618.341 182.385 618.521 182.51 618.766 182.609C618.906 182.661 619.32 182.781 620.008 182.969C621.003 183.234 621.695 183.453 622.086 183.625C622.482 183.792 622.792 184.036 623.016 184.359C623.24 184.682 623.352 185.083 623.352 185.562C623.352 186.031 623.214 186.474 622.938 186.891C622.667 187.302 622.273 187.622 621.758 187.852C621.242 188.076 620.659 188.188 620.008 188.188C618.93 188.188 618.107 187.964 617.539 187.516C616.977 187.068 616.617 186.404 616.461 185.523ZM632.547 186.742L632.75 187.984C632.354 188.068 632 188.109 631.688 188.109C631.177 188.109 630.781 188.029 630.5 187.867C630.219 187.706 630.021 187.495 629.906 187.234C629.792 186.969 629.734 186.414 629.734 185.57V180.797H628.703V179.703H629.734V177.648L631.133 176.805V179.703H632.547V180.797H631.133V185.648C631.133 186.049 631.156 186.307 631.203 186.422C631.255 186.536 631.336 186.628 631.445 186.695C631.56 186.763 631.721 186.797 631.93 186.797C632.086 186.797 632.292 186.779 632.547 186.742ZM633.914 188V179.703H635.18V180.961C635.503 180.372 635.799 179.984 636.07 179.797C636.346 179.609 636.648 179.516 636.977 179.516C637.451 179.516 637.932 179.667 638.422 179.969L637.938 181.273C637.594 181.07 637.25 180.969 636.906 180.969C636.599 180.969 636.323 181.062 636.078 181.25C635.833 181.432 635.659 181.688 635.555 182.016C635.398 182.516 635.32 183.062 635.32 183.656V188H633.914ZM644.938 185.328L646.391 185.508C646.161 186.357 645.737 187.016 645.117 187.484C644.497 187.953 643.706 188.188 642.742 188.188C641.529 188.188 640.565 187.815 639.852 187.07C639.143 186.32 638.789 185.271 638.789 183.922C638.789 182.526 639.148 181.443 639.867 180.672C640.586 179.901 641.518 179.516 642.664 179.516C643.773 179.516 644.68 179.893 645.383 180.648C646.086 181.404 646.438 182.466 646.438 183.836C646.438 183.919 646.435 184.044 646.43 184.211H640.242C640.294 185.122 640.552 185.82 641.016 186.305C641.479 186.789 642.057 187.031 642.75 187.031C643.266 187.031 643.706 186.896 644.07 186.625C644.435 186.354 644.724 185.922 644.938 185.328ZM640.32 183.055H644.953C644.891 182.357 644.714 181.833 644.422 181.484C643.974 180.943 643.393 180.672 642.68 180.672C642.034 180.672 641.49 180.888 641.047 181.32C640.609 181.753 640.367 182.331 640.32 183.055ZM643.562 178.672H642.43L640.625 176.484H642.508L643.562 178.672ZM647.602 185.523L648.992 185.305C649.07 185.862 649.286 186.289 649.641 186.586C650 186.883 650.5 187.031 651.141 187.031C651.786 187.031 652.266 186.901 652.578 186.641C652.891 186.375 653.047 186.065 653.047 185.711C653.047 185.393 652.909 185.143 652.633 184.961C652.44 184.836 651.961 184.677 651.195 184.484C650.164 184.224 649.448 184 649.047 183.812C648.651 183.62 648.349 183.357 648.141 183.023C647.938 182.685 647.836 182.312 647.836 181.906C647.836 181.536 647.919 181.195 648.086 180.883C648.258 180.565 648.49 180.302 648.781 180.094C649 179.932 649.297 179.797 649.672 179.688C650.052 179.573 650.458 179.516 650.891 179.516C651.542 179.516 652.112 179.609 652.602 179.797C653.096 179.984 653.461 180.24 653.695 180.562C653.93 180.88 654.091 181.307 654.18 181.844L652.805 182.031C652.742 181.604 652.56 181.271 652.258 181.031C651.961 180.792 651.539 180.672 650.992 180.672C650.346 180.672 649.885 180.779 649.609 180.992C649.333 181.206 649.195 181.456 649.195 181.742C649.195 181.924 649.253 182.089 649.367 182.234C649.482 182.385 649.661 182.51 649.906 182.609C650.047 182.661 650.461 182.781 651.148 182.969C652.143 183.234 652.836 183.453 653.227 183.625C653.622 183.792 653.932 184.036 654.156 184.359C654.38 184.682 654.492 185.083 654.492 185.562C654.492 186.031 654.354 186.474 654.078 186.891C653.807 187.302 653.414 187.622 652.898 187.852C652.383 188.076 651.799 188.188 651.148 188.188C650.07 188.188 649.247 187.964 648.68 187.516C648.117 187.068 647.758 186.404 647.602 185.523ZM660.602 188V179.703H661.867V180.961C662.19 180.372 662.487 179.984 662.758 179.797C663.034 179.609 663.336 179.516 663.664 179.516C664.138 179.516 664.62 179.667 665.109 179.969L664.625 181.273C664.281 181.07 663.938 180.969 663.594 180.969C663.286 180.969 663.01 181.062 662.766 181.25C662.521 181.432 662.346 181.688 662.242 182.016C662.086 182.516 662.008 183.062 662.008 183.656V188H660.602ZM671.359 186.977C670.839 187.419 670.336 187.732 669.852 187.914C669.372 188.096 668.857 188.188 668.305 188.188C667.393 188.188 666.693 187.966 666.203 187.523C665.714 187.076 665.469 186.505 665.469 185.812C665.469 185.406 665.56 185.036 665.742 184.703C665.93 184.365 666.172 184.094 666.469 183.891C666.771 183.688 667.109 183.534 667.484 183.43C667.76 183.357 668.177 183.286 668.734 183.219C669.87 183.083 670.706 182.922 671.242 182.734C671.247 182.542 671.25 182.419 671.25 182.367C671.25 181.794 671.117 181.391 670.852 181.156C670.492 180.839 669.958 180.68 669.25 180.68C668.589 180.68 668.099 180.797 667.781 181.031C667.469 181.26 667.237 181.669 667.086 182.258L665.711 182.07C665.836 181.482 666.042 181.008 666.328 180.648C666.615 180.284 667.029 180.005 667.57 179.812C668.112 179.615 668.74 179.516 669.453 179.516C670.161 179.516 670.737 179.599 671.18 179.766C671.622 179.932 671.948 180.143 672.156 180.398C672.365 180.648 672.51 180.966 672.594 181.352C672.641 181.591 672.664 182.023 672.664 182.648V184.523C672.664 185.831 672.693 186.659 672.75 187.008C672.812 187.352 672.932 187.682 673.109 188H671.641C671.495 187.708 671.401 187.367 671.359 186.977ZM671.242 183.836C670.732 184.044 669.966 184.221 668.945 184.367C668.367 184.451 667.958 184.544 667.719 184.648C667.479 184.753 667.294 184.906 667.164 185.109C667.034 185.307 666.969 185.529 666.969 185.773C666.969 186.148 667.109 186.461 667.391 186.711C667.677 186.961 668.094 187.086 668.641 187.086C669.182 187.086 669.664 186.969 670.086 186.734C670.508 186.495 670.818 186.169 671.016 185.758C671.167 185.44 671.242 184.971 671.242 184.352V183.836ZM674.836 188V179.703H676.102V180.961C676.424 180.372 676.721 179.984 676.992 179.797C677.268 179.609 677.57 179.516 677.898 179.516C678.372 179.516 678.854 179.667 679.344 179.969L678.859 181.273C678.516 181.07 678.172 180.969 677.828 180.969C677.521 180.969 677.245 181.062 677 181.25C676.755 181.432 676.581 181.688 676.477 182.016C676.32 182.516 676.242 183.062 676.242 183.656V188H674.836ZM685.859 185.328L687.312 185.508C687.083 186.357 686.659 187.016 686.039 187.484C685.419 187.953 684.628 188.188 683.664 188.188C682.451 188.188 681.487 187.815 680.773 187.07C680.065 186.32 679.711 185.271 679.711 183.922C679.711 182.526 680.07 181.443 680.789 180.672C681.508 179.901 682.44 179.516 683.586 179.516C684.695 179.516 685.602 179.893 686.305 180.648C687.008 181.404 687.359 182.466 687.359 183.836C687.359 183.919 687.357 184.044 687.352 184.211H681.164C681.216 185.122 681.474 185.82 681.938 186.305C682.401 186.789 682.979 187.031 683.672 187.031C684.188 187.031 684.628 186.896 684.992 186.625C685.357 186.354 685.646 185.922 685.859 185.328ZM681.242 183.055H685.875C685.812 182.357 685.635 181.833 685.344 181.484C684.896 180.943 684.315 180.672 683.602 180.672C682.956 180.672 682.411 180.888 681.969 181.32C681.531 181.753 681.289 182.331 681.242 183.055ZM688.523 185.523L689.914 185.305C689.992 185.862 690.208 186.289 690.562 186.586C690.922 186.883 691.422 187.031 692.062 187.031C692.708 187.031 693.188 186.901 693.5 186.641C693.812 186.375 693.969 186.065 693.969 185.711C693.969 185.393 693.831 185.143 693.555 184.961C693.362 184.836 692.883 184.677 692.117 184.484C691.086 184.224 690.37 184 689.969 183.812C689.573 183.62 689.271 183.357 689.062 183.023C688.859 182.685 688.758 182.312 688.758 181.906C688.758 181.536 688.841 181.195 689.008 180.883C689.18 180.565 689.411 180.302 689.703 180.094C689.922 179.932 690.219 179.797 690.594 179.688C690.974 179.573 691.38 179.516 691.812 179.516C692.464 179.516 693.034 179.609 693.523 179.797C694.018 179.984 694.383 180.24 694.617 180.562C694.852 180.88 695.013 181.307 695.102 181.844L693.727 182.031C693.664 181.604 693.482 181.271 693.18 181.031C692.883 180.792 692.461 180.672 691.914 180.672C691.268 180.672 690.807 180.779 690.531 180.992C690.255 181.206 690.117 181.456 690.117 181.742C690.117 181.924 690.174 182.089 690.289 182.234C690.404 182.385 690.583 182.51 690.828 182.609C690.969 182.661 691.383 182.781 692.07 182.969C693.065 183.234 693.758 183.453 694.148 183.625C694.544 183.792 694.854 184.036 695.078 184.359C695.302 184.682 695.414 185.083 695.414 185.562C695.414 186.031 695.276 186.474 695 186.891C694.729 187.302 694.336 187.622 693.82 187.852C693.305 188.076 692.721 188.188 692.07 188.188C690.992 188.188 690.169 187.964 689.602 187.516C689.039 187.068 688.68 186.404 688.523 185.523Z" fill="#3E3E3D"/>
<rect width="579.5" height="1" transform="translate(579.5 206)" fill="white"/>
<g opacity="0.5">
<path d="M579.5 206.5H1159" stroke="#CDCCCB"/>
</g>
</g>
<rect x="0.5" y="0.5" width="1158" height="206" rx="7.5" stroke="#CDCCCB"/>
<defs>
<clipPath id="clip0_353_46411">
<rect width="1159" height="207" rx="8" fill="white"/>
</clipPath>
</defs>
</svg>
