<svg width="1159" height="88" viewBox="0 0 1159 88" fill="none" xmlns="http://www.w3.org/2000/svg">
<rect x="0.5" y="0.5" width="1158" height="87" rx="7.5" stroke="#CDCCCB"/>
<path d="M32 36C32 33.7909 33.7909 32 36 32H129C131.209 32 133 33.7909 133 36V52C133 54.2091 131.209 56 129 56H36C33.7909 56 32 54.2091 32 52V36Z" fill="#E1E1E0"/>
<path d="M39.3311 49V42.5811H37.2939V41.6035H39.3311V41.084C39.3311 40.61 39.3994 40.1953 39.5361 39.8398C39.6774 39.4798 39.8757 39.179 40.1309 38.9375C40.3815 38.696 40.6846 38.5137 41.04 38.3906C41.3955 38.2676 41.792 38.2061 42.2295 38.2061C42.4118 38.2061 42.5918 38.2174 42.7695 38.2402C42.9473 38.2585 43.1227 38.2835 43.2959 38.3154C43.4098 38.3382 43.5238 38.3633 43.6377 38.3906C43.7516 38.4134 43.8678 38.4408 43.9863 38.4727L43.8359 39.5186C43.6491 39.4548 43.4303 39.4001 43.1797 39.3545C42.9336 39.3044 42.6693 39.2793 42.3867 39.2793C42.0996 39.2793 41.8444 39.3158 41.6211 39.3887C41.4023 39.457 41.2201 39.5618 41.0742 39.7031C40.9193 39.849 40.8008 40.0381 40.7188 40.2705C40.6413 40.5029 40.6025 40.7741 40.6025 41.084V41.6035H43.4531V42.5811H40.6025V49H39.3311ZM45.4971 45.2334C45.4971 44.7002 45.5745 44.2057 45.7295 43.75C45.8844 43.2897 46.1077 42.891 46.3994 42.5537C46.6865 42.2165 47.0374 41.9521 47.4521 41.7607C47.8669 41.5648 48.334 41.4668 48.8535 41.4668C49.3776 41.4668 49.847 41.5648 50.2617 41.7607C50.681 41.9521 51.0365 42.2165 51.3281 42.5537C51.6152 42.891 51.8363 43.2897 51.9912 43.75C52.1462 44.2057 52.2236 44.7002 52.2236 45.2334V45.3838C52.2236 45.917 52.1462 46.4115 51.9912 46.8672C51.8363 47.3229 51.6152 47.7194 51.3281 48.0566C51.0365 48.3939 50.6833 48.6582 50.2686 48.8496C49.8538 49.041 49.3867 49.1367 48.8672 49.1367C48.3431 49.1367 47.8714 49.041 47.4521 48.8496C47.0374 48.6582 46.6865 48.3939 46.3994 48.0566C46.1077 47.7194 45.8844 47.3229 45.7295 46.8672C45.5745 46.4115 45.4971 45.917 45.4971 45.3838V45.2334ZM46.7617 45.3838C46.7617 45.7484 46.805 46.097 46.8916 46.4297C46.9782 46.7578 47.1104 47.0472 47.2881 47.2979C47.4613 47.5485 47.68 47.7467 47.9443 47.8926C48.2087 48.0384 48.5163 48.1113 48.8672 48.1113C49.2135 48.1113 49.5166 48.0384 49.7764 47.8926C50.0407 47.7467 50.2617 47.5485 50.4395 47.2979C50.6126 47.0472 50.7425 46.7578 50.8291 46.4297C50.9157 46.097 50.959 45.7484 50.959 45.3838V45.2334C50.959 44.8734 50.9134 44.5293 50.8223 44.2012C50.7357 43.8685 50.6058 43.5768 50.4326 43.3262C50.2549 43.0755 50.0339 42.8773 49.7695 42.7314C49.5098 42.5811 49.2044 42.5059 48.8535 42.5059C48.5026 42.5059 48.1973 42.5811 47.9375 42.7314C47.6777 42.8773 47.4613 43.0755 47.2881 43.3262C47.1104 43.5768 46.9782 43.8685 46.8916 44.2012C46.805 44.5293 46.7617 44.8734 46.7617 45.2334V45.3838ZM54.2607 49V41.6035H55.3955L55.4844 42.6973C55.5938 42.5423 55.7122 42.401 55.8398 42.2734C55.972 42.1413 56.111 42.0273 56.2568 41.9316C56.4756 41.7858 56.7126 41.6742 56.9678 41.5967C57.2275 41.5146 57.501 41.4714 57.7881 41.4668C58.1755 41.4668 58.5264 41.5215 58.8408 41.6309C59.1598 41.7402 59.431 41.9111 59.6543 42.1436C59.8776 42.376 60.0485 42.6722 60.167 43.0322C60.29 43.3877 60.3516 43.8115 60.3516 44.3037V49H59.0869V44.3311C59.0869 44.0029 59.0505 43.7249 58.9775 43.4971C58.9046 43.2692 58.7975 43.0846 58.6562 42.9434C58.5104 42.8021 58.3327 42.6995 58.123 42.6357C57.918 42.5719 57.681 42.54 57.4121 42.54C57.1797 42.54 56.9632 42.5742 56.7627 42.6426C56.5622 42.7064 56.3776 42.7952 56.209 42.9092C56.0723 43.0094 55.9447 43.1257 55.8262 43.2578C55.7122 43.39 55.612 43.5358 55.5254 43.6953V49H54.2607ZM65.6631 39.8125V41.6035H68.4795V42.5811H65.6631V46.6006C65.6631 46.8877 65.6995 47.1247 65.7725 47.3115C65.8454 47.4984 65.9456 47.6465 66.0732 47.7559C66.2008 47.8698 66.3467 47.9495 66.5107 47.9951C66.6794 48.0407 66.8571 48.0635 67.0439 48.0635C67.1807 48.0635 67.3219 48.0566 67.4678 48.043C67.6136 48.0247 67.7572 48.0042 67.8984 47.9814C68.0352 47.9587 68.1628 47.9359 68.2812 47.9131C68.4043 47.8857 68.5046 47.863 68.582 47.8447L68.7598 48.7402C68.6549 48.804 68.5273 48.861 68.377 48.9111C68.2266 48.9567 68.0625 48.9954 67.8848 49.0273C67.707 49.0638 67.5179 49.0911 67.3174 49.1094C67.1214 49.1276 66.9255 49.1367 66.7295 49.1367C66.4014 49.1367 66.0938 49.0911 65.8066 49C65.5241 48.9043 65.278 48.7539 65.0684 48.5488C64.8587 48.3483 64.6924 48.0885 64.5693 47.7695C64.4508 47.446 64.3916 47.0563 64.3916 46.6006V42.5811H62.4502V41.6035H64.3916V39.8125H65.6631ZM77.2158 50.0322H70.9473V49H77.2158V50.0322ZM81.3721 49V42.5811H79.335V41.6035H81.3721V41.084C81.3721 40.61 81.4404 40.1953 81.5771 39.8398C81.7184 39.4798 81.9167 39.179 82.1719 38.9375C82.4225 38.696 82.7256 38.5137 83.0811 38.3906C83.4365 38.2676 83.833 38.2061 84.2705 38.2061C84.4528 38.2061 84.6328 38.2174 84.8105 38.2402C84.9883 38.2585 85.1637 38.2835 85.3369 38.3154C85.4508 38.3382 85.5648 38.3633 85.6787 38.3906C85.7926 38.4134 85.9089 38.4408 86.0273 38.4727L85.877 39.5186C85.6901 39.4548 85.4714 39.4001 85.2207 39.3545C84.9746 39.3044 84.7103 39.2793 84.4277 39.2793C84.1406 39.2793 83.8854 39.3158 83.6621 39.3887C83.4434 39.457 83.2611 39.5618 83.1152 39.7031C82.9603 39.849 82.8418 40.0381 82.7598 40.2705C82.6823 40.5029 82.6436 40.7741 82.6436 41.084V41.6035H85.4941V42.5811H82.6436V49H81.3721ZM92.7539 49C92.7038 48.9043 92.6628 48.7858 92.6309 48.6445C92.6035 48.4987 92.583 48.3483 92.5693 48.1934C92.4417 48.321 92.2982 48.4417 92.1387 48.5557C91.9837 48.6696 91.8128 48.7699 91.626 48.8564C91.4346 48.943 91.2318 49.0114 91.0176 49.0615C90.8034 49.1117 90.5755 49.1367 90.334 49.1367C89.9421 49.1367 89.5866 49.0798 89.2676 48.9658C88.9531 48.8519 88.6865 48.6969 88.4678 48.501C88.2445 48.3096 88.0713 48.0817 87.9482 47.8174C87.8298 47.5485 87.7705 47.2591 87.7705 46.9492C87.7705 46.5436 87.8503 46.1882 88.0098 45.8828C88.1738 45.5775 88.404 45.3223 88.7002 45.1172C88.9964 44.9167 89.3519 44.7663 89.7666 44.666C90.1859 44.5658 90.653 44.5156 91.168 44.5156H92.5488V43.9346C92.5488 43.7113 92.5078 43.5107 92.4258 43.333C92.3438 43.1553 92.2275 43.0026 92.0771 42.875C91.9268 42.752 91.7422 42.6562 91.5234 42.5879C91.3092 42.5195 91.0677 42.4854 90.7988 42.4854C90.5482 42.4854 90.3226 42.5173 90.1221 42.5811C89.9261 42.6449 89.7598 42.7292 89.623 42.834C89.4863 42.9388 89.3792 43.0641 89.3018 43.21C89.2288 43.3512 89.1924 43.4993 89.1924 43.6543H87.9209C87.9255 43.3854 87.9938 43.1211 88.126 42.8613C88.2627 42.6016 88.4587 42.3669 88.7139 42.1572C88.9645 41.9521 89.2699 41.7858 89.6299 41.6582C89.9945 41.5306 90.4069 41.4668 90.8672 41.4668C91.2865 41.4668 91.6761 41.5192 92.0361 41.624C92.3962 41.7243 92.7083 41.877 92.9727 42.082C93.2324 42.2917 93.4375 42.5514 93.5879 42.8613C93.7383 43.1712 93.8135 43.5335 93.8135 43.9482V47.3867C93.8135 47.6328 93.8363 47.8949 93.8818 48.1729C93.9274 48.4463 93.9912 48.6855 94.0732 48.8906V49H92.7539ZM90.5186 48.0361C90.7646 48.0361 90.9948 48.0042 91.209 47.9404C91.4232 47.8766 91.6191 47.7923 91.7969 47.6875C91.9701 47.5827 92.1204 47.4642 92.248 47.332C92.3757 47.1953 92.4759 47.054 92.5488 46.9082V45.4111H91.373C90.9355 45.4111 90.5527 45.4499 90.2246 45.5273C89.901 45.6003 89.6436 45.7142 89.4521 45.8691C89.3154 45.9785 89.2106 46.1084 89.1377 46.2588C89.0693 46.4092 89.0352 46.5801 89.0352 46.7715C89.0352 46.9538 89.0648 47.1224 89.124 47.2773C89.1878 47.4323 89.2812 47.5645 89.4043 47.6738C89.5273 47.7878 89.6823 47.8766 89.8691 47.9404C90.056 48.0042 90.2725 48.0361 90.5186 48.0361ZM96.8828 41.6035L96.917 42.3008C97.0674 42.041 97.2633 41.8382 97.5049 41.6924C97.751 41.5465 98.0472 41.4714 98.3936 41.4668C98.5895 41.4668 98.765 41.4896 98.9199 41.5352C99.0794 41.5762 99.2184 41.6377 99.3369 41.7197C99.4235 41.7835 99.501 41.861 99.5693 41.9521C99.6423 42.0433 99.7038 42.1458 99.7539 42.2598C99.8177 42.1549 99.8929 42.057 99.9795 41.9658C100.066 41.8747 100.16 41.7949 100.26 41.7266C100.387 41.6491 100.529 41.5876 100.684 41.542C100.843 41.4964 101.016 41.4714 101.203 41.4668C101.458 41.4668 101.688 41.5055 101.894 41.583C102.099 41.6559 102.272 41.7653 102.413 41.9111C102.568 42.0752 102.687 42.2894 102.769 42.5537C102.851 42.8135 102.892 43.1211 102.892 43.4766V49H101.688V43.4629C101.688 43.3079 101.67 43.1712 101.634 43.0527C101.597 42.9342 101.545 42.8363 101.477 42.7588C101.404 42.6859 101.312 42.6312 101.203 42.5947C101.098 42.5583 100.975 42.54 100.834 42.54C100.684 42.54 100.554 42.5605 100.444 42.6016C100.335 42.6426 100.244 42.6973 100.171 42.7656C100.098 42.8385 100.041 42.9229 100 43.0186C99.959 43.1097 99.9316 43.2122 99.918 43.3262C99.918 43.349 99.918 43.3717 99.918 43.3945C99.918 43.4128 99.918 43.4355 99.918 43.4629V49H98.7148V43.4561C98.7148 43.3011 98.6966 43.1644 98.6602 43.0459C98.6283 42.9274 98.5758 42.8294 98.5029 42.752C98.4346 42.679 98.348 42.6266 98.2432 42.5947C98.1429 42.5583 98.0244 42.54 97.8877 42.54C97.7373 42.54 97.6051 42.5583 97.4912 42.5947C97.3818 42.6266 97.2884 42.6745 97.2109 42.7383C97.1517 42.7884 97.0993 42.8454 97.0537 42.9092C97.0127 42.973 96.9785 43.0413 96.9512 43.1143V49H95.748V41.6035H96.8828ZM104.908 41.6035H108.688V47.9062H111.102V49H104.908V47.9062H107.424V42.7041H104.908V41.6035ZM107.26 39.6621C107.26 39.5527 107.276 39.4502 107.308 39.3545C107.344 39.2588 107.399 39.1768 107.472 39.1084C107.531 39.0492 107.606 39.0036 107.697 38.9717C107.793 38.9352 107.9 38.917 108.019 38.917C108.137 38.917 108.242 38.9352 108.333 38.9717C108.424 39.0036 108.499 39.0492 108.559 39.1084C108.632 39.1722 108.686 39.252 108.723 39.3477C108.759 39.4434 108.777 39.5482 108.777 39.6621C108.777 39.8672 108.714 40.0381 108.586 40.1748C108.458 40.3115 108.269 40.3799 108.019 40.3799C107.763 40.3799 107.572 40.3115 107.444 40.1748C107.321 40.0381 107.26 39.8672 107.26 39.6621ZM113.316 38.5H117.097V47.9062H119.51V49H113.316V47.9062H115.832V39.6006H113.316V38.5ZM122.121 51.9873C122.003 51.9873 121.864 51.9736 121.704 51.9463C121.545 51.9189 121.424 51.8962 121.342 51.8779L121.547 50.8457C121.661 50.8548 121.772 50.8617 121.882 50.8662C121.996 50.8753 122.085 50.8799 122.148 50.8799C122.322 50.8799 122.479 50.832 122.62 50.7363C122.766 50.6406 122.896 50.5267 123.01 50.3945C123.119 50.2624 123.213 50.1257 123.29 49.9844C123.372 49.8431 123.436 49.7269 123.481 49.6357L123.987 48.6514L120.802 41.6035H122.217L124.247 46.375L124.575 47.2705L124.924 46.4023L126.831 41.6035H128.246L124.493 50.1416C124.407 50.333 124.295 50.5358 124.158 50.75C124.026 50.9642 123.864 51.1624 123.673 51.3447C123.481 51.527 123.258 51.6797 123.003 51.8027C122.748 51.9258 122.454 51.9873 122.121 51.9873Z" fill="#201F1F"/>
<path d="M278.5 36C278.5 33.7909 280.291 32 282.5 32H375.5C377.709 32 379.5 33.7909 379.5 36V52C379.5 54.2091 377.709 56 375.5 56H282.5C280.291 56 278.5 54.2091 278.5 52V36Z" fill="#E1E1E0"/>
<path d="M285.831 49V42.5811H283.794V41.6035H285.831V41.084C285.831 40.61 285.899 40.1953 286.036 39.8398C286.177 39.4798 286.376 39.179 286.631 38.9375C286.882 38.696 287.185 38.5137 287.54 38.3906C287.896 38.2676 288.292 38.2061 288.729 38.2061C288.912 38.2061 289.092 38.2174 289.27 38.2402C289.447 38.2585 289.623 38.2835 289.796 38.3154C289.91 38.3382 290.024 38.3633 290.138 38.3906C290.252 38.4134 290.368 38.4408 290.486 38.4727L290.336 39.5186C290.149 39.4548 289.93 39.4001 289.68 39.3545C289.434 39.3044 289.169 39.2793 288.887 39.2793C288.6 39.2793 288.344 39.3158 288.121 39.3887C287.902 39.457 287.72 39.5618 287.574 39.7031C287.419 39.849 287.301 40.0381 287.219 40.2705C287.141 40.5029 287.103 40.7741 287.103 41.084V41.6035H289.953V42.5811H287.103V49H285.831ZM291.997 45.2334C291.997 44.7002 292.075 44.2057 292.229 43.75C292.384 43.2897 292.608 42.891 292.899 42.5537C293.187 42.2165 293.537 41.9521 293.952 41.7607C294.367 41.5648 294.834 41.4668 295.354 41.4668C295.878 41.4668 296.347 41.5648 296.762 41.7607C297.181 41.9521 297.536 42.2165 297.828 42.5537C298.115 42.891 298.336 43.2897 298.491 43.75C298.646 44.2057 298.724 44.7002 298.724 45.2334V45.3838C298.724 45.917 298.646 46.4115 298.491 46.8672C298.336 47.3229 298.115 47.7194 297.828 48.0566C297.536 48.3939 297.183 48.6582 296.769 48.8496C296.354 49.041 295.887 49.1367 295.367 49.1367C294.843 49.1367 294.371 49.041 293.952 48.8496C293.537 48.6582 293.187 48.3939 292.899 48.0566C292.608 47.7194 292.384 47.3229 292.229 46.8672C292.075 46.4115 291.997 45.917 291.997 45.3838V45.2334ZM293.262 45.3838C293.262 45.7484 293.305 46.097 293.392 46.4297C293.478 46.7578 293.61 47.0472 293.788 47.2979C293.961 47.5485 294.18 47.7467 294.444 47.8926C294.709 48.0384 295.016 48.1113 295.367 48.1113C295.714 48.1113 296.017 48.0384 296.276 47.8926C296.541 47.7467 296.762 47.5485 296.939 47.2979C297.113 47.0472 297.243 46.7578 297.329 46.4297C297.416 46.097 297.459 45.7484 297.459 45.3838V45.2334C297.459 44.8734 297.413 44.5293 297.322 44.2012C297.236 43.8685 297.106 43.5768 296.933 43.3262C296.755 43.0755 296.534 42.8773 296.27 42.7314C296.01 42.5811 295.704 42.5059 295.354 42.5059C295.003 42.5059 294.697 42.5811 294.438 42.7314C294.178 42.8773 293.961 43.0755 293.788 43.3262C293.61 43.5768 293.478 43.8685 293.392 44.2012C293.305 44.5293 293.262 44.8734 293.262 45.2334V45.3838ZM300.761 49V41.6035H301.896L301.984 42.6973C302.094 42.5423 302.212 42.401 302.34 42.2734C302.472 42.1413 302.611 42.0273 302.757 41.9316C302.976 41.7858 303.213 41.6742 303.468 41.5967C303.728 41.5146 304.001 41.4714 304.288 41.4668C304.675 41.4668 305.026 41.5215 305.341 41.6309C305.66 41.7402 305.931 41.9111 306.154 42.1436C306.378 42.376 306.549 42.6722 306.667 43.0322C306.79 43.3877 306.852 43.8115 306.852 44.3037V49H305.587V44.3311C305.587 44.0029 305.55 43.7249 305.478 43.4971C305.405 43.2692 305.298 43.0846 305.156 42.9434C305.01 42.8021 304.833 42.6995 304.623 42.6357C304.418 42.5719 304.181 42.54 303.912 42.54C303.68 42.54 303.463 42.5742 303.263 42.6426C303.062 42.7064 302.878 42.7952 302.709 42.9092C302.572 43.0094 302.445 43.1257 302.326 43.2578C302.212 43.39 302.112 43.5358 302.025 43.6953V49H300.761ZM312.163 39.8125V41.6035H314.979V42.5811H312.163V46.6006C312.163 46.8877 312.2 47.1247 312.272 47.3115C312.345 47.4984 312.446 47.6465 312.573 47.7559C312.701 47.8698 312.847 47.9495 313.011 47.9951C313.179 48.0407 313.357 48.0635 313.544 48.0635C313.681 48.0635 313.822 48.0566 313.968 48.043C314.114 48.0247 314.257 48.0042 314.398 47.9814C314.535 47.9587 314.663 47.9359 314.781 47.9131C314.904 47.8857 315.005 47.863 315.082 47.8447L315.26 48.7402C315.155 48.804 315.027 48.861 314.877 48.9111C314.727 48.9567 314.562 48.9954 314.385 49.0273C314.207 49.0638 314.018 49.0911 313.817 49.1094C313.621 49.1276 313.425 49.1367 313.229 49.1367C312.901 49.1367 312.594 49.0911 312.307 49C312.024 48.9043 311.778 48.7539 311.568 48.5488C311.359 48.3483 311.192 48.0885 311.069 47.7695C310.951 47.446 310.892 47.0563 310.892 46.6006V42.5811H308.95V41.6035H310.892V39.8125H312.163ZM323.716 50.0322H317.447V49H323.716V50.0322ZM326.696 49L325.124 41.6035H326.245L327.106 46.3203L327.257 47.3799L327.441 46.3203L328.624 41.6035H329.438L330.613 46.3203L330.812 47.4824L330.996 46.3203L331.816 41.6035H332.938L331.365 49H330.367L329.212 44.4678L329.021 43.3193L328.836 44.4678L327.694 49H326.696ZM337.661 49.1367C337.142 49.1367 336.663 49.0479 336.226 48.8701C335.793 48.6924 335.421 48.444 335.111 48.125C334.801 47.806 334.56 47.4277 334.387 46.9902C334.214 46.5527 334.127 46.0765 334.127 45.5615V45.2744C334.127 44.6774 334.223 44.1442 334.414 43.6748C334.605 43.2008 334.861 42.7998 335.18 42.4717C335.494 42.1481 335.852 41.8997 336.253 41.7266C336.659 41.5534 337.073 41.4668 337.497 41.4668C338.03 41.4668 338.495 41.5602 338.892 41.7471C339.293 41.9294 339.625 42.1823 339.89 42.5059C340.154 42.834 340.35 43.2191 340.478 43.6611C340.61 44.1032 340.676 44.5817 340.676 45.0967V45.6641H335.392V45.7119C335.424 46.0719 335.494 46.3887 335.604 46.6621C335.717 46.9355 335.872 47.1771 336.068 47.3867C336.269 47.61 336.51 47.7855 336.793 47.9131C337.076 48.0407 337.388 48.1045 337.729 48.1045C338.181 48.1045 338.582 48.0133 338.933 47.8311C339.284 47.6488 339.575 47.4072 339.808 47.1064L340.58 47.708C340.334 48.0817 339.965 48.4144 339.473 48.7061C338.985 48.9932 338.381 49.1367 337.661 49.1367ZM337.497 42.5059C337.242 42.5059 337 42.5537 336.772 42.6494C336.545 42.7406 336.34 42.875 336.157 43.0527C335.975 43.235 335.82 43.4583 335.692 43.7227C335.569 43.9824 335.483 44.2832 335.433 44.625H339.411V44.5635C339.411 44.3356 339.368 44.0918 339.281 43.832C339.195 43.5677 339.074 43.3398 338.919 43.1484C338.764 42.957 338.568 42.8021 338.331 42.6836C338.099 42.5651 337.821 42.5059 337.497 42.5059ZM343 41.6035H346.78V47.9062H349.193V49H343V47.9062H345.516V42.7041H343V41.6035ZM345.352 39.6621C345.352 39.5527 345.368 39.4502 345.399 39.3545C345.436 39.2588 345.491 39.1768 345.563 39.1084C345.623 39.0492 345.698 39.0036 345.789 38.9717C345.885 38.9352 345.992 38.917 346.11 38.917C346.229 38.917 346.334 38.9352 346.425 38.9717C346.516 39.0036 346.591 39.0492 346.65 39.1084C346.723 39.1722 346.778 39.252 346.814 39.3477C346.851 39.4434 346.869 39.5482 346.869 39.6621C346.869 39.8672 346.805 40.0381 346.678 40.1748C346.55 40.3115 346.361 40.3799 346.11 40.3799C345.855 40.3799 345.664 40.3115 345.536 40.1748C345.413 40.0381 345.352 39.8672 345.352 39.6621ZM350.978 45.2402C350.978 44.6888 351.044 44.1829 351.176 43.7227C351.312 43.2578 351.508 42.859 351.764 42.5264C352.019 42.1937 352.329 41.9339 352.693 41.7471C353.058 41.5602 353.47 41.4668 353.931 41.4668C354.227 41.4668 354.498 41.501 354.744 41.5693C354.995 41.6377 355.22 41.738 355.421 41.8701C355.53 41.9385 355.633 42.0182 355.729 42.1094C355.829 42.2005 355.922 42.3008 356.009 42.4102L356.07 41.6035H357.219V48.8428C357.219 49.3304 357.141 49.7633 356.986 50.1416C356.836 50.5199 356.624 50.8411 356.351 51.1055C356.073 51.3698 355.742 51.5703 355.359 51.707C354.977 51.8438 354.553 51.9121 354.088 51.9121C353.896 51.9121 353.678 51.8893 353.432 51.8438C353.186 51.8027 352.937 51.7321 352.687 51.6318C352.431 51.5361 352.185 51.4062 351.948 51.2422C351.716 51.0781 351.515 50.8753 351.347 50.6338L352.003 49.875C352.158 50.0618 352.317 50.2191 352.481 50.3467C352.646 50.4788 352.812 50.5837 352.98 50.6611C353.149 50.7386 353.318 50.7933 353.486 50.8252C353.655 50.8617 353.824 50.8799 353.992 50.8799C354.293 50.8799 354.564 50.8366 354.806 50.75C355.047 50.6634 355.255 50.5358 355.428 50.3672C355.596 50.2031 355.726 49.998 355.817 49.752C355.909 49.5059 355.954 49.2233 355.954 48.9043V48.2686C355.858 48.3779 355.756 48.4782 355.646 48.5693C355.542 48.6605 355.428 48.7402 355.305 48.8086C355.113 48.9134 354.901 48.9932 354.669 49.0479C354.437 49.1071 354.186 49.1367 353.917 49.1367C353.466 49.1367 353.058 49.041 352.693 48.8496C352.329 48.6582 352.021 48.3939 351.771 48.0566C351.515 47.7194 351.319 47.3229 351.183 46.8672C351.046 46.4069 350.978 45.9124 350.978 45.3838V45.2402ZM352.242 45.3838C352.242 45.7438 352.279 46.0856 352.352 46.4092C352.429 46.7327 352.55 47.0176 352.714 47.2637C352.873 47.5098 353.078 47.7057 353.329 47.8516C353.58 47.9928 353.881 48.0635 354.231 48.0635C354.45 48.0635 354.646 48.0384 354.819 47.9883C354.997 47.9336 355.157 47.8584 355.298 47.7627C355.435 47.667 355.558 47.5531 355.667 47.4209C355.776 47.2887 355.872 47.1429 355.954 46.9834V43.5928C355.872 43.4378 355.776 43.2965 355.667 43.1689C355.558 43.0413 355.432 42.9297 355.291 42.834C355.15 42.7428 354.993 42.6722 354.819 42.6221C354.646 42.5674 354.455 42.54 354.245 42.54C353.89 42.54 353.584 42.613 353.329 42.7588C353.078 42.9046 352.873 43.1006 352.714 43.3467C352.55 43.5973 352.429 43.8867 352.352 44.2148C352.279 44.5384 352.242 44.8802 352.242 45.2402V45.3838ZM360.883 42.7041C360.983 42.5537 361.095 42.417 361.218 42.2939C361.341 42.1663 361.471 42.0547 361.607 41.959C361.826 41.7995 362.065 41.6787 362.325 41.5967C362.59 41.5146 362.87 41.4714 363.166 41.4668C363.553 41.4668 363.904 41.5238 364.219 41.6377C364.538 41.7471 364.809 41.9202 365.032 42.1572C365.256 42.3942 365.426 42.695 365.545 43.0596C365.668 43.4196 365.729 43.848 365.729 44.3447V49H364.465V44.3311C364.465 44.0394 364.431 43.7842 364.362 43.5654C364.294 43.3421 364.194 43.1576 364.062 43.0117C363.92 42.8522 363.743 42.7337 363.528 42.6562C363.314 42.5742 363.068 42.5355 362.79 42.54C362.562 42.54 362.346 42.5719 362.141 42.6357C361.936 42.6995 361.746 42.7907 361.573 42.9092C361.437 43.0003 361.309 43.1074 361.19 43.2305C361.076 43.349 360.974 43.4811 360.883 43.627V49H359.618V38.5H360.883V42.7041ZM371.021 39.8125V41.6035H373.837V42.5811H371.021V46.6006C371.021 46.8877 371.057 47.1247 371.13 47.3115C371.203 47.4984 371.303 47.6465 371.431 47.7559C371.558 47.8698 371.704 47.9495 371.868 47.9951C372.037 48.0407 372.215 48.0635 372.401 48.0635C372.538 48.0635 372.679 48.0566 372.825 48.043C372.971 48.0247 373.115 48.0042 373.256 47.9814C373.393 47.9587 373.52 47.9359 373.639 47.9131C373.762 47.8857 373.862 47.863 373.939 47.8447L374.117 48.7402C374.012 48.804 373.885 48.861 373.734 48.9111C373.584 48.9567 373.42 48.9954 373.242 49.0273C373.064 49.0638 372.875 49.0911 372.675 49.1094C372.479 49.1276 372.283 49.1367 372.087 49.1367C371.759 49.1367 371.451 49.0911 371.164 49C370.882 48.9043 370.635 48.7539 370.426 48.5488C370.216 48.3483 370.05 48.0885 369.927 47.7695C369.808 47.446 369.749 47.0563 369.749 46.6006V42.5811H367.808V41.6035H369.749V39.8125H371.021Z" fill="#201F1F"/>
<path d="M525 36C525 33.7909 526.791 32 529 32H605C607.209 32 609 33.7909 609 36V52C609 54.2091 607.209 56 605 56H529C526.791 56 525 54.2091 525 52V36Z" fill="#E1E1E0"/>
<path d="M532.239 49V42.5811H530.202V41.6035H532.239V41.084C532.239 40.61 532.308 40.1953 532.444 39.8398C532.586 39.4798 532.784 39.179 533.039 38.9375C533.29 38.696 533.593 38.5137 533.948 38.3906C534.304 38.2676 534.7 38.2061 535.138 38.2061C535.32 38.2061 535.5 38.2174 535.678 38.2402C535.855 38.2585 536.031 38.2835 536.204 38.3154C536.318 38.3382 536.432 38.3633 536.546 38.3906C536.66 38.4134 536.776 38.4408 536.895 38.4727L536.744 39.5186C536.557 39.4548 536.339 39.4001 536.088 39.3545C535.842 39.3044 535.577 39.2793 535.295 39.2793C535.008 39.2793 534.753 39.3158 534.529 39.3887C534.311 39.457 534.128 39.5618 533.982 39.7031C533.827 39.849 533.709 40.0381 533.627 40.2705C533.549 40.5029 533.511 40.7741 533.511 41.084V41.6035H536.361V42.5811H533.511V49H532.239ZM538.405 45.2334C538.405 44.7002 538.483 44.2057 538.638 43.75C538.793 43.2897 539.016 42.891 539.308 42.5537C539.595 42.2165 539.946 41.9521 540.36 41.7607C540.775 41.5648 541.242 41.4668 541.762 41.4668C542.286 41.4668 542.755 41.5648 543.17 41.7607C543.589 41.9521 543.945 42.2165 544.236 42.5537C544.523 42.891 544.744 43.2897 544.899 43.75C545.054 44.2057 545.132 44.7002 545.132 45.2334V45.3838C545.132 45.917 545.054 46.4115 544.899 46.8672C544.744 47.3229 544.523 47.7194 544.236 48.0566C543.945 48.3939 543.591 48.6582 543.177 48.8496C542.762 49.041 542.295 49.1367 541.775 49.1367C541.251 49.1367 540.78 49.041 540.36 48.8496C539.946 48.6582 539.595 48.3939 539.308 48.0566C539.016 47.7194 538.793 47.3229 538.638 46.8672C538.483 46.4115 538.405 45.917 538.405 45.3838V45.2334ZM539.67 45.3838C539.67 45.7484 539.713 46.097 539.8 46.4297C539.886 46.7578 540.019 47.0472 540.196 47.2979C540.369 47.5485 540.588 47.7467 540.853 47.8926C541.117 48.0384 541.424 48.1113 541.775 48.1113C542.122 48.1113 542.425 48.0384 542.685 47.8926C542.949 47.7467 543.17 47.5485 543.348 47.2979C543.521 47.0472 543.651 46.7578 543.737 46.4297C543.824 46.097 543.867 45.7484 543.867 45.3838V45.2334C543.867 44.8734 543.822 44.5293 543.73 44.2012C543.644 43.8685 543.514 43.5768 543.341 43.3262C543.163 43.0755 542.942 42.8773 542.678 42.7314C542.418 42.5811 542.113 42.5059 541.762 42.5059C541.411 42.5059 541.105 42.5811 540.846 42.7314C540.586 42.8773 540.369 43.0755 540.196 43.3262C540.019 43.5768 539.886 43.8685 539.8 44.2012C539.713 44.5293 539.67 44.8734 539.67 45.2334V45.3838ZM547.169 49V41.6035H548.304L548.393 42.6973C548.502 42.5423 548.62 42.401 548.748 42.2734C548.88 42.1413 549.019 42.0273 549.165 41.9316C549.384 41.7858 549.621 41.6742 549.876 41.5967C550.136 41.5146 550.409 41.4714 550.696 41.4668C551.084 41.4668 551.435 41.5215 551.749 41.6309C552.068 41.7402 552.339 41.9111 552.562 42.1436C552.786 42.376 552.957 42.6722 553.075 43.0322C553.198 43.3877 553.26 43.8115 553.26 44.3037V49H551.995V44.3311C551.995 44.0029 551.959 43.7249 551.886 43.4971C551.813 43.2692 551.706 43.0846 551.564 42.9434C551.419 42.8021 551.241 42.6995 551.031 42.6357C550.826 42.5719 550.589 42.54 550.32 42.54C550.088 42.54 549.871 42.5742 549.671 42.6426C549.47 42.7064 549.286 42.7952 549.117 42.9092C548.98 43.0094 548.853 43.1257 548.734 43.2578C548.62 43.39 548.52 43.5358 548.434 43.6953V49H547.169ZM558.571 39.8125V41.6035H561.388V42.5811H558.571V46.6006C558.571 46.8877 558.608 47.1247 558.681 47.3115C558.754 47.4984 558.854 47.6465 558.981 47.7559C559.109 47.8698 559.255 47.9495 559.419 47.9951C559.588 48.0407 559.765 48.0635 559.952 48.0635C560.089 48.0635 560.23 48.0566 560.376 48.043C560.522 48.0247 560.665 48.0042 560.807 47.9814C560.943 47.9587 561.071 47.9359 561.189 47.9131C561.312 47.8857 561.413 47.863 561.49 47.8447L561.668 48.7402C561.563 48.804 561.436 48.861 561.285 48.9111C561.135 48.9567 560.971 48.9954 560.793 49.0273C560.615 49.0638 560.426 49.0911 560.226 49.1094C560.03 49.1276 559.834 49.1367 559.638 49.1367C559.31 49.1367 559.002 49.0911 558.715 49C558.432 48.9043 558.186 48.7539 557.977 48.5488C557.767 48.3483 557.601 48.0885 557.478 47.7695C557.359 47.446 557.3 47.0563 557.3 46.6006V42.5811H555.358V41.6035H557.3V39.8125H558.571ZM570.124 50.0322H563.855V49H570.124V50.0322ZM577.309 47.0381C577.309 46.8877 577.279 46.7533 577.22 46.6348C577.16 46.5117 577.06 46.4001 576.919 46.2998C576.778 46.1995 576.591 46.1084 576.358 46.0264C576.126 45.9398 575.837 45.8623 575.49 45.7939C575.066 45.7074 574.679 45.6025 574.328 45.4795C573.982 45.3564 573.686 45.2083 573.439 45.0352C573.189 44.8665 572.995 44.6683 572.858 44.4404C572.722 44.208 572.653 43.9391 572.653 43.6338C572.653 43.333 572.724 43.0527 572.865 42.793C573.007 42.5286 573.205 42.2985 573.46 42.1025C573.715 41.9066 574.018 41.7516 574.369 41.6377C574.725 41.5238 575.114 41.4668 575.538 41.4668C575.994 41.4668 576.404 41.526 576.769 41.6445C577.133 41.763 577.443 41.9271 577.698 42.1367C577.953 42.3464 578.149 42.5924 578.286 42.875C578.427 43.153 578.498 43.4538 578.498 43.7773H577.233C577.233 43.6178 577.192 43.4629 577.11 43.3125C577.028 43.1576 576.914 43.0208 576.769 42.9023C576.623 42.7839 576.445 42.6882 576.235 42.6152C576.03 42.5423 575.798 42.5059 575.538 42.5059C575.269 42.5059 575.032 42.5355 574.827 42.5947C574.627 42.654 574.46 42.7337 574.328 42.834C574.191 42.9342 574.089 43.0505 574.021 43.1826C573.952 43.3148 573.918 43.4515 573.918 43.5928C573.918 43.7386 573.945 43.8685 574 43.9824C574.055 44.0964 574.15 44.1989 574.287 44.29C574.419 44.3812 574.597 44.4632 574.82 44.5361C575.048 44.609 575.335 44.6797 575.682 44.748C576.137 44.8438 576.545 44.9554 576.905 45.083C577.265 45.2061 577.568 45.3542 577.814 45.5273C578.061 45.7051 578.247 45.9102 578.375 46.1426C578.507 46.375 578.573 46.6439 578.573 46.9492C578.573 47.2773 578.498 47.5758 578.348 47.8447C578.202 48.1136 577.997 48.3438 577.732 48.5352C577.468 48.7266 577.151 48.8747 576.782 48.9795C576.413 49.0843 576.01 49.1367 575.572 49.1367C575.071 49.1367 574.624 49.0706 574.232 48.9385C573.84 48.8018 573.51 48.6217 573.241 48.3984C572.968 48.1797 572.758 47.9245 572.612 47.6328C572.471 47.3411 572.4 47.0381 572.4 46.7236H573.665C573.683 46.9834 573.752 47.2021 573.87 47.3799C573.993 47.5576 574.146 47.7012 574.328 47.8105C574.506 47.9199 574.704 47.9974 574.923 48.043C575.142 48.0885 575.358 48.1113 575.572 48.1113C575.91 48.1113 576.203 48.0726 576.454 47.9951C576.705 47.9131 576.901 47.8014 577.042 47.6602C577.129 47.5736 577.195 47.4779 577.24 47.373C577.286 47.2682 577.309 47.1566 577.309 47.0381ZM581 41.6035H584.78V47.9062H587.193V49H581V47.9062H583.516V42.7041H581V41.6035ZM583.352 39.6621C583.352 39.5527 583.368 39.4502 583.399 39.3545C583.436 39.2588 583.491 39.1768 583.563 39.1084C583.623 39.0492 583.698 39.0036 583.789 38.9717C583.885 38.9352 583.992 38.917 584.11 38.917C584.229 38.917 584.334 38.9352 584.425 38.9717C584.516 39.0036 584.591 39.0492 584.65 39.1084C584.723 39.1722 584.778 39.252 584.814 39.3477C584.851 39.4434 584.869 39.5482 584.869 39.6621C584.869 39.8672 584.805 40.0381 584.678 40.1748C584.55 40.3115 584.361 40.3799 584.11 40.3799C583.855 40.3799 583.664 40.3115 583.536 40.1748C583.413 40.0381 583.352 39.8672 583.352 39.6621ZM590.728 47.9678H595.438V49H589.114V48.0703L593.53 42.6494H589.176V41.6035H595.191V42.499L590.728 47.9678ZM600.886 49.1367C600.366 49.1367 599.888 49.0479 599.45 48.8701C599.017 48.6924 598.646 48.444 598.336 48.125C598.026 47.806 597.785 47.4277 597.611 46.9902C597.438 46.5527 597.352 46.0765 597.352 45.5615V45.2744C597.352 44.6774 597.447 44.1442 597.639 43.6748C597.83 43.2008 598.085 42.7998 598.404 42.4717C598.719 42.1481 599.076 41.8997 599.478 41.7266C599.883 41.5534 600.298 41.4668 600.722 41.4668C601.255 41.4668 601.72 41.5602 602.116 41.7471C602.517 41.9294 602.85 42.1823 603.114 42.5059C603.379 42.834 603.575 43.2191 603.702 43.6611C603.834 44.1032 603.9 44.5817 603.9 45.0967V45.6641H598.616V45.7119C598.648 46.0719 598.719 46.3887 598.828 46.6621C598.942 46.9355 599.097 47.1771 599.293 47.3867C599.493 47.61 599.735 47.7855 600.018 47.9131C600.3 48.0407 600.612 48.1045 600.954 48.1045C601.405 48.1045 601.806 48.0133 602.157 47.8311C602.508 47.6488 602.8 47.4072 603.032 47.1064L603.805 47.708C603.559 48.0817 603.189 48.4144 602.697 48.7061C602.21 48.9932 601.606 49.1367 600.886 49.1367ZM600.722 42.5059C600.466 42.5059 600.225 42.5537 599.997 42.6494C599.769 42.7406 599.564 42.875 599.382 43.0527C599.2 43.235 599.045 43.4583 598.917 43.7227C598.794 43.9824 598.707 44.2832 598.657 44.625H602.636V44.5635C602.636 44.3356 602.592 44.0918 602.506 43.832C602.419 43.5677 602.299 43.3398 602.144 43.1484C601.989 42.957 601.793 42.8021 601.556 42.6836C601.323 42.5651 601.045 42.5059 600.722 42.5059Z" fill="#201F1F"/>
<path d="M754.5 36C754.5 33.7909 756.291 32 758.5 32H851.5C853.709 32 855.5 33.7909 855.5 36V52C855.5 54.2091 853.709 56 851.5 56H758.5C756.291 56 754.5 54.2091 754.5 52V36Z" fill="#E1E1E0"/>
<path d="M760.143 38.5H763.923V47.9062H766.336V49H760.143V47.9062H762.658V39.6006H760.143V38.5ZM768.551 41.6035H772.331V47.9062H774.744V49H768.551V47.9062H771.066V42.7041H768.551V41.6035ZM770.902 39.6621C770.902 39.5527 770.918 39.4502 770.95 39.3545C770.987 39.2588 771.041 39.1768 771.114 39.1084C771.174 39.0492 771.249 39.0036 771.34 38.9717C771.436 38.9352 771.543 38.917 771.661 38.917C771.78 38.917 771.884 38.9352 771.976 38.9717C772.067 39.0036 772.142 39.0492 772.201 39.1084C772.274 39.1722 772.329 39.252 772.365 39.3477C772.402 39.4434 772.42 39.5482 772.42 39.6621C772.42 39.8672 772.356 40.0381 772.229 40.1748C772.101 40.3115 771.912 40.3799 771.661 40.3799C771.406 40.3799 771.215 40.3115 771.087 40.1748C770.964 40.0381 770.902 39.8672 770.902 39.6621ZM776.761 49V41.6035H777.896L777.984 42.6973C778.094 42.5423 778.212 42.401 778.34 42.2734C778.472 42.1413 778.611 42.0273 778.757 41.9316C778.976 41.7858 779.213 41.6742 779.468 41.5967C779.728 41.5146 780.001 41.4714 780.288 41.4668C780.675 41.4668 781.026 41.5215 781.341 41.6309C781.66 41.7402 781.931 41.9111 782.154 42.1436C782.378 42.376 782.549 42.6722 782.667 43.0322C782.79 43.3877 782.852 43.8115 782.852 44.3037V49H781.587V44.3311C781.587 44.0029 781.55 43.7249 781.478 43.4971C781.405 43.2692 781.298 43.0846 781.156 42.9434C781.01 42.8021 780.833 42.6995 780.623 42.6357C780.418 42.5719 780.181 42.54 779.912 42.54C779.68 42.54 779.463 42.5742 779.263 42.6426C779.062 42.7064 778.878 42.7952 778.709 42.9092C778.572 43.0094 778.445 43.1257 778.326 43.2578C778.212 43.39 778.112 43.5358 778.025 43.6953V49H776.761ZM788.437 49.1367C787.917 49.1367 787.438 49.0479 787.001 48.8701C786.568 48.6924 786.197 48.444 785.887 48.125C785.577 47.806 785.335 47.4277 785.162 46.9902C784.989 46.5527 784.902 46.0765 784.902 45.5615V45.2744C784.902 44.6774 784.998 44.1442 785.189 43.6748C785.381 43.2008 785.636 42.7998 785.955 42.4717C786.27 42.1481 786.627 41.8997 787.028 41.7266C787.434 41.5534 787.849 41.4668 788.272 41.4668C788.806 41.4668 789.271 41.5602 789.667 41.7471C790.068 41.9294 790.401 42.1823 790.665 42.5059C790.929 42.834 791.125 43.2191 791.253 43.6611C791.385 44.1032 791.451 44.5817 791.451 45.0967V45.6641H786.167V45.7119C786.199 46.0719 786.27 46.3887 786.379 46.6621C786.493 46.9355 786.648 47.1771 786.844 47.3867C787.044 47.61 787.286 47.7855 787.568 47.9131C787.851 48.0407 788.163 48.1045 788.505 48.1045C788.956 48.1045 789.357 48.0133 789.708 47.8311C790.059 47.6488 790.351 47.4072 790.583 47.1064L791.355 47.708C791.109 48.0817 790.74 48.4144 790.248 48.7061C789.76 48.9932 789.157 49.1367 788.437 49.1367ZM788.272 42.5059C788.017 42.5059 787.776 42.5537 787.548 42.6494C787.32 42.7406 787.115 42.875 786.933 43.0527C786.75 43.235 786.595 43.4583 786.468 43.7227C786.345 43.9824 786.258 44.2832 786.208 44.625H790.187V44.5635C790.187 44.3356 790.143 44.0918 790.057 43.832C789.97 43.5677 789.849 43.3398 789.694 43.1484C789.539 42.957 789.343 42.8021 789.106 42.6836C788.874 42.5651 788.596 42.5059 788.272 42.5059ZM799.716 50.0322H793.447V49H799.716V50.0322ZM803.25 42.7041C803.35 42.5537 803.462 42.417 803.585 42.2939C803.708 42.1663 803.838 42.0547 803.975 41.959C804.193 41.7995 804.433 41.6787 804.692 41.5967C804.957 41.5146 805.237 41.4714 805.533 41.4668C805.921 41.4668 806.271 41.5238 806.586 41.6377C806.905 41.7471 807.176 41.9202 807.399 42.1572C807.623 42.3942 807.794 42.695 807.912 43.0596C808.035 43.4196 808.097 43.848 808.097 44.3447V49H806.832V44.3311C806.832 44.0394 806.798 43.7842 806.729 43.5654C806.661 43.3421 806.561 43.1576 806.429 43.0117C806.287 42.8522 806.11 42.7337 805.896 42.6562C805.681 42.5742 805.435 42.5355 805.157 42.54C804.929 42.54 804.713 42.5719 804.508 42.6357C804.303 42.6995 804.114 42.7907 803.94 42.9092C803.804 43.0003 803.676 43.1074 803.558 43.2305C803.444 43.349 803.341 43.4811 803.25 43.627V49H801.985V38.5H803.25V42.7041ZM813.661 49.1367C813.142 49.1367 812.663 49.0479 812.226 48.8701C811.793 48.6924 811.421 48.444 811.111 48.125C810.801 47.806 810.56 47.4277 810.387 46.9902C810.214 46.5527 810.127 46.0765 810.127 45.5615V45.2744C810.127 44.6774 810.223 44.1442 810.414 43.6748C810.605 43.2008 810.861 42.7998 811.18 42.4717C811.494 42.1481 811.852 41.8997 812.253 41.7266C812.659 41.5534 813.073 41.4668 813.497 41.4668C814.03 41.4668 814.495 41.5602 814.892 41.7471C815.293 41.9294 815.625 42.1823 815.89 42.5059C816.154 42.834 816.35 43.2191 816.478 43.6611C816.61 44.1032 816.676 44.5817 816.676 45.0967V45.6641H811.392V45.7119C811.424 46.0719 811.494 46.3887 811.604 46.6621C811.717 46.9355 811.872 47.1771 812.068 47.3867C812.269 47.61 812.51 47.7855 812.793 47.9131C813.076 48.0407 813.388 48.1045 813.729 48.1045C814.181 48.1045 814.582 48.0133 814.933 47.8311C815.284 47.6488 815.575 47.4072 815.808 47.1064L816.58 47.708C816.334 48.0817 815.965 48.4144 815.473 48.7061C814.985 48.9932 814.381 49.1367 813.661 49.1367ZM813.497 42.5059C813.242 42.5059 813 42.5537 812.772 42.6494C812.545 42.7406 812.34 42.875 812.157 43.0527C811.975 43.235 811.82 43.4583 811.692 43.7227C811.569 43.9824 811.483 44.2832 811.433 44.625H815.411V44.5635C815.411 44.3356 815.368 44.0918 815.281 43.832C815.195 43.5677 815.074 43.3398 814.919 43.1484C814.764 42.957 814.568 42.8021 814.331 42.6836C814.099 42.5651 813.821 42.5059 813.497 42.5059ZM819 41.6035H822.78V47.9062H825.193V49H819V47.9062H821.516V42.7041H819V41.6035ZM821.352 39.6621C821.352 39.5527 821.368 39.4502 821.399 39.3545C821.436 39.2588 821.491 39.1768 821.563 39.1084C821.623 39.0492 821.698 39.0036 821.789 38.9717C821.885 38.9352 821.992 38.917 822.11 38.917C822.229 38.917 822.334 38.9352 822.425 38.9717C822.516 39.0036 822.591 39.0492 822.65 39.1084C822.723 39.1722 822.778 39.252 822.814 39.3477C822.851 39.4434 822.869 39.5482 822.869 39.6621C822.869 39.8672 822.805 40.0381 822.678 40.1748C822.55 40.3115 822.361 40.3799 822.11 40.3799C821.855 40.3799 821.664 40.3115 821.536 40.1748C821.413 40.0381 821.352 39.8672 821.352 39.6621ZM826.978 45.2402C826.978 44.6888 827.044 44.1829 827.176 43.7227C827.312 43.2578 827.508 42.859 827.764 42.5264C828.019 42.1937 828.329 41.9339 828.693 41.7471C829.058 41.5602 829.47 41.4668 829.931 41.4668C830.227 41.4668 830.498 41.501 830.744 41.5693C830.995 41.6377 831.22 41.738 831.421 41.8701C831.53 41.9385 831.633 42.0182 831.729 42.1094C831.829 42.2005 831.922 42.3008 832.009 42.4102L832.07 41.6035H833.219V48.8428C833.219 49.3304 833.141 49.7633 832.986 50.1416C832.836 50.5199 832.624 50.8411 832.351 51.1055C832.073 51.3698 831.742 51.5703 831.359 51.707C830.977 51.8438 830.553 51.9121 830.088 51.9121C829.896 51.9121 829.678 51.8893 829.432 51.8438C829.186 51.8027 828.937 51.7321 828.687 51.6318C828.431 51.5361 828.185 51.4062 827.948 51.2422C827.716 51.0781 827.515 50.8753 827.347 50.6338L828.003 49.875C828.158 50.0618 828.317 50.2191 828.481 50.3467C828.646 50.4788 828.812 50.5837 828.98 50.6611C829.149 50.7386 829.318 50.7933 829.486 50.8252C829.655 50.8617 829.824 50.8799 829.992 50.8799C830.293 50.8799 830.564 50.8366 830.806 50.75C831.047 50.6634 831.255 50.5358 831.428 50.3672C831.596 50.2031 831.726 49.998 831.817 49.752C831.909 49.5059 831.954 49.2233 831.954 48.9043V48.2686C831.858 48.3779 831.756 48.4782 831.646 48.5693C831.542 48.6605 831.428 48.7402 831.305 48.8086C831.113 48.9134 830.901 48.9932 830.669 49.0479C830.437 49.1071 830.186 49.1367 829.917 49.1367C829.466 49.1367 829.058 49.041 828.693 48.8496C828.329 48.6582 828.021 48.3939 827.771 48.0566C827.515 47.7194 827.319 47.3229 827.183 46.8672C827.046 46.4069 826.978 45.9124 826.978 45.3838V45.2402ZM828.242 45.3838C828.242 45.7438 828.279 46.0856 828.352 46.4092C828.429 46.7327 828.55 47.0176 828.714 47.2637C828.873 47.5098 829.078 47.7057 829.329 47.8516C829.58 47.9928 829.881 48.0635 830.231 48.0635C830.45 48.0635 830.646 48.0384 830.819 47.9883C830.997 47.9336 831.157 47.8584 831.298 47.7627C831.435 47.667 831.558 47.5531 831.667 47.4209C831.776 47.2887 831.872 47.1429 831.954 46.9834V43.5928C831.872 43.4378 831.776 43.2965 831.667 43.1689C831.558 43.0413 831.432 42.9297 831.291 42.834C831.15 42.7428 830.993 42.6722 830.819 42.6221C830.646 42.5674 830.455 42.54 830.245 42.54C829.89 42.54 829.584 42.613 829.329 42.7588C829.078 42.9046 828.873 43.1006 828.714 43.3467C828.55 43.5973 828.429 43.8867 828.352 44.2148C828.279 44.5384 828.242 44.8802 828.242 45.2402V45.3838ZM836.883 42.7041C836.983 42.5537 837.095 42.417 837.218 42.2939C837.341 42.1663 837.471 42.0547 837.607 41.959C837.826 41.7995 838.065 41.6787 838.325 41.5967C838.59 41.5146 838.87 41.4714 839.166 41.4668C839.553 41.4668 839.904 41.5238 840.219 41.6377C840.538 41.7471 840.809 41.9202 841.032 42.1572C841.256 42.3942 841.426 42.695 841.545 43.0596C841.668 43.4196 841.729 43.848 841.729 44.3447V49H840.465V44.3311C840.465 44.0394 840.431 43.7842 840.362 43.5654C840.294 43.3421 840.194 43.1576 840.062 43.0117C839.92 42.8522 839.743 42.7337 839.528 42.6562C839.314 42.5742 839.068 42.5355 838.79 42.54C838.562 42.54 838.346 42.5719 838.141 42.6357C837.936 42.6995 837.746 42.7907 837.573 42.9092C837.437 43.0003 837.309 43.1074 837.19 43.2305C837.076 43.349 836.974 43.4811 836.883 43.627V49H835.618V38.5H836.883V42.7041ZM847.021 39.8125V41.6035H849.837V42.5811H847.021V46.6006C847.021 46.8877 847.057 47.1247 847.13 47.3115C847.203 47.4984 847.303 47.6465 847.431 47.7559C847.558 47.8698 847.704 47.9495 847.868 47.9951C848.037 48.0407 848.215 48.0635 848.401 48.0635C848.538 48.0635 848.679 48.0566 848.825 48.043C848.971 48.0247 849.115 48.0042 849.256 47.9814C849.393 47.9587 849.52 47.9359 849.639 47.9131C849.762 47.8857 849.862 47.863 849.939 47.8447L850.117 48.7402C850.012 48.804 849.885 48.861 849.734 48.9111C849.584 48.9567 849.42 48.9954 849.242 49.0273C849.064 49.0638 848.875 49.0911 848.675 49.1094C848.479 49.1276 848.283 49.1367 848.087 49.1367C847.759 49.1367 847.451 49.0911 847.164 49C846.882 48.9043 846.635 48.7539 846.426 48.5488C846.216 48.3483 846.05 48.0885 845.927 47.7695C845.808 47.446 845.749 47.0563 845.749 46.6006V42.5811H843.808V41.6035H845.749V39.8125H847.021Z" fill="#201F1F"/>
<path d="M1001 36C1001 33.7909 1002.79 32 1005 32H1123C1125.21 32 1127 33.7909 1127 36V52C1127 54.2091 1125.21 56 1123 56H1005C1002.79 56 1001 54.2091 1001 52V36Z" fill="#E1E1E0"/>
<path d="M1006.53 38.5H1010.31V47.9062H1012.72V49H1006.53V47.9062H1009.05V39.6006H1006.53V38.5ZM1018.01 49.1367C1017.49 49.1367 1017.01 49.0479 1016.57 48.8701C1016.14 48.6924 1015.77 48.444 1015.46 48.125C1015.15 47.806 1014.91 47.4277 1014.73 46.9902C1014.56 46.5527 1014.47 46.0765 1014.47 45.5615V45.2744C1014.47 44.6774 1014.57 44.1442 1014.76 43.6748C1014.95 43.2008 1015.21 42.7998 1015.53 42.4717C1015.84 42.1481 1016.2 41.8997 1016.6 41.7266C1017.01 41.5534 1017.42 41.4668 1017.84 41.4668C1018.38 41.4668 1018.84 41.5602 1019.24 41.7471C1019.64 41.9294 1019.97 42.1823 1020.24 42.5059C1020.5 42.834 1020.7 43.2191 1020.82 43.6611C1020.96 44.1032 1021.02 44.5817 1021.02 45.0967V45.6641H1015.74V45.7119C1015.77 46.0719 1015.84 46.3887 1015.95 46.6621C1016.06 46.9355 1016.22 47.1771 1016.42 47.3867C1016.62 47.61 1016.86 47.7855 1017.14 47.9131C1017.42 48.0407 1017.73 48.1045 1018.08 48.1045C1018.53 48.1045 1018.93 48.0133 1019.28 47.8311C1019.63 47.6488 1019.92 47.4072 1020.15 47.1064L1020.93 47.708C1020.68 48.0817 1020.31 48.4144 1019.82 48.7061C1019.33 48.9932 1018.73 49.1367 1018.01 49.1367ZM1017.84 42.5059C1017.59 42.5059 1017.35 42.5537 1017.12 42.6494C1016.89 42.7406 1016.69 42.875 1016.5 43.0527C1016.32 43.235 1016.17 43.4583 1016.04 43.7227C1015.92 43.9824 1015.83 44.2832 1015.78 44.625H1019.76V44.5635C1019.76 44.3356 1019.71 44.0918 1019.63 43.832C1019.54 43.5677 1019.42 43.3398 1019.27 43.1484C1019.11 42.957 1018.91 42.8021 1018.68 42.6836C1018.45 42.5651 1018.17 42.5059 1017.84 42.5059ZM1026.14 39.8125V41.6035H1028.96V42.5811H1026.14V46.6006C1026.14 46.8877 1026.18 47.1247 1026.25 47.3115C1026.32 47.4984 1026.43 47.6465 1026.55 47.7559C1026.68 47.8698 1026.83 47.9495 1026.99 47.9951C1027.16 48.0407 1027.34 48.0635 1027.52 48.0635C1027.66 48.0635 1027.8 48.0566 1027.95 48.043C1028.09 48.0247 1028.24 48.0042 1028.38 47.9814C1028.51 47.9587 1028.64 47.9359 1028.76 47.9131C1028.88 47.8857 1028.98 47.863 1029.06 47.8447L1029.24 48.7402C1029.13 48.804 1029.01 48.861 1028.86 48.9111C1028.71 48.9567 1028.54 48.9954 1028.36 49.0273C1028.19 49.0638 1028 49.0911 1027.8 49.1094C1027.6 49.1276 1027.4 49.1367 1027.21 49.1367C1026.88 49.1367 1026.57 49.0911 1026.29 49C1026 48.9043 1025.76 48.7539 1025.55 48.5488C1025.34 48.3483 1025.17 48.0885 1025.05 47.7695C1024.93 47.446 1024.87 47.0563 1024.87 46.6006V42.5811H1022.93V41.6035H1024.87V39.8125H1026.14ZM1034.55 39.8125V41.6035H1037.37V42.5811H1034.55V46.6006C1034.55 46.8877 1034.59 47.1247 1034.66 47.3115C1034.73 47.4984 1034.83 47.6465 1034.96 47.7559C1035.09 47.8698 1035.23 47.9495 1035.4 47.9951C1035.57 48.0407 1035.74 48.0635 1035.93 48.0635C1036.07 48.0635 1036.21 48.0566 1036.36 48.043C1036.5 48.0247 1036.64 48.0042 1036.79 47.9814C1036.92 47.9587 1037.05 47.9359 1037.17 47.9131C1037.29 47.8857 1037.39 47.863 1037.47 47.8447L1037.65 48.7402C1037.54 48.804 1037.42 48.861 1037.26 48.9111C1037.11 48.9567 1036.95 48.9954 1036.77 49.0273C1036.59 49.0638 1036.41 49.0911 1036.21 49.1094C1036.01 49.1276 1035.81 49.1367 1035.62 49.1367C1035.29 49.1367 1034.98 49.0911 1034.69 49C1034.41 48.9043 1034.17 48.7539 1033.96 48.5488C1033.75 48.3483 1033.58 48.0885 1033.46 47.7695C1033.34 47.446 1033.28 47.0563 1033.28 46.6006V42.5811H1031.34V41.6035H1033.28V39.8125H1034.55ZM1043.23 49.1367C1042.71 49.1367 1042.23 49.0479 1041.8 48.8701C1041.36 48.6924 1040.99 48.444 1040.68 48.125C1040.37 47.806 1040.13 47.4277 1039.96 46.9902C1039.78 46.5527 1039.7 46.0765 1039.7 45.5615V45.2744C1039.7 44.6774 1039.79 44.1442 1039.99 43.6748C1040.18 43.2008 1040.43 42.7998 1040.75 42.4717C1041.07 42.1481 1041.42 41.8997 1041.82 41.7266C1042.23 41.5534 1042.64 41.4668 1043.07 41.4668C1043.6 41.4668 1044.07 41.5602 1044.46 41.7471C1044.86 41.9294 1045.2 42.1823 1045.46 42.5059C1045.73 42.834 1045.92 43.2191 1046.05 43.6611C1046.18 44.1032 1046.25 44.5817 1046.25 45.0967V45.6641H1040.96V45.7119C1040.99 46.0719 1041.07 46.3887 1041.17 46.6621C1041.29 46.9355 1041.44 47.1771 1041.64 47.3867C1041.84 47.61 1042.08 47.7855 1042.36 47.9131C1042.65 48.0407 1042.96 48.1045 1043.3 48.1045C1043.75 48.1045 1044.15 48.0133 1044.5 47.8311C1044.85 47.6488 1045.15 47.4072 1045.38 47.1064L1046.15 47.708C1045.91 48.0817 1045.54 48.4144 1045.04 48.7061C1044.56 48.9932 1043.95 49.1367 1043.23 49.1367ZM1043.07 42.5059C1042.81 42.5059 1042.57 42.5537 1042.34 42.6494C1042.12 42.7406 1041.91 42.875 1041.73 43.0527C1041.55 43.235 1041.39 43.4583 1041.26 43.7227C1041.14 43.9824 1041.05 44.2832 1041 44.625H1044.98V44.5635C1044.98 44.3356 1044.94 44.0918 1044.85 43.832C1044.77 43.5677 1044.65 43.3398 1044.49 43.1484C1044.34 42.957 1044.14 42.8021 1043.9 42.6836C1043.67 42.5651 1043.39 42.5059 1043.07 42.5059ZM1053.22 41.4668C1053.45 41.4668 1053.69 41.4827 1053.94 41.5146C1054.2 41.5465 1054.39 41.5898 1054.52 41.6445L1054.35 42.8818C1054.1 42.8271 1053.87 42.7884 1053.64 42.7656C1053.42 42.7383 1053.19 42.7246 1052.95 42.7246C1052.64 42.7246 1052.36 42.7633 1052.11 42.8408C1051.86 42.9137 1051.64 43.0231 1051.46 43.1689C1051.29 43.2965 1051.14 43.4538 1051.01 43.6406C1050.89 43.8229 1050.79 44.028 1050.7 44.2559V49H1049.43V41.6035H1050.64L1050.69 42.5947L1050.7 42.7793C1051 42.3737 1051.36 42.0547 1051.78 41.8223C1052.2 41.5853 1052.68 41.4668 1053.22 41.4668ZM1062.92 50.0322H1056.65V49H1062.92V50.0322ZM1070.1 47.0381C1070.1 46.8877 1070.07 46.7533 1070.02 46.6348C1069.96 46.5117 1069.86 46.4001 1069.71 46.2998C1069.57 46.1995 1069.39 46.1084 1069.15 46.0264C1068.92 45.9398 1068.63 45.8623 1068.29 45.7939C1067.86 45.7074 1067.47 45.6025 1067.12 45.4795C1066.78 45.3564 1066.48 45.2083 1066.24 45.0352C1065.98 44.8665 1065.79 44.6683 1065.65 44.4404C1065.52 44.208 1065.45 43.9391 1065.45 43.6338C1065.45 43.333 1065.52 43.0527 1065.66 42.793C1065.8 42.5286 1066 42.2985 1066.26 42.1025C1066.51 41.9066 1066.81 41.7516 1067.17 41.6377C1067.52 41.5238 1067.91 41.4668 1068.33 41.4668C1068.79 41.4668 1069.2 41.526 1069.56 41.6445C1069.93 41.763 1070.24 41.9271 1070.49 42.1367C1070.75 42.3464 1070.95 42.5924 1071.08 42.875C1071.22 43.153 1071.29 43.4538 1071.29 43.7773H1070.03C1070.03 43.6178 1069.99 43.4629 1069.91 43.3125C1069.82 43.1576 1069.71 43.0208 1069.56 42.9023C1069.42 42.7839 1069.24 42.6882 1069.03 42.6152C1068.83 42.5423 1068.59 42.5059 1068.33 42.5059C1068.07 42.5059 1067.83 42.5355 1067.62 42.5947C1067.42 42.654 1067.26 42.7337 1067.12 42.834C1066.99 42.9342 1066.88 43.0505 1066.82 43.1826C1066.75 43.3148 1066.71 43.4515 1066.71 43.5928C1066.71 43.7386 1066.74 43.8685 1066.8 43.9824C1066.85 44.0964 1066.95 44.1989 1067.08 44.29C1067.22 44.3812 1067.39 44.4632 1067.62 44.5361C1067.84 44.609 1068.13 44.6797 1068.48 44.748C1068.93 44.8438 1069.34 44.9554 1069.7 45.083C1070.06 45.2061 1070.36 45.3542 1070.61 45.5273C1070.86 45.7051 1071.04 45.9102 1071.17 46.1426C1071.3 46.375 1071.37 46.6439 1071.37 46.9492C1071.37 47.2773 1071.29 47.5758 1071.14 47.8447C1071 48.1136 1070.79 48.3438 1070.53 48.5352C1070.26 48.7266 1069.95 48.8747 1069.58 48.9795C1069.21 49.0843 1068.81 49.1367 1068.37 49.1367C1067.87 49.1367 1067.42 49.0706 1067.03 48.9385C1066.64 48.8018 1066.31 48.6217 1066.04 48.3984C1065.76 48.1797 1065.55 47.9245 1065.41 47.6328C1065.27 47.3411 1065.2 47.0381 1065.2 46.7236H1066.46C1066.48 46.9834 1066.55 47.2021 1066.67 47.3799C1066.79 47.5576 1066.94 47.7012 1067.12 47.8105C1067.3 47.9199 1067.5 47.9974 1067.72 48.043C1067.94 48.0885 1068.15 48.1113 1068.37 48.1113C1068.71 48.1113 1069 48.0726 1069.25 47.9951C1069.5 47.9131 1069.7 47.8014 1069.84 47.6602C1069.92 47.5736 1069.99 47.4779 1070.04 47.373C1070.08 47.2682 1070.1 47.1566 1070.1 47.0381ZM1073.59 51.8438V41.6035H1074.75L1074.81 42.4102C1074.91 42.2826 1075.02 42.1686 1075.14 42.0684C1075.25 41.9635 1075.38 41.8747 1075.52 41.8018C1075.71 41.6924 1075.92 41.6104 1076.15 41.5557C1076.39 41.4964 1076.64 41.4668 1076.91 41.4668C1077.39 41.4668 1077.81 41.5602 1078.17 41.7471C1078.54 41.9339 1078.84 42.1937 1079.09 42.5264C1079.33 42.859 1079.52 43.2578 1079.65 43.7227C1079.78 44.1829 1079.84 44.6888 1079.84 45.2402V45.3838C1079.84 45.9124 1079.78 46.4069 1079.65 46.8672C1079.52 47.3229 1079.33 47.7194 1079.09 48.0566C1078.84 48.3939 1078.54 48.6582 1078.17 48.8496C1077.81 49.041 1077.4 49.1367 1076.93 49.1367C1076.65 49.1367 1076.39 49.1071 1076.14 49.0479C1075.9 48.9886 1075.68 48.9043 1075.48 48.7949C1075.37 48.7266 1075.25 48.6514 1075.15 48.5693C1075.04 48.4827 1074.95 48.3893 1074.86 48.2891V51.8438H1073.59ZM1078.57 45.2402C1078.57 44.8802 1078.53 44.5384 1078.45 44.2148C1078.37 43.8867 1078.25 43.5973 1078.09 43.3467C1077.92 43.1006 1077.71 42.9046 1077.45 42.7588C1077.2 42.613 1076.89 42.54 1076.54 42.54C1076.34 42.54 1076.16 42.5628 1075.99 42.6084C1075.83 42.654 1075.68 42.7201 1075.55 42.8066C1075.4 42.8932 1075.27 43.0003 1075.16 43.1279C1075.04 43.2555 1074.94 43.3968 1074.86 43.5518V47.1133C1074.93 47.25 1075.02 47.3776 1075.12 47.4961C1075.22 47.6146 1075.34 47.7148 1075.46 47.7969C1075.61 47.8926 1075.77 47.9678 1075.95 48.0225C1076.13 48.0771 1076.33 48.1045 1076.55 48.1045C1076.9 48.1045 1077.2 48.0316 1077.46 47.8857C1077.72 47.7354 1077.92 47.5348 1078.09 47.2842C1078.25 47.0335 1078.37 46.7441 1078.45 46.416C1078.53 46.0879 1078.57 45.7438 1078.57 45.3838V45.2402ZM1086.87 49C1086.82 48.9043 1086.78 48.7858 1086.74 48.6445C1086.72 48.4987 1086.7 48.3483 1086.68 48.1934C1086.55 48.321 1086.41 48.4417 1086.25 48.5557C1086.1 48.6696 1085.93 48.7699 1085.74 48.8564C1085.55 48.943 1085.34 49.0114 1085.13 49.0615C1084.92 49.1117 1084.69 49.1367 1084.45 49.1367C1084.05 49.1367 1083.7 49.0798 1083.38 48.9658C1083.07 48.8519 1082.8 48.6969 1082.58 48.501C1082.36 48.3096 1082.18 48.0817 1082.06 47.8174C1081.94 47.5485 1081.88 47.2591 1081.88 46.9492C1081.88 46.5436 1081.96 46.1882 1082.12 45.8828C1082.29 45.5775 1082.52 45.3223 1082.81 45.1172C1083.11 44.9167 1083.46 44.7663 1083.88 44.666C1084.3 44.5658 1084.77 44.5156 1085.28 44.5156H1086.66V43.9346C1086.66 43.7113 1086.62 43.5107 1086.54 43.333C1086.46 43.1553 1086.34 43.0026 1086.19 42.875C1086.04 42.752 1085.85 42.6562 1085.64 42.5879C1085.42 42.5195 1085.18 42.4854 1084.91 42.4854C1084.66 42.4854 1084.43 42.5173 1084.23 42.5811C1084.04 42.6449 1083.87 42.7292 1083.74 42.834C1083.6 42.9388 1083.49 43.0641 1083.41 43.21C1083.34 43.3512 1083.3 43.4993 1083.3 43.6543H1082.03C1082.04 43.3854 1082.11 43.1211 1082.24 42.8613C1082.38 42.6016 1082.57 42.3669 1082.83 42.1572C1083.08 41.9521 1083.38 41.7858 1083.74 41.6582C1084.11 41.5306 1084.52 41.4668 1084.98 41.4668C1085.4 41.4668 1085.79 41.5192 1086.15 41.624C1086.51 41.7243 1086.82 41.877 1087.08 42.082C1087.34 42.2917 1087.55 42.5514 1087.7 42.8613C1087.85 43.1712 1087.93 43.5335 1087.93 43.9482V47.3867C1087.93 47.6328 1087.95 47.8949 1087.99 48.1729C1088.04 48.4463 1088.1 48.6855 1088.19 48.8906V49H1086.87ZM1084.63 48.0361C1084.88 48.0361 1085.11 48.0042 1085.32 47.9404C1085.54 47.8766 1085.73 47.7923 1085.91 47.6875C1086.08 47.5827 1086.23 47.4642 1086.36 47.332C1086.49 47.1953 1086.59 47.054 1086.66 46.9082V45.4111H1085.49C1085.05 45.4111 1084.67 45.4499 1084.34 45.5273C1084.01 45.6003 1083.76 45.7142 1083.56 45.8691C1083.43 45.9785 1083.32 46.1084 1083.25 46.2588C1083.18 46.4092 1083.15 46.5801 1083.15 46.7715C1083.15 46.9538 1083.18 47.1224 1083.24 47.2773C1083.3 47.4323 1083.39 47.5645 1083.52 47.6738C1083.64 47.7878 1083.79 47.8766 1083.98 47.9404C1084.17 48.0042 1084.38 48.0361 1084.63 48.0361ZM1093.57 48.1113C1093.79 48.1113 1094.01 48.0749 1094.23 48.002C1094.45 47.929 1094.64 47.8265 1094.81 47.6943C1094.98 47.5667 1095.11 47.4163 1095.21 47.2432C1095.32 47.0654 1095.37 46.874 1095.38 46.6689H1096.57C1096.57 46.9971 1096.48 47.3115 1096.31 47.6123C1096.15 47.9085 1095.93 48.1683 1095.65 48.3916C1095.37 48.6195 1095.05 48.8018 1094.69 48.9385C1094.33 49.0706 1093.96 49.1367 1093.57 49.1367C1093 49.1367 1092.51 49.0365 1092.1 48.8359C1091.68 48.6354 1091.33 48.3643 1091.05 48.0225C1090.77 47.6852 1090.56 47.2956 1090.41 46.8535C1090.27 46.4069 1090.2 45.9375 1090.2 45.4453V45.1582C1090.2 44.6706 1090.27 44.2035 1090.41 43.7568C1090.56 43.3102 1090.77 42.916 1091.05 42.5742C1091.33 42.237 1091.68 41.9681 1092.1 41.7676C1092.51 41.5671 1093 41.4668 1093.57 41.4668C1094 41.4668 1094.4 41.5374 1094.77 41.6787C1095.14 41.8154 1095.46 42.0023 1095.73 42.2393C1095.99 42.4808 1096.2 42.7656 1096.35 43.0938C1096.5 43.4219 1096.57 43.7728 1096.57 44.1465H1095.38C1095.37 43.9232 1095.32 43.7135 1095.23 43.5176C1095.14 43.3171 1095.01 43.1416 1094.85 42.9912C1094.69 42.8408 1094.5 42.7223 1094.28 42.6357C1094.06 42.5492 1093.82 42.5059 1093.57 42.5059C1093.17 42.5059 1092.84 42.5856 1092.57 42.7451C1092.31 42.9001 1092.1 43.1029 1091.93 43.3535C1091.77 43.6087 1091.65 43.8936 1091.58 44.208C1091.51 44.5225 1091.47 44.8392 1091.47 45.1582V45.4453C1091.47 45.7689 1091.51 46.0902 1091.58 46.4092C1091.65 46.7236 1091.77 47.0062 1091.93 47.2568C1092.09 47.512 1092.3 47.7194 1092.57 47.8789C1092.84 48.0339 1093.17 48.1113 1093.57 48.1113ZM1099.02 41.6035H1102.8V47.9062H1105.21V49H1099.02V47.9062H1101.54V42.7041H1099.02V41.6035ZM1101.37 39.6621C1101.37 39.5527 1101.39 39.4502 1101.42 39.3545C1101.46 39.2588 1101.51 39.1768 1101.58 39.1084C1101.64 39.0492 1101.72 39.0036 1101.81 38.9717C1101.91 38.9352 1102.01 38.917 1102.13 38.917C1102.25 38.917 1102.35 38.9352 1102.45 38.9717C1102.54 39.0036 1102.61 39.0492 1102.67 39.1084C1102.74 39.1722 1102.8 39.252 1102.83 39.3477C1102.87 39.4434 1102.89 39.5482 1102.89 39.6621C1102.89 39.8672 1102.83 40.0381 1102.7 40.1748C1102.57 40.3115 1102.38 40.3799 1102.13 40.3799C1101.88 40.3799 1101.68 40.3115 1101.56 40.1748C1101.43 40.0381 1101.37 39.8672 1101.37 39.6621ZM1107.23 49V41.6035H1108.37L1108.45 42.6973C1108.56 42.5423 1108.68 42.401 1108.81 42.2734C1108.94 42.1413 1109.08 42.0273 1109.23 41.9316C1109.45 41.7858 1109.68 41.6742 1109.94 41.5967C1110.2 41.5146 1110.47 41.4714 1110.76 41.4668C1111.15 41.4668 1111.5 41.5215 1111.81 41.6309C1112.13 41.7402 1112.4 41.9111 1112.62 42.1436C1112.85 42.376 1113.02 42.6722 1113.14 43.0322C1113.26 43.3877 1113.32 43.8115 1113.32 44.3037V49H1112.06V44.3311C1112.06 44.0029 1112.02 43.7249 1111.95 43.4971C1111.87 43.2692 1111.77 43.0846 1111.63 42.9434C1111.48 42.8021 1111.3 42.6995 1111.09 42.6357C1110.89 42.5719 1110.65 42.54 1110.38 42.54C1110.15 42.54 1109.93 42.5742 1109.73 42.6426C1109.53 42.7064 1109.35 42.7952 1109.18 42.9092C1109.04 43.0094 1108.91 43.1257 1108.8 43.2578C1108.68 43.39 1108.58 43.5358 1108.5 43.6953V49H1107.23ZM1115.41 45.2402C1115.41 44.6888 1115.47 44.1829 1115.6 43.7227C1115.74 43.2578 1115.94 42.859 1116.19 42.5264C1116.45 42.1937 1116.76 41.9339 1117.12 41.7471C1117.49 41.5602 1117.9 41.4668 1118.36 41.4668C1118.66 41.4668 1118.93 41.501 1119.17 41.5693C1119.42 41.6377 1119.65 41.738 1119.85 41.8701C1119.96 41.9385 1120.06 42.0182 1120.16 42.1094C1120.26 42.2005 1120.35 42.3008 1120.44 42.4102L1120.5 41.6035H1121.65V48.8428C1121.65 49.3304 1121.57 49.7633 1121.42 50.1416C1121.26 50.5199 1121.05 50.8411 1120.78 51.1055C1120.5 51.3698 1120.17 51.5703 1119.79 51.707C1119.41 51.8438 1118.98 51.9121 1118.52 51.9121C1118.33 51.9121 1118.11 51.8893 1117.86 51.8438C1117.61 51.8027 1117.37 51.7321 1117.12 51.6318C1116.86 51.5361 1116.61 51.4062 1116.38 51.2422C1116.14 51.0781 1115.94 50.8753 1115.78 50.6338L1116.43 49.875C1116.59 50.0618 1116.75 50.2191 1116.91 50.3467C1117.07 50.4788 1117.24 50.5837 1117.41 50.6611C1117.58 50.7386 1117.75 50.7933 1117.92 50.8252C1118.08 50.8617 1118.25 50.8799 1118.42 50.8799C1118.72 50.8799 1118.99 50.8366 1119.23 50.75C1119.48 50.6634 1119.68 50.5358 1119.86 50.3672C1120.03 50.2031 1120.15 49.998 1120.25 49.752C1120.34 49.5059 1120.38 49.2233 1120.38 48.9043V48.2686C1120.29 48.3779 1120.18 48.4782 1120.08 48.5693C1119.97 48.6605 1119.86 48.7402 1119.73 48.8086C1119.54 48.9134 1119.33 48.9932 1119.1 49.0479C1118.87 49.1071 1118.61 49.1367 1118.35 49.1367C1117.89 49.1367 1117.49 49.041 1117.12 48.8496C1116.76 48.6582 1116.45 48.3939 1116.2 48.0566C1115.94 47.7194 1115.75 47.3229 1115.61 46.8672C1115.47 46.4069 1115.41 45.9124 1115.41 45.3838V45.2402ZM1116.67 45.3838C1116.67 45.7438 1116.71 46.0856 1116.78 46.4092C1116.86 46.7327 1116.98 47.0176 1117.14 47.2637C1117.3 47.5098 1117.51 47.7057 1117.76 47.8516C1118.01 47.9928 1118.31 48.0635 1118.66 48.0635C1118.88 48.0635 1119.07 48.0384 1119.25 47.9883C1119.43 47.9336 1119.59 47.8584 1119.73 47.7627C1119.86 47.667 1119.99 47.5531 1120.1 47.4209C1120.21 47.2887 1120.3 47.1429 1120.38 46.9834V43.5928C1120.3 43.4378 1120.21 43.2965 1120.1 43.1689C1119.99 43.0413 1119.86 42.9297 1119.72 42.834C1119.58 42.7428 1119.42 42.6722 1119.25 42.6221C1119.07 42.5674 1118.88 42.54 1118.67 42.54C1118.32 42.54 1118.01 42.613 1117.76 42.7588C1117.51 42.9046 1117.3 43.1006 1117.14 43.3467C1116.98 43.5973 1116.86 43.8867 1116.78 44.2148C1116.71 44.5384 1116.67 44.8802 1116.67 45.2402V45.3838Z" fill="#201F1F"/>
</svg>
