<svg viewBox="0 0 20 20" fill="none" xmlns="http://www.w3.org/2000/svg">
<path d="M14.1667 18.3334C13.4722 18.3334 12.8819 18.0903 12.3958 17.6042C11.9097 17.1181 11.6667 16.5278 11.6667 15.8334C11.6667 15.75 11.6875 15.5556 11.7292 15.25L5.87499 11.8334C5.65277 12.0417 5.39582 12.2049 5.10416 12.3229C4.81249 12.441 4.49999 12.5 4.16666 12.5C3.47221 12.5 2.88193 12.257 2.39582 11.7709C1.90971 11.2847 1.66666 10.6945 1.66666 10C1.66666 9.30558 1.90971 8.7153 2.39582 8.22919C2.88193 7.74308 3.47221 7.50002 4.16666 7.50002C4.49999 7.50002 4.81249 7.55905 5.10416 7.6771C5.39582 7.79516 5.65277 7.95835 5.87499 8.16669L11.7292 4.75002C11.7014 4.6528 11.684 4.55905 11.6771 4.46877C11.6701 4.37849 11.6667 4.2778 11.6667 4.16669C11.6667 3.47224 11.9097 2.88196 12.3958 2.39585C12.8819 1.90974 13.4722 1.66669 14.1667 1.66669C14.8611 1.66669 15.4514 1.90974 15.9375 2.39585C16.4236 2.88196 16.6667 3.47224 16.6667 4.16669C16.6667 4.86113 16.4236 5.45141 15.9375 5.93752C15.4514 6.42363 14.8611 6.66669 14.1667 6.66669C13.8333 6.66669 13.5208 6.60766 13.2292 6.4896C12.9375 6.37155 12.6805 6.20835 12.4583 6.00002L6.60416 9.41669C6.63193 9.51391 6.6493 9.60766 6.65624 9.69794C6.66318 9.78821 6.66666 9.88891 6.66666 10C6.66666 10.1111 6.66318 10.2118 6.65624 10.3021C6.6493 10.3924 6.63193 10.4861 6.60416 10.5834L12.4583 14C12.6805 13.7917 12.9375 13.6285 13.2292 13.5104C13.5208 13.3924 13.8333 13.3334 14.1667 13.3334C14.8611 13.3334 15.4514 13.5764 15.9375 14.0625C16.4236 14.5486 16.6667 15.1389 16.6667 15.8334C16.6667 16.5278 16.4236 17.1181 15.9375 17.6042C15.4514 18.0903 14.8611 18.3334 14.1667 18.3334ZM14.1667 16.6667C14.4028 16.6667 14.6007 16.5868 14.7604 16.4271C14.9201 16.2674 15 16.0695 15 15.8334C15 15.5972 14.9201 15.3993 14.7604 15.2396C14.6007 15.0799 14.4028 15 14.1667 15C13.9305 15 13.7326 15.0799 13.5729 15.2396C13.4132 15.3993 13.3333 15.5972 13.3333 15.8334C13.3333 16.0695 13.4132 16.2674 13.5729 16.4271C13.7326 16.5868 13.9305 16.6667 14.1667 16.6667ZM4.16666 10.8334C4.40277 10.8334 4.60068 10.7535 4.76041 10.5938C4.92013 10.434 4.99999 10.2361 4.99999 10C4.99999 9.76391 4.92013 9.56599 4.76041 9.40627C4.60068 9.24655 4.40277 9.16669 4.16666 9.16669C3.93055 9.16669 3.73263 9.24655 3.57291 9.40627C3.41318 9.56599 3.33332 9.76391 3.33332 10C3.33332 10.2361 3.41318 10.434 3.57291 10.5938C3.73263 10.7535 3.93055 10.8334 4.16666 10.8334ZM14.1667 5.00002C14.4028 5.00002 14.6007 4.92016 14.7604 4.76044C14.9201 4.60071 15 4.4028 15 4.16669C15 3.93058 14.9201 3.73266 14.7604 3.57294C14.6007 3.41321 14.4028 3.33335 14.1667 3.33335C13.9305 3.33335 13.7326 3.41321 13.5729 3.57294C13.4132 3.73266 13.3333 3.93058 13.3333 4.16669C13.3333 4.4028 13.4132 4.60071 13.5729 4.76044C13.7326 4.92016 13.9305 5.00002 14.1667 5.00002Z" fill="currentColor"/>
</svg>