<svg width="1159" height="356" viewBox="0 0 1159 356" fill="none" xmlns="http://www.w3.org/2000/svg">
<path d="M8 0.5H1151C1155.14 0.5 1158.5 3.85787 1158.5 8V348C1158.5 352.142 1155.14 355.5 1151 355.5H8C3.85787 355.5 0.5 352.142 0.5 348V8C0.5 3.85786 3.85786 0.5 8 0.5Z" stroke="#737272"/>
<path d="M305.172 38.5469H309.75C310.656 38.5469 311.331 38.5859 311.773 38.6641C312.221 38.737 312.62 38.8932 312.969 39.1328C313.323 39.3724 313.617 39.6927 313.852 40.0938C314.086 40.4896 314.203 40.9349 314.203 41.4297C314.203 41.9661 314.057 42.4583 313.766 42.9062C313.479 43.3542 313.089 43.6901 312.594 43.9141C313.292 44.1172 313.828 44.4635 314.203 44.9531C314.578 45.4427 314.766 46.0182 314.766 46.6797C314.766 47.2005 314.643 47.7083 314.398 48.2031C314.159 48.6927 313.828 49.0859 313.406 49.3828C312.99 49.6745 312.474 49.8542 311.859 49.9219C311.474 49.9635 310.544 49.9896 309.07 50H305.172V38.5469ZM307.484 40.4531V43.1016H309C309.901 43.1016 310.461 43.0885 310.68 43.0625C311.076 43.0156 311.385 42.8802 311.609 42.6562C311.839 42.4271 311.953 42.1276 311.953 41.7578C311.953 41.4036 311.854 41.1172 311.656 40.8984C311.464 40.6745 311.174 40.5391 310.789 40.4922C310.56 40.4661 309.901 40.4531 308.812 40.4531H307.484ZM307.484 45.0078V48.0703H309.625C310.458 48.0703 310.987 48.0469 311.211 48C311.555 47.9375 311.833 47.7865 312.047 47.5469C312.266 47.3021 312.375 46.9766 312.375 46.5703C312.375 46.2266 312.292 45.9349 312.125 45.6953C311.958 45.4557 311.716 45.2812 311.398 45.1719C311.086 45.0625 310.404 45.0078 309.352 45.0078H307.484ZM316.711 50V38.5469H318.906V50H316.711ZM325.969 47.3594L328.156 47.7266C327.875 48.5286 327.43 49.1406 326.82 49.5625C326.216 49.9792 325.458 50.1875 324.547 50.1875C323.104 50.1875 322.036 49.7161 321.344 48.7734C320.797 48.0182 320.523 47.0651 320.523 45.9141C320.523 44.5391 320.883 43.4635 321.602 42.6875C322.32 41.9062 323.229 41.5156 324.328 41.5156C325.562 41.5156 326.536 41.9245 327.25 42.7422C327.964 43.5547 328.305 44.8021 328.273 46.4844H322.773C322.789 47.1354 322.966 47.6432 323.305 48.0078C323.643 48.3672 324.065 48.5469 324.57 48.5469C324.914 48.5469 325.203 48.4531 325.438 48.2656C325.672 48.0781 325.849 47.776 325.969 47.3594ZM326.094 45.1406C326.078 44.5052 325.914 44.0234 325.602 43.6953C325.289 43.362 324.909 43.1953 324.461 43.1953C323.982 43.1953 323.586 43.3698 323.273 43.7188C322.961 44.0677 322.807 44.5417 322.812 45.1406H326.094ZM335.531 50V48.7578C335.229 49.2005 334.831 49.5495 334.336 49.8047C333.846 50.0599 333.328 50.1875 332.781 50.1875C332.224 50.1875 331.724 50.0651 331.281 49.8203C330.839 49.5755 330.518 49.2318 330.32 48.7891C330.122 48.3464 330.023 47.7344 330.023 46.9531V41.7031H332.219V45.5156C332.219 46.6823 332.258 47.3984 332.336 47.6641C332.419 47.9245 332.568 48.1328 332.781 48.2891C332.995 48.4401 333.266 48.5156 333.594 48.5156C333.969 48.5156 334.305 48.4141 334.602 48.2109C334.898 48.0026 335.102 47.7474 335.211 47.4453C335.32 47.138 335.375 46.3906 335.375 45.2031V41.7031H337.57V50H335.531ZM344.25 50V38.5469H346.562V50H344.25ZM355.992 44.1562L353.828 44.5469C353.755 44.1146 353.589 43.7891 353.328 43.5703C353.073 43.3516 352.74 43.2422 352.328 43.2422C351.781 43.2422 351.344 43.4323 351.016 43.8125C350.693 44.1875 350.531 44.8177 350.531 45.7031C350.531 46.6875 350.695 47.3828 351.023 47.7891C351.357 48.1953 351.802 48.3984 352.359 48.3984C352.776 48.3984 353.117 48.2812 353.383 48.0469C353.648 47.8073 353.836 47.3984 353.945 46.8203L356.102 47.1875C355.878 48.1771 355.448 48.9245 354.812 49.4297C354.177 49.9349 353.326 50.1875 352.258 50.1875C351.044 50.1875 350.076 49.8047 349.352 49.0391C348.633 48.2734 348.273 47.2135 348.273 45.8594C348.273 44.4896 348.635 43.4245 349.359 42.6641C350.083 41.8984 351.062 41.5156 352.297 41.5156C353.307 41.5156 354.109 41.7344 354.703 42.1719C355.302 42.6042 355.732 43.2656 355.992 44.1562ZM362.469 47.3594L364.656 47.7266C364.375 48.5286 363.93 49.1406 363.32 49.5625C362.716 49.9792 361.958 50.1875 361.047 50.1875C359.604 50.1875 358.536 49.7161 357.844 48.7734C357.297 48.0182 357.023 47.0651 357.023 45.9141C357.023 44.5391 357.383 43.4635 358.102 42.6875C358.82 41.9062 359.729 41.5156 360.828 41.5156C362.062 41.5156 363.036 41.9245 363.75 42.7422C364.464 43.5547 364.805 44.8021 364.773 46.4844H359.273C359.289 47.1354 359.466 47.6432 359.805 48.0078C360.143 48.3672 360.565 48.5469 361.07 48.5469C361.414 48.5469 361.703 48.4531 361.938 48.2656C362.172 48.0781 362.349 47.776 362.469 47.3594ZM362.594 45.1406C362.578 44.5052 362.414 44.0234 362.102 43.6953C361.789 43.362 361.409 43.1953 360.961 43.1953C360.482 43.1953 360.086 43.3698 359.773 43.7188C359.461 44.0677 359.307 44.5417 359.312 45.1406H362.594ZM366.477 50V38.5469H368.672V42.6719C369.349 41.901 370.151 41.5156 371.078 41.5156C372.089 41.5156 372.924 41.8828 373.586 42.6172C374.247 43.3464 374.578 44.3958 374.578 45.7656C374.578 47.1823 374.24 48.2734 373.562 49.0391C372.891 49.8047 372.073 50.1875 371.109 50.1875C370.635 50.1875 370.167 50.0703 369.703 49.8359C369.245 49.5964 368.849 49.2448 368.516 48.7812V50H366.477ZM368.656 45.6719C368.656 46.5312 368.792 47.1667 369.062 47.5781C369.443 48.1615 369.948 48.4531 370.578 48.4531C371.062 48.4531 371.474 48.2474 371.812 47.8359C372.156 47.4193 372.328 46.7656 372.328 45.875C372.328 44.9271 372.156 44.2448 371.812 43.8281C371.469 43.4062 371.029 43.1953 370.492 43.1953C369.966 43.1953 369.529 43.401 369.18 43.8125C368.831 44.2188 368.656 44.8385 368.656 45.6719ZM381.156 47.3594L383.344 47.7266C383.062 48.5286 382.617 49.1406 382.008 49.5625C381.404 49.9792 380.646 50.1875 379.734 50.1875C378.292 50.1875 377.224 49.7161 376.531 48.7734C375.984 48.0182 375.711 47.0651 375.711 45.9141C375.711 44.5391 376.07 43.4635 376.789 42.6875C377.508 41.9062 378.417 41.5156 379.516 41.5156C380.75 41.5156 381.724 41.9245 382.438 42.7422C383.151 43.5547 383.492 44.8021 383.461 46.4844H377.961C377.977 47.1354 378.154 47.6432 378.492 48.0078C378.831 48.3672 379.253 48.5469 379.758 48.5469C380.102 48.5469 380.391 48.4531 380.625 48.2656C380.859 48.0781 381.036 47.776 381.156 47.3594ZM381.281 45.1406C381.266 44.5052 381.102 44.0234 380.789 43.6953C380.477 43.362 380.096 43.1953 379.648 43.1953C379.169 43.1953 378.773 43.3698 378.461 43.7188C378.148 44.0677 377.995 44.5417 378 45.1406H381.281ZM387.359 50H385.164V41.7031H387.203V42.8828C387.552 42.3255 387.865 41.9583 388.141 41.7812C388.422 41.6042 388.74 41.5156 389.094 41.5156C389.594 41.5156 390.076 41.6536 390.539 41.9297L389.859 43.8438C389.49 43.6042 389.146 43.4844 388.828 43.4844C388.521 43.4844 388.26 43.5703 388.047 43.7422C387.833 43.9089 387.664 44.2135 387.539 44.6562C387.419 45.099 387.359 46.026 387.359 47.4375V50ZM391.289 50.5469L393.797 50.8516C393.839 51.1432 393.935 51.3438 394.086 51.4531C394.294 51.6094 394.622 51.6875 395.07 51.6875C395.643 51.6875 396.073 51.6016 396.359 51.4297C396.552 51.3151 396.698 51.1302 396.797 50.875C396.865 50.6927 396.898 50.3568 396.898 49.8672V48.6562C396.242 49.5521 395.414 50 394.414 50C393.299 50 392.417 49.5286 391.766 48.5859C391.255 47.8411 391 46.9141 391 45.8047C391 44.4141 391.333 43.3516 392 42.6172C392.672 41.8828 393.505 41.5156 394.5 41.5156C395.526 41.5156 396.372 41.9661 397.039 42.8672V41.7031H399.094V49.1484C399.094 50.1276 399.013 50.8594 398.852 51.3438C398.69 51.8281 398.464 52.2083 398.172 52.4844C397.88 52.7604 397.49 52.9766 397 53.1328C396.516 53.2891 395.901 53.3672 395.156 53.3672C393.75 53.3672 392.753 53.125 392.164 52.6406C391.576 52.1615 391.281 51.5521 391.281 50.8125C391.281 50.7396 391.284 50.651 391.289 50.5469ZM393.25 45.6797C393.25 46.5599 393.419 47.2057 393.758 47.6172C394.102 48.0234 394.523 48.2266 395.023 48.2266C395.56 48.2266 396.013 48.0182 396.383 47.6016C396.753 47.1797 396.938 46.5573 396.938 45.7344C396.938 44.875 396.76 44.237 396.406 43.8203C396.052 43.4036 395.604 43.1953 395.062 43.1953C394.536 43.1953 394.102 43.401 393.758 43.8125C393.419 44.2188 393.25 44.8411 393.25 45.6797Z" fill="#201F1F"/>
<path d="M536.086 50L531.992 38.5469H534.5L537.398 47.0234L540.203 38.5469H542.656L538.555 50H536.086ZM543.523 40.5781V38.5469H545.719V40.5781H543.523ZM543.523 50V41.7031H545.719V50H543.523ZM547.469 45.7344C547.469 45.0052 547.648 44.2995 548.008 43.6172C548.367 42.9349 548.875 42.4141 549.531 42.0547C550.193 41.6953 550.93 41.5156 551.742 41.5156C552.997 41.5156 554.026 41.9245 554.828 42.7422C555.63 43.5547 556.031 44.5833 556.031 45.8281C556.031 47.0833 555.625 48.125 554.812 48.9531C554.005 49.776 552.987 50.1875 551.758 50.1875C550.997 50.1875 550.271 50.0156 549.578 49.6719C548.891 49.3281 548.367 48.8255 548.008 48.1641C547.648 47.4974 547.469 46.6875 547.469 45.7344ZM549.719 45.8516C549.719 46.6745 549.914 47.3047 550.305 47.7422C550.695 48.1797 551.177 48.3984 551.75 48.3984C552.323 48.3984 552.802 48.1797 553.188 47.7422C553.578 47.3047 553.773 46.6693 553.773 45.8359C553.773 45.0234 553.578 44.3984 553.188 43.9609C552.802 43.5234 552.323 43.3047 551.75 43.3047C551.177 43.3047 550.695 43.5234 550.305 43.9609C549.914 44.3984 549.719 45.0286 549.719 45.8516ZM557.758 50V38.5469H559.953V50H557.758ZM567.016 47.3594L569.203 47.7266C568.922 48.5286 568.477 49.1406 567.867 49.5625C567.263 49.9792 566.505 50.1875 565.594 50.1875C564.151 50.1875 563.083 49.7161 562.391 48.7734C561.844 48.0182 561.57 47.0651 561.57 45.9141C561.57 44.5391 561.93 43.4635 562.648 42.6875C563.367 41.9062 564.276 41.5156 565.375 41.5156C566.609 41.5156 567.583 41.9245 568.297 42.7422C569.01 43.5547 569.352 44.8021 569.32 46.4844H563.82C563.836 47.1354 564.013 47.6432 564.352 48.0078C564.69 48.3672 565.112 48.5469 565.617 48.5469C565.961 48.5469 566.25 48.4531 566.484 48.2656C566.719 48.0781 566.896 47.776 567.016 47.3594ZM567.141 45.1406C567.125 44.5052 566.961 44.0234 566.648 43.6953C566.336 43.362 565.956 43.1953 565.508 43.1953C565.029 43.1953 564.633 43.3698 564.32 43.7188C564.008 44.0677 563.854 44.5417 563.859 45.1406H567.141ZM574.922 41.7031V43.4531H573.422V46.7969C573.422 47.474 573.435 47.8698 573.461 47.9844C573.492 48.0938 573.557 48.1849 573.656 48.2578C573.76 48.3307 573.885 48.3672 574.031 48.3672C574.234 48.3672 574.529 48.2969 574.914 48.1562L575.102 49.8594C574.591 50.0781 574.013 50.1875 573.367 50.1875C572.971 50.1875 572.615 50.1224 572.297 49.9922C571.979 49.8568 571.745 49.6849 571.594 49.4766C571.448 49.263 571.346 48.9766 571.289 48.6172C571.242 48.362 571.219 47.8464 571.219 47.0703V43.4531H570.211V41.7031H571.219V40.0547L573.422 38.7734V41.7031H574.922Z" fill="#201F1F"/>
<path d="M145.227 142V130.641H147.539V140.07H153.289V142H145.227ZM154.93 132.578V130.547H157.125V132.578H154.93ZM154.93 142V133.703H157.125V142H154.93ZM159.18 142.547L161.688 142.852C161.729 143.143 161.826 143.344 161.977 143.453C162.185 143.609 162.513 143.688 162.961 143.688C163.534 143.688 163.964 143.602 164.25 143.43C164.443 143.315 164.589 143.13 164.688 142.875C164.755 142.693 164.789 142.357 164.789 141.867V140.656C164.133 141.552 163.305 142 162.305 142C161.19 142 160.307 141.529 159.656 140.586C159.146 139.841 158.891 138.914 158.891 137.805C158.891 136.414 159.224 135.352 159.891 134.617C160.562 133.883 161.396 133.516 162.391 133.516C163.417 133.516 164.263 133.966 164.93 134.867V133.703H166.984V141.148C166.984 142.128 166.904 142.859 166.742 143.344C166.581 143.828 166.354 144.208 166.062 144.484C165.771 144.76 165.38 144.977 164.891 145.133C164.406 145.289 163.792 145.367 163.047 145.367C161.641 145.367 160.643 145.125 160.055 144.641C159.466 144.161 159.172 143.552 159.172 142.812C159.172 142.74 159.174 142.651 159.18 142.547ZM161.141 137.68C161.141 138.56 161.31 139.206 161.648 139.617C161.992 140.023 162.414 140.227 162.914 140.227C163.451 140.227 163.904 140.018 164.273 139.602C164.643 139.18 164.828 138.557 164.828 137.734C164.828 136.875 164.651 136.237 164.297 135.82C163.943 135.404 163.495 135.195 162.953 135.195C162.427 135.195 161.992 135.401 161.648 135.812C161.31 136.219 161.141 136.841 161.141 137.68ZM171.352 130.547V134.758C172.06 133.93 172.906 133.516 173.891 133.516C174.396 133.516 174.852 133.609 175.258 133.797C175.664 133.984 175.969 134.224 176.172 134.516C176.38 134.807 176.521 135.13 176.594 135.484C176.672 135.839 176.711 136.388 176.711 137.133V142H174.516V137.617C174.516 136.747 174.474 136.195 174.391 135.961C174.307 135.727 174.159 135.542 173.945 135.406C173.737 135.266 173.474 135.195 173.156 135.195C172.792 135.195 172.466 135.284 172.18 135.461C171.893 135.638 171.682 135.906 171.547 136.266C171.417 136.62 171.352 137.146 171.352 137.844V142H169.156V130.547H171.352ZM182.75 133.703V135.453H181.25V138.797C181.25 139.474 181.263 139.87 181.289 139.984C181.32 140.094 181.385 140.185 181.484 140.258C181.589 140.331 181.714 140.367 181.859 140.367C182.062 140.367 182.357 140.297 182.742 140.156L182.93 141.859C182.419 142.078 181.841 142.188 181.195 142.188C180.799 142.188 180.443 142.122 180.125 141.992C179.807 141.857 179.573 141.685 179.422 141.477C179.276 141.263 179.174 140.977 179.117 140.617C179.07 140.362 179.047 139.846 179.047 139.07V135.453H178.039V133.703H179.047V132.055L181.25 130.773V133.703H182.75ZM188.562 133.703H190.586V134.836C191.31 133.956 192.172 133.516 193.172 133.516C193.703 133.516 194.164 133.625 194.555 133.844C194.945 134.062 195.266 134.393 195.516 134.836C195.88 134.393 196.273 134.062 196.695 133.844C197.117 133.625 197.568 133.516 198.047 133.516C198.656 133.516 199.172 133.641 199.594 133.891C200.016 134.135 200.331 134.497 200.539 134.977C200.69 135.331 200.766 135.904 200.766 136.695V142H198.57V137.258C198.57 136.435 198.495 135.904 198.344 135.664C198.141 135.352 197.828 135.195 197.406 135.195C197.099 135.195 196.81 135.289 196.539 135.477C196.268 135.664 196.073 135.94 195.953 136.305C195.833 136.664 195.773 137.234 195.773 138.016V142H193.578V137.453C193.578 136.646 193.539 136.125 193.461 135.891C193.383 135.656 193.26 135.482 193.094 135.367C192.932 135.253 192.711 135.195 192.43 135.195C192.091 135.195 191.786 135.286 191.516 135.469C191.245 135.651 191.049 135.914 190.93 136.258C190.815 136.602 190.758 137.172 190.758 137.969V142H188.562V133.703ZM202.453 137.734C202.453 137.005 202.633 136.299 202.992 135.617C203.352 134.935 203.859 134.414 204.516 134.055C205.177 133.695 205.914 133.516 206.727 133.516C207.982 133.516 209.01 133.924 209.812 134.742C210.615 135.555 211.016 136.583 211.016 137.828C211.016 139.083 210.609 140.125 209.797 140.953C208.99 141.776 207.971 142.188 206.742 142.188C205.982 142.188 205.255 142.016 204.562 141.672C203.875 141.328 203.352 140.826 202.992 140.164C202.633 139.497 202.453 138.688 202.453 137.734ZM204.703 137.852C204.703 138.674 204.898 139.305 205.289 139.742C205.68 140.18 206.161 140.398 206.734 140.398C207.307 140.398 207.786 140.18 208.172 139.742C208.562 139.305 208.758 138.669 208.758 137.836C208.758 137.023 208.562 136.398 208.172 135.961C207.786 135.523 207.307 135.305 206.734 135.305C206.161 135.305 205.68 135.523 205.289 135.961C204.898 136.398 204.703 137.029 204.703 137.852ZM220.352 142H218.312V140.781C217.974 141.255 217.573 141.609 217.109 141.844C216.651 142.073 216.188 142.188 215.719 142.188C214.766 142.188 213.948 141.805 213.266 141.039C212.589 140.268 212.25 139.195 212.25 137.82C212.25 136.414 212.581 135.346 213.242 134.617C213.904 133.883 214.74 133.516 215.75 133.516C216.677 133.516 217.479 133.901 218.156 134.672V130.547H220.352V142ZM214.492 137.672C214.492 138.557 214.615 139.198 214.859 139.594C215.214 140.167 215.708 140.453 216.344 140.453C216.849 140.453 217.279 140.24 217.633 139.812C217.987 139.38 218.164 138.737 218.164 137.883C218.164 136.93 217.992 136.245 217.648 135.828C217.305 135.406 216.865 135.195 216.328 135.195C215.807 135.195 215.37 135.404 215.016 135.82C214.667 136.232 214.492 136.849 214.492 137.672ZM227.328 139.359L229.516 139.727C229.234 140.529 228.789 141.141 228.18 141.562C227.576 141.979 226.818 142.188 225.906 142.188C224.464 142.188 223.396 141.716 222.703 140.773C222.156 140.018 221.883 139.065 221.883 137.914C221.883 136.539 222.242 135.464 222.961 134.688C223.68 133.906 224.589 133.516 225.688 133.516C226.922 133.516 227.896 133.924 228.609 134.742C229.323 135.555 229.664 136.802 229.633 138.484H224.133C224.148 139.135 224.326 139.643 224.664 140.008C225.003 140.367 225.424 140.547 225.93 140.547C226.273 140.547 226.562 140.453 226.797 140.266C227.031 140.078 227.208 139.776 227.328 139.359ZM227.453 137.141C227.438 136.505 227.273 136.023 226.961 135.695C226.648 135.362 226.268 135.195 225.82 135.195C225.341 135.195 224.945 135.37 224.633 135.719C224.32 136.068 224.167 136.542 224.172 137.141H227.453Z" fill="black"/>
<path d="M470 84.5H615C619.142 84.5 622.5 87.8579 622.5 92V180C622.5 184.142 619.142 187.5 615 187.5H470C465.858 187.5 462.5 184.142 462.5 180V92C462.5 87.8579 465.858 84.5 470 84.5Z" fill="white"/>
<path d="M470 84.5H615C619.142 84.5 622.5 87.8579 622.5 92V180C622.5 184.142 619.142 187.5 615 187.5H470C465.858 187.5 462.5 184.142 462.5 180V92C462.5 87.8579 465.858 84.5 470 84.5Z" stroke="#CDCCCB"/>
<path d="M494 124C494 119.582 497.582 116 502 116H583C587.418 116 591 119.582 591 124V148C591 152.418 587.418 156 583 156H502C497.582 156 494 152.418 494 148V124Z" fill="#2964A0"/>
<path d="M520.7 143C520.367 143 520.107 142.907 519.92 142.72C519.733 142.533 519.64 142.273 519.64 141.94V129.88C519.64 129.533 519.727 129.273 519.9 129.1C520.087 128.913 520.347 128.82 520.68 128.82C521.013 128.82 521.267 128.913 521.44 129.1C521.627 129.273 521.72 129.533 521.72 129.88V141.22H527.92C528.213 141.22 528.44 141.3 528.6 141.46C528.76 141.607 528.84 141.82 528.84 142.1C528.84 142.38 528.76 142.6 528.6 142.76C528.44 142.92 528.213 143 527.92 143H520.7ZM533.075 143.18C532.395 143.18 531.782 143.047 531.235 142.78C530.702 142.513 530.282 142.153 529.975 141.7C529.668 141.247 529.515 140.733 529.515 140.16C529.515 139.44 529.695 138.873 530.055 138.46C530.428 138.033 531.035 137.733 531.875 137.56C532.728 137.373 533.875 137.28 535.315 137.28H536.255V138.52H535.335C534.375 138.52 533.615 138.567 533.055 138.66C532.495 138.753 532.095 138.913 531.855 139.14C531.628 139.353 531.515 139.653 531.515 140.04C531.515 140.547 531.688 140.96 532.035 141.28C532.382 141.587 532.862 141.74 533.475 141.74C533.968 141.74 534.402 141.627 534.775 141.4C535.148 141.16 535.442 140.84 535.655 140.44C535.882 140.04 535.995 139.58 535.995 139.06V136.76C535.995 136 535.835 135.453 535.515 135.12C535.195 134.787 534.668 134.62 533.935 134.62C533.508 134.62 533.062 134.673 532.595 134.78C532.142 134.887 531.668 135.067 531.175 135.32C530.948 135.427 530.755 135.46 530.595 135.42C530.435 135.38 530.308 135.293 530.215 135.16C530.122 135.013 530.068 134.86 530.055 134.7C530.055 134.527 530.095 134.36 530.175 134.2C530.268 134.04 530.422 133.92 530.635 133.84C531.222 133.56 531.802 133.36 532.375 133.24C532.948 133.12 533.488 133.06 533.995 133.06C534.888 133.06 535.622 133.2 536.195 133.48C536.782 133.76 537.215 134.187 537.495 134.76C537.775 135.333 537.915 136.073 537.915 136.98V142.12C537.915 142.44 537.835 142.693 537.675 142.88C537.515 143.053 537.282 143.14 536.975 143.14C536.682 143.14 536.448 143.053 536.275 142.88C536.102 142.693 536.015 142.44 536.015 142.12V140.82H536.195C536.088 141.313 535.888 141.74 535.595 142.1C535.315 142.447 534.962 142.713 534.535 142.9C534.108 143.087 533.622 143.18 533.075 143.18ZM545.437 143.18C544.584 143.18 543.844 142.967 543.217 142.54C542.591 142.1 542.171 141.52 541.957 140.8L542.177 140.44V142.12C542.177 142.44 542.091 142.693 541.917 142.88C541.744 143.053 541.504 143.14 541.197 143.14C540.877 143.14 540.631 143.053 540.457 142.88C540.284 142.693 540.197 142.44 540.197 142.12V129.78C540.197 129.447 540.284 129.193 540.457 129.02C540.631 128.847 540.877 128.76 541.197 128.76C541.517 128.76 541.764 128.847 541.937 129.02C542.124 129.193 542.217 129.447 542.217 129.78V135.38H541.977C542.191 134.673 542.611 134.113 543.237 133.7C543.864 133.273 544.597 133.06 545.437 133.06C546.317 133.06 547.077 133.267 547.717 133.68C548.357 134.093 548.851 134.673 549.197 135.42C549.557 136.167 549.737 137.067 549.737 138.12C549.737 139.147 549.557 140.047 549.197 140.82C548.851 141.58 548.351 142.167 547.697 142.58C547.057 142.98 546.304 143.18 545.437 143.18ZM544.937 141.62C545.497 141.62 545.984 141.487 546.397 141.22C546.811 140.953 547.131 140.56 547.357 140.04C547.584 139.52 547.697 138.88 547.697 138.12C547.697 136.973 547.444 136.107 546.937 135.52C546.444 134.933 545.777 134.64 544.937 134.64C544.391 134.64 543.904 134.773 543.477 135.04C543.064 135.293 542.744 135.68 542.517 136.2C542.291 136.72 542.177 137.36 542.177 138.12C542.177 139.253 542.431 140.12 542.937 140.72C543.444 141.32 544.111 141.62 544.937 141.62ZM556.094 143.18C555.027 143.18 554.107 142.98 553.334 142.58C552.574 142.167 551.98 141.587 551.554 140.84C551.14 140.08 550.934 139.18 550.934 138.14C550.934 137.127 551.14 136.24 551.554 135.48C551.967 134.72 552.534 134.127 553.254 133.7C553.974 133.273 554.794 133.06 555.714 133.06C556.394 133.06 557 133.173 557.534 133.4C558.067 133.613 558.52 133.933 558.894 134.36C559.28 134.773 559.567 135.28 559.754 135.88C559.954 136.48 560.054 137.153 560.054 137.9C560.054 138.127 559.987 138.3 559.854 138.42C559.72 138.527 559.52 138.58 559.254 138.58H552.534V137.34H558.694L558.354 137.62C558.354 136.953 558.254 136.387 558.054 135.92C557.867 135.453 557.58 135.1 557.194 134.86C556.82 134.607 556.354 134.48 555.794 134.48C555.167 134.48 554.634 134.627 554.194 134.92C553.767 135.213 553.44 135.62 553.214 136.14C552.987 136.66 552.874 137.267 552.874 137.96V138.08C552.874 139.253 553.147 140.14 553.694 140.74C554.254 141.327 555.06 141.62 556.114 141.62C556.514 141.62 556.934 141.567 557.374 141.46C557.827 141.353 558.254 141.173 558.654 140.92C558.88 140.787 559.08 140.727 559.254 140.74C559.44 140.753 559.587 140.813 559.694 140.92C559.814 141.027 559.887 141.16 559.914 141.32C559.94 141.48 559.914 141.647 559.834 141.82C559.754 141.98 559.614 142.127 559.414 142.26C558.96 142.567 558.434 142.8 557.834 142.96C557.234 143.107 556.654 143.18 556.094 143.18ZM564.896 143.18C563.856 143.18 563.069 142.88 562.536 142.28C562.016 141.667 561.756 140.787 561.756 139.64V129.78C561.756 129.447 561.843 129.193 562.016 129.02C562.189 128.847 562.436 128.76 562.756 128.76C563.076 128.76 563.323 128.847 563.496 129.02C563.683 129.193 563.776 129.447 563.776 129.78V139.52C563.776 140.187 563.909 140.687 564.176 141.02C564.456 141.34 564.856 141.5 565.376 141.5C565.496 141.5 565.603 141.5 565.696 141.5C565.789 141.487 565.883 141.473 565.976 141.46C566.136 141.447 566.249 141.493 566.316 141.6C566.383 141.693 566.416 141.893 566.416 142.2C566.416 142.48 566.356 142.7 566.236 142.86C566.116 143.007 565.923 143.1 565.656 143.14C565.536 143.153 565.409 143.16 565.276 143.16C565.143 143.173 565.016 143.18 564.896 143.18Z" fill="white"/>
<path d="M862 84.5H1007C1011.14 84.5 1014.5 87.8579 1014.5 92V180C1014.5 184.142 1011.14 187.5 1007 187.5H862C857.858 187.5 854.5 184.142 854.5 180V92C854.5 87.8579 857.858 84.5 862 84.5Z" fill="white"/>
<path d="M862 84.5H1007C1011.14 84.5 1014.5 87.8579 1014.5 92V180C1014.5 184.142 1011.14 187.5 1007 187.5H862C857.858 187.5 854.5 184.142 854.5 180V92C854.5 87.8579 857.858 84.5 862 84.5Z" stroke="#CDCCCB"/>
<path d="M886 124C886 119.582 889.582 116 894 116H975C979.418 116 983 119.582 983 124V148C983 152.418 979.418 156 975 156H894C889.582 156 886 152.418 886 148V124Z" fill="#7D5A9F"/>
<path d="M912.7 143C912.367 143 912.107 142.907 911.92 142.72C911.733 142.533 911.64 142.273 911.64 141.94V129.88C911.64 129.533 911.727 129.273 911.9 129.1C912.087 128.913 912.347 128.82 912.68 128.82C913.013 128.82 913.267 128.913 913.44 129.1C913.627 129.273 913.72 129.533 913.72 129.88V141.22H919.92C920.213 141.22 920.44 141.3 920.6 141.46C920.76 141.607 920.84 141.82 920.84 142.1C920.84 142.38 920.76 142.6 920.6 142.76C920.44 142.92 920.213 143 919.92 143H912.7ZM925.075 143.18C924.395 143.18 923.782 143.047 923.235 142.78C922.702 142.513 922.282 142.153 921.975 141.7C921.668 141.247 921.515 140.733 921.515 140.16C921.515 139.44 921.695 138.873 922.055 138.46C922.428 138.033 923.035 137.733 923.875 137.56C924.728 137.373 925.875 137.28 927.315 137.28H928.255V138.52H927.335C926.375 138.52 925.615 138.567 925.055 138.66C924.495 138.753 924.095 138.913 923.855 139.14C923.628 139.353 923.515 139.653 923.515 140.04C923.515 140.547 923.688 140.96 924.035 141.28C924.382 141.587 924.862 141.74 925.475 141.74C925.968 141.74 926.402 141.627 926.775 141.4C927.148 141.16 927.442 140.84 927.655 140.44C927.882 140.04 927.995 139.58 927.995 139.06V136.76C927.995 136 927.835 135.453 927.515 135.12C927.195 134.787 926.668 134.62 925.935 134.62C925.508 134.62 925.062 134.673 924.595 134.78C924.142 134.887 923.668 135.067 923.175 135.32C922.948 135.427 922.755 135.46 922.595 135.42C922.435 135.38 922.308 135.293 922.215 135.16C922.122 135.013 922.068 134.86 922.055 134.7C922.055 134.527 922.095 134.36 922.175 134.2C922.268 134.04 922.422 133.92 922.635 133.84C923.222 133.56 923.802 133.36 924.375 133.24C924.948 133.12 925.488 133.06 925.995 133.06C926.888 133.06 927.622 133.2 928.195 133.48C928.782 133.76 929.215 134.187 929.495 134.76C929.775 135.333 929.915 136.073 929.915 136.98V142.12C929.915 142.44 929.835 142.693 929.675 142.88C929.515 143.053 929.282 143.14 928.975 143.14C928.682 143.14 928.448 143.053 928.275 142.88C928.102 142.693 928.015 142.44 928.015 142.12V140.82H928.195C928.088 141.313 927.888 141.74 927.595 142.1C927.315 142.447 926.962 142.713 926.535 142.9C926.108 143.087 925.622 143.18 925.075 143.18ZM937.437 143.18C936.584 143.18 935.844 142.967 935.217 142.54C934.591 142.1 934.171 141.52 933.957 140.8L934.177 140.44V142.12C934.177 142.44 934.091 142.693 933.917 142.88C933.744 143.053 933.504 143.14 933.197 143.14C932.877 143.14 932.631 143.053 932.457 142.88C932.284 142.693 932.197 142.44 932.197 142.12V129.78C932.197 129.447 932.284 129.193 932.457 129.02C932.631 128.847 932.877 128.76 933.197 128.76C933.517 128.76 933.764 128.847 933.937 129.02C934.124 129.193 934.217 129.447 934.217 129.78V135.38H933.977C934.191 134.673 934.611 134.113 935.237 133.7C935.864 133.273 936.597 133.06 937.437 133.06C938.317 133.06 939.077 133.267 939.717 133.68C940.357 134.093 940.851 134.673 941.197 135.42C941.557 136.167 941.737 137.067 941.737 138.12C941.737 139.147 941.557 140.047 941.197 140.82C940.851 141.58 940.351 142.167 939.697 142.58C939.057 142.98 938.304 143.18 937.437 143.18ZM936.937 141.62C937.497 141.62 937.984 141.487 938.397 141.22C938.811 140.953 939.131 140.56 939.357 140.04C939.584 139.52 939.697 138.88 939.697 138.12C939.697 136.973 939.444 136.107 938.937 135.52C938.444 134.933 937.777 134.64 936.937 134.64C936.391 134.64 935.904 134.773 935.477 135.04C935.064 135.293 934.744 135.68 934.517 136.2C934.291 136.72 934.177 137.36 934.177 138.12C934.177 139.253 934.431 140.12 934.937 140.72C935.444 141.32 936.111 141.62 936.937 141.62ZM948.094 143.18C947.027 143.18 946.107 142.98 945.334 142.58C944.574 142.167 943.98 141.587 943.554 140.84C943.14 140.08 942.934 139.18 942.934 138.14C942.934 137.127 943.14 136.24 943.554 135.48C943.967 134.72 944.534 134.127 945.254 133.7C945.974 133.273 946.794 133.06 947.714 133.06C948.394 133.06 949 133.173 949.534 133.4C950.067 133.613 950.52 133.933 950.894 134.36C951.28 134.773 951.567 135.28 951.754 135.88C951.954 136.48 952.054 137.153 952.054 137.9C952.054 138.127 951.987 138.3 951.854 138.42C951.72 138.527 951.52 138.58 951.254 138.58H944.534V137.34H950.694L950.354 137.62C950.354 136.953 950.254 136.387 950.054 135.92C949.867 135.453 949.58 135.1 949.194 134.86C948.82 134.607 948.354 134.48 947.794 134.48C947.167 134.48 946.634 134.627 946.194 134.92C945.767 135.213 945.44 135.62 945.214 136.14C944.987 136.66 944.874 137.267 944.874 137.96V138.08C944.874 139.253 945.147 140.14 945.694 140.74C946.254 141.327 947.06 141.62 948.114 141.62C948.514 141.62 948.934 141.567 949.374 141.46C949.827 141.353 950.254 141.173 950.654 140.92C950.88 140.787 951.08 140.727 951.254 140.74C951.44 140.753 951.587 140.813 951.694 140.92C951.814 141.027 951.887 141.16 951.914 141.32C951.94 141.48 951.914 141.647 951.834 141.82C951.754 141.98 951.614 142.127 951.414 142.26C950.96 142.567 950.434 142.8 949.834 142.96C949.234 143.107 948.654 143.18 948.094 143.18ZM956.896 143.18C955.856 143.18 955.069 142.88 954.536 142.28C954.016 141.667 953.756 140.787 953.756 139.64V129.78C953.756 129.447 953.843 129.193 954.016 129.02C954.189 128.847 954.436 128.76 954.756 128.76C955.076 128.76 955.323 128.847 955.496 129.02C955.683 129.193 955.776 129.447 955.776 129.78V139.52C955.776 140.187 955.909 140.687 956.176 141.02C956.456 141.34 956.856 141.5 957.376 141.5C957.496 141.5 957.603 141.5 957.696 141.5C957.789 141.487 957.883 141.473 957.976 141.46C958.136 141.447 958.249 141.493 958.316 141.6C958.383 141.693 958.416 141.893 958.416 142.2C958.416 142.48 958.356 142.7 958.236 142.86C958.116 143.007 957.923 143.1 957.656 143.14C957.536 143.153 957.409 143.16 957.276 143.16C957.143 143.173 957.016 143.18 956.896 143.18Z" fill="white"/>
<path d="M145.156 266.547H149.383C150.336 266.547 151.062 266.62 151.562 266.766C152.234 266.964 152.81 267.315 153.289 267.82C153.768 268.326 154.133 268.945 154.383 269.68C154.633 270.409 154.758 271.31 154.758 272.383C154.758 273.326 154.641 274.138 154.406 274.82C154.12 275.654 153.711 276.328 153.18 276.844C152.779 277.234 152.237 277.539 151.555 277.758C151.044 277.919 150.362 278 149.508 278H145.156V266.547ZM147.469 268.484V276.07H149.195C149.841 276.07 150.307 276.034 150.594 275.961C150.969 275.867 151.279 275.708 151.523 275.484C151.773 275.26 151.977 274.893 152.133 274.383C152.289 273.867 152.367 273.167 152.367 272.281C152.367 271.396 152.289 270.716 152.133 270.242C151.977 269.768 151.758 269.398 151.477 269.133C151.195 268.867 150.839 268.688 150.406 268.594C150.083 268.521 149.451 268.484 148.508 268.484H147.469ZM158.352 272.234L156.359 271.875C156.583 271.073 156.969 270.479 157.516 270.094C158.062 269.708 158.875 269.516 159.953 269.516C160.932 269.516 161.661 269.633 162.141 269.867C162.62 270.096 162.956 270.391 163.148 270.75C163.346 271.104 163.445 271.758 163.445 272.711L163.422 275.273C163.422 276.003 163.456 276.542 163.523 276.891C163.596 277.234 163.729 277.604 163.922 278H161.75C161.693 277.854 161.622 277.638 161.539 277.352C161.503 277.221 161.477 277.135 161.461 277.094C161.086 277.458 160.685 277.732 160.258 277.914C159.831 278.096 159.375 278.188 158.891 278.188C158.036 278.188 157.362 277.956 156.867 277.492C156.378 277.029 156.133 276.443 156.133 275.734C156.133 275.266 156.245 274.849 156.469 274.484C156.693 274.115 157.005 273.833 157.406 273.641C157.812 273.443 158.396 273.271 159.156 273.125C160.182 272.932 160.893 272.753 161.289 272.586V272.367C161.289 271.945 161.185 271.646 160.977 271.469C160.768 271.286 160.375 271.195 159.797 271.195C159.406 271.195 159.102 271.273 158.883 271.43C158.664 271.581 158.487 271.849 158.352 272.234ZM161.289 274.016C161.008 274.109 160.562 274.221 159.953 274.352C159.344 274.482 158.945 274.609 158.758 274.734C158.471 274.938 158.328 275.195 158.328 275.508C158.328 275.815 158.443 276.081 158.672 276.305C158.901 276.529 159.193 276.641 159.547 276.641C159.943 276.641 160.32 276.51 160.68 276.25C160.945 276.052 161.12 275.81 161.203 275.523C161.26 275.336 161.289 274.979 161.289 274.453V274.016ZM167.719 278H165.523V269.703H167.562V270.883C167.911 270.326 168.224 269.958 168.5 269.781C168.781 269.604 169.099 269.516 169.453 269.516C169.953 269.516 170.435 269.654 170.898 269.93L170.219 271.844C169.849 271.604 169.505 271.484 169.188 271.484C168.88 271.484 168.62 271.57 168.406 271.742C168.193 271.909 168.023 272.214 167.898 272.656C167.779 273.099 167.719 274.026 167.719 275.438V278ZM171.773 278V266.547H173.969V272.625L176.539 269.703H179.242L176.406 272.734L179.445 278H177.078L174.992 274.273L173.969 275.344V278H171.773ZM185.047 269.703H187.07V270.836C187.794 269.956 188.656 269.516 189.656 269.516C190.188 269.516 190.648 269.625 191.039 269.844C191.43 270.062 191.75 270.393 192 270.836C192.365 270.393 192.758 270.062 193.18 269.844C193.602 269.625 194.052 269.516 194.531 269.516C195.141 269.516 195.656 269.641 196.078 269.891C196.5 270.135 196.815 270.497 197.023 270.977C197.174 271.331 197.25 271.904 197.25 272.695V278H195.055V273.258C195.055 272.435 194.979 271.904 194.828 271.664C194.625 271.352 194.312 271.195 193.891 271.195C193.583 271.195 193.294 271.289 193.023 271.477C192.753 271.664 192.557 271.94 192.438 272.305C192.318 272.664 192.258 273.234 192.258 274.016V278H190.062V273.453C190.062 272.646 190.023 272.125 189.945 271.891C189.867 271.656 189.745 271.482 189.578 271.367C189.417 271.253 189.195 271.195 188.914 271.195C188.576 271.195 188.271 271.286 188 271.469C187.729 271.651 187.534 271.914 187.414 272.258C187.299 272.602 187.242 273.172 187.242 273.969V278H185.047V269.703ZM198.938 273.734C198.938 273.005 199.117 272.299 199.477 271.617C199.836 270.935 200.344 270.414 201 270.055C201.661 269.695 202.398 269.516 203.211 269.516C204.466 269.516 205.495 269.924 206.297 270.742C207.099 271.555 207.5 272.583 207.5 273.828C207.5 275.083 207.094 276.125 206.281 276.953C205.474 277.776 204.456 278.188 203.227 278.188C202.466 278.188 201.74 278.016 201.047 277.672C200.359 277.328 199.836 276.826 199.477 276.164C199.117 275.497 198.938 274.688 198.938 273.734ZM201.188 273.852C201.188 274.674 201.383 275.305 201.773 275.742C202.164 276.18 202.646 276.398 203.219 276.398C203.792 276.398 204.271 276.18 204.656 275.742C205.047 275.305 205.242 274.669 205.242 273.836C205.242 273.023 205.047 272.398 204.656 271.961C204.271 271.523 203.792 271.305 203.219 271.305C202.646 271.305 202.164 271.523 201.773 271.961C201.383 272.398 201.188 273.029 201.188 273.852ZM216.836 278H214.797V276.781C214.458 277.255 214.057 277.609 213.594 277.844C213.135 278.073 212.672 278.188 212.203 278.188C211.25 278.188 210.432 277.805 209.75 277.039C209.073 276.268 208.734 275.195 208.734 273.82C208.734 272.414 209.065 271.346 209.727 270.617C210.388 269.883 211.224 269.516 212.234 269.516C213.161 269.516 213.964 269.901 214.641 270.672V266.547H216.836V278ZM210.977 273.672C210.977 274.557 211.099 275.198 211.344 275.594C211.698 276.167 212.193 276.453 212.828 276.453C213.333 276.453 213.763 276.24 214.117 275.812C214.471 275.38 214.648 274.737 214.648 273.883C214.648 272.93 214.477 272.245 214.133 271.828C213.789 271.406 213.349 271.195 212.812 271.195C212.292 271.195 211.854 271.404 211.5 271.82C211.151 272.232 210.977 272.849 210.977 273.672ZM223.812 275.359L226 275.727C225.719 276.529 225.273 277.141 224.664 277.562C224.06 277.979 223.302 278.188 222.391 278.188C220.948 278.188 219.88 277.716 219.188 276.773C218.641 276.018 218.367 275.065 218.367 273.914C218.367 272.539 218.727 271.464 219.445 270.688C220.164 269.906 221.073 269.516 222.172 269.516C223.406 269.516 224.38 269.924 225.094 270.742C225.807 271.555 226.148 272.802 226.117 274.484H220.617C220.633 275.135 220.81 275.643 221.148 276.008C221.487 276.367 221.909 276.547 222.414 276.547C222.758 276.547 223.047 276.453 223.281 276.266C223.516 276.078 223.693 275.776 223.812 275.359ZM223.938 273.141C223.922 272.505 223.758 272.023 223.445 271.695C223.133 271.362 222.753 271.195 222.305 271.195C221.826 271.195 221.43 271.37 221.117 271.719C220.805 272.068 220.651 272.542 220.656 273.141H223.938Z" fill="black"/>
<path d="M468 220.5H613C617.142 220.5 620.5 223.858 620.5 228V316C620.5 320.142 617.142 323.5 613 323.5H468C463.858 323.5 460.5 320.142 460.5 316V228C460.5 223.858 463.858 220.5 468 220.5Z" fill="#201F1F"/>
<path d="M468 220.5H613C617.142 220.5 620.5 223.858 620.5 228V316C620.5 320.142 617.142 323.5 613 323.5H468C463.858 323.5 460.5 320.142 460.5 316V228C460.5 223.858 463.858 220.5 468 220.5Z" stroke="#3E3E3D"/>
<path d="M492 260C492 255.582 495.582 252 500 252H581C585.418 252 589 255.582 589 260V284C589 288.418 585.418 292 581 292H500C495.582 292 492 288.418 492 284V260Z" fill="#96BDE3"/>
<path d="M518.7 279C518.367 279 518.107 278.907 517.92 278.72C517.733 278.533 517.64 278.273 517.64 277.94V265.88C517.64 265.533 517.727 265.273 517.9 265.1C518.087 264.913 518.347 264.82 518.68 264.82C519.013 264.82 519.267 264.913 519.44 265.1C519.627 265.273 519.72 265.533 519.72 265.88V277.22H525.92C526.213 277.22 526.44 277.3 526.6 277.46C526.76 277.607 526.84 277.82 526.84 278.1C526.84 278.38 526.76 278.6 526.6 278.76C526.44 278.92 526.213 279 525.92 279H518.7ZM531.075 279.18C530.395 279.18 529.782 279.047 529.235 278.78C528.702 278.513 528.282 278.153 527.975 277.7C527.668 277.247 527.515 276.733 527.515 276.16C527.515 275.44 527.695 274.873 528.055 274.46C528.428 274.033 529.035 273.733 529.875 273.56C530.728 273.373 531.875 273.28 533.315 273.28H534.255V274.52H533.335C532.375 274.52 531.615 274.567 531.055 274.66C530.495 274.753 530.095 274.913 529.855 275.14C529.628 275.353 529.515 275.653 529.515 276.04C529.515 276.547 529.688 276.96 530.035 277.28C530.382 277.587 530.862 277.74 531.475 277.74C531.968 277.74 532.402 277.627 532.775 277.4C533.148 277.16 533.442 276.84 533.655 276.44C533.882 276.04 533.995 275.58 533.995 275.06V272.76C533.995 272 533.835 271.453 533.515 271.12C533.195 270.787 532.668 270.62 531.935 270.62C531.508 270.62 531.062 270.673 530.595 270.78C530.142 270.887 529.668 271.067 529.175 271.32C528.948 271.427 528.755 271.46 528.595 271.42C528.435 271.38 528.308 271.293 528.215 271.16C528.122 271.013 528.068 270.86 528.055 270.7C528.055 270.527 528.095 270.36 528.175 270.2C528.268 270.04 528.422 269.92 528.635 269.84C529.222 269.56 529.802 269.36 530.375 269.24C530.948 269.12 531.488 269.06 531.995 269.06C532.888 269.06 533.622 269.2 534.195 269.48C534.782 269.76 535.215 270.187 535.495 270.76C535.775 271.333 535.915 272.073 535.915 272.98V278.12C535.915 278.44 535.835 278.693 535.675 278.88C535.515 279.053 535.282 279.14 534.975 279.14C534.682 279.14 534.448 279.053 534.275 278.88C534.102 278.693 534.015 278.44 534.015 278.12V276.82H534.195C534.088 277.313 533.888 277.74 533.595 278.1C533.315 278.447 532.962 278.713 532.535 278.9C532.108 279.087 531.622 279.18 531.075 279.18ZM543.437 279.18C542.584 279.18 541.844 278.967 541.217 278.54C540.591 278.1 540.171 277.52 539.957 276.8L540.177 276.44V278.12C540.177 278.44 540.091 278.693 539.917 278.88C539.744 279.053 539.504 279.14 539.197 279.14C538.877 279.14 538.631 279.053 538.457 278.88C538.284 278.693 538.197 278.44 538.197 278.12V265.78C538.197 265.447 538.284 265.193 538.457 265.02C538.631 264.847 538.877 264.76 539.197 264.76C539.517 264.76 539.764 264.847 539.937 265.02C540.124 265.193 540.217 265.447 540.217 265.78V271.38H539.977C540.191 270.673 540.611 270.113 541.237 269.7C541.864 269.273 542.597 269.06 543.437 269.06C544.317 269.06 545.077 269.267 545.717 269.68C546.357 270.093 546.851 270.673 547.197 271.42C547.557 272.167 547.737 273.067 547.737 274.12C547.737 275.147 547.557 276.047 547.197 276.82C546.851 277.58 546.351 278.167 545.697 278.58C545.057 278.98 544.304 279.18 543.437 279.18ZM542.937 277.62C543.497 277.62 543.984 277.487 544.397 277.22C544.811 276.953 545.131 276.56 545.357 276.04C545.584 275.52 545.697 274.88 545.697 274.12C545.697 272.973 545.444 272.107 544.937 271.52C544.444 270.933 543.777 270.64 542.937 270.64C542.391 270.64 541.904 270.773 541.477 271.04C541.064 271.293 540.744 271.68 540.517 272.2C540.291 272.72 540.177 273.36 540.177 274.12C540.177 275.253 540.431 276.12 540.937 276.72C541.444 277.32 542.111 277.62 542.937 277.62ZM554.094 279.18C553.027 279.18 552.107 278.98 551.334 278.58C550.574 278.167 549.98 277.587 549.554 276.84C549.14 276.08 548.934 275.18 548.934 274.14C548.934 273.127 549.14 272.24 549.554 271.48C549.967 270.72 550.534 270.127 551.254 269.7C551.974 269.273 552.794 269.06 553.714 269.06C554.394 269.06 555 269.173 555.534 269.4C556.067 269.613 556.52 269.933 556.894 270.36C557.28 270.773 557.567 271.28 557.754 271.88C557.954 272.48 558.054 273.153 558.054 273.9C558.054 274.127 557.987 274.3 557.854 274.42C557.72 274.527 557.52 274.58 557.254 274.58H550.534V273.34H556.694L556.354 273.62C556.354 272.953 556.254 272.387 556.054 271.92C555.867 271.453 555.58 271.1 555.194 270.86C554.82 270.607 554.354 270.48 553.794 270.48C553.167 270.48 552.634 270.627 552.194 270.92C551.767 271.213 551.44 271.62 551.214 272.14C550.987 272.66 550.874 273.267 550.874 273.96V274.08C550.874 275.253 551.147 276.14 551.694 276.74C552.254 277.327 553.06 277.62 554.114 277.62C554.514 277.62 554.934 277.567 555.374 277.46C555.827 277.353 556.254 277.173 556.654 276.92C556.88 276.787 557.08 276.727 557.254 276.74C557.44 276.753 557.587 276.813 557.694 276.92C557.814 277.027 557.887 277.16 557.914 277.32C557.94 277.48 557.914 277.647 557.834 277.82C557.754 277.98 557.614 278.127 557.414 278.26C556.96 278.567 556.434 278.8 555.834 278.96C555.234 279.107 554.654 279.18 554.094 279.18ZM562.896 279.18C561.856 279.18 561.069 278.88 560.536 278.28C560.016 277.667 559.756 276.787 559.756 275.64V265.78C559.756 265.447 559.843 265.193 560.016 265.02C560.189 264.847 560.436 264.76 560.756 264.76C561.076 264.76 561.323 264.847 561.496 265.02C561.683 265.193 561.776 265.447 561.776 265.78V275.52C561.776 276.187 561.909 276.687 562.176 277.02C562.456 277.34 562.856 277.5 563.376 277.5C563.496 277.5 563.603 277.5 563.696 277.5C563.789 277.487 563.883 277.473 563.976 277.46C564.136 277.447 564.249 277.493 564.316 277.6C564.383 277.693 564.416 277.893 564.416 278.2C564.416 278.48 564.356 278.7 564.236 278.86C564.116 279.007 563.923 279.1 563.656 279.14C563.536 279.153 563.409 279.16 563.276 279.16C563.143 279.173 563.016 279.18 562.896 279.18Z" fill="#201F1F"/>
<path d="M862 220.5H1007C1011.14 220.5 1014.5 223.858 1014.5 228V316C1014.5 320.142 1011.14 323.5 1007 323.5H862C857.858 323.5 854.5 320.142 854.5 316V228C854.5 223.858 857.858 220.5 862 220.5Z" fill="#201F1F"/>
<path d="M862 220.5H1007C1011.14 220.5 1014.5 223.858 1014.5 228V316C1014.5 320.142 1011.14 323.5 1007 323.5H862C857.858 323.5 854.5 320.142 854.5 316V228C854.5 223.858 857.858 220.5 862 220.5Z" stroke="#3E3E3D"/>
<path d="M886 260C886 255.582 889.582 252 894 252H975C979.418 252 983 255.582 983 260V284C983 288.418 979.418 292 975 292H894C889.582 292 886 288.418 886 284V260Z" fill="#D2C3E4"/>
<path d="M912.7 279C912.367 279 912.107 278.907 911.92 278.72C911.733 278.533 911.64 278.273 911.64 277.94V265.88C911.64 265.533 911.727 265.273 911.9 265.1C912.087 264.913 912.347 264.82 912.68 264.82C913.013 264.82 913.267 264.913 913.44 265.1C913.627 265.273 913.72 265.533 913.72 265.88V277.22H919.92C920.213 277.22 920.44 277.3 920.6 277.46C920.76 277.607 920.84 277.82 920.84 278.1C920.84 278.38 920.76 278.6 920.6 278.76C920.44 278.92 920.213 279 919.92 279H912.7ZM925.075 279.18C924.395 279.18 923.782 279.047 923.235 278.78C922.702 278.513 922.282 278.153 921.975 277.7C921.668 277.247 921.515 276.733 921.515 276.16C921.515 275.44 921.695 274.873 922.055 274.46C922.428 274.033 923.035 273.733 923.875 273.56C924.728 273.373 925.875 273.28 927.315 273.28H928.255V274.52H927.335C926.375 274.52 925.615 274.567 925.055 274.66C924.495 274.753 924.095 274.913 923.855 275.14C923.628 275.353 923.515 275.653 923.515 276.04C923.515 276.547 923.688 276.96 924.035 277.28C924.382 277.587 924.862 277.74 925.475 277.74C925.968 277.74 926.402 277.627 926.775 277.4C927.148 277.16 927.442 276.84 927.655 276.44C927.882 276.04 927.995 275.58 927.995 275.06V272.76C927.995 272 927.835 271.453 927.515 271.12C927.195 270.787 926.668 270.62 925.935 270.62C925.508 270.62 925.062 270.673 924.595 270.78C924.142 270.887 923.668 271.067 923.175 271.32C922.948 271.427 922.755 271.46 922.595 271.42C922.435 271.38 922.308 271.293 922.215 271.16C922.122 271.013 922.068 270.86 922.055 270.7C922.055 270.527 922.095 270.36 922.175 270.2C922.268 270.04 922.422 269.92 922.635 269.84C923.222 269.56 923.802 269.36 924.375 269.24C924.948 269.12 925.488 269.06 925.995 269.06C926.888 269.06 927.622 269.2 928.195 269.48C928.782 269.76 929.215 270.187 929.495 270.76C929.775 271.333 929.915 272.073 929.915 272.98V278.12C929.915 278.44 929.835 278.693 929.675 278.88C929.515 279.053 929.282 279.14 928.975 279.14C928.682 279.14 928.448 279.053 928.275 278.88C928.102 278.693 928.015 278.44 928.015 278.12V276.82H928.195C928.088 277.313 927.888 277.74 927.595 278.1C927.315 278.447 926.962 278.713 926.535 278.9C926.108 279.087 925.622 279.18 925.075 279.18ZM937.437 279.18C936.584 279.18 935.844 278.967 935.217 278.54C934.591 278.1 934.171 277.52 933.957 276.8L934.177 276.44V278.12C934.177 278.44 934.091 278.693 933.917 278.88C933.744 279.053 933.504 279.14 933.197 279.14C932.877 279.14 932.631 279.053 932.457 278.88C932.284 278.693 932.197 278.44 932.197 278.12V265.78C932.197 265.447 932.284 265.193 932.457 265.02C932.631 264.847 932.877 264.76 933.197 264.76C933.517 264.76 933.764 264.847 933.937 265.02C934.124 265.193 934.217 265.447 934.217 265.78V271.38H933.977C934.191 270.673 934.611 270.113 935.237 269.7C935.864 269.273 936.597 269.06 937.437 269.06C938.317 269.06 939.077 269.267 939.717 269.68C940.357 270.093 940.851 270.673 941.197 271.42C941.557 272.167 941.737 273.067 941.737 274.12C941.737 275.147 941.557 276.047 941.197 276.82C940.851 277.58 940.351 278.167 939.697 278.58C939.057 278.98 938.304 279.18 937.437 279.18ZM936.937 277.62C937.497 277.62 937.984 277.487 938.397 277.22C938.811 276.953 939.131 276.56 939.357 276.04C939.584 275.52 939.697 274.88 939.697 274.12C939.697 272.973 939.444 272.107 938.937 271.52C938.444 270.933 937.777 270.64 936.937 270.64C936.391 270.64 935.904 270.773 935.477 271.04C935.064 271.293 934.744 271.68 934.517 272.2C934.291 272.72 934.177 273.36 934.177 274.12C934.177 275.253 934.431 276.12 934.937 276.72C935.444 277.32 936.111 277.62 936.937 277.62ZM948.094 279.18C947.027 279.18 946.107 278.98 945.334 278.58C944.574 278.167 943.98 277.587 943.554 276.84C943.14 276.08 942.934 275.18 942.934 274.14C942.934 273.127 943.14 272.24 943.554 271.48C943.967 270.72 944.534 270.127 945.254 269.7C945.974 269.273 946.794 269.06 947.714 269.06C948.394 269.06 949 269.173 949.534 269.4C950.067 269.613 950.52 269.933 950.894 270.36C951.28 270.773 951.567 271.28 951.754 271.88C951.954 272.48 952.054 273.153 952.054 273.9C952.054 274.127 951.987 274.3 951.854 274.42C951.72 274.527 951.52 274.58 951.254 274.58H944.534V273.34H950.694L950.354 273.62C950.354 272.953 950.254 272.387 950.054 271.92C949.867 271.453 949.58 271.1 949.194 270.86C948.82 270.607 948.354 270.48 947.794 270.48C947.167 270.48 946.634 270.627 946.194 270.92C945.767 271.213 945.44 271.62 945.214 272.14C944.987 272.66 944.874 273.267 944.874 273.96V274.08C944.874 275.253 945.147 276.14 945.694 276.74C946.254 277.327 947.06 277.62 948.114 277.62C948.514 277.62 948.934 277.567 949.374 277.46C949.827 277.353 950.254 277.173 950.654 276.92C950.88 276.787 951.08 276.727 951.254 276.74C951.44 276.753 951.587 276.813 951.694 276.92C951.814 277.027 951.887 277.16 951.914 277.32C951.94 277.48 951.914 277.647 951.834 277.82C951.754 277.98 951.614 278.127 951.414 278.26C950.96 278.567 950.434 278.8 949.834 278.96C949.234 279.107 948.654 279.18 948.094 279.18ZM956.896 279.18C955.856 279.18 955.069 278.88 954.536 278.28C954.016 277.667 953.756 276.787 953.756 275.64V265.78C953.756 265.447 953.843 265.193 954.016 265.02C954.189 264.847 954.436 264.76 954.756 264.76C955.076 264.76 955.323 264.847 955.496 265.02C955.683 265.193 955.776 265.447 955.776 265.78V275.52C955.776 276.187 955.909 276.687 956.176 277.02C956.456 277.34 956.856 277.5 957.376 277.5C957.496 277.5 957.603 277.5 957.696 277.5C957.789 277.487 957.883 277.473 957.976 277.46C958.136 277.447 958.249 277.493 958.316 277.6C958.383 277.693 958.416 277.893 958.416 278.2C958.416 278.48 958.356 278.7 958.236 278.86C958.116 279.007 957.923 279.1 957.656 279.14C957.536 279.153 957.409 279.16 957.276 279.16C957.143 279.173 957.016 279.18 956.896 279.18Z" fill="#201F1F"/>
</svg>
