<svg width="166" height="69" viewBox="0 0 166 69" fill="none" xmlns="http://www.w3.org/2000/svg">
<g clip-path="url(#clip0_248_31696)">
<rect width="166" height="69" fill="white"/>
<path d="M37 21C37 12.1634 44.1634 5 53 5H112C120.837 5 128 12.1634 128 21C128 29.8366 120.837 37 112 37H53C44.1634 37 37 29.8366 37 21Z" fill="#E6EEF8"/>
<path d="M56.6667 27.3333C55.7444 27.3333 54.8778 27.1583 54.0667 26.8083C53.2556 26.4583 52.55 25.9833 51.95 25.3833C51.35 24.7833 50.875 24.0778 50.525 23.2667C50.175 22.4556 50 21.5889 50 20.6667C50 19.7444 50.175 18.8778 50.525 18.0667C50.875 17.2556 51.35 16.55 51.95 15.95C52.55 15.35 53.2556 14.875 54.0667 14.525C54.8778 14.175 55.7444 14 56.6667 14C57.5889 14 58.4556 14.175 59.2667 14.525C60.0778 14.875 60.7833 15.35 61.3833 15.95C61.9833 16.55 62.4583 17.2556 62.8083 18.0667C63.1583 18.8778 63.3333 19.7444 63.3333 20.6667C63.3333 21.5889 63.1583 22.4556 62.8083 23.2667C62.4583 24.0778 61.9833 24.7833 61.3833 25.3833C60.7833 25.9833 60.0778 26.4583 59.2667 26.8083C58.4556 27.1583 57.5889 27.3333 56.6667 27.3333ZM56.6667 26C58.1556 26 59.4167 25.4833 60.45 24.45C61.4833 23.4167 62 22.1556 62 20.6667C62 19.1778 61.4833 17.9167 60.45 16.8833C59.4167 15.85 58.1556 15.3333 56.6667 15.3333C55.1778 15.3333 53.9167 15.85 52.8833 16.8833C51.85 17.9167 51.3333 19.1778 51.3333 20.6667C51.3333 22.1556 51.85 23.4167 52.8833 24.45C53.9167 25.4833 55.1778 26 56.6667 26Z" fill="#2964A0"/>
<path d="M73.16 26C72.8933 26 72.6853 25.9253 72.536 25.776C72.3867 25.6267 72.312 25.4187 72.312 25.152V15.504C72.312 15.2267 72.3813 15.0187 72.52 14.88C72.6693 14.7307 72.8773 14.656 73.144 14.656C73.4107 14.656 73.6133 14.7307 73.752 14.88C73.9013 15.0187 73.976 15.2267 73.976 15.504V24.576H78.936C79.1707 24.576 79.352 24.64 79.48 24.768C79.608 24.8853 79.672 25.056 79.672 25.28C79.672 25.504 79.608 25.68 79.48 25.808C79.352 25.936 79.1707 26 78.936 26H73.16ZM82.9601 26.144C82.4161 26.144 81.9255 26.0373 81.4881 25.824C81.0615 25.6107 80.7255 25.3227 80.4801 24.96C80.2348 24.5973 80.1121 24.1867 80.1121 23.728C80.1121 23.152 80.2561 22.6987 80.5441 22.368C80.8428 22.0267 81.3281 21.7867 82.0001 21.648C82.6828 21.4987 83.6001 21.424 84.7521 21.424H85.5041V22.416H84.7681C84.0001 22.416 83.3921 22.4533 82.9441 22.528C82.4961 22.6027 82.1761 22.7307 81.9841 22.912C81.8028 23.0827 81.7121 23.3227 81.7121 23.632C81.7121 24.0373 81.8508 24.368 82.1281 24.624C82.4055 24.8693 82.7895 24.992 83.2801 24.992C83.6748 24.992 84.0215 24.9013 84.3201 24.72C84.6188 24.528 84.8535 24.272 85.0241 23.952C85.2055 23.632 85.2961 23.264 85.2961 22.848V21.008C85.2961 20.4 85.1681 19.9627 84.9121 19.696C84.6561 19.4293 84.2348 19.296 83.6481 19.296C83.3068 19.296 82.9495 19.3387 82.5761 19.424C82.2135 19.5093 81.8348 19.6533 81.4401 19.856C81.2588 19.9413 81.1041 19.968 80.9761 19.936C80.8481 19.904 80.7468 19.8347 80.6721 19.728C80.5975 19.6107 80.5548 19.488 80.5441 19.36C80.5441 19.2213 80.5761 19.088 80.6401 18.96C80.7148 18.832 80.8375 18.736 81.0081 18.672C81.4775 18.448 81.9415 18.288 82.4001 18.192C82.8588 18.096 83.2908 18.048 83.6961 18.048C84.4108 18.048 84.9975 18.16 85.4561 18.384C85.9255 18.608 86.2721 18.9493 86.4961 19.408C86.7201 19.8667 86.8321 20.4587 86.8321 21.184V25.296C86.8321 25.552 86.7681 25.7547 86.6401 25.904C86.5121 26.0427 86.3255 26.112 86.0801 26.112C85.8455 26.112 85.6588 26.0427 85.5201 25.904C85.3815 25.7547 85.3121 25.552 85.3121 25.296V24.256H85.4561C85.3708 24.6507 85.2108 24.992 84.9761 25.28C84.7521 25.5573 84.4695 25.7707 84.1281 25.92C83.7868 26.0693 83.3975 26.144 82.9601 26.144ZM92.7499 26.144C92.0672 26.144 91.4752 25.9733 90.9739 25.632C90.4725 25.28 90.1365 24.816 89.9659 24.24L90.1419 23.952V25.296C90.1419 25.552 90.0725 25.7547 89.9339 25.904C89.7952 26.0427 89.6032 26.112 89.3579 26.112C89.1019 26.112 88.9045 26.0427 88.7659 25.904C88.6272 25.7547 88.5579 25.552 88.5579 25.296V15.424C88.5579 15.1573 88.6272 14.9547 88.7659 14.816C88.9045 14.6773 89.1019 14.608 89.3579 14.608C89.6139 14.608 89.8112 14.6773 89.9499 14.816C90.0992 14.9547 90.1739 15.1573 90.1739 15.424V19.904H89.9819C90.1525 19.3387 90.4885 18.8907 90.9899 18.56C91.4912 18.2187 92.0779 18.048 92.7499 18.048C93.4539 18.048 94.0619 18.2133 94.5739 18.544C95.0859 18.8747 95.4805 19.3387 95.7579 19.936C96.0459 20.5333 96.1899 21.2533 96.1899 22.096C96.1899 22.9173 96.0459 23.6373 95.7579 24.256C95.4805 24.864 95.0805 25.3333 94.5579 25.664C94.0459 25.984 93.4432 26.144 92.7499 26.144ZM92.3499 24.896C92.7979 24.896 93.1872 24.7893 93.5179 24.576C93.8485 24.3627 94.1045 24.048 94.2859 23.632C94.4672 23.216 94.5579 22.704 94.5579 22.096C94.5579 21.1787 94.3552 20.4853 93.9499 20.016C93.5552 19.5467 93.0219 19.312 92.3499 19.312C91.9125 19.312 91.5232 19.4187 91.1819 19.632C90.8512 19.8347 90.5952 20.144 90.4139 20.56C90.2325 20.976 90.1419 21.488 90.1419 22.096C90.1419 23.0027 90.3445 23.696 90.7499 24.176C91.1552 24.656 91.6885 24.896 92.3499 24.896ZM101.175 26.144C100.322 26.144 99.5857 25.984 98.967 25.664C98.359 25.3333 97.8843 24.8693 97.543 24.272C97.2123 23.664 97.047 22.944 97.047 22.112C97.047 21.3013 97.2123 20.592 97.543 19.984C97.8737 19.376 98.327 18.9013 98.903 18.56C99.479 18.2187 100.135 18.048 100.871 18.048C101.415 18.048 101.9 18.1387 102.327 18.32C102.754 18.4907 103.116 18.7467 103.415 19.088C103.724 19.4187 103.954 19.824 104.103 20.304C104.263 20.784 104.343 21.3227 104.343 21.92C104.343 22.1013 104.29 22.24 104.183 22.336C104.076 22.4213 103.916 22.464 103.703 22.464H98.327V21.472H103.255L102.983 21.696C102.983 21.1627 102.903 20.7093 102.743 20.336C102.594 19.9627 102.364 19.68 102.055 19.488C101.756 19.2853 101.383 19.184 100.935 19.184C100.434 19.184 100.007 19.3013 99.655 19.536C99.3137 19.7707 99.0523 20.096 98.871 20.512C98.6897 20.928 98.599 21.4133 98.599 21.968V22.064C98.599 23.0027 98.8177 23.712 99.255 24.192C99.703 24.6613 100.348 24.896 101.191 24.896C101.511 24.896 101.847 24.8533 102.199 24.768C102.562 24.6827 102.903 24.5387 103.223 24.336C103.404 24.2293 103.564 24.1813 103.703 24.192C103.852 24.2027 103.97 24.2507 104.055 24.336C104.151 24.4213 104.21 24.528 104.231 24.656C104.252 24.784 104.231 24.9173 104.167 25.056C104.103 25.184 103.991 25.3013 103.831 25.408C103.468 25.6533 103.047 25.84 102.567 25.968C102.087 26.0853 101.623 26.144 101.175 26.144ZM108.117 26.144C107.285 26.144 106.655 25.904 106.229 25.424C105.813 24.9333 105.605 24.2293 105.605 23.312V15.424C105.605 15.1573 105.674 14.9547 105.813 14.816C105.951 14.6773 106.149 14.608 106.405 14.608C106.661 14.608 106.858 14.6773 106.997 14.816C107.146 14.9547 107.221 15.1573 107.221 15.424V23.216C107.221 23.7493 107.327 24.1493 107.541 24.416C107.765 24.672 108.085 24.8 108.501 24.8C108.597 24.8 108.682 24.8 108.757 24.8C108.831 24.7893 108.906 24.7787 108.981 24.768C109.109 24.7573 109.199 24.7947 109.253 24.88C109.306 24.9547 109.333 25.1147 109.333 25.36C109.333 25.584 109.285 25.76 109.189 25.888C109.093 26.0053 108.938 26.08 108.725 26.112C108.629 26.1227 108.527 26.128 108.421 26.128C108.314 26.1387 108.213 26.144 108.117 26.144Z" fill="#2964A0"/>
<g clip-path="url(#clip1_248_31696)">
<path d="M3.1 30C2.82 30 2.6 29.92 2.44 29.76C2.28 29.6 2.2 29.3867 2.2 29.12C2.2 28.84 2.28 28.6267 2.44 28.48C2.6 28.3333 2.82 28.26 3.1 28.26H5.54V17.62H6.58L3.66 19.48C3.44667 19.6 3.24667 19.6467 3.06 19.62C2.88667 19.5933 2.73333 19.52 2.6 19.4C2.48 19.28 2.39333 19.1333 2.34 18.96C2.3 18.7867 2.31333 18.6067 2.38 18.42C2.46 18.2333 2.6 18.08 2.8 17.96L5.56 16.22C5.78667 16.0867 6 15.98 6.2 15.9C6.41333 15.8067 6.61333 15.76 6.8 15.76C7.02667 15.76 7.21333 15.8267 7.36 15.96C7.52 16.08 7.6 16.2867 7.6 16.58V28.26H9.84C10.1333 28.26 10.36 28.3333 10.52 28.48C10.68 28.6267 10.76 28.84 10.76 29.12C10.76 29.4 10.68 29.62 10.52 29.78C10.36 29.9267 10.1333 30 9.84 30H3.1ZM13.8922 30.08C13.5055 30.08 13.1922 29.96 12.9522 29.72C12.7122 29.48 12.5922 29.1733 12.5922 28.8C12.5922 28.4267 12.7122 28.1267 12.9522 27.9C13.1922 27.66 13.5055 27.54 13.8922 27.54C14.2789 27.54 14.5855 27.66 14.8122 27.9C15.0389 28.1267 15.1522 28.4267 15.1522 28.8C15.1522 29.1733 15.0389 29.48 14.8122 29.72C14.5855 29.96 14.2789 30.08 13.8922 30.08Z" fill="#737272"/>
<path d="M36.6667 22.5C36.6667 21.0272 35.4728 19.8333 34 19.8333C32.5272 19.8333 31.3333 21.0272 31.3333 22.5C31.3333 23.9728 32.5272 25.1667 34 25.1667C35.4728 25.1667 36.6667 23.9728 36.6667 22.5ZM34 22.5L34 22L17 22L17 22.5L17 23L34 23L34 22.5Z" fill="#737272"/>
<path d="M136.78 30.18C136.033 30.18 135.273 30.08 134.5 29.88C133.727 29.6667 133.053 29.3533 132.48 28.94C132.267 28.8067 132.12 28.6467 132.04 28.46C131.973 28.26 131.96 28.08 132 27.92C132.04 27.7467 132.12 27.6 132.24 27.48C132.373 27.36 132.533 27.2933 132.72 27.28C132.907 27.2533 133.113 27.3067 133.34 27.44C133.913 27.7867 134.473 28.04 135.02 28.2C135.567 28.3467 136.133 28.42 136.72 28.42C137.36 28.42 137.9 28.3267 138.34 28.14C138.78 27.9533 139.107 27.68 139.32 27.32C139.547 26.96 139.66 26.5267 139.66 26.02C139.66 25.26 139.407 24.6933 138.9 24.32C138.407 23.9333 137.687 23.74 136.74 23.74H135.38C135.073 23.74 134.84 23.6667 134.68 23.52C134.52 23.36 134.44 23.14 134.44 22.86C134.44 22.5933 134.52 22.3867 134.68 22.24C134.84 22.08 135.073 22 135.38 22H136.54C137.113 22 137.6 21.9067 138 21.72C138.4 21.52 138.707 21.2467 138.92 20.9C139.147 20.54 139.26 20.1067 139.26 19.6C139.26 18.92 139.033 18.4 138.58 18.04C138.14 17.6667 137.493 17.48 136.64 17.48C136.093 17.48 135.573 17.5533 135.08 17.7C134.6 17.8467 134.1 18.1067 133.58 18.48C133.38 18.6133 133.187 18.6733 133 18.66C132.827 18.6333 132.673 18.5667 132.54 18.46C132.42 18.34 132.333 18.1933 132.28 18.02C132.24 17.8467 132.253 17.6667 132.32 17.48C132.387 17.2933 132.52 17.1333 132.72 17C133.28 16.5867 133.913 16.2733 134.62 16.06C135.327 15.8333 136.053 15.72 136.8 15.72C137.733 15.72 138.533 15.8667 139.2 16.16C139.88 16.4533 140.393 16.8733 140.74 17.42C141.1 17.9667 141.28 18.62 141.28 19.38C141.28 19.9533 141.173 20.4733 140.96 20.94C140.747 21.4067 140.44 21.8067 140.04 22.14C139.653 22.46 139.18 22.6867 138.62 22.82V22.6C139.593 22.76 140.347 23.16 140.88 23.8C141.413 24.4267 141.68 25.2133 141.68 26.16C141.68 26.9867 141.48 27.7067 141.08 28.32C140.693 28.92 140.133 29.38 139.4 29.7C138.667 30.02 137.793 30.18 136.78 30.18ZM144.892 30.08C144.506 30.08 144.192 29.96 143.952 29.72C143.712 29.48 143.592 29.1733 143.592 28.8C143.592 28.4267 143.712 28.1267 143.952 27.9C144.192 27.66 144.506 27.54 144.892 27.54C145.279 27.54 145.586 27.66 145.812 27.9C146.039 28.1267 146.152 28.4267 146.152 28.8C146.152 29.1733 146.039 29.48 145.812 29.72C145.586 29.96 145.279 30.08 144.892 30.08Z" fill="#737272"/>
<path d="M111.333 22.5C111.333 21.0272 112.527 19.8333 114 19.8333C115.473 19.8333 116.667 21.0272 116.667 22.5C116.667 23.9728 115.473 25.1667 114 25.1667C112.527 25.1667 111.333 23.9728 111.333 22.5ZM114 22.5L114 22L131 22L131 22.5L131 23L114 23L114 22.5Z" fill="#737272"/>
<path d="M46.62 62C46.26 62 46 61.92 45.84 61.76C45.68 61.5867 45.6 61.3533 45.6 61.06C45.6 60.8733 45.6467 60.6933 45.74 60.52C45.8333 60.3467 45.9667 60.1667 46.14 59.98L50.4 55.42C51.0533 54.7267 51.52 54.0933 51.8 53.52C52.0933 52.9333 52.24 52.3467 52.24 51.76C52.24 51.0133 52.0133 50.4467 51.56 50.06C51.1067 49.6733 50.44 49.48 49.56 49.48C49.0267 49.48 48.5133 49.56 48.02 49.72C47.5267 49.88 47.0333 50.14 46.54 50.5C46.34 50.6333 46.1533 50.6933 45.98 50.68C45.8067 50.6667 45.6533 50.6 45.52 50.48C45.4 50.36 45.32 50.2133 45.28 50.04C45.24 49.8667 45.2467 49.6867 45.3 49.5C45.3533 49.3133 45.48 49.1533 45.68 49.02C46.2267 48.6067 46.86 48.2867 47.58 48.06C48.3 47.8333 49.0333 47.72 49.78 47.72C50.7533 47.72 51.5733 47.8733 52.24 48.18C52.92 48.4733 53.4333 48.9067 53.78 49.48C54.1267 50.0533 54.3 50.7533 54.3 51.58C54.3 52.14 54.2067 52.6867 54.02 53.22C53.8467 53.7533 53.5733 54.3 53.2 54.86C52.84 55.4067 52.3667 55.9867 51.78 56.6L47.74 60.84V60.26H54.1C54.3933 60.26 54.62 60.3333 54.78 60.48C54.94 60.6267 55.02 60.84 55.02 61.12C55.02 61.4 54.94 61.62 54.78 61.78C54.62 61.9267 54.3933 62 54.1 62H46.62ZM57.8922 62.08C57.5055 62.08 57.1922 61.96 56.9522 61.72C56.7122 61.48 56.5922 61.1733 56.5922 60.8C56.5922 60.4267 56.7122 60.1267 56.9522 59.9C57.1922 59.66 57.5055 59.54 57.8922 59.54C58.2789 59.54 58.5855 59.66 58.8122 59.9C59.0389 60.1267 59.1522 60.4267 59.1522 60.8C59.1522 61.1733 59.0389 61.48 58.8122 61.72C58.5855 61.96 58.2789 62.08 57.8922 62.08Z" fill="#737272"/>
<path d="M58 30.3333C56.5272 30.3333 55.3333 31.5272 55.3333 33C55.3333 34.4728 56.5272 35.6667 58 35.6667C59.4728 35.6667 60.6667 34.4728 60.6667 33C60.6667 31.5272 59.4728 30.3333 58 30.3333ZM58 33H57.5V45H58H58.5V33H58Z" fill="#737272"/>
</g>
</g>
<defs>
<clipPath id="clip0_248_31696">
<rect width="166" height="69" fill="white"/>
</clipPath>
<clipPath id="clip1_248_31696">
<rect width="166" height="69" fill="white"/>
</clipPath>
</defs>
</svg>
