<svg viewBox="0 0 20 20" fill="none" xmlns="http://www.w3.org/2000/svg">
<path d="M2.08325 13.4375V6.56252C2.08325 6.31252 2.16659 6.11113 2.33325 5.95835C2.49992 5.80558 2.69436 5.72919 2.91659 5.72919C2.98603 5.72919 3.06242 5.73613 3.14575 5.75002C3.22909 5.76391 3.30547 5.79863 3.37492 5.85419L8.54159 9.31252C8.66659 9.39585 8.76034 9.49655 8.82284 9.6146C8.88534 9.73266 8.91659 9.86113 8.91659 10C8.91659 10.1389 8.88534 10.2674 8.82284 10.3854C8.76034 10.5035 8.66659 10.6042 8.54159 10.6875L3.37492 14.1459C3.30547 14.2014 3.22909 14.2361 3.14575 14.25C3.06242 14.2639 2.98603 14.2709 2.91659 14.2709C2.69436 14.2709 2.49992 14.1945 2.33325 14.0417C2.16659 13.8889 2.08325 13.6875 2.08325 13.4375ZM10.4166 13.4375V6.56252C10.4166 6.31252 10.4999 6.11113 10.6666 5.95835C10.8333 5.80558 11.0277 5.72919 11.2499 5.72919C11.3194 5.72919 11.3958 5.73613 11.4791 5.75002C11.5624 5.76391 11.6388 5.79863 11.7083 5.85419L16.8749 9.31252C16.9999 9.39585 17.0937 9.49655 17.1562 9.6146C17.2187 9.73266 17.2499 9.86113 17.2499 10C17.2499 10.1389 17.2187 10.2674 17.1562 10.3854C17.0937 10.5035 16.9999 10.6042 16.8749 10.6875L11.7083 14.1459C11.6388 14.2014 11.5624 14.2361 11.4791 14.25C11.3958 14.2639 11.3194 14.2709 11.2499 14.2709C11.0277 14.2709 10.8333 14.1945 10.6666 14.0417C10.4999 13.8889 10.4166 13.6875 10.4166 13.4375ZM3.74992 11.875L6.58325 10L3.74992 8.12502V11.875ZM12.0833 11.875L14.9166 10L12.0833 8.12502V11.875Z" fill="currentColor"/>
</svg>