<svg viewBox="0 0 20 20" fill="none" xmlns="http://www.w3.org/2000/svg">
<path d="M3.33317 16.6667C2.87484 16.6667 2.48248 16.5035 2.15609 16.1771C1.8297 15.8507 1.6665 15.4584 1.6665 15V5.00004C1.6665 4.54171 1.8297 4.14935 2.15609 3.82296C2.48248 3.49657 2.87484 3.33337 3.33317 3.33337H7.64567C7.86789 3.33337 8.0797 3.37504 8.28109 3.45837C8.48248 3.54171 8.65956 3.65976 8.81234 3.81254L9.99984 5.00004H16.6665C17.1248 5.00004 17.5172 5.16324 17.8436 5.48962C18.17 5.81601 18.3332 6.20837 18.3332 6.66671V15C18.3332 15.4584 18.17 15.8507 17.8436 16.1771C17.5172 16.5035 17.1248 16.6667 16.6665 16.6667H3.33317ZM3.33317 15H16.6665V6.66671H9.31234L7.64567 5.00004H3.33317V15Z" fill="currentColor"/>
</svg>