<svg viewBox="0 0 20 20" fill="none" xmlns="http://www.w3.org/2000/svg">
<path d="M7.49996 12.5H4.99996C4.76385 12.5 4.56593 12.4201 4.40621 12.2604C4.24649 12.1007 4.16663 11.9028 4.16663 11.6667V8.33333C4.16663 8.09722 4.24649 7.89931 4.40621 7.73958C4.56593 7.57986 4.76385 7.5 4.99996 7.5H7.49996L10.25 4.75C10.5138 4.48611 10.8159 4.42708 11.1562 4.57292C11.4965 4.71875 11.6666 4.97917 11.6666 5.35417V14.6458C11.6666 15.0208 11.4965 15.2812 11.1562 15.4271C10.8159 15.5729 10.5138 15.5139 10.25 15.25L7.49996 12.5ZM15.4166 10C15.4166 10.5833 15.2847 11.1354 15.0208 11.6562C14.7569 12.1771 14.4097 12.6042 13.9791 12.9375C13.8402 13.0208 13.6979 13.0243 13.552 12.9479C13.4062 12.8715 13.3333 12.75 13.3333 12.5833V7.375C13.3333 7.20833 13.4062 7.08681 13.552 7.01042C13.6979 6.93403 13.8402 6.9375 13.9791 7.02083C14.4097 7.36806 14.7569 7.80556 15.0208 8.33333C15.2847 8.86111 15.4166 9.41667 15.4166 10ZM9.99996 7.375L8.20829 9.16667H5.83329V10.8333H8.20829L9.99996 12.625V7.375Z" fill="currentColor"/>
</svg>