<svg width="712" height="136" viewBox="0 0 712 136" fill="none" xmlns="http://www.w3.org/2000/svg">
<path d="M8 0.5H704C708.142 0.5 711.5 3.85786 711.5 8V128C711.5 132.142 708.142 135.5 704 135.5H8C3.85786 135.5 0.5 132.142 0.5 128V8C0.5 3.85786 3.85786 0.5 8 0.5Z" fill="white"/>
<path d="M8 0.5H704C708.142 0.5 711.5 3.85786 711.5 8V128C711.5 132.142 708.142 135.5 704 135.5H8C3.85786 135.5 0.5 132.142 0.5 128V8C0.5 3.85786 3.85786 0.5 8 0.5Z" stroke="#737272"/>
<rect x="88" y="32" width="40" height="40" rx="4" fill="#2964A0"/>
<rect x="136" y="32" width="40" height="40" rx="4" fill="#225082"/>
<rect x="184" y="32" width="40" height="40" rx="4" fill="#214770"/>
<path d="M112.266 98V86.5469H116.562C117.438 86.5469 118.138 86.6641 118.664 86.8984C119.195 87.1276 119.609 87.4844 119.906 87.9688C120.208 88.4479 120.359 88.9505 120.359 89.4766C120.359 89.9661 120.227 90.4271 119.961 90.8594C119.695 91.2917 119.294 91.6406 118.758 91.9062C119.451 92.1094 119.982 92.4557 120.352 92.9453C120.727 93.4349 120.914 94.013 120.914 94.6797C120.914 95.2161 120.799 95.7161 120.57 96.1797C120.346 96.638 120.068 96.9922 119.734 97.2422C119.401 97.4922 118.982 97.6823 118.477 97.8125C117.977 97.9375 117.362 98 116.633 98H112.266ZM113.781 91.3594H116.258C116.93 91.3594 117.411 91.3151 117.703 91.2266C118.089 91.112 118.378 90.9219 118.57 90.6562C118.768 90.3906 118.867 90.0573 118.867 89.6562C118.867 89.276 118.776 88.9427 118.594 88.6562C118.411 88.3646 118.151 88.1667 117.812 88.0625C117.474 87.9531 116.893 87.8984 116.07 87.8984H113.781V91.3594ZM113.781 96.6484H116.633C117.122 96.6484 117.466 96.6302 117.664 96.5938C118.013 96.5312 118.305 96.4271 118.539 96.2812C118.773 96.1354 118.966 95.9245 119.117 95.6484C119.268 95.3672 119.344 95.0443 119.344 94.6797C119.344 94.2526 119.234 93.8828 119.016 93.5703C118.797 93.2526 118.492 93.0312 118.102 92.9062C117.716 92.776 117.159 92.7109 116.43 92.7109H113.781V96.6484ZM122.789 98V86.5469H124.195V98H122.789ZM132.062 95.3281L133.516 95.5078C133.286 96.3568 132.862 97.0156 132.242 97.4844C131.622 97.9531 130.831 98.1875 129.867 98.1875C128.654 98.1875 127.69 97.8151 126.977 97.0703C126.268 96.3203 125.914 95.2708 125.914 93.9219C125.914 92.526 126.273 91.4427 126.992 90.6719C127.711 89.901 128.643 89.5156 129.789 89.5156C130.898 89.5156 131.805 89.8932 132.508 90.6484C133.211 91.4036 133.562 92.4661 133.562 93.8359C133.562 93.9193 133.56 94.0443 133.555 94.2109H127.367C127.419 95.1224 127.677 95.8203 128.141 96.3047C128.604 96.7891 129.182 97.0312 129.875 97.0312C130.391 97.0312 130.831 96.8958 131.195 96.625C131.56 96.3542 131.849 95.9219 132.062 95.3281ZM127.445 93.0547H132.078C132.016 92.3568 131.839 91.8333 131.547 91.4844C131.099 90.9427 130.518 90.6719 129.805 90.6719C129.159 90.6719 128.615 90.888 128.172 91.3203C127.734 91.7526 127.492 92.3307 127.445 93.0547ZM140.727 98V96.7812C140.081 97.7188 139.203 98.1875 138.094 98.1875C137.604 98.1875 137.146 98.0938 136.719 97.9062C136.297 97.7188 135.982 97.4844 135.773 97.2031C135.57 96.9167 135.427 96.5677 135.344 96.1562C135.286 95.8802 135.258 95.4427 135.258 94.8438V89.7031H136.664V94.3047C136.664 95.0391 136.693 95.5339 136.75 95.7891C136.839 96.1589 137.026 96.4505 137.312 96.6641C137.599 96.8724 137.953 96.9766 138.375 96.9766C138.797 96.9766 139.193 96.8698 139.562 96.6562C139.932 96.4375 140.193 96.1432 140.344 95.7734C140.5 95.3984 140.578 94.8568 140.578 94.1484V89.7031H141.984V98H140.727ZM149.086 98V86.5469H150.602V98H149.086ZM158.516 94.9609L159.898 95.1406C159.747 96.0938 159.359 96.8411 158.734 97.3828C158.115 97.9193 157.352 98.1875 156.445 98.1875C155.31 98.1875 154.396 97.8177 153.703 97.0781C153.016 96.3333 152.672 95.2682 152.672 93.8828C152.672 92.987 152.82 92.2031 153.117 91.5312C153.414 90.8594 153.865 90.3568 154.469 90.0234C155.078 89.6849 155.74 89.5156 156.453 89.5156C157.354 89.5156 158.091 89.7448 158.664 90.2031C159.237 90.6562 159.604 91.3021 159.766 92.1406L158.398 92.3516C158.268 91.7943 158.036 91.375 157.703 91.0938C157.375 90.8125 156.977 90.6719 156.508 90.6719C155.799 90.6719 155.224 90.9271 154.781 91.4375C154.339 91.9427 154.117 92.7448 154.117 93.8438C154.117 94.9583 154.331 95.7682 154.758 96.2734C155.185 96.7786 155.742 97.0312 156.43 97.0312C156.982 97.0312 157.443 96.862 157.812 96.5234C158.182 96.1849 158.417 95.6641 158.516 94.9609ZM166.781 95.3281L168.234 95.5078C168.005 96.3568 167.581 97.0156 166.961 97.4844C166.341 97.9531 165.549 98.1875 164.586 98.1875C163.372 98.1875 162.409 97.8151 161.695 97.0703C160.987 96.3203 160.633 95.2708 160.633 93.9219C160.633 92.526 160.992 91.4427 161.711 90.6719C162.43 89.901 163.362 89.5156 164.508 89.5156C165.617 89.5156 166.523 89.8932 167.227 90.6484C167.93 91.4036 168.281 92.4661 168.281 93.8359C168.281 93.9193 168.279 94.0443 168.273 94.2109H162.086C162.138 95.1224 162.396 95.8203 162.859 96.3047C163.323 96.7891 163.901 97.0312 164.594 97.0312C165.109 97.0312 165.549 96.8958 165.914 96.625C166.279 96.3542 166.568 95.9219 166.781 95.3281ZM162.164 93.0547H166.797C166.734 92.3568 166.557 91.8333 166.266 91.4844C165.818 90.9427 165.237 90.6719 164.523 90.6719C163.878 90.6719 163.333 90.888 162.891 91.3203C162.453 91.7526 162.211 92.3307 162.164 93.0547ZM171.305 98H170V86.5469H171.406V90.6328C172 89.888 172.758 89.5156 173.68 89.5156C174.19 89.5156 174.672 89.6198 175.125 89.8281C175.583 90.0312 175.958 90.3203 176.25 90.6953C176.547 91.0651 176.779 91.513 176.945 92.0391C177.112 92.5651 177.195 93.1276 177.195 93.7266C177.195 95.1484 176.844 96.2474 176.141 97.0234C175.438 97.7995 174.594 98.1875 173.609 98.1875C172.63 98.1875 171.862 97.7786 171.305 96.9609V98ZM171.289 93.7891C171.289 94.7839 171.424 95.5026 171.695 95.9453C172.138 96.6693 172.737 97.0312 173.492 97.0312C174.107 97.0312 174.638 96.7656 175.086 96.2344C175.534 95.6979 175.758 94.901 175.758 93.8438C175.758 92.7604 175.542 91.9609 175.109 91.4453C174.682 90.9297 174.164 90.6719 173.555 90.6719C172.94 90.6719 172.409 90.9401 171.961 91.4766C171.513 92.0078 171.289 92.7786 171.289 93.7891ZM184.594 95.3281L186.047 95.5078C185.818 96.3568 185.393 97.0156 184.773 97.4844C184.154 97.9531 183.362 98.1875 182.398 98.1875C181.185 98.1875 180.221 97.8151 179.508 97.0703C178.799 96.3203 178.445 95.2708 178.445 93.9219C178.445 92.526 178.805 91.4427 179.523 90.6719C180.242 89.901 181.174 89.5156 182.32 89.5156C183.43 89.5156 184.336 89.8932 185.039 90.6484C185.742 91.4036 186.094 92.4661 186.094 93.8359C186.094 93.9193 186.091 94.0443 186.086 94.2109H179.898C179.951 95.1224 180.208 95.8203 180.672 96.3047C181.135 96.7891 181.714 97.0312 182.406 97.0312C182.922 97.0312 183.362 96.8958 183.727 96.625C184.091 96.3542 184.38 95.9219 184.594 95.3281ZM179.977 93.0547H184.609C184.547 92.3568 184.37 91.8333 184.078 91.4844C183.63 90.9427 183.049 90.6719 182.336 90.6719C181.69 90.6719 181.146 90.888 180.703 91.3203C180.266 91.7526 180.023 92.3307 179.977 93.0547ZM187.805 98V89.7031H189.07V90.9609C189.393 90.3724 189.69 89.9844 189.961 89.7969C190.237 89.6094 190.539 89.5156 190.867 89.5156C191.341 89.5156 191.823 89.6667 192.312 89.9688L191.828 91.2734C191.484 91.0703 191.141 90.9688 190.797 90.9688C190.49 90.9688 190.214 91.0625 189.969 91.25C189.724 91.4323 189.549 91.6875 189.445 92.0156C189.289 92.5156 189.211 93.0625 189.211 93.6562V98H187.805ZM192.891 98.6875L194.258 98.8906C194.315 99.3125 194.474 99.6198 194.734 99.8125C195.083 100.073 195.56 100.203 196.164 100.203C196.815 100.203 197.318 100.073 197.672 99.8125C198.026 99.5521 198.266 99.1875 198.391 98.7188C198.464 98.4323 198.497 97.8307 198.492 96.9141C197.878 97.638 197.112 98 196.195 98C195.055 98 194.172 97.5885 193.547 96.7656C192.922 95.9427 192.609 94.9557 192.609 93.8047C192.609 93.013 192.753 92.2839 193.039 91.6172C193.326 90.9453 193.74 90.4271 194.281 90.0625C194.828 89.6979 195.469 89.5156 196.203 89.5156C197.182 89.5156 197.99 89.9115 198.625 90.7031V89.7031H199.922V96.875C199.922 98.1667 199.789 99.0807 199.523 99.6172C199.263 100.159 198.846 100.586 198.273 100.898C197.706 101.211 197.005 101.367 196.172 101.367C195.182 101.367 194.383 101.143 193.773 100.695C193.164 100.253 192.87 99.5833 192.891 98.6875ZM194.055 93.7031C194.055 94.7917 194.271 95.5859 194.703 96.0859C195.135 96.5859 195.677 96.8359 196.328 96.8359C196.974 96.8359 197.516 96.5885 197.953 96.0938C198.391 95.5938 198.609 94.8125 198.609 93.75C198.609 92.7344 198.383 91.9688 197.93 91.4531C197.482 90.9375 196.94 90.6797 196.305 90.6797C195.68 90.6797 195.148 90.9349 194.711 91.4453C194.273 91.9505 194.055 92.7031 194.055 93.7031Z" fill="#3E3E3D"/>
<rect x="288" y="32" width="40" height="40" rx="4" fill="#7D5A9F"/>
<rect x="336" y="32" width="40" height="40" rx="4" fill="#674883"/>
<rect x="384" y="32" width="40" height="40" rx="4" fill="#563C6C"/>
<path d="M340.742 98L336.305 86.5469H337.945L340.922 94.8672C341.161 95.5339 341.362 96.1589 341.523 96.7422C341.701 96.1172 341.906 95.4922 342.141 94.8672L345.234 86.5469H346.781L342.297 98H340.742ZM347.672 88.1641V86.5469H349.078V88.1641H347.672ZM347.672 98V89.7031H349.078V98H347.672ZM350.703 93.8516C350.703 92.3151 351.13 91.1771 351.984 90.4375C352.698 89.8229 353.568 89.5156 354.594 89.5156C355.734 89.5156 356.667 89.8906 357.391 90.6406C358.115 91.3854 358.477 92.4167 358.477 93.7344C358.477 94.8021 358.315 95.6432 357.992 96.2578C357.674 96.8672 357.208 97.3411 356.594 97.6797C355.984 98.0182 355.318 98.1875 354.594 98.1875C353.432 98.1875 352.492 97.8151 351.773 97.0703C351.06 96.3255 350.703 95.2526 350.703 93.8516ZM352.148 93.8516C352.148 94.9141 352.38 95.7109 352.844 96.2422C353.307 96.7682 353.891 97.0312 354.594 97.0312C355.292 97.0312 355.872 96.7656 356.336 96.2344C356.799 95.7031 357.031 94.8932 357.031 93.8047C357.031 92.7786 356.797 92.0026 356.328 91.4766C355.865 90.9453 355.286 90.6797 354.594 90.6797C353.891 90.6797 353.307 90.9427 352.844 91.4688C352.38 91.9948 352.148 92.7891 352.148 93.8516ZM360.102 98V86.5469H361.508V98H360.102ZM369.375 95.3281L370.828 95.5078C370.599 96.3568 370.174 97.0156 369.555 97.4844C368.935 97.9531 368.143 98.1875 367.18 98.1875C365.966 98.1875 365.003 97.8151 364.289 97.0703C363.581 96.3203 363.227 95.2708 363.227 93.9219C363.227 92.526 363.586 91.4427 364.305 90.6719C365.023 89.901 365.956 89.5156 367.102 89.5156C368.211 89.5156 369.117 89.8932 369.82 90.6484C370.523 91.4036 370.875 92.4661 370.875 93.8359C370.875 93.9193 370.872 94.0443 370.867 94.2109H364.68C364.732 95.1224 364.99 95.8203 365.453 96.3047C365.917 96.7891 366.495 97.0312 367.188 97.0312C367.703 97.0312 368.143 96.8958 368.508 96.625C368.872 96.3542 369.161 95.9219 369.375 95.3281ZM364.758 93.0547H369.391C369.328 92.3568 369.151 91.8333 368.859 91.4844C368.411 90.9427 367.831 90.6719 367.117 90.6719C366.471 90.6719 365.927 90.888 365.484 91.3203C365.047 91.7526 364.805 92.3307 364.758 93.0547ZM375.672 96.7422L375.875 97.9844C375.479 98.0677 375.125 98.1094 374.812 98.1094C374.302 98.1094 373.906 98.0286 373.625 97.8672C373.344 97.7057 373.146 97.4948 373.031 97.2344C372.917 96.9688 372.859 96.4141 372.859 95.5703V90.7969H371.828V89.7031H372.859V87.6484L374.258 86.8047V89.7031H375.672V90.7969H374.258V95.6484C374.258 96.0495 374.281 96.3073 374.328 96.4219C374.38 96.5365 374.461 96.6276 374.57 96.6953C374.685 96.763 374.846 96.7969 375.055 96.7969C375.211 96.7969 375.417 96.7786 375.672 96.7422Z" fill="#3E3E3D"/>
<rect x="488" y="32" width="40" height="40" rx="4" fill="#1B8065"/>
<rect x="536" y="32" width="40" height="40" rx="4" fill="#176B57"/>
<rect x="584" y="32" width="40" height="40" rx="4" fill="#145143"/>
<path d="M525.711 98L521.273 86.5469H522.914L525.891 94.8672C526.13 95.5339 526.331 96.1589 526.492 96.7422C526.669 96.1172 526.875 95.4922 527.109 94.8672L530.203 86.5469H531.75L527.266 98H525.711ZM537.719 95.3281L539.172 95.5078C538.943 96.3568 538.518 97.0156 537.898 97.4844C537.279 97.9531 536.487 98.1875 535.523 98.1875C534.31 98.1875 533.346 97.8151 532.633 97.0703C531.924 96.3203 531.57 95.2708 531.57 93.9219C531.57 92.526 531.93 91.4427 532.648 90.6719C533.367 89.901 534.299 89.5156 535.445 89.5156C536.555 89.5156 537.461 89.8932 538.164 90.6484C538.867 91.4036 539.219 92.4661 539.219 93.8359C539.219 93.9193 539.216 94.0443 539.211 94.2109H533.023C533.076 95.1224 533.333 95.8203 533.797 96.3047C534.26 96.7891 534.839 97.0312 535.531 97.0312C536.047 97.0312 536.487 96.8958 536.852 96.625C537.216 96.3542 537.505 95.9219 537.719 95.3281ZM533.102 93.0547H537.734C537.672 92.3568 537.495 91.8333 537.203 91.4844C536.755 90.9427 536.174 90.6719 535.461 90.6719C534.815 90.6719 534.271 90.888 533.828 91.3203C533.391 91.7526 533.148 92.3307 533.102 93.0547ZM540.93 98V89.7031H542.195V90.9609C542.518 90.3724 542.815 89.9844 543.086 89.7969C543.362 89.6094 543.664 89.5156 543.992 89.5156C544.466 89.5156 544.948 89.6667 545.438 89.9688L544.953 91.2734C544.609 91.0703 544.266 90.9688 543.922 90.9688C543.615 90.9688 543.339 91.0625 543.094 91.25C542.849 91.4323 542.674 91.6875 542.57 92.0156C542.414 92.5156 542.336 93.0625 542.336 93.6562V98H540.93ZM549.344 96.7422L549.547 97.9844C549.151 98.0677 548.797 98.1094 548.484 98.1094C547.974 98.1094 547.578 98.0286 547.297 97.8672C547.016 97.7057 546.818 97.4948 546.703 97.2344C546.589 96.9688 546.531 96.4141 546.531 95.5703V90.7969H545.5V89.7031H546.531V87.6484L547.93 86.8047V89.7031H549.344V90.7969H547.93V95.6484C547.93 96.0495 547.953 96.3073 548 96.4219C548.052 96.5365 548.133 96.6276 548.242 96.6953C548.357 96.763 548.518 96.7969 548.727 96.7969C548.883 96.7969 549.089 96.7786 549.344 96.7422ZM555.438 98V86.5469H563.164V87.8984H556.953V91.4453H562.328V92.7969H556.953V98H555.438ZM564.438 93.8516C564.438 92.3151 564.865 91.1771 565.719 90.4375C566.432 89.8229 567.302 89.5156 568.328 89.5156C569.469 89.5156 570.401 89.8906 571.125 90.6406C571.849 91.3854 572.211 92.4167 572.211 93.7344C572.211 94.8021 572.049 95.6432 571.727 96.2578C571.409 96.8672 570.943 97.3411 570.328 97.6797C569.719 98.0182 569.052 98.1875 568.328 98.1875C567.167 98.1875 566.227 97.8151 565.508 97.0703C564.794 96.3255 564.438 95.2526 564.438 93.8516ZM565.883 93.8516C565.883 94.9141 566.115 95.7109 566.578 96.2422C567.042 96.7682 567.625 97.0312 568.328 97.0312C569.026 97.0312 569.607 96.7656 570.07 96.2344C570.534 95.7031 570.766 94.8932 570.766 93.8047C570.766 92.7786 570.531 92.0026 570.062 91.4766C569.599 90.9453 569.021 90.6797 568.328 90.6797C567.625 90.6797 567.042 90.9427 566.578 91.4688C566.115 91.9948 565.883 92.7891 565.883 93.8516ZM573.852 98V89.7031H575.117V90.9609C575.44 90.3724 575.737 89.9844 576.008 89.7969C576.284 89.6094 576.586 89.5156 576.914 89.5156C577.388 89.5156 577.87 89.6667 578.359 89.9688L577.875 91.2734C577.531 91.0703 577.188 90.9688 576.844 90.9688C576.536 90.9688 576.26 91.0625 576.016 91.25C575.771 91.4323 575.596 91.6875 575.492 92.0156C575.336 92.5156 575.258 93.0625 575.258 93.6562V98H573.852ZM584.875 95.3281L586.328 95.5078C586.099 96.3568 585.674 97.0156 585.055 97.4844C584.435 97.9531 583.643 98.1875 582.68 98.1875C581.466 98.1875 580.503 97.8151 579.789 97.0703C579.081 96.3203 578.727 95.2708 578.727 93.9219C578.727 92.526 579.086 91.4427 579.805 90.6719C580.523 89.901 581.456 89.5156 582.602 89.5156C583.711 89.5156 584.617 89.8932 585.32 90.6484C586.023 91.4036 586.375 92.4661 586.375 93.8359C586.375 93.9193 586.372 94.0443 586.367 94.2109H580.18C580.232 95.1224 580.49 95.8203 580.953 96.3047C581.417 96.7891 581.995 97.0312 582.688 97.0312C583.203 97.0312 583.643 96.8958 584.008 96.625C584.372 96.3542 584.661 95.9219 584.875 95.3281ZM580.258 93.0547H584.891C584.828 92.3568 584.651 91.8333 584.359 91.4844C583.911 90.9427 583.331 90.6719 582.617 90.6719C581.971 90.6719 581.427 90.888 580.984 91.3203C580.547 91.7526 580.305 92.3307 580.258 93.0547ZM591.172 96.7422L591.375 97.9844C590.979 98.0677 590.625 98.1094 590.312 98.1094C589.802 98.1094 589.406 98.0286 589.125 97.8672C588.844 97.7057 588.646 97.4948 588.531 97.2344C588.417 96.9688 588.359 96.4141 588.359 95.5703V90.7969H587.328V89.7031H588.359V87.6484L589.758 86.8047V89.7031H591.172V90.7969H589.758V95.6484C589.758 96.0495 589.781 96.3073 589.828 96.4219C589.88 96.5365 589.961 96.6276 590.07 96.6953C590.185 96.763 590.346 96.7969 590.555 96.7969C590.711 96.7969 590.917 96.7786 591.172 96.7422Z" fill="#3E3E3D"/>
</svg>
