<svg width="728" height="200" viewBox="0 0 728 200" fill="none" xmlns="http://www.w3.org/2000/svg">
<path d="M8 0.5H720C724.142 0.5 727.5 3.85786 727.5 8V192C727.5 196.142 724.142 199.5 720 199.5H8C3.85786 199.5 0.5 196.142 0.5 192V8C0.500002 3.85787 3.85787 0.5 8 0.5Z" fill="white"/>
<path d="M8 0.5H720C724.142 0.5 727.5 3.85786 727.5 8V192C727.5 196.142 724.142 199.5 720 199.5H8C3.85786 199.5 0.5 196.142 0.5 192V8C0.500002 3.85787 3.85787 0.5 8 0.5Z" stroke="#A1A1A0"/>
<path d="M212.408 54.112C212.195 54.112 212.019 54.0587 211.88 53.952C211.741 53.8347 211.661 53.6907 211.64 53.52C211.619 53.3387 211.677 53.1573 211.816 52.976L215.592 47.904V48.576L212.024 43.776C211.885 43.584 211.821 43.3973 211.832 43.216C211.853 43.0347 211.933 42.8907 212.072 42.784C212.211 42.6667 212.381 42.608 212.584 42.608C212.755 42.608 212.904 42.6507 213.032 42.736C213.171 42.8107 213.309 42.944 213.448 43.136L216.552 47.392H216.04L219.112 43.136C219.251 42.944 219.384 42.8107 219.512 42.736C219.651 42.6507 219.811 42.608 219.992 42.608C220.205 42.608 220.381 42.6667 220.52 42.784C220.659 42.8907 220.733 43.0347 220.744 43.216C220.765 43.3867 220.701 43.5733 220.552 43.776L216.984 48.576V47.904L220.744 52.976C220.883 53.1573 220.941 53.3387 220.92 53.52C220.909 53.6907 220.835 53.8347 220.696 53.952C220.557 54.0587 220.376 54.112 220.152 54.112C219.992 54.112 219.843 54.0693 219.704 53.984C219.565 53.8987 219.421 53.7653 219.272 53.584L215.976 49.072H216.584L213.304 53.584C213.165 53.7653 213.021 53.8987 212.872 53.984C212.733 54.0693 212.579 54.112 212.408 54.112ZM225.978 54.144C225.488 54.144 225.008 54.1067 224.538 54.032C224.069 53.9573 223.626 53.8453 223.21 53.696C222.794 53.536 222.421 53.344 222.09 53.12C221.93 53.0027 221.818 52.8693 221.754 52.72C221.701 52.5707 221.685 52.4267 221.706 52.288C221.738 52.1387 221.802 52.0107 221.898 51.904C221.994 51.7973 222.112 51.7333 222.25 51.712C222.389 51.68 222.544 51.7227 222.714 51.84C223.194 52.1493 223.701 52.3787 224.234 52.528C224.768 52.6667 225.349 52.736 225.978 52.736C226.885 52.736 227.552 52.576 227.978 52.256C228.416 51.9253 228.634 51.4987 228.634 50.976C228.634 50.5493 228.48 50.2133 228.17 49.968C227.861 49.712 227.344 49.5093 226.618 49.36L224.906 49.008C223.893 48.7947 223.136 48.4427 222.634 47.952C222.144 47.4613 221.898 46.8 221.898 45.968C221.898 45.4667 222 45.008 222.202 44.592C222.416 44.176 222.709 43.8187 223.082 43.52C223.456 43.2107 223.904 42.976 224.426 42.816C224.949 42.656 225.52 42.576 226.138 42.576C226.8 42.576 227.418 42.6613 227.994 42.832C228.581 43.0027 229.104 43.264 229.562 43.616C229.701 43.712 229.792 43.8347 229.834 43.984C229.888 44.1227 229.898 44.2613 229.866 44.4C229.845 44.5387 229.786 44.656 229.69 44.752C229.594 44.848 229.472 44.9067 229.322 44.928C229.173 44.9387 229.008 44.8853 228.826 44.768C228.41 44.4907 227.984 44.2933 227.546 44.176C227.12 44.048 226.645 43.984 226.122 43.984C225.6 43.984 225.141 44.064 224.746 44.224C224.362 44.384 224.064 44.608 223.85 44.896C223.648 45.184 223.546 45.5253 223.546 45.92C223.546 46.368 223.69 46.7253 223.978 46.992C224.266 47.2587 224.746 47.4613 225.418 47.6L227.114 47.952C228.181 48.176 228.976 48.5227 229.498 48.992C230.021 49.4613 230.282 50.0853 230.282 50.864C230.282 51.3653 230.181 51.8187 229.978 52.224C229.776 52.6187 229.488 52.96 229.114 53.248C228.741 53.536 228.288 53.76 227.754 53.92C227.232 54.0693 226.64 54.144 225.978 54.144Z" fill="#201F1F"/>
<path d="M284.072 54.144C283.581 54.144 283.101 54.1067 282.632 54.032C282.163 53.9573 281.72 53.8453 281.304 53.696C280.888 53.536 280.515 53.344 280.184 53.12C280.024 53.0027 279.912 52.8693 279.848 52.72C279.795 52.5707 279.779 52.4267 279.8 52.288C279.832 52.1387 279.896 52.0107 279.992 51.904C280.088 51.7973 280.205 51.7333 280.344 51.712C280.483 51.68 280.637 51.7227 280.808 51.84C281.288 52.1493 281.795 52.3787 282.328 52.528C282.861 52.6667 283.443 52.736 284.072 52.736C284.979 52.736 285.645 52.576 286.072 52.256C286.509 51.9253 286.728 51.4987 286.728 50.976C286.728 50.5493 286.573 50.2133 286.264 49.968C285.955 49.712 285.437 49.5093 284.712 49.36L283 49.008C281.987 48.7947 281.229 48.4427 280.728 47.952C280.237 47.4613 279.992 46.8 279.992 45.968C279.992 45.4667 280.093 45.008 280.296 44.592C280.509 44.176 280.803 43.8187 281.176 43.52C281.549 43.2107 281.997 42.976 282.52 42.816C283.043 42.656 283.613 42.576 284.232 42.576C284.893 42.576 285.512 42.6613 286.088 42.832C286.675 43.0027 287.197 43.264 287.656 43.616C287.795 43.712 287.885 43.8347 287.928 43.984C287.981 44.1227 287.992 44.2613 287.96 44.4C287.939 44.5387 287.88 44.656 287.784 44.752C287.688 44.848 287.565 44.9067 287.416 44.928C287.267 44.9387 287.101 44.8853 286.92 44.768C286.504 44.4907 286.077 44.2933 285.64 44.176C285.213 44.048 284.739 43.984 284.216 43.984C283.693 43.984 283.235 44.064 282.84 44.224C282.456 44.384 282.157 44.608 281.944 44.896C281.741 45.184 281.64 45.5253 281.64 45.92C281.64 46.368 281.784 46.7253 282.072 46.992C282.36 47.2587 282.84 47.4613 283.512 47.6L285.208 47.952C286.275 48.176 287.069 48.5227 287.592 48.992C288.115 49.4613 288.376 50.0853 288.376 50.864C288.376 51.3653 288.275 51.8187 288.072 52.224C287.869 52.6187 287.581 52.96 287.208 53.248C286.835 53.536 286.381 53.76 285.848 53.92C285.325 54.0693 284.733 54.144 284.072 54.144Z" fill="#201F1F"/>
<path d="M346.112 54.112C345.867 54.112 345.675 54.0427 345.536 53.904C345.408 53.7653 345.344 53.5733 345.344 53.328V43.392C345.344 43.136 345.413 42.944 345.552 42.816C345.691 42.6773 345.877 42.608 346.112 42.608C346.336 42.608 346.507 42.6507 346.624 42.736C346.752 42.8107 346.869 42.9493 346.976 43.152L351.168 50.976H350.672L354.848 43.152C354.955 42.9493 355.067 42.8107 355.184 42.736C355.301 42.6507 355.472 42.608 355.696 42.608C355.931 42.608 356.112 42.6773 356.24 42.816C356.368 42.944 356.432 43.136 356.432 43.392V53.328C356.432 53.5733 356.368 53.7653 356.24 53.904C356.123 54.0427 355.941 54.112 355.696 54.112C355.451 54.112 355.264 54.0427 355.136 53.904C355.008 53.7653 354.944 53.5733 354.944 53.328V45.072H355.296L351.584 51.936C351.499 52.096 351.408 52.2133 351.312 52.288C351.216 52.3627 351.083 52.4 350.912 52.4C350.741 52.4 350.603 52.3627 350.496 52.288C350.389 52.2027 350.293 52.0853 350.208 51.936L346.464 45.056H346.848V53.328C346.848 53.5733 346.784 53.7653 346.656 53.904C346.539 54.0427 346.357 54.112 346.112 54.112Z" fill="#201F1F"/>
<path d="M418.16 54C417.893 54 417.685 53.9253 417.536 53.776C417.387 53.6267 417.312 53.4187 417.312 53.152V43.504C417.312 43.2267 417.381 43.0187 417.52 42.88C417.669 42.7307 417.877 42.656 418.144 42.656C418.411 42.656 418.613 42.7307 418.752 42.88C418.901 43.0187 418.976 43.2267 418.976 43.504V52.576H423.936C424.171 52.576 424.352 52.64 424.48 52.768C424.608 52.8853 424.672 53.056 424.672 53.28C424.672 53.504 424.608 53.68 424.48 53.808C424.352 53.936 424.171 54 423.936 54H418.16Z" fill="#201F1F"/>
<path d="M488.408 54.112C488.195 54.112 488.019 54.0587 487.88 53.952C487.741 53.8347 487.661 53.6907 487.64 53.52C487.619 53.3387 487.677 53.1573 487.816 52.976L491.592 47.904V48.576L488.024 43.776C487.885 43.584 487.821 43.3973 487.832 43.216C487.853 43.0347 487.933 42.8907 488.072 42.784C488.211 42.6667 488.381 42.608 488.584 42.608C488.755 42.608 488.904 42.6507 489.032 42.736C489.171 42.8107 489.309 42.944 489.448 43.136L492.552 47.392H492.04L495.112 43.136C495.251 42.944 495.384 42.8107 495.512 42.736C495.651 42.6507 495.811 42.608 495.992 42.608C496.205 42.608 496.381 42.6667 496.52 42.784C496.659 42.8907 496.733 43.0347 496.744 43.216C496.765 43.3867 496.701 43.5733 496.552 43.776L492.984 48.576V47.904L496.744 52.976C496.883 53.1573 496.941 53.3387 496.92 53.52C496.909 53.6907 496.835 53.8347 496.696 53.952C496.557 54.0587 496.376 54.112 496.152 54.112C495.992 54.112 495.843 54.0693 495.704 53.984C495.565 53.8987 495.421 53.7653 495.272 53.584L491.976 49.072H492.584L489.304 53.584C489.165 53.7653 489.021 53.8987 488.872 53.984C488.733 54.0693 488.579 54.112 488.408 54.112ZM499.223 54C498.956 54 498.748 53.9253 498.599 53.776C498.449 53.6267 498.375 53.4187 498.375 53.152V43.504C498.375 43.2267 498.444 43.0187 498.583 42.88C498.732 42.7307 498.94 42.656 499.207 42.656C499.473 42.656 499.676 42.7307 499.815 42.88C499.964 43.0187 500.039 43.2267 500.039 43.504V52.576H504.999C505.233 52.576 505.415 52.64 505.543 52.768C505.671 52.8853 505.735 53.056 505.735 53.28C505.735 53.504 505.671 53.68 505.543 53.808C505.415 53.936 505.233 54 504.999 54H499.223Z" fill="#201F1F"/>
<rect x="192.5" y="69.5" width="343" height="69" rx="4.5" stroke="#9747FF" stroke-dasharray="10 5"/>
<path d="M221.412 109C221.187 109 220.994 108.925 220.831 108.775C220.669 108.625 220.571 108.442 220.537 108.225L220.425 107.4C220.317 107.358 220.215 107.308 220.119 107.25C220.023 107.192 219.929 107.129 219.837 107.062L219.062 107.387C218.854 107.479 218.646 107.488 218.437 107.413C218.229 107.338 218.067 107.204 217.95 107.012L217.362 105.988C217.246 105.796 217.212 105.592 217.262 105.375C217.312 105.158 217.425 104.979 217.6 104.838L218.262 104.338C218.254 104.279 218.25 104.223 218.25 104.169V103.831C218.25 103.777 218.254 103.721 218.262 103.662L217.6 103.162C217.425 103.021 217.312 102.842 217.262 102.625C217.212 102.408 217.246 102.204 217.362 102.013L217.95 100.988C218.067 100.796 218.229 100.663 218.437 100.587C218.646 100.513 218.854 100.521 219.062 100.613L219.837 100.938C219.929 100.871 220.025 100.808 220.125 100.75C220.225 100.692 220.325 100.642 220.425 100.6L220.537 99.775C220.571 99.5583 220.669 99.375 220.831 99.225C220.994 99.075 221.187 99 221.412 99H222.587C222.812 99 223.006 99.075 223.169 99.225C223.331 99.375 223.429 99.5583 223.462 99.775L223.575 100.6C223.683 100.642 223.785 100.692 223.881 100.75C223.977 100.808 224.071 100.871 224.162 100.938L224.937 100.613C225.146 100.521 225.354 100.513 225.562 100.587C225.771 100.663 225.933 100.796 226.05 100.988L226.637 102.013C226.754 102.204 226.787 102.408 226.737 102.625C226.687 102.842 226.575 103.021 226.4 103.162L225.737 103.662C225.746 103.721 225.75 103.777 225.75 103.831V104.169C225.75 104.223 225.742 104.279 225.725 104.338L226.387 104.838C226.562 104.979 226.675 105.158 226.725 105.375C226.775 105.592 226.742 105.796 226.625 105.988L226.025 107.012C225.908 107.204 225.746 107.338 225.537 107.413C225.329 107.488 225.121 107.479 224.912 107.387L224.162 107.062C224.071 107.129 223.975 107.192 223.875 107.25C223.775 107.308 223.675 107.358 223.575 107.4L223.462 108.225C223.429 108.442 223.331 108.625 223.169 108.775C223.006 108.925 222.812 109 222.587 109H221.412ZM221.5 108H222.487L222.662 106.675C222.921 106.608 223.16 106.51 223.381 106.381C223.602 106.252 223.804 106.096 223.987 105.912L225.225 106.425L225.712 105.575L224.637 104.763C224.679 104.646 224.708 104.523 224.725 104.394C224.742 104.265 224.75 104.133 224.75 104C224.75 103.867 224.742 103.735 224.725 103.606C224.708 103.477 224.679 103.354 224.637 103.238L225.712 102.425L225.225 101.575L223.987 102.1C223.804 101.908 223.602 101.748 223.381 101.619C223.16 101.49 222.921 101.392 222.662 101.325L222.5 100H221.512L221.337 101.325C221.079 101.392 220.84 101.49 220.619 101.619C220.398 101.748 220.196 101.904 220.012 102.088L218.775 101.575L218.287 102.425L219.362 103.225C219.321 103.35 219.292 103.475 219.275 103.6C219.258 103.725 219.25 103.858 219.25 104C219.25 104.133 219.258 104.263 219.275 104.388C219.292 104.513 219.321 104.638 219.362 104.763L218.287 105.575L218.775 106.425L220.012 105.9C220.196 106.092 220.398 106.252 220.619 106.381C220.84 106.51 221.079 106.608 221.337 106.675L221.5 108ZM222.025 105.75C222.508 105.75 222.921 105.579 223.262 105.238C223.604 104.896 223.775 104.483 223.775 104C223.775 103.517 223.604 103.104 223.262 102.763C222.921 102.421 222.508 102.25 222.025 102.25C221.533 102.25 221.119 102.421 220.781 102.763C220.444 103.104 220.275 103.517 220.275 104C220.275 104.483 220.444 104.896 220.781 105.238C221.119 105.579 221.533 105.75 222.025 105.75Z" fill="#201F1F"/>
<path d="M283.217 110.667C282.917 110.667 282.658 110.567 282.442 110.367C282.225 110.167 282.094 109.922 282.05 109.633L281.9 108.533C281.756 108.478 281.619 108.411 281.492 108.333C281.364 108.256 281.239 108.172 281.117 108.083L280.083 108.517C279.806 108.639 279.528 108.65 279.25 108.55C278.972 108.45 278.756 108.272 278.6 108.017L277.817 106.65C277.661 106.394 277.617 106.122 277.683 105.833C277.75 105.544 277.9 105.306 278.133 105.117L279.017 104.45C279.006 104.372 279 104.297 279 104.225V103.775C279 103.703 279.006 103.628 279.017 103.55L278.133 102.883C277.9 102.694 277.75 102.456 277.683 102.167C277.617 101.878 277.661 101.606 277.817 101.35L278.6 99.9834C278.756 99.7278 278.972 99.55 279.25 99.45C279.528 99.35 279.806 99.3612 280.083 99.4834L281.117 99.9167C281.239 99.8278 281.367 99.7445 281.5 99.6667C281.633 99.5889 281.767 99.5223 281.9 99.4667L282.05 98.3667C282.094 98.0778 282.225 97.8334 282.442 97.6334C282.658 97.4334 282.917 97.3334 283.217 97.3334H284.783C285.083 97.3334 285.342 97.4334 285.558 97.6334C285.775 97.8334 285.906 98.0778 285.95 98.3667L286.1 99.4667C286.244 99.5223 286.381 99.5889 286.508 99.6667C286.636 99.7445 286.761 99.8278 286.883 99.9167L287.917 99.4834C288.194 99.3612 288.472 99.35 288.75 99.45C289.028 99.55 289.244 99.7278 289.4 99.9834L290.183 101.35C290.339 101.606 290.383 101.878 290.317 102.167C290.25 102.456 290.1 102.694 289.867 102.883L288.983 103.55C288.994 103.628 289 103.703 289 103.775V104.225C289 104.297 288.989 104.372 288.967 104.45L289.85 105.117C290.083 105.306 290.233 105.544 290.3 105.833C290.367 106.122 290.322 106.394 290.167 106.65L289.367 108.017C289.211 108.272 288.994 108.45 288.717 108.55C288.439 108.65 288.161 108.639 287.883 108.517L286.883 108.083C286.761 108.172 286.633 108.256 286.5 108.333C286.367 108.411 286.233 108.478 286.1 108.533L285.95 109.633C285.906 109.922 285.775 110.167 285.558 110.367C285.342 110.567 285.083 110.667 284.783 110.667H283.217ZM283.333 109.333H284.65L284.883 107.567C285.228 107.478 285.547 107.347 285.842 107.175C286.136 107.003 286.406 106.794 286.65 106.55L288.3 107.233L288.95 106.1L287.517 105.017C287.572 104.861 287.611 104.697 287.633 104.525C287.656 104.353 287.667 104.178 287.667 104C287.667 103.822 287.656 103.647 287.633 103.475C287.611 103.303 287.572 103.139 287.517 102.983L288.95 101.9L288.3 100.767L286.65 101.467C286.406 101.211 286.136 100.997 285.842 100.825C285.547 100.653 285.228 100.522 284.883 100.433L284.667 98.6667H283.35L283.117 100.433C282.772 100.522 282.453 100.653 282.158 100.825C281.864 100.997 281.594 101.206 281.35 101.45L279.7 100.767L279.05 101.9L280.483 102.967C280.428 103.133 280.389 103.3 280.367 103.467C280.344 103.633 280.333 103.811 280.333 104C280.333 104.178 280.344 104.35 280.367 104.517C280.389 104.683 280.428 104.85 280.483 105.017L279.05 106.1L279.7 107.233L281.35 106.533C281.594 106.789 281.864 107.003 282.158 107.175C282.453 107.347 282.772 107.478 283.117 107.567L283.333 109.333ZM284.033 106.333C284.678 106.333 285.228 106.106 285.683 105.65C286.139 105.194 286.367 104.644 286.367 104C286.367 103.356 286.139 102.806 285.683 102.35C285.228 101.894 284.678 101.667 284.033 101.667C283.378 101.667 282.825 101.894 282.375 102.35C281.925 102.806 281.7 103.356 281.7 104C281.7 104.644 281.925 105.194 282.375 105.65C282.825 106.106 283.378 106.333 284.033 106.333Z" fill="#201F1F"/>
<path d="M349.021 112.333C348.646 112.333 348.323 112.208 348.052 111.958C347.781 111.708 347.618 111.403 347.562 111.042L347.375 109.667C347.194 109.597 347.024 109.514 346.865 109.417C346.705 109.319 346.549 109.215 346.396 109.104L345.104 109.646C344.757 109.799 344.41 109.812 344.062 109.687C343.715 109.562 343.444 109.34 343.25 109.021L342.271 107.312C342.076 106.993 342.021 106.653 342.104 106.292C342.187 105.931 342.375 105.632 342.667 105.396L343.771 104.562C343.757 104.465 343.75 104.371 343.75 104.281V103.719C343.75 103.628 343.757 103.535 343.771 103.437L342.667 102.604C342.375 102.368 342.187 102.069 342.104 101.708C342.021 101.347 342.076 101.007 342.271 100.687L343.25 98.9791C343.444 98.6597 343.715 98.4375 344.062 98.3125C344.41 98.1875 344.757 98.2013 345.104 98.3541L346.396 98.8958C346.549 98.7847 346.708 98.6805 346.875 98.5833C347.042 98.4861 347.208 98.4027 347.375 98.3333L347.562 96.9583C347.618 96.5972 347.781 96.2916 348.052 96.0416C348.323 95.7916 348.646 95.6666 349.021 95.6666H350.979C351.354 95.6666 351.677 95.7916 351.948 96.0416C352.219 96.2916 352.382 96.5972 352.437 96.9583L352.625 98.3333C352.806 98.4027 352.976 98.4861 353.135 98.5833C353.295 98.6805 353.451 98.7847 353.604 98.8958L354.896 98.3541C355.243 98.2013 355.59 98.1875 355.937 98.3125C356.285 98.4375 356.556 98.6597 356.75 98.9791L357.729 100.687C357.924 101.007 357.979 101.347 357.896 101.708C357.812 102.069 357.625 102.368 357.333 102.604L356.229 103.437C356.243 103.535 356.25 103.628 356.25 103.719V104.281C356.25 104.371 356.236 104.465 356.208 104.562L357.312 105.396C357.604 105.632 357.792 105.931 357.875 106.292C357.958 106.653 357.903 106.993 357.708 107.312L356.708 109.021C356.514 109.34 356.243 109.562 355.896 109.687C355.549 109.812 355.201 109.799 354.854 109.646L353.604 109.104C353.451 109.215 353.292 109.319 353.125 109.417C352.958 109.514 352.792 109.597 352.625 109.667L352.437 111.042C352.382 111.403 352.219 111.708 351.948 111.958C351.677 112.208 351.354 112.333 350.979 112.333H349.021ZM349.167 110.667H350.812L351.104 108.458C351.535 108.347 351.934 108.184 352.302 107.969C352.67 107.753 353.007 107.493 353.312 107.187L355.375 108.042L356.187 106.625L354.396 105.271C354.465 105.076 354.514 104.871 354.542 104.656C354.569 104.441 354.583 104.222 354.583 104C354.583 103.778 354.569 103.559 354.542 103.344C354.514 103.128 354.465 102.924 354.396 102.729L356.187 101.375L355.375 99.9583L353.312 100.833C353.007 100.514 352.67 100.246 352.302 100.031C351.934 99.8159 351.535 99.6527 351.104 99.5416L350.833 97.3333H349.187L348.896 99.5416C348.465 99.6527 348.066 99.8159 347.698 100.031C347.33 100.246 346.993 100.507 346.687 100.812L344.625 99.9583L343.812 101.375L345.604 102.708C345.535 102.917 345.486 103.125 345.458 103.333C345.431 103.542 345.417 103.764 345.417 104C345.417 104.222 345.431 104.437 345.458 104.646C345.486 104.854 345.535 105.062 345.604 105.271L343.812 106.625L344.625 108.042L346.687 107.167C346.993 107.486 347.33 107.753 347.698 107.969C348.066 108.184 348.465 108.347 348.896 108.458L349.167 110.667ZM350.042 106.917C350.847 106.917 351.535 106.632 352.104 106.062C352.674 105.493 352.958 104.806 352.958 104C352.958 103.194 352.674 102.507 352.104 101.937C351.535 101.368 350.847 101.083 350.042 101.083C349.222 101.083 348.531 101.368 347.969 101.937C347.406 102.507 347.125 103.194 347.125 104C347.125 104.806 347.406 105.493 347.969 106.062C348.531 106.632 349.222 106.917 350.042 106.917Z" fill="#201F1F"/>
<path d="M418.825 114C418.375 114 417.987 113.85 417.662 113.55C417.337 113.25 417.142 112.883 417.075 112.45L416.85 110.8C416.633 110.717 416.429 110.617 416.237 110.5C416.046 110.383 415.858 110.258 415.675 110.125L414.125 110.775C413.708 110.958 413.292 110.975 412.875 110.825C412.458 110.675 412.133 110.408 411.9 110.025L410.725 107.975C410.492 107.592 410.425 107.183 410.525 106.75C410.625 106.317 410.85 105.958 411.2 105.675L412.525 104.675C412.508 104.558 412.5 104.446 412.5 104.338V103.663C412.5 103.554 412.508 103.442 412.525 103.325L411.2 102.325C410.85 102.042 410.625 101.683 410.525 101.25C410.425 100.817 410.492 100.408 410.725 100.025L411.9 97.975C412.133 97.5917 412.458 97.325 412.875 97.175C413.292 97.025 413.708 97.0417 414.125 97.225L415.675 97.875C415.858 97.7417 416.05 97.6167 416.25 97.5C416.45 97.3833 416.65 97.2833 416.85 97.2L417.075 95.55C417.142 95.1167 417.337 94.75 417.662 94.45C417.987 94.15 418.375 94 418.825 94H421.175C421.625 94 422.012 94.15 422.337 94.45C422.662 94.75 422.858 95.1167 422.925 95.55L423.15 97.2C423.367 97.2833 423.571 97.3833 423.762 97.5C423.954 97.6167 424.142 97.7417 424.325 97.875L425.875 97.225C426.292 97.0417 426.708 97.025 427.125 97.175C427.542 97.325 427.867 97.5917 428.1 97.975L429.275 100.025C429.508 100.408 429.575 100.817 429.475 101.25C429.375 101.683 429.15 102.042 428.8 102.325L427.475 103.325C427.492 103.442 427.5 103.554 427.5 103.663V104.338C427.5 104.446 427.483 104.558 427.45 104.675L428.775 105.675C429.125 105.958 429.35 106.317 429.45 106.75C429.55 107.183 429.483 107.592 429.25 107.975L428.05 110.025C427.817 110.408 427.492 110.675 427.075 110.825C426.658 110.975 426.242 110.958 425.825 110.775L424.325 110.125C424.142 110.258 423.95 110.383 423.75 110.5C423.55 110.617 423.35 110.717 423.15 110.8L422.925 112.45C422.858 112.883 422.662 113.25 422.337 113.55C422.012 113.85 421.625 114 421.175 114H418.825ZM419 112H420.975L421.325 109.35C421.842 109.217 422.321 109.021 422.762 108.762C423.204 108.504 423.608 108.192 423.975 107.825L426.45 108.85L427.425 107.15L425.275 105.525C425.358 105.292 425.417 105.046 425.45 104.788C425.483 104.529 425.5 104.267 425.5 104C425.5 103.733 425.483 103.471 425.45 103.213C425.417 102.954 425.358 102.708 425.275 102.475L427.425 100.85L426.45 99.15L423.975 100.2C423.608 99.8167 423.204 99.4958 422.762 99.2375C422.321 98.9792 421.842 98.7833 421.325 98.65L421 96H419.025L418.675 98.65C418.158 98.7833 417.679 98.9792 417.237 99.2375C416.796 99.4958 416.392 99.8083 416.025 100.175L413.55 99.15L412.575 100.85L414.725 102.45C414.642 102.7 414.583 102.95 414.55 103.2C414.517 103.45 414.5 103.717 414.5 104C414.5 104.267 414.517 104.525 414.55 104.775C414.583 105.025 414.642 105.275 414.725 105.525L412.575 107.15L413.55 108.85L416.025 107.8C416.392 108.183 416.796 108.504 417.237 108.762C417.679 109.021 418.158 109.217 418.675 109.35L419 112ZM420.05 107.5C421.017 107.5 421.842 107.158 422.525 106.475C423.208 105.792 423.55 104.967 423.55 104C423.55 103.033 423.208 102.208 422.525 101.525C421.842 100.842 421.017 100.5 420.05 100.5C419.067 100.5 418.237 100.842 417.562 101.525C416.887 102.208 416.55 103.033 416.55 104C416.55 104.967 416.887 105.792 417.562 106.475C418.237 107.158 419.067 107.5 420.05 107.5Z" fill="#201F1F"/>
<path d="M494.433 117.333C493.833 117.333 493.317 117.133 492.883 116.733C492.45 116.333 492.189 115.844 492.1 115.267L491.8 113.067C491.511 112.956 491.239 112.822 490.983 112.667C490.728 112.511 490.478 112.344 490.233 112.167L488.167 113.033C487.611 113.278 487.056 113.3 486.5 113.1C485.944 112.9 485.511 112.544 485.2 112.033L483.633 109.3C483.322 108.789 483.233 108.244 483.367 107.667C483.5 107.089 483.8 106.611 484.267 106.233L486.033 104.9C486.011 104.744 486 104.594 486 104.45V103.55C486 103.406 486.011 103.256 486.033 103.1L484.267 101.767C483.8 101.389 483.5 100.911 483.367 100.333C483.233 99.7555 483.322 99.2111 483.633 98.7L485.2 95.9666C485.511 95.4555 485.944 95.1 486.5 94.9C487.056 94.7 487.611 94.7222 488.167 94.9666L490.233 95.8333C490.478 95.6555 490.733 95.4888 491 95.3333C491.267 95.1777 491.533 95.0444 491.8 94.9333L492.1 92.7333C492.189 92.1555 492.45 91.6666 492.883 91.2666C493.317 90.8666 493.833 90.6666 494.433 90.6666H497.567C498.167 90.6666 498.683 90.8666 499.117 91.2666C499.55 91.6666 499.811 92.1555 499.9 92.7333L500.2 94.9333C500.489 95.0444 500.761 95.1777 501.017 95.3333C501.272 95.4888 501.522 95.6555 501.767 95.8333L503.833 94.9666C504.389 94.7222 504.944 94.7 505.5 94.9C506.056 95.1 506.489 95.4555 506.8 95.9666L508.367 98.7C508.678 99.2111 508.767 99.7555 508.633 100.333C508.5 100.911 508.2 101.389 507.733 101.767L505.967 103.1C505.989 103.256 506 103.406 506 103.55V104.45C506 104.594 505.978 104.744 505.933 104.9L507.7 106.233C508.167 106.611 508.467 107.089 508.6 107.667C508.733 108.244 508.644 108.789 508.333 109.3L506.733 112.033C506.422 112.544 505.989 112.9 505.433 113.1C504.878 113.3 504.322 113.278 503.767 113.033L501.767 112.167C501.522 112.344 501.267 112.511 501 112.667C500.733 112.822 500.467 112.956 500.2 113.067L499.9 115.267C499.811 115.844 499.55 116.333 499.117 116.733C498.683 117.133 498.167 117.333 497.567 117.333H494.433ZM494.667 114.667H497.3L497.767 111.133C498.456 110.956 499.094 110.694 499.683 110.35C500.272 110.006 500.811 109.589 501.3 109.1L504.6 110.467L505.9 108.2L503.033 106.033C503.144 105.722 503.222 105.394 503.267 105.05C503.311 104.706 503.333 104.356 503.333 104C503.333 103.644 503.311 103.294 503.267 102.95C503.222 102.606 503.144 102.278 503.033 101.967L505.9 99.8L504.6 97.5333L501.3 98.9333C500.811 98.4222 500.272 97.9944 499.683 97.65C499.094 97.3055 498.456 97.0444 497.767 96.8666L497.333 93.3333H494.7L494.233 96.8666C493.544 97.0444 492.906 97.3055 492.317 97.65C491.728 97.9944 491.189 98.4111 490.7 98.9L487.4 97.5333L486.1 99.8L488.967 101.933C488.856 102.267 488.778 102.6 488.733 102.933C488.689 103.267 488.667 103.622 488.667 104C488.667 104.356 488.689 104.7 488.733 105.033C488.778 105.367 488.856 105.7 488.967 106.033L486.1 108.2L487.4 110.467L490.7 109.067C491.189 109.578 491.728 110.006 492.317 110.35C492.906 110.694 493.544 110.956 494.233 111.133L494.667 114.667ZM496.067 108.667C497.356 108.667 498.456 108.211 499.367 107.3C500.278 106.389 500.733 105.289 500.733 104C500.733 102.711 500.278 101.611 499.367 100.7C498.456 99.7888 497.356 99.3333 496.067 99.3333C494.756 99.3333 493.65 99.7888 492.75 100.7C491.85 101.611 491.4 102.711 491.4 104C491.4 105.289 491.85 106.389 492.75 107.3C493.65 108.211 494.756 108.667 496.067 108.667Z" fill="#201F1F"/>
<path d="M213.471 159H212.416V152.279C212.162 152.521 211.828 152.764 211.414 153.006C211.004 153.248 210.635 153.43 210.307 153.551V152.531C210.896 152.254 211.412 151.918 211.854 151.523C212.295 151.129 212.607 150.746 212.791 150.375H213.471V159ZM221.721 157.986V159H216.043C216.035 158.746 216.076 158.502 216.166 158.268C216.311 157.881 216.541 157.5 216.857 157.125C217.178 156.75 217.639 156.316 218.24 155.824C219.174 155.059 219.805 154.453 220.133 154.008C220.461 153.559 220.625 153.135 220.625 152.736C220.625 152.318 220.475 151.967 220.174 151.682C219.877 151.393 219.488 151.248 219.008 151.248C218.5 151.248 218.094 151.4 217.789 151.705C217.484 152.01 217.33 152.432 217.326 152.971L216.242 152.859C216.316 152.051 216.596 151.436 217.08 151.014C217.564 150.588 218.215 150.375 219.031 150.375C219.855 150.375 220.508 150.604 220.988 151.061C221.469 151.518 221.709 152.084 221.709 152.76C221.709 153.104 221.639 153.441 221.498 153.773C221.357 154.105 221.123 154.455 220.795 154.822C220.471 155.189 219.93 155.693 219.172 156.334C218.539 156.865 218.133 157.227 217.953 157.418C217.773 157.605 217.625 157.795 217.508 157.986H221.721ZM223.15 161.385V152.777H224.111V153.586C224.338 153.27 224.594 153.033 224.879 152.877C225.164 152.717 225.51 152.637 225.916 152.637C226.447 152.637 226.916 152.773 227.322 153.047C227.729 153.32 228.035 153.707 228.242 154.207C228.449 154.703 228.553 155.248 228.553 155.842C228.553 156.479 228.438 157.053 228.207 157.564C227.98 158.072 227.648 158.463 227.211 158.736C226.777 159.006 226.32 159.141 225.84 159.141C225.488 159.141 225.172 159.066 224.891 158.918C224.613 158.77 224.385 158.582 224.205 158.355V161.385H223.15ZM224.105 155.924C224.105 156.725 224.268 157.316 224.592 157.699C224.916 158.082 225.309 158.273 225.77 158.273C226.238 158.273 226.639 158.076 226.971 157.682C227.307 157.283 227.475 156.668 227.475 155.836C227.475 155.043 227.311 154.449 226.982 154.055C226.658 153.66 226.27 153.463 225.816 153.463C225.367 153.463 224.969 153.674 224.621 154.096C224.277 154.514 224.105 155.123 224.105 155.924ZM229.127 159L231.4 155.766L229.297 152.777H230.615L231.57 154.236C231.75 154.514 231.895 154.746 232.004 154.934C232.176 154.676 232.334 154.447 232.479 154.248L233.527 152.777H234.787L232.637 155.707L234.951 159H233.656L232.379 157.066L232.039 156.545L230.404 159H229.127Z" fill="#737272"/>
<path d="M275.471 159H274.416V152.279C274.162 152.521 273.828 152.764 273.414 153.006C273.004 153.248 272.635 153.43 272.307 153.551V152.531C272.896 152.254 273.412 151.918 273.854 151.523C274.295 151.129 274.607 150.746 274.791 150.375H275.471V159ZM283.65 152.514L282.602 152.596C282.508 152.182 282.375 151.881 282.203 151.693C281.918 151.393 281.566 151.242 281.148 151.242C280.812 151.242 280.518 151.336 280.264 151.523C279.932 151.766 279.67 152.119 279.479 152.584C279.287 153.049 279.188 153.711 279.18 154.57C279.434 154.184 279.744 153.896 280.111 153.709C280.479 153.521 280.863 153.428 281.266 153.428C281.969 153.428 282.566 153.688 283.059 154.207C283.555 154.723 283.803 155.391 283.803 156.211C283.803 156.75 283.686 157.252 283.451 157.717C283.221 158.178 282.902 158.531 282.496 158.777C282.09 159.023 281.629 159.146 281.113 159.146C280.234 159.146 279.518 158.824 278.963 158.18C278.408 157.531 278.131 156.465 278.131 154.98C278.131 153.32 278.438 152.113 279.051 151.359C279.586 150.703 280.307 150.375 281.213 150.375C281.889 150.375 282.441 150.564 282.871 150.943C283.305 151.322 283.564 151.846 283.65 152.514ZM279.344 156.217C279.344 156.58 279.42 156.928 279.572 157.26C279.729 157.592 279.945 157.846 280.223 158.021C280.5 158.193 280.791 158.279 281.096 158.279C281.541 158.279 281.924 158.1 282.244 157.74C282.564 157.381 282.725 156.893 282.725 156.275C282.725 155.682 282.566 155.215 282.25 154.875C281.934 154.531 281.535 154.359 281.055 154.359C280.578 154.359 280.174 154.531 279.842 154.875C279.51 155.215 279.344 155.662 279.344 156.217ZM285.15 161.385V152.777H286.111V153.586C286.338 153.27 286.594 153.033 286.879 152.877C287.164 152.717 287.51 152.637 287.916 152.637C288.447 152.637 288.916 152.773 289.322 153.047C289.729 153.32 290.035 153.707 290.242 154.207C290.449 154.703 290.553 155.248 290.553 155.842C290.553 156.479 290.438 157.053 290.207 157.564C289.98 158.072 289.648 158.463 289.211 158.736C288.777 159.006 288.32 159.141 287.84 159.141C287.488 159.141 287.172 159.066 286.891 158.918C286.613 158.77 286.385 158.582 286.205 158.355V161.385H285.15ZM286.105 155.924C286.105 156.725 286.268 157.316 286.592 157.699C286.916 158.082 287.309 158.273 287.77 158.273C288.238 158.273 288.639 158.076 288.971 157.682C289.307 157.283 289.475 156.668 289.475 155.836C289.475 155.043 289.311 154.449 288.982 154.055C288.658 153.66 288.27 153.463 287.816 153.463C287.367 153.463 286.969 153.674 286.621 154.096C286.277 154.514 286.105 155.123 286.105 155.924ZM291.127 159L293.4 155.766L291.297 152.777H292.615L293.57 154.236C293.75 154.514 293.895 154.746 294.004 154.934C294.176 154.676 294.334 154.447 294.479 154.248L295.527 152.777H296.787L294.637 155.707L296.951 159H295.656L294.379 157.066L294.039 156.545L292.404 159H291.127Z" fill="#737272"/>
<path d="M344.041 157.986V159H338.363C338.355 158.746 338.396 158.502 338.486 158.268C338.631 157.881 338.861 157.5 339.178 157.125C339.498 156.75 339.959 156.316 340.561 155.824C341.494 155.059 342.125 154.453 342.453 154.008C342.781 153.559 342.945 153.135 342.945 152.736C342.945 152.318 342.795 151.967 342.494 151.682C342.197 151.393 341.809 151.248 341.328 151.248C340.82 151.248 340.414 151.4 340.109 151.705C339.805 152.01 339.65 152.432 339.646 152.971L338.562 152.859C338.637 152.051 338.916 151.436 339.4 151.014C339.885 150.588 340.535 150.375 341.352 150.375C342.176 150.375 342.828 150.604 343.309 151.061C343.789 151.518 344.029 152.084 344.029 152.76C344.029 153.104 343.959 153.441 343.818 153.773C343.678 154.105 343.443 154.455 343.115 154.822C342.791 155.189 342.25 155.693 341.492 156.334C340.859 156.865 340.453 157.227 340.273 157.418C340.094 157.605 339.945 157.795 339.828 157.986H344.041ZM345.178 154.764C345.178 153.748 345.281 152.932 345.488 152.314C345.699 151.693 346.01 151.215 346.42 150.879C346.834 150.543 347.354 150.375 347.979 150.375C348.439 150.375 348.844 150.469 349.191 150.656C349.539 150.84 349.826 151.107 350.053 151.459C350.279 151.807 350.457 152.232 350.586 152.736C350.715 153.236 350.779 153.912 350.779 154.764C350.779 155.771 350.676 156.586 350.469 157.207C350.262 157.824 349.951 158.303 349.537 158.643C349.127 158.979 348.607 159.146 347.979 159.146C347.15 159.146 346.5 158.85 346.027 158.256C345.461 157.541 345.178 156.377 345.178 154.764ZM346.262 154.764C346.262 156.174 346.426 157.113 346.754 157.582C347.086 158.047 347.494 158.279 347.979 158.279C348.463 158.279 348.869 158.045 349.197 157.576C349.529 157.107 349.695 156.17 349.695 154.764C349.695 153.35 349.529 152.41 349.197 151.945C348.869 151.48 348.459 151.248 347.967 151.248C347.482 151.248 347.096 151.453 346.807 151.863C346.443 152.387 346.262 153.354 346.262 154.764ZM352.15 161.385V152.777H353.111V153.586C353.338 153.27 353.594 153.033 353.879 152.877C354.164 152.717 354.51 152.637 354.916 152.637C355.447 152.637 355.916 152.773 356.322 153.047C356.729 153.32 357.035 153.707 357.242 154.207C357.449 154.703 357.553 155.248 357.553 155.842C357.553 156.479 357.438 157.053 357.207 157.564C356.98 158.072 356.648 158.463 356.211 158.736C355.777 159.006 355.32 159.141 354.84 159.141C354.488 159.141 354.172 159.066 353.891 158.918C353.613 158.77 353.385 158.582 353.205 158.355V161.385H352.15ZM353.105 155.924C353.105 156.725 353.268 157.316 353.592 157.699C353.916 158.082 354.309 158.273 354.77 158.273C355.238 158.273 355.639 158.076 355.971 157.682C356.307 157.283 356.475 156.668 356.475 155.836C356.475 155.043 356.311 154.449 355.982 154.055C355.658 153.66 355.27 153.463 354.816 153.463C354.367 153.463 353.969 153.674 353.621 154.096C353.277 154.514 353.105 155.123 353.105 155.924ZM358.127 159L360.4 155.766L358.297 152.777H359.615L360.57 154.236C360.75 154.514 360.895 154.746 361.004 154.934C361.176 154.676 361.334 154.447 361.479 154.248L362.527 152.777H363.787L361.637 155.707L363.951 159H362.656L361.379 157.066L361.039 156.545L359.404 159H358.127Z" fill="#737272"/>
<path d="M414.041 157.986V159H408.363C408.355 158.746 408.396 158.502 408.486 158.268C408.631 157.881 408.861 157.5 409.178 157.125C409.498 156.75 409.959 156.316 410.561 155.824C411.494 155.059 412.125 154.453 412.453 154.008C412.781 153.559 412.945 153.135 412.945 152.736C412.945 152.318 412.795 151.967 412.494 151.682C412.197 151.393 411.809 151.248 411.328 151.248C410.82 151.248 410.414 151.4 410.109 151.705C409.805 152.01 409.65 152.432 409.646 152.971L408.562 152.859C408.637 152.051 408.916 151.436 409.4 151.014C409.885 150.588 410.535 150.375 411.352 150.375C412.176 150.375 412.828 150.604 413.309 151.061C413.789 151.518 414.029 152.084 414.029 152.76C414.029 153.104 413.959 153.441 413.818 153.773C413.678 154.105 413.443 154.455 413.115 154.822C412.791 155.189 412.25 155.693 411.492 156.334C410.859 156.865 410.453 157.227 410.273 157.418C410.094 157.605 409.945 157.795 409.828 157.986H414.041ZM418.559 159V156.943H414.832V155.977L418.752 150.41H419.613V155.977H420.773V156.943H419.613V159H418.559ZM418.559 155.977V152.104L415.869 155.977H418.559ZM422.15 161.385V152.777H423.111V153.586C423.338 153.27 423.594 153.033 423.879 152.877C424.164 152.717 424.51 152.637 424.916 152.637C425.447 152.637 425.916 152.773 426.322 153.047C426.729 153.32 427.035 153.707 427.242 154.207C427.449 154.703 427.553 155.248 427.553 155.842C427.553 156.479 427.438 157.053 427.207 157.564C426.98 158.072 426.648 158.463 426.211 158.736C425.777 159.006 425.32 159.141 424.84 159.141C424.488 159.141 424.172 159.066 423.891 158.918C423.613 158.77 423.385 158.582 423.205 158.355V161.385H422.15ZM423.105 155.924C423.105 156.725 423.268 157.316 423.592 157.699C423.916 158.082 424.309 158.273 424.77 158.273C425.238 158.273 425.639 158.076 425.971 157.682C426.307 157.283 426.475 156.668 426.475 155.836C426.475 155.043 426.311 154.449 425.982 154.055C425.658 153.66 425.27 153.463 424.816 153.463C424.367 153.463 423.969 153.674 423.621 154.096C423.277 154.514 423.105 155.123 423.105 155.924ZM428.127 159L430.4 155.766L428.297 152.777H429.615L430.57 154.236C430.75 154.514 430.895 154.746 431.004 154.934C431.176 154.676 431.334 154.447 431.479 154.248L432.527 152.777H433.787L431.637 155.707L433.951 159H432.656L431.379 157.066L431.039 156.545L429.404 159H428.127Z" fill="#737272"/>
<path d="M484.504 156.732L485.559 156.592C485.68 157.189 485.885 157.621 486.174 157.887C486.467 158.148 486.822 158.279 487.24 158.279C487.736 158.279 488.154 158.107 488.494 157.764C488.838 157.42 489.01 156.994 489.01 156.486C489.01 156.002 488.852 155.604 488.535 155.291C488.219 154.975 487.816 154.816 487.328 154.816C487.129 154.816 486.881 154.855 486.584 154.934L486.701 154.008C486.771 154.016 486.828 154.02 486.871 154.02C487.32 154.02 487.725 153.902 488.084 153.668C488.443 153.434 488.623 153.072 488.623 152.584C488.623 152.197 488.492 151.877 488.23 151.623C487.969 151.369 487.631 151.242 487.217 151.242C486.807 151.242 486.465 151.371 486.191 151.629C485.918 151.887 485.742 152.273 485.664 152.789L484.609 152.602C484.738 151.895 485.031 151.348 485.488 150.961C485.945 150.57 486.514 150.375 487.193 150.375C487.662 150.375 488.094 150.477 488.488 150.68C488.883 150.879 489.184 151.152 489.391 151.5C489.602 151.848 489.707 152.217 489.707 152.607C489.707 152.979 489.607 153.316 489.408 153.621C489.209 153.926 488.914 154.168 488.523 154.348C489.031 154.465 489.426 154.709 489.707 155.08C489.988 155.447 490.129 155.908 490.129 156.463C490.129 157.213 489.855 157.85 489.309 158.373C488.762 158.893 488.07 159.152 487.234 159.152C486.48 159.152 485.854 158.928 485.354 158.479C484.857 158.029 484.574 157.447 484.504 156.732ZM496.721 157.986V159H491.043C491.035 158.746 491.076 158.502 491.166 158.268C491.311 157.881 491.541 157.5 491.857 157.125C492.178 156.75 492.639 156.316 493.24 155.824C494.174 155.059 494.805 154.453 495.133 154.008C495.461 153.559 495.625 153.135 495.625 152.736C495.625 152.318 495.475 151.967 495.174 151.682C494.877 151.393 494.488 151.248 494.008 151.248C493.5 151.248 493.094 151.4 492.789 151.705C492.484 152.01 492.33 152.432 492.326 152.971L491.242 152.859C491.316 152.051 491.596 151.436 492.08 151.014C492.564 150.588 493.215 150.375 494.031 150.375C494.855 150.375 495.508 150.604 495.988 151.061C496.469 151.518 496.709 152.084 496.709 152.76C496.709 153.104 496.639 153.441 496.498 153.773C496.357 154.105 496.123 154.455 495.795 154.822C495.471 155.189 494.93 155.693 494.172 156.334C493.539 156.865 493.133 157.227 492.953 157.418C492.773 157.605 492.625 157.795 492.508 157.986H496.721ZM498.15 161.385V152.777H499.111V153.586C499.338 153.27 499.594 153.033 499.879 152.877C500.164 152.717 500.51 152.637 500.916 152.637C501.447 152.637 501.916 152.773 502.322 153.047C502.729 153.32 503.035 153.707 503.242 154.207C503.449 154.703 503.553 155.248 503.553 155.842C503.553 156.479 503.438 157.053 503.207 157.564C502.98 158.072 502.648 158.463 502.211 158.736C501.777 159.006 501.32 159.141 500.84 159.141C500.488 159.141 500.172 159.066 499.891 158.918C499.613 158.77 499.385 158.582 499.205 158.355V161.385H498.15ZM499.105 155.924C499.105 156.725 499.268 157.316 499.592 157.699C499.916 158.082 500.309 158.273 500.77 158.273C501.238 158.273 501.639 158.076 501.971 157.682C502.307 157.283 502.475 156.668 502.475 155.836C502.475 155.043 502.311 154.449 501.982 154.055C501.658 153.66 501.27 153.463 500.816 153.463C500.367 153.463 499.969 153.674 499.621 154.096C499.277 154.514 499.105 155.123 499.105 155.924ZM504.127 159L506.4 155.766L504.297 152.777H505.615L506.57 154.236C506.75 154.514 506.895 154.746 507.004 154.934C507.176 154.676 507.334 154.447 507.479 154.248L508.527 152.777H509.787L507.637 155.707L509.951 159H508.656L507.379 157.066L507.039 156.545L505.404 159H504.127Z" fill="#737272"/>
</svg>
