<svg viewBox="0 0 20 20" fill="none" xmlns="http://www.w3.org/2000/svg">
<path d="M6.66667 10C6.43056 10 6.23264 10.0799 6.07292 10.2396C5.91319 10.3993 5.83333 10.5972 5.83333 10.8333V13.3333C5.83333 13.5694 5.91319 13.7674 6.07292 13.9271C6.23264 14.0868 6.43056 14.1667 6.66667 14.1667C6.90278 14.1667 7.10069 14.0868 7.26042 13.9271C7.42014 13.7674 7.5 13.5694 7.5 13.3333V10.8333C7.5 10.5972 7.42014 10.3993 7.26042 10.2396C7.10069 10.0799 6.90278 10 6.66667 10ZM13.3333 5.83333C13.0972 5.83333 12.8993 5.91319 12.7396 6.07292C12.5799 6.23264 12.5 6.43056 12.5 6.66667V13.3333C12.5 13.5694 12.5799 13.7674 12.7396 13.9271C12.8993 14.0868 13.0972 14.1667 13.3333 14.1667C13.5694 14.1667 13.7674 14.0868 13.9271 13.9271C14.0868 13.7674 14.1667 13.5694 14.1667 13.3333V6.66667C14.1667 6.43056 14.0868 6.23264 13.9271 6.07292C13.7674 5.91319 13.5694 5.83333 13.3333 5.83333ZM10 11.6667C9.76389 11.6667 9.56597 11.7465 9.40625 11.9062C9.24653 12.066 9.16667 12.2639 9.16667 12.5V13.3333C9.16667 13.5694 9.24653 13.7674 9.40625 13.9271C9.56597 14.0868 9.76389 14.1667 10 14.1667C10.2361 14.1667 10.434 14.0868 10.5938 13.9271C10.7535 13.7674 10.8333 13.5694 10.8333 13.3333V12.5C10.8333 12.2639 10.7535 12.066 10.5938 11.9062C10.434 11.7465 10.2361 11.6667 10 11.6667ZM4.16667 17.5C3.70833 17.5 3.31597 17.3368 2.98958 17.0104C2.66319 16.684 2.5 16.2917 2.5 15.8333V4.16667C2.5 3.70833 2.66319 3.31597 2.98958 2.98958C3.31597 2.66319 3.70833 2.5 4.16667 2.5H15.8333C16.2917 2.5 16.684 2.66319 17.0104 2.98958C17.3368 3.31597 17.5 3.70833 17.5 4.16667V15.8333C17.5 16.2917 17.3368 16.684 17.0104 17.0104C16.684 17.3368 16.2917 17.5 15.8333 17.5H4.16667ZM4.16667 15.8333H15.8333V4.16667H4.16667V15.8333ZM10 10C10.2361 10 10.434 9.92014 10.5938 9.76042C10.7535 9.60069 10.8333 9.40278 10.8333 9.16667C10.8333 8.93056 10.7535 8.73264 10.5938 8.57292C10.434 8.41319 10.2361 8.33333 10 8.33333C9.76389 8.33333 9.56597 8.41319 9.40625 8.57292C9.24653 8.73264 9.16667 8.93056 9.16667 9.16667C9.16667 9.40278 9.24653 9.60069 9.40625 9.76042C9.56597 9.92014 9.76389 10 10 10Z" fill="currentColor"/>
</svg>