<svg viewBox="0 0 20 20" fill="none" xmlns="http://www.w3.org/2000/svg">
<path d="M13.9999 14.5H17.9999V16H12.4999L13.9999 14.5ZM4.89574 16L2.43741 13.5417C2.14574 13.25 1.99643 12.8993 1.98949 12.4896C1.98254 12.0799 2.13185 11.7222 2.43741 11.4167L11.4166 2.43751C11.7221 2.13195 12.0763 1.97917 12.4791 1.97917C12.8819 1.97917 13.2379 2.13382 13.5472 2.44313L17.5624 6.45834C17.8541 6.75001 18.0034 7.1007 18.0103 7.51042C18.0173 7.92014 17.868 8.27778 17.5624 8.58334L10.1457 16H4.89574ZM9.52074 14.5L16.4999 7.52084L12.4791 3.50001L3.49991 12.4792L5.52074 14.5H9.52074Z" fill="currentColor"/>
</svg>
