<svg viewBox="0 0 20 20" fill="none" xmlns="http://www.w3.org/2000/svg">
<path d="M9.65625 16.9583C9.53819 16.9306 9.43056 16.8889 9.33333 16.8333C8.75 16.4167 8.14236 16.0903 7.51042 15.8542C6.87847 15.6181 6.20833 15.5 5.5 15.5C4.94444 15.5 4.40972 15.5521 3.89583 15.6563C3.38194 15.7604 2.88194 15.9167 2.39583 16.125C2.10417 16.2778 1.79861 16.25 1.47917 16.0417C1.15972 15.8333 1 15.5625 1 15.2292V4.75001C1 4.5139 1.05903 4.31945 1.17708 4.16667C1.29514 4.0139 1.43056 3.90278 1.58333 3.83334C2.20833 3.55556 2.84375 3.34723 3.48958 3.20834C4.13542 3.06945 4.80556 3.00001 5.5 3.00001C6.30556 3.00001 7.07986 3.08681 7.82292 3.26042C8.56597 3.43403 9.29167 3.72223 10 4.12501V15.25C10.7639 14.8056 11.5174 14.4861 12.2604 14.2917C13.0035 14.0972 13.75 14 14.5 14C14.9861 14 15.4757 14.0347 15.9688 14.1042C16.4618 14.1736 16.9722 14.3056 17.5 14.5V3.50001C17.6667 3.55556 17.8194 3.60765 17.9583 3.65626C18.0972 3.70487 18.25 3.7639 18.4167 3.83334C18.5694 3.90278 18.7049 4.02084 18.8229 4.18751C18.941 4.35417 19 4.54167 19 4.75001V15.2292C19 15.5903 18.8472 15.8611 18.5417 16.0417C18.2361 16.2222 17.9236 16.25 17.6042 16.125C17.1181 15.9306 16.6146 15.7778 16.0938 15.6667C15.5729 15.5556 15.0417 15.5 14.5 15.5C13.7917 15.5 13.1181 15.6181 12.4792 15.8542C11.8403 16.0903 11.2222 16.4167 10.625 16.8333C10.5278 16.8889 10.4271 16.9306 10.3229 16.9583C10.2188 16.9861 10.1111 17 10 17C9.88889 17 9.77431 16.9861 9.65625 16.9583ZM12.125 12.4375C12 12.5486 11.8646 12.5764 11.7188 12.5208C11.5729 12.4653 11.5 12.3472 11.5 12.1667V5.66667C11.5 5.45834 11.5417 5.25695 11.625 5.06251C11.7083 4.86806 11.8264 4.7014 11.9792 4.56251L15.3333 1.58334C15.4583 1.47223 15.6007 1.44445 15.7604 1.50001C15.9201 1.55556 16 1.67362 16 1.85417V8.33334C16 8.54167 15.9583 8.74306 15.875 8.93751C15.7917 9.13195 15.6736 9.29862 15.5208 9.43751L12.125 12.4375Z" fill="currentColor"/>
</svg>
