<svg viewBox="0 0 20 20" fill="none" xmlns="http://www.w3.org/2000/svg">
<path d="M8.87496 13.125L12.9375 10.5209C13.1319 10.3959 13.2291 10.2222 13.2291 10C13.2291 9.7778 13.1319 9.60419 12.9375 9.47919L8.87496 6.87502C8.66663 6.73613 8.45482 6.72571 8.23954 6.84377C8.02426 6.96183 7.91663 7.14585 7.91663 7.39585V12.6042C7.91663 12.8542 8.02426 13.0382 8.23954 13.1563C8.45482 13.2743 8.66663 13.2639 8.87496 13.125ZM9.99996 18.3334C8.84718 18.3334 7.76385 18.1146 6.74996 17.6771C5.73607 17.2396 4.85413 16.6459 4.10413 15.8959C3.35413 15.1459 2.76038 14.2639 2.32288 13.25C1.88538 12.2361 1.66663 11.1528 1.66663 10C1.66663 8.84724 1.88538 7.76391 2.32288 6.75002C2.76038 5.73613 3.35413 4.85419 4.10413 4.10419C4.85413 3.35419 5.73607 2.76044 6.74996 2.32294C7.76385 1.88544 8.84718 1.66669 9.99996 1.66669C11.1527 1.66669 12.2361 1.88544 13.25 2.32294C14.2638 2.76044 15.1458 3.35419 15.8958 4.10419C16.6458 4.85419 17.2395 5.73613 17.677 6.75002C18.1145 7.76391 18.3333 8.84724 18.3333 10C18.3333 11.1528 18.1145 12.2361 17.677 13.25C17.2395 14.2639 16.6458 15.1459 15.8958 15.8959C15.1458 16.6459 14.2638 17.2396 13.25 17.6771C12.2361 18.1146 11.1527 18.3334 9.99996 18.3334Z" fill="currentColor"/>
</svg>