<svg viewBox="0 0 20 20" fill="none" xmlns="http://www.w3.org/2000/svg">
<path d="M4.875 13.25L6.54167 14.9167C6.69444 15.0694 6.77083 15.2477 6.77083 15.4515C6.77083 15.6551 6.69444 15.831 6.54167 15.9792C6.39347 16.132 6.21757 16.2083 6.01396 16.2083C5.81021 16.2083 5.63194 16.132 5.47917 15.9792L2.52083 13.0208C2.45139 12.9458 2.39931 12.8646 2.36458 12.7771C2.32986 12.6896 2.3125 12.5958 2.3125 12.4958C2.3125 12.3958 2.32986 12.3021 2.36458 12.2146C2.39931 12.1271 2.45139 12.0486 2.52083 11.9792L5.47917 9.02084C5.63194 8.86806 5.80903 8.79167 6.01042 8.79167C6.21181 8.79167 6.39222 8.86806 6.55167 9.02084C6.69778 9.17362 6.77083 9.3507 6.77083 9.55209C6.77083 9.75348 6.69444 9.93056 6.54167 10.0833L4.875 11.75H10.25C10.4625 11.75 10.6406 11.8215 10.7844 11.9644C10.9281 12.1073 11 12.2844 11 12.4956C11 12.7069 10.9281 12.8854 10.7844 13.0313C10.6406 13.1771 10.4625 13.25 10.25 13.25H4.875ZM15.125 8.25001H9.75C9.5375 8.25001 9.35938 8.17855 9.21563 8.03563C9.07188 7.89271 9 7.71563 9 7.50438C9 7.29313 9.07188 7.11459 9.21563 6.96876C9.35938 6.82292 9.5375 6.75001 9.75 6.75001H15.125L13.4583 5.08334C13.3056 4.93056 13.2292 4.7523 13.2292 4.54855C13.2292 4.34494 13.3056 4.16903 13.4583 4.02084C13.6065 3.86806 13.7824 3.79167 13.986 3.79167C14.1898 3.79167 14.3681 3.86806 14.5208 4.02084L17.4792 6.97917C17.5486 7.05417 17.6007 7.13542 17.6354 7.22292C17.6701 7.31042 17.6875 7.40417 17.6875 7.50417C17.6875 7.60417 17.6701 7.69792 17.6354 7.78542C17.6007 7.87292 17.5486 7.95139 17.4792 8.02084L14.5208 10.9792C14.3731 11.1319 14.2007 11.2049 14.0037 11.1979C13.8068 11.191 13.6286 11.1111 13.4692 10.9583C13.3231 10.8056 13.25 10.6285 13.25 10.4271C13.25 10.2257 13.3264 10.0486 13.4792 9.89584L15.125 8.25001Z" fill="currentColor"/>
</svg>
