<svg viewBox="0 0 20 20" fill="none" xmlns="http://www.w3.org/2000/svg">
<path d="M2.9165 16.6666C2.56928 16.6666 2.27414 16.5451 2.03109 16.3021C1.78803 16.059 1.6665 15.7639 1.6665 15.4166C1.6665 15.0694 1.78803 14.7743 2.03109 14.5312C2.27414 14.2882 2.56928 14.1666 2.9165 14.1666H3.33317V4.99998C3.33317 4.54165 3.49636 4.14929 3.82275 3.8229C4.14914 3.49651 4.5415 3.33331 4.99984 3.33331H16.6665C16.9026 3.33331 17.1005 3.41317 17.2603 3.5729C17.42 3.73262 17.4998 3.93054 17.4998 4.16665C17.4998 4.40276 17.42 4.60067 17.2603 4.7604C17.1005 4.92012 16.9026 4.99998 16.6665 4.99998H4.99984V14.1666H8.74984C9.09706 14.1666 9.3922 14.2882 9.63525 14.5312C9.87831 14.7743 9.99984 15.0694 9.99984 15.4166C9.99984 15.7639 9.87831 16.059 9.63525 16.3021C9.3922 16.5451 9.09706 16.6666 8.74984 16.6666H2.9165ZM12.4998 16.6666C12.2637 16.6666 12.0658 16.5868 11.9061 16.4271C11.7464 16.2673 11.6665 16.0694 11.6665 15.8333V7.49998C11.6665 7.26387 11.7464 7.06595 11.9061 6.90623C12.0658 6.74651 12.2637 6.66665 12.4998 6.66665H17.4998C17.7359 6.66665 17.9339 6.74651 18.0936 6.90623C18.2533 7.06595 18.3332 7.26387 18.3332 7.49998V15.8333C18.3332 16.0694 18.2533 16.2673 18.0936 16.4271C17.9339 16.5868 17.7359 16.6666 17.4998 16.6666H12.4998Z" fill="currentColor"/>
</svg>