<svg viewBox="0 0 20 20" fill="none" xmlns="http://www.w3.org/2000/svg">
<path d="M9.16666 10.8334V13.3334C9.16666 13.5695 9.24652 13.7674 9.40624 13.9271C9.56596 14.0868 9.76388 14.1667 9.99999 14.1667C10.2361 14.1667 10.434 14.0868 10.5937 13.9271C10.7535 13.7674 10.8333 13.5695 10.8333 13.3334V10.8334H13.3333C13.5694 10.8334 13.7674 10.7535 13.9271 10.5938C14.0868 10.434 14.1667 10.2361 14.1667 10C14.1667 9.76391 14.0868 9.56599 13.9271 9.40627C13.7674 9.24655 13.5694 9.16669 13.3333 9.16669H10.8333V6.66669C10.8333 6.43058 10.7535 6.23266 10.5937 6.07294C10.434 5.91321 10.2361 5.83335 9.99999 5.83335C9.76388 5.83335 9.56596 5.91321 9.40624 6.07294C9.24652 6.23266 9.16666 6.43058 9.16666 6.66669V9.16669H6.66666C6.43055 9.16669 6.23263 9.24655 6.07291 9.40627C5.91318 9.56599 5.83332 9.76391 5.83332 10C5.83332 10.2361 5.91318 10.434 6.07291 10.5938C6.23263 10.7535 6.43055 10.8334 6.66666 10.8334H9.16666ZM9.99999 18.3334C8.84721 18.3334 7.76388 18.1146 6.74999 17.6771C5.7361 17.2396 4.85416 16.6459 4.10416 15.8959C3.35416 15.1459 2.76041 14.2639 2.32291 13.25C1.88541 12.2361 1.66666 11.1528 1.66666 10C1.66666 8.84724 1.88541 7.76391 2.32291 6.75002C2.76041 5.73613 3.35416 4.85419 4.10416 4.10419C4.85416 3.35419 5.7361 2.76044 6.74999 2.32294C7.76388 1.88544 8.84721 1.66669 9.99999 1.66669C11.1528 1.66669 12.2361 1.88544 13.25 2.32294C14.2639 2.76044 15.1458 3.35419 15.8958 4.10419C16.6458 4.85419 17.2396 5.73613 17.6771 6.75002C18.1146 7.76391 18.3333 8.84724 18.3333 10C18.3333 11.1528 18.1146 12.2361 17.6771 13.25C17.2396 14.2639 16.6458 15.1459 15.8958 15.8959C15.1458 16.6459 14.2639 17.2396 13.25 17.6771C12.2361 18.1146 11.1528 18.3334 9.99999 18.3334ZM9.99999 16.6667C11.8611 16.6667 13.4375 16.0209 14.7292 14.7292C16.0208 13.4375 16.6667 11.8611 16.6667 10C16.6667 8.13891 16.0208 6.56252 14.7292 5.27085C13.4375 3.97919 11.8611 3.33335 9.99999 3.33335C8.13888 3.33335 6.56249 3.97919 5.27082 5.27085C3.97916 6.56252 3.33332 8.13891 3.33332 10C3.33332 11.8611 3.97916 13.4375 5.27082 14.7292C6.56249 16.0209 8.13888 16.6667 9.99999 16.6667Z" fill="currentColor"/>
</svg>