<svg viewBox="0 0 20 20" fill="none" xmlns="http://www.w3.org/2000/svg">
<path d="M10 13.6666L8.66667 15C8.51389 15.1527 8.31944 15.2291 8.08333 15.2291C7.84722 15.2291 7.65278 15.1527 7.5 15C7.34722 14.8472 7.27083 14.6527 7.27083 14.4166C7.27083 14.1805 7.34722 13.9861 7.5 13.8333L8.83333 12.5L7.5 11.1666C7.34722 11.0138 7.27083 10.8194 7.27083 10.5833C7.27083 10.3472 7.34722 10.1527 7.5 9.99996C7.65278 9.84718 7.84722 9.77079 8.08333 9.77079C8.31944 9.77079 8.51389 9.84718 8.66667 9.99996L10 11.3333L11.3333 9.99996C11.4861 9.84718 11.6806 9.77079 11.9167 9.77079C12.1528 9.77079 12.3472 9.84718 12.5 9.99996C12.6528 10.1527 12.7292 10.3472 12.7292 10.5833C12.7292 10.8194 12.6528 11.0138 12.5 11.1666L11.1667 12.5L12.5 13.8333C12.6528 13.9861 12.7292 14.1805 12.7292 14.4166C12.7292 14.6527 12.6528 14.8472 12.5 15C12.3472 15.1527 12.1528 15.2291 11.9167 15.2291C11.6806 15.2291 11.4861 15.1527 11.3333 15L10 13.6666ZM4.16667 18.3333C3.70833 18.3333 3.31597 18.1701 2.98958 17.8437C2.66319 17.5173 2.5 17.125 2.5 16.6666V4.99996C2.5 4.54163 2.66319 4.14926 2.98958 3.82288C3.31597 3.49649 3.70833 3.33329 4.16667 3.33329H5V2.49996C5 2.26385 5.07986 2.06593 5.23958 1.90621C5.39931 1.74649 5.59722 1.66663 5.83333 1.66663C6.06944 1.66663 6.26736 1.74649 6.42708 1.90621C6.58681 2.06593 6.66667 2.26385 6.66667 2.49996V3.33329H13.3333V2.49996C13.3333 2.26385 13.4132 2.06593 13.5729 1.90621C13.7326 1.74649 13.9306 1.66663 14.1667 1.66663C14.4028 1.66663 14.6007 1.74649 14.7604 1.90621C14.9201 2.06593 15 2.26385 15 2.49996V3.33329H15.8333C16.2917 3.33329 16.684 3.49649 17.0104 3.82288C17.3368 4.14926 17.5 4.54163 17.5 4.99996V16.6666C17.5 17.125 17.3368 17.5173 17.0104 17.8437C16.684 18.1701 16.2917 18.3333 15.8333 18.3333H4.16667ZM4.16667 16.6666H15.8333V8.33329H4.16667V16.6666Z" fill="currentColor"/>
</svg>