<svg viewBox="0 0 20 20" fill="none" xmlns="http://www.w3.org/2000/svg">
<path d="M10.0002 17.7709C9.80572 17.7709 9.61127 17.7361 9.41683 17.6667C9.22238 17.5972 9.04877 17.4931 8.896 17.3542C7.99322 16.5209 7.19461 15.7084 6.50016 14.9167C5.80572 14.125 5.22586 13.3577 4.76058 12.6146C4.2953 11.8715 3.94113 11.1563 3.69808 10.4688C3.45502 9.78127 3.3335 9.12502 3.3335 8.50002C3.3335 6.41669 4.00363 4.75697 5.34391 3.52085C6.68419 2.28474 8.23627 1.66669 10.0002 1.66669C11.7641 1.66669 13.3161 2.28474 14.6564 3.52085C15.9967 4.75697 16.6668 6.41669 16.6668 8.50002C16.6668 9.12502 16.5453 9.78127 16.3022 10.4688C16.0592 11.1563 15.705 11.8715 15.2397 12.6146C14.7745 13.3577 14.1946 14.125 13.5002 14.9167C12.8057 15.7084 12.0071 16.5209 11.1043 17.3542C10.9516 17.4931 10.7779 17.5972 10.5835 17.6667C10.3891 17.7361 10.1946 17.7709 10.0002 17.7709ZM10.0002 10C10.4585 10 10.8509 9.83683 11.1772 9.51044C11.5036 9.18405 11.6668 8.79169 11.6668 8.33335C11.6668 7.87502 11.5036 7.48266 11.1772 7.15627C10.8509 6.82988 10.4585 6.66669 10.0002 6.66669C9.54183 6.66669 9.14947 6.82988 8.82308 7.15627C8.49669 7.48266 8.3335 7.87502 8.3335 8.33335C8.3335 8.79169 8.49669 9.18405 8.82308 9.51044C9.14947 9.83683 9.54183 10 10.0002 10Z" fill="currentColor"/>
</svg>