<svg viewBox="0 0 20 20" fill="none" xmlns="http://www.w3.org/2000/svg">
<path d="M10.8334 9.16669H16.6251C16.4167 7.63891 15.7813 6.34377 14.7188 5.28127C13.6563 4.21877 12.3612 3.58335 10.8334 3.37502V9.16669ZM9.16675 16.625V3.37502C7.48619 3.58335 6.09383 4.31599 4.98966 5.57294C3.8855 6.82988 3.33341 8.30558 3.33341 10C3.33341 11.6945 3.8855 13.1702 4.98966 14.4271C6.09383 15.684 7.48619 16.4167 9.16675 16.625ZM10.8334 16.625C12.3612 16.4306 13.6598 15.7986 14.7292 14.7292C15.7987 13.6597 16.4306 12.3611 16.6251 10.8334H10.8334V16.625ZM10.0001 18.3334C8.8473 18.3334 7.76397 18.1146 6.75008 17.6771C5.73619 17.2396 4.85425 16.6459 4.10425 15.8959C3.35425 15.1459 2.7605 14.2639 2.323 13.25C1.8855 12.2361 1.66675 11.1528 1.66675 10C1.66675 8.84724 1.8855 7.76391 2.323 6.75002C2.7605 5.73613 3.35425 4.85419 4.10425 4.10419C4.85425 3.35419 5.73619 2.76044 6.75008 2.32294C7.76397 1.88544 8.8473 1.66669 10.0001 1.66669C11.1529 1.66669 12.2327 1.88544 13.2397 2.32294C14.2466 2.76044 15.1286 3.35766 15.8855 4.1146C16.6424 4.87155 17.2397 5.75349 17.6772 6.76044C18.1147 7.76738 18.3334 8.84724 18.3334 10C18.3334 11.1389 18.1147 12.2153 17.6772 13.2292C17.2397 14.2431 16.6459 15.1285 15.8959 15.8854C15.1459 16.6424 14.264 17.2396 13.2501 17.6771C12.2362 18.1146 11.1529 18.3334 10.0001 18.3334Z" fill="currentColor"/>
</svg>