<svg viewBox="0 0 20 20" fill="none" xmlns="http://www.w3.org/2000/svg">
<path d="M4.16675 10H1.66675" stroke="currentColor" stroke-width="1.5" stroke-linecap="round" stroke-linejoin="round"/>
<path d="M15.8333 10H18.3333" stroke="currentColor" stroke-width="1.5" stroke-linecap="round" stroke-linejoin="round"/>
<path d="M10.7188 10.3438H9.25586L10.0059 8.09375L10.7188 10.3438Z" fill="currentColor"/>
<path fill-rule="evenodd" clip-rule="evenodd" d="M10 3.41699C10.8644 3.41702 11.7209 3.5872 12.5195 3.91797C13.318 4.24875 14.0441 4.73364 14.6553 5.34473C15.2665 5.95598 15.7522 6.68284 16.083 7.48145C16.4136 8.27981 16.5839 9.13591 16.584 10C16.5839 10.8643 16.4137 11.721 16.083 12.5195C15.7522 13.3182 15.2665 14.044 14.6553 14.6553C14.044 15.2665 13.3182 15.7522 12.5195 16.083C11.721 16.4137 10.8644 16.584 10 16.584C9.13589 16.5839 8.27982 16.4136 7.48145 16.083C6.68284 15.7522 5.95598 15.2665 5.34473 14.6553C4.73366 14.0441 4.24875 13.318 3.91797 12.5195C3.58721 11.721 3.41704 10.8644 3.41699 10C3.41703 9.13581 3.58734 8.27989 3.91797 7.48145C4.2488 6.68274 4.73343 5.95604 5.34473 5.34473C5.95605 4.73341 6.68272 4.24881 7.48145 3.91797C8.27992 3.58731 9.13577 3.41703 10 3.41699ZM9.78223 6.7998C9.64429 6.7998 9.52216 6.83732 9.41602 6.91211C9.30977 6.98711 9.23164 7.09395 9.18164 7.23145L7.59375 11.7266C7.52703 11.9171 7.55171 12.0935 7.66699 12.2559C7.78249 12.4184 7.9397 12.5 8.1377 12.5C8.25852 12.4999 8.36887 12.4651 8.46875 12.3965C8.56859 12.3278 8.63731 12.2313 8.6748 12.1064L8.92969 11.3379H11.0371L11.2812 12.0879C11.3188 12.2127 11.3892 12.3128 11.4922 12.3877C11.5953 12.4627 11.71 12.5 11.8359 12.5C12.0535 12.5 12.2246 12.4156 12.3496 12.2471C12.4746 12.0783 12.4998 11.8934 12.4248 11.6934L10.8242 7.22852C10.7788 7.10522 10.701 7.00302 10.5918 6.92188C10.4825 6.84079 10.3625 6.79984 10.2314 6.7998H9.78223Z" fill="currentColor"/>
</svg>
