<svg width="1159" height="110" viewBox="0 0 1159 110" fill="none" xmlns="http://www.w3.org/2000/svg">
<g clip-path="url(#clip0_304_42101)">
<rect width="579.5" height="61" fill="white"/>
<path d="M23.76 37.18C22.4267 37.18 21.26 36.8867 20.26 36.3C19.2733 35.7 18.5067 34.86 17.96 33.78C17.4267 32.6867 17.16 31.4067 17.16 29.94C17.16 28.8333 17.3133 27.84 17.62 26.96C17.9267 26.0667 18.3667 25.3067 18.94 24.68C19.5133 24.04 20.2067 23.5533 21.02 23.22C21.8333 22.8867 22.7467 22.72 23.76 22.72C25.1067 22.72 26.2733 23.0133 27.26 23.6C28.2467 24.1867 29.0067 25.02 29.54 26.1C30.0867 27.18 30.36 28.4533 30.36 29.92C30.36 31.0267 30.2067 32.0267 29.9 32.92C29.5933 33.8133 29.1467 34.58 28.56 35.22C27.9867 35.86 27.2933 36.3467 26.48 36.68C25.6667 37.0133 24.76 37.18 23.76 37.18ZM23.76 35.38C24.6933 35.38 25.4867 35.1667 26.14 34.74C26.8067 34.3133 27.3133 33.6933 27.66 32.88C28.02 32.0667 28.2 31.0867 28.2 29.94C28.2 28.22 27.8133 26.8867 27.04 25.94C26.2667 24.9933 25.1733 24.52 23.76 24.52C22.8267 24.52 22.0267 24.7333 21.36 25.16C20.7067 25.5733 20.2 26.1867 19.84 27C19.4933 27.8133 19.32 28.7933 19.32 29.94C19.32 31.6467 19.7067 32.98 20.48 33.94C21.2667 34.9 22.36 35.38 23.76 35.38ZM33.4278 40.74C33.1078 40.74 32.8611 40.6533 32.6878 40.48C32.5145 40.3067 32.4278 40.0533 32.4278 39.72V28.12C32.4278 27.7867 32.5145 27.5333 32.6878 27.36C32.8611 27.1867 33.1011 27.1 33.4078 27.1C33.7278 27.1 33.9745 27.1867 34.1478 27.36C34.3211 27.5333 34.4078 27.7867 34.4078 28.12V29.86L34.1878 29.44C34.4011 28.72 34.8211 28.1467 35.4478 27.72C36.0745 27.28 36.8145 27.06 37.6678 27.06C38.5345 27.06 39.2878 27.2667 39.9278 27.68C40.5811 28.0933 41.0811 28.6733 41.4278 29.42C41.7878 30.1667 41.9678 31.0667 41.9678 32.12C41.9678 33.1467 41.7878 34.0467 41.4278 34.82C41.0811 35.58 40.5878 36.1667 39.9478 36.58C39.3078 36.98 38.5478 37.18 37.6678 37.18C36.8278 37.18 36.0945 36.9667 35.4678 36.54C34.8411 36.1133 34.4211 35.5467 34.2078 34.84H34.4478V39.72C34.4478 40.0533 34.3545 40.3067 34.1678 40.48C33.9945 40.6533 33.7478 40.74 33.4278 40.74ZM37.1678 35.62C37.7278 35.62 38.2145 35.4867 38.6278 35.22C39.0411 34.9533 39.3611 34.56 39.5878 34.04C39.8145 33.52 39.9278 32.88 39.9278 32.12C39.9278 30.9733 39.6745 30.1067 39.1678 29.52C38.6745 28.9333 38.0078 28.64 37.1678 28.64C36.6211 28.64 36.1345 28.7733 35.7078 29.04C35.2945 29.2933 34.9745 29.68 34.7478 30.2C34.5211 30.72 34.4078 31.36 34.4078 32.12C34.4078 33.2533 34.6611 34.12 35.1678 34.72C35.6745 35.32 36.3411 35.62 37.1678 35.62ZM47.8066 37.18C47.0066 37.18 46.3332 37.04 45.7866 36.76C45.2399 36.48 44.8332 36.0667 44.5666 35.52C44.2999 34.9733 44.1666 34.3067 44.1666 33.52V28.8H42.9666C42.6999 28.8 42.4932 28.7333 42.3466 28.6C42.1999 28.4533 42.1266 28.26 42.1266 28.02C42.1266 27.7667 42.1999 27.5733 42.3466 27.44C42.4932 27.3067 42.6999 27.24 42.9666 27.24H44.1666V25.18C44.1666 24.8467 44.2532 24.5933 44.4266 24.42C44.6132 24.2467 44.8666 24.16 45.1866 24.16C45.5066 24.16 45.7532 24.2467 45.9266 24.42C46.0999 24.5933 46.1866 24.8467 46.1866 25.18V27.24H48.5266C48.7932 27.24 48.9999 27.3067 49.1466 27.44C49.2932 27.5733 49.3666 27.7667 49.3666 28.02C49.3666 28.26 49.2932 28.4533 49.1466 28.6C48.9999 28.7333 48.7932 28.8 48.5266 28.8H46.1866V33.36C46.1866 34.0667 46.3332 34.6 46.6266 34.96C46.9332 35.32 47.4266 35.5 48.1066 35.5C48.3466 35.5 48.5532 35.48 48.7266 35.44C48.9132 35.3867 49.0666 35.3533 49.1866 35.34C49.3332 35.34 49.4532 35.3933 49.5466 35.5C49.6399 35.5933 49.6866 35.78 49.6866 36.06C49.6866 36.26 49.6466 36.4467 49.5666 36.62C49.4999 36.7933 49.3732 36.9067 49.1866 36.96C49.0266 37.0133 48.8066 37.06 48.5266 37.1C48.2599 37.1533 48.0199 37.18 47.8066 37.18ZM51.627 37.12C51.307 37.12 51.0604 37.0267 50.887 36.84C50.7137 36.64 50.627 36.3667 50.627 36.02V28.22C50.627 27.8733 50.7137 27.6067 50.887 27.42C51.0604 27.2333 51.307 27.14 51.627 27.14C51.947 27.14 52.1937 27.2333 52.367 27.42C52.5537 27.6067 52.647 27.8733 52.647 28.22V36.02C52.647 36.3667 52.5604 36.64 52.387 36.84C52.2137 37.0267 51.9604 37.12 51.627 37.12ZM51.627 25.06C51.227 25.06 50.9137 24.96 50.687 24.76C50.4737 24.56 50.367 24.28 50.367 23.92C50.367 23.5467 50.4737 23.2667 50.687 23.08C50.9137 22.88 51.227 22.78 51.627 22.78C52.027 22.78 52.3337 22.88 52.547 23.08C52.7737 23.2667 52.887 23.5467 52.887 23.92C52.887 24.28 52.7737 24.56 52.547 24.76C52.3337 24.96 52.027 25.06 51.627 25.06ZM59.2303 37.18C58.2436 37.18 57.3903 36.9733 56.6703 36.56C55.9636 36.1467 55.4103 35.56 55.0103 34.8C54.6103 34.04 54.4103 33.1467 54.4103 32.12C54.4103 31.3333 54.5236 30.6333 54.7503 30.02C54.977 29.4067 55.297 28.88 55.7103 28.44C56.137 27.9867 56.6436 27.6467 57.2303 27.42C57.8303 27.18 58.497 27.06 59.2303 27.06C60.2036 27.06 61.0436 27.2667 61.7503 27.68C62.4703 28.0933 63.0303 28.68 63.4303 29.44C63.8303 30.1867 64.0303 31.08 64.0303 32.12C64.0303 32.8933 63.917 33.5933 63.6903 34.22C63.4636 34.8467 63.137 35.38 62.7103 35.82C62.297 36.26 61.7903 36.6 61.1903 36.84C60.6036 37.0667 59.9503 37.18 59.2303 37.18ZM59.2303 35.62C59.777 35.62 60.257 35.4867 60.6703 35.22C61.0836 34.9533 61.4036 34.56 61.6303 34.04C61.8703 33.52 61.9903 32.88 61.9903 32.12C61.9903 30.9733 61.737 30.1067 61.2303 29.52C60.7236 28.9333 60.057 28.64 59.2303 28.64C58.6703 28.64 58.1836 28.7733 57.7703 29.04C57.357 29.2933 57.0303 29.68 56.7903 30.2C56.5636 30.72 56.4503 31.36 56.4503 32.12C56.4503 33.2533 56.7036 34.12 57.2103 34.72C57.717 35.32 58.3903 35.62 59.2303 35.62ZM66.7989 37.14C66.4789 37.14 66.2322 37.0533 66.0589 36.88C65.8856 36.6933 65.7989 36.44 65.7989 36.12V28.12C65.7989 27.7867 65.8856 27.5333 66.0589 27.36C66.2322 27.1867 66.4722 27.1 66.7789 27.1C67.0989 27.1 67.3389 27.1867 67.4989 27.36C67.6722 27.5333 67.7589 27.7867 67.7589 28.12V29.68L67.5389 29.32C67.8322 28.5733 68.2922 28.0133 68.9189 27.64C69.5456 27.2533 70.2656 27.06 71.0789 27.06C71.8522 27.06 72.4922 27.2067 72.9989 27.5C73.5189 27.78 73.9056 28.2133 74.1589 28.8C74.4122 29.3733 74.5389 30.1 74.5389 30.98V36.12C74.5389 36.44 74.4522 36.6933 74.2789 36.88C74.1056 37.0533 73.8589 37.14 73.5389 37.14C73.2056 37.14 72.9522 37.0533 72.7789 36.88C72.6056 36.6933 72.5189 36.44 72.5189 36.12V31.1C72.5189 30.26 72.3522 29.6467 72.0189 29.26C71.6989 28.8733 71.1922 28.68 70.4989 28.68C69.6856 28.68 69.0322 28.9333 68.5389 29.44C68.0589 29.9467 67.8189 30.6267 67.8189 31.48V36.12C67.8189 36.8 67.4789 37.14 66.7989 37.14Z" fill="#201F1F"/>
<path d="M0 60.5H579.5" stroke="#CDCCCB"/>
<rect width="579.5" height="49" transform="translate(0 61)" fill="white"/>
<path d="M17.2266 91V79.6406H19.5391V89.0703H25.2891V91H17.2266ZM28.5703 85.2344L26.5781 84.875C26.8021 84.0729 27.1875 83.4792 27.7344 83.0938C28.2812 82.7083 29.0938 82.5156 30.1719 82.5156C31.151 82.5156 31.8802 82.6328 32.3594 82.8672C32.8385 83.0964 33.1745 83.3906 33.3672 83.75C33.5651 84.1042 33.6641 84.7578 33.6641 85.7109L33.6406 88.2734C33.6406 89.0026 33.6745 89.5417 33.7422 89.8906C33.8151 90.2344 33.9479 90.6042 34.1406 91H31.9688C31.9115 90.8542 31.8411 90.638 31.7578 90.3516C31.7214 90.2214 31.6953 90.1354 31.6797 90.0938C31.3047 90.4583 30.9036 90.7318 30.4766 90.9141C30.0495 91.0964 29.5938 91.1875 29.1094 91.1875C28.2552 91.1875 27.5807 90.9557 27.0859 90.4922C26.5964 90.0286 26.3516 89.4427 26.3516 88.7344C26.3516 88.2656 26.4635 87.849 26.6875 87.4844C26.9115 87.1146 27.224 86.8333 27.625 86.6406C28.0312 86.4427 28.6146 86.2708 29.375 86.125C30.401 85.9323 31.112 85.7526 31.5078 85.5859V85.3672C31.5078 84.9453 31.4036 84.6458 31.1953 84.4688C30.987 84.2865 30.5938 84.1953 30.0156 84.1953C29.625 84.1953 29.3203 84.2734 29.1016 84.4297C28.8828 84.5807 28.7057 84.849 28.5703 85.2344ZM31.5078 87.0156C31.2266 87.1094 30.7812 87.2214 30.1719 87.3516C29.5625 87.4818 29.1641 87.6094 28.9766 87.7344C28.6901 87.9375 28.5469 88.1953 28.5469 88.5078C28.5469 88.8151 28.6615 89.0807 28.8906 89.3047C29.1198 89.5286 29.4115 89.6406 29.7656 89.6406C30.1615 89.6406 30.5391 89.5104 30.8984 89.25C31.1641 89.0521 31.3385 88.8099 31.4219 88.5234C31.4792 88.3359 31.5078 87.9792 31.5078 87.4531V87.0156ZM35.7422 91V79.5469H37.9375V83.6719C38.6146 82.901 39.4167 82.5156 40.3438 82.5156C41.3542 82.5156 42.1901 82.8828 42.8516 83.6172C43.513 84.3464 43.8438 85.3958 43.8438 86.7656C43.8438 88.1823 43.5052 89.2734 42.8281 90.0391C42.1562 90.8047 41.3385 91.1875 40.375 91.1875C39.901 91.1875 39.4323 91.0703 38.9688 90.8359C38.5104 90.5964 38.1146 90.2448 37.7812 89.7812V91H35.7422ZM37.9219 86.6719C37.9219 87.5312 38.0573 88.1667 38.3281 88.5781C38.7083 89.1615 39.2135 89.4531 39.8438 89.4531C40.3281 89.4531 40.7396 89.2474 41.0781 88.8359C41.4219 88.4193 41.5938 87.7656 41.5938 86.875C41.5938 85.9271 41.4219 85.2448 41.0781 84.8281C40.7344 84.4062 40.2943 84.1953 39.7578 84.1953C39.2318 84.1953 38.7943 84.401 38.4453 84.8125C38.0964 85.2188 37.9219 85.8385 37.9219 86.6719ZM50.4219 88.3594L52.6094 88.7266C52.3281 89.5286 51.8828 90.1406 51.2734 90.5625C50.6693 90.9792 49.9115 91.1875 49 91.1875C47.5573 91.1875 46.4896 90.7161 45.7969 89.7734C45.25 89.0182 44.9766 88.0651 44.9766 86.9141C44.9766 85.5391 45.3359 84.4635 46.0547 83.6875C46.7734 82.9062 47.6823 82.5156 48.7812 82.5156C50.0156 82.5156 50.9896 82.9245 51.7031 83.7422C52.4167 84.5547 52.7578 85.8021 52.7266 87.4844H47.2266C47.2422 88.1354 47.4193 88.6432 47.7578 89.0078C48.0964 89.3672 48.5182 89.5469 49.0234 89.5469C49.3672 89.5469 49.6562 89.4531 49.8906 89.2656C50.125 89.0781 50.3021 88.776 50.4219 88.3594ZM50.5469 86.1406C50.5312 85.5052 50.3672 85.0234 50.0547 84.6953C49.7422 84.362 49.362 84.1953 48.9141 84.1953C48.4349 84.1953 48.0391 84.3698 47.7266 84.7188C47.4141 85.0677 47.2604 85.5417 47.2656 86.1406H50.5469ZM54.5234 91V79.5469H56.7188V91H54.5234Z" fill="#3E3E3D"/>
<g opacity="0.5">
<path d="M0 109.5H579.5" stroke="#CDCCCB"/>
</g>
<rect width="579.5" height="61" transform="translate(579.5)" fill="white"/>
<path d="M598.18 37.14C597.847 37.14 597.587 37.0467 597.4 36.86C597.227 36.6733 597.14 36.4133 597.14 36.08V23.96C597.14 23.6133 597.233 23.3533 597.42 23.18C597.607 22.9933 597.867 22.9 598.2 22.9H602.98C604.5 22.9 605.673 23.28 606.5 24.04C607.327 24.7867 607.74 25.84 607.74 27.2C607.74 28.5733 607.327 29.64 606.5 30.4C605.673 31.1467 604.5 31.52 602.98 31.52H599.22V36.08C599.22 36.4133 599.133 36.6733 598.96 36.86C598.787 37.0467 598.527 37.14 598.18 37.14ZM599.22 29.86H602.68C603.68 29.86 604.433 29.64 604.94 29.2C605.46 28.7467 605.72 28.08 605.72 27.2C605.72 26.3333 605.46 25.68 604.94 25.24C604.433 24.7867 603.68 24.56 602.68 24.56H599.22V29.86ZM612.595 37.18C611.809 37.18 611.149 37.0333 610.615 36.74C610.095 36.4467 609.702 36.0133 609.435 35.44C609.182 34.8533 609.055 34.12 609.055 33.24V28.12C609.055 27.7733 609.142 27.52 609.315 27.36C609.489 27.1867 609.735 27.1 610.055 27.1C610.375 27.1 610.622 27.1867 610.795 27.36C610.982 27.52 611.075 27.7733 611.075 28.12V33.26C611.075 34.0467 611.235 34.6267 611.555 35C611.875 35.3733 612.382 35.56 613.075 35.56C613.835 35.56 614.449 35.3067 614.915 34.8C615.395 34.28 615.635 33.6 615.635 32.76V28.12C615.635 27.7733 615.722 27.52 615.895 27.36C616.069 27.1867 616.322 27.1 616.655 27.1C616.975 27.1 617.222 27.1867 617.395 27.36C617.569 27.52 617.655 27.7733 617.655 28.12V36.12C617.655 36.8 617.329 37.14 616.675 37.14C616.369 37.14 616.129 37.0533 615.955 36.88C615.782 36.6933 615.695 36.44 615.695 36.12V34.42L615.955 34.86C615.689 35.6067 615.262 36.18 614.675 36.58C614.089 36.98 613.395 37.18 612.595 37.18ZM621.022 37.14C620.689 37.14 620.435 37.0533 620.262 36.88C620.089 36.6933 620.002 36.44 620.002 36.12V28.12C620.002 27.7867 620.089 27.5333 620.262 27.36C620.435 27.1867 620.675 27.1 620.982 27.1C621.302 27.1 621.542 27.1867 621.702 27.36C621.875 27.5333 621.962 27.7867 621.962 28.12V29.58H621.762C621.975 28.78 622.369 28.1733 622.942 27.76C623.515 27.3467 624.249 27.1067 625.142 27.04C625.382 27.0267 625.569 27.0867 625.702 27.22C625.849 27.3533 625.929 27.56 625.942 27.84C625.969 28.12 625.909 28.3467 625.762 28.52C625.615 28.68 625.389 28.7733 625.082 28.8L624.702 28.84C623.835 28.92 623.175 29.1933 622.722 29.66C622.269 30.1267 622.042 30.7667 622.042 31.58V36.12C622.042 36.44 621.955 36.6933 621.782 36.88C621.622 37.0533 621.369 37.14 621.022 37.14ZM627.963 40.74C627.643 40.74 627.396 40.6533 627.223 40.48C627.05 40.3067 626.963 40.0533 626.963 39.72V28.12C626.963 27.7867 627.05 27.5333 627.223 27.36C627.396 27.1867 627.636 27.1 627.943 27.1C628.263 27.1 628.51 27.1867 628.683 27.36C628.856 27.5333 628.943 27.7867 628.943 28.12V29.86L628.723 29.44C628.936 28.72 629.356 28.1467 629.983 27.72C630.61 27.28 631.35 27.06 632.203 27.06C633.07 27.06 633.823 27.2667 634.463 27.68C635.116 28.0933 635.616 28.6733 635.963 29.42C636.323 30.1667 636.503 31.0667 636.503 32.12C636.503 33.1467 636.323 34.0467 635.963 34.82C635.616 35.58 635.123 36.1667 634.483 36.58C633.843 36.98 633.083 37.18 632.203 37.18C631.363 37.18 630.63 36.9667 630.003 36.54C629.376 36.1133 628.956 35.5467 628.743 34.84H628.983V39.72C628.983 40.0533 628.89 40.3067 628.703 40.48C628.53 40.6533 628.283 40.74 627.963 40.74ZM631.703 35.62C632.263 35.62 632.75 35.4867 633.163 35.22C633.576 34.9533 633.896 34.56 634.123 34.04C634.35 33.52 634.463 32.88 634.463 32.12C634.463 30.9733 634.21 30.1067 633.703 29.52C633.21 28.9333 632.543 28.64 631.703 28.64C631.156 28.64 630.67 28.7733 630.243 29.04C629.83 29.2933 629.51 29.68 629.283 30.2C629.056 30.72 628.943 31.36 628.943 32.12C628.943 33.2533 629.196 34.12 629.703 34.72C630.21 35.32 630.876 35.62 631.703 35.62ZM642.519 37.18C641.533 37.18 640.679 36.9733 639.959 36.56C639.253 36.1467 638.699 35.56 638.299 34.8C637.899 34.04 637.699 33.1467 637.699 32.12C637.699 31.3333 637.813 30.6333 638.039 30.02C638.266 29.4067 638.586 28.88 638.999 28.44C639.426 27.9867 639.933 27.6467 640.519 27.42C641.119 27.18 641.786 27.06 642.519 27.06C643.493 27.06 644.333 27.2667 645.039 27.68C645.759 28.0933 646.319 28.68 646.719 29.44C647.119 30.1867 647.319 31.08 647.319 32.12C647.319 32.8933 647.206 33.5933 646.979 34.22C646.753 34.8467 646.426 35.38 645.999 35.82C645.586 36.26 645.079 36.6 644.479 36.84C643.893 37.0667 643.239 37.18 642.519 37.18ZM642.519 35.62C643.066 35.62 643.546 35.4867 643.959 35.22C644.373 34.9533 644.693 34.56 644.919 34.04C645.159 33.52 645.279 32.88 645.279 32.12C645.279 30.9733 645.026 30.1067 644.519 29.52C644.013 28.9333 643.346 28.64 642.519 28.64C641.959 28.64 641.473 28.7733 641.059 29.04C640.646 29.2933 640.319 29.68 640.079 30.2C639.853 30.72 639.739 31.36 639.739 32.12C639.739 33.2533 639.993 34.12 640.499 34.72C641.006 35.32 641.679 35.62 642.519 35.62ZM652.508 37.18C651.921 37.18 651.315 37.1133 650.688 36.98C650.075 36.8467 649.508 36.62 648.988 36.3C648.815 36.18 648.695 36.0467 648.628 35.9C648.561 35.7533 648.535 35.6067 648.548 35.46C648.575 35.3 648.635 35.1667 648.728 35.06C648.835 34.94 648.961 34.8667 649.108 34.84C649.268 34.8133 649.435 34.8467 649.608 34.94C650.128 35.2333 650.628 35.44 651.108 35.56C651.588 35.6667 652.061 35.72 652.528 35.72C653.235 35.72 653.768 35.5933 654.128 35.34C654.488 35.0867 654.668 34.7467 654.668 34.32C654.668 33.9733 654.548 33.7067 654.308 33.52C654.068 33.32 653.708 33.1667 653.228 33.06L651.328 32.68C650.501 32.5067 649.875 32.2 649.448 31.76C649.021 31.32 648.808 30.76 648.808 30.08C648.808 29.4667 648.975 28.9333 649.308 28.48C649.641 28.0267 650.108 27.68 650.708 27.44C651.308 27.1867 652.001 27.06 652.788 27.06C653.375 27.06 653.928 27.1333 654.448 27.28C654.968 27.4267 655.448 27.6467 655.888 27.94C656.061 28.0333 656.175 28.16 656.228 28.32C656.281 28.4667 656.288 28.6133 656.248 28.76C656.221 28.9067 656.155 29.04 656.048 29.16C655.941 29.2667 655.808 29.3333 655.648 29.36C655.501 29.3733 655.335 29.3333 655.148 29.24C654.748 28.9867 654.348 28.8067 653.948 28.7C653.561 28.5933 653.175 28.54 652.788 28.54C652.081 28.54 651.548 28.6733 651.188 28.94C650.841 29.1933 650.668 29.54 650.668 29.98C650.668 30.3133 650.775 30.5867 650.988 30.8C651.201 31.0133 651.535 31.1667 651.988 31.26L653.888 31.64C654.755 31.8133 655.408 32.1067 655.848 32.52C656.301 32.9333 656.528 33.4933 656.528 34.2C656.528 35.12 656.161 35.8467 655.428 36.38C654.695 36.9133 653.721 37.18 652.508 37.18ZM662.855 37.18C661.789 37.18 660.869 36.98 660.095 36.58C659.335 36.1667 658.742 35.5867 658.315 34.84C657.902 34.08 657.695 33.18 657.695 32.14C657.695 31.1267 657.902 30.24 658.315 29.48C658.729 28.72 659.295 28.1267 660.015 27.7C660.735 27.2733 661.555 27.06 662.475 27.06C663.155 27.06 663.762 27.1733 664.295 27.4C664.829 27.6133 665.282 27.9333 665.655 28.36C666.042 28.7733 666.329 29.28 666.515 29.88C666.715 30.48 666.815 31.1533 666.815 31.9C666.815 32.1267 666.749 32.3 666.615 32.42C666.482 32.5267 666.282 32.58 666.015 32.58H659.295V31.34H665.455L665.115 31.62C665.115 30.9533 665.015 30.3867 664.815 29.92C664.629 29.4533 664.342 29.1 663.955 28.86C663.582 28.6067 663.115 28.48 662.555 28.48C661.929 28.48 661.395 28.6267 660.955 28.92C660.529 29.2133 660.202 29.62 659.975 30.14C659.749 30.66 659.635 31.2667 659.635 31.96V32.08C659.635 33.2533 659.909 34.14 660.455 34.74C661.015 35.3267 661.822 35.62 662.875 35.62C663.275 35.62 663.695 35.5667 664.135 35.46C664.589 35.3533 665.015 35.1733 665.415 34.92C665.642 34.7867 665.842 34.7267 666.015 34.74C666.202 34.7533 666.349 34.8133 666.455 34.92C666.575 35.0267 666.649 35.16 666.675 35.32C666.702 35.48 666.675 35.6467 666.595 35.82C666.515 35.98 666.375 36.1267 666.175 36.26C665.722 36.5667 665.195 36.8 664.595 36.96C663.995 37.1067 663.415 37.18 662.855 37.18Z" fill="#201F1F"/>
<path d="M579.5 60.5H1159" stroke="#CDCCCB"/>
<rect width="579.5" height="49" transform="translate(579.5 61)" fill="white"/>
<path d="M599.648 91V80.8984H595.875V79.5469H604.953V80.8984H601.164V91H599.648ZM610.234 88.3281L611.688 88.5078C611.458 89.3568 611.034 90.0156 610.414 90.4844C609.794 90.9531 609.003 91.1875 608.039 91.1875C606.826 91.1875 605.862 90.8151 605.148 90.0703C604.44 89.3203 604.086 88.2708 604.086 86.9219C604.086 85.526 604.445 84.4427 605.164 83.6719C605.883 82.901 606.815 82.5156 607.961 82.5156C609.07 82.5156 609.977 82.8932 610.68 83.6484C611.383 84.4036 611.734 85.4661 611.734 86.8359C611.734 86.9193 611.732 87.0443 611.727 87.2109H605.539C605.591 88.1224 605.849 88.8203 606.312 89.3047C606.776 89.7891 607.354 90.0312 608.047 90.0312C608.562 90.0312 609.003 89.8958 609.367 89.625C609.732 89.3542 610.021 88.9219 610.234 88.3281ZM605.617 86.0547H610.25C610.188 85.3568 610.01 84.8333 609.719 84.4844C609.271 83.9427 608.69 83.6719 607.977 83.6719C607.331 83.6719 606.786 83.888 606.344 84.3203C605.906 84.7526 605.664 85.3307 605.617 86.0547ZM612.523 91L615.555 86.6875L612.75 82.7031H614.508L615.781 84.6484C616.021 85.0182 616.214 85.3281 616.359 85.5781C616.589 85.2344 616.799 84.9297 616.992 84.6641L618.391 82.7031H620.07L617.203 86.6094L620.289 91H618.562L616.859 88.4219L616.406 87.7266L614.227 91H612.523ZM624.531 89.7422L624.734 90.9844C624.339 91.0677 623.984 91.1094 623.672 91.1094C623.161 91.1094 622.766 91.0286 622.484 90.8672C622.203 90.7057 622.005 90.4948 621.891 90.2344C621.776 89.9688 621.719 89.4141 621.719 88.5703V83.7969H620.688V82.7031H621.719V80.6484L623.117 79.8047V82.7031H624.531V83.7969H623.117V88.6484C623.117 89.0495 623.141 89.3073 623.188 89.4219C623.24 89.5365 623.32 89.6276 623.43 89.6953C623.544 89.763 623.706 89.7969 623.914 89.7969C624.07 89.7969 624.276 89.7786 624.531 89.7422ZM631.594 88.3281L633.047 88.5078C632.818 89.3568 632.393 90.0156 631.773 90.4844C631.154 90.9531 630.362 91.1875 629.398 91.1875C628.185 91.1875 627.221 90.8151 626.508 90.0703C625.799 89.3203 625.445 88.2708 625.445 86.9219C625.445 85.526 625.805 84.4427 626.523 83.6719C627.242 82.901 628.174 82.5156 629.32 82.5156C630.43 82.5156 631.336 82.8932 632.039 83.6484C632.742 84.4036 633.094 85.4661 633.094 86.8359C633.094 86.9193 633.091 87.0443 633.086 87.2109H626.898C626.951 88.1224 627.208 88.8203 627.672 89.3047C628.135 89.7891 628.714 90.0312 629.406 90.0312C629.922 90.0312 630.362 89.8958 630.727 89.625C631.091 89.3542 631.38 88.9219 631.594 88.3281ZM626.977 86.0547H631.609C631.547 85.3568 631.37 84.8333 631.078 84.4844C630.63 83.9427 630.049 83.6719 629.336 83.6719C628.69 83.6719 628.146 83.888 627.703 84.3203C627.266 84.7526 627.023 85.3307 626.977 86.0547ZM644.688 87.9609L646.07 88.1406C645.919 89.0938 645.531 89.8411 644.906 90.3828C644.286 90.9193 643.523 91.1875 642.617 91.1875C641.482 91.1875 640.568 90.8177 639.875 90.0781C639.188 89.3333 638.844 88.2682 638.844 86.8828C638.844 85.987 638.992 85.2031 639.289 84.5312C639.586 83.8594 640.036 83.3568 640.641 83.0234C641.25 82.6849 641.911 82.5156 642.625 82.5156C643.526 82.5156 644.263 82.7448 644.836 83.2031C645.409 83.6562 645.776 84.3021 645.938 85.1406L644.57 85.3516C644.44 84.7943 644.208 84.375 643.875 84.0938C643.547 83.8125 643.148 83.6719 642.68 83.6719C641.971 83.6719 641.396 83.9271 640.953 84.4375C640.51 84.9427 640.289 85.7448 640.289 86.8438C640.289 87.9583 640.503 88.7682 640.93 89.2734C641.357 89.7786 641.914 90.0312 642.602 90.0312C643.154 90.0312 643.615 89.862 643.984 89.5234C644.354 89.1849 644.589 88.6641 644.688 87.9609ZM646.75 86.8516C646.75 85.3151 647.177 84.1771 648.031 83.4375C648.745 82.8229 649.615 82.5156 650.641 82.5156C651.781 82.5156 652.714 82.8906 653.438 83.6406C654.161 84.3854 654.523 85.4167 654.523 86.7344C654.523 87.8021 654.362 88.6432 654.039 89.2578C653.721 89.8672 653.255 90.3411 652.641 90.6797C652.031 91.0182 651.365 91.1875 650.641 91.1875C649.479 91.1875 648.539 90.8151 647.82 90.0703C647.107 89.3255 646.75 88.2526 646.75 86.8516ZM648.195 86.8516C648.195 87.9141 648.427 88.7109 648.891 89.2422C649.354 89.7682 649.938 90.0312 650.641 90.0312C651.339 90.0312 651.919 89.7656 652.383 89.2344C652.846 88.7031 653.078 87.8932 653.078 86.8047C653.078 85.7786 652.844 85.0026 652.375 84.4766C651.911 83.9453 651.333 83.6797 650.641 83.6797C649.938 83.6797 649.354 83.9427 648.891 84.4688C648.427 84.9948 648.195 85.7891 648.195 86.8516ZM656.18 91V82.7031H657.445V83.8828C658.055 82.9714 658.935 82.5156 660.086 82.5156C660.586 82.5156 661.044 82.6068 661.461 82.7891C661.883 82.9661 662.198 83.2005 662.406 83.4922C662.615 83.7839 662.76 84.1302 662.844 84.5312C662.896 84.7917 662.922 85.2474 662.922 85.8984V91H661.516V85.9531C661.516 85.3802 661.461 84.9531 661.352 84.6719C661.242 84.3854 661.047 84.1589 660.766 83.9922C660.49 83.8203 660.164 83.7344 659.789 83.7344C659.19 83.7344 658.672 83.9245 658.234 84.3047C657.802 84.6849 657.586 85.4062 657.586 86.4688V91H656.18ZM668.156 89.7422L668.359 90.9844C667.964 91.0677 667.609 91.1094 667.297 91.1094C666.786 91.1094 666.391 91.0286 666.109 90.8672C665.828 90.7057 665.63 90.4948 665.516 90.2344C665.401 89.9688 665.344 89.4141 665.344 88.5703V83.7969H664.312V82.7031H665.344V80.6484L666.742 79.8047V82.7031H668.156V83.7969H666.742V88.6484C666.742 89.0495 666.766 89.3073 666.812 89.4219C666.865 89.5365 666.945 89.6276 667.055 89.6953C667.169 89.763 667.331 89.7969 667.539 89.7969C667.695 89.7969 667.901 89.7786 668.156 89.7422ZM675.219 88.3281L676.672 88.5078C676.443 89.3568 676.018 90.0156 675.398 90.4844C674.779 90.9531 673.987 91.1875 673.023 91.1875C671.81 91.1875 670.846 90.8151 670.133 90.0703C669.424 89.3203 669.07 88.2708 669.07 86.9219C669.07 85.526 669.43 84.4427 670.148 83.6719C670.867 82.901 671.799 82.5156 672.945 82.5156C674.055 82.5156 674.961 82.8932 675.664 83.6484C676.367 84.4036 676.719 85.4661 676.719 86.8359C676.719 86.9193 676.716 87.0443 676.711 87.2109H670.523C670.576 88.1224 670.833 88.8203 671.297 89.3047C671.76 89.7891 672.339 90.0312 673.031 90.0312C673.547 90.0312 673.987 89.8958 674.352 89.625C674.716 89.3542 675.005 88.9219 675.219 88.3281ZM670.602 86.0547H675.234C675.172 85.3568 674.995 84.8333 674.703 84.4844C674.255 83.9427 673.674 83.6719 672.961 83.6719C672.315 83.6719 671.771 83.888 671.328 84.3203C670.891 84.7526 670.648 85.3307 670.602 86.0547ZM678.445 91V82.7031H679.711V83.8828C680.32 82.9714 681.201 82.5156 682.352 82.5156C682.852 82.5156 683.31 82.6068 683.727 82.7891C684.148 82.9661 684.464 83.2005 684.672 83.4922C684.88 83.7839 685.026 84.1302 685.109 84.5312C685.161 84.7917 685.188 85.2474 685.188 85.8984V91H683.781V85.9531C683.781 85.3802 683.727 84.9531 683.617 84.6719C683.508 84.3854 683.312 84.1589 683.031 83.9922C682.755 83.8203 682.43 83.7344 682.055 83.7344C681.456 83.7344 680.938 83.9245 680.5 84.3047C680.068 84.6849 679.852 85.4062 679.852 86.4688V91H678.445ZM692.789 91V89.7812C692.143 90.7188 691.266 91.1875 690.156 91.1875C689.667 91.1875 689.208 91.0938 688.781 90.9062C688.359 90.7188 688.044 90.4844 687.836 90.2031C687.633 89.9167 687.49 89.5677 687.406 89.1562C687.349 88.8802 687.32 88.4427 687.32 87.8438V82.7031H688.727V87.3047C688.727 88.0391 688.755 88.5339 688.812 88.7891C688.901 89.1589 689.089 89.4505 689.375 89.6641C689.661 89.8724 690.016 89.9766 690.438 89.9766C690.859 89.9766 691.255 89.8698 691.625 89.6562C691.995 89.4375 692.255 89.1432 692.406 88.7734C692.562 88.3984 692.641 87.8568 692.641 87.1484V82.7031H694.047V91H692.789ZM706.094 91V89.9531C705.568 90.776 704.794 91.1875 703.773 91.1875C703.112 91.1875 702.503 91.0052 701.945 90.6406C701.393 90.276 700.964 89.7682 700.656 89.1172C700.354 88.4609 700.203 87.7083 700.203 86.8594C700.203 86.0312 700.341 85.2812 700.617 84.6094C700.893 83.9323 701.307 83.4141 701.859 83.0547C702.411 82.6953 703.029 82.5156 703.711 82.5156C704.211 82.5156 704.656 82.6224 705.047 82.8359C705.438 83.0443 705.755 83.3177 706 83.6562V79.5469H707.398V91H706.094ZM701.648 86.8594C701.648 87.9219 701.872 88.7161 702.32 89.2422C702.768 89.7682 703.297 90.0312 703.906 90.0312C704.521 90.0312 705.042 89.7812 705.469 89.2812C705.901 88.776 706.117 88.0078 706.117 86.9766C706.117 85.8411 705.898 85.0078 705.461 84.4766C705.023 83.9453 704.484 83.6797 703.844 83.6797C703.219 83.6797 702.695 83.9349 702.273 84.4453C701.857 84.9557 701.648 85.7604 701.648 86.8594ZM715.031 89.9766C714.51 90.4193 714.008 90.7318 713.523 90.9141C713.044 91.0964 712.529 91.1875 711.977 91.1875C711.065 91.1875 710.365 90.9661 709.875 90.5234C709.385 90.0755 709.141 89.5052 709.141 88.8125C709.141 88.4062 709.232 88.0365 709.414 87.7031C709.602 87.3646 709.844 87.0938 710.141 86.8906C710.443 86.6875 710.781 86.5339 711.156 86.4297C711.432 86.3568 711.849 86.2865 712.406 86.2188C713.542 86.0833 714.378 85.9219 714.914 85.7344C714.919 85.5417 714.922 85.4193 714.922 85.3672C714.922 84.7943 714.789 84.3906 714.523 84.1562C714.164 83.8385 713.63 83.6797 712.922 83.6797C712.26 83.6797 711.771 83.7969 711.453 84.0312C711.141 84.2604 710.909 84.6693 710.758 85.2578L709.383 85.0703C709.508 84.4818 709.714 84.0078 710 83.6484C710.286 83.2839 710.701 83.0052 711.242 82.8125C711.784 82.6146 712.411 82.5156 713.125 82.5156C713.833 82.5156 714.409 82.599 714.852 82.7656C715.294 82.9323 715.62 83.1432 715.828 83.3984C716.036 83.6484 716.182 83.9661 716.266 84.3516C716.312 84.5911 716.336 85.0234 716.336 85.6484V87.5234C716.336 88.8307 716.365 89.6589 716.422 90.0078C716.484 90.3516 716.604 90.6823 716.781 91H715.312C715.167 90.7083 715.073 90.3672 715.031 89.9766ZM714.914 86.8359C714.404 87.0443 713.638 87.2214 712.617 87.3672C712.039 87.4505 711.63 87.5443 711.391 87.6484C711.151 87.7526 710.966 87.9062 710.836 88.1094C710.706 88.3073 710.641 88.5286 710.641 88.7734C710.641 89.1484 710.781 89.4609 711.062 89.7109C711.349 89.9609 711.766 90.0859 712.312 90.0859C712.854 90.0859 713.336 89.9688 713.758 89.7344C714.18 89.4948 714.49 89.1693 714.688 88.7578C714.839 88.4401 714.914 87.9714 714.914 87.3516V86.8359ZM718.523 91V82.7031H719.789V83.8828C720.398 82.9714 721.279 82.5156 722.43 82.5156C722.93 82.5156 723.388 82.6068 723.805 82.7891C724.227 82.9661 724.542 83.2005 724.75 83.4922C724.958 83.7839 725.104 84.1302 725.188 84.5312C725.24 84.7917 725.266 85.2474 725.266 85.8984V91H723.859V85.9531C723.859 85.3802 723.805 84.9531 723.695 84.6719C723.586 84.3854 723.391 84.1589 723.109 83.9922C722.833 83.8203 722.508 83.7344 722.133 83.7344C721.534 83.7344 721.016 83.9245 720.578 84.3047C720.146 84.6849 719.93 85.4062 719.93 86.4688V91H718.523ZM726.867 88.5234L728.258 88.3047C728.336 88.862 728.552 89.2891 728.906 89.5859C729.266 89.8828 729.766 90.0312 730.406 90.0312C731.052 90.0312 731.531 89.901 731.844 89.6406C732.156 89.375 732.312 89.0651 732.312 88.7109C732.312 88.3932 732.174 88.1432 731.898 87.9609C731.706 87.8359 731.227 87.6771 730.461 87.4844C729.43 87.224 728.714 87 728.312 86.8125C727.917 86.6198 727.615 86.3568 727.406 86.0234C727.203 85.6849 727.102 85.3125 727.102 84.9062C727.102 84.5365 727.185 84.1953 727.352 83.8828C727.523 83.5651 727.755 83.3021 728.047 83.0938C728.266 82.9323 728.562 82.7969 728.938 82.6875C729.318 82.5729 729.724 82.5156 730.156 82.5156C730.807 82.5156 731.378 82.6094 731.867 82.7969C732.362 82.9844 732.727 83.2396 732.961 83.5625C733.195 83.8802 733.357 84.3073 733.445 84.8438L732.07 85.0312C732.008 84.6042 731.826 84.2708 731.523 84.0312C731.227 83.7917 730.805 83.6719 730.258 83.6719C729.612 83.6719 729.151 83.7786 728.875 83.9922C728.599 84.2057 728.461 84.4557 728.461 84.7422C728.461 84.9245 728.518 85.0885 728.633 85.2344C728.747 85.3854 728.927 85.5104 729.172 85.6094C729.312 85.6615 729.727 85.7812 730.414 85.9688C731.409 86.2344 732.102 86.4531 732.492 86.625C732.888 86.7917 733.198 87.0365 733.422 87.3594C733.646 87.6823 733.758 88.0833 733.758 88.5625C733.758 89.0312 733.62 89.474 733.344 89.8906C733.073 90.3021 732.68 90.6224 732.164 90.8516C731.648 91.0755 731.065 91.1875 730.414 91.1875C729.336 91.1875 728.513 90.9635 727.945 90.5156C727.383 90.0677 727.023 89.4036 726.867 88.5234ZM745.297 87.9609L746.68 88.1406C746.529 89.0938 746.141 89.8411 745.516 90.3828C744.896 90.9193 744.133 91.1875 743.227 91.1875C742.091 91.1875 741.177 90.8177 740.484 90.0781C739.797 89.3333 739.453 88.2682 739.453 86.8828C739.453 85.987 739.602 85.2031 739.898 84.5312C740.195 83.8594 740.646 83.3568 741.25 83.0234C741.859 82.6849 742.521 82.5156 743.234 82.5156C744.135 82.5156 744.872 82.7448 745.445 83.2031C746.018 83.6562 746.385 84.3021 746.547 85.1406L745.18 85.3516C745.049 84.7943 744.818 84.375 744.484 84.0938C744.156 83.8125 743.758 83.6719 743.289 83.6719C742.581 83.6719 742.005 83.9271 741.562 84.4375C741.12 84.9427 740.898 85.7448 740.898 86.8438C740.898 87.9583 741.112 88.7682 741.539 89.2734C741.966 89.7786 742.523 90.0312 743.211 90.0312C743.763 90.0312 744.224 89.862 744.594 89.5234C744.964 89.1849 745.198 88.6641 745.297 87.9609ZM747.883 91V79.5469H749.289V83.6562C749.945 82.8958 750.773 82.5156 751.773 82.5156C752.388 82.5156 752.922 82.638 753.375 82.8828C753.828 83.1224 754.151 83.4557 754.344 83.8828C754.542 84.3099 754.641 84.9297 754.641 85.7422V91H753.234V85.7422C753.234 85.0391 753.081 84.5286 752.773 84.2109C752.471 83.888 752.042 83.7266 751.484 83.7266C751.068 83.7266 750.674 83.8359 750.305 84.0547C749.94 84.2682 749.68 84.5599 749.523 84.9297C749.367 85.2995 749.289 85.8099 749.289 86.4609V91H747.883ZM762.203 89.9766C761.682 90.4193 761.18 90.7318 760.695 90.9141C760.216 91.0964 759.701 91.1875 759.148 91.1875C758.237 91.1875 757.536 90.9661 757.047 90.5234C756.557 90.0755 756.312 89.5052 756.312 88.8125C756.312 88.4062 756.404 88.0365 756.586 87.7031C756.773 87.3646 757.016 87.0938 757.312 86.8906C757.615 86.6875 757.953 86.5339 758.328 86.4297C758.604 86.3568 759.021 86.2865 759.578 86.2188C760.714 86.0833 761.549 85.9219 762.086 85.7344C762.091 85.5417 762.094 85.4193 762.094 85.3672C762.094 84.7943 761.961 84.3906 761.695 84.1562C761.336 83.8385 760.802 83.6797 760.094 83.6797C759.432 83.6797 758.943 83.7969 758.625 84.0312C758.312 84.2604 758.081 84.6693 757.93 85.2578L756.555 85.0703C756.68 84.4818 756.885 84.0078 757.172 83.6484C757.458 83.2839 757.872 83.0052 758.414 82.8125C758.956 82.6146 759.583 82.5156 760.297 82.5156C761.005 82.5156 761.581 82.599 762.023 82.7656C762.466 82.9323 762.792 83.1432 763 83.3984C763.208 83.6484 763.354 83.9661 763.438 84.3516C763.484 84.5911 763.508 85.0234 763.508 85.6484V87.5234C763.508 88.8307 763.536 89.6589 763.594 90.0078C763.656 90.3516 763.776 90.6823 763.953 91H762.484C762.339 90.7083 762.245 90.3672 762.203 89.9766ZM762.086 86.8359C761.576 87.0443 760.81 87.2214 759.789 87.3672C759.211 87.4505 758.802 87.5443 758.562 87.6484C758.323 87.7526 758.138 87.9062 758.008 88.1094C757.878 88.3073 757.812 88.5286 757.812 88.7734C757.812 89.1484 757.953 89.4609 758.234 89.7109C758.521 89.9609 758.938 90.0859 759.484 90.0859C760.026 90.0859 760.508 89.9688 760.93 89.7344C761.352 89.4948 761.661 89.1693 761.859 88.7578C762.01 88.4401 762.086 87.9714 762.086 87.3516V86.8359ZM770.984 94.1797V90.1172C770.766 90.4245 770.458 90.6797 770.062 90.8828C769.672 91.0859 769.255 91.1875 768.812 91.1875C767.828 91.1875 766.979 90.7943 766.266 90.0078C765.557 89.2214 765.203 88.1432 765.203 86.7734C765.203 85.9401 765.346 85.1927 765.633 84.5312C765.924 83.8698 766.344 83.3698 766.891 83.0312C767.443 82.6875 768.047 82.5156 768.703 82.5156C769.729 82.5156 770.536 82.9479 771.125 83.8125V82.7031H772.391V94.1797H770.984ZM766.648 86.8281C766.648 87.8958 766.872 88.6979 767.32 89.2344C767.768 89.7656 768.305 90.0312 768.93 90.0312C769.529 90.0312 770.044 89.7786 770.477 89.2734C770.909 88.763 771.125 87.9896 771.125 86.9531C771.125 85.849 770.896 85.0182 770.438 84.4609C769.984 83.9036 769.451 83.625 768.836 83.625C768.227 83.625 767.708 83.8854 767.281 84.4062C766.859 84.9219 766.648 85.7292 766.648 86.8281ZM780.039 91V89.7812C779.393 90.7188 778.516 91.1875 777.406 91.1875C776.917 91.1875 776.458 91.0938 776.031 90.9062C775.609 90.7188 775.294 90.4844 775.086 90.2031C774.883 89.9167 774.74 89.5677 774.656 89.1562C774.599 88.8802 774.57 88.4427 774.57 87.8438V82.7031H775.977V87.3047C775.977 88.0391 776.005 88.5339 776.062 88.7891C776.151 89.1589 776.339 89.4505 776.625 89.6641C776.911 89.8724 777.266 89.9766 777.688 89.9766C778.109 89.9766 778.505 89.8698 778.875 89.6562C779.245 89.4375 779.505 89.1432 779.656 88.7734C779.812 88.3984 779.891 87.8568 779.891 87.1484V82.7031H781.297V91H780.039ZM789.188 88.3281L790.641 88.5078C790.411 89.3568 789.987 90.0156 789.367 90.4844C788.747 90.9531 787.956 91.1875 786.992 91.1875C785.779 91.1875 784.815 90.8151 784.102 90.0703C783.393 89.3203 783.039 88.2708 783.039 86.9219C783.039 85.526 783.398 84.4427 784.117 83.6719C784.836 82.901 785.768 82.5156 786.914 82.5156C788.023 82.5156 788.93 82.8932 789.633 83.6484C790.336 84.4036 790.688 85.4661 790.688 86.8359C790.688 86.9193 790.685 87.0443 790.68 87.2109H784.492C784.544 88.1224 784.802 88.8203 785.266 89.3047C785.729 89.7891 786.307 90.0312 787 90.0312C787.516 90.0312 787.956 89.8958 788.32 89.625C788.685 89.3542 788.974 88.9219 789.188 88.3281ZM784.57 86.0547H789.203C789.141 85.3568 788.964 84.8333 788.672 84.4844C788.224 83.9427 787.643 83.6719 786.93 83.6719C786.284 83.6719 785.74 83.888 785.297 84.3203C784.859 84.7526 784.617 85.3307 784.57 86.0547ZM796.305 88.5234L797.695 88.3047C797.773 88.862 797.99 89.2891 798.344 89.5859C798.703 89.8828 799.203 90.0312 799.844 90.0312C800.49 90.0312 800.969 89.901 801.281 89.6406C801.594 89.375 801.75 89.0651 801.75 88.7109C801.75 88.3932 801.612 88.1432 801.336 87.9609C801.143 87.8359 800.664 87.6771 799.898 87.4844C798.867 87.224 798.151 87 797.75 86.8125C797.354 86.6198 797.052 86.3568 796.844 86.0234C796.641 85.6849 796.539 85.3125 796.539 84.9062C796.539 84.5365 796.622 84.1953 796.789 83.8828C796.961 83.5651 797.193 83.3021 797.484 83.0938C797.703 82.9323 798 82.7969 798.375 82.6875C798.755 82.5729 799.161 82.5156 799.594 82.5156C800.245 82.5156 800.815 82.6094 801.305 82.7969C801.799 82.9844 802.164 83.2396 802.398 83.5625C802.633 83.8802 802.794 84.3073 802.883 84.8438L801.508 85.0312C801.445 84.6042 801.263 84.2708 800.961 84.0312C800.664 83.7917 800.242 83.6719 799.695 83.6719C799.049 83.6719 798.589 83.7786 798.312 83.9922C798.036 84.2057 797.898 84.4557 797.898 84.7422C797.898 84.9245 797.956 85.0885 798.07 85.2344C798.185 85.3854 798.365 85.5104 798.609 85.6094C798.75 85.6615 799.164 85.7812 799.852 85.9688C800.846 86.2344 801.539 86.4531 801.93 86.625C802.326 86.7917 802.635 87.0365 802.859 87.3594C803.083 87.6823 803.195 88.0833 803.195 88.5625C803.195 89.0312 803.057 89.474 802.781 89.8906C802.51 90.3021 802.117 90.6224 801.602 90.8516C801.086 91.0755 800.503 91.1875 799.852 91.1875C798.773 91.1875 797.951 90.9635 797.383 90.5156C796.82 90.0677 796.461 89.4036 796.305 88.5234ZM810.547 88.3281L812 88.5078C811.771 89.3568 811.346 90.0156 810.727 90.4844C810.107 90.9531 809.315 91.1875 808.352 91.1875C807.138 91.1875 806.174 90.8151 805.461 90.0703C804.753 89.3203 804.398 88.2708 804.398 86.9219C804.398 85.526 804.758 84.4427 805.477 83.6719C806.195 82.901 807.128 82.5156 808.273 82.5156C809.383 82.5156 810.289 82.8932 810.992 83.6484C811.695 84.4036 812.047 85.4661 812.047 86.8359C812.047 86.9193 812.044 87.0443 812.039 87.2109H805.852C805.904 88.1224 806.161 88.8203 806.625 89.3047C807.089 89.7891 807.667 90.0312 808.359 90.0312C808.875 90.0312 809.315 89.8958 809.68 89.625C810.044 89.3542 810.333 88.9219 810.547 88.3281ZM805.93 86.0547H810.562C810.5 85.3568 810.323 84.8333 810.031 84.4844C809.583 83.9427 809.003 83.6719 808.289 83.6719C807.643 83.6719 807.099 83.888 806.656 84.3203C806.219 84.7526 805.977 85.3307 805.93 86.0547ZM813.516 91.6875L814.883 91.8906C814.94 92.3125 815.099 92.6198 815.359 92.8125C815.708 93.0729 816.185 93.2031 816.789 93.2031C817.44 93.2031 817.943 93.0729 818.297 92.8125C818.651 92.5521 818.891 92.1875 819.016 91.7188C819.089 91.4323 819.122 90.8307 819.117 89.9141C818.503 90.638 817.737 91 816.82 91C815.68 91 814.797 90.5885 814.172 89.7656C813.547 88.9427 813.234 87.9557 813.234 86.8047C813.234 86.013 813.378 85.2839 813.664 84.6172C813.951 83.9453 814.365 83.4271 814.906 83.0625C815.453 82.6979 816.094 82.5156 816.828 82.5156C817.807 82.5156 818.615 82.9115 819.25 83.7031V82.7031H820.547V89.875C820.547 91.1667 820.414 92.0807 820.148 92.6172C819.888 93.1589 819.471 93.5859 818.898 93.8984C818.331 94.2109 817.63 94.3672 816.797 94.3672C815.807 94.3672 815.008 94.1432 814.398 93.6953C813.789 93.2526 813.495 92.5833 813.516 91.6875ZM814.68 86.7031C814.68 87.7917 814.896 88.5859 815.328 89.0859C815.76 89.5859 816.302 89.8359 816.953 89.8359C817.599 89.8359 818.141 89.5885 818.578 89.0938C819.016 88.5938 819.234 87.8125 819.234 86.75C819.234 85.7344 819.008 84.9688 818.555 84.4531C818.107 83.9375 817.565 83.6797 816.93 83.6797C816.305 83.6797 815.773 83.9349 815.336 84.4453C814.898 84.9505 814.68 85.7031 814.68 86.7031ZM828.359 88.3281L829.812 88.5078C829.583 89.3568 829.159 90.0156 828.539 90.4844C827.919 90.9531 827.128 91.1875 826.164 91.1875C824.951 91.1875 823.987 90.8151 823.273 90.0703C822.565 89.3203 822.211 88.2708 822.211 86.9219C822.211 85.526 822.57 84.4427 823.289 83.6719C824.008 82.901 824.94 82.5156 826.086 82.5156C827.195 82.5156 828.102 82.8932 828.805 83.6484C829.508 84.4036 829.859 85.4661 829.859 86.8359C829.859 86.9193 829.857 87.0443 829.852 87.2109H823.664C823.716 88.1224 823.974 88.8203 824.438 89.3047C824.901 89.7891 825.479 90.0312 826.172 90.0312C826.688 90.0312 827.128 89.8958 827.492 89.625C827.857 89.3542 828.146 88.9219 828.359 88.3281ZM823.742 86.0547H828.375C828.312 85.3568 828.135 84.8333 827.844 84.4844C827.396 83.9427 826.815 83.6719 826.102 83.6719C825.456 83.6719 824.911 83.888 824.469 84.3203C824.031 84.7526 823.789 85.3307 823.742 86.0547ZM831.586 91V82.7031H832.844V83.8672C833.104 83.4609 833.451 83.1354 833.883 82.8906C834.315 82.6406 834.807 82.5156 835.359 82.5156C835.974 82.5156 836.477 82.6432 836.867 82.8984C837.263 83.1536 837.542 83.5104 837.703 83.9688C838.359 83 839.214 82.5156 840.266 82.5156C841.089 82.5156 841.721 82.7448 842.164 83.2031C842.607 83.6562 842.828 84.3568 842.828 85.3047V91H841.43V85.7734C841.43 85.2109 841.383 84.8073 841.289 84.5625C841.201 84.3125 841.036 84.112 840.797 83.9609C840.557 83.8099 840.276 83.7344 839.953 83.7344C839.37 83.7344 838.885 83.9297 838.5 84.3203C838.115 84.7057 837.922 85.3255 837.922 86.1797V91H836.516V85.6094C836.516 84.9844 836.401 84.5156 836.172 84.2031C835.943 83.8906 835.568 83.7344 835.047 83.7344C834.651 83.7344 834.284 83.8385 833.945 84.0469C833.612 84.2552 833.37 84.5599 833.219 84.9609C833.068 85.362 832.992 85.9401 832.992 86.6953V91H831.586ZM850.594 88.3281L852.047 88.5078C851.818 89.3568 851.393 90.0156 850.773 90.4844C850.154 90.9531 849.362 91.1875 848.398 91.1875C847.185 91.1875 846.221 90.8151 845.508 90.0703C844.799 89.3203 844.445 88.2708 844.445 86.9219C844.445 85.526 844.805 84.4427 845.523 83.6719C846.242 82.901 847.174 82.5156 848.32 82.5156C849.43 82.5156 850.336 82.8932 851.039 83.6484C851.742 84.4036 852.094 85.4661 852.094 86.8359C852.094 86.9193 852.091 87.0443 852.086 87.2109H845.898C845.951 88.1224 846.208 88.8203 846.672 89.3047C847.135 89.7891 847.714 90.0312 848.406 90.0312C848.922 90.0312 849.362 89.8958 849.727 89.625C850.091 89.3542 850.38 88.9219 850.594 88.3281ZM845.977 86.0547H850.609C850.547 85.3568 850.37 84.8333 850.078 84.4844C849.63 83.9427 849.049 83.6719 848.336 83.6719C847.69 83.6719 847.146 83.888 846.703 84.3203C846.266 84.7526 846.023 85.3307 845.977 86.0547ZM853.82 91V82.7031H855.086V83.8828C855.695 82.9714 856.576 82.5156 857.727 82.5156C858.227 82.5156 858.685 82.6068 859.102 82.7891C859.523 82.9661 859.839 83.2005 860.047 83.4922C860.255 83.7839 860.401 84.1302 860.484 84.5312C860.536 84.7917 860.562 85.2474 860.562 85.8984V91H859.156V85.9531C859.156 85.3802 859.102 84.9531 858.992 84.6719C858.883 84.3854 858.688 84.1589 858.406 83.9922C858.13 83.8203 857.805 83.7344 857.43 83.7344C856.831 83.7344 856.312 83.9245 855.875 84.3047C855.443 84.6849 855.227 85.4062 855.227 86.4688V91H853.82ZM865.797 89.7422L866 90.9844C865.604 91.0677 865.25 91.1094 864.938 91.1094C864.427 91.1094 864.031 91.0286 863.75 90.8672C863.469 90.7057 863.271 90.4948 863.156 90.2344C863.042 89.9688 862.984 89.4141 862.984 88.5703V83.7969H861.953V82.7031H862.984V80.6484L864.383 79.8047V82.7031H865.797V83.7969H864.383V88.6484C864.383 89.0495 864.406 89.3073 864.453 89.4219C864.505 89.5365 864.586 89.6276 864.695 89.6953C864.81 89.763 864.971 89.7969 865.18 89.7969C865.336 89.7969 865.542 89.7786 865.797 89.7422ZM877.016 91V89.9531C876.49 90.776 875.716 91.1875 874.695 91.1875C874.034 91.1875 873.424 91.0052 872.867 90.6406C872.315 90.276 871.885 89.7682 871.578 89.1172C871.276 88.4609 871.125 87.7083 871.125 86.8594C871.125 86.0312 871.263 85.2812 871.539 84.6094C871.815 83.9323 872.229 83.4141 872.781 83.0547C873.333 82.6953 873.951 82.5156 874.633 82.5156C875.133 82.5156 875.578 82.6224 875.969 82.8359C876.359 83.0443 876.677 83.3177 876.922 83.6562V79.5469H878.32V91H877.016ZM872.57 86.8594C872.57 87.9219 872.794 88.7161 873.242 89.2422C873.69 89.7682 874.219 90.0312 874.828 90.0312C875.443 90.0312 875.964 89.7812 876.391 89.2812C876.823 88.776 877.039 88.0078 877.039 86.9766C877.039 85.8411 876.82 85.0078 876.383 84.4766C875.945 83.9453 875.406 83.6797 874.766 83.6797C874.141 83.6797 873.617 83.9349 873.195 84.4453C872.779 84.9557 872.57 85.7604 872.57 86.8594ZM885.977 91V89.7812C885.331 90.7188 884.453 91.1875 883.344 91.1875C882.854 91.1875 882.396 91.0938 881.969 90.9062C881.547 90.7188 881.232 90.4844 881.023 90.2031C880.82 89.9167 880.677 89.5677 880.594 89.1562C880.536 88.8802 880.508 88.4427 880.508 87.8438V82.7031H881.914V87.3047C881.914 88.0391 881.943 88.5339 882 88.7891C882.089 89.1589 882.276 89.4505 882.562 89.6641C882.849 89.8724 883.203 89.9766 883.625 89.9766C884.047 89.9766 884.443 89.8698 884.812 89.6562C885.182 89.4375 885.443 89.1432 885.594 88.7734C885.75 88.3984 885.828 87.8568 885.828 87.1484V82.7031H887.234V91H885.977ZM893.336 88.5234L894.727 88.3047C894.805 88.862 895.021 89.2891 895.375 89.5859C895.734 89.8828 896.234 90.0312 896.875 90.0312C897.521 90.0312 898 89.901 898.312 89.6406C898.625 89.375 898.781 89.0651 898.781 88.7109C898.781 88.3932 898.643 88.1432 898.367 87.9609C898.174 87.8359 897.695 87.6771 896.93 87.4844C895.898 87.224 895.182 87 894.781 86.8125C894.385 86.6198 894.083 86.3568 893.875 86.0234C893.672 85.6849 893.57 85.3125 893.57 84.9062C893.57 84.5365 893.654 84.1953 893.82 83.8828C893.992 83.5651 894.224 83.3021 894.516 83.0938C894.734 82.9323 895.031 82.7969 895.406 82.6875C895.786 82.5729 896.193 82.5156 896.625 82.5156C897.276 82.5156 897.846 82.6094 898.336 82.7969C898.831 82.9844 899.195 83.2396 899.43 83.5625C899.664 83.8802 899.826 84.3073 899.914 84.8438L898.539 85.0312C898.477 84.6042 898.294 84.2708 897.992 84.0312C897.695 83.7917 897.273 83.6719 896.727 83.6719C896.081 83.6719 895.62 83.7786 895.344 83.9922C895.068 84.2057 894.93 84.4557 894.93 84.7422C894.93 84.9245 894.987 85.0885 895.102 85.2344C895.216 85.3854 895.396 85.5104 895.641 85.6094C895.781 85.6615 896.195 85.7812 896.883 85.9688C897.878 86.2344 898.57 86.4531 898.961 86.625C899.357 86.7917 899.667 87.0365 899.891 87.3594C900.115 87.6823 900.227 88.0833 900.227 88.5625C900.227 89.0312 900.089 89.474 899.812 89.8906C899.542 90.3021 899.148 90.6224 898.633 90.8516C898.117 91.0755 897.534 91.1875 896.883 91.1875C895.805 91.1875 894.982 90.9635 894.414 90.5156C893.852 90.0677 893.492 89.4036 893.336 88.5234ZM907.578 88.3281L909.031 88.5078C908.802 89.3568 908.378 90.0156 907.758 90.4844C907.138 90.9531 906.346 91.1875 905.383 91.1875C904.169 91.1875 903.206 90.8151 902.492 90.0703C901.784 89.3203 901.43 88.2708 901.43 86.9219C901.43 85.526 901.789 84.4427 902.508 83.6719C903.227 82.901 904.159 82.5156 905.305 82.5156C906.414 82.5156 907.32 82.8932 908.023 83.6484C908.727 84.4036 909.078 85.4661 909.078 86.8359C909.078 86.9193 909.076 87.0443 909.07 87.2109H902.883C902.935 88.1224 903.193 88.8203 903.656 89.3047C904.12 89.7891 904.698 90.0312 905.391 90.0312C905.906 90.0312 906.346 89.8958 906.711 89.625C907.076 89.3542 907.365 88.9219 907.578 88.3281ZM902.961 86.0547H907.594C907.531 85.3568 907.354 84.8333 907.062 84.4844C906.615 83.9427 906.034 83.6719 905.32 83.6719C904.674 83.6719 904.13 83.888 903.688 84.3203C903.25 84.7526 903.008 85.3307 902.961 86.0547ZM910.547 91.6875L911.914 91.8906C911.971 92.3125 912.13 92.6198 912.391 92.8125C912.74 93.0729 913.216 93.2031 913.82 93.2031C914.471 93.2031 914.974 93.0729 915.328 92.8125C915.682 92.5521 915.922 92.1875 916.047 91.7188C916.12 91.4323 916.154 90.8307 916.148 89.9141C915.534 90.638 914.768 91 913.852 91C912.711 91 911.828 90.5885 911.203 89.7656C910.578 88.9427 910.266 87.9557 910.266 86.8047C910.266 86.013 910.409 85.2839 910.695 84.6172C910.982 83.9453 911.396 83.4271 911.938 83.0625C912.484 82.6979 913.125 82.5156 913.859 82.5156C914.839 82.5156 915.646 82.9115 916.281 83.7031V82.7031H917.578V89.875C917.578 91.1667 917.445 92.0807 917.18 92.6172C916.919 93.1589 916.503 93.5859 915.93 93.8984C915.362 94.2109 914.661 94.3672 913.828 94.3672C912.839 94.3672 912.039 94.1432 911.43 93.6953C910.82 93.2526 910.526 92.5833 910.547 91.6875ZM911.711 86.7031C911.711 87.7917 911.927 88.5859 912.359 89.0859C912.792 89.5859 913.333 89.8359 913.984 89.8359C914.63 89.8359 915.172 89.5885 915.609 89.0938C916.047 88.5938 916.266 87.8125 916.266 86.75C916.266 85.7344 916.039 84.9688 915.586 84.4531C915.138 83.9375 914.596 83.6797 913.961 83.6797C913.336 83.6797 912.805 83.9349 912.367 84.4453C911.93 84.9505 911.711 85.7031 911.711 86.7031ZM925.391 88.3281L926.844 88.5078C926.615 89.3568 926.19 90.0156 925.57 90.4844C924.951 90.9531 924.159 91.1875 923.195 91.1875C921.982 91.1875 921.018 90.8151 920.305 90.0703C919.596 89.3203 919.242 88.2708 919.242 86.9219C919.242 85.526 919.602 84.4427 920.32 83.6719C921.039 82.901 921.971 82.5156 923.117 82.5156C924.227 82.5156 925.133 82.8932 925.836 83.6484C926.539 84.4036 926.891 85.4661 926.891 86.8359C926.891 86.9193 926.888 87.0443 926.883 87.2109H920.695C920.747 88.1224 921.005 88.8203 921.469 89.3047C921.932 89.7891 922.51 90.0312 923.203 90.0312C923.719 90.0312 924.159 89.8958 924.523 89.625C924.888 89.3542 925.177 88.9219 925.391 88.3281ZM920.773 86.0547H925.406C925.344 85.3568 925.167 84.8333 924.875 84.4844C924.427 83.9427 923.846 83.6719 923.133 83.6719C922.487 83.6719 921.943 83.888 921.5 84.3203C921.062 84.7526 920.82 85.3307 920.773 86.0547ZM928.617 91V82.7031H929.875V83.8672C930.135 83.4609 930.482 83.1354 930.914 82.8906C931.346 82.6406 931.839 82.5156 932.391 82.5156C933.005 82.5156 933.508 82.6432 933.898 82.8984C934.294 83.1536 934.573 83.5104 934.734 83.9688C935.391 83 936.245 82.5156 937.297 82.5156C938.12 82.5156 938.753 82.7448 939.195 83.2031C939.638 83.6562 939.859 84.3568 939.859 85.3047V91H938.461V85.7734C938.461 85.2109 938.414 84.8073 938.32 84.5625C938.232 84.3125 938.068 84.112 937.828 83.9609C937.589 83.8099 937.307 83.7344 936.984 83.7344C936.401 83.7344 935.917 83.9297 935.531 84.3203C935.146 84.7057 934.953 85.3255 934.953 86.1797V91H933.547V85.6094C933.547 84.9844 933.432 84.5156 933.203 84.2031C932.974 83.8906 932.599 83.7344 932.078 83.7344C931.682 83.7344 931.315 83.8385 930.977 84.0469C930.643 84.2552 930.401 84.5599 930.25 84.9609C930.099 85.362 930.023 85.9401 930.023 86.6953V91H928.617ZM947.625 88.3281L949.078 88.5078C948.849 89.3568 948.424 90.0156 947.805 90.4844C947.185 90.9531 946.393 91.1875 945.43 91.1875C944.216 91.1875 943.253 90.8151 942.539 90.0703C941.831 89.3203 941.477 88.2708 941.477 86.9219C941.477 85.526 941.836 84.4427 942.555 83.6719C943.273 82.901 944.206 82.5156 945.352 82.5156C946.461 82.5156 947.367 82.8932 948.07 83.6484C948.773 84.4036 949.125 85.4661 949.125 86.8359C949.125 86.9193 949.122 87.0443 949.117 87.2109H942.93C942.982 88.1224 943.24 88.8203 943.703 89.3047C944.167 89.7891 944.745 90.0312 945.438 90.0312C945.953 90.0312 946.393 89.8958 946.758 89.625C947.122 89.3542 947.411 88.9219 947.625 88.3281ZM943.008 86.0547H947.641C947.578 85.3568 947.401 84.8333 947.109 84.4844C946.661 83.9427 946.081 83.6719 945.367 83.6719C944.721 83.6719 944.177 83.888 943.734 84.3203C943.297 84.7526 943.055 85.3307 943.008 86.0547ZM950.852 91V82.7031H952.117V83.8828C952.727 82.9714 953.607 82.5156 954.758 82.5156C955.258 82.5156 955.716 82.6068 956.133 82.7891C956.555 82.9661 956.87 83.2005 957.078 83.4922C957.286 83.7839 957.432 84.1302 957.516 84.5312C957.568 84.7917 957.594 85.2474 957.594 85.8984V91H956.188V85.9531C956.188 85.3802 956.133 84.9531 956.023 84.6719C955.914 84.3854 955.719 84.1589 955.438 83.9922C955.161 83.8203 954.836 83.7344 954.461 83.7344C953.862 83.7344 953.344 83.9245 952.906 84.3047C952.474 84.6849 952.258 85.4062 952.258 86.4688V91H950.852ZM962.828 89.7422L963.031 90.9844C962.635 91.0677 962.281 91.1094 961.969 91.1094C961.458 91.1094 961.062 91.0286 960.781 90.8672C960.5 90.7057 960.302 90.4948 960.188 90.2344C960.073 89.9688 960.016 89.4141 960.016 88.5703V83.7969H958.984V82.7031H960.016V80.6484L961.414 79.8047V82.7031H962.828V83.7969H961.414V88.6484C961.414 89.0495 961.438 89.3073 961.484 89.4219C961.536 89.5365 961.617 89.6276 961.727 89.6953C961.841 89.763 962.003 89.7969 962.211 89.7969C962.367 89.7969 962.573 89.7786 962.828 89.7422ZM969.891 88.3281L971.344 88.5078C971.115 89.3568 970.69 90.0156 970.07 90.4844C969.451 90.9531 968.659 91.1875 967.695 91.1875C966.482 91.1875 965.518 90.8151 964.805 90.0703C964.096 89.3203 963.742 88.2708 963.742 86.9219C963.742 85.526 964.102 84.4427 964.82 83.6719C965.539 82.901 966.471 82.5156 967.617 82.5156C968.727 82.5156 969.633 82.8932 970.336 83.6484C971.039 84.4036 971.391 85.4661 971.391 86.8359C971.391 86.9193 971.388 87.0443 971.383 87.2109H965.195C965.247 88.1224 965.505 88.8203 965.969 89.3047C966.432 89.7891 967.01 90.0312 967.703 90.0312C968.219 90.0312 968.659 89.8958 969.023 89.625C969.388 89.3542 969.677 88.9219 969.891 88.3281ZM965.273 86.0547H969.906C969.844 85.3568 969.667 84.8333 969.375 84.4844C968.927 83.9427 968.346 83.6719 967.633 83.6719C966.987 83.6719 966.443 83.888 966 84.3203C965.562 84.7526 965.32 85.3307 965.273 86.0547ZM978.5 91V89.9531C977.974 90.776 977.201 91.1875 976.18 91.1875C975.518 91.1875 974.909 91.0052 974.352 90.6406C973.799 90.276 973.37 89.7682 973.062 89.1172C972.76 88.4609 972.609 87.7083 972.609 86.8594C972.609 86.0312 972.747 85.2812 973.023 84.6094C973.299 83.9323 973.714 83.4141 974.266 83.0547C974.818 82.6953 975.435 82.5156 976.117 82.5156C976.617 82.5156 977.062 82.6224 977.453 82.8359C977.844 83.0443 978.161 83.3177 978.406 83.6562V79.5469H979.805V91H978.5ZM974.055 86.8594C974.055 87.9219 974.279 88.7161 974.727 89.2422C975.174 89.7682 975.703 90.0312 976.312 90.0312C976.927 90.0312 977.448 89.7812 977.875 89.2812C978.307 88.776 978.523 88.0078 978.523 86.9766C978.523 85.8411 978.305 85.0078 977.867 84.4766C977.43 83.9453 976.891 83.6797 976.25 83.6797C975.625 83.6797 975.102 83.9349 974.68 84.4453C974.263 84.9557 974.055 85.7604 974.055 86.8594ZM991.891 87.9609L993.273 88.1406C993.122 89.0938 992.734 89.8411 992.109 90.3828C991.49 90.9193 990.727 91.1875 989.82 91.1875C988.685 91.1875 987.771 90.8177 987.078 90.0781C986.391 89.3333 986.047 88.2682 986.047 86.8828C986.047 85.987 986.195 85.2031 986.492 84.5312C986.789 83.8594 987.24 83.3568 987.844 83.0234C988.453 82.6849 989.115 82.5156 989.828 82.5156C990.729 82.5156 991.466 82.7448 992.039 83.2031C992.612 83.6562 992.979 84.3021 993.141 85.1406L991.773 85.3516C991.643 84.7943 991.411 84.375 991.078 84.0938C990.75 83.8125 990.352 83.6719 989.883 83.6719C989.174 83.6719 988.599 83.9271 988.156 84.4375C987.714 84.9427 987.492 85.7448 987.492 86.8438C987.492 87.9583 987.706 88.7682 988.133 89.2734C988.56 89.7786 989.117 90.0312 989.805 90.0312C990.357 90.0312 990.818 89.862 991.188 89.5234C991.557 89.1849 991.792 88.6641 991.891 87.9609ZM993.953 86.8516C993.953 85.3151 994.38 84.1771 995.234 83.4375C995.948 82.8229 996.818 82.5156 997.844 82.5156C998.984 82.5156 999.917 82.8906 1000.64 83.6406C1001.36 84.3854 1001.73 85.4167 1001.73 86.7344C1001.73 87.8021 1001.57 88.6432 1001.24 89.2578C1000.92 89.8672 1000.46 90.3411 999.844 90.6797C999.234 91.0182 998.568 91.1875 997.844 91.1875C996.682 91.1875 995.742 90.8151 995.023 90.0703C994.31 89.3255 993.953 88.2526 993.953 86.8516ZM995.398 86.8516C995.398 87.9141 995.63 88.7109 996.094 89.2422C996.557 89.7682 997.141 90.0312 997.844 90.0312C998.542 90.0312 999.122 89.7656 999.586 89.2344C1000.05 88.7031 1000.28 87.8932 1000.28 86.8047C1000.28 85.7786 1000.05 85.0026 999.578 84.4766C999.115 83.9453 998.536 83.6797 997.844 83.6797C997.141 83.6797 996.557 83.9427 996.094 84.4688C995.63 84.9948 995.398 85.7891 995.398 86.8516ZM1003.38 91V82.7031H1004.65V83.8828C1005.26 82.9714 1006.14 82.5156 1007.29 82.5156C1007.79 82.5156 1008.25 82.6068 1008.66 82.7891C1009.09 82.9661 1009.4 83.2005 1009.61 83.4922C1009.82 83.7839 1009.96 84.1302 1010.05 84.5312C1010.1 84.7917 1010.12 85.2474 1010.12 85.8984V91H1008.72V85.9531C1008.72 85.3802 1008.66 84.9531 1008.55 84.6719C1008.45 84.3854 1008.25 84.1589 1007.97 83.9922C1007.69 83.8203 1007.37 83.7344 1006.99 83.7344C1006.39 83.7344 1005.88 83.9245 1005.44 84.3047C1005.01 84.6849 1004.79 85.4062 1004.79 86.4688V91H1003.38ZM1015.36 89.7422L1015.56 90.9844C1015.17 91.0677 1014.81 91.1094 1014.5 91.1094C1013.99 91.1094 1013.59 91.0286 1013.31 90.8672C1013.03 90.7057 1012.83 90.4948 1012.72 90.2344C1012.6 89.9688 1012.55 89.4141 1012.55 88.5703V83.7969H1011.52V82.7031H1012.55V80.6484L1013.95 79.8047V82.7031H1015.36V83.7969H1013.95V88.6484C1013.95 89.0495 1013.97 89.3073 1014.02 89.4219C1014.07 89.5365 1014.15 89.6276 1014.26 89.6953C1014.37 89.763 1014.53 89.7969 1014.74 89.7969C1014.9 89.7969 1015.1 89.7786 1015.36 89.7422ZM1016.73 91V82.7031H1017.99V83.9609C1018.32 83.3724 1018.61 82.9844 1018.88 82.7969C1019.16 82.6094 1019.46 82.5156 1019.79 82.5156C1020.26 82.5156 1020.74 82.6667 1021.23 82.9688L1020.75 84.2734C1020.41 84.0703 1020.06 83.9688 1019.72 83.9688C1019.41 83.9688 1019.14 84.0625 1018.89 84.25C1018.65 84.4323 1018.47 84.6875 1018.37 85.0156C1018.21 85.5156 1018.13 86.0625 1018.13 86.6562V91H1016.73ZM1021.55 86.8516C1021.55 85.3151 1021.97 84.1771 1022.83 83.4375C1023.54 82.8229 1024.41 82.5156 1025.44 82.5156C1026.58 82.5156 1027.51 82.8906 1028.23 83.6406C1028.96 84.3854 1029.32 85.4167 1029.32 86.7344C1029.32 87.8021 1029.16 88.6432 1028.84 89.2578C1028.52 89.8672 1028.05 90.3411 1027.44 90.6797C1026.83 91.0182 1026.16 91.1875 1025.44 91.1875C1024.28 91.1875 1023.34 90.8151 1022.62 90.0703C1021.9 89.3255 1021.55 88.2526 1021.55 86.8516ZM1022.99 86.8516C1022.99 87.9141 1023.22 88.7109 1023.69 89.2422C1024.15 89.7682 1024.73 90.0312 1025.44 90.0312C1026.14 90.0312 1026.72 89.7656 1027.18 89.2344C1027.64 88.7031 1027.88 87.8932 1027.88 86.8047C1027.88 85.7786 1027.64 85.0026 1027.17 84.4766C1026.71 83.9453 1026.13 83.6797 1025.44 83.6797C1024.73 83.6797 1024.15 83.9427 1023.69 84.4688C1023.22 84.9948 1022.99 85.7891 1022.99 86.8516ZM1030.95 91V79.5469H1032.35V91H1030.95Z" fill="#3E3E3D"/>
<g opacity="0.5">
<path d="M579.5 109.5H1159" stroke="#CDCCCB"/>
</g>
</g>
<rect x="0.5" y="0.5" width="1158" height="109" rx="7.5" stroke="#CDCCCB"/>
<defs>
<clipPath id="clip0_304_42101">
<rect width="1159" height="110" rx="8" fill="white"/>
</clipPath>
</defs>
</svg>
