<svg viewBox="0 0 20 20" fill="none" xmlns="http://www.w3.org/2000/svg">
<path d="M10.0002 17.7709C9.80572 17.7709 9.61127 17.7361 9.41683 17.6667C9.22239 17.5972 9.04877 17.4931 8.896 17.3542C7.99322 16.5209 7.19461 15.7084 6.50016 14.9167C5.80572 14.125 5.22586 13.3577 4.76058 12.6146C4.2953 11.8715 3.94114 11.1563 3.69808 10.4688C3.45502 9.78127 3.3335 9.12502 3.3335 8.50002C3.3335 8.05558 3.36822 7.63196 3.43766 7.22919C3.50711 6.82641 3.60433 6.44446 3.72933 6.08335L1.146 3.50002C0.979329 3.33335 0.895996 3.13544 0.895996 2.90627C0.895996 2.6771 0.979329 2.47919 1.146 2.31252C1.31266 2.14585 1.51058 2.06252 1.73975 2.06252C1.96891 2.06252 2.16683 2.14585 2.3335 2.31252L17.6668 17.6459C17.8335 17.8125 17.9168 18.0104 17.9168 18.2396C17.9168 18.4688 17.8335 18.6667 17.6668 18.8334C17.5002 19 17.3022 19.0834 17.0731 19.0834C16.8439 19.0834 16.646 19 16.4793 18.8334L13.0627 15.4167C12.7154 15.7778 12.3682 16.1354 12.021 16.4896C11.6738 16.8438 11.3682 17.132 11.1043 17.3542C10.9516 17.4931 10.7779 17.5972 10.5835 17.6667C10.3891 17.7361 10.1946 17.7709 10.0002 17.7709ZM10.0002 1.66669C11.7641 1.66669 13.3161 2.28474 14.6564 3.52085C15.9967 4.75696 16.6668 6.41669 16.6668 8.50002C16.6668 8.98613 16.5974 9.4896 16.4585 10.0104C16.3196 10.5313 16.1113 11.0695 15.8335 11.625C15.6807 11.9306 15.4342 12.1007 15.0939 12.1354C14.7536 12.1702 14.4654 12.0695 14.2293 11.8334L11.4793 9.08335C11.5488 8.97224 11.5974 8.85419 11.6252 8.72919C11.6529 8.60419 11.6668 8.47224 11.6668 8.33335C11.6668 8.09724 11.6252 7.87849 11.5418 7.6771C11.4585 7.47571 11.3404 7.29863 11.1877 7.14585C11.0349 6.99308 10.8578 6.87502 10.6564 6.79169C10.455 6.70835 10.2363 6.66669 10.0002 6.66669C9.86127 6.66669 9.72933 6.68058 9.60433 6.70835C9.47933 6.73613 9.36127 6.78474 9.25016 6.85419L6.56266 4.16669C6.31266 3.91669 6.20502 3.62155 6.23975 3.28127C6.27447 2.94099 6.43766 2.68058 6.72933 2.50002C7.21544 2.22224 7.73627 2.01391 8.29183 1.87502C8.84739 1.73613 9.41683 1.66669 10.0002 1.66669Z" fill="currentColor"/>
</svg>