<svg viewBox="0 0 20 20" fill="none" xmlns="http://www.w3.org/2000/svg">
<path d="M15.8334 6.66669C15.139 6.66669 14.5487 6.42363 14.0626 5.93752C13.5765 5.45141 13.3334 4.86113 13.3334 4.16669C13.3334 3.47224 13.5765 2.88196 14.0626 2.39585C14.5487 1.90974 15.139 1.66669 15.8334 1.66669C16.5279 1.66669 17.1181 1.90974 17.6042 2.39585C18.0904 2.88196 18.3334 3.47224 18.3334 4.16669C18.3334 4.86113 18.0904 5.45141 17.6042 5.93752C17.1181 6.42363 16.5279 6.66669 15.8334 6.66669ZM3.33341 16.6667C2.87508 16.6667 2.48272 16.5035 2.15633 16.1771C1.82994 15.8507 1.66675 15.4584 1.66675 15V5.00002C1.66675 4.54169 1.82994 4.14933 2.15633 3.82294C2.48272 3.49655 2.87508 3.33335 3.33341 3.33335H10.9167C11.139 3.33335 11.323 3.41669 11.4688 3.58335C11.6147 3.75002 11.6806 3.94446 11.6667 4.16669C11.6667 4.31946 11.6737 4.46183 11.6876 4.59377C11.7015 4.72571 11.7223 4.86113 11.7501 5.00002C11.8473 5.44446 12.007 5.85766 12.2292 6.2396C12.4515 6.62155 12.7223 6.95835 13.0417 7.25002L10.0001 9.16669L4.41675 5.66669C4.18064 5.51391 3.94105 5.50696 3.698 5.64585C3.45494 5.78474 3.33341 5.99308 3.33341 6.27085C3.33341 6.39585 3.36119 6.51044 3.41675 6.6146C3.4723 6.71877 3.55564 6.80558 3.66675 6.87502L9.56258 10.5625C9.70147 10.6459 9.8473 10.6875 10.0001 10.6875C10.1529 10.6875 10.2987 10.6459 10.4376 10.5625L14.3959 8.08335C14.632 8.16669 14.8681 8.22919 15.1042 8.27085C15.3404 8.31252 15.5834 8.33335 15.8334 8.33335C16.0834 8.33335 16.3334 8.31252 16.5834 8.27085C16.8334 8.22919 17.0765 8.15974 17.3126 8.06252C17.5487 7.9653 17.7779 7.97919 18.0001 8.10419C18.2223 8.22919 18.3334 8.40974 18.3334 8.64585V15C18.3334 15.4584 18.1702 15.8507 17.8438 16.1771C17.5174 16.5035 17.1251 16.6667 16.6667 16.6667H3.33341Z" fill="currentColor"/>
</svg>