<svg viewBox="0 0 20 20" fill="none" xmlns="http://www.w3.org/2000/svg">
<path d="M4.16666 15.8334C3.93055 15.8334 3.73263 15.7535 3.57291 15.5938C3.41319 15.434 3.33333 15.2361 3.33333 15C3.33333 14.7639 3.41319 14.566 3.57291 14.4063C3.73263 14.2465 3.93055 14.1667 4.16666 14.1667H4.99999V8.33335C4.99999 7.18058 5.34722 6.15627 6.04166 5.26044C6.73611 4.3646 7.63888 3.7778 8.74999 3.50002V2.91669C8.74999 2.56946 8.87152 2.27433 9.11458 2.03127C9.35763 1.78821 9.65277 1.66669 9.99999 1.66669C10.3472 1.66669 10.6424 1.78821 10.8854 2.03127C11.1285 2.27433 11.25 2.56946 11.25 2.91669V3.50002C12.3611 3.7778 13.2639 4.3646 13.9583 5.26044C14.6528 6.15627 15 7.18058 15 8.33335V14.1667H15.8333C16.0694 14.1667 16.2674 14.2465 16.4271 14.4063C16.5868 14.566 16.6667 14.7639 16.6667 15C16.6667 15.2361 16.5868 15.434 16.4271 15.5938C16.2674 15.7535 16.0694 15.8334 15.8333 15.8334H4.16666ZM9.99999 18.3334C9.54166 18.3334 9.1493 18.1702 8.82291 17.8438C8.49652 17.5174 8.33333 17.125 8.33333 16.6667H11.6667C11.6667 17.125 11.5035 17.5174 11.1771 17.8438C10.8507 18.1702 10.4583 18.3334 9.99999 18.3334Z" fill="currentColor"/>
</svg>