<svg viewBox="0 0 20 20" fill="none" xmlns="http://www.w3.org/2000/svg">
<path d="M9.99998 14.1666C10.4583 14.1666 10.8507 14.0035 11.1771 13.6771C11.5035 13.3507 11.6666 12.9583 11.6666 12.5C11.6666 12.0416 11.5035 11.6493 11.1771 11.3229C10.8507 10.9965 10.4583 10.8333 9.99998 10.8333C9.54165 10.8333 9.14928 10.9965 8.8229 11.3229C8.49651 11.6493 8.33331 12.0416 8.33331 12.5C8.33331 12.9583 8.49651 13.3507 8.8229 13.6771C9.14928 14.0035 9.54165 14.1666 9.99998 14.1666ZM4.99998 18.3333C4.54165 18.3333 4.14929 18.1701 3.8229 17.8437C3.49651 17.5173 3.33331 17.125 3.33331 16.6666V8.33331C3.33331 7.87498 3.49651 7.48262 3.8229 7.15623C4.14929 6.82984 4.54165 6.66665 4.99998 6.66665H10.8333V4.99998C10.8333 3.8472 11.2396 2.86456 12.0521 2.05206C12.8646 1.23956 13.8472 0.833313 15 0.833313C16.0416 0.833313 16.9479 1.17012 17.7187 1.84373C18.4896 2.51734 18.9514 3.3472 19.1041 4.33331C19.1319 4.51387 19.0694 4.67012 18.9166 4.80206C18.7639 4.93401 18.5694 4.99998 18.3333 4.99998C18.0972 4.99998 17.9028 4.95137 17.75 4.85415C17.5972 4.75692 17.4861 4.5972 17.4166 4.37498C17.2639 3.8472 16.9687 3.40276 16.5312 3.04165C16.0937 2.68054 15.5833 2.49998 15 2.49998C14.3055 2.49998 13.7153 2.74304 13.2291 3.22915C12.743 3.71526 12.5 4.30554 12.5 4.99998V6.66665H15C15.4583 6.66665 15.8507 6.82984 16.1771 7.15623C16.5035 7.48262 16.6666 7.87498 16.6666 8.33331V16.6666C16.6666 17.125 16.5035 17.5173 16.1771 17.8437C15.8507 18.1701 15.4583 18.3333 15 18.3333H4.99998Z" fill="currentColor"/>
</svg>