<svg viewBox="0 0 20 20" fill="none" xmlns="http://www.w3.org/2000/svg">
<path d="M10 13.3333C11.0417 13.3333 11.9271 12.9687 12.6562 12.2396C13.3854 11.5104 13.75 10.625 13.75 9.58331C13.75 8.54165 13.3854 7.65623 12.6562 6.92706C11.9271 6.1979 11.0417 5.83331 10 5.83331C8.95833 5.83331 8.07292 6.1979 7.34375 6.92706C6.61458 7.65623 6.25 8.54165 6.25 9.58331C6.25 10.625 6.61458 11.5104 7.34375 12.2396C8.07292 12.9687 8.95833 13.3333 10 13.3333ZM10 11.8333C9.375 11.8333 8.84375 11.6146 8.40625 11.1771C7.96875 10.7396 7.75 10.2083 7.75 9.58331C7.75 8.95831 7.96875 8.42706 8.40625 7.98956C8.84375 7.55206 9.375 7.33331 10 7.33331C10.625 7.33331 11.1562 7.55206 11.5938 7.98956C12.0312 8.42706 12.25 8.95831 12.25 9.58331C12.25 10.2083 12.0312 10.7396 11.5938 11.1771C11.1562 11.6146 10.625 11.8333 10 11.8333ZM10 15.8333C8.13889 15.8333 6.44097 15.3333 4.90625 14.3333C3.37153 13.3333 2.15972 12.0139 1.27083 10.375C1.20139 10.25 1.14931 10.1215 1.11458 9.98956C1.07986 9.85762 1.0625 9.7222 1.0625 9.58331C1.0625 9.44442 1.07986 9.30901 1.11458 9.17706C1.14931 9.04512 1.20139 8.91665 1.27083 8.79165C2.15972 7.15276 3.37153 5.83331 4.90625 4.83331C6.44097 3.83331 8.13889 3.33331 10 3.33331C11.8611 3.33331 13.559 3.83331 15.0938 4.83331C16.6285 5.83331 17.8403 7.15276 18.7292 8.79165C18.7986 8.91665 18.8507 9.04512 18.8854 9.17706C18.9201 9.30901 18.9375 9.44442 18.9375 9.58331C18.9375 9.7222 18.9201 9.85762 18.8854 9.98956C18.8507 10.1215 18.7986 10.25 18.7292 10.375C17.8403 12.0139 16.6285 13.3333 15.0938 14.3333C13.559 15.3333 11.8611 15.8333 10 15.8333Z" fill="currentColor"/>
</svg>