<svg viewBox="0 0 20 20" fill="none" xmlns="http://www.w3.org/2000/svg">
<path d="M15.8334 5C15.139 5 14.5487 4.75694 14.0626 4.27083C13.5765 3.78472 13.3334 3.19444 13.3334 2.5C13.3334 1.80556 13.5765 1.21528 14.0626 0.729167C14.5487 0.243056 15.139 0 15.8334 0C16.5279 0 17.1181 0.243056 17.6042 0.729167C18.0904 1.21528 18.3334 1.80556 18.3334 2.5C18.3334 3.19444 18.0904 3.78472 17.6042 4.27083C17.1181 4.75694 16.5279 5 15.8334 5ZM5.00008 15L3.08341 16.9167C2.81953 17.1806 2.51744 17.2396 2.17716 17.0937C1.83689 16.9479 1.66675 16.6875 1.66675 16.3125V3.33333C1.66675 2.875 1.82994 2.48264 2.15633 2.15625C2.48272 1.82986 2.87508 1.66667 3.33341 1.66667H10.9167C11.139 1.66667 11.323 1.75 11.4688 1.91667C11.6147 2.08333 11.6806 2.27778 11.6667 2.5C11.6667 3.125 11.8022 3.71528 12.073 4.27083C12.3438 4.82639 12.7223 5.30556 13.2084 5.70833C13.5695 6 13.9758 6.23264 14.4272 6.40625C14.8786 6.57986 15.3473 6.66667 15.8334 6.66667C16.0834 6.66667 16.3334 6.64583 16.5834 6.60417C16.8334 6.5625 17.0765 6.49306 17.3126 6.39583C17.5487 6.29861 17.7779 6.3125 18.0001 6.4375C18.2223 6.5625 18.3334 6.74306 18.3334 6.97917V13.3333C18.3334 13.7917 18.1702 14.184 17.8438 14.5104C17.5174 14.8368 17.1251 15 16.6667 15H5.00008Z" fill="currentColor"/>
</svg>