<svg viewBox="0 0 20 20" fill="none" xmlns="http://www.w3.org/2000/svg">
<path d="M8.33317 15.8333V14.1667H3.33317C2.87484 14.1667 2.48248 14.0035 2.15609 13.6771C1.8297 13.3507 1.6665 12.9583 1.6665 12.5V4.16667C1.6665 3.70833 1.8297 3.31597 2.15609 2.98958C2.48248 2.66319 2.87484 2.5 3.33317 2.5H16.6665C17.1248 2.5 17.5172 2.66319 17.8436 2.98958C18.17 3.31597 18.3332 3.70833 18.3332 4.16667V12.5C18.3332 12.9583 18.17 13.3507 17.8436 13.6771C17.5172 14.0035 17.1248 14.1667 16.6665 14.1667H11.6665V15.8333H12.4998C12.7359 15.8333 12.9339 15.9132 13.0936 16.0729C13.2533 16.2326 13.3332 16.4306 13.3332 16.6667C13.3332 16.9028 13.2533 17.1007 13.0936 17.2604C12.9339 17.4201 12.7359 17.5 12.4998 17.5H7.49984C7.26373 17.5 7.06581 17.4201 6.90609 17.2604C6.74636 17.1007 6.6665 16.9028 6.6665 16.6667C6.6665 16.4306 6.74636 16.2326 6.90609 16.0729C7.06581 15.9132 7.26373 15.8333 7.49984 15.8333H8.33317ZM3.33317 12.5H16.6665V4.16667H3.33317V12.5Z" fill="currentColor"/>
</svg>