<svg viewBox="0 0 20 20" fill="none" xmlns="http://www.w3.org/2000/svg">
<path d="M9.125 13.3333L12.4375 10.25C12.5903 10.1111 12.6319 9.95139 12.5625 9.77083C12.4931 9.59028 12.3611 9.49306 12.1667 9.47917L9.64583 9.33333L11.375 7.125C11.4306 7.05556 11.4549 6.97917 11.4479 6.89583C11.441 6.8125 11.4028 6.74306 11.3333 6.6875C11.2639 6.61806 11.1875 6.57986 11.1042 6.57292C11.0208 6.56597 10.9444 6.59722 10.875 6.66667L7.5625 9.75C7.40972 9.88889 7.37153 10.0486 7.44792 10.2292C7.52431 10.4097 7.65972 10.5069 7.85417 10.5208L10.3542 10.6667L8.625 12.875C8.56944 12.9444 8.54514 13.0174 8.55208 13.0938C8.55903 13.1701 8.59722 13.2431 8.66667 13.3125C8.73611 13.3819 8.8125 13.4201 8.89583 13.4271C8.97917 13.434 9.05556 13.4028 9.125 13.3333ZM10 16C9.29167 16 8.62847 15.8924 8.01042 15.6771C7.39236 15.4618 6.82639 15.1528 6.3125 14.75L5.27083 15.7708C5.20139 15.8403 5.12153 15.8958 5.03125 15.9375C4.94097 15.9792 4.84722 16 4.75 16C4.54167 16 4.36458 15.9271 4.21875 15.7812C4.07292 15.6354 4 15.4583 4 15.25C4 15.1528 4.02083 15.0556 4.0625 14.9583C4.10417 14.8611 4.15972 14.7778 4.22917 14.7083L5.25 13.6875C4.84722 13.1736 4.53819 12.6076 4.32292 11.9896C4.10764 11.3715 4 10.7083 4 10C4 8.33333 4.58333 6.91667 5.75 5.75C6.91667 4.58333 8.33333 4 10 4H16V10C16 11.6667 15.4167 13.0833 14.25 14.25C13.0833 15.4167 11.6667 16 10 16Z" fill="currentColor"/>
</svg>
