<svg viewBox="0 0 20 20" fill="none" xmlns="http://www.w3.org/2000/svg">
<path d="M6.96883 10.7844C6.823 10.6406 6.75008 10.4625 6.75008 10.25V4.875L5.08341 6.54167C4.93064 6.69444 4.75237 6.77083 4.54862 6.77083C4.34501 6.77083 4.16911 6.69444 4.02091 6.54167C3.86814 6.39347 3.79175 6.21757 3.79175 6.01396C3.79175 5.81021 3.86814 5.63194 4.02091 5.47917L6.97925 2.52083C7.05425 2.45139 7.1355 2.39931 7.223 2.36458C7.3105 2.32986 7.40425 2.3125 7.50425 2.3125C7.60425 2.3125 7.698 2.32986 7.7855 2.36458C7.873 2.39931 7.95147 2.45139 8.02092 2.52083L10.9792 5.47917C11.132 5.63194 11.2084 5.80556 11.2084 6C11.2084 6.19444 11.132 6.37139 10.9792 6.53083C10.8265 6.67694 10.6494 6.75 10.448 6.75C10.2466 6.75 10.0695 6.67361 9.91675 6.52083L8.25008 4.875V10.25C8.25008 10.4625 8.17862 10.6406 8.03571 10.7844C7.89279 10.9281 7.71571 11 7.50446 11C7.29321 11 7.11466 10.9281 6.96883 10.7844ZM12.2147 17.6354C12.1272 17.6007 12.0487 17.5486 11.9792 17.4792L9.02092 14.5208C8.86814 14.3693 8.79522 14.1926 8.80217 13.9906C8.80911 13.7885 8.88897 13.6078 9.04175 13.4483C9.19453 13.3022 9.37161 13.2292 9.573 13.2292C9.77439 13.2292 9.95147 13.3056 10.1042 13.4583L11.7501 15.125V9.75C11.7501 9.5375 11.8215 9.35937 11.9645 9.21562C12.1074 9.07187 12.2845 9 12.4957 9C12.707 9 12.8855 9.07187 13.0313 9.21562C13.1772 9.35937 13.2501 9.5375 13.2501 9.75V15.125L14.9167 13.4583C15.0695 13.3056 15.2478 13.2292 15.4515 13.2292C15.6552 13.2292 15.8311 13.3056 15.9792 13.4583C16.132 13.6065 16.2084 13.7824 16.2084 13.986C16.2084 14.1898 16.132 14.3681 15.9792 14.5208L13.0209 17.4792C12.9459 17.5486 12.8647 17.6007 12.7772 17.6354C12.6897 17.6701 12.5959 17.6875 12.4959 17.6875C12.3959 17.6875 12.3022 17.6701 12.2147 17.6354Z" fill="currentColor"/>
</svg>
