<svg viewBox="0 0 20 20" fill="none" xmlns="http://www.w3.org/2000/svg">
<path d="M5.41683 16.6667C4.15294 16.6667 3.07308 16.2292 2.17725 15.3542C1.28141 14.4792 0.833496 13.4098 0.833496 12.1459C0.833496 11.0625 1.15988 10.0973 1.81266 9.25004C2.46544 8.40282 3.31961 7.86115 4.37516 7.62504C4.72239 6.34726 5.41683 5.31254 6.4585 4.52087C7.50016 3.72921 8.68072 3.33337 10.0002 3.33337C11.6252 3.33337 13.0036 3.89935 14.1356 5.03129C15.2675 6.16324 15.8335 7.54171 15.8335 9.16671C16.7918 9.27782 17.587 9.69101 18.2189 10.4063C18.8509 11.1216 19.1668 11.9584 19.1668 12.9167C19.1668 13.9584 18.8022 14.8438 18.0731 15.573C17.3439 16.3021 16.4585 16.6667 15.4168 16.6667H10.8335V10.7084L11.5835 11.4375C11.7363 11.5903 11.9272 11.6667 12.1564 11.6667C12.3856 11.6667 12.5835 11.5834 12.7502 11.4167C12.9029 11.2639 12.9793 11.0695 12.9793 10.8334C12.9793 10.5973 12.9029 10.4028 12.7502 10.25L10.5835 8.08337C10.4168 7.91671 10.2224 7.83337 10.0002 7.83337C9.77794 7.83337 9.5835 7.91671 9.41683 8.08337L7.25016 10.25C7.09738 10.4028 7.01752 10.5938 7.01058 10.823C7.00363 11.0521 7.0835 11.25 7.25016 11.4167C7.40294 11.5695 7.59391 11.6493 7.82308 11.6563C8.05225 11.6632 8.25016 11.5903 8.41683 11.4375L9.16683 10.7084V16.6667H5.41683Z" fill="currentColor"/>
</svg>