<svg width="1159" height="257" viewBox="0 0 1159 257" fill="none" xmlns="http://www.w3.org/2000/svg">
<g clip-path="url(#clip0_151_8100)">
<rect width="579.5" height="61" fill="white"/>
<path d="M18.62 37.14C18.3133 37.14 18.0733 37.0533 17.9 36.88C17.7267 36.7067 17.64 36.46 17.64 36.14V23.8C17.64 23.4667 17.72 23.2133 17.88 23.04C18.0533 22.8533 18.28 22.76 18.56 22.76C18.8 22.76 18.98 22.8067 19.1 22.9C19.2333 22.98 19.3867 23.1333 19.56 23.36L27.8 34.22H27.3V23.74C27.3 23.4333 27.38 23.1933 27.54 23.02C27.7133 22.8467 27.9533 22.76 28.26 22.76C28.58 22.76 28.82 22.8467 28.98 23.02C29.14 23.1933 29.22 23.4333 29.22 23.74V36.16C29.22 36.4667 29.14 36.7067 28.98 36.88C28.8333 37.0533 28.6333 37.14 28.38 37.14C28.14 37.14 27.94 37.0933 27.78 37C27.6333 36.9067 27.4733 36.7467 27.3 36.52L19.1 25.68H19.56V36.14C19.56 36.46 19.48 36.7067 19.32 36.88C19.16 37.0533 18.9267 37.14 18.62 37.14ZM36.0233 37.18C35.0366 37.18 34.1833 36.9733 33.4633 36.56C32.7566 36.1467 32.2033 35.56 31.8033 34.8C31.4033 34.04 31.2033 33.1467 31.2033 32.12C31.2033 31.3333 31.3166 30.6333 31.5433 30.02C31.7699 29.4067 32.0899 28.88 32.5033 28.44C32.9299 27.9867 33.4366 27.6467 34.0233 27.42C34.6233 27.18 35.2899 27.06 36.0233 27.06C36.9966 27.06 37.8366 27.2667 38.5433 27.68C39.2633 28.0933 39.8233 28.68 40.2233 29.44C40.6233 30.1867 40.8233 31.08 40.8233 32.12C40.8233 32.8933 40.7099 33.5933 40.4833 34.22C40.2566 34.8467 39.9299 35.38 39.5033 35.82C39.0899 36.26 38.5833 36.6 37.9833 36.84C37.3966 37.0667 36.7433 37.18 36.0233 37.18ZM36.0233 35.62C36.5699 35.62 37.0499 35.4867 37.4633 35.22C37.8766 34.9533 38.1966 34.56 38.4233 34.04C38.6633 33.52 38.7833 32.88 38.7833 32.12C38.7833 30.9733 38.5299 30.1067 38.0233 29.52C37.5166 28.9333 36.8499 28.64 36.0233 28.64C35.4633 28.64 34.9766 28.7733 34.5633 29.04C34.1499 29.2933 33.8233 29.68 33.5833 30.2C33.3566 30.72 33.2433 31.36 33.2433 32.12C33.2433 33.2533 33.4966 34.12 34.0033 34.72C34.5099 35.32 35.1833 35.62 36.0233 35.62ZM43.6319 37.14C43.3119 37.14 43.0652 37.0533 42.8919 36.88C42.7185 36.6933 42.6319 36.44 42.6319 36.12V28.12C42.6319 27.7867 42.7185 27.5333 42.8919 27.36C43.0652 27.1867 43.3052 27.1 43.6119 27.1C43.9319 27.1 44.1719 27.1867 44.3319 27.36C44.5052 27.5333 44.5919 27.7867 44.5919 28.12V29.76L44.3719 29.32C44.6385 28.6133 45.0519 28.06 45.6119 27.66C46.1719 27.26 46.8452 27.06 47.6319 27.06C48.4452 27.06 49.1052 27.2533 49.6119 27.64C50.1185 28.0267 50.4652 28.62 50.6519 29.42H50.3719C50.6252 28.6867 51.0585 28.1133 51.6719 27.7C52.2852 27.2733 52.9985 27.06 53.8119 27.06C54.5585 27.06 55.1719 27.2067 55.6519 27.5C56.1319 27.78 56.4919 28.2133 56.7319 28.8C56.9719 29.3733 57.0919 30.1 57.0919 30.98V36.12C57.0919 36.44 56.9985 36.6933 56.8119 36.88C56.6385 37.0533 56.3919 37.14 56.0719 37.14C55.7519 37.14 55.5052 37.0533 55.3319 36.88C55.1585 36.6933 55.0719 36.44 55.0719 36.12V31.08C55.0719 30.2533 54.9252 29.6467 54.6319 29.26C54.3519 28.8733 53.8852 28.68 53.2319 28.68C52.4985 28.68 51.9185 28.9333 51.4919 29.44C51.0652 29.9467 50.8519 30.6467 50.8519 31.54V36.12C50.8519 36.44 50.7652 36.6933 50.5919 36.88C50.4185 37.0533 50.1719 37.14 49.8519 37.14C49.5319 37.14 49.2785 37.0533 49.0919 36.88C48.9185 36.6933 48.8319 36.44 48.8319 36.12V31.08C48.8319 30.2533 48.6919 29.6467 48.4119 29.26C48.1319 28.8733 47.6652 28.68 47.0119 28.68C46.2785 28.68 45.6985 28.9333 45.2719 29.44C44.8585 29.9467 44.6519 30.6467 44.6519 31.54V36.12C44.6519 36.8 44.3119 37.14 43.6319 37.14Z" fill="#201F1F"/>
<path d="M0 60.5H579.5" stroke="#CDCCCB"/>
<rect width="579.5" height="49" transform="translate(0 61)" fill="white"/>
<path d="M16.0703 91L20.5 85.0312L16.5938 79.5469H18.3984L20.4766 82.4844C20.9089 83.0938 21.2161 83.5625 21.3984 83.8906C21.6536 83.474 21.9557 83.0391 22.3047 82.5859L24.6094 79.5469H26.2578L22.2344 84.9453L26.5703 91H24.6953L21.8125 86.9141C21.651 86.6797 21.4844 86.4245 21.3125 86.1484C21.0573 86.5651 20.875 86.8516 20.7656 87.0078L17.8906 91H16.0703ZM27.3906 87.3203L28.8203 87.1953C28.888 87.7682 29.0443 88.2396 29.2891 88.6094C29.5391 88.974 29.9245 89.2708 30.4453 89.5C30.9661 89.724 31.5521 89.8359 32.2031 89.8359C32.7812 89.8359 33.2917 89.75 33.7344 89.5781C34.1771 89.4062 34.5052 89.1719 34.7188 88.875C34.9375 88.5729 35.0469 88.2448 35.0469 87.8906C35.0469 87.5312 34.9427 87.2188 34.7344 86.9531C34.526 86.6823 34.1823 86.4557 33.7031 86.2734C33.3958 86.1536 32.7161 85.9688 31.6641 85.7188C30.612 85.4635 29.875 85.224 29.4531 85C28.9062 84.7135 28.4974 84.3594 28.2266 83.9375C27.9609 83.5104 27.8281 83.0339 27.8281 82.5078C27.8281 81.9297 27.9922 81.3906 28.3203 80.8906C28.6484 80.3854 29.1276 80.0026 29.7578 79.7422C30.388 79.4818 31.0885 79.3516 31.8594 79.3516C32.7083 79.3516 33.4557 79.4896 34.1016 79.7656C34.7526 80.0365 35.2526 80.4375 35.6016 80.9688C35.9505 81.5 36.138 82.1016 36.1641 82.7734L34.7109 82.8828C34.6328 82.1589 34.3672 81.612 33.9141 81.2422C33.4661 80.8724 32.8021 80.6875 31.9219 80.6875C31.0052 80.6875 30.3359 80.8568 29.9141 81.1953C29.4974 81.5286 29.2891 81.9323 29.2891 82.4062C29.2891 82.8177 29.4375 83.1562 29.7344 83.4219C30.026 83.6875 30.7865 83.9609 32.0156 84.2422C33.25 84.5182 34.0964 84.7604 34.5547 84.9688C35.2214 85.276 35.7135 85.6667 36.0312 86.1406C36.349 86.6094 36.5078 87.151 36.5078 87.7656C36.5078 88.375 36.3333 88.9505 35.9844 89.4922C35.6354 90.0286 35.1328 90.4479 34.4766 90.75C33.8255 91.0469 33.0911 91.1953 32.2734 91.1953C31.237 91.1953 30.3672 91.0443 29.6641 90.7422C28.9661 90.4401 28.4167 89.987 28.0156 89.3828C27.6198 88.7734 27.4115 88.0859 27.3906 87.3203Z" fill="#3E3E3D"/>
<g opacity="0.5">
<path d="M0 109.5H579.5" stroke="#CDCCCB"/>
</g>
<rect width="579.5" height="49" transform="translate(0 110)" fill="white"/>
<path d="M16.7188 136.32L18.1484 136.195C18.2161 136.768 18.3724 137.24 18.6172 137.609C18.8672 137.974 19.2526 138.271 19.7734 138.5C20.2943 138.724 20.8802 138.836 21.5312 138.836C22.1094 138.836 22.6198 138.75 23.0625 138.578C23.5052 138.406 23.8333 138.172 24.0469 137.875C24.2656 137.573 24.375 137.245 24.375 136.891C24.375 136.531 24.2708 136.219 24.0625 135.953C23.8542 135.682 23.5104 135.456 23.0312 135.273C22.724 135.154 22.0443 134.969 20.9922 134.719C19.9401 134.464 19.2031 134.224 18.7812 134C18.2344 133.714 17.8255 133.359 17.5547 132.938C17.2891 132.51 17.1562 132.034 17.1562 131.508C17.1562 130.93 17.3203 130.391 17.6484 129.891C17.9766 129.385 18.4557 129.003 19.0859 128.742C19.7161 128.482 20.4167 128.352 21.1875 128.352C22.0365 128.352 22.7839 128.49 23.4297 128.766C24.0807 129.036 24.5807 129.438 24.9297 129.969C25.2786 130.5 25.4661 131.102 25.4922 131.773L24.0391 131.883C23.9609 131.159 23.6953 130.612 23.2422 130.242C22.7943 129.872 22.1302 129.688 21.25 129.688C20.3333 129.688 19.6641 129.857 19.2422 130.195C18.8255 130.529 18.6172 130.932 18.6172 131.406C18.6172 131.818 18.7656 132.156 19.0625 132.422C19.3542 132.688 20.1146 132.961 21.3438 133.242C22.5781 133.518 23.4245 133.76 23.8828 133.969C24.5495 134.276 25.0417 134.667 25.3594 135.141C25.6771 135.609 25.8359 136.151 25.8359 136.766C25.8359 137.375 25.6615 137.951 25.3125 138.492C24.9635 139.029 24.4609 139.448 23.8047 139.75C23.1536 140.047 22.4193 140.195 21.6016 140.195C20.5651 140.195 19.6953 140.044 18.9922 139.742C18.2943 139.44 17.7448 138.987 17.3438 138.383C16.9479 137.773 16.7396 137.086 16.7188 136.32Z" fill="#3E3E3D"/>
<g opacity="0.5">
<path d="M0 158.5H579.5" stroke="#CDCCCB"/>
</g>
<rect width="579.5" height="49" transform="translate(0 159)" fill="white"/>
<path d="M17.1875 189V177.547H19.4688L22.1797 185.656C22.4297 186.411 22.612 186.977 22.7266 187.352C22.8568 186.935 23.0599 186.323 23.3359 185.516L26.0781 177.547H28.1172V189H26.6562V179.414L23.3281 189H21.9609L18.6484 179.25V189H17.1875Z" fill="#3E3E3D"/>
<g opacity="0.5">
<path d="M0 207.5H579.5" stroke="#CDCCCB"/>
</g>
<rect width="579.5" height="49" transform="translate(0 208)" fill="white"/>
<path d="M17.1719 238V226.547H18.6875V236.648H24.3281V238H17.1719Z" fill="#3E3E3D"/>
<g opacity="0.5">
<path d="M0 256.5H579.5" stroke="#CDCCCB"/>
</g>
<rect width="579.5" height="61" transform="translate(579.5)" fill="white"/>
<path d="M601.62 37.14C601.287 37.14 601.027 37.0467 600.84 36.86C600.667 36.6733 600.58 36.4133 600.58 36.08V24.64H596.34C596.06 24.64 595.84 24.5667 595.68 24.42C595.52 24.26 595.44 24.04 595.44 23.76C595.44 23.48 595.52 23.2667 595.68 23.12C595.84 22.9733 596.06 22.9 596.34 22.9H606.88C607.173 22.9 607.4 22.9733 607.56 23.12C607.72 23.2667 607.8 23.48 607.8 23.76C607.8 24.04 607.72 24.26 607.56 24.42C607.4 24.5667 607.173 24.64 606.88 24.64H602.64V36.08C602.64 36.4133 602.553 36.6733 602.38 36.86C602.22 37.0467 601.967 37.14 601.62 37.14ZM610.224 37.18C609.544 37.18 608.93 37.0467 608.384 36.78C607.85 36.5133 607.43 36.1533 607.124 35.7C606.817 35.2467 606.664 34.7333 606.664 34.16C606.664 33.44 606.844 32.8733 607.204 32.46C607.577 32.0333 608.184 31.7333 609.024 31.56C609.877 31.3733 611.024 31.28 612.464 31.28H613.404V32.52H612.484C611.524 32.52 610.764 32.5667 610.204 32.66C609.644 32.7533 609.244 32.9133 609.004 33.14C608.777 33.3533 608.664 33.6533 608.664 34.04C608.664 34.5467 608.837 34.96 609.184 35.28C609.53 35.5867 610.01 35.74 610.624 35.74C611.117 35.74 611.55 35.6267 611.924 35.4C612.297 35.16 612.59 34.84 612.804 34.44C613.03 34.04 613.144 33.58 613.144 33.06V30.76C613.144 30 612.984 29.4533 612.664 29.12C612.344 28.7867 611.817 28.62 611.084 28.62C610.657 28.62 610.21 28.6733 609.744 28.78C609.29 28.8867 608.817 29.0667 608.324 29.32C608.097 29.4267 607.904 29.46 607.744 29.42C607.584 29.38 607.457 29.2933 607.364 29.16C607.27 29.0133 607.217 28.86 607.204 28.7C607.204 28.5267 607.244 28.36 607.324 28.2C607.417 28.04 607.57 27.92 607.784 27.84C608.37 27.56 608.95 27.36 609.524 27.24C610.097 27.12 610.637 27.06 611.144 27.06C612.037 27.06 612.77 27.2 613.344 27.48C613.93 27.76 614.364 28.1867 614.644 28.76C614.924 29.3333 615.064 30.0733 615.064 30.98V36.12C615.064 36.44 614.984 36.6933 614.824 36.88C614.664 37.0533 614.43 37.14 614.124 37.14C613.83 37.14 613.597 37.0533 613.424 36.88C613.25 36.6933 613.164 36.44 613.164 36.12V34.82H613.344C613.237 35.3133 613.037 35.74 612.744 36.1C612.464 36.4467 612.11 36.7133 611.684 36.9C611.257 37.0867 610.77 37.18 610.224 37.18ZM618.346 37.12C618.026 37.12 617.779 37.0267 617.606 36.84C617.432 36.64 617.346 36.3667 617.346 36.02V28.22C617.346 27.8733 617.432 27.6067 617.606 27.42C617.779 27.2333 618.026 27.14 618.346 27.14C618.666 27.14 618.912 27.2333 619.086 27.42C619.272 27.6067 619.366 27.8733 619.366 28.22V36.02C619.366 36.3667 619.279 36.64 619.106 36.84C618.932 37.0267 618.679 37.12 618.346 37.12ZM618.346 25.06C617.946 25.06 617.632 24.96 617.406 24.76C617.192 24.56 617.086 24.28 617.086 23.92C617.086 23.5467 617.192 23.2667 617.406 23.08C617.632 22.88 617.946 22.78 618.346 22.78C618.746 22.78 619.052 22.88 619.266 23.08C619.492 23.2667 619.606 23.5467 619.606 23.92C619.606 24.28 619.492 24.56 619.266 24.76C619.052 24.96 618.746 25.06 618.346 25.06ZM624.849 37.18C623.809 37.18 623.022 36.88 622.489 36.28C621.969 35.6667 621.709 34.7867 621.709 33.64V23.78C621.709 23.4467 621.796 23.1933 621.969 23.02C622.142 22.8467 622.389 22.76 622.709 22.76C623.029 22.76 623.276 22.8467 623.449 23.02C623.636 23.1933 623.729 23.4467 623.729 23.78V33.52C623.729 34.1867 623.862 34.6867 624.129 35.02C624.409 35.34 624.809 35.5 625.329 35.5C625.449 35.5 625.556 35.5 625.649 35.5C625.742 35.4867 625.836 35.4733 625.929 35.46C626.089 35.4467 626.202 35.4933 626.269 35.6C626.336 35.6933 626.369 35.8933 626.369 36.2C626.369 36.48 626.309 36.7 626.189 36.86C626.069 37.0067 625.876 37.1 625.609 37.14C625.489 37.1533 625.362 37.16 625.229 37.16C625.096 37.1733 624.969 37.18 624.849 37.18ZM630.462 37.18C629.422 37.18 628.636 36.88 628.102 36.28C627.582 35.6667 627.322 34.7867 627.322 33.64V23.78C627.322 23.4467 627.409 23.1933 627.582 23.02C627.756 22.8467 628.002 22.76 628.322 22.76C628.642 22.76 628.889 22.8467 629.062 23.02C629.249 23.1933 629.342 23.4467 629.342 23.78V33.52C629.342 34.1867 629.476 34.6867 629.742 35.02C630.022 35.34 630.422 35.5 630.942 35.5C631.062 35.5 631.169 35.5 631.262 35.5C631.356 35.4867 631.449 35.4733 631.542 35.46C631.702 35.4467 631.816 35.4933 631.882 35.6C631.949 35.6933 631.982 35.8933 631.982 36.2C631.982 36.48 631.922 36.7 631.802 36.86C631.682 37.0067 631.489 37.1 631.222 37.14C631.102 37.1533 630.976 37.16 630.842 37.16C630.709 37.1733 630.582 37.18 630.462 37.18ZM637.418 37.18C636.351 37.18 635.431 36.98 634.658 36.58C633.898 36.1667 633.305 35.5867 632.878 34.84C632.465 34.08 632.258 33.18 632.258 32.14C632.258 31.1267 632.465 30.24 632.878 29.48C633.291 28.72 633.858 28.1267 634.578 27.7C635.298 27.2733 636.118 27.06 637.038 27.06C637.718 27.06 638.325 27.1733 638.858 27.4C639.391 27.6133 639.845 27.9333 640.218 28.36C640.605 28.7733 640.891 29.28 641.078 29.88C641.278 30.48 641.378 31.1533 641.378 31.9C641.378 32.1267 641.311 32.3 641.178 32.42C641.045 32.5267 640.845 32.58 640.578 32.58H633.858V31.34H640.018L639.678 31.62C639.678 30.9533 639.578 30.3867 639.378 29.92C639.191 29.4533 638.905 29.1 638.518 28.86C638.145 28.6067 637.678 28.48 637.118 28.48C636.491 28.48 635.958 28.6267 635.518 28.92C635.091 29.2133 634.765 29.62 634.538 30.14C634.311 30.66 634.198 31.2667 634.198 31.96V32.08C634.198 33.2533 634.471 34.14 635.018 34.74C635.578 35.3267 636.385 35.62 637.438 35.62C637.838 35.62 638.258 35.5667 638.698 35.46C639.151 35.3533 639.578 35.1733 639.978 34.92C640.205 34.7867 640.405 34.7267 640.578 34.74C640.765 34.7533 640.911 34.8133 641.018 34.92C641.138 35.0267 641.211 35.16 641.238 35.32C641.265 35.48 641.238 35.6467 641.158 35.82C641.078 35.98 640.938 36.1267 640.738 36.26C640.285 36.5667 639.758 36.8 639.158 36.96C638.558 37.1067 637.978 37.18 637.418 37.18Z" fill="#201F1F"/>
<path d="M579.5 60.5H1159" stroke="#CDCCCB"/>
<rect width="579.5" height="49" transform="translate(579.5 61)" fill="white"/>
<path d="M601.461 91H600.055V82.0391C599.716 82.362 599.271 82.6849 598.719 83.0078C598.172 83.3307 597.68 83.5729 597.242 83.7344V82.375C598.029 82.0052 598.716 81.5573 599.305 81.0312C599.893 80.5052 600.31 79.9948 600.555 79.5H601.461V91Z" fill="#3E3E3D"/>
<g opacity="0.5">
<path d="M579.5 109.5H1159" stroke="#CDCCCB"/>
</g>
<rect width="579.5" height="49" transform="translate(579.5 110)" fill="white"/>
<path d="M603.555 138.648V140H595.984C595.974 139.661 596.029 139.336 596.148 139.023C596.341 138.508 596.648 138 597.07 137.5C597.497 137 598.112 136.422 598.914 135.766C600.159 134.745 601 133.938 601.438 133.344C601.875 132.745 602.094 132.18 602.094 131.648C602.094 131.091 601.893 130.622 601.492 130.242C601.096 129.857 600.578 129.664 599.938 129.664C599.26 129.664 598.719 129.867 598.312 130.273C597.906 130.68 597.701 131.242 597.695 131.961L596.25 131.812C596.349 130.734 596.721 129.914 597.367 129.352C598.013 128.784 598.88 128.5 599.969 128.5C601.068 128.5 601.938 128.805 602.578 129.414C603.219 130.023 603.539 130.779 603.539 131.68C603.539 132.138 603.445 132.589 603.258 133.031C603.07 133.474 602.758 133.94 602.32 134.43C601.888 134.919 601.167 135.591 600.156 136.445C599.312 137.154 598.771 137.635 598.531 137.891C598.292 138.141 598.094 138.393 597.938 138.648H603.555Z" fill="#3E3E3D"/>
<g opacity="0.5">
<path d="M579.5 158.5H1159" stroke="#CDCCCB"/>
</g>
<rect width="579.5" height="49" transform="translate(579.5 159)" fill="white"/>
<path d="M600.672 189V186.258H595.703V184.969L600.93 177.547H602.078V184.969H603.625V186.258H602.078V189H600.672ZM600.672 184.969V179.805L597.086 184.969H600.672Z" fill="#3E3E3D"/>
<g opacity="0.5">
<path d="M579.5 207.5H1159" stroke="#CDCCCB"/>
</g>
<rect width="579.5" height="49" transform="translate(579.5 208)" fill="white"/>
<path d="M598.328 231.789C597.745 231.576 597.312 231.271 597.031 230.875C596.75 230.479 596.609 230.005 596.609 229.453C596.609 228.62 596.909 227.919 597.508 227.352C598.107 226.784 598.904 226.5 599.898 226.5C600.898 226.5 601.703 226.792 602.312 227.375C602.922 227.953 603.227 228.659 603.227 229.492C603.227 230.023 603.086 230.487 602.805 230.883C602.529 231.273 602.107 231.576 601.539 231.789C602.242 232.018 602.776 232.388 603.141 232.898C603.51 233.409 603.695 234.018 603.695 234.727C603.695 235.706 603.349 236.529 602.656 237.195C601.964 237.862 601.052 238.195 599.922 238.195C598.792 238.195 597.88 237.862 597.188 237.195C596.495 236.523 596.148 235.688 596.148 234.688C596.148 233.943 596.336 233.32 596.711 232.82C597.091 232.315 597.63 231.971 598.328 231.789ZM598.047 229.406C598.047 229.948 598.221 230.391 598.57 230.734C598.919 231.078 599.372 231.25 599.93 231.25C600.471 231.25 600.914 231.081 601.258 230.742C601.607 230.398 601.781 229.979 601.781 229.484C601.781 228.969 601.602 228.536 601.242 228.188C600.888 227.833 600.445 227.656 599.914 227.656C599.378 227.656 598.932 227.828 598.578 228.172C598.224 228.516 598.047 228.927 598.047 229.406ZM597.594 234.695C597.594 235.096 597.688 235.484 597.875 235.859C598.068 236.234 598.352 236.526 598.727 236.734C599.102 236.938 599.505 237.039 599.938 237.039C600.609 237.039 601.164 236.823 601.602 236.391C602.039 235.958 602.258 235.409 602.258 234.742C602.258 234.065 602.031 233.505 601.578 233.062C601.13 232.62 600.568 232.398 599.891 232.398C599.229 232.398 598.68 232.617 598.242 233.055C597.81 233.492 597.594 234.039 597.594 234.695Z" fill="#3E3E3D"/>
<g opacity="0.5">
<path d="M579.5 256.5H1159" stroke="#CDCCCB"/>
</g>
</g>
<rect x="0.5" y="0.5" width="1158" height="256" rx="7.5" stroke="#CDCCCB"/>
<defs>
<clipPath id="clip0_151_8100">
<rect width="1159" height="257" rx="8" fill="white"/>
</clipPath>
</defs>
</svg>
