<svg viewBox="0 0 20 20" fill="none" xmlns="http://www.w3.org/2000/svg">
<path d="M9.16683 10.125V5.08329C8.11127 5.27774 7.29183 5.78815 6.7085 6.61454C6.12516 7.44093 5.8335 8.29163 5.8335 9.16663H5.41683C4.61127 9.16663 3.92377 9.45135 3.35433 10.0208C2.78489 10.5902 2.50016 11.2777 2.50016 12.0833C2.50016 12.8888 2.78489 13.5763 3.35433 14.1458C3.92377 14.7152 4.61127 15 5.41683 15H15.4168C16.0002 15 16.4932 14.7986 16.896 14.3958C17.2988 13.993 17.5002 13.5 17.5002 12.9166C17.5002 12.3333 17.2988 11.8402 16.896 11.4375C16.4932 11.0347 16.0002 10.8333 15.4168 10.8333H14.1668V9.16663C14.1668 8.49996 14.0141 7.87843 13.7085 7.30204C13.4029 6.72565 13.0002 6.23607 12.5002 5.83329V3.89579C13.5279 4.3819 14.3404 5.10065 14.9377 6.05204C15.5349 7.00343 15.8335 8.04163 15.8335 9.16663C16.7918 9.27774 17.587 9.69093 18.2189 10.4062C18.8509 11.1215 19.1668 11.9583 19.1668 12.9166C19.1668 13.9583 18.8022 14.8437 18.0731 15.5729C17.3439 16.302 16.4585 16.6666 15.4168 16.6666H5.41683C4.15294 16.6666 3.07308 16.2291 2.17725 15.3541C1.28141 14.4791 0.833496 13.4097 0.833496 12.1458C0.833496 11.0625 1.15988 10.0972 1.81266 9.24996C2.46544 8.40274 3.31961 7.86107 4.37516 7.62496C4.61127 6.62496 5.20155 5.67357 6.146 4.77079C7.09044 3.86801 8.09739 3.41663 9.16683 3.41663C9.62516 3.41663 10.0175 3.57982 10.3439 3.90621C10.6703 4.2326 10.8335 4.62496 10.8335 5.08329V10.125L11.5835 9.39579C11.7363 9.24301 11.9272 9.16663 12.1564 9.16663C12.3856 9.16663 12.5835 9.24996 12.7502 9.41663C12.9029 9.5694 12.9793 9.76385 12.9793 9.99996C12.9793 10.2361 12.9029 10.4305 12.7502 10.5833L10.5835 12.75C10.4168 12.9166 10.2224 13 10.0002 13C9.77794 13 9.5835 12.9166 9.41683 12.75L7.25016 10.5833C7.09738 10.4305 7.01752 10.2395 7.01058 10.0104C7.00363 9.78121 7.0835 9.58329 7.25016 9.41663C7.40294 9.26385 7.59391 9.18399 7.82308 9.17704C8.05225 9.1701 8.25016 9.24301 8.41683 9.39579L9.16683 10.125Z" fill="currentColor"/>
</svg>