<svg viewBox="0 0 20 20" fill="none" xmlns="http://www.w3.org/2000/svg">
<path d="M13.9792 16.3125C13.8264 16.4097 13.6737 16.5 13.5209 16.5833C13.3681 16.6667 13.2084 16.7431 13.0417 16.8125C12.8334 16.9097 12.6216 16.9097 12.4063 16.8125C12.191 16.7153 12.0417 16.5556 11.9584 16.3333C11.875 16.125 11.8855 15.9201 11.9896 15.7188C12.0938 15.5174 12.25 15.3681 12.4584 15.2708C12.5139 15.2431 12.566 15.2153 12.6146 15.1875C12.6632 15.1597 12.7153 15.1319 12.7709 15.1042L10 12.3333V14.6458C10 15.0208 9.8299 15.2813 9.48962 15.4271C9.14935 15.5729 8.84726 15.5139 8.58337 15.25L5.83337 12.5H3.33337C3.09726 12.5 2.89935 12.4201 2.73962 12.2604C2.5799 12.1007 2.50004 11.9028 2.50004 11.6667V8.33333C2.50004 8.09722 2.5799 7.89931 2.73962 7.73958C2.89935 7.57986 3.09726 7.5 3.33337 7.5H5.16671L1.75004 4.08333C1.59726 3.93056 1.52087 3.73611 1.52087 3.5C1.52087 3.26389 1.59726 3.06944 1.75004 2.91667C1.90282 2.76389 2.09726 2.6875 2.33337 2.6875C2.56949 2.6875 2.76393 2.76389 2.91671 2.91667L17.0834 17.0833C17.2362 17.2361 17.3125 17.4306 17.3125 17.6667C17.3125 17.9028 17.2362 18.0972 17.0834 18.25C16.9306 18.4028 16.7362 18.4792 16.5 18.4792C16.2639 18.4792 16.0695 18.4028 15.9167 18.25L13.9792 16.3125ZM15.8334 9.97917C15.8334 8.82639 15.5278 7.77431 14.9167 6.82292C14.3056 5.87153 13.4862 5.15972 12.4584 4.6875C12.25 4.59028 12.0973 4.44097 12 4.23958C11.9028 4.03819 11.8889 3.83333 11.9584 3.625C12.0417 3.40278 12.191 3.24306 12.4063 3.14583C12.6216 3.04861 12.8403 3.04861 13.0625 3.14583C14.4098 3.74306 15.4862 4.65278 16.2917 5.875C17.0973 7.09722 17.5 8.46528 17.5 9.97917C17.5 10.4375 17.4584 10.8924 17.375 11.3438C17.2917 11.7951 17.1737 12.2292 17.0209 12.6458C16.9098 12.9514 16.7396 13.1424 16.5105 13.2188C16.2813 13.2951 16.0695 13.2986 15.875 13.2292C15.6806 13.1597 15.5243 13.0347 15.4063 12.8542C15.2882 12.6736 15.2848 12.4653 15.3959 12.2292C15.5487 11.8681 15.6598 11.5035 15.7292 11.1354C15.7987 10.7674 15.8334 10.3819 15.8334 9.97917ZM12.3125 7.02083C12.7709 7.3125 13.125 7.75 13.375 8.33333C13.625 8.91667 13.75 9.47222 13.75 10V10.2083C13.75 10.2778 13.7431 10.3472 13.7292 10.4167C13.7014 10.5972 13.6042 10.7153 13.4375 10.7708C13.2709 10.8264 13.1181 10.7847 12.9792 10.6458L11.9167 9.58333C11.8334 9.5 11.7709 9.40625 11.7292 9.30208C11.6875 9.19792 11.6667 9.09028 11.6667 8.97917V7.375C11.6667 7.20833 11.7396 7.08681 11.8855 7.01042C12.0313 6.93403 12.1737 6.9375 12.3125 7.02083ZM8.12504 5.79167C8.04171 5.70833 8.00004 5.61111 8.00004 5.5C8.00004 5.38889 8.04171 5.29167 8.12504 5.20833L8.58337 4.75C8.84726 4.48611 9.14935 4.42708 9.48962 4.57292C9.8299 4.71875 10 4.97917 10 5.35417V6.66667C10 6.86111 9.91671 6.99306 9.75004 7.0625C9.58337 7.13195 9.4306 7.09722 9.29171 6.95833L8.12504 5.79167ZM8.33337 12.625V10.6667L6.83337 9.16667H4.16671V10.8333H6.54171L8.33337 12.625Z" fill="currentColor"/>
</svg>