<svg viewBox="0 0 20 20" fill="none" xmlns="http://www.w3.org/2000/svg">
<path d="M9.81234 15.8959L13.2707 9.14585C13.3401 9.00696 13.3332 8.87155 13.2498 8.7396C13.1665 8.60766 13.0484 8.54169 12.8957 8.54169H10.6665V4.18752C10.6665 4.07641 10.6144 4.01044 10.5103 3.9896C10.4061 3.96877 10.3262 4.00696 10.2707 4.10419L6.81234 10.8542C6.74289 10.9931 6.74984 11.1285 6.83317 11.2604C6.9165 11.3924 7.03456 11.4584 7.18734 11.4584H9.4165V15.8125C9.4165 15.9236 9.46859 15.9896 9.57275 16.0104C9.67692 16.0313 9.75678 15.9931 9.81234 15.8959ZM9.99984 18.3334C8.84706 18.3334 7.76373 18.1146 6.74984 17.6771C5.73595 17.2396 4.854 16.6459 4.104 15.8959C3.354 15.1459 2.76025 14.2639 2.32275 13.25C1.88525 12.2361 1.6665 11.1528 1.6665 10C1.6665 8.84724 1.88525 7.76391 2.32275 6.75002C2.76025 5.73613 3.354 4.85419 4.104 4.10419C4.854 3.35419 5.73595 2.76044 6.74984 2.32294C7.76373 1.88544 8.84706 1.66669 9.99984 1.66669C11.1526 1.66669 12.2359 1.88544 13.2498 2.32294C14.2637 2.76044 15.1457 3.35419 15.8957 4.10419C16.6457 4.85419 17.2394 5.73613 17.6769 6.75002C18.1144 7.76391 18.3332 8.84724 18.3332 10C18.3332 11.1528 18.1144 12.2361 17.6769 13.25C17.2394 14.2639 16.6457 15.1459 15.8957 15.8959C15.1457 16.6459 14.2637 17.2396 13.2498 17.6771C12.2359 18.1146 11.1526 18.3334 9.99984 18.3334Z" fill="currentColor"/>
</svg>