<svg viewBox="0 0 20 20" fill="none" xmlns="http://www.w3.org/2000/svg">
<path d="M15.8334 5C15.139 5 14.5487 4.75694 14.0626 4.27083C13.5765 3.78472 13.3334 3.19444 13.3334 2.5C13.3334 1.80556 13.5765 1.21528 14.0626 0.729167C14.5487 0.243056 15.139 0 15.8334 0C16.5279 0 17.1181 0.243056 17.6042 0.729167C18.0904 1.21528 18.3334 1.80556 18.3334 2.5C18.3334 3.19444 18.0904 3.78472 17.6042 4.27083C17.1181 4.75694 16.5279 5 15.8334 5ZM5.00008 15L3.08341 16.9167C2.81953 17.1806 2.51744 17.2396 2.17716 17.0937C1.83689 16.9479 1.66675 16.6875 1.66675 16.3125V3.33333C1.66675 2.875 1.82994 2.48264 2.15633 2.15625C2.48272 1.82986 2.87508 1.66667 3.33341 1.66667H11.7501C11.6945 1.94444 11.6667 2.22222 11.6667 2.5C11.6667 2.77778 11.6945 3.05556 11.7501 3.33333C11.8195 3.65278 11.9167 3.95139 12.0417 4.22917C12.1667 4.50694 12.3195 4.76389 12.5001 5H5.83341C5.5973 5 5.39939 5.07986 5.23966 5.23958C5.07994 5.39931 5.00008 5.59722 5.00008 5.83333C5.00008 6.06944 5.07994 6.26736 5.23966 6.42708C5.39939 6.58681 5.5973 6.66667 5.83341 6.66667H15.8334C16.2779 6.66667 16.7154 6.59722 17.1459 6.45833C17.5765 6.31944 17.9723 6.11111 18.3334 5.83333V13.3333C18.3334 13.7917 18.1702 14.184 17.8438 14.5104C17.5174 14.8368 17.1251 15 16.6667 15H5.00008ZM5.83341 9.16667H14.1667C14.4029 9.16667 14.6008 9.08681 14.7605 8.92708C14.9202 8.76736 15.0001 8.56944 15.0001 8.33333C15.0001 8.09722 14.9202 7.8993 14.7605 7.73958C14.6008 7.57986 14.4029 7.5 14.1667 7.5H5.83341C5.5973 7.5 5.39939 7.57986 5.23966 7.73958C5.07994 7.8993 5.00008 8.09722 5.00008 8.33333C5.00008 8.56944 5.07994 8.76736 5.23966 8.92708C5.39939 9.08681 5.5973 9.16667 5.83341 9.16667ZM5.83341 11.6667H10.8334C11.0695 11.6667 11.2674 11.5868 11.4272 11.4271C11.5869 11.2674 11.6667 11.0694 11.6667 10.8333C11.6667 10.5972 11.5869 10.3993 11.4272 10.2396C11.2674 10.0799 11.0695 10 10.8334 10H5.83341C5.5973 10 5.39939 10.0799 5.23966 10.2396C5.07994 10.3993 5.00008 10.5972 5.00008 10.8333C5.00008 11.0694 5.07994 11.2674 5.23966 11.4271C5.39939 11.5868 5.5973 11.6667 5.83341 11.6667Z" fill="currentColor"/>
</svg>