<svg viewBox="0 0 20 20" fill="none" xmlns="http://www.w3.org/2000/svg">
<g clip-path="url(#clip0_1700_503)">
<path fill-rule="evenodd" clip-rule="evenodd" d="M10 1.66504C14.6033 1.66504 18.3349 5.39672 18.335 10C18.335 14.6033 14.6033 18.335 10 18.335C5.39672 18.3349 1.66504 14.6033 1.66504 10C1.66506 5.39674 5.39674 1.66506 10 1.66504ZM8.66504 6.66504C7.36605 6.66517 6.62931 7.45834 6.26172 8.14844C6.0817 8.48656 5.97728 8.81619 5.91797 9.05566C5.88793 9.177 5.86896 9.28021 5.85645 9.35547C5.85017 9.39323 5.84493 9.42479 5.8418 9.44824C5.84025 9.45985 5.83881 9.46979 5.83789 9.47754C5.83745 9.48123 5.83722 9.48454 5.83691 9.4873V9.49512C5.78907 9.95265 6.12056 10.3621 6.57812 10.4102C7.03539 10.4581 7.44449 10.127 7.49316 9.66992V9.6748L7.5 9.62891C7.50642 9.59028 7.51786 9.52986 7.53613 9.45605C7.57352 9.30514 7.63542 9.11386 7.73242 8.93164C7.91954 8.5804 8.18366 8.33214 8.66504 8.33203C8.67088 8.33187 8.67298 8.32745 8.69922 8.34961C8.74272 8.38644 8.81702 8.4737 8.90723 8.65332C9.09435 9.02619 9.23833 9.55729 9.4043 10.2051C9.55665 10.7997 9.73238 11.5151 9.99316 12.0713C10.2411 12.6 10.7324 13.332 11.665 13.332C12.8041 13.332 13.6508 12.7506 14.1865 12.083C14.7014 11.4413 14.998 10.6364 14.998 9.99805C14.9979 9.53796 14.6252 9.16504 14.165 9.16504C13.7049 9.16504 13.3322 9.53796 13.332 9.99805C13.332 10.193 13.2075 10.6392 12.8867 11.0391C12.5916 11.4069 12.1959 11.655 11.6904 11.6631C11.6587 11.635 11.5931 11.5576 11.502 11.3633C11.3233 10.9821 11.1864 10.4471 11.0186 9.79199C10.8644 9.19016 10.6807 8.47076 10.3975 7.90625C10.1183 7.35012 9.59568 6.6652 8.66504 6.66504Z" fill="currentColor"/>
</g>
<defs>
<clipPath id="clip0_1700_503">
<rect width="20" height="20" fill="white"/>
</clipPath>
</defs>
</svg>
