<svg viewBox="0 0 20 20" fill="none" xmlns="http://www.w3.org/2000/svg">
<path d="M12.5 17.5C10.8611 17.5 9.40278 17.0347 8.125 16.1042C6.84722 15.1736 5.94444 13.9722 5.41667 12.5H3.33333C3.09722 12.5 2.89931 12.4201 2.73958 12.2604C2.57986 12.1007 2.5 11.9028 2.5 11.6667C2.5 11.4306 2.57986 11.2326 2.73958 11.0729C2.89931 10.9132 3.09722 10.8333 3.33333 10.8333H5.04167C5 10.5 4.98264 10.191 4.98958 9.90625C4.99653 9.62153 5.01389 9.375 5.04167 9.16667H3.33333C3.09722 9.16667 2.89931 9.08681 2.73958 8.92708C2.57986 8.76736 2.5 8.56944 2.5 8.33333C2.5 8.09722 2.57986 7.89931 2.73958 7.73958C2.89931 7.57986 3.09722 7.5 3.33333 7.5H5.41667C5.94444 6.02778 6.84722 4.82639 8.125 3.89583C9.40278 2.96528 10.8611 2.5 12.5 2.5C13.3056 2.5 14.0729 2.61806 14.8021 2.85417C15.5312 3.09028 16.2083 3.43056 16.8333 3.875C17.0278 4.01389 17.1319 4.19792 17.1458 4.42708C17.1597 4.65625 17.0833 4.84722 16.9167 5C16.75 5.16667 16.5486 5.25347 16.3125 5.26042C16.0764 5.26736 15.8611 5.20833 15.6667 5.08333C15.2083 4.79167 14.7118 4.56597 14.1771 4.40625C13.6424 4.24653 13.0833 4.16667 12.5 4.16667C11.3194 4.16667 10.2639 4.47569 9.33333 5.09375C8.40278 5.71181 7.70139 6.51389 7.22917 7.5H11.6667C11.9028 7.5 12.1007 7.57986 12.2604 7.73958C12.4201 7.89931 12.5 8.09722 12.5 8.33333C12.5 8.56944 12.4201 8.76736 12.2604 8.92708C12.1007 9.08681 11.9028 9.16667 11.6667 9.16667H6.72917C6.67361 9.54167 6.65278 9.87153 6.66667 10.1562C6.68056 10.441 6.70139 10.6667 6.72917 10.8333H11.6667C11.9028 10.8333 12.1007 10.9132 12.2604 11.0729C12.4201 11.2326 12.5 11.4306 12.5 11.6667C12.5 11.9028 12.4201 12.1007 12.2604 12.2604C12.1007 12.4201 11.9028 12.5 11.6667 12.5H7.22917C7.70139 13.4861 8.40278 14.2882 9.33333 14.9062C10.2639 15.5243 11.3194 15.8333 12.5 15.8333C13.0833 15.8333 13.6424 15.75 14.1771 15.5833C14.7118 15.4167 15.2083 15.1875 15.6667 14.8958C15.8611 14.7708 16.0764 14.7153 16.3125 14.7292C16.5486 14.7431 16.75 14.8333 16.9167 15C17.0833 15.1528 17.1597 15.3437 17.1458 15.5729C17.1319 15.8021 17.0278 15.9861 16.8333 16.125C16.2083 16.5694 15.5312 16.9097 14.8021 17.1458C14.0729 17.3819 13.3056 17.5 12.5 17.5Z" fill="currentColor"/>
</svg>
