<svg viewBox="0 0 20 20" fill="none" xmlns="http://www.w3.org/2000/svg">
<path d="M14.1668 14.3333L13.4168 13.5833C13.2641 13.4305 13.0696 13.3541 12.8335 13.3541C12.5974 13.3541 12.4029 13.4305 12.2502 13.5833C12.0974 13.7361 12.021 13.9305 12.021 14.1666C12.021 14.4027 12.0974 14.5972 12.2502 14.75L14.4168 16.9166C14.5835 17.0833 14.7779 17.1666 15.0002 17.1666C15.2224 17.1666 15.4168 17.0833 15.5835 16.9166L17.7502 14.75C17.9029 14.5972 17.9793 14.4027 17.9793 14.1666C17.9793 13.9305 17.9029 13.7361 17.7502 13.5833C17.5974 13.4305 17.4029 13.3541 17.1668 13.3541C16.9307 13.3541 16.7363 13.4305 16.5835 13.5833L15.8335 14.3333V11.6875C15.8335 11.4513 15.7536 11.2534 15.5939 11.0937C15.4342 10.934 15.2363 10.8541 15.0002 10.8541C14.7641 10.8541 14.5661 10.934 14.4064 11.0937C14.2467 11.2534 14.1668 11.4513 14.1668 11.6875V14.3333ZM12.5002 18.3333H17.5002C17.7363 18.3333 17.9342 18.4132 18.0939 18.5729C18.2536 18.7326 18.3335 18.9305 18.3335 19.1666C18.3335 19.4027 18.2536 19.6007 18.0939 19.7604C17.9342 19.9201 17.7363 20 17.5002 20H12.5002C12.2641 20 12.0661 19.9201 11.9064 19.7604C11.7467 19.6007 11.6668 19.4027 11.6668 19.1666C11.6668 18.9305 11.7467 18.7326 11.9064 18.5729C12.0661 18.4132 12.2641 18.3333 12.5002 18.3333ZM5.00016 16.6666C4.54183 16.6666 4.14947 16.5034 3.82308 16.177C3.49669 15.8507 3.3335 15.4583 3.3335 15V3.33329C3.3335 2.87496 3.49669 2.4826 3.82308 2.15621C4.14947 1.82982 4.54183 1.66663 5.00016 1.66663H10.146C10.3682 1.66663 10.58 1.70829 10.7814 1.79163C10.9828 1.87496 11.1599 1.99301 11.3127 2.14579L15.3543 6.18746C15.5071 6.34024 15.6252 6.51732 15.7085 6.71871C15.7918 6.9201 15.8335 7.1319 15.8335 7.35413V8.35413C15.8335 8.59024 15.7536 8.78815 15.5939 8.94788C15.4342 9.1076 15.2363 9.18746 15.0002 9.18746C14.7641 9.18746 14.5661 9.1076 14.4064 8.94788C14.2467 8.78815 14.1668 8.59024 14.1668 8.35413V7.49996H11.2502C10.9029 7.49996 10.6078 7.37843 10.3647 7.13538C10.1217 6.89232 10.0002 6.59718 10.0002 6.24996V3.33329H5.00016V15H9.16683C9.40294 15 9.60086 15.0798 9.76058 15.2395C9.9203 15.3993 10.0002 15.5972 10.0002 15.8333C10.0002 16.0694 9.9203 16.2673 9.76058 16.427C9.60086 16.5868 9.40294 16.6666 9.16683 16.6666H5.00016Z" fill="currentColor"/>
</svg>