<svg viewBox="0 0 20 20" fill="none" xmlns="http://www.w3.org/2000/svg">
<path d="M12.6459 6.9375C13.0486 7.34028 13.3438 7.79861 13.5313 8.3125C13.7188 8.82639 13.7847 9.35417 13.7292 9.89583C13.7292 10.1042 13.6528 10.2812 13.5 10.4271C13.3472 10.5729 13.1667 10.6458 12.9584 10.6458C12.75 10.6458 12.5729 10.5729 12.4271 10.4271C12.2813 10.2812 12.2084 10.1042 12.2084 9.89583C12.2778 9.53472 12.257 9.1875 12.1459 8.85417C12.0347 8.52083 11.8611 8.23611 11.625 8C11.3889 7.76389 11.1042 7.58333 10.7709 7.45833C10.4375 7.33333 10.0834 7.30556 9.70835 7.375C9.50002 7.375 9.32294 7.29861 9.1771 7.14583C9.03127 6.99306 8.95835 6.8125 8.95835 6.60417C8.95835 6.39583 9.03127 6.21875 9.1771 6.07292C9.32294 5.92708 9.50002 5.85417 9.70835 5.85417C10.2361 5.79861 10.757 5.86458 11.2709 6.05208C11.7847 6.23958 12.2431 6.53472 12.6459 6.9375ZM10 5C9.73613 5 9.47919 5.01042 9.22919 5.03125C8.97919 5.05208 8.72919 5.09028 8.47919 5.14583C8.24308 5.1875 8.03127 5.15278 7.84377 5.04167C7.65627 4.93056 7.5278 4.76389 7.45835 4.54167C7.38891 4.31944 7.41322 4.10417 7.53127 3.89583C7.64933 3.6875 7.81947 3.5625 8.04169 3.52083C8.36113 3.45139 8.68405 3.40278 9.01044 3.375C9.33683 3.34722 9.66669 3.33333 10 3.33333C11.9028 3.33333 13.6424 3.83333 15.2188 4.83333C16.7952 5.83333 18 7.18056 18.8334 8.875C18.8889 8.98611 18.9306 9.10069 18.9584 9.21875C18.9861 9.33681 19 9.45833 19 9.58333C19 9.70833 18.9896 9.82986 18.9688 9.94792C18.9479 10.066 18.9097 10.1806 18.8542 10.2917C18.6042 10.8472 18.2952 11.3681 17.9271 11.8542C17.559 12.3403 17.1528 12.7847 16.7084 13.1875C16.5417 13.3403 16.3472 13.4028 16.125 13.375C15.9028 13.3472 15.7222 13.2361 15.5834 13.0417C15.4445 12.8472 15.3854 12.6354 15.4063 12.4062C15.4271 12.1771 15.5209 11.9861 15.6875 11.8333C16.0209 11.5139 16.3264 11.1667 16.6042 10.7917C16.882 10.4167 17.125 10.0139 17.3334 9.58333C16.6389 8.18056 15.6354 7.06597 14.3229 6.23958C13.0104 5.41319 11.5695 5 10 5ZM10 15.8333C8.13891 15.8333 6.43752 15.3299 4.89585 14.3229C3.35419 13.316 2.13891 11.9931 1.25002 10.3542C1.18058 10.2431 1.12849 10.1215 1.09377 9.98958C1.05905 9.85764 1.04169 9.72222 1.04169 9.58333C1.04169 9.44444 1.05558 9.3125 1.08335 9.1875C1.11113 9.0625 1.15974 8.9375 1.22919 8.8125C1.50696 8.25694 1.82988 7.72569 2.19794 7.21875C2.56599 6.71181 2.98613 6.25 3.45835 5.83333L1.72919 4.08333C1.57641 3.91667 1.50349 3.71875 1.51044 3.48958C1.51738 3.26042 1.59724 3.06944 1.75002 2.91667C1.9028 2.76389 2.09724 2.6875 2.33335 2.6875C2.56946 2.6875 2.76391 2.76389 2.91669 2.91667L17.0834 17.0833C17.2361 17.2361 17.316 17.4271 17.3229 17.6562C17.3299 17.8854 17.25 18.0833 17.0834 18.25C16.9306 18.4028 16.7361 18.4792 16.5 18.4792C16.2639 18.4792 16.0695 18.4028 15.9167 18.25L13 15.375C12.5139 15.5278 12.0209 15.6424 11.5209 15.7188C11.0209 15.7951 10.5139 15.8333 10 15.8333ZM4.62502 7C4.22224 7.36111 3.85419 7.75694 3.52085 8.1875C3.18752 8.61806 2.9028 9.08333 2.66669 9.58333C3.36113 10.9861 4.3646 12.1007 5.6771 12.9271C6.9896 13.7535 8.43058 14.1667 10 14.1667C10.2778 14.1667 10.5486 14.1493 10.8125 14.1146C11.0764 14.0799 11.3472 14.0417 11.625 14L10.875 13.2083C10.7222 13.25 10.5764 13.2812 10.4375 13.3021C10.2986 13.3229 10.1528 13.3333 10 13.3333C8.95835 13.3333 8.07294 12.9688 7.34377 12.2396C6.6146 11.5104 6.25002 10.625 6.25002 9.58333C6.25002 9.43056 6.26044 9.28472 6.28127 9.14583C6.3021 9.00694 6.33335 8.86111 6.37502 8.70833L4.62502 7Z" fill="currentColor"/>
</svg>