<svg viewBox="0 0 20 20" fill="none" xmlns="http://www.w3.org/2000/svg">
<path d="M14.9999 8.75L17.6249 6.125C17.7638 5.98611 17.9166 5.95139 18.0833 6.02083C18.2499 6.09028 18.3333 6.22222 18.3333 6.41667V13.5833C18.3333 13.7778 18.2499 13.9097 18.0833 13.9792C17.9166 14.0486 17.7638 14.0139 17.6249 13.875L14.8541 11.1042C14.7152 11.2986 14.5173 11.4167 14.2603 11.4583C14.0034 11.5 13.7777 11.4236 13.5833 11.2292L7.10409 4.75C6.9652 4.61111 6.88534 4.46528 6.8645 4.3125C6.84367 4.15972 6.86797 4.00694 6.93742 3.85417C7.00686 3.70139 7.10409 3.57639 7.22909 3.47917C7.35409 3.38194 7.51381 3.33333 7.70825 3.33333H13.3333C13.7916 3.33333 14.1839 3.49653 14.5103 3.82292C14.8367 4.14931 14.9999 4.54167 14.9999 5V8.75ZM16.5416 18.875L1.12492 3.45833C0.972141 3.30556 0.895752 3.11111 0.895752 2.875C0.895752 2.63889 0.972141 2.44444 1.12492 2.29167C1.2777 2.13889 1.47214 2.0625 1.70825 2.0625C1.94436 2.0625 2.13881 2.13889 2.29159 2.29167L17.7083 17.7083C17.861 17.8611 17.9374 18.0556 17.9374 18.2917C17.9374 18.5278 17.861 18.7222 17.7083 18.875C17.5555 19.0278 17.361 19.1042 17.1249 19.1042C16.8888 19.1042 16.6944 19.0278 16.5416 18.875ZM3.33325 3.33333L14.9999 15C14.9999 15.4583 14.8367 15.8507 14.5103 16.1771C14.1839 16.5035 13.7916 16.6667 13.3333 16.6667H3.33325C2.87492 16.6667 2.48256 16.5035 2.15617 16.1771C1.82978 15.8507 1.66659 15.4583 1.66659 15V5C1.66659 4.54167 1.82978 4.14931 2.15617 3.82292C2.48256 3.49653 2.87492 3.33333 3.33325 3.33333Z" fill="currentColor"/>
</svg>