<svg viewBox="0 0 20 20" fill="none" xmlns="http://www.w3.org/2000/svg">
<path d="M16.625 14.1459L11.4583 10.6875C11.3333 10.6042 11.2396 10.5035 11.1771 10.3854C11.1146 10.2674 11.0833 10.1389 11.0833 10C11.0833 9.86113 11.1146 9.73266 11.1771 9.6146C11.2396 9.49655 11.3333 9.39585 11.4583 9.31252L16.625 5.85419C16.6944 5.79863 16.7708 5.76391 16.8542 5.75002C16.9375 5.73613 17.0139 5.72919 17.0833 5.72919C17.3056 5.72919 17.5 5.80558 17.6667 5.95835C17.8333 6.11113 17.9167 6.31252 17.9167 6.56252V13.4375C17.9167 13.6875 17.8333 13.8889 17.6667 14.0417C17.5 14.1945 17.3056 14.2709 17.0833 14.2709C17.0139 14.2709 16.9375 14.2639 16.8542 14.25C16.7708 14.2361 16.6944 14.2014 16.625 14.1459ZM8.29167 14.1459L3.125 10.6875C3 10.6042 2.90625 10.5035 2.84375 10.3854C2.78125 10.2674 2.75 10.1389 2.75 10C2.75 9.86113 2.78125 9.73266 2.84375 9.6146C2.90625 9.49655 3 9.39585 3.125 9.31252L8.29167 5.85419C8.36111 5.79863 8.4375 5.76391 8.52083 5.75002C8.60417 5.73613 8.68056 5.72919 8.75 5.72919C8.97222 5.72919 9.16667 5.80558 9.33333 5.95835C9.5 6.11113 9.58333 6.31252 9.58333 6.56252V13.4375C9.58333 13.6875 9.5 13.8889 9.33333 14.0417C9.16667 14.1945 8.97222 14.2709 8.75 14.2709C8.68056 14.2709 8.60417 14.2639 8.52083 14.25C8.4375 14.2361 8.36111 14.2014 8.29167 14.1459ZM7.91667 11.875V8.12502L5.08333 10L7.91667 11.875ZM16.25 11.875V8.12502L13.4167 10L16.25 11.875Z" fill="currentColor"/>
</svg>