<svg viewBox="0 0 20 20" fill="none" xmlns="http://www.w3.org/2000/svg">
<path d="M9.99984 18.3334C8.84706 18.3334 7.76373 18.1146 6.74984 17.6771C5.73595 17.2396 4.854 16.6459 4.104 15.8959C3.354 15.1459 2.76025 14.2639 2.32275 13.25C1.88525 12.2361 1.6665 11.1528 1.6665 10C1.6665 9.18058 1.78456 8.38197 2.02067 7.60419C2.25678 6.82641 2.59706 6.09724 3.0415 5.41669L1.729 4.10419C1.56234 3.93752 1.479 3.7396 1.479 3.51044C1.479 3.28127 1.56234 3.08335 1.729 2.91669C1.89567 2.75002 2.09359 2.66669 2.32275 2.66669C2.55192 2.66669 2.74984 2.75002 2.9165 2.91669L17.0832 17.0834C17.236 17.2361 17.3123 17.4306 17.3123 17.6667C17.3123 17.9028 17.236 18.0972 17.0832 18.25C16.9165 18.4167 16.7186 18.5 16.4894 18.5C16.2603 18.5 16.0623 18.4167 15.8957 18.25L14.5832 16.9584C13.9026 17.4028 13.1734 17.7431 12.3957 17.9792C11.6179 18.2153 10.8193 18.3334 9.99984 18.3334ZM6.5415 2.41669C7.08317 2.16669 7.64567 1.97919 8.229 1.85419C8.81234 1.72919 9.40262 1.66669 9.99984 1.66669C11.1109 1.66669 12.1734 1.87502 13.1873 2.29169C14.2012 2.70835 15.104 3.31252 15.8957 4.10419C16.6873 4.89585 17.2915 5.79863 17.7082 6.81252C18.1248 7.82641 18.3332 8.88891 18.3332 10C18.3332 10.5972 18.2707 11.1875 18.1457 11.7709C18.0207 12.3542 17.8332 12.9167 17.5832 13.4584C17.486 13.6667 17.3262 13.8021 17.104 13.8646C16.8818 13.9271 16.6735 13.9028 16.479 13.7917C16.2846 13.6806 16.1526 13.5139 16.0832 13.2917C16.0137 13.0695 16.0276 12.8472 16.1248 12.625C16.3054 12.2084 16.4408 11.7778 16.5311 11.3334C16.6214 10.8889 16.6665 10.4445 16.6665 10C16.6665 8.13891 16.0207 6.56252 14.729 5.27085C13.4373 3.97919 11.8609 3.33335 9.99984 3.33335C9.55539 3.33335 9.11095 3.37849 8.6665 3.46877C8.22206 3.55905 7.7915 3.69446 7.37484 3.87502C7.15262 3.97224 6.93039 3.98613 6.70817 3.91669C6.48595 3.84724 6.31928 3.7153 6.20817 3.52085C6.09706 3.32641 6.07275 3.11808 6.13525 2.89585C6.19775 2.67363 6.33317 2.51391 6.5415 2.41669ZM12.104 9.72919L10.2707 7.89585C10.1596 7.78474 10.1214 7.64933 10.1561 7.4896C10.1908 7.32988 10.2846 7.22919 10.4373 7.18752L13.0207 6.45835C13.1734 6.41669 13.3089 6.45488 13.4269 6.57294C13.545 6.69099 13.5832 6.82641 13.5415 6.97919L12.8123 9.56252C12.7707 9.7153 12.67 9.80905 12.5103 9.84377C12.3505 9.87849 12.2151 9.8403 12.104 9.72919ZM9.99984 16.6667C10.5971 16.6667 11.1769 16.5903 11.7394 16.4375C12.3019 16.2847 12.8471 16.0556 13.3748 15.75L10.229 12.6042L6.979 13.5417C6.82623 13.5834 6.69081 13.5452 6.57275 13.4271C6.4547 13.309 6.4165 13.1736 6.45817 13.0209L7.39567 9.77085L4.24984 6.62502C3.94428 7.1528 3.71512 7.69794 3.56234 8.26044C3.40956 8.82294 3.33317 9.4028 3.33317 10C3.33317 11.8472 3.98248 13.4202 5.28109 14.7188C6.5797 16.0174 8.15262 16.6667 9.99984 16.6667Z" fill="currentColor"/>
</svg>