<svg viewBox="0 0 20 20" fill="none" xmlns="http://www.w3.org/2000/svg">
<path d="M9.99992 9.99998C9.08325 9.99998 8.29853 9.67359 7.64575 9.02081C6.99297 8.36804 6.66659 7.58331 6.66659 6.66665C6.66659 5.74998 6.99297 4.96526 7.64575 4.31248C8.29853 3.6597 9.08325 3.33331 9.99992 3.33331C10.9166 3.33331 11.7013 3.6597 12.3541 4.31248C13.0069 4.96526 13.3333 5.74998 13.3333 6.66665C13.3333 7.58331 13.0069 8.36804 12.3541 9.02081C11.7013 9.67359 10.9166 9.99998 9.99992 9.99998ZM3.33325 15V14.3333C3.33325 13.8611 3.45478 13.4271 3.69784 13.0312C3.94089 12.6354 4.26381 12.3333 4.66659 12.125C5.5277 11.6944 6.4027 11.3715 7.29159 11.1562C8.18047 10.941 9.08325 10.8333 9.99992 10.8333C10.9166 10.8333 11.8194 10.941 12.7083 11.1562C13.5971 11.3715 14.4721 11.6944 15.3333 12.125C15.736 12.3333 16.0589 12.6354 16.302 13.0312C16.5451 13.4271 16.6666 13.8611 16.6666 14.3333V15C16.6666 15.4583 16.5034 15.8507 16.177 16.1771C15.8506 16.5035 15.4583 16.6666 14.9999 16.6666H4.99992C4.54159 16.6666 4.14922 16.5035 3.82284 16.1771C3.49645 15.8507 3.33325 15.4583 3.33325 15Z" fill="currentColor"/>
</svg>