<svg viewBox="0 0 20 20" fill="none" xmlns="http://www.w3.org/2000/svg">
<path d="M6.66683 18.3334C6.43072 18.3334 6.2328 18.2535 6.07308 18.0938C5.91336 17.934 5.8335 17.7361 5.8335 17.5V4.16669C5.8335 3.93058 5.91336 3.73266 6.07308 3.57294C6.2328 3.41321 6.43072 3.33335 6.66683 3.33335H8.3335V2.50002C8.3335 2.26391 8.41336 2.06599 8.57308 1.90627C8.7328 1.74655 8.93072 1.66669 9.16683 1.66669H10.8335C11.0696 1.66669 11.2675 1.74655 11.4272 1.90627C11.587 2.06599 11.6668 2.26391 11.6668 2.50002V3.33335H13.3335C13.5696 3.33335 13.7675 3.41321 13.9272 3.57294C14.087 3.73266 14.1668 3.93058 14.1668 4.16669V17.5C14.1668 17.7361 14.087 17.934 13.9272 18.0938C13.7675 18.2535 13.5696 18.3334 13.3335 18.3334H6.66683ZM7.50016 16.6667H12.5002V5.00002H7.50016V16.6667ZM10.0002 11.6667C10.2363 11.6667 10.4342 11.5868 10.5939 11.4271C10.7536 11.2674 10.8335 11.0695 10.8335 10.8334V7.50002C10.8335 7.26391 10.7536 7.06599 10.5939 6.90627C10.4342 6.74655 10.2363 6.66669 10.0002 6.66669C9.76405 6.66669 9.56613 6.74655 9.40641 6.90627C9.24669 7.06599 9.16683 7.26391 9.16683 7.50002V10.8334C9.16683 11.0695 9.24669 11.2674 9.40641 11.4271C9.56613 11.5868 9.76405 11.6667 10.0002 11.6667ZM10.0002 15C10.2363 15 10.4342 14.9202 10.5939 14.7604C10.7536 14.6007 10.8335 14.4028 10.8335 14.1667C10.8335 13.9306 10.7536 13.7327 10.5939 13.5729C10.4342 13.4132 10.2363 13.3334 10.0002 13.3334C9.76405 13.3334 9.56613 13.4132 9.40641 13.5729C9.24669 13.7327 9.16683 13.9306 9.16683 14.1667C9.16683 14.4028 9.24669 14.6007 9.40641 14.7604C9.56613 14.9202 9.76405 15 10.0002 15Z" fill="currentColor"/>
</svg>