<svg viewBox="0 0 20 20" fill="none" xmlns="http://www.w3.org/2000/svg">
<path d="M9.99984 18.3334C8.84706 18.3334 7.76373 18.1146 6.74984 17.6771C5.73595 17.2396 4.854 16.6459 4.104 15.8959C3.354 15.1459 2.76025 14.2639 2.32275 13.25C1.88525 12.2361 1.6665 11.1528 1.6665 10C1.6665 8.84724 1.88525 7.76391 2.32275 6.75002C2.76025 5.73613 3.354 4.85419 4.104 4.10419C4.854 3.35419 5.73595 2.76044 6.74984 2.32294C7.76373 1.88544 8.84706 1.66669 9.99984 1.66669C11.1526 1.66669 12.2359 1.88544 13.2498 2.32294C14.2637 2.76044 15.1457 3.35419 15.8957 4.10419C16.6457 4.85419 17.2394 5.73613 17.6769 6.75002C18.1144 7.76391 18.3332 8.84724 18.3332 10C18.3332 11.1528 18.1144 12.2361 17.6769 13.25C17.2394 14.2639 16.6457 15.1459 15.8957 15.8959C15.1457 16.6459 14.2637 17.2396 13.2498 17.6771C12.2359 18.1146 11.1526 18.3334 9.99984 18.3334ZM9.99984 16.6667C11.8609 16.6667 13.4373 16.0209 14.729 14.7292C16.0207 13.4375 16.6665 11.8611 16.6665 10C16.6665 8.13891 16.0207 6.56252 14.729 5.27085C13.4373 3.97919 11.8609 3.33335 9.99984 3.33335C8.13873 3.33335 6.56234 3.97919 5.27067 5.27085C3.979 6.56252 3.33317 8.13891 3.33317 10C3.33317 11.8611 3.979 13.4375 5.27067 14.7292C6.56234 16.0209 8.13873 16.6667 9.99984 16.6667ZM9.49984 11.25V14.1042C9.49984 14.3264 9.604 14.4618 9.81234 14.5104C10.0207 14.559 10.1804 14.4861 10.2915 14.2917L12.8123 9.35419C12.8818 9.2153 12.8748 9.07988 12.7915 8.94794C12.7082 8.81599 12.5901 8.75002 12.4373 8.75002H10.6248V5.85419C10.6248 5.63196 10.5207 5.49308 10.3123 5.43752C10.104 5.38196 9.94428 5.45141 9.83317 5.64585L7.20817 10.6459C7.13873 10.7986 7.1422 10.9375 7.21859 11.0625C7.29498 11.1875 7.40956 11.25 7.56234 11.25H9.49984Z" fill="currentColor"/>
</svg>