<svg viewBox="0 0 20 20" fill="none" xmlns="http://www.w3.org/2000/svg">
<path d="M5.00008 15L3.08341 16.9167C2.81953 17.1806 2.51744 17.2396 2.17716 17.0938C1.83689 16.9479 1.66675 16.6875 1.66675 16.3125V3.33335C1.66675 2.87502 1.82994 2.48266 2.15633 2.15627C2.48272 1.82988 2.87508 1.66669 3.33341 1.66669H16.6667C17.1251 1.66669 17.5174 1.82988 17.8438 2.15627C18.1702 2.48266 18.3334 2.87502 18.3334 3.33335V13.3334C18.3334 13.7917 18.1702 14.184 17.8438 14.5104C17.5174 14.8368 17.1251 15 16.6667 15H5.00008ZM4.29175 13.3334H16.6667V3.33335H3.33341V14.2709L4.29175 13.3334ZM5.83341 11.6667H10.8334C11.0695 11.6667 11.2674 11.5868 11.4272 11.4271C11.5869 11.2674 11.6667 11.0695 11.6667 10.8334C11.6667 10.5972 11.5869 10.3993 11.4272 10.2396C11.2674 10.0799 11.0695 10 10.8334 10H5.83341C5.5973 10 5.39939 10.0799 5.23966 10.2396C5.07994 10.3993 5.00008 10.5972 5.00008 10.8334C5.00008 11.0695 5.07994 11.2674 5.23966 11.4271C5.39939 11.5868 5.5973 11.6667 5.83341 11.6667ZM5.83341 9.16669H14.1667C14.4029 9.16669 14.6008 9.08683 14.7605 8.9271C14.9202 8.76738 15.0001 8.56946 15.0001 8.33335C15.0001 8.09724 14.9202 7.89933 14.7605 7.7396C14.6008 7.57988 14.4029 7.50002 14.1667 7.50002H5.83341C5.5973 7.50002 5.39939 7.57988 5.23966 7.7396C5.07994 7.89933 5.00008 8.09724 5.00008 8.33335C5.00008 8.56946 5.07994 8.76738 5.23966 8.9271C5.39939 9.08683 5.5973 9.16669 5.83341 9.16669ZM5.83341 6.66669H14.1667C14.4029 6.66669 14.6008 6.58683 14.7605 6.4271C14.9202 6.26738 15.0001 6.06946 15.0001 5.83335C15.0001 5.59724 14.9202 5.39933 14.7605 5.2396C14.6008 5.07988 14.4029 5.00002 14.1667 5.00002H5.83341C5.5973 5.00002 5.39939 5.07988 5.23966 5.2396C5.07994 5.39933 5.00008 5.59724 5.00008 5.83335C5.00008 6.06946 5.07994 6.26738 5.23966 6.4271C5.39939 6.58683 5.5973 6.66669 5.83341 6.66669Z" fill="currentColor"/>
</svg>