<svg viewBox="0 0 20 20" fill="none" xmlns="http://www.w3.org/2000/svg">
<path d="M5.00008 15L3.08341 16.9167C2.81953 17.1806 2.51744 17.2396 2.17716 17.0937C1.83689 16.9479 1.66675 16.6875 1.66675 16.3125V3.33333C1.66675 2.875 1.82994 2.48264 2.15633 2.15625C2.48272 1.82986 2.87508 1.66667 3.33341 1.66667H10.8334C11.0695 1.66667 11.2674 1.74653 11.4272 1.90625C11.5869 2.06597 11.6667 2.26389 11.6667 2.5C11.6667 2.73611 11.5869 2.93403 11.4272 3.09375C11.2674 3.25347 11.0695 3.33333 10.8334 3.33333H3.33341V14.2708L4.29175 13.3333H16.6667V7.5C16.6667 7.26389 16.7466 7.06597 16.9063 6.90625C17.0661 6.74653 17.264 6.66667 17.5001 6.66667C17.7362 6.66667 17.9341 6.74653 18.0938 6.90625C18.2536 7.06597 18.3334 7.26389 18.3334 7.5V13.3333C18.3334 13.7917 18.1702 14.184 17.8438 14.5104C17.5174 14.8368 17.1251 15 16.6667 15H5.00008ZM15.8334 5C15.139 5 14.5487 4.75694 14.0626 4.27083C13.5765 3.78472 13.3334 3.19444 13.3334 2.5C13.3334 1.80556 13.5765 1.21528 14.0626 0.729167C14.5487 0.243056 15.139 0 15.8334 0C16.5279 0 17.1181 0.243056 17.6042 0.729167C18.0904 1.21528 18.3334 1.80556 18.3334 2.5C18.3334 3.19444 18.0904 3.78472 17.6042 4.27083C17.1181 4.75694 16.5279 5 15.8334 5Z" fill="currentColor"/>
</svg>