<svg viewBox="0 0 20 20" fill="none" xmlns="http://www.w3.org/2000/svg">
<path fill-rule="evenodd" clip-rule="evenodd" d="M10 3.41699C10.8644 3.41702 11.7209 3.5872 12.5195 3.91797C13.318 4.24875 14.0441 4.73364 14.6553 5.34473C15.2665 5.95599 15.7522 6.68284 16.083 7.48145C16.4136 8.27981 16.5839 9.13591 16.584 10C16.5839 10.8643 16.4137 11.721 16.083 12.5195C15.7522 13.3182 15.2665 14.044 14.6553 14.6553C14.044 15.2665 13.3182 15.7522 12.5195 16.083C11.721 16.4137 10.8644 16.584 10 16.584C9.13589 16.5839 8.27982 16.4136 7.48145 16.083C6.68284 15.7522 5.95599 15.2665 5.34473 14.6553C4.73366 14.0441 4.24875 13.318 3.91797 12.5195C3.58721 11.721 3.41704 10.8644 3.41699 10C3.41703 9.13581 3.58734 8.27989 3.91797 7.48145C4.2488 6.68274 4.73343 5.95604 5.34473 5.34473C5.95605 4.73341 6.68272 4.24881 7.48145 3.91797C8.27992 3.58731 9.13577 3.41703 10 3.41699ZM8.02832 7.5C7.88447 7.5 7.76042 7.55208 7.65625 7.65625C7.55208 7.76042 7.5 7.88447 7.5 8.02832V12.083C7.5 12.1987 7.5412 12.2979 7.62305 12.3789C7.70471 12.4596 7.80306 12.4999 7.91797 12.5C8.03319 12.5 8.13121 12.459 8.21191 12.3779C8.29254 12.2969 8.33298 12.1988 8.33301 12.083V9.11426L9.56055 12.2842C9.58451 12.3492 9.62615 12.401 9.68359 12.4404C9.74097 12.4798 9.80291 12.4999 9.87012 12.5H10.127C10.1974 12.4999 10.261 12.48 10.3174 12.4404C10.3736 12.4008 10.4134 12.3487 10.4365 12.2842L11.667 9.09961V12.084C11.6671 12.1995 11.7073 12.298 11.7891 12.3789C11.8709 12.4598 11.9698 12.5 12.085 12.5C12.2002 12.5 12.2982 12.459 12.3789 12.3779C12.4594 12.2969 12.5 12.1987 12.5 12.083V8.06543C12.5 7.90915 12.4451 7.7754 12.3359 7.66504C12.2269 7.55502 12.0924 7.50002 11.9326 7.5H11.7559C11.6364 7.50002 11.5281 7.53221 11.4316 7.59668C11.3353 7.66111 11.2672 7.75038 11.2275 7.86426L10 11.123L8.75781 7.8418C8.71812 7.73776 8.65411 7.65472 8.56738 7.59277C8.48076 7.531 8.38115 7.50007 8.26855 7.5H8.02832Z" fill="currentColor"/>
<path d="M4.16675 10H1.66675" stroke="currentColor" stroke-width="1.5" stroke-linecap="round" stroke-linejoin="round"/>
<path d="M15.8333 10H18.3333" stroke="currentColor" stroke-width="1.5" stroke-linecap="round" stroke-linejoin="round"/>
</svg>
