<svg viewBox="0 0 20 20" fill="none" xmlns="http://www.w3.org/2000/svg">
<path d="M5.41683 16.6667C4.15294 16.6667 3.07308 16.2292 2.17725 15.3542C1.28141 14.4792 0.833496 13.4098 0.833496 12.1459C0.833496 11.0625 1.15988 10.0973 1.81266 9.25004C2.46544 8.40282 3.31961 7.86115 4.37516 7.62504C4.72239 6.34726 5.41683 5.31254 6.4585 4.52087C7.50016 3.72921 8.68072 3.33337 10.0002 3.33337C11.6252 3.33337 13.0036 3.89935 14.1356 5.03129C15.2675 6.16324 15.8335 7.54171 15.8335 9.16671C16.7918 9.27782 17.587 9.69101 18.2189 10.4063C18.8509 11.1216 19.1668 11.9584 19.1668 12.9167C19.1668 13.9584 18.8022 14.8438 18.0731 15.573C17.3439 16.3021 16.4585 16.6667 15.4168 16.6667H5.41683ZM5.41683 15H15.4168C16.0002 15 16.4932 14.7987 16.896 14.3959C17.2988 13.9931 17.5002 13.5 17.5002 12.9167C17.5002 12.3334 17.2988 11.8403 16.896 11.4375C16.4932 11.0348 16.0002 10.8334 15.4168 10.8334H14.1668V9.16671C14.1668 8.01393 13.7606 7.03129 12.9481 6.21879C12.1356 5.40629 11.1529 5.00004 10.0002 5.00004C8.84739 5.00004 7.86475 5.40629 7.05225 6.21879C6.23975 7.03129 5.8335 8.01393 5.8335 9.16671H5.41683C4.61127 9.16671 3.92377 9.45143 3.35433 10.0209C2.78489 10.5903 2.50016 11.2778 2.50016 12.0834C2.50016 12.8889 2.78489 13.5764 3.35433 14.1459C3.92377 14.7153 4.61127 15 5.41683 15Z" fill="currentColor"/>
</svg>