<svg viewBox="0 0 20 20" fill="none" xmlns="http://www.w3.org/2000/svg">
<path d="M9.99999 14.1667C10.2361 14.1667 10.434 14.0868 10.5937 13.9271C10.7535 13.7674 10.8333 13.5695 10.8333 13.3334C10.8333 13.0972 10.7535 12.8993 10.5937 12.7396C10.434 12.5799 10.2361 12.5 9.99999 12.5C9.76388 12.5 9.56596 12.5799 9.40624 12.7396C9.24652 12.8993 9.16666 13.0972 9.16666 13.3334C9.16666 13.5695 9.24652 13.7674 9.40624 13.9271C9.56596 14.0868 9.76388 14.1667 9.99999 14.1667ZM9.99999 10.8334C10.2361 10.8334 10.434 10.7535 10.5937 10.5938C10.7535 10.434 10.8333 10.2361 10.8333 10V6.66669C10.8333 6.43058 10.7535 6.23266 10.5937 6.07294C10.434 5.91321 10.2361 5.83335 9.99999 5.83335C9.76388 5.83335 9.56596 5.91321 9.40624 6.07294C9.24652 6.23266 9.16666 6.43058 9.16666 6.66669V10C9.16666 10.2361 9.24652 10.434 9.40624 10.5938C9.56596 10.7535 9.76388 10.8334 9.99999 10.8334ZM9.99999 18.3334C8.84721 18.3334 7.76388 18.1146 6.74999 17.6771C5.7361 17.2396 4.85416 16.6459 4.10416 15.8959C3.35416 15.1459 2.76041 14.2639 2.32291 13.25C1.88541 12.2361 1.66666 11.1528 1.66666 10C1.66666 8.84724 1.88541 7.76391 2.32291 6.75002C2.76041 5.73613 3.35416 4.85419 4.10416 4.10419C4.85416 3.35419 5.7361 2.76044 6.74999 2.32294C7.76388 1.88544 8.84721 1.66669 9.99999 1.66669C11.1528 1.66669 12.2361 1.88544 13.25 2.32294C14.2639 2.76044 15.1458 3.35419 15.8958 4.10419C16.6458 4.85419 17.2396 5.73613 17.6771 6.75002C18.1146 7.76391 18.3333 8.84724 18.3333 10C18.3333 11.1528 18.1146 12.2361 17.6771 13.25C17.2396 14.2639 16.6458 15.1459 15.8958 15.8959C15.1458 16.6459 14.2639 17.2396 13.25 17.6771C12.2361 18.1146 11.1528 18.3334 9.99999 18.3334Z" fill="currentColor"/>
</svg>