<svg viewBox="0 0 20 20" fill="none" xmlns="http://www.w3.org/2000/svg">
<path d="M9.25 11.5H10.75V9.25H13V7.75H10.75V5.5H9.25V7.75H7V9.25H9.25V11.5ZM10 18C7.81986 16.179 6.19146 14.4877 5.11479 12.926C4.03826 11.3642 3.5 9.90972 3.5 8.5625C3.5 6.70139 4.11806 5.14236 5.35417 3.88542C6.59028 2.62847 8.13542 2 9.98958 2C11.8438 2 13.3924 2.62847 14.6354 3.88542C15.8785 5.14236 16.5 6.70139 16.5 8.5625C16.5 9.90972 15.9653 11.3611 14.8958 12.9167C13.8264 14.4722 12.1944 16.1667 10 18Z" fill="currentColor"/>
</svg>
