<svg xmlns="http://www.w3.org/2000/svg" width="20" height="20" fill="none" viewBox="0 0 20 20">
  <path fill="#201F1F" d="M9.166 17.5v-3.333c0-.778-.118-1.354-.354-1.73a5.587 5.587 0 0 0-.937-1.104l1.187-1.187c.167.153.327.316.48.49.152.173.305.357.458.552a5.97 5.97 0 0 1 .594-.698c.201-.202.406-.4.614-.594a9.498 9.498 0 0 0 1.438-1.688c.43-.639.66-1.757.687-3.354l-.729.73a.777.777 0 0 1-.573.228.85.85 0 0 1-.594-.229.811.811 0 0 1-.25-.593c0-.23.084-.428.25-.594l2.146-2.146a.73.73 0 0 1 .271-.177.922.922 0 0 1 .313-.052c.11 0 .215.017.312.052a.73.73 0 0 1 .27.177l2.167 2.167a.814.814 0 0 1 .24.573.776.776 0 0 1-.24.593.79.79 0 0 1-.583.23.79.79 0 0 1-.583-.23L15 4.854c-.028 1.986-.334 3.4-.917 4.24-.583.84-1.167 1.524-1.75 2.052a7.855 7.855 0 0 0-1.083 1.177c-.278.382-.417.996-.417 1.844V17.5c0 .236-.08.434-.24.594a.806.806 0 0 1-.593.24.806.806 0 0 1-.594-.24.806.806 0 0 1-.24-.594Zm-4-10.688a6.877 6.877 0 0 1-.114-.916A49.09 49.09 0 0 1 5 4.854l-.75.75a.777.777 0 0 1-.573.23.811.811 0 0 1-.594-.25A.79.79 0 0 1 2.854 5a.79.79 0 0 1 .23-.583L5.25 2.25a.731.731 0 0 1 .27-.177.922.922 0 0 1 .313-.052c.111 0 .215.017.313.052a.731.731 0 0 1 .27.177l2.167 2.167a.763.763 0 0 1 .24.583.839.839 0 0 1-.844.812.836.836 0 0 1-.583-.229l-.73-.708c0 .292.014.566.042.823.028.257.056.496.083.719l-1.625.395Zm1.792 3.667a7.348 7.348 0 0 1-.802-1.02 6.32 6.32 0 0 1-.677-1.438l1.604-.396a4.403 4.403 0 0 0 1.063 1.667l-1.188 1.187Z"/>
</svg>
