<svg xmlns="http://www.w3.org/2000/svg" width="20" height="20" fill="none" viewBox="0 0 20 20">
  <path fill="#201F1F" d="M5 16.667c-.458 0-.85-.164-1.177-.49A1.605 1.605 0 0 1 3.333 15c0-.458.164-.85.49-1.177.326-.327.719-.49 1.177-.49.458 0 .85.163 1.177.49.326.326.49.719.49 1.177 0 .458-.164.85-.49 1.177-.326.326-.719.49-1.177.49Zm5 0c-.458 0-.85-.164-1.177-.49A1.605 1.605 0 0 1 8.333 15c0-.458.164-.85.49-1.177.326-.327.719-.49 1.177-.49.458 0 .85.163 1.177.49.327.326.49.719.49 1.177 0 .458-.163.85-.49 1.177-.326.326-.719.49-1.177.49Zm5 0c-.458 0-.85-.164-1.177-.49a1.605 1.605 0 0 1-.49-1.177c0-.458.163-.85.49-1.177.326-.327.719-.49 1.177-.49.458 0 .85.163 1.177.49.326.326.49.719.49 1.177 0 .458-.164.85-.49 1.177-.326.326-.719.49-1.177.49Zm-10-5c-.458 0-.85-.163-1.177-.49A1.605 1.605 0 0 1 3.333 10c0-.458.164-.85.49-1.177.326-.326.719-.49 1.177-.49.458 0 .85.164 1.177.49.326.326.49.719.49 1.177 0 .458-.164.85-.49 1.177-.326.327-.719.49-1.177.49Zm5 0c-.458 0-.85-.163-1.177-.49A1.605 1.605 0 0 1 8.333 10c0-.458.164-.85.49-1.177.326-.326.719-.49 1.177-.49.458 0 .85.164 1.177.49.327.326.49.719.49 1.177 0 .458-.163.85-.49 1.177-.326.327-.719.49-1.177.49Zm5 0c-.458 0-.85-.163-1.177-.49a1.605 1.605 0 0 1-.49-1.177c0-.458.163-.85.49-1.177.326-.326.719-.49 1.177-.49.458 0 .85.164 1.177.49.326.326.49.719.49 1.177 0 .458-.164.85-.49 1.177-.326.327-.719.49-1.177.49Zm-10-5c-.458 0-.85-.164-1.177-.49A1.605 1.605 0 0 1 3.333 5c0-.458.164-.85.49-1.177.326-.326.719-.49 1.177-.49.458 0 .85.164 1.177.49.326.326.49.719.49 1.177 0 .458-.164.85-.49 1.177-.326.326-.719.49-1.177.49Zm5 0c-.458 0-.85-.164-1.177-.49A1.605 1.605 0 0 1 8.333 5c0-.458.164-.85.49-1.177.326-.326.719-.49 1.177-.49.458 0 .85.164 1.177.49.327.326.49.719.49 1.177 0 .458-.163.85-.49 1.177-.326.326-.719.49-1.177.49Zm5 0c-.458 0-.85-.164-1.177-.49A1.605 1.605 0 0 1 13.333 5c0-.458.163-.85.49-1.177.326-.326.719-.49 1.177-.49.458 0 .85.164 1.177.49.326.326.49.719.49 1.177 0 .458-.164.85-.49 1.177-.326.326-.719.49-1.177.49Z"/>
</svg>
