<svg xmlns="http://www.w3.org/2000/svg" width="20" height="20" fill="none" viewBox="0 0 20 20">
  <path fill="#201F1F" d="M9.167 13.48V4.166c0-.236.08-.434.24-.594.159-.16.357-.24.593-.24s.434.08.594.24c.16.16.24.358.24.594v9.312l4.083-4.083a.763.763 0 0 1 .583-.24.839.839 0 0 1 .583.26.879.879 0 0 1 .24.584.763.763 0 0 1-.24.583l-5.5 5.5a.731.731 0 0 1-.27.177.923.923 0 0 1-.313.052.923.923 0 0 1-.313-.052.731.731 0 0 1-.27-.177l-5.5-5.5a.777.777 0 0 1-.23-.573c0-.229.077-.427.23-.593a.811.811 0 0 1 .593-.25c.23 0 .428.083.594.25l4.063 4.062Z"/>
</svg>
