<svg xmlns="http://www.w3.org/2000/svg" width="20" height="20" fill="none" viewBox="0 0 20 20">
  <path fill="#201F1F" d="m10.563 10-1.98-1.98a.777.777 0 0 1-.229-.572.85.85 0 0 1 .23-.594.811.811 0 0 1 .593-.25.81.81 0 0 1 .594.25l2.562 2.563a.8.8 0 0 1 .25.583.8.8 0 0 1-.25.583L9.75 13.167a.763.763 0 0 1-.583.24.838.838 0 0 1-.584-.261.879.879 0 0 1-.24-.584.764.764 0 0 1 .24-.583L10.563 10Zm7.77 0a8.115 8.115 0 0 0-.656-3.25 8.415 8.415 0 0 0-1.781-2.646 8.416 8.416 0 0 0-2.646-1.781A8.115 8.115 0 0 0 10 1.667a8.115 8.115 0 0 0-3.25.656 8.415 8.415 0 0 0-2.646 1.781A8.415 8.415 0 0 0 2.323 6.75 8.115 8.115 0 0 0 1.667 10c0 1.153.218 2.236.656 3.25a8.416 8.416 0 0 0 1.781 2.646 8.415 8.415 0 0 0 2.646 1.781 8.115 8.115 0 0 0 3.25.656 8.115 8.115 0 0 0 3.25-.656 8.416 8.416 0 0 0 2.646-1.781 8.416 8.416 0 0 0 1.781-2.646 8.115 8.115 0 0 0 .656-3.25Z"/>
</svg>
