<svg xmlns="http://www.w3.org/2000/svg" width="20" height="20" fill="none" viewBox="0 0 20 20">
  <path fill="#201F1F" d="M7.98 10 4.75 6.75a.814.814 0 0 1-.24-.573.776.776 0 0 1 .24-.594.79.79 0 0 1 .583-.229.79.79 0 0 1 .584.23L9.75 9.416a.731.731 0 0 1 .177.27.922.922 0 0 1 .052.313.923.923 0 0 1-.052.313.73.73 0 0 1-.177.27l-3.833 3.834a.814.814 0 0 1-.573.24.775.775 0 0 1-.594-.24.79.79 0 0 1-.23-.584.79.79 0 0 1 .23-.583L7.98 10Zm5.5 0-3.23-3.25a.814.814 0 0 1-.24-.573.776.776 0 0 1 .24-.594.79.79 0 0 1 .583-.229.79.79 0 0 1 .584.23l3.833 3.833a.731.731 0 0 1 .177.27.923.923 0 0 1 .052.313.923.923 0 0 1-.052.313.731.731 0 0 1-.177.27l-3.833 3.834a.814.814 0 0 1-.573.24.775.775 0 0 1-.594-.24.79.79 0 0 1-.23-.584.79.79 0 0 1 .23-.583L13.48 10Z"/>
</svg>
