<svg xmlns="http://www.w3.org/2000/svg" width="20" height="20" fill="none" viewBox="0 0 20 20">
  <path fill="#201F1F" d="M13.48 8.333H5.832v7.5c0 .236-.08.434-.24.594a.806.806 0 0 1-.593.24.806.806 0 0 1-.594-.24.807.807 0 0 1-.24-.594v-7.5c0-.458.164-.85.49-1.177.327-.326.719-.49 1.177-.49h7.646l-2.396-2.395a.85.85 0 0 1-.26-.594.775.775 0 0 1 .24-.594.81.81 0 0 1 .593-.25c.23 0 .427.084.594.25l3.833 3.834a.731.731 0 0 1 .177.27.923.923 0 0 1 .052.313.923.923 0 0 1-.052.312.731.731 0 0 1-.177.271l-3.854 3.854a.764.764 0 0 1-.583.24.839.839 0 0 1-.584-.26.878.878 0 0 1-.24-.584.763.763 0 0 1 .24-.583l2.417-2.417Z"/>
</svg>
