<svg xmlns="http://www.w3.org/2000/svg" width="20" height="20" fill="none" viewBox="0 0 20 20">
  <path fill="#201F1F" d="m10 10.563-1.98-1.98a.777.777 0 0 0-.572-.229.849.849 0 0 0-.594.23.811.811 0 0 0-.25.593c0 .23.083.427.25.594l2.563 2.562a.8.8 0 0 0 .583.25.8.8 0 0 0 .583-.25l2.584-2.583a.763.763 0 0 0 .24-.583.838.838 0 0 0-.261-.584.879.879 0 0 0-.584-.24.763.763 0 0 0-.583.24L10 10.563Zm0 7.77a8.115 8.115 0 0 1-3.25-.656 8.415 8.415 0 0 1-2.646-1.781 8.416 8.416 0 0 1-1.781-2.646A8.115 8.115 0 0 1 1.667 10c0-1.153.218-2.236.656-3.25a8.415 8.415 0 0 1 1.781-2.646A8.415 8.415 0 0 1 6.75 2.323 8.115 8.115 0 0 1 10 1.667c1.153 0 2.236.218 3.25.656a8.416 8.416 0 0 1 2.646 1.781 8.415 8.415 0 0 1 1.781 2.646 8.115 8.115 0 0 1 .656 3.25 8.115 8.115 0 0 1-.656 3.25 8.416 8.416 0 0 1-1.781 2.646 8.416 8.416 0 0 1-2.646 1.781 8.115 8.115 0 0 1-3.25.656Z"/>
</svg>
