<svg xmlns="http://www.w3.org/2000/svg" width="20" height="20" fill="none" viewBox="0 0 20 20">
  <path fill="#201F1F" d="M9.167 9.833V12.5c0 .236.08.434.24.594.159.16.357.24.593.24s.434-.08.594-.24c.16-.16.24-.358.24-.594V9.833l.75.75a.79.79 0 0 0 .583.23.79.79 0 0 0 .583-.23.79.79 0 0 0 .23-.583.79.79 0 0 0-.23-.583L10.583 7.25A.8.8 0 0 0 10 7a.8.8 0 0 0-.583.25L7.25 9.417a.79.79 0 0 0-.23.583c0 .236.077.43.23.583a.79.79 0 0 0 .583.23.79.79 0 0 0 .584-.23l.75-.75Zm.833 8.5a8.115 8.115 0 0 1-3.25-.656 8.415 8.415 0 0 1-2.646-1.781 8.416 8.416 0 0 1-1.781-2.646A8.115 8.115 0 0 1 1.667 10c0-1.153.218-2.236.656-3.25a8.415 8.415 0 0 1 1.781-2.646A8.415 8.415 0 0 1 6.75 2.323 8.115 8.115 0 0 1 10 1.667c1.153 0 2.236.218 3.25.656a8.416 8.416 0 0 1 2.646 1.781 8.415 8.415 0 0 1 1.781 2.646 8.115 8.115 0 0 1 .656 3.25 8.115 8.115 0 0 1-.656 3.25 8.416 8.416 0 0 1-1.781 2.646 8.416 8.416 0 0 1-2.646 1.781 8.115 8.115 0 0 1-3.25.656Z"/>
</svg>
