<svg xmlns="http://www.w3.org/2000/svg" width="20" height="20" fill="none" viewBox="0 0 20 20">
  <path fill="#201F1F" d="m9.438 10 1.979-1.98a.777.777 0 0 0 .229-.572.849.849 0 0 0-.23-.594.811.811 0 0 0-.593-.25.811.811 0 0 0-.594.25L7.667 9.417a.8.8 0 0 0-.25.583.8.8 0 0 0 .25.583l2.583 2.584a.763.763 0 0 0 .583.24.838.838 0 0 0 .584-.261.88.88 0 0 0 .24-.584.764.764 0 0 0-.24-.583L9.437 10Zm-7.771 0c0-1.153.218-2.236.656-3.25a8.415 8.415 0 0 1 1.781-2.646A8.415 8.415 0 0 1 6.75 2.323 8.115 8.115 0 0 1 10 1.667c1.153 0 2.236.218 3.25.656a8.416 8.416 0 0 1 2.646 1.781 8.415 8.415 0 0 1 1.781 2.646 8.115 8.115 0 0 1 .656 3.25 8.115 8.115 0 0 1-.656 3.25 8.416 8.416 0 0 1-1.781 2.646 8.416 8.416 0 0 1-2.646 1.781 8.114 8.114 0 0 1-3.25.656 8.115 8.115 0 0 1-3.25-.656 8.415 8.415 0 0 1-2.646-1.781 8.416 8.416 0 0 1-1.781-2.646A8.115 8.115 0 0 1 1.667 10Z"/>
</svg>
