<svg xmlns="http://www.w3.org/2000/svg" width="20" height="20" fill="none" viewBox="0 0 20 20">
  <path fill="#201F1F" d="m9.167 10.167-.75-.75a.79.79 0 0 0-.584-.23.79.79 0 0 0-.583.23.79.79 0 0 0-.23.583c0 .236.077.43.23.583l2.167 2.167A.8.8 0 0 0 10 13a.8.8 0 0 0 .583-.25l2.167-2.167a.79.79 0 0 0 .23-.583.79.79 0 0 0-.23-.583.79.79 0 0 0-.583-.23.79.79 0 0 0-.584.23l-.75.75V7.5a.806.806 0 0 0-.24-.594.806.806 0 0 0-.593-.24.806.806 0 0 0-.594.24.806.806 0 0 0-.24.594v2.667ZM10 18.333a8.115 8.115 0 0 1-3.25-.656 8.415 8.415 0 0 1-2.646-1.781 8.416 8.416 0 0 1-1.781-2.646A8.115 8.115 0 0 1 1.667 10c0-1.153.218-2.236.656-3.25a8.415 8.415 0 0 1 1.781-2.646A8.415 8.415 0 0 1 6.75 2.323 8.115 8.115 0 0 1 10 1.667c1.153 0 2.236.218 3.25.656a8.416 8.416 0 0 1 2.646 1.781 8.415 8.415 0 0 1 1.781 2.646 8.115 8.115 0 0 1 .656 3.25 8.115 8.115 0 0 1-.656 3.25 8.416 8.416 0 0 1-1.781 2.646 8.416 8.416 0 0 1-2.646 1.781 8.115 8.115 0 0 1-3.25.656Z"/>
</svg>
