<svg xmlns="http://www.w3.org/2000/svg" width="20" height="20" fill="none" viewBox="0 0 20 20">
  <path fill="#201F1F" d="M15.146 10.833H2.5a.806.806 0 0 1-.594-.24.806.806 0 0 1-.24-.593c0-.236.08-.434.24-.594.16-.16.358-.24.594-.24h12.646l-3.23-3.25a.814.814 0 0 1-.239-.572.776.776 0 0 1 .24-.594.79.79 0 0 1 .583-.23.79.79 0 0 1 .583.23l4.667 4.667a.73.73 0 0 1 .177.27.92.92 0 0 1 .052.313.92.92 0 0 1-.052.313.73.73 0 0 1-.177.27l-4.667 4.667a.777.777 0 0 1-.573.23.849.849 0 0 1-.593-.23.812.812 0 0 1-.25-.594c0-.229.083-.427.25-.594l3.229-3.229Z"/>
</svg>
