<svg xmlns="http://www.w3.org/2000/svg" width="20" height="20" fill="none" viewBox="0 0 20 20">
  <path fill="#201F1F" d="m10 13.48 3.25-3.23a.814.814 0 0 1 .573-.24.776.776 0 0 1 .594.24.79.79 0 0 1 .229.583.79.79 0 0 1-.23.584l-3.833 3.833a.731.731 0 0 1-.27.177.923.923 0 0 1-.313.052.923.923 0 0 1-.312-.052.731.731 0 0 1-.271-.177l-3.834-3.833a.814.814 0 0 1-.24-.573.776.776 0 0 1 .24-.594.79.79 0 0 1 .584-.23.79.79 0 0 1 .583.23L10 13.48Zm0-5 3.25-3.23a.814.814 0 0 1 .573-.24.775.775 0 0 1 .594.24.79.79 0 0 1 .229.583.79.79 0 0 1-.23.584l-3.833 3.833a.731.731 0 0 1-.27.177.923.923 0 0 1-.313.052.923.923 0 0 1-.312-.052.731.731 0 0 1-.271-.177L5.583 6.417a.814.814 0 0 1-.24-.573.776.776 0 0 1 .24-.594.79.79 0 0 1 .584-.23.79.79 0 0 1 .583.23L10 8.48Z"/>
</svg>
