<svg xmlns="http://www.w3.org/2000/svg" width="20" height="20" fill="none" viewBox="0 0 20 20">
  <path fill="#201F1F" d="m9.167 6.52-4.084 4.084a.763.763 0 0 1-.583.24.838.838 0 0 1-.583-.26.879.879 0 0 1-.24-.584.763.763 0 0 1 .24-.583l5.5-5.5a.731.731 0 0 1 .27-.177.922.922 0 0 1 .313-.053c.111 0 .215.018.313.053a.73.73 0 0 1 .27.177l5.5 5.5c.153.152.23.343.23.573a.846.846 0 0 1-.23.593.811.811 0 0 1-.593.25.811.811 0 0 1-.594-.25l-4.063-4.062v9.312c0 .236-.08.434-.24.594a.806.806 0 0 1-.593.24.806.806 0 0 1-.594-.24.806.806 0 0 1-.24-.594V6.521Z"/>
</svg>
