<svg xmlns="http://www.w3.org/2000/svg" width="20" height="20" fill="none" viewBox="0 0 20 20">
  <path fill="#201F1F" d="m10.563 10-1.98 1.98a.777.777 0 0 0-.229.572c0 .23.077.427.23.594.166.166.364.25.593.25.23 0 .427-.084.594-.25l2.562-2.563a.8.8 0 0 0 .25-.583.8.8 0 0 0-.25-.583L9.75 6.833a.763.763 0 0 0-.583-.24.839.839 0 0 0-.584.261.879.879 0 0 0-.24.584.763.763 0 0 0 .24.583L10.563 10Zm7.77 0a8.114 8.114 0 0 1-.656 3.25 8.416 8.416 0 0 1-1.781 2.646 8.416 8.416 0 0 1-2.646 1.781 8.115 8.115 0 0 1-3.25.656 8.115 8.115 0 0 1-3.25-.656 8.415 8.415 0 0 1-2.646-1.781 8.416 8.416 0 0 1-1.781-2.646A8.114 8.114 0 0 1 1.667 10c0-1.153.218-2.236.656-3.25a8.415 8.415 0 0 1 1.781-2.646A8.415 8.415 0 0 1 6.75 2.323 8.115 8.115 0 0 1 10 1.667c1.153 0 2.236.218 3.25.656a8.416 8.416 0 0 1 2.646 1.781 8.415 8.415 0 0 1 1.781 2.646 8.115 8.115 0 0 1 .656 3.25Zm-1.666 0c0-1.861-.646-3.437-1.938-4.73C13.438 3.98 11.861 3.334 10 3.334c-1.861 0-3.437.646-4.73 1.938C3.98 6.563 3.334 8.139 3.334 10c0 1.861.646 3.438 1.938 4.73 1.292 1.29 2.868 1.937 4.729 1.937 1.861 0 3.438-.646 4.73-1.938 1.29-1.291 1.937-2.868 1.937-4.729Z"/>
</svg>
