<svg xmlns="http://www.w3.org/2000/svg" width="20" height="20" fill="none" viewBox="0 0 20 20">
  <path fill="#201F1F" d="M13.48 11.667H5.832v-7.5a.806.806 0 0 0-.24-.594.806.806 0 0 0-.593-.24.806.806 0 0 0-.594.24.806.806 0 0 0-.24.594v7.5c0 .458.164.85.49 1.177.327.326.719.49 1.177.49h7.646l-2.396 2.395a.85.85 0 0 0-.26.594.775.775 0 0 0 .24.594.81.81 0 0 0 .593.25c.23 0 .427-.084.594-.25l3.833-3.834a.732.732 0 0 0 .177-.27.923.923 0 0 0 .052-.313.923.923 0 0 0-.052-.313.731.731 0 0 0-.177-.27L12.23 8.063a.763.763 0 0 0-.583-.24.839.839 0 0 0-.584.26.879.879 0 0 0-.24.584.763.763 0 0 0 .24.583l2.417 2.417Z"/>
</svg>
