<svg xmlns="http://www.w3.org/2000/svg" width="20" height="20" fill="none" viewBox="0 0 20 20">
  <path fill="#201F1F" d="m10 11.52-3.25 3.23a.814.814 0 0 1-.573.24.775.775 0 0 1-.594-.24.79.79 0 0 1-.229-.583.79.79 0 0 1 .23-.584L9.416 9.75a.731.731 0 0 1 .27-.177.922.922 0 0 1 .313-.052c.111 0 .215.017.313.052a.73.73 0 0 1 .27.177l3.834 3.833a.814.814 0 0 1 .24.573.775.775 0 0 1-.24.594.79.79 0 0 1-.584.23.79.79 0 0 1-.583-.23L10 11.52Zm0-5L6.75 9.75a.814.814 0 0 1-.573.24.776.776 0 0 1-.594-.24.79.79 0 0 1-.229-.583.79.79 0 0 1 .23-.584L9.416 4.75a.731.731 0 0 1 .27-.177.922.922 0 0 1 .313-.052c.111 0 .215.017.313.052a.73.73 0 0 1 .27.177l3.834 3.833a.814.814 0 0 1 .24.573.775.775 0 0 1-.24.594.79.79 0 0 1-.584.23.79.79 0 0 1-.583-.23L10 6.52Z"/>
</svg>
