<svg xmlns="http://www.w3.org/2000/svg" width="20" height="20" fill="none" viewBox="0 0 20 20">
  <path fill="#201F1F" d="m6.52 8.333 2.418 2.417a.763.763 0 0 1 .24.583.879.879 0 0 1-.24.584.838.838 0 0 1-.584.26.763.763 0 0 1-.583-.24L3.917 8.084a.731.731 0 0 1-.177-.27.922.922 0 0 1-.053-.313c0-.111.018-.215.053-.312a.731.731 0 0 1 .177-.271l3.812-3.813a.811.811 0 0 1 .594-.25c.23 0 .427.084.594.25a.8.8 0 0 1 .25.584.8.8 0 0 1-.25.583L6.52 6.667h7.646c.458 0 .85.163 1.177.49.326.326.49.718.49 1.176v7.5c0 .237-.08.434-.24.594a.806.806 0 0 1-.594.24.807.807 0 0 1-.594-.24.806.806 0 0 1-.24-.594v-7.5H6.522Z"/>
</svg>
