<svg xmlns="http://www.w3.org/2000/svg" width="20" height="20" fill="none" viewBox="0 0 20 20">
  <path fill="#201F1F" d="M10 18.333a.806.806 0 0 1-.594-.24.806.806 0 0 1-.24-.593V4.854l-3.25 3.23a.814.814 0 0 1-.572.239.776.776 0 0 1-.594-.24.79.79 0 0 1-.23-.583.79.79 0 0 1 .23-.583L9.417 2.25a.731.731 0 0 1 .27-.177A.922.922 0 0 1 10 2.02c.111 0 .215.017.313.052a.731.731 0 0 1 .27.177l4.667 4.667c.153.152.23.343.23.573a.846.846 0 0 1-.23.593.81.81 0 0 1-.594.25.811.811 0 0 1-.594-.25l-3.229-3.229V17.5c0 .236-.08.434-.24.594a.806.806 0 0 1-.593.24Z"/>
</svg>
