<svg xmlns="http://www.w3.org/2000/svg" width="20" height="20" fill="none" viewBox="0 0 20 20">
  <path fill="#201F1F" d="m6.52 10 3.23 3.25a.814.814 0 0 1 .24.573.775.775 0 0 1-.24.594.79.79 0 0 1-.583.229.79.79 0 0 1-.584-.23L4.75 10.584a.73.73 0 0 1-.177-.27.923.923 0 0 1-.052-.313c0-.111.017-.215.052-.312a.731.731 0 0 1 .177-.271l3.833-3.834a.814.814 0 0 1 .573-.24.776.776 0 0 1 .594.24.79.79 0 0 1 .23.584.79.79 0 0 1-.23.583L6.52 10Zm5.5 0 3.23 3.25a.814.814 0 0 1 .24.573.775.775 0 0 1-.24.594.79.79 0 0 1-.583.229.79.79 0 0 1-.584-.23l-3.833-3.833a.73.73 0 0 1-.177-.27.92.92 0 0 1-.052-.313.92.92 0 0 1 .052-.312.73.73 0 0 1 .177-.271l3.833-3.834a.814.814 0 0 1 .573-.24.775.775 0 0 1 .594.24.79.79 0 0 1 .23.584.79.79 0 0 1-.23.583L12.02 10Z"/>
</svg>
