<svg xmlns="http://www.w3.org/2000/svg" width="20" height="20" fill="none" viewBox="0 0 20 20">
  <path fill="#201F1F" d="M13.48 10.833H4.166a.806.806 0 0 1-.594-.24.806.806 0 0 1-.24-.593c0-.236.08-.434.24-.594.16-.16.358-.24.594-.24h9.312L9.396 5.084a.763.763 0 0 1-.24-.583.839.839 0 0 1 .26-.583.879.879 0 0 1 .584-.24.764.764 0 0 1 .583.24l5.5 5.5a.732.732 0 0 1 .178.27.923.923 0 0 1 .052.313.923.923 0 0 1-.052.313.732.732 0 0 1-.178.27l-5.5 5.5a.777.777 0 0 1-.572.23.849.849 0 0 1-.594-.23.811.811 0 0 1-.25-.593c0-.23.083-.428.25-.594l4.062-4.063Z"/>
</svg>
