<svg xmlns="http://www.w3.org/2000/svg" width="20" height="20" fill="none" viewBox="0 0 20 20">
  <path fill="#201F1F" d="m6.52 10.833 4.084 4.084a.763.763 0 0 1 .24.583.838.838 0 0 1-.26.583.878.878 0 0 1-.584.24.763.763 0 0 1-.583-.24l-5.5-5.5a.73.73 0 0 1-.177-.27.922.922 0 0 1-.053-.313c0-.111.018-.215.053-.313a.731.731 0 0 1 .177-.27l5.5-5.5a.777.777 0 0 1 .573-.23c.229 0 .427.077.593.23.167.166.25.364.25.593 0 .23-.083.428-.25.594L6.521 9.167h9.312c.236 0 .434.08.594.24.16.159.24.357.24.593s-.08.434-.24.594a.806.806 0 0 1-.594.24H6.521Z"/>
</svg>
