<svg xmlns="http://www.w3.org/2000/svg" width="20" height="20" fill="none" viewBox="0 0 20 20">
  <path fill="#201F1F" d="M6.52 11.667h7.647v-7.5c0-.236.08-.434.24-.594.159-.16.357-.24.593-.24s.434.08.594.24c.16.16.24.358.24.594v7.5c0 .458-.164.85-.49 1.177-.327.326-.719.49-1.177.49H6.52l2.396 2.395a.85.85 0 0 1 .26.594.776.776 0 0 1-.24.594.811.811 0 0 1-.593.25.811.811 0 0 1-.594-.25l-3.833-3.834a.732.732 0 0 1-.177-.27.922.922 0 0 1-.052-.313c0-.111.017-.215.052-.313a.73.73 0 0 1 .177-.27L7.77 8.063a.763.763 0 0 1 .583-.24.839.839 0 0 1 .584.26.879.879 0 0 1 .24.584.763.763 0 0 1-.24.583L6.52 11.667Z"/>
</svg>
