<svg xmlns="http://www.w3.org/2000/svg" width="20" height="20" fill="none" viewBox="0 0 20 20">
  <path fill="#201F1F" d="M10 17.98a.923.923 0 0 1-.312-.053.73.73 0 0 1-.271-.177L4.75 13.083a.79.79 0 0 1-.23-.583.79.79 0 0 1 .23-.583.776.776 0 0 1 .594-.24c.229.007.42.087.573.24l3.25 3.229V2.5c0-.236.08-.434.24-.594.159-.16.357-.24.593-.24s.434.08.594.24c.16.16.24.358.24.594v12.646l3.229-3.23a.811.811 0 0 1 .593-.25.81.81 0 0 1 .594.25.85.85 0 0 1 .23.594c0 .23-.077.42-.23.573l-4.667 4.667a.73.73 0 0 1-.27.177.922.922 0 0 1-.313.052Z"/>
</svg>
