<svg xmlns="http://www.w3.org/2000/svg" width="20" height="20" fill="none" viewBox="0 0 20 20">
  <path fill="#201F1F" d="M9.833 10.833H12.5c.236 0 .434-.08.594-.24a.803.803 0 0 0 .24-.593.806.806 0 0 0-.24-.594.806.806 0 0 0-.594-.24H9.833l.75-.75a.79.79 0 0 0 .23-.583.79.79 0 0 0-.23-.583.79.79 0 0 0-.583-.23.79.79 0 0 0-.583.23L7.25 9.417A.8.8 0 0 0 7 10a.8.8 0 0 0 .25.583l2.167 2.167a.79.79 0 0 0 .583.23.79.79 0 0 0 .583-.23.79.79 0 0 0 .23-.583.79.79 0 0 0-.23-.584l-.75-.75Zm.167 7.5a8.115 8.115 0 0 1-3.25-.656 8.415 8.415 0 0 1-2.646-1.781 8.416 8.416 0 0 1-1.781-2.646A8.115 8.115 0 0 1 1.667 10c0-1.153.218-2.236.656-3.25a8.415 8.415 0 0 1 1.781-2.646A8.415 8.415 0 0 1 6.75 2.323 8.115 8.115 0 0 1 10 1.667c1.153 0 2.236.218 3.25.656a8.416 8.416 0 0 1 2.646 1.781 8.415 8.415 0 0 1 1.781 2.646 8.115 8.115 0 0 1 .656 3.25 8.115 8.115 0 0 1-.656 3.25 8.416 8.416 0 0 1-1.781 2.646 8.416 8.416 0 0 1-2.646 1.781 8.115 8.115 0 0 1-3.25.656Z"/>
</svg>
