<svg xmlns="http://www.w3.org/2000/svg" width="20" height="20" fill="none" viewBox="0 0 20 20">
  <path fill="#201F1F" d="M15 13.125c0 1.444-.507 2.674-1.52 3.688-1.015 1.013-2.244 1.52-3.688 1.52-1.445 0-2.674-.507-3.688-1.52-1.014-1.014-1.52-2.243-1.52-3.688V5.417c0-1.042.364-1.927 1.093-2.657.73-.729 1.615-1.093 2.656-1.093 1.042 0 1.927.364 2.656 1.093.73.73 1.094 1.615 1.094 2.657v7.291c0 .64-.222 1.18-.666 1.625A2.211 2.211 0 0 1 9.792 15c-.64 0-1.181-.222-1.625-.667a2.211 2.211 0 0 1-.667-1.625V5.833c0-.236.08-.434.24-.593.16-.16.357-.24.593-.24s.434.08.594.24c.16.16.24.357.24.593v6.875a.607.607 0 0 0 .625.625.607.607 0 0 0 .625-.625V5.417a2.106 2.106 0 0 0-.615-1.48 1.977 1.977 0 0 0-1.469-.604c-.583 0-1.076.202-1.479.605a2.012 2.012 0 0 0-.604 1.479v7.708c-.014.986.326 1.823 1.02 2.51.695.688 1.535 1.032 2.522 1.032.972 0 1.798-.344 2.479-1.032.68-.687 1.034-1.524 1.062-2.51V5.833c0-.236.08-.434.24-.593.16-.16.357-.24.594-.24.236 0 .434.08.593.24.16.16.24.357.24.593v7.292Z"/>
</svg>
