<svg xmlns="http://www.w3.org/2000/svg" width="20" height="20" fill="none" viewBox="0 0 20 20">
  <path fill="#201F1F" d="M6.667 18.333a.806.806 0 0 1-.594-.24.807.807 0 0 1-.24-.593V4.167c0-.236.08-.434.24-.594.16-.16.358-.24.594-.24h1.667V2.5c0-.236.08-.434.24-.594a.803.803 0 0 1 .593-.24h1.667c.236 0 .434.08.593.24.16.16.24.358.24.594v.833h1.667c.236 0 .434.08.593.24.16.16.24.358.24.594v5c0 .236-.08.434-.24.593a.806.806 0 0 1-.593.24.807.807 0 0 1-.594-.24.806.806 0 0 1-.24-.593V5h-5v6.667h1.75c.25 0 .43.11.542.333a.643.643 0 0 1-.042.667c-.194.347-.34.715-.437 1.104A5.05 5.05 0 0 0 9.167 15a4.846 4.846 0 0 0 .583 2.333.729.729 0 0 1 0 .677.55.55 0 0 1-.52.323H6.666Zm7.083-2.5h-1.29a.384.384 0 0 1-.365-.218.384.384 0 0 1 .031-.428l2.084-2.979c.069-.083.149-.11.24-.083.09.028.135.097.135.208v1.834h1.291c.167 0 .288.073.365.218a.385.385 0 0 1-.031.428l-2.084 2.979c-.07.083-.15.11-.24.083-.09-.028-.135-.097-.135-.208v-1.834Z"/>
</svg>
