<svg xmlns="http://www.w3.org/2000/svg" width="20" height="20" fill="none" viewBox="0 0 20 20">
  <path fill="#201F1F" d="M9.167 17.146V12l-3.25 3.25a.79.79 0 0 1-.583.23.79.79 0 0 1-.584-.23.79.79 0 0 1-.229-.583.79.79 0 0 1 .23-.584L8.833 10 4.75 5.917a.79.79 0 0 1-.229-.584.79.79 0 0 1 .23-.583.79.79 0 0 1 .582-.23.79.79 0 0 1 .584.23L9.167 8V2.854a.81.81 0 0 1 .25-.614.817.817 0 0 1 1.167.01l3.583 3.583a.73.73 0 0 1 .177.271.923.923 0 0 1 .052.313.923.923 0 0 1-.052.312.73.73 0 0 1-.177.271l-3 3 3 3a.73.73 0 0 1 .177.27.923.923 0 0 1 .052.313.923.923 0 0 1-.052.313.73.73 0 0 1-.177.27l-3.583 3.584a.866.866 0 0 1-.271.188.817.817 0 0 1-.896-.177.814.814 0 0 1-.25-.615ZM10.834 8l1.583-1.583-1.583-1.542V8Zm0 7.125 1.583-1.542L10.834 12v3.125Z"/>
</svg>
