<svg xmlns="http://www.w3.org/2000/svg" width="20" height="20" fill="none" viewBox="0 0 20 20">
  <path fill="#201F1F" d="m9.167 12-3.25 3.25a.79.79 0 0 1-.583.23.79.79 0 0 1-.584-.23.79.79 0 0 1-.229-.583.79.79 0 0 1 .23-.584l3.5-3.5-6.5-6.5a.79.79 0 0 1-.23-.583.79.79 0 0 1 .23-.583.79.79 0 0 1 .583-.23.79.79 0 0 1 .583.23l14.166 14.166a.79.79 0 0 1 .23.584.79.79 0 0 1-.23.583.79.79 0 0 1-.583.23.79.79 0 0 1-.583-.23L13 15.333l-2.416 2.417a.866.866 0 0 1-.271.188.817.817 0 0 1-.896-.177.814.814 0 0 1-.25-.615V12Zm1.667 3.125.958-.958-.958-.959v1.917Zm.916-5.708L10.584 8.25l1.833-1.833-1.583-1.542V8.5L9.167 6.833V2.854a.81.81 0 0 1 .25-.614.817.817 0 0 1 1.167.01l3.583 3.583a.73.73 0 0 1 .177.271.923.923 0 0 1 .052.313.923.923 0 0 1-.052.312.73.73 0 0 1-.177.271L11.75 9.417Z"/>
</svg>
