<svg viewBox="0 0 20 20" fill="none" xmlns="http://www.w3.org/2000/svg">
<path d="M8.33334 15.8334L4.54168 17.7292C4.2639 17.8681 3.99307 17.8577 3.72918 17.6979C3.46529 17.5382 3.33334 17.2986 3.33334 16.9792V6.66669C3.33334 6.20835 3.49654 5.81599 3.82293 5.4896C4.14932 5.16321 4.54168 5.00002 5.00001 5.00002H11.6667C12.125 5.00002 12.5174 5.16321 12.8438 5.4896C13.1701 5.81599 13.3333 6.20835 13.3333 6.66669V16.9792C13.3333 17.2986 13.2014 17.5382 12.9375 17.6979C12.6736 17.8577 12.4028 17.8681 12.125 17.7292L8.33334 15.8334ZM15.8333 15C15.5972 15 15.3993 14.9202 15.2396 14.7604C15.0799 14.6007 15 14.4028 15 14.1667V3.33335H6.66668C6.43057 3.33335 6.23265 3.25349 6.07293 3.09377C5.9132 2.93405 5.83334 2.73613 5.83334 2.50002C5.83334 2.26391 5.9132 2.06599 6.07293 1.90627C6.23265 1.74655 6.43057 1.66669 6.66668 1.66669H15C15.4583 1.66669 15.8507 1.82988 16.1771 2.15627C16.5035 2.48266 16.6667 2.87502 16.6667 3.33335V14.1667C16.6667 14.4028 16.5868 14.6007 16.4271 14.7604C16.2674 14.9202 16.0695 15 15.8333 15Z" fill="currentColor"/>
</svg>