<svg xmlns="http://www.w3.org/2000/svg" width="20" height="20" fill="none" viewBox="0 0 20 20">
  <path fill="#201F1F" d="M4.167 16.667a.806.806 0 0 1-.594-.24.807.807 0 0 1-.24-.594v-7.5c0-.236.08-.434.24-.593.16-.16.358-.24.594-.24h1.667c.236 0 .434.08.593.24.16.16.24.357.24.593v7.5c0 .236-.08.434-.24.594a.806.806 0 0 1-.593.24H4.167Zm0-10a.806.806 0 0 1-.594-.24.806.806 0 0 1-.24-.594V4.167c0-.236.08-.434.24-.594.16-.16.358-.24.594-.24h1.667c.236 0 .434.08.593.24.16.16.24.358.24.594v1.666c0 .236-.08.434-.24.594a.806.806 0 0 1-.593.24H4.167Zm5 10a.806.806 0 0 1-.594-.24.807.807 0 0 1-.24-.594v-5c0-.236.08-.434.24-.593.16-.16.358-.24.594-.24h1.667c.236 0 .434.08.593.24.16.16.24.357.24.593v5c0 .236-.08.434-.24.594a.806.806 0 0 1-.593.24H9.167Zm0-7.5a.806.806 0 0 1-.594-.24.806.806 0 0 1-.24-.594V6.667c0-.236.08-.434.24-.594.16-.16.358-.24.594-.24h1.667c.236 0 .434.08.593.24.16.16.24.358.24.594v1.666c0 .236-.08.434-.24.594a.806.806 0 0 1-.593.24H9.167Zm5 7.5a.806.806 0 0 1-.594-.24.807.807 0 0 1-.24-.594v-2.5c0-.236.08-.434.24-.593.16-.16.358-.24.594-.24h1.667c.236 0 .433.08.593.24.16.16.24.357.24.593v2.5c0 .236-.08.434-.24.594a.806.806 0 0 1-.593.24h-1.667Zm0-5a.806.806 0 0 1-.594-.24.807.807 0 0 1-.24-.594V9.167c0-.236.08-.434.24-.594.16-.16.358-.24.594-.24h1.667c.236 0 .433.08.593.24.16.16.24.358.24.594v1.666c0 .236-.08.434-.24.594a.806.806 0 0 1-.593.24h-1.667Z"/>
</svg>
