<svg xmlns="http://www.w3.org/2000/svg" width="20" height="20" fill="none" viewBox="0 0 20 20">
  <path fill="#201F1F" d="M10 11.167 5.917 15.25a.79.79 0 0 1-.584.23.79.79 0 0 1-.583-.23.79.79 0 0 1-.23-.583.79.79 0 0 1 .23-.584L8.833 10 4.75 5.917a.79.79 0 0 1-.23-.584.79.79 0 0 1 .23-.583.79.79 0 0 1 .583-.23.79.79 0 0 1 .584.23L10 8.833l4.083-4.083a.79.79 0 0 1 .584-.23.79.79 0 0 1 .583.23.79.79 0 0 1 .23.583.79.79 0 0 1-.23.584L11.167 10l4.083 4.083a.79.79 0 0 1 .23.584.79.79 0 0 1-.23.583.79.79 0 0 1-.583.23.79.79 0 0 1-.584-.23L10 11.167Z"/>
</svg>
