<svg xmlns="http://www.w3.org/2000/svg" width="20" height="20" fill="none" viewBox="0 0 20 20">
  <path fill="#201F1F" d="M7.5 15c-.458 0-.85-.163-1.177-.49a1.605 1.605 0 0 1-.49-1.177v-10c0-.458.164-.85.49-1.177.326-.326.719-.49 1.177-.49H15c.458 0 .85.164 1.177.49.326.327.49.719.49 1.177v10c0 .459-.164.851-.49 1.177-.326.327-.719.49-1.177.49H7.5Zm0-1.667H15v-10H7.5v10ZM3.333 6.667a.806.806 0 0 1-.593-.24.806.806 0 0 1-.24-.594c0-.236.08-.434.24-.593.16-.16.357-.24.593-.24s.434.08.594.24c.16.16.24.357.24.593s-.08.434-.24.594a.806.806 0 0 1-.594.24Zm0 2.916a.806.806 0 0 1-.593-.24.806.806 0 0 1-.24-.593c0-.236.08-.434.24-.594.16-.16.357-.24.593-.24s.434.08.594.24c.16.16.24.358.24.594s-.08.434-.24.594a.806.806 0 0 1-.594.24Zm0 2.917a.806.806 0 0 1-.593-.24.806.806 0 0 1-.24-.593c0-.236.08-.434.24-.594.16-.16.357-.24.593-.24s.434.08.594.24c.16.16.24.358.24.594s-.08.434-.24.593a.806.806 0 0 1-.594.24Zm0 2.917a.806.806 0 0 1-.593-.24.806.806 0 0 1-.24-.594c0-.236.08-.434.24-.593.16-.16.357-.24.593-.24s.434.08.594.24c.16.16.24.357.24.593s-.08.434-.24.594a.806.806 0 0 1-.594.24Zm0 2.916a.806.806 0 0 1-.593-.24.807.807 0 0 1-.24-.593c0-.236.08-.434.24-.594.16-.16.357-.24.593-.24s.434.08.594.24c.16.16.24.358.24.594s-.08.434-.24.594a.806.806 0 0 1-.594.24Zm2.917 0a.806.806 0 0 1-.594-.24.807.807 0 0 1-.24-.593c0-.236.08-.434.24-.594.16-.16.358-.24.594-.24s.434.08.594.24c.16.16.24.358.24.594s-.08.434-.24.594a.806.806 0 0 1-.594.24Zm2.917 0a.806.806 0 0 1-.594-.24.807.807 0 0 1-.24-.593c0-.236.08-.434.24-.594.16-.16.358-.24.594-.24s.434.08.593.24c.16.16.24.358.24.594s-.08.434-.24.594a.806.806 0 0 1-.593.24Zm2.916 0a.806.806 0 0 1-.593-.24.807.807 0 0 1-.24-.593c0-.236.08-.434.24-.594.16-.16.357-.24.593-.24s.434.08.594.24c.16.16.24.358.24.594s-.08.434-.24.594a.807.807 0 0 1-.594.24Z"/>
</svg>
