<svg xmlns="http://www.w3.org/2000/svg" width="20" height="20" fill="none" viewBox="0 0 20 20">
  <path fill="#201F1F" d="M10 18.333a8.115 8.115 0 0 1-3.25-.656 8.416 8.416 0 0 1-2.646-1.781 8.415 8.415 0 0 1-1.781-2.646A8.115 8.115 0 0 1 1.667 10c0-1.583.413-3.045 1.24-4.385A8.166 8.166 0 0 1 6.27 2.542c.014.264.041.53.083.802.042.27.111.587.208.948a6.712 6.712 0 0 0-2.364 2.427A6.492 6.492 0 0 0 3.333 10c0 1.861.646 3.438 1.938 4.73 1.291 1.29 2.868 1.937 4.729 1.937 1.86 0 3.437-.646 4.729-1.938 1.292-1.291 1.938-2.868 1.938-4.729 0-1.18-.289-2.278-.865-3.292a6.634 6.634 0 0 0-2.386-2.437 8.85 8.85 0 0 0 .209-.948c.041-.27.076-.531.104-.781a8.188 8.188 0 0 1 3.365 3.062A8.182 8.182 0 0 1 18.334 10a8.115 8.115 0 0 1-.657 3.25 8.415 8.415 0 0 1-1.781 2.646 8.416 8.416 0 0 1-2.646 1.781 8.114 8.114 0 0 1-3.25.656ZM10 15c-1.389 0-2.57-.486-3.542-1.458C5.486 12.569 5 11.389 5 10c0-.806.177-1.563.531-2.27a4.818 4.818 0 0 1 1.51-1.772c.07.209.146.448.23.72.083.27.194.607.333 1.01A3.258 3.258 0 0 0 6.666 10c0 .916.327 1.7.98 2.353a3.21 3.21 0 0 0 2.354.98 3.21 3.21 0 0 0 2.354-.98 3.21 3.21 0 0 0 .98-2.354 3.258 3.258 0 0 0-.938-2.313c.11-.333.211-.642.302-.927.09-.284.17-.552.24-.802a4.912 4.912 0 0 1 1.52 1.771A4.93 4.93 0 0 1 15 10c0 1.389-.486 2.57-1.459 3.542C12.57 14.514 11.39 15 10 15Zm-.25-7.917a.734.734 0 0 1-.469-.156A.845.845 0 0 1 9 6.521l-.834-2.708a7.278 7.278 0 0 1-.197-.948 6.146 6.146 0 0 1-.053-.782c0-.583.202-1.076.605-1.479A2.012 2.012 0 0 1 10 0c.583 0 1.076.201 1.479.604.403.403.604.896.604 1.48 0 .25-.017.51-.052.78-.035.271-.1.587-.198.949L11 6.52a.845.845 0 0 1-.281.406.734.734 0 0 1-.47.156h-.5Zm.25 4.584c-.459 0-.85-.163-1.177-.49A1.605 1.605 0 0 1 8.333 10c0-.458.163-.85.49-1.177.326-.326.718-.49 1.177-.49.458 0 .85.164 1.177.49.326.326.49.719.49 1.177 0 .458-.164.85-.49 1.177-.326.327-.719.49-1.177.49Z"/>
</svg>
