<svg xmlns="http://www.w3.org/2000/svg" width="20" height="20" fill="none" viewBox="0 0 20 20">
  <path fill="#201F1F" d="m10 11.667-1.958 1.958c.11.208.187.43.229.667.042.236.062.472.062.708a3.21 3.21 0 0 1-.979 2.354 3.21 3.21 0 0 1-2.354.98 3.21 3.21 0 0 1-2.354-.98A3.21 3.21 0 0 1 1.666 15c0-.917.327-1.701.98-2.354A3.21 3.21 0 0 1 5 11.666c.236 0 .472.021.708.063.236.042.459.118.667.23L8.333 10 6.375 8.042c-.208.11-.43.187-.667.229A4.068 4.068 0 0 1 5 8.333a3.21 3.21 0 0 1-2.354-.979A3.21 3.21 0 0 1 1.666 5c0-.917.327-1.701.98-2.354A3.21 3.21 0 0 1 5 1.666a3.21 3.21 0 0 1 2.354.98A3.21 3.21 0 0 1 8.334 5c0 .236-.021.472-.063.708a2.231 2.231 0 0 1-.23.667l9.126 9.125c.375.375.458.802.25 1.281-.209.48-.577.719-1.105.719-.152 0-.302-.031-.447-.094a1.22 1.22 0 0 1-.386-.26L10 11.666Zm2.5-2.5L10.833 7.5l4.646-4.646a1.22 1.22 0 0 1 .386-.26c.145-.063.295-.094.447-.094.528 0 .893.243 1.094.73.202.485.115.916-.26 1.29L12.5 9.168ZM5 6.667c.458 0 .85-.164 1.177-.49.326-.326.49-.719.49-1.177 0-.458-.164-.85-.49-1.177A1.605 1.605 0 0 0 5 3.333c-.458 0-.85.164-1.177.49-.326.326-.49.719-.49 1.177 0 .458.164.85.49 1.177.326.326.719.49 1.177.49Zm5 3.75a.4.4 0 0 0 .292-.125.4.4 0 0 0 0-.584.4.4 0 0 0-.584 0 .4.4 0 0 0 0 .584.4.4 0 0 0 .292.125Zm-5 6.25c.458 0 .85-.164 1.177-.49.326-.326.49-.719.49-1.177 0-.458-.164-.85-.49-1.177A1.605 1.605 0 0 0 5 13.333c-.458 0-.85.163-1.177.49-.326.326-.49.719-.49 1.177 0 .458.164.85.49 1.177.326.326.719.49 1.177.49Z"/>
</svg>
