<svg xmlns="http://www.w3.org/2000/svg" width="20" height="20" fill="none" viewBox="0 0 20 20">
  <path fill="#201F1F" d="M10 12.98a.923.923 0 0 1-.312-.053.73.73 0 0 1-.271-.177l-3-3a.763.763 0 0 1-.24-.583.85.85 0 0 1 .833-.844.776.776 0 0 1 .594.24l1.563 1.562V4.167c0-.236.08-.434.24-.594.159-.16.357-.24.593-.24s.434.08.594.24c.16.16.24.358.24.594v5.958l1.562-1.562a.775.775 0 0 1 .594-.24.85.85 0 0 1 .833.844.764.764 0 0 1-.24.583l-3 3a.73.73 0 0 1-.27.177.922.922 0 0 1-.313.052Zm-5 3.687c-.458 0-.85-.164-1.177-.49A1.605 1.605 0 0 1 3.333 15v-1.667c0-.236.08-.434.24-.593.16-.16.358-.24.594-.24s.434.08.593.24c.16.16.24.357.24.593V15h10v-1.667c0-.236.08-.434.24-.593.16-.16.357-.24.593-.24.237 0 .434.08.594.24.16.16.24.357.24.593V15c0 .458-.164.85-.49 1.177-.326.326-.719.49-1.177.49H5Z"/>
</svg>
