<svg xmlns="http://www.w3.org/2000/svg" width="20" height="20" fill="none" viewBox="0 0 20 20">
  <path fill="#201F1F" d="M7.958 10.958 15 3.917a.811.811 0 0 1 .594-.25c.229 0 .427.083.594.25.166.166.25.364.25.593 0 .23-.084.427-.25.594L8.541 12.75a.8.8 0 0 1-.584.25.8.8 0 0 1-.583-.25L3.812 9.187a.776.776 0 0 1-.24-.593A.85.85 0 0 1 3.834 8a.811.811 0 0 1 .594-.25.81.81 0 0 1 .594.25l2.937 2.958ZM5 16.667a.806.806 0 0 1-.594-.24.806.806 0 0 1-.24-.594c0-.236.08-.434.24-.594A.806.806 0 0 1 5 15h10c.236 0 .434.08.594.24.16.16.24.357.24.593s-.08.434-.24.594a.806.806 0 0 1-.594.24H5Z"/>
</svg>
