<svg xmlns="http://www.w3.org/2000/svg" width="20" height="20" fill="none" viewBox="0 0 20 20">
  <path fill="#201F1F" d="M10 11.667a.806.806 0 0 1-.594-.24.806.806 0 0 1-.24-.594V5c0-.236.08-.434.24-.594.16-.16.358-.24.594-.24s.434.08.594.24c.16.16.24.358.24.594v5.833c0 .236-.08.434-.24.594a.807.807 0 0 1-.594.24Zm0 4.166a.806.806 0 0 1-.594-.24.807.807 0 0 1-.24-.593c0-.236.08-.434.24-.594.16-.16.358-.24.594-.24s.434.08.594.24c.16.16.24.358.24.594s-.08.434-.24.594a.807.807 0 0 1-.594.24Z"/>
</svg>
