<svg xmlns="http://www.w3.org/2000/svg" width="20" height="20" fill="none" viewBox="0 0 20 20">
  <path fill="#201F1F" d="M1.667 10c0-1.153.218-2.236.656-3.25a8.415 8.415 0 0 1 1.781-2.646A8.415 8.415 0 0 1 6.75 2.323 8.115 8.115 0 0 1 10 1.667c1.764 0 3.337.486 4.719 1.458a8.378 8.378 0 0 1 3.01 3.77c.097.237.1.473.01.71a.78.78 0 0 1-1.125.416.92.92 0 0 1-.427-.5 6.668 6.668 0 0 0-1.437-2.208 6.413 6.413 0 0 0-2.25-1.48v.334c0 .458-.163.85-.49 1.177-.326.326-.719.49-1.177.49H9.166V7.5c0 .236-.08.434-.24.594a.806.806 0 0 1-.593.24H6.666V10H7.5c.236 0 .434.08.594.24.16.16.24.357.24.593V12.5H7.5l-4-4c-.042.25-.08.5-.115.75-.034.25-.052.5-.052.75 0 1.694.56 3.174 1.677 4.438 1.118 1.262 2.525 1.992 4.22 2.187a.869.869 0 0 1 .552.281c.146.16.219.358.219.594s-.08.434-.24.594a.657.657 0 0 1-.573.198c-2.125-.209-3.91-1.098-5.354-2.667C2.39 14.055 1.666 12.181 1.666 10ZM17 17.333l-2.084-2.083a5.194 5.194 0 0 1-.937.417 3.338 3.338 0 0 1-1.063.166c-1.041 0-1.927-.364-2.656-1.093-.729-.73-1.094-1.615-1.094-2.657 0-1.041.365-1.927 1.094-2.656.73-.73 1.615-1.094 2.656-1.094 1.042 0 1.928.365 2.657 1.094.729.73 1.093 1.615 1.093 2.656 0 .375-.055.73-.166 1.063a5.2 5.2 0 0 1-.417.937l2.084 2.084a.79.79 0 0 1 .229.583.79.79 0 0 1-.23.583.79.79 0 0 1-.583.23.79.79 0 0 1-.583-.23Zm-4.084-3.166c.584 0 1.077-.202 1.48-.604.402-.403.604-.896.604-1.48 0-.583-.202-1.076-.604-1.479a2.012 2.012 0 0 0-1.48-.604c-.583 0-1.076.201-1.479.604a2.012 2.012 0 0 0-.604 1.48c0 .583.202 1.076.604 1.479.403.402.896.604 1.48.604Z"/>
</svg>
