<svg xmlns="http://www.w3.org/2000/svg" width="20" height="20" fill="none" viewBox="0 0 20 20">
  <path fill="#201F1F" d="M9.167 15a.806.806 0 0 1-.594-.24.806.806 0 0 1-.24-.593c0-.236.08-.434.24-.594.16-.16.358-.24.594-.24h1.666c.236 0 .434.08.594.24.16.16.24.358.24.594s-.08.434-.24.593a.807.807 0 0 1-.594.24H9.167Zm-3.334-4.167a.806.806 0 0 1-.593-.24A.807.807 0 0 1 5 10c0-.236.08-.434.24-.594.16-.16.357-.24.593-.24h8.334c.236 0 .434.08.593.24.16.16.24.358.24.594s-.08.434-.24.594a.806.806 0 0 1-.593.24H5.833Zm-2.5-4.166a.806.806 0 0 1-.593-.24.806.806 0 0 1-.24-.594c0-.236.08-.434.24-.593.16-.16.357-.24.593-.24h13.334c.236 0 .434.08.593.24.16.16.24.357.24.593s-.08.434-.24.594a.806.806 0 0 1-.593.24H3.333Z"/>
</svg>
