<svg xmlns="http://www.w3.org/2000/svg" width="20" height="20" fill="none" viewBox="0 0 20 20">
  <path fill="#201F1F" d="m12.333 9.98-1.187-1.188L14.125 5h-6.77L5.686 3.333h10.146c.347 0 .597.153.75.459.153.305.125.597-.083.875l-4.167 5.312Zm-.666 4.04v1.813c0 .236-.08.434-.24.594a.807.807 0 0 1-.594.24H9.167a.806.806 0 0 1-.594-.24.806.806 0 0 1-.24-.594v-5.146L1.75 4.104a.777.777 0 0 1-.23-.573.85.85 0 0 1 .23-.594.811.811 0 0 1 .594-.25c.229 0 .427.084.593.25l14.146 14.146a.764.764 0 0 1 .24.584.839.839 0 0 1-.26.583.88.88 0 0 1-.584.24.763.763 0 0 1-.583-.24l-4.23-4.23Z"/>
</svg>
