<svg xmlns="http://www.w3.org/2000/svg" width="20" height="20" fill="none" viewBox="0 0 20 20">
  <path fill="#201F1F" d="M15.896 18.25 1.729 4.104a.811.811 0 0 1-.25-.594c0-.229.083-.427.25-.593a.811.811 0 0 1 .594-.25c.229 0 .427.083.594.25l14.166 14.166a.8.8 0 0 1 .25.584.8.8 0 0 1-.25.583.812.812 0 0 1-.593.25.811.811 0 0 1-.594-.25Zm-2.354-7.417a.841.841 0 0 1-.604-.24.79.79 0 0 1-.25-.593c0-.222.08-.417.239-.583a.814.814 0 0 1 .615-.25h.625c.236 0 .434.08.593.24.16.159.24.357.24.593s-.08.434-.24.594a.807.807 0 0 1-.593.24h-.625ZM9.375 6.667a.841.841 0 0 1-.604-.24.79.79 0 0 1-.25-.594c0-.222.08-.416.24-.583A.814.814 0 0 1 9.374 5h7.292c.236 0 .434.08.593.24.16.16.24.357.24.593s-.08.434-.24.594a.806.806 0 0 1-.593.24H9.375ZM9.167 15a.806.806 0 0 1-.594-.24.806.806 0 0 1-.24-.593c0-.236.08-.434.24-.594.16-.16.358-.24.594-.24h1.666c.236 0 .434.08.594.24.16.16.24.357.24.594 0 .236-.08.434-.24.593a.806.806 0 0 1-.594.24H9.167Zm-3.334-4.167a.806.806 0 0 1-.593-.24A.806.806 0 0 1 5 10c0-.236.08-.434.24-.594.16-.16.357-.24.593-.24h2.625v1.667H5.833Zm-2.5-4.166a.806.806 0 0 1-.593-.24.806.806 0 0 1-.24-.594c0-.236.08-.434.24-.593.16-.16.357-.24.593-.24h.959v1.667h-.959Z"/>
</svg>
