<svg xmlns="http://www.w3.org/2000/svg" width="20" height="20" fill="none" viewBox="0 0 20 20">
  <path fill="#201F1F" d="M5.833 15a.806.806 0 0 1-.593-.24.806.806 0 0 1-.24-.593V5.833c0-.236.08-.434.24-.593.16-.16.357-.24.593-.24s.434.08.594.24c.16.16.24.357.24.593v8.334c0 .236-.08.434-.24.593a.806.806 0 0 1-.594.24Zm5.667-5 3.25 3.25a.79.79 0 0 1 .23.583.79.79 0 0 1-.23.584.79.79 0 0 1-.583.229.79.79 0 0 1-.584-.23L9.75 10.584a.73.73 0 0 1-.177-.27A.922.922 0 0 1 9.52 10c0-.111.017-.215.052-.313a.731.731 0 0 1 .177-.27l3.833-3.834a.79.79 0 0 1 .584-.229.79.79 0 0 1 .583.23.79.79 0 0 1 .23.583.79.79 0 0 1-.23.583L11.5 10Z"/>
</svg>
