<svg xmlns="http://www.w3.org/2000/svg" width="20" height="20" fill="none" viewBox="0 0 20 20">
  <path fill="#201F1F" d="M16.667 6.667V5H15a.806.806 0 0 1-.594-.24.806.806 0 0 1-.24-.593c0-.236.08-.434.24-.594.16-.16.358-.24.594-.24h1.667c.458 0 .85.164 1.177.49.326.326.49.719.49 1.177v1.667c0 .236-.08.434-.24.593a.806.806 0 0 1-.594.24.806.806 0 0 1-.594-.24.806.806 0 0 1-.24-.593Zm-15 0V5c0-.458.163-.85.49-1.177.326-.326.718-.49 1.176-.49H5c.236 0 .434.08.594.24.16.16.24.358.24.594s-.08.434-.24.593A.806.806 0 0 1 5 5H3.333v1.667c0 .236-.08.434-.24.593a.806.806 0 0 1-.593.24.806.806 0 0 1-.594-.24.806.806 0 0 1-.24-.593Zm15 10H15a.806.806 0 0 1-.594-.24.806.806 0 0 1-.24-.594c0-.236.08-.434.24-.593.16-.16.358-.24.594-.24h1.667v-1.667c0-.236.08-.434.24-.593.159-.16.357-.24.593-.24s.434.08.594.24c.16.16.24.357.24.593V15c0 .458-.164.85-.49 1.177-.327.326-.719.49-1.177.49Zm-13.334 0c-.458 0-.85-.164-1.177-.49A1.605 1.605 0 0 1 1.666 15v-1.667c0-.236.08-.434.24-.593.16-.16.358-.24.594-.24s.434.08.594.24c.16.16.24.357.24.593V15H5c.236 0 .434.08.594.24.16.16.24.357.24.593 0 .237-.08.434-.24.594a.806.806 0 0 1-.594.24H3.333Zm1.667-5V8.333c0-.458.163-.85.49-1.177.326-.326.718-.49 1.177-.49h6.666c.459 0 .851.164 1.177.49.327.327.49.719.49 1.177v3.334c0 .458-.163.85-.49 1.177-.326.326-.718.49-1.177.49H6.667c-.459 0-.851-.164-1.177-.49A1.605 1.605 0 0 1 5 11.667Z"/>
</svg>
