<svg viewBox="0 0 20 20" fill="none" xmlns="http://www.w3.org/2000/svg">
<path d="M3.33317 16.6667C2.87484 16.6667 2.48248 16.5035 2.15609 16.1771C1.8297 15.8507 1.6665 15.4584 1.6665 15V5.00004C1.6665 4.54171 1.8297 4.14935 2.15609 3.82296C2.48248 3.49657 2.87484 3.33337 3.33317 3.33337H7.64567C7.86789 3.33337 8.0797 3.37504 8.28109 3.45837C8.48248 3.54171 8.65956 3.65976 8.81234 3.81254L9.99984 5.00004H16.6665C17.1248 5.00004 17.5172 5.16324 17.8436 5.48962C18.17 5.81601 18.3332 6.20837 18.3332 6.66671V15C18.3332 15.4584 18.17 15.8507 17.8436 16.1771C17.5172 16.5035 17.1248 16.6667 16.6665 16.6667H3.33317ZM3.33317 15H16.6665V6.66671H9.31234L7.64567 5.00004H3.33317V15ZM9.1665 14.1667H15.8332V13.7084C15.8332 13.0834 15.5276 12.5868 14.9165 12.2188C14.3054 11.8507 13.4998 11.6667 12.4998 11.6667C11.4998 11.6667 10.6943 11.8507 10.0832 12.2188C9.47206 12.5868 9.1665 13.0834 9.1665 13.7084V14.1667ZM12.4998 10.8334C12.9582 10.8334 13.3505 10.6702 13.6769 10.3438C14.0033 10.0174 14.1665 9.62504 14.1665 9.16671C14.1665 8.70837 14.0033 8.31601 13.6769 7.98962C13.3505 7.66324 12.9582 7.50004 12.4998 7.50004C12.0415 7.50004 11.6491 7.66324 11.3228 7.98962C10.9964 8.31601 10.8332 8.70837 10.8332 9.16671C10.8332 9.62504 10.9964 10.0174 11.3228 10.3438C11.6491 10.6702 12.0415 10.8334 12.4998 10.8334Z" fill="currentColor"/>
</svg>