<svg xmlns="http://www.w3.org/2000/svg" width="20" height="20" fill="none" viewBox="0 0 20 20">
  <path fill="#201F1F" d="m15.98 9.167-3.23-3.23a.811.811 0 0 1-.25-.593.81.81 0 0 1 .25-.594.849.849 0 0 1 .594-.23c.229 0 .42.077.573.23l3.833 3.833a.732.732 0 0 1 .177.271.923.923 0 0 1 .052.313.923.923 0 0 1-.052.312.732.732 0 0 1-.177.271l-3.833 3.833a.763.763 0 0 1-.584.24.878.878 0 0 1-.583-.24.838.838 0 0 1-.26-.583.764.764 0 0 1 .24-.583l3.25-3.25Zm-5 .833H5.832a2.41 2.41 0 0 0-1.77.73 2.411 2.411 0 0 0-.73 1.77V15c0 .236-.08.434-.24.594a.806.806 0 0 1-.593.24.806.806 0 0 1-.594-.24.806.806 0 0 1-.24-.594v-2.5c0-1.153.407-2.135 1.22-2.948.812-.812 1.795-1.219 2.947-1.219h5.146L8.583 5.937a.811.811 0 0 1-.25-.593c0-.23.084-.427.25-.594a.849.849 0 0 1 .594-.23c.23 0 .42.077.573.23l3.833 3.833a.731.731 0 0 1 .178.271.923.923 0 0 1 .052.313.923.923 0 0 1-.053.312.731.731 0 0 1-.177.271L9.75 13.583a.763.763 0 0 1-.583.24.879.879 0 0 1-.584-.24.839.839 0 0 1-.26-.583.764.764 0 0 1 .24-.583L10.979 10Z"/>
</svg>
