<svg xmlns="http://www.w3.org/2000/svg" width="20" height="20" fill="none" viewBox="0 0 20 20">
  <path fill="#201F1F" d="M4.167 15.833h1.666c.236 0 .434.08.594.24.16.16.24.358.24.594s-.08.434-.24.593a.806.806 0 0 1-.594.24h-2.5a.806.806 0 0 1-.593-.24.806.806 0 0 1-.24-.593v-2.5c0-.236.08-.434.24-.594.16-.16.357-.24.593-.24s.434.08.594.24c.16.16.24.358.24.594v1.666Zm11.666 0v-1.666c0-.236.08-.434.24-.594.16-.16.358-.24.594-.24s.434.08.593.24c.16.16.24.358.24.594v2.5c0 .236-.08.434-.24.593a.806.806 0 0 1-.593.24h-2.5a.807.807 0 0 1-.594-.24.806.806 0 0 1-.24-.593c0-.236.08-.434.24-.594.16-.16.358-.24.594-.24h1.666ZM4.167 4.167v1.666c0 .236-.08.434-.24.594a.806.806 0 0 1-.594.24.806.806 0 0 1-.593-.24.806.806 0 0 1-.24-.594v-2.5c0-.236.08-.434.24-.593.16-.16.357-.24.593-.24h2.5c.236 0 .434.08.594.24.16.16.24.357.24.593s-.08.434-.24.594a.806.806 0 0 1-.594.24H4.167Zm11.666 0h-1.666a.806.806 0 0 1-.594-.24.806.806 0 0 1-.24-.594c0-.236.08-.434.24-.593.16-.16.358-.24.594-.24h2.5c.236 0 .434.08.593.24.16.16.24.357.24.593v2.5c0 .236-.08.434-.24.594a.806.806 0 0 1-.593.24.806.806 0 0 1-.594-.24.806.806 0 0 1-.24-.594V4.167Z"/>
</svg>
