<svg xmlns="http://www.w3.org/2000/svg" width="20" height="20" fill="none" viewBox="0 0 20 20">
  <path fill="#201F1F" d="M5 15.833h2.5v-4.166c0-.236.08-.434.24-.594.16-.16.357-.24.593-.24h3.334c.236 0 .434.08.594.24.16.16.239.358.239.594v4.166H15v-7.5l-5-3.75-5 3.75v7.5Zm-1.667 0v-7.5A1.655 1.655 0 0 1 4 7l5-3.75a1.606 1.606 0 0 1 1-.333c.375 0 .708.11 1 .333L16 7a1.654 1.654 0 0 1 .667 1.333v7.5c0 .459-.164.851-.49 1.177-.326.327-.719.49-1.177.49h-3.333a.806.806 0 0 1-.594-.24.806.806 0 0 1-.24-.593V12.5H9.167v4.167c0 .236-.08.434-.24.593a.806.806 0 0 1-.594.24H5c-.458 0-.85-.163-1.177-.49a1.605 1.605 0 0 1-.49-1.177Z"/>
</svg>
