<svg xmlns="http://www.w3.org/2000/svg" width="20" height="20" fill="none" viewBox="0 0 20 20">
  <path fill="#201F1F" d="M3.333 15.833v-7.5A1.655 1.655 0 0 1 4 7l5-3.75a1.606 1.606 0 0 1 1-.333c.375 0 .708.11 1 .333L16 7a1.654 1.654 0 0 1 .667 1.333v7.5c0 .459-.164.851-.49 1.177-.326.327-.719.49-1.177.49h-2.5a.806.806 0 0 1-.594-.24.806.806 0 0 1-.24-.593V12.5a.806.806 0 0 0-.239-.594.806.806 0 0 0-.594-.24H9.167a.806.806 0 0 0-.594.24.806.806 0 0 0-.24.594v4.167c0 .236-.08.434-.24.593a.806.806 0 0 1-.593.24H5c-.458 0-.85-.163-1.177-.49a1.605 1.605 0 0 1-.49-1.177Z"/>
</svg>
