<svg xmlns="http://www.w3.org/2000/svg" width="20" height="20" fill="none" viewBox="0 0 20 20">
  <path fill="#201F1F" d="M6.667 16.667h6.666v-2.5a3.21 3.21 0 0 0-.979-2.354 3.21 3.21 0 0 0-2.354-.98 3.21 3.21 0 0 0-2.354.98 3.21 3.21 0 0 0-.98 2.354v2.5ZM10 9.167a3.21 3.21 0 0 0 2.354-.98 3.21 3.21 0 0 0 .98-2.354v-2.5H6.666v2.5c0 .917.326 1.702.979 2.354a3.21 3.21 0 0 0 2.354.98Zm-5.833 9.166a.806.806 0 0 1-.594-.24.806.806 0 0 1-.24-.593c0-.236.08-.434.24-.594.16-.16.358-.24.594-.24H5v-2.5c0-.847.198-1.642.594-2.385A4.644 4.644 0 0 1 7.25 10a4.644 4.644 0 0 1-1.656-1.781A4.998 4.998 0 0 1 5 5.833v-2.5h-.833a.806.806 0 0 1-.594-.24.806.806 0 0 1-.24-.593c0-.236.08-.434.24-.594.16-.16.358-.24.594-.24h11.666c.236 0 .434.08.594.24.16.16.24.358.24.594s-.08.434-.24.594a.806.806 0 0 1-.594.24H15v2.5c0 .847-.198 1.642-.594 2.385A4.644 4.644 0 0 1 12.75 10a4.644 4.644 0 0 1 1.656 1.781c.396.743.594 1.538.594 2.386v2.5h.833c.236 0 .434.08.594.24.16.159.24.357.24.593s-.08.434-.24.594a.807.807 0 0 1-.594.24H4.167Z"/>
</svg>
