<svg xmlns="http://www.w3.org/2000/svg" width="20" height="20" fill="none" viewBox="0 0 20 20">
  <path fill="#201F1F" d="M10 5.833c-.458 0-.85-.163-1.177-.49a1.605 1.605 0 0 1-.49-1.176c0-.459.164-.851.49-1.177.326-.327.719-.49 1.177-.49.458 0 .85.163 1.177.49.327.326.49.718.49 1.177 0 .458-.163.85-.49 1.177-.326.326-.719.49-1.177.49ZM10 17.5c-.347 0-.642-.122-.885-.365a1.205 1.205 0 0 1-.365-.885v-7.5c0-.347.122-.642.365-.885S9.653 7.5 10 7.5s.642.122.885.365c.244.243.365.538.365.885v7.5c0 .347-.121.642-.365.885A1.205 1.205 0 0 1 10 17.5Z"/>
</svg>
