<svg xmlns="http://www.w3.org/2000/svg" width="20" height="20" fill="none" viewBox="0 0 20 20">
  <path fill="#201F1F" d="M10 18.333a8.063 8.063 0 0 1-3.23-.656 8.453 8.453 0 0 1-2.656-1.792 8.453 8.453 0 0 1-1.791-2.656A8.063 8.063 0 0 1 1.667 10a8.04 8.04 0 0 1 .656-3.24 8.486 8.486 0 0 1 1.791-2.645 8.453 8.453 0 0 1 2.657-1.792A8.063 8.063 0 0 1 10 1.667a8.04 8.04 0 0 1 3.24.656 8.486 8.486 0 0 1 2.645 1.792 8.486 8.486 0 0 1 1.792 2.645 8.04 8.04 0 0 1 .656 3.24 8.063 8.063 0 0 1-.656 3.23 8.454 8.454 0 0 1-1.792 2.655 8.487 8.487 0 0 1-2.646 1.792 8.04 8.04 0 0 1-3.24.656Zm0-1.708c.36-.5.673-1.02.937-1.563.264-.541.48-1.118.646-1.729H8.416c.167.611.382 1.188.646 1.73.264.541.577 1.062.938 1.562Zm-2.167-.333c-.25-.459-.469-.934-.656-1.428a12.232 12.232 0 0 1-.469-1.53H4.25a6.916 6.916 0 0 0 1.51 1.812 5.996 5.996 0 0 0 2.073 1.146Zm4.333 0a5.995 5.995 0 0 0 2.073-1.146 6.914 6.914 0 0 0 1.51-1.813h-2.458a12.232 12.232 0 0 1-.468 1.531c-.188.494-.407.97-.657 1.428Zm-8.625-4.625h2.834a11.003 11.003 0 0 1-.094-2.51c.02-.272.052-.546.094-.824H3.542A6.633 6.633 0 0 0 3.333 10a6.633 6.633 0 0 0 .208 1.667Zm4.5 0h3.917a10.972 10.972 0 0 0 .094-2.51 10.83 10.83 0 0 0-.094-.824H8.041a11.009 11.009 0 0 0-.094 2.51c.022.271.053.546.094.824Zm5.584 0h2.833A6.637 6.637 0 0 0 16.666 10a6.637 6.637 0 0 0-.208-1.667h-2.833a11.024 11.024 0 0 1 .094 2.51 12.02 12.02 0 0 1-.094.824Zm-.334-5h2.459a6.913 6.913 0 0 0-1.51-1.813 5.995 5.995 0 0 0-2.074-1.146c.25.459.47.934.657 1.427.187.493.343 1.004.468 1.532Zm-4.875 0h3.167a9.866 9.866 0 0 0-.646-1.73A10.585 10.585 0 0 0 10 3.375c-.361.5-.674 1.02-.938 1.562a9.864 9.864 0 0 0-.646 1.73Zm-4.166 0h2.458c.125-.528.281-1.039.469-1.532.187-.493.406-.968.656-1.427A5.996 5.996 0 0 0 5.76 4.854a6.915 6.915 0 0 0-1.51 1.813Z"/>
</svg>
