<svg xmlns="http://www.w3.org/2000/svg" width="20" height="20" fill="none" viewBox="0 0 20 20">
  <path fill="#201F1F" d="M8.5 10 5.25 6.75a.79.79 0 0 1-.23-.583.79.79 0 0 1 .23-.584.79.79 0 0 1 .583-.229.79.79 0 0 1 .584.23l3.833 3.833a.73.73 0 0 1 .177.27.923.923 0 0 1 .052.313.923.923 0 0 1-.052.313.73.73 0 0 1-.177.27l-3.833 3.834a.79.79 0 0 1-.584.229.79.79 0 0 1-.583-.23.79.79 0 0 1-.23-.583.79.79 0 0 1 .23-.583L8.5 10Zm5.667-5c.236 0 .434.08.594.24.16.16.239.357.239.593v8.334c0 .236-.08.434-.24.593a.807.807 0 0 1-.593.24.806.806 0 0 1-.594-.24.806.806 0 0 1-.24-.593V5.833c0-.236.08-.434.24-.593.16-.16.358-.24.594-.24Z"/>
</svg>
