<svg xmlns="http://www.w3.org/2000/svg" width="20" height="20" fill="none" viewBox="0 0 20 20">
  <path fill="#201F1F" d="m13.02 10.646-1.478-1.48h.958c.236 0 .434.08.594.24.16.16.24.358.24.594a.826.826 0 0 1-.084.375.725.725 0 0 1-.23.27Zm4.063 7.604a.79.79 0 0 1-.583.23.79.79 0 0 1-.583-.23L1.75 4.083a.79.79 0 0 1-.23-.583.79.79 0 0 1 .23-.583.79.79 0 0 1 .583-.23.79.79 0 0 1 .584.23l14.166 14.166a.79.79 0 0 1 .23.584.79.79 0 0 1-.23.583Zm-11.25-4.083c-1.152 0-2.135-.407-2.948-1.22-.812-.812-1.218-1.794-1.218-2.947 0-.958.291-1.813.875-2.563a4.06 4.06 0 0 1 2.25-1.479L6.333 7.5h-.5a2.41 2.41 0 0 0-1.77.73 2.41 2.41 0 0 0-.73 1.77c0 .694.243 1.285.73 1.77.486.487 1.076.73 1.77.73h2.5c.236 0 .434.08.594.24.16.16.24.357.24.593s-.08.434-.24.594a.806.806 0 0 1-.594.24h-2.5ZM7.5 10.833a.806.806 0 0 1-.594-.24.807.807 0 0 1-.24-.593c0-.236.08-.434.24-.594.16-.16.358-.24.594-.24h.52l1.647 1.667H7.5Zm7.917 2.334a.872.872 0 0 1-.136-.625.73.73 0 0 1 .344-.521c.32-.236.573-.528.76-.875A2.37 2.37 0 0 0 16.667 10a2.41 2.41 0 0 0-.73-1.77 2.41 2.41 0 0 0-1.77-.73h-2.5a.806.806 0 0 1-.594-.24.806.806 0 0 1-.24-.593c0-.236.08-.434.24-.594.16-.16.358-.24.594-.24h2.5c1.152 0 2.135.407 2.948 1.22.812.812 1.218 1.794 1.218 2.947 0 .68-.156 1.316-.468 1.906a4.13 4.13 0 0 1-1.302 1.469.872.872 0 0 1-.625.135.73.73 0 0 1-.521-.343Z"/>
</svg>
