<svg xmlns="http://www.w3.org/2000/svg" width="20" height="20" fill="none" viewBox="0 0 20 20">
  <path fill="#201F1F" d="M5.833 14.167c-1.152 0-2.135-.406-2.948-1.219-.812-.813-1.218-1.795-1.218-2.948s.406-2.135 1.218-2.948c.813-.812 1.796-1.219 2.948-1.219h2.5c.236 0 .434.08.594.24.16.16.24.358.24.594s-.08.434-.24.593a.806.806 0 0 1-.594.24h-2.5a2.41 2.41 0 0 0-1.77.73 2.41 2.41 0 0 0-.73 1.77c0 .694.243 1.285.73 1.77a2.41 2.41 0 0 0 1.77.73h2.5c.236 0 .434.08.594.24.16.16.24.357.24.593s-.08.434-.24.594a.806.806 0 0 1-.594.24h-2.5ZM7.5 10.833a.806.806 0 0 1-.594-.24.806.806 0 0 1-.24-.593c0-.236.08-.434.24-.594.16-.16.358-.24.594-.24h5c.236 0 .434.08.594.24.16.16.24.358.24.594s-.08.434-.24.594a.806.806 0 0 1-.594.24h-5Zm4.167 3.334a.806.806 0 0 1-.594-.24.806.806 0 0 1-.24-.594c0-.236.08-.434.24-.593.16-.16.357-.24.594-.24h2.5c.694 0 1.284-.243 1.77-.73a2.41 2.41 0 0 0 .73-1.77 2.41 2.41 0 0 0-.73-1.77 2.411 2.411 0 0 0-1.77-.73h-2.5a.806.806 0 0 1-.594-.24.806.806 0 0 1-.24-.593c0-.236.08-.434.24-.594.16-.16.357-.24.594-.24h2.5c1.152 0 2.135.407 2.947 1.22.813.812 1.22 1.794 1.22 2.947s-.407 2.136-1.22 2.948c-.812.813-1.795 1.219-2.947 1.219h-2.5Z"/>
</svg>
