<svg xmlns="http://www.w3.org/2000/svg" width="20" height="20" fill="none" viewBox="0 0 20 20">
  <path fill="#201F1F" d="M8.333 15.833a.806.806 0 0 1-.593-.24A.806.806 0 0 1 7.5 15c0-.236.08-.434.24-.594.16-.16.357-.24.593-.24h8.334c.236 0 .434.08.593.24.16.16.24.358.24.594s-.08.434-.24.594a.806.806 0 0 1-.593.24H8.333Zm0-5a.806.806 0 0 1-.593-.24A.806.806 0 0 1 7.5 10c0-.236.08-.434.24-.594.16-.16.357-.24.593-.24h8.334c.236 0 .434.08.593.24.16.16.24.358.24.594s-.08.434-.24.594a.806.806 0 0 1-.593.24H8.333Zm0-5a.806.806 0 0 1-.593-.24A.806.806 0 0 1 7.5 5c0-.236.08-.434.24-.594.16-.16.357-.24.593-.24h8.334c.236 0 .434.08.593.24.16.16.24.358.24.594s-.08.434-.24.594a.806.806 0 0 1-.593.24H8.333ZM4.167 16.667c-.459 0-.851-.164-1.177-.49A1.605 1.605 0 0 1 2.5 15c0-.458.163-.85.49-1.177.326-.327.718-.49 1.177-.49.458 0 .85.163 1.177.49.326.326.49.719.49 1.177 0 .458-.164.85-.49 1.177-.327.326-.719.49-1.177.49Zm0-5c-.459 0-.851-.163-1.177-.49A1.605 1.605 0 0 1 2.5 10c0-.458.163-.85.49-1.177.326-.326.718-.49 1.177-.49.458 0 .85.164 1.177.49.326.326.49.719.49 1.177 0 .458-.164.85-.49 1.177-.327.327-.719.49-1.177.49Zm0-5c-.459 0-.851-.164-1.177-.49A1.605 1.605 0 0 1 2.5 5c0-.458.163-.85.49-1.177.326-.326.718-.49 1.177-.49.458 0 .85.164 1.177.49.326.326.49.719.49 1.177 0 .458-.164.85-.49 1.177-.327.326-.719.49-1.177.49Z"/>
</svg>
