<svg xmlns="http://www.w3.org/2000/svg" width="20" height="20" fill="none" viewBox="0 0 20 20">
  <g clip-path="url(#a)">
    <path fill="#201F1F" d="M19.125 10.042c0 .236-.08.434-.24.593a.806.806 0 0 1-.593.24h-.834a7.744 7.744 0 0 1-.187 1.031c-.084.327-.195.65-.334.969a.689.689 0 0 1-.458.417.755.755 0 0 1-.625-.063.843.843 0 0 1-.396-.49.97.97 0 0 1 .021-.656c.111-.32.198-.649.26-.99.063-.34.094-.69.094-1.051 0-1.611-.57-2.986-1.708-4.125-1.139-1.14-2.514-1.709-4.125-1.709-.361 0-.712.032-1.052.094-.34.063-.67.15-.99.26a.97.97 0 0 1-.656.021.843.843 0 0 1-.49-.395.755.755 0 0 1-.062-.625.689.689 0 0 1 .417-.459c.32-.139.642-.25.968-.333.327-.083.67-.146 1.032-.188V1.75c0-.236.08-.434.24-.594.159-.16.357-.24.593-.24s.434.08.594.24c.16.16.24.358.24.594v.833c1.735.195 3.225.914 4.468 2.157 1.243 1.243 1.962 2.732 2.156 4.468h.834c.236 0 .434.08.593.24.16.16.24.358.24.594Zm-9.958 8.291V17.5c-1.736-.194-3.226-.913-4.47-2.156-1.242-1.243-1.96-2.733-2.155-4.469h-.834a.806.806 0 0 1-.593-.24.806.806 0 0 1-.24-.593c0-.236.08-.434.24-.594.16-.16.357-.24.593-.24h.834a7.13 7.13 0 0 1 .396-1.656c.194-.52.437-1.024.729-1.51L1.75 4.125a.79.79 0 0 1-.23-.583.79.79 0 0 1 .23-.584.79.79 0 0 1 .583-.229.79.79 0 0 1 .584.23l14.146 14.145c.166.167.25.365.25.594 0 .23-.084.427-.25.594a.891.891 0 0 1-.594.24.776.776 0 0 1-.594-.24L14 16.375a9.2 9.2 0 0 1-1.51.73 7.125 7.125 0 0 1-1.657.395v.833c0 .237-.08.434-.24.594a.807.807 0 0 1-.593.24.806.806 0 0 1-.594-.24.806.806 0 0 1-.24-.594ZM10 15.875c.5 0 .986-.059 1.458-.177a5.295 5.295 0 0 0 1.334-.531L4.875 7.25a5.297 5.297 0 0 0-.531 1.333 5.99 5.99 0 0 0-.177 1.459c0 1.61.57 2.986 1.708 4.125 1.139 1.139 2.514 1.708 4.125 1.708Z"/>
  </g>
  <defs>
    <clipPath id="a">
      <path fill="#fff" d="M0 0h20v20H0z"/>
    </clipPath>
  </defs>
</svg>
