<svg xmlns="http://www.w3.org/2000/svg" width="20" height="20" fill="none" viewBox="0 0 20 20">
  <path fill="#201F1F" d="M4.167 17.5c-.459 0-.851-.163-1.177-.49a1.605 1.605 0 0 1-.49-1.177V4.167c0-.459.163-.851.49-1.177.326-.327.718-.49 1.177-.49h5c.236 0 .434.08.593.24.16.16.24.357.24.593s-.08.434-.24.594a.806.806 0 0 1-.593.24h-5v11.666h5c.236 0 .434.08.593.24.16.16.24.358.24.594s-.08.434-.24.593a.806.806 0 0 1-.593.24h-5Zm10.146-6.667h-5.98a.806.806 0 0 1-.593-.24A.807.807 0 0 1 7.5 10c0-.236.08-.434.24-.594.16-.16.357-.24.593-.24h5.98L12.75 7.605a.765.765 0 0 1-.23-.562c0-.223.077-.417.23-.584a.79.79 0 0 1 .583-.26.788.788 0 0 1 .604.24l2.98 2.979a.8.8 0 0 1 .25.583.8.8 0 0 1-.25.583l-2.98 2.98a.776.776 0 0 1-.593.24.85.85 0 0 1-.594-.261.81.81 0 0 1-.219-.594.815.815 0 0 1 .24-.573l1.541-1.542Z"/>
</svg>
