<svg xmlns="http://www.w3.org/2000/svg" width="20" height="20" fill="none" viewBox="0 0 20 20">
  <path fill="#201F1F" d="M3.333 15a.806.806 0 0 1-.593-.24.806.806 0 0 1-.24-.593c0-.236.08-.434.24-.594.16-.16.357-.24.593-.24h13.334c.236 0 .434.08.593.24.16.16.24.358.24.594s-.08.434-.24.593a.806.806 0 0 1-.593.24H3.333Zm0-4.167a.806.806 0 0 1-.593-.24A.807.807 0 0 1 2.5 10c0-.236.08-.434.24-.594.16-.16.357-.24.593-.24h13.334c.236 0 .434.08.593.24.16.16.24.358.24.594s-.08.434-.24.594a.806.806 0 0 1-.593.24H3.333Zm0-4.166a.806.806 0 0 1-.593-.24.806.806 0 0 1-.24-.594c0-.236.08-.434.24-.593.16-.16.357-.24.593-.24h13.334c.236 0 .434.08.593.24.16.16.24.357.24.593s-.08.434-.24.594a.806.806 0 0 1-.593.24H3.333Z"/>
</svg>
