<svg xmlns="http://www.w3.org/2000/svg" width="20" height="20" fill="none" viewBox="0 0 20 20">
  <path fill="#201F1F" d="M3.333 15a.806.806 0 0 1-.593-.24.806.806 0 0 1-.24-.593c0-.236.08-.434.24-.594.16-.16.357-.24.593-.24H12.5c.236 0 .434.08.594.24.16.16.24.358.24.594s-.08.434-.24.593a.807.807 0 0 1-.594.24H3.333Zm12.417-1.417-3-3A.8.8 0 0 1 12.5 10a.8.8 0 0 1 .25-.583l3-3a.79.79 0 0 1 .583-.23.79.79 0 0 1 .584.23.79.79 0 0 1 .229.583.79.79 0 0 1-.23.583L14.5 10l2.417 2.417a.79.79 0 0 1 .229.583.79.79 0 0 1-.23.583.79.79 0 0 1-.583.23.79.79 0 0 1-.583-.23Zm-12.417-2.75a.806.806 0 0 1-.593-.24A.807.807 0 0 1 2.5 10c0-.236.08-.434.24-.594.16-.16.357-.24.593-.24H10c.236 0 .434.08.594.24.16.16.24.358.24.594s-.08.434-.24.594a.807.807 0 0 1-.594.24H3.333Zm0-4.166a.806.806 0 0 1-.593-.24.806.806 0 0 1-.24-.594c0-.236.08-.434.24-.593.16-.16.357-.24.593-.24H12.5c.236 0 .434.08.594.24.16.16.24.357.24.593s-.08.434-.24.594a.807.807 0 0 1-.594.24H3.333Z"/>
</svg>
