<svg viewBox="0 0 20 20" fill="none" xmlns="http://www.w3.org/2000/svg">
<g clip-path="url(#clip0_74_2561)">
<path d="M10.0002 14.1667C8.84739 14.1667 7.86475 13.7605 7.05225 12.948C6.23975 12.1355 5.8335 11.1528 5.8335 10C5.8335 8.84726 6.23975 7.86462 7.05225 7.05212C7.86475 6.23962 8.84739 5.83337 10.0002 5.83337C11.1529 5.83337 12.1356 6.23962 12.9481 7.05212C13.7606 7.86462 14.1668 8.84726 14.1668 10C14.1668 11.1528 13.7606 12.1355 12.9481 12.948C12.1356 13.7605 11.1529 14.1667 10.0002 14.1667ZM1.66683 10.8334C1.43072 10.8334 1.2328 10.7535 1.07308 10.5938C0.913357 10.4341 0.833496 10.2362 0.833496 10C0.833496 9.76393 0.913357 9.56601 1.07308 9.40629C1.2328 9.24657 1.43072 9.16671 1.66683 9.16671H3.3335C3.56961 9.16671 3.76752 9.24657 3.92725 9.40629C4.08697 9.56601 4.16683 9.76393 4.16683 10C4.16683 10.2362 4.08697 10.4341 3.92725 10.5938C3.76752 10.7535 3.56961 10.8334 3.3335 10.8334H1.66683ZM16.6668 10.8334C16.4307 10.8334 16.2328 10.7535 16.0731 10.5938C15.9134 10.4341 15.8335 10.2362 15.8335 10C15.8335 9.76393 15.9134 9.56601 16.0731 9.40629C16.2328 9.24657 16.4307 9.16671 16.6668 9.16671H18.3335C18.5696 9.16671 18.7675 9.24657 18.9272 9.40629C19.087 9.56601 19.1668 9.76393 19.1668 10C19.1668 10.2362 19.087 10.4341 18.9272 10.5938C18.7675 10.7535 18.5696 10.8334 18.3335 10.8334H16.6668ZM10.0002 4.16671C9.76405 4.16671 9.56614 4.08685 9.40641 3.92712C9.24669 3.7674 9.16683 3.56949 9.16683 3.33337V1.66671C9.16683 1.4306 9.24669 1.23268 9.40641 1.07296C9.56614 0.913235 9.76405 0.833374 10.0002 0.833374C10.2363 0.833374 10.4342 0.913235 10.5939 1.07296C10.7536 1.23268 10.8335 1.4306 10.8335 1.66671V3.33337C10.8335 3.56949 10.7536 3.7674 10.5939 3.92712C10.4342 4.08685 10.2363 4.16671 10.0002 4.16671ZM10.0002 19.1667C9.76405 19.1667 9.56614 19.0868 9.40641 18.9271C9.24669 18.7674 9.16683 18.5695 9.16683 18.3334V16.6667C9.16683 16.4306 9.24669 16.2327 9.40641 16.073C9.56614 15.9132 9.76405 15.8334 10.0002 15.8334C10.2363 15.8334 10.4342 15.9132 10.5939 16.073C10.7536 16.2327 10.8335 16.4306 10.8335 16.6667V18.3334C10.8335 18.5695 10.7536 18.7674 10.5939 18.9271C10.4342 19.0868 10.2363 19.1667 10.0002 19.1667ZM4.7085 5.87504L3.81266 5.00004C3.646 4.84726 3.56614 4.65282 3.57308 4.41671C3.58002 4.1806 3.65989 3.97921 3.81266 3.81254C3.97933 3.64587 4.18072 3.56254 4.41683 3.56254C4.65294 3.56254 4.84738 3.64587 5.00016 3.81254L5.87516 4.70837C6.02794 4.87504 6.10433 5.06949 6.10433 5.29171C6.10433 5.51393 6.02794 5.70837 5.87516 5.87504C5.72238 6.04171 5.53141 6.12157 5.30225 6.11462C5.07308 6.10768 4.87516 6.02782 4.7085 5.87504ZM15.0002 16.1875L14.1252 15.2917C13.9724 15.125 13.896 14.9271 13.896 14.698C13.896 14.4688 13.9724 14.2778 14.1252 14.125C14.2779 13.9584 14.4689 13.8785 14.6981 13.8855C14.9272 13.8924 15.1252 13.9723 15.2918 14.125L16.1877 15C16.3543 15.1528 16.4342 15.3473 16.4272 15.5834C16.4203 15.8195 16.3404 16.0209 16.1877 16.1875C16.021 16.3542 15.8196 16.4375 15.5835 16.4375C15.3474 16.4375 15.1529 16.3542 15.0002 16.1875ZM14.1252 5.87504C13.9585 5.72226 13.8786 5.53129 13.8856 5.30212C13.8925 5.07296 13.9724 4.87504 14.1252 4.70837L15.0002 3.81254C15.1529 3.64587 15.3474 3.56601 15.5835 3.57296C15.8196 3.5799 16.021 3.65976 16.1877 3.81254C16.3543 3.97921 16.4377 4.1806 16.4377 4.41671C16.4377 4.65282 16.3543 4.84726 16.1877 5.00004L15.2918 5.87504C15.1252 6.02782 14.9307 6.10421 14.7085 6.10421C14.4863 6.10421 14.2918 6.02782 14.1252 5.87504ZM3.81266 16.1875C3.646 16.0209 3.56266 15.8195 3.56266 15.5834C3.56266 15.3473 3.646 15.1528 3.81266 15L4.7085 14.125C4.87516 13.9723 5.07308 13.8959 5.30225 13.8959C5.53141 13.8959 5.72238 13.9723 5.87516 14.125C6.04183 14.2778 6.12169 14.4688 6.11475 14.698C6.1078 14.9271 6.02794 15.125 5.87516 15.2917L5.00016 16.1875C4.84738 16.3542 4.65294 16.4341 4.41683 16.4271C4.18072 16.4202 3.97933 16.3403 3.81266 16.1875Z" fill="currentColor"/>
</g>
<defs>
<clipPath id="clip0_74_2561">
<rect width="20" height="20" fill="currentColor"/>
</clipPath>
</defs>
</svg>