<svg xmlns="http://www.w3.org/2000/svg" width="20" height="20" fill="none" viewBox="0 0 20 20">
  <path fill="#201F1F" d="M3.333 17.5a.806.806 0 0 1-.593-.24.806.806 0 0 1-.24-.593v-.834c0-.236.08-.434.24-.593.16-.16.357-.24.593-.24s.434.08.594.24c.16.16.24.357.24.593v.834c0 .236-.08.434-.24.593a.806.806 0 0 1-.594.24Zm3.334 0a.806.806 0 0 1-.594-.24.806.806 0 0 1-.24-.593v-4.584c0-.236.08-.434.24-.593.16-.16.358-.24.594-.24s.434.08.593.24c.16.16.24.357.24.593v4.584c0 .236-.08.434-.24.593a.806.806 0 0 1-.593.24Zm3.333 0a.806.806 0 0 1-.594-.24.806.806 0 0 1-.24-.593V13.75c0-.236.08-.434.24-.594.16-.16.358-.24.594-.24s.434.08.594.24c.16.16.24.358.24.594v2.917c0 .236-.08.434-.24.593a.807.807 0 0 1-.594.24Zm3.333 0a.806.806 0 0 1-.593-.24.807.807 0 0 1-.24-.593V12.5c0-.236.08-.434.24-.594.16-.16.357-.24.593-.24s.434.08.594.24c.16.16.24.358.24.594v4.167c0 .236-.08.434-.24.593a.807.807 0 0 1-.594.24Zm3.334 0a.807.807 0 0 1-.594-.24.807.807 0 0 1-.24-.593v-7.5c0-.236.08-.434.24-.594.16-.16.358-.24.594-.24s.434.08.593.24c.16.16.24.358.24.594v7.5c0 .236-.08.434-.24.593a.806.806 0 0 1-.593.24Zm-5-7.52c-.223 0-.434-.043-.636-.126a1.872 1.872 0 0 1-.552-.354L8.333 7.354l-4.416 4.417a.776.776 0 0 1-.594.24.85.85 0 0 1-.594-.261.81.81 0 0 1-.219-.594.814.814 0 0 1 .24-.573l4.396-4.396a1.56 1.56 0 0 1 .552-.364 1.862 1.862 0 0 1 1.281 0c.209.076.39.198.542.364l2.146 2.146 4.416-4.416a.776.776 0 0 1 .594-.24.85.85 0 0 1 .594.26.81.81 0 0 1 .219.594.814.814 0 0 1-.24.573L12.854 9.5c-.153.153-.333.27-.541.354a1.724 1.724 0 0 1-.646.125Z"/>
</svg>
