<svg xmlns="http://www.w3.org/2000/svg" width="20" height="20" fill="none" viewBox="0 0 20 20">
  <path fill="#201F1F" d="M14.167 5.833H7.5a.806.806 0 0 1-.594-.24.806.806 0 0 1-.24-.593c0-.236.08-.434.24-.594.16-.16.358-.24.594-.24H15c.236 0 .434.08.594.24.16.16.24.358.24.594v7.5c0 .236-.08.434-.24.594a.807.807 0 0 1-.594.24.807.807 0 0 1-.594-.24.806.806 0 0 1-.24-.594V5.833ZM10 10H3.333a.806.806 0 0 1-.593-.24.806.806 0 0 1-.24-.593c0-.236.08-.434.24-.594.16-.16.357-.24.593-.24h7.5c.236 0 .434.08.594.24.16.16.24.358.24.594v7.5c0 .236-.08.434-.24.593a.807.807 0 0 1-.594.24.806.806 0 0 1-.593-.24.807.807 0 0 1-.24-.593V10Z"/>
</svg>
