<svg xmlns="http://www.w3.org/2000/svg" width="20" height="20" fill="none" viewBox="0 0 20 20">
  <path fill="#201F1F" d="M5.833 14.167H12.5c.236 0 .434.08.594.24.16.159.24.357.24.593s-.08.434-.24.594a.806.806 0 0 1-.594.24H5a.806.806 0 0 1-.594-.24.807.807 0 0 1-.24-.594V7.5c0-.236.08-.434.24-.594.16-.16.358-.24.594-.24s.434.08.594.24c.16.16.24.358.24.594v6.667ZM10 10h6.667c.236 0 .434.08.593.24.16.16.24.357.24.593s-.08.434-.24.594a.807.807 0 0 1-.593.24h-7.5a.806.806 0 0 1-.594-.24.806.806 0 0 1-.24-.594v-7.5c0-.236.08-.434.24-.593.16-.16.358-.24.594-.24s.434.08.593.24c.16.16.24.357.24.593V10Z"/>
</svg>
