<svg xmlns="http://www.w3.org/2000/svg" width="20" height="20" fill="none" viewBox="0 0 20 20">
  <path fill="#201F1F" d="M10 4.167c-1.278 0-2.361.444-3.25 1.333-.889.889-1.333 1.972-1.333 3.25 0 .875.229 1.68.687 2.417a4.5 4.5 0 0 0 1.875 1.687c.333.167.615.393.844.677a1.5 1.5 0 0 1 .344.969v1.75c0 .347-.122.642-.365.885a1.205 1.205 0 0 1-.885.365H3.75c-.347 0-.642-.122-.885-.365a1.205 1.205 0 0 1-.365-.885c0-.347.122-.642.365-.885.243-.244.538-.365.885-.365h2.917a6.993 6.993 0 0 1-2.75-2.604 6.956 6.956 0 0 1-1-3.646c0-1.972.687-3.646 2.062-5.02C6.354 2.353 8.028 1.666 10 1.666s3.646.687 5.02 2.062c1.376 1.375 2.063 3.049 2.063 5.021 0 1.32-.333 2.535-1 3.646A6.992 6.992 0 0 1 13.333 15h2.917c.347 0 .642.121.885.365.243.243.365.538.365.885s-.122.642-.365.885a1.205 1.205 0 0 1-.885.365h-4.167c-.347 0-.642-.122-.885-.365a1.206 1.206 0 0 1-.365-.885V14.5c0-.361.115-.684.344-.969.23-.285.51-.51.844-.677a4.499 4.499 0 0 0 1.875-1.687 4.484 4.484 0 0 0 .687-2.417c0-1.278-.444-2.361-1.333-3.25-.889-.889-1.972-1.333-3.25-1.333Z"/>
</svg>
