<svg xmlns="http://www.w3.org/2000/svg" width="20" height="20" fill="none" viewBox="0 0 20 20">
  <path fill="#201F1F" d="M4.167 17.5c-.459 0-.851-.163-1.177-.49a1.605 1.605 0 0 1-.49-1.177V4.167c0-.459.163-.851.49-1.177.326-.327.718-.49 1.177-.49h3.479c.153-.486.451-.885.896-1.198C8.986.99 9.472.833 10 .833a2.5 2.5 0 0 1 1.49.47c.437.312.732.71.885 1.197h3.458c.459 0 .851.163 1.177.49.327.326.49.718.49 1.177v11.666c0 .459-.163.851-.49 1.177-.326.327-.718.49-1.177.49H4.167Zm0-1.667h11.666V4.167h-1.666v1.666c0 .236-.08.434-.24.594a.806.806 0 0 1-.594.24H6.667a.806.806 0 0 1-.594-.24.806.806 0 0 1-.24-.594V4.167H4.167v11.666ZM10 4.167c.236 0 .434-.08.594-.24.16-.16.24-.358.24-.594a.806.806 0 0 0-.24-.593A.807.807 0 0 0 10 2.5a.806.806 0 0 0-.594.24.806.806 0 0 0-.24.593c0 .236.08.434.24.594.16.16.358.24.594.24Z"/>
</svg>
