<svg xmlns="http://www.w3.org/2000/svg" width="20" height="20" fill="none" viewBox="0 0 20 20">
  <path fill="#201F1F" d="M5.48 12.583a.771.771 0 0 1-.865.052.786.786 0 0 1-.448-.74v-3.79c0-.334.149-.58.448-.74a.771.771 0 0 1 .864.052l2.708 1.896a.796.796 0 0 1 .355.687c0 .292-.118.52-.355.688L5.48 12.582Zm6.187.75a.806.806 0 0 1-.594-.24.807.807 0 0 1-.24-.593v-5c0-.236.08-.434.24-.594.16-.16.357-.24.594-.24.236 0 .434.08.593.24.16.16.24.358.24.594v5c0 .236-.08.434-.24.594a.807.807 0 0 1-.593.24Zm3.333 0a.806.806 0 0 1-.594-.24.807.807 0 0 1-.24-.593v-5c0-.236.08-.434.24-.594.16-.16.358-.24.594-.24s.434.08.594.24c.16.16.24.358.24.594v5c0 .236-.08.434-.24.594a.806.806 0 0 1-.594.24Z"/>
</svg>
