<svg xmlns="http://www.w3.org/2000/svg" width="20" height="20" fill="none" viewBox="0 0 20 20">
  <path fill="#201F1F" d="M15.833 12.5a.806.806 0 0 1-.593-.24.806.806 0 0 1-.24-.593c0-.236.08-.434.24-.594.16-.16.357-.24.593-.24h.834c.236 0 .434.08.593.24.16.16.24.357.24.594 0 .236-.08.434-.24.593a.806.806 0 0 1-.593.24h-.834Zm0 3.333a.806.806 0 0 1-.593-.24A.806.806 0 0 1 15 15c0-.236.08-.434.24-.594.16-.16.357-.24.593-.24h.834c.236 0 .434.08.593.24.16.16.24.358.24.594s-.08.434-.24.594a.806.806 0 0 1-.593.24h-.834Zm-4.166.834c-.459 0-.851-.164-1.177-.49A1.605 1.605 0 0 1 10 15h-.833a.806.806 0 0 1-.594-.24.806.806 0 0 1-.24-.593V12.5c0-.236.08-.434.24-.594.16-.16.358-.24.594-.24H10c0-.458.163-.85.49-1.176.326-.327.718-.49 1.177-.49h1.666c.236 0 .434.08.594.24.16.16.24.357.24.593v5c0 .236-.08.434-.24.594a.806.806 0 0 1-.594.24h-1.666Zm-5.834-2.5a3.21 3.21 0 0 1-2.354-.98 3.21 3.21 0 0 1-.979-2.354c0-.916.326-1.701.98-2.354A3.21 3.21 0 0 1 5.832 7.5h1.25c.348 0 .643-.122.886-.365s.364-.538.364-.885-.121-.642-.364-.885A1.205 1.205 0 0 0 7.083 5H4.167a.806.806 0 0 1-.594-.24.806.806 0 0 1-.24-.593c0-.236.08-.434.24-.594.16-.16.358-.24.594-.24h2.916a2.81 2.81 0 0 1 2.063.854c.57.57.854 1.257.854 2.063a2.81 2.81 0 0 1-.854 2.062 2.81 2.81 0 0 1-2.063.855h-1.25c-.458 0-.85.163-1.177.49-.326.326-.49.718-.49 1.176 0 .459.164.851.49 1.177.327.327.719.49 1.177.49h.834c.236 0 .434.08.593.24.16.16.24.357.24.593s-.08.434-.24.594a.806.806 0 0 1-.593.24h-.834Z"/>
</svg>
