<svg xmlns="http://www.w3.org/2000/svg" width="20" height="20" fill="none" viewBox="0 0 20 20">
  <path fill="#201F1F" d="M10 18.333a8.115 8.115 0 0 1-3.25-.656 8.415 8.415 0 0 1-2.646-1.781 8.416 8.416 0 0 1-1.781-2.646A8.115 8.115 0 0 1 1.667 10c0-1.014.17-1.976.51-2.885a8.46 8.46 0 0 1 1.406-2.448c.153-.195.337-.285.552-.271.216.014.4.09.552.229.153.139.254.32.302.542.049.222-.024.451-.218.687A6.976 6.976 0 0 0 3.719 7.76 6.46 6.46 0 0 0 3.333 10c0 1.861.646 3.438 1.938 4.73 1.291 1.29 2.868 1.937 4.729 1.937 1.86 0 3.437-.646 4.729-1.938 1.292-1.291 1.938-2.868 1.938-4.729a6.46 6.46 0 0 0-.386-2.24 6.978 6.978 0 0 0-1.052-1.906c-.194-.236-.267-.465-.219-.687a.999.999 0 0 1 .302-.542.88.88 0 0 1 .552-.23c.216-.013.4.077.552.272a8.461 8.461 0 0 1 1.407 2.448c.34.91.51 1.871.51 2.885a8.115 8.115 0 0 1-.656 3.25 8.416 8.416 0 0 1-1.781 2.646 8.416 8.416 0 0 1-2.646 1.781 8.115 8.115 0 0 1-3.25.656Zm0-7.5a.806.806 0 0 1-.594-.24.807.807 0 0 1-.24-.593V2.5c0-.236.08-.434.24-.594.16-.16.358-.24.594-.24s.434.08.594.24c.16.16.24.358.24.594V10c0 .236-.08.434-.24.594a.806.806 0 0 1-.594.24Z"/>
</svg>
