<svg xmlns="http://www.w3.org/2000/svg" width="20" height="20" fill="none" viewBox="0 0 20 20">
  <path fill="#201F1F" d="M2.5 12.5a.806.806 0 0 1-.594-.24.806.806 0 0 1-.24-.593c0-.236.08-.434.24-.594.16-.16.358-.24.594-.24H5c.236 0 .434.08.594.24.16.16.24.358.24.594s-.08.434-.24.593A.806.806 0 0 1 5 12.5H2.5Zm5.833 0a.806.806 0 0 1-.594-.24.806.806 0 0 1-.24-.593c0-.236.08-.434.24-.594.16-.16.358-.24.594-.24h2.5c.236 0 .434.08.594.24.16.16.24.358.24.594s-.08.434-.24.593a.806.806 0 0 1-.594.24h-2.5Zm5.833 0a.806.806 0 0 1-.593-.24.806.806 0 0 1-.24-.593c0-.236.08-.434.24-.594.16-.16.357-.24.593-.24h2.5c.237 0 .434.08.594.24.16.16.24.358.24.594s-.08.434-.24.593a.807.807 0 0 1-.594.24h-2.5ZM2.5 9.167a.806.806 0 0 1-.594-.24.806.806 0 0 1-.24-.594c0-.236.08-.434.24-.593.16-.16.358-.24.594-.24h14.166c.237 0 .434.08.594.24.16.16.24.357.24.593s-.08.434-.24.594a.807.807 0 0 1-.594.24H2.5Z"/>
</svg>
