<svg xmlns="http://www.w3.org/2000/svg" width="20" height="20" fill="none" viewBox="0 0 20 20">
  <path fill="#201F1F" d="M10 17.5c-.458 0-.85-.163-1.177-.49a1.605 1.605 0 0 1-.49-1.177c0-.458.164-.85.49-1.177.326-.326.719-.49 1.177-.49.458 0 .85.164 1.177.49.327.327.49.719.49 1.177 0 .459-.163.851-.49 1.177-.326.327-.719.49-1.177.49Zm0-5c-.458 0-.85-.163-1.177-.49a1.605 1.605 0 0 1-.49-1.177V4.167c0-.459.164-.851.49-1.177.326-.327.719-.49 1.177-.49.458 0 .85.163 1.177.49.327.326.49.718.49 1.177v6.666c0 .459-.163.851-.49 1.177-.326.327-.719.49-1.177.49Z"/>
</svg>
