<svg xmlns="http://www.w3.org/2000/svg" width="20" height="20" fill="none" viewBox="0 0 20 20">
  <path fill="#201F1F" d="m9.167 9.875-1.563 1.563a.775.775 0 0 1-.594.24.85.85 0 0 1-.833-.845.764.764 0 0 1 .24-.583l3-3a.731.731 0 0 1 .27-.177.922.922 0 0 1 .313-.052c.111 0 .215.017.313.052a.731.731 0 0 1 .27.177l3 3a.764.764 0 0 1 .24.583.85.85 0 0 1-.833.844.775.775 0 0 1-.594-.24l-1.563-1.562v5.958c0 .237-.08.434-.24.594a.806.806 0 0 1-.593.24.806.806 0 0 1-.594-.24.806.806 0 0 1-.24-.594V9.875ZM3.333 6.667V5c0-.458.164-.85.49-1.177.326-.326.719-.49 1.177-.49h10c.458 0 .85.164 1.177.49.326.326.49.719.49 1.177v1.667c0 .236-.08.434-.24.593a.806.806 0 0 1-.594.24.806.806 0 0 1-.593-.24.806.806 0 0 1-.24-.593V5H5v1.667c0 .236-.08.434-.24.593a.806.806 0 0 1-.593.24.806.806 0 0 1-.594-.24.806.806 0 0 1-.24-.593Z"/>
</svg>
