<svg xmlns="http://www.w3.org/2000/svg" width="20" height="20" fill="none" viewBox="0 0 20 20">
  <path fill="#201F1F" d="M10 18.333a8.115 8.115 0 0 1-3.25-.656 8.415 8.415 0 0 1-2.646-1.781 8.416 8.416 0 0 1-1.781-2.646A8.115 8.115 0 0 1 1.667 10c0-1.153.218-2.236.656-3.25a8.415 8.415 0 0 1 1.781-2.646A8.415 8.415 0 0 1 6.75 2.323 8.115 8.115 0 0 1 10 1.667c1.153 0 2.236.218 3.25.656a8.416 8.416 0 0 1 2.646 1.781 8.415 8.415 0 0 1 1.78 2.646 8.115 8.115 0 0 1 .657 3.25 8.115 8.115 0 0 1-.656 3.25 8.416 8.416 0 0 1-1.781 2.646 8.416 8.416 0 0 1-2.646 1.781 8.115 8.115 0 0 1-3.25.656Zm-.834-1.708V15c-.458 0-.85-.163-1.177-.49a1.605 1.605 0 0 1-.49-1.177V12.5l-4-4c-.04.25-.079.5-.114.75-.034.25-.052.5-.052.75 0 1.68.552 3.153 1.656 4.417 1.105 1.264 2.497 2 4.177 2.208Zm5.75-2.125a6.659 6.659 0 0 0 1.303-2.094c.298-.77.447-1.573.447-2.406a6.537 6.537 0 0 0-1.135-3.73A6.418 6.418 0 0 0 12.5 3.834v.334c0 .458-.163.85-.49 1.177-.326.326-.719.49-1.177.49H9.166V7.5c0 .236-.08.434-.24.594a.806.806 0 0 1-.593.24H6.666V10h5c.237 0 .434.08.594.24.16.16.24.357.24.593v2.5h.833c.361 0 .688.108.98.323.291.215.492.497.603.844Z"/>
</svg>
