<svg xmlns="http://www.w3.org/2000/svg" width="20" height="20" fill="none" viewBox="0 0 20 20">
  <path fill="#201F1F" d="M12.167 6.73c0-.598-.198-1.077-.594-1.438-.396-.361-.92-.542-1.573-.542-.403 0-.767.087-1.094.26a2.433 2.433 0 0 0-.843.76c-.223.32-.525.504-.907.553a1.188 1.188 0 0 1-.99-.302.986.986 0 0 1-.322-.667 1.176 1.176 0 0 1 .198-.75A4.66 4.66 0 0 1 10 2.5c1.347 0 2.441.382 3.281 1.146.84.764 1.26 1.764 1.26 3a3.56 3.56 0 0 1-.395 1.687c-.264.5-.75 1.09-1.459 1.771-.513.486-.86.865-1.041 1.136-.18.27-.299.58-.354.927a1.463 1.463 0 0 1-.427.833 1.14 1.14 0 0 1-.823.333 1.16 1.16 0 0 1-.823-.323 1.056 1.056 0 0 1-.344-.802c0-.541.118-1.038.354-1.49.236-.45.632-.926 1.188-1.426.708-.625 1.177-1.108 1.406-1.448.23-.34.344-.712.344-1.115ZM10 18.332c-.458 0-.85-.163-1.177-.49a1.605 1.605 0 0 1-.49-1.176c0-.459.164-.851.49-1.177.326-.327.719-.49 1.177-.49.458 0 .85.163 1.177.49.327.326.49.718.49 1.177 0 .458-.163.85-.49 1.177-.326.326-.719.49-1.177.49Z"/>
</svg>
