<svg xmlns="http://www.w3.org/2000/svg" width="20" height="20" fill="none" viewBox="0 0 20 20">
  <path fill="#201F1F" d="M10 18.333a8.115 8.115 0 0 1-3.25-.656 8.415 8.415 0 0 1-2.646-1.781 8.416 8.416 0 0 1-1.781-2.646A8.115 8.115 0 0 1 1.667 10c0-1.153.218-2.236.656-3.25a8.415 8.415 0 0 1 1.781-2.646A8.415 8.415 0 0 1 6.75 2.323 8.115 8.115 0 0 1 10 1.667c1.153 0 2.236.218 3.25.656a8.416 8.416 0 0 1 2.646 1.781 8.415 8.415 0 0 1 1.78 2.646 8.115 8.115 0 0 1 .657 3.25 8.115 8.115 0 0 1-.656 3.25 8.416 8.416 0 0 1-1.781 2.646 8.416 8.416 0 0 1-2.646 1.781 8.115 8.115 0 0 1-3.25.656Zm0-1.666a6.545 6.545 0 0 0 4.083-1.396l-1.187-1.188a4.77 4.77 0 0 1-1.344.677c-.493.16-1.01.24-1.552.24-1.389 0-2.57-.486-3.542-1.458C5.486 12.569 5 11.389 5 10c0-1.389.486-2.57 1.458-3.542S8.611 5 10 5c1.389 0 2.57.486 3.541 1.458C14.514 7.431 15 8.611 15 10c0 .542-.084 1.063-.25 1.563a4.97 4.97 0 0 1-.688 1.354l1.188 1.187a6.807 6.807 0 0 0 1.041-1.896A6.47 6.47 0 0 0 16.666 10c0-1.861-.645-3.437-1.937-4.73-1.292-1.29-2.868-1.937-4.73-1.937-1.86 0-3.437.646-4.728 1.938C3.979 6.563 3.333 8.139 3.333 10c0 1.861.646 3.438 1.938 4.73 1.291 1.29 2.868 1.937 4.729 1.937Zm0-3.334c.305 0 .6-.038.885-.114a3.05 3.05 0 0 0 .802-.344l-1.27-1.27a.765.765 0 0 1-.209.051c-.07.007-.139.01-.208.01-.459 0-.85-.162-1.177-.489A1.605 1.605 0 0 1 8.333 10c0-.458.163-.85.49-1.177.326-.326.718-.49 1.177-.49.458 0 .85.164 1.177.49.326.326.49.719.49 1.177 0 .083-.004.163-.01.24a.776.776 0 0 1-.053.218l1.25 1.25a3.213 3.213 0 0 0 .48-1.708 3.21 3.21 0 0 0-.98-2.354A3.21 3.21 0 0 0 10 6.666a3.21 3.21 0 0 0-2.354.98A3.21 3.21 0 0 0 6.666 10c0 .917.327 1.701.98 2.354a3.21 3.21 0 0 0 2.354.98Z"/>
</svg>
