<svg xmlns="http://www.w3.org/2000/svg" width="20" height="20" fill="none" viewBox="0 0 20 20">
  <path fill="#201F1F" d="M13.5 8.333H8.25c-.875 0-1.635.278-2.281.834C5.323 9.722 5 10.417 5 11.25c0 .833.323 1.528.969 2.083.646.556 1.406.834 2.281.834h5.083c.236 0 .434.08.594.24.16.159.24.357.24.593s-.08.434-.24.594a.806.806 0 0 1-.594.24H8.25c-1.347 0-2.503-.438-3.469-1.313-.965-.875-1.448-1.965-1.448-3.271 0-1.306.483-2.396 1.448-3.27.966-.876 2.122-1.313 3.469-1.313h5.25l-1.583-1.584a.79.79 0 0 1-.23-.583.79.79 0 0 1 .23-.583.79.79 0 0 1 .583-.23.79.79 0 0 1 .583.23l3 3a.73.73 0 0 1 .177.27.923.923 0 0 1 .052.313.923.923 0 0 1-.052.313.73.73 0 0 1-.177.27l-3 3a.79.79 0 0 1-.583.23.79.79 0 0 1-.583-.23.79.79 0 0 1-.23-.583.79.79 0 0 1 .23-.583L13.5 8.333Z"/>
</svg>
