<svg xmlns="http://www.w3.org/2000/svg" width="20" height="20" fill="none" viewBox="0 0 20 20">
  <path fill="#201F1F" d="M10 16.667c-1.861 0-3.437-.646-4.73-1.938C3.98 13.438 3.334 11.861 3.334 10c0-1.861.646-3.437 1.938-4.73C6.563 3.98 8.139 3.334 10 3.334c.958 0 1.875.198 2.75.594A6.352 6.352 0 0 1 15 5.625V4.167c0-.236.08-.434.24-.594.16-.16.357-.24.593-.24.237 0 .434.08.594.24.16.16.24.358.24.594v4.166c0 .236-.08.434-.24.594a.806.806 0 0 1-.594.24h-4.166a.806.806 0 0 1-.594-.24.806.806 0 0 1-.24-.594c0-.236.08-.434.24-.593.16-.16.358-.24.594-.24h2.666a4.864 4.864 0 0 0-1.822-1.833A4.94 4.94 0 0 0 10 5c-1.389 0-2.57.486-3.542 1.458C5.486 7.431 5 8.611 5 10c0 1.389.486 2.57 1.458 3.542C7.431 14.514 8.611 15 10 15c.944 0 1.81-.24 2.594-.719a4.96 4.96 0 0 0 1.823-1.927.892.892 0 0 1 .469-.406.89.89 0 0 1 .614-.01.751.751 0 0 1 .48.437c.096.222.09.43-.022.625a6.73 6.73 0 0 1-2.437 2.667c-1.056.666-2.23 1-3.521 1Z"/>
</svg>
