<svg xmlns="http://www.w3.org/2000/svg" width="20" height="20" fill="none" viewBox="0 0 20 20">
  <path fill="#201F1F" d="m4.02 9.167 3.25 3.25a.764.764 0 0 1 .24.583.839.839 0 0 1-.26.583.879.879 0 0 1-.583.24.763.763 0 0 1-.584-.24L2.25 9.75a.731.731 0 0 1-.177-.27.922.922 0 0 1-.052-.313c0-.111.017-.216.052-.313a.731.731 0 0 1 .177-.27L6.083 4.75a.777.777 0 0 1 .573-.23c.23 0 .427.077.594.23.167.167.25.365.25.594a.807.807 0 0 1-.25.593l-3.23 3.23Zm5 .833 2.417 2.417a.764.764 0 0 1 .24.583.838.838 0 0 1-.26.583.879.879 0 0 1-.584.24.764.764 0 0 1-.583-.24L6.417 9.75a.73.73 0 0 1-.178-.27.922.922 0 0 1-.052-.313c0-.111.018-.216.052-.313a.731.731 0 0 1 .178-.27L10.25 4.75a.777.777 0 0 1 .573-.23.85.85 0 0 1 .594.23c.166.167.25.365.25.594a.811.811 0 0 1-.25.593L9.02 8.333h5.146c1.152 0 2.135.407 2.947 1.22.813.812 1.22 1.794 1.22 2.947V15c0 .236-.08.434-.24.594a.806.806 0 0 1-.594.24.806.806 0 0 1-.594-.24.806.806 0 0 1-.24-.594v-2.5c0-.694-.242-1.285-.729-1.77a2.41 2.41 0 0 0-1.77-.73H9.02Z"/>
</svg>
