<svg xmlns="http://www.w3.org/2000/svg" width="20" height="20" fill="none" viewBox="0 0 20 20">
  <path fill="#201F1F" d="m5.687 10 2.417 2.417a.764.764 0 0 1 .24.583.839.839 0 0 1-.26.583.879.879 0 0 1-.584.24.763.763 0 0 1-.583-.24L3.083 9.75a.8.8 0 0 1-.25-.583.8.8 0 0 1 .25-.584L6.917 4.75a.777.777 0 0 1 .572-.23c.23 0 .428.077.594.23.167.167.25.365.25.594a.807.807 0 0 1-.25.593L5.687 8.333h7.646c1.153 0 2.136.407 2.948 1.22.813.812 1.219 1.794 1.219 2.947V15c0 .236-.08.434-.24.594a.806.806 0 0 1-.593.24.806.806 0 0 1-.594-.24.806.806 0 0 1-.24-.594v-2.5c0-.694-.243-1.285-.729-1.77a2.41 2.41 0 0 0-1.77-.73H5.686Z"/>
</svg>
