<svg xmlns="http://www.w3.org/2000/svg" width="20" height="20" fill="none" viewBox="0 0 20 20">
  <path fill="#201F1F" d="M7.5 17.5a3.21 3.21 0 0 1-2.354-.98 3.21 3.21 0 0 1-.98-2.353V7.354a2.575 2.575 0 0 1-1.197-.906A2.376 2.376 0 0 1 2.5 5c0-.694.243-1.285.73-1.77A2.41 2.41 0 0 1 5 2.5a2.41 2.41 0 0 1 1.77.73A2.41 2.41 0 0 1 7.5 5c0 .542-.156 1.024-.469 1.448a2.575 2.575 0 0 1-1.198.906v6.813c0 .458.164.85.49 1.177.326.326.719.49 1.177.49.458 0 .85-.164 1.177-.49.326-.327.49-.719.49-1.177V5.833c0-.916.326-1.701.979-2.354A3.21 3.21 0 0 1 12.5 2.5a3.21 3.21 0 0 1 2.354.98 3.21 3.21 0 0 1 .98 2.353v6.813c.485.18.885.482 1.197.906.313.424.469.906.469 1.448 0 .694-.243 1.285-.73 1.77a2.411 2.411 0 0 1-1.77.73 2.411 2.411 0 0 1-1.77-.73A2.411 2.411 0 0 1 12.5 15c0-.542.156-1.028.469-1.458.312-.43.712-.73 1.198-.896V5.833c0-.458-.163-.85-.49-1.177a1.605 1.605 0 0 0-1.177-.49c-.458 0-.85.164-1.177.49-.327.327-.49.719-.49 1.177v8.334a3.21 3.21 0 0 1-.979 2.354A3.21 3.21 0 0 1 7.5 17.5Z"/>
</svg>
