<svg xmlns="http://www.w3.org/2000/svg" width="20" height="20" fill="none" viewBox="0 0 20 20">
  <path fill="#201F1F" d="M9.02 18.333a1.38 1.38 0 0 1-.968-.375 1.532 1.532 0 0 1-.49-.916l-.187-1.375a3.26 3.26 0 0 1-.51-.25 6.86 6.86 0 0 1-.47-.313l-1.29.542a1.357 1.357 0 0 1-1.043.041 1.536 1.536 0 0 1-.812-.666l-.98-1.709a1.32 1.32 0 0 1-.166-1.02c.083-.361.271-.66.563-.896l1.104-.834a1.99 1.99 0 0 1-.021-.28v-.563c0-.09.007-.184.02-.282l-1.103-.833a1.581 1.581 0 0 1-.563-.896 1.322 1.322 0 0 1 .167-1.02l.979-1.709c.194-.32.465-.542.812-.667a1.357 1.357 0 0 1 1.042.042l1.292.542a5.89 5.89 0 0 1 .479-.313c.167-.097.333-.18.5-.25l.187-1.375c.056-.36.22-.666.49-.916s.594-.375.969-.375h1.958c.375 0 .698.125.969.375.27.25.434.555.49.916l.187 1.375c.18.07.35.153.51.25.16.098.316.202.47.313l1.29-.542a1.357 1.357 0 0 1 1.043-.042c.347.125.617.348.812.667l.98 1.708c.194.32.25.66.166 1.021a1.58 1.58 0 0 1-.563.896l-1.104.833c.014.098.021.191.021.282v.562c0 .09-.014.184-.042.281l1.105.834c.291.236.479.534.562.896.083.36.028.701-.167 1.02l-1 1.709a1.53 1.53 0 0 1-.812.666 1.357 1.357 0 0 1-1.042-.041l-1.25-.542a5.673 5.673 0 0 1-.479.313 4.2 4.2 0 0 1-.5.25l-.188 1.375a1.532 1.532 0 0 1-.49.916 1.38 1.38 0 0 1-.968.375H9.021Zm1.022-5.416a2.81 2.81 0 0 0 2.062-.854A2.81 2.81 0 0 0 12.958 10a2.81 2.81 0 0 0-.854-2.063 2.81 2.81 0 0 0-2.062-.854c-.82 0-1.51.285-2.073.854A2.828 2.828 0 0 0 7.125 10c0 .806.281 1.493.844 2.063.562.569 1.253.854 2.073.854Z"/>
</svg>
