<svg xmlns="http://www.w3.org/2000/svg" width="20" height="20" fill="none" viewBox="0 0 20 20">
  <path fill="#201F1F" d="M2.5 15c-.458 0-.85-.163-1.177-.49a1.605 1.605 0 0 1-.49-1.177c0-.458.163-.85.49-1.177.326-.326.719-.49 1.177-.49h.219c.062 0 .128.015.198.042l3.791-3.791a.533.533 0 0 1-.041-.198V7.5c0-.458.163-.85.49-1.177.326-.326.718-.49 1.176-.49.459 0 .85.164 1.177.49.327.326.49.719.49 1.177 0 .028-.014.167-.042.417l2.125 2.125a.533.533 0 0 1 .198-.042h.438c.062 0 .128.014.198.042l2.958-2.959a.533.533 0 0 1-.042-.198v-.218c0-.459.163-.851.49-1.177.326-.327.719-.49 1.177-.49.458 0 .85.163 1.177.49.326.326.49.718.49 1.177 0 .458-.164.85-.49 1.177-.326.326-.719.49-1.177.49h-.219a.533.533 0 0 1-.198-.042l-2.958 2.958a.53.53 0 0 1 .042.198v.219c0 .458-.164.85-.49 1.177-.326.326-.719.49-1.177.49-.458 0-.85-.164-1.177-.49a1.605 1.605 0 0 1-.49-1.177v-.22c0-.062.014-.128.042-.197L8.75 9.125a.533.533 0 0 1-.198.042h-.219c-.028 0-.166-.014-.416-.042l-3.792 3.792a.53.53 0 0 1 .042.198v.218c0 .459-.164.851-.49 1.177-.326.327-.719.49-1.177.49Z"/>
</svg>
