<svg xmlns="http://www.w3.org/2000/svg" width="20" height="20" fill="none" viewBox="0 0 20 20">
  <path fill="#201F1F" d="m15.5 13.333-4.334-4.291-2.145 2.146c-.32.319-.716.479-1.188.479s-.868-.16-1.187-.48L2.25 6.75a.814.814 0 0 1-.24-.573.776.776 0 0 1 .24-.594.79.79 0 0 1 .583-.229.79.79 0 0 1 .583.23L7.833 10 9.98 7.854a1.61 1.61 0 0 1 1.187-.479c.473 0 .868.16 1.188.48l4.312 4.312v-1.334c0-.236.08-.434.24-.593.16-.16.358-.24.594-.24s.434.08.593.24c.16.16.24.357.24.593v3.334c0 .236-.08.434-.24.593a.806.806 0 0 1-.593.24h-3.334a.806.806 0 0 1-.593-.24.806.806 0 0 1-.24-.593c0-.236.08-.434.24-.594.16-.16.357-.24.593-.24H15.5Z"/>
</svg>
