<svg xmlns="http://www.w3.org/2000/svg" width="20" height="20" fill="none" viewBox="0 0 20 20">
  <path fill="#201F1F" d="M15.146 10.833H3.333a.806.806 0 0 1-.593-.24A.806.806 0 0 1 2.5 10c0-.236.08-.434.24-.594.16-.16.357-.24.593-.24h11.813L14 8a.763.763 0 0 1-.24-.583.84.84 0 0 1 .26-.584.891.891 0 0 1 .595-.24.716.716 0 0 1 .572.24l2.563 2.584A.8.8 0 0 1 18 10a.8.8 0 0 1-.25.583l-2.583 2.584a.778.778 0 0 1-.573.229.85.85 0 0 1-.594-.23.811.811 0 0 1-.25-.593.81.81 0 0 1 .25-.594l1.146-1.146Z"/>
</svg>
