<svg xmlns="http://www.w3.org/2000/svg" width="20" height="20" fill="none" viewBox="0 0 20 20">
  <path fill="#201F1F" d="M2.25 14.688a.776.776 0 0 1-.24-.594.814.814 0 0 1 .24-.573l4.396-4.459c.32-.319.715-.479 1.187-.479.473 0 .868.16 1.188.48l2.146 2.166L15.5 6.937h-1.333a.806.806 0 0 1-.594-.24.806.806 0 0 1-.24-.593c0-.236.08-.434.24-.594.16-.16.358-.24.594-.24H17.5c.236 0 .434.08.594.24.16.16.24.358.24.594v3.333c0 .237-.08.435-.24.594a.806.806 0 0 1-.594.24.806.806 0 0 1-.594-.24.806.806 0 0 1-.24-.594V8.104l-4.312 4.313a1.61 1.61 0 0 1-1.187.479c-.473 0-.868-.16-1.188-.48l-2.146-2.145-4.416 4.416a.79.79 0 0 1-.584.23.79.79 0 0 1-.583-.23Z"/>
</svg>
