<svg xmlns="http://www.w3.org/2000/svg" width="20" height="20" fill="none" viewBox="0 0 20 20">
  <path fill="#201F1F" d="M10 17.5a.806.806 0 0 1-.594-.24.806.806 0 0 1-.24-.593v-3.334c0-.236.08-.434.24-.593.16-.16.358-.24.594-.24s.434.08.594.24c.16.16.24.357.24.593v.834h5.833c.236 0 .434.08.593.24.16.159.24.357.24.593s-.08.434-.24.594a.806.806 0 0 1-.593.24h-5.834v.833c0 .236-.08.434-.24.593a.807.807 0 0 1-.593.24Zm-6.667-1.667a.806.806 0 0 1-.593-.24A.807.807 0 0 1 2.5 15c0-.236.08-.434.24-.594.16-.16.357-.24.593-.24h3.334c.236 0 .434.08.593.24.16.16.24.358.24.594s-.08.434-.24.594a.806.806 0 0 1-.593.24H3.333ZM6.667 12.5a.806.806 0 0 1-.594-.24.806.806 0 0 1-.24-.593v-.834h-2.5a.806.806 0 0 1-.593-.24A.807.807 0 0 1 2.5 10c0-.236.08-.434.24-.594.16-.16.357-.24.593-.24h2.5v-.833c0-.236.08-.434.24-.593.16-.16.358-.24.594-.24s.434.08.593.24c.16.16.24.357.24.593v3.334c0 .236-.08.434-.24.593a.806.806 0 0 1-.593.24ZM10 10.833a.806.806 0 0 1-.594-.24.807.807 0 0 1-.24-.593c0-.236.08-.434.24-.594.16-.16.358-.24.594-.24h6.667c.236 0 .434.08.593.24.16.16.24.358.24.594s-.08.434-.24.594a.806.806 0 0 1-.593.24H10ZM13.333 7.5a.806.806 0 0 1-.593-.24.806.806 0 0 1-.24-.593V3.333c0-.236.08-.434.24-.593.16-.16.357-.24.593-.24s.434.08.594.24c.16.16.24.357.24.593v.834h2.5c.236 0 .434.08.593.24.16.159.24.357.24.593s-.08.434-.24.594a.806.806 0 0 1-.593.24h-2.5v.833c0 .236-.08.434-.24.593a.806.806 0 0 1-.594.24Zm-10-1.667a.806.806 0 0 1-.593-.24A.806.806 0 0 1 2.5 5c0-.236.08-.434.24-.594.16-.16.357-.24.593-.24H10c.236 0 .434.08.594.24.16.16.24.358.24.594s-.08.434-.24.594a.807.807 0 0 1-.594.24H3.333Z"/>
</svg>
