<svg xmlns="http://www.w3.org/2000/svg" width="20" height="20" fill="none" viewBox="0 0 20 20">
  <path fill="#201F1F" d="M6.667 15.833a.806.806 0 0 1-.594-.24.806.806 0 0 1-.24-.593c0-.236.08-.434.24-.594.16-.16.358-.24.594-.24h5.083c.875 0 1.635-.277 2.281-.833.646-.555.969-1.25.969-2.083 0-.833-.323-1.528-.969-2.083-.646-.556-1.406-.834-2.281-.834H6.5l1.583 1.584a.79.79 0 0 1 .23.583.79.79 0 0 1-.23.583.79.79 0 0 1-.583.23.79.79 0 0 1-.583-.23l-3-3a.731.731 0 0 1-.177-.27.922.922 0 0 1-.053-.313c0-.111.018-.215.053-.313a.731.731 0 0 1 .177-.27l3-3a.79.79 0 0 1 .583-.23.79.79 0 0 1 .583.23.79.79 0 0 1 .23.583.79.79 0 0 1-.23.583L6.5 6.667h5.25c1.347 0 2.504.437 3.469 1.312.965.875 1.448 1.965 1.448 3.271 0 1.306-.483 2.396-1.448 3.27-.965.876-2.122 1.313-3.469 1.313H6.667Z"/>
</svg>
