<svg xmlns="http://www.w3.org/2000/svg" width="20" height="20" fill="none" viewBox="0 0 20 20">
  <path fill="#201F1F" d="M5 16.667c-.458 0-.85-.164-1.177-.49A1.605 1.605 0 0 1 3.333 15v-1.667c0-.236.08-.434.24-.593.16-.16.358-.24.594-.24s.434.08.593.24c.16.16.24.357.24.593V15h10v-1.667c0-.236.08-.434.24-.593.16-.16.357-.24.593-.24.237 0 .434.08.594.24.16.16.24.357.24.593V15c0 .458-.164.85-.49 1.177-.326.326-.719.49-1.177.49H5ZM9.167 6.542 7.604 8.104a.776.776 0 0 1-.594.24.85.85 0 0 1-.833-.844.763.763 0 0 1 .24-.583l3-3a.731.731 0 0 1 .27-.177.922.922 0 0 1 .313-.053c.111 0 .215.018.313.053a.731.731 0 0 1 .27.177l3 3a.764.764 0 0 1 .24.583.85.85 0 0 1-.833.844.776.776 0 0 1-.594-.24l-1.563-1.562V12.5c0 .236-.08.434-.24.594a.806.806 0 0 1-.593.24.806.806 0 0 1-.594-.24.806.806 0 0 1-.24-.594V6.542Z"/>
</svg>
