<svg viewBox="0 0 20 20" fill="none" xmlns="http://www.w3.org/2000/svg">
<path d="M9.16671 12.5H6.66671C6.4306 12.5 6.23268 12.4201 6.07296 12.2604C5.91324 12.1007 5.83337 11.9028 5.83337 11.6667V8.33333C5.83337 8.09722 5.91324 7.89931 6.07296 7.73958C6.23268 7.57986 6.4306 7.5 6.66671 7.5H9.16671L11.9167 4.75C12.1806 4.48611 12.4827 4.42708 12.823 4.57292C13.1632 4.71875 13.3334 4.97917 13.3334 5.35417V14.6458C13.3334 15.0208 13.1632 15.2812 12.823 15.4271C12.4827 15.5729 12.1806 15.5139 11.9167 15.25L9.16671 12.5ZM7.50004 10.8333H9.87504L11.6667 12.625V7.375L9.87504 9.16667H7.50004V10.8333Z" fill="currentColor"/>
</svg>