<svg xmlns="http://www.w3.org/2000/svg" width="20" height="20" fill="none" viewBox="0 0 20 20">
  <path fill="#201F1F" d="M4.437 14.167c-.402 0-.694.087-.875.26-.18.174-.43.295-.75.365s-.59.038-.812-.094a.647.647 0 0 1-.333-.594c0-.208.09-.41.27-.604.18-.194.466-.389.855-.583.069-.042.253-.122.552-.24.298-.118.69-.177 1.177-.177.764 0 1.277.139 1.541.417.264.277.653.416 1.167.416s.9-.139 1.156-.416c.257-.278.788-.417 1.594-.417s1.35.139 1.635.417c.285.277.684.416 1.198.416.514 0 .89-.139 1.125-.416.236-.278.75-.417 1.542-.417.32 0 .629.038.927.115.299.076.6.19.906.343.348.18.604.368.771.563.167.194.25.389.25.583a.647.647 0 0 1-.333.594c-.222.132-.493.163-.813.094-.32-.07-.573-.191-.76-.365-.188-.173-.476-.26-.865-.26-.514 0-.899.139-1.156.416-.257.278-.788.417-1.594.417-.805 0-1.35-.139-1.635-.417-.285-.277-.684-.416-1.198-.416-.514 0-.9.139-1.156.416-.257.278-.795.417-1.615.417s-1.354-.139-1.604-.417c-.25-.277-.639-.416-1.167-.416Zm0-3.334c-.389 0-.677.087-.864.26-.188.174-.441.296-.76.365-.32.07-.59.038-.813-.093a.647.647 0 0 1-.333-.594c0-.209.09-.41.27-.604.18-.195.466-.39.855-.584.069-.041.253-.121.552-.24.298-.117.69-.176 1.177-.176.764 0 1.277.139 1.541.416.264.278.653.417 1.167.417s.9-.139 1.156-.417c.257-.277.788-.416 1.594-.416s1.35.139 1.635.416c.285.278.677.417 1.177.417s.875-.139 1.125-.417c.25-.277.764-.416 1.542-.416.486 0 .879.059 1.177.177.299.118.483.198.552.24.403.208.695.406.875.593.18.188.271.386.271.594a.643.643 0 0 1-.344.594c-.229.131-.503.163-.823.093-.319-.07-.569-.19-.75-.364-.18-.174-.465-.26-.854-.26-.514 0-.899.138-1.156.416-.257.278-.788.417-1.594.417-.805 0-1.35-.14-1.635-.417-.285-.278-.684-.417-1.198-.417-.514 0-.892.14-1.135.417-.243.278-.775.417-1.594.417-.82 0-1.365-.14-1.636-.417-.27-.278-.663-.417-1.177-.417Zm0-3.333c-.389 0-.677.087-.864.26-.188.174-.441.296-.76.365-.32.07-.59.038-.813-.094a.647.647 0 0 1-.333-.594c0-.208.09-.41.27-.604.18-.194.466-.389.855-.583.069-.042.253-.122.552-.24.298-.118.69-.177 1.177-.177.764 0 1.277.14 1.541.417.264.278.653.417 1.167.417s.9-.14 1.156-.417c.257-.278.788-.417 1.594-.417s1.35.14 1.635.417c.285.278.677.417 1.177.417s.875-.14 1.125-.417c.25-.278.764-.417 1.542-.417.486 0 .879.06 1.177.177.299.118.483.198.552.24.403.208.695.406.875.594.18.187.271.385.271.593a.643.643 0 0 1-.344.594c-.229.132-.503.163-.823.094-.319-.07-.569-.191-.75-.365-.18-.173-.465-.26-.854-.26-.514 0-.899.139-1.156.417-.257.277-.788.416-1.594.416-.805 0-1.35-.139-1.635-.416-.285-.278-.684-.417-1.198-.417-.514 0-.892.139-1.135.417-.243.277-.775.416-1.594.416-.82 0-1.365-.139-1.636-.416-.27-.278-.663-.417-1.177-.417Z"/>
</svg>
