<svg xmlns="http://www.w3.org/2000/svg" width="20" height="20" fill="none" viewBox="0 0 20 20">
  <path fill="#201F1F" d="M5.833 15.792c-.68 0-1.222.152-1.625.458-.403.306-.965.52-1.687.646a.674.674 0 0 1-.604-.167.757.757 0 0 1-.25-.583c0-.236.08-.434.24-.594.159-.16.357-.274.593-.344.5-.152.972-.364 1.417-.635.444-.27 1.083-.406 1.916-.406.528 0 .962.059 1.302.177.34.118.657.25.948.396.292.145.583.28.875.406.292.125.64.187 1.042.187.403 0 .75-.062 1.041-.187.292-.125.584-.26.875-.406.292-.146.612-.278.959-.396s.778-.177 1.291-.177c.834 0 1.473.135 1.917.406.445.27.917.483 1.417.635.236.07.434.184.594.344.16.16.24.358.24.594s-.084.43-.25.583a.675.675 0 0 1-.605.167c-.722-.125-1.285-.34-1.688-.646-.402-.306-.944-.458-1.625-.458-.388 0-.725.059-1.01.177-.285.118-.57.25-.854.396a7.8 7.8 0 0 1-.958.406c-.355.125-.803.187-1.344.187-.542 0-.99-.062-1.344-.187a7.804 7.804 0 0 1-.958-.406 13.03 13.03 0 0 0-.844-.396c-.278-.118-.618-.177-1.02-.177Zm0-3.709c-.68 0-1.222.153-1.625.459-.403.305-.965.52-1.687.646a.674.674 0 0 1-.604-.167.757.757 0 0 1-.25-.584c0-.236.08-.433.24-.593.159-.16.357-.274.593-.344.5-.153.972-.365 1.417-.635.444-.271 1.083-.407 1.916-.407.528 0 .962.06 1.302.177.34.119.657.25.948.396.292.146.583.281.875.406.292.126.64.188 1.042.188.403 0 .75-.063 1.041-.188.292-.124.584-.26.875-.406.292-.146.612-.277.959-.396.347-.118.778-.177 1.291-.177.834 0 1.473.136 1.917.407.445.27.917.482 1.417.635.236.07.434.184.594.344.16.16.24.357.24.594 0 .236-.084.43-.25.583a.674.674 0 0 1-.605.166c-.722-.124-1.285-.34-1.688-.645-.402-.306-.944-.459-1.625-.459-.402 0-.746.06-1.03.177-.285.119-.57.25-.855.396-.285.146-.6.281-.948.406-.347.126-.792.188-1.333.188-.542 0-.99-.063-1.344-.188a7.805 7.805 0 0 1-.958-.406 13.033 13.033 0 0 0-.844-.396c-.278-.118-.618-.177-1.02-.177Zm0-3.708c-.68 0-1.222.153-1.625.458-.403.306-.965.521-1.687.646a.674.674 0 0 1-.604-.166.757.757 0 0 1-.25-.584c0-.236.08-.434.24-.594.159-.16.357-.274.593-.343.5-.153.972-.365 1.417-.636C4.36 6.886 5 6.75 5.832 6.75c.528 0 .962.06 1.302.177.34.118.657.25.948.396.292.146.583.281.875.406.292.125.64.188 1.042.188.403 0 .75-.063 1.041-.188.292-.125.584-.26.875-.406.292-.146.612-.278.959-.396s.778-.177 1.291-.177c.834 0 1.473.135 1.917.406.445.271.917.483 1.417.636.236.07.434.184.594.343.16.16.24.358.24.594s-.084.43-.25.584a.674.674 0 0 1-.605.166c-.722-.125-1.285-.34-1.688-.646-.402-.305-.944-.458-1.625-.458-.388 0-.725.059-1.01.177-.285.118-.57.25-.854.396a7.795 7.795 0 0 1-.958.406c-.355.125-.803.188-1.344.188-.542 0-.99-.063-1.344-.188a7.8 7.8 0 0 1-.958-.406 13.042 13.042 0 0 0-.844-.396c-.278-.118-.618-.177-1.02-.177Zm0-3.708c-.68 0-1.222.152-1.625.458-.403.306-.965.52-1.687.646a.674.674 0 0 1-.604-.167.757.757 0 0 1-.25-.583c0-.236.08-.434.24-.594.159-.16.357-.274.593-.344.5-.152.972-.364 1.417-.635.444-.27 1.083-.406 1.916-.406.528 0 .962.059 1.302.177.34.118.657.25.948.396.292.145.583.28.875.406.292.125.64.187 1.042.187.403 0 .75-.062 1.041-.187.292-.125.584-.26.875-.406a7.65 7.65 0 0 1 .959-.396c.347-.118.778-.177 1.291-.177.834 0 1.473.135 1.917.406.445.27.917.483 1.417.635.236.07.434.184.594.344.16.16.24.358.24.594s-.084.43-.25.583a.674.674 0 0 1-.605.167c-.722-.125-1.285-.34-1.688-.646-.402-.306-.944-.458-1.625-.458-.388 0-.725.059-1.01.177-.285.118-.57.25-.854.396a7.794 7.794 0 0 1-.958.406c-.355.125-.803.187-1.344.187-.542 0-.99-.062-1.344-.187a7.798 7.798 0 0 1-.958-.406 13.047 13.047 0 0 0-.844-.396c-.278-.118-.618-.177-1.02-.177Z"/>
</svg>
