<svg xmlns="http://www.w3.org/2000/svg" width="20" height="20" fill="none" viewBox="0 0 20 20">
  <path fill="#201F1F" d="M10 17.5a2.012 2.012 0 0 1-1.48-.604 2.012 2.012 0 0 1-.604-1.48c0-.583.202-1.076.605-1.479A2.012 2.012 0 0 1 10 13.334c.583 0 1.076.202 1.479.604.403.403.604.896.604 1.48 0 .583-.201 1.076-.604 1.479a2.012 2.012 0 0 1-1.48.604Zm0-9.167a8.81 8.81 0 0 1 2.969.5 9.32 9.32 0 0 1 2.552 1.375c.277.209.42.483.427.823.007.34-.115.636-.365.886a1.225 1.225 0 0 1-.875.364 1.54 1.54 0 0 1-.937-.281 6.826 6.826 0 0 0-1.75-.854A6.478 6.478 0 0 0 10 10.833c-.709 0-1.382.104-2.021.313a6.828 6.828 0 0 0-1.75.854c-.278.194-.59.285-.938.27a1.264 1.264 0 0 1-.875-.374 1.247 1.247 0 0 1-.354-.886.98.98 0 0 1 .417-.822 9.107 9.107 0 0 1 2.552-1.365A8.964 8.964 0 0 1 10 8.333Zm0-5c1.736 0 3.371.285 4.906.854a13.632 13.632 0 0 1 4.135 2.417c.278.236.424.528.438.875.014.347-.104.646-.354.896a1.225 1.225 0 0 1-.875.365 1.417 1.417 0 0 1-.938-.323 11.41 11.41 0 0 0-3.364-1.907A11.476 11.476 0 0 0 10 5.833c-1.39 0-2.705.226-3.948.677a11.41 11.41 0 0 0-3.365 1.907c-.277.222-.59.33-.937.323a1.225 1.225 0 0 1-.875-.365 1.153 1.153 0 0 1-.354-.896 1.17 1.17 0 0 1 .437-.875 13.632 13.632 0 0 1 4.136-2.417c1.534-.569 3.17-.854 4.906-.854Z"/>
</svg>
