<svg xmlns="http://www.w3.org/2000/svg" width="20" height="20" fill="none" viewBox="0 0 20 20">
  <path fill="#201F1F" d="m15.875 18.25-7.25-7.292c-.43.098-.844.23-1.24.396a6.373 6.373 0 0 0-1.114.604 1.773 1.773 0 0 1-.97.302 1.134 1.134 0 0 1-.885-.364 1.133 1.133 0 0 1-.343-.906c.02-.355.17-.636.448-.844.32-.236.656-.452 1.01-.646s.719-.375 1.094-.542L4.75 7.083c-.361.195-.712.4-1.052.615-.34.215-.67.448-.99.698a1.476 1.476 0 0 1-.948.333c-.354 0-.65-.125-.885-.375a1.153 1.153 0 0 1-.354-.896c.014-.347.16-.632.437-.854.306-.25.618-.49.938-.719.32-.229.66-.44 1.02-.635L1.75 4.083a.79.79 0 0 1-.23-.583.79.79 0 0 1 .23-.583.79.79 0 0 1 .583-.23.79.79 0 0 1 .583.23l14.146 14.146c.167.166.25.364.25.593a.81.81 0 0 1-.25.594.891.891 0 0 1-.594.24.776.776 0 0 1-.593-.24ZM10 17.5a1.994 1.994 0 0 1-1.48-.615 2.024 2.024 0 0 1-.604-1.468c0-.584.202-1.077.605-1.48A2.012 2.012 0 0 1 10 13.334c.583 0 1.076.202 1.479.604.403.403.604.896.604 1.48 0 .57-.201 1.059-.604 1.468-.403.41-.896.615-1.48.615Zm5.687-5.73c-.222.223-.482.33-.781.324a1.109 1.109 0 0 1-.781-.344l-.209-.208-.208-.209-2-2c-.18-.18-.215-.368-.104-.562.111-.195.306-.257.583-.188a8.646 8.646 0 0 1 1.782.646 9.335 9.335 0 0 1 1.572.98c.25.194.393.447.428.76a.935.935 0 0 1-.282.802Zm3.438-3.416a1.19 1.19 0 0 1-.875.386 1.417 1.417 0 0 1-.938-.323 11.41 11.41 0 0 0-3.364-1.907A11.476 11.476 0 0 0 10 5.833a11.009 11.009 0 0 0-1.667.125 1.211 1.211 0 0 1-.937-.218 1.213 1.213 0 0 1-.5-.823 1.19 1.19 0 0 1 .229-.938 1.25 1.25 0 0 1 .833-.5 9.69 9.69 0 0 1 1.01-.114c.34-.021.685-.032 1.032-.032 1.736 0 3.371.289 4.906.865a14.297 14.297 0 0 1 4.135 2.385c.278.236.424.528.438.875.014.348-.104.646-.354.896Z"/>
</svg>
