<svg xmlns="http://www.w3.org/2000/svg" width="20" height="20" fill="none" viewBox="0 0 20 20">
  <path fill="#201F1F" d="M7.5 18.333V17.5c0-.444.167-.816.5-1.115a2.229 2.229 0 0 1 1.166-.552V9.875a2.395 2.395 0 0 1-.802-.48 2.803 2.803 0 0 1-.573-.728l-1.583.416c-.5.111-.976.07-1.427-.125a1.44 1.44 0 0 1-.864-1l3.625-.916c.11-.57.375-1.042.791-1.417A2.437 2.437 0 0 1 9.833 5l.5-1.875c.14-.486.406-.872.802-1.156a1.57 1.57 0 0 1 1.323-.26l-1.042 3.75c.348.222.615.513.803.874a2.495 2.495 0 0 1 .218 1.698c-.041.174-.09.344-.146.51l1.125 1.167c.348.361.553.785.615 1.271.063.486-.073.896-.406 1.23l-2.5-2.5a.432.432 0 0 1-.136.093c-.048.02-.1.045-.156.073v5.958c.445.07.833.254 1.167.552.333.299.5.67.5 1.115v.833h-5ZM10 8.75c.347 0 .642-.122.885-.365s.365-.538.365-.885-.122-.642-.365-.885A1.206 1.206 0 0 0 10 6.25c-.347 0-.643.122-.886.365a1.205 1.205 0 0 0-.364.885c0 .347.121.642.364.885s.539.365.886.365Z"/>
</svg>
