<svg viewBox="0 0 20 20" fill="none" xmlns="http://www.w3.org/2000/svg">
<path d="M7.16667 16.83C6.38889 16.05 6 15.1067 6 14C6 13.374 6.125 12.7905 6.375 12.2494C6.625 11.7081 7 11.2569 7.5 10.8958V4.5C7.5 3.80556 7.74306 3.21528 8.22917 2.72917C8.71528 2.24306 9.30556 2 10 2C10.6944 2 11.2847 2.24306 11.7708 2.72917C12.2569 3.21528 12.5 3.80556 12.5 4.5V10.8958C12.9861 11.2569 13.3576 11.7118 13.6146 12.2604C13.8715 12.809 14 13.3889 14 14C14 15.1067 13.6095 16.05 12.8285 16.83C12.0477 17.61 11.1033 18 9.99521 18C8.88729 18 7.94444 17.61 7.16667 16.83ZM9 9H11V8H10V7H11V6H10V5H11V4.5C11 4.21667 10.9028 3.97917 10.7083 3.7875C10.5139 3.59583 10.2778 3.5 10 3.5C9.72222 3.5 9.48611 3.59583 9.29167 3.7875C9.09722 3.97917 9 4.21667 9 4.5V9Z" fill="currentColor"/>
</svg>
