<svg viewBox="0 0 20 20" fill="none" xmlns="http://www.w3.org/2000/svg">
<path d="M4.61078 12.2323C4.31763 11.5246 4.16675 10.766 4.16675 9.99999C4.16675 9.23395 4.31763 8.4754 4.61078 7.76767C4.90394 7.05994 5.33362 6.41688 5.87529 5.8752C6.41697 5.33353 7.06003 4.90384 7.76776 4.61069C8.47549 4.31754 9.23404 4.16666 10.0001 4.16666C10.7661 4.16666 11.5247 4.31754 12.2324 4.61069C12.9401 4.90384 13.5832 5.33353 14.1249 5.8752C14.6665 6.41688 15.0962 7.05994 15.3894 7.76767C15.6825 8.4754 15.8334 9.23395 15.8334 9.99999C15.8334 10.766 15.6825 11.5246 15.3894 12.2323C15.0962 12.94 14.6665 13.5831 14.1249 14.1248C13.5832 14.6665 12.9401 15.0961 12.2324 15.3893C11.5247 15.6824 10.7661 15.8333 10.0001 15.8333C9.23404 15.8333 8.47549 15.6824 7.76776 15.3893C7.06003 15.0961 6.41697 14.6665 5.87529 14.1248C5.33362 13.5831 4.90394 12.94 4.61078 12.2323Z" stroke="currentColor" stroke-width="1.5" stroke-linecap="round" stroke-linejoin="round"/>
<path d="M4.16675 10H1.66675" stroke="currentColor" stroke-width="1.5" stroke-linecap="round" stroke-linejoin="round"/>
<path d="M15.8333 10H18.3333" stroke="currentColor" stroke-width="1.5" stroke-linecap="round" stroke-linejoin="round"/>
<path fill-rule="evenodd" clip-rule="evenodd" d="M8.93 11.3375H11.0375L11.2813 12.0875C11.3188 12.2125 11.3891 12.3125 11.4922 12.3875C11.5953 12.4625 11.7099 12.5 11.8359 12.5C12.0536 12.5 12.225 12.4156 12.35 12.2469C12.475 12.0781 12.5 11.8937 12.425 11.6937L10.8243 7.229C10.7789 7.1055 10.7016 7.00312 10.5922 6.92188C10.4828 6.84063 10.3625 6.8 10.2313 6.8H9.78219C9.64406 6.8 9.52188 6.8375 9.41563 6.9125C9.30938 6.9875 9.23125 7.09375 9.18125 7.23125L7.59406 11.7264C7.52719 11.9171 7.5515 12.0937 7.667 12.2562C7.7825 12.4187 7.93925 12.5 8.13725 12.5C8.25825 12.5 8.36875 12.4656 8.46875 12.3969C8.56875 12.3281 8.6375 12.2312 8.675 12.1062L8.93 11.3375ZM9.25625 10.3438L10.0063 8.09375L10.7188 10.3438H9.25625Z" fill="currentColor"/>
</svg>
