<svg viewBox="0 0 20 20" fill="none" xmlns="http://www.w3.org/2000/svg">
<path d="M10.0001 12.5C10.2362 12.5 10.4341 12.4202 10.5938 12.2604C10.7536 12.1007 10.8334 11.9028 10.8334 11.6667C10.8334 11.4306 10.7536 11.2327 10.5938 11.0729C10.4341 10.9132 10.2362 10.8334 10.0001 10.8334C9.76397 10.8334 9.56605 10.9132 9.40633 11.0729C9.24661 11.2327 9.16675 11.4306 9.16675 11.6667C9.16675 11.9028 9.24661 12.1007 9.40633 12.2604C9.56605 12.4202 9.76397 12.5 10.0001 12.5ZM10.0001 9.16669C10.2362 9.16669 10.4341 9.08683 10.5938 8.9271C10.7536 8.76738 10.8334 8.56946 10.8334 8.33335V5.00002C10.8334 4.76391 10.7536 4.56599 10.5938 4.40627C10.4341 4.24655 10.2362 4.16669 10.0001 4.16669C9.76397 4.16669 9.56605 4.24655 9.40633 4.40627C9.24661 4.56599 9.16675 4.76391 9.16675 5.00002V8.33335C9.16675 8.56946 9.24661 8.76738 9.40633 8.9271C9.56605 9.08683 9.76397 9.16669 10.0001 9.16669ZM5.00008 15L3.08341 16.9167C2.81953 17.1806 2.51744 17.2396 2.17716 17.0938C1.83689 16.9479 1.66675 16.6875 1.66675 16.3125V3.33335C1.66675 2.87502 1.82994 2.48266 2.15633 2.15627C2.48272 1.82988 2.87508 1.66669 3.33341 1.66669H16.6667C17.1251 1.66669 17.5174 1.82988 17.8438 2.15627C18.1702 2.48266 18.3334 2.87502 18.3334 3.33335V13.3334C18.3334 13.7917 18.1702 14.184 17.8438 14.5104C17.5174 14.8368 17.1251 15 16.6667 15H5.00008ZM4.29175 13.3334H16.6667V3.33335H3.33341V14.2709L4.29175 13.3334Z" fill="currentColor"/>
</svg>