<svg viewBox="0 0 20 20" fill="none" xmlns="http://www.w3.org/2000/svg">
<path d="M3.33332 16.6666C2.87499 16.6666 2.48263 16.5035 2.15624 16.1771C1.82985 15.8507 1.66666 15.4583 1.66666 15V4.99998C1.66666 4.54165 1.82985 4.14929 2.15624 3.8229C2.48263 3.49651 2.87499 3.33331 3.33332 3.33331H12.5C12.7639 3.33331 13.0139 3.39234 13.25 3.5104C13.4861 3.62845 13.6805 3.79165 13.8333 3.99998L17.5833 8.99998C17.8055 9.29165 17.9167 9.62498 17.9167 9.99998C17.9167 10.375 17.8055 10.7083 17.5833 11L13.8333 16C13.6805 16.2083 13.4861 16.3715 13.25 16.4896C13.0139 16.6076 12.7639 16.6666 12.5 16.6666H3.33332ZM3.33332 15H12.5L16.25 9.99998L12.5 4.99998H3.33332V15Z" fill="currentColor"/>
</svg>