<svg viewBox="0 0 20 20" fill="none" xmlns="http://www.w3.org/2000/svg">
<path d="M10 16.9375C9.80556 16.9375 9.60764 16.9028 9.40625 16.8333C9.20487 16.7639 9.02778 16.6528 8.875 16.5L7.4375 15.1875C5.96528 13.8403 4.63542 12.5035 3.44792 11.1771C2.26042 9.85068 1.66667 8.38887 1.66667 6.79165C1.66667 5.48609 2.10417 4.39581 2.97917 3.52081C3.85417 2.64581 4.94445 2.20831 6.25 2.20831C6.98612 2.20831 7.68056 2.36456 8.33334 2.67706C8.98612 2.98956 9.54167 3.41665 10 3.95831C10.4583 3.41665 11.0139 2.98956 11.6667 2.67706C12.3194 2.36456 13.0139 2.20831 13.75 2.20831C15.0556 2.20831 16.1458 2.64581 17.0208 3.52081C17.8958 4.39581 18.3333 5.48609 18.3333 6.79165C18.3333 8.38887 17.7431 9.85415 16.5625 11.1875C15.3819 12.5208 14.0417 13.8611 12.5417 15.2083L11.125 16.5C10.9722 16.6528 10.7951 16.7639 10.5938 16.8333C10.3924 16.9028 10.1944 16.9375 10 16.9375ZM9.20834 5.62498C8.80556 5.05554 8.375 4.62151 7.91667 4.3229C7.45834 4.02429 6.90278 3.87498 6.25 3.87498C5.41667 3.87498 4.72223 4.15276 4.16667 4.70831C3.61112 5.26387 3.33334 5.95831 3.33334 6.79165C3.33334 7.51387 3.59028 8.28123 4.10417 9.09373C4.61806 9.90623 5.23264 10.6944 5.94792 11.4583C6.6632 12.2222 7.39931 12.9375 8.15625 13.6041C8.9132 14.2708 9.52778 14.8194 10 15.25C10.4722 14.8194 11.0868 14.2708 11.8438 13.6041C12.6007 12.9375 13.3368 12.2222 14.0521 11.4583C14.7674 10.6944 15.3819 9.90623 15.8958 9.09373C16.4097 8.28123 16.6667 7.51387 16.6667 6.79165C16.6667 5.95831 16.3889 5.26387 15.8333 4.70831C15.2778 4.15276 14.5833 3.87498 13.75 3.87498C13.0972 3.87498 12.5417 4.02429 12.0833 4.3229C11.625 4.62151 11.1944 5.05554 10.7917 5.62498C10.6944 5.76387 10.5764 5.86804 10.4375 5.93748C10.2986 6.00692 10.1528 6.04165 10 6.04165C9.84723 6.04165 9.70139 6.00692 9.5625 5.93748C9.42362 5.86804 9.30556 5.76387 9.20834 5.62498Z" fill="currentColor"/>
</svg>