<svg viewBox="0 0 20 20" fill="none" xmlns="http://www.w3.org/2000/svg">
<path d="M10.396 8.00002L11.0835 8.68752C11.1946 8.79863 11.3196 8.81599 11.4585 8.7396C11.5974 8.66322 11.6668 8.5278 11.6668 8.33335C11.6668 8.09724 11.6252 7.87849 11.5418 7.6771C11.4585 7.47572 11.3404 7.29863 11.1877 7.14585C11.0349 6.97919 10.8543 6.85766 10.646 6.78127C10.4377 6.70488 10.2224 6.66669 10.0002 6.66669C9.81961 6.66669 9.69808 6.74655 9.63558 6.90627C9.57308 7.06599 9.59739 7.20141 9.7085 7.31252L10.396 8.00002ZM10.0002 1.66669C11.7641 1.66669 13.3161 2.28474 14.6564 3.52085C15.9967 4.75696 16.6668 6.41669 16.6668 8.50002C16.6668 9.00002 16.5939 9.51391 16.4481 10.0417C16.3022 10.5695 16.0835 11.1181 15.7918 11.6875C15.6807 11.8959 15.5141 12.0278 15.2918 12.0834C15.0696 12.1389 14.8613 12.1111 14.6668 12C14.4724 11.8889 14.3439 11.7188 14.2814 11.4896C14.2189 11.2604 14.2432 11.0417 14.3543 10.8334C14.5627 10.4028 14.7224 9.99655 14.8335 9.6146C14.9446 9.23266 15.0002 8.86113 15.0002 8.50002C15.0002 6.98613 14.5175 5.74655 13.5522 4.78127C12.587 3.81599 11.4029 3.33335 10.0002 3.33335C9.55572 3.33335 9.12169 3.38544 8.69808 3.4896C8.27447 3.59377 7.88211 3.75002 7.521 3.95835C7.31266 4.06946 7.09391 4.1146 6.86475 4.09377C6.63558 4.07294 6.44461 3.97224 6.29183 3.79169C6.13905 3.61113 6.08002 3.40627 6.11475 3.1771C6.14947 2.94794 6.26405 2.7778 6.4585 2.66669C6.98627 2.34724 7.55225 2.10071 8.15641 1.9271C8.76058 1.75349 9.37516 1.66669 10.0002 1.66669ZM11.896 14.25L5.0835 7.43752C5.05572 7.60419 5.03488 7.7778 5.021 7.95835C5.00711 8.13891 5.00016 8.31947 5.00016 8.50002C5.00016 9.48613 5.40988 10.6146 6.22933 11.8854C7.04877 13.1563 8.30572 14.5695 10.0002 16.125C10.3613 15.8056 10.6981 15.4896 11.0106 15.1771C11.3231 14.8646 11.6182 14.5556 11.896 14.25ZM10.0002 17.7709C9.80572 17.7709 9.61127 17.7361 9.41683 17.6667C9.22239 17.5972 9.04877 17.4931 8.896 17.3542C7.99322 16.5209 7.19461 15.7084 6.50016 14.9167C5.80572 14.125 5.22586 13.3577 4.76058 12.6146C4.2953 11.8715 3.94114 11.1563 3.69808 10.4688C3.45502 9.78127 3.3335 9.12502 3.3335 8.50002C3.3335 8.05558 3.36822 7.63197 3.43766 7.22919C3.50711 6.82641 3.60433 6.44447 3.72933 6.08335L1.146 3.50002C0.979329 3.33335 0.895996 3.13544 0.895996 2.90627C0.895996 2.6771 0.979329 2.47919 1.146 2.31252C1.31266 2.14585 1.51058 2.06252 1.73975 2.06252C1.96891 2.06252 2.16683 2.14585 2.3335 2.31252L17.6668 17.6459C17.8335 17.8125 17.9134 18.007 17.9064 18.2292C17.8995 18.4514 17.8127 18.6459 17.646 18.8125C17.4793 18.9792 17.2814 19.0625 17.0522 19.0625C16.8231 19.0625 16.6252 18.9792 16.4585 18.8125L13.0627 15.4167C12.8266 15.6667 12.5627 15.9375 12.271 16.2292C11.9793 16.5209 11.5904 16.8959 11.1043 17.3542C10.9516 17.4931 10.7779 17.5972 10.5835 17.6667C10.3891 17.7361 10.1946 17.7709 10.0002 17.7709Z" fill="currentColor"/>
</svg>