<svg viewBox="0 0 20 20" fill="none" xmlns="http://www.w3.org/2000/svg">
<path d="M17.5001 17.1667C17.389 17.1667 17.2848 17.1459 17.1876 17.1042C17.0904 17.0625 17.0001 17 16.9167 16.9167L15.0001 15H6.66675C6.20841 15 5.81605 14.8368 5.48966 14.5104C5.16328 14.184 5.00008 13.7917 5.00008 13.3334V12.5H14.1667C14.6251 12.5 15.0174 12.3368 15.3438 12.0104C15.6702 11.684 15.8334 11.2917 15.8334 10.8334V5.00002H16.6667C17.1251 5.00002 17.5174 5.16321 17.8438 5.4896C18.1702 5.81599 18.3334 6.20835 18.3334 6.66669V16.3125C18.3334 16.5625 18.2501 16.7674 18.0834 16.9271C17.9167 17.0868 17.7223 17.1667 17.5001 17.1667ZM3.33341 10.1459L4.31258 9.16669H12.5001V3.33335H3.33341V10.1459ZM2.50008 13C2.27786 13 2.08341 12.9202 1.91675 12.7604C1.75008 12.6007 1.66675 12.3959 1.66675 12.1459V3.33335C1.66675 2.87502 1.82994 2.48266 2.15633 2.15627C2.48272 1.82988 2.87508 1.66669 3.33341 1.66669H12.5001C12.9584 1.66669 13.3508 1.82988 13.6772 2.15627C14.0036 2.48266 14.1667 2.87502 14.1667 3.33335V9.16669C14.1667 9.62502 14.0036 10.0174 13.6772 10.3438C13.3508 10.6702 12.9584 10.8334 12.5001 10.8334H5.00008L3.08341 12.75C3.00008 12.8334 2.9098 12.8959 2.81258 12.9375C2.71536 12.9792 2.61119 13 2.50008 13Z" fill="currentColor"/>
</svg>