<svg width="712" height="174" viewBox="0 0 712 174" fill="none" xmlns="http://www.w3.org/2000/svg">
<rect x="0.5" y="0.5" width="711" height="173" rx="7.5" stroke="#CDCCCB"/>
<path d="M244.48 75C243.68 75 243.056 74.776 242.608 74.328C242.16 73.88 241.936 73.256 241.936 72.456V43.512C241.936 42.68 242.144 42.056 242.56 41.64C243.008 41.192 243.632 40.968 244.432 40.968C245.232 40.968 245.84 41.192 246.256 41.64C246.704 42.056 246.928 42.68 246.928 43.512V70.728H261.808C262.512 70.728 263.056 70.92 263.44 71.304C263.824 71.656 264.016 72.168 264.016 72.84C264.016 73.512 263.824 74.04 263.44 74.424C263.056 74.808 262.512 75 261.808 75H244.48ZM277.65 75.432C275.09 75.432 272.882 74.952 271.026 73.992C269.202 73 267.778 71.608 266.754 69.816C265.762 67.992 265.266 65.832 265.266 63.336C265.266 60.904 265.762 58.776 266.754 56.952C267.746 55.128 269.106 53.704 270.834 52.68C272.562 51.656 274.53 51.144 276.738 51.144C278.37 51.144 279.826 51.416 281.106 51.96C282.386 52.472 283.474 53.24 284.37 54.264C285.298 55.256 285.986 56.472 286.434 57.912C286.914 59.352 287.154 60.968 287.154 62.76C287.154 63.304 286.994 63.72 286.674 64.008C286.354 64.264 285.874 64.392 285.234 64.392H269.106V61.416H283.89L283.074 62.088C283.074 60.488 282.834 59.128 282.354 58.008C281.906 56.888 281.218 56.04 280.29 55.464C279.394 54.856 278.274 54.552 276.93 54.552C275.426 54.552 274.146 54.904 273.09 55.608C272.066 56.312 271.282 57.288 270.738 58.536C270.194 59.784 269.922 61.24 269.922 62.904V63.192C269.922 66.008 270.578 68.136 271.89 69.576C273.234 70.984 275.17 71.688 277.698 71.688C278.658 71.688 279.666 71.56 280.722 71.304C281.81 71.048 282.834 70.616 283.794 70.008C284.338 69.688 284.818 69.544 285.234 69.576C285.682 69.608 286.034 69.752 286.29 70.008C286.578 70.264 286.754 70.584 286.818 70.968C286.882 71.352 286.818 71.752 286.626 72.168C286.434 72.552 286.098 72.904 285.618 73.224C284.53 73.96 283.266 74.52 281.826 74.904C280.386 75.256 278.994 75.432 277.65 75.432ZM306.312 75C305.448 75 304.776 74.776 304.296 74.328C303.848 73.848 303.624 73.176 303.624 72.312V43.848C303.624 42.984 303.848 42.328 304.296 41.88C304.776 41.4 305.448 41.16 306.312 41.16H315.576C321.144 41.16 325.432 42.616 328.44 45.528C331.48 48.408 333 52.584 333 58.056C333 60.776 332.616 63.192 331.848 65.304C331.08 67.416 329.944 69.192 328.44 70.632C326.968 72.04 325.16 73.128 323.016 73.896C320.872 74.632 318.392 75 315.576 75H306.312ZM308.616 70.824H315.288C317.4 70.824 319.224 70.568 320.76 70.056C322.328 69.512 323.64 68.712 324.696 67.656C325.752 66.6 326.536 65.272 327.048 63.672C327.56 62.072 327.816 60.2 327.816 58.056C327.816 53.8 326.76 50.616 324.648 48.504C322.568 46.392 319.448 45.336 315.288 45.336H308.616V70.824ZM349.134 75.432C346.574 75.432 344.366 74.952 342.51 73.992C340.686 73 339.262 71.608 338.238 69.816C337.246 67.992 336.75 65.832 336.75 63.336C336.75 60.904 337.246 58.776 338.238 56.952C339.23 55.128 340.59 53.704 342.318 52.68C344.046 51.656 346.014 51.144 348.222 51.144C349.854 51.144 351.31 51.416 352.59 51.96C353.87 52.472 354.958 53.24 355.854 54.264C356.782 55.256 357.47 56.472 357.918 57.912C358.398 59.352 358.638 60.968 358.638 62.76C358.638 63.304 358.478 63.72 358.158 64.008C357.838 64.264 357.358 64.392 356.718 64.392H340.59V61.416H355.374L354.558 62.088C354.558 60.488 354.318 59.128 353.838 58.008C353.39 56.888 352.702 56.04 351.774 55.464C350.878 54.856 349.758 54.552 348.414 54.552C346.91 54.552 345.63 54.904 344.574 55.608C343.55 56.312 342.766 57.288 342.222 58.536C341.678 59.784 341.406 61.24 341.406 62.904V63.192C341.406 66.008 342.062 68.136 343.374 69.576C344.718 70.984 346.654 71.688 349.182 71.688C350.142 71.688 351.15 71.56 352.206 71.304C353.294 71.048 354.318 70.616 355.278 70.008C355.822 69.688 356.302 69.544 356.718 69.576C357.166 69.608 357.518 69.752 357.774 70.008C358.062 70.264 358.238 70.584 358.302 70.968C358.366 71.352 358.302 71.752 358.11 72.168C357.918 72.552 357.582 72.904 357.102 73.224C356.014 73.96 354.75 74.52 353.31 74.904C351.87 75.256 350.478 75.432 349.134 75.432ZM371.132 75.432C369.724 75.432 368.268 75.272 366.764 74.952C365.292 74.632 363.932 74.088 362.684 73.32C362.268 73.032 361.98 72.712 361.82 72.36C361.66 72.008 361.596 71.656 361.628 71.304C361.692 70.92 361.836 70.6 362.06 70.344C362.316 70.056 362.62 69.88 362.972 69.816C363.356 69.752 363.756 69.832 364.172 70.056C365.42 70.76 366.62 71.256 367.772 71.544C368.924 71.8 370.06 71.928 371.18 71.928C372.876 71.928 374.156 71.624 375.02 71.016C375.884 70.408 376.316 69.592 376.316 68.568C376.316 67.736 376.028 67.096 375.452 66.648C374.876 66.168 374.012 65.8 372.86 65.544L368.3 64.632C366.316 64.216 364.812 63.48 363.788 62.424C362.764 61.368 362.252 60.024 362.252 58.392C362.252 56.92 362.652 55.64 363.452 54.552C364.252 53.464 365.372 52.632 366.812 52.056C368.252 51.448 369.916 51.144 371.804 51.144C373.212 51.144 374.54 51.32 375.788 51.672C377.036 52.024 378.188 52.552 379.244 53.256C379.66 53.48 379.932 53.784 380.06 54.168C380.188 54.52 380.204 54.872 380.108 55.224C380.044 55.576 379.884 55.896 379.628 56.184C379.372 56.44 379.052 56.6 378.668 56.664C378.316 56.696 377.916 56.6 377.468 56.376C376.508 55.768 375.548 55.336 374.588 55.08C373.66 54.824 372.732 54.696 371.804 54.696C370.108 54.696 368.828 55.016 367.964 55.656C367.132 56.264 366.716 57.096 366.716 58.152C366.716 58.952 366.972 59.608 367.484 60.12C367.996 60.632 368.796 61 369.884 61.224L374.444 62.136C376.524 62.552 378.092 63.256 379.148 64.248C380.236 65.24 380.78 66.584 380.78 68.28C380.78 70.488 379.9 72.232 378.14 73.512C376.38 74.792 374.044 75.432 371.132 75.432ZM387.574 75.288C386.806 75.288 386.214 75.064 385.798 74.616C385.382 74.136 385.174 73.48 385.174 72.648V53.928C385.174 53.096 385.382 52.456 385.798 52.008C386.214 51.56 386.806 51.336 387.574 51.336C388.342 51.336 388.934 51.56 389.35 52.008C389.798 52.456 390.022 53.096 390.022 53.928V72.648C390.022 73.48 389.814 74.136 389.398 74.616C388.982 75.064 388.374 75.288 387.574 75.288ZM387.574 46.344C386.614 46.344 385.862 46.104 385.318 45.624C384.806 45.144 384.55 44.472 384.55 43.608C384.55 42.712 384.806 42.04 385.318 41.592C385.862 41.112 386.614 40.872 387.574 40.872C388.534 40.872 389.27 41.112 389.782 41.592C390.326 42.04 390.598 42.712 390.598 43.608C390.598 44.472 390.326 45.144 389.782 45.624C389.27 46.104 388.534 46.344 387.574 46.344ZM406.454 84.072C404.726 84.072 403.046 83.896 401.414 83.544C399.814 83.192 398.358 82.616 397.046 81.816C396.566 81.56 396.246 81.24 396.086 80.856C395.926 80.504 395.878 80.136 395.942 79.752C396.038 79.368 396.214 79.032 396.47 78.744C396.726 78.456 397.03 78.264 397.382 78.168C397.766 78.072 398.166 78.136 398.582 78.36C399.99 79.128 401.318 79.64 402.566 79.896C403.846 80.184 405.03 80.328 406.118 80.328C408.358 80.328 410.038 79.752 411.158 78.6C412.278 77.48 412.838 75.816 412.838 73.608V68.712H413.27C412.79 70.472 411.782 71.864 410.246 72.888C408.71 73.912 406.934 74.424 404.918 74.424C402.806 74.424 400.966 73.944 399.398 72.984C397.83 71.992 396.614 70.632 395.75 68.904C394.886 67.144 394.454 65.096 394.454 62.76C394.454 61 394.694 59.416 395.174 58.008C395.686 56.6 396.39 55.384 397.286 54.36C398.214 53.336 399.318 52.552 400.598 52.008C401.91 51.432 403.35 51.144 404.918 51.144C406.966 51.144 408.742 51.656 410.246 52.68C411.782 53.704 412.774 55.096 413.222 56.856L412.742 57.672V53.688C412.742 52.888 412.95 52.28 413.366 51.864C413.814 51.448 414.406 51.24 415.142 51.24C415.91 51.24 416.502 51.448 416.918 51.864C417.334 52.28 417.542 52.888 417.542 53.688V73.032C417.542 76.68 416.598 79.432 414.71 81.288C412.822 83.144 410.07 84.072 406.454 84.072ZM406.07 70.632C407.478 70.632 408.678 70.312 409.67 69.672C410.662 69.032 411.43 68.12 411.974 66.936C412.518 65.752 412.79 64.36 412.79 62.76C412.79 60.36 412.182 58.456 410.966 57.048C409.782 55.64 408.15 54.936 406.07 54.936C404.694 54.936 403.51 55.256 402.518 55.896C401.526 56.536 400.742 57.448 400.166 58.632C399.622 59.784 399.35 61.16 399.35 62.76C399.35 65.192 399.958 67.112 401.174 68.52C402.39 69.928 404.022 70.632 406.07 70.632ZM425.746 75.336C424.978 75.336 424.386 75.128 423.97 74.712C423.554 74.264 423.346 73.656 423.346 72.888V53.688C423.346 52.888 423.554 52.28 423.97 51.864C424.386 51.448 424.962 51.24 425.698 51.24C426.466 51.24 427.042 51.448 427.426 51.864C427.842 52.28 428.05 52.888 428.05 53.688V57.432L427.522 56.568C428.226 54.776 429.33 53.432 430.834 52.536C432.338 51.608 434.066 51.144 436.018 51.144C437.874 51.144 439.41 51.496 440.626 52.2C441.874 52.872 442.802 53.912 443.41 55.32C444.018 56.696 444.322 58.44 444.322 60.552V72.888C444.322 73.656 444.114 74.264 443.698 74.712C443.282 75.128 442.69 75.336 441.922 75.336C441.122 75.336 440.514 75.128 440.098 74.712C439.682 74.264 439.474 73.656 439.474 72.888V60.84C439.474 58.824 439.074 57.352 438.274 56.424C437.506 55.496 436.29 55.032 434.626 55.032C432.674 55.032 431.106 55.64 429.922 56.856C428.77 58.072 428.194 59.704 428.194 61.752V72.888C428.194 74.52 427.378 75.336 425.746 75.336Z" fill="black"/>
<path d="M251.728 131.432C249.328 131.432 247.248 130.936 245.488 129.944C243.76 128.92 242.416 127.496 241.456 125.672C240.496 123.816 240.016 121.64 240.016 119.144C240.016 117.288 240.288 115.624 240.832 114.152C241.376 112.648 242.144 111.384 243.136 110.36C244.16 109.336 245.392 108.552 246.832 108.008C248.304 107.432 249.936 107.144 251.728 107.144C252.848 107.144 254.016 107.32 255.232 107.672C256.48 107.992 257.632 108.536 258.688 109.304C259.104 109.56 259.36 109.88 259.456 110.264C259.584 110.616 259.6 110.984 259.504 111.368C259.44 111.752 259.264 112.088 258.976 112.376C258.72 112.632 258.4 112.792 258.016 112.856C257.632 112.888 257.216 112.776 256.768 112.52C256 111.976 255.216 111.592 254.416 111.368C253.616 111.112 252.848 110.984 252.112 110.984C250.96 110.984 249.936 111.176 249.04 111.56C248.176 111.912 247.44 112.44 246.832 113.144C246.224 113.816 245.76 114.664 245.44 115.688C245.152 116.712 245.008 117.88 245.008 119.192C245.008 121.816 245.616 123.88 246.832 125.384C248.08 126.856 249.84 127.592 252.112 127.592C252.848 127.592 253.616 127.48 254.416 127.256C255.216 127.032 256 126.648 256.768 126.104C257.216 125.848 257.632 125.752 258.016 125.816C258.4 125.88 258.704 126.056 258.928 126.344C259.184 126.6 259.344 126.92 259.408 127.304C259.504 127.656 259.488 128.024 259.36 128.408C259.232 128.792 258.96 129.112 258.544 129.368C257.52 130.104 256.4 130.632 255.184 130.952C254 131.272 252.848 131.432 251.728 131.432ZM265.214 131.336C264.446 131.336 263.854 131.128 263.438 130.712C263.022 130.264 262.814 129.656 262.814 128.888V99.272C262.814 98.472 263.022 97.864 263.438 97.448C263.854 97.032 264.446 96.824 265.214 96.824C265.982 96.824 266.574 97.032 266.99 97.448C267.438 97.864 267.662 98.472 267.662 99.272V112.568H266.99C267.694 110.776 268.798 109.432 270.302 108.536C271.806 107.608 273.534 107.144 275.486 107.144C277.342 107.144 278.878 107.496 280.094 108.2C281.342 108.872 282.27 109.912 282.878 111.32C283.486 112.696 283.79 114.44 283.79 116.552V128.888C283.79 129.656 283.582 130.264 283.166 130.712C282.75 131.128 282.158 131.336 281.39 131.336C280.59 131.336 279.982 131.128 279.566 130.712C279.15 130.264 278.942 129.656 278.942 128.888V116.84C278.942 114.824 278.542 113.352 277.742 112.424C276.974 111.496 275.758 111.032 274.094 111.032C272.142 111.032 270.574 111.64 269.39 112.856C268.238 114.072 267.662 115.704 267.662 117.752V128.888C267.662 130.52 266.846 131.336 265.214 131.336ZM300.463 131.432C297.903 131.432 295.695 130.952 293.839 129.992C292.015 129 290.591 127.608 289.567 125.816C288.575 123.992 288.079 121.832 288.079 119.336C288.079 116.904 288.575 114.776 289.567 112.952C290.559 111.128 291.919 109.704 293.647 108.68C295.375 107.656 297.343 107.144 299.551 107.144C301.183 107.144 302.639 107.416 303.919 107.96C305.199 108.472 306.287 109.24 307.183 110.264C308.111 111.256 308.799 112.472 309.247 113.912C309.727 115.352 309.967 116.968 309.967 118.76C309.967 119.304 309.807 119.72 309.487 120.008C309.167 120.264 308.687 120.392 308.047 120.392H291.919V117.416H306.703L305.887 118.088C305.887 116.488 305.647 115.128 305.167 114.008C304.719 112.888 304.031 112.04 303.103 111.464C302.207 110.856 301.087 110.552 299.743 110.552C298.239 110.552 296.959 110.904 295.903 111.608C294.879 112.312 294.095 113.288 293.551 114.536C293.007 115.784 292.735 117.24 292.735 118.904V119.192C292.735 122.008 293.391 124.136 294.703 125.576C296.047 126.984 297.983 127.688 300.511 127.688C301.471 127.688 302.479 127.56 303.535 127.304C304.623 127.048 305.647 126.616 306.607 126.008C307.151 125.688 307.631 125.544 308.047 125.576C308.495 125.608 308.847 125.752 309.103 126.008C309.391 126.264 309.567 126.584 309.631 126.968C309.695 127.352 309.631 127.752 309.439 128.168C309.247 128.552 308.911 128.904 308.431 129.224C307.343 129.96 306.079 130.52 304.639 130.904C303.199 131.256 301.807 131.432 300.463 131.432ZM314.929 131C314.417 131 314.001 130.888 313.681 130.664C313.361 130.408 313.137 130.088 313.009 129.704C312.913 129.288 312.913 128.856 313.009 128.408C313.137 127.928 313.393 127.48 313.777 127.064L326.833 110.12V111.32H314.641C314.033 111.32 313.569 111.16 313.249 110.84C312.929 110.488 312.769 110.024 312.769 109.448C312.769 108.84 312.929 108.376 313.249 108.056C313.569 107.736 314.033 107.576 314.641 107.576H329.137C329.745 107.576 330.225 107.704 330.577 107.96C330.961 108.216 331.201 108.536 331.297 108.92C331.425 109.304 331.441 109.72 331.345 110.168C331.249 110.616 331.009 111.048 330.625 111.464L317.377 128.6V127.304H330.193C331.473 127.304 332.113 127.912 332.113 129.128C332.113 129.704 331.937 130.168 331.585 130.52C331.265 130.84 330.801 131 330.193 131H314.929ZM350.151 131.336C349.351 131.336 348.727 131.112 348.279 130.664C347.863 130.216 347.655 129.592 347.655 128.792V99.704C347.655 98.872 347.879 98.248 348.327 97.832C348.775 97.384 349.399 97.16 350.199 97.16H361.671C365.319 97.16 368.135 98.024 370.119 99.752C372.103 101.48 373.095 103.928 373.095 107.096C373.095 109.144 372.647 110.904 371.751 112.376C370.855 113.848 369.543 114.968 367.815 115.736C366.119 116.504 364.071 116.888 361.671 116.888L362.103 116.216H363.351C364.631 116.216 365.735 116.536 366.663 117.176C367.623 117.816 368.487 118.84 369.255 120.248L373.383 127.928C373.703 128.504 373.847 129.064 373.815 129.608C373.815 130.12 373.623 130.536 373.239 130.856C372.887 131.176 372.375 131.336 371.703 131.336C370.999 131.336 370.423 131.192 369.975 130.904C369.559 130.584 369.175 130.12 368.823 129.512L363.783 120.2C363.111 118.952 362.343 118.12 361.479 117.704C360.615 117.256 359.479 117.032 358.071 117.032H352.647V128.792C352.647 129.592 352.439 130.216 352.023 130.664C351.607 131.112 350.983 131.336 350.151 131.336ZM352.647 113.288H360.855C363.287 113.288 365.127 112.776 366.375 111.752C367.623 110.728 368.247 109.208 368.247 107.192C368.247 105.208 367.623 103.704 366.375 102.68C365.127 101.656 363.287 101.144 360.855 101.144H352.647V113.288ZM388.954 131.336C388.154 131.336 387.53 131.112 387.082 130.664C386.666 130.216 386.458 129.592 386.458 128.792V101.336H376.282C375.61 101.336 375.082 101.16 374.698 100.808C374.314 100.424 374.122 99.896 374.122 99.224C374.122 98.552 374.314 98.04 374.698 97.688C375.082 97.336 375.61 97.16 376.282 97.16H401.578C402.282 97.16 402.826 97.336 403.21 97.688C403.594 98.04 403.786 98.552 403.786 99.224C403.786 99.896 403.594 100.424 403.21 100.808C402.826 101.16 402.282 101.336 401.578 101.336H391.402V128.792C391.402 129.592 391.194 130.216 390.778 130.664C390.394 131.112 389.786 131.336 388.954 131.336ZM409.233 131C408.369 131 407.697 130.776 407.217 130.328C406.769 129.848 406.545 129.176 406.545 128.312V99.848C406.545 98.984 406.769 98.328 407.217 97.88C407.697 97.4 408.369 97.16 409.233 97.16H426.753C427.425 97.16 427.937 97.336 428.289 97.688C428.641 98.008 428.817 98.488 428.817 99.128C428.817 99.8 428.641 100.312 428.289 100.664C427.937 101.016 427.425 101.192 426.753 101.192H411.345V111.8H425.697C426.401 111.8 426.913 111.976 427.233 112.328C427.585 112.68 427.761 113.176 427.761 113.816C427.761 114.488 427.585 115 427.233 115.352C426.913 115.672 426.401 115.832 425.697 115.832H411.345V126.968H426.753C427.425 126.968 427.937 127.144 428.289 127.496C428.641 127.848 428.817 128.344 428.817 128.984C428.817 129.656 428.641 130.168 428.289 130.52C427.937 130.84 427.425 131 426.753 131H409.233Z" fill="black"/>
<line x1="181" y1="131.5" x2="501" y2="131.5" stroke="#DE2048"/>
<line x1="181" y1="75.5" x2="501" y2="75.5" stroke="#DE2048"/>
<line x1="181" y1="96.75" x2="476" y2="96.75" stroke="#A1A1A0" stroke-width="0.5"/>
<line x1="220.25" y1="16" x2="220.25" y2="158" stroke="#A1A1A0" stroke-width="0.5"/>
<line x1="475.25" y1="16" x2="475.25" y2="158" stroke="#A1A1A0" stroke-width="0.5"/>
<line x1="181" y1="40.75" x2="501" y2="40.75" stroke="#A1A1A0" stroke-width="0.5"/>
<line x1="475.5" y1="75" x2="475.5" y2="132" stroke="#2964A0" stroke-width="3"/>
<line x1="220" y1="97" x2="220" y2="132" stroke="#737272" stroke-width="2"/>
<line x1="467" y1="76.5" x2="485" y2="76.5" stroke="#2964A0" stroke-width="3"/>
<line x1="214" y1="98" x2="226" y2="98" stroke="#737272" stroke-width="2"/>
<line x1="467" y1="130.5" x2="485" y2="130.5" stroke="#2964A0" stroke-width="3"/>
<line x1="214" y1="131" x2="226" y2="131" stroke="#737272" stroke-width="2"/>
<path d="M487.227 110V98.6406H489.539V108.07H495.289V110H487.227ZM495.93 100.578V98.5469H498.125V100.578H495.93ZM495.93 110V101.703H498.125V110H495.93ZM506.93 110H504.734V105.766C504.734 104.87 504.688 104.292 504.594 104.031C504.5 103.766 504.346 103.56 504.133 103.414C503.924 103.268 503.672 103.195 503.375 103.195C502.995 103.195 502.654 103.299 502.352 103.508C502.049 103.716 501.841 103.992 501.727 104.336C501.617 104.68 501.562 105.315 501.562 106.242V110H499.367V101.703H501.406V102.922C502.13 101.984 503.042 101.516 504.141 101.516C504.625 101.516 505.068 101.604 505.469 101.781C505.87 101.953 506.172 102.174 506.375 102.445C506.583 102.716 506.727 103.023 506.805 103.367C506.888 103.711 506.93 104.203 506.93 104.844V110ZM512.969 107.359L515.156 107.727C514.875 108.529 514.43 109.141 513.82 109.562C513.216 109.979 512.458 110.188 511.547 110.188C510.104 110.188 509.036 109.716 508.344 108.773C507.797 108.018 507.523 107.065 507.523 105.914C507.523 104.539 507.883 103.464 508.602 102.688C509.32 101.906 510.229 101.516 511.328 101.516C512.562 101.516 513.536 101.924 514.25 102.742C514.964 103.555 515.305 104.802 515.273 106.484H509.773C509.789 107.135 509.966 107.643 510.305 108.008C510.643 108.367 511.065 108.547 511.57 108.547C511.914 108.547 512.203 108.453 512.438 108.266C512.672 108.078 512.849 107.776 512.969 107.359ZM513.094 105.141C513.078 104.505 512.914 104.023 512.602 103.695C512.289 103.362 511.909 103.195 511.461 103.195C510.982 103.195 510.586 103.37 510.273 103.719C509.961 104.068 509.807 104.542 509.812 105.141H513.094ZM521.711 98.5469V102.758C522.419 101.93 523.266 101.516 524.25 101.516C524.755 101.516 525.211 101.609 525.617 101.797C526.023 101.984 526.328 102.224 526.531 102.516C526.74 102.807 526.88 103.13 526.953 103.484C527.031 103.839 527.07 104.388 527.07 105.133V110H524.875V105.617C524.875 104.747 524.833 104.195 524.75 103.961C524.667 103.727 524.518 103.542 524.305 103.406C524.096 103.266 523.833 103.195 523.516 103.195C523.151 103.195 522.826 103.284 522.539 103.461C522.253 103.638 522.042 103.906 521.906 104.266C521.776 104.62 521.711 105.146 521.711 105.844V110H519.516V98.5469H521.711ZM533.109 107.359L535.297 107.727C535.016 108.529 534.57 109.141 533.961 109.562C533.357 109.979 532.599 110.188 531.688 110.188C530.245 110.188 529.177 109.716 528.484 108.773C527.938 108.018 527.664 107.065 527.664 105.914C527.664 104.539 528.023 103.464 528.742 102.688C529.461 101.906 530.37 101.516 531.469 101.516C532.703 101.516 533.677 101.924 534.391 102.742C535.104 103.555 535.445 104.802 535.414 106.484H529.914C529.93 107.135 530.107 107.643 530.445 108.008C530.784 108.367 531.206 108.547 531.711 108.547C532.055 108.547 532.344 108.453 532.578 108.266C532.812 108.078 532.99 107.776 533.109 107.359ZM533.234 105.141C533.219 104.505 533.055 104.023 532.742 103.695C532.43 103.362 532.049 103.195 531.602 103.195C531.122 103.195 530.727 103.37 530.414 103.719C530.102 104.068 529.948 104.542 529.953 105.141H533.234ZM536.211 100.578V98.5469H538.406V100.578H536.211ZM536.211 110V101.703H538.406V110H536.211ZM539.461 110.547L541.969 110.852C542.01 111.143 542.107 111.344 542.258 111.453C542.466 111.609 542.794 111.688 543.242 111.688C543.815 111.688 544.245 111.602 544.531 111.43C544.724 111.315 544.87 111.13 544.969 110.875C545.036 110.693 545.07 110.357 545.07 109.867V108.656C544.414 109.552 543.586 110 542.586 110C541.471 110 540.589 109.529 539.938 108.586C539.427 107.841 539.172 106.914 539.172 105.805C539.172 104.414 539.505 103.352 540.172 102.617C540.844 101.883 541.677 101.516 542.672 101.516C543.698 101.516 544.544 101.966 545.211 102.867V101.703H547.266V109.148C547.266 110.128 547.185 110.859 547.023 111.344C546.862 111.828 546.635 112.208 546.344 112.484C546.052 112.76 545.661 112.977 545.172 113.133C544.688 113.289 544.073 113.367 543.328 113.367C541.922 113.367 540.924 113.125 540.336 112.641C539.747 112.161 539.453 111.552 539.453 110.812C539.453 110.74 539.456 110.651 539.461 110.547ZM541.422 105.68C541.422 106.56 541.591 107.206 541.93 107.617C542.273 108.023 542.695 108.227 543.195 108.227C543.732 108.227 544.185 108.018 544.555 107.602C544.924 107.18 545.109 106.557 545.109 105.734C545.109 104.875 544.932 104.237 544.578 103.82C544.224 103.404 543.776 103.195 543.234 103.195C542.708 103.195 542.273 103.401 541.93 103.812C541.591 104.219 541.422 104.841 541.422 105.68ZM550.633 98.5469V102.758C551.341 101.93 552.188 101.516 553.172 101.516C553.677 101.516 554.133 101.609 554.539 101.797C554.945 101.984 555.25 102.224 555.453 102.516C555.661 102.807 555.802 103.13 555.875 103.484C555.953 103.839 555.992 104.388 555.992 105.133V110H553.797V105.617C553.797 104.747 553.755 104.195 553.672 103.961C553.589 103.727 553.44 103.542 553.227 103.406C553.018 103.266 552.755 103.195 552.438 103.195C552.073 103.195 551.747 103.284 551.461 103.461C551.174 103.638 550.964 103.906 550.828 104.266C550.698 104.62 550.633 105.146 550.633 105.844V110H548.438V98.5469H550.633ZM561.031 101.703V103.453H559.531V106.797C559.531 107.474 559.544 107.87 559.57 107.984C559.602 108.094 559.667 108.185 559.766 108.258C559.87 108.331 559.995 108.367 560.141 108.367C560.344 108.367 560.638 108.297 561.023 108.156L561.211 109.859C560.701 110.078 560.122 110.188 559.477 110.188C559.081 110.188 558.724 110.122 558.406 109.992C558.089 109.857 557.854 109.685 557.703 109.477C557.557 109.263 557.456 108.977 557.398 108.617C557.352 108.362 557.328 107.846 557.328 107.07V103.453H556.32V101.703H557.328V100.055L559.531 98.7734V101.703H561.031Z" fill="#2964A0"/>
<path d="M151.312 120V108.547H159.039V109.898H152.828V113.445H158.203V114.797H152.828V120H151.312ZM159.312 115.852C159.312 114.315 159.74 113.177 160.594 112.438C161.307 111.823 162.177 111.516 163.203 111.516C164.344 111.516 165.276 111.891 166 112.641C166.724 113.385 167.086 114.417 167.086 115.734C167.086 116.802 166.924 117.643 166.602 118.258C166.284 118.867 165.818 119.341 165.203 119.68C164.594 120.018 163.927 120.188 163.203 120.188C162.042 120.188 161.102 119.815 160.383 119.07C159.669 118.326 159.312 117.253 159.312 115.852ZM160.758 115.852C160.758 116.914 160.99 117.711 161.453 118.242C161.917 118.768 162.5 119.031 163.203 119.031C163.901 119.031 164.482 118.766 164.945 118.234C165.409 117.703 165.641 116.893 165.641 115.805C165.641 114.779 165.406 114.003 164.938 113.477C164.474 112.945 163.896 112.68 163.203 112.68C162.5 112.68 161.917 112.943 161.453 113.469C160.99 113.995 160.758 114.789 160.758 115.852ZM167.742 120V111.703H169.008V112.883C169.617 111.971 170.497 111.516 171.648 111.516C172.148 111.516 172.607 111.607 173.023 111.789C173.445 111.966 173.76 112.201 173.969 112.492C174.177 112.784 174.323 113.13 174.406 113.531C174.458 113.792 174.484 114.247 174.484 114.898V120H173.078V114.953C173.078 114.38 173.023 113.953 172.914 113.672C172.805 113.385 172.609 113.159 172.328 112.992C172.052 112.82 171.727 112.734 171.352 112.734C170.753 112.734 170.234 112.924 169.797 113.305C169.365 113.685 169.148 114.406 169.148 115.469V120H167.742ZM178.719 118.742L178.922 119.984C178.526 120.068 178.172 120.109 177.859 120.109C177.349 120.109 176.953 120.029 176.672 119.867C176.391 119.706 176.193 119.495 176.078 119.234C175.964 118.969 175.906 118.414 175.906 117.57V112.797H174.875V111.703H175.906V109.648L177.305 108.805V111.703H178.719V112.797H177.305V117.648C177.305 118.049 177.328 118.307 177.375 118.422C177.427 118.536 177.508 118.628 177.617 118.695C177.732 118.763 177.893 118.797 178.102 118.797C178.258 118.797 178.464 118.779 178.719 118.742ZM181.992 117.523L183.383 117.305C183.461 117.862 183.677 118.289 184.031 118.586C184.391 118.883 184.891 119.031 185.531 119.031C186.177 119.031 186.656 118.901 186.969 118.641C187.281 118.375 187.438 118.065 187.438 117.711C187.438 117.393 187.299 117.143 187.023 116.961C186.831 116.836 186.352 116.677 185.586 116.484C184.555 116.224 183.839 116 183.438 115.812C183.042 115.62 182.74 115.357 182.531 115.023C182.328 114.685 182.227 114.312 182.227 113.906C182.227 113.536 182.31 113.195 182.477 112.883C182.648 112.565 182.88 112.302 183.172 112.094C183.391 111.932 183.688 111.797 184.062 111.688C184.443 111.573 184.849 111.516 185.281 111.516C185.932 111.516 186.503 111.609 186.992 111.797C187.487 111.984 187.852 112.24 188.086 112.562C188.32 112.88 188.482 113.307 188.57 113.844L187.195 114.031C187.133 113.604 186.951 113.271 186.648 113.031C186.352 112.792 185.93 112.672 185.383 112.672C184.737 112.672 184.276 112.779 184 112.992C183.724 113.206 183.586 113.456 183.586 113.742C183.586 113.924 183.643 114.089 183.758 114.234C183.872 114.385 184.052 114.51 184.297 114.609C184.438 114.661 184.852 114.781 185.539 114.969C186.534 115.234 187.227 115.453 187.617 115.625C188.013 115.792 188.323 116.036 188.547 116.359C188.771 116.682 188.883 117.083 188.883 117.562C188.883 118.031 188.745 118.474 188.469 118.891C188.198 119.302 187.805 119.622 187.289 119.852C186.773 120.076 186.19 120.188 185.539 120.188C184.461 120.188 183.638 119.964 183.07 119.516C182.508 119.068 182.148 118.404 181.992 117.523ZM189.562 110.164V108.547H190.969V110.164H189.562ZM189.562 120V111.703H190.969V120H189.562ZM191.375 120V118.859L196.656 112.797C196.057 112.828 195.529 112.844 195.07 112.844H191.688V111.703H198.469V112.633L193.977 117.898L193.109 118.859C193.74 118.812 194.331 118.789 194.883 118.789H198.719V120H191.375ZM204.797 117.328L206.25 117.508C206.021 118.357 205.596 119.016 204.977 119.484C204.357 119.953 203.565 120.188 202.602 120.188C201.388 120.188 200.424 119.815 199.711 119.07C199.003 118.32 198.648 117.271 198.648 115.922C198.648 114.526 199.008 113.443 199.727 112.672C200.445 111.901 201.378 111.516 202.523 111.516C203.633 111.516 204.539 111.893 205.242 112.648C205.945 113.404 206.297 114.466 206.297 115.836C206.297 115.919 206.294 116.044 206.289 116.211H200.102C200.154 117.122 200.411 117.82 200.875 118.305C201.339 118.789 201.917 119.031 202.609 119.031C203.125 119.031 203.565 118.896 203.93 118.625C204.294 118.354 204.583 117.922 204.797 117.328ZM200.18 115.055H204.812C204.75 114.357 204.573 113.833 204.281 113.484C203.833 112.943 203.253 112.672 202.539 112.672C201.893 112.672 201.349 112.888 200.906 113.32C200.469 113.753 200.227 114.331 200.18 115.055Z" fill="#737272"/>
</svg>
