<svg viewBox="0 0 20 20" fill="none" xmlns="http://www.w3.org/2000/svg">
<path d="M5.83333 14.1667H9.16667C9.40278 14.1667 9.60069 14.0868 9.76042 13.9271C9.92014 13.7674 10 13.5694 10 13.3333C10 13.0972 9.92014 12.8993 9.76042 12.7396C9.60069 12.5799 9.40278 12.5 9.16667 12.5H5.83333C5.59722 12.5 5.39931 12.5799 5.23958 12.7396C5.07986 12.8993 5 13.0972 5 13.3333C5 13.5694 5.07986 13.7674 5.23958 13.9271C5.39931 14.0868 5.59722 14.1667 5.83333 14.1667ZM8.33333 10.8333H11.6667C11.9028 10.8333 12.1007 10.7535 12.2604 10.5938C12.4201 10.434 12.5 10.2361 12.5 10C12.5 9.76389 12.4201 9.56597 12.2604 9.40625C12.1007 9.24653 11.9028 9.16667 11.6667 9.16667H8.33333C8.09722 9.16667 7.89931 9.24653 7.73958 9.40625C7.57986 9.56597 7.5 9.76389 7.5 10C7.5 10.2361 7.57986 10.434 7.73958 10.5938C7.89931 10.7535 8.09722 10.8333 8.33333 10.8333ZM10.8333 7.5H14.1667C14.4028 7.5 14.6007 7.42014 14.7604 7.26042C14.9201 7.10069 15 6.90278 15 6.66667C15 6.43056 14.9201 6.23264 14.7604 6.07292C14.6007 5.91319 14.4028 5.83333 14.1667 5.83333H10.8333C10.5972 5.83333 10.3993 5.91319 10.2396 6.07292C10.0799 6.23264 10 6.43056 10 6.66667C10 6.90278 10.0799 7.10069 10.2396 7.26042C10.3993 7.42014 10.5972 7.5 10.8333 7.5ZM4.16667 17.5C3.70833 17.5 3.31597 17.3368 2.98958 17.0104C2.66319 16.684 2.5 16.2917 2.5 15.8333V4.16667C2.5 3.70833 2.66319 3.31597 2.98958 2.98958C3.31597 2.66319 3.70833 2.5 4.16667 2.5H15.8333C16.2917 2.5 16.684 2.66319 17.0104 2.98958C17.3368 3.31597 17.5 3.70833 17.5 4.16667V15.8333C17.5 16.2917 17.3368 16.684 17.0104 17.0104C16.684 17.3368 16.2917 17.5 15.8333 17.5H4.16667ZM4.16667 15.8333H15.8333V4.16667H4.16667V15.8333Z" fill="currentColor"/>
</svg>