<svg viewBox="0 0 20 20" fill="none" xmlns="http://www.w3.org/2000/svg">
<path d="M9.95835 15C10.25 15 10.4965 14.8993 10.6979 14.6979C10.8993 14.4965 11 14.25 11 13.9584C11 13.6667 10.8993 13.4202 10.6979 13.2188C10.4965 13.0174 10.25 12.9167 9.95835 12.9167C9.66669 12.9167 9.42016 13.0174 9.21877 13.2188C9.01738 13.4202 8.91669 13.6667 8.91669 13.9584C8.91669 14.25 9.01738 14.4965 9.21877 14.6979C9.42016 14.8993 9.66669 15 9.95835 15ZM10 18.3334C8.84724 18.3334 7.76391 18.1146 6.75002 17.6771C5.73613 17.2396 4.85419 16.6459 4.10419 15.8959C3.35419 15.1459 2.76044 14.2639 2.32294 13.25C1.88544 12.2361 1.66669 11.1528 1.66669 10C1.66669 8.84724 1.88544 7.76391 2.32294 6.75002C2.76044 5.73613 3.35419 4.85419 4.10419 4.10419C4.85419 3.35419 5.73613 2.76044 6.75002 2.32294C7.76391 1.88544 8.84724 1.66669 10 1.66669C11.1528 1.66669 12.2361 1.88544 13.25 2.32294C14.2639 2.76044 15.1459 3.35419 15.8959 4.10419C16.6459 4.85419 17.2396 5.73613 17.6771 6.75002C18.1146 7.76391 18.3334 8.84724 18.3334 10C18.3334 11.1528 18.1146 12.2361 17.6771 13.25C17.2396 14.2639 16.6459 15.1459 15.8959 15.8959C15.1459 16.6459 14.2639 17.2396 13.25 17.6771C12.2361 18.1146 11.1528 18.3334 10 18.3334ZM10 16.6667C11.8611 16.6667 13.4375 16.0209 14.7292 14.7292C16.0209 13.4375 16.6667 11.8611 16.6667 10C16.6667 8.13891 16.0209 6.56252 14.7292 5.27085C13.4375 3.97919 11.8611 3.33335 10 3.33335C8.13891 3.33335 6.56252 3.97919 5.27085 5.27085C3.97919 6.56252 3.33335 8.13891 3.33335 10C3.33335 11.8611 3.97919 13.4375 5.27085 14.7292C6.56252 16.0209 8.13891 16.6667 10 16.6667ZM10.0834 6.41669C10.4306 6.41669 10.7327 6.5278 10.9896 6.75002C11.2465 6.97224 11.375 7.25002 11.375 7.58335C11.375 7.88891 11.2813 8.15974 11.0938 8.39585C10.9063 8.63196 10.6945 8.85419 10.4584 9.06252C10.1389 9.3403 9.85766 9.64585 9.6146 9.97919C9.37155 10.3125 9.25002 10.6875 9.25002 11.1042C9.25002 11.2986 9.32294 11.4618 9.46877 11.5938C9.6146 11.7257 9.78474 11.7917 9.97919 11.7917C10.1875 11.7917 10.3646 11.7222 10.5104 11.5834C10.6563 11.4445 10.75 11.2709 10.7917 11.0625C10.8472 10.7709 10.9722 10.5104 11.1667 10.2813C11.3611 10.0521 11.5695 9.83335 11.7917 9.62502C12.1111 9.31946 12.3854 8.98613 12.6146 8.62502C12.8438 8.26391 12.9584 7.86113 12.9584 7.41669C12.9584 6.70835 12.6702 6.12849 12.0938 5.6771C11.5174 5.22571 10.8472 5.00002 10.0834 5.00002C9.55558 5.00002 9.0521 5.11113 8.57294 5.33335C8.09377 5.55558 7.72919 5.89585 7.47919 6.35419C7.38196 6.52085 7.35071 6.69794 7.38544 6.88544C7.42016 7.07294 7.51391 7.2153 7.66669 7.31252C7.86113 7.42363 8.06252 7.45835 8.27085 7.41669C8.47919 7.37502 8.6528 7.25696 8.79169 7.06252C8.94446 6.85419 9.13544 6.69446 9.3646 6.58335C9.59377 6.47224 9.83335 6.41669 10.0834 6.41669Z" fill="currentColor"/>
</svg>