<svg width="1159" height="396" viewBox="0 0 1159 396" fill="none" xmlns="http://www.w3.org/2000/svg">
<g clip-path="url(#clip0_168_17814)">
<path d="M0 8.00001C0 3.58173 3.58172 0 8 0H1151C1155.42 0 1159 3.58172 1159 8V388C1159 392.418 1155.42 396 1151 396H8.00002C3.58174 396 0 392.418 0 388V8.00001Z" fill="white"/>
<path d="M492.644 48.168C492.276 48.168 491.988 48.064 491.78 47.856C491.572 47.648 491.468 47.352 491.468 46.968V32.16C491.468 31.76 491.564 31.456 491.756 31.248C491.964 31.024 492.236 30.912 492.572 30.912C492.86 30.912 493.076 30.968 493.22 31.08C493.38 31.176 493.564 31.36 493.772 31.632L503.66 44.664H503.06V32.088C503.06 31.72 503.156 31.432 503.348 31.224C503.556 31.016 503.844 30.912 504.212 30.912C504.596 30.912 504.884 31.016 505.076 31.224C505.268 31.432 505.364 31.72 505.364 32.088V46.992C505.364 47.36 505.268 47.648 505.076 47.856C504.9 48.064 504.66 48.168 504.356 48.168C504.068 48.168 503.828 48.112 503.636 48C503.46 47.888 503.268 47.696 503.06 47.424L493.22 34.416H493.772V46.968C493.772 47.352 493.676 47.648 493.484 47.856C493.292 48.064 493.012 48.168 492.644 48.168ZM514.036 48.216C512.756 48.216 511.652 47.976 510.724 47.496C509.812 47 509.1 46.304 508.588 45.408C508.092 44.496 507.844 43.416 507.844 42.168C507.844 40.952 508.092 39.888 508.588 38.976C509.084 38.064 509.764 37.352 510.628 36.84C511.492 36.328 512.476 36.072 513.58 36.072C514.396 36.072 515.124 36.208 515.764 36.48C516.404 36.736 516.948 37.12 517.396 37.632C517.86 38.128 518.204 38.736 518.428 39.456C518.668 40.176 518.788 40.984 518.788 41.88C518.788 42.152 518.708 42.36 518.548 42.504C518.388 42.632 518.148 42.696 517.828 42.696H509.764V41.208H517.156L516.748 41.544C516.748 40.744 516.628 40.064 516.388 39.504C516.164 38.944 515.82 38.52 515.356 38.232C514.908 37.928 514.348 37.776 513.676 37.776C512.924 37.776 512.284 37.952 511.756 38.304C511.244 38.656 510.852 39.144 510.58 39.768C510.308 40.392 510.172 41.12 510.172 41.952V42.096C510.172 43.504 510.5 44.568 511.156 45.288C511.828 45.992 512.796 46.344 514.06 46.344C514.54 46.344 515.044 46.28 515.572 46.152C516.116 46.024 516.628 45.808 517.108 45.504C517.38 45.344 517.62 45.272 517.828 45.288C518.052 45.304 518.228 45.376 518.356 45.504C518.5 45.632 518.588 45.792 518.62 45.984C518.652 46.176 518.62 46.376 518.524 46.584C518.428 46.776 518.26 46.952 518.02 47.112C517.476 47.48 516.844 47.76 516.124 47.952C515.404 48.128 514.708 48.216 514.036 48.216ZM525.107 48.216C524.163 48.216 523.371 48.04 522.731 47.688C522.107 47.336 521.635 46.816 521.315 46.128C521.011 45.424 520.859 44.544 520.859 43.488V37.344C520.859 36.928 520.963 36.624 521.171 36.432C521.379 36.224 521.675 36.12 522.059 36.12C522.443 36.12 522.739 36.224 522.947 36.432C523.171 36.624 523.283 36.928 523.283 37.344V43.512C523.283 44.456 523.475 45.152 523.859 45.6C524.243 46.048 524.851 46.272 525.683 46.272C526.595 46.272 527.331 45.968 527.891 45.36C528.467 44.736 528.755 43.92 528.755 42.912V37.344C528.755 36.928 528.859 36.624 529.067 36.432C529.275 36.224 529.579 36.12 529.979 36.12C530.363 36.12 530.659 36.224 530.867 36.432C531.075 36.624 531.179 36.928 531.179 37.344V46.944C531.179 47.76 530.787 48.168 530.003 48.168C529.635 48.168 529.347 48.064 529.139 47.856C528.931 47.632 528.827 47.328 528.827 46.944V44.904L529.139 45.432C528.819 46.328 528.307 47.016 527.603 47.496C526.899 47.976 526.067 48.216 525.107 48.216ZM539.087 48.216C538.127 48.216 537.319 48.048 536.663 47.712C536.007 47.376 535.519 46.88 535.199 46.224C534.879 45.568 534.719 44.768 534.719 43.824V38.16H533.279C532.959 38.16 532.711 38.08 532.535 37.92C532.359 37.744 532.271 37.512 532.271 37.224C532.271 36.92 532.359 36.688 532.535 36.528C532.711 36.368 532.959 36.288 533.279 36.288H534.719V33.816C534.719 33.416 534.823 33.112 535.031 32.904C535.255 32.696 535.559 32.592 535.943 32.592C536.327 32.592 536.623 32.696 536.831 32.904C537.039 33.112 537.143 33.416 537.143 33.816V36.288H539.951C540.271 36.288 540.519 36.368 540.695 36.528C540.871 36.688 540.959 36.92 540.959 37.224C540.959 37.512 540.871 37.744 540.695 37.92C540.519 38.08 540.271 38.16 539.951 38.16H537.143V43.632C537.143 44.48 537.319 45.12 537.671 45.552C538.039 45.984 538.631 46.2 539.447 46.2C539.735 46.2 539.983 46.176 540.191 46.128C540.415 46.064 540.599 46.024 540.743 46.008C540.919 46.008 541.063 46.072 541.175 46.2C541.287 46.312 541.343 46.536 541.343 46.872C541.343 47.112 541.295 47.336 541.199 47.544C541.119 47.752 540.967 47.888 540.743 47.952C540.551 48.016 540.287 48.072 539.951 48.12C539.631 48.184 539.343 48.216 539.087 48.216ZM543.584 48.168C543.184 48.168 542.88 48.064 542.672 47.856C542.464 47.632 542.36 47.328 542.36 46.944V37.344C542.36 36.944 542.464 36.64 542.672 36.432C542.88 36.224 543.168 36.12 543.536 36.12C543.92 36.12 544.208 36.224 544.4 36.432C544.608 36.64 544.712 36.944 544.712 37.344V39.096H544.472C544.728 38.136 545.2 37.408 545.888 36.912C546.576 36.416 547.456 36.128 548.528 36.048C548.816 36.032 549.04 36.104 549.2 36.264C549.376 36.424 549.472 36.672 549.488 37.008C549.52 37.344 549.448 37.616 549.272 37.824C549.096 38.016 548.824 38.128 548.456 38.16L548 38.208C546.96 38.304 546.168 38.632 545.624 39.192C545.08 39.752 544.808 40.52 544.808 41.496V46.944C544.808 47.328 544.704 47.632 544.496 47.856C544.304 48.064 544 48.168 543.584 48.168ZM554.44 48.216C553.624 48.216 552.888 48.056 552.232 47.736C551.592 47.416 551.088 46.984 550.72 46.44C550.352 45.896 550.168 45.28 550.168 44.592C550.168 43.728 550.384 43.048 550.816 42.552C551.264 42.04 551.992 41.68 553 41.472C554.024 41.248 555.4 41.136 557.128 41.136H558.256V42.624H557.152C556 42.624 555.088 42.68 554.416 42.792C553.744 42.904 553.264 43.096 552.976 43.368C552.704 43.624 552.568 43.984 552.568 44.448C552.568 45.056 552.776 45.552 553.192 45.936C553.608 46.304 554.184 46.488 554.92 46.488C555.512 46.488 556.032 46.352 556.48 46.08C556.928 45.792 557.28 45.408 557.536 44.928C557.808 44.448 557.944 43.896 557.944 43.272V40.512C557.944 39.6 557.752 38.944 557.368 38.544C556.984 38.144 556.352 37.944 555.472 37.944C554.96 37.944 554.424 38.008 553.864 38.136C553.32 38.264 552.752 38.48 552.16 38.784C551.888 38.912 551.656 38.952 551.464 38.904C551.272 38.856 551.12 38.752 551.008 38.592C550.896 38.416 550.832 38.232 550.816 38.04C550.816 37.832 550.864 37.632 550.96 37.44C551.072 37.248 551.256 37.104 551.512 37.008C552.216 36.672 552.912 36.432 553.6 36.288C554.288 36.144 554.936 36.072 555.544 36.072C556.616 36.072 557.496 36.24 558.184 36.576C558.888 36.912 559.408 37.424 559.744 38.112C560.08 38.8 560.248 39.688 560.248 40.776V46.944C560.248 47.328 560.152 47.632 559.96 47.856C559.768 48.064 559.488 48.168 559.12 48.168C558.768 48.168 558.488 48.064 558.28 47.856C558.072 47.632 557.968 47.328 557.968 46.944V45.384H558.184C558.056 45.976 557.816 46.488 557.464 46.92C557.128 47.336 556.704 47.656 556.192 47.88C555.68 48.104 555.096 48.216 554.44 48.216ZM566.855 48.216C565.607 48.216 564.663 47.856 564.023 47.136C563.399 46.4 563.087 45.344 563.087 43.968V32.136C563.087 31.736 563.191 31.432 563.399 31.224C563.607 31.016 563.903 30.912 564.287 30.912C564.671 30.912 564.967 31.016 565.175 31.224C565.399 31.432 565.511 31.736 565.511 32.136V43.824C565.511 44.624 565.671 45.224 565.991 45.624C566.327 46.008 566.807 46.2 567.431 46.2C567.575 46.2 567.703 46.2 567.815 46.2C567.927 46.184 568.039 46.168 568.151 46.152C568.343 46.136 568.479 46.192 568.559 46.32C568.639 46.432 568.679 46.672 568.679 47.04C568.679 47.376 568.607 47.64 568.463 47.832C568.319 48.008 568.087 48.12 567.767 48.168C567.623 48.184 567.471 48.192 567.311 48.192C567.151 48.208 566.999 48.216 566.855 48.216ZM579.855 48.216C579.151 48.216 578.423 48.136 577.671 47.976C576.935 47.816 576.255 47.544 575.631 47.16C575.423 47.016 575.279 46.856 575.199 46.68C575.119 46.504 575.087 46.328 575.103 46.152C575.135 45.96 575.207 45.8 575.319 45.672C575.447 45.528 575.599 45.44 575.775 45.408C575.967 45.376 576.167 45.416 576.375 45.528C576.999 45.88 577.599 46.128 578.175 46.272C578.751 46.4 579.319 46.464 579.879 46.464C580.727 46.464 581.367 46.312 581.799 46.008C582.231 45.704 582.447 45.296 582.447 44.784C582.447 44.368 582.303 44.048 582.015 43.824C581.727 43.584 581.295 43.4 580.719 43.272L578.439 42.816C577.447 42.608 576.695 42.24 576.183 41.712C575.671 41.184 575.415 40.512 575.415 39.696C575.415 38.96 575.615 38.32 576.015 37.776C576.415 37.232 576.975 36.816 577.695 36.528C578.415 36.224 579.247 36.072 580.191 36.072C580.895 36.072 581.559 36.16 582.183 36.336C582.807 36.512 583.383 36.776 583.911 37.128C584.119 37.24 584.255 37.392 584.319 37.584C584.383 37.76 584.391 37.936 584.343 38.112C584.311 38.288 584.231 38.448 584.103 38.592C583.975 38.72 583.815 38.8 583.623 38.832C583.447 38.848 583.247 38.8 583.023 38.688C582.543 38.384 582.063 38.168 581.583 38.04C581.119 37.912 580.655 37.848 580.191 37.848C579.343 37.848 578.703 38.008 578.271 38.328C577.855 38.632 577.647 39.048 577.647 39.576C577.647 39.976 577.775 40.304 578.031 40.56C578.287 40.816 578.687 41 579.231 41.112L581.511 41.568C582.551 41.776 583.335 42.128 583.863 42.624C584.407 43.12 584.679 43.792 584.679 44.64C584.679 45.744 584.239 46.616 583.359 47.256C582.479 47.896 581.311 48.216 579.855 48.216ZM588.076 48.168C587.692 48.168 587.396 48.064 587.188 47.856C586.98 47.632 586.876 47.328 586.876 46.944V32.136C586.876 31.736 586.98 31.432 587.188 31.224C587.396 31.016 587.692 30.912 588.076 30.912C588.46 30.912 588.756 31.016 588.964 31.224C589.188 31.432 589.3 31.736 589.3 32.136V38.784H588.964C589.316 37.888 589.868 37.216 590.62 36.768C591.372 36.304 592.236 36.072 593.212 36.072C594.14 36.072 594.908 36.248 595.516 36.6C596.14 36.936 596.604 37.456 596.908 38.16C597.212 38.848 597.364 39.72 597.364 40.776V46.944C597.364 47.328 597.26 47.632 597.052 47.856C596.844 48.064 596.548 48.168 596.164 48.168C595.764 48.168 595.46 48.064 595.252 47.856C595.044 47.632 594.94 47.328 594.94 46.944V40.92C594.94 39.912 594.74 39.176 594.34 38.712C593.956 38.248 593.348 38.016 592.516 38.016C591.54 38.016 590.756 38.32 590.164 38.928C589.588 39.536 589.3 40.352 589.3 41.376V46.944C589.3 47.76 588.892 48.168 588.076 48.168ZM603.948 48.216C603.132 48.216 602.396 48.056 601.74 47.736C601.1 47.416 600.596 46.984 600.228 46.44C599.86 45.896 599.676 45.28 599.676 44.592C599.676 43.728 599.892 43.048 600.324 42.552C600.772 42.04 601.5 41.68 602.508 41.472C603.532 41.248 604.908 41.136 606.636 41.136H607.764V42.624H606.66C605.508 42.624 604.596 42.68 603.924 42.792C603.252 42.904 602.772 43.096 602.484 43.368C602.212 43.624 602.076 43.984 602.076 44.448C602.076 45.056 602.284 45.552 602.7 45.936C603.116 46.304 603.692 46.488 604.428 46.488C605.02 46.488 605.54 46.352 605.988 46.08C606.436 45.792 606.788 45.408 607.044 44.928C607.316 44.448 607.452 43.896 607.452 43.272V40.512C607.452 39.6 607.26 38.944 606.876 38.544C606.492 38.144 605.86 37.944 604.98 37.944C604.468 37.944 603.932 38.008 603.372 38.136C602.828 38.264 602.26 38.48 601.668 38.784C601.396 38.912 601.164 38.952 600.972 38.904C600.78 38.856 600.628 38.752 600.516 38.592C600.404 38.416 600.34 38.232 600.324 38.04C600.324 37.832 600.372 37.632 600.468 37.44C600.58 37.248 600.764 37.104 601.02 37.008C601.724 36.672 602.42 36.432 603.108 36.288C603.796 36.144 604.444 36.072 605.052 36.072C606.124 36.072 607.004 36.24 607.692 36.576C608.396 36.912 608.916 37.424 609.252 38.112C609.588 38.8 609.756 39.688 609.756 40.776V46.944C609.756 47.328 609.66 47.632 609.468 47.856C609.276 48.064 608.996 48.168 608.628 48.168C608.276 48.168 607.996 48.064 607.788 47.856C607.58 47.632 607.476 47.328 607.476 46.944V45.384H607.692C607.564 45.976 607.324 46.488 606.972 46.92C606.636 47.336 606.212 47.656 605.7 47.88C605.188 48.104 604.604 48.216 603.948 48.216ZM617.059 48.216C616.035 48.216 615.131 47.976 614.347 47.496C613.579 47 612.979 46.296 612.547 45.384C612.115 44.456 611.899 43.376 611.899 42.144C611.899 40.88 612.115 39.8 612.547 38.904C612.979 38.008 613.579 37.312 614.347 36.816C615.131 36.32 616.035 36.072 617.059 36.072C618.083 36.072 618.963 36.328 619.699 36.84C620.451 37.336 620.955 38.008 621.211 38.856H620.947V32.136C620.947 31.736 621.051 31.432 621.259 31.224C621.467 31.016 621.763 30.912 622.147 30.912C622.531 30.912 622.827 31.016 623.035 31.224C623.259 31.432 623.371 31.736 623.371 32.136V46.944C623.371 47.328 623.267 47.632 623.059 47.856C622.851 48.064 622.555 48.168 622.171 48.168C621.787 48.168 621.491 48.064 621.283 47.856C621.075 47.632 620.971 47.328 620.971 46.944V44.832L621.235 45.36C620.979 46.224 620.475 46.92 619.723 47.448C618.987 47.96 618.099 48.216 617.059 48.216ZM617.683 46.344C618.339 46.344 618.915 46.184 619.411 45.864C619.907 45.544 620.291 45.072 620.563 44.448C620.851 43.824 620.995 43.056 620.995 42.144C620.995 40.768 620.691 39.728 620.083 39.024C619.475 38.32 618.675 37.968 617.683 37.968C617.011 37.968 616.427 38.128 615.931 38.448C615.435 38.752 615.043 39.216 614.755 39.84C614.483 40.464 614.347 41.232 614.347 42.144C614.347 43.504 614.651 44.544 615.259 45.264C615.867 45.984 616.675 46.344 617.683 46.344ZM631.362 48.216C630.178 48.216 629.154 47.968 628.29 47.472C627.442 46.976 626.778 46.272 626.298 45.36C625.818 44.448 625.578 43.376 625.578 42.144C625.578 41.2 625.714 40.36 625.986 39.624C626.258 38.888 626.642 38.256 627.138 37.728C627.65 37.184 628.258 36.776 628.962 36.504C629.682 36.216 630.482 36.072 631.362 36.072C632.53 36.072 633.538 36.32 634.386 36.816C635.25 37.312 635.922 38.016 636.402 38.928C636.882 39.824 637.122 40.896 637.122 42.144C637.122 43.072 636.986 43.912 636.714 44.664C636.442 45.416 636.05 46.056 635.538 46.584C635.042 47.112 634.434 47.52 633.714 47.808C633.01 48.08 632.226 48.216 631.362 48.216ZM631.362 46.344C632.018 46.344 632.594 46.184 633.09 45.864C633.586 45.544 633.97 45.072 634.242 44.448C634.53 43.824 634.674 43.056 634.674 42.144C634.674 40.768 634.37 39.728 633.762 39.024C633.154 38.32 632.354 37.968 631.362 37.968C630.69 37.968 630.106 38.128 629.61 38.448C629.114 38.752 628.722 39.216 628.434 39.84C628.162 40.464 628.026 41.232 628.026 42.144C628.026 43.504 628.33 44.544 628.938 45.264C629.546 45.984 630.354 46.344 631.362 46.344ZM643.406 48.168C643.07 48.168 642.774 48.088 642.518 47.928C642.278 47.752 642.086 47.48 641.942 47.112L638.414 37.776C638.286 37.456 638.246 37.176 638.294 36.936C638.342 36.68 638.462 36.48 638.654 36.336C638.862 36.192 639.126 36.12 639.446 36.12C639.734 36.12 639.966 36.192 640.142 36.336C640.334 36.464 640.494 36.72 640.622 37.104L643.766 45.96H643.19L646.454 37.008C646.566 36.704 646.718 36.48 646.91 36.336C647.102 36.192 647.35 36.12 647.654 36.12C647.958 36.12 648.206 36.192 648.398 36.336C648.606 36.48 648.758 36.704 648.854 37.008L652.046 45.96H651.518L654.71 37.056C654.838 36.688 654.998 36.44 655.19 36.312C655.398 36.184 655.63 36.12 655.886 36.12C656.206 36.12 656.446 36.2 656.606 36.36C656.782 36.52 656.878 36.728 656.894 36.984C656.926 37.224 656.886 37.488 656.774 37.776L653.246 47.112C653.102 47.464 652.902 47.728 652.646 47.904C652.406 48.08 652.126 48.168 651.806 48.168C651.47 48.168 651.174 48.08 650.918 47.904C650.678 47.728 650.486 47.464 650.342 47.112L646.982 38.016H648.182L644.846 47.112C644.718 47.464 644.526 47.728 644.27 47.904C644.03 48.08 643.742 48.168 643.406 48.168ZM662.8 48.216C662.096 48.216 661.368 48.136 660.616 47.976C659.88 47.816 659.2 47.544 658.576 47.16C658.368 47.016 658.224 46.856 658.144 46.68C658.064 46.504 658.032 46.328 658.048 46.152C658.08 45.96 658.152 45.8 658.264 45.672C658.392 45.528 658.544 45.44 658.72 45.408C658.912 45.376 659.112 45.416 659.32 45.528C659.944 45.88 660.544 46.128 661.12 46.272C661.696 46.4 662.264 46.464 662.824 46.464C663.672 46.464 664.312 46.312 664.744 46.008C665.176 45.704 665.392 45.296 665.392 44.784C665.392 44.368 665.248 44.048 664.96 43.824C664.672 43.584 664.24 43.4 663.664 43.272L661.384 42.816C660.392 42.608 659.64 42.24 659.128 41.712C658.616 41.184 658.36 40.512 658.36 39.696C658.36 38.96 658.56 38.32 658.96 37.776C659.36 37.232 659.92 36.816 660.64 36.528C661.36 36.224 662.192 36.072 663.136 36.072C663.84 36.072 664.504 36.16 665.128 36.336C665.752 36.512 666.328 36.776 666.856 37.128C667.064 37.24 667.2 37.392 667.264 37.584C667.328 37.76 667.336 37.936 667.288 38.112C667.256 38.288 667.176 38.448 667.048 38.592C666.92 38.72 666.76 38.8 666.568 38.832C666.392 38.848 666.192 38.8 665.968 38.688C665.488 38.384 665.008 38.168 664.528 38.04C664.064 37.912 663.6 37.848 663.136 37.848C662.288 37.848 661.648 38.008 661.216 38.328C660.8 38.632 660.592 39.048 660.592 39.576C660.592 39.976 660.72 40.304 660.976 40.56C661.232 40.816 661.632 41 662.176 41.112L664.456 41.568C665.496 41.776 666.28 42.128 666.808 42.624C667.352 43.12 667.624 43.792 667.624 44.64C667.624 45.744 667.184 46.616 666.304 47.256C665.424 47.896 664.256 48.216 662.8 48.216Z" fill="#201F1F"/>
<path d="M107.457 98V86.5469H108.973V98H107.457ZM111.473 98V89.7031H112.738V90.8828C113.348 89.9714 114.228 89.5156 115.379 89.5156C115.879 89.5156 116.337 89.6068 116.754 89.7891C117.176 89.9661 117.491 90.2005 117.699 90.4922C117.908 90.7839 118.054 91.1302 118.137 91.5312C118.189 91.7917 118.215 92.2474 118.215 92.8984V98H116.809V92.9531C116.809 92.3802 116.754 91.9531 116.645 91.6719C116.535 91.3854 116.34 91.1589 116.059 90.9922C115.783 90.8203 115.457 90.7344 115.082 90.7344C114.483 90.7344 113.965 90.9245 113.528 91.3047C113.095 91.6849 112.879 92.4062 112.879 93.4688V98H111.473ZM120.379 98V89.7031H121.645V90.8828C122.254 89.9714 123.134 89.5156 124.285 89.5156C124.785 89.5156 125.244 89.6068 125.66 89.7891C126.082 89.9661 126.397 90.2005 126.606 90.4922C126.814 90.7839 126.96 91.1302 127.043 91.5312C127.095 91.7917 127.121 92.2474 127.121 92.8984V98H125.715V92.9531C125.715 92.3802 125.66 91.9531 125.551 91.6719C125.442 91.3854 125.246 91.1589 124.965 90.9922C124.689 90.8203 124.363 90.7344 123.988 90.7344C123.389 90.7344 122.871 90.9245 122.434 91.3047C122.001 91.6849 121.785 92.4062 121.785 93.4688V98H120.379ZM134.965 95.3281L136.418 95.5078C136.189 96.3568 135.764 97.0156 135.145 97.4844C134.525 97.9531 133.733 98.1875 132.77 98.1875C131.556 98.1875 130.593 97.8151 129.879 97.0703C129.171 96.3203 128.817 95.2708 128.817 93.9219C128.817 92.526 129.176 91.4427 129.895 90.6719C130.613 89.901 131.546 89.5156 132.692 89.5156C133.801 89.5156 134.707 89.8932 135.41 90.6484C136.113 91.4036 136.465 92.4661 136.465 93.8359C136.465 93.9193 136.462 94.0443 136.457 94.2109H130.27C130.322 95.1224 130.58 95.8203 131.043 96.3047C131.507 96.7891 132.085 97.0312 132.778 97.0312C133.293 97.0312 133.733 96.8958 134.098 96.625C134.462 96.3542 134.751 95.9219 134.965 95.3281ZM130.348 93.0547H134.981C134.918 92.3568 134.741 91.8333 134.449 91.4844C134.001 90.9427 133.421 90.6719 132.707 90.6719C132.061 90.6719 131.517 90.888 131.074 91.3203C130.637 91.7526 130.395 92.3307 130.348 93.0547ZM138.176 98V89.7031H139.442V90.9609C139.764 90.3724 140.061 89.9844 140.332 89.7969C140.608 89.6094 140.91 89.5156 141.238 89.5156C141.712 89.5156 142.194 89.6667 142.684 89.9688L142.199 91.2734C141.856 91.0703 141.512 90.9688 141.168 90.9688C140.861 90.9688 140.585 91.0625 140.34 91.25C140.095 91.4323 139.921 91.6875 139.817 92.0156C139.66 92.5156 139.582 93.0625 139.582 93.6562V98H138.176ZM96.0041 118.32L97.4338 118.195C97.5015 118.768 97.6577 119.24 97.9025 119.609C98.1525 119.974 98.5379 120.271 99.0588 120.5C99.5796 120.724 100.166 120.836 100.817 120.836C101.395 120.836 101.905 120.75 102.348 120.578C102.791 120.406 103.119 120.172 103.332 119.875C103.551 119.573 103.66 119.245 103.66 118.891C103.66 118.531 103.556 118.219 103.348 117.953C103.139 117.682 102.796 117.456 102.317 117.273C102.009 117.154 101.33 116.969 100.278 116.719C99.2254 116.464 98.4884 116.224 98.0666 116C97.5197 115.714 97.1108 115.359 96.84 114.938C96.5744 114.51 96.4416 114.034 96.4416 113.508C96.4416 112.93 96.6056 112.391 96.9338 111.891C97.2619 111.385 97.741 111.003 98.3713 110.742C99.0015 110.482 99.702 110.352 100.473 110.352C101.322 110.352 102.069 110.49 102.715 110.766C103.366 111.036 103.866 111.438 104.215 111.969C104.564 112.5 104.751 113.102 104.778 113.773L103.324 113.883C103.246 113.159 102.981 112.612 102.528 112.242C102.08 111.872 101.416 111.688 100.535 111.688C99.6186 111.688 98.9494 111.857 98.5275 112.195C98.1108 112.529 97.9025 112.932 97.9025 113.406C97.9025 113.818 98.0509 114.156 98.3478 114.422C98.6395 114.688 99.3999 114.961 100.629 115.242C101.863 115.518 102.71 115.76 103.168 115.969C103.835 116.276 104.327 116.667 104.645 117.141C104.962 117.609 105.121 118.151 105.121 118.766C105.121 119.375 104.947 119.951 104.598 120.492C104.249 121.029 103.746 121.448 103.09 121.75C102.439 122.047 101.705 122.195 100.887 122.195C99.8504 122.195 98.9806 122.044 98.2775 121.742C97.5796 121.44 97.0301 120.987 96.6291 120.383C96.2332 119.773 96.0249 119.086 96.0041 118.32ZM107.012 122V110.547H108.418V114.656C109.074 113.896 109.903 113.516 110.903 113.516C111.517 113.516 112.051 113.638 112.504 113.883C112.957 114.122 113.28 114.456 113.473 114.883C113.671 115.31 113.77 115.93 113.77 116.742V122H112.363V116.742C112.363 116.039 112.21 115.529 111.903 115.211C111.6 114.888 111.171 114.727 110.613 114.727C110.197 114.727 109.804 114.836 109.434 115.055C109.069 115.268 108.809 115.56 108.653 115.93C108.496 116.299 108.418 116.81 108.418 117.461V122H107.012ZM121.332 120.977C120.811 121.419 120.309 121.732 119.824 121.914C119.345 122.096 118.83 122.188 118.278 122.188C117.366 122.188 116.666 121.966 116.176 121.523C115.686 121.076 115.442 120.505 115.442 119.812C115.442 119.406 115.533 119.036 115.715 118.703C115.903 118.365 116.145 118.094 116.442 117.891C116.744 117.688 117.082 117.534 117.457 117.43C117.733 117.357 118.15 117.286 118.707 117.219C119.843 117.083 120.679 116.922 121.215 116.734C121.22 116.542 121.223 116.419 121.223 116.367C121.223 115.794 121.09 115.391 120.824 115.156C120.465 114.839 119.931 114.68 119.223 114.68C118.561 114.68 118.072 114.797 117.754 115.031C117.442 115.26 117.21 115.669 117.059 116.258L115.684 116.07C115.809 115.482 116.014 115.008 116.301 114.648C116.587 114.284 117.001 114.005 117.543 113.812C118.085 113.615 118.712 113.516 119.426 113.516C120.134 113.516 120.71 113.599 121.153 113.766C121.595 113.932 121.921 114.143 122.129 114.398C122.337 114.648 122.483 114.966 122.567 115.352C122.613 115.591 122.637 116.023 122.637 116.648V118.523C122.637 119.831 122.666 120.659 122.723 121.008C122.785 121.352 122.905 121.682 123.082 122H121.613C121.468 121.708 121.374 121.367 121.332 120.977ZM121.215 117.836C120.705 118.044 119.939 118.221 118.918 118.367C118.34 118.451 117.931 118.544 117.692 118.648C117.452 118.753 117.267 118.906 117.137 119.109C117.007 119.307 116.942 119.529 116.942 119.773C116.942 120.148 117.082 120.461 117.363 120.711C117.65 120.961 118.067 121.086 118.613 121.086C119.155 121.086 119.637 120.969 120.059 120.734C120.481 120.495 120.791 120.169 120.988 119.758C121.139 119.44 121.215 118.971 121.215 118.352V117.836ZM130.207 122V120.953C129.681 121.776 128.908 122.188 127.887 122.188C127.225 122.188 126.616 122.005 126.059 121.641C125.507 121.276 125.077 120.768 124.77 120.117C124.468 119.461 124.317 118.708 124.317 117.859C124.317 117.031 124.455 116.281 124.731 115.609C125.007 114.932 125.421 114.414 125.973 114.055C126.525 113.695 127.142 113.516 127.824 113.516C128.324 113.516 128.77 113.622 129.16 113.836C129.551 114.044 129.869 114.318 130.113 114.656V110.547H131.512V122H130.207ZM125.762 117.859C125.762 118.922 125.986 119.716 126.434 120.242C126.882 120.768 127.41 121.031 128.02 121.031C128.634 121.031 129.155 120.781 129.582 120.281C130.014 119.776 130.231 119.008 130.231 117.977C130.231 116.841 130.012 116.008 129.574 115.477C129.137 114.945 128.598 114.68 127.957 114.68C127.332 114.68 126.809 114.935 126.387 115.445C125.97 115.956 125.762 116.76 125.762 117.859ZM133.207 117.852C133.207 116.315 133.634 115.177 134.488 114.438C135.202 113.823 136.072 113.516 137.098 113.516C138.238 113.516 139.171 113.891 139.895 114.641C140.619 115.385 140.981 116.417 140.981 117.734C140.981 118.802 140.819 119.643 140.496 120.258C140.179 120.867 139.712 121.341 139.098 121.68C138.488 122.018 137.822 122.188 137.098 122.188C135.936 122.188 134.996 121.815 134.278 121.07C133.564 120.326 133.207 119.253 133.207 117.852ZM134.653 117.852C134.653 118.914 134.884 119.711 135.348 120.242C135.811 120.768 136.395 121.031 137.098 121.031C137.796 121.031 138.376 120.766 138.84 120.234C139.304 119.703 139.535 118.893 139.535 117.805C139.535 116.779 139.301 116.003 138.832 115.477C138.369 114.945 137.791 114.68 137.098 114.68C136.395 114.68 135.811 114.943 135.348 115.469C134.884 115.995 134.653 116.789 134.653 117.852ZM144.168 122L141.629 113.703H143.082L144.403 118.492L144.895 120.273C144.916 120.185 145.059 119.615 145.324 118.562L146.645 113.703H148.09L149.332 118.516L149.746 120.102L150.223 118.5L151.645 113.703H153.012L150.418 122H148.957L147.637 117.031L147.317 115.617L145.637 122H144.168Z" fill="#201F1F"/>
<path d="M241.086 106.32L242.516 106.195C242.583 106.768 242.74 107.24 242.985 107.609C243.235 107.974 243.62 108.271 244.141 108.5C244.662 108.724 245.248 108.836 245.899 108.836C246.477 108.836 246.987 108.75 247.43 108.578C247.873 108.406 248.201 108.172 248.414 107.875C248.633 107.573 248.742 107.245 248.742 106.891C248.742 106.531 248.638 106.219 248.43 105.953C248.222 105.682 247.878 105.456 247.399 105.273C247.091 105.154 246.412 104.969 245.36 104.719C244.307 104.464 243.57 104.224 243.149 104C242.602 103.714 242.193 103.359 241.922 102.938C241.656 102.51 241.524 102.034 241.524 101.508C241.524 100.93 241.688 100.391 242.016 99.8906C242.344 99.3854 242.823 99.0026 243.453 98.7422C244.083 98.4818 244.784 98.3516 245.555 98.3516C246.404 98.3516 247.151 98.4896 247.797 98.7656C248.448 99.0365 248.948 99.4375 249.297 99.9688C249.646 100.5 249.833 101.102 249.86 101.773L248.406 101.883C248.328 101.159 248.063 100.612 247.61 100.242C247.162 99.8724 246.498 99.6875 245.617 99.6875C244.701 99.6875 244.031 99.8568 243.61 100.195C243.193 100.529 242.985 100.932 242.985 101.406C242.985 101.818 243.133 102.156 243.43 102.422C243.722 102.688 244.482 102.961 245.711 103.242C246.945 103.518 247.792 103.76 248.25 103.969C248.917 104.276 249.409 104.667 249.727 105.141C250.044 105.609 250.203 106.151 250.203 106.766C250.203 107.375 250.029 107.951 249.68 108.492C249.331 109.029 248.828 109.448 248.172 109.75C247.521 110.047 246.787 110.195 245.969 110.195C244.932 110.195 244.063 110.044 243.36 109.742C242.662 109.44 242.112 108.987 241.711 108.383C241.315 107.773 241.107 107.086 241.086 106.32ZM252.094 110V98.5469H253.5V102.656C254.156 101.896 254.985 101.516 255.985 101.516C256.599 101.516 257.133 101.638 257.586 101.883C258.039 102.122 258.362 102.456 258.555 102.883C258.753 103.31 258.852 103.93 258.852 104.742V110H257.445V104.742C257.445 104.039 257.292 103.529 256.985 103.211C256.682 102.888 256.253 102.727 255.695 102.727C255.279 102.727 254.886 102.836 254.516 103.055C254.151 103.268 253.891 103.56 253.735 103.93C253.578 104.299 253.5 104.81 253.5 105.461V110H252.094ZM266.414 108.977C265.893 109.419 265.391 109.732 264.906 109.914C264.427 110.096 263.912 110.188 263.36 110.188C262.448 110.188 261.748 109.966 261.258 109.523C260.768 109.076 260.524 108.505 260.524 107.812C260.524 107.406 260.615 107.036 260.797 106.703C260.985 106.365 261.227 106.094 261.524 105.891C261.826 105.688 262.164 105.534 262.539 105.43C262.815 105.357 263.232 105.286 263.789 105.219C264.925 105.083 265.761 104.922 266.297 104.734C266.302 104.542 266.305 104.419 266.305 104.367C266.305 103.794 266.172 103.391 265.906 103.156C265.547 102.839 265.013 102.68 264.305 102.68C263.643 102.68 263.154 102.797 262.836 103.031C262.524 103.26 262.292 103.669 262.141 104.258L260.766 104.07C260.891 103.482 261.097 103.008 261.383 102.648C261.669 102.284 262.083 102.005 262.625 101.812C263.167 101.615 263.794 101.516 264.508 101.516C265.216 101.516 265.792 101.599 266.235 101.766C266.677 101.932 267.003 102.143 267.211 102.398C267.419 102.648 267.565 102.966 267.649 103.352C267.695 103.591 267.719 104.023 267.719 104.648V106.523C267.719 107.831 267.748 108.659 267.805 109.008C267.867 109.352 267.987 109.682 268.164 110H266.695C266.55 109.708 266.456 109.367 266.414 108.977ZM266.297 105.836C265.787 106.044 265.021 106.221 264 106.367C263.422 106.451 263.013 106.544 262.774 106.648C262.534 106.753 262.349 106.906 262.219 107.109C262.089 107.307 262.024 107.529 262.024 107.773C262.024 108.148 262.164 108.461 262.445 108.711C262.732 108.961 263.149 109.086 263.695 109.086C264.237 109.086 264.719 108.969 265.141 108.734C265.563 108.495 265.873 108.169 266.07 107.758C266.222 107.44 266.297 106.971 266.297 106.352V105.836ZM275.289 110V108.953C274.763 109.776 273.99 110.188 272.969 110.188C272.307 110.188 271.698 110.005 271.141 109.641C270.589 109.276 270.159 108.768 269.852 108.117C269.55 107.461 269.399 106.708 269.399 105.859C269.399 105.031 269.537 104.281 269.813 103.609C270.089 102.932 270.503 102.414 271.055 102.055C271.607 101.695 272.224 101.516 272.906 101.516C273.406 101.516 273.852 101.622 274.242 101.836C274.633 102.044 274.951 102.318 275.195 102.656V98.5469H276.594V110H275.289ZM270.844 105.859C270.844 106.922 271.068 107.716 271.516 108.242C271.964 108.768 272.492 109.031 273.102 109.031C273.716 109.031 274.237 108.781 274.664 108.281C275.097 107.776 275.313 107.008 275.313 105.977C275.313 104.841 275.094 104.008 274.656 103.477C274.219 102.945 273.68 102.68 273.039 102.68C272.414 102.68 271.891 102.935 271.469 103.445C271.052 103.956 270.844 104.76 270.844 105.859ZM278.289 105.852C278.289 104.315 278.716 103.177 279.57 102.438C280.284 101.823 281.154 101.516 282.18 101.516C283.32 101.516 284.253 101.891 284.977 102.641C285.701 103.385 286.063 104.417 286.063 105.734C286.063 106.802 285.901 107.643 285.578 108.258C285.261 108.867 284.794 109.341 284.18 109.68C283.57 110.018 282.904 110.188 282.18 110.188C281.018 110.188 280.078 109.815 279.36 109.07C278.646 108.326 278.289 107.253 278.289 105.852ZM279.735 105.852C279.735 106.914 279.966 107.711 280.43 108.242C280.893 108.768 281.477 109.031 282.18 109.031C282.878 109.031 283.458 108.766 283.922 108.234C284.386 107.703 284.617 106.893 284.617 105.805C284.617 104.779 284.383 104.003 283.914 103.477C283.451 102.945 282.873 102.68 282.18 102.68C281.477 102.68 280.893 102.943 280.43 103.469C279.966 103.995 279.735 104.789 279.735 105.852ZM289.25 110L286.711 101.703H288.164L289.485 106.492L289.977 108.273C289.998 108.185 290.141 107.615 290.406 106.562L291.727 101.703H293.172L294.414 106.516L294.828 108.102L295.305 106.5L296.727 101.703H298.094L295.5 110H294.039L292.719 105.031L292.399 103.617L290.719 110H289.25ZM308.641 110H307.235V101.039C306.896 101.362 306.451 101.685 305.899 102.008C305.352 102.331 304.86 102.573 304.422 102.734V101.375C305.208 101.005 305.896 100.557 306.485 100.031C307.073 99.5052 307.49 98.9948 307.735 98.5H308.641V110Z" fill="#201F1F"/>
<path d="M392.848 106.32L394.278 106.195C394.345 106.768 394.501 107.24 394.746 107.609C394.996 107.974 395.382 108.271 395.903 108.5C396.423 108.724 397.009 108.836 397.66 108.836C398.238 108.836 398.749 108.75 399.192 108.578C399.634 108.406 399.962 108.172 400.176 107.875C400.395 107.573 400.504 107.245 400.504 106.891C400.504 106.531 400.4 106.219 400.192 105.953C399.983 105.682 399.639 105.456 399.16 105.273C398.853 105.154 398.173 104.969 397.121 104.719C396.069 104.464 395.332 104.224 394.91 104C394.363 103.714 393.955 103.359 393.684 102.938C393.418 102.51 393.285 102.034 393.285 101.508C393.285 100.93 393.449 100.391 393.778 99.8906C394.106 99.3854 394.585 99.0026 395.215 98.7422C395.845 98.4818 396.546 98.3516 397.317 98.3516C398.166 98.3516 398.913 98.4896 399.559 98.7656C400.21 99.0365 400.71 99.4375 401.059 99.9688C401.408 100.5 401.595 101.102 401.621 101.773L400.168 101.883C400.09 101.159 399.824 100.612 399.371 100.242C398.923 99.8724 398.259 99.6875 397.379 99.6875C396.462 99.6875 395.793 99.8568 395.371 100.195C394.955 100.529 394.746 100.932 394.746 101.406C394.746 101.818 394.895 102.156 395.192 102.422C395.483 102.688 396.244 102.961 397.473 103.242C398.707 103.518 399.554 103.76 400.012 103.969C400.679 104.276 401.171 104.667 401.488 105.141C401.806 105.609 401.965 106.151 401.965 106.766C401.965 107.375 401.791 107.951 401.442 108.492C401.093 109.029 400.59 109.448 399.934 109.75C399.283 110.047 398.548 110.195 397.731 110.195C396.694 110.195 395.824 110.044 395.121 109.742C394.423 109.44 393.874 108.987 393.473 108.383C393.077 107.773 392.869 107.086 392.848 106.32ZM403.856 110V98.5469H405.262V102.656C405.918 101.896 406.746 101.516 407.746 101.516C408.361 101.516 408.895 101.638 409.348 101.883C409.801 102.122 410.124 102.456 410.317 102.883C410.514 103.31 410.613 103.93 410.613 104.742V110H409.207V104.742C409.207 104.039 409.054 103.529 408.746 103.211C408.444 102.888 408.014 102.727 407.457 102.727C407.041 102.727 406.647 102.836 406.278 103.055C405.913 103.268 405.653 103.56 405.496 103.93C405.34 104.299 405.262 104.81 405.262 105.461V110H403.856ZM418.176 108.977C417.655 109.419 417.153 109.732 416.668 109.914C416.189 110.096 415.673 110.188 415.121 110.188C414.21 110.188 413.509 109.966 413.02 109.523C412.53 109.076 412.285 108.505 412.285 107.812C412.285 107.406 412.376 107.036 412.559 106.703C412.746 106.365 412.988 106.094 413.285 105.891C413.587 105.688 413.926 105.534 414.301 105.43C414.577 105.357 414.994 105.286 415.551 105.219C416.686 105.083 417.522 104.922 418.059 104.734C418.064 104.542 418.067 104.419 418.067 104.367C418.067 103.794 417.934 103.391 417.668 103.156C417.309 102.839 416.775 102.68 416.067 102.68C415.405 102.68 414.916 102.797 414.598 103.031C414.285 103.26 414.054 103.669 413.903 104.258L412.528 104.07C412.653 103.482 412.858 103.008 413.145 102.648C413.431 102.284 413.845 102.005 414.387 101.812C414.929 101.615 415.556 101.516 416.27 101.516C416.978 101.516 417.554 101.599 417.996 101.766C418.439 101.932 418.764 102.143 418.973 102.398C419.181 102.648 419.327 102.966 419.41 103.352C419.457 103.591 419.481 104.023 419.481 104.648V106.523C419.481 107.831 419.509 108.659 419.567 109.008C419.629 109.352 419.749 109.682 419.926 110H418.457C418.311 109.708 418.218 109.367 418.176 108.977ZM418.059 105.836C417.548 106.044 416.783 106.221 415.762 106.367C415.184 106.451 414.775 106.544 414.535 106.648C414.296 106.753 414.111 106.906 413.981 107.109C413.85 107.307 413.785 107.529 413.785 107.773C413.785 108.148 413.926 108.461 414.207 108.711C414.494 108.961 414.91 109.086 415.457 109.086C415.999 109.086 416.481 108.969 416.903 108.734C417.324 108.495 417.634 108.169 417.832 107.758C417.983 107.44 418.059 106.971 418.059 106.352V105.836ZM427.051 110V108.953C426.525 109.776 425.751 110.188 424.731 110.188C424.069 110.188 423.46 110.005 422.903 109.641C422.35 109.276 421.921 108.768 421.613 108.117C421.311 107.461 421.16 106.708 421.16 105.859C421.16 105.031 421.298 104.281 421.574 103.609C421.85 102.932 422.264 102.414 422.817 102.055C423.369 101.695 423.986 101.516 424.668 101.516C425.168 101.516 425.613 101.622 426.004 101.836C426.395 102.044 426.712 102.318 426.957 102.656V98.5469H428.356V110H427.051ZM422.606 105.859C422.606 106.922 422.83 107.716 423.278 108.242C423.725 108.768 424.254 109.031 424.863 109.031C425.478 109.031 425.999 108.781 426.426 108.281C426.858 107.776 427.074 107.008 427.074 105.977C427.074 104.841 426.856 104.008 426.418 103.477C425.981 102.945 425.442 102.68 424.801 102.68C424.176 102.68 423.653 102.935 423.231 103.445C422.814 103.956 422.606 104.76 422.606 105.859ZM430.051 105.852C430.051 104.315 430.478 103.177 431.332 102.438C432.046 101.823 432.916 101.516 433.942 101.516C435.082 101.516 436.014 101.891 436.738 102.641C437.462 103.385 437.824 104.417 437.824 105.734C437.824 106.802 437.663 107.643 437.34 108.258C437.022 108.867 436.556 109.341 435.942 109.68C435.332 110.018 434.666 110.188 433.942 110.188C432.78 110.188 431.84 109.815 431.121 109.07C430.408 108.326 430.051 107.253 430.051 105.852ZM431.496 105.852C431.496 106.914 431.728 107.711 432.192 108.242C432.655 108.768 433.238 109.031 433.942 109.031C434.639 109.031 435.22 108.766 435.684 108.234C436.147 107.703 436.379 106.893 436.379 105.805C436.379 104.779 436.145 104.003 435.676 103.477C435.212 102.945 434.634 102.68 433.942 102.68C433.238 102.68 432.655 102.943 432.192 103.469C431.728 103.995 431.496 104.789 431.496 105.852ZM441.012 110L438.473 101.703H439.926L441.246 106.492L441.738 108.273C441.759 108.185 441.903 107.615 442.168 106.562L443.488 101.703H444.934L446.176 106.516L446.59 108.102L447.067 106.5L448.488 101.703H449.856L447.262 110H445.801L444.481 105.031L444.16 103.617L442.481 110H441.012ZM462.496 108.648V110H454.926C454.916 109.661 454.97 109.336 455.09 109.023C455.283 108.508 455.59 108 456.012 107.5C456.439 107 457.054 106.422 457.856 105.766C459.1 104.745 459.942 103.938 460.379 103.344C460.817 102.745 461.035 102.18 461.035 101.648C461.035 101.091 460.835 100.622 460.434 100.242C460.038 99.8568 459.52 99.6641 458.879 99.6641C458.202 99.6641 457.66 99.8672 457.254 100.273C456.848 100.68 456.642 101.242 456.637 101.961L455.192 101.812C455.291 100.734 455.663 99.9141 456.309 99.3516C456.955 98.7839 457.822 98.5 458.91 98.5C460.009 98.5 460.879 98.8047 461.52 99.4141C462.16 100.023 462.481 100.779 462.481 101.68C462.481 102.138 462.387 102.589 462.199 103.031C462.012 103.474 461.699 103.94 461.262 104.43C460.83 104.919 460.108 105.591 459.098 106.445C458.254 107.154 457.712 107.635 457.473 107.891C457.233 108.141 457.035 108.393 456.879 108.648H462.496Z" fill="#201F1F"/>
<path d="M544.61 106.32L546.039 106.195C546.107 106.768 546.263 107.24 546.508 107.609C546.758 107.974 547.143 108.271 547.664 108.5C548.185 108.724 548.771 108.836 549.422 108.836C550 108.836 550.511 108.75 550.953 108.578C551.396 108.406 551.724 108.172 551.938 107.875C552.156 107.573 552.266 107.245 552.266 106.891C552.266 106.531 552.162 106.219 551.953 105.953C551.745 105.682 551.401 105.456 550.922 105.273C550.615 105.154 549.935 104.969 548.883 104.719C547.831 104.464 547.094 104.224 546.672 104C546.125 103.714 545.716 103.359 545.445 102.938C545.18 102.51 545.047 102.034 545.047 101.508C545.047 100.93 545.211 100.391 545.539 99.8906C545.867 99.3854 546.347 99.0026 546.977 98.7422C547.607 98.4818 548.307 98.3516 549.078 98.3516C549.927 98.3516 550.675 98.4896 551.32 98.7656C551.972 99.0365 552.472 99.4375 552.82 99.9688C553.169 100.5 553.357 101.102 553.383 101.773L551.93 101.883C551.852 101.159 551.586 100.612 551.133 100.242C550.685 99.8724 550.021 99.6875 549.141 99.6875C548.224 99.6875 547.555 99.8568 547.133 100.195C546.716 100.529 546.508 100.932 546.508 101.406C546.508 101.818 546.656 102.156 546.953 102.422C547.245 102.688 548.005 102.961 549.235 103.242C550.469 103.518 551.315 103.76 551.774 103.969C552.44 104.276 552.932 104.667 553.25 105.141C553.568 105.609 553.727 106.151 553.727 106.766C553.727 107.375 553.552 107.951 553.203 108.492C552.854 109.029 552.352 109.448 551.695 109.75C551.044 110.047 550.31 110.195 549.492 110.195C548.456 110.195 547.586 110.044 546.883 109.742C546.185 109.44 545.636 108.987 545.235 108.383C544.839 107.773 544.63 107.086 544.61 106.32ZM555.617 110V98.5469H557.024V102.656C557.68 101.896 558.508 101.516 559.508 101.516C560.123 101.516 560.656 101.638 561.11 101.883C561.563 102.122 561.886 102.456 562.078 102.883C562.276 103.31 562.375 103.93 562.375 104.742V110H560.969V104.742C560.969 104.039 560.815 103.529 560.508 103.211C560.206 102.888 559.776 102.727 559.219 102.727C558.802 102.727 558.409 102.836 558.039 103.055C557.675 103.268 557.414 103.56 557.258 103.93C557.102 104.299 557.024 104.81 557.024 105.461V110H555.617ZM569.938 108.977C569.417 109.419 568.914 109.732 568.43 109.914C567.951 110.096 567.435 110.188 566.883 110.188C565.972 110.188 565.271 109.966 564.781 109.523C564.292 109.076 564.047 108.505 564.047 107.812C564.047 107.406 564.138 107.036 564.32 106.703C564.508 106.365 564.75 106.094 565.047 105.891C565.349 105.688 565.688 105.534 566.063 105.43C566.339 105.357 566.755 105.286 567.313 105.219C568.448 105.083 569.284 104.922 569.82 104.734C569.826 104.542 569.828 104.419 569.828 104.367C569.828 103.794 569.695 103.391 569.43 103.156C569.07 102.839 568.537 102.68 567.828 102.68C567.167 102.68 566.677 102.797 566.36 103.031C566.047 103.26 565.815 103.669 565.664 104.258L564.289 104.07C564.414 103.482 564.62 103.008 564.906 102.648C565.193 102.284 565.607 102.005 566.149 101.812C566.69 101.615 567.318 101.516 568.031 101.516C568.74 101.516 569.315 101.599 569.758 101.766C570.201 101.932 570.526 102.143 570.735 102.398C570.943 102.648 571.089 102.966 571.172 103.352C571.219 103.591 571.242 104.023 571.242 104.648V106.523C571.242 107.831 571.271 108.659 571.328 109.008C571.391 109.352 571.511 109.682 571.688 110H570.219C570.073 109.708 569.979 109.367 569.938 108.977ZM569.82 105.836C569.31 106.044 568.544 106.221 567.524 106.367C566.945 106.451 566.537 106.544 566.297 106.648C566.057 106.753 565.873 106.906 565.742 107.109C565.612 107.307 565.547 107.529 565.547 107.773C565.547 108.148 565.688 108.461 565.969 108.711C566.255 108.961 566.672 109.086 567.219 109.086C567.761 109.086 568.242 108.969 568.664 108.734C569.086 108.495 569.396 108.169 569.594 107.758C569.745 107.44 569.82 106.971 569.82 106.352V105.836ZM578.813 110V108.953C578.287 109.776 577.513 110.188 576.492 110.188C575.831 110.188 575.222 110.005 574.664 109.641C574.112 109.276 573.682 108.768 573.375 108.117C573.073 107.461 572.922 106.708 572.922 105.859C572.922 105.031 573.06 104.281 573.336 103.609C573.612 102.932 574.026 102.414 574.578 102.055C575.13 101.695 575.748 101.516 576.43 101.516C576.93 101.516 577.375 101.622 577.766 101.836C578.156 102.044 578.474 102.318 578.719 102.656V98.5469H580.117V110H578.813ZM574.367 105.859C574.367 106.922 574.591 107.716 575.039 108.242C575.487 108.768 576.016 109.031 576.625 109.031C577.24 109.031 577.761 108.781 578.188 108.281C578.62 107.776 578.836 107.008 578.836 105.977C578.836 104.841 578.617 104.008 578.18 103.477C577.742 102.945 577.203 102.68 576.563 102.68C575.938 102.68 575.414 102.935 574.992 103.445C574.576 103.956 574.367 104.76 574.367 105.859ZM581.813 105.852C581.813 104.315 582.24 103.177 583.094 102.438C583.807 101.823 584.677 101.516 585.703 101.516C586.844 101.516 587.776 101.891 588.5 102.641C589.224 103.385 589.586 104.417 589.586 105.734C589.586 106.802 589.425 107.643 589.102 108.258C588.784 108.867 588.318 109.341 587.703 109.68C587.094 110.018 586.427 110.188 585.703 110.188C584.542 110.188 583.602 109.815 582.883 109.07C582.169 108.326 581.813 107.253 581.813 105.852ZM583.258 105.852C583.258 106.914 583.49 107.711 583.953 108.242C584.417 108.768 585 109.031 585.703 109.031C586.401 109.031 586.982 108.766 587.445 108.234C587.909 107.703 588.141 106.893 588.141 105.805C588.141 104.779 587.906 104.003 587.438 103.477C586.974 102.945 586.396 102.68 585.703 102.68C585 102.68 584.417 102.943 583.953 103.469C583.49 103.995 583.258 104.789 583.258 105.852ZM592.774 110L590.235 101.703H591.688L593.008 106.492L593.5 108.273C593.521 108.185 593.664 107.615 593.93 106.562L595.25 101.703H596.695L597.938 106.516L598.352 108.102L598.828 106.5L600.25 101.703H601.617L599.024 110H597.563L596.242 105.031L595.922 103.617L594.242 110H592.774ZM606.875 106.977L608.281 106.789C608.443 107.586 608.716 108.161 609.102 108.516C609.492 108.865 609.966 109.039 610.524 109.039C611.185 109.039 611.742 108.81 612.195 108.352C612.654 107.893 612.883 107.326 612.883 106.648C612.883 106.003 612.672 105.471 612.25 105.055C611.828 104.633 611.292 104.422 610.641 104.422C610.375 104.422 610.044 104.474 609.649 104.578L609.805 103.344C609.899 103.354 609.974 103.359 610.031 103.359C610.63 103.359 611.169 103.203 611.649 102.891C612.128 102.578 612.367 102.096 612.367 101.445C612.367 100.93 612.193 100.503 611.844 100.164C611.495 99.8255 611.044 99.6562 610.492 99.6562C609.945 99.6562 609.49 99.8281 609.125 100.172C608.761 100.516 608.526 101.031 608.422 101.719L607.016 101.469C607.188 100.526 607.578 99.7969 608.188 99.2812C608.797 98.7604 609.555 98.5 610.461 98.5C611.086 98.5 611.662 98.6354 612.188 98.9062C612.714 99.1719 613.115 99.5365 613.391 100C613.672 100.464 613.813 100.956 613.813 101.477C613.813 101.971 613.68 102.422 613.414 102.828C613.149 103.234 612.755 103.557 612.235 103.797C612.912 103.953 613.438 104.279 613.813 104.773C614.188 105.263 614.375 105.878 614.375 106.617C614.375 107.617 614.011 108.466 613.281 109.164C612.552 109.857 611.63 110.203 610.516 110.203C609.511 110.203 608.675 109.904 608.008 109.305C607.347 108.706 606.969 107.93 606.875 106.977Z" fill="#201F1F"/>
<path d="M696.371 106.32L697.801 106.195C697.869 106.768 698.025 107.24 698.27 107.609C698.52 107.974 698.905 108.271 699.426 108.5C699.947 108.724 700.533 108.836 701.184 108.836C701.762 108.836 702.272 108.75 702.715 108.578C703.158 108.406 703.486 108.172 703.699 107.875C703.918 107.573 704.028 107.245 704.028 106.891C704.028 106.531 703.923 106.219 703.715 105.953C703.507 105.682 703.163 105.456 702.684 105.273C702.376 105.154 701.697 104.969 700.645 104.719C699.593 104.464 698.856 104.224 698.434 104C697.887 103.714 697.478 103.359 697.207 102.938C696.942 102.51 696.809 102.034 696.809 101.508C696.809 100.93 696.973 100.391 697.301 99.8906C697.629 99.3854 698.108 99.0026 698.738 98.7422C699.369 98.4818 700.069 98.3516 700.84 98.3516C701.689 98.3516 702.436 98.4896 703.082 98.7656C703.733 99.0365 704.233 99.4375 704.582 99.9688C704.931 100.5 705.119 101.102 705.145 101.773L703.692 101.883C703.613 101.159 703.348 100.612 702.895 100.242C702.447 99.8724 701.783 99.6875 700.903 99.6875C699.986 99.6875 699.317 99.8568 698.895 100.195C698.478 100.529 698.27 100.932 698.27 101.406C698.27 101.818 698.418 102.156 698.715 102.422C699.007 102.688 699.767 102.961 700.996 103.242C702.231 103.518 703.077 103.76 703.535 103.969C704.202 104.276 704.694 104.667 705.012 105.141C705.33 105.609 705.488 106.151 705.488 106.766C705.488 107.375 705.314 107.951 704.965 108.492C704.616 109.029 704.113 109.448 703.457 109.75C702.806 110.047 702.072 110.195 701.254 110.195C700.218 110.195 699.348 110.044 698.645 109.742C697.947 109.44 697.397 108.987 696.996 108.383C696.6 107.773 696.392 107.086 696.371 106.32ZM707.379 110V98.5469H708.785V102.656C709.442 101.896 710.27 101.516 711.27 101.516C711.884 101.516 712.418 101.638 712.871 101.883C713.324 102.122 713.647 102.456 713.84 102.883C714.038 103.31 714.137 103.93 714.137 104.742V110H712.731V104.742C712.731 104.039 712.577 103.529 712.27 103.211C711.968 102.888 711.538 102.727 710.981 102.727C710.564 102.727 710.171 102.836 709.801 103.055C709.436 103.268 709.176 103.56 709.02 103.93C708.863 104.299 708.785 104.81 708.785 105.461V110H707.379ZM721.699 108.977C721.179 109.419 720.676 109.732 720.192 109.914C719.712 110.096 719.197 110.188 718.645 110.188C717.733 110.188 717.033 109.966 716.543 109.523C716.054 109.076 715.809 108.505 715.809 107.812C715.809 107.406 715.9 107.036 716.082 106.703C716.27 106.365 716.512 106.094 716.809 105.891C717.111 105.688 717.449 105.534 717.824 105.43C718.1 105.357 718.517 105.286 719.074 105.219C720.21 105.083 721.046 104.922 721.582 104.734C721.587 104.542 721.59 104.419 721.59 104.367C721.59 103.794 721.457 103.391 721.192 103.156C720.832 102.839 720.298 102.68 719.59 102.68C718.929 102.68 718.439 102.797 718.121 103.031C717.809 103.26 717.577 103.669 717.426 104.258L716.051 104.07C716.176 103.482 716.382 103.008 716.668 102.648C716.955 102.284 717.369 102.005 717.91 101.812C718.452 101.615 719.08 101.516 719.793 101.516C720.501 101.516 721.077 101.599 721.52 101.766C721.962 101.932 722.288 102.143 722.496 102.398C722.705 102.648 722.85 102.966 722.934 103.352C722.981 103.591 723.004 104.023 723.004 104.648V106.523C723.004 107.831 723.033 108.659 723.09 109.008C723.153 109.352 723.272 109.682 723.449 110H721.981C721.835 109.708 721.741 109.367 721.699 108.977ZM721.582 105.836C721.072 106.044 720.306 106.221 719.285 106.367C718.707 106.451 718.298 106.544 718.059 106.648C717.819 106.753 717.634 106.906 717.504 107.109C717.374 107.307 717.309 107.529 717.309 107.773C717.309 108.148 717.449 108.461 717.731 108.711C718.017 108.961 718.434 109.086 718.981 109.086C719.522 109.086 720.004 108.969 720.426 108.734C720.848 108.495 721.158 108.169 721.356 107.758C721.507 107.44 721.582 106.971 721.582 106.352V105.836ZM730.574 110V108.953C730.048 109.776 729.275 110.188 728.254 110.188C727.593 110.188 726.983 110.005 726.426 109.641C725.874 109.276 725.444 108.768 725.137 108.117C724.835 107.461 724.684 106.708 724.684 105.859C724.684 105.031 724.822 104.281 725.098 103.609C725.374 102.932 725.788 102.414 726.34 102.055C726.892 101.695 727.509 101.516 728.192 101.516C728.692 101.516 729.137 101.622 729.528 101.836C729.918 102.044 730.236 102.318 730.481 102.656V98.5469H731.879V110H730.574ZM726.129 105.859C726.129 106.922 726.353 107.716 726.801 108.242C727.249 108.768 727.778 109.031 728.387 109.031C729.001 109.031 729.522 108.781 729.949 108.281C730.382 107.776 730.598 107.008 730.598 105.977C730.598 104.841 730.379 104.008 729.942 103.477C729.504 102.945 728.965 102.68 728.324 102.68C727.699 102.68 727.176 102.935 726.754 103.445C726.337 103.956 726.129 104.76 726.129 105.859ZM733.574 105.852C733.574 104.315 734.001 103.177 734.856 102.438C735.569 101.823 736.439 101.516 737.465 101.516C738.606 101.516 739.538 101.891 740.262 102.641C740.986 103.385 741.348 104.417 741.348 105.734C741.348 106.802 741.186 107.643 740.863 108.258C740.546 108.867 740.08 109.341 739.465 109.68C738.856 110.018 738.189 110.188 737.465 110.188C736.304 110.188 735.363 109.815 734.645 109.07C733.931 108.326 733.574 107.253 733.574 105.852ZM735.02 105.852C735.02 106.914 735.251 107.711 735.715 108.242C736.179 108.768 736.762 109.031 737.465 109.031C738.163 109.031 738.744 108.766 739.207 108.234C739.671 107.703 739.903 106.893 739.903 105.805C739.903 104.779 739.668 104.003 739.199 103.477C738.736 102.945 738.158 102.68 737.465 102.68C736.762 102.68 736.179 102.943 735.715 103.469C735.251 103.995 735.02 104.789 735.02 105.852ZM744.535 110L741.996 101.703H743.449L744.77 106.492L745.262 108.273C745.283 108.185 745.426 107.615 745.692 106.562L747.012 101.703H748.457L749.699 106.516L750.113 108.102L750.59 106.5L752.012 101.703H753.379L750.785 110H749.324L748.004 105.031L747.684 103.617L746.004 110H744.535ZM763.137 110V107.258H758.168V105.969L763.395 98.5469H764.543V105.969H766.09V107.258H764.543V110H763.137ZM763.137 105.969V100.805L759.551 105.969H763.137Z" fill="#201F1F"/>
<path d="M848.133 106.32L849.563 106.195C849.63 106.768 849.787 107.24 850.031 107.609C850.281 107.974 850.667 108.271 851.188 108.5C851.708 108.724 852.294 108.836 852.945 108.836C853.524 108.836 854.034 108.75 854.477 108.578C854.919 108.406 855.248 108.172 855.461 107.875C855.68 107.573 855.789 107.245 855.789 106.891C855.789 106.531 855.685 106.219 855.477 105.953C855.268 105.682 854.925 105.456 854.445 105.273C854.138 105.154 853.458 104.969 852.406 104.719C851.354 104.464 850.617 104.224 850.195 104C849.649 103.714 849.24 103.359 848.969 102.938C848.703 102.51 848.57 102.034 848.57 101.508C848.57 100.93 848.735 100.391 849.063 99.8906C849.391 99.3854 849.87 99.0026 850.5 98.7422C851.13 98.4818 851.831 98.3516 852.602 98.3516C853.451 98.3516 854.198 98.4896 854.844 98.7656C855.495 99.0365 855.995 99.4375 856.344 99.9688C856.693 100.5 856.88 101.102 856.906 101.773L855.453 101.883C855.375 101.159 855.11 100.612 854.656 100.242C854.208 99.8724 853.544 99.6875 852.664 99.6875C851.748 99.6875 851.078 99.8568 850.656 100.195C850.24 100.529 850.031 100.932 850.031 101.406C850.031 101.818 850.18 102.156 850.477 102.422C850.768 102.688 851.529 102.961 852.758 103.242C853.992 103.518 854.839 103.76 855.297 103.969C855.964 104.276 856.456 104.667 856.774 105.141C857.091 105.609 857.25 106.151 857.25 106.766C857.25 107.375 857.076 107.951 856.727 108.492C856.378 109.029 855.875 109.448 855.219 109.75C854.568 110.047 853.833 110.195 853.016 110.195C851.979 110.195 851.11 110.044 850.406 109.742C849.708 109.44 849.159 108.987 848.758 108.383C848.362 107.773 848.154 107.086 848.133 106.32ZM859.141 110V98.5469H860.547V102.656C861.203 101.896 862.031 101.516 863.031 101.516C863.646 101.516 864.18 101.638 864.633 101.883C865.086 102.122 865.409 102.456 865.602 102.883C865.8 103.31 865.899 103.93 865.899 104.742V110H864.492V104.742C864.492 104.039 864.339 103.529 864.031 103.211C863.729 102.888 863.3 102.727 862.742 102.727C862.326 102.727 861.932 102.836 861.563 103.055C861.198 103.268 860.938 103.56 860.781 103.93C860.625 104.299 860.547 104.81 860.547 105.461V110H859.141ZM873.461 108.977C872.94 109.419 872.438 109.732 871.953 109.914C871.474 110.096 870.958 110.188 870.406 110.188C869.495 110.188 868.794 109.966 868.305 109.523C867.815 109.076 867.57 108.505 867.57 107.812C867.57 107.406 867.662 107.036 867.844 106.703C868.031 106.365 868.274 106.094 868.57 105.891C868.873 105.688 869.211 105.534 869.586 105.43C869.862 105.357 870.279 105.286 870.836 105.219C871.972 105.083 872.807 104.922 873.344 104.734C873.349 104.542 873.352 104.419 873.352 104.367C873.352 103.794 873.219 103.391 872.953 103.156C872.594 102.839 872.06 102.68 871.352 102.68C870.69 102.68 870.201 102.797 869.883 103.031C869.57 103.26 869.339 103.669 869.188 104.258L867.813 104.07C867.938 103.482 868.143 103.008 868.43 102.648C868.716 102.284 869.13 102.005 869.672 101.812C870.214 101.615 870.841 101.516 871.555 101.516C872.263 101.516 872.839 101.599 873.281 101.766C873.724 101.932 874.05 102.143 874.258 102.398C874.466 102.648 874.612 102.966 874.695 103.352C874.742 103.591 874.766 104.023 874.766 104.648V106.523C874.766 107.831 874.794 108.659 874.852 109.008C874.914 109.352 875.034 109.682 875.211 110H873.742C873.597 109.708 873.503 109.367 873.461 108.977ZM873.344 105.836C872.833 106.044 872.068 106.221 871.047 106.367C870.469 106.451 870.06 106.544 869.82 106.648C869.581 106.753 869.396 106.906 869.266 107.109C869.136 107.307 869.07 107.529 869.07 107.773C869.07 108.148 869.211 108.461 869.492 108.711C869.779 108.961 870.195 109.086 870.742 109.086C871.284 109.086 871.766 108.969 872.188 108.734C872.61 108.495 872.919 108.169 873.117 107.758C873.268 107.44 873.344 106.971 873.344 106.352V105.836ZM882.336 110V108.953C881.81 109.776 881.037 110.188 880.016 110.188C879.354 110.188 878.745 110.005 878.188 109.641C877.636 109.276 877.206 108.768 876.899 108.117C876.597 107.461 876.445 106.708 876.445 105.859C876.445 105.031 876.583 104.281 876.86 103.609C877.136 102.932 877.55 102.414 878.102 102.055C878.654 101.695 879.271 101.516 879.953 101.516C880.453 101.516 880.899 101.622 881.289 101.836C881.68 102.044 881.998 102.318 882.242 102.656V98.5469H883.641V110H882.336ZM877.891 105.859C877.891 106.922 878.115 107.716 878.563 108.242C879.011 108.768 879.539 109.031 880.149 109.031C880.763 109.031 881.284 108.781 881.711 108.281C882.143 107.776 882.36 107.008 882.36 105.977C882.36 104.841 882.141 104.008 881.703 103.477C881.266 102.945 880.727 102.68 880.086 102.68C879.461 102.68 878.938 102.935 878.516 103.445C878.099 103.956 877.891 104.76 877.891 105.859ZM885.336 105.852C885.336 104.315 885.763 103.177 886.617 102.438C887.331 101.823 888.201 101.516 889.227 101.516C890.367 101.516 891.3 101.891 892.024 102.641C892.748 103.385 893.11 104.417 893.11 105.734C893.11 106.802 892.948 107.643 892.625 108.258C892.307 108.867 891.841 109.341 891.227 109.68C890.617 110.018 889.951 110.188 889.227 110.188C888.065 110.188 887.125 109.815 886.406 109.07C885.693 108.326 885.336 107.253 885.336 105.852ZM886.781 105.852C886.781 106.914 887.013 107.711 887.477 108.242C887.94 108.768 888.524 109.031 889.227 109.031C889.925 109.031 890.505 108.766 890.969 108.234C891.432 107.703 891.664 106.893 891.664 105.805C891.664 104.779 891.43 104.003 890.961 103.477C890.498 102.945 889.919 102.68 889.227 102.68C888.524 102.68 887.94 102.943 887.477 103.469C887.013 103.995 886.781 104.789 886.781 105.852ZM896.297 110L893.758 101.703H895.211L896.531 106.492L897.024 108.273C897.044 108.185 897.188 107.615 897.453 106.562L898.774 101.703H900.219L901.461 106.516L901.875 108.102L902.352 106.5L903.774 101.703H905.141L902.547 110H901.086L899.766 105.031L899.445 103.617L897.766 110H896.297ZM910.391 107L911.867 106.875C911.977 107.594 912.229 108.135 912.625 108.5C913.026 108.859 913.508 109.039 914.07 109.039C914.748 109.039 915.32 108.784 915.789 108.273C916.258 107.763 916.492 107.086 916.492 106.242C916.492 105.44 916.266 104.807 915.813 104.344C915.365 103.88 914.776 103.648 914.047 103.648C913.594 103.648 913.185 103.753 912.82 103.961C912.456 104.164 912.169 104.43 911.961 104.758L910.641 104.586L911.75 98.7031H917.445V100.047H912.875L912.258 103.125C912.945 102.646 913.667 102.406 914.422 102.406C915.422 102.406 916.266 102.753 916.953 103.445C917.641 104.138 917.985 105.029 917.985 106.117C917.985 107.154 917.682 108.049 917.078 108.805C916.344 109.732 915.341 110.195 914.07 110.195C913.029 110.195 912.177 109.904 911.516 109.32C910.86 108.737 910.485 107.964 910.391 107Z" fill="#201F1F"/>
<path d="M999.895 106.32L1001.32 106.195C1001.39 106.768 1001.55 107.24 1001.79 107.609C1002.04 107.974 1002.43 108.271 1002.95 108.5C1003.47 108.724 1004.06 108.836 1004.71 108.836C1005.29 108.836 1005.8 108.75 1006.24 108.578C1006.68 108.406 1007.01 108.172 1007.22 107.875C1007.44 107.573 1007.55 107.245 1007.55 106.891C1007.55 106.531 1007.45 106.219 1007.24 105.953C1007.03 105.682 1006.69 105.456 1006.21 105.273C1005.9 105.154 1005.22 104.969 1004.17 104.719C1003.12 104.464 1002.38 104.224 1001.96 104C1001.41 103.714 1001 103.359 1000.73 102.938C1000.47 102.51 1000.33 102.034 1000.33 101.508C1000.33 100.93 1000.5 100.391 1000.82 99.8906C1001.15 99.3854 1001.63 99.0026 1002.26 98.7422C1002.89 98.4818 1003.59 98.3516 1004.36 98.3516C1005.21 98.3516 1005.96 98.4896 1006.61 98.7656C1007.26 99.0365 1007.76 99.4375 1008.11 99.9688C1008.45 100.5 1008.64 101.102 1008.67 101.773L1007.22 101.883C1007.14 101.159 1006.87 100.612 1006.42 100.242C1005.97 99.8724 1005.31 99.6875 1004.43 99.6875C1003.51 99.6875 1002.84 99.8568 1002.42 100.195C1002 100.529 1001.79 100.932 1001.79 101.406C1001.79 101.818 1001.94 102.156 1002.24 102.422C1002.53 102.688 1003.29 102.961 1004.52 103.242C1005.75 103.518 1006.6 103.76 1007.06 103.969C1007.73 104.276 1008.22 104.667 1008.54 105.141C1008.85 105.609 1009.01 106.151 1009.01 106.766C1009.01 107.375 1008.84 107.951 1008.49 108.492C1008.14 109.029 1007.64 109.448 1006.98 109.75C1006.33 110.047 1005.6 110.195 1004.78 110.195C1003.74 110.195 1002.87 110.044 1002.17 109.742C1001.47 109.44 1000.92 108.987 1000.52 108.383C1000.12 107.773 999.916 107.086 999.895 106.32ZM1010.9 110V98.5469H1012.31V102.656C1012.97 101.896 1013.79 101.516 1014.79 101.516C1015.41 101.516 1015.94 101.638 1016.39 101.883C1016.85 102.122 1017.17 102.456 1017.36 102.883C1017.56 103.31 1017.66 103.93 1017.66 104.742V110H1016.25V104.742C1016.25 104.039 1016.1 103.529 1015.79 103.211C1015.49 102.888 1015.06 102.727 1014.5 102.727C1014.09 102.727 1013.69 102.836 1013.32 103.055C1012.96 103.268 1012.7 103.56 1012.54 103.93C1012.39 104.299 1012.31 104.81 1012.31 105.461V110H1010.9ZM1025.22 108.977C1024.7 109.419 1024.2 109.732 1023.72 109.914C1023.24 110.096 1022.72 110.188 1022.17 110.188C1021.26 110.188 1020.56 109.966 1020.07 109.523C1019.58 109.076 1019.33 108.505 1019.33 107.812C1019.33 107.406 1019.42 107.036 1019.61 106.703C1019.79 106.365 1020.04 106.094 1020.33 105.891C1020.63 105.688 1020.97 105.534 1021.35 105.43C1021.62 105.357 1022.04 105.286 1022.6 105.219C1023.73 105.083 1024.57 104.922 1025.11 104.734C1025.11 104.542 1025.11 104.419 1025.11 104.367C1025.11 103.794 1024.98 103.391 1024.72 103.156C1024.36 102.839 1023.82 102.68 1023.11 102.68C1022.45 102.68 1021.96 102.797 1021.64 103.031C1021.33 103.26 1021.1 103.669 1020.95 104.258L1019.57 104.07C1019.7 103.482 1019.91 103.008 1020.19 102.648C1020.48 102.284 1020.89 102.005 1021.43 101.812C1021.98 101.615 1022.6 101.516 1023.32 101.516C1024.02 101.516 1024.6 101.599 1025.04 101.766C1025.49 101.932 1025.81 102.143 1026.02 102.398C1026.23 102.648 1026.37 102.966 1026.46 103.352C1026.5 103.591 1026.53 104.023 1026.53 104.648V106.523C1026.53 107.831 1026.56 108.659 1026.61 109.008C1026.68 109.352 1026.8 109.682 1026.97 110H1025.5C1025.36 109.708 1025.26 109.367 1025.22 108.977ZM1025.11 105.836C1024.6 106.044 1023.83 106.221 1022.81 106.367C1022.23 106.451 1021.82 106.544 1021.58 106.648C1021.34 106.753 1021.16 106.906 1021.03 107.109C1020.9 107.307 1020.83 107.529 1020.83 107.773C1020.83 108.148 1020.97 108.461 1021.25 108.711C1021.54 108.961 1021.96 109.086 1022.5 109.086C1023.05 109.086 1023.53 108.969 1023.95 108.734C1024.37 108.495 1024.68 108.169 1024.88 107.758C1025.03 107.44 1025.11 106.971 1025.11 106.352V105.836ZM1034.1 110V108.953C1033.57 109.776 1032.8 110.188 1031.78 110.188C1031.12 110.188 1030.51 110.005 1029.95 109.641C1029.4 109.276 1028.97 108.768 1028.66 108.117C1028.36 107.461 1028.21 106.708 1028.21 105.859C1028.21 105.031 1028.35 104.281 1028.62 103.609C1028.9 102.932 1029.31 102.414 1029.86 102.055C1030.42 101.695 1031.03 101.516 1031.72 101.516C1032.22 101.516 1032.66 101.622 1033.05 101.836C1033.44 102.044 1033.76 102.318 1034 102.656V98.5469H1035.4V110H1034.1ZM1029.65 105.859C1029.65 106.922 1029.88 107.716 1030.32 108.242C1030.77 108.768 1031.3 109.031 1031.91 109.031C1032.52 109.031 1033.05 108.781 1033.47 108.281C1033.91 107.776 1034.12 107.008 1034.12 105.977C1034.12 104.841 1033.9 104.008 1033.47 103.477C1033.03 102.945 1032.49 102.68 1031.85 102.68C1031.22 102.68 1030.7 102.935 1030.28 103.445C1029.86 103.956 1029.65 104.76 1029.65 105.859ZM1037.1 105.852C1037.1 104.315 1037.52 103.177 1038.38 102.438C1039.09 101.823 1039.96 101.516 1040.99 101.516C1042.13 101.516 1043.06 101.891 1043.79 102.641C1044.51 103.385 1044.87 104.417 1044.87 105.734C1044.87 106.802 1044.71 107.643 1044.39 108.258C1044.07 108.867 1043.6 109.341 1042.99 109.68C1042.38 110.018 1041.71 110.188 1040.99 110.188C1039.83 110.188 1038.89 109.815 1038.17 109.07C1037.45 108.326 1037.1 107.253 1037.1 105.852ZM1038.54 105.852C1038.54 106.914 1038.77 107.711 1039.24 108.242C1039.7 108.768 1040.29 109.031 1040.99 109.031C1041.69 109.031 1042.27 108.766 1042.73 108.234C1043.19 107.703 1043.43 106.893 1043.43 105.805C1043.43 104.779 1043.19 104.003 1042.72 103.477C1042.26 102.945 1041.68 102.68 1040.99 102.68C1040.29 102.68 1039.7 102.943 1039.24 103.469C1038.77 103.995 1038.54 104.789 1038.54 105.852ZM1048.06 110L1045.52 101.703H1046.97L1048.29 106.492L1048.79 108.273C1048.81 108.185 1048.95 107.615 1049.22 106.562L1050.54 101.703H1051.98L1053.22 106.516L1053.64 108.102L1054.11 106.5L1055.54 101.703H1056.9L1054.31 110H1052.85L1051.53 105.031L1051.21 103.617L1049.53 110H1048.06ZM1069.45 101.352L1068.05 101.461C1067.93 100.909 1067.75 100.508 1067.52 100.258C1067.14 99.8568 1066.67 99.6562 1066.11 99.6562C1065.67 99.6562 1065.27 99.7812 1064.93 100.031C1064.49 100.354 1064.14 100.826 1063.89 101.445C1063.63 102.065 1063.5 102.948 1063.49 104.094C1063.83 103.578 1064.24 103.195 1064.73 102.945C1065.22 102.695 1065.73 102.57 1066.27 102.57C1067.21 102.57 1068 102.917 1068.66 103.609C1069.32 104.297 1069.65 105.188 1069.65 106.281C1069.65 107 1069.5 107.669 1069.18 108.289C1068.88 108.904 1068.45 109.375 1067.91 109.703C1067.37 110.031 1066.75 110.195 1066.07 110.195C1064.89 110.195 1063.94 109.766 1063.2 108.906C1062.46 108.042 1062.09 106.62 1062.09 104.641C1062.09 102.427 1062.5 100.818 1063.32 99.8125C1064.03 98.9375 1064.99 98.5 1066.2 98.5C1067.1 98.5 1067.84 98.7526 1068.41 99.2578C1068.99 99.763 1069.33 100.461 1069.45 101.352ZM1063.71 106.289C1063.71 106.773 1063.81 107.237 1064.01 107.68C1064.22 108.122 1064.51 108.461 1064.88 108.695C1065.25 108.924 1065.64 109.039 1066.04 109.039C1066.64 109.039 1067.15 108.799 1067.57 108.32C1068 107.841 1068.21 107.19 1068.21 106.367C1068.21 105.576 1068 104.953 1067.58 104.5C1067.16 104.042 1066.63 103.812 1065.99 103.812C1065.35 103.812 1064.81 104.042 1064.37 104.5C1063.93 104.953 1063.71 105.549 1063.71 106.289Z" fill="#201F1F"/>
<g filter="url(#filter0_i_168_17814)">
<rect x="80" y="152" width="142.714" height="180" fill="white"/>
</g>
<g filter="url(#filter1_dd_168_17814)">
<rect x="222.714" y="152" width="142.714" height="180" fill="white"/>
</g>
<g filter="url(#filter2_dd_168_17814)">
<rect x="365.429" y="152" width="142.714" height="180" fill="white"/>
</g>
<g filter="url(#filter3_dd_168_17814)">
<rect x="508.143" y="152" width="142.714" height="180" fill="white"/>
</g>
<g filter="url(#filter4_dd_168_17814)">
<rect x="650.857" y="152" width="142.714" height="180" fill="white"/>
</g>
<g filter="url(#filter5_dd_168_17814)">
<rect x="793.571" y="152" width="142.714" height="180" fill="white"/>
</g>
<g filter="url(#filter6_dd_168_17814)">
<rect x="936.286" y="152" width="142.714" height="180" fill="white"/>
</g>
</g>
<path d="M8 0.5H1151C1155.14 0.5 1158.5 3.85787 1158.5 8V388C1158.5 392.142 1155.14 395.5 1151 395.5H8C3.85787 395.5 0.5 392.142 0.5 388V8C0.500004 3.85787 3.85787 0.5 8 0.5Z" stroke="#CDCCCB"/>
<defs>
<filter id="filter0_i_168_17814" x="80" y="152" width="142.714" height="181" filterUnits="userSpaceOnUse" color-interpolation-filters="sRGB">
<feFlood flood-opacity="0" result="BackgroundImageFix"/>
<feBlend mode="normal" in="SourceGraphic" in2="BackgroundImageFix" result="shape"/>
<feColorMatrix in="SourceAlpha" type="matrix" values="0 0 0 0 0 0 0 0 0 0 0 0 0 0 0 0 0 0 127 0" result="hardAlpha"/>
<feOffset dy="1"/>
<feGaussianBlur stdDeviation="2"/>
<feComposite in2="hardAlpha" operator="arithmetic" k2="-1" k3="1"/>
<feColorMatrix type="matrix" values="0 0 0 0 0 0 0 0 0 0 0 0 0 0 0 0 0 0 0.14 0"/>
<feBlend mode="normal" in2="shape" result="effect1_innerShadow_168_17814"/>
</filter>
<filter id="filter1_dd_168_17814" x="220.714" y="150" width="146.714" height="185" filterUnits="userSpaceOnUse" color-interpolation-filters="sRGB">
<feFlood flood-opacity="0" result="BackgroundImageFix"/>
<feColorMatrix in="SourceAlpha" type="matrix" values="0 0 0 0 0 0 0 0 0 0 0 0 0 0 0 0 0 0 127 0" result="hardAlpha"/>
<feOffset/>
<feGaussianBlur stdDeviation="1"/>
<feComposite in2="hardAlpha" operator="out"/>
<feColorMatrix type="matrix" values="0 0 0 0 0 0 0 0 0 0 0 0 0 0 0 0 0 0 0.12 0"/>
<feBlend mode="normal" in2="BackgroundImageFix" result="effect1_dropShadow_168_17814"/>
<feColorMatrix in="SourceAlpha" type="matrix" values="0 0 0 0 0 0 0 0 0 0 0 0 0 0 0 0 0 0 127 0" result="hardAlpha"/>
<feOffset dy="1"/>
<feGaussianBlur stdDeviation="1"/>
<feComposite in2="hardAlpha" operator="out"/>
<feColorMatrix type="matrix" values="0 0 0 0 0 0 0 0 0 0 0 0 0 0 0 0 0 0 0.14 0"/>
<feBlend mode="normal" in2="effect1_dropShadow_168_17814" result="effect2_dropShadow_168_17814"/>
<feBlend mode="normal" in="SourceGraphic" in2="effect2_dropShadow_168_17814" result="shape"/>
</filter>
<filter id="filter2_dd_168_17814" x="361.429" y="150" width="150.714" height="188" filterUnits="userSpaceOnUse" color-interpolation-filters="sRGB">
<feFlood flood-opacity="0" result="BackgroundImageFix"/>
<feColorMatrix in="SourceAlpha" type="matrix" values="0 0 0 0 0 0 0 0 0 0 0 0 0 0 0 0 0 0 127 0" result="hardAlpha"/>
<feOffset/>
<feGaussianBlur stdDeviation="1"/>
<feComposite in2="hardAlpha" operator="out"/>
<feColorMatrix type="matrix" values="0 0 0 0 0 0 0 0 0 0 0 0 0 0 0 0 0 0 0.12 0"/>
<feBlend mode="normal" in2="BackgroundImageFix" result="effect1_dropShadow_168_17814"/>
<feColorMatrix in="SourceAlpha" type="matrix" values="0 0 0 0 0 0 0 0 0 0 0 0 0 0 0 0 0 0 127 0" result="hardAlpha"/>
<feOffset dy="2"/>
<feGaussianBlur stdDeviation="2"/>
<feComposite in2="hardAlpha" operator="out"/>
<feColorMatrix type="matrix" values="0 0 0 0 0 0 0 0 0 0 0 0 0 0 0 0 0 0 0.14 0"/>
<feBlend mode="normal" in2="effect1_dropShadow_168_17814" result="effect2_dropShadow_168_17814"/>
<feBlend mode="normal" in="SourceGraphic" in2="effect2_dropShadow_168_17814" result="shape"/>
</filter>
<filter id="filter3_dd_168_17814" x="500.143" y="148" width="158.714" height="196" filterUnits="userSpaceOnUse" color-interpolation-filters="sRGB">
<feFlood flood-opacity="0" result="BackgroundImageFix"/>
<feColorMatrix in="SourceAlpha" type="matrix" values="0 0 0 0 0 0 0 0 0 0 0 0 0 0 0 0 0 0 127 0" result="hardAlpha"/>
<feOffset/>
<feGaussianBlur stdDeviation="1"/>
<feComposite in2="hardAlpha" operator="out"/>
<feColorMatrix type="matrix" values="0 0 0 0 0 0 0 0 0 0 0 0 0 0 0 0 0 0 0.12 0"/>
<feBlend mode="normal" in2="BackgroundImageFix" result="effect1_dropShadow_168_17814"/>
<feColorMatrix in="SourceAlpha" type="matrix" values="0 0 0 0 0 0 0 0 0 0 0 0 0 0 0 0 0 0 127 0" result="hardAlpha"/>
<feOffset dy="4"/>
<feGaussianBlur stdDeviation="4"/>
<feComposite in2="hardAlpha" operator="out"/>
<feColorMatrix type="matrix" values="0 0 0 0 0 0 0 0 0 0 0 0 0 0 0 0 0 0 0.14 0"/>
<feBlend mode="normal" in2="effect1_dropShadow_168_17814" result="effect2_dropShadow_168_17814"/>
<feBlend mode="normal" in="SourceGraphic" in2="effect2_dropShadow_168_17814" result="shape"/>
</filter>
<filter id="filter4_dd_168_17814" x="634.857" y="144" width="174.714" height="212" filterUnits="userSpaceOnUse" color-interpolation-filters="sRGB">
<feFlood flood-opacity="0" result="BackgroundImageFix"/>
<feColorMatrix in="SourceAlpha" type="matrix" values="0 0 0 0 0 0 0 0 0 0 0 0 0 0 0 0 0 0 127 0" result="hardAlpha"/>
<feOffset/>
<feGaussianBlur stdDeviation="1"/>
<feComposite in2="hardAlpha" operator="out"/>
<feColorMatrix type="matrix" values="0 0 0 0 0 0 0 0 0 0 0 0 0 0 0 0 0 0 0.12 0"/>
<feBlend mode="normal" in2="BackgroundImageFix" result="effect1_dropShadow_168_17814"/>
<feColorMatrix in="SourceAlpha" type="matrix" values="0 0 0 0 0 0 0 0 0 0 0 0 0 0 0 0 0 0 127 0" result="hardAlpha"/>
<feOffset dy="8"/>
<feGaussianBlur stdDeviation="8"/>
<feComposite in2="hardAlpha" operator="out"/>
<feColorMatrix type="matrix" values="0 0 0 0 0 0 0 0 0 0 0 0 0 0 0 0 0 0 0.14 0"/>
<feBlend mode="normal" in2="effect1_dropShadow_168_17814" result="effect2_dropShadow_168_17814"/>
<feBlend mode="normal" in="SourceGraphic" in2="effect2_dropShadow_168_17814" result="shape"/>
</filter>
<filter id="filter5_dd_168_17814" x="765.571" y="138" width="198.714" height="236" filterUnits="userSpaceOnUse" color-interpolation-filters="sRGB">
<feFlood flood-opacity="0" result="BackgroundImageFix"/>
<feColorMatrix in="SourceAlpha" type="matrix" values="0 0 0 0 0 0 0 0 0 0 0 0 0 0 0 0 0 0 127 0" result="hardAlpha"/>
<feOffset/>
<feGaussianBlur stdDeviation="4"/>
<feComposite in2="hardAlpha" operator="out"/>
<feColorMatrix type="matrix" values="0 0 0 0 0 0 0 0 0 0 0 0 0 0 0 0 0 0 0.2 0"/>
<feBlend mode="normal" in2="BackgroundImageFix" result="effect1_dropShadow_168_17814"/>
<feColorMatrix in="SourceAlpha" type="matrix" values="0 0 0 0 0 0 0 0 0 0 0 0 0 0 0 0 0 0 127 0" result="hardAlpha"/>
<feOffset dy="14"/>
<feGaussianBlur stdDeviation="14"/>
<feComposite in2="hardAlpha" operator="out"/>
<feColorMatrix type="matrix" values="0 0 0 0 0 0 0 0 0 0 0 0 0 0 0 0 0 0 0.24 0"/>
<feBlend mode="normal" in2="effect1_dropShadow_168_17814" result="effect2_dropShadow_168_17814"/>
<feBlend mode="normal" in="SourceGraphic" in2="effect2_dropShadow_168_17814" result="shape"/>
</filter>
<filter id="filter6_dd_168_17814" x="872.286" y="120" width="270.714" height="308" filterUnits="userSpaceOnUse" color-interpolation-filters="sRGB">
<feFlood flood-opacity="0" result="BackgroundImageFix"/>
<feColorMatrix in="SourceAlpha" type="matrix" values="0 0 0 0 0 0 0 0 0 0 0 0 0 0 0 0 0 0 127 0" result="hardAlpha"/>
<feOffset/>
<feGaussianBlur stdDeviation="4"/>
<feComposite in2="hardAlpha" operator="out"/>
<feColorMatrix type="matrix" values="0 0 0 0 0 0 0 0 0 0 0 0 0 0 0 0 0 0 0.2 0"/>
<feBlend mode="normal" in2="BackgroundImageFix" result="effect1_dropShadow_168_17814"/>
<feColorMatrix in="SourceAlpha" type="matrix" values="0 0 0 0 0 0 0 0 0 0 0 0 0 0 0 0 0 0 127 0" result="hardAlpha"/>
<feOffset dy="32"/>
<feGaussianBlur stdDeviation="32"/>
<feComposite in2="hardAlpha" operator="out"/>
<feColorMatrix type="matrix" values="0 0 0 0 0 0 0 0 0 0 0 0 0 0 0 0 0 0 0.24 0"/>
<feBlend mode="normal" in2="effect1_dropShadow_168_17814" result="effect2_dropShadow_168_17814"/>
<feBlend mode="normal" in="SourceGraphic" in2="effect2_dropShadow_168_17814" result="shape"/>
</filter>
<clipPath id="clip0_168_17814">
<path d="M0 8.00001C0 3.58173 3.58172 0 8 0H1151C1155.42 0 1159 3.58172 1159 8V388C1159 392.418 1155.42 396 1151 396H8.00002C3.58174 396 0 392.418 0 388V8.00001Z" fill="white"/>
</clipPath>
</defs>
</svg>
