<svg viewBox="0 0 20 20" fill="none" xmlns="http://www.w3.org/2000/svg">
<path d="M10.0208 3.49999L5.10417 6.31249L10 9.12499L14.8958 6.31249L10.0208 3.49999ZM3 13.3333V6.66666C3 6.39207 3.06562 6.14249 3.19687 5.91791C3.32812 5.69318 3.5125 5.51221 3.75 5.37499L9.22125 2.2027C9.35153 2.137 9.47792 2.08332 9.60042 2.04166C9.72292 1.99999 9.85514 1.97916 9.99708 1.97916C10.1389 1.97916 10.2743 1.99999 10.4033 2.04166C10.5322 2.08332 10.6547 2.13888 10.7708 2.20832L16.25 5.37499C16.4875 5.51221 16.6719 5.69318 16.8031 5.91791C16.9344 6.14249 17 6.39207 17 6.66666V9.74999C17 9.96249 16.9285 10.1406 16.7856 10.2844C16.6427 10.4281 16.4656 10.5 16.2544 10.5C16.0431 10.5 15.8646 10.4281 15.7187 10.2844C15.5729 10.1406 15.5 9.96249 15.5 9.74999V7.68749L10.7292 10.4167C10.4912 10.5555 10.2408 10.625 9.97771 10.625C9.71479 10.625 9.46528 10.5555 9.22917 10.4167L4.5 7.68749V13.3125L9.125 16C9.2375 16.0633 9.32812 16.152 9.39687 16.266C9.46562 16.3801 9.5 16.5068 9.5 16.6462C9.5 16.9376 9.375 17.1562 9.125 17.3021C8.875 17.4479 8.625 17.4444 8.375 17.2917L3.75 14.625C3.51389 14.5 3.32986 14.3233 3.19792 14.0948C3.06597 13.8663 3 13.6125 3 13.3333ZM12.1667 18.8285C11.3889 18.0477 11 17.1033 11 15.9952C11 14.8873 11.3905 13.9444 12.1715 13.1667C12.9523 12.3889 13.8967 12 15.0048 12C16.1127 12 17.0556 12.3905 17.8333 13.1714C18.6111 13.9523 19 14.8967 19 16.0048C19 17.1127 18.6095 18.0555 17.8285 18.8333C17.0477 19.6111 16.1033 20 14.9952 20C13.8873 20 12.9444 19.6095 12.1667 18.8285ZM15.5 15.7917V14.5C15.5 14.3667 15.4514 14.25 15.3542 14.15C15.2569 14.05 15.1389 14 15 14C14.8611 14 14.7431 14.05 14.6458 14.15C14.5486 14.25 14.5 14.3667 14.5 14.5V15.8958C14.5 16.0069 14.5208 16.1076 14.5625 16.1979C14.6042 16.2882 14.6603 16.3687 14.731 16.4394L15.7917 17.5C15.8939 17.5972 16.0132 17.6458 16.1496 17.6458C16.286 17.6458 16.4028 17.5972 16.5 17.5C16.5972 17.4028 16.6458 17.286 16.6458 17.1496C16.6458 17.0132 16.5972 16.8939 16.5 16.7917L15.5 15.7917Z" fill="currentColor"/>
</svg>
