<svg viewBox="0 0 20 20" fill="none" xmlns="http://www.w3.org/2000/svg">
<path d="M5.41683 16.6667C4.13905 16.6667 3.05572 16.2222 2.16683 15.3333C1.27794 14.4444 0.833496 13.3611 0.833496 12.0833C0.833496 11.0139 1.16336 10.0625 1.82308 9.22917C2.4828 8.39583 3.3335 7.86111 4.37516 7.625C4.41683 7.51389 4.4585 7.40625 4.50016 7.30208C4.54183 7.19792 4.5835 7.08333 4.62516 6.95833L1.75016 4.08333C1.59738 3.93056 1.521 3.73611 1.521 3.5C1.521 3.26389 1.59738 3.06944 1.75016 2.91667C1.90294 2.76389 2.09739 2.6875 2.3335 2.6875C2.56961 2.6875 2.76405 2.76389 2.91683 2.91667L17.0835 17.0833C17.2363 17.2361 17.3161 17.4271 17.3231 17.6562C17.33 17.8854 17.2502 18.0833 17.0835 18.25C16.9307 18.4028 16.7397 18.4826 16.5106 18.4896C16.2814 18.4965 16.0835 18.4236 15.9168 18.2708L14.2918 16.6667H5.41683ZM5.41683 15H12.6252L5.91683 8.29167C5.88905 8.44444 5.86822 8.59028 5.85433 8.72917C5.84044 8.86806 5.8335 9.01389 5.8335 9.16667H5.41683C4.61127 9.16667 3.92377 9.45139 3.35433 10.0208C2.78489 10.5903 2.50016 11.2778 2.50016 12.0833C2.50016 12.8889 2.78489 13.5764 3.35433 14.1458C3.92377 14.7153 4.61127 15 5.41683 15ZM18.0002 15.625L16.7918 14.4583C17.0279 14.2639 17.205 14.0382 17.3231 13.7812C17.4411 13.5243 17.5002 13.2361 17.5002 12.9167C17.5002 12.3333 17.2988 11.8403 16.896 11.4375C16.4932 11.0347 16.0002 10.8333 15.4168 10.8333H14.1668V9.16667C14.1668 8.01389 13.7606 7.03125 12.9481 6.21875C12.1356 5.40625 11.1529 5 10.0002 5C9.62516 5 9.26405 5.04514 8.91683 5.13542C8.56961 5.22569 8.23627 5.36806 7.91683 5.5625L6.7085 4.35417C7.19461 4.02083 7.71197 3.76736 8.26058 3.59375C8.80919 3.42014 9.38905 3.33333 10.0002 3.33333C11.6252 3.33333 13.0036 3.89931 14.1356 5.03125C15.2675 6.16319 15.8335 7.54167 15.8335 9.16667C16.7918 9.27778 17.587 9.69097 18.2189 10.4062C18.8509 11.1215 19.1668 11.9583 19.1668 12.9167C19.1668 13.4583 19.0627 13.9618 18.8543 14.4271C18.646 14.8924 18.3613 15.2917 18.0002 15.625Z" fill="currentColor"/>
</svg>