<svg viewBox="0 0 20 20" fill="none" xmlns="http://www.w3.org/2000/svg">
<path d="M5.83329 11.6666V16.6666C5.83329 16.9028 5.75343 17.1007 5.59371 17.2604C5.43399 17.4201 5.23607 17.5 4.99996 17.5C4.76385 17.5 4.56593 17.4201 4.40621 17.2604C4.24649 17.1007 4.16663 16.9028 4.16663 16.6666V4.16665C4.16663 3.93054 4.24649 3.73262 4.40621 3.5729C4.56593 3.41317 4.76385 3.33331 4.99996 3.33331H10.9791C11.1736 3.33331 11.3472 3.39581 11.5 3.52081C11.6527 3.64581 11.75 3.80554 11.7916 3.99998L12 4.99998H15.8333C16.0694 4.99998 16.2673 5.07984 16.427 5.23956C16.5868 5.39929 16.6666 5.5972 16.6666 5.83331V12.5C16.6666 12.7361 16.5868 12.934 16.427 13.0937C16.2673 13.2535 16.0694 13.3333 15.8333 13.3333H11.5208C11.3263 13.3333 11.1527 13.2708 11 13.1458C10.8472 13.0208 10.75 12.8611 10.7083 12.6666L10.5 11.6666H5.83329Z" fill="currentColor"/>
</svg>