<svg viewBox="0 0 20 20" fill="none" xmlns="http://www.w3.org/2000/svg">
<path d="M11.0416 10.4167L10.0833 9.16669C9.99996 9.05558 9.88885 9.00002 9.74996 9.00002C9.61107 9.00002 9.49996 9.05558 9.41663 9.16669L8.02079 11C7.90968 11.1389 7.89232 11.2847 7.96871 11.4375C8.0451 11.5903 8.17357 11.6667 8.35413 11.6667H14.9791C15.1597 11.6667 15.2882 11.5903 15.3645 11.4375C15.4409 11.2847 15.4236 11.1389 15.3125 11L13.2916 8.35419C13.2083 8.24308 13.0972 8.18752 12.9583 8.18752C12.8194 8.18752 12.7083 8.24308 12.625 8.35419L11.0416 10.4167ZM6.66663 15C6.20829 15 5.81593 14.8368 5.48954 14.5104C5.16315 14.184 4.99996 13.7917 4.99996 13.3334V3.33335C4.99996 2.87502 5.16315 2.48266 5.48954 2.15627C5.81593 1.82988 6.20829 1.66669 6.66663 1.66669H16.6666C17.125 1.66669 17.5173 1.82988 17.8437 2.15627C18.1701 2.48266 18.3333 2.87502 18.3333 3.33335V13.3334C18.3333 13.7917 18.1701 14.184 17.8437 14.5104C17.5173 14.8368 17.125 15 16.6666 15H6.66663ZM6.66663 13.3334H16.6666V3.33335H6.66663V13.3334ZM3.33329 18.3334C2.87496 18.3334 2.4826 18.1702 2.15621 17.8438C1.82982 17.5174 1.66663 17.125 1.66663 16.6667V5.83335C1.66663 5.59724 1.74649 5.39933 1.90621 5.2396C2.06593 5.07988 2.26385 5.00002 2.49996 5.00002C2.73607 5.00002 2.93399 5.07988 3.09371 5.2396C3.25343 5.39933 3.33329 5.59724 3.33329 5.83335V16.6667H14.1666C14.4027 16.6667 14.6007 16.7465 14.7604 16.9063C14.9201 17.066 15 17.2639 15 17.5C15 17.7361 14.9201 17.934 14.7604 18.0938C14.6007 18.2535 14.4027 18.3334 14.1666 18.3334H3.33329Z" fill="currentColor"/>
</svg>