<svg viewBox="0 0 20 20" fill="none" xmlns="http://www.w3.org/2000/svg">
<path d="M11.9583 17.3125L7.5 15.75L3.625 17.25C3.48611 17.3056 3.35069 17.3229 3.21875 17.3021C3.08681 17.2813 2.96528 17.2361 2.85417 17.1667C2.74306 17.0972 2.65625 17.0035 2.59375 16.8854C2.53125 16.7674 2.5 16.632 2.5 16.4792V4.79169C2.5 4.61113 2.55208 4.45141 2.65625 4.31252C2.76042 4.17363 2.90278 4.06946 3.08333 4.00002L6.95833 2.68752C7.04167 2.65974 7.12847 2.63891 7.21875 2.62502C7.30903 2.61113 7.40278 2.60419 7.5 2.60419C7.59722 2.60419 7.69097 2.61113 7.78125 2.62502C7.87153 2.63891 7.95833 2.65974 8.04167 2.68752L12.5 4.25002L16.375 2.75002C16.5139 2.69446 16.6493 2.6771 16.7812 2.69794C16.9132 2.71877 17.0347 2.76391 17.1458 2.83335C17.2569 2.9028 17.3438 2.99655 17.4062 3.1146C17.4688 3.23266 17.5 3.36808 17.5 3.52085V15.2084C17.5 15.3889 17.4479 15.5486 17.3438 15.6875C17.2396 15.8264 17.0972 15.9306 16.9167 16L13.0417 17.3125C12.9583 17.3403 12.8715 17.3611 12.7812 17.375C12.691 17.3889 12.5972 17.3959 12.5 17.3959C12.4028 17.3959 12.309 17.3889 12.2188 17.375C12.1285 17.3611 12.0417 17.3403 11.9583 17.3125ZM11.6667 15.4584V5.70835L8.33333 4.54169V14.2917L11.6667 15.4584Z" fill="currentColor"/>
</svg>