<svg width="1159" height="255" viewBox="0 0 1159 255" fill="none" xmlns="http://www.w3.org/2000/svg">
<g clip-path="url(#clip0_228_25665)">
<rect width="579.5" height="61" fill="white"/>
<path d="M18.62 37.14C18.3133 37.14 18.0733 37.0533 17.9 36.88C17.7267 36.7067 17.64 36.46 17.64 36.14V23.8C17.64 23.4667 17.72 23.2133 17.88 23.04C18.0533 22.8533 18.28 22.76 18.56 22.76C18.8 22.76 18.98 22.8067 19.1 22.9C19.2333 22.98 19.3867 23.1333 19.56 23.36L27.8 34.22H27.3V23.74C27.3 23.4333 27.38 23.1933 27.54 23.02C27.7133 22.8467 27.9533 22.76 28.26 22.76C28.58 22.76 28.82 22.8467 28.98 23.02C29.14 23.1933 29.22 23.4333 29.22 23.74V36.16C29.22 36.4667 29.14 36.7067 28.98 36.88C28.8333 37.0533 28.6333 37.14 28.38 37.14C28.14 37.14 27.94 37.0933 27.78 37C27.6333 36.9067 27.4733 36.7467 27.3 36.52L19.1 25.68H19.56V36.14C19.56 36.46 19.48 36.7067 19.32 36.88C19.16 37.0533 18.9267 37.14 18.62 37.14ZM36.0233 37.18C35.0366 37.18 34.1833 36.9733 33.4633 36.56C32.7566 36.1467 32.2033 35.56 31.8033 34.8C31.4033 34.04 31.2033 33.1467 31.2033 32.12C31.2033 31.3333 31.3166 30.6333 31.5433 30.02C31.7699 29.4067 32.0899 28.88 32.5033 28.44C32.9299 27.9867 33.4366 27.6467 34.0233 27.42C34.6233 27.18 35.2899 27.06 36.0233 27.06C36.9966 27.06 37.8366 27.2667 38.5433 27.68C39.2633 28.0933 39.8233 28.68 40.2233 29.44C40.6233 30.1867 40.8233 31.08 40.8233 32.12C40.8233 32.8933 40.7099 33.5933 40.4833 34.22C40.2566 34.8467 39.9299 35.38 39.5033 35.82C39.0899 36.26 38.5833 36.6 37.9833 36.84C37.3966 37.0667 36.7433 37.18 36.0233 37.18ZM36.0233 35.62C36.5699 35.62 37.0499 35.4867 37.4633 35.22C37.8766 34.9533 38.1966 34.56 38.4233 34.04C38.6633 33.52 38.7833 32.88 38.7833 32.12C38.7833 30.9733 38.5299 30.1067 38.0233 29.52C37.5166 28.9333 36.8499 28.64 36.0233 28.64C35.4633 28.64 34.9766 28.7733 34.5633 29.04C34.1499 29.2933 33.8233 29.68 33.5833 30.2C33.3566 30.72 33.2433 31.36 33.2433 32.12C33.2433 33.2533 33.4966 34.12 34.0033 34.72C34.5099 35.32 35.1833 35.62 36.0233 35.62ZM43.6319 37.14C43.3119 37.14 43.0652 37.0533 42.8919 36.88C42.7185 36.6933 42.6319 36.44 42.6319 36.12V28.12C42.6319 27.7867 42.7185 27.5333 42.8919 27.36C43.0652 27.1867 43.3052 27.1 43.6119 27.1C43.9319 27.1 44.1719 27.1867 44.3319 27.36C44.5052 27.5333 44.5919 27.7867 44.5919 28.12V29.76L44.3719 29.32C44.6385 28.6133 45.0519 28.06 45.6119 27.66C46.1719 27.26 46.8452 27.06 47.6319 27.06C48.4452 27.06 49.1052 27.2533 49.6119 27.64C50.1185 28.0267 50.4652 28.62 50.6519 29.42H50.3719C50.6252 28.6867 51.0585 28.1133 51.6719 27.7C52.2852 27.2733 52.9985 27.06 53.8119 27.06C54.5585 27.06 55.1719 27.2067 55.6519 27.5C56.1319 27.78 56.4919 28.2133 56.7319 28.8C56.9719 29.3733 57.0919 30.1 57.0919 30.98V36.12C57.0919 36.44 56.9985 36.6933 56.8119 36.88C56.6385 37.0533 56.3919 37.14 56.0719 37.14C55.7519 37.14 55.5052 37.0533 55.3319 36.88C55.1585 36.6933 55.0719 36.44 55.0719 36.12V31.08C55.0719 30.2533 54.9252 29.6467 54.6319 29.26C54.3519 28.8733 53.8852 28.68 53.2319 28.68C52.4985 28.68 51.9185 28.9333 51.4919 29.44C51.0652 29.9467 50.8519 30.6467 50.8519 31.54V36.12C50.8519 36.44 50.7652 36.6933 50.5919 36.88C50.4185 37.0533 50.1719 37.14 49.8519 37.14C49.5319 37.14 49.2785 37.0533 49.0919 36.88C48.9185 36.6933 48.8319 36.44 48.8319 36.12V31.08C48.8319 30.2533 48.6919 29.6467 48.4119 29.26C48.1319 28.8733 47.6652 28.68 47.0119 28.68C46.2785 28.68 45.6985 28.9333 45.2719 29.44C44.8585 29.9467 44.6519 30.6467 44.6519 31.54V36.12C44.6519 36.8 44.3119 37.14 43.6319 37.14Z" fill="#201F1F"/>
<path d="M0 60.5H579.5" stroke="#CDCCCB"/>
<rect width="579.5" height="73" transform="translate(0 61)" fill="white"/>
<path d="M17.1562 79.5469H21.3828C22.3359 79.5469 23.0625 79.6198 23.5625 79.7656C24.2344 79.9635 24.8099 80.3151 25.2891 80.8203C25.7682 81.3255 26.1328 81.9453 26.3828 82.6797C26.6328 83.4089 26.7578 84.3099 26.7578 85.3828C26.7578 86.3255 26.6406 87.138 26.4062 87.8203C26.1198 88.6536 25.7109 89.3281 25.1797 89.8438C24.7786 90.2344 24.237 90.5391 23.5547 90.7578C23.0443 90.9193 22.362 91 21.5078 91H17.1562V79.5469ZM19.4688 81.4844V89.0703H21.1953C21.8411 89.0703 22.3073 89.0339 22.5938 88.9609C22.9688 88.8672 23.2786 88.7083 23.5234 88.4844C23.7734 88.2604 23.9766 87.8932 24.1328 87.3828C24.2891 86.8672 24.3672 86.1667 24.3672 85.2812C24.3672 84.3958 24.2891 83.7161 24.1328 83.2422C23.9766 82.7682 23.7578 82.3984 23.4766 82.1328C23.1953 81.8672 22.8385 81.6875 22.4062 81.5938C22.0833 81.5208 21.4505 81.4844 20.5078 81.4844H19.4688ZM33.5156 88.3594L35.7031 88.7266C35.4219 89.5286 34.9766 90.1406 34.3672 90.5625C33.763 90.9792 33.0052 91.1875 32.0938 91.1875C30.651 91.1875 29.5833 90.7161 28.8906 89.7734C28.3438 89.0182 28.0703 88.0651 28.0703 86.9141C28.0703 85.5391 28.4297 84.4635 29.1484 83.6875C29.8672 82.9062 30.776 82.5156 31.875 82.5156C33.1094 82.5156 34.0833 82.9245 34.7969 83.7422C35.5104 84.5547 35.8516 85.8021 35.8203 87.4844H30.3203C30.3359 88.1354 30.513 88.6432 30.8516 89.0078C31.1901 89.3672 31.612 89.5469 32.1172 89.5469C32.4609 89.5469 32.75 89.4531 32.9844 89.2656C33.2188 89.0781 33.3958 88.776 33.5156 88.3594ZM33.6406 86.1406C33.625 85.5052 33.4609 85.0234 33.1484 84.6953C32.8359 84.362 32.4557 84.1953 32.0078 84.1953C31.5286 84.1953 31.1328 84.3698 30.8203 84.7188C30.5078 85.0677 30.3542 85.5417 30.3594 86.1406H33.6406ZM36.6562 82.7031H37.875V82.0781C37.875 81.3802 37.9479 80.8594 38.0938 80.5156C38.2448 80.1719 38.5182 79.8932 38.9141 79.6797C39.3151 79.4609 39.8203 79.3516 40.4297 79.3516C41.0547 79.3516 41.6667 79.4453 42.2656 79.6328L41.9688 81.1641C41.6198 81.0807 41.2839 81.0391 40.9609 81.0391C40.6432 81.0391 40.4141 81.1146 40.2734 81.2656C40.138 81.4115 40.0703 81.6953 40.0703 82.1172V82.7031H41.7109V84.4297H40.0703V91H37.875V84.4297H36.6562V82.7031ZM44.5859 85.2344L42.5938 84.875C42.8177 84.0729 43.2031 83.4792 43.75 83.0938C44.2969 82.7083 45.1094 82.5156 46.1875 82.5156C47.1667 82.5156 47.8958 82.6328 48.375 82.8672C48.8542 83.0964 49.1901 83.3906 49.3828 83.75C49.5807 84.1042 49.6797 84.7578 49.6797 85.7109L49.6562 88.2734C49.6562 89.0026 49.6901 89.5417 49.7578 89.8906C49.8307 90.2344 49.9635 90.6042 50.1562 91H47.9844C47.9271 90.8542 47.8568 90.638 47.7734 90.3516C47.737 90.2214 47.7109 90.1354 47.6953 90.0938C47.3203 90.4583 46.9193 90.7318 46.4922 90.9141C46.0651 91.0964 45.6094 91.1875 45.125 91.1875C44.2708 91.1875 43.5964 90.9557 43.1016 90.4922C42.612 90.0286 42.3672 89.4427 42.3672 88.7344C42.3672 88.2656 42.4792 87.849 42.7031 87.4844C42.9271 87.1146 43.2396 86.8333 43.6406 86.6406C44.0469 86.4427 44.6302 86.2708 45.3906 86.125C46.4167 85.9323 47.1276 85.7526 47.5234 85.5859V85.3672C47.5234 84.9453 47.4193 84.6458 47.2109 84.4688C47.0026 84.2865 46.6094 84.1953 46.0312 84.1953C45.6406 84.1953 45.3359 84.2734 45.1172 84.4297C44.8984 84.5807 44.7214 84.849 44.5859 85.2344ZM47.5234 87.0156C47.2422 87.1094 46.7969 87.2214 46.1875 87.3516C45.5781 87.4818 45.1797 87.6094 44.9922 87.7344C44.7057 87.9375 44.5625 88.1953 44.5625 88.5078C44.5625 88.8151 44.6771 89.0807 44.9062 89.3047C45.1354 89.5286 45.4271 89.6406 45.7812 89.6406C46.1771 89.6406 46.5547 89.5104 46.9141 89.25C47.1797 89.0521 47.3542 88.8099 47.4375 88.5234C47.4948 88.3359 47.5234 87.9792 47.5234 87.4531V87.0156ZM57.3125 91V89.7578C57.0104 90.2005 56.612 90.5495 56.1172 90.8047C55.6276 91.0599 55.1094 91.1875 54.5625 91.1875C54.0052 91.1875 53.5052 91.0651 53.0625 90.8203C52.6198 90.5755 52.2995 90.2318 52.1016 89.7891C51.9036 89.3464 51.8047 88.7344 51.8047 87.9531V82.7031H54V86.5156C54 87.6823 54.0391 88.3984 54.1172 88.6641C54.2005 88.9245 54.349 89.1328 54.5625 89.2891C54.776 89.4401 55.0469 89.5156 55.375 89.5156C55.75 89.5156 56.0859 89.4141 56.3828 89.2109C56.6797 89.0026 56.8828 88.7474 56.9922 88.4453C57.1016 88.138 57.1562 87.3906 57.1562 86.2031V82.7031H59.3516V91H57.3125ZM65.4375 82.7031V84.4531H63.9375V87.7969C63.9375 88.474 63.9505 88.8698 63.9766 88.9844C64.0078 89.0938 64.0729 89.1849 64.1719 89.2578C64.276 89.3307 64.401 89.3672 64.5469 89.3672C64.75 89.3672 65.0443 89.2969 65.4297 89.1562L65.6172 90.8594C65.1068 91.0781 64.5286 91.1875 63.8828 91.1875C63.487 91.1875 63.1302 91.1224 62.8125 90.9922C62.4948 90.8568 62.2604 90.6849 62.1094 90.4766C61.9635 90.263 61.862 89.9766 61.8047 89.6172C61.7578 89.362 61.7344 88.8464 61.7344 88.0703V84.4531H60.7266V82.7031H61.7344V81.0547L63.9375 79.7734V82.7031H65.4375Z" fill="#3E3E3D"/>
<g opacity="0.5">
<path d="M0 133.5H579.5" stroke="#CDCCCB"/>
</g>
<rect width="579.5" height="121" transform="translate(0 134)" fill="white"/>
<path d="M24.4922 159.789L26.7344 160.5C26.3906 161.75 25.8177 162.68 25.0156 163.289C24.2188 163.893 23.2057 164.195 21.9766 164.195C20.4557 164.195 19.2057 163.677 18.2266 162.641C17.2474 161.599 16.7578 160.177 16.7578 158.375C16.7578 156.469 17.25 154.99 18.2344 153.938C19.2188 152.88 20.513 152.352 22.1172 152.352C23.5182 152.352 24.6562 152.766 25.5312 153.594C26.0521 154.083 26.4427 154.786 26.7031 155.703L24.4141 156.25C24.2786 155.656 23.9948 155.188 23.5625 154.844C23.1354 154.5 22.6146 154.328 22 154.328C21.151 154.328 20.4609 154.633 19.9297 155.242C19.4036 155.852 19.1406 156.839 19.1406 158.203C19.1406 159.651 19.401 160.682 19.9219 161.297C20.4427 161.911 21.1198 162.219 21.9531 162.219C22.5677 162.219 23.0964 162.023 23.5391 161.633C23.9818 161.242 24.2995 160.628 24.4922 159.789ZM28.2031 159.734C28.2031 159.005 28.3828 158.299 28.7422 157.617C29.1016 156.935 29.6094 156.414 30.2656 156.055C30.9271 155.695 31.6641 155.516 32.4766 155.516C33.7318 155.516 34.7604 155.924 35.5625 156.742C36.3646 157.555 36.7656 158.583 36.7656 159.828C36.7656 161.083 36.3594 162.125 35.5469 162.953C34.7396 163.776 33.7214 164.188 32.4922 164.188C31.7318 164.188 31.0052 164.016 30.3125 163.672C29.625 163.328 29.1016 162.826 28.7422 162.164C28.3828 161.497 28.2031 160.688 28.2031 159.734ZM30.4531 159.852C30.4531 160.674 30.6484 161.305 31.0391 161.742C31.4297 162.18 31.9115 162.398 32.4844 162.398C33.0573 162.398 33.5365 162.18 33.9219 161.742C34.3125 161.305 34.5078 160.669 34.5078 159.836C34.5078 159.023 34.3125 158.398 33.9219 157.961C33.5365 157.523 33.0573 157.305 32.4844 157.305C31.9115 157.305 31.4297 157.523 31.0391 157.961C30.6484 158.398 30.4531 159.029 30.4531 159.852ZM38.3281 155.703H40.3516V156.836C41.0755 155.956 41.9375 155.516 42.9375 155.516C43.4688 155.516 43.9297 155.625 44.3203 155.844C44.7109 156.062 45.0312 156.393 45.2812 156.836C45.6458 156.393 46.0391 156.062 46.4609 155.844C46.8828 155.625 47.3333 155.516 47.8125 155.516C48.4219 155.516 48.9375 155.641 49.3594 155.891C49.7812 156.135 50.0964 156.497 50.3047 156.977C50.4557 157.331 50.5312 157.904 50.5312 158.695V164H48.3359V159.258C48.3359 158.435 48.2604 157.904 48.1094 157.664C47.9062 157.352 47.5938 157.195 47.1719 157.195C46.8646 157.195 46.5755 157.289 46.3047 157.477C46.0339 157.664 45.8385 157.94 45.7188 158.305C45.599 158.664 45.5391 159.234 45.5391 160.016V164H43.3438V159.453C43.3438 158.646 43.3047 158.125 43.2266 157.891C43.1484 157.656 43.026 157.482 42.8594 157.367C42.6979 157.253 42.4766 157.195 42.1953 157.195C41.8568 157.195 41.5521 157.286 41.2812 157.469C41.0104 157.651 40.8151 157.914 40.6953 158.258C40.5807 158.602 40.5234 159.172 40.5234 159.969V164H38.3281V155.703ZM52.6641 155.703H54.7109V156.922C54.9766 156.505 55.3359 156.167 55.7891 155.906C56.2422 155.646 56.7448 155.516 57.2969 155.516C58.2604 155.516 59.0781 155.893 59.75 156.648C60.4219 157.404 60.7578 158.456 60.7578 159.805C60.7578 161.19 60.4193 162.268 59.7422 163.039C59.0651 163.805 58.2448 164.188 57.2812 164.188C56.8229 164.188 56.4062 164.096 56.0312 163.914C55.6615 163.732 55.2708 163.419 54.8594 162.977V167.156H52.6641V155.703ZM54.8359 159.711C54.8359 160.643 55.0208 161.333 55.3906 161.781C55.7604 162.224 56.2109 162.445 56.7422 162.445C57.2526 162.445 57.6771 162.242 58.0156 161.836C58.3542 161.424 58.5234 160.753 58.5234 159.82C58.5234 158.951 58.349 158.305 58 157.883C57.651 157.461 57.2188 157.25 56.7031 157.25C56.1667 157.25 55.7214 157.458 55.3672 157.875C55.013 158.286 54.8359 158.898 54.8359 159.711ZM64.1484 158.234L62.1562 157.875C62.3802 157.073 62.7656 156.479 63.3125 156.094C63.8594 155.708 64.6719 155.516 65.75 155.516C66.7292 155.516 67.4583 155.633 67.9375 155.867C68.4167 156.096 68.7526 156.391 68.9453 156.75C69.1432 157.104 69.2422 157.758 69.2422 158.711L69.2188 161.273C69.2188 162.003 69.2526 162.542 69.3203 162.891C69.3932 163.234 69.526 163.604 69.7188 164H67.5469C67.4896 163.854 67.4193 163.638 67.3359 163.352C67.2995 163.221 67.2734 163.135 67.2578 163.094C66.8828 163.458 66.4818 163.732 66.0547 163.914C65.6276 164.096 65.1719 164.188 64.6875 164.188C63.8333 164.188 63.1589 163.956 62.6641 163.492C62.1745 163.029 61.9297 162.443 61.9297 161.734C61.9297 161.266 62.0417 160.849 62.2656 160.484C62.4896 160.115 62.8021 159.833 63.2031 159.641C63.6094 159.443 64.1927 159.271 64.9531 159.125C65.9792 158.932 66.6901 158.753 67.0859 158.586V158.367C67.0859 157.945 66.9818 157.646 66.7734 157.469C66.5651 157.286 66.1719 157.195 65.5938 157.195C65.2031 157.195 64.8984 157.273 64.6797 157.43C64.4609 157.581 64.2839 157.849 64.1484 158.234ZM67.0859 160.016C66.8047 160.109 66.3594 160.221 65.75 160.352C65.1406 160.482 64.7422 160.609 64.5547 160.734C64.2682 160.938 64.125 161.195 64.125 161.508C64.125 161.815 64.2396 162.081 64.4688 162.305C64.6979 162.529 64.9896 162.641 65.3438 162.641C65.7396 162.641 66.1172 162.51 66.4766 162.25C66.7422 162.052 66.9167 161.81 67 161.523C67.0573 161.336 67.0859 160.979 67.0859 160.453V160.016ZM78.6484 158.156L76.4844 158.547C76.4115 158.115 76.2448 157.789 75.9844 157.57C75.7292 157.352 75.3958 157.242 74.9844 157.242C74.4375 157.242 74 157.432 73.6719 157.812C73.349 158.188 73.1875 158.818 73.1875 159.703C73.1875 160.688 73.3516 161.383 73.6797 161.789C74.013 162.195 74.4583 162.398 75.0156 162.398C75.4323 162.398 75.7734 162.281 76.0391 162.047C76.3047 161.807 76.4922 161.398 76.6016 160.82L78.7578 161.188C78.5339 162.177 78.1042 162.924 77.4688 163.43C76.8333 163.935 75.9818 164.188 74.9141 164.188C73.7005 164.188 72.7318 163.805 72.0078 163.039C71.2891 162.273 70.9297 161.214 70.9297 159.859C70.9297 158.49 71.2917 157.424 72.0156 156.664C72.7396 155.898 73.7188 155.516 74.9531 155.516C75.9635 155.516 76.7656 155.734 77.3594 156.172C77.9583 156.604 78.388 157.266 78.6484 158.156ZM84.125 155.703V157.453H82.625V160.797C82.625 161.474 82.638 161.87 82.6641 161.984C82.6953 162.094 82.7604 162.185 82.8594 162.258C82.9635 162.331 83.0885 162.367 83.2344 162.367C83.4375 162.367 83.7318 162.297 84.1172 162.156L84.3047 163.859C83.7943 164.078 83.2161 164.188 82.5703 164.188C82.1745 164.188 81.8177 164.122 81.5 163.992C81.1823 163.857 80.9479 163.685 80.7969 163.477C80.651 163.263 80.5495 162.977 80.4922 162.617C80.4453 162.362 80.4219 161.846 80.4219 161.07V157.453H79.4141V155.703H80.4219V154.055L82.625 152.773V155.703H84.125ZM89.3281 161.633L91.5312 161.297C91.625 161.724 91.8151 162.049 92.1016 162.273C92.388 162.492 92.7891 162.602 93.3047 162.602C93.8724 162.602 94.2995 162.497 94.5859 162.289C94.7786 162.143 94.875 161.948 94.875 161.703C94.875 161.536 94.8229 161.398 94.7188 161.289C94.6094 161.185 94.3646 161.089 93.9844 161C92.2135 160.609 91.0911 160.253 90.6172 159.93C89.9609 159.482 89.6328 158.859 89.6328 158.062C89.6328 157.344 89.9167 156.74 90.4844 156.25C91.0521 155.76 91.9323 155.516 93.125 155.516C94.2604 155.516 95.1042 155.701 95.6562 156.07C96.2083 156.44 96.5885 156.987 96.7969 157.711L94.7266 158.094C94.638 157.771 94.4688 157.523 94.2188 157.352C93.974 157.18 93.6224 157.094 93.1641 157.094C92.5859 157.094 92.1719 157.174 91.9219 157.336C91.7552 157.451 91.6719 157.599 91.6719 157.781C91.6719 157.938 91.7448 158.07 91.8906 158.18C92.0885 158.326 92.7708 158.531 93.9375 158.797C95.1094 159.062 95.9271 159.388 96.3906 159.773C96.849 160.164 97.0781 160.708 97.0781 161.406C97.0781 162.167 96.7604 162.82 96.125 163.367C95.4896 163.914 94.5495 164.188 93.3047 164.188C92.1745 164.188 91.2786 163.958 90.6172 163.5C89.9609 163.042 89.5312 162.419 89.3281 161.633ZM98.9453 155.703H100.992V156.922C101.258 156.505 101.617 156.167 102.07 155.906C102.523 155.646 103.026 155.516 103.578 155.516C104.542 155.516 105.359 155.893 106.031 156.648C106.703 157.404 107.039 158.456 107.039 159.805C107.039 161.19 106.701 162.268 106.023 163.039C105.346 163.805 104.526 164.188 103.562 164.188C103.104 164.188 102.688 164.096 102.312 163.914C101.943 163.732 101.552 163.419 101.141 162.977V167.156H98.9453V155.703ZM101.117 159.711C101.117 160.643 101.302 161.333 101.672 161.781C102.042 162.224 102.492 162.445 103.023 162.445C103.534 162.445 103.958 162.242 104.297 161.836C104.635 161.424 104.805 160.753 104.805 159.82C104.805 158.951 104.63 158.305 104.281 157.883C103.932 157.461 103.5 157.25 102.984 157.25C102.448 157.25 102.003 157.458 101.648 157.875C101.294 158.286 101.117 158.898 101.117 159.711ZM110.43 158.234L108.438 157.875C108.661 157.073 109.047 156.479 109.594 156.094C110.141 155.708 110.953 155.516 112.031 155.516C113.01 155.516 113.74 155.633 114.219 155.867C114.698 156.096 115.034 156.391 115.227 156.75C115.424 157.104 115.523 157.758 115.523 158.711L115.5 161.273C115.5 162.003 115.534 162.542 115.602 162.891C115.674 163.234 115.807 163.604 116 164H113.828C113.771 163.854 113.701 163.638 113.617 163.352C113.581 163.221 113.555 163.135 113.539 163.094C113.164 163.458 112.763 163.732 112.336 163.914C111.909 164.096 111.453 164.188 110.969 164.188C110.115 164.188 109.44 163.956 108.945 163.492C108.456 163.029 108.211 162.443 108.211 161.734C108.211 161.266 108.323 160.849 108.547 160.484C108.771 160.115 109.083 159.833 109.484 159.641C109.891 159.443 110.474 159.271 111.234 159.125C112.26 158.932 112.971 158.753 113.367 158.586V158.367C113.367 157.945 113.263 157.646 113.055 157.469C112.846 157.286 112.453 157.195 111.875 157.195C111.484 157.195 111.18 157.273 110.961 157.43C110.742 157.581 110.565 157.849 110.43 158.234ZM113.367 160.016C113.086 160.109 112.641 160.221 112.031 160.352C111.422 160.482 111.023 160.609 110.836 160.734C110.549 160.938 110.406 161.195 110.406 161.508C110.406 161.815 110.521 162.081 110.75 162.305C110.979 162.529 111.271 162.641 111.625 162.641C112.021 162.641 112.398 162.51 112.758 162.25C113.023 162.052 113.198 161.81 113.281 161.523C113.339 161.336 113.367 160.979 113.367 160.453V160.016ZM124.93 158.156L122.766 158.547C122.693 158.115 122.526 157.789 122.266 157.57C122.01 157.352 121.677 157.242 121.266 157.242C120.719 157.242 120.281 157.432 119.953 157.812C119.63 158.188 119.469 158.818 119.469 159.703C119.469 160.688 119.633 161.383 119.961 161.789C120.294 162.195 120.74 162.398 121.297 162.398C121.714 162.398 122.055 162.281 122.32 162.047C122.586 161.807 122.773 161.398 122.883 160.82L125.039 161.188C124.815 162.177 124.385 162.924 123.75 163.43C123.115 163.935 122.263 164.188 121.195 164.188C119.982 164.188 119.013 163.805 118.289 163.039C117.57 162.273 117.211 161.214 117.211 159.859C117.211 158.49 117.573 157.424 118.297 156.664C119.021 155.898 120 155.516 121.234 155.516C122.245 155.516 123.047 155.734 123.641 156.172C124.24 156.604 124.669 157.266 124.93 158.156ZM126.602 154.578V152.547H128.797V154.578H126.602ZM126.602 164V155.703H128.797V164H126.602ZM138.602 164H136.406V159.766C136.406 158.87 136.359 158.292 136.266 158.031C136.172 157.766 136.018 157.56 135.805 157.414C135.596 157.268 135.344 157.195 135.047 157.195C134.667 157.195 134.326 157.299 134.023 157.508C133.721 157.716 133.513 157.992 133.398 158.336C133.289 158.68 133.234 159.315 133.234 160.242V164H131.039V155.703H133.078V156.922C133.802 155.984 134.714 155.516 135.812 155.516C136.297 155.516 136.74 155.604 137.141 155.781C137.542 155.953 137.844 156.174 138.047 156.445C138.255 156.716 138.398 157.023 138.477 157.367C138.56 157.711 138.602 158.203 138.602 158.844V164ZM140.633 164.547L143.141 164.852C143.182 165.143 143.279 165.344 143.43 165.453C143.638 165.609 143.966 165.688 144.414 165.688C144.987 165.688 145.417 165.602 145.703 165.43C145.896 165.315 146.042 165.13 146.141 164.875C146.208 164.693 146.242 164.357 146.242 163.867V162.656C145.586 163.552 144.758 164 143.758 164C142.643 164 141.76 163.529 141.109 162.586C140.599 161.841 140.344 160.914 140.344 159.805C140.344 158.414 140.677 157.352 141.344 156.617C142.016 155.883 142.849 155.516 143.844 155.516C144.87 155.516 145.716 155.966 146.383 156.867V155.703H148.438V163.148C148.438 164.128 148.357 164.859 148.195 165.344C148.034 165.828 147.807 166.208 147.516 166.484C147.224 166.76 146.833 166.977 146.344 167.133C145.859 167.289 145.245 167.367 144.5 167.367C143.094 167.367 142.096 167.125 141.508 166.641C140.919 166.161 140.625 165.552 140.625 164.812C140.625 164.74 140.628 164.651 140.633 164.547ZM142.594 159.68C142.594 160.56 142.763 161.206 143.102 161.617C143.445 162.023 143.867 162.227 144.367 162.227C144.904 162.227 145.357 162.018 145.727 161.602C146.096 161.18 146.281 160.557 146.281 159.734C146.281 158.875 146.104 158.237 145.75 157.82C145.396 157.404 144.948 157.195 144.406 157.195C143.88 157.195 143.445 157.401 143.102 157.812C142.763 158.219 142.594 158.841 142.594 159.68Z" fill="#3E3E3D"/>
<g opacity="0.5">
<path d="M0 254.5H579.5" stroke="#CDCCCB"/>
</g>
<rect width="579.5" height="61" transform="translate(579.5)" fill="white"/>
<path d="M601.62 37.14C601.287 37.14 601.027 37.0467 600.84 36.86C600.667 36.6733 600.58 36.4133 600.58 36.08V24.64H596.34C596.06 24.64 595.84 24.5667 595.68 24.42C595.52 24.26 595.44 24.04 595.44 23.76C595.44 23.48 595.52 23.2667 595.68 23.12C595.84 22.9733 596.06 22.9 596.34 22.9H606.88C607.173 22.9 607.4 22.9733 607.56 23.12C607.72 23.2667 607.8 23.48 607.8 23.76C607.8 24.04 607.72 24.26 607.56 24.42C607.4 24.5667 607.173 24.64 606.88 24.64H602.64V36.08C602.64 36.4133 602.553 36.6733 602.38 36.86C602.22 37.0467 601.967 37.14 601.62 37.14ZM610.224 37.18C609.544 37.18 608.93 37.0467 608.384 36.78C607.85 36.5133 607.43 36.1533 607.124 35.7C606.817 35.2467 606.664 34.7333 606.664 34.16C606.664 33.44 606.844 32.8733 607.204 32.46C607.577 32.0333 608.184 31.7333 609.024 31.56C609.877 31.3733 611.024 31.28 612.464 31.28H613.404V32.52H612.484C611.524 32.52 610.764 32.5667 610.204 32.66C609.644 32.7533 609.244 32.9133 609.004 33.14C608.777 33.3533 608.664 33.6533 608.664 34.04C608.664 34.5467 608.837 34.96 609.184 35.28C609.53 35.5867 610.01 35.74 610.624 35.74C611.117 35.74 611.55 35.6267 611.924 35.4C612.297 35.16 612.59 34.84 612.804 34.44C613.03 34.04 613.144 33.58 613.144 33.06V30.76C613.144 30 612.984 29.4533 612.664 29.12C612.344 28.7867 611.817 28.62 611.084 28.62C610.657 28.62 610.21 28.6733 609.744 28.78C609.29 28.8867 608.817 29.0667 608.324 29.32C608.097 29.4267 607.904 29.46 607.744 29.42C607.584 29.38 607.457 29.2933 607.364 29.16C607.27 29.0133 607.217 28.86 607.204 28.7C607.204 28.5267 607.244 28.36 607.324 28.2C607.417 28.04 607.57 27.92 607.784 27.84C608.37 27.56 608.95 27.36 609.524 27.24C610.097 27.12 610.637 27.06 611.144 27.06C612.037 27.06 612.77 27.2 613.344 27.48C613.93 27.76 614.364 28.1867 614.644 28.76C614.924 29.3333 615.064 30.0733 615.064 30.98V36.12C615.064 36.44 614.984 36.6933 614.824 36.88C614.664 37.0533 614.43 37.14 614.124 37.14C613.83 37.14 613.597 37.0533 613.424 36.88C613.25 36.6933 613.164 36.44 613.164 36.12V34.82H613.344C613.237 35.3133 613.037 35.74 612.744 36.1C612.464 36.4467 612.11 36.7133 611.684 36.9C611.257 37.0867 610.77 37.18 610.224 37.18ZM618.346 37.12C618.026 37.12 617.779 37.0267 617.606 36.84C617.432 36.64 617.346 36.3667 617.346 36.02V28.22C617.346 27.8733 617.432 27.6067 617.606 27.42C617.779 27.2333 618.026 27.14 618.346 27.14C618.666 27.14 618.912 27.2333 619.086 27.42C619.272 27.6067 619.366 27.8733 619.366 28.22V36.02C619.366 36.3667 619.279 36.64 619.106 36.84C618.932 37.0267 618.679 37.12 618.346 37.12ZM618.346 25.06C617.946 25.06 617.632 24.96 617.406 24.76C617.192 24.56 617.086 24.28 617.086 23.92C617.086 23.5467 617.192 23.2667 617.406 23.08C617.632 22.88 617.946 22.78 618.346 22.78C618.746 22.78 619.052 22.88 619.266 23.08C619.492 23.2667 619.606 23.5467 619.606 23.92C619.606 24.28 619.492 24.56 619.266 24.76C619.052 24.96 618.746 25.06 618.346 25.06ZM624.849 37.18C623.809 37.18 623.022 36.88 622.489 36.28C621.969 35.6667 621.709 34.7867 621.709 33.64V23.78C621.709 23.4467 621.796 23.1933 621.969 23.02C622.142 22.8467 622.389 22.76 622.709 22.76C623.029 22.76 623.276 22.8467 623.449 23.02C623.636 23.1933 623.729 23.4467 623.729 23.78V33.52C623.729 34.1867 623.862 34.6867 624.129 35.02C624.409 35.34 624.809 35.5 625.329 35.5C625.449 35.5 625.556 35.5 625.649 35.5C625.742 35.4867 625.836 35.4733 625.929 35.46C626.089 35.4467 626.202 35.4933 626.269 35.6C626.336 35.6933 626.369 35.8933 626.369 36.2C626.369 36.48 626.309 36.7 626.189 36.86C626.069 37.0067 625.876 37.1 625.609 37.14C625.489 37.1533 625.362 37.16 625.229 37.16C625.096 37.1733 624.969 37.18 624.849 37.18ZM630.462 37.18C629.422 37.18 628.636 36.88 628.102 36.28C627.582 35.6667 627.322 34.7867 627.322 33.64V23.78C627.322 23.4467 627.409 23.1933 627.582 23.02C627.756 22.8467 628.002 22.76 628.322 22.76C628.642 22.76 628.889 22.8467 629.062 23.02C629.249 23.1933 629.342 23.4467 629.342 23.78V33.52C629.342 34.1867 629.476 34.6867 629.742 35.02C630.022 35.34 630.422 35.5 630.942 35.5C631.062 35.5 631.169 35.5 631.262 35.5C631.356 35.4867 631.449 35.4733 631.542 35.46C631.702 35.4467 631.816 35.4933 631.882 35.6C631.949 35.6933 631.982 35.8933 631.982 36.2C631.982 36.48 631.922 36.7 631.802 36.86C631.682 37.0067 631.489 37.1 631.222 37.14C631.102 37.1533 630.976 37.16 630.842 37.16C630.709 37.1733 630.582 37.18 630.462 37.18ZM637.418 37.18C636.351 37.18 635.431 36.98 634.658 36.58C633.898 36.1667 633.305 35.5867 632.878 34.84C632.465 34.08 632.258 33.18 632.258 32.14C632.258 31.1267 632.465 30.24 632.878 29.48C633.291 28.72 633.858 28.1267 634.578 27.7C635.298 27.2733 636.118 27.06 637.038 27.06C637.718 27.06 638.325 27.1733 638.858 27.4C639.391 27.6133 639.845 27.9333 640.218 28.36C640.605 28.7733 640.891 29.28 641.078 29.88C641.278 30.48 641.378 31.1533 641.378 31.9C641.378 32.1267 641.311 32.3 641.178 32.42C641.045 32.5267 640.845 32.58 640.578 32.58H633.858V31.34H640.018L639.678 31.62C639.678 30.9533 639.578 30.3867 639.378 29.92C639.191 29.4533 638.905 29.1 638.518 28.86C638.145 28.6067 637.678 28.48 637.118 28.48C636.491 28.48 635.958 28.6267 635.518 28.92C635.091 29.2133 634.765 29.62 634.538 30.14C634.311 30.66 634.198 31.2667 634.198 31.96V32.08C634.198 33.2533 634.471 34.14 635.018 34.74C635.578 35.3267 636.385 35.62 637.438 35.62C637.838 35.62 638.258 35.5667 638.698 35.46C639.151 35.3533 639.578 35.1733 639.978 34.92C640.205 34.7867 640.405 34.7267 640.578 34.74C640.765 34.7533 640.911 34.8133 641.018 34.92C641.138 35.0267 641.211 35.16 641.238 35.32C641.265 35.48 641.238 35.6467 641.158 35.82C641.078 35.98 640.938 36.1267 640.738 36.26C640.285 36.5667 639.758 36.8 639.158 36.96C638.558 37.1067 637.978 37.18 637.418 37.18Z" fill="#201F1F"/>
<path d="M579.5 60.5H1159" stroke="#CDCCCB"/>
<rect width="579.5" height="73" transform="translate(579.5 61)" fill="white"/>
<path d="M596.172 87.9766L597.578 87.7891C597.74 88.5859 598.013 89.1615 598.398 89.5156C598.789 89.8646 599.263 90.0391 599.82 90.0391C600.482 90.0391 601.039 89.8099 601.492 89.3516C601.951 88.8932 602.18 88.3255 602.18 87.6484C602.18 87.0026 601.969 86.4714 601.547 86.0547C601.125 85.6328 600.589 85.4219 599.938 85.4219C599.672 85.4219 599.341 85.474 598.945 85.5781L599.102 84.3438C599.195 84.3542 599.271 84.3594 599.328 84.3594C599.927 84.3594 600.466 84.2031 600.945 83.8906C601.424 83.5781 601.664 83.0964 601.664 82.4453C601.664 81.9297 601.49 81.5026 601.141 81.1641C600.792 80.8255 600.341 80.6562 599.789 80.6562C599.242 80.6562 598.786 80.8281 598.422 81.1719C598.057 81.5156 597.823 82.0312 597.719 82.7188L596.312 82.4688C596.484 81.526 596.875 80.7969 597.484 80.2812C598.094 79.7604 598.852 79.5 599.758 79.5C600.383 79.5 600.958 79.6354 601.484 79.9062C602.01 80.1719 602.411 80.5365 602.688 81C602.969 81.4635 603.109 81.9557 603.109 82.4766C603.109 82.9714 602.977 83.4219 602.711 83.8281C602.445 84.2344 602.052 84.5573 601.531 84.7969C602.208 84.9531 602.734 85.2786 603.109 85.7734C603.484 86.263 603.672 86.8776 603.672 87.6172C603.672 88.6172 603.307 89.4661 602.578 90.1641C601.849 90.8568 600.927 91.2031 599.812 91.2031C598.807 91.2031 597.971 90.9036 597.305 90.3047C596.643 89.7057 596.266 88.9297 596.172 87.9766ZM612.461 89.6484V91H604.891C604.88 90.6615 604.935 90.3359 605.055 90.0234C605.247 89.5078 605.555 89 605.977 88.5C606.404 88 607.018 87.4219 607.82 86.7656C609.065 85.7448 609.906 84.9375 610.344 84.3438C610.781 83.7448 611 83.1797 611 82.6484C611 82.0911 610.799 81.6224 610.398 81.2422C610.003 80.8568 609.484 80.6641 608.844 80.6641C608.167 80.6641 607.625 80.8672 607.219 81.2734C606.812 81.6797 606.607 82.2422 606.602 82.9609L605.156 82.8125C605.255 81.7344 605.628 80.9141 606.273 80.3516C606.919 79.7839 607.786 79.5 608.875 79.5C609.974 79.5 610.844 79.8047 611.484 80.4141C612.125 81.0234 612.445 81.7786 612.445 82.6797C612.445 83.138 612.352 83.5885 612.164 84.0312C611.977 84.474 611.664 84.9401 611.227 85.4297C610.794 85.9193 610.073 86.5911 609.062 87.4453C608.219 88.1536 607.677 88.6354 607.438 88.8906C607.198 89.1406 607 89.3932 606.844 89.6484H612.461ZM618.82 94.1797V82.7031H620.102V83.7812C620.404 83.3594 620.745 83.0443 621.125 82.8359C621.505 82.6224 621.966 82.5156 622.508 82.5156C623.216 82.5156 623.841 82.6979 624.383 83.0625C624.924 83.4271 625.333 83.9427 625.609 84.6094C625.885 85.2708 626.023 85.9974 626.023 86.7891C626.023 87.638 625.87 88.4036 625.562 89.0859C625.26 89.763 624.818 90.2839 624.234 90.6484C623.656 91.0078 623.047 91.1875 622.406 91.1875C621.938 91.1875 621.516 91.0885 621.141 90.8906C620.771 90.6927 620.466 90.4427 620.227 90.1406V94.1797H618.82ZM620.094 86.8984C620.094 87.9661 620.31 88.7552 620.742 89.2656C621.174 89.776 621.698 90.0312 622.312 90.0312C622.938 90.0312 623.471 89.7682 623.914 89.2422C624.362 88.7109 624.586 87.8906 624.586 86.7812C624.586 85.724 624.367 84.9323 623.93 84.4062C623.497 83.8802 622.979 83.6172 622.375 83.6172C621.776 83.6172 621.245 83.8984 620.781 84.4609C620.323 85.0182 620.094 85.8307 620.094 86.8984ZM627.734 81.1641V79.5469H629.141V81.1641H627.734ZM627.734 91V82.7031H629.141V91H627.734ZM630.352 91L633.383 86.6875L630.578 82.7031H632.336L633.609 84.6484C633.849 85.0182 634.042 85.3281 634.188 85.5781C634.417 85.2344 634.628 84.9297 634.82 84.6641L636.219 82.7031H637.898L635.031 86.6094L638.117 91H636.391L634.688 88.4219L634.234 87.7266L632.055 91H630.352ZM644.969 88.3281L646.422 88.5078C646.193 89.3568 645.768 90.0156 645.148 90.4844C644.529 90.9531 643.737 91.1875 642.773 91.1875C641.56 91.1875 640.596 90.8151 639.883 90.0703C639.174 89.3203 638.82 88.2708 638.82 86.9219C638.82 85.526 639.18 84.4427 639.898 83.6719C640.617 82.901 641.549 82.5156 642.695 82.5156C643.805 82.5156 644.711 82.8932 645.414 83.6484C646.117 84.4036 646.469 85.4661 646.469 86.8359C646.469 86.9193 646.466 87.0443 646.461 87.2109H640.273C640.326 88.1224 640.583 88.8203 641.047 89.3047C641.51 89.7891 642.089 90.0312 642.781 90.0312C643.297 90.0312 643.737 89.8958 644.102 89.625C644.466 89.3542 644.755 88.9219 644.969 88.3281ZM640.352 86.0547H644.984C644.922 85.3568 644.745 84.8333 644.453 84.4844C644.005 83.9427 643.424 83.6719 642.711 83.6719C642.065 83.6719 641.521 83.888 641.078 84.3203C640.641 84.7526 640.398 85.3307 640.352 86.0547ZM648.164 91V79.5469H649.57V91H648.164ZM651.195 88.5234L652.586 88.3047C652.664 88.862 652.88 89.2891 653.234 89.5859C653.594 89.8828 654.094 90.0312 654.734 90.0312C655.38 90.0312 655.859 89.901 656.172 89.6406C656.484 89.375 656.641 89.0651 656.641 88.7109C656.641 88.3932 656.503 88.1432 656.227 87.9609C656.034 87.8359 655.555 87.6771 654.789 87.4844C653.758 87.224 653.042 87 652.641 86.8125C652.245 86.6198 651.943 86.3568 651.734 86.0234C651.531 85.6849 651.43 85.3125 651.43 84.9062C651.43 84.5365 651.513 84.1953 651.68 83.8828C651.852 83.5651 652.083 83.3021 652.375 83.0938C652.594 82.9323 652.891 82.7969 653.266 82.6875C653.646 82.5729 654.052 82.5156 654.484 82.5156C655.135 82.5156 655.706 82.6094 656.195 82.7969C656.69 82.9844 657.055 83.2396 657.289 83.5625C657.523 83.8802 657.685 84.3073 657.773 84.8438L656.398 85.0312C656.336 84.6042 656.154 84.2708 655.852 84.0312C655.555 83.7917 655.133 83.6719 654.586 83.6719C653.94 83.6719 653.479 83.7786 653.203 83.9922C652.927 84.2057 652.789 84.4557 652.789 84.7422C652.789 84.9245 652.846 85.0885 652.961 85.2344C653.076 85.3854 653.255 85.5104 653.5 85.6094C653.641 85.6615 654.055 85.7812 654.742 85.9688C655.737 86.2344 656.43 86.4531 656.82 86.625C657.216 86.7917 657.526 87.0365 657.75 87.3594C657.974 87.6823 658.086 88.0833 658.086 88.5625C658.086 89.0312 657.948 89.474 657.672 89.8906C657.401 90.3021 657.008 90.6224 656.492 90.8516C655.977 91.0755 655.393 91.1875 654.742 91.1875C653.664 91.1875 652.841 90.9635 652.273 90.5156C651.711 90.0677 651.352 89.4036 651.195 88.5234ZM669.594 91V89.9531C669.068 90.776 668.294 91.1875 667.273 91.1875C666.612 91.1875 666.003 91.0052 665.445 90.6406C664.893 90.276 664.464 89.7682 664.156 89.1172C663.854 88.4609 663.703 87.7083 663.703 86.8594C663.703 86.0312 663.841 85.2812 664.117 84.6094C664.393 83.9323 664.807 83.4141 665.359 83.0547C665.911 82.6953 666.529 82.5156 667.211 82.5156C667.711 82.5156 668.156 82.6224 668.547 82.8359C668.938 83.0443 669.255 83.3177 669.5 83.6562V79.5469H670.898V91H669.594ZM665.148 86.8594C665.148 87.9219 665.372 88.7161 665.82 89.2422C666.268 89.7682 666.797 90.0312 667.406 90.0312C668.021 90.0312 668.542 89.7812 668.969 89.2812C669.401 88.776 669.617 88.0078 669.617 86.9766C669.617 85.8411 669.398 85.0078 668.961 84.4766C668.523 83.9453 667.984 83.6797 667.344 83.6797C666.719 83.6797 666.195 83.9349 665.773 84.4453C665.357 84.9557 665.148 85.7604 665.148 86.8594ZM678.797 88.3281L680.25 88.5078C680.021 89.3568 679.596 90.0156 678.977 90.4844C678.357 90.9531 677.565 91.1875 676.602 91.1875C675.388 91.1875 674.424 90.8151 673.711 90.0703C673.003 89.3203 672.648 88.2708 672.648 86.9219C672.648 85.526 673.008 84.4427 673.727 83.6719C674.445 82.901 675.378 82.5156 676.523 82.5156C677.633 82.5156 678.539 82.8932 679.242 83.6484C679.945 84.4036 680.297 85.4661 680.297 86.8359C680.297 86.9193 680.294 87.0443 680.289 87.2109H674.102C674.154 88.1224 674.411 88.8203 674.875 89.3047C675.339 89.7891 675.917 90.0312 676.609 90.0312C677.125 90.0312 677.565 89.8958 677.93 89.625C678.294 89.3542 678.583 88.9219 678.797 88.3281ZM674.18 86.0547H678.812C678.75 85.3568 678.573 84.8333 678.281 84.4844C677.833 83.9427 677.253 83.6719 676.539 83.6719C675.893 83.6719 675.349 83.888 674.906 84.3203C674.469 84.7526 674.227 85.3307 674.18 86.0547ZM686.477 91V79.5469H687.883V83.6562C688.539 82.8958 689.367 82.5156 690.367 82.5156C690.982 82.5156 691.516 82.638 691.969 82.8828C692.422 83.1224 692.745 83.4557 692.938 83.8828C693.135 84.3099 693.234 84.9297 693.234 85.7422V91H691.828V85.7422C691.828 85.0391 691.674 84.5286 691.367 84.2109C691.065 83.888 690.635 83.7266 690.078 83.7266C689.661 83.7266 689.268 83.8359 688.898 84.0547C688.534 84.2682 688.273 84.5599 688.117 84.9297C687.961 85.2995 687.883 85.8099 687.883 86.4609V91H686.477ZM700.797 89.9766C700.276 90.4193 699.773 90.7318 699.289 90.9141C698.81 91.0964 698.294 91.1875 697.742 91.1875C696.831 91.1875 696.13 90.9661 695.641 90.5234C695.151 90.0755 694.906 89.5052 694.906 88.8125C694.906 88.4062 694.997 88.0365 695.18 87.7031C695.367 87.3646 695.609 87.0938 695.906 86.8906C696.208 86.6875 696.547 86.5339 696.922 86.4297C697.198 86.3568 697.615 86.2865 698.172 86.2188C699.307 86.0833 700.143 85.9219 700.68 85.7344C700.685 85.5417 700.688 85.4193 700.688 85.3672C700.688 84.7943 700.555 84.3906 700.289 84.1562C699.93 83.8385 699.396 83.6797 698.688 83.6797C698.026 83.6797 697.536 83.7969 697.219 84.0312C696.906 84.2604 696.674 84.6693 696.523 85.2578L695.148 85.0703C695.273 84.4818 695.479 84.0078 695.766 83.6484C696.052 83.2839 696.466 83.0052 697.008 82.8125C697.549 82.6146 698.177 82.5156 698.891 82.5156C699.599 82.5156 700.174 82.599 700.617 82.7656C701.06 82.9323 701.385 83.1432 701.594 83.3984C701.802 83.6484 701.948 83.9661 702.031 84.3516C702.078 84.5911 702.102 85.0234 702.102 85.6484V87.5234C702.102 88.8307 702.13 89.6589 702.188 90.0078C702.25 90.3516 702.37 90.6823 702.547 91H701.078C700.932 90.7083 700.839 90.3672 700.797 89.9766ZM700.68 86.8359C700.169 87.0443 699.404 87.2214 698.383 87.3672C697.805 87.4505 697.396 87.5443 697.156 87.6484C696.917 87.7526 696.732 87.9062 696.602 88.1094C696.471 88.3073 696.406 88.5286 696.406 88.7734C696.406 89.1484 696.547 89.4609 696.828 89.7109C697.115 89.9609 697.531 90.0859 698.078 90.0859C698.62 90.0859 699.102 89.9688 699.523 89.7344C699.945 89.4948 700.255 89.1693 700.453 88.7578C700.604 88.4401 700.68 87.9714 700.68 87.3516V86.8359ZM709.727 91V89.7812C709.081 90.7188 708.203 91.1875 707.094 91.1875C706.604 91.1875 706.146 91.0938 705.719 90.9062C705.297 90.7188 704.982 90.4844 704.773 90.2031C704.57 89.9167 704.427 89.5677 704.344 89.1562C704.286 88.8802 704.258 88.4427 704.258 87.8438V82.7031H705.664V87.3047C705.664 88.0391 705.693 88.5339 705.75 88.7891C705.839 89.1589 706.026 89.4505 706.312 89.6641C706.599 89.8724 706.953 89.9766 707.375 89.9766C707.797 89.9766 708.193 89.8698 708.562 89.6562C708.932 89.4375 709.193 89.1432 709.344 88.7734C709.5 88.3984 709.578 87.8568 709.578 87.1484V82.7031H710.984V91H709.727ZM716.266 89.7422L716.469 90.9844C716.073 91.0677 715.719 91.1094 715.406 91.1094C714.896 91.1094 714.5 91.0286 714.219 90.8672C713.938 90.7057 713.74 90.4948 713.625 90.2344C713.51 89.9688 713.453 89.4141 713.453 88.5703V83.7969H712.422V82.7031H713.453V80.6484L714.852 79.8047V82.7031H716.266V83.7969H714.852V88.6484C714.852 89.0495 714.875 89.3073 714.922 89.4219C714.974 89.5365 715.055 89.6276 715.164 89.6953C715.279 89.763 715.44 89.7969 715.648 89.7969C715.805 89.7969 716.01 89.7786 716.266 89.7422Z" fill="#3E3E3D"/>
<g opacity="0.5">
<path d="M579.5 133.5H1159" stroke="#CDCCCB"/>
</g>
<rect width="579.5" height="121" transform="translate(579.5 134)" fill="white"/>
<path d="M603.555 162.648V164H595.984C595.974 163.661 596.029 163.336 596.148 163.023C596.341 162.508 596.648 162 597.07 161.5C597.497 161 598.112 160.422 598.914 159.766C600.159 158.745 601 157.938 601.438 157.344C601.875 156.745 602.094 156.18 602.094 155.648C602.094 155.091 601.893 154.622 601.492 154.242C601.096 153.857 600.578 153.664 599.938 153.664C599.26 153.664 598.719 153.867 598.312 154.273C597.906 154.68 597.701 155.242 597.695 155.961L596.25 155.812C596.349 154.734 596.721 153.914 597.367 153.352C598.013 152.784 598.88 152.5 599.969 152.5C601.068 152.5 601.938 152.805 602.578 153.414C603.219 154.023 603.539 154.779 603.539 155.68C603.539 156.138 603.445 156.589 603.258 157.031C603.07 157.474 602.758 157.94 602.32 158.43C601.888 158.919 601.167 159.591 600.156 160.445C599.312 161.154 598.771 161.635 598.531 161.891C598.292 162.141 598.094 162.393 597.938 162.648H603.555ZM609.578 164V161.258H604.609V159.969L609.836 152.547H610.984V159.969H612.531V161.258H610.984V164H609.578ZM609.578 159.969V154.805L605.992 159.969H609.578ZM618.82 167.18V155.703H620.102V156.781C620.404 156.359 620.745 156.044 621.125 155.836C621.505 155.622 621.966 155.516 622.508 155.516C623.216 155.516 623.841 155.698 624.383 156.062C624.924 156.427 625.333 156.943 625.609 157.609C625.885 158.271 626.023 158.997 626.023 159.789C626.023 160.638 625.87 161.404 625.562 162.086C625.26 162.763 624.818 163.284 624.234 163.648C623.656 164.008 623.047 164.188 622.406 164.188C621.938 164.188 621.516 164.089 621.141 163.891C620.771 163.693 620.466 163.443 620.227 163.141V167.18H618.82ZM620.094 159.898C620.094 160.966 620.31 161.755 620.742 162.266C621.174 162.776 621.698 163.031 622.312 163.031C622.938 163.031 623.471 162.768 623.914 162.242C624.362 161.711 624.586 160.891 624.586 159.781C624.586 158.724 624.367 157.932 623.93 157.406C623.497 156.88 622.979 156.617 622.375 156.617C621.776 156.617 621.245 156.898 620.781 157.461C620.323 158.018 620.094 158.831 620.094 159.898ZM627.734 154.164V152.547H629.141V154.164H627.734ZM627.734 164V155.703H629.141V164H627.734ZM630.352 164L633.383 159.688L630.578 155.703H632.336L633.609 157.648C633.849 158.018 634.042 158.328 634.188 158.578C634.417 158.234 634.628 157.93 634.82 157.664L636.219 155.703H637.898L635.031 159.609L638.117 164H636.391L634.688 161.422L634.234 160.727L632.055 164H630.352ZM644.969 161.328L646.422 161.508C646.193 162.357 645.768 163.016 645.148 163.484C644.529 163.953 643.737 164.188 642.773 164.188C641.56 164.188 640.596 163.815 639.883 163.07C639.174 162.32 638.82 161.271 638.82 159.922C638.82 158.526 639.18 157.443 639.898 156.672C640.617 155.901 641.549 155.516 642.695 155.516C643.805 155.516 644.711 155.893 645.414 156.648C646.117 157.404 646.469 158.466 646.469 159.836C646.469 159.919 646.466 160.044 646.461 160.211H640.273C640.326 161.122 640.583 161.82 641.047 162.305C641.51 162.789 642.089 163.031 642.781 163.031C643.297 163.031 643.737 162.896 644.102 162.625C644.466 162.354 644.755 161.922 644.969 161.328ZM640.352 159.055H644.984C644.922 158.357 644.745 157.833 644.453 157.484C644.005 156.943 643.424 156.672 642.711 156.672C642.065 156.672 641.521 156.888 641.078 157.32C640.641 157.753 640.398 158.331 640.352 159.055ZM648.164 164V152.547H649.57V164H648.164ZM651.195 161.523L652.586 161.305C652.664 161.862 652.88 162.289 653.234 162.586C653.594 162.883 654.094 163.031 654.734 163.031C655.38 163.031 655.859 162.901 656.172 162.641C656.484 162.375 656.641 162.065 656.641 161.711C656.641 161.393 656.503 161.143 656.227 160.961C656.034 160.836 655.555 160.677 654.789 160.484C653.758 160.224 653.042 160 652.641 159.812C652.245 159.62 651.943 159.357 651.734 159.023C651.531 158.685 651.43 158.312 651.43 157.906C651.43 157.536 651.513 157.195 651.68 156.883C651.852 156.565 652.083 156.302 652.375 156.094C652.594 155.932 652.891 155.797 653.266 155.688C653.646 155.573 654.052 155.516 654.484 155.516C655.135 155.516 655.706 155.609 656.195 155.797C656.69 155.984 657.055 156.24 657.289 156.562C657.523 156.88 657.685 157.307 657.773 157.844L656.398 158.031C656.336 157.604 656.154 157.271 655.852 157.031C655.555 156.792 655.133 156.672 654.586 156.672C653.94 156.672 653.479 156.779 653.203 156.992C652.927 157.206 652.789 157.456 652.789 157.742C652.789 157.924 652.846 158.089 652.961 158.234C653.076 158.385 653.255 158.51 653.5 158.609C653.641 158.661 654.055 158.781 654.742 158.969C655.737 159.234 656.43 159.453 656.82 159.625C657.216 159.792 657.526 160.036 657.75 160.359C657.974 160.682 658.086 161.083 658.086 161.562C658.086 162.031 657.948 162.474 657.672 162.891C657.401 163.302 657.008 163.622 656.492 163.852C655.977 164.076 655.393 164.188 654.742 164.188C653.664 164.188 652.841 163.964 652.273 163.516C651.711 163.068 651.352 162.404 651.195 161.523ZM669.594 164V162.953C669.068 163.776 668.294 164.188 667.273 164.188C666.612 164.188 666.003 164.005 665.445 163.641C664.893 163.276 664.464 162.768 664.156 162.117C663.854 161.461 663.703 160.708 663.703 159.859C663.703 159.031 663.841 158.281 664.117 157.609C664.393 156.932 664.807 156.414 665.359 156.055C665.911 155.695 666.529 155.516 667.211 155.516C667.711 155.516 668.156 155.622 668.547 155.836C668.938 156.044 669.255 156.318 669.5 156.656V152.547H670.898V164H669.594ZM665.148 159.859C665.148 160.922 665.372 161.716 665.82 162.242C666.268 162.768 666.797 163.031 667.406 163.031C668.021 163.031 668.542 162.781 668.969 162.281C669.401 161.776 669.617 161.008 669.617 159.977C669.617 158.841 669.398 158.008 668.961 157.477C668.523 156.945 667.984 156.68 667.344 156.68C666.719 156.68 666.195 156.935 665.773 157.445C665.357 157.956 665.148 158.76 665.148 159.859ZM678.797 161.328L680.25 161.508C680.021 162.357 679.596 163.016 678.977 163.484C678.357 163.953 677.565 164.188 676.602 164.188C675.388 164.188 674.424 163.815 673.711 163.07C673.003 162.32 672.648 161.271 672.648 159.922C672.648 158.526 673.008 157.443 673.727 156.672C674.445 155.901 675.378 155.516 676.523 155.516C677.633 155.516 678.539 155.893 679.242 156.648C679.945 157.404 680.297 158.466 680.297 159.836C680.297 159.919 680.294 160.044 680.289 160.211H674.102C674.154 161.122 674.411 161.82 674.875 162.305C675.339 162.789 675.917 163.031 676.609 163.031C677.125 163.031 677.565 162.896 677.93 162.625C678.294 162.354 678.583 161.922 678.797 161.328ZM674.18 159.055H678.812C678.75 158.357 678.573 157.833 678.281 157.484C677.833 156.943 677.253 156.672 676.539 156.672C675.893 156.672 675.349 156.888 674.906 157.32C674.469 157.753 674.227 158.331 674.18 159.055ZM686.477 164V152.547H687.883V156.656C688.539 155.896 689.367 155.516 690.367 155.516C690.982 155.516 691.516 155.638 691.969 155.883C692.422 156.122 692.745 156.456 692.938 156.883C693.135 157.31 693.234 157.93 693.234 158.742V164H691.828V158.742C691.828 158.039 691.674 157.529 691.367 157.211C691.065 156.888 690.635 156.727 690.078 156.727C689.661 156.727 689.268 156.836 688.898 157.055C688.534 157.268 688.273 157.56 688.117 157.93C687.961 158.299 687.883 158.81 687.883 159.461V164H686.477ZM700.797 162.977C700.276 163.419 699.773 163.732 699.289 163.914C698.81 164.096 698.294 164.188 697.742 164.188C696.831 164.188 696.13 163.966 695.641 163.523C695.151 163.076 694.906 162.505 694.906 161.812C694.906 161.406 694.997 161.036 695.18 160.703C695.367 160.365 695.609 160.094 695.906 159.891C696.208 159.688 696.547 159.534 696.922 159.43C697.198 159.357 697.615 159.286 698.172 159.219C699.307 159.083 700.143 158.922 700.68 158.734C700.685 158.542 700.688 158.419 700.688 158.367C700.688 157.794 700.555 157.391 700.289 157.156C699.93 156.839 699.396 156.68 698.688 156.68C698.026 156.68 697.536 156.797 697.219 157.031C696.906 157.26 696.674 157.669 696.523 158.258L695.148 158.07C695.273 157.482 695.479 157.008 695.766 156.648C696.052 156.284 696.466 156.005 697.008 155.812C697.549 155.615 698.177 155.516 698.891 155.516C699.599 155.516 700.174 155.599 700.617 155.766C701.06 155.932 701.385 156.143 701.594 156.398C701.802 156.648 701.948 156.966 702.031 157.352C702.078 157.591 702.102 158.023 702.102 158.648V160.523C702.102 161.831 702.13 162.659 702.188 163.008C702.25 163.352 702.37 163.682 702.547 164H701.078C700.932 163.708 700.839 163.367 700.797 162.977ZM700.68 159.836C700.169 160.044 699.404 160.221 698.383 160.367C697.805 160.451 697.396 160.544 697.156 160.648C696.917 160.753 696.732 160.906 696.602 161.109C696.471 161.307 696.406 161.529 696.406 161.773C696.406 162.148 696.547 162.461 696.828 162.711C697.115 162.961 697.531 163.086 698.078 163.086C698.62 163.086 699.102 162.969 699.523 162.734C699.945 162.495 700.255 162.169 700.453 161.758C700.604 161.44 700.68 160.971 700.68 160.352V159.836ZM709.727 164V162.781C709.081 163.719 708.203 164.188 707.094 164.188C706.604 164.188 706.146 164.094 705.719 163.906C705.297 163.719 704.982 163.484 704.773 163.203C704.57 162.917 704.427 162.568 704.344 162.156C704.286 161.88 704.258 161.443 704.258 160.844V155.703H705.664V160.305C705.664 161.039 705.693 161.534 705.75 161.789C705.839 162.159 706.026 162.451 706.312 162.664C706.599 162.872 706.953 162.977 707.375 162.977C707.797 162.977 708.193 162.87 708.562 162.656C708.932 162.438 709.193 162.143 709.344 161.773C709.5 161.398 709.578 160.857 709.578 160.148V155.703H710.984V164H709.727ZM716.266 162.742L716.469 163.984C716.073 164.068 715.719 164.109 715.406 164.109C714.896 164.109 714.5 164.029 714.219 163.867C713.938 163.706 713.74 163.495 713.625 163.234C713.51 162.969 713.453 162.414 713.453 161.57V156.797H712.422V155.703H713.453V153.648L714.852 152.805V155.703H716.266V156.797H714.852V161.648C714.852 162.049 714.875 162.307 714.922 162.422C714.974 162.536 715.055 162.628 715.164 162.695C715.279 162.763 715.44 162.797 715.648 162.797C715.805 162.797 716.01 162.779 716.266 162.742Z" fill="#3E3E3D"/>
<g opacity="0.5">
<path d="M579.5 254.5H1159" stroke="#CDCCCB"/>
</g>
</g>
<rect x="0.5" y="0.5" width="1158" height="254" rx="7.5" stroke="#CDCCCB"/>
<defs>
<clipPath id="clip0_228_25665">
<rect width="1159" height="255" rx="8" fill="white"/>
</clipPath>
</defs>
</svg>
