<svg viewBox="0 0 20 20" fill="none" xmlns="http://www.w3.org/2000/svg">
<path d="M10.0002 18.3333C8.13905 18.3333 6.56266 17.6875 5.271 16.3958C3.97933 15.1042 3.3335 13.5278 3.3335 11.6667C3.3335 10.0972 3.79877 8.59028 4.72933 7.14584C5.65989 5.70139 6.93766 4.4375 8.56266 3.35417C8.86822 3.14584 9.18419 3.13542 9.51058 3.32292C9.83697 3.51042 10.0002 3.79167 10.0002 4.16667V5.25C10.0002 5.72223 10.1634 6.11806 10.4897 6.4375C10.8161 6.75695 11.2154 6.91667 11.6877 6.91667C11.9238 6.91667 12.1495 6.86459 12.3647 6.76042C12.58 6.65625 12.771 6.50695 12.9377 6.3125C13.0488 6.17362 13.1911 6.08681 13.3647 6.05209C13.5384 6.01737 13.7016 6.05556 13.8543 6.16667C14.7293 6.79167 15.4168 7.59028 15.9168 8.56251C16.4168 9.53473 16.6668 10.5694 16.6668 11.6667C16.6668 13.5278 16.021 15.1042 14.7293 16.3958C13.4377 17.6875 11.8613 18.3333 10.0002 18.3333ZM5.00016 11.6667C5.00016 12.3889 5.146 13.0729 5.43766 13.7188C5.72933 14.3646 6.146 14.9306 6.68766 15.4167C6.67377 15.3472 6.66683 15.2847 6.66683 15.2292V15.0417C6.66683 14.5972 6.75016 14.1806 6.91683 13.7917C7.0835 13.4028 7.32655 13.0486 7.646 12.7292L10.0002 10.4167L12.3543 12.7292C12.6738 13.0486 12.9168 13.4028 13.0835 13.7917C13.2502 14.1806 13.3335 14.5972 13.3335 15.0417V15.2292C13.3335 15.2847 13.3266 15.3472 13.3127 15.4167C13.8543 14.9306 14.271 14.3646 14.5627 13.7188C14.8543 13.0729 15.0002 12.3889 15.0002 11.6667C15.0002 10.9722 14.8717 10.316 14.6147 9.69792C14.3578 9.07987 13.9863 8.52778 13.5002 8.04167C13.2224 8.22223 12.9307 8.35764 12.6252 8.44792C12.3196 8.5382 12.0071 8.58334 11.6877 8.58334C10.8266 8.58334 10.08 8.29862 9.44808 7.72917C8.81613 7.15973 8.45155 6.45834 8.35433 5.625C7.271 6.54167 6.44114 7.51737 5.86475 8.55209C5.28836 9.58681 5.00016 10.625 5.00016 11.6667ZM10.0002 12.75L8.81266 13.9167C8.65988 14.0694 8.54183 14.2431 8.4585 14.4375C8.37516 14.6319 8.3335 14.8333 8.3335 15.0417C8.3335 15.4861 8.49669 15.8681 8.82308 16.1875C9.14947 16.5069 9.54183 16.6667 10.0002 16.6667C10.4585 16.6667 10.8509 16.5069 11.1772 16.1875C11.5036 15.8681 11.6668 15.4861 11.6668 15.0417C11.6668 14.8194 11.6252 14.6146 11.5418 14.4271C11.4585 14.2396 11.3404 14.0694 11.1877 13.9167L10.0002 12.75Z" fill="currentColor"/>
</svg>