<svg viewBox="0 0 20 20" fill="none" xmlns="http://www.w3.org/2000/svg">
<path d="M12.6876 10.3125L6.20842 3.83335C6.08342 3.70835 5.99315 3.57988 5.93759 3.44794C5.88204 3.31599 5.85426 3.17363 5.85426 3.02085C5.85426 2.67363 5.99315 2.36113 6.27092 2.08335C6.5487 1.80558 6.88898 1.66669 7.29176 1.66669H12.3751C12.8195 1.66669 13.1772 1.8403 13.448 2.18752C13.7188 2.53474 13.7987 2.91669 13.6876 3.33335L12.5001 7.50002H13.4376C13.9515 7.50002 14.323 7.72224 14.5522 8.16669C14.7813 8.61113 14.757 9.04169 14.4793 9.45835L13.9584 10.2084C13.8056 10.4167 13.6043 10.5347 13.3543 10.5625C13.1043 10.5903 12.882 10.507 12.6876 10.3125ZM15.8959 18.25L11.4584 13.8334L9.47926 16.6875C9.40981 16.7986 9.30912 16.8785 9.17717 16.9271C9.04523 16.9757 8.90981 16.9792 8.77092 16.9375C8.63204 16.8959 8.5244 16.8195 8.44801 16.7084C8.37162 16.5972 8.33342 16.4722 8.33342 16.3334V11.6667H7.50009C7.04176 11.6667 6.6494 11.5035 6.32301 11.1771C5.99662 10.8507 5.83342 10.4584 5.83342 10V8.20835L1.72926 4.10419C1.56259 3.93752 1.48273 3.7396 1.48967 3.51044C1.49662 3.28127 1.58342 3.08335 1.75009 2.91669C1.91676 2.75002 2.11467 2.66669 2.34384 2.66669C2.57301 2.66669 2.77092 2.75002 2.93759 2.91669L17.0834 17.0834C17.2501 17.25 17.3334 17.4445 17.3334 17.6667C17.3334 17.8889 17.2501 18.0834 17.0834 18.25C16.9168 18.4167 16.7188 18.5 16.4897 18.5C16.2605 18.5 16.0626 18.4167 15.8959 18.25Z" fill="currentColor"/>
</svg>