<svg viewBox="0 0 20 20" fill="none" xmlns="http://www.w3.org/2000/svg">
<path d="M4.16667 17.5C3.70833 17.5 3.31597 17.3368 2.98958 17.0104C2.66319 16.684 2.5 16.2917 2.5 15.8333V10.3333L4.41667 12.25C4.58333 12.4167 4.77778 12.5 5 12.5C5.22222 12.5 5.41667 12.4167 5.58333 12.25L8.33333 9.5L11.0833 12.25C11.25 12.4167 11.4444 12.5 11.6667 12.5C11.8889 12.5 12.0833 12.4167 12.25 12.25L15 9.5L17.5 12V15.8333C17.5 16.2917 17.3368 16.684 17.0104 17.0104C16.684 17.3368 16.2917 17.5 15.8333 17.5H4.16667ZM4.16667 2.5H15.8333C16.2917 2.5 16.684 2.66319 17.0104 2.98958C17.3368 3.31597 17.5 3.70833 17.5 4.16667V9.64583L15.5833 7.72917C15.4167 7.5625 15.2222 7.47917 15 7.47917C14.7778 7.47917 14.5833 7.5625 14.4167 7.72917L11.6667 10.4792L8.91667 7.72917C8.75 7.5625 8.55556 7.47917 8.33333 7.47917C8.11111 7.47917 7.91667 7.5625 7.75 7.72917L5 10.4792L2.5 7.97917V4.16667C2.5 3.70833 2.66319 3.31597 2.98958 2.98958C3.31597 2.66319 3.70833 2.5 4.16667 2.5Z" fill="currentColor"/>
</svg>