<svg width="28" height="28" viewBox="0 0 28 28" fill="none" xmlns="http://www.w3.org/2000/svg">
<path d="M0 14C0 6.26801 6.26801 0 14 0C21.732 0 28 6.26801 28 14C28 21.732 21.732 28 14 28C6.26801 28 0 21.732 0 14Z" fill="white"/>
<path fill-rule="evenodd" clip-rule="evenodd" d="M14 0C21.732 0 28 6.26801 28 14C28 21.732 21.732 28 14 28C6.26801 28 0 21.732 0 14C0 6.26801 6.26801 0 14 0ZM20.4629 8C20.1963 8.00003 19.9627 8.09983 19.7627 8.2998L11.2881 16.7754L7.73828 13.2002C7.53828 13.0002 7.30039 12.9004 7.02539 12.9004C6.7505 12.9004 6.51342 13.0003 6.31348 13.2002C6.11357 13.4001 6.0094 13.6373 6.00098 13.9121C5.99264 14.1871 6.08809 14.425 6.28809 14.625L10.5879 18.9248C10.7879 19.1248 11.0214 19.2246 11.2881 19.2246C11.5547 19.2246 11.7883 19.1248 11.9883 18.9248L21.1631 9.72461C21.3629 9.52471 21.4628 9.2875 21.4629 9.0127C21.4629 8.7377 21.3631 8.4998 21.1631 8.2998C20.9631 8.09984 20.7295 8 20.4629 8Z" fill="#0B8A4D"/>
</svg>
