<svg width="28" height="28" viewBox="0 0 28 28" fill="none" xmlns="http://www.w3.org/2000/svg">
<path d="M0 14C0 6.26801 6.26801 0 14 0C21.732 0 28 6.26801 28 14C28 21.732 21.732 28 14 28C6.26801 28 0 21.732 0 14Z" fill="white"/>
<path fill-rule="evenodd" clip-rule="evenodd" d="M14 6C16.2167 6 18.1038 6.77956 19.6621 8.33789C21.2204 9.89622 22 11.7833 22 14C22 16.2167 21.2204 18.1038 19.6621 19.6621C18.1038 21.2204 16.2167 22 14 22C11.7833 22 9.89622 21.2204 8.33789 19.6621C6.77956 18.1038 6 16.2167 6 14C6 11.7833 6.77956 9.89622 8.33789 8.33789C9.89622 6.77956 11.7833 6 14 6ZM14 9C13.7167 9 13.4788 9.09544 13.2871 9.28711C13.0954 9.47878 13 9.71667 13 10V13.9746C13 14.1079 13.0252 14.2373 13.0752 14.3623C13.1252 14.4873 13.1998 14.6002 13.2998 14.7002L16.5996 18C16.7829 18.1833 17.0166 18.2753 17.2998 18.2754C17.5831 18.2754 17.8167 18.1833 18 18C18.1833 17.8167 18.2754 17.5831 18.2754 17.2998C18.2753 17.0166 18.1833 16.7829 18 16.5996L15 13.5996V10C15 9.71667 14.9046 9.47878 14.7129 9.28711C14.5212 9.09544 14.2833 9 14 9Z" fill="#ED6E13"/>
<path fill-rule="evenodd" clip-rule="evenodd" d="M14 0C21.732 0 28 6.26801 28 14C28 21.732 21.732 28 14 28C6.26801 28 0 21.732 0 14C0 6.26801 6.26801 0 14 0ZM14 4C12.6167 4 11.3163 4.26211 10.0996 4.78711C8.88302 5.3121 7.82476 6.02485 6.9248 6.9248C6.02485 7.82476 5.3121 8.88302 4.78711 10.0996C4.26211 11.3163 4 12.6167 4 14C4 15.3833 4.26211 16.6837 4.78711 17.9004C5.3121 19.117 6.02485 20.1752 6.9248 21.0752C7.82476 21.9751 8.88302 22.6879 10.0996 23.2129C11.3163 23.7379 12.6167 24 14 24C15.3833 24 16.6837 23.7379 17.9004 23.2129C19.117 22.6879 20.1752 21.9751 21.0752 21.0752C21.9751 20.1752 22.6879 19.117 23.2129 17.9004C23.7379 16.6837 24 15.3833 24 14C24 12.6167 23.7379 11.3163 23.2129 10.0996C22.6879 8.88302 21.9751 7.82476 21.0752 6.9248C20.1752 6.02485 19.117 5.3121 17.9004 4.78711C16.6837 4.26211 15.3833 4 14 4Z" fill="#ED6E13"/>
</svg>
