<svg width="28" height="28" viewBox="0 0 28 28" fill="none" xmlns="http://www.w3.org/2000/svg">
<path d="M0 14C0 6.26801 6.26801 0 14 0C21.732 0 28 6.26801 28 14C28 21.732 21.732 28 14 28C6.26801 28 0 21.732 0 14Z" fill="white"/>
<path d="M17.5996 9.4248C17.8829 9.4248 18.1165 9.51686 18.2998 9.7002C18.4831 9.88353 18.5752 10.1171 18.5752 10.4004C18.5751 10.6835 18.483 10.9164 18.2998 11.0996L15.4004 14L18.2998 16.9004C18.483 17.0836 18.5751 17.3165 18.5752 17.5996C18.5752 17.8829 18.4831 18.1165 18.2998 18.2998C18.1165 18.4831 17.8829 18.5752 17.5996 18.5752C17.3165 18.5751 17.0836 18.483 16.9004 18.2998L14 15.4004L11.0996 18.2998C10.9164 18.483 10.6835 18.5751 10.4004 18.5752C10.1171 18.5752 9.88353 18.4831 9.7002 18.2998C9.51686 18.1165 9.4248 17.8829 9.4248 17.5996C9.42489 17.3165 9.51701 17.0836 9.7002 16.9004L12.5996 14L9.7002 11.0996C9.51701 10.9164 9.42489 10.6835 9.4248 10.4004C9.4248 10.1171 9.51686 9.88353 9.7002 9.7002C9.88353 9.51686 10.1171 9.4248 10.4004 9.4248C10.6835 9.42489 10.9164 9.51701 11.0996 9.7002L14 12.5996L16.9004 9.7002C17.0836 9.51701 17.3165 9.42489 17.5996 9.4248Z" fill="#737272"/>
<path fill-rule="evenodd" clip-rule="evenodd" d="M14 0C21.732 0 28 6.26801 28 14C28 21.732 21.732 28 14 28C6.26801 28 0 21.732 0 14C0 6.26801 6.26801 0 14 0ZM14 4C12.6167 4 11.3163 4.26211 10.0996 4.78711C8.88302 5.3121 7.82476 6.02485 6.9248 6.9248C6.02485 7.82476 5.3121 8.88302 4.78711 10.0996C4.26211 11.3163 4 12.6167 4 14C4 15.3833 4.26211 16.6837 4.78711 17.9004C5.3121 19.117 6.02485 20.1752 6.9248 21.0752C7.82476 21.9751 8.88302 22.6879 10.0996 23.2129C11.3163 23.7379 12.6167 24 14 24C15.3833 24 16.6837 23.7379 17.9004 23.2129C19.117 22.6879 20.1752 21.9751 21.0752 21.0752C21.9751 20.1752 22.6879 19.117 23.2129 17.9004C23.7379 16.6837 24 15.3833 24 14C24 12.6167 23.7379 11.3163 23.2129 10.0996C22.6879 8.88302 21.9751 7.82476 21.0752 6.9248C20.1752 6.02485 19.117 5.3121 17.9004 4.78711C16.6837 4.26211 15.3833 4 14 4Z" fill="#737272"/>
</svg>
