<svg width="28" height="28" viewBox="0 0 28 28" fill="none" xmlns="http://www.w3.org/2000/svg">
<path d="M0 14C0 6.26801 6.26801 0 14 0C21.732 0 28 6.26801 28 14C28 21.732 21.732 28 14 28C6.26801 28 0 21.732 0 14Z" fill="white"/>
<path fill-rule="evenodd" clip-rule="evenodd" d="M14 0C21.732 0 28 6.26801 28 14C28 21.732 21.732 28 14 28C6.26801 28 0 21.732 0 14C0 6.26801 6.26801 0 14 0ZM13.9922 19C13.4422 19 12.9708 19.1962 12.5791 19.5879C12.1877 19.9795 11.9922 20.4502 11.9922 21C11.9922 21.5498 12.1877 22.0205 12.5791 22.4121C12.9708 22.8038 13.4422 23 13.9922 23C14.5421 23 15.0127 22.8037 15.4043 22.4121C15.7959 22.0205 15.9922 21.55 15.9922 21C15.9922 20.45 15.7959 19.9795 15.4043 19.5879C15.0127 19.1963 14.5421 19 13.9922 19ZM13.9922 4C13.0089 4 12.1043 4.22044 11.2793 4.66211C10.4543 5.10378 9.77552 5.72539 9.24219 6.52539C9.05897 6.80862 8.97993 7.10827 9.00488 7.4248C9.02987 7.74129 9.15853 8.00801 9.3916 8.22461C9.72483 8.52451 10.121 8.64609 10.5791 8.58789C11.0374 8.52956 11.4003 8.30814 11.667 7.9248C11.9503 7.52487 12.2881 7.22101 12.6797 7.0127C13.0713 6.80439 13.5089 6.7002 13.9922 6.7002C14.7754 6.70023 15.4049 6.91631 15.8799 7.34961C16.3549 7.78294 16.5918 8.35854 16.5918 9.0752C16.5918 9.55831 16.4545 10.0039 16.1797 10.4121C15.9047 10.8204 15.3422 11.4004 14.4922 12.1504C13.8257 12.7502 13.3507 13.3208 13.0674 13.8623C12.784 14.404 12.6416 15.0004 12.6416 15.6504C12.6417 16.0336 12.7798 16.3541 13.0547 16.6123C13.3297 16.8706 13.6587 17 14.042 17C14.4253 17 14.7543 16.8663 15.0293 16.5996C15.3042 16.333 15.4753 15.9996 15.542 15.5996C15.6087 15.1831 15.7502 14.8122 15.9668 14.4873C16.1835 14.1623 16.6002 13.7083 17.2168 13.125C18.0668 12.3084 18.6501 11.6 18.9668 11C19.2835 10.4 19.4424 9.72461 19.4424 8.97461C19.4423 7.49151 18.9379 6.29157 17.9297 5.375C16.9214 4.45837 15.6088 4.00004 13.9922 4Z" fill="#737272"/>
</svg>
