<svg width="712" height="144" viewBox="0 0 712 144" fill="none" xmlns="http://www.w3.org/2000/svg">
<path d="M8 0.5H704C708.142 0.5 711.5 3.85786 711.5 8V136C711.5 140.142 708.142 143.5 704 143.5H8C3.85786 143.5 0.5 140.142 0.5 136V8C0.500002 3.85787 3.85787 0.5 8 0.5Z" fill="white"/>
<path d="M8 0.5H704C708.142 0.5 711.5 3.85786 711.5 8V136C711.5 140.142 708.142 143.5 704 143.5H8C3.85786 143.5 0.5 140.142 0.5 136V8C0.500002 3.85787 3.85787 0.5 8 0.5Z" stroke="#CDCCCB"/>
<path d="M48.5752 31L44.9932 20.9785H47.1875L49.7236 28.3955L52.1777 20.9785H54.3242L50.7354 31H48.5752ZM55.999 25.9551L54.2559 25.6406C54.4518 24.9388 54.7891 24.4193 55.2676 24.082C55.7461 23.7448 56.457 23.5762 57.4004 23.5762C58.2572 23.5762 58.8952 23.6787 59.3145 23.8838C59.7337 24.0843 60.0277 24.3418 60.1963 24.6562C60.3695 24.9661 60.4561 25.5381 60.4561 26.3721L60.4355 28.6143C60.4355 29.2523 60.4652 29.724 60.5244 30.0293C60.5882 30.3301 60.7044 30.6536 60.873 31H58.9727C58.9225 30.8724 58.861 30.6833 58.7881 30.4326C58.7562 30.3187 58.7334 30.2435 58.7197 30.207C58.3916 30.526 58.0407 30.7653 57.667 30.9248C57.2933 31.0843 56.8945 31.1641 56.4707 31.1641C55.7233 31.1641 55.1331 30.9613 54.7002 30.5557C54.2718 30.1501 54.0576 29.6374 54.0576 29.0176C54.0576 28.6074 54.1556 28.2428 54.3516 27.9238C54.5475 27.6003 54.821 27.3542 55.1719 27.1855C55.5273 27.0124 56.0378 26.862 56.7031 26.7344C57.6009 26.5658 58.223 26.4085 58.5693 26.2627V26.0713C58.5693 25.7021 58.4782 25.4401 58.2959 25.2852C58.1136 25.1257 57.7695 25.0459 57.2637 25.0459C56.9219 25.0459 56.6553 25.1143 56.4639 25.251C56.2725 25.3831 56.1175 25.6178 55.999 25.9551ZM58.5693 27.5137C58.3232 27.5957 57.9336 27.6937 57.4004 27.8076C56.8672 27.9215 56.5186 28.0332 56.3545 28.1426C56.1038 28.3203 55.9785 28.5459 55.9785 28.8193C55.9785 29.0882 56.0788 29.3206 56.2793 29.5166C56.4798 29.7126 56.735 29.8105 57.0449 29.8105C57.3913 29.8105 57.7217 29.6966 58.0361 29.4688C58.2686 29.2956 58.4212 29.0837 58.4941 28.833C58.5443 28.6689 58.5693 28.3568 58.5693 27.8965V27.5137ZM62.3564 31V20.9785H64.2773V31H62.3564ZM70.457 28.6895L72.3711 29.0107C72.125 29.7126 71.7354 30.248 71.2021 30.6172C70.6735 30.9818 70.0104 31.1641 69.2129 31.1641C67.9505 31.1641 67.0163 30.7516 66.4102 29.9268C65.9316 29.266 65.6924 28.432 65.6924 27.4248C65.6924 26.2217 66.0068 25.2806 66.6357 24.6016C67.2646 23.918 68.0599 23.5762 69.0215 23.5762C70.1016 23.5762 70.9538 23.9339 71.5781 24.6494C72.2025 25.3604 72.501 26.4518 72.4736 27.9238H67.6611C67.6748 28.4935 67.8298 28.9378 68.126 29.2568C68.4222 29.5713 68.7913 29.7285 69.2334 29.7285C69.5342 29.7285 69.7871 29.6465 69.9922 29.4824C70.1973 29.3184 70.3522 29.054 70.457 28.6895ZM70.5664 26.748C70.5527 26.1921 70.4092 25.7705 70.1357 25.4834C69.8623 25.1917 69.5296 25.0459 69.1377 25.0459C68.7184 25.0459 68.3721 25.1986 68.0986 25.5039C67.8252 25.8092 67.6908 26.224 67.6953 26.748H70.5664ZM78.8242 31V29.9131C78.5599 30.3005 78.2113 30.6058 77.7783 30.8291C77.3499 31.0524 76.8965 31.1641 76.418 31.1641C75.9303 31.1641 75.4928 31.057 75.1055 30.8428C74.7181 30.6286 74.4378 30.3278 74.2646 29.9404C74.0915 29.5531 74.0049 29.0176 74.0049 28.334V23.7402H75.9258V27.0762C75.9258 28.097 75.96 28.7236 76.0283 28.9561C76.1012 29.1839 76.2311 29.3662 76.418 29.5029C76.6048 29.6351 76.8418 29.7012 77.1289 29.7012C77.457 29.7012 77.751 29.6123 78.0107 29.4346C78.2705 29.2523 78.4482 29.029 78.5439 28.7646C78.6396 28.4958 78.6875 27.8418 78.6875 26.8027V23.7402H80.6084V31H78.8242ZM84.4434 31H82.5225V23.7402H84.3066V24.7725C84.612 24.2848 84.8854 23.9635 85.127 23.8086C85.373 23.6536 85.651 23.5762 85.9609 23.5762C86.3984 23.5762 86.82 23.6969 87.2256 23.9385L86.6309 25.6133C86.3073 25.4036 86.0065 25.2988 85.7285 25.2988C85.4596 25.2988 85.2318 25.374 85.0449 25.5244C84.8581 25.6702 84.71 25.9368 84.6006 26.3242C84.4958 26.7116 84.4434 27.5228 84.4434 28.7578V31ZM91.9766 31V20.9785H94V24.9229H97.9648V20.9785H99.9883V31H97.9648V26.6182H94V31H91.9766ZM102.087 31V20.9785H109.518V22.6738H104.11V24.8955H109.142V26.584H104.11V29.3115H109.709V31H102.087ZM110.406 31L113.831 25.7705L110.728 20.9785H113.093L115.103 24.1982L117.071 20.9785H119.416L116.299 25.8457L119.724 31H117.283L115.062 27.5342L112.833 31H110.406Z" fill="#201F1F"/>
<path d="M200.097 27.3154L202.059 27.9375C201.759 29.0312 201.257 29.8447 200.555 30.3779C199.858 30.9066 198.972 31.1709 197.896 31.1709C196.566 31.1709 195.472 30.7174 194.615 29.8105C193.758 28.8991 193.33 27.6549 193.33 26.0781C193.33 24.4102 193.76 23.1159 194.622 22.1953C195.483 21.2702 196.616 20.8076 198.019 20.8076C199.245 20.8076 200.241 21.1699 201.007 21.8945C201.462 22.3229 201.804 22.9382 202.032 23.7402L200.029 24.2188C199.911 23.6992 199.662 23.2891 199.284 22.9883C198.91 22.6875 198.455 22.5371 197.917 22.5371C197.174 22.5371 196.57 22.8037 196.105 23.3369C195.645 23.8701 195.415 24.7337 195.415 25.9277C195.415 27.1947 195.643 28.097 196.098 28.6348C196.554 29.1725 197.147 29.4414 197.876 29.4414C198.413 29.4414 198.876 29.2705 199.263 28.9287C199.651 28.5869 199.929 28.0492 200.097 27.3154ZM203.344 27.2676C203.344 26.6296 203.502 26.012 203.816 25.415C204.131 24.818 204.575 24.3623 205.149 24.0479C205.728 23.7334 206.373 23.5762 207.084 23.5762C208.182 23.5762 209.082 23.9339 209.784 24.6494C210.486 25.3604 210.837 26.2604 210.837 27.3496C210.837 28.4479 210.481 29.3594 209.77 30.084C209.064 30.804 208.173 31.1641 207.097 31.1641C206.432 31.1641 205.796 31.0137 205.19 30.7129C204.589 30.4121 204.131 29.9723 203.816 29.3936C203.502 28.8102 203.344 28.1016 203.344 27.2676ZM205.313 27.3701C205.313 28.0902 205.484 28.6416 205.826 29.0244C206.168 29.4072 206.589 29.5986 207.091 29.5986C207.592 29.5986 208.011 29.4072 208.348 29.0244C208.69 28.6416 208.861 28.0856 208.861 27.3564C208.861 26.6455 208.69 26.0986 208.348 25.7158C208.011 25.333 207.592 25.1416 207.091 25.1416C206.589 25.1416 206.168 25.333 205.826 25.7158C205.484 26.0986 205.313 26.6501 205.313 27.3701ZM217.126 31V29.9131C216.861 30.3005 216.513 30.6058 216.08 30.8291C215.651 31.0524 215.198 31.1641 214.719 31.1641C214.232 31.1641 213.794 31.057 213.407 30.8428C213.02 30.6286 212.739 30.3278 212.566 29.9404C212.393 29.5531 212.306 29.0176 212.306 28.334V23.7402H214.227V27.0762C214.227 28.097 214.261 28.7236 214.33 28.9561C214.403 29.1839 214.533 29.3662 214.719 29.5029C214.906 29.6351 215.143 29.7012 215.43 29.7012C215.759 29.7012 216.052 29.6123 216.312 29.4346C216.572 29.2523 216.75 29.029 216.845 28.7646C216.941 28.4958 216.989 27.8418 216.989 26.8027V23.7402H218.91V31H217.126ZM220.906 31V20.9785H222.827V31H220.906ZM229.007 28.6895L230.921 29.0107C230.675 29.7126 230.285 30.248 229.752 30.6172C229.223 30.9818 228.56 31.1641 227.762 31.1641C226.5 31.1641 225.566 30.7516 224.96 29.9268C224.481 29.266 224.242 28.432 224.242 27.4248C224.242 26.2217 224.556 25.2806 225.185 24.6016C225.814 23.918 226.609 23.5762 227.571 23.5762C228.651 23.5762 229.503 23.9339 230.128 24.6494C230.752 25.3604 231.051 26.4518 231.023 27.9238H226.211C226.224 28.4935 226.379 28.9378 226.676 29.2568C226.972 29.5713 227.341 29.7285 227.783 29.7285C228.084 29.7285 228.337 29.6465 228.542 29.4824C228.747 29.3184 228.902 29.054 229.007 28.6895ZM229.116 26.748C229.102 26.1921 228.959 25.7705 228.685 25.4834C228.412 25.1917 228.079 25.0459 227.687 25.0459C227.268 25.0459 226.922 25.1986 226.648 25.5039C226.375 25.8092 226.24 26.224 226.245 26.748H229.116ZM237.374 31V29.9131C237.109 30.3005 236.761 30.6058 236.328 30.8291C235.899 31.0524 235.446 31.1641 234.968 31.1641C234.48 31.1641 234.042 31.057 233.655 30.8428C233.268 30.6286 232.987 30.3278 232.814 29.9404C232.641 29.5531 232.554 29.0176 232.554 28.334V23.7402H234.475V27.0762C234.475 28.097 234.51 28.7236 234.578 28.9561C234.651 29.1839 234.781 29.3662 234.968 29.5029C235.154 29.6351 235.391 29.7012 235.678 29.7012C236.007 29.7012 236.301 29.6123 236.56 29.4346C236.82 29.2523 236.998 29.029 237.094 28.7646C237.189 28.4958 237.237 27.8418 237.237 26.8027V23.7402H239.158V31H237.374ZM242.993 31H241.072V23.7402H242.856V24.7725C243.162 24.2848 243.435 23.9635 243.677 23.8086C243.923 23.6536 244.201 23.5762 244.51 23.5762C244.948 23.5762 245.37 23.6969 245.775 23.9385L245.18 25.6133C244.857 25.4036 244.556 25.2988 244.278 25.2988C244.009 25.2988 243.781 25.374 243.594 25.5244C243.408 25.6702 243.26 25.9368 243.15 26.3242C243.045 26.7116 242.993 27.5228 242.993 28.7578V31ZM250.451 23.7402H252.242V24.8066C252.474 24.4421 252.789 24.1458 253.185 23.918C253.582 23.6901 254.022 23.5762 254.505 23.5762C255.348 23.5762 256.063 23.9066 256.651 24.5674C257.239 25.2282 257.533 26.1488 257.533 27.3291C257.533 28.5413 257.237 29.4847 256.644 30.1592C256.052 30.8291 255.334 31.1641 254.491 31.1641C254.09 31.1641 253.725 31.0843 253.397 30.9248C253.074 30.7653 252.732 30.4919 252.372 30.1045V33.7617H250.451V23.7402ZM252.351 27.2471C252.351 28.0628 252.513 28.6667 252.837 29.0586C253.16 29.446 253.554 29.6396 254.019 29.6396C254.466 29.6396 254.837 29.4619 255.134 29.1064C255.43 28.7464 255.578 28.1585 255.578 27.3428C255.578 26.5817 255.425 26.0166 255.12 25.6475C254.815 25.2783 254.436 25.0938 253.985 25.0938C253.516 25.0938 253.126 25.276 252.816 25.6406C252.506 26.0007 252.351 26.5361 252.351 27.2471ZM260.903 31H258.982V23.7402H260.766V24.7725C261.072 24.2848 261.345 23.9635 261.587 23.8086C261.833 23.6536 262.111 23.5762 262.421 23.5762C262.858 23.5762 263.28 23.6969 263.685 23.9385L263.091 25.6133C262.767 25.4036 262.466 25.2988 262.188 25.2988C261.919 25.2988 261.691 25.374 261.505 25.5244C261.318 25.6702 261.17 25.9368 261.06 26.3242C260.955 26.7116 260.903 27.5228 260.903 28.7578V31ZM264.519 22.7559V20.9785H266.44V22.7559H264.519ZM264.519 31V23.7402H266.44V31H264.519ZM268.272 23.7402H270.043V24.7314C270.676 23.9613 271.43 23.5762 272.305 23.5762C272.77 23.5762 273.174 23.6719 273.515 23.8633C273.857 24.0547 274.137 24.3441 274.356 24.7314C274.675 24.3441 275.019 24.0547 275.388 23.8633C275.758 23.6719 276.152 23.5762 276.571 23.5762C277.104 23.5762 277.555 23.6855 277.925 23.9043C278.294 24.1185 278.569 24.4352 278.752 24.8545C278.884 25.1644 278.95 25.6657 278.95 26.3584V31H277.029V26.8506C277.029 26.1305 276.963 25.6657 276.831 25.4561C276.653 25.1826 276.38 25.0459 276.01 25.0459C275.742 25.0459 275.489 25.1279 275.252 25.292C275.015 25.4561 274.844 25.6976 274.739 26.0166C274.634 26.3311 274.582 26.8301 274.582 27.5137V31H272.661V27.0215C272.661 26.3151 272.627 25.8594 272.558 25.6543C272.49 25.4492 272.383 25.2965 272.237 25.1963C272.096 25.096 271.902 25.0459 271.656 25.0459C271.36 25.0459 271.093 25.1257 270.856 25.2852C270.619 25.4447 270.448 25.6748 270.344 25.9756C270.243 26.2764 270.193 26.7754 270.193 27.4727V31H268.272V23.7402ZM280.871 22.7559V20.9785H282.792V22.7559H280.871ZM280.871 31V23.7402H282.792V31H280.871ZM288.096 23.7402V25.2715H286.784V28.1973C286.784 28.7897 286.795 29.1361 286.818 29.2363C286.845 29.332 286.902 29.4118 286.989 29.4756C287.08 29.5394 287.19 29.5713 287.317 29.5713C287.495 29.5713 287.752 29.5098 288.09 29.3867L288.254 30.877C287.807 31.0684 287.301 31.1641 286.736 31.1641C286.39 31.1641 286.078 31.1071 285.8 30.9932C285.522 30.8747 285.316 30.7243 285.184 30.542C285.057 30.3551 284.968 30.1045 284.918 29.79C284.877 29.5667 284.856 29.1156 284.856 28.4365V25.2715H283.974V23.7402H284.856V22.2979L286.784 21.1768V23.7402H288.096ZM289.429 22.7559V20.9785H291.35V22.7559H289.429ZM289.429 31V23.7402H291.35V31H289.429ZM295.322 31L292.396 23.7402H294.413L295.78 27.4453L296.177 28.6826C296.281 28.3682 296.347 28.1608 296.375 28.0605C296.439 27.8555 296.507 27.6504 296.58 27.4453L297.961 23.7402H299.936L297.052 31H295.322ZM305.323 28.6895L307.237 29.0107C306.991 29.7126 306.601 30.248 306.068 30.6172C305.539 30.9818 304.876 31.1641 304.079 31.1641C302.816 31.1641 301.882 30.7516 301.276 29.9268C300.798 29.266 300.558 28.432 300.558 27.4248C300.558 26.2217 300.873 25.2806 301.502 24.6016C302.131 23.918 302.926 23.5762 303.887 23.5762C304.968 23.5762 305.82 23.9339 306.444 24.6494C307.068 25.3604 307.367 26.4518 307.34 27.9238H302.527C302.541 28.4935 302.696 28.9378 302.992 29.2568C303.288 29.5713 303.657 29.7285 304.099 29.7285C304.4 29.7285 304.653 29.6465 304.858 29.4824C305.063 29.3184 305.218 29.054 305.323 28.6895ZM305.432 26.748C305.419 26.1921 305.275 25.7705 305.002 25.4834C304.728 25.1917 304.396 25.0459 304.004 25.0459C303.584 25.0459 303.238 25.1986 302.965 25.5039C302.691 25.8092 302.557 26.224 302.561 26.748H305.432Z" fill="#201F1F"/>
<path d="M388.764 27.3154L390.726 27.9375C390.425 29.0312 389.924 29.8447 389.222 30.3779C388.525 30.9066 387.638 31.1709 386.563 31.1709C385.232 31.1709 384.138 30.7174 383.281 29.8105C382.425 28.8991 381.996 27.6549 381.996 26.0781C381.996 24.4102 382.427 23.1159 383.288 22.1953C384.15 21.2702 385.282 20.8076 386.686 20.8076C387.912 20.8076 388.907 21.1699 389.673 21.8945C390.129 22.3229 390.471 22.9382 390.698 23.7402L388.696 24.2188C388.577 23.6992 388.329 23.2891 387.95 22.9883C387.577 22.6875 387.121 22.5371 386.583 22.5371C385.84 22.5371 385.237 22.8037 384.772 23.3369C384.311 23.8701 384.081 24.7337 384.081 25.9277C384.081 27.1947 384.309 28.097 384.765 28.6348C385.221 29.1725 385.813 29.4414 386.542 29.4414C387.08 29.4414 387.543 29.2705 387.93 28.9287C388.317 28.5869 388.595 28.0492 388.764 27.3154ZM392.011 27.2676C392.011 26.6296 392.168 26.012 392.483 25.415C392.797 24.818 393.241 24.3623 393.816 24.0479C394.394 23.7334 395.039 23.5762 395.75 23.5762C396.849 23.5762 397.749 23.9339 398.45 24.6494C399.152 25.3604 399.503 26.2604 399.503 27.3496C399.503 28.4479 399.148 29.3594 398.437 30.084C397.73 30.804 396.839 31.1641 395.764 31.1641C395.099 31.1641 394.463 31.0137 393.857 30.7129C393.255 30.4121 392.797 29.9723 392.483 29.3936C392.168 28.8102 392.011 28.1016 392.011 27.2676ZM393.98 27.3701C393.98 28.0902 394.151 28.6416 394.492 29.0244C394.834 29.4072 395.256 29.5986 395.757 29.5986C396.258 29.5986 396.678 29.4072 397.015 29.0244C397.357 28.6416 397.528 28.0856 397.528 27.3564C397.528 26.6455 397.357 26.0986 397.015 25.7158C396.678 25.333 396.258 25.1416 395.757 25.1416C395.256 25.1416 394.834 25.333 394.492 25.7158C394.151 26.0986 393.98 26.6501 393.98 27.3701ZM405.792 31V29.9131C405.528 30.3005 405.179 30.6058 404.746 30.8291C404.318 31.0524 403.865 31.1641 403.386 31.1641C402.898 31.1641 402.461 31.057 402.073 30.8428C401.686 30.6286 401.406 30.3278 401.233 29.9404C401.059 29.5531 400.973 29.0176 400.973 28.334V23.7402H402.894V27.0762C402.894 28.097 402.928 28.7236 402.996 28.9561C403.069 29.1839 403.199 29.3662 403.386 29.5029C403.573 29.6351 403.81 29.7012 404.097 29.7012C404.425 29.7012 404.719 29.6123 404.979 29.4346C405.239 29.2523 405.416 29.029 405.512 28.7646C405.608 28.4958 405.656 27.8418 405.656 26.8027V23.7402H407.576V31H405.792ZM409.573 31V20.9785H411.493V31H409.573ZM417.673 28.6895L419.587 29.0107C419.341 29.7126 418.951 30.248 418.418 30.6172C417.89 30.9818 417.226 31.1641 416.429 31.1641C415.167 31.1641 414.232 30.7516 413.626 29.9268C413.148 29.266 412.908 28.432 412.908 27.4248C412.908 26.2217 413.223 25.2806 413.852 24.6016C414.481 23.918 415.276 23.5762 416.238 23.5762C417.318 23.5762 418.17 23.9339 418.794 24.6494C419.419 25.3604 419.717 26.4518 419.69 27.9238H414.877C414.891 28.4935 415.046 28.9378 415.342 29.2568C415.638 29.5713 416.007 29.7285 416.449 29.7285C416.75 29.7285 417.003 29.6465 417.208 29.4824C417.413 29.3184 417.568 29.054 417.673 28.6895ZM417.782 26.748C417.769 26.1921 417.625 25.7705 417.352 25.4834C417.078 25.1917 416.746 25.0459 416.354 25.0459C415.934 25.0459 415.588 25.1986 415.315 25.5039C415.041 25.8092 414.907 26.224 414.911 26.748H417.782ZM426.04 31V29.9131C425.776 30.3005 425.427 30.6058 424.994 30.8291C424.566 31.0524 424.113 31.1641 423.634 31.1641C423.146 31.1641 422.709 31.057 422.322 30.8428C421.934 30.6286 421.654 30.3278 421.481 29.9404C421.308 29.5531 421.221 29.0176 421.221 28.334V23.7402H423.142V27.0762C423.142 28.097 423.176 28.7236 423.244 28.9561C423.317 29.1839 423.447 29.3662 423.634 29.5029C423.821 29.6351 424.058 29.7012 424.345 29.7012C424.673 29.7012 424.967 29.6123 425.227 29.4346C425.487 29.2523 425.664 29.029 425.76 28.7646C425.856 28.4958 425.904 27.8418 425.904 26.8027V23.7402H427.824V31H426.04ZM431.659 31H429.739V23.7402H431.523V24.7725C431.828 24.2848 432.101 23.9635 432.343 23.8086C432.589 23.6536 432.867 23.5762 433.177 23.5762C433.615 23.5762 434.036 23.6969 434.442 23.9385L433.847 25.6133C433.523 25.4036 433.223 25.2988 432.945 25.2988C432.676 25.2988 432.448 25.374 432.261 25.5244C432.074 25.6702 431.926 25.9368 431.817 26.3242C431.712 26.7116 431.659 27.5228 431.659 28.7578V31ZM438.495 28.9287L440.423 28.6348C440.505 29.0085 440.671 29.2933 440.922 29.4893C441.173 29.6807 441.524 29.7764 441.975 29.7764C442.472 29.7764 442.845 29.6852 443.096 29.5029C443.265 29.3753 443.349 29.2044 443.349 28.9902C443.349 28.8444 443.303 28.7236 443.212 28.6279C443.116 28.5368 442.902 28.4525 442.57 28.375C441.02 28.0332 440.038 27.721 439.623 27.4385C439.049 27.0465 438.762 26.502 438.762 25.8047C438.762 25.1758 439.01 24.6471 439.507 24.2188C440.004 23.7904 440.774 23.5762 441.818 23.5762C442.811 23.5762 443.549 23.738 444.032 24.0615C444.516 24.3851 444.848 24.8636 445.031 25.4971L443.219 25.832C443.142 25.5495 442.993 25.333 442.775 25.1826C442.56 25.0322 442.253 24.957 441.852 24.957C441.346 24.957 440.984 25.0277 440.765 25.1689C440.619 25.2692 440.546 25.3991 440.546 25.5586C440.546 25.6953 440.61 25.8115 440.738 25.9072C440.911 26.0348 441.508 26.2148 442.529 26.4473C443.554 26.6797 444.269 26.9645 444.675 27.3018C445.076 27.6436 445.277 28.1198 445.277 28.7305C445.277 29.3958 444.999 29.9678 444.443 30.4463C443.887 30.9248 443.064 31.1641 441.975 31.1641C440.986 31.1641 440.202 30.9635 439.623 30.5625C439.049 30.1615 438.673 29.6169 438.495 28.9287ZM451.169 28.6895L453.083 29.0107C452.837 29.7126 452.448 30.248 451.914 30.6172C451.386 30.9818 450.723 31.1641 449.925 31.1641C448.663 31.1641 447.728 30.7516 447.122 29.9268C446.644 29.266 446.405 28.432 446.405 27.4248C446.405 26.2217 446.719 25.2806 447.348 24.6016C447.977 23.918 448.772 23.5762 449.734 23.5762C450.814 23.5762 451.666 23.9339 452.29 24.6494C452.915 25.3604 453.213 26.4518 453.186 27.9238H448.373C448.387 28.4935 448.542 28.9378 448.838 29.2568C449.134 29.5713 449.503 29.7285 449.946 29.7285C450.246 29.7285 450.499 29.6465 450.704 29.4824C450.909 29.3184 451.064 29.054 451.169 28.6895ZM451.279 26.748C451.265 26.1921 451.121 25.7705 450.848 25.4834C450.574 25.1917 450.242 25.0459 449.85 25.0459C449.431 25.0459 449.084 25.1986 448.811 25.5039C448.537 25.8092 448.403 26.224 448.407 26.748H451.279ZM448.824 22.8516L449.768 20.8076H451.921L450.041 22.8516H448.824ZM454.615 23.7402H456.385V24.7314C457.018 23.9613 457.773 23.5762 458.648 23.5762C459.113 23.5762 459.516 23.6719 459.858 23.8633C460.199 24.0547 460.48 24.3441 460.698 24.7314C461.017 24.3441 461.362 24.0547 461.731 23.8633C462.1 23.6719 462.494 23.5762 462.913 23.5762C463.447 23.5762 463.898 23.6855 464.267 23.9043C464.636 24.1185 464.912 24.4352 465.094 24.8545C465.226 25.1644 465.292 25.6657 465.292 26.3584V31H463.371V26.8506C463.371 26.1305 463.305 25.6657 463.173 25.4561C462.995 25.1826 462.722 25.0459 462.353 25.0459C462.084 25.0459 461.831 25.1279 461.594 25.292C461.357 25.4561 461.186 25.6976 461.081 26.0166C460.976 26.3311 460.924 26.8301 460.924 27.5137V31H459.003V27.0215C459.003 26.3151 458.969 25.8594 458.901 25.6543C458.832 25.4492 458.725 25.2965 458.579 25.1963C458.438 25.096 458.244 25.0459 457.998 25.0459C457.702 25.0459 457.435 25.1257 457.198 25.2852C456.962 25.4447 456.791 25.6748 456.686 25.9756C456.586 26.2764 456.535 26.7754 456.535 27.4727V31H454.615V23.7402ZM468.649 25.9551L466.906 25.6406C467.101 24.9388 467.439 24.4193 467.917 24.082C468.396 23.7448 469.107 23.5762 470.05 23.5762C470.907 23.5762 471.545 23.6787 471.964 23.8838C472.383 24.0843 472.677 24.3418 472.846 24.6562C473.019 24.9661 473.106 25.5381 473.106 26.3721L473.085 28.6143C473.085 29.2523 473.115 29.724 473.174 30.0293C473.238 30.3301 473.354 30.6536 473.523 31H471.622C471.572 30.8724 471.511 30.6833 471.438 30.4326C471.406 30.3187 471.383 30.2435 471.369 30.207C471.041 30.526 470.69 30.7653 470.317 30.9248C469.943 31.0843 469.544 31.1641 469.12 31.1641C468.373 31.1641 467.783 30.9613 467.35 30.5557C466.921 30.1501 466.707 29.6374 466.707 29.0176C466.707 28.6074 466.805 28.2428 467.001 27.9238C467.197 27.6003 467.471 27.3542 467.822 27.1855C468.177 27.0124 468.687 26.862 469.353 26.7344C470.251 26.5658 470.873 26.4085 471.219 26.2627V26.0713C471.219 25.7021 471.128 25.4401 470.946 25.2852C470.763 25.1257 470.419 25.0459 469.913 25.0459C469.572 25.0459 469.305 25.1143 469.114 25.251C468.922 25.3831 468.767 25.6178 468.649 25.9551ZM471.219 27.5137C470.973 27.5957 470.583 27.6937 470.05 27.8076C469.517 27.9215 469.168 28.0332 469.004 28.1426C468.753 28.3203 468.628 28.5459 468.628 28.8193C468.628 29.0882 468.728 29.3206 468.929 29.5166C469.129 29.7126 469.385 29.8105 469.695 29.8105C470.041 29.8105 470.371 29.6966 470.686 29.4688C470.918 29.2956 471.071 29.0837 471.144 28.833C471.194 28.6689 471.219 28.3568 471.219 27.8965V27.5137ZM481.61 31H479.689V27.2949C479.689 26.5111 479.648 26.0052 479.566 25.7773C479.484 25.5449 479.349 25.3649 479.162 25.2373C478.98 25.1097 478.759 25.0459 478.499 25.0459C478.167 25.0459 477.868 25.137 477.604 25.3193C477.339 25.5016 477.157 25.7432 477.057 26.0439C476.961 26.3447 476.913 26.9007 476.913 27.7119V31H474.992V23.7402H476.777V24.8066C477.41 23.9863 478.208 23.5762 479.169 23.5762C479.593 23.5762 479.98 23.6536 480.331 23.8086C480.682 23.959 480.947 24.1527 481.124 24.3896C481.307 24.6266 481.432 24.8955 481.5 25.1963C481.573 25.4971 481.61 25.9277 481.61 26.4883V31ZM486.894 23.7402V25.2715H485.581V28.1973C485.581 28.7897 485.593 29.1361 485.615 29.2363C485.643 29.332 485.7 29.4118 485.786 29.4756C485.878 29.5394 485.987 29.5713 486.115 29.5713C486.292 29.5713 486.55 29.5098 486.887 29.3867L487.051 30.877C486.604 31.0684 486.099 31.1641 485.533 31.1641C485.187 31.1641 484.875 31.1071 484.597 30.9932C484.319 30.8747 484.114 30.7243 483.982 30.542C483.854 30.3551 483.765 30.1045 483.715 29.79C483.674 29.5667 483.654 29.1156 483.654 28.4365V25.2715H482.772V23.7402H483.654V22.2979L485.581 21.1768V23.7402H486.894ZM488.227 22.7559V20.9785H490.148V22.7559H488.227ZM488.227 31V23.7402H490.148V31H488.227ZM496.867 33.7617V30.1113C496.617 30.4349 496.305 30.6924 495.931 30.8838C495.557 31.0706 495.154 31.1641 494.721 31.1641C493.896 31.1641 493.217 30.8542 492.684 30.2344C492.055 29.5098 491.74 28.5277 491.74 27.2881C491.74 26.1214 492.034 25.2122 492.622 24.5605C493.215 23.9043 493.948 23.5762 494.823 23.5762C495.307 23.5762 495.724 23.6787 496.074 23.8838C496.43 24.0889 496.744 24.3988 497.018 24.8135V23.7402H498.788V33.7617H496.867ZM496.929 27.2812C496.929 26.5384 496.776 25.987 496.471 25.627C496.17 25.2624 495.792 25.0801 495.336 25.0801C494.871 25.0801 494.482 25.2646 494.167 25.6338C493.857 26.0029 493.702 26.5885 493.702 27.3906C493.702 28.1882 493.853 28.7646 494.154 29.1201C494.454 29.471 494.826 29.6465 495.268 29.6465C495.71 29.6465 496.097 29.4482 496.43 29.0518C496.763 28.6553 496.929 28.0651 496.929 27.2812ZM505.46 31V29.9131C505.196 30.3005 504.847 30.6058 504.414 30.8291C503.986 31.0524 503.532 31.1641 503.054 31.1641C502.566 31.1641 502.129 31.057 501.741 30.8428C501.354 30.6286 501.074 30.3278 500.901 29.9404C500.727 29.5531 500.641 29.0176 500.641 28.334V23.7402H502.562V27.0762C502.562 28.097 502.596 28.7236 502.664 28.9561C502.737 29.1839 502.867 29.3662 503.054 29.5029C503.241 29.6351 503.478 29.7012 503.765 29.7012C504.093 29.7012 504.387 29.6123 504.647 29.4346C504.906 29.2523 505.084 29.029 505.18 28.7646C505.276 28.4958 505.323 27.8418 505.323 26.8027V23.7402H507.244V31H505.46ZM513.445 28.6895L515.359 29.0107C515.113 29.7126 514.723 30.248 514.19 30.6172C513.661 30.9818 512.998 31.1641 512.2 31.1641C510.938 31.1641 510.004 30.7516 509.398 29.9268C508.919 29.266 508.68 28.432 508.68 27.4248C508.68 26.2217 508.994 25.2806 509.623 24.6016C510.252 23.918 511.047 23.5762 512.009 23.5762C513.089 23.5762 513.941 23.9339 514.566 24.6494C515.19 25.3604 515.489 26.4518 515.461 27.9238H510.649C510.662 28.4935 510.817 28.9378 511.114 29.2568C511.41 29.5713 511.779 29.7285 512.221 29.7285C512.522 29.7285 512.775 29.6465 512.98 29.4824C513.185 29.3184 513.34 29.054 513.445 28.6895ZM513.554 26.748C513.54 26.1921 513.397 25.7705 513.123 25.4834C512.85 25.1917 512.517 25.0459 512.125 25.0459C511.706 25.0459 511.36 25.1986 511.086 25.5039C510.813 25.8092 510.678 26.224 510.683 26.748H513.554Z" fill="#201F1F"/>
<path d="M596.431 27.3154L598.393 27.9375C598.092 29.0312 597.59 29.8447 596.889 30.3779C596.191 30.9066 595.305 31.1709 594.229 31.1709C592.899 31.1709 591.805 30.7174 590.948 29.8105C590.091 28.8991 589.663 27.6549 589.663 26.0781C589.663 24.4102 590.094 23.1159 590.955 22.1953C591.816 21.2702 592.949 20.8076 594.353 20.8076C595.578 20.8076 596.574 21.1699 597.34 21.8945C597.796 22.3229 598.137 22.9382 598.365 23.7402L596.362 24.2188C596.244 23.6992 595.995 23.2891 595.617 22.9883C595.243 22.6875 594.788 22.5371 594.25 22.5371C593.507 22.5371 592.903 22.8037 592.438 23.3369C591.978 23.8701 591.748 24.7337 591.748 25.9277C591.748 27.1947 591.976 28.097 592.432 28.6348C592.887 29.1725 593.48 29.4414 594.209 29.4414C594.747 29.4414 595.209 29.2705 595.597 28.9287C595.984 28.5869 596.262 28.0492 596.431 27.3154ZM599.678 27.2676C599.678 26.6296 599.835 26.012 600.149 25.415C600.464 24.818 600.908 24.3623 601.482 24.0479C602.061 23.7334 602.706 23.5762 603.417 23.5762C604.515 23.5762 605.415 23.9339 606.117 24.6494C606.819 25.3604 607.17 26.2604 607.17 27.3496C607.17 28.4479 606.814 29.3594 606.104 30.084C605.397 30.804 604.506 31.1641 603.431 31.1641C602.765 31.1641 602.13 31.0137 601.523 30.7129C600.922 30.4121 600.464 29.9723 600.149 29.3936C599.835 28.8102 599.678 28.1016 599.678 27.2676ZM601.646 27.3701C601.646 28.0902 601.817 28.6416 602.159 29.0244C602.501 29.4072 602.923 29.5986 603.424 29.5986C603.925 29.5986 604.344 29.4072 604.682 29.0244C605.023 28.6416 605.194 28.0856 605.194 27.3564C605.194 26.6455 605.023 26.0986 604.682 25.7158C604.344 25.333 603.925 25.1416 603.424 25.1416C602.923 25.1416 602.501 25.333 602.159 25.7158C601.817 26.0986 601.646 26.6501 601.646 27.3701ZM608.537 23.7402H610.308V24.7314C610.941 23.9613 611.695 23.5762 612.57 23.5762C613.035 23.5762 613.438 23.6719 613.78 23.8633C614.122 24.0547 614.402 24.3441 614.621 24.7314C614.94 24.3441 615.284 24.0547 615.653 23.8633C616.022 23.6719 616.417 23.5762 616.836 23.5762C617.369 23.5762 617.82 23.6855 618.189 23.9043C618.559 24.1185 618.834 24.4352 619.017 24.8545C619.149 25.1644 619.215 25.6657 619.215 26.3584V31H617.294V26.8506C617.294 26.1305 617.228 25.6657 617.096 25.4561C616.918 25.1826 616.645 25.0459 616.275 25.0459C616.007 25.0459 615.754 25.1279 615.517 25.292C615.28 25.4561 615.109 25.6976 615.004 26.0166C614.899 26.3311 614.847 26.8301 614.847 27.5137V31H612.926V27.0215C612.926 26.3151 612.892 25.8594 612.823 25.6543C612.755 25.4492 612.648 25.2965 612.502 25.1963C612.361 25.096 612.167 25.0459 611.921 25.0459C611.625 25.0459 611.358 25.1257 611.121 25.2852C610.884 25.4447 610.713 25.6748 610.608 25.9756C610.508 26.2764 610.458 26.7754 610.458 27.4727V31H608.537V23.7402ZM621.081 23.7402H622.872V24.8066C623.104 24.4421 623.419 24.1458 623.815 23.918C624.212 23.6901 624.652 23.5762 625.135 23.5762C625.978 23.5762 626.693 23.9066 627.281 24.5674C627.869 25.2282 628.163 26.1488 628.163 27.3291C628.163 28.5413 627.867 29.4847 627.274 30.1592C626.682 30.8291 625.964 31.1641 625.121 31.1641C624.72 31.1641 624.355 31.0843 624.027 30.9248C623.704 30.7653 623.362 30.4919 623.002 30.1045V33.7617H621.081V23.7402ZM622.981 27.2471C622.981 28.0628 623.143 28.6667 623.467 29.0586C623.79 29.446 624.185 29.6396 624.649 29.6396C625.096 29.6396 625.467 29.4619 625.764 29.1064C626.06 28.7464 626.208 28.1585 626.208 27.3428C626.208 26.5817 626.055 26.0166 625.75 25.6475C625.445 25.2783 625.066 25.0938 624.615 25.0938C624.146 25.0938 623.756 25.276 623.446 25.6406C623.136 26.0007 622.981 26.5361 622.981 27.2471ZM629.25 27.2676C629.25 26.6296 629.407 26.012 629.722 25.415C630.036 24.818 630.48 24.3623 631.055 24.0479C631.633 23.7334 632.278 23.5762 632.989 23.5762C634.088 23.5762 634.988 23.9339 635.689 24.6494C636.391 25.3604 636.742 26.2604 636.742 27.3496C636.742 28.4479 636.387 29.3594 635.676 30.084C634.969 30.804 634.078 31.1641 633.003 31.1641C632.338 31.1641 631.702 31.0137 631.096 30.7129C630.494 30.4121 630.036 29.9723 629.722 29.3936C629.407 28.8102 629.25 28.1016 629.25 27.2676ZM631.219 27.3701C631.219 28.0902 631.39 28.6416 631.731 29.0244C632.073 29.4072 632.495 29.5986 632.996 29.5986C633.497 29.5986 633.917 29.4072 634.254 29.0244C634.596 28.6416 634.767 28.0856 634.767 27.3564C634.767 26.6455 634.596 26.0986 634.254 25.7158C633.917 25.333 633.497 25.1416 632.996 25.1416C632.495 25.1416 632.073 25.333 631.731 25.7158C631.39 26.0986 631.219 26.6501 631.219 27.3701ZM637.576 28.9287L639.504 28.6348C639.586 29.0085 639.752 29.2933 640.003 29.4893C640.254 29.6807 640.604 29.7764 641.056 29.7764C641.552 29.7764 641.926 29.6852 642.177 29.5029C642.345 29.3753 642.43 29.2044 642.43 28.9902C642.43 28.8444 642.384 28.7236 642.293 28.6279C642.197 28.5368 641.983 28.4525 641.65 28.375C640.101 28.0332 639.119 27.721 638.704 27.4385C638.13 27.0465 637.843 26.502 637.843 25.8047C637.843 25.1758 638.091 24.6471 638.588 24.2188C639.085 23.7904 639.855 23.5762 640.898 23.5762C641.892 23.5762 642.63 23.738 643.113 24.0615C643.596 24.3851 643.929 24.8636 644.111 25.4971L642.3 25.832C642.222 25.5495 642.074 25.333 641.855 25.1826C641.641 25.0322 641.334 24.957 640.933 24.957C640.427 24.957 640.064 25.0277 639.846 25.1689C639.7 25.2692 639.627 25.3991 639.627 25.5586C639.627 25.6953 639.691 25.8115 639.818 25.9072C639.992 26.0348 640.589 26.2148 641.609 26.4473C642.635 26.6797 643.35 26.9645 643.756 27.3018C644.157 27.6436 644.357 28.1198 644.357 28.7305C644.357 29.3958 644.079 29.9678 643.523 30.4463C642.967 30.9248 642.145 31.1641 641.056 31.1641C640.067 31.1641 639.283 30.9635 638.704 30.5625C638.13 30.1615 637.754 29.6169 637.576 28.9287ZM647.481 25.9551L645.738 25.6406C645.934 24.9388 646.271 24.4193 646.75 24.082C647.229 23.7448 647.939 23.5762 648.883 23.5762C649.74 23.5762 650.378 23.6787 650.797 23.8838C651.216 24.0843 651.51 24.3418 651.679 24.6562C651.852 24.9661 651.938 25.5381 651.938 26.3721L651.918 28.6143C651.918 29.2523 651.948 29.724 652.007 30.0293C652.071 30.3301 652.187 30.6536 652.355 31H650.455C650.405 30.8724 650.343 30.6833 650.271 30.4326C650.239 30.3187 650.216 30.2435 650.202 30.207C649.874 30.526 649.523 30.7653 649.149 30.9248C648.776 31.0843 648.377 31.1641 647.953 31.1641C647.206 31.1641 646.616 30.9613 646.183 30.5557C645.754 30.1501 645.54 29.6374 645.54 29.0176C645.54 28.6074 645.638 28.2428 645.834 27.9238C646.03 27.6003 646.303 27.3542 646.654 27.1855C647.01 27.0124 647.52 26.862 648.186 26.7344C649.083 26.5658 649.705 26.4085 650.052 26.2627V26.0713C650.052 25.7021 649.961 25.4401 649.778 25.2852C649.596 25.1257 649.252 25.0459 648.746 25.0459C648.404 25.0459 648.138 25.1143 647.946 25.251C647.755 25.3831 647.6 25.6178 647.481 25.9551ZM650.052 27.5137C649.806 27.5957 649.416 27.6937 648.883 27.8076C648.35 27.9215 648.001 28.0332 647.837 28.1426C647.586 28.3203 647.461 28.5459 647.461 28.8193C647.461 29.0882 647.561 29.3206 647.762 29.5166C647.962 29.7126 648.217 29.8105 648.527 29.8105C648.874 29.8105 649.204 29.6966 649.519 29.4688C649.751 29.2956 649.904 29.0837 649.977 28.833C650.027 28.6689 650.052 28.3568 650.052 27.8965V27.5137ZM660.442 31H658.521V27.2949C658.521 26.5111 658.48 26.0052 658.398 25.7773C658.316 25.5449 658.182 25.3649 657.995 25.2373C657.813 25.1097 657.592 25.0459 657.332 25.0459C656.999 25.0459 656.701 25.137 656.437 25.3193C656.172 25.5016 655.99 25.7432 655.89 26.0439C655.794 26.3447 655.746 26.9007 655.746 27.7119V31H653.825V23.7402H655.609V24.8066C656.243 23.9863 657.04 23.5762 658.002 23.5762C658.426 23.5762 658.813 23.6536 659.164 23.8086C659.515 23.959 659.779 24.1527 659.957 24.3896C660.139 24.6266 660.265 24.8955 660.333 25.1963C660.406 25.4971 660.442 25.9277 660.442 26.4883V31ZM665.727 23.7402V25.2715H664.414V28.1973C664.414 28.7897 664.425 29.1361 664.448 29.2363C664.476 29.332 664.533 29.4118 664.619 29.4756C664.71 29.5394 664.82 29.5713 664.947 29.5713C665.125 29.5713 665.382 29.5098 665.72 29.3867L665.884 30.877C665.437 31.0684 664.931 31.1641 664.366 31.1641C664.02 31.1641 663.708 31.1071 663.43 30.9932C663.152 30.8747 662.947 30.7243 662.814 30.542C662.687 30.3551 662.598 30.1045 662.548 29.79C662.507 29.5667 662.486 29.1156 662.486 28.4365V25.2715H661.604V23.7402H662.486V22.2979L664.414 21.1768V23.7402H665.727Z" fill="#201F1F"/>
<path d="M24 52.5H688C692.142 52.5 695.5 55.8579 695.5 60V120C695.5 124.142 692.142 127.5 688 127.5H24C19.8579 127.5 16.5 124.142 16.5 120V60L16.5098 59.6143C16.7105 55.6514 19.9872 52.5 24 52.5Z" fill="white"/>
<path d="M24 52.5H688C692.142 52.5 695.5 55.8579 695.5 60V120C695.5 124.142 692.142 127.5 688 127.5H24C19.8579 127.5 16.5 124.142 16.5 120V60L16.5098 59.6143C16.7105 55.6514 19.9872 52.5 24 52.5Z" stroke="#A1A1A0"/>
<g clip-path="url(#clip0_968_8672)">
<mask id="path-7-inside-1_968_8672" fill="white">
<path d="M32 90C32 78.9543 40.9543 70 52 70H117C128.046 70 137 78.9543 137 90C137 101.046 128.046 110 117 110H52C40.9543 110 32 101.046 32 90Z"/>
</mask>
<path d="M32 90C32 78.9543 40.9543 70 52 70H117C128.046 70 137 78.9543 137 90C137 101.046 128.046 110 117 110H52C40.9543 110 32 101.046 32 90Z" fill="white"/>
<path d="M52 70V71H117V70V69H52V70ZM117 110V109H52V110V111H117V110ZM52 110V109C41.5066 109 33 100.493 33 90H32H31C31 101.598 40.402 111 52 111V110ZM137 90H136C136 100.493 127.493 109 117 109V110V111C128.598 111 138 101.598 138 90H137ZM117 70V71C127.493 71 136 79.5066 136 90H137H138C138 78.402 128.598 69 117 69V70ZM52 70V69C40.402 69 31 78.402 31 90H32H33C33 79.5066 41.5066 71 52 71V70Z" fill="#A1A1A0" mask="url(#path-7-inside-1_968_8672)"/>
<circle cx="56" cy="90" r="12" fill="#2964A0"/>
<path d="M76.6035 94.1465L77.1133 91.6504H76.123V90.7773H77.2891L77.7227 88.6504H76.123V87.7773H77.8984L78.4082 85.2637H79.2871L78.7773 87.7773H80.623L81.1328 85.2637H82.0176L81.5078 87.7773H82.5215V88.6504H81.332L80.8926 90.7773H82.5215V91.6504H80.7168L80.207 94.1465H79.3281L79.832 91.6504H77.9922L77.4824 94.1465H76.6035ZM78.168 90.7773H80.0078L80.4473 88.6504H78.6016L78.168 90.7773ZM88.7207 92.9863V94H83.043C83.0352 93.7461 83.0762 93.502 83.166 93.2676C83.3105 92.8809 83.541 92.5 83.8574 92.125C84.1777 91.75 84.6387 91.3164 85.2402 90.8242C86.1738 90.0586 86.8047 89.4531 87.1328 89.0078C87.4609 88.5586 87.625 88.1348 87.625 87.7363C87.625 87.3184 87.4746 86.9668 87.1738 86.6816C86.877 86.3926 86.4883 86.248 86.0078 86.248C85.5 86.248 85.0938 86.4004 84.7891 86.7051C84.4844 87.0098 84.3301 87.4316 84.3262 87.9707L83.2422 87.8594C83.3164 87.0508 83.5957 86.4355 84.0801 86.0137C84.5645 85.5879 85.2148 85.375 86.0312 85.375C86.8555 85.375 87.5078 85.6035 87.9883 86.0605C88.4688 86.5176 88.709 87.084 88.709 87.7598C88.709 88.1035 88.6387 88.4414 88.498 88.7734C88.3574 89.1055 88.123 89.4551 87.7949 89.8223C87.4707 90.1895 86.9297 90.6934 86.1719 91.334C85.5391 91.8652 85.1328 92.2266 84.9531 92.418C84.7734 92.6055 84.625 92.7949 84.5078 92.9863H88.7207ZM90.0156 92.0137L91.0293 91.9199C91.1152 92.3965 91.2793 92.7422 91.5215 92.957C91.7637 93.1719 92.0742 93.2793 92.4531 93.2793C92.7773 93.2793 93.0605 93.2051 93.3027 93.0566C93.5488 92.9082 93.75 92.7109 93.9062 92.4648C94.0625 92.2148 94.1934 91.8789 94.2988 91.457C94.4043 91.0352 94.457 90.6055 94.457 90.168C94.457 90.1211 94.4551 90.0508 94.4512 89.957C94.2402 90.293 93.9512 90.5664 93.584 90.7773C93.2207 90.9844 92.8262 91.0879 92.4004 91.0879C91.6895 91.0879 91.0879 90.8301 90.5957 90.3145C90.1035 89.7988 89.8574 89.1191 89.8574 88.2754C89.8574 87.4043 90.1133 86.7031 90.625 86.1719C91.1406 85.6406 91.7852 85.375 92.5586 85.375C93.1172 85.375 93.627 85.5254 94.0879 85.8262C94.5527 86.127 94.9043 86.5566 95.1426 87.1152C95.3848 87.6699 95.5059 88.4746 95.5059 89.5293C95.5059 90.627 95.3867 91.502 95.1484 92.1543C94.9102 92.8027 94.5547 93.2969 94.082 93.6367C93.6133 93.9766 93.0625 94.1465 92.4297 94.1465C91.7578 94.1465 91.209 93.9609 90.7832 93.5898C90.3574 93.2148 90.1016 92.6895 90.0156 92.0137ZM94.334 88.2227C94.334 87.6172 94.1719 87.1367 93.8477 86.7812C93.5273 86.4258 93.1406 86.248 92.6875 86.248C92.2188 86.248 91.8105 86.4395 91.4629 86.8223C91.1152 87.2051 90.9414 87.7012 90.9414 88.3105C90.9414 88.8574 91.1055 89.3027 91.4336 89.6465C91.7656 89.9863 92.1738 90.1562 92.6582 90.1562C93.1465 90.1562 93.5469 89.9863 93.8594 89.6465C94.1758 89.3027 94.334 88.8281 94.334 88.2227ZM102.01 87.5137L100.961 87.5957C100.867 87.1816 100.734 86.8809 100.562 86.6934C100.277 86.3926 99.9258 86.2422 99.5078 86.2422C99.1719 86.2422 98.877 86.3359 98.623 86.5234C98.291 86.7656 98.0293 87.1191 97.8379 87.584C97.6465 88.0488 97.5469 88.7109 97.5391 89.5703C97.793 89.1836 98.1035 88.8965 98.4707 88.709C98.8379 88.5215 99.2227 88.4277 99.625 88.4277C100.328 88.4277 100.926 88.6875 101.418 89.207C101.914 89.7227 102.162 90.3906 102.162 91.2109C102.162 91.75 102.045 92.252 101.811 92.7168C101.58 93.1777 101.262 93.5312 100.855 93.7773C100.449 94.0234 99.9883 94.1465 99.4727 94.1465C98.5938 94.1465 97.877 93.8242 97.3223 93.1797C96.7676 92.5312 96.4902 91.4648 96.4902 89.9805C96.4902 88.3203 96.7969 87.1133 97.4102 86.3594C97.9453 85.7031 98.666 85.375 99.5723 85.375C100.248 85.375 100.801 85.5645 101.23 85.9434C101.664 86.3223 101.924 86.8457 102.01 87.5137ZM97.7031 91.2168C97.7031 91.5801 97.7793 91.9277 97.9316 92.2598C98.0879 92.5918 98.3047 92.8457 98.582 93.0215C98.8594 93.1934 99.1504 93.2793 99.4551 93.2793C99.9004 93.2793 100.283 93.0996 100.604 92.7402C100.924 92.3809 101.084 91.8926 101.084 91.2754C101.084 90.6816 100.926 90.2148 100.609 89.875C100.293 89.5312 99.8945 89.3594 99.4141 89.3594C98.9375 89.3594 98.5332 89.5312 98.2012 89.875C97.8691 90.2148 97.7031 90.6621 97.7031 91.2168ZM106.598 94V91.9434H102.871V90.9766L106.791 85.4102H107.652V90.9766H108.812V91.9434H107.652V94H106.598ZM106.598 90.9766V87.1035L103.908 90.9766H106.598ZM109.381 94L112.68 85.4102H113.904L117.42 94H116.125L115.123 91.3984H111.531L110.588 94H109.381ZM111.859 90.4727H114.771L113.875 88.0938C113.602 87.3711 113.398 86.7773 113.266 86.3125C113.156 86.8633 113.002 87.4102 112.803 87.9531L111.859 90.4727ZM117.9 89.7637C117.9 88.748 118.004 87.9316 118.211 87.3145C118.422 86.6934 118.732 86.2148 119.143 85.8789C119.557 85.543 120.076 85.375 120.701 85.375C121.162 85.375 121.566 85.4688 121.914 85.6562C122.262 85.8398 122.549 86.1074 122.775 86.459C123.002 86.8066 123.18 87.2324 123.309 87.7363C123.438 88.2363 123.502 88.9121 123.502 89.7637C123.502 90.7715 123.398 91.5859 123.191 92.207C122.984 92.8242 122.674 93.3027 122.26 93.6426C121.85 93.9785 121.33 94.1465 120.701 94.1465C119.873 94.1465 119.223 93.8496 118.75 93.2559C118.184 92.541 117.9 91.377 117.9 89.7637ZM118.984 89.7637C118.984 91.1738 119.148 92.1133 119.477 92.582C119.809 93.0469 120.217 93.2793 120.701 93.2793C121.186 93.2793 121.592 93.0449 121.92 92.5762C122.252 92.1074 122.418 91.1699 122.418 89.7637C122.418 88.3496 122.252 87.4102 121.92 86.9453C121.592 86.4805 121.182 86.248 120.689 86.248C120.205 86.248 119.818 86.4531 119.529 86.8633C119.166 87.3867 118.984 88.3535 118.984 89.7637Z" fill="#3E3E3D"/>
</g>
<path d="M172.187 90.3536C172.382 90.1583 172.382 89.8417 172.187 89.6464L169.005 86.4645C168.81 86.2692 168.493 86.2692 168.298 86.4645C168.102 86.6597 168.102 86.9763 168.298 87.1716L171.126 90L168.298 92.8284C168.102 93.0237 168.102 93.3403 168.298 93.5355C168.493 93.7308 168.81 93.7308 169.005 93.5355L172.187 90.3536ZM135.833 90V90.5H171.833V90V89.5H135.833V90Z" fill="#A1A1A0"/>
<g clip-path="url(#clip1_968_8672)">
<mask id="path-12-inside-2_968_8672" fill="white">
<path d="M170.667 90C170.667 78.9543 179.621 70 190.667 70H299.667C310.712 70 319.667 78.9543 319.667 90C319.667 101.046 310.712 110 299.667 110H190.667C179.621 110 170.667 101.046 170.667 90Z"/>
</mask>
<path d="M170.667 90C170.667 78.9543 179.621 70 190.667 70H299.667C310.712 70 319.667 78.9543 319.667 90C319.667 101.046 310.712 110 299.667 110H190.667C179.621 110 170.667 101.046 170.667 90Z" fill="white"/>
<path d="M190.667 70V71H299.667V70V69H190.667V70ZM299.667 110V109H190.667V110V111H299.667V110ZM190.667 110V109C180.173 109 171.667 100.493 171.667 90H170.667H169.667C169.667 101.598 179.069 111 190.667 111V110ZM319.667 90H318.667C318.667 100.493 310.16 109 299.667 109V110V111C311.265 111 320.667 101.598 320.667 90H319.667ZM299.667 70V71C310.16 71 318.667 79.5066 318.667 90H319.667H320.667C320.667 78.402 311.265 69 299.667 69V70ZM190.667 70V69C179.069 69 169.667 78.402 169.667 90H170.667H171.667C171.667 79.5066 180.173 71 190.667 71V70Z" fill="#A1A1A0" mask="url(#path-12-inside-2_968_8672)"/>
<circle cx="194.667" cy="90" r="12" fill="#2964A0"/>
<path d="M216.43 94H215.452V85.4102H216.507V88.4746C216.952 87.916 217.52 87.6367 218.212 87.6367C218.594 87.6367 218.956 87.7148 219.296 87.8711C219.639 88.0234 219.921 88.2402 220.139 88.5215C220.362 88.7988 220.536 89.1348 220.661 89.5293C220.786 89.9238 220.848 90.3457 220.848 90.7949C220.848 91.8613 220.585 92.6855 220.057 93.2676C219.53 93.8496 218.897 94.1406 218.159 94.1406C217.425 94.1406 216.848 93.834 216.43 93.2207V94ZM216.419 90.8418C216.419 91.5879 216.52 92.127 216.723 92.459C217.055 93.002 217.505 93.2734 218.071 93.2734C218.532 93.2734 218.93 93.0742 219.266 92.6758C219.602 92.2734 219.77 91.6758 219.77 90.8828C219.77 90.0703 219.608 89.4707 219.284 89.084C218.964 88.6973 218.575 88.5039 218.118 88.5039C217.657 88.5039 217.259 88.7051 216.923 89.1074C216.587 89.5059 216.419 90.084 216.419 90.8418ZM222.114 94V85.4102H223.169V94H222.114ZM229.069 91.9961L230.159 92.1309C229.987 92.7676 229.669 93.2617 229.204 93.6133C228.739 93.9648 228.145 94.1406 227.423 94.1406C226.512 94.1406 225.79 93.8613 225.255 93.3027C224.723 92.7402 224.458 91.9531 224.458 90.9414C224.458 89.8945 224.727 89.082 225.266 88.5039C225.805 87.9258 226.505 87.6367 227.364 87.6367C228.196 87.6367 228.876 87.9199 229.403 88.4863C229.93 89.0527 230.194 89.8496 230.194 90.877C230.194 90.9395 230.192 91.0332 230.188 91.1582H225.548C225.587 91.8418 225.78 92.3652 226.128 92.7285C226.475 93.0918 226.909 93.2734 227.428 93.2734C227.815 93.2734 228.145 93.1719 228.419 92.9688C228.692 92.7656 228.909 92.4414 229.069 91.9961ZM225.606 90.291H229.081C229.034 89.7676 228.901 89.375 228.682 89.1133C228.346 88.707 227.911 88.5039 227.376 88.5039C226.891 88.5039 226.483 88.666 226.151 88.9902C225.823 89.3145 225.641 89.748 225.606 90.291ZM235.567 94V93.0859C235.083 93.7891 234.425 94.1406 233.593 94.1406C233.225 94.1406 232.882 94.0703 232.561 93.9297C232.245 93.7891 232.009 93.6133 231.852 93.4023C231.7 93.1875 231.593 92.9258 231.53 92.6172C231.487 92.4102 231.466 92.082 231.466 91.6328V87.7773H232.52V91.2285C232.52 91.7793 232.542 92.1504 232.585 92.3418C232.651 92.6191 232.792 92.8379 233.007 92.998C233.221 93.1543 233.487 93.2324 233.803 93.2324C234.12 93.2324 234.417 93.1523 234.694 92.9922C234.971 92.8281 235.167 92.6074 235.28 92.3301C235.397 92.0488 235.456 91.6426 235.456 91.1113V87.7773H236.51V94H235.567ZM237.196 96.3848V95.623H244.186V96.3848H237.196ZM244.854 86.623V85.4102H245.909V86.623H244.854ZM244.854 94V87.7773H245.909V94H244.854ZM251.581 91.7207L252.618 91.8555C252.505 92.5703 252.214 93.1309 251.745 93.5371C251.28 93.9395 250.708 94.1406 250.028 94.1406C249.177 94.1406 248.491 93.8633 247.971 93.3086C247.456 92.75 247.198 91.9512 247.198 90.9121C247.198 90.2402 247.309 89.6523 247.532 89.1484C247.755 88.6445 248.093 88.2676 248.546 88.0176C249.003 87.7637 249.499 87.6367 250.034 87.6367C250.71 87.6367 251.262 87.8086 251.692 88.1523C252.122 88.4922 252.397 88.9766 252.518 89.6055L251.493 89.7637C251.395 89.3457 251.221 89.0312 250.971 88.8203C250.725 88.6094 250.427 88.5039 250.075 88.5039C249.544 88.5039 249.112 88.6953 248.78 89.0781C248.448 89.457 248.282 90.0586 248.282 90.8828C248.282 91.7188 248.442 92.3262 248.762 92.7051C249.083 93.084 249.501 93.2734 250.016 93.2734C250.43 93.2734 250.776 93.1465 251.053 92.8926C251.331 92.6387 251.507 92.248 251.581 91.7207ZM257.78 91.9961L258.87 92.1309C258.698 92.7676 258.38 93.2617 257.915 93.6133C257.45 93.9648 256.856 94.1406 256.134 94.1406C255.223 94.1406 254.501 93.8613 253.966 93.3027C253.434 92.7402 253.169 91.9531 253.169 90.9414C253.169 89.8945 253.438 89.082 253.977 88.5039C254.516 87.9258 255.216 87.6367 256.075 87.6367C256.907 87.6367 257.587 87.9199 258.114 88.4863C258.641 89.0527 258.905 89.8496 258.905 90.877C258.905 90.9395 258.903 91.0332 258.899 91.1582H254.259C254.298 91.8418 254.491 92.3652 254.839 92.7285C255.186 93.0918 255.62 93.2734 256.139 93.2734C256.526 93.2734 256.856 93.1719 257.13 92.9688C257.403 92.7656 257.62 92.4414 257.78 91.9961ZM254.317 90.291H257.792C257.745 89.7676 257.612 89.375 257.393 89.1133C257.057 88.707 256.622 88.5039 256.087 88.5039C255.602 88.5039 255.194 88.666 254.862 88.9902C254.534 89.3145 254.352 89.748 254.317 90.291ZM261.173 94H260.194V85.4102H261.249V88.4746C261.694 87.916 262.262 87.6367 262.954 87.6367C263.337 87.6367 263.698 87.7148 264.038 87.8711C264.382 88.0234 264.663 88.2402 264.882 88.5215C265.104 88.7988 265.278 89.1348 265.403 89.5293C265.528 89.9238 265.591 90.3457 265.591 90.7949C265.591 91.8613 265.327 92.6855 264.8 93.2676C264.272 93.8496 263.639 94.1406 262.901 94.1406C262.167 94.1406 261.591 93.834 261.173 93.2207V94ZM261.161 90.8418C261.161 91.5879 261.262 92.127 261.466 92.459C261.798 93.002 262.247 93.2734 262.813 93.2734C263.274 93.2734 263.673 93.0742 264.009 92.6758C264.344 92.2734 264.512 91.6758 264.512 90.8828C264.512 90.0703 264.35 89.4707 264.026 89.084C263.706 88.6973 263.317 88.5039 262.86 88.5039C262.399 88.5039 262.001 88.7051 261.665 89.1074C261.329 89.5059 261.161 90.084 261.161 90.8418ZM271.139 91.9961L272.229 92.1309C272.057 92.7676 271.739 93.2617 271.274 93.6133C270.809 93.9648 270.216 94.1406 269.493 94.1406C268.583 94.1406 267.86 93.8613 267.325 93.3027C266.794 92.7402 266.528 91.9531 266.528 90.9414C266.528 89.8945 266.798 89.082 267.337 88.5039C267.876 87.9258 268.575 87.6367 269.434 87.6367C270.266 87.6367 270.946 87.9199 271.473 88.4863C272.001 89.0527 272.264 89.8496 272.264 90.877C272.264 90.9395 272.262 91.0332 272.259 91.1582H267.618C267.657 91.8418 267.85 92.3652 268.198 92.7285C268.546 93.0918 268.979 93.2734 269.499 93.2734C269.885 93.2734 270.216 93.1719 270.489 92.9688C270.762 92.7656 270.979 92.4414 271.139 91.9961ZM267.677 90.291H271.151C271.104 89.7676 270.971 89.375 270.753 89.1133C270.417 88.707 269.981 88.5039 269.446 88.5039C268.962 88.5039 268.553 88.666 268.221 88.9902C267.893 89.3145 267.712 89.748 267.677 90.291ZM273.548 94V87.7773H274.497V88.7207C274.739 88.2793 274.962 87.9883 275.165 87.8477C275.372 87.707 275.598 87.6367 275.844 87.6367C276.2 87.6367 276.561 87.75 276.928 87.9766L276.565 88.9551C276.307 88.8027 276.05 88.7266 275.792 88.7266C275.561 88.7266 275.354 88.7969 275.171 88.9375C274.987 89.0742 274.856 89.2656 274.778 89.5117C274.661 89.8867 274.602 90.2969 274.602 90.7422V94H273.548ZM277.362 94.5156L278.387 94.668C278.43 94.9844 278.55 95.2148 278.745 95.3594C279.007 95.5547 279.364 95.6523 279.817 95.6523C280.305 95.6523 280.682 95.5547 280.948 95.3594C281.214 95.1641 281.393 94.8906 281.487 94.5391C281.542 94.3242 281.567 93.873 281.563 93.1855C281.102 93.7285 280.528 94 279.841 94C278.985 94 278.323 93.6914 277.854 93.0742C277.385 92.457 277.151 91.7168 277.151 90.8535C277.151 90.2598 277.259 89.7129 277.473 89.2129C277.688 88.709 277.999 88.3203 278.405 88.0469C278.815 87.7734 279.296 87.6367 279.846 87.6367C280.581 87.6367 281.186 87.9336 281.663 88.5273V87.7773H282.635V93.1562C282.635 94.125 282.536 94.8105 282.337 95.2129C282.141 95.6191 281.829 95.9395 281.399 96.1738C280.973 96.4082 280.448 96.5254 279.823 96.5254C279.081 96.5254 278.481 96.3574 278.024 96.0215C277.567 95.6895 277.346 95.1875 277.362 94.5156ZM278.235 90.7773C278.235 91.5938 278.397 92.1895 278.721 92.5645C279.046 92.9395 279.452 93.127 279.94 93.127C280.425 93.127 280.831 92.9414 281.159 92.5703C281.487 92.1953 281.651 91.6094 281.651 90.8125C281.651 90.0508 281.481 89.4766 281.141 89.0898C280.805 88.7031 280.399 88.5098 279.923 88.5098C279.454 88.5098 279.055 88.7012 278.727 89.084C278.399 89.4629 278.235 90.0273 278.235 90.7773ZM283.444 94.1465L285.934 85.2637H286.778L284.294 94.1465H283.444ZM292.755 87.5137L291.706 87.5957C291.612 87.1816 291.479 86.8809 291.307 86.6934C291.022 86.3926 290.671 86.2422 290.253 86.2422C289.917 86.2422 289.622 86.3359 289.368 86.5234C289.036 86.7656 288.774 87.1191 288.583 87.584C288.391 88.0488 288.292 88.7109 288.284 89.5703C288.538 89.1836 288.848 88.8965 289.216 88.709C289.583 88.5215 289.968 88.4277 290.37 88.4277C291.073 88.4277 291.671 88.6875 292.163 89.207C292.659 89.7227 292.907 90.3906 292.907 91.2109C292.907 91.75 292.79 92.252 292.555 92.7168C292.325 93.1777 292.007 93.5312 291.6 93.7773C291.194 94.0234 290.733 94.1465 290.218 94.1465C289.339 94.1465 288.622 93.8242 288.067 93.1797C287.512 92.5312 287.235 91.4648 287.235 89.9805C287.235 88.3203 287.542 87.1133 288.155 86.3594C288.69 85.7031 289.411 85.375 290.317 85.375C290.993 85.375 291.546 85.5645 291.975 85.9434C292.409 86.3223 292.669 86.8457 292.755 87.5137ZM288.448 91.2168C288.448 91.5801 288.524 91.9277 288.677 92.2598C288.833 92.5918 289.05 92.8457 289.327 93.0215C289.604 93.1934 289.895 93.2793 290.2 93.2793C290.645 93.2793 291.028 93.0996 291.348 92.7402C291.669 92.3809 291.829 91.8926 291.829 91.2754C291.829 90.6816 291.671 90.2148 291.354 89.875C291.038 89.5312 290.639 89.3594 290.159 89.3594C289.682 89.3594 289.278 89.5312 288.946 89.875C288.614 90.2148 288.448 90.6621 288.448 91.2168ZM293.962 89.7637C293.962 88.748 294.065 87.9316 294.272 87.3145C294.483 86.6934 294.794 86.2148 295.204 85.8789C295.618 85.543 296.137 85.375 296.762 85.375C297.223 85.375 297.628 85.4688 297.975 85.6562C298.323 85.8398 298.61 86.1074 298.837 86.459C299.063 86.8066 299.241 87.2324 299.37 87.7363C299.499 88.2363 299.563 88.9121 299.563 89.7637C299.563 90.7715 299.46 91.5859 299.253 92.207C299.046 92.8242 298.735 93.3027 298.321 93.6426C297.911 93.9785 297.391 94.1465 296.762 94.1465C295.934 94.1465 295.284 93.8496 294.811 93.2559C294.245 92.541 293.962 91.377 293.962 89.7637ZM295.046 89.7637C295.046 91.1738 295.21 92.1133 295.538 92.582C295.87 93.0469 296.278 93.2793 296.762 93.2793C297.247 93.2793 297.653 93.0449 297.981 92.5762C298.313 92.1074 298.479 91.1699 298.479 89.7637C298.479 88.3496 298.313 87.4102 297.981 86.9453C297.653 86.4805 297.243 86.248 296.751 86.248C296.266 86.248 295.88 86.4531 295.591 86.8633C295.227 87.3867 295.046 88.3535 295.046 89.7637ZM300.641 89.7637C300.641 88.748 300.745 87.9316 300.952 87.3145C301.163 86.6934 301.473 86.2148 301.884 85.8789C302.298 85.543 302.817 85.375 303.442 85.375C303.903 85.375 304.307 85.4688 304.655 85.6562C305.003 85.8398 305.29 86.1074 305.516 86.459C305.743 86.8066 305.921 87.2324 306.05 87.7363C306.178 88.2363 306.243 88.9121 306.243 89.7637C306.243 90.7715 306.139 91.5859 305.932 92.207C305.725 92.8242 305.415 93.3027 305.001 93.6426C304.591 93.9785 304.071 94.1465 303.442 94.1465C302.614 94.1465 301.964 93.8496 301.491 93.2559C300.925 92.541 300.641 91.377 300.641 89.7637ZM301.725 89.7637C301.725 91.1738 301.889 92.1133 302.218 92.582C302.55 93.0469 302.958 93.2793 303.442 93.2793C303.927 93.2793 304.333 93.0449 304.661 92.5762C304.993 92.1074 305.159 91.1699 305.159 89.7637C305.159 88.3496 304.993 87.4102 304.661 86.9453C304.333 86.4805 303.923 86.248 303.43 86.248C302.946 86.248 302.559 86.4531 302.27 86.8633C301.907 87.3867 301.725 88.3535 301.725 89.7637Z" fill="#3E3E3D"/>
</g>
<path d="M354.854 90.3536C355.049 90.1583 355.049 89.8417 354.854 89.6464L351.672 86.4645C351.476 86.2692 351.16 86.2692 350.964 86.4645C350.769 86.6597 350.769 86.9763 350.964 87.1716L353.793 90L350.964 92.8284C350.769 93.0237 350.769 93.3403 350.964 93.5355C351.16 93.7308 351.476 93.7308 351.672 93.5355L354.854 90.3536ZM318.5 90V90.5H354.5V90V89.5H318.5V90Z" fill="#A1A1A0"/>
<mask id="path-17-inside-3_968_8672" fill="white">
<path d="M353.333 90C353.333 78.9543 362.288 70 373.333 70H529.333C540.379 70 549.333 78.9543 549.333 90C549.333 101.046 540.379 110 529.333 110H373.333C362.288 110 353.333 101.046 353.333 90Z"/>
</mask>
<path d="M353.333 90C353.333 78.9543 362.288 70 373.333 70H529.333C540.379 70 549.333 78.9543 549.333 90C549.333 101.046 540.379 110 529.333 110H373.333C362.288 110 353.333 101.046 353.333 90Z" fill="white"/>
<path d="M373.333 70V71H529.333V70V69H373.333V70ZM529.333 110V109H373.333V110V111H529.333V110ZM373.333 110V109C362.84 109 354.333 100.493 354.333 90H353.333H352.333C352.333 101.598 361.735 111 373.333 111V110ZM549.333 90H548.333C548.333 100.493 539.827 109 529.333 109V110V111C540.931 111 550.333 101.598 550.333 90H549.333ZM529.333 70V71C539.827 71 548.333 79.5066 548.333 90H549.333H550.333C550.333 78.402 540.931 69 529.333 69V70ZM373.333 70V69C361.735 69 352.333 78.402 352.333 90H353.333H354.333C354.333 79.5066 362.84 71 373.333 71V70Z" fill="#A1A1A0" mask="url(#path-17-inside-3_968_8672)"/>
<circle cx="377.333" cy="90" r="12" fill="#2964A0"/>
<path d="M399.097 94H398.118V85.4102H399.173V88.4746C399.618 87.916 400.187 87.6367 400.878 87.6367C401.261 87.6367 401.622 87.7148 401.962 87.8711C402.306 88.0234 402.587 88.2402 402.806 88.5215C403.029 88.7988 403.202 89.1348 403.327 89.5293C403.452 89.9238 403.515 90.3457 403.515 90.7949C403.515 91.8613 403.251 92.6855 402.724 93.2676C402.197 93.8496 401.564 94.1406 400.825 94.1406C400.091 94.1406 399.515 93.834 399.097 93.2207V94ZM399.085 90.8418C399.085 91.5879 399.187 92.127 399.39 92.459C399.722 93.002 400.171 93.2734 400.738 93.2734C401.198 93.2734 401.597 93.0742 401.933 92.6758C402.269 92.2734 402.437 91.6758 402.437 90.8828C402.437 90.0703 402.275 89.4707 401.95 89.084C401.63 88.6973 401.241 88.5039 400.784 88.5039C400.323 88.5039 399.925 88.7051 399.589 89.1074C399.253 89.5059 399.085 90.084 399.085 90.8418ZM408.865 93.2324C408.474 93.5645 408.097 93.7988 407.734 93.9355C407.374 94.0723 406.988 94.1406 406.573 94.1406C405.89 94.1406 405.365 93.9746 404.997 93.6426C404.63 93.3066 404.447 92.8789 404.447 92.3594C404.447 92.0547 404.515 91.7773 404.652 91.5273C404.792 91.2734 404.974 91.0703 405.197 90.918C405.423 90.7656 405.677 90.6504 405.958 90.5723C406.165 90.5176 406.478 90.4648 406.896 90.4141C407.747 90.3125 408.374 90.1914 408.777 90.0508C408.781 89.9062 408.782 89.8145 408.782 89.7754C408.782 89.3457 408.683 89.043 408.484 88.8672C408.214 88.6289 407.814 88.5098 407.282 88.5098C406.786 88.5098 406.419 88.5977 406.181 88.7734C405.947 88.9453 405.773 89.252 405.659 89.6934L404.628 89.5527C404.722 89.1113 404.876 88.7559 405.091 88.4863C405.306 88.2129 405.616 88.0039 406.023 87.8594C406.429 87.7109 406.9 87.6367 407.435 87.6367C407.966 87.6367 408.398 87.6992 408.73 87.8242C409.062 87.9492 409.306 88.1074 409.462 88.2988C409.618 88.4863 409.728 88.7246 409.79 89.0137C409.825 89.1934 409.843 89.5176 409.843 89.9863V91.3926C409.843 92.373 409.865 92.9941 409.907 93.2559C409.954 93.5137 410.044 93.7617 410.177 94H409.075C408.966 93.7812 408.896 93.5254 408.865 93.2324ZM408.777 90.877C408.394 91.0332 407.82 91.166 407.054 91.2754C406.62 91.3379 406.314 91.4082 406.134 91.4863C405.954 91.5645 405.816 91.6797 405.718 91.832C405.62 91.9805 405.572 92.1465 405.572 92.3301C405.572 92.6113 405.677 92.8457 405.888 93.0332C406.103 93.2207 406.415 93.3145 406.825 93.3145C407.232 93.3145 407.593 93.2266 407.909 93.0508C408.226 92.8711 408.458 92.627 408.607 92.3184C408.72 92.0801 408.777 91.7285 408.777 91.2637V90.877ZM415.544 91.7207L416.581 91.8555C416.468 92.5703 416.177 93.1309 415.708 93.5371C415.243 93.9395 414.671 94.1406 413.991 94.1406C413.14 94.1406 412.454 93.8633 411.935 93.3086C411.419 92.75 411.161 91.9512 411.161 90.9121C411.161 90.2402 411.273 89.6523 411.495 89.1484C411.718 88.6445 412.056 88.2676 412.509 88.0176C412.966 87.7637 413.462 87.6367 413.997 87.6367C414.673 87.6367 415.226 87.8086 415.656 88.1523C416.085 88.4922 416.361 88.9766 416.482 89.6055L415.456 89.7637C415.359 89.3457 415.185 89.0312 414.935 88.8203C414.689 88.6094 414.39 88.5039 414.038 88.5039C413.507 88.5039 413.075 88.6953 412.743 89.0781C412.411 89.457 412.245 90.0586 412.245 90.8828C412.245 91.7188 412.406 92.3262 412.726 92.7051C413.046 93.084 413.464 93.2734 413.98 93.2734C414.394 93.2734 414.74 93.1465 415.017 92.8926C415.294 92.6387 415.47 92.248 415.544 91.7207ZM417.49 94V85.4102H418.544V90.3086L421.04 87.7773H422.406L420.027 90.0859L422.646 94H421.345L419.288 90.8184L418.544 91.5332V94H417.49ZM423.29 94.5156L424.316 94.668C424.359 94.9844 424.478 95.2148 424.673 95.3594C424.935 95.5547 425.292 95.6523 425.745 95.6523C426.234 95.6523 426.611 95.5547 426.876 95.3594C427.142 95.1641 427.322 94.8906 427.415 94.5391C427.47 94.3242 427.495 93.873 427.491 93.1855C427.031 93.7285 426.456 94 425.769 94C424.913 94 424.251 93.6914 423.782 93.0742C423.314 92.457 423.079 91.7168 423.079 90.8535C423.079 90.2598 423.187 89.7129 423.402 89.2129C423.616 88.709 423.927 88.3203 424.333 88.0469C424.743 87.7734 425.224 87.6367 425.775 87.6367C426.509 87.6367 427.115 87.9336 427.591 88.5273V87.7773H428.564V93.1562C428.564 94.125 428.464 94.8105 428.265 95.2129C428.07 95.6191 427.757 95.9395 427.327 96.1738C426.902 96.4082 426.376 96.5254 425.751 96.5254C425.009 96.5254 424.409 96.3574 423.952 96.0215C423.495 95.6895 423.275 95.1875 423.29 94.5156ZM424.163 90.7773C424.163 91.5938 424.325 92.1895 424.65 92.5645C424.974 92.9395 425.38 93.127 425.868 93.127C426.353 93.127 426.759 92.9414 427.087 92.5703C427.415 92.1953 427.579 91.6094 427.579 90.8125C427.579 90.0508 427.409 89.4766 427.07 89.0898C426.734 88.7031 426.327 88.5098 425.851 88.5098C425.382 88.5098 424.984 88.7012 424.656 89.084C424.327 89.4629 424.163 90.0273 424.163 90.7773ZM430.152 94V87.7773H431.101V88.7207C431.343 88.2793 431.566 87.9883 431.769 87.8477C431.976 87.707 432.202 87.6367 432.448 87.6367C432.804 87.6367 433.165 87.75 433.532 87.9766L433.169 88.9551C432.911 88.8027 432.654 88.7266 432.396 88.7266C432.165 88.7266 431.958 88.7969 431.775 88.9375C431.591 89.0742 431.46 89.2656 431.382 89.5117C431.265 89.8867 431.206 90.2969 431.206 90.7422V94H430.152ZM433.767 90.8887C433.767 89.7363 434.087 88.8828 434.728 88.3281C435.263 87.8672 435.915 87.6367 436.685 87.6367C437.54 87.6367 438.24 87.918 438.782 88.4805C439.325 89.0391 439.597 89.8125 439.597 90.8008C439.597 91.6016 439.476 92.2324 439.234 92.6934C438.995 93.1504 438.646 93.5059 438.185 93.7598C437.728 94.0137 437.228 94.1406 436.685 94.1406C435.814 94.1406 435.109 93.8613 434.57 93.3027C434.034 92.7441 433.767 91.9395 433.767 90.8887ZM434.851 90.8887C434.851 91.6855 435.025 92.2832 435.372 92.6816C435.72 93.0762 436.157 93.2734 436.685 93.2734C437.208 93.2734 437.644 93.0742 437.991 92.6758C438.339 92.2773 438.513 91.6699 438.513 90.8535C438.513 90.084 438.337 89.502 437.986 89.1074C437.638 88.709 437.204 88.5098 436.685 88.5098C436.157 88.5098 435.72 88.707 435.372 89.1016C435.025 89.4961 434.851 90.0918 434.851 90.8887ZM444.917 94V93.0859C444.433 93.7891 443.775 94.1406 442.943 94.1406C442.575 94.1406 442.232 94.0703 441.911 93.9297C441.595 93.7891 441.359 93.6133 441.202 93.4023C441.05 93.1875 440.943 92.9258 440.88 92.6172C440.837 92.4102 440.816 92.082 440.816 91.6328V87.7773H441.87V91.2285C441.87 91.7793 441.892 92.1504 441.935 92.3418C442.001 92.6191 442.142 92.8379 442.357 92.998C442.572 93.1543 442.837 93.2324 443.154 93.2324C443.47 93.2324 443.767 93.1523 444.044 92.9922C444.322 92.8281 444.517 92.6074 444.63 92.3301C444.747 92.0488 444.806 91.6426 444.806 91.1113V87.7773H445.861V94H444.917ZM447.519 94V87.7773H448.468V88.6621C448.925 87.9785 449.585 87.6367 450.448 87.6367C450.823 87.6367 451.167 87.7051 451.48 87.8418C451.796 87.9746 452.032 88.1504 452.189 88.3691C452.345 88.5879 452.454 88.8477 452.517 89.1484C452.556 89.3438 452.575 89.6855 452.575 90.1738V94H451.521V90.2148C451.521 89.7852 451.48 89.4648 451.398 89.2539C451.316 89.0391 451.169 88.8691 450.958 88.7441C450.751 88.6152 450.507 88.5508 450.226 88.5508C449.777 88.5508 449.388 88.6934 449.06 88.9785C448.736 89.2637 448.573 89.8047 448.573 90.6016V94H447.519ZM458.236 94V93.2148C457.841 93.832 457.261 94.1406 456.495 94.1406C455.999 94.1406 455.542 94.0039 455.124 93.7305C454.71 93.457 454.388 93.0762 454.157 92.5879C453.931 92.0957 453.818 91.5312 453.818 90.8945C453.818 90.2734 453.921 89.7109 454.128 89.207C454.335 88.6992 454.646 88.3105 455.06 88.041C455.474 87.7715 455.937 87.6367 456.448 87.6367C456.823 87.6367 457.157 87.7168 457.45 87.877C457.743 88.0332 457.982 88.2383 458.165 88.4922V85.4102H459.214V94H458.236ZM454.902 90.8945C454.902 91.6914 455.07 92.2871 455.406 92.6816C455.741 93.0762 456.138 93.2734 456.595 93.2734C457.056 93.2734 457.447 93.0859 457.767 92.7109C458.091 92.332 458.253 91.7559 458.253 90.9824C458.253 90.1309 458.089 89.5059 457.761 89.1074C457.433 88.709 457.029 88.5098 456.548 88.5098C456.079 88.5098 455.687 88.7012 455.37 89.084C455.058 89.4668 454.902 90.0703 454.902 90.8945ZM460.087 94.1465L462.577 85.2637H463.421L460.937 94.1465H460.087ZM465.191 94H464.212V85.4102H465.267V88.4746C465.712 87.916 466.281 87.6367 466.972 87.6367C467.355 87.6367 467.716 87.7148 468.056 87.8711C468.4 88.0234 468.681 88.2402 468.9 88.5215C469.122 88.7988 469.296 89.1348 469.421 89.5293C469.546 89.9238 469.609 90.3457 469.609 90.7949C469.609 91.8613 469.345 92.6855 468.818 93.2676C468.29 93.8496 467.657 94.1406 466.919 94.1406C466.185 94.1406 465.609 93.834 465.191 93.2207V94ZM465.179 90.8418C465.179 91.5879 465.281 92.127 465.484 92.459C465.816 93.002 466.265 93.2734 466.831 93.2734C467.292 93.2734 467.691 93.0742 468.027 92.6758C468.363 92.2734 468.531 91.6758 468.531 90.8828C468.531 90.0703 468.368 89.4707 468.044 89.084C467.724 88.6973 467.335 88.5039 466.878 88.5039C466.417 88.5039 466.019 88.7051 465.683 89.1074C465.347 89.5059 465.179 90.084 465.179 90.8418ZM470.886 94V87.7773H471.835V88.7207C472.077 88.2793 472.3 87.9883 472.503 87.8477C472.71 87.707 472.937 87.6367 473.183 87.6367C473.538 87.6367 473.9 87.75 474.267 87.9766L473.904 88.9551C473.646 88.8027 473.388 88.7266 473.13 88.7266C472.9 88.7266 472.693 88.7969 472.509 88.9375C472.325 89.0742 472.195 89.2656 472.116 89.5117C471.999 89.8867 471.941 90.2969 471.941 90.7422V94H470.886ZM478.954 93.2324C478.564 93.5645 478.187 93.7988 477.823 93.9355C477.464 94.0723 477.077 94.1406 476.663 94.1406C475.98 94.1406 475.454 93.9746 475.087 93.6426C474.72 93.3066 474.536 92.8789 474.536 92.3594C474.536 92.0547 474.605 91.7773 474.741 91.5273C474.882 91.2734 475.064 91.0703 475.286 90.918C475.513 90.7656 475.767 90.6504 476.048 90.5723C476.255 90.5176 476.568 90.4648 476.986 90.4141C477.837 90.3125 478.464 90.1914 478.866 90.0508C478.87 89.9062 478.872 89.8145 478.872 89.7754C478.872 89.3457 478.773 89.043 478.573 88.8672C478.304 88.6289 477.904 88.5098 477.372 88.5098C476.876 88.5098 476.509 88.5977 476.271 88.7734C476.036 88.9453 475.863 89.252 475.749 89.6934L474.718 89.5527C474.812 89.1113 474.966 88.7559 475.181 88.4863C475.396 88.2129 475.706 88.0039 476.113 87.8594C476.519 87.7109 476.99 87.6367 477.525 87.6367C478.056 87.6367 478.488 87.6992 478.82 87.8242C479.152 87.9492 479.396 88.1074 479.552 88.2988C479.708 88.4863 479.818 88.7246 479.88 89.0137C479.915 89.1934 479.933 89.5176 479.933 89.9863V91.3926C479.933 92.373 479.954 92.9941 479.997 93.2559C480.044 93.5137 480.134 93.7617 480.267 94H479.165C479.056 93.7812 478.986 93.5254 478.954 93.2324ZM478.866 90.877C478.484 91.0332 477.909 91.166 477.144 91.2754C476.71 91.3379 476.404 91.4082 476.224 91.4863C476.044 91.5645 475.906 91.6797 475.808 91.832C475.71 91.9805 475.661 92.1465 475.661 92.3301C475.661 92.6113 475.767 92.8457 475.978 93.0332C476.193 93.2207 476.505 93.3145 476.915 93.3145C477.322 93.3145 477.683 93.2266 477.999 93.0508C478.316 92.8711 478.548 92.627 478.697 92.3184C478.81 92.0801 478.866 91.7285 478.866 91.2637V90.877ZM481.573 94V87.7773H482.523V88.6621C482.98 87.9785 483.64 87.6367 484.503 87.6367C484.878 87.6367 485.222 87.7051 485.534 87.8418C485.851 87.9746 486.087 88.1504 486.243 88.3691C486.4 88.5879 486.509 88.8477 486.572 89.1484C486.611 89.3438 486.63 89.6855 486.63 90.1738V94H485.575V90.2148C485.575 89.7852 485.534 89.4648 485.452 89.2539C485.37 89.0391 485.224 88.8691 485.013 88.7441C484.806 88.6152 484.562 88.5508 484.281 88.5508C483.831 88.5508 483.443 88.6934 483.115 88.9785C482.79 89.2637 482.628 89.8047 482.628 90.6016V94H481.573ZM492.29 94V93.2148C491.896 93.832 491.316 94.1406 490.55 94.1406C490.054 94.1406 489.597 94.0039 489.179 93.7305C488.765 93.457 488.443 93.0762 488.212 92.5879C487.986 92.0957 487.872 91.5312 487.872 90.8945C487.872 90.2734 487.976 89.7109 488.183 89.207C488.39 88.6992 488.7 88.3105 489.115 88.041C489.529 87.7715 489.991 87.6367 490.503 87.6367C490.878 87.6367 491.212 87.7168 491.505 87.877C491.798 88.0332 492.036 88.2383 492.22 88.4922V85.4102H493.269V94H492.29ZM488.956 90.8945C488.956 91.6914 489.124 92.2871 489.46 92.6816C489.796 93.0762 490.193 93.2734 490.65 93.2734C491.111 93.2734 491.501 93.0859 491.822 92.7109C492.146 92.332 492.308 91.7559 492.308 90.9824C492.308 90.1309 492.144 89.5059 491.816 89.1074C491.488 88.709 491.083 88.5098 490.603 88.5098C490.134 88.5098 489.741 88.7012 489.425 89.084C489.113 89.4668 488.956 90.0703 488.956 90.8945ZM493.96 96.3848V95.623H500.95V96.3848H493.96ZM505.65 94V93.2148C505.255 93.832 504.675 94.1406 503.909 94.1406C503.413 94.1406 502.956 94.0039 502.538 93.7305C502.124 93.457 501.802 93.0762 501.572 92.5879C501.345 92.0957 501.232 91.5312 501.232 90.8945C501.232 90.2734 501.335 89.7109 501.542 89.207C501.749 88.6992 502.06 88.3105 502.474 88.041C502.888 87.7715 503.351 87.6367 503.863 87.6367C504.238 87.6367 504.572 87.7168 504.865 87.877C505.157 88.0332 505.396 88.2383 505.579 88.4922V85.4102H506.628V94H505.65ZM502.316 90.8945C502.316 91.6914 502.484 92.2871 502.82 92.6816C503.156 93.0762 503.552 93.2734 504.009 93.2734C504.47 93.2734 504.861 93.0859 505.181 92.7109C505.505 92.332 505.667 91.7559 505.667 90.9824C505.667 90.1309 505.503 89.5059 505.175 89.1074C504.847 88.709 504.443 88.5098 503.962 88.5098C503.493 88.5098 503.101 88.7012 502.784 89.084C502.472 89.4668 502.316 90.0703 502.316 90.8945ZM512.552 91.9961L513.642 92.1309C513.47 92.7676 513.152 93.2617 512.687 93.6133C512.222 93.9648 511.628 94.1406 510.906 94.1406C509.995 94.1406 509.273 93.8613 508.738 93.3027C508.206 92.7402 507.941 91.9531 507.941 90.9414C507.941 89.8945 508.21 89.082 508.749 88.5039C509.288 87.9258 509.988 87.6367 510.847 87.6367C511.679 87.6367 512.359 87.9199 512.886 88.4863C513.413 89.0527 513.677 89.8496 513.677 90.877C513.677 90.9395 513.675 91.0332 513.671 91.1582H509.031C509.07 91.8418 509.263 92.3652 509.611 92.7285C509.958 93.0918 510.392 93.2734 510.911 93.2734C511.298 93.2734 511.628 93.1719 511.902 92.9688C512.175 92.7656 512.392 92.4414 512.552 91.9961ZM509.089 90.291H512.564C512.517 89.7676 512.384 89.375 512.165 89.1133C511.829 88.707 511.394 88.5039 510.859 88.5039C510.374 88.5039 509.966 88.666 509.634 88.9902C509.306 89.3145 509.124 89.748 509.089 90.291ZM515.224 94V88.5977H514.292V87.7773H515.224V87.1152C515.224 86.6973 515.261 86.3867 515.335 86.1836C515.437 85.9102 515.615 85.6895 515.868 85.5215C516.126 85.3496 516.486 85.2637 516.947 85.2637C517.243 85.2637 517.572 85.2988 517.931 85.3691L517.773 86.2891C517.554 86.25 517.347 86.2305 517.152 86.2305C516.831 86.2305 516.605 86.2988 516.472 86.4355C516.339 86.5723 516.273 86.8281 516.273 87.2031V87.7773H517.486V88.5977H516.273V94H515.224ZM522.372 93.2324C521.982 93.5645 521.605 93.7988 521.241 93.9355C520.882 94.0723 520.495 94.1406 520.081 94.1406C519.398 94.1406 518.872 93.9746 518.505 93.6426C518.138 93.3066 517.954 92.8789 517.954 92.3594C517.954 92.0547 518.023 91.7773 518.159 91.5273C518.3 91.2734 518.482 91.0703 518.704 90.918C518.931 90.7656 519.185 90.6504 519.466 90.5723C519.673 90.5176 519.986 90.4648 520.404 90.4141C521.255 90.3125 521.882 90.1914 522.284 90.0508C522.288 89.9062 522.29 89.8145 522.29 89.7754C522.29 89.3457 522.191 89.043 521.991 88.8672C521.722 88.6289 521.322 88.5098 520.79 88.5098C520.294 88.5098 519.927 88.5977 519.689 88.7734C519.454 88.9453 519.281 89.252 519.167 89.6934L518.136 89.5527C518.23 89.1113 518.384 88.7559 518.599 88.4863C518.814 88.2129 519.124 88.0039 519.531 87.8594C519.937 87.7109 520.407 87.6367 520.943 87.6367C521.474 87.6367 521.906 87.6992 522.238 87.8242C522.57 87.9492 522.814 88.1074 522.97 88.2988C523.126 88.4863 523.236 88.7246 523.298 89.0137C523.333 89.1934 523.351 89.5176 523.351 89.9863V91.3926C523.351 92.373 523.372 92.9941 523.415 93.2559C523.462 93.5137 523.552 93.7617 523.685 94H522.583C522.474 93.7812 522.404 93.5254 522.372 93.2324ZM522.284 90.877C521.902 91.0332 521.327 91.166 520.562 91.2754C520.128 91.3379 519.822 91.4082 519.642 91.4863C519.462 91.5645 519.323 91.6797 519.226 91.832C519.128 91.9805 519.079 92.1465 519.079 92.3301C519.079 92.6113 519.185 92.8457 519.396 93.0332C519.611 93.2207 519.923 93.3145 520.333 93.3145C520.74 93.3145 521.101 93.2266 521.417 93.0508C521.734 92.8711 521.966 92.627 522.115 92.3184C522.228 92.0801 522.284 91.7285 522.284 91.2637V90.877ZM529.07 94V93.0859C528.585 93.7891 527.927 94.1406 527.095 94.1406C526.728 94.1406 526.384 94.0703 526.064 93.9297C525.747 93.7891 525.511 93.6133 525.355 93.4023C525.202 93.1875 525.095 92.9258 525.032 92.6172C524.99 92.4102 524.968 92.082 524.968 91.6328V87.7773H526.023V91.2285C526.023 91.7793 526.044 92.1504 526.087 92.3418C526.154 92.6191 526.294 92.8379 526.509 92.998C526.724 93.1543 526.99 93.2324 527.306 93.2324C527.622 93.2324 527.919 93.1523 528.197 92.9922C528.474 92.8281 528.669 92.6074 528.782 92.3301C528.9 92.0488 528.958 91.6426 528.958 91.1113V87.7773H530.013V94H529.07ZM531.648 94V85.4102H532.702V94H531.648ZM536.646 93.0566L536.798 93.9883C536.501 94.0508 536.236 94.082 536.001 94.082C535.618 94.082 535.322 94.0215 535.111 93.9004C534.9 93.7793 534.751 93.6211 534.665 93.4258C534.579 93.2266 534.536 92.8105 534.536 92.1777V88.5977H533.763V87.7773H534.536V86.2363L535.585 85.6035V87.7773H536.646V88.5977H535.585V92.2363C535.585 92.5371 535.603 92.7305 535.638 92.8164C535.677 92.9023 535.738 92.9707 535.82 93.0215C535.906 93.0723 536.027 93.0977 536.183 93.0977C536.3 93.0977 536.454 93.084 536.646 93.0566Z" fill="#3E3E3D"/>
<path d="M584.52 90.3536C584.716 90.1583 584.716 89.8417 584.52 89.6464L581.338 86.4645C581.143 86.2692 580.826 86.2692 580.631 86.4645C580.436 86.6597 580.436 86.9763 580.631 87.1716L583.46 90L580.631 92.8284C580.436 93.0237 580.436 93.3403 580.631 93.5355C580.826 93.7308 581.143 93.7308 581.338 93.5355L584.52 90.3536ZM548.167 90V90.5H584.167V90V89.5H548.167V90Z" fill="#A1A1A0"/>
<path d="M583 78C583 73.5817 586.582 70 591 70H672C676.418 70 680 73.5817 680 78V102C680 106.418 676.418 110 672 110H591C586.582 110 583 106.418 583 102V78Z" fill="#2964A0"/>
<path d="M609.7 97C609.367 97 609.107 96.9067 608.92 96.72C608.733 96.5333 608.64 96.2733 608.64 95.94V83.88C608.64 83.5333 608.727 83.2733 608.9 83.1C609.087 82.9133 609.347 82.82 609.68 82.82C610.013 82.82 610.267 82.9133 610.44 83.1C610.627 83.2733 610.72 83.5333 610.72 83.88V95.22H616.92C617.213 95.22 617.44 95.3 617.6 95.46C617.76 95.6067 617.84 95.82 617.84 96.1C617.84 96.38 617.76 96.6 617.6 96.76C617.44 96.92 617.213 97 616.92 97H609.7ZM622.075 97.18C621.395 97.18 620.782 97.0467 620.235 96.78C619.702 96.5133 619.282 96.1533 618.975 95.7C618.668 95.2467 618.515 94.7333 618.515 94.16C618.515 93.44 618.695 92.8733 619.055 92.46C619.428 92.0333 620.035 91.7333 620.875 91.56C621.728 91.3733 622.875 91.28 624.315 91.28H625.255V92.52H624.335C623.375 92.52 622.615 92.5667 622.055 92.66C621.495 92.7533 621.095 92.9133 620.855 93.14C620.628 93.3533 620.515 93.6533 620.515 94.04C620.515 94.5467 620.688 94.96 621.035 95.28C621.382 95.5867 621.862 95.74 622.475 95.74C622.968 95.74 623.402 95.6267 623.775 95.4C624.148 95.16 624.442 94.84 624.655 94.44C624.882 94.04 624.995 93.58 624.995 93.06V90.76C624.995 90 624.835 89.4533 624.515 89.12C624.195 88.7867 623.668 88.62 622.935 88.62C622.508 88.62 622.062 88.6733 621.595 88.78C621.142 88.8867 620.668 89.0667 620.175 89.32C619.948 89.4267 619.755 89.46 619.595 89.42C619.435 89.38 619.308 89.2933 619.215 89.16C619.122 89.0133 619.068 88.86 619.055 88.7C619.055 88.5267 619.095 88.36 619.175 88.2C619.268 88.04 619.422 87.92 619.635 87.84C620.222 87.56 620.802 87.36 621.375 87.24C621.948 87.12 622.488 87.06 622.995 87.06C623.888 87.06 624.622 87.2 625.195 87.48C625.782 87.76 626.215 88.1867 626.495 88.76C626.775 89.3333 626.915 90.0733 626.915 90.98V96.12C626.915 96.44 626.835 96.6933 626.675 96.88C626.515 97.0533 626.282 97.14 625.975 97.14C625.682 97.14 625.448 97.0533 625.275 96.88C625.102 96.6933 625.015 96.44 625.015 96.12V94.82H625.195C625.088 95.3133 624.888 95.74 624.595 96.1C624.315 96.4467 623.962 96.7133 623.535 96.9C623.108 97.0867 622.622 97.18 622.075 97.18ZM634.437 97.18C633.584 97.18 632.844 96.9667 632.217 96.54C631.591 96.1 631.171 95.52 630.957 94.8L631.177 94.44V96.12C631.177 96.44 631.091 96.6933 630.917 96.88C630.744 97.0533 630.504 97.14 630.197 97.14C629.877 97.14 629.631 97.0533 629.457 96.88C629.284 96.6933 629.197 96.44 629.197 96.12V83.78C629.197 83.4467 629.284 83.1933 629.457 83.02C629.631 82.8467 629.877 82.76 630.197 82.76C630.517 82.76 630.764 82.8467 630.937 83.02C631.124 83.1933 631.217 83.4467 631.217 83.78V89.38H630.977C631.191 88.6733 631.611 88.1133 632.237 87.7C632.864 87.2733 633.597 87.06 634.437 87.06C635.317 87.06 636.077 87.2667 636.717 87.68C637.357 88.0933 637.851 88.6733 638.197 89.42C638.557 90.1667 638.737 91.0667 638.737 92.12C638.737 93.1467 638.557 94.0467 638.197 94.82C637.851 95.58 637.351 96.1667 636.697 96.58C636.057 96.98 635.304 97.18 634.437 97.18ZM633.937 95.62C634.497 95.62 634.984 95.4867 635.397 95.22C635.811 94.9533 636.131 94.56 636.357 94.04C636.584 93.52 636.697 92.88 636.697 92.12C636.697 90.9733 636.444 90.1067 635.937 89.52C635.444 88.9333 634.777 88.64 633.937 88.64C633.391 88.64 632.904 88.7733 632.477 89.04C632.064 89.2933 631.744 89.68 631.517 90.2C631.291 90.72 631.177 91.36 631.177 92.12C631.177 93.2533 631.431 94.12 631.937 94.72C632.444 95.32 633.111 95.62 633.937 95.62ZM645.094 97.18C644.027 97.18 643.107 96.98 642.334 96.58C641.574 96.1667 640.98 95.5867 640.554 94.84C640.14 94.08 639.934 93.18 639.934 92.14C639.934 91.1267 640.14 90.24 640.554 89.48C640.967 88.72 641.534 88.1267 642.254 87.7C642.974 87.2733 643.794 87.06 644.714 87.06C645.394 87.06 646 87.1733 646.534 87.4C647.067 87.6133 647.52 87.9333 647.894 88.36C648.28 88.7733 648.567 89.28 648.754 89.88C648.954 90.48 649.054 91.1533 649.054 91.9C649.054 92.1267 648.987 92.3 648.854 92.42C648.72 92.5267 648.52 92.58 648.254 92.58H641.534V91.34H647.694L647.354 91.62C647.354 90.9533 647.254 90.3867 647.054 89.92C646.867 89.4533 646.58 89.1 646.194 88.86C645.82 88.6067 645.354 88.48 644.794 88.48C644.167 88.48 643.634 88.6267 643.194 88.92C642.767 89.2133 642.44 89.62 642.214 90.14C641.987 90.66 641.874 91.2667 641.874 91.96V92.08C641.874 93.2533 642.147 94.14 642.694 94.74C643.254 95.3267 644.06 95.62 645.114 95.62C645.514 95.62 645.934 95.5667 646.374 95.46C646.827 95.3533 647.254 95.1733 647.654 94.92C647.88 94.7867 648.08 94.7267 648.254 94.74C648.44 94.7533 648.587 94.8133 648.694 94.92C648.814 95.0267 648.887 95.16 648.914 95.32C648.94 95.48 648.914 95.6467 648.834 95.82C648.754 95.98 648.614 96.1267 648.414 96.26C647.96 96.5667 647.434 96.8 646.834 96.96C646.234 97.1067 645.654 97.18 645.094 97.18ZM653.896 97.18C652.856 97.18 652.069 96.88 651.536 96.28C651.016 95.6667 650.756 94.7867 650.756 93.64V83.78C650.756 83.4467 650.843 83.1933 651.016 83.02C651.189 82.8467 651.436 82.76 651.756 82.76C652.076 82.76 652.323 82.8467 652.496 83.02C652.683 83.1933 652.776 83.4467 652.776 83.78V93.52C652.776 94.1867 652.909 94.6867 653.176 95.02C653.456 95.34 653.856 95.5 654.376 95.5C654.496 95.5 654.603 95.5 654.696 95.5C654.789 95.4867 654.883 95.4733 654.976 95.46C655.136 95.4467 655.249 95.4933 655.316 95.6C655.383 95.6933 655.416 95.8933 655.416 96.2C655.416 96.48 655.356 96.7 655.236 96.86C655.116 97.0067 654.923 97.1 654.656 97.14C654.536 97.1533 654.409 97.16 654.276 97.16C654.143 97.1733 654.016 97.18 653.896 97.18Z" fill="white"/>
<defs>
<clipPath id="clip0_968_8672">
<rect width="105" height="40" fill="white" transform="translate(32 70)"/>
</clipPath>
<clipPath id="clip1_968_8672">
<rect width="149" height="40" fill="white" transform="translate(170.667 70)"/>
</clipPath>
</defs>
</svg>
