<svg viewBox="0 0 20 20" fill="none" xmlns="http://www.w3.org/2000/svg">
<path d="M1.66675 10H5.83341" stroke="currentColor" stroke-width="1.5" stroke-linecap="round" stroke-linejoin="round"/>
<path d="M14.1667 10H18.3334" stroke="currentColor" stroke-width="1.5" stroke-linecap="round" stroke-linejoin="round"/>
<path fill-rule="evenodd" clip-rule="evenodd" d="M10 5.08301C11.3037 5.08309 12.5546 5.60164 13.4766 6.52344C14.3983 7.44538 14.9159 8.69629 14.916 10C14.9159 11.3038 14.3985 12.5546 13.4766 13.4766C12.5546 14.3985 11.3039 14.9159 10 14.916C8.69626 14.916 7.4454 14.3984 6.52344 13.4766C5.60164 12.5546 5.08309 11.3037 5.08301 10C5.0831 8.69614 5.60146 7.44541 6.52344 6.52344C7.44543 5.60147 8.69613 5.08307 10 5.08301ZM9.99902 8.93848L8.17383 7.11328C7.96224 7.24716 7.76383 7.40415 7.58398 7.58398C7.40416 7.76381 7.24715 7.96226 7.11328 8.17383L8.93848 9.99902L7.1123 11.8252C7.24632 12.0373 7.40383 12.2358 7.58398 12.416C7.76345 12.5954 7.96173 12.7522 8.17285 12.8857L9.99902 11.0596L11.8262 12.8867C12.0378 12.7529 12.2361 12.5959 12.416 12.416C12.596 12.236 12.7519 12.037 12.8857 11.8252L11.0596 9.99902L12.8857 8.17285C12.7522 7.96174 12.5954 7.76345 12.416 7.58398C12.2358 7.40384 12.0373 7.24632 11.8252 7.1123L9.99902 8.93848Z" fill="currentColor"/>
</svg>
