<svg viewBox="0 0 20 20" fill="none" xmlns="http://www.w3.org/2000/svg">
<path d="M9.99992 9.99998C9.08325 9.99998 8.29853 9.67359 7.64575 9.02081C6.99297 8.36804 6.66659 7.58331 6.66659 6.66665C6.66659 5.74998 6.99297 4.96526 7.64575 4.31248C8.29853 3.6597 9.08325 3.33331 9.99992 3.33331C10.9166 3.33331 11.7013 3.6597 12.3541 4.31248C13.0069 4.96526 13.3333 5.74998 13.3333 6.66665C13.3333 7.58331 13.0069 8.36804 12.3541 9.02081C11.7013 9.67359 10.9166 9.99998 9.99992 9.99998ZM3.33325 15V14.3333C3.33325 13.8611 3.45478 13.4271 3.69784 13.0312C3.94089 12.6354 4.26381 12.3333 4.66659 12.125C5.5277 11.6944 6.4027 11.3715 7.29159 11.1562C8.18047 10.941 9.08325 10.8333 9.99992 10.8333C10.9166 10.8333 11.8194 10.941 12.7083 11.1562C13.5971 11.3715 14.4721 11.6944 15.3333 12.125C15.736 12.3333 16.0589 12.6354 16.302 13.0312C16.5451 13.4271 16.6666 13.8611 16.6666 14.3333V15C16.6666 15.4583 16.5034 15.8507 16.177 16.1771C15.8506 16.5035 15.4583 16.6666 14.9999 16.6666H4.99992C4.54159 16.6666 4.14922 16.5035 3.82284 16.1771C3.49645 15.8507 3.33325 15.4583 3.33325 15ZM4.99992 15H14.9999V14.3333C14.9999 14.1805 14.9617 14.0416 14.8853 13.9166C14.8089 13.7916 14.7083 13.6944 14.5833 13.625C13.8333 13.25 13.0763 12.9687 12.3124 12.7812C11.5485 12.5937 10.7777 12.5 9.99992 12.5C9.22214 12.5 8.45131 12.5937 7.68742 12.7812C6.92353 12.9687 6.16659 13.25 5.41659 13.625C5.29159 13.6944 5.19089 13.7916 5.1145 13.9166C5.03811 14.0416 4.99992 14.1805 4.99992 14.3333V15ZM9.99992 8.33331C10.4583 8.33331 10.8506 8.17012 11.177 7.84373C11.5034 7.51734 11.6666 7.12498 11.6666 6.66665C11.6666 6.20831 11.5034 5.81595 11.177 5.48956C10.8506 5.16317 10.4583 4.99998 9.99992 4.99998C9.54159 4.99998 9.14922 5.16317 8.82284 5.48956C8.49645 5.81595 8.33325 6.20831 8.33325 6.66665C8.33325 7.12498 8.49645 7.51734 8.82284 7.84373C9.14922 8.17012 9.54159 8.33331 9.99992 8.33331Z" fill="currentColor"/>
</svg>