<svg width="712" height="342" viewBox="0 0 712 342" fill="none" xmlns="http://www.w3.org/2000/svg">
<g clip-path="url(#clip0_968_6896)">
<path d="M8 0.5H704C708.142 0.5 711.5 3.85786 711.5 8V334C711.5 338.142 708.142 341.5 704 341.5H8C3.85786 341.5 0.5 338.142 0.5 334V8C0.500006 3.85787 3.85787 0.5 8 0.5Z" fill="white"/>
<path d="M8 0.5H704C708.142 0.5 711.5 3.85786 711.5 8V334C711.5 338.142 708.142 341.5 704 341.5H8C3.85786 341.5 0.5 338.142 0.5 334V8C0.500006 3.85787 3.85787 0.5 8 0.5Z" stroke="#CDCCCB"/>
<mask id="mask0_968_6896" style="mask-type:luminance" maskUnits="userSpaceOnUse" x="39" y="41" width="635" height="208">
<path d="M39 49C39 44.5817 42.5817 41 47 41H666C670.418 41 674 44.5817 674 49V241C674 245.418 670.418 249 666 249H47C42.5817 249 39 245.418 39 241V49Z" fill="white"/>
</mask>
<g mask="url(#mask0_968_6896)">
<path d="M39 49C39 44.5817 42.5817 41 47 41H666C670.418 41 674 44.5817 674 49V241C674 245.418 670.418 249 666 249H47C42.5817 249 39 245.418 39 241V49Z" fill="white"/>
<mask id="mask1_968_6896" style="mask-type:luminance" maskUnits="userSpaceOnUse" x="39" y="41" width="635" height="208">
<path d="M674 41H39V249H674V41Z" fill="white"/>
</mask>
<g mask="url(#mask1_968_6896)">
<mask id="mask2_968_6896" style="mask-type:luminance" maskUnits="userSpaceOnUse" x="39" y="41" width="635" height="208">
<path d="M674 41H39V249H674V41Z" fill="white"/>
</mask>
<g mask="url(#mask2_968_6896)">
<path d="M103.917 40H71V250H103.917V40Z" fill="#F4922B" fill-opacity="0.3"/>
<path d="M152.834 40H119.917V250H152.834V40Z" fill="#F4922B" fill-opacity="0.3"/>
<path d="M201.75 40H168.833V250H201.75V40Z" fill="#F4922B" fill-opacity="0.3"/>
<path d="M250.667 40H217.75V250H250.667V40Z" fill="#F4922B" fill-opacity="0.3"/>
<path d="M299.584 40H266.667V250H299.584V40Z" fill="#F4922B" fill-opacity="0.3"/>
<path d="M348.5 40H315.583V250H348.5V40Z" fill="#F4922B" fill-opacity="0.3"/>
<path d="M397.417 40H364.5V250H397.417V40Z" fill="#F4922B" fill-opacity="0.3"/>
<path d="M446.334 40H413.417V250H446.334V40Z" fill="#F4922B" fill-opacity="0.3"/>
<path d="M495.25 40H462.333V250H495.25V40Z" fill="#F4922B" fill-opacity="0.3"/>
<path d="M544.167 40H511.25V250H544.167V40Z" fill="#F4922B" fill-opacity="0.3"/>
<path d="M593.084 40H560.167V250H593.084V40Z" fill="#F4922B" fill-opacity="0.3"/>
<path d="M642 40H609.083V250H642V40Z" fill="#F4922B" fill-opacity="0.3"/>
</g>
<mask id="mask3_968_6896" style="mask-type:luminance" maskUnits="userSpaceOnUse" x="39" y="41" width="635" height="208">
<path d="M674 41H39V249H674V41Z" fill="white"/>
</mask>
<g mask="url(#mask3_968_6896)">
<path d="M674 40H39V250H674V40Z" fill="#F4922B" fill-opacity="0.15"/>
</g>
</g>
</g>
<mask id="mask4_968_6896" style="mask-type:luminance" maskUnits="userSpaceOnUse" x="39" y="41" width="635" height="208">
<path d="M39 49C39 44.5817 42.5817 41 47 41H666C670.418 41 674 44.5817 674 49V241C674 245.418 670.418 249 666 249H47C42.5817 249 39 245.418 39 241V49Z" fill="white"/>
</mask>
<g mask="url(#mask4_968_6896)">
<path d="M47 41V42H666V41V40H47V41ZM674 49H673V241H674H675V49H674ZM666 249V248H47V249V250H666V249ZM39 241H40V49H39H38V241H39ZM47 249V248C43.134 248 40 244.866 40 241H39H38C38 245.971 42.0294 250 47 250V249ZM674 241H673C673 244.866 669.866 248 666 248V249V250C670.971 250 675 245.971 675 241H674ZM666 41V42C669.866 42 673 45.134 673 49H674H675C675 44.0294 670.971 40 666 40V41ZM47 41V40C42.0294 40 38 44.0294 38 49H39H40C40 45.134 43.134 42 47 42V41Z" fill="#CDCCCB"/>
</g>
<path d="M152 292C152 289.791 153.791 288 156 288H215C217.209 288 219 289.791 219 292V308C219 310.209 217.209 312 215 312H156C153.791 312 152 310.209 152 308V292Z" fill="#F4F5F4"/>
<mask id="mask5_968_6896" style="mask-type:luminance" maskUnits="userSpaceOnUse" x="152" y="288" width="67" height="24">
<path d="M152 292C152 289.791 153.791 288 156 288H215C217.209 288 219 289.791 219 292V308C219 310.209 217.209 312 215 312H156C153.791 312 152 310.209 152 308V292Z" fill="white"/>
</mask>
<g mask="url(#mask5_968_6896)">
<path d="M156 288V289H215V288V287H156V288ZM219 292H218V308H219H220V292H219ZM215 312V311H156V312V313H215V312ZM152 308H153V292H152H151V308H152ZM156 312V311C154.343 311 153 309.657 153 308H152H151C151 310.761 153.239 313 156 313V312ZM219 308H218C218 309.657 216.657 311 215 311V312V313C217.761 313 220 310.761 220 308H219ZM215 288V289C216.657 289 218 290.343 218 292H219H220C220 289.239 217.761 287 215 287V288ZM156 288V287C153.239 287 151 289.239 151 292H152H153C153 290.343 154.343 289 156 289V288Z" fill="#A1A1A0"/>
</g>
<path d="M166.545 302.434C166.494 302.828 166.393 303.191 166.24 303.523C166.088 303.852 165.891 304.133 165.648 304.367C165.402 304.605 165.111 304.791 164.775 304.924C164.443 305.053 164.072 305.117 163.662 305.117C163.311 305.117 162.99 305.068 162.701 304.971C162.416 304.869 162.162 304.73 161.939 304.555C161.713 304.379 161.518 304.172 161.354 303.934C161.193 303.695 161.061 303.436 160.955 303.154C160.846 302.873 160.764 302.578 160.709 302.27C160.658 301.961 160.631 301.648 160.627 301.332V300.143C160.631 299.826 160.658 299.514 160.709 299.205C160.764 298.896 160.846 298.602 160.955 298.32C161.061 298.039 161.193 297.779 161.354 297.541C161.518 297.299 161.713 297.09 161.939 296.914C162.162 296.738 162.416 296.602 162.701 296.504C162.986 296.402 163.307 296.352 163.662 296.352C164.088 296.352 164.469 296.418 164.805 296.551C165.141 296.68 165.43 296.863 165.672 297.102C165.914 297.344 166.107 297.633 166.252 297.969C166.4 298.305 166.498 298.676 166.545 299.082H165.461C165.426 298.824 165.365 298.584 165.279 298.361C165.193 298.139 165.078 297.943 164.934 297.775C164.789 297.607 164.611 297.477 164.4 297.383C164.193 297.285 163.947 297.236 163.662 297.236C163.404 297.236 163.176 297.279 162.977 297.365C162.781 297.447 162.613 297.561 162.473 297.705C162.328 297.85 162.207 298.018 162.109 298.209C162.016 298.4 161.939 298.604 161.881 298.818C161.822 299.033 161.779 299.254 161.752 299.48C161.729 299.703 161.717 299.92 161.717 300.131V301.332C161.717 301.543 161.729 301.762 161.752 301.988C161.779 302.211 161.822 302.43 161.881 302.645C161.939 302.863 162.016 303.068 162.109 303.26C162.203 303.451 162.322 303.619 162.467 303.764C162.611 303.912 162.781 304.029 162.977 304.115C163.172 304.197 163.4 304.238 163.662 304.238C163.947 304.238 164.193 304.193 164.4 304.104C164.611 304.014 164.789 303.887 164.934 303.723C165.078 303.562 165.193 303.373 165.279 303.154C165.365 302.932 165.426 302.691 165.461 302.434H166.545ZM167.922 301.771C167.922 301.314 167.988 300.891 168.121 300.5C168.254 300.105 168.445 299.764 168.695 299.475C168.941 299.186 169.242 298.959 169.598 298.795C169.953 298.627 170.354 298.543 170.799 298.543C171.248 298.543 171.65 298.627 172.006 298.795C172.365 298.959 172.67 299.186 172.92 299.475C173.166 299.764 173.355 300.105 173.488 300.5C173.621 300.891 173.688 301.314 173.688 301.771V301.9C173.688 302.357 173.621 302.781 173.488 303.172C173.355 303.562 173.166 303.902 172.92 304.191C172.67 304.48 172.367 304.707 172.012 304.871C171.656 305.035 171.256 305.117 170.811 305.117C170.361 305.117 169.957 305.035 169.598 304.871C169.242 304.707 168.941 304.48 168.695 304.191C168.445 303.902 168.254 303.562 168.121 303.172C167.988 302.781 167.922 302.357 167.922 301.9V301.771ZM169.006 301.9C169.006 302.213 169.043 302.512 169.117 302.797C169.191 303.078 169.305 303.326 169.457 303.541C169.605 303.756 169.793 303.926 170.02 304.051C170.246 304.176 170.51 304.238 170.811 304.238C171.107 304.238 171.367 304.176 171.59 304.051C171.816 303.926 172.006 303.756 172.158 303.541C172.307 303.326 172.418 303.078 172.492 302.797C172.566 302.512 172.604 302.213 172.604 301.9V301.771C172.604 301.463 172.564 301.168 172.486 300.887C172.412 300.602 172.301 300.352 172.152 300.137C172 299.922 171.811 299.752 171.584 299.627C171.361 299.498 171.1 299.434 170.799 299.434C170.498 299.434 170.236 299.498 170.014 299.627C169.791 299.752 169.605 299.922 169.457 300.137C169.305 300.352 169.191 300.602 169.117 300.887C169.043 301.168 169.006 301.463 169.006 301.771V301.9ZM175.604 296H178.844V304.062H180.912V305H175.604V304.062H177.76V296.943H175.604V296ZM186.818 305L186.754 304.127C186.543 304.439 186.279 304.684 185.963 304.859C185.646 305.031 185.281 305.117 184.867 305.117C184.535 305.117 184.234 305.066 183.965 304.965C183.695 304.859 183.465 304.697 183.273 304.479C183.082 304.26 182.934 303.982 182.828 303.646C182.727 303.307 182.676 302.9 182.676 302.428V298.66H183.76V302.439C183.76 302.783 183.787 303.068 183.842 303.295C183.896 303.521 183.979 303.701 184.088 303.834C184.197 303.971 184.33 304.066 184.486 304.121C184.646 304.176 184.83 304.203 185.037 304.203C185.279 304.203 185.496 304.176 185.688 304.121C185.879 304.062 186.045 303.982 186.186 303.881C186.303 303.799 186.404 303.701 186.49 303.588C186.58 303.471 186.654 303.344 186.713 303.207V298.66H187.803V305H186.818ZM190.346 298.66L190.375 299.258C190.504 299.035 190.672 298.861 190.879 298.736C191.09 298.611 191.344 298.547 191.641 298.543C191.809 298.543 191.959 298.562 192.092 298.602C192.229 298.637 192.348 298.689 192.449 298.76C192.523 298.814 192.59 298.881 192.648 298.959C192.711 299.037 192.764 299.125 192.807 299.223C192.861 299.133 192.926 299.049 193 298.971C193.074 298.893 193.154 298.824 193.24 298.766C193.35 298.699 193.471 298.646 193.604 298.607C193.74 298.568 193.889 298.547 194.049 298.543C194.268 298.543 194.465 298.576 194.641 298.643C194.816 298.705 194.965 298.799 195.086 298.924C195.219 299.064 195.32 299.248 195.391 299.475C195.461 299.697 195.496 299.961 195.496 300.266V305H194.465V300.254C194.465 300.121 194.449 300.004 194.418 299.902C194.387 299.801 194.342 299.717 194.283 299.65C194.221 299.588 194.143 299.541 194.049 299.51C193.959 299.479 193.854 299.463 193.732 299.463C193.604 299.463 193.492 299.48 193.398 299.516C193.305 299.551 193.227 299.598 193.164 299.656C193.102 299.719 193.053 299.791 193.018 299.873C192.982 299.951 192.959 300.039 192.947 300.137C192.947 300.156 192.947 300.176 192.947 300.195C192.947 300.211 192.947 300.23 192.947 300.254V305H191.916V300.248C191.916 300.115 191.9 299.998 191.869 299.896C191.842 299.795 191.797 299.711 191.734 299.645C191.676 299.582 191.602 299.537 191.512 299.51C191.426 299.479 191.324 299.463 191.207 299.463C191.078 299.463 190.965 299.479 190.867 299.51C190.773 299.537 190.693 299.578 190.627 299.633C190.576 299.676 190.531 299.725 190.492 299.779C190.457 299.834 190.428 299.893 190.404 299.955V305H189.373V298.66H190.346ZM197.055 305V298.66H198.027L198.104 299.598C198.197 299.465 198.299 299.344 198.408 299.234C198.521 299.121 198.641 299.023 198.766 298.941C198.953 298.816 199.156 298.721 199.375 298.654C199.598 298.584 199.832 298.547 200.078 298.543C200.41 298.543 200.711 298.59 200.98 298.684C201.254 298.777 201.486 298.924 201.678 299.123C201.869 299.322 202.016 299.576 202.117 299.885C202.223 300.189 202.275 300.553 202.275 300.975V305H201.191V300.998C201.191 300.717 201.16 300.479 201.098 300.283C201.035 300.088 200.943 299.93 200.822 299.809C200.697 299.688 200.545 299.6 200.365 299.545C200.189 299.49 199.986 299.463 199.756 299.463C199.557 299.463 199.371 299.492 199.199 299.551C199.027 299.605 198.869 299.682 198.725 299.779C198.607 299.865 198.498 299.965 198.396 300.078C198.299 300.191 198.213 300.316 198.139 300.453V305H197.055ZM208.475 303.318C208.475 303.189 208.449 303.074 208.398 302.973C208.348 302.867 208.262 302.771 208.141 302.686C208.02 302.6 207.859 302.521 207.66 302.451C207.461 302.377 207.213 302.311 206.916 302.252C206.553 302.178 206.221 302.088 205.92 301.982C205.623 301.877 205.369 301.75 205.158 301.602C204.943 301.457 204.777 301.287 204.66 301.092C204.543 300.893 204.484 300.662 204.484 300.4C204.484 300.143 204.545 299.902 204.666 299.68C204.787 299.453 204.957 299.256 205.176 299.088C205.395 298.92 205.654 298.787 205.955 298.689C206.26 298.592 206.594 298.543 206.957 298.543C207.348 298.543 207.699 298.594 208.012 298.695C208.324 298.797 208.59 298.938 208.809 299.117C209.027 299.297 209.195 299.508 209.312 299.75C209.434 299.988 209.494 300.246 209.494 300.523H208.41C208.41 300.387 208.375 300.254 208.305 300.125C208.234 299.992 208.137 299.875 208.012 299.773C207.887 299.672 207.734 299.59 207.555 299.527C207.379 299.465 207.18 299.434 206.957 299.434C206.727 299.434 206.523 299.459 206.348 299.51C206.176 299.561 206.033 299.629 205.92 299.715C205.803 299.801 205.715 299.9 205.656 300.014C205.598 300.127 205.568 300.244 205.568 300.365C205.568 300.49 205.592 300.602 205.639 300.699C205.686 300.797 205.768 300.885 205.885 300.963C205.998 301.041 206.15 301.111 206.342 301.174C206.537 301.236 206.783 301.297 207.08 301.355C207.471 301.438 207.82 301.533 208.129 301.643C208.438 301.748 208.697 301.875 208.908 302.023C209.119 302.176 209.279 302.352 209.389 302.551C209.502 302.75 209.559 302.98 209.559 303.242C209.559 303.523 209.494 303.779 209.365 304.01C209.24 304.24 209.064 304.438 208.838 304.602C208.611 304.766 208.34 304.893 208.023 304.982C207.707 305.072 207.361 305.117 206.986 305.117C206.557 305.117 206.174 305.061 205.838 304.947C205.502 304.83 205.219 304.676 204.988 304.484C204.754 304.297 204.574 304.078 204.449 303.828C204.328 303.578 204.268 303.318 204.268 303.049H205.352C205.367 303.271 205.426 303.459 205.527 303.611C205.633 303.764 205.764 303.887 205.92 303.98C206.072 304.074 206.242 304.141 206.43 304.18C206.617 304.219 206.803 304.238 206.986 304.238C207.275 304.238 207.527 304.205 207.742 304.139C207.957 304.068 208.125 303.973 208.246 303.852C208.32 303.777 208.377 303.695 208.416 303.605C208.455 303.516 208.475 303.42 208.475 303.318Z" fill="#3E3E3D"/>
<path d="M323 292C323 289.791 324.791 288 327 288H386C388.209 288 390 289.791 390 292V308C390 310.209 388.209 312 386 312H327C324.791 312 323 310.209 323 308V292Z" fill="#F4F5F4"/>
<mask id="mask6_968_6896" style="mask-type:luminance" maskUnits="userSpaceOnUse" x="323" y="288" width="67" height="24">
<path d="M323 292C323 289.791 324.791 288 327 288H386C388.209 288 390 289.791 390 292V308C390 310.209 388.209 312 386 312H327C324.791 312 323 310.209 323 308V292Z" fill="white"/>
</mask>
<g mask="url(#mask6_968_6896)">
<path d="M327 288V289H386V288V287H327V288ZM390 292H389V308H390H391V292H390ZM386 312V311H327V312V313H386V312ZM323 308H324V292H323H322V308H323ZM327 312V311C325.343 311 324 309.657 324 308H323H322C322 310.761 324.239 313 327 313V312ZM390 308H389C389 309.657 387.657 311 386 311V312V313C388.761 313 391 310.761 391 308H390ZM386 288V289C387.657 289 389 290.343 389 292H390H391C391 289.239 388.761 287 386 287V288ZM327 288V287C324.239 287 322 289.239 322 292H323H324C324 290.343 325.343 289 327 289V288Z" fill="#A1A1A0"/>
</g>
<path d="M337.539 303.881C337.406 304.037 337.266 304.18 337.117 304.309C336.969 304.434 336.814 304.543 336.654 304.637C336.381 304.801 336.086 304.922 335.77 305C335.453 305.082 335.121 305.121 334.773 305.117C334.422 305.113 334.098 305.061 333.801 304.959C333.508 304.854 333.244 304.709 333.01 304.525C332.775 304.346 332.57 304.133 332.395 303.887C332.219 303.641 332.072 303.373 331.955 303.084C331.834 302.799 331.742 302.5 331.68 302.188C331.621 301.871 331.59 301.553 331.586 301.232V300.242C331.59 299.926 331.617 299.611 331.668 299.299C331.723 298.982 331.805 298.68 331.914 298.391C332.023 298.102 332.16 297.834 332.324 297.588C332.488 297.338 332.686 297.121 332.916 296.938C333.143 296.758 333.4 296.615 333.689 296.51C333.979 296.404 334.303 296.352 334.662 296.352C335.061 296.352 335.428 296.414 335.764 296.539C336.1 296.66 336.393 296.834 336.643 297.061C336.893 297.291 337.094 297.568 337.246 297.893C337.398 298.213 337.492 298.572 337.527 298.971H336.455C336.412 298.725 336.346 298.498 336.256 298.291C336.166 298.08 336.049 297.9 335.904 297.752C335.756 297.604 335.58 297.488 335.377 297.406C335.174 297.32 334.938 297.277 334.668 297.277C334.41 297.277 334.182 297.322 333.982 297.412C333.783 297.498 333.609 297.615 333.461 297.764C333.312 297.912 333.189 298.086 333.092 298.285C332.994 298.48 332.914 298.688 332.852 298.906C332.789 299.125 332.744 299.348 332.717 299.574C332.689 299.801 332.676 300.02 332.676 300.23V301.232C332.68 301.447 332.697 301.67 332.729 301.9C332.764 302.127 332.816 302.35 332.887 302.568C332.957 302.787 333.047 302.994 333.156 303.189C333.266 303.385 333.398 303.557 333.555 303.705C333.707 303.854 333.885 303.973 334.088 304.062C334.291 304.148 334.521 304.193 334.779 304.197C334.928 304.201 335.082 304.195 335.242 304.18C335.406 304.164 335.564 304.133 335.717 304.086C335.869 304.039 336.012 303.977 336.145 303.898C336.277 303.816 336.389 303.711 336.479 303.582L336.49 301.666H334.756V300.752H337.521L337.539 303.881ZM343.404 305L343.34 304.127C343.129 304.439 342.865 304.684 342.549 304.859C342.232 305.031 341.867 305.117 341.453 305.117C341.121 305.117 340.82 305.066 340.551 304.965C340.281 304.859 340.051 304.697 339.859 304.479C339.668 304.26 339.52 303.982 339.414 303.646C339.312 303.307 339.262 302.9 339.262 302.428V298.66H340.346V302.439C340.346 302.783 340.373 303.068 340.428 303.295C340.482 303.521 340.564 303.701 340.674 303.834C340.783 303.971 340.916 304.066 341.072 304.121C341.232 304.176 341.416 304.203 341.623 304.203C341.865 304.203 342.082 304.176 342.273 304.121C342.465 304.062 342.631 303.982 342.771 303.881C342.889 303.799 342.99 303.701 343.076 303.588C343.166 303.471 343.24 303.344 343.299 303.207V298.66H344.389V305H343.404ZM349 297.125V298.66H351.414V299.498H349V302.943C349 303.189 349.031 303.393 349.094 303.553C349.156 303.713 349.242 303.84 349.352 303.934C349.461 304.031 349.586 304.1 349.727 304.139C349.871 304.178 350.023 304.197 350.184 304.197C350.301 304.197 350.422 304.191 350.547 304.18C350.672 304.164 350.795 304.146 350.916 304.127C351.033 304.107 351.143 304.088 351.244 304.068C351.35 304.045 351.436 304.025 351.502 304.01L351.654 304.777C351.564 304.832 351.455 304.881 351.326 304.924C351.197 304.963 351.057 304.996 350.904 305.023C350.752 305.055 350.59 305.078 350.418 305.094C350.25 305.109 350.082 305.117 349.914 305.117C349.633 305.117 349.369 305.078 349.123 305C348.881 304.918 348.67 304.789 348.49 304.613C348.311 304.441 348.168 304.219 348.062 303.945C347.961 303.668 347.91 303.334 347.91 302.943V299.498H346.246V298.66H347.91V297.125H349ZM356.207 297.125V298.66H358.621V299.498H356.207V302.943C356.207 303.189 356.238 303.393 356.301 303.553C356.363 303.713 356.449 303.84 356.559 303.934C356.668 304.031 356.793 304.1 356.934 304.139C357.078 304.178 357.23 304.197 357.391 304.197C357.508 304.197 357.629 304.191 357.754 304.18C357.879 304.164 358.002 304.146 358.123 304.127C358.24 304.107 358.35 304.088 358.451 304.068C358.557 304.045 358.643 304.025 358.709 304.01L358.861 304.777C358.771 304.832 358.662 304.881 358.533 304.924C358.404 304.963 358.264 304.996 358.111 305.023C357.959 305.055 357.797 305.078 357.625 305.094C357.457 305.109 357.289 305.117 357.121 305.117C356.84 305.117 356.576 305.078 356.33 305C356.088 304.918 355.877 304.789 355.697 304.613C355.518 304.441 355.375 304.219 355.27 303.945C355.168 303.668 355.117 303.334 355.117 302.943V299.498H353.453V298.66H355.117V297.125H356.207ZM363.648 305.117C363.203 305.117 362.793 305.041 362.418 304.889C362.047 304.736 361.729 304.523 361.463 304.25C361.197 303.977 360.99 303.652 360.842 303.277C360.693 302.902 360.619 302.494 360.619 302.053V301.807C360.619 301.295 360.701 300.838 360.865 300.436C361.029 300.029 361.248 299.686 361.521 299.404C361.791 299.127 362.098 298.914 362.441 298.766C362.789 298.617 363.145 298.543 363.508 298.543C363.965 298.543 364.363 298.623 364.703 298.783C365.047 298.939 365.332 299.156 365.559 299.434C365.785 299.715 365.953 300.045 366.062 300.424C366.176 300.803 366.232 301.213 366.232 301.654V302.141H361.703V302.182C361.73 302.49 361.791 302.762 361.885 302.996C361.982 303.23 362.115 303.438 362.283 303.617C362.455 303.809 362.662 303.959 362.904 304.068C363.146 304.178 363.414 304.232 363.707 304.232C364.094 304.232 364.438 304.154 364.738 303.998C365.039 303.842 365.289 303.635 365.488 303.377L366.15 303.893C365.939 304.213 365.623 304.498 365.201 304.748C364.783 304.994 364.266 305.117 363.648 305.117ZM363.508 299.434C363.289 299.434 363.082 299.475 362.887 299.557C362.691 299.635 362.516 299.75 362.359 299.902C362.203 300.059 362.07 300.25 361.961 300.477C361.855 300.699 361.781 300.957 361.738 301.25H365.148V301.197C365.148 301.002 365.111 300.793 365.037 300.57C364.963 300.344 364.859 300.148 364.727 299.984C364.594 299.82 364.426 299.688 364.223 299.586C364.023 299.484 363.785 299.434 363.508 299.434ZM372.209 298.543C372.408 298.543 372.615 298.557 372.83 298.584C373.049 298.611 373.213 298.648 373.322 298.695L373.176 299.756C372.965 299.709 372.764 299.676 372.572 299.656C372.385 299.633 372.188 299.621 371.98 299.621C371.715 299.621 371.475 299.654 371.26 299.721C371.045 299.783 370.857 299.877 370.697 300.002C370.553 300.111 370.426 300.246 370.316 300.406C370.211 300.562 370.123 300.738 370.053 300.934V305H368.963V298.66H369.994L370.041 299.51L370.047 299.668C370.305 299.32 370.613 299.047 370.973 298.848C371.336 298.645 371.748 298.543 372.209 298.543ZM379.475 303.318C379.475 303.189 379.449 303.074 379.398 302.973C379.348 302.867 379.262 302.771 379.141 302.686C379.02 302.6 378.859 302.521 378.66 302.451C378.461 302.377 378.213 302.311 377.916 302.252C377.553 302.178 377.221 302.088 376.92 301.982C376.623 301.877 376.369 301.75 376.158 301.602C375.943 301.457 375.777 301.287 375.66 301.092C375.543 300.893 375.484 300.662 375.484 300.4C375.484 300.143 375.545 299.902 375.666 299.68C375.787 299.453 375.957 299.256 376.176 299.088C376.395 298.92 376.654 298.787 376.955 298.689C377.26 298.592 377.594 298.543 377.957 298.543C378.348 298.543 378.699 298.594 379.012 298.695C379.324 298.797 379.59 298.938 379.809 299.117C380.027 299.297 380.195 299.508 380.312 299.75C380.434 299.988 380.494 300.246 380.494 300.523H379.41C379.41 300.387 379.375 300.254 379.305 300.125C379.234 299.992 379.137 299.875 379.012 299.773C378.887 299.672 378.734 299.59 378.555 299.527C378.379 299.465 378.18 299.434 377.957 299.434C377.727 299.434 377.523 299.459 377.348 299.51C377.176 299.561 377.033 299.629 376.92 299.715C376.803 299.801 376.715 299.9 376.656 300.014C376.598 300.127 376.568 300.244 376.568 300.365C376.568 300.49 376.592 300.602 376.639 300.699C376.686 300.797 376.768 300.885 376.885 300.963C376.998 301.041 377.15 301.111 377.342 301.174C377.537 301.236 377.783 301.297 378.08 301.355C378.471 301.438 378.82 301.533 379.129 301.643C379.438 301.748 379.697 301.875 379.908 302.023C380.119 302.176 380.279 302.352 380.389 302.551C380.502 302.75 380.559 302.98 380.559 303.242C380.559 303.523 380.494 303.779 380.365 304.01C380.24 304.24 380.064 304.438 379.838 304.602C379.611 304.766 379.34 304.893 379.023 304.982C378.707 305.072 378.361 305.117 377.986 305.117C377.557 305.117 377.174 305.061 376.838 304.947C376.502 304.83 376.219 304.676 375.988 304.484C375.754 304.297 375.574 304.078 375.449 303.828C375.328 303.578 375.268 303.318 375.268 303.049H376.352C376.367 303.271 376.426 303.459 376.527 303.611C376.633 303.764 376.764 303.887 376.92 303.98C377.072 304.074 377.242 304.141 377.43 304.18C377.617 304.219 377.803 304.238 377.986 304.238C378.275 304.238 378.527 304.205 378.742 304.139C378.957 304.068 379.125 303.973 379.246 303.852C379.32 303.777 379.377 303.695 379.416 303.605C379.455 303.516 379.475 303.42 379.475 303.318Z" fill="#3E3E3D"/>
<path d="M623 292C623 289.791 624.791 288 627 288H686C688.209 288 690 289.791 690 292V308C690 310.209 688.209 312 686 312H627C624.791 312 623 310.209 623 308V292Z" fill="#F4F5F4"/>
<mask id="mask7_968_6896" style="mask-type:luminance" maskUnits="userSpaceOnUse" x="623" y="288" width="67" height="24">
<path d="M623 292C623 289.791 624.791 288 627 288H686C688.209 288 690 289.791 690 292V308C690 310.209 688.209 312 686 312H627C624.791 312 623 310.209 623 308V292Z" fill="white"/>
</mask>
<g mask="url(#mask7_968_6896)">
<path d="M627 288V289H686V288V287H627V288ZM690 292H689V308H690H691V292H690ZM686 312V311H627V312V313H686V312ZM623 308H624V292H623H622V308H623ZM627 312V311C625.343 311 624 309.657 624 308H623H622C622 310.761 624.239 313 627 313V312ZM690 308H689C689 309.657 687.657 311 686 311V312V313C688.761 313 691 310.761 691 308H690ZM686 288V289C687.657 289 689 290.343 689 292H690H691C691 289.239 688.761 287 686 287V288ZM627 288V287C624.239 287 622 289.239 622 292H623H624C624 290.343 625.343 289 627 289V288Z" fill="#A1A1A0"/>
</g>
<path d="M633.209 296.469L634.598 300.734L636.098 296.469H637.445V305H636.391V301.596L636.479 298.033L634.902 302.627H634.281L632.834 298.156L632.922 301.596V305H631.867V296.469H633.209ZM643.393 305C643.35 304.918 643.314 304.816 643.287 304.695C643.264 304.57 643.246 304.441 643.234 304.309C643.125 304.418 643.002 304.521 642.865 304.619C642.732 304.717 642.586 304.803 642.426 304.877C642.262 304.951 642.088 305.01 641.904 305.053C641.721 305.096 641.525 305.117 641.318 305.117C640.982 305.117 640.678 305.068 640.404 304.971C640.135 304.873 639.906 304.74 639.719 304.572C639.527 304.408 639.379 304.213 639.273 303.986C639.172 303.756 639.121 303.508 639.121 303.242C639.121 302.895 639.189 302.59 639.326 302.328C639.467 302.066 639.664 301.848 639.918 301.672C640.172 301.5 640.477 301.371 640.832 301.285C641.191 301.199 641.592 301.156 642.033 301.156H643.217V300.658C643.217 300.467 643.182 300.295 643.111 300.143C643.041 299.99 642.941 299.859 642.812 299.75C642.684 299.645 642.525 299.562 642.338 299.504C642.154 299.445 641.947 299.416 641.717 299.416C641.502 299.416 641.309 299.443 641.137 299.498C640.969 299.553 640.826 299.625 640.709 299.715C640.592 299.805 640.5 299.912 640.434 300.037C640.371 300.158 640.34 300.285 640.34 300.418H639.25C639.254 300.188 639.312 299.961 639.426 299.738C639.543 299.516 639.711 299.314 639.93 299.135C640.145 298.959 640.406 298.816 640.715 298.707C641.027 298.598 641.381 298.543 641.775 298.543C642.135 298.543 642.469 298.588 642.777 298.678C643.086 298.764 643.354 298.895 643.58 299.07C643.803 299.25 643.979 299.473 644.107 299.738C644.236 300.004 644.301 300.314 644.301 300.67V303.617C644.301 303.828 644.32 304.053 644.359 304.291C644.398 304.525 644.453 304.73 644.523 304.906V305H643.393ZM641.477 304.174C641.688 304.174 641.885 304.146 642.068 304.092C642.252 304.037 642.42 303.965 642.572 303.875C642.721 303.785 642.85 303.684 642.959 303.57C643.068 303.453 643.154 303.332 643.217 303.207V301.924H642.209C641.834 301.924 641.506 301.957 641.225 302.023C640.947 302.086 640.727 302.184 640.562 302.316C640.445 302.41 640.355 302.521 640.293 302.65C640.234 302.779 640.205 302.926 640.205 303.09C640.205 303.246 640.23 303.391 640.281 303.523C640.336 303.656 640.416 303.77 640.521 303.863C640.627 303.961 640.76 304.037 640.92 304.092C641.08 304.146 641.266 304.174 641.477 304.174ZM650.588 298.543C650.787 298.543 650.994 298.557 651.209 298.584C651.428 298.611 651.592 298.648 651.701 298.695L651.555 299.756C651.344 299.709 651.143 299.676 650.951 299.656C650.764 299.633 650.566 299.621 650.359 299.621C650.094 299.621 649.854 299.654 649.639 299.721C649.424 299.783 649.236 299.877 649.076 300.002C648.932 300.111 648.805 300.246 648.695 300.406C648.59 300.562 648.502 300.738 648.432 300.934V305H647.342V298.66H648.373L648.42 299.51L648.426 299.668C648.684 299.32 648.992 299.047 649.352 298.848C649.715 298.645 650.127 298.543 650.588 298.543ZM653.441 301.777C653.441 301.305 653.498 300.871 653.611 300.477C653.729 300.078 653.896 299.736 654.115 299.451C654.334 299.166 654.6 298.943 654.912 298.783C655.225 298.623 655.578 298.543 655.973 298.543C656.227 298.543 656.459 298.572 656.67 298.631C656.885 298.689 657.078 298.775 657.25 298.889C657.344 298.947 657.432 299.016 657.514 299.094C657.6 299.172 657.68 299.258 657.754 299.352L657.807 298.66H658.791V304.865C658.791 305.283 658.725 305.654 658.592 305.979C658.463 306.303 658.281 306.578 658.047 306.805C657.809 307.031 657.525 307.203 657.197 307.32C656.869 307.438 656.506 307.496 656.107 307.496C655.943 307.496 655.756 307.477 655.545 307.438C655.334 307.402 655.121 307.342 654.906 307.256C654.688 307.174 654.477 307.062 654.273 306.922C654.074 306.781 653.902 306.607 653.758 306.4L654.32 305.75C654.453 305.91 654.59 306.045 654.73 306.154C654.871 306.268 655.014 306.357 655.158 306.424C655.303 306.49 655.447 306.537 655.592 306.564C655.736 306.596 655.881 306.611 656.025 306.611C656.283 306.611 656.516 306.574 656.723 306.5C656.93 306.426 657.107 306.316 657.256 306.172C657.4 306.031 657.512 305.855 657.59 305.645C657.668 305.434 657.707 305.191 657.707 304.918V304.373C657.625 304.467 657.537 304.553 657.443 304.631C657.354 304.709 657.256 304.777 657.15 304.836C656.986 304.926 656.805 304.994 656.605 305.041C656.406 305.092 656.191 305.117 655.961 305.117C655.574 305.117 655.225 305.035 654.912 304.871C654.6 304.707 654.336 304.48 654.121 304.191C653.902 303.902 653.734 303.562 653.617 303.172C653.5 302.777 653.441 302.354 653.441 301.9V301.777ZM654.525 301.9C654.525 302.209 654.557 302.502 654.619 302.779C654.686 303.057 654.789 303.301 654.93 303.512C655.066 303.723 655.242 303.891 655.457 304.016C655.672 304.137 655.93 304.197 656.23 304.197C656.418 304.197 656.586 304.176 656.734 304.133C656.887 304.086 657.023 304.021 657.145 303.939C657.262 303.857 657.367 303.76 657.461 303.646C657.555 303.533 657.637 303.408 657.707 303.271V300.365C657.637 300.232 657.555 300.111 657.461 300.002C657.367 299.893 657.26 299.797 657.139 299.715C657.018 299.637 656.883 299.576 656.734 299.533C656.586 299.486 656.422 299.463 656.242 299.463C655.938 299.463 655.676 299.525 655.457 299.65C655.242 299.775 655.066 299.943 654.93 300.154C654.789 300.369 654.686 300.617 654.619 300.898C654.557 301.176 654.525 301.469 654.525 301.777V301.9ZM661.018 298.66H664.258V304.062H666.326V305H661.018V304.062H663.174V299.604H661.018V298.66ZM663.033 296.996C663.033 296.902 663.047 296.814 663.074 296.732C663.105 296.65 663.152 296.58 663.215 296.521C663.266 296.471 663.33 296.432 663.408 296.404C663.49 296.373 663.582 296.357 663.684 296.357C663.785 296.357 663.875 296.373 663.953 296.404C664.031 296.432 664.096 296.471 664.146 296.521C664.209 296.576 664.256 296.645 664.287 296.727C664.318 296.809 664.334 296.898 664.334 296.996C664.334 297.172 664.279 297.318 664.17 297.436C664.061 297.553 663.898 297.611 663.684 297.611C663.465 297.611 663.301 297.553 663.191 297.436C663.086 297.318 663.033 297.172 663.033 296.996ZM668.055 305V298.66H669.027L669.104 299.598C669.197 299.465 669.299 299.344 669.408 299.234C669.521 299.121 669.641 299.023 669.766 298.941C669.953 298.816 670.156 298.721 670.375 298.654C670.598 298.584 670.832 298.547 671.078 298.543C671.41 298.543 671.711 298.59 671.98 298.684C672.254 298.777 672.486 298.924 672.678 299.123C672.869 299.322 673.016 299.576 673.117 299.885C673.223 300.189 673.275 300.553 673.275 300.975V305H672.191V300.998C672.191 300.717 672.16 300.479 672.098 300.283C672.035 300.088 671.943 299.93 671.822 299.809C671.697 299.688 671.545 299.6 671.365 299.545C671.189 299.49 670.986 299.463 670.756 299.463C670.557 299.463 670.371 299.492 670.199 299.551C670.027 299.605 669.869 299.682 669.725 299.779C669.607 299.865 669.498 299.965 669.396 300.078C669.299 300.191 669.213 300.316 669.139 300.453V305H668.055ZM679.475 303.318C679.475 303.189 679.449 303.074 679.398 302.973C679.348 302.867 679.262 302.771 679.141 302.686C679.02 302.6 678.859 302.521 678.66 302.451C678.461 302.377 678.213 302.311 677.916 302.252C677.553 302.178 677.221 302.088 676.92 301.982C676.623 301.877 676.369 301.75 676.158 301.602C675.943 301.457 675.777 301.287 675.66 301.092C675.543 300.893 675.484 300.662 675.484 300.4C675.484 300.143 675.545 299.902 675.666 299.68C675.787 299.453 675.957 299.256 676.176 299.088C676.395 298.92 676.654 298.787 676.955 298.689C677.26 298.592 677.594 298.543 677.957 298.543C678.348 298.543 678.699 298.594 679.012 298.695C679.324 298.797 679.59 298.938 679.809 299.117C680.027 299.297 680.195 299.508 680.312 299.75C680.434 299.988 680.494 300.246 680.494 300.523H679.41C679.41 300.387 679.375 300.254 679.305 300.125C679.234 299.992 679.137 299.875 679.012 299.773C678.887 299.672 678.734 299.59 678.555 299.527C678.379 299.465 678.18 299.434 677.957 299.434C677.727 299.434 677.523 299.459 677.348 299.51C677.176 299.561 677.033 299.629 676.92 299.715C676.803 299.801 676.715 299.9 676.656 300.014C676.598 300.127 676.568 300.244 676.568 300.365C676.568 300.49 676.592 300.602 676.639 300.699C676.686 300.797 676.768 300.885 676.885 300.963C676.998 301.041 677.15 301.111 677.342 301.174C677.537 301.236 677.783 301.297 678.08 301.355C678.471 301.438 678.82 301.533 679.129 301.643C679.438 301.748 679.697 301.875 679.908 302.023C680.119 302.176 680.279 302.352 680.389 302.551C680.502 302.75 680.559 302.98 680.559 303.242C680.559 303.523 680.494 303.779 680.365 304.01C680.24 304.24 680.064 304.438 679.838 304.602C679.611 304.766 679.34 304.893 679.023 304.982C678.707 305.072 678.361 305.117 677.986 305.117C677.557 305.117 677.174 305.061 676.838 304.947C676.502 304.83 676.219 304.676 675.988 304.484C675.754 304.297 675.574 304.078 675.449 303.828C675.328 303.578 675.268 303.318 675.268 303.049H676.352C676.367 303.271 676.426 303.459 676.527 303.611C676.633 303.764 676.764 303.887 676.92 303.98C677.072 304.074 677.242 304.141 677.43 304.18C677.617 304.219 677.803 304.238 677.986 304.238C678.275 304.238 678.527 304.205 678.742 304.139C678.957 304.068 679.125 303.973 679.246 303.852C679.32 303.777 679.377 303.695 679.416 303.605C679.455 303.516 679.475 303.42 679.475 303.318Z" fill="#3E3E3D"/>
<path d="M186 243.667C187.473 243.667 188.667 242.473 188.667 241C188.667 239.527 187.473 238.333 186 238.333C184.527 238.333 183.333 239.527 183.333 241C183.333 242.473 184.527 243.667 186 243.667ZM186 288H186.5V241H186H185.5V288H186Z" fill="#201F1F"/>
<path d="M357 243.667C358.473 243.667 359.667 242.473 359.667 241C359.667 239.527 358.473 238.333 357 238.333C355.527 238.333 354.333 239.527 354.333 241C354.333 242.473 355.527 243.667 357 243.667ZM357 288H357.5V241H357H356.5V288H357Z" fill="#201F1F"/>
<path d="M657 243.667C658.473 243.667 659.667 242.473 659.667 241C659.667 239.527 658.473 238.333 657 238.333C655.527 238.333 654.333 239.527 654.333 241C654.333 242.473 655.527 243.667 657 243.667ZM657 288H657.5V241H657H656.5V288H657Z" fill="#201F1F"/>
</g>
<defs>
<clipPath id="clip0_968_6896">
<rect width="712" height="342" fill="white"/>
</clipPath>
</defs>
</svg>
