<svg width="712" height="372" viewBox="0 0 712 372" fill="none" xmlns="http://www.w3.org/2000/svg">
<g clip-path="url(#clip0_968_9288)">
<path d="M0 7.99999C0 3.58171 3.58172 0 8 0H704C708.418 0 712 3.58172 712 8V364C712 368.418 708.418 372 704 372H8C3.58172 372 0 368.418 0 364V7.99999Z" fill="white"/>
<path d="M269.144 48.168C268.776 48.168 268.488 48.064 268.28 47.856C268.072 47.648 267.968 47.352 267.968 46.968V32.16C267.968 31.76 268.064 31.456 268.256 31.248C268.464 31.024 268.736 30.912 269.072 30.912C269.36 30.912 269.576 30.968 269.72 31.08C269.88 31.176 270.064 31.36 270.272 31.632L280.16 44.664H279.56V32.088C279.56 31.72 279.656 31.432 279.848 31.224C280.056 31.016 280.344 30.912 280.712 30.912C281.096 30.912 281.384 31.016 281.576 31.224C281.768 31.432 281.864 31.72 281.864 32.088V46.992C281.864 47.36 281.768 47.648 281.576 47.856C281.4 48.064 281.16 48.168 280.856 48.168C280.568 48.168 280.328 48.112 280.136 48C279.96 47.888 279.768 47.696 279.56 47.424L269.72 34.416H270.272V46.968C270.272 47.352 270.176 47.648 269.984 47.856C269.792 48.064 269.512 48.168 269.144 48.168ZM290.536 48.216C289.256 48.216 288.152 47.976 287.224 47.496C286.312 47 285.6 46.304 285.088 45.408C284.592 44.496 284.344 43.416 284.344 42.168C284.344 40.952 284.592 39.888 285.088 38.976C285.584 38.064 286.264 37.352 287.128 36.84C287.992 36.328 288.976 36.072 290.08 36.072C290.896 36.072 291.624 36.208 292.264 36.48C292.904 36.736 293.448 37.12 293.896 37.632C294.36 38.128 294.704 38.736 294.928 39.456C295.168 40.176 295.288 40.984 295.288 41.88C295.288 42.152 295.208 42.36 295.048 42.504C294.888 42.632 294.648 42.696 294.328 42.696H286.264V41.208H293.656L293.248 41.544C293.248 40.744 293.128 40.064 292.888 39.504C292.664 38.944 292.32 38.52 291.856 38.232C291.408 37.928 290.848 37.776 290.176 37.776C289.424 37.776 288.784 37.952 288.256 38.304C287.744 38.656 287.352 39.144 287.08 39.768C286.808 40.392 286.672 41.12 286.672 41.952V42.096C286.672 43.504 287 44.568 287.656 45.288C288.328 45.992 289.296 46.344 290.56 46.344C291.04 46.344 291.544 46.28 292.072 46.152C292.616 46.024 293.128 45.808 293.608 45.504C293.88 45.344 294.12 45.272 294.328 45.288C294.552 45.304 294.728 45.376 294.856 45.504C295 45.632 295.088 45.792 295.12 45.984C295.152 46.176 295.12 46.376 295.024 46.584C294.928 46.776 294.76 46.952 294.52 47.112C293.976 47.48 293.344 47.76 292.624 47.952C291.904 48.128 291.208 48.216 290.536 48.216ZM301.607 48.216C300.663 48.216 299.871 48.04 299.231 47.688C298.607 47.336 298.135 46.816 297.815 46.128C297.511 45.424 297.359 44.544 297.359 43.488V37.344C297.359 36.928 297.463 36.624 297.671 36.432C297.879 36.224 298.175 36.12 298.559 36.12C298.943 36.12 299.239 36.224 299.447 36.432C299.671 36.624 299.783 36.928 299.783 37.344V43.512C299.783 44.456 299.975 45.152 300.359 45.6C300.743 46.048 301.351 46.272 302.183 46.272C303.095 46.272 303.831 45.968 304.391 45.36C304.967 44.736 305.255 43.92 305.255 42.912V37.344C305.255 36.928 305.359 36.624 305.567 36.432C305.775 36.224 306.079 36.12 306.479 36.12C306.863 36.12 307.159 36.224 307.367 36.432C307.575 36.624 307.679 36.928 307.679 37.344V46.944C307.679 47.76 307.287 48.168 306.503 48.168C306.135 48.168 305.847 48.064 305.639 47.856C305.431 47.632 305.327 47.328 305.327 46.944V44.904L305.639 45.432C305.319 46.328 304.807 47.016 304.103 47.496C303.399 47.976 302.567 48.216 301.607 48.216ZM315.587 48.216C314.627 48.216 313.819 48.048 313.163 47.712C312.507 47.376 312.019 46.88 311.699 46.224C311.379 45.568 311.219 44.768 311.219 43.824V38.16H309.779C309.459 38.16 309.211 38.08 309.035 37.92C308.859 37.744 308.771 37.512 308.771 37.224C308.771 36.92 308.859 36.688 309.035 36.528C309.211 36.368 309.459 36.288 309.779 36.288H311.219V33.816C311.219 33.416 311.323 33.112 311.531 32.904C311.755 32.696 312.059 32.592 312.443 32.592C312.827 32.592 313.123 32.696 313.331 32.904C313.539 33.112 313.643 33.416 313.643 33.816V36.288H316.451C316.771 36.288 317.019 36.368 317.195 36.528C317.371 36.688 317.459 36.92 317.459 37.224C317.459 37.512 317.371 37.744 317.195 37.92C317.019 38.08 316.771 38.16 316.451 38.16H313.643V43.632C313.643 44.48 313.819 45.12 314.171 45.552C314.539 45.984 315.131 46.2 315.947 46.2C316.235 46.2 316.483 46.176 316.691 46.128C316.915 46.064 317.099 46.024 317.243 46.008C317.419 46.008 317.563 46.072 317.675 46.2C317.787 46.312 317.843 46.536 317.843 46.872C317.843 47.112 317.795 47.336 317.699 47.544C317.619 47.752 317.467 47.888 317.243 47.952C317.051 48.016 316.787 48.072 316.451 48.12C316.131 48.184 315.843 48.216 315.587 48.216ZM320.084 48.168C319.684 48.168 319.38 48.064 319.172 47.856C318.964 47.632 318.86 47.328 318.86 46.944V37.344C318.86 36.944 318.964 36.64 319.172 36.432C319.38 36.224 319.668 36.12 320.036 36.12C320.42 36.12 320.708 36.224 320.9 36.432C321.108 36.64 321.212 36.944 321.212 37.344V39.096H320.972C321.228 38.136 321.7 37.408 322.388 36.912C323.076 36.416 323.956 36.128 325.028 36.048C325.316 36.032 325.54 36.104 325.7 36.264C325.876 36.424 325.972 36.672 325.988 37.008C326.02 37.344 325.948 37.616 325.772 37.824C325.596 38.016 325.324 38.128 324.956 38.16L324.5 38.208C323.46 38.304 322.668 38.632 322.124 39.192C321.58 39.752 321.308 40.52 321.308 41.496V46.944C321.308 47.328 321.204 47.632 320.996 47.856C320.804 48.064 320.5 48.168 320.084 48.168ZM330.94 48.216C330.124 48.216 329.388 48.056 328.732 47.736C328.092 47.416 327.588 46.984 327.22 46.44C326.852 45.896 326.668 45.28 326.668 44.592C326.668 43.728 326.884 43.048 327.316 42.552C327.764 42.04 328.492 41.68 329.5 41.472C330.524 41.248 331.9 41.136 333.628 41.136H334.756V42.624H333.652C332.5 42.624 331.588 42.68 330.916 42.792C330.244 42.904 329.764 43.096 329.476 43.368C329.204 43.624 329.068 43.984 329.068 44.448C329.068 45.056 329.276 45.552 329.692 45.936C330.108 46.304 330.684 46.488 331.42 46.488C332.012 46.488 332.532 46.352 332.98 46.08C333.428 45.792 333.78 45.408 334.036 44.928C334.308 44.448 334.444 43.896 334.444 43.272V40.512C334.444 39.6 334.252 38.944 333.868 38.544C333.484 38.144 332.852 37.944 331.972 37.944C331.46 37.944 330.924 38.008 330.364 38.136C329.82 38.264 329.252 38.48 328.66 38.784C328.388 38.912 328.156 38.952 327.964 38.904C327.772 38.856 327.62 38.752 327.508 38.592C327.396 38.416 327.332 38.232 327.316 38.04C327.316 37.832 327.364 37.632 327.46 37.44C327.572 37.248 327.756 37.104 328.012 37.008C328.716 36.672 329.412 36.432 330.1 36.288C330.788 36.144 331.436 36.072 332.044 36.072C333.116 36.072 333.996 36.24 334.684 36.576C335.388 36.912 335.908 37.424 336.244 38.112C336.58 38.8 336.748 39.688 336.748 40.776V46.944C336.748 47.328 336.652 47.632 336.46 47.856C336.268 48.064 335.988 48.168 335.62 48.168C335.268 48.168 334.988 48.064 334.78 47.856C334.572 47.632 334.468 47.328 334.468 46.944V45.384H334.684C334.556 45.976 334.316 46.488 333.964 46.92C333.628 47.336 333.204 47.656 332.692 47.88C332.18 48.104 331.596 48.216 330.94 48.216ZM343.355 48.216C342.107 48.216 341.163 47.856 340.523 47.136C339.899 46.4 339.587 45.344 339.587 43.968V32.136C339.587 31.736 339.691 31.432 339.899 31.224C340.107 31.016 340.403 30.912 340.787 30.912C341.171 30.912 341.467 31.016 341.675 31.224C341.899 31.432 342.011 31.736 342.011 32.136V43.824C342.011 44.624 342.171 45.224 342.491 45.624C342.827 46.008 343.307 46.2 343.931 46.2C344.075 46.2 344.203 46.2 344.315 46.2C344.427 46.184 344.539 46.168 344.651 46.152C344.843 46.136 344.979 46.192 345.059 46.32C345.139 46.432 345.179 46.672 345.179 47.04C345.179 47.376 345.107 47.64 344.963 47.832C344.819 48.008 344.587 48.12 344.267 48.168C344.123 48.184 343.971 48.192 343.811 48.192C343.651 48.208 343.499 48.216 343.355 48.216ZM356.355 48.216C355.651 48.216 354.923 48.136 354.171 47.976C353.435 47.816 352.755 47.544 352.131 47.16C351.923 47.016 351.779 46.856 351.699 46.68C351.619 46.504 351.587 46.328 351.603 46.152C351.635 45.96 351.707 45.8 351.819 45.672C351.947 45.528 352.099 45.44 352.275 45.408C352.467 45.376 352.667 45.416 352.875 45.528C353.499 45.88 354.099 46.128 354.675 46.272C355.251 46.4 355.819 46.464 356.379 46.464C357.227 46.464 357.867 46.312 358.299 46.008C358.731 45.704 358.947 45.296 358.947 44.784C358.947 44.368 358.803 44.048 358.515 43.824C358.227 43.584 357.795 43.4 357.219 43.272L354.939 42.816C353.947 42.608 353.195 42.24 352.683 41.712C352.171 41.184 351.915 40.512 351.915 39.696C351.915 38.96 352.115 38.32 352.515 37.776C352.915 37.232 353.475 36.816 354.195 36.528C354.915 36.224 355.747 36.072 356.691 36.072C357.395 36.072 358.059 36.16 358.683 36.336C359.307 36.512 359.883 36.776 360.411 37.128C360.619 37.24 360.755 37.392 360.819 37.584C360.883 37.76 360.891 37.936 360.843 38.112C360.811 38.288 360.731 38.448 360.603 38.592C360.475 38.72 360.315 38.8 360.123 38.832C359.947 38.848 359.747 38.8 359.523 38.688C359.043 38.384 358.563 38.168 358.083 38.04C357.619 37.912 357.155 37.848 356.691 37.848C355.843 37.848 355.203 38.008 354.771 38.328C354.355 38.632 354.147 39.048 354.147 39.576C354.147 39.976 354.275 40.304 354.531 40.56C354.787 40.816 355.187 41 355.731 41.112L358.011 41.568C359.051 41.776 359.835 42.128 360.363 42.624C360.907 43.12 361.179 43.792 361.179 44.64C361.179 45.744 360.739 46.616 359.859 47.256C358.979 47.896 357.811 48.216 356.355 48.216ZM364.576 48.168C364.192 48.168 363.896 48.064 363.688 47.856C363.48 47.632 363.376 47.328 363.376 46.944V32.136C363.376 31.736 363.48 31.432 363.688 31.224C363.896 31.016 364.192 30.912 364.576 30.912C364.96 30.912 365.256 31.016 365.464 31.224C365.688 31.432 365.8 31.736 365.8 32.136V38.784H365.464C365.816 37.888 366.368 37.216 367.12 36.768C367.872 36.304 368.736 36.072 369.712 36.072C370.64 36.072 371.408 36.248 372.016 36.6C372.64 36.936 373.104 37.456 373.408 38.16C373.712 38.848 373.864 39.72 373.864 40.776V46.944C373.864 47.328 373.76 47.632 373.552 47.856C373.344 48.064 373.048 48.168 372.664 48.168C372.264 48.168 371.96 48.064 371.752 47.856C371.544 47.632 371.44 47.328 371.44 46.944V40.92C371.44 39.912 371.24 39.176 370.84 38.712C370.456 38.248 369.848 38.016 369.016 38.016C368.04 38.016 367.256 38.32 366.664 38.928C366.088 39.536 365.8 40.352 365.8 41.376V46.944C365.8 47.76 365.392 48.168 364.576 48.168ZM380.448 48.216C379.632 48.216 378.896 48.056 378.24 47.736C377.6 47.416 377.096 46.984 376.728 46.44C376.36 45.896 376.176 45.28 376.176 44.592C376.176 43.728 376.392 43.048 376.824 42.552C377.272 42.04 378 41.68 379.008 41.472C380.032 41.248 381.408 41.136 383.136 41.136H384.264V42.624H383.16C382.008 42.624 381.096 42.68 380.424 42.792C379.752 42.904 379.272 43.096 378.984 43.368C378.712 43.624 378.576 43.984 378.576 44.448C378.576 45.056 378.784 45.552 379.2 45.936C379.616 46.304 380.192 46.488 380.928 46.488C381.52 46.488 382.04 46.352 382.488 46.08C382.936 45.792 383.288 45.408 383.544 44.928C383.816 44.448 383.952 43.896 383.952 43.272V40.512C383.952 39.6 383.76 38.944 383.376 38.544C382.992 38.144 382.36 37.944 381.48 37.944C380.968 37.944 380.432 38.008 379.872 38.136C379.328 38.264 378.76 38.48 378.168 38.784C377.896 38.912 377.664 38.952 377.472 38.904C377.28 38.856 377.128 38.752 377.016 38.592C376.904 38.416 376.84 38.232 376.824 38.04C376.824 37.832 376.872 37.632 376.968 37.44C377.08 37.248 377.264 37.104 377.52 37.008C378.224 36.672 378.92 36.432 379.608 36.288C380.296 36.144 380.944 36.072 381.552 36.072C382.624 36.072 383.504 36.24 384.192 36.576C384.896 36.912 385.416 37.424 385.752 38.112C386.088 38.8 386.256 39.688 386.256 40.776V46.944C386.256 47.328 386.16 47.632 385.968 47.856C385.776 48.064 385.496 48.168 385.128 48.168C384.776 48.168 384.496 48.064 384.288 47.856C384.08 47.632 383.976 47.328 383.976 46.944V45.384H384.192C384.064 45.976 383.824 46.488 383.472 46.92C383.136 47.336 382.712 47.656 382.2 47.88C381.688 48.104 381.104 48.216 380.448 48.216ZM393.559 48.216C392.535 48.216 391.631 47.976 390.847 47.496C390.079 47 389.479 46.296 389.047 45.384C388.615 44.456 388.399 43.376 388.399 42.144C388.399 40.88 388.615 39.8 389.047 38.904C389.479 38.008 390.079 37.312 390.847 36.816C391.631 36.32 392.535 36.072 393.559 36.072C394.583 36.072 395.463 36.328 396.199 36.84C396.951 37.336 397.455 38.008 397.711 38.856H397.447V32.136C397.447 31.736 397.551 31.432 397.759 31.224C397.967 31.016 398.263 30.912 398.647 30.912C399.031 30.912 399.327 31.016 399.535 31.224C399.759 31.432 399.871 31.736 399.871 32.136V46.944C399.871 47.328 399.767 47.632 399.559 47.856C399.351 48.064 399.055 48.168 398.671 48.168C398.287 48.168 397.991 48.064 397.783 47.856C397.575 47.632 397.471 47.328 397.471 46.944V44.832L397.735 45.36C397.479 46.224 396.975 46.92 396.223 47.448C395.487 47.96 394.599 48.216 393.559 48.216ZM394.183 46.344C394.839 46.344 395.415 46.184 395.911 45.864C396.407 45.544 396.791 45.072 397.063 44.448C397.351 43.824 397.495 43.056 397.495 42.144C397.495 40.768 397.191 39.728 396.583 39.024C395.975 38.32 395.175 37.968 394.183 37.968C393.511 37.968 392.927 38.128 392.431 38.448C391.935 38.752 391.543 39.216 391.255 39.84C390.983 40.464 390.847 41.232 390.847 42.144C390.847 43.504 391.151 44.544 391.759 45.264C392.367 45.984 393.175 46.344 394.183 46.344ZM407.862 48.216C406.678 48.216 405.654 47.968 404.79 47.472C403.942 46.976 403.278 46.272 402.798 45.36C402.318 44.448 402.078 43.376 402.078 42.144C402.078 41.2 402.214 40.36 402.486 39.624C402.758 38.888 403.142 38.256 403.638 37.728C404.15 37.184 404.758 36.776 405.462 36.504C406.182 36.216 406.982 36.072 407.862 36.072C409.03 36.072 410.038 36.32 410.886 36.816C411.75 37.312 412.422 38.016 412.902 38.928C413.382 39.824 413.622 40.896 413.622 42.144C413.622 43.072 413.486 43.912 413.214 44.664C412.942 45.416 412.55 46.056 412.038 46.584C411.542 47.112 410.934 47.52 410.214 47.808C409.51 48.08 408.726 48.216 407.862 48.216ZM407.862 46.344C408.518 46.344 409.094 46.184 409.59 45.864C410.086 45.544 410.47 45.072 410.742 44.448C411.03 43.824 411.174 43.056 411.174 42.144C411.174 40.768 410.87 39.728 410.262 39.024C409.654 38.32 408.854 37.968 407.862 37.968C407.19 37.968 406.606 38.128 406.11 38.448C405.614 38.752 405.222 39.216 404.934 39.84C404.662 40.464 404.526 41.232 404.526 42.144C404.526 43.504 404.83 44.544 405.438 45.264C406.046 45.984 406.854 46.344 407.862 46.344ZM419.906 48.168C419.57 48.168 419.274 48.088 419.018 47.928C418.778 47.752 418.586 47.48 418.442 47.112L414.914 37.776C414.786 37.456 414.746 37.176 414.794 36.936C414.842 36.68 414.962 36.48 415.154 36.336C415.362 36.192 415.626 36.12 415.946 36.12C416.234 36.12 416.466 36.192 416.642 36.336C416.834 36.464 416.994 36.72 417.122 37.104L420.266 45.96H419.69L422.954 37.008C423.066 36.704 423.218 36.48 423.41 36.336C423.602 36.192 423.85 36.12 424.154 36.12C424.458 36.12 424.706 36.192 424.898 36.336C425.106 36.48 425.258 36.704 425.354 37.008L428.546 45.96H428.018L431.21 37.056C431.338 36.688 431.498 36.44 431.69 36.312C431.898 36.184 432.13 36.12 432.386 36.12C432.706 36.12 432.946 36.2 433.106 36.36C433.282 36.52 433.378 36.728 433.394 36.984C433.426 37.224 433.386 37.488 433.274 37.776L429.746 47.112C429.602 47.464 429.402 47.728 429.146 47.904C428.906 48.08 428.626 48.168 428.306 48.168C427.97 48.168 427.674 48.08 427.418 47.904C427.178 47.728 426.986 47.464 426.842 47.112L423.482 38.016H424.682L421.346 47.112C421.218 47.464 421.026 47.728 420.77 47.904C420.53 48.08 420.242 48.168 419.906 48.168ZM439.3 48.216C438.596 48.216 437.868 48.136 437.116 47.976C436.38 47.816 435.7 47.544 435.076 47.16C434.868 47.016 434.724 46.856 434.644 46.68C434.564 46.504 434.532 46.328 434.548 46.152C434.58 45.96 434.652 45.8 434.764 45.672C434.892 45.528 435.044 45.44 435.22 45.408C435.412 45.376 435.612 45.416 435.82 45.528C436.444 45.88 437.044 46.128 437.62 46.272C438.196 46.4 438.764 46.464 439.324 46.464C440.172 46.464 440.812 46.312 441.244 46.008C441.676 45.704 441.892 45.296 441.892 44.784C441.892 44.368 441.748 44.048 441.46 43.824C441.172 43.584 440.74 43.4 440.164 43.272L437.884 42.816C436.892 42.608 436.14 42.24 435.628 41.712C435.116 41.184 434.86 40.512 434.86 39.696C434.86 38.96 435.06 38.32 435.46 37.776C435.86 37.232 436.42 36.816 437.14 36.528C437.86 36.224 438.692 36.072 439.636 36.072C440.34 36.072 441.004 36.16 441.628 36.336C442.252 36.512 442.828 36.776 443.356 37.128C443.564 37.24 443.7 37.392 443.764 37.584C443.828 37.76 443.836 37.936 443.788 38.112C443.756 38.288 443.676 38.448 443.548 38.592C443.42 38.72 443.26 38.8 443.068 38.832C442.892 38.848 442.692 38.8 442.468 38.688C441.988 38.384 441.508 38.168 441.028 38.04C440.564 37.912 440.1 37.848 439.636 37.848C438.788 37.848 438.148 38.008 437.716 38.328C437.3 38.632 437.092 39.048 437.092 39.576C437.092 39.976 437.22 40.304 437.476 40.56C437.732 40.816 438.132 41 438.676 41.112L440.956 41.568C441.996 41.776 442.78 42.128 443.308 42.624C443.852 43.12 444.124 43.792 444.124 44.64C444.124 45.744 443.684 46.616 442.804 47.256C441.924 47.896 440.756 48.216 439.3 48.216Z" fill="#201F1F"/>
<path d="M67.4572 98V86.5469H68.9728V98H67.4572ZM71.4728 98V89.7031H72.7384V90.8828C73.3478 89.9714 74.228 89.5156 75.3791 89.5156C75.8791 89.5156 76.3374 89.6068 76.7541 89.7891C77.1759 89.9661 77.491 90.2005 77.6994 90.4922C77.9077 90.7839 78.0535 91.1302 78.1369 91.5312C78.189 91.7917 78.215 92.2474 78.215 92.8984V98H76.8088V92.9531C76.8088 92.3802 76.7541 91.9531 76.6447 91.6719C76.5353 91.3854 76.34 91.1589 76.0588 90.9922C75.7827 90.8203 75.4572 90.7344 75.0822 90.7344C74.4832 90.7344 73.965 90.9245 73.5275 91.3047C73.0952 91.6849 72.8791 92.4062 72.8791 93.4688V98H71.4728ZM80.3791 98V89.7031H81.6447V90.8828C82.2541 89.9714 83.1343 89.5156 84.2853 89.5156C84.7853 89.5156 85.2436 89.6068 85.6603 89.7891C86.0822 89.9661 86.3973 90.2005 86.6056 90.4922C86.814 90.7839 86.9598 91.1302 87.0431 91.5312C87.0952 91.7917 87.1213 92.2474 87.1213 92.8984V98H85.715V92.9531C85.715 92.3802 85.6603 91.9531 85.5509 91.6719C85.4416 91.3854 85.2463 91.1589 84.965 90.9922C84.689 90.8203 84.3634 90.7344 83.9884 90.7344C83.3895 90.7344 82.8713 90.9245 82.4338 91.3047C82.0015 91.6849 81.7853 92.4062 81.7853 93.4688V98H80.3791ZM94.965 95.3281L96.4181 95.5078C96.189 96.3568 95.7645 97.0156 95.1447 97.4844C94.5249 97.9531 93.7332 98.1875 92.7697 98.1875C91.5561 98.1875 90.5926 97.8151 89.8791 97.0703C89.1707 96.3203 88.8166 95.2708 88.8166 93.9219C88.8166 92.526 89.1759 91.4427 89.8947 90.6719C90.6134 89.901 91.5457 89.5156 92.6916 89.5156C93.8009 89.5156 94.7072 89.8932 95.4103 90.6484C96.1134 91.4036 96.465 92.4661 96.465 93.8359C96.465 93.9193 96.4624 94.0443 96.4572 94.2109H90.2697C90.3218 95.1224 90.5796 95.8203 91.0431 96.3047C91.5067 96.7891 92.0848 97.0312 92.7775 97.0312C93.2931 97.0312 93.7332 96.8958 94.0978 96.625C94.4624 96.3542 94.7515 95.9219 94.965 95.3281ZM90.3478 93.0547H94.9806C94.9181 92.3568 94.741 91.8333 94.4494 91.4844C94.0015 90.9427 93.4207 90.6719 92.7072 90.6719C92.0614 90.6719 91.5171 90.888 91.0744 91.3203C90.6369 91.7526 90.3947 92.3307 90.3478 93.0547ZM98.1759 98V89.7031H99.4416V90.9609C99.7645 90.3724 100.061 89.9844 100.332 89.7969C100.608 89.6094 100.91 89.5156 101.238 89.5156C101.712 89.5156 102.194 89.6667 102.684 89.9688L102.199 91.2734C101.856 91.0703 101.512 90.9688 101.168 90.9688C100.861 90.9688 100.585 91.0625 100.34 91.25C100.095 91.4323 99.9207 91.6875 99.8166 92.0156C99.6603 92.5156 99.5822 93.0625 99.5822 93.6562V98H98.1759ZM56.0041 118.32L57.4338 118.195C57.5015 118.768 57.6577 119.24 57.9025 119.609C58.1525 119.974 58.5379 120.271 59.0588 120.5C59.5796 120.724 60.1655 120.836 60.8166 120.836C61.3947 120.836 61.9051 120.75 62.3478 120.578C62.7905 120.406 63.1186 120.172 63.3322 119.875C63.5509 119.573 63.6603 119.245 63.6603 118.891C63.6603 118.531 63.5561 118.219 63.3478 117.953C63.1395 117.682 62.7957 117.456 62.3166 117.273C62.0093 117.154 61.3296 116.969 60.2775 116.719C59.2254 116.464 58.4884 116.224 58.0666 116C57.5197 115.714 57.1108 115.359 56.84 114.938C56.5744 114.51 56.4416 114.034 56.4416 113.508C56.4416 112.93 56.6056 112.391 56.9338 111.891C57.2619 111.385 57.741 111.003 58.3713 110.742C59.0015 110.482 59.702 110.352 60.4728 110.352C61.3218 110.352 62.0692 110.49 62.715 110.766C63.366 111.036 63.866 111.438 64.215 111.969C64.564 112.5 64.7515 113.102 64.7775 113.773L63.3244 113.883C63.2463 113.159 62.9806 112.612 62.5275 112.242C62.0796 111.872 61.4155 111.688 60.5353 111.688C59.6186 111.688 58.9494 111.857 58.5275 112.195C58.1108 112.529 57.9025 112.932 57.9025 113.406C57.9025 113.818 58.0509 114.156 58.3478 114.422C58.6395 114.688 59.3999 114.961 60.6291 115.242C61.8634 115.518 62.7098 115.76 63.1681 115.969C63.8348 116.276 64.327 116.667 64.6447 117.141C64.9624 117.609 65.1213 118.151 65.1213 118.766C65.1213 119.375 64.9468 119.951 64.5978 120.492C64.2489 121.029 63.7463 121.448 63.09 121.75C62.439 122.047 61.7046 122.195 60.8869 122.195C59.8504 122.195 58.9806 122.044 58.2775 121.742C57.5796 121.44 57.0301 120.987 56.6291 120.383C56.2332 119.773 56.0249 119.086 56.0041 118.32ZM67.0119 122V110.547H68.4181V114.656C69.0744 113.896 69.9025 113.516 70.9025 113.516C71.5171 113.516 72.0509 113.638 72.5041 113.883C72.9572 114.122 73.2801 114.456 73.4728 114.883C73.6707 115.31 73.7697 115.93 73.7697 116.742V122H72.3634V116.742C72.3634 116.039 72.2098 115.529 71.9025 115.211C71.6004 114.888 71.1707 114.727 70.6134 114.727C70.1968 114.727 69.8035 114.836 69.4338 115.055C69.0692 115.268 68.8088 115.56 68.6525 115.93C68.4963 116.299 68.4181 116.81 68.4181 117.461V122H67.0119ZM81.3322 120.977C80.8114 121.419 80.3088 121.732 79.8244 121.914C79.3452 122.096 78.8296 122.188 78.2775 122.188C77.366 122.188 76.6655 121.966 76.1759 121.523C75.6864 121.076 75.4416 120.505 75.4416 119.812C75.4416 119.406 75.5327 119.036 75.715 118.703C75.9025 118.365 76.1447 118.094 76.4416 117.891C76.7436 117.688 77.0822 117.534 77.4572 117.43C77.7332 117.357 78.1499 117.286 78.7072 117.219C79.8426 117.083 80.6785 116.922 81.215 116.734C81.2202 116.542 81.2228 116.419 81.2228 116.367C81.2228 115.794 81.09 115.391 80.8244 115.156C80.465 114.839 79.9311 114.68 79.2228 114.68C78.5614 114.68 78.0718 114.797 77.7541 115.031C77.4416 115.26 77.2098 115.669 77.0588 116.258L75.6838 116.07C75.8088 115.482 76.0145 115.008 76.3009 114.648C76.5874 114.284 77.0015 114.005 77.5431 113.812C78.0848 113.615 78.7124 113.516 79.4259 113.516C80.1343 113.516 80.7098 113.599 81.1525 113.766C81.5952 113.932 81.9207 114.143 82.1291 114.398C82.3374 114.648 82.4832 114.966 82.5666 115.352C82.6134 115.591 82.6369 116.023 82.6369 116.648V118.523C82.6369 119.831 82.6655 120.659 82.7228 121.008C82.7853 121.352 82.9051 121.682 83.0822 122H81.6134C81.4676 121.708 81.3739 121.367 81.3322 120.977ZM81.215 117.836C80.7046 118.044 79.939 118.221 78.9181 118.367C78.34 118.451 77.9311 118.544 77.6916 118.648C77.452 118.753 77.2671 118.906 77.1369 119.109C77.0067 119.307 76.9416 119.529 76.9416 119.773C76.9416 120.148 77.0822 120.461 77.3634 120.711C77.6499 120.961 78.0666 121.086 78.6134 121.086C79.1551 121.086 79.6369 120.969 80.0588 120.734C80.4806 120.495 80.7905 120.169 80.9884 119.758C81.1395 119.44 81.215 118.971 81.215 118.352V117.836ZM90.2072 122V120.953C89.6811 121.776 88.9077 122.188 87.8869 122.188C87.2254 122.188 86.616 122.005 86.0588 121.641C85.5067 121.276 85.077 120.768 84.7697 120.117C84.4676 119.461 84.3166 118.708 84.3166 117.859C84.3166 117.031 84.4546 116.281 84.7306 115.609C85.0067 114.932 85.4207 114.414 85.9728 114.055C86.5249 113.695 87.1421 113.516 87.8244 113.516C88.3244 113.516 88.7697 113.622 89.1603 113.836C89.5509 114.044 89.8686 114.318 90.1134 114.656V110.547H91.5119V122H90.2072ZM85.7619 117.859C85.7619 118.922 85.9858 119.716 86.4338 120.242C86.8817 120.768 87.4103 121.031 88.0197 121.031C88.6343 121.031 89.1551 120.781 89.5822 120.281C90.0145 119.776 90.2306 119.008 90.2306 117.977C90.2306 116.841 90.0119 116.008 89.5744 115.477C89.1369 114.945 88.5978 114.68 87.9572 114.68C87.3322 114.68 86.8088 114.935 86.3869 115.445C85.9702 115.956 85.7619 116.76 85.7619 117.859ZM93.2072 117.852C93.2072 116.315 93.6343 115.177 94.4884 114.438C95.202 113.823 96.0718 113.516 97.0978 113.516C98.2384 113.516 99.1707 113.891 99.8947 114.641C100.619 115.385 100.981 116.417 100.981 117.734C100.981 118.802 100.819 119.643 100.496 120.258C100.179 120.867 99.7124 121.341 99.0978 121.68C98.4884 122.018 97.8218 122.188 97.0978 122.188C95.9364 122.188 94.9963 121.815 94.2775 121.07C93.564 120.326 93.2072 119.253 93.2072 117.852ZM94.6525 117.852C94.6525 118.914 94.8843 119.711 95.3478 120.242C95.8114 120.768 96.3947 121.031 97.0978 121.031C97.7957 121.031 98.3765 120.766 98.84 120.234C99.3035 119.703 99.5353 118.893 99.5353 117.805C99.5353 116.779 99.3009 116.003 98.8322 115.477C98.3686 114.945 97.7905 114.68 97.0978 114.68C96.3947 114.68 95.8114 114.943 95.3478 115.469C94.8843 115.995 94.6525 116.789 94.6525 117.852ZM104.168 122L101.629 113.703H103.082L104.403 118.492L104.895 120.273C104.916 120.185 105.059 119.615 105.324 118.562L106.645 113.703H108.09L109.332 118.516L109.746 120.102L110.223 118.5L111.645 113.703H113.012L110.418 122H108.957L107.637 117.031L107.317 115.617L105.637 122H104.168Z" fill="#201F1F"/>
<path d="M139.919 106.32L141.349 106.195C141.417 106.768 141.573 107.24 141.818 107.609C142.068 107.974 142.453 108.271 142.974 108.5C143.495 108.724 144.081 108.836 144.732 108.836C145.31 108.836 145.82 108.75 146.263 108.578C146.706 108.406 147.034 108.172 147.247 107.875C147.466 107.573 147.576 107.245 147.576 106.891C147.576 106.531 147.471 106.219 147.263 105.953C147.055 105.682 146.711 105.456 146.232 105.273C145.925 105.154 145.245 104.969 144.193 104.719C143.141 104.464 142.404 104.224 141.982 104C141.435 103.714 141.026 103.359 140.755 102.938C140.49 102.51 140.357 102.034 140.357 101.508C140.357 100.93 140.521 100.391 140.849 99.8906C141.177 99.3854 141.656 99.0026 142.287 98.7422C142.917 98.4818 143.617 98.3516 144.388 98.3516C145.237 98.3516 145.984 98.4896 146.63 98.7656C147.281 99.0365 147.781 99.4375 148.13 99.9688C148.479 100.5 148.667 101.102 148.693 101.773L147.24 101.883C147.162 101.159 146.896 100.612 146.443 100.242C145.995 99.8724 145.331 99.6875 144.451 99.6875C143.534 99.6875 142.865 99.8568 142.443 100.195C142.026 100.529 141.818 100.932 141.818 101.406C141.818 101.818 141.966 102.156 142.263 102.422C142.555 102.688 143.315 102.961 144.544 103.242C145.779 103.518 146.625 103.76 147.083 103.969C147.75 104.276 148.242 104.667 148.56 105.141C148.878 105.609 149.037 106.151 149.037 106.766C149.037 107.375 148.862 107.951 148.513 108.492C148.164 109.029 147.662 109.448 147.005 109.75C146.354 110.047 145.62 110.195 144.802 110.195C143.766 110.195 142.896 110.044 142.193 109.742C141.495 109.44 140.945 108.987 140.544 108.383C140.149 107.773 139.94 107.086 139.919 106.32ZM150.927 110V98.5469H152.333V102.656C152.99 101.896 153.818 101.516 154.818 101.516C155.432 101.516 155.966 101.638 156.419 101.883C156.872 102.122 157.195 102.456 157.388 102.883C157.586 103.31 157.685 103.93 157.685 104.742V110H156.279V104.742C156.279 104.039 156.125 103.529 155.818 103.211C155.516 102.888 155.086 102.727 154.529 102.727C154.112 102.727 153.719 102.836 153.349 103.055C152.984 103.268 152.724 103.56 152.568 103.93C152.412 104.299 152.333 104.81 152.333 105.461V110H150.927ZM165.247 108.977C164.727 109.419 164.224 109.732 163.74 109.914C163.26 110.096 162.745 110.188 162.193 110.188C161.281 110.188 160.581 109.966 160.091 109.523C159.602 109.076 159.357 108.505 159.357 107.812C159.357 107.406 159.448 107.036 159.63 106.703C159.818 106.365 160.06 106.094 160.357 105.891C160.659 105.688 160.997 105.534 161.372 105.43C161.649 105.357 162.065 105.286 162.622 105.219C163.758 105.083 164.594 104.922 165.13 104.734C165.135 104.542 165.138 104.419 165.138 104.367C165.138 103.794 165.005 103.391 164.74 103.156C164.38 102.839 163.846 102.68 163.138 102.68C162.477 102.68 161.987 102.797 161.669 103.031C161.357 103.26 161.125 103.669 160.974 104.258L159.599 104.07C159.724 103.482 159.93 103.008 160.216 102.648C160.503 102.284 160.917 102.005 161.458 101.812C162 101.615 162.628 101.516 163.341 101.516C164.05 101.516 164.625 101.599 165.068 101.766C165.51 101.932 165.836 102.143 166.044 102.398C166.253 102.648 166.399 102.966 166.482 103.352C166.529 103.591 166.552 104.023 166.552 104.648V106.523C166.552 107.831 166.581 108.659 166.638 109.008C166.701 109.352 166.82 109.682 166.997 110H165.529C165.383 109.708 165.289 109.367 165.247 108.977ZM165.13 105.836C164.62 106.044 163.854 106.221 162.833 106.367C162.255 106.451 161.846 106.544 161.607 106.648C161.367 106.753 161.182 106.906 161.052 107.109C160.922 107.307 160.857 107.529 160.857 107.773C160.857 108.148 160.997 108.461 161.279 108.711C161.565 108.961 161.982 109.086 162.529 109.086C163.07 109.086 163.552 108.969 163.974 108.734C164.396 108.495 164.706 108.169 164.904 107.758C165.055 107.44 165.13 106.971 165.13 106.352V105.836ZM174.122 110V108.953C173.596 109.776 172.823 110.188 171.802 110.188C171.141 110.188 170.531 110.005 169.974 109.641C169.422 109.276 168.992 108.768 168.685 108.117C168.383 107.461 168.232 106.708 168.232 105.859C168.232 105.031 168.37 104.281 168.646 103.609C168.922 102.932 169.336 102.414 169.888 102.055C170.44 101.695 171.057 101.516 171.74 101.516C172.24 101.516 172.685 101.622 173.076 101.836C173.466 102.044 173.784 102.318 174.029 102.656V98.5469H175.427V110H174.122ZM169.677 105.859C169.677 106.922 169.901 107.716 170.349 108.242C170.797 108.768 171.326 109.031 171.935 109.031C172.55 109.031 173.07 108.781 173.497 108.281C173.93 107.776 174.146 107.008 174.146 105.977C174.146 104.841 173.927 104.008 173.49 103.477C173.052 102.945 172.513 102.68 171.872 102.68C171.247 102.68 170.724 102.935 170.302 103.445C169.885 103.956 169.677 104.76 169.677 105.859ZM177.122 105.852C177.122 104.315 177.55 103.177 178.404 102.438C179.117 101.823 179.987 101.516 181.013 101.516C182.154 101.516 183.086 101.891 183.81 102.641C184.534 103.385 184.896 104.417 184.896 105.734C184.896 106.802 184.734 107.643 184.412 108.258C184.094 108.867 183.628 109.341 183.013 109.68C182.404 110.018 181.737 110.188 181.013 110.188C179.852 110.188 178.912 109.815 178.193 109.07C177.479 108.326 177.122 107.253 177.122 105.852ZM178.568 105.852C178.568 106.914 178.8 107.711 179.263 108.242C179.727 108.768 180.31 109.031 181.013 109.031C181.711 109.031 182.292 108.766 182.755 108.234C183.219 107.703 183.451 106.893 183.451 105.805C183.451 104.779 183.216 104.003 182.747 103.477C182.284 102.945 181.706 102.68 181.013 102.68C180.31 102.68 179.727 102.943 179.263 103.469C178.8 103.995 178.568 104.789 178.568 105.852ZM188.083 110L185.544 101.703H186.997L188.318 106.492L188.81 108.273C188.831 108.185 188.974 107.615 189.24 106.562L190.56 101.703H192.005L193.247 106.516L193.662 108.102L194.138 106.5L195.56 101.703H196.927L194.333 110H192.872L191.552 105.031L191.232 103.617L189.552 110H188.083ZM207.474 110H206.068V101.039C205.729 101.362 205.284 101.685 204.732 102.008C204.185 102.331 203.693 102.573 203.255 102.734V101.375C204.042 101.005 204.729 100.557 205.318 100.031C205.906 99.5052 206.323 98.9948 206.568 98.5H207.474V110Z" fill="#201F1F"/>
<path d="M230.514 106.32L231.944 106.195C232.012 106.768 232.168 107.24 232.413 107.609C232.663 107.974 233.048 108.271 233.569 108.5C234.09 108.724 234.676 108.836 235.327 108.836C235.905 108.836 236.415 108.75 236.858 108.578C237.301 108.406 237.629 108.172 237.842 107.875C238.061 107.573 238.171 107.245 238.171 106.891C238.171 106.531 238.066 106.219 237.858 105.953C237.65 105.682 237.306 105.456 236.827 105.273C236.52 105.154 235.84 104.969 234.788 104.719C233.736 104.464 232.999 104.224 232.577 104C232.03 103.714 231.621 103.359 231.35 102.938C231.085 102.51 230.952 102.034 230.952 101.508C230.952 100.93 231.116 100.391 231.444 99.8906C231.772 99.3854 232.251 99.0026 232.882 98.7422C233.512 98.4818 234.212 98.3516 234.983 98.3516C235.832 98.3516 236.579 98.4896 237.225 98.7656C237.876 99.0365 238.376 99.4375 238.725 99.9688C239.074 100.5 239.262 101.102 239.288 101.773L237.835 101.883C237.757 101.159 237.491 100.612 237.038 100.242C236.59 99.8724 235.926 99.6875 235.046 99.6875C234.129 99.6875 233.46 99.8568 233.038 100.195C232.621 100.529 232.413 100.932 232.413 101.406C232.413 101.818 232.561 102.156 232.858 102.422C233.15 102.688 233.91 102.961 235.139 103.242C236.374 103.518 237.22 103.76 237.678 103.969C238.345 104.276 238.837 104.667 239.155 105.141C239.473 105.609 239.632 106.151 239.632 106.766C239.632 107.375 239.457 107.951 239.108 108.492C238.759 109.029 238.257 109.448 237.6 109.75C236.949 110.047 236.215 110.195 235.397 110.195C234.361 110.195 233.491 110.044 232.788 109.742C232.09 109.44 231.54 108.987 231.139 108.383C230.743 107.773 230.535 107.086 230.514 106.32ZM241.522 110V98.5469H242.928V102.656C243.585 101.896 244.413 101.516 245.413 101.516C246.027 101.516 246.561 101.638 247.014 101.883C247.467 102.122 247.79 102.456 247.983 102.883C248.181 103.31 248.28 103.93 248.28 104.742V110H246.874V104.742C246.874 104.039 246.72 103.529 246.413 103.211C246.111 102.888 245.681 102.727 245.124 102.727C244.707 102.727 244.314 102.836 243.944 103.055C243.579 103.268 243.319 103.56 243.163 103.93C243.007 104.299 242.928 104.81 242.928 105.461V110H241.522ZM255.842 108.977C255.322 109.419 254.819 109.732 254.335 109.914C253.855 110.096 253.34 110.188 252.788 110.188C251.876 110.188 251.176 109.966 250.686 109.523C250.197 109.076 249.952 108.505 249.952 107.812C249.952 107.406 250.043 107.036 250.225 106.703C250.413 106.365 250.655 106.094 250.952 105.891C251.254 105.688 251.592 105.534 251.967 105.43C252.243 105.357 252.66 105.286 253.217 105.219C254.353 105.083 255.189 104.922 255.725 104.734C255.73 104.542 255.733 104.419 255.733 104.367C255.733 103.794 255.6 103.391 255.335 103.156C254.975 102.839 254.441 102.68 253.733 102.68C253.072 102.68 252.582 102.797 252.264 103.031C251.952 103.26 251.72 103.669 251.569 104.258L250.194 104.07C250.319 103.482 250.525 103.008 250.811 102.648C251.098 102.284 251.512 102.005 252.053 101.812C252.595 101.615 253.223 101.516 253.936 101.516C254.645 101.516 255.22 101.599 255.663 101.766C256.105 101.932 256.431 102.143 256.639 102.398C256.848 102.648 256.993 102.966 257.077 103.352C257.124 103.591 257.147 104.023 257.147 104.648V106.523C257.147 107.831 257.176 108.659 257.233 109.008C257.296 109.352 257.415 109.682 257.592 110H256.124C255.978 109.708 255.884 109.367 255.842 108.977ZM255.725 105.836C255.215 106.044 254.449 106.221 253.428 106.367C252.85 106.451 252.441 106.544 252.202 106.648C251.962 106.753 251.777 106.906 251.647 107.109C251.517 107.307 251.452 107.529 251.452 107.773C251.452 108.148 251.592 108.461 251.874 108.711C252.16 108.961 252.577 109.086 253.124 109.086C253.665 109.086 254.147 108.969 254.569 108.734C254.991 108.495 255.301 108.169 255.499 107.758C255.65 107.44 255.725 106.971 255.725 106.352V105.836ZM264.717 110V108.953C264.191 109.776 263.418 110.188 262.397 110.188C261.736 110.188 261.126 110.005 260.569 109.641C260.017 109.276 259.587 108.768 259.28 108.117C258.978 107.461 258.827 106.708 258.827 105.859C258.827 105.031 258.965 104.281 259.241 103.609C259.517 102.932 259.931 102.414 260.483 102.055C261.035 101.695 261.652 101.516 262.335 101.516C262.835 101.516 263.28 101.622 263.671 101.836C264.061 102.044 264.379 102.318 264.624 102.656V98.5469H266.022V110H264.717ZM260.272 105.859C260.272 106.922 260.496 107.716 260.944 108.242C261.392 108.768 261.921 109.031 262.53 109.031C263.145 109.031 263.665 108.781 264.092 108.281C264.525 107.776 264.741 107.008 264.741 105.977C264.741 104.841 264.522 104.008 264.085 103.477C263.647 102.945 263.108 102.68 262.467 102.68C261.842 102.68 261.319 102.935 260.897 103.445C260.48 103.956 260.272 104.76 260.272 105.859ZM267.717 105.852C267.717 104.315 268.145 103.177 268.999 102.438C269.712 101.823 270.582 101.516 271.608 101.516C272.749 101.516 273.681 101.891 274.405 102.641C275.129 103.385 275.491 104.417 275.491 105.734C275.491 106.802 275.329 107.643 275.007 108.258C274.689 108.867 274.223 109.341 273.608 109.68C272.999 110.018 272.332 110.188 271.608 110.188C270.447 110.188 269.507 109.815 268.788 109.07C268.074 108.326 267.717 107.253 267.717 105.852ZM269.163 105.852C269.163 106.914 269.395 107.711 269.858 108.242C270.322 108.768 270.905 109.031 271.608 109.031C272.306 109.031 272.887 108.766 273.35 108.234C273.814 107.703 274.046 106.893 274.046 105.805C274.046 104.779 273.811 104.003 273.342 103.477C272.879 102.945 272.301 102.68 271.608 102.68C270.905 102.68 270.322 102.943 269.858 103.469C269.395 103.995 269.163 104.789 269.163 105.852ZM278.678 110L276.139 101.703H277.592L278.913 106.492L279.405 108.273C279.426 108.185 279.569 107.615 279.835 106.562L281.155 101.703H282.6L283.842 106.516L284.257 108.102L284.733 106.5L286.155 101.703H287.522L284.928 110H283.467L282.147 105.031L281.827 103.617L280.147 110H278.678ZM300.163 108.648V110H292.592C292.582 109.661 292.637 109.336 292.757 109.023C292.949 108.508 293.257 108 293.678 107.5C294.105 107 294.72 106.422 295.522 105.766C296.767 104.745 297.608 103.938 298.046 103.344C298.483 102.745 298.702 102.18 298.702 101.648C298.702 101.091 298.501 100.622 298.1 100.242C297.704 99.8568 297.186 99.6641 296.546 99.6641C295.868 99.6641 295.327 99.8672 294.921 100.273C294.514 100.68 294.309 101.242 294.303 101.961L292.858 101.812C292.957 100.734 293.329 99.9141 293.975 99.3516C294.621 98.7839 295.488 98.5 296.577 98.5C297.676 98.5 298.546 98.8047 299.186 99.4141C299.827 100.023 300.147 100.779 300.147 101.68C300.147 102.138 300.053 102.589 299.866 103.031C299.678 103.474 299.366 103.94 298.928 104.43C298.496 104.919 297.775 105.591 296.764 106.445C295.921 107.154 295.379 107.635 295.139 107.891C294.9 108.141 294.702 108.393 294.546 108.648H300.163Z" fill="#201F1F"/>
<path d="M321.109 106.32L322.539 106.195C322.607 106.768 322.763 107.24 323.008 107.609C323.258 107.974 323.643 108.271 324.164 108.5C324.685 108.724 325.271 108.836 325.922 108.836C326.5 108.836 327.01 108.75 327.453 108.578C327.896 108.406 328.224 108.172 328.437 107.875C328.656 107.573 328.766 107.245 328.766 106.891C328.766 106.531 328.661 106.219 328.453 105.953C328.245 105.682 327.901 105.456 327.422 105.273C327.114 105.154 326.435 104.969 325.383 104.719C324.331 104.464 323.594 104.224 323.172 104C322.625 103.714 322.216 103.359 321.945 102.938C321.68 102.51 321.547 102.034 321.547 101.508C321.547 100.93 321.711 100.391 322.039 99.8906C322.367 99.3854 322.846 99.0026 323.476 98.7422C324.107 98.4818 324.807 98.3516 325.578 98.3516C326.427 98.3516 327.174 98.4896 327.82 98.7656C328.471 99.0365 328.971 99.4375 329.32 99.9688C329.669 100.5 329.857 101.102 329.883 101.773L328.43 101.883C328.351 101.159 328.086 100.612 327.633 100.242C327.185 99.8724 326.521 99.6875 325.641 99.6875C324.724 99.6875 324.055 99.8568 323.633 100.195C323.216 100.529 323.008 100.932 323.008 101.406C323.008 101.818 323.156 102.156 323.453 102.422C323.745 102.688 324.505 102.961 325.734 103.242C326.969 103.518 327.815 103.76 328.273 103.969C328.94 104.276 329.432 104.667 329.75 105.141C330.068 105.609 330.226 106.151 330.226 106.766C330.226 107.375 330.052 107.951 329.703 108.492C329.354 109.029 328.851 109.448 328.195 109.75C327.544 110.047 326.81 110.195 325.992 110.195C324.956 110.195 324.086 110.044 323.383 109.742C322.685 109.44 322.135 108.987 321.734 108.383C321.338 107.773 321.13 107.086 321.109 106.32ZM332.117 110V98.5469H333.523V102.656C334.18 101.896 335.008 101.516 336.008 101.516C336.622 101.516 337.156 101.638 337.609 101.883C338.062 102.122 338.385 102.456 338.578 102.883C338.776 103.31 338.875 103.93 338.875 104.742V110H337.469V104.742C337.469 104.039 337.315 103.529 337.008 103.211C336.706 102.888 336.276 102.727 335.719 102.727C335.302 102.727 334.909 102.836 334.539 103.055C334.174 103.268 333.914 103.56 333.758 103.93C333.601 104.299 333.523 104.81 333.523 105.461V110H332.117ZM346.437 108.977C345.917 109.419 345.414 109.732 344.93 109.914C344.45 110.096 343.935 110.188 343.383 110.188C342.471 110.188 341.771 109.966 341.281 109.523C340.792 109.076 340.547 108.505 340.547 107.812C340.547 107.406 340.638 107.036 340.82 106.703C341.008 106.365 341.25 106.094 341.547 105.891C341.849 105.688 342.187 105.534 342.562 105.43C342.838 105.357 343.255 105.286 343.812 105.219C344.948 105.083 345.784 104.922 346.32 104.734C346.325 104.542 346.328 104.419 346.328 104.367C346.328 103.794 346.195 103.391 345.93 103.156C345.57 102.839 345.036 102.68 344.328 102.68C343.667 102.68 343.177 102.797 342.859 103.031C342.547 103.26 342.315 103.669 342.164 104.258L340.789 104.07C340.914 103.482 341.12 103.008 341.406 102.648C341.693 102.284 342.107 102.005 342.648 101.812C343.19 101.615 343.818 101.516 344.531 101.516C345.239 101.516 345.815 101.599 346.258 101.766C346.7 101.932 347.026 102.143 347.234 102.398C347.443 102.648 347.588 102.966 347.672 103.352C347.719 103.591 347.742 104.023 347.742 104.648V106.523C347.742 107.831 347.771 108.659 347.828 109.008C347.891 109.352 348.01 109.682 348.187 110H346.719C346.573 109.708 346.479 109.367 346.437 108.977ZM346.32 105.836C345.81 106.044 345.044 106.221 344.023 106.367C343.445 106.451 343.036 106.544 342.797 106.648C342.557 106.753 342.372 106.906 342.242 107.109C342.112 107.307 342.047 107.529 342.047 107.773C342.047 108.148 342.187 108.461 342.469 108.711C342.755 108.961 343.172 109.086 343.719 109.086C344.26 109.086 344.742 108.969 345.164 108.734C345.586 108.495 345.896 108.169 346.094 107.758C346.245 107.44 346.32 106.971 346.32 106.352V105.836ZM355.312 110V108.953C354.786 109.776 354.013 110.188 352.992 110.188C352.331 110.188 351.721 110.005 351.164 109.641C350.612 109.276 350.182 108.768 349.875 108.117C349.573 107.461 349.422 106.708 349.422 105.859C349.422 105.031 349.56 104.281 349.836 103.609C350.112 102.932 350.526 102.414 351.078 102.055C351.63 101.695 352.247 101.516 352.93 101.516C353.43 101.516 353.875 101.622 354.266 101.836C354.656 102.044 354.974 102.318 355.219 102.656V98.5469H356.617V110H355.312ZM350.867 105.859C350.867 106.922 351.091 107.716 351.539 108.242C351.987 108.768 352.516 109.031 353.125 109.031C353.739 109.031 354.26 108.781 354.687 108.281C355.12 107.776 355.336 107.008 355.336 105.977C355.336 104.841 355.117 104.008 354.68 103.477C354.242 102.945 353.703 102.68 353.062 102.68C352.437 102.68 351.914 102.935 351.492 103.445C351.075 103.956 350.867 104.76 350.867 105.859ZM358.312 105.852C358.312 104.315 358.739 103.177 359.594 102.438C360.307 101.823 361.177 101.516 362.203 101.516C363.344 101.516 364.276 101.891 365 102.641C365.724 103.385 366.086 104.417 366.086 105.734C366.086 106.802 365.924 107.643 365.601 108.258C365.284 108.867 364.818 109.341 364.203 109.68C363.594 110.018 362.927 110.188 362.203 110.188C361.042 110.188 360.101 109.815 359.383 109.07C358.669 108.326 358.312 107.253 358.312 105.852ZM359.758 105.852C359.758 106.914 359.989 107.711 360.453 108.242C360.917 108.768 361.5 109.031 362.203 109.031C362.901 109.031 363.482 108.766 363.945 108.234C364.409 107.703 364.641 106.893 364.641 105.805C364.641 104.779 364.406 104.003 363.937 103.477C363.474 102.945 362.896 102.68 362.203 102.68C361.5 102.68 360.917 102.943 360.453 103.469C359.989 103.995 359.758 104.789 359.758 105.852ZM369.273 110L366.734 101.703H368.187L369.508 106.492L370 108.273C370.021 108.185 370.164 107.615 370.43 106.562L371.75 101.703H373.195L374.437 106.516L374.851 108.102L375.328 106.5L376.75 101.703H378.117L375.523 110H374.062L372.742 105.031L372.422 103.617L370.742 110H369.273ZM383.375 106.977L384.781 106.789C384.943 107.586 385.216 108.161 385.601 108.516C385.992 108.865 386.466 109.039 387.023 109.039C387.685 109.039 388.242 108.81 388.695 108.352C389.154 107.893 389.383 107.326 389.383 106.648C389.383 106.003 389.172 105.471 388.75 105.055C388.328 104.633 387.792 104.422 387.141 104.422C386.875 104.422 386.544 104.474 386.148 104.578L386.305 103.344C386.398 103.354 386.474 103.359 386.531 103.359C387.13 103.359 387.669 103.203 388.148 102.891C388.628 102.578 388.867 102.096 388.867 101.445C388.867 100.93 388.693 100.503 388.344 100.164C387.995 99.8255 387.544 99.6562 386.992 99.6562C386.445 99.6562 385.989 99.8281 385.625 100.172C385.26 100.516 385.026 101.031 384.922 101.719L383.516 101.469C383.687 100.526 384.078 99.7969 384.687 99.2812C385.297 98.7604 386.055 98.5 386.961 98.5C387.586 98.5 388.161 98.6354 388.687 98.9062C389.213 99.1719 389.614 99.5365 389.891 100C390.172 100.464 390.312 100.956 390.312 101.477C390.312 101.971 390.18 102.422 389.914 102.828C389.648 103.234 389.255 103.557 388.734 103.797C389.411 103.953 389.937 104.279 390.312 104.773C390.687 105.263 390.875 105.878 390.875 106.617C390.875 107.617 390.51 108.466 389.781 109.164C389.052 109.857 388.13 110.203 387.016 110.203C386.01 110.203 385.174 109.904 384.508 109.305C383.846 108.706 383.469 107.93 383.375 106.977Z" fill="#201F1F"/>
<path d="M411.704 106.32L413.134 106.195C413.202 106.768 413.358 107.24 413.603 107.609C413.853 107.974 414.238 108.271 414.759 108.5C415.28 108.724 415.866 108.836 416.517 108.836C417.095 108.836 417.605 108.75 418.048 108.578C418.491 108.406 418.819 108.172 419.032 107.875C419.251 107.573 419.361 107.245 419.361 106.891C419.361 106.531 419.256 106.219 419.048 105.953C418.84 105.682 418.496 105.456 418.017 105.273C417.709 105.154 417.03 104.969 415.978 104.719C414.926 104.464 414.189 104.224 413.767 104C413.22 103.714 412.811 103.359 412.54 102.938C412.275 102.51 412.142 102.034 412.142 101.508C412.142 100.93 412.306 100.391 412.634 99.8906C412.962 99.3854 413.441 99.0026 414.071 98.7422C414.702 98.4818 415.402 98.3516 416.173 98.3516C417.022 98.3516 417.769 98.4896 418.415 98.7656C419.066 99.0365 419.566 99.4375 419.915 99.9688C420.264 100.5 420.452 101.102 420.478 101.773L419.025 101.883C418.946 101.159 418.681 100.612 418.228 100.242C417.78 99.8724 417.116 99.6875 416.236 99.6875C415.319 99.6875 414.65 99.8568 414.228 100.195C413.811 100.529 413.603 100.932 413.603 101.406C413.603 101.818 413.751 102.156 414.048 102.422C414.34 102.688 415.1 102.961 416.329 103.242C417.564 103.518 418.41 103.76 418.868 103.969C419.535 104.276 420.027 104.667 420.345 105.141C420.663 105.609 420.821 106.151 420.821 106.766C420.821 107.375 420.647 107.951 420.298 108.492C419.949 109.029 419.446 109.448 418.79 109.75C418.139 110.047 417.405 110.195 416.587 110.195C415.551 110.195 414.681 110.044 413.978 109.742C413.28 109.44 412.73 108.987 412.329 108.383C411.933 107.773 411.725 107.086 411.704 106.32ZM422.712 110V98.5469H424.118V102.656C424.775 101.896 425.603 101.516 426.603 101.516C427.217 101.516 427.751 101.638 428.204 101.883C428.657 102.122 428.98 102.456 429.173 102.883C429.371 103.31 429.47 103.93 429.47 104.742V110H428.064V104.742C428.064 104.039 427.91 103.529 427.603 103.211C427.301 102.888 426.871 102.727 426.314 102.727C425.897 102.727 425.504 102.836 425.134 103.055C424.769 103.268 424.509 103.56 424.353 103.93C424.196 104.299 424.118 104.81 424.118 105.461V110H422.712ZM437.032 108.977C436.512 109.419 436.009 109.732 435.525 109.914C435.045 110.096 434.53 110.188 433.978 110.188C433.066 110.188 432.366 109.966 431.876 109.523C431.387 109.076 431.142 108.505 431.142 107.812C431.142 107.406 431.233 107.036 431.415 106.703C431.603 106.365 431.845 106.094 432.142 105.891C432.444 105.688 432.782 105.534 433.157 105.43C433.433 105.357 433.85 105.286 434.407 105.219C435.543 105.083 436.379 104.922 436.915 104.734C436.92 104.542 436.923 104.419 436.923 104.367C436.923 103.794 436.79 103.391 436.525 103.156C436.165 102.839 435.631 102.68 434.923 102.68C434.262 102.68 433.772 102.797 433.454 103.031C433.142 103.26 432.91 103.669 432.759 104.258L431.384 104.07C431.509 103.482 431.715 103.008 432.001 102.648C432.288 102.284 432.702 102.005 433.243 101.812C433.785 101.615 434.413 101.516 435.126 101.516C435.834 101.516 436.41 101.599 436.853 101.766C437.295 101.932 437.621 102.143 437.829 102.398C438.038 102.648 438.183 102.966 438.267 103.352C438.314 103.591 438.337 104.023 438.337 104.648V106.523C438.337 107.831 438.366 108.659 438.423 109.008C438.486 109.352 438.605 109.682 438.782 110H437.314C437.168 109.708 437.074 109.367 437.032 108.977ZM436.915 105.836C436.405 106.044 435.639 106.221 434.618 106.367C434.04 106.451 433.631 106.544 433.392 106.648C433.152 106.753 432.967 106.906 432.837 107.109C432.707 107.307 432.642 107.529 432.642 107.773C432.642 108.148 432.782 108.461 433.064 108.711C433.35 108.961 433.767 109.086 434.314 109.086C434.855 109.086 435.337 108.969 435.759 108.734C436.181 108.495 436.491 108.169 436.689 107.758C436.84 107.44 436.915 106.971 436.915 106.352V105.836ZM445.907 110V108.953C445.381 109.776 444.608 110.188 443.587 110.188C442.926 110.188 442.316 110.005 441.759 109.641C441.207 109.276 440.777 108.768 440.47 108.117C440.168 107.461 440.017 106.708 440.017 105.859C440.017 105.031 440.155 104.281 440.431 103.609C440.707 102.932 441.121 102.414 441.673 102.055C442.225 101.695 442.842 101.516 443.525 101.516C444.025 101.516 444.47 101.622 444.861 101.836C445.251 102.044 445.569 102.318 445.814 102.656V98.5469H447.212V110H445.907ZM441.462 105.859C441.462 106.922 441.686 107.716 442.134 108.242C442.582 108.768 443.111 109.031 443.72 109.031C444.334 109.031 444.855 108.781 445.282 108.281C445.715 107.776 445.931 107.008 445.931 105.977C445.931 104.841 445.712 104.008 445.275 103.477C444.837 102.945 444.298 102.68 443.657 102.68C443.032 102.68 442.509 102.935 442.087 103.445C441.67 103.956 441.462 104.76 441.462 105.859ZM448.907 105.852C448.907 104.315 449.334 103.177 450.189 102.438C450.902 101.823 451.772 101.516 452.798 101.516C453.939 101.516 454.871 101.891 455.595 102.641C456.319 103.385 456.681 104.417 456.681 105.734C456.681 106.802 456.519 107.643 456.196 108.258C455.879 108.867 455.413 109.341 454.798 109.68C454.189 110.018 453.522 110.188 452.798 110.188C451.637 110.188 450.696 109.815 449.978 109.07C449.264 108.326 448.907 107.253 448.907 105.852ZM450.353 105.852C450.353 106.914 450.584 107.711 451.048 108.242C451.512 108.768 452.095 109.031 452.798 109.031C453.496 109.031 454.077 108.766 454.54 108.234C455.004 107.703 455.236 106.893 455.236 105.805C455.236 104.779 455.001 104.003 454.532 103.477C454.069 102.945 453.491 102.68 452.798 102.68C452.095 102.68 451.512 102.943 451.048 103.469C450.584 103.995 450.353 104.789 450.353 105.852ZM459.868 110L457.329 101.703H458.782L460.103 106.492L460.595 108.273C460.616 108.185 460.759 107.615 461.025 106.562L462.345 101.703H463.79L465.032 106.516L465.446 108.102L465.923 106.5L467.345 101.703H468.712L466.118 110H464.657L463.337 105.031L463.017 103.617L461.337 110H459.868ZM478.47 110V107.258H473.501V105.969L478.728 98.5469H479.876V105.969H481.423V107.258H479.876V110H478.47ZM478.47 105.969V100.805L474.884 105.969H478.47Z" fill="#201F1F"/>
<path d="M502.299 106.32L503.729 106.195C503.797 106.768 503.953 107.24 504.198 107.609C504.448 107.974 504.833 108.271 505.354 108.5C505.875 108.724 506.461 108.836 507.112 108.836C507.69 108.836 508.201 108.75 508.643 108.578C509.086 108.406 509.414 108.172 509.628 107.875C509.846 107.573 509.956 107.245 509.956 106.891C509.956 106.531 509.852 106.219 509.643 105.953C509.435 105.682 509.091 105.456 508.612 105.273C508.305 105.154 507.625 104.969 506.573 104.719C505.521 104.464 504.784 104.224 504.362 104C503.815 103.714 503.406 103.359 503.135 102.938C502.87 102.51 502.737 102.034 502.737 101.508C502.737 100.93 502.901 100.391 503.229 99.8906C503.557 99.3854 504.036 99.0026 504.667 98.7422C505.297 98.4818 505.997 98.3516 506.768 98.3516C507.617 98.3516 508.365 98.4896 509.01 98.7656C509.661 99.0365 510.161 99.4375 510.51 99.9688C510.859 100.5 511.047 101.102 511.073 101.773L509.62 101.883C509.542 101.159 509.276 100.612 508.823 100.242C508.375 99.8724 507.711 99.6875 506.831 99.6875C505.914 99.6875 505.245 99.8568 504.823 100.195C504.406 100.529 504.198 100.932 504.198 101.406C504.198 101.818 504.346 102.156 504.643 102.422C504.935 102.688 505.695 102.961 506.924 103.242C508.159 103.518 509.005 103.76 509.464 103.969C510.13 104.276 510.622 104.667 510.94 105.141C511.258 105.609 511.417 106.151 511.417 106.766C511.417 107.375 511.242 107.951 510.893 108.492C510.544 109.029 510.042 109.448 509.385 109.75C508.734 110.047 508 110.195 507.182 110.195C506.146 110.195 505.276 110.044 504.573 109.742C503.875 109.44 503.326 108.987 502.924 108.383C502.529 107.773 502.32 107.086 502.299 106.32ZM513.307 110V98.5469H514.714V102.656C515.37 101.896 516.198 101.516 517.198 101.516C517.812 101.516 518.346 101.638 518.799 101.883C519.253 102.122 519.576 102.456 519.768 102.883C519.966 103.31 520.065 103.93 520.065 104.742V110H518.659V104.742C518.659 104.039 518.505 103.529 518.198 103.211C517.896 102.888 517.466 102.727 516.909 102.727C516.492 102.727 516.099 102.836 515.729 103.055C515.365 103.268 515.104 103.56 514.948 103.93C514.792 104.299 514.714 104.81 514.714 105.461V110H513.307ZM527.628 108.977C527.107 109.419 526.604 109.732 526.12 109.914C525.641 110.096 525.125 110.188 524.573 110.188C523.661 110.188 522.961 109.966 522.471 109.523C521.982 109.076 521.737 108.505 521.737 107.812C521.737 107.406 521.828 107.036 522.01 106.703C522.198 106.365 522.44 106.094 522.737 105.891C523.039 105.688 523.378 105.534 523.753 105.43C524.029 105.357 524.445 105.286 525.003 105.219C526.138 105.083 526.974 104.922 527.51 104.734C527.516 104.542 527.518 104.419 527.518 104.367C527.518 103.794 527.385 103.391 527.12 103.156C526.76 102.839 526.227 102.68 525.518 102.68C524.857 102.68 524.367 102.797 524.049 103.031C523.737 103.26 523.505 103.669 523.354 104.258L521.979 104.07C522.104 103.482 522.31 103.008 522.596 102.648C522.883 102.284 523.297 102.005 523.839 101.812C524.38 101.615 525.008 101.516 525.721 101.516C526.43 101.516 527.005 101.599 527.448 101.766C527.891 101.932 528.216 102.143 528.424 102.398C528.633 102.648 528.779 102.966 528.862 103.352C528.909 103.591 528.932 104.023 528.932 104.648V106.523C528.932 107.831 528.961 108.659 529.018 109.008C529.081 109.352 529.201 109.682 529.378 110H527.909C527.763 109.708 527.669 109.367 527.628 108.977ZM527.51 105.836C527 106.044 526.234 106.221 525.214 106.367C524.635 106.451 524.227 106.544 523.987 106.648C523.747 106.753 523.562 106.906 523.432 107.109C523.302 107.307 523.237 107.529 523.237 107.773C523.237 108.148 523.378 108.461 523.659 108.711C523.945 108.961 524.362 109.086 524.909 109.086C525.451 109.086 525.932 108.969 526.354 108.734C526.776 108.495 527.086 108.169 527.284 107.758C527.435 107.44 527.51 106.971 527.51 106.352V105.836ZM536.503 110V108.953C535.977 109.776 535.203 110.188 534.182 110.188C533.521 110.188 532.911 110.005 532.354 109.641C531.802 109.276 531.372 108.768 531.065 108.117C530.763 107.461 530.612 106.708 530.612 105.859C530.612 105.031 530.75 104.281 531.026 103.609C531.302 102.932 531.716 102.414 532.268 102.055C532.82 101.695 533.437 101.516 534.12 101.516C534.62 101.516 535.065 101.622 535.456 101.836C535.846 102.044 536.164 102.318 536.409 102.656V98.5469H537.807V110H536.503ZM532.057 105.859C532.057 106.922 532.281 107.716 532.729 108.242C533.177 108.768 533.706 109.031 534.315 109.031C534.93 109.031 535.451 108.781 535.878 108.281C536.31 107.776 536.526 107.008 536.526 105.977C536.526 104.841 536.307 104.008 535.87 103.477C535.432 102.945 534.893 102.68 534.253 102.68C533.628 102.68 533.104 102.935 532.682 103.445C532.266 103.956 532.057 104.76 532.057 105.859ZM539.503 105.852C539.503 104.315 539.93 103.177 540.784 102.438C541.497 101.823 542.367 101.516 543.393 101.516C544.534 101.516 545.466 101.891 546.19 102.641C546.914 103.385 547.276 104.417 547.276 105.734C547.276 106.802 547.115 107.643 546.792 108.258C546.474 108.867 546.008 109.341 545.393 109.68C544.784 110.018 544.117 110.188 543.393 110.188C542.232 110.188 541.292 109.815 540.573 109.07C539.859 108.326 539.503 107.253 539.503 105.852ZM540.948 105.852C540.948 106.914 541.18 107.711 541.643 108.242C542.107 108.768 542.69 109.031 543.393 109.031C544.091 109.031 544.672 108.766 545.135 108.234C545.599 107.703 545.831 106.893 545.831 105.805C545.831 104.779 545.596 104.003 545.128 103.477C544.664 102.945 544.086 102.68 543.393 102.68C542.69 102.68 542.107 102.943 541.643 103.469C541.18 103.995 540.948 104.789 540.948 105.852ZM550.464 110L547.924 101.703H549.378L550.698 106.492L551.19 108.273C551.211 108.185 551.354 107.615 551.62 106.562L552.94 101.703H554.385L555.628 106.516L556.042 108.102L556.518 106.5L557.94 101.703H559.307L556.714 110H555.253L553.932 105.031L553.612 103.617L551.932 110H550.464ZM564.557 107L566.034 106.875C566.143 107.594 566.396 108.135 566.792 108.5C567.193 108.859 567.674 109.039 568.237 109.039C568.914 109.039 569.487 108.784 569.956 108.273C570.424 107.763 570.659 107.086 570.659 106.242C570.659 105.44 570.432 104.807 569.979 104.344C569.531 103.88 568.943 103.648 568.214 103.648C567.76 103.648 567.352 103.753 566.987 103.961C566.622 104.164 566.336 104.43 566.128 104.758L564.807 104.586L565.917 98.7031H571.612V100.047H567.042L566.424 103.125C567.112 102.646 567.833 102.406 568.589 102.406C569.589 102.406 570.432 102.753 571.12 103.445C571.807 104.138 572.151 105.029 572.151 106.117C572.151 107.154 571.849 108.049 571.245 108.805C570.51 109.732 569.508 110.195 568.237 110.195C567.195 110.195 566.344 109.904 565.682 109.32C565.026 108.737 564.651 107.964 564.557 107Z" fill="#201F1F"/>
<path d="M592.894 106.32L594.324 106.195C594.392 106.768 594.548 107.24 594.793 107.609C595.043 107.974 595.428 108.271 595.949 108.5C596.47 108.724 597.056 108.836 597.707 108.836C598.285 108.836 598.795 108.75 599.238 108.578C599.681 108.406 600.009 108.172 600.223 107.875C600.441 107.573 600.551 107.245 600.551 106.891C600.551 106.531 600.447 106.219 600.238 105.953C600.03 105.682 599.686 105.456 599.207 105.273C598.9 105.154 598.22 104.969 597.168 104.719C596.116 104.464 595.379 104.224 594.957 104C594.41 103.714 594.001 103.359 593.73 102.938C593.465 102.51 593.332 102.034 593.332 101.508C593.332 100.93 593.496 100.391 593.824 99.8906C594.152 99.3854 594.631 99.0026 595.262 98.7422C595.892 98.4818 596.592 98.3516 597.363 98.3516C598.212 98.3516 598.96 98.4896 599.605 98.7656C600.256 99.0365 600.756 99.4375 601.105 99.9688C601.454 100.5 601.642 101.102 601.668 101.773L600.215 101.883C600.137 101.159 599.871 100.612 599.418 100.242C598.97 99.8724 598.306 99.6875 597.426 99.6875C596.509 99.6875 595.84 99.8568 595.418 100.195C595.001 100.529 594.793 100.932 594.793 101.406C594.793 101.818 594.941 102.156 595.238 102.422C595.53 102.688 596.29 102.961 597.519 103.242C598.754 103.518 599.6 103.76 600.059 103.969C600.725 104.276 601.217 104.667 601.535 105.141C601.853 105.609 602.012 106.151 602.012 106.766C602.012 107.375 601.837 107.951 601.488 108.492C601.139 109.029 600.637 109.448 599.98 109.75C599.329 110.047 598.595 110.195 597.777 110.195C596.741 110.195 595.871 110.044 595.168 109.742C594.47 109.44 593.92 108.987 593.519 108.383C593.124 107.773 592.915 107.086 592.894 106.32ZM603.902 110V98.5469H605.309V102.656C605.965 101.896 606.793 101.516 607.793 101.516C608.407 101.516 608.941 101.638 609.394 101.883C609.848 102.122 610.17 102.456 610.363 102.883C610.561 103.31 610.66 103.93 610.66 104.742V110H609.254V104.742C609.254 104.039 609.1 103.529 608.793 103.211C608.491 102.888 608.061 102.727 607.504 102.727C607.087 102.727 606.694 102.836 606.324 103.055C605.96 103.268 605.699 103.56 605.543 103.93C605.387 104.299 605.309 104.81 605.309 105.461V110H603.902ZM618.223 108.977C617.702 109.419 617.199 109.732 616.715 109.914C616.236 110.096 615.72 110.188 615.168 110.188C614.256 110.188 613.556 109.966 613.066 109.523C612.577 109.076 612.332 108.505 612.332 107.812C612.332 107.406 612.423 107.036 612.605 106.703C612.793 106.365 613.035 106.094 613.332 105.891C613.634 105.688 613.973 105.534 614.348 105.43C614.624 105.357 615.04 105.286 615.598 105.219C616.733 105.083 617.569 104.922 618.105 104.734C618.111 104.542 618.113 104.419 618.113 104.367C618.113 103.794 617.98 103.391 617.715 103.156C617.355 102.839 616.822 102.68 616.113 102.68C615.452 102.68 614.962 102.797 614.644 103.031C614.332 103.26 614.1 103.669 613.949 104.258L612.574 104.07C612.699 103.482 612.905 103.008 613.191 102.648C613.478 102.284 613.892 102.005 614.434 101.812C614.975 101.615 615.603 101.516 616.316 101.516C617.025 101.516 617.6 101.599 618.043 101.766C618.486 101.932 618.811 102.143 619.019 102.398C619.228 102.648 619.374 102.966 619.457 103.352C619.504 103.591 619.527 104.023 619.527 104.648V106.523C619.527 107.831 619.556 108.659 619.613 109.008C619.676 109.352 619.795 109.682 619.973 110H618.504C618.358 109.708 618.264 109.367 618.223 108.977ZM618.105 105.836C617.595 106.044 616.829 106.221 615.809 106.367C615.23 106.451 614.822 106.544 614.582 106.648C614.342 106.753 614.157 106.906 614.027 107.109C613.897 107.307 613.832 107.529 613.832 107.773C613.832 108.148 613.973 108.461 614.254 108.711C614.54 108.961 614.957 109.086 615.504 109.086C616.045 109.086 616.527 108.969 616.949 108.734C617.371 108.495 617.681 108.169 617.879 107.758C618.03 107.44 618.105 106.971 618.105 106.352V105.836ZM627.098 110V108.953C626.572 109.776 625.798 110.188 624.777 110.188C624.116 110.188 623.506 110.005 622.949 109.641C622.397 109.276 621.967 108.768 621.66 108.117C621.358 107.461 621.207 106.708 621.207 105.859C621.207 105.031 621.345 104.281 621.621 103.609C621.897 102.932 622.311 102.414 622.863 102.055C623.415 101.695 624.032 101.516 624.715 101.516C625.215 101.516 625.66 101.622 626.051 101.836C626.441 102.044 626.759 102.318 627.004 102.656V98.5469H628.402V110H627.098ZM622.652 105.859C622.652 106.922 622.876 107.716 623.324 108.242C623.772 108.768 624.301 109.031 624.91 109.031C625.525 109.031 626.045 108.781 626.473 108.281C626.905 107.776 627.121 107.008 627.121 105.977C627.121 104.841 626.902 104.008 626.465 103.477C626.027 102.945 625.488 102.68 624.848 102.68C624.223 102.68 623.699 102.935 623.277 103.445C622.861 103.956 622.652 104.76 622.652 105.859ZM630.098 105.852C630.098 104.315 630.525 103.177 631.379 102.438C632.092 101.823 632.962 101.516 633.988 101.516C635.129 101.516 636.061 101.891 636.785 102.641C637.509 103.385 637.871 104.417 637.871 105.734C637.871 106.802 637.71 107.643 637.387 108.258C637.069 108.867 636.603 109.341 635.988 109.68C635.379 110.018 634.712 110.188 633.988 110.188C632.827 110.188 631.887 109.815 631.168 109.07C630.454 108.326 630.098 107.253 630.098 105.852ZM631.543 105.852C631.543 106.914 631.775 107.711 632.238 108.242C632.702 108.768 633.285 109.031 633.988 109.031C634.686 109.031 635.267 108.766 635.73 108.234C636.194 107.703 636.426 106.893 636.426 105.805C636.426 104.779 636.191 104.003 635.723 103.477C635.259 102.945 634.681 102.68 633.988 102.68C633.285 102.68 632.702 102.943 632.238 103.469C631.775 103.995 631.543 104.789 631.543 105.852ZM641.059 110L638.519 101.703H639.973L641.293 106.492L641.785 108.273C641.806 108.185 641.949 107.615 642.215 106.562L643.535 101.703H644.98L646.223 106.516L646.637 108.102L647.113 106.5L648.535 101.703H649.902L647.309 110H645.848L644.527 105.031L644.207 103.617L642.527 110H641.059ZM662.449 101.352L661.051 101.461C660.926 100.909 660.749 100.508 660.519 100.258C660.139 99.8568 659.67 99.6562 659.113 99.6562C658.665 99.6562 658.272 99.7812 657.934 100.031C657.491 100.354 657.142 100.826 656.887 101.445C656.631 102.065 656.499 102.948 656.488 104.094C656.827 103.578 657.241 103.195 657.73 102.945C658.22 102.695 658.733 102.57 659.269 102.57C660.207 102.57 661.004 102.917 661.66 103.609C662.322 104.297 662.652 105.188 662.652 106.281C662.652 107 662.496 107.669 662.184 108.289C661.876 108.904 661.452 109.375 660.91 109.703C660.368 110.031 659.754 110.195 659.066 110.195C657.894 110.195 656.939 109.766 656.199 108.906C655.46 108.042 655.09 106.62 655.09 104.641C655.09 102.427 655.499 100.818 656.316 99.8125C657.03 98.9375 657.991 98.5 659.199 98.5C660.1 98.5 660.837 98.7526 661.41 99.2578C661.988 99.763 662.335 100.461 662.449 101.352ZM656.707 106.289C656.707 106.773 656.809 107.237 657.012 107.68C657.22 108.122 657.509 108.461 657.879 108.695C658.249 108.924 658.637 109.039 659.043 109.039C659.637 109.039 660.147 108.799 660.574 108.32C661.001 107.841 661.215 107.19 661.215 106.367C661.215 105.576 661.004 104.953 660.582 104.5C660.16 104.042 659.629 103.812 658.988 103.812C658.353 103.812 657.814 104.042 657.371 104.5C656.928 104.953 656.707 105.549 656.707 106.289Z" fill="#201F1F"/>
<g filter="url(#filter0_i_968_9288)">
<rect x="40" y="152" width="90.2857" height="180" fill="white"/>
</g>
<g filter="url(#filter1_dd_968_9288)">
<rect x="130.286" y="152" width="90.2857" height="180" fill="white"/>
</g>
<g filter="url(#filter2_dd_968_9288)">
<rect x="220.572" y="152" width="90.2857" height="180" fill="white"/>
</g>
<g filter="url(#filter3_dd_968_9288)">
<rect x="310.857" y="152" width="90.2857" height="180" fill="white"/>
</g>
<g filter="url(#filter4_dd_968_9288)">
<rect x="401.143" y="152" width="90.2857" height="180" fill="white"/>
</g>
<g filter="url(#filter5_dd_968_9288)">
<rect x="491.429" y="152" width="90.2857" height="180" fill="white"/>
</g>
<g filter="url(#filter6_dd_968_9288)">
<rect x="581.714" y="152" width="90.2857" height="180" fill="white"/>
</g>
</g>
<path d="M8 0.5H704C708.142 0.5 711.5 3.85786 711.5 8V364C711.5 368.142 708.142 371.5 704 371.5H8C3.85786 371.5 0.5 368.142 0.5 364V8C0.5 3.85787 3.85786 0.5 8 0.5Z" stroke="#CDCCCB"/>
<defs>
<filter id="filter0_i_968_9288" x="40" y="152" width="90.2856" height="181" filterUnits="userSpaceOnUse" color-interpolation-filters="sRGB">
<feFlood flood-opacity="0" result="BackgroundImageFix"/>
<feBlend mode="normal" in="SourceGraphic" in2="BackgroundImageFix" result="shape"/>
<feColorMatrix in="SourceAlpha" type="matrix" values="0 0 0 0 0 0 0 0 0 0 0 0 0 0 0 0 0 0 127 0" result="hardAlpha"/>
<feOffset dy="1"/>
<feGaussianBlur stdDeviation="2"/>
<feComposite in2="hardAlpha" operator="arithmetic" k2="-1" k3="1"/>
<feColorMatrix type="matrix" values="0 0 0 0 0 0 0 0 0 0 0 0 0 0 0 0 0 0 0.14 0"/>
<feBlend mode="normal" in2="shape" result="effect1_innerShadow_968_9288"/>
</filter>
<filter id="filter1_dd_968_9288" x="128.286" y="150" width="94.2856" height="185" filterUnits="userSpaceOnUse" color-interpolation-filters="sRGB">
<feFlood flood-opacity="0" result="BackgroundImageFix"/>
<feColorMatrix in="SourceAlpha" type="matrix" values="0 0 0 0 0 0 0 0 0 0 0 0 0 0 0 0 0 0 127 0" result="hardAlpha"/>
<feOffset/>
<feGaussianBlur stdDeviation="1"/>
<feComposite in2="hardAlpha" operator="out"/>
<feColorMatrix type="matrix" values="0 0 0 0 0 0 0 0 0 0 0 0 0 0 0 0 0 0 0.12 0"/>
<feBlend mode="normal" in2="BackgroundImageFix" result="effect1_dropShadow_968_9288"/>
<feColorMatrix in="SourceAlpha" type="matrix" values="0 0 0 0 0 0 0 0 0 0 0 0 0 0 0 0 0 0 127 0" result="hardAlpha"/>
<feOffset dy="1"/>
<feGaussianBlur stdDeviation="1"/>
<feComposite in2="hardAlpha" operator="out"/>
<feColorMatrix type="matrix" values="0 0 0 0 0 0 0 0 0 0 0 0 0 0 0 0 0 0 0.14 0"/>
<feBlend mode="normal" in2="effect1_dropShadow_968_9288" result="effect2_dropShadow_968_9288"/>
<feBlend mode="normal" in="SourceGraphic" in2="effect2_dropShadow_968_9288" result="shape"/>
</filter>
<filter id="filter2_dd_968_9288" x="216.572" y="150" width="98.2856" height="188" filterUnits="userSpaceOnUse" color-interpolation-filters="sRGB">
<feFlood flood-opacity="0" result="BackgroundImageFix"/>
<feColorMatrix in="SourceAlpha" type="matrix" values="0 0 0 0 0 0 0 0 0 0 0 0 0 0 0 0 0 0 127 0" result="hardAlpha"/>
<feOffset/>
<feGaussianBlur stdDeviation="1"/>
<feComposite in2="hardAlpha" operator="out"/>
<feColorMatrix type="matrix" values="0 0 0 0 0 0 0 0 0 0 0 0 0 0 0 0 0 0 0.12 0"/>
<feBlend mode="normal" in2="BackgroundImageFix" result="effect1_dropShadow_968_9288"/>
<feColorMatrix in="SourceAlpha" type="matrix" values="0 0 0 0 0 0 0 0 0 0 0 0 0 0 0 0 0 0 127 0" result="hardAlpha"/>
<feOffset dy="2"/>
<feGaussianBlur stdDeviation="2"/>
<feComposite in2="hardAlpha" operator="out"/>
<feColorMatrix type="matrix" values="0 0 0 0 0 0 0 0 0 0 0 0 0 0 0 0 0 0 0.14 0"/>
<feBlend mode="normal" in2="effect1_dropShadow_968_9288" result="effect2_dropShadow_968_9288"/>
<feBlend mode="normal" in="SourceGraphic" in2="effect2_dropShadow_968_9288" result="shape"/>
</filter>
<filter id="filter3_dd_968_9288" x="302.857" y="148" width="106.286" height="196" filterUnits="userSpaceOnUse" color-interpolation-filters="sRGB">
<feFlood flood-opacity="0" result="BackgroundImageFix"/>
<feColorMatrix in="SourceAlpha" type="matrix" values="0 0 0 0 0 0 0 0 0 0 0 0 0 0 0 0 0 0 127 0" result="hardAlpha"/>
<feOffset/>
<feGaussianBlur stdDeviation="1"/>
<feComposite in2="hardAlpha" operator="out"/>
<feColorMatrix type="matrix" values="0 0 0 0 0 0 0 0 0 0 0 0 0 0 0 0 0 0 0.12 0"/>
<feBlend mode="normal" in2="BackgroundImageFix" result="effect1_dropShadow_968_9288"/>
<feColorMatrix in="SourceAlpha" type="matrix" values="0 0 0 0 0 0 0 0 0 0 0 0 0 0 0 0 0 0 127 0" result="hardAlpha"/>
<feOffset dy="4"/>
<feGaussianBlur stdDeviation="4"/>
<feComposite in2="hardAlpha" operator="out"/>
<feColorMatrix type="matrix" values="0 0 0 0 0 0 0 0 0 0 0 0 0 0 0 0 0 0 0.14 0"/>
<feBlend mode="normal" in2="effect1_dropShadow_968_9288" result="effect2_dropShadow_968_9288"/>
<feBlend mode="normal" in="SourceGraphic" in2="effect2_dropShadow_968_9288" result="shape"/>
</filter>
<filter id="filter4_dd_968_9288" x="385.143" y="144" width="122.286" height="212" filterUnits="userSpaceOnUse" color-interpolation-filters="sRGB">
<feFlood flood-opacity="0" result="BackgroundImageFix"/>
<feColorMatrix in="SourceAlpha" type="matrix" values="0 0 0 0 0 0 0 0 0 0 0 0 0 0 0 0 0 0 127 0" result="hardAlpha"/>
<feOffset/>
<feGaussianBlur stdDeviation="1"/>
<feComposite in2="hardAlpha" operator="out"/>
<feColorMatrix type="matrix" values="0 0 0 0 0 0 0 0 0 0 0 0 0 0 0 0 0 0 0.12 0"/>
<feBlend mode="normal" in2="BackgroundImageFix" result="effect1_dropShadow_968_9288"/>
<feColorMatrix in="SourceAlpha" type="matrix" values="0 0 0 0 0 0 0 0 0 0 0 0 0 0 0 0 0 0 127 0" result="hardAlpha"/>
<feOffset dy="8"/>
<feGaussianBlur stdDeviation="8"/>
<feComposite in2="hardAlpha" operator="out"/>
<feColorMatrix type="matrix" values="0 0 0 0 0 0 0 0 0 0 0 0 0 0 0 0 0 0 0.14 0"/>
<feBlend mode="normal" in2="effect1_dropShadow_968_9288" result="effect2_dropShadow_968_9288"/>
<feBlend mode="normal" in="SourceGraphic" in2="effect2_dropShadow_968_9288" result="shape"/>
</filter>
<filter id="filter5_dd_968_9288" x="463.429" y="138" width="146.286" height="236" filterUnits="userSpaceOnUse" color-interpolation-filters="sRGB">
<feFlood flood-opacity="0" result="BackgroundImageFix"/>
<feColorMatrix in="SourceAlpha" type="matrix" values="0 0 0 0 0 0 0 0 0 0 0 0 0 0 0 0 0 0 127 0" result="hardAlpha"/>
<feOffset/>
<feGaussianBlur stdDeviation="4"/>
<feComposite in2="hardAlpha" operator="out"/>
<feColorMatrix type="matrix" values="0 0 0 0 0 0 0 0 0 0 0 0 0 0 0 0 0 0 0.2 0"/>
<feBlend mode="normal" in2="BackgroundImageFix" result="effect1_dropShadow_968_9288"/>
<feColorMatrix in="SourceAlpha" type="matrix" values="0 0 0 0 0 0 0 0 0 0 0 0 0 0 0 0 0 0 127 0" result="hardAlpha"/>
<feOffset dy="14"/>
<feGaussianBlur stdDeviation="14"/>
<feComposite in2="hardAlpha" operator="out"/>
<feColorMatrix type="matrix" values="0 0 0 0 0 0 0 0 0 0 0 0 0 0 0 0 0 0 0.24 0"/>
<feBlend mode="normal" in2="effect1_dropShadow_968_9288" result="effect2_dropShadow_968_9288"/>
<feBlend mode="normal" in="SourceGraphic" in2="effect2_dropShadow_968_9288" result="shape"/>
</filter>
<filter id="filter6_dd_968_9288" x="517.714" y="120" width="218.286" height="308" filterUnits="userSpaceOnUse" color-interpolation-filters="sRGB">
<feFlood flood-opacity="0" result="BackgroundImageFix"/>
<feColorMatrix in="SourceAlpha" type="matrix" values="0 0 0 0 0 0 0 0 0 0 0 0 0 0 0 0 0 0 127 0" result="hardAlpha"/>
<feOffset/>
<feGaussianBlur stdDeviation="4"/>
<feComposite in2="hardAlpha" operator="out"/>
<feColorMatrix type="matrix" values="0 0 0 0 0 0 0 0 0 0 0 0 0 0 0 0 0 0 0.2 0"/>
<feBlend mode="normal" in2="BackgroundImageFix" result="effect1_dropShadow_968_9288"/>
<feColorMatrix in="SourceAlpha" type="matrix" values="0 0 0 0 0 0 0 0 0 0 0 0 0 0 0 0 0 0 127 0" result="hardAlpha"/>
<feOffset dy="32"/>
<feGaussianBlur stdDeviation="32"/>
<feComposite in2="hardAlpha" operator="out"/>
<feColorMatrix type="matrix" values="0 0 0 0 0 0 0 0 0 0 0 0 0 0 0 0 0 0 0.24 0"/>
<feBlend mode="normal" in2="effect1_dropShadow_968_9288" result="effect2_dropShadow_968_9288"/>
<feBlend mode="normal" in="SourceGraphic" in2="effect2_dropShadow_968_9288" result="shape"/>
</filter>
<clipPath id="clip0_968_9288">
<path d="M0 7.99999C0 3.58171 3.58172 0 8 0H704C708.418 0 712 3.58172 712 8V364C712 368.418 708.418 372 704 372H8C3.58172 372 0 368.418 0 364V7.99999Z" fill="white"/>
</clipPath>
</defs>
</svg>
