<svg width="712" height="86" viewBox="0 0 712 86" fill="none" xmlns="http://www.w3.org/2000/svg">
<g clip-path="url(#clip0_968_7934)">
<path d="M0 8C0 3.58172 3.58172 0 8 0H704C708.418 0 712 3.58172 712 8V78C712 82.4183 708.418 86 704 86H8C3.58172 86 0 82.4183 0 78V8Z" fill="white"/>
<path d="M17.0391 21V10.9785H19.0078L23.1094 17.6709V10.9785H24.9893V21H22.959L18.9189 14.4648V21H17.0391ZM26.6777 17.2676C26.6777 16.6296 26.835 16.012 27.1494 15.415C27.4639 14.818 27.9082 14.3623 28.4824 14.0479C29.0612 13.7334 29.7061 13.5762 30.417 13.5762C31.5153 13.5762 32.4154 13.9339 33.1172 14.6494C33.819 15.3604 34.1699 16.2604 34.1699 17.3496C34.1699 18.4479 33.8145 19.3594 33.1035 20.084C32.3971 20.804 31.5062 21.1641 30.4307 21.1641C29.7653 21.1641 29.1296 21.0137 28.5234 20.7129C27.9219 20.4121 27.4639 19.9723 27.1494 19.3936C26.835 18.8102 26.6777 18.1016 26.6777 17.2676ZM28.6465 17.3701C28.6465 18.0902 28.8174 18.6416 29.1592 19.0244C29.501 19.4072 29.9225 19.5986 30.4238 19.5986C30.9251 19.5986 31.3444 19.4072 31.6816 19.0244C32.0234 18.6416 32.1943 18.0856 32.1943 17.3564C32.1943 16.6455 32.0234 16.0986 31.6816 15.7158C31.3444 15.333 30.9251 15.1416 30.4238 15.1416C29.9225 15.1416 29.501 15.333 29.1592 15.7158C28.8174 16.0986 28.6465 16.6501 28.6465 17.3701ZM35.5371 13.7402H37.3076V14.7314C37.9411 13.9613 38.6953 13.5762 39.5703 13.5762C40.0352 13.5762 40.4385 13.6719 40.7803 13.8633C41.1221 14.0547 41.4023 14.3441 41.6211 14.7314C41.9401 14.3441 42.2842 14.0547 42.6533 13.8633C43.0225 13.6719 43.4167 13.5762 43.8359 13.5762C44.3691 13.5762 44.8203 13.6855 45.1895 13.9043C45.5586 14.1185 45.8343 14.4352 46.0166 14.8545C46.1488 15.1644 46.2148 15.6657 46.2148 16.3584V21H44.2939V16.8506C44.2939 16.1305 44.2279 15.6657 44.0957 15.4561C43.918 15.1826 43.6445 15.0459 43.2754 15.0459C43.0065 15.0459 42.7536 15.1279 42.5166 15.292C42.2796 15.4561 42.1087 15.6976 42.0039 16.0166C41.8991 16.3311 41.8467 16.8301 41.8467 17.5137V21H39.9258V17.0215C39.9258 16.3151 39.8916 15.8594 39.8232 15.6543C39.7549 15.4492 39.6478 15.2965 39.502 15.1963C39.3607 15.096 39.167 15.0459 38.9209 15.0459C38.6247 15.0459 38.3581 15.1257 38.1211 15.2852C37.8841 15.4447 37.7132 15.6748 37.6084 15.9756C37.5081 16.2764 37.458 16.7754 37.458 17.4727V21H35.5371V13.7402ZM58.6904 21H56.9062V19.9336C56.61 20.3483 56.2591 20.6582 55.8535 20.8633C55.4525 21.0638 55.0469 21.1641 54.6367 21.1641C53.8027 21.1641 53.0872 20.8291 52.4902 20.1592C51.8978 19.4847 51.6016 18.5459 51.6016 17.3428C51.6016 16.1123 51.891 15.1781 52.4697 14.54C53.0485 13.8975 53.7799 13.5762 54.6641 13.5762C55.4753 13.5762 56.1771 13.9134 56.7695 14.5879V10.9785H58.6904V21ZM53.5635 17.2129C53.5635 17.9876 53.6706 18.5482 53.8848 18.8945C54.1947 19.3958 54.6276 19.6465 55.1836 19.6465C55.6257 19.6465 56.0016 19.4596 56.3115 19.0859C56.6214 18.7077 56.7764 18.1449 56.7764 17.3975C56.7764 16.5635 56.626 15.9642 56.3252 15.5996C56.0244 15.2305 55.6393 15.0459 55.1699 15.0459C54.7142 15.0459 54.3314 15.2282 54.0215 15.5928C53.7161 15.9528 53.5635 16.4928 53.5635 17.2129ZM65.3691 21V19.9131C65.1048 20.3005 64.7562 20.6058 64.3232 20.8291C63.8949 21.0524 63.4414 21.1641 62.9629 21.1641C62.4753 21.1641 62.0378 21.057 61.6504 20.8428C61.263 20.6286 60.9827 20.3278 60.8096 19.9404C60.6364 19.5531 60.5498 19.0176 60.5498 18.334V13.7402H62.4707V17.0762C62.4707 18.097 62.5049 18.7236 62.5732 18.9561C62.6462 19.1839 62.776 19.3662 62.9629 19.5029C63.1497 19.6351 63.3867 19.7012 63.6738 19.7012C64.002 19.7012 64.2959 19.6123 64.5557 19.4346C64.8154 19.2523 64.9932 19.029 65.0889 18.7646C65.1846 18.4958 65.2324 17.8418 65.2324 16.8027V13.7402H67.1533V21H65.3691ZM76.375 13.7402V15.2715H75.0625V18.1973C75.0625 18.7897 75.0739 19.1361 75.0967 19.2363C75.124 19.332 75.181 19.4118 75.2676 19.4756C75.3587 19.5394 75.4681 19.5713 75.5957 19.5713C75.7734 19.5713 76.0309 19.5098 76.3682 19.3867L76.5322 20.877C76.0856 21.0684 75.5798 21.1641 75.0146 21.1641C74.6683 21.1641 74.3561 21.1071 74.0781 20.9932C73.8001 20.8747 73.5951 20.7243 73.4629 20.542C73.3353 20.3551 73.2464 20.1045 73.1963 19.79C73.1553 19.5667 73.1348 19.1156 73.1348 18.4365V15.2715H72.2529V13.7402H73.1348V12.2979L75.0625 11.1768V13.7402H76.375ZM77.2637 17.2676C77.2637 16.6296 77.4209 16.012 77.7354 15.415C78.0498 14.818 78.4941 14.3623 79.0684 14.0479C79.6471 13.7334 80.292 13.5762 81.0029 13.5762C82.1012 13.5762 83.0013 13.9339 83.7031 14.6494C84.4049 15.3604 84.7559 16.2604 84.7559 17.3496C84.7559 18.4479 84.4004 19.3594 83.6895 20.084C82.9831 20.804 82.0921 21.1641 81.0166 21.1641C80.3512 21.1641 79.7155 21.0137 79.1094 20.7129C78.5078 20.4121 78.0498 19.9723 77.7354 19.3936C77.4209 18.8102 77.2637 18.1016 77.2637 17.2676ZM79.2324 17.3701C79.2324 18.0902 79.4033 18.6416 79.7451 19.0244C80.0869 19.4072 80.5085 19.5986 81.0098 19.5986C81.5111 19.5986 81.9303 19.4072 82.2676 19.0244C82.6094 18.6416 82.7803 18.0856 82.7803 17.3564C82.7803 16.6455 82.6094 16.0986 82.2676 15.7158C81.9303 15.333 81.5111 15.1416 81.0098 15.1416C80.5085 15.1416 80.0869 15.333 79.7451 15.7158C79.4033 16.0986 79.2324 16.6501 79.2324 17.3701ZM86.1982 21V10.9785H88.1191V16.2969L90.3682 13.7402H92.7334L90.252 16.3926L92.9111 21H90.8398L89.0146 17.7393L88.1191 18.6758V21H86.1982ZM98.2637 18.6895L100.178 19.0107C99.9316 19.7126 99.542 20.248 99.0088 20.6172C98.4801 20.9818 97.8171 21.1641 97.0195 21.1641C95.7572 21.1641 94.8229 20.7516 94.2168 19.9268C93.7383 19.266 93.499 18.432 93.499 17.4248C93.499 16.2217 93.8135 15.2806 94.4424 14.6016C95.0713 13.918 95.8665 13.5762 96.8281 13.5762C97.9082 13.5762 98.7604 13.9339 99.3848 14.6494C100.009 15.3604 100.308 16.4518 100.28 17.9238H95.4678C95.4814 18.4935 95.6364 18.9378 95.9326 19.2568C96.2288 19.5713 96.598 19.7285 97.04 19.7285C97.3408 19.7285 97.5938 19.6465 97.7988 19.4824C98.0039 19.3184 98.1589 19.054 98.2637 18.6895ZM98.373 16.748C98.3594 16.1921 98.2158 15.7705 97.9424 15.4834C97.6689 15.1917 97.3363 15.0459 96.9443 15.0459C96.5251 15.0459 96.1787 15.1986 95.9053 15.5039C95.6318 15.8092 95.4974 16.224 95.502 16.748H98.373ZM108.456 21H106.535V17.2949C106.535 16.5111 106.494 16.0052 106.412 15.7773C106.33 15.5449 106.196 15.3649 106.009 15.2373C105.826 15.1097 105.605 15.0459 105.346 15.0459C105.013 15.0459 104.715 15.137 104.45 15.3193C104.186 15.5016 104.004 15.7432 103.903 16.0439C103.808 16.3447 103.76 16.9007 103.76 17.7119V21H101.839V13.7402H103.623V14.8066C104.257 13.9863 105.054 13.5762 106.016 13.5762C106.439 13.5762 106.827 13.6536 107.178 13.8086C107.529 13.959 107.793 14.1527 107.971 14.3896C108.153 14.6266 108.278 14.8955 108.347 15.1963C108.42 15.4971 108.456 15.9277 108.456 16.4883V21Z" fill="#201F1F"/>
<path d="M0 33H356V34H0V33Z" fill="#CDCCCB"/>
<path d="M375.575 21L371.993 10.9785H374.188L376.724 18.3955L379.178 10.9785H381.324L377.735 21H375.575ZM382.999 15.9551L381.256 15.6406C381.452 14.9388 381.789 14.4193 382.268 14.082C382.746 13.7448 383.457 13.5762 384.4 13.5762C385.257 13.5762 385.895 13.6787 386.314 13.8838C386.734 14.0843 387.028 14.3418 387.196 14.6562C387.369 14.9661 387.456 15.5381 387.456 16.3721L387.436 18.6143C387.436 19.2523 387.465 19.724 387.524 20.0293C387.588 20.3301 387.704 20.6536 387.873 21H385.973C385.923 20.8724 385.861 20.6833 385.788 20.4326C385.756 20.3187 385.733 20.2435 385.72 20.207C385.392 20.526 385.041 20.7653 384.667 20.9248C384.293 21.0843 383.895 21.1641 383.471 21.1641C382.723 21.1641 382.133 20.9613 381.7 20.5557C381.272 20.1501 381.058 19.6374 381.058 19.0176C381.058 18.6074 381.156 18.2428 381.352 17.9238C381.548 17.6003 381.821 17.3542 382.172 17.1855C382.527 17.0124 383.038 16.862 383.703 16.7344C384.601 16.5658 385.223 16.4085 385.569 16.2627V16.0713C385.569 15.7021 385.478 15.4401 385.296 15.2852C385.114 15.1257 384.77 15.0459 384.264 15.0459C383.922 15.0459 383.655 15.1143 383.464 15.251C383.272 15.3831 383.118 15.6178 382.999 15.9551ZM385.569 17.5137C385.323 17.5957 384.934 17.6937 384.4 17.8076C383.867 17.9215 383.519 18.0332 383.354 18.1426C383.104 18.3203 382.979 18.5459 382.979 18.8193C382.979 19.0882 383.079 19.3206 383.279 19.5166C383.48 19.7126 383.735 19.8105 384.045 19.8105C384.391 19.8105 384.722 19.6966 385.036 19.4688C385.269 19.2956 385.421 19.0837 385.494 18.833C385.544 18.6689 385.569 18.3568 385.569 17.8965V17.5137ZM389.356 21V10.9785H391.277V21H389.356ZM397.457 18.6895L399.371 19.0107C399.125 19.7126 398.735 20.248 398.202 20.6172C397.674 20.9818 397.01 21.1641 396.213 21.1641C394.951 21.1641 394.016 20.7516 393.41 19.9268C392.932 19.266 392.692 18.432 392.692 17.4248C392.692 16.2217 393.007 15.2806 393.636 14.6016C394.265 13.918 395.06 13.5762 396.021 13.5762C397.102 13.5762 397.954 13.9339 398.578 14.6494C399.202 15.3604 399.501 16.4518 399.474 17.9238H394.661C394.675 18.4935 394.83 18.9378 395.126 19.2568C395.422 19.5713 395.791 19.7285 396.233 19.7285C396.534 19.7285 396.787 19.6465 396.992 19.4824C397.197 19.3184 397.352 19.054 397.457 18.6895ZM397.566 16.748C397.553 16.1921 397.409 15.7705 397.136 15.4834C396.862 15.1917 396.53 15.0459 396.138 15.0459C395.718 15.0459 395.372 15.1986 395.099 15.5039C394.825 15.8092 394.691 16.224 394.695 16.748H397.566ZM405.824 21V19.9131C405.56 20.3005 405.211 20.6058 404.778 20.8291C404.35 21.0524 403.896 21.1641 403.418 21.1641C402.93 21.1641 402.493 21.057 402.105 20.8428C401.718 20.6286 401.438 20.3278 401.265 19.9404C401.091 19.5531 401.005 19.0176 401.005 18.334V13.7402H402.926V17.0762C402.926 18.097 402.96 18.7236 403.028 18.9561C403.101 19.1839 403.231 19.3662 403.418 19.5029C403.605 19.6351 403.842 19.7012 404.129 19.7012C404.457 19.7012 404.751 19.6123 405.011 19.4346C405.271 19.2523 405.448 19.029 405.544 18.7646C405.64 18.4958 405.688 17.8418 405.688 16.8027V13.7402H407.608V21H405.824ZM411.443 21H409.522V13.7402H411.307V14.7725C411.612 14.2848 411.885 13.9635 412.127 13.8086C412.373 13.6536 412.651 13.5762 412.961 13.5762C413.398 13.5762 413.82 13.6969 414.226 13.9385L413.631 15.6133C413.307 15.4036 413.007 15.2988 412.729 15.2988C412.46 15.2988 412.232 15.374 412.045 15.5244C411.858 15.6702 411.71 15.9368 411.601 16.3242C411.496 16.7116 411.443 17.5228 411.443 18.7578V21Z" fill="#201F1F"/>
<path d="M356 33H712V34H356V33Z" fill="#CDCCCB"/>
<path d="M16.9229 65V54.9785H18.1533V58.5742C18.7275 57.9089 19.4521 57.5762 20.3271 57.5762C20.8649 57.5762 21.332 57.6833 21.7285 57.8975C22.125 58.1071 22.4076 58.3988 22.5762 58.7725C22.7493 59.1462 22.8359 59.6885 22.8359 60.3994V65H21.6055V60.3994C21.6055 59.7842 21.471 59.3376 21.2021 59.0596C20.9378 58.777 20.5618 58.6357 20.0742 58.6357C19.7096 58.6357 19.3656 58.7314 19.042 58.9229C18.723 59.1097 18.4951 59.3649 18.3584 59.6885C18.2217 60.012 18.1533 60.4587 18.1533 61.0283V65H16.9229ZM29.6855 62.6621L30.957 62.8193C30.7565 63.5622 30.3851 64.1387 29.8428 64.5488C29.3005 64.959 28.6077 65.1641 27.7646 65.1641C26.7028 65.1641 25.8597 64.8382 25.2354 64.1865C24.6156 63.5303 24.3057 62.612 24.3057 61.4316C24.3057 60.2103 24.6201 59.2624 25.249 58.5879C25.8779 57.9134 26.6937 57.5762 27.6963 57.5762C28.667 57.5762 29.46 57.9066 30.0752 58.5674C30.6904 59.2282 30.998 60.1579 30.998 61.3564C30.998 61.4294 30.9958 61.5387 30.9912 61.6846H25.5771C25.6227 62.4821 25.8483 63.0928 26.2539 63.5166C26.6595 63.9404 27.1654 64.1523 27.7715 64.1523C28.2227 64.1523 28.6077 64.0339 28.9268 63.7969C29.2458 63.5599 29.4987 63.1816 29.6855 62.6621ZM25.6455 60.6729H29.6992C29.6445 60.0622 29.4896 59.6042 29.2344 59.2988C28.8424 58.8249 28.3343 58.5879 27.71 58.5879C27.1449 58.5879 26.6686 58.777 26.2812 59.1553C25.8984 59.5335 25.6865 60.0394 25.6455 60.6729ZM37.2461 64.1045C36.7904 64.4919 36.3506 64.7653 35.9268 64.9248C35.5075 65.0843 35.0563 65.1641 34.5732 65.1641C33.7757 65.1641 33.1628 64.9704 32.7344 64.583C32.306 64.1911 32.0918 63.6921 32.0918 63.0859C32.0918 62.7305 32.1715 62.4069 32.3311 62.1152C32.4951 61.819 32.707 61.582 32.9668 61.4043C33.2311 61.2266 33.5273 61.0921 33.8555 61.001C34.097 60.9372 34.4616 60.8757 34.9492 60.8164C35.9427 60.6979 36.6742 60.5566 37.1436 60.3926C37.1481 60.224 37.1504 60.1169 37.1504 60.0713C37.1504 59.57 37.0342 59.2168 36.8018 59.0117C36.4873 58.7337 36.0202 58.5947 35.4004 58.5947C34.8216 58.5947 34.3932 58.6973 34.1152 58.9023C33.8418 59.1029 33.639 59.4606 33.5068 59.9756L32.3037 59.8115C32.4131 59.2965 32.5931 58.8818 32.8438 58.5674C33.0944 58.2484 33.4567 58.0046 33.9307 57.8359C34.4046 57.6628 34.9538 57.5762 35.5781 57.5762C36.1979 57.5762 36.7015 57.6491 37.0889 57.7949C37.4762 57.9408 37.7611 58.1253 37.9434 58.3486C38.1257 58.5674 38.2533 58.8454 38.3262 59.1826C38.3672 59.3923 38.3877 59.7705 38.3877 60.3174V61.958C38.3877 63.1019 38.4128 63.8265 38.4629 64.1318C38.5176 64.4326 38.6224 64.722 38.7773 65H37.4922C37.3646 64.7448 37.2826 64.4463 37.2461 64.1045ZM37.1436 61.3564C36.6969 61.5387 36.027 61.6937 35.1338 61.8213C34.6279 61.8942 34.2702 61.9762 34.0605 62.0674C33.8509 62.1585 33.6891 62.293 33.5752 62.4707C33.4613 62.6439 33.4043 62.8376 33.4043 63.0518C33.4043 63.3799 33.5273 63.6533 33.7734 63.8721C34.0241 64.0908 34.3887 64.2002 34.8672 64.2002C35.3411 64.2002 35.7627 64.0977 36.1318 63.8926C36.501 63.6829 36.7721 63.3981 36.9453 63.0381C37.0775 62.7601 37.1436 62.3499 37.1436 61.8076V61.3564ZM45.0117 65V64.084C44.5514 64.804 43.8747 65.1641 42.9814 65.1641C42.4027 65.1641 41.8695 65.0046 41.3818 64.6855C40.8988 64.3665 40.5228 63.9222 40.2539 63.3525C39.9896 62.7783 39.8574 62.1198 39.8574 61.377C39.8574 60.6523 39.9782 59.9961 40.2197 59.4082C40.4613 58.8158 40.8236 58.3623 41.3066 58.0479C41.7897 57.7334 42.3298 57.5762 42.9268 57.5762C43.3643 57.5762 43.7539 57.6696 44.0957 57.8564C44.4375 58.0387 44.7155 58.278 44.9297 58.5742V54.9785H46.1533V65H45.0117ZM41.1221 61.377C41.1221 62.3066 41.318 63.0016 41.71 63.4619C42.1019 63.9222 42.5645 64.1523 43.0977 64.1523C43.6354 64.1523 44.0911 63.9336 44.4648 63.4961C44.8431 63.054 45.0322 62.3818 45.0322 61.4795C45.0322 60.486 44.8408 59.7568 44.458 59.292C44.0752 58.8271 43.6035 58.5947 43.043 58.5947C42.4961 58.5947 42.0381 58.818 41.6689 59.2646C41.3044 59.7113 41.1221 60.4154 41.1221 61.377ZM48.1016 56.3936V54.9785H49.332V56.3936H48.1016ZM48.1016 65V57.7402H49.332V65H48.1016ZM51.2119 65V57.7402H52.3193V58.7725C52.8525 57.9749 53.6227 57.5762 54.6299 57.5762C55.0674 57.5762 55.4684 57.6559 55.833 57.8154C56.2021 57.9704 56.4779 58.1755 56.6602 58.4307C56.8424 58.6859 56.9701 58.9889 57.043 59.3398C57.0885 59.5677 57.1113 59.9665 57.1113 60.5361V65H55.8809V60.584C55.8809 60.0827 55.833 59.709 55.7373 59.4629C55.6416 59.2122 55.4707 59.014 55.2246 58.8682C54.9831 58.7178 54.6982 58.6426 54.3701 58.6426C53.846 58.6426 53.3926 58.8089 53.0098 59.1416C52.6315 59.4743 52.4424 60.1055 52.4424 61.0352V65H51.2119ZM58.7793 65.6016L59.9756 65.7793C60.0257 66.1484 60.1647 66.4173 60.3926 66.5859C60.6979 66.8138 61.1149 66.9277 61.6436 66.9277C62.2132 66.9277 62.653 66.8138 62.9629 66.5859C63.2728 66.3581 63.4824 66.0391 63.5918 65.6289C63.6556 65.3783 63.6852 64.8519 63.6807 64.0498C63.1429 64.6833 62.473 65 61.6709 65C60.6729 65 59.9004 64.64 59.3535 63.9199C58.8066 63.1999 58.5332 62.3363 58.5332 61.3291C58.5332 60.6364 58.6585 59.9984 58.9092 59.415C59.1598 58.8271 59.5221 58.3737 59.9961 58.0547C60.4746 57.7357 61.0352 57.5762 61.6777 57.5762C62.5345 57.5762 63.2409 57.9225 63.7969 58.6152V57.7402H64.9316V64.0156C64.9316 65.1458 64.8154 65.9456 64.583 66.415C64.3551 66.889 63.9906 67.2627 63.4893 67.5361C62.9925 67.8096 62.3796 67.9463 61.6504 67.9463C60.7845 67.9463 60.085 67.7503 59.5518 67.3584C59.0186 66.971 58.7611 66.3854 58.7793 65.6016ZM59.7979 61.2402C59.7979 62.1927 59.987 62.8877 60.3652 63.3252C60.7435 63.7627 61.2174 63.9814 61.7871 63.9814C62.3522 63.9814 62.8262 63.765 63.209 63.332C63.5918 62.8945 63.7832 62.2109 63.7832 61.2812C63.7832 60.3926 63.585 59.7227 63.1885 59.2715C62.7965 58.8203 62.3226 58.5947 61.7666 58.5947C61.2197 58.5947 60.7549 58.818 60.3721 59.2646C59.9893 59.7067 59.7979 60.3652 59.7979 61.2402ZM65.875 65.1709L68.7803 54.8076H69.7646L66.8662 65.1709H65.875ZM70.3525 62.375L71.6445 62.2656C71.7402 62.8945 71.9613 63.3685 72.3076 63.6875C72.6585 64.002 73.0801 64.1592 73.5723 64.1592C74.1647 64.1592 74.666 63.9359 75.0762 63.4893C75.4863 63.0426 75.6914 62.4502 75.6914 61.7119C75.6914 61.0101 75.4932 60.4564 75.0967 60.0508C74.7048 59.6452 74.1898 59.4424 73.5518 59.4424C73.1553 59.4424 72.7975 59.5335 72.4785 59.7158C72.1595 59.8936 71.9089 60.126 71.7266 60.4131L70.5713 60.2627L71.542 55.1152H76.5254V56.291H72.5264L71.9863 58.9844C72.5879 58.5651 73.2191 58.3555 73.8799 58.3555C74.7549 58.3555 75.4932 58.6585 76.0947 59.2646C76.6963 59.8708 76.9971 60.6501 76.9971 61.6025C76.9971 62.5094 76.7327 63.2933 76.2041 63.9541C75.5615 64.7653 74.6842 65.1709 73.5723 65.1709C72.6608 65.1709 71.9157 64.9157 71.3369 64.4053C70.7627 63.8949 70.4346 63.2181 70.3525 62.375ZM77.626 65L81.502 59.7773L78.084 54.9785H79.6631L81.4814 57.5488C81.8597 58.082 82.1286 58.4922 82.2881 58.7793C82.5114 58.4147 82.7757 58.0342 83.0811 57.6377L85.0977 54.9785H86.54L83.0195 59.7021L86.8135 65H85.1729L82.6504 61.4248C82.5091 61.2197 82.3633 60.9964 82.2129 60.7549C81.9896 61.1195 81.8301 61.3701 81.7344 61.5068L79.2188 65H77.626ZM87.9277 65V54.9785H89.2539V63.8174H94.1895V65H87.9277ZM94.6953 65.1709L97.6006 54.8076H98.585L95.6865 65.1709H94.6953ZM99.0225 62.833L100.239 62.6416C100.308 63.1292 100.497 63.5029 100.807 63.7627C101.121 64.0225 101.559 64.1523 102.119 64.1523C102.684 64.1523 103.104 64.0384 103.377 63.8105C103.65 63.5781 103.787 63.307 103.787 62.9971C103.787 62.7191 103.666 62.5003 103.425 62.3408C103.256 62.2314 102.837 62.0924 102.167 61.9238C101.265 61.696 100.638 61.5 100.287 61.3359C99.9408 61.1673 99.6764 60.9372 99.4941 60.6455C99.3164 60.3493 99.2275 60.0234 99.2275 59.668C99.2275 59.3444 99.3005 59.0459 99.4463 58.7725C99.5967 58.4945 99.7995 58.2643 100.055 58.082C100.246 57.9408 100.506 57.8223 100.834 57.7266C101.167 57.6263 101.522 57.5762 101.9 57.5762C102.47 57.5762 102.969 57.6582 103.397 57.8223C103.83 57.9863 104.149 58.2096 104.354 58.4922C104.56 58.7702 104.701 59.1439 104.778 59.6133L103.575 59.7773C103.521 59.4036 103.361 59.112 103.097 58.9023C102.837 58.6927 102.468 58.5879 101.989 58.5879C101.424 58.5879 101.021 58.6813 100.779 58.8682C100.538 59.055 100.417 59.2738 100.417 59.5244C100.417 59.6839 100.467 59.8275 100.567 59.9551C100.668 60.0872 100.825 60.1966 101.039 60.2832C101.162 60.3288 101.524 60.4336 102.126 60.5977C102.996 60.8301 103.603 61.0215 103.944 61.1719C104.291 61.3177 104.562 61.5319 104.758 61.8145C104.954 62.097 105.052 62.4479 105.052 62.8672C105.052 63.2773 104.931 63.6647 104.689 64.0293C104.452 64.3893 104.108 64.6696 103.657 64.8701C103.206 65.0661 102.696 65.1641 102.126 65.1641C101.183 65.1641 100.463 64.9681 99.9658 64.5762C99.4736 64.1842 99.1592 63.6032 99.0225 62.833ZM111.484 62.6621L112.756 62.8193C112.555 63.5622 112.184 64.1387 111.642 64.5488C111.099 64.959 110.407 65.1641 109.563 65.1641C108.502 65.1641 107.659 64.8382 107.034 64.1865C106.414 63.5303 106.104 62.612 106.104 61.4316C106.104 60.2103 106.419 59.2624 107.048 58.5879C107.677 57.9134 108.493 57.5762 109.495 57.5762C110.466 57.5762 111.259 57.9066 111.874 58.5674C112.489 59.2282 112.797 60.1579 112.797 61.3564C112.797 61.4294 112.795 61.5387 112.79 61.6846H107.376C107.422 62.4821 107.647 63.0928 108.053 63.5166C108.458 63.9404 108.964 64.1523 109.57 64.1523C110.021 64.1523 110.407 64.0339 110.726 63.7969C111.045 63.5599 111.298 63.1816 111.484 62.6621ZM107.444 60.6729H111.498C111.443 60.0622 111.288 59.6042 111.033 59.2988C110.641 58.8249 110.133 58.5879 109.509 58.5879C108.944 58.5879 108.467 58.777 108.08 59.1553C107.697 59.5335 107.485 60.0394 107.444 60.6729ZM114.308 65V57.7402H115.408V58.7588C115.636 58.4033 115.939 58.1185 116.317 57.9043C116.696 57.6855 117.126 57.5762 117.609 57.5762C118.147 57.5762 118.587 57.6878 118.929 57.9111C119.275 58.1344 119.519 58.4466 119.66 58.8477C120.234 58 120.982 57.5762 121.902 57.5762C122.622 57.5762 123.176 57.7767 123.563 58.1777C123.951 58.5742 124.145 59.1872 124.145 60.0166V65H122.921V60.4268C122.921 59.9346 122.88 59.5814 122.798 59.3672C122.72 59.1484 122.577 58.973 122.367 58.8408C122.158 58.7087 121.911 58.6426 121.629 58.6426C121.118 58.6426 120.695 58.8135 120.357 59.1553C120.02 59.4925 119.852 60.0348 119.852 60.7822V65H118.621V60.2832C118.621 59.7363 118.521 59.3262 118.32 59.0527C118.12 58.7793 117.792 58.6426 117.336 58.6426C116.99 58.6426 116.668 58.7337 116.372 58.916C116.08 59.0983 115.868 59.3649 115.736 59.7158C115.604 60.0667 115.538 60.5726 115.538 61.2334V65H114.308ZM125.977 56.3936V54.9785H127.207V56.3936H125.977ZM125.977 65V57.7402H127.207V65H125.977ZM130.222 65H129.08V54.9785H130.311V58.5537C130.83 57.902 131.493 57.5762 132.3 57.5762C132.746 57.5762 133.168 57.6673 133.564 57.8496C133.965 58.0273 134.294 58.2803 134.549 58.6084C134.809 58.932 135.011 59.3239 135.157 59.7842C135.303 60.2445 135.376 60.7367 135.376 61.2607C135.376 62.5049 135.068 63.4665 134.453 64.1455C133.838 64.8245 133.1 65.1641 132.238 65.1641C131.382 65.1641 130.709 64.8063 130.222 64.0908V65ZM130.208 61.3154C130.208 62.1859 130.326 62.8148 130.563 63.2021C130.951 63.8356 131.475 64.1523 132.136 64.1523C132.674 64.1523 133.138 63.9199 133.53 63.4551C133.922 62.9857 134.118 62.2884 134.118 61.3633C134.118 60.4154 133.929 59.7158 133.551 59.2646C133.177 58.8135 132.724 58.5879 132.19 58.5879C131.653 58.5879 131.188 58.8226 130.796 59.292C130.404 59.7568 130.208 60.4313 130.208 61.3154ZM136.422 61.3701C136.422 60.0257 136.796 59.0299 137.543 58.3828C138.167 57.8451 138.928 57.5762 139.826 57.5762C140.824 57.5762 141.64 57.9043 142.273 58.5605C142.907 59.2122 143.224 60.1146 143.224 61.2676C143.224 62.2018 143.082 62.9378 142.8 63.4756C142.522 64.0088 142.114 64.4235 141.576 64.7197C141.043 65.016 140.46 65.1641 139.826 65.1641C138.81 65.1641 137.987 64.8382 137.358 64.1865C136.734 63.5348 136.422 62.596 136.422 61.3701ZM137.687 61.3701C137.687 62.2998 137.889 62.9971 138.295 63.4619C138.701 63.9222 139.211 64.1523 139.826 64.1523C140.437 64.1523 140.945 63.9199 141.351 63.4551C141.756 62.9902 141.959 62.2816 141.959 61.3291C141.959 60.4313 141.754 59.7523 141.344 59.292C140.938 58.8271 140.432 58.5947 139.826 58.5947C139.211 58.5947 138.701 58.8249 138.295 59.2852C137.889 59.7454 137.687 60.4404 137.687 61.3701ZM144.646 65V54.9785H145.876V65H144.646ZM152.5 65V64.084C152.04 64.804 151.363 65.1641 150.47 65.1641C149.891 65.1641 149.358 65.0046 148.87 64.6855C148.387 64.3665 148.011 63.9222 147.742 63.3525C147.478 62.7783 147.346 62.1198 147.346 61.377C147.346 60.6523 147.466 59.9961 147.708 59.4082C147.95 58.8158 148.312 58.3623 148.795 58.0479C149.278 57.7334 149.818 57.5762 150.415 57.5762C150.853 57.5762 151.242 57.6696 151.584 57.8564C151.926 58.0387 152.204 58.278 152.418 58.5742V54.9785H153.642V65H152.5ZM148.61 61.377C148.61 62.3066 148.806 63.0016 149.198 63.4619C149.59 63.9222 150.053 64.1523 150.586 64.1523C151.124 64.1523 151.579 63.9336 151.953 63.4961C152.331 63.054 152.521 62.3818 152.521 61.4795C152.521 60.486 152.329 59.7568 151.946 59.292C151.563 58.8271 151.092 58.5947 150.531 58.5947C149.984 58.5947 149.526 58.818 149.157 59.2646C148.793 59.7113 148.61 60.4154 148.61 61.377ZM154.66 65.1709L157.565 54.8076H158.55L155.651 65.1709H154.66ZM159.773 65V58.6973H158.687V57.7402H159.773V56.9678C159.773 56.4801 159.817 56.1178 159.903 55.8809C160.022 55.5618 160.229 55.3044 160.525 55.1084C160.826 54.9079 161.245 54.8076 161.783 54.8076C162.13 54.8076 162.512 54.8486 162.932 54.9307L162.747 56.0039C162.492 55.9583 162.25 55.9355 162.022 55.9355C161.649 55.9355 161.384 56.0153 161.229 56.1748C161.075 56.3343 160.997 56.6328 160.997 57.0703V57.7402H162.412V58.6973H160.997V65H159.773ZM162.918 61.3701C162.918 60.0257 163.292 59.0299 164.039 58.3828C164.663 57.8451 165.424 57.5762 166.322 57.5762C167.32 57.5762 168.136 57.9043 168.77 58.5605C169.403 59.2122 169.72 60.1146 169.72 61.2676C169.72 62.2018 169.578 62.9378 169.296 63.4756C169.018 64.0088 168.61 64.4235 168.072 64.7197C167.539 65.016 166.956 65.1641 166.322 65.1641C165.306 65.1641 164.483 64.8382 163.854 64.1865C163.23 63.5348 162.918 62.596 162.918 61.3701ZM164.183 61.3701C164.183 62.2998 164.385 62.9971 164.791 63.4619C165.197 63.9222 165.707 64.1523 166.322 64.1523C166.933 64.1523 167.441 63.9199 167.847 63.4551C168.252 62.9902 168.455 62.2816 168.455 61.3291C168.455 60.4313 168.25 59.7523 167.84 59.292C167.434 58.8271 166.928 58.5947 166.322 58.5947C165.707 58.5947 165.197 58.8249 164.791 59.2852C164.385 59.7454 164.183 60.4404 164.183 61.3701ZM171.169 65V57.7402H172.276V58.7725C172.81 57.9749 173.58 57.5762 174.587 57.5762C175.024 57.5762 175.425 57.6559 175.79 57.8154C176.159 57.9704 176.435 58.1755 176.617 58.4307C176.799 58.6859 176.927 58.9889 177 59.3398C177.046 59.5677 177.068 59.9665 177.068 60.5361V65H175.838V60.584C175.838 60.0827 175.79 59.709 175.694 59.4629C175.599 59.2122 175.428 59.014 175.182 58.8682C174.94 58.7178 174.655 58.6426 174.327 58.6426C173.803 58.6426 173.35 58.8089 172.967 59.1416C172.589 59.4743 172.399 60.1055 172.399 61.0352V65H171.169ZM181.648 63.8994L181.826 64.9863C181.48 65.0592 181.17 65.0957 180.896 65.0957C180.45 65.0957 180.104 65.0251 179.857 64.8838C179.611 64.7425 179.438 64.5579 179.338 64.3301C179.238 64.0977 179.188 63.6123 179.188 62.874V58.6973H178.285V57.7402H179.188V55.9424L180.411 55.2041V57.7402H181.648V58.6973H180.411V62.9424C180.411 63.2933 180.432 63.5189 180.473 63.6191C180.518 63.7194 180.589 63.7992 180.685 63.8584C180.785 63.9176 180.926 63.9473 181.108 63.9473C181.245 63.9473 181.425 63.9313 181.648 63.8994ZM182.38 61.9922V60.7549H186.16V61.9922H182.38ZM187.814 65V58.6973H186.728V57.7402H187.814V56.9678C187.814 56.4801 187.858 56.1178 187.944 55.8809C188.063 55.5618 188.27 55.3044 188.566 55.1084C188.867 54.9079 189.286 54.8076 189.824 54.8076C190.171 54.8076 190.553 54.8486 190.973 54.9307L190.788 56.0039C190.533 55.9583 190.291 55.9355 190.063 55.9355C189.69 55.9355 189.425 56.0153 189.271 56.1748C189.116 56.3343 189.038 56.6328 189.038 57.0703V57.7402H190.453V58.6973H189.038V65H187.814ZM196.154 64.1045C195.699 64.4919 195.259 64.7653 194.835 64.9248C194.416 65.0843 193.965 65.1641 193.481 65.1641C192.684 65.1641 192.071 64.9704 191.643 64.583C191.214 64.1911 191 63.6921 191 63.0859C191 62.7305 191.08 62.4069 191.239 62.1152C191.403 61.819 191.615 61.582 191.875 61.4043C192.139 61.2266 192.436 61.0921 192.764 61.001C193.005 60.9372 193.37 60.8757 193.857 60.8164C194.851 60.6979 195.582 60.5566 196.052 60.3926C196.056 60.224 196.059 60.1169 196.059 60.0713C196.059 59.57 195.942 59.2168 195.71 59.0117C195.396 58.7337 194.928 58.5947 194.309 58.5947C193.73 58.5947 193.301 58.6973 193.023 58.9023C192.75 59.1029 192.547 59.4606 192.415 59.9756L191.212 59.8115C191.321 59.2965 191.501 58.8818 191.752 58.5674C192.003 58.2484 192.365 58.0046 192.839 57.8359C193.313 57.6628 193.862 57.5762 194.486 57.5762C195.106 57.5762 195.61 57.6491 195.997 57.7949C196.384 57.9408 196.669 58.1253 196.852 58.3486C197.034 58.5674 197.161 58.8454 197.234 59.1826C197.275 59.3923 197.296 59.7705 197.296 60.3174V61.958C197.296 63.1019 197.321 63.8265 197.371 64.1318C197.426 64.4326 197.531 64.722 197.686 65H196.4C196.273 64.7448 196.191 64.4463 196.154 64.1045ZM196.052 61.3564C195.605 61.5387 194.935 61.6937 194.042 61.8213C193.536 61.8942 193.178 61.9762 192.969 62.0674C192.759 62.1585 192.597 62.293 192.483 62.4707C192.369 62.6439 192.312 62.8376 192.312 63.0518C192.312 63.3799 192.436 63.6533 192.682 63.8721C192.932 64.0908 193.297 64.2002 193.775 64.2002C194.249 64.2002 194.671 64.0977 195.04 63.8926C195.409 63.6829 195.68 63.3981 195.854 63.0381C195.986 62.7601 196.052 62.3499 196.052 61.8076V61.3564ZM199.21 65V57.7402H200.311V58.7588C200.538 58.4033 200.841 58.1185 201.22 57.9043C201.598 57.6855 202.029 57.5762 202.512 57.5762C203.049 57.5762 203.489 57.6878 203.831 57.9111C204.177 58.1344 204.421 58.4466 204.562 58.8477C205.137 58 205.884 57.5762 206.805 57.5762C207.525 57.5762 208.078 57.7767 208.466 58.1777C208.853 58.5742 209.047 59.1872 209.047 60.0166V65H207.823V60.4268C207.823 59.9346 207.782 59.5814 207.7 59.3672C207.623 59.1484 207.479 58.973 207.27 58.8408C207.06 58.7087 206.814 58.6426 206.531 58.6426C206.021 58.6426 205.597 58.8135 205.26 59.1553C204.923 59.4925 204.754 60.0348 204.754 60.7822V65H203.523V60.2832C203.523 59.7363 203.423 59.3262 203.223 59.0527C203.022 58.7793 202.694 58.6426 202.238 58.6426C201.892 58.6426 201.571 58.7337 201.274 58.916C200.983 59.0983 200.771 59.3649 200.639 59.7158C200.507 60.0667 200.44 60.5726 200.44 61.2334V65H199.21ZM210.879 56.3936V54.9785H212.109V56.3936H210.879ZM210.879 65V57.7402H212.109V65H210.879ZM213.962 65V54.9785H215.192V65H213.962ZM217.052 67.7959L216.915 66.6406C217.184 66.7135 217.419 66.75 217.619 66.75C217.893 66.75 218.111 66.7044 218.275 66.6133C218.439 66.5221 218.574 66.3945 218.679 66.2305C218.756 66.1074 218.882 65.8021 219.055 65.3145C219.077 65.2461 219.114 65.1458 219.164 65.0137L216.409 57.7402H217.735L219.246 61.9443C219.442 62.4775 219.618 63.0381 219.772 63.626C219.914 63.0609 220.082 62.5094 220.278 61.9717L221.83 57.7402H223.061L220.299 65.123C220.003 65.9206 219.772 66.4697 219.608 66.7705C219.39 67.1761 219.139 67.4723 218.856 67.6592C218.574 67.8506 218.237 67.9463 217.845 67.9463C217.608 67.9463 217.343 67.8962 217.052 67.7959Z" fill="#3E3E3D"/>
<path d="M0 85H356V86H0V85Z" fill="#CDCCCB"/>
<path d="M373.217 65V58.6973H372.13V57.7402H373.217V56.9678C373.217 56.4801 373.26 56.1178 373.347 55.8809C373.465 55.5618 373.673 55.3044 373.969 55.1084C374.27 54.9079 374.689 54.8076 375.227 54.8076C375.573 54.8076 375.956 54.8486 376.375 54.9307L376.19 56.0039C375.935 55.9583 375.694 55.9355 375.466 55.9355C375.092 55.9355 374.828 56.0153 374.673 56.1748C374.518 56.3343 374.44 56.6328 374.44 57.0703V57.7402H375.855V58.6973H374.44V65H373.217ZM376.361 61.3701C376.361 60.0257 376.735 59.0299 377.482 58.3828C378.107 57.8451 378.868 57.5762 379.766 57.5762C380.764 57.5762 381.579 57.9043 382.213 58.5605C382.846 59.2122 383.163 60.1146 383.163 61.2676C383.163 62.2018 383.022 62.9378 382.739 63.4756C382.461 64.0088 382.053 64.4235 381.516 64.7197C380.982 65.016 380.399 65.1641 379.766 65.1641C378.749 65.1641 377.927 64.8382 377.298 64.1865C376.674 63.5348 376.361 62.596 376.361 61.3701ZM377.626 61.3701C377.626 62.2998 377.829 62.9971 378.234 63.4619C378.64 63.9222 379.15 64.1523 379.766 64.1523C380.376 64.1523 380.884 63.9199 381.29 63.4551C381.696 62.9902 381.898 62.2816 381.898 61.3291C381.898 60.4313 381.693 59.7523 381.283 59.292C380.878 58.8271 380.372 58.5947 379.766 58.5947C379.15 58.5947 378.64 58.8249 378.234 59.2852C377.829 59.7454 377.626 60.4404 377.626 61.3701ZM384.612 65V57.7402H385.72V58.7725C386.253 57.9749 387.023 57.5762 388.03 57.5762C388.468 57.5762 388.869 57.6559 389.233 57.8154C389.603 57.9704 389.878 58.1755 390.061 58.4307C390.243 58.6859 390.37 58.9889 390.443 59.3398C390.489 59.5677 390.512 59.9665 390.512 60.5361V65H389.281V60.584C389.281 60.0827 389.233 59.709 389.138 59.4629C389.042 59.2122 388.871 59.014 388.625 58.8682C388.383 58.7178 388.099 58.6426 387.771 58.6426C387.246 58.6426 386.793 58.8089 386.41 59.1416C386.032 59.4743 385.843 60.1055 385.843 61.0352V65H384.612ZM395.092 63.8994L395.27 64.9863C394.923 65.0592 394.613 65.0957 394.34 65.0957C393.893 65.0957 393.547 65.0251 393.301 64.8838C393.055 64.7425 392.882 64.5579 392.781 64.3301C392.681 64.0977 392.631 63.6123 392.631 62.874V58.6973H391.729V57.7402H392.631V55.9424L393.854 55.2041V57.7402H395.092V58.6973H393.854V62.9424C393.854 63.2933 393.875 63.5189 393.916 63.6191C393.962 63.7194 394.032 63.7992 394.128 63.8584C394.228 63.9176 394.369 63.9473 394.552 63.9473C394.688 63.9473 394.868 63.9313 395.092 63.8994ZM395.823 61.9922V60.7549H399.604V61.9922H395.823ZM401.258 65V58.6973H400.171V57.7402H401.258V56.9678C401.258 56.4801 401.301 56.1178 401.388 55.8809C401.506 55.5618 401.714 55.3044 402.01 55.1084C402.311 54.9079 402.73 54.8076 403.268 54.8076C403.614 54.8076 403.997 54.8486 404.416 54.9307L404.231 56.0039C403.976 55.9583 403.735 55.9355 403.507 55.9355C403.133 55.9355 402.869 56.0153 402.714 56.1748C402.559 56.3343 402.481 56.6328 402.481 57.0703V57.7402H403.896V58.6973H402.481V65H401.258ZM409.598 64.1045C409.142 64.4919 408.702 64.7653 408.278 64.9248C407.859 65.0843 407.408 65.1641 406.925 65.1641C406.127 65.1641 405.514 64.9704 405.086 64.583C404.658 64.1911 404.443 63.6921 404.443 63.0859C404.443 62.7305 404.523 62.4069 404.683 62.1152C404.847 61.819 405.059 61.582 405.318 61.4043C405.583 61.2266 405.879 61.0921 406.207 61.001C406.449 60.9372 406.813 60.8757 407.301 60.8164C408.294 60.6979 409.026 60.5566 409.495 60.3926C409.5 60.224 409.502 60.1169 409.502 60.0713C409.502 59.57 409.386 59.2168 409.153 59.0117C408.839 58.7337 408.372 58.5947 407.752 58.5947C407.173 58.5947 406.745 58.6973 406.467 58.9023C406.193 59.1029 405.991 59.4606 405.858 59.9756L404.655 59.8115C404.765 59.2965 404.945 58.8818 405.195 58.5674C405.446 58.2484 405.808 58.0046 406.282 57.8359C406.756 57.6628 407.305 57.5762 407.93 57.5762C408.549 57.5762 409.053 57.6491 409.44 57.7949C409.828 57.9408 410.113 58.1253 410.295 58.3486C410.477 58.5674 410.605 58.8454 410.678 59.1826C410.719 59.3923 410.739 59.7705 410.739 60.3174V61.958C410.739 63.1019 410.764 63.8265 410.814 64.1318C410.869 64.4326 410.974 64.722 411.129 65H409.844C409.716 64.7448 409.634 64.4463 409.598 64.1045ZM409.495 61.3564C409.049 61.5387 408.379 61.6937 407.485 61.8213C406.979 61.8942 406.622 61.9762 406.412 62.0674C406.202 62.1585 406.041 62.293 405.927 62.4707C405.813 62.6439 405.756 62.8376 405.756 63.0518C405.756 63.3799 405.879 63.6533 406.125 63.8721C406.376 64.0908 406.74 64.2002 407.219 64.2002C407.693 64.2002 408.114 64.0977 408.483 63.8926C408.853 63.6829 409.124 63.3981 409.297 63.0381C409.429 62.7601 409.495 62.3499 409.495 61.8076V61.3564ZM412.653 65V57.7402H413.754V58.7588C413.982 58.4033 414.285 58.1185 414.663 57.9043C415.041 57.6855 415.472 57.5762 415.955 57.5762C416.493 57.5762 416.933 57.6878 417.274 57.9111C417.621 58.1344 417.865 58.4466 418.006 58.8477C418.58 58 419.327 57.5762 420.248 57.5762C420.968 57.5762 421.522 57.7767 421.909 58.1777C422.297 58.5742 422.49 59.1872 422.49 60.0166V65H421.267V60.4268C421.267 59.9346 421.226 59.5814 421.144 59.3672C421.066 59.1484 420.923 58.973 420.713 58.8408C420.503 58.7087 420.257 58.6426 419.975 58.6426C419.464 58.6426 419.04 58.8135 418.703 59.1553C418.366 59.4925 418.197 60.0348 418.197 60.7822V65H416.967V60.2832C416.967 59.7363 416.867 59.3262 416.666 59.0527C416.465 58.7793 416.137 58.6426 415.682 58.6426C415.335 58.6426 415.014 58.7337 414.718 58.916C414.426 59.0983 414.214 59.3649 414.082 59.7158C413.95 60.0667 413.884 60.5726 413.884 61.2334V65H412.653ZM424.322 56.3936V54.9785H425.553V56.3936H424.322ZM424.322 65V57.7402H425.553V65H424.322ZM427.405 65V54.9785H428.636V65H427.405ZM430.495 67.7959L430.358 66.6406C430.627 66.7135 430.862 66.75 431.062 66.75C431.336 66.75 431.555 66.7044 431.719 66.6133C431.883 66.5221 432.017 66.3945 432.122 66.2305C432.2 66.1074 432.325 65.8021 432.498 65.3145C432.521 65.2461 432.557 65.1458 432.607 65.0137L429.853 57.7402H431.179L432.689 61.9443C432.885 62.4775 433.061 63.0381 433.216 63.626C433.357 63.0609 433.526 62.5094 433.722 61.9717L435.273 57.7402H436.504L433.742 65.123C433.446 65.9206 433.216 66.4697 433.052 66.7705C432.833 67.1761 432.582 67.4723 432.3 67.6592C432.017 67.8506 431.68 67.9463 431.288 67.9463C431.051 67.9463 430.787 67.8962 430.495 67.7959ZM436.627 65.1709L439.532 54.8076H440.517L437.618 65.1709H436.627ZM441.446 65V57.7402H442.554V58.7725C443.087 57.9749 443.857 57.5762 444.864 57.5762C445.302 57.5762 445.703 57.6559 446.067 57.8154C446.437 57.9704 446.712 58.1755 446.895 58.4307C447.077 58.6859 447.204 58.9889 447.277 59.3398C447.323 59.5677 447.346 59.9665 447.346 60.5361V65H446.115V60.584C446.115 60.0827 446.067 59.709 445.972 59.4629C445.876 59.2122 445.705 59.014 445.459 58.8682C445.217 58.7178 444.933 58.6426 444.604 58.6426C444.08 58.6426 443.627 58.8089 443.244 59.1416C442.866 59.4743 442.677 60.1055 442.677 61.0352V65H441.446ZM453.997 65V63.9336C453.432 64.7539 452.664 65.1641 451.693 65.1641C451.265 65.1641 450.864 65.082 450.49 64.918C450.121 64.7539 449.845 64.5488 449.663 64.3027C449.485 64.0521 449.36 63.7467 449.287 63.3867C449.237 63.1452 449.212 62.7624 449.212 62.2383V57.7402H450.442V61.7666C450.442 62.4092 450.467 62.8421 450.518 63.0654C450.595 63.389 450.759 63.6442 451.01 63.8311C451.26 64.0133 451.57 64.1045 451.939 64.1045C452.309 64.1045 452.655 64.0111 452.979 63.8242C453.302 63.6328 453.53 63.3753 453.662 63.0518C453.799 62.7236 453.867 62.2497 453.867 61.6299V57.7402H455.098V65H453.997ZM457.032 65V57.7402H458.14V58.7725C458.673 57.9749 459.443 57.5762 460.45 57.5762C460.888 57.5762 461.289 57.6559 461.653 57.8154C462.022 57.9704 462.298 58.1755 462.48 58.4307C462.663 58.6859 462.79 58.9889 462.863 59.3398C462.909 59.5677 462.932 59.9665 462.932 60.5361V65H461.701V60.584C461.701 60.0827 461.653 59.709 461.558 59.4629C461.462 59.2122 461.291 59.014 461.045 58.8682C460.803 58.7178 460.519 58.6426 460.19 58.6426C459.666 58.6426 459.213 58.8089 458.83 59.1416C458.452 59.4743 458.263 60.1055 458.263 61.0352V65H457.032ZM464.832 56.3936V54.9785H466.062V56.3936H464.832ZM464.832 65V57.7402H466.062V65H464.832ZM470.629 63.8994L470.807 64.9863C470.46 65.0592 470.15 65.0957 469.877 65.0957C469.43 65.0957 469.084 65.0251 468.838 64.8838C468.592 64.7425 468.419 64.5579 468.318 64.3301C468.218 64.0977 468.168 63.6123 468.168 62.874V58.6973H467.266V57.7402H468.168V55.9424L469.392 55.2041V57.7402H470.629V58.6973H469.392V62.9424C469.392 63.2933 469.412 63.5189 469.453 63.6191C469.499 63.7194 469.569 63.7992 469.665 63.8584C469.765 63.9176 469.907 63.9473 470.089 63.9473C470.226 63.9473 470.406 63.9313 470.629 63.8994ZM471.381 61.3701C471.381 60.0257 471.755 59.0299 472.502 58.3828C473.126 57.8451 473.887 57.5762 474.785 57.5762C475.783 57.5762 476.599 57.9043 477.232 58.5605C477.866 59.2122 478.183 60.1146 478.183 61.2676C478.183 62.2018 478.041 62.9378 477.759 63.4756C477.481 64.0088 477.073 64.4235 476.535 64.7197C476.002 65.016 475.419 65.1641 474.785 65.1641C473.769 65.1641 472.946 64.8382 472.317 64.1865C471.693 63.5348 471.381 62.596 471.381 61.3701ZM472.646 61.3701C472.646 62.2998 472.848 62.9971 473.254 63.4619C473.66 63.9222 474.17 64.1523 474.785 64.1523C475.396 64.1523 475.904 63.9199 476.31 63.4551C476.715 62.9902 476.918 62.2816 476.918 61.3291C476.918 60.4313 476.713 59.7523 476.303 59.292C475.897 58.8271 475.391 58.5947 474.785 58.5947C474.17 58.5947 473.66 58.8249 473.254 59.2852C472.848 59.7454 472.646 60.4404 472.646 61.3701Z" fill="#3E3E3D"/>
<path d="M356 85H712V86H356V85Z" fill="#CDCCCB"/>
</g>
<path d="M8 0.5H704C708.142 0.5 711.5 3.85786 711.5 8V78C711.5 82.1421 708.142 85.5 704 85.5H8C3.85786 85.5 0.5 82.1421 0.5 78V8C0.5 3.85786 3.85786 0.5 8 0.5Z" stroke="#CDCCCB"/>
<defs>
<clipPath id="clip0_968_7934">
<path d="M0 8C0 3.58172 3.58172 0 8 0H704C708.418 0 712 3.58172 712 8V78C712 82.4183 708.418 86 704 86H8C3.58172 86 0 82.4183 0 78V8Z" fill="white"/>
</clipPath>
</defs>
</svg>
