<svg viewBox="0 0 20 20" fill="none" xmlns="http://www.w3.org/2000/svg">
<path d="M10 14.5C11.25 14.5 12.3125 14.0625 13.1875 13.1875C14.0625 12.3125 14.5 11.25 14.5 10V5.5H10C8.75 5.5 7.6875 5.9375 6.8125 6.8125C5.9375 7.6875 5.5 8.75 5.5 10C5.5 11.25 5.9375 12.3125 6.8125 13.1875C7.6875 14.0625 8.75 14.5 10 14.5ZM9.125 13.3333L12.4375 10.25C12.5903 10.1111 12.6319 9.95139 12.5625 9.77083C12.4931 9.59028 12.3611 9.49306 12.1667 9.47917L9.64583 9.33333L11.375 7.125C11.4306 7.05556 11.4549 6.97917 11.4479 6.89583C11.441 6.8125 11.4028 6.74306 11.3333 6.6875C11.2639 6.61806 11.1875 6.57986 11.1042 6.57292C11.0208 6.56597 10.9444 6.59722 10.875 6.66667L7.5625 9.75C7.40972 9.88889 7.37153 10.0486 7.44792 10.2292C7.52431 10.4097 7.65972 10.5069 7.85417 10.5208L10.3542 10.6667L8.625 12.875C8.56944 12.9444 8.54514 13.0174 8.55208 13.0938C8.55903 13.1701 8.59722 13.2431 8.66667 13.3125C8.73611 13.3819 8.8125 13.4201 8.89583 13.4271C8.97917 13.434 9.05556 13.4028 9.125 13.3333ZM10 16C9.29764 16 8.63604 15.8912 8.01521 15.6735C7.39438 15.4559 6.82681 15.1481 6.3125 14.75L5.27083 15.7708C5.20139 15.8403 5.12111 15.8958 5.03 15.9375C4.93889 15.9792 4.84472 16 4.7475 16C4.54083 16 4.36458 15.9278 4.21875 15.7833C4.07292 15.6388 4 15.4597 4 15.246C4 15.1455 4.02083 15.0481 4.0625 14.954C4.10417 14.8597 4.16187 14.7756 4.23562 14.7019L5.25 13.6875C4.85194 13.1732 4.5441 12.6056 4.32646 11.9848C4.10882 11.364 4 10.7024 4 10C4 8.33333 4.58333 6.91667 5.75 5.75C6.91667 4.58333 8.33625 4 10.0088 4H16V9.99125C16 11.6637 15.4167 13.0833 14.25 14.25C13.0833 15.4167 11.6667 16 10 16Z" fill="currentColor"/>
</svg>
