<svg viewBox="0 0 20 20" fill="none" xmlns="http://www.w3.org/2000/svg">
<path d="M5.83335 11.6666V16.6666C5.83335 16.9028 5.75349 17.1007 5.59377 17.2604C5.43405 17.4201 5.23613 17.5 5.00002 17.5C4.76391 17.5 4.56599 17.4201 4.40627 17.2604C4.24655 17.1007 4.16669 16.9028 4.16669 16.6666V4.16665C4.16669 3.93054 4.24655 3.73262 4.40627 3.5729C4.56599 3.41317 4.76391 3.33331 5.00002 3.33331H10.9792C11.1736 3.33331 11.3472 3.39581 11.5 3.52081C11.6528 3.64581 11.75 3.80554 11.7917 3.99998L12 4.99998H15.8334C16.0695 4.99998 16.2674 5.07984 16.4271 5.23956C16.5868 5.39929 16.6667 5.5972 16.6667 5.83331V12.5C16.6667 12.7361 16.5868 12.934 16.4271 13.0937C16.2674 13.2535 16.0695 13.3333 15.8334 13.3333H11.5209C11.3264 13.3333 11.1528 13.2708 11 13.1458C10.8472 13.0208 10.75 12.8611 10.7084 12.6666L10.5 11.6666H5.83335ZM12.2084 11.6666H15V6.66665H11.3125C11.1181 6.66665 10.9445 6.60415 10.7917 6.47915C10.6389 6.35415 10.5417 6.19442 10.5 5.99998L10.2917 4.99998H5.83335V9.99998H11.1875C11.382 9.99998 11.5556 10.0625 11.7084 10.1875C11.8611 10.3125 11.9584 10.4722 12 10.6666L12.2084 11.6666Z" fill="currentColor"/>
</svg>