<svg viewBox="0 0 20 20" fill="none" xmlns="http://www.w3.org/2000/svg">
<path d="M3.33317 16.6667C2.87484 16.6667 2.48248 16.5035 2.15609 16.1771C1.8297 15.8507 1.6665 15.4584 1.6665 15V5.00004C1.6665 4.54171 1.8297 4.14935 2.15609 3.82296C2.48248 3.49657 2.87484 3.33337 3.33317 3.33337H7.64567C7.86789 3.33337 8.0797 3.37504 8.28109 3.45837C8.48248 3.54171 8.65956 3.65976 8.81234 3.81254L9.99984 5.00004H16.6665C17.1248 5.00004 17.5172 5.16324 17.8436 5.48962C18.17 5.81601 18.3332 6.20837 18.3332 6.66671V15C18.3332 15.4584 18.17 15.8507 17.8436 16.1771C17.5172 16.5035 17.1248 16.6667 16.6665 16.6667H3.33317ZM10.1665 11.6667L9.39567 12.4375C9.24289 12.5903 9.1665 12.7848 9.1665 13.0209C9.1665 13.257 9.24289 13.4514 9.39567 13.6042C9.54845 13.757 9.74289 13.8334 9.979 13.8334C10.2151 13.8334 10.4096 13.757 10.5623 13.6042L12.7498 11.4167C12.9165 11.25 12.9998 11.0556 12.9998 10.8334C12.9998 10.6112 12.9165 10.4167 12.7498 10.25L10.5623 8.06254C10.4096 7.90976 10.2151 7.83337 9.979 7.83337C9.74289 7.83337 9.54845 7.90976 9.39567 8.06254C9.24289 8.21532 9.1665 8.40976 9.1665 8.64587C9.1665 8.88199 9.24289 9.07643 9.39567 9.22921L10.1665 10H7.49984C7.26373 10 7.06581 10.0799 6.90609 10.2396C6.74636 10.3993 6.6665 10.5973 6.6665 10.8334C6.6665 11.0695 6.74636 11.2674 6.90609 11.4271C7.06581 11.5868 7.26373 11.6667 7.49984 11.6667H10.1665Z" fill="currentColor"/>
</svg>