<svg viewBox="0 0 20 20" fill="none" xmlns="http://www.w3.org/2000/svg">
<path d="M10 18.3334C9.54168 18.3334 9.14932 18.1702 8.82293 17.8438C8.49654 17.5174 8.33334 17.125 8.33334 16.6667H11.6667C11.6667 17.125 11.5035 17.5174 11.1771 17.8438C10.8507 18.1702 10.4583 18.3334 10 18.3334ZM4.16668 15.8334C3.93057 15.8334 3.73265 15.7535 3.57293 15.5938C3.4132 15.434 3.33334 15.2361 3.33334 15C3.33334 14.7639 3.4132 14.566 3.57293 14.4063C3.73265 14.2465 3.93057 14.1667 4.16668 14.1667H5.00001V8.33335C5.00001 7.18058 5.34723 6.15627 6.04168 5.26044C6.73612 4.3646 7.6389 3.7778 8.75001 3.50002V2.91669C8.75001 2.56946 8.87154 2.27433 9.11459 2.03127C9.35765 1.78821 9.65279 1.66669 10 1.66669C10.3472 1.66669 10.6424 1.78821 10.8854 2.03127C11.1285 2.27433 11.25 2.56946 11.25 2.91669V3.18752C11.0972 3.49308 10.9861 3.80558 10.9167 4.12502C10.8472 4.44446 10.8195 4.77085 10.8333 5.10419C10.6945 5.07641 10.559 5.0521 10.4271 5.03127C10.2951 5.01044 10.1528 5.00002 10 5.00002C9.08334 5.00002 8.29862 5.32641 7.64584 5.97919C6.99307 6.63196 6.66668 7.41669 6.66668 8.33335V14.1667H13.3333V8.81252C13.5833 8.92363 13.8507 9.01044 14.1354 9.07294C14.4201 9.13544 14.7083 9.16669 15 9.16669V14.1667H15.8333C16.0695 14.1667 16.2674 14.2465 16.4271 14.4063C16.5868 14.566 16.6667 14.7639 16.6667 15C16.6667 15.2361 16.5868 15.434 16.4271 15.5938C16.2674 15.7535 16.0695 15.8334 15.8333 15.8334H4.16668ZM15 7.50002C14.3056 7.50002 13.7153 7.25696 13.2292 6.77085C12.7431 6.28474 12.5 5.69446 12.5 5.00002C12.5 4.30558 12.7431 3.7153 13.2292 3.22919C13.7153 2.74308 14.3056 2.50002 15 2.50002C15.6945 2.50002 16.2847 2.74308 16.7708 3.22919C17.257 3.7153 17.5 4.30558 17.5 5.00002C17.5 5.69446 17.257 6.28474 16.7708 6.77085C16.2847 7.25696 15.6945 7.50002 15 7.50002Z" fill="currentColor"/>
</svg>