<svg viewBox="0 0 20 20" fill="none" xmlns="http://www.w3.org/2000/svg">
<path d="M4.16667 15.8333H15.8333V8.1875L11.8125 4.16667H4.16667V15.8333ZM4.16667 17.5C3.70833 17.5 3.31597 17.3368 2.98958 17.0104C2.66319 16.684 2.5 16.2917 2.5 15.8333V4.16667C2.5 3.70833 2.66319 3.31597 2.98958 2.98958C3.31597 2.66319 3.70833 2.5 4.16667 2.5H11.8125C12.0347 2.5 12.2465 2.54167 12.4479 2.625C12.6493 2.70833 12.8264 2.82639 12.9792 2.97917L17.0208 7.02083C17.1736 7.17361 17.2917 7.35069 17.375 7.55208C17.4583 7.75347 17.5 7.96528 17.5 8.1875V15.8333C17.5 16.2917 17.3368 16.684 17.0104 17.0104C16.684 17.3368 16.2917 17.5 15.8333 17.5H4.16667ZM6.66667 14.1667H13.3333C13.5694 14.1667 13.7674 14.0868 13.9271 13.9271C14.0868 13.7674 14.1667 13.5694 14.1667 13.3333C14.1667 13.0972 14.0868 12.8993 13.9271 12.7396C13.7674 12.5799 13.5694 12.5 13.3333 12.5H6.66667C6.43056 12.5 6.23264 12.5799 6.07292 12.7396C5.91319 12.8993 5.83333 13.0972 5.83333 13.3333C5.83333 13.5694 5.91319 13.7674 6.07292 13.9271C6.23264 14.0868 6.43056 14.1667 6.66667 14.1667ZM6.66667 10.8333H13.3333C13.5694 10.8333 13.7674 10.7535 13.9271 10.5938C14.0868 10.434 14.1667 10.2361 14.1667 10C14.1667 9.76389 14.0868 9.56597 13.9271 9.40625C13.7674 9.24653 13.5694 9.16667 13.3333 9.16667H6.66667C6.43056 9.16667 6.23264 9.24653 6.07292 9.40625C5.91319 9.56597 5.83333 9.76389 5.83333 10C5.83333 10.2361 5.91319 10.434 6.07292 10.5938C6.23264 10.7535 6.43056 10.8333 6.66667 10.8333ZM6.66667 7.5H10.8333C11.0694 7.5 11.2674 7.42014 11.4271 7.26042C11.5868 7.10069 11.6667 6.90278 11.6667 6.66667C11.6667 6.43056 11.5868 6.23264 11.4271 6.07292C11.2674 5.91319 11.0694 5.83333 10.8333 5.83333H6.66667C6.43056 5.83333 6.23264 5.91319 6.07292 6.07292C5.91319 6.23264 5.83333 6.43056 5.83333 6.66667C5.83333 6.90278 5.91319 7.10069 6.07292 7.26042C6.23264 7.42014 6.43056 7.5 6.66667 7.5Z" fill="currentColor"/>
</svg>