<svg viewBox="0 0 20 20" fill="none" xmlns="http://www.w3.org/2000/svg">
<path d="M15 8.75L17.625 6.125C17.7639 5.98611 17.9167 5.95139 18.0834 6.02083C18.25 6.09028 18.3334 6.22222 18.3334 6.41667V13.5833C18.3334 13.7778 18.25 13.9097 18.0834 13.9792C17.9167 14.0486 17.7639 14.0139 17.625 13.875L15 11.25C15 11.4861 14.9202 11.684 14.7605 11.8438C14.6007 12.0035 14.4028 12.0833 14.1667 12.0833C13.9306 12.0833 13.7327 12.0035 13.573 11.8438C13.4132 11.684 13.3334 11.4861 13.3334 11.25V5H7.50004C7.22226 5 7.01393 4.91319 6.87504 4.73958C6.73615 4.56597 6.66671 4.375 6.66671 4.16667C6.66671 3.95833 6.73615 3.76736 6.87504 3.59375C7.01393 3.42014 7.22226 3.33333 7.50004 3.33333H13.3334C13.7917 3.33333 14.1841 3.49653 14.5105 3.82292C14.8368 4.14931 15 4.54167 15 5V8.75ZM16.5417 18.875L1.12504 3.45833C0.972263 3.30556 0.895874 3.11111 0.895874 2.875C0.895874 2.63889 0.972263 2.44444 1.12504 2.29167C1.27782 2.13889 1.47226 2.0625 1.70837 2.0625C1.94449 2.0625 2.13893 2.13889 2.29171 2.29167L17.7084 17.7083C17.8612 17.8611 17.9375 18.0556 17.9375 18.2917C17.9375 18.5278 17.8612 18.7222 17.7084 18.875C17.5556 19.0278 17.3612 19.1042 17.125 19.1042C16.8889 19.1042 16.6945 19.0278 16.5417 18.875ZM3.33337 3.33333L5.00004 5H3.33337V15H13.3334V13.3333L15 15C15 15.4583 14.8368 15.8507 14.5105 16.1771C14.1841 16.5035 13.7917 16.6667 13.3334 16.6667H3.33337C2.87504 16.6667 2.48268 16.5035 2.15629 16.1771C1.8299 15.8507 1.66671 15.4583 1.66671 15V5C1.66671 4.54167 1.8299 4.14931 2.15629 3.82292C2.48268 3.49653 2.87504 3.33333 3.33337 3.33333Z" fill="currentColor"/>
</svg>