<svg viewBox="0 0 20 20" fill="none" xmlns="http://www.w3.org/2000/svg">
<path d="M14.7293 9.58335C14.271 9.58335 13.8786 9.42016 13.5522 9.09377C13.2259 8.76738 13.0627 8.37502 13.0627 7.91669V5.83335C13.0627 5.37502 13.2259 4.98266 13.5522 4.65627C13.8786 4.32988 14.271 4.16669 14.7293 4.16669H15.8335C16.2918 4.16669 16.6842 4.32988 17.0106 4.65627C17.337 4.98266 17.5002 5.37502 17.5002 5.83335V7.91669C17.5002 8.37502 17.337 8.76738 17.0106 9.09377C16.6842 9.42016 16.2918 9.58335 15.8335 9.58335H14.7293ZM9.4585 9.58335C9.00016 9.58335 8.6078 9.42016 8.28141 9.09377C7.95502 8.76738 7.79183 8.37502 7.79183 7.91669V5.83335C7.79183 5.37502 7.95502 4.98266 8.28141 4.65627C8.6078 4.32988 9.00016 4.16669 9.4585 4.16669H10.5627C11.021 4.16669 11.4134 4.32988 11.7397 4.65627C12.0661 4.98266 12.2293 5.37502 12.2293 5.83335V7.91669C12.2293 8.37502 12.0661 8.76738 11.7397 9.09377C11.4134 9.42016 11.021 9.58335 10.5627 9.58335H9.4585ZM4.18766 9.58335C3.72933 9.58335 3.33697 9.42016 3.01058 9.09377C2.68419 8.76738 2.521 8.37502 2.521 7.91669V5.83335C2.521 5.37502 2.68419 4.98266 3.01058 4.65627C3.33697 4.32988 3.72933 4.16669 4.18766 4.16669H5.29183C5.75016 4.16669 6.14252 4.32988 6.46891 4.65627C6.7953 4.98266 6.9585 5.37502 6.9585 5.83335V7.91669C6.9585 8.37502 6.7953 8.76738 6.46891 9.09377C6.14252 9.42016 5.75016 9.58335 5.29183 9.58335H4.18766ZM4.18766 15.8334C3.72933 15.8334 3.33697 15.6702 3.01058 15.3438C2.68419 15.0174 2.521 14.625 2.521 14.1667V12.0834C2.521 11.625 2.68419 11.2327 3.01058 10.9063C3.33697 10.5799 3.72933 10.4167 4.18766 10.4167H5.29183C5.75016 10.4167 6.14252 10.5799 6.46891 10.9063C6.7953 11.2327 6.9585 11.625 6.9585 12.0834V14.1667C6.9585 14.625 6.7953 15.0174 6.46891 15.3438C6.14252 15.6702 5.75016 15.8334 5.29183 15.8334H4.18766ZM9.4585 15.8334C9.00016 15.8334 8.6078 15.6702 8.28141 15.3438C7.95502 15.0174 7.79183 14.625 7.79183 14.1667V12.0834C7.79183 11.625 7.95502 11.2327 8.28141 10.9063C8.6078 10.5799 9.00016 10.4167 9.4585 10.4167H10.5627C11.021 10.4167 11.4134 10.5799 11.7397 10.9063C12.0661 11.2327 12.2293 11.625 12.2293 12.0834V14.1667C12.2293 14.625 12.0661 15.0174 11.7397 15.3438C11.4134 15.6702 11.021 15.8334 10.5627 15.8334H9.4585ZM14.7293 15.8334C14.271 15.8334 13.8786 15.6702 13.5522 15.3438C13.2259 15.0174 13.0627 14.625 13.0627 14.1667V12.0834C13.0627 11.625 13.2259 11.2327 13.5522 10.9063C13.8786 10.5799 14.271 10.4167 14.7293 10.4167H15.8335C16.2918 10.4167 16.6842 10.5799 17.0106 10.9063C17.337 11.2327 17.5002 11.625 17.5002 12.0834V14.1667C17.5002 14.625 17.337 15.0174 17.0106 15.3438C16.6842 15.6702 16.2918 15.8334 15.8335 15.8334H14.7293Z" fill="currentColor"/>
</svg>