<svg viewBox="0 0 20 20" fill="none" xmlns="http://www.w3.org/2000/svg">
<path d="M1.75684 11.75H4.23196C4.37003 11.75 4.48196 11.6381 4.48196 11.5V10C4.48196 9.04123 5.25918 8.25 6.21796 8.25H6.32796C7.29446 8.25 8.07796 9.0335 8.07796 10V11.688C8.07796 11.7223 8.10571 11.75 8.13996 11.75C8.17421 11.75 8.20196 11.7223 8.20196 11.688V10C8.20196 9.04123 8.97918 8.25 9.93795 8.25H10.048C11.0145 8.25 11.798 9.0335 11.798 10V11.688C11.798 11.7223 11.8257 11.75 11.86 11.75C11.8942 11.75 11.922 11.7223 11.922 11.688V10C11.922 9.04123 12.6992 8.25 13.658 8.25H13.768C14.7345 8.25 15.518 9.0335 15.518 10V11.5C15.518 11.6381 15.6299 11.75 15.768 11.75H18.2413" stroke="currentColor" stroke-width="1.5" stroke-linecap="round"/>
</svg>
