<svg width="1159" height="208" viewBox="0 0 1159 208" fill="none" xmlns="http://www.w3.org/2000/svg">
<g clip-path="url(#clip0_240_28617)">
<rect width="579.5" height="61" fill="white"/>
<path d="M18.68 37.14C18.3467 37.14 18.0867 37.0467 17.9 36.86C17.7267 36.6733 17.64 36.4133 17.64 36.08V23.82C17.64 23.4733 17.7267 23.2133 17.9 23.04C18.0867 22.8533 18.3467 22.76 18.68 22.76C19.0133 22.76 19.2667 22.8533 19.44 23.04C19.6267 23.2133 19.72 23.4733 19.72 23.82V36.08C19.72 36.4133 19.6333 36.6733 19.46 36.86C19.2867 37.0467 19.0267 37.14 18.68 37.14ZM23.2716 37.14C22.9516 37.14 22.7049 37.0533 22.5316 36.88C22.3582 36.6933 22.2716 36.44 22.2716 36.12V28.12C22.2716 27.7867 22.3582 27.5333 22.5316 27.36C22.7049 27.1867 22.9449 27.1 23.2516 27.1C23.5716 27.1 23.8116 27.1867 23.9716 27.36C24.1449 27.5333 24.2316 27.7867 24.2316 28.12V29.68L24.0116 29.32C24.3049 28.5733 24.7649 28.0133 25.3916 27.64C26.0182 27.2533 26.7382 27.06 27.5516 27.06C28.3249 27.06 28.9649 27.2067 29.4716 27.5C29.9916 27.78 30.3782 28.2133 30.6316 28.8C30.8849 29.3733 31.0116 30.1 31.0116 30.98V36.12C31.0116 36.44 30.9249 36.6933 30.7516 36.88C30.5782 37.0533 30.3316 37.14 30.0116 37.14C29.6782 37.14 29.4249 37.0533 29.2516 36.88C29.0782 36.6933 28.9916 36.44 28.9916 36.12V31.1C28.9916 30.26 28.8249 29.6467 28.4916 29.26C28.1716 28.8733 27.6649 28.68 26.9716 28.68C26.1582 28.68 25.5049 28.9333 25.0116 29.44C24.5316 29.9467 24.2916 30.6267 24.2916 31.48V36.12C24.2916 36.8 23.9516 37.14 23.2716 37.14ZM37.455 37.18C36.655 37.18 35.9817 37.04 35.435 36.76C34.8883 36.48 34.4817 36.0667 34.215 35.52C33.9483 34.9733 33.815 34.3067 33.815 33.52V28.8H32.615C32.3483 28.8 32.1417 28.7333 31.995 28.6C31.8483 28.4533 31.775 28.26 31.775 28.02C31.775 27.7667 31.8483 27.5733 31.995 27.44C32.1417 27.3067 32.3483 27.24 32.615 27.24H33.815V25.18C33.815 24.8467 33.9017 24.5933 34.075 24.42C34.2617 24.2467 34.515 24.16 34.835 24.16C35.155 24.16 35.4017 24.2467 35.575 24.42C35.7483 24.5933 35.835 24.8467 35.835 25.18V27.24H38.175C38.4417 27.24 38.6483 27.3067 38.795 27.44C38.9417 27.5733 39.015 27.7667 39.015 28.02C39.015 28.26 38.9417 28.4533 38.795 28.6C38.6483 28.7333 38.4417 28.8 38.175 28.8H35.835V33.36C35.835 34.0667 35.9817 34.6 36.275 34.96C36.5817 35.32 37.075 35.5 37.755 35.5C37.995 35.5 38.2017 35.48 38.375 35.44C38.5617 35.3867 38.715 35.3533 38.835 35.34C38.9817 35.34 39.1017 35.3933 39.195 35.5C39.2883 35.5933 39.335 35.78 39.335 36.06C39.335 36.26 39.295 36.4467 39.215 36.62C39.1483 36.7933 39.0217 36.9067 38.835 36.96C38.675 37.0133 38.455 37.06 38.175 37.1C37.9083 37.1533 37.6683 37.18 37.455 37.18ZM44.582 37.18C43.5154 37.18 42.5954 36.98 41.822 36.58C41.062 36.1667 40.4687 35.5867 40.042 34.84C39.6287 34.08 39.422 33.18 39.422 32.14C39.422 31.1267 39.6287 30.24 40.042 29.48C40.4554 28.72 41.022 28.1267 41.742 27.7C42.462 27.2733 43.282 27.06 44.202 27.06C44.882 27.06 45.4887 27.1733 46.022 27.4C46.5554 27.6133 47.0087 27.9333 47.382 28.36C47.7687 28.7733 48.0554 29.28 48.242 29.88C48.442 30.48 48.542 31.1533 48.542 31.9C48.542 32.1267 48.4754 32.3 48.342 32.42C48.2087 32.5267 48.0087 32.58 47.742 32.58H41.022V31.34H47.182L46.842 31.62C46.842 30.9533 46.742 30.3867 46.542 29.92C46.3554 29.4533 46.0687 29.1 45.682 28.86C45.3087 28.6067 44.842 28.48 44.282 28.48C43.6554 28.48 43.122 28.6267 42.682 28.92C42.2554 29.2133 41.9287 29.62 41.702 30.14C41.4754 30.66 41.362 31.2667 41.362 31.96V32.08C41.362 33.2533 41.6354 34.14 42.182 34.74C42.742 35.3267 43.5487 35.62 44.602 35.62C45.002 35.62 45.422 35.5667 45.862 35.46C46.3154 35.3533 46.742 35.1733 47.142 34.92C47.3687 34.7867 47.5687 34.7267 47.742 34.74C47.9287 34.7533 48.0754 34.8133 48.182 34.92C48.302 35.0267 48.3754 35.16 48.402 35.32C48.4287 35.48 48.402 35.6467 48.322 35.82C48.242 35.98 48.102 36.1267 47.902 36.26C47.4487 36.5667 46.922 36.8 46.322 36.96C45.722 37.1067 45.142 37.18 44.582 37.18ZM51.2642 37.14C50.9309 37.14 50.6776 37.0533 50.5042 36.88C50.3309 36.6933 50.2442 36.44 50.2442 36.12V28.12C50.2442 27.7867 50.3309 27.5333 50.5042 27.36C50.6776 27.1867 50.9176 27.1 51.2242 27.1C51.5442 27.1 51.7842 27.1867 51.9442 27.36C52.1176 27.5333 52.2042 27.7867 52.2042 28.12V29.58H52.0042C52.2176 28.78 52.6109 28.1733 53.1842 27.76C53.7576 27.3467 54.4909 27.1067 55.3842 27.04C55.6242 27.0267 55.8109 27.0867 55.9442 27.22C56.0909 27.3533 56.1709 27.56 56.1842 27.84C56.2109 28.12 56.1509 28.3467 56.0042 28.52C55.8576 28.68 55.6309 28.7733 55.3242 28.8L54.9442 28.84C54.0776 28.92 53.4176 29.1933 52.9642 29.66C52.5109 30.1267 52.2842 30.7667 52.2842 31.58V36.12C52.2842 36.44 52.1976 36.6933 52.0242 36.88C51.8642 37.0533 51.6109 37.14 51.2642 37.14ZM60.2275 37.18C59.5475 37.18 58.9342 37.0467 58.3875 36.78C57.8542 36.5133 57.4342 36.1533 57.1275 35.7C56.8208 35.2467 56.6675 34.7333 56.6675 34.16C56.6675 33.44 56.8475 32.8733 57.2075 32.46C57.5808 32.0333 58.1875 31.7333 59.0275 31.56C59.8808 31.3733 61.0275 31.28 62.4675 31.28H63.4075V32.52H62.4875C61.5275 32.52 60.7675 32.5667 60.2075 32.66C59.6475 32.7533 59.2475 32.9133 59.0075 33.14C58.7808 33.3533 58.6675 33.6533 58.6675 34.04C58.6675 34.5467 58.8408 34.96 59.1875 35.28C59.5342 35.5867 60.0142 35.74 60.6275 35.74C61.1208 35.74 61.5542 35.6267 61.9275 35.4C62.3008 35.16 62.5942 34.84 62.8075 34.44C63.0342 34.04 63.1475 33.58 63.1475 33.06V30.76C63.1475 30 62.9875 29.4533 62.6675 29.12C62.3475 28.7867 61.8208 28.62 61.0875 28.62C60.6608 28.62 60.2142 28.6733 59.7475 28.78C59.2942 28.8867 58.8208 29.0667 58.3275 29.32C58.1008 29.4267 57.9075 29.46 57.7475 29.42C57.5875 29.38 57.4608 29.2933 57.3675 29.16C57.2742 29.0133 57.2208 28.86 57.2075 28.7C57.2075 28.5267 57.2475 28.36 57.3275 28.2C57.4208 28.04 57.5742 27.92 57.7875 27.84C58.3742 27.56 58.9542 27.36 59.5275 27.24C60.1008 27.12 60.6408 27.06 61.1475 27.06C62.0408 27.06 62.7742 27.2 63.3475 27.48C63.9342 27.76 64.3675 28.1867 64.6475 28.76C64.9275 29.3333 65.0675 30.0733 65.0675 30.98V36.12C65.0675 36.44 64.9875 36.6933 64.8275 36.88C64.6675 37.0533 64.4342 37.14 64.1275 37.14C63.8342 37.14 63.6008 37.0533 63.4275 36.88C63.2542 36.6933 63.1675 36.44 63.1675 36.12V34.82H63.3475C63.2408 35.3133 63.0408 35.74 62.7475 36.1C62.4675 36.4467 62.1142 36.7133 61.6875 36.9C61.2608 37.0867 60.7742 37.18 60.2275 37.18ZM71.6497 37.18C70.6497 37.18 69.783 36.9733 69.0497 36.56C68.3297 36.1333 67.7697 35.54 67.3697 34.78C66.9697 34.0067 66.7697 33.1 66.7697 32.06C66.7697 31.2867 66.883 30.5933 67.1097 29.98C67.3364 29.3533 67.6564 28.8267 68.0697 28.4C68.4964 27.9733 69.0097 27.6467 69.6097 27.42C70.223 27.18 70.903 27.06 71.6497 27.06C72.1164 27.06 72.603 27.1333 73.1097 27.28C73.6297 27.4133 74.1097 27.64 74.5497 27.96C74.723 28.0667 74.8297 28.2 74.8697 28.36C74.923 28.5067 74.9297 28.66 74.8897 28.82C74.863 28.98 74.7897 29.12 74.6697 29.24C74.563 29.3467 74.4297 29.4133 74.2697 29.44C74.1097 29.4533 73.9364 29.4067 73.7497 29.3C73.4297 29.0733 73.103 28.9133 72.7697 28.82C72.4364 28.7133 72.1164 28.66 71.8097 28.66C71.3297 28.66 70.903 28.74 70.5297 28.9C70.1697 29.0467 69.863 29.2667 69.6097 29.56C69.3564 29.84 69.163 30.1933 69.0297 30.62C68.9097 31.0467 68.8497 31.5333 68.8497 32.08C68.8497 33.1733 69.103 34.0333 69.6097 34.66C70.1297 35.2733 70.863 35.58 71.8097 35.58C72.1164 35.58 72.4364 35.5333 72.7697 35.44C73.103 35.3467 73.4297 35.1867 73.7497 34.96C73.9364 34.8533 74.1097 34.8133 74.2697 34.84C74.4297 34.8667 74.5564 34.94 74.6497 35.06C74.7564 35.1667 74.823 35.3 74.8497 35.46C74.8897 35.6067 74.883 35.76 74.8297 35.92C74.7764 36.08 74.663 36.2133 74.4897 36.32C74.063 36.6267 73.5964 36.8467 73.0897 36.98C72.5964 37.1133 72.1164 37.18 71.6497 37.18ZM80.3652 37.18C79.5652 37.18 78.8918 37.04 78.3452 36.76C77.7985 36.48 77.3918 36.0667 77.1252 35.52C76.8585 34.9733 76.7252 34.3067 76.7252 33.52V28.8H75.5252C75.2585 28.8 75.0518 28.7333 74.9052 28.6C74.7585 28.4533 74.6852 28.26 74.6852 28.02C74.6852 27.7667 74.7585 27.5733 74.9052 27.44C75.0518 27.3067 75.2585 27.24 75.5252 27.24H76.7252V25.18C76.7252 24.8467 76.8118 24.5933 76.9852 24.42C77.1718 24.2467 77.4252 24.16 77.7452 24.16C78.0652 24.16 78.3118 24.2467 78.4852 24.42C78.6585 24.5933 78.7452 24.8467 78.7452 25.18V27.24H81.0852C81.3518 27.24 81.5585 27.3067 81.7052 27.44C81.8518 27.5733 81.9252 27.7667 81.9252 28.02C81.9252 28.26 81.8518 28.4533 81.7052 28.6C81.5585 28.7333 81.3518 28.8 81.0852 28.8H78.7452V33.36C78.7452 34.0667 78.8918 34.6 79.1852 34.96C79.4918 35.32 79.9852 35.5 80.6652 35.5C80.9052 35.5 81.1118 35.48 81.2852 35.44C81.4718 35.3867 81.6252 35.3533 81.7452 35.34C81.8918 35.34 82.0118 35.3933 82.1052 35.5C82.1985 35.5933 82.2452 35.78 82.2452 36.06C82.2452 36.26 82.2052 36.4467 82.1252 36.62C82.0585 36.7933 81.9318 36.9067 81.7452 36.96C81.5852 37.0133 81.3652 37.06 81.0852 37.1C80.8185 37.1533 80.5785 37.18 80.3652 37.18ZM84.1856 37.12C83.8656 37.12 83.619 37.0267 83.4456 36.84C83.2723 36.64 83.1856 36.3667 83.1856 36.02V28.22C83.1856 27.8733 83.2723 27.6067 83.4456 27.42C83.619 27.2333 83.8656 27.14 84.1856 27.14C84.5056 27.14 84.7523 27.2333 84.9256 27.42C85.1123 27.6067 85.2056 27.8733 85.2056 28.22V36.02C85.2056 36.3667 85.119 36.64 84.9456 36.84C84.7723 37.0267 84.519 37.12 84.1856 37.12ZM84.1856 25.06C83.7856 25.06 83.4723 24.96 83.2456 24.76C83.0323 24.56 82.9256 24.28 82.9256 23.92C82.9256 23.5467 83.0323 23.2667 83.2456 23.08C83.4723 22.88 83.7856 22.78 84.1856 22.78C84.5856 22.78 84.8923 22.88 85.1056 23.08C85.3323 23.2667 85.4456 23.5467 85.4456 23.92C85.4456 24.28 85.3323 24.56 85.1056 24.76C84.8923 24.96 84.5856 25.06 84.1856 25.06ZM91.7889 37.18C90.8022 37.18 89.9489 36.9733 89.2289 36.56C88.5222 36.1467 87.9689 35.56 87.5689 34.8C87.1689 34.04 86.9689 33.1467 86.9689 32.12C86.9689 31.3333 87.0822 30.6333 87.3089 30.02C87.5356 29.4067 87.8556 28.88 88.2689 28.44C88.6956 27.9867 89.2022 27.6467 89.7889 27.42C90.3889 27.18 91.0556 27.06 91.7889 27.06C92.7622 27.06 93.6022 27.2667 94.3089 27.68C95.0289 28.0933 95.5889 28.68 95.9889 29.44C96.3889 30.1867 96.5889 31.08 96.5889 32.12C96.5889 32.8933 96.4756 33.5933 96.2489 34.22C96.0222 34.8467 95.6956 35.38 95.2689 35.82C94.8556 36.26 94.3489 36.6 93.7489 36.84C93.1622 37.0667 92.5089 37.18 91.7889 37.18ZM91.7889 35.62C92.3356 35.62 92.8156 35.4867 93.2289 35.22C93.6422 34.9533 93.9622 34.56 94.1889 34.04C94.4289 33.52 94.5489 32.88 94.5489 32.12C94.5489 30.9733 94.2956 30.1067 93.7889 29.52C93.2822 28.9333 92.6156 28.64 91.7889 28.64C91.2289 28.64 90.7422 28.7733 90.3289 29.04C89.9156 29.2933 89.5889 29.68 89.3489 30.2C89.1222 30.72 89.0089 31.36 89.0089 32.12C89.0089 33.2533 89.2622 34.12 89.7689 34.72C90.2756 35.32 90.9489 35.62 91.7889 35.62ZM99.3575 37.14C99.0375 37.14 98.7908 37.0533 98.6175 36.88C98.4442 36.6933 98.3575 36.44 98.3575 36.12V28.12C98.3575 27.7867 98.4442 27.5333 98.6175 27.36C98.7908 27.1867 99.0308 27.1 99.3375 27.1C99.6575 27.1 99.8975 27.1867 100.058 27.36C100.231 27.5333 100.318 27.7867 100.318 28.12V29.68L100.098 29.32C100.391 28.5733 100.851 28.0133 101.478 27.64C102.104 27.2533 102.824 27.06 103.638 27.06C104.411 27.06 105.051 27.2067 105.558 27.5C106.078 27.78 106.464 28.2133 106.718 28.8C106.971 29.3733 107.098 30.1 107.098 30.98V36.12C107.098 36.44 107.011 36.6933 106.838 36.88C106.664 37.0533 106.418 37.14 106.098 37.14C105.764 37.14 105.511 37.0533 105.338 36.88C105.164 36.6933 105.078 36.44 105.078 36.12V31.1C105.078 30.26 104.911 29.6467 104.578 29.26C104.258 28.8733 103.751 28.68 103.058 28.68C102.244 28.68 101.591 28.9333 101.098 29.44C100.618 29.9467 100.378 30.6267 100.378 31.48V36.12C100.378 36.8 100.038 37.14 99.3575 37.14ZM119.074 37.18C118.461 37.18 117.861 37.1333 117.274 37.04C116.688 36.9467 116.134 36.8067 115.614 36.62C115.094 36.42 114.628 36.18 114.214 35.9C114.014 35.7533 113.874 35.5867 113.794 35.4C113.728 35.2133 113.708 35.0333 113.734 34.86C113.774 34.6733 113.854 34.5133 113.974 34.38C114.094 34.2467 114.241 34.1667 114.414 34.14C114.588 34.1 114.781 34.1533 114.994 34.3C115.594 34.6867 116.228 34.9733 116.894 35.16C117.561 35.3333 118.288 35.42 119.074 35.42C120.208 35.42 121.041 35.22 121.574 34.82C122.121 34.4067 122.394 33.8733 122.394 33.22C122.394 32.6867 122.201 32.2667 121.814 31.96C121.428 31.64 120.781 31.3867 119.874 31.2L117.734 30.76C116.468 30.4933 115.521 30.0533 114.894 29.44C114.281 28.8267 113.974 28 113.974 26.96C113.974 26.3333 114.101 25.76 114.354 25.24C114.621 24.72 114.988 24.2733 115.454 23.9C115.921 23.5133 116.481 23.22 117.134 23.02C117.788 22.82 118.501 22.72 119.274 22.72C120.101 22.72 120.874 22.8267 121.594 23.04C122.328 23.2533 122.981 23.58 123.554 24.02C123.728 24.14 123.841 24.2933 123.894 24.48C123.961 24.6533 123.974 24.8267 123.934 25C123.908 25.1733 123.834 25.32 123.714 25.44C123.594 25.56 123.441 25.6333 123.254 25.66C123.068 25.6733 122.861 25.6067 122.634 25.46C122.114 25.1133 121.581 24.8667 121.034 24.72C120.501 24.56 119.908 24.48 119.254 24.48C118.601 24.48 118.028 24.58 117.534 24.78C117.054 24.98 116.681 25.26 116.414 25.62C116.161 25.98 116.034 26.4067 116.034 26.9C116.034 27.46 116.214 27.9067 116.574 28.24C116.934 28.5733 117.534 28.8267 118.374 29L120.494 29.44C121.828 29.72 122.821 30.1533 123.474 30.74C124.128 31.3267 124.454 32.1067 124.454 33.08C124.454 33.7067 124.328 34.2733 124.074 34.78C123.821 35.2733 123.461 35.7 122.994 36.06C122.528 36.42 121.961 36.7 121.294 36.9C120.641 37.0867 119.901 37.18 119.074 37.18ZM130.197 37.18C129.397 37.18 128.724 37.04 128.177 36.76C127.631 36.48 127.224 36.0667 126.957 35.52C126.691 34.9733 126.557 34.3067 126.557 33.52V28.8H125.357C125.091 28.8 124.884 28.7333 124.737 28.6C124.591 28.4533 124.517 28.26 124.517 28.02C124.517 27.7667 124.591 27.5733 124.737 27.44C124.884 27.3067 125.091 27.24 125.357 27.24H126.557V25.18C126.557 24.8467 126.644 24.5933 126.817 24.42C127.004 24.2467 127.257 24.16 127.577 24.16C127.897 24.16 128.144 24.2467 128.317 24.42C128.491 24.5933 128.577 24.8467 128.577 25.18V27.24H130.917C131.184 27.24 131.391 27.3067 131.537 27.44C131.684 27.5733 131.757 27.7667 131.757 28.02C131.757 28.26 131.684 28.4533 131.537 28.6C131.391 28.7333 131.184 28.8 130.917 28.8H128.577V33.36C128.577 34.0667 128.724 34.6 129.017 34.96C129.324 35.32 129.817 35.5 130.497 35.5C130.737 35.5 130.944 35.48 131.117 35.44C131.304 35.3867 131.457 35.3533 131.577 35.34C131.724 35.34 131.844 35.3933 131.937 35.5C132.031 35.5933 132.077 35.78 132.077 36.06C132.077 36.26 132.037 36.4467 131.957 36.62C131.891 36.7933 131.764 36.9067 131.577 36.96C131.417 37.0133 131.197 37.06 130.917 37.1C130.651 37.1533 130.411 37.18 130.197 37.18ZM135.962 37.18C135.282 37.18 134.669 37.0467 134.122 36.78C133.589 36.5133 133.169 36.1533 132.862 35.7C132.555 35.2467 132.402 34.7333 132.402 34.16C132.402 33.44 132.582 32.8733 132.942 32.46C133.315 32.0333 133.922 31.7333 134.762 31.56C135.615 31.3733 136.762 31.28 138.202 31.28H139.142V32.52H138.222C137.262 32.52 136.502 32.5667 135.942 32.66C135.382 32.7533 134.982 32.9133 134.742 33.14C134.515 33.3533 134.402 33.6533 134.402 34.04C134.402 34.5467 134.575 34.96 134.922 35.28C135.269 35.5867 135.749 35.74 136.362 35.74C136.855 35.74 137.289 35.6267 137.662 35.4C138.035 35.16 138.329 34.84 138.542 34.44C138.769 34.04 138.882 33.58 138.882 33.06V30.76C138.882 30 138.722 29.4533 138.402 29.12C138.082 28.7867 137.555 28.62 136.822 28.62C136.395 28.62 135.949 28.6733 135.482 28.78C135.029 28.8867 134.555 29.0667 134.062 29.32C133.835 29.4267 133.642 29.46 133.482 29.42C133.322 29.38 133.195 29.2933 133.102 29.16C133.009 29.0133 132.955 28.86 132.942 28.7C132.942 28.5267 132.982 28.36 133.062 28.2C133.155 28.04 133.309 27.92 133.522 27.84C134.109 27.56 134.689 27.36 135.262 27.24C135.835 27.12 136.375 27.06 136.882 27.06C137.775 27.06 138.509 27.2 139.082 27.48C139.669 27.76 140.102 28.1867 140.382 28.76C140.662 29.3333 140.802 30.0733 140.802 30.98V36.12C140.802 36.44 140.722 36.6933 140.562 36.88C140.402 37.0533 140.169 37.14 139.862 37.14C139.569 37.14 139.335 37.0533 139.162 36.88C138.989 36.6933 138.902 36.44 138.902 36.12V34.82H139.082C138.975 35.3133 138.775 35.74 138.482 36.1C138.202 36.4467 137.849 36.7133 137.422 36.9C136.995 37.0867 136.509 37.18 135.962 37.18ZM147.244 37.18C146.444 37.18 145.771 37.04 145.224 36.76C144.677 36.48 144.271 36.0667 144.004 35.52C143.737 34.9733 143.604 34.3067 143.604 33.52V28.8H142.404C142.137 28.8 141.931 28.7333 141.784 28.6C141.637 28.4533 141.564 28.26 141.564 28.02C141.564 27.7667 141.637 27.5733 141.784 27.44C141.931 27.3067 142.137 27.24 142.404 27.24H143.604V25.18C143.604 24.8467 143.691 24.5933 143.864 24.42C144.051 24.2467 144.304 24.16 144.624 24.16C144.944 24.16 145.191 24.2467 145.364 24.42C145.537 24.5933 145.624 24.8467 145.624 25.18V27.24H147.964C148.231 27.24 148.437 27.3067 148.584 27.44C148.731 27.5733 148.804 27.7667 148.804 28.02C148.804 28.26 148.731 28.4533 148.584 28.6C148.437 28.7333 148.231 28.8 147.964 28.8H145.624V33.36C145.624 34.0667 145.771 34.6 146.064 34.96C146.371 35.32 146.864 35.5 147.544 35.5C147.784 35.5 147.991 35.48 148.164 35.44C148.351 35.3867 148.504 35.3533 148.624 35.34C148.771 35.34 148.891 35.3933 148.984 35.5C149.077 35.5933 149.124 35.78 149.124 36.06C149.124 36.26 149.084 36.4467 149.004 36.62C148.937 36.7933 148.811 36.9067 148.624 36.96C148.464 37.0133 148.244 37.06 147.964 37.1C147.697 37.1533 147.457 37.18 147.244 37.18ZM154.371 37.18C153.304 37.18 152.384 36.98 151.611 36.58C150.851 36.1667 150.258 35.5867 149.831 34.84C149.418 34.08 149.211 33.18 149.211 32.14C149.211 31.1267 149.418 30.24 149.831 29.48C150.244 28.72 150.811 28.1267 151.531 27.7C152.251 27.2733 153.071 27.06 153.991 27.06C154.671 27.06 155.278 27.1733 155.811 27.4C156.344 27.6133 156.798 27.9333 157.171 28.36C157.558 28.7733 157.844 29.28 158.031 29.88C158.231 30.48 158.331 31.1533 158.331 31.9C158.331 32.1267 158.264 32.3 158.131 32.42C157.998 32.5267 157.798 32.58 157.531 32.58H150.811V31.34H156.971L156.631 31.62C156.631 30.9533 156.531 30.3867 156.331 29.92C156.144 29.4533 155.858 29.1 155.471 28.86C155.098 28.6067 154.631 28.48 154.071 28.48C153.444 28.48 152.911 28.6267 152.471 28.92C152.044 29.2133 151.718 29.62 151.491 30.14C151.264 30.66 151.151 31.2667 151.151 31.96V32.08C151.151 33.2533 151.424 34.14 151.971 34.74C152.531 35.3267 153.338 35.62 154.391 35.62C154.791 35.62 155.211 35.5667 155.651 35.46C156.104 35.3533 156.531 35.1733 156.931 34.92C157.158 34.7867 157.358 34.7267 157.531 34.74C157.718 34.7533 157.864 34.8133 157.971 34.92C158.091 35.0267 158.164 35.16 158.191 35.32C158.218 35.48 158.191 35.6467 158.111 35.82C158.031 35.98 157.891 36.1267 157.691 36.26C157.238 36.5667 156.711 36.8 156.111 36.96C155.511 37.1067 154.931 37.18 154.371 37.18Z" fill="#201F1F"/>
<path d="M0 60.5H579.5" stroke="#CDCCCB"/>
<rect width="579.5" height="49" transform="translate(0 61)" fill="white"/>
<path d="M17.1641 91V79.5469H25.6562V81.4844H19.4766V84.0234H25.2266V85.9531H19.4766V89.0703H25.875V91H17.1641ZM35.3672 91H33.1719V86.7656C33.1719 85.8698 33.125 85.2917 33.0312 85.0312C32.9375 84.7656 32.7839 84.5599 32.5703 84.4141C32.362 84.2682 32.1094 84.1953 31.8125 84.1953C31.4323 84.1953 31.0911 84.2995 30.7891 84.5078C30.487 84.7161 30.2786 84.9922 30.1641 85.3359C30.0547 85.6797 30 86.3151 30 87.2422V91H27.8047V82.7031H29.8438V83.9219C30.5677 82.9844 31.4792 82.5156 32.5781 82.5156C33.0625 82.5156 33.5052 82.6042 33.9062 82.7812C34.3073 82.9531 34.6094 83.1745 34.8125 83.4453C35.0208 83.7161 35.1641 84.0234 35.2422 84.3672C35.3255 84.7109 35.3672 85.2031 35.3672 85.8438V91ZM39.2422 85.2344L37.25 84.875C37.474 84.0729 37.8594 83.4792 38.4062 83.0938C38.9531 82.7083 39.7656 82.5156 40.8438 82.5156C41.8229 82.5156 42.5521 82.6328 43.0312 82.8672C43.5104 83.0964 43.8464 83.3906 44.0391 83.75C44.237 84.1042 44.3359 84.7578 44.3359 85.7109L44.3125 88.2734C44.3125 89.0026 44.3464 89.5417 44.4141 89.8906C44.487 90.2344 44.6198 90.6042 44.8125 91H42.6406C42.5833 90.8542 42.513 90.638 42.4297 90.3516C42.3932 90.2214 42.3672 90.1354 42.3516 90.0938C41.9766 90.4583 41.5755 90.7318 41.1484 90.9141C40.7214 91.0964 40.2656 91.1875 39.7812 91.1875C38.9271 91.1875 38.2526 90.9557 37.7578 90.4922C37.2682 90.0286 37.0234 89.4427 37.0234 88.7344C37.0234 88.2656 37.1354 87.849 37.3594 87.4844C37.5833 87.1146 37.8958 86.8333 38.2969 86.6406C38.7031 86.4427 39.2865 86.2708 40.0469 86.125C41.0729 85.9323 41.7839 85.7526 42.1797 85.5859V85.3672C42.1797 84.9453 42.0755 84.6458 41.8672 84.4688C41.6589 84.2865 41.2656 84.1953 40.6875 84.1953C40.2969 84.1953 39.9922 84.2734 39.7734 84.4297C39.5547 84.5807 39.3776 84.849 39.2422 85.2344ZM42.1797 87.0156C41.8984 87.1094 41.4531 87.2214 40.8438 87.3516C40.2344 87.4818 39.8359 87.6094 39.6484 87.7344C39.362 87.9375 39.2188 88.1953 39.2188 88.5078C39.2188 88.8151 39.3333 89.0807 39.5625 89.3047C39.7917 89.5286 40.0833 89.6406 40.4375 89.6406C40.8333 89.6406 41.2109 89.5104 41.5703 89.25C41.8359 89.0521 42.0104 88.8099 42.0938 88.5234C42.151 88.3359 42.1797 87.9792 42.1797 87.4531V87.0156ZM46.4141 91V79.5469H48.6094V83.6719C49.2865 82.901 50.0885 82.5156 51.0156 82.5156C52.026 82.5156 52.862 82.8828 53.5234 83.6172C54.1849 84.3464 54.5156 85.3958 54.5156 86.7656C54.5156 88.1823 54.1771 89.2734 53.5 90.0391C52.8281 90.8047 52.0104 91.1875 51.0469 91.1875C50.5729 91.1875 50.1042 91.0703 49.6406 90.8359C49.1823 90.5964 48.7865 90.2448 48.4531 89.7812V91H46.4141ZM48.5938 86.6719C48.5938 87.5312 48.7292 88.1667 49 88.5781C49.3802 89.1615 49.8854 89.4531 50.5156 89.4531C51 89.4531 51.4115 89.2474 51.75 88.8359C52.0938 88.4193 52.2656 87.7656 52.2656 86.875C52.2656 85.9271 52.0938 85.2448 51.75 84.8281C51.4062 84.4062 50.9661 84.1953 50.4297 84.1953C49.9036 84.1953 49.4661 84.401 49.1172 84.8125C48.7682 85.2188 48.5938 85.8385 48.5938 86.6719ZM56.2891 91V79.5469H58.4844V91H56.2891ZM65.5469 88.3594L67.7344 88.7266C67.4531 89.5286 67.0078 90.1406 66.3984 90.5625C65.7943 90.9792 65.0365 91.1875 64.125 91.1875C62.6823 91.1875 61.6146 90.7161 60.9219 89.7734C60.375 89.0182 60.1016 88.0651 60.1016 86.9141C60.1016 85.5391 60.4609 84.4635 61.1797 83.6875C61.8984 82.9062 62.8073 82.5156 63.9062 82.5156C65.1406 82.5156 66.1146 82.9245 66.8281 83.7422C67.5417 84.5547 67.8828 85.8021 67.8516 87.4844H62.3516C62.3672 88.1354 62.5443 88.6432 62.8828 89.0078C63.2214 89.3672 63.6432 89.5469 64.1484 89.5469C64.4922 89.5469 64.7812 89.4531 65.0156 89.2656C65.25 89.0781 65.4271 88.776 65.5469 88.3594ZM65.6719 86.1406C65.6562 85.5052 65.4922 85.0234 65.1797 84.6953C64.8672 84.362 64.487 84.1953 64.0391 84.1953C63.5599 84.1953 63.1641 84.3698 62.8516 84.7188C62.5391 85.0677 62.3854 85.5417 62.3906 86.1406H65.6719ZM77.2578 91H75.2188V89.7812C74.8802 90.2552 74.4792 90.6094 74.0156 90.8438C73.5573 91.0729 73.0938 91.1875 72.625 91.1875C71.6719 91.1875 70.8542 90.8047 70.1719 90.0391C69.4948 89.2682 69.1562 88.1953 69.1562 86.8203C69.1562 85.4141 69.487 84.3464 70.1484 83.6172C70.8099 82.8828 71.6458 82.5156 72.6562 82.5156C73.5833 82.5156 74.3854 82.901 75.0625 83.6719V79.5469H77.2578V91ZM71.3984 86.6719C71.3984 87.5573 71.5208 88.1979 71.7656 88.5938C72.1198 89.1667 72.6146 89.4531 73.25 89.4531C73.7552 89.4531 74.1849 89.2396 74.5391 88.8125C74.8932 88.3802 75.0703 87.737 75.0703 86.8828C75.0703 85.9297 74.8984 85.2448 74.5547 84.8281C74.2109 84.4062 73.7708 84.1953 73.2344 84.1953C72.7135 84.1953 72.276 84.4036 71.9219 84.8203C71.5729 85.2318 71.3984 85.849 71.3984 86.6719Z" fill="#3E3E3D"/>
<g opacity="0.5">
<path d="M0 109.5H579.5" stroke="#CDCCCB"/>
</g>
<rect width="579.5" height="49" transform="translate(0 110)" fill="white"/>
<path d="M17.1719 140V128.547H19.4844V133.055H24.0156V128.547H26.3281V140H24.0156V134.992H19.4844V140H17.1719ZM28.2031 135.734C28.2031 135.005 28.3828 134.299 28.7422 133.617C29.1016 132.935 29.6094 132.414 30.2656 132.055C30.9271 131.695 31.6641 131.516 32.4766 131.516C33.7318 131.516 34.7604 131.924 35.5625 132.742C36.3646 133.555 36.7656 134.583 36.7656 135.828C36.7656 137.083 36.3594 138.125 35.5469 138.953C34.7396 139.776 33.7214 140.188 32.4922 140.188C31.7318 140.188 31.0052 140.016 30.3125 139.672C29.625 139.328 29.1016 138.826 28.7422 138.164C28.3828 137.497 28.2031 136.688 28.2031 135.734ZM30.4531 135.852C30.4531 136.674 30.6484 137.305 31.0391 137.742C31.4297 138.18 31.9115 138.398 32.4844 138.398C33.0573 138.398 33.5365 138.18 33.9219 137.742C34.3125 137.305 34.5078 136.669 34.5078 135.836C34.5078 135.023 34.3125 134.398 33.9219 133.961C33.5365 133.523 33.0573 133.305 32.4844 133.305C31.9115 133.305 31.4297 133.523 31.0391 133.961C30.6484 134.398 30.4531 135.029 30.4531 135.852ZM40.7734 140L37.4297 131.703H39.7344L41.2969 135.938L41.75 137.352C41.8698 136.992 41.9453 136.755 41.9766 136.641C42.0495 136.406 42.1276 136.172 42.2109 135.938L43.7891 131.703H46.0469L42.75 140H40.7734ZM52.2031 137.359L54.3906 137.727C54.1094 138.529 53.6641 139.141 53.0547 139.562C52.4505 139.979 51.6927 140.188 50.7812 140.188C49.3385 140.188 48.2708 139.716 47.5781 138.773C47.0312 138.018 46.7578 137.065 46.7578 135.914C46.7578 134.539 47.1172 133.464 47.8359 132.688C48.5547 131.906 49.4635 131.516 50.5625 131.516C51.7969 131.516 52.7708 131.924 53.4844 132.742C54.1979 133.555 54.5391 134.802 54.5078 136.484H49.0078C49.0234 137.135 49.2005 137.643 49.5391 138.008C49.8776 138.367 50.2995 138.547 50.8047 138.547C51.1484 138.547 51.4375 138.453 51.6719 138.266C51.9062 138.078 52.0833 137.776 52.2031 137.359ZM52.3281 135.141C52.3125 134.505 52.1484 134.023 51.8359 133.695C51.5234 133.362 51.1432 133.195 50.6953 133.195C50.2161 133.195 49.8203 133.37 49.5078 133.719C49.1953 134.068 49.0417 134.542 49.0469 135.141H52.3281ZM58.4062 140H56.2109V131.703H58.25V132.883C58.599 132.326 58.9115 131.958 59.1875 131.781C59.4688 131.604 59.7865 131.516 60.1406 131.516C60.6406 131.516 61.1224 131.654 61.5859 131.93L60.9062 133.844C60.5365 133.604 60.1927 133.484 59.875 133.484C59.5677 133.484 59.3073 133.57 59.0938 133.742C58.8802 133.909 58.7109 134.214 58.5859 134.656C58.4661 135.099 58.4062 136.026 58.4062 137.438V140Z" fill="#3E3E3D"/>
<g opacity="0.5">
<path d="M0 158.5H579.5" stroke="#CDCCCB"/>
</g>
<rect width="579.5" height="49" transform="translate(0 159)" fill="white"/>
<path d="M17.1562 177.547H21.3828C22.3359 177.547 23.0625 177.62 23.5625 177.766C24.2344 177.964 24.8099 178.315 25.2891 178.82C25.7682 179.326 26.1328 179.945 26.3828 180.68C26.6328 181.409 26.7578 182.31 26.7578 183.383C26.7578 184.326 26.6406 185.138 26.4062 185.82C26.1198 186.654 25.7109 187.328 25.1797 187.844C24.7786 188.234 24.237 188.539 23.5547 188.758C23.0443 188.919 22.362 189 21.5078 189H17.1562V177.547ZM19.4688 179.484V187.07H21.1953C21.8411 187.07 22.3073 187.034 22.5938 186.961C22.9688 186.867 23.2786 186.708 23.5234 186.484C23.7734 186.26 23.9766 185.893 24.1328 185.383C24.2891 184.867 24.3672 184.167 24.3672 183.281C24.3672 182.396 24.2891 181.716 24.1328 181.242C23.9766 180.768 23.7578 180.398 23.4766 180.133C23.1953 179.867 22.8385 179.688 22.4062 179.594C22.0833 179.521 21.4505 179.484 20.5078 179.484H19.4688ZM28.7109 179.578V177.547H30.9062V179.578H28.7109ZM28.7109 189V180.703H30.9062V189H28.7109ZM32.3906 186.633L34.5938 186.297C34.6875 186.724 34.8776 187.049 35.1641 187.273C35.4505 187.492 35.8516 187.602 36.3672 187.602C36.9349 187.602 37.362 187.497 37.6484 187.289C37.8411 187.143 37.9375 186.948 37.9375 186.703C37.9375 186.536 37.8854 186.398 37.7812 186.289C37.6719 186.185 37.4271 186.089 37.0469 186C35.276 185.609 34.1536 185.253 33.6797 184.93C33.0234 184.482 32.6953 183.859 32.6953 183.062C32.6953 182.344 32.9792 181.74 33.5469 181.25C34.1146 180.76 34.9948 180.516 36.1875 180.516C37.3229 180.516 38.1667 180.701 38.7188 181.07C39.2708 181.44 39.651 181.987 39.8594 182.711L37.7891 183.094C37.7005 182.771 37.5312 182.523 37.2812 182.352C37.0365 182.18 36.6849 182.094 36.2266 182.094C35.6484 182.094 35.2344 182.174 34.9844 182.336C34.8177 182.451 34.7344 182.599 34.7344 182.781C34.7344 182.938 34.8073 183.07 34.9531 183.18C35.151 183.326 35.8333 183.531 37 183.797C38.1719 184.062 38.9896 184.388 39.4531 184.773C39.9115 185.164 40.1406 185.708 40.1406 186.406C40.1406 187.167 39.8229 187.82 39.1875 188.367C38.5521 188.914 37.612 189.188 36.3672 189.188C35.237 189.188 34.3411 188.958 33.6797 188.5C33.0234 188.042 32.5938 187.419 32.3906 186.633ZM43.7109 183.234L41.7188 182.875C41.9427 182.073 42.3281 181.479 42.875 181.094C43.4219 180.708 44.2344 180.516 45.3125 180.516C46.2917 180.516 47.0208 180.633 47.5 180.867C47.9792 181.096 48.3151 181.391 48.5078 181.75C48.7057 182.104 48.8047 182.758 48.8047 183.711L48.7812 186.273C48.7812 187.003 48.8151 187.542 48.8828 187.891C48.9557 188.234 49.0885 188.604 49.2812 189H47.1094C47.0521 188.854 46.9818 188.638 46.8984 188.352C46.862 188.221 46.8359 188.135 46.8203 188.094C46.4453 188.458 46.0443 188.732 45.6172 188.914C45.1901 189.096 44.7344 189.188 44.25 189.188C43.3958 189.188 42.7214 188.956 42.2266 188.492C41.737 188.029 41.4922 187.443 41.4922 186.734C41.4922 186.266 41.6042 185.849 41.8281 185.484C42.0521 185.115 42.3646 184.833 42.7656 184.641C43.1719 184.443 43.7552 184.271 44.5156 184.125C45.5417 183.932 46.2526 183.753 46.6484 183.586V183.367C46.6484 182.945 46.5443 182.646 46.3359 182.469C46.1276 182.286 45.7344 182.195 45.1562 182.195C44.7656 182.195 44.4609 182.273 44.2422 182.43C44.0234 182.581 43.8464 182.849 43.7109 183.234ZM46.6484 185.016C46.3672 185.109 45.9219 185.221 45.3125 185.352C44.7031 185.482 44.3047 185.609 44.1172 185.734C43.8307 185.938 43.6875 186.195 43.6875 186.508C43.6875 186.815 43.8021 187.081 44.0312 187.305C44.2604 187.529 44.5521 187.641 44.9062 187.641C45.3021 187.641 45.6797 187.51 46.0391 187.25C46.3047 187.052 46.4792 186.81 46.5625 186.523C46.6198 186.336 46.6484 185.979 46.6484 185.453V185.016ZM50.8828 189V177.547H53.0781V181.672C53.7552 180.901 54.5573 180.516 55.4844 180.516C56.4948 180.516 57.3307 180.883 57.9922 181.617C58.6536 182.346 58.9844 183.396 58.9844 184.766C58.9844 186.182 58.6458 187.273 57.9688 188.039C57.2969 188.805 56.4792 189.188 55.5156 189.188C55.0417 189.188 54.5729 189.07 54.1094 188.836C53.651 188.596 53.2552 188.245 52.9219 187.781V189H50.8828ZM53.0625 184.672C53.0625 185.531 53.1979 186.167 53.4688 186.578C53.849 187.161 54.3542 187.453 54.9844 187.453C55.4688 187.453 55.8802 187.247 56.2188 186.836C56.5625 186.419 56.7344 185.766 56.7344 184.875C56.7344 183.927 56.5625 183.245 56.2188 182.828C55.875 182.406 55.4349 182.195 54.8984 182.195C54.3724 182.195 53.9349 182.401 53.5859 182.812C53.237 183.219 53.0625 183.839 53.0625 184.672ZM60.7578 189V177.547H62.9531V189H60.7578ZM70.0156 186.359L72.2031 186.727C71.9219 187.529 71.4766 188.141 70.8672 188.562C70.263 188.979 69.5052 189.188 68.5938 189.188C67.151 189.188 66.0833 188.716 65.3906 187.773C64.8438 187.018 64.5703 186.065 64.5703 184.914C64.5703 183.539 64.9297 182.464 65.6484 181.688C66.3672 180.906 67.276 180.516 68.375 180.516C69.6094 180.516 70.5833 180.924 71.2969 181.742C72.0104 182.555 72.3516 183.802 72.3203 185.484H66.8203C66.8359 186.135 67.013 186.643 67.3516 187.008C67.6901 187.367 68.112 187.547 68.6172 187.547C68.9609 187.547 69.25 187.453 69.4844 187.266C69.7188 187.078 69.8958 186.776 70.0156 186.359ZM70.1406 184.141C70.125 183.505 69.9609 183.023 69.6484 182.695C69.3359 182.362 68.9557 182.195 68.5078 182.195C68.0286 182.195 67.6328 182.37 67.3203 182.719C67.0078 183.068 66.8542 183.542 66.8594 184.141H70.1406ZM81.7266 189H79.6875V187.781C79.349 188.255 78.9479 188.609 78.4844 188.844C78.026 189.073 77.5625 189.188 77.0938 189.188C76.1406 189.188 75.3229 188.805 74.6406 188.039C73.9635 187.268 73.625 186.195 73.625 184.82C73.625 183.414 73.9557 182.346 74.6172 181.617C75.2786 180.883 76.1146 180.516 77.125 180.516C78.0521 180.516 78.8542 180.901 79.5312 181.672V177.547H81.7266V189ZM75.8672 184.672C75.8672 185.557 75.9896 186.198 76.2344 186.594C76.5885 187.167 77.0833 187.453 77.7188 187.453C78.224 187.453 78.6536 187.24 79.0078 186.812C79.362 186.38 79.5391 185.737 79.5391 184.883C79.5391 183.93 79.3672 183.245 79.0234 182.828C78.6797 182.406 78.2396 182.195 77.7031 182.195C77.1823 182.195 76.7448 182.404 76.3906 182.82C76.0417 183.232 75.8672 183.849 75.8672 184.672Z" fill="#3E3E3D"/>
<g opacity="0.5">
<path d="M0 207.5H579.5" stroke="#CDCCCB"/>
</g>
<rect width="579.5" height="61" transform="translate(579.5)" fill="white"/>
<path d="M598.18 37.14C597.847 37.14 597.587 37.0467 597.4 36.86C597.227 36.6733 597.14 36.4133 597.14 36.08V23.96C597.14 23.6133 597.233 23.3533 597.42 23.18C597.607 22.9933 597.867 22.9 598.2 22.9H602.98C604.5 22.9 605.673 23.28 606.5 24.04C607.327 24.7867 607.74 25.84 607.74 27.2C607.74 28.5733 607.327 29.64 606.5 30.4C605.673 31.1467 604.5 31.52 602.98 31.52H599.22V36.08C599.22 36.4133 599.133 36.6733 598.96 36.86C598.787 37.0467 598.527 37.14 598.18 37.14ZM599.22 29.86H602.68C603.68 29.86 604.433 29.64 604.94 29.2C605.46 28.7467 605.72 28.08 605.72 27.2C605.72 26.3333 605.46 25.68 604.94 25.24C604.433 24.7867 603.68 24.56 602.68 24.56H599.22V29.86ZM612.595 37.18C611.809 37.18 611.149 37.0333 610.615 36.74C610.095 36.4467 609.702 36.0133 609.435 35.44C609.182 34.8533 609.055 34.12 609.055 33.24V28.12C609.055 27.7733 609.142 27.52 609.315 27.36C609.489 27.1867 609.735 27.1 610.055 27.1C610.375 27.1 610.622 27.1867 610.795 27.36C610.982 27.52 611.075 27.7733 611.075 28.12V33.26C611.075 34.0467 611.235 34.6267 611.555 35C611.875 35.3733 612.382 35.56 613.075 35.56C613.835 35.56 614.449 35.3067 614.915 34.8C615.395 34.28 615.635 33.6 615.635 32.76V28.12C615.635 27.7733 615.722 27.52 615.895 27.36C616.069 27.1867 616.322 27.1 616.655 27.1C616.975 27.1 617.222 27.1867 617.395 27.36C617.569 27.52 617.655 27.7733 617.655 28.12V36.12C617.655 36.8 617.329 37.14 616.675 37.14C616.369 37.14 616.129 37.0533 615.955 36.88C615.782 36.6933 615.695 36.44 615.695 36.12V34.42L615.955 34.86C615.689 35.6067 615.262 36.18 614.675 36.58C614.089 36.98 613.395 37.18 612.595 37.18ZM621.022 37.14C620.689 37.14 620.435 37.0533 620.262 36.88C620.089 36.6933 620.002 36.44 620.002 36.12V28.12C620.002 27.7867 620.089 27.5333 620.262 27.36C620.435 27.1867 620.675 27.1 620.982 27.1C621.302 27.1 621.542 27.1867 621.702 27.36C621.875 27.5333 621.962 27.7867 621.962 28.12V29.58H621.762C621.975 28.78 622.369 28.1733 622.942 27.76C623.515 27.3467 624.249 27.1067 625.142 27.04C625.382 27.0267 625.569 27.0867 625.702 27.22C625.849 27.3533 625.929 27.56 625.942 27.84C625.969 28.12 625.909 28.3467 625.762 28.52C625.615 28.68 625.389 28.7733 625.082 28.8L624.702 28.84C623.835 28.92 623.175 29.1933 622.722 29.66C622.269 30.1267 622.042 30.7667 622.042 31.58V36.12C622.042 36.44 621.955 36.6933 621.782 36.88C621.622 37.0533 621.369 37.14 621.022 37.14ZM627.963 40.74C627.643 40.74 627.396 40.6533 627.223 40.48C627.05 40.3067 626.963 40.0533 626.963 39.72V28.12C626.963 27.7867 627.05 27.5333 627.223 27.36C627.396 27.1867 627.636 27.1 627.943 27.1C628.263 27.1 628.51 27.1867 628.683 27.36C628.856 27.5333 628.943 27.7867 628.943 28.12V29.86L628.723 29.44C628.936 28.72 629.356 28.1467 629.983 27.72C630.61 27.28 631.35 27.06 632.203 27.06C633.07 27.06 633.823 27.2667 634.463 27.68C635.116 28.0933 635.616 28.6733 635.963 29.42C636.323 30.1667 636.503 31.0667 636.503 32.12C636.503 33.1467 636.323 34.0467 635.963 34.82C635.616 35.58 635.123 36.1667 634.483 36.58C633.843 36.98 633.083 37.18 632.203 37.18C631.363 37.18 630.63 36.9667 630.003 36.54C629.376 36.1133 628.956 35.5467 628.743 34.84H628.983V39.72C628.983 40.0533 628.89 40.3067 628.703 40.48C628.53 40.6533 628.283 40.74 627.963 40.74ZM631.703 35.62C632.263 35.62 632.75 35.4867 633.163 35.22C633.576 34.9533 633.896 34.56 634.123 34.04C634.35 33.52 634.463 32.88 634.463 32.12C634.463 30.9733 634.21 30.1067 633.703 29.52C633.21 28.9333 632.543 28.64 631.703 28.64C631.156 28.64 630.67 28.7733 630.243 29.04C629.83 29.2933 629.51 29.68 629.283 30.2C629.056 30.72 628.943 31.36 628.943 32.12C628.943 33.2533 629.196 34.12 629.703 34.72C630.21 35.32 630.876 35.62 631.703 35.62ZM642.519 37.18C641.533 37.18 640.679 36.9733 639.959 36.56C639.253 36.1467 638.699 35.56 638.299 34.8C637.899 34.04 637.699 33.1467 637.699 32.12C637.699 31.3333 637.813 30.6333 638.039 30.02C638.266 29.4067 638.586 28.88 638.999 28.44C639.426 27.9867 639.933 27.6467 640.519 27.42C641.119 27.18 641.786 27.06 642.519 27.06C643.493 27.06 644.333 27.2667 645.039 27.68C645.759 28.0933 646.319 28.68 646.719 29.44C647.119 30.1867 647.319 31.08 647.319 32.12C647.319 32.8933 647.206 33.5933 646.979 34.22C646.753 34.8467 646.426 35.38 645.999 35.82C645.586 36.26 645.079 36.6 644.479 36.84C643.893 37.0667 643.239 37.18 642.519 37.18ZM642.519 35.62C643.066 35.62 643.546 35.4867 643.959 35.22C644.373 34.9533 644.693 34.56 644.919 34.04C645.159 33.52 645.279 32.88 645.279 32.12C645.279 30.9733 645.026 30.1067 644.519 29.52C644.013 28.9333 643.346 28.64 642.519 28.64C641.959 28.64 641.473 28.7733 641.059 29.04C640.646 29.2933 640.319 29.68 640.079 30.2C639.853 30.72 639.739 31.36 639.739 32.12C639.739 33.2533 639.993 34.12 640.499 34.72C641.006 35.32 641.679 35.62 642.519 35.62ZM652.508 37.18C651.921 37.18 651.315 37.1133 650.688 36.98C650.075 36.8467 649.508 36.62 648.988 36.3C648.815 36.18 648.695 36.0467 648.628 35.9C648.561 35.7533 648.535 35.6067 648.548 35.46C648.575 35.3 648.635 35.1667 648.728 35.06C648.835 34.94 648.961 34.8667 649.108 34.84C649.268 34.8133 649.435 34.8467 649.608 34.94C650.128 35.2333 650.628 35.44 651.108 35.56C651.588 35.6667 652.061 35.72 652.528 35.72C653.235 35.72 653.768 35.5933 654.128 35.34C654.488 35.0867 654.668 34.7467 654.668 34.32C654.668 33.9733 654.548 33.7067 654.308 33.52C654.068 33.32 653.708 33.1667 653.228 33.06L651.328 32.68C650.501 32.5067 649.875 32.2 649.448 31.76C649.021 31.32 648.808 30.76 648.808 30.08C648.808 29.4667 648.975 28.9333 649.308 28.48C649.641 28.0267 650.108 27.68 650.708 27.44C651.308 27.1867 652.001 27.06 652.788 27.06C653.375 27.06 653.928 27.1333 654.448 27.28C654.968 27.4267 655.448 27.6467 655.888 27.94C656.061 28.0333 656.175 28.16 656.228 28.32C656.281 28.4667 656.288 28.6133 656.248 28.76C656.221 28.9067 656.155 29.04 656.048 29.16C655.941 29.2667 655.808 29.3333 655.648 29.36C655.501 29.3733 655.335 29.3333 655.148 29.24C654.748 28.9867 654.348 28.8067 653.948 28.7C653.561 28.5933 653.175 28.54 652.788 28.54C652.081 28.54 651.548 28.6733 651.188 28.94C650.841 29.1933 650.668 29.54 650.668 29.98C650.668 30.3133 650.775 30.5867 650.988 30.8C651.201 31.0133 651.535 31.1667 651.988 31.26L653.888 31.64C654.755 31.8133 655.408 32.1067 655.848 32.52C656.301 32.9333 656.528 33.4933 656.528 34.2C656.528 35.12 656.161 35.8467 655.428 36.38C654.695 36.9133 653.721 37.18 652.508 37.18ZM662.855 37.18C661.789 37.18 660.869 36.98 660.095 36.58C659.335 36.1667 658.742 35.5867 658.315 34.84C657.902 34.08 657.695 33.18 657.695 32.14C657.695 31.1267 657.902 30.24 658.315 29.48C658.729 28.72 659.295 28.1267 660.015 27.7C660.735 27.2733 661.555 27.06 662.475 27.06C663.155 27.06 663.762 27.1733 664.295 27.4C664.829 27.6133 665.282 27.9333 665.655 28.36C666.042 28.7733 666.329 29.28 666.515 29.88C666.715 30.48 666.815 31.1533 666.815 31.9C666.815 32.1267 666.749 32.3 666.615 32.42C666.482 32.5267 666.282 32.58 666.015 32.58H659.295V31.34H665.455L665.115 31.62C665.115 30.9533 665.015 30.3867 664.815 29.92C664.629 29.4533 664.342 29.1 663.955 28.86C663.582 28.6067 663.115 28.48 662.555 28.48C661.929 28.48 661.395 28.6267 660.955 28.92C660.529 29.2133 660.202 29.62 659.975 30.14C659.749 30.66 659.635 31.2667 659.635 31.96V32.08C659.635 33.2533 659.909 34.14 660.455 34.74C661.015 35.3267 661.822 35.62 662.875 35.62C663.275 35.62 663.695 35.5667 664.135 35.46C664.589 35.3533 665.015 35.1733 665.415 34.92C665.642 34.7867 665.842 34.7267 666.015 34.74C666.202 34.7533 666.349 34.8133 666.455 34.92C666.575 35.0267 666.649 35.16 666.675 35.32C666.702 35.48 666.675 35.6467 666.595 35.82C666.515 35.98 666.375 36.1267 666.175 36.26C665.722 36.5667 665.195 36.8 664.595 36.96C663.995 37.1067 663.415 37.18 662.855 37.18Z" fill="#201F1F"/>
<path d="M579.5 60.5H1159" stroke="#CDCCCB"/>
<rect width="579.5" height="49" transform="translate(579.5 61)" fill="white"/>
<path d="M609.359 86.9844L610.875 87.3672C610.557 88.612 609.984 89.5625 609.156 90.2188C608.333 90.8698 607.326 91.1953 606.133 91.1953C604.898 91.1953 603.893 90.9453 603.117 90.4453C602.346 89.9401 601.758 89.2109 601.352 88.2578C600.951 87.3047 600.75 86.2812 600.75 85.1875C600.75 83.9948 600.977 82.9557 601.43 82.0703C601.888 81.1797 602.536 80.5052 603.375 80.0469C604.219 79.5833 605.146 79.3516 606.156 79.3516C607.302 79.3516 608.266 79.6432 609.047 80.2266C609.828 80.8099 610.372 81.6302 610.68 82.6875L609.188 83.0391C608.922 82.2057 608.536 81.599 608.031 81.2188C607.526 80.8385 606.891 80.6484 606.125 80.6484C605.245 80.6484 604.508 80.8594 603.914 81.2812C603.326 81.7031 602.911 82.2708 602.672 82.9844C602.432 83.6927 602.312 84.4245 602.312 85.1797C602.312 86.1536 602.453 87.0052 602.734 87.7344C603.021 88.4583 603.464 89 604.062 89.3594C604.661 89.7188 605.31 89.8984 606.008 89.8984C606.857 89.8984 607.576 89.6536 608.164 89.1641C608.753 88.6745 609.151 87.9479 609.359 86.9844ZM612.57 91V79.5469H613.977V83.6562C614.633 82.8958 615.461 82.5156 616.461 82.5156C617.076 82.5156 617.609 82.638 618.062 82.8828C618.516 83.1224 618.839 83.4557 619.031 83.8828C619.229 84.3099 619.328 84.9297 619.328 85.7422V91H617.922V85.7422C617.922 85.0391 617.768 84.5286 617.461 84.2109C617.159 83.888 616.729 83.7266 616.172 83.7266C615.755 83.7266 615.362 83.8359 614.992 84.0547C614.628 84.2682 614.367 84.5599 614.211 84.9297C614.055 85.2995 613.977 85.8099 613.977 86.4609V91H612.57ZM621.484 81.1641V79.5469H622.891V81.1641H621.484ZM621.484 91V82.7031H622.891V91H621.484ZM625.039 94.1797V82.7031H626.32V83.7812C626.622 83.3594 626.964 83.0443 627.344 82.8359C627.724 82.6224 628.185 82.5156 628.727 82.5156C629.435 82.5156 630.06 82.6979 630.602 83.0625C631.143 83.4271 631.552 83.9427 631.828 84.6094C632.104 85.2708 632.242 85.9974 632.242 86.7891C632.242 87.638 632.089 88.4036 631.781 89.0859C631.479 89.763 631.036 90.2839 630.453 90.6484C629.875 91.0078 629.266 91.1875 628.625 91.1875C628.156 91.1875 627.734 91.0885 627.359 90.8906C626.99 90.6927 626.685 90.4427 626.445 90.1406V94.1797H625.039ZM626.312 86.8984C626.312 87.9661 626.529 88.7552 626.961 89.2656C627.393 89.776 627.917 90.0312 628.531 90.0312C629.156 90.0312 629.69 89.7682 630.133 89.2422C630.581 88.7109 630.805 87.8906 630.805 86.7812C630.805 85.724 630.586 84.9323 630.148 84.4062C629.716 83.8802 629.198 83.6172 628.594 83.6172C627.995 83.6172 627.464 83.8984 627 84.4609C626.542 85.0182 626.312 85.8307 626.312 86.8984ZM643.812 87.9609L645.195 88.1406C645.044 89.0938 644.656 89.8411 644.031 90.3828C643.411 90.9193 642.648 91.1875 641.742 91.1875C640.607 91.1875 639.693 90.8177 639 90.0781C638.312 89.3333 637.969 88.2682 637.969 86.8828C637.969 85.987 638.117 85.2031 638.414 84.5312C638.711 83.8594 639.161 83.3568 639.766 83.0234C640.375 82.6849 641.036 82.5156 641.75 82.5156C642.651 82.5156 643.388 82.7448 643.961 83.2031C644.534 83.6562 644.901 84.3021 645.062 85.1406L643.695 85.3516C643.565 84.7943 643.333 84.375 643 84.0938C642.672 83.8125 642.273 83.6719 641.805 83.6719C641.096 83.6719 640.521 83.9271 640.078 84.4375C639.635 84.9427 639.414 85.7448 639.414 86.8438C639.414 87.9583 639.628 88.7682 640.055 89.2734C640.482 89.7786 641.039 90.0312 641.727 90.0312C642.279 90.0312 642.74 89.862 643.109 89.5234C643.479 89.1849 643.714 88.6641 643.812 87.9609ZM646.367 91V79.5469H647.773V91H646.367ZM649.969 81.1641V79.5469H651.375V81.1641H649.969ZM649.969 91V82.7031H651.375V91H649.969ZM658.812 94.1797V90.1172C658.594 90.4245 658.286 90.6797 657.891 90.8828C657.5 91.0859 657.083 91.1875 656.641 91.1875C655.656 91.1875 654.807 90.7943 654.094 90.0078C653.385 89.2214 653.031 88.1432 653.031 86.7734C653.031 85.9401 653.174 85.1927 653.461 84.5312C653.753 83.8698 654.172 83.3698 654.719 83.0312C655.271 82.6875 655.875 82.5156 656.531 82.5156C657.557 82.5156 658.365 82.9479 658.953 83.8125V82.7031H660.219V94.1797H658.812ZM654.477 86.8281C654.477 87.8958 654.701 88.6979 655.148 89.2344C655.596 89.7656 656.133 90.0312 656.758 90.0312C657.357 90.0312 657.872 89.7786 658.305 89.2734C658.737 88.763 658.953 87.9896 658.953 86.9531C658.953 85.849 658.724 85.0182 658.266 84.4609C657.812 83.9036 657.279 83.625 656.664 83.625C656.055 83.625 655.536 83.8854 655.109 84.4062C654.688 84.9219 654.477 85.7292 654.477 86.8281ZM667.867 91V89.7812C667.221 90.7188 666.344 91.1875 665.234 91.1875C664.745 91.1875 664.286 91.0938 663.859 90.9062C663.438 90.7188 663.122 90.4844 662.914 90.2031C662.711 89.9167 662.568 89.5677 662.484 89.1562C662.427 88.8802 662.398 88.4427 662.398 87.8438V82.7031H663.805V87.3047C663.805 88.0391 663.833 88.5339 663.891 88.7891C663.979 89.1589 664.167 89.4505 664.453 89.6641C664.74 89.8724 665.094 89.9766 665.516 89.9766C665.938 89.9766 666.333 89.8698 666.703 89.6562C667.073 89.4375 667.333 89.1432 667.484 88.7734C667.641 88.3984 667.719 87.8568 667.719 87.1484V82.7031H669.125V91H667.867ZM676.75 89.9766C676.229 90.4193 675.727 90.7318 675.242 90.9141C674.763 91.0964 674.247 91.1875 673.695 91.1875C672.784 91.1875 672.083 90.9661 671.594 90.5234C671.104 90.0755 670.859 89.5052 670.859 88.8125C670.859 88.4062 670.951 88.0365 671.133 87.7031C671.32 87.3646 671.562 87.0938 671.859 86.8906C672.161 86.6875 672.5 86.5339 672.875 86.4297C673.151 86.3568 673.568 86.2865 674.125 86.2188C675.26 86.0833 676.096 85.9219 676.633 85.7344C676.638 85.5417 676.641 85.4193 676.641 85.3672C676.641 84.7943 676.508 84.3906 676.242 84.1562C675.883 83.8385 675.349 83.6797 674.641 83.6797C673.979 83.6797 673.49 83.7969 673.172 84.0312C672.859 84.2604 672.628 84.6693 672.477 85.2578L671.102 85.0703C671.227 84.4818 671.432 84.0078 671.719 83.6484C672.005 83.2839 672.419 83.0052 672.961 82.8125C673.503 82.6146 674.13 82.5156 674.844 82.5156C675.552 82.5156 676.128 82.599 676.57 82.7656C677.013 82.9323 677.339 83.1432 677.547 83.3984C677.755 83.6484 677.901 83.9661 677.984 84.3516C678.031 84.5911 678.055 85.0234 678.055 85.6484V87.5234C678.055 88.8307 678.083 89.6589 678.141 90.0078C678.203 90.3516 678.323 90.6823 678.5 91H677.031C676.885 90.7083 676.792 90.3672 676.75 89.9766ZM676.633 86.8359C676.122 87.0443 675.357 87.2214 674.336 87.3672C673.758 87.4505 673.349 87.5443 673.109 87.6484C672.87 87.7526 672.685 87.9062 672.555 88.1094C672.424 88.3073 672.359 88.5286 672.359 88.7734C672.359 89.1484 672.5 89.4609 672.781 89.7109C673.068 89.9609 673.484 90.0859 674.031 90.0859C674.573 90.0859 675.055 89.9688 675.477 89.7344C675.898 89.4948 676.208 89.1693 676.406 88.7578C676.557 88.4401 676.633 87.9714 676.633 87.3516V86.8359ZM681.539 91H680.234V79.5469H681.641V83.6328C682.234 82.888 682.992 82.5156 683.914 82.5156C684.424 82.5156 684.906 82.6198 685.359 82.8281C685.818 83.0312 686.193 83.3203 686.484 83.6953C686.781 84.0651 687.013 84.513 687.18 85.0391C687.346 85.5651 687.43 86.1276 687.43 86.7266C687.43 88.1484 687.078 89.2474 686.375 90.0234C685.672 90.7995 684.828 91.1875 683.844 91.1875C682.865 91.1875 682.096 90.7786 681.539 89.9609V91ZM681.523 86.7891C681.523 87.7839 681.659 88.5026 681.93 88.9453C682.372 89.6693 682.971 90.0312 683.727 90.0312C684.341 90.0312 684.872 89.7656 685.32 89.2344C685.768 88.6979 685.992 87.901 685.992 86.8438C685.992 85.7604 685.776 84.9609 685.344 84.4453C684.917 83.9297 684.398 83.6719 683.789 83.6719C683.174 83.6719 682.643 83.9401 682.195 84.4766C681.747 85.0078 681.523 85.7786 681.523 86.7891ZM689.117 91V79.5469H690.523V91H689.117ZM698.391 88.3281L699.844 88.5078C699.615 89.3568 699.19 90.0156 698.57 90.4844C697.951 90.9531 697.159 91.1875 696.195 91.1875C694.982 91.1875 694.018 90.8151 693.305 90.0703C692.596 89.3203 692.242 88.2708 692.242 86.9219C692.242 85.526 692.602 84.4427 693.32 83.6719C694.039 82.901 694.971 82.5156 696.117 82.5156C697.227 82.5156 698.133 82.8932 698.836 83.6484C699.539 84.4036 699.891 85.4661 699.891 86.8359C699.891 86.9193 699.888 87.0443 699.883 87.2109H693.695C693.747 88.1224 694.005 88.8203 694.469 89.3047C694.932 89.7891 695.51 90.0312 696.203 90.0312C696.719 90.0312 697.159 89.8958 697.523 89.625C697.888 89.3542 698.177 88.9219 698.391 88.3281ZM693.773 86.0547H698.406C698.344 85.3568 698.167 84.8333 697.875 84.4844C697.427 83.9427 696.846 83.6719 696.133 83.6719C695.487 83.6719 694.943 83.888 694.5 84.3203C694.062 84.7526 693.82 85.3307 693.773 86.0547Z" fill="#3E3E3D"/>
<g opacity="0.5">
<path d="M579.5 109.5H1159" stroke="#CDCCCB"/>
</g>
<rect width="579.5" height="49" transform="translate(579.5 110)" fill="white"/>
<path d="M609.359 135.984L610.875 136.367C610.557 137.612 609.984 138.562 609.156 139.219C608.333 139.87 607.326 140.195 606.133 140.195C604.898 140.195 603.893 139.945 603.117 139.445C602.346 138.94 601.758 138.211 601.352 137.258C600.951 136.305 600.75 135.281 600.75 134.188C600.75 132.995 600.977 131.956 601.43 131.07C601.888 130.18 602.536 129.505 603.375 129.047C604.219 128.583 605.146 128.352 606.156 128.352C607.302 128.352 608.266 128.643 609.047 129.227C609.828 129.81 610.372 130.63 610.68 131.688L609.188 132.039C608.922 131.206 608.536 130.599 608.031 130.219C607.526 129.839 606.891 129.648 606.125 129.648C605.245 129.648 604.508 129.859 603.914 130.281C603.326 130.703 602.911 131.271 602.672 131.984C602.432 132.693 602.312 133.424 602.312 134.18C602.312 135.154 602.453 136.005 602.734 136.734C603.021 137.458 603.464 138 604.062 138.359C604.661 138.719 605.31 138.898 606.008 138.898C606.857 138.898 607.576 138.654 608.164 138.164C608.753 137.674 609.151 136.948 609.359 135.984ZM612.57 140V128.547H613.977V132.656C614.633 131.896 615.461 131.516 616.461 131.516C617.076 131.516 617.609 131.638 618.062 131.883C618.516 132.122 618.839 132.456 619.031 132.883C619.229 133.31 619.328 133.93 619.328 134.742V140H617.922V134.742C617.922 134.039 617.768 133.529 617.461 133.211C617.159 132.888 616.729 132.727 616.172 132.727C615.755 132.727 615.362 132.836 614.992 133.055C614.628 133.268 614.367 133.56 614.211 133.93C614.055 134.299 613.977 134.81 613.977 135.461V140H612.57ZM621.484 130.164V128.547H622.891V130.164H621.484ZM621.484 140V131.703H622.891V140H621.484ZM625.039 143.18V131.703H626.32V132.781C626.622 132.359 626.964 132.044 627.344 131.836C627.724 131.622 628.185 131.516 628.727 131.516C629.435 131.516 630.06 131.698 630.602 132.062C631.143 132.427 631.552 132.943 631.828 133.609C632.104 134.271 632.242 134.997 632.242 135.789C632.242 136.638 632.089 137.404 631.781 138.086C631.479 138.763 631.036 139.284 630.453 139.648C629.875 140.008 629.266 140.188 628.625 140.188C628.156 140.188 627.734 140.089 627.359 139.891C626.99 139.693 626.685 139.443 626.445 139.141V143.18H625.039ZM626.312 135.898C626.312 136.966 626.529 137.755 626.961 138.266C627.393 138.776 627.917 139.031 628.531 139.031C629.156 139.031 629.69 138.768 630.133 138.242C630.581 137.711 630.805 136.891 630.805 135.781C630.805 134.724 630.586 133.932 630.148 133.406C629.716 132.88 629.198 132.617 628.594 132.617C627.995 132.617 627.464 132.898 627 133.461C626.542 134.018 626.312 134.831 626.312 135.898ZM637.836 137.523L639.227 137.305C639.305 137.862 639.521 138.289 639.875 138.586C640.234 138.883 640.734 139.031 641.375 139.031C642.021 139.031 642.5 138.901 642.812 138.641C643.125 138.375 643.281 138.065 643.281 137.711C643.281 137.393 643.143 137.143 642.867 136.961C642.674 136.836 642.195 136.677 641.43 136.484C640.398 136.224 639.682 136 639.281 135.812C638.885 135.62 638.583 135.357 638.375 135.023C638.172 134.685 638.07 134.312 638.07 133.906C638.07 133.536 638.154 133.195 638.32 132.883C638.492 132.565 638.724 132.302 639.016 132.094C639.234 131.932 639.531 131.797 639.906 131.688C640.286 131.573 640.693 131.516 641.125 131.516C641.776 131.516 642.346 131.609 642.836 131.797C643.331 131.984 643.695 132.24 643.93 132.562C644.164 132.88 644.326 133.307 644.414 133.844L643.039 134.031C642.977 133.604 642.794 133.271 642.492 133.031C642.195 132.792 641.773 132.672 641.227 132.672C640.581 132.672 640.12 132.779 639.844 132.992C639.568 133.206 639.43 133.456 639.43 133.742C639.43 133.924 639.487 134.089 639.602 134.234C639.716 134.385 639.896 134.51 640.141 134.609C640.281 134.661 640.695 134.781 641.383 134.969C642.378 135.234 643.07 135.453 643.461 135.625C643.857 135.792 644.167 136.036 644.391 136.359C644.615 136.682 644.727 137.083 644.727 137.562C644.727 138.031 644.589 138.474 644.312 138.891C644.042 139.302 643.648 139.622 643.133 139.852C642.617 140.076 642.034 140.188 641.383 140.188C640.305 140.188 639.482 139.964 638.914 139.516C638.352 139.068 637.992 138.404 637.836 137.523ZM651.836 140V138.781C651.19 139.719 650.312 140.188 649.203 140.188C648.714 140.188 648.255 140.094 647.828 139.906C647.406 139.719 647.091 139.484 646.883 139.203C646.68 138.917 646.536 138.568 646.453 138.156C646.396 137.88 646.367 137.443 646.367 136.844V131.703H647.773V136.305C647.773 137.039 647.802 137.534 647.859 137.789C647.948 138.159 648.135 138.451 648.422 138.664C648.708 138.872 649.062 138.977 649.484 138.977C649.906 138.977 650.302 138.87 650.672 138.656C651.042 138.438 651.302 138.143 651.453 137.773C651.609 137.398 651.688 136.857 651.688 136.148V131.703H653.094V140H651.836ZM655.289 140V131.703H656.555V132.961C656.878 132.372 657.174 131.984 657.445 131.797C657.721 131.609 658.023 131.516 658.352 131.516C658.826 131.516 659.307 131.667 659.797 131.969L659.312 133.273C658.969 133.07 658.625 132.969 658.281 132.969C657.974 132.969 657.698 133.062 657.453 133.25C657.208 133.432 657.034 133.688 656.93 134.016C656.773 134.516 656.695 135.062 656.695 135.656V140H655.289ZM662.938 140L659.781 131.703H661.266L663.047 136.672C663.24 137.208 663.417 137.766 663.578 138.344C663.703 137.906 663.878 137.38 664.102 136.766L665.945 131.703H667.391L664.25 140H662.938ZM668.109 135.852C668.109 134.315 668.536 133.177 669.391 132.438C670.104 131.823 670.974 131.516 672 131.516C673.141 131.516 674.073 131.891 674.797 132.641C675.521 133.385 675.883 134.417 675.883 135.734C675.883 136.802 675.721 137.643 675.398 138.258C675.081 138.867 674.615 139.341 674 139.68C673.391 140.018 672.724 140.188 672 140.188C670.839 140.188 669.898 139.815 669.18 139.07C668.466 138.326 668.109 137.253 668.109 135.852ZM669.555 135.852C669.555 136.914 669.786 137.711 670.25 138.242C670.714 138.768 671.297 139.031 672 139.031C672.698 139.031 673.279 138.766 673.742 138.234C674.206 137.703 674.438 136.893 674.438 135.805C674.438 134.779 674.203 134.003 673.734 133.477C673.271 132.945 672.693 132.68 672 132.68C671.297 132.68 670.714 132.943 670.25 133.469C669.786 133.995 669.555 134.789 669.555 135.852ZM677.508 140V128.547H678.914V140H677.508ZM686.781 137.328L688.234 137.508C688.005 138.357 687.581 139.016 686.961 139.484C686.341 139.953 685.549 140.188 684.586 140.188C683.372 140.188 682.409 139.815 681.695 139.07C680.987 138.32 680.633 137.271 680.633 135.922C680.633 134.526 680.992 133.443 681.711 132.672C682.43 131.901 683.362 131.516 684.508 131.516C685.617 131.516 686.523 131.893 687.227 132.648C687.93 133.404 688.281 134.466 688.281 135.836C688.281 135.919 688.279 136.044 688.273 136.211H682.086C682.138 137.122 682.396 137.82 682.859 138.305C683.323 138.789 683.901 139.031 684.594 139.031C685.109 139.031 685.549 138.896 685.914 138.625C686.279 138.354 686.568 137.922 686.781 137.328ZM682.164 135.055H686.797C686.734 134.357 686.557 133.833 686.266 133.484C685.818 132.943 685.237 132.672 684.523 132.672C683.878 132.672 683.333 132.888 682.891 133.32C682.453 133.753 682.211 134.331 682.164 135.055ZM683.68 130.672L684.719 128.484H686.562L684.844 130.672H683.68ZM695.688 137.328L697.141 137.508C696.911 138.357 696.487 139.016 695.867 139.484C695.247 139.953 694.456 140.188 693.492 140.188C692.279 140.188 691.315 139.815 690.602 139.07C689.893 138.32 689.539 137.271 689.539 135.922C689.539 134.526 689.898 133.443 690.617 132.672C691.336 131.901 692.268 131.516 693.414 131.516C694.523 131.516 695.43 131.893 696.133 132.648C696.836 133.404 697.188 134.466 697.188 135.836C697.188 135.919 697.185 136.044 697.18 136.211H690.992C691.044 137.122 691.302 137.82 691.766 138.305C692.229 138.789 692.807 139.031 693.5 139.031C694.016 139.031 694.456 138.896 694.82 138.625C695.185 138.354 695.474 137.922 695.688 137.328ZM691.07 135.055H695.703C695.641 134.357 695.464 133.833 695.172 133.484C694.724 132.943 694.143 132.672 693.43 132.672C692.784 132.672 692.24 132.888 691.797 133.32C691.359 133.753 691.117 134.331 691.07 135.055Z" fill="#3E3E3D"/>
<g opacity="0.5">
<path d="M579.5 158.5H1159" stroke="#CDCCCB"/>
</g>
<rect width="579.5" height="49" transform="translate(579.5 159)" fill="white"/>
<path d="M609.359 184.984L610.875 185.367C610.557 186.612 609.984 187.562 609.156 188.219C608.333 188.87 607.326 189.195 606.133 189.195C604.898 189.195 603.893 188.945 603.117 188.445C602.346 187.94 601.758 187.211 601.352 186.258C600.951 185.305 600.75 184.281 600.75 183.188C600.75 181.995 600.977 180.956 601.43 180.07C601.888 179.18 602.536 178.505 603.375 178.047C604.219 177.583 605.146 177.352 606.156 177.352C607.302 177.352 608.266 177.643 609.047 178.227C609.828 178.81 610.372 179.63 610.68 180.688L609.188 181.039C608.922 180.206 608.536 179.599 608.031 179.219C607.526 178.839 606.891 178.648 606.125 178.648C605.245 178.648 604.508 178.859 603.914 179.281C603.326 179.703 602.911 180.271 602.672 180.984C602.432 181.693 602.312 182.424 602.312 183.18C602.312 184.154 602.453 185.005 602.734 185.734C603.021 186.458 603.464 187 604.062 187.359C604.661 187.719 605.31 187.898 606.008 187.898C606.857 187.898 607.576 187.654 608.164 187.164C608.753 186.674 609.151 185.948 609.359 184.984ZM612.57 189V177.547H613.977V181.656C614.633 180.896 615.461 180.516 616.461 180.516C617.076 180.516 617.609 180.638 618.062 180.883C618.516 181.122 618.839 181.456 619.031 181.883C619.229 182.31 619.328 182.93 619.328 183.742V189H617.922V183.742C617.922 183.039 617.768 182.529 617.461 182.211C617.159 181.888 616.729 181.727 616.172 181.727C615.755 181.727 615.362 181.836 614.992 182.055C614.628 182.268 614.367 182.56 614.211 182.93C614.055 183.299 613.977 183.81 613.977 184.461V189H612.57ZM621.484 179.164V177.547H622.891V179.164H621.484ZM621.484 189V180.703H622.891V189H621.484ZM625.039 192.18V180.703H626.32V181.781C626.622 181.359 626.964 181.044 627.344 180.836C627.724 180.622 628.185 180.516 628.727 180.516C629.435 180.516 630.06 180.698 630.602 181.062C631.143 181.427 631.552 181.943 631.828 182.609C632.104 183.271 632.242 183.997 632.242 184.789C632.242 185.638 632.089 186.404 631.781 187.086C631.479 187.763 631.036 188.284 630.453 188.648C629.875 189.008 629.266 189.188 628.625 189.188C628.156 189.188 627.734 189.089 627.359 188.891C626.99 188.693 626.685 188.443 626.445 188.141V192.18H625.039ZM626.312 184.898C626.312 185.966 626.529 186.755 626.961 187.266C627.393 187.776 627.917 188.031 628.531 188.031C629.156 188.031 629.69 187.768 630.133 187.242C630.581 186.711 630.805 185.891 630.805 184.781C630.805 183.724 630.586 182.932 630.148 182.406C629.716 181.88 629.198 181.617 628.594 181.617C627.995 181.617 627.464 181.898 627 182.461C626.542 183.018 626.312 183.831 626.312 184.898ZM643.781 189V187.953C643.255 188.776 642.482 189.188 641.461 189.188C640.799 189.188 640.19 189.005 639.633 188.641C639.081 188.276 638.651 187.768 638.344 187.117C638.042 186.461 637.891 185.708 637.891 184.859C637.891 184.031 638.029 183.281 638.305 182.609C638.581 181.932 638.995 181.414 639.547 181.055C640.099 180.695 640.716 180.516 641.398 180.516C641.898 180.516 642.344 180.622 642.734 180.836C643.125 181.044 643.443 181.318 643.688 181.656V177.547H645.086V189H643.781ZM639.336 184.859C639.336 185.922 639.56 186.716 640.008 187.242C640.456 187.768 640.984 188.031 641.594 188.031C642.208 188.031 642.729 187.781 643.156 187.281C643.589 186.776 643.805 186.008 643.805 184.977C643.805 183.841 643.586 183.008 643.148 182.477C642.711 181.945 642.172 181.68 641.531 181.68C640.906 181.68 640.383 181.935 639.961 182.445C639.544 182.956 639.336 183.76 639.336 184.859ZM652.984 186.328L654.438 186.508C654.208 187.357 653.784 188.016 653.164 188.484C652.544 188.953 651.753 189.188 650.789 189.188C649.576 189.188 648.612 188.815 647.898 188.07C647.19 187.32 646.836 186.271 646.836 184.922C646.836 183.526 647.195 182.443 647.914 181.672C648.633 180.901 649.565 180.516 650.711 180.516C651.82 180.516 652.727 180.893 653.43 181.648C654.133 182.404 654.484 183.466 654.484 184.836C654.484 184.919 654.482 185.044 654.477 185.211H648.289C648.341 186.122 648.599 186.82 649.062 187.305C649.526 187.789 650.104 188.031 650.797 188.031C651.312 188.031 651.753 187.896 652.117 187.625C652.482 187.354 652.771 186.922 652.984 186.328ZM648.367 184.055H653C652.938 183.357 652.76 182.833 652.469 182.484C652.021 181.943 651.44 181.672 650.727 181.672C650.081 181.672 649.536 181.888 649.094 182.32C648.656 182.753 648.414 183.331 648.367 184.055ZM649.883 179.672L650.922 177.484H652.766L651.047 179.672H649.883ZM655.648 186.523L657.039 186.305C657.117 186.862 657.333 187.289 657.688 187.586C658.047 187.883 658.547 188.031 659.188 188.031C659.833 188.031 660.312 187.901 660.625 187.641C660.938 187.375 661.094 187.065 661.094 186.711C661.094 186.393 660.956 186.143 660.68 185.961C660.487 185.836 660.008 185.677 659.242 185.484C658.211 185.224 657.495 185 657.094 184.812C656.698 184.62 656.396 184.357 656.188 184.023C655.984 183.685 655.883 183.312 655.883 182.906C655.883 182.536 655.966 182.195 656.133 181.883C656.305 181.565 656.536 181.302 656.828 181.094C657.047 180.932 657.344 180.797 657.719 180.688C658.099 180.573 658.505 180.516 658.938 180.516C659.589 180.516 660.159 180.609 660.648 180.797C661.143 180.984 661.508 181.24 661.742 181.562C661.977 181.88 662.138 182.307 662.227 182.844L660.852 183.031C660.789 182.604 660.607 182.271 660.305 182.031C660.008 181.792 659.586 181.672 659.039 181.672C658.393 181.672 657.932 181.779 657.656 181.992C657.38 182.206 657.242 182.456 657.242 182.742C657.242 182.924 657.299 183.089 657.414 183.234C657.529 183.385 657.708 183.51 657.953 183.609C658.094 183.661 658.508 183.781 659.195 183.969C660.19 184.234 660.883 184.453 661.273 184.625C661.669 184.792 661.979 185.036 662.203 185.359C662.427 185.682 662.539 186.083 662.539 186.562C662.539 187.031 662.401 187.474 662.125 187.891C661.854 188.302 661.461 188.622 660.945 188.852C660.43 189.076 659.846 189.188 659.195 189.188C658.117 189.188 657.294 188.964 656.727 188.516C656.164 188.068 655.805 187.404 655.648 186.523ZM669.625 187.977C669.104 188.419 668.602 188.732 668.117 188.914C667.638 189.096 667.122 189.188 666.57 189.188C665.659 189.188 664.958 188.966 664.469 188.523C663.979 188.076 663.734 187.505 663.734 186.812C663.734 186.406 663.826 186.036 664.008 185.703C664.195 185.365 664.438 185.094 664.734 184.891C665.036 184.688 665.375 184.534 665.75 184.43C666.026 184.357 666.443 184.286 667 184.219C668.135 184.083 668.971 183.922 669.508 183.734C669.513 183.542 669.516 183.419 669.516 183.367C669.516 182.794 669.383 182.391 669.117 182.156C668.758 181.839 668.224 181.68 667.516 181.68C666.854 181.68 666.365 181.797 666.047 182.031C665.734 182.26 665.503 182.669 665.352 183.258L663.977 183.07C664.102 182.482 664.307 182.008 664.594 181.648C664.88 181.284 665.294 181.005 665.836 180.812C666.378 180.615 667.005 180.516 667.719 180.516C668.427 180.516 669.003 180.599 669.445 180.766C669.888 180.932 670.214 181.143 670.422 181.398C670.63 181.648 670.776 181.966 670.859 182.352C670.906 182.591 670.93 183.023 670.93 183.648V185.523C670.93 186.831 670.958 187.659 671.016 188.008C671.078 188.352 671.198 188.682 671.375 189H669.906C669.76 188.708 669.667 188.367 669.625 187.977ZM669.508 184.836C668.997 185.044 668.232 185.221 667.211 185.367C666.633 185.451 666.224 185.544 665.984 185.648C665.745 185.753 665.56 185.906 665.43 186.109C665.299 186.307 665.234 186.529 665.234 186.773C665.234 187.148 665.375 187.461 665.656 187.711C665.943 187.961 666.359 188.086 666.906 188.086C667.448 188.086 667.93 187.969 668.352 187.734C668.773 187.495 669.083 187.169 669.281 186.758C669.432 186.44 669.508 185.971 669.508 185.352V184.836ZM678.531 185.961L679.914 186.141C679.763 187.094 679.375 187.841 678.75 188.383C678.13 188.919 677.367 189.188 676.461 189.188C675.326 189.188 674.411 188.818 673.719 188.078C673.031 187.333 672.688 186.268 672.688 184.883C672.688 183.987 672.836 183.203 673.133 182.531C673.43 181.859 673.88 181.357 674.484 181.023C675.094 180.685 675.755 180.516 676.469 180.516C677.37 180.516 678.107 180.745 678.68 181.203C679.253 181.656 679.62 182.302 679.781 183.141L678.414 183.352C678.284 182.794 678.052 182.375 677.719 182.094C677.391 181.812 676.992 181.672 676.523 181.672C675.815 181.672 675.24 181.927 674.797 182.438C674.354 182.943 674.133 183.745 674.133 184.844C674.133 185.958 674.346 186.768 674.773 187.273C675.201 187.779 675.758 188.031 676.445 188.031C676.997 188.031 677.458 187.862 677.828 187.523C678.198 187.185 678.432 186.664 678.531 185.961ZM684.188 187.742L684.391 188.984C683.995 189.068 683.641 189.109 683.328 189.109C682.818 189.109 682.422 189.029 682.141 188.867C681.859 188.706 681.661 188.495 681.547 188.234C681.432 187.969 681.375 187.414 681.375 186.57V181.797H680.344V180.703H681.375V178.648L682.773 177.805V180.703H684.188V181.797H682.773V186.648C682.773 187.049 682.797 187.307 682.844 187.422C682.896 187.536 682.977 187.628 683.086 187.695C683.201 187.763 683.362 187.797 683.57 187.797C683.727 187.797 683.932 187.779 684.188 187.742ZM685.578 179.164V177.547H686.984V179.164H685.578ZM685.578 189V180.703H686.984V189H685.578ZM691.438 189L688.281 180.703H689.766L691.547 185.672C691.74 186.208 691.917 186.766 692.078 187.344C692.203 186.906 692.378 186.38 692.602 185.766L694.445 180.703H695.891L692.75 189H691.438ZM702.812 186.328L704.266 186.508C704.036 187.357 703.612 188.016 702.992 188.484C702.372 188.953 701.581 189.188 700.617 189.188C699.404 189.188 698.44 188.815 697.727 188.07C697.018 187.32 696.664 186.271 696.664 184.922C696.664 183.526 697.023 182.443 697.742 181.672C698.461 180.901 699.393 180.516 700.539 180.516C701.648 180.516 702.555 180.893 703.258 181.648C703.961 182.404 704.312 183.466 704.312 184.836C704.312 184.919 704.31 185.044 704.305 185.211H698.117C698.169 186.122 698.427 186.82 698.891 187.305C699.354 187.789 699.932 188.031 700.625 188.031C701.141 188.031 701.581 187.896 701.945 187.625C702.31 187.354 702.599 186.922 702.812 186.328ZM698.195 184.055H702.828C702.766 183.357 702.589 182.833 702.297 182.484C701.849 181.943 701.268 181.672 700.555 181.672C699.909 181.672 699.365 181.888 698.922 182.32C698.484 182.753 698.242 183.331 698.195 184.055ZM699.711 179.672L700.75 177.484H702.594L700.875 179.672H699.711ZM711.719 186.328L713.172 186.508C712.943 187.357 712.518 188.016 711.898 188.484C711.279 188.953 710.487 189.188 709.523 189.188C708.31 189.188 707.346 188.815 706.633 188.07C705.924 187.32 705.57 186.271 705.57 184.922C705.57 183.526 705.93 182.443 706.648 181.672C707.367 180.901 708.299 180.516 709.445 180.516C710.555 180.516 711.461 180.893 712.164 181.648C712.867 182.404 713.219 183.466 713.219 184.836C713.219 184.919 713.216 185.044 713.211 185.211H707.023C707.076 186.122 707.333 186.82 707.797 187.305C708.26 187.789 708.839 188.031 709.531 188.031C710.047 188.031 710.487 187.896 710.852 187.625C711.216 187.354 711.505 186.922 711.719 186.328ZM707.102 184.055H711.734C711.672 183.357 711.495 182.833 711.203 182.484C710.755 181.943 710.174 181.672 709.461 181.672C708.815 181.672 708.271 181.888 707.828 182.32C707.391 182.753 707.148 183.331 707.102 184.055ZM725.078 186.328L726.531 186.508C726.302 187.357 725.878 188.016 725.258 188.484C724.638 188.953 723.846 189.188 722.883 189.188C721.669 189.188 720.706 188.815 719.992 188.07C719.284 187.32 718.93 186.271 718.93 184.922C718.93 183.526 719.289 182.443 720.008 181.672C720.727 180.901 721.659 180.516 722.805 180.516C723.914 180.516 724.82 180.893 725.523 181.648C726.227 182.404 726.578 183.466 726.578 184.836C726.578 184.919 726.576 185.044 726.57 185.211H720.383C720.435 186.122 720.693 186.82 721.156 187.305C721.62 187.789 722.198 188.031 722.891 188.031C723.406 188.031 723.846 187.896 724.211 187.625C724.576 187.354 724.865 186.922 725.078 186.328ZM720.461 184.055H725.094C725.031 183.357 724.854 182.833 724.562 182.484C724.115 181.943 723.534 181.672 722.82 181.672C722.174 181.672 721.63 181.888 721.188 182.32C720.75 182.753 720.508 183.331 720.461 184.055ZM731.375 187.742L731.578 188.984C731.182 189.068 730.828 189.109 730.516 189.109C730.005 189.109 729.609 189.029 729.328 188.867C729.047 188.706 728.849 188.495 728.734 188.234C728.62 187.969 728.562 187.414 728.562 186.57V181.797H727.531V180.703H728.562V178.648L729.961 177.805V180.703H731.375V181.797H729.961V186.648C729.961 187.049 729.984 187.307 730.031 187.422C730.083 187.536 730.164 187.628 730.273 187.695C730.388 187.763 730.549 187.797 730.758 187.797C730.914 187.797 731.12 187.779 731.375 187.742ZM737.211 189V180.703H738.477V181.883C739.086 180.971 739.966 180.516 741.117 180.516C741.617 180.516 742.076 180.607 742.492 180.789C742.914 180.966 743.229 181.201 743.438 181.492C743.646 181.784 743.792 182.13 743.875 182.531C743.927 182.792 743.953 183.247 743.953 183.898V189H742.547V183.953C742.547 183.38 742.492 182.953 742.383 182.672C742.273 182.385 742.078 182.159 741.797 181.992C741.521 181.82 741.195 181.734 740.82 181.734C740.221 181.734 739.703 181.924 739.266 182.305C738.833 182.685 738.617 183.406 738.617 184.469V189H737.211ZM745.594 184.852C745.594 183.315 746.021 182.177 746.875 181.438C747.589 180.823 748.458 180.516 749.484 180.516C750.625 180.516 751.557 180.891 752.281 181.641C753.005 182.385 753.367 183.417 753.367 184.734C753.367 185.802 753.206 186.643 752.883 187.258C752.565 187.867 752.099 188.341 751.484 188.68C750.875 189.018 750.208 189.188 749.484 189.188C748.323 189.188 747.383 188.815 746.664 188.07C745.951 187.326 745.594 186.253 745.594 184.852ZM747.039 184.852C747.039 185.914 747.271 186.711 747.734 187.242C748.198 187.768 748.781 188.031 749.484 188.031C750.182 188.031 750.763 187.766 751.227 187.234C751.69 186.703 751.922 185.893 751.922 184.805C751.922 183.779 751.688 183.003 751.219 182.477C750.755 181.945 750.177 181.68 749.484 181.68C748.781 181.68 748.198 181.943 747.734 182.469C747.271 182.995 747.039 183.789 747.039 184.852ZM755.023 189V180.703H756.289V181.883C756.898 180.971 757.779 180.516 758.93 180.516C759.43 180.516 759.888 180.607 760.305 180.789C760.727 180.966 761.042 181.201 761.25 181.492C761.458 181.784 761.604 182.13 761.688 182.531C761.74 182.792 761.766 183.247 761.766 183.898V189H760.359V183.953C760.359 183.38 760.305 182.953 760.195 182.672C760.086 182.385 759.891 182.159 759.609 181.992C759.333 181.82 759.008 181.734 758.633 181.734C758.034 181.734 757.516 181.924 757.078 182.305C756.646 182.685 756.43 183.406 756.43 184.469V189H755.023ZM773.797 185.961L775.18 186.141C775.029 187.094 774.641 187.841 774.016 188.383C773.396 188.919 772.633 189.188 771.727 189.188C770.591 189.188 769.677 188.818 768.984 188.078C768.297 187.333 767.953 186.268 767.953 184.883C767.953 183.987 768.102 183.203 768.398 182.531C768.695 181.859 769.146 181.357 769.75 181.023C770.359 180.685 771.021 180.516 771.734 180.516C772.635 180.516 773.372 180.745 773.945 181.203C774.518 181.656 774.885 182.302 775.047 183.141L773.68 183.352C773.549 182.794 773.318 182.375 772.984 182.094C772.656 181.812 772.258 181.672 771.789 181.672C771.081 181.672 770.505 181.927 770.062 182.438C769.62 182.943 769.398 183.745 769.398 184.844C769.398 185.958 769.612 186.768 770.039 187.273C770.466 187.779 771.023 188.031 771.711 188.031C772.263 188.031 772.724 187.862 773.094 187.523C773.464 187.185 773.698 186.664 773.797 185.961ZM776.352 189V177.547H777.758V189H776.352ZM779.953 179.164V177.547H781.359V179.164H779.953ZM779.953 189V180.703H781.359V189H779.953ZM788.797 192.18V188.117C788.578 188.424 788.271 188.68 787.875 188.883C787.484 189.086 787.068 189.188 786.625 189.188C785.641 189.188 784.792 188.794 784.078 188.008C783.37 187.221 783.016 186.143 783.016 184.773C783.016 183.94 783.159 183.193 783.445 182.531C783.737 181.87 784.156 181.37 784.703 181.031C785.255 180.688 785.859 180.516 786.516 180.516C787.542 180.516 788.349 180.948 788.938 181.812V180.703H790.203V192.18H788.797ZM784.461 184.828C784.461 185.896 784.685 186.698 785.133 187.234C785.581 187.766 786.117 188.031 786.742 188.031C787.341 188.031 787.857 187.779 788.289 187.273C788.721 186.763 788.938 185.99 788.938 184.953C788.938 183.849 788.708 183.018 788.25 182.461C787.797 181.904 787.263 181.625 786.648 181.625C786.039 181.625 785.521 181.885 785.094 182.406C784.672 182.922 784.461 183.729 784.461 184.828ZM797.852 189V187.781C797.206 188.719 796.328 189.188 795.219 189.188C794.729 189.188 794.271 189.094 793.844 188.906C793.422 188.719 793.107 188.484 792.898 188.203C792.695 187.917 792.552 187.568 792.469 187.156C792.411 186.88 792.383 186.443 792.383 185.844V180.703H793.789V185.305C793.789 186.039 793.818 186.534 793.875 186.789C793.964 187.159 794.151 187.451 794.438 187.664C794.724 187.872 795.078 187.977 795.5 187.977C795.922 187.977 796.318 187.87 796.688 187.656C797.057 187.438 797.318 187.143 797.469 186.773C797.625 186.398 797.703 185.857 797.703 185.148V180.703H799.109V189H797.852ZM806.734 187.977C806.214 188.419 805.711 188.732 805.227 188.914C804.747 189.096 804.232 189.188 803.68 189.188C802.768 189.188 802.068 188.966 801.578 188.523C801.089 188.076 800.844 187.505 800.844 186.812C800.844 186.406 800.935 186.036 801.117 185.703C801.305 185.365 801.547 185.094 801.844 184.891C802.146 184.688 802.484 184.534 802.859 184.43C803.135 184.357 803.552 184.286 804.109 184.219C805.245 184.083 806.081 183.922 806.617 183.734C806.622 183.542 806.625 183.419 806.625 183.367C806.625 182.794 806.492 182.391 806.227 182.156C805.867 181.839 805.333 181.68 804.625 181.68C803.964 181.68 803.474 181.797 803.156 182.031C802.844 182.26 802.612 182.669 802.461 183.258L801.086 183.07C801.211 182.482 801.417 182.008 801.703 181.648C801.99 181.284 802.404 181.005 802.945 180.812C803.487 180.615 804.115 180.516 804.828 180.516C805.536 180.516 806.112 180.599 806.555 180.766C806.997 180.932 807.323 181.143 807.531 181.398C807.74 181.648 807.885 181.966 807.969 182.352C808.016 182.591 808.039 183.023 808.039 183.648V185.523C808.039 186.831 808.068 187.659 808.125 188.008C808.188 188.352 808.307 188.682 808.484 189H807.016C806.87 188.708 806.776 188.367 806.734 187.977ZM806.617 184.836C806.107 185.044 805.341 185.221 804.32 185.367C803.742 185.451 803.333 185.544 803.094 185.648C802.854 185.753 802.669 185.906 802.539 186.109C802.409 186.307 802.344 186.529 802.344 186.773C802.344 187.148 802.484 187.461 802.766 187.711C803.052 187.961 803.469 188.086 804.016 188.086C804.557 188.086 805.039 187.969 805.461 187.734C805.883 187.495 806.193 187.169 806.391 186.758C806.542 186.44 806.617 185.971 806.617 185.352V184.836ZM811.523 189H810.219V177.547H811.625V181.633C812.219 180.888 812.977 180.516 813.898 180.516C814.409 180.516 814.891 180.62 815.344 180.828C815.802 181.031 816.177 181.32 816.469 181.695C816.766 182.065 816.997 182.513 817.164 183.039C817.331 183.565 817.414 184.128 817.414 184.727C817.414 186.148 817.062 187.247 816.359 188.023C815.656 188.799 814.812 189.188 813.828 189.188C812.849 189.188 812.081 188.779 811.523 187.961V189ZM811.508 184.789C811.508 185.784 811.643 186.503 811.914 186.945C812.357 187.669 812.956 188.031 813.711 188.031C814.326 188.031 814.857 187.766 815.305 187.234C815.753 186.698 815.977 185.901 815.977 184.844C815.977 183.76 815.76 182.961 815.328 182.445C814.901 181.93 814.383 181.672 813.773 181.672C813.159 181.672 812.628 181.94 812.18 182.477C811.732 183.008 811.508 183.779 811.508 184.789ZM819.102 189V177.547H820.508V189H819.102ZM828.375 186.328L829.828 186.508C829.599 187.357 829.174 188.016 828.555 188.484C827.935 188.953 827.143 189.188 826.18 189.188C824.966 189.188 824.003 188.815 823.289 188.07C822.581 187.32 822.227 186.271 822.227 184.922C822.227 183.526 822.586 182.443 823.305 181.672C824.023 180.901 824.956 180.516 826.102 180.516C827.211 180.516 828.117 180.893 828.82 181.648C829.523 182.404 829.875 183.466 829.875 184.836C829.875 184.919 829.872 185.044 829.867 185.211H823.68C823.732 186.122 823.99 186.82 824.453 187.305C824.917 187.789 825.495 188.031 826.188 188.031C826.703 188.031 827.143 187.896 827.508 187.625C827.872 187.354 828.161 186.922 828.375 186.328ZM823.758 184.055H828.391C828.328 183.357 828.151 182.833 827.859 182.484C827.411 181.943 826.831 181.672 826.117 181.672C825.471 181.672 824.927 181.888 824.484 182.32C824.047 182.753 823.805 183.331 823.758 184.055Z" fill="#3E3E3D"/>
<g opacity="0.5">
<path d="M579.5 207.5H1159" stroke="#CDCCCB"/>
</g>
</g>
<rect x="0.5" y="0.5" width="1158" height="207" rx="7.5" stroke="#CDCCCB"/>
<defs>
<clipPath id="clip0_240_28617">
<rect width="1159" height="208" rx="8" fill="white"/>
</clipPath>
</defs>
</svg>
