<svg width="256" height="140" viewBox="0 0 256 140" fill="none" xmlns="http://www.w3.org/2000/svg">
<g clip-path="url(#clip0_299_41470)">
<rect width="256" height="140" fill="white"/>
<path d="M82 70C82 63.3726 87.3726 58 94 58H110C116.627 58 122 63.3726 122 70C122 76.6274 116.627 82 110 82H94C87.3726 82 82 76.6274 82 70Z" fill="#2964A0"/>
<circle cx="110" cy="70" r="8" fill="white"/>
<path d="M108.668 71.0659L112.602 67.1326C112.724 67.0103 112.88 66.9492 113.068 66.9492C113.257 66.9492 113.413 67.0103 113.535 67.1326C113.657 67.2548 113.718 67.4103 113.718 67.5992C113.718 67.7881 113.657 67.9437 113.535 68.0659L109.135 72.4659C109.002 72.5992 108.846 72.6659 108.668 72.6659C108.491 72.6659 108.335 72.5992 108.202 72.4659L106.468 70.7326C106.346 70.6103 106.285 70.4548 106.285 70.2659C106.285 70.077 106.346 69.9214 106.468 69.7992C106.591 69.677 106.746 69.6159 106.935 69.6159C107.124 69.6159 107.28 69.677 107.402 69.7992L108.668 71.0659Z" fill="#2964A0"/>
<path d="M135.172 76V64.5469H136.688V74.6484H142.328V76H135.172ZM149.375 74.9766C148.854 75.4193 148.352 75.7318 147.867 75.9141C147.388 76.0964 146.872 76.1875 146.32 76.1875C145.409 76.1875 144.708 75.9661 144.219 75.5234C143.729 75.0755 143.484 74.5052 143.484 73.8125C143.484 73.4062 143.576 73.0365 143.758 72.7031C143.945 72.3646 144.188 72.0938 144.484 71.8906C144.786 71.6875 145.125 71.5339 145.5 71.4297C145.776 71.3568 146.193 71.2865 146.75 71.2188C147.885 71.0833 148.721 70.9219 149.258 70.7344C149.263 70.5417 149.266 70.4193 149.266 70.3672C149.266 69.7943 149.133 69.3906 148.867 69.1562C148.508 68.8385 147.974 68.6797 147.266 68.6797C146.604 68.6797 146.115 68.7969 145.797 69.0312C145.484 69.2604 145.253 69.6693 145.102 70.2578L143.727 70.0703C143.852 69.4818 144.057 69.0078 144.344 68.6484C144.63 68.2839 145.044 68.0052 145.586 67.8125C146.128 67.6146 146.755 67.5156 147.469 67.5156C148.177 67.5156 148.753 67.599 149.195 67.7656C149.638 67.9323 149.964 68.1432 150.172 68.3984C150.38 68.6484 150.526 68.9661 150.609 69.3516C150.656 69.5911 150.68 70.0234 150.68 70.6484V72.5234C150.68 73.8307 150.708 74.6589 150.766 75.0078C150.828 75.3516 150.948 75.6823 151.125 76H149.656C149.51 75.7083 149.417 75.3672 149.375 74.9766ZM149.258 71.8359C148.747 72.0443 147.982 72.2214 146.961 72.3672C146.383 72.4505 145.974 72.5443 145.734 72.6484C145.495 72.7526 145.31 72.9062 145.18 73.1094C145.049 73.3073 144.984 73.5286 144.984 73.7734C144.984 74.1484 145.125 74.4609 145.406 74.7109C145.693 74.9609 146.109 75.0859 146.656 75.0859C147.198 75.0859 147.68 74.9688 148.102 74.7344C148.523 74.4948 148.833 74.1693 149.031 73.7578C149.182 73.4401 149.258 72.9714 149.258 72.3516V71.8359ZM154.164 76H152.859V64.5469H154.266V68.6328C154.859 67.888 155.617 67.5156 156.539 67.5156C157.049 67.5156 157.531 67.6198 157.984 67.8281C158.443 68.0312 158.818 68.3203 159.109 68.6953C159.406 69.0651 159.638 69.513 159.805 70.0391C159.971 70.5651 160.055 71.1276 160.055 71.7266C160.055 73.1484 159.703 74.2474 159 75.0234C158.297 75.7995 157.453 76.1875 156.469 76.1875C155.49 76.1875 154.721 75.7786 154.164 74.9609V76ZM154.148 71.7891C154.148 72.7839 154.284 73.5026 154.555 73.9453C154.997 74.6693 155.596 75.0312 156.352 75.0312C156.966 75.0312 157.497 74.7656 157.945 74.2344C158.393 73.6979 158.617 72.901 158.617 71.8438C158.617 70.7604 158.401 69.9609 157.969 69.4453C157.542 68.9297 157.023 68.6719 156.414 68.6719C155.799 68.6719 155.268 68.9401 154.82 69.4766C154.372 70.0078 154.148 70.7786 154.148 71.7891ZM167.453 73.3281L168.906 73.5078C168.677 74.3568 168.253 75.0156 167.633 75.4844C167.013 75.9531 166.221 76.1875 165.258 76.1875C164.044 76.1875 163.081 75.8151 162.367 75.0703C161.659 74.3203 161.305 73.2708 161.305 71.9219C161.305 70.526 161.664 69.4427 162.383 68.6719C163.102 67.901 164.034 67.5156 165.18 67.5156C166.289 67.5156 167.195 67.8932 167.898 68.6484C168.602 69.4036 168.953 70.4661 168.953 71.8359C168.953 71.9193 168.951 72.0443 168.945 72.2109H162.758C162.81 73.1224 163.068 73.8203 163.531 74.3047C163.995 74.7891 164.573 75.0312 165.266 75.0312C165.781 75.0312 166.221 74.8958 166.586 74.625C166.951 74.3542 167.24 73.9219 167.453 73.3281ZM162.836 71.0547H167.469C167.406 70.3568 167.229 69.8333 166.938 69.4844C166.49 68.9427 165.909 68.6719 165.195 68.6719C164.549 68.6719 164.005 68.888 163.562 69.3203C163.125 69.7526 162.883 70.3307 162.836 71.0547ZM170.648 76V64.5469H172.055V76H170.648Z" fill="#201F1F"/>
<path d="M48.1 77C47.82 77 47.6 76.92 47.44 76.76C47.28 76.6 47.2 76.3867 47.2 76.12C47.2 75.84 47.28 75.6267 47.44 75.48C47.6 75.3333 47.82 75.26 48.1 75.26H50.54V64.62H51.58L48.66 66.48C48.4467 66.6 48.2467 66.6467 48.06 66.62C47.8867 66.5933 47.7333 66.52 47.6 66.4C47.48 66.28 47.3933 66.1333 47.34 65.96C47.3 65.7867 47.3133 65.6067 47.38 65.42C47.46 65.2333 47.6 65.08 47.8 64.96L50.56 63.22C50.7867 63.0867 51 62.98 51.2 62.9C51.4133 62.8067 51.6133 62.76 51.8 62.76C52.0267 62.76 52.2133 62.8267 52.36 62.96C52.52 63.08 52.6 63.2867 52.6 63.58V75.26H54.84C55.1333 75.26 55.36 75.3333 55.52 75.48C55.68 75.6267 55.76 75.84 55.76 76.12C55.76 76.4 55.68 76.62 55.52 76.78C55.36 76.9267 55.1333 77 54.84 77H48.1ZM58.8922 77.08C58.5055 77.08 58.1922 76.96 57.9522 76.72C57.7122 76.48 57.5922 76.1733 57.5922 75.8C57.5922 75.4267 57.7122 75.1267 57.9522 74.9C58.1922 74.66 58.5055 74.54 58.8922 74.54C59.2789 74.54 59.5855 74.66 59.8122 74.9C60.0389 75.1267 60.1522 75.4267 60.1522 75.8C60.1522 76.1733 60.0389 76.48 59.8122 76.72C59.5855 76.96 59.2789 77.08 58.8922 77.08Z" fill="#737272"/>
<path d="M81.6667 69.5C81.6667 68.0272 80.4728 66.8333 79 66.8333C77.5272 66.8333 76.3333 68.0272 76.3333 69.5C76.3333 70.9728 77.5272 72.1667 79 72.1667C80.4728 72.1667 81.6667 70.9728 81.6667 69.5ZM79 69.5L79 69L62 69L62 69.5L62 70L79 70L79 69.5Z" fill="#737272"/>
<path d="M202.32 76.14C202 76.14 201.747 76.0533 201.56 75.88C201.373 75.6933 201.28 75.44 201.28 75.12V73.14H195.92C195.587 73.14 195.32 73.0667 195.12 72.92C194.92 72.7733 194.82 72.5467 194.82 72.24C194.82 72.0667 194.86 71.88 194.94 71.68C195.033 71.48 195.193 71.22 195.42 70.9L201.24 62.44C201.387 62.2133 201.553 62.0467 201.74 61.94C201.927 61.82 202.14 61.76 202.38 61.76C202.66 61.76 202.887 61.8467 203.06 62.02C203.247 62.18 203.34 62.4333 203.34 62.78V71.4H204.6C204.92 71.4 205.153 71.4733 205.3 71.62C205.46 71.7667 205.54 71.98 205.54 72.26C205.54 72.5533 205.46 72.7733 205.3 72.92C205.153 73.0667 204.92 73.14 204.6 73.14H203.34V75.12C203.34 75.44 203.247 75.6933 203.06 75.88C202.887 76.0533 202.64 76.14 202.32 76.14ZM201.28 71.4V64.34H201.82L196.6 71.96V71.4H201.28ZM207.892 76.08C207.506 76.08 207.192 75.96 206.952 75.72C206.712 75.48 206.592 75.1733 206.592 74.8C206.592 74.4267 206.712 74.1267 206.952 73.9C207.192 73.66 207.506 73.54 207.892 73.54C208.279 73.54 208.586 73.66 208.812 73.9C209.039 74.1267 209.152 74.4267 209.152 74.8C209.152 75.1733 209.039 75.48 208.812 75.72C208.586 75.96 208.279 76.08 207.892 76.08Z" fill="#737272"/>
<path d="M174.333 68.5C174.333 67.0272 175.527 65.8333 177 65.8333C178.473 65.8333 179.667 67.0272 179.667 68.5C179.667 69.9728 178.473 71.1667 177 71.1667C175.527 71.1667 174.333 69.9728 174.333 68.5ZM177 68.5L177 68L194 68L194 68.5L194 69L177 69L177 68.5Z" fill="#737272"/>
<path d="M99.62 110C99.26 110 99 109.92 98.84 109.76C98.68 109.587 98.6 109.353 98.6 109.06C98.6 108.873 98.6467 108.693 98.74 108.52C98.8333 108.347 98.9667 108.167 99.14 107.98L103.4 103.42C104.053 102.727 104.52 102.093 104.8 101.52C105.093 100.933 105.24 100.347 105.24 99.76C105.24 99.0133 105.013 98.4467 104.56 98.06C104.107 97.6733 103.44 97.48 102.56 97.48C102.027 97.48 101.513 97.56 101.02 97.72C100.527 97.88 100.033 98.14 99.54 98.5C99.34 98.6333 99.1533 98.6933 98.98 98.68C98.8067 98.6667 98.6533 98.6 98.52 98.48C98.4 98.36 98.32 98.2133 98.28 98.04C98.24 97.8667 98.2467 97.6867 98.3 97.5C98.3533 97.3133 98.48 97.1533 98.68 97.02C99.2267 96.6067 99.86 96.2867 100.58 96.06C101.3 95.8333 102.033 95.72 102.78 95.72C103.753 95.72 104.573 95.8733 105.24 96.18C105.92 96.4733 106.433 96.9067 106.78 97.48C107.127 98.0533 107.3 98.7533 107.3 99.58C107.3 100.14 107.207 100.687 107.02 101.22C106.847 101.753 106.573 102.3 106.2 102.86C105.84 103.407 105.367 103.987 104.78 104.6L100.74 108.84V108.26H107.1C107.393 108.26 107.62 108.333 107.78 108.48C107.94 108.627 108.02 108.84 108.02 109.12C108.02 109.4 107.94 109.62 107.78 109.78C107.62 109.927 107.393 110 107.1 110H99.62ZM110.892 110.08C110.506 110.08 110.192 109.96 109.952 109.72C109.712 109.48 109.592 109.173 109.592 108.8C109.592 108.427 109.712 108.127 109.952 107.9C110.192 107.66 110.506 107.54 110.892 107.54C111.279 107.54 111.586 107.66 111.812 107.9C112.039 108.127 112.152 108.427 112.152 108.8C112.152 109.173 112.039 109.48 111.812 109.72C111.586 109.96 111.279 110.08 110.892 110.08Z" fill="#737272"/>
<path d="M111 78.3333C109.527 78.3333 108.333 79.5272 108.333 81C108.333 82.4728 109.527 83.6667 111 83.6667C112.473 83.6667 113.667 82.4728 113.667 81C113.667 79.5272 112.473 78.3333 111 78.3333ZM111 81H110.5V93H111H111.5V81H111Z" fill="#737272"/>
<path d="M102.78 47.18C102.033 47.18 101.273 47.08 100.5 46.88C99.7267 46.6667 99.0533 46.3533 98.48 45.94C98.2667 45.8067 98.12 45.6467 98.04 45.46C97.9733 45.26 97.96 45.08 98 44.92C98.04 44.7467 98.12 44.6 98.24 44.48C98.3733 44.36 98.5333 44.2933 98.72 44.28C98.9067 44.2533 99.1133 44.3067 99.34 44.44C99.9133 44.7867 100.473 45.04 101.02 45.2C101.567 45.3467 102.133 45.42 102.72 45.42C103.36 45.42 103.9 45.3267 104.34 45.14C104.78 44.9533 105.107 44.68 105.32 44.32C105.547 43.96 105.66 43.5267 105.66 43.02C105.66 42.26 105.407 41.6933 104.9 41.32C104.407 40.9333 103.687 40.74 102.74 40.74H101.38C101.073 40.74 100.84 40.6667 100.68 40.52C100.52 40.36 100.44 40.14 100.44 39.86C100.44 39.5933 100.52 39.3867 100.68 39.24C100.84 39.08 101.073 39 101.38 39H102.54C103.113 39 103.6 38.9067 104 38.72C104.4 38.52 104.707 38.2467 104.92 37.9C105.147 37.54 105.26 37.1067 105.26 36.6C105.26 35.92 105.033 35.4 104.58 35.04C104.14 34.6667 103.493 34.48 102.64 34.48C102.093 34.48 101.573 34.5533 101.08 34.7C100.6 34.8467 100.1 35.1067 99.58 35.48C99.38 35.6133 99.1867 35.6733 99 35.66C98.8267 35.6333 98.6733 35.5667 98.54 35.46C98.42 35.34 98.3333 35.1933 98.28 35.02C98.24 34.8467 98.2533 34.6667 98.32 34.48C98.3867 34.2933 98.52 34.1333 98.72 34C99.28 33.5867 99.9133 33.2733 100.62 33.06C101.327 32.8333 102.053 32.72 102.8 32.72C103.733 32.72 104.533 32.8667 105.2 33.16C105.88 33.4533 106.393 33.8733 106.74 34.42C107.1 34.9667 107.28 35.62 107.28 36.38C107.28 36.9533 107.173 37.4733 106.96 37.94C106.747 38.4067 106.44 38.8067 106.04 39.14C105.653 39.46 105.18 39.6867 104.62 39.82V39.6C105.593 39.76 106.347 40.16 106.88 40.8C107.413 41.4267 107.68 42.2133 107.68 43.16C107.68 43.9867 107.48 44.7067 107.08 45.32C106.693 45.92 106.133 46.38 105.4 46.7C104.667 47.02 103.793 47.18 102.78 47.18ZM110.892 47.08C110.506 47.08 110.192 46.96 109.952 46.72C109.712 46.48 109.592 46.1733 109.592 45.8C109.592 45.4267 109.712 45.1267 109.952 44.9C110.192 44.66 110.506 44.54 110.892 44.54C111.279 44.54 111.586 44.66 111.812 44.9C112.039 45.1267 112.152 45.4267 112.152 45.8C112.152 46.1733 112.039 46.48 111.812 46.72C111.586 46.96 111.279 47.08 110.892 47.08Z" fill="#737272"/>
<path d="M111 66.6667C112.473 66.6667 113.667 65.4728 113.667 64C113.667 62.5272 112.473 61.3333 111 61.3333C109.527 61.3333 108.333 62.5272 108.333 64C108.333 65.4728 109.527 66.6667 111 66.6667ZM111 64H111.5V52H111H110.5V64H111Z" fill="#737272"/>
</g>
<defs>
<clipPath id="clip0_299_41470">
<rect width="256" height="140" fill="white"/>
</clipPath>
</defs>
</svg>
