<svg viewBox="0 0 20 20" fill="none" xmlns="http://www.w3.org/2000/svg">
<path d="M8.75016 17.5C8.51405 17.5 8.31614 17.4201 8.15641 17.2604C7.99669 17.1007 7.91683 16.9028 7.91683 16.6667V15L5.47933 12.5625C5.32655 12.4097 5.2085 12.2326 5.12516 12.0312C5.04183 11.8299 5.00016 11.6181 5.00016 11.3958V7.5C5.00016 7.16667 5.07655 6.85417 5.22933 6.5625C5.38211 6.27083 5.60433 6.04861 5.896 5.89583L7.50016 7.5H6.66683V11.375L9.5835 14.2917V15.8333H10.4168V14.2917L11.1877 13.5208L1.75016 4.08333C1.59738 3.93056 1.521 3.73611 1.521 3.5C1.521 3.26389 1.59738 3.06944 1.75016 2.91667C1.90294 2.76389 2.09739 2.6875 2.3335 2.6875C2.56961 2.6875 2.76405 2.76389 2.91683 2.91667L17.0835 17.0833C17.2363 17.2361 17.3127 17.4306 17.3127 17.6667C17.3127 17.9028 17.2363 18.0972 17.0835 18.25C16.9307 18.4028 16.7363 18.4792 16.5002 18.4792C16.2641 18.4792 16.0696 18.4028 15.9168 18.25L12.3752 14.7083L12.0835 15V16.6667C12.0835 16.9028 12.0036 17.1007 11.8439 17.2604C11.6842 17.4201 11.4863 17.5 11.2502 17.5H8.75016ZM14.2918 11.9167L13.3335 10.9583V7.5H9.87516L6.66683 4.29167V3.33333C6.66683 3.09722 6.74669 2.89931 6.90641 2.73958C7.06614 2.57986 7.26405 2.5 7.50016 2.5C7.73627 2.5 7.93419 2.57986 8.09391 2.73958C8.25364 2.89931 8.3335 3.09722 8.3335 3.33333V5.83333H11.6668V3.33333C11.6668 3.09722 11.7467 2.89931 11.9064 2.73958C12.0661 2.57986 12.2641 2.5 12.5002 2.5C12.7363 2.5 12.9342 2.57986 13.0939 2.73958C13.2536 2.89931 13.3335 3.09722 13.3335 3.33333V6.66667L12.5002 5.83333H13.3335C13.7918 5.83333 14.1842 5.99653 14.5106 6.32292C14.837 6.64931 15.0002 7.04167 15.0002 7.5V10.5208C15.0002 10.7431 14.9585 10.9549 14.8752 11.1562C14.7918 11.3576 14.6738 11.5347 14.521 11.6875L14.2918 11.9167Z" fill="currentColor"/>
</svg>