<svg viewBox="0 0 20 20" fill="none" xmlns="http://www.w3.org/2000/svg">
<path d="M10 9.16667C12.0833 9.16667 13.8542 8.84028 15.3125 8.1875C16.7708 7.53472 17.5 6.75 17.5 5.83333C17.5 4.91667 16.7708 4.13194 15.3125 3.47917C13.8542 2.82639 12.0833 2.5 10 2.5C7.91667 2.5 6.14583 2.82639 4.6875 3.47917C3.22917 4.13194 2.5 4.91667 2.5 5.83333C2.5 6.75 3.22917 7.53472 4.6875 8.1875C6.14583 8.84028 7.91667 9.16667 10 9.16667ZM10 11.25C10.5694 11.25 11.2812 11.191 12.1354 11.0729C12.9896 10.9549 13.8125 10.7639 14.6042 10.5C15.3958 10.2361 16.0764 9.89236 16.6458 9.46875C17.2153 9.04514 17.5 8.52778 17.5 7.91667V10C17.5 10.6111 17.2153 11.1285 16.6458 11.5521C16.0764 11.9757 15.3958 12.3194 14.6042 12.5833C13.8125 12.8472 12.9896 13.0382 12.1354 13.1562C11.2812 13.2743 10.5694 13.3333 10 13.3333C9.43056 13.3333 8.71875 13.2743 7.86458 13.1562C7.01042 13.0382 6.1875 12.8472 5.39583 12.5833C4.60417 12.3194 3.92361 11.9757 3.35417 11.5521C2.78472 11.1285 2.5 10.6111 2.5 10V7.91667C2.5 8.52778 2.78472 9.04514 3.35417 9.46875C3.92361 9.89236 4.60417 10.2361 5.39583 10.5C6.1875 10.7639 7.01042 10.9549 7.86458 11.0729C8.71875 11.191 9.43056 11.25 10 11.25ZM10 15.4167C10.5694 15.4167 11.2812 15.3576 12.1354 15.2396C12.9896 15.1215 13.8125 14.9306 14.6042 14.6667C15.3958 14.4028 16.0764 14.059 16.6458 13.6354C17.2153 13.2118 17.5 12.6944 17.5 12.0833V14.1667C17.5 14.7778 17.2153 15.2951 16.6458 15.7188C16.0764 16.1424 15.3958 16.4861 14.6042 16.75C13.8125 17.0139 12.9896 17.2049 12.1354 17.3229C11.2812 17.441 10.5694 17.5 10 17.5C9.43056 17.5 8.71875 17.441 7.86458 17.3229C7.01042 17.2049 6.1875 17.0139 5.39583 16.75C4.60417 16.4861 3.92361 16.1424 3.35417 15.7188C2.78472 15.2951 2.5 14.7778 2.5 14.1667V12.0833C2.5 12.6944 2.78472 13.2118 3.35417 13.6354C3.92361 14.059 4.60417 14.4028 5.39583 14.6667C6.1875 14.9306 7.01042 15.1215 7.86458 15.2396C8.71875 15.3576 9.43056 15.4167 10 15.4167Z" fill="currentColor"/>
</svg>