<svg width="500" height="180" viewBox="0 0 500 180" fill="none" xmlns="http://www.w3.org/2000/svg">
<rect x="0.5" y="0.5" width="499" height="179" rx="7.5" stroke="#CDCCCB"/>
<path d="M24.4922 29.7891L26.7344 30.5C26.3906 31.75 25.8177 32.6797 25.0156 33.2891C24.2188 33.8932 23.2057 34.1953 21.9766 34.1953C20.4557 34.1953 19.2057 33.6771 18.2266 32.6406C17.2474 31.599 16.7578 30.1771 16.7578 28.375C16.7578 26.4688 17.25 24.9896 18.2344 23.9375C19.2188 22.8802 20.513 22.3516 22.1172 22.3516C23.5182 22.3516 24.6562 22.7656 25.5312 23.5938C26.0521 24.0833 26.4427 24.7865 26.7031 25.7031L24.4141 26.25C24.2786 25.6562 23.9948 25.1875 23.5625 24.8438C23.1354 24.5 22.6146 24.3281 22 24.3281C21.151 24.3281 20.4609 24.6328 19.9297 25.2422C19.4036 25.8516 19.1406 26.8385 19.1406 28.2031C19.1406 29.651 19.401 30.6823 19.9219 31.2969C20.4427 31.9115 21.1198 32.2188 21.9531 32.2188C22.5677 32.2188 23.0964 32.0234 23.5391 31.6328C23.9818 31.2422 24.2995 30.6276 24.4922 29.7891ZM30.8984 22.5469V26.7578C31.6068 25.9297 32.4531 25.5156 33.4375 25.5156C33.9427 25.5156 34.3984 25.6094 34.8047 25.7969C35.2109 25.9844 35.5156 26.224 35.7188 26.5156C35.9271 26.8073 36.0677 27.1302 36.1406 27.4844C36.2188 27.8385 36.2578 28.388 36.2578 29.1328V34H34.0625V29.6172C34.0625 28.7474 34.0208 28.1953 33.9375 27.9609C33.8542 27.7266 33.7057 27.5417 33.4922 27.4062C33.2839 27.2656 33.0208 27.1953 32.7031 27.1953C32.3385 27.1953 32.013 27.2839 31.7266 27.4609C31.4401 27.638 31.2292 27.9062 31.0938 28.2656C30.9635 28.6198 30.8984 29.1458 30.8984 29.8438V34H28.7031V22.5469H30.8984ZM40.1328 28.2344L38.1406 27.875C38.3646 27.0729 38.75 26.4792 39.2969 26.0938C39.8438 25.7083 40.6562 25.5156 41.7344 25.5156C42.7135 25.5156 43.4427 25.6328 43.9219 25.8672C44.401 26.0964 44.737 26.3906 44.9297 26.75C45.1276 27.1042 45.2266 27.7578 45.2266 28.7109L45.2031 31.2734C45.2031 32.0026 45.237 32.5417 45.3047 32.8906C45.3776 33.2344 45.5104 33.6042 45.7031 34H43.5312C43.474 33.8542 43.4036 33.638 43.3203 33.3516C43.2839 33.2214 43.2578 33.1354 43.2422 33.0938C42.8672 33.4583 42.4661 33.7318 42.0391 33.9141C41.612 34.0964 41.1562 34.1875 40.6719 34.1875C39.8177 34.1875 39.1432 33.9557 38.6484 33.4922C38.1589 33.0286 37.9141 32.4427 37.9141 31.7344C37.9141 31.2656 38.026 30.849 38.25 30.4844C38.474 30.1146 38.7865 29.8333 39.1875 29.6406C39.5938 29.4427 40.1771 29.2708 40.9375 29.125C41.9635 28.9323 42.6745 28.7526 43.0703 28.5859V28.3672C43.0703 27.9453 42.9661 27.6458 42.7578 27.4688C42.5495 27.2865 42.1562 27.1953 41.5781 27.1953C41.1875 27.1953 40.8828 27.2734 40.6641 27.4297C40.4453 27.5807 40.2682 27.849 40.1328 28.2344ZM43.0703 30.0156C42.7891 30.1094 42.3438 30.2214 41.7344 30.3516C41.125 30.4818 40.7266 30.6094 40.5391 30.7344C40.2526 30.9375 40.1094 31.1953 40.1094 31.5078C40.1094 31.8151 40.224 32.0807 40.4531 32.3047C40.6823 32.5286 40.974 32.6406 41.3281 32.6406C41.724 32.6406 42.1016 32.5104 42.4609 32.25C42.7266 32.0521 42.901 31.8099 42.9844 31.5234C43.0417 31.3359 43.0703 30.9792 43.0703 30.4531V30.0156ZM54.9453 34H52.75V29.7656C52.75 28.8698 52.7031 28.2917 52.6094 28.0312C52.5156 27.7656 52.362 27.5599 52.1484 27.4141C51.9401 27.2682 51.6875 27.1953 51.3906 27.1953C51.0104 27.1953 50.6693 27.2995 50.3672 27.5078C50.0651 27.7161 49.8568 27.9922 49.7422 28.3359C49.6328 28.6797 49.5781 29.3151 49.5781 30.2422V34H47.3828V25.7031H49.4219V26.9219C50.1458 25.9844 51.0573 25.5156 52.1562 25.5156C52.6406 25.5156 53.0833 25.6042 53.4844 25.7812C53.8854 25.9531 54.1875 26.1745 54.3906 26.4453C54.599 26.7161 54.7422 27.0234 54.8203 27.3672C54.9036 27.7109 54.9453 28.2031 54.9453 28.8438V34ZM56.9766 34.5469L59.4844 34.8516C59.526 35.1432 59.6224 35.3438 59.7734 35.4531C59.9818 35.6094 60.3099 35.6875 60.7578 35.6875C61.3307 35.6875 61.7604 35.6016 62.0469 35.4297C62.2396 35.3151 62.3854 35.1302 62.4844 34.875C62.5521 34.6927 62.5859 34.3568 62.5859 33.8672V32.6562C61.9297 33.5521 61.1016 34 60.1016 34C58.987 34 58.1042 33.5286 57.4531 32.5859C56.9427 31.8411 56.6875 30.9141 56.6875 29.8047C56.6875 28.4141 57.0208 27.3516 57.6875 26.6172C58.3594 25.8828 59.1927 25.5156 60.1875 25.5156C61.2135 25.5156 62.0599 25.9661 62.7266 26.8672V25.7031H64.7812V33.1484C64.7812 34.1276 64.7005 34.8594 64.5391 35.3438C64.3776 35.8281 64.151 36.2083 63.8594 36.4844C63.5677 36.7604 63.1771 36.9766 62.6875 37.1328C62.2031 37.2891 61.5885 37.3672 60.8438 37.3672C59.4375 37.3672 58.4401 37.125 57.8516 36.6406C57.263 36.1615 56.9688 35.5521 56.9688 34.8125C56.9688 34.7396 56.9714 34.651 56.9766 34.5469ZM58.9375 29.6797C58.9375 30.5599 59.1068 31.2057 59.4453 31.6172C59.7891 32.0234 60.2109 32.2266 60.7109 32.2266C61.2474 32.2266 61.7005 32.0182 62.0703 31.6016C62.4401 31.1797 62.625 30.5573 62.625 29.7344C62.625 28.875 62.4479 28.237 62.0938 27.8203C61.7396 27.4036 61.2917 27.1953 60.75 27.1953C60.224 27.1953 59.7891 27.401 59.4453 27.8125C59.1068 28.2188 58.9375 28.8411 58.9375 29.6797ZM71.7656 31.3594L73.9531 31.7266C73.6719 32.5286 73.2266 33.1406 72.6172 33.5625C72.013 33.9792 71.2552 34.1875 70.3438 34.1875C68.901 34.1875 67.8333 33.7161 67.1406 32.7734C66.5938 32.0182 66.3203 31.0651 66.3203 29.9141C66.3203 28.5391 66.6797 27.4635 67.3984 26.6875C68.1172 25.9062 69.026 25.5156 70.125 25.5156C71.3594 25.5156 72.3333 25.9245 73.0469 26.7422C73.7604 27.5547 74.1016 28.8021 74.0703 30.4844H68.5703C68.5859 31.1354 68.763 31.6432 69.1016 32.0078C69.4401 32.3672 69.862 32.5469 70.3672 32.5469C70.7109 32.5469 71 32.4531 71.2344 32.2656C71.4688 32.0781 71.6458 31.776 71.7656 31.3594ZM71.8906 29.1406C71.875 28.5052 71.7109 28.0234 71.3984 27.6953C71.0859 27.362 70.7057 27.1953 70.2578 27.1953C69.7786 27.1953 69.3828 27.3698 69.0703 27.7188C68.7578 28.0677 68.6042 28.5417 68.6094 29.1406H71.8906ZM75.7031 25.7031H77.7266V26.8359C78.4505 25.9557 79.3125 25.5156 80.3125 25.5156C80.8438 25.5156 81.3047 25.625 81.6953 25.8438C82.0859 26.0625 82.4062 26.3932 82.6562 26.8359C83.0208 26.3932 83.4141 26.0625 83.8359 25.8438C84.2578 25.625 84.7083 25.5156 85.1875 25.5156C85.7969 25.5156 86.3125 25.6406 86.7344 25.8906C87.1562 26.1354 87.4714 26.4974 87.6797 26.9766C87.8307 27.3307 87.9062 27.9036 87.9062 28.6953V34H85.7109V29.2578C85.7109 28.4349 85.6354 27.9036 85.4844 27.6641C85.2812 27.3516 84.9688 27.1953 84.5469 27.1953C84.2396 27.1953 83.9505 27.2891 83.6797 27.4766C83.4089 27.6641 83.2135 27.9401 83.0938 28.3047C82.974 28.6641 82.9141 29.2344 82.9141 30.0156V34H80.7188V29.4531C80.7188 28.6458 80.6797 28.125 80.6016 27.8906C80.5234 27.6562 80.401 27.4818 80.2344 27.3672C80.0729 27.2526 79.8516 27.1953 79.5703 27.1953C79.2318 27.1953 78.9271 27.2865 78.6562 27.4688C78.3854 27.651 78.1901 27.9141 78.0703 28.2578C77.9557 28.6016 77.8984 29.1719 77.8984 29.9688V34H75.7031V25.7031ZM94.9062 31.3594L97.0938 31.7266C96.8125 32.5286 96.3672 33.1406 95.7578 33.5625C95.1536 33.9792 94.3958 34.1875 93.4844 34.1875C92.0417 34.1875 90.974 33.7161 90.2812 32.7734C89.7344 32.0182 89.4609 31.0651 89.4609 29.9141C89.4609 28.5391 89.8203 27.4635 90.5391 26.6875C91.2578 25.9062 92.1667 25.5156 93.2656 25.5156C94.5 25.5156 95.474 25.9245 96.1875 26.7422C96.901 27.5547 97.2422 28.8021 97.2109 30.4844H91.7109C91.7266 31.1354 91.9036 31.6432 92.2422 32.0078C92.5807 32.3672 93.0026 32.5469 93.5078 32.5469C93.8516 32.5469 94.1406 32.4531 94.375 32.2656C94.6094 32.0781 94.7865 31.776 94.9062 31.3594ZM95.0312 29.1406C95.0156 28.5052 94.8516 28.0234 94.5391 27.6953C94.2266 27.362 93.8464 27.1953 93.3984 27.1953C92.9193 27.1953 92.5234 27.3698 92.2109 27.7188C91.8984 28.0677 91.7448 28.5417 91.75 29.1406H95.0312ZM106.555 34H104.359V29.7656C104.359 28.8698 104.312 28.2917 104.219 28.0312C104.125 27.7656 103.971 27.5599 103.758 27.4141C103.549 27.2682 103.297 27.1953 103 27.1953C102.62 27.1953 102.279 27.2995 101.977 27.5078C101.674 27.7161 101.466 27.9922 101.352 28.3359C101.242 28.6797 101.188 29.3151 101.188 30.2422V34H98.9922V25.7031H101.031V26.9219C101.755 25.9844 102.667 25.5156 103.766 25.5156C104.25 25.5156 104.693 25.6042 105.094 25.7812C105.495 25.9531 105.797 26.1745 106 26.4453C106.208 26.7161 106.352 27.0234 106.43 27.3672C106.513 27.7109 106.555 28.2031 106.555 28.8438V34ZM112.594 25.7031V27.4531H111.094V30.7969C111.094 31.474 111.107 31.8698 111.133 31.9844C111.164 32.0938 111.229 32.1849 111.328 32.2578C111.432 32.3307 111.557 32.3672 111.703 32.3672C111.906 32.3672 112.201 32.2969 112.586 32.1562L112.773 33.8594C112.263 34.0781 111.685 34.1875 111.039 34.1875C110.643 34.1875 110.286 34.1224 109.969 33.9922C109.651 33.8568 109.417 33.6849 109.266 33.4766C109.12 33.263 109.018 32.9766 108.961 32.6172C108.914 32.362 108.891 31.8464 108.891 31.0703V27.4531H107.883V25.7031H108.891V24.0547L111.094 22.7734V25.7031H112.594ZM126.18 34H124.141V32.7812C123.802 33.2552 123.401 33.6094 122.938 33.8438C122.479 34.0729 122.016 34.1875 121.547 34.1875C120.594 34.1875 119.776 33.8047 119.094 33.0391C118.417 32.2682 118.078 31.1953 118.078 29.8203C118.078 28.4141 118.409 27.3464 119.07 26.6172C119.732 25.8828 120.568 25.5156 121.578 25.5156C122.505 25.5156 123.307 25.901 123.984 26.6719V22.5469H126.18V34ZM120.32 29.6719C120.32 30.5573 120.443 31.1979 120.688 31.5938C121.042 32.1667 121.536 32.4531 122.172 32.4531C122.677 32.4531 123.107 32.2396 123.461 31.8125C123.815 31.3802 123.992 30.737 123.992 29.8828C123.992 28.9297 123.82 28.2448 123.477 27.8281C123.133 27.4062 122.693 27.1953 122.156 27.1953C121.635 27.1953 121.198 27.4036 120.844 27.8203C120.495 28.2318 120.32 28.849 120.32 29.6719ZM128.297 22.5781H130.492V24.1484C130.492 24.7839 130.438 25.2865 130.328 25.6562C130.219 26.0208 130.01 26.349 129.703 26.6406C129.401 26.9323 129.016 27.1615 128.547 27.3281L128.117 26.4219C128.56 26.276 128.875 26.0755 129.062 25.8203C129.25 25.5651 129.349 25.2161 129.359 24.7734H128.297V22.5781ZM137.609 31.3594L139.797 31.7266C139.516 32.5286 139.07 33.1406 138.461 33.5625C137.857 33.9792 137.099 34.1875 136.188 34.1875C134.745 34.1875 133.677 33.7161 132.984 32.7734C132.438 32.0182 132.164 31.0651 132.164 29.9141C132.164 28.5391 132.523 27.4635 133.242 26.6875C133.961 25.9062 134.87 25.5156 135.969 25.5156C137.203 25.5156 138.177 25.9245 138.891 26.7422C139.604 27.5547 139.945 28.8021 139.914 30.4844H134.414C134.43 31.1354 134.607 31.6432 134.945 32.0078C135.284 32.3672 135.706 32.5469 136.211 32.5469C136.555 32.5469 136.844 32.4531 137.078 32.2656C137.312 32.0781 137.49 31.776 137.609 31.3594ZM137.734 29.1406C137.719 28.5052 137.555 28.0234 137.242 27.6953C136.93 27.362 136.549 27.1953 136.102 27.1953C135.622 27.1953 135.227 27.3698 134.914 27.7188C134.602 28.0677 134.448 28.5417 134.453 29.1406H137.734ZM134.93 24.6875L136.008 22.3516H138.469L136.32 24.6875H134.93ZM145.516 25.7031V27.4531H144.016V30.7969C144.016 31.474 144.029 31.8698 144.055 31.9844C144.086 32.0938 144.151 32.1849 144.25 32.2578C144.354 32.3307 144.479 32.3672 144.625 32.3672C144.828 32.3672 145.122 32.2969 145.508 32.1562L145.695 33.8594C145.185 34.0781 144.607 34.1875 143.961 34.1875C143.565 34.1875 143.208 34.1224 142.891 33.9922C142.573 33.8568 142.339 33.6849 142.188 33.4766C142.042 33.263 141.94 32.9766 141.883 32.6172C141.836 32.362 141.812 31.8464 141.812 31.0703V27.4531H140.805V25.7031H141.812V24.0547L144.016 22.7734V25.7031H145.516ZM148.68 28.2344L146.688 27.875C146.911 27.0729 147.297 26.4792 147.844 26.0938C148.391 25.7083 149.203 25.5156 150.281 25.5156C151.26 25.5156 151.99 25.6328 152.469 25.8672C152.948 26.0964 153.284 26.3906 153.477 26.75C153.674 27.1042 153.773 27.7578 153.773 28.7109L153.75 31.2734C153.75 32.0026 153.784 32.5417 153.852 32.8906C153.924 33.2344 154.057 33.6042 154.25 34H152.078C152.021 33.8542 151.951 33.638 151.867 33.3516C151.831 33.2214 151.805 33.1354 151.789 33.0938C151.414 33.4583 151.013 33.7318 150.586 33.9141C150.159 34.0964 149.703 34.1875 149.219 34.1875C148.365 34.1875 147.69 33.9557 147.195 33.4922C146.706 33.0286 146.461 32.4427 146.461 31.7344C146.461 31.2656 146.573 30.849 146.797 30.4844C147.021 30.1146 147.333 29.8333 147.734 29.6406C148.141 29.4427 148.724 29.2708 149.484 29.125C150.51 28.9323 151.221 28.7526 151.617 28.5859V28.3672C151.617 27.9453 151.513 27.6458 151.305 27.4688C151.096 27.2865 150.703 27.1953 150.125 27.1953C149.734 27.1953 149.43 27.2734 149.211 27.4297C148.992 27.5807 148.815 27.849 148.68 28.2344ZM151.617 30.0156C151.336 30.1094 150.891 30.2214 150.281 30.3516C149.672 30.4818 149.273 30.6094 149.086 30.7344C148.799 30.9375 148.656 31.1953 148.656 31.5078C148.656 31.8151 148.771 32.0807 149 32.3047C149.229 32.5286 149.521 32.6406 149.875 32.6406C150.271 32.6406 150.648 32.5104 151.008 32.25C151.273 32.0521 151.448 31.8099 151.531 31.5234C151.589 31.3359 151.617 30.9792 151.617 30.4531V30.0156ZM159.75 25.7031V27.4531H158.25V30.7969C158.25 31.474 158.263 31.8698 158.289 31.9844C158.32 32.0938 158.385 32.1849 158.484 32.2578C158.589 32.3307 158.714 32.3672 158.859 32.3672C159.062 32.3672 159.357 32.2969 159.742 32.1562L159.93 33.8594C159.419 34.0781 158.841 34.1875 158.195 34.1875C157.799 34.1875 157.443 34.1224 157.125 33.9922C156.807 33.8568 156.573 33.6849 156.422 33.4766C156.276 33.263 156.174 32.9766 156.117 32.6172C156.07 32.362 156.047 31.8464 156.047 31.0703V27.4531H155.039V25.7031H156.047V24.0547L158.25 22.7734V25.7031H159.75Z" fill="#21272A"/>
<mask id="path-3-inside-1_304_42230" fill="white">
<path d="M355 20C355 17.7909 356.791 16 359 16H472C474.209 16 476 17.7909 476 20V36C476 38.2091 474.209 40 472 40H359C356.791 40 355 38.2091 355 36V20Z"/>
</mask>
<path d="M355 20C355 17.7909 356.791 16 359 16H472C474.209 16 476 17.7909 476 20V36C476 38.2091 474.209 40 472 40H359C356.791 40 355 38.2091 355 36V20Z" fill="white"/>
<path d="M359 16V17H472V16V15H359V16ZM476 20H475V36H476H477V20H476ZM472 40V39H359V40V41H472V40ZM355 36H356V20H355H354V36H355ZM359 40V39C357.343 39 356 37.6569 356 36H355H354C354 38.7614 356.239 41 359 41V40ZM476 36H475C475 37.6569 473.657 39 472 39V40V41C474.761 41 477 38.7614 477 36H476ZM472 16V17C473.657 17 475 18.3431 475 20H476H477C477 17.2386 474.761 15 472 15V16ZM359 16V15C356.239 15 354 17.2386 354 20H355H356C356 18.3431 357.343 17 359 17V16Z" fill="#2964A0" mask="url(#path-3-inside-1_304_42230)"/>
<path d="M371.9 33.098C371.695 33.098 371.522 33.0513 371.382 32.958C371.251 32.8553 371.144 32.706 371.06 32.51L367.294 23.984C367.219 23.788 367.201 23.62 367.238 23.48C367.275 23.34 367.35 23.2327 367.462 23.158C367.583 23.074 367.728 23.032 367.896 23.032C368.111 23.032 368.274 23.0787 368.386 23.172C368.498 23.2653 368.591 23.4053 368.666 23.592L372.194 31.768H371.676L375.176 23.578C375.26 23.4007 375.358 23.2653 375.47 23.172C375.591 23.0787 375.755 23.032 375.96 23.032C376.128 23.032 376.263 23.074 376.366 23.158C376.478 23.2327 376.548 23.34 376.576 23.48C376.604 23.62 376.576 23.788 376.492 23.984L372.74 32.51C372.656 32.706 372.549 32.8553 372.418 32.958C372.287 33.0513 372.115 33.098 371.9 33.098ZM379.417 33.126C378.726 33.126 378.129 32.9813 377.625 32.692C377.13 32.4027 376.743 31.992 376.463 31.46C376.183 30.928 376.043 30.3027 376.043 29.584C376.043 29.0333 376.122 28.5433 376.281 28.114C376.44 27.6847 376.664 27.316 376.953 27.008C377.252 26.6907 377.606 26.4527 378.017 26.294C378.437 26.126 378.904 26.042 379.417 26.042C380.098 26.042 380.686 26.1867 381.181 26.476C381.685 26.7653 382.077 27.176 382.357 27.708C382.637 28.2307 382.777 28.856 382.777 29.584C382.777 30.1253 382.698 30.6153 382.539 31.054C382.38 31.4927 382.152 31.866 381.853 32.174C381.564 32.482 381.209 32.72 380.789 32.888C380.378 33.0467 379.921 33.126 379.417 33.126ZM379.417 32.034C379.8 32.034 380.136 31.9407 380.425 31.754C380.714 31.5673 380.938 31.292 381.097 30.928C381.265 30.564 381.349 30.116 381.349 29.584C381.349 28.7813 381.172 28.1747 380.817 27.764C380.462 27.3533 379.996 27.148 379.417 27.148C379.025 27.148 378.684 27.2413 378.395 27.428C378.106 27.6053 377.877 27.876 377.709 28.24C377.55 28.604 377.471 29.052 377.471 29.584C377.471 30.3773 377.648 30.984 378.003 31.404C378.358 31.824 378.829 32.034 379.417 32.034ZM384.565 33.084C384.341 33.084 384.168 33.0187 384.047 32.888C383.926 32.748 383.865 32.5567 383.865 32.314V26.854C383.865 26.6113 383.926 26.4247 384.047 26.294C384.168 26.1633 384.341 26.098 384.565 26.098C384.789 26.098 384.962 26.1633 385.083 26.294C385.214 26.4247 385.279 26.6113 385.279 26.854V32.314C385.279 32.5567 385.218 32.748 385.097 32.888C384.976 33.0187 384.798 33.084 384.565 33.084ZM384.565 24.642C384.285 24.642 384.066 24.572 383.907 24.432C383.758 24.292 383.683 24.096 383.683 23.844C383.683 23.5827 383.758 23.3867 383.907 23.256C384.066 23.116 384.285 23.046 384.565 23.046C384.845 23.046 385.06 23.116 385.209 23.256C385.368 23.3867 385.447 23.5827 385.447 23.844C385.447 24.096 385.368 24.292 385.209 24.432C385.06 24.572 384.845 24.642 384.565 24.642ZM387.483 33.098C387.25 33.098 387.073 33.0373 386.951 32.916C386.83 32.7853 386.769 32.608 386.769 32.384V26.784C386.769 26.5507 386.83 26.3733 386.951 26.252C387.073 26.1307 387.241 26.07 387.455 26.07C387.679 26.07 387.847 26.1307 387.959 26.252C388.081 26.3733 388.141 26.5507 388.141 26.784V27.806H388.001C388.151 27.246 388.426 26.8213 388.827 26.532C389.229 26.2427 389.742 26.0747 390.367 26.028C390.535 26.0187 390.666 26.0607 390.759 26.154C390.862 26.2473 390.918 26.392 390.927 26.588C390.946 26.784 390.904 26.9427 390.801 27.064C390.699 27.176 390.54 27.2413 390.325 27.26L390.059 27.288C389.453 27.344 388.991 27.5353 388.673 27.862C388.356 28.1887 388.197 28.6367 388.197 29.206V32.384C388.197 32.608 388.137 32.7853 388.015 32.916C387.903 33.0373 387.726 33.098 387.483 33.098ZM397.119 33.126C396.569 33.126 396.107 33.0233 395.733 32.818C395.369 32.6127 395.094 32.3093 394.907 31.908C394.73 31.4973 394.641 30.984 394.641 30.368V26.784C394.641 26.5413 394.702 26.364 394.823 26.252C394.945 26.1307 395.117 26.07 395.341 26.07C395.565 26.07 395.738 26.1307 395.859 26.252C395.99 26.364 396.055 26.5413 396.055 26.784V30.382C396.055 30.9327 396.167 31.3387 396.391 31.6C396.615 31.8613 396.97 31.992 397.455 31.992C397.987 31.992 398.417 31.8147 398.743 31.46C399.079 31.096 399.247 30.62 399.247 30.032V26.784C399.247 26.5413 399.308 26.364 399.429 26.252C399.551 26.1307 399.728 26.07 399.961 26.07C400.185 26.07 400.358 26.1307 400.479 26.252C400.601 26.364 400.661 26.5413 400.661 26.784V32.384C400.661 32.86 400.433 33.098 399.975 33.098C399.761 33.098 399.593 33.0373 399.471 32.916C399.35 32.7853 399.289 32.608 399.289 32.384V31.194L399.471 31.502C399.285 32.0247 398.986 32.426 398.575 32.706C398.165 32.986 397.679 33.126 397.119 33.126ZM402.854 33.098C402.63 33.098 402.457 33.0373 402.336 32.916C402.215 32.7853 402.154 32.608 402.154 32.384V26.784C402.154 26.5507 402.215 26.3733 402.336 26.252C402.457 26.1307 402.625 26.07 402.84 26.07C403.064 26.07 403.232 26.1307 403.344 26.252C403.465 26.3733 403.526 26.5507 403.526 26.784V27.876L403.372 27.624C403.577 27.1013 403.899 26.7093 404.338 26.448C404.777 26.1773 405.281 26.042 405.85 26.042C406.391 26.042 406.839 26.1447 407.194 26.35C407.558 26.546 407.829 26.8493 408.006 27.26C408.183 27.6613 408.272 28.17 408.272 28.786V32.384C408.272 32.608 408.211 32.7853 408.09 32.916C407.969 33.0373 407.796 33.098 407.572 33.098C407.339 33.098 407.161 33.0373 407.04 32.916C406.919 32.7853 406.858 32.608 406.858 32.384V28.87C406.858 28.282 406.741 27.8527 406.508 27.582C406.284 27.3113 405.929 27.176 405.444 27.176C404.875 27.176 404.417 27.3533 404.072 27.708C403.736 28.0627 403.568 28.5387 403.568 29.136V32.384C403.568 32.86 403.33 33.098 402.854 33.098ZM416.118 33.126C415.371 33.126 414.727 32.986 414.186 32.706C413.654 32.4167 413.239 32.0107 412.94 31.488C412.651 30.956 412.506 30.326 412.506 29.598C412.506 28.8887 412.651 28.268 412.94 27.736C413.229 27.204 413.626 26.7887 414.13 26.49C414.634 26.1913 415.208 26.042 415.852 26.042C416.328 26.042 416.753 26.1213 417.126 26.28C417.499 26.4293 417.817 26.6533 418.078 26.952C418.349 27.2413 418.549 27.596 418.68 28.016C418.82 28.436 418.89 28.9073 418.89 29.43C418.89 29.5887 418.843 29.71 418.75 29.794C418.657 29.8687 418.517 29.906 418.33 29.906H413.626V29.038H417.938L417.7 29.234C417.7 28.7673 417.63 28.3707 417.49 28.044C417.359 27.7173 417.159 27.47 416.888 27.302C416.627 27.1247 416.3 27.036 415.908 27.036C415.469 27.036 415.096 27.1387 414.788 27.344C414.489 27.5493 414.261 27.834 414.102 28.198C413.943 28.562 413.864 28.9867 413.864 29.472V29.556C413.864 30.3773 414.055 30.998 414.438 31.418C414.83 31.8287 415.395 32.034 416.132 32.034C416.412 32.034 416.706 31.9967 417.014 31.922C417.331 31.8473 417.63 31.7213 417.91 31.544C418.069 31.4507 418.209 31.4087 418.33 31.418C418.461 31.4273 418.563 31.4693 418.638 31.544C418.722 31.6187 418.773 31.712 418.792 31.824C418.811 31.936 418.792 32.0527 418.736 32.174C418.68 32.286 418.582 32.3887 418.442 32.482C418.125 32.6967 417.756 32.86 417.336 32.972C416.916 33.0747 416.51 33.126 416.118 33.126ZM420.115 33.084C419.947 33.084 419.807 33.0373 419.695 32.944C419.592 32.8413 419.536 32.7153 419.527 32.566C419.527 32.4167 419.592 32.2533 419.723 32.076L422.089 29.122V29.822L419.877 27.064C419.727 26.896 419.657 26.7373 419.667 26.588C419.676 26.4293 419.737 26.3033 419.849 26.21C419.961 26.1167 420.096 26.07 420.255 26.07C420.432 26.07 420.577 26.1027 420.689 26.168C420.81 26.224 420.922 26.322 421.025 26.462L422.887 28.828H422.383L424.259 26.462C424.361 26.322 424.469 26.224 424.581 26.168C424.702 26.1027 424.847 26.07 425.015 26.07C425.183 26.07 425.318 26.1213 425.421 26.224C425.533 26.3173 425.589 26.4433 425.589 26.602C425.598 26.7513 425.533 26.91 425.393 27.078L423.181 29.794V29.164L425.547 32.076C425.687 32.244 425.752 32.4073 425.743 32.566C425.743 32.7153 425.687 32.8413 425.575 32.944C425.463 33.0373 425.323 33.084 425.155 33.084C424.987 33.084 424.842 33.0513 424.721 32.986C424.609 32.9207 424.497 32.8227 424.385 32.692L422.383 30.172H422.859L420.871 32.692C420.768 32.8133 420.656 32.9113 420.535 32.986C420.423 33.0513 420.283 33.084 420.115 33.084ZM429.897 33.126C429.151 33.126 428.507 32.986 427.965 32.706C427.433 32.4167 427.018 32.0107 426.719 31.488C426.43 30.956 426.285 30.326 426.285 29.598C426.285 28.8887 426.43 28.268 426.719 27.736C427.009 27.204 427.405 26.7887 427.909 26.49C428.413 26.1913 428.987 26.042 429.631 26.042C430.107 26.042 430.532 26.1213 430.905 26.28C431.279 26.4293 431.596 26.6533 431.857 26.952C432.128 27.2413 432.329 27.596 432.459 28.016C432.599 28.436 432.669 28.9073 432.669 29.43C432.669 29.5887 432.623 29.71 432.529 29.794C432.436 29.8687 432.296 29.906 432.109 29.906H427.405V29.038H431.717L431.479 29.234C431.479 28.7673 431.409 28.3707 431.269 28.044C431.139 27.7173 430.938 27.47 430.667 27.302C430.406 27.1247 430.079 27.036 429.687 27.036C429.249 27.036 428.875 27.1387 428.567 27.344C428.269 27.5493 428.04 27.834 427.881 28.198C427.723 28.562 427.643 28.9867 427.643 29.472V29.556C427.643 30.3773 427.835 30.998 428.217 31.418C428.609 31.8287 429.174 32.034 429.911 32.034C430.191 32.034 430.485 31.9967 430.793 31.922C431.111 31.8473 431.409 31.7213 431.689 31.544C431.848 31.4507 431.988 31.4087 432.109 31.418C432.24 31.4273 432.343 31.4693 432.417 31.544C432.501 31.6187 432.553 31.712 432.571 31.824C432.59 31.936 432.571 32.0527 432.515 32.174C432.459 32.286 432.361 32.3887 432.221 32.482C431.904 32.6967 431.535 32.86 431.115 32.972C430.695 33.0747 430.289 33.126 429.897 33.126ZM434.439 33.098C434.215 33.098 434.042 33.0373 433.921 32.916C433.799 32.7853 433.739 32.608 433.739 32.384V26.784C433.739 26.5507 433.799 26.3733 433.921 26.252C434.042 26.1307 434.21 26.07 434.425 26.07C434.649 26.07 434.817 26.1307 434.929 26.252C435.05 26.3733 435.111 26.5507 435.111 26.784V27.932L434.957 27.624C435.143 27.1293 435.433 26.742 435.825 26.462C436.217 26.182 436.688 26.042 437.239 26.042C437.808 26.042 438.27 26.1773 438.625 26.448C438.979 26.7187 439.222 27.134 439.353 27.694H439.157C439.334 27.1807 439.637 26.7793 440.067 26.49C440.496 26.1913 440.995 26.042 441.565 26.042C442.087 26.042 442.517 26.1447 442.853 26.35C443.189 26.546 443.441 26.8493 443.609 27.26C443.777 27.6613 443.861 28.17 443.861 28.786V32.384C443.861 32.608 443.795 32.7853 443.665 32.916C443.543 33.0373 443.371 33.098 443.147 33.098C442.923 33.098 442.75 33.0373 442.629 32.916C442.507 32.7853 442.447 32.608 442.447 32.384V28.856C442.447 28.2773 442.344 27.8527 442.139 27.582C441.943 27.3113 441.616 27.176 441.159 27.176C440.645 27.176 440.239 27.3533 439.941 27.708C439.642 28.0627 439.493 28.5527 439.493 29.178V32.384C439.493 32.608 439.432 32.7853 439.311 32.916C439.189 33.0373 439.017 33.098 438.793 33.098C438.569 33.098 438.391 33.0373 438.261 32.916C438.139 32.7853 438.079 32.608 438.079 32.384V28.856C438.079 28.2773 437.981 27.8527 437.785 27.582C437.589 27.3113 437.262 27.176 436.805 27.176C436.291 27.176 435.885 27.3533 435.587 27.708C435.297 28.0627 435.153 28.5527 435.153 29.178V32.384C435.153 32.86 434.915 33.098 434.439 33.098ZM446.038 35.618C445.814 35.618 445.641 35.5573 445.52 35.436C445.398 35.3147 445.338 35.1373 445.338 34.904V26.784C445.338 26.5507 445.398 26.3733 445.52 26.252C445.641 26.1307 445.809 26.07 446.024 26.07C446.248 26.07 446.42 26.1307 446.542 26.252C446.663 26.3733 446.724 26.5507 446.724 26.784V28.002L446.57 27.708C446.719 27.204 447.013 26.8027 447.452 26.504C447.89 26.196 448.408 26.042 449.006 26.042C449.612 26.042 450.14 26.1867 450.588 26.476C451.045 26.7653 451.395 27.1713 451.638 27.694C451.89 28.2167 452.016 28.8467 452.016 29.584C452.016 30.3027 451.89 30.9327 451.638 31.474C451.395 32.006 451.05 32.4167 450.602 32.706C450.154 32.986 449.622 33.126 449.006 33.126C448.418 33.126 447.904 32.9767 447.466 32.678C447.027 32.3793 446.733 31.9827 446.584 31.488H446.752V34.904C446.752 35.1373 446.686 35.3147 446.556 35.436C446.434 35.5573 446.262 35.618 446.038 35.618ZM448.656 32.034C449.048 32.034 449.388 31.9407 449.678 31.754C449.967 31.5673 450.191 31.292 450.35 30.928C450.508 30.564 450.588 30.116 450.588 29.584C450.588 28.7813 450.41 28.1747 450.056 27.764C449.71 27.3533 449.244 27.148 448.656 27.148C448.273 27.148 447.932 27.2413 447.634 27.428C447.344 27.6053 447.12 27.876 446.962 28.24C446.803 28.604 446.724 29.052 446.724 29.584C446.724 30.3773 446.901 30.984 447.256 31.404C447.61 31.824 448.077 32.034 448.656 32.034ZM455.307 33.126C454.579 33.126 454.029 32.916 453.655 32.496C453.291 32.0667 453.109 31.4507 453.109 30.648V23.746C453.109 23.5127 453.17 23.3353 453.291 23.214C453.413 23.0927 453.585 23.032 453.809 23.032C454.033 23.032 454.206 23.0927 454.327 23.214C454.458 23.3353 454.523 23.5127 454.523 23.746V30.564C454.523 31.0307 454.617 31.3807 454.803 31.614C454.999 31.838 455.279 31.95 455.643 31.95C455.727 31.95 455.802 31.95 455.867 31.95C455.933 31.9407 455.998 31.9313 456.063 31.922C456.175 31.9127 456.255 31.9453 456.301 32.02C456.348 32.0853 456.371 32.2253 456.371 32.44C456.371 32.636 456.329 32.79 456.245 32.902C456.161 33.0047 456.026 33.07 455.839 33.098C455.755 33.1073 455.667 33.112 455.573 33.112C455.48 33.1213 455.391 33.126 455.307 33.126ZM460.026 33.126C459.28 33.126 458.636 32.986 458.094 32.706C457.562 32.4167 457.147 32.0107 456.848 31.488C456.559 30.956 456.414 30.326 456.414 29.598C456.414 28.8887 456.559 28.268 456.848 27.736C457.138 27.204 457.534 26.7887 458.038 26.49C458.542 26.1913 459.116 26.042 459.76 26.042C460.236 26.042 460.661 26.1213 461.034 26.28C461.408 26.4293 461.725 26.6533 461.986 26.952C462.257 27.2413 462.458 27.596 462.588 28.016C462.728 28.436 462.798 28.9073 462.798 29.43C462.798 29.5887 462.752 29.71 462.658 29.794C462.565 29.8687 462.425 29.906 462.238 29.906H457.534V29.038H461.846L461.608 29.234C461.608 28.7673 461.538 28.3707 461.398 28.044C461.268 27.7173 461.067 27.47 460.796 27.302C460.535 27.1247 460.208 27.036 459.816 27.036C459.378 27.036 459.004 27.1387 458.696 27.344C458.398 27.5493 458.169 27.834 458.01 28.198C457.852 28.562 457.772 28.9867 457.772 29.472V29.556C457.772 30.3773 457.964 30.998 458.346 31.418C458.738 31.8287 459.303 32.034 460.04 32.034C460.32 32.034 460.614 31.9967 460.922 31.922C461.24 31.8473 461.538 31.7213 461.818 31.544C461.977 31.4507 462.117 31.4087 462.238 31.418C462.369 31.4273 462.472 31.4693 462.546 31.544C462.63 31.6187 462.682 31.712 462.7 31.824C462.719 31.936 462.7 32.0527 462.644 32.174C462.588 32.286 462.49 32.3887 462.35 32.482C462.033 32.6967 461.664 32.86 461.244 32.972C460.824 33.0747 460.418 33.126 460.026 33.126Z" fill="#2964A0"/>
<path d="M17.0117 63.9785H20.71C21.5439 63.9785 22.1797 64.0423 22.6172 64.1699C23.2051 64.3431 23.7087 64.6507 24.1279 65.0928C24.5472 65.5348 24.8662 66.0771 25.085 66.7197C25.3037 67.3577 25.4131 68.1462 25.4131 69.085C25.4131 69.9098 25.3105 70.6208 25.1055 71.2178C24.8548 71.9469 24.4971 72.5371 24.0322 72.9883C23.6813 73.3301 23.2074 73.5967 22.6104 73.7881C22.1637 73.9294 21.5667 74 20.8193 74H17.0117V63.9785ZM19.0352 65.6738V72.3115H20.5459C21.111 72.3115 21.5189 72.2796 21.7695 72.2158C22.0977 72.1338 22.3688 71.9948 22.583 71.7988C22.8018 71.6029 22.9795 71.2816 23.1162 70.835C23.2529 70.3838 23.3213 69.7708 23.3213 68.9961C23.3213 68.2214 23.2529 67.6266 23.1162 67.2119C22.9795 66.7972 22.7881 66.4736 22.542 66.2412C22.2959 66.0088 21.9837 65.8516 21.6055 65.7695C21.3229 65.7057 20.7692 65.6738 19.9443 65.6738H19.0352ZM31.3262 71.6895L33.2402 72.0107C32.9941 72.7126 32.6045 73.248 32.0713 73.6172C31.5426 73.9818 30.8796 74.1641 30.082 74.1641C28.8197 74.1641 27.8854 73.7516 27.2793 72.9268C26.8008 72.266 26.5615 71.432 26.5615 70.4248C26.5615 69.2217 26.876 68.2806 27.5049 67.6016C28.1338 66.918 28.929 66.5762 29.8906 66.5762C30.9707 66.5762 31.8229 66.9339 32.4473 67.6494C33.0716 68.3604 33.3701 69.4518 33.3428 70.9238H28.5303C28.5439 71.4935 28.6989 71.9378 28.9951 72.2568C29.2913 72.5713 29.6605 72.7285 30.1025 72.7285C30.4033 72.7285 30.6562 72.6465 30.8613 72.4824C31.0664 72.3184 31.2214 72.054 31.3262 71.6895ZM31.4355 69.748C31.4219 69.1921 31.2783 68.7705 31.0049 68.4834C30.7314 68.1917 30.3988 68.0459 30.0068 68.0459C29.5876 68.0459 29.2412 68.1986 28.9678 68.5039C28.6943 68.8092 28.5599 69.224 28.5645 69.748H31.4355ZM28.9814 65.8516L29.9248 63.8076H32.0781L30.1982 65.8516H28.9814ZM34.8604 66.7402H36.6514V67.8066C36.8838 67.4421 37.1982 67.1458 37.5947 66.918C37.9912 66.6901 38.431 66.5762 38.9141 66.5762C39.7572 66.5762 40.4727 66.9066 41.0605 67.5674C41.6484 68.2282 41.9424 69.1488 41.9424 70.3291C41.9424 71.5413 41.6462 72.4847 41.0537 73.1592C40.4613 73.8291 39.7435 74.1641 38.9004 74.1641C38.4993 74.1641 38.1348 74.0843 37.8066 73.9248C37.4831 73.7653 37.1413 73.4919 36.7812 73.1045V76.7617H34.8604V66.7402ZM36.7607 70.2471C36.7607 71.0628 36.9225 71.6667 37.2461 72.0586C37.5697 72.446 37.9639 72.6396 38.4287 72.6396C38.8753 72.6396 39.2467 72.4619 39.543 72.1064C39.8392 71.7464 39.9873 71.1585 39.9873 70.3428C39.9873 69.5817 39.8346 69.0166 39.5293 68.6475C39.224 68.2783 38.8457 68.0938 38.3945 68.0938C37.9251 68.0938 37.5355 68.276 37.2256 68.6406C36.9157 69.0007 36.7607 69.5361 36.7607 70.2471ZM43.4736 74V63.9785H45.3945V74H43.4736ZM48.8057 68.9551L47.0625 68.6406C47.2585 67.9388 47.5957 67.4193 48.0742 67.082C48.5527 66.7448 49.2637 66.5762 50.207 66.5762C51.0638 66.5762 51.7018 66.6787 52.1211 66.8838C52.5404 67.0843 52.8343 67.3418 53.0029 67.6562C53.1761 67.9661 53.2627 68.5381 53.2627 69.3721L53.2422 71.6143C53.2422 72.2523 53.2718 72.724 53.3311 73.0293C53.3949 73.3301 53.5111 73.6536 53.6797 74H51.7793C51.7292 73.8724 51.6676 73.6833 51.5947 73.4326C51.5628 73.3187 51.54 73.2435 51.5264 73.207C51.1982 73.526 50.8473 73.7653 50.4736 73.9248C50.0999 74.0843 49.7012 74.1641 49.2773 74.1641C48.5299 74.1641 47.9398 73.9613 47.5068 73.5557C47.0785 73.1501 46.8643 72.6374 46.8643 72.0176C46.8643 71.6074 46.9622 71.2428 47.1582 70.9238C47.3542 70.6003 47.6276 70.3542 47.9785 70.1855C48.334 70.0124 48.8444 69.862 49.5098 69.7344C50.4076 69.5658 51.0296 69.4085 51.376 69.2627V69.0713C51.376 68.7021 51.2848 68.4401 51.1025 68.2852C50.9202 68.1257 50.5762 68.0459 50.0703 68.0459C49.7285 68.0459 49.4619 68.1143 49.2705 68.251C49.0791 68.3831 48.9242 68.6178 48.8057 68.9551ZM51.376 70.5137C51.1299 70.5957 50.7402 70.6937 50.207 70.8076C49.6738 70.9215 49.3252 71.0332 49.1611 71.1426C48.9105 71.3203 48.7852 71.5459 48.7852 71.8193C48.7852 72.0882 48.8854 72.3206 49.0859 72.5166C49.2865 72.7126 49.5417 72.8105 49.8516 72.8105C50.1979 72.8105 50.5283 72.6966 50.8428 72.4688C51.0752 72.2956 51.2279 72.0837 51.3008 71.833C51.3509 71.6689 51.376 71.3568 51.376 70.8965V70.5137ZM61.4932 68.8867L59.5996 69.2285C59.5358 68.8503 59.39 68.5654 59.1621 68.374C58.9388 68.1826 58.6471 68.0869 58.2871 68.0869C57.8086 68.0869 57.4258 68.2533 57.1387 68.5859C56.8561 68.9141 56.7148 69.4655 56.7148 70.2402C56.7148 71.1016 56.8584 71.71 57.1455 72.0654C57.4372 72.4209 57.8268 72.5986 58.3145 72.5986C58.679 72.5986 58.9775 72.4961 59.21 72.291C59.4424 72.0814 59.6064 71.7236 59.7021 71.2178L61.5889 71.5391C61.3929 72.4049 61.0169 73.0589 60.4609 73.501C59.9049 73.943 59.1598 74.1641 58.2256 74.1641C57.1637 74.1641 56.3161 73.8291 55.6826 73.1592C55.0537 72.4893 54.7393 71.5618 54.7393 70.377C54.7393 69.1784 55.056 68.2464 55.6895 67.5811C56.3229 66.9111 57.1797 66.5762 58.2598 66.5762C59.1439 66.5762 59.8457 66.7676 60.3652 67.1504C60.8893 67.5286 61.2653 68.1074 61.4932 68.8867ZM67.1602 71.6895L69.0742 72.0107C68.8281 72.7126 68.4385 73.248 67.9053 73.6172C67.3766 73.9818 66.7135 74.1641 65.916 74.1641C64.6536 74.1641 63.7194 73.7516 63.1133 72.9268C62.6348 72.266 62.3955 71.432 62.3955 70.4248C62.3955 69.2217 62.71 68.2806 63.3389 67.6016C63.9678 66.918 64.763 66.5762 65.7246 66.5762C66.8047 66.5762 67.6569 66.9339 68.2812 67.6494C68.9056 68.3604 69.2041 69.4518 69.1768 70.9238H64.3643C64.3779 71.4935 64.5329 71.9378 64.8291 72.2568C65.1253 72.5713 65.4945 72.7285 65.9365 72.7285C66.2373 72.7285 66.4902 72.6465 66.6953 72.4824C66.9004 72.3184 67.0553 72.054 67.1602 71.6895ZM67.2695 69.748C67.2559 69.1921 67.1123 68.7705 66.8389 68.4834C66.5654 68.1917 66.2327 68.0459 65.8408 68.0459C65.4215 68.0459 65.0752 68.1986 64.8018 68.5039C64.5283 68.8092 64.3939 69.224 64.3984 69.748H67.2695ZM70.6055 66.7402H72.376V67.7314C73.0094 66.9613 73.7637 66.5762 74.6387 66.5762C75.1035 66.5762 75.5068 66.6719 75.8486 66.8633C76.1904 67.0547 76.4707 67.3441 76.6895 67.7314C77.0085 67.3441 77.3525 67.0547 77.7217 66.8633C78.0908 66.6719 78.485 66.5762 78.9043 66.5762C79.4375 66.5762 79.8887 66.6855 80.2578 66.9043C80.627 67.1185 80.9027 67.4352 81.085 67.8545C81.2171 68.1644 81.2832 68.6657 81.2832 69.3584V74H79.3623V69.8506C79.3623 69.1305 79.2962 68.6657 79.1641 68.4561C78.9863 68.1826 78.7129 68.0459 78.3438 68.0459C78.0749 68.0459 77.8219 68.1279 77.585 68.292C77.348 68.4561 77.1771 68.6976 77.0723 69.0166C76.9674 69.3311 76.915 69.8301 76.915 70.5137V74H74.9941V70.0215C74.9941 69.3151 74.96 68.8594 74.8916 68.6543C74.8232 68.4492 74.7161 68.2965 74.5703 68.1963C74.429 68.096 74.2354 68.0459 73.9893 68.0459C73.693 68.0459 73.4264 68.1257 73.1895 68.2852C72.9525 68.4447 72.7816 68.6748 72.6768 68.9756C72.5765 69.2764 72.5264 69.7754 72.5264 70.4727V74H70.6055V66.7402ZM87.4082 71.6895L89.3223 72.0107C89.0762 72.7126 88.6865 73.248 88.1533 73.6172C87.6247 73.9818 86.9616 74.1641 86.1641 74.1641C84.9017 74.1641 83.9674 73.7516 83.3613 72.9268C82.8828 72.266 82.6436 71.432 82.6436 70.4248C82.6436 69.2217 82.958 68.2806 83.5869 67.6016C84.2158 66.918 85.0111 66.5762 85.9727 66.5762C87.0527 66.5762 87.9049 66.9339 88.5293 67.6494C89.1536 68.3604 89.4521 69.4518 89.4248 70.9238H84.6123C84.626 71.4935 84.7809 71.9378 85.0771 72.2568C85.3734 72.5713 85.7425 72.7285 86.1846 72.7285C86.4854 72.7285 86.7383 72.6465 86.9434 72.4824C87.1484 72.3184 87.3034 72.054 87.4082 71.6895ZM87.5176 69.748C87.5039 69.1921 87.3604 68.7705 87.0869 68.4834C86.8135 68.1917 86.4808 68.0459 86.0889 68.0459C85.6696 68.0459 85.3232 68.1986 85.0498 68.5039C84.7764 68.8092 84.6419 69.224 84.6465 69.748H87.5176ZM97.6006 74H95.6797V70.2949C95.6797 69.5111 95.6387 69.0052 95.5566 68.7773C95.4746 68.5449 95.3402 68.3649 95.1533 68.2373C94.971 68.1097 94.75 68.0459 94.4902 68.0459C94.1576 68.0459 93.859 68.137 93.5947 68.3193C93.3304 68.5016 93.1481 68.7432 93.0479 69.0439C92.9521 69.3447 92.9043 69.9007 92.9043 70.7119V74H90.9834V66.7402H92.7676V67.8066C93.401 66.9863 94.1986 66.5762 95.1602 66.5762C95.584 66.5762 95.9714 66.6536 96.3223 66.8086C96.6732 66.959 96.9375 67.1527 97.1152 67.3896C97.2975 67.6266 97.4229 67.8955 97.4912 68.1963C97.5641 68.4971 97.6006 68.9277 97.6006 69.4883V74ZM102.885 66.7402V68.2715H101.572V71.1973C101.572 71.7897 101.584 72.1361 101.606 72.2363C101.634 72.332 101.691 72.4118 101.777 72.4756C101.868 72.5394 101.978 72.5713 102.105 72.5713C102.283 72.5713 102.541 72.5098 102.878 72.3867L103.042 73.877C102.595 74.0684 102.09 74.1641 101.524 74.1641C101.178 74.1641 100.866 74.1071 100.588 73.9932C100.31 73.8747 100.105 73.7243 99.9727 73.542C99.8451 73.3551 99.7562 73.1045 99.7061 72.79C99.665 72.5667 99.6445 72.1156 99.6445 71.4365V68.2715H98.7627V66.7402H99.6445V65.2979L101.572 64.1768V66.7402H102.885ZM114.772 74H112.988V72.9336C112.692 73.3483 112.341 73.6582 111.936 73.8633C111.535 74.0638 111.129 74.1641 110.719 74.1641C109.885 74.1641 109.169 73.8291 108.572 73.1592C107.98 72.4847 107.684 71.5459 107.684 70.3428C107.684 69.1123 107.973 68.1781 108.552 67.54C109.131 66.8975 109.862 66.5762 110.746 66.5762C111.557 66.5762 112.259 66.9134 112.852 67.5879V63.9785H114.772V74ZM109.646 70.2129C109.646 70.9876 109.753 71.5482 109.967 71.8945C110.277 72.3958 110.71 72.6465 111.266 72.6465C111.708 72.6465 112.084 72.4596 112.394 72.0859C112.703 71.7077 112.858 71.1449 112.858 70.3975C112.858 69.5635 112.708 68.9642 112.407 68.5996C112.106 68.2305 111.721 68.0459 111.252 68.0459C110.796 68.0459 110.413 68.2282 110.104 68.5928C109.798 68.9528 109.646 69.4928 109.646 70.2129ZM120.877 71.6895L122.791 72.0107C122.545 72.7126 122.155 73.248 121.622 73.6172C121.093 73.9818 120.43 74.1641 119.633 74.1641C118.37 74.1641 117.436 73.7516 116.83 72.9268C116.352 72.266 116.112 71.432 116.112 70.4248C116.112 69.2217 116.427 68.2806 117.056 67.6016C117.685 66.918 118.48 66.5762 119.441 66.5762C120.521 66.5762 121.374 66.9339 121.998 67.6494C122.622 68.3604 122.921 69.4518 122.894 70.9238H118.081C118.095 71.4935 118.25 71.9378 118.546 72.2568C118.842 72.5713 119.211 72.7285 119.653 72.7285C119.954 72.7285 120.207 72.6465 120.412 72.4824C120.617 72.3184 120.772 72.054 120.877 71.6895ZM120.986 69.748C120.973 69.1921 120.829 68.7705 120.556 68.4834C120.282 68.1917 119.95 68.0459 119.558 68.0459C119.138 68.0459 118.792 68.1986 118.519 68.5039C118.245 68.8092 118.111 69.224 118.115 69.748H120.986ZM128.362 74V63.9785H130.283V74H128.362ZM133.694 68.9551L131.951 68.6406C132.147 67.9388 132.484 67.4193 132.963 67.082C133.441 66.7448 134.152 66.5762 135.096 66.5762C135.952 66.5762 136.59 66.6787 137.01 66.8838C137.429 67.0843 137.723 67.3418 137.892 67.6562C138.065 67.9661 138.151 68.5381 138.151 69.3721L138.131 71.6143C138.131 72.2523 138.16 72.724 138.22 73.0293C138.284 73.3301 138.4 73.6536 138.568 74H136.668C136.618 73.8724 136.556 73.6833 136.483 73.4326C136.451 73.3187 136.429 73.2435 136.415 73.207C136.087 73.526 135.736 73.7653 135.362 73.9248C134.989 74.0843 134.59 74.1641 134.166 74.1641C133.419 74.1641 132.828 73.9613 132.396 73.5557C131.967 73.1501 131.753 72.6374 131.753 72.0176C131.753 71.6074 131.851 71.2428 132.047 70.9238C132.243 70.6003 132.516 70.3542 132.867 70.1855C133.223 70.0124 133.733 69.862 134.398 69.7344C135.296 69.5658 135.918 69.4085 136.265 69.2627V69.0713C136.265 68.7021 136.174 68.4401 135.991 68.2852C135.809 68.1257 135.465 68.0459 134.959 68.0459C134.617 68.0459 134.351 68.1143 134.159 68.251C133.968 68.3831 133.813 68.6178 133.694 68.9551ZM136.265 70.5137C136.019 70.5957 135.629 70.6937 135.096 70.8076C134.562 70.9215 134.214 71.0332 134.05 71.1426C133.799 71.3203 133.674 71.5459 133.674 71.8193C133.674 72.0882 133.774 72.3206 133.975 72.5166C134.175 72.7126 134.43 72.8105 134.74 72.8105C135.087 72.8105 135.417 72.6966 135.731 72.4688C135.964 72.2956 136.117 72.0837 136.189 71.833C136.24 71.6689 136.265 71.3568 136.265 70.8965V70.5137ZM143.107 66.7402H144.174V66.1934C144.174 65.5827 144.238 65.127 144.365 64.8262C144.497 64.5254 144.737 64.2816 145.083 64.0947C145.434 63.9033 145.876 63.8076 146.409 63.8076C146.956 63.8076 147.492 63.8896 148.016 64.0537L147.756 65.3936C147.451 65.3206 147.157 65.2842 146.874 65.2842C146.596 65.2842 146.396 65.3503 146.272 65.4824C146.154 65.61 146.095 65.8584 146.095 66.2275V66.7402H147.53V68.251H146.095V74H144.174V68.251H143.107V66.7402ZM148.166 70.2676C148.166 69.6296 148.323 69.012 148.638 68.415C148.952 67.818 149.396 67.3623 149.971 67.0479C150.549 66.7334 151.194 66.5762 151.905 66.5762C153.004 66.5762 153.904 66.9339 154.605 67.6494C155.307 68.3604 155.658 69.2604 155.658 70.3496C155.658 71.4479 155.303 72.3594 154.592 73.084C153.885 73.804 152.994 74.1641 151.919 74.1641C151.254 74.1641 150.618 74.0137 150.012 73.7129C149.41 73.4121 148.952 72.9723 148.638 72.3936C148.323 71.8102 148.166 71.1016 148.166 70.2676ZM150.135 70.3701C150.135 71.0902 150.306 71.6416 150.647 72.0244C150.989 72.4072 151.411 72.5986 151.912 72.5986C152.413 72.5986 152.833 72.4072 153.17 72.0244C153.512 71.6416 153.683 71.0856 153.683 70.3564C153.683 69.6455 153.512 69.0986 153.17 68.7158C152.833 68.333 152.413 68.1416 151.912 68.1416C151.411 68.1416 150.989 68.333 150.647 68.7158C150.306 69.0986 150.135 69.6501 150.135 70.3701ZM159.008 74H157.087V66.7402H158.871V67.7725C159.176 67.2848 159.45 66.9635 159.691 66.8086C159.938 66.6536 160.215 66.5762 160.525 66.5762C160.963 66.5762 161.384 66.6969 161.79 66.9385L161.195 68.6133C160.872 68.4036 160.571 68.2988 160.293 68.2988C160.024 68.2988 159.796 68.374 159.609 68.5244C159.423 68.6702 159.274 68.9368 159.165 69.3242C159.06 69.7116 159.008 70.5228 159.008 71.7578V74ZM162.48 66.7402H164.251V67.7314C164.884 66.9613 165.639 66.5762 166.514 66.5762C166.979 66.5762 167.382 66.6719 167.724 66.8633C168.065 67.0547 168.346 67.3441 168.564 67.7314C168.883 67.3441 169.228 67.0547 169.597 66.8633C169.966 66.6719 170.36 66.5762 170.779 66.5762C171.312 66.5762 171.764 66.6855 172.133 66.9043C172.502 67.1185 172.778 67.4352 172.96 67.8545C173.092 68.1644 173.158 68.6657 173.158 69.3584V74H171.237V69.8506C171.237 69.1305 171.171 68.6657 171.039 68.4561C170.861 68.1826 170.588 68.0459 170.219 68.0459C169.95 68.0459 169.697 68.1279 169.46 68.292C169.223 68.4561 169.052 68.6976 168.947 69.0166C168.842 69.3311 168.79 69.8301 168.79 70.5137V74H166.869V70.0215C166.869 69.3151 166.835 68.8594 166.767 68.6543C166.698 68.4492 166.591 68.2965 166.445 68.1963C166.304 68.096 166.11 68.0459 165.864 68.0459C165.568 68.0459 165.301 68.1257 165.064 68.2852C164.827 68.4447 164.657 68.6748 164.552 68.9756C164.451 69.2764 164.401 69.7754 164.401 70.4727V74H162.48V66.7402ZM179.283 71.6895L181.197 72.0107C180.951 72.7126 180.562 73.248 180.028 73.6172C179.5 73.9818 178.837 74.1641 178.039 74.1641C176.777 74.1641 175.842 73.7516 175.236 72.9268C174.758 72.266 174.519 71.432 174.519 70.4248C174.519 69.2217 174.833 68.2806 175.462 67.6016C176.091 66.918 176.886 66.5762 177.848 66.5762C178.928 66.5762 179.78 66.9339 180.404 67.6494C181.029 68.3604 181.327 69.4518 181.3 70.9238H176.487C176.501 71.4935 176.656 71.9378 176.952 72.2568C177.248 72.5713 177.618 72.7285 178.06 72.7285C178.36 72.7285 178.613 72.6465 178.818 72.4824C179.023 72.3184 179.178 72.054 179.283 71.6895ZM179.393 69.748C179.379 69.1921 179.235 68.7705 178.962 68.4834C178.688 68.1917 178.356 68.0459 177.964 68.0459C177.545 68.0459 177.198 68.1986 176.925 68.5039C176.651 68.8092 176.517 69.224 176.521 69.748H179.393ZM186.687 74V63.9785H188.607V67.5879C189.2 66.9134 189.902 66.5762 190.713 66.5762C191.597 66.5762 192.328 66.8975 192.907 67.54C193.486 68.1781 193.775 69.0964 193.775 70.2949C193.775 71.5345 193.479 72.4893 192.887 73.1592C192.299 73.8291 191.583 74.1641 190.74 74.1641C190.326 74.1641 189.915 74.0615 189.51 73.8564C189.109 73.6468 188.762 73.3392 188.471 72.9336V74H186.687ZM188.594 70.2129C188.594 70.9648 188.712 71.5208 188.949 71.8809C189.282 72.3913 189.724 72.6465 190.275 72.6465C190.699 72.6465 191.059 72.4665 191.355 72.1064C191.656 71.7419 191.807 71.1699 191.807 70.3906C191.807 69.5612 191.656 68.9642 191.355 68.5996C191.055 68.2305 190.67 68.0459 190.2 68.0459C189.74 68.0459 189.357 68.2259 189.052 68.5859C188.746 68.9414 188.594 69.4837 188.594 70.2129ZM195.327 74V63.9785H197.248V74H195.327ZM200.659 68.9551L198.916 68.6406C199.112 67.9388 199.449 67.4193 199.928 67.082C200.406 66.7448 201.117 66.5762 202.061 66.5762C202.917 66.5762 203.555 66.6787 203.975 66.8838C204.394 67.0843 204.688 67.3418 204.856 67.6562C205.03 67.9661 205.116 68.5381 205.116 69.3721L205.096 71.6143C205.096 72.2523 205.125 72.724 205.185 73.0293C205.248 73.3301 205.365 73.6536 205.533 74H203.633C203.583 73.8724 203.521 73.6833 203.448 73.4326C203.416 73.3187 203.394 73.2435 203.38 73.207C203.052 73.526 202.701 73.7653 202.327 73.9248C201.953 74.0843 201.555 74.1641 201.131 74.1641C200.383 74.1641 199.793 73.9613 199.36 73.5557C198.932 73.1501 198.718 72.6374 198.718 72.0176C198.718 71.6074 198.816 71.2428 199.012 70.9238C199.208 70.6003 199.481 70.3542 199.832 70.1855C200.188 70.0124 200.698 69.862 201.363 69.7344C202.261 69.5658 202.883 69.4085 203.229 69.2627V69.0713C203.229 68.7021 203.138 68.4401 202.956 68.2852C202.774 68.1257 202.43 68.0459 201.924 68.0459C201.582 68.0459 201.315 68.1143 201.124 68.251C200.933 68.3831 200.778 68.6178 200.659 68.9551ZM203.229 70.5137C202.983 70.5957 202.594 70.6937 202.061 70.8076C201.527 70.9215 201.179 71.0332 201.015 71.1426C200.764 71.3203 200.639 71.5459 200.639 71.8193C200.639 72.0882 200.739 72.3206 200.939 72.5166C201.14 72.7126 201.395 72.8105 201.705 72.8105C202.051 72.8105 202.382 72.6966 202.696 72.4688C202.929 72.2956 203.081 72.0837 203.154 71.833C203.204 71.6689 203.229 71.3568 203.229 70.8965V70.5137ZM213.62 74H211.699V70.2949C211.699 69.5111 211.658 69.0052 211.576 68.7773C211.494 68.5449 211.36 68.3649 211.173 68.2373C210.991 68.1097 210.77 68.0459 210.51 68.0459C210.177 68.0459 209.879 68.137 209.614 68.3193C209.35 68.5016 209.168 68.7432 209.067 69.0439C208.972 69.3447 208.924 69.9007 208.924 70.7119V74H207.003V66.7402H208.787V67.8066C209.421 66.9863 210.218 66.5762 211.18 66.5762C211.604 66.5762 211.991 66.6536 212.342 66.8086C212.693 66.959 212.957 67.1527 213.135 67.3896C213.317 67.6266 213.442 67.8955 213.511 68.1963C213.584 68.4971 213.62 68.9277 213.62 69.4883V74ZM221.905 68.8867L220.012 69.2285C219.948 68.8503 219.802 68.5654 219.574 68.374C219.351 68.1826 219.059 68.0869 218.699 68.0869C218.221 68.0869 217.838 68.2533 217.551 68.5859C217.268 68.9141 217.127 69.4655 217.127 70.2402C217.127 71.1016 217.271 71.71 217.558 72.0654C217.849 72.4209 218.239 72.5986 218.727 72.5986C219.091 72.5986 219.39 72.4961 219.622 72.291C219.854 72.0814 220.019 71.7236 220.114 71.2178L222.001 71.5391C221.805 72.4049 221.429 73.0589 220.873 73.501C220.317 73.943 219.572 74.1641 218.638 74.1641C217.576 74.1641 216.728 73.8291 216.095 73.1592C215.466 72.4893 215.151 71.5618 215.151 70.377C215.151 69.1784 215.468 68.2464 216.102 67.5811C216.735 66.9111 217.592 66.5762 218.672 66.5762C219.556 66.5762 220.258 66.7676 220.777 67.1504C221.301 67.5286 221.677 68.1074 221.905 68.8867ZM225.282 63.9785V67.6631C225.902 66.9385 226.643 66.5762 227.504 66.5762C227.946 66.5762 228.345 66.6582 228.7 66.8223C229.056 66.9863 229.322 67.196 229.5 67.4512C229.682 67.7064 229.805 67.9889 229.869 68.2988C229.938 68.6087 229.972 69.0895 229.972 69.7412V74H228.051V70.165C228.051 69.404 228.014 68.9209 227.941 68.7158C227.868 68.5107 227.739 68.349 227.552 68.2305C227.369 68.1074 227.139 68.0459 226.861 68.0459C226.542 68.0459 226.257 68.1234 226.007 68.2783C225.756 68.4333 225.572 68.668 225.453 68.9824C225.339 69.2923 225.282 69.7526 225.282 70.3633V74H223.361V63.9785H225.282ZM236.131 71.6895L238.045 72.0107C237.799 72.7126 237.409 73.248 236.876 73.6172C236.347 73.9818 235.684 74.1641 234.887 74.1641C233.624 74.1641 232.69 73.7516 232.084 72.9268C231.605 72.266 231.366 71.432 231.366 70.4248C231.366 69.2217 231.681 68.2806 232.31 67.6016C232.938 66.918 233.734 66.5762 234.695 66.5762C235.775 66.5762 236.628 66.9339 237.252 67.6494C237.876 68.3604 238.175 69.4518 238.147 70.9238H233.335C233.349 71.4935 233.504 71.9378 233.8 72.2568C234.096 72.5713 234.465 72.7285 234.907 72.7285C235.208 72.7285 235.461 72.6465 235.666 72.4824C235.871 72.3184 236.026 72.054 236.131 71.6895ZM236.24 69.748C236.227 69.1921 236.083 68.7705 235.81 68.4834C235.536 68.1917 235.203 68.0459 234.812 68.0459C234.392 68.0459 234.046 68.1986 233.772 68.5039C233.499 68.8092 233.365 69.224 233.369 69.748H236.24ZM250.274 74H248.49V72.9336C248.194 73.3483 247.843 73.6582 247.438 73.8633C247.036 74.0638 246.631 74.1641 246.221 74.1641C245.387 74.1641 244.671 73.8291 244.074 73.1592C243.482 72.4847 243.186 71.5459 243.186 70.3428C243.186 69.1123 243.475 68.1781 244.054 67.54C244.632 66.8975 245.364 66.5762 246.248 66.5762C247.059 66.5762 247.761 66.9134 248.354 67.5879V63.9785H250.274V74ZM245.147 70.2129C245.147 70.9876 245.255 71.5482 245.469 71.8945C245.779 72.3958 246.212 72.6465 246.768 72.6465C247.21 72.6465 247.586 72.4596 247.896 72.0859C248.205 71.7077 248.36 71.1449 248.36 70.3975C248.36 69.5635 248.21 68.9642 247.909 68.5996C247.608 68.2305 247.223 68.0459 246.754 68.0459C246.298 68.0459 245.915 68.2282 245.605 68.5928C245.3 68.9528 245.147 69.4928 245.147 70.2129ZM252.161 67.54L251.799 65.6738V63.9785H253.891V65.6738L253.576 67.54H252.161ZM260.289 74V72.9131C260.025 73.3005 259.676 73.6058 259.243 73.8291C258.815 74.0524 258.361 74.1641 257.883 74.1641C257.395 74.1641 256.958 74.057 256.57 73.8428C256.183 73.6286 255.903 73.3278 255.729 72.9404C255.556 72.5531 255.47 72.0176 255.47 71.334V66.7402H257.391V70.0762C257.391 71.097 257.425 71.7236 257.493 71.9561C257.566 72.1839 257.696 72.3662 257.883 72.5029C258.07 72.6351 258.307 72.7012 258.594 72.7012C258.922 72.7012 259.216 72.6123 259.476 72.4346C259.735 72.2523 259.913 72.029 260.009 71.7646C260.104 71.4958 260.152 70.8418 260.152 69.8027V66.7402H262.073V74H260.289ZM270.673 74H268.752V70.2949C268.752 69.5111 268.711 69.0052 268.629 68.7773C268.547 68.5449 268.412 68.3649 268.226 68.2373C268.043 68.1097 267.822 68.0459 267.562 68.0459C267.23 68.0459 266.931 68.137 266.667 68.3193C266.403 68.5016 266.22 68.7432 266.12 69.0439C266.024 69.3447 265.977 69.9007 265.977 70.7119V74H264.056V66.7402H265.84V67.8066C266.473 66.9863 267.271 66.5762 268.232 66.5762C268.656 66.5762 269.044 66.6536 269.395 66.8086C269.745 66.959 270.01 67.1527 270.188 67.3896C270.37 67.6266 270.495 67.8955 270.563 68.1963C270.636 68.4971 270.673 68.9277 270.673 69.4883V74ZM276.832 71.6895L278.746 72.0107C278.5 72.7126 278.11 73.248 277.577 73.6172C277.049 73.9818 276.385 74.1641 275.588 74.1641C274.326 74.1641 273.391 73.7516 272.785 72.9268C272.307 72.266 272.067 71.432 272.067 70.4248C272.067 69.2217 272.382 68.2806 273.011 67.6016C273.64 66.918 274.435 66.5762 275.396 66.5762C276.477 66.5762 277.329 66.9339 277.953 67.6494C278.577 68.3604 278.876 69.4518 278.849 70.9238H274.036C274.05 71.4935 274.205 71.9378 274.501 72.2568C274.797 72.5713 275.166 72.7285 275.608 72.7285C275.909 72.7285 276.162 72.6465 276.367 72.4824C276.572 72.3184 276.727 72.054 276.832 71.6895ZM276.941 69.748C276.928 69.1921 276.784 68.7705 276.511 68.4834C276.237 68.1917 275.905 68.0459 275.513 68.0459C275.093 68.0459 274.747 68.1986 274.474 68.5039C274.2 68.8092 274.066 69.224 274.07 69.748H276.941ZM290.647 68.8867L288.754 69.2285C288.69 68.8503 288.544 68.5654 288.316 68.374C288.093 68.1826 287.801 68.0869 287.441 68.0869C286.963 68.0869 286.58 68.2533 286.293 68.5859C286.01 68.9141 285.869 69.4655 285.869 70.2402C285.869 71.1016 286.013 71.71 286.3 72.0654C286.591 72.4209 286.981 72.5986 287.469 72.5986C287.833 72.5986 288.132 72.4961 288.364 72.291C288.597 72.0814 288.761 71.7236 288.856 71.2178L290.743 71.5391C290.547 72.4049 290.171 73.0589 289.615 73.501C289.059 73.943 288.314 74.1641 287.38 74.1641C286.318 74.1641 285.47 73.8291 284.837 73.1592C284.208 72.4893 283.894 71.5618 283.894 70.377C283.894 69.1784 284.21 68.2464 284.844 67.5811C285.477 66.9111 286.334 66.5762 287.414 66.5762C288.298 66.5762 289 66.7676 289.52 67.1504C290.044 67.5286 290.42 68.1074 290.647 68.8867ZM296.314 71.6895L298.229 72.0107C297.982 72.7126 297.593 73.248 297.06 73.6172C296.531 73.9818 295.868 74.1641 295.07 74.1641C293.808 74.1641 292.874 73.7516 292.268 72.9268C291.789 72.266 291.55 71.432 291.55 70.4248C291.55 69.2217 291.864 68.2806 292.493 67.6016C293.122 66.918 293.917 66.5762 294.879 66.5762C295.959 66.5762 296.811 66.9339 297.436 67.6494C298.06 68.3604 298.358 69.4518 298.331 70.9238H293.519C293.532 71.4935 293.687 71.9378 293.983 72.2568C294.28 72.5713 294.649 72.7285 295.091 72.7285C295.392 72.7285 295.645 72.6465 295.85 72.4824C296.055 72.3184 296.21 72.054 296.314 71.6895ZM296.424 69.748C296.41 69.1921 296.267 68.7705 295.993 68.4834C295.72 68.1917 295.387 68.0459 294.995 68.0459C294.576 68.0459 294.229 68.1986 293.956 68.5039C293.683 68.8092 293.548 69.224 293.553 69.748H296.424ZM299.903 74V63.9785H301.824V74H299.903ZM303.8 74V63.9785H305.721V74H303.8ZM312.475 74V72.9131C312.21 73.3005 311.862 73.6058 311.429 73.8291C311 74.0524 310.547 74.1641 310.068 74.1641C309.581 74.1641 309.143 74.057 308.756 73.8428C308.368 73.6286 308.088 73.3278 307.915 72.9404C307.742 72.5531 307.655 72.0176 307.655 71.334V66.7402H309.576V70.0762C309.576 71.097 309.61 71.7236 309.679 71.9561C309.752 72.1839 309.882 72.3662 310.068 72.5029C310.255 72.6351 310.492 72.7012 310.779 72.7012C311.107 72.7012 311.401 72.6123 311.661 72.4346C311.921 72.2523 312.099 72.029 312.194 71.7646C312.29 71.4958 312.338 70.8418 312.338 69.8027V66.7402H314.259V74H312.475ZM316.255 74V63.9785H318.176V74H316.255ZM324.355 71.6895L326.27 72.0107C326.023 72.7126 325.634 73.248 325.101 73.6172C324.572 73.9818 323.909 74.1641 323.111 74.1641C321.849 74.1641 320.915 73.7516 320.309 72.9268C319.83 72.266 319.591 71.432 319.591 70.4248C319.591 69.2217 319.905 68.2806 320.534 67.6016C321.163 66.918 321.958 66.5762 322.92 66.5762C324 66.5762 324.852 66.9339 325.477 67.6494C326.101 68.3604 326.399 69.4518 326.372 70.9238H321.56C321.573 71.4935 321.728 71.9378 322.024 72.2568C322.321 72.5713 322.69 72.7285 323.132 72.7285C323.433 72.7285 323.686 72.6465 323.891 72.4824C324.096 72.3184 324.251 72.054 324.355 71.6895ZM324.465 69.748C324.451 69.1921 324.308 68.7705 324.034 68.4834C323.761 68.1917 323.428 68.0459 323.036 68.0459C322.617 68.0459 322.271 68.1986 321.997 68.5039C321.724 68.8092 321.589 69.224 321.594 69.748H324.465ZM333.276 68.9551L331.533 68.6406C331.729 67.9388 332.066 67.4193 332.545 67.082C333.023 66.7448 333.734 66.5762 334.678 66.5762C335.535 66.5762 336.173 66.6787 336.592 66.8838C337.011 67.0843 337.305 67.3418 337.474 67.6562C337.647 67.9661 337.733 68.5381 337.733 69.3721L337.713 71.6143C337.713 72.2523 337.743 72.724 337.802 73.0293C337.866 73.3301 337.982 73.6536 338.15 74H336.25C336.2 73.8724 336.138 73.6833 336.065 73.4326C336.034 73.3187 336.011 73.2435 335.997 73.207C335.669 73.526 335.318 73.7653 334.944 73.9248C334.571 74.0843 334.172 74.1641 333.748 74.1641C333.001 74.1641 332.41 73.9613 331.978 73.5557C331.549 73.1501 331.335 72.6374 331.335 72.0176C331.335 71.6074 331.433 71.2428 331.629 70.9238C331.825 70.6003 332.098 70.3542 332.449 70.1855C332.805 70.0124 333.315 69.862 333.98 69.7344C334.878 69.5658 335.5 69.4085 335.847 69.2627V69.0713C335.847 68.7021 335.756 68.4401 335.573 68.2852C335.391 68.1257 335.047 68.0459 334.541 68.0459C334.199 68.0459 333.933 68.1143 333.741 68.251C333.55 68.3831 333.395 68.6178 333.276 68.9551ZM335.847 70.5137C335.601 70.5957 335.211 70.6937 334.678 70.8076C334.145 70.9215 333.796 71.0332 333.632 71.1426C333.381 71.3203 333.256 71.5459 333.256 71.8193C333.256 72.0882 333.356 72.3206 333.557 72.5166C333.757 72.7126 334.012 72.8105 334.322 72.8105C334.669 72.8105 334.999 72.6966 335.313 72.4688C335.546 72.2956 335.699 72.0837 335.771 71.833C335.822 71.6689 335.847 71.3568 335.847 70.8965V70.5137ZM335.71 65.8516H334.5L332.613 63.8076H334.767L335.71 65.8516ZM348.309 74V72.9131C348.044 73.3005 347.696 73.6058 347.263 73.8291C346.834 74.0524 346.381 74.1641 345.902 74.1641C345.415 74.1641 344.977 74.057 344.59 73.8428C344.202 73.6286 343.922 73.3278 343.749 72.9404C343.576 72.5531 343.489 72.0176 343.489 71.334V66.7402H345.41V70.0762C345.41 71.097 345.444 71.7236 345.513 71.9561C345.586 72.1839 345.715 72.3662 345.902 72.5029C346.089 72.6351 346.326 72.7012 346.613 72.7012C346.941 72.7012 347.235 72.6123 347.495 72.4346C347.755 72.2523 347.933 72.029 348.028 71.7646C348.124 71.4958 348.172 70.8418 348.172 69.8027V66.7402H350.093V74H348.309ZM358.692 74H356.771V70.2949C356.771 69.5111 356.73 69.0052 356.648 68.7773C356.566 68.5449 356.432 68.3649 356.245 68.2373C356.063 68.1097 355.842 68.0459 355.582 68.0459C355.249 68.0459 354.951 68.137 354.687 68.3193C354.422 68.5016 354.24 68.7432 354.14 69.0439C354.044 69.3447 353.996 69.9007 353.996 70.7119V74H352.075V66.7402H353.859V67.8066C354.493 66.9863 355.29 66.5762 356.252 66.5762C356.676 66.5762 357.063 66.6536 357.414 66.8086C357.765 66.959 358.029 67.1527 358.207 67.3896C358.389 67.6266 358.515 67.8955 358.583 68.1963C358.656 68.4971 358.692 68.9277 358.692 69.4883V74ZM364.852 71.6895L366.766 72.0107C366.52 72.7126 366.13 73.248 365.597 73.6172C365.068 73.9818 364.405 74.1641 363.607 74.1641C362.345 74.1641 361.411 73.7516 360.805 72.9268C360.326 72.266 360.087 71.432 360.087 70.4248C360.087 69.2217 360.401 68.2806 361.03 67.6016C361.659 66.918 362.454 66.5762 363.416 66.5762C364.496 66.5762 365.348 66.9339 365.973 67.6494C366.597 68.3604 366.896 69.4518 366.868 70.9238H362.056C362.069 71.4935 362.224 71.9378 362.521 72.2568C362.817 72.5713 363.186 72.7285 363.628 72.7285C363.929 72.7285 364.182 72.6465 364.387 72.4824C364.592 72.3184 364.747 72.054 364.852 71.6895ZM364.961 69.748C364.947 69.1921 364.804 68.7705 364.53 68.4834C364.257 68.1917 363.924 68.0459 363.532 68.0459C363.113 68.0459 362.767 68.1986 362.493 68.5039C362.22 68.8092 362.085 69.224 362.09 69.748H364.961ZM373.772 68.9551L372.029 68.6406C372.225 67.9388 372.562 67.4193 373.041 67.082C373.52 66.7448 374.23 66.5762 375.174 66.5762C376.031 66.5762 376.669 66.6787 377.088 66.8838C377.507 67.0843 377.801 67.3418 377.97 67.6562C378.143 67.9661 378.229 68.5381 378.229 69.3721L378.209 71.6143C378.209 72.2523 378.239 72.724 378.298 73.0293C378.362 73.3301 378.478 73.6536 378.646 74H376.746C376.696 73.8724 376.634 73.6833 376.562 73.4326C376.53 73.3187 376.507 73.2435 376.493 73.207C376.165 73.526 375.814 73.7653 375.44 73.9248C375.067 74.0843 374.668 74.1641 374.244 74.1641C373.497 74.1641 372.907 73.9613 372.474 73.5557C372.045 73.1501 371.831 72.6374 371.831 72.0176C371.831 71.6074 371.929 71.2428 372.125 70.9238C372.321 70.6003 372.594 70.3542 372.945 70.1855C373.301 70.0124 373.811 69.862 374.477 69.7344C375.374 69.5658 375.996 69.4085 376.343 69.2627V69.0713C376.343 68.7021 376.252 68.4401 376.069 68.2852C375.887 68.1257 375.543 68.0459 375.037 68.0459C374.695 68.0459 374.429 68.1143 374.237 68.251C374.046 68.3831 373.891 68.6178 373.772 68.9551ZM376.343 70.5137C376.097 70.5957 375.707 70.6937 375.174 70.8076C374.641 70.9215 374.292 71.0332 374.128 71.1426C373.877 71.3203 373.752 71.5459 373.752 71.8193C373.752 72.0882 373.852 72.3206 374.053 72.5166C374.253 72.7126 374.508 72.8105 374.818 72.8105C375.165 72.8105 375.495 72.6966 375.81 72.4688C376.042 72.2956 376.195 72.0837 376.268 71.833C376.318 71.6689 376.343 71.3568 376.343 70.8965V70.5137ZM384.908 74V72.9131C384.644 73.3005 384.295 73.6058 383.862 73.8291C383.434 74.0524 382.98 74.1641 382.502 74.1641C382.014 74.1641 381.577 74.057 381.189 73.8428C380.802 73.6286 380.522 73.3278 380.349 72.9404C380.175 72.5531 380.089 72.0176 380.089 71.334V66.7402H382.01V70.0762C382.01 71.097 382.044 71.7236 382.112 71.9561C382.185 72.1839 382.315 72.3662 382.502 72.5029C382.689 72.6351 382.926 72.7012 383.213 72.7012C383.541 72.7012 383.835 72.6123 384.095 72.4346C384.354 72.2523 384.532 72.029 384.628 71.7646C384.724 71.4958 384.771 70.8418 384.771 69.8027V66.7402H386.692V74H384.908ZM392.018 66.7402V68.2715H390.705V71.1973C390.705 71.7897 390.716 72.1361 390.739 72.2363C390.767 72.332 390.824 72.4118 390.91 72.4756C391.001 72.5394 391.111 72.5713 391.238 72.5713C391.416 72.5713 391.674 72.5098 392.011 72.3867L392.175 73.877C391.728 74.0684 391.222 74.1641 390.657 74.1641C390.311 74.1641 389.999 74.1071 389.721 73.9932C389.443 73.8747 389.238 73.7243 389.105 73.542C388.978 73.3551 388.889 73.1045 388.839 72.79C388.798 72.5667 388.777 72.1156 388.777 71.4365V68.2715H387.896V66.7402H388.777V65.2979L390.705 64.1768V66.7402H392.018ZM395.189 74H393.269V66.7402H395.053V67.7725C395.358 67.2848 395.632 66.9635 395.873 66.8086C396.119 66.6536 396.397 66.5762 396.707 66.5762C397.145 66.5762 397.566 66.6969 397.972 66.9385L397.377 68.6133C397.053 68.4036 396.753 68.2988 396.475 68.2988C396.206 68.2988 395.978 68.374 395.791 68.5244C395.604 68.6702 395.456 68.9368 395.347 69.3242C395.242 69.7116 395.189 70.5228 395.189 71.7578V74ZM403.01 71.6895L404.924 72.0107C404.678 72.7126 404.288 73.248 403.755 73.6172C403.226 73.9818 402.563 74.1641 401.766 74.1641C400.503 74.1641 399.569 73.7516 398.963 72.9268C398.484 72.266 398.245 71.432 398.245 70.4248C398.245 69.2217 398.56 68.2806 399.188 67.6016C399.817 66.918 400.613 66.5762 401.574 66.5762C402.654 66.5762 403.507 66.9339 404.131 67.6494C404.755 68.3604 405.054 69.4518 405.026 70.9238H400.214C400.228 71.4935 400.382 71.9378 400.679 72.2568C400.975 72.5713 401.344 72.7285 401.786 72.7285C402.087 72.7285 402.34 72.6465 402.545 72.4824C402.75 72.3184 402.905 72.054 403.01 71.6895ZM403.119 69.748C403.105 69.1921 402.962 68.7705 402.688 68.4834C402.415 68.1917 402.082 68.0459 401.69 68.0459C401.271 68.0459 400.925 68.1986 400.651 68.5039C400.378 68.8092 400.243 69.224 400.248 69.748H403.119ZM406.599 74V72.0791H408.52V74H406.599ZM17.0117 87.9785H20.71C21.5439 87.9785 22.1797 88.0423 22.6172 88.1699C23.2051 88.3431 23.7087 88.6507 24.1279 89.0928C24.5472 89.5348 24.8662 90.0771 25.085 90.7197C25.3037 91.3577 25.4131 92.1462 25.4131 93.085C25.4131 93.9098 25.3105 94.6208 25.1055 95.2178C24.8548 95.9469 24.4971 96.5371 24.0322 96.9883C23.6813 97.3301 23.2074 97.5967 22.6104 97.7881C22.1637 97.9294 21.5667 98 20.8193 98H17.0117V87.9785ZM19.0352 89.6738V96.3115H20.5459C21.111 96.3115 21.5189 96.2796 21.7695 96.2158C22.0977 96.1338 22.3688 95.9948 22.583 95.7988C22.8018 95.6029 22.9795 95.2816 23.1162 94.835C23.2529 94.3838 23.3213 93.7708 23.3213 92.9961C23.3213 92.2214 23.2529 91.6266 23.1162 91.2119C22.9795 90.7972 22.7881 90.4736 22.542 90.2412C22.2959 90.0088 21.9837 89.8516 21.6055 89.7695C21.3229 89.7057 20.7692 89.6738 19.9443 89.6738H19.0352ZM31.3262 95.6895L33.2402 96.0107C32.9941 96.7126 32.6045 97.248 32.0713 97.6172C31.5426 97.9818 30.8796 98.1641 30.082 98.1641C28.8197 98.1641 27.8854 97.7516 27.2793 96.9268C26.8008 96.266 26.5615 95.432 26.5615 94.4248C26.5615 93.2217 26.876 92.2806 27.5049 91.6016C28.1338 90.918 28.929 90.5762 29.8906 90.5762C30.9707 90.5762 31.8229 90.9339 32.4473 91.6494C33.0716 92.3604 33.3701 93.4518 33.3428 94.9238H28.5303C28.5439 95.4935 28.6989 95.9378 28.9951 96.2568C29.2913 96.5713 29.6605 96.7285 30.1025 96.7285C30.4033 96.7285 30.6562 96.6465 30.8613 96.4824C31.0664 96.3184 31.2214 96.054 31.3262 95.6895ZM31.4355 93.748C31.4219 93.1921 31.2783 92.7705 31.0049 92.4834C30.7314 92.1917 30.3988 92.0459 30.0068 92.0459C29.5876 92.0459 29.2412 92.1986 28.9678 92.5039C28.6943 92.8092 28.5599 93.224 28.5645 93.748H31.4355ZM28.9814 89.8516L29.9248 87.8076H32.0781L30.1982 89.8516H28.9814ZM34.915 98V87.9785H36.8359V98H34.915ZM40.2471 92.9551L38.5039 92.6406C38.6999 91.9388 39.0371 91.4193 39.5156 91.082C39.9941 90.7448 40.7051 90.5762 41.6484 90.5762C42.5052 90.5762 43.1432 90.6787 43.5625 90.8838C43.9818 91.0843 44.2757 91.3418 44.4443 91.6562C44.6175 91.9661 44.7041 92.5381 44.7041 93.3721L44.6836 95.6143C44.6836 96.2523 44.7132 96.724 44.7725 97.0293C44.8363 97.3301 44.9525 97.6536 45.1211 98H43.2207C43.1706 97.8724 43.109 97.6833 43.0361 97.4326C43.0042 97.3187 42.9814 97.2435 42.9678 97.207C42.6396 97.526 42.2887 97.7653 41.915 97.9248C41.5413 98.0843 41.1426 98.1641 40.7188 98.1641C39.9714 98.1641 39.3812 97.9613 38.9482 97.5557C38.5199 97.1501 38.3057 96.6374 38.3057 96.0176C38.3057 95.6074 38.4036 95.2428 38.5996 94.9238C38.7956 94.6003 39.069 94.3542 39.4199 94.1855C39.7754 94.0124 40.2858 93.862 40.9512 93.7344C41.849 93.5658 42.471 93.4085 42.8174 93.2627V93.0713C42.8174 92.7021 42.7262 92.4401 42.5439 92.2852C42.3617 92.1257 42.0176 92.0459 41.5117 92.0459C41.1699 92.0459 40.9033 92.1143 40.7119 92.251C40.5205 92.3831 40.3656 92.6178 40.2471 92.9551ZM42.8174 94.5137C42.5713 94.5957 42.1816 94.6937 41.6484 94.8076C41.1152 94.9215 40.7666 95.0332 40.6025 95.1426C40.3519 95.3203 40.2266 95.5459 40.2266 95.8193C40.2266 96.0882 40.3268 96.3206 40.5273 96.5166C40.7279 96.7126 40.9831 96.8105 41.293 96.8105C41.6393 96.8105 41.9697 96.6966 42.2842 96.4688C42.5166 96.2956 42.6693 96.0837 42.7422 95.833C42.7923 95.6689 42.8174 95.3568 42.8174 94.8965V94.5137ZM46.6045 89.7559V87.9785H48.5254V89.7559H46.6045ZM46.6045 98V90.7402H48.5254V98H46.6045ZM49.8242 95.9287L51.752 95.6348C51.834 96.0085 52.0003 96.2933 52.251 96.4893C52.5016 96.6807 52.8525 96.7764 53.3037 96.7764C53.8005 96.7764 54.1742 96.6852 54.4248 96.5029C54.5934 96.3753 54.6777 96.2044 54.6777 95.9902C54.6777 95.8444 54.6322 95.7236 54.541 95.6279C54.4453 95.5368 54.2311 95.4525 53.8984 95.375C52.349 95.0332 51.3669 94.721 50.9521 94.4385C50.3779 94.0465 50.0908 93.502 50.0908 92.8047C50.0908 92.1758 50.3392 91.6471 50.8359 91.2188C51.3327 90.7904 52.1029 90.5762 53.1465 90.5762C54.14 90.5762 54.8783 90.738 55.3613 91.0615C55.8444 91.3851 56.1771 91.8636 56.3594 92.4971L54.5479 92.832C54.4704 92.5495 54.3223 92.333 54.1035 92.1826C53.8893 92.0322 53.5817 91.957 53.1807 91.957C52.6748 91.957 52.3125 92.0277 52.0938 92.1689C51.9479 92.2692 51.875 92.3991 51.875 92.5586C51.875 92.6953 51.9388 92.8115 52.0664 92.9072C52.2396 93.0348 52.8366 93.2148 53.8574 93.4473C54.8828 93.6797 55.5983 93.9645 56.0039 94.3018C56.4049 94.6436 56.6055 95.1198 56.6055 95.7305C56.6055 96.3958 56.3275 96.9678 55.7715 97.4463C55.2155 97.9248 54.3929 98.1641 53.3037 98.1641C52.3148 98.1641 51.5309 97.9635 50.9521 97.5625C50.3779 97.1615 50.002 96.6169 49.8242 95.9287ZM63.1875 91.3047V89.7031H64.7891V91.3047H63.1875ZM63.1875 98V96.3984H64.7891V98H63.1875ZM71.2432 94.1924V92.791C71.7262 92.2441 72.3597 91.9707 73.1436 91.9707C73.417 91.9707 73.7041 92.0117 74.0049 92.0938C74.3057 92.1712 74.734 92.3285 75.29 92.5654C75.6045 92.6976 75.8392 92.7842 75.9941 92.8252C76.1536 92.8662 76.3132 92.8867 76.4727 92.8867C76.7689 92.8867 77.0742 92.7979 77.3887 92.6201C77.7077 92.4424 77.9902 92.2191 78.2363 91.9502V93.3994C77.9447 93.6729 77.6484 93.8711 77.3477 93.9941C77.0514 94.1172 76.7165 94.1787 76.3428 94.1787C76.0693 94.1787 75.8073 94.1468 75.5566 94.083C75.3105 94.0192 74.9163 93.8665 74.374 93.625C73.8363 93.3835 73.3874 93.2627 73.0273 93.2627C72.7357 93.2627 72.46 93.3265 72.2002 93.4541C71.945 93.5771 71.626 93.8232 71.2432 94.1924ZM84.04 98H82.8096V90.1592C82.5133 90.4417 82.1237 90.7243 81.6406 91.0068C81.1621 91.2894 80.7314 91.5013 80.3486 91.6426V90.4531C81.0368 90.1296 81.6383 89.7376 82.1533 89.2773C82.6683 88.8171 83.0329 88.3704 83.2471 87.9375H84.04V98ZM87.1982 95.375L88.4902 95.2656C88.5859 95.8945 88.807 96.3685 89.1533 96.6875C89.5042 97.002 89.9258 97.1592 90.418 97.1592C91.0104 97.1592 91.5117 96.9359 91.9219 96.4893C92.332 96.0426 92.5371 95.4502 92.5371 94.7119C92.5371 94.0101 92.3389 93.4564 91.9424 93.0508C91.5505 92.6452 91.0355 92.4424 90.3975 92.4424C90.001 92.4424 89.6432 92.5335 89.3242 92.7158C89.0052 92.8936 88.7546 93.126 88.5723 93.4131L87.417 93.2627L88.3877 88.1152H93.3711V89.291H89.3721L88.832 91.9844C89.4336 91.5651 90.0648 91.3555 90.7256 91.3555C91.6006 91.3555 92.3389 91.6585 92.9404 92.2646C93.542 92.8708 93.8428 93.6501 93.8428 94.6025C93.8428 95.5094 93.5785 96.2933 93.0498 96.9541C92.4072 97.7653 91.5299 98.1709 90.418 98.1709C89.5065 98.1709 88.7614 97.9157 88.1826 97.4053C87.6084 96.8949 87.2803 96.2181 87.1982 95.375ZM94.9912 93.0576C94.9912 91.8727 95.112 90.9202 95.3535 90.2002C95.5996 89.4756 95.9619 88.9173 96.4404 88.5254C96.9235 88.1335 97.5296 87.9375 98.2588 87.9375C98.7965 87.9375 99.2682 88.0469 99.6738 88.2656C100.079 88.4798 100.414 88.792 100.679 89.2021C100.943 89.6077 101.15 90.1045 101.301 90.6924C101.451 91.2757 101.526 92.0641 101.526 93.0576C101.526 94.2334 101.406 95.1836 101.164 95.9082C100.923 96.6283 100.56 97.1865 100.077 97.583C99.5986 97.9749 98.9925 98.1709 98.2588 98.1709C97.2926 98.1709 96.5339 97.8245 95.9824 97.1318C95.3216 96.2979 94.9912 94.9398 94.9912 93.0576ZM96.2559 93.0576C96.2559 94.7028 96.4473 95.7988 96.8301 96.3457C97.2174 96.888 97.6937 97.1592 98.2588 97.1592C98.8239 97.1592 99.2979 96.8857 99.6807 96.3389C100.068 95.792 100.262 94.6982 100.262 93.0576C100.262 91.4079 100.068 90.3118 99.6807 89.7695C99.2979 89.2272 98.8193 88.9561 98.2451 88.9561C97.68 88.9561 97.2288 89.1953 96.8916 89.6738C96.4678 90.2845 96.2559 91.4124 96.2559 93.0576ZM103.126 98V90.7402H104.227V91.7588C104.454 91.4033 104.757 91.1185 105.136 90.9043C105.514 90.6855 105.945 90.5762 106.428 90.5762C106.965 90.5762 107.405 90.6878 107.747 90.9111C108.093 91.1344 108.337 91.4466 108.479 91.8477C109.053 91 109.8 90.5762 110.721 90.5762C111.441 90.5762 111.994 90.7767 112.382 91.1777C112.769 91.5742 112.963 92.1872 112.963 93.0166V98H111.739V93.4268C111.739 92.9346 111.698 92.5814 111.616 92.3672C111.539 92.1484 111.395 91.973 111.186 91.8408C110.976 91.7087 110.73 91.6426 110.447 91.6426C109.937 91.6426 109.513 91.8135 109.176 92.1553C108.839 92.4925 108.67 93.0348 108.67 93.7822V98H107.439V93.2832C107.439 92.7363 107.339 92.3262 107.139 92.0527C106.938 91.7793 106.61 91.6426 106.154 91.6426C105.808 91.6426 105.487 91.7337 105.19 91.916C104.899 92.0983 104.687 92.3649 104.555 92.7158C104.423 93.0667 104.356 93.5726 104.356 94.2334V98H103.126ZM114.296 95.833L115.513 95.6416C115.581 96.1292 115.77 96.5029 116.08 96.7627C116.395 97.0225 116.832 97.1523 117.393 97.1523C117.958 97.1523 118.377 97.0384 118.65 96.8105C118.924 96.5781 119.061 96.307 119.061 95.9971C119.061 95.7191 118.94 95.5003 118.698 95.3408C118.53 95.2314 118.11 95.0924 117.44 94.9238C116.538 94.696 115.911 94.5 115.561 94.3359C115.214 94.1673 114.95 93.9372 114.768 93.6455C114.59 93.3493 114.501 93.0234 114.501 92.668C114.501 92.3444 114.574 92.0459 114.72 91.7725C114.87 91.4945 115.073 91.2643 115.328 91.082C115.52 90.9408 115.779 90.8223 116.107 90.7266C116.44 90.6263 116.796 90.5762 117.174 90.5762C117.743 90.5762 118.243 90.6582 118.671 90.8223C119.104 90.9863 119.423 91.2096 119.628 91.4922C119.833 91.7702 119.974 92.1439 120.052 92.6133L118.849 92.7773C118.794 92.4036 118.634 92.112 118.37 91.9023C118.11 91.6927 117.741 91.5879 117.263 91.5879C116.698 91.5879 116.294 91.6813 116.053 91.8682C115.811 92.055 115.69 92.2738 115.69 92.5244C115.69 92.6839 115.741 92.8275 115.841 92.9551C115.941 93.0872 116.098 93.1966 116.312 93.2832C116.436 93.3288 116.798 93.4336 117.399 93.5977C118.27 93.8301 118.876 94.0215 119.218 94.1719C119.564 94.3177 119.835 94.5319 120.031 94.8145C120.227 95.097 120.325 95.4479 120.325 95.8672C120.325 96.2773 120.204 96.6647 119.963 97.0293C119.726 97.3893 119.382 97.6696 118.931 97.8701C118.479 98.0661 117.969 98.1641 117.399 98.1641C116.456 98.1641 115.736 97.9681 115.239 97.5762C114.747 97.1842 114.433 96.6032 114.296 95.833ZM16.9912 118V107.979H20.0195L21.8379 114.814L23.6357 107.979H26.6709V118H24.791V110.111L22.8018 118H20.8535L18.8711 110.111V118H16.9912ZM28.2227 114.268C28.2227 113.63 28.3799 113.012 28.6943 112.415C29.0088 111.818 29.4531 111.362 30.0273 111.048C30.6061 110.733 31.251 110.576 31.9619 110.576C33.0602 110.576 33.9603 110.934 34.6621 111.649C35.3639 112.36 35.7148 113.26 35.7148 114.35C35.7148 115.448 35.3594 116.359 34.6484 117.084C33.9421 117.804 33.0511 118.164 31.9756 118.164C31.3102 118.164 30.6745 118.014 30.0684 117.713C29.4668 117.412 29.0088 116.972 28.6943 116.394C28.3799 115.81 28.2227 115.102 28.2227 114.268ZM30.1914 114.37C30.1914 115.09 30.3623 115.642 30.7041 116.024C31.0459 116.407 31.4674 116.599 31.9688 116.599C32.4701 116.599 32.8893 116.407 33.2266 116.024C33.5684 115.642 33.7393 115.086 33.7393 114.356C33.7393 113.646 33.5684 113.099 33.2266 112.716C32.8893 112.333 32.4701 112.142 31.9688 112.142C31.4674 112.142 31.0459 112.333 30.7041 112.716C30.3623 113.099 30.1914 113.65 30.1914 114.37ZM43.8838 118H42.0996V116.934C41.8034 117.348 41.4525 117.658 41.0469 117.863C40.6458 118.064 40.2402 118.164 39.8301 118.164C38.9961 118.164 38.2806 117.829 37.6836 117.159C37.0911 116.485 36.7949 115.546 36.7949 114.343C36.7949 113.112 37.0843 112.178 37.6631 111.54C38.2419 110.897 38.9733 110.576 39.8574 110.576C40.6686 110.576 41.3704 110.913 41.9629 111.588V107.979H43.8838V118ZM38.7568 114.213C38.7568 114.988 38.8639 115.548 39.0781 115.895C39.388 116.396 39.821 116.646 40.377 116.646C40.819 116.646 41.195 116.46 41.5049 116.086C41.8148 115.708 41.9697 115.145 41.9697 114.397C41.9697 113.563 41.8193 112.964 41.5186 112.6C41.2178 112.23 40.8327 112.046 40.3633 112.046C39.9076 112.046 39.5247 112.228 39.2148 112.593C38.9095 112.953 38.7568 113.493 38.7568 114.213ZM45.7842 109.756V107.979H47.7051V109.756H45.7842ZM45.7842 118V110.74H47.7051V118H45.7842ZM48.8398 110.74H49.9062V110.193C49.9062 109.583 49.9701 109.127 50.0977 108.826C50.2298 108.525 50.4691 108.282 50.8154 108.095C51.1663 107.903 51.6084 107.808 52.1416 107.808C52.6885 107.808 53.224 107.89 53.748 108.054L53.4883 109.394C53.1829 109.321 52.889 109.284 52.6064 109.284C52.3285 109.284 52.1279 109.35 52.0049 109.482C51.8864 109.61 51.8271 109.858 51.8271 110.228V110.74H53.2627V112.251H51.8271V118H49.9062V112.251H48.8398V110.74ZM54.3428 109.756V107.979H56.2637V109.756H54.3428ZM54.3428 118V110.74H56.2637V118H54.3428ZM59.6748 112.955L57.9316 112.641C58.1276 111.939 58.4648 111.419 58.9434 111.082C59.4219 110.745 60.1328 110.576 61.0762 110.576C61.9329 110.576 62.571 110.679 62.9902 110.884C63.4095 111.084 63.7035 111.342 63.8721 111.656C64.0452 111.966 64.1318 112.538 64.1318 113.372L64.1113 115.614C64.1113 116.252 64.141 116.724 64.2002 117.029C64.264 117.33 64.3802 117.654 64.5488 118H62.6484C62.5983 117.872 62.5368 117.683 62.4639 117.433C62.432 117.319 62.4092 117.243 62.3955 117.207C62.0674 117.526 61.7165 117.765 61.3428 117.925C60.9691 118.084 60.5703 118.164 60.1465 118.164C59.3991 118.164 58.8089 117.961 58.376 117.556C57.9476 117.15 57.7334 116.637 57.7334 116.018C57.7334 115.607 57.8314 115.243 58.0273 114.924C58.2233 114.6 58.4967 114.354 58.8477 114.186C59.2031 114.012 59.7135 113.862 60.3789 113.734C61.2767 113.566 61.8988 113.409 62.2451 113.263V113.071C62.2451 112.702 62.154 112.44 61.9717 112.285C61.7894 112.126 61.4453 112.046 60.9395 112.046C60.5977 112.046 60.3311 112.114 60.1396 112.251C59.9482 112.383 59.7933 112.618 59.6748 112.955ZM62.2451 114.514C61.999 114.596 61.6094 114.694 61.0762 114.808C60.543 114.922 60.1943 115.033 60.0303 115.143C59.7796 115.32 59.6543 115.546 59.6543 115.819C59.6543 116.088 59.7546 116.321 59.9551 116.517C60.1556 116.713 60.4108 116.811 60.7207 116.811C61.0671 116.811 61.3975 116.697 61.7119 116.469C61.9443 116.296 62.097 116.084 62.1699 115.833C62.2201 115.669 62.2451 115.357 62.2451 114.896V114.514ZM65.9502 118V107.979H67.8711V111.588C68.4635 110.913 69.1654 110.576 69.9766 110.576C70.8607 110.576 71.5921 110.897 72.1709 111.54C72.7497 112.178 73.0391 113.096 73.0391 114.295C73.0391 115.535 72.7428 116.489 72.1504 117.159C71.5625 117.829 70.847 118.164 70.0039 118.164C69.5892 118.164 69.179 118.062 68.7734 117.856C68.3724 117.647 68.026 117.339 67.7344 116.934V118H65.9502ZM67.8574 114.213C67.8574 114.965 67.9759 115.521 68.2129 115.881C68.5456 116.391 68.9876 116.646 69.5391 116.646C69.9629 116.646 70.3229 116.466 70.6191 116.106C70.9199 115.742 71.0703 115.17 71.0703 114.391C71.0703 113.561 70.9199 112.964 70.6191 112.6C70.3184 112.23 69.9333 112.046 69.4639 112.046C69.0036 112.046 68.6208 112.226 68.3154 112.586C68.0101 112.941 67.8574 113.484 67.8574 114.213ZM74.5908 118V107.979H76.5117V118H74.5908ZM82.6914 115.689L84.6055 116.011C84.3594 116.713 83.9697 117.248 83.4365 117.617C82.9079 117.982 82.2448 118.164 81.4473 118.164C80.1849 118.164 79.2507 117.752 78.6445 116.927C78.166 116.266 77.9268 115.432 77.9268 114.425C77.9268 113.222 78.2412 112.281 78.8701 111.602C79.499 110.918 80.2943 110.576 81.2559 110.576C82.3359 110.576 83.1882 110.934 83.8125 111.649C84.4368 112.36 84.7354 113.452 84.708 114.924H79.8955C79.9092 115.493 80.0641 115.938 80.3604 116.257C80.6566 116.571 81.0257 116.729 81.4678 116.729C81.7686 116.729 82.0215 116.646 82.2266 116.482C82.4316 116.318 82.5866 116.054 82.6914 115.689ZM82.8008 113.748C82.7871 113.192 82.6436 112.771 82.3701 112.483C82.0967 112.192 81.764 112.046 81.3721 112.046C80.9528 112.046 80.6064 112.199 80.333 112.504C80.0596 112.809 79.9251 113.224 79.9297 113.748H82.8008ZM90.4365 112.142V110.74H91.8379V112.142H90.4365ZM90.4365 118V116.599H91.8379V118H90.4365ZM97.6416 113.119C97.6416 111.456 98.0882 110.155 98.9814 109.216C99.8747 108.272 101.028 107.801 102.44 107.801C103.366 107.801 104.2 108.022 104.942 108.464C105.685 108.906 106.25 109.523 106.638 110.316C107.03 111.105 107.226 112 107.226 113.003C107.226 114.019 107.021 114.928 106.61 115.73C106.2 116.533 105.619 117.141 104.867 117.556C104.115 117.966 103.304 118.171 102.434 118.171C101.49 118.171 100.647 117.943 99.9043 117.487C99.1615 117.032 98.5986 116.41 98.2158 115.621C97.833 114.833 97.6416 113.999 97.6416 113.119ZM99.0088 113.14C99.0088 114.347 99.3324 115.3 99.9795 115.997C100.631 116.69 101.447 117.036 102.427 117.036C103.425 117.036 104.245 116.685 104.888 115.983C105.535 115.282 105.858 114.286 105.858 112.996C105.858 112.18 105.719 111.469 105.441 110.863C105.168 110.253 104.765 109.781 104.231 109.448C103.703 109.111 103.108 108.942 102.447 108.942C101.508 108.942 100.7 109.266 100.021 109.913C99.346 110.556 99.0088 111.631 99.0088 113.14ZM113.542 118V116.934C112.977 117.754 112.209 118.164 111.238 118.164C110.81 118.164 110.409 118.082 110.035 117.918C109.666 117.754 109.39 117.549 109.208 117.303C109.03 117.052 108.905 116.747 108.832 116.387C108.782 116.145 108.757 115.762 108.757 115.238V110.74H109.987V114.767C109.987 115.409 110.012 115.842 110.062 116.065C110.14 116.389 110.304 116.644 110.555 116.831C110.805 117.013 111.115 117.104 111.484 117.104C111.854 117.104 112.2 117.011 112.523 116.824C112.847 116.633 113.075 116.375 113.207 116.052C113.344 115.724 113.412 115.25 113.412 114.63V110.74H114.643V118H113.542ZM116.584 109.394V107.979H117.814V109.394H116.584ZM116.584 118V110.74H117.814V118H116.584Z" fill="#697077"/>
</svg>
